<svg viewBox="0 0 256 256" xmlns="http://www.w3.org/2000/svg">
  <path transform="scale(1, -1) translate(0, -256)" fill="currentColor" d="M234 198h-36v15q0 8 -5.5 13.5t-13.5 5.5h-102q-8 0 -13.5 -5.5t-5.5 -13.5v-15h-30q-9 0 -16 -6.5t-7 -15.5v-4q0 -18 13 -31t31 -13h9q3 -20 18.5 -34.5t36.5 -14.5h8v-41h-21q-3 0 -5.5 -2.5t-2.5 -5.5t2.5 -5t5.5 -2h57q3 0 5 2t2 5t-2 5.5t-5 2.5h-21v41h8 q21 0 36.5 14t17.5 35h10q18 0 31 13t13 31v9q-1 7 -6 12t-12 5zM72 213q0 2 1.5 3.5t3.5 1.5h102q2 0 3.5 -1.5t1.5 -3.5v-15h-112v15zM19 172v4q0 3 2.5 5.5t6.5 2.5h30v-42h-9q-13 0 -21.5 8.5t-8.5 21.5zM143 93h-30q-17 0 -29 12t-12 29v50h112v-50q0 -17 -12 -29 t-29 -12zM237 172q0 -12 -8.5 -21t-21.5 -9h-9v42h36q1 0 2 -1t1 -2v-9zM134 173q-3 2 -6 1l-16 -6q-3 0 -4 -3t-0.5 -5.5t3.5 -4t5 -0.5l6 2v-33q0 -3 2.5 -5t5.5 -2t5 2t2 5v43q0 4 -3 6z" />
</svg>