<svg viewBox="0 0 1024 1024" xmlns="http://www.w3.org/2000/svg">
  <path transform="scale(1, -1) translate(0, -960)" fill="currentColor" d="M928 571h-208q0 3 -1 4.5t-2 3.5l-143 141q6 8 9 18.5t3 21.5q0 31 -22 53t-54 22q-31 0 -53 -22t-22 -53q0 -11 3.5 -21.5t7.5 -18.5l-140 -141q-2 -1 -3 -3t-1 -5h-206q-26 0 -45 -18.5t-19 -45.5v-381q0 -26 19 -45t45 -19h832q26 0 45 19t19 45v381q0 27 -19 45.5 t-45 18.5zM512 802q18 0 30.5 -13t12.5 -31q0 -8 -3.5 -16t-9.5 -14v0v0v0v0q-6 -6 -13 -9.5t-17 -3.5q-8 0 -16 3.5t-14 9.5v0v0v0v0q-6 6 -9.5 13.5t-3.5 16.5q0 18 12.5 31t30.5 13v0zM472 696q8 -6 18.5 -8.5t21.5 -2.5t21.5 3t18.5 8l125 -125h-330l125 125v0zM960 126 q0 -13 -9.5 -22.5t-22.5 -9.5h-832q-13 0 -22.5 9.5t-9.5 22.5v381q0 13 9.5 22.5t22.5 9.5h832q13 0 22.5 -9.5t9.5 -22.5v-381zM274 427h-95q-7 0 -11.5 -4.5t-4.5 -11.5t4.5 -11.5t11.5 -4.5h79v-80h-79q-7 0 -11.5 -4.5t-4.5 -11.5v-89q0 -8 4.5 -12t11.5 -4h95 q7 0 11.5 4t4.5 12q0 7 -4.5 11.5t-11.5 4.5h-79v57h79q7 0 11.5 4.5t4.5 11.5v112q0 7 -4.5 11.5t-11.5 4.5zM470 426q-7 0 -11.5 -4.5t-4.5 -11.5v-84h-72v84q0 7 -4 11.5t-12 4.5q-7 0 -11.5 -4.5t-4.5 -11.5v-100q0 -7 4.5 -11.5t11.5 -4.5h88v-84q0 -8 4.5 -12t11.5 -4 q8 0 12 4t4 12v200q0 7 -4 11.5t-12 4.5zM835 418h-104q-7 0 -11.5 -4.5t-4.5 -11.5q0 -8 4.5 -12t11.5 -4h83l-46 -178q-1 -6 2 -12t9 -7h2.5h2.5q5 0 9.5 3t6.5 8l53 197q1 3 0 7t-3 7q-3 4 -7 5.5t-8 1.5v0zM648 318h-58q-7 0 -11.5 -4t-4.5 -12q0 -7 4.5 -11.5 t11.5 -4.5h58q7 0 11.5 4.5t4.5 11.5q0 8 -4.5 12t-11.5 4z" />
</svg>