<svg viewBox="0 0 1024 1024" xmlns="http://www.w3.org/2000/svg">
  <path transform="scale(1, -1) translate(0, -960)" fill="currentColor" d="M989 315l-91 133q-3 4 -6.5 5t-6.5 1h-149v39q0 29 -21 49.5t-49 20.5h-103q-7 0 -11.5 -4.5t-4.5 -11.5t4.5 -11.5t11.5 -4.5h103q15 0 26.5 -11.5t11.5 -26.5v-378h-141q-3 27 -23 45t-47 18t-47 -18t-24 -45h-96q-15 0 -26.5 11.5t-11.5 27.5v176q0 7 -4.5 11.5 t-11.5 4.5t-11.5 -4.5t-4.5 -11.5v-175q0 -29 21 -49.5t49 -20.5h100q7 -21 25 -34.5t42 -13.5q23 0 41 13t26 35h213q7 -21 25 -34.5t42 -13.5q23 0 41 13t26 35h69q7 0 11.5 4.5t4.5 11.5v206q0 3 -1 5t-2 3v0zM877 422l75 -108h-216v108h141zM493 69q-16 0 -27.5 11.5 t-11.5 26.5q0 16 11.5 27.5t27.5 11.5q15 0 26.5 -11.5t11.5 -27.5q0 -15 -11.5 -26.5t-26.5 -11.5v0zM838 69q-15 0 -26.5 11.5t-11.5 26.5q0 16 11.5 27.5t26.5 11.5q16 0 27.5 -11.5t11.5 -27.5q0 -15 -11.5 -26.5t-27.5 -11.5zM909 115q-4 27 -23.5 45t-47.5 18 q-26 0 -46 -18t-24 -45h-32v167h224v-167h-51zM504 624q0 49 -19 91q-18 43 -50 75t-75 51q-43 18 -91 18q-49 0 -93 -18q-43 -19 -75 -51t-50 -75q-19 -42 -19 -91t19 -91q18 -43 50 -75t75 -51q43 -18 91 -18q49 0 93 18q43 19 75 51t50 75q19 42 19 91zM64 624 q0 42 16 79t43.5 64.5t64.5 43.5t79 16t79 -16q38 -16 65.5 -43.5t44.5 -64.5q16 -37 16 -79t-16 -79t-43.5 -64.5t-64.5 -43.5t-79 -16t-79 16q-38 16 -65.5 43.5t-44.5 64.5q-16 37 -16 79zM230 717h-56q-7 0 -11.5 -4.5t-4.5 -11.5t4.5 -11.5t11.5 -4.5h40v-56h-40 q-7 0 -11.5 -4.5t-4.5 -11.5v-88q0 -7 4.5 -11.5t11.5 -4.5h56q8 0 12 4.5t4 11.5t-4 11.5t-12 4.5h-40v56h40q8 0 12 4.5t4 11.5v88q0 6 -4 11t-12 5zM302 595h66v-64q0 -7 4.5 -11.5t11.5 -4.5t11.5 4.5t4.5 11.5v69v2.5t-2 2.5q0 1 1 2t1 3v88q0 7 -4.5 11.5t-11.5 4.5 t-11.5 -4.5t-4.5 -11.5v-72h-50v72q0 7 -4 11.5t-12 4.5q-7 0 -11.5 -4.5t-4.5 -11.5v-88q0 -5 4.5 -10t11.5 -5z" />
</svg>