<svg viewBox="0 0 256 256" xmlns="http://www.w3.org/2000/svg">
  <path transform="scale(1, -1) translate(0, -256)" fill="currentColor" d="M250 97l-23 33q-2 3 -6 3h-34v7q0 8 -6 14t-15 6h-26q-3 0 -5 -2t-2 -5t2 -5t5 -2h26q3 0 5 -2t2 -5v-91h-30q-2 7 -7.5 11.5t-12.5 4.5t-12.5 -4.5t-7.5 -11.5h-21q-3 0 -5 2t-2 5v43q0 3 -2 5.5t-5 2.5t-5.5 -2.5t-2.5 -5.5v-43q0 -9 6.5 -15t14.5 -6h23q2 -5 7.5 -8.5 t11.5 -3.5t11 3t8 9h49q3 -5 8 -8.5t11 -3.5t11 3t8 9h15q3 0 5 2t2 5v52q0 1 -1 4zM218 119l14 -21h-45v21h31zM123 36q-3 0 -5 2t-2 5t2 5t5 2t5 -2t2 -5t-2 -5t-5 -2zM210 36q-3 0 -5 2t-2 5t2 5t5 2t4.5 -2t1.5 -5t-2 -5t-4 -2zM230 48q-2 7 -7.5 11.5t-13 4.5t-13 -4.5 t-6.5 -11.5h-3v36h50v-36h-7zM129 172q0 17 -8.5 31t-22.5 22.5t-31 8.5t-31 -8.5t-22.5 -22.5t-8.5 -31t8.5 -31t22.5 -22.5t31 -8.5t31 8.5t22.5 22.5t8.5 31zM19 172q0 20 14 34t34 14t34 -14t14 -34t-14 -34t-34 -14t-34 14t-14 34zM58 198h-14q-3 0 -5.5 -2t-2.5 -5 t2.5 -5t5.5 -2h7v-8h-7q-3 0 -5.5 -2t-2.5 -5v-22q0 -3 2.5 -5t5.5 -2h14q3 0 5 2t2 5t-2 5t-5 2h-8v8h8q3 0 5 2t2 5v22q0 3 -2 5t-5 2zM76 162h13v-13q0 -3 2 -5t5 -2t5 2t2 5v41q0 3 -2 5.5t-5 2.5t-5 -2.5t-2 -5.5v-14h-7v15q0 3 -2 5t-5 2t-5 -2t-2 -5v-22q0 -3 2.5 -5 t5.5 -2z" />
</svg>