<svg viewBox="0 0 256 256" xmlns="http://www.w3.org/2000/svg">
  <path transform="scale(1, -1) translate(0, -256)" fill="currentColor" d="M251 186v0v0q0 13 -16 23.5t-46 16.5q-3 0 -5.5 -1.5t-3 -4.5t1 -5.5t4.5 -2.5q25 -5 38 -12.5t13 -13.5t-7 -11t-19 -9v17q0 3 -2 5t-5 2t-5.5 -2t-2.5 -5v-21q-31 -8 -68.5 -8t-67.5 8v21q0 3 -2.5 5t-5.5 2t-5 -2t-2 -5v-17q-12 4 -19 9.5t-7 11t13 13t38 12.5 q3 0 4.5 2.5t1 5.5t-3 4.5t-5.5 1.5q-29 -6 -45.5 -16.5t-16.5 -23.5v-110q0 -14 18 -24.5t46 -16t59 -5.5q23 0 45.5 3.5t40.5 9.5l2 1q35 12 35 32v110zM54 53l27 31q2 3 6 3.5t7 -2.5l9 -7q7 -5 16.5 -4t15.5 8l15 16q3 4 7.5 4t6.5 -4l37 -45q-33 -9 -73 -9q-43 0 -74 9 zM215 58l-41 49q-7 8 -18 9q-5 0 -9.5 -2t-8.5 -6l-14 -17q-2 -3 -6 -3t-7 2l-9 7q-7 5 -16.5 4.5t-15.5 -7.5l-30 -35q-10 4 -15.5 8.5t-5.5 8.5v88q10 -8 31 -14h2q33 -10 76 -10t76 10h2q20 6 31 14v-88q0 -9 -22 -18z" />
</svg>