<svg viewBox="0 0 1024 1024" xmlns="http://www.w3.org/2000/svg">
  <path transform="scale(1, -1) translate(0, -960)" fill="currentColor" d="M1008 686v0v0q0 50 -64.5 90t-183.5 62q-6 2 -12 -1.5t-7 -10.5q-1 -6 2 -12t11 -8q100 -20 161 -52.5t61 -68.5q0 -27 -35.5 -53t-100.5 -46v88q0 7 -4.5 11.5t-11.5 4.5t-11.5 -4.5t-4.5 -11.5v-98q-59 -16 -133.5 -25.5t-162.5 -9.5t-162.5 9.5t-133.5 25.5v98 q0 7 -4.5 11.5t-11.5 4.5t-11.5 -4.5t-4.5 -11.5v-88q-65 20 -100.5 46t-35.5 53q0 35 60 68t162 53q6 2 10 7t3 13q-1 6 -6.5 10t-12.5 2q-119 -22 -183.5 -62t-64.5 -90v0v0v-454v0v0q0 -43 44 -75q43 -33 113.5 -55.5t159.5 -33.5q89 -12 179 -12t179 11q88 12 158.5 34 t114.5 55t44 76v0v0v454v0zM184 133l123 141q13 15 34 17.5t38 -9.5l35 -28q27 -20 60.5 -17t55.5 29l60 68q8 9 19 13.5t21 4.5q12 0 22.5 -5.5t17.5 -13.5l165 -202q-30 -9 -66 -17t-76.5 -14t-86.5 -9q-45 -3 -94 -3q-50 1 -96 4q-46 4 -87.5 9.5t-77.5 13.5t-67 18v0z M867 142l-173 212q-12 14 -28 22t-36 8q-19 0 -35.5 -7t-29.5 -22l-61 -69q-13 -15 -34 -17t-38 11l-35 27q-27 21 -60.5 17.5t-54.5 -28.5l-132 -152q-49 20 -75.5 42.5t-26.5 45.5v0v0v389q28 -27 78 -48q49 -20 111.5 -34t132.5 -21q71 -8 142 -8t142 8q70 7 132.5 21 t111.5 34q50 21 78 48v-389v0v0q0 -23 -28.5 -46.5t-80.5 -43.5v0z" />
</svg>