<svg viewBox="0 0 256 256" xmlns="http://www.w3.org/2000/svg">
  <path transform="scale(1, -1) translate(0, -256)" fill="currentColor" d="M142 225q-22 0 -41 -8q-2 -1 -2 -3t1 -4.5t2.5 -4.5t4.5 -1q18 6 36.5 6t37.5 -8q16 -7 29 -18q0 -1 2.5 -1t5 3t3.5 5t-1 3q-14 14 -33 21q-21 10 -45 10zM65 88q1 -2 2 -5q6 -15 17 -26q10 -9 26 -18q14 -6 32 -6q15 0 32 6q14 7 26 18q9 9 17 26q6 13 6 31q0 16 -6 31 t-17 27q-10 9 -26 18q-15 6 -31.5 6t-32.5 -6q-6 -3 -15 -9t-14 -12v67h112q4 0 4 8t-4 8h-121q-3 0 -4.5 -2t-1.5 -4v-94q0 -2 2.5 -3.5t6 -2.5t5.5 0t3 3l1 1q1 2 6 7l4 5q10 9 22 14t25 5t25.5 -5t21.5 -14.5t14 -21.5t5 -25t-5 -25.5t-14 -22t-21.5 -14.5t-25.5 -5 q-20 0 -33 10v57q0 12 9.5 22.5t24 10.5t24 -9.5t9.5 -23.5t-10 -24t-24 -10l-11 2q-3 1 -6 -6v0q-1 -6 2 -8v0q10 -3 16 -3q20 0 34.5 14.5t14.5 35t-14.5 35t-34.5 14.5t-34.5 -14t-14.5 -32v-47q-8 8 -14 23q-1 4 -8 1l-5 -4q-1 -2 -1 -4zM221 46q-3 2 -4.5 2.5 t-3.5 -0.5v0q-15 -15 -31 -21q-19 -8 -38.5 -8t-37.5 7.5t-32 21.5q-15 15 -21 31q-4 8 -6 19l-1 3q0 4 -8 3l-1 -1q-5 -1 -5 -4q2 -14 7 -26q8 -19 24 -35t36 -25q23 -9 44 -9q24 0 43.5 8.5t36.5 24.5v1q2 3 -2 8zM123 102q0 -1 1 -3l2 -1q2 -3 4 -3t2 1l9 9l8 -9 q1 -1 3 -1t4.5 2.5t2 3.5l-1.5 3l-9 8l10 10q2 3 -2 6.5t-7 1.5l-9 -8l-8 9h-2q-2 0 -4.5 -2t-2.5 -3.5t1 -3.5l9 -9l-8 -9q-2 0 -2 -2z" />
</svg>