<svg viewBox="0 0 1024 1024" xmlns="http://www.w3.org/2000/svg">
  <path transform="scale(1, -1) translate(0, -960)" fill="currentColor" d="M443 378q7 0 11.5 4t4.5 12q0 7 -4.5 11.5t-11.5 4.5h-147q-7 0 -11.5 -4.5t-4.5 -11.5v-138q0 -7 4.5 -11.5t11.5 -4.5h130q1 0 1 -1v-1v-102q0 -1 -0.5 -1.5l-0.5 -0.5h-130q-7 0 -11.5 -4t-4.5 -12q0 -7 4.5 -11.5t11.5 -4.5h130q14 0 23.5 10t9.5 24v102 q0 15 -9.5 24.5t-23.5 9.5h-114v106h131zM598 378h130q7 0 11.5 4t4.5 12q0 7 -4.5 11.5t-11.5 4.5h-130q-14 0 -23.5 -10t-9.5 -24v-242q0 -14 9.5 -23.5t23.5 -9.5h112q15 0 24.5 9.5t9.5 23.5v85q0 15 -9.5 24.5t-24.5 9.5h-38q-7 0 -11.5 -4.5t-4.5 -11.5t4.5 -11.5 t11.5 -4.5h38q2 0 2 -1v-1v-85q0 -1 -1 -1h-1h-112q-1 0 -1 0.5v0.5v242q0 1 0.5 1.5zM944 563h-400v117q31 6 52.5 31t21.5 57q0 37 -26.5 63.5t-63.5 26.5t-63.5 -26.5t-26.5 -63.5q0 -32 21.5 -57t52.5 -31v-117h-432q-26 0 -45 -18.5t-19 -45.5v-486q0 -27 19 -45.5 t45 -18.5h864q26 0 45 18.5t19 45.5v486q0 27 -19 45.5t-45 18.5v0zM470 768q0 24 17 41t41 17t41 -17t17 -41q0 -23 -16 -39.5t-39 -18.5h-1.5h-1.5h-1.5h-1.5q-23 2 -39 18.5t-16 39.5zM976 13q0 -13 -9.5 -22.5t-22.5 -9.5h-864q-13 0 -22.5 9.5t-9.5 22.5v486 q0 13 9.5 22.5t22.5 9.5h864q13 0 22.5 -9.5t9.5 -22.5v-486zM744 726q2 -2 5.5 -3t5.5 -1q3 0 6 1t5 3q18 18 28.5 41.5t10.5 50.5q0 26 -9.5 49.5t-29.5 41.5q-4 5 -10.5 5t-11.5 -5t-5 -11.5t5 -11.5q13 -13 21 -31t8 -37q0 -20 -7.5 -37.5t-21.5 -31.5q-5 -5 -5 -11.5 t5 -11.5v0zM867 693q3 -3 6 -4t5 -1q3 0 6 1t6 4q25 25 38 57.5t13 67.5q0 36 -13.5 67.5t-37.5 56.5q-5 5 -11.5 5t-11.5 -5q-5 -4 -5 -10.5t5 -11.5q21 -20 32 -47t11 -55q0 -29 -10.5 -55.5t-32.5 -47.5q-5 -5 -5 -11t5 -11v0zM269 722q3 0 6 1t5 3q5 5 5 11.5t-5 11.5 q-13 13 -21 31t-8 38q0 19 7.5 36.5t21.5 31.5q5 5 5 11.5t-5 11.5t-11.5 5t-10.5 -5q-38 -37 -38 -91t38 -92q2 -2 5 -3t6 -1zM146 688q3 0 5.5 1t5.5 4q5 5 5 11t-5 11q-21 21 -32 47.5t-11 55.5q0 28 10.5 55t32.5 47q5 5 5 11.5t-5 10.5q-5 5 -11.5 5t-11.5 -5 q-25 -25 -38 -57.5t-13 -66.5q0 -36 13.5 -68t37.5 -57q3 -3 6 -4t6 -1v0z" />
</svg>