<svg viewBox="0 0 256 256" xmlns="http://www.w3.org/2000/svg">
  <path transform="scale(1, -1) translate(0, -256)" fill="currentColor" d="M58 128q3 0 5.5 2t2.5 5t-2.5 5t-5.5 2h-46q-3 0 -5 -2t-2 -5v-44q0 -3 2 -5t5 -2h39v-30h-39q-3 0 -5 -2t-2 -5t2 -4.5t5 -1.5h41q5 0 9 3.5t4 9.5v32q0 5 -4 9t-9 4h-34v29h39zM148 128q3 0 5 2t2 5t-2 5t-5 2h-41q-5 0 -9 -4t-4 -9v-76q0 -5 4 -9t9 -4h35q6 0 9.5 4 t3.5 9v27q0 5 -3.5 9t-9.5 4h-12q-3 0 -5 -2t-2 -5t2 -5.5t5 -2.5h11v-24h-33v74h40zM181 215q-3 0 -5 -2t-2 -5t2 -5t5 -2q15 0 28 -7.5t20.5 -20.5t7.5 -28q0 -3 2 -5t5 -2t5 2t2 5q0 19 -9.5 35t-25.5 25.5t-35 9.5zM170 178q-3 0 -5 -2.5t-2 -5.5t2 -5t5 -2 q12 0 20.5 -8.5t8.5 -20.5q0 -3 2 -5t5 -2t5.5 2t2.5 5q0 18 -13 31t-31 13z" />
</svg>