<svg viewBox="0 0 1024 1024" xmlns="http://www.w3.org/2000/svg">
  <path transform="scale(1, -1) translate(0, -960)" fill="currentColor" d="M224 459q7 0 11.5 4.5t4.5 11.5t-4.5 11.5t-11.5 4.5h-192q-7 0 -11.5 -4.5t-4.5 -11.5v-179q0 -7 4.5 -11.5t11.5 -4.5h168q2 0 5 -2t3 -4v-133q0 -3 -2 -5.5t-6 -2.5h-168q-7 0 -11.5 -4.5t-4.5 -11.5t4.5 -11.5t11.5 -4.5h168q17 0 28.5 11.5t11.5 28.5v131 q0 17 -11.5 27.5t-28.5 10.5h-152v148h176v1zM426 459h168q7 0 11.5 4.5t4.5 11.5t-4.5 11.5t-11.5 4.5h-168q-17 0 -28.5 -11.5t-11.5 -28.5v-313q0 -17 11.5 -28.5t28.5 -11.5h145q17 0 28.5 11.5t11.5 28.5v110q0 17 -11.5 28.5t-28.5 11.5h-49q-8 0 -12 -4.5t-4 -11.5 t4 -11.5t12 -4.5h49q3 0 5.5 -2t2.5 -6v-110q0 -3 -2 -5.5t-6 -2.5h-145q-3 0 -5.5 2t-2.5 6v313q1 4 3 6t5 2v0zM928 715q-38 39 -89 59.5t-106 20.5q-7 0 -11.5 -4.5t-4.5 -11.5t4.5 -11.5t11.5 -4.5q49 0 93 -18.5t78 -53.5q35 -35 53.5 -79t18.5 -92q0 -7 4.5 -11.5 t11.5 -4.5t11.5 4.5t4.5 11.5q0 56 -21 106.5t-59 88.5zM686 642q-7 0 -11.5 -4.5t-4.5 -11.5q0 -8 4.5 -12t11.5 -4q56 0 95.5 -40t39.5 -95q0 -7 4.5 -11.5t11.5 -4.5t11.5 4.5t4.5 11.5q0 69 -49 118t-118 49z" />
</svg>