<svg viewBox="0 0 1024 1024" xmlns="http://www.w3.org/2000/svg">
  <path transform="scale(1, -1) translate(0, -960)" fill="currentColor" d="M419 325q7 0 11.5 4.5t4.5 11.5t-4.5 11.5t-11.5 4.5h-200q-7 0 -11.5 -4.5t-4.5 -11.5v-187q0 -8 4.5 -12t11.5 -4h175q3 0 5.5 -2.5t2.5 -5.5v-140q0 -3 -2.5 -5.5t-5.5 -2.5h-175q-7 0 -11.5 -4t-4.5 -12q0 -7 4.5 -11.5t11.5 -4.5h175q16 0 28 12t12 28v140 q0 16 -12 28t-28 12h-159v155h184v0zM629 325h174q7 0 11.5 4.5t4.5 11.5t-4.5 11.5t-11.5 4.5h-174q-17 0 -28.5 -11.5t-11.5 -28.5v-325q0 -17 11.5 -28.5t28.5 -11.5h150q17 0 28.5 11.5t11.5 28.5v115q0 17 -11.5 28.5t-28.5 11.5h-51q-7 0 -11.5 -4.5t-4.5 -11.5 t4.5 -11.5t11.5 -4.5h51q4 0 6 -2t2 -6v-115q0 -4 -2 -6t-6 -2h-150q-4 0 -6 2t-2 6v325q0 3 2.5 5.5t5.5 2.5zM933 770q-87 87 -197 130q-110 44 -224 44t-224 -44q-110 -43 -197 -130q-5 -5 -5 -11.5t5 -11.5q3 -2 6 -3.5t5 -1.5q3 0 6 1.5t6 3.5q82 82 185 123 q104 42 212 42t212 -41q104 -42 186 -124q5 -5 11 -5t11 5t6 11.5t-4 11.5zM678 499q4 0 6.5 1.5t5.5 3.5q4 5 4 11.5t-4 10.5q-36 36 -82 55t-96 19t-96 -19t-82 -55q-4 -4 -4 -10.5t4 -11.5q5 -5 11.5 -5t11.5 5q31 31 71 47.5t84 16.5t84 -16.5t71 -47.5q3 -2 5.5 -3.5 t5.5 -1.5zM237 626q57 57 129 85q72 29 147 29t147 -29q72 -28 129 -85q5 -5 11 -5t11 5q5 4 5 10.5t-5 11.5q-62 62 -139 93q-78 31 -159 31t-159 -31t-140 -93q-4 -5 -4 -11.5t4 -10.5q3 -3 6 -4t6 -1q2 0 5 1t6 4v0z" />
</svg>