<svg viewBox="0 0 256 256" xmlns="http://www.w3.org/2000/svg">
  <path transform="scale(1, -1) translate(0, -256)" fill="currentColor" d="M106 95q3 0 5 2t2 5t-2 5.5t-5 2.5h-48q-3 0 -5.5 -2.5t-2.5 -5.5v-45q0 -3 2.5 -5t5.5 -2h41v-31h-42q-3 0 -5 -2t-2 -5t2 -5.5t5 -2.5h43q5 0 8.5 4t3.5 9v34q0 5 -3.5 9t-8.5 4h-36v31h42zM199 95q3 0 5 2t2 5t-2 5.5t-5 2.5h-43q-5 0 -8.5 -4t-3.5 -9v-79 q0 -5 3.5 -9t8.5 -4h37q5 0 9 4t4 9v28q0 5 -4 8.5t-9 3.5h-13q-3 0 -5 -2t-2 -5t2 -5t5 -2h12v-25h-34v76h41zM64 169q17 17 40.5 23.5t47 0t40.5 -23.5q2 -2 5 -2t5 2t2 5t-2 5q-20 20 -47 27t-54.5 0t-47.5 -27q-2 -2 -2 -5t2.5 -5t5 -2t5.5 2zM168 137q3 0 5 2t2 5t-2 5 q-12 12 -28.5 16.5t-33 0t-29.5 -16.5q-2 -2 -2 -5t2.5 -5t5 -2t4.5 2q15 15 36 15q10 0 19 -4t16 -11q2 -2 5 -2zM232 208q-21 21 -48 32t-56 11t-56 -11t-48 -32q-2 -2 -2 -5t2.5 -5t5 -2t4.5 2q19 19 43 29t51 10t51 -10t43 -29q2 -2 5 -2t5 2t2 5t-2 5z" />
</svg>