<svg viewBox="0 0 256 256" xmlns="http://www.w3.org/2000/svg">
  <path transform="scale(1, -1) translate(0, -256)" fill="currentColor" d="M228 197l-90 52q-5 3 -10 3t-10 -3l-90 -52q-4 -3 -7 -7t-3 -10v-104q0 -6 3 -10t7 -7l91 -52q4 -3 9 -3t10 3l90 52q4 3 7 7t3 10v104q0 6 -3 10t-7 7zM35 185l91 52l2 1l2 -1l85 -49l-47 -28q-2 2 -4 3l-24 14q-5 4 -11.5 4t-12.5 -4l-24 -14q-5 -3 -8.5 -8.5 t-3.5 -11.5l1 -34l-49 -29v100q0 3 3 5zM99 105q-5 3 -5 8v29q0 6 5 8l25 15q2 1 4.5 1t4.5 -1l25 -15q4 -2 4 -8v-29q0 -5 -4 -8l-25 -14q-2 -1 -4.5 -1t-4.5 1zM221 71l-91 -52q-2 -2 -5 0l-85 50l48 27l3 -2l25 -15q6 -3 12.5 -3t11.5 3l25 14q5 3 8 8.5t3 11.5v29v6 l48 29v-102v-1z" />
</svg>