<svg viewBox="0 0 1024 1024" xmlns="http://www.w3.org/2000/svg">
  <path transform="scale(1, -1) translate(0, -960)" fill="currentColor" d="M899 928h-181q-45 0 -86 -18q-40 -17 -70.5 -47.5t-47.5 -70.5q-18 -41 -18 -86v-242h-242q-45 0 -86 -18q-40 -17 -70.5 -47.5t-47.5 -70.5q-18 -41 -18 -86v-180q0 -39 27 -66.5t66 -27.5h179q46 0 87 18q41 17 71.5 47.5t47.5 70.5q18 41 18 86v242h242q45 0 86 18 q40 17 70.5 47.5t47.5 70.5q18 41 18 86v181q0 39 -27 66t-66 27v0zM496 190q0 -78 -56 -134t-134 -56h-181q-25 0 -43 18t-18 43v181q0 78 56 134t134 56h242v-242v0zM960 654q0 -78 -56 -134t-134 -56h-242v242q0 78 56 134t134 56h180q26 0 44 -18t18 -43v-181v0z" />
</svg>