<svg viewBox="0 0 256 256" xmlns="http://www.w3.org/2000/svg">
  <path transform="scale(1, -1) translate(0, -256)" fill="currentColor" d="M225 251h-45q-16 0 -29.5 -8t-21.5 -21.5t-8 -29.5v-57h-57q-16 0 -29.5 -8t-21.5 -21.5t-8 -29.5v-45q0 -11 7.5 -18.5t18.5 -7.5h45q16 0 29.5 8t21.5 21.5t8 29.5v57h57q16 0 29.5 8t21.5 21.5t8 29.5v45q0 11 -7.5 18.5t-18.5 7.5zM121 64q0 -19 -13 -32t-32 -13h-45 q-5 0 -8.5 3.5t-3.5 8.5v45q0 19 13 32t32 13h57v-57zM237 180q0 -19 -13 -32t-32 -13h-57v57q0 19 13 32t32 13h45q5 0 8.5 -3.5t3.5 -8.5v-45z" />
</svg>