<svg viewBox="0 0 1024 1024" xmlns="http://www.w3.org/2000/svg">
  <path transform="scale(1, -1) translate(0, -960)" fill="currentColor" d="M766 243q52 0 89.5 37t37.5 90q0 51 -37 88.5t-90 37.5q-52 0 -89 -37.5t-37 -88.5q0 -53 37 -90t89 -37zM766 464q39 0 67 -27.5t28 -66.5q0 -40 -27.5 -67.5t-67.5 -27.5q-39 0 -66.5 27.5t-27.5 67.5q0 39 27.5 66.5t66.5 27.5zM987 66q-42 43 -99.5 66t-119.5 23 t-119.5 -23.5t-99.5 -65.5q-5 -5 -5 -11.5t5 -11.5t11 -5t11 5q37 39 89 59.5t108 20.5t107 -20.5t90 -59.5q2 -2 5.5 -3.5t5.5 -1.5q4 0 6.5 1.5t4.5 3.5q5 5 5 11.5t-5 11.5zM416 587q-8 12 -8 26.5t8 24.5l50 71q6 8 6 18.5t-3 19.5q-4 10 -13.5 14.5t-18.5 4.5h-373v80 q0 8 -4.5 12t-11.5 4t-11.5 -4t-4.5 -12v-796q0 -8 4.5 -12t11.5 -4t11.5 4t4.5 12v409h371q11 0 19 5.5t13 13.5q5 10 4 20t-7 19zM438 494q0 -1 -1 -1h-2h-371v241h371q1 0 2 -0.5l1 -0.5q0 -1 1 -2.5t-1 -2.5l-49 -70q-15 -21 -15 -45t15 -43l49 -71q2 -2 1 -3.5l-1 -1.5 v0z" />
</svg>