<svg viewBox="0 0 256 256" xmlns="http://www.w3.org/2000/svg">
  <path transform="scale(1, -1) translate(0, -256)" fill="currentColor" d="M192 74q14 0 24 10t10 24.5t-10 24.5t-24.5 10t-24.5 -10t-10 -24.5t10 -24.5t25 -10zM192 129q8 0 14 -6t6 -14.5t-6 -14.5t-14.5 -6t-14.5 6t-6 14.5t6 14.5t15 6zM249 34q-11 12 -25.5 18t-31 6t-31.5 -6t-25 -18q-2 -2 -2.5 -5t2 -5t5 -2t5.5 2q9 10 21 15t25.5 5 t25.5 -5.5t21 -14.5q2 -2 5 -2t5 2t2 5.5t-2 4.5zM118 192q4 6 1 12q-1 3 -4 4.5t-7 1.5h-89v18q0 3 -2 5t-5 2t-5 -2t-2 -5v-200q0 -3 2 -5t5 -2t5.5 2t2.5 5v100h89q4 0 7 1.5t4 4.5q3 7 -1 13l-12 17q-2 2 -2 5t2 5zM95 182q-4 -6 -4 -13t4 -13l10 -14h-86v54h86z" />
</svg>