<svg viewBox="0 0 256 256" xmlns="http://www.w3.org/2000/svg">
  <path transform="scale(1, -1) translate(0, -256)" fill="currentColor" d="M183 152v22v37q0 17 -27 27q-25 9 -60.5 9t-60.5 -9q-28 -10 -28 -27v-102q0 -16 28 -27q25 -9 60 -9l15 1q2 -18 12 -33t25.5 -23.5t34.5 -8.5t35.5 9.5t26.5 26t9.5 36t-10 36t-25.5 26t-35 9.5zM21 191q12 -8 32 -12t42.5 -4t42 4t31.5 12v-16q0 -5 -9.5 -10 t-26.5 -8.5t-38 -3.5t-38 3.5t-26.5 8.5t-9.5 10v16zM169 154v-2q-7 -2 -13 -4q6 2 13 6zM95 233q21 0 38 -3.5t26.5 -9t9.5 -10t-9.5 -9.5t-26.5 -8.5t-38 -3.5t-38 3.5t-26.5 8.5t-9.5 9.5t9.5 10t26.5 9t38 3.5zM21 154q12 -7 32 -11t42 -4q35 0 61 9q-20 -8 -34 -26 q-11 -2 -27 -2q-21 0 -38 3.5t-26.5 9t-9.5 9.5v12zM21 110v12q12 -8 32 -12t42 -4l19 1q-3 -9 -4 -19h-15q-21 0 -40 3q-15 4 -24.5 9t-9.5 10zM181 23q-16 0 -29 8t-21 21t-8 29t8 29.5t21 21t29 7.5t29.5 -7.5t21 -21t7.5 -29.5t-7.5 -29t-21 -21t-29.5 -8zM199 88h-11 v10q0 3 -2 5.5t-5 2.5t-5 -2.5t-2 -5.5v-10h-11q-3 0 -5 -2t-2 -5t2 -5t5 -2h11v-11q0 -3 2 -5t5 -2t5 2t2 5v11h10q3 0 5.5 2t2.5 5t-2 5t-5 2z" />
</svg>