<svg viewBox="0 0 256 256" xmlns="http://www.w3.org/2000/svg">
  <path transform="scale(1, -1) translate(0, -256)" fill="currentColor" d="M148 78h-4v4q0 3 -2 5t-5 2t-5 -2t-2 -5v-4h-4q-3 0 -5 -2t-2 -5t2 -5t5 -2h4v-4q0 -3 2 -5.5t5 -2.5t5 2.5t2 5.5v4h4q3 0 5.5 2t2.5 5t-2.5 5t-5.5 2zM229 134q-13 17 -34 23q10 5 16 15t6 21q0 17 -12 29t-29 12t-29 -12t-12 -29q0 -11 6 -21t15 -15q-19 -6 -34 -23 l-3 -4q-10 6 -19 9q9 5 15 14.5t6 21.5q0 17 -12 29t-29 12t-29 -12t-12 -29q0 -12 6 -21.5t15 -14.5q-20 -7 -33 -23q-10 -12 -15.5 -28t-6.5 -35q0 -4 4 -6q11 -6 27 -11q23 -7 44 -7q13 0 29 3q14 -10 29 -10q13 0 24.5 7t17.5 18q21 1 43 8q13 4 25 10q3 2 3 7 q0 18 -6 34t-16 28zM176 220q11 0 19 -7.5t8 -19t-8 -19.5t-19 -8t-19 8t-8 19.5t8 19t19 7.5zM80 202q11 0 19 -8t8 -19.5t-8 -19t-19 -7.5t-19 8t-8 19t8 19t19 8zM19 57q2 30 19 50q8 10 19 15.5t23 5.5q22 0 38 -16q-12 -5 -20 -17t-8 -26t8 -25q-9 -1 -18 -1 q-27 0 -61 14zM138 36q-14 0 -24 9.5t-10 23.5t10 24t23.5 10t23.5 -10t10 -24t-10 -23.5t-23 -9.5zM184 61q0 1 1 1v7q0 20 -14 34t-33 14l-5 -1l-4 4l4 5q8 10 19 15.5t23.5 5.5t23.5 -5.5t19 -15.5q17 -20 18 -50q-26 -12 -52 -14z" />
</svg>