<svg viewBox="0 0 1024 1024" xmlns="http://www.w3.org/2000/svg">
  <path transform="scale(1, -1) translate(0, -960)" fill="currentColor" d="M85 778h102v-103q0 -7 4.5 -11.5t11.5 -4.5t11.5 4.5t4.5 11.5v103h103q7 0 11.5 4t4.5 12q0 7 -4.5 11.5t-11.5 4.5h-103v102q0 7 -4.5 11.5t-11.5 4.5t-11.5 -4.5t-4.5 -11.5v-102h-102q-7 0 -11.5 -4.5t-4.5 -11.5q0 -8 4.5 -12t11.5 -4v0zM942 616l-230 230 q-10 10 -21.5 15t-23.5 5t-24 -5t-21 -15l-33 -33q-19 -19 -19 -45.5t19 -45.5l27 -28l-371 -171q-13 -6 -22.5 -16.5t-14.5 -24.5l-141 -423q-6 -19 -1.5 -38t17.5 -34q11 -9 24 -14t26 -5q6 0 11 1t11 2l423 141q13 5 24 14.5t17 22.5l173 369l27 -27q10 -9 21.5 -14 t23.5 -5t24 5t21 14l33 34q10 9 15 21t5 24t-5.5 25t-14.5 21v0zM589 163q-4 -7 -9.5 -12t-13.5 -7l-420 -142q-6 -3 -12 -2.5t-12 2.5l230 230q12 -8 26 -13t28 -5q41 0 69.5 28.5t28.5 69.5t-28.5 69.5t-69.5 28.5q-40 0 -68.5 -28.5t-28.5 -69.5q0 -17 5.5 -31.5 t13.5 -26.5l-230 -230q-3 6 -3 12t3 14l140 422q3 7 8.5 13t11.5 9l382 176l128 -128zM341 314q0 27 19 46t46 19q28 0 47 -19t19 -46q0 -28 -19 -47t-47 -19q-26 0 -45.5 19t-19.5 47v0zM918 549l-33 -34q-10 -9 -23.5 -9t-21.5 9l-229 231q-9 9 -9 22t9 22l34 34 q5 5 10.5 7.5t11.5 2.5t12 -2.5t11 -7.5l230 -230q5 -5 7.5 -11t2.5 -12t-3.5 -11.5t-8.5 -10.5z" />
</svg>