<svg viewBox="0 0 256 256" xmlns="http://www.w3.org/2000/svg">
  <path transform="scale(1, -1) translate(0, -256)" fill="currentColor" d="M244 242h-32q-2 0 -4 -1.5t-3 -3.5l-13 -52h-33v0q0 16 -8 29t-21 20.5t-28.5 8t-28.5 -7.5t-21 -21t-8 -29v0h-32q-3 0 -5.5 -3t-1.5 -6l20 -86q1 -2 3 -3.5t4 -1.5h145q3 0 4.5 1.5t2.5 3.5l34 138h26q3 0 5 2t2 5t-2 5t-5 2zM102 229q18 0 30.5 -13t12.5 -30l-1 -7 q-2 -16 -14 -26.5t-29 -10.5t-30 13t-13 30.5t13 30.5t31 13zM172 99h-134l-17 72h25q5 -19 20.5 -31t35 -12t35 12t20.5 31h32zM154 62h-100q-10 0 -17 -7t-7 -17t7 -17t17.5 -7t17.5 7t7 17q0 6 -3 10h56q-2 -4 -2 -10q0 -10 7 -17t17 -7t17 7t7.5 17t-7 17t-17.5 7z M65 38q0 -4 -3 -7t-7.5 -3t-7.5 3t-3 7t3 7t7.5 3t7.5 -3t3 -7zM154 27q-4 0 -7 3t-3 7.5t3 7.5t7.5 3t7.5 -3t3 -7.5t-3 -7.5t-8 -3zM85 178h10v-10q0 -3 2 -5t5 -2t5 2t2 5v10h10q3 0 5 2.5t2 5.5t-2 5t-5 2h-10v10q0 3 -2 5t-5 2t-5 -2t-2 -5v-10h-10q-3 0 -5 -2t-2 -5 t2 -5.5t5 -2.5z" />
</svg>