<svg viewBox="0 0 256 256" xmlns="http://www.w3.org/2000/svg">
  <path transform="scale(1, -1) translate(0, -256)" fill="currentColor" d="M82 114q17 0 28.5 11.5t11.5 28t-11.5 28t-28 11.5t-28 -11.5t-11 -28t11.5 -28t27 -11.5zM82 179q11 0 18.5 -7.5t7.5 -18t-7.5 -18t-18 -7.5t-18 7.5t-7.5 18t7.5 18t17.5 7.5zM82 103q-20 0 -39.5 -7t-35.5 -20q-2 -2 -2 -5t1.5 -5.5t4.5 -2.5t5 2q14 11 31 17.5 t35.5 6.5t35.5 -6.5t30 -17.5q2 -2 5 -2t5 2.5t1.5 5t-2.5 5.5q-15 13 -34.5 20t-40.5 7zM244 107h-14v14q0 3 -2 5t-5 2t-5 -2t-2 -5v-14h-14q-3 0 -5 -2t-2 -5t2 -5t5 -2h14v-14q0 -3 2 -5t5 -2t5 2t2 5v14h14q3 0 5 2t2 5t-2 5t-5 2z" />
</svg>