<svg viewBox="0 0 256 256" xmlns="http://www.w3.org/2000/svg">
  <path transform="scale(1, -1) translate(0, -256)" fill="currentColor" d="M244 242h-32q-2 0 -4 -1.5t-3 -3.5l-13 -53h-41q-3 0 -5 -2t-2 -5t2 -5t5 -2h38l-17 -72h-134l-17 72h31q3 0 5 2.5t2 5.5t-2 5t-5 2h-40q-3 0 -5.5 -3t-1.5 -6l20 -86q1 -2 3 -3.5t4 -1.5h145q3 0 4.5 1.5t2.5 3.5l34 138h26q3 0 5 2t2 5t-2 5t-5 2zM154 62h-100 q-10 0 -17 -7t-7 -17.5t7 -17.5t17.5 -7t17.5 7t7 18q0 5 -3 10h56q-2 -5 -2 -10q0 -11 7 -18t17 -7t17 7t7 17.5t-7 17.5t-17 7zM65 38q0 -5 -3 -8t-7.5 -3t-7.5 3t-3 7.5t3 7.5t7.5 3t7.5 -3t3 -7zM154 27q-4 0 -7 3t-3 7.5t3 7.5t7.5 3t7.5 -3t3 -7.5t-3 -7.5t-8 -3z M89 211l8 8v-51q0 -3 2 -5t5 -2t5.5 2t2.5 5v51l8 -8q2 -2 4.5 -2t4.5 2t2 5t-2 5l-20 20q-2 2 -5 2t-5 -2l-20 -20q-2 -2 -2 -5t2 -5t5 -2t5 2z" />
</svg>