<svg viewBox="0 0 1024 1024" xmlns="http://www.w3.org/2000/svg">
  <path transform="scale(1, -1) translate(0, -960)" fill="currentColor" d="M594 235h-28v27q0 8 -4 12t-12 4q-7 0 -11.5 -4t-4.5 -12v-27h-27q-7 0 -11.5 -4.5t-4.5 -11.5t4.5 -11.5t11.5 -4.5h27v-27q0 -7 4.5 -11.5t11.5 -4.5q8 0 12 4.5t4 11.5v27h28q7 0 11.5 4.5t4.5 11.5t-4.5 11.5t-11.5 4.5zM907 466q-33 39 -76.5 63.5t-91.5 32.5 q51 12 84 53t33 94q0 62 -45 107t-107 45t-107 -45t-45 -107q0 -54 33 -94.5t84 -52.5q-48 -8 -91.5 -32t-76.5 -64q-6 -8 -11 -15l-10 -14q-28 20 -58.5 33t-63.5 18q51 12 84 53t33 94q0 63 -44.5 107.5t-107.5 44.5q-62 0 -107 -44.5t-45 -107.5q0 -54 33.5 -94.5 t83.5 -52.5q-48 -7 -91 -31t-77 -65q-42 -47 -64.5 -109.5t-23.5 -133.5q0 -5 2.5 -8.5t7.5 -6.5q12 -6 40 -17q27 -12 64.5 -23.5t82.5 -20.5t93 -9q28 0 58 3.5t60 9.5q23 -19 52 -29.5t60 -10.5q53 0 95.5 28t64.5 73q50 0 95 9t81 20.5t61 22.5q25 12 37 18q3 2 5.5 6 t2.5 8q-3 70 -25 133.5t-62 110.5v0zM584 709q0 49 35.5 84.5t84.5 35.5t84.5 -35.5t35.5 -84.5t-35.5 -84.5t-84.5 -35.5t-84.5 34.5t-35.5 85.5zM200 635q0 49 35.5 84.5t84.5 35.5t84.5 -35.5t35.5 -84.5t-35.5 -84.5t-84.5 -35.5t-84.5 35.5t-35.5 84.5zM64 158 q2 63 22 118.5t55 96.5q36 42 81.5 64t97.5 22q48 0 92 -20t79 -58q-51 -18 -84.5 -63.5t-33.5 -104.5q0 -31 10 -59.5t28 -51.5q-23 -3 -45.5 -5.5t-45.5 -2.5q-83 0 -154 24.5t-102 39.5v0zM550 67q-60 0 -102.5 43t-42.5 103t42.5 102.5t102.5 42.5t103 -42.5t43 -102.5 t-42 -103t-104 -43zM723 168q3 11 5 22t2 23q0 73 -52.5 125t-125.5 52h-12t-12 -1l-1.5 1.5l-1.5 1.5q-5 6 -11 12t-12 10q5 8 10 15t11 14q36 42 82 64.5t97 22.5q52 0 98.5 -22.5t81.5 -64.5q34 -41 54 -96.5t22 -117.5q-26 -13 -89 -35t-146 -26v0z" />
</svg>