<svg viewBox="0 0 256 256" xmlns="http://www.w3.org/2000/svg">
  <path transform="scale(1, -1) translate(0, -256)" fill="currentColor" d="M21 208h23v-23q0 -3 2 -5t5 -2t5 2t2 5v23h22q3 0 5.5 2t2.5 5t-2.5 5t-5.5 2h-22v22q0 3 -2 5t-5 2t-5 -2t-2 -5v-22h-23q-3 0 -5 -2.5t-2 -5.5t2 -4.5t5 -1.5zM238 172l-58 58q-6 5 -14 5t-13 -5l-9 -9q-5 -6 -5 -13.5t5 -13.5l4 -3l-88 -41q-8 -4 -11 -12l-35 -106 q-2 -5 -0.5 -11t5.5 -10q6 -6 14 -6q4 0 7 1l105 36q8 2 12 10l41 89l4 -4q6 -5 14 -5t13 5l9 9q5 5 5 13t-5 13zM145 58q-2 -3 -4 -3l-103 -35l50 50q8 -3 14 -3q11 0 19 8t8 19t-8 19t-19 8t-19.5 -8t-8.5 -19q0 -7 4 -14l-50 -50l34 103q1 3 4 4l93 43l29 -29zM88 94 q0 6 4 10t9.5 4t9.5 -4t4 -9.5t-4 -9.5t-9.5 -4t-9.5 4t-4 9zM228 155l-9 -8q-1 -2 -3 -2t-4 2l-57 57q-2 2 -2 4t2 4l8 8q2 2 4 2t3 -2l58 -58q2 -1 2 -3z" />
</svg>