<svg viewBox="0 0 1024 1024" xmlns="http://www.w3.org/2000/svg">
  <path transform="scale(1, -1) translate(0, -960)" fill="currentColor" d="M621 590h-93v93q0 7 -4.5 11.5t-11.5 4.5t-11.5 -4.5t-4.5 -11.5v-93h-93q-7 0 -11.5 -4t-4.5 -12q0 -7 4.5 -11.5t11.5 -4.5h93v-92q0 -8 4.5 -12t11.5 -4t11.5 4t4.5 12v92h93q7 0 11.5 4.5t4.5 11.5q0 8 -4.5 12t-11.5 4zM797 928h-570q-29 0 -49 -20t-20 -49v-542 q0 -13 6 -26.5t15 -21.5l299 -282q10 -9 22 -14t25 -5h272q29 0 49 20t20 49v822q0 29 -20 49t-49 20v0zM213 280h246q16 0 26.5 -10.5t10.5 -24.5v-232l-283 267v0zM834 37q0 -16 -11 -26.5t-26 -10.5h-269v246q0 28 -20 48t-49 20h-269v2v1v542q0 16 11 26.5t26 10.5h570 q15 0 26 -10.5t11 -26.5v-822v0z" />
</svg>