<svg viewBox="0 0 1024 1024" xmlns="http://www.w3.org/2000/svg">
  <path transform="scale(1, -1) translate(0, -960)" fill="currentColor" d="M976 894h-128q-6 0 -10.5 -3t-5.5 -9l-53 -218h-157v7.5v6.5q0 45 -17 85t-46.5 69.5t-69.5 46.5q-39 17 -84 17t-85 -17q-39 -17 -69 -46.5t-47 -69.5t-17 -85v-6.5v-7.5h-139q-4 0 -7 -1.5t-6 -4.5q-2 -4 -2.5 -7.5t-0.5 -7.5l80 -342q1 -6 5.5 -9.5t10.5 -3.5h581 q6 0 10.5 3.5t5.5 9.5l136 561h115q7 0 11.5 4.5t4.5 11.5q0 8 -4.5 12t-11.5 4v0zM406 862q77 0 131.5 -54t54.5 -131t-54.5 -131.5t-131.5 -54.5q-76 0 -130.5 54.5t-54.5 131.5t54.5 131t130.5 54v0zM696 320h-555l-72 312h125q15 -73 74.5 -122t137.5 -49t138 49t75 122 h154l-77 -312v0zM618 173h-400q-36 0 -61.5 -25.5t-25.5 -61.5t25.5 -61t61.5 -25t61 25t25 61q0 16 -5.5 29.5t-13.5 25.5h267q-10 -11 -14.5 -25t-4.5 -30q0 -36 25 -61t61 -25t61.5 25t25.5 61t-27 61.5t-61 25.5v0zM272 88q0 -23 -16 -38.5t-38 -15.5q-23 0 -39 15.5 t-16 38.5t16 38.5t39 15.5q22 -1 38 -16.5t16 -37.5zM618 34q-23 0 -39 15.5t-16 38.5t16 38.5t39 15.5q22 0 38 -15.5t16 -38.5q-1 -23 -17 -38.5t-37 -15.5zM339 661h51v-51q0 -8 4.5 -12t11.5 -4q8 0 12 4t4 12v51h52q7 0 11.5 4.5t4.5 11.5t-4.5 11.5t-11.5 4.5h-52v51 q0 7 -4 11.5t-12 4.5q-7 0 -11.5 -4.5t-4.5 -11.5v-51h-51q-7 0 -11.5 -4.5t-4.5 -11.5t4.5 -11.5t11.5 -4.5z" />
</svg>