<svg viewBox="0 0 1024 1024" xmlns="http://www.w3.org/2000/svg">
  <path transform="scale(1, -1) translate(0, -960)" fill="currentColor" d="M330 406q60 0 102 42t42 102t-42 102t-102 42t-102 -42t-42 -102t42.5 -102t101.5 -42zM330 662q46 0 79 -32.5t33 -79.5q0 -46 -33 -79t-79 -33q-47 0 -79.5 33t-32.5 79q0 47 33 79.5t79 32.5zM330 336q-41 0 -80 -7t-76.5 -20.5t-71.5 -33.5q-35 -19 -65 -45 q-5 -4 -6 -10.5t4 -11.5t11.5 -5.5t11.5 3.5q56 48 126 74t146 26q75 0 145 -26t127 -74q2 -2 4.5 -2.5t4.5 -0.5q4 0 7.5 1.5t5.5 5.5q5 4 4 11t-6 11q-61 49 -136 76.5t-156 27.5v0zM976 352h-69v69q0 7 -4.5 11.5t-11.5 4.5t-11.5 -4.5t-4.5 -11.5v-69h-69 q-7 0 -11.5 -4.5t-4.5 -11.5t4.5 -11.5t11.5 -4.5h69v-69q0 -7 4.5 -11.5t11.5 -4.5t11.5 4.5t4.5 11.5v69h69q7 0 11.5 4.5t4.5 11.5t-4.5 11.5t-11.5 4.5z" />
</svg>