<svg viewBox="0 0 1024 1024" xmlns="http://www.w3.org/2000/svg">
  <path transform="scale(1, -1) translate(0, -960)" fill="currentColor" d="M909 174l-96 188l77 75q13 13 20 29.5t7 35.5q0 18 -7 35.5t-20 30.5q-14 13 -30.5 20t-35.5 7v0v0q-18 0 -35 -7t-31 -20l-75 -75l-73 35q2 6 4 13t2 14v223q0 18 -10 33t-27 23l-192 88q-12 6 -25.5 6t-25.5 -6l-192 -87q-8 -5 -15 -11t-12 -13v0v0v0v0q-5 -7 -7.5 -15 t-2.5 -17v-222q0 -18 9 -33t25 -23l192 -96q6 -4 13 -5.5t14 -1.5t14 1.5t13 5.5l75 38l103 -73l-117 -124l-54 36q-20 13 -45 10t-40 -18q-11 -11 -16.5 -26t-2.5 -30q2 -16 10 -29t22 -21l104 -62l62 -104q10 -16 25.5 -24t32.5 -8q13 0 25.5 4.5t22.5 14.5q16 17 19 41 t-10 44l-35 54l120 118l106 -144q9 -13 23.5 -20t30.5 -7q13 0 25.5 5t22.5 14q16 17 19 39t-6 41v0zM349 893q3 1 6.5 2t6.5 1t6 -1l6 -2l188 -87l-79 -38h-2h-1h-1.5h-1.5l-191 96l63 29v0zM362 709l-200 99l88 40l196 -98zM157 528q-7 4 -11.5 11.5t-4.5 15.5v223v2v1 l205 -101v-248zM378 434v248l86 43v-79q0 -7 4.5 -11.5t11.5 -4.5t11.5 4.5t4.5 11.5v95l86 43v-2v-1v-223q0 -8 -4 -15.5t-12 -11.5l-188 -97v0zM874 118q-11 -10 -28 -9t-27 14l-105 143q-4 6 -10 9t-13 3q-7 2 -13 -1t-11 -8l-131 -128q-4 -4 -4.5 -10t2.5 -11l44 -66 q7 -10 5.5 -23t-10.5 -21q-5 -5 -12 -8.5t-14 -3.5q-9 0 -17 5t-13 13l-66 107q-1 1 -2 3t-3 2l-107 64q-7 5 -11.5 11.5t-5.5 14.5q-2 8 1 16t8 14q9 8 22 10t23 -5l66 -43q4 -4 10 -3t10 4l130 130q5 5 7.5 11t2.5 13t-3.5 13t-9.5 9l-90 66l85 41q1 2 3 2t3 2l82 -42 q8 -5 19 -3t18 9l75 77q8 9 19 13.5t23 4.5v0v0q12 0 22.5 -4.5t20.5 -13.5q8 -8 12.5 -19.5t4.5 -23.5t-4.5 -23.5t-12.5 -19.5l-79 -69q-7 -7 -9 -17t3 -20l96 -187q5 -10 3.5 -21.5t-9.5 -20.5v0z" />
</svg>