<svg viewBox="0 0 256 256" xmlns="http://www.w3.org/2000/svg">
  <path transform="scale(1, -1) translate(0, -256)" fill="currentColor" d="M230 61l-23 45l17 17q8 8 8 18.5t-8 18.5t-18.5 8t-18.5 -8l-17 -17l-14 7q1 3 1 5v55q0 6 -3 11h-1q-3 4 -7 6l-48 22q-7 4 -16 0l-48 -22q-3 -2 -6 -5l-1 -2q-3 -4 -3 -10v-55q0 -5 2.5 -9.5t7.5 -7.5l48 -24q5 -2 8.5 -2t8.5 2l17 9l21 -15l-25 -26l-12 7 q-6 4 -13 3.5t-12 -5.5q-7 -7 -6 -17t10 -15l25 -15l15 -26q3 -4 7.5 -6.5t9.5 -2.5q9 0 14.5 5.5t6 12.5t-3.5 13l-7 12l26 25l24 -33q2 -3 6.5 -5.5t9.5 -2.5q8 0 13.5 5.5t6.5 11.5t-2 12zM89 236q0 1 2 1l2 -1l41 -18l-13 -7l-43 21zM90 197l-43 21l15 6l42 -21zM40 151 q-2 1 -2 4v52l46 -23v-55zM98 129v55l15 8v-15q0 -3 2 -5t5 -2t5.5 2t2.5 5v22l16 8v-52q0 -3 -3 -4zM216 48q-2 -2 -4.5 -2t-4.5 2l-26 36q-4 4 -8.5 4.5t-8.5 -3.5l-32 -32q-2 -2 -2.5 -4.5t1.5 -4.5l11 -16q1 -2 0.5 -4t-2 -4t-4.5 -1.5t-4 3.5l-17 26l-1 2l-28 17 q-3 1 -3 4t1.5 5t4 2t3.5 -1l17 -11q2 -1 4.5 -1t4.5 2l32 33q3 3 3 8t-4 8l-19 14l17 8l19 -10q3 -1 6.5 -0.5t6.5 2.5l19 20q3 3 8 3t8.5 -3.5t3.5 -8.5t-4 -8l-18 -19q-3 -2 -3.5 -5.5t1.5 -7.5l24 -47q1 -3 -2 -6z" />
</svg>