<svg viewBox="0 0 256 256" xmlns="http://www.w3.org/2000/svg">
  <path transform="scale(1, -1) translate(0, -256)" fill="currentColor" d="M188 251h-120q-8 0 -13.5 -5.5t-5.5 -13.5v-182q0 -8 5 -13.5t12 -5.5v-15q0 -3 2.5 -4t4.5 1h1q2 2 5 0h1q2 -2 4.5 -1t2.5 4v15h101q8 0 13.5 5.5t5.5 13.5v182q0 8 -5.5 13.5t-13.5 5.5zM162 175h31v-58h-31v58zM148 117h-85v58h85v-58zM193 232v-43h-31v48h26 q2 0 3.5 -1.5t1.5 -3.5zM68 237h80v-48h-85v43q0 2 1.5 3.5t3.5 1.5zM63 50v53h85v-58h-80q-2 0 -3.5 1.5t-1.5 3.5zM188 45h-26v58h31v-53q0 -2 -1.5 -3.5t-3.5 -1.5z" />
</svg>