<svg viewBox="0 0 1024 1024" xmlns="http://www.w3.org/2000/svg">
  <path transform="scale(1, -1) translate(0, -960)" fill="currentColor" d="M752 928h-480q-26 0 -45 -19t-19 -45v-728q0 -25 17 -42.5t41 -21.5v-72q0 -11 10 -15.5t18 2.5l2 2q5 3 11.5 3t10.5 -3l2 -2q8 -7 18.5 -2.5t10.5 15.5v70h403q26 0 45 19t19 45v730q0 26 -19 45t-45 19zM784 864v-472h-150v256h150v32h-150v216h118q13 0 22.5 -9.5 t9.5 -22.5zM603 392h-363v256h363v-256zM272 896h331v-214h-363v182q0 13 9.5 22.5t22.5 9.5v0zM240 136v224h363v-256h-331q-13 0 -22.5 9.5t-9.5 22.5v0zM752 104h-118v256h150v-224q0 -13 -9.5 -22.5t-22.5 -9.5z" />
</svg>