<svg viewBox="0 0 1024 1024" xmlns="http://www.w3.org/2000/svg">
  <path transform="scale(1, -1) translate(0, -960)" fill="currentColor" d="M670 890q-33 19 -72 28.5t-81 9.5h-2q-60 0 -114.5 -19t-98.5 -55q-56 -46 -87 -112t-31 -139v-264q0 -15 10.5 -26t26.5 -11h48q12 -56 52.5 -98.5t97.5 -57.5l32 -8v-132q0 -15 10.5 -25.5t26.5 -10.5h317q15 0 26 10.5t11 25.5v597q0 45 -12 87t-34 79t-54 68 q-31 30 -72 53v0zM810 5q0 -3 -1.5 -4t-3.5 -1h-319q-2 0 -3 1t-1 4v155l-56 16q-51 13 -86.5 52t-43.5 90l-2 16h-75q-2 0 -3.5 1.5t-1.5 3.5v264q0 66 28 125t80 102q39 32 88.5 49t106.5 17v0q38 0 72.5 -8.5t64.5 -25.5q74 -40 115 -108.5t41 -150.5v-598v0zM675 614 q7 0 11.5 4.5t4.5 11.5q0 8 -4.5 12t-11.5 4h-41v12q0 13 -9.5 22.5t-22.5 9.5h-12v49q0 7 -4 11.5t-12 4.5q-7 0 -11.5 -4.5t-4.5 -11.5v-49h-91v49q0 7 -4.5 11.5t-11.5 4.5t-11.5 -4.5t-4.5 -11.5v-49h-11q-13 0 -22.5 -9.5t-9.5 -22.5v-12h-42q-7 0 -11.5 -4t-4.5 -12 q0 -7 4.5 -11.5t11.5 -4.5h42v-91h-42q-7 0 -11.5 -4.5t-4.5 -11.5t4.5 -11.5t11.5 -4.5h42v-11q0 -13 9.5 -22.5t22.5 -9.5h11v-40q0 -7 4.5 -11.5t11.5 -4.5t11.5 4.5t4.5 11.5v40h91v-40q0 -7 4.5 -11.5t11.5 -4.5q8 0 12 4.5t4 11.5v40h12q13 0 22.5 9.5t9.5 22.5v11h41 q7 0 11.5 4.5t4.5 11.5t-4.5 11.5t-11.5 4.5h-41v91h41zM424 480v179h179v-179h-179v0z" />
</svg>