<svg viewBox="0 0 256 256" xmlns="http://www.w3.org/2000/svg">
  <path transform="scale(1, -1) translate(0, -256)" fill="currentColor" d="M169 241q-18 10 -40 10v0q-33 0 -55 -19q-15 -12 -23 -29t-8 -36v-66q0 -5 3.5 -9t8.5 -4h10q3 -14 14 -24.5t25 -14.5l6 -1v-31q0 -5 3.5 -8.5t8.5 -3.5h80q5 0 8.5 3.5t3.5 8.5v150q-1 23 -12.5 43t-32.5 31zM199 19h-76v39l-16 5q-12 3 -20 12t-10 21l-1 6h-19v65 q0 16 6.5 30t18.5 24q19 16 47 16q19 0 33 -8q17 -10 27 -26.5t10 -35.5v-148zM169 167q3 0 5 2t2 5t-2 5t-5 2h-7q0 5 -3.5 8t-7.5 3v9q0 3 -2 5t-5 2t-5.5 -2t-2.5 -5v-9h-16v9q0 3 -2 5t-5 2t-5 -2t-2 -5v-9q-5 0 -8 -3t-3 -8h-7q-3 0 -5.5 -2t-2.5 -5t2.5 -5t5.5 -2h7 v-17h-7q-3 0 -5.5 -2t-2.5 -5t2.5 -5t5.5 -2h7q0 -5 3 -8t8 -3v-7q0 -3 2 -5.5t5 -2.5t5 2.5t2 5.5v7h17v-7q0 -3 2 -5.5t5 -2.5t5 2.5t2 5.5v7q5 0 8 3t3 8h7q3 0 5 2t2 5t-2 5t-5 2h-7v17h7zM109 139v39h39v-39h-39z" />
</svg>