<svg viewBox="0 0 1024 1024" xmlns="http://www.w3.org/2000/svg">
  <path transform="scale(1, -1) translate(0, -960)" fill="currentColor" d="M821 784l-194 133q-8 5 -17.5 8t-20.5 3h-347q-28 0 -48 -20t-20 -47v-826q0 -27 20 -47t48 -20h542q28 0 47.5 20t19.5 47v693q0 17 -8 31.5t-22 24.5v0zM819 35q0 -14 -10.5 -24.5t-24.5 -10.5h-542q-15 0 -25.5 10.5t-10.5 24.5v826q0 14 10.5 24.5t25.5 10.5h348 q5 0 10.5 -1.5t9.5 -4.5l193 -133q7 -5 11.5 -13t4.5 -16v-693v0zM448 496q-5 7 -14.5 7t-12.5 -7l-127 -221q-3 -6 -1 -12.5t8 -9.5q2 -1 3.5 -1.5t4.5 -0.5t7.5 2.5t6.5 5.5l32 55h162l32 -55q3 -6 9.5 -7.5t12.5 1.5t7.5 9.5t-0.5 12.5l-130 221v0zM371 346l63 108 l62 -108h-125v0zM677 390q-7 0 -11.5 -4t-4.5 -12v-107q0 -7 4.5 -11.5t11.5 -4.5t11.5 4.5t4.5 11.5v107q0 8 -4.5 12t-11.5 4zM710 470q0 -14 -9.5 -23.5t-23.5 -9.5t-24 9.5t-10 23.5t10 24t24 10t23.5 -10t9.5 -24z" />
</svg>