<svg viewBox="0 0 256 256" xmlns="http://www.w3.org/2000/svg">
  <path transform="scale(1, -1) translate(0, -256)" fill="currentColor" d="M207 214l-49 34q-4 3 -11 3h-87q-8 0 -14 -5.5t-6 -14.5v-206q0 -8 6 -14t14 -6h136q8 0 14 5.5t6 14.5v173q-1 11 -9 16zM202 25q0 -3 -2 -4.5t-4 -1.5h-136q-2 0 -4 1.5t-2 4.5v206q0 3 2 4.5t4 1.5h88q2 0 3 -1l48 -33q3 -2 3 -5v-173zM114 141q-2 4 -6 4t-6 -4 l-31 -55q-2 -2 -1 -5t3.5 -4.5t5.5 -0.5t4 3l7 12h37l7 -12q1 -3 6 -3h3q3 2 3.5 4.5t-0.5 5.5zM98 106l10 18l11 -18h-21zM169 116q-3 0 -5 -2t-2 -5v-27q0 -3 2 -5t5 -2t5 2t2 5v27q0 3 -2 5t-5 2zM161 134q0 -4 2.5 -6.5t6 -2.5t6 2.5t2.5 6t-2.5 6t-6 2.5t-6 -2.5 t-2.5 -5.5z" />
</svg>