<svg viewBox="0 0 1024 1024" xmlns="http://www.w3.org/2000/svg">
  <path transform="scale(1, -1) translate(0, -960)" fill="currentColor" d="M928 677h-832q-26 0 -45 -19t-19 -45v-330q0 -26 19 -45t45 -19h832q26 0 45 19t19 45v330q0 26 -19 45t-45 19v0zM96 645h832q13 0 22.5 -9.5t9.5 -22.5v-208h-896v208q0 13 9.5 22.5t22.5 9.5zM496 373v-122h-200v122h200zM528 373h200v-122h-200v122zM64 283v90h200 v-122h-168q-13 0 -22.5 9.5t-9.5 22.5zM928 251h-168v122h200v-90q0 -13 -9.5 -22.5t-22.5 -9.5zM731 509h103q7 0 11.5 4.5t4.5 11.5t-4.5 11.5t-11.5 4.5h-103q-7 0 -11.5 -4.5t-4.5 -11.5t4.5 -11.5t11.5 -4.5z" />
</svg>