<svg viewBox="0 0 256 256" xmlns="http://www.w3.org/2000/svg">
  <path transform="scale(1, -1) translate(0, -256)" fill="currentColor" d="M248 46l-23 14q-9 6 -20 6t-20 -6l-6 -4q-6 -3 -12.5 -3t-12.5 3l-6 4q-9 6 -20 6t-20 -6l-6 -4q-6 -3 -13 -3t-13 3l-5 4q-10 6 -20.5 6t-19.5 -6l-23 -14q-2 -1 -2.5 -4t1 -5.5t5.5 -2.5q2 0 4 1l22 13q6 4 13 4t13 -4l6 -4q9 -5 19.5 -5t20.5 5l6 4q6 4 12.5 4 t12.5 -4l6 -4q9 -5 20 -5t20 5l6 4q6 4 13 4t13 -4l22 -14q3 -1 5.5 -0.5t4 3t0.5 5.5t-3 4zM248 125l-23 13q-9 6 -20 6t-20 -6l-6 -3q-6 -4 -12.5 -4t-12.5 4l-6 3q-9 6 -20 6t-20 -6l-6 -3q-6 -4 -13 -4t-13 4l-6 3q-9 6 -19.5 6t-20.5 -6l-22 -13q-2 -2 -3 -4.5t0.5 -5 t4.5 -3.5t6 1l22 13q6 4 13 4t13 -4l6 -3q9 -6 19.5 -6t20.5 6l6 3q6 4 12.5 4t12.5 -4l6 -3q10 -6 20.5 -6t19.5 6l6 3q6 4 13 4t13 -4l22 -13q2 -1 4 -1q4 0 5.5 3t0.5 5.5t-3 4.5zM16 192l22 13q6 4 13 4t13 -4l6 -3q9 -6 19.5 -6t20.5 6l6 3q6 4 12.5 4t12.5 -4l6 -3 q10 -6 20.5 -6t19.5 6l6 3q6 4 13 4t13 -4l22 -13q2 -2 4 -2q4 0 5.5 3t1 6t-3.5 4l-22 14q-9 5 -20 5.5t-20 -5.5l-6 -4q-6 -3 -13 -3t-13 3l-6 4q-9 6 -20 6t-20 -6l-6 -3q-6 -4 -13 -4t-13 4l-6 3q-9 6 -19.5 6t-20.5 -6l-22 -13q-2 -2 -3 -5t0.5 -5t4.5 -3t6 1z" />
</svg>