<svg viewBox="0 0 256 256" xmlns="http://www.w3.org/2000/svg">
  <path transform="scale(1, -1) translate(0, -256)" fill="currentColor" d="M106 5h-3q-14 2 -20 13l-25 40l-40 24q-11 7 -12 20q-1 7 1 13t7 10q6 7 16 8t18 -4l20 -14l46 46l-56 41q-10 7 -11 19.5t8 21.5q6 6 15 7.5t16 -2.5l73 -37l29 29q11 11 26 11t26 -11q6 -5 8.5 -12t2.5 -14q0 -15 -11 -26l-29 -29l37 -72q4 -8 2.5 -17t-7.5 -15 q-9 -8 -21.5 -7.5t-19.5 10.5l-41 55l-46 -45l14 -21q5 -8 4 -17.5t-8.5 -17t-18.5 -7.5zM32 119q-5 0 -9.5 -4t-4 -10.5t6.5 -10.5l42 -25q1 0 2 -2l25 -42q4 -6 10 -6.5t10.5 3.5t4.5 8.5t-2 8.5l-17 26q-1 2 -1 4.5t2 4.5l51 50q5 4 10.5 3.5t9.5 -5.5l41 -56 q4 -5 9.5 -5t9.5 3.5t4.5 8t-1.5 8.5l-37 73q-2 4 -1.5 8t3.5 7l30 29q6 7 6 16.5t-6.5 16t-16 6.5t-15.5 -7l-30 -29q-3 -3 -7 -3.5t-8 0.5l-73 38q-4 2 -8 1t-8 -4.5t-3.5 -10t5.5 -9.5l56 -41q5 -3 5.5 -9t-3.5 -11l-50 -50q-2 -2 -4.5 -2.5t-4.5 1.5l-25 16q-4 2 -8 2z M235 193z" />
</svg>