<svg viewBox="0 0 1024 1024" xmlns="http://www.w3.org/2000/svg">
  <path transform="scale(1, -1) translate(0, -960)" fill="currentColor" d="M928 797h-832q-26 0 -45 -19t-19 -45v-290q0 -39 28 -67.5t68 -28.5h768q40 0 68 28.5t28 67.5v290q0 26 -19 45t-45 19v0zM96 765h832q13 0 22.5 -9.5t9.5 -22.5v-211h-896v211q0 13 9.5 22.5t22.5 9.5zM896 379h-768q-26 0 -45 19t-19 45v47h896v-47q0 -26 -19 -45 t-45 -19zM203 253q-7 0 -11.5 -4.5t-4.5 -11.5v-63q0 -18 -12.5 -30.5t-30.5 -12.5h-62q-8 0 -12 -4.5t-4 -11.5t4 -11.5t12 -4.5h62q31 0 53 22t22 53v63q0 7 -4.5 11.5t-11.5 4.5zM403 253q-7 0 -11.5 -4.5t-4.5 -11.5v-63q0 -18 -12.5 -30.5t-30.5 -12.5h-62 q-8 0 -12 -4.5t-4 -11.5t4 -11.5t12 -4.5h62q31 0 53 22t22 53v63q0 7 -4.5 11.5t-11.5 4.5zM942 131h-62q-18 0 -30.5 12.5t-12.5 30.5v63q0 7 -4.5 11.5t-11.5 4.5t-11.5 -4.5t-4.5 -11.5v-63q0 -31 22 -53t53 -22h62q8 0 12 4.5t4 11.5t-5 11.5t-11 4.5zM742 131h-62 q-18 0 -30.5 12.5t-12.5 30.5v63q0 7 -4.5 11.5t-11.5 4.5t-11.5 -4.5t-4.5 -11.5v-63q0 -31 22 -53t53 -22h62q8 0 12 4.5t4 11.5t-4 11.5t-12 4.5z" />
</svg>