<svg viewBox="0 0 1024 1024" xmlns="http://www.w3.org/2000/svg">
  <path transform="scale(1, -1) translate(0, -960)" fill="currentColor" d="M984 110l-88 55q-34 20 -74 20t-73 -20l-24 -15q-27 -15 -57.5 -15t-57.5 15l-24 15q-34 20 -74 20t-74 -20l-24 -15q-26 -15 -56.5 -15t-58.5 15l-24 15q-33 20 -73 20t-74 -20l-90 -55q-4 -3 -5.5 -9.5t1.5 -12.5q2 -6 9 -7t13 2l90 55q26 15 56.5 15t56.5 -15l24 -15 q34 -20 74 -20t73 20l24 15q27 15 57.5 15t58.5 -15l24 -15q33 -20 73 -20t74 20l24 15q26 15 56.5 15t58.5 -15l90 -55q2 -1 3.5 -1h4.5t7.5 2t6.5 6q1 4 -0.5 10.5t-7.5 9.5zM984 426l-88 54q-34 20 -74 20t-73 -20l-24 -14q-27 -16 -57.5 -16t-57.5 16l-24 14 q-34 20 -74 20t-74 -20l-24 -14q-26 -16 -56.5 -16t-56.5 16l-24 14q-34 20 -74 20t-73 -20l-90 -54q-6 -4 -7 -10.5t2 -12.5q4 -6 10.5 -7t12.5 2l89 55q27 15 57 15t57 -15l24 -15q33 -20 73 -20t74 20l24 15q26 15 57 15t58 -15l24 -15q34 -20 74 -20t73 20l24 15 q27 15 57.5 15t58.5 -15l89 -55q3 -1 4.5 -1h3.5q4 0 8 2t7 6q0 5 -2 11t-8 10v0zM56 712l90 54q26 16 56.5 16t56.5 -16l24 -14q34 -20 74 -20t73 20l24 14q27 16 57.5 16t58.5 -16l24 -14q33 -20 73 -20t74 20l24 14q26 16 56.5 16t58.5 -16l90 -54q2 -1 3.5 -1.5 t4.5 -0.5t7.5 2.5t6.5 5.5q4 6 2 12.5t-7 10.5l-91 53q-34 20 -74 20t-73 -20l-24 -15q-27 -15 -57.5 -15t-57.5 15l-24 15q-34 20 -74 20t-74 -20l-24 -15q-26 -15 -56.5 -15t-58.5 15l-24 15q-33 20 -73 20t-74 -20l-90 -55q-4 -2 -5.5 -9t1.5 -12q3 -6 9.5 -8t12.5 2v0z " />
</svg>