<svg viewBox="0 0 256 256" xmlns="http://www.w3.org/2000/svg">
  <path transform="scale(1, -1) translate(0, -256)" fill="currentColor" d="M232 188h-208q-8 0 -13.5 -5.5t-5.5 -13.5v-83q0 -7 5.5 -12.5t13.5 -5.5h208q8 0 13.5 5.5t5.5 13.5v82q0 8 -5.5 13.5t-13.5 5.5zM24 174h208q2 0 3.5 -1.5t1.5 -3.5v-49h-218v49q0 2 1.5 3.5t3.5 1.5zM121 106v-24h-44v24h44zM135 106h44v-24h-44v24zM19 87v19h44v-24 h-39q-2 0 -3.5 1.5t-1.5 3.5zM232 82h-39v24h44v-19q0 -2 -1.5 -3.5t-3.5 -1.5zM183 140h25q3 0 5.5 2.5t2.5 5.5t-2.5 5t-5.5 2h-25q-3 0 -5 -2t-2 -5t2 -5.5t5 -2.5z" />
</svg>