<svg viewBox="0 0 1024 1024" xmlns="http://www.w3.org/2000/svg">
  <path transform="scale(1, -1) translate(0, -960)" fill="currentColor" d="M909 771q0 59 -41.5 101t-99.5 42q-7 0 -11.5 -4.5t-4.5 -11.5q0 -8 4.5 -12t11.5 -4q46 0 77.5 -32.5t31.5 -78.5q0 -45 -32.5 -77.5t-76.5 -32.5h-720q-7 0 -11.5 -4.5t-4.5 -11.5t4.5 -11.5t11.5 -4.5h718q59 1 101 42t42 100v0zM194 448q-8 0 -12 -4.5t-4 -11.5 t4 -11.5t12 -4.5h494q7 0 11.5 4.5t4.5 11.5t-4.5 11.5t-11.5 4.5h-494v0zM851 234h-720q-7 0 -11.5 -4.5t-4.5 -11.5q0 -8 4.5 -12t11.5 -4h719q45 0 76.5 -32.5t31.5 -78.5q0 -23 -9 -44.5t-26 -36.5q-5 -5 -5 -11.5t4 -11.5q2 -2 5 -3.5t6 -1.5q2 0 5.5 1.5t5.5 3.5 q22 21 34 48t12 56q2 59 -39.5 101t-99.5 42z" />
</svg>