<svg viewBox="0 0 256 256" xmlns="http://www.w3.org/2000/svg">
  <path transform="scale(1, -1) translate(0, -256)" fill="currentColor" d="M232 218h-208q-8 0 -13.5 -5.5t-5.5 -13.5v-72q0 -11 8 -19t19 -8h192q11 0 19 8t8 19v72q0 8 -5.5 13.5t-13.5 5.5zM24 204h208q2 0 3.5 -1.5t1.5 -3.5v-49h-218v49q0 2 1.5 3.5t3.5 1.5zM224 114h-192q-5 0 -9 4t-4 9v9h218v-9q0 -5 -3.5 -9t-9.5 -4zM51 82q-3 0 -5 -2 t-2 -5v-15q0 -4 -2.5 -6t-5.5 -2h-16q-3 0 -5 -2.5t-2 -5.5t2 -5t5 -2h16q9 0 15.5 6.5t6.5 15.5v16q0 3 -2 5t-5 2zM101 82q-3 0 -5 -2t-2 -5v-15q0 -4 -2.5 -6t-5.5 -2h-16q-3 0 -5 -2.5t-2 -5.5t2 -5t5 -2h16q9 0 15.5 6.5t6.5 15.5v16q0 3 -2 5t-5 2zM236 52h-16 q-3 0 -5.5 2t-2.5 6v15q0 3 -2 5t-5 2t-5 -2t-2 -5v-15q0 -9 6.5 -15.5t15.5 -6.5h15q3 0 5 2t2 5t-1.5 5t-4.5 2zM186 52h-16q-3 0 -5.5 2t-2.5 6v15q0 3 -2 5t-5 2t-5 -2t-2 -5v-15q0 -9 6.5 -15.5t15.5 -6.5h16q3 0 5 2t2 5t-2 5t-5 2z" />
</svg>