<svg viewBox="0 0 256 256" xmlns="http://www.w3.org/2000/svg">
  <path transform="scale(1, -1) translate(0, -256)" fill="currentColor" d="M230 209q0 16 -11 27t-27 11q-3 0 -5.5 -2t-2.5 -5t2.5 -5t5.5 -2q10 0 17 -7t7 -17.5t-7 -17.5t-17 -7h-180q-3 0 -5 -2t-2 -5t2 -5t5 -2h180q16 0 27 11.5t11 27.5zM48 131q-3 0 -5 -2t-2 -5t2 -5t5 -2h124q3 0 5 2t2 5t-2 5t-5 2h-124zM213 77h-180q-3 0 -5 -2t-2 -5 t2 -5t5 -2h179q11 0 18 -7t7 -17.5t-8 -18.5q-2 -2 -2.5 -5t1.5 -5t5 -2t5 2q6 5 9.5 12.5t3.5 15.5q0 16 -11 27.5t-27 11.5z" />
</svg>