<svg viewBox="0 0 256 256" xmlns="http://www.w3.org/2000/svg">
  <path transform="scale(1, -1) translate(0, -256)" fill="currentColor" d="M128 63q-21 26 -25 47q-4 17 4 27t21 9.5t21.5 -10t3.5 -26.5q-5 -22 -25 -47zM204 23q-29 -13 -66 27q20 26 28 48q6 20 2 34.5t-15 22t-25.5 7.5t-25 -7.5t-14.5 -20.5t0 -28q5 -24 30 -55q-26 -29 -47 -31q-14 -2 -25 5t-15 19.5t1 25.5q6 16 52 109l14 29q7 14 12 19 q8 9 19.5 9t19.5 -10q5 -6 13 -24v0q17 -32 35 -67q19 -41 29 -65q5 -14 -1 -27.5t-21 -19.5zM230 98q-28 61 -42 88q-16 32 -25.5 45.5t-17.5 17.5q-5 3 -17 3q-17 0 -29 -12q-8 -8 -18 -28q-49 -98 -64 -133l-1 -3q-7 -18 -1.5 -35t19.5 -27t31 -10q31 0 63 34 q31 -34 61 -34h1q17 0 31 10t19.5 27t-0.5 35q0 2 -8 19z" />
</svg>