<svg viewBox="0 0 1024 1024" xmlns="http://www.w3.org/2000/svg">
  <path transform="scale(1, -1) translate(0, -960)" fill="currentColor" d="M936 725h-160v171h85q7 0 11.5 4.5t4.5 11.5t-4.5 11.5t-11.5 4.5h-698q-7 0 -11.5 -4.5t-4.5 -11.5t4.5 -11.5t11.5 -4.5h85v-171h-160q-26 0 -45 -19t-19 -45v-629q0 -26 19 -45t45 -19h850q26 0 45 19t19 45v629q-2 26 -21 45t-45 19v0zM278 896h466v-171h-466v171z M968 32q0 -13 -9.5 -22.5t-22.5 -9.5h-848q-13 0 -22.5 9.5t-9.5 22.5v629q0 13 9.5 22.5t22.5 9.5h850q13 0 22.5 -9.5t9.5 -22.5v-629h-2zM738 382h-90l-80 154q-4 6 -10 8t-11 -2q-6 -3 -8 -9.5t2 -10.5l72 -140h-216l-48 95q-4 6 -10 8t-11 -2q-6 -3 -8 -9.5t2 -11.5 l49 -96l-49 -96q-4 -6 -2 -12t8 -8q1 -2 3.5 -2h4.5q5 0 8.5 2t5.5 6l48 94h218l-72 -139q-4 -6 -2 -12t8 -9q2 -1 4 -1h4q5 0 8.5 2t6.5 6l80 153h89q8 0 12 4.5t4 11.5q0 8 -6.5 12t-13.5 4v0z" />
</svg>