<svg viewBox="0 0 256 256" xmlns="http://www.w3.org/2000/svg">
  <path transform="scale(1, -1) translate(0, -256)" fill="currentColor" d="M234 200h-37v37h18q3 0 5 2t2 5t-2 5t-5 2h-174q-3 0 -5 -2t-2 -5t2 -5t5 -2h18v-37h-37q-8 0 -13.5 -5.5t-5.5 -13.5v-157q0 -8 5.5 -13.5t13.5 -5.5h212q8 0 14 5.5t6 13.5v157q-1 8 -6.5 13.5t-13.5 5.5zM73 237h110v-37h-110v37zM239 24q0 -2 -1.5 -3.5t-3.5 -1.5 h-212q-2 0 -3.5 1.5t-1.5 3.5v157q0 2 1.5 3.5t3.5 1.5h212q3 0 4.5 -1.5t1.5 -3.5v-157h-1zM184 115h-20l-19 37q-1 2 -4 3t-5.5 -0.5t-3.5 -4t0 -5.5l16 -31h-47l-11 22q-2 3 -4.5 4t-5.5 -0.5t-3.5 -4.5t0.5 -5l12 -23l-12 -22q-1 -3 0 -5.5t3 -4.5l3 -1q4 0 7 4l11 22 h47l-16 -30q-1 -3 0 -5.5t3 -4.5l3 -1q4 0 7 4l19 37h20q3 0 5.5 2t2.5 5t-2.5 5.5t-5.5 2.5z" />
</svg>