<svg viewBox="0 0 1024 1024" xmlns="http://www.w3.org/2000/svg">
  <path transform="scale(1, -1) translate(0, -960)" fill="currentColor" d="M923 69l-33 53q-6 10 -9.5 20.5t-3.5 22.5v347q0 70 -29 132.5t-83 110.5q-48 43 -109.5 67.5t-129.5 27.5v62q0 7 -4 11.5t-12 4.5q-7 0 -11.5 -4.5t-4.5 -11.5v-62q-7 0 -14 -1t-14 -1q-69 -8 -127 -38q-59 -29 -102 -75t-67 -105q-24 -58 -24 -124v-344 q-2 -14 -4.5 -23t-7.5 -17l-32 -55q-4 -7 -4 -15.5t4 -14.5q5 -7 12 -11t16 -4h366v0v0v-38q0 -7 4.5 -11.5t11.5 -4.5t11.5 4.5t4.5 11.5v38v0v0h368q8 0 15 4t12 11q5 8 4.5 16.5t-4.5 15.5zM469 816q11 1 21 1.5t20 0.5q65 0 125.5 -22.5t108.5 -64.5q49 -43 75 -100 t26 -119v-283h-667v277q0 59 22 112t61 95t92 69t116 34v0zM131 54l32 53q6 11 10 24t6 29v37h667v-34q0 -15 5 -30t13 -29l32 -50h-765v0z" />
</svg>