<svg viewBox="0 0 256 256" xmlns="http://www.w3.org/2000/svg">
  <path transform="scale(1, -1) translate(0, -256)" fill="currentColor" d="M232 39l-8 13q-3 4 -3 9v86q0 18 -7 34t-21 29q-12 10 -27 16t-31 8v10q0 3 -2 5t-5 2t-5 -2t-2 -5v-10h-5q-23 -3 -41.5 -15.5t-29.5 -31.5t-11 -41v-85q-1 -5 -2 -8l-8 -14q-4 -6 -0.5 -11t9.5 -5h88v-11q0 -3 2 -5t5 -2t5 2t2 5v11h88q6 0 9.5 5.5t-0.5 10.5zM39 37 l5 9q4 7 4 14v86q0 18 9 34t25 26.5t35 12.5t36 -3t29.5 -16.5t18.5 -24.5t6 -28v-87q0 -8 5 -16l5 -8h-178v1z" />
</svg>