<svg viewBox="0 0 256 256" xmlns="http://www.w3.org/2000/svg">
  <path transform="scale(1, -1) translate(0, -256)" fill="currentColor" d="M193 238l20 -15q2 -2 5 -2t5 2.5t1.5 5.5t-2.5 5l-20 16q-3 1 -6 1t-4.5 -2.5t-1.5 -5.5t3 -5zM39 222q3 0 5 1l20 16q2 2 2.5 4.5t-1.5 5t-5 3t-5 -1.5l-20 -16q-2 -2 -2.5 -5t1.5 -5t5 -2zM192 47q18 14 29 35.5t11 45.5q-1 28 -15 52t-37.5 37.5t-51.5 13.5t-51.5 -14 t-37.5 -37.5t-14 -51.5q0 -24 10.5 -45.5t28.5 -35.5l-27 -30q-2 -2 -2 -5t2 -5t5 -2t5 2l29 32q24 -14 52 -14t52 14l29 -32q2 -2 4.5 -2t5 2t2.5 5t-2 5zM39 128q0 24 12 44.5t32.5 32.5t44.5 12t44.5 -12t32.5 -32.5t12 -44.5t-12 -44.5t-32.5 -32.5t-44.5 -12t-44.5 12 t-32.5 32.5t-12 44.5zM178 135h-43v41q0 3 -2 5.5t-5 2.5t-5 -2.5t-2 -5.5v-48q0 -3 2 -5t5 -2h50q3 0 5 2t2 5t-2 5t-5 2z" />
</svg>