<svg viewBox="0 0 256 256" xmlns="http://www.w3.org/2000/svg">
  <path transform="scale(1, -1) translate(0, -256)" fill="currentColor" d="M181 250q-19 0 -35 -9t-25 -25q-11 5 -24 6v21q0 3 -2 5t-5 2t-5.5 -2t-2.5 -5v-21q-26 -2 -46 -22q-10 -10 -16 -24t-6 -29v-41l-1 -11q-2 -13 -6 -23q-3 -6 -2 -12t4.5 -11.5t9 -8.5t11.5 -3h24q2 -13 12 -22t23.5 -9t23.5 9t12 22h24q7 0 12.5 3t9 8t4 11.5t-2.5 12.5 q-4 10 -6 23l-1 11v7q8 -2 16 -2q19 0 35 9.5t25.5 25.5t9.5 34.5t-9.5 34.5t-25.5 25.5t-35 9.5zM90 20q-8 0 -14 5t-8 12h43q-2 -7 -8 -12t-13 -5zM151 105q0 -4 1 -13q3 -14 7 -26q3 -5 -0.5 -10t-9.5 -5h-119q-6 0 -9 5t-1 10q4 12 7 26q1 10 1 14v41q0 25 18 43t43 18 q13 0 25 -5q-3 -11 -3 -23q0 -20 11 -37t28 -25zM181 124q-15 0 -28 8t-20.5 20.5t-7.5 28t7.5 28t20.5 20t28 7.5t28 -7.5t20.5 -20t7.5 -28t-7.5 -28t-20.5 -20.5t-28 -8zM204 194l-34 -21l-6 11q-1 2 -3.5 3t-5.5 0t-4 -4t1 -6l9 -17q1 -3 4 -4h2q3 0 4 1l40 25 q2 2 2.5 5t-0.5 5.5t-4 3t-5 -1.5z" />
</svg>