<svg viewBox="0 0 1024 1024" xmlns="http://www.w3.org/2000/svg">
  <path transform="scale(1, -1) translate(0, -960)" fill="currentColor" d="M501 787q-75 0 -141 -28q-66 -29 -115 -78t-77 -115q-29 -65 -29 -140t28 -139.5t76 -113.5l-86 -130q-4 -6 -2.5 -12.5t7.5 -9.5q2 -1 4.5 -2t4.5 -1q4 0 7.5 2t5.5 4l83 125q47 -41 107 -64t127 -23t127 23t106 64l84 -125q2 -4 5.5 -5t6.5 -1t5.5 1t4.5 2q6 3 7 9.5 t-2 12.5l-87 130q48 49 76 114t28 139q0 75 -28 140q-28 66 -77 115t-115 78q-66 28 -141 28v0zM171 426q0 68 26 128t70.5 104.5t104.5 70.5t129 26q68 0 128 -26q60 -25 105 -70t71 -105q25 -60 25 -128q0 -69 -25 -129q-26 -60 -71 -104.5t-105 -70.5t-128 -26 q-68 1 -128 27t-105 70.5t-71 104.5t-26 128v0zM989 674l-173 198q-5 5 -11.5 5.5t-10.5 -3.5q-5 -5 -6 -11.5t4 -11.5l173 -197q2 -2 5.5 -3t7.5 -1q2 0 5 1l6 2q3 3 3 9.5t-3 11.5v0zM230 874q-4 4 -10.5 3.5t-11.5 -5.5l-173 -198q-5 -5 -4 -11.5t6 -11.5q2 -2 4.5 -2.5 t6.5 -0.5t7 1t6 4l171 197q5 6 4.5 12.5t-6.5 11.5v0zM646 390h-129v152q0 8 -4.5 12t-11.5 4t-11.5 -4t-4.5 -12v-168q0 -7 4.5 -11.5t11.5 -4.5h145q8 0 12 4.5t4 11.5q0 8 -4 12t-12 4z" />
</svg>