<svg viewBox="0 0 256 256" xmlns="http://www.w3.org/2000/svg">
  <path transform="scale(1, -1) translate(0, -256)" fill="currentColor" d="M125 216q-25 0 -46.5 -12.5t-34 -34t-12.5 -47.5q0 -18 6.5 -34.5t18.5 -28.5l-20 -31q-1 -2 -0.5 -5t2.5 -4t5 -1t5 3l19 28q26 -20 58 -20q16 0 30.5 5.5t26.5 14.5l19 -28q2 -3 5 -3t5 1t3 4t-1 5l-20 31q12 13 18.5 29t6.5 34q0 26 -12.5 47.5t-34 34t-47.5 12.5z M46 122q0 22 10.5 40t29 29t40 11t39.5 -11t28.5 -29t10.5 -39.5t-10.5 -39.5t-28.5 -29t-39.5 -11t-40 11t-29 29t-10.5 39zM249 186l-43 50q-2 2 -5 2.5t-5 -1.5t-2.5 -5t1.5 -5l43 -49q2 -3 5 -3t5.5 2t2.5 4.5t-2 4.5zM60 236q-3 2 -5.5 2t-4.5 -2l-43 -50q-2 -2 -2 -5 t2 -4.5t5.5 -1.5t5.5 2l42 49q2 3 2 6t-2 4zM162 117h-30v35q0 3 -2 5t-5 2t-5 -2t-2 -5v-42q0 -3 2 -5.5t5 -2.5h36q3 0 5 2.5t2 5.5t-1.5 5t-4.5 2z" />
</svg>