<svg viewBox="0 0 1024 1024" xmlns="http://www.w3.org/2000/svg">
  <path transform="scale(1, -1) translate(0, -960)" fill="currentColor" d="M725 925q-77 0 -140 -39.5t-97 -103.5q-26 14 -55 22t-59 9v96q0 7 -4 11.5t-12 4.5q-7 0 -11.5 -4.5t-4.5 -11.5v-96q-54 -3 -102 -24.5t-86 -58.5q-41 -41 -63 -93.5t-22 -111.5v-165l-5.5 -46t-25.5 -95q-8 -20 -6 -42.5t14 -40.5q14 -19 33 -29.5t41 -10.5h109 q2 -53 39.5 -89t89.5 -36q53 0 91 36.5t39 88.5h109q23 0 42 10.5t31 29.5q12 18 14.5 40.5t-6.5 42.5q-20 48 -25 93.5l-5 45.5v44q18 -6 37 -9t40 -3q55 0 104 21q48 22 84.5 58t57.5 85q21 48 21 104q0 55 -21 103q-21 49 -57.5 85.5t-84.5 57.5q-49 21 -104 21v0zM358 3 q-39 0 -67.5 27.5t-29.5 65.5h195q-1 -38 -29.5 -65.5t-68.5 -27.5zM616 358q0 -2 6 -50t28 -100q6 -13 4 -27t-9 -26q-9 -12 -20.5 -18.5t-26.5 -6.5h-478q-14 0 -26.5 6.5t-19.5 18.5q-9 12 -10 26t5 27q21 53 27 100.5t6 51.5v165q0 51 20 98t56 84q36 36 82.5 55.5 t97.5 19.5v0v0v0v0q30 0 60 -7t57 -21q-8 -23 -12.5 -47t-4.5 -49q0 -82 44 -148t114 -97v-55v0zM725 422q-49 0 -92 19q-42 18 -74 50t-51 75q-18 43 -18 92q0 48 18 91q19 43 51 75t74 50q43 19 92 19q48 0 91 -19q43 -18 75 -50t50 -75q19 -43 19 -91q0 -49 -19 -92 q-18 -43 -50 -75t-75 -50q-43 -19 -91 -19zM821 704l-146 -94l-29 54q-3 6 -9.5 8t-10.5 -2q-6 -3 -8 -9.5t1 -10.5l37 -71q1 -3 4 -5t6 -3h2h2q3 0 5 1t3 2l160 103q6 3 7.5 9.5t-2.5 12.5q-3 6 -9.5 7.5t-12.5 -2.5z" />
</svg>