<svg viewBox="0 0 256 256" xmlns="http://www.w3.org/2000/svg">
  <path transform="scale(1, -1) translate(0, -256)" fill="currentColor" d="M189 82q-1 1 -1 4v52q0 12 -5 22.5t-14 17.5q-14 13 -34 16v10q0 3 -2 5t-5 2t-5 -2t-2 -5v-10v0q-23 -3 -38 -19t-15 -37v-52q0 -2 -1 -4l-5 -8q-3 -5 0 -9.5t8 -4.5h51v-8q0 -3 2 -5t5 -2t5.5 2t2.5 5v8h51q5 0 8 4q1 2 1 5t-1 5zM79 74l1 1q2 4 2 10v53q0 16 11.5 28 t28.5 14q11 1 20.5 -2t17.5 -10q14 -12 14 -29v-53q0 -5 3 -12v0h-98zM19 120q0 15 12 26q2 3 2 5.5t-2 5t-5 2.5t-5 -3q-16 -15 -16 -36.5t16 -36.5q2 -2 4.5 -2t5 2t2.5 5t-2 5q-12 11 -12 27zM49 139q-2 2 -5 2t-5 -2q-9 -9 -9 -20t9 -19q2 -2 4.5 -2t5 2.5t2.5 5t-2 4.5 q-4 4 -4 9.5t4 9.5q2 2 2 5t-2 5zM217 139q-2 2 -5 2t-5 -2t-2 -5t2 -5q4 -4 4 -9.5t-4 -9.5q-2 -2 -2 -4.5t2 -5t5 -2.5t5 2q9 9 8.5 20.5t-8.5 18.5zM235 156q-2 2 -5 2.5t-5 -2t-2 -5t2 -5.5q12 -11 12 -26.5t-12 -26.5q-2 -2 -2 -5t2 -5t5 -2t5 2q16 15 16 37 q0 10 -4 19.5t-12 16.5z" />
</svg>