<svg viewBox="0 0 1024 1024" xmlns="http://www.w3.org/2000/svg">
  <path transform="scale(1, -1) translate(0, -960)" fill="currentColor" d="M701 379h-173v176q0 7 -4.5 11.5t-11.5 4.5t-11.5 -4.5t-4.5 -11.5v-176h-26q-7 0 -11.5 -4.5t-4.5 -11.5t4.5 -11.5t11.5 -4.5h26v-25q0 -8 4.5 -12t11.5 -4t11.5 4t4.5 12v25h173q7 0 11.5 4.5t4.5 11.5t-5 11.5t-11 4.5zM893 552q25 20 39 49t14 61q0 59 -42 101 t-101 42q-31 0 -59.5 -13.5t-49.5 -36.5q-38 19 -80 30t-88 13v98h69q7 0 11.5 4.5t4.5 11.5t-4.5 11.5t-11.5 4.5h-168q-7 0 -11.5 -4.5t-4.5 -11.5t4.5 -11.5t11.5 -4.5h69v-99q-46 -1 -88 -12.5t-80 -30.5q-20 24 -48 36.5t-61 12.5q-59 0 -100.5 -41.5t-41.5 -100.5 q0 -33 13.5 -61.5t39.5 -49.5h0.5t0.5 -1q-17 -39 -26 -81t-9 -87q1 -85 33 -161q33 -75 89.5 -131t132.5 -88q75 -33 161 -33t161 33q76 32 132 88.5t89 131.5q32 76 32 161q0 45 -9 87.5t-26 80.5l1 0.5t1 1.5v0zM805 773q45 0 77.5 -32.5t32.5 -78.5q0 -24 -10 -45.5 t-27 -37.5q-26 49 -65 90t-87 70q15 16 35.5 25t43.5 9zM109 662q0 46 32.5 78.5t77.5 32.5q23 0 44 -9t36 -25q-48 -29 -86.5 -69t-65.5 -91q-18 16 -28 37.5t-10 45.5v0zM512 0q-79 0 -149 30q-69 30 -121 82t-82 122q-30 69 -30 148q0 80 30 149q30 70 81.5 122.5 t121.5 82.5t149 30t149 -30t121.5 -81.5t81.5 -121.5t30 -149t-30 -149t-81.5 -122t-121.5 -83q-70 -30 -149 -30z" />
</svg>