<svg viewBox="0 0 1024 1024" xmlns="http://www.w3.org/2000/svg">
  <path transform="scale(1, -1) translate(0, -960)" fill="currentColor" d="M957 170l-66 150q-6 14 -9.5 30t-3.5 32v132q0 68 -28.5 130.5t-81.5 110.5q-49 43 -111 68t-129 28v61q0 7 -4.5 11.5t-11.5 4.5t-11.5 -4.5t-4.5 -11.5v-62q-7 0 -14.5 -1t-14.5 -1q-69 -8 -128 -37q-59 -30 -102 -75.5t-67 -104.5q-24 -58 -24 -124v-126 q0 -16 -3.5 -32t-9.5 -31l-66 -150q-11 -24 -8.5 -50t16.5 -48q15 -21 37.5 -33.5t49.5 -12.5h334v-1.5v-1.5v-34v0v0v0v0v-5q0 -7 4.5 -11.5t11.5 -4.5v0v0q7 0 11.5 4.5t4.5 11.5v39v1.5v1.5h333q26 0 49 12.5t37 33.5q15 24 17 50t-7 50zM922 90q-10 -16 -26 -24t-34 -8 h-699q-18 0 -33.5 8.5t-25.5 23.5t-12 32.5t6 34.5l65 150q7 18 11.5 37t4.5 38v127q0 59 23 112q22 52 61 93.5t93 68.5t116 35q11 1 21 1h21q66 0 126.5 -22.5t108.5 -65.5t74.5 -99.5t26.5 -117.5v-132q0 -19 3.5 -38t12.5 -37l65 -150q4 -17 2 -34.5t-11 -32.5v0z" />
</svg>