<svg viewBox="0 0 1024 1024" xmlns="http://www.w3.org/2000/svg">
  <path transform="scale(1, -1) translate(0, -960)" fill="currentColor" d="M746 256q-4 6 -5.5 11t-1.5 11v212q0 43 -17.5 82.5t-51.5 69.5q-28 26 -64.5 40.5t-75.5 16.5v53q0 7 -4.5 11.5t-11.5 4.5q-8 0 -12 -4.5t-4 -11.5v-53h-6h-6q-42 -5 -79 -23q-36 -19 -62.5 -47.5t-41.5 -64.5q-15 -37 -15 -78v-206q-1 -7 -2.5 -12t-3.5 -9l-23 -35 q-3 -6 -3 -13t3 -13q4 -6 9.5 -8.5t13.5 -2.5h214v-43q0 -7 4.5 -11.5t11.5 -4.5t11.5 4.5t4.5 11.5v43h216q7 0 12.5 3.5t8.5 7.5q3 6 3 13t-3 13zM294 219l13 23q4 7 6.5 15.5t3.5 17.5v210q0 69 49 120.5t122 60.5q44 4 86.5 -8.5t73.5 -41.5q29 -25 44 -58.5t15 -69.5 v-211q0 -11 2.5 -21t8.5 -19l13 -19h-437v1zM114 552q-5 5 -11.5 5t-11.5 -5q-29 -26 -44 -62t-15 -76q0 -39 15 -74.5t44 -64.5l6 -2t5 -1q4 0 6.5 1t5.5 4q4 5 4 11t-4 11q-24 23 -37 53t-13 62q0 33 13 63t37 53q4 4 4 10.5t-4 11.5zM187 483q-5 5 -11 5t-11 -5 q-15 -13 -22 -31t-7 -38q0 -19 8 -36.5t21 -31.5q2 -3 4.5 -4t6.5 -1t6.5 1t4.5 4q5 4 5 10.5t-5 11.5q-9 10 -14 21.5t-5 24.5q0 14 5 25.5t14 21.5q4 3 4 10t-4 12v0zM933 554q-5 4 -11.5 4t-11.5 -4q-4 -5 -4 -11.5t4 -11.5q24 -23 37 -53t13 -62t-13 -62t-37 -53 q-4 -5 -4 -11.5t4 -11.5q3 -2 6 -3t6 -1t5.5 1t5.5 3q29 28 44 64t15 76q0 37 -15 72.5t-44 63.5v0zM837 483q-5 -5 -5 -11t5 -11q9 -10 14 -21.5t5 -25.5q0 -13 -5 -24.5t-14 -21.5q-5 -5 -5 -11.5t5 -10.5q2 -3 5.5 -4t5.5 -1q4 0 6.5 1t4.5 4q15 13 22 31t7 37 q0 20 -8 37.5t-21 31.5q-3 5 -10 5t-12 -5v0z" />
</svg>