<svg viewBox="0 0 1024 1024" xmlns="http://www.w3.org/2000/svg">
  <path transform="scale(1, -1) translate(0, -960)" fill="currentColor" d="M858 837q2 -1 4.5 -2t4.5 -1q4 0 7.5 1t5.5 5q4 5 3.5 12t-6.5 10l-80 63q-5 3 -12 3t-11 -6q-3 -5 -2.5 -12t6.5 -11zM157 834q2 0 4.5 1t4.5 2l80 62q5 4 6 11t-2 12q-4 4 -11 5t-12 -2l-80 -63q-5 -3 -6 -9.5t3 -12.5q2 -2 5.5 -4t7.5 -2zM749 125q37 27 67 63 q30 35 51.5 76t32.5 88q12 46 12 96q1 83 -31 156q-31 73 -85.5 127.5t-127.5 86.5t-156 32t-156 -32t-127.5 -86.5t-86.5 -127.5t-32 -156q0 -50 12 -96q11 -47 32.5 -88t51.5 -76q30 -36 68 -63l-119 -130q-5 -5 -4 -11t6 -11q2 -3 4.5 -4t6.5 -1t6.5 1t4.5 4l122 133v0v0 q45 -29 98.5 -45t112.5 -16q58 0 111 16t100 45v0v0l122 -133q2 -3 5.5 -4t5.5 -1t5.5 1t5.5 4q5 5 5 11t-3 11l-120 130v0zM142 448q0 76 30 143q29 68 79 118t118 79q67 30 143 30t143 -30q68 -29 118 -79t79 -118q30 -67 30 -143t-30 -143q-29 -68 -79 -118t-118 -79 q-67 -30 -143 -30t-143 30q-68 29 -118 79t-79 118q-30 67 -30 143v0zM710 464h-182v178q0 7 -4.5 11.5t-11.5 4.5t-11.5 -4.5t-4.5 -11.5v-194q0 -7 4.5 -11.5t11.5 -4.5h198q8 0 12 4.5t4 11.5t-4 11.5t-12 4.5z" />
</svg>