<svg viewBox="0 0 1024 1024" xmlns="http://www.w3.org/2000/svg">
  <path transform="scale(1, -1) translate(0, -960)" fill="currentColor" d="M918 86l-33 52q-6 10 -9.5 20t-3.5 21v346q0 68 -28 130t-82 110q-48 43 -109 67t-127 27v53q0 7 -4 11.5t-12 4.5q-7 0 -11.5 -4.5t-4.5 -11.5v-53q-7 0 -14.5 -0.5t-15.5 -0.5q-67 -8 -125 -37q-57 -29 -99.5 -74.5t-66.5 -103.5t-24 -123v-339q-1 -13 -4 -22.5 t-7 -17.5l-32 -55q-5 -7 -5 -15.5t5 -14.5q4 -7 11 -10.5t16 -3.5h363v-58q0 -7 4.5 -11.5t11.5 -4.5t11.5 4.5t4.5 11.5v58h365q8 0 15 3.5t12 10.5q4 7 3.5 15t-5.5 15v0zM514 74h-2h2h-2h-2h-376l31 52q6 11 9.5 23.5t6.5 29.5v343q0 58 22 111t61 94t92 67q53 27 114 33 q11 1 21 1.5t19 0.5q65 0 124.5 -22.5t106.5 -64.5q48 -43 73.5 -98.5t25.5 -117.5v-345q0 -16 4.5 -30.5t13.5 -28.5l30 -48h-374v0z" />
</svg>