<svg viewBox="0 0 256 256" xmlns="http://www.w3.org/2000/svg">
  <path transform="scale(1, -1) translate(0, -256)" fill="currentColor" d="M234 251q-3 0 -5.5 -2t-2.5 -5v-232q0 -3 2.5 -5.5t5.5 -2.5t5 2.5t2 5.5v232q0 3 -2.5 5t-4.5 2zM172 213h-130q-11 0 -18.5 -7.5t-7.5 -18.5v-8q0 -11 7.5 -18.5t18.5 -7.5h130q11 0 18.5 7.5t7.5 18.5v8q0 11 -7.5 18.5t-18.5 7.5zM184 179q0 -5 -3 -8.5t-9 -3.5h-130 q-6 0 -9 3.5t-3 8.5v8q0 5 3.5 8.5t8.5 3.5h130q6 0 9 -3.5t3 -8.5v-8zM172 103h-78q-10 0 -18 -7.5t-8 -18.5v-8q0 -11 8 -18.5t18 -7.5h78q11 0 18.5 7.5t7.5 18.5v8q0 11 -7.5 18.5t-18.5 7.5zM184 69q0 -5 -3 -8.5t-9 -3.5h-78q-5 0 -8.5 3.5t-3.5 8.5v8q0 5 3.5 8.5 t8.5 3.5h78q5 0 8.5 -3.5t3.5 -8.5v-8z" />
</svg>