<svg viewBox="0 0 256 256" xmlns="http://www.w3.org/2000/svg">
  <path transform="scale(1, -1) translate(0, -256)" fill="currentColor" d="M23 56v144q0 3 -2 5t-5 2t-5.5 -2t-2.5 -5v-144q0 -3 2.5 -5t5.5 -2t5 2t2 5zM84 52q10 0 17 7.5t7 17.5v102q0 10 -7 17.5t-17 7.5h-8q-10 0 -17 -7.5t-7 -17.5v-102q0 -10 7 -17.5t17 -7.5h8zM66 77v102q0 4 3 7.5t7 3.5h8q4 0 7 -3.5t3 -7.5v-102q0 -4 -3 -7.5 t-7 -3.5h-8q-4 0 -7 3.5t-3 7.5zM223 251h-203q-3 0 -5 -2t-2 -5t2 -5t5 -2h203q4 0 7 -3t3 -8v-197q0 -4 -3 -7t-7 -3h-203q-3 0 -5.5 -2t-2.5 -5t2.5 -5.5t5.5 -2.5h203q10 0 17 7.5t7 17.5v197q0 11 -7 18t-17 7z" />
</svg>