<svg viewBox="0 0 256 256" xmlns="http://www.w3.org/2000/svg">
  <path transform="scale(1, -1) translate(0, -256)" fill="currentColor" d="M22 251q-2 0 -4 -2t-2 -5v-232q0 -3 2 -5t5 -2t5 2t2 5v232q0 3 -2.5 5t-5.5 2zM214 213h-130q-11 0 -18.5 -7.5t-7.5 -18.5v-8q0 -11 7.5 -18.5t18.5 -7.5h130q11 0 18.5 7.5t7.5 18.5v8q0 11 -7.5 18.5t-18.5 7.5zM226 179q0 -5 -3 -8.5t-9 -3.5h-130q-5 0 -8.5 3.5 t-3.5 8.5v8q0 5 3.5 8.5t8.5 3.5h130q6 0 9 -3.5t3 -8.5v-8zM162 103h-78q-11 0 -18.5 -7.5t-7.5 -18.5v-8q0 -11 7.5 -18.5t18.5 -7.5h78q10 0 18 7.5t8 18.5v8q0 11 -8 18.5t-18 7.5zM174 69q0 -5 -3.5 -8.5t-8.5 -3.5h-78q-5 0 -8.5 3.5t-3.5 8.5v8q0 5 3 8.5t9 3.5h78 q5 0 8.5 -3.5t3.5 -8.5v-8z" />
</svg>