<svg viewBox="0 0 256 256" xmlns="http://www.w3.org/2000/svg">
  <path transform="scale(1, -1) translate(0, -256)" fill="currentColor" d="M23 56v144q0 3 -2 5t-5 2t-5.5 -2t-2.5 -5v-144q0 -3 2.5 -5t5.5 -2t5 2t2 5zM72 141h102q11 0 18 7t7 18v7q0 10 -7 17.5t-18 7.5h-102q-10 0 -17 -7.5t-7 -17.5v-7q0 -10 7 -17.5t17 -7.5zM62 174q0 4 3 7t7 3h102q5 0 8 -3t3 -7v-8q0 -4 -3 -7t-8 -3h-102q-4 0 -7 3 t-3 7v8zM48 82q0 -10 7 -17t17 -7h72q10 0 17 7t7 17v8q0 10 -7 17t-17 7h-72q-10 0 -17 -7t-7 -17v-8zM62 90q0 5 3 8t7 3h72q4 0 7 -3t3 -8v-7q0 -4 -3 -7.5t-7 -3.5h-72q-4 0 -7 3.5t-3 7.5v7zM223 251h-203q-3 0 -5 -2t-2 -5t2 -5t5 -2h203q4 0 7 -3t3 -8v-197 q0 -4 -3 -7t-7 -3h-203q-3 0 -5.5 -2t-2.5 -5t2.5 -5.5t5.5 -2.5h203q10 0 17 7.5t7 17.5v197q0 11 -7 18t-17 7z" />
</svg>