<svg viewBox="0 0 256 256" xmlns="http://www.w3.org/2000/svg">
  <path transform="scale(1, -1) translate(0, -256)" fill="currentColor" d="M164 128q0 -3 2 -5t5 -2h73q3 0 5 2t2 5t-2 5t-5 2h-73q-3 0 -5 -2t-2 -5zM243 60q-3 0 -5 -2t-2 -5v-23q0 -5 -3.5 -8t-7.5 -3h-23q-3 0 -5 -2t-2 -5t2 -5t5 -2h23q10 0 17.5 7t7.5 17v23q0 4 -2 6t-5 2zM202 236h24q4 0 7 -3t3 -7v-23q0 -3 2 -5t5 -2t5 2t2 5v23 q0 10 -7 17t-17 7h-23q-3 0 -5 -2t-2 -5t1.5 -5t4.5 -2zM52 20h-23q-4 0 -7 3t-3 7v91h65q3 0 5 2t2 5t-2 5t-5 2h-65v91q0 4 3 7t8 3h23q3 0 5 2.5t2 5.5t-2 5t-5 2h-24q-10 -1 -17 -8t-7 -17v-196q0 -11 7 -18t18 -7h23q3 0 5 2t2 5t-2.5 5.5t-5.5 2.5zM250 168v5 q0 3 -2 5t-5 2t-5 -2t-2 -4v-6q0 -3 2 -5t5 -2t5 2t2 5zM243 94q-3 0 -5 -2t-2 -5v-6q0 -3 2 -5t5 -2t5 2t2 5v6q0 3 -2 5t-5 2zM174 19h-6q-3 0 -5 -2t-2 -5t2 -5.5t5 -2.5h6q3 0 5 2.5t2 5.5t-2 5t-5 2zM87 19h-5q-3 0 -5.5 -2t-2.5 -5t2.5 -5.5t5.5 -2.5h5q3 0 5 2.5 t2 5.5t-2 5t-5 2zM168 236h6q3 0 5 2t2 5t-2 5t-5 2h-6q-3 0 -5 -2t-2 -5t2 -5t5 -2zM87 250h-5q-3 0 -5.5 -2.5t-2.5 -5.5t2.5 -5t5.5 -2h5q3 0 5 2t2 5t-2 5.5t-5 2.5zM128 92q-3 0 -5.5 -2.5t-2.5 -5.5v-73q0 -3 2.5 -5t5.5 -2t4.5 2t1.5 5v74q0 2 -2 4.5t-4 2.5z M128 252q-3 0 -5.5 -2.5t-2.5 -5.5v-73q0 -3 2.5 -5t5.5 -2t4.5 2t1.5 5v73q0 3 -2 5.5t-4 2.5z" />
</svg>