<svg viewBox="0 0 1024 1024" xmlns="http://www.w3.org/2000/svg">
  <path transform="scale(1, -1) translate(0, -960)" fill="currentColor" d="M934 928q-7 0 -11.5 -4.5t-4.5 -11.5v-928q0 -7 4.5 -11.5t11.5 -4.5q8 0 12 4.5t4 11.5v928q0 7 -5 11.5t-11 4.5zM690 776h-524q-38 0 -64.5 -27t-26.5 -64v-34q0 -38 27 -64.5t64 -26.5h524q38 0 64.5 27t26.5 64v34q0 37 -27 64t-64 27zM749 651q0 -25 -17.5 -42 t-41.5 -17h-524q-25 0 -42 17.5t-17 41.5v34q0 25 17.5 42t41.5 17h524q25 0 42 -17.5t17 -41.5v-34zM690 338h-312q-39 0 -65.5 -27t-26.5 -65v-33q0 -39 27 -65t65 -26h312q38 0 64.5 27t26.5 64v33q0 38 -27 65t-64 27zM749 211q0 -25 -17.5 -42t-41.5 -17h-312 q-26 0 -43 17.5t-17 41.5v34q0 25 18 42t42 17h312q25 0 42 -17.5t17 -41.5v-34z" />
</svg>