<svg viewBox="0 0 256 256" xmlns="http://www.w3.org/2000/svg">
  <path transform="scale(1, -1) translate(0, -256)" fill="currentColor" d="M240 206q-3 0 -5 -2t-2 -5v-143q0 -3 2 -5t5 -2t5 2t2 5v144q0 2 -2 4t-5 2zM172 204q-10 0 -17 -7.5t-7 -17.5v-102q0 -10 7 -17.5t17 -7.5h8q10 0 17 7.5t7 17.5v102q0 10 -7 17.5t-17 7.5h-8zM191 179v-102q0 -4 -3 -7.5t-8 -3.5h-7q-4 0 -7.5 3.5t-3.5 7.5v102 q0 4 3.5 7.5t7.5 3.5h7q4 0 7.5 -3.5t3.5 -7.5zM236 19h-203q-4 0 -7 3t-3 7v197q0 5 3 8t7 3h203q3 0 5 2t2 5t-2 5t-5 2h-203q-10 0 -17 -7t-7 -18v-197q0 -10 7 -17t17 -7h203q3 0 5 2t2 5t-2 5t-5 2z" />
</svg>