<svg viewBox="0 0 1024 1024" xmlns="http://www.w3.org/2000/svg">
  <path transform="scale(1, -1) translate(0, -960)" fill="currentColor" d="M960 750q-7 0 -11.5 -4t-4.5 -12v-572q0 -8 4.5 -12t11.5 -4t11.5 4t4.5 12v572q0 6 -4.5 11t-11.5 5zM690 739q-36 0 -60.5 -25t-24.5 -61v-410q0 -36 25 -60.5t60 -24.5h30q36 0 61 25t25 60v410q0 36 -25 61t-61 25h-30v0zM774 653v-410q0 -21 -15.5 -37t-38.5 -16 h-30q-22 0 -37.5 16t-15.5 37v410q0 21 15.5 37.5t37.5 16.5h30q23 0 38.5 -15.5t15.5 -38.5v0zM946 0h-813q-22 0 -37.5 15.5t-15.5 37.5v789q0 22 15.5 38t37.5 16h811q7 0 11.5 4.5t4.5 11.5t-4.5 11.5t-11.5 4.5h-811q-35 0 -60 -25t-25 -61v-789q0 -36 25 -60.5 t61 -24.5h812q7 0 11.5 4.5t4.5 11.5t-5 11.5t-11 4.5v0z" />
</svg>