<svg viewBox="0 0 1024 1024" xmlns="http://www.w3.org/2000/svg">
  <path transform="scale(1, -1) translate(0, -960)" fill="currentColor" d="M80 162v572q0 8 -4.5 12t-11.5 4t-11.5 -4t-4.5 -12v-572q0 -8 4.5 -12t11.5 -4t11.5 5t4.5 11zM288 514h410q36 0 61 25t25 59v31q0 36 -25 61t-61 25h-410q-36 0 -61 -25t-25 -61v-31q0 -34 25 -59t61 -25zM234 630q0 22 15.5 38.5t38.5 16.5h410q21 0 37.5 -16 t16.5 -39v-30q0 -22 -16 -37.5t-38 -15.5h-410q-22 0 -38 15.5t-16 37.5v30zM202 266q0 -36 25 -60.5t61 -24.5h286q36 0 61.5 25t25.5 60v30q0 36 -25.5 60.5t-61.5 24.5h-286q-36 0 -61 -25t-25 -60v-30zM234 298q0 21 15.5 36.5t38.5 15.5h286q22 0 38.5 -15.5 t16.5 -36.5v-31q0 -21 -16 -37t-39 -16h-286q-22 0 -38 16t-16 37v31zM891 928h-813q-7 0 -11.5 -4.5t-4.5 -11.5t4.5 -11.5t11.5 -4.5h813q22 0 37.5 -16t15.5 -38v-789q0 -22 -15.5 -37.5t-37.5 -15.5h-813q-7 0 -11.5 -4.5t-4.5 -11.5t4.5 -11.5t11.5 -4.5h813 q36 0 60.5 25t24.5 60v789q0 36 -25 61t-60 25z" />
</svg>