<svg viewBox="0 0 1024 1024" xmlns="http://www.w3.org/2000/svg">
  <path transform="scale(1, -1) translate(0, -960)" fill="currentColor" d="M960 750q-7 0 -11.5 -4t-4.5 -12v-572q0 -8 4.5 -12t11.5 -4t11.5 4t4.5 12v572q0 6 -4.5 11t-11.5 5zM822 630q0 36 -25 61.5t-59 25.5h-412q-36 0 -61 -25.5t-25 -61.5v-30q0 -35 25 -60t61 -25h410q36 0 60.5 25t24.5 60v30h1zM790 598q0 -21 -15.5 -36.5t-36.5 -15.5 h-412q-21 0 -37.5 15.5t-16.5 36.5v31q0 21 16 37.5t38 16.5h410q22 0 37.5 -15.5t15.5 -38.5v-31h1zM736 382h-286q-36 0 -61.5 -25t-25.5 -59v-31q0 -36 25.5 -60.5t61.5 -24.5h286q36 0 60.5 25t24.5 60v31q1 34 -24 59t-61 25zM790 266q0 -22 -15.5 -37.5t-36.5 -15.5 h-288q-22 0 -38.5 15.5t-16.5 37.5v30q0 22 16 37.5t39 15.5h286q22 0 37.5 -15.5t15.5 -37.5v-30h1zM946 0h-813q-22 0 -37.5 15.5t-15.5 37.5v789q0 22 15.5 38t37.5 16h811q7 0 11.5 4.5t4.5 11.5t-4.5 11.5t-11.5 4.5h-811q-35 0 -60 -25t-25 -61v-789q0 -36 25 -60.5 t61 -24.5h812q7 0 11.5 4.5t4.5 11.5t-5 11.5t-11 4.5v0z" />
</svg>