<svg viewBox="0 0 1024 1024" xmlns="http://www.w3.org/2000/svg">
  <path transform="scale(1, -1) translate(0, -960)" fill="currentColor" d="M667 448q0 -7 4.5 -11.5t11.5 -4.5h293q7 0 11.5 4.5t4.5 11.5t-4.5 11.5t-11.5 4.5h-293q-7 0 -11.5 -4.5t-4.5 -11.5zM971 163q-7 0 -11.5 -4.5t-4.5 -11.5v-93q0 -21 -15.5 -36.5t-37.5 -15.5h-92q-8 0 -12 -4.5t-4 -11.5q0 -8 4 -12t12 -4h92q35 0 60 25t25 59v93 q0 7 -4.5 11.5t-11.5 4.5zM810 894h92q22 0 37.5 -15.5t15.5 -36.5v-93q0 -7 4.5 -11.5t11.5 -4.5t11.5 4.5t4.5 11.5v91q0 35 -25 60t-60 25h-92q-8 0 -12 -4.5t-4 -11.5t5 -11t11 -4zM210 2h-93q-22 0 -37.5 15.5t-15.5 36.5v378h1.5h1.5h269q7 0 11.5 4.5t4.5 11.5 t-4.5 11.5t-11.5 4.5h-269h-1.5h-1.5v376q0 22 15.5 37.5t37.5 15.5h93q7 0 11.5 4.5t4.5 11.5t-4.5 11.5t-11.5 4.5h-93q-35 1 -60 -24t-25 -61v-786q0 -34 25 -59t60 -25h93q7 0 11.5 4t4.5 12q0 7 -4.5 11.5t-11.5 4.5v0zM987 606v23q0 7 -4.5 11.5t-11.5 4.5t-11.5 -4.5 t-4.5 -11.5v-23q0 -7 4.5 -11.5t11.5 -4.5t11.5 5t4.5 11zM971 299q-7 0 -11.5 -4.5t-4.5 -11.5v-22q0 -7 4.5 -11.5t11.5 -4.5t11.5 4.5t4.5 11.5v22q0 7 -4.5 11.5t-11.5 4.5zM694 0h-22q-7 0 -11.5 -4.5t-4.5 -11.5t4.5 -11.5t11.5 -4.5h22q8 0 12 4.5t4 11.5t-4 11.5 t-12 4.5zM349 0h-23q-7 0 -11.5 -4.5t-4.5 -11.5t4.5 -11.5t11.5 -4.5h23q7 0 11.5 4.5t4.5 11.5t-5 11.5t-11 4.5zM672 891h22q8 0 12 4.5t4 11.5t-4 11.5t-12 4.5h-22q-7 0 -11.5 -4.5t-4.5 -11.5t4.5 -11.5t11.5 -4.5zM349 923h-23q-7 0 -11.5 -4.5t-4.5 -11.5t4.5 -11.5 t11.5 -4.5h23q7 0 11.5 4.5t4.5 11.5t-5 11.5t-11 4.5zM510 291q-7 0 -11.5 -4.5t-4.5 -11.5v-293q0 -7 4.5 -11.5t11.5 -4.5q8 0 12 4.5t4 11.5v293q0 6 -5 11t-11 5zM510 930q-7 0 -11.5 -4.5t-4.5 -11.5v-293q0 -7 4.5 -11.5t11.5 -4.5q8 0 12 4.5t4 11.5v293 q0 7 -5 11.5t-11 4.5z" />
</svg>