<svg viewBox="0 0 256 256" xmlns="http://www.w3.org/2000/svg">
  <path transform="scale(1, -1) translate(0, -256)" fill="currentColor" d="M224 71q-46 -19 -94 -19q-32 0 -63.5 8.5t-58.5 24.5q-2 1 -3.5 -0.5t0.5 -3.5q25 -22 56 -34.5t67 -12.5q26 0 53 8t47 22q4 3 2 6t-6 1zM251 86q-2 3 -10 4t-17.5 -1t-16.5 -7q-2 -1 -1.5 -2.5t1.5 -1.5q10 2 18 2q11 0 13.5 -2.5t0.5 -11.5q-2 -4 -5 -14l-2 -6 q-1 -1 0.5 -1.5t2.5 0.5q7 6 11.5 14.5t5.5 16.5t-1 10zM140 173h-3q-13 -1 -20 -2q-12 -2 -19 -6q-11 -5 -17.5 -14t-6.5 -23q0 -17 9.5 -26t24.5 -9q11 0 19.5 3.5t17.5 12.5l2 -3q5 -7 11 -12q3 -1 5 0q10 10 18 15q1 1 1 3t-1 3l-2 2q-3 5 -5 8.5t-2 10.5v39q1 13 -1 19 q-2 10 -8 16t-15.5 8.5t-19.5 2.5q-18 0 -31 -7q-15 -9 -19 -27q0 -2 1 -3.5t2 -1.5l22 -2q2 0 4 3v1q1 7 6 10.5t13 3.5t11 -5t3 -17v-3zM136 126q-2 -4 -6.5 -7t-9.5 -3t-9 5t-4 12q0 22 33 22v-5q0 -7 -0.5 -12.5t-3.5 -11.5z" />
</svg>