<svg viewBox="0 0 256 256" xmlns="http://www.w3.org/2000/svg">
  <path transform="scale(1, -1) translate(0, -256)" fill="currentColor" d="M119 104h3h2q10 3 16 14q2 5 3.5 9.5t1.5 8.5v13q0 3 -2 5t-5 2q-13 0 -19 -1q-10 -3 -15.5 -10t-5.5 -17t5 -17q8 -7 16 -7zM124 141q2 1 7 1l-1 -11q0 -3 -2 -6q-2 -5 -7 -7h-2q-3 0 -5 2.5t-2 7.5t3 8.5t9 4.5zM86 176q-16 -7 -26 -21t-10 -33q0 -26 14.5 -39.5 t37.5 -13.5q14 0 23 3q12 3 25 15l2 -2q9 -11 11 -13l2 -1q2 -1 6.5 -1t8.5 2v1q27 21 27 28q0 3 -2 7l-7 9q-1 1 -2 5.5t-1 9.5v61q0 5 -1 7q0 6 -1 8q-11 42 -64 44v0q-8 0 -17 -2q-17 -2 -30 -9q-10 -5 -16.5 -15.5t-9.5 -23.5l-1 -4q0 -5 2.5 -8t7.5 -4l32 -3q8 2 10 11 q1 6 5 8q6 5 13 5v0q6 0 10 -5q2 -2 2 -16l-16 -2q-19 -2 -35 -8zM140 172h5q3 1 4.5 3t1.5 4v5q0 18 -5 26q-7 11 -20 11t-22 -7t-11 -17l-24 3q2 10 7 17.5t12 11.5t18 6q7 2 15 2h7q26 -1 40 -13q8 -8 10 -18l1 -13v-61q0 -7 2 -13.5t5 -10.5l4 -6q-4 -5 -19 -17l-1 -1 l-15 17q-2 2 -5.5 2.5t-5.5 -1.5q-12 -14 -24 -18q-8 -2 -19 -2q-17 0 -27 10t-10 29q0 15 7 25.5t20.5 16t31.5 7.5q4 1 17 2zM218 40q0 -1 -1 -1l-5 -2q-42 -15 -82 -15q-62 0 -115 30q-2 1 -3 0l-1 -2q0 -1 1 -2q24 -20 53.5 -32t62.5 -12q21 0 43.5 6t41.5 17l9 7 q3 2 1.5 4.5t-5.5 1.5zM244 54q-2 3 -12 3l-4 1q-7 0 -15 -3q-6 -1 -10 -5l-2 -2h1l1 -1l10 1l8 1q10 0 12 -3q1 -1 1 -4q0 -6 -8 -25q-1 -2 0 -3l3 1q7 5 11 15.5t4 18.5v1v4z" />
</svg>