<svg viewBox="0 0 256 256" xmlns="http://www.w3.org/2000/svg">
  <path transform="scale(1, -1) translate(0, -256)" fill="currentColor" d="M4 98q0 1 1 1.5t3 -0.5l13 -7q22 -11 51 -19q17 -3 26 -4q21 -3 38 -2q12 0 22 2q37 4 66 17l4 1q2 0 2.5 -2t-0.5 -4l-4 -3q-19 -12 -40 -19q-20 -5 -31 -7q-32 -3 -57 1q-16 2 -33 8q-8 3 -19 8l-18 10l-20 16q-1 1 -2 1l-2 1v1zM68 204h-2q-8 -1 -15 -6l-3 -3v4 q-1 3 -3 3h-5q-2 0 -2.5 -0.5t-0.5 -3.5v-86q0 -1 1 -1h9q1 0 1 1v31l1 -1q10 -8 25 -6q11 2 18 14q3 7 4 18t-3 21.5t-18 14.5h-4h-3zM49 187l1 1v0q7 6 17.5 5.5t14.5 -10.5q2 -5 2 -13t-2 -13q-4 -12 -18 -12q-8 0 -15 5v37zM132 204h-1q-6 0 -12 -1q-2 -1 -6 -2l-1 -1 q-2 0 -2 -2v-4q0 -3 2 -2l13 3q8 0 12.5 -0.5t6 -2t2.5 -5.5v-2v-11v0q-6 2 -13 2.5t-14 -2t-11 -10.5q-3 -6 -2 -12q1 -9 8 -13q5 -3 15 -2.5t17 7.5v0l1 -4q0 -2 2 -2h7q2 0 2 2v43l-1 6q0 8 -8 12q-4 2 -9 3h-8zM147 152v0l-1 -1q-8 -5 -15 -6q-2 -1 -6 0h-1q-3 1 -4 5.5 t0 9t5.5 6t10.5 0.5l3 -1q5 0 6 -0.5t1 -1.5zM251 100q0 2 -2 3q-5 2 -14 2q-16 1 -28 -7v0q-1 -1 -1 -2l-1 -1q0 -1 2 -1l9 2q8 1 19 0l3 -2q2 -1 1 -5q-2 -14 -9 -26v-1q0 -1 1.5 -0.5t2.5 0.5l3 4q5 6 10 17t4 17zM199 150q-6 14 -16 43q-1 2 -2 6l-1 1q-1 2 -3 2h-9 q-2 0 -1.5 -1t0.5 -3l5 -11q13 -33 20 -48v-5l-4 -9q-2 -4 -7 -5q-1 -2 -5 -2h-5v-5q0 -2 0.5 -2.5t2.5 -0.5h7q10 0 16 8l4 7l29 73v2t-2 2h-8q-2 0 -2 -2l-18 -52z" />
</svg>