<svg viewBox="0 0 1024 1024" xmlns="http://www.w3.org/2000/svg">
  <path transform="scale(1, -1) translate(0, -960)" fill="currentColor" d="M16 328q0 1 1 3t4 2q2 1 5.5 0t5.5 -2q13 -7 25.5 -13.5t25.5 -13.5q49 -24 101.5 -42.5t105.5 -32.5q25 -5 50.5 -9.5t51.5 -8.5q38 -5 76.5 -7t77.5 1q20 0 41.5 1.5t44.5 4.5q67 9 134.5 26t129.5 45q4 1 7.5 1h8.5q8 -1 9.5 -8t-3.5 -14q-3 -4 -7 -6t-9 -5 q-37 -26 -77.5 -45t-82.5 -32q-30 -9 -60.5 -16.5t-60.5 -10.5q-57 -6 -115 -6.5t-114 7.5q-34 5 -66.5 13.5t-64.5 20.5q-19 7 -38 15t-37 17t-36 19t-36 21q-18 14 -34.5 26.5t-33.5 24.5q-2 2 -5 4.5t-6 5.5l-5 5t-8 3q-1 0 -2 0.5t-2 0.5q0 3 -1 3.5t-1 1.5v0zM272 754 l-6 -2q-17 -1 -32.5 -8t-28.5 -18q-4 -1 -6 -4t-5 -5v1q0 4 -1 7.5t-1 5.5q-1 5 -3.5 8t-7.5 3h-21q-8 0 -10.5 -2t-2.5 -10v-340v-1.5v-2.5q0 -4 1.5 -5.5t5.5 -1.5h16.5h16.5q4 0 5.5 1.5t1.5 5.5v1.5v2.5v117l1 -1v0q22 -20 46.5 -25.5t52.5 -0.5q24 5 42 19.5t30 36.5 q9 17 13 35.5t5 36.5q1 20 -1.5 40.5t-9.5 41.5q-10 24 -28 38.5t-44 21.5q-4 2 -8.5 2h-7.5q-1 1 -4.5 1.5t-8.5 0.5v0zM197 683q0 1 0.5 3l0.5 2q17 12 36 17t40 5q19 -1 32.5 -10.5t21.5 -32.5q5 -13 5.5 -27t0.5 -27t-1 -25.5t-5 -24.5q-8 -25 -26.5 -36.5t-43.5 -11.5 q-17 1 -32.5 7t-28.5 16v4.5v1.5v33.5v33.5v38v34v0v0zM530 754h-2.5h-2.5q-12 0 -24 -1.5t-24 -5.5q-7 -1 -15 -4t-14 -5q-5 -2 -7.5 -5t-2.5 -7v-7.5v-8.5t2 -6t10 0q8 1 18 4l20 6q16 1 30.5 2.5t30.5 -1.5q8 -1 15 -4t12 -9q5 -4 6 -12t4 -15v-19.5v-20.5v-1h-2v0 q-13 3 -25.5 4.5t-25.5 1.5q-13 1 -27 -0.5t-28 -5.5q-16 -5 -27.5 -15.5t-20.5 -24.5q-4 -12 -6 -24.5t0 -25.5q1 -17 9.5 -30t24.5 -21q13 -9 29 -10t31 0q20 1 36.5 9t29.5 20q1 0 1.5 1l0.5 1q1 -5 1 -9v-9q1 -4 3.5 -5t6.5 -1h13.5h13.5q4 0 5 1t1 5v1.5v3.5v168v10 t-1 12q-1 17 -9 29t-23 21q-9 5 -17.5 7.5t-19.5 3.5q-5 1 -9 1.5t-9 0.5q2 0 -3 0h-9v0v0zM587 546q0 -2 -0.5 -2.5t-0.5 -2.5q-14 -9 -29 -16t-32 -10q-7 -1 -13.5 0t-13.5 2q-8 1 -13.5 7.5t-7.5 14.5q-1 9 -1 17t1 15q3 10 9.5 16.5t17.5 9.5q8 3 19 3.5t21 -2.5 q10 -1 20 -1.5t20 -4.5q1 0 1.5 -1t0.5 -4v-11v-11t0.5 -10t0.5 -9v0zM1005 334q0 4 -2.5 7.5t-7.5 5.5q-12 6 -27.5 8t-28.5 2q-27 1 -56.5 -6t-53.5 -23q-1 -1 -3 -2t-4 -4q-1 -2 -1 -4v-3t1.5 -1h4.5h1.5h0.5q8 1 18 1.5t19 2.5q16 4 36 3.5t37 -3.5q4 -1 6.5 -1.5 t4.5 -2.5q5 -4 5.5 -10.5t-0.5 -12.5q-3 -26 -12.5 -52.5t-22.5 -49.5q-1 -1 -1.5 -2.5t-0.5 -2.5q0 -2 3 -3.5t5 -1.5q3 1 5 2.5t3 4.5q4 3 7.5 6.5t5.5 7.5q12 14 21 31.5t16 35.5q7 15 14.5 33t6.5 34v0zM795 534q-17 42 -32.5 86t-31.5 89q-1 7 -4 13.5t-7 13.5 q-1 4 -3.5 5t-7.5 1h-19h-18q-4 0 -5 -1t0 -5q1 -1 1.5 -4t0.5 -6q24 -58 48 -117.5t49 -117.5q2 -5 2 -9t-2 -8q-3 -9 -7 -19t-9 -18q-3 -9 -8.5 -14t-16.5 -9q-5 -3 -11.5 -3.5t-11.5 -0.5q-3 0 -5 0.5t-6 0.5q-5 0 -5.5 -1.5t-0.5 -4.5v-8.5v-7.5q0 -7 2 -9.5t9 -3.5 t13.5 -1.5t13.5 -0.5q21 0 37 8.5t27 25.5q5 7 9 15l7 14q29 73 58 145.5t57 145.5q2 1 2 4v6t-1.5 4.5t-4.5 1.5h-17h-15q-5 0 -8.5 -1.5t-3.5 -4.5q-1 -2 -1 -4v-3l-56 -165q-4 -8 -6 -17t-5 -19q-5 1 -6 2.5l-1 1.5v0v0z" />
</svg>