<svg viewBox="0 0 1024 1024" xmlns="http://www.w3.org/2000/svg">
  <path transform="scale(1, -1) translate(0, -960)" fill="currentColor" d="M896 221q-46 -19 -93 -34q-47 -14 -94.5 -23.5t-94.5 -14.5t-92 -5q-66 -1 -131 8t-127 26t-121 41q-58 25 -111 56q-8 5 -14 -1t3 -15q48 -44 104 -78q55 -35 117 -59t130 -37q67 -13 138 -13q51 0 105 8t106.5 23.5t100.5 38.5q49 22 90 52q14 10 6 21.5t-22 5.5v0z M1003 282q-8 12 -68 14t-108 -30q-7 -5 -5.5 -10.5t7.5 -5.5q25 3 70 5.5t56 -10.5t-4 -55.5t-23 -67.5q-4 -8 1.5 -10t11.5 3q45 37 59 96.5t3 70.5v0zM562 629q-39 -4 -86.5 -9.5t-83.5 -22.5q-42 -18 -70 -55t-28 -92q0 -71 39.5 -107t96.5 -36q47 0 79.5 14.5t69.5 51.5 q12 -17 21 -30t30 -31q5 -1 11.5 -1t11.5 3v0q13 12 34.5 30t35.5 29q5 5 5 11t-5 11q-12 17 -22.5 34t-10.5 49v143q0 44 -3.5 84.5t-36.5 70.5q-26 25 -65 35t-71 10q-65 0 -125.5 -29.5t-74.5 -108.5q-2 -8 2.5 -12.5t8.5 -4.5l86 -10q7 0 10.5 5.5t5.5 10.5 q5 28 25.5 41t46.5 13q13 0 28 -5t23 -17q9 -13 10.5 -31.5t1.5 -34.5v-9v0zM544 442q-10 -18 -26.5 -29t-34.5 -11q-25 0 -40.5 18t-15.5 47q0 58 43 74t90 16v-21q1 -24 -1 -47t-15 -47z" />
</svg>