<svg viewBox="0 0 256 256" xmlns="http://www.w3.org/2000/svg">
  <path transform="scale(1, -1) translate(0, -256)" fill="currentColor" d="M231 206h-96v11q0 3 -2 5t-5 2t-5 -2t-2 -5v-11h-26q-19 0 -35.5 -8.5t-28.5 -22.5l-22 -28q-4 -6 -4 -12v-42q0 -8 5.5 -13.5t13.5 -5.5h13q-2 -6 -2 -11q0 -12 9 -21t21.5 -9t21.5 9t9 21q0 5 -2 11h69q-2 -6 -2 -11q0 -12 9 -21t21.5 -9t21.5 9t9 21q0 5 -2 11h11 q8 0 13.5 5.5t5.5 13.5v93q1 8 -5 14t-14 6zM42 166q17 20 43 25v-45h-59zM66 46q-7 0 -12 5t-5 11.5t5 11.5t11.5 5t11.5 -5t5 -12t-4.5 -11.5t-11.5 -4.5zM192 46q-7 0 -12 5t-5 11.5t5 11.5t11.5 5t11.5 -5t5 -12t-4.5 -11.5t-11.5 -4.5zM237 93q0 -3 -1.5 -4.5 t-3.5 -1.5h-22q-7 6 -17.5 6t-17.5 -6h-92q-7 6 -17.5 6t-17.5 -6h-23q-3 0 -4.5 1.5t-1.5 4.5v39h73q3 0 5 2t2 5v53h133q2 0 4 -2t2 -4v-93h-1zM194 146h-16v16q0 3 -2 5.5t-5 2.5t-5 -2.5t-2 -5.5v-16h-16q-3 0 -5.5 -2t-2.5 -5t2.5 -5t5.5 -2h16v-16q0 -3 2 -5t5 -2t5 2 t2 5v16h16q3 0 5 2t2 5t-2 5t-5 2z" />
</svg>