<svg viewBox="0 0 256 256" xmlns="http://www.w3.org/2000/svg">
  <path transform="scale(1, -1) translate(0, -256)" fill="currentColor" d="M245 152l-43 51q-3 4 -8 6t-10 2h-156q-9 0 -16 -7t-7 -16v-99q0 -10 6.5 -16.5t16.5 -6.5h8q2 -9 9.5 -14.5t16.5 -5.5t16.5 5.5t9.5 14.5h85q3 -9 10 -14.5t16 -5.5t16.5 5.5t9.5 14.5h2q9 0 16 6.5t7 16.5v48q1 7 -5 15zM62 59q-5 0 -9 4t-4 9.5t4 9.5t9 4t9 -4 t4 -9.5t-4 -9.5t-9 -4zM200 59q-6 0 -10 4t-4 9.5t4 9.5t9.5 4t9.5 -4t4 -9.5t-4 -9.5t-9 -4zM237 89q0 -4 -2.5 -7t-6.5 -3h-2q-2 9 -9.5 14.5t-16.5 5.5t-16.5 -5.5t-9.5 -14.5h-86q-2 9 -9 14.5t-16.5 5.5t-16.5 -5.5t-10 -14.5h-8q-4 0 -6.5 3t-2.5 7v98q0 4 2.5 7 t6.5 3h156q5 0 7 -3l44 -51q2 -3 2 -7v-47zM109 156h-16v16q0 3 -2 5t-5 2t-5 -2t-2 -5v-16h-16q-3 0 -5 -2.5t-2 -5.5t2 -5t5 -2h16v-16q0 -3 2 -5t5 -2t5 2t2 5v16h16q3 0 5 2t2 5t-2 5.5t-5 2.5zM208 142h-18q-4 0 -7 3t-3 7v21q0 3 -2 5t-5 2t-5 -2t-2 -5v-21 q0 -10 7 -17t17 -7h18q3 0 5 2t2 5t-2 5t-5 2z" />
</svg>