<svg viewBox="0 0 1024 1024" xmlns="http://www.w3.org/2000/svg">
  <path transform="scale(1, -1) translate(0, -960)" fill="currentColor" d="M928 795h-518q-27 0 -45 -19.5t-18 -47.5v-64h-99v54q0 8 -4.5 12t-11.5 4t-11.5 -4t-4.5 -12v-54h-75q-11 0 -20.5 -6.5t-13.5 -17.5l-73 -205l-4 -8l10 -14v-181q0 -16 11.5 -27t26.5 -11h26q6 -40 36.5 -67.5t72.5 -27.5t71.5 27t37.5 68h380q6 -40 36.5 -67.5 t72.5 -27.5t72 27t37 68h45q12 0 19.5 8t7.5 20v506q0 28 -19 47.5t-45 19.5zM138 629l2 2l1 1h206v-187h-277l68 184v0zM214 133q-32 0 -55 23t-23 55q0 33 23 56t55 23q33 0 56 -23t23 -56q0 -32 -23.5 -55t-55.5 -23zM323 226q-5 40 -36 68t-73 28t-72 -28t-36 -68h-26 q-2 0 -4 2t-2 4v181h273v-187h-24v0zM811 133q-32 0 -55 23t-23 55q0 33 23 56t55 23q31 0 53.5 -22t23.5 -52v-10q-1 -31 -23.5 -52t-53.5 -21v0zM960 226h-40q-5 40 -36 68t-73 28t-72.5 -28t-36.5 -68h-323v502q0 14 9.5 24.5t21.5 10.5h518q13 0 22.5 -10.5t9.5 -24.5 v-502zM757 533h-72v72q0 7 -4.5 11.5t-11.5 4.5t-11.5 -4.5t-4.5 -11.5v-72h-72q-7 0 -11.5 -4.5t-4.5 -11.5t4.5 -11.5t11.5 -4.5h72v-72q0 -7 4.5 -11.5t11.5 -4.5t11.5 4.5t4.5 11.5v72h72q7 0 11.5 4.5t4.5 11.5t-4.5 11.5t-11.5 4.5z" />
</svg>