<svg viewBox="0 0 256 256" xmlns="http://www.w3.org/2000/svg">
  <path transform="scale(1, -1) translate(0, -256)" fill="currentColor" d="M232 218h-130q-7 0 -12.5 -5.5t-5.5 -14.5v-13h-19v11q0 3 -2 5t-5 2t-5.5 -2t-2.5 -5v-11h-15q-4 0 -7 -2t-4 -6l-20 -55l3 -4v-44q0 -5 4 -9t9 -4h4q2 -10 10.5 -16.5t19 -6.5t19 6.5t10.5 16.5h91q2 -10 10 -16.5t19 -6.5t19 6.5t11 16.5h9q4 0 7 3t3 7v127 q-1 8 -6.5 14t-13.5 6zM37 171h47v-41h-62zM54 52q-7 0 -12 5t-5 12t5 12t11.5 5t11.5 -5t5 -12t-5 -12t-11 -5zM54 100q-11 0 -19.5 -7t-10.5 -17h-3v40h63v-40h-1q-2 10 -10.5 17t-18.5 7zM203 52q-7 0 -12 5t-5 12t5 12t12 5t11.5 -5t4.5 -12t-4.5 -12t-11.5 -5zM237 76 h-4q-3 10 -11 17t-19 7t-19 -7t-10 -17h-76v122q0 3 1.5 4.5t3.5 1.5h129q2 0 3.5 -2t1.5 -4v-122zM189 152h-15v15q0 3 -2 5t-5 2t-5 -2t-2 -5v-15h-15q-3 0 -5 -2t-2 -5t2 -5t5 -2h15v-15q0 -3 2 -5t5 -2t5 2t2 5v15h15q3 0 5 2t2 5t-2 5t-5 2z" />
</svg>