<svg viewBox="0 0 1024 1024" xmlns="http://www.w3.org/2000/svg">
  <path transform="scale(1, -1) translate(0, -960)" fill="currentColor" d="M925 747h-397v56q0 7 -4.5 11.5t-11.5 4.5t-11.5 -4.5t-4.5 -11.5v-56h-117q-72 0 -136 -31t-109 -89l-88 -112q-7 -8 -10.5 -19.5t-3.5 -21.5v-167q0 -27 20 -47t47 -20h69q-7 -12 -10.5 -26t-3.5 -28q0 -46 32 -77.5t76 -31.5q46 0 77.5 32t31.5 77q0 14 -3.5 28 t-10.5 26h315q-7 -12 -10.5 -26t-3.5 -28q0 -46 32 -77.5t76 -31.5q45 0 77 32t32 77q0 14 -3.5 28t-10.5 26h64q27 0 47 20t20 47v373q0 28 -20 47.5t-47 19.5v0zM160 608q36 46 86 73t106 33q0 -2 -1 -3t-1 -2v-202h-268l78 101v0zM262 109q-32 0 -54 22.5t-22 54.5 q0 31 22.5 53.5t53.5 22.5q32 0 54.5 -22.5t22.5 -53.5q0 -32 -22 -54.5t-55 -22.5zM766 109q-32 0 -54 22.5t-22 54.5q0 31 22.5 53.5t53.5 22.5q32 0 54.5 -22.5t22.5 -53.5q0 -32 -22 -54.5t-55 -22.5zM960 307q0 -14 -10.5 -24.5t-24.5 -10.5h-91q-15 11 -31.5 16.5 t-36.5 5.5q-19 0 -35.5 -5.5t-31.5 -16.5h-369q-15 11 -31.5 16.5t-36.5 5.5q-19 0 -35.5 -5.5t-31.5 -16.5h-96q-14 0 -24.5 10.5t-10.5 24.5v167v0.5v0.5v0h2h300q8 0 12 4.5t4 11.5v218v3t-1 3h544q14 0 24.5 -10.5t10.5 -24.5v-373v0zM776 509h-75v75q0 7 -4.5 11.5 t-11.5 4.5t-11.5 -4.5t-4.5 -11.5v-75h-75q-8 0 -12 -4.5t-4 -11.5t4 -11.5t12 -4.5h75v-75q0 -8 4.5 -12t11.5 -4t11.5 4t4.5 12v75h75q7 0 11.5 4.5t4.5 11.5t-4.5 11.5t-11.5 4.5z" />
</svg>