<svg viewBox="0 0 1024 1024" xmlns="http://www.w3.org/2000/svg">
  <path transform="scale(1, -1) translate(0, -960)" fill="currentColor" d="M973 536l-175 203q-12 13 -28 21t-34 8h-622q-34 0 -58 -24t-24 -59v-394q0 -33 24 -57t58 -24h38q6 -34 33 -57t61 -23q35 0 62.5 23t32.5 57h363q6 -34 33 -57t61 -23q35 0 62.5 23t32.5 57h16q33 0 57 24t24 57v192q2 15 -3 28.5t-14 24.5zM248 160q-26 0 -45 19 t-19 45t19 45t45 19t45 -19t19 -45t-19 -45t-45 -19zM798 160q-26 0 -45 19t-19 45t19 45t45 19q27 0 45.5 -19t18.5 -45t-18 -45t-46 -19zM960 291q0 -20 -14.5 -34.5t-35.5 -14.5h-16q-6 34 -32.5 57t-61.5 23t-62.5 -23.5t-31.5 -56.5h-362q-6 34 -33 57t-61 23 q-35 0 -62.5 -23.5t-32.5 -56.5h-41q-21 0 -35.5 14.5t-14.5 34.5v394q0 21 14.5 36t35.5 15h622q11 0 21 -4.5t17 -13.5l175 -203q6 -7 9.5 -15t3.5 -17v-192h-2zM437 547h-77v77q0 7 -4.5 11.5t-11.5 4.5t-11.5 -4.5t-4.5 -11.5v-77h-77q-7 0 -11.5 -4.5t-4.5 -11.5 t4.5 -11.5t11.5 -4.5h77v-77q0 -7 4.5 -11.5t11.5 -4.5t11.5 4.5t4.5 11.5v77h77q7 0 11.5 4.5t4.5 11.5t-5 11.5t-11 4.5zM832 493h-72q-20 0 -35 14.5t-15 34.5v85q0 7 -4 11.5t-12 4.5q-7 0 -11.5 -4.5t-4.5 -11.5v-85q0 -33 24 -57t58 -24h72q7 0 11.5 4.5t4.5 11.5 t-5 11.5t-11 4.5v0z" />
</svg>