<svg viewBox="0 0 1024 1024" xmlns="http://www.w3.org/2000/svg">
  <path transform="scale(1, -1) translate(0, -960)" fill="currentColor" d="M922 747h-599v56q0 7 -4.5 11.5t-11.5 4.5t-11.5 -4.5t-4.5 -11.5v-56h-32q-14 0 -27 -5.5t-24 -15.5l-157 -160q-9 -10 -14 -23t-5 -26v-205q0 -30 21 -51t49 -21h66q-7 -12 -10.5 -26t-3.5 -28q0 -46 32 -77.5t76 -31.5q46 0 77.5 32t31.5 77q0 14 -3.5 28t-10.5 26 h315q-7 -12 -10.5 -26t-3.5 -28q0 -46 32 -77.5t76 -31.5q45 0 77 32t32 77q0 14 -3.5 28t-10.5 26h59q29 0 49.5 21t20.5 49v365q2 30 -19 51t-49 21zM262 109q-32 0 -54 22.5t-22 54.5q0 31 22.5 53.5t53.5 22.5q32 0 54.5 -22.5t22.5 -53.5q0 -32 -22 -54.5t-55 -22.5z M766 109q-32 0 -54 22.5t-22 54.5q0 31 22.5 53.5t53.5 22.5q32 0 54.5 -22.5t22.5 -53.5q0 -32 -22 -54.5t-55 -22.5zM960 310q0 -15 -11.5 -26.5t-26.5 -11.5h-88q-15 11 -31.5 16.5t-36.5 5.5q-19 0 -35.5 -5.5t-31.5 -16.5h-369q-15 11 -31.5 16.5t-36.5 5.5 q-19 0 -35.5 -5.5t-31.5 -16.5h-93q-15 0 -26.5 11.5t-11.5 26.5v207q0 7 2.5 14t8.5 13l157 160q6 6 13 8.5t14 2.5h663q15 0 26.5 -11.5t11.5 -26.5v-367v0zM603 509h-75v75q0 7 -4.5 11.5t-11.5 4.5t-11.5 -4.5t-4.5 -11.5v-75h-75q-7 0 -11.5 -4.5t-4.5 -11.5t4.5 -11.5 t11.5 -4.5h75v-75q0 -8 4.5 -12t11.5 -4t11.5 4t4.5 12v75h75q7 0 11.5 4.5t4.5 11.5t-4.5 11.5t-11.5 4.5z" />
</svg>