<svg viewBox="0 0 256 256" xmlns="http://www.w3.org/2000/svg">
  <path transform="scale(1, -1) translate(0, -256)" fill="currentColor" d="M230 206h-146v11q0 3 -2.5 5t-5.5 2t-5 -2t-2 -5v-11h-5q-8 0 -14 -7l-40 -40q-6 -6 -6 -14v-51q0 -9 6.5 -15t14.5 -6h12q-2 -6 -2 -11q0 -12 9 -21t21.5 -9t21.5 9t9 21q0 5 -2 11h69q-2 -6 -2 -11q0 -12 9 -21t21.5 -9t21.5 9t9 21q0 5 -2 11h10q8 0 14.5 6t6.5 15v91 q0 8 -6 14.5t-15 6.5zM66 46q-7 0 -12 5t-5 12t5 11.5t12 4.5t11.5 -4.5t4.5 -11.5t-4.5 -12t-11.5 -5zM192 46q-7 0 -12 5t-5 12t5 11.5t11.5 4.5t11.5 -4.5t5 -11.5t-4.5 -12t-11.5 -5zM237 94q0 -3 -2 -5t-5 -2h-20q-8 5 -18 5t-18 -5h-91q-7 5 -17.5 5t-17.5 -5h-22 q-3 0 -5 2t-2 5v51q0 2 2 5l39 40q2 2 5 2h165q3 0 5 -2t2 -5v-91zM151 146h-16v16q0 3 -2 5.5t-5 2.5t-5.5 -2.5t-2.5 -5.5v-16h-16q-3 0 -5 -2t-2 -5t2 -5t5 -2h16v-16q0 -3 2.5 -5t5.5 -2t5 2t2 5v16h16q3 0 5 2t2 5t-2 5t-5 2z" />
</svg>