<svg viewBox="0 0 256 256" xmlns="http://www.w3.org/2000/svg">
  <path transform="scale(1, -1) translate(0, -256)" fill="currentColor" d="M231 200h-206q-10 0 -17 -7.5t-7 -16.5v-95q0 -10 7 -17t17 -7h206q10 0 17 7t7 17v95q0 9 -7 16.5t-17 7.5zM241 80q0 -4 -3 -7t-7 -3h-206q-4 0 -7 3t-3 7v96q0 4 3 7t7 3h206q4 0 7 -3t3 -7v-96zM108 114l-12 41h-15v-50l-13 50h-16l-13 -53h8l3 11h20l3 -11h17v43h1 l13 -41h8l12 41h2v-43h8v53h-14zM52 120l6 27h4l6 -27h-16zM208 155l-12 -21l-11 21h-43v-53h44l10 20l12 -20h9l-15 26l15 27h-9zM180 110h-30v15h20v7h-20v14h30l11 -19z" />
</svg>