<svg viewBox="0 0 1024 1024" xmlns="http://www.w3.org/2000/svg">
  <path transform="scale(1, -1) translate(0, -960)" fill="currentColor" d="M928 928h-832q-26 0 -45 -19t-19 -45v-832q0 -26 19 -45t45 -19h832q26 0 45 19t19 45v832q0 26 -19 45t-45 19zM960 32q0 -13 -9.5 -22.5t-22.5 -9.5h-832q-13 0 -22.5 9.5t-9.5 22.5v312l154 131q10 -8 22.5 -13.5t26.5 -5.5q22 0 39.5 11t27.5 27l96 -57q-2 -6 -3 -13 t-1 -14q0 -33 23 -56t55 -23t55 23t23 56v6t-1 6l133 122q10 -11 25 -17.5t32 -6.5q33 0 56 23t23 55q0 33 -23 56t-56 23q-32 0 -55 -23t-23 -56q0 -7 1 -13t4 -12l-128 -119q-11 16 -28.5 26t-37.5 10q-17 0 -31 -7t-25 -17l-101 60q0 3 1 5.5t1 4.5q0 32 -23 55t-56 23 q-32 0 -55 -23t-23 -55q0 -10 2 -18.5t6 -16.5l-136 -115v478q0 13 9.5 22.5t22.5 9.5h832q13 0 22.5 -9.5t9.5 -22.5v-832v0zM269 488q-19 0 -33 13.5t-14 32.5q0 20 14 33.5t33 13.5t32.5 -13.5t13.5 -33.5q0 -19 -13.5 -32.5t-32.5 -13.5zM550 408q0 -19 -13.5 -32.5 t-32.5 -13.5t-32.5 13.5t-13.5 32.5t13.5 32.5t32.5 13.5t32.5 -13t13.5 -33zM725 597q0 19 13.5 32.5t32.5 13.5t33 -13.5t14 -32.5t-14 -33t-33 -14t-32.5 14t-13.5 33z" />
</svg>