<svg viewBox="0 0 1024 1024" xmlns="http://www.w3.org/2000/svg">
  <path transform="scale(1, -1) translate(0, -960)" fill="currentColor" d="M910 840h-796q-34 0 -58 -24t-24 -58v-438q0 -34 24 -58t58 -24h36v-144q0 -12 7 -21.5t19 -13.5q4 -1 6.5 -1h6.5q8 0 16 3.5t14 10.5l133 166h558q34 0 58 24t24 58v438q0 34 -24 58t-58 24v0zM960 320q0 -20 -14.5 -35t-35.5 -15h-566q-4 0 -7 -1t-6 -5l-137 -173 q-2 -2 -4 -2.5t-3 1.5q-1 0 -3 1t-2 5v160q0 7 -4 11.5t-12 4.5h-52q-21 -1 -35.5 13.5t-14.5 34.5v438q0 21 14.5 35.5t35.5 14.5h795q20 0 34.5 -14.5t14.5 -35.5v-438h2zM696 443h-45v245q0 7 -4.5 11.5t-11.5 4.5t-11.5 -4.5t-4.5 -11.5v-243h-97v203q0 7 -4.5 11.5 t-11.5 4.5q-8 0 -12 -4.5t-4 -11.5v-205h-98v141q0 7 -4.5 11.5t-11.5 4.5t-11.5 -4.5t-4.5 -11.5v-141h-32q-7 0 -11.5 -4.5t-4.5 -11.5t4.5 -11.5t11.5 -4.5h370q7 0 11.5 4.5t4.5 11.5q-2 7 -6.5 11.5t-11.5 4.5z" />
</svg>