<svg viewBox="0 0 1024 1024" xmlns="http://www.w3.org/2000/svg">
  <path transform="scale(1, -1) translate(0, -960)" fill="currentColor" d="M987 -5l-273 274l-4 2t-3 1q51 54 77.5 122.5t26.5 143.5q0 78 -29 149t-84 126q-57 56 -128 85.5t-149 29.5t-149 -29t-126 -85q-56 -55 -85 -126t-29 -149t29 -149t85 -126q55 -55 126 -84.5t149 -29.5q74 0 142.5 27t122.5 77q0 -2 1 -3.5t3 -2.5l273 -274q3 -2 6 -3 t5 -1q3 0 6 1t6 3q2 3 4 9.5t-3 11.5v0zM421 181q-72 0 -137.5 26.5t-115.5 77.5q-50 50 -77 116t-27 138t27 137.5t77 115.5t116 77t137 27q72 0 137 -27t116 -77q50 -50 77 -115.5t27 -137.5t-27 -137t-77 -116q-51 -50 -116 -77.5t-137 -27.5v0zM382 736q-50 1 -77 -32.5 t-33 -57.5q-1 -6 2 -12t9 -7h2.5h2.5q5 0 9.5 3.5t6.5 7.5l17 34.5t61 33.5q8 0 12 4t4 12q0 4 -5 8.5t-11 5.5zM603 640q-2 0 -35 17t-32 61q0 8 -4.5 12t-11.5 4q-6 0 -11 -4t-5 -12q-1 -50 32.5 -77t57.5 -33h2h2q5 0 9.5 3t6.5 8q3 7 -0.5 13.5t-10.5 7.5v0zM203 474 q-6 -4 -7.5 -10.5t1.5 -12.5t9.5 -7.5t12.5 1.5l36.5 12t66.5 -20q2 -3 5 -4t6 -1q2 0 5.5 1t5.5 4q5 5 5 11t-5 11q-34 36 -76.5 31.5t-64.5 -16.5zM579 411q-6 1 -12 -2t-7 -9l-17 -33.5t-61 -33.5q-8 0 -12 -4.5t-4 -11.5t4 -11.5t12 -4.5h1.5h1.5q49 0 75 33.5t32 55.5 q1 8 -2.5 13.5t-10.5 7.5v0z" />
</svg>