<svg viewBox="0 0 256 256" xmlns="http://www.w3.org/2000/svg">
  <path transform="scale(1, -1) translate(0, -256)" fill="currentColor" d="M228 229h-200q-9 0 -16 -7t-7 -17v-109q0 -10 7 -17t16 -7h6v-32q0 -9 9 -12q2 -1 4 -1q6 0 9 5l33 40h138q9 0 16 7t7 17v110q1 9 -6 16t-16 7zM237 96q0 -4 -2.5 -7t-6.5 -3h-142q-3 0 -6 -2l-31 -40v35q0 3 -2 5t-5 2h-14q-4 0 -6.5 3t-2.5 7v110q0 4 3 6.5t6 2.5h199 q4 0 7 -2.5t3 -6.5v-110zM174 130h-8v58q0 3 -2.5 5t-5 2t-4.5 -2t-2 -5v-58h-18v48q0 3 -2.5 5t-5.5 2t-5 -2t-2 -5v-48h-18v32q0 3 -2 5t-5 2t-5.5 -2t-2.5 -5v-32h-5q-3 0 -5 -2.5t-2 -5.5t2 -5t5 -2h93q3 0 5 2t2 5.5t-2 5.5t-5 2z" />
</svg>