<svg viewBox="0 0 256 256" xmlns="http://www.w3.org/2000/svg">
  <path transform="scale(1, -1) translate(0, -256)" fill="currentColor" d="M232 251h-208q-8 0 -13.5 -5.5t-5.5 -13.5v-208q0 -8 5.5 -13.5t13.5 -5.5h208q8 0 14 5.5t6 13.5v208q-1 8 -6.5 13.5t-13.5 5.5zM237 24q0 -2 -1.5 -3.5t-3.5 -1.5h-208q-2 0 -3.5 1.5t-1.5 3.5v76l35 30q6 -3 13 -3q11 0 17 8l20 -11l-1 -6q0 -9 6.5 -15.5t16.5 -6.5 t16.5 6.5t6.5 15.5v2l30 28q6 -5 15 -5t15.5 6.5t6.5 16t-7 16t-16.5 6.5t-16 -6.5t-6.5 -16.5q0 -2 1 -5l-29 -26q-6 7 -16 7q-8 0 -15 -5l-21 13v1q0 9 -7 15.5t-16.5 6.5t-16 -6.5t-6.5 -15.5q0 -5 2 -8l-27 -23v113q0 2 1.5 3.5t3.5 1.5h208q2 0 3.5 -1.5t1.5 -3.5v-208 zM67 141q-3 0 -6 2.5t-3 6t3 6t6.5 2.5t6 -2.5t2.5 -6t-2.5 -6t-6.5 -2.5zM135 118q0 -4 -2.5 -6.5t-6.5 -2.5t-6.5 2.5t-2.5 6.5t2.5 6.5t6.5 2.5t6.5 -2.5t2.5 -6.5zM184 165q0 4 2.5 6.5t6 2.5t6.5 -2.5t3 -6t-3 -6.5t-6.5 -3t-6 3t-2.5 6z" />
</svg>