<svg viewBox="0 0 256 256" xmlns="http://www.w3.org/2000/svg">
  <path transform="scale(1, -1) translate(0, -256)" fill="currentColor" d="M249 17l-68 68q25 28 25 66q0 20 -7.5 38t-22 32.5t-32.5 22t-38 7.5t-38.5 -7.5t-32.5 -22t-21.5 -32.5t-7.5 -38t7.5 -38.5t21.5 -32.5t32.5 -21.5t37.5 -7.5t36 6.5t31 18.5l68 -68q2 -2 4.5 -2t4.5 1.5t2 4.5t-2 5zM105 64q-17 0 -33 6.5t-28 19t-18.5 28t-6.5 33 t6.5 33.5t18.5 28t28 18.5t33.5 6.5t33 -6.5t28 -18.5t19 -28t6.5 -33.5t-6.5 -33t-19 -28t-28 -19t-33.5 -6.5zM96 203q-13 0 -22 -9q-7 -7 -9 -16q-1 -3 0.5 -5.5t4.5 -2.5l2 -1q2 0 4 1.5t2 3.5l2 4q2 5 6 8t9 3q3 0 5 2t2 5t-1.5 5t-4.5 2zM152 179q-1 0 -5 2t-7 5.5 t-3 9.5q0 3 -2 5t-5 2t-5 -2t-2 -5q0 -13 9 -22q7 -6 16 -9h2q2 0 4 1.5t2.5 4t-0.5 5t-4 3.5zM50 137q-3 -2 -3.5 -4.5t1 -5t4 -3.5t5.5 1l4 1q4 2 9 1.5t9 -4.5q2 -2 5 -2t5 2t2 5t-2 5q-9 9 -22 9q-9 -1 -17 -5zM146 122q-3 0 -5.5 -1t-3.5 -4l-1 -4q-2 -4 -5.5 -7.5 t-9.5 -3.5v0q-3 0 -5 -2t-2 -4.5t1.5 -5t4.5 -2.5h1q12 0 21 10q6 6 9 15q0 3 -1 5.5t-4 3.5z" />
</svg>