<svg viewBox="0 0 256 256" xmlns="http://www.w3.org/2000/svg">
  <path transform="scale(1, -1) translate(0, -256)" fill="currentColor" d="M217 71l-19 15q-3 2 -7 2t-7 -2l-19 -15q-3 -2 -3 -4.5t1.5 -5t4.5 -3t6 1.5l10 8q-2 -19 -16 -32.5t-34 -16.5v136h26q3 0 5 2t2 5t-2 5t-5 2h-26v19q11 3 18 11.5t7 20.5t-9 21.5t-22 9.5t-22.5 -9.5t-9.5 -21.5t7 -20.5t18 -11.5v-19h-25q-3 0 -5.5 -2t-2.5 -5t2.5 -5 t5.5 -2h25v-136q-20 3 -34 16.5t-15 32.5l10 -9q2 -1 5 -1t5 2.5t2 5.5t-3 4l-19 16q-3 2 -7 2t-7 -2l-19 -15q-3 -2 -3 -5t1.5 -5.5t4.5 -2.5t6 2l9 7q1 -17 11 -31.5t25.5 -23t34 -8.5t34.5 8.5t25.5 23t10.5 31.5l10 -8q2 -2 5 -2t5 3t1.5 6t-2.5 5zM110 219q0 8 5 13 t12.5 5t12.5 -5.5t5 -12.5t-5.5 -12t-12.5 -5t-12 5t-5 12z" />
</svg>