<svg viewBox="0 0 1024 1024" xmlns="http://www.w3.org/2000/svg">
  <path transform="scale(1, -1) translate(0, -960)" fill="currentColor" d="M861 194l-77 60q-10 8 -21.5 8t-20.5 -8l-75 -59q-5 -3 -6 -10t3 -12t11 -6t11 3l61 48q-1 -44 -19 -82q-17 -38 -47 -67t-70 -47t-86 -20v568h112q7 0 11.5 4t4.5 12q0 7 -4.5 11.5t-11.5 4.5h-112v99q42 6 70.5 38t28.5 75q0 48 -33.5 82t-81.5 34t-81.5 -34t-33.5 -82 q0 -43 28.5 -75t70.5 -38v-99h-112q-7 0 -11.5 -4.5t-4.5 -11.5q0 -8 4.5 -12t11.5 -4h112v-568q-46 3 -86 21q-41 18 -70.5 47t-47.5 68q-17 38 -19 81l64 -49q3 -2 5.5 -3t4.5 -1q4 0 7 1.5t6 5.5q3 5 3 12t-6 10l-77 61q-10 7 -21.5 7t-20.5 -7l-75 -59q-5 -4 -6 -11 t3 -12q3 -4 10 -5t12 2l58 45q3 -52 25 -97q23 -45 59.5 -78.5t85.5 -53.5q48 -19 103 -19q56 0 104 19q49 20 85.5 53.5t58.5 78.5t23 97l61 -48q2 -1 4.5 -2t4.5 -1q4 0 7.5 1.5t5.5 4.5q4 5 3 11.5t-6 11.5v0zM427 813q0 35 24.5 59t58.5 24q35 0 59.5 -24t24.5 -59 t-24.5 -59t-59.5 -24q-34 0 -58.5 24t-24.5 59v0z" />
</svg>