<svg viewBox="0 0 256 256" xmlns="http://www.w3.org/2000/svg">
  <path transform="scale(1, -1) translate(0, -256)" fill="currentColor" d="M100 206q0 -3 2 -5t4.5 -2t4.5 2t2 4.5t-2 4.5t-4.5 2t-4.5 -2t-2 -4zM141 206q0 -3 2 -5t4.5 -2t4.5 2t2 4.5t-2 4.5t-4.5 2t-4.5 -2t-2 -4zM218 184q-4 0 -9 -2l-1 2q-8 24 -27 39l19 20q2 2 2 5t-2 5t-5 2t-5 -2l-21 -21q-18 10 -40 10t-41 -10l-20 21q-2 2 -5 2 t-5.5 -2t-2 -5t2.5 -5l18 -19q-19 -15 -27 -40l-1 -1q-4 3 -10 3q-11 0 -18 -7.5t-7 -17.5v-46q0 -10 7 -17.5t18 -7.5q6 0 10 3v-29q0 -4 2.5 -6.5t6.5 -2.5h7v-29q0 -11 7.5 -18t17.5 -7t17.5 7t7.5 18v29h25v-29q0 -11 7 -18t17.5 -7t17.5 7t7 18v29h10q4 0 6.5 2.5 t2.5 6.5v27q5 -2 11 -2q10 0 17.5 7t7.5 18v45q0 10 -7 17.5t-18 7.5zM128 228q20 0 37 -10.5t26 -28.5h-125q8 18 25 28.5t37 10.5zM38 104q-5 0 -8 3t-3 8v45q0 5 3 8t7.5 3t7.5 -3t3 -8v-45q0 -4 -3 -7.5t-7 -3.5zM100 26q0 -5 -3 -8t-7.5 -3t-7.5 3.5t-3 7.5v29h21v-29z M175 26q0 -5 -3.5 -8t-7.5 -3t-7.5 3.5t-3.5 7.5v29h22v-29zM194 69h-132v106h131v-106h1zM229 113q0 -4 -3 -7.5t-7.5 -3.5t-7.5 3.5t-3 7.5v46q0 4 3 7.5t7.5 3.5t7.5 -3.5t3 -7.5v-46z" />
</svg>