<svg viewBox="0 0 256 256" xmlns="http://www.w3.org/2000/svg">
  <path transform="scale(1, -1) translate(0, -256)" fill="currentColor" d="M59 70q0 -7 5 -12t12 -5h11v-34q0 -6 4.5 -10.5t10.5 -4.5t10.5 4.5t4.5 10.5v34h21v-34q0 -6 4.5 -10.5t10.5 -4.5t10.5 4.5t4.5 10.5v34h11q7 0 12 5t5 12v98h-137v-98zM162 229l10 19q1 2 0 3l-1 1q-2 0 -2 -1l-11 -20q-13 6 -28 6t-30 -6l-11 20q0 1 -1 1t-2 -0.5 t-1 -1.5t1 -2l11 -19q-17 -8 -26.5 -22.5t-9.5 -32.5h137q-1 17 -10.5 31.5t-25.5 23.5zM96 199q-2 0 -3.5 1.5t-1.5 4t1.5 4t3.5 1.5t4 -2t2 -4t-1.5 -3.5t-4.5 -1.5zM160 199q-2 0 -4 1.5t-2 4t2 4t4 1.5t3.5 -2t1.5 -4t-1.5 -3.5t-3.5 -1.5zM38 171q-6 0 -10.5 -4.5 t-4.5 -10.5v-64q0 -6 4.5 -10.5t11 -4.5t11 4.5t4.5 10.5v64q0 6 -4.5 10.5t-11.5 4.5zM218 171q-7 0 -11.5 -4.5t-4.5 -10.5v-64q0 -6 4.5 -10.5t11 -4.5t11 4.5t4.5 10.5v64q0 7 -4.5 11t-10.5 4z" />
</svg>