<svg viewBox="0 0 1024 1024" xmlns="http://www.w3.org/2000/svg">
  <path transform="scale(1, -1) translate(0, -960)" fill="currentColor" d="M237 216q0 -28 19 -47.5t48 -19.5h43v-136q0 -25 18 -43t43 -18t43 18t18 43v136h81v-136q0 -25 18 -43t43 -18t43 18t18 43v136h43q28 0 47.5 19t19.5 48v394h-545v-394v0zM648 851l42 77q1 4 0.5 7t-2.5 4q-2 4 -3.5 4.5l-1.5 0.5q-1 0 -3.5 -1t-2.5 -4l-43 -78 q-28 12 -57.5 18t-59.5 6q-33 0 -62 -6.5t-55 -17.5l-43 78q-1 4 -4.5 4.5t-6.5 -2.5q-4 -1 -5 -4.5t3 -6.5l43 -77q-67 -34 -105.5 -92t-38.5 -129h547q-2 72 -42 129.5t-100 89.5v0zM386 731q-9 0 -16 7t-7 16q0 8 7 15t16 7q8 0 15 -7t7 -15q0 -9 -6 -16t-16 -7zM638 731 q-8 0 -15 7t-7 16q0 8 7 15t15 7q9 0 16 -7t7 -15q0 -9 -6.5 -16t-16.5 -7zM154 621q-26 0 -43.5 -18t-17.5 -43v-254q0 -26 17.5 -43.5t43.5 -17.5q25 0 42.5 17.5t17.5 43.5v254q2 26 -16.5 43.5t-43.5 17.5v0zM870 621q-25 0 -42.5 -18t-17.5 -43v-254q0 -26 17.5 -43.5 t42.5 -17.5q26 0 43.5 17.5t17.5 43.5v254q0 26 -17.5 43.5t-43.5 17.5z" />
</svg>