<svg viewBox="0 0 1024 1024" xmlns="http://www.w3.org/2000/svg">
  <path transform="scale(1, -1) translate(0, -960)" fill="currentColor" d="M750 530q9 23 24 65q14 42 28.5 87.5t25.5 86.5q10 41 10 63q0 38 -22.5 66t-63.5 28q-32 0 -63 -40q-30 -41 -54.5 -94t-43.5 -105q-18 -52 -26 -76q-8 21 -27 76q-18 54 -43.5 111.5t-54.5 101.5q-30 44 -59 44q-46 0 -67 -29.5t-21 -71.5q0 -25 10 -68 q11 -42 25.5 -88.5t29.5 -88.5q15 -43 24 -68q-8 3 -18 4.5t-20 1.5q-34 0 -63.5 -33.5t-29.5 -67.5q0 -13 5.5 -29.5t10.5 -26.5q-54 -15 -76.5 -49.5t-22.5 -89.5q0 -52 23 -103q24 -52 66 -92.5t101 -65.5q58 -25 128 -25q86 0 154 30t116 83t74 124q26 72 26 155 q-2 63 -19.5 113.5t-86.5 70.5v0zM682 734q4 17 26 71t46 54q13 0 17.5 -10.5t4.5 -21.5q0 -14 -12 -53q-12 -40 -28 -86t-30 -87q-15 -42 -20 -60l-65 11l61 182v0zM354 851q0 17 21 30.5t68 -119.5l66 -194q-24 1 -41 2.5t-26 -4.5q-8 20 -23 59t-29.5 82.5t-25.5 82.5 q-10 40 -10 61v0v0zM349 474q21 0 44 -29t42.5 -65.5t31.5 -70.5q13 -34 13 -43q0 -8 -6 -15.5t-15 -7.5q-15 0 -40 24t-49 55.5t-42 63.5q-18 31 -18 46q0 11 13.5 26.5t25.5 15.5v0v0zM704 112q-42 -46 -95.5 -70t-115.5 -24q-87 0 -151.5 44.5t-96.5 124.5 q-24 63 -4.5 97t44.5 34q17 0 61 -60.5t44 -78.5q0 -7 -8.5 -11.5t-13.5 -4.5q-24 0 -40.5 23.5t-58.5 75.5q-21 -21 -16 -50q4 -29 23.5 -55.5t48.5 -45.5q29 -18 56 -18q38 0 59.5 28t13.5 53q5 0 11.5 0.5t11.5 1.5q1 -38 17 -77t64 -43q0 1 2.5 7l2.5 6q0 25 -10.5 48 t-10.5 49q0 41 27 79t60 61q12 8 25 13.5t26 10.5q13 4 27.5 11.5t23.5 16.5q-1 17 -8.5 28.5t-23.5 11.5q-21 1 -60 2q-40 0 -79 7t-68 23q-30 16 -30 47q0 8 4.5 16.5t29.5 8.5q23 0 61 -3t78 -9.5t76 -17.5t54 -26q13 -10 20 -46q7 -37 2.5 -86t-23.5 -103 q-20 -54 -60 -99v0v0zM515 358q13 -4 28 -5.5t28 -5.5q-9 -8 -19.5 -17t-18.5 -20q-5 11 -9.5 22.5t-8.5 25.5z" />
</svg>