<svg viewBox="0 0 256 256" xmlns="http://www.w3.org/2000/svg">
  <path transform="scale(1, -1) translate(0, -256)" fill="currentColor" d="M188 148v1q22 61 22 75q0 10 -6 17t-16 7q-13 0 -27 -29q-8 -16 -18 -45l-2 -5l-2 7q-11 30 -19 46q-14 30 -25 30t-16.5 -7t-5.5 -18q0 -16 22 -76l1 -3q-4 2 -10 2q-8 0 -15.5 -8.5t-7.5 -16.5q0 -6 4 -14q-13 -4 -19 -12.5t-6 -22.5q0 -18 10.5 -34.5t28.5 -27 t41 -10.5q27 0 48 13t32.5 35.5t11.5 49.5q-1 20 -5 29q-6 13 -21 17zM170 200q3 9 7 17q6 14 11.5 14t5.5 -7t-15 -49l-7 -24l-17 3zM88 229q0 4 3 6.5t8 -3.5t12 -26l16 -48h-5q-9 1 -12 0q-7 18 -13 35q-9 27 -9 36zM87 134q7 0 15 -12q7 -9 12.5 -22.5t5.5 -16.5 t-1.5 -4.5t-3.5 -1.5q-5 0 -14 9.5t-16 21t-7 15.5t3 7.5t6 3.5zM176 44q-22 -24 -53 -24q-21 0 -37.5 11.5t-24.5 31.5q-4 10 -3 17t5 11.5t8 4.5t15.5 -15.5t11.5 -19.5q0 -2 -2 -3t-4 -1q-4 0 -7 2.5t-9 11.5l-9 11q-6 -7 -2.5 -17t12.5 -18t18 -8t15 7t4 14h5 q1 -12 5 -19q5 -10 16 -11l1 3q0 4 -2.5 12t-2.5 13q0 9 6 18.5t15 15.5q4 3 13 6.5t13 7.5q-1 10 -8 10h-5q-22 0 -34 2q-20 5 -20 17q0 3 1 5t7 2q15 0 35 -4q24 -4 32 -10q5 -4 6 -19t-3 -32q-6 -19 -18 -33zM129 106q2 -1 8 -2l6 -1l-2 -2q-6 -4 -8 -7q-3 7 -4 12z" />
</svg>