<svg viewBox="0 0 1024 1024" xmlns="http://www.w3.org/2000/svg">
  <path transform="scale(1, -1) translate(0, -960)" fill="currentColor" d="M571 502l-398 421q-5 5 -11.5 5t-11.5 -5q-4 -5 -4 -11t4 -11l397 -421q11 -12 11 -29.5t-11 -28.5l-398 -425q-5 -5 -5 -11.5t5 -11.5q2 -2 4.5 -3t6.5 -1t6.5 1t4.5 3l400 426q19 20 19 50.5t-19 51.5zM859 501l-398 421q-5 4 -11.5 4t-11.5 -4q-4 -5 -4 -11.5t4 -11.5 l399 -421q11 -12 11 -29t-11 -28l-400 -426q-5 -5 -5 -11t5 -11q2 -3 4.5 -4t6.5 -1t6.5 1t4.5 4l399 425q21 22 21.5 51.5t-20.5 51.5v0z" />
</svg>