<svg viewBox="0 0 1024 1024" xmlns="http://www.w3.org/2000/svg">
  <path transform="scale(1, -1) translate(0, -960)" fill="currentColor" d="M61 373l421 398q12 11 29 11t28 -11l426 -398q2 -3 4.5 -4t6.5 -1t6.5 1t4.5 4q5 5 5 11t-5 11l-425 400q-22 21 -51.5 20t-51.5 -20l-421 -398q-4 -5 -4 -11.5t4 -11.5q5 -4 11.5 -4.5t11.5 3.5v0zM560 507q-22 21 -51.5 20t-50.5 -20l-421 -398q-5 -5 -5 -11.5t5 -11.5 q2 -3 4.5 -4.5t6.5 -1.5q2 0 5.5 1t5.5 4l421 398q12 11 29.5 11t28.5 -11l425 -398q5 -5 11.5 -5t11.5 5q4 5 4 11t-4 11l-426 400v0z" />
</svg>