<svg viewBox="0 0 1024 1024" xmlns="http://www.w3.org/2000/svg">
  <path transform="scale(1, -1) translate(0, -960)" fill="currentColor" d="M464 389q11 -10 24 -14.5t27 -4.5q15 0 28 5t23 15l421 399q5 5 5 11t-5 11t-11 5t-11 -5l-421 -398q-12 -11 -29.5 -11t-28.5 11l-425 398q-5 5 -11.5 5t-11.5 -5q-4 -5 -4 -11t4 -11l426 -400v0zM963 523l-421 -400q-12 -11 -29 -11t-28 11l-426 400q-5 5 -11 5t-11 -5 t-5 -11t5 -11l425 -399q11 -9 24 -14t28 -5q14 0 27 5t24 16l421 398q4 5 4 11.5t-4 11.5q-4 2 -11 2t-12 -4v0z" />
</svg>