<svg viewBox="0 0 1024 1024" xmlns="http://www.w3.org/2000/svg">
  <path transform="scale(1, -1) translate(0, -960)" fill="currentColor" d="M301 558h150q5 0 9 3.5t6 8.5q1 4 -0.5 9.5t-4.5 7.5l-141 106q-5 3 -12 2t-10 -5q-4 -5 -3 -12t6 -11l102 -77h-102q-7 0 -11.5 -4t-4.5 -12q0 -7 5 -11.5t11 -4.5v0zM573 558h150q7 0 11.5 4.5t4.5 11.5q0 8 -4.5 12t-11.5 4h-102l102 77q5 4 6 11t-3 12q-3 4 -10 5 t-12 -2l-141 -106q-3 -3 -5 -8t0 -9q2 -5 5.5 -8.5t9.5 -3.5v0zM512 928q-99 0 -186 -38q-88 -38 -153 -103t-103 -153q-38 -87 -38 -186t38 -186q38 -88 103 -153t153 -103q87 -38 186 -38t186 38q88 38 153 103t103 153q38 87 38 186t-38 186q-38 88 -103 153t-153 103 q-87 38 -186 38zM512 0q-92 0 -174 35q-81 36 -142 97t-97 142q-35 82 -35 174t35 174q36 81 96.5 142t142.5 97q82 35 174 35t174 -35q81 -36 142 -96.5t97 -142.5q35 -82 35 -174t-35 -174q-36 -81 -96.5 -142t-142.5 -97q-82 -35 -174 -35zM512 427q-46 0 -88 -15 q-42 -16 -75.5 -44t-56.5 -66q-24 -38 -33 -83q-1 -7 0.5 -14t6.5 -13q4 -6 11 -9.5t16 -3.5h437q8 0 15 3.5t12 9.5t7 13t1 14q-9 46 -32 84q-24 38 -57.5 65.5t-75.5 43.5q-42 15 -88 15v0zM730 211h-436q-1 0 -1.5 1t-1.5 2q8 40 28 73q21 34 50.5 58.5t65.5 37.5 q37 14 77 14t77 -14q36 -14 65.5 -38t50.5 -58q20 -34 28 -74q0 -1 -1 -1.5t-2 -0.5v0z" />
</svg>