<svg viewBox="0 0 256 256" xmlns="http://www.w3.org/2000/svg">
  <path transform="scale(1, -1) translate(0, -256)" fill="currentColor" d="M75 153h38q5 0 6.5 4.5t-2.5 8.5l-35 26q-2 2 -5 1.5t-5 -3t-1.5 -5.5t3.5 -5l18 -13h-17q-3 0 -5 -2t-2 -5t2 -5t5 -2zM143 153h38q3 0 5 2t2 5t-2 5t-5 2h-17l18 14q3 2 3.5 4.5t-1.5 5t-5 3t-5 -1.5l-35 -26q-4 -3 -3 -8q1 -2 3 -3.5t4 -1.5zM128 251 q-33 0 -61.5 -16.5t-45 -45t-16.5 -61.5t16.5 -61.5t45 -45t61.5 -16.5t61.5 16.5t45 45t16.5 61.5t-16.5 61.5t-45 45t-61.5 16.5zM128 19q-29 0 -54 14.5t-40 39.5t-15 55t15 54.5t39.5 39.5t54.5 15t55 -15t39.5 -40t14.5 -54.5t-14.5 -54.5t-39.5 -39.5t-55 -14.5z M128 126q-24 0 -42.5 -15.5t-23.5 -38.5q-1 -5 2.5 -9.5t9.5 -4.5h109q5 0 8.5 4.5t2.5 9.5q-4 23 -23 38.5t-43 15.5zM76 72q5 17 19.5 28.5t32.5 11.5t32.5 -11.5t19.5 -28.5h-104z" />
</svg>