<svg viewBox="0 0 256 256" xmlns="http://www.w3.org/2000/svg">
  <path transform="scale(1, -1) translate(0, -256)" fill="currentColor" d="M233 122h-83v110q0 8 -5.5 13.5t-13.5 5.5h-27q-27 0 -50 -13.5t-36.5 -36.5t-13.5 -50v-127q0 -8 5.5 -13.5t13.5 -5.5h210q8 0 13.5 5.5t5.5 13.5v79q0 8 -5.5 13.5t-13.5 5.5zM136 19h-113q-2 0 -3.5 1.5t-1.5 3.5v127q0 23 11.5 43t31.5 31.5t43 11.5h27 q2 0 3.5 -1.5t1.5 -3.5v-213zM186 19v23q0 5 3 7.5t7 2.5t7 -2.5t3 -7.5v-23h-20zM238 24q0 -2 -1.5 -3.5t-3.5 -1.5h-13v23q0 10 -7 17t-17 7t-17 -7t-7 -17v-23h-22v89h83q2 0 3.5 -1.5t1.5 -3.5v-79zM84 174h-13q-3 0 -5 -2t-2 -5t2 -5t5 -2h13q3 0 5 2t2 5t-2 5t-5 2z M84 124h-13q-3 0 -5 -2.5t-2 -5.5t2 -5t5 -2h13q3 0 5 2t2 5t-2 5.5t-5 2.5zM84 73h-13q-3 0 -5 -2t-2 -5t2 -5t5 -2h13q3 0 5 2t2 5t-2 5t-5 2z" />
</svg>