<svg viewBox="0 0 1024 1024" xmlns="http://www.w3.org/2000/svg">
  <path transform="scale(1, -1) translate(0, -960)" fill="currentColor" d="M874 928h-404q-34 0 -58.5 -24t-24.5 -59v-154l-29 24q-22 19 -52 19t-53 -19l-155 -126q-15 -12 -23 -29t-8 -35v-472q0 -35 24.5 -59t58.5 -24h722q35 0 59 24t24 59v792q1 35 -23 59t-58 24zM371 0h-128v154q0 26 19 45t45 19q13 0 25 -5t20 -15q10 -9 14.5 -20.5 t4.5 -23.5v-154zM403 0v154q0 19 -7 36.5t-22 30.5q-13 13 -30.5 21t-36.5 8q-39 0 -67.5 -28.5t-28.5 -67.5v-154h-61q-21 0 -36 15.5t-15 35.5v474q0 12 5 22.5t14 17.5l156 126q14 12 32.5 12t32.5 -12l154 -126q9 -7 14 -17.5t5 -22.5v-525h-109v0zM925 51 q0 -21 -15.5 -36t-35.5 -15h-260v0v0h-70v525q0 19 -8 36t-22 29l-93 76v179q0 21 15.5 36t35.5 15h403q22 0 36.5 -15.5t14.5 -35.5v-794h-1zM771 734h-139q-7 0 -11.5 -4t-4.5 -12q0 -7 4.5 -11.5t11.5 -4.5h139q7 0 11.5 4.5t4.5 11.5q0 8 -5 12t-11 4zM771 574h-139 q-7 0 -11.5 -4t-4.5 -12q0 -7 4.5 -11.5t11.5 -4.5h139q7 0 11.5 4.5t4.5 11.5q0 8 -5 12t-11 4zM771 414h-139q-7 0 -11.5 -4t-4.5 -12q0 -7 4.5 -11.5t11.5 -4.5h139q7 0 11.5 4.5t4.5 11.5q0 8 -5 12t-11 4zM771 254h-139q-7 0 -11.5 -4t-4.5 -12q0 -7 4.5 -11.5 t11.5 -4.5h139q7 0 11.5 4.5t4.5 11.5q0 8 -5 12t-11 4z" />
</svg>