<svg viewBox="0 0 1024 1024" xmlns="http://www.w3.org/2000/svg">
  <path transform="scale(1, -1) translate(0, -960)" fill="currentColor" d="M851 512h-137v197q0 15 -7 30t-19 26t-27 15.5t-31 1.5l-83 -11v83q0 30 -21.5 52t-51.5 22h-176q-30 0 -52 -22t-22 -52v-126l-61 -8q-27 -4 -45.5 -25t-18.5 -49v-606q0 -30 22 -52t52 -22h678q30 0 52 22t22 52v398q0 32 -22 53t-52 21v0zM256 854q0 17 12.5 29.5 t29.5 12.5h176q16 0 28.5 -12.5t12.5 -29.5v-88l-259 -33v121v0zM486 0h-313q-17 0 -29.5 12.5t-12.5 29.5v606q0 16 10.5 27.5t26.5 14.5l467 62h2.5h2.5q7 0 14 -2.5t13 -7.5q7 -6 11 -14t4 -18v-667q0 -17 -12.5 -29t-29.5 -12h-154v-2zM893 42q0 -17 -12.5 -29.5 t-29.5 -12.5h-150q6 8 9.5 19t3.5 23v438h137q17 0 29.5 -12.5t12.5 -29.5v-396v0zM333 595h-45q-7 0 -11.5 -4.5t-4.5 -11.5v-45q0 -7 4.5 -11.5t11.5 -4.5h45q7 0 11.5 4.5t4.5 11.5v45q0 7 -4.5 11.5t-11.5 4.5zM525 595h-45q-7 0 -11.5 -4.5t-4.5 -11.5v-45 q0 -7 4.5 -11.5t11.5 -4.5h45q7 0 11.5 4.5t4.5 11.5v45q0 7 -4.5 11.5t-11.5 4.5zM333 403h-45q-7 0 -11.5 -4.5t-4.5 -11.5v-45q0 -7 4.5 -11.5t11.5 -4.5h45q7 0 11.5 4.5t4.5 11.5v45q0 7 -4.5 11.5t-11.5 4.5zM525 403h-45q-7 0 -11.5 -4.5t-4.5 -11.5v-45 q0 -7 4.5 -11.5t11.5 -4.5h45q7 0 11.5 4.5t4.5 11.5v45q0 7 -4.5 11.5t-11.5 4.5zM333 211h-45q-7 0 -11.5 -4.5t-4.5 -11.5v-45q0 -7 4.5 -11.5t11.5 -4.5h45q7 0 11.5 4.5t4.5 11.5v45q0 7 -4.5 11.5t-11.5 4.5zM525 211h-45q-7 0 -11.5 -4.5t-4.5 -11.5v-45 q0 -7 4.5 -11.5t11.5 -4.5h45q7 0 11.5 4.5t4.5 11.5v45q0 7 -4.5 11.5t-11.5 4.5zM826 414h-45q-7 0 -11.5 -4t-4.5 -12v-44q0 -8 4.5 -12t11.5 -4h45q7 0 11.5 4t4.5 12v44q0 6 -4.5 11t-11.5 5zM826 222h-45q-7 0 -11.5 -4t-4.5 -12v-44q0 -8 4.5 -12t11.5 -4h45 q7 0 11.5 4t4.5 12v44q0 6 -4.5 11t-11.5 5z" />
</svg>