<svg viewBox="0 0 256 256" xmlns="http://www.w3.org/2000/svg">
  <path transform="scale(1, -1) translate(0, -256)" fill="currentColor" d="M232 217h-41v15q0 8 -5.5 14t-13.5 6h-88q-8 0 -13.5 -6t-5.5 -14v-14h-41q-8 0 -13.5 -6t-5.5 -14v-140q0 -8 5.5 -13.5t13.5 -5.5h41v-15q0 -8 5.5 -13.5t13.5 -5.5h88q8 0 13.5 5.5t5.5 13.5v15h41q8 0 13.5 5.5t5.5 13.5v140q0 8 -5.5 13.5t-13.5 5.5zM24 53 q-2 0 -3.5 1.5t-1.5 3.5v140q0 3 1.5 4.5t3.5 1.5h41v-151h-41zM177 24q0 -3 -1.5 -4.5t-3.5 -1.5h-88q-2 0 -3.5 2t-1.5 4v208q0 3 1.5 4.5t3.5 1.5h88q2 0 3.5 -2t1.5 -4v-208zM237 58q0 -3 -1.5 -4.5t-3.5 -1.5h-41v151h41q2 0 3.5 -1.5t1.5 -3.5v-140zM143 190h-30 q-3 0 -5 -2t-2 -5t2 -5t5 -2h30q3 0 5 2t2 5t-2 5t-5 2zM143 137h-30q-3 0 -5 -2t-2 -5t2 -5t5 -2h30q3 0 5 2t2 5t-2 5t-5 2zM143 84h-30q-3 0 -5 -2t-2 -5t2 -5t5 -2h30q3 0 5 2t2 5t-2 5t-5 2z" />
</svg>