<svg viewBox="0 0 1024 1024" xmlns="http://www.w3.org/2000/svg">
  <path transform="scale(1, -1) translate(0, -960)" fill="currentColor" d="M843 488h-382v218q0 13 -3.5 24.5t-11.5 21.5l-99 141q-12 17 -29.5 26t-37.5 9t-37.5 -9t-29.5 -26l-99 -141q-8 -11 -11.5 -22.5t-3.5 -23.5v-656q0 -34 24 -58t58 -24h677q27 0 47 20t20 47v371q0 34 -24 58t-58 24v0zM288 406v-406h-107q-21 0 -35.5 14.5t-14.5 35.5 v656q0 7 2.5 14.5t7.5 13.5l99 141q6 10 17 15.5t23 5.5t23 -5.5t19 -15.5l99 -141q5 -6 7 -13.5t2 -14.5v-218h-59q-35 0 -59 -24t-24 -58v0zM542 0v163q0 13 9.5 22.5t22.5 9.5h71q13 0 22.5 -9.5t9.5 -22.5v-163h-135zM893 35q0 -14 -10.5 -24.5t-24.5 -10.5h-149v163 q0 27 -19 45.5t-45 18.5h-71q-26 0 -45 -18.5t-19 -45.5v-163h-190v406q0 21 14.5 35.5t35.5 14.5h472q20 0 34.5 -14.5t14.5 -35.5v-371h2z" />
</svg>