<svg viewBox="0 0 1024 1024" xmlns="http://www.w3.org/2000/svg">
  <path transform="scale(1, -1) translate(0, -960)" fill="currentColor" d="M928 794h-176v72q0 26 -19 45t-45 19h-352q-26 0 -45 -19t-19 -45v-72h-176q-26 0 -45 -19t-19 -45v-562q0 -26 19 -45t45 -19h176v-72q0 -26 19 -45t45 -19h352q26 0 45 19t19 45v72h176q26 0 45 19t19 45v562q0 26 -19 45t-45 19zM96 134q-13 0 -22.5 9.5t-9.5 22.5 v564q0 13 9.5 22.5t22.5 9.5h176v-626h-176v-2zM720 30q0 -13 -9.5 -22.5t-22.5 -9.5h-352q-13 0 -22.5 9.5t-9.5 22.5v836q0 13 9.5 22.5t22.5 9.5h352q13 0 22.5 -9.5t9.5 -22.5v-836zM960 166q0 -13 -9.5 -22.5t-22.5 -9.5h-176v628h176q13 0 22.5 -9.5t9.5 -22.5v-564z M571 685h-118q-7 0 -11.5 -4.5t-4.5 -11.5t4.5 -11.5t11.5 -4.5h118q7 0 11.5 4.5t4.5 11.5t-5 11.5t-11 4.5zM571 474h-118q-7 0 -11.5 -4.5t-4.5 -11.5q0 -8 4.5 -12t11.5 -4h118q7 0 11.5 4t4.5 12q0 7 -5 11.5t-11 4.5zM571 261h-118q-7 0 -11.5 -4.5t-4.5 -11.5 t4.5 -11.5t11.5 -4.5h118q7 0 11.5 4.5t4.5 11.5t-5 11.5t-11 4.5z" />
</svg>