<svg viewBox="0 0 1024 1024" xmlns="http://www.w3.org/2000/svg">
  <path transform="scale(1, -1) translate(0, -960)" fill="currentColor" d="M976 147h-66v450q0 17 -7 32t-20 25l-133 109q-20 17 -47 17t-47 -17l-144 -117l-144 117q-20 17 -47 17t-47 -17l-133 -109q-13 -10 -20 -25t-7 -32v-450h-66q-7 0 -11.5 -4.5t-4.5 -11.5t4.5 -11.5t11.5 -4.5h928q7 0 11.5 4.5t4.5 11.5t-4.5 11.5t-11.5 4.5v0z M277 147v98q0 18 12.5 31.5t32.5 13.5q19 0 31.5 -13t12.5 -32v-98h-89v0zM397 147v98q0 31 -22.5 54t-54.5 23q-31 0 -54 -22.5t-23 -54.5v-98h-97v450q0 9 4 18t12 15l132 109q12 10 27 10t26 -10l149 -121v-469h-99v-2zM659 147v98q0 18 13 31.5t32 13.5t32 -13t13 -32 v-98h-90v0zM781 147v98q0 31 -22.5 54t-54.5 23t-54.5 -22.5t-22.5 -54.5v-98h-99v471l149 121q12 10 27 10t26 -10l132 -109q8 -6 12 -15t4 -18v-450h-97v0z" />
</svg>