<svg viewBox="0 0 1024 1024" xmlns="http://www.w3.org/2000/svg">
  <path transform="scale(1, -1) translate(0, -960)" fill="currentColor" d="M928 539h-419v197q0 26 -19 45t-45 19h-349q-26 0 -45 -19t-19 -45v-576q0 -26 19 -45t45 -19h832q26 0 45 19t19 45v315q0 27 -19 45.5t-45 18.5zM477 128h-381q-13 0 -22.5 9.5t-9.5 22.5v576q0 13 9.5 22.5t22.5 9.5h349q13 0 22.5 -9.5t9.5 -22.5v-608zM960 160 q0 -13 -9.5 -22.5t-22.5 -9.5h-419v379h419q13 0 22.5 -9.5t9.5 -22.5v-315zM197 638h-42q-7 0 -11.5 -4t-4.5 -12q0 -7 4.5 -11.5t11.5 -4.5h42q7 0 11.5 4.5t4.5 11.5q0 8 -4.5 12t-11.5 4zM371 638h-41q-8 0 -12 -4t-4 -12q0 -7 4 -11.5t12 -4.5h41q7 0 11.5 4.5 t4.5 11.5q0 8 -5 12t-11 4zM197 467h-42q-7 0 -11.5 -4.5t-4.5 -11.5t4.5 -11.5t11.5 -4.5h42q7 0 11.5 4.5t4.5 11.5t-4.5 11.5t-11.5 4.5v0zM371 467h-41q-8 0 -12 -4.5t-4 -11.5t4 -11.5t12 -4.5h41q7 0 11.5 4.5t4.5 11.5t-5 11.5t-11 4.5v0zM197 296h-42 q-7 0 -11.5 -4.5t-4.5 -11.5t4.5 -11.5t11.5 -4.5h42q7 0 11.5 4.5t4.5 11.5t-4.5 11.5t-11.5 4.5zM371 296h-41q-8 0 -12 -4.5t-4 -11.5t4 -11.5t12 -4.5h41q7 0 11.5 4.5t4.5 11.5t-5 11.5t-11 4.5zM662 410h-41q-7 0 -11.5 -4.5t-4.5 -11.5q0 -8 4.5 -12t11.5 -4h41 q8 0 12 4t4 12q0 7 -5 11.5t-11 4.5zM835 410h-41q-8 0 -12 -4.5t-4 -11.5q0 -8 4 -12t12 -4h41q7 0 11.5 4t4.5 12q0 7 -4.5 11.5t-11.5 4.5zM662 269h-41q-7 0 -11.5 -4.5t-4.5 -11.5t4.5 -11.5t11.5 -4.5h41q8 0 12 4.5t4 11.5t-5 11.5t-11 4.5zM835 269h-41 q-8 0 -12 -4.5t-4 -11.5t4 -11.5t12 -4.5h41q7 0 11.5 4.5t4.5 11.5t-4.5 11.5t-11.5 4.5z" />
</svg>