<svg viewBox="0 0 1024 1024" xmlns="http://www.w3.org/2000/svg">
  <path transform="scale(1, -1) translate(0, -960)" fill="currentColor" d="M936 0h-56v0v0v616h56q7 0 11.5 4.5t4.5 11.5t-4.5 11.5t-11.5 4.5h-160v248h106q7 0 11.5 4.5t4.5 11.5t-4.5 11.5t-11.5 4.5h-740q-7 0 -11.5 -4.5t-4.5 -11.5t4.5 -11.5t11.5 -4.5h106v-248h-160q-7 0 -11.5 -4.5t-4.5 -11.5t4.5 -11.5t11.5 -4.5h56v-616v0v0h-56 q-7 0 -11.5 -4.5t-4.5 -11.5t4.5 -11.5t11.5 -4.5h848q7 0 11.5 4.5t4.5 11.5t-4.5 11.5t-11.5 4.5zM280 896h464v-248h-464v248zM176 0v616h672v-616v0v0h-224v232q0 34 -24 57t-56 23h-64q-34 0 -57 -24t-23 -56v-232h-224v0v0zM594 0h-164v232q0 20 14.5 34t33.5 14h64 q21 0 34.5 -14.5t13.5 -33.5v-232h4z" />
</svg>