<svg viewBox="0 0 256 256" xmlns="http://www.w3.org/2000/svg">
  <path transform="scale(1, -1) translate(0, -256)" fill="currentColor" d="M240 222q-5 3 -11 3t-11 -3l-50 -24q-5 -3 -8.5 -8.5t-3.5 -12.5v-8h-56v53q0 6 -3 11t-8 8t-11 3.5t-11 -2.5l-49 -24q-6 -3 -9.5 -8.5t-3.5 -12.5v-179q0 -3 2 -5t5 -2h232q3 0 5 2t2 5v184q0 6 -3 11.5t-8 8.5zM186 25h-30v54q0 3 -2.5 5t-5.5 2h-40q-3 0 -5.5 -2 t-2.5 -5v-54h-28v122q0 3 2.5 6t5.5 3h98q4 0 6.5 -3t2.5 -6v-122h-1zM114 25v47h28v-47h-28zM19 197q0 5 5 8l50 25q4 2 8 -0.5t4 -7.5v-52h-6q-9 0 -16 -7t-7 -16v-122h-38v172zM237 25h-37v122q0 9 -6.5 16t-16.5 7h-7v8q0 5 4 8l50 24q5 2 8.5 -0.5t3.5 -7.5v-177h1z " />
</svg>