<svg viewBox="0 0 256 256" xmlns="http://www.w3.org/2000/svg">
  <path transform="scale(1, -1) translate(0, -256)" fill="currentColor" d="M213 147h-32v46q0 10 -7.5 16.5t-16.5 4.5l-17 -2v18q0 9 -6.5 15t-15.5 6h-44q-9 0 -15 -6t-6 -15v-29l-13 -2q-8 -1 -13 -7t-5 -14v-152q0 -9 6 -15t15 -6h170q9 0 15 6.5t6 14.5v100q0 9 -6 15t-15 6zM67 230q0 3 2.5 5t5.5 2h44q3 0 5 -2t2 -5v-20l-58 -7v27h-1z M122 19h-79q-3 0 -5 2t-2 5v152q0 3 2 5t4 2l118 16q3 0 5.5 -2.5t2.5 -5.5v-167q0 -3 -2.5 -5t-5.5 -2h-38zM220 26q0 -3 -2 -5t-5 -2h-33q1 4 1 7v107h32q3 0 5 -2t2 -5v-100zM83 165h-11q-4 0 -4 -4v-11q0 -4 4 -4h11q4 0 4 4v11q0 4 -4 4zM131 165h-11q-4 0 -4 -4v-11 q0 -4 4 -4h11q4 0 4 4v11q0 4 -4 4zM83 117h-11q-4 0 -4 -4v-11q0 -4 4 -4h11q4 0 4 4v11q0 4 -4 4zM131 117h-11q-4 0 -4 -4v-11q0 -4 4 -4h11q4 0 4 4v11q0 4 -4 4zM83 69h-11q-4 0 -4 -4v-11q0 -4 4 -4h11q4 0 4 4v11q0 4 -4 4zM131 69h-11q-4 0 -4 -4v-11q0 -4 4 -4h11 q4 0 4 4v11q0 4 -4 4zM206 120h-11q-4 0 -4 -4v-12q0 -4 4 -4h11q4 0 4 4v12q0 1 -1 2.5t-3 1.5zM206 72h-11q-4 0 -4 -4v-12q0 -4 4 -4h11q4 0 4 4v12q0 1 -1 2.5t-3 1.5z" />
</svg>