<svg viewBox="0 0 256 256" xmlns="http://www.w3.org/2000/svg">
  <path transform="scale(1, -1) translate(0, -256)" fill="currentColor" d="M228 173h-68v54q0 10 -6.5 16.5t-15.5 6.5h-110q-10 0 -16.5 -6.5t-6.5 -16.5v-198q0 -9 7 -16t16 -7h116q3 0 5 2.5t2 5.5v40q0 8 6 14t14.5 6t14.5 -6t6 -14v-41q0 -3 2.5 -5t5.5 -2h28q10 0 16.5 6.5t6.5 15.5v122q0 9 -6.5 16t-16.5 7zM92 150v-130h-64 q-4 0 -6.5 2.5t-2.5 6.5v198q0 4 2.5 6.5t6.5 2.5h110q3 0 5.5 -2.5t2.5 -6.5v-54h-31q-10 0 -16.5 -7t-6.5 -16zM237 29q0 -4 -2.5 -6.5t-6.5 -2.5h-21v34q0 14 -10.5 24t-24.5 10t-24.5 -10t-10.5 -24v-34h-30v130q0 4 2.5 6.5t6.5 2.5h112q4 0 6.5 -2.5t2.5 -6.5v-121z " />
</svg>