<svg viewBox="0 0 256 256" xmlns="http://www.w3.org/2000/svg">
  <path transform="scale(1, -1) translate(0, -256)" fill="currentColor" d="M232 154h-102v46q0 8 -5.5 13.5t-13.5 5.5h-87q-8 0 -13.5 -5.5t-5.5 -13.5v-144q0 -8 5.5 -13.5t13.5 -5.5h208q8 0 13.5 5.5t5.5 13.5v79q0 8 -5.5 13.5t-13.5 5.5zM116 51h-92q-2 0 -3.5 1.5t-1.5 3.5v144q0 2 1.5 3.5t3.5 1.5h87q2 0 3.5 -1.5t1.5 -3.5v-149zM237 56 q0 -2 -1.5 -3.5t-3.5 -1.5h-102v89h102q2 0 3.5 -1.5t1.5 -4.5v-78zM49 178h-10q-3 0 -5 -2t-2 -5t2 -5t5 -2h10q3 0 5 2t2 5t-2 5t-5 2zM93 178h-11q-3 0 -5 -2t-2 -5t2 -5t5 -2h11q3 0 5 2t2 5t-2 5t-5 2zM49 136h-10q-3 0 -5 -2.5t-2 -5.5t2 -5t5 -2h10q3 0 5 2t2 5 t-2 5.5t-5 2.5zM93 136h-11q-3 0 -5 -2.5t-2 -5.5t2 -5t5 -2h11q3 0 5 2t2 5t-2 5.5t-5 2.5zM49 93h-10q-3 0 -5 -2t-2 -5t2 -5t5 -2h10q3 0 5 2t2 5t-2 5t-5 2zM93 93h-11q-3 0 -5 -2t-2 -5t2 -5t5 -2h11q3 0 5 2t2 5t-2 5t-5 2zM166 121h-11q-3 0 -5 -2t-2 -5t2 -5t5 -2 h11q3 0 5 2t2 5t-2.5 5t-4.5 2zM209 121h-11q-3 0 -5 -2t-2 -5t2 -5t5 -2h11q3 0 5 2t2 5t-2 5t-5 2zM166 86h-11q-3 0 -5 -2t-2 -5t2 -5t5 -2h11q3 0 5 2t2 5t-2.5 5t-4.5 2zM209 86h-11q-3 0 -5 -2t-2 -5t2 -5t5 -2h11q3 0 5 2t2 5t-2 5t-5 2z" />
</svg>