<svg viewBox="0 0 1024 1024" xmlns="http://www.w3.org/2000/svg">
  <path transform="scale(1, -1) translate(0, -960)" fill="currentColor" d="M910 915h-393q-34 0 -58 -24t-24 -57v-149l-27 22q-23 18 -52 18t-52 -18l-150 -121q-15 -12 -23 -28.5t-8 -35.5v-511h-75q-7 0 -11.5 -4.5t-4.5 -11.5t4.5 -11.5t11.5 -4.5h861q33 0 57 24t24 58v773q2 33 -22 57t-58 24v0zM288 13v163q0 13 9.5 22.5t22.5 9.5h70 q14 0 23 -9.5t9 -22.5v-163h-134zM456 13v163q0 26 -19 45t-45 19h-72q-26 0 -45 -19t-19 -45v-163h-101v509q0 10 5 20.5t14 17.5l151 122q13 10 31 10t31 -10l151 -122q8 -7 13.5 -17.5t5.5 -20.5v-511h-101v2zM960 62q0 -20 -14.5 -34.5t-35.5 -14.5h-252v0v0h-69v509 q0 18 -8 35t-23 29l-91 73v175q0 20 14.5 34.5t35.5 14.5h392q20 0 34.5 -14.5t14.5 -34.5v-772h2z" />
</svg>