<svg viewBox="0 0 1024 1024" xmlns="http://www.w3.org/2000/svg">
  <path transform="scale(1, -1) translate(0, -960)" fill="currentColor" d="M928 928h-410q-26 0 -45 -19t-19 -45v-104h-358q-26 0 -45 -19t-19 -45v-664q0 -26 19 -45t45 -19h832q26 0 45 19t19 45v832q0 26 -19 45t-45 19zM454 0h-358q-13 0 -22.5 9.5t-9.5 22.5v664q0 13 9.5 22.5t22.5 9.5h358v-728zM960 32q0 -13 -9.5 -22.5t-22.5 -9.5h-442 v864q0 13 9.5 22.5t22.5 9.5h410q13 0 22.5 -9.5t9.5 -22.5v-832zM147 474h69q4 0 6 2t2 6v68q0 4 -2 6t-6 2h-69q-3 0 -5.5 -2t-2.5 -6v-68q0 -4 2.5 -6t5.5 -2zM309 474h69q3 0 5.5 2t2.5 6v68q0 4 -2.5 6t-5.5 2h-69q-4 0 -6 -2t-2 -6v-68q0 -4 2 -6t6 -2zM147 242h69 q4 0 6 2t2 6v68q0 4 -2 6t-6 2h-69q-3 0 -5.5 -2t-2.5 -6v-68q0 -3 2.5 -5.5t5.5 -2.5zM309 242h69q3 0 5.5 2t2.5 6v68q0 4 -2.5 6t-5.5 2h-69q-4 0 -6 -2t-2 -6v-68q0 -3 2 -5.5t6 -2.5zM672 766h-69q-3 0 -5.5 -2t-2.5 -6v-68q0 -4 2.5 -6t5.5 -2h69q4 0 6 2t2 6v68 q0 3 -2 5.5t-6 2.5v0zM842 766h-69q-4 0 -6 -2t-2 -6v-68q0 -4 2 -6t6 -2h69q3 0 5.5 2t2.5 6v68q0 3 -2.5 5.5t-5.5 2.5v0zM672 538h-69q-3 0 -5.5 -2.5t-2.5 -5.5v-69q0 -4 2.5 -6t5.5 -2h69q4 0 6 2t2 6v69q0 3 -2 5.5t-6 2.5zM842 538h-69q-4 0 -6 -2.5t-2 -5.5v-69 q0 -4 2 -6t6 -2h69q3 0 5.5 2t2.5 6v69q0 3 -2.5 5.5t-5.5 2.5zM672 309h-69q-3 0 -5.5 -2.5t-2.5 -5.5v-69q0 -4 2.5 -6t5.5 -2h69q4 0 6 2t2 6v69q0 3 -2 5.5t-6 2.5zM842 309h-69q-4 0 -6 -2.5t-2 -5.5v-69q0 -4 2 -6t6 -2h69q3 0 5.5 2t2.5 6v69q0 3 -2.5 5.5t-5.5 2.5z " />
</svg>