<svg viewBox="0 0 256 256" xmlns="http://www.w3.org/2000/svg">
  <path transform="scale(1, -1) translate(0, -256)" fill="currentColor" d="M228 248h-200q-10 0 -16.5 -6.5t-6.5 -15.5v-195q0 -10 7 -16.5t16 -6.5h68q3 0 5 2t2 5v21q0 11 7.5 19t18 8t18 -7.5t7.5 -18.5v-23q0 -3 2.5 -5t5.5 -2h66q10 0 16.5 7t6.5 16v196q0 9 -6.5 15.5t-16.5 6.5zM237 30q0 -3 -2.5 -5.5t-6.5 -2.5h-60v15q0 17 -11.5 28 t-27.5 11.5t-28 -10.5q-6 -6 -9.5 -14t-3.5 -16v-14h-60q-4 0 -6.5 2.5t-2.5 5.5v196q0 3 2.5 5.5t6.5 2.5h200q4 0 6.5 -2.5t2.5 -5.5v-196zM84 204h-16q-3 0 -5.5 -2.5t-2.5 -5.5t2.5 -5t5.5 -2h16q3 0 5 2t2 5t-2 5.5t-5 2.5zM190 204h-16q-3 0 -5.5 -2.5t-2.5 -5.5 t2.5 -5t5.5 -2h16q3 0 5 2t2 5t-2 5.5t-5 2.5zM84 158h-16q-3 0 -5.5 -2.5t-2.5 -5.5t2.5 -5t5.5 -2h16q3 0 5 2t2 5t-2 5.5t-5 2.5zM190 158h-16q-3 0 -5.5 -2.5t-2.5 -5.5t2.5 -5t5.5 -2h16q3 0 5 2t2 5t-2 5.5t-5 2.5zM84 112h-16q-3 0 -5.5 -2.5t-2.5 -5.5t2.5 -5 t5.5 -2h16q3 0 5 2t2 5t-2 5.5t-5 2.5zM190 112h-16q-3 0 -5.5 -2.5t-2.5 -5.5t2.5 -5t5.5 -2h16q3 0 5 2t2 5t-2 5.5t-5 2.5z" />
</svg>