<svg viewBox="0 0 256 256" xmlns="http://www.w3.org/2000/svg">
  <path transform="scale(1, -1) translate(0, -256)" fill="currentColor" d="M218 251h-100q-10 0 -17 -7t-7 -17v-32l-3 2q-6 5 -15 5t-15 -5l-39 -32q-9 -7 -9 -18v-118q0 -10 7 -17t17 -7h181q9 0 16.5 7t7.5 17v198q0 10 -7 17t-17 7zM90 19h-26v35q0 6 4 9.5t9.5 3.5t9 -4t3.5 -9v-35zM104 19v35q0 12 -8 20t-19 8t-19 -8t-8 -19v-35h-12 q-5 0 -7.5 2.5t-2.5 7.5v117q0 5 3 8l39 31q3 3 6.5 3t5.5 -3l39 -31q4 -3 4 -8v-128h-21zM228 29q0 -4 -2.5 -7t-7.5 -3h-80v128q0 11 -8 18l-23 18v44q0 4 3 7t7 3h101q4 0 7 -3t3 -7v-198zM193 202h-35q-3 0 -5 -2t-2 -5t2 -5t5 -2h35q3 0 5 2t2 5t-2 5t-5 2zM193 162 h-35q-3 0 -5 -2t-2 -5t2 -5t5 -2h35q3 0 5 2t2 5t-2 5t-5 2zM193 122h-35q-3 0 -5 -2t-2 -5t2 -5t5 -2h35q3 0 5 2t2 5t-2 5t-5 2zM193 82h-35q-3 0 -5 -2t-2 -5t2 -5t5 -2h35q3 0 5 2t2 5t-2 5t-5 2z" />
</svg>