<svg viewBox="0 0 1024 1024" xmlns="http://www.w3.org/2000/svg">
  <path transform="scale(1, -1) translate(0, -960)" fill="currentColor" d="M512 741h-259q-7 0 -11.5 -4.5t-4.5 -11.5t4.5 -11.5t11.5 -4.5h259q7 0 11.5 4.5t4.5 11.5t-4.5 11.5t-11.5 4.5zM512 520h-259q-7 0 -11.5 -4.5t-4.5 -11.5t4.5 -11.5t11.5 -4.5h259q7 0 11.5 4.5t4.5 11.5t-4.5 11.5t-11.5 4.5zM894 827h-177v29q0 34 -24 58t-58 24 h-505q-34 0 -58 -24t-24 -58v-814q0 -34 24 -58t58 -24h504q33 0 57 24t24 58v33h178q33 0 57 24t24 58v589q2 33 -22 57t-58 24zM496 -10h-227v226q0 20 14.5 35t34.5 15h128q21 0 35.5 -15t14.5 -35v-226v0zM685 40q0 -20 -14.5 -35t-35.5 -15h-107v226q0 34 -24 58 t-58 24h-128q-33 0 -57 -24t-24 -58v-226h-107q-21 0 -35.5 15t-14.5 35v816q0 20 14.5 35t35.5 15h504q20 0 34.5 -15t14.5 -35v-816h2zM944 157q0 -21 -14.5 -35.5t-35.5 -14.5h-177v218h99q7 0 11.5 4.5t4.5 11.5t-4.5 11.5t-11.5 4.5h-101v189h101q7 0 11.5 4t4.5 12 q0 7 -4.5 11.5t-11.5 4.5h-101v217h178q20 0 34.5 -14.5t14.5 -34.5v-589h2z" />
</svg>