<svg viewBox="0 0 1024 1024" xmlns="http://www.w3.org/2000/svg">
  <path transform="scale(1, -1) translate(0, -960)" fill="currentColor" d="M914 491h-290v362q0 26 -19 45t-45 19h-464q-26 0 -45 -19t-19 -45v-811q0 -27 19 -45.5t45 -18.5h818q32 0 55 23t23 55v357q0 32 -23 55t-55 23v0zM64 586h248v-250h-248v250zM344 586h248v-250h-248v250zM592 853v-235h-248v267h216q13 0 22.5 -9t9.5 -23zM96 885h216 v-267h-248v235q0 14 9.5 23t22.5 9zM64 43v261h248v-294h-216q-13 1 -22.5 10t-9.5 23zM344 11v293h248v-294h-248v1zM960 58q0 -20 -13.5 -33.5t-32.5 -13.5h-290v448h290q19 0 32.5 -13.5t13.5 -32.5v-355v0z" />
</svg>