<svg viewBox="0 0 256 256" xmlns="http://www.w3.org/2000/svg">
  <path transform="scale(1, -1) translate(0, -256)" fill="currentColor" d="M239 215l-50 26q-12 6 -22 -1q-5 -3 -8 -8t-3 -11v-52h-56v52q0 6 -2.5 11t-8 8t-11 3.5t-10.5 -2.5l-51 -26q-5 -3 -8.5 -8.5t-3.5 -11.5v-160q0 -9 6.5 -16t16.5 -7h200q10 0 16.5 6.5t6.5 16.5v160q0 6 -3 11.5t-9 8.5zM28 26q-4 0 -6.5 2.5t-2.5 6.5v160q0 5 5 7 l50 27q4 2 8 -0.5t4 -7.5v-52h-10q-8 0 -13.5 -5.5t-5.5 -13.5v-124h-29zM115 26v35q0 2 1.5 3.5t3.5 1.5h16q2 0 3.5 -1.5t1.5 -3.5v-35h-26zM163 26h-8v35q0 8 -5.5 13.5t-13.5 5.5h-16q-7 0 -13 -5.5t-6 -13.5v-35h-30v124q0 2 1.5 3.5t3.5 1.5h104q2 0 3.5 -1.5 t1.5 -3.5v-124h-22zM237 35q0 -4 -2.5 -6.5t-5.5 -2.5h-29v124q0 8 -6 13.5t-14 5.5h-10v52q0 5 4 7.5t8 0.5l51 -27q4 -2 4 -7v-160z" />
</svg>