<svg viewBox="0 0 1024 1024" xmlns="http://www.w3.org/2000/svg">
  <path transform="scale(1, -1) translate(0, -960)" fill="currentColor" d="M912 616h-282v229q0 33 -23 56.5t-57 23.5h-438q-34 0 -57 -23.5t-23 -56.5v-792q0 -34 23 -57t57 -23h462q8 0 12 4.5t4 11.5v161q0 40 28.5 68t67.5 28q40 0 68 -28t28 -68v-163q0 -7 4.5 -11.5t11.5 -4.5h114q34 0 57 23.5t23 56.5v485q0 32 -23 56t-57 24zM381 536 v-531h-269q-19 0 -33.5 13.5t-14.5 34.5v792q0 19 14 33.5t34 14.5h438q20 0 34 -14t14 -34v-229h-137q-34 0 -57 -24t-23 -56v0zM960 51q0 -19 -14 -33.5t-34 -14.5h-99v147q0 53 -37.5 90.5t-90.5 37.5t-90.5 -37.5t-37.5 -90.5v-147h-146v533q0 19 14 33.5t34 14.5h453 q19 0 33.5 -14t14.5 -34v-485z" />
</svg>