<svg viewBox="0 0 256 256" xmlns="http://www.w3.org/2000/svg">
  <path transform="scale(1, -1) translate(0, -256)" fill="currentColor" d="M228 142h-69v87q0 8 -5.5 13.5t-13.5 5.5h-116q-8 0 -13.5 -5.5t-5.5 -13.5v-203q0 -7 5.5 -13t13.5 -6h205q10 0 16.5 6.5t6.5 16.5v89q-1 10 -7.5 16.5t-16.5 6.5zM19 160h56v-57h-56v57zM89 160h56v-57h-56v57zM145 229v-56h-56v61h51q2 0 3.5 -1.5t1.5 -3.5zM24 234 h51v-60h-56v56q0 2 1.5 3t3.5 1zM19 27v62h56v-67h-51q-2 0 -3.5 1.5t-1.5 3.5zM89 22v67h56v-67h-56zM237 30q0 -3 -2.5 -5.5t-6.5 -2.5h-69v106h69q4 0 6.5 -2.5t2.5 -6.5v-89z" />
</svg>