<svg viewBox="0 0 256 256" xmlns="http://www.w3.org/2000/svg">
  <path transform="scale(1, -1) translate(0, -256)" fill="currentColor" d="M232 251h-102q-8 0 -13.5 -5.5t-5.5 -13.5v-24h-87q-8 0 -13.5 -5.5t-5.5 -13.5v-165q0 -8 5.5 -13.5t13.5 -5.5h208q8 0 13.5 5.5t5.5 13.5v208q0 8 -5.5 13.5t-13.5 5.5zM110 19h-86q-2 0 -3.5 1.5t-1.5 3.5v166q0 2 1.5 3.5t3.5 1.5h86v-176zM237 24q0 -2 -1.5 -3.5 t-3.5 -1.5h-108v213q0 2 1.5 3.5t3.5 1.5h103q2 0 3.5 -1.5t1.5 -3.5v-208zM37 134h17q2 0 2 2v18q0 2 -2 2h-17q-2 0 -2 -2v-18q0 -2 2 -2zM77 134h17q2 0 2 2v18q0 2 -2 2h-17q-2 0 -2 -2v-18q0 -2 2 -2zM37 76h17q2 0 2 2v18q0 2 -2 2h-17q-2 0 -2 -2v-18v-1q1 -1 2 -1z M77 76h17q2 0 2 2v18q0 2 -2 2h-17q-2 0 -2 -2v-18l1 -1q0 -1 1 -1zM168 208h-17q-2 0 -2 -2v-18q0 -2 2 -2h17q2 0 2 2v18l-1 1q0 1 -1 1zM210 208h-17q-2 0 -2 -2v-18q0 -2 2 -2h17q2 0 2 2v18v1q-1 1 -2 1zM168 150h-17q-2 0 -2 -2v-17q0 -2 2 -2h17q2 0 2 2v17q0 2 -2 2 zM210 150h-17q-2 0 -2 -2v-17q0 -2 2 -2h17q2 0 2 2v17q0 2 -2 2zM168 93h-17q-2 0 -2 -2v-17q0 -2 2 -2h17q2 0 2 2v17q0 2 -2 2zM210 93h-17q-2 0 -2 -2v-17q0 -2 2 -2h17q2 0 2 2v17q0 2 -2 2z" />
</svg>