<svg viewBox="0 0 1024 1024" xmlns="http://www.w3.org/2000/svg">
  <path transform="scale(1, -1) translate(0, -960)" fill="currentColor" d="M910 915h-393q-34 0 -58 -24t-24 -57v-189l-249 -64q-28 -7 -45.5 -29t-17.5 -51v-490h-75q-7 0 -11.5 -4.5t-4.5 -11.5t4.5 -11.5t11.5 -4.5h861q33 0 57 24t24 58v773q2 33 -22 57t-58 24v0zM424 13h-136v163q0 13 9.5 22.5t22.5 9.5h70q14 0 23 -9.5t9 -22.5v-163h2z M456 13v163q0 26 -19 45t-45 19h-72q-26 0 -45 -19t-19 -45v-163h-101v489q0 17 11 31t28 17l300 77q11 3 22.5 0.5t21.5 -9.5q9 -8 14 -18t5 -22v-567h-101v2zM960 62q0 -20 -14.5 -34.5t-35.5 -14.5h-252v0v0h-69v566q0 19 -8.5 36t-23.5 28q-16 12 -34.5 15.5t-36.5 -0.5 l-19 -5v181q0 20 14.5 34.5t35.5 14.5h392q20 0 34.5 -14.5t14.5 -34.5v-772h2z" />
</svg>