<svg viewBox="0 0 1024 1024" xmlns="http://www.w3.org/2000/svg">
  <path transform="scale(1, -1) translate(0, -960)" fill="currentColor" d="M950 784l-201 106q-18 9 -38.5 9t-38.5 -11t-28 -29t-10 -38v-221h-245v221q0 20 -10.5 38t-28.5 29t-38 11t-38 -9l-200 -106q-20 -10 -31 -28.5t-11 -40.5v-640q0 -32 23 -55t55 -23h804q32 0 55 23t23 55v640q0 22 -11 40.5t-31 28.5v0zM110 29q-19 0 -32.5 13.5 t-13.5 32.5v640q0 13 6.5 24.5t17.5 17.5l202 105q10 6 22.5 5.5t21.5 -6.5q11 -6 17 -17t6 -23v-221h-53q-26 0 -45 -19t-19 -45v-507h-130zM450 29v150q0 13 9 22.5t23 9.5h60q14 0 23 -9.5t9 -22.5v-150h-124v0zM651 29h-43v150q0 27 -19 45.5t-45 18.5h-61 q-26 0 -45 -18.5t-19 -45.5v-150h-147v507q0 13 9.5 22.5t22.5 9.5h416q13 0 22.5 -9.5t9.5 -22.5v-507h-101zM960 75q0 -19 -13.5 -32.5t-32.5 -13.5h-130v507q0 26 -19 45t-45 19h-54v221q0 12 5.5 22.5t16.5 17.5q11 6 22.5 6.5t22.5 -5.5l201 -105q12 -6 18 -17.5 t6 -24.5v-640h2z" />
</svg>