<svg viewBox="0 0 256 256" xmlns="http://www.w3.org/2000/svg">
  <path transform="scale(1, -1) translate(0, -256)" fill="currentColor" d="M244 56h-13v109q0 11 -8 17l-33 27q-6 5 -14 5t-14 -5l-34 -28l-34 28q-6 5 -14 5t-14 -5l-33 -27q-8 -6 -8 -17v-109h-13q-3 0 -5 -2t-2 -5t2 -5t5 -2h232q3 0 5 2t2 5t-2 5t-5 2zM72 56v21q0 4 2.5 6t5.5 2t5.5 -2t2.5 -6v-21h-16zM102 56v21q0 9 -6.5 15.5t-15.5 6.5 t-15.5 -6.5t-6.5 -15.5v-21h-19v109q0 3 3 6l33 27q2 2 5 2t5 -2l36 -29v-113h-19zM168 56v21q0 3 2 5.5t5.5 2.5t6 -2t2.5 -6v-21h-16zM198 56v21q0 9 -6.5 15.5t-15.5 6.5t-15.5 -6.5t-6.5 -15.5v-21h-19v113l36 29q2 2 5 2t5 -2l33 -27q3 -3 3 -6v-109h-19z" />
</svg>