<svg viewBox="0 0 1024 1024" xmlns="http://www.w3.org/2000/svg">
  <path transform="scale(1, -1) translate(0, -960)" fill="currentColor" d="M931 413h-341v451q0 26 -18.5 45t-45.5 19h-110q-80 0 -151 -31q-70 -30 -122.5 -83t-83.5 -124q-30 -70 -30 -151v-507q0 -26 18.5 -45t45.5 -19h840q26 0 45 19t19 45v317q-1 27 -20 45.5t-46 18.5v0zM558 0h-465q-13 0 -22.5 9.5t-9.5 22.5v507q0 74 28 139 q27 65 75.5 113.5t112.5 76.5q65 28 139 28h109q13 0 22.5 -9.5t9.5 -22.5v-864h1zM733 0v107q0 22 15.5 37.5t37.5 15.5q21 0 36.5 -15.5t15.5 -37.5v-107h-105v0zM963 32q0 -13 -9.5 -22.5t-22.5 -9.5h-64v107q0 35 -25 60t-60 25q-34 0 -59 -25t-25 -60v-107h-111v381 h343q13 0 22.5 -9.5t9.5 -22.5v-317h1zM336 621h-51q-7 0 -11.5 -4.5t-4.5 -11.5t4.5 -11.5t11.5 -4.5h51q7 0 11.5 4.5t4.5 11.5t-4.5 11.5t-11.5 4.5zM336 419h-51q-7 0 -11.5 -4.5t-4.5 -11.5t4.5 -11.5t11.5 -4.5h51q7 0 11.5 4.5t4.5 11.5t-4.5 11.5t-11.5 4.5z M336 218h-51q-7 0 -11.5 -4.5t-4.5 -11.5q0 -8 4.5 -12t11.5 -4h51q7 0 11.5 4t4.5 12q0 7 -4.5 11.5t-11.5 4.5z" />
</svg>