<svg viewBox="0 0 1024 1024" xmlns="http://www.w3.org/2000/svg">
  <path transform="scale(1, -1) translate(0, -960)" fill="currentColor" d="M955 813q-18 11 -38.5 12t-38.5 -9l-198 -99q-20 -10 -31.5 -29t-11.5 -42v-43h-248v221q0 20 -10 38t-27 29t-38 12t-39 -9l-200 -99q-20 -9 -31.5 -28t-11.5 -42v-717q0 -7 4.5 -11.5t11.5 -4.5h210v0v0v0v0h171v0v0h165v0v0h177v0v0v0v0h205q7 0 11.5 4.5t4.5 11.5 v736q0 22 -10 40t-27 29zM757 24h-146v229q0 7 -4.5 11.5t-11.5 4.5h-165q-7 0 -11.5 -4.5t-4.5 -11.5v-229h-139v499q0 19 13.5 33t33.5 14h51v0v0v0v0h277v0v0v0v0h57q19 0 33 -14t14 -33v-499h3zM446 24v213h133v-213h-133v0zM64 725q0 13 7 24t19 17l198 100 q12 6 24 5.5t22 -7.5q11 -6 17 -17t6 -23v-222h-35q-33 0 -56 -23t-23 -56v-497h-179v699v0zM960 24h-171v499q0 33 -23 56t-56 23h-41v43q0 13 6.5 24t18.5 17l199 100q11 6 23 5t23 -7t17 -17t6 -23v-720h-2z" />
</svg>