<svg viewBox="0 0 1024 1024" xmlns="http://www.w3.org/2000/svg">
  <path transform="scale(1, -1) translate(0, -960)" fill="currentColor" d="M512 718l18 32q8 16 24.5 20.5t31.5 -4.5q15 -8 19.5 -24.5t-3.5 -31.5l-176 -302h126q30 0 44.5 -28t3.5 -54h-373q-17 0 -28.5 12t-11.5 28q0 17 11.5 28.5t28.5 11.5h104l133 234l-43 72q-9 16 -4.5 32t20.5 24q15 8 31 4t25 -20zM354 282l-39 -68q-8 -15 -24.5 -19.5 t-31.5 3.5q-15 9 -19.5 25.5t3.5 30.5l29 52q26 8 46.5 2t35.5 -26v0zM693 405h105q17 0 28.5 -11.5t11.5 -28.5t-11.5 -28.5t-28.5 -11.5h-59l40 -71q9 -15 4.5 -31t-20.5 -25q-15 -8 -31 -3.5t-25 19.5q-50 88 -87.5 152.5t-62.5 108.5q-25 45 -14.5 83.5t27.5 54.5 q21 -34 51.5 -86.5t71.5 -121.5v0zM512 944q-103 0 -194 -39q-90 -39 -157 -106t-106 -157q-39 -91 -39 -194t39 -194q39 -90 106 -157t157 -106q91 -39 194 -39t194 39q90 39 157 106t106 157q39 91 39 194t-39 194q-39 90 -106 157t-157 106q-91 39 -194 39zM946 448 q0 -89 -34 -168q-34 -78 -92.5 -137.5t-137.5 -93.5q-79 -35 -170 -35q-89 0 -168 34q-78 34 -137.5 92.5t-93.5 137.5q-35 79 -35 170q0 89 34 168q34 78 92.5 137.5t137.5 93.5q79 35 170 35q89 0 168 -34q78 -34 137.5 -92.5t93.5 -137.5q35 -79 35 -170z" />
</svg>