<svg viewBox="0 0 256 256" xmlns="http://www.w3.org/2000/svg">
  <path transform="scale(1, -1) translate(0, -256)" fill="currentColor" d="M128 196l4 8q2 3 6.5 4.5t8 -0.5t5 -6.5t-1.5 -7.5l-44 -76h32q7 0 11 -7t1 -13h-93q-4 0 -7 2.5t-3 7t3 7.5t7 3h26l33 58l-11 18q-2 4 -1 8t5 6t8 1t6 -5zM88 86l-9 -16q-2 -4 -6.5 -5.5t-8 1t-4.5 6.5t1 8l7 12q13 5 20 -6zM173 117h27q4 0 7 -3t3 -7t-3 -7t-7 -3h-15 l10 -17q2 -4 1 -8t-5 -6.5t-8 -1t-6 5.5l-38 65q-5 10 -3.5 19.5t6.5 14.5q6 -8 21 -34zM128 252q-34 0 -62.5 -16.5t-45 -45t-16.5 -62.5t16.5 -62.5t45 -45t62.5 -16.5t62.5 16.5t45 45t16.5 62.5t-16.5 62.5t-45 45t-62.5 16.5zM236 128q0 -29 -14.5 -54t-39 -39.5 t-54 -14.5t-54.5 14.5t-39.5 39t-14.5 54t14.5 54.5t39 39.5t54 14.5t54.5 -14.5t39.5 -39t14.5 -54.5z" />
</svg>