<svg viewBox="0 0 1024 1024" xmlns="http://www.w3.org/2000/svg">
  <path transform="scale(1, -1) translate(0, -960)" fill="currentColor" d="M171 442q0 14 6.5 25.5t19.5 18.5q-7 11 -17 16.5t-25 6.5q-5 0 -11 -0.5t-14 -4.5t-12.5 -5t-7.5 -1q-1 0 -5.5 1t-10.5 5q-6 5 -11 6.5t-9 1.5q-8 0 -15 -1.5t-13 -6.5t-11 -10t-9 -11q-4 -7 -7 -18t-3 -23q0 -11 1.5 -22t4.5 -22q4 -10 8 -19t8 -16q5 -6 9.5 -11.5 t6.5 -9.5q5 -4 10 -6.5t11 -2.5q4 0 7.5 1t8.5 4q5 1 10.5 2.5t10.5 1.5t9.5 -1t9.5 -3q6 -4 11 -4.5t8 -0.5q5 0 10.5 2.5t10.5 5.5l3 3t4 5q1 3 3.5 6t4.5 7q1 3 3 5t3 4q1 4 3 6.5t3 6.5q0 1 1 3t1 3q0 2 1 4t1 3q-5 1 -8 4t-7 5q-8 5 -12 14.5t-4 21.5v0v0zM338 398v0 l-48 108h-37v-172h30v112h2l40 -89h22l40 89h2v-112h33v172h-38l-46 -108v0zM142 528q6 7 9.5 15.5t3.5 18.5v3q-5 0 -9.5 -1.5t-9.5 -5.5q-5 -3 -9.5 -6t-6.5 -6q-6 -8 -9.5 -16t-3.5 -15v-3q10 -1 18.5 3.5t16.5 12.5v0v0zM797 506h35v-172h-35v172v0zM942 478 q16 0 25 -10t9 -23h32v3q0 25 -18 43.5t-51 18.5t-52.5 -20.5t-19.5 -59.5v-19q0 -37 19.5 -57.5t52.5 -20.5t51 18.5t18 42.5v4h-35q0 -14 -8 -23.5t-26 -9.5t-26.5 12t-8.5 37v18q0 23 10 34.5t28 11.5v0v0zM558 397q0 -17 -9.5 -26t-23.5 -9q-16 0 -25 9t-9 26v110h-35 v-113q0 -28 19 -45.5t50 -17.5q32 0 50.5 17.5t18.5 45.5v113h-36v-110v0zM714 434l-26 6q-11 4 -16.5 8t-5.5 13t7 15t21 6q15 0 22.5 -6.5t8.5 -16.5h33q0 23 -17.5 37t-46.5 14q-26 0 -45 -13.5t-19 -37.5q0 -21 13.5 -32.5t30.5 -15.5l25 -6q12 -4 19 -8.5t7 -12.5 q0 -10 -7.5 -16t-23.5 -6q-15 0 -24 6.5t-9 18.5h-35q0 -19 14 -36.5t51 -17.5q31 0 50 14.5t19 39.5q0 23 -13.5 32.5t-32.5 14.5v0v0z" />
</svg>