<svg viewBox="0 0 256 256" xmlns="http://www.w3.org/2000/svg">
  <path transform="scale(1, -1) translate(0, -256)" fill="currentColor" d="M43 126q0 8 6 12q-3 5 -10 5q-4 0 -7 -1.5t-4.5 -1.5t-4 2t-6 2t-6 -2t-5 -6t-2.5 -10t1.5 -11t4.5 -8l4 -5q2 -3 4 -3t5 1l5 2q2 0 4.5 -1.5t4.5 -1.5t5 2l2 2l6 12q-1 0 -2 2l-1 1q-4 2 -4 8zM84 116l-12 26h-9v-42h8v28v0l10 -23h6l10 23v0v-28h9v42h-10zM36 148 q3 4 3 8v1q-3 0 -5 -1l-4 -4q-3 -3 -3 -7v-1q4 -1 9 4zM199 142h9v-42h-9v42zM236 136q3 0 5.5 -2.5t2.5 -6.5h8v1q0 7 -4.5 11.5t-13 4.5t-13 -5.5t-4.5 -14.5v-5q0 -9 4.5 -14.5t13 -5.5t13 4.5t4.5 10.5v2h-9q0 -9 -8.5 -9t-8.5 13v4q0 12 10 12zM140 115q0 -4 -2.5 -6.5 t-6.5 -2.5t-6 2.5t-2 6.5v28h-9v-29q0 -7 4.5 -11t12.5 -4t12.5 4t4.5 11v29h-8v-28zM178 124l-6 2q-6 2 -6 6t7.5 4t7.5 -5h9q0 6 -4.5 9.5t-11.5 3.5t-11.5 -3.5t-4.5 -9.5q0 -10 10 -12l7 -2q6 -2 6 -5q0 -6 -7 -6q-4 0 -6.5 2t-2.5 5h-9q0 -6 4 -10t12.5 -4t13 4 t4.5 9.5t-3 8t-9 3.5z" />
</svg>