<svg viewBox="0 0 256 256" xmlns="http://www.w3.org/2000/svg">
  <path transform="scale(1, -1) translate(0, -256)" fill="currentColor" d="M49 166q-6 -7 -12 -6q0 4 1 7.5t3 6t5.5 4.5t6.5 2q1 -8 -4 -14zM53 158q-4 1 -11 -2q-3 -2 -4 -2t-6 2t-8 2q-10 0 -16 -9t-3.5 -21t7.5 -21q4 -5 7 -8t6 -3t6.5 2t6.5 2t7 -1.5t7.5 -1.5t6 2.5t5.5 6.5t4.5 8t1.5 5l-3 1q-3 3 -5.5 6.5t-2.5 9.5t4 10.5t5 4.5 q-5 7 -15 7zM92 173v-75h12v26h16q12 0 19 6.5t7 18t-7 18t-18 6.5h-29zM104 163h14q7 0 11.5 -4t4.5 -11t-4.5 -11t-11.5 -4h-14v30zM167 96q5 0 10 3t7 7h1v-9h11v38q0 8 -6 13t-16 5t-16 -5t-6 -12h10q0 3 3 5.5t8 2.5t8 -2.5t3 -6.5v-5h-15q-10 0 -15.5 -4.5t-5.5 -12 t5.5 -12.5t13.5 -5zM170 106q-10 0 -10 7t11 9h13v-4q0 -6 -4 -9t-10 -3zM210 77q8 0 13 4t8 13l21 58h-12l-14 -45v0l-14 45h-13l20 -56l-1 -2q-3 -8 -10 -8h-3v-10z" />
</svg>