<svg viewBox="0 0 256 256" xmlns="http://www.w3.org/2000/svg">
  <path transform="scale(1, -1) translate(0, -256)" fill="currentColor" d="M222 171q-9 11 -22.5 16.5t-30.5 4.5q-18 -2 -32 -8q-4 34 -33 64q-2 2 -5 2.5t-5 -1.5t-2.5 -5t1.5 -5q25 -27 29 -55q-18 6 -35 7.5t-30.5 -4t-23.5 -17.5q-12 -15 -14 -38t7 -49q13 -42 36.5 -62.5t51.5 -14.5q6 2 14 5q6 -3 13 -4.5t13 -1.5q24 0 44 20.5t32 57.5 q9 27 6.5 50t-14.5 38zM217 88q-9 -27 -22 -44q-22 -30 -50 -24q-5 1 -14 5l-3 1q-2 0 -3 -1q-7 -3 -14 -5q-28 -6 -50 23q-13 18 -22 45q-7 23 -6 42t11 32q14 18 42 16q9 -1 21.5 -4t19.5 -7q3 -1 6 0l8 3q13 6 29 8q27 2 41 -16q10 -12 11.5 -31.5t-5.5 -42.5zM150 212 q14 -7 25 -7l8 1q15 3 27 17q5 5 3.5 11.5t-7.5 9.5q-17 9 -32.5 6t-27.5 -18q-4 -5 -3 -11t7 -9zM176 236q11 2 23 -4q-10 -11 -20 -13t-22 5q10 11 19 12z" />
</svg>