<svg viewBox="0 0 1024 1024" xmlns="http://www.w3.org/2000/svg">
  <path transform="scale(1, -1) translate(0, -960)" fill="currentColor" d="M642 693q-30 0 -57.5 -6t-54.5 -18v120q18 -7 35.5 -11t34.5 -4q13 0 26 2.5t25 5.5q33 12 58.5 37t42.5 63q2 6 0 12t-8 8q-38 20 -75 23.5t-71 -7.5q-32 -12 -58 -37t-42 -62q-2 -1 -2 -3v-3v-0.5v-1.5v-144q-29 12 -55 19t-59 7q-64 0 -122 -29q-57 -28 -99.5 -77.5 t-67.5 -115.5q-24 -66 -24 -141t24 -141q25 -65 67.5 -114.5t99.5 -77.5q58 -29 122 -29q30 0 60 7t59 20q6 4 12 4t12 -4q29 -13 58 -20t60 -7q65 0 122 29q57 28 99 77.5t67 115.5q24 66 24 141t-24 140q-25 66 -67.5 115.5t-100.5 77.5q-57 29 -121 29v0zM611 890 q24 8 50.5 6t55.5 -13q-15 -26 -34.5 -44t-42.5 -26q-24 -9 -50.5 -7t-55.5 13q15 27 34 44.5t43 26.5zM643 0q-26 0 -52.5 6t-51.5 18q-6 4 -12.5 5t-12.5 1t-13 -1t-13 -5q-25 -12 -51.5 -18t-52.5 -6q-58 0 -109 26q-52 26 -90 71t-60 105q-23 61 -23 129q0 69 23 129 q22 60 60 105t90 71q51 26 109 26q30 0 53.5 -6t52.5 -18q12 -3 24 -3t24 3q26 12 51 18t53 6q58 0 109 -26t89.5 -71t60.5 -105t22 -129q0 -68 -22 -128q-22 -61 -60 -106t-89 -71t-109 -26z" />
</svg>