<svg viewBox="0 0 1024 1024" xmlns="http://www.w3.org/2000/svg">
  <path transform="scale(1, -1) translate(0, -960)" fill="currentColor" d="M880 613q-35 43 -87 64t-115 16q-36 -4 -69 -12.5t-63 -21.5l-10 -5q-10 108 -51 169t-77 100q-5 5 -11.5 5t-10.5 -5q-5 -5 -5 -11t5 -11q34 -37 72 -92.5t48 -154.5q-35 14 -78.5 24.5t-78.5 14.5q-64 5 -115.5 -16t-86.5 -64q-24 -30 -39 -68q-14 -38 -18 -81.5 t2 -91.5t23 -100q27 -82 63 -143t79.5 -99.5t93.5 -53.5q49 -15 102 -3q14 3 28.5 8.5t30.5 13.5q14 -7 29.5 -13t29.5 -9q11 -3 22 -4t21 -1q47 0 89 20q43 21 80.5 59.5t69.5 95.5q32 56 56 129q17 52 23 100q6 49 2.5 92.5t-17.5 81.5q-14 37 -37 67zM880 282 q-24 -75 -57 -132q-32 -56 -71 -92t-83 -50t-90 -5q-14 4 -28.5 9t-30.5 14q-2 1 -4 1h-4h-4t-4 -1q-17 -9 -31 -14.5t-28 -8.5q-46 -9 -90 5q-43 14 -82 50t-72 92q-32 57 -57 132q-15 47 -21 92q-6 44 -2.5 84t15.5 74t32 60q30 38 74.5 55t99.5 14q39 -3 89.5 -16 t80.5 -29q4 -1 7.5 -1t6.5 1l31 14q29 12 59 20t64 11q55 5 99.5 -12.5t74.5 -54.5q21 -27 34 -61q12 -34 15 -74t-2 -85q-6 -44 -21 -92v0zM606 794v0q18 -10 42.5 -18t52.5 -8q7 0 14 1t15 2q26 5 52 22t50 45q7 8 9.5 17t0.5 19q-2 9 -7.5 16.5t-15.5 11.5q-23 12 -55 21 t-68 2q-40 -7 -67 -31t-37 -36q-6 -8 -8.5 -17t-1.5 -19q3 -9 9 -16.5t15 -11.5v0zM618 837q8 11 31 30.5t55 25.5q29 6 56 -2t46 -17q3 -2 4.5 -4t2.5 -3q0 -2 -0.5 -3.5t-2.5 -4.5q-22 -24 -43.5 -38.5t-43.5 -18.5q-29 -6 -55 1.5t-46 17.5q-2 1 -3.5 3t-2.5 3 q-1 4 -0.5 5.5t2.5 4.5z" />
</svg>