<svg viewBox="0 0 1024 1024" xmlns="http://www.w3.org/2000/svg">
  <path transform="scale(1, -1) translate(0, -960)" fill="currentColor" d="M870 184q-20 11 -37 26.5t-31 37.5q-21 31 -30.5 63.5t-9.5 67.5q0 33 9.5 63t28.5 59q8 11 19 23.5t24 24.5q3 2 4 4.5t1 6.5t-1 6.5t-4 4.5q-9 10 -18 17.5t-17 13.5q-24 16 -51.5 24.5t-58.5 8.5q-20 0 -42.5 -4.5t-49.5 -12.5q-28 -10 -49 -15t-34 -5q-6 0 -22 2 t-58 14q-29 9 -52 12.5t-42 3.5q-45 0 -80.5 -18t-65.5 -55q-29 -37 -44 -87t-15 -112q0 -63 20 -131t60 -139q40 -67 78 -101.5t76 -34.5q14 0 30 4.5t37 13.5q23 9 43.5 14t39.5 5t41.5 -5t46.5 -14q30 -11 47 -14.5t25 -3.5q31 0 63.5 26t66.5 76q18 27 32 54.5t25 54.5 q5 7 3 13t-8 8zM795 74v0v0q-27 -44 -54 -66t-50 -22q-3 0 -17 2.5t-44 13.5q-27 9 -52 14.5t-47 5.5q-23 0 -46 -5t-50 -17q-17 -7 -31 -10.5t-25 -3.5q-27 0 -60 31t-66 89q-37 67 -56 131t-19 123q0 55 13 100t39 78q26 31 55 46.5t65 15.5q16 0 37.5 -3.5t47.5 -10.5 q40 -12 59.5 -15t30.5 -3q17 0 40 5t54 16q24 8 44.5 12t37.5 4q26 0 49 -7t42 -20q5 -4 9 -7.5t10 -7.5q-11 -11 -19.5 -21.5t-15.5 -19.5q-22 -33 -32.5 -67.5t-10.5 -72.5q0 -39 11.5 -77t34.5 -73q15 -22 32 -38.5t37 -28.5q-12 -24 -25 -47t-28 -44zM526 717h5.5t4.5 1 q26 5 59.5 16.5t58.5 31.5q26 24 37 59.5t15 64.5q1 10 -2.5 21t-12.5 19q-8 8 -18.5 11.5t-21.5 0.5q-29 -4 -63.5 -15.5t-59.5 -35.5q-14 -14 -26 -44t-22 -74q-2 -12 1 -23.5t12 -19.5q6 -6 15 -9.5t18 -3.5zM510 768q9 38 18.5 65t20.5 37q21 18 51.5 28t55.5 14h1h1 q2 0 5 -1t6 -4q2 -2 3.5 -5.5t1.5 -7.5q-5 -36 -15.5 -62.5t-26.5 -41.5q-20 -16 -49 -26t-53 -15q-4 -1 -8 0t-7 5q-2 2 -3.5 5.5t-1.5 8.5v0z" />
</svg>