<svg viewBox="0 0 1024 1024" xmlns="http://www.w3.org/2000/svg">
  <path transform="scale(1, -1) translate(0, -960)" fill="currentColor" d="M195 600q-8 -10 -20.5 -17.5t-27.5 -4.5q-1 13 4 27t14 24q8 9 22 17t26 8q1 -18 -4 -31t-14 -23zM213 570q-21 1 -37 -7.5t-24 -8.5q-10 0 -24.5 8t-29.5 8q-21 0 -38.5 -11t-29.5 -29q-22 -38 -11.5 -86.5t31.5 -78.5q10 -16 23 -29.5t29 -13.5t25 6t27 6t27.5 -6 t26.5 -5q17 0 28.5 13t21.5 27q12 17 17 31.5t5 16.5l-21.5 15t-21.5 52q0 33 17 47t20 14q-16 22 -34.5 26.5t-26.5 4.5v0zM368 629v-303h48v104h66q44 0 73 27.5t29 72.5q0 44 -27.5 71.5t-71.5 27.5h-117v0zM416 589h54q30 0 47 -16t17 -45t-16 -45t-48 -16h-54v122z M667 322q22 0 41 10.5t30 27.5h1v-37h43v152q0 33 -23.5 52.5t-64.5 19.5q-37 0 -61.5 -18.5t-26.5 -48.5h40q2 13 14.5 22.5t30.5 9.5q21 0 33 -9.5t12 -27.5v-17l-59 -2q-41 -1 -62 -18t-21 -46q-2 -32 19.5 -51t53.5 -19v0zM680 358q-19 0 -29.5 8.5t-10.5 23.5 q0 14 11.5 22t33.5 10l51 2v-18q1 -21 -15.5 -34.5t-40.5 -13.5zM838 243q34 0 53 15.5t34 55.5l83 228h-48l-56 -179h-2l-56 179h-49l78 -220l-5 -12q-4 -16 -13 -24t-25 -8h-6.5h-6.5v-36q5 1 11.5 1h7.5v0v0z" />
</svg>