<svg viewBox="0 0 256 256" xmlns="http://www.w3.org/2000/svg">
  <path transform="scale(1, -1) translate(0, -256)" fill="currentColor" d="M160 192q-12 0 -25 -4v21q7 -2 14.5 -2t14.5 2q18 6 27 27q1 2 0 5t-3 4q-20 10 -38.5 4t-27.5 -27q-1 -1 -1 -3v-32q-12 5 -25 5q-22 0 -41 -12.5t-30 -34t-11 -47t11 -47t29.5 -34t41.5 -12.5q15 0 30 7q2 1 4 0q14 -7 30 -7q22 0 41 12.5t30 34t11 47t-11 47t-30 34 t-41 12.5zM154 236q9 3 20 -1q-6 -9 -15.5 -12.5t-20.5 0.5q7 9 16 13zM161 19q-13 0 -25 5q-4 2 -8 2t-8 -2q-12 -5 -24 -5q-19 0 -34.5 10.5t-24.5 29t-9 40t9 40t24.5 29t34.5 10.5q10 0 25 -5v0q8 -3 14 0v0q12 5 25 5q18 0 33.5 -10.5t25 -29t9.5 -40t-9 -40t-24.5 -29 t-33.5 -10.5z" />
</svg>