<svg viewBox="0 0 256 256" xmlns="http://www.w3.org/2000/svg">
  <path transform="scale(1, -1) translate(0, -256)" fill="currentColor" d="M219 65q-9 5 -16 15q-9 14 -9 30.5t8 29.5q3 4 11 12q2 2 2 4.5t-2 5.5q-5 5 -9 8q-13 8 -30 8q-10 0 -23.5 -4.5t-19.5 -4.5t-20 4t-24 4q-23 0 -38.5 -20t-15.5 -52t20.5 -68t41.5 -36q8 0 18 4.5t19 4.5t22 -4t19 -4q17 0 35 26q10 15 14 28q1 3 0.5 5.5t-3.5 3.5z M196 36q-13 -21 -23 -21q-5 0 -15 4q-13 5 -24.5 5t-26.5 -6q-8 -3 -12.5 -3t-10.5 4q-9 8 -19 24q-18 33 -18 63q0 26 12 41.5t28 15.5q8 0 20 -4q17 -5 23 -5q10 0 25 6q11 4 19 4q12 0 21 -6l2 -2q-4 -4 -7 -8q-12 -17 -12 -37.5t12 -38.5q6 -9 16 -16q-2 -9 -10 -20z M132 192h2q20 4 31 13l1 1q10 10 14 32q1 8 -4.5 13t-13.5 4q-21 -3 -32 -13q-9 -9 -13 -32q-1 -8 3.5 -13t11.5 -5zM131 207q2 12 5 19q2 4 3 5q8 7 25 10l1 -1q-2 -16 -9.5 -23.5t-23.5 -10.5h-1v1z" />
</svg>