<svg viewBox="0 0 256 256" xmlns="http://www.w3.org/2000/svg">
  <path transform="scale(1, -1) translate(0, -256)" fill="currentColor" d="M228 212h-14v16q0 3 -2.5 5.5t-5.5 2.5t-5 -2.5t-2 -5.5v-16h-143v16q0 3 -2 5.5t-5 2.5t-5 -2.5t-2 -5.5v-16h-14q-10 0 -16.5 -7t-6.5 -16v-145q0 -10 6.5 -17t16.5 -7h200q10 0 16.5 7t6.5 17v145q0 9 -6.5 16t-16.5 7zM28 198h14v-16q0 -3 2.5 -5t5.5 -2t5 2t2 5v16 h143v-16q0 -3 2 -5t5 -2t5 2t2 5v16h14q4 0 6.5 -2.5t2.5 -6.5v-31h-218v31q0 4 2.5 6.5t6.5 2.5zM228 34h-200q-4 0 -6.5 3t-2.5 7v100h218v-100q0 -4 -2.5 -7t-6.5 -3zM154 96h-19v19q0 3 -2 5t-5 2t-5 -2t-2 -5v-19h-19q-3 0 -5 -2t-2 -5t2 -5t5 -2h19v-18q0 -3 2 -5 t5 -2t5 2t2 5v18h19q3 0 5 2.5t2 5.5t-2 4.5t-5 1.5z" />
</svg>