<svg viewBox="0 0 1024 1024" xmlns="http://www.w3.org/2000/svg">
  <path transform="scale(1, -1) translate(0, -960)" fill="currentColor" d="M912 771h-69v79q0 7 -4.5 11.5t-11.5 4.5t-11.5 -4.5t-4.5 -11.5v-79h-598v79q0 7 -4.5 11.5t-11.5 4.5t-11.5 -4.5t-4.5 -11.5v-79h-69q-34 0 -57 -23t-23 -57v-581q0 -33 23 -56.5t57 -23.5h800q34 0 57 23.5t23 56.5v581q0 34 -23 57t-57 23v0zM112 739h69v-77 q0 -7 4.5 -11.5t11.5 -4.5t11.5 4.5t4.5 11.5v77h597v-77q0 -7 4 -11.5t12 -4.5q7 0 11.5 4.5t4.5 11.5v77h70q20 0 34 -13.5t14 -34.5v-133h-896v133q0 21 14 34.5t34 13.5v0zM912 62h-800q-20 0 -34 14t-14 34v416h896v-416q0 -20 -14 -34t-34 -14zM614 310h-86v87 q0 7 -4.5 11.5t-11.5 4.5t-11.5 -4.5t-4.5 -11.5v-87h-86q-8 0 -12 -4t-4 -12q0 -7 4 -11.5t12 -4.5h86v-86q0 -7 4.5 -11.5t11.5 -4.5t11.5 4.5t4.5 11.5v86h86q8 0 12 4.5t4 11.5q0 8 -5 12t-11 4z" />
</svg>