<svg viewBox="0 0 1024 1024" xmlns="http://www.w3.org/2000/svg">
  <path transform="scale(1, -1) translate(0, -960)" fill="currentColor" d="M928 926h-56q-26 0 -45 -18.5t-19 -45.5v-12q-78 -11 -148 -33q-71 -21 -134 -53.5t-118 -77.5q-56 -44 -106 -100q-60 -68 -97 -137t-57.5 -128.5t-28.5 -104.5q-8 -44 -10 -62h-13q-26 0 -45 -19t-19 -45v-56q0 -27 19 -45.5t45 -18.5h56q26 0 45 18.5t19 45.5v56 q0 26 -19 45t-45 19h-11q2 18 11 61q8 44 28 100.5t56 121.5q35 65 90 128q48 53 101 96q53 42 113 73.5t127 52.5q67 20 141 31v-10q0 -26 19 -45t45 -19h56q26 0 45 19t19 45v54q0 27 -19 45.5t-45 18.5v0zM184 90v-56q0 -14 -9.5 -23t-22.5 -9h-56q-13 0 -22.5 9t-9.5 23 v56q0 13 9.5 22.5t22.5 9.5h56q13 0 22.5 -9.5t9.5 -22.5zM960 806q0 -13 -9.5 -22.5t-22.5 -9.5h-56q-13 0 -22.5 9.5t-9.5 22.5v56q0 14 9.5 23t22.5 9h56q13 0 22.5 -9t9.5 -23v-56z" />
</svg>