<svg viewBox="0 0 256 256" xmlns="http://www.w3.org/2000/svg">
  <path transform="scale(1, -1) translate(0, -256)" fill="currentColor" d="M232 251h-14q-8 0 -13.5 -5.5t-5.5 -13.5v-1q-77 -11 -126 -67q-24 -27 -38 -63q-8 -23 -11 -44v0q-8 0 -13.5 -5.5t-5.5 -13.5v-14q0 -8 5.5 -13.5t13.5 -5.5h14q8 0 13.5 5.5t5.5 13.5v14q0 8 -5 13t-13 6q3 20 11 40q12 33 34 58q45 51 115 61q0 -7 5.5 -12.5 t13.5 -5.5h14q8 0 13.5 6t5.5 14v14q0 8 -5.5 13.5t-13.5 5.5zM43 38v-14q0 -2 -1.5 -3.5t-3.5 -1.5h-14q-2 0 -3.5 1.5t-1.5 3.5v14q0 3 1.5 4.5t3.5 1.5h14q2 -1 3.5 -2.5t1.5 -3.5zM237 218q0 -3 -1.5 -4.5t-3.5 -1.5h-14q-2 0 -3.5 2t-1.5 4v14q0 2 1.5 3.5t3.5 1.5h14 q2 0 3.5 -1.5t1.5 -3.5v-14z" />
</svg>