<svg viewBox="0 0 256 256" xmlns="http://www.w3.org/2000/svg">
  <path transform="scale(1, -1) translate(0, -256)" fill="currentColor" d="M228 188h-2v27q0 10 -7 16.5t-17 6.5h-31q-10 0 -16.5 -6.5t-6.5 -16.5v-27h-40v27q0 10 -6.5 16.5t-16.5 6.5h-31q-10 0 -17 -6.5t-7 -16.5v-27h-2q-9 0 -16 -6.5t-7 -16.5v-124q0 -9 7 -16t16 -7h49q9 0 16 7t7 16v30q0 11 8 19.5t20 8.5t20 -8t8 -20v-29 q0 -10 6.5 -17t16.5 -7h48q10 0 16.5 7t6.5 17v124q1 9 -6 15.5t-16 6.5zM162 215q0 4 2.5 6.5t6.5 2.5h31q4 0 7 -2.5t3 -6.5v-27h-50v27zM44 215q0 4 3 6.5t7 2.5h31q4 0 6.5 -2.5t2.5 -6.5v-27h-50v27zM237 41q0 -4 -2.5 -6.5t-6.5 -2.5h-49q-4 0 -6.5 2.5t-2.5 6.5v29 q0 18 -12.5 30t-29.5 12t-29.5 -12t-12.5 -30v-29q0 -4 -2.5 -6.5t-6.5 -2.5h-49q-4 0 -6.5 2.5t-2.5 6.5v124q0 4 2.5 6.5t6.5 2.5h200q4 0 6.5 -2.5t2.5 -6.5v-124z" />
</svg>