<svg viewBox="0 0 1024 1024" xmlns="http://www.w3.org/2000/svg">
  <path transform="scale(1, -1) translate(0, -960)" fill="currentColor" d="M976 715h-58v69q0 29 -20.5 49.5t-49.5 20.5h-672q-29 0 -49.5 -20.5t-20.5 -49.5v-69h-58q-7 0 -11.5 -4.5t-4.5 -11.5t4.5 -11.5t11.5 -4.5h58v-609h-39q-7 0 -11.5 -4.5t-4.5 -11.5q0 -8 4.5 -12t11.5 -4h890q7 0 11.5 4t4.5 12q0 7 -4.5 11.5t-11.5 4.5h-39v609h58 q7 0 11.5 4.5t4.5 11.5t-4.5 11.5t-11.5 4.5v0zM138 784q0 16 11 27t27 11h672q16 0 27 -11t11 -27v-69h-748v69v0zM574 74h-163v275q0 42 29.5 71.5t71.5 29.5t71.5 -29.5t29.5 -71.5v-275h-39v0zM886 74h-240v275q0 55 -38.5 94t-93.5 39q-56 0 -94.5 -39t-38.5 -94v-275 h-240v609h747v-609h-2z" />
</svg>