<svg viewBox="0 0 1024 1024" xmlns="http://www.w3.org/2000/svg">
  <path transform="scale(1, -1) translate(0, -960)" fill="currentColor" d="M922 886h-820q-28 0 -49 -21t-21 -51v-100q0 -29 21 -50t49 -21h13v-561q0 -29 21 -50t50 -21h649q29 0 50 21t21 50v561h12q29 0 50 21t21 50v100q2 30 -18.5 51t-48.5 21v0zM875 82q0 -16 -11.5 -27.5t-26.5 -11.5h-650q-15 0 -26.5 11.5t-11.5 27.5v561h728v-561h-2z M960 714q0 -16 -11.5 -27.5t-26.5 -11.5h-820q-15 0 -26.5 11.5t-11.5 27.5v100q0 16 11.5 27.5t26.5 11.5h818q16 0 27 -11.5t11 -27.5v-100h2zM376 264h274q20 0 34 14t14 34v104q0 20 -14 34t-34 14h-274q-20 0 -34 -14t-14 -34v-104q0 -20 14 -34t34 -14zM360 416 q0 7 4.5 11.5t11.5 4.5h274q7 0 11.5 -4.5t4.5 -11.5v-104q0 -7 -4.5 -11.5t-11.5 -4.5h-274q-7 0 -11.5 4.5t-4.5 11.5v104z" />
</svg>