<svg viewBox="0 0 256 256" xmlns="http://www.w3.org/2000/svg">
  <path transform="scale(1, -1) translate(0, -256)" fill="currentColor" d="M244 184q3 0 5 2t2 5t-2 5t-5 2h-12v14q0 9 -6 15t-14 6h-168q-9 0 -15 -6t-6 -15v-14h-11q-3 0 -5 -2.5t-2 -5.5t2 -4.5t5 -1.5h12v-147h-7q-3 0 -5 -2t-2 -5t2 -5t5 -2h223q3 0 5 2t2 5t-2 5t-5 2h-7v147h11zM38 212q0 3 1.5 5t4.5 2h168q3 0 5 -2t2 -5v-14h-181v14z M144 37h-38v66q0 9 6.5 16t15.5 7t15.5 -7t6.5 -16v-66h-6zM218 37h-54v66q0 15 -10.5 26t-25.5 11t-25.5 -11t-10.5 -26v-66h-54v147h180v-147z" />
</svg>