<svg viewBox="0 0 256 256" xmlns="http://www.w3.org/2000/svg">
  <path transform="scale(1, -1) translate(0, -256)" fill="currentColor" d="M244 108q-3 0 -5 -1.5t-2 -4.5l-6 -64l-1 -3l-103 104q-2 2 -5 2t-5 -2t-2 -5t2 -5l103 -104l-66 -6q-3 -1 -5 -3t-1.5 -5t2 -4.5t4.5 -1.5l64 5q11 1 18.5 8.5t8.5 18.5l5 63q1 3 -1 5.5t-5 2.5zM73 251h-49q-7 0 -13 -5.5t-6 -13.5v-48q0 -8 5.5 -14t13.5 -6h49 q8 0 13.5 6t5.5 14v48q0 8 -5.5 13.5t-13.5 5.5zM78 184q0 -2 -1.5 -4t-3.5 -2h-49q-2 0 -3.5 2t-1.5 4v48q0 2 1.5 3.5t3.5 1.5h49q2 0 3.5 -1.5t1.5 -3.5v-48z" />
</svg>