<svg viewBox="0 0 1024 1024" xmlns="http://www.w3.org/2000/svg">
  <path transform="scale(1, -1) translate(0, -960)" fill="currentColor" d="M973 502l-125 149q-5 5 -11.5 6t-10.5 -4q-5 -5 -6 -11.5t4 -11.5l125 -148q3 -4 5.5 -8.5t3.5 -9.5v0v0h-329v171q0 7 -4.5 11.5t-11.5 4.5t-11.5 -4.5t-4.5 -11.5v-373q0 -7 4.5 -11.5t11.5 -4.5t11.5 4.5t4.5 11.5v170h328v0v0q-1 -5 -3.5 -9.5t-6.5 -8.5l-125 -148 q-4 -5 -3.5 -12t5.5 -11q2 -2 4.5 -2.5t5.5 -0.5t6.5 1.5t5.5 4.5l125 149q21 23 21 53t-19 54v0zM411 651q-7 0 -11.5 -4.5t-4.5 -11.5v-171h-328v0v0q1 5 3.5 9.5t6.5 8.5l125 148q4 5 3.5 12t-5.5 11q-5 5 -12 4t-10 -6l-125 -149q-19 -24 -19 -54t19 -53l125 -149 q2 -2 5.5 -4t6.5 -2t6 1t4 2q5 5 5.5 11.5t-3.5 11.5l-125 148q-4 4 -6.5 8.5t-3.5 9.5v0v0h328v-171q0 -7 4.5 -11.5t11.5 -4.5t11.5 4.5t4.5 11.5v374q0 6 -5 11t-11 5v0z" />
</svg>