<svg viewBox="0 0 1024 1024" xmlns="http://www.w3.org/2000/svg">
  <path transform="scale(1, -1) translate(0, -960)" fill="currentColor" d="M973 499l-115 138q-5 5 -11.5 5.5t-11.5 -4.5q-5 -4 -5.5 -10.5t4.5 -11.5l115 -138q2 -3 4.5 -6.5t3.5 -7.5h-722h-3.5t-2.5 -2q-5 36 -33 60.5t-65 24.5q-41 0 -70 -29t-29 -70t29 -70t70 -29q37 0 65 24.5t33 60.5q1 -2 3 -2h3h722q-1 -4 -3.5 -7.5t-4.5 -6.5 l-115 -138q-5 -5 -4.5 -12t5.5 -10q3 -3 5 -3.5t5 -0.5t6.5 1.5t6.5 5.5l115 137q19 22 19 50t-19 51v0zM131 381q-27 0 -47 19.5t-20 47.5t20 47.5t47 19.5q28 0 47.5 -19.5t19.5 -47.5t-19.5 -47.5t-47.5 -19.5z" />
</svg>