<svg viewBox="0 0 1024 1024" xmlns="http://www.w3.org/2000/svg">
  <path transform="scale(1, -1) translate(0, -960)" fill="currentColor" d="M442 464h-364l66 70q5 5 5 11.5t-5 11.5t-11.5 5t-10.5 -5l-82 -87q-8 -9 -8 -21t8 -22l82 -86q2 -3 5 -4t6 -1q2 0 5.5 1t5.5 4q5 5 5 11t-5 11l-66 69h364q7 0 11.5 4.5t4.5 11.5t-5 11.5t-11 4.5v0zM976 464h-362l66 70q5 5 5 11.5t-5 11.5t-11.5 5t-10.5 -5l-82 -87 q-8 -9 -8 -21t8 -22l82 -86q2 -3 5 -4t6 -1q2 0 5.5 1t5.5 4q5 5 5 11t-5 11l-67 69h363q7 0 11.5 4.5t4.5 11.5t-4.5 11.5t-11.5 4.5v0z" />
</svg>