<svg viewBox="0 0 1024 1024" xmlns="http://www.w3.org/2000/svg">
  <path transform="scale(1, -1) translate(0, -960)" fill="currentColor" d="M670 120l-129 -109q-3 -2 -6 -3.5l-5 -2.5v888q3 -1 5.5 -3t5.5 -4l129 -108q5 -5 12 -4.5t11 5.5q5 5 4 12t-6 11l-131 108q-22 18 -49 18t-47 -18l-130 -108q-4 -5 -5 -11.5t4 -11.5t11 -5.5t11 4.5l130 108q2 3 5.5 4.5t5.5 2.5v-890q-4 1 -6.5 3t-4.5 4l-130 108 q-5 5 -12 4.5t-10 -5.5q-5 -5 -4 -12t5 -11l130 -108q11 -9 23 -13.5t25 -4.5t25 4.5t23 13.5l130 108q4 5 5 11.5t-4 11.5t-10.5 6t-10.5 -3v0z" />
</svg>