<svg viewBox="0 0 1024 1024" xmlns="http://www.w3.org/2000/svg">
  <path transform="scale(1, -1) translate(0, -960)" fill="currentColor" d="M704 126q-5 5 -11.5 6t-10.5 -4l-140 -117q-3 -2 -6.5 -4.5t-7.5 -3.5v725h51q13 0 22.5 9.5t9.5 22.5v136q0 13 -9.5 22.5t-22.5 9.5h-136q-13 0 -22.5 -9.5t-9.5 -22.5v-136q0 -13 9.5 -22.5t22.5 -9.5h53v-725q-4 1 -7.5 3.5t-6.5 4.5l-140 117q-4 5 -11 4t-11 -6 q-5 -4 -4 -11t6 -11l139 -117q11 -9 24.5 -14t26.5 -5t26.5 5t24.5 14l139 117q5 4 6 11t-4 11v0zM445 896h136v-136h-136v136v0z" />
</svg>