<svg viewBox="0 0 1024 1024" xmlns="http://www.w3.org/2000/svg">
  <path transform="scale(1, -1) translate(0, -960)" fill="currentColor" d="M893 547q-37 0 -65 -24.5t-33 -60.5q-1 2 -3 2h-3h-722q1 4 3.5 7.5t4.5 6.5l115 138q5 5 4.5 12t-5.5 10q-5 5 -12 4.5t-11 -5.5l-115 -138q-18 -21 -18 -50t18 -51l115 -137q3 -3 6.5 -5t6.5 -2t6 1t4 3q5 4 5.5 10.5t-4.5 11.5l-115 138q-2 3 -4.5 6.5t-3.5 7.5h722 h3.5t2.5 2q5 -36 33 -60.5t65 -24.5q41 0 70 29t29 70t-29 70t-70 29zM893 381q-28 0 -47.5 19.5t-19.5 47.5t19.5 47.5t47.5 19.5q27 0 47 -19.5t20 -47.5t-20 -47.5t-47 -19.5z" />
</svg>