<svg viewBox="0 0 256 256" xmlns="http://www.w3.org/2000/svg">
  <path transform="scale(1, -1) translate(0, -256)" fill="currentColor" d="M128 5q-33 0 -61.5 16.5t-45 45t-16.5 61.5t16.5 61.5t45 45t61.5 16.5t61.5 -16.5t45 -45t16.5 -61.5t-16.5 -61.5t-45 -45t-61.5 -16.5zM128 237q-30 0 -54.5 -15t-39.5 -39.5t-15 -54.5t15 -55t40 -39.5t54 -14.5t54 14.5t40 39.5t15 55t-15 54.5t-39.5 39.5t-54.5 15 zM128 55q-8 0 -14 5l-22 22q-2 3 -2 5.5t2 5t4.5 2.5t5.5 -3l19 -19v118q0 3 2 5t5 2t5.5 -2t2.5 -5v-118l19 19q2 2 5 2.5t5 -2t2 -5t-2 -5.5l-22 -22q-8 -5 -15 -5z" />
</svg>