<svg viewBox="0 0 256 256" xmlns="http://www.w3.org/2000/svg">
  <path transform="scale(1, -1) translate(0, -256)" fill="currentColor" d="M83 135h-60l24 29q2 2 2 4.5t-2.5 4.5t-5.5 2t-5 -2l-26 -31q-5 -6 -5 -14t5 -14l26 -31q2 -2 5 -2t5 1.5t2 4.5t-2 5l-24 29h60q3 0 5.5 2t2.5 5t-2 5t-5 2zM246 142l-26 31q-2 2 -5 2t-5 -1.5t-2.5 -4.5t1.5 -5l25 -29h-61q-3 0 -5 -2t-2 -5t2 -5.5t5 -2.5h60l-24 -28 q-2 -2 -1.5 -5t2.5 -5t5 -2t5 3l26 31q5 6 5 14t-5 14zM128 179q-3 0 -5 -2t-2 -5v-89q0 -3 2 -5t5 -2t5 2t2 5v89q0 3 -2 5t-5 2z" />
</svg>