<svg viewBox="0 0 1024 1024" xmlns="http://www.w3.org/2000/svg">
  <path transform="scale(1, -1) translate(0, -960)" fill="currentColor" d="M542 746l140 -117q2 -3 4.5 -3h4.5q4 0 7.5 1t5.5 5q5 5 4 12t-6 10l-139 117q-21 18 -50 18t-51 -18l-139 -117q-5 -4 -5.5 -10.5t4.5 -11.5q4 -5 10.5 -5.5t11.5 3.5l139 117q4 3 7.5 5t7.5 3v-611q-4 1 -7.5 3.5t-7.5 4.5l-139 117q-6 2 -12.5 1.5t-9.5 -4.5 q-4 -5 -4 -12t5 -11l139 -117q11 -9 24 -14t28 -5q14 0 27 5t24 14l139 117q5 5 5.5 11.5t-3.5 11.5q-5 4 -11.5 5t-11.5 -4l-139 -117q-4 -2 -7.5 -4t-6.5 -4v612q2 -2 5.5 -4t6.5 -4v0zM315 896h394q7 0 11.5 4.5t4.5 11.5t-4.5 11.5t-11.5 4.5h-394q-7 0 -11.5 -4.5 t-4.5 -11.5t5 -11.5t11 -4.5v0zM709 0h-394q-7 0 -11.5 -4.5t-4.5 -11.5t4.5 -11.5t11.5 -4.5h394q7 0 11.5 4.5t4.5 11.5t-5 11.5t-11 4.5z" />
</svg>