<svg viewBox="0 0 256 256" xmlns="http://www.w3.org/2000/svg">
  <path transform="scale(1, -1) translate(0, -256)" fill="currentColor" d="M128 5q-33 0 -61.5 16.5t-45 45t-16.5 61.5t16.5 61.5t45 45t61.5 16.5t61.5 -16.5t45 -45t16.5 -61.5t-16.5 -61.5t-45 -45t-61.5 -16.5zM128 237q-30 0 -54.5 -15t-39.5 -39.5t-15 -54.5t15 -54.5t39.5 -39.5t54.5 -15t55 15t39.5 40t14.5 54t-14.5 54t-39.5 40t-55 15 zM88 90q-3 0 -5 2l-22 22q-6 6 -6 14t6 14l22 22q2 2 5 2t5 -2t2 -5t-2 -5l-19 -20h118q3 0 5 -2t2 -5t-2 -5t-5 -2h-118l19 -20q2 -2 2 -4.5t-2 -5.5h-5z" />
</svg>