<svg viewBox="0 0 256 256" xmlns="http://www.w3.org/2000/svg">
  <path transform="scale(1, -1) translate(0, -256)" fill="currentColor" d="M35 231q1 0 2 1l65 6q3 0 5 2t1.5 5t-2.5 5t-5 2l-64 -6q-11 -1 -18.5 -8.5t-8.5 -18.5l-5 -63q0 -3 2 -5.5t5 -2.5v0q3 0 5 2t2 4l5 64q0 2 1 3l104 -104q2 -2 5 -2t5 2t2 5t-2 5zM232 91h-49q-8 0 -13.5 -5.5t-5.5 -13.5v-49q0 -8 5.5 -13.5t13.5 -5.5h49q8 0 13.5 5.5 t5.5 13.5v49q0 8 -5.5 13.5t-13.5 5.5zM237 24q0 -2 -1.5 -4t-3.5 -2h-49q-2 0 -3.5 1.5t-1.5 4.5v48q0 3 1.5 4.5t3.5 1.5h49q2 0 3.5 -1.5t1.5 -4.5v-48z" />
</svg>