<svg viewBox="0 0 1024 1024" xmlns="http://www.w3.org/2000/svg">
  <path transform="scale(1, -1) translate(0, -960)" fill="currentColor" d="M725 366q-30 35 -30 81t30 81l264 314q5 4 4 11t-6 11q-5 5 -12 4t-10 -6l-264 -312q-37 -44 -37 -101t37 -102l262 -313q3 -3 6 -5t7 -2q2 0 5 1t5 2q4 5 5 11.5t-4 11.5l-262 313v0zM61 862q-5 5 -11.5 6t-11.5 -4q-4 -5 -5 -11.5t4 -10.5l262 -314q30 -35 30 -81 t-30 -81l-264 -312q-5 -4 -4 -11t6 -11q2 -2 4.5 -2.5t4.5 -0.5q4 0 7.5 1.5t5.5 4.5l263 314q37 44 37 101.5t-37 101.5l-261 310v0z" />
</svg>