<svg viewBox="0 0 256 256" xmlns="http://www.w3.org/2000/svg">
  <path transform="scale(1, -1) translate(0, -256)" fill="currentColor" d="M174 164q-2 2 -5 2.5t-5.5 -2t-2.5 -5t3 -5.5l19 -19h-118q-3 0 -5 -2t-2 -5t2 -5.5t5 -2.5h118l-19 -19q-2 -2 -2 -5t2 -5t4.5 -2t4.5 2l22 22q6 6 6 14t-6 14zM128 251q-33 0 -61.5 -16.5t-45 -45t-16.5 -61.5t16.5 -61.5t45 -45t61.5 -16.5t61.5 16.5t45 45t16.5 61.5 t-16.5 61.5t-45 45t-61.5 16.5zM128 19q-30 0 -55 14.5t-39.5 39.5t-14.5 54.5t14.5 54.5t39.5 40t55 15t55 -15t39.5 -40t14.5 -54.5t-14.5 -54.5t-39.5 -39.5t-55 -14.5z" />
</svg>