<svg viewBox="0 0 1024 1024" xmlns="http://www.w3.org/2000/svg">
  <path transform="scale(1, -1) translate(0, -960)" fill="currentColor" d="M984 470l-93 93q-9 10 -22 10t-23 -10l-92 -93q-2 -1 -3 -3t-2 -3h-683q1 4 3 7t5 6l113 136q5 5 4 12t-5 10q-5 5 -12 4t-11 -5l-115 -136q-18 -22 -18 -50t18 -51l114 -136q2 -3 5.5 -5t6.5 -2t6 1t4 3q5 4 5.5 10.5t-3.5 11.5l-114 136q-2 4 -4.5 6.5t-3.5 6.5h683 q1 -1 2.5 -3t2.5 -4l93 -92q5 -5 10.5 -7.5t11.5 -2.5t12 2.5t11 7.5l92 92q11 12 11.5 25.5t-9.5 22.5zM869 355l-93 93l93 93l93 -93z" />
</svg>