<svg viewBox="0 0 1024 1024" xmlns="http://www.w3.org/2000/svg">
  <path transform="scale(1, -1) translate(0, -960)" fill="currentColor" d="M717 637q-5 5 -11.5 5.5t-11.5 -4.5q-4 -4 -5 -10.5t4 -11.5l117 -139q2 -4 4 -7.5t4 -7.5h-612q2 4 4 7.5t4 7.5l117 139q5 5 4 12t-5 10q-5 5 -12 4.5t-11 -5.5l-117 -139q-18 -22 -18 -51t18 -50l117 -139q3 -3 6 -5t7 -2q2 0 5 1t5 2q4 5 5 11.5t-4 11.5l-117 139 q-2 4 -4 7.5t-4 6.5h612q-2 -3 -4 -6.5t-4 -7.5l-117 -139q-4 -4 -3.5 -10t4.5 -9q3 -3 5.5 -3.5t4.5 -0.5q4 0 7 1.5t6 5.5l117 139q18 22 18 50.5t-18 50.5zM976 661q-7 0 -11.5 -4.5t-4.5 -11.5v-394q0 -7 4.5 -11.5t11.5 -4.5t11.5 4.5t4.5 11.5v394q0 6 -4.5 11 t-11.5 5v0zM48 661q-7 0 -11.5 -4.5t-4.5 -11.5v-394q0 -7 4.5 -11.5t11.5 -4.5t11.5 4.5t4.5 11.5v394q0 6 -4.5 11t-11.5 5v0z" />
</svg>