<svg viewBox="0 0 256 256" xmlns="http://www.w3.org/2000/svg">
  <path transform="scale(1, -1) translate(0, -256)" fill="currentColor" d="M246 223q-1 10 -7 16.5t-16 6.5l-52 5q-3 0 -5 -2t-2.5 -5t1.5 -5t5 -2l52 -5l-58 -58q-2 -2 -2 -5t2 -5t5 -2t5 2l58 58l5 -52q0 -3 2 -5t5 -2v0q3 1 5 3t2 5zM92 92q-2 2 -5 2t-5 -2l-58 -58l-5 52q-1 3 -3 5t-5 1.5t-4.5 -2.5t-1.5 -5l4 -52q1 -10 7.5 -16.5 t15.5 -6.5l54 -5q2 0 4 2t2.5 5t-1.5 5t-5 2l-52 5l58 58q2 2 2 5t-2 5zM92 174q-2 2 -4.5 2t-5 -2.5t-2.5 -5t2 -4.5l82 -82q2 -2 4.5 -2t4.5 2.5t2 5t-2 4.5z" />
</svg>