<svg viewBox="0 0 1024 1024" xmlns="http://www.w3.org/2000/svg">
  <path transform="scale(1, -1) translate(0, -960)" fill="currentColor" d="M976 357q-7 0 -11.5 -4.5t-6.5 -10.5l-22 -254q-1 -10 -3.5 -18t-7.5 -16q0 2 -1 4t-2 3l-423 421q-5 4 -11 4t-11 -4q-5 -5 -5 -11.5t5 -11.5l422 -422q1 -1 2.5 -2t4.5 -1q-8 -5 -16 -8.5t-18 -3.5l-256 -22q-6 0 -11 -5t-3 -13q0 -6 5 -10t11 -4h0.5h0.5l255 22 q38 4 65 31t31 65l22 255q0 5 -5 10t-11 6v0zM291 928h-193q-27 0 -45.5 -19t-18.5 -45v-194q0 -26 18.5 -45t45.5 -19h193q27 0 45.5 19t18.5 45v194q0 26 -18.5 45t-45.5 19zM323 670q0 -13 -9.5 -22.5t-22.5 -9.5h-193q-14 0 -23 9.5t-9 22.5v194q0 13 9 22.5t23 9.5h193 q13 0 22.5 -9.5t9.5 -22.5v-194z" />
</svg>