<svg viewBox="0 0 1024 1024" xmlns="http://www.w3.org/2000/svg">
  <path transform="scale(1, -1) translate(0, -960)" fill="currentColor" d="M976 651q-7 0 -11.5 -4.5t-4.5 -11.5v-171h-328v0v0q1 5 3.5 9.5t6.5 8.5l124 148q5 5 4.5 12t-5.5 11q-5 5 -12 4t-11 -6l-124 -149q-20 -24 -20 -54t20 -53l124 -149q3 -2 6.5 -4t6.5 -2t6 1t4 2q5 5 5.5 11.5t-4.5 11.5l-124 148q-4 4 -6.5 8.5t-3.5 9.5v0v0h328v-171 q0 -7 4.5 -11.5t11.5 -4.5t11.5 4.5t4.5 11.5v374q0 6 -4.5 11t-11.5 5v0zM282 651q-5 5 -11.5 6t-11.5 -4t-5.5 -11.5t4.5 -11.5l124 -148q4 -4 6.5 -8.5t3.5 -9.5v0v0h-328v171q0 7 -4.5 11.5t-11.5 4.5t-11.5 -4.5t-4.5 -11.5v-373q0 -7 4.5 -11.5t11.5 -4.5t11.5 4.5 t4.5 11.5v170h328v0v0q-1 -5 -3.5 -9.5t-6.5 -8.5l-124 -148q-5 -5 -4.5 -12t5.5 -11q3 -2 5 -2.5t5 -0.5t6.5 1.5t6.5 4.5l124 149q20 24 20 54.5t-20 52.5l-124 149v0z" />
</svg>