<svg viewBox="0 0 256 256" xmlns="http://www.w3.org/2000/svg">
  <path transform="scale(1, -1) translate(0, -256)" fill="currentColor" d="M198 160h-6q-3 0 -5 -2t-2 -5t2 -5t5 -2h6q3 0 5.5 -2.5t2.5 -6.5v-85q0 -1 -1 -2t-2 -1h-150q-1 0 -2 1t-1 2v86q0 3 2.5 5.5t5.5 2.5h4q3 0 5 2t2 5t-2.5 5t-4.5 2h-4q-9 0 -15.5 -6.5t-6.5 -15.5v-86q0 -7 5 -12t12 -5h53l-3 -22q-1 -3 1 -5.5t6 -2.5h36q4 0 6 2.5 t1 5.5l-3 22h53q7 0 12 5t5 12v86q0 9 -6.5 15.5t-15.5 6.5zM138 19h-20l2 16h15zM132 126q19 0 33 13.5t14 32.5q0 3 -2 5.5t-5 2.5t-5.5 -2.5t-2.5 -5.5q0 -13 -9.5 -22.5t-23 -9.5t-23 9.5t-9.5 23t9.5 23t23.5 9.5q5 0 8 -1t6 0.5t3.5 4t-0.5 5.5t-4 4q-8 2 -13 2 q-20 0 -33.5 -14t-13.5 -33.5t14 -33t33 -13.5zM132 181q-3 -2 -3 -4.5t2 -5t5 -2.5t5 1l49 44h23q3 0 5 2t2 5t-2 5t-5 2h-19v16q0 3 -2 5t-5 2t-4.5 -2t-1.5 -5v-20zM123 172q0 3 -2 5.5t-5 2.5t-5 -2.5t-2 -5.5q0 -9 6.5 -15.5t16.5 -6.5q3 0 5 2t2 5t-2 5t-5.5 2t-6 2.5 t-2.5 5.5z" />
</svg>