<svg viewBox="0 0 256 256" xmlns="http://www.w3.org/2000/svg">
  <path transform="scale(1, -1) translate(0, -256)" fill="currentColor" d="M168 171q2 -2 5 -2t5 2.5t1.5 5t-2.5 5.5l-35 29q-6 5 -14 5t-15 -5l-35 -29q-2 -2 -2 -5t1.5 -5.5t4.5 -2.5t6 2l33 28v-142l-33 28q-2 2 -5 2t-5 -2.5t-2 -5t2 -5.5l35 -29q7 -5 15 -5t15 5l35 29q2 2 2 5t-1.5 5.5t-4.5 2.5t-6 -2l-33 -28v142zM79 237h98q3 0 5 2t2 5 t-2 5t-5 2h-98q-3 0 -5 -2t-2 -5t2 -5t5 -2zM177 19h-98q-3 0 -5 -2t-2 -5t2 -5.5t5 -2.5h98q3 0 5 2.5t2 5.5t-2 5t-5 2z" />
</svg>