<svg viewBox="0 0 1024 1024" xmlns="http://www.w3.org/2000/svg">
  <path transform="scale(1, -1) translate(0, -960)" fill="currentColor" d="M960 547h-136q-13 0 -22.5 -9.5t-9.5 -22.5v-51h-725q1 4 3.5 7.5t4.5 6.5l117 140q5 4 4 11t-6 11q-4 5 -11 4t-11 -6l-117 -139q-19 -23 -19 -51t19 -51l117 -139q2 -3 5.5 -5t7.5 -2q2 0 5 1t4 2q5 5 6 11.5t-4 11.5l-117 139q-2 4 -4.5 7.5t-3.5 6.5h725v-51 q0 -13 9.5 -22.5t22.5 -9.5h136q13 0 22.5 9.5t9.5 22.5v136q0 13 -9.5 22.5t-22.5 9.5v0zM960 381h-136v136h136v-136z" />
</svg>