<svg viewBox="0 0 1024 1024" xmlns="http://www.w3.org/2000/svg">
  <path transform="scale(1, -1) translate(0, -960)" fill="currentColor" d="M350 778q3 0 6 1t4 2l125 105q2 3 4.5 4.5t4.5 2.5v-266q0 -7 4.5 -11.5t11.5 -4.5q8 0 12 4.5t4 11.5v266q3 -1 5.5 -2.5t4.5 -4.5l125 -105q5 -5 12 -4t10 5q5 5 4 12t-5 11l-125 105q-21 17 -47.5 17t-45.5 -17l-125 -105q-5 -5 -5.5 -11.5t4.5 -11.5q2 -2 5.5 -3 t6.5 -1v0zM662 115l-124 -105q-3 -3 -5.5 -4.5t-4.5 -2.5v266q0 7 -4.5 11.5t-11.5 4.5t-11.5 -4.5t-4.5 -11.5v-266q-2 1 -4.5 2.5t-5.5 4.5l-124 105q-5 5 -12 4t-11 -5q-5 -5 -4 -12t6 -11l125 -105q9 -9 21.5 -13.5t24.5 -4.5t24.5 4.5t21.5 13.5l125 105q5 5 6 11.5 t-4 11.5q-5 4 -11 4.5t-12 -3.5zM690 464h-356q-7 0 -11.5 -4.5t-4.5 -11.5t4.5 -11.5t11.5 -4.5h356q7 0 11.5 4.5t4.5 11.5t-5 11.5t-11 4.5z" />
</svg>