<svg viewBox="0 0 1024 1024" xmlns="http://www.w3.org/2000/svg">
  <path transform="scale(1, -1) translate(0, -960)" fill="currentColor" d="M626 298l-90 -88l-4 -4t-4 -3v498q0 7 -4.5 11.5t-11.5 4.5t-11.5 -4.5t-4.5 -11.5v-498q-2 1 -4.5 2.5t-5.5 4.5l-89 88q-5 4 -11.5 4t-11.5 -4q-4 -5 -4 -11.5t4 -11.5l90 -88q10 -9 22 -14t24 -5q14 0 25.5 5t21.5 14l89 88q5 5 5 11.5t-5 11.5q-2 4 -9 4t-11 -4z M512 928q-99 0 -186 -38q-88 -38 -153 -103t-103 -153q-38 -87 -38 -186t38 -186q38 -88 103 -153t153 -103q87 -38 186 -38t186 38q88 38 153 103t103 153q38 87 38 186t-38 186q-38 88 -103 153t-153 103q-87 38 -186 38zM512 0q-92 0 -174 35q-81 36 -142 97t-97 142 q-35 82 -35 174t35 174q36 81 96.5 142t142.5 97q82 35 174 35t174 -35q81 -36 142 -96.5t97 -142.5q35 -82 35 -174t-35 -174q-36 -81 -96.5 -142t-142.5 -97q-82 -35 -174 -35z" />
</svg>