<svg viewBox="0 0 1024 1024" xmlns="http://www.w3.org/2000/svg">
  <path transform="scale(1, -1) translate(0, -960)" fill="currentColor" d="M125 859q-1 1 -3 2.5t-4 2.5q8 5 16 7.5t18 3.5l254 23q8 0 12 5t3 12q0 7 -5.5 11.5t-12.5 3.5l-253 -23q-38 -3 -65 -30t-31 -66l-22 -254q0 -7 4 -12t10 -6h1h1q6 0 11 4.5t5 10.5l22 256q2 9 4.5 17.5t8.5 15.5q0 -1 1 -3t2 -3l423 -423q2 -2 5.5 -3t5.5 -1t5.5 1 t5.5 3q5 5 5 11.5t-5 11.5l-422 422v0zM928 290h-195q-27 0 -45.5 -19t-18.5 -45v-196q0 -26 18.5 -45t45.5 -19h195q26 0 45 19t19 45v196q0 26 -19 45t-45 19v0zM960 30q0 -13 -9.5 -22.5t-22.5 -9.5h-195q-13 0 -22.5 9.5t-9.5 22.5v196q0 13 9.5 22.5t22.5 9.5h195 q13 0 22.5 -9.5t9.5 -22.5v-196v0z" />
</svg>