<svg viewBox="0 0 256 256" xmlns="http://www.w3.org/2000/svg">
  <path transform="scale(1, -1) translate(0, -256)" fill="currentColor" d="M82 164q2 -2 5 -2t5 2t2 5t-2 5l-58 58l52 5q3 0 5 2t1.5 5t-2.5 5t-5 2l-52 -5q-9 0 -16 -6.5t-7 -16.5l-5 -52q0 -3 2 -5t5 -3v0q3 0 5 2t2 5l5 52zM245 93q-3 0 -5 -2t-3 -5l-4 -52l-59 58q-2 2 -5 2t-5 -2t-2 -5t2 -5l58 -58l-52 -5q-3 0 -5 -2t-1.5 -5t2 -5t4.5 -2 l53 5q9 1 15.5 7t7.5 16l5 52q0 3 -1.5 5t-4.5 3zM174 174q-3 2 -5.5 2t-4.5 -2l-82 -82q-2 -2 -2 -4.5t2 -5t5 -2.5t5 2l81 82q3 2 3 4.5t-2 5.5z" />
</svg>