<svg viewBox="0 0 1024 1024" xmlns="http://www.w3.org/2000/svg">
  <path transform="scale(1, -1) translate(0, -960)" fill="currentColor" d="M787 568h-22q-7 0 -11.5 -4.5t-4.5 -11.5t4.5 -11.5t11.5 -4.5h22q18 0 31.5 -13t13.5 -32v-219h-640v221q0 18 13 31.5t32 13.5h13q7 0 11.5 4t4.5 12q0 7 -4.5 11.5t-11.5 4.5h-13q-31 0 -54 -22.5t-23 -54.5v-338q0 -23 16.5 -39.5t39.5 -16.5h224l-14 -99h-88 q-8 0 -12 -4.5t-4 -11.5t4 -11.5t12 -4.5h348q8 0 12 4.5t4 11.5t-4 11.5t-12 4.5h-88l-14 99h224q23 0 39.5 16.5t16.5 39.5v338q0 31 -23 53t-54 22v0zM566 0h-108l14 99h78zM808 131h-592q-10 0 -17 7.5t-7 16.5v85h640v-85q0 -9 -7 -16.5t-17 -7.5zM528 456 q72 0 122.5 50.5t50.5 122.5q0 7 -4.5 11.5t-11.5 4.5t-11.5 -4.5t-4.5 -11.5q0 -59 -41 -100t-100 -41t-100 41t-41 100t41 100t100 41q11 0 20.5 -1.5t19.5 -5.5q6 -2 12 1t7 10q3 6 -0.5 12t-10.5 8q-12 3 -24 4.5t-26 1.5q-72 0 -122 -50.5t-50 -122.5t51.5 -121.5 t122.5 -49.5zM534 654q-4 -4 -5 -10.5t4 -11.5q2 -2 5.5 -3.5t5.5 -1.5t5.5 1.5t5.5 3.5l197 173h96q7 0 11.5 4.5t4.5 11.5t-4.5 11.5t-11.5 4.5h-85v75q0 7 -4.5 11.5t-11.5 4.5t-11.5 -4.5t-4.5 -11.5v-83l-197 -175v0zM482 629q0 7 -4.5 11.5t-11.5 4.5q-8 0 -12 -4.5 t-4 -11.5q0 -33 23 -56t55 -23q7 0 11.5 4.5t4.5 11.5q0 8 -4.5 12t-11.5 4q-19 0 -32.5 14t-13.5 33z" />
</svg>