<svg viewBox="0 0 1024 1024" xmlns="http://www.w3.org/2000/svg">
  <path transform="scale(1, -1) translate(0, -960)" fill="currentColor" d="M594 80l-66 -67l-2 345q0 8 -4 12t-12 4v0v0q-7 0 -11.5 -5t-4.5 -11l2 -345l-67 67q-5 5 -11.5 5t-11.5 -5q-4 -5 -4 -11.5t4 -10.5l82 -80q5 -5 11.5 -6.5t12.5 -1.5q7 0 13.5 2t12.5 7l78 80q5 5 5 11.5t-5 11.5q-5 3 -11.5 3t-10.5 -5zM427 816l66 67l3 -345 q0 -8 4.5 -12t11.5 -4v0v0q7 0 11.5 5t4.5 11l-2 344l71 -71q2 -2 5.5 -3.5t5.5 -1.5q4 0 6.5 1.5t4.5 3.5q5 5 5 11.5t-5 11.5l-85 84q-10 9 -24 8.5t-25 -9.5l-80 -80q-5 -5 -5 -11.5t5 -11.5q5 -3 12 -3t10 5v0z" />
</svg>