<svg viewBox="0 0 1024 1024" xmlns="http://www.w3.org/2000/svg">
  <path transform="scale(1, -1) translate(0, -960)" fill="currentColor" d="M424 402h-126q-8 0 -12 -5t-4 -11q0 -8 5 -12t11 -4v0v0h110l-371 -375q-5 -5 -5 -11t5 -11q2 -3 4.5 -4t6.5 -1t6.5 1t4.5 4l373 374l2 -110q0 -6 5 -11t11 -5v0v0q7 0 11.5 5t4.5 11l-2 128q-2 14 -13 24.5t-27 12.5zM987 923q-5 5 -11 5t-11 -5l-371 -374v117 q0 7 -4.5 11.5t-11.5 4.5v0v0q-8 0 -12 -4.5t-4 -11.5v-135q1 -14 11.5 -24.5t26.5 -12.5h126q8 0 12 4.5t4 11.5q0 8 -4 12t-12 4v0h-110l371 375q5 5 5 11t-5 11z" />
</svg>