<svg viewBox="0 0 256 256" xmlns="http://www.w3.org/2000/svg">
  <path transform="scale(1, -1) translate(0, -256)" fill="currentColor" d="M182 177q-2 2 -5 2.5t-5.5 -1.5t-2.5 -5t2 -5l28 -33h-142l28 33q2 2 2 5t-2.5 5t-5 1.5t-5.5 -2.5l-29 -35q-5 -6 -5 -14t5 -15l29 -35q2 -2 5 -2t5 1.5t2.5 4.5t-1.5 6l-28 33h141l-28 -33q-1 -2 -1 -5t2 -5t5 -2t5 2l29 35q5 7 5 15t-5 14zM244 184q-3 0 -5 -2t-2 -5 v-99q0 -3 2 -5t5 -2t5 2t2 5v99q0 3 -2 5t-5 2zM12 184q-3 0 -5 -2t-2 -5v-99q0 -2 2 -4t5 -2t5 2t2 5v98q0 3 -2 5t-5 2z" />
</svg>