<svg viewBox="0 0 1024 1024" xmlns="http://www.w3.org/2000/svg">
  <path transform="scale(1, -1) translate(0, -960)" fill="currentColor" d="M318 755q3 0 6 1t4 2l149 125q3 4 8 6.5t9 3.5v0v0v-328h-169q-7 0 -11.5 -4.5t-4.5 -11.5t4.5 -11.5t11.5 -4.5h373q7 0 11.5 4.5t4.5 11.5t-4.5 11.5t-11.5 4.5h-170v328v0v0q5 -1 9.5 -3.5t8.5 -6.5l148 -125q5 -4 12 -3.5t11 5.5q5 5 4 12t-6 10l-149 125 q-24 19 -54 19t-53 -19l-149 -125q-4 -4 -5 -10.5t4 -11.5q1 -2 3.5 -3.5t5.5 -1.5v0zM694 138l-148 -125q-4 -4 -8.5 -6.5t-9.5 -3.5v0v0v328h171q7 0 11.5 4.5t4.5 11.5t-4.5 11.5t-11.5 4.5h-374q-7 0 -11.5 -4.5t-4.5 -11.5t4.5 -11.5t11.5 -4.5h171v-328v0v0 q-5 1 -9.5 3.5t-8.5 6.5l-148 125q-5 4 -12 3.5t-11 -5.5q-5 -5 -4 -12t6 -10l149 -125q12 -10 26 -14.5t28 -4.5t28 4.5t26 14.5l149 125q5 4 6 10.5t-4 11.5t-11 5.5t-12 -3.5v0z" />
</svg>