<svg viewBox="0 0 1024 1024" xmlns="http://www.w3.org/2000/svg">
  <path transform="scale(1, -1) translate(0, -960)" fill="currentColor" d="M984 469l-82 86q-4 5 -10.5 5t-11.5 -5t-5 -11t5 -11l67 -71h-365q-7 0 -11.5 -4t-4.5 -12q0 -7 4.5 -11.5t11.5 -4.5h362l-66 -70q-4 -5 -4 -11.5t4 -10.5q3 -3 5.5 -4t6.5 -1q3 0 5.5 1t5.5 4l81 86q10 11 10 23.5t-8 21.5v0zM368 557q-5 5 -11.5 5t-10.5 -5 q-5 -5 -5 -11.5t5 -11.5l67 -70h-365q-7 0 -11.5 -4.5t-4.5 -11.5t4.5 -11.5t11.5 -4.5h362l-66 -70q-5 -5 -5 -11.5t5 -11.5q2 -2 5 -3.5t6 -1.5q4 0 6.5 1.5t4.5 3.5l82 87q8 9 8 21t-8 22z" />
</svg>