<svg viewBox="0 0 1024 1024" xmlns="http://www.w3.org/2000/svg">
  <path transform="scale(1, -1) translate(0, -960)" fill="currentColor" d="M336 602q2 -3 5.5 -4t5.5 -1q3 0 6 1t5 4q5 4 5 10.5t-5 11.5l-244 245h-1t-1 1q5 3 10.5 5t11.5 3l210 18q7 0 11.5 5t2.5 13q0 7 -5 11t-12 3l-210 -18q-32 -3 -55 -26t-26 -55l-18 -211q0 -8 4 -12.5t10 -5.5h1h1q6 0 11 4t5 10l18 212q0 6 2 11.5t6 10.5v-1t1 -1 l245 -244v0zM978 294q-8 2 -12.5 -3t-5.5 -11l-18 -210q0 -6 -2 -11.5t-6 -10.5v1t-1 1l-245 244q-5 5 -11.5 5t-10.5 -5q-5 -4 -5 -10.5t5 -11.5l246 -246l1 -0.5t1 -1.5q-5 -2 -11 -4.5t-12 -3.5l-211 -16q-6 0 -11 -5t-3 -13q0 -6 5 -10t11 -4h0.5h0.5l210 18 q32 2 55 25.5t26 55.5l18 211q0 6 -4 11t-10 5v0zM685 621q-5 5 -11.5 5t-11.5 -5l-323 -323q-5 -5 -5 -11.5t5 -11.5q3 -2 6 -3.5t5 -1.5q3 0 6 1.5t6 3.5l324 325q4 4 4 10.5t-5 10.5v0z" />
</svg>