<svg viewBox="0 0 256 256" xmlns="http://www.w3.org/2000/svg">
  <path transform="scale(1, -1) translate(0, -256)" fill="currentColor" d="M88 208q2 0 4 1l29 25v-61q0 -3 2 -5t5 -2t5 2t2 5v60l29 -24q2 -2 5 -2t5 2.5t1.5 5t-2.5 5.5l-31 26q-6 5 -13.5 5t-13.5 -5l-32 -26q-2 -2 -2 -5t1.5 -5t5.5 -2zM164 47l-29 -25v61q0 3 -2 5t-5 2t-5 -2t-2 -5v-60l-29 24q-2 2 -5 1.5t-5 -2.5t-1.5 -5t2.5 -5l31 -26 q6 -5 13.5 -5t13.5 5l31 26q3 2 3 5t-2 5t-4.5 2.5t-4.5 -1.5zM172 135h-88q-3 0 -5.5 -2t-2.5 -5t2.5 -5.5t5.5 -2.5h88q3 0 5.5 2.5t2.5 5.5t-2.5 5t-5.5 2z" />
</svg>