<svg viewBox="0 0 256 256" xmlns="http://www.w3.org/2000/svg">
  <path transform="scale(1, -1) translate(0, -256)" fill="currentColor" d="M142 196q-6 5 -14 5t-14 -5l-22 -22q-2 -2 -2 -5t2 -5t5 -2.5t5 2.5l20 19v-118q0 -3 2 -5t5 -2t5 2t2 5v118l20 -19q2 -2 4.5 -2t4.5 2t2 4.5t-2 5.5zM128 251q-33 0 -61.5 -16.5t-45 -45t-16.5 -61.5t16.5 -61.5t45 -45t61.5 -16.5t61.5 16.5t45 45t16.5 61.5 t-16.5 61.5t-45 45t-61.5 16.5zM128 19q-29 0 -54 14.5t-40 39.5t-15 55t15 55t40 39.5t54.5 14.5t54.5 -14.5t39.5 -39.5t14.5 -55t-14.5 -55t-39.5 -39.5t-55 -14.5z" />
</svg>