<svg viewBox="0 0 1024 1024" xmlns="http://www.w3.org/2000/svg">
  <path transform="scale(1, -1) translate(0, -960)" fill="currentColor" d="M410 637q21 -18 47.5 -27.5t54.5 -9.5t54 9.5t48 27.5l312 262q5 5 6 11.5t-4 11.5q-5 4 -11.5 5t-10.5 -4l-312 -262q-35 -30 -81 -30t-81 30l-314 264q-6 3 -12 3t-10 -6q-5 -5 -4 -11.5t6 -11.5l312 -262v0zM614 259q-44 37 -101 37t-102 -37l-313 -262 q-5 -5 -6 -11.5t4 -11.5q5 -4 11.5 -5t10.5 4l314 262q35 30 81 30t81 -30l313 -262q3 -3 5 -3h5t6.5 1t6.5 5q4 5 3.5 12t-5.5 10z" />
</svg>