<svg viewBox="0 0 1024 1024" xmlns="http://www.w3.org/2000/svg">
  <path transform="scale(1, -1) translate(0, -960)" fill="currentColor" d="M598 82l-70 -68v364q0 7 -4.5 11.5t-11.5 4.5t-11.5 -4.5t-4.5 -11.5v-362l-70 66q-5 4 -11.5 4t-11.5 -4q-5 -5 -5 -11.5t5 -11.5l87 -81q4 -5 10 -7.5t12 -2.5t12 2t10 6l87 82q5 4 5 10.5t-5 11.5t-11.5 5.5t-11.5 -3.5v0zM491 510q5 -3 10 -5.5t11 -2.5t12 2.5 t10 5.5l87 82q5 5 5 11.5t-5 10.5q-5 5 -11.5 5t-11.5 -5l-70 -65v363q0 7 -4.5 11.5t-11.5 4.5t-11.5 -4.5t-4.5 -11.5v-362l-70 66q-5 5 -11.5 5t-11.5 -5t-5 -11.5t5 -10.5l88 -84v0z" />
</svg>