<svg viewBox="0 0 1024 1024" xmlns="http://www.w3.org/2000/svg">
  <path transform="scale(1, -1) translate(0, -960)" fill="currentColor" d="M702 125q-4 5 -10.5 5.5t-11.5 -4.5l-138 -115q-3 -2 -6.5 -4.5t-7.5 -3.5v728q35 6 59 33.5t24 64.5q0 41 -29 70t-70 29t-70 -29t-29 -70q0 -37 23.5 -64.5t59.5 -33.5v-728q-4 1 -7.5 3.5t-6.5 4.5l-138 115q-5 5 -12 4.5t-10 -5.5q-4 -5 -4 -12t5 -11l138 -115 q11 -9 24 -14t27 -5t26.5 5t24.5 14l138 115q5 4 5.5 11t-4.5 12v0zM445 829q0 27 19.5 47t47.5 20t47.5 -20t19.5 -47q0 -28 -19.5 -47.5t-47.5 -19.5t-47.5 19.5t-19.5 47.5z" />
</svg>