<svg viewBox="0 0 1024 1024" xmlns="http://www.w3.org/2000/svg">
  <path transform="scale(1, -1) translate(0, -960)" fill="currentColor" d="M512 928q-99 0 -186 -38q-88 -38 -153 -103t-103 -153q-38 -87 -38 -186t38 -186q38 -88 103 -153t153 -103q87 -38 186 -38t186 38q88 38 153 103t103 153q38 87 38 186t-38 186q-38 88 -103 153t-153 103q-87 38 -186 38zM512 0q-92 0 -174 35q-81 36 -142 97t-97 142 q-35 82 -35 174t35 174q36 81 96.5 142t142.5 97q82 35 174 35t174 -35q81 -36 142 -96.5t97 -142.5q35 -82 35 -174t-35 -174q-36 -81 -96.5 -142t-142.5 -97q-82 -35 -174 -35zM765 464h-498q1 2 2.5 4.5t4.5 5.5l88 89q4 5 4 11.5t-4 11.5q-5 4 -11.5 4t-11.5 -4l-89 -90 q-20 -19 -20 -46.5t20 -47.5l88 -90q2 -2 5 -3.5t6 -1.5t6 1.5t5 3.5q5 5 5 11.5t-5 10.5l-88 90q-1 2 -3 4t-3 4h497q7 0 11.5 4.5t4.5 11.5q1 7 -3 11.5t-11 4.5z" />
</svg>