<svg viewBox="0 0 1024 1024" xmlns="http://www.w3.org/2000/svg">
  <path transform="scale(1, -1) translate(0, -960)" fill="currentColor" d="M790 565h-22q-7 0 -11.5 -4.5t-4.5 -11.5t4.5 -11.5t11.5 -4.5h22q18 0 31.5 -13.5t13.5 -31.5v-341q0 -9 -7 -16.5t-17 -7.5h-598q-10 0 -17 7.5t-7 16.5v339q0 18 13.5 31.5t31.5 13.5h12q8 0 12 4.5t4 11.5t-4 11.5t-12 4.5h-12q-32 0 -54.5 -22.5t-22.5 -54.5v-340 q0 -24 16.5 -40t39.5 -16h227l-18 -103q0 -3 0.5 -6.5t3.5 -6.5q2 -2 5.5 -4t6.5 -2h148q3 0 6.5 1.5t5.5 4.5q3 3 4 6.5t0 6.5l-18 103h227q24 0 40 16.5t16 39.5v340q0 33 -22 56t-55 23v0zM566 0h-108l14 90h80zM528 451q72 0 123 51.5t51 123.5q0 7 -4 11.5t-12 4.5 q-7 0 -11.5 -4.5t-4.5 -11.5q0 -59 -41.5 -101t-100.5 -42t-100.5 42t-41.5 101q0 58 41.5 100t100.5 42q11 0 20.5 -1.5t19.5 -4.5q6 -3 12 0.5t7 10.5q3 6 -0.5 12t-10.5 7q-12 4 -25 6t-25 2q-72 0 -123 -51t-51 -123t52 -123.5t124 -51.5v0zM534 651q-4 -5 -5 -11t4 -11 q2 -3 5.5 -4t5.5 -1t5.5 1t5.5 4l199 176h97q7 0 11.5 4.5t4.5 11.5t-4.5 11.5t-11.5 4.5h-85v75q0 7 -4 11.5t-12 4.5q-7 0 -11.5 -4.5t-4.5 -11.5v-85l-200 -176v0zM480 626q0 7 -4.5 11.5t-11.5 4.5t-11.5 -4.5t-4.5 -11.5q0 -33 23 -56.5t57 -23.5q7 0 11.5 4t4.5 12 q0 7 -4.5 11.5t-11.5 4.5q-19 0 -33.5 14t-14.5 34z" />
</svg>