<svg viewBox="0 0 1024 1024" xmlns="http://www.w3.org/2000/svg">
  <path transform="scale(1, -1) translate(0, -960)" fill="currentColor" d="M699 122q-5 4 -11 5t-11 -4l-136 -113q-4 -3 -6.5 -5t-6.5 -3v683q1 1 3 2t3 3l93 92q10 10 10 23t-10 22l-93 93q-9 10 -22 10t-22 -10l-93 -93q-10 -9 -10 -22t10 -23l93 -92q1 -2 3 -3t3 -2v-683q-4 1 -7 3t-6 5l-136 113q-5 5 -12 4t-10 -5q-5 -5 -4 -12t5 -11 l136 -113q11 -10 24 -14t26 -4t26 4.5t24 13.5l136 113q4 4 5 11t-4 12v0zM419 805l93 93l93 -93l-93 -93l-93 93v0z" />
</svg>