<svg viewBox="0 0 1024 1024" xmlns="http://www.w3.org/2000/svg">
  <path transform="scale(1, -1) translate(0, -960)" fill="currentColor" d="M432 390l-365 -368l-1 109q0 6 -5 11t-11 5v0v0q-8 0 -12 -5t-4 -11l1 -126q1 -15 12 -25.5t27 -11.5h123q7 0 11.5 5t4.5 11q0 7 -5 11.5t-11 4.5v0v0h-107l364 368q5 5 5 11.5t-5 10.5q-4 5 -11 5t-11 -5v0zM954 928h-124q-7 0 -11.5 -4.5t-4.5 -11.5t4.5 -11.5 t11.5 -4.5v0h108l-367 -368q-5 -5 -5 -11.5t5 -10.5q3 -3 5.5 -4t5.5 -1q4 0 6.5 1t5.5 4l364 368v-114q0 -7 4.5 -11.5t11.5 -4.5v0v0q8 0 12 4.5t4 11.5v131q-1 15 -11.5 25.5t-24.5 11.5v0z" />
</svg>