<svg viewBox="0 0 1024 1024" xmlns="http://www.w3.org/2000/svg">
  <path transform="scale(1, -1) translate(0, -960)" fill="currentColor" d="M534 366q-10 9 -24 8.5t-25 -9.5l-79 -80q-4 -5 -4 -11.5t4 -11.5q3 -2 5.5 -3t6.5 -1q3 0 5.5 1t5.5 3l65 68l2 -346q0 -7 4.5 -11.5t11.5 -4.5v0v0q7 0 11.5 5t4.5 11l-2 346l68 -66q4 -5 10.5 -5t11.5 5t5 11.5t-5 10.5zM490 530q4 -5 11 -6.5t13 -1.5q7 0 13 2t12 7 l80 80q5 5 5 11.5t-5 11.5q-5 4 -11 4t-11 -4l-66 -68l-3 346q0 7 -4.5 11.5t-11.5 4.5v0v0q-7 0 -11.5 -5t-4.5 -11l2 -346l-71 71q-5 5 -11 5t-11 -5t-5 -11.5t5 -11.5l85 -84v0z" />
</svg>