<svg viewBox="0 0 256 256" xmlns="http://www.w3.org/2000/svg">
  <path transform="scale(1, -1) translate(0, -256)" fill="currentColor" d="M84 203l37 31v-74h-39q-3 0 -5.5 -2t-2.5 -5t2.5 -5t5.5 -2h93q3 0 5 2t2 5t-2 5t-5 2h-40v74l37 -31q2 -1 5 -1t4.5 2t1.5 5t-2 5l-37 31q-7 6 -16 6t-15 -6l-37 -31q-3 -2 -3 -5t1.5 -5t4.5 -2.5t5 1.5zM172 53l-37 -31v74h39q3 0 5.5 2t2.5 5t-2.5 5t-5.5 2h-93 q-3 0 -5 -2t-2 -5t2 -5t5 -2h40v-74l-37 30q-2 2 -5 2t-5 -2t-1.5 -5t2.5 -5l37 -32q7 -5 15.5 -5t15.5 5l37 32q3 1 3 4t-2 5.5t-4.5 3t-4.5 -1.5z" />
</svg>