<svg viewBox="0 0 1024 1024" xmlns="http://www.w3.org/2000/svg">
  <path transform="scale(1, -1) translate(0, -960)" fill="currentColor" d="M974 496l-108 130q-5 4 -11.5 5t-11.5 -4t-5.5 -11t4.5 -11l108 -130q3 -2 4.5 -5.5t2.5 -5.5h-890q1 4 3 6.5t4 4.5l108 130q5 5 4.5 12t-5.5 10q-5 5 -12 4t-11 -5l-108 -130q-18 -22 -18 -49t18 -47l108 -130q5 -4 11.5 -5t11.5 4t5.5 11t-4.5 11l-108 130 q-3 2 -4.5 5.5t-2.5 5.5h890q-1 -4 -3 -6.5t-4 -4.5l-108 -130q-5 -5 -4.5 -12t5.5 -10q3 -3 5 -3h5t6.5 1t6.5 5l108 130q18 19 18 46.5t-18 47.5v0z" />
</svg>