<svg viewBox="0 0 256 256" xmlns="http://www.w3.org/2000/svg">
  <path transform="scale(1, -1) translate(0, -256)" fill="currentColor" d="M244 182q-3 0 -5 -2.5t-2 -5.5v-39h-74l31 37q2 2 1.5 4.5t-2.5 4.5t-5 2t-5 -2l-31 -37q-6 -7 -6 -16t6 -15l31 -37q2 -3 5 -3t5 2t2 4.5t-1 5.5l-31 37h74v-40q0 -3 2 -5t5 -2t5 2t2 5v93q0 3 -2 5t-5 2zM73 181q-2 2 -5 2t-5 -1.5t-2.5 -4.5t1.5 -5l31 -37h-74v39 q0 3 -2 5.5t-5 2.5t-5 -2.5t-2 -5.5v-93q0 -3 2 -5t5 -2t5 2t2 5v40h74l-31 -37q-1 -2 -1 -5t2 -5t5 -2t5 3l31 37q6 7 6 15.5t-6 15.5z" />
</svg>