<svg viewBox="0 0 256 256" xmlns="http://www.w3.org/2000/svg">
  <path transform="scale(1, -1) translate(0, -256)" fill="currentColor" d="M144 104q-7 6 -16 6t-15 -6l-37 -31q-3 -2 -3 -5t2 -5t4.5 -2.5t5.5 1.5l37 31v-74h-40q-3 0 -5 -2t-2 -5t2 -5.5t5 -2.5h93q3 0 5 2.5t2 5.5t-2 5t-5 2h-39v74l36 -31q2 -2 5 -2t5 2.5t1.5 5.5t-2.5 5zM112 152q7 -6 15.5 -6t16.5 6l37 31q2 2 2 5t-1.5 5t-4.5 2.5 t-5 -1.5l-37 -31v74h39q3 0 5.5 2t2.5 5t-2.5 5t-5.5 2h-93q-3 0 -5 -2t-2 -5t2 -5t5 -2h40v-74l-37 31q-2 1 -5 1t-5 -2t-1.5 -5t2.5 -5z" />
</svg>