<svg viewBox="0 0 1024 1024" xmlns="http://www.w3.org/2000/svg">
  <path transform="scale(1, -1) translate(0, -960)" fill="currentColor" d="M566 344q-24 19 -54 19t-53 -19l-149 -125q-4 -5 -5 -11t4 -11q2 -3 5.5 -5t7.5 -2q2 0 5 1t4 3l149 124q4 4 8.5 6.5t9.5 3.5v0v0v-328h-173q-7 0 -11.5 -4.5t-4.5 -11.5t4.5 -11.5t11.5 -4.5h373q7 0 11.5 4.5t4.5 11.5t-4.5 11.5t-11.5 4.5h-170v328v0v0 q5 -1 9.5 -3.5t8.5 -6.5l148 -124q5 -5 12 -4.5t11 5.5q5 5 4 12t-6 11l-149 126v0zM458 552q12 -10 26 -14.5t28 -4.5t28 4.5t26 14.5l149 125q5 5 6 11t-4 11t-11.5 6t-11.5 -4l-148 -125q-4 -4 -8.5 -6t-9.5 -4v0v0v330h171q7 0 11.5 4.5t4.5 11.5t-4.5 11.5t-11.5 4.5 h-374q-7 0 -11.5 -4.5t-4.5 -11.5t4.5 -11.5t11.5 -4.5h171v-328v0v0q-5 1 -9.5 3.5t-8.5 6.5l-148 124q-5 5 -12 4.5t-11 -5.5q-5 -5 -4 -12t6 -11l149 -126v0z" />
</svg>