<svg viewBox="0 0 256 256" xmlns="http://www.w3.org/2000/svg">
  <path transform="scale(1, -1) translate(0, -256)" fill="currentColor" d="M129 139l-103 -104l-7 67q0 3 -2 4.5t-5 1.5t-5 -2.5t-2 -5.5l6 -63q1 -11 8.5 -18.5t17.5 -8.5l65 -5q2 0 4 2t2.5 4.5t-1.5 4.5t-5 3l-63 5l-3 1l103 104q2 2 2 5t-2 5t-5 2t-5 -2zM232 251h-49q-8 0 -13.5 -5.5t-5.5 -13.5v-48q0 -8 5.5 -14t13.5 -6h49q7 0 13 6t6 14 v48q0 8 -6 13.5t-13 5.5zM237 184q0 -2 -1.5 -4t-3.5 -2h-49q-2 0 -3.5 2t-1.5 4v48q0 2 1.5 3.5t3.5 1.5h49q2 0 3.5 -1.5t1.5 -3.5v-48z" />
</svg>