<svg viewBox="0 0 1024 1024" xmlns="http://www.w3.org/2000/svg">
  <path transform="scale(1, -1) translate(0, -960)" fill="currentColor" d="M976 464h-426l301 301q5 5 5 11t-5 11t-11 5t-11 -5l-301 -301v426q0 7 -4.5 11.5t-11.5 4.5t-11.5 -4.5t-4.5 -11.5v-426l-301 301q-5 5 -11 5t-11 -5t-5 -11t5 -11l301 -301h-426q-7 0 -11.5 -4.5t-4.5 -11.5t4.5 -11.5t11.5 -4.5h426l-301 -301q-5 -5 -5 -11t5 -11 q2 -3 5.5 -4t5.5 -1t5.5 1t5.5 4l301 301v-426q0 -7 4.5 -11.5t11.5 -4.5t11.5 4.5t4.5 11.5v426l301 -301q2 -3 5.5 -4t5.5 -1t5.5 1t5.5 4q5 5 5 11t-5 11l-301 301h426q7 0 11.5 4.5t4.5 11.5t-4.5 11.5t-11.5 4.5v0z" />
</svg>