<svg viewBox="0 0 1024 1024" xmlns="http://www.w3.org/2000/svg">
  <path transform="scale(1, -1) translate(0, -960)" fill="currentColor" d="M986 562q-20 81 -64 148q-45 67 -106.5 115.5t-137.5 75.5t-160 27q-99 0 -186 -38t-152.5 -103t-103.5 -153q-38 -87 -38 -186t38 -186q38 -88 103.5 -153t152.5 -103t186 -38q53 0 103.5 11t96.5 32q6 3 8.5 9t-0.5 12q-2 6 -8 8t-12 0q-45 -20 -91.5 -30t-96.5 -10 q-92 0 -174 35q-81 36 -142 97t-96 142q-36 82 -36 174t36 174q35 81 96 142t142 97q82 35 174 35q78 0 149 -25t128.5 -70.5t98.5 -107.5q41 -63 60 -138q1 -6 7 -9.5t12 -1.5q7 1 10.5 6.5t2.5 11.5v0zM926 283q-16 -18 -38 -27.5t-46 -9.5q-23 0 -44 8.5t-38 25.5 t-25.5 38t-8.5 44v86q0 43 -16 81q-17 39 -45.5 67.5t-66.5 44.5q-38 17 -81 17t-82 -17q-38 -16 -66.5 -44.5t-44.5 -67.5q-17 -38 -17 -81t17 -81q16 -38 44.5 -66.5t66.5 -45.5q39 -17 82 -17q56 0 103.5 28t75.5 73q4 -23 14.5 -44t27.5 -39q20 -20 47 -31.5t57 -11.5 q31 0 58.5 12.5t48.5 35.5q5 5 4 11t-6 11t-10.5 5t-10.5 -5v0zM518 270q-73 0 -125 52.5t-52 125.5t52 125.5t125 52.5q74 0 126 -52.5t52 -125.5t-52 -125.5t-126 -52.5z" />
</svg>