<svg viewBox="0 0 256 256" xmlns="http://www.w3.org/2000/svg">
  <path transform="scale(1, -1) translate(0, -256)" fill="currentColor" d="M249 157q-7 27 -24.5 48.5t-42 33.5t-52.5 12q-34 0 -62 -16.5t-44.5 -45t-16.5 -61.5t16.5 -61.5t45 -45t61.5 -16.5q28 0 51 11q3 1 4 4t0 5.5t-4 3.5t-5 0q-23 -10 -46 -10q-30 0 -55 14.5t-39.5 39.5t-14.5 55t14.5 55t39.5 39.5t55 14.5q25 0 47 -10.5t37.5 -29.5 t21.5 -43q1 -3 3.5 -4.5t5 -1t4 3.5t0.5 5zM230 89q-8 -9 -19 -9t-18.5 8t-7.5 18v22q0 15 -7.5 27.5t-20 20t-27.5 7.5t-28 -7.5t-20.5 -20t-7.5 -27.5t7.5 -27.5t20.5 -20t27 -7.5t25 5.5t19 15.5q4 -9 10 -16q11 -11 28 -11t29 13q2 2 2 4.5t-2.5 4.5t-5.5 2t-4 -2z M130 87q-17 0 -29.5 12t-12.5 29t12 29t29.5 12t29.5 -12t12 -29t-12 -29t-29 -12z" />
</svg>