<svg viewBox="0 0 256 256" xmlns="http://www.w3.org/2000/svg">
  <path transform="scale(1, -1) translate(0, -256)" fill="currentColor" d="M229 204h-33q-12 18 -31.5 28t-41.5 10t-41 -10t-32 -28h-23q-9 0 -15.5 -6t-6.5 -16v-87q0 -9 6.5 -15.5t15.5 -6.5h39q15 -19 35 -36q12 -11 18 -15q2 -1 4 -1t4 1q6 4 18 14q20 18 35 37h49q9 0 15.5 6.5t6.5 15.5v88q0 9 -6.5 15t-15.5 6zM123 229q16 0 30.5 -6.5 t24.5 -17.5h-110q11 11 25 17.5t30 6.5zM123 37q-21 17 -39 37h78q-18 -20 -39 -37zM237 96q0 -4 -2 -6t-6 -2h-202q-4 0 -6 2t-2 6v87q0 3 2 5.5t6 2.5h202q3 0 5.5 -2.5t2.5 -5.5v-87zM76 171h-27q-3 0 -5 -2t-2 -5v-53q0 -3 2 -5t5 -2t5 2t2 5v22h13v-22q0 -3 2 -5t5 -2 t5 2t2 5v53q0 3 -2.5 5t-4.5 2zM56 157h12v-9h-12v9zM216 170q-4 2 -8 -2l-18 -20l-18 20q-2 2 -4 2.5t-4 -0.5q-4 -1 -4 -6v-52q0 -3 2 -5.5t5 -2.5t5 2.5t2 5.5v34l12 -13q1 -3 4.5 -3t5.5 3l11 13v-34q0 -3 2 -5.5t5 -2.5t5.5 2.5t2.5 5.5v52q-2 5 -6 6zM142 171h-40 q-3 0 -5 -2t-2 -5t2 -5.5t5 -2.5h13v-45q0 -3 2 -5t5 -2t5.5 2t2.5 5v46h12q3 0 5.5 2t2.5 5t-2.5 5t-5.5 2z" />
</svg>