<svg viewBox="0 0 1024 1024" xmlns="http://www.w3.org/2000/svg">
  <path transform="scale(1, -1) translate(0, -960)" fill="currentColor" d="M917 742h-138q-24 36 -55 65q-32 28 -69 47.5t-78 29.5t-84 10t-85 -10q-41 -11 -77.5 -30.5t-68.5 -47.5t-56 -64h-99q-31 0 -53 -22t-22 -53v-349q0 -31 22 -53t53 -22h163q36 -45 73 -83q37 -37 67.5 -64t50.5 -43q20 -15 22 -16q3 -1 5 -2t5 -1q2 0 4.5 1t4.5 2 t22 16q21 16 51.5 43t67.5 64q37 38 72 83h203q32 0 54 22t22 53v349q-2 31 -24 53t-53 22v0zM493 862q73 0 137.5 -31.5t108.5 -88.5h-494q44 57 109.5 88.5t138.5 31.5v0zM493 69q-21 15 -74 61t-107 113h362q-56 -66 -108.5 -112.5t-72.5 -61.5zM960 318 q0 -18 -12.5 -30.5t-30.5 -12.5h-810q-18 0 -30.5 12.5t-12.5 30.5v349q0 18 12.5 30.5t30.5 12.5h663v0v0v0v0h147q18 0 30.5 -12.5t12.5 -30.5v-349zM302 608h-107q-7 0 -11.5 -4.5t-4.5 -11.5v-210q0 -7 4.5 -11.5t11.5 -4.5t11.5 4.5t4.5 11.5v101h75v-101 q0 -7 4.5 -11.5t11.5 -4.5q8 0 12 4.5t4 11.5v210q0 6 -5 11t-11 5zM211 576h75v-61h-75v61zM861 606q-5 2 -9.5 0.5t-8.5 -4.5l-32 -37v0v0l-49 -56l-84 93q-3 3 -7.5 4.5t-9.5 -0.5q-5 -1 -7.5 -5t-2.5 -9v-210q0 -7 4.5 -11.5t11.5 -4.5t11.5 4.5t4.5 11.5v167l67 -74 q3 -2 6 -3.5t6 -1.5t6.5 1.5t4.5 3.5l67 74v-168q0 -7 4.5 -11.5t11.5 -4.5t11.5 4.5t4.5 11.5v211q-1 5 -3.5 8.5t-7.5 5.5v0zM568 608h-158q-8 0 -12 -4.5t-4 -11.5t4 -11.5t12 -4.5h64v-194q0 -7 4 -11.5t12 -4.5q7 0 11.5 4.5t4.5 11.5v194h64q7 0 11.5 4.5t4.5 11.5 t-6 11.5t-12 4.5z" />
</svg>