<svg viewBox="0 0 1024 1024" xmlns="http://www.w3.org/2000/svg">
  <path transform="scale(1, -1) translate(0, -960)" fill="currentColor" d="M928 909h-832q-26 0 -45 -19t-19 -45v-794q0 -26 19 -45t45 -19h832q26 0 45 19t19 45v794q0 26 -19 45t-45 19zM64 51v794q0 13 9.5 22.5t22.5 9.5h587v-858h-587q-13 0 -22.5 9.5t-9.5 22.5zM960 51q0 -13 -9.5 -22.5t-22.5 -9.5h-213v858h213q13 0 22.5 -9.5 t9.5 -22.5v-794zM515 773h-272q-26 0 -45 -19t-19 -45v-272q0 -27 19 -45.5t45 -18.5h272q27 0 45.5 18.5t18.5 45.5v272q0 26 -18.5 45t-45.5 19zM547 438q0 -13 -9.5 -22.5t-22.5 -9.5h-272q-13 0 -22.5 9.5t-9.5 22.5v272q0 14 9.5 23t22.5 9h272q13 0 22.5 -9t9.5 -23 v-272zM230 298h-35q-7 0 -11.5 -4.5t-4.5 -11.5q0 -8 4.5 -12t11.5 -4h35q8 0 12 4t4 12q0 7 -5 11.5t-11 4.5v0zM397 298h-35q-8 0 -12 -4.5t-4 -11.5q0 -8 4 -12t12 -4h35q7 0 11.5 4t4.5 12q0 7 -5 11.5t-11 4.5zM230 166h-35q-7 0 -11.5 -4t-4.5 -12q0 -7 4.5 -11.5 t11.5 -4.5h35q8 0 12 4.5t4 11.5q0 8 -5 12t-11 4v0zM397 166h-35q-8 0 -12 -4t-4 -12q0 -7 4 -11.5t12 -4.5h35q7 0 11.5 4.5t4.5 11.5q0 8 -5 12t-11 4zM562 298h-36q-7 0 -11.5 -4.5t-4.5 -11.5q0 -8 4.5 -12t11.5 -4h36q7 0 11.5 4t4.5 12q0 7 -4.5 11.5t-11.5 4.5z M562 166h-36q-7 0 -11.5 -4t-4.5 -12q0 -7 4.5 -11.5t11.5 -4.5h36q7 0 11.5 4.5t4.5 11.5q0 8 -4.5 12t-11.5 4z" />
</svg>