<svg viewBox="0 0 256 256" xmlns="http://www.w3.org/2000/svg">
  <path transform="scale(1, -1) translate(0, -256)" fill="currentColor" d="M232 246h-208q-8 0 -13.5 -5.5t-5.5 -13.5v-198q0 -8 5.5 -13.5t13.5 -5.5h208q8 0 13.5 5.5t5.5 13.5v198q0 8 -5.5 13.5t-13.5 5.5zM19 29v198q0 2 1.5 3.5t3.5 1.5h144v-208h-144q-2 0 -3.5 1.5t-1.5 3.5zM237 29q0 -2 -1.5 -3.5t-3.5 -1.5h-50v208h50q2 0 3.5 -1.5 t1.5 -3.5v-198zM129 212h-68q-8 0 -13.5 -5.5t-5.5 -13.5v-68q0 -8 5.5 -13.5t13.5 -5.5h68q8 0 13.5 5.5t5.5 13.5v68q0 8 -5.5 13.5t-13.5 5.5zM134 126q0 -2 -2 -4t-4 -2h-68q-2 0 -3.5 1.5t-1.5 4.5v68q0 2 1.5 3.5t3.5 1.5h68q3 0 4.5 -1.5t1.5 -3.5v-68zM58 94h-9 q-3 0 -5 -2.5t-2 -5.5t2 -5t5 -2h9q3 0 5 2t2 5t-2 5.5t-5 2.5zM99 94h-9q-3 0 -5 -2.5t-2 -5.5t2 -5t5 -2h9q3 0 5 2t2 5t-2 5.5t-5 2.5zM58 60h-9q-3 0 -5 -2t-2 -5t2 -5t5 -2h9q3 0 5 2t2 5t-2 5t-5 2zM99 60h-9q-3 0 -5 -2t-2 -5t2 -5t5 -2h9q3 0 5 2t2 5t-2 5t-5 2z M140 94h-8q-3 0 -5.5 -2.5t-2.5 -5.5t2.5 -5t5.5 -2h8q3 0 5.5 2t2.5 5t-2.5 5.5t-5.5 2.5zM140 60h-8q-3 0 -5.5 -2t-2.5 -5t2.5 -5t5.5 -2h8q3 0 5.5 2t2.5 5t-2.5 5t-5.5 2z" />
</svg>