<svg viewBox="0 0 256 256" xmlns="http://www.w3.org/2000/svg">
  <path transform="scale(1, -1) translate(0, -256)" fill="currentColor" d="M229 203h-202q-9 0 -15.5 -6.5t-6.5 -15.5v-107q0 -9 6.5 -15.5t15.5 -6.5h202q9 0 15.5 6.5t6.5 15.5v108q0 9 -6.5 15t-15.5 6zM237 74q0 -3 -2 -5.5t-6 -2.5h-202q-3 0 -5.5 2.5t-2.5 5.5v108q0 3 2.5 5.5t5.5 2.5h202q3 0 5.5 -2.5t2.5 -5.5v-108zM76 160h-27 q-3 0 -5 -2.5t-2 -5.5v-52q0 -3 2 -5t5 -2t5 2t2 5v22h13v-22q0 -3 2 -5t5 -2t5 2t2 5v52q0 3 -2.5 5.5t-4.5 2.5zM56 146h12v-10h-12v10zM216 159q-4 2 -8 -2l-18 -20l-18 20q-4 3 -8 1.5t-4 -5.5v-53q0 -3 2 -5t5 -2t5 2t2 5v34l12 -12q1 -3 4.5 -3t5.5 3l11 12v-34 q0 -3 2 -5t5 -2t5.5 2t2.5 5v53q-2 4 -6 6zM142 160h-40q-3 0 -5 -2.5t-2 -5.5t2 -5t5 -2h13v-45q0 -3 2 -5t5 -2t5.5 2t2.5 5v46h12q3 0 5.5 2t2.5 5t-2.5 5t-5.5 2z" />
</svg>