<svg viewBox="0 0 1024 1024" xmlns="http://www.w3.org/2000/svg">
  <path transform="scale(1, -1) translate(0, -960)" fill="currentColor" d="M973 573q27 93 16 169t-59 124q-33 33 -79 48t-100.5 13t-114.5 -19q-61 -18 -124 -50q-63 32 -124 50q-61 17 -115 19t-100 -13t-79 -48t-48 -79t-13 -100t19 -115q18 -61 50 -124q-32 -63 -50 -124q-17 -60 -19 -114.5t13 -100.5t48 -79q32 -31 74.5 -46.5t95.5 -15.5 q29 0 60 5t65 14q31 9 62 22t63 29q66 -33 129 -50.5t119 -17.5q51 0 93.5 14.5t74.5 45.5q33 33 48 79t13 100.5t-19 114.5q-18 61 -50 124q16 31 29 62.5t22 62.5v0zM760 896q44 0 82 -13t65 -40q42 -42 50.5 -109.5t-15.5 -151.5q-7 -25 -16.5 -50t-21.5 -49 q-30 52 -69.5 103t-87.5 99t-99 87.5t-102 69.5q57 26 111.5 40t102.5 14zM886 448q-30 -55 -71 -108.5t-90 -104.5q-51 -50 -104.5 -90.5t-108.5 -70.5q-54 30 -107.5 70.5t-105.5 90.5q-50 51 -90.5 105t-70.5 108q30 54 70.5 108t90.5 105q51 50 105 90.5t108 70.5 q54 -30 108 -70.5t105 -90.5q50 -51 90.5 -105t70.5 -108v0zM117 843q27 28 65 40.5t82 12.5q48 0 102.5 -14.5t111.5 -43.5q-51 -30 -102 -69t-99 -87t-87.5 -99t-69.5 -103q-27 56 -41 109q-15 53 -16 100t12 87q14 39 42 67v0zM379 18q-85 -24 -152.5 -15.5t-108.5 50.5 q-28 28 -42 67q-13 40 -12.5 87t15.5 99q14 53 41 108q30 -51 69.5 -102t87.5 -99t99 -87.5t102 -69.5q-25 -12 -50 -21.5t-49 -16.5zM907 53q-28 -28 -67 -42q-40 -13 -87 -12t-99 16q-53 14 -108 41q52 30 102.5 70t98.5 87q47 47 86.5 98t70.5 103q27 -55 41 -108 q15 -52 16 -99t-12 -87q-14 -39 -42 -67zM512 558q-46 0 -78 -32t-32 -78t32 -78t78 -32t78 32t32 78t-32 78t-78 32zM512 370q-32 0 -55 23t-23 55t23 55t55 23t55 -23t23 -55t-23 -55t-55 -23z" />
</svg>