<svg viewBox="0 0 256 256" xmlns="http://www.w3.org/2000/svg">
  <path transform="scale(1, -1) translate(0, -256)" fill="currentColor" d="M234 128q8 15 12 30q7 24 4 44t-16 32q-16 18 -45 17.5t-61 -17.5q-32 17 -61 17.5t-46 -16.5t-16.5 -46t17.5 -61q-17 -32 -17.5 -61t16.5 -45.5t45 -16.5q15 0 32 5q15 4 30 12q34 -17 62.5 -17t45 16.5t16 45.5t-17.5 61zM190 237q22 0 35 -13q10 -9 12 -25.5 t-4 -36.5q-3 -10 -7 -19q-15 24 -37 45.5t-46 36.5q26 12 47 12zM218 128q-15 -26 -39 -50.5t-51 -39.5q-27 15 -51 39t-39 51q15 27 39 51.5t51 38.5q27 -15 51.5 -39.5t38.5 -50.5zM31 225q13 12 34.5 12t47.5 -11q-24 -15 -45.5 -36.5t-36.5 -45.5q-12 25 -12 46.5 t12 34.5zM94 23q-21 -6 -37 -4t-26 12q-12 13 -12 34.5t11 46.5q15 -24 37 -45.5t46 -36.5zM225 31q-13 -12 -34.5 -12t-47.5 11q26 17 46 37q21 21 36 45q12 -25 12 -46.5t-12 -34.5zM128 158q-13 0 -21.5 -8.5t-8.5 -21.5t8.5 -21.5t21.5 -8.5t21.5 8.5t8.5 21.5 t-8.5 21.5t-21.5 8.5zM128 112q-7 0 -11.5 4.5t-4.5 11.5t4.5 11.5t11.5 4.5t11.5 -4.5t4.5 -11.5t-4.5 -11.5t-11.5 -4.5z" />
</svg>