<svg viewBox="0 0 256 256" xmlns="http://www.w3.org/2000/svg">
  <path transform="scale(1, -1) translate(0, -256)" fill="currentColor" d="M207 150q-6 10 -6 26q0 20 -10 37.5t-27 27.5t-35.5 10t-35.5 -9.5t-27.5 -28t-10.5 -37.5q0 -9 -1.5 -15t-4.5 -11q-14 -22 -15 -49q0 -19 7 -36.5t20.5 -31t31 -21t36 -7.5t36 7t30.5 20.5t20 30.5t7 36q0 28 -15 51zM184 42q-11 -11 -25.5 -17t-30.5 -6t-31 6 t-26.5 18t-17.5 26.5t-5 30.5q0 24 12 42q8 14 8 33q0 17 8.5 31.5t22 22.5t28.5 8t29 -8.5t22 -22.5t8 -31q0 -19 9 -33q13 -20 13 -44q0 -15 -6 -29.5t-18 -26.5zM128 137q-15 0 -26 -10.5t-11 -26t11 -26t26 -10.5t26 10.5t11 26t-11 26t-26 10.5zM128 78q-9 0 -16 6.5 t-7 16t7 16t16 6.5t16 -6.5t7 -16t-7 -16t-16 -6.5z" />
</svg>