<svg viewBox="0 0 1024 1024" xmlns="http://www.w3.org/2000/svg">
  <path transform="scale(1, -1) translate(0, -960)" fill="currentColor" d="M818 530q-15 22 -22 48.5t-7 59.5q0 78 -39.5 146t-106.5 107q-62 36 -132 37t-133 -35q-34 -19 -61 -46.5t-47 -62.5q-19 -34 -28.5 -71t-9.5 -75q0 -36 -6.5 -61.5t-20.5 -46.5q-28 -44 -42.5 -92t-15.5 -99q-1 -73 26 -140.5t80 -120.5q51 -54 118.5 -82t140.5 -28 t139.5 28t118.5 79q51 52 79 118.5t28 139.5q0 53 -15.5 102.5t-43.5 94.5v0zM747 98q-47 -47 -108 -72.5t-127 -25.5t-127 25.5t-108 73.5q-48 48 -72.5 109.5t-23.5 127.5q1 47 14 91t39 83q20 33 26 65.5t6 61.5q0 33 8.5 66.5t26.5 64.5q17 31 41 55.5t53 40.5 q57 31 118.5 31t116.5 -33q60 -34 95 -94.5t35 -129.5q0 -38 8.5 -68.5t25.5 -55.5q26 -41 39 -86.5t13 -94.5q-1 -67 -26.5 -128t-72.5 -107v0zM512 472q-56 0 -96 -40t-40 -96t40 -96t96 -40t96 40t40 96t-40 96t-96 40zM512 234q-43 0 -73.5 30t-30.5 74q0 43 30.5 73.5 t73.5 30.5t73.5 -30.5t30.5 -73.5q0 -44 -30.5 -74t-73.5 -30z" />
</svg>