<svg viewBox="0 0 1024 1024" xmlns="http://www.w3.org/2000/svg">
  <path transform="scale(1, -1) translate(0, -960)" fill="currentColor" d="M296 530q0 -27 9 -40.5t9 -20.5q0 -4 -1.5 -5.5t-5.5 -4.5l-21 -13q-1 -1 -4 -1h-5l-9 4.5t-23 35.5q-17 -22 -43 -34.5t-53 -10.5q-18 -1 -55 15.5t-35 72.5q-1 44 32.5 69.5t78.5 23.5q8 0 25.5 -1.5t46.5 -8.5v24q3 30 -16 50.5t-55 16.5q-1 0 -20 -2t-52 -14l-10 -5 t-6 -1q-8 0 -7 17t2 21q5 8 36.5 18t64.5 10q24 1 46.5 -5.5t41.5 -22.5q16 -16 22.5 -37t4.5 -44l2 -107v0zM160 480q37 0 55 18t22 30q1 12 1 20.5v22.5q-12 1 -28 4t-34 3q-17 1 -42 -9.5t-24 -40.5q3 -22 15.5 -35.5t34.5 -12.5v0zM426 445q-10 -1 -14.5 4t-6.5 12 l-77 254q-1 4 -1.5 7.5t-0.5 5.5q0 4 1.5 5t5.5 1h3.5h29.5q10 2 14.5 -4.5t6.5 -11.5l56 -217l53 217q1 4 5 11t16 5h27q1 0 9.5 -2t11.5 -14l51 -220l56 220q0 2 4.5 10t16.5 6h32q1 0 5 -1t1 -11q0 -2 -8.5 -27.5t-72.5 -235.5q-2 -7 -6 -12t-15 -4h-29q-13 -1 -17 8 t-4 10l-56 211l-51 -211q0 -1 -3 -9.5t-18 -8.5h-24v2h-1zM848 435q-7 0 -33.5 2.5t-54.5 15.5q-5 1 -9 7t-4 10v18q0 10 5.5 10.5t7.5 -0.5q12 -5 20.5 -9t24.5 -7q42 -10 62.5 -4t25.5 10q15 10 16.5 27t-10.5 27t-24.5 14t-56.5 18q-4 3 -35 20.5t-31 61.5q-1 32 27.5 60 t79.5 28q16 0 46 -5.5t42 -18.5q1 -1 1.5 -4.5t0.5 -6.5v-16q0 -5 -1.5 -8t-5.5 -3q-9 1 -26 9t-50 8q-9 0 -35.5 -5.5t-24.5 -32.5q0 -22 22.5 -31.5t25.5 -11.5q42 -14 62 -21t34 -27q21 -26 16.5 -51.5t-9.5 -33.5q-23 -42 -65 -46t-44 -4v0v0zM912 272q-40 -29 -89 -52 q-48 -23 -100.5 -38.5t-105.5 -23.5q-54 -8 -103 -8q-69 -1 -135 11q-67 12 -129.5 35.5t-120.5 58.5t-108 81q-9 7 -4 13.5t15 -0.5q56 -31 115 -55t120.5 -40.5t125.5 -24.5t129 -8q48 0 95 5q48 5 94.5 14.5t92.5 24.5q46 14 90 33q15 6 23 -4.5t-5 -21.5v0v0zM957 323 q-10 13 -55.5 9.5t-71.5 -4.5q-8 -1 -9 3.5t8 9.5q47 32 107 30t69 -13q9 -9 -4 -69t-59 -97q-7 -5 -11.5 -2.5t-0.5 8.5q8 27 22 69.5t5 55.5v0z" />
</svg>