<svg viewBox="0 0 256 256" xmlns="http://www.w3.org/2000/svg">
  <path transform="scale(1, -1) translate(0, -256)" fill="currentColor" d="M74 148q0 -5 3 -12l1 -3q0 -1 -1 -2l-5 -3q-1 -1 -3 -1h-1q-1 1 -3 3.5t-4 6.5q-4 -5 -10.5 -8.5t-13.5 -3t-14 4.5q-9 6 -8.5 17.5t8.5 18t19 5.5q9 0 18 -2v6q1 8 -3.5 12.5t-12.5 4.5t-19 -4q-3 -2 -4.5 -2t-1.5 3.5t1 6t9 4.5t16 2q13 1 21 -6.5t8 -20.5v-27zM40 136 q8 0 13 4t6 8l1 11h-5q-7 1 -12 1.5t-10.5 -2.5t-5 -9.5t4 -9.5t8.5 -3zM106 127q-3 0 -5 4l-19 64v3q0 2 1 2h9q3 0 5 -4l14 -55l13 55q1 4 5 4h7q4 0 5 -4l13 -56l14 56q0 1 1.5 2.5t3.5 1.5h8q3 0 2 -4l-21 -65q0 -5 -5 -4h-7q-3 0 -4 1.5t-1 2.5l-14 53l-13 -53 q0 -1 -1 -2.5t-4 -1.5h-6v0h-1zM212 125q-13 0 -22 4q-1 0 -2 1.5t-1 3.5v4q0 2 1 2.5t2 -0.5l3 -1q4 -2 8 -3q9 -2 16 0q4 0 7 2t3.5 6.5t-2 6.5t-5.5 3l-17 6q-15 7 -15 20q0 9 7.5 15.5t19.5 6.5q5 0 12 -1.5t10 -4.5v-3v-4q0 -3 -1 -3l-4 2q-8 3 -16 3q-5 0 -8 -2 q-7 -2 -6.5 -8t10.5 -10l7 -2q8 -3 12 -5t7.5 -6.5t3.5 -11.5q-1 -5 -3 -9q-4 -8 -15 -11q-6 -1 -12 -1v0zM228 84q-20 -14 -47 -22t-53 -8q-34 -1 -66 11t-57 35q-2 2 -0.5 3.5t3.5 -0.5q57 -32 122 -32q48 0 94 19q3 2 5 -0.5t-1 -5.5zM239 97q-1 2 -10 2q-5 0 -15 -1h-6 q-3 0 -3 1t2 2q7 5 17 6.5t18 1t9.5 -2.5t0.5 -10t-5 -17t-11 -15q-2 -1 -3.5 -0.5t-0.5 2.5l2 5q4 10 5 15q2 8 0 11z" />
</svg>