<svg viewBox="0 0 1024 1024" xmlns="http://www.w3.org/2000/svg">
  <path transform="scale(1, -1) translate(0, -960)" fill="currentColor" d="M962 600l-77 69q-1 2 -3.5 4.5t-4.5 3.5l-152 136l-15 64v0.5v0.5v1v1l-1 2t-2 3l-14 14q-27 27 -64.5 27t-63.5 -27l-280 -280q-13 -13 -19.5 -29.5t-6.5 -34.5t7 -34.5t19 -29.5l14 -14q1 -1 2.5 -1.5t2.5 -1.5h1h1h0.5h0.5l64 -15l8 -9l-318 -298q-13 -13 -21 -29.5 t-8 -34.5t7 -35t19 -31l25 -25q13 -13 29.5 -19.5t34.5 -6.5h1h1q18 0 35 8t29 21l291 312l3 -3q1 -4 3.5 -5.5t4.5 -4.5l69 -77q13 -14 30.5 -22t36.5 -8q6 0 13 1t13 4q53 17 101.5 47t90.5 71q42 42 71.5 90.5t46.5 101.5q9 24 2 49.5t-27 43.5v0zM318 502l-11 12 q-8 8 -12.5 18.5t-4.5 22.5t4.5 22.5t12.5 19.5l280 280q17 17 41 17t41 -17l11 -11l14 -64q0 -3 2 -5l3 -3l152 -138q-13 -56 -43.5 -108t-74.5 -97q-45 -44 -97.5 -74.5t-107.5 -43.5l-138 152q-1 2 -3 3.5t-5 1.5zM190 21q-8 -9 -18.5 -13.5t-22.5 -5.5q-12 0 -22.5 4.5 t-19.5 12.5l-25 26q-9 8 -13.5 18.5t-4.5 22.5t5 23t14 19l319 298l81 -92l-293 -313v0zM957 517q-16 -49 -44.5 -94.5t-67.5 -84.5t-84.5 -67.5t-94.5 -44.5q-16 -5 -32 -0.5t-28 17.5l-52 61q56 16 107 47.5t96 75.5q44 45 75 96.5t48 106.5l61 -54q12 -12 17 -28t-1 -31 v0z" />
</svg>