<svg viewBox="0 0 256 256" xmlns="http://www.w3.org/2000/svg">
  <path transform="scale(1, -1) translate(0, -256)" fill="currentColor" d="M242 168l-18 17q-2 2 -4 3l-36 33l-3 16l-6 6q-7 8 -17.5 8t-18.5 -8l-71 -72q-6 -7 -6 -16t6 -16l6 -7l17 -4l-78 -72q-8 -7 -8 -18.5t8 -18.5l6 -6q8 -8 18 -8h1q10 0 18 8l70 76l18 -20q8 -8 19 -8q4 0 8 1q26 8 48.5 30t30.5 50q2 7 0 14t-8 12zM149 233q4 4 8.5 3.5 t8.5 -3.5l2 -2l4 -15q0 -3 2 -4l36 -33q-6 -26 -27.5 -47.5t-48.5 -29.5l-34 37q-1 2 -4 2l-15 3l-2 3q-3 3 -3 8t3 8zM45 23q-3 -3 -8 -3t-9 3l-6 6q-3 3 -3 8t3 9l78 72l16 -18zM236 146q-7 -24 -26.5 -43.5t-43.5 -27.5q-3 -1 -6.5 0t-5.5 3l-10 12q26 9 47 30t30 48 l12 -11q3 -2 4 -5t-1 -6z" />
</svg>