<svg viewBox="0 0 1024 1024" xmlns="http://www.w3.org/2000/svg">
  <path transform="scale(1, -1) translate(0, -960)" fill="currentColor" d="M987 157l-73 192q-3 6 -9 9t-12 0q-6 -2 -9 -8t-1 -12l74 -192q2 -8 2.5 -15t-1.5 -13l-432 218v544q5 -1 9 -4.5t7 -6.5l135 -143q5 -4 11 -4t11 4q5 5 5 11.5t-5 11.5l-134 142q-11 12 -25 18t-31 6q-16 0 -30.5 -6t-25.5 -18l-135 -142q-4 -5 -4 -11.5t4 -11.5 q3 -2 5.5 -3t6.5 -1q3 0 5.5 1t5.5 3l134 143q4 3 7.5 6t8.5 5v-544l-427 -200q0 4 1 7.5t2 6.5l77 191q2 6 0 12t-10 9q-6 2 -12 -0.5t-8 -9.5l-77 -190q-12 -29 -0.5 -57.5t40.5 -40.5l179 -80q1 -1 3 -1.5t3 -0.5q5 0 8.5 2.5t6.5 7.5q2 6 0 12t-8 9l-179 80q-5 2 -9 4.5 t-7 6.5l435 203l429 -216l-3 -1.5t-4 -1.5l-179 -78q-6 -3 -8 -9t0 -12q2 -5 6 -7.5t8 -2.5q2 0 4 0.5t3 1.5l179 78q30 12 42 40.5t1 57.5v0z" />
</svg>