<svg viewBox="0 0 256 256" xmlns="http://www.w3.org/2000/svg">
  <path transform="scale(1, -1) translate(0, -256)" fill="currentColor" d="M250 56l-19 48q-1 3 -3.5 4t-5.5 0.5t-4 -3.5t0 -6l18 -48q0 -1 1 -1l-102 52v128l32 -34q2 -2 5 -2t5 2t2 4.5t-1 5.5l-34 35q-6 7 -16 7t-16 -7l-34 -35q-2 -2 -1.5 -5t2.5 -5t4.5 -2t5.5 2l32 34v-128l-100 -47l18 45q1 3 0 5.5t-4 3.5t-5.5 0t-3.5 -4l-19 -47 q-4 -9 -0.5 -17t11.5 -12l45 -20q2 -1 3 -1q4 0 6 3.5t1 6t-4 4.5l-44 19l103 48l100 -50l-41 -17q-3 -2 -4 -4.5t0.5 -6t6.5 -3.5h3l45 20q8 4 11.5 12t0.5 16z" />
</svg>