<svg viewBox="0 0 1024 1024" xmlns="http://www.w3.org/2000/svg">
  <path transform="scale(1, -1) translate(0, -960)" fill="currentColor" d="M600 349q-7 0 -11.5 -4.5t-4.5 -11.5q0 -30 -21 -51t-51 -21t-51 21t-21 51q0 7 -4.5 11.5t-11.5 4.5t-11.5 -4.5t-4.5 -11.5q0 -43 30.5 -73.5t73.5 -30.5t73.5 30.5t30.5 73.5q0 6 -4.5 11t-11.5 5zM856 606q-6 0 -13 -1t-13 -2q-22 46 -55 82q-34 37 -75 63t-89 40 t-99 14t-99 -14t-89 -40t-75 -62q-33 -37 -55 -83q-6 1 -13 2t-13 1q-56 0 -96 -40t-40 -97q0 -58 40 -98t96 -40h4.5h5.5q18 -53 51 -96q33 -44 77 -75.5t97 -49.5q53 -17 109 -17t109 17q52 18 96.5 49.5t77.5 75.5q33 43 51 96h5.5h4.5q56 0 96 40t40 98q0 57 -40 97 t-96 40zM856 365h-8.5t-9.5 1h-0.5h-0.5h-1.5h-1.5h-2l-2 -1l-0.5 -0.5t-0.5 -1.5q-1 0 -1.5 -0.5t-1.5 -0.5l-1 -1l-1 -1q0 -1 -1 -1.5t-1 -1.5v-1t-1 -1q-16 -50 -46 -92q-31 -42 -71.5 -72.5t-89.5 -47.5t-102 -17t-102 17t-89.5 47.5t-71.5 72.5q-30 42 -46 92v1t-1 1 q0 1 -1 1.5t-1 1.5l-1 1l-1 1q-1 1 -1.5 1h-1.5l-0.5 0.5t-0.5 1.5q-2 0 -2 0.5t-2 0.5h-1.5h-1.5h-1.5h-1.5q-5 -1 -9 -1h-9q-43 0 -73.5 30.5t-30.5 74.5q0 45 30.5 75.5t73.5 30.5q8 0 16 -1t15 -4h0.5h0.5h2h2h1.5h1.5t1.5 0.5l1.5 1.5q1 0 1.5 0.5t1.5 0.5t1.5 1l0.5 1 l0.5 1t0.5 2l1 1l1 1q18 40 46 73q27 33 61.5 58t74.5 40t84 19v-153q0 -33 23 -56t55 -23t55 23t23 56v11q0 7 -4 11.5t-12 4.5q-7 0 -11.5 -4.5t-4.5 -11.5v-11q0 -20 -13.5 -33.5t-32.5 -13.5t-32.5 13.5t-13.5 33.5v155q47 -1 91 -15q44 -13 82 -38t68 -60 q31 -35 50 -78q0 -1 0.5 -1.5t0.5 -1.5v0v-1l3 -3t2 -1h1h1q1 0 1.5 -0.5t1.5 -0.5h1h1v0h1h1h1h1.5h1.5q7 2 14.5 3.5t15.5 1.5q44 0 74 -31t30 -75t-29.5 -75.5t-72.5 -31.5v0zM330 510h-2q-7 0 -11.5 -4t-4.5 -12q0 -7 4.5 -11.5t11.5 -4.5h2q7 0 11.5 4.5t4.5 11.5 q0 8 -5 12t-11 4zM736 510h-2q-7 0 -11.5 -4t-4.5 -12q0 -7 4.5 -11.5t11.5 -4.5h2q7 0 11.5 4.5t4.5 11.5q0 8 -4.5 12t-11.5 4z" />
</svg>