<svg viewBox="0 0 256 256" xmlns="http://www.w3.org/2000/svg">
  <path transform="scale(1, -1) translate(0, -256)" fill="currentColor" d="M150 106q-3 0 -5 -2t-2 -5q0 -6 -4.5 -10.5t-11 -4.5t-11 4.5t-4.5 10.5q0 3 -2 5t-5 2t-5 -2t-2 -5q0 -12 8.5 -20.5t20.5 -8.5t20.5 8.5t8.5 20.5q1 3 -1 5t-5 2zM214 170h-5q-12 23 -33.5 36.5t-47.5 13.5t-47.5 -13.5t-33.5 -36.5l-5 1q-15 0 -26 -11t-11 -26.5 t11 -26.5t26 -11q10 -26 33.5 -42.5t52 -16.5t52 16.5t33.5 42.5q16 0 26.5 11t11 26.5t-10.5 26t-26 10.5zM214 110h-4h-2h-1h-1l-4 -5q-7 -24 -28 -39.5t-46 -15.5t-46 15.5t-28 40.5l-1 1l-4 4l-7 -1q-9 0 -16 7t-7 16.5t7 16.5t16 7l11 -1l4 4h1q8 19 24.5 31t35.5 15 v-36q0 -9 6.5 -15.5t16 -6.5t16 6.5t6.5 15.5v3q0 3 -2 5t-5 2t-5 -2t-2 -5v-3q0 -3 -2.5 -5.5t-6 -2.5t-6 2t-2.5 6v35q22 -1 40 -13.5t27 -32.5l2 -3l7 -1q2 1 7 1q9 0 16 -7t6.5 -16.5t-7.5 -16t-16 -6.5zM82 147v0q-3 0 -5 -2t-2 -5t2 -5.5t5 -2.5v0q3 0 5.5 2.5 t2.5 5.5t-2.5 5t-5.5 2zM184 147v0q-3 0 -5.5 -2t-2.5 -5t2.5 -5.5t5.5 -2.5v0q3 0 5 2.5t2 5.5t-2 5t-5 2z" />
</svg>