<svg viewBox="0 0 256 256" xmlns="http://www.w3.org/2000/svg">
  <path transform="scale(1, -1) translate(0, -256)" fill="currentColor" d="M238 210q-5 3 -11.5 2.5t-11.5 -4.5l-80 -58v40q0 6 -3.5 11.5t-9 8.5t-12 2.5t-11.5 -4.5l-85 -62q-9 -6 -9 -18t9 -18l85 -62q6 -5 12.5 -5t12 3t8.5 8t3 12v40l80 -58q6 -5 12.5 -5t11.5 3t8.5 8t3.5 12v124q0 7 -3.5 12t-9.5 8zM116 58q-4 -3 -9 1l-85 62q-3 3 -3 7 t3 7l85 62q5 3 9.5 0.5t4.5 -7.5v-125q0 -5 -5 -7zM237 66q0 -6 -4.5 -8t-9.5 1l-88 65v9l88 65q5 3 9.5 0.5t4.5 -7.5v-125z" />
</svg>