<svg viewBox="0 0 1024 1024" xmlns="http://www.w3.org/2000/svg">
  <path transform="scale(1, -1) translate(0, -960)" fill="currentColor" d="M949 766q-21 10 -42.5 8.5t-39.5 -14.5l-337 -248v184q0 23 -11.5 41.5t-32.5 28.5q-20 10 -41.5 8.5t-39.5 -14.5l-341 -248q-16 -11 -24 -28t-8 -36t8 -35.5t24 -28.5l339 -248q11 -7 23 -11.5t24 -4.5q9 0 17.5 2t17.5 6q20 10 31.5 29t11.5 41v186l338 -248 q10 -7 22 -11.5t24 -4.5q10 0 18.5 2t16.5 6q21 10 32 29t11 41v498q2 23 -9.5 42t-31.5 28zM498 200q0 -13 -7 -24.5t-19 -17.5t-24.5 -5t-23.5 9l-341 248q-9 7 -14 17t-5 21t5 21t14 17l339 248q11 9 23.5 10t24.5 -6q12 -6 19 -17.5t7 -24.5v-496h2zM960 200 q0 -13 -7 -24.5t-19 -17.5t-24.5 -5t-23.5 9l-356 260v50l356 261q11 8 23.5 9t24.5 -6q12 -6 19 -17t7 -25v-494v0z" />
</svg>