<svg viewBox="0 0 256 256" xmlns="http://www.w3.org/2000/svg">
  <path transform="scale(1, -1) translate(0, -256)" fill="currentColor" d="M198 216h-28v4q0 13 -9.5 22t-22.5 9h-21q-13 0 -22 -9t-9 -22v-4h-28q-15 0 -25.5 -10t-10.5 -25v-37q0 -6 4 -10t10 -5v-93q0 -13 9 -22t22 -9h121q13 0 22.5 9t9.5 22v93q5 1 9 5t4 10v37q0 15 -10 25t-25 10zM100 220q0 7 5 12t13 5h21q7 0 12 -5t5 -12v-4h-56v4z M37 181q0 9 6 15t15 6h140q9 0 15 -6t6 -15v-37q0 -1 -1 -1h-180q-1 0 -1 1v37zM206 62h-31v9q0 10 -6.5 16.5t-16.5 6.5h-48q-10 0 -17 -6.5t-7 -16.5v-9h-30v67h155v-67h1zM162 62h-68v9q0 4 3 6.5t7 2.5h48q4 0 7 -2.5t3 -6.5v-9zM189 19h-122q-7 0 -12 5t-5 12v12h156 v-12q0 -7 -5 -12t-12 -5zM105 164h46q3 0 5 2t2 5t-2 5t-5 2h-46q-3 0 -5 -2t-2 -5t2 -5t5 -2z" />
</svg>