<svg viewBox="0 0 1024 1024" xmlns="http://www.w3.org/2000/svg">
  <path transform="scale(1, -1) translate(0, -960)" fill="currentColor" d="M989 523l-125 152q23 19 36.5 47t13.5 59q0 57 -41 99t-100 42t-100 -41t-41 -100q0 -15 2.5 -28t7.5 -25l-186 -123v1q-1 5 -5.5 8.5t-10.5 3.5h-104q-32 0 -56 -23.5t-24 -56.5v-263h-106q-49 1 -83.5 -33t-34.5 -84v-67q0 -49 34.5 -83.5t83.5 -34.5h693q49 0 84 34.5 t35 83.5v67q0 50 -35 84.5t-84 34.5h-293v0v1l-32 112q2 0 4 1t3 3l269 249q12 1 23 5t21 10l44 -53q-2 -1 -2 -1.5v-1.5l-117 -215q-2 -3 -2 -7.5t2 -8.5q3 -3 6.5 -5.5t8.5 -2.5h198q7 0 11.5 4.5t4.5 11.5v135q0 2 -1 5t-2 4v0zM773 890q44 0 76.5 -32t32.5 -77t-32 -77 t-77 -32t-77 31.5t-32 77.5q0 45 31.5 77t77.5 32zM930 158v-67q0 -36 -25.5 -61t-61.5 -25h-693q-36 0 -61 25t-25 61v67q0 36 25 61.5t61 25.5h693q36 0 61.5 -25.5t25.5 -61.5zM290 277v262q0 19 13.5 33.5t34.5 14.5h91l3 -8v0v0l85 -301h-227v-1zM509 424l-43 150 l192 127q15 -22 38 -37t50 -21zM960 395h-158l100 184l60 -70v-114h-2zM336 128q0 -13 -9.5 -22.5t-22.5 -9.5t-22.5 9.5t-9.5 22.5t9.5 22.5t22.5 9.5t22.5 -9.5t9.5 -22.5zM504 128q0 -13 -9.5 -22.5t-22.5 -9.5t-22.5 9.5t-9.5 22.5t9.5 22.5t22.5 9.5t22.5 -9.5 t9.5 -22.5zM672 128q0 -13 -9.5 -22.5t-22.5 -9.5t-22.5 9.5t-9.5 22.5t9.5 22.5t22.5 9.5t22.5 -9.5t9.5 -22.5z" />
</svg>