<svg viewBox="0 0 1024 1024" xmlns="http://www.w3.org/2000/svg">
  <path transform="scale(1, -1) translate(0, -960)" fill="currentColor" d="M918 734h-584q-14 0 -27 -5t-24 -15l-227 -212q-12 -10 -18 -24t-6 -30t6 -30t18 -24l227 -213q11 -10 24 -15.5t27 -5.5h584q32 0 53 22t21 52v427q0 31 -22 52t-52 21zM960 235q0 -17 -12.5 -29t-29.5 -12h-584q-8 0 -15 3t-13 8l-229 213q-6 6 -9.5 14t-3.5 16t3.5 16 t9.5 14l227 213q6 6 13 8.5t16 2.5h584q18 0 29.5 -12t11.5 -29v-426h2zM701 570q-5 4 -11.5 4t-11.5 -4l-99 -98l-99 98q-5 4 -11.5 4t-10.5 -4q-5 -5 -5 -11.5t5 -11.5l99 -97l-99 -98q-5 -5 -5 -11.5t5 -10.5q2 -3 5 -4t6 -1t6 1t5 4l99 97l99 -97q3 -3 6 -4t6 -1t5.5 1 t5.5 4q5 4 5 10.5t-5 11.5l-99 96l99 98q5 4 5 11.5t-5 12.5v0z" />
</svg>