<svg viewBox="0 0 1024 1024" xmlns="http://www.w3.org/2000/svg">
  <path transform="scale(1, -1) translate(0, -960)" fill="currentColor" d="M877 890q-22 12 -46 11t-45 -15l-653 -425v451q0 7 -4.5 11.5t-11.5 4.5t-11.5 -4.5t-4.5 -11.5v-928q0 -7 4.5 -11.5t11.5 -4.5t11.5 4.5t4.5 11.5v451l653 -425q10 -8 23 -11.5t25 -3.5q10 0 21 2.5t22 8.5q21 12 33.5 32.5t12.5 44.5v730q0 24 -12.5 44.5t-33.5 32.5z M891 83q0 -15 -7.5 -28t-21.5 -21t-29 -7.5t-28 8.5l-632 413l630 411q13 9 29 9.5t29 -7.5q13 -7 21 -20.5t8 -29.5v-728h1z" />
</svg>