<svg viewBox="0 0 1024 1024" xmlns="http://www.w3.org/2000/svg">
  <path transform="scale(1, -1) translate(0, -960)" fill="currentColor" d="M792 789h-126v27q0 47 -33 79.5t-79 32.5h-85q-47 0 -79.5 -32.5t-32.5 -79.5v-27h-127q-52 0 -90 -37.5t-38 -90.5v-149q0 -20 14 -34t34 -14h7v-384q0 -47 32.5 -79.5t79.5 -32.5h485q46 0 79 32.5t33 79.5v386h6q20 0 34 13.5t14 34.5v148q0 52 -37 89.5t-91 37.5v0z M389 816q0 34 23 57t57 23h85q33 0 56.5 -23t23.5 -57v-27h-245v27zM755 0h-486q-34 0 -57 23t-23 57v61h646v-61q0 -34 -23.5 -57t-56.5 -23zM658 173h-292v48q0 20 14 34t34 14h196q20 0 34 -14t14 -34v-48zM835 173h-145v48q0 33 -23.5 56.5t-56.5 23.5h-196 q-33 0 -56.5 -23.5t-23.5 -56.5v-48h-145v293h645v-293h1zM888 514q0 -8 -4.5 -12t-11.5 -4h-720q-7 0 -11.5 4t-4.5 12v148q0 40 28 68t68 28h562q39 0 67.5 -28t28.5 -68v-148h-2zM605 635h-186q-7 0 -11.5 -4.5t-4.5 -11.5t4.5 -11.5t11.5 -4.5h184q7 0 11.5 4.5 t4.5 11.5t-4 11.5t-10 4.5z" />
</svg>