<svg viewBox="0 0 256 256" xmlns="http://www.w3.org/2000/svg">
  <path transform="scale(1, -1) translate(0, -256)" fill="currentColor" d="M250 149l-30 36q11 11 11 26.5t-11 27t-26.5 11.5t-27 -11.5t-11.5 -26.5q0 -6 2 -12l-42 -28q-2 2 -5 2h-26q-10 0 -16.5 -6.5t-6.5 -16.5v-63h-23q-14 0 -23.5 -9.5t-9.5 -22.5v-17q0 -13 9.5 -22.5t23.5 -9.5h173q13 0 22.5 9.5t9.5 22.5v17q0 13 -9.5 22.5t-22.5 9.5 h-71l-7 24l66 62l9 3l8 -9l-29 -53q-2 -4 0 -7.5t6 -3.5h51q3 0 5 2.5t2 5.5v33q0 1 -1 4zM193 236q10 0 17 -7.5t7 -17t-7 -16.5t-17 -7t-17 7t-7 16.5t7 17t17 7.5zM229 56v-17q0 -8 -5.5 -13.5t-12.5 -5.5h-173q-8 0 -13.5 5.5t-5.5 13.5v17q0 7 5.5 12.5t13.5 5.5h173 q8 0 13 -5.5t5 -12.5zM75 88v63q0 3 2.5 6t6.5 3h21l20 -72h-50zM129 127l-9 31l44 29q7 -8 17 -11zM237 118h-31l20 38l11 -14v-24zM76 36q5 0 8.5 3.5t3.5 8.5t-3.5 8.5t-8.5 3.5t-8.5 -3.5t-3.5 -8.5t3.5 -8.5t8.5 -3.5zM118 36q5 0 8.5 3.5t3.5 8.5t-3.5 8.5t-8.5 3.5 t-8.5 -3.5t-3.5 -8.5t3.5 -8.5t8.5 -3.5zM160 36q5 0 8.5 3.5t3.5 8.5t-3.5 8.5t-8.5 3.5t-8.5 -3.5t-3.5 -8.5t3.5 -8.5t8.5 -3.5z" />
</svg>