<svg viewBox="0 0 1024 1024" xmlns="http://www.w3.org/2000/svg">
  <path transform="scale(1, -1) translate(0, -960)" fill="currentColor" d="M946 432h-93v253q0 49 -34.5 84.5t-84.5 35.5h-40v45q0 32 -22 55t-53 23h-214q-33 0 -55 -23t-24 -55v-45h-38q-49 0 -83.5 -35.5t-34.5 -84.5v-253h-92q-14 0 -25 -11t-11 -26v-206q0 -16 5.5 -30t16.5 -25q11 -10 25 -16t29 -6h53v-66q0 -32 23 -55t54 -23h528 q32 0 54.5 23t22.5 55v66h53q15 0 29 6t25 16q11 11 16.5 25t5.5 30v205q0 15 -10.5 26.5t-25.5 11.5v0zM405 896h213q18 0 30.5 -13.5t12.5 -32.5v-45h-301v45q0 19 13.5 32.5t31.5 13.5v0zM290 771h444q36 0 61.5 -26t25.5 -62v-91l-298 -96q-6 -2 -12.5 -2t-12.5 2 l-295 98v91q0 36 25.5 61t61.5 25zM118 144q-8 0 -16 3.5t-16 9.5q-6 6 -9 14t-3 18v205q0 2 1 3t3 1h93v-256h-53v2zM397 0v147q0 13 9.5 22.5t22.5 9.5h166q13 0 22.5 -9.5t9.5 -22.5v-147h-230v0zM821 46q0 -19 -13.5 -32.5t-31.5 -13.5h-117v147q0 27 -18.5 45.5 t-45.5 18.5h-166q-27 0 -45.5 -18.5t-18.5 -45.5v-147h-117q-18 0 -31.5 13.5t-13.5 32.5v514l283 -94q6 -3 12 -3.5t12 -0.5t12 1t11 3l288 94v-514v0zM950 189q0 -9 -3 -17.5t-9 -14.5t-14.5 -9.5t-17.5 -3.5h-53v256h93q1 0 2.5 -2t1.5 -3v-206v0z" />
</svg>