<svg viewBox="0 0 1024 1024" xmlns="http://www.w3.org/2000/svg">
  <path transform="scale(1, -1) translate(0, -960)" fill="currentColor" d="M970 419q-6 6 -14 10.5t-17 4.5h-145v283q0 44 -17 82q-17 39 -45.5 67.5t-66.5 44.5q-39 17 -83 17h-139q-44 0 -82 -17q-39 -16 -67.5 -44.5t-44.5 -67.5q-17 -38 -17 -82v-285h-147q-9 0 -17 -3.5t-14 -10.5q-6 -6 -8 -14.5t-1 -17.5q6 -52 22 -109q15 -58 38.5 -113 t55.5 -104q31 -49 71 -84q6 -5 13 -7.5t14 -2.5h507q8 0 15 2.5t13 7.5q39 35 71 84t55.5 104t38.5 113q15 57 22 109q0 9 -2.5 17.5t-8.5 15.5v0zM262 717q0 74 52.5 126.5t127.5 52.5h139q74 0 126.5 -52.5t52.5 -126.5v-285h-498v285zM771 2q-1 -2 -2.5 -2h-3.5h-506h-3 t-3 2q-33 28 -61 70q-29 42 -52 93.5t-40 108.5q-16 58 -23 116q0 3 0.5 4.5t0.5 2.5q2 2 4 2.5t3 0.5h145v-102q0 -8 4.5 -12t11.5 -4q8 0 12 4t4 12v102h500v-102q0 -8 4 -12t12 -4q7 0 11.5 4t4.5 12v102h145q3 0 4 -1t3 -2q1 -1 1 -2.5v-4.5q-7 -58 -23 -116 q-16 -57 -39.5 -108.5t-52.5 -93.5q-28 -42 -61 -70v0z" />
</svg>