<svg viewBox="0 0 1024 1024" xmlns="http://www.w3.org/2000/svg">
  <path transform="scale(1, -1) translate(0, -960)" fill="currentColor" d="M899 370q-3 4 -8 8t-9 6l30 128q5 20 0.5 41t-18.5 37q-13 17 -32 26.5t-40 9.5h-158q1 12 2 25t1 26q0 53 -13 98q-12 46 -33.5 80t-50.5 54q-28 19 -61 19t-62 -19q-28 -20 -49.5 -54t-33.5 -80q-12 -45 -12 -98q0 -13 1 -25.5t2 -25.5h-153q-22 0 -40.5 -9.5 t-31.5 -26.5q-12 -16 -17.5 -37t-0.5 -41l29 -126q-5 -4 -9.5 -7.5t-8.5 -7.5q-13 -15 -19 -34t-3 -39l32 -248q5 -35 31 -58.5t62 -23.5h572q35 0 61.5 23.5t31.5 58.5l32 248q1 19 -5 38t-19 34zM384 677q0 89 37 154t88 65q50 0 87.5 -65t37.5 -154q0 -13 -1 -26t-3 -25 h-241q-3 12 -4 25t-1 26v0zM144 518q-4 14 -0.5 27.5t11.5 24.5q9 10 21.5 16t26.5 6h618q14 0 26 -6t22 -16q9 -11 12 -24.5t-1 -27.5l-27 -120q-6 2 -11.5 3t-11.5 1h-636q-6 0 -12 -1t-11 -3l-27 120v0zM890 301l-32 -248q-3 -23 -20.5 -38t-40.5 -15h-571 q-23 0 -40.5 15t-20.5 38l-32 248q-1 13 2.5 25.5t11.5 22.5q9 9 21 15t26 6h635q13 0 25 -6t21 -15q9 -10 13 -22.5t2 -25.5z" />
</svg>