<svg viewBox="0 0 256 256" xmlns="http://www.w3.org/2000/svg">
  <path transform="scale(1, -1) translate(0, -256)" fill="currentColor" d="M244 123q-3 4 -10 4h-33v68q0 15 -7.5 28t-20.5 20.5t-28 7.5h-35q-15 0 -27.5 -7.5t-20.5 -20.5t-8 -28v-68h-33q-5 0 -9.5 -4.5t-3.5 -10.5q4 -28 16 -56q13 -31 32 -48q4 -3 9 -3h127q5 0 8 3q19 17 33 48q11 28 15 57q1 5 -4 10zM68 195q0 18 12.5 30t29.5 12h35 q18 0 30 -12t12 -30v-68h-119v68zM191 19h-126q-16 14 -27.5 40t-15.5 54h33v-22q0 -3 2 -5t5 -2t5 2t2 5v22h119v-22q0 -3 2 -5t5 -2t5 2t2 5v22h33q-5 -29 -17 -54.5t-27 -39.5z" />
</svg>