<svg viewBox="0 0 256 256" xmlns="http://www.w3.org/2000/svg">
  <path transform="scale(1, -1) translate(0, -256)" fill="currentColor" d="M227 110q0 1 -2 2l-1 2l7 29q2 13 -6 22.5t-20 9.5h-36l1 10q0 18 -6 33t-15.5 24t-21 9t-21.5 -9t-15.5 -24t-5.5 -33v-10h-35q-6 0 -11 -2.5t-9 -7.5q-8 -9 -5 -22l7 -29q-2 -2 -3 -4q-8 -9 -7 -20l8 -62q2 -10 9 -16.5t17 -6.5h144q9 0 16.5 6.5t9.5 16.5l8 62 q1 11 -7 20zM99 185q0 21 8.5 36.5t20 15.5t20 -15.5t8.5 -36.5v-9h-56zM39 146q-2 6 2 10.5t10 4.5h154q6 0 10 -4.5t2 -10.5l-6 -27l-163 1l-3 -1zM220 92l-8 -62q-1 -5 -4.5 -8t-7.5 -3h-144q-4 0 -7.5 3t-4.5 8l-8 62q0 5 3.5 9t8.5 4h159q5 0 9 -4t4 -9z" />
</svg>