<svg viewBox="0 0 256 256" xmlns="http://www.w3.org/2000/svg">
  <path transform="scale(1, -1) translate(0, -256)" fill="currentColor" d="M128 178q-34 0 -62 -8.5t-44.5 -23t-16.5 -32.5q0 -5 1 -10q4 -11 16 -15q15 -5 43.5 -8t62 -3t62 3t43.5 8q12 3 16 15v1q2 7 2 9q0 18 -16.5 32.5t-44.5 23t-62 8.5zM236 108v0q-1 -5 -6 -6q-14 -4 -42 -7t-60 -3t-59.5 3t-42.5 7q-5 2 -6 5t-1 7q0 11 9.5 20.5 t26.5 16.5q3 -13 11.5 -21.5t19.5 -8.5q3 0 5.5 2t2.5 5t-2.5 5.5t-5.5 2.5q-6 0 -11 5.5t-7 14.5q20 6 41 8q2 -17 10.5 -29.5t21.5 -12.5q3 0 5 2t2 5t-2 5t-5 2q-6 0 -11.5 9t-6.5 20h5q20 0 35 -3q0 -17 9.5 -28.5t22.5 -11.5q3 0 5 2t2 5t-2 5t-5 2q-7 0 -12 7t-6 17 q27 -7 43.5 -19t16.5 -25q0 -4 -1 -8z" />
</svg>