<svg viewBox="0 0 1024 1024" xmlns="http://www.w3.org/2000/svg">
  <path transform="scale(1, -1) translate(0, -960)" fill="currentColor" d="M512 635q-101 0 -188 -19q-88 -18 -153 -51t-102 -77t-37 -94q0 -10 1.5 -19t4.5 -20q6 -19 21 -33t34 -20q30 -9 74 -17t98.5 -13t117.5 -8q62 -3 129 -3t129 3q63 3 117.5 8t98.5 13t74 17q19 6 34 20t21 33v2q2 9 3 18.5t1 18.5q1 50 -36 94t-101.5 76.5t-152.5 51.5 q-87 19 -188 19zM957 366v0q-4 -12 -13 -21t-21 -12q-29 -9 -72 -17q-44 -7 -97 -12t-115 -8q-61 -3 -127 -3t-127 2q-62 3 -115 8t-96 13q-43 7 -72 17q-12 3 -21 12t-12 20q-3 7 -4 14t-1 15q0 48 45 89.5t120 71.5q8 -53 40.5 -88t76.5 -35q7 0 11.5 4.5t4.5 11.5 t-4.5 11.5t-11.5 4.5q-32 0 -56 29t-29 72q41 13 88 22t97 13q5 -61 38.5 -114.5t80.5 -53.5q7 0 11.5 4.5t4.5 11.5t-4.5 11.5t-11.5 4.5q-29 0 -55.5 43t-31.5 95h17.5h18.5q39 0 77.5 -3.5t74.5 -9.5v-1.5v-1.5q0 -64 34.5 -110t83.5 -46q7 0 11.5 4.5t4.5 11.5 q0 8 -4.5 12t-11.5 4q-35 0 -60 35t-26 85q57 -12 105 -31t83 -43.5t54 -53.5q20 -29 20 -60q0 -8 -1 -14t-2 -14v0z" />
</svg>