<svg viewBox="0 0 256 256" xmlns="http://www.w3.org/2000/svg">
  <path transform="scale(1, -1) translate(0, -256)" fill="currentColor" d="M251 124v0v0l-1 1l-32 64h17q3 0 5 2t2 5t-2 5.5t-5 2.5h-100v23q0 3 -2 5t-5 2t-5 -2t-2 -5v-24h-100q-3 0 -5 -2t-2 -5t2 -5t5 -2h17l-33 -64v-3q0 -19 13.5 -32t32 -13t32 13t13.5 32l-1 3l-33 64h60v-153h-27q-3 0 -5 -2t-2 -5t2 -5t5 -2h67q3 0 5.5 2t2.5 5t-2.5 5 t-5.5 2h-26v153h59l-33 -64v-3q0 -19 13 -32t31.5 -13t32 13t13.5 32zM50 181l27 -52h-53zM50 91q-11 0 -19.5 7t-10.5 17h60q-2 -10 -10.5 -17t-19.5 -7zM232 129h-53l27 52zM206 91q-11 0 -19.5 7t-10.5 17h60q-2 -10 -10.5 -17t-19.5 -7z" />
</svg>