<svg viewBox="0 0 1024 1024" xmlns="http://www.w3.org/2000/svg">
  <path transform="scale(1, -1) translate(0, -960)" fill="currentColor" d="M990 430v1t0 -1v2v0l-140 272h89q7 0 11.5 4.5t4.5 11.5t-4.5 11.5t-11.5 4.5h-411v107q0 7 -4.5 11.5t-11.5 4.5t-11.5 -4.5t-4.5 -11.5v-107h-411q-7 0 -11.5 -4.5t-4.5 -11.5t4.5 -11.5t11.5 -4.5h89l-140 -272v0v0v0v-2q-2 -1 -2 -2v-2q0 -71 49 -120.5t119 -49.5 t119 49t49 119v2.5t-2 2.5v0v1v0v0l-140 272h270v-630v-2.5t2 -2.5h-120q-8 0 -12 -4.5t-4 -11.5t4 -11.5t12 -4.5h270q7 0 11.5 4.5t4.5 11.5t-4.5 11.5t-11.5 4.5h-120q0 1 1 2.5t1 2.5v632h268l-142 -272v0v0v0v-2q0 -1 -1 -2t-1 -2q0 -70 49.5 -119t118.5 -49 q70 0 120 48.5t50 119.5v2t-2 2v0zM200 685l126 -245h-252l126 245v0zM200 288q-53 0 -91.5 35t-44.5 85h272q-6 -50 -44.5 -85t-91.5 -35zM950 442h-254l126 244zM824 288q-53 0 -91.5 35t-44.5 85h272q-7 -50 -45.5 -85t-90.5 -35z" />
</svg>