<svg viewBox="0 0 1024 1024" xmlns="http://www.w3.org/2000/svg">
  <path transform="scale(1, -1) translate(0, -960)" fill="currentColor" d="M213 654q41 0 70 28.5t29 67.5q0 40 -29 68t-70 28t-70 -28t-29 -68q0 -39 29 -67.5t70 -28.5zM213 816q27 0 47 -19t20 -45t-20 -45t-47 -19q-28 0 -47.5 19t-19.5 45t19.5 45t47.5 19zM67 366h291q11 0 18.5 7.5t7.5 18.5v70q0 53 -37.5 90t-88.5 37h-90 q-53 0 -89.5 -37.5t-36.5 -89.5v-70q0 -11 7 -18.5t18 -7.5v0zM74 462q0 40 28 67.5t66 27.5h90q39 0 66.5 -28t27.5 -67v-64h-278v64v0zM896 622h-67q-27 0 -45.5 19t-18.5 44t18.5 43.5t45.5 18.5h147q7 0 11.5 4.5t4.5 11.5t-4.5 11.5t-11.5 4.5h-75v53q0 7 -4.5 11.5 t-11.5 4.5t-11.5 -4.5t-4.5 -11.5v-51h-40q-40 0 -68 -28t-28 -67t28 -66.5t68 -27.5h67q26 0 45 -18.5t19 -43.5q0 -26 -19 -44.5t-45 -18.5h-147q-7 0 -11.5 -4.5t-4.5 -11.5t4.5 -11.5t11.5 -4.5h120v-51q0 -7 4.5 -11.5t11.5 -4.5t11.5 4.5t4.5 11.5v51q37 3 64 29.5 t27 65.5q0 38 -28 65t-68 27v0zM962 253h-914q-7 0 -11.5 -4.5t-4.5 -11.5t4.5 -11.5t11.5 -4.5h432l-125 -146q-3 -3 -3.5 -8t0.5 -9q2 -5 6 -7.5t8 -2.5h277q5 0 8.5 2.5t6.5 7.5q2 4 1 9t-5 8l-124 146h432q7 0 11.5 4.5t4.5 11.5t-5 11.5t-11 4.5zM402 80l104 120 l102 -120h-206z" />
</svg>