<svg viewBox="0 0 256 256" xmlns="http://www.w3.org/2000/svg">
  <path transform="scale(1, -1) translate(0, -256)" fill="currentColor" d="M53 177q12 0 20 8t8 19t-8 19t-20 8t-20 -8t-8 -19t8.5 -19t19.5 -8zM53 217q6 0 10 -4t4 -9.5t-4 -9.5t-10 -4t-10 4t-4 9.5t4 9.5t10 4zM17 105h73q3 0 6 3t3 6v18q0 14 -10 24.5t-25 10.5h-22q-14 0 -24.5 -10.5t-10.5 -24.5v-18q0 -4 3 -6.5t7 -2.5zM21 132q0 8 6 14 t15 6h22q9 0 15 -6t6 -14v-14h-64v14zM224 175h-17q-5 0 -9 3.5t-4 9t4 9t9 3.5h37q3 0 5 2t2 5t-2 5t-5 2h-16v10q0 3 -2 5t-5 2t-5 -2t-2 -5v-10h-7q-11 0 -19 -8t-8 -19t8 -19t19 -8h17q5 0 9 -3.5t4 -9t-4 -9t-9 -3.5h-37q-3 0 -5 -2t-2 -5t2 -5.5t5 -2.5h27v-10 q0 -3 2 -5t5 -2t5 2t2 5v10q10 2 16.5 9.5t6.5 18.5t-8 19t-19 8zM240 82h-228q-3 0 -5 -2t-2 -5t2 -5t5 -2h101l-27 -32q-3 -3 -1 -7t6 -4h69q5 0 7 4q1 2 0.5 4t-1.5 3l-27 32h101q3 0 5 2t2 5t-2 5t-5 2zM107 39l19 23l19 -23h-38z" />
</svg>