<svg viewBox="0 0 1024 1024" xmlns="http://www.w3.org/2000/svg">
  <path transform="scale(1, -1) translate(0, -960)" fill="currentColor" d="M837 603q0 5 -0.5 10t-1.5 9v3v2q-4 63 -31 118t-70.5 95.5t-100.5 64.5q-57 23 -121 23q-67 0 -126 -26q-60 -25 -104 -69t-69 -103q-26 -60 -26 -127q0 -132 37 -220t86.5 -141.5t100.5 -79.5q50 -26 77 -34l-133 -133q-3 -3 -4 -8t1 -9q2 -5 6 -7.5t8 -2.5h292 q4 0 8.5 2.5t5.5 7.5q2 4 1 9t-4 8l-133 133q27 8 77 34q51 26 100.5 79.5t86.5 141.5t37 220v0zM242 426l563 176q0 -51 -6 -94.5t-17 -80.5l-468 -144q-22 29 -40.5 64t-31.5 79v0zM219 602h1.5h1.5l527 176q23 -30 37 -66.5t19 -74.5l-571 -179q-8 31 -11.5 67t-3.5 77v0 zM512 896q64 0 118.5 -25t94.5 -68l-504 -168q6 55 31 102q25 48 64 83t89 56q51 20 107 20v0zM405 0l107 107l107 -107h-214v0zM512 155q-13 3 -66 24t-108 79l432 132q-27 -70 -67 -115t-79.5 -71t-70.5 -37q-31 -10 -41 -12z" />
</svg>