<svg viewBox="0 0 256 256" xmlns="http://www.w3.org/2000/svg">
  <path transform="scale(1, -1) translate(0, -256)" fill="currentColor" d="M212 167v4v2q-2 22 -13.5 39.5t-30 28t-41 10.5t-42 -11.5t-30.5 -31t-11 -42.5q0 -54 28 -88q18 -21 44 -32l-30 -30q-1 -1 -1.5 -3t0.5 -4q2 -5 6 -5h73q5 0 6.5 4.5t-1.5 7.5l-30 30q27 11 45 33q28 33 28 88zM80 91q-10 12 -16 30l134 42q0 -22 -5 -37zM58 164 l128 43q9 -14 11 -30l-136 -43q-3 12 -3 30zM128 237q27 0 48 -19l-117 -39q4 25 23.5 41.5t45.5 16.5zM108 19l20 19l20 -19h-40zM128 58q-21 5 -38 21l97 30q-11 -25 -33 -40q-14 -8 -26 -11z" />
</svg>