<svg viewBox="0 0 1024 1024" xmlns="http://www.w3.org/2000/svg">
  <path transform="scale(1, -1) translate(0, -960)" fill="currentColor" d="M837 603q0 67 -26 127q-25 59 -69 103t-104 69q-59 26 -126 26t-126 -26q-60 -25 -104 -69t-69 -103q-26 -60 -26 -127q0 -132 37 -220t86.5 -141.5t100.5 -79.5q50 -26 77 -34l-133 -133q-3 -3 -4 -8t1 -9q2 -5 6 -7.5t8 -2.5h292q4 0 8.5 2.5t5.5 7.5q2 4 1 9t-4 8 l-133 133q27 8 77 34q51 26 100.5 79.5t86.5 141.5t37 220v0zM405 0l107 107l107 -107h-214v0zM512 155q-12 3 -59 20q-47 18 -99 66.5t-94 135.5q-41 86 -41 226q0 61 23 114t63 93t93 63t114 23t114 -23t93 -63t63 -93t23 -114q0 -140 -41 -226q-42 -87 -93.5 -135.5 t-99.5 -66.5q-47 -17 -59 -20v0zM586 755q-5 -5 -5.5 -11t3.5 -11l29 -42t22 -86q-3 -18 -14.5 -32.5t-31.5 -26.5q-6 -4 -8 -10.5t1 -12.5q3 -3 6.5 -5.5t8.5 -2.5q2 0 3.5 0.5l4.5 1.5q27 15 43 35.5t19 45.5q10 56 -23.5 104t-35.5 50q-5 6 -11.5 7t-10.5 -4v0z" />
</svg>