<svg viewBox="0 0 256 256" xmlns="http://www.w3.org/2000/svg">
  <path transform="scale(1, -1) translate(0, -256)" fill="currentColor" d="M212 167q0 23 -11 42t-30.5 30.5t-42.5 11.5t-42.5 -11.5t-30.5 -30.5t-11 -42q0 -55 28 -88q18 -22 44 -32l-30 -30q-1 -2 -1.5 -4t0.5 -4q2 -4 6 -4h73q5 0 6.5 4t-1.5 8l-30 30q27 10 45 32q28 33 28 88zM108 19l20 19l20 -19h-40zM128 58q-11 3 -23 10q-19 11 -31 32 q-16 27 -16 67q0 19 9.5 35t25.5 25.5t35 9.5t35 -9.5t25.5 -25.5t9.5 -35q0 -40 -16 -67q-12 -21 -31 -33q-12 -7 -23 -9zM144 207q-2 -2 -2 -5t2 -5q5 -5 8 -12q5 -10 4 -17.5t-10 -12.5q-3 -1 -3.5 -4t1 -6t5.5 -3q1 0 3 1q15 8 17 22q3 18 -15 41v0q-2 3 -5 3t-5 -2z " />
</svg>