<svg viewBox="0 0 256 256" xmlns="http://www.w3.org/2000/svg">
  <path transform="scale(1, -1) translate(0, -256)" fill="currentColor" d="M232 190q-19 13 -38 2q1 33 -23 50q-17 12 -35.5 7.5t-35.5 -27.5q-7 10 -15 16q-10 9 -21 12q-19 4 -35 -7t-21 -30q-4 -15 -1 -34q2 -15 9 -27v0q5 -12 15 -25q19 -25 43 -40l-5 -29q-1 -3 1 -5.5t5 -2.5l3 1l16 5l1 -30q0 -2 2 -4t5 -2v0q3 0 5 2t2 5l-1 30l17 -5 q4 -1 7 2t2 6l-4 29l2 2q11 -11 19 -17l-5 -30q-1 -4 1.5 -6t5.5 -2h2l17 6l1 -30q0 -3 2 -5t5 -2v0q3 0 5 2.5t2 4.5l-1 30l17 -4q4 -1 6.5 1.5t2.5 6.5l-5 29q15 11 26 28q6 8 10 16v0q8 17 8 35q-1 24 -19 36zM103 72q-1 0 -1 1h-1l-16 -5l4 22l-1 4l-3 2q-21 13 -40 36 q-9 12 -17 25v2q-7 15 -8 30q-3 28 17 42q11 8 23.5 5t23.5 -17q6 -7 10 -13v0q1 -4 5 -4t7 4q4 8 12 16q10 12 21 14.5t24 -6.5t16 -25q2 -13 -1 -28l-1 -2q-2 -9 -6 -17v0q0 -1 -6 -11q-8 -13 -18 -24q-13 -15 -29 -24q-3 -2 -4 -6l4 -24zM230 125q0 -1 -4 -7 q-5 -8 -11 -16q-9 -10 -19 -18q-4 -2 -4 -6l4 -24l-16 4h-4l-14 -5l3 22v2v1l-3 4q-9 6 -19 16q12 10 23 24q7 9 13 20q4 7 5 9q5 10 7 19q17 19 33 8v0q15 -10 12 -32q-1 -11 -6 -21z" />
</svg>