<svg viewBox="0 0 1024 1024" xmlns="http://www.w3.org/2000/svg">
  <path transform="scale(1, -1) translate(0, -960)" fill="currentColor" d="M922 688q-40 28 -81 25.5t-79 -33.5q6 54 -9 114t-76 102q-31 22 -64 29t-66 0q-54 -13 -91.5 -53t-55.5 -67q-18 26 -56 66.5t-91 53.5q-34 7 -67 0t-64 -29q-62 -43 -77 -102t-9 -113.5t21 -92.5q16 -39 17 -39q1 -3 16 -30q15 -28 44.5 -67t72.5 -83t100 -78l-21 -123 q-1 -4 1 -8t4 -6q3 -3 5.5 -3.5t5.5 -0.5q2 0 3 0.5t2 1.5l82 27l5 -136q0 -6 5 -11t11 -5v0v0q7 0 11.5 5t4.5 11l-5 136l81 -22q4 -1 8 0t7 3t4.5 6.5t0.5 7.5l-18 124q6 3 12 7.5t12 8.5q20 -23 42 -43t44 -36l-20 -125q-2 -3 0 -7.5t4 -6.5q3 -2 5.5 -2.5t4.5 -0.5h2.5 t2.5 1l81 29l10 -139q0 -6 5 -11t11 -5v0v0q7 0 11.5 5t4.5 11l-5 136l83 -21q4 -1 8 0t7 3q3 3 4.5 7t0.5 8l-20 123q72 53 108.5 114t37.5 64l12 30t16.5 72.5t-7.5 88.5t-59 79v0zM410 214v0v0h-2h-2.5h-2.5v0v0v0v0h-2h-3l-76 -25l19 109v0v0v2v1v1.5v1.5t-1 1.5t-1 1.5 v1t-1 1q0 1 -1 1h-3l-0.5 1l-0.5 1v0v0q-56 32 -99 75q-43 42 -72 81t-45 66q-15 27 -15 28t-14 35q-14 35 -20 83.5t6 100.5q13 52 65 88q25 18 51.5 24t52.5 0q63 -16 102 -71.5l39 -55.5q2 -3 6 -5.5t8 -2.5v0q5 0 8.5 2.5t6.5 5.5q0 2 39 57t102 70q26 6 51.5 0 t52.5 -24q52 -37 64 -89q13 -52 7 -100.5t-19 -82.5l-14 -35q0 -1 -11 -22q-11 -22 -33 -54t-55 -69q-32 -37 -75 -70v0v0v0v0q-10 -7 -20.5 -14t-21.5 -15q-4 -1 -6 -4t-2 -7v0v0v-2v-3v0v0v0l16 -108l-78 20v0zM931 432q0 -1 -35.5 -60t-105.5 -110q-3 -1 -5.5 -4.5 t-3.5 -7.5v0v0v-3v-2l16 -109l-80 21h-2.5h-2.5v0v0v0v0q-1 0 -2.5 -0.5t-2.5 -1.5l-77 -25l18 108v3v2v1v1q0 1 -1 2l-1 1v1v1q-1 1 -1.5 2t-1.5 1v0v0v0v0v0v0q-23 15 -44.5 34.5t-41.5 42.5q42 34 73 71t52 68.5t32 52.5t12 24q0 1 9.5 22t18.5 54q37 45 75 54.5 t77 -17.5q37 -26 47 -64q9 -38 4.5 -73.5t-14.5 -61.5q-11 -26 -12 -28v0z" />
</svg>