<svg viewBox="0 0 1024 1024" xmlns="http://www.w3.org/2000/svg">
  <path transform="scale(1, -1) translate(0, -960)" fill="currentColor" d="M662 928q-57 0 -105.5 -36t-74.5 -97q-23 15 -49.5 23.5t-54.5 8.5q-46 0 -86 -21q-40 -20 -69.5 -56t-46.5 -85q-18 -48 -18 -103q0 -54 17 -108q16 -53 45 -96.5t69 -70.5q39 -27 85 -28q-6 -15 -12 -36.5t-10 -33.5q-7 -25 -2.5 -50t10.5 -49q7 -28 10.5 -52 t-10.5 -46q-4 -6 -2.5 -12.5t7.5 -9.5q2 -2 4.5 -3t3.5 -1q3 0 6.5 2.5t6.5 5.5q20 32 16 63.5t-12 60.5q-6 21 -10 41.5t2 39.5l13.5 40.5t14.5 41.5v0v0q54 12 96 58.5t65 109.5q12 -9 24.5 -15.5t25.5 -10.5q3 -1 7 -1.5t7 -1.5q-1 -5 -3.5 -11t-5.5 -15 q-6 -16 -12.5 -33.5t-8.5 -26.5q-7 -26 -2.5 -51t10.5 -49q7 -27 10.5 -51.5t-10.5 -45.5q-4 -6 -2.5 -12.5t7.5 -10.5l4 -2t4 -1q3 0 6.5 2.5t5.5 5.5q21 31 16.5 63t-11.5 60q-6 22 -10 42.5t2 39.5q3 8 9 25t12 33q4 8 6 15t4 12q1 1 1 3t-1 3q8 0 16.5 1.5t16.5 3.5 q34 10 64 37t52.5 65t35.5 83q13 46 13 93q1 53 -15 98q-16 46 -43.5 79.5t-64.5 53.5q-37 19 -79 19zM378 291q-40 0 -74 25t-59.5 64t-39.5 87q-15 49 -15 96q0 48 15 91q15 42 40.5 74t59.5 50q34 19 73 19q38 0 72 -18q34 -19 59.5 -50.5t40.5 -74.5q15 -42 15 -91 q0 -47 -15 -96q-14 -48 -39 -87t-60 -64q-34 -25 -73 -25v0zM691 435q-14 -5 -29.5 -5t-29.5 5q-12 4 -24.5 11t-23.5 18q7 24 10.5 49t3.5 50q0 66 -24 121.5t-65 91.5q20 55 61.5 87.5t91.5 32.5q36 0 67 -17t54.5 -46t36.5 -67q14 -39 14 -83q0 -41 -12 -82 q-11 -40 -30.5 -74t-45.5 -58q-26 -25 -55 -34v0z" />
</svg>