<svg viewBox="0 0 256 256" xmlns="http://www.w3.org/2000/svg">
  <path transform="scale(1, -1) translate(0, -256)" fill="currentColor" d="M206 173q0 21 -10.5 39t-28.5 28.5t-39 10.5t-39 -10.5t-28.5 -28.5t-10.5 -39q0 -53 29 -85q17 -19 42 -27v-49q0 -3 2 -5t5 -2t5 2t2 5v49q24 8 42 27q29 32 29 85zM128 74q-20 5 -35 20q-29 28 -29 79q0 17 8.5 32t23.5 23.5t32 8.5t32 -8.5t23.5 -23.5t8.5 -32 q0 -51 -29 -79q-15 -15 -35 -20zM143 210q-2 -1 -2.5 -4.5t1.5 -5.5q4 -4 8 -10q4 -9 3 -16t-9 -11q-2 -2 -3 -4.5t0.5 -5.5t5.5 -3h3q15 8 16.5 20.5t-5.5 26.5q-4 8 -9 13q-2 2 -4.5 2t-4.5 -2z" />
</svg>