<svg viewBox="0 0 1024 1024" xmlns="http://www.w3.org/2000/svg">
  <path transform="scale(1, -1) translate(0, -960)" fill="currentColor" d="M811 629q0 62 -23 116q-24 55 -64.5 95.5t-95.5 63.5q-54 24 -116 24t-116 -24q-55 -23 -95.5 -63.5t-64.5 -95.5q-23 -54 -23 -116q0 -126 36 -208q37 -82 84.5 -131.5t94.5 -71.5t68 -28v-206q0 -7 4.5 -11.5t11.5 -4.5t11.5 4.5t4.5 11.5v206q22 6 69 28q46 22 94 71 t84 131t36 209v0zM512 219q-11 3 -55 19q-43 16 -90 60.5t-85 123.5q-37 79 -37 207q0 55 21 104q21 48 57 84.5t85 57.5t104 21t104 -21q48 -21 84.5 -57.5t57.5 -84.5q21 -49 21 -104q0 -128 -37 -207q-38 -79 -85 -123.5t-90 -60.5q-44 -16 -55 -19zM579 770 q-5 -5 -5 -11.5t4 -11.5q12 -13 32 -48t14 -67q-2 -17 -13 -29.5t-30 -23.5q-6 -3 -8 -9.5t1 -12.5q3 -4 6.5 -6t8.5 -2h3.5t4.5 1q25 15 39.5 34t19.5 42q8 51 -22 95.5t-32 46.5q-5 5 -11.5 5t-11.5 -3z" />
</svg>