<svg viewBox="0 0 1024 1024" xmlns="http://www.w3.org/2000/svg">
  <path transform="scale(1, -1) translate(0, -960)" fill="currentColor" d="M814 626q0 62 -23 117q-24 55 -65 96t-97 65q-55 24 -117 24t-117 -24t-96.5 -65t-65.5 -96q-23 -55 -23 -117q0 -59 20 -111q21 -52 57.5 -92.5t86.5 -65.5q49 -26 106 -32l-53 -34q-6 -3 -7 -9.5t2 -12.5q3 -4 6.5 -6t6.5 -2t5 1t3 2l53 34v-66q0 -34 24 -58t58 -24h27 q30 0 51.5 -21.5t21.5 -51.5t-21.5 -52t-51.5 -22h-221q-7 0 -11.5 -4.5t-4.5 -11.5t4.5 -11.5t11.5 -4.5h221q44 0 74.5 31.5t30.5 74.5t-31 74t-74 31h-27q-21 0 -35.5 15t-14.5 35v72l1.5 -1.5t1.5 -0.5l61 -38q2 -1 4.5 -2t3.5 -1q4 0 8 2t5 6q3 6 2 12.5t-7 9.5l-56 35 q56 8 104 34t83 65.5t55 91.5q20 51 20 109v0zM512 355q-56 0 -105 22q-49 21 -86 57.5t-58 86.5q-21 49 -21 105q0 55 21 105q21 49 58 85.5t86 58.5q49 21 105 21t105 -21q49 -22 86 -58.5t58 -85.5q21 -50 21 -105q0 -56 -21 -105q-21 -50 -58 -86.5t-86 -57.5 q-49 -22 -105 -22zM512 770q-60 0 -102 -43t-42 -101q0 -8 4.5 -12t11.5 -4t11.5 4t4.5 12q0 46 33 79t79 33q7 0 11.5 4t4.5 12q0 7 -4.5 11.5t-11.5 4.5z" />
</svg>