<svg viewBox="0 0 1024 1024" xmlns="http://www.w3.org/2000/svg">
  <path transform="scale(1, -1) translate(0, -960)" fill="currentColor" d="M512 928q-99 0 -186 -38q-88 -38 -153 -103t-103 -153q-38 -87 -38 -186t38 -186q38 -88 103 -153t153 -103q87 -38 186 -38t186 38q88 38 153 103t103 153q38 87 38 186t-38 186q-38 88 -103 153t-153 103q-87 38 -186 38zM64 448q0 92 35 174q36 81 96.5 142t142.5 97 q82 35 174 35q74 0 142 -23t124 -65l-559 -699q-35 31 -64 69t-49 81t-31 90q-11 48 -11 99v0zM512 0q-76 0 -144 24t-123 66l558 699q36 -31 65 -69t49.5 -81t31.5 -91t11 -98q0 -93 -35 -175q-36 -82 -96.5 -143t-142.5 -97q-82 -35 -174 -35z" />
</svg>