<svg viewBox="0 0 1024 1024" xmlns="http://www.w3.org/2000/svg">
  <path transform="scale(1, -1) translate(0, -960)" fill="currentColor" d="M555 211q-23 0 -44 2.5t-39 5.5q-68 13 -129 42t-107.5 64.5t-75.5 71.5q-28 36 -32 62q-12 88 -51 142.5t-40 56.5q-5 4 -5 10.5t5 11.5t11 5t11 -5q1 -2 23.5 -30.5t45.5 -76.5l1 -0.5t1 -1.5q34 -26 78 -44q43 -19 81.5 -31t64.5 -18t27 -6q117 -19 206 -13t153.5 25 t105.5 44q41 24 61 42q15 12 33 12t33 -12q14 -12 17.5 -30.5t-4.5 -33.5q-50 -91 -106 -148q-56 -58 -112.5 -90.5t-111.5 -44.5q-54 -12 -101 -12zM146 522q3 -14 6.5 -28t5.5 -30q3 -21 29 -52q26 -32 68.5 -63.5t99.5 -58.5q56 -27 122 -39q51 -9 111 -6q61 3 124 31 t126 86q63 59 119 160q3 6 1.5 12.5t-6.5 11.5q-6 4 -13 4t-13 -4q-21 -19 -64 -45q-44 -26 -111.5 -46.5t-161.5 -27.5t-216 13q-4 1 -79 20.5t-148 61.5v0z" />
</svg>