<svg viewBox="0 0 256 256" xmlns="http://www.w3.org/2000/svg">
  <path transform="scale(1, -1) translate(0, -256)" fill="currentColor" d="M245 166q-10 26 -4 52l1 3l-1 2q-4 9 -12 12t-16 1q-6 -2 -8.5 -6t-2.5 -8l1 -24q-6 -10 -11 -16q-18 -18 -42 -25.5t-50.5 -3t-50.5 20.5l-1 1q-14 8 -21 5t-9 -12t3 -19q14 -28 33 -45q-6 2 -19 6q-15 6 -22.5 1t-7.5 -15t7 -19q25 -30 55 -45q26 -13 56 -13 q35 0 65 17q25 14 41 36t20.5 47t-4.5 47zM221 223q4 -1 5 -4q-2 -10 -1 -23h-9v26q3 2 5 1zM33 155q-2 5 -1 10v1q3 0 8 -3q26 -18 55 -23t56 2.5t47 27.5q-3 -9 -8 -18q-16 -26 -43.5 -40t-60.5 -13q-33 17 -53 56zM181 48q-23 -13 -48 -15q-29 -3 -55 9q-30 13 -55 44 q-4 5 -4 11q0 2 1 2h2q3 0 8 -1q34 -14 67 -13t60.5 16.5t44.5 43.5q10 17 13 37h12q1 -9 5 -20q8 -22 3 -44t-19.5 -40t-34.5 -30z" />
</svg>