<svg viewBox="0 0 256 256" xmlns="http://www.w3.org/2000/svg">
  <path transform="scale(1, -1) translate(0, -256)" fill="currentColor" d="M139 66q-11 0 -22 2q-22 4 -43 16q-19 10 -31.5 23.5t-13.5 22.5q-3 18 -13 35q-5 9 -9 13q-2 2 -2 5t2 5t5 2t5 -2l1 -1q10 -13 16 -26q11 -7 26 -13q12 -5 25 -8l11 -3q49 -8 88 3q25 7 41 21q4 3 10 3.5t10.5 -3t5.5 -9.5t-2 -11q-23 -42 -56 -61q-25 -14 -54 -14z M41 140q0 -1 1 -4l1 -4q0 -6 11 -16.5t27 -19.5q19 -11 39 -14q31 -6 57 6q35 15 60 60l-1 1.5t-2 0.5q-18 -15 -45 -23q-42 -13 -96 -4h-1q-29 6 -51 17z" />
</svg>