<svg viewBox="0 0 1024 1024" xmlns="http://www.w3.org/2000/svg">
  <path transform="scale(1, -1) translate(0, -960)" fill="currentColor" d="M970 598q-21 53 -25.5 107.5t5.5 105.5l2 10l-2 5q-14 33 -43 43t-54 1q-18 -6 -27 -17t-7 -26l2 -89v-4.5v-3.5q-10 -20 -22 -37t-26 -32q-55 -59 -125 -91t-147.5 -36.5t-157.5 18.5q-81 24 -156 75q-24 15 -42.5 19t-32.5 -1q-11 -5 -17.5 -14t-9.5 -23 q-4 -17 -1.5 -34t10.5 -35q34 -67 77 -119t95 -89q-33 6 -65.5 15.5t-64.5 23.5q-29 9 -49.5 10t-33.5 -9q-10 -8 -15.5 -20t-5.5 -26q0 -18 6 -36.5t20 -35.5q50 -63 104 -107q54 -43 109 -70.5t110 -39.5t109 -12q72 0 137 18.5t119 48.5q63 37 117 92t87 121.5t41 141.5 q7 76 -21 152v0zM870 840q12 1 27 -3.5t23 -20.5q-6 -26 -7.5 -53.5t1.5 -55.5h-61v6.5v6.5v0v3v6.5v6.5l-2 91v3q0 2 5 5.5t14 4.5v0zM123 552q-5 8 -7.5 20.5t-0.5 25.5q1 6 3.5 10t4.5 5q3 1 13 0t32 -15q80 -54 166 -78q86 -25 169 -19.5t158 40.5q75 34 134 97 q5 5 10 11t9 12q-6 -33 -17 -63.5t-27 -58.5q-34 -56 -80 -98t-101.5 -69.5t-117.5 -40.5q-63 -13 -129 -11q-68 35 -123 92.5t-96 139.5v0zM730 120q-66 -37 -145 -55q-80 -18 -165.5 -5t-171.5 64q-86 50 -165 150q-9 10 -14 23.5t-5 25.5q0 7 2 12t4 7t5.5 3t9.5 1 t15.5 -2t24.5 -6q99 -41 198 -48q98 -7 187 17.5t163 78.5t124 136q20 34 33.5 72.5t19.5 80.5h67q3 -23 9 -45t15 -44q26 -71 19 -140q-8 -68 -39 -129.5t-82 -112.5q-50 -50 -109 -84v0zM853 736v0v0z" />
</svg>