<svg viewBox="0 0 1024 1024" xmlns="http://www.w3.org/2000/svg">
  <path transform="scale(1, -1) translate(0, -960)" fill="currentColor" d="M912 928h-336q-34 0 -57 -24t-23 -56v-434h-242q-46 0 -86 -18q-41 -18 -71 -48t-48 -71q-17 -40 -17 -87q0 -46 17 -86q18 -41 48 -71t71 -48q40 -17 86 -17h658q34 0 57 24t23 56v800q0 32 -24 56t-56 24zM528 595l432 168v-374l-432 57v149zM576 896h336 q20 0 34 -14.5t14 -33.5v-50l-432 -169v219q0 19 14.5 33.5t33.5 14.5zM453 381l-59 -381h-2l-184 374q11 3 22.5 5t23.5 2h199zM64 190q0 59 31.5 106t82.5 69l179 -365h-103q-79 0 -134.5 55.5t-55.5 134.5v0zM426 0l59 381h17l213 -381h-289zM912 0h-160l-224 402v12 l432 -57v-309q0 -19 -14.5 -33.5t-33.5 -14.5z" />
</svg>