<svg viewBox="0 0 256 256" xmlns="http://www.w3.org/2000/svg">
  <path transform="scale(1, -1) translate(0, -256)" fill="currentColor" d="M228 251h-84q-10 0 -16.5 -6.5t-6.5 -16.5v-106h-57q-16 0 -29.5 -7.5t-21.5 -21t-8 -29.5t8 -29.5t21.5 -21.5t29.5 -8h164q10 0 16.5 6.5t6.5 16.5v200q0 9 -7 16t-16 7zM135 163l102 39v-86l-102 14v33zM144 237h84q4 0 6.5 -2.5t2.5 -6.5v-10l-102 -40v50 q0 4 2.5 6.5t6.5 2.5zM110 108l-13 -82l-41 82h8h46zM19 64q0 12 6.5 22.5t17.5 16.5l41 -84h-20q-19 0 -32 13t-13 32zM110 19l14 89l50 -89h-64zM228 19h-38l-54 97l101 -14v-74q0 -4 -2.5 -6.5t-6.5 -2.5z" />
</svg>