<svg viewBox="0 0 256 256" xmlns="http://www.w3.org/2000/svg">
  <path transform="scale(1, -1) translate(0, -256)" fill="currentColor" d="M247 189l-110 61q-9 5 -18 0l-110 -61q-4 -3 -4 -8q0 -3 2 -4t5 -1h13v-117q-5 -3 -8 -7.5t-3 -9.5v-19q0 -8 5.5 -13.5t13.5 -5.5h190q8 0 13.5 5.5t5.5 13.5v19q0 5 -2.5 9.5t-7.5 7.5v117h12q2 0 4 1t2.5 3.5t-0.5 5t-3 3.5zM126 237q2 2 4 0l87 -47h-178zM176 61h-98 v115h98v-115zM64 176v-115h-25v115h25zM228 23q0 -2 -1.5 -3.5t-3.5 -1.5h-190q-2 0 -3.5 1.5t-1.5 3.5v19q0 2 1.5 3.5t3.5 1.5h190q2 0 3.5 -1.5t1.5 -3.5v-19zM217 175v-114h-27v115l27 -1v1v-1zM120 138h24q3 0 5 2t2 5t-2 5t-5 2h-8v4q0 3 -2 5t-5 2t-5 -2t-2 -5v-4h-3 q-8 0 -14 -6t-6 -14.5t6 -14t14 -5.5h11q3 0 5 -2t2 -4.5t-2 -4t-5 -1.5h-24q-3 0 -5 -2.5t-2 -5.5t2 -5t5 -2h16v-4q0 -3 2 -5t5 -2t5 2t2 5v5q7 1 11 6.5t4 13t-6 13.5t-14 6h-11q-3 0 -5 1.5t-2 4t2 5t5 2.5z" />
</svg>