<svg viewBox="0 0 1024 1024" xmlns="http://www.w3.org/2000/svg">
  <path transform="scale(1, -1) translate(0, -960)" fill="currentColor" d="M984 680l-443 243q-13 7 -29 7t-30 -7l-442 -243q-5 -2 -7 -7.5t-1 -10.5q1 -4 5.5 -8t10.5 -4h64v-487q-19 -7 -31 -23t-12 -38v-75q0 -26 18.5 -45t45.5 -19h760q26 0 45 19t19 45v75q0 21 -12 37.5t-31 23.5v488h62q6 0 10.5 3.5t5.5 9.5q1 4 -1 9t-7 7v0zM267 651 v-483h-123v483h123zM299 168v483h415v-483h-415v0zM925 104v-75q0 -13 -9.5 -22.5t-22.5 -9.5h-760q-13 0 -22.5 9.5t-9.5 22.5v75q0 13 9.5 22.5t22.5 9.5h760q13 0 22.5 -9.5t9.5 -22.5zM882 168h-135v483h135v-483zM110 683l388 213q6 4 13.5 4t13.5 -4l387 -213h-802v0z M523 426h-45q-15 0 -25.5 10.5t-10.5 25.5q0 16 10.5 26.5t25.5 10.5h98q7 0 11.5 4.5t4.5 11.5t-4.5 11.5t-11.5 4.5h-45v29q0 7 -4.5 11.5t-11.5 4.5t-11.5 -4.5t-4.5 -11.5v-29h-22q-29 0 -49 -20t-20 -49q0 -28 20 -48t49 -20h45q15 0 25.5 -11t10.5 -26 q0 -16 -9.5 -26.5t-25.5 -10.5h-97q-8 0 -12 -4.5t-4 -11.5t4 -11.5t12 -4.5h75v-29q0 -7 4.5 -11.5t11.5 -4.5t11.5 4.5t4.5 11.5v31q25 3 43 21.5t18 45.5q-2 27 -22 48t-49 21v0z" />
</svg>