<svg viewBox="0 0 256 256" xmlns="http://www.w3.org/2000/svg">
  <path transform="scale(1, -1) translate(0, -256)" fill="currentColor" d="M247 189l-108 59q-5 3 -11 3t-12 -3l-108 -59q-4 -2 -3 -8q0 -2 2 -3.5t5 -1.5h13v-117q-5 -2 -8 -6.5t-3 -10.5v-19q0 -8 5.5 -13.5t13.5 -5.5h190q8 0 13.5 5.5t5.5 13.5v19q0 6 -2.5 10.5t-7.5 6.5v117h12q2 0 4 1.5t2.5 4t-0.5 4.5t-3 3zM123 236q5 3 9 0l84 -46 h-177zM176 61h-98v115h98v-115zM64 176v-115h-25v115h25zM228 24q0 -2 -1.5 -4t-3.5 -2h-190q-2 0 -3.5 2t-1.5 4v18q0 3 1.5 4.5t3.5 1.5h190q2 0 3.5 -1.5t1.5 -4.5v-18zM217 176v-115h-27v115h27v0v0zM152 150q3 0 5 2.5t2 5.5t-2 5t-5 2q-13 0 -24 -7t-17 -18h-6 q-3 0 -5 -2.5t-2 -5.5t2 -5t5 -2h2l-1 -6q0 -5 2 -9h-3q-3 0 -5 -2.5t-2 -5.5t2 -5t5 -2h8q6 -10 16.5 -15.5t22.5 -5.5q3 0 5 2t2 5t-2.5 5t-4.5 2q-12 0 -20 8h8q3 0 5 2t2 5t-2 5t-5 2h-18q-2 4 -2 10l1 6h19q3 0 5 2t2 5t-2 5t-5 2h-12q4 5 10.5 7.5t13.5 2.5z" />
</svg>