<svg viewBox="0 0 256 256" xmlns="http://www.w3.org/2000/svg">
  <path transform="scale(1, -1) translate(0, -256)" fill="currentColor" d="M230 59v105v0q6 2 7.5 7t0 8.5t-4.5 6.5l-99 63q-3 2 -6.5 2t-5.5 -2l-99 -63q-3 -2 -4.5 -6t-0.5 -8q2 -6 8 -8v-105q-5 -2 -7.5 -6.5t-2.5 -10.5v-18q0 -8 5.5 -13.5t13.5 -5.5h187q8 0 14 5.5t6 13.5v18q-1 6 -4 10.5t-8 6.5zM89 61h-49v103h49v-103zM103 164h50v-103 h-50v103zM167 164h49v-103h-49v103zM128 237l91 -59h-182zM227 24q0 -2 -1.5 -3.5t-3.5 -1.5h-188q-2 0 -3.5 1.5t-1.5 3.5v18q0 3 1.5 4.5t3.5 1.5h188q2 0 3.5 -1.5t1.5 -4.5v-18z" />
</svg>