<svg viewBox="0 0 1024 1024" xmlns="http://www.w3.org/2000/svg">
  <path transform="scale(1, -1) translate(0, -960)" fill="currentColor" d="M909 165v438q11 1 18.5 8t10.5 18q3 12 -1 23t-14 17l-392 253q-8 6 -19 6t-19 -6l-394 -253q-9 -6 -13.5 -17t-0.5 -23q3 -11 11 -18t19 -8v-438q-18 -7 -29.5 -23t-11.5 -36v-74q0 -26 18.5 -45t45.5 -19h750q26 0 45 19t19 45v74q0 20 -12.5 36.5t-30.5 22.5v0z M370 603v-433h-223v433h223v0zM402 603h222v-433h-222v433v0zM654 603h223v-433h-223v433v0zM117 642l392 254h0.5h0.5h1h1l392 -254l1 -1.5t1 -3.5q0 -3 -2 -3h-2h-784h-1.5t-1.5 3q0 2 1 3.5l1 1.5v0zM920 32q0 -13 -9.5 -22.5t-22.5 -9.5h-752q-13 0 -22.5 9.5t-9.5 22.5 v74q0 13 9.5 22.5t22.5 9.5h750q14 0 23 -9.5t9 -22.5v-74h2z" />
</svg>