<svg viewBox="0 0 1024 1024" xmlns="http://www.w3.org/2000/svg">
  <path transform="scale(1, -1) translate(0, -960)" fill="currentColor" d="M984 682l-432 236q-19 11 -40 11t-40 -11l-432 -236q-5 -3 -7 -8t-1 -10t5.5 -9t10.5 -4h64v-486q-19 -7 -31 -23t-12 -38v-75q0 -27 18.5 -45.5t45.5 -18.5h760q26 0 45 18.5t19 45.5v75q0 20 -12 37t-31 24v488h62q6 0 10.5 3.5t5.5 9.5q1 3 -1 8t-7 8v0zM267 653v-483 h-123v483h123zM299 170v483h415v-483h-415v0zM925 106v-76q0 -13 -9.5 -22.5t-22.5 -9.5h-760q-13 0 -22.5 9.5t-9.5 22.5v76q0 13 9.5 22.5t22.5 9.5h760q13 0 22.5 -9.5t9.5 -22.5zM882 170h-135v483h135v-483zM110 685l378 208q12 6 25 6t25 -6l377 -208h-805v0zM606 277 q-32 0 -60.5 15t-47.5 39h60q8 0 12 4.5t4 11.5t-4 11.5t-12 4.5h-78q-5 12 -7.5 24.5t-2.5 25.5q0 9 1.5 18t3.5 17h83q8 0 12 4.5t4 11.5t-4 11.5t-12 4.5h-68q18 30 49.5 49.5t68.5 19.5q7 0 11.5 4.5t4.5 11.5t-4.5 11.5t-11.5 4.5q-50 0 -92 -28.5t-62 -72.5h-33 q-7 0 -11.5 -4.5t-4.5 -11.5t4.5 -11.5t11.5 -4.5h22q-2 -8 -3.5 -17.5t-1.5 -17.5q0 -13 2.5 -25.5t5.5 -24.5h-27q-7 0 -11.5 -4.5t-4.5 -11.5t4.5 -11.5t11.5 -4.5h42q21 -38 60.5 -62t86.5 -24q7 0 11.5 4.5t4.5 11.5t-6 11.5t-12 4.5z" />
</svg>