<svg viewBox="0 0 256 256" xmlns="http://www.w3.org/2000/svg">
  <path transform="scale(1, -1) translate(0, -256)" fill="currentColor" d="M244 30h-218q-3 0 -5 2t-2 5v196q0 3 -2 5t-5 2t-5 -2t-2 -5v-196q0 -9 6.5 -15.5t15.5 -6.5h217q3 0 5 2t2 5t-2 5.5t-5 2.5zM74 93q12 0 20.5 8.5t8.5 20.5q0 6 -2 12l20 12q9 -9 21 -9t21 9t9 21q0 3 -2 10l25 14q9 -10 22 -10t21.5 9t8.5 21t-9 20.5t-21 8.5 t-20.5 -8.5t-8.5 -20.5q0 -4 1 -8l-27 -14q-8 8 -20 8t-20.5 -9t-8.5 -21q0 -5 1 -9l-20 -13q-9 7 -20.5 7t-20 -8.5t-9 -20.5t8 -21t21.5 -9zM217 226q6 0 10.5 -4.5t4.5 -10.5t-4.5 -11t-11 -5t-11 5t-4.5 11t5 10.5t11 4.5zM142 183q7 0 11.5 -4.5t4.5 -11t-5 -11 t-11.5 -4.5t-11 4.5t-4.5 10.5t5 11t11 5zM74 138q6 0 10.5 -4.5t4.5 -11t-4.5 -11t-11 -4.5t-11 4.5t-4.5 11t4.5 11t11.5 4.5z" />
</svg>