<svg viewBox="0 0 1024 1024" xmlns="http://www.w3.org/2000/svg">
  <path transform="scale(1, -1) translate(0, -960)" fill="currentColor" d="M976 0h-147v106q0 7 -4.5 11.5t-11.5 4.5t-11.5 -4.5t-4.5 -11.5v-106h-258v286q0 3 -0.5 4.5t-0.5 3.5q13 -3 27 -4.5t29 -1.5q42 0 83 15.5t75 45.5q0 -3 1 -4t2 -3l135 -134q2 -2 5 -3.5t6 -1.5q2 0 5.5 1.5t5.5 3.5q5 5 5 11.5t-5 10.5l-134 135l-4 2t-3 1 q31 35 46 78q15 42 14 86t-18 87q-18 42 -51 75q-35 35 -79 53q-44 17 -89.5 17t-89.5 -17q-44 -18 -78 -53q-35 -34 -53 -78q-17 -44 -17 -89.5t17 -89.5q18 -44 53 -79q20 -20 43 -33.5t48 -22.5q-4 -2 -6 -5.5t-2 -8.5v-288h-250v248q0 7 -4.5 11.5t-11.5 4.5t-11.5 -4.5 t-4.5 -11.5v-248h-120q-18 0 -30.5 12.5t-12.5 30.5v869q0 7 -4.5 11.5t-11.5 4.5t-11.5 -4.5t-4.5 -11.5v-869q0 -31 22 -53t53 -22h869q7 0 11.5 4.5t4.5 11.5t-4.5 11.5t-11.5 4.5zM446 672q30 30 68 45.5t78 15.5t78 -15.5t68 -45.5t45 -68t15 -77.5t-15 -77.5t-45 -68 t-68 -45t-78 -15t-78 15t-68 45t-45 68q-16 37 -16 76.5t16 77.5q15 38 45 69v0z" />
</svg>