<svg viewBox="0 0 256 256" xmlns="http://www.w3.org/2000/svg">
  <path transform="scale(1, -1) translate(0, -256)" fill="currentColor" d="M26 251q-3 0 -5 -2t-2 -5v-232q0 -3 2 -5t5 -2t5 2t2 5v232q0 3 -2 5t-5 2zM71 251q-3 0 -5 -2t-2 -5v-164q0 -3 2 -5.5t5 -2.5t5 2.5t2 5.5v164q0 3 -2 5t-5 2zM234 59l-32 33q7 9 10 21t0 24v107q0 3 -2 5t-5 2t-5 -2t-2 -5v-80l-1 1q-12 12 -29 15v64q0 3 -2.5 5 t-5.5 2t-4.5 -2t-1.5 -5v-63q-17 -1 -31 -13v76q0 3 -2 5t-5 2t-5 -2t-2 -5v-93q-8 -16 -5.5 -34t15.5 -31q8 -8 18 -12t21 -4q19 0 34 12l32 -33q2 -2 5 -2t5 2t2.5 5t-2.5 5zM129 96q-12 12 -12 29.5t12 29.5t29 12t29 -12t12 -29t-11.5 -29.5t-29 -12.5t-29.5 12z" />
</svg>