<svg viewBox="0 0 256 256" xmlns="http://www.w3.org/2000/svg">
  <path transform="scale(1, -1) translate(0, -256)" fill="currentColor" d="M244 19h-34v23q0 3 -2 5t-5 2t-5 -2t-2 -5v-23h-58v67q6 -1 10 -1q22 0 39 14l33 -33q2 -2 4.5 -2t4.5 2t2 5t-2 5l-33 33q15 18 14 42t-18 41q-12 12 -28.5 16t-32.5 0t-28 -16t-16 -28t0 -32t16 -28q9 -9 21 -14l-1 -71h-56v59q0 3 -2 5t-5 2t-5 -2t-2 -5v-59h-26 q-3 0 -5.5 2t-2.5 6v217q0 3 -2 5t-5 2t-5 -2t-2 -5v-217q0 -9 6.5 -15.5t15.5 -6.5h217q3 0 5 2t2 5t-2 5t-5 2zM114 182q14 14 34 14t34 -14t14.5 -34.5t-14 -34.5t-34.5 -14t-34 14t-14.5 34.5t14.5 34.5z" />
</svg>