<svg viewBox="0 0 1024 1024" xmlns="http://www.w3.org/2000/svg">
  <path transform="scale(1, -1) translate(0, -960)" fill="currentColor" d="M976 42h-870q-17 0 -29.5 12t-12.5 29v786q0 7 -4.5 11.5t-11.5 4.5t-11.5 -4.5t-4.5 -11.5v-786q0 -30 22 -51.5t52 -21.5h870q7 0 11.5 4t4.5 12q0 7 -4.5 11.5t-11.5 4.5zM294 320q45 0 76.5 31.5t31.5 75.5q0 13 -3.5 25t-8.5 23l98 61q14 -18 36 -28t46 -10 q44 0 75.5 31t31.5 76q0 12 -2.5 23.5t-7.5 21.5l119 65q14 -19 36 -30t48 -11q45 0 76.5 31t31.5 76q0 44 -31.5 75.5t-76.5 31.5q-44 0 -75.5 -31.5t-31.5 -75.5q0 -10 2 -19.5t5 -17.5l-122 -67q-14 15 -35 25t-43 10q-45 0 -76.5 -31.5t-31.5 -75.5q0 -11 2.5 -21.5 t5.5 -20.5l-99 -62q-14 14 -33.5 23t-41.5 9q-44 0 -75.5 -31.5t-31.5 -75.5t30.5 -75t74.5 -31zM867 854q31 0 53 -22t22 -53t-22 -53t-53 -22t-53 22t-22 53t22.5 53t52.5 22zM568 678q31 0 53 -22t22 -53t-22 -53t-53 -22t-53 22t-22 53q1 31 23 53t52 22zM294 501 q32 0 54 -22t22 -53q0 -32 -22 -53t-54 -21q-31 0 -53 22t-22 53t22 52.5t53 21.5v0z" />
</svg>