<svg viewBox="0 0 1024 1024" xmlns="http://www.w3.org/2000/svg">
  <path transform="scale(1, -1) translate(0, -960)" fill="currentColor" d="M106 928q-8 0 -12 -4.5t-4 -11.5v-928q0 -7 4 -11.5t12 -4.5q7 0 11.5 4.5t4.5 11.5v928q0 7 -5 11.5t-11 4.5zM285 928q-7 0 -11.5 -4.5t-4.5 -11.5v-658q0 -7 4.5 -11.5t11.5 -4.5t11.5 4.5t4.5 11.5v658q0 7 -5 11.5t-11 4.5zM930 165l-138 137q32 39 44 86.5t2 94.5 v429q0 7 -4 11.5t-12 4.5q-7 0 -11.5 -4.5t-4.5 -11.5v-355q-4 8 -11 15.5t-13 14.5q-25 25 -57 40.5t-66 18.5v266q0 7 -4.5 11.5t-11.5 4.5t-11.5 -4.5t-4.5 -11.5v-264q-38 -1 -75 -16.5t-67 -44.5q-1 -1 -2.5 -2t-2.5 -3v330q0 7 -4.5 11.5t-11.5 4.5t-11.5 -4.5 t-4.5 -11.5v-376q-31 -60 -22.5 -128.5t59.5 -117.5q31 -32 69.5 -46.5t79.5 -14.5q36 0 71.5 13t64.5 38l137 -138q3 -2 6 -3t5 -1q3 0 6 1t6 3q4 5 4 11.5t-4 11.5v0zM507 312q-51 52 -51 126t51 125q27 27 59.5 40t67.5 13q33 0 66.5 -13t59.5 -40q52 -51 52 -125 t-52 -126q-53 -52 -126.5 -52t-126.5 52z" />
</svg>