<svg viewBox="0 0 1024 1024" xmlns="http://www.w3.org/2000/svg">
  <path transform="scale(1, -1) translate(0, -960)" fill="currentColor" d="M976 42h-110v348q0 30 -22 52t-52 22h-96q-30 0 -52 -22t-22 -52v-348h-142v598q0 30 -22 52t-52 22h-96q-30 0 -51.5 -22t-21.5 -52v-598h-131q-17 0 -29.5 12t-12.5 29v787q0 8 -4.5 12t-11.5 4t-11.5 -4t-4.5 -12v-785q0 -30 22 -52t52 -22h870q7 0 11.5 4.5t4.5 11.5 t-4.5 11t-11.5 4v0zM269 42v598q0 17 12.5 29.5t28.5 12.5h96q17 0 29.5 -12.5t12.5 -29.5v-598h-179v0zM654 42v348q0 17 12.5 29.5t29.5 12.5h96q17 0 29.5 -12.5t12.5 -29.5v-348h-180v0z" />
</svg>