<svg viewBox="0 0 256 256" xmlns="http://www.w3.org/2000/svg">
  <path transform="scale(1, -1) translate(0, -256)" fill="currentColor" d="M141 200h-26q-6 0 -10.5 -4.5t-4.5 -10.5v-26q0 -7 4.5 -11t10.5 -4h26q7 0 11 4.5t4 10.5v26q0 6 -4.5 10.5t-10.5 4.5zM142 159q0 -1 -1 -1h-26q-1 0 -1 1v26q0 1 1 1h26q1 0 1 -1v-26zM244 141l-31 72q-1 3 -4 4l-78 33q-2 2 -5 0l-79 -33q-3 -1 -4 -4l-31 -72 q-1 -3 1 -6.5t6 -3.5h16v-119q0 -3 2 -5t5 -2h172q3 0 4.5 2t2.5 5l1 119h16q3 0 5 3.5t1 6.5zM104 19l24 31l24 -31h-48zM137 61l23 29v-58zM128 72l-24 31h49zM96 90l23 -29l-23 -29v58zM214 146q-3 0 -5 -2t-2 -5l-1 -120h-32v79q0 7 -5.5 13t-13.5 6h-54 q-8 0 -13.5 -5.5t-5.5 -13.5v-79h-33v120q0 3 -2 5t-5 2h-13l26 60l73 31l73 -31l26 -60h-13z" />
</svg>