<svg viewBox="0 0 1024 1024" xmlns="http://www.w3.org/2000/svg">
  <path transform="scale(1, -1) translate(0, -960)" fill="currentColor" d="M565 725h-104q-21 0 -34.5 -14t-13.5 -34v-104q0 -21 13.5 -34.5t34.5 -13.5h104q20 0 34 13.5t14 34.5v104q0 19 -14.5 33.5t-33.5 14.5zM581 571q0 -7 -4.5 -11.5t-11.5 -4.5h-104q-7 0 -11.5 4.5t-4.5 11.5v104q0 7 4.5 11.5t11.5 4.5h104q7 0 11.5 -4.5t4.5 -11.5 v-104zM963 496l-123 288q-1 2 -3.5 4.5t-4.5 3.5l-312 134q-2 2 -5.5 2t-7.5 -2l-315 -132q-2 -2 -4.5 -4t-3.5 -4l-123 -290q-1 -4 -1 -8t2 -6q3 -4 6.5 -5.5t6.5 -1.5h77v-491q0 -7 4.5 -11.5t11.5 -4.5h685q6 0 11 4.5t5 11.5l3 491h77q3 0 6.5 2t6.5 5q2 3 3 6.5t-2 7.5 v0zM389 0l123 154l123 -154h-246v0zM533 179l120 149v-1v-1v-296zM512 205l-122 150q3 1 6.5 2t6.5 1h216q4 0 7.5 -1t5.5 -2zM371 326v1v1l120 -149l-120 -149v296v0zM856 507q-6 0 -11 -4.5t-5 -11.5l-3 -491h-152v326q0 27 -19 45.5t-45 18.5h-218q-26 0 -45 -18.5 t-19 -45.5v-326h-155v491q0 7 -4.5 11.5t-11.5 4.5h-69l111 259l304 128l300 -128l111 -259h-69v0z" />
</svg>