<svg viewBox="0 0 256 256" xmlns="http://www.w3.org/2000/svg">
  <path transform="scale(1, -1) translate(0, -256)" fill="currentColor" d="M232 173h-27v14q9 2 14.5 9.5t5.5 17.5t-8 18t-19.5 8t-19.5 -8t-8 -18t6 -17.5t14 -9.5v-14h-125v14q9 2 14.5 9.5t5.5 17.5t-8 18t-19 8t-19 -8t-8 -18t5.5 -17.5t14.5 -9.5v-14h-27q-7 0 -11.5 -5t-4.5 -11v-58q0 -7 4.5 -11.5t11.5 -4.5h20v-56q0 -8 5.5 -13t12.5 -5 h12q8 0 13 5t5 13v56h72v-56q0 -8 5.5 -13t12.5 -5h12q8 0 13 5t5 13v56h20q7 0 11.5 4.5t4.5 11.5v58q0 7 -4.5 11.5t-11.5 4.5zM185 213q0 5 4 9t9.5 4t9.5 -4t4 -9.5t-4.5 -9t-9.5 -3.5t-9 4t-4 9zM45 213q0 5 4 9t9.5 4t9.5 -4t4 -9.5t-4.5 -9t-9.5 -3.5t-9 4t-4 9z M153 97h-45l51 62h46zM22 99v58q0 2 2 2h53l-51 -62h-2q-1 0 -1 1zM44 97l52 62h45l-51 -62h-46zM78 27q0 -4 -4 -4h-12q-4 0 -4 4v56h20v-56zM198 27q0 -4 -4 -4h-12q-4 0 -4 4v56h20v-56zM234 99q0 -2 -2 -2h-60l51 62h9q2 0 2 -2v-58z" />
</svg>