<svg viewBox="0 0 256 256" xmlns="http://www.w3.org/2000/svg">
  <path transform="scale(1, -1) translate(0, -256)" fill="currentColor" d="M232 206h-208q-8 0 -13.5 -6t-5.5 -14v-40q0 -8 5.5 -14t13.5 -6h24v-62h-8q-3 0 -5.5 -2t-2.5 -5t2.5 -5t5.5 -2h31q3 0 5 2t2 5t-2 5t-5 2h-9v20h132v-20h-9q-3 0 -5 -2t-2 -5t2 -5t5 -2h31q3 0 5 2t2 5t-2 5t-5 2h-8v63h24q8 0 13.5 5.5t5.5 13.5v40q0 8 -5.5 14 t-13.5 6zM128 141l14 51h50l-15 -51h-49zM128 192l-15 -51h-49l14 51h50zM19 146v40q0 3 1.5 4.5t3.5 1.5h40l-14 -51h-26q-2 0 -3.5 1.5t-1.5 3.5zM194 98h-132v29h132v-29zM237 146q0 -2 -1.5 -4t-3.5 -2h-40l15 51h25q2 0 3.5 -1.5t1.5 -3.5v-40z" />
</svg>