<svg viewBox="0 0 1024 1024" xmlns="http://www.w3.org/2000/svg">
  <path transform="scale(1, -1) translate(0, -960)" fill="currentColor" d="M928 627h-120v66q34 6 57 32t23 62q0 40 -28 68t-68 28t-68 -28t-28 -68q0 -36 23 -62t57 -32v-66h-528v66q34 6 57 32t23 62q0 40 -28 68t-68 28t-68 -28t-28 -68q0 -36 23 -62t57 -32v-66h-120q-26 0 -45 -18.5t-19 -45.5v-232q0 -26 19 -45t45 -19h104v-224 q0 -20 14 -34t34 -14h48q20 0 34 14t14 34v224h278l2 -1l2 1h56v-224q0 -20 13.5 -34t34.5 -14h48q20 0 34 14t14 34v224h102q26 0 45 19t19 45v232q0 28 -19 46t-45 18v0zM728 787q0 27 19 45.5t45 18.5t45 -18.5t19 -45.5q0 -26 -19 -45t-45 -19t-45 19t-19 45zM168 787 q0 27 19 45.5t45 18.5t45 -18.5t19 -45.5q0 -26 -19 -45t-45 -19t-45 19t-19 45zM854 595l-244 -296h-215l245 296h214zM64 331v232q0 13 9.5 22.5t22.5 9.5h248l-246 -296h-2q-13 0 -22.5 9.5t-9.5 22.5zM312 43q0 -7 -4.5 -11.5t-11.5 -4.5h-48q-7 0 -11.5 4.5t-4.5 11.5 v224h80v-224zM312 299h-173l245 296h214l-244 -296h-42v0zM792 43q0 -7 -4.5 -11.5t-11.5 -4.5h-48q-7 0 -11.5 4.5t-4.5 11.5v224h80v-224zM960 331q0 -13 -9.5 -22.5t-22.5 -9.5h-277l245 296h32q13 0 22.5 -9.5t9.5 -22.5v-232z" />
</svg>