<svg viewBox="0 0 1024 1024" xmlns="http://www.w3.org/2000/svg">
  <path transform="scale(1, -1) translate(0, -960)" fill="currentColor" d="M902 726q-45 64 -108 110.5t-136 69.5q-50 15 -101 20t-104 -1q-63 -9 -118 -30t-103 -55q-49 -36 -88 -81.5t-64 -99.5q-23 -48 -35.5 -98.5t-12.5 -99.5q-1 -79 21.5 -153.5t68.5 -137.5q45 -65 107.5 -111t136.5 -69q36 -10 72.5 -16t73.5 -6q14 0 29 1l30 2 q63 9 118 30t103 55q49 36 88 81.5t64 99.5q23 48 35.5 98.5t12.5 99.5q1 79 -21.5 153t-68.5 138v0zM960 437q0 -21 -3 -42t-7 -43q-75 -7 -145.5 -32t-134.5 -67l-134 189l350 249q38 -56 56.5 -121t17.5 -133zM867 720l-350 -251l-135 189q60 45 107.5 105t78.5 128 q20 -2 39.5 -6.5t38.5 -10.5q66 -20 122.5 -60t98.5 -94zM458 893q12 1 25 2t26 1h12.5t12.5 -2q-28 -62 -72 -115.5t-99 -95.5l-99 139q43 28 91.5 46t102.5 25v0zM238 803l100 -139q-58 -38 -123 -62t-133 -31q4 18 11 37t16 37q23 47 55 86.5t74 71.5v0zM64 461 q0 19 2.5 39t7.5 39q75 7 147 32t136 67l134 -188l-352 -250q-38 58 -57 124t-18 137v0zM158 174l351 252l134 -189q-60 -46 -107 -105t-78 -127q-21 2 -41.5 6.5t-40.5 10.5q-65 20 -120.5 58.5t-97.5 93.5v0zM566 3q-18 -2 -36.5 -2.5t-36.5 -0.5q29 61 72 114t97 94 l96 -134q-42 -28 -90 -46t-102 -25zM786 93l-96 134q56 39 120 61.5t132 29.5q-4 -16 -11 -34t-14 -34q-24 -46 -56.5 -85.5t-74.5 -71.5v0z" />
</svg>