<svg viewBox="0 0 1024 1024" xmlns="http://www.w3.org/2000/svg">
  <path transform="scale(1, -1) translate(0, -960)" fill="currentColor" d="M931 584h-189l-161 162q7 9 10.5 21t3.5 25q0 35 -24.5 59t-58.5 24q-35 0 -59 -24.5t-24 -58.5q0 -13 3.5 -25t10.5 -21l-161 -162h-189q-25 0 -43 -18t-18 -43v-40q0 -25 18 -43t43 -18l102 -390q1 -5 5.5 -8t10.5 -3h602q6 0 10.5 3t5.5 8l104 392q25 0 43 18t18 43 v40q-2 24 -20 41.5t-43 17.5zM512 845q22 0 36.5 -15.5t14.5 -35.5q0 -11 -4 -20.5t-10 -16.5v0v0v0v0q-7 -7 -16.5 -11t-20.5 -4t-20.5 4.5t-16.5 10.5v0v0v0v0q-7 7 -10.5 16.5t-3.5 20.5q0 20 14.5 35.5t36.5 15.5v0zM466 723q9 -7 21 -10.5t25 -3.5t25 3.5t21 10.5 l140 -139h-372l140 139v0zM854 253h-326v169h371l-45 -169v0zM496 422v-169h-326l-45 169h371zM179 221h317v-170h-272zM800 51h-272v170h317zM960 483q0 -12 -8.5 -20.5t-20.5 -8.5h-11v0v0h-816v0v0h-11q-12 0 -20.5 8.5t-8.5 20.5v40q0 12 8.5 20.5t20.5 8.5h838 q12 0 20.5 -8.5t8.5 -20.5v-40v0z" />
</svg>