<svg viewBox="0 0 256 256" xmlns="http://www.w3.org/2000/svg">
  <path transform="scale(1, -1) translate(0, -256)" fill="currentColor" d="M233 165h-46l-38 38q3 5 3 11q0 10 -7 17t-17 7t-17 -7t-7 -17q0 -6 3 -11l-38 -38h-46q-7 0 -12.5 -5t-5.5 -13v-10q0 -7 4.5 -12t11.5 -6l25 -96q1 -2 2.5 -3.5t4.5 -1.5h150q3 0 4.5 1.5t2.5 3.5l25 96q7 1 11.5 6t4.5 12v10q0 7 -5.5 12.5t-12.5 5.5zM128 224 q4 0 7 -3t3 -7t-3 -7t-7 -3t-7 3t-3 7t3 7t7 3zM117 193q5 -3 11 -3t11 3l28 -28h-78zM211 82h-76v37h86zM121 119v-37h-76l-9 37h85zM48 68h73v-36h-63zM198 32h-63v36h73zM237 137q0 -2 -1 -3t-3 -1h-210q-2 0 -3 1t-1 3v10q0 2 1.5 3t2.5 1h210q2 0 3 -1.5t1 -2.5v-10z " />
</svg>