<svg viewBox="0 0 256 256" xmlns="http://www.w3.org/2000/svg">
  <path transform="scale(1, -1) translate(0, -256)" fill="currentColor" d="M232 179h-46l-37 37q3 6 3 11q0 10 -7 17t-17 7t-17 -7t-7 -17q0 -5 3 -11l-37 -37h-46q-8 0 -13 -5.5t-5 -12.5v-10q0 -7 4.5 -12t11.5 -6l25 -95q0 -3 2 -4.5t5 -1.5h26q3 0 5.5 2.5t2.5 5.5t-2.5 5t-5.5 2h-21l-23 85h184l-23 -86h-12q-3 0 -5 -2t-2 -5t2 -5t5 -2h18 q2 0 4 1.5t3 3.5l25 95q6 1 10.5 6.5t4.5 11.5v10q0 8 -5.5 13.5t-12.5 5.5zM128 237q4 0 7 -3t3 -7t-3 -6.5t-7 -2.5t-6.5 2.5t-3 6.5t2.5 7t7 3zM117 206q5 -3 11 -3t11 3l28 -28h-78zM20 160q0 2 1 3t3 1h208q2 0 3 -1t1 -3v-10q0 -1 -1 -2.5t-3 -1.5h-208q-2 0 -3 1.5 t-1 2.5v10zM122 79h28q3 0 5 2t2 5t-2 5t-5 2h-10v6q0 3 -2.5 5t-5.5 2t-5 -2t-2 -5v-6h-4q-9 0 -15.5 -6.5t-6.5 -16t6.5 -16t15.5 -6.5h13q4 0 6.5 -2t2.5 -6t-2.5 -6t-6.5 -2h-28q-3 0 -5 -2t-2 -5t2 -5t5 -2h19v-6q0 -3 2 -5t5 -2t5.5 2t2.5 5v6q7 2 12 8t5 14.5 t-6.5 15t-15.5 6.5h-13q-4 0 -6.5 2.5t-2.5 6t2.5 6t6.5 2.5z" />
</svg>