<svg viewBox="0 0 1024 1024" xmlns="http://www.w3.org/2000/svg">
  <path transform="scale(1, -1) translate(0, -960)" fill="currentColor" d="M928 638h-187l-160 160q7 10 10.5 22t3.5 25q0 35 -24 59t-59 24t-59 -24t-24 -59q0 -13 3.5 -25t10.5 -22l-160 -160h-187q-25 0 -43 -17.5t-18 -42.5v-40q0 -26 17.5 -43.5t41.5 -17.5l103 -389q1 -5 5.5 -8t10.5 -3h107q7 0 11.5 4.5t4.5 11.5t-4.5 11.5t-11.5 4.5 h-94l-98 368h768l-98 -368h-57q-7 0 -11.5 -4.5t-4.5 -11.5t4.5 -11.5t11.5 -4.5h70q6 0 10.5 3t5.5 8l101 390q25 0 42 18t17 43v40q1 24 -16.5 41.5t-42.5 17.5v0zM512 896q22 0 36.5 -15t14.5 -36q0 -11 -4 -20t-10 -15v0v0v0v0q-7 -8 -16.5 -11.5t-18.5 -3.5 q-11 0 -20.5 4.5t-15.5 10.5v0v0v0v0q-7 7 -10.5 16t-3.5 19q-2 21 12 36t36 15zM466 776q9 -7 21 -10.5t25 -3.5t25 3.5t21 10.5l138 -138h-368zM957 539q0 -12 -8.5 -20.5t-20.5 -8.5h-11v0v0h-808v0v0h-13q-12 0 -20.5 8.5t-8.5 20.5v40q0 12 8.5 20.5t20.5 8.5h832 q12 0 20.5 -8.5t8.5 -20.5v-40zM486 264h114q7 0 11.5 4.5t4.5 11.5t-4.5 11.5t-11.5 4.5h-54v37q0 7 -4.5 11.5t-11.5 4.5q-8 0 -12 -4.5t-4 -11.5v-37h-28q-32 0 -54 -23t-22 -54t22.5 -54t53.5 -23h53q19 0 32 -13t13 -31t-13.5 -31.5t-31.5 -13.5h-113q-8 0 -12 -4.5 t-4 -11.5t4 -11.5t12 -4.5h89v-37q0 -7 4.5 -11.5t11.5 -4.5t11.5 4.5t4.5 11.5v37q30 2 50.5 24.5t20.5 52.5q0 32 -23 54t-54 22h-53q-19 0 -32 13.5t-13 31.5t12 31.5t31 13.5v0z" />
</svg>