<svg viewBox="0 0 1024 1024" xmlns="http://www.w3.org/2000/svg">
  <path transform="scale(1, -1) translate(0, -960)" fill="currentColor" d="M939 656q-1 4 -4 6.5t-8 3.5q-4 1 -8 -1t-6 -5q-10 -14 -21 -27.5t-25 -23.5q-10 -8 -26 -10t-28 6q-3 2 -6.5 4t-6.5 6q-9 7 -20 14.5t-25 4.5q-10 -1 -17 -6.5t-12 -11.5l-2 -1q-9 -8 -16 -12.5t-13 -5.5q-8 -1 -14.5 1t-10.5 7t-5 12.5t-1 16.5v171q0 4 -2 8t-7 5 q-4 2 -8 1t-8 -4l-64 -64q-28 20 -63 20t-63 -20l-64 64q-4 3 -8 4t-8 -1q-5 -2 -7 -5.5t-2 -7.5l1 -154q0 -10 -0.5 -19.5t-3.5 -16.5v0v0l-2 -4l-2 -4q-4 -4 -9 -6t-10 -2q-11 -1 -23.5 3.5t-22.5 13.5l-1 2q-5 3 -9.5 7t-11.5 6q-16 5 -29.5 -2.5t-24.5 -16.5 q-4 -5 -9.5 -8t-9.5 -5q-12 -6 -25 0t-22 16q-10 12 -15 28l-10 32q-1 4 -4.5 7t-8.5 3q-4 0 -8 -2t-6 -7q-1 -3 -2.5 -5.5t-2.5 -5.5q-18 -53 -16 -108q3 -55 24 -105.5t59 -92.5q37 -41 88 -66q22 -11 45 -18.5t46 -13.5q15 -5 31.5 -10t31.5 -11q22 -9 37.5 -18t25.5 -21 q20 -23 26.5 -55t11.5 -59q1 -6 5 -9.5t9 -3.5v0v0q6 0 10 3.5t5 9.5q4 36 12.5 68t30.5 53q13 12 30.5 20t34.5 14q9 3 18 5.5t17 5.5q40 14 79.5 29t74.5 39q38 28 66 66q28 39 43 83.5t17 92.5q2 47 -12 93v0zM807 347q-31 -22 -69 -36.5t-75 -26.5q-9 -3 -18 -5.5 t-19 -6.5q-20 -6 -40 -15.5t-36 -25.5q-14 -13 -22.5 -29t-14.5 -33q-4 14 -11.5 28t-17.5 26q-16 18 -37 29.5t-37 18.5q-17 7 -33 11.5t-32 8.5q-23 7 -44 14t-42 17q-43 20 -75 54q-33 33 -52.5 73.5t-26.5 85.5q-6 45 3 89q4 -7 7.5 -13.5t8.5 -13.5q14 -16 36.5 -24.5 t44.5 1.5q7 3 13 8t12 9q8 8 14 11.5t11 2.5l4 -4t6 -4l3 -1q14 -13 31.5 -20t35.5 -7q12 2 22 6.5t17 12.5q4 4 6 7.5t3 7.5q6 11 7 23.5t1 24.5v119l48 -48q4 -5 10 -5t10 5q21 19 54 19t55 -19q4 -5 10 -5t10 5l47 48v-135q0 -10 1.5 -23t10.5 -25q8 -11 22.5 -16 t29.5 -2q11 3 21.5 8.5t22.5 16.5l2 2q4 3 7.5 6t6.5 4q5 1 9.5 -3t12.5 -10q3 -3 7.5 -6.5t8.5 -6.5q18 -11 41.5 -10t45.5 16q9 6 18 14.5t17 17.5q6 -38 1 -77t-19.5 -74.5t-38.5 -66.5q-23 -31 -55 -53v0zM468 656q-12 0 -20 -8.5t-8 -19.5t8.5 -19.5t19.5 -8.5 t19.5 8.5t8.5 19.5t-8 19.5t-20 8.5zM556 656q-12 0 -20 -8.5t-8 -19.5t8.5 -19.5t19.5 -8.5t19.5 8.5t8.5 19.5t-8 19.5t-20 8.5z" />
</svg>