<svg viewBox="0 0 256 256" xmlns="http://www.w3.org/2000/svg">
  <path transform="scale(1, -1) translate(0, -256)" fill="currentColor" d="M277 189q-2 5 -6 5.5t-7 -2.5l-2 -2q-7 -9 -10.5 -11.5t-7 -3t-5.5 0.5l-4 3q-4 3 -7.5 5t-7.5 1.5t-9 -4.5l-2 -2q-4 -3 -7.5 -4t-4 0.5t-0.5 7.5v50q0 5 -4.5 6.5t-8.5 -1.5l-17 -17q-8 5 -18 5t-18 -5l-17 17q-1 1 -3.5 1.5t-4.5 -0.5q-4 -2 -4 -6v-46v-9l-1 -1 q-2 -2 -4 -2q-5 0 -11 5h-1q-3 3 -7.5 5t-9.5 -1q-3 -1 -7 -5l-6 -4q-2 -1 -5 0.5t-5.5 4.5t-6.5 15q-1 5 -6.5 5.5t-7.5 -4.5l-1 -3q-7 -21 -3.5 -43t17 -40.5t33.5 -28.5q9 -5 26 -10q12 -3 18 -6q12 -4 17 -10t7 -14q2 -6 4 -18q0 -3 2 -4.5t5 -1.5t5 1.5t2 4.5 q2 12 4 19q2 9 7 13.5t17 9.5l14 5q15 5 22 8q12 5 21 11q24 16 34 44.5t2 55.5zM233 101q-8 -5 -19 -10q-6 -3 -21 -8l-12 -4q-16 -5 -23 -12q-5 -4 -9 -12q-2 5 -6 9q-7 9 -23 15l-19 7q-17 5 -25 8q-21 10 -33 31.5t-10 44.5h1q5 -7 12.5 -9t14.5 1q3 1 7 5l5 4q1 0 2 -2 h1q4 -4 10 -6.5t12 -2.5q8 1 13 7l4 5q3 7 2 15l-1 27l9 -8q2 -3 5 -3t5 3q6 5 14 5t13 -5q2 -3 5 -2.5t5 2.5l9 8v-31q0 -11 3.5 -15.5t9 -6.5t11.5 -0.5t13 7.5l3 3l3 -3l6 -5q6 -3 13.5 -3t14.5 5q4 2 6 5q3 -20 -5.5 -39t-25.5 -30zM137 189q-4 0 -6.5 -2.5t-2.5 -6 t2.5 -6t6 -2.5t6 2.5t2.5 6t-2.5 6t-5.5 2.5zM162 189q-3 0 -5.5 -2.5t-2.5 -6t2.5 -6t5.5 -2.5t5.5 2.5t2.5 6t-2 6t-6 2.5z" />
</svg>