<svg viewBox="0 0 256 256" xmlns="http://www.w3.org/2000/svg">
  <path transform="scale(1, -1) translate(0, -256)" fill="currentColor" d="M242 130h-204v91l34 4v-2q0 -6 4.5 -10.5t11.5 -4.5h13q6 0 10.5 4.5t4.5 10.5v13q0 6 -4.5 10.5t-10.5 4.5h-13q-6 0 -10 -3t-5 -8l-43 -6q-2 0 -4 -2.5t-2 -4.5v-97h-10q-3 0 -5 -2t-2 -5v-65q0 -10 7 -17t16 -7h19l-9 -20q-1 -2 0 -5t3.5 -4t3.5 -1q4 0 6 4l12 26h139 l12 -26q1 -4 6 -4q2 0 4 1t3 4t-1 5l-8 20h7q9 0 16 7t7 17v66q-1 2 -3.5 4t-4.5 2zM86 236q0 1 2 1h13q1 0 1 -1v-13q0 -1 -1 -1h-13q-2 0 -2 1v13zM235 58q0 -4 -3 -6.5t-6 -2.5h-196q-3 0 -6 2.5t-3 6.5v58h214v-58z" />
</svg>