<svg viewBox="0 0 1024 1024" xmlns="http://www.w3.org/2000/svg">
  <path transform="scale(1, -1) translate(0, -960)" fill="currentColor" d="M966 446h-827q1 2 1.5 4t0.5 3v377l161 21v-22q0 -21 14 -34.5t34 -13.5h53q21 0 34.5 13.5t13.5 34.5v51q0 20 -13.5 34t-34.5 14h-53q-19 0 -32.5 -13.5t-15.5 -32.5h-0.5h-0.5l-179 -23q-6 -1 -10.5 -5.5t-4.5 -10.5v-392q0 -1 0.5 -3t1.5 -3h-51q-8 0 -12 -4.5 t-4 -11.5v-263q0 -33 23 -56.5t57 -23.5h94l-43 -97q-3 -6 -0.5 -12.5t8.5 -8.5q1 -1 3 -1.5t3 -0.5q5 0 8.5 2.5t6.5 7.5l49 110h571l50 -110q2 -5 6 -7.5t8 -2.5q2 0 4 0.5t3 1.5q6 2 8 8.5t0 12.5l-43 97h46q34 0 57 23.5t23 56.5v264q-1 6 -5.5 11t-12.5 5v0zM334 880 q0 7 4.5 11.5t11.5 4.5h53q7 0 11.5 -4.5t4.5 -11.5v-53q0 -7 -4.5 -11.5t-11.5 -4.5h-53q-7 0 -11.5 4.5t-4.5 11.5v53zM950 168q0 -20 -13.5 -34t-34.5 -14h-780q-21 0 -34.5 14t-13.5 34v246h878v-246h-2z" />
</svg>