<svg viewBox="0 0 1024 1024" xmlns="http://www.w3.org/2000/svg">
  <path transform="scale(1, -1) translate(0, -960)" fill="currentColor" d="M976 480h-781q0 1 1 2.5t1 3.5v312q0 21 14.5 35.5t34.5 14.5h136v-66q0 -1 0.5 -2t1.5 -2h-3q-24 0 -41 -17t-17 -41v-70q0 -8 4.5 -12t11.5 -4h114q7 0 11.5 4t4.5 12v70q0 23 -15.5 39t-37.5 19q0 1 1 2t1 2v82q0 7 -4.5 11.5t-11.5 4.5h-152q-34 0 -58 -24t-24 -58 v-313v-2.5t2 -4.5h-122q-7 0 -11.5 -4t-4.5 -12q0 -7 4.5 -11.5t11.5 -4.5h51v-139q0 -71 49.5 -121.5t118.5 -54.5l-41 -93q-3 -6 -0.5 -12t8.5 -8q1 -2 3 -2h3q5 0 8.5 2.5t5.5 7.5l48 105h448q5 0 9.5 0.5t8.5 1.5l48 -107q2 -5 6 -7.5t8 -2.5h4t3 2q6 2 8 8t0 12 l-45 101q54 17 90 63t36 105v141h50q7 0 11.5 4.5t4.5 11.5t-4.5 11.5t-11.5 4.5v0zM434 720v-54h-82v54q0 11 7.5 18.5t18.5 7.5h28q11 0 19.5 -7.5t8.5 -18.5zM893 307q0 -60 -42 -102t-102 -42h-474q-60 0 -102 42t-42 102v141h763v-141h-1z" />
</svg>