<svg viewBox="0 0 256 256" xmlns="http://www.w3.org/2000/svg">
  <path transform="scale(1, -1) translate(0, -256)" fill="currentColor" d="M244 139h-192v77q0 4 2.5 6.5t6.5 2.5h31v-12q-6 -1 -10.5 -5.5t-4.5 -11.5v-18q0 -3 2 -5t5 -2h28q3 0 5.5 2t2.5 5v18q0 6 -4 10.5t-10 6.5v19q0 3 -2 5t-5 2h-38q-9 0 -16 -6.5t-7 -16.5v-77h-26q-3 0 -5 -2t-2 -5t2 -5t5 -2h10v-32q0 -18 11.5 -31t28.5 -16l-9 -19 q-1 -3 0 -5.5t3 -3.5t4 -1q4 0 6 4l11 25h113l11 -25q2 -4 7 -4q2 0 3.5 1t2.5 3.5t0 5.5l-10 22q13 5 21.5 17t8.5 27v32h10q3 0 5 2t2 5t-2 5t-5 2zM105 185h-14v11q0 2 1 3t2 1h8q1 0 2 -1t1 -3v-11zM220 93q0 -14 -9.5 -23.5t-23.5 -9.5h-118q-14 0 -23.5 9.5t-9.5 23.5 v32h184v-32z" />
</svg>