<svg viewBox="0 0 256 256" xmlns="http://www.w3.org/2000/svg">
  <path transform="scale(1, -1) translate(0, -256)" fill="currentColor" d="M232 198h-12v17q0 7 -4 11t-11 4h-37q-6 0 -10.5 -4.5t-4.5 -10.5v-17h-51v17q0 7 -4.5 11t-10.5 4h-37q-6 0 -10.5 -4.5t-4.5 -10.5v-17h-11q-8 0 -13.5 -5.5t-5.5 -13.5v-134q0 -8 5.5 -13.5t13.5 -5.5h208q8 0 13.5 5.5t5.5 13.5v134q0 8 -5.5 13.5t-13.5 5.5z M168 215q0 1 1 1h37q1 0 1 -1v-17h-39v17zM50 215q0 1 1 1h37q1 0 1 -1v-17h-39v17zM237 45q0 -2 -1.5 -3.5t-3.5 -1.5h-208q-2 0 -3.5 1.5t-1.5 3.5v134q0 2 1.5 3.5t3.5 1.5h208q2 0 3.5 -1.5t1.5 -3.5v-134zM150 104l-28 22l28 21q2 2 2.5 4.5t-1 5t-4.5 3t-5 -1.5 l-36 -27q-3 -2 -3 -5.5t3 -5.5l28 -21l-28 -21q-2 -2 -2.5 -5t1 -5.5t4.5 -2.5t5 1l36 27q2 2 2 6t-2 5z" />
</svg>