<svg viewBox="0 0 1024 1024" xmlns="http://www.w3.org/2000/svg">
  <path transform="scale(1, -1) translate(0, -960)" fill="currentColor" d="M928 717h-59v78q0 21 -14 34.5t-34 13.5h-147q-21 0 -34.5 -13.5t-13.5 -34.5v-78h-228v78q0 21 -13.5 34.5t-34.5 13.5h-147q-20 0 -34 -13.5t-14 -34.5v-78h-59q-26 0 -45 -19t-19 -45v-536q0 -27 19 -45.5t45 -18.5h832q26 0 45 18.5t19 45.5v536q0 26 -19 45t-45 19 v0zM658 795q0 7 4 11.5t12 4.5h147q7 0 11.5 -4.5t4.5 -11.5v-78h-179v78v0zM187 795q0 7 4.5 11.5t11.5 4.5h147q8 0 12 -4.5t4 -11.5v-78h-179v78zM960 117q0 -13 -9.5 -22.5t-22.5 -9.5h-832q-13 0 -22.5 9.5t-9.5 22.5v536q0 13 9.5 22.5t22.5 9.5h832q13 0 22.5 -9.5 t9.5 -22.5v-536zM467 438l127 95q4 3 5 10t-2 12q-4 5 -11 6t-12 -3l-142 -107q-4 -2 -5 -5.5t-1 -7.5q0 -3 1 -6.5t5 -5.5l126 -95l-126 -94q-5 -4 -6 -11t3 -12q2 -3 5.5 -4.5t7.5 -1.5q2 0 4.5 1t4.5 2l143 107q3 3 4.5 6.5t1.5 6.5q0 4 -1.5 7.5t-4.5 5.5l-127 94v0z " />
</svg>