<svg viewBox="0 0 256 256" xmlns="http://www.w3.org/2000/svg">
  <path transform="scale(1, -1) translate(0, -256)" fill="currentColor" d="M247 18q-78 42 -144 38l-11 80v0q9 -6 18.5 -5t16.5 9q3 4 7 4.5t8 -2.5l13 -11q4 -3 7 -1.5t4 3.5t0 4q-1 16 -9 30t-21 24q-23 18 -52 18l-2 10q0 3 -2 4.5t-5 1.5t-5 -2.5t-1 -5.5l1 -10q-20 -4 -35 -17t-23 -31.5t-6 -38.5q0 -4 2 -6l2 -2h4q4 1 5 4l11 12q3 4 7 4.5 t7 -2.5q9 -6 18.5 -5t16.5 9v0l11 -79q-24 -3 -45 -13q-16 -6 -28 -16q-7 -6 -9.5 -8.5t-2.5 -5.5t2.5 -5t5.5 -2t5 3q8 9 25 18q32 18 74 17q57 -1 124 -37l3 -1q5 0 6.5 3t0.5 6t-4 4zM67 143q-3 -3 -7 -3.5t-8 2.5q-7 5 -16 5t-16 -7q4 22 20 37t38 18q14 1 26.5 -2.5 t23.5 -11.5q13 -11 19 -26q-8 5 -16.5 3.5t-14.5 -9.5q-3 -3 -7.5 -3.5t-7.5 2.5q-8 6 -18 4.5t-16 -9.5zM212 174q16 0 27.5 11t11.5 27.5t-11 27.5t-27.5 11t-27.5 -11t-11 -27.5t11 -27.5t27 -11zM212 237q11 0 18 -7.5t7 -17.5t-7 -17.5t-17.5 -7.5t-17.5 7.5t-7 17.5 t7 17.5t17 7.5z" />
</svg>