<svg viewBox="0 0 256 256" xmlns="http://www.w3.org/2000/svg">
  <path transform="scale(1, -1) translate(0, -256)" fill="currentColor" d="M244 67h-130v67q0 3 -2 5t-5 2t-5 -2.5t-2 -4.5v-67h-20l-52 61q-2 2 -5 2t-5 -1.5t-2.5 -4.5t1.5 -6l44 -51h-22q-10 0 -15 -8l-18 -27q-2 -2 -1 -5t3 -4.5t4.5 -1.5t5.5 3l18 27q1 1 3 1h61v-24q0 -3 2 -5t5 -2t5 2t2 5v25h82l22 -29q2 -3 5 -3t5 1.5t2.5 4.5t-1.5 5 l-15 21h30q3 0 5 2t2 5t-2 5t-5 2zM30 148h4.5t4.5 2l11 12q4 3 8 3t7 -3q8 -8 17.5 -8t17.5 8q3 3 7 3t7 -3q8 -8 17.5 -8t17.5 8q3 3 7 3t8 -3l12 -12q3 -3 7.5 -1.5t4.5 5.5q0 22 -11 40.5t-29.5 29.5t-40 11t-40 -11t-29.5 -29t-12 -40q0 -3 2 -6zM107 221 q22 0 39.5 -13t24.5 -34q-7 6 -16 5.5t-16 -7.5q-3 -3 -7.5 -3t-7.5 3q-8 7 -17.5 7t-16.5 -7q-4 -3 -8 -3t-7 3q-7 7 -16.5 7t-15.5 -5q7 21 24.5 34t39.5 13z" />
</svg>