<svg viewBox="0 0 1024 1024" xmlns="http://www.w3.org/2000/svg">
  <path transform="scale(1, -1) translate(0, -960)" fill="currentColor" d="M512 928q-99 0 -186 -38q-88 -38 -153 -103t-103 -153q-38 -87 -38 -186t38 -186q38 -88 103 -153t153 -103q87 -38 186 -38t186 38q88 38 153 103t103 153q38 87 38 186t-38 186q-38 88 -103 153t-153 103q-87 38 -186 38zM64 448q0 86 30 162q31 77 84 136t125 98 t155 49q-32 -45 -57 -97q-24 -51 -40.5 -107.5t-25.5 -116.5q-9 -61 -9 -124t9 -123q9 -61 25.5 -117.5t40.5 -107.5q25 -52 57 -97q-83 10 -155 49t-125 98t-84 136q-30 76 -30 162v0zM499 0q-33 44 -60 95q-26 52 -44 109t-27 119q-10 61 -10 125t10 125q9 62 27 119 t44 109q27 51 60 95h6.5h6.5h6.5h6.5q33 -44 60 -95q26 -52 44 -109t27 -119q10 -61 10 -125t-10 -125q-9 -62 -27 -119t-44 -109q-27 -51 -60 -95h-6.5h-6.5h-6.5h-6.5v0zM566 3q32 45 57 97q24 51 40.5 107.5t25.5 116.5q9 61 9 124t-9 124q-9 60 -25.5 116.5t-40.5 107.5 q-25 52 -57 97q83 -10 155 -49t125 -98t84 -136q30 -76 30 -162t-30 -162q-31 -77 -84 -136t-125 -98t-155 -49v0z" />
</svg>