<svg viewBox="0 0 1024 1024" xmlns="http://www.w3.org/2000/svg">
  <path transform="scale(1, -1) translate(0, -960)" fill="currentColor" d="M976 190h-533v280q0 8 -4.5 12t-11.5 4t-11.5 -4t-4.5 -12v-280h-99l-210 248q-4 5 -10.5 6t-11.5 -4t-5.5 -11.5t3.5 -10.5l192 -228h-115q-15 0 -28 -7t-21 -20l-72 -107q-4 -6 -3 -12.5t7 -9.5q3 0 5.5 -1t4.5 -1q4 0 7 2l6 4l72 108q3 6 10 9t14 3h257v-110 q0 -7 4.5 -11.5t11.5 -4.5q8 0 12 4.5t4 11.5v110h348v-5t3 -6l85 -110q2 -4 5.5 -5.5t6.5 -1.5t5.5 1t4.5 3q5 3 6 10t-3 12l-78 102h147q7 0 11.5 4.5t4.5 11.5q0 8 -4.5 12t-11.5 4v0zM125 541q1 -1 3 -1.5t5 -0.5t7 2t6 5l46 46q17 17 38.5 17t38.5 -17q26 -25 60.5 -25 t60.5 25q17 17 38.5 17t37.5 -17q26 -25 60 -25t60 25v0v0q16 16 37.5 16t37.5 -16l49 -48q4 -4 8.5 -5t9.5 2q5 2 7.5 5.5t2.5 8.5q0 64 -25 121q-24 56 -66.5 98.5t-98.5 66.5q-57 25 -121 25q-63 0 -120 -25q-56 -24 -98 -65.5t-67 -97.5t-25 -120q-1 -3 0 -7.5t5 -6.5 q0 -1 1 -2t2 -1v0zM427 834q52 0 99 -18q47 -19 84 -50.5t62 -74.5q24 -44 32 -94l-19 19q-13 12 -28.5 18t-32.5 6q-16 0 -32 -6t-29 -20v0v0q-17 -15 -38 -15t-37 15q-26 26 -60.5 26t-61.5 -26q-16 -16 -38 -16t-38 16q-26 26 -60.5 26t-59.5 -26l-20 -19q9 51 34 94 q24 44 61 76t83 50q47 19 99 19v0z" />
</svg>