<svg viewBox="0 0 256 256" xmlns="http://www.w3.org/2000/svg">
  <path transform="scale(1, -1) translate(0, -256)" fill="currentColor" d="M128 251q-33 0 -61.5 -16.5t-45 -45t-16.5 -61.5t16.5 -61.5t45 -45t61.5 -16.5t61.5 16.5t45 45t16.5 61.5t-16.5 61.5t-45 45t-61.5 16.5zM128 19h-2q-16 21 -24.5 49.5t-8.5 59t8.5 59t24.5 49.5h4q16 -21 24.5 -49.5t8.5 -59t-8.5 -59t-24.5 -49.5h-2zM19 128 q0 26 11.5 49t32 38t45.5 20q-14 -22 -21.5 -49.5t-7.5 -57.5t7.5 -57.5t21.5 -49.5q-25 5 -45.5 20t-32 38t-11.5 49zM148 21q14 22 21.5 49.5t7.5 57.5t-7.5 57.5t-21.5 49.5q25 -5 45.5 -20t32 -38t11.5 -49t-11.5 -49t-32 -38t-45.5 -20z" />
</svg>