<svg viewBox="0 0 256 256" xmlns="http://www.w3.org/2000/svg">
  <path transform="scale(1, -1) translate(0, -256)" fill="currentColor" d="M244 174q-3 0 -5 -2t-2 -5v-73h-24v42q0 3 -2 5.5t-5 2.5h-108l4 8q4 8 0.5 17.5t-12.5 13.5l-45 22q-9 4 -19 1q-4 -2 -7 -5v17q0 3 -2 5.5t-5 2.5t-5 -2.5t-2 -5.5v-180q0 -3 2 -5.5t5 -2.5t5.5 2.5t2.5 5.5v42h41v-27q0 -3 2 -5t5 -2h139q3 0 5 2t2 5v27h24v-42 q0 -3 2 -5.5t5 -2.5t5 2.5t2 5.5v129q-1 3 -3 5t-5 2zM20 177l6 11q1 3 5 4.5t8 -0.5l45 -22q4 -1 5 -5t-1 -8l-5 -10q-1 -2 -3 -4h-12l-43 21q-3 2 -4.5 6t-0.5 7zM19 94v58l41 -20v-38h-41zM200 60h-126v70h125v-70h1z" />
</svg>