<svg viewBox="0 0 1024 1024" xmlns="http://www.w3.org/2000/svg">
  <path transform="scale(1, -1) translate(0, -960)" fill="currentColor" d="M890 600h-756q-42 0 -72 -30t-30 -72v-56q0 -8 4.5 -12t11.5 -4h128v-245q-26 -6 -44 -28t-18 -51q0 -33 23.5 -56.5t56.5 -23.5q32 0 56 24t24 56q0 30 -19.5 52t-48.5 27v91h644v-90q-28 -6 -46 -27.5t-18 -50.5q0 -34 23.5 -57t56.5 -23q32 0 56 24t24 56 q0 29 -18.5 51.5t-45.5 26.5v244h94q7 0 11.5 4t4.5 12v56q0 42 -30 72t-72 30v0zM242 102q0 -20 -14.5 -34t-33.5 -14q-21 0 -34.5 14.5t-13.5 33.5q0 20 13.5 33.5t32.5 14.5v0v0v0v0h1.5h1.5q19 2 33 -12.5t14 -35.5zM915 102q0 -20 -14.5 -34t-33.5 -14t-33.5 14.5 t-14.5 33.5q0 21 14.5 34.5t33.5 13.5v0v0v0v0q21 0 34.5 -13.5t13.5 -34.5zM851 304h-643v122h643v-122zM960 458h-896v40q0 28 21 49t49 21h754q29 0 49.5 -21t20.5 -49v-40h2zM381 686h502q16 0 27.5 11.5t11.5 27.5v37q0 45 -32.5 77.5t-78.5 32.5h-430q-15 0 -25 -10.5 t-10 -24.5v-117q0 -13 10 -23.5t25 -10.5v0zM378 837q0 1 1 2t2 1h430q33 0 56 -23t23 -55v-37q0 -3 -2 -5t-5 -2h-502q-1 0 -2 1t-1 3v115v0zM190 691q36 0 62 26t26 62t-26 62t-62 26t-62 -26t-26 -62t26 -62t62 -26v0zM190 835q23 0 39.5 -16.5t16.5 -39.5t-16.5 -39.5 t-39.5 -16.5q-22 0 -39 16.5t-17 39.5t17 39.5t39 16.5z" />
</svg>