<svg viewBox="0 0 256 256" xmlns="http://www.w3.org/2000/svg">
  <path transform="scale(1, -1) translate(0, -256)" fill="currentColor" d="M237 88v0v0l-34 74v14q0 21 -10.5 38t-27.5 27t-37 10t-37 -10t-27 -27t-10 -38v-14l-35 -74q-1 -2 -1 -3v-73q0 -3 2.5 -5t5.5 -2t5 2t2 5v21h191v-21q0 -3 2 -5t5 -2t5 2t2 5v73zM65 154h125l29 -62h-182zM104 172v12q0 2 1.5 3.5t3.5 1.5h38q2 0 3.5 -1.5t1.5 -3.5 v-12q0 -2 -1.5 -3.5t-3.5 -1.5h-38q-2 0 -3.5 1.5t-1.5 3.5zM68 176q0 17 8 30.5t22 22t30 8.5t30 -8.5t22 -22t8 -30.5v-9h-23l1 5v12q0 8 -5.5 13.5t-13.5 5.5h-38q-8 0 -13.5 -5.5t-5.5 -13.5v-12l1 -5h-23v9zM33 47v31h191v-31h-191z" />
</svg>