<svg viewBox="0 0 256 256" xmlns="http://www.w3.org/2000/svg">
  <path transform="scale(1, -1) translate(0, -256)" fill="currentColor" d="M244 106l-14 13v49q0 9 -6.5 15.5t-15.5 6.5h-164q-9 0 -15 -6.5t-6 -15.5v-50l-13 -13q-5 -6 -5 -15v-62q0 -9 6 -15t15 -6h17q8 0 14 5t7 13q1 3 3 5t5 2h118q3 0 5 -2t3 -5q1 -8 7 -13t14 -5h11q9 0 15 6.5t6 15.5v61q0 9 -7 16zM44 176h164q3 0 5.5 -2.5t2.5 -5.5 v-46h-8v14q0 9 -6.5 15.5t-15.5 6.5h-28q-9 0 -15 -6.5t-6 -15.5v-14h-19v14q0 9 -6.5 15.5t-15.5 6.5h-28q-9 0 -15.5 -6.5t-6.5 -15.5v-14h-9v46q0 3 2 5.5t5 2.5zM151 122v14q0 3 2.5 5.5t5.5 2.5h28q3 0 5 -2t2 -6v-14h-43zM61 122v14q0 3 2.5 5.5t5.5 2.5h28q3 0 5 -2 t2 -6v-14h-43zM21 96l12 13h187l14 -13q3 -3 3 -6v-15h-218v15q0 4 2 6zM230 21h-11q-2 0 -4.5 1.5t-2.5 4.5q-2 8 -8 13t-14 5h-118q-8 0 -14 -5t-8 -13q0 -3 -2 -5t-5 -2h-17q-3 0 -5 2.5t-2 5.5v32h218v-32q0 -3 -2 -5t-5 -2zM120 194q3 -4 7.5 -4t8.5 4l17 16 q7 7 6.5 16t-6.5 16q-5 5 -12 6.5t-13 -1.5q-4 2 -9 2q-9 0 -15.5 -6t-6.5 -16.5t7 -16.5zM113 233q3 2 5.5 2t6 -2t6.5 0t6 2t5.5 -2.5t2.5 -6t-3 -5.5l-14 -15l-14 14q-3 3 -3 7t2 6z" />
</svg>