<svg viewBox="0 0 1024 1024" xmlns="http://www.w3.org/2000/svg">
  <path transform="scale(1, -1) translate(0, -960)" fill="currentColor" d="M936 282v0.5v0.5v0v0l-138 298v262q0 35 -25 60t-59 25h-404q-34 0 -59 -25t-25 -60v-262l-138 -298v0v0q-1 -1 -1.5 -3t-0.5 -3v0v0v-293q0 -7 4.5 -11.5t11.5 -4.5q8 0 12 4.5t4 11.5v98h788v-98q0 -7 4 -11.5t12 -4.5q7 0 11.5 4.5t4.5 11.5v293q0 1 -1 2t-1 3v0z M253 562h520l123 -269h-768l125 269v0zM258 843q0 22 15.5 37.5t36.5 15.5h402q22 0 37.5 -15.5t15.5 -37.5v-249h-507v249v0zM118 114v147h788v-147h-788v0z" />
</svg>