<svg viewBox="0 0 1024 1024" xmlns="http://www.w3.org/2000/svg">
  <path transform="scale(1, -1) translate(0, -960)" fill="currentColor" d="M968 349l-61 56v203q0 31 -21.5 52.5t-51.5 21.5h-656q-32 0 -53 -22t-21 -52v-203l-53 -56q-9 -11 -14 -24t-5 -26v-248q0 -31 22 -52t52 -21h65q28 0 48.5 17t25.5 45q2 16 14 25.5t27 9.5h476q15 0 27 -10t14 -27q5 -26 25.5 -44t48.5 -18h41q32 0 53 22t21 52v244 q0 16 -6 30t-18 25v0zM178 650h654q18 0 30 -12.5t12 -29.5v-194h-55v68q0 31 -21.5 52t-51.5 21h-112q-32 0 -53 -21.5t-21 -51.5v-68h-101v68q0 31 -21.5 52t-51.5 21h-112q-32 0 -53 -21.5t-21 -51.5v-68h-64v194q0 17 12.5 29.5t29.5 12.5v0zM594 414v68q0 18 12 29.5 t29 11.5h112q18 0 30 -12.5t12 -28.5v-68h-195v0zM232 414v68q0 18 12.5 29.5t29.5 11.5h112q18 0 29.5 -12.5t11.5 -28.5v-68h-195v0zM75 326l51 56h759l61 -56q6 -6 10 -14t4 -16v-72h-893h-1.5h-1.5v75q0 6 2.5 13.5t8.5 13.5v0zM918 8h-41q-16 0 -27.5 10t-14.5 27 q-5 26 -25.5 44t-47.5 18h-476q-27 0 -47.5 -17.5t-25.5 -44.5q-3 -16 -14.5 -25.5t-27.5 -9.5h-65q-18 0 -30 12t-12 29v141h1.5h1.5h893v-141q0 -18 -12.5 -30.5t-29.5 -12.5v0zM488 720q5 -5 10.5 -7.5t11.5 -2.5t12 2.5t11 7.5l67 67q12 11 18 25t6 30q0 15 -6 29.5 t-16 26.5q-18 18 -43.5 22t-48.5 -8q-8 5 -16.5 6.5t-18.5 1.5q-14 0 -28 -5t-25 -16q-12 -11 -18 -25t-6 -29q0 -17 6 -33t18 -28zM445 877q6 6 14 8.5t16 2.5v0v0q7 0 13.5 -2t12.5 -6q3 -2 8.5 -2t8.5 2q14 10 31 8.5t29 -13.5q6 -6 9 -14.5t3 -17.5t-3 -17.5t-9 -14.5 l-68 -67l-65 66q-7 7 -11 17t-4 19t4 17t11 14v0z" />
</svg>