<svg viewBox="0 0 256 256" xmlns="http://www.w3.org/2000/svg">
  <path transform="scale(1, -1) translate(0, -256)" fill="currentColor" d="M222 169h-188q-12 0 -20.5 -8.5t-8.5 -20.5v-14q0 -3 2 -5t5 -2h29v-55q-7 -3 -11.5 -9t-4.5 -13q0 -10 7 -16.5t16.5 -6.5t16.5 6.5t7 15.5t-5 15t-12 8v17h155v-17q-7 -3 -11.5 -9t-4.5 -14.5t6.5 -15.5t16 -7t16.5 7t7 15.5t-4.5 14.5t-11.5 9v55h20q3 0 5 2t2 5v14 q0 12 -8.5 20.5t-20.5 8.5zM58 42q0 -4 -3 -7t-7 -3t-6.5 3t-2.5 6.5t2.5 6.5t6.5 3v0q4 0 7 -3t3 -6zM217 33q-4 0 -6.5 2.5t-2.5 6.5t2.5 6.5t6 2.5t6.5 -2.5t3 -6.5t-2.5 -6.5t-6.5 -2.5zM210 95h-155v24h155v-24zM237 133h-218v7q0 6 4.5 10.5t10.5 4.5h188 q6 0 10.5 -4.5t4.5 -10.5v-7zM95 184h126q5 0 9 4t4 9v9q0 13 -9 22t-22 9h-108q-5 0 -8.5 -3.5t-3.5 -8.5v-29q0 -5 3.5 -8.5t8.5 -3.5zM97 223h106q7 0 12 -5t5 -12v-8h-123v25zM48 186q10 0 17 7.5t7 17.5t-7 17.5t-17.5 7.5t-17.5 -7.5t-7 -17.5t7 -17.5t18 -7.5z M48 222q4 0 7 -3t3 -7.5t-3 -8t-7.5 -3.5t-7.5 3t-3 7.5t3 8t8 3.5z" />
</svg>