<svg viewBox="0 0 256 256" xmlns="http://www.w3.org/2000/svg">
  <path transform="scale(1, -1) translate(0, -256)" fill="currentColor" d="M241 66l-33 23q-6 5 -14 5h-120q-3 0 -6 2l-51 47q-2 2 -5 2t-5 -2t-2 -5t2 -5l51 -47q7 -6 16 -6h26v-26h-9q-9 0 -16 -7t-7 -16v-13q0 -3 2 -5t5 -2t5 2t2 5v13q0 4 3 6.5t7 2.5h75q4 0 6.5 -2.5t2.5 -6.5v-13q0 -3 2 -5t5 -2t5 2t2 5v13q0 9 -6.5 16t-16.5 7h-12v26 h40q3 0 5 -2l33 -23q2 -1 5 -1t4.5 2.5t1 5t-2.5 4.5zM141 54h-27v26h27v-26zM249 242q-2 2 -5 2.5t-5 -2.5l-26 -25q-6 7 -17 7t-18 -8h-1q-2 -2 -2 -5t2 -5t5 -2t5 2h1q3 4 7.5 4t8.5 -4l8 -8q3 -3 3 -8t-3 -8v0q-2 -3 -2 -5.5t2 -4.5t5 -2t5 2v0q7 7 7.5 17t-6.5 18 l26 25q2 3 2 5.5t-2 4.5zM42 207q-7 -8 -6.5 -18t7.5 -17v0q2 -2 5 -2t5 2t2 4.5t-2 5.5h-1q-3 3 -3 8t3 8l9 8q3 4 8 4t8 -4v0q2 -2 5 -2t5 2t2 5t-2 5v0q-7 8 -17.5 8t-18.5 -7l-25 25q-2 3 -5 3t-5 -2.5t-2 -5t2 -5.5z" />
</svg>