<svg viewBox="0 0 256 256" xmlns="http://www.w3.org/2000/svg">
  <path transform="scale(1, -1) translate(0, -256)" fill="currentColor" d="M228 50v1l-28 113v63q0 10 -7 17t-17 7h-96q-10 0 -17 -7t-7 -17v-63l-28 -115v-20q0 -10 7 -17t17 -7h152q10 0 17 7t7 17v21v0zM68 156h16v-3q0 -8 6 -13.5t14 -5.5h49q8 0 13.5 5.5t5.5 13.5v3h16l24 -100h-168zM98 153v21q0 2 1.5 3.5t4.5 1.5h49q2 0 3.5 -1.5 t1.5 -3.5v-21q0 -2 -1.5 -3.5t-3.5 -1.5h-49q-3 0 -4.5 1.5t-1.5 3.5zM70 227q0 4 3 7t7 3h97q4 0 6.5 -3t2.5 -7v-57h-14v4q0 7 -6 13t-14 6h-48q-8 0 -14 -5.5t-6 -13.5v-4h-14v57zM204 19h-152q-4 0 -7 3t-3 7v13h172v-13q0 -4 -3 -7t-7 -3z" />
</svg>