<svg viewBox="0 0 1024 1024" xmlns="http://www.w3.org/2000/svg">
  <path transform="scale(1, -1) translate(0, -960)" fill="currentColor" d="M936 282v0.5v0.5v0v0l-138 298v61q0 59 -22 111q-23 52 -61.5 91t-90.5 62q-53 22 -112 22t-112 -22q-52 -23 -90.5 -62t-61.5 -91q-22 -52 -22 -111v-61l-138 -298v0v0q-1 -1 -1.5 -3t-0.5 -3v0v0v-293q0 -7 4.5 -11.5t11.5 -4.5q8 0 12 4.5t4 11.5v98h788v-98 q0 -7 4 -11.5t12 -4.5q7 0 11.5 4.5t4.5 11.5v293q0 1 -1 2t-1 3v0zM253 562h518l125 -269h-768l125 269v0zM405 624v50q0 13 9 21.5t21 8.5h154q13 0 21.5 -9t8.5 -21v-50q0 -13 -9 -21.5t-21 -8.5h-154q-13 0 -21.5 9t-8.5 21v0zM258 642q0 52 20 99q20 46 54 80.5 t81 54.5q46 20 99 20t99 -20t80.5 -54.5t54.5 -80.5q20 -47 20 -99v-48h-123q4 7 6 14.5t2 15.5v50q0 26 -18.5 44t-43.5 18h-154q-26 0 -44 -18.5t-18 -43.5v-50q0 -8 2 -15.5t6 -14.5h-123v48v0zM118 114v147h788v-147h-788v0z" />
</svg>