<svg viewBox="0 0 256 256" xmlns="http://www.w3.org/2000/svg">
  <path transform="scale(1, -1) translate(0, -256)" fill="currentColor" d="M222 163h-188q-12 0 -20.5 -8.5t-8.5 -20.5v-14q0 -3 2 -5t5 -2h65l38 -24l-31 -20q-6 5 -15.5 5t-16.5 -7t-7 -17t7 -17t17 -7t17 7t7 17q0 4 -1 7l36 23l36 -23q-1 -3 -1 -7q0 -9 7 -16.5t17 -7.5t17 7.5t7 17t-7 16.5t-16 7t-16 -5l-31 20l38 24h65q3 0 5 2t2 5v14 q0 12 -8.5 20.5t-20.5 8.5zM69 41q-4 0 -7 3t-3 7t3 7t7 3t7 -3t3 -7t-3 -7t-7 -3zM197 51q0 -4 -3 -7t-7 -3t-7 3t-3 7t3 7t7 3t7 -3t3 -7zM128 97l-25 16h50zM237 127h-218v7q0 6 4.5 10.5t10.5 4.5h188q6 0 10.5 -4.5t4.5 -10.5v-7zM94 180h128q5 0 8.5 3.5t3.5 8.5v9 q0 12 -8.5 20t-19.5 8h-112q-4 0 -7 -3.5t-3 -7.5v-27q-1 -5 2 -8t8 -3zM97 215h109q5 0 9 -4t4 -9v-8h-122v21zM48 181q9 0 16 6.5t7 16.5t-7 16.5t-16.5 6.5t-16.5 -6.5t-7 -16.5t7 -16.5t17 -6.5zM48 213q3 0 6 -2.5t3 -6.5t-2.5 -6.5t-6.5 -2.5t-7 2.5t-3 6.5t3 6.5 t7 2.5z" />
</svg>