<svg viewBox="0 0 256 256" xmlns="http://www.w3.org/2000/svg">
  <path transform="scale(1, -1) translate(0, -256)" fill="currentColor" d="M232 152h-140q9 10 9 25t-11.5 26t-27 11t-26.5 -11t-11 -26t9 -25h-10q-8 0 -13.5 -5.5t-5.5 -13.5v-52q0 -3 2 -5t5 -2h6v-14q0 -7 6 -13t14 -6h181q8 0 13.5 5.5t5.5 13.5v14h6q3 0 5 2t2 5v52q0 8 -5.5 13.5t-13.5 5.5zM38 176q0 10 7 17t17 7t17 -7t7 -16.5t-7 -17 t-16.5 -7.5t-17 7.5t-7.5 16.5zM19 133q0 2 1.5 3.5t3.5 1.5h208q2 0 4 -1.5t2 -3.5v-45h-219v45zM224 60q0 -2 -2 -3.5t-4 -1.5h-181q-2 0 -3.5 1.5t-1.5 3.5v14h192v-14z" />
</svg>