<svg viewBox="0 0 256 256" xmlns="http://www.w3.org/2000/svg">
  <path transform="scale(1, -1) translate(0, -256)" fill="currentColor" d="M216 75v0l-24 99v56q0 9 -6.5 15t-15.5 6h-84q-9 0 -15.5 -6t-6.5 -15v-56l-24 -99v-63q0 -3 2 -5t5 -2t5 2t2 5v11q1 3 10 6.5t24 5.5q18 3 40.5 3t40.5 -3q15 -2 24 -5.5t10 -6.5v-11q0 -3 2 -5t5 -2t5 2t2 5v62q-1 0 -1 1zM76 166h103l21 -85h-144zM78 230q0 3 2 5 t6 2h84q3 0 5.5 -2t2.5 -5v-50h-100v50zM128 52q-20 0 -39 -2q-23 -3 -35 -10v27h148v-27q-13 7 -36 10q-18 2 -38 2z" />
</svg>