<svg viewBox="0 0 256 256" xmlns="http://www.w3.org/2000/svg">
  <path transform="scale(1, -1) translate(0, -256)" fill="currentColor" d="M244 144h-5v21q0 13 -9.5 22t-21.5 9h-82q-12 0 -21.5 -9t-9.5 -22v-21h-15q6 8 6 17q0 12 -8.5 20t-20 8t-20 -8t-8.5 -19t6 -18h-16v74q0 3 -2 5.5t-5 2.5t-5 -2.5t-2 -5.5v-180q0 -3 2 -5t5 -2t5.5 2t2.5 5v31h218v-31q0 -3 2 -5t5 -2t5 2t2 5v98q-1 3 -3 5.5t-5 2.5z M58 176q6 0 10 -4.5t4 -10.5t-4 -10t-10 -4t-10.5 4t-4.5 10t4.5 10.5t10.5 4.5zM109 165q0 7 5 12t12 5h82q7 0 12 -5t5 -12v-21h-116v21zM19 130h218v-48h-218v48z" />
</svg>