<svg viewBox="0 0 1024 1024" xmlns="http://www.w3.org/2000/svg">
  <path transform="scale(1, -1) translate(0, -960)" fill="currentColor" d="M899 138l-110 454v253q0 35 -24.5 59t-58.5 24h-388q-33 0 -58 -24t-25 -59v-255l-110 -452v-2v-2v0v-1v0v0v-83q0 -34 24 -59t59 -25h610q33 0 58 24.5t25 59.5v83q-1 1 -1.5 2t-0.5 3v0zM264 573h86v-26q0 -26 19 -45t45 -19h197q27 0 45.5 19t18.5 45v26h87l102 -424 h-704zM382 547v85q0 13 9.5 22.5t22.5 9.5h197q13 0 22.5 -9.5t9.5 -22.5v-85q0 -13 -9.5 -22.5t-22.5 -9.5h-197q-13 0 -22.5 9.5t-9.5 22.5v0zM267 845q0 20 15 35.5t36 15.5h389q21 0 36 -15t15 -36v-240h-83v27q0 26 -18.5 45t-45.5 19h-197q-26 0 -45 -19t-19 -45v-27 h-83v240v0zM818 0h-612q-20 0 -35.5 15t-15.5 36v67h711v-67q1 -21 -13.5 -36t-34.5 -15v0z" />
</svg>