<svg viewBox="0 0 1024 1024" xmlns="http://www.w3.org/2000/svg">
  <path transform="scale(1, -1) translate(0, -960)" fill="currentColor" d="M976 498h-650q6 8 9.5 18.5t3.5 22.5v40q0 30 -21.5 52t-51.5 22h-144q-18 0 -33 -8t-25 -21v186q0 7 -4.5 11.5t-11.5 4.5t-11.5 -4.5t-4.5 -11.5v-722q0 -7 4.5 -11.5t11.5 -4.5t11.5 4.5t4.5 11.5v134h896v-134q0 -7 4.5 -11.5t11.5 -4.5t11.5 4.5t4.5 11.5v394 q0 7 -4.5 11.5t-11.5 4.5zM80 581q0 17 12.5 29t29.5 12h142q17 0 29.5 -12t12.5 -29v-40q0 -17 -12.5 -29.5t-29.5 -12.5h-142q-17 0 -29.5 12.5t-12.5 29.5v40zM64 253v213h896v-213h-896z" />
</svg>