<svg viewBox="0 0 1024 1024" xmlns="http://www.w3.org/2000/svg">
  <path transform="scale(1, -1) translate(0, -960)" fill="currentColor" d="M928 533h-589q24 19 37.5 47.5t13.5 61.5q0 58 -41 99t-99 41q-59 0 -100 -41t-41 -99q0 -33 14 -61.5t37 -47.5h-64q-26 0 -45 -19t-19 -45v-208q0 -7 4.5 -11.5t11.5 -4.5h37v-67q0 -27 18.5 -45.5t45.5 -18.5h726q27 0 45.5 18.5t18.5 45.5v67h37q7 0 11.5 4.5 t4.5 11.5v208q0 26 -19 45t-45 19zM141 642q0 44 31.5 76t77.5 32q44 0 76 -31.5t32 -76.5t-31.5 -77t-76.5 -32t-77 32t-32 77zM907 178q0 -14 -9.5 -23t-22.5 -9h-726q-13 0 -22.5 9t-9.5 23v67h790v-67zM960 277h-896v192q0 13 9.5 22.5t22.5 9.5h832q13 0 22.5 -9.5 t9.5 -22.5v-192z" />
</svg>