<svg viewBox="0 0 1024 1024" xmlns="http://www.w3.org/2000/svg">
  <path transform="scale(1, -1) translate(0, -960)" fill="currentColor" d="M853 235l-96 397v222q0 32 -22 53t-52 21h-341q-31 0 -52 -22t-21 -52v-222l-96 -397v-1.5v-1.5v0v0v0v0v-248q0 -7 4.5 -11.5t11.5 -4.5t11.5 4.5t4.5 11.5v45q0 11 21 24q22 13 62.5 24t97.5 18t128 7q70 0 127 -7q58 -7 98 -18t62 -24q21 -13 21 -24v-45 q0 -7 4.5 -11.5t11.5 -4.5q8 0 12 4.5t4 11.5v246q-1 2 -1 3v2v0zM296 614h430l90 -368h-608zM301 854q0 18 12.5 30t28.5 12h340q18 0 29.5 -12.5t11.5 -29.5v-208h-422v208v0zM512 134q-47 0 -93 -3q-46 -4 -86.5 -11t-74.5 -18q-33 -11 -55 -25v139h618v-139 q-22 14 -55 25q-34 11 -74.5 18t-86.5 11q-46 3 -93 3v0z" />
</svg>