<svg viewBox="0 0 1024 1024" xmlns="http://www.w3.org/2000/svg">
  <path transform="scale(1, -1) translate(0, -960)" fill="currentColor" d="M976 621q-7 0 -11.5 -4.5t-4.5 -11.5v-307h-118v184q0 7 -4.5 11.5t-11.5 4.5h-455q1 1 2 3t1 3l21 42q7 14 8 31t-5 33q-6 15 -16.5 27.5t-24.5 18.5l-183 86q-15 8 -31.5 9t-32.5 -5q-14 -5 -25.5 -15.5t-18.5 -24.5v104q0 7 -4.5 11.5t-11.5 4.5q-8 0 -12 -4.5 t-4 -11.5v-724q0 -7 4 -11.5t12 -4.5q7 0 11.5 4.5t4.5 11.5v181h190v-118q0 -7 4.5 -11.5t11.5 -4.5h555q7 0 11.5 4.5t4.5 11.5v118h117v-181q0 -7 4.5 -11.5t11.5 -4.5t11.5 4.5t4.5 11.5v519q0 7 -4.5 11.5t-11.5 4.5v0zM70 650l21 41q5 10 12 16t17 10q10 3 20 2.5 t18 -4.5l183 -86q9 -5 15.5 -12t9.5 -17q4 -10 3 -20t-4 -18l-21 -42q-4 -6 -8 -11.5t-10 -9.5h-56l-174 83q-19 9 -26.5 28.5t0.5 39.5v0zM64 299v266q4 -4 8.5 -6.5t9.5 -4.5l172 -82v-173h-190zM810 163h-524v303h524v-303z" />
</svg>