<svg viewBox="0 0 1024 1024" xmlns="http://www.w3.org/2000/svg">
  <path transform="scale(1, -1) translate(0, -960)" fill="currentColor" d="M418 483q20 9 35.5 21.5t24.5 28.5q10 15 15.5 35t5.5 42q0 20 -3.5 38t-9.5 34q-7 15 -16.5 27t-23.5 21q-13 8 -27.5 15t-32.5 10q-20 4 -39 5.5t-40 1.5h-291v-608h296q20 0 40 2t38 9q21 5 38 13t33 19q15 9 27 23.5t21 32.5q8 17 12.5 37t4.5 44q0 29 -7 54t-20 44 q-14 17 -34.5 30t-46.5 21v0zM152 656h126q9 0 17.5 -1t16.5 -1t16 -3.5t13 -7.5q7 -3 12 -8.5t9 -13.5q3 -7 4.5 -16t1.5 -21q0 -18 -5 -33t-17 -23q-12 -7 -27.5 -11.5t-32.5 -4.5h-134v73v71v0zM386 296q-4 -8 -9 -13.5t-14 -10.5q-7 -5 -15 -8t-17 -3q-8 -1 -17.5 -1.5 t-19.5 -0.5h-144v165h148q21 0 38.5 -5t31.5 -16q13 -9 20 -26.5t7 -40.5q-2 -12 -3.5 -22t-5.5 -18v0zM998 440q-4 24 -14.5 44.5t-23.5 38.5t-30 32.5t-37 26.5q-21 10 -45.5 16.5t-52.5 6.5q-25 0 -48 -4.5t-41 -13.5q-21 -8 -39 -20.5t-33 -28.5q-16 -16 -28 -34 t-20 -40q-9 -20 -13.5 -44t-4.5 -49t4 -49t12 -45q8 -22 20 -39.5t25 -34.5q15 -15 32.5 -27t39.5 -21q20 -8 44 -12.5t50 -4.5q37 0 69.5 8t58.5 25q28 17 46.5 46t32.5 69h-106q-4 -9 -12 -19.5t-20 -18.5t-28 -13t-34 -5q-26 0 -46 7t-33 21q-13 13 -21 36.5t-8 49.5h314 q0 25 -2 49.5t-8 46.5v0zM688 419q0 9 3 17t5 15q4 9 8 17t10 14q7 7 16 13.5t19 11.5q9 5 20.5 6t22.5 1q22 0 40 -7t27 -17q10 -12 17.5 -29.5t9.5 -41.5h-31h-68h-68h-31v0zM662 720h248v-61h-248v61z" />
</svg>