<svg viewBox="0 0 256 256" xmlns="http://www.w3.org/2000/svg">
  <path transform="scale(1, -1) translate(0, -256)" fill="currentColor" d="M104 137q11 4 16 12.5t5 18.5t-3.5 18t-10.5 12.5t-15 6t-19 1.5h-73v-152h74q13 0 20 3q9 2 17 7.5t12.5 14.5t4.5 21q0 14 -7.5 23.5t-20.5 13.5zM38 180h32h8q3 0 7 -2.5t5.5 -6t1.5 -9.5q0 -10 -6 -14t-14 -4h-34v36zM96 90q-1 -4 -5 -6.5t-8 -2.5h-9h-36v41h36 q11 0 18 -5t7 -17l-1 -3q0 -5 -2 -7zM250 126q-3 11 -9.5 20t-18 15t-24 6t-22.5 -4.5t-18 -12.5t-12 -18.5t-4 -23.5t4 -23q3 -8 11 -17t18.5 -13.5t23.5 -4.5q19 0 32 8.5t19 29.5h-26q-2 -6 -8 -10t-16 -4q-12 0 -19 6q-3 4 -5 9.5t-2 12.5h78q0 15 -2 24zM172 121 q0 2 2 6v2q2 5 4 7q4 4 8 6t12 2q11 0 17 -6.5t7 -16.5h-50zM166 196h62v-15h-62v15z" />
</svg>