<svg viewBox="0 0 256 256" xmlns="http://www.w3.org/2000/svg">
  <path transform="scale(1, -1) translate(0, -256)" fill="currentColor" d="M93 129q8 5 13.5 12t7.5 16.5t-0.5 19.5t-9 18t-15.5 12.5t-20 4.5h-45q-10 0 -16.5 -6.5t-6.5 -15.5v-123q0 -10 6.5 -16.5t16.5 -6.5h43q18 0 31.5 11.5t15.5 28.5q1 10 -2 19t-9 17q-4 5 -10 9zM15 190q0 3 2.5 5.5t6.5 2.5h45q7 0 14 -3t11 -9q10 -12 6 -26 q-2 -10 -12 -17.5t-20 -7.5h-53v55zM100 86q-1 -12 -10.5 -20t-21.5 -8h-44q-4 0 -6.5 3t-2.5 6v54h54q14 0 23.5 -10.5t7.5 -24.5zM158 195h85q3 0 5 2t2 5t-2 5t-5 2h-85q-3 0 -5 -2t-2 -5t2 -5t5 -2zM198 159q-16 0 -29 -8t-21 -21t-8 -28.5t8 -29t21 -21t29 -7.5 q21 0 38 14q2 2 2 5t-1.5 5t-4.5 2.5t-6 -1.5q-12 -11 -28 -11t-28.5 10.5t-14.5 25.5h93q3 0 5 2.5t2 5.5q0 15 -7.5 28t-21 21t-28.5 8zM198 145q16 0 28 -10.5t14 -26.5h-86q3 16 15 26.5t29 10.5z" />
</svg>