<svg viewBox="0 0 1024 1024" xmlns="http://www.w3.org/2000/svg">
  <path transform="scale(1, -1) translate(0, -960)" fill="currentColor" d="M344 450q36 16 62.5 46.5t35.5 66.5q8 39 -0.5 76.5t-33.5 67.5q-24 31 -59 47.5t-74 16.5h-181q-32 0 -55 -23t-23 -55v-490q0 -32 23 -55t55 -23h175q67 0 117 42.5t59 107.5q5 37 -6.5 71t-35.5 62q-12 13 -27 23.5t-32 18.5v0zM48 694q0 20 13.5 33.5t32.5 13.5h181 q31 0 60 -14t49 -39t27 -55.5t0 -62.5q-9 -44 -51.5 -76t-89.5 -32h-222v232v0zM414 278q-6 -51 -47 -86t-97 -35h-176q-19 0 -32.5 13.5t-13.5 32.5v229h229q30 0 57.5 -12.5t46.5 -33.5q19 -22 28 -50t5 -58v0zM634 728h337q7 0 11.5 4.5t4.5 11.5t-4.5 11.5t-11.5 4.5 h-337q-8 0 -12 -4.5t-4 -11.5t4 -11.5t12 -4.5zM790 560q-45 0 -84 -17q-40 -17 -69.5 -46.5t-46.5 -69.5t-17 -85t17 -84q17 -40 46.5 -69.5t69.5 -46.5q39 -17 84 -17q40 0 77 14t67 40q5 5 6 11.5t-4 11.5q-5 4 -11.5 5t-10.5 -4q-26 -23 -57.5 -34.5t-66.5 -11.5 q-73 0 -126 49.5t-59 119.5h387q7 0 11.5 4.5t4.5 11.5q0 45 -17 84q-17 40 -46.5 69.5t-69.5 47.5q-40 17 -85 17zM790 528q74 0 127 -49.5t59 -120.5h-371q6 71 59 120.5t126 49.5z" />
</svg>