<svg viewBox="0 0 256 256" xmlns="http://www.w3.org/2000/svg">
  <path transform="scale(1, -1) translate(0, -256)" fill="currentColor" d="M211 72q-4 9 -6 22l-1 12v41q0 19 -9.5 36t-25 27.5t-34.5 11.5v22q0 3 -2 5t-5 2t-5.5 -2t-2.5 -5v-22q-19 -1 -34.5 -11.5t-24.5 -27.5t-9 -36v-41l-2 -11q-2 -13 -6 -23q-2 -6 -1.5 -12.5t3.5 -11.5q8 -11 21 -11h25q1 -13 11 -22.5t24 -9.5t24 9t12 23h25q6 0 12 3 t9 8t4 11.5t-2 12.5zM128 19q-8 0 -14 5t-7 12h43q-2 -7 -8 -12t-14 -5zM197 56q-3 -5 -9 -5h-120q-6 0 -9 5t-1 10q5 15 8 37v3v41q0 17 8.5 31t22.5 22.5t31 8.5t31 -8.5t22.5 -22.5t8.5 -31v-42q0 -4 1 -13q2 -14 7 -26q2 -5 -1 -10z" />
</svg>