<svg viewBox="0 0 256 256" xmlns="http://www.w3.org/2000/svg">
  <path transform="scale(1, -1) translate(0, -256)" fill="currentColor" d="M199 107v39q0 18 -8.5 33.5t-23 25.5t-32.5 11v20q0 3 -2 5t-5 2t-5 -2t-2 -5v-20q-18 -2 -32.5 -11.5t-23 -25t-8.5 -33.5v-39l-1 -10q-2 -12 -6 -21q-2 -6 -1.5 -12t4 -11t9 -7.5t11.5 -2.5h22q1 -13 10.5 -21t22.5 -8t22.5 8t10.5 21h22q6 0 11.5 2.5t8.5 7.5t4 11 t-1 12q-4 9 -6 21zM128 28q-7 0 -12.5 4t-6.5 11h38q-1 -7 -6.5 -11t-12.5 -4zM192 61q-4 -4 -9 -4h-110q-5 0 -8.5 4.5t-0.5 8.5q4 11 6 25q2 8 2 12v39q0 15 7.5 28t20.5 21t28.5 8t28.5 -8t20.5 -21t7.5 -28v-39q0 -4 2 -12q2 -14 6 -25q1 -5 -1 -9zM48 228q-2 2 -5 1.5 t-5 -2.5q-16 -17 -24.5 -38.5t-8.5 -44.5q0 -3 2 -5.5t5 -2.5t5 2.5t2 5.5q0 20 7.5 39.5t21.5 34.5q2 2 2 5t-2 5zM218 227q-2 2 -5 2.5t-5 -2t-2 -5t2 -4.5q14 -16 21.5 -35t7.5 -39q0 -3 2 -5.5t5 -2.5t5 2.5t2 5.5q0 23 -8.5 44.5t-24.5 38.5z" />
</svg>