<svg viewBox="0 0 1024 1024" xmlns="http://www.w3.org/2000/svg">
  <path transform="scale(1, -1) translate(0, -960)" fill="currentColor" d="M726 928q-76 0 -139.5 -39.5t-98.5 -104.5q-26 13 -55.5 21t-58.5 9v98q0 7 -4 11.5t-12 4.5q-7 0 -11.5 -4.5t-4.5 -11.5v-98q-54 -2 -102.5 -24t-85.5 -60q-41 -41 -63 -94.5t-22 -110.5v-167l-5.5 -46.5t-25.5 -95.5q-8 -20 -6 -42.5t14 -40.5t32 -29t42 -11h109 q2 -53 40 -90t91 -37t91 37t40 90h109q23 0 42.5 10.5t31.5 29.5q12 18 14 40.5t-6 42.5q-21 49 -26 95l-5 46v43q18 -6 37.5 -8.5t39.5 -2.5q56 0 105 21t85.5 57.5t57.5 85.5t21 105q0 55 -22 105q-21 49 -58 85.5t-86 58.5q-49 21 -105 21zM358 0q-39 0 -67.5 27.5 t-31.5 66.5h197q-1 -39 -29.5 -66.5t-68.5 -27.5zM616 357q0 -3 6 -51t28 -101q6 -13 4 -27t-9 -26q-9 -12 -21.5 -19t-26.5 -7h-479q-14 0 -26.5 7t-21.5 19q-8 12 -9 26t5 27q21 53 27 101t6 51v168q0 51 19.5 98.5t55.5 83.5q38 37 84.5 57t98.5 20v0v0v0v0q31 0 60.5 -7 t56.5 -22q-9 -23 -13.5 -47t-4.5 -49q0 -81 44.5 -147.5t115.5 -98.5v-56zM726 422q-49 0 -92 19q-43 18 -75 50.5t-51 75.5q-18 43 -18 92t18 93q19 43 51 75t75 50q43 19 92 19q50 0 93 -19q43 -18 75 -50t51 -75q18 -44 18 -93t-19 -92q-18 -43 -50.5 -75t-75.5 -51 t-92 -19v0zM787 682h-121q-8 0 -12 -4.5t-4 -11.5q0 -8 4 -12t12 -4h121q7 0 11.5 4t4.5 12q0 7 -5 11.5t-11 4.5z" />
</svg>