<svg viewBox="0 0 256 256" xmlns="http://www.w3.org/2000/svg">
  <path transform="scale(1, -1) translate(0, -256)" fill="currentColor" d="M182 251q-20 0 -36 -9.5t-25 -25.5q-11 5 -25 6v22q0 3 -2 5t-5 2t-5 -2t-2 -5v-22q-27 -2 -46 -22q-11 -10 -16.5 -24t-5.5 -29v-41l-2 -12q-2 -13 -6 -23q-2 -6 -1.5 -12t3.5 -11q8 -12 22 -12h24q2 -13 12 -22t23.5 -9t24 9t11.5 22h25q6 0 11.5 3t9 8.5t4.5 11.5 t-2 12q-4 10 -6 23l-1 11v7q8 -2 16 -2q19 0 35 9.5t25.5 25.5t9.5 35t-9.5 35.5t-25.5 26t-35 9.5zM90 19q-8 0 -14 5t-8 12h43q-2 -7 -8 -12t-13 -5zM151 105q0 -4 2 -13q2 -14 7 -26q2 -5 -1.5 -10t-9.5 -5h-119q-6 0 -9.5 5t-1.5 10q5 12 7 26q2 10 2 14v41q0 13 4.5 24 t13 19.5t20 13.5t24 5t25.5 -6q-4 -11 -4 -22q0 -21 11 -38t29 -25v-13zM182 124q-16 0 -29 8t-20.5 20.5t-7.5 28t7.5 28.5t20.5 20.5t28.5 7.5t28.5 -7.5t20.5 -20.5t7.5 -28.5t-7.5 -28.5t-20.5 -20.5t-28 -7.5zM197 190h-9v8q0 3 -2 5t-5 2t-5 -2t-2 -5v-8h-8 q-3 0 -5.5 -2.5t-2.5 -5.5t2.5 -5t5.5 -2h8v-8q0 -3 2 -5t5 -2t5 2t2 5v8h9q3 0 5 2t2 5t-2 5.5t-5 2.5z" />
</svg>