<svg viewBox="0 0 256 256" xmlns="http://www.w3.org/2000/svg">
  <path transform="scale(1, -1) translate(0, -256)" fill="currentColor" d="M186 50h-119q-6 0 -9 5t-1 11q6 15 8 37l1 2v30q0 3 -2.5 5t-5.5 2t-5 -2t-2 -5v-29l-1 -12q-2 -13 -6 -23q-3 -6 -2.5 -12t4.5 -11q7 -12 21 -12h24q2 -13 12 -22t23.5 -9t24 9t11.5 22h25q3 0 5 2.5t2 5.5t-2.5 4.5t-5.5 1.5zM127 19q-8 0 -14 5t-7 12h42 q-2 -7 -7.5 -12t-13.5 -5zM236 69l-34 23v55q0 19 -9 36t-24.5 27.5t-34.5 11.5v22q0 3 -2.5 5t-5.5 2t-4.5 -2t-1.5 -5v-22q-18 -1 -33 -10t-24 -24l-35 23q-2 2 -5 1.5t-4.5 -3t-1 -5t2.5 -4.5l208 -143q1 -1 4 -1t5 2.5t1.5 5.5t-2.5 5zM127 209q17 0 31 -8.5t22 -22.5 t8 -31v-46l-114 79q9 14 23 21.5t30 7.5z" />
</svg>