<svg viewBox="0 0 1024 1024" xmlns="http://www.w3.org/2000/svg">
  <path transform="scale(1, -1) translate(0, -960)" fill="currentColor" d="M853 117l-51 104q-2 2 -2 4.5v3.5v261q0 63 -26.5 118.5t-71.5 95.5q4 0 7.5 1t7.5 2q55 16 85 58.5t17 87.5q-13 44 -61 64t-104 5q-43 -12 -84 -60.5t-58 -72.5q-17 25 -58.5 73t-83.5 60q-56 15 -104 -5t-61 -64q-13 -45 17 -87.5t85 -58.5q4 -1 7.5 -1.5t7.5 -1.5 q-45 -40 -71.5 -95.5t-26.5 -118.5v-258l-54 -115q-4 -7 -3 -15t4 -16q5 -7 12 -10.5t15 -3.5h186q10 -44 45 -74t81 -30q47 0 82.5 30t44.5 74h185q9 0 16 4t12 10q6 8 6 16t-3 15zM664 891q42 12 78.5 -1.5t46.5 -44.5q9 -31 -15 -62.5t-67 -43.5q-9 -2 -21.5 -2t-27.5 2 q-27 16 -55.5 25.5t-60.5 13.5q21 27 56 65.5t66 47.5v0zM317 738q-42 12 -66 43t-16 62q10 31 46.5 45t78.5 2q31 -9 66 -47.5t56 -68.5q-32 -3 -60.5 -12.5t-53.5 -25.5q-16 -1 -29 -1t-22 3v0zM512 0q-34 0 -59.5 20.5t-34.5 51.5h187q-9 -31 -34 -51.5t-59 -20.5v0z M200 104l58 122v264q0 52 20 99t55 81.5t81 54.5q47 21 100 21q52 0 99 -21q47 -20 81.5 -54.5t54.5 -81.5q21 -47 21 -99v-261q0 -1 0.5 -7.5t3.5 -15.5l52 -104z" />
</svg>