<svg viewBox="0 0 256 256" xmlns="http://www.w3.org/2000/svg">
  <path transform="scale(1, -1) translate(0, -256)" fill="currentColor" d="M216 47l-13 26v65q0 31 -21 52q14 5 21.5 16.5t4 23.5t-16.5 17.5t-28 1.5t-35 -31q-19 27 -34 31t-28.5 -1.5t-16.5 -17.5t4.5 -23.5t21.5 -16.5q-10 -10 -15.5 -23.5t-5.5 -28.5v-64l-14 -28q-2 -5 1 -10t9 -5h44q3 -11 13 -18.5t21.5 -7.5t21 7t12.5 19h44q6 0 9.5 5 t0.5 11zM167 236q9 2 17 -0.5t10 -9.5t-3.5 -13.5t-14.5 -9.5q-4 -1 -10 0q-11 7 -25 9q6 8 13 15t13 9zM62 226q1 7 9.5 9.5t17.5 0.5q5 -2 12.5 -8.5t13.5 -15.5q-13 -2 -24 -9q-6 -1 -11 0q-9 3 -14.5 9.5t-3.5 13.5zM128 19q-6 0 -11 3t-8 9h38q-3 -5 -8 -8.5t-11 -3.5z M55 45l13 27v66q0 17 8 31t22 22t30.5 8t30.5 -8t22 -22t8 -31v-65q0 -4 2 -7l11 -21h-147z" />
</svg>