<svg viewBox="0 0 1024 1024" xmlns="http://www.w3.org/2000/svg">
  <path transform="scale(1, -1) translate(0, -960)" fill="currentColor" d="M746 126h-127v0v0v0v0h-225v0v0v0v0h-127q-14 0 -26.5 7t-21.5 19q-8 12 -9.5 26t4.5 28q22 53 28 101.5t6 52.5v118q0 8 -4.5 12t-11.5 4t-11.5 -4t-4.5 -12v-116l-6 -47t-26 -96q-8 -20 -6 -42.5t14 -40.5t32 -29t42 -11h108q3 -53 41 -89.5t91 -36.5q52 0 90 36.5 t41 89.5h109q7 0 11.5 4.5t4.5 11.5t-4.5 10.5t-11.5 3.5v0zM507 0q-39 0 -68 27.5t-31 66.5h197q-1 -39 -29.5 -66.5t-68.5 -27.5v0zM936 202l-142 97q2 3 3 5t1 5v216q0 58 -21 109q-21 52 -58.5 91t-87.5 63q-50 23 -108 26v98q0 7 -4.5 11.5t-11.5 4.5t-11.5 -4.5 t-4.5 -11.5v-98q-72 -3 -133.5 -39.5t-98.5 -99.5q-1 -1 -2 -2.5t-1 -3.5l-149 102q-6 4 -12.5 2.5t-9.5 -7.5q-4 -3 -3 -9.5t6 -10.5l829 -572q2 -1 4.5 -2t4.5 -1q4 0 7.5 2t5.5 5q4 6 3 12.5t-6 11.5v0zM285 659q36 59 94 92t127 33q53 0 100 -20q47 -21 82.5 -56 t55.5 -83q21 -47 21 -100v-207l-487 336q3 0 5 1.5t2 3.5v0z" />
</svg>