<svg viewBox="0 0 256 256" xmlns="http://www.w3.org/2000/svg">
  <path transform="scale(1, -1) translate(0, -256)" fill="currentColor" d="M232 208h-5q-8 0 -13.5 -5.5t-5.5 -12.5v-6h-28v34q0 3 -2.5 5.5t-5.5 2.5t-5 -2.5t-2 -5.5v-34h-75v34q0 3 -2 5.5t-5 2.5t-5 -2.5t-2 -5.5v-34h-29v6q0 7 -5.5 12.5t-12.5 5.5h-5q-8 0 -13.5 -5.5t-5.5 -12.5v-33q0 -8 5.5 -13.5t13.5 -5.5h5q8 0 13.5 5.5t5.5 13.5v13 h28v-90h-9q-8 0 -13.5 -5.5t-5.5 -13.5v-12q0 -8 5.5 -13.5t13.5 -5.5h122q8 0 13.5 5.5t5.5 13.5v12q0 8 -5.5 13.5t-13.5 5.5h-9v90h28v-13q0 -8 5.5 -13.5t13.5 -5.5h5q8 0 13.5 5.5t5.5 13.5v33q0 7 -5.5 12.5t-13.5 5.5zM34 157q0 -2 -1.5 -3t-3.5 -1h-5q-2 0 -3.5 1 t-1.5 3v33q0 2 1.5 3t3.5 1h5q2 0 3.5 -1t1.5 -3v-33zM194 62v-12q0 -3 -1.5 -4.5t-3.5 -1.5h-122q-2 0 -3.5 2t-1.5 4v12q0 2 1.5 3.5t3.5 1.5h122q2 0 3.5 -1.5t1.5 -3.5zM166 81h-76v89h76v-89zM237 157q0 -2 -1 -3t-3 -1h-6q-2 0 -3 1t-1 3v33q0 2 1 3t3 1h6q2 0 3 -1 t1 -3v-33z" />
</svg>