<svg viewBox="0 0 256 256" xmlns="http://www.w3.org/2000/svg">
  <path transform="scale(1, -1) translate(0, -256)" fill="currentColor" d="M200 187v23q0 17 -12.5 29t-29.5 12h-45q-8 0 -13.5 -5.5t-5.5 -13.5v-201q0 -5 -3.5 -8.5t-8.5 -3.5t-8.5 3.5t-3.5 8.5v24q0 3 -2 5t-5 2t-5 -2t-2 -5v-24q0 -11 7.5 -18.5t18 -7.5t18.5 7.5t8 18.5v24h50q17 0 29 12t12 29v23q0 10 -5 19t-14 15q9 6 14.5 14.5 t5.5 19.5zM186 119v-23q0 -11 -8 -19t-20 -8h-50v77h50q11 0 19.5 -8t8.5 -19zM186 187q0 -11 -8 -19t-20 -8h-50v72q0 2 1.5 3.5t4.5 1.5h45q11 0 19 -8t8 -19v-23z" />
</svg>