<svg viewBox="0 0 1024 1024" xmlns="http://www.w3.org/2000/svg">
  <path transform="scale(1, -1) translate(0, -960)" fill="currentColor" d="M786 683v91q0 64 -45 108t-107 44h-181q-27 0 -45.5 -18.5t-18.5 -45.5v-803q0 -24 -17.5 -41.5t-41.5 -17.5t-42 17.5t-18 41.5v96q0 7 -4 11.5t-12 4.5q-7 0 -11.5 -4.5t-4.5 -11.5v-96q0 -38 27 -64.5t65 -26.5q37 0 64 27t27 64v107h213q63 0 107.5 45t44.5 107v92 q0 44 -24 81t-61 55q37 20 61 56.5t24 80.5zM754 411v-91q0 -50 -35.5 -85t-84.5 -35h-213v331h213q49 0 84.5 -35.5t35.5 -84.5zM634 563h-213v301q0 13 9.5 22.5t22.5 9.5h181q50 0 85 -35.5t35 -84.5v-91q0 -51 -35.5 -86.5t-84.5 -35.5z" />
</svg>