<svg viewBox="0 0 1024 1024" xmlns="http://www.w3.org/2000/svg">
  <path transform="scale(1, -1) translate(0, -960)" fill="currentColor" d="M197 358q-69 0 -117 -48t-48 -116q0 -69 48 -117t117 -48q68 0 116.5 48t48.5 117q0 68 -48.5 116t-116.5 48v0zM197 61q-55 0 -94 38.5t-39 94.5q0 55 39 93.5t94 38.5t94 -38.5t39 -93.5q0 -56 -39 -94.5t-94 -38.5zM829 358q-69 0 -116 -48t-47 -115t48 -115t115 -48 t115 48t48 115t-48 115t-115 48v0zM829 62q-54 0 -92.5 39t-38.5 93t38.5 92.5t92.5 38.5t92.5 -38.5t38.5 -92.5t-38.5 -93t-92.5 -39v0zM765 486q3 -4 10 -5t12 2q5 4 6 11t-3 12l-140 179l-2 1q-7 8 -16.5 9t-18.5 -4l-191 -110q-6 -4 -9.5 -9.5t-4.5 -11.5t1 -12.5 t7 -9.5l64 -74q10 -11 14.5 -24t4.5 -27v-111q0 -7 4.5 -11.5t11.5 -4.5t11.5 4.5t4.5 11.5v111q0 20 -7 38.5t-20 33.5l-61 70l184 107l138 -176v0zM787 707q34 0 57 23.5t23 56.5q0 34 -23.5 57t-56.5 23q-32 0 -56 -23t-24 -57q0 -33 23.5 -56.5t56.5 -23.5zM787 835 q21 0 34.5 -14.5t13.5 -33.5q0 -20 -14.5 -34t-33.5 -14t-33.5 14.5t-14.5 33.5t14 33.5t34 14.5z" />
</svg>