<svg viewBox="0 0 256 256" xmlns="http://www.w3.org/2000/svg">
  <path transform="scale(1, -1) translate(0, -256)" fill="currentColor" d="M49 108q-18 0 -31 -13t-13 -31t13 -31t31 -13t31 13t13 31t-13 31t-31 13zM49 34q-12 0 -21 9t-9 21.5t9 21t21 8.5t21 -8.5t9 -21t-8.5 -21.5t-21.5 -9zM207 108q-18 0 -31 -12.5t-13 -31t13 -31.5t31 -13t31 13t13 31.5t-13 31t-31 12.5zM207 34q-12 0 -21 9t-9 21.5 t9 21t21.5 8.5t21 -8.5t8.5 -21t-8.5 -21.5t-21.5 -9zM189 136q2 -3 4.5 -3t5 1.5t3 4.5t-1.5 5l-35 45l-1 1q-2 2 -5.5 2.5t-6.5 -0.5l-48 -28q-5 -3 -5.5 -8t2.5 -8l16 -18q4 -5 4 -11v-28q0 -3 2 -5t5 -2t5.5 2t2.5 5v28q0 11 -8 20l-13 15l41 24zM197 190q9 0 16 6.5 t7 16t-7 16.5t-16.5 7t-16 -7t-6.5 -16.5t6.5 -16t16.5 -6.5zM197 222q3 0 6 -3t3 -6.5t-2.5 -6.5t-6.5 -3t-6.5 3t-2.5 6.5t2.5 6.5t6.5 3z" />
</svg>