<svg viewBox="0 0 256 256" xmlns="http://www.w3.org/2000/svg">
  <path transform="scale(1, -1) translate(0, -256)" fill="currentColor" d="M196 251h-136q-10 0 -18 -8t-8 -19v-193q0 -11 8 -18.5t18 -7.5h136q10 0 18 7.5t8 18.5v194q0 11 -8 18.5t-18 7.5zM48 31v194q0 5 3.5 8.5t8.5 3.5h19v-218h-19q-5 0 -8.5 3.5t-3.5 8.5zM208 31q0 -5 -3.5 -8.5t-8.5 -3.5h-103v218h103q5 0 8.5 -4t3.5 -9v-193z M172 162h-18v15q0 3 -2 5t-5 2t-5 -2t-2 -4v-16h-17q-3 0 -5 -2t-2 -5t2 -5t5 -2h17v-49q0 -3 2 -5t5 -2t5 2t2 5v49h18q3 0 5 2t2 5t-2 5t-5 2z" />
</svg>