<svg viewBox="0 0 256 256" xmlns="http://www.w3.org/2000/svg">
  <path transform="scale(1, -1) translate(0, -256)" fill="currentColor" d="M191 251h-126q-10 0 -17.5 -7t-7.5 -18v-196q0 -11 7.5 -18t17.5 -7h125q11 0 18 7t7 18v196q0 11 -7 18t-17 7zM55 30v196q0 5 3 8t8 3h13v-218h-13q-5 0 -8 3t-3 8zM201 30q0 -5 -3 -8t-8 -3h-97v218h98q4 0 7.5 -3t3.5 -8v-196h-1zM168 160h-15v13q0 3 -2 5t-5 2 t-5.5 -2t-2.5 -5v-13h-14q-3 0 -5 -2t-2 -5t2 -5t5 -2h15v-37q0 -3 2 -5t5 -2t5 2t2 5v37h15q3 0 5 2t2 5t-2.5 5t-4.5 2z" />
</svg>