<svg viewBox="0 0 1024 1024" xmlns="http://www.w3.org/2000/svg">
  <path transform="scale(1, -1) translate(0, -960)" fill="currentColor" d="M763 928h-502q-36 0 -61.5 -25t-25.5 -61v-788q0 -36 25.5 -61t61.5 -25h501q36 0 61 25t25 61v788q1 36 -24 61t-61 25v0zM206 54v788q0 22 16 38t39 16h65v-896h-65q-23 0 -39 16t-16 38v0zM818 54q0 -22 -16 -38t-39 -16h-405v896h404q22 0 38 -16t16 -38v-788h2z M670 565h-72v64q0 7 -4 11.5t-12 4.5q-7 0 -11.5 -4.5t-4.5 -11.5v-64h-70q-7 0 -11.5 -4.5t-4.5 -11.5t4.5 -11.5t11.5 -4.5h72v-159q0 -7 4.5 -11.5t11.5 -4.5t11.5 4.5t4.5 11.5v159h72q7 0 11.5 4.5t4.5 11.5t-6 11.5t-12 4.5z" />
</svg>