<svg viewBox="0 0 1024 1024" xmlns="http://www.w3.org/2000/svg">
  <path transform="scale(1, -1) translate(0, -960)" fill="currentColor" d="M898 773h-108v123h36q7 0 11.5 4.5t4.5 11.5t-4.5 11.5t-11.5 4.5h-104q-8 0 -12 -4.5t-4 -11.5t4 -11.5t12 -4.5h35v-123h-229v123h35q7 0 11.5 4.5t4.5 11.5t-4.5 11.5t-11.5 4.5h-104q-7 0 -11.5 -4.5t-4.5 -11.5t4.5 -11.5t11.5 -4.5h37v-123h-230v123h35 q7 0 11.5 4.5t4.5 11.5t-4.5 11.5t-11.5 4.5h-104q-7 0 -11.5 -4.5t-4.5 -11.5t4.5 -11.5t11.5 -4.5h35v-123h-106q-26 0 -45 -19t-19 -45v-477q0 -26 19 -45t45 -19h56v-184q0 -7 4.5 -11.5t11.5 -4.5q8 0 12 4.5t4 11.5v184h596v-184q0 -7 4 -11.5t12 -4.5q7 0 11.5 4.5 t4.5 11.5v184h56q26 0 45 19t19 45v477q0 26 -19 45t-45 19zM930 232q0 -13 -9.5 -22.5t-22.5 -9.5h-772q-13 0 -22.5 9.5t-9.5 22.5v477q0 13 9.5 22.5t22.5 9.5h770q13 0 22.5 -9.5t9.5 -22.5v-477h2z" />
</svg>