<svg viewBox="0 0 256 256" xmlns="http://www.w3.org/2000/svg">
  <path transform="scale(1, -1) translate(0, -256)" fill="currentColor" d="M224 212h-24v25h6q3 0 5.5 2t2.5 5t-2.5 5t-5.5 2h-26q-3 0 -5 -2t-2 -5t2 -5t5 -2h6v-25h-51v25h6q3 0 5 2t2 5t-2 5t-5 2h-26q-3 0 -5 -2t-2 -5t2 -5t5 -2h6v-25h-51v25h6q3 0 5 2t2 5t-2 5t-5 2h-26q-3 0 -5.5 -2t-2.5 -5t2.5 -5t5.5 -2h6v-25h-24q-8 0 -14 -5.5 t-6 -13.5v-119q0 -8 6 -14t14 -6h61v-36h-27q-3 0 -5 -2t-2 -5t2 -5t5 -2h123q3 0 5 2t2 5t-2 5t-5 2h-27v36h62q8 0 13.5 6t5.5 14v119q0 8 -5.5 13.5t-13.5 5.5zM149 19h-42v36h42v-36zM229 74q0 -2 -1.5 -3.5t-3.5 -1.5h-192q-2 0 -4 1.5t-2 3.5v119q0 2 2 3.5t4 1.5h192 q2 0 3.5 -1.5t1.5 -3.5v-119z" />
</svg>