<svg viewBox="0 0 256 256" xmlns="http://www.w3.org/2000/svg">
  <path transform="scale(1, -1) translate(0, -256)" fill="currentColor" d="M232 242h-208q-8 0 -13.5 -6t-5.5 -14v-135q0 -8 5.5 -13.5t13.5 -5.5h67v-47q0 -3 2 -5t5 -2t5.5 2t2.5 5v47h45v-46q0 -3 2 -5.5t5 -2.5t5.5 2.5t2.5 5.5v46h66q8 0 13.5 6t5.5 14v134q0 8 -5.5 14t-13.5 6zM237 87q0 -2 -1.5 -3.5t-3.5 -1.5h-208q-2 0 -3.5 1.5 t-1.5 3.5v135q0 3 1.5 4.5t3.5 1.5h33v-21h-11q-3 0 -5 -2t-2 -5t2 -5t5 -2h36q3 0 5.5 2t2.5 5t-2.5 5t-5.5 2h-11v21h50v-21h-11q-3 0 -5 -2t-2 -5t2 -5t5 -2h36q3 0 5.5 2t2.5 5t-2.5 5t-5.5 2h-11v21h50v-21h-11q-3 0 -5 -2t-2 -5t2 -5t5 -2h36q3 0 5.5 2t2.5 5t-2.5 5 t-5.5 2h-11v21h33q2 0 3.5 -2t1.5 -4v-135z" />
</svg>