<svg viewBox="0 0 256 256" xmlns="http://www.w3.org/2000/svg">
  <path transform="scale(1, -1) translate(0, -256)" fill="currentColor" d="M228 236h-200q-10 0 -16.5 -7t-6.5 -17v-90q0 -9 6.5 -16t16.5 -7h14v-72q0 -3 2.5 -5t5.5 -2t5 2t2 5v72h65v-72q0 -3 2 -5t5 -2t5 2t2 5v72h65v-72q0 -3 2 -5t5 -2t5 2t2 5v72h13q10 0 16.5 7t6.5 16v90q0 10 -6.5 17t-16.5 7zM237 122q0 -3 -2.5 -6t-6.5 -3h-200 q-4 0 -6.5 3t-2.5 6v90q0 4 2.5 7t6.5 3h200q4 0 6.5 -3t2.5 -7v-90zM100 202q-2 4 -6.5 4t-6.5 -4l-28 -58q-1 -2 -0.5 -5t3 -4t4 -1t3.5 1.5t3 2.5l21 44l22 -44q1 -2 4 -3t5.5 0t3 4t-0.5 5zM167 206h-14q-3 0 -5 -2t-2 -5v-58q0 -3 2 -5t5 -2h14q13 0 22 9t9 22v10 q0 13 -9.5 22t-21.5 9zM184 165q0 -7 -5 -12t-13 -5h-6v44h7q7 0 12 -5t5 -12v-10z" />
</svg>