<svg viewBox="0 0 1024 1024" xmlns="http://www.w3.org/2000/svg">
  <path transform="scale(1, -1) translate(0, -960)" fill="currentColor" d="M402 424h72q7 0 11.5 4.5t4.5 11.5t-4.5 11.5t-11.5 4.5h-29v18q0 7 -4.5 11.5t-11.5 4.5t-11.5 -4.5t-4.5 -11.5v-18h-11q-23 0 -39 -16t-16 -38q0 -23 16 -39t39 -16h33q10 0 16.5 -6.5t6.5 -15.5q0 -10 -6.5 -16.5t-16.5 -6.5h-72q-7 0 -11.5 -4t-4.5 -12 q0 -7 4.5 -11.5t11.5 -4.5h50v-17q0 -7 4.5 -11.5t11.5 -4.5t11.5 4.5t4.5 11.5v19q19 4 32 19t13 34q0 23 -16 38.5t-39 15.5h-33q-10 0 -16.5 6.5t-6.5 16.5q0 9 6.5 15.5t16.5 6.5v0zM920 784h-627q-30 0 -51 -21t-21 -51v-98h-125q-26 0 -45 -18.5t-19 -45.5v-374 q0 -26 19 -45t45 -19h643q27 0 45.5 19t18.5 45v106h115q30 0 51 21t21 51v358q2 30 -19 51t-51 21v0zM771 176q0 -13 -9.5 -22.5t-22.5 -9.5h-643q-13 0 -22.5 9.5t-9.5 22.5v374q0 14 9.5 23t22.5 9h643q13 0 22.5 -9t9.5 -23v-374zM960 354q0 -17 -11.5 -28.5 t-28.5 -11.5h-115v236q0 27 -19 45.5t-45 18.5h-488v98q0 17 11.5 28.5t28.5 11.5h627q17 0 28.5 -11.5t11.5 -28.5v-358zM237 378h-55q-7 0 -11.5 -4.5t-4.5 -11.5q0 -8 4.5 -12t11.5 -4h55q7 0 11.5 4t4.5 12q0 7 -5 11.5t-11 4.5zM669 378h-55q-7 0 -11.5 -4.5 t-4.5 -11.5q0 -8 4.5 -12t11.5 -4h55q7 0 11.5 4t4.5 12q0 7 -5 11.5t-11 4.5z" />
</svg>