<svg viewBox="0 0 256 256" xmlns="http://www.w3.org/2000/svg">
  <path transform="scale(1, -1) translate(0, -256)" fill="currentColor" d="M220 233h-121q-10 0 -16.5 -6.5t-6.5 -16.5v-10h-49v44q0 3 -2 5t-5 2t-5 -2t-2 -5v-232q0 -3 2 -5t5 -2t5 2t2 5v44h49v-10q0 -10 7 -17t16 -7h122q9 0 16 7t7 17v164q-1 10 -7.5 16.5t-16.5 6.5zM27 70v116h49v-116h-49zM229 46q0 -4 -2.5 -7t-6.5 -3h-121q-4 0 -6.5 3 t-2.5 7v164q0 4 2.5 7t6.5 3h121q4 0 7 -3t3 -7v-164h-1zM168 203q-2 4 -6.5 4t-6.5 -4l-28 -57q-1 -3 0 -5.5t3.5 -3.5t5 -0.5t4.5 3.5l21 44l22 -44q2 -4 6 -4l3 1q3 1 4 4t0 5zM156 122h-13q-3 0 -5 -2t-2 -5v-59q0 -3 2 -5t5 -2h13q13 0 22.5 9.5t9.5 22.5v9 q0 14 -9.5 23t-22.5 9zM174 81q0 -7 -5.5 -12t-12.5 -5h-6v44h6q7 0 12.5 -5t5.5 -13v-9z" />
</svg>