<svg viewBox="0 0 256 256" xmlns="http://www.w3.org/2000/svg">
  <path transform="scale(1, -1) translate(0, -256)" fill="currentColor" d="M100 119h18q3 0 5.5 2t2.5 5t-2.5 5.5t-5.5 2.5h-4v1q0 3 -2 5t-5 2t-5 -2t-2 -5v-1q-7 0 -11.5 -5t-4.5 -12t4.5 -11.5t11.5 -4.5h9q1 0 2 -1t1 -2t-1 -1.5t-2 -0.5h-18q-3 0 -5 -2t-2 -5t2 -5t5 -2h9v-2q0 -3 2.5 -5t5.5 -2t5 2t2 5v3q5 2 8 6t3 10t-5 11t-12 5h-8 q-1 0 -2 0.5t-1 1.5t0.5 1.5t1.5 0.5zM230 215h-157q-9 0 -15 -6.5t-6 -14.5v-22h-28q-8 0 -13.5 -5.5t-5.5 -13.5v-93q0 -8 5.5 -13.5t13.5 -5.5h161q8 0 13.5 5.5t5.5 13.5v23h26q9 0 15 6.5t6 14.5v90q0 9 -6 15t-15 6zM190 60q0 -2 -1.5 -3.5t-3.5 -1.5h-161 q-2 0 -3.5 1.5t-1.5 3.5v94q0 2 1.5 3.5t3.5 1.5h161q2 0 3.5 -1.5t1.5 -3.5v-94zM237 104q0 -3 -2 -5t-5 -2h-26v57q0 7 -5.5 13t-13.5 6h-119v21q0 3 2 5t5 2h157q3 0 5 -2t2 -5v-90zM59 114h-13q-3 0 -5.5 -2.5t-2.5 -5.5t2.5 -5t5.5 -2h13q3 0 5 2t2 5t-2 5.5t-5 2.5z M167 114h-13q-3 0 -5.5 -2.5t-2.5 -5.5t2.5 -5t5.5 -2h13q3 0 5 2t2 5t-2 5.5t-5 2.5z" />
</svg>