<svg viewBox="0 0 1024 1024" xmlns="http://www.w3.org/2000/svg">
  <path transform="scale(1, -1) translate(0, -960)" fill="currentColor" d="M432 454h78q8 0 12 4.5t4 11.5q0 8 -4 12t-12 4h-32v20q0 7 -4 11.5t-12 4.5q-7 0 -11.5 -4.5t-4.5 -11.5v-20h-14q-24 0 -41 -16.5t-17 -40.5t17 -41t41 -17h37q11 0 18 -7.5t7 -17.5q0 -11 -7 -18.5t-18 -7.5h-79q-7 0 -11.5 -4.5t-4.5 -11.5t4.5 -11.5t11.5 -4.5h56 v-19q0 -7 4.5 -11.5t11.5 -4.5q8 0 12 4.5t4 11.5v19q21 4 34.5 20t13.5 36q0 24 -16.5 41t-40.5 17h-37q-11 0 -18.5 7t-7.5 18t7.5 19t18.5 8v0zM805 659h-709q-26 0 -45 -18.5t-19 -45.5v-416q0 -26 19 -45t45 -19h709q26 0 45 19t19 45v416q0 27 -19 45.5t-45 18.5z M837 179q0 -13 -9.5 -22.5t-22.5 -9.5h-709q-13 0 -22.5 9.5t-9.5 22.5v416q0 13 9.5 22.5t22.5 9.5h709q13 0 22.5 -9.5t9.5 -22.5v-416zM915 781h-683q-7 0 -11.5 -4.5t-4.5 -11.5t4.5 -11.5t11.5 -4.5h683q19 0 32 -13.5t13 -31.5v-389q0 -7 4.5 -11.5t11.5 -4.5 t11.5 4.5t4.5 11.5v389q0 32 -23 54.5t-54 22.5v0zM253 400h-59q-8 0 -12 -4.5t-4 -11.5t4 -11.5t12 -4.5h59q7 0 11.5 4.5t4.5 11.5t-5 11.5t-11 4.5zM723 400h-59q-7 0 -11.5 -4.5t-4.5 -11.5t4.5 -11.5t11.5 -4.5h59q7 0 11.5 4.5t4.5 11.5t-4.5 11.5t-11.5 4.5z" />
</svg>