<svg viewBox="0 0 256 256" xmlns="http://www.w3.org/2000/svg">
  <path transform="scale(1, -1) translate(0, -256)" fill="currentColor" d="M221 221h-63v23q0 3 -2 5t-5 2h-37q-2 0 -4 -2t-2 -5v-23h-73q-8 0 -13.5 -5.5t-5.5 -13.5v-109q0 -8 5.5 -13.5t13.5 -5.5h73v-62q0 -3 2 -5t5 -2h37q3 0 5 2t2 5v62h63q7 0 13 6t6 14v108q-1 8 -6.5 13.5t-13.5 5.5zM122 237h23v-16h-23v16zM144 19h-22v55h22v-55z M226 94q0 -2 -1.5 -4t-3.5 -2h-186q-2 0 -3.5 1.5t-1.5 4.5v108q0 2 1.5 3.5t3.5 1.5h186q2 0 3.5 -1.5t1.5 -3.5v-108zM121 151l-31 24q-2 2 -4.5 2t-4.5 -2l-31 -24q-2 -2 -2.5 -4.5t1.5 -5t4.5 -3t5.5 1.5l3 2v-18q0 -3 2 -5t5 -2h35q3 0 5 2t2 5v18l3 -2q2 -1 4.5 -1 t4 2.5t1 5.5t-2.5 4zM96 131h-21v22l10 8l11 -8v-22zM148 171h31q3 0 5 2t2 5t-2 5t-5 2h-31q-3 0 -5 -2t-2 -5t2 -5t5 -2zM195 154h-47q-3 0 -5 -2.5t-2 -5.5t2 -5t5 -2h47q3 0 5 2t2 5t-2 5.5t-5 2.5zM179 122h-31q-3 0 -5 -2t-2 -5t2 -5t5 -2h31q3 0 5 2t2 5t-2 5t-5 2z " />
</svg>