<svg viewBox="0 0 1024 1024" xmlns="http://www.w3.org/2000/svg">
  <path transform="scale(1, -1) translate(0, -960)" fill="currentColor" d="M882 858h-487q-33 0 -56.5 -23.5t-23.5 -56.5v-55h-221v189q0 7 -4 11.5t-12 4.5q-7 0 -11.5 -4.5t-4.5 -11.5v-928q0 -7 4.5 -11.5t11.5 -4.5q8 0 12 4.5t4 11.5v189h221v-55q0 -33 23.5 -56.5t56.5 -23.5h487q33 0 56.5 23.5t23.5 56.5v660q0 32 -24 56t-56 24zM94 205 v486h221v-486h-221v0zM930 118q0 -20 -14 -34t-34 -14h-487q-20 0 -34 14t-14 34v660q0 20 14 34t34 14h487q20 0 34 -14t14 -34v-660zM661 742q-4 9 -14.5 9t-14.5 -9l-112 -228q-2 -6 0 -12.5t8 -8.5q6 -3 12 -0.5t9 8.5l97 198l98 -198q2 -5 6 -7.5t8 -2.5q2 0 4 0.5 t3 1.5q6 2 8 8.5t0 12.5l-112 228v0zM626 413h-55q-7 0 -11.5 -4.5t-4.5 -11.5v-234q0 -7 4.5 -11.5t11.5 -4.5h55q46 0 79.5 33.5t33.5 80.5v38q0 47 -33.5 80.5t-79.5 33.5zM707 261q0 -34 -24 -58t-57 -24h-39v202h39q33 0 57 -24t24 -58v-38z" />
</svg>