<svg viewBox="0 0 1024 1024" xmlns="http://www.w3.org/2000/svg">
  <path transform="scale(1, -1) translate(0, -960)" fill="currentColor" d="M928 890h-832q-26 0 -45 -19t-19 -45v-541q0 -27 19 -45.5t45 -18.5h282v-199q0 -7 4 -11.5t12 -4.5q7 0 11.5 4.5t4.5 11.5v199h206v-199q0 -7 4.5 -11.5t11.5 -4.5t11.5 4.5t4.5 11.5v199h280q26 0 45 18.5t19 45.5v541q0 26 -19 45t-45 19zM960 285q0 -13 -9.5 -22.5 t-22.5 -9.5h-832q-13 0 -22.5 9.5t-9.5 22.5v541q0 13 9.5 22.5t22.5 9.5h144v-106h-56q-7 0 -11.5 -4.5t-4.5 -11.5t4.5 -11.5t11.5 -4.5h146q7 0 11.5 4.5t4.5 11.5t-4.5 11.5t-11.5 4.5h-58v106h224v-106h-56q-7 0 -11.5 -4.5t-4.5 -11.5t4.5 -11.5t11.5 -4.5h146 q7 0 11.5 4.5t4.5 11.5t-4.5 11.5t-11.5 4.5h-58v106h224v-106h-56q-7 0 -11.5 -4.5t-4.5 -11.5t4.5 -11.5t11.5 -4.5h146q7 0 11.5 4.5t4.5 11.5t-4.5 11.5t-11.5 4.5h-58v106h144q13 0 22.5 -9.5t9.5 -22.5v-541z" />
</svg>