<svg viewBox="0 0 1024 1024" xmlns="http://www.w3.org/2000/svg">
  <path transform="scale(1, -1) translate(0, -960)" fill="currentColor" d="M883 808h-281v104q0 7 -4.5 11.5t-11.5 4.5h-148q-7 0 -11.5 -4.5t-4.5 -11.5v-104h-281q-27 0 -45.5 -19t-18.5 -45v-435q0 -27 18.5 -45.5t45.5 -18.5h281v-261q0 -7 4.5 -11.5t11.5 -4.5h148q7 0 11.5 4.5t4.5 11.5v262h281q27 0 45.5 19t18.5 45v434q0 26 -18.5 45 t-45.5 19zM454 896h116v-88h-116v88v0zM570 0h-116v246h116v-246zM915 310q0 -13 -9.5 -22.5t-22.5 -9.5h-742q-13 0 -22.5 9.5t-9.5 22.5v434q0 13 9.5 22.5t22.5 9.5h742q13 0 22.5 -9.5t9.5 -22.5v-434zM350 629q-4 3 -9.5 3t-9.5 -3l-125 -96q-4 -4 -5 -11t2 -12 q4 -4 11 -5t12 2l30 24v-99q0 -7 4.5 -11.5t11.5 -4.5h139q7 0 11.5 4.5t4.5 11.5v98l31 -24q2 -2 4.5 -3t4.5 -1q4 0 7.5 1.5t5.5 5.5q4 5 3.5 12t-6.5 10zM395 550v-102h-107v101v2v1l54 42l55 -42h-1.5t-0.5 -2v0zM592 632h125q7 0 11.5 4.5t4.5 11.5t-4.5 11.5 t-11.5 4.5h-125q-7 0 -11.5 -4.5t-4.5 -11.5t5 -11.5t11 -4.5zM779 538h-187q-7 0 -11.5 -4.5t-4.5 -11.5q0 -8 4.5 -12t11.5 -4h187q7 0 11.5 4t4.5 12q0 7 -4.5 11.5t-11.5 4.5zM717 413h-125q-7 0 -11.5 -4.5t-4.5 -11.5t4.5 -11.5t11.5 -4.5h125q7 0 11.5 4.5t4.5 11.5 t-5 11.5t-11 4.5z" />
</svg>