<svg viewBox="0 0 1024 1024" xmlns="http://www.w3.org/2000/svg">
  <path transform="scale(1, -1) translate(0, -960)" fill="currentColor" d="M954 58l-199 358v0v0v0v0l-184 331q18 13 30 34.5t12 45.5q0 42 -29.5 71.5t-71.5 29.5t-71.5 -29.5t-29.5 -71.5q0 -25 11.5 -46t30.5 -34l-383 -689q-7 -15 -7 -30.5t7 -29.5q8 -13 22 -21.5t31 -8.5h75v0v0v0v0h703q15 0 29 8t22 21q8 14 9 30t-7 31v0zM320 442 l317 121l80 -144l-523 -206l126 229v0zM512 896q29 0 49 -20t20 -49t-20 -49t-49 -20t-49 20t-20 49t20 49t49 20v0zM512 728q8 0 15.5 1t14.5 4l79 -141l-277 -106l138 248q7 -3 14.5 -4.5t15.5 -1.5v0zM99 14q-3 6 -3 14t3 14l71 128l563 220l77 -137l-615 -253h-72 q-8 0 -14 3.5t-10 10.5v0zM925 14q-4 -7 -10 -10.5t-14 -3.5h-621l544 224l101 -182q5 -8 5 -15t-5 -13z" />
</svg>