<svg viewBox="0 0 256 256" xmlns="http://www.w3.org/2000/svg">
  <path transform="scale(1, -1) translate(0, -256)" fill="currentColor" d="M241 32l-50 90l-45 80q10 9 10 20.5t-8.5 20t-19.5 8.5t-19.5 -8.5t-8.5 -20.5t10 -20l-95 -170q-5 -9 0 -18q3 -4 7 -6.5t9 -2.5h194q5 0 9 2.5t7 6.5q5 9 0 18zM82 124l76 29l17 -31l-120 -46zM128 237q6 0 10 -4t4 -9t-2 -8.5t-6 -5.5t-6 -2q-6 0 -10 4.5t-4 10t4 10 t10 4.5zM128 195q2 0 6 1l17 -31l-58 -22l29 53q3 -1 6 -1zM27 21q-1 1 0 4l17 31l138 54l16 -29l-150 -62h-17q-2 0 -4 2v0zM229 21l-1 -1t-3 -1h-140l120 49l24 -43q1 -2 0 -4z" />
</svg>