<svg viewBox="0 0 1024 1024" xmlns="http://www.w3.org/2000/svg">
  <path transform="scale(1, -1) translate(0, -960)" fill="currentColor" d="M349 766q0 -33 52 -48.5t111 -15.5t111 16t52 48q0 34 -52 49t-111 15t-111 -15t-52 -49zM643 766q0 -6 -33 -19t-98 -13t-98 13t-33 19t33 19t98 13t98 -13t33 -19zM512 590q-36 0 -61 -25t-25 -63q0 -36 25 -62t61 -26t61 25.5t25 62.5q0 36 -25 62t-61 26zM512 448 q-23 0 -38.5 16t-15.5 40q0 23 15.5 39.5t38.5 16.5t38.5 -16t15.5 -40t-15.5 -40t-38.5 -16zM832 890q-31 13 -71 23t-83 17t-86 10q-43 4 -80 4t-80 -4q-43 -3 -86 -10t-83 -17t-71 -23q-8 -4 -12 -11.5t-4 -14.5l43 -446q1 -6 4.5 -11.5t8.5 -8.5q10 -5 40 -18 q29 -14 68.5 -28t84.5 -24q45 -11 85 -11q87 0 162 22.5t122 62.5q3 3 5.5 7t2.5 9l46 446q0 8 -4 15t-12 11v0zM773 422q-42 -34 -112 -54.5t-149 -20.5q-37 0 -77 10q-41 10 -77.5 22.5t-65.5 25.5q-28 13 -41 19l-41 438q29 12 67 22q38 9 78.5 15t81.5 10q40 3 75 3 t75 -3q41 -4 81.5 -10t78.5 -15q38 -10 67 -22l-41 -440v0zM776 290q-5 3 -11.5 4t-12.5 -1l-3 -2q-35 -15 -100 -38.5t-135 -22.5q-78 2 -143.5 25t-96.5 38q-6 2 -13 1.5t-11 -4.5q-6 -4 -8.5 -10.5t-1.5 -13.5l27 -242q1 -7 5 -13.5t11 -10.5q47 -24 106.5 -37t124.5 -13 q64 0 123.5 13t106.5 37q7 4 11 10t5 14l27 242q0 7 -2.5 13.5t-8.5 10.5v0zM726 29q-43 -22 -98.5 -33.5t-115.5 -11.5t-115.5 11.5t-98.5 33.5l-28 229q35 -16 100 -37t140 -23q72 -1 138 21t104 39z" />
</svg>