<svg viewBox="0 0 256 256" xmlns="http://www.w3.org/2000/svg">
  <path transform="scale(1, -1) translate(0, -256)" fill="currentColor" d="M84 208q0 -10 13 -15t31 -5t31 5t13 14.5t-13 14.5t-31 5t-31 -5t-13 -14zM128 202q-10 0 -17.5 2t-10.5 4q8 5 28 5q10 0 17.5 -1.5t10.5 -3.5q-3 -2 -10.5 -4t-17.5 -2zM128 166q-10 0 -17.5 -7t-7.5 -17.5t7.5 -17.5t17.5 -7t17.5 7t7.5 17.5t-7.5 17.5t-17.5 7z M128 131q-4 0 -7.5 3t-3.5 7.5t3 7.5t8 3t8 -3t3 -7.5t-3 -7.5t-8 -3zM209 241q-14 7 -39 10q-22 4 -42 4t-42 -4q-24 -4 -39 -10q-3 -1 -4.5 -4t-1.5 -6l11 -111q1 -5 5 -7q13 -7 28 -12q25 -9 43 -9q22 0 41.5 5.5t31.5 16.5q2 2 3 6l11 111q0 4 -1.5 6.5t-4.5 3.5z M190 123q-10 -8 -26.5 -12.5t-35.5 -4.5q-15 0 -36 7q-15 6 -26 11l-10 106q13 4 33.5 7.5t39 3.5t39 -3.5t32.5 -8.5zM196 91q-5 3 -10 1l-1 -1q-15 -6 -25 -9q-18 -6 -32 -6q-25 1 -59 16v0q-4 2 -8.5 -1t-4.5 -9l7 -60q1 -6 6 -8q25 -13 59 -13t58 13q5 2 6 8l7 60 q2 5 -3 9zM179 25q-22 -10 -51 -10t-51 10l-6 51q32 -13 57 -13.5t56 13.5z" />
</svg>