<svg viewBox="0 0 1024 1024" xmlns="http://www.w3.org/2000/svg">
  <path transform="scale(1, -1) translate(0, -960)" fill="currentColor" d="M976 218h-67v436q0 45 -31.5 75.5t-74.5 30.5h-110q-11 38 -44 64t-76 26h-32v17q0 7 -4.5 11.5t-11.5 4.5t-11.5 -4.5t-4.5 -11.5v-17h-39v17q0 7 -4 11.5t-12 4.5q-7 0 -11.5 -4.5t-4.5 -11.5v-17h-94q-7 0 -11.5 -4.5t-4.5 -11.5q0 -8 4.5 -12t11.5 -4h18v-58h-141 q-45 0 -75.5 -31t-30.5 -75v-435h-67q-7 0 -11.5 -4.5t-4.5 -11.5v-70q0 -49 34.5 -84t83.5 -35h724q49 0 83.5 35t34.5 84v70q0 6 -4.5 10.5t-11.5 4.5v0zM664 734v-2.5v-3.5q-1 -32 -25.5 -54.5t-57.5 -22.5h-187v93v0v0v0v0v74h179q36 0 63 -24.5t28 -59.5zM581 619 q33 0 57.5 -22t25.5 -53v-3v-3v0q-1 -35 -28 -60t-63 -25h-179v166h187zM147 654q0 30 22 52t52 22h141v-275h-18q-7 0 -11.5 -4.5t-4.5 -11.5t4.5 -11.5t11.5 -4.5h94v-21q0 -7 4.5 -11.5t11.5 -4.5q8 0 12 4.5t4 11.5v19h39v-19q0 -7 4.5 -11.5t11.5 -4.5t11.5 4.5 t4.5 11.5v19h30q49 0 85.5 33.5t37.5 81.5v5.5v4.5q-1 29 -16.5 53t-39.5 38q26 15 41 39t15 54v1v1h108q30 0 51.5 -22t21.5 -52v-435h-728v433v0zM960 131q0 -36 -25 -61t-61 -25h-724q-36 0 -61 25t-25 61v55h66v0v0h761v0v0h69v-55z" />
</svg>