<svg viewBox="0 0 256 256" xmlns="http://www.w3.org/2000/svg">
  <path transform="scale(1, -1) translate(0, -256)" fill="currentColor" d="M166 146q0 10 -6.5 16.5t-15.5 8.5v4q0 3 -2 5t-5 2t-5 -2t-2 -5v-4h-10v4q0 3 -2 5t-5 2t-5 -2t-2 -5v-4h-10q-3 0 -5 -2t-2 -5t2 -5t5 -2h2v-58h-2q-3 0 -5 -2t-2 -5t2 -5t5 -2h10v-4q0 -3 2 -5t5 -2t5 2t2 5v4h10v-4q0 -3 2 -5t5 -2t5 2t2 5v4q10 2 16.5 8.5t6.5 16.5 v2q-1 9 -8 16q7 7 8 16zM152 146v-1q0 -4 -3 -7t-7 -3h-30v22h28q5 0 8.5 -3.5t3.5 -7.5zM152 110q0 -4 -4 -7.5t-8 -3.5h-28v22h29q4 0 7.5 -3t3.5 -7q1 0 0 -1zM244 121q3 0 5 2t2 5t-2 5t-5 2h-30v37h30q3 0 5 2t2 5t-2 5t-5 2h-30v10q0 7 -5.5 13t-13.5 6h-9v29 q0 3 -2 5t-5 2t-5 -2t-2 -5v-30h-37v30q0 3 -2 5t-5 2t-5 -2t-2 -5v-30h-37v30q0 3 -2 5t-5 2t-5 -2t-2 -5v-30h-10q-7 0 -13 -5.5t-6 -13.5v-9h-29q-3 0 -5 -2t-2 -5t2 -5t5 -2h30v-37h-30q-3 0 -5 -2t-2 -5t2 -5t5 -2h30v-37h-30q-3 0 -5 -2.5t-2 -5.5t2 -4.5t5 -1.5h30 v-10q0 -7 5.5 -13t13.5 -6h9v-29q0 -3 2 -5t5 -2t5 2t2 5v30h38v-30q0 -3 2 -5t5 -2t5 2t2 5v30h37v-30q0 -3 2 -5t5 -2t5.5 2t2.5 5v30h9q8 0 13.5 5.5t5.5 13.5v9h28q3 0 5 2t2 5t-2 5t-5 2h-30v37h30zM200 60q0 -2 -1.5 -3.5t-3.5 -1.5h-135q-2 0 -3.5 1.5t-1.5 3.5v136 q0 2 1.5 3.5t3.5 1.5h135q2 0 3.5 -1.5t1.5 -3.5v-136z" />
</svg>