<svg viewBox="0 0 256 256" xmlns="http://www.w3.org/2000/svg">
  <path transform="scale(1, -1) translate(0, -256)" fill="currentColor" d="M244 74h-14v106q0 12 -8.5 20.5t-20.5 8.5h-26q-3 10 -12 16.5t-20 6.5h-5v1q0 3 -2 5t-5 2t-5 -2t-2 -5v-1h-4v1q0 3 -2 5t-5 2t-5 -2t-2 -5v-1h-21q-3 0 -5 -2.5t-2 -5.5t2 -5t5 -2h1v-8h-32q-12 0 -21 -9t-9 -21v-106h-12q-3 0 -5 -2t-2 -5v-18q0 -13 9.5 -22.5 t23.5 -9.5h180q14 0 23.5 9.5t9.5 22.5v18q0 3 -2 5.5t-5 2.5zM145 168q7 0 12.5 -5t5.5 -11v-2q-1 -8 -6.5 -13t-13.5 -5h-41v36h43zM163 199v-1q0 -7 -5.5 -11.5t-12.5 -4.5h-43v36h41q8 0 14 -5.5t6 -13.5zM40 180q0 6 4.5 10.5t10.5 4.5h33v-63h-2q-3 0 -5 -2t-2 -5 t2 -5t5 -2h21v-2q0 -3 2 -5t5 -2t5.5 2t2.5 5v2h3v-2q0 -3 2 -5t5 -2t5.5 2t2.5 5v2h4q14 0 24 9.5t10 22.5v2q0 14 -11 22q5 4 8 9.5t3 11.5h24q7 0 11.5 -4.5t4.5 -11.5v-106h-178v107zM237 49q0 -8 -5.5 -13.5t-13.5 -5.5h-180q-8 0 -13.5 5.5t-5.5 13.5v11h218v-11z" />
</svg>