<svg viewBox="0 0 256 256" xmlns="http://www.w3.org/2000/svg">
  <path transform="scale(1, -1) translate(0, -256)" fill="currentColor" d="M128 251q-24 0 -44 -12t-32 -31.5t-12 -43.5q0 -20 8.5 -37.5t24.5 -30.5q1 -2 4.5 -2t5.5 3t1.5 5.5t-2.5 4.5q-13 11 -20.5 26t-7.5 31q0 20 10 36.5t27 26.5t37 10t37 -10t27 -26.5t10 -36.5q0 -3 2 -5t5 -2t5 2t2 5q0 24 -12 43.5t-32 31.5t-44 12zM198 95h-40 q-3 0 -5.5 -2t-2.5 -5t2.5 -5t5.5 -2h22l-45 -31q-2 -1 -4 -1h-48q-10 0 -15 -7l-26 -26q-2 -2 -2 -5t2 -5t5 -2t5 2l26 26q2 2 4 2h49q7 0 12 4l47 33v-23q0 -3 2.5 -5t5.5 -2t5 2t2 5v40q0 3 -2 5t-5 2zM104 134h-1q-3 0 -5 -2t-2 -5t2 -5t5 -2h9v-4q0 -3 2 -5t5 -2t5 2 t2 5v4h9v-4q0 -3 2 -5t5 -2t5.5 2t2.5 5v4q8 2 14.5 8.5t6.5 15.5v2q-1 9 -7 16q7 6 7 15v2q0 9 -6 15.5t-15 7.5v4q0 3 -2 5t-5 2t-5 -2t-2 -5v-3h-9v3q0 3 -2 5t-5 2t-5.5 -2.5t-2.5 -4.5v-4h-8q-3 0 -5.5 -2t-2.5 -5t2.5 -5t5.5 -2v0v-54zM156 144q0 -4 -3.5 -7t-8.5 -3 h-26v20h28q4 0 7 -2.5t3 -6.5v-1zM156 178v-1q0 -4 -3 -6.5t-7 -2.5h-28v20h26q5 0 8.5 -3t3.5 -7z" />
</svg>