<svg viewBox="0 0 1024 1024" xmlns="http://www.w3.org/2000/svg">
  <path transform="scale(1, -1) translate(0, -960)" fill="currentColor" d="M736 450q59 22 97 73.5t41 116.5v8v8q-2 46 -21 86t-51.5 70t-74.5 47q-43 18 -90 18h-82v51q0 7 -4.5 11.5t-11.5 4.5t-11.5 -4.5t-4.5 -11.5v-53h-112v53q0 7 -4.5 11.5t-11.5 4.5t-11.5 -4.5t-4.5 -11.5v-53h-211q-7 0 -11.5 -4.5t-4.5 -11.5t4.5 -11.5t11.5 -4.5h53 v-785h-53q-7 0 -11.5 -4.5t-4.5 -11.5q0 -8 4.5 -12t11.5 -4h211v-58q0 -7 4.5 -11.5t11.5 -4.5t11.5 4.5t4.5 11.5v56h112v-56q0 -7 4.5 -11.5t11.5 -4.5t11.5 4.5t4.5 11.5v56h80q48 0 90 17q43 18 75 48t51 70q20 40 21 86v9v8q-2 63 -40 114t-96 74v0zM251 843h384 q42 0 78 -15q37 -15 65 -40.5t44 -59.5q17 -35 18 -74v-6.5v-5.5q-2 -72 -57.5 -123.5t-131.5 -51.5h-400v376v0zM840 246v0q-1 -39 -18 -73t-45 -60t-64 -41q-37 -14 -78 -14h-384v376h400q76 0 130.5 -50.5t56.5 -122.5q2 -4 2 -7.5v-7.5v0z" />
</svg>