<svg viewBox="0 0 256 256" xmlns="http://www.w3.org/2000/svg">
  <path transform="scale(1, -1) translate(0, -256)" fill="currentColor" d="M168 123v2q0 10 -7 17.5t-18 8.5v4q0 3 -2 5t-5 2t-5 -2t-2 -5v-3h-11v3q0 3 -2 5t-5 2t-5 -2t-2 -5v-4h-10q-3 0 -5 -2t-2 -5t2 -5t5 -2v-65q-3 0 -5 -2t-2 -5t2 -5t5 -2h10v-4q0 -3 2 -5t5 -2t5 2t2 5v4h11v-4q0 -3 2 -5t5 -2t5.5 2t2.5 5v4q10 2 17.5 9.5t7.5 17.5v2 q-1 10 -9 18q8 7 8 18zM154 124v-1q0 -5 -3.5 -8t-8.5 -3h-34v25h32q6 0 10 -4t4 -9zM142 98q5 0 8.5 -3.5t3.5 -8.5v-1q0 -5 -4 -9t-10 -4h-32v26h34zM232 237h-208q-8 0 -13.5 -5.5t-5.5 -13.5v-180q0 -8 5.5 -13.5t13.5 -5.5h208q8 0 13.5 5.5t5.5 13.5v180 q0 8 -5.5 13.5t-13.5 5.5zM24 223h208q2 0 3.5 -1.5t1.5 -3.5v-30h-218v30q0 2 1.5 3.5t3.5 1.5zM232 33h-208q-2 0 -3.5 1.5t-1.5 3.5v136h218v-136q0 -2 -1.5 -3.5t-3.5 -1.5z" />
</svg>