<svg viewBox="0 0 1024 1024" xmlns="http://www.w3.org/2000/svg">
  <path transform="scale(1, -1) translate(0, -960)" fill="currentColor" d="M653 515v3v4q-1 34 -27.5 59.5t-62.5 26.5v27q0 7 -4.5 11.5t-11.5 4.5t-11.5 -4.5t-4.5 -11.5v-27h-64v27q0 7 -4.5 11.5t-11.5 4.5t-11.5 -4.5t-4.5 -11.5v-27h-49q-8 0 -12 -4.5t-4 -11.5t4 -11.5t12 -4.5h16v-254h-16q-8 0 -12 -4.5t-4 -11.5q0 -8 4 -12t12 -4h49 v-28q0 -7 4.5 -11.5t11.5 -4.5t11.5 4.5t4.5 11.5v28h64v-28q0 -7 4.5 -11.5t11.5 -4.5t11.5 4.5t4.5 11.5v29q36 1 62.5 26.5t27.5 60.5v3v3q-1 20 -11 37t-26 29q17 10 27 27.5t10 37.5v0zM565 432q21 0 38 -14.5t18 -35.5v-2v-2v0v0q-1 -23 -19 -39.5t-42 -16.5h-123v110 h128zM621 515q-1 -21 -17 -36t-39 -15h-130v112h125q25 0 43 -16.5t18 -39.5v-2.5v-2.5v0zM976 432q7 0 11.5 4.5t4.5 11.5t-4.5 11.5t-11.5 4.5h-130v173h130q7 0 11.5 4.5t4.5 11.5t-4.5 11.5t-11.5 4.5h-130v48q0 26 -18.5 45t-45.5 19h-48v131q0 7 -4 11.5t-12 4.5 q-7 0 -11.5 -4.5t-4.5 -11.5v-130h-174v130q0 7 -4.5 11.5t-11.5 4.5t-11.5 -4.5t-4.5 -11.5v-130h-173v130q0 7 -4.5 11.5t-11.5 4.5t-11.5 -4.5t-4.5 -11.5v-130h-48q-26 0 -45 -18.5t-19 -45.5v-48h-131q-7 0 -11.5 -4t-4.5 -12q0 -7 4.5 -11.5t11.5 -4.5h130v-174h-130 q-7 0 -11.5 -4.5t-4.5 -11.5t4.5 -11.5t11.5 -4.5h130v-173h-130q-7 0 -11.5 -4.5t-4.5 -11.5t4.5 -11.5t11.5 -4.5h130v-48q0 -26 18.5 -45t45.5 -19h48v-131q0 -7 4 -11.5t12 -4.5q7 0 11.5 4.5t4.5 11.5v130h174v-130q0 -7 4.5 -11.5t11.5 -4.5t11.5 4.5t4.5 11.5v130 h173v-130q0 -7 4.5 -11.5t11.5 -4.5t11.5 4.5t4.5 11.5v130h48q26 0 45 18.5t19 45.5v48h131q7 0 11.5 4t4.5 12q0 7 -4.5 11.5t-11.5 4.5h-130v174h130zM814 178q0 -14 -9 -23t-23 -9h-540q-14 0 -23 9t-9 23v540q0 14 9 23t23 9h539q13 0 22.5 -9t9.5 -23v-540h1z" />
</svg>