<svg viewBox="0 0 1024 1024" xmlns="http://www.w3.org/2000/svg">
  <path transform="scale(1, -1) translate(0, -960)" fill="currentColor" d="M661 427v3v4q-1 39 -30.5 66.5t-70.5 27.5v27q0 7 -4.5 11.5t-11.5 4.5t-11.5 -4.5t-4.5 -11.5v-27h-67v27q0 7 -4.5 11.5t-11.5 4.5t-11.5 -4.5t-4.5 -11.5v-27h-51q-8 0 -12 -4.5t-4 -11.5t4 -11.5t12 -4.5h11v-285h-11q-8 0 -12 -4.5t-4 -11.5t4 -11.5t12 -4.5h51v-29 q0 -7 4.5 -11.5t11.5 -4.5t11.5 4.5t4.5 11.5v29h67v-29q0 -7 4.5 -11.5t11.5 -4.5t11.5 4.5t4.5 11.5v29q41 0 70.5 28t30.5 67v3.5v4.5q-1 22 -12.5 41t-29.5 31q19 13 30.5 31.5t11.5 41.5zM566 339q26 0 44 -16.5t19 -40.5v-3v-2v0v0q-1 -27 -21 -45.5t-48 -18.5h-138 v126h144zM566 371h-145v127h139q28 0 48.5 -19t20.5 -45v-3v-2q0 -24 -18.5 -41t-44.5 -17zM928 872h-832q-26 0 -45 -19t-19 -45v-720q0 -26 19 -45t45 -19h832q26 0 45 19t19 45v720q0 26 -19 45t-45 19zM96 840h832q13 0 22.5 -9.5t9.5 -22.5v-131h-896v131 q0 13 9.5 22.5t22.5 9.5zM928 56h-832q-13 0 -22.5 9.5t-9.5 22.5v558h896v-558q0 -13 -9.5 -22.5t-22.5 -9.5z" />
</svg>