<svg viewBox="0 0 256 256" xmlns="http://www.w3.org/2000/svg">
  <path transform="scale(1, -1) translate(0, -256)" fill="currentColor" d="M191 128q13 7 21.5 20t8.5 28v4q0 15 -8.5 28.5t-23 21.5t-30.5 8h-18v10q0 3 -2 5t-5 2t-5 -2t-2 -5v-10h-22v10q0 3 -2 5t-5 2t-4.5 -2t-1.5 -5v-10h-50q-3 0 -5.5 -2t-2.5 -5t2.5 -5t5.5 -2h10v-190h-10q-3 0 -5.5 -2.5t-2.5 -5.5t2.5 -5t5.5 -2h50v-11q0 -3 2 -5 t5 -2t5 2t2 5v11h22v-11q0 -3 2.5 -5t5.5 -2t5 2t2 5v11h17q16 0 30.5 8t23 21t8.5 29v5q-1 15 -9.5 27t-21.5 19zM66 224h93q20 0 34 -13t15 -31v-4q-1 -16 -14 -28t-31 -12h-97v88zM207 78q0 -19 -14.5 -32t-33.5 -13h-93v88h97q18 0 31 -11.5t13 -28.5v-3z" />
</svg>