<svg viewBox="0 0 1024 1024" xmlns="http://www.w3.org/2000/svg">
  <path transform="scale(1, -1) translate(0, -960)" fill="currentColor" d="M915 573q-32 35 -76 57.5t-93 28.5q-26 42 -63 73t-83 46q-19 7 -41.5 10.5t-46.5 3.5q-56 0 -106 -21t-87 -57.5t-59 -85.5t-22 -105v-1q-43 -1 -80 -18q-38 -16 -66 -44.5t-44 -65.5q-16 -38 -16 -80q0 -44 17 -82t46 -66.5t67 -45.5q39 -17 83 -18v0v0h461 q59 0 111 23q52 22 91 60t62 89q22 51 22 108q0 53 -20 102t-57 89v0zM706 134h-460q-76 0 -129 52t-53 128q0 75 53 127t129 52h8q8 0 12 4.5t4 11.5v17q0 50 19 93q20 43 52.5 75t76.5 51q44 18 94 18q22 0 41 -3.5t37 -9.5q42 -14 77 -43t56 -69l5.5 -5.5t7.5 -2.5 q44 -4 85.5 -24.5t71.5 -51.5q32 -35 49.5 -79t17.5 -89q0 -53 -20 -98q-20 -46 -54.5 -80t-80.5 -54q-47 -20 -99 -20v0zM675 480v3v3q-1 38 -29.5 65t-67.5 27h-8v28q0 8 -4.5 12t-11.5 4q-8 0 -12 -4t-4 -12v-28h-45v28q0 8 -4.5 12t-11.5 4t-11.5 -4t-4.5 -12v-28h-21v0 v0h-43q-7 0 -11.5 -4.5t-4.5 -11.5q0 -8 4.5 -12t11.5 -4h17v-269h-17q-7 0 -11.5 -4.5t-4.5 -11.5t4.5 -11.5t11.5 -4.5h33v0v0h31v-31q0 -7 4.5 -11.5t11.5 -4.5t11.5 4.5t4.5 11.5v31h45v-31q0 -7 4 -11.5t12 -4.5q7 0 11.5 4.5t4.5 11.5v31h8q39 0 67.5 26.5t29.5 64.5 v4v4q-1 22 -11 39.5t-27 29.5q15 9 26 27t12 40v0zM584 394q24 0 41 -16t18 -39v-2v-3v0v0q-1 -25 -20 -42.5t-45 -17.5h-132v118h138v2v0zM584 426h-138v118h132q26 0 45 -18t20 -43v-2v-3q-1 -20 -18 -36t-41 -16v0z" />
</svg>