<svg viewBox="0 0 256 256" xmlns="http://www.w3.org/2000/svg">
  <path transform="scale(1, -1) translate(0, -256)" fill="currentColor" d="M231 161q-8 9 -19 14.5t-23 8.5q-14 22 -37 30q-10 4 -24 4q-18 0 -34.5 -9t-26 -24.5t-10.5 -34.5q-22 -2 -37 -18t-15 -38q0 -15 7.5 -27.5t20.5 -20t29 -7.5h115q20 0 37 9.5t27 26.5t10 37q0 13 -5 26t-15 23zM176 53h-114q-18 0 -30.5 12t-12.5 29.5t12.5 29.5 t30.5 12h2q3 0 5 2t2 5v5q0 15 7.5 28t21 20.5t28.5 7.5q10 0 19 -3q20 -7 31 -27q2 -3 6 -3q10 -1 20 -6t17 -13q16 -17 16 -40q0 -16 -8 -29.5t-22 -21.5t-31 -8zM172 136v2q-1 10 -8.5 17.5t-18.5 7.5v5q0 3 -2 5t-5 2t-5 -2t-2 -5v-5h-5v5q0 3 -2.5 5t-5.5 2t-4.5 -2 t-1.5 -5v-5h-13q-3 0 -5 -2t-2 -5t2 -5t5 -2h1v-61h-1q-3 0 -5 -2t-2 -5t2 -5t5 -2h13v-5q0 -3 2 -5t5 -2t5 2t2 5v5h6v-5q0 -3 2 -5t5 -2t5 2t2 5v5q11 0 18.5 7.5t7.5 18.5v2q0 10 -8 17q8 7 8 17zM158 137v-1q0 -4 -4 -7t-8 -3h-32v23h30q6 0 10 -3.5t4 -8.5zM146 112 q5 0 8.5 -3.5t3.5 -7.5v-1q-1 -4 -5 -8t-9 -4h-30v24h32v0z" />
</svg>