<svg viewBox="0 0 256 256" xmlns="http://www.w3.org/2000/svg">
  <path transform="scale(1, -1) translate(0, -256)" fill="currentColor" d="M224 219h-89v15q0 3 -2 5t-5 2t-5 -2t-2 -5v-14h-89q-11 0 -19 -8t-8 -19v-77q0 -11 7.5 -19t19.5 -8h36l-36 -63q-2 -2 -1 -5t4 -5h3q4 0 6 3l39 71h38v-67q0 -3 2 -5t5 -2t5 2t2 5v66h38l40 -70q2 -4 6 -4l3 1q3 2 3.5 4.5t-0.5 5.5l-35 63h35q11 0 19 7.5t8 19.5v77 q-1 11 -8.5 18.5t-19.5 7.5zM237 116q0 -5 -3.5 -9t-9.5 -4h-192q-6 0 -9.5 4t-3.5 9v77q0 5 3.5 9t9.5 4h192q6 0 9.5 -4t3.5 -9v-77z" />
</svg>