<svg viewBox="0 0 1024 1024" xmlns="http://www.w3.org/2000/svg">
  <path transform="scale(1, -1) translate(0, -960)" fill="currentColor" d="M898 802h-370v68q0 8 -4.5 12t-11.5 4t-11.5 -4t-4.5 -12v-68h-370q-38 0 -66 -28t-28 -67v-307q0 -40 28 -67t66 -27h165l-152 -272q-3 -5 -1.5 -12t6.5 -9q2 -1 4 -1.5t4 -0.5q5 0 8.5 2.5t5.5 5.5l160 287h170v-280q0 -8 4.5 -12t11.5 -4t11.5 4t4.5 12v280h171 l162 -287q2 -3 5.5 -5.5t8.5 -2.5q3 0 4.5 0.5t3.5 1.5q6 3 8 9.5t-1 12.5l-154 272h162q39 0 66.5 28t27.5 67v305q0 39 -28 67t-66 28zM960 400q0 -26 -18.5 -44t-43.5 -18h-772q-25 0 -43.5 18t-18.5 44v307q0 27 18.5 45t43.5 18h772q26 0 44 -19t18 -44v-307z" />
</svg>