<svg viewBox="0 0 256 256" xmlns="http://www.w3.org/2000/svg">
  <path transform="scale(1, -1) translate(0, -256)" fill="currentColor" d="M196 225h-26v19q0 3 -2 5t-5 2h-70q-3 0 -5 -2t-2 -5v-19h-26q-3 0 -5 -2t-2 -5v-180q0 -3 2 -5.5t5 -2.5h26v-18q0 -3 2 -5t5 -2h71q3 0 5 2t2 5v19h25q3 0 5 2t2 5v180q0 3 -2 5t-5 2zM189 45h-26q-3 0 -5 -2t-2 -5v-19h-56v19q0 3 -2.5 5t-5.5 2h-26v166h26q3 0 5.5 2 t2.5 5v19h56v-19q0 -3 2 -5t5 -2h26v-166zM140 168q3 0 5 2.5t2 5.5t-2 4.5t-5 1.5h-24q-3 0 -5 -2t-2 -5t2 -5t5 -2h5v-31h-5q-3 0 -5 -2t-2 -5t2 -5.5t5 -2.5h5v-35h-5q-3 0 -5 -2t-2 -5t2 -5.5t5 -2.5h24q3 0 5 2.5t2 5.5t-2 5.5t-5 2.5h-5v35h5q3 0 5 2t2 5t-2 5.5 t-5 2.5h-5v31h5v-1z" />
</svg>