<svg viewBox="0 0 256 256" xmlns="http://www.w3.org/2000/svg">
  <path transform="scale(1, -1) translate(0, -256)" fill="currentColor" d="M114 147q22 0 37.5 15t15.5 36.5t-15.5 37t-38 15.5t-38 -15.5t-15.5 -37t15.5 -36.5t38.5 -15zM114 237q16 0 27.5 -11.5t11.5 -27t-11.5 -26.5t-28 -11t-28 11t-11.5 26.5t11.5 27t28.5 11.5zM114 126q-26 0 -47.5 -12.5t-34.5 -34t-13 -47.5v-12q0 -6 4.5 -10.5 t10.5 -4.5h76q3 0 5 2t2 5t-2 5.5t-5 2.5h-76h-1v12q0 22 11 40t29.5 29t40.5 11q3 0 5 2t2 5t-2 5t-5 2zM184 110q-21 0 -36.5 -15.5t-15.5 -37t15.5 -37t37 -15.5t37 15.5t15.5 37t-15.5 37t-37.5 15.5zM184 96q14 0 24 -9l-55 -51q-7 10 -7 21q0 16 11.5 27.5t26.5 11.5z M184 19q-12 0 -22 7l55 50q5 -9 5 -19q1 -16 -10.5 -27t-27.5 -11z" />
</svg>