<svg viewBox="0 0 1024 1024" xmlns="http://www.w3.org/2000/svg">
  <path transform="scale(1, -1) translate(0, -960)" fill="currentColor" d="M454 536q42 0 79 15q37 16 65 42.5t44 62.5t16 77t-16 76q-16 36 -44 62.5t-65 41.5t-79 15t-79 -15q-37 -16 -64.5 -42.5t-43.5 -62.5t-16 -77t16 -76q16 -36 43.5 -62.5t64.5 -41.5t79 -15v0zM454 896q71 0 121.5 -48t50.5 -117q0 -68 -50.5 -116.5t-121.5 -48.5 q-70 0 -120.5 48.5t-50.5 116.5q0 69 50.5 117t120.5 48v0zM454 429q-75 0 -142 -29q-66 -29 -115.5 -78.5t-78.5 -115.5q-28 -66 -28 -142v-48q0 -19 13.5 -33.5t34.5 -14.5h304q7 0 11.5 4.5t4.5 11.5t-4.5 11.5t-11.5 4.5h-304q-6 0 -11 4.5t-5 11.5v48q0 69 26 130 q26 60 71 105.5t106 71.5q60 26 129 26q8 0 12 4.5t4 11.5t-4 11.5t-12 4.5zM738 362q-41 0 -77 -16q-36 -15 -62.5 -42t-42.5 -63q-15 -35 -15 -76t15 -77q16 -36 42.5 -62.5t62.5 -42.5q36 -15 77 -15q40 0 76 15q36 16 62.5 42.5t42.5 62.5q15 36 15 77t-15 76 q-16 36 -42.5 63t-62.5 42q-36 16 -76 16v0zM738 330q32 0 61 -12.5t51 -32.5l-240 -223q-17 22 -27 48t-10 55q0 68 48 116.5t117 48.5v0zM738 0q-30 0 -57 10t-49 28l240 223q14 -21 22 -45.5t8 -50.5q0 -69 -48 -117t-116 -48v0z" />
</svg>