<svg viewBox="0 0 256 256" xmlns="http://www.w3.org/2000/svg">
  <path transform="scale(1, -1) translate(0, -256)" fill="currentColor" d="M252 146q-2 7 -7 10q-3 1 -14 2h-11q-3 1 -5 2q-4 3 -5.5 6.5t-1.5 10.5q0 27 -22 51q-16 16 -37 22q-2 1 -8 1l-27 1q-29 0 -39.5 -1t-20.5 -5q-18 -7 -30.5 -21.5t-17.5 -33.5q-2 -8 -2 -58q0 -42 0.5 -54.5t3 -20.5t5 -12.5t7.5 -11.5q9 -11 21 -19t25 -10q6 -1 59 -1 t61 1q13 2 24 7.5t21 15.5q14 14 19 34q2 4 2 11v32v41zM73 181q2 2 4.5 3t8.5 1h42q4 0 7 -2t5 -4.5t2 -7t-1.5 -7t-4.5 -4.5t-7 -2h-50q-7 3 -9 10.5t3 12.5zM179 70l-8 -1l-43 -1q-46 0 -50 1.5t-6.5 4.5t-2.5 6t1 7t3.5 6t5.5 2.5t14 0.5l33 1h36q11 -1 14 -1.5t5 -2.5 l1 -1q5 -5 4 -11.5t-7 -10.5z" />
</svg>