<svg viewBox="0 0 1024 1024" xmlns="http://www.w3.org/2000/svg">
  <path transform="scale(1, -1) translate(0, -960)" fill="currentColor" d="M1006 520q-3 13 -10.5 24t-16.5 16q-3 1 -19 3t-37 3q-33 2 -43 3t-19 9q-18 10 -23.5 23t-5.5 42q0 54 -23 106t-67 97q-32 33 -68 55t-79 35q-9 4 -38 4.5t-101 1.5q-115 2 -158 -2t-84 -20q-72 -28 -122 -86t-68 -133q-4 -16 -6 -57t-2 -175q-1 -169 1.5 -219 t14.5 -84q8 -28 18.5 -47.5t29.5 -44.5q36 -46 84 -77.5t98 -39.5q13 -2 84 -3q70 -1 153 -1.5t155 0.5q72 0 88 2v0q54 7 98 29.5t85 63.5q29 29 47.5 62.5t29.5 75.5q4 15 5 40.5t1 128.5v116t-2 49zM291 659q13 13 31.5 15.5t99.5 2.5q74 0 89.5 -1t26.5 -6 q15 -8 21.5 -19t6.5 -29q0 -16 -5.5 -27.5t-21.5 -20.5q-7 -4 -23.5 -5t-88.5 -1q-44 0 -75.5 1t-36.5 1q-27 8 -35.5 38.5t11.5 50.5v0zM717 218l-32 -5l-173 -3q-113 -2 -154.5 0t-48.5 4q-12 5 -22 18.5t-10 25.5q-1 12 4 26.5t13 22.5q12 10 41.5 12t174.5 4 q149 0 175.5 -2t40.5 -15q21 -21 18 -47.5t-27 -40.5z" />
</svg>