<svg viewBox="0 0 256 256" xmlns="http://www.w3.org/2000/svg">
  <path transform="scale(1, -1) translate(0, -256)" fill="currentColor" d="M182 201h-18v10q0 8 -5.5 13t-12.5 5h-11v15q0 3 -2 5t-5 2t-5 -2t-2 -5v-15h-11q-7 0 -12.5 -5t-5.5 -13v-10h-18q-8 0 -14 -5.5t-6 -13.5v-92q0 -19 12.5 -34t30.5 -20v-24q0 -3 2 -5t5 -2t5.5 2t2.5 5v23h14v-7q0 -8 6.5 -14.5t15 -6.5t14.5 6t6 15v12q15 6 24.5 20 t9.5 30v92q-1 8 -6.5 13.5t-13.5 5.5zM107 211q0 2 1 3t3 1h35q1 0 2.5 -1t1.5 -3v-10h-43v10zM154 28q0 -3 -2 -5t-5 -2t-5 2t-2 5v7h6l8 1v-8zM187 90q0 -16 -12 -28t-29 -12h-36q-17 0 -29 12t-12 28v92q0 2 1.5 3.5t3.5 1.5h109q2 0 3.5 -1.5t1.5 -3.5v-92h-1zM156 130 h-21v22q0 3 -2 5t-5 2t-5.5 -2t-2.5 -5v-22h-21q-3 0 -5 -2t-2 -5t2 -5t5 -2h21v-22q0 -3 2.5 -5t5.5 -2t5 2t2 5v22h21q3 0 5.5 2t2.5 5t-2.5 5t-5.5 2z" />
</svg>