<svg viewBox="0 0 1024 1024" xmlns="http://www.w3.org/2000/svg">
  <path transform="scale(1, -1) translate(0, -960)" fill="currentColor" d="M730 726h-88v55q0 25 -18 42t-42 17h-54v72q0 7 -4.5 11.5t-11.5 4.5t-11.5 -4.5t-4.5 -11.5v-72h-54q-26 0 -43 -17.5t-17 -41.5v-55h-88q-26 0 -45 -18.5t-19 -45.5v-366q0 -77 49 -134.5t123 -70.5v-107q0 -7 4 -11.5t12 -4.5q7 0 11.5 4.5t4.5 11.5v106h2h2h76v-42 q0 -14 5.5 -27t14.5 -24q11 -11 24 -16t28 -5q30 0 51 21t21 51v56q57 23 94.5 75.5t37.5 118.5v364q3 27 -15.5 45.5t-44.5 18.5v0zM414 781q0 11 8.5 19t19.5 8h139q12 0 19.5 -8t7.5 -19v-55h-194v55zM629 48q0 -17 -11.5 -28.5t-28.5 -11.5q-9 0 -16 3t-13 8 q-6 6 -8.5 13.5t-2.5 15.5v42h38q11 0 22 1t21 3v-46h-1zM762 298q0 -74 -51.5 -125t-124.5 -51h-146q-73 0 -124.5 51t-51.5 125v364q0 14 9.5 23t22.5 9h435q13 0 22.5 -9t9.5 -23v-364h-1zM626 443h-98v98q0 7 -4.5 11.5t-11.5 4.5t-11.5 -4.5t-4.5 -11.5v-98h-98 q-7 0 -11.5 -4.5t-4.5 -11.5t4.5 -11.5t11.5 -4.5h98v-97q0 -8 4.5 -12t11.5 -4t11.5 4t4.5 12v97h98q7 0 11.5 4.5t4.5 11.5t-4.5 11.5t-11.5 4.5z" />
</svg>