<svg viewBox="0 0 256 256" xmlns="http://www.w3.org/2000/svg">
  <path transform="scale(1, -1) translate(0, -256)" fill="currentColor" d="M121 166q-7 -8 -7 -18t7 -17.5t17.5 -7.5t17.5 7.5t7 17.5t-7 17.5t-17.5 7.5t-17.5 -7zM146 140q-3 -3 -7.5 -3t-7.5 3.5t-3 8t3 7.5t7.5 3t7.5 -3.5t3 -7.5t-3 -8zM87 107l-33 -34q-3 -2 -2.5 -5t2.5 -5t4.5 -2t4.5 2l34 34q2 2 2 5t-2 5t-5 2t-5 -2zM233 223 q-12 12 -28.5 16.5t-32.5 -0.5q-3 -1 -4.5 -3.5t-0.5 -5.5t3.5 -4t5.5 -1q12 4 25 0.5t22 -12.5q14 -14 14 -34t-14 -33.5t-33 -14.5q3 9 3 16q1 23 -15.5 40t-39.5 16t-39 -19l-83 -93q-12 -14 -11 -32t13 -31q7 -7 15.5 -10.5t17.5 -3.5q17 0 30 12l94 82q5 4 9 9h5 q12 0 23.5 4.5t20.5 13.5q12 12 16 28t0 32t-16 28zM166 119l-94 -82q-9 -9 -22 -8.5t-22 9.5t-9 21.5t8 22.5l82 94q11 13 28.5 13.5t30 -11.5t12 -29.5t-13.5 -29.5z" />
</svg>