<svg viewBox="0 0 256 256" xmlns="http://www.w3.org/2000/svg">
  <path transform="scale(1, -1) translate(0, -256)" fill="currentColor" d="M189 181h-122q-9 0 -15 -6.5t-6 -15.5v-62q0 -9 6 -15.5t15 -6.5h16q3 0 5 2t2 5t-2 5.5t-5 2.5h-16q-3 0 -5 2t-2 5v13h59q3 0 5 2.5t2 5.5t-2 4.5t-5 1.5h-59v35q0 3 2 5.5t5 2.5h33v-26q0 -3 2 -5t5 -2t5 2t2 5v26h76q3 0 5 -2.5t2 -5.5v-21h-40q-3 0 -5 -2t-2 -5 t2 -5t5 -2h40v-27q0 -3 -2 -5.5t-5 -2.5h-39v17q0 3 -2 5t-5 2t-5.5 -2t-2.5 -5v-17h-18q-3 0 -5 -2t-2 -5t2 -5t5 -2h71q9 0 15 6t6 15v63q0 9 -6 15.5t-15 6.5zM232 216h-208q-8 0 -13.5 -5.5t-5.5 -13.5v-139q0 -7 5.5 -13t13.5 -6h208q8 0 13.5 5.5t5.5 13.5v140 q0 7 -5.5 12.5t-13.5 5.5zM237 58q0 -2 -1.5 -3.5t-3.5 -1.5h-208q-2 0 -3.5 1.5t-1.5 3.5v140q0 2 1.5 3.5t3.5 1.5h208q2 0 3.5 -1.5t1.5 -3.5v-140z" />
</svg>