<svg viewBox="0 0 256 256" xmlns="http://www.w3.org/2000/svg">
  <path transform="scale(1, -1) translate(0, -256)" fill="currentColor" d="M196 84l-64 44l65 44q4 3 6.5 7.5t2.5 10t-2.5 10.5t-6.5 8l-62 41q-3 2 -7 2t-7.5 -1.5t-5.5 -5t-2 -7.5v-96l-52 35q-3 2 -5.5 1t-4 -3t-1 -5t2.5 -5l54 -36l-53 -35q-3 -2 -3.5 -4.5t1.5 -5.5t5 -3t5 1l52 35v-96q0 -4 2 -7.5t5 -5t7 -1.5t8 2l61 41q5 3 7.5 8t2.5 10 q0 10 -11 17zM128 237l61 -41q3 -3 3 -6.5t-3 -6.5l-61 -41v95zM189 60l-61 -41v95l61 -41q3 -3 3 -6.5t-3 -6.5z" />
</svg>