<svg viewBox="0 0 1024 1024" xmlns="http://www.w3.org/2000/svg">
  <path transform="scale(1, -1) translate(0, -960)" fill="currentColor" d="M491 590q-25 -25 -25 -61.5t25 -61.5q13 -13 29.5 -19t33.5 -6q16 0 32.5 6t29.5 19q12 12 19 28.5t7 34.5t-7 33.5t-19 28.5q-26 24 -63 24t-62 -26zM592 490q-16 -16 -39 -16t-39 16q-16 15 -16 38t16 40q8 8 18 12t20 4t20.5 -4t17.5 -12q9 -8 12.5 -18t3.5 -20 q2 -12 -2 -22.5t-12 -17.5zM358 355l-134 -134q-5 -5 -5 -11.5t5 -11.5q2 -2 5.5 -3t5.5 -1q3 0 6 1t5 3l135 135q5 5 5 11t-5 11t-12 5t-11 -5zM923 821q-45 45 -108 61t-125 -2q-6 -2 -9.5 -7.5t-2.5 -11.5q3 -6 8.5 -9.5t11.5 -1.5q54 15 108 1.5t93 -53.5q30 -30 45 -67 q15 -38 15 -77t-15 -77q-15 -37 -45 -67q-31 -31 -71.5 -46t-85.5 -13q8 18 12.5 37t5.5 38q1 44 -14 82.5t-45 68.5t-68.5 45t-82.5 14q-43 -1 -80.5 -19.5t-66.5 -49.5l-328 -376q-45 -50 -42.5 -118.5t49.5 -114.5q25 -26 56.5 -38t64.5 -12q30 0 59.5 11t54.5 32 l376 330q11 9 19.5 19t15.5 21q7 -1 14.5 -1.5t14.5 -0.5q47 0 90 17.5t76 51.5q34 34 52 77q17 44 17 89t-17 88q-18 44 -52 79zM670 403l-374 -329q-41 -36 -96.5 -35t-93.5 41q-39 38 -41 94t34 96l330 376q24 28 55.5 43t67.5 17q36 1 69 -12t59 -38q25 -25 38 -58 t12 -70q-2 -37 -17 -69t-43 -56v0z" />
</svg>