<svg viewBox="0 0 1024 1024" xmlns="http://www.w3.org/2000/svg">
  <path transform="scale(1, -1) translate(0, -960)" fill="currentColor" d="M912 781h-832q-20 0 -34 -14t-14 -34v-568q0 -21 14 -34.5t34 -13.5h832q34 0 57 23t23 57v504q0 32 -23 56t-57 24zM960 195q0 -20 -14 -34t-34 -14h-832q-7 0 -11.5 4.5t-4.5 11.5v570q0 7 4.5 11.5t11.5 4.5h832q20 0 34 -14t14 -34v-506zM808 570h-170 q-7 0 -11.5 -4.5t-4.5 -11.5q0 -8 4.5 -12t11.5 -4h168q8 0 12 4t4 12q0 7 -4 11.5t-10 4.5zM808 358h-170q-7 0 -11.5 -4t-4.5 -12q0 -7 4.5 -11.5t11.5 -4.5h168q8 0 12 4.5t4 11.5q0 8 -4 12t-10 4zM475 506l-115 38v94q0 8 -4.5 12t-11.5 4t-11.5 -4t-4.5 -12v-94 l-115 -38q-6 -3 -9 -8.5t-1 -12.5q1 -5 5.5 -8t9.5 -3h2t2 1l106 35v-158l-75 -37q-6 -2 -8.5 -8.5t0.5 -12.5q2 -4 5.5 -6.5t8.5 -2.5h3t4 1l76 39l77 -39q1 -1 3 -1h4q4 0 8 2.5t6 6.5q2 6 0 12.5t-8 8.5l-72 37v158l106 -35q1 0 2 -0.5t2 -0.5q5 0 9.5 3t5.5 8q2 6 -1 12 t-9 9v0z" />
</svg>