<svg viewBox="0 0 256 256" xmlns="http://www.w3.org/2000/svg">
  <path transform="scale(1, -1) translate(0, -256)" fill="currentColor" d="M207 251h-166q-6 0 -10.5 -4.5t-4.5 -10.5v-216q0 -6 4.5 -10.5t10.5 -4.5h166q10 0 16.5 6.5t6.5 16.5v200q0 10 -7 16.5t-16 6.5zM216 28q0 -4 -2.5 -6.5t-6.5 -2.5h-166q-1 0 -1 1v216q0 1 1 1h166q4 0 6.5 -2.5t2.5 -6.5v-200zM118 93h-43q-3 0 -5 -2t-2 -5t2 -5.5 t5 -2.5h42q3 0 5 2.5t2 5.5t-2 5t-4 2zM118 61h-43q-3 0 -5 -2t-2 -5t2 -5t5 -2h42q3 0 5 2t2 5t-2 5t-4 2zM176 163q3 0 5 2t2 5t-2 5.5t-5 2.5h-16l-10 26q-1 3 -3.5 4t-5 0.5t-4 -3.5t-0.5 -5l8 -23h-39l-9 17q-1 3 -4 4t-5.5 -0.5t-3.5 -4t0 -5.5l10 -18l-10 -17 q-1 -3 0 -5.5t4 -4.5l3 -1q4 0 6 4l9 18h39l-8 -23q-1 -3 0.5 -5.5t4.5 -3.5h2q2 0 4 1.5t3 3.5l9 27h16v-1zM181 93h-21q-3 0 -5.5 -2t-2.5 -5t2.5 -5.5t5.5 -2.5h21q3 0 5 2.5t2 5.5t-2 5t-5 2zM181 61h-21q-3 0 -5.5 -2t-2.5 -5t2.5 -5t5.5 -2h21q3 0 5 2t2 5t-2 5t-5 2z " />
</svg>