<svg viewBox="0 0 256 256" xmlns="http://www.w3.org/2000/svg">
  <path transform="scale(1, -1) translate(0, -256)" fill="currentColor" d="M228 214h-208q-6 0 -10.5 -4.5t-4.5 -10.5v-142q0 -7 4.5 -11t10.5 -4h208q10 0 16.5 6.5t6.5 16.5v126q0 10 -6.5 16.5t-16.5 6.5zM237 65q0 -4 -2.5 -6.5t-6.5 -2.5h-208q-1 0 -1 1v142l1 1h208q4 0 6.5 -2.5t2.5 -6.5v-126zM202 161h-42q-3 0 -5.5 -2t-2.5 -5t2.5 -5 t5.5 -2h42q3 0 5 2t2 5t-2 5t-5 2zM202 109h-42q-3 0 -5.5 -2t-2.5 -5t2.5 -5.5t5.5 -2.5h42q3 0 5 2.5t2 5.5t-2 5t-5 2zM120 145l-27 9v21q0 3 -2 5t-5 2t-5.5 -2t-2.5 -5v-21l-26 -9q-3 -1 -4 -3.5t-0.5 -5t2.5 -3.5t4 -1h3l22 8v-34l-17 -8q-3 -2 -3.5 -4.5t1 -6 t5.5 -3.5l3 1l18 9l18 -9q2 -1 3.5 -1t3.5 1.5t3 3.5t0 4.5t-3 4.5l-17 8v34l22 -8h2q2 0 4 1t2.5 3.5t-1 5t-3.5 3.5z" />
</svg>