<svg viewBox="0 0 1024 1024" xmlns="http://www.w3.org/2000/svg">
  <path transform="scale(1, -1) translate(0, -960)" fill="currentColor" d="M827 928h-662q-21 0 -34.5 -14t-13.5 -34v-864q0 -20 13.5 -34t34.5 -14h664q33 0 56.5 23t23.5 57v800q-1 34 -24.5 57t-57.5 23zM875 48q0 -20 -13.5 -34t-34.5 -14h-662q-7 0 -11.5 4.5t-4.5 11.5v864q0 7 4.5 11.5t11.5 4.5h664q20 0 34 -14t14 -34v-800h-2zM470 296 h-169q-7 0 -11.5 -4.5t-4.5 -11.5t4.5 -11.5t11.5 -4.5h168q7 0 11.5 4.5t4.5 11.5t-4.5 11.5t-10.5 4.5zM470 168h-169q-7 0 -11.5 -4.5t-4.5 -11.5t4.5 -11.5t11.5 -4.5h168q7 0 11.5 4.5t4.5 11.5t-4.5 11.5t-10.5 4.5zM702 600q8 0 12 4.5t4 11.5t-4 11.5t-12 4.5h-73 l-40 115q-3 6 -8.5 9t-12.5 1q-6 -3 -9 -8.5t-1 -12.5l36 -106h-178l-38 76q-4 6 -10 8t-11 -2q-6 -4 -8 -10t1 -11l40 -77l-40 -76q-3 -6 -1 -12.5t8 -8.5q1 -1 3 -1.5t5 -0.5q5 0 8.5 2.5t5.5 5.5l39 75h179l-37 -102q-2 -6 1 -12t9 -9q1 0 2 -0.5t2 -0.5q5 0 9.5 3t5.5 8 l40 115h73v0zM723 296h-85q-7 0 -11.5 -4.5t-4.5 -11.5t4.5 -11.5t11.5 -4.5h85q7 0 11.5 4.5t4.5 11.5t-5 11.5t-11 4.5zM723 168h-85q-7 0 -11.5 -4.5t-4.5 -11.5t4.5 -11.5t11.5 -4.5h85q7 0 11.5 4.5t4.5 11.5t-5 11.5t-11 4.5z" />
</svg>