<svg viewBox="0 0 256 256" xmlns="http://www.w3.org/2000/svg">
  <path transform="scale(1, -1) translate(0, -256)" fill="currentColor" d="M249 30l-9 135q0 11 -15 17t-35 6t-35 -6t-15 -17l-3 -47h-17v34q0 3 -2 5t-5 2t-5 -2t-2 -5v-34h-21v24q0 3 -2 5t-5 2t-5.5 -2t-2.5 -5v-24h-21v14q0 3 -2 5t-5 2t-4.5 -2t-1.5 -5v-14h-5q-10 0 -17 -7t-7 -17v-65q0 -10 7 -17t17 -7h194q11 0 17.5 8t6.5 17zM190 174 q11 0 19 -1.5t12.5 -4t4.5 -4t-4.5 -4t-12.5 -4.5t-19 -2t-19 2t-12.5 4.5t-4.5 4t4.5 4t12.5 4t19 1.5zM31 19q-4 0 -7 3t-3 7v65q0 4 3 7t7 3h105l-6 -85h-99zM232 22q-3 -3 -7 -3h-81l9 128q15 -7 37.5 -7t36.5 7l8 -118q0 -3 -3 -7zM135 237h13q3 0 5.5 -2.5t2.5 -5.5 v-17q0 -3 2 -5t5 -2t5 2t2 5v17q0 9 -6.5 15.5t-15.5 6.5h-13q-3 0 -5 -2t-2 -5t2 -5t5 -2zM185 237h13q3 0 5.5 -2.5t2.5 -5.5v-17q0 -3 2 -5t5 -2t5 2t2 5v17q0 9 -6.5 15.5t-15.5 6.5h-12q-3 0 -5.5 -2t-2.5 -5t2 -5t5 -2z" />
</svg>