<svg viewBox="0 0 1024 1024" xmlns="http://www.w3.org/2000/svg">
  <path transform="scale(1, -1) translate(0, -960)" fill="currentColor" d="M896 824q-89 52 -187 78q-97 26 -197 26t-197 -26q-98 -26 -187 -78q-4 -2 -6 -6t-2 -8v-760q0 -34 24 -58t58 -24h620q34 0 58 24t24 58v760q0 4 -2 8t-6 6zM637 154h-250v121h248v-121h2zM387 122h248v-122h-248v122v0zM872 50q0 -21 -14.5 -35.5t-35.5 -14.5h-153v397 q0 7 -4.5 11.5t-11.5 4.5t-11.5 -4.5t-4.5 -11.5v-88h-250v88q0 7 -4.5 11.5t-11.5 4.5t-11.5 -4.5t-4.5 -11.5v-397h-153q-21 0 -35.5 14.5t-14.5 35.5v750q83 48 175 72t185 24t185 -24t175 -72v-750z" />
</svg>