<svg viewBox="0 0 1024 1024" xmlns="http://www.w3.org/2000/svg">
  <path transform="scale(1, -1) translate(0, -960)" fill="currentColor" d="M685 491q59 22 92 73.5t33 123.5q0 55 -18.5 101.5t-60.5 79.5q-37 39 -88 57t-112 18h-349q-18 0 -29.5 -12t-11.5 -30v-907q0 -18 11.5 -29.5t29.5 -11.5h400q65 0 119.5 21.5t96.5 64.5q42 42 64.5 94t22.5 117q-1 45 -15 85q-13 40 -39 71.5t-63 52.5q-36 22 -83 31 v0zM357 754h141q48 0 78 -29.5t30 -71.5t-31 -73t-77 -31h-141v205v0zM542 146h-185v232h187q55 0 92.5 -31t37.5 -83q-2 -50 -38.5 -84t-93.5 -34v0z" />
</svg>