<svg viewBox="0 0 1024 1024" xmlns="http://www.w3.org/2000/svg">
  <path transform="scale(1, -1) translate(0, -960)" fill="currentColor" d="M848 674q-6 16 -23 24.5t-44 8.5l-171 2l27 121q2 14 3.5 35t-13.5 39q-14 18 -35 21t-35 3h-226q-11 0 -27 -2t-29 -12q-13 -11 -19 -27t-8 -28l-70 -339q-3 -10 -3.5 -30.5t15.5 -35.5q10 -8 21.5 -9.5t18.5 -1.5h197l-94 -403q-3 -10 -4 -26.5t12 -31.5q7 -7 16 -11.5 t19 -4.5h1h1q4 0 8 1.5t9 3.5q12 6 19.5 15.5t12.5 18.5l405 613q7 8 14.5 23.5t1.5 32.5v0zM806 635l-404 -611q-5 -6 -10 -12.5t-11 -9.5q-1 0 -2.5 -1t-2.5 -1q-2 0 -5.5 1t-5.5 4q-4 5 -3.5 12t3.5 17l99 424q1 3 0 6.5t-3 5.5q-3 3 -6 5t-7 2h-218q-6 0 -11.5 0.5 t-8.5 2.5q-4 4 -5 11.5t3 22.5l70 339q3 11 6 20.5t9 14.5q7 6 16.5 7t20.5 1v0v0h227q13 0 26 -2t19 -9q7 -9 5.5 -22t-4.5 -26l-30 -141q-1 -4 0 -7t3 -6q2 -2 5.5 -4t7.5 -2l190 -2q10 0 22.5 -2t14.5 -9q2 -6 -1.5 -14t-8.5 -15v0z" />
</svg>