<svg viewBox="0 0 256 256" xmlns="http://www.w3.org/2000/svg">
  <path transform="scale(1, -1) translate(0, -256)" fill="currentColor" d="M94 5q-6 0 -11 5.5t-3 16.5l23 97h-45q-8 0 -12.5 3.5t-5.5 10.5q0 4 1 9l18 85q2 10 7.5 14.5t15.5 4.5h57q15 0 20 -7q4 -5 4 -11q0 -4 -1 -10l-6 -27h39q16 0 20 -11q2 -8 -4 -17l-102 -153q-5 -7 -8 -8.5t-6 -1.5h-1zM94 12zM82 237q-5 0 -7 -1.5t-3 -7.5l-17 -84v-6 h57q4 0 6 -3t1 -5l-25 -106q-1 -4 0 -5v0l4 4l101 153q3 4 3 5h-1q-2 1 -6 1h-47q-4 0 -6 3t-1 6l8 36q1 7 -0.5 8.5t-9.5 1.5h-57z" />
</svg>