<svg viewBox="0 0 1024 1024" xmlns="http://www.w3.org/2000/svg">
  <path transform="scale(1, -1) translate(0, -960)" fill="currentColor" d="M966 774q-15 20 -36 32t-45 15q-4 32 -23.5 58t-50.5 39q-35 15 -70 8t-61 -33q-20 -21 -26.5 -43t-8.5 -42q-4 -26 -13 -55t-46 -67l-312 -310q-28 -28 -60.5 -44t-66.5 -17q-48 -1 -81.5 -36.5t-33.5 -84.5q0 -24 9 -46.5t26 -40.5q15 -14 32.5 -22.5t38.5 -10.5 q2 -21 11 -38.5t24 -32.5q17 -17 39 -26t47 -9q21 0 39.5 7t34.5 19q25 19 37.5 48t8.5 60q-3 35 21.5 66t108.5 110q24 23 52 51q29 27 62 60t72 73q39 39 84 87q17 17 37.5 25t41.5 5v0v0q36 -3 68 13t50 48q18 34 15.5 70t-25.5 64v0zM949 658q-13 -24 -36.5 -36.5 t-50.5 -8.5q-27 2 -54.5 -8.5t-49.5 -31.5q-45 -48 -83 -87q-39 -40 -72.5 -73t-62.5 -60q-28 -28 -52 -51q-84 -80 -114 -117.5t-25 -85.5q2 -23 -7 -44t-27 -36q-11 -8 -25.5 -13.5t-28.5 -5.5q-18 0 -34.5 7t-28.5 19t-18.5 28.5t-6.5 33.5q0 6 -3.5 10.5t-9.5 5.5h-2.5 h-2.5q-23 0 -38 8.5t-24 17.5q-15 14 -22 30.5t-7 33.5q0 36 24.5 62t60.5 27q38 1 76.5 19.5t70.5 51.5l310 310q44 43 55 77.5t14 61.5q3 19 7.5 35.5t19.5 31.5t30.5 20.5t30.5 5.5q10 0 19 -2t16 -4q21 -9 38.5 -29.5t17.5 -54.5q0 -3 1.5 -5.5t3.5 -5.5q3 -2 6 -3.5 t5 -1.5q21 0 40 -9t31 -26q17 -21 19 -47t-11 -50z" />
</svg>