<svg viewBox="0 0 256 256" xmlns="http://www.w3.org/2000/svg">
  <path transform="scale(1, -1) translate(0, -256)" fill="currentColor" d="M244 212q-7 9 -20 12q-2 8 -7 14.5t-14 10t-18.5 1.5t-16.5 -9q-5 -5 -7 -11q-2 -4 -3 -11v-1q-1 -8 -3 -13q-3 -8 -11 -15l-78 -78q-13 -14 -29 -14q-14 -1 -23 -10.5t-9 -23t10 -23.5q7 -8 17 -9q2 -10 9 -18q10 -9 24 -9q12 0 20 7q7 5 10.5 13t2.5 17q-1 5 1.5 9.5 t9.5 11.5q6 6 21 20q34 33 68 68q8 8 17.5 7t18 3.5t13.5 13.5t4 19t-7 18zM234 182q-2 -5 -7 -8t-12 -2t-14.5 -2t-13.5 -9q-33 -35 -68 -68l-22 -22q-8 -9 -11 -16t-2 -15q0 -5 -2 -9.5t-6.5 -8t-12 -3.5t-13 5.5t-5.5 13.5q0 2 -1.5 4.5t-3.5 2.5h-2q-8 0 -13.5 5.5 t-5.5 13.5t5.5 13.5t13.5 5.5q10 0 20 5t18 14l78 77q10 10 14 20q3 7 4 17q1 6 2 9t4 6q6 6 13 6q5 0 8 -2q5 -2 8.5 -6.5t3.5 -11.5q0 -3 2 -5t5 -2q9 0 15 -8q4 -4 4 -10t-3 -10z" />
</svg>