<svg viewBox="0 0 1024 1024" xmlns="http://www.w3.org/2000/svg">
  <path transform="scale(1, -1) translate(0, -960)" fill="currentColor" d="M758 928h-492q-36 0 -61.5 -25t-25.5 -61v-858q0 -7 4.5 -11.5t11.5 -4.5t11.5 4.5t4.5 11.5v266h600v-266q0 -7 4.5 -11.5t11.5 -4.5t11.5 4.5t4.5 11.5v858q1 36 -24 61t-61 25zM266 896h492q22 0 38.5 -16t16.5 -38v-255h-128v178q0 7 -4.5 11.5t-11.5 4.5t-11.5 -4.5 t-4.5 -11.5v-178h-90v178q0 7 -4.5 11.5t-11.5 4.5t-11.5 -4.5t-4.5 -11.5v-178h-320v255q0 22 16 38t39 16zM211 555h285v-275h-285v275zM528 282v273h285v-275h-285v2z" />
</svg>