<svg viewBox="0 0 256 256" xmlns="http://www.w3.org/2000/svg">
  <path transform="scale(1, -1) translate(0, -256)" fill="currentColor" d="M223 251h-190q-10 0 -16.5 -7t-6.5 -17v-198q0 -10 7 -17t16 -7h189q10 0 17 7t7 17v198q0 10 -6.5 17t-16.5 7zM225 142q-2 1 -5 0.5t-4 -3.5l-22 -40h-29l18 33q2 3 1 5.5t-3.5 4t-5.5 1t-4 -3.5l-22 -40h-29l18 33q2 3 1 5.5t-3.5 4t-5 1t-4.5 -3.5l-22 -40h-80v64 h208v-64h-22l18 33q1 3 0.5 6t-3.5 4zM33 237h189q4 0 7 -3t3 -7v-50h-84l-22 40q-1 3 -4 4t-5.5 -1t-3 -4.5t0.5 -5.5l18 -33h-29l-21 40q-2 3 -4.5 4t-5 -1t-3.5 -4.5t1 -5.5l18 -33h-29l-22 40q-1 3 -4 3.5t-5.5 -1t-3.5 -4t1 -5.5l18 -33h-19v50q0 4 2.5 7t6.5 3zM24 29 v56h97v-66h-88q-4 0 -6.5 3t-2.5 7zM223 19h-88v66h97v-56q0 -4 -2.5 -7t-6.5 -3zM71 64q-3 0 -5 -2t-2 -5v-12q0 -3 2 -5t5 -2t5 2t2 5v12q0 3 -2 5t-5 2zM182 64q-3 0 -5 -2t-2 -5v-12q0 -3 2 -5t5 -2t5.5 2t2.5 5v12q-1 3 -3 5t-5 2z" />
</svg>