<svg viewBox="0 0 1024 1024" xmlns="http://www.w3.org/2000/svg">
  <path transform="scale(1, -1) translate(0, -960)" fill="currentColor" d="M886 309h-76v278h75q7 0 11.5 4.5t4.5 11.5t-4.5 11.5t-11.5 4.5h-114v277h77q7 0 11.5 4.5t4.5 11.5t-4.5 11.5t-11.5 4.5h-557q-50 0 -86.5 -36t-36.5 -87v-96q0 -41 24 -73t61 -44q-22 -17 -35 -42t-13 -54v-96q0 -26 11 -50t29 -41h-107q-8 0 -12 -4.5t-4 -11.5 t4 -11.5t12 -4.5h76v-277h-76q-8 0 -12 -4.5t-4 -11.5t4 -11.5t12 -4.5h556q51 0 87.5 36t36.5 87v96q0 27 -11 51t-29 40h107q7 0 11.5 4.5t4.5 11.5q0 8 -4.5 11.5t-10.5 3.5v0zM291 619q-37 0 -64 26.5t-27 64.5v96q0 38 26.5 65t64.5 27h448v-277h-448v-2zM786 187v-96 q0 -37 -26.5 -64t-65.5 -27h-448v277h448q39 0 65.5 -26.5t26.5 -63.5v0zM330 309q-38 0 -65 26.5t-27 64.5v96q0 37 26.5 64t65.5 27h446v-277h-446v-1z" />
</svg>