<svg viewBox="0 0 1024 1024" xmlns="http://www.w3.org/2000/svg">
  <path transform="scale(1, -1) translate(0, -960)" fill="currentColor" d="M931 88l-142 739q-4 16 -12.5 29t-21.5 22t-28 12.5t-31 0.5l-134 -25q-6 26 -28 44t-51 18h-313q-34 0 -57 -23t-23 -57v-800q0 -34 23 -57t57 -23h313q34 0 57 23t23 57v702l136 -705q4 -16 12.5 -29t21.5 -22q9 -8 21 -11.5t24 -3.5q3 0 7 0.5t9 1.5l75 14 q31 6 49.5 33.5t12.5 59.5v0zM531 848v-219h-187v267h141q19 0 32.5 -14t13.5 -34zM312 205h-189v440h189v-440zM344 597h189v-283h-189v283v0zM171 896h141v-219h-189v171q0 20 14 34t34 14zM123 48v125h189v-173h-141q-20 0 -34 14t-14 34v0zM483 0h-141v283h189v-235 q0 -20 -13.5 -34t-34.5 -14v0zM862 26l-75 -15q-9 -2 -18.5 0t-16.5 8q-8 5 -13 13t-8 18l-152 787l122 24q9 1 18.5 -0.5t16.5 -7.5q8 -6 13 -13.5t8 -17.5l142 -739q5 -20 -6 -37t-31 -20z" />
</svg>