<svg viewBox="0 0 1024 1024" xmlns="http://www.w3.org/2000/svg">
  <path transform="scale(1, -1) translate(0, -960)" fill="currentColor" d="M832 928h-640q-26 0 -45 -19t-19 -45v-832q0 -26 19 -45t45 -19h640q26 0 45 19t19 45v832q0 26 -19 45t-45 19zM864 864v-584h-123l59 158q2 6 -1 12.5t-9 8.5q-6 3 -12 0t-8 -9l-63 -165v-2.5v-2.5h-94l77 190q2 6 -0.5 12.5t-9.5 8.5q-6 3 -12 0.5t-9 -9.5l-80 -200 v-1v-3h-51v618h304q13 0 22.5 -9.5t9.5 -22.5v0zM160 554h336v-272h-336v272zM192 896h304v-310h-94v172q0 8 -4.5 12t-11.5 4q-8 0 -12 -4t-4 -12v-174h-85v174q0 8 -4.5 12t-11.5 4t-11.5 -4t-4.5 -12v-174h-93v280q0 13 9.5 22.5t22.5 9.5zM160 32v216h336v-248h-304 q-13 0 -22.5 9.5t-9.5 22.5zM832 0h-304v248h336v-216q0 -13 -9.5 -22.5t-22.5 -9.5zM400 139q0 7 -4.5 11.5t-11.5 4.5v0v0q-7 0 -11.5 -5t-4.5 -11v-41q0 -8 4.5 -12t11.5 -4v0v0q7 0 11.5 5t4.5 11v41zM640 155v0v0q-7 0 -11.5 -5t-4.5 -11v-41q0 -8 4.5 -12t11.5 -4v0v0 q7 0 11.5 5t4.5 11v41q0 7 -5 11.5t-11 4.5z" />
</svg>