<svg viewBox="0 0 1024 1024" xmlns="http://www.w3.org/2000/svg">
  <path transform="scale(1, -1) translate(0, -960)" fill="currentColor" d="M917 590h-474v136q0 32 -22 54t-53 22h-136q-31 0 -53 -22t-22 -54v-136h-50q-31 0 -53 -22t-22 -53v-347q0 -31 22 -53t53 -22h811q32 0 54 22t22 53v349q-2 30 -24 51.5t-53 21.5v0zM190 726q0 18 13 31t31 13h136q18 0 30.5 -13t12.5 -31v-276q0 -3 -1 -4t-2 -1 q-2 0 -3 -0.5t-2 0.5l-74 57l-1 2q-12 8 -27.5 8t-27.5 -8l-75 -59q-1 -1 -3 -1t-2 1q-1 0 -2 1t-1 4v276h-2zM960 170q0 -18 -12.5 -31t-30.5 -13h-810q-18 0 -30.5 13t-12.5 31v347q0 18 12.5 30.5t30.5 12.5h53v-109q0 -11 5.5 -20t15.5 -13q3 -3 7.5 -3.5t8.5 -0.5 q6 0 11.5 2.5t10.5 5.5l74 60q3 2 8.5 2t8.5 -2l74 -58q8 -7 18.5 -8.5t19.5 3.5q10 5 15.5 14t5.5 20v107h474q18 0 30.5 -12.5t12.5 -30.5v-347v0z" />
</svg>