<svg viewBox="0 0 1024 1024" xmlns="http://www.w3.org/2000/svg">
  <path transform="scale(1, -1) translate(0, -960)" fill="currentColor" d="M891 928h-758q-34 0 -58 -24t-24 -59v-794q0 -35 24.5 -59t58.5 -24h757q35 0 59 24t24 59v794q-1 35 -25 59t-58 24zM894 494q-6 4 -12 2t-10 -8l-90 -166h-142l82 150q3 6 1 12.5t-8 9.5q-6 4 -12.5 2t-9.5 -8l-90 -166h-142l81 150q4 6 2 12.5t-8 9.5q-6 4 -12.5 2 t-9.5 -8l-90 -166h-341v280h859v-280h-121l81 150q3 6 0.5 12.5t-8.5 9.5v0zM133 896h757q21 0 36 -15t15 -36v-213h-357l-90 166q-3 6 -9.5 8t-12.5 -1q-6 -4 -8 -10.5t2 -12.5l81 -150h-142l-90 166q-3 6 -9.5 8t-12.5 -1q-6 -4 -8 -10.5t1 -12.5l82 -150h-142l-88 166 q-3 6 -9 8t-12 -1t-8 -9t1 -12l82 -150h-109v211q0 21 14.5 36t35.5 15v0zM83 51v239h413v-290h-363q-21 0 -35.5 15t-14.5 36v0zM891 0h-363v290h413v-239q0 -21 -14.5 -36t-35.5 -15v0zM283 182q-7 0 -11.5 -4t-4.5 -12v-48q0 -7 4.5 -11.5t11.5 -4.5t11.5 4.5t4.5 11.5 v48q0 6 -4.5 11t-11.5 5zM730 182q-8 0 -12 -4t-4 -12v-48q0 -7 4 -11.5t12 -4.5q7 0 11.5 4.5t4.5 11.5v48q0 6 -5 11t-11 5z" />
</svg>