<svg viewBox="0 0 256 256" xmlns="http://www.w3.org/2000/svg">
  <path transform="scale(1, -1) translate(0, -256)" fill="currentColor" d="M222 96h-17v64h16q3 0 5 2t2 5t-2 5t-5 2h-25v63h16q3 0 5 2t2 5t-2 5t-5 2h-139q-14 0 -24 -10t-10 -24v-24q0 -10 5 -18t14 -12q-9 -10 -9 -23v-24q0 -11 6 -20h-21q-3 0 -5 -2t-2 -5t2 -5t5 -2h17v-63h-17q-3 0 -5 -2t-2 -5t2 -5.5t5 -2.5h140q13 0 23 10t10 24v24 q0 11 -6 20h20q3 0 5 2t2 5t-2 5t-4 2zM62 116v24q0 8 6 14t14 6h109v-64h-109q-8 0 -14 6t-6 14zM53 217q0 8 6 14t14 6h109v-63h-109q-8 0 -13.5 5.5t-5.5 13.5v24h-1zM194 39q0 -8 -6 -14t-14 -6h-109v63h109q8 0 13.5 -5.5t5.5 -13.5v-24h1z" />
</svg>