<svg viewBox="0 0 1024 1024" xmlns="http://www.w3.org/2000/svg">
  <path transform="scale(1, -1) translate(0, -960)" fill="currentColor" d="M738 928h-452q-34 0 -59 -25t-25 -60v-816q0 -18 9 -31.5t24 -21.5q6 -2 12 -3t12 -1q11 0 20.5 3.5t18.5 10.5l184 160q14 11 31.5 11t32.5 -11l182 -160q13 -12 30 -14.5t32 4.5q16 8 25 22t9 31v816q0 35 -25 60t-61 25zM792 29q0 -9 -4.5 -15t-11.5 -9 q-7 -4 -15 -2.5t-14 7.5l-181 158l-3 2q-23 18 -52 18t-52 -18l-182 -164q-6 -4 -14 -5.5t-15 1.5t-11.5 9t-4.5 15v816q0 22 16 38t38 16h453q22 0 37.5 -15.5t15.5 -37.5v-814z" />
</svg>