<svg viewBox="0 0 256 256" xmlns="http://www.w3.org/2000/svg">
  <path transform="scale(1, -1) translate(0, -256)" fill="currentColor" d="M63 55q6 6 15 6h112q10 0 16.5 6.5t6.5 15.5v146q0 9 -6.5 15.5t-16.5 6.5h-124q-10 0 -16.5 -6.5t-6.5 -15.5v-191l1 -2q1 -13 11 -22t23 -9h127q3 0 5 2t2 5t-2 5.5t-5 2.5h-127q-8 0 -14.5 6t-6.5 14t6 15zM66 237h125q3 0 5.5 -2.5t2.5 -6.5v-145q0 -4 -2.5 -6.5 t-5.5 -2.5h-113q-12 0 -21 -6v161q0 3 2.5 5.5t6.5 2.5zM99 190h59q3 0 5 2t2 5t-2 5t-5 2h-59q-3 0 -5 -2t-2 -5t2 -5t5 -2z" />
</svg>