<svg viewBox="0 0 1024 1024" xmlns="http://www.w3.org/2000/svg">
  <path transform="scale(1, -1) translate(0, -960)" fill="currentColor" d="M638 126h-252q-8 0 -12 -4t-4 -12q0 -7 4 -11.5t12 -4.5h252q8 0 12 4.5t4 11.5q0 8 -4 12t-12 4zM381 432h264q20 0 34 14t14 34v99q0 21 -14 34.5t-34 13.5h-264q-21 0 -34.5 -13.5t-13.5 -34.5v-99q0 -20 13.5 -34t34.5 -14v0zM365 579q0 7 4.5 11.5t11.5 4.5h264 q7 0 11.5 -4.5t4.5 -11.5v-99q0 -7 -4.5 -11.5t-11.5 -4.5h-264q-7 0 -11.5 4.5t-4.5 11.5v99v0zM262 896h588q7 0 11.5 4.5t4.5 11.5t-4.5 11.5t-11.5 4.5h-588q-42 0 -71.5 -28.5t-32.5 -70.5v-1v-1v-779q0 -34 25.5 -57t61.5 -23h545q27 0 45 18.5t18 43.5v666 q0 26 -18.5 44t-44.5 18h-531v0v0v0v0q-30 0 -48.5 18t-18.5 46q-1 32 19.5 53t50.5 21zM258 728v0v0h1h-1h532q14 0 22.5 -9t8.5 -21v-666q0 -13 -9.5 -21.5t-21.5 -8.5h-545q-23 0 -39 14t-16 34v700q14 -10 30.5 -16t37.5 -6v0z" />
</svg>