<svg viewBox="0 0 256 256" xmlns="http://www.w3.org/2000/svg">
  <path transform="scale(1, -1) translate(0, -256)" fill="currentColor" d="M208 251h-160q-8 0 -13.5 -5.5t-5.5 -13.5v-208q0 -8 5.5 -13.5t13.5 -5.5h160q8 0 13.5 5.5t5.5 13.5v208q0 8 -5.5 13.5t-13.5 5.5zM213 232v-143h-23l13 36q1 3 -0.5 5.5t-4 3.5t-5 0t-3.5 -4l-16 -40h-16l17 43q1 3 0 5.5t-3.5 4t-5.5 0t-4 -4.5l-20 -48h-7v148h73 q5 -2 5 -6zM43 151h78v-62h-78v62zM48 237h73v-72h-18v41q0 3 -2 5t-5 2t-5 -2t-2 -5v-41h-15v41q0 3 -2.5 5t-5.5 2t-5 -2t-2 -5v-41h-17v67q2 5 6 5zM43 24v51h78v-56h-73q-2 0 -3.5 1.5t-1.5 3.5zM208 19h-73v56h78v-51q0 -2 -1.5 -3.5t-3.5 -1.5zM103 51q0 3 -2 5t-5 2 t-5 -2.5t-2 -5.5v-10q0 -3 2 -5t5 -2t5 2t2 5v11zM160 58q-3 0 -5 -2t-2 -5v-11q0 -3 2 -4.5t5 -1.5t5 2t2 5v10q0 3 -2 5t-5 2z" />
</svg>