<svg viewBox="0 0 1024 1024" xmlns="http://www.w3.org/2000/svg">
  <path transform="scale(1, -1) translate(0, -960)" fill="currentColor" d="M824 928h-624q-26 0 -45 -19t-19 -45v-880q0 -7 4.5 -11.5t11.5 -4.5t11.5 4.5t4.5 11.5v123h688v-123q0 -7 4.5 -11.5t11.5 -4.5t11.5 4.5t4.5 11.5v880q0 26 -19 45t-45 19zM856 864v-414h-85l53 142q2 6 -1 12t-9 9q-6 2 -12 -1t-8 -9l-58 -152v0v-1h-83l69 172 q2 6 -0.5 12.5t-9.5 8.5q-6 3 -12 0.5t-9 -9.5l-73 -184h-90v446h296q13 0 22.5 -9.5t9.5 -22.5v0zM200 896h296v-446h-104v147q0 7 -4.5 11.5t-11.5 4.5t-11.5 -4.5t-4.5 -11.5v-147h-75v147q0 7 -4.5 11.5t-11.5 4.5t-11.5 -4.5t-4.5 -11.5v-147h-85v414q0 13 9.5 22.5 t22.5 9.5zM168 139v279h101v0h1q2 0 1.5 0t0.5 0h106v0h1h1h1h134h0.5h1.5v0h1h344v-277h-694v-2zM269 330q-7 0 -11.5 -4.5t-4.5 -11.5v-79q0 -7 4.5 -11.5t11.5 -4.5t11.5 4.5t4.5 11.5v79q0 7 -4.5 11.5t-11.5 4.5z" />
</svg>