<svg viewBox="0 0 256 256" xmlns="http://www.w3.org/2000/svg">
  <path transform="scale(1, -1) translate(0, -256)" fill="currentColor" d="M206 251h-156q-8 0 -13.5 -5.5t-5.5 -13.5v-220q0 -3 2 -5t5 -2t5 2t2 5v28h166v-28q0 -3 2 -5t5 -2t5.5 2t2.5 5v220q-1 8 -6.5 13.5t-13.5 5.5zM211 232v-101h-13l12 32q1 3 -0.5 5.5t-4 3.5t-5 0t-4.5 -4l-13 -36h-15l16 38q1 3 -0.5 5.5t-4 4t-5 0t-4.5 -3.5l-17 -44 h-18v105h71q2 0 3.5 -1.5t1.5 -3.5zM50 237h71v-105h-20v33q0 3 -2 5t-5 2t-5 -2t-2 -5v-33h-13v33q0 3 -2 5t-5 2t-5 -2t-2 -5v-33h-16v100q1 2 2.5 3.5t3.5 1.5zM45 117h166v-63h-166v63zM67 102q-3 0 -5 -2.5t-2 -5.5v-19q0 -3 2 -5t5 -2t5 2t2 5v19q0 3 -2 5.5t-5 2.5z " />
</svg>