<svg viewBox="0 0 256 256" xmlns="http://www.w3.org/2000/svg">
  <path transform="scale(1, -1) translate(0, -256)" fill="currentColor" d="M236 39l-36 185q-1 9 -9 14.5t-17 3.5l-32 -6q-2 7 -8 11t-13 4h-79q-9 0 -15.5 -6.5t-6.5 -16.5v-200q0 -10 7 -16.5t16 -6.5h79q9 0 16 6.5t7 16.5v144l28 -146q2 -9 9 -14q6 -4 13 -4h5l18 4q9 1 14 9.5t4 17.5zM130 228v-52h-41v61h32q4 0 6.5 -2.5t2.5 -6.5zM75 70 h-41v104h41v-104zM89 162h41v-64h-41v64zM43 237h32v-49h-41v40q0 4 2.5 6.5t6.5 2.5zM34 28v28h41v-37h-32q-4 0 -6.5 2.5t-2.5 6.5zM121 19h-32v65h41v-56q0 -4 -2.5 -6.5t-6.5 -2.5zM215 26l-19 -4q-4 -1 -7 1t-3 6l-38 194l28 5q4 1 7 -1t3 -6l36 -185q1 -4 -1.5 -7 t-5.5 -3z" />
</svg>