<svg viewBox="0 0 1024 1024" xmlns="http://www.w3.org/2000/svg">
  <path transform="scale(1, -1) translate(0, -960)" fill="currentColor" d="M245 163q13 13 31 21t38 8h449q31 0 54 23t23 54v582q0 31 -23 54t-54 23h-501q-31 0 -53.5 -23t-22.5 -54v-763v-2.5v-2.5q4 -48 40.5 -81.5t87.5 -33.5h505q7 0 11.5 4.5t4.5 11.5t-4.5 11.5t-11.5 4.5h-505q-40 0 -68 28t-28 66v2q0 19 7 36.5t20 30.5v0zM262 896h501 q18 0 31.5 -13.5t13.5 -31.5v-582q0 -18 -13.5 -31.5t-31.5 -13.5h-449q-26 0 -50 -9.5t-42 -27.5q-1 -1 -2 -2.5t-2 -3.5v670q0 18 12.5 31.5t31.5 13.5v0zM397 707h235q7 0 11.5 4.5t4.5 11.5t-4.5 11.5t-11.5 4.5h-235q-7 0 -11.5 -4.5t-4.5 -11.5t4.5 -11.5t11.5 -4.5z " />
</svg>