<svg viewBox="0 0 1024 1024" xmlns="http://www.w3.org/2000/svg">
  <path transform="scale(1, -1) translate(0, -960)" fill="currentColor" d="M498 323q7 0 11.5 4.5t4.5 11.5v283q1 -1 3 -2.5t3 -3.5l78 -112q4 -6 10.5 -7t12.5 4q6 3 7 9.5t-4 12.5l-78 112q-9 12 -21.5 19t-26.5 7q-15 0 -27.5 -7t-20.5 -19l-79 -112q-3 -6 -2 -12.5t5 -9.5q3 -1 5.5 -2t4.5 -1q4 0 7 1t6 5l78 112q1 1 2.5 3t4.5 3v-283 q0 -7 5 -11.5t11 -4.5zM965 456q-6 4 -12.5 3t-10.5 -6l-78 -112q-1 -1 -2.5 -3t-3.5 -4v285q0 7 -4.5 11.5t-11.5 4.5q-8 0 -12 -4.5t-4 -11.5v-283q-2 1 -4 2.5t-3 3.5l-78 112q-4 6 -10.5 7t-12.5 -3t-7 -10.5t4 -12.5l79 -112q8 -12 20.5 -18.5t27.5 -6.5v0v0 q14 0 26.5 6.5t21.5 18.5l78 112q5 5 3.5 11t-6.5 10v0zM141 114h705q8 0 12 4t4 12q0 7 -4 11.5t-12 4.5h-600v0v0v641q0 7 -4 11.5t-12 4.5q-7 0 -11.5 -4.5t-4.5 -11.5v-641v0v0h-73q-16 0 -30.5 -6t-25.5 -15v736q0 14 10.5 24.5t24.5 10.5h674q14 0 24.5 -10.5 t10.5 -24.5v-69q0 -7 4.5 -11.5t11.5 -4.5t11.5 4.5t4.5 11.5v69q1 27 -18.5 47t-47.5 20h-675q-28 0 -47.5 -20t-19.5 -47v-808v-1v-1q2 -35 27.5 -59t60.5 -24h705q8 0 12 4.5t4 11.5t-4 11.5t-12 4.5h-705q-24 0 -40 16.5t-16 39.5t16.5 40.5t39.5 17.5v0z" />
</svg>