<svg viewBox="0 0 256 256" xmlns="http://www.w3.org/2000/svg">
  <path transform="scale(1, -1) translate(0, -256)" fill="currentColor" d="M124 94q3 0 5.5 2t2.5 5v62l15 -23q2 -2 4.5 -2.5t5 1.5t3 4.5t-1.5 4.5l-19 28q-3 4 -6.5 6t-8 2t-8.5 -2t-6 -6l-20 -28q-1 -2 -0.5 -5t2.5 -4t5 -1t5 2l15 23v-62q0 -3 2.5 -5t4.5 -2zM243 132q-3 2 -5.5 1.5t-4.5 -2.5l-15 -23v63q0 3 -2.5 5t-5.5 2t-5 -2t-2 -5v-62 l-15 22q-2 2 -4.5 2.5t-5 -1t-3 -4.5t1.5 -5l19 -28q3 -4 7 -6t8 -2t8 2t6 6l20 28q1 2 0.5 5t-2.5 4zM35 41h177q3 0 5 2t2 5t-2 5.5t-5 2.5h-147v157q0 3 -2 5t-5 2t-5.5 -2t-2.5 -5v-157h-15q-7 0 -11 -3v178q0 3 2 4.5t4 1.5h168q3 0 4.5 -1.5t1.5 -4.5v-17q0 -3 2.5 -5 t5.5 -2t5 2t2 5v17q0 8 -6 14t-14 6h-169q-8 0 -14 -5.5t-6 -14.5v-203q1 -9 8 -16t17 -7h177q3 0 5 2t2 5t-2 5.5t-5 2.5h-177q-4 -1 -7.5 2t-3.5 8t3.5 8t7.5 3z" />
</svg>