<svg viewBox="0 0 1024 1024" xmlns="http://www.w3.org/2000/svg">
  <path transform="scale(1, -1) translate(0, -960)" fill="currentColor" d="M662 325q0 -71 -45 -82t-51 -11h-180v181h179q72 2 84.5 -36t12.5 -52zM552 488q1 0 43 9.5t42 72.5q0 25 -13 51.5t-72 26.5h-166v-160h166zM1006 778v-661q0 -67 -48 -116t-118 -49h-656q-70 0 -118 48.5t-48 117.5v660q0 69 48 117.5t118 48.5h661q66 0 113.5 -48.5 t47.5 -117.5zM763 314q0 36 -18 84.5t-89 63.5v2q38 17 60 47t22 75q0 12 -20 78t-152 66h-280v-576q213 0 268.5 0.5t93.5 10.5q23 7 69 36.5t46 112.5v0z" />
</svg>