<svg viewBox="0 0 256 256" xmlns="http://www.w3.org/2000/svg">
  <path transform="scale(1, -1) translate(0, -256)" fill="currentColor" d="M166 97q0 -15 -11 -20q-6 -3 -13 -3h-46v45h45q16 1 21 -9q4 -5 4 -13zM138 138v0q6 0 11 2q10 5 10 18q0 9 -3 13q-5 7 -18 7h-42v-40h42zM252 210v-165q0 -17 -12.5 -29t-29.5 -12h-164q-17 0 -29.5 12t-12.5 30v164q0 18 12.5 30t29.5 12h165q17 0 29 -12t12 -30z M191 94q0 13 -5 22q-6 12 -22 16v0q20 9 20 30v1q0 11 -5 19q-10 16 -37 16h-70v-144l70 1q12 0 20 2q29 9 29 37z" />
</svg>