<svg viewBox="0 0 1024 1024" xmlns="http://www.w3.org/2000/svg">
  <path transform="scale(1, -1) translate(0, -960)" fill="currentColor" d="M323 517q51 0 87 40.5t36 98.5q0 7 -4 11.5t-12 4.5q-7 0 -11.5 -4.5t-4.5 -11.5q0 -44 -26 -75.5t-65 -31.5q-38 0 -64.5 31.5t-26.5 75.5q0 7 -4.5 11.5t-11.5 4.5t-11.5 -4.5t-4.5 -11.5q0 -56 36.5 -97.5t86.5 -41.5zM808 674q-7 0 -11.5 -4.5t-4.5 -11.5 q0 -45 -26.5 -76.5t-64.5 -31.5q-37 0 -64 31.5t-27 76.5q0 7 -4.5 11.5t-11.5 4.5q-8 0 -12 -4.5t-4 -11.5q0 -58 35.5 -99t87.5 -41q50 0 86.5 41t36.5 99q0 6 -4.5 11t-11.5 5zM992 472q-5 95 -44 179q-40 83 -105 144.5t-150 97.5q-85 35 -181 35t-181 -35 q-85 -36 -150 -97.5t-105 -144.5q-39 -84 -44 -179v-12v-12q0 -19 1 -37.5t4 -36.5q14 -85 56 -160q42 -74 105 -128.5t144 -86.5q80 -31 170 -31t170 31q81 32 144 86.5t105 128.5q42 75 56 160q3 18 4 36.5t1 37.5v12v12zM512 0q-92 0 -174 35q-81 36 -142 97t-97 142 q-35 82 -35 174t35 174q36 81 96.5 142t142.5 97q82 35 174 35t174 -35q81 -36 142 -96.5t97 -142.5q35 -82 35 -174t-35 -174q-36 -81 -96.5 -142t-142.5 -97q-82 -35 -174 -35zM696 379h-368q-35 0 -60 -25t-25 -60v-32q0 -34 25 -59t60 -25h370q34 0 59 25t25 59v32 q-1 36 -25.5 60.5t-60.5 24.5zM749 264q0 -22 -15.5 -37.5t-37.5 -15.5h-368q-22 0 -37.5 15.5t-15.5 37.5v32q0 22 15.5 37.5t37.5 15.5h370q21 0 36.5 -15.5t15.5 -37.5v-32h-1z" />
</svg>