<svg viewBox="0 0 256 256" xmlns="http://www.w3.org/2000/svg">
  <path transform="scale(1, -1) translate(0, -256)" fill="currentColor" d="M81 142q14 0 23.5 11.5t9.5 26.5q0 3 -2 5.5t-5 2.5t-5 -2.5t-2 -5.5q0 -10 -6 -17t-14 -7t-13.5 7t-5.5 17q0 3 -2 5.5t-5 2.5t-5.5 -2.5t-2.5 -5.5q1 -16 11 -27t24 -11zM202 187q-3 0 -5 -2t-2 -5q0 -10 -6 -17t-14 -7t-13.5 7t-5.5 17q0 3 -2.5 5t-5.5 2t-5 -2t-2 -5 q0 -16 10 -27t24 -11t23.5 11t9.5 27q1 3 -1 5t-5 2zM128 251q-33 0 -61.5 -16.5t-45 -45t-16.5 -61.5t16.5 -61.5t45 -45t61.5 -16.5t61.5 16.5t45 45t16.5 61.5t-16.5 61.5t-45 45t-61.5 16.5zM128 19q-29 0 -53.5 14t-39 37.5t-16.5 51.5v6q0 30 15 54.5t39.5 39.5 t54.5 15t55 -15t39.5 -40t14.5 -54v-6q-1 -28 -16 -51.5t-39.5 -37.5t-53.5 -14zM174 114h-92q-10 0 -17 -7t-7 -17v-8q0 -10 7 -17t17 -7h92q10 0 17 7t7 17v8q0 10 -7 17t-17 7zM184 82q0 -4 -2.5 -7t-7.5 -3h-92q-4 0 -7 3t-3 7v8q0 4 3 7t7 3h92q5 0 7.5 -3t2.5 -7v-8z " />
</svg>