<svg viewBox="0 0 1024 1024" xmlns="http://www.w3.org/2000/svg">
  <path transform="scale(1, -1) translate(0, -960)" fill="currentColor" d="M432 397h-90q-7 0 -11.5 -4.5t-4.5 -11.5t4.5 -11.5t11.5 -4.5h90q7 0 11.5 4.5t4.5 11.5t-5 11.5t-11 4.5zM682 397h-90q-7 0 -11.5 -4.5t-4.5 -11.5t4.5 -11.5t11.5 -4.5h90q7 0 11.5 4.5t4.5 11.5t-5 11.5t-11 4.5zM904 493v232q5 1 9 5t4 9q0 7 -4.5 11.5t-11.5 4.5 h-24q-7 0 -11.5 -4.5t-4.5 -11.5q0 -6 3.5 -9.5t9.5 -4.5v-229h-58q-7 53 -47.5 89t-94.5 36h-319q-55 0 -95 -36t-47 -89h-69q-47 0 -79.5 -32.5t-32.5 -79.5v-6q0 -47 32.5 -79.5t79.5 -32.5h67q7 -53 48 -89t95 -36h318q55 0 95 36t47 89h66q47 0 79.5 32.5t32.5 79.5v6 q0 40 -25.5 70t-62.5 39v0zM64 378v6q0 34 23 57t57 23h66v-166h-66q-34 0 -57 23t-23 57zM784 283q0 -47 -32.5 -79.5t-79.5 -32.5h-317q-47 0 -79.5 32.5t-32.5 79.5v194q0 47 32.5 79.5t79.5 32.5h317q47 0 79.5 -32.5t32.5 -79.5v-194zM960 378q0 -34 -23 -57t-57 -23 h-64v166h64q34 0 57 -23t23 -57v-6z" />
</svg>