<svg viewBox="0 0 1024 1024" xmlns="http://www.w3.org/2000/svg">
  <path transform="scale(1, -1) translate(0, -960)" fill="currentColor" d="M258 378h-74q-7 0 -11.5 -4.5t-4.5 -11.5q0 -8 4.5 -12t11.5 -4h74q7 0 11.5 4t4.5 12q0 7 -4.5 11.5t-11.5 4.5zM664 378h-74q-7 0 -11.5 -4.5t-4.5 -11.5q0 -8 4.5 -12t11.5 -4h74q7 0 11.5 4t4.5 12q0 7 -4.5 11.5t-11.5 4.5zM915 422h-16v256q30 6 50.5 29.5 t20.5 55.5q0 36 -25.5 61.5t-61.5 25.5t-61 -25.5t-25 -61.5q0 -31 20 -55t50 -30v-256h-59h-1.5h-1.5v37q0 40 -28.5 68t-67.5 28h-119v58q0 32 -22.5 54.5t-53.5 22.5h-74v131q0 7 -4.5 11.5t-11.5 4.5t-11.5 -4.5t-4.5 -11.5v-131h-74q-32 0 -54 -23t-22 -54v-58h-130 q-40 0 -68 -28t-28 -68v-315q0 -40 28 -68t68 -28h582q40 0 68 28t28 68v37h2h2h107q32 0 54.5 22.5t22.5 54.5v88q-2 31 -25 53.5t-54 22.5v0zM829 763q0 23 15.5 39t38.5 16t39 -16t16 -39t-16 -38.5t-39 -15.5t-38.5 15.5t-15.5 38.5zM290 613q0 19 13 32t31 13h180 q19 0 31.5 -13.5t12.5 -31.5v-58h-268v58v0zM774 144q0 -26 -18.5 -45t-45.5 -19h-582q-26 0 -45 19t-19 45v315q0 27 19 45.5t45 18.5h582q27 0 45.5 -18.5t18.5 -45.5v-315zM960 258q0 -20 -13.5 -32.5t-31.5 -12.5h-107h-1.5h-1.5v177h1.5h1.5h107q19 0 32 -13t13 -31 v-88v0zM485 262q-7 0 -11.5 -4t-4.5 -12q0 -18 -13.5 -31t-31.5 -13t-31.5 13t-13.5 31q0 8 -4.5 12t-11.5 4t-11.5 -4t-4.5 -12q0 -31 23 -53.5t54 -22.5t54 22.5t23 53.5q0 6 -4.5 11t-11.5 5z" />
</svg>