<svg viewBox="0 0 256 256" xmlns="http://www.w3.org/2000/svg">
  <path transform="scale(1, -1) translate(0, -256)" fill="currentColor" d="M64 114h-18q-3 0 -5 -2.5t-2 -5.5t2 -5t5 -2h18q3 0 5.5 2t2.5 5t-2.5 5.5t-5.5 2.5zM166 114h-18q-3 0 -5.5 -2.5t-2.5 -5.5t2.5 -5t5.5 -2h18q3 0 5 2t2 5t-2 5.5t-5 2.5zM229 124h-1v59q8 3 13 9t5 14q0 11 -7.5 18t-17.5 7t-17 -7t-7 -16.5t5 -16t12 -8.5v-59h-9v6 q0 12 -8 20t-19 8h-27v11q0 9 -6.5 16t-15.5 7h-16v29q0 3 -2 5t-5 2t-5 -2t-2 -5v-29h-16q-9 0 -15.5 -7t-6.5 -16v-11h-29q-11 0 -19 -8t-8 -20v-78q0 -11 8 -19t19 -8h146q11 0 19 8t8 19v6h24q10 0 16.5 6.5t6.5 15.5v22q-1 10 -7.5 16t-15.5 6zM210 207q0 4 3.5 7 t7.5 3t7 -3t3 -7t-3 -7.5t-7 -3.5t-7.5 3t-3.5 8zM76 169q0 4 2 6.5t6 2.5h45q3 0 5.5 -2.5t2.5 -6.5v-11h-61v11zM190 52q0 -5 -3.5 -9t-9.5 -4h-145q-5 0 -9 4t-4 9v79q0 5 4 9t9 4h146q5 0 9 -4t4 -9v-79h-1zM237 80q0 -3 -2.5 -5.5t-5.5 -2.5h-25v39h25q3 0 5.5 -2.5 t2.5 -6.5v-22zM121 84q-3 0 -5 -2t-2 -5t-2.5 -5.5t-5.5 -2.5t-5.5 2.5t-2.5 5.5t-2 5t-5 2t-5 -2t-2 -4q0 -10 6.5 -16t15.5 -6t15.5 6.5t6.5 15.5q0 2 -2 4t-5 2z" />
</svg>