<svg viewBox="0 0 256 256" xmlns="http://www.w3.org/2000/svg">
  <path transform="scale(1, -1) translate(0, -256)" fill="currentColor" d="M108 118h-22q-3 0 -5.5 -2t-2.5 -5t2.5 -5t5.5 -2h22q3 0 5 2t2 5t-2 5t-5 2zM170 118h-22q-3 0 -5 -2t-2 -5t2 -5t5 -2h22q3 0 5.5 2t2.5 5t-2.5 5t-5.5 2zM229 142v53q3 2 3 5.5t-2 5.5t-5 2h-6q-3 0 -5 -2t-2 -5.5t3 -5.5v-52h-9q-2 13 -13 22t-25 9h-79q-14 0 -25 -9 t-14 -22h-14q-13 0 -22 -9.5t-9 -21.5v-2q0 -13 9 -22t22 -9h14q3 -14 14 -22.5t25 -8.5h79q14 0 25 8.5t13 22.5h14q13 0 22 9t9 22v2q0 10 -6 18.5t-16 11.5zM19 110v2q0 7 5 12t12 5h14v-35h-14q-7 -1 -12 4t-5 12zM168 62h-79q-10 0 -17.5 7.5t-7.5 17.5v48q0 10 7 17.5 t18 7.5h79q10 0 17 -6.5t8 -15.5v-4v-46l-1 -2l1 -2q-1 -9 -8 -15.5t-17 -6.5zM237 110q0 -7 -5 -12t-12 -5h-13v36h13q7 0 12 -5t5 -12v-2z" />
</svg>