<svg viewBox="0 0 256 256" xmlns="http://www.w3.org/2000/svg">
  <path transform="scale(1, -1) translate(0, -256)" fill="currentColor" d="M240 214l-31 14q-8 4 -17 -1l-24 -14q-2 -1 -4 0l-30 15q-4 2 -8.5 2t-8.5 -2l-26 -14q-2 -2 -4 0l-29 14q-8 4 -17 0l-27 -16q-4 -2 -6.5 -6.5t-2.5 -9.5v-142q0 -11 8.5 -19.5t20.5 -8.5h188q12 0 20.5 8.5t8.5 19.5v144q0 5 -3 9t-8 7zM124 215q2 2 4 0l30 -15l5 -1 v-159h-70v159l5 2zM19 55v142q0 2 2 3l27 15l2 1l2 -1l27 -13v-162h-45q-6 0 -10.5 4.5t-4.5 10.5zM237 55q0 -6 -4.5 -10.5t-10.5 -4.5h-45v162l22 13q2 2 4 0l32 -14q2 -2 2 -3v-143z" />
</svg>