<svg viewBox="0 0 1024 1024" xmlns="http://www.w3.org/2000/svg">
  <path transform="scale(1, -1) translate(0, -960)" fill="currentColor" d="M802 722q-6 4 -12 7t-12 4q-6 37 -30 53.5t-44 19.5q-2 17 -9.5 31t-19.5 24q-14 12 -29.5 16.5t-26.5 4.5q-18 32 -43.5 39t-33.5 7q-6 1 -18.5 1t-38.5 -1q-36 -2 -54.5 -19t-25.5 -29q-43 -4 -61.5 -28t-23.5 -47q-37 -6 -53.5 -29t-20.5 -45q-8 -1 -14.5 -4.5 t-12.5 -8.5q-9 -10 -10.5 -21t-0.5 -12l27 -381q3 -40 18 -67t16 -29q26 -36 57 -53.5t50 -23.5l-54 -142q-2 -4 -1.5 -8t2.5 -7q3 -3 6 -4.5t7 -1.5h349q3 0 6.5 2t6.5 4q2 3 2 7t-1 8l-54 142q13 4 34 14.5t46 30.5q42 36 51.5 81t9.5 47q0 5 5 61q4 55 9 122t9 127 q4 59 4 72q2 15 -2.5 23t-8.5 13v0zM336 774q6 0 11 5t5 11q0 5 8.5 31.5t55.5 26.5q5 0 9 3t5 8l12 17t43 18q30 2 40 1t11 -1h2.5h2.5t21.5 -4.5t31.5 -31.5q2 -5 6.5 -7.5t9.5 -2.5l15 -1t28 -13q8 -8 13 -19.5t6 -25.5q0 -6 5 -10.5t11 -4.5q4 0 26 -5.5t30 -35.5h-464 q4 12 15.5 26t40.5 15zM360 0l48 128h205l48 -128h-301v0zM757 306l-8 -38.5t-42 -67.5q-35 -29 -58 -35.5t-22 -6.5h-227q-6 2 -41 15t-63 53l-12.5 23t-14.5 55l-29 384l0.5 3.5t2.5 6.5q3 2 7.5 3t10.5 0v0h1h501v0v0v0v0v0v0h1h1l6 -0.5t10 -2.5q1 0 2 -3t1 -9 q0 -12 -4 -73q-4 -60 -9.5 -128t-9.5 -123t-4 -56v0z" />
</svg>