<svg viewBox="0 0 256 256" xmlns="http://www.w3.org/2000/svg">
  <path transform="scale(1, -1) translate(0, -256)" fill="currentColor" d="M202 198q-2 3 -5 3q-2 8 -7 12.5t-12 6.5q-1 8 -7 13t-14 6q-4 6 -10 8.5t-10 3t-16 -0.5q-8 0 -13 -3.5t-8 -8.5q-9 0 -14.5 -5.5t-7.5 -12.5q-8 -2 -12.5 -7t-6.5 -11q-2 -1 -6 -4v0q-4 -4 -4 -11l7 -95q1 -9 5 -18q2 -6 4 -8q9 -12 25 -19l-12 -33q-1 -3 1 -6t5 -3h88 q3 0 5 3t1 6l-12 33q8 3 17.5 11t14.5 21q2 8 2 13l4 46q3 44 3 50.5t-5 9.5zM132 238h-1l-1 1zM134 237q-1 0 -2 1zM84 207q3 0 5 2t2 5t2 6q3 5 11 5q2 0 4 1.5t3 3.5l1 2q1 2 3.5 3.5t6.5 1.5h12h2q7 0 10 -7q2 -5 7 -5h3q4 -1 6.5 -3.5t2.5 -8.5q1 -3 2.5 -4.5t4.5 -1.5 q6 0 9 -5h-107q4 4 10 5zM94 19l10 26h48l10 -26h-68zM186 92q0 -2 -1 -4q-1 -5 -3.5 -10.5t-7 -9.5t-8.5 -6t-8 -3h-2h-56q-4 1 -9 3q-9 5 -15 12l-3 6q-3 7 -3 13l-7 95h129v0q1 -5 -2 -41z" />
</svg>