<svg viewBox="0 0 256 256" xmlns="http://www.w3.org/2000/svg">
  <path transform="scale(1, -1) translate(0, -256)" fill="currentColor" d="M245 90l-63 38q0 10 -4 20t-12 18q-16 16 -38 16l-38 63q-3 6 -10.5 6t-10.5 -6l-23 -35l-36 -23q-6 -4 -6 -11t7 -11l63 -37q0 -11 4 -21t11.5 -17.5t17.5 -11.5t20 -4h1l37 -63q3 -6 11 -6v0q7 0 11 6l23 35l35 23q6 4 6 11t-6 10zM20 176l35 23q2 0 2 2l23 35l33 -56 q-13 -4 -23 -14t-14 -23zM100 156q12 12 28 12t28 -11.5t12 -28t-11.5 -28.5t-28 -12t-28.5 11.5t-12 28.5t12 28zM201 57q-2 0 -2 -2l-23 -35l-33 56q13 4 23 14t14 23l56 -33z" />
</svg>