<svg viewBox="0 0 256 256" xmlns="http://www.w3.org/2000/svg">
  <path transform="scale(1, -1) translate(0, -256)" fill="currentColor" d="M251 77q-1 6 -4 10.5t-8 7.5l-54 31l5 6q6 5 6 13t-6 14l-31 31q-6 6 -14 6t-13 -6l-6 -5l-31 54q-6 11 -18 12t-21 -7l-44 -44q-8 -9 -7 -21t12 -18l54 -32l-5 -5q-6 -6 -6 -14t6 -13l31 -31q6 -6 14 -6t13 6l6 5l31 -54q7 -11 18 -12l3 -1q11 0 18 8l44 44q8 9 7 21z M24 173q-4 2 -4.5 7.5t2.5 9.5l44 44q4 3 8 3h1q5 -1 8 -5l34 -58l-35 -35zM107 76l-31 31q-2 1 -2 3t2 4l66 66q2 2 4 2t3 -2l31 -31q2 -2 2 -4t-2 -3l-66 -66q-1 -1 -3.5 -1t-3.5 1zM234 66l-44 -44q-4 -4 -9 -3.5t-8 5.5l-33 57l35 35l57 -33q5 -3 5.5 -8t-3.5 -9z" />
</svg>