<svg viewBox="0 0 1024 1024" xmlns="http://www.w3.org/2000/svg">
  <path transform="scale(1, -1) translate(0, -960)" fill="currentColor" d="M706 -32v0v0q-11 0 -19.5 5.5t-14.5 13.5l-152 258q-41 -1 -81 13.5t-71 45.5t-46.5 71t-12.5 81l-258 152q-8 5 -13.5 13.5t-5.5 18.5t4.5 19t13.5 15l144 92l92 144q5 9 14 13.5t18 4.5q10 0 19 -5.5t13 -13.5l152 -258q41 1 81 -13.5t71 -45.5q32 -31 47 -71t13 -81 l259 -152q8 -5 13.5 -13.5t5.5 -18.5t-4.5 -19t-13.5 -15l-144 -92l-92 -144q-5 -9 -14 -13.5t-18 -4.5v0zM555 250l146 -247q1 -2 2 -2.5t3 -0.5q1 0 2.5 0.5t3.5 2.5l94 147l3 3l2 2l147 95q3 1 3.5 3t0.5 3t-0.5 2.5t-3.5 2.5l-246 145q-7 -28 -20.5 -54t-35.5 -48 t-47.5 -35t-53.5 -19v0zM512 619q-32 0 -64 -12t-58 -37q-50 -51 -50 -122t50 -122q24 -24 55.5 -36.5t66.5 -12.5t66.5 12.5t55.5 36.5t36.5 55.5t12.5 66.5t-12.5 66.5t-36.5 55.5q-26 25 -58 37t-64 12zM318 896q-1 0 -2 -0.5t-2 -2.5l-95 -147q-1 -2 -2 -3t-3 -2 l-147 -95q-2 -1 -2.5 -2t-0.5 -2q0 -2 0.5 -3t2.5 -2l247 -146q6 28 19 53.5t35 47.5t47.5 35t53.5 19l-146 247q-1 2 -2 2.5t-3 0.5v0v0v0z" />
</svg>