<svg viewBox="0 0 1024 1024" xmlns="http://www.w3.org/2000/svg">
  <path transform="scale(1, -1) translate(0, -960)" fill="currentColor" d="M992 242q-2 20 -13.5 36.5t-28.5 27.5l-230 136l32 32q10 9 14.5 20.5t4.5 23.5t-4.5 24.5t-14.5 20.5l-125 125q-18 18 -45 18t-46 -18l-32 -32l-134 229q-11 18 -27.5 28.5t-36.5 12.5q-21 3 -39.5 -3.5t-32.5 -20.5l-176 -176q-15 -14 -21.5 -32.5t-2.5 -39.5 q3 -20 13.5 -36.5t27.5 -27.5l229 -136l-32 -32q-10 -9 -14.5 -20.5t-4.5 -23.5q0 -14 4.5 -25.5t14.5 -19.5l125 -125q9 -10 21 -14.5t24 -4.5t24 4.5t20 14.5l32 32l135 -229q11 -18 27 -28.5t37 -12.5h5.5h5.5q17 0 33 6.5t28 18.5l176 176q15 13 22 32t5 39v0zM91 618 q-11 6 -18 17t-9 23t2 24t14 22l176 176q8 8 18 12t20 4h4h3q13 -1 23.5 -8t16.5 -19l139 -237l-155 -155l-234 141v0zM464 230q-10 -9 -23 -9t-22 9l-125 125q-4 5 -6.5 11t-2.5 12t2.5 11.5t6.5 10.5l264 264q5 5 11 7.5t12 2.5t11.5 -2.5t10.5 -7.5l125 -125 q5 -5 7.5 -10.5t2.5 -11.5t-2.5 -12t-7.5 -11l-264 -264v0zM944 192l-176 -176q-10 -10 -21.5 -13.5t-24.5 -2.5q-14 1 -24 8t-16 19l-140 237l156 155l236 -139q11 -6 18 -17t10 -23q0 -14 -4 -26t-14 -22v0z" />
</svg>