<svg viewBox="0 0 256 256" xmlns="http://www.w3.org/2000/svg">
  <path transform="scale(1, -1) translate(0, -256)" fill="currentColor" d="M247 148q-5 6 -13 6h-76l-22 34l24 37q2 3 1 5.5t-3 4t-5 1t-5 -2.5l-21 -33l-21 33q-1 2 -4 2.5t-5.5 -1t-3 -4t0.5 -5.5l25 -37l-23 -35h-74q-8 0 -13 -5.5t-4 -12.5q2 -29 17.5 -53t40.5 -39v-7q0 -7 5 -12t12 -5h96q7 0 12 5t5 12v7q13 9 23 19q15 14 24 33t11 40 q0 7 -4 13zM127 175l14 -21h-28zM20 138q0 1 2 1h212q1 0 2 -0.5t1 -2.5q-1 -10 -5 -24h-208q-4 10 -5 24q0 2 1 2v0zM206 72q-10 -11 -24 -18q-3 -2 -3 -6v-11q0 -3 -3 -3h-96q-3 0 -3 3v11q0 4 -3 6q-29 15 -44 44h196q-8 -15 -20 -26z" />
</svg>