<svg viewBox="0 0 1024 1024" xmlns="http://www.w3.org/2000/svg">
  <path transform="scale(1, -1) translate(0, -960)" fill="currentColor" d="M978 685q-9 8 -19.5 12.5t-22.5 4.5h-848q-12 0 -22.5 -4.5t-19.5 -12.5q-7 -9 -11 -20t-3 -22q5 -56 24 -109q18 -53 48 -99t70 -85q41 -39 90 -67v-35q0 -23 16 -38.5t38 -15.5h386q23 0 38.5 15.5t15.5 38.5v35q27 16 51.5 34.5t46.5 40.5q29 29 52 62t40 69.5 t28 75.5t14 80q3 11 -0.5 21t-11.5 19v0zM835 381q-21 -22 -46 -40.5t-53 -33.5q-4 -2 -6 -5.5t-2 -8.5v-45q0 -10 -7 -16t-15 -6h-386q-10 0 -16 7t-6 15v45q0 5 -2.5 8.5t-5.5 5.5q-64 34 -112 85.5t-77 114.5h821q-16 -35 -37.5 -67t-49.5 -59v0zM936 539h-846h-0.5h-1.5 q-10 25 -16 52.5t-8 54.5q0 5 1.5 9.5t4.5 8.5q4 4 8.5 6t9.5 2h850q4 0 9 -2t8 -6q4 -4 5.5 -8.5t1.5 -9.5q-4 -27 -10 -54.5t-16 -52.5z" />
</svg>