<svg viewBox="0 0 1024 1024" xmlns="http://www.w3.org/2000/svg">
  <path transform="scale(1, -1) translate(0, -960)" fill="currentColor" d="M978 520q-9 8 -19.5 13t-22.5 5h-312l-96 150l102 157q4 6 3 12.5t-7 9.5q-6 4 -12.5 2.5t-10.5 -7.5l-94 -145l-95 145q-3 6 -9.5 7.5t-12.5 -2.5q-6 -3 -7 -9.5t2 -12.5l103 -157l-98 -149h-304q-12 0 -22.5 -4.5t-19.5 -12.5q-7 -9 -11 -20t-3 -22q5 -56 24 -109 q18 -53 48 -99.5t70 -84.5q41 -39 90 -67v-35q0 -23 16 -39t38 -16h386q23 0 38.5 16t15.5 39v35q27 16 51.5 34t46.5 41q29 29 52 62q23 34 40.5 70t27.5 75q11 39 14 80q3 8 -0.5 19t-11.5 19v0zM509 658l78 -120h-157l79 120v0zM835 214q-21 -21 -46 -40t-53 -33 q-4 -3 -6 -6.5t-2 -8.5v-44q0 -10 -6.5 -16.5t-15.5 -6.5h-386q-10 0 -16 6.5t-6 16.5v44q0 5 -2.5 8.5t-5.5 6.5q-63 35 -111 86t-77 114h821q-17 -35 -38.5 -67t-49.5 -60zM936 374h-846h-0.5h-1.5q-10 26 -16 53t-8 55q0 4 1.5 9t4.5 8q4 4 8.5 6t9.5 2h850q4 0 9 -2 t8 -6q4 -3 5.5 -8t1.5 -9q-4 -28 -10 -55t-16 -53z" />
</svg>