<svg viewBox="0 0 1024 1024" xmlns="http://www.w3.org/2000/svg">
  <path transform="scale(1, -1) translate(0, -960)" fill="currentColor" d="M978 512q-9 8 -19.5 13t-22.5 5h-848q-12 0 -22.5 -5t-19.5 -13q-7 -8 -11 -19.5t-3 -22.5q5 -56 24 -109q18 -52 48 -98.5t70 -85.5q41 -38 90 -67v-16q0 -31 22 -53t53 -22h346q31 0 53 22t22 53v16q26 16 51 34.5t47 41.5q28 28 52 61q23 33 40 69.5t28 74.5 q10 39 14 79q1 12 -2.5 23t-11.5 19zM835 208q-21 -22 -46 -40.5t-53 -33.5q-4 -2 -6 -5.5t-2 -8.5v-24q0 -18 -12.5 -30.5t-30.5 -12.5h-346q-18 0 -30.5 12.5t-12.5 30.5v24q0 5 -2 8.5t-6 5.5q-62 35 -110 86.5t-77 113.5h821q-16 -34 -37.5 -66t-49.5 -60v0zM936 366 h-846h-0.5h-1.5q-10 26 -16 53t-8 55q0 4 1.5 9t4.5 8q4 4 8.5 6t9.5 2h850q4 0 9 -2t8 -6q4 -3 5.5 -8t1.5 -9q-4 -28 -10 -54.5t-16 -53.5zM275 653q7 0 11.5 4.5t4.5 11.5v190q0 7 -4.5 11.5t-11.5 4.5t-11.5 -4.5t-4.5 -11.5v-190q0 -6 4.5 -11t11.5 -5zM749 653 q7 0 11.5 4.5t4.5 11.5v190q0 7 -4.5 11.5t-11.5 4.5t-11.5 -4.5t-4.5 -11.5v-190q0 -6 5 -11t11 -5zM512 653q7 0 11.5 4.5t4.5 11.5v190q0 7 -4.5 11.5t-11.5 4.5t-11.5 -4.5t-4.5 -11.5v-190q0 -6 4.5 -11t11.5 -5z" />
</svg>