<svg viewBox="0 0 256 256" xmlns="http://www.w3.org/2000/svg">
  <path transform="scale(1, -1) translate(0, -256)" fill="currentColor" d="M244 168q-7 5 -14 2l-67 -23q-5 10 -14.5 15.5t-20.5 5.5t-20.5 -5.5t-14.5 -15.5l-67 23q-7 2 -14 -2.5t-7 -13.5v-52q0 -9 7 -14q4 -3 9 -3q2 0 5 1l67 22q5 -9 14.5 -14.5t20.5 -5.5t20.5 5.5t14.5 14.5l67 -22q3 -1 5 -1q5 0 9 3q7 5 7 14v52q0 8 -7 14zM22 100 q-1 -1 -2 0t-1 2v52q0 2 1 2.5t2 -0.5l67 -22l-1 -6l1 -6zM128 102q-11 0 -18.5 7.5t-7.5 18.5t7.5 18.5t18.5 7.5t18.5 -7.5t7.5 -18.5t-7.5 -18.5t-18.5 -7.5zM237 102q0 -2 -1 -2.5t-2 0.5l-66 22v6v6l66 22q1 1 2 0t1 -2v-52z" />
</svg>