<svg viewBox="0 0 256 256" xmlns="http://www.w3.org/2000/svg">
  <path transform="scale(1, -1) translate(0, -256)" fill="currentColor" d="M242 186q-4 4 -9 5t-10 0q-35 -7 -59 -27h-72q-24 20 -59 27q-11 2 -19.5 -4.5t-8.5 -18.5v-80q0 -11 9 -19q7 -5 14 -5h5q36 7 61 29h68q24 -22 61 -29h5q8 0 14 5q9 7 9 19v80q0 5 -2 10t-7 8zM97 128v23h62v-43h-62v20zM30 78q-5 0 -8 2.5t-3 7.5v80q0 5 2.5 7.5 t6.5 2.5h2q32 -6 53 -24v-18h-9q-3 0 -5 -2.5t-2 -5.5t2 -5t5 -2h9v-19q-21 -17 -53 -24zM237 88q0 -5 -3.5 -8t-7.5 -2q-31 6 -52 24v18h10q3 0 5 2.5t2 5.5t-2 5t-5 2h-10v19q20 17 52 24q5 0 8 -2.5t3 -7.5v-80z" />
</svg>