<svg viewBox="0 0 1024 1024" xmlns="http://www.w3.org/2000/svg">
  <path transform="scale(1, -1) translate(0, -960)" fill="currentColor" d="M970 595q-11 7 -23.5 9t-24.5 -2l-277 -93q-18 37 -53.5 61t-79.5 24t-80 -24t-53 -61l-278 94q-12 4 -24.5 2.5t-23.5 -8.5q-10 -9 -15.5 -20t-5.5 -23v-212q0 -13 6 -23.5t16 -19.5q8 -5 15 -7t16 -2q5 0 9 1l8 2l277 93q18 -38 53.5 -61.5t79.5 -23.5t80 23.5t53 61.5 l277 -93q3 -1 7.5 -2t9.5 -1q9 0 17 2t14 7q10 7 16 18.5t6 24.5v212q0 12 -6 23t-16 18v0zM91 323q-5 -1 -9.5 -0.5t-9.5 3.5q-4 3 -6 7.5t-2 8.5v212q0 4 2 8.5t6 7.5q4 2 9 3t10 0l277 -93q-1 -7 -2 -15.5t-1 -16.5t1 -16l2 -16l-277 -93v0zM512 333q-48 0 -81.5 33.5 t-33.5 81.5t33.5 81.5t81.5 33.5t81.5 -33.5t33.5 -81.5t-33.5 -81.5t-81.5 -33.5zM960 342q0 -4 -2 -8.5t-6 -7.5q-4 -2 -9 -3t-10 0l-277 93q1 7 2 15.5t1 16.5t-1 16l-2 16l277 93q5 1 9.5 0.5t9.5 -3.5q4 -3 6 -7.5t2 -8.5v-212v0z" />
</svg>