<svg viewBox="0 0 1024 1024" xmlns="http://www.w3.org/2000/svg">
  <path transform="scale(1, -1) translate(0, -960)" fill="currentColor" d="M962 672q-15 12 -32.5 16.5t-35.5 1.5q-68 -14 -127 -41t-105 -67h-300q-58 50 -121 74t-111 34q-18 3 -36 -1.5t-32 -16.5t-22 -28.5t-8 -35.5v-322q0 -18 8 -35t22 -29q11 -9 24.5 -14t27.5 -5q3 0 6.5 0.5t7.5 1.5q72 13 133.5 42t108.5 71v1t1 1h283l0.5 -1t1.5 -1 q59 -52 125 -78t115 -35q4 -1 7.5 -1.5t8.5 -0.5q14 0 27.5 5t25.5 14q14 12 22 28.5t8 35.5v324q-2 18 -10.5 34.5t-22.5 27.5v0zM374 448v0v0v0v0v102h274v-196h-274v94v0zM123 237q-11 -3 -21 0.5t-19 10.5t-14 17.5t-5 20.5v324q0 10 4.5 20.5t13.5 17.5q7 6 15 8.5 t17 2.5h4.5t4.5 -1q46 -9 106.5 -31.5t112.5 -69.5v-93h-44q-8 0 -12 -4.5t-4 -11.5t4 -11.5t12 -4.5h44v-93q-42 -37 -98 -63t-121 -39v0zM960 286q0 -10 -4.5 -20.5t-13.5 -17.5q-8 -7 -18.5 -9.5t-22.5 -1.5q-46 8 -106.5 31t-112.5 70v94h52q8 0 12 4.5t4 11.5t-4 11.5 t-12 4.5h-52v93q43 37 98.5 63t121.5 38q11 2 21.5 -1t18.5 -11q9 -7 14.5 -17t5.5 -21v-322h-2z" />
</svg>