<svg viewBox="0 0 256 256" xmlns="http://www.w3.org/2000/svg">
  <path transform="scale(1, -1) translate(0, -256)" fill="currentColor" d="M193 99q-2 2 -5 2t-5 -2l-18 -19q-2 -2 -2 -4.5t2.5 -5t5 -2t5.5 2.5l5 6v-31q0 -3 2 -5t5 -2t5.5 2t2.5 5v31l5 -6q2 -2 5 -2t5 2t2 5t-1 5zM212 131v45q0 9 -7 17l-40 45q-7 8 -19 8h-75q-11 0 -19 -8l-40 -45q-6 -7 -6 -17v-119q0 -11 7.5 -18.5t18.5 -7.5h109 q9 -10 21 -16t26 -6q18 0 32.5 8.5t23 23t8.5 31.5q-1 20 -12 36t-28 23zM155 228l34 -38h-73v42h30q5 0 9 -4zM62 228q4 4 9 4h30v-42h-73zM31 45q-5 0 -8.5 3.5t-3.5 8.5v119h179v-41q-7 1 -11 1q-17 0 -31.5 -8.5t-23 -23t-8.5 -31.5q0 -14 6 -28h-99zM188 24 q-21 0 -35.5 14t-14.5 34.5t14.5 35t35 14.5t35 -14.5t14.5 -35t-14.5 -34.5t-34.5 -14z" />
</svg>