<svg viewBox="0 0 1024 1024" xmlns="http://www.w3.org/2000/svg">
  <path transform="scale(1, -1) translate(0, -960)" fill="currentColor" d="M813 290q-5 4 -11.5 4t-11.5 -4l-100 -101q-5 -5 -5 -11.5t5 -11.5q2 -2 5 -3t6 -1q2 0 5.5 1t5.5 3l101 101q5 4 5 11t-5 12v0zM698 307l-4 5q-3 6 -9.5 7t-12.5 -2q-6 -4 -7 -10.5t2 -12.5l3 -4q3 -4 6.5 -5.5t6.5 -1.5t5 1t5 2q6 4 7 10t-2 11zM835 165q-6 3 -12.5 2 t-9.5 -5q-4 -5 -3 -12t6 -11l5 -3q2 -1 4.5 -2t4.5 -1q4 0 7.5 1.5t5.5 4.5q4 5 3 12t-6 11l-5 3v0zM837 453v185q0 17 -6 33t-18 28l-162 181q-13 14 -30.5 22t-38.5 8h-297q-19 0 -37.5 -8t-31.5 -22l-160 -179q-11 -12 -17.5 -28t-6.5 -33v-475q0 -39 27 -65t64 -26h443 q34 -40 81.5 -63.5t102.5 -23.5q50 0 94 19t77 52t52 77t19 94q0 75 -44 136t-111 88v0zM629 858l155 -175h-334v195h134q12 0 24 -5.5t21 -14.5zM240 858q8 9 20 14t25 5h134v-194h-336l157 175v0zM123 104q-25 0 -42 17.5t-17 41.5v475q0 4 1 7.5t1 7.5q1 -1 3 -1.5 t3 -0.5h722q2 0 3.5 0.5t2.5 1.5q1 -4 1.5 -7.5t0.5 -7.5v-176q-14 3 -27 5t-26 2q-50 0 -94 -19t-77 -52t-52 -77t-19 -94q0 -33 9 -64t25 -59h-418v0zM750 18q-43 0 -81 16q-38 17 -66.5 45.5t-45.5 66.5q-16 38 -16 81t16 82q17 38 45.5 66.5t66.5 44.5q38 17 81 17 q44 0 82 -17q38 -16 66.5 -44.5t44.5 -66.5q17 -39 17 -82t-17 -81q-16 -38 -44.5 -66.5t-66.5 -45.5q-38 -16 -82 -16z" />
</svg>