<svg viewBox="0 0 1024 1024" xmlns="http://www.w3.org/2000/svg">
  <path transform="scale(1, -1) translate(0, -960)" fill="currentColor" d="M952 179h-54q2 3 3 5t1 5v62q0 43 -30 73t-72 30q-18 0 -34.5 -6t-31.5 -18q-4 -5 -5 -11.5t4 -11.5t11 -5.5t11 4.5q10 8 21.5 12t23.5 4q29 0 49.5 -21t20.5 -50v-62q0 -3 1.5 -6t3.5 -4h-230q-7 0 -11.5 -4.5t-4.5 -11.5v-179q0 -7 4.5 -11.5t11.5 -4.5h305 q8 0 12 4.5t4 11.5v179q2 6 -3 11t-11 5v0zM936 0h-275v147h273v-147h2zM477 56h-323q-28 0 -47 19t-19 47v515q0 3 1 7t1 7h798q1 -3 1.5 -7t0.5 -7v-159q0 -7 4 -11.5t12 -4.5q7 0 11.5 4.5t4.5 11.5v159q0 18 -7 35t-19 30l-171 194q-15 16 -33.5 24t-40.5 8h-323 q-20 0 -39.5 -8t-34.5 -24l-172 -195q-12 -13 -19 -30.5t-7 -35.5v-513q0 -41 28.5 -69.5t69.5 -28.5h323q7 0 11.5 4.5t4.5 11.5t-4.5 11.5t-11.5 4.5v0zM701 874l171 -191h-366v213h145q15 0 27.5 -6t22.5 -16v0zM278 874q10 10 23 16t27 6h146v-213h-365z" />
</svg>