<svg viewBox="0 0 256 256" xmlns="http://www.w3.org/2000/svg">
  <path transform="scale(1, -1) translate(0, -256)" fill="currentColor" d="M145 5q-8 0 -16 3q-12 6 -18 18.5t-3 25.5l-95 45q-3 1 -4 3.5t0.5 5.5t4 4t5.5 -1l95 -44q7 9 18 13.5t22 1.5l49 104q1 2 4 3l31 11q2 1 5 0t3.5 -3.5t-0.5 -5.5t-4 -3l-28 -10l-47 -102q11 -8 15 -21.5t-2 -25.5q-7 -15 -22 -20q-6 -2 -13 -2zM145 67q-7 0 -13 -3.5 t-9 -10.5q-4 -9 -0.5 -18.5t12.5 -13.5t18 -1t13.5 12.5t1 19t-12.5 13.5q-5 2 -10 2zM114 91q-1 0 -3 1l-83 39q-2 1 -3.5 3.5t-0.5 5.5l31 65l-8 3q-2 1 -3.5 4t0.5 6l13 29q1 3 4 3.5t5 -0.5l112 -52q3 -1 4 -4t0 -6l-14 -28q-1 -3 -4 -4t-5 0l-8 4l-31 -65q0 -2 -2 -3 t-4 -1zM40 140l70 -32l28 58l-71 33zM108 195l50 -23l8 16l-100 47l-7 -17z" />
</svg>