<svg viewBox="0 0 256 256" xmlns="http://www.w3.org/2000/svg">
  <path transform="scale(1, -1) translate(0, -256)" fill="currentColor" d="M22 172h208v-46q0 -3 2 -5.5t5 -2.5t5 2.5t2 5.5v44q0 11 -7 20l-47 52q-9 9 -21 9h-86q-13 0 -22 -9l-46 -52q-7 -8 -7 -20v-136q0 -12 8 -20.5t20 -8.5h66q3 0 5 2t2 5t-2 5t-5 2h-66q-6 0 -10 4.5t-4 10.5v136v2zM180 232l41 -46h-88v51h36q7 0 11 -5zM72 232 q4 5 11 5h36v-51h-89zM161 45h5q9 0 15.5 6.5t6.5 15t-6.5 15t-15.5 6.5h-20q-3 0 -5 -2.5t-2 -5.5t2 -5t5 -2h20q3 0 5.5 -2t2.5 -5t-2.5 -5t-5.5 -2h-5q-9 0 -15.5 -6.5t-6.5 -15t6.5 -15t15.5 -6.5h19q3 0 5.5 2.5t2.5 5.5t-2.5 5t-5.5 2h-19q-3 0 -5.5 2t-2.5 5t2.5 5 t5.5 2zM241 85q-3 0 -5 -2t-2 -5v-14h-19v14q0 3 -2 5t-5 2t-5.5 -2t-2.5 -5v-21q0 -3 2.5 -5t5.5 -2h26v-27q0 -3 2 -5t5 -2t5 2t2 5v55q0 3 -2 5t-5 2z" />
</svg>