<svg viewBox="0 0 1024 1024" xmlns="http://www.w3.org/2000/svg">
  <path transform="scale(1, -1) translate(0, -960)" fill="currentColor" d="M77 635h853q1 -5 2 -9t1 -8v-181q0 -7 4.5 -11.5t11.5 -4.5t11.5 4.5t4.5 11.5v181q0 19 -7 36.5t-20 31.5l-186 208q-14 17 -34.5 25.5t-42.5 8.5h-344q-21 0 -41.5 -9t-35.5 -25l-185 -208q-13 -14 -19.5 -31.5t-6.5 -36.5v-548q0 -42 30.5 -72t72.5 -30h260 q8 0 12 4.5t4 11.5t-4 11.5t-12 4.5h-260q-29 0 -50 21t-21 49v548q0 4 0.5 9t1.5 8v0zM728 872l184 -205h-394v229h157q16 0 29.5 -6t23.5 -18zM277 872q9 11 23 17.5t30 6.5h156v-229h-392l183 205v0zM643 128h21q30 0 52 22t22 52t-22 51.5t-52 21.5h-78q-8 0 -12 -4.5 t-4 -11.5t4 -11.5t12 -4.5h78q17 0 29.5 -12.5t12.5 -28.5q0 -17 -12.5 -29.5t-29.5 -12.5h-21q-30 0 -51.5 -22t-21.5 -52t21.5 -51.5t51.5 -21.5h79q7 0 11.5 4.5t4.5 11.5t-4.5 11.5t-11.5 4.5h-79q-17 0 -29 12.5t-12 28.5q0 17 11.5 29.5t29.5 12.5zM965 264 q-7 0 -11.5 -4.5t-4.5 -11.5v-69h-101v69q0 7 -4.5 11.5t-11.5 4.5t-11.5 -4.5t-4.5 -11.5v-85q0 -7 4.5 -11.5t11.5 -4.5h117v-118q0 -7 4.5 -11.5t11.5 -4.5t11.5 4.5t4.5 11.5v219q0 7 -4.5 11.5t-11.5 4.5z" />
</svg>