<svg viewBox="0 0 1024 1024" xmlns="http://www.w3.org/2000/svg">
  <path transform="scale(1, -1) translate(0, -960)" fill="currentColor" d="M805 510v140q0 16 -6 31.5t-17 27.5l-153 173q-12 14 -29.5 21t-36.5 7h-288q-19 0 -36 -7.5t-29 -20.5l-156 -173q-10 -12 -16 -27.5t-6 -31.5v-456q0 -38 26 -63t62 -25h379q36 -54 95.5 -87t128.5 -33q56 0 105 21t85.5 57.5t57.5 85.5t21 104q0 45 -14 86t-39 74.5 t-59 57.5q-34 25 -75 38v0zM605 859l149 -166h-319v185h128q12 0 22.5 -4.5t19.5 -14.5zM232 859q8 9 19 14t23 5h128v-185h-319l149 166v0zM120 138q-23 0 -39.5 16.5t-16.5 39.5v456v5t2 6h707q1 -3 1 -6v-5v-132q-12 3 -25 4t-26 1q-56 0 -105 -21t-85 -58t-58 -85 q-21 -49 -21 -105q0 -31 7 -60.5t21 -57.5h-362v2zM723 18q-49 0 -92 18q-43 19 -75 51.5t-51 75.5t-19 91q0 49 19 92q18 43 50.5 75.5t75.5 50.5q43 19 92 19t93 -18q43 -19 75 -51t50 -75q19 -43 19 -93q0 -49 -19 -92t-51 -75t-75 -51q-43 -18 -92 -18v0zM702 334h90 q7 0 11.5 4.5t4.5 11.5q0 8 -4.5 12t-11.5 4h-40v26q0 7 -4.5 11.5t-11.5 4.5t-11.5 -4.5t-4.5 -11.5v-26h-19q-27 0 -45.5 -18.5t-18.5 -45.5q0 -26 18.5 -45t45.5 -19h41q14 0 23 -9t9 -23q0 -13 -9 -22.5t-23 -9.5h-89q-7 0 -11.5 -4t-4.5 -12q0 -7 4.5 -11.5t11.5 -4.5 h67v-25q0 -7 4.5 -11.5t11.5 -4.5t11.5 4.5t4.5 11.5v27q23 4 38.5 21t15.5 41q0 27 -18.5 45.5t-45.5 18.5h-41q-13 0 -22.5 9.5t-9.5 22.5q0 14 10 23t23 9z" />
</svg>