<svg viewBox="0 0 1024 1024" xmlns="http://www.w3.org/2000/svg">
  <path transform="scale(1, -1) translate(0, -960)" fill="currentColor" d="M810 282l-85 -88l-35 38q-5 5 -11.5 5t-11.5 -3q-5 -5 -5 -11.5t4 -11.5l46 -49q2 -3 5 -4t6 -1v0v0q4 0 6.5 1t4.5 4l96 100q5 5 5 11.5t-5 11.5q-2 2 -9 1.5t-11 -4.5v0zM837 453v185q0 17 -6 33t-18 28l-162 181q-13 14 -30.5 22t-38.5 8h-297q-19 0 -37.5 -8 t-31.5 -22l-160 -179q-11 -12 -17.5 -28t-6.5 -33v-475q0 -39 27 -65t64 -26h443q34 -40 81.5 -63.5t102.5 -23.5q50 0 94 19t77 52t52 77t19 94q0 75 -44 136t-111 88v0zM629 858l155 -175h-334v195h134q12 0 24 -5.5t21 -14.5zM240 858q8 9 20 14t25 5h134v-194h-336 l157 175v0zM123 104q-25 0 -42 17.5t-17 41.5v475v7t2 6h737q1 -3 1.5 -6t0.5 -7v-176q-13 3 -26.5 5t-26.5 2q-50 0 -94 -19t-76.5 -52t-52.5 -77q-19 -44 -19 -94q0 -33 9 -64t25 -59h-421v0zM750 18q-43 0 -81 16q-38 17 -66.5 45.5t-45.5 66.5q-16 38 -16 81t16 82 q17 38 45.5 66.5t66.5 44.5q38 17 81 17q44 0 82 -17q38 -16 66.5 -44.5t44.5 -66.5q17 -39 17 -82t-17 -81q-16 -38 -44.5 -66.5t-66.5 -45.5q-38 -16 -82 -16z" />
</svg>