<svg viewBox="0 0 1024 1024" xmlns="http://www.w3.org/2000/svg">
  <path transform="scale(1, -1) translate(0, -960)" fill="currentColor" d="M946 686l-184 208q-15 17 -35.5 25.5t-41.5 8.5h-346q-21 0 -41.5 -9t-35.5 -25l-184 -208q-13 -14 -19 -31.5t-6 -36.5v-548q0 -42 30 -72t72 -30h715q42 0 72.5 30t30.5 72v548q0 19 -7 37t-20 31v0zM94 34q-4 8 -7.5 17.5t-3.5 20.5v546q0 4 1 8t1 9h795l-786 -601v0z M738 872l184 -205h-394v229h157q14 0 28 -6t25 -18v0zM286 872q10 11 24 17.5t29 6.5h157v-229h-392zM941 70q0 -28 -21 -49t-50 -21h-715q-9 0 -18.5 2.5t-18.5 8.5l815 626h5q1 -5 2 -9t1 -9v-549v0z" />
</svg>