<svg viewBox="0 0 256 256" xmlns="http://www.w3.org/2000/svg">
  <path transform="scale(1, -1) translate(0, -256)" fill="currentColor" d="M238 64h-10v15q0 12 -8 20.5t-19 8.5t-20 -7q-2 -2 -2.5 -4.5t2 -5t5 -3t5.5 2.5t9 3t10 -4.5t4 -10.5v-15h-53q-3 0 -5 -2.5t-2 -5.5v-44q0 -3 2 -5t5 -2h77q3 0 5 2t2 5v45q0 2 -2 4.5t-5 2.5zM231 19h-63v31h63v-31zM119 33h-81q-5 0 -9 4t-4 10v129h195v-40 q0 -3 2 -5.5t5 -2.5t5 2.5t2 5.5v39q0 11 -6 19l-44 48q-8 9 -21 9h-81q-12 0 -20 -9l-44 -49q-7 -8 -7 -18v-129q0 -11 8 -19t20 -8h81q3 0 5 2t2 5t-2.5 5t-5.5 2zM173 232l39 -42h-82v47h33q6 0 10 -5zM72 232q4 5 10 5h34v-47h-82z" />
</svg>