<svg viewBox="0 0 256 256" xmlns="http://www.w3.org/2000/svg">
  <path transform="scale(1, -1) translate(0, -256)" fill="currentColor" d="M204 146v32q0 10 -6 17l-39 43q-8 9 -19 9h-72q-11 0 -18 -9l-39 -43q-6 -7 -6 -17v-114q0 -10 7.5 -17.5t17.5 -7.5h93q10 -14 25 -22t33.5 -8t34.5 9.5t25.5 26t9.5 35.5q0 22 -13 40t-34 26zM149 229l33 -37h-70v41h28q5 0 9 -4zM60 229q3 3 9 3h29v-40h-70zM30 53 q-5 0 -8 3.5t-3 7.5v114h171v-29l-10 1q-19 0 -35 -9.5t-25.5 -25.5t-9.5 -35q0 -14 5 -27h-85zM181 23q-16 0 -28.5 7.5t-20.5 20.5t-8 28.5t8 28.5t20.5 20.5t28 7.5t28.5 -7.5t20.5 -20.5t7.5 -28.5t-7.5 -28.5t-20.5 -20.5t-28 -7.5zM176 96h22q3 0 5 2.5t2 5.5t-2 5 t-5 2h-7v3q0 3 -2 5t-5 2t-5 -2t-2 -5v-3h-2q-8 0 -13.5 -5.5t-5.5 -13.5t5.5 -13.5t13.5 -5.5h11q2 0 3.5 -1.5t1.5 -3t-1.5 -3t-3.5 -1.5h-23q-3 0 -5 -2.5t-2 -5.5t2 -5t5 -2h14v-3q0 -3 2 -5t5 -2t5 2t2 5v4q6 2 10 7t4 12t-5.5 12.5t-13.5 5.5h-11q-2 0 -3.5 1.5 t-1.5 3t2 3t4 1.5z" />
</svg>