<svg viewBox="0 0 256 256" xmlns="http://www.w3.org/2000/svg">
  <path transform="scale(1, -1) translate(0, -256)" fill="currentColor" d="M119 31h-81q-6 0 -10 4t-4 9v131h197v-41q0 -3 2 -5t5 -2t5 2t2 5v40q0 11 -7 19l-44 49q-8 9 -20 9h-83q-12 0 -21 -9l-44 -49q-7 -9 -7 -19v-130q0 -11 8 -19t20 -8h81q3 0 5.5 2t2.5 5t-2 5t-5 2zM173 232l39 -43h-83v48h34q6 0 10 -5zM71 232q4 5 10 5h34v-48h-83z M239 64h-9v16q0 12 -8.5 20t-20.5 8t-20.5 -8.5t-8.5 -19.5v-16h-10q-3 0 -5 -2t-2 -5v-45q0 -3 2 -5t5 -2h78q3 0 5 2t2 5v45q-1 3 -3 5t-5 2zM186 80q0 6 4 10t10.5 4t10.5 -4t4 -10v-16h-30v16h1zM232 19h-63v31h63v-31z" />
</svg>