<svg viewBox="0 0 1024 1024" xmlns="http://www.w3.org/2000/svg">
  <path transform="scale(1, -1) translate(0, -960)" fill="currentColor" d="M581 -32q-16 0 -30.5 3.5t-28.5 9.5q-50 23 -70.5 72.5t-3.5 98.5l-390 182q-6 3 -8.5 9t0.5 12q2 6 8 8.5t12 -0.5l391 -182q25 42 71.5 58.5t93.5 0.5l198 426q1 2 3.5 4t6.5 4l123 44q6 3 12 0t9 -9q2 -6 -1 -12.5t-9 -8.5l-117 -42l-197 -419q45 -27 61.5 -78.5 t-6.5 -100.5q-12 -25 -32 -43.5t-47 -28.5q-13 -4 -25 -6t-24 -2v0zM581 216q-31 0 -58 -16t-40 -46q-19 -41 -3.5 -83t56.5 -61q19 -10 41 -10.5t42 6.5q21 8 37 22.5t24 33.5q19 41 3.5 83t-56.5 61v0q-12 5 -23.5 7.5t-22.5 2.5zM456 312h-3t-3 2l-333 155q-3 1 -5 3.5 t-3 5.5t-1 6.5t1 6.5l126 271l-43 19q-2 1 -4.5 3.5t-3.5 5.5t-1 6.5t1 6.5l54 117q3 6 9 8t12 0l448 -210q3 -1 5 -3.5t3 -5.5t1 -6t-1 -7l-54 -117q-3 -6 -9 -8t-12 0l-43 21l-127 -270q-2 -4 -5.5 -7t-8.5 -3v0zM144 491l304 -141l120 256l-304 141zM429 706l209 -98 l42 88l-419 195l-42 -88l43 -21v0v0l167 -76v0z" />
</svg>