<svg viewBox="0 0 1024 1024" xmlns="http://www.w3.org/2000/svg">
  <path transform="scale(1, -1) translate(0, -960)" fill="currentColor" d="M984 786q-6 3 -12.5 1t-9.5 -8l-119 -221h-662l-119 220q-3 6 -9.5 8t-12.5 -2t-8 -10t2 -12l121 -226v-344q0 -36 25.5 -60.5t61.5 -24.5h542q36 0 60.5 25t24.5 60v346l121 225q3 6 1.5 12.5t-7.5 10.5zM784 141h-544q-22 0 -38 15.5t-16 37.5v332h649v-331 q1 -23 -14 -38.5t-37 -15.5zM710 274h-57q-7 0 -11.5 -4.5t-4.5 -11.5q0 -8 4.5 -12t11.5 -4h57q8 0 12 4t4 12q0 7 -4 11.5t-12 4.5z" />
</svg>