<svg viewBox="0 0 1024 1024" xmlns="http://www.w3.org/2000/svg">
  <path transform="scale(1, -1) translate(0, -960)" fill="currentColor" d="M477 48h-327q-27 0 -47 20t-20 47v519q0 3 1 7.5t1 8.5h806q1 -4 1.5 -8t0.5 -8v-160q0 -8 4.5 -12t11.5 -4t11.5 4t4.5 12v160q0 18 -7 35t-19 30l-176 197q-12 16 -31 24t-39 8h-328q-22 0 -40.5 -8.5t-33.5 -25.5l-176 -196q-12 -14 -18.5 -31t-6.5 -35v-520 q1 -40 30.5 -68t69.5 -28h327q7 0 11.5 4.5t4.5 11.5t-5 11.5t-11 4.5v0zM702 874l173 -194h-369v216h147q14 0 27 -6t22 -16zM275 874q10 10 23.5 16t26.5 6h147v-214h-368zM957 181h-51v73q0 44 -30.5 74t-73.5 30q-44 0 -74 -30t-30 -74v-73h-52q-7 0 -11.5 -4.5 t-4.5 -11.5v-181q0 -7 4.5 -11.5t11.5 -4.5h309q7 0 11.5 4.5t4.5 11.5v181q1 6 -3.5 11t-10.5 5v0zM730 254q0 30 21 51t51 21t51 -21t21 -51v-73h-144v73zM941 0h-277v149h277v-149z" />
</svg>