<svg viewBox="0 0 256 256" xmlns="http://www.w3.org/2000/svg">
  <path transform="scale(1, -1) translate(0, -256)" fill="currentColor" d="M42 148h20q3 0 5.5 2t2.5 5t-2.5 5t-5.5 2h-20q-3 0 -5 -2t-2 -5t2 -5t5 -2zM62 66h-20q-3 0 -5 -2t-2 -5t2 -5t5 -2h20q3 0 5 2t2 5t-2 5t-5 2zM232 135h-91q-4 0 -7 -1q2 3 2 6v71q0 8 -6 14t-14 6h-90q-8 0 -14 -6t-6 -14v-71q0 -6 4 -12q-4 -5 -4 -12v-71q0 -8 6 -14 t14 -6h90q7 0 13 5q6 -5 12 -5h91q8 0 14 6t6 14v71q-1 8 -6.5 13.5t-13.5 5.5zM19 211q0 3 1.5 4.5t4.5 1.5h38v-19q0 -3 2 -5.5t5 -2.5t5.5 2.5t2.5 5.5v19h38q2 0 4 -1.5t2 -4.5v-71q0 -3 -4 -5l-92 1l-2 -1q-4 2 -4 5v71h-1zM116 39h-92q-2 0 -3.5 1.5t-1.5 4.5v71 q0 3 3 5l41 -1v-18q0 -3 2 -5t5 -2t5 2t2 5v18h39l2 1q3 -2 3 -5v-71q0 -2 -1.5 -4t-3.5 -2zM237 45q0 -3 -1.5 -4.5t-3.5 -1.5h-92q-2 0 -3.5 1.5t-1.5 4.5v71q0 2 1.5 3.5t3.5 1.5h39v-19q0 -3 2 -5t5 -2t5 2t2 5v19h39q2 0 3.5 -1.5t1.5 -3.5v-71zM178 66h-20q-3 0 -5 -2 t-2 -5t2 -5t5 -2h20q3 0 5 2t2 5t-2 5t-5 2z" />
</svg>