<svg viewBox="0 0 1024 1024" xmlns="http://www.w3.org/2000/svg">
  <path transform="scale(1, -1) translate(0, -960)" fill="currentColor" d="M170 539h80q7 0 11.5 4.5t4.5 11.5t-4.5 11.5t-11.5 4.5h-80q-8 0 -12 -4.5t-4 -11.5t4 -11.5t12 -4.5v0zM248 190h-80q-7 0 -11.5 -4t-4.5 -12q0 -7 4.5 -11.5t11.5 -4.5h80q7 0 11.5 4.5t4.5 11.5q0 8 -4.5 12t-11.5 4zM926 466h-182v0v0v0v0h-182q-16 0 -29 -7 t-21 -17q-1 1 -2.5 3t-3.5 3q9 10 15.5 22t6.5 28v283q0 27 -19.5 46t-46.5 19h-182v0v0v0v0h-182q-27 0 -46.5 -19t-19.5 -46v-283q0 -15 6 -27.5t16 -22.5q-10 -10 -16 -22t-6 -28v-283q0 -27 19.5 -46t46.5 -19h363q15 0 28 6.5t21 17.5q10 -11 23 -17.5t27 -6.5h363 q28 0 47 19.5t19 45.5v283q2 28 -17 48t-46 20v0zM64 498v283q0 14 10 23.5t24 9.5h166v-88q0 -7 4.5 -11.5t11.5 -4.5t11.5 4.5t4.5 11.5v88h166q15 0 24.5 -10t9.5 -23v-283q0 -12 -7.5 -21t-18.5 -13q-2 0 -4.5 1t-4.5 1h-183v0v0v0v0h-182q-2 0 -4.5 -0.5t-5.5 -1.5 q-8 4 -15 13t-7 21v0zM462 82h-364q-14 0 -24 9.5t-10 23.5v283q0 12 7.5 21t18.5 13q2 0 4.5 -1t4.5 -1h167v-86q0 -7 4 -11.5t12 -4.5q7 0 11.5 4.5t4.5 11.5v86h166q2 0 4.5 0.5t5.5 1.5q10 -4 17.5 -13t7.5 -21v-283q-2 -14 -12.5 -23.5t-24.5 -9.5v0zM960 115 q0 -14 -10 -23.5t-24 -9.5h-364q-15 0 -24.5 10t-9.5 23v283q0 15 10 24.5t24 9.5h166v-88q0 -7 4.5 -11.5t11.5 -4.5t11.5 4.5t4.5 11.5v88h166q15 0 24.5 -10t9.5 -24v-283v0zM712 190h-80q-7 0 -11.5 -4t-4.5 -12q0 -7 4.5 -11.5t11.5 -4.5h80q7 0 11.5 4.5t4.5 11.5 q0 8 -4.5 12t-11.5 4z" />
</svg>