<svg viewBox="0 0 1024 1024" xmlns="http://www.w3.org/2000/svg">
  <path transform="scale(1, -1) translate(0, -960)" fill="currentColor" d="M867 928h-608q-33 0 -56.5 -23t-23.5 -57v-141q0 -13 4.5 -25.5t11.5 -22.5h-38q-34 0 -57 -23t-23 -57v-141q0 -33 23 -56.5t57 -23.5h270q34 0 57 23.5t23 56.5v141q0 13 -4.5 26t-11.5 22h375q13 0 25.5 4.5t22.5 11.5v-349q0 -58 -42 -100t-101 -42h-417 q-59 0 -101 42t-42 100v63h-32v-63q0 -72 51.5 -123t123.5 -51h30v-88q0 -26 19 -45t45 -19h237q26 0 45 19t19 45v88h24q72 0 123 51t51 123v554q0 34 -23.5 57t-56.5 23v0zM717 32q0 -13 -9.5 -22.5t-22.5 -9.5h-237q-13 0 -22.5 9.5t-9.5 22.5v88h301v-88zM477 579v-141 q0 -20 -14 -34t-34 -14h-272q-21 0 -34.5 14t-13.5 34v141q0 21 13.5 34.5t34.5 13.5h270q21 0 35.5 -14.5t14.5 -33.5zM915 707q0 -20 -13.5 -34t-34.5 -14h-608q-20 0 -34 14t-14 34v141q0 20 14 34t34 14h608q21 0 34.5 -14t13.5 -34v-141z" />
</svg>