<svg viewBox="0 0 256 256" xmlns="http://www.w3.org/2000/svg">
  <path transform="scale(1, -1) translate(0, -256)" fill="currentColor" d="M217 251h-152q-10 0 -16.5 -7t-6.5 -16v-36q0 -4 2 -9h-4q-10 0 -17 -6.5t-7 -16.5v-35q0 -10 7 -16.5t17 -6.5h2v-13q0 -19 13.5 -33t33.5 -14h5v-18q0 -8 5.5 -13.5t13.5 -5.5h59q8 0 13.5 5.5t5.5 13.5v19h3q19 0 33 14t14 33v138q-1 10 -8 16.5t-16 6.5zM30 126v35 q0 3 3 6t7 3h67q4 0 6.5 -2.5t2.5 -6.5v-35q0 -4 -2.5 -7t-6.5 -3h-68q-3 0 -6 3t-3 7zM176 24q0 -2 -1.5 -3.5t-3.5 -1.5h-59q-2 0 -3.5 1.5t-1.5 3.5v19h69v-19zM193 57h-105q-13 0 -23 9.5t-10 23.5v13h52q9 0 16 6.5t7 16.5v35q0 5 -2 9h88q5 0 9 2v-82q0 -14 -9 -23.5 t-23 -9.5zM226 193q0 -4 -3 -6.5t-7 -2.5h-151q-4 0 -6.5 2.5t-2.5 6.5v35q0 4 2.5 6.5t6.5 2.5h152q3 0 6 -2.5t3 -6.5v-35z" />
</svg>