<svg viewBox="0 0 1024 1024" xmlns="http://www.w3.org/2000/svg">
  <path transform="scale(1, -1) translate(0, -960)" fill="currentColor" d="M928 896h-832q-26 0 -45 -19t-19 -45v-768q0 -26 19 -45t45 -19h832q26 0 45 19t19 45v768q0 26 -19 45t-45 19zM960 64q0 -13 -9.5 -22.5t-22.5 -9.5h-832q-13 0 -22.5 9.5t-9.5 22.5v768q0 13 9.5 22.5t22.5 9.5h832q13 0 22.5 -9.5t9.5 -22.5v-768zM330 298h-24v104 q0 2 -1.5 5t-3.5 6l-37 41l37 42q2 2 3.5 5t1.5 6v95h24q7 0 11.5 4t4.5 12q0 7 -4.5 11.5t-11.5 4.5h-40q-8 0 -12 -4.5t-4 -11.5v-106l-42 -48q-4 -5 -4 -11t4 -10l43 -48v-115q0 -7 4.5 -11.5t11.5 -4.5h40q7 0 11.5 4.5t4.5 11.5t-5 12.5t-12 5.5v0zM750 512v104 q0 7 -4 11.5t-12 4.5h-40q-7 0 -11.5 -4.5t-4.5 -11.5t4.5 -11.5t11.5 -4.5h24v-94q0 -3 1.5 -6t3.5 -6l37 -41l-37 -42q-2 -2 -3.5 -4.5t-1.5 -6.5v-104h-24q-7 0 -11.5 -4.5t-4.5 -11.5t4.5 -11.5t11.5 -4.5h40q8 0 12 4.5t4 11.5v115l44 48q3 5 3 11t-3 10z" />
</svg>