<svg viewBox="0 0 256 256" xmlns="http://www.w3.org/2000/svg">
  <path transform="scale(1, -1) translate(0, -256)" fill="currentColor" d="M83 94h-3v22q0 3 -2 5l-7 8l7 8q2 2 2 5v20h3q3 0 5 2t2 5t-2 5t-5 2h-9q-3 0 -5.5 -2t-2.5 -5v-24l-9 -11q-2 -2 -2 -4.5t2 -4.5l9 -11v-27q0 -3 2.5 -5t5.5 -2h9q3 0 5 2t2 5t-2 5t-5 2zM189 145v24q0 3 -2 5t-5 2h-10q-3 0 -5 -2t-2 -5t2 -5t5 -2h3v-20q0 -3 2 -5 l7 -8l-7 -8q-2 -2 -2 -5v-22h-3q-3 0 -5 -2.5t-2 -5.5t2 -5t5 -2h10q3 0 5 2t2 5v27l10 11q2 2 2 4.5t-2 4.5zM128 251q-33 0 -61.5 -16.5t-45 -45t-16.5 -61.5t16.5 -61.5t45 -45t61.5 -16.5t61.5 16.5t45 45t16.5 61.5t-16.5 61.5t-45 45t-61.5 16.5zM128 19 q-29 0 -54 14.5t-40 39.5t-15 55t15 54.5t39.5 39.5t54.5 15t55 -15t39.5 -40t14.5 -54.5t-14.5 -54.5t-39.5 -39.5t-55 -14.5z" />
</svg>