<svg viewBox="0 0 256 256" xmlns="http://www.w3.org/2000/svg">
  <path transform="scale(1, -1) translate(0, -256)" fill="currentColor" d="M232 243h-208q-8 0 -13.5 -5.5t-5.5 -13.5v-192q0 -8 5.5 -13.5t13.5 -5.5h208q8 0 14 5.5t6 13.5v192q-1 8 -6.5 13.5t-13.5 5.5zM237 32q0 -2 -1.5 -3.5t-3.5 -1.5h-208q-2 0 -3.5 1.5t-1.5 3.5v192q0 2 1.5 3.5t3.5 1.5h208q2 0 3.5 -1.5t1.5 -3.5v-192zM82 93h-2v23 q0 3 -2 5l-8 9l8 8q2 2 2 5v20h2q3 0 5.5 2t2.5 5t-2.5 5.5t-5.5 2.5h-10q-3 0 -5 -2.5t-2 -5.5v-24l-10 -11q-2 -2 -2 -5t2 -4l10 -11v-28q0 -3 2 -5t5 -2h10q3 0 5.5 2t2.5 5t-2 4.5t-6 1.5zM190 145v25q0 3 -2 5t-5 2h-10q-3 0 -5 -2t-2 -5t2 -5t5 -2h3v-21q0 -2 2 -4 l8 -9l-8 -8q-2 -2 -2 -5v-23h-3q-3 0 -5 -2t-2 -5t2 -5.5t5 -2.5h10q3 0 5 2.5t2 5.5v27l10 11q2 2 2 4.5t-2 4.5z" />
</svg>