<svg viewBox="0 0 256 256" xmlns="http://www.w3.org/2000/svg">
  <path transform="scale(1, -1) translate(0, -256)" fill="currentColor" d="M251 99q0 14 -13 26t-35.5 20t-51.5 10q6 9 6 18.5t-10 26.5q-6 10 -13 19q-3 3 -6 3t-6 -3q-7 -9 -13 -19q-10 -17 -10 -26.5t6 -18.5q-28 -2 -51 -10t-36 -20t-13 -26q0 -21 26 -36t68 -20v0q0 -3 2 -5t5 -2t5.5 2t2.5 5v16q0 3 -2.5 5t-5.5 2t-5 -2t-2 -5v-1 q-34 4 -57 15.5t-23 25.5q0 11 14 21t39.5 16t56 6t55.5 -6t39.5 -16t14.5 -21q0 -14 -23 -25.5t-57 -15.5v0q0 3 -2.5 5.5t-5.5 2.5t-5 -2.5t-2 -5.5v-16q0 -3 2 -5t5 -2t5.5 2t2.5 5v2q42 4 67.5 19t25.5 36zM128 202q6 -9 10.5 -17t4.5 -12q0 -6 -4.5 -10.5t-10.5 -4.5 t-10.5 4.5t-4.5 10.5q0 4 4.5 12t10.5 17z" />
</svg>