<svg viewBox="0 0 256 256" xmlns="http://www.w3.org/2000/svg">
  <path transform="scale(1, -1) translate(0, -256)" fill="currentColor" d="M56 63h-17v45q0 3 -2 5l-16 17l16 18q2 2 2 5v40h17q3 0 5 2t2 5t-2 5.5t-5 2.5h-24q-3 0 -5 -2.5t-2 -5.5v-44l-18 -21q-2 -2 -2 -4.5t2 -4.5l18 -20v-50q0 -3 2 -5t5 -2h24q3 0 5 2t2 5t-2 5t-5 2zM249 135l-18 21v44q0 3 -2 5t-5 2h-24q-3 0 -5 -2t-2 -5t2 -5t5 -2h16 v-41q0 -2 2 -4l16 -18l-16 -18q-2 -2 -2 -4v-46h-16q-3 0 -5 -2t-2 -5t2 -5t5 -2h24q3 0 5 2t2 5v50l18 21q2 2 2 4.5t-2 4.5z" />
</svg>