<svg viewBox="0 0 1024 1024" xmlns="http://www.w3.org/2000/svg">
  <path transform="scale(1, -1) translate(0, -960)" fill="currentColor" d="M992 331q0 42 -32 79q-31 37 -87 65.5t-133 46.5q-76 19 -166 24q20 14 31 36t11 47q0 39 -42.5 102t-48.5 72q-5 6 -13 6t-13 -6q-7 -9 -49 -72t-42 -102q0 -25 11 -47t31 -36q-90 -5 -166 -24q-77 -18 -133 -46.5t-87 -65.5q-32 -37 -32 -79q0 -38 27 -73 q28 -35 77.5 -63t118.5 -48q70 -19 153 -27v-13q0 -7 4.5 -11.5t11.5 -4.5t11.5 4.5t4.5 11.5v66q0 7 -4.5 11.5t-11.5 4.5t-11.5 -4.5t-4.5 -11.5v-21q-75 7 -138 24t-109 41t-71 53q-26 29 -26 61q0 38 36 71q36 34 97 59t142 40q82 14 173 14t173 -15q81 -14 142 -39.5 t97 -58.5q36 -34 36 -71q0 -32 -26 -61q-25 -29 -71 -53t-109 -41t-138 -24v16q0 7 -4.5 11.5t-11.5 4.5t-11.5 -4.5t-4.5 -11.5v-66q0 -7 4.5 -11.5t11.5 -4.5t11.5 4.5t4.5 11.5v18q83 8 153 27q69 19 118.5 47t77.5 63q27 35 27 74zM512 766q24 -33 48 -75t24 -62 q0 -30 -21 -51t-51 -21t-51 21t-21 51q0 21 24 63t48 74z" />
</svg>