<svg viewBox="0 0 256 256" xmlns="http://www.w3.org/2000/svg">
  <path transform="scale(1, -1) translate(0, -256)" fill="currentColor" d="M43 152v53q0 13 9 22.5t22 9.5h13q3 0 5 2t2 5t-2 5.5t-5 2.5h-13q-18 0 -31.5 -14t-13.5 -33v-49l-20 -23q-2 -2 -2 -4.5t2 -4.5l20 -23v-49q0 -20 13.5 -33.5t31.5 -13.5h13q3 0 5 2t2 5t-2 5.5t-5 2.5h-13q-13 0 -22 9t-9 23v52q0 2 -2 5l-17 20l17 19q2 1 2 4z M247 133l-20 22v50q0 19 -13.5 32.5t-31.5 13.5h-13q-3 0 -5 -2t-2 -5t2 -5t5 -2h13q13 0 22 -9.5t9 -23.5v-52q0 -2 2 -5l17 -19l-17 -20q-2 -2 -2 -5v-52q0 -14 -9 -23.5t-22 -9.5h-13q-3 0 -5 -2t-2 -5t2 -5t5 -2h13q18 0 31.5 13.5t13.5 32.5v51l20 23q2 1 2 4t-2 5z " />
</svg>