<svg viewBox="0 0 1024 1024" xmlns="http://www.w3.org/2000/svg">
  <path transform="scale(1, -1) translate(0, -960)" fill="currentColor" d="M160 546v209q0 58 40.5 99.5t97.5 41.5h51q7 0 11.5 4.5t4.5 11.5t-4.5 11.5t-11.5 4.5h-51q-70 0 -120 -51t-50 -122v-203l-82 -93q-3 -5 -3 -10.5t3 -10.5l82 -94v-202q0 -72 50 -122t121 -50h51q8 0 12 4t4 12q0 7 -4 11.5t-12 4.5h-51q-57 0 -98 41.5t-41 98.5v208 q0 3 -1 6l-2 6l-79 86l77 86q3 3 4 5.5t1 6.5v0zM979 459l-83 91v205q0 71 -50 122t-120 51h-51q-7 0 -11.5 -4.5t-4.5 -11.5t4.5 -11.5t11.5 -4.5h51q58 0 99 -41.5t41 -99.5v-209q0 -3 1 -6t3 -6l77 -86l-77 -88q-2 -2 -2.5 -5t-0.5 -6v-208q0 -59 -40.5 -100t-98.5 -41 h-51q-7 0 -11.5 -4.5t-4.5 -11.5t4.5 -11.5t11.5 -4.5h51q68 0 118 51t50 122v203l82 94q4 4 4.5 10t-3.5 11v0z" />
</svg>