<svg viewBox="0 0 1024 1024" xmlns="http://www.w3.org/2000/svg">
  <path transform="scale(1, -1) translate(0, -960)" fill="currentColor" d="M224 176h-78v192q0 2 -1.5 5.5t-3.5 5.5l-72 79l72 78q2 2 3.5 5t1.5 6v173h78q7 0 11.5 4.5t4.5 11.5t-4.5 11.5t-11.5 4.5h-94q-8 0 -12 -4.5t-4 -11.5v-184l-77 -85q-4 -5 -4 -11t4 -10l77 -84v-202q0 -7 4 -11.5t12 -4.5h94q7 0 11.5 4.5t4.5 11.5t-5 11.5t-11 4.5z M987 469l-77 85v182q0 7 -4 11.5t-12 4.5h-94q-7 0 -11.5 -4.5t-4.5 -11.5t4.5 -11.5t11.5 -4.5h78v-173q0 -2 1.5 -5.5t3.5 -5.5l72 -78l-72 -79q-2 -2 -3.5 -4.5t-1.5 -6.5v-192h-78q-7 0 -11.5 -4.5t-4.5 -11.5t4.5 -11.5t11.5 -4.5h94q8 0 12 4.5t4 11.5v202l77 84 q5 5 5 11.5t-5 11.5v0z" />
</svg>