<svg viewBox="0 0 256 256" xmlns="http://www.w3.org/2000/svg">
  <path transform="scale(1, -1) translate(0, -256)" fill="currentColor" d="M251 135q0 11 -5 20t-13 15q1 20 -10.5 33.5t-27.5 14.5q-5 11 -13.5 17.5t-18.5 8t-19 -1.5t-16 -10q-7 7 -16 9.5t-19 1.5t-18.5 -8t-13.5 -17q-17 -2 -27 -15q-12 -14 -11 -33q-8 -6 -13 -16t-5 -22t6.5 -23t17.5 -16q-2 -17 7 -30.5t23 -17.5q3 -12 11.5 -20.5 t19.5 -11t21 0.5t17 10q13 -12 28 -12q5 0 10 2q11 2 19.5 10.5t12.5 20.5q13 4 22 17.5t8 30.5q11 6 17 17.5t6 24.5zM94 27q-8 2 -14.5 8t-7.5 17q-1 2 -2.5 3.5t-3.5 2.5q-12 2 -19 13t-3 25q0 2 -1 4.5t-4 3.5q-9 3 -14.5 11t-5.5 17.5t4.5 17t10.5 11.5q5 3 4 7 q-3 15 6.5 25.5t21.5 10.5v0q5 0 7 5q3 9 9 14t14 6.5t14.5 -1.5t11.5 -9v-182q-6 -6 -13.5 -9t-14.5 -1zM217 104q-3 -1 -4 -3.5t0 -4.5q3 -14 -4 -25t-19 -13q-2 -1 -3.5 -2.5t-1.5 -3.5q-2 -10 -8.5 -16.5t-14 -8.5t-14.5 1t-12 9v182q4 6 11 9t14.5 1.5t13.5 -6.5t9 -14 q1 -2 3 -3.5t4 -1.5q13 0 21 -10q10 -11 7 -26q0 -5 4 -7q6 -4 10.5 -11t4.5 -15q0 -11 -6 -19.5t-15 -11.5zM97 144q-2 -1 -7.5 -4t-9.5 -6q-4 2 -5.5 5t-1 7t1.5 6.5t0 5.5t-3.5 4t-5 0t-4 -3.5t-2.5 -8.5q-1 -9 2 -16t9 -12l-1 -3q-2 -13 12 -24q1 -1 4 -1t5 2t2 5t-3 5 q-7 6 -6 10t6.5 8t11.5 6q2 1 3.5 4t0.5 5.5t-3.5 4t-5.5 0.5zM192 162q-3 -1 -4 -4t0 -5l2 -5q1 -5 -0.5 -8.5t-5.5 -5.5q-5 3 -10.5 6t-7.5 4t-4.5 -0.5t-3.5 -4.5t0 -5.5t4 -3.5q6 -2 11.5 -6t6 -8t-6.5 -10q-2 -2 -2 -5t1.5 -5t4.5 -2t5 1q14 11 11 24l-1 3q8 5 10.5 12 t1.5 16q-1 5 -2.5 8t-4.5 4t-5 0z" />
</svg>