<svg viewBox="0 0 1024 1024" xmlns="http://www.w3.org/2000/svg">
  <path transform="scale(1, -1) translate(0, -960)" fill="currentColor" d="M992 477q-1 41 -21 77t-53 57q4 36 -6.5 70t-33.5 61q-20 26 -48.5 40t-59.5 16q-17 41 -50 67.5t-74 32.5q-37 4 -72.5 -8.5t-61.5 -41.5q-26 29 -62 42.5t-74 7.5q-42 -6 -75 -33t-48 -67q-31 -2 -59 -16t-50 -40q-23 -27 -33.5 -61t-6.5 -70q-34 -23 -53 -60t-19 -81 q0 -51 26.5 -92.5t69.5 -62.5q-5 -31 2 -62.5t24 -58.5q16 -26 39 -43t52 -25q11 -48 42.5 -81t77.5 -43q41 -10 79.5 2.5t67.5 43.5q23 -25 52 -38t60 -13q8 0 17 1l18 2q46 11 78.5 44t41.5 81q28 7 51.5 24.5t39.5 42.5q17 26 24 57.5t2 64.5q44 21 71 65.5t25 97.5v0z M373 32q-39 8 -65.5 38t-32.5 71q-1 5 -4.5 8t-8.5 5q-24 4 -44.5 19t-35.5 37q-15 24 -20 52.5t1 57.5q1 6 -2 11.5t-9 7.5q-40 15 -64 50.5t-24 80.5q0 38 18 70t49 50q5 3 7 7.5t1 8.5q-5 32 3 62t28 54q18 21 42 32.5t50 11.5h2q5 0 9 3.5t5 8.5q12 36 39.5 59.5 t63.5 29.5q33 4 63 -9.5t52 -41.5v-736q-23 -30 -55.5 -42.5t-67.5 -5.5v0zM872 341q-6 -3 -9 -8t-2 -11q7 -29 1.5 -58t-20.5 -53q-15 -23 -35.5 -37t-44.5 -19q-5 -1 -8.5 -4.5t-4.5 -8.5q-7 -42 -33 -71t-65 -37q-36 -9 -68 3.5t-55 42.5v736q22 28 52 41t63 9 q36 -5 62.5 -29t40.5 -61q1 -5 6 -8t11 -3q27 0 51 -11.5t42 -33.5q20 -24 28 -54t2 -61q-1 -5 1.5 -9.5t6.5 -6.5q29 -17 47 -47.5t21 -66.5q1 -45 -24 -83t-66 -51v0zM392 499q-5 -1 -28.5 -12t-43.5 -31q-12 5 -21 13t-13 17q-9 22 -2.5 44l6.5 22q2 6 0 12t-8 9 q-6 2 -12.5 0t-8.5 -8q-1 -1 -9.5 -30.5t4.5 -60.5q6 -15 17 -25.5t26 -18.5q-2 -4 -4 -9t-2 -11q-4 -22 6.5 -42.5t34.5 -41.5q3 -2 5.5 -2.5t4.5 -0.5q4 0 7 1.5t6 5.5q5 4 4 11t-6 11q-17 14 -25 27.5t-5 25.5q5 24 34.5 41.5t43.5 22.5q6 2 9 8.5t1 12.5q-3 6 -9 8 t-12 1v0zM773 573q-6 -3 -8.5 -9t0.5 -12l6.5 -22t-3.5 -44q-5 -9 -13.5 -17t-20.5 -13q-20 19 -43.5 30t-28.5 13q-6 3 -12 0t-8 -9q-3 -6 0 -12.5t9 -8.5q15 -5 45 -22.5t34 -41.5q2 -12 -6 -25.5t-25 -27.5q-5 -5 -5.5 -11.5t4.5 -10.5q2 -3 5.5 -5t6.5 -2t6 1t4 2 q24 21 34.5 42t7.5 42q-2 4 -3 10t-4 10q16 8 26.5 19t16.5 25q15 32 6 61t-10 30q-3 6 -9 8t-12 0v0z" />
</svg>