<svg viewBox="0 0 1024 1024" xmlns="http://www.w3.org/2000/svg">
  <path transform="scale(1, -1) translate(0, -960)" fill="currentColor" d="M992 405q0 29 -10.5 55t-29.5 47q1 9 2 16.5t1 15.5q0 52 -31.5 91.5t-81.5 51.5q-14 48 -53 78t-90 30q-19 0 -37 -4.5t-33 -14.5q-23 25 -54 40t-65 15q-33 0 -64 -14t-52 -39q-16 9 -34.5 13t-36.5 4q-50 0 -89.5 -30t-52.5 -78q-49 -12 -80.5 -51.5t-31.5 -91.5 q0 -11 2 -22.5t6 -23.5q-37 -41 -43 -89.5t20 -91.5q23 -36 62.5 -55t83.5 -15q12 1 22.5 2t19.5 2q18 3 34.5 -4t27.5 -21q22 -27 52 -41.5t65 -14.5v0v0q45 0 90 -9.5t87 -27.5l40 -18q41 -18 80.5 -27.5t78.5 -10.5h4.5h4.5h2h2q30 0 57.5 11.5t47.5 31.5q21 21 32 46.5 t11 52.5q0 21 -5.5 40.5t-16.5 36.5q26 21 41 50.5t15 63.5v0zM894 136q-16 -17 -39 -25.5t-47 -8.5h-4.5h-5.5q-36 2 -73 11t-74 26l-40 18q-45 20 -93 30t-99 10v0v0q-26 0 -50 11.5t-39 33.5q-16 20 -41.5 30t-51.5 6q-9 -1 -18.5 -2t-20.5 -2q-36 -3 -67 12.5t-49 43.5 q-22 33 -16.5 70.5t35.5 71.5q6 6 7.5 14t-1.5 16q-2 10 -4 19.5t-2 17.5q0 40 24.5 71.5t63.5 40.5q8 3 14.5 8.5t9.5 14.5q9 37 40.5 60.5t71.5 23.5q14 0 28 -3.5t26 -10.5q10 -5 20.5 -3.5t18.5 9.5q18 21 42 31.5t52 10.5q26 0 51 -11.5t43 -31.5q8 -9 18.5 -11t20.5 4 q13 8 27 11.5t29 3.5q39 0 70 -24t42 -61q2 -8 8.5 -15t15.5 -9q38 -10 63 -40.5t25 -71.5q0 -6 -1 -13t-2 -13q-2 -8 0 -16t8 -12q15 -16 23.5 -36.5t8.5 -42.5q0 -26 -11.5 -49.5t-32.5 -39.5q-9 -8 -11 -19.5t5 -22.5q8 -13 13 -28.5t5 -32.5q-3 -20 -11.5 -39.5 t-24.5 -35.5v0zM515 656q-3 1 -30.5 3.5t-44.5 -16.5q-8 -9 -10 -23t5 -31q1 -5 5.5 -8t9.5 -3h2t2 1q6 3 9 9t1 12q-2 8 -3 14t1 8q5 6 19.5 6t25.5 -2q6 -2 12 1.5t7 9.5q3 6 -0.5 11.5t-10.5 7.5zM744 486q8 3 14 3.5t8 -1.5q6 -5 6 -19.5t-2 -25.5q-2 -6 1.5 -12t9.5 -7 h2h1q6 0 10.5 3.5t5.5 9.5q1 3 3.5 30.5t-16.5 44.5q-9 8 -23 10t-31 -4q-6 -2 -9 -8t-1 -12q3 -8 9 -10.5t12 -1.5v0zM787 280q-6 -2 -9 -8.5t0 -12.5q2 -8 3 -14t-2 -8q-5 -6 -19.5 -6t-25.5 3q-6 1 -12 -2.5t-7 -9.5t2 -12t9 -7q3 0 11 -1.5t20 -1.5t24.5 3t21.5 13 t10.5 24t-5.5 30q-2 6 -8.5 9t-12.5 1v0zM267 453q-3 -3 -24.5 -20t-20.5 -43q2 -13 10.5 -23.5t25.5 -19.5q1 -1 3 -1h3q5 0 8.5 2t5.5 7q3 6 0.5 12.5t-8.5 8.5q-8 4 -12 8t-5 8q0 7 9.5 17.5t19.5 16.5q6 3 7 9.5t-3 12.5q-1 6 -7.5 7t-11.5 -2v0z" />
</svg>