<svg viewBox="0 0 1024 1024" xmlns="http://www.w3.org/2000/svg">
  <path transform="scale(1, -1) translate(0, -960)" fill="currentColor" d="M979 -5l-283 293q53 56 79 125q25 69 24 140.5t-29 140.5q-27 68 -82 122q-54 54 -123 83t-146 29q-75 0 -144.5 -29t-122.5 -83q-54 -54 -83 -123t-29 -146q0 -75 29 -145t83 -124t123 -83t146 -29q71 0 135.5 25t117.5 71l283 -292q2 -3 5.5 -4t5.5 -1q4 0 6.5 1t4.5 4 q5 7 5 13.5t-5 11.5v0zM174 302q-49 50 -75.5 113.5t-26.5 133.5q0 69 26.5 133t75.5 113q50 49 113 75t132 26q70 0 133.5 -26.5t113.5 -75.5q51 -51 76 -116q26 -64 26 -130.5t-26 -130.5q-25 -64 -76 -115q-50 -49 -113.5 -75.5t-133.5 -26.5q-69 0 -132 26.5t-113 75.5 v0zM634 582q0 4 0.5 7.5t0.5 7.5q0 26 -15 47t-39 30q-9 24 -29 39t-45 15q-8 0 -16.5 -2t-15.5 -4q-12 12 -27 18t-30 6q-16 0 -31 -6t-27 -18q-7 3 -15.5 4.5t-16.5 1.5q-25 0 -45.5 -15t-28.5 -39q-24 -8 -39 -29.5t-15 -47.5q0 -5 1 -10t2 -11q-18 -22 -20 -47t12 -47 q12 -20 32.5 -30t44.5 -9q6 0 11 1t10 1q6 1 11.5 -1.5t9.5 -8.5q10 -14 26.5 -22t35.5 -8v0v0q20 0 40.5 -4.5t39.5 -13.5l19 -8q19 -8 39 -13.5t40 -5.5h4h1h1q16 0 30 6t26 16q11 11 17.5 25.5t6.5 30.5q0 10 -2 19.5t-6 17.5q12 11 18 26t6 32q-2 13 -7.5 26t-14.5 23v0 zM603 493q-7 -6 -8 -14.5t3 -16.5q4 -6 5.5 -12t1.5 -13q0 -10 -3.5 -18t-11.5 -14q-7 -7 -16 -10.5t-17 -2.5h-5q-16 1 -33 5t-34 13l-19 8q-23 9 -46.5 14.5t-48.5 5.5q-11 0 -20 5t-17 13q-9 12 -22.5 17.5t-28.5 3.5q-3 0 -8 -1t-9 -1q-15 -1 -28 5.5t-20 18.5 q-9 15 -6.5 30.5t14.5 28.5q3 5 5 11t-1 12q-1 3 -2 7.5t-1 8.5q0 17 10 30t25 16q6 1 11.5 6t6.5 12q4 15 16.5 25t28.5 10q6 0 11 -1.5t11 -4.5q7 -4 15.5 -3t13.5 7q7 9 17.5 13.5t20.5 4.5q11 0 21.5 -4.5t17.5 -13.5q6 -6 13.5 -7.5t15.5 3.5q4 3 10 4.5t12 1.5 q16 0 28 -10t17 -25q1 -6 6 -10.5t11 -7.5q16 -3 26 -16t10 -30q0 -3 -0.5 -6t-1.5 -5q-1 -6 0.5 -12t5.5 -11q6 -6 9.5 -15t3.5 -18q1 -10 -3 -20t-13 -17v0z" />
</svg>