<svg viewBox="0 0 256 256" xmlns="http://www.w3.org/2000/svg">
  <path transform="scale(1, -1) translate(0, -256)" fill="currentColor" d="M251 117q0 15 -10 27l1 7q0 13 -8 23.5t-21 14.5q-4 12 -14.5 19.5t-23.5 7.5q-10 0 -17 -4q-13 13 -30.5 13t-29.5 -12q-9 4 -17 4q-13 0 -23.5 -7.5t-14.5 -20.5q-13 -3 -21 -14t-8 -24q0 -6 2 -11q-9 -10 -10.5 -23t5 -23.5t17 -15.5t22.5 -4l11 1q4 0 7.5 -1t5.5 -4 q12 -16 32 -16q22 0 43 -9l10 -4q20 -9 41 -10h3q17 0 28.5 11t11.5 28q0 10 -5 18q6 6 9.5 13.5t3.5 15.5zM227 97q-3 -3 -4 -7t2 -7q4 -6 4 -14.5t-8 -16.5t-19 -8h-2q-16 1 -36 9l-10 5q-24 10 -49 10q-12 0 -21 10q-4 6 -11 8.5t-15 1.5l-9 -1q-8 0 -15.5 3t-11.5 10.5 t-3 16t8 15.5q4 4 2 11q-1 4 -1 8q0 9 5.5 16t14.5 9q3 1 5 3t3 5q2 8 9 13.5t15 5.5q6 0 13 -3q3 -2 7 -1.5t7 4.5t8.5 6.5t11.5 2.5t12 -2.5t9 -6.5t7 -4.5t7 1.5q6 3 12 3q9 0 16 -5.5t9 -13.5q2 -6 8 -8q9 -2 14.5 -9t5.5 -16q0 -2 -1 -5q-1 -6 3 -10q7 -8 7 -18 q1 -6 -1.5 -11.5t-7.5 -9.5zM130 183q-4 1 -10 1q-8 -1 -12 -5q-6 -7 -2 -17q2 -5 6 -5l3 1q3 1 4 3.5t0 4.5l-1 3q4 1 7.5 0t6 0.5t3 4.5t-0.5 5.5t-4 3.5zM187 135h2l1 1q0 -4 -0.5 -7.5t1 -6t3.5 -3.5h2q2 0 4 1.5t3 4.5t1 9q-1 8 -5 12q-7 6 -17 2q-3 -1 -4 -3.5t0 -5 t3.5 -4t5.5 -0.5zM196 89q-3 -1 -4 -3.5t0 -5.5v-3q-3 -1 -6.5 0t-6 -0.5t-3.5 -4t0.5 -5t4.5 -3.5t8 -1q9 0 14 6t2 16q-1 3 -3.5 4t-5.5 0zM65 132q-4 -2 -7 -6q-6 -6 -6 -13.5t11 -12.5h3t4 1t3 3t0 5t-4 4l-2 1q2 4 5 6t4 4.5t-1 5t-4.5 3t-5.5 -0.5z" />
</svg>