<svg viewBox="0 0 256 256" xmlns="http://www.w3.org/2000/svg">
  <path transform="scale(1, -1) translate(0, -256)" fill="currentColor" d="M247 17l-69 71q17 19 22.5 43.5t-1.5 48.5t-25 42q-13 14 -31 21.5t-37.5 7.5t-37.5 -7.5t-32 -21t-21.5 -31.5t-7.5 -37.5t7.5 -37.5t21.5 -32t32 -21.5t37 -7.5q36 0 63 23l69 -71q2 -2 5 -2t5 2t2 5t-2 5zM46 94q-12 12 -18.5 27t-6.5 32t6.5 32t18.5 27t27 18t32 6 t32 -6t27 -18q16 -16 21.5 -37.5t0 -43.5t-21.5 -38q-12 -12 -27 -18t-32 -6t-32 6.5t-27 18.5zM166 149q0 8 -4 14v2q0 7 -4 13t-11 9q-3 6 -8.5 10t-12.5 4q-4 0 -7 -1q-7 6 -15.5 6t-14.5 -6q-4 1 -7 1q-7 0 -13 -4t-8 -10q-7 -3 -11 -8.5t-4 -13.5l1 -4q-4 -6 -4.5 -13 t2.5 -13t9 -9t13 -2h6q2 0 2 -1q7 -9 17.5 -9t19.5 -4l5 -2q9 -4 21 -5h1q9 0 16 6.5t7 16.5q0 5 -2 8q6 6 6 15zM149 142q-3 -2 -3.5 -5.5t1 -6t1.5 -5.5t-2.5 -6t-6.5 -2h-1q-8 0 -15 4l-5 2q-12 5 -25 5q-3 0 -6 3.5t-7.5 5t-8.5 1.5l-4 -1q-6 0 -9.5 5.5t1.5 10.5 q3 4 2 8v3q0 3 1.5 5.5t4.5 3.5q5 1 7 7t8 6q2 0 4.5 -1.5t5.5 -1t5.5 3.5t6.5 3t6.5 -3t6 -3.5t5.5 1t4.5 1.5t5 -2t3.5 -4q1 -6 6 -7q3 0 5 -2.5t2 -6.5l-1 -2q-1 -4 2 -7t3 -7t-3 -6z" />
</svg>