<svg viewBox="0 0 256 256" xmlns="http://www.w3.org/2000/svg">
  <path transform="scale(1, -1) translate(0, -256)" fill="currentColor" d="M146 185q-5 5 -12 7q-2 4 -6.5 7t-9.5 4q-8 1 -14 -4q-8 5 -15 4q-11 -1 -16 -11q-7 -2 -11.5 -7.5t-5.5 -14.5q-8 -6 -8 -17.5t10 -18.5q0 -7 3.5 -12.5t9.5 -8.5q2 -5 6 -9t10 -5q9 -2 16 3q6 -3 12 -3h5q5 1 9 5t6 9q6 3 9.5 8.5t3.5 12.5q5 3 7.5 8.5t2.5 11.5 q0 10 -7 16q0 8 -5 15zM90 113q-5 1 -6 7q0 2 -2 3.5t-4.5 2t-4.5 4t-1 6.5t-0.5 5.5t-3.5 3.5t-4 3t-2 5q0 6 4.5 8.5t4 7t1.5 7.5t6.5 3t6.5 5t5.5 5.5t7.5 -2.5v-73q-4 -1 -7 -1h-1zM139 145q-3 -1 -4 -3.5t-0.5 -6t-1.5 -6.5t-4.5 -3.5t-4 -2t-1.5 -3.5q-1 -6 -5 -7 t-8 1v73q2 2 6.5 2t6.5 -5q0 -2 2 -3.5t5 -1.5t5.5 -3t2 -7.5t3.5 -7t4 -7.5q-1 -8 -6 -9zM249 17l-69 69q16 20 21.5 44.5t-1.5 49t-25.5 43t-44.5 25t-51.5 0t-44.5 -25.5t-25.5 -44.5t0 -51.5t25.5 -45q14 -14 32.5 -21.5t37 -7.5t35.5 6t31 18l69 -69q2 -2 4.5 -2t5 2 t2.5 5t-2 5zM44 91q-16 17 -22 39t0 44t22 38q12 12 28 18.5t32.5 6.5t32.5 -6.5t28 -18.5q16 -16 22 -38t0 -44t-22.5 -38.5t-38.5 -22.5t-44 0t-38 22z" />
</svg>