<svg viewBox="0 0 1024 1024" xmlns="http://www.w3.org/2000/svg">
  <path transform="scale(1, -1) translate(0, -960)" fill="currentColor" d="M592 613q1 15 -4.5 29.5t-14.5 26.5q-9 11 -20.5 17t-26.5 8q-8 17 -23 28.5t-33 13.5q-15 2 -30 -2t-27 -14q-12 11 -27 14.5t-31 1.5q-18 -2 -32.5 -13.5t-23.5 -28.5q-13 -2 -25 -8t-21 -17q-10 -12 -14.5 -26.5t-4.5 -29.5q-15 -11 -23 -28t-8 -36q0 -23 11 -41.5 t29 -29.5q-1 -13 2.5 -25.5t10.5 -23.5t16.5 -19t21.5 -12q6 -20 21 -34.5t35 -19.5q17 -4 34 0t30 16q10 -8 22 -13t25 -5q3 0 7.5 0.5t8.5 1.5q20 5 35 19.5t21 34.5q12 4 21.5 12t16.5 19t10.5 23.5t2.5 25.5q19 11 30 30.5t10 43.5q-2 18 -10.5 34t-21.5 27v0zM357 376 q-11 2 -21 11t-13 27q-1 5 -4.5 8.5t-8.5 4.5q-8 1 -15 6.5t-12 12.5q-6 9 -7.5 19t1.5 20q1 6 -2 11.5t-9 7.5q-14 5 -22.5 17t-8.5 28q0 13 6.5 24t16.5 17q4 3 6.5 7.5t1.5 8.5q-3 11 0.5 21.5t10.5 18.5q6 8 14 11.5t18 3.5v0v0q5 0 9 3t5 8q4 13 13.5 21t21.5 9 q11 2 20.5 -2t16.5 -12v-299q-6 -9 -16.5 -12t-21.5 -1zM560 504q-6 -2 -9 -7.5t-2 -11.5q2 -10 0 -20t-7 -19q-4 -7 -11 -12.5t-16 -6.5q-5 -1 -8 -4.5t-5 -8.5q-2 -16 -12 -26t-21 -12t-22 1.5t-18 12.5v300q7 8 16.5 12t20.5 2q12 -1 21 -9.5t14 -20.5q1 -5 6 -8.5 t10 -3.5q9 0 17.5 -3.5t14.5 -10.5q7 -8 9.5 -18.5t1.5 -21.5q-1 -5 1 -9.5t7 -6.5q10 -6 16 -16.5t6 -23.5q0 -17 -8.5 -30t-21.5 -18zM987 -5l-285 287q53 57 78 127q26 69 24.5 141.5t-29.5 141.5q-29 69 -84 124q-56 56 -127 85q-71 28 -145.5 28t-145.5 -28 q-71 -29 -127 -85q-57 -56 -85 -128q-28 -71 -28 -145t28 -145t85 -128q56 -56 127.5 -84.5t145.5 -28.5q71 0 138.5 25.5t122.5 76.5l285 -285q2 -2 5.5 -3t5.5 -1t5.5 1t5.5 3q5 4 5 10t-5 11v0zM168 291q-52 52 -77 117q-26 66 -26 134t26 133q25 65 77 117t117 78 t133 26q67 0 132.5 -26t116.5 -78q52 -52 78 -117q25 -65 25 -133t-25 -134q-26 -65 -78 -117q-51 -51 -116 -77q-66 -26 -133.5 -26t-132.5 26t-117 77v0z" />
</svg>