<svg viewBox="0 0 256 256" xmlns="http://www.w3.org/2000/svg">
  <path transform="scale(1, -1) translate(0, -256)" fill="currentColor" d="M203 5h-151q-11 0 -18 7t-7 17v80q0 17 10 31q8 13 8 27v5q-9 6 -14 15.5t-5 20.5q0 18 12 30.5t30 12.5h119q9 0 17.5 -3.5t14.5 -10.5q12 -13 11.5 -30t-12.5 -29q-2 -3 -7 -6v-7q0 -13 7 -24q10 -15 10 -34v-77q0 -11 -7.5 -18t-17.5 -7zM68 237q-12 0 -20.5 -8.5 t-8.5 -20.5q0 -8 4.5 -15t11.5 -11q4 -2 4 -6v-10q0 -18 -10 -33q-7 -12 -7 -25v-79q0 -4 3 -7.5t7 -3.5h152q4 0 7 3.5t3 7.5v78q0 14 -8 26q-10 16 -10 32v11q0 4 4.5 6t7.5 6q9 8 9 19.5t-9 20.5t-21 9h-119z" />
</svg>