<svg viewBox="0 0 1024 1024" xmlns="http://www.w3.org/2000/svg">
  <path transform="scale(1, -1) translate(0, -960)" fill="currentColor" d="M813 -32h-607q-36 0 -61 25t-25 60v318q0 30 9.5 60.5t27.5 59.5q15 25 23.5 53.5t8.5 58.5v29q-36 22 -56.5 58t-20.5 78q0 32 12 61t34 51q23 24 52.5 36t61.5 12h474q33 0 64.5 -13.5t55.5 -37.5q22 -23 34 -52t10 -60q-1 -31 -12.5 -59t-33.5 -50q-8 -8 -17 -14.5 t-18 -11.5v-35q0 -26 8 -51.5t24 -52.5q18 -29 27.5 -61.5t9.5 -66.5v-310q1 -35 -24 -60t-61 -25v0zM272 896q-25 0 -48.5 -9.5t-41.5 -27.5t-27 -41t-9 -48q0 -36 18 -66.5t50 -45.5q4 -3 6 -6.5t2 -8.5v-38q0 -35 -9 -67t-27 -61q-16 -25 -24 -51.5t-8 -52.5v-319 q0 -21 15.5 -36.5t38.5 -15.5h606q22 0 38.5 15.5t16.5 36.5v309q0 30 -8.5 58.5t-23.5 53.5q-18 30 -27.5 60t-9.5 60v45q0 5 2.5 8.5t7.5 5.5q9 5 17.5 11t17.5 13q18 17 27.5 40t9.5 47t-9.5 47t-27.5 42q-21 21 -46.5 31.5t-52.5 10.5h-474z" />
</svg>