<svg viewBox="0 0 256 256" xmlns="http://www.w3.org/2000/svg">
  <path transform="scale(1, -1) translate(0, -256)" fill="currentColor" d="M232 114q8 0 13.5 6t5.5 14v40q0 7 -5.5 13t-13.5 6h-90v31q0 8 -6 14t-14 6h-61q-8 0 -13.5 -6t-5.5 -14v-31h-18q-8 0 -13.5 -5.5t-5.5 -13.5v-41q0 -8 5.5 -13.5t13.5 -5.5h24v-23h-24q-8 0 -13.5 -5.5t-5.5 -13.5v-41q0 -8 5.5 -13.5t13.5 -5.5h208q8 0 13.5 5.5 t5.5 13.5v41q0 8 -5.5 13.5t-13.5 5.5h-24v23h24zM237 174v-41q0 -2 -1.5 -3.5t-3.5 -1.5h-58v50h58q2 0 3.5 -1t1.5 -3zM160 178v-50h-62v50h62zM56 224q0 2 1.5 4t3.5 2h62q2 0 3.5 -2t1.5 -4v-31h-72v31zM19 133v41q0 2 1.5 3.5t3.5 1.5h61v-51h-61q-2 0 -3.5 1.5 t-1.5 3.5zM62 114h59v-23h-59v23zM160 77v-50h-62v50h62zM19 32v40q0 2 1.5 3.5t3.5 1.5h61v-50h-61q-2 0 -3.5 1.5t-1.5 3.5zM237 72v-40q0 -2 -1.5 -4t-3.5 -2h-58v51h58q2 0 3.5 -1.5t1.5 -3.5zM194 91h-59v23h59v-23z" />
</svg>