<svg viewBox="0 0 1024 1024" xmlns="http://www.w3.org/2000/svg">
  <path transform="scale(1, -1) translate(0, -960)" fill="currentColor" d="M928 464h-74v125q0 33 -23 56.5t-57 23.5h-524q-34 0 -57 -23.5t-23 -56.5v-125h-74q-26 0 -45 -19t-19 -45v-109q0 -26 19 -45t45 -19h832q26 0 45 19t19 45v109q0 26 -19 45t-45 19zM822 589v-125h-294v173h246q21 0 34.5 -14.5t13.5 -33.5zM664 432v-173h-304v173h304 zM202 589q0 20 13.5 34t34.5 14h246v-173h-294v125v0zM64 291v109q0 13 9.5 22.5t22.5 9.5h232v-173h-232q-13 0 -22.5 9.5t-9.5 22.5zM960 291q0 -13 -9.5 -22.5t-22.5 -9.5h-232v173h232q13 0 22.5 -9.5t9.5 -22.5v-109z" />
</svg>