<svg viewBox="0 0 1024 1024" xmlns="http://www.w3.org/2000/svg">
  <path transform="scale(1, -1) translate(0, -960)" fill="currentColor" d="M928 405q26 0 45 18.5t19 45.5v161q0 27 -19 45.5t-45 18.5h-373v140q0 26 -18.5 45t-45.5 19h-246q-27 0 -45.5 -19t-18.5 -45v-140h-85q-26 0 -45 -18.5t-19 -45.5v-161q0 -27 19 -45.5t45 -18.5h109v-117h-109q-26 0 -45 -19t-19 -45v-162q0 -26 19 -45t45 -19h832 q26 0 45 19t19 45v162q0 26 -19 45t-45 19h-109v117h109zM960 630v-161q0 -13 -9.5 -22.5t-22.5 -9.5h-245v225h245q13 0 22.5 -9t9.5 -23zM651 662v-225h-269v225h269zM213 834q0 13 9.5 22.5t22.5 9.5h246q13 0 22.5 -9.5t9.5 -22.5v-140h-310v140v0zM64 469v161 q0 14 9.5 23t22.5 9h254v-225h-254q-13 0 -22.5 9.5t-9.5 22.5v0zM237 405h259v-117h-259v117zM651 256v-226h-269v226h269zM64 62v162q0 13 9.5 22.5t22.5 9.5h254v-226h-254q-13 0 -22.5 9.5t-9.5 22.5v0zM960 224v-162q0 -13 -9.5 -22.5t-22.5 -9.5h-245v226h245 q13 0 22.5 -9.5t9.5 -22.5zM787 288h-259v117h259v-117z" />
</svg>