<svg viewBox="0 0 256 256" xmlns="http://www.w3.org/2000/svg">
  <path transform="scale(1, -1) translate(0, -256)" fill="currentColor" d="M232 134h-16v29q0 9 -6.5 15.5t-15.5 6.5h-132q-9 0 -15.5 -6.5t-6.5 -15.5v-29h-16q-7 0 -12.5 -5t-5.5 -13v-27q0 -8 5.5 -13t12.5 -5h208q8 0 13 5t5 13v27q0 8 -5 13t-13 5zM204 163v-29h-70v39h60q4 0 7 -3t3 -7zM164 122v-39h-72v39h72zM52 163q0 4 3 7t7 3h60v-39 h-70v29zM18 89v27q0 2 2 4t4 2h56v-39h-56q-2 0 -4 1.5t-2 4.5zM238 89q0 -3 -2 -4.5t-4 -1.5h-56v39h56q2 0 4 -2t2 -4v-27z" />
</svg>