<svg viewBox="0 0 1024 1024" xmlns="http://www.w3.org/2000/svg">
  <path transform="scale(1, -1) translate(0, -960)" fill="currentColor" d="M944 379h-205v122q0 20 -13.5 34t-34.5 14h-289v121q0 21 -14 34.5t-34 13.5h-274q-20 0 -34 -13.5t-14 -34.5v-121q0 -5 1 -9t4 -7q-3 -4 -4 -8.5t-1 -7.5v-138q0 -5 1 -8.5t4 -7.5q-3 -3 -4 -7t-1 -9v-120q0 -20 14 -34t34 -14h290q4 0 8 1.5t8 3.5q3 -2 7 -3.5t9 -1.5 h305q5 0 9 1.5t7 3.5q4 -2 7.5 -3.5t8.5 -1.5h205q20 0 34 14t14 34v104q0 21 -14 34.5t-34 13.5zM691 517q7 0 11.5 -4.5t4.5 -11.5v-122h-305v138h289v0zM64 517h306v-138h-306v138v0zM64 669q0 7 4.5 11.5t11.5 4.5h274q7 0 11.5 -4.5t4.5 -11.5v-122h-306v122v0zM80 211 q-7 0 -11.5 4.5t-4.5 11.5v120h306v-136h-290zM402 211v136h305v-136h-305zM960 227q0 -7 -4.5 -11.5t-11.5 -4.5h-205v136h205q7 0 11.5 -4.5t4.5 -11.5v-104z" />
</svg>