<svg viewBox="0 0 256 256" xmlns="http://www.w3.org/2000/svg">
  <path transform="scale(1, -1) translate(0, -256)" fill="currentColor" d="M236 114h-48v27q0 7 -4.5 11t-11.5 4h-69v28q0 6 -4.5 10.5t-10.5 4.5h-68q-6 0 -10.5 -4.5t-4.5 -10.5v-31v-3.5v-4.5v-34v-4.5v-3.5v-30q0 -6 4.5 -10.5t10.5 -4.5h72h4.5h3.5h77h3.5h4.5h51q6 0 10.5 4t4.5 11v26q0 6 -4.5 10.5t-10.5 4.5zM174 141v-27h-71v28h69 q2 0 2 -1zM19 142h71v-28h-71v28zM19 183q0 1 1 1h69q1 0 1 -1v-27h-71v27zM19 73v27h71v-28h-70q-1 -1 -1 1zM103 100h71v-28h-71v28zM237 73q0 -1 -1 -1h-48v28h48q1 0 1 -2v-25z" />
</svg>