<svg viewBox="0 0 256 256" xmlns="http://www.w3.org/2000/svg">
  <path transform="scale(1, -1) translate(0, -256)" fill="currentColor" d="M220 130h-99v30q0 7 -5.5 13t-13.5 6h-58q-8 0 -13.5 -5.5t-5.5 -13.5v-30h-2q-8 0 -13.5 -5.5t-5.5 -13.5v-37q0 -8 5.5 -13.5t13.5 -5.5h22v-28h-34q-3 0 -5 -2t-2 -5t2 -5t5 -2h221q3 0 5 2t2 5t-2 5t-5 2h-34v28h22q7 0 13 5.5t6 13.5v37q0 8 -6 13.5t-13 5.5z M39 160q0 2 1.5 3.5t3.5 1.5h58q2 0 4 -1.5t2 -3.5v-30h-69v30zM60 55h55v-27h-55v27zM184 28h-56v27h56v-27zM225 74q0 -2 -1.5 -3.5t-3.5 -1.5h-197q-2 0 -3.5 1.5t-1.5 3.5v37q0 2 1.5 3.5t3.5 1.5h197q2 0 3.5 -1.5t1.5 -3.5v-37zM247 234l-5 4q-4 5 -11.5 5t-11.5 -5 l-13 -13q-4 -4 -4.5 -10t2.5 -11l-9 -9q-6 6 -14 5.5t-13 -7.5l-10 -15q-4 -6 -3.5 -12.5t5.5 -10.5l5 -5q5 -6 11.5 -6t11.5 4l15 10q7 5 7.5 13.5t-5.5 13.5l9 9q4 -2 8 -2q7 0 12 5l13 13q5 5 5 12t-5 12zM196 172q0 -2 -2 -3l-15 -10q-3 -2 -5 0l-5 5q-1 1 -1 2.5t1 2.5 l10 15q1 2 3 2v0q2 0 3 -2l10 -9q1 -2 1 -3zM237 220l-13 -13q-1 -1 -2 -1t-2 1l-4 4q-1 1 -1 2t1 2l13 13h2h2l4 -5q1 -1 1 -2z" />
</svg>