<svg viewBox="0 0 1024 1024" xmlns="http://www.w3.org/2000/svg">
  <path transform="scale(1, -1) translate(0, -960)" fill="currentColor" d="M878 445h-404v128q0 26 -19 45t-45 19h-234q-26 0 -45 -19t-19 -45v-128h-19q-27 0 -45.5 -19t-18.5 -45v-149q0 -26 18.5 -45t45.5 -19h101v-134h-149q-7 0 -11.5 -4.5t-4.5 -11.5q0 -8 4.5 -12t11.5 -4h881q8 0 12 4t4 12q0 7 -4 11.5t-12 4.5h-148v134h100 q27 0 45.5 19t18.5 45v149q0 26 -18.5 45t-45.5 19v0zM144 574q0 14 9.5 23t22.5 9h234q13 0 22.5 -9t9.5 -23v-128h-298v128zM226 168h244v-134h-244v134v0zM747 34h-245v134h245v-134zM910 232q0 -13 -9 -22.5t-23 -9.5h-785q-13 0 -22.5 9.5t-9.5 22.5v149q0 13 9.5 22.5 t22.5 9.5h787q13 0 22.5 -9.5t9.5 -22.5v-149h-2zM979 861l-17 17q-16 16 -39 16t-38 -16l-53 -51q-16 -15 -16 -37.5t14 -39.5l-52 -52l-8 8q-10 9 -22.5 13.5t-25.5 3.5q-14 -1 -25 -8t-19 -17l-41 -61q-12 -18 -10 -39.5t16 -35.5l21 -21q8 -9 19.5 -13.5t22.5 -4.5 q8 0 17 2.5t16 8.5l61 42q11 7 17.5 18.5t8.5 24.5q1 13 -3.5 26t-14.5 22l-8 8l53 53q7 -6 16 -8.5t17 -2.5q11 0 21.5 3.5t17.5 12.5l51 51q7 7 11.5 17.5t4.5 20.5q2 11 -2 21.5t-11 17.5zM784 603l-61 -41q-8 -6 -18 -5t-17 8l-21 21q-7 7 -8 16.5t5 18.5l42 61 q3 4 8.5 7.5t11.5 3.5h2h2q6 0 10.5 -2.5t8.5 -5.5l38 -39q5 -4 6.5 -10t1.5 -12q-1 -7 -3.5 -12.5t-7.5 -8.5zM955 806l-51 -51q-6 -6 -16 -6t-16 6l-18 18q-7 7 -7 16.5t7 15.5l52 51q3 4 7 5t9 1q4 0 8 -1t8 -5l17 -18q4 -3 5.5 -7t1.5 -9q1 -4 -1 -8t-6 -8z" />
</svg>