<svg viewBox="0 0 1024 1024" xmlns="http://www.w3.org/2000/svg">
  <path transform="scale(1, -1) translate(0, -960)" fill="currentColor" d="M976 443h-123q-15 55 -47 101q-33 46 -77.5 80t-100.5 53q-55 19 -116 19t-116 -19q-56 -19 -100.5 -53t-77.5 -81q-32 -46 -47 -101h-123q-7 0 -11.5 -4.5t-4.5 -11.5q0 -8 4.5 -12t11.5 -4h110v-196q0 -7 4.5 -11.5t11.5 -4.5q8 0 12 4.5t4 11.5v140q0 14 1.5 28 t5.5 28h632l4 -28t2 -28v0v-140q0 -7 4.5 -11.5t11.5 -4.5t11.5 4.5t4.5 11.5v197h109q7 0 11.5 4.5t4.5 11.5t-4.5 11.5t-11.5 4.5v0zM496 443h-136v184q31 16 65.5 25.5t70.5 11.5v-221zM528 664q37 -1 71.5 -10.5t64.5 -26.5v-184h-136v221zM328 608v-165h-123 q15 51 47 93t76 72zM696 443v165q43 -30 75.5 -72t47.5 -93h-123z" />
</svg>