<svg viewBox="0 0 1024 1024" xmlns="http://www.w3.org/2000/svg">
  <path transform="scale(1, -1) translate(0, -960)" fill="currentColor" d="M949 434h27q7 0 11.5 4t4.5 12v204q0 34 -24 58t-58 24h-796q-34 0 -58 -24t-24 -58v-204q0 -8 4.5 -12t11.5 -4h27q49 0 84.5 -35.5t35.5 -84.5v-84q-15 6 -32.5 6t-32.5 -7l-88 -40q-6 -3 -8.5 -9t0.5 -12q2 -5 5.5 -7.5t8.5 -2.5q1 0 3 0.5t3 1.5l90 40q10 5 21 5 t21 -5l60 -27q17 -7 34.5 -7t34.5 7l61 27q10 5 21 5t21 -5l60 -27q17 -7 34.5 -7t34.5 7l61 27q10 5 21 5t21 -5l60 -27q17 -7 34.5 -7t34.5 7l61 27q10 5 21 5t21 -5l88 -40q6 -2 12 0t8 8q3 6 0.5 12t-8.5 9l-88 40q-15 7 -32.5 7t-32.5 -6v84q0 49 35.5 84.5t84.5 35.5 v0zM594 229l-61 -27q-10 -5 -21 -5t-21 5l-61 27q-9 3 -18.5 5t-19.5 1v77q0 49 35.5 84.5t84.5 35.5t84.5 -35.5t35.5 -84.5v-77q-10 1 -19.5 0t-18.5 -6zM765 202q-10 -5 -21 -5t-21 5l-61 27q0 1 1 2.5t1 3.5v79q0 62 -45 107t-107 45t-107 -45t-45 -107v-79v-3t2 -3 l-61 -27q-10 -5 -21 -5t-21 5l-33 14v1.5v1.5v95q0 62 -45 107t-107 45h-10v188q0 21 14.5 35.5t35.5 14.5h795q20 0 34.5 -14.5t14.5 -35.5v-188h-11q-62 0 -107 -45t-45 -107v-95v-1.5v-1.5l-30 -14v0zM643 606h-75q-7 0 -11.5 -4t-4.5 -12q0 -7 4.5 -11.5t11.5 -4.5h75 q7 0 11.5 4.5t4.5 11.5q0 8 -4.5 12t-11.5 4zM456 606h-74q-7 0 -11.5 -4t-4.5 -12q0 -7 4.5 -11.5t11.5 -4.5h74q7 0 11.5 4.5t4.5 11.5q0 8 -5 12t-11 4zM269 606h-75q-8 0 -12 -4t-4 -12q0 -7 4 -11.5t12 -4.5h75q7 0 11.5 4.5t4.5 11.5q0 8 -5 12t-11 4zM846 590 q0 8 -4 12t-12 4h-73q-7 0 -11.5 -4t-4.5 -12q0 -7 4.5 -11.5t11.5 -4.5h73q8 0 12 5t4 11z" />
</svg>