<svg viewBox="0 0 1024 1024" xmlns="http://www.w3.org/2000/svg">
  <path transform="scale(1, -1) translate(0, -960)" fill="currentColor" d="M976 330h-118q-61 0 -118 52t-102.5 117.5t-74.5 123.5q-30 59 -35 71v88q0 8 -4.5 12t-11.5 4t-11.5 -4t-4.5 -12v-88q-5 -12 -35 -71q-29 -58 -74.5 -123.5t-102.5 -117.5t-118 -52h-118q-7 0 -11.5 -4.5t-4.5 -11.5q0 -8 4.5 -12t11.5 -4h117v-168h-24 q-7 0 -11.5 -4.5t-4.5 -11.5q0 -8 4.5 -12t11.5 -4h78q7 0 11.5 4t4.5 12q0 7 -4.5 11.5t-11.5 4.5h-24v168h631v-168h-24q-8 0 -12 -4.5t-4 -11.5q0 -8 4 -12t12 -4h78q7 0 11.5 4t4.5 12q0 7 -4.5 11.5t-11.5 4.5h-24v168h120q7 0 11.5 4t4.5 12q0 7 -4.5 11.5t-11.5 4.5 v0zM758 330h-230v291q16 -31 40 -72q23 -40 53 -81t64 -78q35 -36 73 -60zM496 621v-291h-230q38 24 73 60q34 37 64 78t53 81q24 41 40 72z" />
</svg>