<svg viewBox="0 0 256 256" xmlns="http://www.w3.org/2000/svg">
  <path transform="scale(1, -1) translate(0, -256)" fill="currentColor" d="M237 121h7q3 0 5 2t2 5v52q0 9 -7 16t-16 7h-200q-9 0 -16 -7t-7 -16v-52q0 -3 2 -5t5 -2h7q11 0 19 -7.5t8 -19.5v-16q-8 1 -15 -2l-22 -10q-3 -1 -4 -4t1 -6t6 -3q2 0 3 1l22 10q4 2 8 0l15 -7q10 -4 20 0l15 7q4 2 8 0l15 -7q10 -4 20 0l15 7q4 2 8 0l15 -7 q10 -4 20 0l15 7q4 2 8 0l22 -10q2 -2 5 -1t4 4t0 5.5t-4 3.5l-21 10q-8 3 -15 2v16q0 12 8 19.5t19 7.5zM147 76l-15 -7q-4 -2 -8 0l-15 7q-3 1 -8 2v16q0 12 7.5 19.5t19 7.5t19 -7.5t7.5 -19.5v-16q-3 0 -7 -2zM190 69q-4 -2 -8 0l-13 6v19q0 17 -12 29t-29 12t-29 -12 t-12 -29v-19l-13 -6q-4 -2 -8 0l-6 3v3v20q0 17 -12 29t-29 12v44q0 4 3 6.5t7 2.5h199q4 0 6.5 -2.5t2.5 -6.5v-45q-17 0 -29 -12t-12 -29v-19l1 -3zM161 171h-19q-3 0 -5 -2t-2 -5t2 -5.5t5 -2.5h19q3 0 5 2.5t2 5.5t-2 5t-5 2zM114 171h-18q-3 0 -5.5 -2t-2.5 -5 t2.5 -5.5t5.5 -2.5h18q3 0 5 2.5t2 5.5t-2 5t-5 2zM67 171h-19q-3 0 -5 -2t-2 -5t2 -5.5t5 -2.5h19q3 0 5 2.5t2 5.5t-2 5t-5 2zM215 164q0 3 -2 5t-5 2h-19q-3 0 -5 -2t-2 -5t2 -5.5t5 -2.5h19q3 1 5 3t2 5z" />
</svg>