<svg viewBox="0 0 1024 1024" xmlns="http://www.w3.org/2000/svg">
  <path transform="scale(1, -1) translate(0, -960)" fill="currentColor" d="M976 432h-32l-138 240q0 1 -0.5 1.5t-0.5 1.5q-3 3 -5.5 4t-5.5 1h-570q-4 0 -7 -1t-4 -4l-1 -1t-1 -2l-139 -240h-24q-7 0 -11.5 -4.5t-4.5 -11.5t4.5 -11.5t11.5 -4.5h181v-154h-42q-7 0 -11.5 -4t-4.5 -12q0 -7 4.5 -11.5t11.5 -4.5h114q7 0 11.5 4.5t4.5 11.5 q0 8 -4.5 12t-11.5 4h-42v154h501v-154h-42q-7 0 -11.5 -4t-4.5 -12q0 -7 4.5 -11.5t11.5 -4.5h114q7 0 11.5 4.5t4.5 11.5q0 8 -4.5 12t-11.5 4h-42v154h186q7 0 11.5 4.5t4.5 11.5t-4.5 11.5t-11.5 4.5zM678 432l116 200l113 -200h-229v0zM509 632l113 -200h-228l115 200 v0zM366 448l-115 200h229zM536 648h229l-114 -200l-115 200v0zM224 632l115 -200h-230z" />
</svg>