<svg viewBox="0 0 1024 1024" xmlns="http://www.w3.org/2000/svg">
  <path transform="scale(1, -1) translate(0, -960)" fill="currentColor" d="M976 736h-928q-7 0 -11.5 -4.5t-4.5 -11.5t4.5 -11.5t11.5 -4.5h59v-464q0 -34 23.5 -57t58.5 -23q27 0 49 17.5t29 44.5q11 43 34 78q24 36 56.5 61t72.5 39t84 14q43 0 83 -14t72.5 -39t56.5 -61q23 -35 34 -78q7 -27 29 -44.5t49 -17.5h2q34 0 57 23t23 57v464h56 q7 0 11.5 4.5t4.5 11.5t-4.5 11.5t-11.5 4.5zM528 579v125h162v-125h-162zM334 579v125h162v-125h-162zM302 704v-125h-163v125h163zM885 240q0 -20 -14 -34t-34 -14h-2q-17 0 -30 11t-16 27q-12 48 -38 87q-27 40 -63.5 68.5t-81.5 44.5t-94 16t-94 -16t-81.5 -44.5 t-63.5 -68.5q-26 -39 -38 -87q-3 -16 -17 -27t-31 -11q-20 0 -34 14t-14 34v307h746v-307zM885 579h-163v125h161v-125h2z" />
</svg>