<svg viewBox="0 0 1024 1024" xmlns="http://www.w3.org/2000/svg">
  <path transform="scale(1, -1) translate(0, -960)" fill="currentColor" d="M976 326h-117v460q0 7 -4.5 11.5t-11.5 4.5t-11.5 -4.5t-4.5 -11.5v-79q-35 -4 -72 -8q-38 -3 -77.5 -5.5t-81.5 -4.5q-41 -1 -84 -1t-84 1q-42 1 -81.5 3.5t-77.5 6.5q-37 3 -72 8v79q0 7 -4.5 11.5t-11.5 4.5t-11.5 -4.5t-4.5 -11.5v-461h-117q-7 0 -11.5 -4.5 t-4.5 -11.5t4.5 -11.5t11.5 -4.5h117v-168h-24q-7 0 -11.5 -4.5t-4.5 -11.5t4.5 -11.5t11.5 -4.5h78q7 0 11.5 4.5t4.5 11.5t-4.5 11.5t-11.5 4.5h-24v169h631v-168h-24q-8 0 -12 -4t-4 -12q0 -7 4 -11.5t12 -4.5h78q7 0 11.5 4.5t4.5 11.5q0 8 -4.5 12t-11.5 4h-24v168h120 q7 0 11.5 4.5t4.5 11.5q0 8 -4.5 12t-11.5 4zM496 326h-123v333q30 -1 61 -2t62 -1v-330zM528 656q31 0 62 1t61 2v-334h-123v331zM197 675q33 -5 70 -8.5t74 -5.5v-336h-144v350v0zM683 326v336q39 3 75 6.5t69 8.5v-351h-144z" />
</svg>