<svg viewBox="0 0 1024 1024" xmlns="http://www.w3.org/2000/svg">
  <path transform="scale(1, -1) translate(0, -960)" fill="currentColor" d="M928 738h-226v115q0 26 -18.5 45t-45.5 19h-252q-27 0 -45.5 -19t-18.5 -45v-114h-226q-26 0 -45 -18.5t-19 -45.5v-630q0 -27 19 -45.5t45 -18.5h832q26 0 45 18.5t19 45.5v629q0 26 -19 45t-45 19v0zM354 853q0 13 9 22.5t23 9.5h254q13 0 22.5 -9.5t9.5 -22.5v-114 h-318v114zM96 706h832q13 0 22.5 -9.5t9.5 -22.5v-164h-1h-1l-430 -116v62q0 7 -4.5 11.5t-11.5 4.5t-11.5 -4.5t-4.5 -11.5v-62l-430 116h-1h-1v164q0 13 9.5 22.5t22.5 9.5v0zM928 11h-832q-13 0 -22.5 9.5t-9.5 22.5v435l432 -118v-53q0 -7 4.5 -11.5t11.5 -4.5t11.5 4.5 t4.5 11.5v53l432 118v-433q0 -15 -9.5 -24.5t-22.5 -9.5v0z" />
</svg>