<svg viewBox="0 0 256 256" xmlns="http://www.w3.org/2000/svg">
  <path transform="scale(1, -1) translate(0, -256)" fill="currentColor" d="M168 124v2q0 11 -7 18.5t-18 8.5v4q0 3 -2 5t-5 2t-5 -2t-2 -5v-4h-11v4q0 3 -2 5t-5 2t-5 -2.5t-2 -5.5v-3h-10q-3 0 -5 -2t-2 -5t2 -5t5 -2v-65q-3 0 -5 -2.5t-2 -5t2 -4.5t5 -2h10v-4q0 -3 2 -5.5t5 -2.5t5 2.5t2 5.5v4h11v-4q0 -3 2 -5.5t5 -2.5t5.5 2.5t2.5 5.5v4 q10 1 17.5 8.5t7.5 17.5v2q-1 11 -9 18q8 8 8 18zM154 126v-1q0 -5 -3.5 -8.5t-8.5 -3.5h-34v26h32q6 0 10 -4t4 -9zM142 99q5 0 8.5 -3t3.5 -8v-1q0 -6 -4 -9.5t-10 -3.5h-32v25h34zM232 192h-65v19q0 10 -7 17.5t-18 7.5h-29q-10 0 -17.5 -7.5t-7.5 -17.5v-19h-64 q-8 0 -13.5 -6t-5.5 -14v-133q0 -8 5.5 -13.5t13.5 -5.5h208q8 0 13.5 5.5t5.5 13.5v134q0 8 -5.5 13.5t-13.5 5.5zM103 211q0 4 3 7.5t8 3.5h29q4 0 7.5 -3.5t3.5 -7.5v-19h-51v19zM237 40q0 -3 -1.5 -4.5t-3.5 -1.5h-208q-2 0 -3.5 1.5t-1.5 4.5v133q0 2 1.5 3.5t3.5 1.5 h208q2 0 3.5 -1.5t1.5 -3.5v-133z" />
</svg>