<svg viewBox="0 0 1024 1024" xmlns="http://www.w3.org/2000/svg">
  <path transform="scale(1, -1) translate(0, -960)" fill="currentColor" d="M661 434v3v3q-1 40 -30.5 67t-70.5 27v28q0 7 -4.5 11.5t-11.5 4.5t-11.5 -4.5t-4.5 -11.5v-28h-67v28q0 7 -4.5 11.5t-11.5 4.5t-11.5 -4.5t-4.5 -11.5v-28h-51q-8 0 -12 -4t-4 -12q0 -7 4 -11.5t12 -4.5h11v-284h-11q-8 0 -12 -4.5t-4 -11.5q0 -8 4 -12t12 -4h51v-29 q0 -7 4.5 -11.5t11.5 -4.5t11.5 4.5t4.5 11.5v29h67v-29q0 -7 4.5 -11.5t11.5 -4.5t11.5 4.5t4.5 11.5v29q41 0 70.5 28t30.5 66v4v4q-1 23 -12.5 41.5t-29.5 30.5q19 13 30.5 32t11.5 42v0zM566 346q26 0 44 -17t19 -41v-2.5v-2.5v0v0q-1 -26 -21 -45t-48 -19h-138v127h144 zM566 378h-145v126h139q28 0 48.5 -19t20.5 -45v-2.5v-2.5q0 -24 -18.5 -40.5t-44.5 -16.5zM928 691h-270v88q0 36 -25.5 61.5t-61.5 25.5h-117q-36 0 -61 -25.5t-25 -61.5v-88h-272q-26 0 -45 -18.5t-19 -45.5v-533q0 -26 19 -45t45 -19h832q26 0 45 19t19 45v533 q0 27 -19 45.5t-45 18.5zM398 779q0 23 16 39t39 16h117q22 0 38 -16t16 -39v-88h-226v88v0zM960 94q0 -13 -9.5 -22.5t-22.5 -9.5h-832q-13 0 -22.5 9.5t-9.5 22.5v533q0 13 9.5 22.5t22.5 9.5h832q13 0 22.5 -9.5t9.5 -22.5v-533z" />
</svg>