<svg viewBox="0 0 256 256" xmlns="http://www.w3.org/2000/svg">
  <path transform="scale(1, -1) translate(0, -256)" fill="currentColor" d="M251 141v43q0 8 -5.5 14t-13.5 6h-53v25q0 8 -5.5 13.5t-13.5 5.5h-64q-7 0 -13 -5.5t-6 -13.5v-25h-53q-8 0 -13.5 -6t-5.5 -14v-157q0 -8 5.5 -13.5t13.5 -5.5h208q8 0 13.5 5.5t5.5 13.5v114v0zM91 229q0 2 1.5 3.5t3.5 1.5h64q2 0 3.5 -1.5t1.5 -3.5v-25h-74v25z M24 190h208q2 0 3.5 -2t1.5 -4v-38l-40 -17q-11 -4 -21 0l-32 13q-16 7 -32 0l-32 -13q-10 -4 -21 0l-40 17v38q0 3 1.5 4.5t3.5 1.5zM232 22h-208q-2 0 -3.5 1.5t-1.5 3.5v103l35 -14q16 -7 32 0l31 13q11 4 22 0l31 -13q8 -3 16 -3t16 3l35 14v-103q0 -2 -1.5 -3.5 t-3.5 -1.5z" />
</svg>