<svg viewBox="0 0 1024 1024" xmlns="http://www.w3.org/2000/svg">
  <path transform="scale(1, -1) translate(0, -960)" fill="currentColor" d="M992 499v175q0 26 -19 45t-45 19h-226v115q0 26 -18.5 45t-45.5 19h-252q-27 0 -45.5 -19t-18.5 -45v-114h-226q-26 0 -45 -18.5t-19 -45.5v-174v0v0v-456q0 -27 19 -45.5t45 -18.5h832q26 0 45 18.5t19 45.5v454v0v0v0zM354 853q0 13 9 22.5t23 9.5h254q13 0 22.5 -9.5 t9.5 -22.5v-114h-318v114zM96 706h832q13 0 22.5 -9.5t9.5 -22.5v-164l-168 -68q-23 -10 -47.5 -10t-48.5 10l-125 51q-29 12 -60 12t-60 -12l-125 -51q-22 -10 -47.5 -10t-48.5 10l-166 68v164q0 13 9.5 22.5t22.5 9.5v0zM928 11h-832q-13 0 -22.5 9.5t-9.5 22.5v432 l157 -64q29 -12 60 -12t60 12l125 51q22 10 47 10t49 -10l124 -51q15 -6 30 -8.5t30 -2.5t29.5 2.5t29.5 8.5l157 64v-432q-2 -13 -11.5 -22.5t-22.5 -9.5v0z" />
</svg>