<svg viewBox="0 0 1024 1024" xmlns="http://www.w3.org/2000/svg">
  <path transform="scale(1, -1) translate(0, -960)" fill="currentColor" d="M907 672h-213q-7 53 -52.5 89t-107.5 36h-48q-62 0 -107 -36t-53 -89h-214q-34 0 -57 -23t-23 -57v-411q0 -34 23 -57t57 -23h795q34 0 57 23t23 57v411q0 32 -23 56t-57 24v0zM486 763h48q48 0 84.5 -26.5t43.5 -66.5h-304q8 40 43.5 66.5t84.5 26.5zM112 640h795 q21 0 34.5 -14t13.5 -34v-136l-411 -75q-6 -1 -13 -1t-13 1l-454 83v128q0 19 14 33.5t34 14.5zM907 133h-795q-20 0 -34 13.5t-14 34.5v249l450 -81q4 -1 9 -1.5t10 -0.5t9.5 0.5t9.5 1.5l405 73v-241q-1 -21 -15 -34.5t-35 -13.5v0z" />
</svg>