<svg viewBox="0 0 256 256" xmlns="http://www.w3.org/2000/svg">
  <path transform="scale(1, -1) translate(0, -256)" fill="currentColor" d="M232 204h-53v25q0 8 -5.5 13.5t-13.5 5.5h-64q-7 0 -13 -5.5t-6 -13.5v-25h-53q-8 0 -13.5 -6t-5.5 -14v-157q0 -8 5.5 -13.5t13.5 -5.5h208q8 0 13.5 5.5t5.5 13.5v157q0 8 -5.5 14t-13.5 6zM91 229q0 2 1.5 3.5t3.5 1.5h64q2 0 3.5 -1.5t1.5 -3.5v-25h-74v25zM24 190 h208q2 0 3.5 -2t1.5 -4v-38l-102 -28v12q0 3 -2 5t-5 2t-5 -2t-2 -5v-12l-102 28v38q0 3 1.5 4.5t3.5 1.5zM232 22h-208q-2 0 -3.5 1.5t-1.5 3.5v105l102 -28v-11q0 -3 2 -5t5 -2t5 2t2 5v11l102 28v-105q0 -2 -1.5 -3.5t-3.5 -1.5z" />
</svg>