<svg viewBox="0 0 1024 1024" xmlns="http://www.w3.org/2000/svg">
  <path transform="scale(1, -1) translate(0, -960)" fill="currentColor" d="M928 738h-226v115q0 26 -18.5 45t-45.5 19h-252q-27 0 -45.5 -19t-18.5 -45v-114h-226q-26 0 -45 -18.5t-19 -45.5v-630q0 -27 19 -45.5t45 -18.5h832q26 0 45 18.5t19 45.5v629q0 26 -19 45t-45 19v0zM782 706v-695h-134v695h134zM616 706v-695h-205v695h205zM354 853 q0 13 9 22.5t23 9.5h254q13 0 22.5 -9.5t9.5 -22.5v-114h-318v114zM379 706v-695h-134v695h134zM64 43v631q0 13 9.5 22.5t22.5 9.5h117v-695h-117q-13 0 -22.5 9.5t-9.5 22.5v0zM960 43q0 -13 -9.5 -22.5t-22.5 -9.5h-114v695h114q13 0 22.5 -9.5t9.5 -22.5v-631z" />
</svg>