<svg viewBox="0 0 256 256" xmlns="http://www.w3.org/2000/svg">
  <path transform="scale(1, -1) translate(0, -256)" fill="currentColor" d="M227 187h-51q-3 13 -15 22t-27 9h-12q-16 0 -28 -9t-15 -22h-51q-10 0 -16.5 -7t-6.5 -16v-103q0 -10 6.5 -16.5t16.5 -6.5h199q9 0 16 6.5t7 16.5v103q0 9 -7 16t-16 7zM122 204h12q9 0 17 -5t11 -12h-68q2 7 10 12t18 5zM28 173h199q3 0 6 -3t3 -6v-32l-100 -18 q-3 -1 -6 0l-111 20v30q0 4 2.5 6.5t6.5 2.5zM227 52h-199q-4 0 -6.5 2.5t-2.5 6.5v59l109 -20h5h5l98 18v-57q0 -4 -2.5 -6.5t-6.5 -2.5z" />
</svg>