<svg viewBox="0 0 1024 1024" xmlns="http://www.w3.org/2000/svg">
  <path transform="scale(1, -1) translate(0, -960)" fill="currentColor" d="M912 626h-227v56q0 60 -43 102.5t-103 42.5h-57q-60 0 -103 -42.5t-43 -102.5v-56h-224q-34 0 -57 -23.5t-23 -56.5v-396q0 -33 23 -56.5t57 -23.5h800q34 0 57 23.5t23 56.5v396q0 33 -23 56.5t-57 23.5v0zM371 682q0 46 33.5 79.5t80.5 33.5h57q47 0 80.5 -33.5 t33.5 -79.5v-56h-285v56zM112 594h800q20 0 34 -14t14 -34v-117h-141v53q0 7 -4.5 11.5t-11.5 4.5t-11.5 -4.5t-4.5 -11.5v-53h-550v53q0 7 -4.5 11.5t-11.5 4.5t-11.5 -4.5t-4.5 -11.5v-53h-141v117q0 20 14 34t34 14v0zM912 102h-800q-20 0 -34 14t-14 34v247h141v-53 q0 -7 4.5 -11.5t11.5 -4.5t11.5 4.5t4.5 11.5v53h550v-53q0 -7 4.5 -11.5t11.5 -4.5t11.5 4.5t4.5 11.5v53h141v-248q0 -19 -14 -33t-34 -14z" />
</svg>