<svg viewBox="0 0 1024 1024" xmlns="http://www.w3.org/2000/svg">
  <path transform="scale(1, -1) translate(0, -960)" fill="currentColor" d="M928 738h-226v115q0 26 -18.5 45t-45.5 19h-252q-27 0 -45.5 -19t-18.5 -45v-114h-226q-26 0 -45 -18.5t-19 -45.5v-630q0 -27 19 -45.5t45 -18.5h832q26 0 45 18.5t19 45.5v629q0 26 -19 45t-45 19v0zM354 853q0 13 9 22.5t23 9.5h254q13 0 22.5 -9.5t9.5 -22.5v-114 h-318v114zM96 706h832q13 0 22.5 -9.5t9.5 -22.5v-164h-2.5t-2.5 -1l-233 -122h-194v67q0 8 -4.5 12t-11.5 4t-11.5 -4t-4.5 -12v-67h-194l-233 123q-1 0 -2.5 1t-2.5 1v162q0 13 9.5 22.5t22.5 9.5v0zM928 11h-832q-13 0 -22.5 9.5t-9.5 22.5v432l227 -118q1 -1 3.5 -1.5 t4.5 -0.5h197v-49q0 -8 4.5 -12t11.5 -4t11.5 4t4.5 12v49h198q3 0 4.5 0.5t3.5 1.5l226 118v-432q0 -13 -9.5 -22.5t-22.5 -9.5z" />
</svg>