<svg viewBox="0 0 256 256" xmlns="http://www.w3.org/2000/svg">
  <path transform="scale(1, -1) translate(0, -256)" fill="currentColor" d="M128 194q-18 0 -33.5 -8.5t-25 -24t-9.5 -33.5t9.5 -33.5t25 -24t33.5 -8.5t33.5 8.5t25 24t9.5 33.5t-9.5 33.5t-25 24t-33.5 8.5zM135 180q16 -2 28 -12l-28 -20v32zM135 131l37 26q5 -7 8 -16l-45 -30v20zM74 128q0 20 13.5 34.5t33.5 17.5v-104q-20 3 -33.5 17.5 t-13.5 34.5zM135 76v18l47 31q-2 -19 -15 -33t-32 -16zM128 212q3 0 5 2t2 5v23q0 3 -2 5t-5 2t-5 -2t-2 -5v-23q0 -3 2 -5t5 -2zM128 44q-3 0 -5 -2t-2 -5v-23q0 -3 2 -5.5t5 -2.5t5 2.5t2 5.5v23q0 3 -2 5t-5 2zM244 135h-24q-3 0 -5 -2t-2 -5t2 -5.5t5 -2.5h24q3 0 5 2.5 t2 5.5t-2 5t-5 2zM42 128q0 3 -2 5t-5 2h-23q-3 0 -5 -2t-2 -5t2 -5t5 -2h24q3 0 4.5 2t1.5 5zM198 69q-2 2 -4.5 2t-5 -2t-2.5 -5t2 -5l17 -17q2 -2 5 -2t5 2t2 5t-2 5zM58 187q2 -2 4.5 -2t4.5 2t2 5t-2 5l-17 17q-2 2 -5 2t-5 -2t-2 -5t2 -5zM193 185q3 0 5 2l17 17 q2 2 2 4.5t-2 5t-5 2.5t-5 -2l-17 -17q-2 -2 -2 -5t2.5 -5t4.5 -2zM58 69l-17 -17q-2 -2 -2 -5t2 -5t4.5 -2t4.5 2l17 17q2 2 2 5t-2 5t-4.5 2t-4.5 -2z" />
</svg>