<svg viewBox="0 0 1024 1024" xmlns="http://www.w3.org/2000/svg">
  <path transform="scale(1, -1) translate(0, -960)" fill="currentColor" d="M512 702q-53 0 -100 -20t-82 -54t-55 -81q-21 -46 -21 -99t21 -99q20 -46 55 -80.5t82 -54.5t100 -20t100 20t82 54t55 81q21 46 21 99t-21 99q-20 46 -55 80.5t-82 54.5t-100 20zM528 669q42 -3 78.5 -20t63.5 -44l-142 -101v165zM528 464l165 117q14 -19 24.5 -41 t15.5 -46l-205 -137v107v0zM286 448q0 44 17 83q16 38 44.5 68t66.5 48q38 19 82 22v-442q-44 3 -82 22q-38 18 -66.5 48t-44.5 68q-17 39 -17 83v0zM528 227v91l210 141v-5.5v-5.5q0 -44 -17 -83q-16 -38 -44.5 -68t-66.5 -48q-38 -19 -82 -22zM512 795q7 0 11.5 4.5 t4.5 11.5v93q0 7 -4.5 11.5t-11.5 4.5t-11.5 -4.5t-4.5 -11.5v-93q0 -6 4.5 -11t11.5 -5zM512 101q-7 0 -11.5 -4.5t-4.5 -11.5v-93q0 -7 4.5 -11.5t11.5 -4.5t11.5 4.5t4.5 11.5v93q0 6 -4.5 11t-11.5 5zM976 464h-94q-8 0 -12 -4.5t-4 -11.5t4 -11.5t12 -4.5h94 q7 0 11.5 4.5t4.5 11.5t-4.5 11.5t-11.5 4.5zM142 464h-94q-7 0 -11.5 -4.5t-4.5 -11.5t4.5 -11.5t11.5 -4.5h94q8 0 12 4.5t4 11.5t-4 11.5t-12 4.5zM784 202q-5 4 -11.5 4t-10.5 -4q-5 -5 -5 -11.5t5 -11.5l67 -65q2 -3 4.5 -4t6.5 -1t6.5 1t4.5 4q5 4 5 10.5t-5 11.5 l-67 66v0zM240 694q2 -2 5 -3t6 -1q4 0 6.5 1t4.5 3q5 5 5 11.5t-5 11.5l-67 65q-5 5 -11 5t-11 -5q-5 -4 -5 -10.5t5 -11.5zM829 782l-67 -65q-5 -5 -5 -11.5t5 -11.5q2 -2 5 -3t6 -1t6 1t5 3l67 66q5 5 5 11.5t-5 10.5q-5 5 -11 5t-11 -5v0zM240 202l-67 -66 q-5 -5 -5 -11.5t5 -10.5q2 -3 5.5 -4t5.5 -1q4 0 6.5 1t4.5 4l67 65q5 5 5 11.5t-5 11.5q-4 4 -10.5 4t-11.5 -4v0z" />
</svg>