<svg viewBox="0 0 1024 1024" xmlns="http://www.w3.org/2000/svg">
  <path transform="scale(1, -1) translate(0, -960)" fill="currentColor" d="M890 658q0 66 -46 112t-110 46q-19 0 -37.5 -5t-35.5 -14q-10 56 -53 93.5t-101 37.5q-56 0 -98.5 -36t-53.5 -90q-15 7 -32 10.5t-33 3.5q-65 0 -110.5 -46t-45.5 -112q0 -46 23 -83.5t62 -57.5q-2 -11 -3.5 -21t-1.5 -21q0 -66 46 -112t110 -46q13 0 26 2.5t25 6.5 l17 -280q3 -33 27 -54.5t57 -21.5q32 0 56 22t27 56l14 272q7 -1 13.5 -2t13.5 -1q65 0 110.5 46t45.5 112q0 10 -1.5 19.5t-3.5 19.5q43 19 68 58t25 86v0zM571 48q-1 -20 -16 -34t-35 -14t-35 14t-16 34l-18 293q19 12 34.5 27.5t24.5 33.5q12 -26 32 -44.5t47 -29.5 l-18 -280v0zM774 538q-3 -2 -5.5 -4t-3.5 -4q-1 -3 -1 -6.5t1 -6.5q3 -10 4.5 -20.5t1.5 -21.5q0 -53 -36.5 -89.5t-86.5 -36.5q-10 0 -19 1.5t-18 4.5q-33 11 -55 38t-26 63q-2 6 -6 10t-10 4v0v0q-6 0 -10.5 -3t-5.5 -9q-6 -29 -24 -53.5t-47 -39.5q-13 -7 -28 -11t-29 -4 q-52 0 -88 37t-36 90q0 12 2.5 23t5.5 22q3 6 0 12t-9 8q-35 15 -57 47t-22 70q0 53 36.5 90t87.5 37q19 0 36.5 -6t31.5 -17q4 -2 8.5 -2.5t7.5 1.5q4 2 6.5 5.5t3.5 8.5q2 50 38 85t85 35q52 0 87.5 -37.5t35.5 -88.5q0 -5 2.5 -8.5t7.5 -6.5q4 -2 9 -1.5t9 3.5 q16 13 36 20t40 7q52 0 88 -37.5t36 -88.5q0 -41 -23 -74t-61 -46v0z" />
</svg>