<svg viewBox="0 0 256 256" xmlns="http://www.w3.org/2000/svg">
  <path transform="scale(1, -1) translate(0, -256)" fill="currentColor" d="M244 210q-8 10 -20 13q-2 8 -7 14.5t-13.5 10t-18.5 1.5t-17 -9q-5 -5 -8 -11q-1 -4 -2 -11v-1q-2 -8 -4 -13q-3 -7 -10 -15l-21 -21q-3 -3 -2.5 -6t3.5 -5l16 -10l17 -25q2 -3 5 -3h1q3 0 5 2l29 29q8 8 17.5 7t18.5 3.5t14 13.5t4 19t-7 17zM234 182q-2 -5 -7 -8 t-11 -2q-16 1 -29 -11l-23 -24l-14 20q0 1 -2 2l-9 5l15 15q9 10 14 20q2 6 4 16q0 6 1.5 9t4.5 6q4 5 10 5.5t11 -1.5t8.5 -6.5t3.5 -11.5q0 -3 2 -5t5 -2q9 0 15 -7q4 -5 4 -10t-3 -10zM140 108l-16 6l-16 27q-2 3 -5.5 3.5t-5.5 -2.5l-31 -30q-13 -13 -29 -14 q-14 0 -23 -9.5t-9 -23t10 -23.5q7 -7 17 -9q2 -9 9 -17q9 -9 23 -9q12 0 20 6t11 14t3 16q-1 6 0 8.5t6 7.5l39 38q2 2 1 6t-4 5zM111 86l-19 -19q-6 -6 -7.5 -11.5t-0.5 -14.5q0 -5 -2 -9.5t-6.5 -8t-11.5 -3.5t-12.5 6t-5.5 13q0 3 -2 5t-4 2h-2q-7 0 -13 5.5t-6 13.5 t5.5 13t13.5 6q10 0 20 4.5t18 13.5l24 23l14 -21q1 -3 3 -3l8 -3q-7 -5 -14 -12z" />
</svg>