<svg viewBox="0 0 1024 1024" xmlns="http://www.w3.org/2000/svg">
  <path transform="scale(1, -1) translate(0, -960)" fill="currentColor" d="M966 770q-15 19 -36 31.5t-45 14.5q-4 32 -23.5 57.5t-50.5 38.5q-35 14 -70.5 7.5t-62.5 -33.5q-20 -20 -26 -41.5t-9 -42.5q-3 -27 -12.5 -55t-46.5 -65l-85 -84q-2 -1 -3 -4t0 -7q0 -3 2 -6.5t6 -4.5l66 -40l68 -104q3 -2 5.5 -4t6.5 -2h0.5h0.5q4 0 6.5 1t4.5 3 q29 29 55.5 56t61.5 63q17 17 37.5 25t41.5 5q37 -3 68.5 13.5t49.5 49.5q18 31 15.5 65.5t-25.5 62.5v0zM949 656q-11 -19 -33.5 -33.5t-54.5 -11.5q-28 3 -55.5 -7.5t-48.5 -32.5q-31 -32 -55 -56l-48 -48l-60 90q-2 1 -3 2t-2 3l-51 30l68 69q44 42 55 76.5t14 60.5 q3 20 7.5 36t19.5 30q23 23 50.5 24.5t47.5 -6.5q20 -9 37 -29.5t17 -52.5q0 -7 5 -11.5t11 -4.5q21 0 40 -9t31 -26q17 -19 19 -44.5t-11 -48.5zM557 358l-69 24l-69 112q-2 4 -4.5 5.5t-6.5 2.5q-4 0 -7 -1t-6 -3l-121 -120q-28 -28 -60.5 -43t-66.5 -17q-48 -2 -81.5 -37 t-33.5 -83q0 -24 9 -46t26 -38q11 -11 28 -21.5t43 -12.5q2 -19 11 -37.5t22 -31.5q17 -17 39 -26t48 -9q20 0 39 7t34 19q25 19 37.5 47.5t9.5 59.5q-4 33 8.5 52t85.5 89q18 16 40 37t50 47q2 3 4 7t0 8q0 2 -3 5t-6 4v0zM451 270q-74 -69 -92 -94.5t-12 -71.5 q3 -23 -6 -43.5t-27 -34.5q-11 -9 -25.5 -13.5t-29.5 -4.5q-18 0 -34.5 7t-29.5 19q-12 12 -18.5 28t-6.5 32q0 6 -3.5 10.5t-9.5 5.5h-1.5h-3.5q-23 0 -38 9t-24 17q-14 12 -20 28t-6 34q0 36 24.5 61.5t60.5 26.5q38 2 76.5 20t70.5 49l107 106l61 -99q1 -3 3.5 -4.5 t4.5 -2.5l50 -17q-21 -21 -38.5 -37.5t-32.5 -30.5v0z" />
</svg>