<svg viewBox="0 0 1024 1024" xmlns="http://www.w3.org/2000/svg">
  <path transform="scale(1, -1) translate(0, -960)" fill="currentColor" d="M512 565q-43 0 -81 -16q-38 -17 -66 -45t-45 -66q-16 -38 -16 -81t16 -81q17 -38 45 -66.5t66 -44.5t81 -16t81 16t66 44.5t45 66.5q16 38 16 81q0 42 -16 80q-17 38 -45 66.5t-66 44.5q-38 17 -81 17zM512 181q-73 0 -124.5 51.5t-51.5 124.5t51.5 124.5t124.5 51.5 t124.5 -51.5t51.5 -124.5t-51.5 -124.5t-124.5 -51.5zM518 344v61q0 7 -4 11.5t-12 4.5q-7 0 -11.5 -4.5t-4.5 -11.5v-67q0 -4 1.5 -6.5t3.5 -5.5l40 -40q3 -2 6 -3t5 -1q3 0 6 1t6 3q4 5 4 11.5t-4 11.5l-36 35v0zM928 896h-832q-26 0 -45 -19t-19 -45v-768q0 -26 19 -45 t45 -19h832q26 0 45 19t19 45v768q0 26 -19 45t-45 19zM96 864h832q13 0 22.5 -9.5t9.5 -22.5v-142h-896v142q0 13 9.5 22.5t22.5 9.5zM928 32h-832q-13 0 -22.5 9.5t-9.5 22.5v594h896v-594q0 -13 -9.5 -22.5t-22.5 -9.5z" />
</svg>