<svg viewBox="0 0 256 256" xmlns="http://www.w3.org/2000/svg">
  <path transform="scale(1, -1) translate(0, -256)" fill="currentColor" d="M125 160q-15 0 -27.5 -7.5t-20 -20t-7.5 -27.5t7.5 -27.5t20 -20t27.5 -7.5t27.5 7.5t20 20t7.5 27.5t-7.5 27.5t-20 20t-27.5 7.5zM125 64q-17 0 -29 12t-12 29t12 29t29 12t29 -12t12 -29t-12 -29t-29 -12zM129 103v14q0 3 -2 5t-5 2t-5 -2t-2 -5v-17q0 -2 2 -4l10 -10 q2 -2 4.5 -2t4.5 2t2.5 4.5t-2.5 5.5zM232 243h-208q-8 0 -13.5 -5.5t-5.5 -13.5v-192q0 -8 5.5 -13.5t13.5 -5.5h208q8 0 14 5.5t6 13.5v192q-1 8 -6.5 13.5t-13.5 5.5zM24 229h208q2 0 3.5 -1.5t1.5 -3.5v-33h-218v33q0 2 1.5 3.5t3.5 1.5zM232 27h-208q-2 0 -3.5 1.5 t-1.5 3.5v145h218v-145q0 -2 -1.5 -3.5t-3.5 -1.5z" />
</svg>