<svg viewBox="0 0 256 256" xmlns="http://www.w3.org/2000/svg">
  <path transform="scale(1, -1) translate(0, -256)" fill="currentColor" d="M244 235q-8 7 -17.5 7t-17.5 -6l-149 -138q-8 0 -16 -3q-5 -3 -9 -8q-3 -3 -7 -10l-1 -2q-4 -6 -7 -10q-4 -5 -9.5 -9.5t-5 -11.5t6.5 -10q38 -20 62 -20q13 0 21 6q14 10 14 26v3l136 151q7 7 6.5 17.5t-7.5 17.5zM86 31q-7 -6 -25 -2t-41 16q7 6 13 13q3 4 7 12 q3 5 5 7.5t5 4.5q10 4 21 -1v0q9 -6 16.5 -16t7 -19t-8.5 -15zM234 209l-131 -144q-8 16 -24 28l-2 1l142 131q3 3 7.5 3t7.5 -3t3 -8t-3 -8z" />
</svg>