<svg viewBox="0 0 1024 1024" xmlns="http://www.w3.org/2000/svg">
  <path transform="scale(1, -1) translate(0, -960)" fill="currentColor" d="M963 646l-251 252q-29 28 -70.5 28t-70.5 -28l-241 -242q-28 -28 -42 -62t-14 -72q0 -35 11.5 -66t32.5 -58l-256 -257q-14 -13 -22 -31.5t-8 -39.5q0 -20 7.5 -38.5t22.5 -33.5v0q15 -14 34 -21t38 -7q20 0 38 7t33 21l256 258q26 -23 58.5 -34.5t66.5 -11.5q37 0 72 14 t64 42l241 240q15 14 22 32.5t7 37.5t-8 38t-21 32zM181 21q-19 -19 -48 -19t-50 19q-9 11 -14 23.5t-5 25.5q0 14 5.5 26.5t15.5 21.5l256 256l97 -97l-257 -256v0zM699 288q-47 -46 -113 -46t-112 46v0l-122 120q-23 23 -34.5 52t-11.5 60t11.5 60t34.5 52l56 56l347 -346 zM941 528l-163 -162l-346 346l162 162q20 20 48 20t48 -20l251 -250q9 -10 14 -22.5t5 -25.5t-5 -25.5t-14 -22.5zM440 549q-18 0 -30.5 -12.5t-12.5 -30.5t12.5 -31t30.5 -13t30.5 13t12.5 31t-12.5 30.5t-30.5 12.5zM613 376q0 -18 -13 -30.5t-30 -12.5q-18 0 -31 12.5 t-13 30.5t13 30.5t31 12.5q17 0 30 -12.5t13 -30.5z" />
</svg>