<svg viewBox="0 0 1024 1024" xmlns="http://www.w3.org/2000/svg">
  <path transform="scale(1, -1) translate(0, -960)" fill="currentColor" d="M966 867q-12 13 -28 19.5t-34 6.5q-17 0 -33 -6t-28 -18l-597 -554q-14 1 -30 -1.5t-34 -11.5q-24 -10 -37 -27.5t-23 -37.5q-12 -21 -28 -43.5t-46 -46.5q-8 -6 -12 -15t-4 -20t6 -19t15 -13q47 -25 113.5 -51.5t126.5 -26.5q23 0 43 5t35 17q25 19 37.5 43t12.5 53 q0 4 -0.5 7.5t-1.5 8.5l549 606q24 27 24 63.5t-26 61.5v0zM352 51q-35 -26 -110 -10.5t-175 69.5l-2 4t-1 3t0.5 3t2.5 3q34 27 52 52t30 46q11 18 21 31.5t25 21.5q12 4 23 6.5t20 2.5q21 0 35 -5.5t15 -7.5q35 -25 66.5 -66.5t32.5 -83.5q1 -20 -7.5 -37t-27.5 -32v0z M946 765l-536 -592q-15 36 -43.5 68.5t-59.5 54.5v0q-1 0 -7 3.5t-15 6.5l581 539q15 15 38 15t40 -17q16 -15 16 -38t-14 -40v0z" />
</svg>