<svg viewBox="0 0 256 256" xmlns="http://www.w3.org/2000/svg">
  <path transform="scale(1, -1) translate(0, -256)" fill="currentColor" d="M243 180l-63 62q-8 9 -19.5 9t-19.5 -9l-61 -60q-14 -15 -14 -36q0 -17 10 -30l-63 -63q-8 -8 -8 -19.5t8.5 -20t20 -8.5t19.5 8l63 63q13 -11 31 -11q10 0 19 4t17 11l60 60q9 8 9 19.5t-9 20.5zM43 24q-4 -4 -10 -4t-10 4t-4 9.5t4 9.5l62 62l20 -20zM173 90 q-11 -11 -26 -11t-26 11l-31 30q-10 11 -10 26.5t10 25.5l12 12l83 -82zM233 150l-39 -38l-82 82l38 38q5 5 10.5 5t9.5 -5l63 -62q4 -4 4 -10t-4 -10zM110 153q-4 0 -7.5 -3t-3.5 -7.5t3 -7.5t8 -3t8 3t3 7.5t-3 7.5t-8 3zM132 110q0 -4 3 -7.5t7.5 -3.5t7.5 3.5t3 7.5 t-3 7.5t-7.5 3.5t-7.5 -3.5t-3 -7.5z" />
</svg>