<svg viewBox="0 0 1024 1024" xmlns="http://www.w3.org/2000/svg">
  <path transform="scale(1, -1) translate(0, -960)" fill="currentColor" d="M741 475q41 21 63.5 59t17.5 100q-8 82 -69.5 116.5t-152.5 41.5v152h-94v-150q-20 0 -38 -0.5t-36 -1.5v152h-96v-154q-25 -1 -63.5 -0.5t-125.5 0.5v-100q55 1 85 -2.5t37 -41.5v-422q-5 -29 -29.5 -30.5t-74.5 -1.5l-18 -112h159h30v-128h94v131h39h35v-131h94v131 q60 4 109 14t84.5 32t57.5 59q21 36 26 92q9 90 -29.5 134t-104.5 61v0v0zM430 685q20 0 56 1q37 1 73 -6.5t64 -27.5q27 -20 27 -62q0 -39 -27 -59q-27 -19 -63 -26.5t-73 -7.5q-37 1 -57 1v187v0zM430 195v205q24 0 67 1t85.5 -7t74.5 -30q31 -22 31 -68q1 -43 -31 -64 q-31 -21 -73.5 -29t-86.5 -8h-67v0z" />
</svg>