<svg viewBox="0 0 1024 1024" xmlns="http://www.w3.org/2000/svg">
  <path transform="scale(1, -1) translate(0, -960)" fill="currentColor" d="M915 77q-9 0 -19 2.5t-19 6.5l-191 109q-4 3 -10 5t-12 2h-555q-31 0 -54 22t-23 54v464q0 32 23 54.5t54 22.5h806q31 0 54 -22t23 -55v-590q0 -20 -10 -38t-28 -28q-9 -4 -19 -6.5t-20 -2.5v0zM109 787q-18 0 -31.5 -12.5t-13.5 -32.5v-465q0 -18 13.5 -31.5 t31.5 -13.5h555q10 0 20 -2.5t18 -7.5l191 -108q11 -6 22.5 -6t22.5 6q10 6 16 16t6 22v590q0 18 -13.5 31.5t-31.5 13.5h-806v0z" />
</svg>