<svg viewBox="0 0 1024 1024" xmlns="http://www.w3.org/2000/svg">
  <path transform="scale(1, -1) translate(0, -960)" fill="currentColor" d="M968 386h-195v0v0v161h137q22 0 37.5 15.5t15.5 37.5v155q0 7 -4.5 11.5t-11.5 4.5t-11.5 -4.5t-4.5 -11.5v-155q0 -8 -6 -14.5t-15 -6.5h-137v7q0 52 -30.5 93t-78.5 57v40q0 31 -11.5 59t-33.5 50q-21 20 -50 31.5t-60 11.5q-65 0 -110 -45t-45 -109v-40 q-47 -15 -78 -56t-31 -94v-6h-136q-9 0 -15 6t-6 14v156q0 7 -4.5 11.5t-11.5 4.5t-11.5 -4.5t-4.5 -11.5v-156q0 -21 15.5 -36.5t37.5 -15.5h137v-162h-190q-7 0 -11.5 -4.5t-4.5 -11.5t4.5 -11.5t11.5 -4.5h189v-139v-12t1 -11h-137q-22 0 -37.5 -15.5t-15.5 -36.5v-154 q0 -7 4.5 -11.5t11.5 -4.5t11.5 4.5t4.5 11.5v155q0 9 6 15t15 6h139h2.5t2.5 2q18 -60 68.5 -100t116.5 -40h140q66 0 117 40t68 100q1 0 2.5 -1t2.5 -1h139q9 0 15 -6t6 -15v-155q0 -7 4.5 -11.5t11.5 -4.5t11.5 4.5t4.5 11.5v155q0 22 -15.5 37.5t-37.5 15.5h-139 q1 6 1.5 11t0.5 11v140v0v0h195q7 0 11.5 4t4.5 12q0 7 -3.5 11.5t-9.5 4.5v0zM386 774q0 51 36 86.5t87 35.5q25 0 47.5 -9t40.5 -26t27.5 -39t9.5 -48v-33q-5 0 -9.5 0.5t-8.5 0.5h-211h-9.5t-8.5 -1v33h-1zM741 214q0 -67 -47.5 -114t-114.5 -47h-139q-67 0 -114.5 47 t-47.5 114v370q0 53 37 89.5t90 36.5h209q53 0 90 -36.5t37 -89.5v-370z" />
</svg>