<svg viewBox="0 0 256 256" xmlns="http://www.w3.org/2000/svg">
  <path transform="scale(1, -1) translate(0, -256)" fill="currentColor" d="M196 101h46q3 0 5 2t2 5t-2 5.5t-5 2.5h-46v34h31q7 0 11.5 4.5t4.5 11.5v39q0 3 -2 5t-5 2t-5 -2t-2 -5v-39q0 -2 -2 -2h-31q-1 13 -8 23t-19 15v8q0 17 -12 29t-29.5 12t-30 -12t-12.5 -29v-8q-11 -5 -18.5 -15t-8.5 -23h-31q-2 0 -2 2v39q0 3 -2 5t-5 2t-5 -2t-2 -5 v-39q0 -7 4.5 -11.5t11.5 -4.5h31v-34h-44q-3 0 -5 -2.5t-2 -5.5t2 -5t5 -2h44v-34h-31q-6 0 -11 -5t-5 -11v-39q0 -3 2 -5t5 -2t5 2t2 5v39q0 2 2 2h34q5 -15 18.5 -25t29.5 -10h35q17 0 30 9.5t18 25.5h34q2 0 2 -2v-39q0 -3 2.5 -5t5.5 -2t5 2t2 5v39q0 6 -5 11t-11 5 h-31v34zM100 210q0 11 8 19t19.5 8t19.5 -8t8 -19v-6h-55v6zM182 70q0 -16 -11 -27t-27 -11h-34q-16 0 -27 11t-11 27v92q0 12 8.5 20t19.5 8h53q12 0 20 -8t8 -20v-92h1z" />
</svg>