<svg viewBox="0 0 256 256" xmlns="http://www.w3.org/2000/svg">
  <path transform="scale(1, -1) translate(0, -256)" fill="currentColor" d="M235 98h-40q0 18 -5 32l31 27q2 2 2 5t-1.5 5t-4.5 2.5t-5 -1.5l-28 -24q-9 20 -26 32q8 2 14 8q7 8 6 20q-2 20 -16.5 33.5t-34 13.5t-34 -13.5t-16.5 -33.5q-1 -11 6 -20q6 -6 13 -8q-15 -11 -25 -32l-27 24q-2 2 -5 2t-4.5 -2.5t-1.5 -5.5t2 -4l30 -27q-5 -16 -5 -32 h-39q-3 0 -5 -2t-2 -5t2 -5.5t5 -2.5h39q1 -14 6 -27l-31 -27q-2 -2 -2 -5t1.5 -5t4.5 -2t5 1l28 25q10 -18 24.5 -28.5t31.5 -10.5t31.5 10.5t24.5 28.5l28 -25q2 -2 5 -2t5 2.5t2 5.5t-3 5l-32 28q5 13 6 26h40q3 0 5 2t2 5t-2 5t-5 2zM91 202q1 15 12 25t25 10t24.5 -10 t11.5 -25q1 -5 -2.5 -8.5t-8.5 -3.5h-51q-5 0 -8.5 3t-2.5 9zM128 19q-15 0 -27.5 10t-19.5 28t-7 38.5t7 38t19.5 28t27.5 10.5t28 -11.5t20 -30.5v0q6 -18 6 -35l-1 -6q-1 -19 -8.5 -35t-19.5 -25.5t-25 -9.5z" />
</svg>