<svg viewBox="0 0 256 256" xmlns="http://www.w3.org/2000/svg">
  <path transform="scale(1, -1) translate(0, -256)" fill="currentColor" d="M232 191h-50v34h8q3 0 5.5 2t2.5 5t-2.5 5.5t-5.5 2.5h-124q-3 0 -5.5 -2.5t-2.5 -5.5t2.5 -5t5.5 -2h8v-34h-50q-8 0 -13.5 -5.5t-5.5 -13.5v-136q0 -8 5.5 -13.5t13.5 -5.5h208q8 0 13.5 5.5t5.5 13.5v136q0 8 -5.5 13.5t-13.5 5.5zM168 225v-141h-80v141h80zM19 36 v136q0 2 1.5 3.5t3.5 1.5h50v-146h-50q-2 0 -3.5 1.5t-1.5 3.5zM88 70h80v-39h-80v39zM237 36q0 -2 -1.5 -3.5t-3.5 -1.5h-50v146h50q2 0 3.5 -1.5t1.5 -3.5v-136z" />
</svg>