<svg viewBox="0 0 1024 1024" xmlns="http://www.w3.org/2000/svg">
  <path transform="scale(1, -1) translate(0, -960)" fill="currentColor" d="M512 691h-254q-8 0 -12 -4.5t-4 -11.5t4 -11.5t12 -4.5h254q7 0 11.5 4.5t4.5 11.5t-4.5 11.5t-11.5 4.5zM512 475h-254q-8 0 -12 -4.5t-4 -11.5t4 -11.5t12 -4.5h254q7 0 11.5 4.5t4.5 11.5t-4.5 11.5t-11.5 4.5v0zM886 819h-174v27q0 34 -24 58t-58 24h-492 q-34 0 -57 -24t-23 -58v-798q0 -34 24 -58t57 -24h493q34 0 58 24t24 58v34h172q34 0 58 24t24 57v576q-1 34 -24.5 57t-57.5 23v0zM680 50q0 -21 -14.5 -35.5t-35.5 -14.5h-492q-21 0 -35.5 14.5t-14.5 35.5v796q1 21 15.5 35.5t34.5 14.5h492q21 0 35.5 -14.5t14.5 -35.5 v-796zM934 163q0 -20 -14.5 -34.5t-34.5 -14.5h-173v212h98q7 0 11.5 4.5t4.5 11.5q0 8 -4.5 12t-11.5 4h-98v186h98q7 0 11.5 4.5t4.5 11.5t-4.5 11.5t-11.5 4.5h-98v211h173q20 0 34.5 -14.5t14.5 -34.5v-575v0zM512 258h-254q-8 0 -12 -4.5t-4 -11.5q0 -8 4 -12t12 -4 h254q7 0 11.5 4t4.5 12q0 7 -4.5 11.5t-11.5 4.5z" />
</svg>