<svg viewBox="0 0 1024 1024" xmlns="http://www.w3.org/2000/svg">
  <path transform="scale(1, -1) translate(0, -960)" fill="currentColor" d="M915 928h-245q-30 0 -51 -21t-21 -51v-222h-472q-37 0 -62.5 -26t-25.5 -62v-490q0 -37 26 -62.5t62 -25.5h789q30 0 51 21t21 51v816q0 30 -21 51t-51 21zM69 56v490q0 22 16.5 39t39.5 17h473v-602h-104v125q0 18 -7.5 34t-20.5 27l-61 49q-22 18 -50 18t-49 -18 l-61 -49q-13 -11 -21 -27t-8 -34v-125h-90q-24 0 -40.5 16.5t-16.5 39.5v0zM250 0v125q0 11 4.5 20t12.5 15l61 50q13 10 29.5 10t28.5 -10l60 -50q9 -7 13.5 -16.5t4.5 -18.5v-125h-214v0zM955 40q0 -17 -11.5 -28.5t-28.5 -11.5h-285v856q0 17 12 28.5t28 11.5h244 q16 0 28 -11.5t12 -28.5v-816h1z" />
</svg>