<svg viewBox="0 0 256 256" xmlns="http://www.w3.org/2000/svg">
  <path transform="scale(1, -1) translate(0, -256)" fill="currentColor" d="M244 24h-15v21h9q3 0 5.5 2t2.5 5v42q0 9 -6 14.5t-14 5.5h-7q-8 0 -14 -6t-6 -14v-42q0 -3 2 -5t5 -2h10v-21h-31v203q0 8 -5.5 13.5t-13.5 5.5h-142q-8 0 -13.5 -5.5t-5.5 -13.5v-198q0 -8 5.5 -13.5t13.5 -5.5h220q3 0 5 2t2 5t-2 5t-5 2zM213 94q0 3 1.5 4.5t4.5 1.5 h7q2 0 4 -1.5t2 -4.5v-34h-18v34h-1zM19 29v198q0 2 1.5 3.5t3.5 1.5h142q2 0 3.5 -1.5t1.5 -3.5v-203h-41v42q0 14 -10 24.5t-24.5 10.5t-25 -10.5t-10.5 -24.5v-42h-36q-2 0 -3.5 1.5t-1.5 3.5zM116 24h-42v42q0 9 6 15t14.5 6t15 -6.5t6.5 -14.5v-42zM48 172h28 q4 0 7.5 3t3.5 8v23q0 4 -3.5 7.5t-7.5 3.5h-28q-5 0 -8.5 -3.5t-3.5 -7.5v-23q0 -5 3.5 -8t8.5 -3zM50 202h22v-17h-22v17zM115 172h28q4 0 7.5 3t3.5 8v23q0 4 -3 7.5t-8 3.5h-28q-5 0 -8 -3.5t-3 -7.5v-23q0 -5 3 -8t8 -3zM118 202h22v-17h-22v17zM75 114q5 0 8 3.5 t3 8.5v22q0 5 -3 8t-8 3h-28q-4 0 -7.5 -3t-3.5 -8v-23q0 -4 3 -7.5t8 -3.5h28zM50 145h22v-17h-22v17zM115 114h28q4 0 7.5 3.5t3.5 8.5v22q0 5 -3 8t-8 3h-28q-5 0 -8 -3t-3 -8v-23q0 -4 3 -7.5t8 -3.5zM118 145h22v-17h-22v17z" />
</svg>