<svg viewBox="0 0 1024 1024" xmlns="http://www.w3.org/2000/svg">
  <path transform="scale(1, -1) translate(0, -960)" fill="currentColor" d="M936 -32h-848q-23 0 -39.5 17t-16.5 41v590q0 10 3.5 20t9.5 17l217 256q9 9 19.5 14t24.5 5v0v0q12 0 23 -5t20 -14l217 -256q6 -7 9.5 -16.5t3.5 -20.5v-112l133 163q8 10 20 15.5t25 5.5t24.5 -6t18.5 -16l178 -232q6 -8 8.5 -17t2.5 -17v-374q2 -24 -14 -41t-39 -17 v0zM581 0h355q10 0 17 7t7 17v376q0 4 -1 8t-4 6l-177 232q-4 5 -9 7.5t-11 2.5t-10.5 -2.5t-8.5 -7.5l-158 -193v-453zM307 894q-5 0 -10 -2t-9 -6l-218 -256q-2 -3 -4 -7t-2 -9v-590q0 -10 7 -17t17 -7h461v459v0v0v157q0 5 -1.5 8.5t-5.5 7.5l-217 256q-4 4 -8.5 5 t-9.5 1v0v0v0z" />
</svg>