<svg viewBox="0 0 256 256" xmlns="http://www.w3.org/2000/svg">
  <path transform="scale(1, -1) translate(0, -256)" fill="currentColor" d="M232 84h-32v148q0 8 -6 13.5t-14 5.5h-105q-8 0 -13.5 -5.5t-5.5 -13.5v-148h-32q-8 0 -13.5 -6t-5.5 -14v-40q0 -8 5.5 -13.5t13.5 -5.5h208q8 0 13.5 5.5t5.5 13.5v41q0 8 -5.5 13.5t-13.5 5.5zM19 24v41q0 2 1.5 3.5t3.5 1.5h33v-51h-33q-2 0 -3.5 1.5t-1.5 3.5z M70 77v155q0 2 1.5 3.5t4.5 1.5h105q2 0 3.5 -1.5t1.5 -3.5v-213h-18v13q0 7 -6 13t-14 6h-40q-8 0 -13.5 -5.5t-5.5 -13.5v-13h-19v58zM103 19v12q0 2 1.5 3.5t3.5 1.5h40q2 0 3.5 -1.5t1.5 -3.5v-12h-50zM237 24q0 -2 -1.5 -3.5t-3.5 -1.5h-32v51h32q2 0 3.5 -1.5 t1.5 -4.5v-40zM111 167h-15q-3 0 -5 -2t-2 -5t2 -5.5t5 -2.5h15q3 0 5 2.5t2 5.5t-2 5t-5 2zM111 138h-15q-3 0 -5 -2t-2 -5t2 -5t5 -2h15q3 0 5 2t2 5t-2 5t-5 2zM160 167h-15q-3 0 -5 -2t-2 -5t2 -5.5t5 -2.5h15q3 0 5 2.5t2 5.5t-2 5t-5 2zM160 138h-15q-3 0 -5 -2t-2 -5 t2 -5t5 -2h15q3 0 5 2t2 5t-2 5t-5 2zM95 193h66q3 0 5 2t2 5t-2 5t-5 2h-66q-3 0 -5 -2t-2 -5t2 -5t5 -2z" />
</svg>