<svg viewBox="0 0 256 256" xmlns="http://www.w3.org/2000/svg">
  <path transform="scale(1, -1) translate(0, -256)" fill="currentColor" d="M229 251h-61q-9 0 -15.5 -6.5t-6.5 -14.5v-53h-114q-11 0 -18.5 -7t-7.5 -18v-122q0 -11 7.5 -18.5t18.5 -7.5h197q9 0 15 6.5t6 15.5v204q0 9 -6.5 15t-14.5 6zM20 30v122q0 5 3.5 8.5t8.5 3.5h115v-145h-20v28q0 11 -9 18l-15 12q-6 5 -14 5t-14 -5l-15 -12 q-9 -7 -9 -18v-28h-20q-4 0 -7.5 3t-3.5 8zM66 19v28q0 4 3 7l15 12q2 2 5 2t6 -2l15 -12q3 -3 3 -7v-28h-47zM236 26q0 -3 -2.5 -5t-5.5 -2h-68v211q0 3 2.5 5t5.5 2h60q3 0 5.5 -2t2.5 -5v-204z" />
</svg>