<svg viewBox="0 0 1024 1024" xmlns="http://www.w3.org/2000/svg">
  <path transform="scale(1, -1) translate(0, -960)" fill="currentColor" d="M926 586h-168v91l29 158q4 17 -0.5 34t-16.5 30t-27.5 21t-33.5 8h-279q-18 0 -33 -7t-27 -22q-11 -13 -15.5 -30t-2.5 -34l29 -158v-237h-283q-27 0 -45.5 -19t-18.5 -45v-344q0 -26 18.5 -45t45.5 -19h827q26 0 45 19t19 45v490q1 26 -17.5 45t-45.5 19zM395 880 q7 8 16.5 12t18.5 4h279q11 0 20 -4.5t15 -11.5q7 -8 9.5 -18t0.5 -20l-26 -148h-317l-27 148q-1 9 1.5 19.5t9.5 18.5zM66 32v344q0 13 9 22.5t23 9.5h283v-408h-283q-14 0 -23 9.5t-9 22.5v0zM413 424v238h312v-662h-312v424v0zM958 32q0 -13 -9 -22.5t-23 -9.5h-168v554 h168q14 0 23 -9.5t9 -22.5v-490z" />
</svg>