<svg viewBox="0 0 1024 1024" xmlns="http://www.w3.org/2000/svg">
  <path transform="scale(1, -1) translate(0, -960)" fill="currentColor" d="M928 259h-141v605q0 26 -18.5 45t-45.5 19h-422q-27 0 -45.5 -19t-18.5 -45v-605h-141q-26 0 -45 -18.5t-19 -45.5v-163q0 -26 19 -45t45 -19h832q26 0 45 19t19 45v163q0 27 -19 45.5t-45 18.5zM64 32v163q0 13 9.5 22.5t22.5 9.5h141v-227h-141q-13 0 -22.5 9.5 t-9.5 22.5zM269 243v621q0 13 9.5 22.5t22.5 9.5h422q13 0 22.5 -9.5t9.5 -22.5v-864h-99v62q0 27 -19 45.5t-45 18.5h-160q-26 0 -45 -18.5t-19 -45.5v-62h-99v243zM400 0v62q0 14 9.5 23t22.5 9h160q13 0 22.5 -9t9.5 -23v-62h-224zM960 32q0 -13 -9.5 -22.5t-22.5 -9.5 h-141v227h141q13 0 22.5 -9.5t9.5 -22.5v-163zM445 592h-61q-7 0 -11.5 -4.5t-4.5 -11.5t4.5 -11.5t11.5 -4.5h61q7 0 11.5 4.5t4.5 11.5t-5 11.5t-11 4.5zM445 475h-61q-7 0 -11.5 -4.5t-4.5 -11.5t4.5 -11.5t11.5 -4.5h61q7 0 11.5 4.5t4.5 11.5t-5 11.5t-11 4.5v0z M640 592h-61q-7 0 -11.5 -4.5t-4.5 -11.5t4.5 -11.5t11.5 -4.5h61q7 0 11.5 4.5t4.5 11.5t-4.5 11.5t-11.5 4.5zM640 475h-61q-7 0 -11.5 -4.5t-4.5 -11.5t4.5 -11.5t11.5 -4.5h61q7 0 11.5 4.5t4.5 11.5t-4.5 11.5t-11.5 4.5v0zM379 720h264q7 0 11.5 4.5t4.5 11.5 t-4.5 11.5t-11.5 4.5h-264q-7 0 -11.5 -4.5t-4.5 -11.5t5 -11.5t11 -4.5v0z" />
</svg>