<svg viewBox="0 0 1024 1024" xmlns="http://www.w3.org/2000/svg">
  <path transform="scale(1, -1) translate(0, -960)" fill="currentColor" d="M968 835l-6 5q-49 44 -108 67q-59 22 -120.5 22t-120.5 -22q-59 -23 -107 -67l-7 -5q-1 -2 -2 -5.5t-1 -7.5v-291h-374q-30 0 -51 -21t-21 -51v-419q0 -30 21 -51t51 -21h766q36 0 61 25t25 61v768q0 4 -2 7.5t-4 5.5v0zM82 40v419q0 17 11.5 28.5t28.5 11.5h374v-499 h-374q-16 0 -28 11.5t-12 28.5v0zM677 0v122q0 26 18.5 44t43.5 18q27 0 45 -18.5t18 -43.5v-122h-125zM942 54q0 -22 -15.5 -38t-38.5 -16h-54v122q0 39 -28 66.5t-67 27.5t-66.5 -28t-27.5 -66v-122h-117v816q44 40 98 60q53 20 108.5 20t108.5 -20t98 -60v0v-762h1z" />
</svg>