<svg viewBox="0 0 1024 1024" xmlns="http://www.w3.org/2000/svg">
  <path transform="scale(1, -1) translate(0, -960)" fill="currentColor" d="M928 688h-213v160h45q7 0 11.5 4.5t4.5 11.5t-4.5 11.5t-11.5 4.5h-498q-7 0 -11.5 -4.5t-4.5 -11.5t4.5 -11.5t11.5 -4.5h45v-160h-211q-26 0 -45 -19t-19 -45v-544q0 -26 19 -45t45 -19h832q26 0 45 19t19 45v544q0 26 -19 45t-45 19zM683 848v-589h-342v589h342z M64 80v544q0 13 9.5 22.5t22.5 9.5h213v-608h-213q-13 0 -22.5 9.5t-9.5 22.5zM341 227h342v-179h-342v179v0zM960 80q0 -13 -9.5 -22.5t-22.5 -9.5h-213v608h213q13 0 22.5 -9.5t9.5 -22.5v-544z" />
</svg>