<svg viewBox="0 0 256 256" xmlns="http://www.w3.org/2000/svg">
  <path transform="scale(1, -1) translate(0, -256)" fill="currentColor" d="M232 165h-40v20l8 39q1 11 -5 19q-3 3 -8 5.5t-10 2.5h-69q-11 0 -18 -8t-5 -19l7 -39v-56h-68q-7 0 -13 -5.5t-6 -13.5v-86q0 -8 5.5 -13.5t13.5 -5.5h207q8 0 13.5 5.5t5.5 13.5v122q0 8 -5.5 13.5t-12.5 5.5zM101 234q3 3 7 3h70q4 -1 6.5 -3.5t1.5 -6.5l-6 -35h-75 l-6 35q-1 4 2 7zM20 24v86q0 2 1.5 3.5t3.5 1.5h68v-96h-68q-3 0 -4 1.5t-1 3.5zM106 122v56h72v-159h-72v103zM236 24q0 -2 -1.5 -3.5t-3.5 -1.5h-39v132h39q2 0 3.5 -1.5t1.5 -3.5v-122z" />
</svg>