<svg viewBox="0 0 256 256" xmlns="http://www.w3.org/2000/svg">
  <path transform="scale(1, -1) translate(0, -256)" fill="currentColor" d="M170 9q-3 0 -5 2t-2 5v40q0 14 -10 24.5t-24.5 10.5t-25 -10.5t-10.5 -24.5v-40q0 -3 -2 -5t-5 -2h-58q-10 0 -16.5 7t-6.5 16v150q0 9 6.5 16t16.5 7h42l42 36q6 6 14.5 6t15.5 -5l44 -37h42q9 0 16 -7t7 -16v-150q0 -9 -7 -16t-16 -7h-58zM128 105q20 0 34.5 -14.5 t14.5 -34.5v-33h51q4 0 6.5 2.5t2.5 6.5v150q0 4 -2.5 6.5t-6.5 2.5h-45q-3 0 -4 1l-47 39q-2 2 -5 2t-6 -2l-44 -39q-1 -1 -5 -1h-44q-4 0 -6.5 -2.5t-2.5 -6.5v-150q0 -4 2.5 -6.5t6.5 -2.5h51v33q0 20 14.5 34.5t34.5 14.5z" />
</svg>