<svg viewBox="0 0 1024 1024" xmlns="http://www.w3.org/2000/svg">
  <path transform="scale(1, -1) translate(0, -960)" fill="currentColor" d="M680 -16q-4 0 -6.5 1t-4.5 4q-3 2 -4 4.5t-1 6.5v158q0 63 -45 107.5t-107 44.5t-107 -44.5t-45 -107.5v-158q0 -7 -4.5 -11.5t-11.5 -4.5h-234q-32 0 -55 24t-23 56v600q0 32 23 55t55 23h175l169 149q22 19 51.5 20t51.5 -18l179 -151h174q33 0 56 -23t23 -55v-600 q0 -32 -23 -55t-56 -23zM512 342q76 0 130 -54t54 -130v-142h218q19 0 32.5 13.5t13.5 32.5v602q0 19 -13.5 32.5t-32.5 13.5h-181q-3 0 -6 1t-4 3l-185 155q-14 11 -31 11t-30 -11l-175 -154q-2 -2 -4.5 -2.5t-6.5 -0.5h-181q-19 0 -32.5 -13.5t-13.5 -32.5v-602 q0 -19 13.5 -33.5t32.5 -14.5h216v142q2 76 56 130t130 54v0z" />
</svg>