<svg viewBox="0 0 256 256" xmlns="http://www.w3.org/2000/svg">
  <path transform="scale(1, -1) translate(0, -256)" fill="currentColor" d="M128 192h-64q-3 0 -5 -2t-2 -5t2 -5t5 -2h64q3 0 5 2t2 5t-2 5t-5 2zM128 138h-64q-3 0 -5 -2.5t-2 -5.5t2 -4.5t5 -1.5h64q3 0 5 2t2 4.5t-2 5t-5 2.5zM222 224h-41v4q0 9 -6.5 16t-16.5 7h-124q-9 0 -16 -7t-7 -16v-200q0 -10 7 -16.5t16 -6.5h124q9 0 16 6.5t7 16.5v5 h40q10 0 16.5 7t6.5 16v144q1 10 -6 17t-16 7zM167 28q0 -3 -2.5 -6t-6.5 -3h-124q-4 0 -6.5 2.5t-2.5 6.5v200q0 4 2.5 6.5t6.5 2.5h124q4 0 6.5 -2.5t2.5 -6.5v-200zM231 57q0 -4 -2.5 -6.5t-6.5 -2.5h-41v47h22q3 0 5 2t2 5t-2 5t-5 2h-22v40h22q3 0 5 2t2 5t-2 5.5 t-5 2.5h-22v46h41q4 0 6.5 -2.5t2.5 -6.5v-144zM128 84h-64q-3 0 -5 -2.5t-2 -5.5t2 -5t5 -2h64q3 0 5 2t2 5t-2 5.5t-5 2.5z" />
</svg>