<svg viewBox="0 0 256 256" xmlns="http://www.w3.org/2000/svg">
  <path transform="scale(1, -1) translate(0, -256)" fill="currentColor" d="M87 79q12 0 20.5 8.5t8.5 20.5t-8.5 20t-20.5 8t-20.5 -8t-8.5 -20t8.5 -20.5t20.5 -8.5zM87 123q6 0 10.5 -4.5t4.5 -10.5t-4.5 -10.5t-10.5 -4.5t-10.5 4.5t-4.5 10.5t4.5 10.5t10.5 4.5zM116 59h-55q-9 0 -16 -7t-7 -16v-24q0 -3 2 -5t5 -2t5 2t2 5v24q0 4 2.5 6.5 t6.5 2.5h55q3 0 6 -2.5t3 -6.5v-24q0 -3 2 -5t5 -2t5 2t2 5v24q0 9 -7 16t-16 7zM202 233q-15 17 -38.5 17.5t-40.5 -16t-17 -40.5q0 -14 7 -26.5t19 -20.5q4 -3 4 -8v-9q0 -10 7 -17t16 -7h5q10 0 16.5 7t6.5 17v9q0 5 4 8q12 7 19 19.5t8 26.5q0 11 -4 21.5t-12 18.5z M174 130q0 -4 -3 -6.5t-7 -2.5h-4q-4 0 -7 2.5t-3 6.5v10h24v-10zM184 159q-2 -1 -6 -5h-33q-3 4 -6 5q-9 6 -14.5 15.5t-5.5 20.5q0 18 13 30.5t30 12.5h1q17 -2 29 -14.5t12 -29.5q0 -11 -5.5 -20t-14.5 -15z" />
</svg>