<svg viewBox="0 0 1024 1024" xmlns="http://www.w3.org/2000/svg">
  <path transform="scale(1, -1) translate(0, -960)" fill="currentColor" d="M741 830v0q-52 52 -116 77t-134 21q-63 -4 -119 -33q-56 -30 -97.5 -77t-65.5 -108q-24 -62 -25 -131q-1 -46 9 -90q10 -43 29 -81.5t47 -71.5t64 -58v-190q0 -49 32.5 -84.5t79.5 -35.5h134q47 0 79.5 35t32.5 85v189q36 24 64 57q27 32 46.5 70.5t29.5 81.5 q11 43 11 88q0 72 -26 138.5t-75 117.5zM579 0h-134q-34 0 -57 26t-23 62v176h294v-176q0 -36 -23.5 -62t-56.5 -26zM666 299l-7 -5h-133v162l103 78q5 4 6 11t-3 12t-11 6t-11 -3l-84 -64v120q0 7 -4 11.5t-12 4.5q-7 0 -11.5 -4.5t-4.5 -11.5v-123l-94 67q-6 4 -12.5 3 t-9.5 -6q-4 -6 -3 -12.5t6 -10.5l113 -80v-158h-132l-7 5q-33 22 -60 52q-26 30 -44.5 66t-27.5 76q-9 41 -9 84q2 63 24 119t59.5 98.5t88.5 69.5q50 26 108 30h9h9q58 0 111 -22.5t95 -65.5q46 -47 69.5 -107.5t22.5 -126.5q-1 -42 -11 -82t-28.5 -75.5t-44.5 -65.5 q-27 -30 -60 -52v0z" />
</svg>