<svg viewBox="0 0 256 256" xmlns="http://www.w3.org/2000/svg">
  <path transform="scale(1, -1) translate(0, -256)" fill="currentColor" d="M222 158q0 25 -13 46.5t-34.5 34t-46.5 12.5t-46.5 -12.5t-34.5 -34t-13 -48t14.5 -49t38.5 -33.5v-49q0 -8 6 -13.5t13 -5.5h45q8 0 13.5 5.5t5.5 13.5v49q23 12 37.5 34.5t14.5 49.5zM156 67v-43q0 -2 -1.5 -3.5t-3.5 -1.5h-44q-2 0 -3.5 1.5t-1.5 3.5v43h2 q12 -3 24 -3t24 3h4zM135 78v51l24 19q3 1 3 4t-1.5 5.5t-4.5 3t-6 -1.5l-16 -12v24q0 3 -2 5t-5 2t-5 -2t-2 -5v-25l-19 13q-2 2 -5 1.5t-4.5 -3t-1 -5t2.5 -4.5l27 -19v-50q-19 2 -35.5 12.5t-26.5 28t-10 38.5t11 39.5t29 29t40 10.5t40 -10.5t29 -29t11 -39.5t-10 -38.5 t-26.5 -28.5t-36.5 -13z" />
</svg>