<svg viewBox="0 0 1024 1024" xmlns="http://www.w3.org/2000/svg">
  <path transform="scale(1, -1) translate(0, -960)" fill="currentColor" d="M347 262q43 0 73.5 30.5t30.5 73.5q0 44 -30.5 74t-73.5 30t-73.5 -30t-30.5 -74q0 -43 30.5 -73.5t73.5 -30.5zM347 438q30 0 51 -21t21 -51t-21 -51t-51 -21t-51 21t-21 51t21 51t51 21zM462 158h-217q-34 0 -58 -24t-24 -57v-93q0 -7 4.5 -11.5t11.5 -4.5t11.5 4.5 t4.5 11.5v94q0 21 14.5 35.5t35.5 14.5h217q21 0 35.5 -14.5t14.5 -35.5v-94q0 -7 4.5 -11.5t11.5 -4.5t11.5 4.5t4.5 11.5v94q0 34 -24 57t-58 23zM800 861q-30 31 -68.5 48.5t-80.5 18.5q-43 1 -82.5 -14.5t-70.5 -46.5q-32 -31 -48 -70t-16 -82q0 -55 26 -103t74 -78 q10 -6 16.5 -17t6.5 -24v-37q0 -34 24 -58t57 -24h20q33 0 57 24t24 58v38q0 12 6 23t17 17q45 29 71.5 75t27.5 100q0 42 -15.5 81.5t-45.5 70.5v0zM706 456q0 -20 -15 -35t-35 -15h-19q-21 0 -35.5 15t-14.5 35v37v7t-1 9h121q-1 -4 -1 -7.5v-7.5v-38v0zM742 562 q-7 -5 -12 -10.5t-10 -12.5h-147l-10 12t-13 11q-39 25 -61.5 65.5t-22.5 87.5q0 37 14 70t40 60q26 25 59 38t67 13h3h2q36 -1 68.5 -15.5t58.5 -42.5q25 -26 37.5 -59.5t11.5 -69.5q-1 -45 -23.5 -84t-61.5 -63z" />
</svg>