<svg viewBox="0 0 1024 1024" xmlns="http://www.w3.org/2000/svg">
  <path transform="scale(1, -1) translate(0, -960)" fill="currentColor" d="M981 299l-179 183q-9 8 -19.5 10t-20.5 -2q-11 -5 -17 -14t-6 -20v-189h-142v290q0 7 -4.5 11.5t-11.5 4.5h-74v117q0 24 -16.5 40.5t-40.5 16.5h-183q-24 0 -40.5 -16.5t-16.5 -40.5v-117h-120q-24 0 -41 -17t-17 -41v-264q0 -7 4.5 -11.5t11.5 -4.5h30 q6 -37 35.5 -61.5t68.5 -24.5q40 0 69 25t35 61h60q6 -37 35 -61.5t69 -24.5q39 0 68.5 25t35.5 61h404q11 0 20 6t14 17q2 10 -0.5 21.5t-10.5 19.5v0zM181 181q-30 0 -52 20.5t-22 49.5t21.5 50t52.5 21t52 -21t21 -50t-21.5 -49.5t-51.5 -20.5zM448 181q-30 0 -52 20.5 t-22 49.5t21.5 50t52.5 21t52.5 -21t21.5 -50t-22 -49.5t-52 -20.5zM448 355q-40 0 -69 -25t-35 -61h-59q-6 37 -35.5 61.5t-68.5 24.5q-40 0 -69 -25t-35 -61h-13v246q0 11 7.5 18.5t18.5 7.5h136q7 0 11.5 4.5t4.5 11.5v133q0 10 7 17.5t18 7.5h184q11 0 18.5 -7.5 t7.5 -17.5v-133q0 -7 4.5 -11.5t11.5 -4.5h73v-274h-14q-6 37 -36 62.5t-68 25.5v0zM960 270q0 -1 -1 -2t-4 -1h-184v189q0 2 1 3l2 2q2 0 3 -0.5t2 -1.5l179 -184q2 -1 2 -2v-3v0z" />
</svg>