<svg viewBox="0 0 1024 1024" xmlns="http://www.w3.org/2000/svg">
  <path transform="scale(1, -1) translate(0, -960)" fill="currentColor" d="M910 928h-139q-33 0 -56.5 -23t-23.5 -57v-10l-422 -43h-152q-34 0 -58 -23t-24 -55v-274q0 -25 15.5 -45t39.5 -28l59 -332q7 -31 34 -51.5t60 -20.5q23 0 43.5 9.5t33.5 27.5q12 15 16.5 33t1.5 36l-50 290l405 -79v-14q0 -34 23 -57t57 -23h139q34 0 57 23t23 57v579 q-1 34 -25 57t-57 23v0zM66 445v272q0 19 14.5 32.5t34.5 13.5h138v-365h-136q-22 0 -36.5 14t-14.5 33v0zM294 24q-9 -11 -23 -17.5t-29 -6.5q-23 0 -40.5 13.5t-22.5 32.5l-57 320h131l51 -300q4 -11 1 -21.5t-11 -20.5v0zM285 395v370l405 41v-489zM958 270 q0 -20 -13.5 -34t-34.5 -14h-139q-20 0 -34 14t-14 34v578q0 20 14 34t34 14h139q21 0 34.5 -14t13.5 -34v-578v0z" />
</svg>