<svg viewBox="0 0 256 256" xmlns="http://www.w3.org/2000/svg">
  <path transform="scale(1, -1) translate(0, -256)" fill="currentColor" d="M228 251h-35q-10 0 -16.5 -6.5t-6.5 -16.5l-103 -10h-38q-10 0 -16.5 -6.5t-6.5 -16.5v-68q0 -7 3.5 -12.5t10.5 -8.5l14 -81q2 -9 9.5 -15t16.5 -6q14 0 21.5 10t5.5 20l-12 68l94 -18v-1q0 -10 7 -16.5t16 -6.5h35q10 0 16.5 6.5t6.5 16.5v145q0 10 -6.5 16.5 t-15.5 6.5zM20 195q0 4 2.5 6.5t6.5 2.5h31v-85h-31q-4 0 -6.5 2.5t-2.5 5.5v68zM71 24q-3 -5 -11 -5q-4 0 -8 3t-4 6l-14 77h26l13 -73q1 -5 -2 -8zM74 117v87l96 10v-116zM236 84q0 -4 -2.5 -7t-6.5 -3h-35q-3 0 -6 3t-3 7v144q0 4 3 6.5t6 2.5h35q4 0 6.5 -2.5t2.5 -6.5 v-144z" />
</svg>