<svg viewBox="0 0 1024 1024" xmlns="http://www.w3.org/2000/svg">
  <path transform="scale(1, -1) translate(0, -960)" fill="currentColor" d="M48 518h928q7 0 11.5 4.5t4.5 11.5q0 82 -31 154q-31 71 -84.5 124.5t-124.5 84.5q-72 31 -154 31h-172q-82 0 -154 -31q-71 -31 -124.5 -84.5t-84.5 -124.5q-31 -72 -31 -154q0 -6 4.5 -11t11.5 -5v0zM426 896h174q73 0 137 -27t112.5 -74t78.5 -110q29 -63 32 -135 h-896q3 72 33 135q29 63 78 110t114 74q64 27 137 27zM976 378h-928q-7 0 -11.5 -4.5t-4.5 -11.5q0 -82 31 -154q31 -71 84.5 -124.5t124.5 -84.5q72 -31 154 -31h174q81 0 152 31q72 31 125 84.5t84 124.5q31 72 31 154q0 6 -4.5 11t-11.5 5zM598 0h-172q-73 0 -137 27 q-65 27 -114 74t-78 110q-30 63 -33 135h896q-3 -72 -33 -135q-29 -63 -78 -110t-114 -74q-64 -27 -137 -27z" />
</svg>