<svg viewBox="0 0 1024 1024" xmlns="http://www.w3.org/2000/svg">
  <path transform="scale(1, -1) translate(0, -960)" fill="currentColor" d="M902 582q-3 55 -26 103q-23 47 -60.5 82.5t-87.5 55.5q-49 20 -104 20h-224q-56 0 -107 -21t-90 -60q-36 -36 -57 -83t-24 -98q-40 -15 -65 -49t-25 -78v-12q0 -44 25 -78t65 -49q3 -54 26 -102q22 -48 59.5 -83.5t87.5 -56.5q49 -20 105 -20h224q56 0 107 21t90 60 q37 36 57.5 83t23.5 98q40 15 65 49t25 78v11q0 44 -25 79t-65 50zM224 739q36 35 81 53.5t95 18.5h224q48 0 91 -17q42 -17 75 -47t54 -71q22 -40 26 -87q-3 0 -7 0.5t-9 0.5h-681h-10t-9 -1q4 43 22 81.5t48 68.5v0zM173 558h681q42 0 73 -29t33 -71h-896q1 42 32.5 71 t76.5 29v0zM800 157q-35 -35 -80 -53.5t-94 -18.5h-226q-48 0 -91 17q-42 17 -75 47t-54 71q-22 40 -26 87q4 -1 9 -1h10h134q13 0 22 -9.5t9 -21.5q0 -26 18.5 -44t43.5 -18h38q27 0 45 18.5t18 43.5v10q0 13 9 21.5t21 8.5h26q13 0 21.5 -9t8.5 -21v-67q0 -27 18.5 -45 t44.5 -18h8q26 0 44 18.5t18 44.5v57q0 6 2.5 12t7.5 11q4 4 9 6.5t11 2.5v0v0h100q4 0 9 0.5t10 1.5q-3 -45 -21 -83.5t-48 -68.5zM851 338h-99q-12 0 -23.5 -5t-21.5 -13q-8 -8 -13.5 -20t-5.5 -25v-57q0 -14 -9 -22.5t-21 -8.5h-8q-14 0 -22.5 9.5t-8.5 21.5v67 q0 26 -18.5 44t-43.5 18h-26q-26 0 -44 -18.5t-18 -43.5v-10q0 -13 -9.5 -21.5t-21.5 -8.5h-38q-13 0 -21.5 9t-8.5 21q0 27 -19 45t-44 18h-134q-41 0 -71 25t-36 63h892q-6 -38 -36 -63t-71 -25z" />
</svg>