<svg viewBox="0 0 256 256" xmlns="http://www.w3.org/2000/svg">
  <path transform="scale(1, -1) translate(0, -256)" fill="currentColor" d="M12 143h232q3 0 5 2t2 5q0 28 -13.5 51t-37 36.5t-50.5 13.5h-44q-27 0 -50.5 -13.5t-37 -37t-13.5 -50.5q0 -3 2 -5t5 -2zM106 237h44q22 0 41.5 -10.5t31.5 -29t14 -41.5h-218q2 23 14 41.5t31.5 29t41.5 10.5zM244 113h-232q-3 0 -5 -2t-2 -5q0 -28 13.5 -51t37 -36.5 t50.5 -13.5h44q27 0 50.5 13.5t37 37t13.5 50.5q0 3 -2 5t-5 2zM150 19h-44q-22 0 -41.5 10.5t-31.5 29t-13 40.5h217q-2 -22 -14 -40.5t-31.5 -29t-41.5 -10.5z" />
</svg>