<svg viewBox="0 0 256 256" xmlns="http://www.w3.org/2000/svg">
  <path transform="scale(1, -1) translate(0, -256)" fill="currentColor" d="M228 164q-1 18 -11 33t-26 24t-35 9h-56q-30 0 -52 -21q-19 -19 -20 -45q-10 -5 -16.5 -14t-6.5 -20v-3q0 -11 6.5 -20.5t16.5 -13.5q1 -18 11 -33.5t26 -24.5t35 -9h56q30 0 52 22q18 18 21 45q10 4 16 13t6 20v3q0 11 -6 20.5t-17 14.5zM58 199q17 17 42 17h56 q22 0 38.5 -14t19.5 -35h-172q3 19 16 32zM43 153h171q8 0 14.5 -5.5t7.5 -13.5h-217q2 8 8.5 13.5t15.5 5.5zM198 57q-17 -17 -42 -17h-56q-22 0 -38.5 14t-19.5 35h35q2 0 3.5 -1.5t1.5 -3.5q0 -7 5.5 -12.5t12.5 -5.5h10q8 0 13.5 5.5t5.5 12.5v3q0 2 1.5 3.5t3.5 1.5h6 q2 0 3.5 -1.5t1.5 -3.5v-17q0 -8 5.5 -13.5t13.5 -5.5h2q7 0 12.5 5.5t5.5 13.5v14q0 2 1.5 3.5t3.5 1.5h26q-4 -19 -17 -32zM213 103h-25q-8 0 -13.5 -5.5t-5.5 -13.5v-14q0 -2 -1.5 -3.5t-3.5 -1.5h-2q-1 0 -2.5 1.5t-1.5 3.5v17q0 8 -5.5 13.5t-13.5 5.5h-7 q-7 0 -12.5 -5.5t-5.5 -13.5v-3q0 -1 -1.5 -2.5t-3.5 -1.5h-10q-2 0 -3.5 1t-1.5 3q0 8 -5.5 13.5t-12.5 5.5h-34q-8 0 -14.5 4.5t-8.5 11.5h217q-2 -7 -8.5 -11.5t-14.5 -4.5z" />
</svg>