<svg viewBox="0 0 1024 1024" xmlns="http://www.w3.org/2000/svg">
  <path transform="scale(1, -1) translate(0, -960)" fill="currentColor" d="M48 582h928q7 0 11.5 4.5t4.5 11.5q0 68 -26 128t-71 105t-105 71t-128 26h-300q-66 0 -126.5 -24.5t-107.5 -71.5t-71.5 -107.5t-24.5 -126.5q0 -7 4.5 -11.5t11.5 -4.5v0zM152 808q42 43 96.5 65.5t113.5 22.5h299q59 0 112 -22t93 -60t65 -89q24 -52 27 -111h-894 q4 56 26 106t62 88zM976 314h-928q-7 0 -11.5 -4.5t-4.5 -11.5q0 -68 26 -128t71 -105t105 -71t128 -26h299q66 0 126.5 24.5t106.5 71.5q47 47 71.5 107.5t24.5 126.5q2 7 -2.5 11.5t-11.5 4.5zM872 88q-42 -43 -96.5 -65.5t-113.5 -22.5h-300q-60 0 -113 22 q-52 22 -92.5 60t-64.5 89q-25 52 -28 111h896q-4 -56 -26 -106t-62 -88zM976 464h-928q-7 0 -11.5 -4.5t-4.5 -11.5t4.5 -11.5t11.5 -4.5h928q7 0 11.5 4.5t4.5 11.5t-4.5 11.5t-11.5 4.5z" />
</svg>