<svg viewBox="0 0 256 256" xmlns="http://www.w3.org/2000/svg">
  <path transform="scale(1, -1) translate(0, -256)" fill="currentColor" d="M12 158h232q3 0 5 2.5t2 5.5q0 23 -11.5 42.5t-31 31t-42.5 11.5h-76q-17 0 -32.5 -6.5t-27.5 -18.5t-18.5 -27.5t-6.5 -32.5q0 -3 2 -5.5t5 -2.5zM40 216q10 10 23 15.5t28 5.5h75q18 0 33.5 -8.5t25.5 -23.5t12 -33h-218q3 26 21 44zM244 98h-232q-3 0 -5 -2.5t-2 -5.5 q0 -23 11.5 -42.5t31 -31t42.5 -11.5h75q17 0 33 6.5t28 18.5t18.5 27.5t6.5 32.5q0 3 -2 5.5t-5 2.5zM216 40q-10 -10 -23 -15.5t-28 -5.5h-75q-18 0 -33.5 8.5t-25.5 23.5t-12 33h217q-1 -25 -20 -44zM244 135h-232q-3 0 -5 -2t-2 -5t2 -5t5 -2h232q3 0 5 2t2 5t-2 5t-5 2 z" />
</svg>