<svg viewBox="0 0 1024 1024" xmlns="http://www.w3.org/2000/svg">
  <path transform="scale(1, -1) translate(0, -960)" fill="currentColor" d="M902 582q-3 55 -26 103q-23 47 -60.5 82.5t-87.5 55.5q-49 20 -104 20h-224q-56 0 -107 -21t-90 -60q-36 -36 -57 -83t-24 -98q-40 -15 -65 -49t-25 -78v-12q0 -44 25 -78t65 -49q3 -54 26 -102q22 -48 59.5 -83.5t87.5 -56.5q49 -20 105 -20h224q56 0 107 21t90 60 q37 36 57.5 83t23.5 98q40 15 65 49t25 78v11q0 44 -25 79t-65 50zM224 739q36 35 81 53.5t95 18.5h224q48 0 91 -17q42 -17 75 -47t54 -71q22 -40 26 -87q-3 0 -7 0.5t-9 0.5h-681h-10t-9 -1q4 43 22 81.5t48 68.5v0zM800 157q-35 -35 -80 -53.5t-94 -18.5h-226 q-48 0 -91 17q-42 17 -75 47t-54 71q-22 40 -26 87q4 -1 9 -1h10h678h10t9 1q-3 -43 -21.5 -81.5t-48.5 -68.5zM960 442q0 -44 -31.5 -74t-77.5 -30h-678q-46 0 -77.5 30t-31.5 74v12q0 44 31.5 74t77.5 30h681q44 0 75 -31t31 -74v-11v0z" />
</svg>