<svg viewBox="0 0 1024 1024" xmlns="http://www.w3.org/2000/svg">
  <path transform="scale(1, -1) translate(0, -960)" fill="currentColor" d="M923 37h-115v137q0 129 -49 242q-48 113 -132 198t-196 134q-113 50 -241 52v112q0 7 -4 11.5t-12 4.5q-7 0 -11.5 -4.5t-4.5 -11.5v-875h-57q-7 0 -11.5 -4.5t-4.5 -11.5t4.5 -11.5t11.5 -4.5h57v-21q0 -7 4.5 -11.5t11.5 -4.5q8 0 12 4.5t4 11.5v21h733q7 0 11.5 4.5 t4.5 11.5t-4.5 11.5t-11.5 4.5v0zM632 560q29 -34 52.5 -72t41.5 -78h-536v150h440h1h1zM190 378h548h1v0q13 -36 21.5 -73.5t12.5 -77.5h-583v151v0zM603 592h-413v176q61 -1 118 -14q57 -12 109.5 -35t99.5 -55t86 -72zM190 195h586v-11v-11v-138h-586v160v0z" />
</svg>