<svg viewBox="0 0 1024 1024" xmlns="http://www.w3.org/2000/svg">
  <path transform="scale(1, -1) translate(0, -960)" fill="currentColor" d="M342 403q-32 0 -55 -23t-23 -55q0 -33 23 -56t55 -23q33 0 56 23t23 56q0 32 -23 55t-56 23zM342 280q-19 0 -32.5 13.5t-13.5 32.5q0 20 13.5 33.5t32.5 13.5q20 0 33.5 -13.5t13.5 -33.5q0 -19 -13.5 -32.5t-33.5 -13.5zM682 403q-33 0 -56 -23t-23 -55q0 -33 23 -56 t56 -23q32 0 55 23t23 56q0 32 -23 55t-55 23zM682 280q-20 0 -33.5 13.5t-13.5 32.5q0 20 13.5 33.5t33.5 13.5q19 0 32.5 -13.5t13.5 -33.5q0 -19 -13.5 -32.5t-32.5 -13.5zM915 886h-51q-5 18 -20 30t-34 12h-596q-19 0 -34 -12t-20 -30h-51q-19 0 -34 -12.5t-16 -30.5 v-72q0 -18 14.5 -30.5t35.5 -12.5h49v-514q0 -31 23 -53.5t54 -22.5h8v-90q0 -34 23.5 -57t56.5 -23h40q34 0 57 23t23 57v88h136v-88q0 -34 23.5 -57t56.5 -23h40q34 0 57 23t23 57v88h8q31 0 54 23t23 54v515h50q20 0 34.5 12.5t14.5 30.5v71q1 18 -13 31t-35 13zM214 896 h594q10 0 17 -7t7 -17v-112h-642v112q0 10 7.5 17t16.5 7v0zM834 506h-306v222h306v-222zM190 506v222h306v-221h-306v-1zM109 760q-7 0 -12.5 4t-5.5 7v71q0 4 5.5 8t12.5 4h49v-94h-49v0zM411 48q0 -20 -13.5 -34t-34.5 -14h-40q-20 0 -34 14t-14 34v88h136v-88zM749 48 q0 -20 -14 -34t-34 -14h-40q-21 0 -34.5 14t-13.5 34v88h136v-88zM789 168h-554q-18 0 -31.5 13.5t-13.5 31.5v261h644v-261q0 -18 -13.5 -31.5t-31.5 -13.5zM933 771q0 -3 -5.5 -7t-12.5 -4h-49v94h49q7 0 12.5 -3.5t5.5 -7.5v-72z" />
</svg>