<svg viewBox="0 0 256 256" xmlns="http://www.w3.org/2000/svg">
  <path transform="scale(1, -1) translate(0, -256)" fill="currentColor" d="M86 120q-10 0 -16.5 -6.5t-6.5 -16t6.5 -16t16 -6.5t16 6.5t6.5 16t-6.5 16t-15.5 6.5zM86 89q-4 0 -6.5 2.5t-2.5 6t2.5 6t6 2.5t6 -3t2.5 -6t-2.5 -5.5t-5.5 -2.5zM170 120q-9 0 -15.5 -6.5t-6.5 -16t6.5 -16t16 -6.5t16 6.5t6.5 16t-6.5 16t-16.5 6.5zM170 89 q-3 0 -5.5 2.5t-2.5 6t2.5 6t6 2.5t6 -2.5t2.5 -6t-2.5 -6t-6.5 -2.5zM229 240h-11q-2 5 -6.5 8t-9.5 3h-148q-6 0 -10 -3t-6 -8h-11q-6 0 -10.5 -4t-4.5 -9v-19q0 -5 4.5 -9.5t10.5 -4.5h10v-125q0 -9 6 -15.5t15 -6.5v-19q0 -10 7 -16.5t16 -6.5h10q10 0 16.5 6.5 t6.5 16.5v19h28v-19q0 -10 7 -16.5t17 -6.5h10q9 0 16 6.5t7 16.5v19q8 0 14.5 6.5t6.5 15.5v126h10q6 0 10.5 4t4.5 10v17q0 6 -5 10t-11 4zM54 237h148q1 0 2 -1t1 -2v-26h-154v26q0 3 3 3zM205 146h-70v49h71v-49h-1zM51 146v49h70v-49h-70zM27 209h-1v17h1h10v-17h-10z M100 28q0 -4 -2.5 -6.5t-6.5 -2.5h-10q-4 0 -6.5 2.5t-2.5 6.5v19h28v-19zM184 28q0 -4 -2.5 -6.5t-6.5 -2.5h-10q-3 0 -6 2.5t-3 6.5v19h28v-19zM197 61h-138q-4 0 -6.5 2.5t-2.5 6.5v62h155v-62q0 -4 -2 -6.5t-6 -2.5zM230 209v0h-10v17h9h1v-17z" />
</svg>