<svg viewBox="0 0 256 256" xmlns="http://www.w3.org/2000/svg">
  <path transform="scale(1, -1) translate(0, -256)" fill="currentColor" d="M250 74q-4 13 -15 19t-23 3l-54 -16q3 8 0 15t-9 10t-13 3h-43q-6 0 -12.5 6t-15.5 6h-35q-10 0 -17.5 -8t-7.5 -18v-55q0 -11 7.5 -19t18.5 -8h41q9 0 15 5l1 -1q19 -10 39 -10q13 0 24 4l77 23q16 6 21 19q4 10 1 22zM31 26q-5 0 -8.5 4t-3.5 9v55q0 5 3 8.5t8 3.5h34 q4 0 6 -2l5 -4v-74h-3h-41zM224 46l-77 -23q-9 -3 -20 -3q-17 0 -32 8l-5 3v64l46 -1q3 0 6 -1t4 -3t-1.5 -6.5t-8.5 -10.5q-4 -4 -2 -7.5t4.5 -4t11.5 1.5l66 19q6 2 12 -1.5t8 -10.5t0 -12q-2 -8 -12 -12zM225 244h-41q-9 0 -15 -5l-2 1q-19 10 -39 10q-12 0 -23 -4 l-78 -23q-15 -6 -20 -18q-4 -11 -1 -23v0q4 -13 15 -19t23 -3l54 16q-3 -8 0 -15t9 -10t13 -3h43q6 0 12.5 -6t15.5 -6h35q10 0 17.5 8t7.5 18v55q0 11 -7.5 19t-18.5 8zM120 162q-3 0 -5.5 1t-3.5 3t1 6.5t9 10.5q4 4 1 9l-2 2q-1 1 -3 1q-5 0 -40 -11l-36 -10 q-7 -2 -13 1.5t-8 10.5q-4 17 12 24l77 23q11 3 19 3q18 0 32 -8l6 -3v-63h-46zM237 162q0 -5 -3 -8.5t-8 -3.5h-34q-4 0 -6 2l-5 4v74h3h42q4 0 8 -3.5t4 -9.5v-55h-1z" />
</svg>