<svg viewBox="0 0 1024 1024" xmlns="http://www.w3.org/2000/svg">
  <path transform="scale(1, -1) translate(0, -960)" fill="currentColor" d="M987 229v0q-14 45 -53.5 68t-82.5 10q-57 -17 -127 -38t-116 -34q17 25 18.5 44.5t-4.5 32.5q-9 23 -32 34t-46 11h-173q-14 0 -28.5 6t-28.5 19q-11 11 -25 16t-30 5h-137q-38 0 -64 -27.5t-26 -66.5v-219q0 -40 27 -68t64 -28h167q15 0 30 5.5t27 16.5l13 -6 q34 -20 72 -29.5t77 -9.5q24 0 46.5 3.5t44.5 11.5l310 94q59 23 73.5 66t3.5 83zM123 27q-25 0 -42 19t-17 45v219q0 26 17 44.5t41 18.5h137q10 0 18 -3.5t14 -9.5q6 -5 11.5 -9.5t11.5 -8.5v-308q-6 -4 -12.5 -5.5t-13.5 -1.5h-165v0zM901 110l-309 -94 q-19 -6 -39.5 -9.5t-42.5 -3.5q-34 0 -68.5 8.5t-65.5 26.5l-22 13l-7 2v277q6 -2 12.5 -3t13.5 -1h171q14 0 29 -6t21 -19q6 -15 -5.5 -36t-36.5 -46l-10 -8l7 -11q5 -10 26 -5.5t140 39.5q55 15 100.5 29l45.5 14q30 8 58.5 -8t38.5 -50q3 -14 0 -51t-57 -58v0zM37 667 q14 -45 53.5 -67.5t82.5 -10.5q57 17 127 38t116 34q-17 -25 -18.5 -44.5t4.5 -32.5q9 -23 32 -34t46 -11h171q15 0 29 -6t29 -19q11 -11 25 -16t29 -5h138q37 0 63 27.5t26 66.5v218q0 39 -27 67.5t-64 28.5h-165q-15 0 -30 -6t-27 -17l-13 7q-34 19 -72 28.5t-77 9.5 q-24 0 -46.5 -3.5t-44.5 -10.5l-310 -93q-59 -23 -73.5 -66t-3.5 -83v0v0zM901 869q25 0 42 -19t17 -45v-219q0 -26 -17 -44.5t-41 -18.5h-137q-10 0 -18 3.5t-14 9.5q-6 5 -11.5 9.5t-11.5 8.5v308q6 4 12.5 5.5t13.5 1.5h165v0zM123 786l309 94q19 6 39.5 9.5t42.5 3.5 q34 0 68.5 -8.5t65.5 -26.5l22 -13l7 -2v-275q-6 1 -12.5 2t-13.5 1h-169q-15 0 -29.5 6.5t-20.5 19.5q-6 14 5 35t37 46l9 8l-6 12q-3 3 -5 4.5t-6 1.5q-11 0 -43.5 -9.5t-112.5 -32.5q-55 -15 -100 -29l-45 -14q-30 -8 -58.5 8t-39.5 50q-3 14 -0.5 51t56.5 58v0z" />
</svg>