<svg viewBox="0 0 1024 1024" xmlns="http://www.w3.org/2000/svg">
  <path transform="scale(1, -1) translate(0, -960)" fill="currentColor" d="M166 66q-7 0 -11.5 -4.5t-4.5 -11.5v-66q0 -7 4.5 -11.5t11.5 -4.5q8 0 12 4.5t4 11.5v66q0 6 -4 11t-12 5zM354 122q-8 0 -12 -4.5t-4 -11.5v-122q0 -7 4 -11.5t12 -4.5q7 0 11.5 4.5t4.5 11.5v122q0 6 -5 11t-11 5zM539 195q-7 0 -11.5 -4.5t-4.5 -11.5v-195 q0 -7 4.5 -11.5t11.5 -4.5t11.5 4.5t4.5 11.5v195q0 7 -4.5 11.5t-11.5 4.5zM726 270q-7 0 -11.5 -4t-4.5 -12v-270q0 -7 4.5 -11.5t11.5 -4.5q8 0 12 4.5t4 11.5v270q0 8 -5 12t-11 4zM890 573l-55 30v58q0 117 -30.5 175t-66.5 89q-5 3 -10.5 3t-10.5 -3q-36 -31 -67 -89 t-31 -175v-58l-54 -30q-22 -12 -34.5 -32.5t-12.5 -46.5v-84q0 -5 2.5 -8.5t5.5 -6.5q3 -1 4.5 -1h3.5h4.5t3.5 1l77 42v-21q0 -7 4.5 -11.5t11.5 -4.5h186q7 0 11.5 4.5t4.5 11.5v21l77 -42q1 -1 3 -1h5h4t4 1q3 3 5.5 6.5t2.5 8.5v84q-2 26 -14.5 46.5t-33.5 32.5v0z M549 437v59q0 16 7.5 29t21.5 21l40 20v-92zM803 432h-153v227q0 100 22.5 151t53.5 80q32 -30 54.5 -81t22.5 -150v-227v0zM904 437l-69 37v92l40 -20q13 -8 21 -21t8 -29v-59zM421 374l-119 44q-6 2 -12 -1t-8 -9q-3 -6 0 -12t9 -9l88 -32l-280 -105q-6 -3 -9 -9t0 -12 q2 -5 5.5 -7.5t8.5 -2.5q1 0 2.5 0.5t3.5 1.5l276 104l-28 -74q-2 -6 1 -12t9 -9q1 0 2.5 -0.5t2.5 -0.5q5 0 9 3t5 8l43 115q2 3 2 6t-2 7q-1 1 -3.5 3t-5.5 3v0z" />
</svg>