<svg viewBox="0 0 256 256" xmlns="http://www.w3.org/2000/svg">
  <path transform="scale(1, -1) translate(0, -256)" fill="currentColor" d="M181 198q-14 0 -26 -6t-20 -16v32q0 12 8.5 20.5t20.5 8.5h39q3 0 5 2t2 5t-2 5.5t-5 2.5h-39q-11 0 -20.5 -5.5t-15.5 -14.5q-6 9 -15.5 14.5t-20.5 5.5h-39q-3 0 -5 -2.5t-2 -5.5t2 -5t5 -2h39q12 0 20.5 -8.5t8.5 -20.5v-32q-8 10 -20 16t-26 6q-16 0 -30 -8.5 t-22 -22t-8 -29.5t7.5 -29.5t20.5 -21.5v-36q0 -19 13.5 -32.5t32.5 -13.5q12 0 22.5 6t16.5 15q6 -9 16.5 -15t22.5 -6q19 0 32.5 13.5t13.5 32.5v36q13 8 20.5 21.5t7.5 29.5t-8 29.5t-22 22t-30 8.5zM89 19q-13 0 -22.5 9.5t-9.5 22.5v40q0 4 -3 6q-12 6 -18.5 17 t-6.5 23q0 19 13.5 32.5t32.5 13.5t32.5 -13.5t13.5 -32.5v-87q0 -13 -9.5 -22t-22.5 -9zM202 97q-3 -2 -3 -6v-40q0 -13 -9.5 -22.5t-22.5 -9.5t-22.5 9.5t-9.5 22.5v87q0 19 13.5 32.5t32.5 13.5t32.5 -14t13.5 -32q0 -13 -6.5 -24t-18.5 -17z" />
</svg>