<svg viewBox="0 0 1024 1024" xmlns="http://www.w3.org/2000/svg">
  <path transform="scale(1, -1) translate(0, -960)" fill="currentColor" d="M723 714q-62 0 -114 -31t-81 -81v164q0 54 38 92t92 38h153q7 0 11.5 4.5t4.5 11.5t-4.5 11.5t-11.5 4.5h-153q-48 0 -87.5 -26t-58.5 -67q-19 41 -58.5 67t-87.5 26h-153q-7 0 -11.5 -4.5t-4.5 -11.5t4.5 -11.5t11.5 -4.5h153q54 0 92 -38t38 -92v-163 q-30 51 -81.5 81.5t-113.5 30.5q-47 0 -88 -18q-42 -18 -72.5 -48.5t-48.5 -72.5q-18 -41 -18 -88q0 -61 30 -113.5t82 -83.5v-150q0 -71 50 -121t121 -50q51 0 93 28t62 71q20 -45 62 -72t93 -27q71 0 121 50t50 121v150q52 31 82 83.5t30 113.5q1 46 -17 87q-17 41 -48 72 t-73 49q-41 18 -89 18v0zM357 0q-58 0 -98.5 41t-40.5 98v160q0 5 -2.5 8.5t-5.5 6.5q-48 25 -76 71.5t-28 100.5q0 41 15 77q15 35 42 61.5t62 41.5q36 16 76 16q41 0 76 -16q36 -15 62.5 -41.5t41.5 -62.5q15 -35 15 -76v-347q0 -57 -41 -98t-98 -41zM816 314 q-4 -3 -6 -6.5t-2 -8.5v-160q0 -57 -41 -98t-98 -41q-58 0 -98.5 41t-40.5 98v347q0 41 15 77q15 35 42 61.5t62 41.5q36 16 76 16t76 -16q35 -15 61.5 -41.5t42.5 -62.5q15 -35 15 -76q0 -54 -28 -100.5t-76 -71.5z" />
</svg>