<svg viewBox="0 0 1024 1024" xmlns="http://www.w3.org/2000/svg">
  <path transform="scale(1, -1) translate(0, -960)" fill="currentColor" d="M976 83h-62v128l19 -16q5 -5 12 -4t10 6q5 5 4 12t-5 10l-157 133q-5 4 -10.5 4t-10.5 -4l-112 -94v0v0l-45 -37q-5 -5 -5.5 -11.5t4.5 -11.5q2 -2 5.5 -4t6.5 -2t6 1t4 2l19 16v-128h-293v128l20 -16q2 -2 4.5 -2.5t4.5 -0.5q4 0 7.5 1.5t5.5 4.5q5 5 4 12t-6 11 l-158 131q-5 4 -10.5 4t-10.5 -4l-112 -94v0v0l-45 -37q-4 -5 -5 -11.5t4 -11.5q5 -4 11 -5t11 4l19 16v-128h-62q-7 0 -11.5 -4.5t-4.5 -11.5t4.5 -11.5t11.5 -4.5h928q7 0 11.5 4.5t4.5 11.5t-4.5 10.5t-11.5 3.5zM142 83v155l96 80l96 -80v-155h-192v0zM690 83v155l96 80 l96 -80v-155h-192zM562 550h-114q-7 0 -11.5 -4t-4.5 -12q0 -7 4.5 -11.5t11.5 -4.5h88v-35q0 -7 4.5 -11.5t11.5 -4.5t11.5 4.5t4.5 11.5v37q29 2 49.5 24t20.5 51q0 31 -22.5 54t-53.5 23h-53q-18 0 -31.5 13t-13.5 32t13.5 32t31.5 13h113q8 0 12 4t4 12q0 7 -4 11.5 t-12 4.5h-54v35q0 7 -4.5 11.5t-11.5 4.5t-11.5 -4.5t-4.5 -11.5v-35h-27q-33 0 -55 -22.5t-22 -54.5q0 -33 23 -55t54 -22h53q18 0 31 -13t13 -32q0 -18 -13 -31.5t-31 -13.5z" />
</svg>