<svg viewBox="0 0 1024 1024" xmlns="http://www.w3.org/2000/svg">
  <path transform="scale(1, -1) translate(0, -960)" fill="currentColor" d="M875 928h-726q-7 0 -11.5 -4.5t-4.5 -11.5t4.5 -11.5t11.5 -4.5h59v-912q0 -7 4.5 -11.5t11.5 -4.5t11.5 4.5t4.5 11.5v85h544v-85q0 -7 4.5 -11.5t11.5 -4.5t11.5 4.5t4.5 11.5v912h59q7 0 11.5 4.5t4.5 11.5t-4.5 11.5t-11.5 4.5zM784 101h-544v795h544v-795zM421 547 h182q27 0 45.5 19t18.5 45v72q0 27 -18.5 45.5t-45.5 18.5h-182q-27 0 -45.5 -18.5t-18.5 -45.5v-72q0 -26 18.5 -45t45.5 -19v0zM389 685q0 13 9.5 22.5t22.5 9.5h182q13 0 22.5 -9.5t9.5 -22.5v-72q0 -13 -9.5 -22.5t-22.5 -9.5h-182q-13 0 -22.5 9.5t-9.5 22.5v72v0z M421 246h182q27 0 45.5 19t18.5 45v72q0 27 -18.5 45.5t-45.5 18.5h-182q-27 0 -45.5 -18.5t-18.5 -45.5v-72q0 -26 18.5 -45t45.5 -19v0zM389 382q0 14 9.5 23t22.5 9h182q13 0 22.5 -9t9.5 -23v-72q0 -13 -9.5 -22.5t-22.5 -9.5h-182q-13 0 -22.5 9.5t-9.5 22.5v72v0z" />
</svg>