<svg viewBox="0 0 1024 1024" xmlns="http://www.w3.org/2000/svg">
  <path transform="scale(1, -1) translate(0, -960)" fill="currentColor" d="M910 928h-796q-8 0 -12 -4.5t-4 -11.5t4 -11.5t12 -4.5h59v-811q0 -7 4.5 -11.5t11.5 -4.5h22v-85q0 -7 4.5 -11.5t11.5 -4.5t11.5 4.5t4.5 11.5v85h538v-85q0 -7 4.5 -11.5t11.5 -4.5t11.5 4.5t4.5 11.5v85h22q7 0 11.5 4.5t4.5 11.5v811h59q8 0 12 4.5t4 11.5t-5 11.5 t-11 4.5v0zM205 101v374h614v-374h-614v0zM819 507h-614v389h614v-389zM438 694h148q7 0 11.5 4.5t4.5 11.5q0 8 -4.5 12t-11.5 4h-148q-7 0 -11.5 -4t-4.5 -12q0 -7 5 -11.5t11 -4.5v0zM586 309h-148q-7 0 -11.5 -4.5t-4.5 -11.5t4.5 -11.5t11.5 -4.5h148q7 0 11.5 4.5 t4.5 11.5t-5 11.5t-11 4.5z" />
</svg>