<svg viewBox="0 0 256 256" xmlns="http://www.w3.org/2000/svg">
  <path transform="scale(1, -1) translate(0, -256)" fill="currentColor" d="M228 251h-200q-3 0 -4.5 -2t-1.5 -5t2 -5t5 -2h12v-200q0 -3 2 -5t5 -2h2v-18q0 -3 2.5 -5t5.5 -2t5 2t2 5v18h128v-18q0 -3 2 -5t5 -2t5.5 2t2.5 5v18h2q3 0 5 2.5t2 5.5v199h12q3 0 5 2t2 5t-2.5 5t-5.5 2zM202 44h-148v88h148v-88zM202 146h-148v91h148v-91zM110 186 h36q3 0 5.5 2.5t2.5 5.5t-2.5 5t-5.5 2h-36q-3 0 -5.5 -2t-2.5 -5t2.5 -5.5t5.5 -2.5zM110 82h36q3 0 5.5 2t2.5 5t-2.5 5t-5.5 2h-36q-3 0 -5.5 -2t-2.5 -5t2.5 -5t5.5 -2z" />
</svg>