<svg viewBox="0 0 256 256" xmlns="http://www.w3.org/2000/svg">
  <path transform="scale(1, -1) translate(0, -256)" fill="currentColor" d="M219 251h-182q-3 0 -5 -2t-2 -5t2 -5t5 -2h12v-225q0 -3 2 -5t5 -2t5.5 2t2.5 5v18h130v-18q0 -3 2 -5t5 -2t5 2t2 5v225h12q3 0 5 2t2 5t-2.5 5t-5.5 2zM193 44h-130v193h130v-193zM105 150h46q8 0 13.5 5.5t5.5 13.5v18q0 8 -5.5 13.5t-13.5 5.5h-46q-8 0 -13.5 -5.5 t-5.5 -13.5v-18q0 -8 5.5 -13.5t13.5 -5.5zM100 187q0 2 1.5 3.5t3.5 1.5h46q2 0 3.5 -1.5t1.5 -3.5v-18q0 -2 -1.5 -3.5t-3.5 -1.5h-46q-2 0 -3.5 1.5t-1.5 3.5v18zM105 74h46q8 0 13.5 6t5.5 14v18q0 7 -5.5 13t-13.5 6h-46q-8 0 -13.5 -5.5t-5.5 -13.5v-18q0 -8 5.5 -14 t13.5 -6zM100 112q0 2 1.5 3.5t3.5 1.5h46q2 0 3.5 -1.5t1.5 -3.5v-18q0 -2 -1.5 -4t-3.5 -2h-46q-2 0 -3.5 1.5t-1.5 4.5v18z" />
</svg>