<svg viewBox="0 0 1024 1024" xmlns="http://www.w3.org/2000/svg">
  <path transform="scale(1, -1) translate(0, -960)" fill="currentColor" d="M973 928l-928 -154q-6 -1 -10 -6t-3 -11t5.5 -9.5t10.5 -3.5h1.5h1.5l445 72v-184h-230q-80 0 -136 -56.5t-56 -135.5v-280q0 -79 56 -135.5t136 -56.5h491q79 0 135.5 56.5t56.5 135.5v282q0 79 -56.5 135.5t-135.5 56.5h-229v187l451 75q6 1 10 6.5t3 11.5t-6.5 10.5 t-12.5 3.5zM758 0h-492q-66 0 -113 47t-47 113v104h811v-104q1 -66 -46 -113t-113 -47zM918 442v-146h-812v146q0 66 47 113t113 47h491q67 0 114 -47t47 -113z" />
</svg>