<svg viewBox="0 0 256 256" xmlns="http://www.w3.org/2000/svg">
  <path transform="scale(1, -1) translate(0, -256)" fill="currentColor" d="M251 245q-1 3 -3 4.5t-5 1.5l-232 -39q-3 0 -4.5 -2.5t-1.5 -5t2.5 -4.5t4.5 -2l109 18v-39h-55q-21 0 -36 -15t-15 -36v-70q0 -21 15 -36t36 -15h123q21 0 36 15t15 36v70q0 21 -15 36.5t-36 15.5h-54v41l110 18q3 1 4.5 3t1.5 5zM190 19h-124q-15 0 -26 10.5t-11 26.5 v23h197v-23q0 -15 -10.5 -26t-25.5 -11zM226 126v-33h-196v33q0 16 10.5 27t26.5 11h123q15 -1 25.5 -11.5t10.5 -26.5z" />
</svg>