<svg viewBox="0 0 256 256" xmlns="http://www.w3.org/2000/svg">
  <path transform="scale(1, -1) translate(0, -256)" fill="currentColor" d="M208 171h-17q-3 21 -14 34l12 13q2 2 2 5t-2 5t-5 2t-5 -2l-12 -13q-14 12 -32 15v14q0 3 -2 5t-5 2t-5.5 -2t-2.5 -5v-14q-18 -3 -32 -15l-11 13q-2 2 -5 2t-5 -2t-2 -5t2 -5l12 -13q-11 -14 -14 -34h-17q-3 0 -5 -2t-2 -5t2 -5t5 -2h16q1 -22 10 -41h-3 q-8 0 -13.5 -5.5t-5.5 -13.5v-13q0 -5 2.5 -9.5t7.5 -6.5l9 -44q2 -8 8.5 -13.5t15.5 -5.5h67q9 0 15.5 5.5t8.5 13.5l9 44q4 2 7 6.5t3 9.5v13q0 8 -5.5 13.5t-13.5 5.5h-4q10 21 10 41h16q3 0 5.5 2t2.5 5t-2.5 5t-5.5 2zM162 19h-68q-3 0 -6 2.5t-4 5.5l-7 39h103l-8 -39 q-1 -3 -4 -5.5t-6 -2.5zM190 97v-12q0 -2 -1.5 -3.5t-3.5 -1.5h-114q-2 0 -3.5 1.5t-1.5 3.5v12q0 2 1.5 3.5t3.5 1.5h114q2 0 3.5 -1.5t1.5 -3.5zM128 216q13 0 24.5 -7t18.5 -20t7 -30q0 -23 -12 -43h-76q-12 21 -12 43q0 17 7 30t19 20t24 7z" />
</svg>