<svg viewBox="0 0 1024 1024" xmlns="http://www.w3.org/2000/svg">
  <path transform="scale(1, -1) translate(0, -960)" fill="currentColor" d="M498 736q-8 0 -12 -4.5t-4 -11.5v-205q0 -7 4 -11.5t12 -4.5q7 0 11.5 4.5t4.5 11.5v205q0 6 -5 11t-11 5zM678 173q56 0 104 21q49 21 85 57t58 85q21 49 21 104q0 38 -27.5 65.5t-65.5 27.5q-39 0 -66 -27.5t-27 -65.5v-8q0 -19 -13.5 -32.5t-32.5 -13.5h-42v396 q0 60 -42 103t-104 43h-59q-60 0 -102.5 -43t-42.5 -103v-185h-76q-4 0 -7.5 3t-3.5 8q0 32 -23 55t-55 23q-33 0 -56 -23t-23 -55q0 -41 16 -78q16 -36 43 -63.5t64 -42.5q36 -16 77 -16h44v-408h-101q-7 0 -11.5 -4.5t-4.5 -11.5t4.5 -11.5t11.5 -4.5h552q7 0 11.5 4.5 t4.5 11.5t-4.5 11.5t-11.5 4.5h-101v173h6v0zM712 352q32 0 55 23t23 55v8q0 26 18 43.5t43 17.5t43 -17.5t18 -43.5q0 -48 -19 -91q-18 -43 -50 -75t-75 -50q-43 -19 -91 -19h-5v149h40zM278 438q-69 0 -118.5 49.5t-49.5 118.5q0 20 14 33.5t33 13.5t32.5 -13.5 t13.5 -33.5q0 -18 12.5 -30.5t30.5 -12.5h76v-125h-44zM354 0v782q0 47 33 80.5t80 33.5h59q47 0 80.5 -33.5t33.5 -80.5v-782h-286v0zM498 283q-8 0 -12 -4.5t-4 -11.5v-126q0 -7 4 -11.5t12 -4.5q7 0 11.5 4.5t4.5 11.5v126q0 6 -5 11t-11 5z" />
</svg>