<svg viewBox="0 0 1024 1024" xmlns="http://www.w3.org/2000/svg">
  <path transform="scale(1, -1) translate(0, -960)" fill="currentColor" d="M798 830q-38 0 -65 -27t-27 -65v-92q0 -2 -1.5 -3t-3.5 -1h-83v180q0 45 -31.5 75.5t-74.5 30.5t-74.5 -30.5t-31.5 -75.5v-97h-83q-2 0 -3.5 1t-1.5 4v92q0 39 -27 66t-65 27q-39 0 -66 -27t-27 -66v-118q0 -68 48 -116.5t117 -48.5h108v-181h-100q-27 0 -45.5 -18.5 t-18.5 -45.5v-38q0 -19 9.5 -34t25.5 -22l33 -168q6 -28 28 -46t51 -18h246q29 0 51 18t28 46l33 168q16 8 25.5 23t9.5 33v38q0 27 -18.5 45.5t-45.5 18.5h-100v96h108q69 0 117 48.5t48 116.5v119q0 38 -27 65t-66 27v0zM298 571q-56 0 -94.5 39t-38.5 94v118 q0 26 17.5 43.5t43.5 17.5q25 0 42.5 -17.5t17.5 -43.5v-91q0 -15 11 -26t26 -11h83v-121h-108v-2zM682 38q-3 -16 -16.5 -27t-30.5 -11h-246q-17 0 -30.5 11t-16.5 27l-32 154h402l-30 -154v0zM750 294v-38q0 -13 -9 -22.5t-23 -9.5h-412q-14 0 -23 9.5t-9 22.5v38 q0 14 9 23t23 9h411q14 0 23.5 -9t9.5 -23zM438 358v464q0 30 22 52t52 22t52 -22t22 -52v-464h-148v0zM859 619q0 -55 -38.5 -94t-94.5 -39h-108v122h83q15 0 26 10.5t11 26.5v91q0 25 17.5 43t42.5 18q26 0 43.5 -18t17.5 -43v-117z" />
</svg>