<svg viewBox="0 0 256 256" xmlns="http://www.w3.org/2000/svg">
  <path transform="scale(1, -1) translate(0, -256)" fill="currentColor" d="M124 203q-3 0 -5 -2t-2 -5v-52q0 -3 2 -5t5 -2t5.5 2t2.5 5v52q-1 3 -3 5t-5 2zM240 126q0 11 -8 18.5t-19 7.5t-18.5 -7.5t-7.5 -18.5v-2q0 -4 -2.5 -6.5t-6.5 -2.5h-7v97q0 16 -11.5 27.5t-27.5 11.5h-15q-16 0 -27.5 -11.5t-11.5 -27.5v-44h-16q0 9 -6.5 16t-16 7 t-16.5 -7t-7 -16q0 -14 7.5 -26.5t19.5 -19.5t27 -7h8v-96h-22q-3 0 -5.5 -2t-2.5 -5t2.5 -5t5.5 -2h137q3 0 5 2t2 5t-2 5t-5 2h-22v37q19 0 34.5 9.5t25 25.5t9.5 35zM178 101q9 0 16 6.5t7 16.5v2q0 5 3.5 8.5t8.5 3.5t9 -3.5t4 -8.5q0 -23 -16 -39t-39 -17v31h7zM70 129 q-17 0 -28.5 11.5t-11.5 27.5q0 4 3 6.5t6.5 2.5t6 -2.5t2.5 -7.5t4 -9t10 -4h16v-25h-8zM92 19v193q0 10 7 17.5t18 7.5h15q10 0 17.5 -7.5t7.5 -17.5v-193h-65zM124 90q-3 0 -5 -2.5t-2 -5.5v-31q0 -3 2 -5t5 -2t5.5 2t2.5 5v31q-1 4 -3 6t-5 2z" />
</svg>