<svg viewBox="0 0 256 256" xmlns="http://www.w3.org/2000/svg">
  <path transform="scale(1, -1) translate(0, -256)" fill="currentColor" d="M233 113q-3 0 -5 -2t-2 -5v-22q0 -3 -2.5 -5.5t-6.5 -2.5h-46v88q27 2 39 13q8 8 11 24q1 9 1 17q0 3 -2 5t-4 2q-9 0 -18 -1q-16 -4 -24 -12l-3 -2v2q0 16 -11.5 27.5t-27.5 11.5h-15q-16 0 -27.5 -11.5t-11.5 -27.5v-95h-40q-3 0 -5.5 2.5t-2.5 5.5v47q0 3 -2 5t-5 2 t-5 -2t-2 -5v-47q0 -9 6.5 -15.5t15.5 -6.5h40v-84h-22q-3 0 -5.5 -2t-2.5 -5t2.5 -5.5t5.5 -2.5h137q3 0 5 2.5t2 5.5t-2 5t-5 2h-22v43h47q9 0 15.5 6.5t6.5 15.5v22q0 3 -2 5t-5 2zM183 203q7 6 25 8q-2 -17 -8.5 -23.5t-24.5 -8.5q2 17 8 24zM131 19v118q0 3 -2 5t-5 2 t-5 -2t-2 -5v-118h-26v193q0 10 7.5 17.5t17.5 7.5h16q10 0 17.5 -7.5t7.5 -17.5v-193h-26z" />
</svg>