<svg viewBox="0 0 1024 1024" xmlns="http://www.w3.org/2000/svg">
  <path transform="scale(1, -1) translate(0, -960)" fill="currentColor" d="M931 376q-7 0 -11.5 -4.5t-4.5 -11.5v-88q0 -18 -13.5 -31.5t-31.5 -13.5h-198v378q11 0 67.5 6.5t90.5 39.5q36 36 42 95.5t6 61.5q0 6 -4 11t-12 5q-3 0 -63.5 -6t-96.5 -40q-10 -10 -17.5 -23.5t-12.5 -28.5v56q0 60 -43 103t-103 43h-60q-60 0 -103 -43t-43 -103 v-390h-166q-18 0 -31.5 13.5t-13.5 31.5v187q0 7 -4.5 11.5t-11.5 4.5t-11.5 -4.5t-4.5 -11.5v-187q0 -31 22.5 -54t54.5 -23h168v-360h-101q-7 0 -11.5 -4.5t-4.5 -11.5t4.5 -11.5t11.5 -4.5h552q7 0 11.5 4.5t4.5 11.5t-4.5 11.5t-11.5 4.5h-101v195h198q32 0 54.5 23 t22.5 54v88q0 6 -4.5 11t-11.5 5v0zM725 755q20 21 57.5 28.5t63.5 8.5q-1 -25 -9.5 -61.5t-28.5 -56.5q-20 -21 -57.5 -28.5t-64.5 -8.5q2 25 10 62t29 56zM512 0v483q0 7 -4.5 11.5t-11.5 4.5t-11.5 -4.5t-4.5 -11.5v-483h-126v782q0 47 33 80.5t80 33.5h61 q47 0 80.5 -33.5t33.5 -80.5v-782h-130z" />
</svg>