<svg viewBox="0 0 256 256" xmlns="http://www.w3.org/2000/svg">
  <path transform="scale(1, -1) translate(0, -256)" fill="currentColor" d="M200 227q-11 0 -19 -8t-8 -19v-21h-16v43q0 12 -8.5 20.5t-20.5 8.5t-20.5 -8.5t-8.5 -20.5v-22h-16v22q0 10 -8 18t-18.5 8t-18.5 -8t-8 -18v-30q0 -18 13 -31t31 -13h25v-40h-23q-7 0 -13 -5.5t-6 -13.5v-9q0 -5 2.5 -9.5t6.5 -6.5l8 -40q2 -8 8.5 -13.5t14.5 -5.5h61 q9 0 15 5.5t8 13.5l8 40q4 2 6.5 6.5t2.5 9.5v10q0 7 -5.5 13t-13.5 6h-23v18h25q18 0 31 13t13 31v30q1 10 -7 18t-18 8zM74 162q-12 0 -21 9t-9 21v30q0 5 3.5 8.5t9 3.5t9 -3.5t3.5 -8.5v-23q0 -5 3.5 -9t8.5 -4h18v-24h-25zM159 19h-62q-3 0 -5.5 2t-3.5 5l-6 35h93 l-7 -35q-1 -3 -3.5 -5t-5.5 -2zM184 90v-10q0 -2 -1.5 -3.5t-3.5 -1.5h-103q-2 0 -3.5 1.5t-1.5 3.5v10q0 2 1.5 3.5t3.5 1.5h103q3 0 4 -1.5t1 -3.5zM113 109v113q0 6 4.5 10.5t10.5 4.5t10.5 -4.5t4.5 -10.5v-114h-30v1zM212 171q0 -13 -9 -22t-21 -9h-25v25h18 q5 0 8.5 3.5t3.5 8.5v23q0 5 4 8.5t9 3.5t8.5 -3.5t3.5 -8.5v-29z" />
</svg>