<svg viewBox="0 0 1024 1024" xmlns="http://www.w3.org/2000/svg">
  <path transform="scale(1, -1) translate(0, -960)" fill="currentColor" d="M990 130q-2 6 -7.5 9t-12.5 0q-15 -5 -38.5 -8t-57.5 -1v134h92q8 0 12 4.5t4 11.5v120q0 7 -4 11.5t-12 4.5q-7 0 -11.5 -4.5t-4.5 -11.5v-102h-76v224q0 32 -23 55t-56 23q-32 0 -55 -23t-23 -55v-167h-75v160q0 7 -4.5 11.5t-11.5 4.5q-8 0 -12 -4.5t-4 -11.5v-176 q0 -7 4 -11.5t12 -4.5h91v-174q-48 8 -106.5 21.5t-128.5 34.5q-18 5 -35.5 8.5t-35.5 7.5v166h0.5h1.5h101q7 0 11.5 4.5t4.5 11.5v160q0 7 -4.5 11.5t-11.5 4.5q-8 0 -12 -4.5t-4 -11.5v-144h-85h-0.5h-1.5v279q0 42 -29.5 71t-71.5 29t-71 -29t-29 -71v-200h-112v220 q0 8 -4.5 12t-11.5 4q-8 0 -12 -4t-4 -12v-236q0 -8 4 -12t12 -4h128v-234q-71 -5 -117 -15.5t-50 -11.5q-6 -3 -9 -8t-2 -11t7 -9.5t12 -2.5q1 0 36 9q36 8 94.5 13.5t133.5 2.5q76 -2 157 -25q69 -19 130 -33q60 -14 112.5 -23.5t95.5 -13.5q44 -5 80 -5q27 0 49.5 2.5 t39.5 8.5q7 2 10.5 8t0.5 12v0zM243 234v464q0 28 20 48t49 20t49 -20t20 -48v-472q-37 4 -72 6t-66 2v0zM750 522q0 19 14 32.5t33 13.5t32.5 -13.5t13.5 -32.5v-389q-20 1 -43 4t-50 7v378z" />
</svg>