<svg viewBox="0 0 256 256" xmlns="http://www.w3.org/2000/svg">
  <path transform="scale(1, -1) translate(0, -256)" fill="currentColor" d="M251 50q-1 2 -3.5 3.5t-5.5 0.5q-7 -2 -20 -2v28h20q3 0 5 2t2 5v29q0 3 -2 5t-5 2t-5 -2t-2 -5v-22h-13v52q0 10 -7 16.5t-16.5 6.5t-16 -6.5t-6.5 -16.5v-38h-13v37q0 3 -2 5t-5 2t-5 -2t-2 -5v-44q0 -3 2 -5t5 -2h20v-37q-21 4 -56 13l-15 4v36h23q3 0 5 2t2 5v40 q0 3 -2 5t-5 2t-5.5 -2t-2.5 -5v-33h-15v66q0 12 -8 20t-19.5 8t-20 -8t-8.5 -20v-47h-21v53q0 3 -2 5t-5 2t-5 -2t-2 -5v-60q0 -3 2 -5t5 -2h29v-52q-15 -1 -28 -4q-9 -1 -12 -2.5t-4.5 -3.5t-0.5 -5t3.5 -4.5t5.5 -0.5h1q16 4 34 5q37 3 69 -5q69 -19 105 -19q14 0 23 3 q3 1 4.5 3.5t0.5 5.5zM64 77v113q0 6 4 10t10 4t10 -4t4 -10v-114q-15 2 -28 1zM190 146q0 4 3 6.5t6.5 2.5t6 -2.5t2.5 -6.5v-94q-7 1 -17 3v91h-1z" />
</svg>