<svg viewBox="0 0 256 256" xmlns="http://www.w3.org/2000/svg">
  <path transform="scale(1, -1) translate(0, -256)" fill="currentColor" d="M236 135h-6v78q0 12 -8.5 20t-19.5 8h-148q-12 0 -20 -8t-8 -20v-78h-6q-6 0 -10.5 -4t-4.5 -11v-77q0 -11 8.5 -19.5t19.5 -8.5h191q11 0 19 8t8 19v78q0 6 -4.5 10.5t-10.5 4.5zM54 227h148q6 0 10 -4t4 -10v-19q-6 -1 -12 -4q-3 -1 -8 -4v0q-6 -4 -10 -5.5t-10.5 -1.5 t-10.5 1.5t-10 5.5t-10 5q-8 3 -17 3t-17 -3q-4 -1 -10 -5t-10 -5.5t-10.5 -1.5t-10.5 1.5t-10 5.5v0q-5 3 -8 4q-6 3 -12 4v19q0 6 4 10t10 4zM40 180q5 -2 13 -6v0q7 -4 11 -6q7 -2 16.5 -2t16.5 2q5 2 11 5.5t10 5t10.5 1.5t10.5 -1.5t10 -5t10 -5.5q8 -2 17 -2t17 2 q4 2 11 6l1 1q7 4 12 5v-45h-177v45zM20 121h216q1 0 1 -1v-28q-8 -1 -15 -4q-4 -2 -10.5 -6t-10.5 -5q-7 -3 -15 -3t-15 3q-4 1 -11 5.5t-12 6.5q-9 3 -20 3t-20 -3q-5 -2 -12 -6.5t-11 -5.5q-7 -3 -15 -3t-15 3q-4 1 -10.5 5t-10.5 6q-7 3 -15 4v28q0 1 1 1zM233 33 q-4 -4 -10 -4h-190q-6 0 -10 4.5t-4 9.5v35q8 -1 18 -7q8 -5 13 -7q9 -3 20 -3t20 3q5 2 12 6.5t11 5.5q7 3 15 3t15 -3q4 -1 11 -5.5t12 -6.5q9 -3 20 -3t20 3q5 2 13 7q10 6 18 7v-35q0 -6 -4 -10z" />
</svg>