<svg viewBox="0 0 1024 1024" xmlns="http://www.w3.org/2000/svg">
  <path transform="scale(1, -1) translate(0, -960)" fill="currentColor" d="M944 464h-37v325q0 41 -29 70t-70 29h-592q-41 0 -70 -29t-29 -70v-325h-37q-19 0 -33.5 -13.5t-14.5 -32.5v-309q0 -41 29 -70t70 -29l762 -2v0v0q20 0 38 7t32 22q15 14 22 32t7 38v311q0 19 -14 32.5t-34 13.5v0zM216 856h592q28 0 47.5 -20t19.5 -47v-88 q-31 -3 -51 -12t-37 -20q-18 -11 -36 -19t-50 -8q-33 0 -51 8t-36 19t-41 21.5t-63 10.5q-39 0 -62.5 -10.5t-41.5 -21.5t-36 -19t-50 -8t-50 8t-36 19q-16 9 -36 19t-52 13v88q2 27 22 47t48 20v0zM149 667q24 -2 39.5 -9.5t30.5 -17.5q18 -11 41.5 -21.5t62.5 -10.5 q40 0 63 10.5t41 21.5t36 19t51 8q32 0 50 -8t36 -19t41 -21.5t63 -10.5t63 10.5t41 21.5q16 10 31 17.5t39 9.5v-203h-729v203v0zM80 432h864q6 0 11 -4t5 -10v-125q-40 -3 -64 -14t-45 -25q-20 -13 -43.5 -23t-63.5 -10t-63.5 10t-43.5 23q-23 15 -50.5 27t-74.5 12 t-74.5 -12t-50.5 -27q-20 -13 -43.5 -23t-63.5 -10t-63.5 10t-43.5 23q-21 14 -45 25t-64 14v125q0 6 4.5 10t11.5 4v0zM941 59q-10 -9 -22.5 -14t-25.5 -5v0v0l-762 2q-27 0 -47 19.5t-20 47.5v153q32 -2 52.5 -11.5t38.5 -21.5q23 -15 50.5 -27t74.5 -12t74.5 12t50.5 27 q20 13 43.5 23t63.5 10t63.5 -10t43.5 -23q23 -15 50.5 -27t74.5 -12t74.5 12t50.5 27q19 12 39 21.5t52 11.5v-155q0 -13 -5 -25.5t-14 -22.5v0z" />
</svg>