<svg viewBox="0 0 256 256" xmlns="http://www.w3.org/2000/svg">
  <path transform="scale(1, -1) translate(0, -256)" fill="currentColor" d="M224 251h-192q-11 0 -19 -8t-8 -19v-192q0 -11 8 -19t19 -8h192q11 0 19 8t8 19v192q0 11 -8 19t-19 8zM237 224v-89h-102v102h89q5 0 9 -4t4 -9zM32 237h89v-102h-102v89q0 5 4 9t9 4zM19 32v89h102v-102h-89q-5 0 -9 4t-4 9zM224 19h-89v102h102v-89q0 -5 -4 -9t-9 -4z M49 174h14v-14q0 -3 2 -5.5t5 -2.5t5.5 2.5t2.5 5.5v14h14q3 0 5 2t2 5t-2 5t-5 2h-14v14q0 3 -2.5 5t-5.5 2t-5 -2t-2 -5v-14h-14q-3 0 -5 -2t-2 -5t2 -5t5 -2zM176 186l-11 -11q-2 -2 -2 -5t2 -5t5 -2t5 2l11 11l10 -11q2 -2 5 -2t5 2t2 5t-2 5l-10 11l11 11q2 2 2 5t-2 5 t-5 2t-5 -2l-11 -11l-11 11q-2 2 -5 2t-5 -2t-2 -5t2 -5zM86 82h-32q-3 0 -5 -2t-2 -5t2 -5t5 -2h32q3 0 5 2t2 5t-2 5t-5 2zM197 91l-32 -32q-2 -2 -2 -5t2 -5t5 -2t5 2l31 32q3 2 3 5t-2 5t-5 2t-5 -2z" />
</svg>