<svg viewBox="0 0 1024 1024" xmlns="http://www.w3.org/2000/svg">
  <path transform="scale(1, -1) translate(0, -960)" fill="currentColor" d="M728 763h-86v77q0 4 -1.5 6.5t-3.5 4.5l-71 71q-2 3 -4.5 4.5t-6.5 1.5h-158q-7 0 -11.5 -4.5t-4.5 -11.5v-149h-87q-36 0 -61 -25t-25 -61v-624q0 -36 25 -60.5t61 -24.5h434q36 0 60.5 25t24.5 60v624q1 36 -24 61t-61 25v0zM413 896h136l62 -62v-189h-198v251v0z M782 53q0 -22 -15.5 -37.5t-36.5 -15.5h-434q-22 0 -38 15.5t-16 37.5v624q0 21 15.5 37.5t38.5 16.5h86v-102q0 -7 4.5 -11.5t11.5 -4.5h229q7 0 11.5 4.5t4.5 11.5v102h87q21 0 36.5 -15.5t15.5 -38.5v-624zM662 509h-300q-8 0 -12 -4.5t-4 -11.5t4 -11.5t12 -4.5h300 q8 0 12 4.5t4 11.5t-4 11.5t-12 4.5zM402 358h-4q-7 0 -11.5 -4t-4.5 -12q0 -7 4.5 -11.5t11.5 -4.5h4q7 0 11.5 4.5t4.5 11.5q0 8 -5 12t-11 4zM402 243h-4q-7 0 -11.5 -4.5t-4.5 -11.5t4.5 -11.5t11.5 -4.5h4q7 0 11.5 4.5t4.5 11.5t-5 11.5t-11 4.5zM514 358h-4 q-7 0 -11.5 -4t-4.5 -12q0 -7 4.5 -11.5t11.5 -4.5h4q7 0 11.5 4.5t4.5 11.5q0 8 -4.5 12t-11.5 4zM514 243h-4q-7 0 -11.5 -4.5t-4.5 -11.5t4.5 -11.5t11.5 -4.5h4q7 0 11.5 4.5t4.5 11.5t-4.5 11.5t-11.5 4.5zM626 358h-4q-7 0 -11.5 -4t-4.5 -12q0 -7 4.5 -11.5 t11.5 -4.5h4q7 0 11.5 4.5t4.5 11.5q0 8 -4.5 12t-11.5 4zM626 243h-4q-7 0 -11.5 -4.5t-4.5 -11.5t4.5 -11.5t11.5 -4.5h4q7 0 11.5 4.5t4.5 11.5t-4.5 11.5t-11.5 4.5zM402 130h-4q-7 0 -11.5 -4.5t-4.5 -11.5q0 -8 4.5 -12t11.5 -4h4q7 0 11.5 4t4.5 12q0 7 -5 11.5 t-11 4.5zM514 130h-4q-7 0 -11.5 -4.5t-4.5 -11.5q0 -8 4.5 -12t11.5 -4h4q7 0 11.5 4t4.5 12q0 7 -4.5 11.5t-11.5 4.5zM626 130h-4q-7 0 -11.5 -4.5t-4.5 -11.5q0 -8 4.5 -12t11.5 -4h4q7 0 11.5 4t4.5 12q0 7 -4.5 11.5t-11.5 4.5z" />
</svg>