<svg viewBox="0 0 1024 1024" xmlns="http://www.w3.org/2000/svg">
  <path transform="scale(1, -1) translate(0, -960)" fill="currentColor" d="M771 928h-518q-36 0 -62 -26t-26 -62v-786q0 -36 26 -62t62 -26h517q36 0 62 26t26 62v786q0 36 -25.5 62t-61.5 26zM826 56q0 -23 -17 -39.5t-39 -16.5h-517q-23 0 -39.5 16.5t-16.5 39.5v784q0 23 16.5 39.5t39.5 16.5h517q22 0 39 -16.5t17 -39.5v-784zM674 794h-324 q-7 0 -11.5 -4.5t-4.5 -11.5v-228q0 -7 4.5 -11.5t11.5 -4.5h325q7 0 11.5 4.5t4.5 11.5v228q-1 6 -5.5 11t-11.5 5v0zM658 566h-292v196h293v-196h-1zM366 405h-4q-8 0 -12 -4.5t-4 -11.5t4 -11.5t12 -4.5h4q8 0 12 4.5t4 11.5t-4 11.5t-12 4.5zM366 274h-4q-8 0 -12 -4.5 t-4 -11.5q0 -8 4 -12t12 -4h4q8 0 12 4t4 12q0 7 -4 11.5t-12 4.5zM514 405h-5q-7 0 -11.5 -4.5t-4.5 -11.5t4.5 -11.5t11.5 -4.5h5q7 0 11.5 4.5t4.5 11.5t-4.5 11.5t-11.5 4.5zM514 274h-5q-7 0 -11.5 -4.5t-4.5 -11.5q0 -8 4.5 -12t11.5 -4h5q7 0 11.5 4t4.5 12 q0 7 -4.5 11.5t-11.5 4.5zM662 405h-4q-8 0 -12 -4.5t-4 -11.5t4 -11.5t12 -4.5h4q8 0 12 4.5t4 11.5t-5 11.5t-11 4.5zM662 274h-4q-8 0 -12 -4.5t-4 -11.5q0 -8 4 -12t12 -4h4q8 0 12 4t4 12q0 7 -5 11.5t-11 4.5zM366 130h-4q-8 0 -12 -4.5t-4 -11.5q0 -8 4 -12t12 -4h4 q8 0 12 4t4 12q0 7 -4 11.5t-12 4.5zM514 130h-5q-7 0 -11.5 -4.5t-4.5 -11.5q0 -8 4.5 -12t11.5 -4h5q7 0 11.5 4t4.5 12q0 7 -4.5 11.5t-11.5 4.5zM662 130h-4q-8 0 -12 -4.5t-4 -11.5q0 -8 4 -12t12 -4h4q8 0 12 4t4 12q0 7 -5 11.5t-11 4.5z" />
</svg>