<svg viewBox="0 0 256 256" xmlns="http://www.w3.org/2000/svg">
  <path transform="scale(1, -1) translate(0, -256)" fill="currentColor" d="M182 210h-18v16q0 3 -2 5l-18 18q-2 2 -5 2h-39q-3 0 -5.5 -2t-2.5 -5v-34h-18q-10 0 -17 -7.5t-7 -17.5v-156q0 -10 7 -17t17 -7h108q11 0 18 7t7 17v156q-1 10 -8 17.5t-17 7.5zM106 237h30l14 -14v-43h-44v57zM192 29q0 -4 -3 -7t-7 -3h-108q-4 0 -7 3t-3 7v156 q0 4 3 7.5t7 3.5h18v-23q0 -3 2.5 -5t5.5 -2h57q3 0 5 2t2 5v23h18q5 0 8 -3.5t3 -7.5v-156h-1zM166 146h-76q-3 0 -5 -2t-2 -5t2 -5t5 -2h76q3 0 5 2t2 5t-2 5t-5 2zM100 108v0q-3 0 -5.5 -2t-2.5 -5t2.5 -5t5.5 -2v0q3 0 5.5 2t2.5 5t-2.5 5t-5.5 2zM100 80v0 q-3 0 -5.5 -2t-2.5 -5t2.5 -5t5.5 -2v0q3 0 5.5 2t2.5 5t-2.5 5t-5.5 2zM128 108v0q-3 0 -5.5 -2t-2.5 -5t2.5 -5t5.5 -2v0q3 0 5.5 2t2.5 5t-2.5 5t-5.5 2zM128 80v0q-3 0 -5.5 -2t-2.5 -5t2.5 -5t5.5 -2v0q3 0 5.5 2t2.5 5t-2.5 5t-5.5 2zM156 108v0q-3 0 -5.5 -2t-2.5 -5 t2.5 -5t5.5 -2v0q3 0 5.5 2t2.5 5t-2.5 5t-5.5 2zM156 80v0q-3 0 -5.5 -2t-2.5 -5t2.5 -5t5.5 -2v0q3 0 5.5 2t2.5 5t-2.5 5t-5.5 2zM100 51v0q-3 0 -5.5 -2t-2.5 -5t2.5 -5t5.5 -2v0q3 0 5.5 2t2.5 5t-2.5 5t-5.5 2zM128 51v0q-3 0 -5.5 -2t-2.5 -5t2.5 -5t5.5 -2v0 q3 0 5.5 2t2.5 5t-2.5 5t-5.5 2zM156 51v0q-3 0 -5.5 -2t-2.5 -5t2.5 -5t5.5 -2v0q3 0 5.5 2t2.5 5t-2.5 5t-5.5 2z" />
</svg>