<svg viewBox="0 0 1024 1024" xmlns="http://www.w3.org/2000/svg">
  <path transform="scale(1, -1) translate(0, -960)" fill="currentColor" d="M827 928h-630q-34 0 -57 -23t-23 -57v-800q0 -34 23 -57t57 -23h632q33 0 56.5 23t23.5 57v800q-1 34 -24.5 57t-57.5 23zM875 48q0 -20 -13.5 -34t-34.5 -14h-630q-21 0 -34.5 14t-13.5 34v800q0 20 13.5 34t34.5 14h632q20 0 34 -14t14 -34v-800h-2zM312 574h402 q20 0 34 14t14 34v127q0 20 -14 34t-34 14h-402q-20 0 -34 -14t-14 -34v-127q0 -20 14 -34t34 -14zM296 749q0 7 4.5 11.5t11.5 4.5h402q7 0 11.5 -4.5t4.5 -11.5v-127q0 -7 -4.5 -11.5t-11.5 -4.5h-402q-7 0 -11.5 4.5t-4.5 11.5v127zM307 490h-19q-13 0 -23.5 -10 t-10.5 -24v-18q0 -13 10 -23t24 -10h18q13 0 23 9.5t10 23.5v18q0 14 -9.5 24t-22.5 10v0zM307 322h-19q-13 0 -23.5 -10t-10.5 -24v-18q0 -13 10 -23t24 -10h18q13 0 23 9.5t10 23.5v18q0 14 -9.5 24t-22.5 10v0zM307 152h-19q-13 0 -23.5 -9.5t-10.5 -24.5v-17 q0 -13 10 -23.5t24 -10.5h18q13 0 23 9.5t10 24.5v17q0 15 -9.5 24.5t-22.5 9.5v0zM450 490h-18q-13 0 -23.5 -10t-10.5 -24v-18q0 -13 10 -23t24 -10h18q13 0 23 9.5t10 23.5v18q0 14 -10 24t-23 10zM450 322h-18q-13 0 -23.5 -10t-10.5 -24v-18q0 -13 10 -23t24 -10h18 q13 0 23 9.5t10 23.5v18q0 14 -10 24t-23 10zM450 152h-18q-13 0 -23.5 -9.5t-10.5 -24.5v-17q0 -13 10 -23.5t24 -10.5h18q13 0 23 9.5t10 24.5v17q0 15 -10 24.5t-23 9.5zM592 490h-18q-13 0 -23 -10t-10 -24v-18q0 -13 9.5 -23t23.5 -10h18q13 0 23.5 9.5t10.5 23.5v18 q0 14 -10 24t-24 10zM592 322h-18q-13 0 -23 -10t-10 -24v-18q0 -13 9.5 -23t23.5 -10h18q13 0 23.5 9.5t10.5 23.5v18q0 14 -10 24t-24 10zM592 152h-18q-13 0 -23 -9.5t-10 -24.5v-17q0 -13 9.5 -23.5t23.5 -10.5h18q13 0 23.5 9.5t10.5 24.5v17q0 15 -10 24.5t-24 9.5z M736 490h-18q-13 0 -23 -10t-10 -24v-18q0 -13 9.5 -23t23.5 -10h18q13 0 23.5 9.5t10.5 23.5v18q-2 14 -11.5 24t-22.5 10zM736 322h-18q-13 0 -23 -10t-10 -24v-18q0 -13 9.5 -23t23.5 -10h18q13 0 23.5 9.5t10.5 23.5v18q-2 14 -11.5 24t-22.5 10zM736 152h-18 q-13 0 -23 -9.5t-10 -24.5v-17q0 -13 9.5 -23.5t23.5 -10.5h18q13 0 23.5 9.5t10.5 24.5v17q-2 15 -11.5 24.5t-22.5 9.5z" />
</svg>