<svg viewBox="0 0 256 256" xmlns="http://www.w3.org/2000/svg">
  <path transform="scale(1, -1) translate(0, -256)" fill="currentColor" d="M207 251h-158q-9 0 -16 -6.5t-7 -16.5v-200q0 -10 7 -16.5t16 -6.5h158q10 0 16.5 6.5t6.5 16.5v200q0 10 -7 16.5t-16 6.5zM216 28q0 -4 -2.5 -6.5t-6.5 -2.5h-158q-3 0 -6 2.5t-3 6.5v200q0 4 2.5 6.5t6.5 2.5h158q4 0 6.5 -2.5t2.5 -6.5v-200zM178 218h-100 q-6 0 -10.5 -4.5t-4.5 -10.5v-32q0 -6 4.5 -10.5t10.5 -4.5h100q7 0 11.5 4.5t4.5 10.5v32q-1 6 -5.5 10.5t-10.5 4.5zM179 172q0 -2 -1 -2h-100q-1 0 -1 2v31q0 1 1 1h100q2 0 2 -1v-31h-1zM77 138h-5q-3 0 -5.5 -2t-2.5 -6v-4q0 -4 2 -6.5t6 -2.5h4q4 0 6.5 2.5t2.5 6.5v4 q0 4 -2.5 6t-5.5 2zM77 96h-5q-3 0 -5.5 -2t-2.5 -6v-4q0 -4 2 -6.5t6 -2.5h4q4 0 6.5 2.5t2.5 6.5v4q0 4 -2.5 6t-5.5 2zM77 54h-5q-3 0 -5.5 -2.5t-2.5 -5.5v-5q0 -3 2 -5.5t6 -2.5h4q4 0 6.5 2.5t2.5 5.5v5q0 3 -2.5 5.5t-5.5 2.5zM112 138h-4q-3 0 -5.5 -2t-2.5 -6v-4 q0 -4 2 -6.5t6 -2.5h4q4 0 6.5 2.5t2.5 6.5v4q0 4 -2.5 6t-6.5 2zM112 96h-4q-3 0 -5.5 -2t-2.5 -6v-4q0 -4 2 -6.5t6 -2.5h4q4 0 6.5 2.5t2.5 6.5v4q0 4 -2.5 6t-6.5 2zM112 54h-4q-3 0 -5.5 -2.5t-2.5 -5.5v-5q0 -3 2 -5.5t6 -2.5h4q4 0 6.5 2.5t2.5 5.5v5q0 3 -2.5 5.5 t-6.5 2.5zM148 138h-4q-4 0 -6.5 -2t-2.5 -6v-4q0 -4 2.5 -6.5t6.5 -2.5h4q3 0 5.5 2.5t2.5 6.5v4q0 4 -2 6t-6 2zM148 96h-4q-4 0 -6.5 -2t-2.5 -6v-4q0 -4 2.5 -6.5t6.5 -2.5h4q3 0 5.5 2.5t2.5 6.5v4q0 4 -2 6t-6 2zM148 54h-4q-4 0 -6.5 -2.5t-2.5 -5.5v-5 q0 -3 2.5 -5.5t6.5 -2.5h4q3 0 5.5 2.5t2.5 5.5v5q0 3 -2 5.5t-6 2.5zM184 138h-4q-4 0 -6.5 -2t-2.5 -6v-4q0 -4 2.5 -6.5t6.5 -2.5h4q3 0 5.5 2.5t2.5 6.5v4q0 4 -2.5 6t-5.5 2zM184 96h-4q-4 0 -6.5 -2t-2.5 -6v-4q0 -4 2.5 -6.5t6.5 -2.5h4q3 0 5.5 2.5t2.5 6.5v4 q0 4 -2.5 6t-5.5 2zM184 54h-4q-4 0 -6.5 -2.5t-2.5 -5.5v-5q0 -3 2.5 -5.5t6.5 -2.5h4q3 0 5.5 2.5t2.5 5.5v5q0 3 -2.5 5.5t-5.5 2.5z" />
</svg>