<svg viewBox="0 0 1024 1024" xmlns="http://www.w3.org/2000/svg">
  <path transform="scale(1, -1) translate(0, -960)" fill="currentColor" d="M730 693h-66v219q0 7 -4.5 11.5t-11.5 4.5h-272q-7 0 -11.5 -4.5t-4.5 -11.5v-219h-66q-32 0 -55 -23t-23 -56v-566q0 -32 23 -55t55 -23h436q32 0 55 23t23 55v565q1 33 -22.5 56.5t-55.5 23.5v0zM632 693h-136v203h136v-203zM392 896h72v-203h-72v203zM778 46 q0 -19 -14 -32.5t-33 -13.5h-437q-19 0 -32.5 13.5t-13.5 32.5v567q0 19 13.5 32.5t32.5 13.5h436q19 0 32.5 -13.5t13.5 -32.5v-567h2zM384 232h-5q-7 0 -11.5 -4.5t-4.5 -11.5t4.5 -11.5t11.5 -4.5h5q7 0 11.5 4.5t4.5 11.5t-5 11.5t-11 4.5zM384 115h-5q-7 0 -11.5 -4.5 t-4.5 -11.5t4.5 -11.5t11.5 -4.5h5q7 0 11.5 4.5t4.5 11.5t-5 11.5t-11 4.5zM514 232h-5q-7 0 -11.5 -4.5t-4.5 -11.5t4.5 -11.5t11.5 -4.5h5q7 0 11.5 4.5t4.5 11.5t-4.5 11.5t-11.5 4.5zM514 115h-5q-7 0 -11.5 -4.5t-4.5 -11.5t4.5 -11.5t11.5 -4.5h5q7 0 11.5 4.5 t4.5 11.5t-4.5 11.5t-11.5 4.5zM645 232h-5q-7 0 -11.5 -4.5t-4.5 -11.5t4.5 -11.5t11.5 -4.5h5q7 0 11.5 4.5t4.5 11.5t-5 11.5t-11 4.5zM645 115h-5q-7 0 -11.5 -4.5t-4.5 -11.5t4.5 -11.5t11.5 -4.5h5q7 0 11.5 4.5t4.5 11.5t-5 11.5t-11 4.5zM581 574h-139 q-33 0 -56 -23t-23 -55v-74q0 -32 23 -55t56 -23h139q32 0 55 23t23 55v74q1 31 -22 54.5t-56 23.5zM629 421q0 -19 -13.5 -33t-33.5 -14h-139q-19 0 -32.5 14t-13.5 33v73q0 20 13.5 33.5t32.5 13.5h139q20 0 33.5 -13.5t13.5 -33.5v-73z" />
</svg>