<svg viewBox="0 0 256 256" xmlns="http://www.w3.org/2000/svg">
  <path transform="scale(1, -1) translate(0, -256)" fill="currentColor" d="M193 251h-130q-10 0 -17.5 -7.5t-7.5 -17.5v-196q0 -11 7.5 -18t17.5 -7h129q11 0 18 7t7 18v196q0 10 -7 17.5t-17 7.5zM204 30q0 -5 -3.5 -8t-7.5 -3h-130q-4 0 -7.5 3.5t-3.5 7.5v196q0 5 3.5 8t7.5 3h129q5 0 8 -3.5t3 -7.5v-196h1zM168 217h-80q-3 0 -5.5 -2 t-2.5 -5v-57q0 -3 2.5 -5t5.5 -2h81q3 0 5 2t2 5v57q0 3 -2.5 5t-5.5 2zM162 161h-68v42h68v-42zM92 120h-2q-3 0 -5 -2t-2 -5t2 -5t5 -2h2q3 0 5 2t2 5t-2 5t-5 2zM92 87h-2q-3 0 -5 -2t-2 -5t2 -5t5 -2h2q3 0 5 2t2 5t-2 5t-5 2zM128 120h-1q-3 0 -5 -2t-2 -5t2 -5t5 -2h1 q3 0 5.5 2t2.5 5t-2.5 5t-5.5 2zM128 87h-1q-3 0 -5 -2t-2 -5t2 -5t5 -2h1q3 0 5.5 2t2.5 5t-2.5 5t-5.5 2zM166 120h-2q-3 0 -5 -2t-2 -5t2 -5t5 -2h2q3 0 5 2t2 5t-2 5t-5 2zM166 87h-2q-3 0 -5 -2t-2 -5t2 -5t5 -2h2q3 0 5 2t2 5t-2 5t-5 2zM92 52h-2q-3 0 -5 -2.5 t-2 -5.5t2 -5t5 -2h2q3 0 5 2t2 5t-2 5.5t-5 2.5zM128 52h-1q-3 0 -5 -2.5t-2 -5.5t2 -5t5 -2h1q3 0 5.5 2t2.5 5t-2.5 5.5t-5.5 2.5zM166 52h-2q-3 0 -5 -2.5t-2 -5.5t2 -5t5 -2h2q3 0 5 2t2 5t-2 5.5t-5 2.5z" />
</svg>