<svg viewBox="0 0 256 256" xmlns="http://www.w3.org/2000/svg">
  <path transform="scale(1, -1) translate(0, -256)" fill="currentColor" d="M182 192h-13v52q0 3 -2 5t-5 2h-68q-3 0 -5.5 -2t-2.5 -5v-52h-13q-9 0 -16 -6.5t-7 -16.5v-141q0 -10 7 -16.5t16 -6.5h109q9 0 15.5 6.5t6.5 16.5v141q1 10 -5.5 16.5t-16.5 6.5zM155 192h-28v45h28v-45zM101 237h12v-45h-12v45zM191 28q0 -4 -2.5 -6.5t-6.5 -2.5h-108 q-4 0 -6.5 2.5t-2.5 6.5v141q0 4 2.5 6.5t6.5 2.5h108q4 0 6.5 -2.5t2.5 -6.5v-141zM96 77h-1q-3 0 -5 -2t-2 -5t2 -5.5t5 -2.5h1q3 0 5 2.5t2 5.5t-2 5t-5 2zM96 48h-1q-3 0 -5 -2.5t-2 -5.5t2 -5t5 -2h1q3 0 5 2t2 5t-2 5.5t-5 2.5zM128 77h-1q-3 0 -5 -2t-2 -5t2 -5.5 t5 -2.5h1q3 0 5.5 2.5t2.5 5.5t-2.5 5t-5.5 2zM128 48h-1q-3 0 -5 -2.5t-2 -5.5t2 -5t5 -2h1q3 0 5.5 2t2.5 5t-2.5 5.5t-5.5 2.5zM161 77h-1q-3 0 -5 -2t-2 -5t2 -5.5t5 -2.5h1q3 0 5 2.5t2 5.5t-2 5t-5 2zM161 48h-1q-3 0 -5 -2.5t-2 -5.5t2 -5t5 -2h1q3 0 5 2t2 5t-2 5.5 t-5 2.5zM145 162h-35q-9 0 -15.5 -6.5t-6.5 -15.5v-19q0 -9 6.5 -16t15.5 -7h35q10 0 16.5 7t6.5 16v19q0 9 -6.5 15.5t-16.5 6.5zM154 121q0 -3 -2.5 -6t-6.5 -3h-35q-3 0 -5.5 3t-2.5 6v19q0 3 2.5 5.5t5.5 2.5h35q4 0 6.5 -2.5t2.5 -5.5v-19z" />
</svg>