<svg viewBox="0 0 256 256" xmlns="http://www.w3.org/2000/svg">
  <path transform="scale(1, -1) translate(0, -256)" fill="currentColor" d="M228 214h-25v12q0 3 -2 5t-5 2t-5.5 -2t-2.5 -5v-12h-121v12q0 3 -2 5t-5 2t-5 -2t-2 -5v-12h-25q-10 0 -16.5 -6.5t-6.5 -16.5v-145q0 -10 6.5 -16.5t16.5 -6.5h200q10 0 16.5 6.5t6.5 16.5v146q0 9 -6.5 15.5t-16.5 6.5zM28 200h25v-10q0 -3 2 -5.5t5 -2.5t5.5 2.5 t2.5 5.5v10h121v-10q0 -3 2 -5.5t5 -2.5t5.5 2.5t2.5 5.5v10h24q4 0 6.5 -2.5t2.5 -6.5v-30h-218v30q0 4 2.5 6.5t6.5 2.5zM228 37h-200q-4 0 -6.5 3t-2.5 6v101h218v-101q0 -3 -2.5 -6t-6.5 -3zM202 127h-9q-4 0 -4 -4v-9q0 -4 4 -4h9q4 0 4 4v9q0 2 -1.5 3t-2.5 1zM98 127 h-9q-4 0 -4 -4v-9q0 -4 4 -4h9q4 0 4 4v9q0 2 -1 3t-3 1zM132 127h-8q-4 0 -4 -4v-9q0 -4 4 -4h8q4 0 4 4v9q0 4 -4 4zM167 127h-9q-4 0 -4 -4v-9q0 -4 4 -4h9q4 0 4 4v9q0 4 -4 4zM202 100h-9q-4 0 -4 -4v-8q0 -4 4 -4h9q4 0 4 4v8q0 2 -1.5 3t-2.5 1zM64 100h-9 q-4 0 -4 -4v-8q0 -4 4 -4h9q4 0 4 4v8q0 2 -1.5 3t-2.5 1zM98 100h-9q-4 0 -4 -4v-8q0 -4 4 -4h9q4 0 4 4v8q0 2 -1 3t-3 1zM132 100h-8q-4 0 -4 -4v-8q0 -4 4 -4h8q4 0 4 4v8q0 4 -4 4zM167 100h-9q-4 0 -4 -4v-8q0 -4 4 -4h9q4 0 4 4v8q0 4 -4 4zM64 74h-9q-4 0 -4 -4v-9 q0 -4 4 -4h9q4 0 4 4v9q0 1 -1.5 2.5t-2.5 1.5zM98 74h-9q-4 0 -4 -4v-9q0 -4 4 -4h9q4 0 4 4v9q0 1 -1 2.5t-3 1.5zM132 74h-8q-4 0 -4 -4v-9q0 -4 4 -4h8q4 0 4 4v9q0 4 -4 4zM167 74h-9q-4 0 -4 -4v-9q0 -4 4 -4h9q4 0 4 4v9q0 4 -4 4z" />
</svg>