<svg viewBox="0 0 256 256" xmlns="http://www.w3.org/2000/svg">
  <path transform="scale(1, -1) translate(0, -256)" fill="currentColor" d="M225 230h-21v12q0 3 -2 5t-5 2t-5 -2t-2 -5v-12h-124v12q0 3 -2.5 5t-5.5 2t-4.5 -2t-1.5 -5v-12h-21q-11 0 -18.5 -8t-7.5 -18v-116q0 -10 7.5 -18t18.5 -8h90q3 0 5 2t2 5t-2 5t-5 2h-90q-5 0 -8.5 3.5t-3.5 8.5v74h218v-46q0 -3 2 -5t5 -2t5 2t2 5v88q0 10 -7.5 18 t-18.5 8zM19 176v28q0 5 3.5 8.5t9.5 3.5h20v-6q0 -3 2 -5.5t5 -2.5t5 2.5t2 5.5v6h124v-6q0 -3 2.5 -5.5t5.5 -2.5t5 2.5t2 5.5v6h21q5 0 8.5 -3.5t3.5 -8.5v-28h-219zM196 109q-21 0 -36 -15t-15 -36t15 -36t36 -15t35.5 15t14.5 36t-14.5 36t-35.5 15zM196 22 q-16 0 -26.5 10.5t-10.5 26t10.5 26t26 10.5t26 -10.5t10.5 -26t-10.5 -26t-25.5 -10.5zM208 65h-25q-3 0 -5 -2t-2 -5t2 -5t5 -2h25q3 0 5.5 2t2.5 5t-2.5 5t-5.5 2z" />
</svg>