<svg viewBox="0 0 1024 1024" xmlns="http://www.w3.org/2000/svg">
  <path transform="scale(1, -1) translate(0, -960)" fill="currentColor" d="M896 781h-93v59q0 7 -4.5 11.5t-11.5 4.5t-11.5 -4.5t-4.5 -11.5v-58h-518v58q0 7 -4.5 11.5t-11.5 4.5t-11.5 -4.5t-4.5 -11.5v-58h-93q-40 0 -68 -28t-28 -68v-548q0 -40 28 -68t68 -28h768q40 0 68 28t28 68v547q0 39 -28 67.5t-68 28.5v0zM128 749h93v-37 q0 -7 4.5 -11.5t11.5 -4.5t11.5 4.5t4.5 11.5v37h517v-37q0 -7 4 -11.5t12 -4.5q7 0 11.5 4.5t4.5 11.5v37h94q26 0 45 -19t19 -45v-117h-896v117q0 26 19 45t45 19v0zM896 72h-768q-26 0 -45 19t-19 45v400h896v-400q0 -26 -19 -45t-45 -19zM640 408l-158 -158l-63 62 q-5 5 -11 5t-11 -5t-5 -11.5t5 -10.5l73 -74q3 -2 6 -3.5t6 -1.5q2 0 5 1.5t6 3.5l169 170q5 4 5 10.5t-5 11.5q-4 5 -10.5 5t-11.5 -5v0z" />
</svg>