<svg viewBox="0 0 256 256" xmlns="http://www.w3.org/2000/svg">
  <path transform="scale(1, -1) translate(0, -256)" fill="currentColor" d="M228 214h-24v12q0 3 -2.5 5t-5.5 2t-5 -2t-2 -5v-12h-123v12q0 3 -2 5t-5 2t-5 -2t-2 -5v-12h-24q-10 0 -16.5 -6.5t-6.5 -16.5v-145q0 -10 6.5 -16.5t16.5 -6.5h200q10 0 16.5 6.5t6.5 16.5v145q0 10 -6.5 16.5t-16.5 6.5zM19 142h40v-46h-40v46zM73 142h48v-46h-48v46z M121 82v-45h-48v45h48zM135 82h48v-45h-48v45zM135 96v46h48v-46h-48zM197 142h40v-46h-40v46zM28 200h24v-11q0 -3 2.5 -5t5.5 -2t5 2t2 5v11h123v-11q0 -3 2 -5t5 -2t5 2t2 5v11h24q4 0 6.5 -2.5t2.5 -6.5v-35h-218v35q0 4 2.5 6.5t6.5 2.5zM19 46v36h40v-45h-31 q-4 0 -6.5 2.5t-2.5 6.5zM228 37h-31v45h40v-36q0 -4 -2.5 -6.5t-6.5 -2.5z" />
</svg>