<svg viewBox="0 0 256 256" xmlns="http://www.w3.org/2000/svg">
  <path transform="scale(1, -1) translate(0, -256)" fill="currentColor" d="M224 214h-20v12q0 3 -2.5 5t-5.5 2t-5 -2t-2 -5v-12h-123v12q0 3 -2 5t-5 2t-5 -2t-2 -5v-12h-20q-11 0 -19 -7.5t-8 -19.5v-137q0 -11 8 -19t19 -8h192q11 0 19 8t8 19v137q0 12 -8 19.5t-19 7.5zM32 200h20v-6q0 -3 2.5 -5t5.5 -2t5 2t2 5v6h123v-6q0 -3 2 -5t5 -2t5 2 t2 5v6h20q5 0 9 -3.5t4 -9.5v-26h-218v26q0 6 4 9.5t9 3.5zM224 37h-192q-5 0 -9 4t-4 9v97h218v-97q0 -5 -4 -9t-9 -4zM158 120l-38 -38l-13 14q-2 2 -5 2t-5 -2t-2 -5t2 -5l18 -18q2 -2 5 -2t5 2l42 42q2 2 2 5t-2 5t-4.5 2t-4.5 -2z" />
</svg>