<svg viewBox="0 0 256 256" xmlns="http://www.w3.org/2000/svg">
  <path transform="scale(1, -1) translate(0, -256)" fill="currentColor" d="M225 230h-21v12q0 3 -2 5t-5 2t-5 -2t-2 -5v-12h-124v12q0 3 -2.5 5t-5.5 2t-4.5 -2t-1.5 -5v-12h-21q-11 0 -18.5 -8t-7.5 -18v-116q0 -10 7.5 -18t18.5 -8h127q-1 -5 -1 -8q0 -19 14 -33t33 -14t33 14t14 33q0 8 -3 16q3 6 3 10v124q0 10 -7.5 18t-18.5 8zM31 216h21 v-6q0 -3 2 -5.5t5 -2.5t5 2.5t2 5.5v6h124v-6q0 -3 2.5 -5.5t5.5 -2.5t5 2.5t2 5.5v6h21q5 0 8.5 -3.5t3.5 -8.5v-28h-219v28q0 5 3.5 8.5t8.5 3.5zM31 76q-5 0 -8.5 3.5t-3.5 8.5v74h218v-74q-14 13 -33 13q-13 0 -24 -6.5t-17 -18.5h-132zM204 22q-14 0 -23.5 9.5t-9.5 23 t10 23t23.5 9.5t23 -9.5t9.5 -23t-9.5 -23t-23.5 -9.5zM192 130h9q4 0 4 4v8q0 4 -4 4h-9q-4 0 -4 -4v-8q0 -2 1.5 -3t2.5 -1zM98 146h-9q-4 0 -4 -4v-8q0 -4 4 -4h9q4 0 4 4v8q0 2 -1 3t-3 1zM132 146h-8q-4 0 -4 -4v-8q0 -4 4 -4h8q4 0 4 4v8q0 4 -4 4zM167 146h-9 q-4 0 -4 -4v-8q0 -4 4 -4h9q4 0 4 4v8q0 4 -4 4zM64 115h-9q-4 0 -4 -4v-9q0 -4 4 -4h9q4 0 4 4v9q0 2 -1.5 3t-2.5 1zM98 115h-9q-4 0 -4 -4v-9q0 -4 4 -4h9q4 0 4 4v9q0 2 -1 3t-3 1zM132 115h-8q-4 0 -4 -4v-9q0 -4 4 -4h8q4 0 4 4v9q0 4 -4 4zM167 115h-9q-4 0 -4 -4v-9 q0 -4 4 -4h9q4 0 4 4v9q0 4 -4 4zM217 57h-8v7q0 3 -2 5t-5 2t-5 -2t-2 -5v-14q0 -5 5 -6q2 -1 3 -1h14q3 0 5 2t2 5t-2 5t-5 2z" />
</svg>