<svg viewBox="0 0 1024 1024" xmlns="http://www.w3.org/2000/svg">
  <path transform="scale(1, -1) translate(0, -960)" fill="currentColor" d="M912 782h-112v56q0 8 -4.5 12t-11.5 4t-11.5 -4t-4.5 -12v-57h-512v57q0 8 -4.5 12t-11.5 4t-11.5 -4t-4.5 -12v-57h-112q-34 0 -57 -23.5t-23 -56.5v-581q0 -34 23 -57t57 -23h800q34 0 57 23t23 57v582q0 33 -23 56.5t-57 23.5zM112 750h112v-54q0 -7 4.5 -11.5 t11.5 -4.5t11.5 4.5t4.5 11.5v54h512v-54q0 -7 4.5 -11.5t11.5 -4.5t11.5 4.5t4.5 11.5v54h112q20 0 34 -13.5t14 -34.5v-132h-896v132q0 20 14 34t34 14zM912 74h-800q-20 0 -34 13.5t-14 34.5v416h896v-416q0 -21 -14 -34.5t-34 -13.5zM806 445h-35q-7 0 -11.5 -4.5 t-4.5 -11.5v-35q0 -8 4.5 -12t11.5 -4h35q8 0 12 4t4 12v35q0 7 -5 11.5t-11 4.5zM392 445h-35q-7 0 -11.5 -4.5t-4.5 -11.5v-35q0 -8 4.5 -12t11.5 -4h35q7 0 11.5 4t4.5 12v35q0 7 -5 11.5t-11 4.5zM530 445h-36q-7 0 -11.5 -4.5t-4.5 -11.5v-35q0 -8 4.5 -12t11.5 -4h36 q7 0 11.5 4t4.5 12v35q0 7 -4.5 11.5t-11.5 4.5zM667 445h-35q-7 0 -11.5 -4.5t-4.5 -11.5v-35q0 -8 4.5 -12t11.5 -4h35q7 0 11.5 4t4.5 12v35q0 7 -4.5 11.5t-11.5 4.5zM806 338h-35q-7 0 -11.5 -4.5t-4.5 -11.5v-36q0 -7 4.5 -11.5t11.5 -4.5h35q8 0 12 4.5t4 11.5v36 q0 7 -5 11.5t-11 4.5zM254 338h-35q-7 0 -11.5 -4.5t-4.5 -11.5v-36q0 -7 4.5 -11.5t11.5 -4.5h35q8 0 12 4.5t4 11.5v36q0 7 -5 11.5t-11 4.5v0zM392 338h-35q-7 0 -11.5 -4.5t-4.5 -11.5v-36q0 -7 4.5 -11.5t11.5 -4.5h35q7 0 11.5 4.5t4.5 11.5v36q0 7 -5 11.5t-11 4.5z M530 338h-36q-7 0 -11.5 -4.5t-4.5 -11.5v-36q0 -7 4.5 -11.5t11.5 -4.5h36q7 0 11.5 4.5t4.5 11.5v36q0 7 -4.5 11.5t-11.5 4.5zM667 338h-35q-7 0 -11.5 -4.5t-4.5 -11.5v-36q0 -7 4.5 -11.5t11.5 -4.5h35q7 0 11.5 4.5t4.5 11.5v36q0 7 -4.5 11.5t-11.5 4.5zM254 230h-35 q-7 0 -11.5 -4t-4.5 -12v-35q0 -7 4.5 -11.5t11.5 -4.5h35q8 0 12 4.5t4 11.5v35q0 8 -5 12t-11 4v0zM392 230h-35q-7 0 -11.5 -4t-4.5 -12v-35q0 -7 4.5 -11.5t11.5 -4.5h35q7 0 11.5 4.5t4.5 11.5v35q0 8 -5 12t-11 4zM530 230h-36q-7 0 -11.5 -4t-4.5 -12v-35 q0 -7 4.5 -11.5t11.5 -4.5h36q7 0 11.5 4.5t4.5 11.5v35q0 8 -4.5 12t-11.5 4zM667 230h-35q-7 0 -11.5 -4t-4.5 -12v-35q0 -7 4.5 -11.5t11.5 -4.5h35q7 0 11.5 4.5t4.5 11.5v35q0 8 -4.5 12t-11.5 4z" />
</svg>