<svg viewBox="0 0 1024 1024" xmlns="http://www.w3.org/2000/svg">
  <path transform="scale(1, -1) translate(0, -960)" fill="currentColor" d="M899 843h-94v59q0 8 -4.5 12t-11.5 4t-11.5 -4t-4.5 -12v-59h-520v59q0 8 -4.5 12t-11.5 4t-11.5 -4t-4.5 -12v-59h-96q-39 0 -66 -27t-27 -66v-460q0 -39 27 -66t66 -27h360q7 0 11.5 4.5t4.5 11.5t-4.5 11.5t-11.5 4.5h-360q-25 0 -43 17.5t-18 43.5v308h896v-195 q0 -7 4.5 -11.5t11.5 -4.5t11.5 4.5t4.5 11.5v347q0 39 -27 66t-66 27v0zM64 630v120q0 26 18 43.5t43 17.5h94v-38q0 -7 4.5 -11.5t11.5 -4.5t11.5 4.5t4.5 11.5v38h520v-38q0 -7 4.5 -11.5t11.5 -4.5t11.5 4.5t4.5 11.5v38h95q25 0 42.5 -17.5t17.5 -43.5v-120h-894z M782 360q-79 0 -134.5 -55.5t-55.5 -134.5q0 -80 55.5 -135.5t134.5 -55.5q80 0 135.5 55.5t55.5 133.5q0 39 -15 74t-41 61t-61 42q-35 15 -74 15zM782 10q-66 0 -112 46.5t-46 111.5q0 66 47 112t111 46q66 0 112.5 -46.5t46.5 -111.5t-47 -111.5t-112 -46.5zM834 184 h-103q-7 0 -11.5 -4.5t-4.5 -11.5t4.5 -11.5t11.5 -4.5h103q7 0 11.5 4.5t4.5 11.5t-5 11.5t-11 4.5z" />
</svg>