<svg viewBox="0 0 256 256" xmlns="http://www.w3.org/2000/svg">
  <path transform="scale(1, -1) translate(0, -256)" fill="currentColor" d="M71 105h-13q-4 0 -4 -4v-13q0 -4 4 -4h13q4 0 4 4v13q0 4 -4 4zM114 105h-14q-4 0 -4 -4v-13q0 -4 4 -4h14q4 0 4 4v13q0 2 -1.5 3t-2.5 1zM156 105h-14q-4 0 -4 -4v-13q0 -4 4 -4h14q4 0 4 4v13q0 4 -4 4zM198 105h-13q-4 0 -4 -4v-13q0 -4 4 -4h13q4 0 4 4v13q0 2 -1 3 t-3 1zM71 63h-13q-4 0 -4 -4v-13q0 -4 4 -4h13q4 0 4 4v13q0 4 -4 4zM114 63h-14q-4 0 -4 -4v-13q0 -4 4 -4h14q4 0 4 4v13q0 2 -1.5 3t-2.5 1zM156 63h-14q-4 0 -4 -4v-13q0 -4 4 -4h14q4 0 4 4v13q0 4 -4 4zM198 63h-13q-4 0 -4 -4v-13q0 -4 4 -4h13q4 0 4 4v13q0 2 -1 3 t-3 1zM228 194h-94v13q7 2 11.5 8t4.5 14t-6.5 14.5t-15.5 6.5t-15.5 -6.5t-6.5 -14.5t4.5 -14t11.5 -8v-13h-94q-9 0 -15.5 -6.5t-6.5 -15.5v-144q0 -9 6.5 -15.5t15.5 -6.5h200q9 0 15.5 6.5t6.5 15.5v144q0 9 -6.5 15.5t-15.5 6.5zM118 228q0 4 3 7t7 3t7 -3t3 -7t-3 -7 t-7 -3t-7 3t-3 7zM28 182h200q4 0 7 -3t3 -7v-30h-220v30q0 4 3 7t7 3zM228 18h-200q-4 0 -7 3t-3 7v102h220v-102q0 -4 -3 -7t-7 -3z" />
</svg>