<svg viewBox="0 0 1024 1024" xmlns="http://www.w3.org/2000/svg">
  <path transform="scale(1, -1) translate(0, -960)" fill="currentColor" d="M285 355h-53q-7 0 -11.5 -4.5t-4.5 -11.5v-51q0 -7 4.5 -11.5t11.5 -4.5h53q7 0 11.5 4.5t4.5 11.5v51q0 7 -4.5 11.5t-11.5 4.5zM454 355h-52q-8 0 -12 -4.5t-4 -11.5v-51q0 -7 4 -11.5t12 -4.5h52q8 0 12 4.5t4 11.5v51q0 7 -5 11.5t-11 4.5zM622 355h-52 q-8 0 -12 -4.5t-4 -11.5v-51q0 -7 4 -11.5t12 -4.5h52q8 0 12 4.5t4 11.5v51q0 7 -4 11.5t-12 4.5zM792 355h-53q-7 0 -11.5 -4.5t-4.5 -11.5v-51q0 -7 4.5 -11.5t11.5 -4.5h53q7 0 11.5 4.5t4.5 11.5v51q0 7 -5 11.5t-11 4.5zM285 189h-53q-7 0 -11.5 -4.5t-4.5 -11.5v-51 q0 -8 4.5 -12t11.5 -4h53q7 0 11.5 4t4.5 12v51q0 7 -4.5 11.5t-11.5 4.5zM454 189h-52q-8 0 -12 -4.5t-4 -11.5v-51q0 -8 4 -12t12 -4h52q8 0 12 4t4 12v51q0 7 -5 11.5t-11 4.5zM622 189h-52q-8 0 -12 -4.5t-4 -11.5v-51q0 -8 4 -12t12 -4h52q8 0 12 4t4 12v51 q0 7 -4 11.5t-12 4.5zM792 189h-53q-7 0 -11.5 -4.5t-4.5 -11.5v-51q0 -8 4.5 -12t11.5 -4h53q7 0 11.5 4t4.5 12v51q0 7 -5 11.5t-11 4.5zM912 702h-384v68q28 6 47 27.5t19 50.5q0 32 -24 56t-58 24t-58 -23t-24 -57q0 -29 18.5 -50.5t47.5 -27.5v-68h-384q-34 0 -57 -23 t-23 -57v-574q0 -34 23 -57t57 -23h800q34 0 57 23t23 57v574q0 34 -23 57t-57 23zM462 848q0 19 15 33.5t35 14.5t35 -14t15 -34t-15 -34t-35 -14t-35 14.5t-15 33.5zM112 670h800q20 0 34 -13.5t14 -34.5v-126h-896v126q0 21 14 34.5t34 13.5zM912 0h-800q-20 0 -34 14 t-14 34v416h896v-416q0 -20 -14 -34t-34 -14z" />
</svg>