<svg viewBox="0 0 1024 1024" xmlns="http://www.w3.org/2000/svg">
  <path transform="scale(1, -1) translate(0, -960)" fill="currentColor" d="M912 781h-109v59q0 7 -4.5 11.5t-11.5 4.5t-11.5 -4.5t-4.5 -11.5v-58h-518v58q0 7 -4.5 11.5t-11.5 4.5t-11.5 -4.5t-4.5 -11.5v-58h-109q-34 0 -57 -23t-23 -57v-580q0 -34 23 -57t57 -23h800q34 0 57 23t23 57v579q0 33 -23 56.5t-57 23.5v0zM64 515h184v-206h-184 v206v0zM280 515h216v-206h-216v206v0zM496 278v-204h-216v204h216v0zM528 278h216v-204h-216v204v0zM528 310v205h216v-206h-216v1zM776 515h184v-206h-184v206v0zM112 749h109v-56q0 -7 4.5 -11.5t11.5 -4.5t11.5 4.5t4.5 11.5v56h517v-56q0 -7 4 -11.5t12 -4.5 q7 0 11.5 4.5t4.5 11.5v56h110q20 0 34 -14t14 -34v-154h-896v154q0 20 14 34t34 14v0zM64 120v157h184v-205h-136q-20 0 -34 14.5t-14 33.5zM912 72h-136v206h184v-156q0 -21 -14 -35.5t-34 -14.5v0z" />
</svg>