<svg viewBox="0 0 1024 1024" xmlns="http://www.w3.org/2000/svg">
  <path transform="scale(1, -1) translate(0, -960)" fill="currentColor" d="M899 843h-94v59q0 8 -4.5 12t-11.5 4t-11.5 -4t-4.5 -12v-59h-520v59q0 8 -4.5 12t-11.5 4t-11.5 -4t-4.5 -12v-59h-96q-39 0 -66 -27t-27 -66v-460q0 -39 27 -66t66 -27h521l-4 -22t-2 -21q0 -72 51.5 -124t124.5 -52t124.5 51t51.5 125q0 18 -3.5 34.5t-10.5 32.5 q6 8 10 17.5t4 20.5v491q0 39 -27 66t-66 27v0zM125 811h94v-38q0 -7 4.5 -11.5t11.5 -4.5t11.5 4.5t4.5 11.5v38h520v-38q0 -7 4.5 -11.5t11.5 -4.5t11.5 4.5t4.5 11.5v38h95q25 0 42.5 -17.5t17.5 -43.5v-120h-894v120q0 26 18 43.5t43 17.5zM816 10q-59 0 -101.5 42 t-42.5 102t42 102t102 42q59 0 101.5 -42t42.5 -102t-42 -102t-102 -42zM816 328q-52 0 -94.5 -28t-63.5 -71h-533q-25 0 -43 17.5t-18 43.5v308h896v-337v-2.5v-2.5q-24 32 -62 52t-82 20v0zM806 522h-35q-7 0 -11.5 -4.5t-4.5 -11.5v-36q0 -7 4.5 -11.5t11.5 -4.5h35 q8 0 12 4.5t4 11.5v36q0 7 -5 11.5t-11 4.5zM392 522h-35q-7 0 -11.5 -4.5t-4.5 -11.5v-36q0 -7 4.5 -11.5t11.5 -4.5h35q7 0 11.5 4.5t4.5 11.5v36q0 7 -5 11.5t-11 4.5zM530 522h-36q-7 0 -11.5 -4.5t-4.5 -11.5v-36q0 -7 4.5 -11.5t11.5 -4.5h36q7 0 11.5 4.5t4.5 11.5 v36q0 7 -4.5 11.5t-11.5 4.5zM667 522h-35q-7 0 -11.5 -4.5t-4.5 -11.5v-36q0 -7 4.5 -11.5t11.5 -4.5h35q7 0 11.5 4.5t4.5 11.5v36q0 7 -4.5 11.5t-11.5 4.5zM254 395h-35q-7 0 -11.5 -4.5t-4.5 -11.5v-35q0 -7 4.5 -11.5t11.5 -4.5h35q8 0 12 4.5t4 11.5v35q0 7 -5 11.5 t-11 4.5v0zM392 395h-35q-7 0 -11.5 -4.5t-4.5 -11.5v-35q0 -7 4.5 -11.5t11.5 -4.5h35q7 0 11.5 4.5t4.5 11.5v35q0 7 -5 11.5t-11 4.5zM530 395h-36q-7 0 -11.5 -4.5t-4.5 -11.5v-35q0 -7 4.5 -11.5t11.5 -4.5h36q7 0 11.5 4.5t4.5 11.5v35q0 7 -4.5 11.5t-11.5 4.5z M667 395h-35q-7 0 -11.5 -4.5t-4.5 -11.5v-35q0 -7 4.5 -11.5t11.5 -4.5h35q7 0 11.5 4.5t4.5 11.5v35q0 7 -4.5 11.5t-11.5 4.5zM867 152h-41v40q0 7 -4.5 11.5t-11.5 4.5q-8 0 -12 -4.5t-4 -11.5v-54q0 -6 3 -10t8 -5q1 -1 3 -1h5h54q7 0 11.5 4t4.5 12q0 7 -4.5 10.5 t-11.5 3.5z" />
</svg>