<svg viewBox="0 0 256 256" xmlns="http://www.w3.org/2000/svg">
  <path transform="scale(1, -1) translate(0, -256)" fill="currentColor" d="M228 213h-25v11q0 3 -2 5t-5 2t-5.5 -2t-2.5 -5v-11h-121v11q0 3 -2 5t-5 2t-5 -2t-2 -5v-11h-25q-10 0 -16.5 -7t-6.5 -16v-142q0 -9 6.5 -16t16.5 -7h200q10 0 16.5 7t6.5 16v142q0 9 -6.5 16t-16.5 7zM28 199h25v-11q0 -3 2 -5t5 -2t5.5 2t2.5 5v11h122v-11q0 -3 2 -5 t5 -2t5 2t2 5v11h24q4 0 6.5 -3t2.5 -6v-30h-218v30q0 3 2.5 6t6.5 3zM228 40h-200q-4 0 -6.5 2.5t-2.5 6.5v98h218v-98q0 -4 -2.5 -6.5t-6.5 -2.5zM132 116q-7 4 -13 0l-10 -7q-3 -1 -3.5 -4t1 -5.5t4.5 -3t5 1.5l8 5v-31q0 -3 2.5 -5.5t5.5 -2.5t5 2.5t2 5.5v34 q-1 7 -7 10z" />
</svg>