<svg viewBox="0 0 1024 1024" xmlns="http://www.w3.org/2000/svg">
  <path transform="scale(1, -1) translate(0, -960)" fill="currentColor" d="M968 629q-12 12 -27 18t-32 6h-112q-13 0 -22.5 9.5t-9.5 22.5v70q0 30 -19.5 35t-28.5 5h-415q-9 0 -26.5 -5t-17.5 -35v-70q0 -13 -9.5 -22.5t-22.5 -9.5h-109q-35 0 -60 -25t-25 -60v-386q0 -34 25 -59t60 -25h790q35 0 60 25t25 59v386q0 18 -6 33.5t-18 27.5v0z M960 184q0 -22 -15.5 -37.5t-37.5 -15.5h-790q-22 0 -37.5 15.5t-15.5 37.5v386q0 21 15.5 36.5t37.5 15.5h110q27 0 45.5 19t18.5 45v71q0 5 1 6.5l1 1.5q1 1 5 1h6h413q12 0 14 -1.5t2 -6.5v-70q0 -26 18.5 -45t45.5 -19h112q11 0 20 -4t17 -12q7 -7 11.5 -16.5t4.5 -20.5 zM506 558q-56 0 -95.5 -39.5t-39.5 -96.5q0 -56 39 -94t96 -38q55 0 94.5 38.5t39.5 93.5q0 56 -40 96t-94 40v0zM506 322q-44 0 -73.5 29t-29.5 71q0 44 30.5 74t72.5 30t72 -31t30 -73q0 -40 -30 -70t-72 -30zM200 542q-19 0 -33.5 -13.5t-14.5 -34.5q0 -19 14 -33.5 t34 -14.5t34 14t14 34q0 21 -14 34.5t-34 13.5z" />
</svg>