<svg viewBox="0 0 256 256" xmlns="http://www.w3.org/2000/svg">
  <path transform="scale(1, -1) translate(0, -256)" fill="currentColor" d="M250 203q-3 8 -9 10l-13 5q-5 7 -14 7h-8q-9 0 -15 -5t-8 -13l-6 -21q-1 -2 -3 -4t-4.5 -2.5t-4.5 0.5v0q-2 1 -3 4l-8 12q-3 6 -7.5 7.5t-10.5 1.5l-3 6q-3 7 -9.5 11.5t-14.5 4.5t-13.5 -4t-9.5 -11q-4 7 -8 10q-6 5 -14 5t-14 -4.5t-10 -11.5l-10 -19l-5 -7 q-9 -9 -15 -22t-6 -27v-88q0 -7 5.5 -12.5t13.5 -5.5t13.5 5.5t5.5 12.5v37q0 7 3 15q2 6 7 16l1 3q12 -7 26.5 -8.5t30.5 1.5l7 2q5 -8 5 -10v-55q0 -8 5.5 -13.5t13 -5.5t13 5.5t5.5 13.5v54l5 15q2 2 11 3v1q13 3 21 6q12 6 19 16q9 13 9 33l12 1q6 1 11 8q2 3 3 8 q2 4 0 9zM237 196q0 -2 -1 -4v0l-14 -1q-5 0 -7.5 -3.5t-2.5 -7.5q0 -17 -5 -26t-15 -13q-6 -3 -18 -6v0q-10 -2 -15 -4t-6 -7l-4 -12q-2 -6 -2 -11v-53q0 -2 -1.5 -3t-3.5 -1t-3.5 1t-1.5 3v56q0 6 -6 16l-2 4q-2 4 -8 4q-3 0 -13 -2v0q-30 -7 -50 7q-6 4 -9.5 1t-4.5 -5 l-4 -7q-5 -11 -7 -18q-3 -11 -3 -19v-37q0 -2 -1.5 -3t-3.5 -1t-3.5 1t-1.5 3v88q0 11 4 22q3 8 12 18l6 9l11 19q2 5 5 6.5t6.5 1.5t5.5 -1.5t6 -7.5l4 -8q3 -3 7.5 -2.5t7.5 4.5l1 2q4 8 6.5 10.5t6.5 2.5t7 -2t5 -6l1 -1q3 -5 5 -8q4 -4 9 -4h5q1 0 2 -3l7 -11 q5 -7 10 -10q4 -1 9 -1q8 0 14 4t8 12l6 22q0 3 3.5 5t5.5 2h10l2 -2q3 -4 6 -5l13 -4v-1v-3z" />
</svg>