<svg viewBox="0 0 1024 1024" xmlns="http://www.w3.org/2000/svg">
  <path transform="scale(1, -1) translate(0, -960)" fill="currentColor" d="M968 638q-12 12 -27 18t-32 6h-112q-13 0 -22.5 9.5t-9.5 22.5v71q0 30 -19.5 35t-28.5 5h-415q-9 0 -26.5 -5t-17.5 -35v-71q0 -13 -9.5 -22.5t-22.5 -9.5h-109q-35 0 -60 -25t-25 -59v-405q0 -35 25 -60t60 -25h790q35 0 60 25t25 60v405q0 18 -6 33t-18 27v0zM960 174 q0 -21 -15.5 -36.5t-37.5 -15.5h-790q-22 0 -37.5 15.5t-15.5 36.5v405q0 22 15.5 37.5t37.5 15.5h110q27 0 45.5 19t18.5 45v70q0 5 1 6.5l1 1.5q1 2 5 2h6h413q12 0 14 -1.5t2 -6.5v-70q0 -27 18.5 -45.5t45.5 -18.5h112q11 0 20 -4t17 -12q7 -8 11.5 -17t4.5 -20l-2 -407 v0zM506 678q-51 0 -95 -19q-45 -19 -78 -52.5t-53 -78.5q-19 -45 -19 -96t19 -95t52 -76.5t77 -51.5q45 -19 97 -19q50 0 95 19q44 20 77.5 52.5t52.5 76.5t19 94t-20 95q-20 44 -53.5 78t-77.5 54q-44 19 -93 19v0zM506 221q-45 0 -84 16q-38 16 -67 44.5t-46 66.5 q-16 39 -16 82q0 45 17 84q16 39 45 68t68 46t83 17q43 0 81 -17q39 -17 68 -46.5t46 -68.5t17 -83q0 -43 -17 -81t-46 -66.5t-67 -45.5q-39 -16 -82 -16v0zM512 520q-8 5 -17.5 6.5t-17.5 1.5q-15 0 -28.5 -5t-24.5 -16q-12 -11 -18 -25t-6 -29q0 -17 6 -33t18 -28l66 -66 q4 -4 10 -6.5t12 -2.5t12 2.5t10 6.5l69 69q11 11 17 26t6 30q0 16 -6 30t-17 26q-19 18 -44 21.5t-47 -8.5v0zM579 418l-67 -68l-67 66q-7 7 -11.5 17t-3.5 20q0 9 4 17.5t11 14.5q6 6 14 9.5t16 3.5v0v0q7 0 13.5 -2.5t12.5 -5.5q3 -3 8.5 -3t8.5 3q14 9 31 8t29 -13 q7 -7 10.5 -15.5t3.5 -18.5q1 -9 -2.5 -17.5t-10.5 -15.5z" />
</svg>