<svg viewBox="0 0 256 256" xmlns="http://www.w3.org/2000/svg">
  <path transform="scale(1, -1) translate(0, -256)" fill="currentColor" d="M244 175q-7 7 -17 7h-28q-2 0 -3.5 1.5t-1.5 3.5v18q0 13 -15 13h-103q-14 0 -14 -13v-18q0 -2 -1.5 -3.5t-3.5 -1.5h-28q-10 0 -17 -7t-7 -17v-96q0 -10 7 -17t17 -7h198q10 0 17 7t7 17v96q0 10 -7 17zM237 62q0 -4 -3 -7t-7 -3h-198q-4 0 -7 3t-3 7v96q0 5 3 7.5 t7 2.5h28q8 0 13.5 5.5t5.5 13.5v17h104v-17q0 -8 5.5 -13.5t13.5 -5.5h28q3 0 6.5 -2.5t3.5 -7.5v-96zM126 159q-15 0 -25.5 -11t-10.5 -26t10.5 -25.5t26 -10.5t26 10.5t10.5 25.5t-11 26t-26 11zM126 100q-9 0 -15.5 6t-6.5 16t6.5 16.5t16 6.5t16 -7t6.5 -16t-6.5 -15.5 t-16.5 -6.5zM50 152q-5 0 -8.5 -3.5t-3.5 -8.5t3.5 -8.5t8.5 -3.5t8.5 3t3.5 8.5t-3.5 9t-8.5 3.5z" />
</svg>