<svg viewBox="0 0 256 256" xmlns="http://www.w3.org/2000/svg">
  <path transform="scale(1, -1) translate(0, -256)" fill="currentColor" d="M244 178q-7 7 -17 7h-28q-2 0 -3.5 1.5t-1.5 3.5v17q0 13 -15 13h-103q-14 0 -14 -13v-17q0 -2 -1.5 -3.5t-3.5 -1.5h-28q-10 0 -17 -7t-7 -17v-101q0 -10 7 -17t17 -7h198q10 0 17 7t7 17v101q0 9 -7 17zM237 60q0 -5 -3 -7.5t-7 -2.5h-198q-4 0 -7 2.5t-3 7.5v101 q0 4 3 7t7 3h28q8 0 13.5 5.5t5.5 13.5v16h104v-16q0 -8 5.5 -13.5t13.5 -5.5h28q3 0 6.5 -3t3.5 -7v-101zM126 189q-17 0 -31.5 -9t-23.5 -23.5t-9 -32.5t8.5 -32.5t23.5 -23t32.5 -8.5t32 8.5t23 23.5t8.5 32t-8.5 32t-23.5 24t-32 9zM126 74q-21 0 -35.5 14.5t-14.5 35.5 t14.5 36t35.5 15q13 0 24.5 -7t18.5 -18.5t7 -25.5q0 -20 -14.5 -35t-35.5 -15zM128 150q-4 1 -9 1q-9 0 -15.5 -6t-6.5 -16t7 -17l16 -16q3 -4 7.5 -4t8.5 4l17 17q7 7 7 16t-7 16q-5 5 -12 6t-13 -1zM143 122l-15 -14l-14 14q-3 3 -3 7t2.5 6.5t5 2.5t6 -2.5t6.5 0t6 2 t5.5 -3t2.5 -5.5t-2 -7z" />
</svg>