<svg viewBox="0 0 256 256" xmlns="http://www.w3.org/2000/svg">
  <path transform="scale(1, -1) translate(0, -256)" fill="currentColor" d="M230 186v8q0 8 -5.5 13.5t-13.5 5.5h-18q-8 0 -13.5 -5.5t-5.5 -13.5v-7h-18v4q0 12 -8 20t-20 8h-42q-11 0 -19.5 -8t-8.5 -20v-4h-24q-12 0 -20 -8t-8 -20v-94q0 -12 8 -20t20 -8h189q12 0 20 8t8 20v95q0 9 -6 16.5t-15 9.5zM188 194q0 2 1.5 4t3.5 2h18q2 0 3.5 -2 t1.5 -4v-6h-28v6zM34 174h32q3 0 5 2t2 5v10q0 6 4 10t10 4h42q6 0 10 -4t4 -10v-10q0 -3 2 -5t5 -2h74q5 0 9.5 -4.5t4.5 -9.5v-20h-86q-5 11 -16 17.5t-23.5 6.5t-23 -6.5t-16.5 -17.5h-53v20q0 5 4 9.5t10 4.5zM113 86q-13 0 -22.5 9.5t-9.5 22.5t9.5 22.5t22.5 9.5 t22 -9.5t9 -22.5t-9 -22.5t-22 -9.5zM158 126h79v-25h-82q3 9 3 17v7v1zM71 101h-51v25h48q-1 -5 -1 -8q0 -9 4 -17zM223 51h-189q-6 0 -10 4t-4 10v22h60q13 -14 32.5 -14t33.5 14h91v-22q0 -6 -4 -10t-10 -4z" />
</svg>