<svg viewBox="0 0 1024 1024" xmlns="http://www.w3.org/2000/svg">
  <path transform="scale(1, -1) translate(0, -960)" fill="currentColor" d="M891 675h-137l-36 71q-13 25 -36.5 40.5t-52.5 15.5h-234q-29 0 -52.5 -15t-36.5 -41l-36 -71h-137q-42 0 -71.5 -29.5t-29.5 -71.5v-379q0 -42 29.5 -71.5t71.5 -29.5h760q42 0 71.5 29.5t29.5 71.5v379q-2 42 -31.5 71.5t-71.5 29.5v0zM960 195q0 -29 -20 -49t-49 -20 h-758q-29 0 -49 20t-20 49v379q0 29 20 49t49 20h147q5 0 8.5 2.5t5.5 7.5l40 80q9 18 25.5 28t35.5 10h234q19 0 35.5 -10t25.5 -28l40 -80q2 -4 5.5 -7t8.5 -3h147q29 0 49 -20t20 -49v-379zM512 549q-59 0 -100.5 -42t-41.5 -101q0 -58 41.5 -100t100.5 -42t100.5 42 t41.5 100q0 59 -41.5 101t-100.5 42zM512 296q-46 0 -78 32.5t-32 77.5q0 46 32 78.5t78 32.5t78 -32.5t32 -78.5q0 -45 -32 -77.5t-78 -32.5zM259 549h-85q-7 0 -11.5 -4.5t-4.5 -11.5t4.5 -11.5t11.5 -4.5h85q7 0 11.5 4.5t4.5 11.5t-5 11.5t-11 4.5z" />
</svg>