<svg viewBox="0 0 256 256" xmlns="http://www.w3.org/2000/svg">
  <path transform="scale(1, -1) translate(0, -256)" fill="currentColor" d="M230 187v11q0 5 -3 8t-8 3h-34q-5 0 -8 -3t-3 -8v-10h-18v4q0 11 -8.5 19.5t-19.5 8.5h-42q-12 0 -20 -8.5t-8 -19.5v-4h-25q-11 0 -19.5 -8.5t-8.5 -19.5v-95q0 -11 8.5 -19.5t19.5 -8.5h190q12 0 20 8.5t8 19.5v95q0 9 -6 16.5t-15 10.5zM188 195h28v-7h-28v7zM237 65 q0 -6 -4 -10t-10 -4h-190q-6 0 -10 4t-4 10v95q0 5 4 9.5t10 4.5h32q3 0 5 2t2 5v10q0 6 4 10t10 4h42q6 0 10 -4t4 -10v-10q0 -3 2 -5t5 -2h74q6 0 10 -4.5t4 -9.5v-95zM112 167q-18 0 -31 -13t-13 -31t13 -31t31 -13t31 12.5t13 31t-13 31.5t-31 13zM112 93q-12 0 -21 8.5 t-9 21t9 21.5t21 9t21 -9t9 -21.5t-8.5 -21t-21.5 -8.5z" />
</svg>