<svg viewBox="0 0 256 256" xmlns="http://www.w3.org/2000/svg">
  <path transform="scale(1, -1) translate(0, -256)" fill="currentColor" d="M238 238q-8 8 -19 11t-23 1l-21 -6q-58 -15 -111 -38l-7 -4q-14 -6 -20 -10q-11 -6 -18 -14t-11 -18.5t-3 -21.5l1 -10q11 -46 43.5 -78.5t78.5 -42.5q9 -2 13 -2q16 0 30 8.5t21 23.5l5 9q11 23 19 44l2 6q17 45 31 100q3 11 0.5 22t-11.5 20zM203 237h8 q11 -2 18.5 -10.5t7.5 -19.5l-1 -7l-4 -18q-11 -37 -17 -56l-7 -17q-21 11 -38.5 28t-29.5 36.5t-17 40.5q0 1 34 11l33 9q9 2 13 3zM200 85l-4 -8l-9 -21q-44 8 -79 42q-20 20 -32.5 43.5t-15.5 46.5l27 12q3 2 10 4l13 5q6 -22 19 -43.5t31.5 -39.5t43.5 -30zM132 20 q-41 9 -71.5 39t-40.5 72q-3 15 3 28.5t19 20.5l4 2q5 -25 18 -49t34 -44q19 -17 40 -28.5t43 -16.5l-1 -1q-7 -14 -20 -20t-28 -3z" />
</svg>