<svg viewBox="0 0 256 256" xmlns="http://www.w3.org/2000/svg">
  <path transform="scale(1, -1) translate(0, -256)" fill="currentColor" d="M242 230l-12 12q-5 5 -12 7.5t-14 1.5q-15 -2 -22 -14l-15 -23q-20 7 -40.5 2t-34.5 -20l-32 -32q-11 -10 -16.5 -23.5t-5.5 -28.5q0 -13 4 -24l-22 -14q-12 -8 -14 -22.5t9 -25.5l12 -12q9 -10 22 -10h3q7 1 13 4.5t10 9.5l15 23q11 -3 23 -3q14 0 28 5.5t24 15.5l31 31 q11 11 16.5 24.5t5.5 28.5q0 13 -4 23l22 14q6 4 10 10.5t4.5 13.5t-1.5 14t-7 12zM63 27q-5 -7 -13.5 -7.5t-13.5 4.5l-12 12q-6 6 -5 14t8 13l21 13q5 -10 12 -17t16 -12zM70 70q-9 8 -13.5 19t-4.5 23t4.5 23t13.5 20l7 7q5 -3 13 -5h1q4 -1 6.5 -2t5.5 -4t4.5 -5.5 t1.5 -7.5v0l3 -9q2 -5 7 -10t9.5 -7t9.5 -3t7.5 -2t5.5 -4t4.5 -5.5t1.5 -6.5v-1q2 -8 5 -13l-7 -7q-12 -12 -27.5 -16t-31 0t-26.5 16zM186 102l-14 -14q-1 2 -1 6v1q-2 5 -3 8q-2 6 -7 11t-9.5 6.5t-9 2.5t-7.5 2t-6 4t-4 5.5t-2 7.5v0q-1 6 -3 9q-2 5 -7 10t-9.5 7 t-9.5 2.5t-7 1.5l14 14q18 18 43 18t42.5 -17.5t17.5 -42.5q0 -12 -4.5 -23t-13.5 -19zM229 193l-21 -13q-5 10 -12 16.5t-16 11.5l13 21q5 7 13 8t14 -5l12 -12q6 -6 5 -14t-8 -13z" />
</svg>