<svg viewBox="0 0 256 256" xmlns="http://www.w3.org/2000/svg">
  <path transform="scale(1, -1) translate(0, -256)" fill="currentColor" d="M243 227l-16 16q-4 4 -9 6t-11 2q-11 -1 -19 -10l-23 -28q-26 11 -54 6t-48.5 -25.5t-25.5 -48.5t6 -54l-28 -23q-9 -8 -9.5 -19.5t7.5 -19.5l16 -16q8 -8 19 -8h1q11 0 19 9l23 29q17 -8 36 -8t36 7t31 20q20 21 25 49t-6 54l28 23q9 7 9.5 19t-7.5 20zM57 24 q-3 -5 -9 -5t-9 3l-16 16q-4 5 -4 10t5 9l26 22q6 -9 13 -16t16 -13zM184 72q-15 -15 -35.5 -20t-40.5 0t-35 20.5t-20.5 35.5t0 40.5t20.5 35.5q11 11 25.5 17t30 6t29.5 -6t26 -17q15 -15 20 -35.5t0 -40.5t-20 -36zM232 199l-25 -21q-6 9 -13 16t-16 12l21 26q4 5 9.5 5 t9.5 -4l16 -16q4 -4 3 -9.5t-5 -8.5zM105 168q-2 2 -5 2t-5 -2q-11 -11 -14.5 -25.5t0 -29t14.5 -25.5q2 -2 5 -2t5 2.5t2 5t-2 4.5q-12 13 -12.5 30t12.5 30q2 2 2 5t-2 5z" />
</svg>