<svg viewBox="0 0 1024 1024" xmlns="http://www.w3.org/2000/svg">
  <path transform="scale(1, -1) translate(0, -960)" fill="currentColor" d="M928 549h-21v96q36 8 60.5 47.5t24.5 93.5q0 60 -29.5 101t-71.5 41t-71.5 -41t-29.5 -101q0 -54 24 -93.5t61 -47.5v-96h-21q-26 0 -45 -19t-19 -45v-453q0 -26 19 -45t45 -19h74q26 0 45 19t19 45v453q0 26 -19 45t-45 19v0zM824 786q0 44 20.5 77t48.5 33 q26 0 46.5 -33t20.5 -77q0 -45 -20.5 -78t-48.5 -33q-27 0 -47 32.5t-20 78.5zM856 517h72q13 0 22.5 -9.5t9.5 -22.5v-69l-136 -69v138q0 13 9.5 22.5t22.5 9.5v0zM928 0h-72q-13 0 -22.5 9.5t-9.5 22.5v280l136 69v-349q0 -13 -9.5 -22.5t-22.5 -9.5zM232 786 q0 60 -29.5 101t-71.5 41q-41 0 -70 -41t-29 -101q0 -54 24 -93.5t61 -47.5v-96h-21q-26 0 -45 -19t-19 -45v-453q0 -26 19 -45t45 -19h72q26 0 45 19t19 45v453q0 26 -19 45t-45 19h-19v96q36 8 59.5 47.5t23.5 93.5zM168 0h-72q-13 0 -22.5 9.5t-9.5 22.5v69l136 69v-138 q0 -13 -9.5 -22.5t-22.5 -9.5v0zM200 485v-280l-136 -69v349q0 13 9.5 22.5t22.5 9.5h72q13 0 22.5 -9.5t9.5 -22.5zM64 786q0 44 20.5 77t48.5 33q27 0 48 -33t21 -77q0 -45 -21 -78t-48 -33q-28 0 -48.5 32.5t-20.5 78.5v0zM613 786q0 60 -29.5 101t-71.5 41t-71.5 -41 t-29.5 -101q0 -54 24 -93.5t61 -47.5v-96h-21q-26 0 -45 -19t-19 -45v-453q0 -26 19 -45t45 -19h72q27 0 45.5 19t18.5 45v453q0 26 -18.5 45t-45.5 19h-19v96q36 8 60.5 47.5t24.5 93.5v0zM581 485v-453q0 -13 -9.5 -22.5t-22.5 -9.5h-72q-13 0 -22.5 9.5t-9.5 22.5v453 q0 13 9.5 22.5t22.5 9.5h72q13 0 22.5 -9.5t9.5 -22.5zM443 786q0 44 20.5 77t48.5 33t48.5 -33t20.5 -77q0 -45 -20.5 -78t-48.5 -33t-48.5 32.5t-20.5 78.5v0z" />
</svg>