<svg viewBox="0 0 256 256" xmlns="http://www.w3.org/2000/svg">
  <path transform="scale(1, -1) translate(0, -256)" fill="currentColor" d="M227 197q-15 14 -34.5 19.5t-39 1t-34.5 -18.5l-106 -103q-8 -8 -8 -19.5t8.5 -20t20.5 -9t20 7.5l104 103q6 5 14 5t14.5 -5.5t6.5 -13.5t-5 -14l-48 -46q-8 -8 -8 -19.5t9 -20t21 -8.5t19 8l49 47q11 11 16 24.5t5 28.5t-6.5 28.5t-17.5 24.5zM44 65q-4 -4 -10 -3.5 t-10.5 4.5t-4.5 10t4 10l27 26l28 -13zM89 110l-28 13l28 27l29 -13zM171 54q-4 -4 -10 -3.5t-10.5 4.5t-4.5 10t4 9l12 12l29 -13zM220 101l-18 -17l-28 13l24 24q10 9 9.5 23.5t-11.5 24t-24 9t-23 -9.5l-20 -20l-29 13l29 28q12 12 28 15.5t32 -1t29 -16.5q19 -19 19 -44 q0 -12 -4 -22.5t-13 -19.5z" />
</svg>