<svg viewBox="0 0 1024 1024" xmlns="http://www.w3.org/2000/svg">
  <path transform="scale(1, -1) translate(0, -960)" fill="currentColor" d="M965 837l-64 64q-15 14 -33.5 21t-38.5 6q-19 -1 -37 -10t-30 -24l-98 -120q-50 23 -104 30t-107.5 -2t-102.5 -34q-50 -25 -91 -66q-41 -40 -66 -90q-24 -50 -33 -103t-3 -107q7 -55 30 -104l-121 -100q-16 -12 -25 -30t-9 -37q-1 -20 6 -38.5t21 -33.5l64 -64 q13 -13 30.5 -20t36.5 -7h3h2q21 1 38.5 10.5t30.5 24.5l99 122q36 -17 74 -25.5t77 -8.5q68 0 134.5 26.5t119.5 79.5q41 41 66 90q25 50 34 103t2 108q-7 54 -30 104l120 97q16 13 25 31t9 38q0 18 -8 36t-21 33v0zM238 22q-8 -10 -19.5 -16t-24.5 -6q-14 -1 -25.5 4 t-21.5 14l-64 64q-9 9 -14 21.5t-3 26.5q1 13 6.5 24.5t15.5 19.5l115 95q12 -19 25.5 -38t30.5 -36t36 -31t38 -25l-95 -117v0zM282 218q-35 35 -57 77t-31.5 87.5t-5.5 92.5q3 46 20 90l421 -421q-44 -17 -90 -20q-47 -4 -92 5t-88 32q-42 22 -77 57v0zM744 218 q-19 -20 -40.5 -35t-44.5 -26l-0.5 0.5l-0.5 0.5l-437 437q12 23 26.5 44.5t34.5 40.5q18 18 39 33t42 26l440 -440q-11 -21 -26 -42t-33 -39zM818 331l-423 423q29 10 59 16t60 6q62 0 123 -24t109 -72q34 -35 56 -78q22 -42 31 -88t5 -92q-4 -47 -20 -91zM938 722 l-114 -93q-12 20 -25.5 38.5t-30.5 34.5q-17 17 -35.5 31.5t-38.5 24.5l93 114q9 11 20.5 16.5t24.5 5.5q13 2 25.5 -3.5t22.5 -13.5l64 -64q7 -9 11.5 -20.5t4.5 -24.5q-1 -13 -7 -25.5t-15 -20.5v0z" />
</svg>