<svg viewBox="0 0 1024 1024" xmlns="http://www.w3.org/2000/svg">
  <path transform="scale(1, -1) translate(0, -960)" fill="currentColor" d="M890 0h-197v366q0 27 -19 45.5t-45 18.5h-101v104q48 6 82.5 44.5t39.5 93.5q3 43 -11 84q-13 40 -33 73.5t-41 57.5t-32 35q-4 3 -8.5 4t-9.5 -1q-5 -1 -7 -5.5t-2 -9.5q-2 -43 -23.5 -70.5t-44.5 -50.5q-25 -25 -43.5 -51t-18.5 -68q0 -52 35 -91t87 -45v-104h-101 q-27 0 -45.5 -18.5t-18.5 -45.5v-366h-199q-7 0 -11.5 -4.5t-4.5 -11.5t4.5 -11.5t11.5 -4.5h759q7 0 11.5 4.5t4.5 11.5t-6 11.5t-13 4.5v0zM406 672q0 32 14.5 52t38.5 44q21 20 42.5 46t29.5 63q36 -42 63 -95.5t24 -106.5q-5 -48 -34.5 -79t-71.5 -31q-44 1 -75 32 t-31 75zM363 366q0 14 9.5 23t22.5 9h51v-91q0 -11 -7 -18t-18 -7h-32q-11 0 -18.5 7t-7.5 18v59v0zM363 0v258q6 -3 12.5 -5t13.5 -2h32q24 0 40.5 17t16.5 41v91h151q13 0 22.5 -9.5t9.5 -22.5v-368h-298v0z" />
</svg>