<svg viewBox="0 0 256 256" xmlns="http://www.w3.org/2000/svg">
  <path transform="scale(1, -1) translate(0, -256)" fill="currentColor" d="M222 19h-46v89q0 7 -5.5 13t-13.5 6h-22v20q12 3 20.5 13t9.5 24q2 19 -11 41q-8 13 -19 24q-3 3 -7.5 1t-4.5 -6q0 -9 -5 -16q-3 -4 -11 -12v0q-9 -9 -12 -14q-5 -8 -5 -18q0 -14 9 -24.5t22 -12.5v-21h-22q-8 0 -13.5 -5.5t-5.5 -13.5v-89h-46q-3 0 -5.5 -2t-2.5 -5 t2.5 -5t5.5 -2h189q3 0 5 2t2 5t-2.5 5.5t-5.5 2.5zM104 184q0 7 4 12q2 3 9 10q13 12 17 23q8 -10 13 -21.5t4 -22.5t-7.5 -18t-16 -7t-16.5 7t-7 17zM94 108q0 2 1.5 3.5t3.5 1.5h10v-20q0 -1 -1 -2t-3 -1h-8q-1 0 -2 1t-1 2v15zM94 19v57h12q7 0 12 5t5 12v20h35 q2 0 3.5 -1.5t1.5 -3.5v-89h-69z" />
</svg>