<svg viewBox="0 0 256 256" xmlns="http://www.w3.org/2000/svg">
  <path transform="scale(1, -1) translate(0, -256)" fill="currentColor" d="M242 230l-12 12q-11 11 -26.5 9t-22.5 -14l-15 -23q-14 5 -29.5 3.5t-28.5 -8.5v0q-10 -5 -17 -13l-32 -31q-10 -11 -15.5 -24.5t-5.5 -28.5q0 -12 4 -23l-22 -14q-13 -8 -15 -23t9 -26l12 -12q10 -9 22 -9h4q14 1 22 14l15 23q11 -4 23 -4q15 0 28.5 5.5t23.5 16.5 l32 31q11 11 16.5 24.5t5.5 28.5q0 11 -4 23l22 14q6 4 9.5 10t4.5 13q1 16 -8 26zM101 186q2 2 5 4l2 2l46 -123q-9 -8 -19 -12l-44 119zM63 27q-5 -7 -12.5 -8t-14.5 5l-12 12q-6 6 -4.5 14.5t7.5 12.5l21 13q5 -10 12 -17t16 -12zM70 70q-9 8 -13.5 19t-4.5 23t4.5 23 t13.5 19l10 11l42 -112q-14 -2 -28 2t-24 15zM186 101l-21 -21l-44 119q16 7 34 3.5t32 -16.5q8 -8 12.5 -19t4.5 -23t-4.5 -23t-13.5 -20zM229 193l-21 -13q-5 10 -12 16.5t-16 11.5l13 21q5 7 13 8t14 -5l12 -12q6 -6 5 -14q0 -4 -2.5 -7.5t-5.5 -5.5z" />
</svg>