<svg viewBox="0 0 1024 1024" xmlns="http://www.w3.org/2000/svg">
  <path transform="scale(1, -1) translate(0, -960)" fill="currentColor" d="M965 837l-64 64q-15 14 -33.5 21t-38.5 6q-19 -1 -37 -10t-30 -24l-98 -120q-50 23 -104 30t-107.5 -2t-102.5 -34q-50 -25 -91 -66q-41 -40 -66 -90q-24 -50 -33 -103t-3 -107q7 -55 30 -104l-121 -100q-16 -12 -25 -30t-9 -37q-1 -20 6 -38.5t21 -33.5l64 -64 q13 -13 30.5 -20t36.5 -7h3h2q21 1 38.5 10.5t30.5 24.5l99 122q36 -17 74 -25.5t77 -8.5q68 0 134.5 26.5t119.5 79.5q19 19 34.5 40.5t27.5 44.5q4 2 7 5.5t3 8.5v1.5v1.5q34 72 34 151.5t-32 151.5l120 97q15 13 24 31t9 38q-1 18 -9 36t-21 33v0zM238 22 q-8 -10 -19.5 -16t-24.5 -6q-14 -1 -25.5 4t-21.5 14l-64 64q-9 9 -14 21.5t-3 26.5q1 13 6.5 24.5t15.5 19.5l115 95q12 -19 25.5 -38t30.5 -36t36 -31t38 -25l-95 -117v0zM744 218q-48 -48 -108 -72t-123 -24t-123 24t-108 72q-47 46 -71 105t-24.5 120t20.5 120 q22 59 67 107q6 -79 48 -148q43 -70 112.5 -123t161.5 -85t196 -37q-11 -16 -22.5 -30.5t-25.5 -28.5v0zM808 310q-104 2 -196 33t-160.5 83.5t-107.5 121.5q-40 69 -40 148v2.5t-2 2.5q46 38 100 56.5t110 18.5q62 0 123 -24t109 -72q38 -37 61 -83q22 -45 30 -94t1 -98 q-6 -50 -28 -95zM938 722l-114 -93q-12 20 -25.5 38.5t-30.5 34.5q-17 17 -35.5 31.5t-38.5 24.5l93 114q9 11 20.5 16.5t24.5 5.5q13 2 25.5 -3.5t22.5 -13.5l64 -64q7 -9 11.5 -20.5t4.5 -24.5q-1 -13 -7 -25.5t-15 -20.5v0z" />
</svg>