<svg viewBox="0 0 256 256" xmlns="http://www.w3.org/2000/svg">
  <path transform="scale(1, -1) translate(0, -256)" fill="currentColor" d="M243 227l-16 16q-4 4 -9 6t-11 2q-11 -1 -19 -10l-23 -28q-26 11 -54 6t-48.5 -25.5t-25.5 -48.5t6 -54l-28 -23q-9 -8 -9.5 -19.5t7.5 -19.5l16 -16q8 -8 19 -8h1q11 0 19 9l23 29q17 -8 36 -8t36 7t31 20q20 21 25 49t-6 54l28 23q9 7 9.5 19t-7.5 20zM184 184 q16 -16 21 -37.5t-2 -42.5l-99 99q12 4 24 4q16 0 30 -6t26 -17zM57 24q-3 -5 -9 -5t-9 3l-16 16q-4 5 -4 10t5 9l26 22q6 -9 13 -16t16 -13zM72 72q-15 16 -20.5 37.5t1.5 42.5l98 -99q-20 -6 -41.5 -1t-37.5 20zM184 72q-8 -8 -18 -13l-107 107q6 11 13 18t18 13l107 -107 q-5 -9 -13 -18zM232 199l-25 -21q-6 9 -13 16t-16 12l21 26q4 5 9.5 5t9.5 -4l16 -16q4 -4 3 -9.5t-5 -8.5z" />
</svg>