<svg viewBox="0 0 256 256" xmlns="http://www.w3.org/2000/svg">
  <path transform="scale(1, -1) translate(0, -256)" fill="currentColor" d="M232 156h-2v19q9 3 15 13.5t6 23.5q0 17 -8 28t-20 11t-20 -11t-8 -28q0 -13 6 -23.5t15 -13.5v-19h-2q-7 0 -13 -5.5t-6 -13.5v-113q0 -8 5.5 -13.5t13.5 -5.5h18q8 0 13.5 5.5t5.5 13.5v113q0 8 -5.5 13.5t-13.5 5.5zM223 237q5 0 9.5 -7t4.5 -18t-4.5 -18t-10 -7 t-9.5 7t-4 18t4.5 18t9.5 7zM214 142h18q2 0 3.5 -1.5t1.5 -3.5v-15l-28 -14v29q0 2 1.5 3.5t3.5 1.5zM232 19h-18q-2 0 -3.5 1.5t-1.5 3.5v68l28 14v-82q0 -2 -1.5 -3.5t-3.5 -1.5zM61 212q0 17 -8 28t-20 11t-20 -11t-8 -28q0 -13 6 -23.5t15 -13.5v-19h-2 q-8 0 -13.5 -5.5t-5.5 -13.5v-113q0 -8 5.5 -13.5t13.5 -5.5h18q8 0 13.5 5.5t5.5 13.5v113q0 8 -5.5 13.5t-13.5 5.5h-2v19q9 3 15 13.5t6 23.5zM42 19h-18q-2 0 -3.5 1.5t-1.5 3.5v15l28 14v-29q0 -2 -1.5 -3.5t-3.5 -1.5zM47 137v-68l-28 -14v82q0 2 1.5 3.5t3.5 1.5h18 q2 0 3.5 -1.5t1.5 -3.5zM33 237q6 0 10 -7t4 -18t-4.5 -18t-9.5 -7t-9.5 7t-4.5 18t4.5 18t9.5 7zM156 212q0 17 -8 28t-20 11t-20 -11t-8 -28q0 -13 6 -23.5t15 -13.5v-19h-2q-8 0 -13.5 -5.5t-5.5 -13.5v-113q0 -8 5.5 -13.5t13.5 -5.5h18q8 0 13.5 5.5t5.5 13.5v113 q0 8 -5.5 13.5t-13.5 5.5h-2v19q9 3 15 13.5t6 23.5zM142 137v-113q0 -2 -1.5 -3.5t-3.5 -1.5h-18q-2 0 -3.5 1.5t-1.5 3.5v113q0 2 1.5 3.5t3.5 1.5h18q5 0 5 -5zM128 237q5 0 9.5 -7t4.5 -18t-4.5 -18t-9.5 -7t-9.5 7t-4.5 18t4.5 18t9.5 7z" />
</svg>