<svg viewBox="0 0 1024 1024" xmlns="http://www.w3.org/2000/svg">
  <path transform="scale(1, -1) translate(0, -960)" fill="currentColor" d="M901 715q-44 43 -98 65q-55 22 -111 23.5t-110 -18.5q-54 -19 -96 -60l-425 -416q-15 -13 -22 -30.5t-7 -36.5q0 -21 8 -39.5t24 -34.5q30 -30 72 -30.5t70 27.5l420 409q25 26 61.5 26t64.5 -22q16 -14 24 -31t10 -37q0 -18 -6 -33t-18 -27l-192 -186 q-14 -13 -21.5 -30.5t-7.5 -36.5q0 -21 8 -39.5t24 -34.5q15 -15 34.5 -22.5t38.5 -7.5q20 0 37.5 7t31.5 20l195 190q41 40 62 92t20 110q-1 56 -24.5 108.5t-66.5 94.5v0zM184 189q-19 -19 -48 -18t-50 21q-10 11 -16 23.5t-6 26.5q0 13 5 24.5t14 19.5l115 112l138 -62z M360 360l-138 62l133 130l138 -62l-133 -130v0zM693 142q-19 -19 -48 -18t-50 22q-11 10 -16.5 23t-5.5 26t4.5 25t14.5 20l56 54l138 -62l-93 -90v0zM888 333l-78 -77l-138 62l110 108q17 16 26 38t8 46q0 27 -12 50.5t-33 41.5q-37 31 -86 29.5t-83 -34.5l-88 -85l-135 64 l130 126q37 37 85 54q48 18 98 16.5t99 -21.5q48 -20 87 -58q39 -37 60 -84t22 -99q1 -51 -17.5 -96.5t-54.5 -80.5v0z" />
</svg>