<svg viewBox="0 0 1024 1024" xmlns="http://www.w3.org/2000/svg">
  <path transform="scale(1, -1) translate(0, -960)" fill="currentColor" d="M958 848l-48 48q-18 18 -42 27t-49 5q-25 -2 -47 -16t-36 -35l-64 -98q-38 14 -78 17q-40 2 -78.5 -6t-75.5 -27q-36 -19 -66 -49l-126 -127q-41 -41 -62 -92.5t-21 -108.5q0 -26 4.5 -51t12.5 -49l-96 -60q-21 -15 -34.5 -36.5t-16.5 -47.5q-2 -25 6 -49.5t26 -42.5 l48 -48q16 -16 36.5 -25t43.5 -9h6h5q26 2 47.5 16t36.5 35l64 99q22 -8 46 -12t50 -4q55 0 107 21t94 63l47 46v0v0v0v0l80 78q40 41 61.5 92.5t21.5 109.5q0 26 -4.5 51t-13.5 48l96 61q22 14 35.5 36t17.5 47t-6 50t-28 43v0zM262 37q-9 -16 -25 -25.5t-34 -11.5t-35 4.5 t-30 19.5l-48 48q-14 13 -20 30.5t-4 35.5q1 18 11 33.5t25 25.5l93 59q10 -20 23 -38t30 -34q17 -17 36 -30.5t39 -23.5l-61 -93v0zM627 206q-37 -36 -84 -55q-46 -18 -95 -18t-95 18q-47 19 -84 55q-36 36 -55 82t-19 96t19 96.5t55 81.5l37 36q16 -13 31 -18t29 -7 q15 -3 28 -7.5t28 -19.5q16 -16 20.5 -29t7.5 -27q3 -16 8.5 -34t26.5 -38q20 -21 38 -27t34 -9q14 -2 27 -6.5t29 -20.5q15 -15 20 -28t7 -28q2 -13 7 -27.5t19 -31.5l-39 -34v0zM755 333l-67 -67q-8 10 -11.5 21t-4.5 22q-4 15 -9.5 33t-25.5 39q-21 20 -39 26.5t-33 8.5 t-28 7t-28 20q-16 16 -20.5 29t-8.5 27q-4 16 -9.5 34t-25.5 38q-21 21 -39 27t-33 8q-11 3 -22 5.5t-21 10.5l67 68q37 37 83.5 55t95.5 18t95.5 -18t83.5 -55q36 -36 55 -82t19 -96t-19.5 -96.5t-54.5 -82.5zM958 758q-2 -18 -11.5 -33.5t-24.5 -25.5l-93 -57 q-10 19 -23 37t-30 35q-17 16 -36 29.5t-39 22.5l61 93q10 16 26 25.5t34 11.5t35.5 -4.5t30.5 -19.5l48 -48q13 -12 19 -29t3 -37z" />
</svg>