<svg viewBox="0 0 1024 1024" xmlns="http://www.w3.org/2000/svg">
  <path transform="scale(1, -1) translate(0, -960)" fill="currentColor" d="M912 760h-5q17 11 26 28.5t9 38.5q0 31 -31 61t-39 37q-5 3 -9.5 3t-9.5 -3q-9 -7 -40 -37t-31 -61q0 -20 10 -38t26 -29h-5q-27 0 -45.5 -19t-18.5 -45v-286q0 -27 18.5 -45.5t45.5 -18.5h41l-1 -10q-6 -24 -17 -48.5t-41 -50.5q-29 -24 -58.5 -29.5l-29.5 -5.5h-177 v142h33q27 0 45.5 19t18.5 45v288q0 26 -18.5 45t-45.5 19h-6q17 11 26 28.5t9 38.5q0 31 -31 61t-39 37q-5 3 -10 3t-10 -3q-8 -7 -39 -37t-31 -61q0 -20 10 -38t25 -29h-5q-26 0 -45 -19t-19 -45v-286q0 -27 19 -45.5t45 -18.5h34v-143h-8h-100.5h-69.5q-1 0 -30.5 7 t-63.5 40q-23 21 -33.5 51t-14.5 45h37q26 0 45 18.5t19 45.5v286q0 26 -19 45t-45 19h-5q17 11 26 28.5t9 38.5q0 31 -31 61t-39 37q-5 3 -10 3t-9 -3q-10 -7 -41 -37t-31 -61q0 -20 9.5 -38t25.5 -29h-5q-26 0 -45 -19t-19 -45v-286q0 -27 19 -45.5t45 -18.5h30 q3 -12 15.5 -50.5t42.5 -68.5q40 -38 75 -47t40 -9h89.5h81.5h8v-171h-193q-7 0 -11.5 -4.5t-4.5 -11.5t4.5 -11.5t11.5 -4.5h427q7 0 11.5 4.5t4.5 11.5t-4.5 11.5t-11.5 4.5h-198v171h179q2 0 37 6.5t70 36.5t48 60t19 57l3 16h26q26 0 45 19t19 45v285q0 26 -19 45 t-45 19v0zM862 891q17 -14 33.5 -33t16.5 -31q0 -20 -14.5 -34.5t-35.5 -14.5q-20 0 -34.5 14.5t-14.5 34.5q0 12 15.5 31t33.5 33zM512 891q17 -14 33.5 -33t16.5 -31q0 -20 -15 -34.5t-35 -14.5t-35 14.5t-15 34.5q0 12 16.5 31t33.5 33zM430 410v286q0 13 9.5 22.5 t22.5 9.5h101q13 0 22.5 -9.5t9.5 -22.5v-286q0 -14 -9.5 -23t-22.5 -9h-101q-13 0 -22.5 9t-9.5 23v0zM162 891q16 -14 32.5 -33t16.5 -31q0 -20 -14.5 -34.5t-34.5 -14.5q-21 0 -35.5 14.5t-14.5 34.5q1 12 17 31t33 33zM80 410v286q0 13 9.5 22.5t22.5 9.5h101 q13 0 22.5 -9.5t9.5 -22.5v-286q0 -14 -9.5 -23t-22.5 -9h-101q-13 0 -22.5 9t-9.5 23v0zM944 410q0 -14 -9.5 -23t-22.5 -9h-101q-13 0 -22.5 9t-9.5 23v286q0 13 9.5 22.5t22.5 9.5h101q13 0 22.5 -9.5t9.5 -22.5v-286z" />
</svg>