<svg viewBox="0 0 1024 1024" xmlns="http://www.w3.org/2000/svg">
  <path transform="scale(1, -1) translate(0, -960)" fill="currentColor" d="M944 878q-31 32 -72.5 43.5t-84.5 1.5q-21 -5 -43 -10.5t-43 -10.5q-64 -16 -126 -35.5t-121 -40.5l-12 -5q-16 -6 -31.5 -12t-31.5 -12q-30 -12 -59.5 -24.5t-58.5 -25.5q-7 -3 -14.5 -6.5t-14.5 -6.5q-8 -3 -16.5 -6.5t-15.5 -7.5v0v0v0v0l-8 -6q-11 -5 -21 -10.5 t-21 -10.5q-66 -35 -97 -102.5t-15 -140.5q10 -44 26 -85t37 -80t48 -74q27 -36 59 -67q32 -32 68 -59q35 -27 74 -48t81 -37t86 -26q12 -2 24.5 -3t24.5 -1q63 0 115.5 32t80.5 88q3 7 6.5 14t7.5 13v0l5 11q20 43 40.5 89.5t39.5 94.5v0l6 16q17 44 33 90t31 95.5 t30 101.5q14 52 28 108v0q9 42 -2.5 83t-42.5 72v0zM811 894h2.5h4.5h4.5h6.5h2h3h4.5t6.5 -1h2h3t5 -1l6 -2q1 0 2 -0.5t1 -1.5q4 -1 7.5 -2.5t6.5 -2.5q2 0 2 -0.5t2 -0.5q2 -2 4.5 -3t6.5 -2q1 0 2 -0.5t1 -1.5q2 -1 4.5 -3t5.5 -3q1 -1 2 -1.5t1 -1.5q3 -3 6 -5.5 t5 -6.5q25 -25 34 -58t0 -68q-4 -13 -7.5 -27t-7.5 -27q-1 -3 -1.5 -6t-1.5 -6q-2 -10 -5.5 -20t-5.5 -20q-1 -4 -2.5 -8t-2.5 -9q-2 -9 -4.5 -17t-5.5 -17q-1 -5 -2.5 -9.5t-3.5 -9.5q-2 -7 -4.5 -14.5t-5.5 -15.5q-1 -5 -3 -10t-3 -10q-2 -7 -4.5 -14t-5.5 -13 q-1 -5 -3 -9.5t-3 -9.5q-2 -7 -4.5 -13.5t-5.5 -13.5q-1 -5 -3 -9.5t-3 -8.5q-2 -7 -4.5 -13.5t-5.5 -13.5q-1 -5 -3 -9t-3 -9q-1 -4 -3 -8t-3 -8q-46 23 -89 53t-83 67q-37 36 -68 75t-55 80.5t-42 84.5q-17 43 -27 87q10 3 19.5 6t19.5 7q14 4 23.5 8t17.5 6q12 4 24 7.5 t24 6.5l16.5 5.5t15.5 4.5q14 4 28 7.5t27 8.5q7 2 13.5 4t13.5 4q20 6 41.5 11t41.5 10q4 1 8.5 1h7.5v0zM808 270q-4 -8 -7 -16l-6 -16q-2 -4 -3.5 -9t-4.5 -10l-6 -14t-7 -15l-4.5 -9t-4.5 -10q-3 -5 -5 -10.5t-5 -10.5q-44 8 -87 22q-44 15 -86 37t-81 50q-40 28 -77 63 q-42 39 -76 84t-59.5 92.5t-41.5 97.5q-16 49 -21 98q7 4 14 7t13 6q6 4 12.5 6.5t12.5 4.5q9 4 18 8.5t18 7.5q6 3 12 5.5t12 6.5l20 8t21 9q5 3 10.5 5t10.5 3q12 5 23 9t23 9q11 -46 29 -91t43.5 -88t57.5 -83q32 -41 70 -77q42 -40 87.5 -71.5t93.5 -55.5q-3 -9 -7 -18 t-7 -19q0 -3 -1.5 -7.5t-3.5 -8.5v0zM565 0q-10 0 -20.5 1t-21.5 4q-41 9 -81 25q-39 15 -76 35.5t-71 45.5t-65 55q-30 30 -55 64t-45.5 70.5t-35.5 76.5q-16 39 -25 81q-15 62 12 120t84 88q7 3 15 6.5t15 7.5q7 -50 24 -101q17 -50 43.5 -99t61.5 -94q35 -46 78 -87 q37 -35 78 -64q40 -30 83 -52.5t88 -38.5t90 -24q-3 -5 -5 -9.5t-5 -9.5q-24 -47 -68.5 -74t-97.5 -27z" />
</svg>