<svg viewBox="0 0 1024 1024" xmlns="http://www.w3.org/2000/svg">
  <path transform="scale(1, -1) translate(0, -960)" fill="currentColor" d="M958 848l-48 48q-18 18 -42 27t-49 5q-25 -2 -47 -16t-36 -35l-64 -98q-38 14 -78 17q-40 2 -79 -6t-75 -27q-37 -19 -67 -49l-127 -127q-40 -41 -61.5 -92.5t-21.5 -108.5q0 -26 4.5 -51t13.5 -49l-96 -62q-22 -14 -35.5 -36t-15.5 -47q-3 -27 5.5 -51t26.5 -42l48 -48 q15 -16 36 -25t44 -9h5h6q25 3 47 16.5t36 35.5l66 99q22 -9 47 -12.5t49 -3.5q55 0 107 20.5t94 62.5l127 126q40 41 61.5 92.5t21.5 109.5q0 26 -4.5 51t-13.5 48l96 61q22 14 35.5 36t17.5 47q2 27 -6 51t-28 42v0zM262 37q-9 -16 -25 -25.5t-34 -11.5t-35 4.5t-30 19.5 l-48 48q-14 13 -20 30.5t-4 36.5q2 18 11.5 34t24.5 25l93 60q10 -21 23 -39t30 -33q17 -17 36 -30.5t41 -24.5l-63 -94v0zM270 206q-36 36 -54.5 82t-18.5 96t18.5 96.5t54.5 81.5l55 54l177 -480q-61 -11 -123 6.5t-109 63.5zM533 147l-184 496l46 47q10 9 20.5 17.5 t22.5 15.5l189 -512q0 -1 1 -1.5t1 -1.5l-3 -3q-20 -19 -43.5 -33.5t-49.5 -24.5v0zM755 333l-99 -99l-189 505q36 17 74 22t76 -1t73 -24t64 -46q36 -36 54.5 -82t18.5 -96q1 -50 -17.5 -96.5t-54.5 -82.5v0zM960 758q-2 -18 -11.5 -33.5t-25.5 -25.5l-93 -57 q-9 19 -22.5 37t-29.5 35q-17 16 -36 29.5t-40 22.5l61 93q10 16 25.5 25.5t33.5 11.5t35.5 -4.5t30.5 -19.5l48 -48q13 -12 19 -29t5 -37v0z" />
</svg>