<svg viewBox="0 0 256 256" xmlns="http://www.w3.org/2000/svg">
  <path transform="scale(1, -1) translate(0, -256)" fill="currentColor" d="M243 227l-16 16q-4 4 -9 6t-11 2q-11 -1 -19 -10l-23 -28q-26 11 -54 6t-48.5 -25.5t-25.5 -48.5t6 -54l-28 -23q-9 -8 -9.5 -19.5t7.5 -19.5l16 -16q8 -8 19 -8h1q11 0 19 9l23 29q17 -8 36 -8t36 7t31 20q9 9 15 21q3 2 3 6v0q9 18 9 37.5t-8 37.5l28 23q9 7 9.5 19.5 t-7.5 20.5zM184 184q17 -17 21.5 -41t-5.5 -47q-33 1 -60.5 14t-44 34t-16.5 46q22 17 49 17q16 0 30 -6t26 -17zM57 24q-3 -5 -9 -5t-9 3l-16 16q-4 5 -4 10t5 9l26 22q6 -9 13 -16t16 -13zM72 72q-14 14 -19.5 32.5t-2 37.5t15.5 34q4 -24 21.5 -44.5t45 -33.5t59.5 -16 q-4 -6 -8 -10q-15 -15 -35.5 -20t-40.5 0t-36 20zM232 199l-25 -21q-6 9 -13 16t-16 12l21 26q4 5 9.5 5t9.5 -4l16 -16q4 -4 3 -9.5t-5 -8.5z" />
</svg>