<svg viewBox="0 0 256 256" xmlns="http://www.w3.org/2000/svg">
  <path transform="scale(1, -1) translate(0, -256)" fill="currentColor" d="M249 192l-57 57q-3 2 -5.5 2t-4.5 -2t-2.5 -5t2.5 -5l7 -8l-32 -32q-10 -1 -19 -7l-24 24q-2 2 -4.5 2t-5.5 -2l-20 -20q-11 -11 -11 -26t11 -25l14 -15l-30 -30q-4 -4 -4 -10t4 -11l1 -1l-62 -61q-2 -2 -2 -5t2 -5t5 -2t5 2l61 61h1q5 -5 11 -5t11 5l30 30l16 -17 q11 -10 25.5 -10t25.5 10l21 21q2 2 2 5t-2 5l-27 28q3 5 5 12l36 36l6 -6q2 -2 4.5 -2t5 2t2.5 4.5t-2 5.5zM91 78q-1 -1 -2 0l-11 11q-1 1 0 1l30 30l12 -13zM160 137q-10 0 -17 7t-7 17t7 17.5t17 7.5t17 -7.5t7 -17.5t-7 -17t-17 -7zM188 91q-6 -6 -15.5 -6t-15.5 6 l-63 64q-7 6 -7 15.5t7 15.5l15 16l19 -20q-6 -9 -6 -21q0 -16 11 -27.5t27 -11.5q12 0 22 7l22 -22zM197 172q-3 8 -9 14.5t-14 10.5l25 25l24 -24z" />
</svg>