<svg viewBox="0 0 1024 1024" xmlns="http://www.w3.org/2000/svg">
  <path transform="scale(1, -1) translate(0, -960)" fill="currentColor" d="M987 694l-229 229q-4 5 -10.5 5t-11.5 -5t-5 -11t5 -11l38 -39l-140 -140q-23 -2 -44 -10t-38 -21l-104 104q-5 5 -11.5 5t-10.5 -5l-84 -83q-19 -19 -28.5 -43.5t-9.5 -50.5q0 -27 10 -51.5t28 -43.5l66 -65l-130 -130q-14 -14 -14 -34t14 -33l12 -11l-253 -255 q-5 -5 -5 -11t5 -11q2 -3 4.5 -4t6.5 -1t6.5 1t4.5 4l255 254l11 -11v0v0q7 -7 16 -10.5t17 -3.5q9 0 18 3.5t16 10.5l130 130l75 -76q19 -19 44 -28.5t50 -9.5t50 9.5t45 28.5l83 84q5 4 5 10.5t-5 11.5l-117 117q10 13 17 27.5t10 31.5l154 154l33 -34q3 -2 6 -3.5t6 -1.5 q2 0 5 1.5t6 3.5q3 4 3 11t-5 11v0zM371 238q-5 -4 -11 -4t-11 4l-23 23v0v0v0v0l-22 22q-5 5 -5 11.5t5 11.5l128 128l69 -69l-130 -127v0zM640 470q-46 0 -78 32.5t-32 78.5q0 45 32 77.5t78 32.5t78 -32.5t32 -77.5q-1 -46 -32.5 -78.5t-77.5 -32.5zM763 293 q-30 -30 -71.5 -30t-70.5 30l-255 254q-14 15 -21.5 33.5t-8.5 38.5q0 21 8 39.5t22 32.5l72 72l93 -93q-14 -18 -22 -40t-8 -48q0 -58 41.5 -100t100.5 -42q25 0 47.5 8t40.5 22l106 -105l-74 -72v0zM781 598q-6 44 -35 77t-71 43l122 122l113 -114z" />
</svg>