<svg viewBox="0 0 1024 1024" xmlns="http://www.w3.org/2000/svg">
  <path transform="scale(1, -1) translate(0, -960)" fill="currentColor" d="M134 547l24 58h173l21 -58q2 -7 7.5 -9t11.5 -2h53q13 1 18 9.5t1 17.5l-141 330q-2 7 -5 9t-11 2h-75q-5 0 -11 -2.5t-8 -8.5l-142 -333q-5 -8 0.5 -17t15.5 -9h49q9 2 13.5 6t5.5 7v0zM245 803l49 -129h-100zM578 851h398q7 0 11.5 4.5t4.5 11.5t-4.5 11.5t-11.5 4.5 h-398q-8 0 -12 -4.5t-4 -11.5t4 -11.5t12 -4.5zM976 592h-398q-8 0 -12 -4.5t-4 -11.5t4 -11.5t12 -4.5h398q7 0 11.5 4.5t4.5 11.5t-4.5 11.5t-11.5 4.5zM976 299h-890q-7 0 -11.5 -4.5t-4.5 -11.5t4.5 -11.5t11.5 -4.5h890q7 0 11.5 4.5t4.5 11.5t-4.5 11.5t-11.5 4.5z M976 8h-890q-7 0 -11.5 -4.5t-4.5 -11.5t4.5 -11.5t11.5 -4.5h890q7 0 11.5 4.5t4.5 11.5t-4.5 11.5t-11.5 4.5z" />
</svg>