<svg viewBox="0 0 256 256" xmlns="http://www.w3.org/2000/svg">
  <path transform="scale(1, -1) translate(0, -256)" fill="currentColor" d="M29 150q3 0 5 3l6 14h43l5 -14q1 -3 5 -3h13q4 0 5 2t0 5l-35 82q-1 2 -2 2.5t-2 0.5h-19q-4 0 -5 -3l-36 -83q-1 -2 0.5 -4t3.5 -2h13zM61 217l13 -33h-26zM144 226h100q3 0 5 2t2 5t-2 5t-5 2h-100q-3 0 -5 -2t-2 -5t2 -5t5 -2zM244 167h-100q-3 0 -5 -2t-2 -5t2 -5.5 t5 -2.5h100q3 0 5 2.5t2 5.5t-2 5t-5 2zM244 94h-222q-3 0 -5.5 -2t-2.5 -5t2.5 -5t5.5 -2h222q3 0 5 2t2 5t-2 5t-5 2zM244 21h-222q-3 0 -5.5 -2t-2.5 -5t2.5 -5.5t5.5 -2.5h222q3 0 5 2.5t2 5.5t-2 5t-5 2z" />
</svg>