<svg viewBox="0 0 1024 1024" xmlns="http://www.w3.org/2000/svg">
  <path transform="scale(1, -1) translate(0, -960)" fill="currentColor" d="M906 842q-44 43 -98 64q-55 22 -112 22t-112 -22q-54 -21 -98 -64l-368 -368q-43 -44 -64 -98q-22 -55 -22 -112t22 -112q21 -54 64 -98q44 -43 99 -64.5t111 -21.5t111 21.5t99 64.5l368 368q43 44 64 98q22 55 22 112t-22 112q-21 54 -64 98v0zM515 77q-38 -39 -87 -58 q-48 -19 -99 -19t-100 19q-48 19 -87 58q-38 38 -57 87q-19 48 -19 99t19 100q19 48 57 87l172 174l374 -374zM883 445l-173 -173l-374 374l173 173q38 39 87 58t99.5 19t99.5 -19q48 -19 87 -58t58 -88q20 -48 20 -99t-19 -99q-19 -49 -58 -88v0z" />
</svg>