<svg viewBox="0 0 1024 1024" xmlns="http://www.w3.org/2000/svg">
  <path transform="scale(1, -1) translate(0, -960)" fill="currentColor" d="M512 928q-46 0 -86 -17q-40 -18 -70 -48t-47 -70q-18 -40 -18 -86v-518q0 -46 18 -86q17 -40 47 -70t70 -48q40 -17 86 -17t86 17q40 18 70 48t47 70q18 40 18 86v518q0 46 -18 86q-17 40 -47 70t-70 48q-40 17 -86 17v0zM701 189q0 -78 -55.5 -133.5t-133.5 -55.5 t-133.5 55.5t-55.5 133.5v243h378v-243zM323 707q0 78 55.5 133.5t133.5 55.5t133.5 -55.5t55.5 -133.5v-243h-378v243v0zM459 683q-7 0 -11.5 -4.5t-4.5 -11.5v-64q0 -7 4.5 -11.5t11.5 -4.5t11.5 4.5t4.5 11.5v64q0 6 -4.5 11t-11.5 5zM459 214q7 0 11.5 4.5t4.5 11.5v64 q0 8 -4.5 12t-11.5 4t-11.5 -4t-4.5 -12v-64q0 -7 5 -11.5t11 -4.5z" />
</svg>