<svg viewBox="0 0 256 256" xmlns="http://www.w3.org/2000/svg">
  <path transform="scale(1, -1) translate(0, -256)" fill="currentColor" d="M128 251q-16 0 -29 -8t-21 -21t-8 -29v-130q0 -16 8 -29t21 -21t29 -8t29 8t21 21t8 29v130q0 16 -8 29t-21 21t-29 8zM172 63q0 -18 -13 -31t-31 -13t-31 13t-13 31v58h88v-58zM84 193q0 18 13 31t31 13t31 -13t13 -31v-58h-88v58zM115 190q-3 0 -5 -2.5t-2 -5.5v-16 q0 -3 2 -5t5 -2t5 2t2 5v16q0 3 -2 5.5t-5 2.5zM115 66q3 0 5 2.5t2 5.5v16q0 3 -2 5t-5 2t-5 -2t-2 -5v-16q0 -3 2 -5.5t5 -2.5z" />
</svg>