<svg viewBox="0 0 1024 1024" xmlns="http://www.w3.org/2000/svg">
  <path transform="scale(1, -1) translate(0, -960)" fill="currentColor" d="M957 770q-25 40 -63 67t-84 38t-91.5 3t-84.5 -33l-236 -149q-6 -4 -7 -10t3 -12l216 -352l-292 296q-4 4 -10.5 4t-11.5 -4l-195 -199q-34 -35 -52 -78q-17 -44 -17 -89.5t17 -89.5q18 -44 52 -79q33 -33 76 -51.5t90 -18.5t90 17.5t77 52.5l195 199q2 2 3.5 4.5 t1.5 6.5l0.5 -1l0.5 -1h2h1q3 0 5 1t3 2l236 149q41 26 68 64q26 39 36.5 83t3.5 91t-33 89zM410 107q-29 -29 -66 -45t-77 -16q-41 0 -78 15.5t-64 45.5q-30 30 -44 68q-15 38 -15 77.5t15 77.5q14 38 44 68l184 188l286 -292zM864 469l-221 -139l-214 348l221 140 q34 21 73 28t79 -3q40 -8 73 -31.5t55 -59.5t28 -76t-3 -78.5t-32 -72.5q-23 -33 -59 -56v0z" />
</svg>