<svg viewBox="0 0 1024 1024" xmlns="http://www.w3.org/2000/svg">
  <path transform="scale(1, -1) translate(0, -960)" fill="currentColor" d="M234 885q-42 0 -78 -16q-37 -16 -64.5 -43t-43.5 -64t-16 -79v-470q0 -42 16 -78q16 -37 43.5 -64.5t64.5 -43.5q36 -16 78 -16q41 0 78 16q36 16 63.5 43.5t43.5 64.5q16 36 16 78v470q0 42 -16 79t-43.5 64t-63.5 43q-37 16 -78 16zM403 213q0 -70 -50 -120t-119 -50 q-70 0 -120 49.5t-50 120.5v219h339v-219zM403 464h-339v219q0 71 50 120.5t120 49.5q69 0 119 -50t50 -120v-219zM790 885q-41 0 -78 -16q-36 -16 -63.5 -43.5t-43.5 -64.5q-16 -36 -16 -78v-470q0 -42 16 -78q16 -37 43.5 -64.5t63.5 -43.5q37 -16 78 -16q42 0 78 16 q37 16 64.5 43t43.5 64t16 79v470q0 42 -16 79t-43.5 64t-64.5 43q-36 16 -78 16zM960 213q0 -70 -50 -120t-120 -50q-69 0 -119 50t-50 120v219h339v-219zM621 683q0 70 50 120t119 50q70 0 120 -50t50 -120v-219h-339v219z" />
</svg>