<svg viewBox="0 0 256 256" xmlns="http://www.w3.org/2000/svg">
  <path transform="scale(1, -1) translate(0, -256)" fill="currentColor" d="M58 240q-14 0 -26.5 -7t-19.5 -19.5t-7 -26.5v-118q0 -15 7 -27t19.5 -19.5t27 -7.5t27 7.5t19.5 19.5t7 27v118q0 14 -7 26.5t-19.5 19.5t-27.5 7zM98 69q0 -16 -11.5 -27.5t-28 -11.5t-28 11.5t-11.5 27.5v52h79v-52zM98 135h-79v52q0 16 11.5 27.5t28 11.5t28 -11.5 t11.5 -27.5v-52zM198 240q-15 0 -27.5 -7t-19.5 -19.5t-7 -26.5v-118q0 -15 7 -27t19.5 -19.5t27 -7.5t27 7.5t19.5 19.5t7 27v118q0 14 -7 26.5t-19.5 19.5t-26.5 7zM237 69q0 -16 -11.5 -27.5t-28 -11.5t-28 11.5t-11.5 27.5v52h79v-52zM158 187q0 16 11.5 27.5t28 11.5 t28 -11.5t11.5 -27.5v-52h-79v52z" />
</svg>