<svg viewBox="0 0 256 256" xmlns="http://www.w3.org/2000/svg">
  <path transform="scale(1, -1) translate(0, -256)" fill="currentColor" d="M58 104h27q3 0 5 2t2 5t-2 5t-5 2h-27q-3 0 -5 -2t-2 -5t2 -5t5 -2zM168 104h26q3 0 5 2t2 5t-2 5t-5 2h-26q-3 0 -5.5 -2t-2.5 -5t2.5 -5t5.5 -2zM244 170h-14l-20 50q-1 5 -6 8.5t-10 3.5h-134q-5 0 -9.5 -3t-6.5 -8l-20 -51h-12q-3 0 -5 -2.5t-2 -5.5t2 -4.5t5 -1.5h6 v-72q0 -7 5 -12.5t13 -5.5v-23q0 -8 5.5 -13.5t13.5 -5.5h18q8 0 13.5 5.5t5.5 13.5v23h69v-23q0 -8 5.5 -13.5t13.5 -5.5h18q8 0 13.5 5.5t5.5 13.5v23h2q8 0 13.5 5.5t5.5 13.5v71h6q3 0 5 2t2 5t-2 5t-5 2zM57 216q1 2 3 2h134q3 0 3 -2l23 -57h-185zM78 43 q0 -2 -1.5 -3.5t-4.5 -1.5h-17q-2 0 -3.5 1.5t-1.5 3.5v22h27v-22h1zM202 43q0 -2 -1.5 -3.5t-3.5 -1.5h-17q-2 0 -4 1.5t-2 3.5v22h28v-22zM223 84q0 -2 -1.5 -3.5t-3.5 -1.5h-182q-2 0 -3.5 1.5t-1.5 3.5v62h192v-62z" />
</svg>