<svg viewBox="0 0 1024 1024" xmlns="http://www.w3.org/2000/svg">
  <path transform="scale(1, -1) translate(0, -960)" fill="currentColor" d="M942 645l-9 9q-24 24 -55.5 37t-64.5 13h-247q-43 0 -85 -8q-42 -9 -81.5 -25t-74.5 -40q-36 -24 -67 -55l-7 -6q-6 -6 -13 -10t-16 -5l-62 -8q-54 -7 -91 -49.5t-37 -97.5v-38q0 -8 4.5 -12t11.5 -4h126q-3 -10 -5.5 -20.5t-2.5 -21.5q0 -46 33 -79t79 -33t79 32.5 t33 79.5q0 11 -2 21.5t-6 20.5h277q-3 -10 -5.5 -20.5t-2.5 -21.5q0 -46 32.5 -79t79.5 -33t79.5 32.5t32.5 79.5q0 11 -2 21.5t-6 20.5h43q34 0 58 24t24 57v96q0 35 -13 66t-37 56v0zM278 224q-32 0 -56 23t-24 57t23.5 57t56.5 23q34 0 57 -23t23 -57t-23.5 -57 t-56.5 -23zM763 224q-32 0 -56 23t-24 57t23.5 57t56.5 23q34 0 57 -23t23 -57t-23.5 -57t-56.5 -23zM960 427q0 -20 -14.5 -34.5t-35.5 -14.5h-62q-17 16 -38.5 27t-46.5 11t-47 -10t-38 -28h-316q-15 16 -36.5 27t-47.5 11q-25 0 -47 -10t-37 -28h-130v22q0 43 29 76.5 t72 38.5l62 8q13 1 26 8t22 16l7 7q57 57 130.5 87.5t153.5 30.5h245q28 0 53.5 -10.5t44.5 -29.5l9 -10q20 -19 30 -44.5t10 -52.5v-98h2z" />
</svg>