<svg viewBox="0 0 256 256" xmlns="http://www.w3.org/2000/svg">
  <path transform="scale(1, -1) translate(0, -256)" fill="currentColor" d="M243 156l-41 36q-2 2 -5 2h-86q-3 0 -5 -2l-31 -34l-50 -8q-9 -2 -14.5 -8.5t-5.5 -14.5v-6q0 -10 7 -16.5t17 -6.5h7v-6q0 -12 8.5 -21t21 -9t21.5 9t9 21l-1 6l68 1q-1 -4 -1 -7q0 -12 9 -21t21.5 -9t21 9t8.5 21v7h6q9 0 16 7t7 17v16q0 10 -8 17zM66 76 q-7 0 -11.5 4.5t-4.5 11.5t4.5 11.5t11 4.5t11.5 -4.5t5 -11.5t-5 -11.5t-11 -4.5zM192 76q-6 0 -11 4.5t-5 11.5t5 11.5t11.5 4.5t11 -4.5t4.5 -11.5t-4.5 -11.5t-11.5 -4.5zM237 122q0 -4 -2.5 -6.5t-6.5 -2.5h-14q-9 9 -21.5 9t-21.5 -10h-83q-9 10 -22 10t-23 -10h-15 q-4 0 -6.5 2.5t-2.5 6.5v6q0 3 2 6t6 3l52 9q3 1 4 2l31 33h80l40 -34q3 -4 3 -8v-16z" />
</svg>