<svg viewBox="0 0 1024 1024" xmlns="http://www.w3.org/2000/svg">
  <path transform="scale(1, -1) translate(0, -960)" fill="currentColor" d="M274 458q-40 0 -67.5 -27.5t-27.5 -65.5q0 -39 28 -66t67 -27t66.5 27t27.5 66q0 38 -27.5 65.5t-66.5 27.5v0zM274 302q-27 0 -45 18t-18 43t18.5 43t44.5 18t44 -18t18 -43q1 -25 -17.5 -43t-44.5 -18zM749 459q-40 0 -67.5 -27.5t-27.5 -66.5q0 -40 28 -67.5t67 -27.5 t67.5 27.5t28.5 67.5q0 39 -28.5 66.5t-67.5 27.5v0zM749 304q-27 0 -45 18t-18 44q0 27 19 45t44 18t44.5 -18t19.5 -45q0 -26 -19 -44t-45 -18zM552 381h-80q-7 0 -11.5 -4.5t-4.5 -11.5t4.5 -11.5t11.5 -4.5h80q7 0 11.5 4.5t4.5 11.5t-5 11.5t-11 4.5zM920 574l-16 180 q-5 61 -54.5 103t-116.5 42h-442q-67 0 -116.5 -42t-54.5 -103l-16 -180q-30 -2 -51 -24.5t-21 -53.5v-262q0 -34 23 -57t57 -23h27v-95q0 -26 19 -45t45 -19h63q26 0 45 19t19 45v95h364v-95q0 -26 19 -45t45 -19h63q26 0 45 19t19 45v95h27q34 0 57 23t23 57v262 q0 31 -21 53.5t-51 24.5v0zM152 752q4 49 44.5 83t94.5 34h442q54 0 94.5 -34t44.5 -83l16 -176h-752zM298 59q0 -13 -9.5 -22.5t-22.5 -9.5h-63q-13 0 -22.5 9.5t-9.5 22.5v95h127v-95zM853 59q0 -13 -9.5 -22.5t-22.5 -9.5h-63q-13 0 -22.5 9.5t-9.5 22.5v95h127v-95z M960 234q0 -21 -14 -34.5t-34 -13.5h-800q-20 0 -34 13.5t-14 34.5v262q0 20 14 34t34 14h800q20 0 34 -14t14 -34v-262z" />
</svg>