<svg viewBox="0 0 1024 1024" xmlns="http://www.w3.org/2000/svg">
  <path transform="scale(1, -1) translate(0, -960)" fill="currentColor" d="M965 552l-165 144q-2 2 -5 3.5t-6 1.5h-344q-4 0 -6.5 -1.5t-4.5 -3.5l-128 -136l-205 -35q-30 -5 -49.5 -28t-19.5 -54v-22q0 -17 6 -32t18 -26q12 -12 27 -18t31 -6v0v0h46q-4 -8 -5 -17.5t-1 -19.5q0 -44 31 -75.5t76 -31.5q44 0 75.5 31.5t31.5 75.5q0 10 -2 19.5 t-4 17.5l305 2q-3 -10 -5.5 -19.5t-2.5 -19.5q0 -44 31.5 -75.5t75.5 -31.5q45 0 76.5 31.5t31.5 75.5q0 11 -2.5 21t-5.5 19h40q33 0 57 24t24 58v64q4 19 -2.5 35.5t-19.5 28.5v0zM904 562h-288v107h166zM451 669h133v-107h-234zM262 227q-31 0 -53 22t-22 53q0 32 22 54 t53 22q32 0 54 -22t22 -54q0 -30 -22 -52.5t-54 -22.5zM770 227q-32 0 -54 22t-22 53q0 32 22 54t54 22q31 0 53 -22t22 -54q1 -30 -21.5 -52.5t-53.5 -22.5zM960 426q0 -21 -14.5 -35.5t-35.5 -14.5h-60q-15 17 -35.5 26t-44.5 9t-45 -10t-37 -27l-344 -1q-14 18 -36 28 t-47 10t-47 -11t-36 -29h-64q-11 0 -19.5 3.5t-16.5 11.5q-7 7 -10.5 16t-3.5 19v22q0 18 12 32t30 18l209 35h285h1h1h0.5h0.5h325q2 0 4.5 1t3.5 2l5 -5q8 -7 12.5 -17t4.5 -21v-62h2z" />
</svg>