<svg viewBox="0 0 256 256" xmlns="http://www.w3.org/2000/svg">
  <path transform="scale(1, -1) translate(0, -256)" fill="currentColor" d="M238 179l-3 3q-13 13 -32 13h-61q-23 0 -43.5 -8.5t-36.5 -24.5l-1 -2q-2 -2 -6 -2l-15 -2q-15 -2 -25 -13.5t-10 -26.5v-10q0 -3 2 -5t5 -2h28l-1 -7q0 -13 9 -22t22 -9t22 9t9 22l-1 7h61l-1 -7q0 -13 9.5 -22t22 -9t21.5 9t9 22l-1 7h7q10 0 17 7t7 17v24 q-2 19 -14 32zM70 75q-7 0 -12 5t-5 12t5 12t11.5 5t11.5 -5t5 -12t-5 -12t-11 -5zM191 75q-7 0 -12 5t-5 12t5 12t12 5t12 -5t5 -12t-5 -12t-12 -5zM237 123q0 -4 -3 -7t-7 -3h-14q-9 10 -22.5 10t-22.5 -10h-76q-9 10 -22.5 10t-22.5 -10h-28v3q0 10 6.5 17.5t16.5 8.5 l16 2q8 1 13 7l2 1q14 14 32 21.5t37 7.5h61q13 0 23 -9l2 -2q9 -10 9 -23v-24z" />
</svg>