<svg viewBox="0 0 1024 1024" xmlns="http://www.w3.org/2000/svg">
  <path transform="scale(1, -1) translate(0, -960)" fill="currentColor" d="M234 363h105q7 0 11.5 4.5t4.5 11.5t-4.5 11.5t-11.5 4.5h-105q-8 0 -12 -4.5t-4 -11.5t4 -11.5t12 -4.5zM670 363h106q7 0 11.5 4.5t4.5 11.5t-4.5 11.5t-11.5 4.5h-106q-7 0 -11.5 -4.5t-4.5 -11.5t5 -11.5t11 -4.5zM976 603h-61h-0.5h-0.5l-84 211q-6 17 -21 28 t-33 11h-534q-18 0 -33 -10t-22 -27l-83 -213h-56q-7 0 -11.5 -4.5t-4.5 -11.5t4.5 -11.5t11.5 -4.5h43l-8 -19q0 -1 -0.5 -2.5t-0.5 -2.5v0v0v-272q0 -26 18.5 -45t45.5 -19h9v-102q0 -27 19 -45.5t45 -18.5h71q26 0 45 18.5t19 45.5v102h300v-102q0 -27 19 -45.5t45 -18.5 h71q26 0 45 18.5t19 45.5v102h19q26 0 45 19t19 45v272q0 3 -1 5t-2 5l-7 16h50q7 0 11.5 4.5t4.5 11.5t-4.5 10.5t-11.5 3.5v0zM218 803q3 7 9.5 12.5t14.5 5.5h534q8 0 15 -4.5t9 -11.5l96 -242h-774l96 240v0zM323 107q0 -13 -9.5 -22.5t-22.5 -9.5h-70q-13 0 -22.5 9.5 t-9.5 22.5v103h134v-103zM821 107q0 -13 -9.5 -22.5t-22.5 -9.5h-71q-13 0 -22.5 9.5t-9.5 22.5v103h135v-103zM904 274q0 -14 -9.5 -23t-22.5 -9h-726q-14 0 -23 9t-9 23v256h790v-256z" />
</svg>