<svg viewBox="0 0 256 256" xmlns="http://www.w3.org/2000/svg">
  <path transform="scale(1, -1) translate(0, -256)" fill="currentColor" d="M59 94h27q3 0 5 2t2 5t-2 5t-5 2h-27q-3 0 -5 -2t-2 -5t2 -5t5 -2zM169 94h26q3 0 5 2t2 5t-2 5t-5 2h-26q-3 0 -5 -2t-2 -5t2 -5t5 -2zM244 150h-14l-20 51q-1 5 -6 8.5t-10 3.5h-31v5q0 10 -7 18q-6 5 -13.5 6.5t-14.5 -1.5q-5 2 -10 2q-10 0 -17.5 -6.5t-7.5 -17.5v-6 h-33q-5 0 -9.5 -3t-6.5 -8l-20 -52h-12q-3 0 -5 -2t-2 -5t2 -5t5 -2h6v-60q0 -7 5 -12.5t13 -5.5v-21q0 -10 7 -17t17 -7h8q10 0 17 7t7 17v21h69v-21q0 -10 7 -17t17 -7h7q10 0 17 7t7 17v21h2q8 0 13.5 5.5t5.5 13.5v60h7q3 0 5 2t2 5t-2 4.5t-5 1.5zM110 226q3 3 7 3 t7.5 -2t7 0.5t7.5 2t7 -3.5t3 -7.5t-3 -8.5l-18 -18l-18 18q-3 3 -3 8t3 8zM57 196q1 3 3 3h36q2 0 4 1l19 -20q4 -3 8.5 -3t8.5 3l20 20q3 -1 5 -1h33q3 0 3 -3l23 -56h-185zM78 37q0 -4 -3 -7t-7 -3h-8q-4 0 -7 3t-3 7v21h28v-21zM202 37q0 -4 -2.5 -7t-7.5 -3h-7 q-4 0 -7 3t-3 7v21h27v-21zM223 76q0 -2 -1.5 -3.5t-3.5 -1.5h-182q-2 0 -3.5 1.5t-1.5 3.5v50h192v-50z" />
</svg>