<svg viewBox="0 0 1024 1024" xmlns="http://www.w3.org/2000/svg">
  <path transform="scale(1, -1) translate(0, -960)" fill="currentColor" d="M989 635q-4 6 -10.5 7.5t-12.5 -2.5l-68 -48l-13 147q-5 58 -51.5 98t-108.5 40h-413q-62 0 -109.5 -40t-52.5 -98l-14 -153l-80 52q-6 4 -12.5 3t-9.5 -7q-4 -6 -3 -12.5t7 -10.5l72 -48q-19 -9 -31 -28t-12 -42v-410q0 -26 19 -45t45 -19h53q26 0 45 19t19 45v93h539 v-93q0 -26 19 -45t45 -19h53q26 0 45 19t19 45v410q0 25 -14 45t-36 28l68 45q4 5 5 11.5t-2 12.5v0zM182 736q4 46 42 76.5t88 30.5h413q50 0 88 -31.5t41 -75.5l15 -163h-701zM216 83q0 -13 -9.5 -22.5t-22.5 -9.5h-51q-13 0 -22.5 9.5t-9.5 22.5v93h117v-93h-2zM677 210 h-74v65q0 7 -4.5 11.5t-11.5 4.5t-11.5 -4.5t-4.5 -11.5v-65h-109v65q0 7 -4 11.5t-12 4.5q-7 0 -11.5 -4.5t-4.5 -11.5v-65h-73v124q0 20 13.5 33.5t32.5 13.5h227q20 0 33.5 -13.5t13.5 -33.5v-124v0zM936 83q0 -13 -9.5 -22.5t-22.5 -9.5h-53q-13 0 -22.5 9.5t-9.5 22.5 v93h117v-93zM936 493v-285h-227v125q0 32 -23 55t-56 23h-225q-33 0 -56 -23t-23 -55v-125h-225v285q0 20 13.5 34t34.5 14h737q21 0 35.5 -14t14.5 -34zM216 363h-21q-7 0 -11.5 -4.5t-4.5 -11.5t4.5 -11.5t11.5 -4.5h21q7 0 11.5 4.5t4.5 11.5t-4.5 11.5t-11.5 4.5z M837 363h-21q-7 0 -11.5 -4.5t-4.5 -11.5t4.5 -11.5t11.5 -4.5h21q7 0 11.5 4.5t4.5 11.5t-5 11.5t-11 4.5z" />
</svg>