<svg viewBox="0 0 256 256" xmlns="http://www.w3.org/2000/svg">
  <path transform="scale(1, -1) translate(0, -256)" fill="currentColor" d="M250 176q-1 3 -4 3.5t-6 -1.5l-13 -8l-3 31q-1 16 -13.5 26.5t-29.5 10.5h-103q-17 0 -29.5 -10.5t-13.5 -25.5l-3 -34l-16 10q-2 2 -5 1t-4.5 -3t-1 -5t2.5 -5l14 -9q-8 -7 -8 -18v-102q0 -8 5.5 -13.5t13.5 -5.5h13q8 0 14 5.5t6 13.5v20h128v-20q0 -8 6 -13.5t14 -5.5 h13q8 0 13.5 5.5t5.5 13.5v102q0 11 -10 19l13 8q2 2 2 5t-1 5zM231 71h-51v29q0 9 -6.5 15.5t-15.5 6.5h-57q-9 0 -15.5 -6.5t-6.5 -15.5v-29h-51v68q0 4 2.5 6.5t6.5 2.5h185q3 0 6 -2.5t3 -6.5v-68zM147 92q-3 0 -5 -2.5t-2 -5.5v-13h-21v13q0 3 -2 5.5t-5 2.5t-5.5 -2.5 t-2.5 -5.5v-13h-12v29q0 3 2.5 5.5t5.5 2.5h57q4 0 6.5 -2.5t2.5 -5.5v-29h-13v13q1 3 -1 5.5t-5 2.5zM48 200q1 10 9.5 17t20.5 7h103q11 0 19.5 -7t9.5 -17l3 -38h-168zM51 37q0 -2 -1.5 -3.5t-3.5 -1.5h-13q-2 0 -3.5 1.5t-1.5 3.5v20h23v-20zM231 37q0 -2 -1.5 -3.5 t-3.5 -1.5h-14q-2 0 -3.5 1.5t-1.5 3.5v20h23v-20h1zM54 110h-5q-3 0 -5 -2.5t-2 -5.5t2 -5t5 -2h5q3 0 5 2t2 5t-2 5.5t-5 2.5zM209 110h-5q-3 0 -5 -2.5t-2 -5.5t2 -5t5 -2h5q3 0 5 2t2 5t-2 5.5t-5 2.5z" />
</svg>