<svg viewBox="0 0 1024 1024" xmlns="http://www.w3.org/2000/svg">
  <path transform="scale(1, -1) translate(0, -960)" fill="currentColor" d="M285 632h-95q-13 0 -22.5 -9.5t-9.5 -22.5v-94q0 -14 9.5 -23t22.5 -9h95q13 0 22.5 9t9.5 23v94q0 14 -9.5 23t-22.5 9zM190 506v94h95v-94h-95zM976 294h-110v239q0 3 -1.5 7t-3.5 7l-123 199q-4 6 -10.5 9t-12.5 3h-656q-11 0 -19 -8t-8 -19v-441q0 -11 8 -19.5 t19 -8.5h61q-1 -6 -2 -12.5t-1 -12.5q0 -42 29.5 -71.5t71.5 -29.5t71 29.5t29 71.5q0 7 -1 13l-2 12h661q7 0 11.5 4.5t4.5 11.5q0 8 -4.5 12t-11.5 4v0zM216 168q-29 0 -49 20t-20 49t20 49t49 20t49 -20t20 -49t-20 -49t-49 -20zM622 294h-94v264h94v-264zM834 294h-10v0 v0h-170v274q0 10 -6 16t-16 6h-114q-9 0 -15.5 -6t-6.5 -16v-274h-195v-4q-13 20 -36 33t-49 13q-25 0 -46.5 -11t-35.5 -31h-70v432h648l122 -195v-237z" />
</svg>