<svg viewBox="0 0 256 256" xmlns="http://www.w3.org/2000/svg">
  <path transform="scale(1, -1) translate(0, -256)" fill="currentColor" d="M71 177h-23q-5 0 -8.5 -3t-3.5 -8v-24q0 -4 3.5 -7.5t8.5 -3.5h23q5 0 8 3.5t3 7.5v24q0 5 -3 8t-8 3zM68 146h-17v17h17v-17zM244 93h-25v56q0 3 -1 5l-31 50q-3 5 -9 5h-164q-3 0 -6 -3t-3 -7v-110q0 -4 3 -7t6 -3h12v-3q0 -12 8 -20t19.5 -8t20 8t8.5 20l-1 3h163 q3 0 5 2t2 5t-2 5t-5 2zM54 61q-6 0 -10 4t-4 10t4 10t10 4t10 -4t4 -10t-4 -10t-10 -4zM54 103q-14 0 -22 -10h-13v102h158l28 -47v-55h-39v65q0 4 -2.5 6.5t-5.5 2.5h-29q-3 0 -6 -2.5t-3 -6.5v-65h-44q-8 10 -22 10zM135 93v60h18v-60h-18z" />
</svg>