<svg viewBox="0 0 256 256" xmlns="http://www.w3.org/2000/svg">
  <path transform="scale(1, -1) translate(0, -256)" fill="currentColor" d="M231 215q-10 11 -23.5 17t-28.5 6q-22 0 -41 -14q-6 -5 -10 -10q-4 5 -10 10q-19 14 -41 14q-31 0 -52 -23q-10 -10 -15 -24t-5 -30q0 -31 25 -60q9 -12 25 -26q9 -9 32 -28l27 -23q6 -5 14 -5t14 5l27 23q23 19 32 28q16 14 25 26q25 29 25 60q0 16 -5 30t-15 24z M36 206q16 18 41 18q18 0 32 -12q4 -2 10 -10h1q3 -4 8 -4t8 4q6 6 11 10q15 12 32 12q12 0 23 -5t18 -13q17 -18 17 -45l-1 -9h-75q-7 0 -11 -6l-24 -28v-1l-1 1l-44 63q-4 6 -11 6.5t-12 -4.5l-37 -37q-2 9 -2 15q0 27 17 45zM216 110q-9 -11 -25 -25q-9 -9 -31 -27 l-28 -24q-1 -1 -4 -1t-4 1l-28 24q-22 18 -31 27q-16 14 -25 24.5t-14 21.5l43 43l1 -1l44 -63q4 -6 12 -7v0q7 0 12 6l23 29h1h71q-6 -15 -17 -28z" />
</svg>