<svg viewBox="0 0 256 256" xmlns="http://www.w3.org/2000/svg">
  <path transform="scale(1, -1) translate(0, -256)" fill="currentColor" d="M244 109h-33v29q0 7 -4 12t-11 6v48q0 8 -5.5 13.5t-13.5 5.5h-43q-8 0 -14 -5.5t-6 -13.5v-31h-40v21q0 7 -5.5 13t-13.5 6h-31q-8 0 -13.5 -5.5t-5.5 -13.5v-93l18 -52q2 -7 9 -12t14 -5h124q6 0 11 3t9 7l38 52h16q3 0 5 2t2 5t-2 5.5t-5 2.5zM197 109h-69v34h64 q2 0 3.5 -1.5t1.5 -3.5v-29zM128 204q0 2 2 3.5t4 1.5h43q2 0 3.5 -1.5t1.5 -3.5v-47h-54v47zM114 159v-50h-40v49h40v1zM19 143h41v-34h-41v34zM19 194q0 2 1.5 3.5t3.5 1.5h32q2 0 3.5 -1.5t1.5 -3.5v-37h-42v37zM179 51q-3 -4 -9 -4h-124q-3 0 -6 2t-4 5l-14 41h189z" />
</svg>