<svg viewBox="0 0 256 256" xmlns="http://www.w3.org/2000/svg">
  <path transform="scale(1, -1) translate(0, -256)" fill="currentColor" d="M164 63q-12 0 -20.5 -8.5t-8.5 -20.5t8.5 -20.5t20 -8.5t20 8.5t8.5 20.5t-8 20.5t-20 8.5zM164 19q-6 0 -10.5 4.5t-4.5 10.5t4.5 10.5t10.5 4.5t10 -4.5t4 -10.5t-4 -10.5t-10 -4.5zM73 63q-12 0 -20.5 -8.5t-8.5 -20.5t8.5 -20.5t20 -8.5t20 8.5t9 20.5t-8 20.5 t-20.5 8.5zM73 19q-6 0 -10.5 4.5t-4.5 10.5t4.5 10.5t10.5 4.5t10 -4.5t4 -10.5t-4 -10.5t-10 -4.5zM231 251h-25q-5 0 -8.5 -3t-3.5 -8l-8 -52h-157q-5 0 -8.5 -4.5t-2.5 -9.5l25 -76q1 -4 4 -6.5t7 -2.5h118q7 0 11.5 4.5t5.5 10.5l19 133h24q3 0 5 2t2 5t-2.5 5t-5.5 2z M175 106q-1 -3 -4 -3h-116l-23 71h152z" />
</svg>