<svg viewBox="0 0 1024 1024" xmlns="http://www.w3.org/2000/svg">
  <path transform="scale(1, -1) translate(0, -960)" fill="currentColor" d="M926 765q-12 14 -28 22t-34 8h-590h-2h-2l-4 83q0 15 -10.5 24.5t-25.5 9.5h-134q-7 0 -11.5 -4.5t-4.5 -11.5t4.5 -11.5t11.5 -4.5h136q1 0 2 -1t1 -2l35 -594q2 -21 18 -37t38 -16h541q7 0 11.5 4.5t4.5 11.5q0 8 -4.5 12t-11.5 4h-541q-9 0 -15.5 6.5t-8.5 16.5 l-8 123h520q28 0 50.5 18t28.5 44l49 228q4 18 0 35t-16 32v0zM912 706l-50 -228q-3 -16 -16 -27t-30 -11h-523l-19 323v0v0h590q11 0 21 -4.5t16 -12.5q6 -9 9.5 -20t1.5 -20zM379 110q-29 0 -49.5 -21t-20.5 -51t20.5 -51t49.5 -21t50 21t21 51t-21 51t-50 21v0zM379 0 q-15 0 -26.5 11.5t-11.5 28.5t11.5 28.5t26.5 11.5q16 0 27.5 -11.5t11.5 -28.5t-11.5 -28.5t-27.5 -11.5zM770 110q-29 0 -50 -21t-21 -51t21 -51t50 -21q28 0 49 21t21 51q1 30 -19.5 51t-50.5 21zM770 0q-16 0 -27.5 11.5t-11.5 28.5t11.5 28.5t27.5 11.5 q15 0 26.5 -11.5t11.5 -28.5q1 -17 -10.5 -28.5t-27.5 -11.5z" />
</svg>