<svg viewBox="0 0 1024 1024" xmlns="http://www.w3.org/2000/svg">
  <path transform="scale(1, -1) translate(0, -960)" fill="currentColor" d="M982 766q-6 3 -12 0.5t-8 -8.5l-196 -408q-4 -10 -14 -17t-22 -7h-472q-16 0 -28 11t-14 26l-45 479q-1 13 -11 22.5t-24 9.5h-88q-7 0 -11.5 -4.5t-4.5 -11.5q0 -8 4.5 -12t11.5 -4h88q1 0 2 -1t1 -3l47 -476q2 -29 23 -48.5t50 -19.5h472q22 0 39.5 11.5t26.5 30.5 l195 408q1 6 -1.5 12.5t-8.5 9.5v0zM293 158q-31 0 -53 -22t-22 -54t22 -54.5t53 -22.5t53 22t22 55q1 32 -21.5 54t-53.5 22zM293 38q-18 0 -30.5 13t-12.5 32q0 18 12.5 31.5t30.5 13.5t30.5 -13t12.5 -32q1 -18 -12 -31.5t-31 -13.5zM678 158q-31 0 -53 -22t-22 -54 t22 -54.5t53 -22.5q32 0 54 22t22 55q0 32 -22 54t-54 22zM678 38q-18 0 -30.5 13t-12.5 32q0 18 12.5 31.5t30.5 13.5t31 -13t13 -32q0 -18 -13 -31.5t-31 -13.5z" />
</svg>