<svg viewBox="0 0 1024 1024" xmlns="http://www.w3.org/2000/svg">
  <path transform="scale(1, -1) translate(0, -960)" fill="currentColor" d="M594 176q-44 0 -74 -30.5t-30 -73.5t30 -73.5t74 -30.5q43 0 73.5 30.5t30.5 73.5t-30.5 73.5t-73.5 30.5zM594 0q-30 0 -51 21t-21 51t21 51t51 21t51 -21t21 -51t-21 -51t-51 -21zM286 176q-43 0 -73.5 -30.5t-30.5 -73.5t30.5 -73.5t73.5 -30.5q44 0 74 30.5t30 73.5 t-30 73.5t-74 30.5zM286 0q-30 0 -51 21t-21 51t21 51t51 21t51 -21t21 -51t-21 -51t-51 -21zM934 928h-86q-22 0 -38.5 -14.5t-19.5 -35.5l-28 -203h-106v138q0 13 -9 21.5t-21 8.5h-138v8q0 15 -8.5 24.5t-21.5 9.5h-140q-13 0 -21.5 -10.5t-8.5 -23.5v-49h-141 q-13 0 -21.5 -8.5t-8.5 -20.5v-98h-10q-8 0 -15 -3.5t-12 -9.5t-6.5 -14t0.5 -16l99 -301q2 -11 11.5 -18t21.5 -7h447q37 0 66 24.5t35 61.5l68 482q2 9 9 15.5t17 6.5h86q8 0 12 4.5t4 11.5t-4 11.5t-12 4.5v0zM622 811v-137h-137v137h137zM317 851v1.5v0.5h136v-1v-1 v-176h-138v176h2zM147 770h138v-95h-138v95v0zM722 395q-4 -25 -23.5 -42t-45.5 -17h-447h-1v2l-99 304h0.5h0.5h650z" />
</svg>