<svg viewBox="0 0 1024 1024" xmlns="http://www.w3.org/2000/svg">
  <path transform="scale(1, -1) translate(0, -960)" fill="currentColor" d="M654 176q-42 0 -72 -30.5t-30 -73.5t30 -73.5t72 -30.5t72.5 30.5t30.5 73.5t-29.5 73.5t-73.5 30.5zM654 0q-28 0 -49 21t-21 51t21 51t49 21q29 0 50 -21t21 -51t-21 -51t-50 -21zM291 176q-42 0 -72 -30.5t-30 -73.5t30 -73.5t72 -30.5t72.5 30.5t30.5 73.5t-30 73.5 t-73 30.5v0zM291 0q-29 0 -49.5 21t-20.5 51t20.5 51t49.5 21t50 -21t21 -51t-20.5 -51t-50.5 -21v0zM925 928h-103q-14 0 -24 -9.5t-12 -22.5l-31 -221h-638q-9 0 -16 -3.5t-11 -9.5q-5 -6 -6.5 -14t-0.5 -16l98 -301q2 -11 11.5 -18t20.5 -7h472q21 0 38 14t19 35l76 536 q0 3 1.5 4t2.5 1h103q7 0 11.5 4.5t4.5 11.5t-4.5 11.5t-11.5 4.5v0zM712 360q-1 -10 -8.5 -16t-17.5 -6h-472h-1v1l-98 301q0 1 0.5 1.5t1.5 0.5h635z" />
</svg>