<svg viewBox="0 0 256 256" xmlns="http://www.w3.org/2000/svg">
  <path transform="scale(1, -1) translate(0, -256)" fill="currentColor" d="M247 210q-2 2 -5 1t-4 -4l-49 -102q-2 -4 -7 -4h-118q-3 0 -4.5 2t-2.5 5l-11 119q-1 4 -4 7t-8 3h-22q-3 0 -5 -2t-2 -5t2 -5t5 -2h20l11 -117q1 -8 7 -13.5t14 -5.5h118q6 0 11.5 3t8.5 9l48 102q2 2 1 5t-4 4zM73 62q-10 0 -17.5 -7.5t-7.5 -18t7.5 -18t17.5 -7.5 t17.5 7.5t7.5 18t-7 18t-18 7.5zM73 26q-4 0 -7.5 3t-3.5 7.5t3.5 8t8 3.5t7.5 -3t3 -8t-3 -8t-8 -3zM170 62q-11 0 -18 -7.5t-7 -18t7 -18t17.5 -7.5t17.5 7.5t7 18t-7 18t-17 7.5zM170 26q-5 0 -8 3t-3 7.5t3 8t7.5 3.5t7.5 -3t3 -8t-3 -8t-7 -3z" />
</svg>