<svg viewBox="0 0 256 256" xmlns="http://www.w3.org/2000/svg">
  <path transform="scale(1, -1) translate(0, -256)" fill="currentColor" d="M247 200q-2 1 -5 0t-4 -4l-48 -101q-3 -5 -8 -5h-116q-4 0 -6.5 2t-2.5 6l-11 118q-1 5 -4.5 8t-8.5 3h-21q-3 0 -5 -2t-2 -5t2 -5t5 -2h20l11 -117q1 -9 7.5 -14.5t15.5 -5.5h115q7 0 12.5 3.5t8.5 9.5l48 101q1 3 0.5 5.5t-3.5 4.5zM73 50q-10 0 -17.5 -7.5t-7.5 -18 t7.5 -17.5t17.5 -7t17.5 7t7.5 17.5t-7 18t-18 7.5zM73 14q-4 0 -7.5 3t-3.5 8t3.5 8t8 3t7.5 -3t3 -8t-3 -8t-8 -3zM170 50q-11 0 -18 -7.5t-7 -18t7 -17.5t17.5 -7t17.5 7.5t7 18t-7 17.5t-17 7zM170 14q-5 0 -8 3t-3 8t3 8t7.5 3t7.5 -3t3 -8t-3 -8t-7 -3zM130 144 q2 -2 4.5 -2t4.5 2l31 31q2 2 2 5t-2 5t-5 2t-5 -2l-19 -19v76q0 3 -2 5t-5 2t-5 -2t-2 -5v-76l-19 19q-2 2 -5 2t-5 -2t-2 -5t2 -5z" />
</svg>