<svg viewBox="0 0 256 256" xmlns="http://www.w3.org/2000/svg">
  <path transform="scale(1, -1) translate(0, -256)" fill="currentColor" d="M148 63q-12 0 -20 -8.5t-8 -20.5t8 -20.5t20 -8.5t20.5 8.5t8.5 20.5t-8.5 20.5t-20.5 8.5zM148 19q-6 0 -10 4.5t-4 10.5t4 10.5t10.5 4.5t10.5 -4.5t4 -10.5t-4 -10.5t-11 -4.5zM72 63q-12 0 -20.5 -8.5t-8.5 -20.5t8.5 -20.5t20.5 -8.5t20 8.5t8 20.5t-8 20.5t-20 8.5 zM72 19q-7 0 -11 4.5t-4 10.5t4.5 10.5t10.5 4.5t10 -4.5t4 -10.5t-4 -10.5t-10 -4.5zM234 251h-22q-7 0 -12 -4.5t-6 -10.5l-6 -49h-21v32q0 5 -3 8t-8 3h-32q0 4 -3 7t-7 3h-35q-4 0 -7.5 -3t-3.5 -8v-10h-31q-5 0 -8 -3t-3 -7v-22q-6 -1 -9 -5t-1 -9l24 -76 q1 -3 4.5 -5.5t7.5 -2.5h111q11 0 19 7t9 17l17 121q1 3 4 3h22q3 0 5 2t2 5t-2 5t-5 2zM153 188h-29v28h29v-28zM82 226h29v-38h-29v38zM40 205h28v-17h-28v17zM177 115q0 -5 -4.5 -8.5t-9.5 -3.5h-109l-24 71h156z" />
</svg>