<svg viewBox="0 0 256 256" xmlns="http://www.w3.org/2000/svg">
  <path transform="scale(1, -1) translate(0, -256)" fill="currentColor" d="M244 27h-13v124q3 0 4.5 2t1.5 5v44q0 8 -5 14l-18 20q-7 8 -16.5 8t-15.5 -8l-18 -20q-6 -6 -6 -14v-44q0 -3 2 -4.5t4 -2.5v-50q-14 -5 -36 -5t-34 4v51q2 0 4 2t2 5v44q0 8 -6 14l-18 20q-7 8 -16 8t-16 -8l-18 -20q-6 -6 -6 -14v-44q0 -3 2 -4.5t4 -2.5v-124h-14 q-3 0 -5 -2t-2 -5t2 -5t5 -2h232q3 0 5 2t2 5t-2 5t-5 2zM172 202q0 2 2 5l18 20q2 2 5.5 2t5.5 -2l18 -20q2 -3 2 -5v-37h-52v37h1zM128 82q21 0 36 5v-60h-70v59q13 -4 34 -4zM34 202q0 2 2 5l18 20q2 2 5.5 2t5.5 -2l18 -20q2 -3 2 -5v-37h-52v37h1zM40 27v124h40v-124 h-40zM178 27v124h39v-124h-39z" />
</svg>