<svg viewBox="0 0 1024 1024" xmlns="http://www.w3.org/2000/svg">
  <path transform="scale(1, -1) translate(0, -960)" fill="currentColor" d="M968 928q-7 0 -11.5 -4.5t-4.5 -11.5v-130h-272v130q0 7 -4.5 11.5t-11.5 4.5t-11.5 -4.5t-4.5 -11.5v-130h-272v130q0 7 -4.5 11.5t-11.5 4.5t-11.5 -4.5t-4.5 -11.5v-130h-272v130q0 7 -4.5 11.5t-11.5 4.5t-11.5 -4.5t-4.5 -11.5v-864q0 -34 24 -58t58 -24h256 q7 0 11.5 4.5t4.5 11.5v133q0 46 6 92q7 45 19.5 89t30.5 86q19 41 43 80l14 24q1 2 2.5 3t2.5 1t2.5 -0.5t2.5 -3.5l14 -24q25 -39 43 -80q19 -42 31.5 -86t18.5 -89q6 -46 6 -92v-131q0 -7 4.5 -11.5t11.5 -4.5h256q34 0 58 24t24 58v862q0 7 -4.5 11.5t-11.5 4.5zM952 50 q0 -21 -14.5 -35.5t-35.5 -14.5h-240v117q0 48 -6 96q-7 48 -20.5 94t-32.5 90t-45 85l-14 25q-5 9 -13.5 13.5t-18.5 4.5t-18.5 -4.5t-13.5 -13.5l-14 -24q-26 -41 -46 -84q-19 -44 -32 -90t-20 -94q-6 -48 -6 -97v-118h-240q-21 0 -35.5 14.5t-14.5 35.5v700h882v-700h-2z " />
</svg>