<svg viewBox="0 0 1024 1024" xmlns="http://www.w3.org/2000/svg">
  <path transform="scale(1, -1) translate(0, -960)" fill="currentColor" d="M928 646h-38v132q0 18 -8 34.5t-23 27.5l-62 51q-23 18 -51.5 18t-51.5 -18l-62 -51q-14 -12 -22 -28t-8 -34v-132h-180v132q0 18 -8 34.5t-22 27.5l-62 51q-23 18 -51.5 18t-51.5 -18l-62 -51q-15 -12 -23 -28t-8 -34v-132h-38q-26 0 -45 -18.5t-19 -45.5v-531 q0 -26 19 -45t45 -19h229q26 0 45 19t19 45v171q0 36 25 61.5t61 25.5h74q36 0 61 -25.5t25 -61.5v-172q0 -27 19 -45.5t45 -18.5h229q26 0 45 18.5t19 45.5v532q0 27 -19 45.5t-45 18.5v0zM634 776q0 11 4.5 21t12.5 17l63 52q13 10 31 10t31 -10l62 -52q9 -7 13.5 -17 t4.5 -21v-131h-224v131h2zM166 776q0 11 5 21t13 17l62 52q14 10 32 10t31 -10l62 -52q9 -7 13.5 -17t4.5 -21v-131h-224v131h1zM960 51q0 -13 -9.5 -22.5t-22.5 -9.5h-229q-13 0 -22.5 9.5t-9.5 22.5v171q0 50 -34.5 84.5t-83.5 34.5h-74q-49 0 -83.5 -34.5t-34.5 -84.5 v-172q0 -14 -9.5 -23t-22.5 -9h-229q-13 0 -22.5 9t-9.5 23v532q0 14 9.5 23t22.5 9h832q13 0 22.5 -9t9.5 -23v-531z" />
</svg>