<svg viewBox="0 0 256 256" xmlns="http://www.w3.org/2000/svg">
  <path transform="scale(1, -1) translate(0, -256)" fill="currentColor" d="M242 251q-3 0 -5 -2t-2 -5v-30h-62v30q0 3 -2 5t-5 2t-5 -2t-2 -5v-29h-62v29q0 3 -2 5t-5 2t-5 -2t-2 -5v-29h-62v29q0 3 -2 5t-5 2t-5 -2t-2 -5v-216q0 -10 6.5 -16.5t16.5 -6.5h64q3 0 5 2t2 5v33q0 46 25 85l2 4l2 -4q25 -39 25 -85v-33q0 -3 2 -5t5 -2h64 q10 0 16.5 6.5t6.5 16.5v216q0 3 -2 5t-5 2zM235 28q0 -4 -2.5 -6.5t-6.5 -2.5h-57v27q0 49 -27 92l-3 6q-4 6 -11 6q-3 0 -6 -1.5t-4 -4.5l-4 -6q-12 -20 -19 -44t-7 -48v-27h-58q-4 0 -6.5 3t-2.5 6v173h214v-173z" />
</svg>