<svg viewBox="0 0 256 256" xmlns="http://www.w3.org/2000/svg">
  <path transform="scale(1, -1) translate(0, -256)" fill="currentColor" d="M228 8h-52q-9 0 -15.5 6.5t-6.5 16.5v16q0 11 -7.5 18.5t-18 7.5t-18.5 -7.5t-8 -18.5v-16q0 -10 -6.5 -16.5t-15.5 -6.5h-52q-10 0 -16.5 6.5t-6.5 16.5v195q0 9 6.5 15.5t16.5 6.5h34q9 0 15.5 -6.5t6.5 -15.5v-50l37 25q3 2 7 2t7 -2l37 -25v50q0 9 6.5 15.5t15.5 6.5 h34q10 0 16.5 -6.5t6.5 -16.5v-195q0 -9 -6.5 -15.5t-16.5 -6.5zM128 86q17 0 28.5 -11.5t11.5 -27.5v-17q0 -3 2.5 -5.5t5.5 -2.5h52q4 0 6.5 2.5t2.5 5.5v196q0 3 -2.5 5.5t-6.5 2.5h-34q-3 0 -5.5 -2.5t-2.5 -5.5v-54q0 -3 -2 -6t-5 -5q-7 -3 -13 1l-38 27l-39 -27 q-5 -4 -13 0q-3 1 -4.5 4t-1.5 6v54q0 3 -2.5 5.5t-6.5 2.5h-33q-4 0 -6.5 -2.5t-2.5 -5.5v-196q0 -3 2.5 -5.5t6.5 -2.5h52q3 0 5.5 2.5t2.5 5.5v17q0 16 11.5 27.5t28.5 11.5zM127 190z" />
</svg>