<svg viewBox="0 0 1024 1024" xmlns="http://www.w3.org/2000/svg">
  <path transform="scale(1, -1) translate(0, -960)" fill="currentColor" d="M976 896q-7 0 -11.5 -4.5t-4.5 -11.5v-174q0 -17 -12.5 -29.5t-29.5 -12.5h-216v158q0 8 -4 12t-12 4q-7 0 -11.5 -4t-4.5 -12v-158h-316v158q0 8 -4.5 12t-11.5 4q-8 0 -12 -4t-4 -12v-158h-216q-17 0 -29.5 12.5t-12.5 29.5v174q0 7 -4.5 11.5t-11.5 4.5t-11.5 -5 t-4.5 -11v-174q0 -30 22 -52t52 -22h44v-558q0 -30 22 -52t52 -22h576q30 0 52 22t22 52v558h44q30 0 52 22t22 52v174q0 6 -4.5 11t-11.5 5zM621 32h-218v117q0 44 31.5 76.5t77.5 32.5t77.5 -32t31.5 -77v-117zM842 74q0 -17 -12.5 -29.5t-29.5 -12.5h-147v117 q0 57 -41 99t-100 42q-58 0 -99.5 -41t-41.5 -100v-117h-147q-17 0 -29.5 12.5t-12.5 29.5v558h660v-558z" />
</svg>