<svg viewBox="0 0 1024 1024" xmlns="http://www.w3.org/2000/svg">
  <path transform="scale(1, -1) translate(0, -960)" fill="currentColor" d="M976 30h-62v522h8q7 0 11.5 4.5t4.5 11.5v174q0 15 -5 28t-15 24l-72 80q-10 12 -25 18t-31 6v0v0q-15 0 -30 -7t-26 -17l-72 -80q-9 -11 -14 -24t-5 -28v-174q0 -7 4.5 -11.5t11.5 -4.5h8v-219q-25 -12 -67 -19t-90 -7q-44 0 -83.5 6t-64.5 17v222h8q7 0 11.5 4.5 t4.5 11.5v174q0 15 -5 28t-15 24l-72 80q-10 12 -25 18t-31 6q-15 0 -30 -7t-26 -17l-72 -80q-9 -11 -14 -24t-5 -28v-174q0 -7 4.5 -11.5t11.5 -4.5h8v-522h-67q-7 0 -11.5 -4t-4.5 -12q0 -7 4.5 -11.5t11.5 -4.5h928q7 0 11.5 4.5t4.5 11.5q0 8 -4.5 12t-11.5 4v0z M675 742q0 9 2.5 16t8.5 13l72 80q6 7 14.5 11t17.5 4q10 0 18 -4t14 -11l72 -80q6 -6 9 -13t3 -16v-158h-231v158v0zM510 275q46 0 87 6t70 18v-269h-305v266q28 -10 66.5 -15.5t81.5 -5.5v0zM123 742q0 9 2.5 16t8.5 13l72 80q12 13 32 13t32 -13l72 -80q5 -6 8.5 -13 t3.5 -16v-158h-231v158v0zM147 30v522h183v-232v0v0v-290h-183v0zM699 30v522h183v-522h-183z" />
</svg>