<svg viewBox="0 0 256 256" xmlns="http://www.w3.org/2000/svg">
  <path transform="scale(1, -1) translate(0, -256)" fill="currentColor" d="M244 243q-3 0 -5 -2t-2 -5v-44q0 -3 -2.5 -5.5t-5.5 -2.5h-51v38q0 3 -2 5t-5 2t-5 -2t-2 -5v-37h-72v37q0 3 -2.5 5t-5.5 2t-5 -2t-2 -5v-37h-51q-3 0 -5 2.5t-2 5.5v43q0 3 -2 5t-5 2t-5 -2t-2 -5v-44q0 -9 6.5 -15t15.5 -6h8v-137q0 -9 6 -15t15 -6h144q9 0 15.5 6 t6.5 15v137h8q9 0 15.5 6.5t6.5 15.5v43q-1 3 -3 5t-5 2zM152 27h-48v26q0 10 7 17t17 7t17 -7t7 -17v-26zM208 34q0 -3 -2.5 -5t-5.5 -2h-34v26q0 16 -11 27t-27 11t-27 -11.5t-11 -26.5v-26h-34q-3 0 -5.5 2t-2.5 5v137h159v-137h1z" />
</svg>