<svg viewBox="0 0 1024 1024" xmlns="http://www.w3.org/2000/svg">
  <path transform="scale(1, -1) translate(0, -960)" fill="currentColor" d="M968 928q-7 0 -11.5 -4.5t-4.5 -11.5v-130h-272v130q0 7 -4.5 11.5t-11.5 4.5t-11.5 -4.5t-4.5 -11.5v-130h-272v130q0 7 -4.5 11.5t-11.5 4.5t-11.5 -4.5t-4.5 -11.5v-130h-272v130q0 7 -4.5 11.5t-11.5 4.5t-11.5 -4.5t-4.5 -11.5v-864q0 -34 24 -58t58 -24h256 q7 0 11.5 4.5t4.5 11.5v252q0 25 10 49t28 42q17 17 38.5 26t44.5 7q23 0 44 -9t38 -26t26 -39t9 -46v-256q0 -7 4.5 -11.5t11.5 -4.5h256q34 0 58 24t24 58v864q-2 7 -6.5 11.5t-11.5 4.5v0zM952 595h-880v155h882v-155h-2zM904 0h-240v240q0 30 -11.5 58t-33.5 49 q-20 21 -47 32.5t-57 12.5q-30 0 -57 -11t-50 -32q-23 -23 -35.5 -53t-12.5 -61v-235h-240q-20 0 -35 14.5t-15 35.5v513h882v-515q0 -19 -14 -33.5t-34 -14.5v0z" />
</svg>