<svg viewBox="0 0 256 256" xmlns="http://www.w3.org/2000/svg">
  <path transform="scale(1, -1) translate(0, -256)" fill="currentColor" d="M244 237q-3 0 -5 -2t-2 -5v-24h-56v24q0 3 -2 5t-5 2t-5.5 -2t-2.5 -5v-82q-19 7 -39.5 7t-37.5 -5v80q0 3 -2 5t-5 2t-5.5 -2t-2.5 -5v-24h-55v24q0 3 -2 5t-5 2t-5 -2t-2 -5v-192q0 -7 5.5 -13t13.5 -6h208q8 0 13.5 5.5t5.5 13.5v192q0 3 -2 5t-5 2zM126 140 q22 0 41 -7v-100h-78v102q18 5 37 5zM19 38v154h57v-159h-52q-2 0 -3.5 1.5t-1.5 3.5zM237 38q0 -2 -1.5 -3.5t-3.5 -1.5h-51v159h56v-154z" />
</svg>