<svg viewBox="0 0 256 256" xmlns="http://www.w3.org/2000/svg">
  <path transform="scale(1, -1) translate(0, -256)" fill="currentColor" d="M232 180h-6v30q0 11 -9 18l-15 13q-7 5 -15.5 5t-14.5 -5l-16 -13q-8 -6 -8 -18v-29h-40v29q0 11 -8 18l-16 13q-6 5 -14.5 5t-14.5 -5l-16 -13q-9 -7 -9 -18v-30h-6q-8 0 -13.5 -5.5t-5.5 -13.5v-133q0 -7 5.5 -13t13.5 -6h57q8 0 13.5 5.5t5.5 13.5v44q0 7 5.5 12.5 t13.5 5.5h19q7 0 12.5 -5.5t5.5 -12.5v-44q0 -7 6 -13t14 -6h56q8 0 13.5 5.5t5.5 13.5v134q0 7 -5.5 12.5t-13.5 5.5zM162 210q0 5 3 7l16 13q2 2 5.5 2t5.5 -2l16 -13q4 -3 4 -7v-30h-50v30zM44 210q0 5 4 7l16 13q2 2 5.5 2t5.5 -2l16 -13q3 -3 3 -7v-30h-50v30zM237 29 q0 -2 -1.5 -3.5t-3.5 -1.5h-57q-2 0 -3.5 1.5t-1.5 3.5v43q0 13 -10 22.5t-23 9.5h-19q-13 0 -22.5 -9.5t-9.5 -22.5v-44q0 -2 -1.5 -3.5t-4.5 -1.5h-56q-2 0 -3.5 1.5t-1.5 3.5v134q0 2 1.5 3.5t3.5 1.5h208q2 0 3.5 -1.5t1.5 -3.5v-133z" />
</svg>