<svg viewBox="0 0 1024 1024" xmlns="http://www.w3.org/2000/svg">
  <path transform="scale(1, -1) translate(0, -960)" fill="currentColor" d="M976 870q-7 0 -11.5 -4t-4.5 -12v-108h-250v108q0 8 -4 12t-12 4q-7 0 -11.5 -4t-4.5 -12v-342q-39 14 -84 21.5t-92 7.5q-42 0 -81.5 -6t-76.5 -18v337q0 8 -4.5 12t-11.5 4t-11.5 -4t-4.5 -12v-108h-248v108q0 8 -4.5 12t-11.5 4t-11.5 -4t-4.5 -12v-764 q0 -27 19 -45.5t45 -18.5h832q26 0 45 18.5t19 45.5v764q0 8 -4.5 12t-11.5 4v0zM502 510q48 0 93 -8t83 -24v-420h-332v427q34 12 74 18.5t82 6.5v0zM64 90v624h250v-216v0v0v-440h-218q-13 0 -22.5 9t-9.5 23v0zM960 90q0 -14 -9.5 -23t-22.5 -9h-218v432v0v0v224h250 v-624z" />
</svg>