<svg viewBox="0 0 1024 1024" xmlns="http://www.w3.org/2000/svg">
  <path transform="scale(1, -1) translate(0, -960)" fill="currentColor" d="M928 549h-147v323q0 7 -4.5 11.5t-11.5 4.5t-11.5 -4.5t-4.5 -11.5v-162h-136v162q0 7 -4.5 11.5t-11.5 4.5t-11.5 -4.5t-4.5 -11.5v-162h-136v162q0 7 -4.5 11.5t-11.5 4.5t-11.5 -4.5t-4.5 -11.5v-162h-136v162q0 7 -4.5 11.5t-11.5 4.5t-11.5 -4.5t-4.5 -11.5v-322 h-149q-26 0 -45 -18.5t-19 -45.5v-412q0 -27 19 -45.5t45 -18.5h832q26 0 45 18.5t19 45.5v411q0 26 -19 45t-45 19zM243 40h-147q-13 0 -22.5 9.5t-9.5 22.5v413q0 13 9.5 22.5t22.5 9.5h147v-477zM443 40v82q0 28 20 48t49 20t49 -20t20 -48v-82h-138v0zM749 40h-136v82 q0 42 -29.5 71t-71.5 29t-71.5 -29t-29.5 -71v-82h-136v637h474v-637zM960 72q0 -13 -9.5 -22.5t-22.5 -9.5h-147v477h147q13 0 22.5 -9.5t9.5 -22.5v-413z" />
</svg>