<svg viewBox="0 0 256 256" xmlns="http://www.w3.org/2000/svg">
  <path transform="scale(1, -1) translate(0, -256)" fill="currentColor" d="M232 156h-34v78q0 3 -2 5t-5 2t-5 -2t-2 -5v-38h-28v38q0 3 -2 5t-5 2t-5 -2t-2 -5v-38h-28v38q0 3 -2.5 5t-5.5 2t-4.5 -2t-1.5 -5v-38h-28v38q0 3 -2 5t-5 2t-5 -2t-2 -5v-78h-34q-8 0 -13.5 -5.5t-5.5 -13.5v-103q0 -8 5.5 -14t13.5 -6h208q8 0 13.5 6t5.5 14v103 q0 8 -5.5 13.5t-13.5 5.5zM58 29h-34q-2 0 -3.5 1.5t-1.5 3.5v103q0 2 1.5 3.5t3.5 1.5h34v-113zM114 29v17q0 6 4 10t10 4t10 -4t4 -10v-17h-28zM184 29h-28v17q0 12 -8 20t-19.5 8t-20 -8t-8.5 -20v-17h-28v153h113v-153h-1zM237 34q0 -2 -1.5 -3.5t-3.5 -1.5h-34v113h34 q2 0 3.5 -1.5t1.5 -3.5v-103z" />
</svg>