<svg viewBox="0 0 1024 1024" xmlns="http://www.w3.org/2000/svg">
  <path transform="scale(1, -1) translate(0, -960)" fill="currentColor" d="M914 -21h-208q-33 0 -56 23t-23 56v65q0 47 -33.5 80.5t-79.5 33.5q-47 0 -80.5 -33.5t-33.5 -80.5v-65q0 -33 -23 -56t-55 -23h-208q-33 0 -56 23t-23 56v780q0 33 23 56t56 23h136q32 0 55 -23t23 -56v-214q0 -2 1 -3l2 -2q1 0 2.5 -0.5t2.5 0.5l158 111q10 7 22 6.5 t20 -6.5l158 -111q2 -1 3.5 -1t1.5 1q1 0 2 1.5t1 3.5v214q0 33 23 56t56 23h136q32 0 55 -23t23 -56v-780q-2 -33 -25.5 -56t-55.5 -23v0zM512 270q60 0 103 -42.5t43 -102.5v-66q0 -19 13.5 -32.5t32.5 -13.5h208q19 0 32.5 13.5t13.5 32.5v779q0 20 -13.5 33.5 t-32.5 13.5h-136q-19 0 -32.5 -13.5t-13.5 -33.5v-214q0 -11 -5.5 -19t-14.5 -13t-19.5 -4t-18.5 6l-158 110q-2 1 -4 1t-3 -1l-158 -110q-9 -6 -19 -7t-20 3q-9 5 -14 14t-5 18v216q0 20 -13.5 33.5t-32.5 13.5h-135q-19 0 -32.5 -13.5t-13.5 -33.5v-780q0 -20 13.5 -33.5 t32.5 -13.5h208q20 0 33.5 13.5t13.5 33.5v65q1 61 44 104t103 43v0z" />
</svg>