<svg viewBox="0 0 256 256" xmlns="http://www.w3.org/2000/svg">
  <path transform="scale(1, -1) translate(0, -256)" fill="currentColor" d="M242 251q-3 0 -5 -2t-2 -5v-30h-62v30q0 3 -2 5t-5 2t-5 -2t-2 -5v-29h-62v29q0 3 -2 5t-5 2t-5 -2t-2 -5v-29h-62v29q0 3 -2 5t-5 2t-5 -2t-2 -5v-216q0 -10 6.5 -16.5t16.5 -6.5h64q3 0 5 2t2 5v62q0 12 8.5 20.5t19.5 8.5t18.5 -8t7.5 -19v-64q0 -3 2 -5.5t5 -2.5h64 q10 0 17 7t7 17v216q-1 3 -3 5t-5 2zM235 168h-214v33h214v-33zM226 19h-57v57q0 17 -12 28.5t-28.5 12t-28.5 -11.5q-6 -6 -9.5 -14t-3.5 -17v-55h-57q-4 0 -6.5 2.5t-2.5 6.5v126h214v-126q0 -4 -2.5 -6.5t-6.5 -2.5z" />
</svg>