<svg viewBox="0 0 1024 1024" xmlns="http://www.w3.org/2000/svg">
  <path transform="scale(1, -1) translate(0, -960)" fill="currentColor" d="M978 782q-8 5 -16 6.5t-16 -1.5l-151 -54v40q0 33 -23 56.5t-57 23.5h-464q-33 0 -56.5 -23.5t-23.5 -56.5v-239q0 -33 23.5 -56.5t56.5 -23.5h255l-124 -228h-179v43q0 26 -18.5 45t-45.5 19h-43q-26 0 -45 -19t-19 -45v-162q0 -26 19 -45t45 -19h43q27 0 45.5 19 t18.5 45v87h189q5 0 8.5 2t5.5 6l136 252h173q34 0 57 23.5t23 56.5v40l151 -54q2 -1 5 -1.5t6 -0.5q5 0 10.5 1.5t10.5 5.5q7 5 10.5 12.5t3.5 16.5v200q0 8 -3.5 16t-10.5 12v0zM171 107q0 -13 -9.5 -22.5t-22.5 -9.5h-43q-13 0 -22.5 9.5t-9.5 22.5v162q0 13 9.5 22.5 t22.5 9.5h43q13 0 22.5 -9.5t9.5 -22.5v-162zM715 486h-464q-20 0 -34 14t-14 34v239q0 20 14 34t34 14h464q21 0 34.5 -14t13.5 -34v-63v0v0v-113v0v0v-63q0 -19 -13.5 -33.5t-34.5 -14.5zM960 554v-2l-2 -2l-1 -0.5t-2 0.5l-160 58v90l160 57h1.5h1.5l1 -1t1 -2v-198z" />
</svg>