<svg viewBox="0 0 256 256" xmlns="http://www.w3.org/2000/svg">
  <path transform="scale(1, -1) translate(0, -256)" fill="currentColor" d="M246 214q-5 4 -11 2l-33 -12v5q0 10 -7 16.5t-17 6.5h-116q-9 0 -15.5 -6.5t-6.5 -16.5v-59q0 -10 7 -17t16 -7h59l-28 -51h-40v8q0 8 -5.5 13.5t-13.5 5.5h-11q-8 0 -13.5 -5.5t-5.5 -13.5v-41q0 -7 5.5 -12.5t13.5 -5.5h11q8 0 13.5 5.5t5.5 13.5v19h44q4 0 6 4l33 61 h42q9 0 16 7t7 16v6l34 -12q2 -1 4.5 -1t5.5 2q6 3 6 10v49q-1 7 -6 10zM40 43q0 -2 -1.5 -3.5t-3.5 -1.5h-11q-2 0 -3.5 1.5t-1.5 3.5v40q0 2 1.5 3.5t3.5 1.5h11q2 0 3.5 -1.5t1.5 -3.5v-40zM179 141h-116q-4 0 -6.5 2.5t-2.5 6.5v59q0 4 2.5 6.5t6.5 2.5h116q3 0 6 -2.5 t3 -6.5v-59q0 -4 -3 -6.5t-6 -2.5zM237 158l-35 12v19l35 13v-44z" />
</svg>