<svg viewBox="0 0 256 256" xmlns="http://www.w3.org/2000/svg">
  <path transform="scale(1, -1) translate(0, -256)" fill="currentColor" d="M225 157h-7v5q0 11 -7.5 18.5t-18.5 7.5h-36q-11 0 -18.5 -7.5t-7.5 -18.5v-5h-7q-11 0 -18.5 -7.5t-7.5 -18.5v-41q0 -10 7.5 -18t18.5 -8h31q3 0 5 2l15 15l15 -15q2 -2 5 -2h31q11 0 18.5 8t7.5 18v40q0 11 -7.5 19t-18.5 8zM156 174h36q5 0 8.5 -3.5t3.5 -8.5v-5h-60 v5q0 5 3.5 8.5t8.5 3.5zM225 78h-28l-18 18q-2 2 -5 2t-5 -2l-17 -18h-28q-5 0 -8.5 3.5t-3.5 8.5v18h16q3 0 5.5 2t2.5 5t-2.5 5t-5.5 2h-16v9q0 5 3.5 8.5t8.5 3.5h102q5 0 8.5 -3.5t3.5 -8.5v-9h-17q-3 0 -5 -2t-2 -5t2 -5t5 -2h17v-18q-1 -5 -4.5 -8.5t-8.5 -3.5z M147 48q-3 0 -5 -2t-2 -5q0 -7 -5 -12t-12 -5h-87q-7 0 -12 5t-5 12v174q0 7 5 12t12 5h11v-9q0 -8 5.5 -13.5t13.5 -5.5h30q8 0 13.5 5.5t5.5 13.5v9h8q7 0 12 -5t5 -12v-6q0 -3 2 -5t5 -2t5 2t2 5v6q0 13 -9 22t-22 9h-87q-13 0 -22 -9.5t-9 -21.5v-174q0 -13 9 -22t22 -9 h87q13 0 22 9.5t9 21.5q0 3 -2 5t-5 2zM101 231v-9q0 -2 -1.5 -3t-3.5 -1h-30q-2 0 -3.5 1.5t-1.5 2.5v10h41q-1 0 -1 -1zM70 55q-3 0 -5 -2t-2 -5t2 -5t5 -2h18q3 0 5.5 2t2.5 5t-2.5 5t-5.5 2h-18z" />
</svg>