<svg viewBox="0 0 1024 1024" xmlns="http://www.w3.org/2000/svg">
  <path transform="scale(1, -1) translate(0, -960)" fill="currentColor" d="M901 549h-37v32q0 37 -26.5 64t-64.5 27h-144q-37 0 -64 -26.5t-27 -64.5v-32h-37q-37 0 -64 -26.5t-27 -64.5v-159q0 -37 26 -64t65 -27h123q4 0 6.5 1t4.5 4l66 65l65 -65q3 -3 5.5 -4t6.5 -1h121q37 0 64 26.5t27 64.5v159q2 38 -24.5 64.5t-64.5 26.5v0zM630 638h144 q24 0 42 -17t18 -42v-32h-263v32q0 25 17.5 42t41.5 17v0zM901 242h-115l-74 72q-5 4 -11.5 4t-10.5 -4l-74 -72h-115q-24 0 -41.5 17t-17.5 42v81h76q8 0 12 4.5t4 11.5q0 8 -4 12t-12 4h-76v45q0 24 17 41.5t42 17.5h398q24 0 41.5 -17t17.5 -42v-45h-76q-8 0 -12 -4 t-4 -12q0 -7 4 -11.5t12 -4.5h78v-81q0 -25 -17 -42t-42 -17v0zM574 125q-7 0 -11.5 -4.5t-4.5 -11.5q0 -33 -23 -56t-55 -23h-338q-32 0 -55 23t-23 56v678q0 33 23 56t55 23h340q32 0 55 -23t23 -56v-24q0 -7 4.5 -11.5t11.5 -4.5t11.5 4.5t4.5 11.5v24q0 46 -32.5 78.5 t-77.5 32.5h-340q-45 0 -77.5 -32.5t-32.5 -78.5v-680q0 -45 32.5 -77.5t77.5 -32.5h340q45 0 77.5 32.5t32.5 77.5q-1 7 -5.5 12.5t-12.5 5.5zM286 752h48q8 0 12 4.5t4 11.5t-4 11.5t-12 4.5h-48q-7 0 -11.5 -4.5t-4.5 -11.5t5 -11.5t11 -4.5zM259 136q0 -7 4.5 -11.5 t11.5 -4.5h72q7 0 11.5 4.5t4.5 11.5t-4.5 11.5t-11.5 4.5h-72q-7 0 -11.5 -4.5t-4.5 -11.5z" />
</svg>