<svg viewBox="0 0 256 256" xmlns="http://www.w3.org/2000/svg">
  <path transform="scale(1, -1) translate(0, -256)" fill="currentColor" d="M225 156h-6v5q0 10 -7.5 17.5t-17.5 7.5h-36q-11 0 -18.5 -7.5t-7.5 -17.5v-5h-6q-10 0 -18 -7.5t-8 -18.5v-39q0 -11 7.5 -18.5t18.5 -7.5h30q3 0 5 2l14 15l15 -15q2 -2 4 -2h31q10 0 17.5 7.5t7.5 18.5v39q1 11 -6.5 18.5t-18.5 7.5zM158 173h36q4 0 7.5 -3.5 t3.5 -8.5v-5h-59v5q0 5 3.5 8.5t8.5 3.5zM225 79h-27l-18 17q-2 2 -4.5 2.5t-5.5 -2.5l-17 -17h-27q-5 0 -8.5 3.5t-3.5 8.5v17h16q3 0 5.5 2.5t2.5 5.5t-2.5 5t-5.5 2h-16v8q0 5 3.5 8t8.5 3h99q5 0 8.5 -3t3.5 -8v-8h-17q-3 0 -5 -2t-2 -5t2 -5.5t5 -2.5h17v-17 q0 -5 -3.5 -8.5t-8.5 -3.5zM144 50q-3 0 -5.5 -2t-2.5 -5q0 -7 -4.5 -12t-11.5 -5h-84q-7 0 -12 5t-5 12v170q0 7 5 11.5t12 4.5h84q7 0 12 -4.5t5 -11.5v-6q0 -3 2 -5t5 -2t5 2t2 5v6q0 12 -9 21t-21 9h-85q-13 0 -22 -9t-9 -21v-170q0 -13 9 -22t22 -9h84q13 0 22 9t9 22 q0 3 -2 5t-5 2zM84 201q3 0 5 2t2 5t-2 5.5t-5 2.5h-12q-3 0 -5.5 -2.5t-2.5 -5.5t2.5 -5t5.5 -2h12zM62 50q0 -3 2 -5t5 -2h18q3 0 5 2t2 5t-2 5t-5 2h-18q-3 0 -5 -2t-2 -5z" />
</svg>