<svg viewBox="0 0 1024 1024" xmlns="http://www.w3.org/2000/svg">
  <path transform="scale(1, -1) translate(0, -960)" fill="currentColor" d="M512 928q-99 0 -186 -38q-88 -38 -153 -103t-103 -153q-38 -87 -38 -186t38 -186q38 -88 103 -153t153 -103q87 -38 186 -38t186 38q88 38 153 103t103 153q38 87 38 186t-38 186q-38 88 -103 153t-153 103q-87 38 -186 38zM512 0q-92 0 -174 35q-81 36 -142 97t-97 142 q-35 82 -35 174t35 174q36 81 96.5 142t142.5 97q82 35 174 35t174 -35q81 -36 142 -96.5t97 -142.5q35 -82 35 -174t-35 -174q-36 -81 -96.5 -142t-142.5 -97q-82 -35 -174 -35zM394 678q-35 0 -60 -25t-25 -59q0 -35 25 -60t60 -25q34 0 59 25t25 60q0 34 -25 59t-59 25z M394 541q-22 0 -37.5 15.5t-15.5 37.5q0 21 15.5 36.5t37.5 15.5q21 0 36.5 -15.5t15.5 -36.5q0 -22 -15.5 -37.5t-36.5 -15.5zM702 250q-15 -15 -35.5 -23t-42.5 -8q-48 0 -82.5 34.5t-34.5 82.5t34.5 82.5t82.5 34.5q17 0 33.5 -5t30.5 -14q6 -4 12.5 -3t9.5 7q4 6 3 12.5 t-7 10.5q-18 12 -38.5 18t-41.5 6q-62 0 -105.5 -44t-43.5 -105t43.5 -105t105.5 -44q27 0 52.5 9.5t46.5 29.5q5 4 5 10.5t-4 11.5t-11.5 5t-12.5 -3v0z" />
</svg>