<svg viewBox="0 0 256 256" xmlns="http://www.w3.org/2000/svg">
  <path transform="scale(1, -1) translate(0, -256)" fill="currentColor" d="M128 251q-33 0 -61.5 -16.5t-45 -45t-16.5 -61.5t16.5 -61.5t45 -45t61.5 -16.5t61.5 16.5t45 45t16.5 61.5t-16.5 61.5t-45 45t-61.5 16.5zM128 19q-29 0 -54 14.5t-40 39.5t-15 55t15 54.5t39.5 39.5t54.5 15t55 -15t39.5 -40t14.5 -54.5t-14.5 -54.5t-39.5 -39.5 t-55 -14.5zM98 189q-10 0 -17 -7t-7 -17.5t7 -17.5t17.5 -7t17.5 7t7 17.5t-7.5 17.5t-17.5 7zM98 154q-4 0 -7 3.5t-3 7.5t3 7t7.5 3t7.5 -3t3 -7t-3 -7.5t-8 -3.5zM174 80q-8 -6 -18.5 -6t-18 7.5t-7.5 18.5t7.5 18.5t18.5 7.5q7 0 14 -4q3 -1 6 -0.5t4.5 3t0.5 5.5t-3 4 q-10 6 -22 6q-17 0 -28.5 -11.5t-11.5 -28.5t11.5 -28.5t28 -11.5t27.5 10q2 2 2 5t-1.5 5t-4.5 2t-5 -2z" />
</svg>