<svg viewBox="0 0 1024 1024" xmlns="http://www.w3.org/2000/svg">
  <path transform="scale(1, -1) translate(0, -960)" fill="currentColor" d="M987 411l-89 163q-5 8 -12.5 12t-16.5 4h-123q-16 0 -26.5 -10.5t-10.5 -25.5v-18h-165q11 32 10 67t-13 67q-16 39 -45 67.5t-67 43.5l-111 41q-72 28 -142 -0.5t-104 -96.5q-34 -70 -11.5 -142.5t88.5 -112.5l94 -56h-141q-12 0 -22 -7.5t-13 -19.5l-32 -120 q-2 -8 0 -17t8 -16l61 -72q5 -6 12.5 -9.5t16.5 -3.5h38q6 -37 35 -62.5t68 -25.5q28 0 52 14t37 37q13 -23 37 -37t53 -14q38 0 67 25.5t35 62.5h111q6 -37 35 -62.5t67 -25.5t67 25.5t35 62.5h44q7 0 13.5 2.5t10.5 6.5l41 37q6 5 9.5 12.5t3.5 14.5v172q0 4 -1 9t-4 8v0z M747 558h123l79 -144h-207v140q0 2 1.5 3t3.5 1zM99 710q22 45 62 69t85 24q15 0 30 -2.5t30 -8.5l110 -42q32 -12 56.5 -36t37.5 -56q14 -33 12.5 -67.5t-16.5 -65.5l-10 -19q-14 -32 -40.5 -54t-60.5 -33q-32 -9 -66.5 -5.5t-64.5 21.5l-102 61q-54 35 -72 96t9 118v0z M526 494l5 12h179v-90h-254q23 13 40.5 33t29.5 45v0zM270 93q-30 0 -51 21t-21 51t21 51t51 21t51 -21t21 -51t-21 -51t-51 -21zM450 93q-30 0 -51 21t-21 51t21 51t51 21t51 -21t21 -51t-21 -51t-51 -21zM766 93q-30 0 -51 21t-21 51t21 51t51 21t51 -21t21 -51t-21 -51 t-51 -21zM958 219l-41 -37l-1 -0.5t-2 -0.5h-44q-6 37 -35 62.5t-67 25.5t-67 -25.5t-35 -62.5h-111q-6 37 -35 62.5t-67 25.5q-29 0 -53 -14.5t-37 -36.5q-13 22 -37 36.5t-52 14.5q-39 0 -68 -25.5t-35 -62.5h-41h-3t-1 1l-60 72q-2 2 -2 3v2l34 120q0 1 1.5 2t2.5 1h858 v-160v-2t-2 -1v0z" />
</svg>