<svg viewBox="0 0 256 256" xmlns="http://www.w3.org/2000/svg">
  <path transform="scale(1, -1) translate(0, -256)" fill="currentColor" d="M193 103h-58v31h32q11 0 18.5 7.5t7.5 18.5v8q0 11 -7.5 18.5t-18.5 7.5h-32v50q0 3 -2 5t-5 2t-5 -2t-2 -5v-50h-32q-11 0 -18.5 -7.5t-7.5 -18.5v-8q0 -11 7.5 -18.5t18.5 -7.5h32v-31h-58q-11 0 -18.5 -7.5t-7.5 -18.5v-8q0 -11 7.5 -18.5t18.5 -7.5h58v-31q0 -3 2 -5 t5 -2t5.5 2t2.5 5v31h58q11 0 18.5 7.5t7.5 18.5v8q-1 11 -8.5 18.5t-18.5 7.5zM77 160v8q0 5 3.5 8.5t8.5 3.5h78q5 0 8.5 -3.5t3.5 -8.5v-8q0 -5 -3.5 -8.5t-8.5 -3.5h-78q-5 0 -8.5 3.5t-3.5 8.5zM205 69q0 -5 -3.5 -8.5t-8.5 -3.5h-130q-5 0 -8.5 3.5t-3.5 8.5v8 q0 5 3.5 8.5t8.5 3.5h131q5 0 8.5 -3.5t3.5 -8.5v-8h-1z" />
</svg>