<svg viewBox="0 0 256 256" xmlns="http://www.w3.org/2000/svg">
  <path transform="scale(1, -1) translate(0, -256)" fill="currentColor" d="M244 243q-3 0 -5 -2t-2 -5v-203q0 -4 -3 -7.5t-8 -3.5h-91v36h45q10 0 17 7t7 17v8q0 10 -7 17t-17 7h-45v27h29q10 0 17 7t7 17v8q0 10 -7 17t-17 7h-29v36h65q3 0 5 2t2 5t-2 5.5t-5 2.5h-144q-3 0 -5 -2.5t-2 -5.5t2 -5t5 -2h65v-35h-29q-10 0 -17 -7t-7 -17v-8 q0 -10 7 -17t17 -7h29v-27h-44q-10 0 -17.5 -7t-7.5 -18v-7q0 -10 7.5 -17.5t17.5 -7.5h44v-35h-91q-5 0 -8 3t-3 8v202q0 3 -2 5t-5 2t-5 -2t-2 -5v-203q0 -10 7 -17t18 -7h197q10 0 17 7t7 17v203q0 3 -2 5t-5 2zM82 166v7q0 4 3 7.5t7 3.5h72q4 0 7 -3.5t3 -7.5v-7 q0 -5 -3 -8t-7 -3h-72q-4 0 -7 3t-3 8zM66 82v8q0 4 3.5 7t7.5 3h102q4 0 7.5 -3t3.5 -7v-8q0 -4 -3.5 -7t-7.5 -3h-102q-4 0 -7.5 3t-3.5 7z" />
</svg>