<svg viewBox="0 0 256 256" xmlns="http://www.w3.org/2000/svg">
  <path transform="scale(1, -1) translate(0, -256)" fill="currentColor" d="M128 251q-33 0 -61.5 -16.5t-45 -45t-16.5 -61.5t16.5 -61.5t45 -45t61.5 -16.5t61.5 16.5t45 45t16.5 61.5t-16.5 61.5t-45 45t-61.5 16.5zM128 19q-29 0 -54 14.5t-40 39.5t-15 55t15 54.5t39.5 39.5t54.5 15t55 -15t39.5 -40t14.5 -54.5t-14.5 -54.5t-39.5 -39.5 t-55 -14.5zM159 151q2 -2 4.5 -2.5t5 1.5t3 5t-1.5 5q-8 10 -19 16l5 20q1 2 -0.5 4.5t-4 3.5t-5.5 -0.5t-3 -4.5l-5 -19l-10 1q-12 0 -23 -5.5t-19 -15.5q-10 -15 -10 -32t9.5 -30t24.5 -19l-4 -14q0 -2 1 -5t4 -3l2 -1q3 0 4.5 1.5t2.5 4.5l4 14l4 -1q13 0 23.5 5.5 t18.5 15.5q2 2 1.5 5t-2.5 5t-5 1.5t-5 -2.5q-6 -7 -14 -11t-17 -4v0l19 72q8 -5 12 -11zM114 92q-10 4 -17 13.5t-7 22.5t7 24q6 7 14 11t17 4l6 -1z" />
</svg>