<svg viewBox="0 0 256 256" xmlns="http://www.w3.org/2000/svg">
  <path transform="scale(1, -1) translate(0, -256)" fill="currentColor" d="M128 251q-3 0 -5.5 -2t-2.5 -5v-232q0 -3 2.5 -5t5.5 -2t5 2t2 5v232q0 3 -2 5t-5 2zM38 128q0 -3 2.5 -5t5.5 -2h38q3 0 5.5 2t2.5 5t-2.5 5t-5.5 2h-38q-3 0 -5.5 -2t-2.5 -5zM171 135q-3 0 -5 -2t-2 -5t2 -5.5t5 -2.5h39q3 0 5 2.5t2 5.5t-2 5t-5 2h-39zM203 237h23 q4 0 7 -3t3 -8v-23q0 -3 2.5 -5t5.5 -2t5 2t2 5v23q0 11 -7 18t-18 7h-23q-3 0 -5 -2t-2 -5t2 -5t5 -2zM12 196q3 0 5 2t2 5v23q0 5 3 8t8 3h23q3 0 5 2t2 5t-2 5t-5 2h-24q-10 0 -17 -7.5t-7 -17.5v-23q0 -3 2 -5t5 -2zM52 19h-23q-4 0 -7 3t-3 8v23q0 3 -2 5t-5 2t-5 -2 t-2 -5v-23q0 -11 7 -18t17 -7h23q3 0 5.5 2t2.5 5t-2.5 5t-5.5 2zM243 60q-3 0 -5 -2t-2 -5v-23q0 -5 -3 -8t-7 -3h-24q-3 0 -5 -2t-2 -5t2 -5t5 -2h24q10 0 17 7t7 17v23q0 4 -2 6t-5 2zM88 19h-6q-3 0 -5 -2t-2 -5t2 -5t5 -2h6q3 0 5 2t2 5t-2 5t-5 2zM175 19h-6 q-3 0 -5 -2t-2 -5t2 -5t5 -2h6q3 0 5 2t2 5t-2 5t-5 2zM88 251h-6q-3 0 -5 -2t-2 -5t2 -5.5t5 -2.5h6q3 0 5 2.5t2 5.5t-2 5t-5 2zM169 237h5q3 0 5.5 2t2.5 5t-2.5 5t-5.5 2h-5q-3 0 -5 -2t-2 -5t2 -5t5 -2zM244 181q-3 0 -5 -2t-2 -5v-6q0 -3 2 -5t5 -2t5 2t2 5v6 q0 3 -2 5t-5 2zM244 94q-3 0 -5 -2t-2 -5v-5q0 -3 2 -5.5t5 -2.5t5 2.5t2 5.5v5q0 3 -2 5t-5 2zM20 174q0 3 -2.5 5.5t-5.5 2.5t-5 -2.5t-2 -5.5v-5q0 -3 2 -5t5 -2t5.5 2t2.5 5v5zM13 94q-3 0 -5 -2t-2 -5v-5q0 -3 2 -5.5t5 -2.5t5 2.5t2 5.5v5q0 3 -2.5 5t-4.5 2z" />
</svg>