<svg viewBox="0 0 1024 1024" xmlns="http://www.w3.org/2000/svg">
  <path transform="scale(1, -1) translate(0, -960)" fill="currentColor" d="M512 928q-99 0 -186 -38q-88 -38 -153 -103t-103 -153q-38 -87 -38 -186t38 -186q38 -88 103 -153t153 -103q87 -38 186 -38t186 38q88 38 153 103t103 153q38 87 38 186t-38 186q-38 88 -103 153t-153 103q-87 38 -186 38zM512 0q-92 0 -174 35q-81 36 -142 97t-97 142 q-35 82 -35 174t35 174q36 81 96.5 142t142.5 97q82 35 174 35t174 -35q81 -36 142 -96.5t97 -142.5q35 -82 35 -174t-35 -174q-36 -81 -96.5 -142t-142.5 -97q-82 -35 -174 -35zM645 547q3 -5 10 -6t12 3t6 11t-3 11q-16 22 -36.5 38t-44.5 26l24 88q1 6 -2 12t-9 8 q-6 1 -12 -2.5t-8 -9.5l-24 -86q-10 2 -22 3.5t-24 1.5q-47 0 -88.5 -20.5t-69.5 -58.5q-20 -25 -30 -55.5t-10 -64.5q0 -33 10 -63t30 -55q19 -26 44.5 -44t55.5 -26l-17 -66q-1 -6 2 -12t9 -7h2.5h2.5q5 0 9 3t7 8l17 67q6 -1 13 -1h13q47 0 88.5 20.5t69.5 57.5q4 5 3 12 t-6 10q-5 4 -12 3t-10 -6q-24 -31 -58.5 -48t-74.5 -17h-9t-9 1l85 317q19 -8 36 -21.5t30 -31.5v0zM464 290q-25 7 -46.5 22t-38.5 37q-17 21 -25 47t-8 52q0 28 8 53t25 46q24 31 58.5 48.5t74.5 17.5q10 0 19 -1.5t18 -3.5l-85 -318v0z" />
</svg>