<svg viewBox="0 0 1024 1024" xmlns="http://www.w3.org/2000/svg">
  <path transform="scale(1, -1) translate(0, -960)" fill="currentColor" d="M226 880h572q8 0 12 4.5t4 11.5t-4 11.5t-12 4.5h-572q-8 0 -12 -4.5t-4 -11.5t5 -11.5t11 -4.5v0zM976 898q-7 0 -11.5 -4.5t-4.5 -11.5v-418h-181v126q0 35 -25 60t-60 25h-30q-36 0 -60.5 -25t-24.5 -60v-126h-131v189q0 36 -25 61t-60 25h-30q-36 0 -61.5 -25 t-25.5 -61v-189h-182v418q0 7 -4.5 11.5t-11.5 4.5t-11.5 -4.5t-4.5 -11.5v-813q0 -36 25 -60.5t61 -24.5h789q36 0 60.5 25t24.5 60v813q0 6 -4.5 11t-11.5 5v0zM610 590q0 22 15.5 37.5t36.5 15.5h31q21 0 37 -15.5t16 -37.5v-142v0v0v0v0v-142q0 -22 -16 -38.5t-37 -16.5 h-31q-21 0 -36.5 16t-15.5 39v284v0zM330 707h30q22 0 37.5 -15.5t15.5 -38.5v-410q0 -21 -15.5 -37t-37.5 -16h-30q-22 0 -38.5 16t-16.5 37v205v0v0v0v0v205q1 23 17 38.5t38 15.5zM907 16h-789q-22 0 -38 15.5t-16 37.5v363h181v-189q0 -36 25 -60.5t61 -24.5h31 q34 0 59 25t25 60v189h132v-126q0 -36 25 -61.5t59 -25.5h31q36 0 60.5 25.5t24.5 61.5v126h182v-363q0 -22 -15.5 -37.5t-37.5 -15.5z" />
</svg>