<svg viewBox="0 0 256 256" xmlns="http://www.w3.org/2000/svg">
  <path transform="scale(1, -1) translate(0, -256)" fill="currentColor" d="M221 251h-186q-12 0 -21 -9t-9 -21v-186q0 -12 9 -21t21 -9h186q12 0 21 9t9 21v186q0 12 -9 21t-21 9zM237 35q0 -6 -4.5 -11t-11.5 -5h-186q-6 0 -11 5t-5 11v186q0 6 5 11t11 5h186q6 0 11 -5t5 -11v-186zM128 158q3 0 5 2t2 5v39q0 3 -2 5t-5 2t-5 -2t-2 -5v-39 q0 -3 2 -5t5 -2zM128 98q-3 0 -5 -2t-2 -5v-39q0 -3 2 -5t5 -2t5 2t2 5v39q0 3 -2 5t-5 2zM84 135h-38q-3 0 -5.5 -2t-2.5 -5t2.5 -5.5t5.5 -2.5h38q3 0 5.5 2.5t2.5 5.5t-2.5 5t-5.5 2zM210 135h-38q-3 0 -5.5 -2t-2.5 -5t2.5 -5.5t5.5 -2.5h38q3 0 5.5 2.5t2 5.5t-2.5 5 t-5 2zM116 128q0 -5 3.5 -8.5t8.5 -3.5t8.5 3.5t3.5 8.5t-3.5 8.5t-8.5 3.5t-8.5 -3.5t-3.5 -8.5z" />
</svg>