<svg viewBox="0 0 1024 1024" xmlns="http://www.w3.org/2000/svg">
  <path transform="scale(1, -1) translate(0, -960)" fill="currentColor" d="M976 898q-7 0 -11.5 -4.5t-4.5 -11.5v-813q0 -22 -15.5 -37.5t-37.5 -15.5h-379v165h189q36 0 60.5 25t24.5 60v30q0 36 -25 60.5t-60 24.5h-189v131h126q36 0 61.5 25t25.5 60v30q0 36 -25.5 61.5t-61.5 25.5h-126v166h270q8 0 12 4.5t4 11.5t-4 11.5t-12 4.5h-572 q-8 0 -12 -4.5t-4 -11.5t4 -11.5t12 -4.5h270v-165h-126q-35 0 -60 -25t-25 -61v-31q0 -34 25 -59t60 -25h126v-132h-189q-36 0 -61 -25t-25 -59v-31q0 -36 25 -60.5t61 -24.5h189v-166h-378q-22 0 -38 15.5t-16 37.5v813q0 7 -4.5 11.5t-11.5 4.5t-11.5 -4.5t-4.5 -11.5 v-813q0 -36 25 -60.5t61 -24.5h789q36 0 60.5 25t24.5 60v813q0 6 -4.5 11t-11.5 5v0zM315 598v31q0 21 15.5 37.5t37.5 16.5h144v0v0v0v0h142q22 0 38.5 -15.5t16.5 -38.5v-31q0 -21 -16 -36.5t-39 -15.5h-284q-23 0 -39 15.5t-16 36.5zM253 266v30q0 22 15.5 37.5 t38.5 15.5h410q21 0 37 -15.5t16 -37.5v-30q0 -22 -16 -37.5t-37 -15.5h-205v0v0v0v0h-205q-23 0 -38.5 15.5t-15.5 37.5v0z" />
</svg>