<svg viewBox="0 0 1024 1024" xmlns="http://www.w3.org/2000/svg">
  <path transform="scale(1, -1) translate(0, -960)" fill="currentColor" d="M976 464h-136v141q0 38 -27 64.5t-64 26.5h-34q-38 0 -64.5 -27t-26.5 -64v-141h-222v245q0 38 -27 64.5t-65 26.5h-33q-39 0 -65 -27t-26 -64v-245h-138q-7 0 -11.5 -4.5t-4.5 -11.5t4.5 -11.5t11.5 -4.5h136v-245q0 -38 27 -64.5t64 -26.5h34q38 0 64.5 27t26.5 64v245 h221v-141q0 -38 27 -64.5t64 -26.5h34q38 0 64.5 27t26.5 64v141h139q7 0 11.5 4.5t4.5 11.5t-4.5 11.5t-11.5 4.5zM370 187q0 -25 -18 -42t-42 -17h-33q-25 0 -42 17.5t-17 41.5v261v0v0v0v0v261q0 25 17.5 42t41.5 17h33q26 0 43 -17.5t17 -41.5v-522zM749 232h-34 q-25 0 -42 17.5t-17 41.5v314q0 25 17.5 42t41.5 17h34q25 0 42 -17.5t17 -41.5v-157v0v0v0v0v-155q0 -25 -17.5 -43t-41.5 -18v0z" />
</svg>