<svg viewBox="0 0 1024 1024" xmlns="http://www.w3.org/2000/svg">
  <path transform="scale(1, -1) translate(0, -960)" fill="currentColor" d="M48 432h925q7 0 11.5 4.5t4.5 11.5t-4.5 11.5t-11.5 4.5h-925q-7 0 -11.5 -4.5t-4.5 -11.5t4.5 -11.5t11.5 -4.5zM510 605q8 0 12 4.5t4 11.5v155q0 7 -4 11.5t-12 4.5q-7 0 -11.5 -4.5t-4.5 -11.5v-155q0 -6 5 -11t11 -5zM510 291q-7 0 -11.5 -4.5t-4.5 -11.5v-155 q0 -7 4.5 -11.5t11.5 -4.5q8 0 12 4.5t4 11.5v155q0 6 -4 11t-12 5zM811 894h93q22 0 37.5 -15.5t15.5 -36.5v-93q0 -7 4.5 -11.5t11.5 -4.5t11.5 4.5t4.5 11.5v93q0 34 -25 59t-60 25h-93q-7 0 -11.5 -4t-4.5 -12q0 -7 4.5 -11.5t11.5 -4.5zM48 733q7 0 11.5 4.5t4.5 11.5 v93q0 21 15.5 36.5t37.5 15.5h93q7 0 11.5 4.5t4.5 11.5q0 8 -4.5 12t-11.5 4h-93q-35 0 -60 -25t-25 -59v-93q0 -7 4.5 -11.5t11.5 -4.5zM210 2h-93q-22 0 -37.5 15.5t-15.5 36.5v93q0 7 -4.5 11.5t-11.5 4.5t-11.5 -4.5t-4.5 -11.5v-93q0 -34 25 -59t60 -25h93q7 0 11.5 4 t4.5 12q0 7 -4.5 11.5t-11.5 4.5zM973 163q-7 0 -11.5 -4.5t-4.5 -11.5v-93q0 -21 -15.5 -36.5t-37.5 -15.5h-93q-7 0 -11.5 -4.5t-4.5 -11.5q0 -8 4.5 -12t11.5 -4h93q35 0 60 25t25 59v93q0 7 -4.5 11.5t-11.5 4.5zM352 2h-22q-8 0 -12 -4.5t-4 -11.5q0 -8 4 -12t12 -4h22 q7 0 11.5 4t4.5 12q0 7 -5 11.5t-11 4.5zM699 2h-22q-7 0 -11.5 -4.5t-4.5 -11.5q0 -8 4.5 -12t11.5 -4h22q7 0 11.5 4t4.5 12q0 7 -5 11.5t-11 4.5zM328 894h24q7 0 11.5 4.5t4.5 11.5q0 8 -4.5 12t-11.5 4h-22q-8 0 -12 -4t-4 -12q0 -7 4 -11.5t10 -4.5zM675 894h23 q7 0 11.5 4.5t4.5 11.5q0 8 -4.5 12t-11.5 4h-23q-7 0 -11.5 -4t-4.5 -12q0 -7 5 -11.5t11 -4.5zM976 650q-7 0 -11.5 -4.5t-4.5 -11.5v-23q0 -7 4.5 -11.5t11.5 -4.5t11.5 4.5t4.5 11.5v23q0 6 -4.5 11t-11.5 5zM976 302q-7 0 -11.5 -4t-4.5 -12v-22q0 -7 4.5 -11.5 t11.5 -4.5t11.5 4.5t4.5 11.5v22q0 6 -4.5 11t-11.5 5zM51 650q-7 0 -11.5 -4.5t-4.5 -11.5v-23q0 -7 4.5 -11.5t11.5 -4.5t11.5 4.5t4.5 11.5v23q0 6 -5 11t-11 5zM35 286v-22q0 -7 4.5 -11.5t11.5 -4.5t11.5 4.5t4.5 11.5v22q0 8 -4.5 12t-11.5 4t-11.5 -5t-4.5 -11z" />
</svg>