<svg viewBox="0 0 1024 1024" xmlns="http://www.w3.org/2000/svg">
  <path transform="scale(1, -1) translate(0, -960)" fill="currentColor" d="M883 928h-742q-45 0 -77 -32t-32 -77v-742q0 -45 32 -77t77 -32h742q45 0 77 32t32 77v742q0 45 -32 77t-77 32v0zM960 77q0 -31 -23 -54t-54 -23h-742q-31 0 -54 23t-23 54v742q0 31 23 54t54 23h742q31 0 54 -23t23 -54v-742zM512 578q7 0 11.5 4t4.5 12v155 q0 7 -4.5 11.5t-11.5 4.5t-11.5 -4.5t-4.5 -11.5v-155q0 -6 4.5 -11t11.5 -5zM512 318q-7 0 -11.5 -4t-4.5 -12v-155q0 -7 4.5 -11.5t11.5 -4.5t11.5 4.5t4.5 11.5v155q0 6 -4.5 11t-11.5 5v0zM338 464h-156q-7 0 -11.5 -4.5t-4.5 -11.5t4.5 -11.5t11.5 -4.5h156 q7 0 11.5 4.5t4.5 11.5t-4.5 11.5t-11.5 4.5zM842 464h-156q-7 0 -11.5 -4.5t-4.5 -11.5t4.5 -11.5t11.5 -4.5h156q7 0 11.5 4.5t4.5 11.5t-5 11.5t-11 4.5v0zM558 448q0 -19 -13.5 -32.5t-32.5 -13.5t-32.5 13.5t-13.5 32.5t13.5 32.5t32.5 13.5t32.5 -13.5t13.5 -32.5z " />
</svg>