<svg viewBox="0 0 1024 1024" xmlns="http://www.w3.org/2000/svg">
  <path transform="scale(1, -1) translate(0, -960)" fill="currentColor" d="M773 338h-245v145h141q38 0 64.5 27t26.5 64v34q0 38 -27 64.5t-64 26.5h-141v213q0 7 -4.5 11.5t-11.5 4.5t-11.5 -4.5t-4.5 -11.5v-211h-141q-38 0 -64.5 -27t-26.5 -64v-34q0 -38 27 -64.5t64 -26.5h141v-146h-245q-38 0 -64.5 -27t-26.5 -64v-34q0 -38 27 -64.5 t64 -26.5h245v-139q0 -7 4.5 -11.5t11.5 -4.5t11.5 4.5t4.5 11.5v136h245q38 0 64.5 27t26.5 64v34q1 38 -26 65.5t-65 27.5zM296 574v34q0 25 17.5 42t41.5 17h157v0v0v0v0h155q25 0 42 -17.5t17 -41.5v-34q0 -25 -17.5 -42t-41.5 -17h-312q-24 0 -41.5 17t-17.5 42v0z M834 211q0 -25 -18 -42t-42 -17h-262v0v0v0v0h-261q-25 0 -42 17.5t-17 41.5v34q0 25 17.5 42t41.5 17h523q26 0 43 -17.5t17 -41.5v-34v0z" />
</svg>