<svg viewBox="0 0 256 256" xmlns="http://www.w3.org/2000/svg">
  <path transform="scale(1, -1) translate(0, -256)" fill="currentColor" d="M56 233h144q3 0 5 2t2 5t-2 5.5t-5 2.5h-144q-3 0 -5 -2.5t-2 -5.5t2.5 -5t4.5 -2zM244 243q-3 0 -5 -2t-2 -5v-101h-39v29q0 10 -7.5 17t-17.5 7h-7q-11 0 -18 -7t-7 -17v-29h-27v44q0 10 -7 17.5t-17 7.5h-8q-10 0 -17 -7.5t-7 -17.5v-44h-39v101q0 3 -2 5t-5 2t-5 -2 t-2 -5v-203q0 -10 7 -17t18 -7h197q10 0 17 7t7 17v203q0 3 -2 5t-5 2zM155 164q0 4 3 7t8 3h7q4 0 7.5 -3t3.5 -7v-72q0 -4 -3.5 -7t-7.5 -3h-7q-5 0 -8 3t-3 7v72zM82 190h8q4 0 7 -3.5t3 -7.5v-102q0 -4 -3 -7.5t-7 -3.5h-8q-4 0 -7 3.5t-3 7.5v102q0 4 3 7.5t7 3.5z M227 23h-197q-5 0 -8 3t-3 7v88h39v-45q0 -10 7.5 -17t17.5 -7h7q11 0 18 7t7 17v45h27v-29q0 -10 7 -17t17 -7h8q10 0 17 7t7 17v29h39v-88q0 -4 -3 -7t-7 -3z" />
</svg>