<svg viewBox="0 0 1024 1024" xmlns="http://www.w3.org/2000/svg">
  <path transform="scale(1, -1) translate(0, -960)" fill="currentColor" d="M850 766l-164 143q-10 9 -23 14t-26 5h-413q-31 0 -53 -23t-22 -54v-806q0 -33 22 -55t53 -22h181q7 0 11.5 4.5t4.5 11.5t-4.5 11.5t-11.5 4.5h-181q-18 0 -30.5 13.5t-12.5 31.5v806q0 18 12.5 31.5t30.5 13.5h411q7 0 15 -2.5t14 -8.5l163 -143q7 -6 11.5 -15t4.5 -18 v-664q0 -18 -12.5 -31.5t-30.5 -13.5q-7 0 -11.5 -4.5t-4.5 -11.5t4.5 -11.5t11.5 -4.5q31 0 53 23t22 54v664q0 17 -6.5 32t-18.5 25v0zM739 162l-80 11l-35 73q-4 9 -14.5 9t-14.5 -9l-35 -73l-80 -11q-5 -2 -8.5 -4.5t-4.5 -7.5q-1 -4 0 -8.5t3 -7.5l58 -57l-14 -82 q-2 -5 0 -9t6 -7q4 -2 8.5 -2.5t9.5 1.5l72 38l72 -38q1 -2 3 -2h5q2 0 4.5 1t4.5 2q4 3 6 7t1 9l-15 82l58 57q3 4 4 8.5t-1 7.5q-1 4 -4.5 7t-8.5 5v0zM662 93q-2 -3 -3 -7t-1 -8l9 -57l-49 27q-2 1 -4 1.5t-4 0.5q-3 0 -4.5 -0.5t-3.5 -1.5l-50 -27l10 57q1 4 -1 7.5 t-4 7.5l-42 41l56 8q4 0 7.5 3t5.5 7l26 51l25 -51q1 -4 4.5 -6t8.5 -4l56 -8zM312 726h216q7 0 11.5 4.5t4.5 11.5q0 8 -4.5 12t-11.5 4h-216q-7 0 -11.5 -4t-4.5 -12q0 -7 5 -11.5t11 -4.5zM312 586h371q7 0 11.5 4t4.5 12q0 7 -4.5 11.5t-11.5 4.5h-371q-7 0 -11.5 -4.5 t-4.5 -11.5q0 -8 5 -12t11 -4v0zM312 427h371q7 0 11.5 4.5t4.5 11.5t-4.5 11.5t-11.5 4.5h-371q-7 0 -11.5 -4.5t-4.5 -11.5t5 -11.5t11 -4.5v0z" />
</svg>