<svg viewBox="0 0 256 256" xmlns="http://www.w3.org/2000/svg">
  <path transform="scale(1, -1) translate(0, -256)" fill="currentColor" d="M214 211l-39 34q-7 6 -17 6h-100q-10 0 -18 -7.5t-8 -18.5v-194q0 -11 8 -18.5t18 -7.5h52q3 0 5 2t2 5t-2 5t-5 2h-52q-4 0 -8 3.5t-4 8.5v194q0 5 3.5 8.5t8.5 3.5h100q5 0 8 -3l39 -33q4 -4 4 -9v-169q0 -2 -1 -3t-3.5 -1t-4.5 -2t-2 -5t2.5 -5.5t5.5 -2.5 q7 0 12.5 5.5t5.5 12.5v170q0 11 -10 19zM77 195h55q3 0 5.5 2t2.5 5t-2.5 5t-5.5 2h-55q-3 0 -5 -2t-2 -5t2 -5t5 -2zM77 159h95q3 0 5 2t2 5t-2 5.5t-5 2.5h-95q-3 0 -5 -2.5t-2 -5.5t2 -5t5 -2zM77 125h95q3 0 5 2t2 5t-2 5t-5 2h-95q-3 0 -5 -2t-2 -5t2 -5t5 -2z M157 106q-13 0 -22.5 -9t-9.5 -22q0 -7 3 -13.5t8 -10.5v-39q0 -4 4 -6q1 -1 3 -1l4 1l10 6l11 -6q3 -2 6.5 0t3.5 6v39q11 10 10.5 23.5t-9.5 22.5t-22 9zM157 92q7 0 12 -5t5 -12t-5 -12.5t-12 -5.5t-12.5 5.5t-5.5 12.5t5.5 12t12.5 5zM164 24l-4 2q-3 2 -6 0l-4 -2v20 q4 -1 7 -1l7 1v-20z" />
</svg>