<svg viewBox="0 0 1024 1024" xmlns="http://www.w3.org/2000/svg">
  <path transform="scale(1, -1) translate(0, -960)" fill="currentColor" d="M850 771l-157 135q-12 10 -28 16t-31 6h-400q-39 0 -65.5 -27t-26.5 -64v-778q0 -38 27 -64.5t65 -26.5h206q7 0 11.5 4.5t4.5 11.5t-4.5 11.5t-11.5 4.5h-206q-24 0 -42 17.5t-18 41.5v778q0 24 18 41.5t42 17.5h400q10 0 20 -3.5t18 -10.5l157 -135q9 -8 15 -19.5 t6 -25.5v-675q0 -11 -8.5 -19t-19.5 -8q-7 0 -11.5 -4.5t-4.5 -11.5t4.5 -11.5t11.5 -4.5q24 0 42 17.5t18 41.5v675q0 21 -8.5 38.5t-23.5 30.5v0zM309 726h221q7 0 11.5 4.5t4.5 11.5q0 8 -4.5 12t-11.5 4h-221q-7 0 -11.5 -4t-4.5 -12q0 -7 4.5 -11.5t11.5 -4.5zM309 586 h377q8 0 12 4t4 12q0 7 -4 11.5t-12 4.5h-377q-7 0 -11.5 -4.5t-4.5 -11.5q0 -8 4.5 -12t11.5 -4v0zM309 446h377q8 0 12 4.5t4 11.5q0 8 -4 12t-12 4h-377q-7 0 -11.5 -4t-4.5 -12q0 -7 4.5 -11.5t11.5 -4.5v0zM627 349q-47 0 -80 -33.5t-33 -80.5q0 -26 11 -49.5t32 -39.5 v-162q0 -5 2 -8.5t6 -5.5q3 -3 7.5 -3t8.5 3l46 27l47 -27q2 -2 3.5 -2h4.5h3.5t4.5 2t5.5 5.5t2.5 8.5v163q19 16 31 39t12 51q0 47 -33.5 79.5t-80.5 32.5v0zM667 11l-30 18q-4 2 -8.5 2t-7.5 -2l-31 -18v117q10 -4 19.5 -5t19.5 -1q11 0 20.5 2t17.5 4v-117zM627 154 q-33 0 -57 24t-24 57q0 34 24 58t57 24q34 0 58 -24t24 -58q0 -33 -24 -57t-58 -24z" />
</svg>