<svg viewBox="0 0 1024 1024" xmlns="http://www.w3.org/2000/svg">
  <path transform="scale(1, -1) translate(0, -960)" fill="currentColor" d="M912 379h-88v440q0 43 -29.5 75t-71.5 34v0h-5v0h-1h-517q-70 0 -119 -51t-49 -123v-71q0 -17 11.5 -28.5t28.5 -11.5h128v-464q0 -35 25 -60t61 -25h82v-105q0 -6 3 -11.5t8 -7.5q4 -2 6.5 -2h6.5t6.5 1t4.5 2l88 56l87 -56l1 -1q6 -3 12 -3t11 3q4 2 6.5 7.5t2.5 11.5 v104h301q34 0 57 23t23 57v125q0 34 -23 57.5t-57 23.5v0zM64 683v71q0 58 40 100t96 42h419q-18 -17 -28 -40t-10 -50v-123q0 -3 -2.5 -5.5t-5.5 -2.5h-501q-4 0 -6 2.5t-2 5.5v0zM491 219q-54 0 -92.5 38t-38.5 92t38.5 91.5t92.5 37.5t92.5 -37.5t38.5 -91.5t-38.5 -92 t-92.5 -38zM507 56q-7 5 -16 5t-16 -5l-73 -48v206q19 -12 41.5 -19.5t47.5 -7.5t48 7t42 20v-206l-74 48v0zM613 126v116q19 21 30 48.5t11 58.5q0 67 -48 114t-115 47t-115 -47t-48 -114q0 -31 11 -58.5t31 -48.5v-116h-82q-23 0 -38.5 16t-15.5 37v464h339 q17 0 28.5 11.5t11.5 28.5v123q0 36 23 62t55 28h27q32 0 53 -22t21 -55v-693h-179zM960 174q0 -20 -14 -34t-34 -14h-90v221h90q20 0 34 -13.5t14 -34.5v-125v0z" />
</svg>