<svg viewBox="0 0 256 256" xmlns="http://www.w3.org/2000/svg">
  <path transform="scale(1, -1) translate(0, -256)" fill="currentColor" d="M214 210l-41 36q-6 5 -14 5h-103q-9 0 -15.5 -6.5t-6.5 -16.5v-201q0 -9 6.5 -16t15.5 -7h45q3 0 5 2.5t2 5.5t-2 5t-5 2h-45q-3 0 -5.5 2.5t-2.5 5.5v202q0 3 2.5 5.5t5.5 2.5h103q2 0 5 -2l41 -35q3 -3 3 -7v-166q0 -3 -2.5 -5.5t-5.5 -2.5t-5.5 -2t-2.5 -5t2.5 -5.5 t5.5 -2.5q9 0 15.5 7t6.5 16v166q0 5 -2 9.5t-6 7.5zM186 59l-19 3l-8 17q-2 4 -6.5 4t-6.5 -4l-8 -17l-19 -3q-4 0 -5.5 -4t1.5 -8l13 -13l-3 -19q0 -4 3 -7q1 -1 3.5 -1t3.5 1l17 9l17 -9l2 -1q2 0 4 1q4 3 3 7l-2 19l13 13q3 3 2 7t-5 5zM164 42q-3 -3 -2 -6l1 -9l-8 4 l-3 1q-1 0 -3 -1l-7 -4l1 9q1 3 -2 6l-6 6l9 1q4 0 5 4l3 7l4 -7q2 -4 5 -4l9 -1zM78 195h54q3 0 5 2t2 5t-2 5t-5 2h-54q-3 0 -5 -2t-2 -5t2 -5t5 -2zM78 159h93q3 0 5 2t2 5t-2 5.5t-5 2.5h-93q-3 0 -5 -2.5t-2 -5.5t2 -5t5 -2zM78 120h93q3 0 5 2t2 5t-2 5t-5 2h-93 q-3 0 -5 -2t-2 -5t2 -5t5 -2z" />
</svg>