<svg viewBox="0 0 1024 1024" xmlns="http://www.w3.org/2000/svg">
  <path transform="scale(1, -1) translate(0, -960)" fill="currentColor" d="M869 390h-10v445q0 39 -27 66t-66 27h-508q-39 0 -66 -27t-27 -66v-445h-10q-7 0 -11.5 -4t-4.5 -12v-182q0 -7 4.5 -11.5t11.5 -4.5h48v-192q0 -7 4.5 -11.5t11.5 -4.5t11.5 4.5t4.5 11.5v190h554v-190q0 -7 4.5 -11.5t11.5 -4.5t11.5 4.5t4.5 11.5v190h48q7 0 11.5 4.5 t4.5 11.5v184q0 6 -4.5 11t-11.5 5zM827 835v-445h-152v506h91q26 0 43.5 -18t17.5 -43zM381 390v506h261v-506h-261zM197 835q0 25 17.5 43t43.5 18h91v-506h-152v445zM853 206h-682v151h683v-151h-1z" />
</svg>