<svg viewBox="0 0 1024 1024" xmlns="http://www.w3.org/2000/svg">
  <path transform="scale(1, -1) translate(0, -960)" fill="currentColor" d="M806 290v0v0l-88 206v416q0 7 -4 11.5t-12 4.5q-7 0 -11.5 -4.5t-4.5 -11.5v-59h-348v59q0 7 -4.5 11.5t-11.5 4.5q-8 0 -12 -4.5t-4 -11.5v-416l-88 -206q-2 -2 -2 -4v-3v-299q0 -7 4.5 -11.5t11.5 -4.5t11.5 4.5t4.5 11.5v283h117v-185q0 -8 4.5 -12t11.5 -4t11.5 4 t4.5 12v185h192v-185q0 -8 4.5 -12t11.5 -4t11.5 4t4.5 12v185h153v-283q0 -7 4.5 -11.5t11.5 -4.5q8 0 12 4.5t4 11.5v299v4v3zM258 299l75 178h358l75 -178h-508v0zM686 509h-348v131h348v-131zM686 821v-147h-348v147h348z" />
</svg>