<svg viewBox="0 0 1024 1024" xmlns="http://www.w3.org/2000/svg">
  <path transform="scale(1, -1) translate(0, -960)" fill="currentColor" d="M701 402h-24l38 313q3 42 -12 80.5t-44 70.5q-29 30 -67 46t-80 16t-80 -16t-67 -46t-44 -69.5t-12 -82.5l38 -312h-24q-32 0 -55 -23t-23 -56v-69q0 -16 6.5 -31t18.5 -26v-213q0 -7 4.5 -11.5t11.5 -4.5q8 0 12 4.5t4 11.5v195l10 -2t11 -1h79v-147q0 -7 4 -11.5 t12 -4.5q7 0 11.5 4.5t4.5 11.5v147h156v-147q0 -7 4.5 -11.5t11.5 -4.5q8 0 12 4.5t4 11.5v147h79q5 0 10.5 1t10.5 2v-195q0 -7 4 -11.5t12 -4.5q7 0 11.5 4.5t4.5 11.5v213q12 11 18.5 26t6.5 31v69q0 33 -23 56t-55 23v0zM341 717q-1 36 11 68.5t37 57.5q24 25 55.5 39 t67.5 14t68 -14t57 -39q24 -25 36.5 -57.5t11.5 -67.5l-39 -316h-267zM323 208q-7 0 -13 2t-12 6l-1 1t-3 1q-8 6 -13.5 16t-5.5 20v69q0 19 13.5 33t33.5 14h377q19 0 33 -14t14 -33v-69q0 -10 -5.5 -20t-14.5 -16q-1 0 -1.5 -1t-1.5 -1q-6 -4 -12 -6t-13 -2h-375v0z" />
</svg>