<svg viewBox="0 0 256 256" xmlns="http://www.w3.org/2000/svg">
  <path transform="scale(1, -1) translate(0, -256)" fill="currentColor" d="M191 142v84q0 10 -7 17.5t-18 7.5h-76q-11 0 -18 -7.5t-7 -17.5v-84q-8 -8 -8 -19v-111q0 -3 2 -5t5 -2t5.5 2t2.5 5v60h24v-28q0 -3 2 -5t5 -2t5 2t2 5v28h37v-28q0 -3 2 -5t5 -2t5 2t2 5v28h25v-60q0 -3 2 -5t5 -2t5 2t2 5v111q-2 12 -9 19zM90 237h76q5 0 8 -3.5 t3 -7.5v-76h-5h-88h-5v76q0 5 3 8t8 3zM71 123q0 6 4 9.5t9 3.5h88q5 0 9 -4t4 -9v-37h-114v37zM113 186h30q3 0 5 2t2 5t-2 5t-5 2h-30q-3 0 -5 -2t-2 -5t2 -5t5 -2z" />
</svg>