<svg viewBox="0 0 256 256" xmlns="http://www.w3.org/2000/svg">
  <path transform="scale(1, -1) translate(0, -256)" fill="currentColor" d="M198 97q0 9 -6.5 15.5t-15.5 6.5h-3l9 75q1 23 -15 40t-39 17q-11 0 -21 -4.5t-17 -12.5q-16 -17 -15 -40l9 -75h-3q-9 0 -15.5 -6.5t-6.5 -15.5v-17q0 -10 6 -16v-52q0 -3 2 -5t5 -2t5.5 2t2.5 5v45h18v-34q0 -3 2.5 -5t5.5 -2t5 2t2 5v34h33v-34q0 -3 2 -5t5 -2t5 2 t2 5v34h19v-45q0 -3 2 -5t5 -2t5.5 2t2.5 5v52q6 6 6 15v18h-2zM88 196q-1 16 11 28.5t29 12.5t28.5 -12.5t10.5 -28.5l-9 -76h-60zM81 71q-3 0 -5 1l-1 1q-3 2 -3 6v17q0 4 2.5 6.5t5.5 2.5h95q3 0 5.5 -2.5t2.5 -6.5v-17q0 -4 -3 -6l-1 -1q-2 -1 -5 -1h-93z" />
</svg>