<svg viewBox="0 0 1024 1024" xmlns="http://www.w3.org/2000/svg">
  <path transform="scale(1, -1) translate(0, -960)" fill="currentColor" d="M784 429q0 20 -8 38.5t-22 31.5v341q0 36 -26 62t-62 26h-308q-36 0 -62 -26t-26 -62v-341q-14 -13 -22 -31.5t-8 -38.5v-194v-0.5v-0.5v-250q0 -7 4.5 -11.5t11.5 -4.5t11.5 4.5t4.5 11.5v248v1v1h125v-1v-1v-120q0 -7 4.5 -11.5t11.5 -4.5t11.5 4.5t4.5 11.5v120v1v1 h169v-1v-1v-120q0 -7 4.5 -11.5t11.5 -4.5q8 0 12 4.5t4 11.5v120v1v1h122v-1v-1v-248q0 -7 4.5 -11.5t11.5 -4.5t11.5 4.5t4.5 11.5v248v1v1v0v195zM302 840q0 23 17 39.5t39 16.5h308q22 0 39 -16.5t17 -39.5v-322q-8 3 -16 5t-18 2h-352q-8 0 -16.5 -1.5t-17.5 -5.5v322 v0zM752 267h-480v162q0 26 19 45t45 19h352q26 0 45 -19t19 -45v-162zM451 693h122q7 0 11.5 4.5t4.5 11.5t-4.5 11.5t-11.5 4.5h-122q-7 0 -11.5 -4.5t-4.5 -11.5t5 -11.5t11 -4.5v0z" />
</svg>