<svg viewBox="0 0 256 256" xmlns="http://www.w3.org/2000/svg">
  <path transform="scale(1, -1) translate(0, -256)" fill="currentColor" d="M186 47v71v1v17l-1 7q-3 15 -10 27t-18 20v11q4 3 5.5 7.5t1.5 7.5v15q-1 10 -7.5 15t-13.5 5h-30l-6 -1q-8 -2 -11.5 -8t-3.5 -11v0v-17q1 -9 7 -14v-10q-14 -11 -22 -27q-5 -12 -6 -25l-1 -9v-102q0 -9 7 -16t16 -7h70q9 0 15.5 6.5t6.5 16.5v18zM84 130h88v-76h-88v76 zM110 180q3 2 3 6v18q0 4 -3 6l-2 1l-2 4v16v0q0 1 1.5 3t3.5 2l32 1q6 0 7 -7v-14q0 -4 -3.5 -6t-3.5 -6v-18q0 -3 3 -6l6 -4q7 -6 10 -12q7 -11 8 -20h-84q5 24 24 36zM163 19h-70q-4 0 -6.5 2.5t-2.5 5.5v12h88v-12q0 -3 -3 -5.5t-6 -2.5zM151 114q-5 5 -11 6t-12 -1 q-3 1 -8 1q-8 0 -14.5 -5.5t-6.5 -15t6 -16.5l15 -15q4 -3 8 -3t8 3l15 16q7 6 7 15t-7 15zM141 94l-13 -14l-13 13q-2 2 -2 5.5t2 5.5t4.5 2t4.5 -1q4 -2 8 0q2 2 4.5 1.5t5 -2.5t2.5 -5.5t-3 -4.5z" />
</svg>