<svg viewBox="0 0 1024 1024" xmlns="http://www.w3.org/2000/svg">
  <path transform="scale(1, -1) translate(0, -960)" fill="currentColor" d="M730 123v285q0 1 0.5 24.5t-0.5 47.5v1v1q0 1 -0.5 2t-1.5 2q0 5 -1 9.5t-1 8.5q-4 25 -12 50t-28 57q-15 28 -37 48.5t-33 28.5v56q20 16 23 35l3 19v60q-4 40 -29 54t-42 14h-120q-7 0 -12.5 -1t-6.5 -2q-37 -12 -44 -37.5t-7 -26.5t-0.5 -24t0.5 -43q1 -19 9.5 -31.5 t15.5 -18.5v-56q-66 -45 -87 -105.5t-25 -94.5q-1 -1 -1 -3v-3v-1.5v-1.5v-12v-6v-48q-1 -47 -1 -113v-136q0 -71 1 -119q0 -32 23 -55t55 -23h280q33 0 56 23t23 55v75v3.5v1.5v0v0zM326 462v1v3h372q1 -21 0.5 -38.5l-0.5 -17.5v-271h-372v108v104.5v78.5v32v0zM434 667 q3 3 5.5 6t2.5 7v72q0 5 -2.5 8.5t-5.5 5.5l-9 7.5t-9 21.5q-1 21 -0.5 43.5l0.5 22.5l3.5 13.5t23.5 19.5l3 1t7 1h118q5 0 20.5 -6t18.5 -32v-60l-2.5 -11.5t-15.5 -20.5q-4 -2 -6 -5.5t-2 -8.5v-72q0 -4 2 -7l4 -6l25.5 -20t42.5 -50q18 -30 25.5 -52.5t10.5 -45.5v-0.5 v-0.5h-364q4 33 26 83t78 86v0zM651 0h-280q-19 0 -32.5 13.5t-13.5 32.5v29v32h373v-61q0 -19 -14 -32.5t-33 -13.5v0zM597 384q-17 17 -41 20.5t-44 -6.5q-7 4 -15.5 6t-16.5 2q-14 0 -27 -4.5t-23 -14.5q-10 -9 -16 -23t-6 -28q0 -16 6 -31t16 -27l61 -60q5 -5 11 -7.5 t12 -2.5t11.5 2.5t10.5 7.5l62 62q11 11 16.5 24t4.5 29q-1 13 -6 26.5t-16 24.5v0zM574 301l-62 -63l-61 61q-7 7 -10.5 15.5t-2.5 18.5q0 8 3.5 16t9.5 13q6 4 13 7.5t14 3.5v0v0q6 0 12 -2.5t12 -5.5q4 -3 9 -3t9 3q12 8 27 7t26 -12q6 -6 9.5 -14t3.5 -16t-3 -15.5 t-9 -13.5v0z" />
</svg>