<svg viewBox="0 0 1024 1024" xmlns="http://www.w3.org/2000/svg">
  <path transform="scale(1, -1) translate(0, -960)" fill="currentColor" d="M912 464h-395v371q0 39 -27.5 66t-65.5 27h-299q-39 0 -66 -27t-27 -66v-467q0 -38 27 -65.5t66 -27.5h198v-227q0 -34 23.5 -57t56.5 -23h509q34 0 57 23t23 57v336q0 34 -23 57t-57 23zM960 384v-168l-112 88q-4 4 -9 4t-9 -2l-158 -96l-147 96q-4 2 -8.5 2t-7.5 -2 l-151 -88v73v0v0v0v0v93q0 20 14 34t34 14h506q20 0 34 -14t14 -34zM125 307q-25 0 -43 18t-18 43v467q0 25 18 43t43 18h299q25 0 43 -18t18 -43v-371h-82q-33 0 -56.5 -23t-23.5 -57v-77h-198v0zM912 0h-507q-21 0 -34.5 14t-13.5 34v133l158 93l147 -96q4 -3 8.5 -3 t9.5 3l157 96l121 -95h1h1v-128q0 -23 -14 -37t-34 -14v0zM637 843q51 0 97 -19q46 -20 80 -54t54 -80t20 -98v-1v-1l-61 56q-5 5 -11 5t-11 -6q-5 -5 -5 -11.5t6 -11.5l82 -75q2 -2 5 -3.5t6 -1.5q4 0 6.5 1.5t4.5 3.5l80 74q5 5 5.5 11t-3.5 11q-5 5 -11.5 5t-10.5 -3 l-47 -43q-2 56 -24 106q-23 49 -61 86t-89 58q-50 22 -107 22q-8 0 -12 -4.5t-4 -11.5q0 -8 2 -11.5t9 -3.5v0z" />
</svg>