<svg viewBox="0 0 256 256" xmlns="http://www.w3.org/2000/svg">
  <path transform="scale(1, -1) translate(0, -256)" fill="currentColor" d="M228 135h-96v90q0 11 -7.5 18.5t-18.5 7.5h-75q-11 0 -18.5 -7.5t-7.5 -18.5v-117q0 -11 7.5 -18.5t18.5 -7.5h47v-54q0 -10 7 -16.5t16 -6.5h127q10 0 16.5 6.5t6.5 16.5v84q0 10 -6.5 16.5t-16.5 6.5zM237 112v-36l-23 18q-4 3 -8 1l-38 -23l-35 22q-4 3 -7 0l-34 -18 v36q0 4 2.5 6.5t6.5 2.5h127q4 0 6.5 -2.5t2.5 -6.5zM31 96q-5 0 -8.5 3.5t-3.5 8.5v117q0 5 3.5 8.5t8.5 3.5h75q5 0 8.5 -3.5t3.5 -8.5v-90h-17q-9 0 -16 -6.5t-7 -16.5v-16h-47zM228 19h-127q-3 0 -6 2.5t-3 6.5v32l36 21l36 -23q3 -3 7 0l38 22l28 -22v-30 q0 -4 -2.5 -6.5t-6.5 -2.5zM159 224q23 0 40 -15.5t19 -37.5l-9 9q-2 2 -5 2t-5 -2t-2 -5t2 -5l21 -19q2 -2 4.5 -2t4.5 2l20 18q2 2 2.5 5t-2 5t-5 2.5t-4.5 -1.5l-8 -7q-2 18 -12.5 33t-26.5 23.5t-34 8.5q-3 0 -5 -2t-2 -5t2 -5t5 -2z" />
</svg>