<svg viewBox="0 0 1024 1024" xmlns="http://www.w3.org/2000/svg">
  <path transform="scale(1, -1) translate(0, -960)" fill="currentColor" d="M928 555h-69v59q0 34 -23 57t-57 23h-667q-34 0 -57 -23t-23 -57v-331q0 -33 23 -56.5t57 -23.5h667q34 0 57 23.5t23 56.5v59h69q26 0 45 19t19 45v85q0 27 -19 45.5t-45 18.5zM827 282q0 -21 -13.5 -34.5t-34.5 -13.5h-667q-20 0 -34 13.5t-14 34.5v332q0 21 14 34.5 t34 13.5h667q21 0 34.5 -13.5t13.5 -34.5v-332zM960 405q0 -13 -9.5 -22.5t-22.5 -9.5h-69v149h69q13 0 22.5 -9.5t9.5 -22.5v-85zM507 461h-86l48 81q3 6 1 12.5t-8 10.5q-6 3 -12 1t-10 -8l-62 -105q-3 -4 -3 -8.5t3 -7.5q2 -4 5.5 -6t8.5 -2h88l-43 -77q-4 -6 -2 -12.5 t8 -9.5q3 -2 4.5 -2h3.5q5 0 8.5 2t6.5 6l56 101q2 3 2 7.5t-2 8.5q-3 3 -6.5 5.5t-8.5 2.5v0z" />
</svg>