<svg viewBox="0 0 1024 1024" xmlns="http://www.w3.org/2000/svg">
  <path transform="scale(1, -1) translate(0, -960)" fill="currentColor" d="M909 789h-794q-35 0 -59 -25t-24 -60v-512q0 -23 11 -42t31 -30q9 -6 19.5 -8.5t21.5 -2.5t21.5 2.5t20.5 8.5l141 82q6 3 12 4.5t13 1.5h584q35 0 59 24t24 59v413q2 35 -22 60t-59 25v0zM960 291q0 -21 -15 -36t-36 -15h-584q-11 0 -21.5 -2.5t-20.5 -8.5l-141 -82 q-12 -7 -25.5 -7t-25.5 7q-13 7 -20 19t-7 26v512q0 22 15 36.5t36 14.5h794q21 0 36 -14.5t15 -36.5v-413v0zM626 506h-98v97q0 7 -4.5 11.5t-11.5 4.5t-11.5 -4.5t-4.5 -11.5v-97h-98q-7 0 -11.5 -4.5t-4.5 -11.5q0 -8 4.5 -12t11.5 -4h98v-98q0 -7 4.5 -11.5t11.5 -4.5 t11.5 4.5t4.5 11.5v98h98q7 0 11.5 4t4.5 12q0 7 -4.5 11.5t-11.5 4.5z" />
</svg>