<svg viewBox="0 0 1024 1024" xmlns="http://www.w3.org/2000/svg">
  <path transform="scale(1, -1) translate(0, -960)" fill="currentColor" d="M706 800h-388q-59 0 -111 -23q-52 -22 -91 -61.5t-62 -91.5q-22 -53 -22 -112v-336q0 -32 23 -56t55 -24h594q60 0 113 23q52 22 91 61.5t62 91.5q22 53 22 112v128q0 59 -22 112q-23 52 -62 91.5t-91 61.5q-52 23 -111 23v0zM960 384q0 -53 -20 -99q-20 -47 -55 -82 t-81 -55t-98 -20h-596q-19 0 -32.5 14.5t-13.5 33.5v336q0 53 20 99q20 47 55 82t81 55t98 20h386q53 0 99 -20q47 -20 82 -55t55 -82q20 -46 20 -99v-128zM267 490q-17 0 -29 -12.5t-12 -29.5t12 -29.5t29 -12.5t29.5 12.5t12.5 29.5t-12.5 29.5t-29.5 12.5zM554 448 q0 -17 -12.5 -29.5t-29.5 -12.5t-29.5 12.5t-12.5 29.5t12.5 29.5t29.5 12.5t29.5 -12.5t12.5 -29.5zM757 490q-17 0 -29.5 -12.5t-12.5 -29.5t12.5 -29.5t29.5 -12.5t29 12.5t12 29.5t-11.5 29.5t-29.5 12.5z" />
</svg>