<svg viewBox="0 0 1024 1024" xmlns="http://www.w3.org/2000/svg">
  <path transform="scale(1, -1) translate(0, -960)" fill="currentColor" d="M109 77q-10 0 -20 2.5t-19 8.5q-18 10 -28 27t-10 39v588q0 32 23 54.5t54 22.5h574q64 0 120 -24q56 -25 98 -67t67 -98q24 -56 24 -120t-24 -120q-25 -56 -67 -98t-98 -66t-120 -24h-323q-6 0 -12 -1.5t-10 -5.5l-191 -109q-9 -4 -19 -6.5t-19 -2.5v0zM109 787 q-18 0 -31.5 -12.5t-13.5 -32.5v-588q0 -12 6 -22.5t16 -16.5q11 -6 22.5 -6t22.5 6l191 107q8 5 17.5 7.5t20.5 2.5h323q58 0 108 22q51 22 88.5 59.5t58.5 87.5q22 51 22 108t-22 108q-22 50 -59.5 87.5t-87.5 59.5q-51 22 -108 22h-574v1z" />
</svg>