<svg viewBox="0 0 1024 1024" xmlns="http://www.w3.org/2000/svg">
  <path transform="scale(1, -1) translate(0, -960)" fill="currentColor" d="M683 819h-574q-31 0 -54 -22t-23 -55v-588q0 -21 10 -38.5t28 -27.5q9 -6 19 -8.5t20 -2.5q9 0 19 2.5t19 6.5l191 108q4 2 10 4t12 2h323q64 0 121 24q56 25 98 67t66 98t24 120t-24 121q-25 56 -67 98t-98 67q-56 24 -120 24zM683 232h-323q-10 0 -20 -2.5t-18 -7.5 l-191 -107q-11 -6 -22.5 -6t-22.5 6q-10 6 -16 16.5t-6 22.5v588q0 18 13.5 31.5t31.5 13.5h574q58 0 108 -22q51 -22 88.5 -59.5t58.5 -87.5q22 -51 22 -108t-22 -108t-59.5 -88.5t-87.5 -59.5q-51 -22 -108 -22v0zM267 544q-17 0 -29 -12.5t-12 -29.5q0 -16 12 -28.5 t29 -12.5t29.5 12.5t12.5 28.5q0 17 -12.5 29.5t-29.5 12.5zM554 502q0 -17 -12.5 -29t-29.5 -12t-29.5 12t-12.5 29q0 18 12.5 30t29.5 12t29.5 -12t12.5 -30zM757 544q-17 0 -29.5 -12.5t-12.5 -29.5q0 -16 12.5 -28.5t29.5 -12.5t29 12.5t12 28.5q0 17 -11.5 29.5 t-29.5 12.5z" />
</svg>