<svg viewBox="0 0 256 256" xmlns="http://www.w3.org/2000/svg">
  <path transform="scale(1, -1) translate(0, -256)" fill="currentColor" d="M18 4q-5 0 -8 3t-4 7t0 8l17 45q-20 34 -16 75q3 29 18 52.5t38.5 38.5t51.5 18t54 -6t46 -28.5t29.5 -45.5t6.5 -54.5t-18 -52.5t-39.5 -39t-52.5 -17q-42 -4 -77 17l-39 -20q-4 -1 -7 -1zM128 238h-11q-25 -3 -46 -16.5t-34.5 -34.5t-16.5 -46q-1 -18 3 -36t14 -33 q2 -4 1 -7l-18 -46l41 21q3 1 7 -1q16 -10 34 -14.5t37 -2.5q25 2 46.5 15.5t35 34.5t16 46t-5.5 48t-25 40q-16 16 -36 24t-42 8z" />
</svg>