<svg viewBox="0 0 256 256" xmlns="http://www.w3.org/2000/svg">
  <path transform="scale(1, -1) translate(0, -256)" fill="currentColor" d="M157 235h-58q-25 0 -47 -12.5t-34.5 -33t-12.5 -45.5q0 -38 26.5 -66.5t86.5 -55.5q3 -1 5.5 -1t6.5 2q5 4 5 10v20h22q26 0 47.5 12t34 33t12.5 45.5t-12.5 45.5t-34 33.5t-47.5 12.5zM157 67h-24q-5 0 -8.5 -3.5t-3.5 -8.5v-19q-55 25 -78.5 50t-23.5 58q0 21 11 38.5 t29.5 28t39.5 10.5h58q22 0 40.5 -10.5t29 -28t10.5 -38.5t-10.5 -38.5t-29 -28t-40.5 -10.5zM69 152q-4 0 -7 -3t-3 -7.5t3 -7t7 -2.5t7 2.5t3 7t-3 7.5t-7 3zM128 152q-4 0 -7 -3t-3 -7.5t3 -7t7 -2.5t7 2.5t3 7t-3 7.5t-7 3zM187 152q-4 0 -7 -3t-3 -7.5t3 -7t7 -2.5 t7 2.5t3 7t-3 7.5t-7 3z" />
</svg>