<svg viewBox="0 0 256 256" xmlns="http://www.w3.org/2000/svg">
  <path transform="scale(1, -1) translate(0, -256)" fill="currentColor" d="M214 216q-19 19 -45 28t-53.5 6t-51.5 -17.5t-38.5 -38.5t-17.5 -52q-5 -40 16 -74l-17 -45q-2 -4 -1 -8t4.5 -7t8 -3t6.5 1l40 20q34 -21 75 -18q29 3 53 18t39 39t17.5 51.5t-6.5 53.5t-29 46zM236 118q-3 -25 -16.5 -46t-34.5 -34t-46 -16q-39 -3 -70 18q-4 2 -7 0 l-41 -20l17 46q2 3 0 6q-21 31 -16 69q2 25 15 46t34 34t46 15l11 1q22 0 41.5 -8t34.5 -23q18 -18 26 -40.5t6 -47.5zM159 135h-62q-3 0 -5 -2t-2 -5t2 -5.5t5 -2.5h62q3 0 5 2.5t2 5.5t-2 5t-5 2z" />
</svg>