<svg viewBox="0 0 1024 1024" xmlns="http://www.w3.org/2000/svg">
  <path transform="scale(1, -1) translate(0, -960)" fill="currentColor" d="M629 864h-232q-76 0 -142 -28q-67 -28 -116.5 -75.5t-77.5 -111.5q-29 -64 -29 -137t25 -137q25 -63 79 -121t138 -112q85 -53 203 -107q3 -1 7 -2t7 -1q5 0 10 1.5t9 4.5q8 5 12 13t4 18v88q0 1 1.5 3t3.5 2h96q76 -1 142 26q67 28 116.5 75.5t77.5 111.5q29 64 29 137 t-29 137q-28 64 -77.5 111.5t-115.5 75.5t-141 28v0zM629 192h-96q-16 0 -26.5 -10.5t-10.5 -24.5v-88q0 -1 -1 -2l-1 -1q-1 0 -1.5 -1t-1.5 1q-115 51 -196 102q-81 50 -132.5 103.5t-74.5 112.5q-24 59 -24 128q0 66 26 124t71.5 101.5t105.5 69.5q61 25 130 25h232 q68 0 128 -25q61 -26 106 -69.5t71 -101.5t26 -124t-26 -124q-26 -59 -71 -102.5t-105 -68.5q-61 -25 -129 -25v0zM277 542q-17 0 -28.5 -11.5t-11.5 -28.5q0 -16 11.5 -28t28.5 -12t28.5 12t11.5 28q0 17 -11.5 28.5t-28.5 11.5zM512 542q-17 0 -28.5 -11.5t-11.5 -28.5 q0 -16 11.5 -28t28.5 -12t28.5 12t11.5 28q0 17 -11.5 28.5t-28.5 11.5zM747 542q-17 0 -28.5 -11.5t-11.5 -28.5q0 -16 11.5 -28t28.5 -12t28.5 12t11.5 28q0 17 -11.5 28.5t-28.5 11.5z" />
</svg>