<svg viewBox="0 0 1024 1024" xmlns="http://www.w3.org/2000/svg">
  <path transform="scale(1, -1) translate(0, -960)" fill="currentColor" d="M509 59v0v0q-4 0 -7 1.5t-4 3.5l-140 154h-248q-32 0 -55 23t-23 55v462q0 33 23 56t55 23h804q32 0 55 -23t23 -56v-462q0 -32 -23 -55t-55 -23h-252l-140 -154q-3 -2 -6.5 -3.5t-6.5 -1.5v0zM110 805q-19 0 -32.5 -13.5t-13.5 -33.5v-462q0 -19 13.5 -32.5t32.5 -13.5 h256q4 0 7 -1.5t5 -3.5l131 -146l134 146q3 2 6 3.5t5 1.5h258q19 0 32.5 13.5t13.5 32.5v462q0 20 -13.5 33.5t-32.5 13.5h-802v0z" />
</svg>