<svg viewBox="0 0 256 256" xmlns="http://www.w3.org/2000/svg">
  <path transform="scale(1, -1) translate(0, -256)" fill="currentColor" d="M171 224h-144q-9 0 -15.5 -6.5t-6.5 -15.5v-148q0 -6 3 -11t8.5 -8t11 -3t10.5 3l48 27q2 1 4 1h81q22 0 40.5 10.5t29 29t10.5 40.5t-11 40.5t-29.5 29.5t-39.5 11zM171 77h-81q-5 0 -11 -3l-48 -27q-4 -2 -8 0.5t-4 6.5v148q0 3 2.5 5.5t5.5 2.5h144q18 0 33 -9t24 -24 t9 -33t-9 -33.5t-24 -24.5t-33 -9zM128 137q11 0 19.5 8t8.5 19.5t-8.5 19.5t-19.5 8t-19.5 -8t-8.5 -19.5t8.5 -19.5t19.5 -8zM128 179q6 0 10 -4t4 -10t-4 -9.5t-10 -3.5t-10 4t-4 9.5t4 9.5t10 4zM128 125q-14 0 -27 -5t-23 -14q-2 -1 -2.5 -4t1.5 -5.5t5 -2.5t5 2 q17 14 40.5 14t41.5 -14q2 -2 5 -2t5 2t2 5t-3 5q-10 9 -23 14t-27 5z" />
</svg>