<svg viewBox="0 0 1024 1024" xmlns="http://www.w3.org/2000/svg">
  <path transform="scale(1, -1) translate(0, -960)" fill="currentColor" d="M683 819h-574q-31 0 -54 -22t-23 -55v-588q0 -21 10 -38.5t28 -27.5q9 -6 19 -8.5t20 -2.5q9 0 19 2.5t19 6.5l191 108q4 2 10 4t12 2h323q64 0 121 24q56 25 98 67t66 98t24 120t-24 121q-25 56 -67 98t-98 67q-56 24 -120 24zM683 232h-323q-10 0 -20 -2.5t-18 -7.5 l-191 -107q-11 -6 -22.5 -6t-22.5 6q-10 6 -16 16.5t-6 22.5v588q0 18 13.5 31.5t31.5 13.5h574q58 0 108 -22q51 -22 88.5 -59.5t58.5 -87.5q22 -51 22 -108t-22 -108t-59.5 -88.5t-87.5 -59.5q-51 -22 -108 -22v0zM512 498q41 0 70 29t29 70t-29 70t-70 29t-70 -29 t-29 -70t29 -70t70 -29zM512 664q28 0 47.5 -20t19.5 -47q0 -28 -19.5 -47.5t-47.5 -19.5t-47.5 19.5t-19.5 47.5q0 27 19.5 47t47.5 20zM512 424q-53 0 -103 -18.5t-91 -51.5q-4 -5 -5 -11.5t4 -11.5q2 -2 5.5 -4t7.5 -2q2 0 5 1t4 2q36 30 80.5 46t92.5 16t92.5 -16 t80.5 -46q5 -5 12 -4t10 6q5 4 4 11t-5 11q-41 35 -91 53.5t-103 18.5v0z" />
</svg>