<svg viewBox="0 0 256 256" xmlns="http://www.w3.org/2000/svg">
  <path transform="scale(1, -1) translate(0, -256)" fill="currentColor" d="M228 249h-200q-10 0 -16.5 -6.5t-6.5 -16.5v-152q0 -9 7 -15.5t16 -6.5h18v-37q0 -2 1.5 -4.5t3.5 -2.5l3 -1q4 0 6 2l43 43h125q10 0 16.5 6.5t6.5 15.5v152q0 10 -6.5 16.5t-16.5 6.5zM237 74q0 -3 -2.5 -5.5t-6.5 -2.5h-128q-3 0 -6 -2l-34 -35v31q-1 3 -4 5l-1 1h-27 q-4 0 -6.5 2.5t-2.5 5.5v152q0 4 2.5 6.5t6.5 2.5h200q4 0 6.5 -2.5t2.5 -6.5v-152zM128 160v0q-25 -2 -38 -19q-10 -13 -10 -29q-1 -7 4 -13q10 -14 44 -15h4q27 0 38 12q6 7 6 16v0q-1 18 -10 29q-7 10 -19 15q-10 4 -19 4zM160 104q-8 -7 -32.5 -6.5t-32.5 8.5q-2 2 -2 3 v1q0 9 5 18q9 15 30 17q9 0 17 -5q16 -9 17 -30q1 1 0 -1.5t-2 -4.5zM91 190q1 -11 6.5 -18t12 -6.5t10.5 8.5t3 18.5t-6 18t-12 7t-11 -8.5t-3 -19zM83 168q-4 8 -11 12t-11.5 1t-5 -10.5t4 -15.5t11.5 -11.5t12 -1t5 10t-5 15.5zM192 183q-5 1 -10.5 -4t-8 -13.5t-0.5 -16 t7.5 -9t11 3.5t8 14t0.5 16t-8 9zM148 167q6 -2 11.5 3.5t8 14.5t0 16.5t-8 9t-11 -4t-8 -14.5t-0.5 -16.5t8 -8.5z" />
</svg>