<svg viewBox="0 0 1024 1024" xmlns="http://www.w3.org/2000/svg">
  <path transform="scale(1, -1) translate(0, -960)" fill="currentColor" d="M74 -35q-8 0 -15 2.5t-13 8.5q-9 8 -12.5 20.5t1.5 24.5l72 185q-42 68 -58.5 144.5t-8.5 156.5q8 83 44 156t92 129t130 93q73 36 156 45q54 5 107 -1q54 -7 103.5 -24.5t94.5 -45.5q46 -28 84 -65q39 -38 67 -83t45.5 -94.5t24.5 -103.5q6 -53 1 -107q-9 -85 -45 -159 q-36 -75 -93.5 -132t-131.5 -93t-159 -44q-82 -8 -159 10.5t-145 62.5l-165 -83q-5 -2 -9.5 -2.5t-7.5 -0.5v0zM514 899q-12 0 -24 -1l-24 -2q-78 -8 -147 -41q-69 -34 -121.5 -86.5t-85.5 -120.5q-34 -68 -42 -146q-8 -76 9.5 -149t58.5 -137q2 -4 2 -7.5t-1 -6.5l-75 -194 q-1 -4 0.5 -6t1.5 -4q1 -1 3.5 -1.5t5.5 0.5l173 86q4 3 8 2t8 -3q65 -44 139 -62.5t152 -9.5q79 7 149 40q69 34 122.5 87t87.5 122q33 70 41 149q5 50 -1 100q-6 49 -22.5 95.5t-43.5 88.5q-26 42 -62 78q-31 31 -67 56q-36 24 -75.5 40.5t-82.5 24.5t-87 8v0z" />
</svg>