<svg viewBox="0 0 256 256" xmlns="http://www.w3.org/2000/svg">
  <path transform="scale(1, -1) translate(0, -256)" fill="currentColor" d="M171 224h-144q-9 0 -15.5 -6.5t-6.5 -15.5v-148q0 -6 3 -11t8.5 -8t11 -3t10.5 3l48 27q2 1 4 1h81q22 0 40.5 10.5t29 29t10.5 40.5t-11 40.5t-29.5 29.5t-39.5 11zM171 77h-81q-5 0 -11 -3l-48 -27q-4 -2 -8 0.5t-4 6.5v148q0 3 2.5 5.5t5.5 2.5h144q18 0 33 -9t24 -24 t9 -33t-9 -33.5t-24 -24.5t-33 -9zM66 146q-3 0 -5.5 -2.5t-2.5 -5.5t2.5 -5t5.5 -2t5 2t2 5t-2.5 5.5t-4.5 2.5zM123 146q-3 0 -5 -2.5t-2 -5.5t2 -5t5 -2t5 2t2 5t-2 5.5t-5 2.5zM180 146q-3 0 -5 -2.5t-2 -5.5t2 -5t5 -2t5 2t2 5t-2 5.5t-5 2.5z" />
</svg>