<svg viewBox="0 0 256 256" xmlns="http://www.w3.org/2000/svg">
  <path transform="scale(1, -1) translate(0, -256)" fill="currentColor" d="M176 219h-96q-21 0 -38 -10t-27 -27.5t-10 -37.5v-84q0 -9 6.5 -16t16.5 -7h148q21 0 38 10t27 27.5t10 37.5v32q0 20 -10 37.5t-27 27.5t-38 10zM237 112q0 -17 -8 -30.5t-22 -22t-31 -8.5h-148q-4 0 -6.5 2.5t-2.5 6.5v84q0 17 8 30.5t22 22t31 8.5h96q17 0 30.5 -8.5 t22 -22t8.5 -30.5v-32zM67 138q-4 0 -7.5 -3t-3.5 -7t3.5 -7t7.5 -3t7 3t3 7t-3 7t-7 3zM118 128q0 -4 3 -7t7 -3t7 3t3 7t-3 7t-7 3t-7 -3t-3 -7zM189 138q-4 0 -7 -3t-3 -7t3 -7t7 -3t7.5 3t3.5 7t-3 7t-8 3z" />
</svg>