<svg viewBox="0 0 1024 1024" xmlns="http://www.w3.org/2000/svg">
  <path transform="scale(1, -1) translate(0, -960)" fill="currentColor" d="M914 837h-804q-32 0 -55 -23t-23 -56v-462q0 -32 23 -55t55 -23h248l140 -154q2 -2 5 -3.5t6 -1.5v0v0q3 0 6 1.5t5 3.5l142 154h250q32 0 55 23t23 55v462q2 33 -21 56t-55 23zM960 296q0 -19 -13.5 -32.5t-32.5 -13.5h-258q-4 0 -6.5 -1.5t-4.5 -3.5l-135 -146 l-131 146q-2 2 -5.5 3.5t-5.5 1.5h-256q-19 0 -32.5 13.5t-13.5 32.5v462q-2 20 11.5 33.5t32.5 13.5h804q19 0 32.5 -13.5t13.5 -33.5v-462zM267 576q-17 0 -29 -12.5t-12 -29.5q0 -16 12 -28.5t29 -12.5t29.5 12.5t12.5 28.5q0 17 -12.5 29.5t-29.5 12.5zM554 534 q0 -17 -12.5 -29t-29.5 -12t-29.5 12t-12.5 29q0 18 12.5 30t29.5 12t29.5 -12t12.5 -30zM757 576q-17 0 -29.5 -12.5t-12.5 -29.5q0 -16 12.5 -28.5t29.5 -12.5t29 12.5t12 28.5q0 17 -11.5 29.5t-29.5 12.5z" />
</svg>