<svg viewBox="0 0 256 256" xmlns="http://www.w3.org/2000/svg">
  <path transform="scale(1, -1) translate(0, -256)" fill="currentColor" d="M215 216q-20 20 -46 29t-54 6t-51.5 -18t-38.5 -38.5t-18 -52.5q-4 -41 16 -75l-17 -45q-2 -4 -1 -8t4.5 -7t8 -3t6.5 2l40 20q36 -22 76 -18q29 3 53 18t39.5 39t18 52t-6.5 54t-29 45zM236 118q-2 -25 -15.5 -46t-35 -34.5t-46.5 -15.5q-19 -2 -37 2.5t-34 14.5 q-4 2 -7 1l-41 -21l18 46q1 3 -1 7q-10 15 -14 33t-3 36q3 25 16.5 46t34.5 34.5t46 15.5l11 1q22 0 42 -8.5t35 -23.5q18 -17 26 -40t5 -48zM55 129q0 -5 3.5 -8.5t8.5 -3.5t9 3.5t4 8.5t-4 9t-9 4t-8.5 -4t-3.5 -9zM116 129q0 -5 3.5 -8.5t8.5 -3.5t8.5 3.5t3.5 8.5 t-3.5 9t-8.5 4t-8.5 -4t-3.5 -9zM176 129q0 -5 4 -8.5t9 -3.5t8.5 3.5t3.5 8.5t-3.5 9t-8.5 4t-9 -4t-4 -9z" />
</svg>