<svg viewBox="0 0 1024 1024" xmlns="http://www.w3.org/2000/svg">
  <path transform="scale(1, -1) translate(0, -960)" fill="currentColor" d="M851 792q-38 38 -83 67q-45 28 -95 45.5t-103 24.5q-53 6 -108 1q-83 -9 -156 -45q-74 -37 -130 -93t-92 -130q-37 -73 -46 -156q-8 -81 9.5 -157.5t58.5 -143.5l-71 -186q-5 -12 -1.5 -24t12.5 -21q6 -4 13 -7.5t15 -3.5q4 0 9 1.5t8 3.5l165 83q68 -43 145 -62t159 -11 q85 8 159 44t131.5 93t93.5 131t45 159q6 54 -1 107q-6 53 -23.5 102.5t-46.5 94.5q-28 45 -67 83v0zM958 408q-7 -79 -41 -148q-34 -70 -87 -123t-123 -86q-69 -34 -149 -41q-78 -8 -152 11t-139 61q-3 2 -7.5 2t-8.5 -1l-174 -86q-4 -3 -6.5 -1.5t-3.5 2.5q-1 2 -2.5 4 t-0.5 6l74 192q1 4 0.5 7.5t-2.5 6.5q-40 65 -57 138.5t-9 149.5q8 78 42 147q33 69 85.5 121.5t121.5 85.5q69 34 147 42l24 2t24 1q44 0 87 -9q43 -8 83 -24.5t76 -40.5q37 -25 69 -56q36 -36 62 -78q27 -42 43.5 -88.5t22.5 -96.5t1 -100v0zM662 600l-216 -218l-84 85 q-5 5 -11.5 5t-11.5 -5t-5 -11t5 -11l96 -96q3 -3 6 -4t5 -1q4 0 6.5 1t5.5 4l227 227q5 5 5 11.5t-5 10.5q-5 5 -11.5 5.5t-11.5 -3.5z" />
</svg>