<svg viewBox="0 0 1024 1024" xmlns="http://www.w3.org/2000/svg">
  <path transform="scale(1, -1) translate(0, -960)" fill="currentColor" d="M491 32q-3 0 -7 1t-7 2q-118 54 -203 107q-84 54 -138 112t-79 121q-25 64 -25 137t29 137q28 64 77.5 111.5t116.5 75.5q66 28 142 28h232q75 0 141 -28t115.5 -75.5t77.5 -111.5q29 -64 29 -137t-29 -137q-28 -64 -77.5 -111.5t-115.5 -75.5t-141 -28h-96q-1 0 -3 -1 t-2 -4v-88q0 -9 -4.5 -17t-11.5 -13q-5 -3 -10 -4t-11 -1v0zM397 832q-69 0 -130 -25q-60 -25 -105.5 -68.5t-71.5 -102.5q-26 -58 -26 -124q0 -69 24 -128q23 -59 74 -112.5t132 -104.5t196 -103h2h1l0.5 1t0.5 2v88q0 15 11 26t26 11h96q69 0 130 25q60 25 105.5 68.5 t71.5 102.5q26 58 26 124t-26 124t-71.5 101.5t-105.5 69.5q-61 25 -130 25h-230v0z" />
</svg>