<svg viewBox="0 0 1024 1024" xmlns="http://www.w3.org/2000/svg">
  <path transform="scale(1, -1) translate(0, -960)" fill="currentColor" d="M301 661h301q7 0 11.5 4.5t4.5 11.5t-4.5 11.5t-11.5 4.5h-301q-7 0 -11.5 -4.5t-4.5 -11.5t5 -11.5t11 -4.5zM723 547h-422q-7 0 -11.5 -4.5t-4.5 -11.5t4.5 -11.5t11.5 -4.5h421q7 0 11.5 4.5t4.5 11.5t-4.5 11.5t-10.5 4.5v0zM512 402h-211q-7 0 -11.5 -4.5 t-4.5 -11.5q0 -8 4.5 -12t11.5 -4h211q7 0 11.5 4t4.5 12q0 7 -4.5 11.5t-11.5 4.5zM914 837h-804q-32 0 -55 -23t-23 -56v-462q0 -32 23 -55t55 -23h248l140 -154q2 -2 5 -3.5t6 -1.5v0v0q3 0 6 1.5t5 3.5l142 154h250q32 0 55 23t23 55v462q2 33 -21 56t-55 23zM960 296 q0 -19 -13.5 -32.5t-32.5 -13.5h-258q-4 0 -6.5 -1.5t-4.5 -3.5l-135 -146l-131 146q-2 2 -5.5 3.5t-5.5 1.5h-256q-19 0 -32.5 13.5t-13.5 32.5v462q-2 20 11.5 33.5t32.5 13.5h804q19 0 32.5 -13.5t13.5 -33.5v-462z" />
</svg>