<svg viewBox="0 0 256 256" xmlns="http://www.w3.org/2000/svg">
  <path transform="scale(1, -1) translate(0, -256)" fill="currentColor" d="M237 229l-1 1q-10 4 -19 1t-13 -13l-33 -69h-142q-10 0 -17 -7t-7 -17v-77q0 -10 7 -17t17 -7h157q10 0 17 7t7 17v66l39 83q4 9 0.5 18.5t-12.5 13.5zM222 218q4 1 8 -1l1 -1q4 -1 5.5 -5t-0.5 -8l-3 -7l-20 9l3 7q2 4 6 6zM192 108l-18 -13l-2 23l35 74l20 -9zM186 38 h-157q-4 0 -7 3t-3 7v77q0 4 3 7t7 3h136l-6 -13l-1 -4l2 -37q0 -4 4 -6q2 -1 3.5 -1t3.5 2l25 18v-46q0 -4 -3 -7t-7 -3zM123 110h-76q-3 0 -5 -2t-2 -5t2 -5t5 -2h76q3 0 5 2t2 5t-2 5t-5 2zM111 76h-64q-3 0 -5 -2.5t-2 -5.5t2 -5t5 -2h65q3 0 5 2t2 5t-2.5 5.5t-5.5 2.5 z" />
</svg>