<svg viewBox="0 0 1024 1024" xmlns="http://www.w3.org/2000/svg">
  <path transform="scale(1, -1) translate(0, -960)" fill="currentColor" d="M901 525h-399q-7 0 -11.5 -4.5t-4.5 -11.5t4.5 -11.5t11.5 -4.5h397q25 0 42 -17.5t17 -41.5v-340q0 -25 -17.5 -42t-41.5 -17h-696q-25 0 -42 17.5t-17 41.5v200q0 8 -4.5 12t-11.5 4t-11.5 -4t-4.5 -12v-201q0 -39 27 -65t64 -26h696q39 0 65 27t26 64v341q2 37 -25 64 t-64 27v0zM245 328l133 -98q2 -1 4.5 -2t4.5 -1q1 0 3 0.5t4 1.5q3 2 6 5.5t3 7.5l11 164v4.5t-1 3.5l-199 428q-16 34 -52 47t-69 -3l-8 -4q-35 -16 -48 -51.5t3 -70.5l200 -427l2.5 -2.5l2.5 -2.5v0zM374 274l-107 78l-163 347l115 55l163 -349l-8 -131v0zM67 819 q4 11 12 20t19 14l8 3q22 11 45 2.5t33 -31.5l21 -46l-115 -55l-21 47q-5 12 -5 23.5t3 22.5v0zM821 320q7 0 11.5 4.5t4.5 11.5t-4.5 11.5t-11.5 4.5h-160q-7 0 -11.5 -4.5t-4.5 -11.5t4.5 -11.5t11.5 -4.5h160zM520 186q0 -8 4.5 -12t11.5 -4h285q7 0 11.5 4t4.5 12 q0 7 -4.5 11.5t-11.5 4.5h-285q-7 0 -11.5 -5t-4.5 -11z" />
</svg>