<svg viewBox="0 0 1024 1024" xmlns="http://www.w3.org/2000/svg">
  <path transform="scale(1, -1) translate(0, -960)" fill="currentColor" d="M909 590h-373v40q0 63 -44 107t-106 44h-271q-35 0 -59 -24.5t-24 -58.5v-308q0 -34 24 -58.5t59 -24.5h71v-129q0 -27 18.5 -45.5t45.5 -18.5h657q35 0 59 24t24 59v310q2 35 -22 59t-59 24v0zM115 341q-21 0 -36 14.5t-15 36.5v306q0 21 15 36t36 15h271 q49 0 83.5 -34.5t34.5 -84.5v-310q-11 8 -24.5 13.5t-28.5 5.5h-336v2zM219 178v129h232q22 0 37.5 -15.5t15.5 -37.5v-56q0 -21 -15.5 -36.5t-37.5 -15.5h-200q-13 0 -22.5 9t-9.5 23v0zM960 198q0 -21 -15 -36t-36 -15h-392q8 11 13.5 25t5.5 28v360h373q21 0 36 -15 t15 -36v-311v0zM640 418h107q7 0 11.5 4t4.5 12q0 7 -4.5 11.5t-11.5 4.5h-107q-7 0 -11.5 -4.5t-4.5 -11.5q0 -8 4.5 -12t11.5 -4zM794 314h-156q-7 0 -11.5 -4.5t-4.5 -11.5q0 -8 4.5 -12t11.5 -4h156q7 0 11.5 4t4.5 12q0 7 -5 11.5t-11 4.5v0z" />
</svg>