<svg viewBox="0 0 256 256" xmlns="http://www.w3.org/2000/svg">
  <path transform="scale(1, -1) translate(0, -256)" fill="currentColor" d="M227 167h-90v7q0 17 -12 29t-29 12h-67q-10 0 -17 -7t-7 -17v-77q0 -10 7 -17t17 -7h15v-30q0 -7 5.5 -13t13.5 -6h164q10 0 17 7t7 17v78q0 10 -7 17t-17 7zM29 104q-4 0 -7 3t-3 7v76q0 5 3 7.5t7 2.5h67q11 0 19 -7.5t8 -18.5v-72q-5 2 -10 2h-84zM58 60v30h55 q4 0 7 -3t3 -7v-14q0 -5 -3 -8t-7 -3h-50q-2 1 -3.5 2.5t-1.5 2.5zM237 66q0 -5 -3 -7.5t-7 -2.5h-92q2 4 2 10v87h90q4 0 7 -3t3 -7v-77zM160 117h27q3 0 5 2t2 5t-2 5.5t-5 2.5h-27q-3 0 -5 -2.5t-2 -5.5t2 -5t5 -2zM198 98h-38q-3 0 -5.5 -2.5t-2.5 -5.5t2.5 -5t5.5 -2 h38q3 0 5.5 2t2.5 5t-2.5 5.5t-5.5 2.5z" />
</svg>