<svg viewBox="0 0 256 256" xmlns="http://www.w3.org/2000/svg">
  <path transform="scale(1, -1) translate(0, -256)" fill="currentColor" d="M181 152v22v37q0 17 -27 27q-25 9 -60.5 9t-60.5 -9q-28 -10 -28 -27v-102q0 -16 28 -27q25 -9 60 -9l15 1q2 -18 12 -33t25.5 -23.5t34.5 -8.5t35.5 9.5t26.5 26t9.5 36t-10 36t-25.5 26t-35 9.5zM19 191q12 -8 32 -12t42.5 -4t42 4t31.5 12v-16q0 -5 -9.5 -10 t-26.5 -8.5t-38 -3.5t-38 3.5t-26.5 8.5t-9.5 10v16zM167 154v-2q-7 -2 -13 -4q6 2 13 6zM93 233q21 0 38 -3.5t26.5 -9t9.5 -10t-9.5 -9.5t-26.5 -8.5t-38 -3.5t-38 3.5t-26.5 8.5t-9.5 9.5t9.5 10t26.5 9t38 3.5zM19 154q12 -7 32 -11t42 -4q35 0 61 9q-20 -8 -34 -26 q-11 -2 -27 -2q-21 0 -38 3.5t-26.5 9t-9.5 9.5v12zM19 110v12q12 -8 32 -12t42 -4l19 1q-3 -9 -4 -19h-15q-21 0 -40 3q-15 4 -24.5 9t-9.5 10zM179 23q-16 0 -29 8t-21 21t-8 29t8 29.5t21 21t29 7.5t29.5 -7.5t21 -21t7.5 -29.5t-7.5 -29t-21 -21t-29.5 -8zM200 101 l-28 -28l-14 15q-2 2 -5 2t-5 -2t-2 -5t2 -5l20 -20q2 -2 4.5 -2t4.5 2l33 33q2 2 2 5t-2 5t-5 2t-5 -2z" />
</svg>