<svg viewBox="0 0 256 256" xmlns="http://www.w3.org/2000/svg">
  <path transform="scale(1, -1) translate(0, -256)" fill="currentColor" d="M225 150h-99q-3 0 -5.5 -2t-2.5 -5t2.5 -5t5.5 -2h99q5 0 8.5 -3.5t3.5 -8.5v-85q0 -5 -3.5 -8.5t-8.5 -3.5h-174q-5 0 -8.5 3.5t-3.5 8.5v51q0 3 -2 5t-5 2t-5.5 -2t-2.5 -5v-51q0 -11 8 -18.5t18 -7.5h174q11 0 18.5 7.5t7.5 18.5v85q1 11 -6.5 18.5t-18.5 7.5zM60 96 l33 -25q2 -1 3.5 -1t3.5 1q4 2 4 6l2 41v4l-50 106q-4 9 -14 13t-20 -1l-2 -1q-10 -4 -13.5 -14.5t1.5 -19.5l50 -107q0 -2 2 -2zM91 90l-22 16l-39 83l24 11l39 -84zM20 220q2 4 6 7l2 1q4 2 8.5 0t6.5 -6l4 -9l-23 -11l-4 9q-2 4 0 9zM205 93q3 0 5 2t2 5t-2 5.5t-5 2.5 h-40q-3 0 -5 -2.5t-2 -5.5t2 -5t5 -2h40zM127 62q0 -3 2 -5t5 -2h71q3 0 5 2t2 5t-2 5.5t-5 2.5h-71q-3 -1 -5 -3t-2 -5z" />
</svg>