<svg viewBox="0 0 1024 1024" xmlns="http://www.w3.org/2000/svg">
  <path transform="scale(1, -1) translate(0, -960)" fill="currentColor" d="M944 842l-6 3q-32 14 -65 2.5t-47 -42.5l-26 -56l-107 -231h-576q-35 0 -60 -25t-25 -59v-306q0 -35 25 -60t60 -25h629q34 0 59 25t25 60v269l156 333q13 31 1 64t-43 48v0zM854 790q5 10 12.5 17t16.5 11q10 3 20.5 2.5t19.5 -4.5l7 -3q19 -10 26.5 -30t-1.5 -39 l-19 -40l-101 48zM778 362l-93 -69l-8 115l145 312l101 -48l-145 -310v0zM744 75h-627q-22 0 -37.5 15.5t-15.5 37.5v307q0 22 15.5 37.5t37.5 15.5h560l-32 -69q-1 -2 -1.5 -3.5t-0.5 -4.5l10 -149q0 -4 2.5 -7.5t6.5 -4.5q2 -2 4 -2h3q2 0 4.5 1t4.5 2l119 87v-208 q0 -23 -15.5 -39t-37.5 -16v0zM491 363h-302q-7 0 -11.5 -4.5t-4.5 -11.5t4.5 -11.5t11.5 -4.5h302q7 0 11.5 4.5t4.5 11.5t-5 11.5t-11 4.5zM445 227h-256q-7 0 -11.5 -4.5t-4.5 -11.5t4.5 -11.5t11.5 -4.5h257q8 0 12 4.5t4 11.5t-5 11.5t-12 4.5z" />
</svg>