<svg viewBox="0 0 1024 1024" xmlns="http://www.w3.org/2000/svg">
  <path transform="scale(1, -1) translate(0, -960)" fill="currentColor" d="M755 749q-2 0 -3.5 2t-2.5 4q-13 39 -36 71t-54 54.5t-69 35.5q-37 12 -78 12t-78 -12q-38 -13 -69 -35.5t-54 -54.5t-36 -71q-1 -2 -2.5 -3.5t-3.5 -2.5q-46 -9 -84 -33q-39 -23 -66.5 -57t-43.5 -76t-16 -89v-1q0 -72 50.5 -125t124.5 -59v-49q1 -31 1.5 -68t0.5 -75 q1 -37 1 -67q0 -34 24 -58t57 -24h386q34 0 58 24t24 56l6 259q72 6 121.5 59.5t49.5 126.5q1 47 -15 89q-15 43 -42.5 77t-66.5 57q-38 24 -84 33v0zM706 0h-388q-20 0 -34.5 14.5t-14.5 35.5q0 19 -1 42t-1 47h490l-2 -91q0 -19 -14.5 -33.5t-34.5 -14.5v0zM786 339 q-11 0 -17.5 -7.5t-6.5 -17.5l-4 -143h-491q-1 47 -1 86.5v56.5q0 9 -7.5 16.5t-16.5 8.5q-63 4 -106 48t-43 104v2q0 41 13 78q14 37 38.5 67t58.5 50q34 21 74 29q11 2 19.5 9t10.5 18q21 68 77.5 110t127.5 42t128 -41.5t78 -108.5q4 -11 12 -18t19 -10q40 -7 74 -28 t58 -50.5t38 -67.5q14 -37 14 -78q0 -61 -42.5 -106t-104.5 -49v0z" />
</svg>