<svg viewBox="0 0 1024 1024" xmlns="http://www.w3.org/2000/svg">
  <path transform="scale(1, -1) translate(0, -960)" fill="currentColor" d="M810 709q-24 0 -47.5 -6t-44.5 -18v1.5v1.5q0 44 -16 82q-16 39 -44.5 67.5t-65.5 45.5q-38 16 -82 16q-43 0 -81 -16q-38 -17 -66 -45.5t-44 -67.5q-17 -38 -17 -82v0v0q-20 11 -41.5 16.5t-44.5 5.5q-77 -1 -130.5 -55.5t-53.5 -131.5q0 -73 48.5 -125.5t117.5 -59.5 v-258q0 -34 24 -58t58 -24h462q34 0 58 24t24 58v259q71 6 119.5 59t48.5 125q0 77 -53.5 131.5t-128.5 54.5v0zM742 29h-460q-21 0 -35.5 14.5t-14.5 34.5v80h562v-80q0 -20 -15 -34.5t-37 -14.5zM810 370q-8 0 -12 -4.5t-4 -11.5v-162h-157v115q0 7 -4.5 11.5t-11.5 4.5 t-11.5 -4.5t-4.5 -11.5v-115h-184v115q0 7 -4.5 11.5t-11.5 4.5t-11.5 -4.5t-4.5 -11.5v-115h-157v162q0 7 -4.5 11.5t-11.5 4.5q-62 0 -106 45t-44 108q0 64 44 109t106 45q26 0 50 -8.5t44 -25.5q4 -3 9 -3.5t9 2.5q5 2 7 6.5t1 9.5q-1 7 -2 14.5t-1 15.5q0 74 51.5 126.5 t124.5 52.5t124.5 -52.5t51.5 -126.5q0 -8 -1 -17t-2 -17q-2 -4 0.5 -9.5t7.5 -7.5q4 -3 9 -2.5t10 3.5q20 18 46 28.5t55 10.5q62 0 106 -45t44 -109q0 -63 -44 -108t-106 -45v0z" />
</svg>