<svg viewBox="0 0 1024 1024" xmlns="http://www.w3.org/2000/svg">
  <path transform="scale(1, -1) translate(0, -960)" fill="currentColor" d="M810 709q-24 0 -47.5 -6.5t-44.5 -19.5v2v1q0 45 -16 84t-44.5 68t-65.5 46q-38 17 -82 17q-43 0 -81 -17t-66 -46t-44 -68q-17 -39 -17 -84v0v-1q-20 11 -41.5 16.5t-44.5 5.5q-77 1 -130.5 -54t-53.5 -135q0 -74 48.5 -127.5t117.5 -60.5v-253q0 -18 8 -35t21 -29 q12 -10 25.5 -14.5t29.5 -4.5h6.5t5.5 1l58 10q78 13 157.5 13t157.5 -13l58 -10q18 -2 35.5 2.5t31.5 16.5t21.5 28.5t7.5 35.5v253q73 6 122 60t49 127q0 80 -53.5 135.5t-128.5 55.5v0zM774 38q-8 -7 -19 -10t-22 -1l-58 10q-41 7 -81.5 10t-81.5 3t-81.5 -3.5 t-81.5 -9.5l-58 -10q-11 -2 -22 1t-19 10q-9 8 -13.5 18t-4.5 21v96l123 21q78 13 157.5 13t157.5 -13l124 -21v-96q0 -11 -5.5 -21t-14.5 -18v0zM810 362q-8 0 -12 -4.5t-4 -11.5v-141l-119 19q-5 1 -9 1.5t-8 1.5v141q0 7 -4.5 11.5t-11.5 4.5q-8 0 -12 -4.5t-4 -11.5 v-138q-57 6 -114 6t-114 -6v138q0 7 -4 11.5t-12 4.5q-7 0 -11.5 -4.5t-4.5 -11.5v-141q-4 -1 -8 -1.5t-9 -1.5l-119 -19v141q0 7 -4 11.5t-12 4.5q-62 0 -106 46t-44 110q0 65 44 111t106 46q27 0 50.5 -9t44.5 -26q3 -4 8.5 -4t8.5 2q5 3 7.5 7.5t0.5 8.5q-1 8 -2 15 t-1 16q0 75 51.5 128.5t124.5 53.5t124.5 -53.5t51.5 -128.5q0 -10 -1 -18.5t-2 -16.5q-1 -5 1 -10.5t7 -7.5t9.5 -2t9.5 4q21 19 46.5 29.5t52.5 10.5q63 0 107 -46t44 -111q2 -64 -41.5 -109.5t-105.5 -45.5v0z" />
</svg>