<svg viewBox="0 0 1024 1024" xmlns="http://www.w3.org/2000/svg">
  <path transform="scale(1, -1) translate(0, -960)" fill="currentColor" d="M992 541q0 78 -53.5 133.5t-128.5 55.5q-24 0 -47.5 -6.5t-44.5 -19.5v2v1q0 45 -16 84t-44.5 68.5t-65.5 46.5q-38 17 -82 17q-43 0 -81 -17t-66 -46t-44 -68q-17 -40 -17 -85v0v-1q-20 10 -41.5 16t-44.5 6q-77 2 -130.5 -53t-53.5 -134q0 -73 48.5 -127.5t117.5 -61.5 v-197h-9q-29 0 -49 -20t-20 -49v-48q0 -28 20 -48t49 -20h646q29 0 49 20t20 48v48q0 29 -20 49t-49 20h-9v197q69 7 117.5 61.5t48.5 127.5v0zM872 88v-48q0 -16 -10.5 -26.5t-26.5 -10.5h-646q-16 0 -26.5 10.5t-10.5 26.5v48q0 16 10.5 26.5t26.5 10.5h646q15 0 26 -10.5 t11 -26.5zM661 157l27 89q2 6 -1 12t-10 8q-6 2 -12 -1t-7 -11l-31 -97h-99v110q0 7 -4.5 11.5t-11.5 4.5t-11.5 -4.5t-4.5 -11.5v-110h-101l-30 97q-3 6 -8 9.5t-11 2.5q-6 -3 -9.5 -8.5t-2.5 -11.5l28 -89h-132v211q0 7 -4 11.5t-12 4.5q-62 0 -106 46t-44 111t44 111 t106 46q27 0 50.5 -9.5t44.5 -26.5q3 -3 8.5 -3.5t8.5 2.5q4 2 7 6.5t1 9.5q-1 7 -2 14.5t-1 15.5q0 76 51.5 130t124.5 54t124.5 -53.5t51.5 -130.5q0 -9 -1 -18t-2 -17q-1 -5 1 -10t7 -8q5 -2 9.5 -2t9.5 4q21 19 46.5 29.5t52.5 10.5q63 0 107 -46t44 -111t-44 -111 t-107 -46q-7 0 -11.5 -4t-4.5 -12v-211h-129v2z" />
</svg>