<svg viewBox="0 0 256 256" xmlns="http://www.w3.org/2000/svg">
  <path transform="scale(1, -1) translate(0, -256)" fill="currentColor" d="M202 196q-10 0 -20 -4q-1 22 -17 37t-37.5 15t-37.5 -15t-17 -37q-10 4 -19 4q-20 0 -34.5 -14.5t-14.5 -34.5t12 -34.5t30 -16.5v-61q0 -11 8.5 -18t18.5 -5l15 2q39 7 78 0l18 -2q9 0 16 5q4 4 6 8.5t2 9.5v61q18 3 30 17t12 34t-14 34.5t-35 14.5zM192 28q-4 -3 -8 -2 l-15 2q-18 3 -41 3q-19 0 -41 -3l-15 -2q-4 -1 -7.5 2t-3.5 8v21l28 5q39 6 78 0l29 -5v-21q-1 -6 -4 -8zM202 110q-3 0 -5 -2.5t-2 -5.5v-31l-27 5v32q0 3 -2.5 5t-5.5 2t-4.5 -2t-1.5 -5v-31q-26 3 -51 0v31q0 3 -2 5t-5 2t-5.5 -2t-2.5 -5v-33l-27 -5v32q0 3 -2 5t-5 2 q-15 0 -25 11t-10 26t10 25.5t23.5 10.5t22.5 -8q4 -3 8.5 -0.5t2.5 6.5v8q0 17 12 29.5t29 12.5t29 -12.5t12 -29.5q0 -4 -0.5 -9t3.5 -7q2 -1 4.5 -1t3.5 2q10 9 23.5 9t24 -10.5t10.5 -25.5t-10 -25.5t-25 -10.5z" />
</svg>