<svg viewBox="0 0 256 256" xmlns="http://www.w3.org/2000/svg">
  <path transform="scale(1, -1) translate(0, -256)" fill="currentColor" d="M202 196q-10 0 -20 -4q-1 22 -17 37t-37.5 15t-37.5 -15t-17 -37q-10 4 -19 4q-20 0 -34.5 -14t-14.5 -33.5t12 -33.5t30 -17v-62q0 -10 7 -17t16 -7h116q10 0 17 7t7 17v62q17 3 29 16.5t12 33t-14.5 34t-34.5 14.5zM186 26h-116q-3 0 -6 3t-3 7v17h134v-17 q0 -4 -2.5 -7t-6.5 -3zM202 112q-3 0 -5 -2.5t-2 -5.5v-37h-33v25q0 3 -2 5.5t-5 2.5t-5 -2t-2 -5v-26h-40v26q0 3 -2 5t-5 2t-5 -2t-2 -5v-26h-34v38q0 3 -2 5t-5 2q-14 0 -24.5 10.5t-10.5 25t10.5 24.5t24.5 10q12 0 22 -8q4 -3 8.5 0t2.5 7v7q0 17 12 29t29 12t29 -12 t12 -29v-8q-1 -2 0 -4.5t3 -3.5t4 -1t4 2q10 9 23.5 9t23.5 -10.5t10.5 -25t-9.5 -24.5t-25 -10z" />
</svg>