<svg viewBox="0 0 256 256" xmlns="http://www.w3.org/2000/svg">
  <path transform="scale(1, -1) translate(0, -256)" fill="currentColor" d="M202 198q-10 0 -20 -5q-1 22 -17 37.5t-37.5 15.5t-37.5 -15t-17 -37q-10 4 -19 4q-20 0 -34.5 -15t-14.5 -35t12 -34t30 -16v-64q0 -10 7 -17t17 -7h115q10 0 17 7t7 17v64q17 2 29 16t12 34t-14.5 35t-34.5 15zM185 24h-114q-4 0 -7 3t-3 7v18h134v-18q0 -4 -3 -7 t-7 -3zM202 111q-3 0 -5 -2t-2 -5v-38h-26l6 24q1 3 -0.5 5.5t-4.5 3t-5.5 -1t-2.5 -3.5l-7 -28h-20v30q0 3 -2 5t-5 2t-5 -2t-2 -5v-30h-20l-6 28q-1 2 -3.5 3.5t-5 1t-4 -3t-1.5 -5.5l6 -24h-26v38q0 3 -2 5t-5 2q-14 0 -24.5 11t-10.5 26t10.5 25.5t23.5 10.5t23 -8 q3 -3 7.5 -0.5t3.5 6.5l-1 8q0 17 12.5 29.5t29.5 12.5t29 -12.5t12 -30.5q0 -3 -1 -8t4 -7q2 -2 4 -1.5t4 1.5q9 10 23 10t24 -11t10 -26t-10 -25.5t-25 -10.5z" />
</svg>