<svg viewBox="0 0 256 256" xmlns="http://www.w3.org/2000/svg">
  <path transform="scale(1, -1) translate(0, -256)" fill="currentColor" d="M190 206q-7 20 -24 32.5t-38 12.5t-38 -12.5t-24 -32.5q-23 -5 -38.5 -23.5t-15.5 -42.5v-1q0 -18 12.5 -32t30.5 -17l1 -62q0 -9 7 -16t17 -7h96q10 0 16.5 7t7.5 16l1 63q18 2 30.5 16t12.5 33q0 24 -15.5 42.5t-38.5 23.5zM176 19h-96q-4 0 -7 2.5t-3 6.5v20h116v-20 q0 -4 -3 -6.5t-7 -2.5zM196 104q-3 0 -5.5 -3t-3.5 -6l-1 -33h-116l-1 33q0 3 -2.5 6t-6.5 3q-14 1 -24 11t-10 24v1q0 19 12.5 34t31.5 18q7 2 10 9q5 16 18 26t30 10t30.5 -10t17.5 -26q3 -7 10 -9q19 -3 31.5 -18t12.5 -34q0 -15 -10 -25t-24 -11z" />
</svg>