<svg viewBox="0 0 1024 1024" xmlns="http://www.w3.org/2000/svg">
  <path transform="scale(1, -1) translate(0, -960)" fill="currentColor" d="M810 714q-24 0 -47.5 -6.5t-44.5 -19.5v2v1q0 45 -16 84t-44.5 68t-65.5 46q-38 17 -82 17q-43 0 -81 -17t-66 -46t-44 -68q-17 -39 -17 -84v0v-1q-20 10 -41.5 16t-44.5 6q-77 1 -130.5 -54t-53.5 -133q0 -73 48.5 -127.5t117.5 -61.5v-266q0 -34 24.5 -58.5t59.5 -24.5 h459q35 0 59 24.5t24 58.5v266q71 7 119.5 61.5t48.5 127.5q0 78 -53.5 133.5t-128.5 55.5zM741 21h-458q-21 0 -36 14.5t-15 36.5v83h562v-83q0 -22 -16 -36.5t-37 -14.5zM810 368q-8 0 -12 -4.5t-4 -11.5v-166h-132l28 113q1 6 -2.5 12t-9.5 7q-6 2 -12 -1.5t-7 -9.5 l-29 -121h-102v134q0 7 -4.5 11.5t-11.5 4.5t-11.5 -4.5t-4.5 -11.5v-134h-101l-29 121q-1 6 -7 10t-12 1q-6 -1 -9.5 -7t-1.5 -12l27 -113h-131v166q0 7 -4.5 11.5t-11.5 4.5q-64 0 -108 46t-44 111t44 111t106 46q27 0 50.5 -9.5t44.5 -26.5q3 -3 8.5 -3.5t8.5 2.5 q5 2 7.5 6.5t0.5 9.5q-1 7 -2 14.5t-1 15.5q0 76 51.5 129.5t124.5 53.5t124.5 -53.5t51.5 -129.5q0 -9 -1 -18t-2 -17q-1 -5 1 -10t7 -8q5 -2 9.5 -2t9.5 4q21 19 46.5 29.5t52.5 10.5q63 0 107 -46t44 -111q2 -63 -41.5 -109t-105.5 -46v0z" />
</svg>