<svg viewBox="0 0 256 256" xmlns="http://www.w3.org/2000/svg">
  <path transform="scale(1, -1) translate(0, -256)" fill="currentColor" d="M251 151q0 21 -14.5 36t-34.5 15q-10 0 -20 -5q-1 22 -17 37.5t-37.5 15.5t-37.5 -15t-17 -37q-10 4 -19 4q-20 0 -34.5 -14.5t-14.5 -34.5t12 -34.5t30 -16.5v-44q-8 0 -14 -6t-6 -14v-12q0 -8 6 -14t14 -6h162q8 0 14 6t6 14v12q0 8 -6 14t-14 6v44q18 2 30 16t12 33z M19 151q0 15 10.5 26t23.5 11t23 -8q3 -3 7.5 -0.5t3.5 6.5l-1 7q0 18 12.5 30.5t29.5 12.5t29 -12.5t12 -30.5q0 -3 -1 -8t4 -7q2 -2 4 -1.5t4 1.5q9 10 23 10t24 -11t10 -26t-10 -25.5t-25 -10.5q-3 0 -5 -2t-2 -5v-50h-27l7 18q1 2 -0.5 5t-4 3.5t-5 -0.5t-3.5 -4l-8 -22 h-19v24q0 3 -2 5t-5 2t-5.5 -2t-2.5 -5v-24h-18l-9 22q-1 3 -3.5 4.5t-5 0t-4 -4t-0.5 -4.5l7 -18h-27v50q0 3 -2 5t-5 2q-14 0 -24 10.5t-10 25.5zM215 38v-12q0 -2 -2 -4t-4 -2h-162q-2 0 -4 2t-2 4v12q0 2 2 4t4 2h162q2 0 4 -2t2 -4z" />
</svg>