<svg viewBox="0 0 1024 1024" xmlns="http://www.w3.org/2000/svg">
  <path transform="scale(1, -1) translate(0, -960)" fill="currentColor" d="M877 928h-730q-33 0 -56.5 -23t-23.5 -57v-725q0 -33 23.5 -56.5t56.5 -23.5h5v-59q0 -7 4.5 -11.5t11.5 -4.5t11.5 4.5t4.5 11.5v59h635v-59q0 -7 4.5 -11.5t11.5 -4.5t11.5 4.5t4.5 11.5v59h27q34 0 57 23.5t23 56.5v725q-1 34 -24.5 57t-56.5 23v0zM99 606h403v-248 h-403v248v0zM534 606h391v-248h-391v248zM925 848v-210h-391v258h343q20 0 34 -14t14 -34zM147 896h355v-258h-403v210q0 20 14 34t34 14zM99 123v203h403v-248q0 -1 0.5 -2t1.5 -1h-357q-20 0 -34 14t-14 34v0zM877 75h-343q0 1 1 2l1 1v248h390v-203q-1 -20 -15 -34 t-34 -14zM717 218q-7 0 -11.5 -4.5t-4.5 -11.5v-32q0 -8 4.5 -12t11.5 -4t11.5 4t4.5 12v32q0 7 -4.5 11.5t-11.5 4.5zM320 218q-7 0 -11.5 -4.5t-4.5 -11.5v-32q0 -8 4.5 -12t11.5 -4t11.5 4t4.5 12v32q0 7 -4.5 11.5t-11.5 4.5zM717 498q-7 0 -11.5 -4.5t-4.5 -11.5v-32 q0 -8 4.5 -12t11.5 -4t11.5 4t4.5 12v32q0 7 -4.5 11.5t-11.5 4.5zM320 498q-7 0 -11.5 -4.5t-4.5 -11.5v-32q0 -8 4.5 -12t11.5 -4t11.5 4t4.5 12v32q0 7 -4.5 11.5t-11.5 4.5zM717 734q7 0 11.5 4.5t4.5 11.5v32q0 8 -4.5 12t-11.5 4t-11.5 -4t-4.5 -12v-32q0 -7 5 -11.5 t11 -4.5zM320 734q7 0 11.5 4.5t4.5 11.5v32q0 8 -4.5 12t-11.5 4t-11.5 -4t-4.5 -12v-32q0 -7 4.5 -11.5t11.5 -4.5z" />
</svg>