<svg viewBox="0 0 256 256" xmlns="http://www.w3.org/2000/svg">
  <path transform="scale(1, -1) translate(0, -256)" fill="currentColor" d="M233 228q0 10 -7 16.5t-16 6.5h-164q-9 0 -16 -6.5t-7 -16.5v-32q0 -10 7 -16q-7 -7 -7 -16v-33q0 -10 7 -16q-6 -7 -6 -16v-48q0 -8 5 -14t12 -8v-17q0 -3 2 -5t5 -2t5 2t2 5v16h25q10 0 16 6q7 -6 16 -6h33q9 0 16 6q6 -6 16 -6h25v-16q0 -3 2 -5t5 -2t5 2t2 5v16 q8 3 12.5 9t4.5 13v49q0 8 -6 15q7 7 7 17v32q0 10 -6 16q6 7 6 16v33h-1zM37 228q0 4 3 6.5t6 2.5h164q4 0 6.5 -2.5t2.5 -6.5v-32q0 -4 -2.5 -7t-6.5 -3h-164q-3 0 -6 3t-3 7v32zM219 164v-33q0 -3 -3 -6t-6 -3h-163q-4 0 -6.5 2.5t-2.5 6.5v33q0 3 2.5 6t6.5 3h163 q4 -1 6.5 -3.5t2.5 -5.5zM80 42h-33q-3 0 -6 2.5t-3 6.5v48q0 3 2.5 6t6.5 3h33q3 0 6 -2.5t3 -6.5v-49q0 -3 -3 -5.5t-6 -2.5zM144 42h-32q-4 0 -6.5 2.5t-2.5 6.5v48q0 3 2.5 6t6.5 3h32q4 0 7 -2.5t3 -6.5v-49q-1 -3 -3.5 -5.5t-6.5 -2.5zM218 50q0 -3 -2.5 -6t-6.5 -3 h-33q-3 0 -6 3t-3 6v49q0 3 3 6t6 3h33q3 0 6 -2.5t3 -6.5v-49zM111 205h34q3 0 5 2t2 5t-2 5t-5 2h-34q-3 0 -5 -2t-2 -5t2 -5t5 -2zM111 143h34q3 0 5 2t2 5t-2 5.5t-5 2.5h-34q-3 0 -5 -2.5t-2 -5.5t2 -5t5 -2z" />
</svg>