<svg viewBox="0 0 1024 1024" xmlns="http://www.w3.org/2000/svg">
  <path transform="scale(1, -1) translate(0, -960)" fill="currentColor" d="M810 928h-596q-33 0 -56.5 -23t-23.5 -57v-800q0 -34 23.5 -57t56.5 -23h596q33 0 56.5 23t23.5 57v800q0 34 -23.5 57t-56.5 23zM166 347h692v-150h-692v150v0zM858 848v-469h-330v517h282q20 0 34 -14t14 -34zM214 896h282v-517h-330v469q0 20 14 34t34 14v0zM810 0 h-596q-20 0 -34 14t-14 34v117h692v-117q0 -20 -14 -34t-34 -14zM690 597q7 0 11.5 4.5t4.5 11.5v41q0 8 -4.5 12t-11.5 4q-8 0 -12 -4t-4 -12v-41q0 -7 5 -11.5t11 -4.5zM334 597q8 0 12 4.5t4 11.5v41q0 8 -4 12t-12 4q-7 0 -11.5 -4t-4.5 -12v-41q0 -7 4.5 -11.5 t11.5 -4.5z" />
</svg>