<svg viewBox="0 0 256 256" xmlns="http://www.w3.org/2000/svg">
  <path transform="scale(1, -1) translate(0, -256)" fill="currentColor" d="M202 251h-148q-10 0 -17 -7t-7 -16v-200q0 -10 7 -17t17 -7h148q10 0 17 7t7 17v200q0 10 -7 16.5t-17 6.5zM44 100h167v-32h-167v32zM212 228v-114h-77v123h68q3 0 6 -2.5t3 -6.5zM54 237h67v-123h-77v114q0 4 3 6.5t7 2.5zM202 19h-148q-4 0 -7 2.5t-3 6.5v26h167v-26 q1 -4 -2 -6.5t-7 -2.5zM172 162q3 0 5.5 2t2.5 5v11q0 3 -2.5 5t-5.5 2t-5 -2t-2 -5v-11q1 -3 3 -5t4 -2zM84 162q3 0 5 2t2 5v11q0 3 -2 5t-5 2t-5.5 -2t-2.5 -5v-11q0 -3 2.5 -5t5.5 -2z" />
</svg>