<svg viewBox="0 0 256 256" xmlns="http://www.w3.org/2000/svg">
  <path transform="scale(1, -1) translate(0, -256)" fill="currentColor" d="M228 242h-200q-10 0 -16.5 -7t-6.5 -17v-160q0 -10 6.5 -16.5t16.5 -6.5v-13q0 -3 2 -5.5t5 -2.5t5 2.5t2 5.5v13h166v-13q0 -3 2.5 -5.5t5.5 -2.5t5 2.5t2 5.5v13h5q10 0 16.5 6.5t6.5 16.5v160q0 10 -6.5 17t-16.5 7zM19 165h104v-40h-104v40zM137 165h100v-40h-100v40 zM28 228h200q4 0 6.5 -3t2.5 -7v-39h-218v39q0 4 2.5 7t6.5 3zM19 58v53h104v-62h-95q-4 0 -6.5 2.5t-2.5 6.5zM228 49h-91v62h100v-53q0 -4 -2.5 -6.5t-6.5 -2.5zM184 88q-3 0 -5.5 -2.5t-2.5 -5.5v-8q0 -3 2.5 -5t5.5 -2t5 2t2 5v8q0 3 -2.5 5.5t-4.5 2.5zM76 65q3 0 5 2 t2 5v8q0 3 -2 5.5t-5 2.5t-5 -2.5t-2 -5.5v-8q0 -3 2 -5t5 -2z" />
</svg>