<svg viewBox="0 0 256 256" xmlns="http://www.w3.org/2000/svg">
  <path transform="scale(1, -1) translate(0, -256)" fill="currentColor" d="M228 247h-200q-10 0 -16.5 -6.5t-6.5 -16.5v-172q0 -9 7 -15.5t16 -6.5v-14q0 -3 2 -5t5 -2t5 2t2 5v13h167v-13q0 -3 2 -5t5 -2t5 2t2 5v13h5q10 0 16.5 7t6.5 16v172q0 10 -6.5 16.5t-16.5 6.5zM237 224v-39h-100v48h91q4 0 6.5 -2.5t2.5 -6.5zM28 233h95v-119h-104 v110q0 4 2.5 6.5t6.5 2.5zM19 52v48h104v-57h-95q-4 0 -6.5 3t-2.5 6zM228 43h-91v128h100v-119q0 -3 -2.5 -6t-6.5 -3zM162 120q-3 0 -5.5 -2t-2.5 -5v-9q0 -3 2.5 -5t5.5 -2t5 2t2 5v9q0 3 -2 5t-5 2zM66 69h9q3 0 5 2t2 5t-2 5.5t-5 2.5h-9q-3 0 -5 -2.5t-2 -5.5t2 -5 t5 -2zM96 165q3 0 5.5 2t2.5 5v9q0 3 -2.5 5t-5.5 2t-5 -2t-2 -5v-9q1 -3 3 -5t4 -2zM180 199h8q3 0 5.5 2t2.5 5t-2.5 5t-5.5 2h-8q-3 0 -5 -2t-2 -5t2 -5t5 -2z" />
</svg>