<svg viewBox="0 0 256 256" xmlns="http://www.w3.org/2000/svg">
  <path transform="scale(1, -1) translate(0, -256)" fill="currentColor" d="M237 180v23q0 3 -2 5t-5 2h-50v18q0 7 -6 13t-14 6h-65q-8 0 -13.5 -5.5t-5.5 -13.5v-18h-50q-3 0 -5 -2t-2 -5v-24q-6 -1 -10 -6t-4 -12v-33q0 -7 5.5 -12.5t12.5 -5.5h6q8 0 13 5.5t5 12.5v33q0 7 -4 12t-10 6v17h43v-109q-8 0 -13.5 -5.5t-5.5 -13.5v-12 q0 -8 5.5 -13.5t13.5 -5.5h20v-21q0 -3 2 -5t5 -2t5 2t2 5v21h36v-21q0 -3 2 -5t5 -2t5 2t2 5v21h20q8 0 14 5.5t6 13.5v12q0 8 -6 13.5t-14 5.5v0v109h43v-16q-6 -2 -10 -7t-4 -11v-33q0 -8 5.5 -13.5t12.5 -5.5h6q7 0 12.5 5.5t5.5 13.5v33q0 6 -4 11t-10 7zM34 129 q0 -2 -1.5 -3.5t-3.5 -1.5h-5q-2 0 -3.5 1.5t-1.5 3.5v33q0 1 1.5 2.5t3.5 1.5h5q2 0 3.5 -1.5t1.5 -2.5v-33zM90 228q0 2 1.5 3.5t4.5 1.5h65q2 0 3.5 -1.5t1.5 -3.5v-18h-76v18zM185 68v-12q0 -2 -1.5 -3.5t-3.5 -1.5h-104q-2 0 -3.5 1.5t-1.5 3.5v12q0 2 1.5 3.5t3.5 1.5 h104q5 0 5 -5zM166 87h-76v109h76v-109zM237 129q0 -2 -1 -3.5t-3 -1.5h-6q-2 0 -3 1.5t-1 3.5v33q0 1 1 2.5t3 1.5h6q2 0 3 -1.5t1 -2.5v-33z" />
</svg>