<svg viewBox="0 0 1024 1024" xmlns="http://www.w3.org/2000/svg">
  <path transform="scale(1, -1) translate(0, -960)" fill="currentColor" d="M912 912h-800q-34 0 -57 -24t-23 -56v-686q0 -34 23 -57t57 -23h11v-66q0 -7 4.5 -11.5t11.5 -4.5t11.5 4.5t4.5 11.5v66h690v-66q0 -7 4.5 -11.5t11.5 -4.5t11.5 4.5t4.5 11.5v66h35q34 0 57 23t23 57v686q0 32 -23 56t-57 24zM960 832v-170h-424v218h376q20 0 34 -14.5 t14 -33.5zM112 880h392v-498h-440v450q0 19 14 33.5t34 14.5zM64 146v204h440v-246v-2.5t2 -3.5h-394q-20 0 -34 13.5t-14 34.5v0zM912 98h-378q0 1 1 2.5t1 3.5v528h424v-485q0 -21 -14 -35t-34 -14zM646 403q-7 0 -11.5 -4.5t-4.5 -11.5v-33q0 -8 4.5 -12t11.5 -4 q8 0 12 4t4 12v33q0 7 -4 11.5t-12 4.5zM299 256h-33q-8 0 -12 -4.5t-4 -11.5t4 -11.5t12 -4.5h33q7 0 11.5 4.5t4.5 11.5t-4.5 11.5t-11.5 4.5zM386 610q7 0 11.5 4t4.5 12v33q0 7 -4.5 11.5t-11.5 4.5q-8 0 -12 -4.5t-4 -11.5v-33q0 -8 5 -12t11 -4zM720 744h34 q7 0 11.5 4.5t4.5 11.5t-4.5 11.5t-11.5 4.5h-34q-7 0 -11.5 -4.5t-4.5 -11.5t4.5 -11.5t11.5 -4.5z" />
</svg>