<svg viewBox="0 0 1024 1024" xmlns="http://www.w3.org/2000/svg">
  <path transform="scale(1, -1) translate(0, -960)" fill="currentColor" d="M912 890h-800q-34 0 -57 -23.5t-23 -56.5v-644q0 -33 23 -56.5t57 -23.5h11v-65q0 -7 4.5 -11.5t11.5 -4.5t11.5 4.5t4.5 11.5v65h690v-65q0 -7 4.5 -11.5t11.5 -4.5t11.5 4.5t4.5 11.5v65h35q34 0 57 23.5t23 56.5v644q0 33 -23 56.5t-57 23.5zM365 858h241v-735 q0 -1 0.5 -2.5t1.5 -3.5h-245q0 1 1 2.5t1 3.5v735zM638 610h322v-228h-322v228v0zM960 810v-170h-322v218h274q20 0 34 -14t14 -34zM64 166v644q0 20 14 34t34 14h221v-735v-2.5t1 -3.5h-222q-20 1 -34 15.5t-14 33.5v0zM912 118h-274q0 2 1 3t1 4v225h320v-182 q0 -20 -14 -35t-34 -15zM491 480q7 0 11.5 4.5t4.5 11.5v34q0 7 -4.5 11.5t-11.5 4.5t-11.5 -4.5t-4.5 -11.5v-34q0 -7 5 -11.5t11 -4.5zM202 546q-8 0 -12 -4.5t-4 -11.5v-34q0 -7 4 -11.5t12 -4.5q7 0 11.5 4.5t4.5 11.5v34q0 6 -5 11t-11 5z" />
</svg>