<svg viewBox="0 0 1024 1024" xmlns="http://www.w3.org/2000/svg">
  <path transform="scale(1, -1) translate(0, -960)" fill="currentColor" d="M810 928h-596q-33 0 -56.5 -23t-23.5 -57v-800q0 -34 23.5 -57t56.5 -23h596q33 0 56.5 23t23.5 57v800q0 34 -23.5 57t-56.5 23zM858 848v-208h-330v256h282q20 0 34 -14t14 -34zM214 896h282v-256h-330v208q0 20 14 34t34 14v0zM166 48v560h330v-179h-30q-8 0 -12 -4.5 t-4 -11.5t4 -11.5t12 -4.5h30v-397h-282q-20 0 -34 14t-14 34v0zM810 0h-282v397h30q8 0 12 4.5t4 11.5t-4 11.5t-12 4.5h-30v179h330v-560q0 -20 -14 -34t-34 -14zM675 747h42q7 0 11.5 4.5t4.5 11.5t-4.5 11.5t-11.5 4.5h-42q-7 0 -11.5 -4.5t-4.5 -11.5t5 -11.5t11 -4.5z M320 747h42q7 0 11.5 4.5t4.5 11.5t-4.5 11.5t-11.5 4.5h-42q-7 0 -11.5 -4.5t-4.5 -11.5t4.5 -11.5t11.5 -4.5z" />
</svg>