<svg viewBox="0 0 1024 1024" xmlns="http://www.w3.org/2000/svg">
  <path transform="scale(1, -1) translate(0, -960)" fill="currentColor" d="M904 928h-784q-36 0 -62 -26t-26 -62v-856q0 -7 4.5 -11.5t11.5 -4.5t11.5 4.5t4.5 11.5v139h896v-139q0 -7 4.5 -11.5t11.5 -4.5t11.5 4.5t4.5 11.5v856q0 36 -26 62t-62 26zM960 702v-164h-432v164h432zM496 538h-432v164h432v-164zM64 506h432v-159h-432v159zM528 506 h432v-159h-432v159zM120 896h784q23 0 39.5 -16.5t16.5 -39.5v-106h-896v106q0 23 16.5 39.5t39.5 16.5zM64 155v159h896v-159h-896z" />
</svg>