<svg viewBox="0 0 256 256" xmlns="http://www.w3.org/2000/svg">
  <path transform="scale(1, -1) translate(0, -256)" fill="currentColor" d="M203 251h-150q-8 0 -13.5 -5.5t-5.5 -13.5v-208q0 -8 5.5 -13.5t13.5 -5.5h150q8 0 13.5 5.5t5.5 13.5v208q0 8 -5.5 13.5t-13.5 5.5zM208 24q0 -2 -1.5 -3.5t-3.5 -1.5h-150q-2 0 -3.5 1.5t-1.5 3.5v208q0 2 1.5 3.5t3.5 1.5h150q2 0 3.5 -1.5t1.5 -3.5v-208zM184 142 h-1q-8 -2 -17 -1q-17 4 -31 23v23q17 -16 38 -16q6 0 11 2l5 1q3 1 4 4t-0.5 5.5t-4 3.5t-5.5 0v0q-8 -3 -17 -1q-17 3 -31 22v5q0 3 -2 5t-5 2t-5.5 -2t-2.5 -5v-7q-13 -18 -31 -21q-8 -1 -16 2v0q-3 1 -5.5 0t-4 -3.5t-0.5 -5.5t4 -4l5 -1q6 -2 12 -2q20 0 36 15v-25 q-13 -18 -30 -20q-9 -2 -17 1v0q-2 1 -5 0t-4 -3.5t0 -5.5t4 -4l4 -1q6 -2 12 -2q20 0 36 15v-27q0 -3 2.5 -5.5t5.5 -2.5t5 2.5t2 5.5v28q17 -16 38 -16q9 0 16 3v0q3 1 4 4t0 5.5t-4 4t-5 -0.5zM163 94q-14 4 -35 -9q-22 13 -37 9q-11 -2 -16 -15q-7 -17 3 -29 q7 -10 22 -14q13 -3 27 -1l11 -1q12 0 22.5 4t16.5 11q10 12 3 29q-6 13 -17 16zM166 58q-5 -5 -15.5 -8t-21.5 -1h-4q-11 -2 -21.5 1t-15.5 8.5t-1 15.5q2 4 7 7v0q6 1 16 -3q8 -3 13 -7l4 -3l5 3q5 4 12 7q10 4 15 3t7 -7q4 -10 0 -16z" />
</svg>