<svg viewBox="0 0 1024 1024" xmlns="http://www.w3.org/2000/svg">
  <path transform="scale(1, -1) translate(0, -960)" fill="currentColor" d="M813 928h-600q-27 0 -45.5 -19t-18.5 -45v-832q0 -26 18.5 -45t45.5 -19h600q26 0 45 19t19 45v832q0 26 -19 45t-45 19zM845 32q0 -13 -9.5 -22.5t-22.5 -9.5h-600q-13 0 -22.5 9.5t-9.5 22.5v832q0 13 9.5 22.5t22.5 9.5h600q13 0 22.5 -9.5t9.5 -22.5v-832zM739 494 q-1 0 -69 -5.5t-140 98.5v0v0v125q43 -49 86 -64.5t77 -15.5q26 0 42.5 5l16.5 5q6 2 8 8t0 12t-8.5 8.5t-12.5 -0.5q-5 2 -72 -3t-139 99v24q0 8 -4.5 12t-11.5 4t-11.5 -4t-4.5 -12v-30q-71 -97 -137 -92.5t-69 6.5q-6 2 -12.5 0t-8.5 -8q-3 -6 -0.5 -12.5t8.5 -8.5 l16.5 -5t44.5 -5q32 0 74 15t84 60v-129q-71 -96 -137 -91t-69 6q-6 2 -12.5 0t-8.5 -8q-3 -6 -0.5 -12t8.5 -9l16.5 -4.5t44.5 -4.5q32 0 73.5 14.5t84.5 58.5v-136q0 -7 4.5 -11.5t11.5 -4.5t11.5 4.5t4.5 11.5v144q43 -50 87 -65.5t76 -15.5q27 0 43 4.5l16 4.5 q6 3 8.5 9t-0.5 12q-1 5 -7 7t-12 -1v0zM650 301q-40 11 -81 -8.5t-59 -31.5q-18 12 -60.5 31.5t-83.5 8.5q-19 -5 -33.5 -19t-23.5 -34q-16 -37 -9.5 -63.5t18.5 -40.5q30 -37 85.5 -48.5t102.5 -5.5h4q10 -2 19.5 -3t19.5 -1q42 0 83 13t64 43q12 16 18.5 41.5t-8.5 62.5 q-9 22 -23 35.5t-33 19.5zM672 162q-20 -26 -64.5 -37.5t-93.5 -4.5h-13q-48 -7 -93 4.5t-66 37.5q-12 14 -13 32.5t9 39.5q6 14 14.5 22.5t20.5 12.5q31 8 70 -11t55 -31l9 -8l10 8q14 12 52 31t69 11q12 -4 21 -12.5t15 -22.5q12 -22 11 -40t-13 -32z" />
</svg>