<svg viewBox="0 0 256 256" xmlns="http://www.w3.org/2000/svg">
  <path transform="scale(1, -1) translate(0, -256)" fill="currentColor" d="M202 251h-148q-10 0 -17 -7t-7 -16v-200q0 -10 7 -17t17 -7h148q10 0 17 7t7 17v200q0 10 -7 16.5t-17 6.5zM212 228v-49h-77v58h68q3 0 6 -2.5t3 -6.5zM54 237h67v-58h-77v49q0 4 3 6.5t7 2.5zM44 28v137h77v-39h-5q-3 0 -5 -2t-2 -5t2 -5t5 -2h5v-94h-67q-4 1 -7 3.5 t-3 6.5zM202 19h-67v93h5q3 0 5 2.5t2 5.5t-2 5t-5 2h-5v39h77v-138q0 -4 -3 -6.5t-7 -2.5zM169 200h10q3 0 5 2t2 5t-2 5t-5 2h-10q-3 0 -5 -2t-2 -5t2 -5t5 -2zM80 200h10q3 0 5.5 2t2.5 5t-2.5 5t-5.5 2h-10q-3 0 -5 -2t-2 -5t2 -5t5 -2z" />
</svg>