<svg viewBox="0 0 1024 1024" xmlns="http://www.w3.org/2000/svg">
  <path transform="scale(1, -1) translate(0, -960)" fill="currentColor" d="M918 718v130q0 34 -23 57t-57 23h-652q-34 0 -57 -23t-23 -57v-130q0 -19 8.5 -36t23.5 -28q-15 -10 -23.5 -27t-8.5 -37v-129q0 -21 9.5 -38t25.5 -28q-15 -11 -23 -27t-8 -35v-194q0 -29 19 -51t47 -27v-77q0 -7 4.5 -11.5t11.5 -4.5t11.5 4.5t4.5 11.5v74h112 q19 0 36 8.5t28 23.5q11 -15 28 -23.5t36 -8.5h130q19 0 36 8.5t28 23.5q10 -15 27 -23.5t37 -8.5h112v-74q0 -7 4 -11.5t12 -4.5q7 0 11.5 4.5t4.5 11.5v75q27 5 46 27.5t19 51.5v193q0 19 -8.5 35.5t-21.5 27.5q15 10 25 27.5t10 37.5v130q0 19 -9 36t-23 28 q13 12 21.5 28.5t8.5 36.5v0zM318 90h-129q-21 0 -34.5 13.5t-13.5 34.5v193q0 21 13.5 34.5t34.5 13.5h129q21 0 34.5 -13.5t13.5 -34.5v-193q0 -20 -13.5 -34t-34.5 -14zM382 379v0q2 0 1 0h-1v0v0zM578 90h-130q-20 0 -34 13.5t-14 34.5v193q0 21 14 34.5t34 13.5h130 q20 0 34 -13.5t14 -34.5v-193q0 -20 -14.5 -34t-33.5 -14zM640 379v0h1h-1q1 0 0.5 0h-0.5zM883 138q0 -21 -13.5 -34.5t-34.5 -13.5h-129q-21 0 -34.5 13.5t-13.5 34.5v193q0 21 13.5 34.5t34.5 13.5h129q21 0 34.5 -13.5t13.5 -34.5v-193zM886 590v-129q0 -21 -13.5 -34.5 t-34.5 -13.5h-651q-20 0 -34 13.5t-14 34.5v129q0 21 14 34.5t34 13.5h655q18 0 31 -14t13 -34v0zM886 718q0 -20 -13.5 -34t-34.5 -14h-652q-21 0 -34.5 14t-13.5 34v130q0 20 13.5 34t34.5 14h654q20 0 34 -14t14 -34v-130h-2zM581 798h-138q-7 0 -11.5 -4t-4.5 -12 q0 -7 4.5 -11.5t11.5 -4.5h138q7 0 11.5 4.5t4.5 11.5q0 8 -5 12t-11 4zM443 520h138q7 0 11.5 4.5t4.5 11.5t-4.5 11.5t-11.5 4.5h-138q-7 0 -11.5 -4.5t-4.5 -11.5t5 -11.5t11 -4.5v0z" />
</svg>