<svg viewBox="0 0 256 256" xmlns="http://www.w3.org/2000/svg">
  <path transform="scale(1, -1) translate(0, -256)" fill="currentColor" d="M219 251h-182q-10 0 -16.5 -6.5t-6.5 -16.5v-181q0 -9 6 -15.5t15 -7.5v-12q0 -3 2 -5t5 -2t5 2t2 5v12h153v-12q0 -3 2 -5t5 -2t5 2t2 5v12h4q10 0 16.5 6.5t6.5 16.5v181q0 10 -7 16.5t-17 6.5zM28 164h94v-56h-94v56zM137 164h91v-56h-91v56zM228 228v-50h-91v59h82 q4 0 6.5 -2.5t2.5 -6.5zM37 237h86v-59h-95v50q0 4 2.5 6.5t6.5 2.5zM28 47v48h94v-57h-85q-4 0 -6.5 2.5t-2.5 6.5zM219 38h-82v56h91v-48q0 -3 -2.5 -5.5t-6.5 -2.5zM179 74q-3 0 -5 -2.5t-2 -5.5v-8q0 -3 2 -5t5 -2t5 2t2 5v8q0 3 -2 5.5t-5 2.5zM80 52q3 0 5 2t2 5v8 q0 3 -2 5t-5 2t-5 -2t-2 -5v-8q0 -3 2 -5t5 -2zM179 144q-3 0 -5 -2.5t-2 -5.5v-8q0 -3 2 -5t5 -2t5 2t2 5v8q0 3 -2 5.5t-5 2.5zM80 144q-3 0 -5 -2.5t-2 -5.5v-8q0 -3 2 -5t5 -2t5 2t2 5v8q0 3 -2 5.5t-5 2.5zM179 196q3 0 5 2.5t2 5.5v8q0 3 -2 5t-5 2t-5 -2t-2 -5v-8 q0 -3 2.5 -5.5t4.5 -2.5zM80 196q3 0 5 2.5t2 5.5v8q0 3 -2 5t-5 2t-5 -2t-2 -5v-8q0 -3 2 -5.5t5 -2.5z" />
</svg>