<svg viewBox="0 0 256 256" xmlns="http://www.w3.org/2000/svg">
  <path transform="scale(1, -1) translate(0, -256)" fill="currentColor" d="M195 113l-61 41q-3 2 -6.5 2t-5.5 -2l-61 -41q-3 -2 -3.5 -4.5t1 -5t4.5 -3t5 0.5l60 41l60 -41q1 -1 4 -1t5 2.5t1.5 5.5t-3.5 5zM128 251q-33 0 -61.5 -16.5t-45 -45t-16.5 -61.5t16.5 -61.5t45 -45t61.5 -16.5t61.5 16.5t45 45t16.5 61.5t-16.5 61.5t-45 45 t-61.5 16.5zM128 19q-29 0 -54 14.5t-40 39.5t-15 55t15 54.5t39.5 39.5t54.5 15t55 -15t39.5 -40t14.5 -54.5t-14.5 -54.5t-39.5 -39.5t-55 -14.5z" />
</svg>