<svg viewBox="0 0 1024 1024" xmlns="http://www.w3.org/2000/svg">
  <path transform="scale(1, -1) translate(0, -960)" fill="currentColor" d="M443 448l167 245q3 6 2 12.5t-7 9.5q-6 4 -12.5 2.5t-10.5 -7.5l-166 -246q-5 -7 -5 -16.5t5 -17.5l166 -244q3 -4 6.5 -5.5t6.5 -1.5t5 1t5 2q6 4 7 10.5t-2 12.5l-167 243v0zM512 928q-99 0 -186 -38q-88 -38 -153 -103t-103 -153q-38 -87 -38 -186t38 -186 q38 -88 103 -153t153 -103q87 -38 186 -38t186 38q88 38 153 103t103 153q38 87 38 186t-38 186q-38 88 -103 153t-153 103q-87 38 -186 38zM512 0q-92 0 -174 35q-81 36 -142 97t-97 142q-35 82 -35 174t35 174q36 81 96.5 142t142.5 97q82 35 174 35t174 -35 q81 -36 142 -96.5t97 -142.5q35 -82 35 -174t-35 -174q-36 -81 -96.5 -142t-142.5 -97q-82 -35 -174 -35z" />
</svg>