<svg viewBox="0 0 1024 1024" xmlns="http://www.w3.org/2000/svg">
  <path transform="scale(1, -1) translate(0, -960)" fill="currentColor" d="M928 464q-25 14 -53.5 15t-55.5 -12l-230 -125l29 416q2 33 -9 64.5t-33 55.5q-23 24 -53 38t-64 14h-257q-34 -2 -64 -15.5t-53 -37.5t-33.5 -56t-8.5 -64l42 -554q6 -63 42.5 -115t94.5 -83q62 -33 130 -34t126 31l253 136q10 -30 26.5 -57t39.5 -49q32 -31 71.5 -47.5 t81.5 -16.5v0v0q12 0 21.5 9t9.5 21v373q0 29 -14 54t-39 39v0zM949 0q-36 0 -70 15t-61 41q-24 23 -40 51t-23 59q-1 4 -3.5 7t-5.5 5q-2 1 -4 1h-3h-3.5t-4.5 -1l-270 -146q-52 -28 -111.5 -27t-114.5 30q-51 28 -83 73.5t-37 99.5l-40 552q-2 26 7 51.5t27 44.5t42 29.5 t51 10.5h259q26 0 50.5 -10.5t42.5 -29.5t27 -43.5t6 -52.5l-30 -437l-79 -43q-6 -4 -8 -10t2 -12t10 -8t12 1l343 187q18 10 38.5 10t38.5 -11t28 -28.5t10 -38.5v-370h-3zM232 738h-18q-7 0 -11.5 -4.5t-4.5 -11.5q0 -8 4.5 -12t11.5 -4h18q7 0 11.5 4t4.5 12 q0 7 -4.5 11.5t-11.5 4.5zM422 619h-17q-7 0 -11.5 -4.5t-4.5 -11.5t4.5 -11.5t11.5 -4.5h17q8 0 12 4.5t4 11.5t-4 11.5t-12 4.5zM304 405h-18q-7 0 -11.5 -4.5t-4.5 -11.5t4.5 -11.5t11.5 -4.5h18q7 0 11.5 4.5t4.5 11.5t-4.5 11.5t-11.5 4.5z" />
</svg>