<svg viewBox="0 0 256 256" xmlns="http://www.w3.org/2000/svg">
  <path transform="scale(1, -1) translate(0, -256)" fill="currentColor" d="M231 230q-10 10 -23 15.5t-27 5.5q-29 0 -49 -21q-9 -9 -19 -25t-18 -33l-2 -5q-11 -27 -15 -38q-5 -20 1 -31l3 -6l-41 -42l-26 11q-3 1 -5.5 0t-4 -3.5t-0.5 -5.5t4 -4l27 -11l1 -1l11 -27q2 -4 7 -4h3q2 1 3 4t0 5l-10 26l41 42l8 -4q3 -1 7 -1q12 0 31 5.5t34 11.5 q18 8 34 18t25.5 19.5t14.5 22.5t5 27t-5 26.5t-15 22.5zM221 142q-8 -8 -23 -17.5t-31 -16.5q-19 -9 -40 -14q-18 -4 -22 -3l-9 4l-4 9q-4 7 2 25q3 11 13 35l1 2q8 16 17 31t17 23t18 12.5t21 4.5t21.5 -4.5t18 -12t12 -18t4.5 -21.5q0 -23 -16 -39z" />
</svg>