<svg viewBox="0 0 1024 1024" xmlns="http://www.w3.org/2000/svg">
  <path transform="scale(1, -1) translate(0, -960)" fill="currentColor" d="M949 622h-216q-3 0 -5 2t-2 5q-9 56 -36 103t-67.5 81t-91.5 53t-107 19q-59 0 -113 -21q-53 -20 -94 -55.5t-66 -83.5q-26 -48 -31 -103h-72q-7 0 -11.5 -4t-4.5 -12q0 -7 4.5 -11.5t11.5 -4.5h70v-142q0 -56 14 -108q13 -52 38 -99t62 -87q36 -41 83 -72 q35 -23 74 -39.5t80 -23.5q21 -3 42.5 -5.5t42.5 -2.5q48 0 94 10t88.5 29.5t80.5 48.5t69 66q26 29 45 63t32.5 71t20.5 77q6 39 6 80v123q2 18 -10.5 30.5t-30.5 12.5v0zM960 456q0 -77 -24.5 -146.5t-71.5 -123.5q-36 -42 -81 -73q-44 -30 -94 -47.5t-104 -21.5 q-55 -5 -110 6q-38 7 -74 22t-68 35q-44 30 -78 68t-57 81.5t-36 91.5q-12 48 -12 100l2 158q1 51 23 96q23 45 60 78.5t86 52.5q48 20 103 20q50 0 96 -17q45 -17 81 -47.5t61 -72.5q24 -42 32 -92q3 -14 13.5 -24t25.5 -10h216q5 0 8 -3t3 -8v-123v0z" />
</svg>