<svg viewBox="0 0 256 256" xmlns="http://www.w3.org/2000/svg">
  <path transform="scale(1, -1) translate(0, -256)" fill="currentColor" d="M237 175h-53q-5 28 -27 46.5t-51 18.5q-20 0 -37 -8.5t-28 -23.5t-14 -33h-15q-3 0 -5 -2t-2 -5t2 -5t5 -2h15l-1 -33q0 -29 13.5 -53.5t37.5 -40.5q18 -12 40 -16q12 -2 22 -2q24 0 46.5 10t38.5 29q13 15 20 34.5t7 40.5v31q0 6 -4 10t-10 4zM237 130q0 -18 -6 -35 t-17 -31q-17 -20 -42 -28.5t-52 -3.5q-19 3 -35 14q-21 14 -33 35.5t-12 46.5l1 40q0 16 9 29.5t24 21t32 7.5q24 0 42 -15.5t22 -38.5q1 -5 4.5 -8t8.5 -3h54v-31z" />
</svg>