<svg viewBox="0 0 256 256" xmlns="http://www.w3.org/2000/svg">
  <path transform="scale(1, -1) translate(0, -256)" fill="currentColor" d="M244 64h-29q2 5 2 10q0 18 -6.5 34t-19 28.5t-29 19.5t-34.5 7q-9 0 -19 -2q-7 4 -11 5l-3 1q-12 6 -18 7q-9 2 -15 0v-1l-14 15l3 9q1 2 0 5t-3.5 4t-5 0t-4.5 -4l-4 -10l-11 -5q-3 -1 -4 -3.5t0.5 -6t6.5 -3.5h3l9 4l14 -15l-1 -1q-2 -6 2 -18q2 -8 5 -15 q-9 -12 -14.5 -26.5t-5.5 -29.5q0 -4 2 -10h-28q-3 0 -5 -2t-2 -5t2 -4.5t5 -1.5h232q3 0 5 2t2 5t-2 5t-5 2zM91 154h1q16 -7 22.5 -13.5t6.5 -15.5t-6 -14.5t-14.5 -5.5t-15.5 6.5t-13 22.5q-4 7 -6 14.5t-2 9.5l1 2l3 2q4 1 23 -8zM53 74q0 22 12 41q6 -10 11 -15 q10 -10 24.5 -10t24.5 10t10 24.5t-10 24.5h3q15 0 28.5 -6t24.5 -16.5t16.5 -24t5.5 -28.5q0 -4 -3 -7t-7 -3h-131q-4 0 -6.5 2.5t-2.5 7.5z" />
</svg>