<svg viewBox="0 0 256 256" xmlns="http://www.w3.org/2000/svg">
  <path transform="scale(1, -1) translate(0, -256)" fill="currentColor" d="M232 157q-3 5 -10 5h-120l-12 50q-1 4 -5 9l5 14q0 2 -1.5 4.5t-4.5 1.5l-5 -1q-4 0 -5 2l-4 6q-2 2 -4.5 2t-3.5 -2l-5 -8q-1 -2 -4 -2h-5q-3 0 -4.5 -2.5t0.5 -5.5l5 -10h1q-4 -6 -5 -12v-4l-14 -4q-3 -1 -3.5 -4t2.5 -5l14 -9l-3 -44v-6q1 -22 15.5 -38.5t36.5 -19.5 l19 -4v-8q0 -6 4.5 -11t11.5 -5v-16h-13q-5 0 -8.5 -3.5t-3.5 -7.5t2 -6t4.5 -2t4.5 1.5t3 3.5h38q0 -2 2 -3.5t5 -1.5t5 2t2 6t-3.5 7.5t-8.5 3.5h-14v16h1q7 0 11.5 5t4.5 11v6q13 1 22.5 10.5t9.5 23.5v8q11 0 20.5 6t15.5 17l6 14v2q-1 6 -2 8zM214 139q-4 -7 -10 -11 t-14 -4h-1q-5 0 -8.5 -4t-3.5 -9v-9q0 -8 -6 -14t-14 -6q-5 0 -8.5 -3.5t-3.5 -8.5v-7q0 -2 -2 -2h-16q-2 0 -2 2v9q0 4 -3 7.5t-7 4.5l-20 4q-18 3 -29.5 17t-10.5 32l4 70q0 3 3 5.5t6 2.5t5.5 -2t3.5 -5l11 -48q-6 -23 4 -39q12 -19 44 -23h1q2 0 4 2t2.5 5t-1.5 5t-5 2 q-25 3 -33 16q-5 8 -4 20h117z" />
</svg>