<svg viewBox="0 0 1024 1024" xmlns="http://www.w3.org/2000/svg">
  <path transform="scale(1, -1) translate(0, -960)" fill="currentColor" d="M914 850q-38 38 -86.5 58t-102.5 20t-102.5 -20t-86.5 -58q-36 -36 -75 -98.5t-69 -132.5l-5 -9q-35 -82 -59 -154.5t-2 -119.5q2 -1 6.5 -13.5t8.5 -21.5l-176 -178l-112 47q-6 2 -12.5 0t-8.5 -8t0 -12.5t8 -8.5l115 -48l48 -115q3 -5 6.5 -7.5t8.5 -2.5h3t3 2q6 2 9 8 t-1 12l-45 111l178 177q3 -2 8.5 -3.5t10.5 -4.5q10 -4 14 -6t5 -2q5 -2 12 -2.5t15 -0.5q23 0 55 6q33 7 68 17t70 22q34 13 62 26q69 30 131.5 69.5t98.5 74.5q37 38 58 87t21 101q-2 52 -22 100.5t-58 87.5v0zM891 494q-33 -33 -93 -70.5t-128 -66.5q-86 -39 -163 -56 t-94 -10h-2q-2 1 -6.5 3.5t-9.5 4.5q-8 4 -13.5 6.5t-8.5 3.5q-5 12 -11.5 26l-6.5 14q-18 37 6.5 107.5t56.5 140.5l4 9q29 68 66.5 128t71.5 93q32 34 75 51.5t90 17.5t90 -17.5t76 -51.5q34 -33 51.5 -76t17.5 -90t-17.5 -90.5t-51.5 -76.5v0z" />
</svg>