<svg viewBox="0 0 1024 1024" xmlns="http://www.w3.org/2000/svg">
  <path transform="scale(1, -1) translate(0, -960)" fill="currentColor" d="M672 602v92q0 27 -19 45.5t-45 18.5h-14l-56 160q-2 4 -6 7t-9 3h-19q-5 0 -9 -3t-5 -8l-56 -160h-16q-27 0 -45.5 -19t-18.5 -45v-93q-12 -8 -20 -22t-8 -31v-515q0 -26 19 -45t45 -19h248q27 0 45.5 19t18.5 45v517q-2 15 -9.5 29t-20.5 24v0zM389 581h248 q13 0 22.5 -9.5t9.5 -22.5v-426h-312v426q0 13 9.5 22.5t22.5 9.5v0zM514 891l46 -134h-94zM384 613v81q0 14 9.5 23t22.5 9h27v0v0v0v0h165q13 0 22.5 -9t9.5 -23v-81h-256zM635 0h-246q-13 0 -22.5 9.5t-9.5 22.5v59h312v-59q-1 -13 -11 -22.5t-23 -9.5zM461 184h2h3 q49 14 80.5 56.5t31.5 93.5v69q0 19 -12 33.5t-28 19.5v21q0 7 -4.5 11.5t-11.5 4.5q-8 0 -12 -4.5t-4 -11.5v-23q-17 -6 -28 -19.5t-11 -32.5v-74q0 -28 -4.5 -55.5t-12.5 -54.5l-5 -15q-1 -5 0 -8.5t3 -7.5q4 -1 7 -2t6 -1zM501 330v73q0 10 6.5 16.5t15.5 6.5 q10 0 16.5 -6.5t6.5 -16.5v-69q0 -32 -16.5 -60t-43.5 -45q8 25 11.5 50t3.5 51z" />
</svg>