<svg viewBox="0 0 256 256" xmlns="http://www.w3.org/2000/svg">
  <path transform="scale(1, -1) translate(0, -256)" fill="currentColor" d="M171 168v21q0 8 -5.5 13.5t-13.5 5.5h-1l-13 38q-1 3 -3 4t-4 1h-5q-2 0 -4 -1t-3 -4l-13 -38h-2q-8 0 -13.5 -5.5t-5.5 -13.5v-21q-7 -7 -7 -15v-129q0 -8 5.5 -13.5t13.5 -5.5h62q8 0 13.5 5.5t5.5 13.5v129q0 9 -7 15zM92 153q0 2 1.5 3.5t3.5 1.5h62q2 0 3.5 -1.5 t1.5 -3.5v-103h-72v103zM128 230l8 -22h-15zM99 189q0 2 1.5 3.5t3.5 1.5h48q2 0 3.5 -1.5t1.5 -3.5v-17h-58v17zM159 19h-62q-2 0 -3.5 1.5t-1.5 3.5v12h72v-12q0 -2 -1.5 -3.5t-3.5 -1.5zM132 126v5h-4v-5q-3 -1 -5 -3.5t-2 -6.5v-18q0 -14 -5 -29l-1 -3q11 3 18 12.5 t7 20.5v17q1 4 -1.5 7t-6.5 3z" />
</svg>