<svg viewBox="0 0 256 256" xmlns="http://www.w3.org/2000/svg">
  <path transform="scale(1, -1) translate(0, -256)" fill="currentColor" d="M212 70v49q0 9 -5.5 15.5t-14.5 7.5v86q0 9 -6.5 16t-16.5 7h-82q-9 0 -16 -7t-7 -16v-86q-9 -1 -14.5 -7.5t-5.5 -15.5v-107q0 -4 4 -6l3 -1q2 0 4 1l15 11l16 -11q4 -2 8 0l15 11l15 -11q4 -2 8 0l15 11l15 -11q4 -2 8 0l16 11l15 -11q3 -2 7 0t4 6v58zM78 184h43v-42 h-43v42zM135 184h44v-42h-44v42zM178 228v-30h-43v39h34q4 0 6.5 -3t2.5 -6zM87 237h34v-39h-43v30q0 3 2.5 6t6.5 3zM68 129h120q4 0 7 -3t3 -7v-40l-140 31v9q0 4 3 7t7 3zM189 31q-4 2 -8 0l-15 -11l-15 11q-2 1 -4 1t-4 -1l-15 -11l-15 11q-4 2 -8 0l-15 -11l-16 11 q-4 2 -8 0l-8 -6v71l140 -31v-39z" />
</svg>