<svg viewBox="0 0 1024 1024" xmlns="http://www.w3.org/2000/svg">
  <path transform="scale(1, -1) translate(0, -960)" fill="currentColor" d="M758 494v352q0 34 -24 58t-57 24h-328q-34 0 -58 -24t-24 -58v-352q-32 -2 -54.5 -25.5t-22.5 -55.5v-429q0 -5 2.5 -8.5t5.5 -5.5q4 -3 8.5 -2t7.5 3l68 47l67 -47q3 -2 8.5 -2t8.5 2l68 47l67 -47q2 -1 4.5 -2t4.5 -1q3 0 5.5 1t4.5 2l67 47l67 -47q4 -2 9 -2t9 2 l67 47l67 -47q4 -2 8.5 -2.5t7.5 1.5q4 2 6 5.5t2 8.5v429q3 32 -18.5 55.5t-53.5 25.5v0zM298 683h198v-189h-198v189zM528 683h198v-189h-198v189zM726 846v-131h-198v181h147q22 0 36.5 -14.5t14.5 -35.5v0zM349 896h147v-181h-198v131q0 21 14.5 35.5t36.5 14.5z M272 462h480q20 0 35 -14.5t15 -34.5v-175l-581 128v47q1 20 16 34.5t35 14.5v0zM750 50q-3 2 -8.5 2t-8.5 -2l-67 -47l-68 47q-2 1 -4.5 2t-4.5 1q-3 0 -5 -1t-5 -2l-67 -47l-67 47q-4 2 -9 2t-9 -2l-67 -47l-67 47q-4 2 -9 2t-9 -2l-51 -36v319l581 -128v-191l-55 36v0z " />
</svg>