<svg viewBox="0 0 1024 1024" xmlns="http://www.w3.org/2000/svg">
  <path transform="scale(1, -1) translate(0, -960)" fill="currentColor" d="M518 461q0 35 -25 60t-59 25h-4v52q39 8 64.5 45.5t25.5 87.5q0 27 -14 59t-31 61t-32 49t-16 22l-6 4t-7 2q-3 0 -5.5 -0.5t-5.5 -2.5q-2 -3 -49 -55t-47 -137q0 -51 25.5 -88.5t64.5 -44.5v-53h-3q-35 0 -60 -25t-25 -60v-408q0 -34 25 -59t60 -25h62q7 0 11.5 4 t4.5 12q0 7 -4.5 11.5t-11.5 4.5h-62q-22 0 -37.5 15.5t-15.5 36.5v407q0 21 15.5 37t37.5 16h38q22 0 37.5 -16t15.5 -37v-135q0 -7 4.5 -11.5t11.5 -4.5t11.5 4.5t4.5 11.5v135h1zM339 731q0 57 27 98t44 59q20 -29 47.5 -76.5t27.5 -80.5q0 -42 -22 -72t-52 -30t-51 30 t-21 72v0zM701 195h-71v63q0 7 -4 11.5t-12 4.5q-7 0 -11.5 -4.5t-4.5 -11.5v-63h-70q-7 0 -11.5 -4.5t-4.5 -11.5t4.5 -11.5t11.5 -4.5h70v-155q0 -7 4.5 -11.5t11.5 -4.5q8 0 12 4.5t4 11.5v155h71q7 0 11.5 4.5t4.5 11.5t-4.5 11.5t-11.5 4.5z" />
</svg>