<svg viewBox="0 0 1024 1024" xmlns="http://www.w3.org/2000/svg">
  <path transform="scale(1, -1) translate(0, -960)" fill="currentColor" d="M914 456q-8 22 -25 36.5t-39 19.5l-143 27q-18 4 -32 14.5t-22 25.5l-69 127q-5 8 -11 15t-15 13q26 14 41 38t15 54q0 42 -30 72t-72 30t-72 -30t-30 -72q0 -30 15 -54t41 -38q-8 -4 -14.5 -11.5t-11.5 -16.5l-69 -127q-8 -15 -22 -25.5t-32 -14.5l-143 -27 q-22 -5 -39 -19.5t-25 -36.5q-7 -22 -2 -44t22 -39l99 -106q12 -13 17.5 -29.5t3.5 -34.5l-20 -144q-2 -23 6.5 -43.5t27.5 -34.5q11 -9 23.5 -12.5t24.5 -3.5q10 0 18.5 2t16.5 6l131 62q16 7 34 7t34 -7l131 -62q20 -10 42.5 -7.5t42.5 15.5q19 13 27.5 34t5.5 44l-19 144 q-2 18 3.5 34.5t17.5 29.5l99 106q16 18 20.5 39.5t-2.5 43.5v0zM442 826q0 28 20.5 49t49.5 21t49.5 -21t20.5 -49q0 -29 -20.5 -50t-49.5 -21q-29 -1 -49.5 20t-20.5 51zM872 395l-99 -105q-17 -18 -25 -42t-4 -48l19 -144q3 -14 -3 -27t-18 -21t-25.5 -9.5t-25.5 4.5 l-131 64q-23 11 -47.5 11t-46.5 -11l-132 -62q-13 -6 -26.5 -5t-24.5 10q-12 8 -17 20.5t-4 27.5l20 144q3 25 -4.5 48t-24.5 41l-99 106q-10 11 -13 24t1 27q5 13 15.5 22t23.5 12l142 27q25 5 45 19.5t32 36.5l69 126q7 12 18.5 19.5t26.5 7.5v0q14 0 25.5 -7t18.5 -20 l69 -126q12 -22 32 -36.5t45 -19.5l142 -27q15 -3 25 -12t14 -22q3 -14 0 -28t-13 -25v0z" />
</svg>