<svg viewBox="0 0 256 256" xmlns="http://www.w3.org/2000/svg">
  <path transform="scale(1, -1) translate(0, -256)" fill="currentColor" d="M226 108q5 4 6 10.5t-1 13t-7 10.5t-11 5l-36 7q-8 1 -11 8l-18 32q-1 3 -4 5q6 4 9 10t3 13q0 12 -8.5 20.5t-20.5 8.5t-20.5 -8.5t-8.5 -20.5q0 -7 3.5 -13t8.5 -10q-2 -2 -4 -5l-17 -32q-4 -7 -12 -8l-35 -7q-7 -1 -12 -5t-7 -10.5t-0.5 -13t5.5 -10.5l25 -27 q6 -5 5 -13l-5 -36q-1 -7 1.5 -13t8 -10t13.5 -4q5 0 11 2l33 16q6 3 14 0l33 -16q6 -3 12 -2t11.5 5t8 9.5t1.5 12.5l-4 36q-2 8 4 14zM128 237q6 0 10.5 -4.5t4.5 -10.5t-4.5 -10.5t-10.5 -4.5t-10.5 4.5t-4.5 10.5t4.5 10.5t10.5 4.5zM191 91q-10 -11 -8 -25l5 -36 q1 -6 -4 -9.5t-10 -0.5l-33 15q-13 6 -26 0l-33 -15q-4 -2 -9 1t-5 9l5 36q2 15 -8 25l-25 26q-4 5 -2 10.5t8 5.5l35 7q15 2 21 16l18 31q2 5 8 5t8 -5l18 -31q6 -13 21 -16l35 -7q6 -1 8 -6.5t-2 -9.5z" />
</svg>