<svg viewBox="0 0 256 256" xmlns="http://www.w3.org/2000/svg">
  <path transform="scale(1, -1) translate(0, -256)" fill="currentColor" d="M4 61v-34h34q0 14 -9.5 24t-24.5 10zM4 106v-23q16 0 29 -7.5t20.5 -20.5t7.5 -28h22q0 21 -10.5 39t-28.5 29t-40 11zM50 184v-18q33 -11 58 -36t36 -58h63v112h-157zM4 150v-22q28 0 51.5 -13.5t37 -37t13.5 -51.5h22q0 34 -16.5 62.5t-45 45t-62.5 16.5zM230 230h-204 q-9 0 -15.5 -7t-6.5 -16v-34h22v34h203v-157h-79v-23h79q9 0 16 6.5t7 16.5v157q0 10 -6.5 16.5t-15.5 6.5z" />
</svg>