<svg viewBox="0 0 1024 1024" xmlns="http://www.w3.org/2000/svg">
  <path transform="scale(1, -1) translate(0, -960)" fill="currentColor" d="M18 179v-136h136q0 57 -40 96.5t-96 39.5v0zM18 358v-89q46 0 87 -18t71.5 -48.5t48.5 -71.5t18 -88h90q-1 65 -26 122q-24 58 -67 100.5t-100 67.5t-122 25v0v0zM198 674v-74q67 -22 126 -58q59 -37 107.5 -86t84.5 -108q37 -59 58 -126h253v452h-629v0zM18 538v-90 q84 0 158 -32t129 -87t87 -129t32 -158h88q1 103 -38 193q-39 91 -106 158t-157 106q-91 39 -193 39v0v0zM920 854h-814q-38 0 -64 -27t-26 -64v-136h90v136h811v-629h-315v-89h315q37 0 63 26t26 63v629q2 40 -24 65.5t-62 25.5v0z" />
</svg>