<svg viewBox="0 0 256 256" xmlns="http://www.w3.org/2000/svg">
  <path transform="scale(1, -1) translate(0, -256)" fill="currentColor" d="M252 98q6 29 0 57t-24 51t-44 36q-20 10 -41 12h-1q-39 4 -74.5 -15t-53.5 -56q-16 -32 -12 -67t24 -64v0q18 -25 47 -38q26 -13 55 -13q36 0 67 19t47 52q7 14 10 26v0zM240 111l-84 55l-8 4q-17 9 -35 2l32 68q17 -3 32 -10q34 -17 51 -50t12 -69zM158 114 q-6 -13 -19 -17.5t-25.5 1.5t-17 19t1.5 25q5 9 13 14t17 5q7 0 14 -3l6 -4q10 -7 12.5 -18.5t-2.5 -21.5zM26 177q15 30 43.5 47t61.5 17l-45 -93q-9 -17 -2.5 -35t22.5 -27l-72 -21q-16 25 -18.5 55t10.5 57zM79 26q-21 11 -35 27l100 30q18 7 26 24q7 14 4 29l62 -40 q-2 -8 -6 -18q-14 -27 -39 -43.5t-55 -19t-57 10.5z" />
</svg>