<svg viewBox="0 0 1024 1024" xmlns="http://www.w3.org/2000/svg">
  <path transform="scale(1, -1) translate(0, -960)" fill="currentColor" d="M994 333q19 83 10 166q-9 84 -43.5 159t-93.5 136q-59 62 -139 100q-40 20 -79.5 31t-80.5 16h-1h-1q-76 8 -150 -7q-75 -15 -141 -50.5t-120 -91.5q-54 -55 -89 -128q-32 -64 -43 -132q-12 -67 -5 -133.5t30 -128.5q24 -62 64 -116q0 -2 1 -2h1q34 -47 79.5 -85 t100.5 -65q53 -26 108 -38t110 -12q69 0 135 19q67 19 125.5 54.5t106.5 87.5t79 119q12 24 21 49t15 52v-1v1v0zM968 360l-352 229q-4 2 -7.5 4.5t-8.5 4.5l-2 2h-0.5h-0.5q-3 1 -4.5 2.5t-3.5 2.5q-40 19 -83 17t-79 -22l149 306q36 -5 71 -15.5t68 -26.5q72 -35 126 -90 q54 -54 87 -121t44 -142q10 -75 -4 -151v0zM642 386q-27 -54 -83.5 -73.5t-108.5 5.5q-54 27 -73.5 83.5t5.5 108.5q20 39 55 60.5t75 21.5q16 0 32 -3.5t30 -10.5q3 -2 5 -3t3 -2l16 -11q41 -30 53.5 -80t-9.5 -96zM94 651q32 66 80 116q48 51 107 84.5t125 48.5 q66 16 135 12l-187 -387q-32 -66 -8.5 -134.5t89.5 -100.5q6 -3 11.5 -5.5t11.5 -4.5l-325 -99q-36 50 -57 108t-26 118.5t5 122.5q11 62 39 121v0zM930 245q-42 -87 -112 -147t-154 -89t-176 -25t-178 46q-46 23 -85.5 54.5t-69.5 69.5l416 128q1 0 1.5 0.5t1.5 0.5 q32 11 58 33.5t42 54.5q16 35 17 72t-13 71l282 -186q-6 -22 -13.5 -42.5t-16.5 -40.5v0z" />
</svg>