<svg viewBox="0 0 256 256" xmlns="http://www.w3.org/2000/svg">
  <path transform="scale(1, -1) translate(0, -256)" fill="currentColor" d="M229 144l-43 21q-5 2 -5 8v34l5 -3q2 -1 5 -0.5t4.5 3t1 5t-3.5 4.5l-53 32q-6 3 -12.5 3t-11.5 -3l-53 -32q-3 -2 -3.5 -5t1 -5.5t5.5 -2.5q2 0 4 1l5 3v-33q0 -6 -5 -9l-43 -21q-3 -1 -4 -3.5t1 -6t6 -3.5l2 1l11 5v-108q0 -10 7 -17t17 -7h122q10 0 17 7t7 17v108 l11 -5q1 -1 3 -1q4 0 5.5 3.5t0.5 6t-4 3.5zM113 19v39q0 7 4.5 11.5t10.5 4.5t10.5 -4.5t4.5 -11.5v-39h-30zM198 142v-114q0 -4 -2.5 -6.5t-6.5 -2.5h-33v39q0 12 -8.5 21t-20.5 9t-20.5 -9t-8.5 -21v-39h-32q-4 0 -7 2.5t-3 6.5v114v1l18 9q6 3 10 9t4 13v41l34 21 q2 1 4.5 1t4.5 -1l35 -21v-41q0 -7 3.5 -13t9.5 -9l19 -8q1 -1 0 -2v0zM146 148h-12v12q0 3 -2 5.5t-5 2.5t-5 -2.5t-2 -5.5v-12h-12q-3 0 -5 -2t-2 -5t2 -5t5 -2h12v-12q0 -3 2 -5t5 -2t5 2t2 5v12h12q3 0 5.5 2t2.5 5t-2.5 5t-5.5 2z" />
</svg>