<svg viewBox="0 0 1024 1024" xmlns="http://www.w3.org/2000/svg">
  <path transform="scale(1, -1) translate(0, -960)" fill="currentColor" d="M912 504l-171 82q-13 6 -21 18t-8 26v156l37 -23q6 -3 12.5 -1t9.5 8q4 6 2 12t-8 10l-213 125q-19 12 -41.5 11.5t-41.5 -11.5l-211 -128q-6 -4 -7.5 -10.5t2.5 -12.5q2 -3 5.5 -5.5t8.5 -2.5q3 0 5 0.5t3 1.5l37 22v-155q0 -14 -8 -26.5t-21 -18.5l-171 -80 q-6 -2 -8 -8t0 -12q2 -5 6 -7.5t8 -2.5h4t3 2l57 27v-451q0 -34 24 -58t58 -24h490q33 0 57 24t24 58v454l59 -29q2 -1 4 -1h3q5 0 8.5 2t5.5 7q6 5 4.5 11t-7.5 10zM438 0v171q0 30 21 51t51 21t51 -21t21 -51v-171h-144zM806 518v-468q0 -21 -14.5 -35.5t-34.5 -14.5h-141 v171q0 43 -30.5 73.5t-73.5 30.5t-73.5 -30.5t-30.5 -73.5v-171h-141q-20 0 -34.5 14.5t-14.5 35.5v467l81 38q22 10 34.5 30.5t12.5 43.5v174l142 87q12 7 25.5 7t25.5 -7l144 -85v-173q0 -23 12.5 -43.5t34.5 -30.5l76 -40v0v0v0zM586 517h-60v59q0 7 -4 11.5t-12 4.5 q-7 0 -11.5 -4.5t-4.5 -11.5v-59h-59q-7 0 -11.5 -4.5t-4.5 -11.5t4.5 -11.5t11.5 -4.5h59v-59q0 -8 4.5 -12t11.5 -4q8 0 12 4t4 12v59h60q7 0 11.5 4.5t4.5 11.5t-4.5 11.5t-11.5 4.5z" />
</svg>