<svg viewBox="0 0 1024 1024" xmlns="http://www.w3.org/2000/svg">
  <path transform="scale(1, -1) translate(0, -960)" fill="currentColor" d="M934 509l-364 393q-12 12 -26.5 19t-31.5 7v0v0q-17 0 -31.5 -7t-26.5 -19l-364 -393q-4 -4 -4.5 -8.5t0.5 -9.5q3 -5 6.5 -7t8.5 -2q27 0 46 -20t19 -46v-432q0 -7 4.5 -11.5t11.5 -4.5h656q8 0 12 4.5t4 11.5v430q0 28 20 47t46 19q5 0 9 2.5t5 7.5q4 4 3.5 9.5 t-3.5 9.5v0zM611 0h-198v114q0 40 29 69.5t70 29.5t70 -29.5t29 -69.5v-114v0zM824 414v-414h-181v114q0 54 -38.5 92.5t-92.5 38.5t-92.5 -38.5t-38.5 -92.5v-114h-181v414q0 33 -18.5 58.5t-48.5 34.5l345 375q8 7 16 10.5t18 3.5v0q10 0 18 -3.5t16 -10.5l344 -373 q-29 -11 -47.5 -36.5t-18.5 -58.5v0zM528 685q0 7 -4.5 11.5t-11.5 4.5t-11.5 -4.5t-4.5 -11.5v-85h-85q-7 0 -11.5 -4.5t-4.5 -11.5t4.5 -11.5t11.5 -4.5h85v-147q0 -7 4.5 -11.5t11.5 -4.5t11.5 4.5t4.5 11.5v147h85q7 0 11.5 4.5t4.5 11.5t-4.5 11.5t-11.5 4.5h-85v85z " />
</svg>