<svg viewBox="0 0 1024 1024" xmlns="http://www.w3.org/2000/svg">
  <path transform="scale(1, -1) translate(0, -960)" fill="currentColor" d="M915 366h-158v130q0 20 -9.5 37.5t-25.5 28.5l-194 123v0v1v96h53q7 0 11.5 4.5t4.5 11.5q0 8 -4.5 12t-11.5 4h-53v58q0 7 -4.5 11.5t-11.5 4.5t-11.5 -4.5t-4.5 -11.5v-59h-53q-7 0 -11.5 -4.5t-4.5 -11.5t4.5 -11.5t11.5 -4.5h53v-96v-0.5v-1.5l-194 -123 q-16 -11 -25.5 -28t-9.5 -38v-129h-158q-31 1 -54 -22t-23 -55v-203q0 -33 23 -55t54 -22h806q33 0 55 23t22 54v203q0 32 -23 55t-54 23v0zM109 40q-19 0 -32 13.5t-13 31.5v203q0 19 13.5 32t31.5 13h158v-293h-158v0zM725 40h-426v456q0 12 5.5 22t15.5 16l192 122 l192 -122q10 -6 15.5 -16t5.5 -22v-456zM960 86q0 -19 -13.5 -31.5t-31.5 -12.5h-158v292h158q19 0 32 -13t13 -31v-204v0z" />
</svg>