<svg viewBox="0 0 256 256" xmlns="http://www.w3.org/2000/svg">
  <path transform="scale(1, -1) translate(0, -256)" fill="currentColor" d="M236 145l-92 99q-6 7 -16 7t-16 -7l-92 -99q-1 -1 -1.5 -3.5t0.5 -3.5q2 -4 7 -4t9 -4t4 -10v-108q0 -3 2 -5t5 -2h164q3 0 5.5 2t2.5 5v108q0 5 3.5 9t9 4t6.5 4.5t-1 7.5zM150 19h-44v25q0 9 6.5 15.5t15.5 6.5t15.5 -6.5t6.5 -15.5v-25zM203 120v-101h-39v25 q0 15 -10.5 25.5t-25.5 10.5t-25.5 -10.5t-10.5 -25.5v-25h-39v101q0 7 -4 13.5t-11 10.5l84 90q2 3 6 3t6 -3l84 -90q-7 -3 -11 -9.5t-4 -14.5zM128 194q-3 0 -5 -2t-2 -5v-19h-19q-3 0 -5 -2t-2 -5t2 -5t5 -2h19v-34q0 -3 2 -5t5 -2t5 2t2 5v34h19q3 0 5 2t2 5t-2 5t-5 2 h-19v19q0 3 -2 5t-5 2z" />
</svg>