<svg viewBox="0 0 256 256" xmlns="http://www.w3.org/2000/svg">
  <path transform="scale(1, -1) translate(0, -256)" fill="currentColor" d="M200 178h-35l17 16q2 3 2 5.5t-2 5t-5 2.5t-5 -2l-29 -27q-2 -3 -2 -5.5t2 -5.5l29 -29q2 -2 5 -2t5 2t2 5t-2 5l-17 16h35q15 0 25.5 -10.5t10.5 -25.5t-10.5 -25.5t-25.5 -10.5q-19 0 -35.5 8.5t-26.5 24.5l-10 14q-12 19 -31.5 29.5t-41 10t-36 -15t-14.5 -35.5 t15 -35.5t36 -14.5h36l-17 -16q-2 -3 -2.5 -5.5t1.5 -5t5 -2.5t5 2l30 27q2 3 2 5.5t-2 5.5l-29 29q-2 2 -5 2t-5 -2t-2 -5t2 -5l16 -16h-35q-15 0 -25.5 10.5t-10.5 25.5t10.5 25.5t25.5 10.5q19 0 35.5 -8.5t26.5 -24.5l10 -14q12 -19 31.5 -29.5t41 -10.5t36.5 15t15 36 q0 13 -7 25t-19 18.5t-26 6.5z" />
</svg>