<svg viewBox="0 0 1024 1024" xmlns="http://www.w3.org/2000/svg">
  <path transform="scale(1, -1) translate(0, -960)" fill="currentColor" d="M906 331h-116q-75 0 -141 35.5t-107 99.5q-22 34 -52 62q-31 28 -66 47t-74 29q-40 10 -81 10h-115q-8 0 -12 -4t-4 -12q0 -7 4 -11.5t12 -4.5h115q75 0 141 -35t107 -99q23 -35 53 -62q30 -28 65 -47t75 -30q39 -10 80 -10h116q7 0 11.5 4.5t4.5 11.5t-5 11.5t-11 4.5z M376 262q-43 0 -83 14q-40 13 -73.5 37t-58.5 57q-26 34 -39 75q0 1 -1 1.5t-1 1.5l74 -13q7 -1 12.5 3t6.5 10t-3 12t-10 7l-104 18q-5 1 -10 -1t-8 -7l-46 -90q-4 -6 -2 -12t8 -9q2 -1 4 -1h4q5 0 8.5 2t6.5 6l32 59q15 -45 44 -82q28 -37 65 -63.5t82 -41.5 q44 -15 92 -15q7 0 11.5 4.5t4.5 11.5q0 8 -4.5 12t-11.5 4v0zM984 530q-6 3 -12 1t-9 -8l-32 -59q-15 45 -44 82q-28 37 -65 63.5t-82 41.5q-44 15 -92 15q-7 0 -11.5 -4.5t-4.5 -11.5q0 -8 4.5 -12t11.5 -4q43 0 83 -14q40 -13 73.5 -37t58.5 -57q26 -34 39 -75 q0 -1 1 -1.5t1 -1.5l-74 13q-7 1 -12.5 -3t-6.5 -10t3 -12t10 -7l104 -18h1.5h1.5q5 0 8.5 2.5t6.5 5.5l46 90q1 6 -0.5 12t-7.5 9v0z" />
</svg>