<svg viewBox="0 0 1024 1024" xmlns="http://www.w3.org/2000/svg">
  <path transform="scale(1, -1) translate(0, -960)" fill="currentColor" d="M802 638h-173l91 85q5 5 5 11.5t-3 11.5q-5 4 -11.5 4.5t-11.5 -3.5l-117 -109q-2 -2 -3 -4.5t-1 -6.5q0 -3 1 -6t3 -5l117 -117q3 -2 6 -3.5t5 -1.5q3 0 6 1.5t6 3.5q4 5 4 11.5t-4 11.5l-85 84h166q66 0 112.5 -46t46.5 -112t-46.5 -112t-112.5 -46q-78 0 -146 36 t-111 101l-39 58q-23 36 -54 64q-32 28 -68.5 47.5t-77.5 30.5q-40 10 -83 10q-80 1 -136 -54.5t-56 -134.5t55.5 -134.5t134.5 -55.5h175h0.5h0.5l-91 -85q-5 -5 -5 -11.5t4 -11.5q2 -2 5 -3t6 -1q2 0 5.5 1t5.5 3l117 109q2 3 3.5 5.5t1.5 5.5q0 4 -1.5 6.5t-3.5 5.5 l-117 116q-5 5 -11.5 5t-10.5 -5q-5 -4 -5 -10.5t5 -11.5l84 -85h-168q-66 -1 -112 45t-46 112t46 112t112 46q78 0 146.5 -36t111.5 -101l38 -58q24 -36 55 -64t67.5 -47.5t77.5 -30.5q41 -10 84 -10q79 -1 134.5 54.5t55.5 134.5t-55.5 134.5t-134.5 55.5v0z" />
</svg>