<svg viewBox="0 0 1024 1024" xmlns="http://www.w3.org/2000/svg">
  <path transform="scale(1, -1) translate(0, -960)" fill="currentColor" d="M512 928q-99 0 -186 -38q-88 -38 -153 -103t-103 -153q-38 -87 -38 -186t38 -186q38 -88 103 -153t153 -103q87 -38 186 -38t186 38q88 38 153 103t103 153q38 87 38 186t-38 186q-38 88 -103 153t-153 103q-87 38 -186 38zM512 0q-92 0 -174 35q-81 36 -142 97t-97 142 q-35 82 -35 174t35 174q36 81 96.5 142t142.5 97q82 35 174 35t174 -35q81 -36 142 -96.5t97 -142.5q35 -82 35 -174t-35 -174q-36 -81 -96.5 -142t-142.5 -97q-82 -35 -174 -35zM512 677q-47 0 -89 -18t-73 -49t-49 -73t-18 -89t18 -89t49 -73t73 -49t89 -18t89 18t73 49 t49 73t18 89t-18 89t-49 73t-73 49t-89 18v0zM512 251q-41 0 -77 16q-35 15 -62 42t-42 62q-16 36 -16 77t16 77q15 36 41.5 62.5t62.5 41.5q36 16 77 16t77 -16q35 -15 62 -41.5t42 -62.5q16 -36 16 -77t-16 -77q-15 -35 -41.5 -62t-62.5 -42q-36 -16 -77 -16v0z" />
</svg>