<svg viewBox="0 0 256 256" xmlns="http://www.w3.org/2000/svg">
  <path transform="scale(1, -1) translate(0, -256)" fill="currentColor" d="M223 234h-190q-12 0 -20 -8t-8 -19v-82q0 -11 8 -19t20 -8v0q3 -9 11 -14.5t17.5 -5.5t17 5.5t10.5 14.5h78q3 -9 10.5 -14.5t17 -5.5t17.5 5.5t11 14.5v0q12 0 20 8t8 19v82q0 11 -8 19t-20 8zM61 92q-6 0 -10.5 4.5t-4.5 10.5t4.5 10t11 4t11 -4t4.5 -10t-4.5 -10.5 t-11.5 -4.5zM195 92q-7 0 -11.5 4.5t-4.5 10.5t4.5 10t11 4t11 -4t4.5 -10t-4.5 -10.5t-10.5 -4.5zM237 125q0 -5 -3.5 -9t-9.5 -4q-2 10 -10 16.5t-19 6.5t-19.5 -6.5t-9.5 -16.5h-76q-1 10 -9.5 16.5t-19.5 6.5t-19 -6.5t-10 -16.5q-6 0 -9.5 4t-3.5 9v82q0 6 4 9.5t9 3.5 h191q6 0 10 -4t4 -9v-82zM61 62q-17 0 -31.5 -7.5t-23.5 -21.5q-2 -3 -1 -5.5t3 -4t5 -1t5 2.5q6 11 18 17t25 6t24.5 -6t18.5 -17q2 -3 6 -3q2 0 4 1.5t2.5 4t-0.5 5.5q-9 14 -23.5 21.5t-31.5 7.5zM195 62q-17 0 -32 -7.5t-23 -21.5q-2 -3 -1.5 -5.5t3 -4t5.5 -1t4 2.5 q7 11 18.5 17t25 6t25 -6t18.5 -17q2 -3 6 -3q1 0 3.5 1.5t3 4t-1.5 5.5q-8 14 -22.5 21.5t-31.5 7.5z" />
</svg>