<svg viewBox="0 0 1024 1024" xmlns="http://www.w3.org/2000/svg">
  <path transform="scale(1, -1) translate(0, -960)" fill="currentColor" d="M893 861h-762q-41 0 -70 -28.5t-29 -69.5v-326q0 -41 29 -69.5t70 -28.5h11q9 -33 37.5 -55.5t66.5 -22.5q39 0 67 22.5t37 55.5h328q9 -33 37.5 -55.5t66.5 -22.5q39 0 67 22.5t37 55.5h12q40 0 69.5 28.5t29.5 69.5v326q-4 41 -33.5 69.5t-70.5 28.5zM245 293 q-31 0 -52.5 20.5t-21.5 49.5t22 50t52 21t51.5 -21t21.5 -50t-21 -49.5t-52 -20.5v0zM779 293q-31 0 -52 20.5t-21 49.5t21.5 50t51.5 21t52 -21t22 -50t-21.5 -49.5t-52.5 -20.5zM960 437q0 -28 -20 -47t-47 -19h-8q-4 40 -34 67.5t-72 27.5t-72.5 -27.5t-32.5 -67.5h-324 q-3 40 -33 67.5t-72 27.5t-72.5 -27.5t-33.5 -67.5h-8q-27 0 -47 19t-20 47v326q0 28 20 47t47 19h763q28 0 48 -19.5t20 -46.5v-326h-2zM245 173q-64 0 -120.5 -30.5t-89.5 -83.5q-3 -6 -2 -12.5t7 -9.5q6 -4 12.5 -2.5t9.5 7.5q29 45 78.5 71t104.5 26q56 0 104.5 -26 t77.5 -71q3 -4 6 -6t7 -2h4.5t3.5 3q6 3 7 9.5t-2 12.5q-33 54 -88 84t-120 30v0zM779 173q-63 0 -120 -30.5t-89 -83.5q-4 -6 -3 -12.5t7 -9.5q6 -4 12.5 -2.5t10.5 7.5q29 45 78 71t104 26q57 0 105.5 -26t77.5 -71q2 -4 5.5 -6t6.5 -2h5t3 3q6 3 7.5 9.5t-2.5 12.5 q-32 54 -87.5 84t-120.5 30v0z" />
</svg>