<svg viewBox="0 0 256 256" xmlns="http://www.w3.org/2000/svg">
  <path transform="scale(1, -1) translate(0, -256)" fill="currentColor" d="M216 128h-78q-10 0 -17 -6.5t-7 -16.5v-11h-45v83l39 -24q6 -3 13 -3h38q3 0 5 2t2 5t-2 5t-5 2h-38q-3 0 -5 2l-40 24q8 4 13.5 12t5.5 18q0 13 -9.5 22.5t-22.5 9.5t-22.5 -9.5t-9.5 -22.5q0 -11 6.5 -19.5t17.5 -11.5v-94h-25v79q0 3 -2 5t-5 2t-5 -2t-2 -5v-162 q0 -3 2 -5t5 -2t5 2t2 5v68h45v-68q0 -3 2 -5t5 -2t5 2t2 5v68h26v-52q0 -9 7 -16t16 -7h78q10 0 17 7t7 16v77q0 10 -7 16.5t-17 6.5zM45 219q0 8 5.5 13t13 5t12.5 -5t5 -12.5t-5 -13t-12.5 -5.5t-13 5.5t-5.5 12.5zM226 28q0 -4 -3 -6.5t-7 -2.5h-78q-4 0 -7 3t-3 6v77 q0 4 3 7t7 3h78q4 0 7 -3t3 -7v-77z" />
</svg>