<svg viewBox="0 0 1024 1024" xmlns="http://www.w3.org/2000/svg">
  <path transform="scale(1, -1) translate(0, -960)" fill="currentColor" d="M530 307h-87v551h165q17 0 28.5 -12t11.5 -28v-80q0 -8 4.5 -12t11.5 -4t11.5 4t4.5 12v78q0 30 -21 51t-51 21h-506q-30 0 -51 -21t-21 -51v-80q0 -7 4.5 -11.5t11.5 -4.5q8 0 12 4.5t4 11.5v80q0 17 12 28.5t28 11.5h165v-549h-86q-7 0 -11.5 -4.5t-4.5 -11.5 t4.5 -11.5t11.5 -4.5h349q7 0 11.5 4.5t4.5 11.5t-5 11.5t-11 4.5zM299 858h112v-549h-112v549zM976 306l-80 80q-19 19 -45.5 19t-45.5 -19l-130 -130v0v0v0v0l-59 -59q-19 -19 -19 -45.5t19 -45.5l80 -80q10 -10 21.5 -15t23.5 -5t23.5 5t21.5 15l190 190q19 18 19 45 t-19 45v0zM763 48q-9 -10 -22 -10t-23 10l-80 80q-9 10 -9 22.5t9 22.5l48 48l125 -125zM954 238l-119 -118l-125 125l119 118q9 10 22.5 10t22.5 -10l80 -80q9 -9 9 -22t-9 -23z" />
</svg>