<svg viewBox="0 0 1024 1024" xmlns="http://www.w3.org/2000/svg">
  <path transform="scale(1, -1) translate(0, -960)" fill="currentColor" d="M944 122h-30v528q0 36 -26 62t-62 26h-215q-23 0 -39.5 16.5t-16.5 39.5v36q0 36 -26 62t-62 26h-249q-36 0 -62 -26t-26 -62v-180h-10q-36 0 -62 -26t-26 -62v-349q0 -7 4.5 -11.5t11.5 -4.5h62h1h1q8 -52 48 -87t93 -35t93 35t48 87h0.5h0.5h248q36 0 62 26t26 62v57 q0 21 -9 39t-24 30l-285 219q-11 9 -25 13.5t-28 4.5h-198v182q0 23 16.5 39.5t39.5 16.5h251q23 0 39.5 -16.5t16.5 -39.5v-38q0 -36 26 -62t62 -26h214q23 0 39.5 -16.5t16.5 -39.5v-528h-30q-21 0 -34.5 -14t-13.5 -34v-80q0 -7 4.5 -11.5t11.5 -4.5h155q7 0 11.5 4.5 t4.5 11.5v80q0 20 -14 35t-34 15zM254 107q-45 0 -78.5 32.5t-33.5 79.5q0 46 33 79t79 33q47 0 79.5 -32.5t32.5 -79.5q-1 -47 -33.5 -79.5t-78.5 -32.5v0zM392 606l286 -219q11 -8 17 -19.5t6 -25.5v-57q0 -23 -16.5 -39.5t-39.5 -16.5h-248v0v0q-4 55 -45 94t-98 39 q-56 0 -97 -39t-45 -94v0v0h-48v333q0 22 16.5 39t39.5 17h238q10 0 18.5 -3.5t15.5 -8.5v0zM960 10h-125v64q0 7 4.5 11.5t11.5 4.5h93q7 0 11.5 -4.5t4.5 -11.5v-64z" />
</svg>