<svg viewBox="0 0 256 256" xmlns="http://www.w3.org/2000/svg">
  <path transform="scale(1, -1) translate(0, -256)" fill="currentColor" d="M236 49h-5v129q0 11 -7 18t-18 7h-53q-5 0 -8 3.5t-3 7.5v10q0 10 -7.5 17t-17.5 7h-63q-10 0 -17 -7t-7 -17v-43q-11 0 -18 -7t-7 -18v-87q0 -3 2 -5t5 -2h14q3 -13 13.5 -21.5t24.5 -8.5t24.5 8.5t13.5 21.5h60q10 0 17.5 7.5t7.5 17.5v14q0 6 -2.5 11.5t-7.5 8.5 l-72 55q-7 5 -15 5h-47v43q0 4 3 7t8 3h63q4 0 7.5 -3t3.5 -7v-10q0 -10 7 -17.5t17 -7.5h54q4 0 7.5 -3t3.5 -8v-129h-5q-6 0 -10.5 -4.5t-4.5 -10.5v-20q0 -3 2 -5t5 -2h40q3 0 5 2t2 5v20q0 6 -4.5 10.5t-10.5 4.5zM64 46q-11 0 -18 7t-7 17.5t7 17.5t17.5 7t17.5 -7 t7 -17.5t-7 -17.5t-17 -7zM96 165l72 -55q4 -3 4 -9v-14q0 -5 -3 -8t-7 -3h-60q-2 14 -13 23.5t-25.5 9.5t-25.5 -9.5t-13 -23.5h-6v80q0 5 3 8t8 3h60q3 0 6 -2zM237 22h-25v12q0 2 1 2h23q1 0 1 -2v-12z" />
</svg>