<svg viewBox="0 0 256 256" xmlns="http://www.w3.org/2000/svg">
  <path transform="scale(1, -1) translate(0, -256)" fill="currentColor" d="M132 96h-18v131h38q3 0 5 -2t2 -5v-20q0 -3 2 -5t5 -2t5.5 2t2.5 5v20q0 9 -6.5 15t-15.5 6h-126q-9 0 -15.5 -6t-6.5 -15v-20q0 -3 2.5 -5t5.5 -2t4.5 2t1.5 5v20q0 3 2.5 5t5.5 2h38v-131h-19q-3 0 -5 -2t-2 -5t2 -5t5 -2h87q3 0 5.5 2t2.5 5t-2.5 5t-5.5 2zM78 227h22 v-131h-22v131zM246 95l-20 20q-6 5 -14 5t-13 -5l-47 -48q-5 -6 -5 -14t5 -13l20 -20q6 -6 13.5 -6t13.5 6l48 48q5 5 5 13t-6 14zM189 30q-2 -1 -4 -1t-3 1l-20 20q-2 1 -2 3.5t2 3.5l10 10l26 -27zM236 78l-27 -28l-27 27l28 27q1 2 3 2t4 -2l20 -20q1 -1 1 -3t-2 -3z" />
</svg>