<svg viewBox="0 0 1024 1024" xmlns="http://www.w3.org/2000/svg">
  <path transform="scale(1, -1) translate(0, -960)" fill="currentColor" d="M776 770h-62v1q0 24 -17 41t-41 17h-37q-3 42 -34 70.5t-73 28.5t-73 -28.5t-34 -69.5h-37q-24 0 -41 -16.5t-17 -40.5v-2h-62q-32 0 -55 -23t-23 -55v-645q0 -32 23 -55t55 -23h530q32 0 55 23t23 55v643q0 33 -23 56t-57 23zM342 771q0 11 7.5 18.5t18.5 7.5h53 q7 0 11.5 4.5t4.5 11.5v8q0 31 22 53t53 22t53 -22t22 -53v-8q0 -7 4.5 -11.5t11.5 -4.5h53q11 0 18.5 -7.5t7.5 -18.5v-38q0 -11 -7.5 -18.5t-18.5 -7.5h-288q-11 0 -18.5 7.5t-7.5 18.5v38zM824 46q0 -19 -13.5 -32.5t-32.5 -13.5h-530q-19 0 -32.5 13.5t-13.5 32.5v645 q0 19 13.5 33t32.5 14h62v-7q0 -24 17 -40.5t41 -16.5h288q24 0 41 16.5t17 40.5v7h62q19 0 32.5 -14t13.5 -33v-645h2zM581 358h-53v53q0 7 -4.5 11.5t-11.5 4.5t-11.5 -4.5t-4.5 -11.5v-53h-51q-7 0 -11.5 -4t-4.5 -12q0 -7 4.5 -11.5t11.5 -4.5h51v-51q0 -7 4.5 -11.5 t11.5 -4.5t11.5 4.5t4.5 11.5v51h53q7 0 11.5 4.5t4.5 11.5q0 8 -5 12t-11 4zM512 544q-41 0 -78 -16q-37 -15 -64.5 -42.5t-43.5 -64.5t-16 -79q0 -41 16 -78q16 -36 43 -63.5t64 -43.5t79 -16t79 16q36 15 63.5 42.5t43.5 64.5q16 36 16 78t-16 79t-43.5 64t-64.5 43 t-78 16zM512 174q-70 0 -120 49.5t-50 120.5t50 119.5t120 48.5t120 -49.5t50 -120.5q0 -70 -50 -119t-120 -49z" />
</svg>