<svg viewBox="0 0 256 256" xmlns="http://www.w3.org/2000/svg">
  <path transform="scale(1, -1) translate(0, -256)" fill="currentColor" d="M194 212h-13q-1 6 -6 10t-11 4h-6q-2 11 -10.5 18t-19.5 7t-19 -7t-10 -18h-7q-7 0 -11.5 -4t-5.5 -10h-13q-10 0 -16.5 -7t-6.5 -16v-161q0 -10 6.5 -16.5t16.5 -6.5h132q9 0 16 6.5t7 16.5v161q0 9 -6.5 16t-16.5 7zM89 209q0 1 1 2t2 1h14q3 0 5 2.5t2 5.5v1 q0 7 4.5 11.5t11 4.5t11 -4.5t4.5 -11.5v-2q0 -3 2 -5t5 -2h13q2 0 3 -1t1 -3v-9q0 -2 -1 -3t-3 -1h-72q-1 0 -2.5 1t-1.5 3v10h1zM203 28q0 -4 -2.5 -6.5t-6.5 -2.5h-132q-4 0 -6.5 2.5t-2.5 6.5v161q0 3 2.5 6t6.5 3h13q0 -7 5 -11.5t12 -4.5h72q7 0 12 4.5t5 11.5h13 q4 0 6.5 -3t2.5 -6v-161zM145 109h-10v10q0 3 -2 5t-5 2t-5 -2t-2 -5v-10h-10q-3 0 -5 -2t-2 -5t2 -5.5t5 -2.5h10v-10q0 -3 2 -5t5 -2t5 2t2 5v10h10q3 0 5 2.5t2 5.5t-2 5t-5 2zM128 155q-15 0 -27 -7t-19 -19.5t-7 -26.5t7 -26.5t19.5 -19.5t27 -7t26.5 7t19 19.5t7 26.5 t-7 26.5t-19 19.5t-27 7zM128 62q-16 0 -27.5 11.5t-11.5 28t11.5 28t27.5 11.5t27.5 -11.5t11.5 -28t-11.5 -28t-27.5 -11.5z" />
</svg>