<svg viewBox="0 0 256 256" xmlns="http://www.w3.org/2000/svg">
  <path transform="scale(1, -1) translate(0, -256)" fill="currentColor" d="M184 219h-9v7q0 6 -4 10.5t-10 4.5h-26v3q0 3 -2 5t-5 2t-5 -2t-2 -5v-4h-26q-6 0 -10.5 -4t-4.5 -10v-7h-8q-9 0 -15.5 -6.5t-6.5 -15.5v-170q0 -10 6.5 -16.5t15.5 -6.5h112q9 0 15.5 6.5t6.5 16.5v170q0 9 -6.5 15.5t-15.5 6.5zM94 226h1v1h66l1 -1l-1 -27h-66v1v26 h-1zM192 27q0 -3 -2.5 -5.5t-5.5 -2.5h-112q-3 0 -5.5 2.5t-2.5 5.5v170q0 4 2.5 6.5t5.5 2.5h9v-7q0 -6 4 -10.5t10 -4.5h67q6 0 10 4.5t4 10.5v7h8q3 0 5.5 -2.5t2.5 -6.5v-170z" />
</svg>