<svg viewBox="0 0 1024 1024" xmlns="http://www.w3.org/2000/svg">
  <path transform="scale(1, -1) translate(0, -960)" fill="currentColor" d="M776 770h-62v1q0 24 -17 41t-41 17h-37q-3 42 -34 70.5t-73 28.5t-73 -28.5t-34 -69.5h-37q-24 0 -41 -16.5t-17 -40.5v-2h-62q-32 0 -55 -23t-23 -55v-645q0 -32 23 -55t55 -23h530q32 0 55 23t23 55v643q0 33 -23 56t-57 23zM342 771q0 11 7.5 18.5t18.5 7.5h53 q7 0 11.5 4.5t4.5 11.5v8q0 31 22 53t53 22t53 -22t22 -53v-8q0 -7 4.5 -11.5t11.5 -4.5h53q11 0 18.5 -7.5t7.5 -18.5v-38q0 -11 -7.5 -18.5t-18.5 -7.5h-288q-11 0 -18.5 7.5t-7.5 18.5v38zM824 46q0 -19 -13.5 -32.5t-32.5 -13.5h-530q-19 0 -32.5 13.5t-13.5 32.5v645 q0 19 13.5 33t32.5 14h62v-7q0 -24 17 -40.5t41 -16.5h288q24 0 41 16.5t17 40.5v7h62q19 0 32.5 -14t13.5 -33v-645h2zM736 306h-85l-86 172q-3 6 -8.5 9.5t-12.5 3.5q-6 0 -11.5 -3.5t-7.5 -9.5l-82 -180l-45 91q-2 3 -5.5 6t-8.5 3h-96q-7 0 -11.5 -4t-4.5 -12 q0 -7 4.5 -11.5t11.5 -4.5h86l50 -102q2 -6 7.5 -8.5t11.5 -2.5v0v0q6 0 11.5 3.5t7.5 9.5l84 182l81 -162q3 -3 6.5 -6t8.5 -3h94q7 0 11.5 4.5t4.5 11.5t-5 10t-11 3v0z" />
</svg>