<svg viewBox="0 0 1024 1024" xmlns="http://www.w3.org/2000/svg">
  <path transform="scale(1, -1) translate(0, -960)" fill="currentColor" d="M510 485q-14 8 -29.5 12t-32.5 4q-23 0 -45 -8.5t-40 -23.5q-18 -17 -28 -39.5t-10 -48.5q-1 -28 9 -53.5t29 -44.5l115 -115q6 -6 14.5 -9.5t17.5 -3.5t17 3.5t15 9.5l119 118q18 18 27.5 40.5t9.5 47.5q0 26 -9.5 48t-27.5 40q-30 33 -71.5 38t-79.5 -15v0zM638 310 l-118 -118q-4 -4 -9 -4t-9 4l-115 115q-14 15 -22 34t-7 40q0 19 8 35.5t21 28.5t29 18t34 6v0v0q14 0 27 -4t25 -12q4 -3 9 -3t9 3q28 19 61 16t57 -27q14 -14 21 -31t7 -35t-7 -35t-21 -31zM789 765h-27v16q0 13 -9.5 22.5t-22.5 9.5h-130v41q0 30 -22 52t-52 22h-27 q-30 0 -51.5 -22t-21.5 -52v-41h-130q-13 0 -22.5 -9.5t-9.5 -22.5v-16h-27q-31 0 -53 -22t-22 -53v-647q0 -31 22 -53t53 -22h553q32 0 54 22t22 53v647q-2 31 -24 53t-53 22zM458 854q0 17 12 29.5t29 12.5h27q17 0 29.5 -12.5t12.5 -29.5v-41h-110v41v0zM294 781h434v-77 h-434v77zM832 43q0 -18 -12.5 -30.5t-30.5 -12.5h-554q-18 0 -30.5 12.5t-12.5 30.5v647q0 18 12.5 30.5t30.5 12.5h27v-29q0 -13 9.5 -22.5t22.5 -9.5h434q13 0 22.5 9.5t9.5 22.5v29h27q18 0 30.5 -12.5t12.5 -30.5v-647h2z" />
</svg>