<svg viewBox="0 0 256 256" xmlns="http://www.w3.org/2000/svg">
  <path transform="scale(1, -1) translate(0, -256)" fill="currentColor" d="M128 141q-8 3 -16 3v0q-13 0 -23 -8.5t-11 -24t10 -26.5l29 -29q4 -4 10 -4t10 4l30 30q10 10 10 24t-10 24q-8 8 -18.5 10t-20.5 -3zM158 96l-30 -30l-29 29q-7 7 -7 15.5t6 14t13 5.5t11.5 -3t8.5 0q6 4 13.5 3.5t13 -6.5t6 -13.5t-5.5 -14.5zM197 210h-4v1q0 5 -3 8 t-8 3h-30v8q0 9 -6 15t-15 6h-7q-9 0 -15.5 -6t-6.5 -15v-8h-29q-5 0 -8 -3t-3 -8v-1h-4q-9 0 -15.5 -6.5t-6.5 -15.5v-162q0 -9 6 -15.5t16 -6.5h138q9 0 15.5 6.5t6.5 15.5v162q1 9 -5.5 15.5t-15.5 6.5zM117 230q0 3 2.5 5t5.5 2h7q3 0 5 -2t2 -5v-8h-21v8h-1zM77 208 h102v-13h-102v13zM205 27q0 -4 -2.5 -6t-5.5 -2h-138q-4 0 -6 2t-2 6v161q0 4 2.5 6t5.5 2h4v-4q0 -5 3 -8t8 -3h108q5 0 8.5 3t3.5 8v4h4q3 0 5.5 -2.5t2.5 -5.5v-161h-1z" />
</svg>