<svg viewBox="0 0 1024 1024" xmlns="http://www.w3.org/2000/svg">
  <path transform="scale(1, -1) translate(0, -960)" fill="currentColor" d="M912 928h-800q-34 0 -57 -23t-23 -57v-800q0 -34 23 -57t57 -23h800q34 0 57 23t23 57v800q0 34 -23 57t-57 23zM960 48q0 -20 -14 -34t-34 -14h-800q-20 0 -34 14t-14 34v800q0 20 14 34t34 14h800q20 0 34 -14t14 -34v-800zM528 454v268q0 7 -4.5 11.5t-11.5 4.5 t-11.5 -4.5t-4.5 -11.5v-274q0 -4 1 -6.5t4 -4.5l192 -192q2 -3 5.5 -4t5.5 -1t5.5 1t5.5 4q5 5 5 11t-5 11l-187 187v0z" />
</svg>