<svg viewBox="0 0 1024 1024" xmlns="http://www.w3.org/2000/svg">
  <path transform="scale(1, -1) translate(0, -960)" fill="currentColor" d="M629 366h99q7 0 11.5 4.5t4.5 11.5q0 8 -4.5 12t-11.5 4h-45v29q0 7 -4.5 11.5t-11.5 4.5t-11.5 -4.5t-4.5 -11.5v-29h-22q-29 0 -49 -20t-20 -48q0 -29 20 -49t49 -20h46q16 0 26.5 -10.5t10.5 -26.5t-10.5 -26.5t-26.5 -10.5h-99q-7 0 -11.5 -4.5t-4.5 -11.5t4.5 -11.5 t11.5 -4.5h75v-29q0 -7 4.5 -11.5t11.5 -4.5t11.5 4.5t4.5 11.5v31q25 3 43 22.5t18 46.5q0 28 -20 48t-49 20h-46q-16 0 -26.5 11t-10.5 26q0 16 10.5 25.5t26.5 9.5v0zM670 584q2 10 3 19.5t1 18.5q0 63 -24 119t-65.5 97.5t-97.5 65.5q-55 24 -119 24q-63 0 -118 -24 q-56 -24 -97 -65.5t-65 -97.5t-24 -119q0 -60 22 -113t60 -94t90 -67q52 -25 111 -30l-2 -20t-1 -21q0 -64 24 -120q25 -56 67 -98t98 -67q56 -24 120 -24q63 0 119 24q56 25 98 67t66 98t24 120q0 61 -23 115q-22 55 -61 96t-92 67q-53 25 -114 29zM96 622q0 57 21 107 q22 49 58.5 86.5t86.5 58.5q50 22 106 22t106 -22q50 -21 87 -58.5t59 -86.5q22 -50 22 -107q0 -9 -1 -18.5t-3 -19.5q-52 -2 -99 -20q-46 -18 -84 -49t-64 -73q-27 -42 -39 -92q-53 3 -100 26t-81.5 59.5t-54.5 84.5t-20 102zM651 0q-57 0 -107 22q-51 22 -88.5 59.5 t-59.5 87.5q-22 51 -22 108t22 107q22 51 59.5 88.5t88.5 59.5q50 22 107 22t108 -22q50 -22 87.5 -59.5t59.5 -88.5q22 -50 22 -107t-22 -108q-21 -50 -58.5 -87.5t-88.5 -59.5q-50 -22 -108 -22zM469 605q6 0 11 4.5t5 11.5t-4.5 11.5t-11.5 4.5l-95 1v133q0 7 -4 11.5 t-12 4.5q-7 0 -11.5 -4.5t-4.5 -11.5v-149q0 -6 4.5 -11t11.5 -5l111 -1v0v0v0z" />
</svg>