<svg viewBox="0 0 256 256" xmlns="http://www.w3.org/2000/svg">
  <path transform="scale(1, -1) translate(0, -256)" fill="currentColor" d="M157 105h25q3 0 5 2t2 5t-2 5t-5 2h-8v5q0 3 -2.5 5t-5.5 2t-5 -2t-2 -5v-5h-2q-9 0 -15 -6t-6 -14.5t6 -14.5t15 -6h11q3 0 5 -1.5t2 -4.5t-2 -4.5t-5 -1.5h-24q-3 0 -5 -2.5t-2 -5.5t2 -5t5 -2h16v-4q0 -3 2 -5t5 -2t5 2t2 5v5q7 2 11.5 7.5t4.5 13t-6 13.5t-15 6h-11 q-3 0 -5 2t-2 4.5t1.5 4.5t4.5 2zM171 165v3l1 4q0 21 -11 39.5t-29 29t-39.5 10.5t-40 -11t-29 -29t-10.5 -38.5t9 -38t25.5 -28.5t35.5 -13v-8q0 -22 10.5 -40t29 -29t40.5 -11t40 11t29 29.5t11 39.5t-9.5 38.5t-26 28.5t-36.5 13zM27 172q0 17 8.5 32t23.5 24t33 9 t33 -9t23.5 -24t8.5 -32v-7q-26 -2 -45.5 -18t-25.5 -41q-25 3 -42 22t-17 44zM163 19q-18 0 -33 9t-24 24t-9 33t9 33t24 24t33 9t33 -9t24 -24t9 -33t-9 -33t-24 -24t-33 -9zM117 164q3 0 5 2t2 5t-2 5t-5 2l-20 1v30q0 3 -2 5t-5 2t-5.5 -2t-2.5 -5v-37q0 -3 2 -5t5 -2z " />
</svg>