<svg viewBox="0 0 256 256" xmlns="http://www.w3.org/2000/svg">
  <path transform="scale(1, -1) translate(0, -256)" fill="currentColor" d="M226 217h-197q-10 0 -17 -7t-7 -18v-128q0 -11 7 -18t17 -7h197q11 0 18 7t7 18v128q0 11 -7 18t-18 7zM237 64q0 -5 -3 -8t-7 -3h-198q-4 0 -7 3t-3 8v128q0 5 3 8t7 3h197q5 0 8 -3t3 -8v-128zM163 163q-2 2 -5 2t-5 -2l-25 -25l-25 25q-2 2 -5 2t-5 -2t-2 -5t2 -5 l25 -25l-25 -25q-2 -2 -2 -5t2 -5t5 -2t5 2l25 25l24 -25q2 -2 5 -2t5 2t2 5t-2 5l-24 25l25 25q2 2 2 5t-2 5zM72 135h-27q-3 0 -5 -2t-2 -5t2 -5.5t5 -2.5h27q3 0 5 2.5t2 5.5t-2 5t-5 2zM211 135h-27q-3 0 -5 -2t-2 -5t2 -5.5t5 -2.5h27q3 0 5 2.5t2 5.5t-2 5t-5 2z" />
</svg>