<svg viewBox="0 0 1024 1024" xmlns="http://www.w3.org/2000/svg">
  <path transform="scale(1, -1) translate(0, -960)" fill="currentColor" d="M906 792h-789q-35 0 -60 -25t-25 -61v-516q0 -36 25 -60t60 -24h789q36 0 61 25t25 59v516q0 36 -25 61t-61 25zM960 190q0 -21 -16 -36.5t-38 -15.5h-789q-22 -2 -37.5 14t-15.5 38v516q0 21 15.5 37.5t37.5 16.5h789q21 0 37.5 -16t16.5 -38v-516zM642 578 q-5 4 -11.5 4t-11.5 -4l-107 -108l-107 108q-5 4 -11.5 4t-11.5 -4q-4 -5 -4 -11.5t4 -11.5l108 -107l-108 -107q-4 -5 -4 -11.5t4 -11.5q3 -2 6 -3t6 -1q2 0 5 1t6 3l107 108l107 -108q3 -2 6 -3t5 -1q3 0 6 1t6 3q4 5 4 11.5t-4 11.5l-108 107l108 107q4 5 4 11.5t-4 11.5 v0zM288 464h-109q-7 0 -11.5 -4.5t-4.5 -11.5t4.5 -11.5t11.5 -4.5h109q7 0 11.5 4.5t4.5 11.5t-5 11.5t-11 4.5zM845 464h-109q-7 0 -11.5 -4.5t-4.5 -11.5t4.5 -11.5t11.5 -4.5h109q7 0 11.5 4.5t4.5 11.5t-5 11.5t-11 4.5z" />
</svg>