<svg viewBox="0 0 1024 1024" xmlns="http://www.w3.org/2000/svg">
  <path transform="scale(1, -1) translate(0, -960)" fill="currentColor" d="M928 874h-832q-26 0 -45 -19t-19 -45v-725q0 -27 19 -45.5t45 -18.5h832q26 0 45 18.5t19 45.5v725q0 26 -19 45t-45 19zM64 86v724q0 13 9.5 22.5t22.5 9.5h400v-789h-400q-13 1 -22.5 10.5t-9.5 22.5v0zM960 86q0 -13 -9.5 -22.5t-22.5 -9.5h-400v788h400 q13 0 22.5 -9.5t9.5 -22.5v-724zM414 501q0 7 -4 11.5t-12 4.5v0v0q-7 0 -11.5 -5t-4.5 -11v-37q0 -7 4.5 -11.5t11.5 -4.5v0v0q8 0 12 5t4 11v37zM624 517v0v0q-7 0 -11.5 -5t-4.5 -11v-37q0 -7 4.5 -11.5t11.5 -4.5v0v0q7 0 11.5 5t4.5 11v37q0 7 -4.5 11.5t-11.5 4.5z " />
</svg>