<svg viewBox="0 0 256 256" xmlns="http://www.w3.org/2000/svg">
  <path transform="scale(1, -1) translate(0, -256)" fill="currentColor" d="M232 228h-208q-8 0 -13.5 -5.5t-5.5 -13.5v-163q0 -7 5.5 -13t13.5 -6h208q8 0 13.5 5.5t5.5 13.5v164q0 7 -5.5 12.5t-13.5 5.5zM19 145h60v-47h-60v47zM93 214h67v-172h-67v172zM24 214h55v-55h-60v51q0 2 1.5 3t3.5 1zM19 46v38h60v-42h-55q-2 0 -3.5 1.5t-1.5 2.5z M237 46q0 -2 -1.5 -3.5t-3.5 -1.5h-58v173h58q2 0 3.5 -1.5t1.5 -3.5v-163zM148 140q0 3 -2 5t-5 2t-5 -2t-2 -5v-8q0 -3 2.5 -5t5.5 -2t4.5 2t1.5 5v8zM193 147q-3 0 -5 -2t-2 -5v-8q0 -3 2 -5t5 -2t5 2t2 5v8q0 3 -2 5t-5 2z" />
</svg>