<svg viewBox="0 0 256 256" xmlns="http://www.w3.org/2000/svg">
  <path transform="scale(1, -1) translate(0, -256)" fill="currentColor" d="M194 251h-132q-10 0 -17 -7t-7 -16v-180q0 -9 7 -16t17 -7v0v-13q0 -3 2 -5t5 -2t5 2t2 5v14h104v-14q0 -3 2 -5t5 -2t5 2t2 5v14h1q9 0 16 6.5t7 16.5v179q0 10 -7 16.5t-17 6.5zM204 228v-123h-69v34h4q3 0 5 2t2 5t-2 5.5t-5 2.5h-4v83h60q3 0 6 -2.5t3 -6.5zM62 237 h59v-84h-3q-3 0 -5.5 -2t-2.5 -5t2.5 -5t5.5 -2h3v-34h-69v123q0 4 3 6.5t7 2.5zM52 49v42h69v-51h-59q-4 0 -7 2.5t-3 6.5zM194 40h-59v51h69v-42q0 -4 -3 -6.5t-7 -2.5zM81 60h9q3 0 5.5 2t2.5 5t-2.5 5t-5.5 2h-9q-3 0 -5 -2t-2 -5t2 -5t5 -2zM172 74h-9q-3 0 -5 -2.5 t-2 -5.5t2 -5t5 -2h9q3 0 5 2t2 5t-2 5.5t-5 2.5z" />
</svg>