<svg viewBox="0 0 1024 1024" xmlns="http://www.w3.org/2000/svg">
  <path transform="scale(1, -1) translate(0, -960)" fill="currentColor" d="M774 928h-524q-27 0 -45.5 -19t-18.5 -45v-880q0 -7 4 -11.5t12 -4.5q7 0 11.5 4.5t4.5 11.5v117h587v-117q0 -7 4.5 -11.5t11.5 -4.5t11.5 4.5t4.5 11.5v880q1 26 -17.5 45t-45.5 19v0zM806 864v-598h-278v630h246q14 0 23 -9.5t9 -22.5zM250 896h246v-630h-278v598 q0 13 9 22.5t23 9.5v0zM218 133v99h587v-99h-587v0zM405 613q7 0 11.5 4.5t4.5 11.5v75q0 7 -4.5 11.5t-11.5 4.5t-11.5 -4.5t-4.5 -11.5v-75q0 -7 5 -11.5t11 -4.5zM619 613q7 0 11.5 4.5t4.5 11.5v75q0 7 -4.5 11.5t-11.5 4.5t-11.5 -4.5t-4.5 -11.5v-75q0 -7 4.5 -11.5 t11.5 -4.5z" />
</svg>