<svg viewBox="0 0 256 256" xmlns="http://www.w3.org/2000/svg">
  <path transform="scale(1, -1) translate(0, -256)" fill="currentColor" d="M232 238h-208q-8 0 -13.5 -6t-5.5 -14v-181q0 -8 5.5 -13.5t13.5 -5.5h208q8 0 13.5 5.5t5.5 13.5v181q0 8 -5.5 14t-13.5 6zM19 38v180q0 2 1.5 4t3.5 2h97v-192h-97q-2 0 -3.5 1.5t-1.5 4.5zM237 38q0 -2 -1.5 -4t-3.5 -2h-97v192h97q2 0 3.5 -2t1.5 -4v-180zM107 141 q0 3 -2 5t-5 2t-5 -2t-2 -5v-9q0 -3 2 -5t5 -2t5 2t2 5v9zM156 148q-3 0 -5 -2t-2 -5v-9q0 -3 2 -5t5 -2t5 2t2 5v10q0 2 -2 4t-5 2z" />
</svg>