<svg viewBox="0 0 1024 1024" xmlns="http://www.w3.org/2000/svg">
  <path transform="scale(1, -1) translate(0, -960)" fill="currentColor" d="M928 838h-832q-26 0 -45 -18.5t-19 -45.5v-651q0 -26 19 -45t45 -19h832q26 0 45 19t19 45v651q0 27 -19 45.5t-45 18.5zM64 530h264v-213h-264v213v0zM360 806h293v-715h-293v715v0zM96 806h232v-244h-264v212q0 14 9.5 23t22.5 9v0zM64 122v163h264v-194h-232 q-13 -1 -22.5 8t-9.5 23v0zM960 122q0 -14 -9.5 -23t-22.5 -9h-243v716h243q13 0 22.5 -9t9.5 -23v-652zM582 496q0 7 -4 11.5t-12 4.5v0v0q-7 0 -11.5 -5t-4.5 -11v-34q0 -7 4.5 -11.5t11.5 -4.5q6 0 11 4.5t5 11.5v34zM771 512v0v0q-7 0 -11.5 -5t-4.5 -11v-34 q0 -7 4.5 -11.5t11.5 -4.5v0v0q7 0 11.5 5t4.5 11v34q0 7 -5 11.5t-11 4.5z" />
</svg>