<svg viewBox="0 0 256 256" xmlns="http://www.w3.org/2000/svg">
  <path transform="scale(1, -1) translate(0, -256)" fill="currentColor" d="M202 170q-6 0 -14 -2v5q0 15 -8 27.5t-22 20t-30 7.5t-30 -7.5t-22 -20t-8 -27.5l1 -5q-8 2 -15 2q-20 0 -34.5 -13t-14.5 -32t14.5 -32.5t34.5 -13.5h11q3 0 5 2t2 5t-2 5.5t-5 2.5h-11q-14 0 -24.5 9t-10.5 22t10.5 22.5t24.5 9.5q12 0 21 -6q2 -1 4 -1t4 1.5t2.5 3.5 t-0.5 4q-3 6 -3 14q0 17 13.5 29t32.5 12t32.5 -12t13.5 -29q0 -8 -3 -14q-1 -2 -0.5 -4t2.5 -4q4 -3 8 0q9 6 21 6q14 0 24.5 -9.5t10.5 -22.5t-10.5 -22t-24.5 -9q-3 0 -5.5 -2.5t-2.5 -5.5t2.5 -5t5.5 -2q20 0 34.5 13.5t14.5 32.5t-14.5 32t-34.5 13zM133 145 q-9 0 -18 -3.5t-15 -9.5q-14 -14 -14 -33q0 -12 5.5 -22t16.5 -17q2 -1 2 -5v-7q0 -8 6 -14t14 -6h4q8 0 14 6t6 14v8q0 1 1 2l1 2q10 6 16 16t6 22q1 19 -12.5 32.5t-32.5 14.5zM134 42h-4q-3 0 -4.5 2t-1.5 4v6h15v-6q0 -2 -1.5 -4t-3.5 -2zM149 72q-3 -2 -5 -4h-25 q-1 3 -4 4q-7 5 -11 12t-4 15q0 13 9.5 22.5t22.5 9.5v0q14 -1 23 -10.5t8 -22.5q0 -8 -4 -14.5t-10 -11.5z" />
</svg>