<svg viewBox="0 0 1024 1024" xmlns="http://www.w3.org/2000/svg">
  <path transform="scale(1, -1) translate(0, -960)" fill="currentColor" d="M984 653q-5 5 -12.5 6t-13.5 -3q-56 -26 -116 -10t-93 68q-23 34 -25.5 74t14.5 78q2 6 1.5 12.5t-5.5 11.5q-4 4 -11 6t-13 0q-30 -7 -56.5 -23.5t-47.5 -40.5q-19 -22 -31 -47.5t-18 -53.5q-3 -11 -4 -22.5t-1 -22.5q0 -6 5 -11t11 -5v0v0q7 0 11.5 5t4.5 11 q0 10 1 19.5t2 19.5q5 24 15.5 46t26.5 40q15 17 33 30t39 21q-15 -40 -9 -83.5t30 -80.5q37 -58 102 -79t130 2q-11 -28 -30 -50.5t-46 -37.5q-13 -9 -27.5 -15t-29.5 -9q-6 -1 -10 -7t-1 -12q1 -6 5.5 -9.5t10.5 -3.5h2h1q18 5 34.5 11.5t32.5 17.5q35 21 59.5 53.5 t34.5 72.5q3 5 1 11t-7 10v0zM688 400q-5 0 -8.5 3t-5.5 7q-26 54 -77 87t-112 33q-63 0 -115 -34.5t-76 -90.5q-1 -5 -5.5 -7t-8.5 -1q-32 7 -64.5 3t-63.5 -18q-47 -20 -78.5 -61t-38.5 -91q-7 -44 4.5 -86t40.5 -75q30 -35 71.5 -53.5t86.5 -18.5h420q40 0 77 14t66 38.5 t47 58.5q19 33 22 71q5 42 -7 79q-12 38 -37 68t-60 50q-35 19 -78 24v0zM838 181q-6 -65 -58.5 -109.5t-121.5 -44.5h-420q-38 0 -73.5 16t-60.5 45q-24 29 -34 64t-4 72q6 42 32.5 76t66.5 52q18 8 36 12t37 4q9 0 18 -1l18 -2q15 -4 30 3.5t21 23.5q20 48 63.5 77 t97.5 29q52 0 95.5 -28t64.5 -73q6 -12 16.5 -20t23.5 -9q71 -8 115.5 -62t36.5 -125v0z" />
</svg>