<svg viewBox="0 0 1024 1024" xmlns="http://www.w3.org/2000/svg">
  <path transform="scale(1, -1) translate(0, -960)" fill="currentColor" d="M605 206q-16 -24 -41 -36.5t-54 -12.5q-25 0 -48 10.5t-40 30.5q0 2 -1 2h-2h75q8 0 12 4.5t4 11.5t-4 11.5t-12 4.5h-100q-10 0 -17 -7t-7 -17v-80q0 -7 4 -11.5t12 -4.5q7 0 11.5 4.5t4.5 11.5v45q20 -23 48 -35.5t59 -12.5q37 0 69 17t52 47q4 6 3 12.5t-7 9.5 q-5 3 -11.5 1.5t-9.5 -6.5v0zM651 472q-7 0 -11.5 -4.5t-4.5 -11.5v-51q-23 24 -57 44t-64 20q-41 0 -76 -21.5t-54 -58.5q-4 -6 -2 -12.5t8 -10.5q6 -3 12.5 -1t10.5 8q15 29 42.5 45.5t59.5 16.5q31 0 67 -26.5t45 -45.5h-62q-7 0 -11.5 -4.5t-4.5 -11.5t4.5 -11.5 t11.5 -4.5h80q9 0 16.5 7.5t7.5 16.5v101q-1 6 -6 11t-12 5v0zM915 576q-32 36 -76 59t-93 29q-26 43 -63 74.5t-83 47.5q-19 7 -41.5 11.5t-46.5 4.5q-56 0 -106 -22t-87 -59t-59 -87t-22 -106v-2q-43 -2 -80 -20q-38 -18 -66 -47t-44 -67t-16 -82t17 -83t46 -68t68 -46 t83 -17q8 0 12 4.5t4 11.5t-4 11.5t-12 4.5q-76 0 -129 53t-53 129q0 77 53 130t129 53h8q8 0 12 4.5t4 11.5v17q0 50 19 94q20 44 52.5 77t76.5 52t94 19q22 0 41 -3.5t37 -9.5q42 -14 77 -43.5t56 -69.5q3 -4 5.5 -6t7.5 -2q44 -5 85.5 -25.5t71.5 -53.5 q32 -36 49.5 -80.5t17.5 -92.5q0 -52 -20 -99q-20 -46 -54.5 -80.5t-80.5 -54.5q-47 -20 -99 -20q-8 0 -12 -4.5t-4 -11.5t4 -11.5t12 -4.5q59 0 111 22q52 23 91 61.5t62 90.5q22 52 22 111q0 54 -20 104t-57 91z" />
</svg>