<svg viewBox="0 0 1024 1024" xmlns="http://www.w3.org/2000/svg">
  <path transform="scale(1, -1) translate(0, -960)" fill="currentColor" d="M858 267q-39 0 -67 -25.5t-34 -63.5h-56v200q2 -2 4.5 -2h6.5q74 20 120 81t46 138q0 43 -15 83t-45 72q-26 28 -60.5 46.5t-72.5 24.5q-21 33 -50 58t-65 38q-16 5 -34 8t-37 3q-45 0 -84 -17q-40 -17 -69.5 -46.5t-47.5 -68.5q-17 -40 -18 -84q-67 -4 -114.5 -53.5 t-47.5 -117.5q0 -70 53 -120.5t125 -50.5h19q3 0 4.5 0.5t3.5 0.5v-192h-56q-6 37 -34 63.5t-67 26.5q-42 0 -72 -30.5t-30 -75.5q0 -44 30 -74.5t72 -30.5q39 0 67 25.5t34 63.5h72q7 0 11.5 4.5t4.5 11.5v311q0 7 -4.5 11.5t-11.5 4.5t-11.5 -4.5t-4.5 -11.5v-76 q-1 2 -3 2h-5h-19q-59 0 -102.5 41.5t-43.5 97.5q0 59 40.5 99t99.5 40h6q7 0 11.5 4.5t4.5 11.5v13q0 79 54.5 134t132.5 55q17 0 31.5 -2.5t27.5 -7.5q33 -10 59.5 -33t43.5 -55q2 -3 5 -5.5t8 -2.5q34 -3 65.5 -19t55.5 -41q25 -28 39 -62t14 -71q0 -66 -40 -118.5 t-104 -70.5h-1.5t-0.5 -2v68q0 7 -4 11.5t-12 4.5q-7 0 -11.5 -4.5t-4.5 -11.5v-312q0 -8 4.5 -12t11.5 -4h72q6 -38 34.5 -64t66.5 -26q42 0 72.5 30.5t30.5 75.5q0 44 -31 74.5t-73 30.5v0zM166 90q-28 0 -49 21t-21 52t21 52.5t49 21.5q29 0 50 -21.5t21 -52.5t-21 -52 t-50 -21zM858 90q-29 0 -50 21t-21 52t21 52.5t50 21.5q28 0 49 -21.5t21 -52.5t-21 -52t-49 -21zM528 176v342q0 8 -4.5 12t-11.5 4t-11.5 -4t-4.5 -12v-342q-37 -6 -61.5 -35t-24.5 -69q0 -43 30 -74.5t72 -31.5t72 31t30 75q0 40 -24.5 69t-61.5 35zM512 0 q-29 0 -49.5 21t-20.5 53q0 31 20.5 52t49.5 21t49.5 -21t20.5 -52q0 -32 -20.5 -53t-49.5 -21z" />
</svg>