<svg viewBox="0 0 256 256" xmlns="http://www.w3.org/2000/svg">
  <path transform="scale(1, -1) translate(0, -256)" fill="currentColor" d="M200 172q-8 0 -15 -2q-2 24 -20 41t-43 17q-17 0 -32 -9t-23 -25q-17 0 -31 -8t-22.5 -22.5t-8.5 -31.5t8.5 -31.5t22.5 -23t31 -8.5q3 0 5 2t2 5t-2 5t-5 2q-20 0 -34 14.5t-14 34.5t14 34.5t34 14.5h4q5 0 7 4q6 14 18 22t26 8q20 0 34 -14.5t14 -34.5v-5q-1 -4 3 -6.5 t8 -0.5q8 5 19 5q15 0 26 -11t11 -26.5t-11 -26.5t-26 -11h-8q-3 0 -5.5 -2.5t-2.5 -5.5t2.5 -5t5.5 -2h8q21 0 36 15t15 36.5t-15 36.5t-36 15zM159 61q7 10 7 24.5t-11 25.5t-27 11t-27 -11t-11 -27t11.5 -27t26.5 -11q11 0 20 6l23 -22q2 -2 4.5 -2t5 2t2.5 5t-3 5z M110 67q-7 7 -7 17t7.5 17t17.5 7t17.5 -7t7.5 -17t-7.5 -17t-17.5 -7t-18 7z" />
</svg>