<svg viewBox="0 0 1024 1024" xmlns="http://www.w3.org/2000/svg">
  <path transform="scale(1, -1) translate(0, -960)" fill="currentColor" d="M808 142h-592q-76 0 -130 53.5t-54 129.5q0 75 54 128t130 53q19 0 37 -4t35 -11q-1 10 -2 19.5t-1 20.5q0 46 18 87q18 40 48.5 70.5t72.5 47.5q41 18 88 18t88 -18q41 -17 72 -47.5t49 -70.5q18 -41 18 -87q0 -9 -1 -19.5t-2 -20.5q17 7 35 11t37 4q77 0 130.5 -53.5 t53.5 -127.5q0 -75 -54 -129t-130 -54zM216 474q-64 0 -108 -44t-44 -105t45 -105t107 -44h590q64 0 108 44t44 105t-44.5 105t-107.5 44q-24 0 -46 -7t-42 -21q-4 -3 -9 -2.5t-10 2.5q-3 4 -5 8.5t0 9.5q6 16 9.5 32.5t3.5 33.5q0 79 -57.5 134.5t-137.5 55.5t-137.5 -55.5 t-57.5 -134.5q0 -17 3.5 -33.5t9.5 -32.5q2 -5 0 -10t-5 -8q-4 -3 -9.5 -3t-9.5 3q-21 14 -43.5 21t-46.5 7v0z" />
</svg>