<svg viewBox="0 0 1024 1024" xmlns="http://www.w3.org/2000/svg">
  <path transform="scale(1, -1) translate(0, -960)" fill="currentColor" d="M643 518l-160 -152l-56 56q-5 5 -11 5t-11 -5q-5 -4 -5 -10.5t5 -11.5l61 -59q3 -4 7.5 -5.5t9.5 -1.5t10 1.5t9 5.5l165 155q5 5 5 11.5t-5 10.5t-12 4t-12 -4v0zM915 573q-32 35 -76 57t-93 29q-26 42 -63 73t-83 46q-19 7 -41.5 10.5t-46.5 3.5q-56 0 -106 -21 t-87 -57.5t-59 -85.5t-22 -105v-1q-43 -2 -80 -18q-38 -17 -66 -45t-44 -65q-16 -38 -16 -80q0 -44 17 -82t46 -66.5t67 -44.5q39 -17 83 -17v0v0h461q59 0 111 22t91 59.5t62 88.5q22 51 22 108q0 53 -20 102t-57 89zM706 136h-460q-76 0 -129 51t-53 127q0 74 53 125.5 t129 51.5h8q8 0 12 4.5t4 11.5v18q0 49 19 92q20 43 52.5 75t76.5 51t94 19q22 0 41 -3.5t37 -9.5q42 -15 77 -44t56 -68q3 -4 5.5 -6t7.5 -2q44 -5 85.5 -25.5t71.5 -51.5q32 -35 49.5 -78t17.5 -90q0 -52 -20 -97t-54.5 -78.5t-80.5 -53.5q-47 -19 -99 -19z" />
</svg>