<svg viewBox="0 0 1024 1024" xmlns="http://www.w3.org/2000/svg">
  <path transform="scale(1, -1) translate(0, -960)" fill="currentColor" d="M896 259q-36 0 -62 -23.5t-32 -57.5h-50v220q2 -3 6 -5.5t8 -2.5q66 0 114 46t48 111t-47 111t-115 46q-15 0 -29.5 -2.5t-29.5 -8.5q1 7 1.5 14.5t0.5 15.5q0 40 -16 75q-15 35 -41.5 61t-62.5 41t-77 15t-77 -15t-62.5 -41t-41.5 -61q-16 -35 -16 -75q0 -7 1 -15t1 -15 q-15 5 -29.5 8t-29.5 3q-66 0 -114 -46t-48 -111t47 -111t115 -46q3 0 6.5 2t5.5 5v-221h-49q-6 35 -32.5 58.5t-62.5 23.5q-39 0 -67.5 -28.5t-28.5 -69.5t28.5 -69.5t67.5 -28.5q36 0 62.5 23.5t32.5 58.5h67q7 0 11.5 4.5t4.5 11.5v328q0 7 -4.5 11.5t-11.5 4.5 t-11.5 -4.5t-4.5 -11.5v-72q-2 4 -5.5 5t-7.5 1q-53 0 -91 37t-38 88q0 52 37.5 88.5t91.5 36.5q21 0 40 -6t35 -18q5 -2 10 -2t10 2q4 2 5.5 7.5t-1.5 10.5q-4 13 -6.5 27t-2.5 29q0 66 48 113t117 47q68 0 116 -47t48 -113q0 -15 -2 -29t-7 -27q-3 -5 -1 -10.5t6 -7.5 q3 -4 8.5 -4t10.5 4q17 11 36 17.5t39 6.5q53 0 91.5 -36.5t38.5 -88.5q0 -51 -38 -88t-92 -37q-5 0 -8.5 -2t-5.5 -6v74q0 7 -4.5 11.5t-11.5 4.5q-8 0 -12 -4.5t-4 -11.5v-328q0 -7 4 -11.5t12 -4.5h65q6 -35 32.5 -58.5t62.5 -23.5q39 0 67.5 28.5t28.5 69.5t-29 70 t-69 29v0zM128 94q-26 0 -45 19t-19 47t19 47t45 19t45 -19t19 -47t-19 -47t-45 -19zM896 94q-26 0 -45 19t-19 47t19 47t45 19t45 -19t19 -47t-19 -47t-45 -19zM528 174v314q0 7 -4.5 11.5t-11.5 4.5t-11.5 -4.5t-4.5 -11.5v-314q-34 -6 -57 -33t-23 -63q0 -40 28 -68.5 t68 -28.5t68 28.5t28 68.5q0 36 -23 64t-57 32zM512 13q-26 0 -45 19t-19 46q0 28 19 47t45 19t45 -19t19 -47q0 -27 -19 -46t-45 -19z" />
</svg>