<svg viewBox="0 0 256 256" xmlns="http://www.w3.org/2000/svg">
  <path transform="scale(1, -1) translate(0, -256)" fill="currentColor" d="M145 115l-10 -10v34q0 3 -2 5t-5 2t-5 -2t-2 -5v-34l-10 10q-2 2 -5 2t-5 -2t-2 -5t2 -5l19 -20q4 -3 8 -3t7 3l19 20q2 2 2.5 5t-1.5 5t-5 2t-5 -2zM231 161q-8 9 -19 14.5t-23 8.5q-14 21 -37 29q-12 4 -24 4q-18 0 -34.5 -9t-26 -24.5t-10.5 -33.5q-22 -2 -37 -18 t-15 -38q0 -15 7.5 -27.5t20.5 -20t29 -7.5h115q20 0 37 9.5t27 26.5t10 37q0 13 -5 26t-15 23zM176 53h-114q-18 0 -30.5 12t-12.5 29.5t12.5 29.5t30.5 12h2q3 0 5 2t2 5v5q0 15 7.5 27.5t21 20.5t28.5 8q10 0 19 -4q20 -6 31 -26q2 -3 6 -4q11 -1 20.5 -5.5t16.5 -12.5 q16 -17 16 -40q0 -16 -8 -29.5t-22 -21.5t-31 -8z" />
</svg>