<svg viewBox="0 0 1024 1024" xmlns="http://www.w3.org/2000/svg">
  <path transform="scale(1, -1) translate(0, -960)" fill="currentColor" d="M808 506q-19 0 -37 -4t-35 -11q1 10 2 19.5t1 20.5q0 46 -18 86t-48.5 70t-72.5 48q-41 17 -88 17t-88 -17q-41 -18 -72 -48t-49 -71q-18 -40 -18 -86q0 -10 1 -20.5t2 -19.5q-17 7 -35 10.5t-37 3.5q-76 1 -130 -52t-54 -127q0 -75 54 -128t130 -53h590q77 0 131.5 52.5 t54.5 128.5q0 75 -54 128t-130 53v0zM808 176h-592q-62 0 -107 43t-45 106q0 61 45 105t107 44q24 0 46.5 -7t41.5 -21q5 -3 9.5 -2.5t9.5 2.5q4 4 5.5 8.5t-0.5 9.5q-6 16 -9.5 32.5t-3.5 33.5q1 39 17 74q15 35 42 60.5t62 40.5q36 15 76 15q80 0 137.5 -55.5t57.5 -134.5 q0 -17 -3.5 -33.5t-9.5 -32.5q-2 -5 0 -10t5 -8q4 -3 9.5 -3t9.5 3q20 14 42 21t46 7q64 0 108 -44t44 -105q2 -63 -43 -106t-107 -43v0zM523 501q-5 5 -11 5t-11 -5l-85 -82q-5 -5 -5 -11t5 -11t11.5 -5t10.5 5l60 56v-170q0 -7 4 -11.5t12 -4.5v0v0q7 0 11.5 4.5t4.5 11.5 v168l57 -54q3 -3 5.5 -4t5.5 -1q4 0 6.5 1t5.5 4q4 5 4 11t-4 11l-87 82v0z" />
</svg>