<svg viewBox="0 0 1024 1024" xmlns="http://www.w3.org/2000/svg">
  <path transform="scale(1, -1) translate(0, -960)" fill="currentColor" d="M808 506q-19 0 -37 -4t-35 -11q1 10 2 19.5t1 20.5q0 46 -18 86t-48.5 70t-72.5 48q-41 17 -88 17t-88 -17q-41 -18 -72 -48t-49 -70t-18 -86q0 -9 1 -19.5t2 -20.5q-17 7 -35 11t-37 4q-76 0 -130 -53.5t-54 -127.5q0 -75 54 -128t130 -53h590q77 0 131.5 53t54.5 128 q0 74 -54 127.5t-130 53.5v0zM808 176h-592q-62 0 -107 44t-45 105t45 105t107 44q24 0 46.5 -7t41.5 -21q5 -3 9.5 -2.5t9.5 2.5q4 4 5.5 8.5t-0.5 9.5q-6 16 -9.5 32.5t-3.5 33.5q1 39 17 74q15 35 42 60.5t62 40.5q36 15 76 15q80 0 137.5 -55.5t57.5 -133.5 q0 -17 -3.5 -33.5t-9.5 -31.5q-2 -5 0 -10.5t5 -7.5q4 -4 9.5 -4t9.5 4q20 13 42 20t46 7q64 0 108 -43.5t44 -105.5q0 -61 -44 -105.5t-106 -44.5v0zM590 406l-108 -105l-48 46q-5 5 -11.5 5t-11.5 -5t-5 -11t5 -11l59 -58q3 -2 5.5 -3.5t6.5 -1.5q3 0 5.5 1.5t5.5 3.5 l120 117q5 5 5 11.5t-5 10.5q-5 5 -11.5 5t-11.5 -5v0z" />
</svg>