<svg viewBox="0 0 256 256" xmlns="http://www.w3.org/2000/svg">
  <path transform="scale(1, -1) translate(0, -256)" fill="currentColor" d="M248 182q-4 3 -10 1q-12 -6 -26 -2.5t-22 15.5q-5 8 -6 17.5t4 17.5q2 5 -1.5 9.5t-9.5 3.5q-17 -5 -27.5 -18t-13.5 -27q-1 -6 -1 -12q0 -3 2 -5t5 -2t5 2t2 5l1 9q3 12 10 20q5 6 11 10q-4 -21 7 -38q9 -13 24 -19t31 -3q-6 -10 -14 -15q-5 -3 -14 -5q-2 -1 -4 -3.5 t-1 -5t2.5 -4t4.5 -1.5h1q10 2 18 8q19 11 25 33q1 5 -3 9zM172 119l-1 1q-6 14 -20 22.5t-30 8.5t-30 -9t-20 -24h-1q-17 4 -34 -4q-12 -5 -20.5 -16t-10.5 -23.5t1.5 -23.5t11 -20t18.5 -14t23 -5h105q21 0 37.5 14t18.5 34q2 15 -4 27.5t-17.5 21t-26.5 10.5zM207 62 q-2 -15 -14 -25.5t-29 -10.5h-104q-9 0 -17.5 4t-14.5 10q-11 14 -8 32q1 10 7 17.5t15 11.5t18 4q3 0 8 -1t9.5 1.5t6.5 7.5q4 11 14.5 17.5t22.5 6.5t22 -6.5t15 -16.5q5 -9 13 -9q17 -2 27 -14.5t9 -28.5z" />
</svg>