<svg viewBox="0 0 256 256" xmlns="http://www.w3.org/2000/svg">
  <path transform="scale(1, -1) translate(0, -256)" fill="currentColor" d="M251 122q0 7 -5.5 13t-13.5 6h-23q3 6 3 14q0 17 -12.5 29t-29.5 12q-6 0 -11 -1v3q0 20 -15 34.5t-36 14.5t-35.5 -14.5t-14.5 -34.5v-3q-6 1 -11 1q-17 0 -29.5 -12.5t-12.5 -29t12.5 -29t29.5 -12.5h29v-27q0 -7 4 -12q-4 -5 -4 -12v-34q0 -8 5.5 -13.5t13.5 -5.5h137 q8 0 13.5 5.5t5.5 13.5v35q0 7 -4 12q4 5 4 12v35zM237 122v-35q0 -2 -1.5 -3.5t-3.5 -1.5h-137q-2 0 -3.5 1.5t-1.5 3.5v35q0 2 1.5 3.5t3.5 1.5h137q2 0 3.5 -2t1.5 -3zM19 154q0 12 8 20t20 8q10 0 17 -6q1 -1 3.5 -1t4.5 2q4 3 2 8.5t-2 11.5q0 15 11 25.5t26 10.5 t26 -10.5t11 -25.5q0 -6 -3 -12q-1 -2 0 -4.5t3 -3.5q3 -3 8 -1q8 6 16 6q12 0 20 -8t8 -20q0 -7 -4 -14h-99q-6 0 -11 -3.5t-7 -9.5h-30q-12 0 -20 8t-8 19zM237 28q0 -2 -1.5 -3.5t-3.5 -1.5h-137q-2 0 -3.5 1.5t-1.5 3.5v35q0 2 1.5 3.5t3.5 1.5h137q2 0 3.5 -1.5 t1.5 -3.5v-35zM118 97q3 0 5 2t2 5v1q0 3 -2 5t-5 2t-5 -2t-2 -5v-1q0 -3 2 -5t5 -2zM197 98h19q3 0 5 2t2 5t-2 5t-5 2h-19q-3 0 -5 -2t-2 -5t2 -5t5 -2zM118 53q-3 0 -5 -2t-2 -5v-1q0 -3 2 -5t5 -2t5 2t2 5v1q0 3 -2 5t-5 2zM216 53h-19q-3 0 -5 -2t-2 -5t2 -5.5t5 -2.5 h19q3 0 5 2.5t2 5.5t-2 5t-5 2z" />
</svg>