<svg viewBox="0 0 1024 1024" xmlns="http://www.w3.org/2000/svg">
  <path transform="scale(1, -1) translate(0, -960)" fill="currentColor" d="M808 589q-19 0 -37 -3.5t-35 -11.5l2 20t1 20q0 46 -18 86q-18 41 -48.5 71t-72.5 48q-41 18 -88 18t-88 -18q-41 -17 -72 -47t-49 -71q-18 -40 -18 -87q0 -9 1 -19.5t2 -20.5q-17 8 -35 11.5t-37 3.5q-76 0 -130 -53.5t-54 -129.5q0 -75 54 -127.5t130 -52.5h42 q7 0 11.5 4t4.5 12q0 7 -4.5 11.5t-11.5 4.5h-42q-64 0 -108 43.5t-44 104.5q0 62 45 105.5t107 43.5q24 0 46.5 -7t41.5 -20q5 -4 9.5 -3t9.5 3q4 4 5.5 8.5t-0.5 9.5q-6 15 -9.5 31.5t-3.5 33.5q0 79 57.5 135t137.5 56q81 0 138.5 -56t57.5 -135q0 -17 -3.5 -33.5 t-9.5 -31.5q-3 -5 -1 -10.5t6 -7.5q3 -4 8.5 -4t10.5 4q19 13 41.5 20t46.5 7q63 0 107.5 -43.5t44.5 -105.5q0 -61 -45 -104.5t-107 -43.5h-42q-7 0 -11.5 -4.5t-4.5 -11.5q0 -8 4.5 -12t11.5 -4h42q77 0 130.5 53t53.5 127q0 75 -52.5 129t-128.5 54v0zM638 418 q-7 0 -11.5 -4.5t-4.5 -11.5v-66q-19 29 -49.5 45t-65.5 16q-39 0 -73 -20.5t-52 -54.5q-3 -6 -1 -12.5t8 -10.5q2 -1 3.5 -1h4.5q5 0 8.5 2t5.5 6q15 26 41 41.5t57 15.5q29 0 53 -12.5t38 -36.5h-45q-7 0 -11.5 -4.5t-4.5 -11.5q0 -8 4.5 -12t11.5 -4h77q10 0 16 7t6 15 v96q0 7 -4 12.5t-12 5.5v0zM608 150q-14 -21 -38 -33.5t-52 -12.5q-24 0 -45.5 10t-37.5 28v0v0h51q8 0 12 4.5t4 11.5q0 8 -4 12t-12 4h-76q-10 0 -16.5 -7t-6.5 -15v-75q0 -7 4.5 -11.5t11.5 -4.5t11.5 4.5t4.5 11.5v38q19 -20 45.5 -31.5t55.5 -11.5q35 0 66.5 16 t50.5 45q3 6 2 12.5t-7 9.5q-6 4 -13 2t-11 -7v0z" />
</svg>