<svg viewBox="0 0 256 256" xmlns="http://www.w3.org/2000/svg">
  <path transform="scale(1, -1) translate(0, -256)" fill="currentColor" d="M78 219q-3 0 -5.5 -2t-2.5 -5v0q0 -3 2.5 -5.5t5.5 -2.5t5 2.5t2 5.5v0q0 3 -2 5t-5 2zM165 205h21q3 0 5 2t2 5t-2 5.5t-5 2.5h-21q-3 0 -5 -2.5t-2 -5.5t2 -5t5 -2zM186 74q17 0 28.5 11.5t11.5 28t-11.5 28t-28.5 11.5q-5 0 -10 -1v2q0 10 -3 18h25q11 0 18.5 7.5 t7.5 17.5v29q0 10 -7.5 17.5t-18.5 7.5h-141q-10 0 -17.5 -7.5t-7.5 -17.5v-29q0 -10 7.5 -17.5t17.5 -7.5h26q-4 -8 -4 -18v-2q-5 1 -9 1q-17 0 -28.5 -11.5t-11.5 -28t11.5 -28t28.5 -11.5h51v-18q-7 -2 -11.5 -6.5t-6.5 -11.5h-49q-3 0 -5 -2t-2 -5t2 -5t5 -2h49 q3 -9 10 -14t15.5 -5t15.5 5t10 14h49q3 0 5 2t2 5t-2 5t-5 2h-50q-2 7 -6.5 11.5t-11.5 6.5v18h51zM140 31v0v0v0q0 -5 -3.5 -8.5t-8.5 -3.5t-8.5 3.5t-3.5 8.5t3.5 8.5t8.5 3.5t8.5 -3.5t3.5 -8.5zM57 186q-4 0 -7.5 3.5t-3.5 7.5v29q0 4 3.5 7.5t7.5 3.5h141 q5 0 8.5 -3.5t3.5 -7.5v-29q0 -4 -3.5 -7.5t-8.5 -3.5h-34q-7 7 -16 11.5t-20 4.5t-20 -4.5t-16 -11.5h-35zM44 114q0 10 7.5 17.5t18.5 7.5q9 0 15 -5q2 -1 4.5 -1t4.5 2q3 3 1.5 7.5t-1.5 11.5q0 14 10 24t24.5 10t24.5 -10t10 -24q0 -5 -2 -11q-1 -2 -0.5 -4.5t2.5 -3.5 q4 -3 9 -1q6 5 15 5q11 0 18.5 -7.5t7.5 -17.5t-7.5 -17.5t-18.5 -7.5h-116q-11 0 -19 7t-8 18z" />
</svg>