<svg viewBox="0 0 1024 1024" xmlns="http://www.w3.org/2000/svg">
  <path transform="scale(1, -1) translate(0, -960)" fill="currentColor" d="M915 571q-32 35 -76 57t-93 28q-26 42 -63 72t-83 45q-19 7 -41.5 10.5t-46.5 3.5q-56 0 -106 -21q-50 -20 -87 -56t-59 -85q-22 -48 -22 -103v0q-43 -2 -80 -18q-38 -17 -66 -45t-44 -65t-16 -79t17 -80t46 -66t67 -45q39 -16 83 -17v0v0h461q59 0 111 22t91 59.5 t62 88.5q22 50 22 107q0 52 -20 100.5t-57 86.5zM706 139h-460q-76 0 -129 51.5t-53 124.5t53 124.5t129 51.5h8q8 0 12 4.5t4 11.5v16q0 48 19 91q20 42 52.5 74t76.5 50q44 19 94 19q22 0 41 -3.5t37 -9.5q42 -14 77 -42.5t56 -67.5q3 -4 5.5 -6t7.5 -2q44 -5 85.5 -25 t71.5 -52q32 -34 49.5 -76.5t17.5 -88.5q0 -50 -20 -95q-20 -44 -54.5 -77.5t-80.5 -52.5q-47 -20 -99 -20zM610 349q15 18 24 39.5t9 45.5q0 26 -10.5 49.5t-29.5 42.5q-39 39 -96 39t-97 -39q-20 -18 -30 -42t-10 -50q0 -27 10 -50.5t30 -42.5t45 -29t51 -10q20 0 41 6 t39 18l92 -88q3 -2 5.5 -3t6.5 -1q3 0 5.5 1t5.5 3q5 5 5 11.5t-5 11.5zM432 365q-14 14 -22 31.5t-8 37.5q0 19 8 37t22 31q16 15 35.5 22t39.5 7q21 0 40.5 -7t34.5 -22q15 -14 23 -31.5t8 -36.5q0 -20 -8 -38t-23 -31q-32 -30 -76 -30t-74 30z" />
</svg>