<svg viewBox="0 0 256 256" xmlns="http://www.w3.org/2000/svg">
  <path transform="scale(1, -1) translate(0, -256)" fill="currentColor" d="M162 71q-2 2 -5 1.5t-4 -3.5q-8 -11 -21 -11q-9 0 -15 5h7q3 0 5 2t2 5t-2 5t-5 2h-25q-4 0 -6.5 -2.5t-2.5 -6.5v-20q0 -3 2 -5t5 -2t5 2t2 5v8q12 -12 28 -12q10 0 19 4.5t14 12.5q1 3 0.5 5.5t-3.5 4.5zM170 130q0 3 -2.5 5t-5.5 2t-5 -2t-2 -5v-6q-15 12 -26.5 12 t-21 -6t-15.5 -16q-1 -2 0 -5t3.5 -4t5 -0.5t4.5 3.5q3 6 9 10t14 4q4 0 10.5 -4t11.5 -8h-10q-3 0 -5 -2.5t-2 -5.5t2 -5t5 -2h20q4 0 6.5 2.5t2.5 6.5v26h1zM231 162q-8 9 -19 15t-23 8q-14 22 -37 30q-10 4 -24 4q-19 0 -35 -9t-25.5 -25t-10.5 -35q-22 -2 -37 -18 t-15 -38q0 -16 7.5 -29t20.5 -20.5t29 -7.5q3 0 5 2t2 5t-2 5t-5 2q-18 0 -30.5 12.5t-12.5 30.5t12.5 30.5t30.5 12.5h2q3 0 5 2t2 5v4q0 16 7.5 29t21 21t28.5 8q10 0 19.5 -3t17.5 -10.5t13 -16.5q2 -3 6 -4q10 -1 20 -6t17.5 -13t11.5 -19t4 -22q0 -16 -8.5 -30t-22 -22 t-30.5 -8q-3 0 -5 -2.5t-2 -5.5t2 -5t5 -2q21 0 38 10t27 27t10 38q0 13 -5 26t-15 24z" />
</svg>