<svg viewBox="0 0 1024 1024" xmlns="http://www.w3.org/2000/svg">
  <path transform="scale(1, -1) translate(0, -960)" fill="currentColor" d="M808 605q-19 0 -37 -3.5t-35 -9.5q1 8 2 17.5t1 17.5q0 43 -18 81t-48.5 66.5t-72.5 44.5q-41 16 -88 16t-88 -16t-72 -44.5t-49 -66.5t-18 -81q0 -9 1 -18t2 -17q-17 6 -35 9.5t-37 3.5q-76 0 -130 -49.5t-54 -120.5q0 -69 54 -119t130 -50h42q7 0 11.5 4t4.5 12 q0 7 -4.5 11.5t-11.5 4.5h-42q-64 0 -108 40.5t-44 96.5q0 57 45 97.5t107 40.5q24 0 46.5 -7t41.5 -19q5 -2 9.5 -2t9.5 4q4 3 5.5 8t-0.5 9q-6 15 -8.5 30.5t-2.5 30.5q0 73 57.5 124.5t137.5 51.5t137.5 -51.5t57.5 -124.5q0 -15 -3 -30.5t-8 -30.5q-2 -4 -0.5 -9.5 t5.5 -7.5q3 -4 8.5 -4t10.5 2q19 13 41.5 19.5t46.5 6.5q64 0 108 -40.5t44 -97.5q0 -56 -45 -96.5t-107 -40.5q-7 0 -11.5 -4.5t-4.5 -11.5q0 -8 4.5 -12t11.5 -4q77 0 130.5 50t53.5 119q0 71 -54 120.5t-130 49.5v0zM531 504q-35 1 -67 -11.5t-56 -36.5 q-25 -24 -38 -55.5t-13 -67.5q0 -45 21.5 -83.5t58.5 -62.5q7 -5 11.5 -13t4.5 -17v-29q0 -28 19.5 -47.5t47.5 -19.5h16q28 0 47.5 19.5t19.5 47.5v30q0 5 1.5 9t3.5 7v0v0q2 4 5 7.5t6 5.5q36 23 57.5 60.5t22.5 80.5q1 34 -11.5 65t-36.5 57q-24 25 -55 39t-65 15v0z M570 128q0 -14 -10.5 -24.5t-25.5 -10.5h-16q-14 0 -24.5 10.5t-10.5 24.5v29v4.5v3.5h87v-4.5v-3.5v-29zM602 214q-5 -3 -9.5 -7t-8.5 -9h-112q-4 5 -8.5 9.5t-9.5 6.5q-31 20 -48 51.5t-17 67.5q0 29 10.5 54.5t30.5 44.5t45 29.5t53 10.5h1.5h1.5q28 -1 52.5 -12 t43.5 -31q19 -21 29.5 -46.5t9.5 -52.5q0 -36 -18 -66t-46 -50v0z" />
</svg>