<svg viewBox="0 0 1024 1024" xmlns="http://www.w3.org/2000/svg">
  <path transform="scale(1, -1) translate(0, -960)" fill="currentColor" d="M706 104h-461v0v0q-44 0 -83 17q-38 16 -67 44.5t-46 66.5t-17 82q0 42 16 80q16 37 44 65.5t66 45.5q37 17 80 18v2q0 56 22 105t59 85t87 58q50 21 106 21q24 0 46.5 -4t41.5 -11q46 -15 83 -45.5t63 -72.5q48 -6 92.5 -29t76.5 -58q37 -39 57 -88t20 -102 q0 -58 -22 -109q-23 -51 -62 -89t-91 -60t-111 -22v0zM246 136h460q52 0 99 19q46 20 80.5 53.5t54.5 78.5t20 97q0 47 -17.5 90t-49.5 78q-30 32 -71.5 52t-85.5 25q-4 0 -7 2t-6 6q-21 39 -56 68t-77 44q-16 6 -36 9.5t-42 3.5q-50 0 -94 -19q-44 -18 -76.5 -50.5 t-52.5 -75.5q-19 -43 -19 -92v-18q0 -7 -4 -11.5t-12 -4.5h-8q-76 0 -129 -51.5t-53 -125.5q0 -75 53 -126.5t129 -51.5v0z" />
</svg>