<svg viewBox="0 0 1024 1024" xmlns="http://www.w3.org/2000/svg">
  <path transform="scale(1, -1) translate(0, -960)" fill="currentColor" d="M310 818q-13 0 -22.5 -9.5t-9.5 -22.5v-2q0 -13 9.5 -22.5t22.5 -9.5q14 0 23 9.5t9 22.5v2q0 13 -9 22.5t-23 9.5zM659 768h83q8 0 12 4.5t4 11.5t-4 11.5t-12 4.5h-83q-7 0 -11.5 -4.5t-4.5 -11.5t5 -11.5t11 -4.5zM744 246q61 0 105 43t44 103t-44 103t-105 43 q-13 0 -26.5 -2.5t-26.5 -7.5q1 6 1.5 13t0.5 13q0 22 -5.5 43t-15.5 40h122q37 0 63 26t26 63v112q0 38 -26 64t-63 26h-565q-37 0 -63.5 -26t-26.5 -64v-113q0 -37 26.5 -63.5t63.5 -26.5h123q-10 -19 -15.5 -39.5t-5.5 -43.5q0 -6 0.5 -13t1.5 -13q-12 5 -25.5 7.5 t-27.5 2.5q-61 0 -105 -43t-44 -103t44 -102.5t105 -42.5h216v-96q-29 -5 -49 -26t-26 -49h-205q-7 0 -11.5 -4.5t-4.5 -11.5q0 -8 4.5 -12t11.5 -4h206q6 -33 31.5 -54.5t60.5 -21.5q34 0 59.5 22t31.5 54h206q7 0 11.5 4t4.5 12q0 7 -4.5 11.5t-11.5 4.5h-208 q-5 28 -25.5 48.5t-49.5 26.5v96h216v1zM571 61v0v0v-1v1q0 -25 -17.5 -43t-41.5 -18q-25 0 -42 17.5t-17 41.5v0v0v0v0q0 25 17.5 42t41.5 17q25 2 42 -15.5t17 -41.5v0zM229 669q-24 0 -41 16.5t-17 40.5v112q0 24 17 41t41 17h565q24 0 40.5 -17t16.5 -41v-113 q0 -24 -16.5 -41t-40.5 -17h-144q-26 29 -61.5 46t-76.5 17q-42 0 -78 -17t-60 -46h-145v2zM163 392q0 47 34.5 80.5t82.5 33.5q18 0 35.5 -6t31.5 -15q5 -4 10 -3.5t9 3.5t6 8t-1 9q-5 12 -7 25t-2 27q0 60 44 102.5t106 42.5t106 -42.5t44 -102.5q0 -14 -2 -27t-7 -25 q-3 -4 -1 -9.5t6 -7.5q3 -3 8.5 -3.5t10.5 3.5q14 11 31.5 16t35.5 5q48 0 82.5 -33.5t34.5 -80.5t-34.5 -80.5t-82.5 -33.5h-464q-48 0 -82.5 33t-34.5 81z" />
</svg>