<svg viewBox="0 0 256 256" xmlns="http://www.w3.org/2000/svg">
  <path transform="scale(1, -1) translate(0, -256)" fill="currentColor" d="M202 166q-6 0 -14 -2v6q0 15 -8 28.5t-22 21.5t-30 8t-30 -8t-22 -21.5t-8 -29.5l1 -5q-8 2 -15 2q-20 0 -34.5 -14.5t-14.5 -34.5t14.5 -34t34.5 -14h11q3 0 5 2t2 5t-2 5t-5 2h-11q-14 0 -24.5 10.5t-10.5 24.5t10.5 24t24.5 10q11 0 21 -6q2 -2 4 -1.5t4 1.5q4 3 3 8 q-3 7 -3 16q0 18 13 31t32 13t32.5 -13t13.5 -31q0 -9 -3 -16q-1 -2 0 -4t3 -4q3 -3 8 0q10 6 20 6q15 0 25.5 -10t10.5 -24.5t-10.5 -24.5t-25.5 -10h-10q-3 0 -5 -2t-2 -5t2 -5t5 -2h10q21 0 35.5 14t14 34.5t-15 34.5t-34.5 14zM160 119q-3 0 -5.5 -2t-2.5 -5v-4 q-10 10 -26 10q-10 0 -19.5 -5.5t-14.5 -14.5q-1 -3 0 -5.5t3 -4.5l3 -1q5 0 6 4q4 6 9.5 9.5t12 3.5t12 -3t8.5 -8h-8q-3 0 -5 -2t-2 -5t2 -5t5 -2h19q4 0 6.5 2.5t2.5 6.5v24q1 3 -1 5t-5 2zM159 57q-2 2 -5 1.5t-4 -3.5q-4 -5 -9 -7.5t-12 -2.5t-13 3h1q3 0 5 2.5t2 5.5 t-2 5t-5 2h-19q-4 0 -6.5 -2.5t-2.5 -6.5v-19q0 -3 2 -5t5 -2t5.5 2t2.5 5v7q11 -11 26 -11q10 0 18 4.5t14 12.5q1 2 0.5 4.5t-3.5 4.5z" />
</svg>