<svg viewBox="0 0 256 256" xmlns="http://www.w3.org/2000/svg">
  <path transform="scale(1, -1) translate(0, -256)" fill="currentColor" d="M187 49h-120q-14 0 -26.5 6t-21 16t-12 22.5t-1.5 26.5t11.5 26.5t23.5 18.5q18 8 38 4q2 0 2 1q7 17 22.5 27t34 10t34 -9.5t22.5 -26.5q0 -1 1 -1h1q16 -2 29.5 -11.5t20 -24t5.5 -30.5q-3 -23 -21 -39t-43 -16zM67 156q-10 0 -20.5 -4.5t-18 -14t-8.5 -20.5 q-4 -21 10 -37q7 -8 16.5 -12.5t19.5 -4.5h121q19 0 33.5 12t16 30.5t-10.5 33.5t-32 17q-9 1 -13 9q-5 13 -17 20.5t-26.5 7.5t-26.5 -8t-17 -21q-2 -5 -7 -7.5t-10 -1.5t-10 1z" />
</svg>