<svg viewBox="0 0 256 256" xmlns="http://www.w3.org/2000/svg">
  <path transform="scale(1, -1) translate(0, -256)" fill="currentColor" d="M159 206q3 0 5 2.5t2 5.5v16q0 3 -2 5.5t-5 2.5t-5 -2.5t-2 -5.5v-16q0 -3 2 -5.5t5 -2.5zM223 210q-2 2 -5 2t-5 -2l-11 -10q-2 -2 -2 -5t2 -5t5 -2t5 2l11 10q2 2 2 5t-2 5zM244 148h-17q-3 0 -5 -2.5t-2 -5.5t2 -5t5 -2h17q3 0 5 2t2 5t-2 5.5t-5 2.5zM102 188 q2 -2 4.5 -2t4.5 2t2 5t-2 5l-12 12q-2 2 -5 2t-5 -2t-2 -5t2 -5zM198 144q0 18 -13 30.5t-31 12.5q-15 0 -26.5 -9t-15.5 -22h-10q-23 0 -39.5 -14.5t-17.5 -35.5q-17 -2 -28.5 -14.5t-11.5 -30t13 -30t32 -12.5h89q16 0 29.5 7.5t21.5 20.5t8 28q0 21 -14 37q14 13 14 32z M154 173q12 0 21 -8.5t9 -21.5t-10 -21q-11 7 -24 9q-10 14 -24 21q2 9 10 15t18 6zM139 33h-89q-13 0 -22 8.5t-9 21t9 21t22 8.5h2q3 0 5 2t2 5v3q0 17 12.5 29t30.5 12q7 0 14 -3q16 -5 24 -19q1 -3 5 -3q13 -2 24 -10l4 -4q12 -13 12 -29.5t-13.5 -29t-32.5 -12.5z" />
</svg>