<svg viewBox="0 0 256 256" xmlns="http://www.w3.org/2000/svg">
  <path transform="scale(1, -1) translate(0, -256)" fill="currentColor" d="M36 107h-6v-20h15v5h-9v15zM112 107h-7v-19h7q5 0 8 2.5t3 7t-3 7t-8 2.5zM118 97q0 -5 -6 -5h-2v10h2q6 -1 6 -5zM14 102q4 0 5 -3h6q-1 3 -4 5.5t-7 2.5t-7 -3t-3 -7t3 -7t7 -3t7 2t4 5h-6q-1 -2 -4 -2t-4.5 1.5t-1.5 3.5q1 5 5 5zM90 96q0 -4 -2 -4t-3 1t-1 3v11h-6 v-11q0 -9 9 -9t9 9v11h-6v-11zM61 107q-4 0 -7 -3t-3 -7.5t3 -7.5t7 -3t7.5 3.5t3.5 7.5t-3 7t-8 3zM66 97q0 -2 -1.5 -3.5t-3.5 -1.5t-3.5 1.5t-1.5 3.5t1.5 3.5t3.5 1.5t3.5 -1.5t1.5 -3.5zM130 107v-20h6v7h9v4h-9v4h10v5h-16zM233 95h9v4h-9v3h10v5h-15v-20h15v5h-10v3z M220 100q0 3 -2 5t-6 2h-9v-19h5v5h2l4 -5h6l-4 6q4 1 4 6zM214 100q0 -2 -3 -2h-3v4h3q3 0 3 -2zM250 106h-1l-1 -2l1 -1l1 -1q1 0 1 1l1 1l-1 2h-1zM250 103q-2 0 -2 1.5t2 1.5t2 -1.5t-2 -1.5zM251 105h-1h-2v-2h1v1v0l1 -1v0v1q1 0 1 1zM250 104v0v1v0v-1v1v-1zM159 107 h-5v-20h14v5h-9v15zM182 107l-8 -20h6l1 4h7l2 -4h6l-9 20h-5zM183 95l2 5l2 -5h-4zM209 117l1 2q0 4 -1.5 6.5t-4.5 2.5h-42l-1 1h1l43 1q4 0 7.5 2.5t5.5 6.5l2 6v1q-2 10 -10 16.5t-17 6.5t-16.5 -5.5t-10.5 -13.5q-3 2 -8 2t-8 -3.5t-3.5 -7t0.5 -4.5q-8 0 -13 -5.5 t-5 -12.5v-3h1h79v0v1zM224 146h-2l-2 -6q0 -4 1.5 -6.5t4.5 -2.5h9l1 -1h-2l-9 -2q-4 0 -7.5 -2.5t-4.5 -6.5l-1 -2h1h32h1l2 6q-1 10 -8 16.5t-16 6.5z" />
</svg>