<svg viewBox="0 0 1024 1024" xmlns="http://www.w3.org/2000/svg">
  <path transform="scale(1, -1) translate(0, -960)" fill="currentColor" d="M539 514q-8 8 -20.5 8t-20.5 -8l-79 -82q-5 -5 -5 -11.5t5 -10.5q5 -5 11.5 -5t11.5 5l60 62v-181q0 -7 4.5 -11.5t11.5 -4.5q8 0 12 4.5t4 11.5v183l61 -63q3 -2 6 -3.5t5 -1.5q4 0 6.5 1.5t5.5 3.5q4 5 4 11.5t-4 11.5l-79 80v0zM915 573q-32 35 -76 57t-93 29 q-26 42 -63 72.5t-83 46.5q-19 7 -41.5 10.5t-46.5 3.5q-56 0 -106 -21t-87 -57.5t-59 -85.5t-22 -105v-1q-43 -2 -80 -18q-38 -17 -66 -45t-44 -65q-16 -38 -16 -80q0 -44 17 -82t46 -66.5t67 -44.5q39 -17 83 -17v0v0h461q59 0 111 22t91 59.5t62 88.5q22 51 22 108 q0 53 -20 102t-57 89zM706 136h-460q-76 0 -129 51.5t-53 126.5q0 74 53 125.5t129 51.5h8q8 0 12 4.5t4 11.5v18q0 48 19 91q20 44 52.5 76t76.5 51t94 19q22 0 41 -3.5t37 -9.5q42 -15 77 -44t56 -68q3 -4 5.5 -6t7.5 -2q44 -5 85.5 -25.5t71.5 -51.5q32 -35 49.5 -78 t17.5 -90q0 -52 -20 -97t-54.5 -78.5t-80.5 -53.5q-47 -19 -99 -19z" />
</svg>