<svg viewBox="0 0 256 256" xmlns="http://www.w3.org/2000/svg">
  <path transform="scale(1, -1) translate(0, -256)" fill="currentColor" d="M224 84q-9 0 -16.5 -6t-9.5 -15h-7v48h1q18 0 30.5 12.5t12.5 30t-12.5 30t-30.5 12.5q-7 0 -12 -2v3q0 14 -7 25.5t-19 18.5t-26 7q-22 0 -37 -15t-15 -36v-3q-7 1 -11 1q-18 0 -30.5 -12.5t-12.5 -30t12.5 -30t30.5 -12.5v0v-47h-7q-2 9 -9 14.5t-17.5 5.5t-18 -8 t-7.5 -19.5t7.5 -19.5t18 -8t17.5 6t9 14h14q3 0 5 2.5t2 5.5v82q0 3 -2 5t-5 2t-5 -2t-2 -5v-14h-1q-12 0 -20.5 8.5t-8.5 20t8.5 20t20.5 8.5q9 0 17 -5q2 -1 4.5 -1t4.5 1q3 4 1.5 9t-1.5 12q0 16 11 26.5t27 10.5t27 -10.5t11 -26.5q0 -7 -2 -13q-1 -2 0 -4l2 -4 q4 -3 9 0q7 5 18 5t19.5 -8.5t8.5 -20t-8.5 -20t-20.5 -8.5h-1v14q0 3 -2 5t-5 2t-5 -2t-2 -5v-82q0 -3 2 -5t5 -2h14q2 -9 9.5 -15t17.5 -6t18 8.5t8 19.5t-8 19.5t-19 8.5zM32 43q-5 0 -9 4t-4 9.5t4 9.5t9 4t9 -4t4 -9.5t-4 -9.5t-9 -4zM224 43q-5 0 -9 4t-4 9.5t4 9.5 t9 4t9 -4t4 -9.5t-4 -9.5t-9 -4zM135 62v76q0 3 -2 5t-5 2t-5 -2t-2 -5v-76q-9 -2 -14.5 -9.5t-5.5 -18t8 -18.5t19 -8t18.5 8t8 18.5t-5 18t-14.5 9.5zM128 22q-5 0 -9 4t-4 9.5t4 9.5t9 4t9 -4t4 -9.5t-4 -9.5t-9 -4z" />
</svg>