<svg viewBox="0 0 1024 1024" xmlns="http://www.w3.org/2000/svg">
  <path transform="scale(1, -1) translate(0, -960)" fill="currentColor" d="M893 269q-37 0 -65 -23.5t-33 -58.5h-54v143q66 20 109 75.5t43 127.5q0 39 -15 77t-43 67q-24 26 -56.5 43.5t-68.5 21.5q-19 32 -47 55t-61 35q-15 6 -32.5 8.5t-35.5 2.5q-42 0 -80 -16q-37 -15 -65 -42.5t-44 -64.5q-16 -36 -17 -78q-64 -4 -108 -50.5t-44 -109.5 q0 -53 31 -95t79 -57v-143h-54q-6 35 -34 58.5t-64 23.5q-43 0 -72.5 -29.5t-29.5 -69.5q0 -41 29 -69.5t70 -28.5q37 0 65 23.5t33 58.5h61q10 0 17.5 7t7.5 18v141q5 0 10 -1t9 -1v0v0h160v-72q-36 -6 -59.5 -33t-23.5 -63q0 -40 29.5 -68.5t69.5 -28.5q41 0 70.5 29 t29.5 68q0 36 -24.5 64t-59.5 32v74h149q9 0 16 1t15 2v-142q0 -11 7 -18.5t18 -7.5h61q6 -35 34 -58t64 -23q40 0 69.5 29t29.5 68q0 40 -27.5 69t-68.5 29v0zM131 104q-27 0 -47 19.5t-20 46.5q0 26 20 45.5t47 19.5q28 0 47.5 -19.5t19.5 -45.5q0 -27 -19 -46.5 t-48 -19.5zM579 150q0 -27 -19.5 -46t-47.5 -19t-47.5 19.5t-19.5 45.5q0 27 19.5 46.5t47.5 19.5q28 1 47.5 -18.5t19.5 -47.5zM338 352q-56 0 -94 37t-38 93q0 55 38 92t94 37h6q7 0 11.5 4.5t4.5 11.5v13q0 72 51 122.5t123 50.5q16 0 30 -2.5t26 -7.5q30 -11 55.5 -32 t40.5 -49q3 -4 5.5 -6t7.5 -2q33 -4 62.5 -19t51.5 -37q24 -26 36 -58t12 -66q0 -74 -53.5 -127t-130.5 -53h-339v-2zM893 104q-28 0 -47.5 19.5t-19.5 46.5q0 26 19.5 45.5t47.5 19.5q27 0 47 -19.5t20 -45.5q0 -27 -20 -46.5t-47 -19.5z" />
</svg>