<svg viewBox="0 0 1024 1024" xmlns="http://www.w3.org/2000/svg">
  <path transform="scale(1, -1) translate(0, -960)" fill="currentColor" d="M749 144h-482q-51 0 -98 21.5t-81 60.5q-34 38 -47 85.5t-6 98.5q9 56 44.5 102t88.5 70q35 16 72.5 20.5t73.5 -4.5q6 -1 12 2t8 8q28 65 87 103.5t129 38.5t128 -36.5t87 -99.5q2 -4 6.5 -7.5t10.5 -4.5v0q49 -6 89 -28q41 -22 69 -56t42 -77q13 -43 8 -91 q-4 -43 -25 -80q-20 -38 -52.5 -66t-74.5 -44t-89 -16v0zM267 573q-21 0 -42.5 -5t-42.5 -14q-45 -21 -76.5 -60.5t-38.5 -88.5q-7 -43 4.5 -84t40.5 -75q29 -33 70 -51.5t85 -18.5h482q41 0 77 14q37 14 65.5 38t46.5 57q18 32 22 70q4 41 -8 78q-12 38 -36.5 67t-59.5 48 t-77 23q-14 1 -25.5 10t-17.5 21q-24 54 -75 85t-111 31q-61 0 -112 -33t-75 -90q-7 -17 -22.5 -24.5t-33.5 -4.5q-9 4 -19.5 5.5t-20.5 1.5z" />
</svg>