<svg viewBox="0 0 256 256" xmlns="http://www.w3.org/2000/svg">
  <path transform="scale(1, -1) translate(0, -256)" fill="currentColor" d="M215 81q-9 0 -16 -5.5t-10 -13.5h-11v44h1q19 5 31.5 21.5t12.5 36.5q0 23 -16 41q-14 16 -34 19q-11 18 -30 24q-9 3 -19 3q-23 0 -39.5 -16t-18.5 -39q-17 -2 -29 -15t-12 -31.5t14.5 -32t33.5 -13.5h4v-43h-11q-2 9 -9 14.5t-17.5 5.5t-18 -8t-7.5 -19t7.5 -19t18 -8 t17.5 5.5t9 14.5h18q3 0 5.5 2t2.5 5v79q0 3 -2.5 5t-5.5 2t-5 -2t-2 -5v-15h-4q-14 0 -24 9.5t-10 23t9.5 22.5t23.5 9h1q3 0 5 2.5t2 5.5v3q0 19 13.5 32t31.5 13q8 0 14 -3q16 -5 24 -21q2 -3 5 -3q9 -1 16.5 -5t12.5 -10q13 -13 13 -31q0 -15 -8.5 -27t-22.5 -17v13 q0 3 -2 5t-5 2t-5.5 -2t-2.5 -5v-79q0 -3 2.5 -5t5.5 -2h18q2 -9 9 -14.5t17.5 -5.5t18 8t7.5 19t-8 18.5t-19 7.5zM41 42q-6 0 -9.5 3.5t-3.5 9t3.5 9t9 3.5t9.5 -3.5t4 -9t-4 -9t-9 -3.5zM215 42q-5 0 -9 3.5t-4 9t4 9t9.5 3.5t9 -3.5t3.5 -9t-3.5 -9t-9.5 -3.5zM135 58 v86q0 3 -2 5.5t-5 2.5t-5 -2.5t-2 -5.5v-86q-9 -3 -14.5 -10t-5.5 -17.5t8 -18t19 -7.5t19 7.5t8 18t-5.5 17.5t-14.5 10zM128 19q-5 0 -9 3.5t-4 9t4 9t9 3.5t9 -3.5t4 -9t-4 -9t-9 -3.5z" />
</svg>