<svg viewBox="0 0 256 256" xmlns="http://www.w3.org/2000/svg">
  <path transform="scale(1, -1) translate(0, -256)" fill="currentColor" d="M207 121q-7 13 -19 21t-27 8t-27 -8t-18 -22q-16 4 -31 -3q-11 -5 -18.5 -15t-9.5 -21t1 -21t10 -18.5t16.5 -13t21.5 -4.5h93q20 0 34.5 13t16.5 32t-10.5 34.5t-32.5 17.5zM237 70q-1 -14 -12 -23t-25 -9h-94q-8 0 -15 3.5t-12 9.5t-7 13t-1 15t6.5 15t13.5 10t15 3 l8 -1q4 -1 8.5 1.5t6.5 6.5q4 10 13 16t19.5 6t19.5 -6t13 -15q3 -7 12 -8q14 -1 23 -12t8 -25zM64 133q2 1 3.5 3.5t0.5 6t-1 7.5q0 10 7.5 17.5t18.5 7.5q7 0 12.5 -3t9.5 -8q2 -2 4.5 -2.5t5 1t3 4.5t-1.5 5q-6 8 -14.5 12.5t-18.5 4.5q-17 0 -29 -11.5t-12 -28.5 q0 -6 2 -12q1 -2 3 -3.5t4 -1.5zM97 211q3 0 5 2t2 5v6q0 3 -2 5.5t-5 2.5t-5 -2.5t-2 -5.5v-6q0 -3 2.5 -5t4.5 -2zM152 187q3 0 5 2l7 7q2 2 2 5t-2.5 5t-5 2t-4.5 -2l-7 -7q-2 -2 -2 -5t2 -5t5 -2zM19 148h-7q-3 0 -5 -2t-2 -5t2 -5t5 -2h7q3 0 5 2t2 5t-2 5t-5 2z M41 206q-2 2 -5 2t-5 -2t-2 -5t2 -5l7 -7q2 -2 4.5 -2t5 2t2.5 5t-2 5z" />
</svg>