<svg viewBox="0 0 1024 1024" xmlns="http://www.w3.org/2000/svg">
  <path transform="scale(1, -1) translate(0, -960)" fill="currentColor" d="M1000 517q0 53 -20 102.5t-57 87.5q-32 35 -76 58t-93 29q-26 42 -63 73t-83 47q-19 7 -41.5 10.5t-46.5 3.5q-57 0 -107 -21t-87 -57.5t-58 -85.5q-22 -49 -22 -105v-1q-43 -2 -81 -19t-66 -45.5t-44 -66.5q-17 -38 -17 -81q0 -30 8.5 -58t25.5 -54q-23 -30 -35.5 -65 t-12.5 -72q0 -48 18 -89q19 -42 50.5 -73t73.5 -49q43 -18 92 -18h369v0v0q72 0 123.5 50.5t51.5 122.5q0 29 -9 54t-25 47q50 9 93 33q42 25 73 61.5t49 82.5q17 46 17 98zM626 0h-368q-42 0 -78 15q-37 16 -64.5 42.5t-43.5 61.5q-16 36 -16 76q0 37 14 71t39 62 q24 25 56.5 41t68.5 20q3 0 6.5 2t5.5 6q18 31 45 54t61 34q13 5 28.5 7t32.5 2q79 0 134.5 -54.5t55.5 -132.5v-13q0 -7 4.5 -11.5t11.5 -4.5h7q60 0 102 -40t42 -100q0 -58 -42 -98t-102 -40v0zM741 270q-22 18 -49 29.5t-57 12.5q0 45 -18 85q-18 39 -48 68.5t-70 46.5 q-41 18 -86 18q-21 0 -39 -3.5t-33 -9.5q-37 -12 -67.5 -37.5t-51.5 -58.5q-36 -5 -69 -21t-59 -42q-12 21 -18 42.5t-6 45.5q0 76 53 128t130 52h8q7 0 11.5 4t4.5 12v17q0 49 20 92q19 43 51.5 75t77.5 51q44 19 94 19q22 0 41 -3.5t37 -9.5q42 -14 77 -43t56 -69 l5.5 -5.5t7.5 -2.5q46 -5 86.5 -25t70.5 -52q32 -34 49.5 -78t17.5 -91q0 -48 -17 -91q-18 -43 -48 -76t-72 -54t-90 -26z" />
</svg>