<svg viewBox="0 0 256 256" xmlns="http://www.w3.org/2000/svg">
  <path transform="scale(1, -1) translate(0, -256)" fill="currentColor" d="M176 39h-115q-15 0 -28 7.5t-20.5 20t-7.5 27.5q0 22 15 38t36 18q1 18 11 33.5t26 24.5t35 9q13 0 23 -4q24 -8 37 -30q13 -2 24 -7.5t19.5 -15t14 -22.5t5.5 -27q0 -19 -10 -36t-27 -26.5t-38 -9.5zM62 53h114q17 0 30.5 8t22 21.5t8.5 29.5q0 11 -4 21.5t-11.5 18.5 t-17.5 12.5t-20 5.5q-4 1 -6 4q-11 20 -31 26q-9 4 -19 4q-15 0 -28.5 -8t-21 -20.5t-7.5 -28.5v-4q0 -3 -2 -5t-5 -2h-2q-18 0 -30.5 -12.5t-12.5 -29.5t12.5 -29t30.5 -12z" />
</svg>