<svg viewBox="0 0 1024 1024" xmlns="http://www.w3.org/2000/svg">
  <path transform="scale(1, -1) translate(0, -960)" fill="currentColor" d="M718 386q28 22 44 54.5t16 69.5q0 68 -47.5 115t-114.5 47q-58 0 -102 -37t-56 -91q-12 2 -24.5 4t-27.5 2q-44 0 -83 -16t-68.5 -43.5t-46.5 -64.5t-18 -79q-66 -3 -112 -50.5t-46 -110.5q0 -68 49 -115t119 -49v0v0h355q47 0 88 17t71.5 46t48.5 68t18 84 q0 41 -15.5 78t-45.5 67q1 2 0.5 2t-2.5 2v0zM616 640q54 0 92 -38t38 -92q0 -31 -14 -58.5t-39 -45.5q-23 17 -49 27.5t-55 14.5q-18 29 -44.5 51t-58.5 34q10 47 46.5 77t83.5 30v0zM557 54h-355q-58 0 -98 38t-40 94q0 55 40 92t98 37h6q7 0 11.5 4.5t4.5 11.5v13 q0 72 53.5 123t130.5 51q17 0 31.5 -2t27.5 -7q33 -11 58.5 -32t42.5 -50q2 -3 5 -5.5t8 -2.5q29 -2 55.5 -13.5t46.5 -29.5h0.5h1.5q3 -4 7 -7.5t7 -6.5q25 -26 38 -58t13 -66q0 -76 -57 -130t-136 -54v0zM635 774q7 0 11.5 4.5t4.5 11.5v68q0 7 -4.5 11.5t-11.5 4.5 t-11.5 -4.5t-4.5 -11.5v-68q0 -7 4.5 -11.5t11.5 -4.5zM861 768l-43 -42q-5 -4 -5 -10.5t5 -11.5q2 -2 5 -3.5t6 -1.5t6 1.5t5 3.5l43 42q5 4 5 10.5t-5 11.5q-5 4 -11 4t-11 -4v0zM976 514h-69q-7 0 -11.5 -4.5t-4.5 -11.5q0 -8 4.5 -12t11.5 -4h69q7 0 11.5 4t4.5 12 q0 7 -4.5 11.5t-11.5 4.5zM414 698q3 -3 5.5 -4t6.5 -1q3 0 5.5 1t5.5 4q5 4 5 10.5t-5 11.5l-48 48q-5 5 -11.5 5t-11.5 -5q-4 -5 -4 -11.5t4 -10.5z" />
</svg>