<svg viewBox="0 0 256 256" xmlns="http://www.w3.org/2000/svg">
  <path transform="scale(1, -1) translate(0, -256)" fill="currentColor" d="M202 160q-6 0 -14 -2v4q0 15 -8 28t-22 20.5t-30 7.5t-30 -7.5t-22 -20.5t-8 -28l1 -4q-8 2 -15 2q-20 0 -34.5 -13.5t-14.5 -32t14.5 -32t34.5 -13.5h11q3 0 5 2t2 5t-2 5.5t-5 2.5h-11q-14 0 -24.5 9t-10.5 22t10.5 22.5t24.5 9.5q12 0 21 -6q2 -1 4 -1t4 1.5t2.5 3.5 t-0.5 4q-3 6 -3 14q0 17 13.5 29t32.5 12t32.5 -12t13.5 -29q0 -8 -3 -14q-1 -2 -0.5 -4t2.5 -4q4 -3 8 0q9 6 21 6q14 0 24.5 -9.5t10.5 -22.5t-10.5 -22t-24.5 -9q-3 0 -5.5 -2.5t-2.5 -5.5t2.5 -5t5.5 -2q20 0 34.5 13.5t14.5 32t-14.5 32t-34.5 13.5zM162 72q9 11 9 24 q0 16 -12 27t-28.5 11t-28.5 -11t-12 -27.5t11.5 -27.5t28.5 -11q12 0 22 6l24 -23q2 -2 4.5 -2t5 2t2 5t-2.5 5zM111 78q-7 8 -7 18t7.5 17t18.5 7t18.5 -7.5t7.5 -17.5t-7.5 -17t-18.5 -7t-19 7z" />
</svg>