<svg viewBox="0 0 1024 1024" xmlns="http://www.w3.org/2000/svg">
  <path transform="scale(1, -1) translate(0, -960)" fill="currentColor" d="M144 363h-22v-78h59v19h-37v59zM448 363h-29v-77h29q20 0 31.5 11t11.5 29v0q0 16 -11.5 26.5t-31.5 10.5zM470 323q0 -9 -5.5 -14t-14.5 -5v0h-8v40h8q8 -1 14 -6t6 -15v0zM58 344q6 0 11 -4t8 -9h22q-3 15 -14.5 24.5t-26.5 9.5q-20 0 -31 -12t-11 -30v0 q0 -17 12.5 -28.5t29.5 -11.5q15 0 26.5 8.5t14.5 22.5h-24q-2 -5 -6.5 -7.5t-10.5 -2.5q-10 0 -15.5 6t-5.5 15v0q1 7 6 13t15 6v0zM362 320q0 -7 -3.5 -11.5t-9.5 -4.5t-10.5 4.5t-4.5 11.5v43h-22v-43q0 -18 10 -26.5t25 -8.5q17 0 27 8t10 27v43h-22v-43v0zM245 363 q-19 0 -30.5 -12.5t-11.5 -28.5v0q0 -17 12.5 -28.5t29.5 -11.5t29 12t12 29v0q0 18 -11 29t-30 11v0zM266 323q0 -7 -6 -14t-15 -7q-10 0 -15.5 7t-5.5 14v0q0 7 5.5 14t13.5 7q11 0 17 -6t6 -15v0v0zM522 363v-78h24v29h35v16h-35v14h38v19h-62zM931 315h37v18h-37v11h42 v19h-63v-78h63v19h-42v11zM880 336v0q0 6 -1.5 11t-4.5 8q-5 5 -10.5 6.5t-15.5 1.5h-37v-77h21v23h10l16 -23h24l-18 26q7 2 11.5 8t4.5 16v0zM858 334q0 -4 -3.5 -6t-9.5 -2h-15v20h15q6 -2 9.5 -4.5t3.5 -7.5v0zM1000 362q-4 0 -6 -3t-2 -5q0 -3 3 -5.5t5 -2.5q4 0 6 2.5 t2 5.5q0 2 -3 5t-5 3zM1000 347q-4 0 -5 1.5t-1 5.5q0 3 1 4.5t5 1.5t5 -1.5t1 -4.5q0 -4 -2 -5.5t-4 -1.5zM1003 355q0 1 -1 1.5t-4 0.5h-4v-8h1v5h2l1 -5h2l-2 5h4.5t0.5 1v0zM1000 354v0h-2v1h2l1 1l-1 -2q1 1 1 0.5t-1 -0.5zM637 363h-21v-78h58v19h-37v59zM730 363 l-34 -78h22l7 14h29l6 -14h22l-33 78h-19v0zM731 315l8 23l8 -23h-16zM837 403l1 8q2 7 1.5 14t-2.5 12q-4 5 -9.5 7t-11.5 2l-170 2h-1v2v1q0 1 1 1.5t4 0.5l171 1q15 0 30 11t19 26l10 24v2v3q-10 41 -40 66t-69 25q-37 0 -66 -21t-39 -56q-8 5 -17 7.5t-19 2.5 q-16 -1 -29.5 -14t-14.5 -31v-9t1 -7q-30 -1 -50 -22t-20 -50v-5v-4t1 -2h4h313q-1 0 0.5 0.5t1.5 2.5v0zM894 520h-2.5h-1.5h-2v-2l-6 -22q-2 -7 -1.5 -14t2.5 -12q4 -4 9.5 -6.5t11.5 -2.5l37 -2h1v-1v-2q0 -1 -1 -1.5t-3 -0.5l-37 -6q-16 0 -30.5 -10.5t-19.5 -26.5 l-1 -6v-1.5t1 -0.5h130q1 0 1.5 0.5t3.5 1.5q1 6 2.5 12t1.5 12q-2 37 -29.5 64t-66.5 27z" />
</svg>