<svg viewBox="0 0 1024 1024" xmlns="http://www.w3.org/2000/svg">
  <path transform="scale(1, -1) translate(0, -960)" fill="currentColor" d="M808 565q-19 0 -37 -3.5t-35 -9.5q1 8 2 17.5t1 17.5q0 43 -18 81t-48.5 66.5t-72.5 44.5q-41 16 -88 16t-88 -16t-72 -44.5t-49 -66.5t-18 -81q0 -9 1 -18t2 -17q-17 6 -35 9.5t-37 3.5q-76 0 -130 -50t-54 -120q0 -69 54 -119t130 -50h42q7 0 11.5 4t4.5 12 q0 7 -4.5 11.5t-11.5 4.5h-42q-64 0 -108 40.5t-44 96.5q0 57 45 97.5t107 40.5q24 0 46.5 -7t41.5 -19q5 -2 9.5 -2t9.5 4q4 3 5.5 8t-0.5 9q-6 15 -8.5 30.5t-2.5 30.5q0 73 57.5 124.5t137.5 51.5t137.5 -51.5t57.5 -124.5q0 -15 -3 -30.5t-8 -30.5q-2 -4 -0.5 -9.5 t5.5 -7.5q3 -4 8.5 -4t10.5 2q19 13 41.5 19.5t46.5 6.5q64 0 108 -40.5t44 -97.5q0 -56 -45 -96.5t-107 -40.5q-7 0 -11.5 -4.5t-4.5 -11.5q0 -8 4.5 -12t11.5 -4q77 0 130.5 50t53.5 119q0 70 -54 120t-130 50v0zM632 226q18 19 27.5 43.5t9.5 50.5q0 29 -11.5 55.5 t-33.5 45.5q-43 42 -105.5 42t-105.5 -42q-22 -21 -33.5 -46.5t-11.5 -54.5t11.5 -55.5t33.5 -45.5q21 -20 49 -30.5t56 -10.5q23 0 46 7t42 20l104 -98q3 -2 5.5 -3.5t6.5 -1.5q3 0 5.5 1.5t5.5 3.5q5 5 5 11.5t-5 11.5l-101 96v0zM435 242q-17 15 -25 35t-8 43 q0 22 9 42.5t24 35.5q17 17 39 25.5t44 8.5q23 0 45 -8.5t39 -25.5q16 -15 24.5 -35t8.5 -43q0 -22 -9 -42.5t-24 -35.5q-34 -34 -83 -34t-84 34v0z" />
</svg>