<svg viewBox="0 0 256 256" xmlns="http://www.w3.org/2000/svg">
  <path transform="scale(1, -1) translate(0, -256)" fill="currentColor" d="M202 145q-6 0 -14 -2v5q0 16 -8 29.5t-21.5 21.5t-30 8t-30 -8t-21.5 -21.5t-8 -29.5v-5q-8 2 -14 2q-21 0 -35 -14t-14 -34t14 -34t35 -14h147q21 0 35.5 14t14.5 34t-15 34t-35 14zM202 63h-148q-14 0 -24.5 10t-10.5 24t10 24t25 10q12 0 20 -6q2 -1 4.5 -1t4.5 1 q4 3 2 8q-3 7 -3 15q0 19 13.5 32t32.5 13t32.5 -13t13.5 -32q0 -8 -3 -15q-1 -2 -0.5 -4t2.5 -4q4 -3 9 0q9 6 20 6q14 0 24.5 -10t10.5 -24t-10.5 -24t-24.5 -10zM146 120l-25 -25l-10 10q-2 2 -5 2t-5 -2t-2 -5t2 -5l15 -15q2 -2 4.5 -2t4.5 2l30 30q2 2 2 4.5t-2 5 t-4.5 2.5t-4.5 -2z" />
</svg>