<svg viewBox="0 0 256 256" xmlns="http://www.w3.org/2000/svg">
  <path transform="scale(1, -1) translate(0, -256)" fill="currentColor" d="M202 145q-6 0 -14 -2v6q0 16 -8 29.5t-21.5 21t-30 7.5t-30 -8t-21.5 -21t-8 -29v-6q-8 2 -14 2q-21 0 -35 -14t-14 -34t14 -34.5t35 -14.5h147q21 0 35.5 14.5t14.5 34.5t-15 34t-35 14zM202 63h-148q-14 0 -24.5 10t-10.5 24.5t10 24.5t25 10q11 0 20 -7q2 -1 4.5 -1 t4.5 2q4 3 2 8q-3 6 -3 15q0 19 13.5 32t32.5 13t32.5 -13t13.5 -32q0 -8 -3 -15q-1 -2 -0.5 -4.5t2.5 -3.5q4 -3 9 -1q9 7 20 7q14 0 24.5 -10t10.5 -24.5t-10.5 -24.5t-24.5 -10zM133 143q-2 2 -5 2t-5 -2l-21 -20q-2 -2 -2 -5t2 -5t5 -2t5 2l10 9v-35q0 -3 2 -5t4.5 -2 t4.5 2t3 4v35l9 -9q2 -2 4.5 -2t5 2t2.5 5t-2 5z" />
</svg>