<svg viewBox="0 0 256 256" xmlns="http://www.w3.org/2000/svg">
  <path transform="scale(1, -1) translate(0, -256)" fill="currentColor" d="M231 161q-8 8 -19 14t-23 8q-14 22 -37 29q-12 4 -24 4q-18 0 -34.5 -9t-26 -24t-10.5 -33q-22 -2 -37 -18t-15 -37q0 -15 7.5 -27.5t20.5 -20t28 -7.5h115q21 0 38 9.5t27 26.5t10 36q0 13 -5 25.5t-15 23.5zM176 54h-114q-18 0 -30.5 12t-12.5 29t12.5 29t30.5 12h2 q3 0 5 2t2 5v4q0 15 7.5 27.5t21 20t28.5 7.5q10 0 19 -3q20 -7 31 -26q2 -3 6 -4q10 -1 20 -5.5t17 -12.5q16 -16 16 -39q0 -16 -8 -29t-22 -21t-31 -8zM157 104q7 9 7 21q0 15 -11 25t-26.5 10t-26.5 -10.5t-11 -25t11 -25t27 -10.5q11 0 19 5l22 -20q2 -2 4.5 -2t5 2 t2.5 5t-2 5zM110 109q-7 6 -7 15t6.5 15.5t16.5 6.5t17 -6.5t7 -15.5t-7 -15t-16.5 -6t-16.5 6z" />
</svg>