<svg viewBox="0 0 1024 1024" xmlns="http://www.w3.org/2000/svg">
  <path transform="scale(1, -1) translate(0, -960)" fill="currentColor" d="M861 248q-35 0 -62 -22.5t-33 -55.5h-65v201q2 -1 4.5 -1h6.5q74 20 122 82t48 140q0 43 -16 83.5t-45 73.5q-27 29 -61.5 47t-73.5 23q-20 35 -50 59.5t-66 36.5q-16 6 -34 9.5t-37 3.5q-45 0 -85 -17t-70 -47t-48 -70q-17 -40 -18 -85q-68 -4 -116 -53.5t-48 -119.5 q0 -71 53 -122t126 -51h27v-193h-64q-6 33 -32 55.5t-62 22.5q-40 0 -67.5 -28t-27.5 -66q0 -39 28 -67t67 -28q34 0 61 22.5t33 56.5h82q7 0 11.5 4t4.5 12v315q0 7 -4.5 11.5t-11.5 4.5q-8 0 -12 -4.5t-4 -11.5v-74h-28q-60 0 -103.5 42.5t-43.5 98.5q0 60 41 100.5 t100 40.5h6q8 0 12 4.5t4 11.5v14q0 78 55.5 133.5t133.5 55.5q17 0 32.5 -2.5t28.5 -7.5q32 -10 59 -33.5t45 -55.5q2 -4 5 -6t8 -2q35 -4 67 -20t56 -43q25 -27 39 -62t14 -72q0 -67 -40.5 -120.5t-105.5 -69.5q-2 0 -2.5 -1t-2.5 -1v69q0 7 -4 11.5t-12 4.5 q-7 0 -11.5 -4.5t-4.5 -11.5v-315q0 -8 4.5 -12t11.5 -4h82q6 -34 32 -56.5t62 -22.5q40 0 67.5 28t27.5 67q0 38 -28.5 66t-67.5 28v0zM163 90q-26 0 -44 18.5t-18 43.5q0 26 18.5 44t43.5 18t44 -18.5t19 -43.5t-18 -43.5t-45 -18.5zM861 90q-27 0 -45 18.5t-18 43.5 q0 26 19 44t44 18q26 0 44 -18.5t18 -43.5q1 -25 -17.5 -43.5t-44.5 -18.5zM528 157v357q0 7 -4.5 11.5t-11.5 4.5t-11.5 -4.5t-4.5 -11.5v-357q-34 -6 -56 -32.5t-22 -62.5q0 -39 28 -66.5t66 -27.5t66 28t28 66q0 36 -22 62.5t-56 32.5zM512 0q-26 0 -44 18.5t-18 43.5 q0 27 18.5 45t43.5 18q26 0 44 -18.5t18 -44.5q0 -25 -18 -43.5t-44 -18.5z" />
</svg>