<svg viewBox="0 0 256 256" xmlns="http://www.w3.org/2000/svg">
  <path transform="scale(1, -1) translate(0, -256)" fill="currentColor" d="M214 86q-9 0 -17 -6.5t-10 -16.5h-9v44h1q19 6 31.5 22t12.5 36q0 23 -16 41q-14 14 -34 18q-11 17 -29 24q-9 3 -19 3q-23 0 -39.5 -15.5t-18.5 -38.5q-17 -2 -28.5 -15t-11.5 -31t14 -32t33 -14h4v-41h-8q-3 9 -10.5 15.5t-18.5 6.5t-19 -8.5t-8 -20.5t8 -20.5t19 -8.5 t18.5 6t10.5 16h15q3 0 5 2t2 5v77q0 3 -2 5.5t-5 2.5t-5 -2.5t-2 -5.5v-15h-4q-13 0 -23 9.5t-10 23t9 22.5t23 9h1q3 0 5.5 2t2.5 5v4q0 18 12.5 30.5t30.5 12.5q8 0 14 -2q16 -6 24 -21q2 -3 5 -3q18 -2 29.5 -15t11.5 -31q0 -14 -8.5 -26t-21.5 -17v12q0 3 -2 5.5 t-5 2.5t-5.5 -2.5t-2.5 -5.5v-78q0 -3 2 -5t5 -2h16q2 -10 10 -16t18.5 -6t19 8.5t8.5 20.5t-8.5 21t-20.5 9zM42 41q-6 0 -10.5 4.5t-4.5 11t4.5 11t10.5 4.5t10 -4.5t4 -11t-4 -11t-10 -4.5zM214 41q-6 0 -10 4.5t-4 11t4 11t10 4.5t10.5 -4.5t4.5 -11t-4.5 -11 t-10.5 -4.5zM135 62v84q0 3 -2 5t-5 2t-5 -2t-2 -5v-83q-10 -3 -16 -10.5t-6 -19t8.5 -20t20 -8.5t20 8.5t8.5 19.5t-6 19t-15 10zM128 19q-6 0 -10 4.5t-4 10.5t4 10.5t10 4.5t10 -4.5t4 -10.5t-4 -10.5t-10 -4.5z" />
</svg>