<svg viewBox="0 0 256 256" xmlns="http://www.w3.org/2000/svg">
  <path transform="scale(1, -1) translate(0, -256)" fill="currentColor" d="M223 86q-9 0 -17 -6t-10 -14h-8v30q16 6 27 20.5t11 33.5q0 22 -16 38q-12 13 -31 17q-11 17 -28 23q-9 3 -18 3q-22 0 -37.5 -15t-17.5 -36q-16 -2 -27 -14t-11 -29q0 -13 7.5 -24t20.5 -16v-30h-8q-2 9 -9.5 14.5t-18.5 5.5t-19 -8t-8 -19.5t8 -19.5t18.5 -8t18 6 t10.5 14h12q4 0 7 3t3 7v32h39v-13q-9 -2 -15 -9.5t-6 -18t8 -18.5t20 -8t20 8t8 18.5t-6 18t-15 9.5v13h34h5v-32q0 -4 3 -7t7 -3h12q2 -8 9.5 -14t17.5 -6q11 0 19.5 8t8.5 19.5t-8 19t-20 7.5zM33 45q-6 0 -10 4t-4 9.5t4 9.5t10 4t10 -4t4 -9.5t-4 -9.5t-10 -4zM142 54 q0 -6 -4 -10t-10 -4t-10 4t-4 9.5t4 9.5t10 4t10 -4t4 -9zM84 107q-12 0 -20.5 8.5t-8.5 21t8.5 21t20.5 8.5h2q3 0 5 2t2 5v3q0 16 12 28t29 12q7 0 13 -2q14 -5 23 -19q1 -3 5 -4q16 -2 26.5 -13.5t10.5 -28.5t-12.5 -29.5t-29.5 -12.5h-86zM223 45q-6 0 -10 4t-4 9.5 t4 9.5t10 4t10 -4t4 -9.5t-4 -9.5t-10 -4z" />
</svg>