<svg viewBox="0 0 1024 1024" xmlns="http://www.w3.org/2000/svg">
  <path transform="scale(1, -1) translate(0, -960)" fill="currentColor" d="M992 283v139q0 27 -19 45.5t-45 18.5h-109q9 16 12.5 33.5t3.5 35.5q0 64 -46 109t-111 45q-14 0 -28 -2.5t-28 -7.5q2 7 2 14.5v14.5q0 76 -55.5 130t-134.5 54q-80 0 -136 -54.5t-56 -132.5v-14.5t1 -14.5q-13 5 -27 7.5t-29 2.5q-65 0 -111 -45t-46 -109t46 -109 t111 -45h128v-118q0 -14 6 -27t17 -21q-10 -8 -16.5 -21t-6.5 -27v-136q0 -26 19 -45t45 -19h549q26 0 45 19t19 45v139q0 15 -6 27.5t-16 20.5q10 9 16 21.5t6 26.5v0zM317 434h-128q-52 0 -88.5 35.5t-36.5 85.5q0 51 36.5 86.5t88.5 35.5q19 0 37.5 -6t34.5 -17 q5 -2 9.5 -2t9.5 2q4 4 5.5 8.5t-0.5 9.5q-5 13 -7.5 26.5t-2.5 27.5q0 64 47 110t113 46t112.5 -46t46.5 -110q0 -14 -2.5 -27.5t-7.5 -26.5q-2 -5 -0.5 -10t5.5 -8q3 -3 8.5 -3t10.5 3q16 11 34.5 17t37.5 6q52 0 88.5 -35.5t36.5 -86.5q0 -19 -6 -36t-17 -33h-403 q-23 0 -41 -15.5t-21 -36.5zM960 187v-139q0 -13 -9.5 -22.5t-22.5 -9.5h-549q-13 0 -22.5 9.5t-9.5 22.5v139q0 13 9.5 22.5t22.5 9.5h549q13 0 22.5 -9.5t9.5 -22.5zM379 251q-13 0 -22.5 9.5t-9.5 22.5v139q0 14 9.5 23t22.5 9h549q13 0 22.5 -9t9.5 -23v-139 q0 -13 -9.5 -22.5t-22.5 -9.5h-549v0zM472 387q-13 0 -22.5 -9.5t-9.5 -22.5v-3q0 -13 9.5 -22.5t22.5 -9.5t22.5 9.5t9.5 22.5v2q0 14 -9.5 23.5t-22.5 9.5zM862 370h-75q-7 0 -11.5 -4.5t-4.5 -11.5q0 -8 4.5 -12t11.5 -4h75q8 0 12 4t4 12q0 7 -4 11.5t-12 4.5zM472 85 q13 0 22.5 9.5t9.5 22.5v1q0 14 -9.5 23t-22.5 9t-22.5 -9t-9.5 -23v-1q0 -13 9.5 -22.5t22.5 -9.5zM787 102h75q8 0 12 4.5t4 11.5q0 8 -4 12t-12 4h-75q-7 0 -11.5 -4t-4.5 -12q0 -7 5 -11.5t11 -4.5z" />
</svg>