<svg viewBox="0 0 1024 1024" xmlns="http://www.w3.org/2000/svg">
  <path transform="scale(1, -1) translate(0, -960)" fill="currentColor" d="M827 410v0q-3 0 -6.5 2t-4.5 6q-23 49 -68.5 78t-101.5 29t-102.5 -31t-68.5 -81q-1 -4 -4 -5.5t-7 -1.5q-29 6 -58.5 3t-56.5 -15q-42 -20 -70.5 -56t-35.5 -80q-6 -40 4.5 -78t37.5 -68q26 -31 63.5 -48.5t78.5 -17.5h375q74 0 129 48t63 117q6 75 -42.5 132.5 t-124.5 66.5zM960 213q-6 -57 -52.5 -96t-107.5 -39h-376q-35 0 -66 14t-52 41q-22 25 -30.5 56t-3.5 64q6 36 29.5 66t58.5 46q16 7 32.5 10.5t33.5 3.5q7 0 15 -1t15 -2q14 -4 28 3.5t20 20.5q18 42 57 67.5t85 25.5t84.5 -24.5t56.5 -65.5q5 -11 15 -17.5t22 -7.5v0 q62 -8 102 -55.5t34 -109.5zM251 480q6 2 9 8t1 13q-3 8 -4 16.5t-1 18.5q0 47 34.5 80.5t82.5 33.5q29 0 54.5 -13.5t41.5 -36.5q3 -6 9.5 -7t12.5 4q6 3 7 9.5t-4 12.5q-20 30 -53 46.5t-70 16.5q-61 0 -105 -43t-44 -103q0 -12 2 -23t5 -22q1 -5 5.5 -8t10.5 -3h3.5h2.5z M389 790q7 0 11.5 4.5t4.5 11.5v28q0 7 -4.5 11.5t-11.5 4.5t-11.5 -4.5t-4.5 -11.5v-28q0 -6 5 -11t11 -5zM608 698q4 0 6.5 1t4.5 3l27 28q5 4 5 10.5t-5 11.5q-4 5 -10.5 5t-11.5 -5l-27 -27q-5 -5 -5 -11.5t5 -11.5q1 -2 4 -3t7 -1v0zM75 517h-27q-7 0 -11.5 -4.5 t-4.5 -11.5t4.5 -11.5t11.5 -4.5h27q7 0 11.5 4.5t4.5 11.5t-4.5 11.5t-11.5 4.5zM155 752q-5 5 -11 5t-11 -5t-5 -11.5t5 -10.5l27 -28q2 -2 5 -3t6 -1q4 0 6.5 1t4.5 3q5 5 5 11.5t-5 11.5l-27 27v0z" />
</svg>