<svg viewBox="0 0 1024 1024" xmlns="http://www.w3.org/2000/svg">
  <path transform="scale(1, -1) translate(0, -960)" fill="currentColor" d="M910 858h-796q-34 0 -58 -25t-24 -59v-472q0 -33 24 -57t58 -24h305l-24 -147v-2v-2h-125q-7 0 -11.5 -4t-4.5 -12q0 -7 4.5 -11.5t11.5 -4.5h484q7 0 11.5 4.5t4.5 11.5q0 8 -4.5 12t-11.5 4h-125v2v2l-24 147h305q34 0 58 24t24 57v472q0 34 -24 59t-58 25v0zM227 266 l58 32q9 4 14 14t3 21q-1 9 -1 17v16q0 10 1 18.5t2 15.5q2 11 -3 21t-15 16l-57 32l51 88q7 -4 27 -15.5t32 -18.5q9 -5 19.5 -4t17.5 7q4 3 6.5 5.5t6.5 4.5q8 7 16 13t17 11q11 6 17.5 16.5t6.5 23.5v42q0 4 3.5 7.5t8.5 3.5h110q5 0 8 -3.5t3 -7.5v-42q0 -12 6.5 -23 t17.5 -17q9 -4 16.5 -9.5t15.5 -12.5q4 -3 7.5 -6t7.5 -6q7 -6 17.5 -7t18.5 4l60 34l51 -88l-58 -32q-9 -5 -14 -15.5t-3 -21.5q1 -8 2 -16.5t1 -17.5q0 -8 -1 -16.5t-2 -16.5q-3 -11 2.5 -21t14.5 -16l56 -30l-8 -15h-552l-8 15v0zM597 70h-170l26 149h118l26 -149v0z M960 302q0 -20 -14.5 -34.5t-35.5 -14.5h-84l3 6q2 4 2.5 8.5t-1.5 9.5q-1 5 -3.5 8.5t-7.5 5.5l-65 35q-2 0 -2 1v3q1 9 2 18.5t1 19.5q0 11 -1 20.5t-2 17.5v3t2 1l65 36q7 5 10 14t-2 18l-59 103q-5 8 -13.5 10.5t-16.5 -1.5h-1t-1 -1l-67 -37q-4 2 -7.5 5.5l-5.5 5.5 q-8 7 -17 14t-21 13q-4 2 -5.5 5t-1.5 7v41q0 18 -12.5 30.5t-30.5 12.5h-110q-18 0 -31 -12.5t-13 -30.5v-41q0 -4 -2 -6.5t-4 -5.5q-12 -6 -21 -13t-19 -14q-2 -2 -5.5 -4.5t-7.5 -4.5q-14 8 -38 21.5l-24 13.5q-17 9 -26 2.5t-11 -9.5l-61 -104q-5 -8 -2 -17.5t12 -14.5 l65 -35l1 -1t1 -2q-1 -8 -2 -18.5t-1 -19.5v-19t1 -20v-1.5t-1 -1.5l-66 -37q-8 -5 -10.5 -13.5t1.5 -18.5l3 -5h-83q-21 0 -35.5 15t-14.5 35v470q0 21 14.5 35.5t35.5 14.5h795q20 0 34.5 -14.5t14.5 -35.5v-472h2zM621 365q0 44 -31.5 75.5t-75.5 31.5q-45 0 -76.5 -31.5 t-31.5 -75.5q0 -45 31.5 -76t76.5 -31q43 -2 75 30t32 77zM437 365q0 31 22 53t53 22t53 -22t22 -53t-22 -54t-53 -23t-53 23t-22 54z" />
</svg>