<svg viewBox="0 0 256 256" xmlns="http://www.w3.org/2000/svg">
  <path transform="scale(1, -1) translate(0, -256)" fill="currentColor" d="M228 233h-200q-9 0 -16 -7t-7 -16v-118q0 -10 7 -17t16 -7h73l-5 -31h-29q-3 0 -5 -2t-2 -5t2 -5.5t5 -2.5h121q3 0 5 2.5t2 5.5t-2 5t-5 2h-29l-5 31h73q10 0 17 7t7 17v118q0 9 -7 16t-16 7zM73 88q3 2 4.5 5t1.5 7l-1 8l1 8q0 3 -1.5 6.5t-4.5 5.5l-12 6l10 17l13 -7 q3 -1 6.5 -1t5.5 3l3 2q5 4 8 6t5 5t2 7v11h28v-11q0 -3 2 -6.5t5.5 -5t7.5 -5.5l4 -3q3 -3 6 -3t6 2l13 7l10 -17l-13 -7q-3 -2 -4.5 -5t-1 -7.5t0.5 -7.5v-8q-1 -4 0.5 -7.5t5.5 -4.5l10 -6h-49q6 4 9.5 10.5t3.5 14.5q0 13 -8.5 21.5t-21 8.5t-21.5 -8.5t-9 -21.5 q0 -8 4 -14.5t10 -10.5h-50zM112 107q0 7 5 11.5t11.5 4.5t11 -4.5t4.5 -11t-4.5 -11.5t-11 -5t-11.5 5t-5 11zM146 37h-35l5 31h24zM237 92q0 -4 -2.5 -7t-6.5 -3h-17q0 2 -0.5 4.5t-4.5 4.5l-14 8v9v8l15 9q3 2 4 5t-1 6l-15 26q-2 3 -5 4.5t-6 -0.5l-16 -8q-1 0 -2 1 q-6 5 -10 7v11q0 6 -4 10t-10 4h-28q-5 0 -9.5 -4t-4.5 -10v-11q-3 -1 -8 -5l-4 -3l-14 8q-8 4 -13 -3l-15 -26q-2 -3 -1 -6.5t5 -5.5l14 -8v-9v-8l-14 -8q-3 -2 -4 -4t-1 -5h-17q-3 0 -6 2.5t-3 6.5v118q0 3 3 6t6 3h199q4 0 7 -3t3 -6v-118z" />
</svg>