<svg viewBox="0 0 256 256" xmlns="http://www.w3.org/2000/svg">
  <path transform="scale(1, -1) translate(0, -256)" fill="currentColor" d="M202 240q-16 0 -27.5 -11t-11.5 -27v-4h-71l-7 34q-2 8 -8.5 13.5t-15.5 5.5h-39q-2 0 -4 -2t-2 -5t2 -5t5 -2h39q3 0 6 -2.5t3 -5.5l6 -31h-21q-8 0 -12 -8q-1 -3 -0.5 -6.5t2.5 -6.5l64 -73v-86h-24q-3 0 -5 -2t-2 -5t2 -5t5 -2h62q3 0 5 2t2 5t-2 5t-5 2h-24v86l57 65 q9 -6 20 -6q16 0 27.5 11.5t11.5 27.5t-11 27t-27 11zM86 184v0v0v0v0v0h90l-58 -66l-59 66h27zM202 177q-6 0 -12 3q3 5 0 11q-1 4 -4 6t-7 2h-1l-1 3q0 11 7.5 18t17.5 7t17.5 -7t7.5 -17.5t-7.5 -18t-17.5 -7.5z" />
</svg>