<svg viewBox="0 0 1024 1024" xmlns="http://www.w3.org/2000/svg">
  <path transform="scale(1, -1) translate(0, -960)" fill="currentColor" d="M808 886q-59 0 -100.5 -41.5t-41.5 -100.5q0 -7 1 -13.5t2 -12.5h-312l-29 144q-6 28 -29.5 47t-53.5 19h-155q-8 0 -12 -4.5t-4 -11.5t4 -11.5t12 -4.5h155q18 0 32.5 -12t18.5 -30l27 -137h-99q-12 0 -21 -6t-14 -17q-5 -10 -3.5 -21.5t9.5 -19.5l259 -296v-357h-107 q-7 0 -11.5 -4.5t-4.5 -11.5t4.5 -11.5t11.5 -4.5h247q7 0 11.5 4.5t4.5 11.5t-4.5 11.5t-11.5 4.5h-108v358l237 271q18 -13 40 -20t45 -7q59 0 100.5 41.5t41.5 100.5t-41.5 100.5t-100.5 41.5v0zM218 682q0 1 1 2t5 1h491q3 0 4 -1.5t3 -1.5q1 0 0.5 -3t-2.5 -4 l-250 -288l-251 287q-1 2 -1 4v4zM808 632q-17 0 -33 5t-29 16v0q7 8 9 19.5t-3 21.5q-5 11 -14 17t-21 6h-15q-1 6 -2 12.5t-1 12.5q0 46 32.5 78.5t78.5 32.5q45 0 77.5 -32.5t32.5 -78.5q0 -45 -33 -77.5t-79 -32.5v0z" />
</svg>