<svg viewBox="0 0 1024 1024" xmlns="http://www.w3.org/2000/svg">
  <path transform="scale(1, -1) translate(0, -960)" fill="currentColor" d="M866 866q7 8 8 19t-4 21q-4 10 -13 16t-20 6h-650q-11 0 -20 -6t-13 -16q-5 -10 -4 -21t8 -19l340 -426v-440h-127q-7 0 -11.5 -4.5t-4.5 -11.5t4.5 -11.5t11.5 -4.5h285q7 0 11.5 4.5t4.5 11.5t-4.5 11.5t-11.5 4.5h-126v445l336 421v0zM334 696l40 35q17 15 38.5 15 t37.5 -15q25 -23 58.5 -23t59.5 23q17 15 37.5 15t37.5 -15l43 -38l-174 -219l-178 222v0zM182 893q0 1 1.5 2t5.5 1h648q2 0 3.5 -1t2.5 -2q0 -1 0.5 -3t-0.5 -4l-134 -168l-43 37q-26 23 -59 23t-60 -23q-17 -14 -38 -14t-37 14q-25 23 -58.5 23t-59.5 -23l-39 -35 l-133 166q-1 2 -1 4t1 3v0z" />
</svg>