<svg viewBox="0 0 1024 1024" xmlns="http://www.w3.org/2000/svg">
  <path transform="scale(1, -1) translate(0, -960)" fill="currentColor" d="M779 653q7 8 8.5 19.5t-3.5 21.5q-5 11 -14 17t-21 6h-331l-154 205q-4 4 -11 5t-11 -2q-5 -4 -6 -11t2 -12l140 -185h-101v0v0q-11 0 -21 -6t-14 -17q-5 -10 -4 -21t8 -20l250 -296v-357h-102q-6 0 -11 -4.5t-5 -11.5t4 -11.5t12 -4.5h235v0v0q7 0 11.5 4.5t4.5 11.5 t-4.5 11.5t-11.5 4.5h-101v357zM272 682q0 1 1.5 2t4.5 1v0v0h127l57 -75q3 -4 6.5 -5.5t6.5 -1.5t5 1t5 2q5 4 6 11t-3 12l-42 56h308q2 0 3.5 -1t2.5 -2q0 -2 0.5 -4t-2.5 -3l-244 -286l-242 286q-1 1 -1 3t1 4v0z" />
</svg>