<svg viewBox="0 0 1024 1024" xmlns="http://www.w3.org/2000/svg">
  <path transform="scale(1, -1) translate(0, -960)" fill="currentColor" d="M912 834h-800q-34 0 -57 -24t-23 -56v-380q0 -33 24 -56.5t56 -23.5h384v-200h-131q-7 0 -11.5 -4t-4.5 -12q0 -7 4.5 -11.5t11.5 -4.5h294q7 0 11.5 4.5t4.5 11.5q0 8 -4.5 12t-11.5 4h-131v200h384q34 0 57 24t23 56v380q0 33 -24 56.5t-56 23.5v0zM960 374 q0 -20 -14.5 -34t-33.5 -14h-800q-20 0 -34 14.5t-14 33.5v380q0 20 14.5 34t33.5 14h800q20 0 34 -14.5t14 -33.5v-380zM715 672q-5 5 -11 5t-11 -5t-5 -11.5t5 -10.5l77 -77l-77 -77q-5 -5 -5 -11.5t5 -10.5q2 -3 5.5 -4t5.5 -1t5.5 1t5.5 4l83 83q6 6 6 15t-6 15l-83 85 v0zM254 565l76 75q4 5 4 11.5t-4 10.5q-5 5 -11.5 5t-11.5 -5l-83 -83q-6 -6 -6 -15t6 -15l85 -85q2 -2 5.5 -3.5t5.5 -1.5q4 0 6.5 1.5t4.5 3.5q5 5 5 11.5t-5 10.5l-77 79v0zM555 675q-6 3 -12 0.5t-9 -9.5l-75 -192q-2 -6 1 -12.5t9 -8.5q1 0 2.5 -1t3.5 -1q5 0 9 2.5 t6 7.5l75 192q2 7 -1 13.5t-9 8.5v0z" />
</svg>