<svg viewBox="0 0 1024 1024" xmlns="http://www.w3.org/2000/svg">
  <path transform="scale(1, -1) translate(0, -960)" fill="currentColor" d="M992 634l-456 304q-12 7 -24 7t-24 -7l-454 -304q-9 -5 -13.5 -15.5t-4.5 -18.5v-302q0 -10 4.5 -20t13.5 -17l454 -303q12 -7 24 -7t24 7l454 303q9 5 13.5 15.5t4.5 21.5v302q1 10 -3.5 19.5t-12.5 14.5v0zM555 822l335 -224l-152 -99l-184 125l1 31v68v68v31zM470 822 v-198l-185 -125l-149 99l334 224v0zM102 520l106 -72l-106 -72v144zM470 74l-334 224l149 99l185 -125v-31v-68v-68v-31v0zM514 346l-152 102l152 102l152 -102zM555 74v198l186 125l149 -99l-335 -224v0zM923 376l-105 72l105 72v-144z" />
</svg>