<svg viewBox="0 0 1024 1024" xmlns="http://www.w3.org/2000/svg">
  <path transform="scale(1, -1) translate(0, -960)" fill="currentColor" d="M928 896h-832q-26 0 -45 -19t-19 -45v-768q0 -26 19 -45t45 -19h832q26 0 45 19t19 45v768q0 26 -19 45t-45 19zM96 864h832q13 0 22.5 -9.5t9.5 -22.5v-142h-896v142q0 13 9.5 22.5t22.5 9.5zM928 32h-832q-13 0 -22.5 9.5t-9.5 22.5v594h896v-594q0 -13 -9.5 -22.5 t-22.5 -9.5zM330 195h-24v104q0 3 -1.5 6t-3.5 5l-35 42l36 42q3 2 4 4.5t1 6.5v94h24q7 0 11.5 4.5t4.5 11.5t-4.5 11.5t-11.5 4.5h-40q-7 0 -11.5 -4.5t-4.5 -11.5v-104l-43 -46q-4 -5 -4 -11t4 -10l43 -48v-115q0 -7 4.5 -11.5t11.5 -4.5h40q7 0 11.5 4.5t4.5 11.5 t-5 10.5t-12 3.5v0zM750 410v104q0 7 -4 11.5t-12 4.5h-40q-7 0 -11.5 -4.5t-4.5 -11.5q0 -8 4.5 -12t11.5 -4h24v-95q0 -2 1.5 -5.5t3.5 -5.5l37 -42l-37 -41q-2 -3 -3.5 -5.5t-1.5 -5.5v-104h-24q-7 0 -11.5 -4.5t-4.5 -11.5q0 -8 4.5 -12t11.5 -4h40q8 0 12 4t4 12v115 l44 48q3 5 3 11t-3 10l-44 48v0z" />
</svg>