<svg viewBox="0 0 1024 1024" xmlns="http://www.w3.org/2000/svg">
  <path transform="scale(1, -1) translate(0, -960)" fill="currentColor" d="M290 712q4 5 3.5 11.5t-5.5 10.5q-5 5 -11.5 4.5t-10.5 -5.5l-218 -243q-16 -17 -16 -41t16 -41l218 -245q2 -2 5 -3.5t6 -1.5q2 0 5.5 1.5t5.5 3.5q5 5 5 11.5t-3 11.5l-220 243q-7 8 -7 19.5t7 20.5zM976 490l-218 244q-4 5 -10.5 5.5t-11.5 -3.5q-5 -5 -5 -11.5 t3 -10.5l218 -245q7 -9 7 -20.5t-7 -19.5l-218 -245q-4 -5 -3.5 -11.5t5.5 -10.5q2 -3 5 -4t6 -1q4 0 6.5 1t4.5 4l218 244q16 17 16 42t-16 42v0zM605 725q-6 2 -12.5 -1t-8.5 -9l-174 -523q-3 -6 0 -12t9 -9q1 0 2.5 -0.5t2.5 -0.5q5 0 9 3t5 8l176 523q3 6 0 12t-9 9v0z " />
</svg>