<svg viewBox="0 0 256 256" xmlns="http://www.w3.org/2000/svg">
  <path transform="scale(1, -1) translate(0, -256)" fill="currentColor" d="M228 228h-200q-10 0 -16.5 -7t-6.5 -17v-94q0 -10 6.5 -17t16.5 -7h93v-44h-30q-3 0 -5 -2t-2 -5t2 -5t5 -2h73q3 0 5.5 2t2.5 5t-2.5 5t-5.5 2h-30v44h94q10 0 16.5 7t6.5 17v94q0 10 -6.5 17t-16.5 7zM237 110q0 -4 -2.5 -7t-6.5 -3h-200q-4 0 -6.5 3t-2.5 7v94 q0 4 2.5 7t6.5 3h200q4 0 6.5 -3t2.5 -7v-94zM181 186q-2 2 -5 2t-5 -2t-2 -5t2 -5l17 -17l-17 -17q-2 -2 -2 -5t2 -5t5 -2t5 2l21 21q2 2 2 5.5t-2 6.5zM68 157l17 17q2 2 2 5t-2 5t-5 2t-5 -2l-21 -21q-2 -2 -2 -5.5t2 -6.5l21 -21q2 -2 5 -2t5 2t2 5t-2 5zM140 188 q-3 1 -5.5 -0.5t-3.5 -3.5l-19 -48q-1 -3 0 -5.5t4 -4.5h2q3 0 4.5 1t2.5 3l19 48q1 3 0 5.5t-4 4.5z" />
</svg>