<svg viewBox="0 0 256 256" xmlns="http://www.w3.org/2000/svg">
  <path transform="scale(1, -1) translate(0, -256)" fill="currentColor" d="M226 198l-86 50q-5 3 -11.5 3t-12.5 -3l-86 -50q-5 -3 -8.5 -8.5t-3.5 -11.5v-100q0 -6 3 -11.5t9 -8.5l86 -50q6 -3 12 -3t12 3l86 50q5 3 8.5 9t3.5 12v99q0 6 -3.5 11.5t-8.5 8.5zM224 78q0 -5 -5 -8l-86 -50q-5 -2 -10 0l-86 50q-5 2 -5 9v99q0 5 5 8l86 50 q3 1 5.5 1t4.5 -1l86 -50q5 -2 5 -9v-99zM95 161q-2 2 -5 2t-5 -2l-25 -28q-2 -2 -2 -5t2 -4l25 -28q2 -3 5 -3t5 2t2 5t-2 5l-20 23l21 23q1 2 1 5t-2 5zM171 160q-2 3 -5 3t-5 -2t-2 -5t2 -5l21 -23l-21 -24q-2 -2 -2 -5t2 -4.5t5 -1.5t5 2l25 28q2 2 2 5t-2 4zM143 161 q-3 1 -5.5 0t-3.5 -3l-26 -55q-1 -2 0 -5t3 -4t3 -1q5 0 7 4l25 55q1 2 0 5t-3 4z" />
</svg>