<svg viewBox="0 0 1024 1024" xmlns="http://www.w3.org/2000/svg">
  <path transform="scale(1, -1) translate(0, -960)" fill="currentColor" d="M813 238q-3 12 1 24t13 21q43 43 70 94q26 51 36.5 105.5t4.5 111.5q-7 56 -31 110q-21 45 -52 83t-70 67t-83 47q-45 18 -94 24q-68 8 -131 -6q-64 -15 -117.5 -49t-94.5 -85q-40 -51 -62 -116v-1.5v-1.5l-19 -117l-94 -171q-5 -9 -5 -19t5 -20q4 -8 13 -13.5t19 -5.5 h35l27 -146q5 -28 28.5 -47.5t53.5 -19.5h108q18 0 31.5 -10.5t18.5 -27.5l10 -39q7 -27 29 -45.5t51 -18.5h248q18 0 34.5 8t27.5 21q12 15 16.5 32t1.5 35l-29 176v0zM800 18q-7 -9 -17.5 -13.5t-20.5 -4.5h-248q-18 0 -31.5 11t-18.5 27l-10 39q-7 27 -29 45.5t-51 18.5 h-108q-18 0 -32 11.5t-18 29.5l-29 159q-1 6 -5.5 9.5t-10.5 3.5h-48q-2 0 -3.5 1t-1.5 2t-0.5 2.5t0.5 3.5l96 175q2 1 2 2v2l19 119q19 59 56 105q37 47 86 77.5t107 43.5q58 14 121 6q44 -6 85 -22q41 -17 76.5 -43.5t63.5 -61.5t47 -76q22 -50 28 -101q6 -52 -3.5 -102 t-34.5 -97q-25 -46 -64 -86q-14 -14 -20 -33.5t-2 -38.5l30 -174q3 -10 -0.5 -21t-10.5 -19v0zM448 634q-5 4 -11.5 3.5t-10.5 -5.5l-98 -109q-4 -5 -4 -11t4 -10l98 -108q2 -3 5 -4t6 -1q2 0 5.5 1t5.5 4q5 4 5 10.5t-3 11.5l-88 98l88 97q3 5 3 11.5t-5 11.5zM798 523 l-97 109q-5 5 -11.5 5t-11.5 -3q-4 -5 -4.5 -11.5t3.5 -11.5l88 -97l-88 -98q-5 -5 -4 -11.5t5 -10.5q3 -3 5.5 -4t6.5 -1q3 0 5.5 1t5.5 4l97 108q4 5 4 10.5t-4 10.5v0zM590 632q-6 1 -12 -2t-7 -9l-56 -213q-1 -6 2 -12t9 -7h3h2q5 0 9.5 3t6.5 8l56 213q1 6 -2 11.5 t-11 7.5z" />
</svg>