<svg viewBox="0 0 1024 1024" xmlns="http://www.w3.org/2000/svg">
  <path transform="scale(1, -1) translate(0, -960)" fill="currentColor" d="M387 696q-5 5 -11 4t-11 -6l-93 -104q-4 -4 -4 -10.5t4 -9.5l93 -104q2 -3 5.5 -4t5.5 -1t5.5 1t5.5 4q5 4 5 10.5t-3 11.5l-83 93l83 93q3 4 3 10.5t-5 11.5zM762 590l-93 104q-5 5 -11.5 5.5t-11.5 -3.5q-4 -5 -4.5 -11.5t3.5 -10.5l83 -93l-83 -93q-5 -5 -4 -11.5 t5 -10.5q3 -3 5.5 -4t6.5 -1q3 0 5.5 1t5.5 4l93 104q3 4 3 10.5t-3 9.5v0zM566 693q-6 2 -12 0t-8 -8l-96 -202q-3 -6 -0.5 -12t8.5 -9q1 -1 3 -1h3q5 0 8.5 2.5t5.5 6.5l96 202q3 6 0.5 12t-8.5 9zM874 566q0 75 -29 141q-28 66 -77 115t-115 78q-66 28 -141 28t-141 -28 q-66 -29 -115 -78t-77 -115q-29 -66 -29 -141q0 -54 16 -104q15 -51 43 -93.5t67 -76.5t86 -55v-203q0 -28 19 -47t46 -19h178q27 0 46 19t19 47v208q45 21 83 55q37 33 64 75t42 92q15 49 15 102v0zM638 218v-184q0 -15 -9.5 -24.5t-23.5 -9.5h-178q-14 0 -23.5 9.5 t-9.5 24.5v184h24q22 -8 46 -10.5t48 -2.5t48 3.5t46 9.5h32v0zM512 237q-68 0 -128 26q-60 25 -105 70t-71 105t-26 128q0 69 26 129t70.5 104.5t105.5 70.5q60 26 128 26t128 -26t105 -70.5t71 -104.5t26 -129q0 -68 -26 -128t-70.5 -105t-105.5 -70q-60 -26 -128 -26z " />
</svg>