<svg viewBox="0 0 1024 1024" xmlns="http://www.w3.org/2000/svg">
  <path transform="scale(1, -1) translate(0, -960)" fill="currentColor" d="M898 718l-344 199q-20 11 -42 11t-42 -11l-344 -199q-19 -10 -30 -30t-11 -42v-396q0 -23 11 -42.5t30 -29.5l344 -199q10 -6 20.5 -8.5t21.5 -2.5t21.5 2.5t20.5 8.5l344 199q19 10 30 30t11 42v396q0 22 -11 42t-30 30v0zM907 250q0 -15 -6.5 -26.5t-18.5 -18.5v0 l-344 -199q-12 -7 -26 -7t-26 7l-344 199q-12 7 -18.5 18.5t-6.5 26.5v396q0 15 6.5 26.5t18.5 18.5l344 199q6 3 12.5 4.5t13.5 1.5t13.5 -1.5t12.5 -4.5l344 -199q12 -7 18.5 -19t6.5 -26v-396zM371 571q-5 5 -11 4t-11 -5l-99 -112q-4 -5 -4 -11.5t4 -9.5l99 -112 q2 -3 5.5 -4t5.5 -1t5.5 1t5.5 4q5 5 5 11t-3 11l-90 101l90 101q5 5 4 11t-6 11v0zM675 570q-5 4 -11 4.5t-11 -3.5q-5 -5 -5 -11t3 -11l90 -101l-90 -101q-5 -5 -4 -11t6 -11q2 -3 4.5 -4t6.5 -1t6.5 1t4.5 4l99 112q4 5 4 11t-4 10l-99 112v0zM566 568q-6 2 -12 0t-8 -8 l-103 -218q-2 -6 0 -12t8 -8q1 -2 3 -2h4q4 0 8 2.5t6 7.5l102 217q3 6 0 12.5t-8 8.5z" />
</svg>