<svg viewBox="0 0 256 256" xmlns="http://www.w3.org/2000/svg">
  <path transform="scale(1, -1) translate(0, -256)" fill="currentColor" d="M99 192q-2 2 -5 2t-5 -2l-23 -26q-2 -2 -2 -5t2 -5l23 -26q2 -2 5 -2t5 1.5t2 4.5t-2 6l-19 21l19 21q2 2 2 5t-2 5zM192 166l-23 26q-2 2 -5 2t-5 -2t-2 -5t2 -5l19 -21l-19 -21q-2 -2 -1.5 -5t2 -5t5 -2t5.5 3l23 26q1 2 1 4.5t-2 4.5zM143 192q-3 1 -5.5 0t-3.5 -3 l-24 -51q-2 -2 -1 -5t3 -4t4 -1q4 0 6 4l24 51q2 2 0.5 5t-3.5 4zM222 158q0 25 -13 46.5t-34.5 34t-46.5 12.5t-46.5 -12.5t-34.5 -34t-13 -48t14.5 -49t38.5 -33.5v-49q0 -8 6 -13.5t13 -5.5h45q8 0 13.5 5.5t5.5 13.5v49q23 12 37.5 34.5t14.5 49.5zM156 67v-43 q0 -2 -1.5 -3.5t-3.5 -1.5h-44q-2 0 -3.5 1.5t-1.5 3.5v43h2q12 -3 24 -3t24 3h4zM128 78q-22 0 -40 10.5t-29 29t-11 40t11 40t29 29t40 10.5t40 -10.5t29 -29t11 -40t-11 -40t-29 -29t-40 -10.5z" />
</svg>