<svg viewBox="0 0 256 256" xmlns="http://www.w3.org/2000/svg">
  <path transform="scale(1, -1) translate(0, -256)" fill="currentColor" d="M206 76q-1 5 3 8q22 23 27.5 52t-6.5 57q-11 24 -31.5 39t-46.5 18q-35 5 -64 -13.5t-40 -52.5l-5 -30l-23 -42q-3 -6 0.5 -12t10.5 -6h7l6 -34q1 -9 8 -14.5t15 -5.5h27q4 0 6.5 -2t3.5 -5l2 -9q2 -8 8.5 -13t14.5 -5h62q5 0 9.5 2t8.5 6q7 8 5 19zM198 22q-4 -3 -7 -3 h-63q-3 0 -5.5 2t-3.5 5l-2 10q-2 8 -8.5 13t-14.5 5h-27q-4 0 -6.5 2t-3.5 6l-7 40q-1 2 -2.5 3.5t-4.5 1.5h-10l23 42l1 2l5 29q9 29 34 44.5t55 11.5q21 -2 38.5 -15.5t26.5 -33.5q11 -24 6 -48.5t-24 -44.5q-8 -8 -6 -20l8 -44q1 -4 -2 -8zM114 177q-2 2 -5 1.5t-5 -2.5 l-24 -27q-2 -2 -2 -5t2 -4l24 -28q2 -2 5 -2t5.5 1.5t2.5 5t-2 5.5l-20 22l20 22q2 3 1.5 6t-2.5 5zM202 149l-24 27q-2 2 -5 2t-5.5 -1.5t-2.5 -4.5t2 -6l20 -22l-20 -22q-2 -3 -1.5 -5.5t2 -4.5t5 -2t5.5 2l24 28q2 2 2 4.5t-2 4.5zM148 177q-2 1 -4.5 -0.5t-3.5 -4.5 l-14 -53q-1 -3 0.5 -5.5t4.5 -3.5h2q2 0 4 1.5t3 3.5l14 53q0 3 -1.5 5.5t-4.5 3.5z" />
</svg>