<svg viewBox="0 0 256 256" xmlns="http://www.w3.org/2000/svg">
  <path transform="scale(1, -1) translate(0, -256)" fill="currentColor" d="M221 251h-143q-11 0 -18 -7t-7 -17v-19q0 -9 5 -15t13 -9v-16q0 -3 2 -5t5 -2t5 2t2 5v15h82q4 0 7.5 -3t3.5 -7v-90q0 -4 -3.5 -7t-7.5 -3h-65q9 6 13.5 15.5t4.5 20.5q0 3 -2 5t-5 2h-78q-3 0 -5 -2t-2 -5q0 -11 4.5 -20.5t12.5 -15.5h-10q-10 0 -17 -7t-7 -18v-19 q0 -10 7 -17t17 -7h185q11 0 18 7t7 17v198q0 10 -7 17t-17 7zM105 102q-3 -11 -11.5 -18t-20 -7t-20 7t-11.5 18h63zM231 29q0 -4 -3 -7t-7 -3h-186q-4 0 -7 3t-3 7v19q0 5 3 8t7 3h131q11 0 18 7t7 17v90q0 10 -7 17t-18 7h-88q-5 0 -8 3t-3 8v19q0 4 3 7t8 3h142 q5 0 8 -3t3 -7v-198z" />
</svg>