<svg viewBox="0 0 256 256" xmlns="http://www.w3.org/2000/svg">
  <path transform="scale(1, -1) translate(0, -256)" fill="currentColor" d="M198 60q17 0 28.5 12t11.5 28.5t-11.5 28t-28.5 11.5h-161q-3 0 -5 -2.5t-2 -5.5v-20v-2l34 -91h-39q-3 0 -5 -2t-2 -5t2 -5.5t5 -2.5h185q3 0 5.5 2.5t2.5 5.5t-2.5 5t-5.5 2h-39l15 41h12zM224 100q0 -10 -7.5 -18t-18.5 -8h-7l13 35v3v13q9 -3 14.5 -9.5t5.5 -15.5z M79 19l-35 94v12h147v-13l-35 -93h-77zM88 163q2 -3 5 -3t5 2t2 5t-2 5q-7 10 -1 16q15 14 12 34q-1 15 -11 26q-1 3 -4 3t-5.5 -1.5t-3 -4.5t1.5 -5l1 -1q5 -8 6 -16q4 -15 -7 -26q-7 -8 -6 -19q2 -9 7 -15zM140 163q2 -3 5 -3t5 2t2.5 5t-1.5 5q-7 10 -1 16q14 14 12 34 q-2 15 -11 26q-2 3 -5 3t-5.5 -1.5t-2.5 -4.5t2 -5v-1q5 -8 7 -16q3 -15 -7 -26q-8 -8 -6 -19q1 -9 6 -15z" />
</svg>