<svg viewBox="0 0 1024 1024" xmlns="http://www.w3.org/2000/svg">
  <path transform="scale(1, -1) translate(0, -960)" fill="currentColor" d="M880 531q-24 0 -46 -10t-37 -28v89q0 12 -7.5 20t-19.5 8h-688q-12 0 -20 -8t-8 -20v-209q0 -69 26 -129t70.5 -104.5t105.5 -70.5q60 -26 128 -26h82q57 0 109 19t94.5 52t72.5 78q30 46 44 99q15 -23 39.5 -37t52.5 -14q23 0 44.5 9t37.5 25q16 15 23 35t6 41v69 q2 46 -30.5 79t-78.5 33v0zM766 373q0 -61 -23 -116q-24 -54 -64.5 -94.5t-95.5 -63.5q-54 -24 -116 -24h-81q-62 0 -116 24q-54 23 -94.5 63.5t-63.5 94.5q-24 54 -24 116v205h678v-205zM939 296q-11 -12 -26.5 -18t-32.5 -6q-32 0 -56 24t-24 56v69q0 32 24 56t56 24 t56 -24t24 -56v-69q0 -17 -5 -31t-16 -25zM806 22h-758q-7 0 -11.5 -4t-4.5 -12q0 -7 4.5 -11.5t11.5 -4.5h758q8 0 12 4.5t4 11.5q0 8 -4 12t-12 4zM210 726q7 0 11.5 4.5t4.5 11.5v148q0 7 -4.5 11.5t-11.5 4.5q-8 0 -12 -4.5t-4 -11.5v-148q0 -6 5 -11t11 -5zM427 726 q7 0 11.5 4.5t4.5 11.5v148q0 7 -4.5 11.5t-11.5 4.5t-11.5 -4.5t-4.5 -11.5v-148q0 -6 4.5 -11t11.5 -5zM645 726q7 0 11.5 4.5t4.5 11.5v148q0 7 -4.5 11.5t-11.5 4.5t-11.5 -4.5t-4.5 -11.5v-148q0 -6 4.5 -11t11.5 -5z" />
</svg>