<svg viewBox="0 0 1024 1024" xmlns="http://www.w3.org/2000/svg">
  <path transform="scale(1, -1) translate(0, -960)" fill="currentColor" d="M883 928h-573q-34 0 -59 -25t-25 -60v-77q0 -31 20 -54.5t50 -28.5v-75q0 -7 4.5 -11.5t11.5 -4.5t11.5 4.5t4.5 11.5v72h339q22 0 37.5 -15.5t15.5 -37.5v-358q0 -22 -15.5 -37.5t-37.5 -15.5h-301q45 20 73 62t28 93q0 7 -4.5 11.5t-11.5 4.5h-312q-7 0 -11.5 -4.5 t-4.5 -11.5q0 -51 28.5 -93t72.5 -62h-83q-35 0 -60 -25t-25 -60v-77q0 -34 25 -59t60 -25h741q34 0 59 25t25 59v789q2 35 -23 60t-60 25v0zM155 355h279q-6 -53 -46 -88t-94 -35t-93.5 36t-45.5 87zM936 53q0 -22 -15.5 -37.5t-37.5 -15.5h-742q-22 0 -37.5 15.5 t-15.5 37.5v77q0 21 15.5 36.5t37.5 15.5h525q34 0 59 25t25 60v360q0 35 -25 60t-59 25h-356q-21 0 -36.5 15.5t-15.5 37.5v78q0 22 15.5 37.5t36.5 15.5h572q21 0 36.5 -15.5t15.5 -37.5v-790h2z" />
</svg>