<svg viewBox="0 0 1024 1024" xmlns="http://www.w3.org/2000/svg">
  <path transform="scale(1, -1) translate(0, -960)" fill="currentColor" d="M794 189q60 0 102.5 42.5t42.5 102.5t-42.5 103t-102.5 43h-647q-7 0 -11.5 -4.5t-4.5 -11.5v-80q0 -1 0.5 -2.5t1.5 -2.5l141 -379h-175q-7 0 -11.5 -4.5t-4.5 -11.5t4.5 -11.5t11.5 -4.5h743q7 0 11.5 4.5t4.5 11.5t-4.5 11.5t-11.5 4.5h-176l70 189h58zM909 336 q0 -47 -33.5 -80.5t-80.5 -33.5h-45l58 156q0 1 1 2t1 2v66q40 -5 69.5 -37t29.5 -75v0zM307 0l-144 387v63h613v-64l-144 -386h-325zM362 594q2 -3 5.5 -5t6.5 -2t6 1t4 2q5 5 5.5 11.5t-3.5 11.5q-3 3 -16 28.5t12 49.5q60 60 45 127.5t-40 99.5q-3 5 -10 6t-12 -2 q-5 -4 -6 -11t3 -12q20 -26 33 -81.5t-35 -103.5q-32 -30 -23 -65.5t25 -54.5v0zM571 594q3 -3 6 -5t7 -2q2 0 5 1t5 2q4 5 5 11.5t-4 11.5q-2 5 -14.5 30.5t11.5 50.5q60 60 45 127.5t-40 100.5q-4 4 -11 5t-12 -2q-4 -4 -5 -11t2 -12q21 -26 34 -81.5t-35 -103.5 q-33 -33 -23.5 -68.5t24.5 -54.5v0z" />
</svg>