<svg viewBox="0 0 256 256" xmlns="http://www.w3.org/2000/svg">
  <path transform="scale(1, -1) translate(0, -256)" fill="currentColor" d="M128 177q-20 0 -34.5 -14.5t-14.5 -34.5t14.5 -34.5t35 -14.5t35 14.5t14 34.5t-15 34.5t-34.5 14.5zM128 93q-14 0 -24.5 10t-10.5 25t10.5 25t25 10t25 -10t10 -25t-10.5 -25t-25 -10zM246 100l-25 14q1 8 1 15.5t-1 14.5l25 14q4 2 5 5.5t-1 6.5l-24 41q-1 3 -4.5 4 t-7.5 0l-26 -15l-5 4q-8 8 -15 11q-2 0 -2 3v16q0 7 -5 12t-12 5h-42q-7 0 -12 -5t-5 -12v-16q0 -2 -2 -4q-7 -3 -16 -10l-4 -4l-23 13q-5 3 -9 2t-6 -5l-23 -39q-2 -4 -1 -8t5 -5l25 -14q-2 -7 -2 -15l1 -15l-25 -14q-4 -2 -5 -5.5t1 -6.5l23 -41q2 -3 5.5 -4t7.5 0l26 15 l5 -5q8 -7 14 -9q2 -1 2 -4v-17q0 -7 5.5 -12.5t12.5 -5.5h42q7 0 12 5.5t5 12.5v18q0 2 2 3q6 3 14 10l6 5l23 -13q5 -3 9 -2t6 4l23 39q2 4 1.5 7.5t-4.5 5.5zM216 58l-22 13q-3 2 -7 1.5t-7 -2.5l-8 -7q-6 -5 -10 -6.5t-6.5 -6t-2.5 -9.5v-18q0 -2 -1 -3t-3 -1h-42 q-1 0 -2 1t-1 3v17q0 5 -3 9.5t-8 6.5t-11 8l-6 5q-3 3 -7.5 3t-6.5 -2l-22 -12l-19 32l21 12q4 2 6 6t1 8l-1 13q0 5 1 12q1 5 -1 9t-6 6l-21 12l19 32l22 -13q4 -2 8 -1.5t7 2.5l6 6q7 5 11 7t7 6.5t3 9.5v16q0 1 1 2t2 1h42q2 0 3 -1t1 -2v-16q0 -5 2.5 -9t7 -6t11.5 -9 l6 -4q3 -3 7 -3t8 2l22 12l19 -32l-22 -12q-4 -2 -5.5 -6t-1 -8t0.5 -13q0 -6 -1 -11.5t1 -9.5t6 -6l21 -12z" />
</svg>