<svg viewBox="0 0 1024 1024" xmlns="http://www.w3.org/2000/svg">
  <path transform="scale(1, -1) translate(0, -960)" fill="currentColor" d="M688 394q-50 0 -85 -36t-35 -86t35.5 -86t84.5 -36t84.5 36t35.5 86t-35 86t-85 36zM688 184q-37 0 -62.5 26t-25.5 64q0 37 26 63t62 26t62 -26t26 -63q0 -38 -25.5 -64t-62.5 -26zM979 203l-62 34v0.5v0.5q1 10 2 19.5t1 17.5q0 10 -1 19.5t-2 17.5v1.5v0.5l62 35 q7 5 10 12.5t0 16.5l-58 102q-5 7 -12.5 9.5t-16.5 0.5l-65 -37q-4 2 -6.5 5.5t-6.5 5.5q-8 7 -16.5 13.5t-20.5 12.5q-2 1 -4 3.5t-2 5.5v39q0 18 -12.5 29.5t-29.5 11.5h-104q-18 0 -29.5 -12.5t-11.5 -28.5v-42q0 -2 -1.5 -5t-5.5 -5q-11 -6 -19.5 -12t-17.5 -13 q-2 -3 -5 -5t-6 -5l-59 32q-13 7 -22.5 4t-12.5 -10l-58 -98q-2 -3 -3 -8t0 -9q1 -5 3.5 -8.5t7.5 -6.5l63 -33v-1v-1q-2 -8 -3 -17t-1 -20q0 -9 0.5 -18t1.5 -19v-0.5v-0.5l-62 -35q-8 -5 -11 -13t1 -16l59 -101q5 -7 13 -9.5t16 -0.5l66 37q3 -2 6 -4.5t6 -4.5 q9 -8 17.5 -14.5t19.5 -11.5q3 -1 5 -3.5t2 -6.5v-44q0 -18 12 -30t29 -12h104q18 0 30 12.5t12 29.5v46q0 2 1.5 5t4.5 5q11 4 19 11t18 14q2 3 5.5 5t5.5 5l59 -34q14 -7 23 -4t13 11l57 97q3 4 3 8.5t-1 9.5q0 5 -2.5 8.5t-7.5 5.5v0zM907 98l-56 30q-8 5 -18 4t-17 -7 q-4 -3 -7 -6t-6 -5q-7 -8 -13.5 -13t-15.5 -8q-10 -5 -17 -16t-7 -23v-46q0 -5 -3 -7.5t-6 -2.5h-104q-5 0 -7.5 3t-2.5 7v45q0 12 -6.5 22t-17.5 16q-8 4 -15 9.5t-15 11.5q-3 2 -6 5t-7 6q-5 4 -9.5 5.5t-9.5 1.5q-4 0 -8.5 -1.5t-7.5 -3.5l-58 -29l-48 82l55 30 q8 5 13 14t3 20q-2 8 -2 15.5v16.5v16t2 16q2 10 -3 20t-13 15l-55 29l48 81l56 -30q9 -5 18.5 -4t16.5 7q4 2 7 4.5t6 5.5q9 7 15.5 12t15.5 10q10 5 17 15.5t7 22.5v40q0 5 3 7.5t6 2.5h104q5 0 7.5 -3t2.5 -7v-38q0 -12 6.5 -22t17.5 -16q8 -4 14.5 -9.5t14.5 -11.5l6 -6 t6 -5q8 -6 17.5 -7t18.5 3l56 31l48 -82l-55 -30q-9 -5 -13.5 -15t-2.5 -20q1 -8 1.5 -15.5t0.5 -16.5q0 -8 -1 -16l-2 -16q-2 -11 2.5 -21t13.5 -15l52 -28l-43 -80v0zM245 790q-31 0 -53 -22t-22 -53t22 -53t53 -22t53 22t22 53t-22 53t-53 22zM245 670q-18 0 -30.5 13 t-12.5 31t12.5 30.5t30.5 12.5t30.5 -12.5t12.5 -30.5q0 -17 -12.5 -30.5t-30.5 -13.5zM414 576l40 67q3 4 3 8.5t-1 7.5q-1 4 -3.5 7.5t-6.5 5.5l-40 21q2 6 2 12v12v12t-2 12l40 22q8 4 10 11.5t-2 14.5l-38 69q-4 6 -11 8.5t-15 -0.5l-41 -24q-1 1 -2.5 2t-4.5 2 q-6 5 -11.5 9.5t-13.5 8.5l-1 1l-1 1v27q0 14 -10.5 24.5t-24.5 10.5h-72q-13 0 -22.5 -10t-9.5 -24v-27v-0.5t-2 -0.5q-8 -4 -14.5 -9t-12.5 -11l-2 -2t-3 -2l-36 20q-11 6 -19 3.5t-12 -9.5l-38 -67q-3 -4 -3 -8.5t1 -7.5q1 -4 3.5 -7.5t6.5 -5.5l40 -22q-1 -5 -1.5 -11 t-0.5 -13q0 -6 0.5 -12t1.5 -11l-40 -22q-7 -4 -9.5 -11.5t1.5 -14.5l37 -67q3 -6 10.5 -9t14.5 1l42 24q1 -1 2 -2.5t3 -2.5q6 -5 12 -9.5t15 -9.5l0.5 -1l0.5 -1v-30q0 -14 10 -24t24 -10h72q14 0 24 10.5t10 23.5v30v1t1 1q9 4 14.5 8.5t11.5 9.5l2 2t3 2l36 -20 q12 -5 20.5 -2.5t11.5 8.5v0zM330 619q-3 -2 -5.5 -3.5t-4.5 -4.5q-5 -5 -9.5 -8t-9.5 -6q-9 -5 -14 -13t-5 -18v-30q0 -1 -1 -1.5l-1 -0.5h-72q-1 0 -1.5 1l-0.5 1v30q0 10 -5 18.5t-14 12.5q-5 2 -9.5 5.5t-9.5 8.5q-2 1 -4.5 3.5t-5.5 4.5q-3 3 -7.5 5t-8.5 2 q-3 0 -6.5 -1t-5.5 -3l-34 -20l-27 48l32 17q7 4 11 11.5t3 17.5q-1 5 -1 10.5v10.5v11t1 10q1 8 -2.5 16.5t-11.5 11.5l-32 18l27 46l34 -19q7 -3 15.5 -2t14.5 5q2 3 4.5 4.5t3.5 2.5q6 6 10.5 9l10.5 7q8 3 13.5 12t5.5 18v27v1t2 1h72q1 0 1 -1v-1v-27q0 -9 5.5 -18 t13.5 -12q5 -3 9.5 -6l10.5 -7q2 -2 4.5 -4t4.5 -4q6 -5 14.5 -6t16.5 3l32 19l27 -48l-32 -18q-7 -4 -11.5 -12t-3.5 -16q2 -5 2 -10v-11v-10.5t-2 -10.5q-1 -8 2.5 -16.5t12.5 -12.5l32 -17l-27 -47l-34 19q-7 4 -15.5 3t-14.5 -6z" />
</svg>