<svg viewBox="0 0 256 256" xmlns="http://www.w3.org/2000/svg">
  <path transform="scale(1, -1) translate(0, -256)" fill="currentColor" d="M172 118q-14 0 -23.5 -10t-9.5 -23.5t9.5 -23.5t23.5 -10t23.5 10t9.5 23.5t-9.5 23.5t-23.5 10zM172 65q-8 0 -13.5 5.5t-5.5 13.5t5.5 13.5t13.5 5.5t13.5 -5.5t5.5 -13.5t-5.5 -13.5t-13.5 -5.5zM246 70l-13 7v8v8l14 8q3 2 4 5t-1 6l-15 26q-2 2 -5 3t-6 0l-14 -8 l-2 1q-6 5 -10 7v9q0 6 -3.5 10t-9.5 4h-26q-6 0 -10 -4t-4 -10v-9q-4 -2 -9 -7l-2 -1l-12 7q-5 2 -8.5 1t-4.5 -4l-15 -24q-2 -3 -0.5 -6.5t4.5 -5.5l14 -8l-1 -8l1 -7l-15 -8q-3 -2 -4 -5t1 -6l15 -26q2 -3 5 -4t6 1l14 8l2 -1q5 -5 9 -7v-11q0 -6 4 -9.5t10 -3.5h26 q5 0 9 4t4 9v11q3 2 7 5l5 3l12 -7q5 -2 8 -1t5 4l15 24q2 3 1 6.5t-5 5.5zM226 44l-12 7q-3 2 -6 1.5t-6 -2.5l-3 -3q-4 -4 -7.5 -5.5t-5.5 -4.5t-2 -7v-11h-25v11q0 3 -2 6.5t-5 5t-7 5.5l-3 3q-3 2 -6.5 2t-6.5 -2l-11 -6l-10 15l11 6q3 2 4.5 5t1.5 7l-1 7l1 8 q0 3 -1.5 6.5t-4.5 5.5l-11 6l9 15l11 -7q3 -1 6.5 -1t6.5 3l4 3q4 3 6.5 4.5t4.5 5t2 7.5v9h26v-9q0 -4 2 -7.5t5 -4.5l11 -8q2 -2 5.5 -2.5t6.5 1.5l11 7l9 -16l-10 -6q-3 -1 -5 -4.5t-1 -7.5v-7v-7q-1 -4 0.5 -7.5t4.5 -4.5l11 -6zM61 216q-9 0 -15 -6.5t-6 -15.5 t6 -15.5t15 -6.5t15.5 6.5t6.5 16t-6.5 15.5t-15.5 6zM61 187q-3 0 -5 2t-2 5.5t2 6t5 2.5t5.5 -2.5t2.5 -5.5t-2 -5.5t-6 -2.5zM106 158l10 17q2 3 1 6.5t-4 4.5l-8 5l1 9l8 4q3 2 3.5 5t-0.5 6l-11 17q-1 2 -4 3t-6 0l-9 -5l-5 4v5q0 5 -3.5 8.5t-8.5 3.5h-18 q-5 0 -8.5 -3.5t-3.5 -8.5v-5l-5 -4l-7 4q-4 2 -7 1t-5 -3l-10 -17q-1 -3 0 -6.5t4 -4.5l8 -5v-8l-9 -5q-3 -2 -4 -4.5t1 -5.5l10 -18q1 -2 4 -3t6 0l9 5l6 -4v-6q0 -5 3.5 -8.5t7.5 -3.5h18q5 0 8.5 3.5t3.5 8.5v6l6 4l7 -4q3 -2 6.5 -1t4.5 3zM80 173q0 -1 -1 -1l-1 -1 q-2 -2 -4 -3q-6 -3 -6 -10v-6h-13v6q0 7 -7 10l-6 5q-6 4 -11 1l-6 -3l-4 7l6 2q3 2 4 4.5t1 5.5l-1 5l1 5q1 6 -5 10l-5 3l4 7l6 -4q5 -3 10 1l2 2q2 2 5 3q6 4 6 11v4h13v-4q0 -7 6 -11l7 -4q5 -4 11 -1l5 3l4 -7l-5 -3q-3 -1 -4.5 -4t-0.5 -6v-5v-5q-1 -3 0.5 -6t4.5 -4 l5 -3l-4 -6l-6 3q-2 2 -5 1.5t-6 -2.5z" />
</svg>