<svg viewBox="0 0 1024 1024" xmlns="http://www.w3.org/2000/svg">
  <path transform="scale(1, -1) translate(0, -960)" fill="currentColor" d="M576 464h-118q-35 0 -60 24t-25 56q0 34 25 57t60 23h171q7 0 11.5 4.5t4.5 11.5t-4.5 11.5t-11.5 4.5h-101v61q0 7 -4.5 11.5t-11.5 4.5t-11.5 -4.5t-4.5 -11.5v-61h-38q-48 0 -82.5 -33t-34.5 -79t34.5 -79t82.5 -33h118q35 0 60 -24t25 -56q0 -34 -25 -57t-60 -23 h-179q-7 0 -11.5 -4.5t-4.5 -11.5t4.5 -11.5t11.5 -4.5h99v-61q0 -7 4.5 -11.5t11.5 -4.5t11.5 4.5t4.5 11.5v61h48q48 0 82.5 33t34.5 79t-34.5 79t-82.5 33zM512 928q-99 0 -186 -38q-88 -38 -153 -103t-103 -153q-38 -87 -38 -186t38 -186q38 -88 103 -153t153 -103 q87 -38 186 -38t186 38q88 38 153 103t103 153q38 87 38 186t-38 186q-38 88 -103 153t-153 103q-87 38 -186 38zM512 0q-92 0 -174 35q-81 36 -142 97t-97 142q-35 82 -35 174t35 174q36 81 96.5 142t142.5 97q82 35 174 35t174 -35q81 -36 142 -96.5t97 -142.5 q35 -82 35 -174t-35 -174q-36 -81 -96.5 -142t-142.5 -97q-82 -35 -174 -35z" />
</svg>