<svg viewBox="0 0 256 256" xmlns="http://www.w3.org/2000/svg">
  <path transform="scale(1, -1) translate(0, -256)" fill="currentColor" d="M122 126h-19q-4 0 -7 2.5t-3 7t3 7.5t7 3h35q3 0 5 2t2 5t-2 5t-5 2h-10v7q0 3 -2 5t-5 2t-5 -2t-2 -5v-7h-11q-10 0 -17.5 -7t-7.5 -17t7.5 -17t17.5 -7h19q4 0 7 -3t3 -7t-3 -7t-7 -3h-36q-3 0 -5 -2t-2 -5t2 -5t5 -2h28v-9q0 -3 2.5 -5t5.5 -2t5 2t2 5v9q8 3 13 9 t5 15.5t-7 16.5t-18 7zM143 241q-21 0 -40.5 -8t-34.5 -23q-3 -2 -2 -6q-25 -12 -39.5 -35t-14.5 -50t13.5 -49t36.5 -35t51 -13q34 0 62 20v-2q2 -5 7 -5l2 1q31 12 49 39t18 59q0 29 -14.5 53.5t-39.5 39t-54 14.5zM26 119q0 22 11.5 41t31.5 30.5t43.5 11.5t43.5 -11.5 t32 -30.5t12 -41.5t-12 -41.5t-32 -30t-43.5 -11t-43.5 11t-31.5 30t-11.5 42zM186 52q13 13 20.5 30.5t7.5 36.5q0 26 -13.5 48.5t-36.5 35.5t-51 13q-10 0 -18 -2q23 13 48.5 13t47 -12.5t34 -33.5t12.5 -47t-14 -48.5t-37 -33.5z" />
</svg>