<svg viewBox="0 0 1024 1024" xmlns="http://www.w3.org/2000/svg">
  <path transform="scale(1, -1) translate(0, -960)" fill="currentColor" d="M490 426h-77q-22 0 -37.5 15.5t-15.5 36.5q0 22 15.5 37.5t37.5 15.5h72v0v0v0v0h64q7 0 11.5 4.5t4.5 11.5t-4.5 11.5t-11.5 4.5h-48v42q0 7 -4.5 11.5t-11.5 4.5t-11.5 -4.5t-4.5 -11.5v-42h-58q-35 0 -60 -25t-25 -60q0 -34 25 -59t60 -25h77q22 0 37.5 -16t15.5 -37 q0 -22 -15.5 -37.5t-37.5 -15.5h-144q-7 0 -11.5 -4.5t-4.5 -11.5t4.5 -11.5t11.5 -4.5h125v-46q0 -8 4.5 -12t11.5 -4t11.5 4t4.5 12v48q31 4 51.5 28t20.5 55q2 35 -22.5 60t-60.5 25v0zM573 888q-42 0 -82 -8q-40 -7 -77.5 -22t-71.5 -37q-34 -23 -64 -51q-2 -3 -3 -6.5 t-1 -6.5q-51 -25 -92 -62q-42 -37 -71.5 -82.5t-46.5 -98.5q-16 -53 -16 -111q0 -81 32 -153q33 -72 88.5 -126t130.5 -85t160 -31q73 0 138 23t118 63l6 -4t7 -2h3t3 2q59 24 107 63q47 39 81 89t52 108q18 59 18 122q0 86 -33 162t-90 132.5t-134 88.5q-76 33 -162 33z M80 403q0 75 30 141t81 115.5t121 78.5q69 28 147 28q79 0 148 -28q69 -29 120.5 -78.5t81.5 -115.5q29 -66 29 -141t-29 -141q-30 -66 -81.5 -115.5t-120.5 -77.5q-69 -29 -148 -29q-78 0 -147 29q-70 28 -121 77.5t-81 115.5t-30 141zM768 142q48 52 75 119t27 142 q0 82 -32 154t-88 125.5t-131 84.5t-160 31q-30 0 -59.5 -4t-57.5 -12q50 36 108.5 56t122.5 20q80 -1 150 -31q71 -31 123.5 -83t82.5 -122q31 -69 31 -148q0 -52 -13 -101q-14 -48 -38.5 -91t-60.5 -78q-36 -36 -80 -62v0z" />
</svg>