<svg viewBox="0 0 256 256" xmlns="http://www.w3.org/2000/svg">
  <path transform="scale(1, -1) translate(0, -256)" fill="currentColor" d="M198 170q23 0 38 9t15 22.5t-15 22t-38.5 8.5t-38.5 -9t-15 -22.5t15 -22t39 -8.5zM198 218q17 0 28 -5.5t11 -12t-11 -11.5t-28 -5t-28.5 5t-11.5 11.5t11.5 12t28.5 5.5zM246 166q-3 1 -5.5 0t-3.5 -4q-3 -6 -13.5 -10t-26 -4t-26 4t-12.5 10q-1 2 -4 3t-5.5 0t-3.5 -4 t0 -5q5 -10 19 -16t32 -6t32 5q17 7 21 18q1 3 -0.5 5.5t-3.5 3.5zM246 130q-3 1 -5.5 -0.5t-3.5 -3.5q-3 -7 -13.5 -11t-26 -4t-26 4t-12.5 10q-1 3 -4 4t-5.5 -0.5t-3.5 -4t0 -5.5q5 -10 19 -16t32 -6t32 5q17 7 21 19q1 2 -0.5 5t-3.5 4zM246 93q-3 1 -5.5 0t-3.5 -4 q-3 -6 -13.5 -10t-26 -4t-26 4t-12.5 10q-1 3 -4 3.5t-5.5 -0.5t-3.5 -4t0 -5q5 -10 19 -16t32 -6t32 5q17 7 21 18q1 3 -0.5 5.5t-3.5 3.5zM246 57q-3 1 -5.5 -0.5t-3.5 -3.5q-3 -7 -13.5 -11t-26 -4t-26 4.5t-12.5 9.5q-1 3 -4 4t-5.5 -0.5t-3.5 -4t0 -5.5q5 -10 19 -16 t32 -6t32 6q17 6 21 18q1 3 -0.5 5.5t-3.5 3.5zM58 159q-23 0 -38 -8.5t-15 -22.5t15 -22.5t38.5 -8.5t38.5 8.5t15 22.5t-15 22.5t-39 8.5zM58 111q-17 0 -28 5t-11 12t11 12t28 5t28.5 -5t11.5 -12t-11.5 -12t-28.5 -5zM107 93q-3 1 -5.5 0t-3.5 -4q-3 -6 -13.5 -10 t-25.5 -4t-25.5 4t-13.5 10q-1 3 -4 3.5t-5.5 -0.5t-3.5 -4t1 -5q4 -10 18 -16t32 -6t32 5q17 7 21 18q1 3 -0.5 5.5t-3.5 3.5zM107 57q-3 1 -5.5 -0.5t-3.5 -3.5q-3 -7 -13.5 -11t-25.5 -4t-25.5 4.5t-13.5 9.5q-1 3 -4 4t-5.5 -0.5t-3.5 -4t1 -5.5q4 -10 18 -16t31.5 -6 t32.5 5q16 7 20 19q2 3 1 5.5t-4 3.5z" />
</svg>