<svg viewBox="0 0 256 256" xmlns="http://www.w3.org/2000/svg">
  <path transform="scale(1, -1) translate(0, -256)" fill="currentColor" d="M144 135h-30q-7 0 -12.5 5t-5.5 12t5.5 12t12.5 5h43q3 0 5 2t2 5t-2 5.5t-5 2.5h-22v12q0 3 -2 5t-5 2t-5 -2t-2 -5v-12h-7q-13 0 -22.5 -9.5t-9.5 -22.5t9.5 -22t22.5 -9h30q8 0 13 -5t5 -12t-5 -12t-13 -5h-45q-3 0 -5 -2t-2 -5t2 -5.5t5 -2.5h22v-12q0 -3 2 -5t5 -2 t5.5 2t2.5 5v12h8q13 0 22.5 9.5t9.5 22.5t-9.5 22t-22.5 9zM128 251q-33 0 -61.5 -16.5t-45 -45t-16.5 -61.5t16.5 -61.5t45 -45t61.5 -16.5t61.5 16.5t45 45t16.5 61.5t-16.5 61.5t-45 45t-61.5 16.5zM128 19q-29 0 -54 14.5t-40 39.5t-15 55t15 54.5t39.5 39.5t54.5 15 t55 -15t39.5 -40t14.5 -54.5t-14.5 -54.5t-39.5 -39.5t-55 -14.5z" />
</svg>