<svg viewBox="0 0 1024 1024" xmlns="http://www.w3.org/2000/svg">
  <path transform="scale(1, -1) translate(0, -960)" fill="currentColor" d="M790 627q88 0 145 31.5t57 80.5t-57 80.5t-145 31.5q-87 0 -144 -31.5t-57 -80.5t57 -80.5t144 -31.5zM790 819q72 0 121 -23t49 -57q0 -33 -49.5 -56.5t-120.5 -23.5q-70 0 -119.5 23.5t-49.5 56.5q0 34 48.5 57t120.5 23zM978 589q-6 2 -12.5 -1t-8.5 -9 q-5 -14 -20 -26t-39 -22q-23 -8 -51 -13.5t-58 -5.5q-60 0 -106.5 17.5t-60.5 44.5q-2 6 -8 8.5t-12 -0.5q-6 -2 -8.5 -8t0.5 -12q16 -38 69.5 -59t125.5 -21q33 0 64 5.5t57 14.5q30 12 50 29t27 39q3 6 0.5 12t-9.5 7v0zM978 443q-6 3 -12.5 0t-8.5 -9q-5 -15 -20 -27 t-39 -21q-23 -9 -51 -14.5t-58 -5.5q-60 0 -106.5 17.5t-60.5 45.5q-2 6 -8 8t-12 0q-6 -3 -8.5 -9t0.5 -12q16 -37 69.5 -58.5t125.5 -21.5q32 0 63.5 5.5t57.5 15.5q30 12 50 28.5t27 38.5q3 6 0.5 11.5t-9.5 7.5v0zM978 298q-6 2 -12.5 -1t-8.5 -9q-5 -14 -20 -26 t-39 -22q-23 -8 -51 -13.5t-58 -5.5q-60 0 -106.5 17.5t-60.5 44.5q-2 6 -8 8.5t-12 -0.5q-6 -2 -8.5 -8.5t0.5 -12.5q16 -37 69.5 -58.5t125.5 -21.5q33 0 64 6t57 15q30 12 50 29t27 38q3 5 0.5 11t-9.5 9v0zM978 152q-6 2 -12.5 -1t-8.5 -9q-5 -14 -20 -26t-39 -22 q-23 -8 -51 -13.5t-58 -5.5q-60 0 -106.5 17.5t-60.5 45.5q-2 6 -8 8t-12 0q-6 -3 -8.5 -9t0.5 -12q16 -37 69.5 -58.5t125.5 -21.5q33 0 64 5.5t57 15.5q30 12 50 28.5t27 38.5q3 5 0.5 11t-9.5 8v0zM234 560q-88 0 -145 -31.5t-57 -80.5t57 -80.5t145 -31.5q87 0 144 31.5 t57 80.5t-57 80.5t-144 31.5zM234 368q-71 0 -120.5 23t-49.5 57t49.5 57t120.5 23q72 0 120.5 -23t48.5 -57q1 -34 -48 -57t-121 -23zM422 298q-6 2 -12 -1t-8 -9q-5 -14 -20.5 -26t-39.5 -22q-22 -8 -50 -13.5t-58 -5.5q-60 0 -107 17.5t-60 44.5q-2 6 -8.5 8.5 t-12.5 -0.5q-6 -2 -8 -8.5t0 -12.5q17 -37 70.5 -58.5t125.5 -21.5q33 0 64 6t57 15q30 12 50 29t27 38q2 5 -1 11t-9 9v0zM422 152q-6 2 -12 -1t-8 -9q-5 -14 -20.5 -26t-39.5 -22q-22 -8 -50 -13.5t-58 -5.5q-60 0 -107 17.5t-60 45.5q-2 6 -8.5 8t-12.5 0q-6 -3 -8 -9 t0 -12q17 -37 70.5 -58.5t125.5 -21.5q33 0 64 5.5t57 15.5q30 12 50 28.5t27 38.5q2 5 -1 11t-9 8v0z" />
</svg>