<svg viewBox="0 0 1024 1024" xmlns="http://www.w3.org/2000/svg">
  <path transform="scale(1, -1) translate(0, -960)" fill="currentColor" d="M888 299h-338l328 328q15 15 23 34t8 40q0 20 -8 39.5t-23 33.5l-86 87q-30 30 -73.5 30t-73.5 -30l-282 -282v269q0 34 -23 57t-57 23h-171q-34 0 -57 -23t-23 -57v-800q0 -34 23 -57t57 -23h776q43 0 73.5 30.5t30.5 73.5v123q0 43 -30.5 73.5t-73.5 30.5zM667 838 q22 22 51.5 22t51.5 -22l86 -86q10 -10 15.5 -23.5t5.5 -27.5q0 -15 -5.5 -28t-15.5 -23l-350 -351h-143v234l304 305v0zM64 48v800q0 20 14 34t34 14h171q21 0 34.5 -14t13.5 -34v-848h-219q-20 0 -34 14t-14 34zM960 72q0 -30 -21 -51t-51 -21h-525v267h525q30 0 51 -21 t21 -51v-123z" />
</svg>