<svg viewBox="0 0 256 256" xmlns="http://www.w3.org/2000/svg">
  <path transform="scale(1, -1) translate(0, -256)" fill="currentColor" d="M222 94h-77l77 76q8 9 8 21t-8 20l-22 23q-8 8 -20 8t-21 -8l-65 -66v60q0 10 -7 16.5t-17 6.5h-42q-10 0 -16.5 -6.5t-6.5 -16.5v-200q0 -10 7 -16.5t16 -6.5h194q12 0 20.5 8.5t8.5 20.5v30q0 13 -8.5 21.5t-20.5 8.5zM169 224q5 4 11 4t10 -4l22 -22q4 -4 4 -10 t-4 -11l-87 -87h-31v54zM19 28v200q0 4 3 6.5t6 2.5h43q4 0 6.5 -2.5t2.5 -6.5v-209h-52q-4 0 -6.5 2.5t-2.5 6.5zM237 34q0 -6 -4.5 -10.5t-10.5 -4.5h-128v61h128q6 0 10.5 -4.5t4.5 -10.5v-31z" />
</svg>