<svg viewBox="0 0 256 256" xmlns="http://www.w3.org/2000/svg">
  <path transform="scale(1, -1) translate(0, -256)" fill="currentColor" d="M233 17l-93 94q8 13 4 34h18q3 0 5 2t2 5t-2 5t-5 2h-21q-2 8 -5 13l21 9q3 1 4 3.5t0 5.5t-4 4t-5 0l-23 -10l-7 10l18 18q2 2 2 4.5t-2 5t-5 2.5t-5 -2l-18 -18l-10 8l9 22q1 3 0 5.5t-3.5 4t-5 0t-4.5 -3.5l-8 -21l-14 5v20q0 3 -2 5t-5 2t-5 -2t-2 -5v-17 q-12 2 -22.5 -0.5t-16.5 -8.5l-1 -1q-2 -2 -2 -4.5t2 -4.5l201 -201q2 -2 5 -2t5 2t2 5t-2 5zM107 189q17 -17 23 -39l1 -4q2 -16 -1 -25l-91 91q12 4 31 -1q22 -6 37 -22z" />
</svg>