<svg viewBox="0 0 1024 1024" xmlns="http://www.w3.org/2000/svg">
  <path transform="scale(1, -1) translate(0, -960)" fill="currentColor" d="M987 -5l-264 264q18 22 27.5 48.5t9.5 55.5q0 33 -12.5 63t-35.5 52l-56 56l85 85q5 5 5 11.5t-5 11.5q-5 4 -11.5 4t-11.5 -4l-84 -85l-119 118l85 85q5 5 5 11.5t-5 10.5q-5 5 -11.5 5t-10.5 -5l-85 -84l-119 118l85 85q5 5 5 11t-5 11t-11 5t-11 -5l-85 -85 q-48 45 -114 44.5t-113 -47.5t-47.5 -113t44.5 -114l-85 -85q-5 -5 -5 -11t5 -11q2 -3 4.5 -4t6.5 -1t6.5 1t4.5 4l85 85l118 -119l-84 -83q-5 -5 -5 -11.5t5 -10.5q2 -3 5 -4t6 -1q2 0 5.5 1t5.5 4l85 84l118 -118l-85 -85q-4 -5 -4 -11t4 -11q3 -3 6 -4t6 -1q2 0 5 1t6 4 l85 85l57 -58q23 -23 53 -35.5t62 -12.5q29 0 56 9.5t48 27.5l264 -264q3 -3 6 -4t6 -1q2 0 5 1t6 4q3 5 3 11t-5 11zM504 270l-349 349v0v0v0v0l-6 7q-40 39 -40 93.5t38 93.5q19 19 43.5 28.5t49.5 9.5t49.5 -9.5t43.5 -28.5l6 -7v0v0v0v0l351 -350q18 -18 28 -42t10 -51 q0 -26 -10 -49.5t-28 -43.5q-18 -19 -42.5 -28.5t-50.5 -9.5q-25 0 -49.5 9.5t-43.5 28.5v0z" />
</svg>