<svg viewBox="0 0 256 256" xmlns="http://www.w3.org/2000/svg">
  <path transform="scale(1, -1) translate(0, -256)" fill="currentColor" d="M249 17l-64 64q8 12 8 25q0 19 -13 31l-12 12l19 19q2 2 2 5t-2 5t-5 2t-5 -2l-19 -19l-25 25l19 20q2 2 2 5t-2 5t-5 2t-5 -2l-19 -19l-25 25l19 19q2 2 2 5t-2 5t-5 2t-5 -2l-19 -19q-13 10 -30 9.5t-29 -12.5t-13 -29t10 -30l-19 -19q-2 -2 -2 -5t2 -5t4.5 -2t4.5 2 l20 19l25 -25l-19 -19q-2 -2 -2 -5t2 -5t5 -2t5 2l19 19l25 -25l-19 -19q-2 -2 -2 -5t2 -5t5 -2t5 2l19 19l12 -12q12 -13 30 -13q15 0 26 8l64 -64q2 -2 5 -2t5 2t2.5 5t-1.5 5zM128 86l-87 87l-2 2q-8 9 -8 21t8.5 21t21 9t21.5 -9l89 -89q9 -9 9 -21.5t-9 -21.5 t-21.5 -8.5t-21.5 9.5z" />
</svg>