<svg viewBox="0 0 256 256" xmlns="http://www.w3.org/2000/svg">
  <path transform="scale(1, -1) translate(0, -256)" fill="currentColor" d="M234 234q-10 10 -24.5 14t-30.5 2t-31 -10t-28 -21q-18 -18 -26 -41t-5 -43l-75 -68q-9 -7 -9 -19t7 -19l16 -16q8 -8 19 -8h1q11 0 19 9l68 75q6 -1 13 -1q18 0 36.5 8t34.5 24q26 26 31 59q2 17 -2 31t-14 24zM57 23q-4 -4 -9.5 -4t-8.5 4l-16 16q-4 3 -4 8.5t4 9.5 l71 64q4 -8 11 -15.5t15 -11.5zM236 181q-4 -28 -27 -51q-15 -15 -33 -22.5t-34.5 -5.5t-27 12.5t-12.5 27t5.5 34.5t22.5 33q11 11 24.5 18t27.5 9l9 1q21 0 34 -13q7 -8 10 -19t1 -24zM170 206q0 -4 2.5 -6.5t6.5 -2.5t7 2.5t3 6.5t-3 7t-7 3t-6.5 -3t-2.5 -7zM200 186 q-3 -3 -3 -7t3 -7t7 -3t7 3t3 7t-3 7t-7 3t-7 -3zM147 184q0 -4 3 -7t7 -3t6.5 3t2.5 7t-2.5 7t-6.5 3t-7 -3t-3 -7zM177 164q-3 -3 -3 -7t3 -7t7 -3t7 3t3 7t-3 7t-7 3t-7 -3zM124 161q0 -4 3 -6.5t7 -2.5t7 2.5t3 6.5t-3 7t-7 3t-7 -3t-3 -7zM152 134q0 -4 2.5 -7t6.5 -3 t7 3t3 7t-3 7t-7 3t-6.5 -3t-2.5 -7z" />
</svg>