<svg viewBox="0 0 1024 1024" xmlns="http://www.w3.org/2000/svg">
  <path transform="scale(1, -1) translate(0, -960)" fill="currentColor" d="M925 -5l-381 381q18 25 23.5 64t-2.5 85v0v1h81q8 0 12 4.5t4 11.5q0 8 -4 12t-12 4h-89q-5 18 -12 37t-17 35l96 40q6 3 8 9t0 12t-8.5 8.5t-12.5 -0.5l-99 -40q-10 15 -20 28t-22 27l80 80q5 4 5 10.5t-5 11.5q-4 5 -10.5 5t-11.5 -5l-80 -80q-13 12 -27.5 23t-28.5 20 l42 99q2 6 0 12.5t-8 8.5q-6 3 -12.5 0.5t-8.5 -8.5l-40 -96q-18 10 -35.5 16.5t-35.5 12.5v88q0 7 -4 11.5t-12 4.5q-7 0 -11.5 -4.5t-4.5 -11.5v-82q-51 10 -94.5 2t-68.5 -34q-2 -2 -3.5 -5t-1.5 -6t1.5 -6t3.5 -5l803 -803q3 -3 6 -4t6 -1q2 0 5 1t6 4q5 5 5 11t-5 11v0 zM437 702q37 -37 62 -84.5t34 -97.5q7 -37 3 -68.5t-16 -51.5l-386 386q23 13 58 16q36 3 77.5 -6.5t85.5 -31.5q43 -23 82 -62v0z" />
</svg>