<svg viewBox="0 0 256 256" xmlns="http://www.w3.org/2000/svg">
  <path transform="scale(1, -1) translate(0, -256)" fill="currentColor" d="M228 226h-200q-9 0 -16 -7t-7 -17v-142q0 -7 3 -12.5t8.5 -8.5t12.5 -3t13 4l35 24h15q3 0 5 2.5t2 5.5t-2 5t-5 2h-17q-2 0 -4 -1l-37 -25q-4 -3 -9.5 -0.5t-5.5 8.5v142q0 4 2.5 6.5t6.5 2.5h200q4 0 6.5 -3t2.5 -7v-131q0 -3 2 -5t5 -2t5.5 2t2.5 5v132q-1 9 -8 16 t-16 7zM214 78q-16 15 -37 19v11q0 7 -7 10q-3 2 -6 1.5t-6 -2.5l-42 -33q-4 -4 -4 -9.5t4 -8.5l42 -34q3 -2 6.5 -2t5.5 1q7 3 7 10v8q15 -3 33 -14q2 -2 5.5 -2t6 2t4 5t1.5 6.5t-1 6.5q-3 15 -12 25zM177 64q-6 0 -10.5 -3.5t-4.5 -8.5v-6l-35 29l35 28v-7q0 -5 3 -8 t8 -4q18 -3 30 -16q7 -7 9 -18v0q-17 10 -35 14zM41 158q0 -10 7 -17t16.5 -7t16.5 7t7 16.5t-6.5 16.5t-16.5 7t-17 -7t-7 -16zM74 158q0 -4 -3 -7t-6.5 -3t-6.5 3t-3 7t2.5 6.5t6.5 2.5t7 -2.5t3 -6.5zM152 158q0 9 -7 16t-17 7t-17 -6.5t-7 -16.5t7 -17t17 -7t17 7t7 17z M118 158q0 4 3 6.5t7 2.5t7 -2.5t3 -6.5t-3 -7t-7 -3t-7 3t-3 7zM191 134q10 0 17 7t7 16.5t-7 16.5t-17 7t-16.5 -7t-6.5 -16.5t7 -16.5t16 -7zM191 167q4 0 7 -3t3 -6.5t-3 -6.5t-7 -3t-6.5 3t-2.5 7t2.5 6.5t6.5 2.5z" />
</svg>