<svg viewBox="0 0 1024 1024" xmlns="http://www.w3.org/2000/svg">
  <path transform="scale(1, -1) translate(0, -960)" fill="currentColor" d="M859 250l-22 324q-3 35 -29 59.5t-61 24.5h-54v104h91q20 0 34 13.5t14 34.5v70q0 20 -14 34t-34 14h-240q-20 0 -34 -14t-14 -34v-70q0 -21 14 -34.5t34 -13.5h117v-104h-384q-35 0 -61 -24.5t-29 -59.5l-22 -324q-25 -10 -40.5 -32.5t-15.5 -51.5v-108q0 -38 26 -64 t63 -26h628q37 0 63 26t26 64v108q0 28 -16 51t-40 33v0zM528 810v70q0 7 4.5 11.5t11.5 4.5h240q7 0 11.5 -4.5t4.5 -11.5v-70q0 -8 -4.5 -12t-11.5 -4h-240q-7 0 -11.5 4t-4.5 12zM221 573q1 23 18 38t39 15h469q23 0 39 -16t19 -37l21 -317v0v0h-628v0v0l23 317v0z M883 58q0 -24 -16.5 -41t-40.5 -17h-628q-24 0 -40.5 17t-16.5 41v108q0 24 16.5 41t40.5 17h628q24 0 40.5 -17t16.5 -41v-108zM550 483h162q7 0 11.5 4.5t4.5 11.5t-4.5 11.5t-11.5 4.5h-162q-7 0 -11.5 -4.5t-4.5 -11.5t5 -11.5t11 -4.5zM309 445h3q7 0 11.5 4.5 t4.5 11.5t-4.5 11.5t-11.5 4.5h-3q-7 0 -11.5 -4.5t-4.5 -11.5t5 -11.5t11 -4.5zM418 445h3q7 0 11.5 4.5t4.5 11.5t-4.5 11.5t-11.5 4.5h-3q-8 0 -12 -4.5t-4 -11.5t4 -11.5t12 -4.5zM309 333h3q7 0 11.5 4.5t4.5 11.5t-4.5 11.5t-11.5 4.5h-3q-7 0 -11.5 -4.5t-4.5 -11.5 t5 -11.5t11 -4.5zM418 333h3q7 0 11.5 4.5t4.5 11.5t-4.5 11.5t-11.5 4.5h-3q-8 0 -12 -4.5t-4 -11.5t4 -11.5t12 -4.5z" />
</svg>