<svg viewBox="0 0 1024 1024" xmlns="http://www.w3.org/2000/svg">
  <path transform="scale(1, -1) translate(0, -960)" fill="currentColor" d="M990 413l-35 93q22 34 30.5 74t3.5 82q-5 45 -24 84t-49.5 69.5t-69.5 49.5t-84 23q-58 6 -112 -12.5t-96 -59.5q-41 -41 -60.5 -95t-13.5 -113v-4t2 -4q-6 0 -12 1t-12 1h-165q-54 0 -102 -20q-47 -20 -82.5 -54.5t-56.5 -80.5q-20 -46 -20 -98q0 -53 18 -98 q18 -46 56 -87t98 -79q60 -39 145 -77q2 -1 5.5 -2t7.5 -1t8 1t8 4q6 3 10 10t4 15v61h66q54 0 101 20q48 20 83 54.5t56 80.5q20 46 20 98q0 8 -0.5 15.5t-0.5 14.5q41 -2 79.5 6.5t72.5 30.5l81 -42q4 -1 7 -2t6 -1q5 0 10.5 2.5t8.5 5.5q8 7 9.5 16t-1.5 18v0zM456 128 h-67q-12 0 -21.5 -8.5t-9.5 -21.5v-60q-79 37 -135 72q-56 36 -91 73t-52 78q-16 40 -16 88q0 45 18 86q18 40 49 70t73 47q41 18 89 18h163q47 0 89 -18q42 -17 73 -47t49 -70q18 -41 18 -86q0 -46 -17 -86q-18 -40 -49.5 -70t-73.5 -48q-42 -17 -89 -17v0zM875 450 q-3 2 -7.5 1t-8.5 -3q-32 -22 -69.5 -31t-75.5 -6h-2h-2q-18 69 -70.5 118t-124.5 65q-1 3 -1 7.5v8.5q-5 50 11.5 98t52.5 82q36 36 83 52.5t99 11.5q78 -8 134 -64t64 -134q4 -38 -4.5 -75t-28.5 -69q-3 -4 -3 -7.5t1 -6.5l35 -93l-83 45v0z" />
</svg>