<svg viewBox="0 0 1024 1024" xmlns="http://www.w3.org/2000/svg">
  <path transform="scale(1, -1) translate(0, -960)" fill="currentColor" d="M910 829h-796q-34 0 -58 -24t-24 -58v-571q0 -23 11.5 -42t31.5 -30q10 -5 19.5 -7.5t19.5 -2.5q12 0 23.5 4t20.5 11l146 97h61q7 0 11.5 4.5t4.5 11.5q0 8 -4.5 12t-11.5 4h-66q-2 0 -4.5 -1t-4.5 -2l-149 -99q-12 -8 -25.5 -8.5t-25.5 5.5t-19 18t-7 25v571 q0 21 14.5 35.5t35.5 14.5h796q21 0 35.5 -14.5t14.5 -35.5v-525q0 -7 4.5 -11.5t11.5 -4.5t11.5 4.5t4.5 11.5v525q0 34 -24 58t-58 24zM845 240q-29 29 -66.5 47.5t-79.5 26.5q-1 0 -3 1t-2 3v52q0 9 -5 17.5t-14 12.5q-9 5 -18.5 3.5t-18.5 -8.5l-166 -133 q-6 -4 -9.5 -11t-3.5 -16q0 -8 3.5 -15t9.5 -12l166 -134q5 -4 10.5 -6t10.5 -2q4 0 7.5 1t7.5 2q9 5 14 13t5 17v40q0 1 0.5 2l0.5 1l1 1t3 1q31 -5 68 -20.5t76 -40.5q8 -5 17 -5t18 5q8 5 12.5 14t4.5 18q0 10 -1 16.5t-2 10.5q-3 33 -14 54.5t-32 43.5v0zM864 114h-1.5 h-0.5q-28 18 -70 37t-85 27q-8 1 -15.5 -1.5t-13.5 -6.5q-6 -5 -9 -13t-3 -16v-40l-0.5 -1t-1.5 -1h-1.5h-1.5l-167 135l-0.5 0.5l-0.5 0.5v1t1 1l167 133v0h1h0.5h1.5t1.5 -1l0.5 -1v-51q0 -13 8.5 -24t21.5 -13q37 -6 70 -22.5t58 -41.5q17 -18 26 -35.5t14 -42.5 q0 -3 1 -8t1 -15h-1t-1 -1v0zM178 566q0 -33 24 -57t57 -24q34 0 58 24t24 57q0 34 -24 58t-58 24q-33 0 -57 -24t-24 -58v0zM309 566q0 -20 -14.5 -34.5t-35.5 -14.5q-20 0 -34.5 14.5t-14.5 34.5q0 21 14.5 35.5t34.5 14.5q21 0 35.5 -14.5t14.5 -35.5zM594 566 q0 34 -24 58t-58 24t-58 -24t-24 -58q0 -33 24 -57t58 -24t58 24t24 57zM462 566q0 21 15 35.5t35 14.5t35 -14.5t15 -35.5q0 -20 -15 -34.5t-35 -14.5t-35 14.5t-15 34.5zM765 485q33 0 57 24t24 57q0 34 -24 58t-57 24q-34 0 -58 -24t-24 -58q0 -33 24 -57t58 -24v0z M765 616q20 0 34.5 -14.5t14.5 -35.5q0 -20 -14.5 -34.5t-34.5 -14.5q-21 0 -35.5 14.5t-14.5 34.5q0 21 14.5 35.5t35.5 14.5z" />
</svg>