<svg viewBox="0 0 256 256" xmlns="http://www.w3.org/2000/svg">
  <path transform="scale(1, -1) translate(0, -256)" fill="currentColor" d="M233 240h-100q-16 0 -29 -8t-21 -21t-8 -29q0 -7 1 -12h-52q-8 0 -13.5 -5.5t-5.5 -13.5v-117q0 -10 9 -16q6 -2 10.5 -2t9.5 2l37 22h3h63q18 0 32.5 9t23.5 24t9 32q0 6 -1 13l24 -14q4 -2 8.5 -2t8.5 2q9 5 9 16v102q0 8 -5 13t-13 5zM137 54h-63q-5 0 -10 -2l-38 -21 q-2 -2 -4.5 -0.5t-2.5 4.5v116q0 5 5 5h113q21 0 36 -15t15 -36t-15 -36t-36 -15zM237 120q0 -2 -1.5 -3.5t-3.5 -0.5l-33 19l-5 2q-9 15 -24 24t-32 9h-47q-2 5 -2 12q0 18 13 31t32 13h100q1 0 2 -1t1 -3v-102z" />
</svg>