<svg viewBox="0 0 1024 1024" xmlns="http://www.w3.org/2000/svg">
  <path transform="scale(1, -1) translate(0, -960)" fill="currentColor" d="M933 885h-400q-46 0 -86 -18q-40 -17 -70 -47t-48 -70q-17 -40 -17 -86q0 -16 2 -30.5t6 -28.5h-224q-26 0 -45 -19t-19 -45v-466q0 -17 8 -31.5t24 -22.5q7 -5 15.5 -7.5t16.5 -2.5t16.5 2.5t15.5 5.5l150 85q4 2 8 3.5t8 1.5h255q51 0 96 19q45 20 79 53.5t53 78.5 q20 45 20 97q0 19 -3.5 38t-7.5 37l120 -69q7 -3 14 -5.5t14 -2.5q8 0 16 2.5t15 5.5q13 9 21 21.5t8 28.5v413q-2 24 -19 41.5t-42 17.5v0zM549 141h-255q-8 0 -16 -2.5t-16 -5.5l-150 -85q-7 -5 -16 -5t-16 5t-11.5 12t-4.5 15v466q0 13 9.5 22.5t22.5 9.5h453 q44 0 83 -17q40 -17 69.5 -46t46.5 -69q17 -39 17 -84t-17 -84t-46.5 -68.5t-68.5 -46.5q-40 -17 -84 -17v0zM960 414q0 -7 -3.5 -12.5t-9.5 -9.5t-13 -4t-14 4l-133 75q-5 3 -10 5t-11 2q-31 58 -88.5 94.5t-128.5 36.5h-195q-5 14 -7.5 28.5t-2.5 30.5q0 78 55.5 133.5 t133.5 55.5h400q11 0 19 -8.5t8 -18.5v-412v0z" />
</svg>