<svg viewBox="0 0 256 256" xmlns="http://www.w3.org/2000/svg">
  <path transform="scale(1, -1) translate(0, -256)" fill="currentColor" d="M250 120l-8 22q10 18 8 40.5t-19 39.5t-40 19q-16 2 -30 -3t-24.5 -15.5t-15.5 -24.5t-4 -29h-44q-18 0 -34 -9t-25 -24t-9 -33q0 -27 19 -47.5t62 -39.5q1 -1 4 -1t6 1q4 3 4 9v12h14q18 0 34 9t25 24t9 33v5q19 -1 35 9l19 -10q2 -1 5 -1t6 2.5t4 5.5t-1 6zM114 51h-17 q-4 0 -7 -3t-3 -7v-10q-37 17 -52.5 33.5t-15.5 38.5q0 14 7.5 26t20 19t27.5 7h40q15 0 27.5 -7t20 -19t7.5 -26t-7.5 -26t-20 -19t-27.5 -7zM228 146q-2 -3 0 -6l6 -16l-14 7q-3 2 -7 0q-15 -10 -33 -9q-5 17 -18 29t-30 16l-1 2q-1 12 3 23.5t12.5 19.5t19.5 12t24 3 q18 -2 31.5 -15t15 -31.5t-8.5 -34.5z" />
</svg>