<svg viewBox="0 0 256 256" xmlns="http://www.w3.org/2000/svg">
  <path transform="scale(1, -1) translate(0, -256)" fill="currentColor" d="M73 164q-10 0 -17.5 -7t-7.5 -17.5t7.5 -17.5t17.5 -7t17.5 7t7.5 17.5t-7.5 17.5t-17.5 7zM73 129q-4 0 -7.5 3t-3.5 7.5t3.5 7.5t8 3t7.5 -3t3 -7.5t-3.5 -7.5t-7.5 -3zM128 164q-10 0 -17.5 -7t-7.5 -17.5t7.5 -17.5t17.5 -7t17.5 7t7.5 17.5t-7.5 17.5t-17.5 7z M128 129q-4 0 -7.5 3t-3.5 7.5t3 7.5t8 3t8 -3t3 -7.5t-3 -7.5t-8 -3zM183 164q-10 0 -17.5 -7t-7.5 -17.5t7.5 -17.5t17.5 -7t17.5 7t7.5 17.5t-7.5 17.5t-17.5 7zM183 129q-4 0 -7.5 3t-3.5 7.5t3.5 7.5t8 3t7.5 -3t3 -7.5t-3.5 -7.5t-7.5 -3zM227 216h-198q-10 0 -17 -7 t-7 -17v-128q0 -7 3 -12t9 -8.5t11.5 -3.5t12.5 3l35 21q2 1 5 1h146q10 0 17 7t7 17v103q0 10 -7 17t-17 7zM237 89q0 -4 -3 -7t-7 -3h-146q-6 0 -12 -3l-35 -21q-5 -2 -10 0.5t-5 8.5v128q0 4 3 7t7 3h199q4 0 7 -3t3 -7v-103h-1z" />
</svg>