<svg viewBox="0 0 1024 1024" xmlns="http://www.w3.org/2000/svg">
  <path transform="scale(1, -1) translate(0, -960)" fill="currentColor" d="M293 581q-36 0 -62 -25.5t-26 -62.5q0 -36 25.5 -62t62.5 -26t62.5 25.5t25.5 62.5q-1 37 -26.5 62.5t-61.5 25.5zM293 438q-23 0 -39.5 16t-16.5 40q0 23 16 39.5t40 16.5t40 -16t16 -40q-1 -22 -17 -39t-39 -17zM512 581q-36 0 -62 -25.5t-26 -62.5q0 -36 25.5 -62 t62.5 -26q36 0 62 25.5t26 62.5t-26 62.5t-62 25.5zM512 438q-23 0 -39.5 16t-16.5 40q0 23 16 39.5t40 16.5q23 0 39.5 -16t16.5 -40q0 -22 -16.5 -39t-39.5 -17zM733 581q-36 0 -62 -25.5t-26 -62.5q0 -36 25.5 -62t62.5 -26q36 0 62 25.5t26 62.5q-1 37 -26.5 62.5 t-61.5 25.5zM733 438q-23 0 -39.5 16t-16.5 40q0 23 16 39.5t40 16.5q23 0 39.5 -16t16.5 -40q-1 -22 -17 -39t-39 -17zM909 789h-794q-35 0 -59 -25t-24 -60v-512q0 -23 11 -42t31 -30q9 -6 19.5 -8.5t21.5 -2.5t21.5 2.5t20.5 8.5l141 82q6 3 12 4.5t13 1.5h584 q35 0 59 24t24 59v413q2 35 -22 60t-59 25v0zM960 291q0 -21 -15 -36t-36 -15h-584q-11 0 -21.5 -2.5t-20.5 -8.5l-141 -82q-12 -7 -25.5 -7t-25.5 7q-13 7 -20 19t-7 26v512q0 22 15 36.5t36 14.5h794q21 0 36 -14.5t15 -36.5v-413v0z" />
</svg>