<svg viewBox="0 0 256 256" xmlns="http://www.w3.org/2000/svg">
  <path transform="scale(1, -1) translate(0, -256)" fill="currentColor" d="M218 80l-6 80q-1 10 -8 17t-17 7h-11v20h20q6 0 10.5 4.5t4.5 10.5v17q0 6 -4.5 10.5t-10.5 4.5h-60q-6 0 -10.5 -4.5t-4.5 -10.5v-18q0 -6 4.5 -10.5t10.5 -4.5h26v-20h-93q-10 0 -17 -7t-8 -16l-6 -80q-6 -3 -10 -9t-4 -13v-28q0 -10 7.5 -17.5t18.5 -7.5h156 q11 0 18.5 7.5t7.5 17.5v28q0 7 -4 13t-10 9zM135 218v18q0 1 1 1h60q2 0 2 -1v-18q0 -1 -2 -1h-60q-1 0 -1 1zM69 170h117q5 0 8 -3.5t4 -7.5l5 -76h-150l5 76q0 4 3.5 7.5t7.5 3.5zM218 30q0 -4 -3.5 -7.5t-8.5 -3.5h-156q-5 0 -8.5 3.5t-3.5 7.5v28q0 4 3.5 7.5t8.5 3.5 h156q5 0 8.5 -3.5t3.5 -7.5v-28zM138 134h40q3 0 5 2t2 5t-2 5t-5 2h-40q-3 0 -5.5 -2t-2.5 -5t2.5 -5t5.5 -2zM77 124h1q3 0 5 2t2 5t-2 5t-5 2h-1q-3 0 -5 -2t-2 -5t2 -5t5 -2zM104 124h1q3 0 5 2t2 5t-2 5t-5 2h-1q-3 0 -5 -2t-2 -5t2 -5t5 -2zM77 96h1q3 0 5 2t2 5t-2 5 t-5 2h-1q-3 0 -5 -2t-2 -5t2 -5t5 -2zM104 96h1q3 0 5 2t2 5t-2 5t-5 2h-1q-3 0 -5 -2t-2 -5t2 -5t5 -2z" />
</svg>