<svg viewBox="0 0 256 256" xmlns="http://www.w3.org/2000/svg">
  <path transform="scale(1, -1) translate(0, -256)" fill="currentColor" d="M249 248q-2 3 -5 3t-5 -3l-8 -7q-6 4 -14 4q-12 0 -20 -8.5t-8 -19.5v-4l-81 -49l-15 15q-2 2 -5 2t-5 -2t-2 -5t2 -5l13 -13l-88 -52q-2 -2 -2.5 -5t1 -5.5t5.5 -2.5q2 0 4 1l90 55l15 -15l-11 -10q-2 -2 -2 -5t2 -5t5 -2t5 2l10 10l15 -14l-55 -92q-1 -2 -0.5 -5t3 -4 t3.5 -1q4 0 6 3l54 87l13 -12q2 -2 4.5 -2t5 2t2.5 5t-3 5l-15 15l49 80l5 -1q12 0 20 8.5t8 19.5q0 7 -4 15l8 7q2 3 2 5.5t-2 4.5zM153 119l-12 13l11 10q2 3 2 5.5t-2.5 4.5t-5 2.5t-4.5 -2.5l-11 -10l-12 12l76 46q2 -3 5 -5zM217 202q-5 0 -9.5 4.5t-4.5 10t4.5 9.5 t10 4t9.5 -4t4 -9.5t-4 -10t-10 -4.5z" />
</svg>