<svg viewBox="0 0 256 256" xmlns="http://www.w3.org/2000/svg">
  <path transform="scale(1, -1) translate(0, -256)" fill="currentColor" d="M128 251q-23 0 -42 -8q-3 -1 -4.5 -3.5t0 -5t4 -4t4.5 -0.5q19 7 38 7q30 0 55 -14.5t39.5 -40t14.5 -55t-14.5 -54.5t-39.5 -39.5t-54.5 -14.5t-54.5 14.5t-40 39.5t-15 55q0 22 9 42q1 2 -0.5 5t-4 4t-5 0t-4.5 -4q-9 -22 -9 -47q0 -33 16.5 -61.5t45 -45t61.5 -16.5 t61.5 16.5t45 45t16.5 61.5t-16.5 61.5t-45 45t-61.5 16.5zM64 64q2 -2 5 -2t5 2l26 27l61 -27q5 -2 9 -2q9 0 16 7q5 5 6 12t-1 13l-27 61l27 26q2 2 2 5t-2 5t-5 2t-5 -2l-27 -26l-60 26q-7 3 -13.5 1.5t-11.5 -6t-6.5 -11.5t1.5 -13l26 -61l-26 -27q-2 -2 -2 -5t2 -5z M178 89q3 -6 -1.5 -10t-9.5 -2l-56 24l43 43zM78 167q-3 6 2 10q2 2 6 2l3 -1l56 -24l-44 -43zM44 202q2 -2 4.5 -2t4.5 2t2 5t-2 5l-21 22q-3 2 -5.5 2.5t-4.5 -1.5t-2 -5t2 -5z" />
</svg>