<svg viewBox="0 0 1024 1024" xmlns="http://www.w3.org/2000/svg">
  <path transform="scale(1, -1) translate(0, -960)" fill="currentColor" d="M512 928q-43 0 -85 -7t-81 -22q-6 -2 -8.5 -8.5t-1.5 -12.5t8 -9t13 0q37 13 76 20t79 7q92 0 174 -35q81 -36 142 -96.5t97 -142.5q35 -82 35 -174t-35 -174q-36 -82 -96.5 -142.5t-142.5 -96.5q-82 -35 -174 -35t-174 35q-81 36 -142 97t-97 142q-35 82 -35 174 q0 44 8.5 87t25.5 84q2 6 0 12.5t-8 8.5t-12.5 0t-8.5 -8q-18 -44 -27.5 -90t-9.5 -94q0 -99 38 -186q38 -88 103 -153t153 -103q87 -38 186 -38t186 38q88 38 153 103t103 153q38 87 38 186t-38 186q-38 88 -103 153t-153 103q-87 38 -186 38zM266 202q2 -3 5 -4t6 -1 q2 0 5.5 1t5.5 4l112 112q2 -3 5.5 -4.5t7.5 -2.5l238 -102q7 -4 15.5 -5.5t16.5 -1.5q16 0 30 6t25 18q16 17 20.5 40.5t-4.5 46.5l-103 238q-1 4 -3 6.5t-3 6.5l112 112q5 5 5 11.5t-5 10.5q-5 5 -11.5 5t-11.5 -5l-112 -112q-2 3 -5.5 4.5t-6.5 2.5l-239 102 q-23 10 -45.5 5.5t-40.5 -21.5q-17 -17 -21.5 -40t5.5 -46l102 -239q1 -3 3 -6l4 -6l-112 -112q-5 -6 -5 -13t5 -11v0zM624 534v0l102 -238q8 -16 3.5 -29.5t-12.5 -21.5q-9 -9 -22.5 -13t-28.5 3l-240 101h-0.5h-1.5l200 198q-1 2 -1 1t1 -1v0zM299 600q-7 16 -3 29.5 t13 21.5q6 6 14 10.5t18 4.5q5 0 9.5 -1t9.5 -3l238 -102h1h1l-198 -200v0v2l-103 238v0zM182 754q3 -3 6 -4t6 -1t5.5 1t5.5 4q5 4 5 10.5t-5 11.5l-87 90q-4 4 -10.5 4t-11.5 -4q-5 -5 -5 -11.5t5 -11.5l86 -89v0z" />
</svg>