<svg viewBox="0 0 256 256" xmlns="http://www.w3.org/2000/svg">
  <path transform="scale(1, -1) translate(0, -256)" fill="currentColor" d="M226 15l-45 93q21 15 30 39q1 2 0 5t-4 4t-5.5 0t-3.5 -4q-7 -18 -24 -31l-19 40q12 12 12 27t-9.5 25.5t-23.5 13.5v17q0 3 -2 5t-5 2t-4.5 -2t-1.5 -5v-17q-14 -2 -23 -13t-9 -26t12 -27l-20 -40q-16 12 -23 31q-1 3 -3.5 4t-5.5 0t-4 -3.5t0 -5.5q9 -24 30 -39 l-45 -93q-1 -3 0 -5.5t3 -3.5t3.5 -1t3.5 1t3 3l44 92q20 -10 41 -10t41 10l44 -92q2 -4 7 -4l3 1q3 1 3.5 4t-0.5 5zM128 214q10 0 17.5 -7.5t7.5 -17.5t-7.5 -17.5t-17.5 -7.5t-17.5 7.5t-7.5 17.5t7.5 17.5t17.5 7.5zM128 105q-18 0 -35 9l20 40q7 -4 15.5 -4t15.5 4 l19 -40q-16 -9 -35 -9z" />
</svg>