<svg viewBox="0 0 1024 1024" xmlns="http://www.w3.org/2000/svg">
  <path transform="scale(1, -1) translate(0, -960)" fill="currentColor" d="M987 922q-5 4 -11 4t-11 -4l-37 -39q-12 9 -27 14t-32 5q-42 0 -71.5 -29t-29.5 -71q0 -6 1 -12t2 -11l-339 -203l-69 69q-5 5 -11 5t-11 -5t-5 -11.5t5 -11.5l64 -64l-365 -219q-6 -3 -7 -9.5t2 -12.5q3 -4 6.5 -6t8.5 -2h4t4 1l371 224l73 -73l-54 -50q-5 -5 -5 -11 t5 -11q2 -3 5.5 -4t5.5 -1q3 0 6 1t5 4l53 53l75 -76l-225 -371q-4 -6 -2 -12.5t7 -9.5q2 -1 3.5 -1.5t4.5 -0.5t7.5 2.5t6.5 5.5l221 363l62 -62q3 -2 6 -3.5t5 -1.5q3 0 6 1.5t6 3.5q4 5 4 11.5t-4 10.5l-68 68l205 336q6 -2 13 -3t13 -1q42 0 71.5 29.5t29.5 71.5 q0 17 -5 31.5t-15 27.5l37 37q5 4 5 11t-5 12v0zM614 394l-70 70l53 53q5 5 5 11t-5 11t-11.5 5t-11.5 -5l-52 -53l-68 68l330 196q6 -9 13.5 -16.5t16.5 -13.5zM869 734q-29 0 -49 20t-20 49t20 49t49 20t49 -20t20 -49t-20 -49t-49 -20z" />
</svg>