<svg viewBox="0 0 1024 1024" xmlns="http://www.w3.org/2000/svg">
  <path transform="scale(1, -1) translate(0, -960)" fill="currentColor" d="M894 -10l-185 381q42 29 73.5 68t51.5 87q2 6 -1 12.5t-9 8.5q-6 3 -12 0t-9 -9q-17 -42 -45 -77.5t-64 -60.5l-88 182q23 20 37.5 48.5t14.5 60.5q0 55 -37.5 96t-92.5 47v78q0 7 -4.5 11.5t-11.5 4.5t-11.5 -4.5t-4.5 -11.5v-78q-54 -6 -91 -47t-37 -96 q0 -32 13.5 -60.5t37.5 -48.5l-88 -182q-36 25 -64 60.5t-45 77.5q-2 6 -8 9t-12 0q-6 -2 -9 -8.5t-1 -12.5q19 -48 51 -87.5t74 -67.5l-187 -381q-3 -6 -0.5 -12t8.5 -8q1 -2 3 -2h3q5 0 8.5 2.5t5.5 7.5l184 377q39 -21 81.5 -33t88.5 -12t88.5 12t81.5 33l184 -377 q2 -5 5.5 -7.5t8.5 -2.5h3t3 2q6 2 8.5 8t-0.5 12v0zM398 691q0 46 33.5 79t80.5 33t79.5 -32.5t32.5 -79.5t-33 -79.5t-79 -32.5t-80 33.5t-34 78.5zM512 342q-42 0 -81 11t-74 31l88 181q15 -9 32 -12.5t35 -3.5t35 4.5t32 11.5l88 -181q-35 -20 -74 -31t-81 -11z" />
</svg>