<svg viewBox="0 0 1024 1024" xmlns="http://www.w3.org/2000/svg">
  <path transform="scale(1, -1) translate(0, -960)" fill="currentColor" d="M312 619q-5 5 -11.5 6t-10.5 -4q-5 -5 -6 -11.5t4 -11.5l106 -124q2 -3 3.5 -5.5t2.5 -4.5h-352q-7 0 -11.5 -4.5t-4.5 -11.5t4.5 -11.5t11.5 -4.5h350q-1 -2 -2.5 -4.5t-3.5 -5.5l-104 -124q-5 -5 -4 -12t6 -11q2 -2 4.5 -2.5t4.5 -0.5q4 0 7.5 1.5t5.5 4.5l106 125 q16 21 16 47.5t-16 45.5l-106 123v0zM976 464h-350q1 2 2.5 4.5t3.5 5.5l106 124q4 5 3.5 12t-5.5 11q-5 3 -12 3t-10 -5l-106 -125q-17 -20 -17 -46.5t17 -45.5l106 -125q2 -3 5.5 -5t6.5 -2t6 1t4 3q5 4 5.5 10.5t-3.5 11.5l-106 125q-2 2 -3.5 4.5t-2.5 4.5h350 q7 0 11.5 4.5t4.5 11.5q0 8 -4.5 13t-11.5 5v0z" />
</svg>