<svg viewBox="0 0 256 256" xmlns="http://www.w3.org/2000/svg">
  <path transform="scale(1, -1) translate(0, -256)" fill="currentColor" d="M134 212h-12q-4 0 -4 -4v-13q0 -4 4 -4h12q4 0 4 4v13q0 1 -1 2.5t-3 1.5zM170 212h-12q-4 0 -4 -4v-13q0 -4 4 -4h12q4 0 4 4v13q0 1 -1.5 2.5t-2.5 1.5zM134 159h-12q-4 0 -4 -4v-13q0 -4 4 -4h12q4 0 4 4v13q0 1 -1 2.5t-3 1.5zM170 159h-12q-4 0 -4 -4v-13q0 -4 4 -4 h12q4 0 4 4v13q0 1 -1.5 2.5t-2.5 1.5zM134 102h-12q-4 0 -4 -4v-12q0 -4 4 -4h12q4 0 4 4v12q0 2 -1 3t-3 1zM170 102h-12q-4 0 -4 -4v-12q0 -4 4 -4h12q4 0 4 4v12q0 2 -1.5 3t-2.5 1zM244 34h-35v80h6q3 0 5 2t2 5t-2 5t-5 2h-6v37h6q3 0 5 2t2 5t-2 5.5t-5 2.5h-6v42h6 q3 0 5 2t2 5t-2 5t-5 2h-138q-3 0 -5 -2t-2 -5t2 -5t5 -2h6v-43h-6q-3 0 -5 -2t-2 -5t2 -5t5 -2h6v-37h-6q-3 0 -5 -2t-2 -5t2 -5t5 -2h6v-80h-35v23q7 1 12 6.5t5 12.5v8q0 8 -6 14t-14 6h-8q-8 0 -14 -6t-6 -14v-8q0 -7 5 -12.5t12 -6.5v-23h-22q-3 0 -5 -2.5t-2 -5.5 t2 -4.5t5 -1.5h232q3 0 5 2t2 5t-2 5t-5 2zM31 77v7q0 2 2 4t4 2h7q3 0 4.5 -2t1.5 -4v-7q0 -3 -1.5 -4.5t-4.5 -1.5h-7q-2 0 -4 1.5t-2 4.5zM97 222h98v-42h-98v42zM97 166h98v-38h-98v38zM135 35v21h22v-21h-22zM170 34v29q0 3 -2 5t-5 2h-35q-3 0 -5 -2t-2 -5v-29h-24v80 h98v-80h-25z" />
</svg>