<svg viewBox="0 0 1024 1024" xmlns="http://www.w3.org/2000/svg">
  <path transform="scale(1, -1) translate(0, -960)" fill="currentColor" d="M928 658h-106v137q0 31 -22 54t-54 23h-468q-31 0 -53.5 -22t-22.5 -55v-137h-106q-26 0 -45 -19t-19 -45v-506q0 -26 19 -45t45 -19h832q26 0 45 19t19 45v506q0 27 -19 45.5t-45 18.5zM64 88v506q0 13 9.5 22.5t22.5 9.5h106v-570h-106q-13 0 -22.5 9.5t-9.5 22.5z M234 642v153q0 18 12.5 31.5t31.5 13.5h468q18 0 31 -13t13 -32v-739h-155v200q0 7 -4.5 11.5t-11.5 4.5h-214q-7 0 -11.5 -4.5t-4.5 -11.5v-200h-155v586v0zM421 56v184h184v-184h-184v0zM960 88q0 -13 -9.5 -22.5t-22.5 -9.5h-106v570h106q13 0 22.5 -9.5t9.5 -22.5v-506z M331 600h120q7 0 11.5 4.5t4.5 11.5v120q0 7 -4.5 11.5t-11.5 4.5h-120q-7 0 -11.5 -4.5t-4.5 -11.5v-120q0 -6 4.5 -11t11.5 -5zM347 720h88v-88h-88v88zM573 600h120q7 0 11.5 4.5t4.5 11.5v120q0 7 -4.5 11.5t-11.5 4.5h-120q-7 0 -11.5 -4.5t-4.5 -11.5v-120q0 -6 5 -11 t11 -5zM589 720h88v-88h-88v88zM451 378q7 0 11.5 4t4.5 12v120q0 7 -4.5 11.5t-11.5 4.5h-120q-7 0 -11.5 -4.5t-4.5 -11.5v-120q0 -8 4.5 -12t11.5 -4h120zM347 498h88v-88h-88v88zM573 378h120q7 0 11.5 4t4.5 12v120q0 7 -4.5 11.5t-11.5 4.5h-120q-7 0 -11.5 -4.5 t-4.5 -11.5v-120q0 -6 5 -11t11 -5zM589 498h88v-88h-88v88z" />
</svg>