<svg viewBox="0 0 256 256" xmlns="http://www.w3.org/2000/svg">
  <path transform="scale(1, -1) translate(0, -256)" fill="currentColor" d="M232 184h-24v31q0 9 -6.5 15.5t-15.5 6.5h-116q-10 0 -16 -6.5t-6 -15.5v-31h-24q-8 0 -13.5 -6t-5.5 -14v-126q0 -8 5.5 -13.5t13.5 -5.5h208q8 0 13.5 5.5t5.5 13.5v126q0 8 -5.5 14t-13.5 6zM19 38v126q0 3 1.5 4.5t3.5 1.5h24v-137h-24q-2 0 -3.5 1.5t-1.5 3.5z M62 176v39q0 3 2 5.5t6 2.5h116q4 0 6 -2.5t2 -5.5v-182h-32v47q0 3 -2.5 5t-5.5 2h-53q-3 0 -5 -2t-2 -5v-47h-33v143h1zM108 33v40h40v-40h-40zM237 38q0 -2 -1.5 -3.5t-3.5 -1.5h-24v137h24q2 0 3.5 -2t1.5 -4v-126zM83 163h30q3 0 5 2t2 5v30q0 3 -2 5t-5 2h-30 q-3 0 -5 -2t-2 -5v-30q0 -3 2 -5t5 -2zM90 193h16v-16h-16v16zM143 163h30q3 0 5 2t2 5v30q0 3 -2 5t-5 2h-30q-3 0 -5 -2t-2 -5v-30q0 -3 2 -5t5 -2zM150 193h16v-16h-16v16zM113 108q3 0 5 2t2 5v30q0 3 -2 5t-5 2h-30q-3 0 -5 -2t-2 -5v-30q0 -3 2 -5t5 -2h30zM90 138h16 v-16h-16v16zM143 108h30q3 0 5 2t2 5v30q0 3 -2 5t-5 2h-30q-3 0 -5 -2t-2 -5v-30q0 -3 2.5 -5t4.5 -2zM150 138h16v-16h-16v16z" />
</svg>