<svg viewBox="0 0 256 256" xmlns="http://www.w3.org/2000/svg">
  <path transform="scale(1, -1) translate(0, -256)" fill="currentColor" d="M230 66h-16l-6 22q-1 7 -6.5 11t-12.5 4h-3l-15 131q-1 7 -6.5 12t-12.5 5h-48q-7 0 -12.5 -4.5t-6.5 -12.5l-15 -131h-4q-7 0 -12 -4t-6 -11l-6 -22h-16q-8 0 -14 -5.5t-6 -13.5v-23q0 -8 6 -13.5t14 -5.5h204q8 0 13.5 5.5t5.5 13.5v23q0 8 -5.5 13.5t-13.5 5.5z M93 177l68 22l3 -25l-74 -23zM104 237h48q5 0 5 -5l2 -19l-65 -21l5 40q0 2 1.5 3.5t3.5 1.5zM88 136l77 24l7 -57h-88zM61 85q1 4 5 4h123q4 0 5 -4l5 -19h-143zM235 24q0 -2 -1.5 -3.5t-3.5 -1.5h-204q-3 0 -4.5 1.5t-1.5 3.5v23q0 2 2 3.5t4 1.5h204q2 0 3.5 -1.5 t1.5 -3.5v-23z" />
</svg>