<svg viewBox="0 0 1024 1024" xmlns="http://www.w3.org/2000/svg">
  <path transform="scale(1, -1) translate(0, -960)" fill="currentColor" d="M928 202h-62l-298 657q-7 17 -22.5 27t-33.5 10v0v0q-18 0 -33.5 -10t-22.5 -27l-298 -657h-62q-26 0 -45 -19t-19 -45v-74q0 -26 19 -45t45 -19h832q26 0 45 19t19 45v72q0 28 -19 47t-45 19zM350 549h324l81 -179h-485l80 179v0zM485 846q3 9 11 13.5t16 4.5t16 -4.5 t11 -13.5l120 -265h-294l120 265v0zM256 339h1.5h1.5h506h1.5h1.5l62 -137h-636zM960 64q0 -13 -9.5 -22.5t-22.5 -9.5h-832q-13 0 -22.5 9.5t-9.5 22.5v72q0 13 9.5 22.5t22.5 9.5h832q13 0 22.5 -9.5t9.5 -22.5v-72z" />
</svg>