<svg viewBox="0 0 256 256" xmlns="http://www.w3.org/2000/svg">
  <path transform="scale(1, -1) translate(0, -256)" fill="currentColor" d="M232 69h-14l-73 163q-3 5 -7.5 8t-9.5 3t-9.5 -3t-7.5 -8l-73 -163h-14q-8 0 -13.5 -5.5t-5.5 -13.5v-18q0 -8 5.5 -13.5t13.5 -5.5h208q8 0 13.5 5.5t5.5 13.5v18q0 8 -5.5 13.5t-13.5 5.5zM90 150h76l18 -38h-112zM124 226q1 3 4 3t4 -3l28 -62h-64zM66 98h124l13 -28 h-150zM237 32q0 -2 -1.5 -3.5t-3.5 -1.5h-208q-2 0 -3.5 1.5t-1.5 3.5v18q0 2 1.5 3.5t3.5 1.5h208q2 0 3.5 -1.5t1.5 -3.5v-18z" />
</svg>