<svg viewBox="0 0 1024 1024" xmlns="http://www.w3.org/2000/svg">
  <path transform="scale(1, -1) translate(0, -960)" fill="currentColor" d="M922 187h-77l-26 99q-6 22 -23.5 36t-38.5 14h-24l-61 534q-2 26 -21 42t-43 16h-192q-25 0 -43.5 -17t-20.5 -41l-59 -534h-29q-22 0 -39 -13t-23 -35l-28 -99h-72q-26 0 -45 -19t-19 -45v-93q0 -26 19 -45t45 -19h818q26 0 45 19t19 45v91q1 28 -17.5 46t-44.5 18v0z M360 651l294 95l13 -122l-323 -102l16 129v0zM382 867q2 12 11 20.5t21 8.5h192q14 0 22.5 -8.5t9.5 -20.5l10 -88l-288 -91zM341 486l329 106l29 -256h-374l16 150v0zM232 278q2 11 11.5 17.5t20.5 6.5h493q11 0 20 -6.5t12 -17.5l22 -91h-603l24 91v0zM954 32 q0 -13 -9.5 -22.5t-22.5 -9.5h-820q-13 0 -22.5 9.5t-9.5 22.5v91q0 13 9.5 22.5t22.5 9.5h818q13 0 22.5 -9.5t9.5 -22.5v-91h2z" />
</svg>