<svg viewBox="0 0 1024 1024" xmlns="http://www.w3.org/2000/svg">
  <path transform="scale(1, -1) translate(0, -960)" fill="currentColor" d="M48 854q26 0 44 -44t33 -92q18 -58 41 -108t66 -50t66.5 50t42.5 108q15 48 33 92t44 44t44 -44t32 -92q18 -58 41.5 -108t67.5 -50q43 0 66.5 50t42.5 108q16 48 34 92t44 44q27 0 45 -44t34 -92q18 -58 41 -108t68 -50q7 0 11.5 4.5t4.5 11.5t-4.5 11.5t-11.5 4.5 q-27 0 -45 44t-34 92q-18 59 -41 108.5t-68 49.5q-44 0 -66.5 -49.5t-41.5 -108.5q-16 -48 -34 -92t-45 -44q-26 0 -44 44t-33 92q-18 59 -41 108.5t-67 49.5t-67 -49.5t-41 -108.5q-15 -48 -33 -92t-43 -44q-27 0 -45 44t-32 92q-19 58 -42.5 108t-66.5 50q-7 0 -11.5 -4 t-4.5 -12q0 -7 4.5 -11.5t11.5 -4.5v0zM976 42q-26 0 -44.5 44t-33.5 92q-18 58 -41.5 108t-67.5 50q-45 0 -67.5 -50t-41.5 -108q-16 -48 -34 -92t-44 -44q-27 0 -45 44t-32 92q-18 58 -41.5 108t-67.5 50q-43 0 -66 -50t-41 -108q-16 -48 -34 -92t-43 -44q-26 0 -44 44 t-33 92q-18 58 -41 109t-66 51q-7 0 -11.5 -4.5t-4.5 -11.5q0 -8 4.5 -12t11.5 -4q26 0 44 -44t33 -92q18 -59 41 -109t66 -50t66.5 50t42.5 109q15 48 33 92t44 44t44 -44t32 -92q18 -59 41.5 -109t67.5 -50q43 0 66.5 50t42.5 109q16 48 34 92t44 44q27 0 45 -44t34 -92 q18 -59 41 -109t68 -50q7 0 11.5 4.5t4.5 11.5t-5.5 11t-12.5 4zM258 870q0 -17 -12.5 -29t-29.5 -12t-29.5 12t-12.5 29q0 18 12.5 30t29.5 12t29.5 -12t12.5 -30zM597 827q18 0 29.5 12.5t11.5 29.5q0 18 -12 29.5t-29 11.5q-18 0 -30 -12t-12 -29q-1 -17 11.5 -29.5 t30.5 -12.5zM386 574q0 -18 12 -29.5t29 -11.5q18 0 30 12.5t12 28.5q0 18 -12.5 30t-29.5 12t-29 -12t-12 -30zM850 574q0 -17 -12.5 -29t-29.5 -12t-29.5 12t-12.5 29q0 18 12.5 30t29.5 12t29.5 -12t12.5 -30zM258 322q0 -18 -12.5 -30t-29.5 -12t-29.5 12t-12.5 30 q0 17 12.5 29t29.5 12t29.5 -12t12.5 -29zM554 322q0 -18 12 -30t29 -12q18 0 30 12.5t12 29.5q0 18 -12.5 29.5t-29.5 11.5t-29 -12.5t-12 -28.5zM427 69q-18 0 -29.5 -12.5t-11.5 -29.5q0 -18 12 -29.5t29 -11.5q18 0 30 12t12 29q1 17 -11.5 29.5t-30.5 12.5zM808 69 q-18 0 -30 -12.5t-12 -29.5q0 -18 12.5 -29.5t29.5 -11.5q18 0 30 12t12 29t-12.5 29.5t-29.5 12.5z" />
</svg>