<svg viewBox="0 0 256 256" xmlns="http://www.w3.org/2000/svg">
  <path transform="scale(1, -1) translate(0, -256)" fill="currentColor" d="M12 226q7 0 16 -32q7 -20 12 -28q7 -14 18.5 -14t18.5 14q5 8 11 28l1 2q5 15 7 20q5 10 9 10q7 0 16 -32q7 -20 11 -28q8 -14 19 -14t19 14q5 8 11 28l1 2q4 15 7 20q5 10 9 10q7 0 16 -32q6 -20 11 -28q8 -14 19 -14q3 0 5 2.5t2 5.5t-2 5t-5 2q-7 0 -16 32 q-7 20 -11 28q-8 14 -19.5 14t-18.5 -13q-5 -9 -11 -29l-1 -2q-5 -14 -7 -20q-5 -10 -9 -10q-7 0 -16 32l-1 2q-6 20 -11 27q-7 12 -18 12t-19 -13q-5 -8 -11 -29l-1 -2q-4 -14 -7 -20q-5 -10 -9 -10q-7 0 -16 32q-6 21 -11 29q-8 13 -19 13q-3 0 -5 -2t-2 -5t2 -5t5 -2z M244 30q-7 0 -16 32q-7 20 -11 28q-8 14 -19.5 14t-18.5 -14q-5 -8 -11 -28l-1 -2q-5 -15 -7 -20q-5 -10 -9 -10q-7 0 -16 32q-7 20 -11 28q-8 14 -19 14t-19 -14q-5 -8 -11 -28l-1 -2q-4 -15 -7 -20q-5 -10 -9 -10q-7 0 -16 32q-6 20 -11 28q-8 13 -19 13q-3 0 -5 -2t-2 -5 t2 -5t5 -2q7 0 16 -32q7 -20 12 -28q7 -14 18.5 -14t18.5 13q5 9 11 29l1 2q5 14 7 20q5 10 9 10q7 0 16 -32q7 -20 11 -28q8 -14 19 -14t19 13q5 9 11 29l1 2q4 14 7 20q5 10 9 10q7 0 16 -32q6 -20 11 -28q8 -14 19 -14q3 0 5 2t2 5t-2 5.5t-5 2.5zM44 234q0 -5 3 -8t7 -3 t7 3t3 7.5t-3 7.5t-7 3t-7 -3t-3 -7zM149 223q5 0 8 3t3 7.5t-3.5 7.5t-7.5 3t-7 -3.5t-3 -7.5t3 -7t7 -3zM96 160q0 -5 3.5 -8t7.5 -3t7 3t3 7.5t-3 7.5t-7 3t-7.5 -3t-3.5 -7zM192 160q0 -5 3 -8t7 -3t7 3t3 7.5t-3 7.5t-7 3t-7 -3t-3 -7zM44 96q0 -4 3 -7t7 -3t7 3t3 7.5 t-3 7.5t-7 3t-7 -3t-3 -8zM138 96q0 -4 3.5 -7t7.5 -3t7 3t3 7.5t-3 7.5t-7 3t-7.5 -3t-3.5 -8zM107 33q-5 0 -8 -3t-3 -7.5t3.5 -7.5t7.5 -3t7 3.5t3.5 7.5t-3 7t-7.5 3zM202 33q-4 0 -7 -3t-3 -7.5t3 -7.5t7 -3t7 3.5t3 7.5t-3 7t-7 3z" />
</svg>