<svg viewBox="0 0 1024 1024" xmlns="http://www.w3.org/2000/svg">
  <path transform="scale(1, -1) translate(0, -960)" fill="currentColor" d="M989 472l-90 158q1 2 1.5 5t0.5 8q0 10 -8.5 18.5t-18.5 8.5l-103 176q1 2 1.5 5t0.5 5q0 12 -8.5 19.5t-18.5 7.5q-8 0 -13 -3t-10 -8h-192q-2 4 -6.5 6t-10.5 2q-8 0 -13 -3t-8 -8h-192q-5 6 -11 8.5t-12 2.5q-12 0 -19.5 -8t-7.5 -19q0 -1 1 -4t1 -6l-103 -176 q-7 -3 -12 -9.5t-5 -15.5v-2v0l-95 -166q-9 -2 -15.5 -9.5t-6.5 -18.5q0 -9 6.5 -17.5t15.5 -9.5l100 -171q-2 -1 -2 -3.5v-6.5q0 -9 6.5 -17.5t15.5 -9.5l93 -163q-1 -1 -1 -4v-6q0 -12 8 -19.5t19 -7.5q7 0 12 3t9 7h193q5 -4 10 -7t13 -3q4 0 10.5 3t9.5 7h194 q4 -4 9.5 -7t11.5 -3q12 0 19.5 8.5t7.5 18.5v4t-2 3l93 163q10 1 16.5 8.5t6.5 18.5q0 1 -0.5 4t-1.5 6l99 171q10 1 16.5 8.5t6.5 18.5t-6 19t-15 10v0zM269 93l-79 137h79v-137zM269 243h-79q0 1 -0.5 2t-0.5 5l81 86v-93h-1v0zM269 357l-93 -98l-3 3t-3 2l-100 176 q2 1 2 3v3v4v3l94 163q4 0 7.5 1t5.5 4l90 -95v-169v0zM269 544l-82 86q1 4 3 7.5t2 5.5v2l80 27zM269 688l-79 -27l79 137v-110zM861 619l1 -1l-64 -303l-115 122zM520 264l21 -22h-43zM520 286l-152 156l144 152l152 -159l-144 -149v0zM528 275l142 149l122 -128l-8 -53 h-224zM734 829q2 -3 2.5 -3h4.5l104 -183v-1q0 -4 1 -8t4 -5l-176 -183l-152 159l212 224v0zM718 834l-204 -220l-104 109l302 109h6v2v0zM494 834q4 -4 8.5 -5.5t9.5 -1.5t9.5 1.5t8.5 5.5h136l-268 -98l-92 98h188v0zM285 822l1 2q2 0 2.5 1t2.5 1l93 -98l-99 -37v131v0z M285 677l110 40l109 -115l-147 -152l-74 78q1 0 1.5 74.5l0.5 74.5v0zM285 510l65 -67l-65 -70v137v0zM285 352l77 82l152 -156l-32 -32h-197v106v0zM296 58q-1 1 -4.5 3t-6.5 3l-2 2v164h183l-170 -172v0zM531 58q-3 3 -8 4.5t-9 1.5q-5 0 -9.5 -1.5t-8.5 -4.5h-176 l166 171h71l166 -171h-192v0zM750 78l-6 -12q-1 0 -3 -1t-3 -1l-164 166h208l-32 -152v0zM773 120l22 110h40zM835 243h-38l6 39l32 -32q3 -2 1.5 -3t-1.5 -4v0zM955 438l-102 -174q-1 -1 -3 -1.5t-4 -0.5l-38 40l64 296l82 -142q0 -1 -1 -3t-1 -3q1 -6 2 -8t1 -4v0z" />
</svg>