<svg viewBox="0 0 1024 1024" xmlns="http://www.w3.org/2000/svg">
  <path transform="scale(1, -1) translate(0, -960)" fill="currentColor" d="M875 928h-617q-30 0 -55 -15.5t-38 -42.5l-112 -225q-7 -15 -6 -30t9 -28t22 -21t29 -8h264v-510q0 -34 23.5 -57t56.5 -23h125q34 0 57 23t23 57v510h221q43 0 73.5 30.5t30.5 73.5v162q-1 43 -32.5 73.5t-73.5 30.5v0zM622 48q0 -20 -13.5 -34t-34.5 -14h-124 q-21 0 -34.5 14t-13.5 34v510h220v-510zM947 662q0 -30 -21 -51t-51 -21h-769q-8 0 -14.5 3.5t-9.5 9.5q-4 6 -5 13t3 14l112 226q10 18 27.5 29t38.5 11h617q30 0 51 -21t21 -51v-162z" />
</svg>