<svg viewBox="0 0 256 256" xmlns="http://www.w3.org/2000/svg">
  <path transform="scale(1, -1) translate(0, -256)" fill="currentColor" d="M228 103h-146v119q0 7 -5.5 13t-13.5 6h-39q-8 -1 -13.5 -6.5t-5.5 -12.5v-183q0 -10 7 -16.5t16 -6.5h200q9 0 16 6.5t7 16.5v41q0 10 -7 16.5t-16 6.5zM54 30h-26q-4 0 -6.5 2.5t-2.5 6.5v183q0 2 1.5 3.5t3.5 1.5h39q2 0 3.5 -1.5t1.5 -3.5v-192h-14zM237 39 q0 -4 -2.5 -6.5t-6.5 -2.5h-20v35q0 3 -2 5t-5 2t-5 -2t-2 -5v-35h-23v19q0 3 -2 5t-5 2t-5.5 -2t-2.5 -5v-19h-23v35q0 3 -2 5t-5 2t-4.5 -2t-1.5 -5v-35h-38v60h146q4 0 6.5 -3t2.5 -7v-41z" />
</svg>