<svg viewBox="0 0 256 256" xmlns="http://www.w3.org/2000/svg">
  <path transform="scale(1, -1) translate(0, -256)" fill="currentColor" d="M100 166q0 -11 8.5 -19.5t20.5 -8.5t20 8.5t8 20t-8 20t-20 8t-20.5 -8.5t-8.5 -20zM143 166q0 -6 -4.5 -10t-10.5 -4t-10 4t-4 10t4 10.5t10 4.5t10.5 -4.5t4.5 -10.5zM249 92l-19 19q-4 3 -8 1l-21 -9q-3 -1 -4 -3.5t0.5 -5.5t4 -4t5.5 0l8 4q-11 -30 -39 -46v40 q0 15 -10 26t-24 11h-30q-14 0 -24 -11t-10 -26v-39q-13 9 -23 21.5t-15 28.5q-1 3 -3.5 4.5t-5.5 0.5t-4 -4t-1 -5q11 -33 39.5 -53.5t63 -20.5t62 19.5t39.5 51.5l9 -9q2 -2 4.5 -2t5 1.5t2.5 4.5t-2 5zM93 42v46q0 9 5.5 15.5t13.5 6.5h14l-7 -19q-1 -4 0 -7l5 -18 q1 -3 4 -3t4 3l5 18q1 4 0 7l-7 19h14q8 0 13.5 -6.5t5.5 -15.5v-47q-17 -7 -35 -7t-35 8zM34 134l22 12q3 1 4 4t-0.5 5.5t-4.5 3t-5 -0.5l-12 -6q9 31 34 50.5t57 19.5t57.5 -20t33.5 -52q1 -2 3.5 -3.5t5 -1t4 3t1.5 5.5q-6 23 -21.5 41.5t-37.5 29t-46 10.5 q-37 0 -66 -22t-38 -58l-8 8q-2 2 -5 2t-5 -2t-2 -5t2 -5l19 -19q2 -2 4 -2z" />
</svg>