<svg viewBox="0 0 256 256" xmlns="http://www.w3.org/2000/svg">
  <path transform="scale(1, -1) translate(0, -256)" fill="currentColor" d="M234 163q7 0 12 5.5t5 12.5v13q0 6 -3.5 10.5t-8.5 6.5l-128 39q-3 1 -5 1h-52q-7 0 -12.5 -5t-5.5 -12v-53q0 -7 5.5 -12.5t12.5 -5.5h14v-81h-44q-8 0 -13.5 -5.5t-5.5 -13.5v-39q0 -8 5.5 -13.5t13.5 -5.5h102q8 0 14 5.5t6 13.5v39q0 8 -6 13.5t-14 5.5h-44v81h124 v-47q0 -6 3.5 -10.5t9.5 -6.5q9 -2 14.5 -10.5t3.5 -17.5q-1 -8 -7 -13.5t-13 -6.5q-12 -2 -20.5 5.5t-8.5 18.5q0 5 1.5 8t0 6t-4.5 3.5t-5.5 -0.5t-3.5 -4q-2 -5 -2 -13t4 -16t10 -13q11 -10 25 -10q5 0 7 1q12 2 20.5 11t10.5 20q3 15 -5 28t-23 17q-3 1 -3 3v47h14z M132 63v-39q0 -2 -1.5 -3.5t-4.5 -1.5h-102q-2 0 -3.5 1.5t-1.5 3.5v39q0 2 1.5 3.5t3.5 1.5h102q2 0 4 -1.5t2 -3.5zM237 194v-13q0 -2 -1 -3t-2 -1h-120v57l120 -37q3 0 3 -3zM51 181v53q0 1 1 2t2 1h46v-60h-46q-1 0 -2 1t-1 3z" />
</svg>