<svg viewBox="0 0 256 256" xmlns="http://www.w3.org/2000/svg">
  <path transform="scale(1, -1) translate(0, -256)" fill="currentColor" d="M219 251h-155q-8 0 -15 -4.5t-11 -11.5l-28 -57q-4 -8 1.5 -16.5t14.5 -8.5h63v-125q0 -10 7 -16.5t16 -6.5h32q9 0 16 6.5t7 16.5v125h52q12 0 20.5 8.5t8.5 20.5v40q0 12 -8.5 20.5t-20.5 8.5zM152 28q0 -4 -2.5 -6.5t-6.5 -2.5h-31q-4 0 -6.5 2.5t-2.5 6.5v125h49 v-125zM234 182q0 -7 -4.5 -11t-10.5 -4h-193q-1 0 -2 0.5t-1.5 1.5t0.5 4l28 56q2 4 5.5 6.5t7.5 2.5h155q6 0 10.5 -4.5t4.5 -10.5v-41z" />
</svg>