<svg viewBox="0 0 1024 1024" xmlns="http://www.w3.org/2000/svg">
  <path transform="scale(1, -1) translate(0, -960)" fill="currentColor" d="M910 338h-592v484q0 27 -18.5 45.5t-45.5 18.5h-158q-26 0 -45 -18.5t-19 -45.5v-731q0 -33 23 -56.5t57 -23.5h797q33 0 57 24t24 58v163q2 34 -22 58t-58 24zM216 42h-104q-20 0 -34 13.5t-14 34.5v732q0 14 9.5 23t22.5 9h157q13 0 22.5 -9t9.5 -23v-500v0v0v0v0v-280 h-69v0zM960 93q0 -21 -14.5 -35.5t-35.5 -14.5h-88v152q0 7 -4 11.5t-12 4.5q-7 0 -11.5 -4.5t-4.5 -11.5v-152h-118v88q0 7 -4.5 11.5t-11.5 4.5t-11.5 -4.5t-4.5 -11.5v-88h-117v152q0 7 -4.5 11.5t-11.5 4.5t-11.5 -4.5t-4.5 -11.5v-152h-174v263h592q20 0 34.5 -15 t14.5 -35v-163h2z" />
</svg>