<svg viewBox="0 0 256 256" xmlns="http://www.w3.org/2000/svg">
  <path transform="scale(1, -1) translate(0, -256)" fill="currentColor" d="M196 251h-136q-10 0 -17 -7t-7 -16v-200q0 -10 7 -17t17 -7h136q10 0 17 7t7 17v200q0 10 -7 16.5t-17 6.5zM206 28q0 -4 -3 -6.5t-7 -2.5h-136q-4 0 -7 2.5t-3 6.5v200q0 4 3 6.5t7 2.5h136q4 0 7 -2.5t3 -6.5v-200zM170 198h-67v4q0 3 -2 5t-5 2t-5 -2t-2 -5v-4h-4 q-3 0 -5 -2t-2 -5t2 -5t5 -2h4v-4q0 -3 2 -5t5 -2t5 2t2 5v4h67q3 0 5 2t2 5t-2 5t-5 2zM170 135h-3v3q0 3 -2 5.5t-5 2.5t-5.5 -2.5t-2.5 -5.5v-3h-66q-3 0 -5.5 -2t-2.5 -5t2.5 -5.5t5.5 -2.5h66v-3q0 -3 2.5 -5t5.5 -2t5 2t2 5v3h3q3 0 5.5 2.5t2.5 5.5t-2.5 5t-5.5 2z M170 72h-67v3q0 3 -2 5t-5 2t-5 -2t-2 -5v-3h-4q-3 0 -5 -2.5t-2 -5.5t2 -5t5 -2h4v-3q0 -3 2 -5.5t5 -2.5t5 2.5t2 5.5v3h67q3 0 5 2t2 5t-2 5.5t-5 2.5z" />
</svg>