<svg viewBox="0 0 1024 1024" xmlns="http://www.w3.org/2000/svg">
  <path transform="scale(1, -1) translate(0, -960)" fill="currentColor" d="M870 827h-140v93q0 7 -4.5 11.5t-11.5 4.5h-400q-8 0 -12 -4.5t-4 -11.5v-93h-144q-8 0 -12 -4.5t-4 -11.5v-101q0 -46 15 -89q15 -42 42.5 -76.5t65.5 -58.5t83 -33q25 -63 64 -119.5t88 -103.5v-206q0 -7 4.5 -11.5t11.5 -4.5t11.5 4.5t4.5 11.5v206q52 47 90.5 104 t64.5 120q45 11 82 35q38 24 65 58.5t43 77.5q15 42 15 89v97q-1 7 -5.5 11.5t-12.5 4.5v0zM170 710v85h128v-104q0 -51 8 -102t25 -99q-72 21 -116.5 82.5t-44.5 137.5v0zM512 259q-44 42 -78 91q-34 50 -57.5 105t-36.5 115q-12 59 -12 121v213h370v-211q-1 -63 -13 -123 q-13 -60 -36.5 -115t-57.5 -104q-35 -50 -79 -92zM854 714q0 -76 -44 -137.5t-114 -85.5q16 48 24 98.5t10 101.5v104h124v-81zM530 773q-5 2 -9.5 1t-8.5 -4l-53 -53q-5 -5 -5 -11.5t5 -11.5q5 -4 11.5 -4t11.5 4l25 26v-120q0 -7 4.5 -11.5t11.5 -4.5t11.5 4.5t4.5 11.5 v158q0 5 -3 9.5t-6 5.5zM712 8h-400q-7 0 -11.5 -4.5t-4.5 -11.5t4.5 -11.5t11.5 -4.5h402q7 0 11.5 4.5t4.5 11.5t-5.5 11.5t-12.5 4.5z" />
</svg>