<svg viewBox="0 0 256 256" xmlns="http://www.w3.org/2000/svg">
  <path transform="scale(1, -1) translate(0, -256)" fill="currentColor" d="M218 226h-32v20q0 3 -2.5 5t-5.5 2h-100q-3 0 -5 -2t-2 -5v-20h-33q-3 0 -5 -2t-2 -5v-25q0 -24 15 -43t38 -24q12 -30 37 -55v-51h-43q-3 0 -5 -2t-2 -5t2 -5.5t5 -2.5h100q3 0 5.5 2.5t2.5 5.5t-2.5 5t-5.5 2h-43v51q25 24 38 55q22 6 37 25t15 42v25q0 3 -2 5t-5 2z M45 194v18h26v-23q0 -22 7 -46q-15 7 -24 20.5t-9 30.5zM128 85q-20 21 -31.5 48t-11.5 56v50h87v-50q-1 -30 -12 -56.5t-32 -47.5zM211 194q0 -16 -9 -29.5t-23 -20.5q6 22 7 45v23h25v-18zM133 212q-4 2 -7 -2l-14 -13q-2 -2 -2 -5t2.5 -5t5 -2t4.5 2l2 2v-23q0 -3 2 -5 t5 -2t5 2t2 5v40q-1 4 -5 6z" />
</svg>