<svg viewBox="0 0 1024 1024" xmlns="http://www.w3.org/2000/svg">
  <path transform="scale(1, -1) translate(0, -960)" fill="currentColor" d="M786 928h-548q-33 0 -56.5 -23t-23.5 -57v-800q0 -34 23.5 -57t56.5 -23h548q33 0 56.5 23t23.5 57v800q0 34 -23.5 57t-56.5 23zM834 48q0 -20 -14 -34t-34 -14h-548q-20 0 -34 14t-14 34v800q0 20 14 34t34 14h548q20 0 34 -14t14 -34v-800zM682 717h-280v25 q0 8 -4.5 12t-11.5 4q-8 0 -12 -4t-4 -12v-25h-26q-7 0 -11.5 -4.5t-4.5 -11.5t4.5 -11.5t11.5 -4.5h26v-26q0 -7 4 -11.5t12 -4.5q7 0 11.5 4.5t4.5 11.5v26h280q7 0 11.5 4.5t4.5 11.5t-5 11.5t-11 4.5zM682 464h-26v26q0 7 -4.5 11.5t-11.5 4.5t-11.5 -4.5t-4.5 -11.5 v-26h-282q-7 0 -11.5 -4.5t-4.5 -11.5t4.5 -11.5t11.5 -4.5h280v-26q0 -7 4.5 -11.5t11.5 -4.5q8 0 12 4.5t4 11.5v26h26q7 0 11.5 4.5t4.5 11.5t-4 11.5t-10 4.5zM682 211h-280v26q0 7 -4.5 11.5t-11.5 4.5q-8 0 -12 -4.5t-4 -11.5v-26h-26q-7 0 -11.5 -4.5t-4.5 -11.5 t4.5 -11.5t11.5 -4.5h26v-25q0 -8 4 -12t12 -4q7 0 11.5 4t4.5 12v25h280q7 0 11.5 4.5t4.5 11.5t-5 11.5t-11 4.5z" />
</svg>