<svg viewBox="0 0 256 256" xmlns="http://www.w3.org/2000/svg">
  <path transform="scale(1, -1) translate(0, -256)" fill="currentColor" d="M128 251q-33 0 -61.5 -16.5t-45 -45t-16.5 -61.5t16.5 -61.5t45 -45t61.5 -16.5t61.5 16.5t45 45t16.5 61.5t-16.5 61.5t-45 45t-61.5 16.5zM128 19q-29 0 -54 14.5t-40 39.5t-15 55t15 54.5t39.5 39.5t54.5 15t55 -15t39.5 -40t14.5 -54.5t-14.5 -54.5t-39.5 -39.5 t-55 -14.5zM198 152v32q0 2 -1.5 4t-3.5 2h-130q-2 0 -3.5 -2t-1.5 -4v-32q0 -5 3 -8.5t7 -3.5h38q4 0 8 4t4 9v17h20v-17q0 -5 2.5 -9t6.5 -4h40q5 0 8 3.5t3 8.5zM137 96h-45q-11 0 -19 -8t-8 -18q0 -3 2 -5.5t5 -2.5t5.5 2.5t2.5 6.5t3.5 7.5t8.5 3.5h45q3 0 5 2t2 5 t-2 5t-5 2zM189 129q-2 2 -5.5 2t-5.5 -2q-6 -7 -11 -14q-7 -11 -7 -19q0 -10 7 -17t16.5 -7t17 7.5t7.5 16.5q0 8 -8 19q-5 7 -11 14zM184 86q-5 0 -7.5 3t-2.5 7.5t10 17.5q4 -5 7 -10t3 -8.5t-3 -6.5t-7 -3z" />
</svg>