<svg viewBox="0 0 256 256" xmlns="http://www.w3.org/2000/svg">
  <path transform="scale(1, -1) translate(0, -256)" fill="currentColor" d="M143 104q-3 0 -5 -2.5t-2 -5.5t2 -5t4.5 -2t4 -1t1.5 -2.5t-1.5 -2.5t-4 -1t-4.5 -2t-2 -5t2 -5t4.5 -2t4 -1.5t1.5 -2.5t-1.5 -2.5t-4 -1.5t-4.5 -2t-2 -5t2 -5t5 -2q8 0 13.5 5t5.5 11.5t-4 11.5q4 5 4 10q1 9 -5 14.5t-14 5.5zM128 251q-34 0 -62 -16.5t-45 -45 t-17 -61.5t17 -61.5t45 -45t61.5 -16.5t62 16.5t45 45t16.5 61.5t-17 61.5t-45 45t-61 16.5zM128 19q-30 0 -55 14.5t-40 39.5t-15 55t15 55t40 39.5t54.5 14.5t54.5 -14.5t40 -39.5t15 -55t-15 -55t-40 -39.5t-54 -14.5zM192 190h-130q-2 0 -3.5 -2t-1.5 -4v-32 q0 -5 3 -8.5t8 -3.5h38q4 0 7.5 4t3.5 9v17h20v-17q0 -6 3 -9.5t7 -3.5h40q4 0 7.5 3.5t3.5 8.5v32q0 2 -1.5 4t-4.5 2z" />
</svg>