<svg viewBox="0 0 1024 1024" xmlns="http://www.w3.org/2000/svg">
  <path transform="scale(1, -1) translate(0, -960)" fill="currentColor" d="M552 547q0 -21 11.5 -37t26.5 -16h160q17 0 29.5 15t12.5 35v125q0 11 -6 17.5t-15 6.5h-518q-9 0 -15 -7.5t-6 -16.5v-125q0 -20 12.5 -35t29.5 -15h152q15 0 29.5 16t14.5 37v67h80v-67h2zM822 390q-6 2 -12 -1.5t-7 -10.5q-9 -48 -34 -88t-61 -69.5t-81 -45.5 q-44 -17 -93 -17q-7 0 -11.5 -4t-4.5 -12q0 -7 4.5 -11.5t11.5 -4.5q55 0 105 19q49 18 89 50.5t67 77.5q28 45 39 98q2 6 -2 12t-10 7v0zM512 928q-99 0 -186 -38q-88 -38 -153 -103t-103 -153q-38 -87 -38 -186t38 -186q38 -88 103 -153t153 -103q87 -38 186 -38t186 38 q88 38 153 103t103 153q38 87 38 186t-38 186q-38 88 -103 153t-153 103q-87 38 -186 38zM512 0q-92 0 -174 35q-81 36 -142 97t-97 142q-35 82 -35 174t35 174q36 81 96.5 142t142.5 97q82 35 174 35t174 -35q81 -36 142 -96.5t97 -142.5q35 -82 35 -174t-35 -174 q-36 -81 -96.5 -142t-142.5 -97q-82 -35 -174 -35z" />
</svg>