<svg viewBox="0 0 1024 1024" xmlns="http://www.w3.org/2000/svg">
  <path transform="scale(1, -1) translate(0, -960)" fill="currentColor" d="M512 928q-99 0 -186 -38q-88 -38 -153 -103t-103 -153q-38 -87 -38 -186t38 -186q38 -88 103 -153t153 -103q87 -38 186 -38t186 38q88 38 153 103t103 153q38 87 38 186t-38 186q-38 88 -103 153t-153 103q-87 38 -186 38zM512 0q-92 0 -174 35q-81 36 -142 97t-97 142 q-35 82 -35 174t35 174q36 81 96.5 142t142.5 97q82 35 174 35t174 -35q81 -36 142 -96.5t97 -142.5q35 -82 35 -174t-35 -174q-36 -81 -96.5 -142t-142.5 -97q-82 -35 -174 -35zM792 546v124q0 11 -6 17.5t-15 6.5h-518q-9 0 -15 -7t-6 -17v-124q0 -21 12.5 -35.5 t29.5 -14.5h152q15 0 29.5 15.5t14.5 37.5v67h80v-67q0 -22 11.5 -37.5t27.5 -15.5h160q18 0 30.5 14.5t12.5 35.5v0zM504 307h-181q-7 0 -11.5 -4.5t-4.5 -11.5t4.5 -11.5t11.5 -4.5h181q7 0 11.5 4.5t4.5 11.5t-5 11.5t-11 4.5zM723 445q-9 -10 -40.5 -51t-31.5 -72 q0 -35 25 -60t60 -25t60 25t25 60q0 31 -32 72t-40 51q-6 5 -14 5t-12 -5v0zM734 269q-21 0 -36.5 15.5t-15.5 37.5q0 14 16.5 40t35.5 48q18 -22 35.5 -48t17.5 -40q0 -22 -15.5 -37.5t-37.5 -15.5z" />
</svg>