<svg viewBox="0 0 1024 1024" xmlns="http://www.w3.org/2000/svg">
  <path transform="scale(1, -1) translate(0, -960)" fill="currentColor" d="M674 368h-324q-15 0 -26.5 -11.5t-11.5 -26.5v-47q0 -33 24 -57t58 -24h235q33 0 57 24t24 57v47q2 15 -9.5 26.5t-26.5 11.5zM680 283q0 -20 -14.5 -34.5t-35.5 -14.5h-236q-21 0 -35.5 14.5t-14.5 34.5v47q0 2 2 4t4 2h324q2 0 4 -2t2 -4v-47v0zM512 928 q-99 0 -186 -38q-88 -38 -153 -103t-103 -153q-38 -87 -38 -186t38 -186q38 -88 103 -153t153 -103q87 -38 186 -38t186 38q88 38 153 103t103 153q38 87 38 186t-38 186q-38 88 -103 153t-153 103q-87 38 -186 38zM512 0q-92 0 -174 35q-81 36 -142 97t-97 142 q-35 82 -35 174t35 174q36 81 96.5 142t142.5 97q82 35 174 35t174 -35q81 -36 142 -96.5t97 -142.5q35 -82 35 -174t-35 -174q-36 -81 -96.5 -142t-142.5 -97q-82 -35 -174 -35zM771 696h-518q-9 0 -15 -7t-6 -17v-125q0 -20 12.5 -34.5t29.5 -14.5h152q15 0 29.5 15.5 t14.5 36.5v68h80v-68q0 -21 11.5 -36.5t27.5 -15.5h160q17 0 29 14.5t12 34.5v125q2 10 -4 17t-15 7z" />
</svg>