<svg viewBox="0 0 256 256" xmlns="http://www.w3.org/2000/svg">
  <path transform="scale(1, -1) translate(0, -256)" fill="currentColor" d="M128 251q-33 0 -61.5 -16.5t-45 -45t-16.5 -61.5t16.5 -61.5t45 -45t61.5 -16.5t61.5 16.5t45 45t16.5 61.5t-16.5 61.5t-45 45t-61.5 16.5zM128 19q-29 0 -54 14.5t-40 39.5t-15 55t15 54.5t39.5 39.5t54.5 15t55 -15t39.5 -40t14.5 -54.5t-14.5 -54.5t-39.5 -39.5 t-55 -14.5zM128 98q-16 0 -31 -5.5t-27 -16.5q-2 -2 -2 -5t2 -5t5 -2t5 2q21 18 48 18t48 -18q2 -2 5 -2t5 2t2 5t-2 5q-12 11 -27 16.5t-31 5.5zM193 190h-130q-2 0 -3.5 -2t-1.5 -4v-31q0 -5 3 -9t7 -4h38q4 0 8 4t4 10v16h20v-16q0 -6 2.5 -10t6.5 -4h40q4 0 7.5 4t3.5 9 v31q0 2 -1.5 4t-3.5 2z" />
</svg>