<svg viewBox="0 0 1024 1024" xmlns="http://www.w3.org/2000/svg">
  <path transform="scale(1, -1) translate(0, -960)" fill="currentColor" d="M638 280q0 24 -19.5 41t-47.5 17q-7 0 -11.5 -4.5t-4.5 -11.5q0 -8 4.5 -12t11.5 -4q15 0 25 -7.5t10 -18.5t-10 -18.5t-25 -7.5q-7 0 -11.5 -4t-4.5 -12q0 -7 4.5 -11.5t11.5 -4.5q15 0 25 -7t10 -18t-10 -18.5t-25 -7.5q-7 0 -11.5 -4.5t-4.5 -11.5t4.5 -11.5 t11.5 -4.5q28 0 47.5 17t19.5 41q0 12 -5.5 23t-14.5 18q9 8 14.5 19t5.5 23zM510 928q-99 0 -186 -38t-152.5 -103t-103.5 -153q-38 -87 -38 -186t38 -186q38 -88 103.5 -153t152.5 -103t186 -38t187 38q87 38 152.5 103t103.5 153q37 87 37 186t-37 186q-38 88 -103.5 153 t-152.5 103q-88 38 -187 38zM510 0q-92 0 -174 35q-81 36 -142 97t-96 142q-36 82 -36 174t36 174q35 81 96 142t142 97q82 35 174 35q93 0 174 -35q82 -36 143 -96.5t96 -142.5t35 -174t-35 -174q-35 -81 -96 -142t-143 -97q-81 -35 -174 -35zM770 696h-520q-9 0 -15 -7.5 t-6 -18.5v-126q0 -20 12.5 -35t28.5 -15h154q16 0 30.5 16t14.5 37v69h80v-69q0 -21 11.5 -37t26.5 -16h162q17 0 29 15t12 35v128q2 10 -4.5 17t-15.5 7z" />
</svg>