<svg viewBox="0 0 256 256" xmlns="http://www.w3.org/2000/svg">
  <path transform="scale(1, -1) translate(0, -256)" fill="currentColor" d="M138 153q0 -6 3 -9.5t7 -3.5h40q4 0 7 3.5t3 8.5v31q0 3 -1.5 4.5t-3.5 1.5h-130q-2 0 -3.5 -1.5t-1.5 -4.5v-31q0 -5 3 -8.5t7 -3.5h38q4 0 8 4t4 9v17h20v-17zM206 116q-3 1 -5.5 -0.5t-2.5 -4.5q-5 -23 -23 -38t-41 -15q-3 0 -5.5 -2t-2.5 -5t2.5 -5t5.5 -2 q28 0 50 18t28 46q0 3 -1.5 5.5t-4.5 2.5zM128 251q-33 0 -61.5 -16.5t-45 -45t-16.5 -61.5t16.5 -61.5t45 -45t61.5 -16.5t61.5 16.5t45 45t16.5 61.5t-16.5 61.5t-45 45t-61.5 16.5zM128 19q-29 0 -54 14.5t-40 39.5t-15 55t15 54.5t39.5 39.5t54.5 15t55 -15t39.5 -40 t14.5 -54.5t-14.5 -54.5t-39.5 -39.5t-55 -14.5z" />
</svg>