<svg viewBox="0 0 256 256" xmlns="http://www.w3.org/2000/svg">
  <path transform="scale(1, -1) translate(0, -256)" fill="currentColor" d="M228 163h-88v59q0 12 -8.5 20.5t-20.5 8.5h-77q-12 0 -20.5 -8.5t-8.5 -20.5v-91q0 -12 8.5 -20.5t20.5 -8.5h74v-74q0 -10 7 -16.5t16 -6.5h97q10 0 16.5 6.5t6.5 16.5v112q0 10 -6.5 16.5t-16.5 6.5zM34 116q-6 0 -10.5 4.5t-4.5 10.5v91q0 6 4.5 10.5t10.5 4.5h77 q6 0 10.5 -4.5t4.5 -10.5v-60q-8 -1 -13 -7.5t-5 -14.5v-24h-74zM237 28q0 -4 -2.5 -6.5t-6.5 -2.5h-97q-3 0 -6 2.5t-3 6.5v112q0 4 2.5 6.5t6.5 2.5h97q4 0 6.5 -2.5t2.5 -6.5v-112zM206 128h-53q-3 0 -5 -2t-2 -5t2 -5t5 -2h53q3 0 5.5 2t2.5 5t-2.5 5t-5.5 2zM206 91 h-53q-3 0 -5 -2t-2 -5t2 -5.5t5 -2.5h53q3 0 5.5 2.5t2.5 5.5t-2.5 5t-5.5 2zM206 53h-53q-3 0 -5 -2t-2 -5t2 -5t5 -2h53q3 0 5.5 2t2.5 5t-2.5 5t-5.5 2z" />
</svg>