<svg viewBox="0 0 1024 1024" xmlns="http://www.w3.org/2000/svg">
  <path transform="scale(1, -1) translate(0, -960)" fill="currentColor" d="M912 576h-365v246q0 44 -30.5 75t-74.5 31h-304q-45 0 -75.5 -30.5t-30.5 -75.5v-361q0 -43 30.5 -74.5t75.5 -31.5h307v-307q0 -34 23 -57t57 -23h387q34 0 57 23t23 57v448q0 34 -23 57t-57 23zM138 387q-30 0 -52 21.5t-22 52.5v361q0 32 21 53t53 21h305q30 0 52 -21 t22 -53v-248q-30 -3 -50.5 -25.5t-20.5 -52.5v-109h-308v0zM960 48q0 -20 -14 -34t-34 -14h-387q-21 0 -34.5 14t-13.5 34v448q0 20 13.5 34t34.5 14h387q20 0 34 -14t14 -34v-448zM826 437h-215q-7 0 -11.5 -4.5t-4.5 -11.5t4.5 -11.5t11.5 -4.5h215q7 0 11.5 4.5t4.5 11.5 t-4.5 11.5t-11.5 4.5zM826 286h-215q-7 0 -11.5 -4t-4.5 -12q0 -7 4.5 -11.5t11.5 -4.5h215q7 0 11.5 4.5t4.5 11.5q0 8 -4.5 12t-11.5 4zM826 136h-215q-7 0 -11.5 -4.5t-4.5 -11.5t4.5 -11.5t11.5 -4.5h215q7 0 11.5 4.5t4.5 11.5t-4.5 11.5t-11.5 4.5z" />
</svg>