<svg viewBox="0 0 1024 1024" xmlns="http://www.w3.org/2000/svg">
  <path transform="scale(1, -1) translate(0, -960)" fill="currentColor" d="M528 810q-5 4 -11.5 5t-10.5 -4q-5 -5 -6 -11t4 -11l146 -173q4 -6 7 -12t5 -14h-1.5h-1.5h-521q-45 2 -75.5 -29t-30.5 -75v-390q0 -7 4.5 -11.5t11.5 -4.5t11.5 4.5t4.5 11.5v390q0 30 21 52t53 22h520h1.5h1.5q-1 -7 -4.5 -13.5t-8.5 -12.5l-146 -172q-4 -5 -3.5 -12 t5.5 -11q2 -2 4.5 -2.5t5.5 -0.5t6.5 1.5t5.5 4.5l146 173q22 27 22 61t-22 61l-144 173v0zM970 637l-146 173q-5 4 -11.5 5t-10.5 -4q-5 -5 -6 -11t4 -11l146 -173q14 -18 14 -40.5t-14 -39.5l-146 -173q-5 -5 -4 -12t6 -10q2 -3 4.5 -3h4.5q4 0 7.5 1t5.5 5l146 173 q22 25 22 59t-22 61z" />
</svg>