<svg viewBox="0 0 1024 1024" xmlns="http://www.w3.org/2000/svg">
  <path transform="scale(1, -1) translate(0, -960)" fill="currentColor" d="M989 197q-5 5 -11.5 5.5t-11.5 -4.5l-187 -158q-6 -6 -13.5 -9t-15.5 -5v1.5v1.5v520q0 47 -33 79.5t-79 32.5h-572q2 8 5.5 15.5t8.5 13.5l158 187q5 5 4.5 12t-5.5 10q-5 5 -12 4t-11 -5l-158 -188q-24 -28 -24 -65t24 -64l158 -187q3 -3 6.5 -5t6.5 -2t6 1t4 2 q5 5 5.5 11.5t-4.5 11.5l-158 187q-5 6 -8.5 13t-5.5 16h571q33 0 56.5 -24t23.5 -56v-520v-1.5v-1.5q-9 1 -16 4.5t-13 9.5l-187 158q-5 5 -12 4.5t-11 -5.5q-3 -5 -3 -12t5 -11l189 -158q14 -12 30.5 -18t34.5 -6t35 6t31 18l187 158q5 4 5 10.5t-3 12.5v0z" />
</svg>