<svg viewBox="0 0 1024 1024" xmlns="http://www.w3.org/2000/svg">
  <path transform="scale(1, -1) translate(0, -960)" fill="currentColor" d="M968 710l-157 188q-5 4 -11 5t-11 -4t-6 -11t4 -11l157 -187q6 -8 9.5 -15t4.5 -16q-1 0 -2.5 1t-3.5 1h-565q-47 0 -79.5 -33.5t-32.5 -78.5v-520v-1.5v-1.5q-8 1 -15.5 4.5t-13.5 9.5l-188 158q-5 5 -12 4.5t-11 -5.5q-5 -5 -4 -12t6 -11l189 -158q14 -12 30.5 -18 t34.5 -6q17 0 34 6t32 18l187 158q5 5 5.5 11.5t-3.5 11.5q-5 5 -11.5 5.5t-11.5 -4.5l-187 -158q-6 -6 -14 -9t-15 -5v1.5v1.5v520q0 33 24 56.5t56 23.5h565h2.5t3.5 1q-1 -8 -4.5 -15.5t-9.5 -14.5l-158 -187q-5 -5 -4.5 -12t5.5 -11q3 -2 5 -2.5t5 -0.5t6.5 1.5t6.5 5.5 l158 187q24 27 24 64t-24 65v0z" />
</svg>