<svg viewBox="0 0 1024 1024" xmlns="http://www.w3.org/2000/svg">
  <path transform="scale(1, -1) translate(0, -960)" fill="currentColor" d="M928 307h-42q-8 0 -16 -2.5t-16 -6.5q-18 22 -56 69t-80 97.5t-78 94.5q-37 44 -51 60q3 7 5.5 15t2.5 17v42q0 26 -19 45t-45 19h-42q-26 0 -45 -19t-19 -45v-42q0 -9 2.5 -17.5t7.5 -15.5l-264 -320q-7 4 -15.5 6.5t-16.5 2.5h-45q-26 0 -45 -18.5t-19 -45.5v-41 q0 -27 19 -45.5t45 -18.5h42q26 0 45 18.5t19 45.5v41q0 9 -2.5 17t-5.5 15l265 322q7 -4 15 -6t17 -2h42q9 0 17.5 2.5t15.5 6.5q12 -14 42 -50q29 -35 67 -81t79 -96q42 -50 78 -94q-4 -7 -6 -15.5t-2 -16.5v-42q0 -26 19 -45t45 -19h40q26 0 45 19t19 45v42 q0 25 -19 43.5t-45 18.5zM170 202q0 -14 -9.5 -23t-22.5 -9h-42q-13 0 -22.5 9t-9.5 23v41q0 13 9.5 22.5t22.5 9.5h42q13 0 22.5 -9.5t9.5 -22.5v-41zM533 621h-42q-13 0 -22.5 9.5t-9.5 22.5v41q0 14 9.5 23t22.5 9h42q13 0 22.5 -9t9.5 -23v-41q0 -13 -9.5 -22.5 t-22.5 -9.5zM960 202q0 -14 -9.5 -23t-22.5 -9h-42q-13 0 -22.5 9t-9.5 23v41q0 13 9.5 22.5t22.5 9.5h42q13 0 22.5 -9.5t9.5 -22.5v-41z" />
</svg>