<svg viewBox="0 0 1024 1024" xmlns="http://www.w3.org/2000/svg">
  <path transform="scale(1, -1) translate(0, -960)" fill="currentColor" d="M944 291l-158 189q-5 5 -11.5 5.5t-11.5 -3.5q-5 -5 -5.5 -11.5t4.5 -11.5l158 -187q6 -6 9 -14t5 -15h-1.5h-1.5h-520q-33 0 -56.5 24t-23.5 56v565v2.5t-1 3.5q8 -1 15.5 -4.5t14.5 -9.5l187 -158q3 -3 5 -3.5t5 -0.5t6.5 1.5t6.5 5.5q4 5 3.5 12t-5.5 10l-189 157 q-29 24 -65.5 24t-63.5 -24l-188 -157q-4 -5 -5 -11t4 -11t11 -6t11 4l187 157q8 6 15 9.5t16 4.5q0 -1 -1 -2.5t-1 -3.5v-565q0 -47 33.5 -79.5t78.5 -32.5h520h1.5h1.5q-1 -8 -4.5 -15.5t-9.5 -13.5l-158 -187q-5 -5 -4.5 -12t5.5 -10q3 -3 5 -3h5t6.5 1t6.5 5l158 186 q24 27 24 64.5t-24 64.5v0z" />
</svg>