<svg viewBox="0 0 1024 1024" xmlns="http://www.w3.org/2000/svg">
  <path transform="scale(1, -1) translate(0, -960)" fill="currentColor" d="M986 722l-188 158q-28 24 -65 24t-64 -24l-189 -158q-5 -5 -5.5 -11.5t3.5 -11.5q3 -2 6.5 -4t6.5 -2t6 1t4 2l187 158q6 6 14 9t15 6v-1.5v-1.5v-520q0 -34 -24 -57t-56 -23h-565q-1 0 -2.5 -0.5t-3.5 -1.5q1 8 4.5 15.5t9.5 14.5l158 188q5 4 4.5 11t-5.5 11 q-5 5 -12 4t-11 -6l-158 -187q-24 -29 -24 -65.5t24 -63.5l158 -188q3 -2 6.5 -4t6.5 -2t6 1t4 2q5 5 5.5 11.5t-4.5 11.5l-158 188q-6 8 -9.5 15t-4.5 16q1 0 2.5 -1t3.5 -1h565q47 0 79.5 33.5t32.5 78.5v520v1.5v1.5q8 -1 15.5 -4.5t13.5 -9.5l187 -158q5 -5 12 -4.5 t10 5.5q4 5 4.5 12t-5.5 11v0z" />
</svg>