<svg viewBox="0 0 256 256" xmlns="http://www.w3.org/2000/svg">
  <path transform="scale(1, -1) translate(0, -256)" fill="currentColor" d="M232 96h-10q-5 0 -8 -2l-64 78q2 3 2 7v11q0 7 -5.5 13t-13.5 6h-11q-7 0 -13 -5.5t-6 -13.5v-11q0 -3 2 -8l-63 -77q-3 2 -8 2h-10q-8 0 -13.5 -5.5t-5.5 -13.5v-11q0 -7 5.5 -13t13.5 -6h10q8 0 14 5.5t6 13.5v11q0 4 -2 7l64 77q3 -1 7 -1h10q5 0 8 2q9 -11 63 -78 q-1 -3 -1 -7v-11q0 -7 5.5 -13t13.5 -6h10q8 0 13.5 5.5t5.5 13.5v11q0 8 -5.5 13.5t-13.5 5.5zM40 66q0 -2 -1.5 -3.5t-4.5 -1.5h-10q-2 0 -3.5 1.5t-1.5 3.5v11q0 2 1.5 3.5t3.5 1.5h10q3 0 4.5 -1.5t1.5 -3.5v-11zM138 179q0 -2 -1.5 -3.5t-3.5 -1.5h-11q-2 0 -3.5 1.5 t-1.5 3.5v11q0 2 1.5 3.5t3.5 1.5h11q2 0 3.5 -1.5t1.5 -3.5v-11zM237 66q0 -2 -1.5 -3.5t-3.5 -1.5h-10q-2 0 -4 1.5t-2 3.5v11q0 2 2 3.5t4 1.5h10q2 0 3.5 -1.5t1.5 -3.5v-11z" />
</svg>