<svg viewBox="0 0 1024 1024" xmlns="http://www.w3.org/2000/svg">
  <path transform="scale(1, -1) translate(0, -960)" fill="currentColor" d="M862 0h-388q-30 0 -52 21t-22 53v520v1.5v1.5q7 -1 13.5 -4.5t12.5 -8.5l172 -146q5 -4 12 -3.5t11 5.5q3 5 3 12t-5 10l-173 146q-26 23 -60.5 23t-60.5 -23l-175 -144q-4 -5 -5 -11.5t4 -10.5q2 -3 5.5 -5t7.5 -2q2 0 5 1t4 2l173 146q6 5 12 7.5t14 5.5v-1.5v-1.5 v-520q0 -44 30.5 -75t74.5 -31h391q7 0 11.5 4.5t4.5 11.5t-6 11.5t-14 4.5v0zM162 733q2 0 5 1t4 2l173 146q18 14 40.5 14t39.5 -14l173 -146q5 -5 12 -4t10 6q4 4 3.5 11t-4.5 11l-173 146q-27 22 -61 22t-61 -22l-173 -146q-4 -5 -5 -11.5t4 -10.5q2 -3 5.5 -4t7.5 -1v0 z" />
</svg>