<svg viewBox="0 0 1024 1024" xmlns="http://www.w3.org/2000/svg">
  <path transform="scale(1, -1) translate(0, -960)" fill="currentColor" d="M886 592h-520h-1.5h-1.5q1 7 4.5 13.5t8.5 12.5l146 172q4 5 3.5 12t-5.5 11q-6 3 -12.5 2t-11.5 -5l-146 -173q-22 -27 -22 -61t22 -61l146 -173q2 -2 5.5 -4t7.5 -2q2 0 5 1t4 2q5 5 6 11.5t-4 11.5l-146 172q-4 6 -7 12.5t-5 13.5h1.5h1.5h520q30 0 51.5 -21t21.5 -53 v-390q0 -7 4.5 -11.5t11.5 -4.5q8 0 12 4.5t4 11.5v390q2 44 -28.5 75t-75.5 31v0zM78 536q-14 18 -14 40.5t14 39.5l146 173q5 5 4 12t-6 10q-4 5 -11 4t-11 -5l-146 -173q-22 -27 -22 -61t22 -61l146 -173q2 -2 5.5 -4t7.5 -2q2 0 5 1t4 2q5 5 6 11.5t-4 11.5l-146 174v0z " />
</svg>