<svg viewBox="0 0 1024 1024" xmlns="http://www.w3.org/2000/svg">
  <path transform="scale(1, -1) translate(0, -960)" fill="currentColor" d="M938 496v0.5t0 -0.5v1.5v0.5q0 1 -0.5 2t-1.5 2v1v1q0 1 -1 2.5t-2 2.5l-363 393q-12 12 -26.5 19t-31.5 7v0v0q-17 0 -31.5 -7t-26.5 -19l-364 -393q-2 -1 -2 -2.5t-2 -2.5v-1v-1v-2t-1 -2v-0.5v-1.5v0v0v-2.5t1 -2.5v0v0v0v0q0 -1 1 -2l3 -3v0l1 -1l1.5 -1.5t1.5 -0.5 h1h1q1 0 2.5 -0.5t2.5 -0.5q27 0 46 -20t19 -46v-352q0 -40 28.5 -68t67.5 -28h496q40 0 68 28t28 68v350q0 28 20 47t46 19h2.5t2.5 2h0.5h0.5q2 0 2 0.5t2 0.5l0.5 0.5t0.5 1.5q1 1 1.5 2l1.5 3v0v0v0v0q3 2 3.5 3.5t0.5 2.5v0zM478 882q8 7 16 10.5t18 3.5v0 q10 0 18 -3.5t16 -10.5l339 -368h-746l339 368v0zM611 0h-198v114q0 40 29 69.5t70 29.5t70 -29.5t29 -69.5v-114v0zM824 414v-350q0 -26 -19 -45t-45 -19h-117v114q0 54 -38.5 92.5t-92.5 38.5t-92.5 -38.5t-38.5 -92.5v-114h-117q-26 0 -45 19t-19 45v350q0 20 -7 36.5 t-19 29.5h676q-12 -12 -19 -29t-7 -37v0z" />
</svg>