<svg viewBox="0 0 1024 1024" xmlns="http://www.w3.org/2000/svg">
  <path transform="scale(1, -1) translate(0, -960)" fill="currentColor" d="M176 928q-31 0 -53 -22t-22 -53v-47q0 -26 17 -46.5t42 -26.5v-570q-25 -6 -42 -26t-17 -47v-47q0 -31 22 -53t53 -22t53 22t22 53v47q0 26 -17 46.5t-42 26.5v570q25 6 42 26t17 47v47q0 31 -22 53t-53 22v0zM219 90v-47q0 -18 -12.5 -30.5t-30.5 -12.5t-30.5 12.5 t-12.5 30.5v47q0 18 12.5 30.5t30.5 12.5t30.5 -12.5t12.5 -30.5zM219 806q0 -18 -12.5 -30.5t-30.5 -12.5t-30.5 12.5t-12.5 30.5v47q0 18 12.5 30.5t30.5 12.5t30.5 -12.5t12.5 -30.5v-47zM512 928q-31 0 -53 -22t-22 -53v-47q0 -26 17 -46.5t42 -26.5v-570 q-25 -6 -42 -26t-17 -47v-47q0 -31 22 -53t53 -22t53 22t22 53v47q0 26 -17 46.5t-42 26.5v570q25 6 42 26t17 47v47q0 31 -22 53t-53 22v0zM555 90v-47q0 -18 -12.5 -30.5t-30.5 -12.5t-30.5 12.5t-12.5 30.5v47q0 18 12.5 30.5t30.5 12.5t30.5 -12.5t12.5 -30.5zM555 806 q0 -18 -12.5 -30.5t-30.5 -12.5t-30.5 12.5t-12.5 30.5v47q0 18 12.5 30.5t30.5 12.5t30.5 -12.5t12.5 -30.5v-47zM923 806v47q0 31 -22 53t-53 22t-53 -22t-22 -53v-47q0 -26 17 -46.5t42 -26.5v-570q-25 -6 -42 -26t-17 -47v-47q0 -31 22 -53t53 -22t53 22t22 53v47 q0 26 -17 46.5t-42 26.5v570q25 6 42 26t17 47v0zM805 806v47q0 18 12.5 30.5t30.5 12.5t30.5 -12.5t12.5 -30.5v-47q0 -18 -12.5 -30.5t-30.5 -12.5t-30.5 12.5t-12.5 30.5zM891 90v-47q0 -18 -12.5 -30.5t-30.5 -12.5t-30.5 12.5t-12.5 30.5v47q0 18 12.5 30.5t30.5 12.5 t30.5 -12.5t12.5 -30.5z" />
</svg>