<svg viewBox="0 0 1024 1024" xmlns="http://www.w3.org/2000/svg">
  <path transform="scale(1, -1) translate(0, -960)" fill="currentColor" d="M934 509l-364 393q-12 12 -26.5 19t-31.5 7v0v0q-17 0 -31.5 -7t-26.5 -19l-364 -393q-4 -4 -4.5 -8.5t0.5 -9.5q3 -5 6.5 -7t8.5 -2h65v-383q0 -54 39 -92.5t93 -38.5h424q54 0 92.5 38.5t38.5 92.5v383h65q5 0 9.5 2t5.5 7q5 4 4.5 9t-3.5 9v0zM611 0h-198v114 q0 40 29 69.5t70 29.5t70 -29.5t29 -69.5v-114v0zM824 99q0 -41 -29 -70t-70 -29h-80v114q0 54 -38.5 92.5t-92.5 38.5t-93 -38.5t-39 -92.5v-114h-80q-40 0 -69.5 29t-29.5 70v383h624v-383h-3zM139 514l339 368q8 7 16 10.5t18 3.5v0q10 0 18 -3.5t16 -10.5l339 -368h-746 v0z" />
</svg>