<svg viewBox="0 0 256 256" xmlns="http://www.w3.org/2000/svg">
  <path transform="scale(1, -1) translate(0, -256)" fill="currentColor" d="M236 145l-92 99q-6 7 -16 7t-16 -7l-92 -99q-1 -1 -1.5 -3.5t0.5 -3.5q2 -4 7 -4h13v-93q0 -15 10.5 -25.5t25.5 -10.5h106q15 0 25.5 10.5t10.5 25.5v92h14q4 0 6 4.5t-1 7.5zM122 234q2 3 6 3t6 -3l80 -86h-172zM150 19h-44v25q0 9 6.5 15.5t15.5 6.5t15.5 -6.5 t6.5 -15.5v-25zM203 41q0 -9 -6.5 -15.5t-15.5 -6.5h-17v25q0 15 -10.5 25.5t-25.5 10.5t-25.5 -10.5t-10.5 -25.5v-25h-17q-9 0 -15.5 6.5t-6.5 15.5v92h150v-92z" />
</svg>