<svg viewBox="0 0 256 256" xmlns="http://www.w3.org/2000/svg">
  <path transform="scale(1, -1) translate(0, -256)" fill="currentColor" d="M238 140v0l-1 4l-93 100q-6 7 -16 7t-16 -7l-93 -100v-2v-3l1 -3l2 -2l4 -1q5 0 9 -4t4 -9v-88q0 -11 8 -19t19 -8h124q12 0 20 8t8 19v88q0 5 3.5 9t9.5 4l3 1h1l2 2q1 1 1 2v1q-1 1 0 1zM122 234q2 3 6 3t6 -3l80 -86h-172zM150 19h-44v25q0 9 6.5 15.5t15.5 6.5 t15.5 -6.5t6.5 -15.5v-25zM203 120v-88q0 -5 -4 -9t-9 -4h-26v25q0 15 -10.5 25.5t-25.5 10.5t-25.5 -10.5t-10.5 -25.5v-25h-26q-5 0 -9 4t-4 9v88q0 7 -4 13h157q-3 -7 -3 -13z" />
</svg>