<svg viewBox="0 0 1024 1024" xmlns="http://www.w3.org/2000/svg">
  <path transform="scale(1, -1) translate(0, -960)" fill="currentColor" d="M934 509l-364 393q-12 12 -26.5 19t-31.5 7v0v0q-17 0 -31.5 -7t-26.5 -19l-364 -393q-4 -4 -4.5 -8.5t0.5 -9.5q3 -5 6.5 -7t8.5 -2h65v-434q0 -34 23.5 -57t56.5 -23h528q34 0 57 23t23 57v434h66q5 0 9 2t5 7q4 4 3.5 9t-3.5 9v0zM611 0h-198v114q0 40 29 69.5 t70 29.5t70 -29.5t29 -69.5v-114v0zM840 514q-7 0 -11.5 -4.5t-4.5 -11.5v-450q0 -20 -14 -34t-34 -14h-133v114q0 54 -38.5 92.5t-92.5 38.5t-92.5 -38.5t-38.5 -92.5v-114h-133q-20 0 -34 14t-14 34v450q0 7 -4.5 11.5t-11.5 4.5h-45l339 368q8 7 16 10.5t18 3.5v0 q10 0 18 -3.5t16 -10.5l339 -368h-45v0z" />
</svg>