<svg viewBox="0 0 256 256" xmlns="http://www.w3.org/2000/svg">
  <path transform="scale(1, -1) translate(0, -256)" fill="currentColor" d="M44 251q-9 0 -15.5 -6.5t-6.5 -15.5v-11q0 -8 4.5 -13.5t10.5 -7.5v-137q-7 -3 -11 -9t-4 -13v-11q0 -9 6.5 -15.5t15.5 -6.5t15 6.5t6 15.5v11q0 8 -4 13.5t-11 7.5v138q7 2 11 7.5t4 12.5v12q0 9 -6 15.5t-15 6.5zM52 27q0 -3 -2.5 -5.5t-5.5 -2.5t-5.5 2.5t-2.5 5.5 v11q0 4 2.5 6t5.5 2t5 -2.5t2 -5.5v-11h1zM52 218q0 -4 -2.5 -6t-5.5 -2t-5.5 2t-2.5 6v11q0 3 2.5 5.5t5.5 2.5t5.5 -2.5t2.5 -5.5v-11zM128 251q-9 0 -15.5 -6.5t-6.5 -15.5v-11q0 -8 4.5 -13.5t10.5 -7.5v-137q-6 -3 -10.5 -8.5t-4.5 -12.5v-11q0 -9 6.5 -15.5t15.5 -6.5 t15.5 6.5t6.5 15.5v11q0 7 -4.5 12.5t-10.5 8.5v137q6 2 10.5 7.5t4.5 12.5v12q0 9 -6.5 15.5t-15.5 6.5zM136 27q0 -3 -2.5 -5.5t-5.5 -2.5t-5.5 2.5t-2.5 5.5v11q0 4 2.5 6t5.5 2t5.5 -2.5t2.5 -5.5v-11zM136 218q0 -4 -2.5 -6t-5.5 -2t-5.5 2.5t-2.5 5.5v11q0 3 2.5 5.5 t5.5 2.5t5.5 -2.5t2.5 -5.5v-11zM234 218v11q0 9 -6.5 15.5t-15.5 6.5t-15 -6.5t-6 -15.5v-11q0 -8 4 -13.5t11 -7.5v-137q-7 -3 -11 -8.5t-4 -12.5v-11q0 -9 6 -15.5t15 -6.5t15.5 6.5t6.5 15.5v11q0 7 -4 12.5t-11 8.5v137q7 2 11 8t4 13zM204 229q0 3 2.5 5.5t5.5 2.5 t5.5 -2.5t2.5 -5.5v-11q0 -4 -2.5 -6t-5.5 -2t-5 2.5t-2 5.5v11h-1zM220 27q0 -3 -2.5 -5.5t-5.5 -2.5t-5 2.5t-2 5.5v11q0 4 2 6t5 2t5.5 -2.5t2.5 -5.5v-11z" />
</svg>