<svg viewBox="0 0 1024 1024" xmlns="http://www.w3.org/2000/svg">
  <path transform="scale(1, -1) translate(0, -960)" fill="currentColor" d="M941 629l-42 141q-7 22 -26.5 37t-43.5 15h-146l-35 96q-1 4 -5.5 7t-8.5 3h-244q-4 0 -8.5 -3t-5.5 -8l-35 -96h-146q-24 0 -43.5 -14.5t-26.5 -38.5l-42 -141q-5 -17 -2 -34t13 -30q11 -14 26.5 -21.5t33.5 -7.5h32v-492q0 -30 21.5 -52t51.5 -22h509q30 0 52 22t22 52 v492h32q18 0 33 8t26 21q8 15 10.5 32t-2.5 34v0zM402 896h219l27 -75h-272zM614 0h-204v226q0 16 12 28.5t29 12.5h122q17 0 29 -12.5t12 -28.5v-226zM808 42q0 -17 -12.5 -29.5t-29.5 -12.5h-120v226q0 30 -21.5 51.5t-51.5 21.5h-122q-30 0 -51.5 -21.5t-21.5 -51.5v-226 h-120q-17 0 -29.5 12.5t-12.5 29.5v492h590v-492h2zM904 582q-6 -8 -14.5 -12t-19.5 -4h-716q-10 0 -19 4.5t-15 11.5q-6 9 -7.5 18.5t1.5 18.5l41 141q4 13 15 21t25 8h632q13 0 24 -8.5t16 -20.5l42 -141q3 -9 2 -18.5t-7 -18.5v0z" />
</svg>