<svg viewBox="0 0 1024 1024" xmlns="http://www.w3.org/2000/svg">
  <path transform="scale(1, -1) translate(0, -960)" fill="currentColor" d="M957 893q-23 23 -56 31q-33 7 -70 0.5t-75 -27.5t-71 -54q-30 -30 -51 -77q-20 -47 -32.5 -94t-19.5 -86q-6 -39 -8 -53l-537 -538q-5 -5 -5 -11t5 -11q2 -3 4.5 -4t6.5 -1t6.5 1t4.5 4l538 537q14 2 53 8q39 7 86 19.5t94 32.5q47 21 77 51q33 33 54 71q20 38 27 75 t0 70q-8 33 -31 56v0zM608 544q3 21 10 58q7 36 18.5 76.5t29.5 78.5q17 38 41 62q37 37 79 57t80 20q20 0 37.5 -6t30.5 -20q36 -36 21.5 -102.5t-72.5 -124.5q-24 -24 -62 -41q-38 -18 -78.5 -29.5t-76.5 -18.5q-37 -7 -58 -10z" />
</svg>