<svg viewBox="0 0 256 256" xmlns="http://www.w3.org/2000/svg">
  <path transform="scale(1, -1) translate(0, -256)" fill="currentColor" d="M244 43q-3 0 -5 -2t-2 -5v-18h-17q-3 0 -5 -2t-2 -5t2 -5t5 -2h24q3 0 5 2t2 5v24q0 4 -2 6t-5 2zM159 19h-62q-3 0 -5 -2t-2 -5t2 -5.5t5 -2.5h61q3 0 5.5 2.5t2.5 5.5t-2 5t-5 2zM36 19h-17v17q0 3 -2 5t-5 2t-5 -2t-2 -5v-24q0 -3 2 -5t5 -2h24q3 0 5.5 2t2.5 5 t-2.5 5t-5.5 2zM12 90q3 0 5 2.5t2 5.5v61q0 3 -2 5t-5 2t-5 -2t-2 -5v-61q0 -3 2 -5.5t5 -2.5zM36 251h-24q-3 0 -5 -2t-2 -5v-24q0 -3 2 -5t5 -2t5 2t2 5v17h17q3 0 5 2t2 5t-2 5t-5 2zM97 237h61q3 0 5.5 2t2.5 5t-2.5 5t-5.5 2h-61q-3 0 -5 -2t-2 -5t2 -5t5 -2zM244 251 h-24q-3 0 -5 -2t-2 -5t2 -5t5 -2h17v-17q0 -3 2 -5t5 -2t5 2t2 5v24q0 3 -2 5t-5 2zM244 166q-3 0 -5 -2.5t-2 -5.5v-61q0 -3 2 -5t5 -2t5 2t2 5v62q0 3 -2 5t-5 2zM154 126l-16 16l38 38q2 3 2 5.5t-2 5t-5 2.5t-5 -3l-38 -38l-38 38q-2 2 -5 2.5t-5 -2t-2 -5t2 -5.5 l38 -38l-16 -16q-10 7 -22 6t-21.5 -10.5t-9.5 -23.5t10 -24t24 -10t24 10t10 24q0 10 -5 19l16 16l16 -16q-6 -9 -6 -19q0 -14 10 -24t24 -10t24 10t10 24t-10 24q-8 9 -20 10t-22 -6zM98 84q-6 -6 -14.5 -6t-14.5 6t-6 14t6 14t14.5 6t14.5 -6t5.5 -14.5t-5.5 -13.5z M187 84q-6 -6 -14.5 -6t-14.5 6t-6 14t6 14t14.5 6t14.5 -6t6 -14t-6 -14z" />
</svg>