<svg viewBox="0 0 1024 1024" xmlns="http://www.w3.org/2000/svg">
  <path transform="scale(1, -1) translate(0, -960)" fill="currentColor" d="M976 96q-7 0 -11.5 -4.5t-4.5 -11.5v-80h-80q-7 0 -11.5 -4.5t-4.5 -11.5t4.5 -11.5t11.5 -4.5h96q7 0 11.5 4.5t4.5 11.5v96q0 7 -4.5 11.5t-11.5 4.5zM635 0h-246q-7 0 -11.5 -4.5t-4.5 -11.5t4.5 -11.5t11.5 -4.5h245q7 0 11.5 4.5t4.5 11.5t-4.5 11.5t-10.5 4.5v0z M144 0h-80v80q0 7 -4.5 11.5t-11.5 4.5t-11.5 -4.5t-4.5 -11.5v-96q0 -7 4.5 -11.5t11.5 -4.5h96q7 0 11.5 4.5t4.5 11.5t-4.5 11.5t-11.5 4.5zM48 309q7 0 11.5 4.5t4.5 11.5v246q0 7 -4.5 11.5t-11.5 4.5t-11.5 -4.5t-4.5 -11.5v-245q0 -7 4.5 -12t11.5 -5v0zM144 928h-96 q-7 0 -11.5 -4.5t-4.5 -11.5v-96q0 -7 4.5 -11.5t11.5 -4.5t11.5 4.5t4.5 11.5v80h80q7 0 11.5 4.5t4.5 11.5t-4.5 11.5t-11.5 4.5zM389 896h245q7 0 11.5 4.5t4.5 11.5t-4.5 11.5t-11.5 4.5h-245q-7 0 -11.5 -4.5t-4.5 -11.5t5 -11.5t11 -4.5zM976 928h-96q-7 0 -11.5 -4.5 t-4.5 -11.5t4.5 -11.5t11.5 -4.5h80v-80q0 -7 4.5 -11.5t11.5 -4.5t11.5 4.5t4.5 11.5v96q0 7 -4.5 11.5t-11.5 4.5zM976 587q-7 0 -11.5 -4.5t-4.5 -11.5v-245q0 -7 4.5 -11.5t11.5 -4.5t11.5 4.5t4.5 11.5v245q0 6 -4.5 11t-11.5 5zM614 426l-80 80l160 160q5 4 5 10.5 t-5 11.5q-4 5 -10.5 5t-11.5 -5l-160 -160l-160 160q-5 5 -11.5 5t-10.5 -5q-5 -5 -5 -11.5t5 -10.5l160 -160l-80 -80q-36 28 -83.5 25t-80.5 -37q-18 -18 -27 -40t-9 -48q0 -25 9 -47.5t27 -40.5t40.5 -27t47.5 -9q26 0 48 9t40 27t27.5 40.5t9.5 47.5q0 21 -6.5 40.5 t-18.5 35.5l80 80l80 -80q-12 -17 -19 -36t-7 -40q0 -25 9.5 -47.5t27.5 -40.5t40.5 -27t47.5 -9t47.5 9t40.5 27q36 36 36 88t-36 88q-35 35 -82 37.5t-85 -25.5zM398 262q-13 -13 -29.5 -20t-35.5 -7q-18 0 -35.5 7t-30.5 20q-13 14 -20 30.5t-7 35.5t7 35.5t20 30.5 q13 13 30.5 20t35.5 7t35 -7t30 -20q14 -14 21 -30.5t7 -35.5t-7 -35.5t-21 -30.5zM757 262q-13 -13 -30 -20t-36 -7t-35.5 7t-29.5 20q-14 14 -21 30.5t-7 35.5t7 35.5t21 30.5q13 13 30 20t35 7t35.5 -7t30.5 -20q26 -28 26 -66.5t-26 -65.5v0z" />
</svg>