<svg viewBox="0 0 1024 1024" xmlns="http://www.w3.org/2000/svg">
  <path transform="scale(1, -1) translate(0, -960)" fill="currentColor" d="M973 624h-160q-1 63 -26 118q-25 56 -67 97t-97 65q-56 24 -119 24q-64 0 -120 -24t-98 -65t-66 -97q-25 -55 -26 -118h-143q-7 0 -11.5 -4.5t-4.5 -11.5t4.5 -11.5t11.5 -4.5h114v-592h-51q-8 0 -12 -4.5t-4 -11.5t4 -11.5t12 -4.5h795q7 0 11.5 4.5t4.5 11.5t-4.5 11.5 t-11.5 4.5h-45v592h110q8 0 12 4.5t4 11.5t-5 11.5t-12 4.5zM504 896q57 0 107 -21q50 -22 88 -58.5t60 -86.5t23 -106h-556q1 56 23 106q22 49 60 86t88 59q50 21 107 21zM614 592v-592h-200v592h200zM197 592h185v-592h-185v592v0zM832 0h-186v592h186v-592z" />
</svg>