<svg viewBox="0 0 1024 1024" xmlns="http://www.w3.org/2000/svg">
  <path transform="scale(1, -1) translate(0, -960)" fill="currentColor" d="M990 534q0 2 1 2t1 2v1.5v1.5v0.5v0.5v1v1v1v1q-11 70 -54 130q-42 60 -106.5 104.5t-146.5 69.5t-173 25t-173 -25t-146.5 -69.5t-106.5 -104.5q-43 -60 -54 -130v-1v-1v-1v-1v-0.5v-0.5v-1.5v-1.5v-2l2 -2q0 -1 0.5 -1.5t0.5 -1.5l1 -0.5l1 -0.5l1 -1t2 -1h2h1h1h1h0.5 h0.5h1h1h110v-474h-35q-7 0 -11.5 -4t-4.5 -12q0 -7 4.5 -11.5t11.5 -4.5h272q7 0 11.5 4.5t4.5 11.5q0 8 -4.5 12t-11.5 4h-35v472h309v-473h-39q-7 0 -11.5 -4.5t-4.5 -11.5t4.5 -11.5t11.5 -4.5h272q8 0 12 4.5t4 11.5t-4 11.5t-12 4.5h-32v473h106v0v0h1.5h1.5h1h1 q1 0 1.5 0.5l1.5 1.5q1 0 1.5 1t1.5 1t1.5 0.5l0.5 0.5v1.5t1 1.5v0zM512 843q82 0 157 -21q74 -22 133 -60t100 -90q40 -52 55 -114h-890q15 62 55 114q41 52 100 90t133 60q75 21 157 21v0zM328 53h-136v473h136v-473zM837 53h-136v473h136v-473zM421 656h184 q7 0 11.5 4.5t4.5 11.5t-4.5 11.5t-11.5 4.5h-184q-7 0 -11.5 -4.5t-4.5 -11.5t4.5 -11.5t11.5 -4.5v0z" />
</svg>