<svg viewBox="0 0 256 256" xmlns="http://www.w3.org/2000/svg">
  <path transform="scale(1, -1) translate(0, -256)" fill="currentColor" d="M250 148v1l1 4q-4 24 -21.5 43t-44 30.5t-57.5 11.5t-57.5 -11.5t-44 -30.5t-21.5 -43v-3l5 -5h27v-112h-6q-3 0 -5 -2t-2 -5t2 -5.5t5 -2.5h68q3 0 5 2.5t2 5.5t-2 5t-5 2h-6v112h71v-113h-7q-3 0 -5 -2t-2 -5t2 -5t5 -2h68q3 0 5 2t2 5t-2 5t-5 2h-5v113h27h1zM128 224 q25 0 47.5 -8.5t38.5 -23.5t21 -34h-214q5 19 21 34t38.5 23.5t47.5 8.5zM79 32h-28v113h28v-113zM206 32h-28v113h28v-113zM105 177h46q3 0 5 2t2 5t-2 5t-5 2h-46q-3 0 -5 -2t-2 -5t2 -5t5 -2z" />
</svg>