<svg viewBox="0 0 1024 1024" xmlns="http://www.w3.org/2000/svg">
  <path transform="scale(1, -1) translate(0, -960)" fill="currentColor" d="M984 653l-434 265q-18 11 -38 11t-38 -11l-434 -265q-5 -3 -7 -8t1 -10q1 -5 5 -8t9 -3h64v-624h-42q-7 0 -11.5 -4.5t-4.5 -11.5t4.5 -11.5t11.5 -4.5h308q7 0 11.5 4.5t4.5 11.5t-4.5 11.5t-11.5 4.5h-42v624h352v-624h-46q-8 0 -12 -4.5t-4 -11.5t4 -11.5t12 -4.5h307 q7 0 11.5 4.5t4.5 11.5t-4.5 11.5t-11.5 4.5h-39v624h66q5 0 9.5 3t6.5 8q1 5 -1 10t-7 8zM302 0h-158v624h158v-624zM877 0h-157v624h158v-624h-1zM106 656l385 235q10 6 21.5 6t21.5 -6l384 -235h-812v0z" />
</svg>