<svg viewBox="0 0 1024 1024" xmlns="http://www.w3.org/2000/svg">
  <path transform="scale(1, -1) translate(0, -960)" fill="currentColor" d="M930 653l-373 261q-21 14 -45 14t-45 -14l-373 -261q-4 -4 -5.5 -8.5t-0.5 -9.5t5.5 -8t10.5 -3h99v-624h-43q-7 0 -11.5 -4.5t-4.5 -11.5t4.5 -11.5t11.5 -4.5h392v0h2v0h1h309q7 0 11.5 4.5t4.5 11.5t-4.5 11.5t-11.5 4.5h-40v622h96q5 0 9.5 3.5t6.5 8.5 q1 6 -0.5 10.5t-5.5 8.5zM235 622h162v-622h-162v622v0zM554 0v0v0h-2v0h-125v622h173v-622h-46zM794 0h-162v622h162v-622zM154 654l332 234q12 8 26.5 8t26.5 -8l333 -232h-718v-2z" />
</svg>