<svg viewBox="0 0 256 256" xmlns="http://www.w3.org/2000/svg">
  <path transform="scale(1, -1) translate(0, -256)" fill="currentColor" d="M219 176h-27v24v2q10 7 18 16q11 13 11 26q0 3 -2 5t-5 2t-5 -2t-2 -5q0 -9 -9 -19q-7 -7 -16 -13q-11 8 -26.5 13.5t-28 5.5t-28.5 -5.5t-27 -14.5q-9 5 -16 13q-10 11 -10 20q0 3 -2.5 5t-5.5 2t-4.5 -2t-1.5 -5q0 -15 13 -29q8 -9 19 -15v-24h-27q-5 0 -9 -4t-4 -8 q0 -18 11.5 -31.5t28.5 -17.5l1 -7q6 -31 9 -44q-7 -10 -7 -22q0 -16 10.5 -26.5t26.5 -10.5h48q16 0 26.5 10.5t10.5 26.5q0 12 -7 22q3 13 9 44l1 7q17 3 28.5 16.5t11.5 31.5q0 6 -4 9.5t-9 3.5zM152 19h-48q-10 0 -16.5 7t-6.5 16t6.5 16t16.5 7h48q10 0 16.5 -7 t6.5 -16t-6.5 -16t-16.5 -7zM185 128q-2 0 -4 -1.5t-2 -3.5l-3 -15q-4 -23 -6 -33q-9 4 -18 4h-48q-10 0 -18 -4q-3 14 -8 38l-1 10q0 3 -2 4.5t-5 1.5q-13 1 -22.5 10.5t-9.5 22.5h26q6 0 10 4t4 10v22q7 7 22.5 13t27.5 6t27.5 -6t22.5 -14v-22q0 -5 4 -9t10 -4h26 q-1 -13 -10 -22.5t-23 -11.5z" />
</svg>