<svg viewBox="0 0 256 256" xmlns="http://www.w3.org/2000/svg">
  <path transform="scale(1, -1) translate(0, -256)" fill="currentColor" d="M251 244q0 3 -2 5t-5 2t-5 -2t-2 -5q0 -16 -8 -29.5t-21.5 -21.5t-29.5 -8h-100q-16 0 -29.5 8t-21.5 21.5t-8 29.5q0 3 -2 5t-5 2t-5 -2t-2 -5q0 -25 15 -44.5t38 -25.5l20 -144q1 -10 9.5 -17.5t18.5 -7.5h49q12 0 20 7.5t9 19.5l14 142q23 7 38 26t15 44zM155 19h-49 q-6 0 -10 3.5t-5 9.5l-2 17h83l-2 -16q-1 -6 -5 -10t-10 -4zM184 171l-11 -108h-86l-14 108h111zM102 131q5 0 8 3t3 8t-3 8t-8 3t-8 -3t-3 -8t3 -8t8 -3zM157 131q5 0 8 3t3 8t-3 8t-7.5 3t-8 -3t-3.5 -8t3 -8t8 -3z" />
</svg>