<svg viewBox="0 0 1024 1024" xmlns="http://www.w3.org/2000/svg">
  <path transform="scale(1, -1) translate(0, -960)" fill="currentColor" d="M341 494q-7 29 -29.5 46t-49.5 17h-56q-8 0 -14.5 -4.5t-7.5 -13.5l-54 -198h38q8 0 13.5 4.5t8.5 12.5l40 149h32q10 0 17.5 -6.5t10.5 -15.5q3 -13 -5.5 -25t-22.5 -12h-16q-8 0 -14.5 -4.5t-7.5 -13.5l-10 -38h50q42 1 63.5 35t13.5 67v0zM99 451h29q8 0 13.5 4.5 t8.5 13.5l10 38h-62q-28 0 -49 -16t-30 -46q-9 -39 15.5 -70t61.5 -31h18l11 40q1 5 -1.5 9t-8.5 4h-17q-28 -3 -28 25.5t29 28.5v0v0zM483 506h-121l-5 -21q-1 -12 4.5 -20.5t17.5 -8.5h90q5 0 3 -3l-2 -3l-12 -50q0 -1 -2 -3.5t-8 -2.5h-54q-5 0 -5 6t5 6h33q9 0 14 5 t9 13l6 21h-72q-46 0 -48.5 -49.5t46.5 -49.5h90q13 0 23 7.5t14 19.5l22 81q3 18 -11.5 35t-36.5 17v0v0zM997 560h-29q-5 0 -9.5 -3.5t-6.5 -9.5l-56 -205q24 0 44 15.5t26 39.5l44 150q0 4 -3.5 8.5t-9.5 4.5v0v0zM632 506v0h-74l-40 -151q-1 -5 1.5 -9t8.5 -4h29 q5 0 9 3.5t7 9.5l27 99h32q16 0 23.5 -11t3.5 -25l-17 -63q-2 -5 0.5 -9t8.5 -4h29q5 0 9.5 3.5t6.5 9.5l13 51q11 38 -14 69t-63 31v0v0zM782 389q-4 0 -6 3t0 8l13 48q1 5 4.5 7.5t8.5 2.5h51q3 0 4.5 -1.5t1.5 -5.5l-1 -5q-2 -1 -2.5 -2.5t-4.5 -1.5h-33q-9 0 -15.5 -5 t-7.5 -13l-6 -21h81q14 0 24 7.5t13 19.5l5 18q5 22 -7.5 39t-35.5 17h-72q-21 0 -37.5 -12.5t-23.5 -35.5l-18 -62q-4 -21 8.5 -38.5t35.5 -17.5h102q8 0 13.5 4.5t8.5 12.5l10 32q-1 1 -57.5 1.5l-56.5 0.5v0z" />
</svg>