<svg viewBox="0 0 256 256" xmlns="http://www.w3.org/2000/svg">
  <path transform="scale(1, -1) translate(0, -256)" fill="currentColor" d="M85 140q-2 7 -7.5 11t-11.5 4h-14q-5 0 -6 -4l-14 -50h10q4 0 6 5l10 37h8q2 0 4 -1.5t2.5 -4.5t-1.5 -6t-5 -3h-4q-5 0 -6 -4l-2 -10h12q10 0 15.5 8.5t3.5 17.5zM25 129h7q4 0 6 4l2 10h-16q-7 0 -12 -4t-7.5 -12.5t4 -16.5t15.5 -8h4l3 10q1 1 0 2t-2 1h-5 q-4 0 -5.5 3.5t0 7t6.5 3.5zM121 142h-31l-1 -5q0 -3 1.5 -5t4.5 -2h22q2 0 1 -2l-4 -12q0 -2 -2 -2h-14q-1 0 -1 2t1 2h9q4 0 5 4l2 5h-18q-7 0 -10.5 -6t-0.5 -12.5t11 -6.5h22q3 0 5.5 2t3.5 5l6 21q0 4 -3.5 8t-8.5 4zM249 156h-7q-3 0 -4 -3l-14 -51q6 0 11 3.5t7 9.5 l10 38q0 1 -0.5 2t-2.5 1zM158 142h-18l-10 -37q-1 -1 0 -2t2 -1h7q3 0 4 3l7 25h8q4 0 6 -3t1 -7l-5 -15q0 -1 0.5 -2t2.5 -1h7q3 0 4 3l3 13q3 9 -3 16.5t-16 7.5zM196 113q-2 0 -2.5 1t0.5 2l3 12q1 2 3 2h13q2 0 2 -1l-1 -2q0 -1 -1 -1h-9q-5 0 -5 -4l-2 -5h21 q3 0 5.5 2t3.5 5l1 4q1 5 -2 9.5t-9 4.5h-18q-5 0 -9 -3t-6 -9l-4 -16q-2 -5 1.5 -9.5t8.5 -4.5h26q4 0 6 5l2 8h-28v0z" />
</svg>