<svg viewBox="0 0 1024 1024" xmlns="http://www.w3.org/2000/svg">
  <path transform="scale(1, -1) translate(0, -960)" fill="currentColor" d="M702 928h-380q-27 0 -45.5 -19t-18.5 -45v-832q0 -26 18.5 -45t45.5 -19h380q27 0 45.5 19t18.5 45v832q0 26 -18.5 45t-45.5 19zM734 32q0 -13 -9 -22.5t-23 -9.5h-380q-14 0 -23 9.5t-9 22.5v832q0 13 9 22.5t23 9.5h380q14 0 23 -9.5t9 -22.5v-832zM448 710h128 q7 0 11.5 4.5t4.5 11.5q0 8 -4.5 12t-11.5 4h-128q-7 0 -11.5 -4t-4.5 -12q0 -7 5 -11.5t11 -4.5zM448 534h128q7 0 11.5 4.5t4.5 11.5q0 8 -4.5 12t-11.5 4h-128q-7 0 -11.5 -4t-4.5 -12q0 -7 5 -11.5t11 -4.5zM598 277q-6 -1 -9.5 -7t-1.5 -12q1 -5 1.5 -9.5t0.5 -8.5 q0 -31 -23 -54t-54 -23t-54 23t-23 54q0 5 1 10.5t2 10.5q3 6 -1 12t-10 7q-6 2 -12 -1.5t-7 -9.5q-2 -7 -3.5 -14.5t-1.5 -16.5q0 -44 31.5 -76t77.5 -32t77.5 31.5t31.5 76.5q0 6 -1 13t-2 13q-2 7 -8 10.5t-12 2.5v0zM496 392v-120q0 -7 4.5 -11.5t11.5 -4.5t11.5 4.5 t4.5 11.5v120q0 7 -4.5 11.5t-11.5 4.5t-11.5 -4.5t-4.5 -11.5z" />
</svg>