<svg viewBox="0 0 256 256" xmlns="http://www.w3.org/2000/svg">
  <path transform="scale(1, -1) translate(0, -256)" fill="currentColor" d="M176 251h-96q-7 0 -13 -5.5t-6 -13.5v-208q0 -8 5.5 -14t13.5 -6h96q7 0 13 6t6 14v208q0 8 -6 13.5t-13 5.5zM181 24q0 -2 -1.5 -3.5t-3.5 -1.5h-96q-2 0 -3.5 1.5t-1.5 3.5v208q0 2 1.5 3.5t3.5 1.5h96q2 0 3.5 -1.5t1.5 -3.5v-208zM112 191h32q3 0 5 2t2 5t-2 5t-5 2 h-32q-3 0 -5 -2t-2 -5t2 -5t5 -2zM112 146h32q3 0 5 2.5t2 5.5t-2 5t-5 2h-32q-3 0 -5 -2t-2 -5t2 -5.5t5 -2.5zM149 88q-3 -1 -4.5 -3.5t-0.5 -4.5v-4q0 -7 -4.5 -11.5t-11.5 -4.5t-11.5 4.5t-4.5 11.5q0 2 1 4.5t-0.5 5t-4.5 3.5t-5.5 -0.5t-3.5 -5t-1 -7.5 q0 -13 8.5 -21.5t21 -8.5t21.5 8.5t9 21.5l-1 7q0 3 -2.5 4.5t-5.5 0.5zM121 114v-30q0 -3 2 -5t5 -2t5.5 2t2.5 5v30q0 3 -2.5 5t-5.5 2t-5 -2t-2 -5z" />
</svg>