<svg viewBox="0 0 256 256" xmlns="http://www.w3.org/2000/svg">
  <path transform="scale(1, -1) translate(0, -256)" fill="currentColor" d="M219 87l-73 38q1 2 0.5 4t-2.5 3.5t-5 1t-4.5 -2t-3.5 -2t-5 0.5q-5 1 -5 7q-1 8 8 11q3 1 4.5 4t1.5 6v26q12 2 19.5 11.5t7.5 22.5t-10 23t-24 10t-24 -10t-10 -23t7.5 -22.5t19.5 -11.5v-24q-7 -4 -11 -10t-3 -14q0 -6 3 -11l-73 -38q-5 -3 -8.5 -8.5t-3.5 -11.5v-40 q0 -9 6.5 -15.5t16.5 -6.5h161q9 0 15.5 6.5t6.5 15.5v40q0 6 -3 11.5t-9 8.5zM108 217q0 9 6 14.5t14 5.5t14 -5.5t6 -14t-6 -14.5t-14 -6t-14 6t-6 14zM217 28q0 -4 -2.5 -6.5t-5.5 -2.5h-162q-3 0 -5.5 2.5t-2.5 6.5v39q0 5 4 8l81 42l5 -1h4l79 -41q5 -3 5 -8v-39z M78 56h-18q-3 0 -5 -2.5t-2 -5.5t2 -5t5 -2h18q3 0 5 2t2 5t-2 5.5t-5 2.5zM134 56h-18q-3 0 -5 -2t-2 -5t2 -5t5 -2h18q3 0 5 2t2 5t-2 5t-5 2zM197 56h-18q-3 0 -5 -2.5t-2 -5.5t2 -5t5 -2h18q3 0 5 2t2 5t-2 5.5t-5 2.5z" />
</svg>