<svg viewBox="0 0 1024 1024" xmlns="http://www.w3.org/2000/svg">
  <path transform="scale(1, -1) translate(0, -960)" fill="currentColor" d="M870 274l-302 156l1 1l1 1q3 5 3 12t-5 10q-5 5 -12 4.5t-10 -5.5q-6 -7 -19 -9.5t-25 1.5q-7 2 -17.5 10.5t-12.5 27.5q-2 24 11 38t27 20q9 3 14.5 11t5.5 18l-2 113q46 6 76.5 41.5t30.5 81.5q0 50 -35.5 86t-87.5 36t-87.5 -36.5t-35.5 -86.5q0 -48 31.5 -82.5 t77.5 -40.5l1 -112q-15 -6 -38.5 -27t-18.5 -63q1 -13 6.5 -25t13.5 -21l-308 -160q-20 -11 -31 -29.5t-11 -39.5v-159q0 -32 23 -55t55 -23h645q33 0 56 23t23 55v159q-2 21 -13 39.5t-31 29.5zM421 805q0 37 26.5 64t64.5 27t64.5 -27t26.5 -64q0 -39 -27 -65t-64 -26 q-38 -2 -64.5 25t-26.5 66zM880 46q0 -19 -13.5 -32.5t-32.5 -13.5h-645q-18 0 -31.5 13.5t-13.5 32.5v159q0 13 6.5 23.5t17.5 16.5l320 166q1 1 2.5 1.5t2.5 1.5v0h1l12 -2t12 -1q5 0 9 0.5t7 1.5l322 -168q12 -6 18 -17t6 -23v-159v0zM312 147h-70q-8 0 -12 -4.5 t-4 -11.5t4 -11.5t12 -4.5h70q7 0 11.5 4.5t4.5 11.5t-4.5 11.5t-11.5 4.5zM536 149h-70q-8 0 -12 -4.5t-4 -11.5t4 -11.5t12 -4.5h70q7 0 11.5 4.5t4.5 11.5t-4.5 11.5t-11.5 4.5zM787 147h-70q-7 0 -11.5 -4.5t-4.5 -11.5t4.5 -11.5t11.5 -4.5h70q7 0 11.5 4.5t4.5 11.5 t-4.5 11.5t-11.5 4.5z" />
</svg>