<svg viewBox="0 0 256 256" xmlns="http://www.w3.org/2000/svg">
  <path transform="scale(1, -1) translate(0, -256)" fill="currentColor" d="M224 191h-6v41q0 8 -6 13.5t-14 5.5h-141q-8 0 -13.5 -5.5t-5.5 -13.5v-41h-6q-8 0 -14 -5.5t-6 -13.5v-148q0 -8 6 -13.5t14 -5.5h193q8 0 13.5 5.5t5.5 13.5v148q0 8 -6 13.5t-14 5.5zM52 232q0 2 1.5 3.5t3.5 1.5h142q2 0 3.5 -1.5t1.5 -3.5v-41h-152v41zM26 125h80 q2 0 3.5 -1.5t1.5 -3.5v-45q0 -2 -1.5 -3.5t-3.5 -1.5h-80v55zM230 24q0 -2 -1.5 -3.5t-4.5 -1.5h-192q-2 0 -4 1.5t-2 3.5v33h80q8 0 13.5 5.5t5.5 13.5v44q0 8 -5.5 14t-13.5 6h-80v32q0 2 2 3.5t4 1.5h192q3 0 4.5 -1.5t1.5 -3.5v-148z" />
</svg>