<svg viewBox="0 0 256 256" xmlns="http://www.w3.org/2000/svg">
  <path transform="scale(1, -1) translate(0, -256)" fill="currentColor" d="M229 130q-2 8 -8.5 13.5t-14.5 5.5h-156q-9 0 -15.5 -5.5t-8.5 -13.5q-4 -24 -4 -53t5 -53q2 -8 8.5 -13.5t14.5 -5.5h156q9 0 15.5 5.5t8.5 13.5q4 24 4 53t-5 53zM216 27q-1 -4 -3.5 -6t-6.5 -2h-156q-3 0 -6 2t-4 6q-4 23 -4 50.5t4 49.5q1 4 3.5 6t6.5 2h156 q4 0 6.5 -2t3.5 -6q4 -22 4 -50t-4 -50zM40 177h176q5 0 8 3t3 8v44q0 8 -5.5 13.5t-13.5 5.5h-160q-8 0 -13.5 -5.5t-5.5 -13.5v-44q0 -5 3 -8t8 -3zM43 232q0 2 1.5 3.5t3.5 1.5h160q3 0 4.5 -1.5t1.5 -3.5v-41h-171v41z" />
</svg>