<svg viewBox="0 0 1024 1024" xmlns="http://www.w3.org/2000/svg">
  <path transform="scale(1, -1) translate(0, -960)" fill="currentColor" d="M906 454q-6 29 -29 48.5t-53 19.5h-626q-28 0 -51.5 -18.5t-29.5 -47.5q-10 -47 -15 -101q-4 -53 -4 -108.5t4 -109.5q5 -53 15 -100q7 -31 30 -50t53 -19h626q30 0 52.5 18.5t28.5 48.5q9 48 14 101q4 53 4 108t-5 109q-5 53 -14 101v0zM875 42q-3 -18 -18 -30t-33 -12 h-624q-18 0 -32 12t-18 30q-9 45 -13 98q-5 52 -5 105.5t5 105.5q4 52 13 97q4 18 18 29t32 11h626q18 0 32 -11.5t17 -28.5q9 -46 14 -98q4 -52 4 -105.5t-4 -105.5q-5 -52 -14 -97zM160 654h704q13 0 22.5 9.5t9.5 22.5v178q0 26 -19 45t-45 19h-640q-26 0 -45 -19 t-19 -45v-178q0 -13 9.5 -22.5t22.5 -9.5zM160 864q0 13 9.5 22.5t22.5 9.5h640q13 0 22.5 -9.5t9.5 -22.5v-178h-704v178z" />
</svg>