<svg viewBox="0 0 1024 1024" xmlns="http://www.w3.org/2000/svg">
  <path transform="scale(1, -1) translate(0, -960)" fill="currentColor" d="M507 530l-67 -34q-13 29 -32.5 34.5t-21.5 5.5q-34 0 -51 -22t-17 -66q0 -36 15 -62t53 -26q21 0 36.5 10t23.5 33l61 -32q-8 -17 -39.5 -47t-91.5 -30q-34 0 -90.5 27t-56.5 127q0 88 50.5 121t96.5 33q47 0 79 -17.5t52 -54.5v0v0zM794 530l-66 -34q-13 30 -32.5 35 t-23.5 5q-34 0 -50.5 -22t-16.5 -66q0 -36 15 -62t52 -26q22 0 37 10t24 33l62 -32q-3 -5 -34 -41t-97 -36q-34 0 -90.5 27t-56.5 127q0 88 50.5 121t96.5 33q44 0 76.5 -17.5t53.5 -54.5v0v0zM510 944q-106 0 -197 -40t-157 -108t-103 -158t-37 -190q0 -104 40 -194 q39 -91 107 -158t157 -105q90 -39 190 -39q98 0 188 36t159 101t110 157q41 91 41 202q0 103 -38 194q-38 90 -104.5 157t-157.5 106t-198 39v0zM514 42q-84 0 -159 32q-74 33 -129.5 88.5t-87.5 128.5q-32 74 -32 157q0 79 30 153q30 73 84.5 129.5t129.5 90.5 q75 33 164 33q84 0 158 -31t129 -86t87 -129t32 -160q-1 -91 -35 -166q-35 -75 -91.5 -128.5t-129.5 -82.5t-150 -29v0z" />
</svg>