<svg viewBox="0 0 1024 1024" xmlns="http://www.w3.org/2000/svg">
  <path transform="scale(1, -1) translate(0, -960)" fill="currentColor" d="M718 901q-12 13 -28 20t-32 7h-292q-18 0 -34 -7t-26 -20q-12 -13 -17 -29.5t-4 -34.5l53 -507q3 -32 26.5 -53t54.5 -21h186q31 0 55 21t26 53l53 507q1 18 -4 34.5t-17 29.5v0zM707 840l-53 -507q-2 -19 -16 -32t-33 -13h-186q-19 0 -33.5 13t-15.5 32l-53 507 q-1 11 2 21.5t11 18.5q7 8 16.5 12t19.5 4h290q11 0 20.5 -4.5t16.5 -11.5q8 -8 11.5 -18.5t2.5 -21.5v0zM640 147h-261q-13 0 -22.5 -9.5t-9.5 -22.5v-115q0 -13 9.5 -22.5t22.5 -9.5h261q13 0 22.5 9.5t9.5 22.5v115q0 13 -9.5 22.5t-22.5 9.5zM379 0v115h261v-115h-261z " />
</svg>