<svg viewBox="0 0 1024 1024" xmlns="http://www.w3.org/2000/svg">
  <path transform="scale(1, -1) translate(0, -960)" fill="currentColor" d="M898 688h-39v176q0 26 -18.5 45t-45.5 19h-566q-27 0 -45.5 -19t-18.5 -45v-176h-39q-26 0 -45 -19t-19 -45v-592q0 -26 19 -45t45 -19h773q27 0 45.5 19t18.5 45v592q-1 28 -20 46t-45 18zM197 864q0 13 9.5 22.5t22.5 9.5h566q13 0 22.5 -9.5t9.5 -22.5v-176h-630v176 v0zM94 450h332q13 0 22.5 -9.5t9.5 -22.5v-180q0 -13 -9.5 -22.5t-22.5 -9.5h-332v244v0zM930 32q0 -13 -9.5 -22.5t-22.5 -9.5h-772q-13 0 -22.5 9.5t-9.5 22.5v142h332q26 0 45 19t19 45v180q0 26 -19 45t-45 19h-332v142q0 13 9.5 22.5t22.5 9.5h772q13 0 22.5 -9.5 t9.5 -22.5v-592v0z" />
</svg>