<svg viewBox="0 0 1024 1024" xmlns="http://www.w3.org/2000/svg">
  <path transform="scale(1, -1) translate(0, -960)" fill="currentColor" d="M838 336q-4 5 -10.5 5t-11.5 -5l-32 -32l-32 32q-5 5 -11.5 5t-10.5 -5q-5 -5 -5 -11.5t5 -10.5l32 -32l-32 -32q-5 -5 -5 -11.5t5 -11.5q2 -2 5 -3.5t6 -1.5q2 0 5.5 1.5t5.5 3.5l32 32l32 -32q2 -2 5.5 -3.5t5.5 -1.5q3 0 6 1.5t5 3.5q5 5 5 11.5t-5 11.5l-32 32l32 32 q5 4 5 11t-5 11v0zM802 490v251q0 33 -23.5 56.5t-56.5 23.5h-610q-34 0 -57 -23.5t-23 -56.5v-370q0 -33 23 -56.5t57 -23.5h466v-3.5v-4.5q0 -42 16 -80t44 -66t66 -44q37 -16 80 -16t80 16q38 16 66.5 44t44.5 65q17 38 17 81q0 41 -15 77t-40.5 64t-60.5 45 q-35 18 -74 21zM64 666h706v-90h-706v90zM112 789h608q20 0 34 -14t14 -34v-43h-704v43q0 19 14 33.5t34 14.5zM112 323q-20 0 -34 14t-14 34v173h706v-54q-70 -6 -122 -53t-66 -114h-470v0zM786 107q-72 0 -123.5 51.5t-51.5 123.5t51.5 123t123.5 51t123 -50.5t51 -122.5 q0 -73 -51 -124.5t-123 -51.5z" />
</svg>