<svg viewBox="0 0 1024 1024" xmlns="http://www.w3.org/2000/svg">
  <path transform="scale(1, -1) translate(0, -960)" fill="currentColor" d="M931 541l-152 323q-7 16 -19 26.5t-29 16.5q-15 6 -32 5t-32 -8l-587 -272q-31 -14 -43.5 -47.5t1.5 -64.5l138 -291v-162q0 -35 25 -60t60 -25h648q35 0 60 25t25 60v394q-2 27 -19 50t-44 30v0zM894 544h-612l502 235zM208 381h752v-98h-752v98zM960 461v-48h-752v48 q0 21 15.5 37t37.5 16h648q2 0 4.5 -0.5t4.5 -1.5q17 -4 29.5 -18.5t12.5 -32.5v0zM94 602l588 275q9 5 19.5 5t20.5 -4q9 -3 17 -10t11 -17l20 -43l-682 -318l-19 43q-10 19 -2 39.5t27 29.5zM102 461l84 38q-5 -8 -8.5 -18.5t-3.5 -21.5v-155l-72 157v0zM907 14h-648 q-21 0 -37 16t-16 37v184h752v-184q2 -21 -13.5 -37t-37.5 -16z" />
</svg>