<svg viewBox="0 0 1024 1024" xmlns="http://www.w3.org/2000/svg">
  <path transform="scale(1, -1) translate(0, -960)" fill="currentColor" d="M941 666v105q0 17 -7 32.5t-20 25.5q-14 11 -30 14.5t-34 -0.5l-724 -171h-14q-34 0 -57 -23t-23 -57v-462q0 -34 23 -57t57 -23h800q34 0 57 23t23 57v462q0 25 -14 45t-37 29v0zM858 814q9 3 18.5 0.5t17.5 -8.5q9 -6 12.5 -15t3.5 -18v-101h-646zM112 640h800 q20 0 34 -14t14 -34v-88h-896v88q0 19 14 33.5t34 14.5zM960 470v-116h-896v116h896v0zM912 82h-800q-20 0 -34 13.5t-14 34.5v192h896v-194q0 -19 -14 -32.5t-34 -13.5z" />
</svg>