<svg viewBox="0 0 256 256" xmlns="http://www.w3.org/2000/svg">
  <path transform="scale(1, -1) translate(0, -256)" fill="currentColor" d="M235 154l-37 79q-5 10 -14 13t-18 -1l-147 -69q-9 -4 -12.5 -13.5t0.5 -18.5l34 -72v-39q0 -10 7 -17t17 -7h162q10 0 17 7t7 17v98q0 8 -4.5 14t-11.5 9zM237 122h-182v9q0 4 3 7t7 3h163q4 0 6.5 -3t2.5 -7v-9zM237 90h-1h-181v18h182v-18zM219 155h-135l110 52z M25 164l147 68q3 2 7 1t6 -5l3 -8l-164 -78l-4 8q-2 4 -0.5 8t5.5 6zM30 130l11 6v-5v-25zM227 23h-162q-4 0 -7 3t-3 7v43h180h2v-43q0 -4 -3 -7t-7 -3z" />
</svg>