<svg viewBox="0 0 1024 1024" xmlns="http://www.w3.org/2000/svg">
  <path transform="scale(1, -1) translate(0, -960)" fill="currentColor" d="M934 240h-49v72q0 42 -30.5 72t-72.5 30t-72 -30t-30 -72v-72h-50q-7 0 -11.5 -4.5t-4.5 -11.5v-176q0 -7 4.5 -11.5t11.5 -4.5h303q7 0 11.5 4.5t4.5 11.5v176q1 6 -4 11t-11 5zM714 312q0 29 20.5 49.5t49.5 20.5t49.5 -20.5t20.5 -49.5v-72h-139v72h-1zM918 64h-270 v144h270v-144zM896 864h-768q-40 0 -68 -28t-28 -68v-75v0v0v0v0v-154v0v0v0v0v-237q0 -39 28 -67.5t68 -28.5h282q7 0 11.5 4.5t4.5 11.5q0 8 -4.5 12t-11.5 4h-282q-26 0 -45 19t-19 45v223h896v-61q0 -7 4.5 -11.5t11.5 -4.5t11.5 4.5t4.5 11.5v304q0 40 -28 68t-68 28z M128 832h768q26 0 45 -19t19 -45v-59h-896v59q0 26 19 45t45 19zM64 557v121h896v-121h-896z" />
</svg>