<svg viewBox="0 0 256 256" xmlns="http://www.w3.org/2000/svg">
  <path transform="scale(1, -1) translate(0, -256)" fill="currentColor" d="M234 79h-10v15q0 11 -8 19.5t-20 8.5t-20 -8.5t-8 -19.5v-15h-10q-3 0 -5 -2t-2 -5v-44q0 -3 2 -5.5t5 -2.5h76q3 0 5 2.5t2 5.5v44q0 3 -2.5 5t-4.5 2zM181 94q0 6 4.5 10t10.5 4t10 -4t4 -10v-15h-29v15zM226 35h-61v30h62v-30h-1zM224 235h-192q-11 0 -19 -8t-8 -19 v-116q0 -12 8 -20t19 -8h70q3 0 5.5 2.5t2.5 5.5t-2.5 5t-5.5 2h-70q-5 0 -9 4t-4 9v52h218v-12q0 -3 2 -5t5 -2t5 2t2 5v76q0 11 -8 19t-19 8zM32 221h192q5 0 9 -4t4 -9v-12h-218v12q0 5 4 9t9 4zM19 158v24h218v-24h-218z" />
</svg>