<svg viewBox="0 0 256 256" xmlns="http://www.w3.org/2000/svg">
  <path transform="scale(1, -1) translate(0, -256)" fill="currentColor" d="M212 102q-2 2 -5 2.5t-5 -2.5l-6 -5l-5 5q-2 3 -5 3t-5 -2.5t-2 -5t2 -5.5l5 -5l-5 -6q-2 -2 -2 -5t2 -5t4.5 -2t4.5 2l6 6l6 -6q2 -2 4.5 -2t4.5 2t2 5t-2 5l-5 6l5 5q3 2 3 5t-2 5zM203 141v60q0 9 -6.5 16t-16.5 7h-152q-10 0 -16.5 -7t-6.5 -16v-93q0 -9 6.5 -16 t16.5 -7h114q0 -14 7.5 -26.5t20 -19.5t27 -7t27 7.5t20 20t7.5 27.5q0 20 -14 35.5t-34 18.5zM19 179h170v-16h-170v16zM28 210h152q4 0 6.5 -2.5t2.5 -6.5v-8h-170v8q0 4 2.5 6.5t6.5 2.5zM19 109v40h170v-8q-17 -2 -29.5 -13.5t-16.5 -27.5h-115q-4 0 -6.5 2.5t-2.5 6.5z M196 46q-16 0 -28 12t-12 29t12 29t28.5 12t28.5 -12t12 -29t-12 -29t-29 -12z" />
</svg>