<svg viewBox="0 0 1024 1024" xmlns="http://www.w3.org/2000/svg">
  <path transform="scale(1, -1) translate(0, -960)" fill="currentColor" d="M990 475q-2 52 -16 101t-38 96q-24 46 -58 86t-75 71q-47 36 -102 59.5t-114 33.5v0v0v0v0q-18 3 -37 4.5t-38 1.5q-76 0 -146 -23q-70 -22 -129.5 -64t-104.5 -100t-71 -130q-15 -38 -22 -79.5t-7 -83.5v-22t2 -18q4 -52 19 -102q15 -49 40.5 -94t60.5 -83 q35 -39 78 -70q61 -44 132.5 -67.5t147.5 -23.5q19 0 38.5 1.5t38.5 4.5v0v0q62 10 119 36q57 25 104.5 64t85.5 89q37 50 60 109q17 42 25.5 86t8.5 90v14.5t-2 12.5zM389 320q-7 31 -11 63.5t-4 64.5q0 10 0.5 19.5t1.5 20.5l539 158q18 -37 29.5 -77t15.5 -81l-571 -168 v0zM899 675l-520 -152q6 45 19.5 88t33.5 83l360 106q31 -26 58.5 -58t48.5 -67zM464 754q1 2 3 4.5t3 4.5q3 4 5.5 8.5t6.5 7.5q2 3 3.5 5.5t4.5 5.5q2 4 5 7.5t6 7.5l4.5 4.5t4.5 6.5q3 4 6 7l6 6l4.5 4.5l4.5 4.5q4 4 6.5 7t6.5 6q2 3 5 5t6 5q4 2 6.5 4.5l6.5 6.5 q2 2 5.5 4.5t5.5 3.5q3 2 6 4.5t5 3.5q45 -8 87.5 -25t80.5 -42l-305 -90q0 1 0.5 1.5t0.5 1.5l5.5 11l4.5 9v0zM512 0q-71 0 -137.5 21.5t-123.5 63.5q-40 29 -72 65q-33 36 -56.5 77.5t-38.5 88.5q-14 46 -18 95q-2 7 -2 16.5v20.5q0 40 7 78t20 74q24 67 67 121 q42 55 97.5 93.5t120.5 60.5q66 21 136 21h16.5t17.5 -2q-5 -4 -10.5 -9t-10.5 -10v0v0q-6 -6 -11.5 -11t-11.5 -11l-3 -3t-3 -4q-4 -3 -7.5 -7.5t-6.5 -8.5q-3 -2 -4.5 -4.5t-3.5 -4.5q-4 -4 -7 -7.5t-6 -8.5q-3 -3 -4.5 -5t-3.5 -5q-3 -3 -6 -7.5t-5 -8.5q-2 -2 -4 -4.5 t-3 -4.5q-2 -5 -5.5 -9.5t-5.5 -8.5q-1 -2 -2.5 -4.5t-2.5 -3.5q-3 -7 -7 -13.5t-7 -13.5v0v0v0v0q-25 -49 -40.5 -103t-20.5 -110v0v0v0v0q-1 -13 -2 -27t-1 -26q0 -39 4.5 -77.5t14.5 -74.5v0v0v0v0v0v0q12 -45 31 -88t46 -83v0v0v0v0q6 -10 13 -19l14 -18q2 -2 4.5 -5.5 t5.5 -5.5q4 -6 10 -12t10 -12q3 -4 6 -6.5t6 -4.5q6 -6 11 -11.5t11 -11.5q2 -2 5.5 -4.5t5.5 -4.5l2.5 -2.5l2.5 -2.5q-7 -6 -15.5 -7t-16.5 -1v0zM590 6q-4 4 -8 7.5t-9 7.5q-4 3 -8.5 6t-7.5 7q-5 4 -10 9t-9 10q-4 3 -7.5 6.5t-5.5 6.5q-5 6 -10.5 12t-10.5 12 q-2 3 -4.5 5.5l-5.5 5.5q-3 5 -6.5 10.5t-7.5 10.5l437 128q-24 -48 -58 -88q-35 -40 -77 -71.5t-90 -53.5q-49 -21 -102 -31v0zM931 290l-472 -140q-20 33 -35.5 67t-26.5 71l563 166v-2.5v-3.5q0 -41 -7 -80.5t-22 -77.5v0z" />
</svg>