<svg viewBox="0 0 256 256" xmlns="http://www.w3.org/2000/svg">
  <path transform="scale(1, -1) translate(0, -256)" fill="currentColor" d="M244 178h-27q-3 0 -5 -2l-19 -20l-77 16q-4 18 -19.5 30t-34.5 12q-16 0 -29 -7.5t-20.5 -20.5t-7.5 -28q0 -3 2 -5.5t5 -2.5t5.5 2.5t2.5 5.5q-1 17 11.5 29.5t30 12.5t30 -12.5t12.5 -29.5q0 -3 2 -5.5t5 -2.5t5 2t2 5l76 -16q4 -1 6 2l20 20h17v-37h-145q-3 0 -5 -2 t-2 -5t2 -5t5 -2h131v-23l-205 -33q-3 -1 -4.5 -3t-1 -5t2.5 -4.5t4 -1.5l212 35q3 0 4.5 2t1.5 5v28h7q3 0 5 2t2 5v51q0 3 -2 5.5t-5 2.5zM86 158q0 10 -7 17t-17 7t-17 -7.5t-7 -17t7 -16.5t17 -7t17 7t7 17zM52 158q0 4 2.5 7t7 3t7.5 -3t3 -7.5t-3 -7t-7.5 -2.5t-7 2.5 t-2.5 7.5z" />
</svg>