<svg viewBox="0 0 1024 1024" xmlns="http://www.w3.org/2000/svg">
  <path transform="scale(1, -1) translate(0, -960)" fill="currentColor" d="M976 110h-86v628q0 33 -23.5 56.5t-56.5 23.5h-644v94q0 7 -4 11.5t-12 4.5q-7 0 -11.5 -4.5t-4.5 -11.5v-94h-86q-7 0 -11.5 -4.5t-4.5 -11.5q0 -8 4.5 -12t11.5 -4h86v-626q0 -34 23.5 -57t56.5 -23h644v-96q0 -7 4 -11.5t12 -4.5q7 0 11.5 4.5t4.5 11.5v94h86 q7 0 11.5 4.5t4.5 11.5q0 8 -4.5 12t-11.5 4zM166 158v628h644q20 0 34 -14t14 -34v-626h-644q-20 -1 -34 13t-14 33v0z" />
</svg>