<svg viewBox="0 0 1024 1024" xmlns="http://www.w3.org/2000/svg">
  <path transform="scale(1, -1) translate(0, -960)" fill="currentColor" d="M931 83h-67v733l75 85q5 5 4 11t-5 11q-5 5 -11.5 4t-11.5 -5l-75 -85h-648v69q0 7 -4.5 11.5t-11.5 4.5t-11.5 -4.5t-4.5 -11.5v-68h-67q-7 0 -11.5 -4t-4.5 -12q0 -7 4.5 -11.5t11.5 -4.5h67v-723h-67q-7 0 -11.5 -4.5t-4.5 -11.5t4.5 -11.5t11.5 -4.5h67v-67 q0 -7 4.5 -11.5t11.5 -4.5t11.5 4.5t4.5 11.5v67h640v-67q0 -7 4.5 -11.5t11.5 -4.5t11.5 4.5t4.5 11.5v67h67q7 0 11.5 4.5t4.5 11.5t-4.5 11.5t-11.5 4.5v0zM192 806h619l-619 -697v697zM213 83l619 698v-698h-619v0z" />
</svg>