<svg viewBox="0 0 256 256" xmlns="http://www.w3.org/2000/svg">
  <path transform="scale(1, -1) translate(0, -256)" fill="currentColor" d="M128 251q-33 0 -61.5 -16.5t-45 -45t-16.5 -61.5t16.5 -61.5t45 -45t61.5 -16.5t61.5 16.5t45 45t16.5 61.5t-16.5 61.5t-45 45t-61.5 16.5zM128 19q-29 0 -54 14.5t-40 39.5t-15 55t15 54.5t39.5 39.5t54.5 15t55 -15t39.5 -40t14.5 -54.5t-14.5 -54.5t-39.5 -39.5 t-55 -14.5zM165 165q-2 2 -5 2t-5 -2l-27 -27l-27 27q-2 2 -5 2t-5 -2t-2 -5t2 -5l27 -27l-27 -27q-2 -2 -2 -5t2 -5t5 -2t5 2l27 27l26 -27q2 -2 5 -2t5 2t2 5t-2 5l-26 27l27 27q2 2 2 5t-2 5z" />
</svg>