<svg viewBox="0 0 1024 1024" xmlns="http://www.w3.org/2000/svg">
  <path transform="scale(1, -1) translate(0, -960)" fill="currentColor" d="M536 -32h-45q-33 0 -58 24t-25 59v421h-144q-34 0 -58.5 24t-24.5 59v66q0 33 24 58t59 25h142v141q0 33 24.5 58t59.5 25h44q34 0 59 -24t25 -59v-141h142q34 0 58.5 -24t24.5 -59v-66q0 -33 -24 -58t-59 -25h-141v-422q-1 -34 -25 -58t-58 -24v0zM266 670 q-21 0 -36.5 -14.5t-15.5 -36.5v-65q0 -21 15 -36.5t37 -15.5h160q7 0 11.5 -4t4.5 -12v-436q0 -21 14.5 -36.5t36.5 -15.5h45q20 0 35.5 15t15.5 37v438q0 7 4.5 11.5t11.5 4.5h157q20 0 35.5 15t15.5 36v66q0 20 -15 35.5t-36 15.5h-159q-7 0 -11.5 4.5t-4.5 11.5v157 q0 20 -14.5 35.5t-36.5 15.5h-45q-20 0 -35.5 -15t-15.5 -36v-159q0 -7 -4.5 -11.5t-11.5 -4.5h-158v0z" />
</svg>