<svg viewBox="0 0 256 256" xmlns="http://www.w3.org/2000/svg">
  <path transform="scale(1, -1) translate(0, -256)" fill="currentColor" d="M134 5h-11q-10 0 -17 7t-7 17v102h-33q-9 0 -16 7t-7 16v17q0 10 7 16.5t16 6.5h33v33q0 10 7 17t17 7h11q10 0 17 -7t7 -17v-32h32q10 0 17 -7t7 -17v-16q0 -10 -7 -17t-17 -7h-32v-102q0 -10 -7 -17t-17 -7zM66 181q-3 0 -6 -3t-3 -7v-16q0 -4 3 -7t6 -3h40q3 0 5.5 -2 t2.5 -5v-109q0 -4 2.5 -7t6.5 -3h11q4 0 7 3t3 7v109q0 3 2 5t5 2h39q4 0 7 3t3 7v16q0 4 -3 7t-7 3h-39q-3 0 -5 2t-2 5v39q0 4 -3 7t-7 3h-11q-4 0 -7 -3t-3 -7v-39q0 -3 -2 -5.5t-5 -2.5h-40v1z" />
</svg>