<svg viewBox="0 0 256 256" xmlns="http://www.w3.org/2000/svg">
  <path transform="scale(1, -1) translate(0, -256)" fill="currentColor" d="M246 182q-6 5 -14 2l-36 -18q-4 -1 -6 1l-52 61q-4 5 -10 5t-10 -5l-53 -60q-2 -3 -5 -2l-37 18q-3 2 -7 1.5t-7 -3.5q-6 -4 -4 -13l26 -83q3 -10 11 -16t18 -6h136q10 0 18 6t11 16l25 83q2 3 0.5 7t-4.5 6zM212 90q-2 -5 -6 -8.5t-10 -3.5h-136q-6 0 -10 3.5t-6 8.5 l-24 80l33 -16q6 -3 12 -2t11 6l52 60l52 -60q4 -4 10.5 -5.5t11.5 1.5l34 16zM213 37h-170q-3 0 -5 -2t-2 -5t2 -5t5 -2h170q3 0 5 2t2 5t-2 5t-5 2z" />
</svg>