<svg viewBox="0 0 256 256" xmlns="http://www.w3.org/2000/svg">
  <path transform="scale(1, -1) translate(0, -256)" fill="currentColor" d="M239 220q-5 4 -11.5 4t-12.5 -4l-28 -17q-6 -3 -10 1l-35 28q-6 5 -14 5t-14 -5l-35 -29q-2 -2 -5 -2t-6 1l-27 17q-6 3 -12.5 3t-12 -3.5t-8.5 -9.5t-2 -12l13 -151q1 -11 9.5 -19t19.5 -8h159q12 0 20.5 8t9.5 19l13 153q1 6 -2 12t-9 9zM207 33h-159q-6 0 -10.5 4 t-4.5 11l-4 44h198l-4 -44q-1 -6 -5.5 -10.5t-10.5 -4.5zM228 106h-200l-8 92q-1 5 4 8q2 2 4.5 2t5.5 -1l27 -17q6 -3 13.5 -2.5t13.5 4.5l34 29q3 2 6 2t6 -2l34 -28q6 -4 13.5 -4.5t13.5 3.5l28 16q4 3 9 0t5 -8zM83 76q-5 0 -8 -3t-3 -7.5t3 -8t8 -3.5t8 3.5t3 8t-3 7.5 t-8 3zM117 65q0 -4 3 -7.5t8 -3.5t8 3.5t3 8t-3 7.5t-8 3t-8 -3t-3 -8zM162 65q0 -4 3.5 -7.5t8 -3.5t7.5 3.5t3 8t-3 7.5t-7.5 3t-8 -3t-3.5 -8z" />
</svg>