<svg viewBox="0 0 1024 1024" xmlns="http://www.w3.org/2000/svg">
  <path transform="scale(1, -1) translate(0, -960)" fill="currentColor" d="M971 586q-5 2 -9.5 2t-9.5 -4l-198 -168q-3 -2 -6 -3t-6 0q-3 0 -5.5 2t-5.5 4l-205 323q30 5 51 28.5t21 55.5q-1 36 -26 61t-60 25t-60 -25t-25 -60q0 -31 20.5 -54.5t51.5 -28.5l-206 -325q-1 -2 -4 -4t-6 -2t-6 0.5t-5 2.5l-202 168q-3 4 -8.5 4t-10.5 -2 q-5 -3 -7 -7.5t-1 -10.5l79 -413q0 -2 1.5 -4.5t2.5 -4.5v-146q0 -7 4.5 -11.5t11.5 -4.5h738q7 0 11.5 4.5t4.5 11.5v147q2 1 3.5 3.5t1.5 6.5l78 413q1 4 -1 8.5t-7 7.5v0zM459 827q0 22 15.5 37.5t37.5 15.5t37.5 -15.5t15.5 -37.5q0 -21 -15.5 -37t-37.5 -16t-37.5 15 t-15.5 38v0zM160 16v128h704v-128h-704zM872 176h-720l-67 355l165 -139q7 -6 17 -9t19 -2q10 1 19 6.5t13 14.5l194 302l192 -302q6 -9 14 -14.5t18 -6.5t20 1.5t17 9.5l165 139l-66 -355v0zM515 456q0 1 -1 1.5t-2 0.5t-1.5 -0.5l-1.5 -1.5q-11 -17 -22.5 -36t-22.5 -34 q-7 -12 -7 -26t7 -26q11 -16 22.5 -34.5t22.5 -35.5q1 -1 2 -1t3 1q10 17 22 36t22 34q8 12 8 26t-8 26q-9 16 -20.5 34.5t-22.5 35.5v0z" />
</svg>