<svg viewBox="0 0 256 256" xmlns="http://www.w3.org/2000/svg">
  <path transform="scale(1, -1) translate(0, -256)" fill="currentColor" d="M244 160q0 7 -4.5 11.5t-11.5 4.5t-11.5 -4.5t-4.5 -10.5t4 -11l-37 -40q-1 -2 -3 -2t-4 2l-35 69q6 5 6 12.5t-4.5 12t-11 4.5t-11.5 -4.5t-5 -12t7 -12.5l-36 -69q-1 -2 -3.5 -2t-3.5 2l-35 40q4 5 4 11t-5 10.5t-11.5 4.5t-11 -4.5t-4.5 -10.5t3.5 -10.5t8.5 -5.5 l14 -98q1 -3 3 -4.5t4 -1.5h165q2 0 4 1.5t2 4.5l15 98q6 1 9.5 5.5t3.5 9.5zM204 55h-152l-11 73l25 -28q7 -7 16.5 -5.5t13.5 9.5l32 63l32 -63q4 -8 13.5 -9.5t16.5 5.5l25 28z" />
</svg>