<svg viewBox="0 0 1024 1024" xmlns="http://www.w3.org/2000/svg">
  <path transform="scale(1, -1) translate(0, -960)" fill="currentColor" d="M912 656q-32 0 -56 -23t-24 -57q0 -19 8 -34.5t22 -26.5l-136 -149q-4 -6 -11 -8t-14 -1t-13 5.5t-10 10.5l-132 261q20 9 32 28.5t12 43.5q0 32 -23 56t-57 24q-33 0 -56.5 -23.5t-23.5 -56.5q0 -24 13 -43.5t32 -28.5l-133 -261q-3 -7 -9 -11t-13 -5t-14 1t-12 8 l-136 149q14 11 22.5 27t8.5 34q0 32 -23.5 56t-56.5 24t-56.5 -23t-23.5 -57q0 -32 23 -56t57 -24h0.5h0.5l55 -373q1 -6 5.5 -10t10.5 -4h657q6 0 10.5 4t5.5 10l55 373h0.5h0.5q33 0 56.5 23t23.5 57q2 34 -21 57t-57 23v0zM512 752q19 0 33.5 -14t14.5 -34 q0 -19 -14 -33.5t-34 -14.5q-19 0 -33.5 14t-14.5 34t14.5 34t33.5 14zM64 578q0 19 14 33.5t34 14.5q19 0 33.5 -14t14.5 -34t-14 -34t-34 -14t-34 13.5t-14 34.5zM827 144h-630l-50 339l127 -139q8 -10 20 -15.5t24 -5.5h4.5h3.5q16 3 28 12t19 22l136 267h0.5h0.5h1h1 l136 -267q7 -13 19.5 -22t26.5 -12h4.5h3.5q14 0 25.5 5t19.5 16l127 139zM912 530q-19 0 -33.5 13.5t-14.5 34.5q0 19 14 33.5t34 14.5t34 -14t14 -34q0 -21 -14 -34.5t-34 -13.5z" />
</svg>