<svg viewBox="0 0 1024 1024" xmlns="http://www.w3.org/2000/svg">
  <path transform="scale(1, -1) translate(0, -960)" fill="currentColor" d="M950 806q-19 12 -41.5 12t-41.5 -12l-112 -67q-13 -7 -27.5 -6.5t-26.5 9.5l-139 111q-22 18 -51 17.5t-50 -17.5v0l-139 -114q-12 -9 -27.5 -10.5t-27.5 5.5l-110 66q-21 12 -43.5 12t-41.5 -12t-29 -32t-8 -43l53 -602q4 -42 34.5 -69.5t71.5 -27.5h635q42 0 72 27.5 t33 69.5l55 610q2 21 -8 41t-31 32zM829 58h-635q-29 0 -50.5 19t-23.5 49l-16 191h816l-18 -191q-2 -30 -23 -49t-50 -19v0zM957 734l-34 -385h-822l-34 379q-1 13 5 25.5t18 19.5q6 3 12 5.5t13 2.5q6 0 12.5 -1.5t11.5 -5.5l111 -65q21 -13 46.5 -11t44.5 17l139 114 q13 11 30.5 11t30.5 -11l139 -111q19 -15 44.5 -16.5t46.5 10.5l112 67q12 7 25.5 7t24.5 -7q13 -7 19 -19t5 -26v0zM331 242q-19 0 -32 -13.5t-13 -31.5t13.5 -31.5t31.5 -13.5q19 0 32 13.5t13 31.5t-13 31.5t-32 13.5zM557 197q0 -19 -13 -32t-32 -13t-32 13t-13 32 q0 18 13 31.5t32 13.5t32 -13.5t13 -31.5zM738 197q0 -19 -13.5 -32t-31.5 -13q-19 0 -32 13t-13 32q0 18 13 31.5t32 13.5q18 0 31.5 -13.5t13.5 -31.5z" />
</svg>