<svg viewBox="0 0 256 256" xmlns="http://www.w3.org/2000/svg">
  <path transform="scale(1, -1) translate(0, -256)" fill="currentColor" d="M244 165q-4 3 -8 -1l-50 -42v0l-50 78q7 2 11.5 8.5t4.5 13.5q0 11 -7 18t-17.5 7t-17.5 -7t-7 -18q0 -7 4.5 -13.5t11.5 -8.5l-49 -78h-1l-49 42q-4 4 -8.5 1t-3.5 -7l20 -104l1 -2v0v-36q0 -3 2 -5.5t5 -2.5h184q3 0 5 2.5t2 5.5v36h1v2l20 104q1 4 -4 7zM128 233 q4 0 7 -3t3 -7.5t-3 -7.5t-7 -3t-7 3t-3 7.5t3 7.5t7 3zM43 23v26h170v-26h-170zM215 63h-174l-15 78l34 -29q5 -5 11.5 -3.5t10.5 6.5l46 71l46 -71q3 -6 10 -7t12 3l34 29zM129 130h-1h-1l-11 -18q-4 -6 0 -12l11 -18q1 -1 1 0l12 18q3 6 0 12z" />
</svg>