<svg viewBox="0 0 1024 1024" xmlns="http://www.w3.org/2000/svg">
  <path transform="scale(1, -1) translate(0, -960)" fill="currentColor" d="M786 123h-548q-36 0 -63.5 21t-38.5 54l-102 335q-4 11 -1 22t12 19q8 8 20 9.5t21 -4.5l146 -70q10 -5 20 -3t17 11l213 243q6 6 13 9.5t15 3.5v0v0q9 0 16.5 -3.5t12.5 -9.5l213 -243q7 -9 17 -11t20 3l145 70q11 5 22.5 4t19.5 -9q8 -7 11.5 -18t-0.5 -23l-102 -335 q-9 -33 -36 -54t-63 -21zM70 550q-1 0 -2 -0.5t-2 -0.5l-1 -2t-1 -5l102 -334q8 -24 27.5 -38.5t44.5 -14.5h548q25 0 44.5 14.5t27.5 38.5l102 334q1 3 -0.5 5l-1.5 2q-1 1 -2.5 2t-5.5 -1l-145 -70q-19 -10 -40 -5.5t-35 21.5l-213 243q-1 1 -2.5 1.5t-2.5 0.5v0 q-1 0 -2.5 -0.5t-2.5 -1.5l-213 -243q-14 -16 -35 -20t-40 4l-145 70h-2h-2v0z" />
</svg>