<svg viewBox="0 0 256 256" xmlns="http://www.w3.org/2000/svg">
  <path transform="scale(1, -1) translate(0, -256)" fill="currentColor" d="M174 130q-3 -5 -6.5 -10t-3.5 -9.5t3.5 -8t9 -3.5t9.5 3.5t4 8t-3.5 9.5t-7.5 10q-3 2 -5 0zM128 251q-33 0 -61.5 -16.5t-45 -45t-16.5 -61.5t16.5 -61.5t45 -45t61.5 -16.5t61.5 16.5t45 45t16.5 61.5t-16.5 61.5t-45 45t-61.5 16.5zM128 19q-29 0 -54 14.5t-40 39.5 t-15 55t15 54.5t39.5 39.5t54.5 15t55 -15t39.5 -40t14.5 -54.5t-14.5 -54.5t-39.5 -39.5t-55 -14.5zM128 92q-30 0 -52 -21q-2 -2 -2.5 -5t1.5 -5t5 -2t5 2q18 17 43 17t43 -17q2 -2 5 -2t5 2t2 5t-3 5q-10 10 -24 15.5t-28 5.5zM87 151q6 0 10 4t4 10t-4 9.5t-9.5 3.5 t-9.5 -3.5t-4 -9.5t3.5 -10t9.5 -4zM169 151q6 0 9.5 4t3.5 10t-3.5 9.5t-9.5 3.5t-10 -3.5t-4 -9.5t4 -10t10 -4z" />
</svg>