<svg viewBox="0 0 256 256" xmlns="http://www.w3.org/2000/svg">
  <path transform="scale(1, -1) translate(0, -256)" fill="currentColor" d="M70 173h14v-35q0 -3 2 -5t5 -2t5 2t2 5v35h13q3 0 5 2t2 5t-2 5.5t-5 2.5h-40q-3 0 -5 -2.5t-2 -5.5t2 -5t4 -2zM186 187h-40q-3 0 -5.5 -2t-2.5 -5t2.5 -5t5.5 -2h13v-35q0 -3 2 -5t5 -2t5 2t2 5v35h13q3 0 5.5 2t2.5 5t-3 5t-5 2zM128 251q-33 0 -61.5 -16.5t-45 -45 t-16.5 -61.5t16.5 -61.5t45 -45t61.5 -16.5t61.5 16.5t45 45t16.5 61.5t-16.5 61.5t-45 45t-61.5 16.5zM128 19q-29 0 -54 14.5t-40 39.5t-15 55t15 54.5t39.5 39.5t54.5 15t55 -15t39.5 -40t14.5 -54.5t-14.5 -54.5t-39.5 -39.5t-55 -14.5zM188 87l-12 7q-6 4 -14 4 t-15.5 -4.5t-14.5 -0.5t-15 4.5t-15.5 -4t-14.5 0.5l-11 6q-3 1 -5.5 0.5t-4 -3t-1 -5t2.5 -4.5l12 -7q7 -4 14.5 -4t15 4.5t14.5 0t15 -4.5t15.5 4.5t14.5 -0.5l11 -7h5t4.5 3t1 5.5t-2.5 4.5z" />
</svg>