<svg viewBox="0 0 1024 1024" xmlns="http://www.w3.org/2000/svg">
  <path transform="scale(1, -1) translate(0, -960)" fill="currentColor" d="M742 725h-492q-8 0 -12 -4.5t-4 -11.5t4 -11.5t12 -4.5h492q3 0 6 -1.5t6 -3.5q3 -4 3.5 -7t-0.5 -6l-24 -131h-439q-7 0 -11.5 -4.5t-4.5 -11.5t4.5 -11.5t11.5 -4.5h434l-38 -219q0 -1 -1.5 -3t-3.5 -2l-162 -58h-2h-3l-161 58q-1 0 -2.5 2t-2.5 3l-21 102 q-1 6 -6.5 10t-12.5 3q-6 -1 -10 -6.5t-3 -12.5l21 -103q2 -9 9 -17t15 -11l162 -58q3 -1 6 -1.5t6 -0.5q4 0 7.5 0.5t5.5 1.5l162 58q9 3 16 11t8 17l69 383q2 9 -1 19.5t-11 18.5q-3 10 -12 14t-20 4v0zM949 907q-16 18 -37.5 27.5t-44.5 9.5h-710q-23 0 -44.5 -9.5 t-37.5 -27.5q-15 -18 -22 -40t-5 -46l85 -709q3 -35 26 -60.5t57 -33.5l270 -64q6 -2 12.5 -3t13.5 -1t13.5 1t12.5 3l270 64q34 8 57 33.5t26 60.5l85 709q2 24 -5 46t-22 40v0zM944 826l-85 -709q-2 -24 -18.5 -42.5t-40.5 -24.5l-270 -64q-9 -3 -18 -3t-18 3l-270 64 q-24 6 -40.5 24t-18.5 43l-85 709q-2 15 3 31t16 29q11 14 26 20t32 6h709q16 0 31 -7t26 -19t17 -28.5t4 -31.5z" />
</svg>