<svg viewBox="0 0 1024 1024" xmlns="http://www.w3.org/2000/svg">
  <path transform="scale(1, -1) translate(0, -960)" fill="currentColor" d="M787 718q-8 10 -19.5 15t-25.5 5h-492q-12 0 -20.5 -8.5t-8.5 -20.5t8.5 -20.5t20.5 -8.5h492h3h1v-1.5v-0.5l-23 -121h-429q-12 0 -20 -8.5t-8 -20.5t8 -20.5t20 -8.5h421l-35 -201l-157 -56l-157 56l-20 100q-3 11 -12.5 18t-21.5 5q-11 -3 -18 -12.5t-4 -21.5l20 -102 q3 -13 11.5 -23t20.5 -14l162 -58q4 -1 8.5 -2t9.5 -1q4 0 8 1t9 2l162 58q13 5 21 15t11 23l69 383q2 13 -1.5 25t-13.5 24v0zM958 915q-16 19 -40 30.5t-51 11.5h-710q-27 0 -50 -10.5t-41 -31.5q-17 -19 -25 -44t-4 -52l85 -709q4 -38 29.5 -66.5t62.5 -37.5l271 -64 l14 -2t13 -1t13.5 1t13.5 2l271 64q37 9 62.5 37.5t29.5 66.5l85 709q4 27 -4 52t-25 44v0zM933 827l-85 -709q-2 -20 -16 -35.5t-34 -20.5l-270 -64q-7 -1 -15 -1t-15 1l-271 64q-20 5 -33.5 20.5t-15.5 35.5l-87 709q-1 13 3.5 27t14.5 24q9 11 22 17t27 6h709 q15 0 27.5 -6t22.5 -17q8 -10 12.5 -24t3.5 -27v0z" />
</svg>