<svg viewBox="0 0 256 256" xmlns="http://www.w3.org/2000/svg">
  <path transform="scale(1, -1) translate(0, -256)" fill="currentColor" d="M197 196q-4 4 -11 4h-124q-3 0 -5 -2t-2 -5t2 -5t5 -2h124l-5 -31h-107q-3 0 -5.5 -2t-2.5 -5t2.5 -5t5.5 -2h105l-9 -51l-39 -14l-39 14l-6 26q0 2 -2.5 4t-5.5 1.5t-4.5 -3t-1.5 -5.5l6 -26q0 -3 2.5 -5.5t5.5 -3.5l40 -14q2 -1 4 -1h4l41 15q7 2 8 10l17 95q2 7 -3 13 zM240 245q-5 5 -11 7.5t-12 2.5h-178q-13 0 -22.5 -10.5t-7.5 -23.5l21 -177q2 -10 8 -17t16 -9l67 -16l7 -1q3 0 7 1l67 16q10 2 16 9t8 17l21 177q2 13 -7 24zM233 223l-21 -177q-1 -5 -4.5 -9t-7.5 -5l-68 -16q-4 -1 -8 0l-67 16q-5 1 -8.5 4.5t-4.5 9.5l-21 177 q-1 7 4 12.5t13 5.5h177q7 0 12 -5.5t4 -12.5z" />
</svg>