<svg viewBox="0 0 256 256" xmlns="http://www.w3.org/2000/svg">
  <path transform="scale(1, -1) translate(0, -256)" fill="currentColor" d="M228 251h-200q-10 0 -16.5 -6.5t-6.5 -16.5v-200q0 -10 7 -16.5t16 -6.5h200q10 0 17 6.5t7 16.5v200q-1 10 -7.5 16.5t-16.5 6.5zM237 228v-93h-100v102h91q4 0 6.5 -2.5t2.5 -6.5zM28 237h95v-102h-104v93q0 4 2.5 6.5t6.5 2.5zM19 28v93h104v-102h-95q-4 0 -6.5 2.5 t-2.5 6.5zM228 19h-91v102h100v-93q0 -4 -2.5 -6.5t-6.5 -2.5zM169 156h39q5 0 8.5 3t3.5 8v39q0 5 -3.5 8t-8.5 3h-39q-4 0 -7.5 -3t-3.5 -8v-39q0 -5 3.5 -8t7.5 -3zM172 202h34v-33h-34v33zM52 168q2 -2 4.5 -2t4.5 2l8 8l7 -8q2 -2 5 -2t5 2.5t2 5t-2 4.5l-8 8l8 8 q2 2 2 4.5t-2 5t-5 2.5t-5 -2l-7 -8l-7 8q-3 2 -5.5 2t-5 -2.5t-2 -5t2.5 -4.5l7 -8l-7 -8q-3 -2 -2.5 -4.5t2.5 -5.5zM69 102q-12 0 -21 -9t-9 -21.5t9 -21.5t21.5 -9t21.5 9t9 21.5t-9 21.5t-22 9zM69 54q-7 0 -11.5 5t-4.5 11.5t5 11.5t11.5 5t11.5 -5t5 -11.5t-5 -11.5 t-12 -5zM202 96q-5 6 -12 6t-12 -6l-26 -29q-3 -4 -4 -8.5t1.5 -9t6.5 -7t8 -2.5h51q5 0 9 2.5t6 7t1.5 9t-3.5 8.5zM218 55l-1 -0.5t-2 -0.5h-50q-2 0 -2.5 1.5t0.5 2.5l25 29q1 1 2 1t2 -1l25 -29l1 -2v-1z" />
</svg>