<svg viewBox="0 0 1024 1024" xmlns="http://www.w3.org/2000/svg">
  <path transform="scale(1, -1) translate(0, -960)" fill="currentColor" d="M912 928h-800q-34 0 -57 -23t-23 -57v-800q0 -34 23 -57t57 -23h800q34 0 57 23t23 57v800q0 34 -23 57t-57 23zM960 848v-384h-424v432h376q20 0 34 -14t14 -34zM112 896h392v-432h-440v384q0 20 14 34t34 14zM64 48v384h440v-432h-392q-20 0 -34 14t-14 34zM912 0h-376 v432h424v-384q0 -20 -14 -34t-34 -14zM677 570h157q13 0 22.5 9t9.5 23v156q0 14 -9.5 23t-22.5 9h-157q-13 0 -22.5 -9t-9.5 -23v-156q0 -14 9.5 -23t22.5 -9zM677 758h157v-156h-157v156v0zM214 619q3 -2 6 -3.5t6 -1.5q2 0 5 1.5t6 3.5l38 39l39 -39q2 -2 5 -3.5t6 -1.5 q2 0 5.5 1.5t5.5 3.5q5 5 5 11.5t-5 11.5l-38 38l38 38q5 5 5 11.5t-5 11.5t-11.5 5t-10.5 -5l-39 -39l-38 39q-5 5 -11.5 5t-11.5 -5q-4 -5 -4 -11.5t4 -11.5l39 -38l-39 -38q-4 -5 -4 -11.5t4 -11.5v0zM277 330q-46 0 -78.5 -32.5t-32.5 -78.5q0 -45 32.5 -77.5 t78.5 -32.5q45 0 77.5 32.5t32.5 77.5q0 46 -32.5 78.5t-77.5 32.5v0zM277 141q-33 0 -56 23t-23 55q0 33 23 56t56 23q32 0 55 -23t23 -56q0 -32 -23 -55t-55 -23v0zM802 315q-8 9 -19 14t-23 5t-22.5 -4.5t-19.5 -14.5l-100 -118q-11 -12 -13.5 -27.5t5.5 -30.5 q7 -14 19.5 -23t28.5 -9h203q15 0 28.5 8.5t19.5 23.5q7 15 5 30.5t-13 27.5l-99 118v0zM882 152q-3 -6 -8.5 -9.5t-11.5 -3.5h-203q-6 0 -11.5 3.5t-7.5 9.5t-2 12t5 12l101 118q4 4 7.5 6t8.5 2t9.5 -2t6.5 -6l101 -118q5 -6 6 -12t-1 -12v0z" />
</svg>