<svg viewBox="0 0 1024 1024" xmlns="http://www.w3.org/2000/svg">
  <path transform="scale(1, -1) translate(0, -960)" fill="currentColor" d="M912 755l-358 163q-21 10 -43 10t-42 -10l-357 -163q-13 -6 -24 -15.5t-19 -21.5v0v0v0v0q-7 -12 -11.5 -26t-4.5 -28v-414q0 -29 14.5 -53.5t41.5 -38.5l357 -179q10 -6 22 -8.5t24 -2.5t24 2.5t22 8.5l357 179q27 14 41.5 38.5t14.5 53.5v412q0 30 -16.5 55.5 t-42.5 37.5v0zM126 726l357 164q7 3 14.5 4.5t14.5 1.5t14.5 -1.5t14.5 -4.5l357 -164q4 -2 8 -4.5t8 -4.5l-402 -197l-402 197q4 2 8 4.5t8 4.5v0zM123 187q-18 9 -28 25.5t-10 37.5v412q0 8 1 15t4 13l406 -199v-489q-4 1 -7.5 2t-8.5 2l-357 181v0zM939 250 q0 -21 -10 -37t-28 -26l-357 -179q-4 -2 -7.5 -3.5t-8.5 -1.5v488l405 199q2 -6 3.5 -13t1.5 -15v-412h1z" />
</svg>