<svg viewBox="0 0 1024 1024" xmlns="http://www.w3.org/2000/svg">
  <path transform="scale(1, -1) translate(0, -960)" fill="currentColor" d="M920 802h-181v96q0 12 -8.5 21t-21.5 9h-394q-12 0 -21 -8.5t-9 -21.5v-98h-181q-13 0 -21.5 -8.5t-8.5 -21.5v-15q0 -44 16 -83q16 -40 44.5 -69.5t67.5 -48.5q38 -18 83 -21v-21q0 -44 16 -84q17 -39 45.5 -69.5t66.5 -48.5q39 -19 83 -22v-288h-152q-7 0 -11.5 -4.5 t-4.5 -11.5t4.5 -11.5t11.5 -4.5h338q7 0 11.5 4.5t4.5 11.5t-4.5 11.5t-11.5 4.5h-154v288q42 2 79.5 19.5t67.5 46.5q31 31 47.5 71.5t16.5 84.5v24q44 4 82 23q39 19 67.5 49t45.5 69q16 39 16 83v15q0 12 -8.5 20.5t-21.5 8.5v0zM106 758v12h179v-202q-75 6 -127 60.5 t-52 129.5v0zM707 512q0 -38 -14 -73t-40 -61q-28 -28 -64 -43t-77 -15q-40 0 -76 15q-35 15 -61.5 41t-42.5 61q-15 35 -15 75v384h390v-384zM918 758q0 -75 -51.5 -129.5t-127.5 -60.5v202h179v-12v0z" />
</svg>