<svg viewBox="0 0 256 256" xmlns="http://www.w3.org/2000/svg">
  <path transform="scale(1, -1) translate(0, -256)" fill="currentColor" d="M222 129q12 0 20.5 8.5t8.5 20t-8.5 20t-20.5 8.5h-18v3q0 8 -5.5 13.5t-13.5 5.5h-127q-8 0 -13 -5.5t-5 -13.5v-37q0 -16 6 -31t17 -27h-51q-3 0 -5 -2t-2 -5v-9q0 -13 8.5 -21.5t21.5 -8.5h174q12 0 21 8.5t9 21.5v9q0 3 -2 5t-5 2h-51q14 15 19 35h22zM222 172 q6 0 10.5 -4t4.5 -10t-4.5 -10t-10.5 -4h-19l1 29h18v-1zM225 78q0 -7 -5 -11.5t-11 -4.5h-174q-7 0 -11.5 4.5t-4.5 11.5v2h205v-2h1zM190 152q-1 -17 -9 -32.5t-22 -25.5h-75q-14 10 -22 25.5t-8 33.5v37q0 1 1.5 2.5t2.5 1.5h128q2 0 3 -1.5t1 -2.5v-38z" />
</svg>