<svg viewBox="0 0 1024 1024" xmlns="http://www.w3.org/2000/svg">
  <path transform="scale(1, -1) translate(0, -960)" fill="currentColor" d="M778 928h-532q-33 0 -56.5 -23t-23.5 -57v-717q0 -33 23.5 -56.5t56.5 -23.5h15v-67q0 -7 4.5 -11.5t11.5 -4.5t11.5 4.5t4.5 11.5v67h440v-67q0 -7 4.5 -11.5t11.5 -4.5t11.5 4.5t4.5 11.5v67h14q34 0 57 23.5t23 56.5v717q-1 34 -24.5 57t-56.5 23v0zM198 131v717 q0 20 14 34t34 14h250v-358h-27q-7 0 -11.5 -4.5t-4.5 -11.5q0 -8 4.5 -12t11.5 -4h27v-423h-250q-20 0 -34 14t-14 34zM826 131q0 -20 -14 -34t-34 -14h-250v423h27q7 0 11.5 4t4.5 12q0 7 -4.5 11.5t-11.5 4.5h-27v358h250q20 0 34 -14t14 -34v-717z" />
</svg>