<svg viewBox="0 0 256 256" xmlns="http://www.w3.org/2000/svg">
  <path transform="scale(1, -1) translate(0, -256)" fill="currentColor" d="M209 186l-1 1q-15 13 -40 23q-3 1 -10 2q5 7 5 14q0 11 -7 18q-6 5 -13.5 6.5t-14.5 -1.5q-5 2 -10 2q-9 0 -16.5 -6.5t-8 -16.5t4.5 -17l-10 -3q-13 -4 -26 -11q-8 -5 -10 -7q-34 -25 -37 -61v-1q-1 -4 -1 -10l7 -39l10 -57q1 -7 7 -12t14 -5h152q8 0 14 4.5t7 12.5 l17 95q0 25 -13 46q-7 12 -20 23v0zM110 234q3 3 7 3t7.5 -2.5t7 0t7.5 2t7 -3.5t3 -7t-3 -8l-18 -18l-17 18q-4 3 -4 8t3 8zM29 127v1q2 29 31 51l10 6q11 7 23 10q8 2 15 3l2 1l10 -10q3 -4 8 -4t8 4l11 11l2 -1q8 -1 15 -3q22 -8 36 -20v0q28 -24 28 -57l-1 -2 q-2 -7 -10 -13q-10 -8 -23 -8q-11 0 -19 5q-4 3 -7 7v0q-2 4 -6 4t-6 -4l-3 -3q-4 -3 -9 -6q-7 -3 -16 -3h-1q-8 0 -14 2.5t-9 6l-3 3.5q-2 4 -5.5 4t-6.5 -3q-5 -8 -15 -11q-6 -2 -10 -2q-22 3 -30 13q-5 6 -5 12v0q-1 2 0 6zM211 25q0 -3 -2 -4.5t-5 -1.5h-152 q-3 0 -5 1.5t-2 4.5l-12 66q13 -8 29 -9v0q6 0 12 1q12 3 20 11q14 -13 33 -13h1q20 1 33 13q13 -13 33 -13q16 0 28 9zM74 67q-1 2 -4 3t-5.5 0t-3.5 -4t1 -5l9 -19q2 -4 7 -4h3q2 2 3 4.5t0 5.5zM128 71q-3 0 -5 -2t-2 -5v-20q0 -3 2 -5t5 -2t5 2t2 5v20q0 3 -2 5t-5 2z M192 70q-3 1 -5.5 0t-4.5 -3l-9 -19q-1 -3 -0.5 -5.5t3.5 -4.5h3q2 0 4 1t3 3l9 19q1 2 0 4.5t-3 4.5z" />
</svg>