<svg viewBox="0 0 1024 1024" xmlns="http://www.w3.org/2000/svg">
  <path transform="scale(1, -1) translate(0, -960)" fill="currentColor" d="M918 422q-8 12 -21 19t-28 7h-69q0 79 -38 147t-100 109q30 7 49.5 31t19.5 55v5v3v0v0q1 0 2.5 0.5t2.5 1.5q19 7 59 30.5t64 75.5q3 6 0.5 12t-8.5 8q-6 3 -12 0.5t-9 -8.5q-20 -43 -54 -63t-51 -26q-1 0 -2 -1l-1 -1q-11 23 -32.5 37t-49.5 14q-37 0 -63.5 -26 t-26.5 -63q0 -12 3.5 -23.5t9.5 -21.5q-13 2 -26.5 4t-27.5 2q-59 0 -111 -24q-53 -24 -92 -65.5t-62 -97.5q-23 -55 -23 -117h-67q-15 0 -28.5 -6.5t-21.5 -18.5t-10.5 -26.5t2.5 -28.5l130 -360q6 -18 21 -29t35 -11h459q19 0 34.5 11t21.5 29l129 362q5 13 3 27.5 t-11 26.5v0zM643 846q24 0 41 -16.5t17 -40.5t-17 -41t-41 -17t-40.5 17t-16.5 41t16.5 40.5t40.5 16.5zM512 718q51 0 97 -22q47 -22 82 -59t56 -87q21 -49 21 -104h-512q0 55 21 104q21 50 56 87t82 59q46 22 97 22zM536 414h182l-64 -412v-2v-2h-118v416v0zM504 0h-118 v1.5v1.5l-64 413h182v-416zM256 18l-128 360q-2 6 -1 12.5t4 12.5q4 6 9.5 8.5t13.5 2.5h136v-1v0l64 -413h-71q-9 0 -16 5t-11 13v0zM896 378l-128 -360q-2 -9 -9.5 -13.5t-16.5 -4.5h-54l64 413v1v0h120q7 0 13 -3t9 -8q3 -6 3.5 -12t-1.5 -13v0z" />
</svg>