<svg viewBox="0 0 256 256" xmlns="http://www.w3.org/2000/svg">
  <path transform="scale(1, -1) translate(0, -256)" fill="currentColor" d="M248 148q-6 8 -16 8h-18q0 24 -12 44t-31.5 32t-42.5 12t-42.5 -12t-31.5 -32t-12 -44h-18q-10 0 -16 -8q-2 -4 -3 -8.5t1 -8.5l38 -107q3 -6 7.5 -9t10.5 -3h132q6 0 11 3t7 9l38 107q3 10 -2 17zM128 230q19 0 35.5 -10t26.5 -27t10 -37h-144q0 20 10 37t26.5 27 t35.5 10zM137 26v116h47l-18 -116h-29zM94 26l-18 116h47v-116h-29zM58 29l-39 107q-1 3 1 4v0q1 2 3 2h39l18 -116h-18q-4 0 -4 3zM237 136l-39 -107q-1 -3 -4 -3h-14l18 116h34q3 0 4.5 -2t0.5 -4z" />
</svg>