<svg viewBox="0 0 256 256" xmlns="http://www.w3.org/2000/svg">
  <path transform="scale(1, -1) translate(0, -256)" fill="currentColor" d="M232 123q-5 8 -14 8h-15v1q0 18 -8 33.5t-22 25.5q6 4 9.5 9.5t3.5 12.5q8 3 16 8q10 8 16 20q1 2 0 5t-3.5 4t-5 0t-3.5 -3q-7 -14 -24 -21q-3 6 -8.5 9t-12.5 3q-11 0 -18 -7t-7 -18q0 -4 1 -7h-9q-20 0 -37.5 -10t-27.5 -27t-10 -37v-1h-15q-9 0 -14 -7.5t-3 -16.5 l33 -90q1 -6 6 -9t10 -3h115q6 0 10.5 3t6.5 9l32 90q4 9 -2 16zM161 225q5 0 8 -3.5t3 -8t-3.5 -8t-8 -3.5t-7.5 3.5t-3.5 8t3 8t8.5 3.5zM137 19v98h39l-15 -98h-24zM99 19l-15 98h39v-98h-24zM67 132q0 16 8 30t22 22t31 8t31 -8t22 -22t8 -30v-1h-122v1zM67 22l-32 90 q-1 1 0 3t3 2h32l15 -98h-15q-2 0 -3 3zM221 112l-32 -90q-1 -3 -4 -3h-10l15 97h27q2 0 3.5 -1.5t0.5 -2.5z" />
</svg>