<svg viewBox="0 0 1024 1024" xmlns="http://www.w3.org/2000/svg">
  <path transform="scale(1, -1) translate(0, -960)" fill="currentColor" d="M829 672l-3 3q-18 17 -54 40t-105 48q-12 5 -26 8.5t-30 6.5l2 1q12 12 18.5 28.5t6.5 34.5t-6.5 33.5t-18.5 28.5q-21 20 -49 24.5t-54 -8.5q-8 4 -18 6t-20 2h-1h-1q-16 0 -31 -6t-28 -16q-13 -12 -20 -27.5t-7 -33.5q0 -19 7 -36.5t20 -30.5l3 -4q-15 -2 -29.5 -5.5 t-27.5 -6.5q-64 -18 -103.5 -44.5t-40.5 -27.5q-64 -51 -99.5 -110.5t-41.5 -126.5v-3q-2 -15 -1.5 -28t1.5 -14q0 -1 7 -45q8 -44 18 -104.5t22 -124.5q11 -64 19 -105q4 -25 24 -42t46 -17h611q27 0 46.5 17t24.5 42l65 377v1v1q2 55 -13 99t-36 77t-43 55t-34 33v0z M434 882q7 7 16.5 10.5t19.5 3.5h0.5h1.5q8 0 16 -2.5t14 -7.5q4 -2 9 -2t9 2q17 12 36.5 10t33.5 -16q9 -8 12.5 -18t3.5 -22q0 -11 -4 -21t-12 -17l-78 -79q-1 -1 -2 -1t-1 1l-75 75q-9 9 -13.5 20.5t-4.5 24.5q0 11 4.5 21t13.5 18v0zM102 445v5q5 61 38 114.5t92 97.5 l37 24.5t96 41.5q14 4 30 7.5t34 6.5q2 0 4.5 2t4.5 3l47 -46q5 -5 11.5 -7.5t12.5 -2.5t12.5 2.5t11.5 7.5l51 51q2 -1 4 -3t6 -2q18 -2 33.5 -5.5t28.5 -8.5q65 -23 97.5 -44.5t49.5 -37.5l3 -3q22 -19 70 -79t44 -159l-2 -13v0v0q-7 -22 -43.5 -56.5t-100.5 -34.5v0v0 q-58 0 -86 26.5t-29 29.5q-2 3 -5.5 5.5t-7.5 2.5q-3 0 -7 -2.5t-5 -5.5l-28.5 -27.5t-91.5 -28.5q-63 -2 -91 25.5t-29 30.5q-3 3 -6.5 5.5t-6.5 2.5q-4 0 -8 -1.5t-7 -5.5q-31 -43 -70.5 -49.5t-41.5 -6.5q-110 12 -130 59.5t-20 51.5v0v0q-1 4 -1.5 12t-0.5 15v0zM856 34 q-2 -15 -13 -24.5t-27 -9.5h-610q-14 0 -25 9.5t-13 22.5q-5 26 -11 63q-7 37 -13.5 77.5t-13.5 80.5t-13 73q20 -18 52.5 -32t81.5 -20q3 0 46 6t82 48q15 -16 46.5 -35t83.5 -19h2h3q52 1 85 19.5t47 34.5q15 -16 46.5 -35t83.5 -19v0v0q42 0 75.5 14.5t57.5 36.5 l-53 -291v0zM285 197q-3 6 -9 8t-12 0q-6 -3 -8 -9t2 -12l38 -77q2 -5 6 -7t8 -2h4t3 1q6 3 8 9t-2 12l-38 77v0zM512 208q-7 0 -11.5 -4.5t-4.5 -11.5v-80q0 -7 4.5 -11.5t11.5 -4.5t11.5 4.5t4.5 11.5v80q0 7 -4.5 11.5t-11.5 4.5zM760 205q-6 2 -12 0t-9 -8l-38 -77 q-3 -6 -0.5 -12t8.5 -9q1 -1 3 -1h3q5 0 8.5 2t6.5 7l38 77q2 5 0 11t-8 10z" />
</svg>