<svg viewBox="0 0 1024 1024" xmlns="http://www.w3.org/2000/svg">
  <path transform="scale(1, -1) translate(0, -960)" fill="currentColor" d="M955 928h-118q-19 0 -36 -7t-30 -20t-20 -30t-7 -36q0 -27 14 -49t37 -34l-211 -211q-76 122 -169 168q-94 47 -176 53.5t-138 -9.5q-57 -15 -58 -15q-3 -2 -5.5 -5t-3.5 -7q-2 -3 -0.5 -7.5t4.5 -6.5l359 -358l-138 -138l-16 5l-64 21q-14 4 -24.5 -0.5t-15.5 -9.5 l-22.5 -23.5t-30.5 -29.5q-9 -8 -11.5 -16t-4.5 -13q-1 -13 4.5 -21t7.5 -9q2 -2 46 -47.5t58 -56.5q6 -6 12.5 -8t12.5 -2q9 0 16 3.5t11 8.5l58 57q11 11 11.5 22.5t-1.5 17.5l-21 64l-5 13l139 139l359 -358q2 -3 4.5 -4t6.5 -1h1.5h1.5q4 1 7 3.5t4 6.5q1 1 16 57 t8.5 138t-53.5 175q-46 93 -168 169l212 211q3 -6 7 -11t9 -10q12 -12 28 -19t32 -8h3h1q16 0 32.5 7t29.5 19q14 14 22 32.5t8 37.5v117q0 14 -10 24.5t-25 10.5v0zM560 517l-141 -141l-339 341q29 8 85 15t124 -7.5t140 -61.5t131 -146zM102 147v0v0q0 1 1.5 3.5t3.5 4.5 q9 7 31.5 30.5t24.5 25.5l1.5 1t5.5 1l64 -21l-90 -90q-12 12 -22.5 23t-17.5 17l-1 2t-1 3zM275 102l0.5 -1.5t-1.5 -2.5l-58 -58q-1 -1 -3.5 -1.5t-6.5 3.5q-4 3 -14.5 14t-25.5 24l88 88zM782 14l-340 340l140 140q100 -59 147 -131q46 -71 60.5 -139t7.5 -124 q-7 -57 -15 -86v0zM958 778q0 -14 -5.5 -26.5t-14.5 -21.5t-20.5 -13.5t-23.5 -2.5q-12 0 -21.5 4.5t-18.5 12.5q-6 6 -10 14.5t-6 17.5q-1 5 -4.5 8.5t-7.5 4.5q-22 4 -36 21t-14 38q0 12 4.5 23.5t13.5 19.5q8 9 19 13.5t24 4.5h118q1 0 2 -1t1 -2v-115v0z" />
</svg>