<svg viewBox="0 0 1024 1024" xmlns="http://www.w3.org/2000/svg">
  <path transform="scale(1, -1) translate(0, -960)" fill="currentColor" d="M982 774l-65 64v0v0v0v0l-69 66q-5 5 -10.5 7.5t-11.5 2.5t-12 -2.5t-11 -7.5l-64 -69q-6 -7 -8 -16t2 -19l38 -85l-64 -64q-26 15 -53.5 19t-56.5 -3q-53 -13 -91 -52.5t-56 -65.5q-18 26 -56 66t-92 52q-32 9 -64.5 1.5t-64.5 -30.5q-60 -41 -74 -99 q-15 -59 -8.5 -112.5t21.5 -91.5t16 -39q1 -4 22 -40t60 -83l-146 -133v94q0 8 -4.5 12t-11.5 4t-11.5 -4t-4.5 -12v-136q0 -7 4.5 -11.5t11.5 -4.5h136q7 0 11.5 4.5t4.5 11.5q0 8 -4.5 12t-11.5 4h-101l147 133q40 -44 95 -85t125 -64h2h2h3h2q79 26 137 74 q59 48 98.5 96.5t59.5 85.5t22 40q1 1 15 38q15 37 21.5 90t-7.5 111q-13 58 -69 101l59 59l82 -39q3 -1 6.5 -2t6.5 -1q6 0 11.5 2.5t8.5 5.5l71 66q5 5 7 10.5t2 11.5q2 10 -0.5 16.5t-7.5 10.5v0zM763 813l63 69l56 -55l-87 -86zM747 309q0 -1 -19 -35 q-19 -35 -55.5 -80.5t-90.5 -92.5q-55 -46 -128 -71q-62 22 -112 60.5t-88 79.5l55 48q5 4 5 10.5t-4 11.5t-10.5 5t-11.5 -3l-53 -48q-38 45 -57.5 80t-20.5 36t-14 35q-14 35 -19.5 83t6.5 100q13 52 65 88q19 13 38.5 20t38.5 7q7 0 13.5 -1t13.5 -2q63 -14 101.5 -69.5 t39.5 -56.5q2 -4 6 -6t8 -2v0q5 0 8.5 2t6.5 6q0 1 39 55.5t102 70.5q25 6 51 0t51 -24q51 -37 63 -89t5.5 -100t-19.5 -83q-14 -34 -14 -35zM890 685l-71 33l87 87l54 -53z" />
</svg>