<svg viewBox="0 0 256 256" xmlns="http://www.w3.org/2000/svg">
  <path transform="scale(1, -1) translate(0, -256)" fill="currentColor" d="M248 212l-17 16l-17 16q-3 3 -7.5 3t-7.5 -3l-16 -18q-2 -2 -2.5 -5.5t0.5 -6.5l9 -19l-13 -13q-14 7 -28 4q-11 -3 -21 -12q-8 -7 -15 -16q-6 9 -14 16q-11 9 -22 12q-18 4 -34 -7.5t-22 -29.5q-4 -15 -1 -33q3 -15 9 -28q1 -2 5 -9q6 -10 14 -20l-29 -26v17q0 3 -2 5 t-5 2t-5 -2t-2 -5v-34q0 -3 2 -5.5t5 -2.5h34q3 0 5 2.5t2 5.5t-2 5t-5 2h-17l29 26q23 -26 54 -36l2 -1q1 0 2 1q32 10 57 40q13 16 23 34v1q10 20 11 42q0 29 -19 45l11 11l18 -9q3 -1 5.5 -1t6.5 3l18 16q3 4 4 8.5t-3 8.5zM194 219l13 13l9 -9l-16 -17zM184 94v0 q-9 -16 -20 -31q-23 -27 -50 -36q-24 8 -46 31l11 10q2 2 2.5 5t-1.5 5t-5 2t-5 -2l-12 -10q-9 12 -16 25l-1 1q-1 1 -3 9q-4 10 -5 19q-2 14 1 24q4 13 16 21q9 6 17 6l6 -1q8 -2 17 -10q6 -5 11 -12t5 -8q2 -4 6 -4t6 4q0 1 5 8t11 12q9 8 17 10q12 3 23 -5q22 -14 18 -44 q-1 -16 -8 -29zM222 191l-12 5l16 17l10 -9z" />
</svg>