<svg viewBox="0 0 256 256" xmlns="http://www.w3.org/2000/svg">
  <path transform="scale(1, -1) translate(0, -256)" fill="currentColor" d="M239 251h-30q-11 0 -18.5 -7.5t-7.5 -18.5q0 -13 11 -21l-48 -48q-17 27 -43 41q-20 11 -44 13q-17 1 -35 -3q-11 -2 -14.5 -3.5t-4 -5.5t2.5 -6l87 -88l-31 -31l-18 6q-4 1 -7.5 0t-5.5 -3l-13 -14q-5 -4 -5.5 -8t1 -6.5t2.5 -3.5l4 -4q19 -19 22.5 -22t9 -3t8.5 3 l14 15q3 3 3.5 6.5t-0.5 6.5l-6 18l31 31l88 -88q2 -2 5 -2h1q4 1 5.5 4.5t4.5 14.5q3 17 2 35q-2 24 -13 44q-13 25 -41 43l48 48l2 -3q6 -7 17 -7h1q10 0 18 7.5t8 19.5v28q1 5 -2.5 8.5t-8.5 3.5zM136 146l-31 -32l-79 80q26 6 50 -1q37 -10 60 -47zM42 66l10 -4l-16 -16 l-7 7zM66 42l-13 -13l-7 7l16 16zM194 25l-79 79l31 32q38 -24 48 -61q6 -24 0 -50zM237 210q0 -5 -4 -9t-9 -4t-8 3t-3 6t-2 5t-4 2q-4 1 -7 4t-3 8t3.5 8.5t8.5 3.5h28v-27z" />
</svg>