<svg viewBox="0 0 256 256" xmlns="http://www.w3.org/2000/svg">
  <path transform="scale(1, -1) translate(0, -256)" fill="currentColor" d="M240 68q-4 12 -14 18t-22 2l-48 -14q2 7 0 13.5t-8 9.5t-13 3h-39q-6 0 -11.5 5.5t-14.5 5.5h-31q-10 0 -17 -7.5t-7 -17.5v-50q0 -11 7 -18.5t17 -7.5h38q8 0 14 5l1 -1q16 -9 35 -9q11 0 22 3l71 22q14 5 18.5 16t1.5 22zM39 24q-4 0 -7 3.5t-3 8.5v50q0 5 3 8t7 3h31 q4 0 6 -2l4 -3v-67l-3 -1h-38zM216 43l-71 -21q-10 -3 -17 -3q-16 0 -30 7l-4 3v57h41q3 0 5.5 -1t3 -3t-1.5 -6t-6.5 -8.5t-2.5 -8t4 -4t10 1.5l61 18q6 2 11.5 -1t6.5 -10q5 -15 -10 -21zM202 194q12 0 20 8.5t8 20.5t-8 20t-20 8t-20 -8t-8 -20t8.5 -20.5t19.5 -8.5z M202 237q6 0 10 -4.5t4 -10.5t-4 -10t-10 -4t-10 4t-4 10.5t4 10.5t10 4zM193 108h13q12 0 20 8t8 20v22q0 12 -8 20t-20 8h-12q-12 0 -20 -8t-8 -20v-22q0 -12 8 -20t19 -8zM180 158q0 6 4 10t10 4h12q6 0 10 -4t4 -10v-22q0 -6 -4 -10t-10 -4h-13q-5 0 -9 4t-4 10v22z" />
</svg>