<svg viewBox="0 0 1024 1024" xmlns="http://www.w3.org/2000/svg">
  <path transform="scale(1, -1) translate(0, -960)" fill="currentColor" d="M947 205v0q-13 42 -50 63t-76 10q-51 -14 -114 -33t-105 -31q14 23 15 40t-4 29q-9 22 -30.5 32t-43.5 10h-155q-13 0 -26.5 6t-26.5 18q-11 9 -24 14t-27 5h-125q-35 0 -59 -25.5t-24 -62.5v-202q0 -37 25 -63t60 -26h152q14 0 28 4.5t25 14.5l11 -6q31 -17 66 -26.5 t71 -9.5q22 0 43.5 3.5t41.5 9.5l283 87q54 21 67 61.5t2 77.5zM330 307v-281q-5 -3 -11 -4t-12 -1h-150q-22 0 -37.5 16.5t-15.5 40.5v202q0 23 15 39.5t36 16.5h127q8 0 15 -2.5t13 -8.5q5 -6 10 -10l10 -8v0zM867 98l-283 -87q-18 -6 -36.5 -8.5t-38.5 -2.5 q-33 0 -63.5 8t-58.5 24l-21 11l-4 2v249q4 -1 10 -2t10 -1h157q13 0 26.5 -5.5t16.5 -16.5q5 -13 -4.5 -32t-33.5 -42l-10 -8l7 -11q5 -10 24 -6t129 36q51 15 93 27.5l42 12.5q27 8 52.5 -7t33.5 -44q6 -15 2.5 -47t-50.5 -50v0zM808 726q42 0 71.5 29.5t29.5 71.5 t-29.5 71.5t-71.5 29.5t-71.5 -29.5t-29.5 -71.5t30 -71.5t71 -29.5zM808 896q29 0 49 -20t20 -49t-20 -49t-49 -20t-49 20t-20 49t20.5 49t48.5 20zM771 378h53q41 0 70 29t29 70v91q0 41 -29 70t-70 29h-48q-41 0 -70 -29t-29 -70v-90q0 -42 28 -71t66 -29v0zM707 570 q0 27 20 47t47 20h48q28 0 48 -20t20 -47v-92q0 -27 -20 -47t-48 -20h-52q-26 0 -44.5 20t-18.5 49v90v0z" />
</svg>