<svg viewBox="0 0 1024 1024" xmlns="http://www.w3.org/2000/svg">
  <path transform="scale(1, -1) translate(0, -960)" fill="currentColor" d="M754 259q-20 0 -37 -4.5t-32 -12.5l-154 224l299 436q4 6 3 12.5t-7 10.5q-6 3 -12.5 2t-10.5 -7l-291 -426l-291 428q-4 6 -10.5 7t-12.5 -3q-6 -3 -7 -9.5t3 -12.5l299 -437l-154 -224q-15 9 -32 13.5t-37 4.5q-60 0 -102.5 -43t-42.5 -103t42.5 -102.5t102.5 -42.5 t103 42.5t43 102.5q0 34 -13.5 62t-37.5 49l147 212l146 -214q-23 -20 -37.5 -48.5t-14.5 -61.5q0 -60 43 -103t103 -43t103 43t43 103t-42 102.5t-102 42.5v0zM384 114q0 -47 -33.5 -80.5t-80.5 -33.5q-46 0 -79.5 33.5t-33.5 80.5q0 46 33.5 79.5t79.5 33.5 q47 0 80.5 -33.5t33.5 -79.5zM754 0q-47 0 -80.5 33.5t-33.5 80.5q0 46 33.5 79.5t80.5 33.5q46 0 79.5 -33.5t33.5 -79.5q0 -47 -33.5 -80.5t-79.5 -33.5z" />
</svg>