<svg viewBox="0 0 256 256" xmlns="http://www.w3.org/2000/svg">
  <path transform="scale(1, -1) translate(0, -256)" fill="currentColor" d="M188 84q-8 0 -16 -4l-35 52l73 108q2 2 1 5t-3 4.5t-5 1t-5 -2.5l-70 -103l-70 103q-2 2 -5 3t-5 -0.5t-3 -4.5t1 -6l74 -107l-36 -52q-7 3 -16 3q-17 0 -28.5 -11.5t-11.5 -28t11.5 -28t28 -11.5t28 11.5t11.5 28t-11 27.5l32 48l33 -47q-12 -12 -12 -28t11.5 -28 t28 -12t28 11.5t11.5 28t-11.5 28t-28.5 11.5zM68 19q-11 0 -18.5 7.5t-7.5 18t7.5 18t18 7.5t18 -7.5t7.5 -18t-7.5 -18t-17.5 -7.5zM188 19q-10 0 -17.5 7.5t-7.5 18t7.5 18t18 7.5t18 -7.5t7.5 -18t-7.5 -18t-18.5 -7.5z" />
</svg>