<svg viewBox="0 0 256 256" xmlns="http://www.w3.org/2000/svg">
  <path transform="scale(1, -1) translate(0, -256)" fill="currentColor" d="M128 251q-33 0 -61.5 -16.5t-45 -45t-16.5 -61.5t16.5 -61.5t45 -45t61.5 -16.5t61.5 16.5t45 45t16.5 61.5t-16.5 61.5t-45 45t-61.5 16.5zM128 19q-29 0 -54 14.5t-40 39.5t-15 55t15 54.5t39.5 39.5t54.5 15t55 -15t39.5 -40t14.5 -54.5t-14.5 -54.5t-39.5 -39.5 t-55 -14.5zM86 151q6 0 10 4t4 10t-4 10t-10 4t-10 -4t-4 -10t4 -10t10 -4zM170 151q6 0 10 4t4 10t-4 10t-10 4t-10 -4t-4 -10t4 -10t10 -4zM181 82q-3 0 -5 -2t-2 -5q0 -6 -6 -10.5t-14 -4.5t-13.5 4.5t-12.5 4.5t-12 -4.5t-13.5 -4.5t-14 4.5t-5.5 10.5q0 3 -2 5t-5 2 t-5.5 -2t-2.5 -5q0 -12 10 -20.5t23.5 -8.5t23.5 8q1 2 3 2t3 -2q10 -8 23.5 -8t23.5 8.5t10 20.5q0 3 -2 5t-5 2z" />
</svg>