<svg viewBox="0 0 256 256" xmlns="http://www.w3.org/2000/svg">
  <path transform="scale(1, -1) translate(0, -256)" fill="currentColor" d="M242 211q-9 9 -24.5 9t-32 -7.5t-29.5 -19.5q-9 -9 -8 -22t10 -23l6 -6l-32 -32l-19 19q10 11 10 26.5t-11 26.5l-43 42q-2 2 -5 2t-5 -2t-2 -5t2 -5l43 -42q6 -7 6 -17t-6 -17l-59 60q-2 2 -5 2t-5 -2t-2 -5t2 -5l60 -59q-8 -6 -17.5 -6t-16.5 7l-42 42q-2 2 -5 2 t-5 -2.5t-2 -5t2 -4.5l42 -43q11 -11 26.5 -11t26.5 10l19 -18l-57 -58q-3 -2 -2.5 -5t2.5 -5t4.5 -2t4.5 2l58 58l59 -58q2 -2 4.5 -2t4.5 2t2 5t-2 5l-57 58l32 32l5 -5q10 -10 23 -10t22 8v1q12 12 20 28.5t7.5 32t-9.5 24.5zM213 136q-5 -5 -12 -4.5t-13 5.5l-20 21 q-6 6 -6 13t5 12q10 10 23 16.5t25 7t17.5 -5t5 -16.5t-7 -24.5t-17.5 -24.5z" />
</svg>