<svg viewBox="0 0 1024 1024" xmlns="http://www.w3.org/2000/svg">
  <path transform="scale(1, -1) translate(0, -960)" fill="currentColor" d="M880 928q-7 0 -11.5 -4.5t-4.5 -11.5v-264q0 -47 -34.5 -80.5t-83.5 -33.5h-4v378q0 7 -4 11.5t-12 4.5q-7 0 -11.5 -4.5t-4.5 -11.5v-378h-3q-49 0 -83.5 33.5t-34.5 80.5v264q0 7 -4.5 11.5t-11.5 4.5t-11.5 -4.5t-4.5 -11.5v-264q0 -60 44 -103t106 -43h3v-518 q0 -7 4.5 -11.5t11.5 -4.5q8 0 12 4.5t4 11.5v518h4q62 0 106 43t44 103v264q0 7 -4.5 11.5t-11.5 4.5zM322 923h-68q-38 0 -66 -27t-28 -66l-32 -484q0 -4 1 -6.5t4 -5.5q2 -2 5.5 -3t5.5 -1h162v-346q0 -7 4 -11.5t12 -4.5q7 0 11.5 4.5t4.5 11.5v923q0 6 -5 11t-11 5z M162 362l30 468q0 26 18 43.5t44 17.5h52v-529h-144v0z" />
</svg>