<svg viewBox="0 0 1024 1024" xmlns="http://www.w3.org/2000/svg">
  <path transform="scale(1, -1) translate(0, -960)" fill="currentColor" d="M958 773q-26 26 -67 31q-41 4 -86.5 -7.5t-90.5 -37.5q-46 -26 -80 -60q-16 -15 -24 -36t-7 -44t10.5 -43.5t24.5 -36.5l34 -33l-146 -146l-92 93l1 1q22 20 33.5 46t11.5 55q0 28 -10.5 53.5t-29.5 44.5l-171 171q-5 5 -11.5 5t-11.5 -5q-4 -5 -4 -11.5t4 -10.5 l170 -170q16 -14 23 -34t7 -41q0 -23 -9 -44t-26 -38l-1 -1l-245 244q-5 5 -11.5 5t-11.5 -5q-4 -4 -4 -10.5t4 -11.5l247 -246l-2 -2q-33 -34 -79.5 -35t-78.5 32l-170 169q-5 5 -11 5t-11 -5q-5 -4 -5 -10.5t5 -11.5l169 -170q21 -20 46.5 -30t53.5 -10t55 11t50 33l2 1 l93 -93l-240 -240q-5 -4 -5 -10.5t5 -11.5q2 -2 5 -3.5t6 -1.5t6 1.5t5 3.5l240 240l240 -240q2 -2 5.5 -3.5t5.5 -1.5q4 0 6.5 1.5t4.5 3.5q5 5 5 11.5t-5 10.5l-240 240l146 146l27 -27q18 -18 40 -26.5t45 -8.5q22 0 41.5 8t35.5 24q48 48 77.5 111.5t29.5 120.5 q0 28 -8.5 51t-25.5 40v0zM862 472q-22 -23 -56.5 -21.5t-59.5 26.5l-85 83q-12 12 -19 27t-7 32q-1 17 5 31.5t18 26.5q30 30 69 53t78.5 34.5t74.5 9.5q35 -3 56 -24q12 -12 18 -29t6 -39q0 -50 -27 -108.5t-71 -101.5z" />
</svg>