<svg viewBox="0 0 256 256" xmlns="http://www.w3.org/2000/svg">
  <path transform="scale(1, -1) translate(0, -256)" fill="currentColor" d="M174 109l73 72q4 4 4 9t-4 9l-7 7q-7 7 -16.5 7.5t-18.5 -6.5l-69 -59q-2 -1 -2 -4.5t2 -5.5l24 -24l-19 -19l-35 35q10 11 10 25.5t-11 24.5l-44 38q-2 2 -5 2t-5 -2t-1.5 -5t2.5 -5l43 -38q7 -6 7 -15t-6 -15l-57 56q-2 2 -5 2t-5 -2t-2 -5t2 -5l57 -56q-7 -6 -16 -5.5 t-15 6.5l-38 43q-2 2 -4.5 2t-5 -1.5t-2.5 -4.5t1 -6l38 -43q11 -11 26 -11t26 10l34 -34l-38 -38q-2 -2 -2 -5t2 -5t5 -2t5 2l38 38l39 -38q2 -2 4.5 -2t5 2t2.5 5t-3 5l-38 38zM214 196q4 3 8.5 3.5t7.5 -3.5l6 -6l-66 -66l-19 18z" />
</svg>