<svg viewBox="0 0 256 256" xmlns="http://www.w3.org/2000/svg">
  <path transform="scale(1, -1) translate(0, -256)" fill="currentColor" d="M203 223q-5 14 -17 19l-15 7q-13 6 -26 1t-19 -17l-68 -147q-1 -2 -1 -4t2 -4l7 -7l-15 -31q-1 -3 0 -6l11 -26q2 -4 7 -4l29 8q3 1 5 4l14 31l11 -1q4 0 6 4l68 147q6 13 1 26zM150 237q8 3 16 -1l14 -6q8 -4 10.5 -12t-0.5 -16l-4 -7l-51 24l3 7q4 8 12 11zM91 25 l-18 -6l-8 18l11 22l8 -9q2 -2 5 -2l12 -1zM123 61h-9l-21 1l-21 22l57 122l51 -24zM156 170l-10 5l-11 5q-2 1 -5 0t-4 -3.5t0 -5t3 -3.5l4 -2l-16 -36q-1 -2 0 -5t3 -4t3 -1q4 0 6 4l17 36l4 -2q1 -1 2 -1q5 0 7 3.5t1 6t-4 3.5z" />
</svg>