<svg viewBox="0 0 1024 1024" xmlns="http://www.w3.org/2000/svg">
  <path transform="scale(1, -1) translate(0, -960)" fill="currentColor" d="M802 824q-9 24 -25.5 42t-38.5 28l-58 28q-23 10 -47.5 11.5t-48.5 -7.5q-24 -8 -42 -24.5t-28 -39.5l-26 -56v0v0l-246 -531q-3 -5 -2 -9.5t5 -7.5l33 -37l-60 -130q-2 -3 -2 -6.5t2 -6.5l44 -105q3 -5 6.5 -7.5t8.5 -2.5h2h3l110 34q4 1 6 3t4 5l60 129l50 -1v0v0 q5 0 8.5 2.5t5.5 6.5l247 530v0v0l25 56q10 23 11 48t-7 48zM373 26l-90 -28l-37 87l52 110l46 -51q2 -2 5 -3.5t6 -1.5l69 -1l-51 -112v0zM501 166l-47 2h-2h-2l-84 3l-56 63q-1 1 -1.5 2t-1.5 1l-32 35l235 506l226 -106l-235 -506v0zM768 742l-19 -41l-224 105l19 42 q8 17 21.5 29.5t31.5 18.5t35.5 5.5t34.5 -8.5l58 -27q17 -9 29.5 -22t18.5 -31q6 -17 4.5 -35.5t-9.5 -35.5zM522 618l27 -13l-71 -152q-2 -6 0 -12.5t8 -8.5q2 -1 4 -1.5t3 -0.5q5 0 8.5 2.5t5.5 7.5l71 152l27 -13q1 -1 3 -1h3q5 0 8.5 2t6.5 7q2 6 0 12.5t-8 8.5l-42 19 v0v0v0v0l-42 19q-6 3 -12 0.5t-8 -8.5q-3 -6 -0.5 -12t8.5 -8v0z" />
</svg>