<svg viewBox="0 0 256 256" xmlns="http://www.w3.org/2000/svg">
  <path transform="scale(1, -1) translate(0, -256)" fill="currentColor" d="M128 198q-33 0 -61.5 -18t-45 -48.5t-16.5 -66.5q0 -3 2 -5t5 -2h232q3 0 5 2t2 5q0 36 -16.5 66.5t-45 48.5t-61.5 18zM142 72l-10 34q-1 3 -4 3t-4 -3l-10 -34h-95q2 31 17 56.5t39 40.5t53 15t53 -15t39 -40.5t17 -56.5h-95zM128 155q-3 0 -5 -2t-2 -5v-10 q0 -3 2 -5.5t5 -2.5t5 2.5t2 5.5v10q0 3 -2 5t-5 2zM189 125l-6 -7q-2 -2 -2 -4.5t2 -5t4.5 -2.5t5.5 2l6 7q2 2 2 5t-2 5t-5 2t-5 -2zM67 125q-2 2 -5 2.5t-5 -1.5t-2.5 -5t1.5 -5l6 -7q2 -3 5 -3t5.5 2t2.5 5t-2 5z" />
</svg>