<svg viewBox="0 0 1024 1024" xmlns="http://www.w3.org/2000/svg">
  <path transform="scale(1, -1) translate(0, -960)" fill="currentColor" d="M512 717q-99 0 -186 -41q-88 -42 -153 -113t-103 -166t-38 -203q0 -8 4.5 -12t11.5 -4h928q7 0 11.5 4t4.5 12q0 108 -38 204q-38 95 -103 166t-153 112q-87 41 -186 41zM574 211l-48 151q-3 10 -14 10t-14 -10l-48 -151h-386q3 99 39 186q37 86 97.5 150.5t140.5 101.5 t171 37t171 -37t140.5 -101.5t97.5 -150.5q36 -87 39 -186h-386zM512 544q-7 0 -11.5 -4.5t-4.5 -11.5v-42q0 -7 4.5 -11.5t11.5 -4.5t11.5 4.5t4.5 11.5v42q0 7 -4.5 11.5t-11.5 4.5zM766 429l-25 -27q-5 -5 -5 -11.5t5 -11.5q2 -2 4.5 -3.5t6.5 -1.5t6.5 1.5t4.5 3.5 l26 27q5 5 5 11.5t-5 11.5t-12 5t-11 -5v0zM259 429q-5 5 -11 5t-11 -4q-5 -3 -5 -10t3 -12l24 -27q3 -3 6 -4t5 -1q3 0 6 1t6 4q4 5 4.5 11t-3.5 11z" />
</svg>