<svg viewBox="0 0 256 256" xmlns="http://www.w3.org/2000/svg">
  <path transform="scale(1, -1) translate(0, -256)" fill="currentColor" d="M234 98h-36q-2 0 -3 2l-4 11v95q0 18 -29 28q-27 10 -64 10t-63 -10q-29 -10 -30 -28v-108q0 -18 30 -29q27 -9 63 -9q12 0 24 1v0v-31q0 -8 5.5 -13t12.5 -5h94q7 0 12 5t5 13v51q0 7 -5 12t-12 5zM124 110q-17 -1 -26 -1q-23 0 -42 4q-17 3 -27 8.5t-10 10.5v14 q13 -8 34 -12.5t45 -4.5t45 4.5t34 12.5v-24h-37q-6 0 -10.5 -3t-5.5 -9zM177 167q0 -5 -10.5 -10.5t-26.5 -8.5q-19 -4 -42 -4t-42 4q-17 3 -27 8.5t-10 10.5v18q13 -8 34 -12.5t45 -4.5t45 4.5t34 12.5v-18zM98 230q23 0 42 -4q17 -4 27 -9.5t10 -10.5t-10.5 -10.5 t-26.5 -9.5q-19 -4 -42 -4t-42 4q-17 4 -27 9.5t-10 10.5t10 10.5t27 9.5q19 4 42 4zM120 75q-11 -1 -22 -1q-22 0 -42 4q-17 4 -27 9.5t-10 10.5v14q13 -9 34 -13t45 -4q12 0 24 1v-21h-2zM237 30q0 -2 -1 -3t-2 -1h-94q-2 0 -3 1t-1 3v75q0 1 1 2t3 1h35q2 0 3 -2l4 -10 q2 -5 6.5 -8t9.5 -3h36q1 0 2 -1t1 -3v-51z" />
</svg>