<svg viewBox="0 0 1024 1024" xmlns="http://www.w3.org/2000/svg">
  <path transform="scale(1, -1) translate(0, -960)" fill="currentColor" d="M866 654v152q0 30 -32 52q-31 23 -81 38.5t-114 23.5q-63 8 -127 8t-127 -8q-64 -8 -114 -23.5t-81 -38.5q-32 -22 -32 -52v-150q0 -19 14 -35.5t39 -30.5q-31 -18 -42 -35t-11 -30v0v0v0v-151q0 -19 14 -35.5t39 -29.5q-31 -18 -41 -35.5t-12 -30.5v0v-150q0 -30 31 -53 t81 -39t113 -25q64 -8 129 -8q64 0 127 8q64 8 114 23.5t81 38.5q32 23 32 53v151q0 13 -10 30.5t-42 34.5q24 13 38 30t14 36v150v0v0q0 13 -10 31t-42 35q24 14 38 30t14 35v0zM512 896q74 0 134 -9q59 -9 101 -22t64 -29q23 -16 23 -30q0 -13 -23 -29 q-22 -16 -63.5 -29.5t-100.5 -21.5q-60 -9 -135 -9q-74 0 -134 9q-59 8 -101 21.5t-64 29.5q-23 16 -23 29q0 14 23 30q22 16 63.5 29t101.5 22t134 9zM512 0q-73 0 -133 9q-59 9 -101 22.5t-65 29.5t-23 30v98q23 -17 58 -30t77.5 -21.5t90.5 -13.5q48 -4 96 -4t96 4 q48 5 90.5 13.5t77.5 21.5t58 30v-98q0 -14 -23 -30t-65 -29.5t-101 -22.5q-60 -9 -133 -9zM834 242q0 -14 -23 -30q-22 -16 -63.5 -29t-100.5 -22q-60 -9 -135 -9q-74 0 -134 9q-59 9 -101 22t-64 29q-23 16 -23 30q0 12 16 24.5t42 24.5q52 -19 121 -29.5t141 -10.5 t142.5 10t121.5 30q28 -12 44 -25.5t16 -23.5zM512 282q-73 0 -133 8q-59 9 -101 22.5t-65 29.5t-23 31v97q23 -16 58 -29t77.5 -21.5t90.5 -13.5q48 -4 96 -4t96 4q48 5 90.5 13.5t77.5 21.5t58 29v-97q0 -14 -23 -30t-65 -29.5t-101 -22.5q-60 -9 -133 -9v0zM834 523 q0 -14 -23 -29q-22 -16 -63.5 -29.5t-100.5 -22.5q-60 -8 -135 -8q-74 0 -134 8q-59 9 -101 22.5t-64 29.5q-23 15 -23 29q0 12 16 24.5t42 23.5q52 -19 121 -29.5t141 -10.5t142.5 10t121.5 30q28 -11 44 -23.5t16 -24.5zM512 565q-73 0 -133 9q-59 8 -101 21.5t-65 30.5 q-23 16 -23 30v98q23 -17 58 -30t77.5 -21.5t90.5 -13.5q48 -4 96 -4t96 4q47 5 90 13.5t78 21.5t58 30v-98q0 -14 -23 -30t-65 -29.5t-101 -22.5q-60 -9 -133 -9z" />
</svg>