<svg viewBox="0 0 1024 1024" xmlns="http://www.w3.org/2000/svg">
  <path transform="scale(1, -1) translate(0, -960)" fill="currentColor" d="M717 534h-2.5h-2.5v100v0.5v0.5v0v144v1v1q0 32 -30 56q-30 25 -78 41.5t-109 24.5q-60 9 -122 9t-123 -9q-61 -8 -109.5 -24.5t-78.5 -41.5q-30 -24 -30 -56v0v-407q0 -31 30 -55q29 -25 77 -42t109 -26t123 -9q18 0 36 1t35 2q3 -55 25 -102q23 -48 60 -83t86 -56 q49 -20 104 -20q57 0 107 22q50 21 87.5 58.5t58.5 87.5q22 50 22 107t-22 107q-21 50 -58.5 87.5t-87.5 59.5q-50 21 -107 21v0zM64 722q22 -18 55 -32q34 -14 75 -23t87 -14t92 -5q45 0 91 5q46 4 86.5 13.5t74.5 23.5q33 14 55 32v-88q-1 -18 -23 -35 q-23 -18 -63.5 -32.5t-96.5 -23.5t-124 -9q-69 0 -125 9q-57 9 -98 23.5t-63 32.5q-23 18 -23 36v0v87zM373 880q68 0 124 -9q57 -9 97.5 -23t63.5 -32t24 -35v0v0q-1 -18 -24 -35q-22 -18 -62.5 -32t-97.5 -23q-56 -9 -124 -9q-69 -1 -126 8q-57 8 -98 22.5t-63 32.5 q-23 18 -23 36t23 36q22 17 63 31t98 23q56 9 125 9v0zM64 576q22 -18 55 -32q34 -13 75 -22.5t87 -14.5t92 -5q45 0 91 5t86.5 14t74.5 23q33 14 55 32v-45q-60 -8 -110 -40t-82 -80q-28 -3 -57.5 -5.5t-59.5 -2.5q-68 1 -124 10q-57 9 -97.5 23.5t-62.5 32.5 q-23 18 -23 35v72zM64 374v72q22 -18 55 -31q34 -14 75 -23.5t87 -13.5q46 -5 92 -5q24 0 48.5 1t47.5 4q-11 -23 -18 -49t-8 -52q-17 -1 -34.5 -2t-35.5 -1q-67 0 -123 9q-57 9 -98 23t-65 32q-23 18 -23 36v0zM717 16q-51 0 -95 19t-77 52t-52 77q-19 45 -19 95 q0 51 19 95t52 77t77 52t95 19q50 0 94 -19q45 -19 78 -52t52 -77t19 -95q0 -50 -19 -94q-19 -45 -52 -78t-77 -52q-45 -19 -95 -19zM784 264l-51 -51v160q0 7 -4.5 11.5t-11.5 4.5t-11.5 -4.5t-4.5 -11.5v-165l-51 51q-5 5 -11.5 5t-11.5 -5t-5 -11t5 -11l77 -77 q2 -2 5.5 -3.5t5.5 -1.5q3 0 6 1.5t5 3.5l82 82q5 4 5 10.5t-5 11.5t-12 5t-12 -5v0z" />
</svg>