<svg viewBox="0 0 1024 1024" xmlns="http://www.w3.org/2000/svg">
  <path transform="scale(1, -1) translate(0, -960)" fill="currentColor" d="M974 512l-161 53v213v0.5v0.5q0 36 -34 64q-35 28 -90 46.5t-124 28.5t-139 10q-71 0 -140 -10q-69 -9 -124 -28t-89 -47q-35 -28 -35 -64v0v-465q0 -32 30 -59t82.5 -47t122.5 -32q71 -11 153 -11q21 0 42.5 1t41.5 2q20 -61 70 -105.5t153 -92.5q1 -2 2.5 -2h3.5h3t4 2 q79 37 126 71q48 33 73 75t33 97t8 136v147q0 6 -3.5 10t-8.5 6v0zM426 896q78 0 144 -10q65 -11 112 -27.5t73 -37.5t26 -42v0v0v0v0q-1 -20 -27 -41q-26 -20 -73 -36.5t-112 -27.5q-65 -10 -143 -10q-79 0 -144 10q-66 11 -113 27.5t-73 37.5t-26 42q0 20 26 41 q26 20 73 36.5t113 27.5q65 10 144 10v0zM70 717q24 -21 63 -37q38 -16 85.5 -27t100.5 -17t107 -6q53 0 106 6t100.5 17t85.5 27q39 16 63 37v-141l-37 13q-2 1 -4.5 1t-5.5 -1l-232 -77q-4 -1 -7 -4.5t-4 -8.5q-17 -1 -33.5 -1h-31.5q-79 0 -144 10q-66 10 -113 27t-73 38 q-26 20 -26 41v103v0zM70 550q24 -21 63 -37q38 -16 85.5 -27t100.5 -16q53 -6 107 -6q15 0 31.5 1t33.5 1v-117q-17 -1 -33.5 -2t-31.5 -1q-79 0 -144 10q-66 10 -113 27t-73 38q-26 20 -26 41v88v0zM70 314v88q24 -21 63 -38q38 -16 85.5 -27t100.5 -16q53 -6 107 -6 q16 0 33 1t32 2q1 -37 3.5 -65.5t6.5 -50.5q-19 -2 -38.5 -3t-38.5 -1q-76 0 -140 10q-65 10 -112.5 27t-74.5 37q-27 21 -27 42v0zM954 349q0 -149 -34 -213.5t-181 -133.5q-97 46 -141.5 87.5t-59.5 99.5q-8 26 -10.5 60.5t-2.5 83.5v150l214 71l215 -71v-134z" />
</svg>