<svg viewBox="0 0 256 256" xmlns="http://www.w3.org/2000/svg">
  <path transform="scale(1, -1) translate(0, -256)" fill="currentColor" d="M219 180v38q0 16 -29 25q-25 8 -62 8t-62 -8q-29 -9 -29 -25v-38q0 -9 10 -16q-10 -8 -10 -17v-37q0 -10 10 -17q-10 -7 -10 -16v-38q0 -15 28 -25q26 -8 63 -8t63 8q28 10 28 25v38q0 9 -10 16q10 7 10 17v37q0 10 -10 17q10 6 10 16zM128 237q24 0 43 -4q16 -3 25 -7.5 t9 -8t-9 -8.5t-25 -8q-20 -3 -43 -3t-43 3q-16 3 -25 8t-9 8.5t9 8t25 7.5q20 4 43 4zM51 198q12 -7 33 -10.5t44 -3.5t44 3.5t33 10.5v-18q0 -4 -9.5 -8.5t-25.5 -7.5q-19 -4 -42 -4t-42 4q-16 3 -25.5 7.5t-9.5 8.5v18zM51 128q12 -7 33 -10.5t44 -3.5t44 3.5t33 10.5v-19 q0 -3 -9.5 -7.5t-25.5 -8.5q-19 -3 -42 -3t-42 3q-16 4 -25.5 8.5t-9.5 7.5v19zM128 19q-23 0 -42 4q-16 3 -25.5 7.5t-9.5 7.5v19q12 -7 33 -10.5t44 -3.5t44 3.5t33 10.5v-19q0 -3 -9.5 -7.5t-25.5 -7.5q-19 -4 -42 -4zM205 76q0 -3 -9 -7.5t-25 -7.5q-20 -4 -43 -4t-43 4 q-16 3 -25 7.5t-9 8t11 8.5q26 -9 66 -9t66 9q6 -2 8.5 -4.5t2.5 -4.5zM205 147q0 -4 -9 -8.5t-25 -7.5q-20 -4 -43 -4t-43 4q-16 3 -25 7.5t-9 7t3 5t8 5.5q26 -10 66 -10t66 10q5 -3 8 -5.5t3 -3.5z" />
</svg>