<svg viewBox="0 0 256 256" xmlns="http://www.w3.org/2000/svg">
  <path transform="scale(1, -1) translate(0, -256)" fill="currentColor" d="M179 106q-10 0 -17.5 -7.5t-7.5 -18t7.5 -17.5t18 -7t17.5 7t7.5 17.5t-7 18t-18.5 7.5zM179 69q-5 0 -8 3.5t-3 8t3.5 8t8 3.5t7.5 -3.5t3.5 -8t-3 -8t-8.5 -3.5zM246 68l-12 6l1 7l-1 7l12 7q3 1 4 4.5t0 6.5l-14 23q-1 2 -4 3t-6 0l-13 -7l-1 1q-5 4 -8 6v8q0 5 -4 9 t-9 4h-10v59q0 16 -28 26q-25 10 -60 10t-60 -9q-28 -10 -28 -27v-102q0 -16 28 -26q25 -10 60 -10q11 0 22 2q3 0 5 2t1.5 5t-3 5t-4.5 2q-11 -2 -21 -2q-22 0 -40 4q-15 4 -24.5 9t-9.5 9v13q12 -8 31.5 -12t42.5 -4l16 1v-1q-2 -4 -1 -7t4 -5l12 -6v-7v-6l-12 -7 q-3 -2 -4 -5t0 -6l14 -23q1 -3 4 -4t6 0l13 7l1 -1q5 -4 8 -5v-10q0 -5 4 -8.5t9 -3.5h24q5 0 9 3.5t4 8.5v10q3 2 8 6l1 1l11 -7q4 -2 7.5 -1t4.5 4l14 22q2 3 1 6t-5 5zM19 191q12 -8 32 -12t42.5 -4t42 4t31.5 12v-16q0 -5 -9.5 -10t-26.5 -8.5t-38 -3.5t-38 3.5 t-26.5 8.5t-9.5 10v16zM93 233q21 0 38 -3.5t26.5 -8.5t9.5 -9.5t-9.5 -10t-26.5 -9t-38 -3.5t-38 3.5t-26.5 9t-9.5 10t9.5 9.5t26.5 8.5t38 3.5zM93 120q-21 0 -38 3.5t-26.5 9t-9.5 9.5v13q12 -8 32 -12t42.5 -4t42 4t31.5 12v-2q-5 -1 -8.5 -4.5t-3.5 -8.5v-8 q-3 -2 -7 -5l-2 -2l-12 6q-4 2 -7 1t-5 -4l-4 -6q-11 -2 -25 -2zM227 46l-9 5q-7 3 -12 -1l-4 -3q-3 -3 -5.5 -4t-4.5 -4.5t-2 -6.5v-10h-22v9q0 4 -2 7t-5.5 5t-5.5 4l-3 3q-2 2 -5.5 2t-5.5 -2l-10 -5l-7 13l9 5q3 1 4.5 4t0.5 7v6v7q2 8 -5 11l-9 6l7 12l9 -5q7 -3 12 1 l9 7q3 2 5 5t2 7v8h21v-8q0 -3 2 -6.5t4.5 -4.5t5.5 -4l5 -4q2 -2 5.5 -2t5.5 2l10 5l7 -13l-9 -5q-6 -4 -5 -11v-7v-6q-1 -4 1 -7t5 -5l8 -5z" />
</svg>