<svg viewBox="0 0 1024 1024" xmlns="http://www.w3.org/2000/svg">
  <path transform="scale(1, -1) translate(0, -960)" fill="currentColor" d="M837 342v0v197v2.5v2.5v0v200q0 38 -25 72q-25 33 -69 58t-103 40q-60 14 -128 14t-128 -14q-59 -15 -103 -39.5t-69 -58.5t-25 -72v-198v-4v-3v-197v-2v-2v-186q0 -38 26 -71q25 -34 69 -59t104 -39q59 -15 126 -15t126 15q59 14 103.5 39t69.5 59q26 33 26 71v186v2v2 v0zM512 896q59 0 113 -12q53 -13 93 -33.5t63 -48.5q24 -27 24 -58t-24 -58q-23 -28 -63 -48.5t-93 -33.5q-54 -12 -113 -12t-113 12q-53 13 -93 33.5t-63 48.5q-24 27 -24 58t24 58q23 28 63 48.5t93 33.5q54 12 113 12v0zM512 558q49 0 94 8q44 7 81.5 21t67.5 33t50 42 v-121q-1 -27 -18 -47t-33 -32q-41 -31 -105 -48t-137 -17q-72 0 -136 17t-106 48q-16 12 -32 32t-19 45v122q20 -23 50 -42t67.5 -32.5t81.5 -20.5q45 -8 94 -8v0zM251 437q46 -34 115 -53t146 -19q78 0 146.5 19t114.5 53q9 7 17.5 14t14.5 15v-128q-2 -30 -26 -56 t-63.5 -45.5t-92.5 -31.5q-52 -11 -111 -11t-111 11q-53 12 -92.5 31.5t-63.5 45.5t-26 56v126q7 -6 15 -13t17 -14v0zM805 152q0 -31 -24 -59q-23 -28 -63 -48.5t-93 -32.5q-54 -12 -113 -12q-58 0 -111 12q-53 13 -93.5 34t-64.5 48q-24 28 -24 58v110q19 -22 49 -41 t67.5 -32t82.5 -20t94 -7t94 7q44 7 81.5 20t67.5 32t50 41v-110z" />
</svg>