<svg viewBox="0 0 1024 1024" xmlns="http://www.w3.org/2000/svg">
  <path transform="scale(1, -1) translate(0, -960)" fill="currentColor" d="M864 64q-4 5 -11 6t-11 -3l-50 -37v2v2v78q0 31 -22 53t-53 22h-189v112q55 1 108 10t94.5 24.5t66.5 37.5t25 50v369q0 30 -27 52q-27 23 -71 38.5t-100 23.5t-112 8t-112 -8q-55 -8 -99.5 -23.5t-71.5 -38.5q-27 -22 -27 -52v-369q0 -28 25 -50t66.5 -37.5t94.5 -24.5 t108 -10v-112h-189q-31 0 -53 -22t-22 -53v-78v-1v-1l-50 37q-4 3 -11 2t-11 -7q-4 -5 -3 -12t6 -10l75 -56q3 -2 5.5 -3t4.5 -1t4.5 1t5.5 3l75 54q5 4 6 11t-3 11q-4 5 -11 6t-11 -2l-50 -37v1.5v1.5v80q0 18 12.5 30.5t30.5 12.5h189v-121v-1v-1l-50 37q-4 3 -11 2 t-11 -5q-4 -5 -3 -12t6 -11l75 -56q3 -1 5.5 -2t4.5 -1t4.5 1t5.5 2l75 55q5 3 6 10t-3 12t-11 6t-11 -3l-50 -37v2v2v121h189q18 0 30.5 -12.5t12.5 -30.5v-78v-1v-1l-50 37q-4 3 -11 2t-11 -7q-4 -5 -3 -12t6 -10l75 -56q3 -2 5.5 -3t4.5 -1t4.5 1t5.5 3l75 54q5 5 6 11.5 t-3 12.5v0zM512 880q60 0 111 -8t88 -20.5t58 -28.5t21 -33q0 -16 -21 -32t-58 -28.5t-88 -20.5t-111 -8t-111 8t-88 20.5t-58 28.5t-21 32q0 17 21 33t58 28.5t88 20.5t111 8zM234 734q40 -32 118 -48.5t160 -16.5q83 0 160.5 16.5t117.5 48.5v-76q0 -16 -21 -32t-58.5 -29 t-88.5 -21t-110 -8q-60 0 -111 8t-88 20.5t-58 28.5t-21 33v76v0zM234 602q40 -32 117.5 -49t160.5 -17t160.5 16.5t117.5 49.5v-63q0 -15 -21 -31t-58.5 -29t-88.5 -21t-110 -8q-60 0 -111 8q-51 7 -88 20t-58 29t-21 32v63v0zM234 421v62q40 -32 118 -48.5t160 -16.5 q83 0 160.5 16.5t117.5 48.5v-62q0 -14 -19 -30q-19 -15 -55 -28.5t-88 -22.5t-118 -9q-64 0 -115 9t-87 22.5t-55 28.5q-19 16 -19 30v0z" />
</svg>