<svg viewBox="0 0 256 256" xmlns="http://www.w3.org/2000/svg">
  <path transform="scale(1, -1) translate(0, -256)" fill="currentColor" d="M212 102v49v51q0 14 -11 25t-30 17.5t-42.5 6.5t-43 -6.5t-30.5 -18t-11 -24.5v-148q0 -13 11.5 -24.5t30.5 -18t42 -6.5t42 6.5t30.5 18t11.5 24.5v48zM61 123q12 -9 29.5 -14t37.5 -5t37.5 5t29.5 14q2 1 3 3v-25q-1 -8 -10 -15.5t-24.5 -12.5t-35.5 -5t-36 5t-25 12.5 t-9 15.5v25q1 -2 3 -3zM58 151v23q11 -10 29.5 -15.5t40.5 -5.5t40.5 5.5t29.5 15.5v-22q-1 -10 -11 -17.5t-25.5 -11.5t-33 -4t-33 4t-25.5 11q-5 3 -8.5 7.5t-3.5 9.5zM128 237q19 0 35 -5t25.5 -13t9.5 -17.5t-9.5 -17.5t-25.5 -13t-35 -5t-35 5t-25.5 13t-9.5 17.5 t9.5 17.5t25.5 13t35 5zM128 19q-20 0 -36 5t-25 13.5t-9 16.5v20q11 -9 29.5 -15t40.5 -6t40.5 6t29.5 15v-20q0 -8 -9 -16.5t-25 -13.5t-36 -5z" />
</svg>