<svg viewBox="0 0 1024 1024" xmlns="http://www.w3.org/2000/svg">
  <path transform="scale(1, -1) translate(0, -960)" fill="currentColor" d="M717 347q-37 0 -63.5 -26t-26.5 -63q0 -38 26.5 -64t63.5 -26t63 26t26 64q0 37 -26 63t-63 26zM717 202q-24 0 -41 16.5t-17 40.5t17 41t41 17t40.5 -17t16.5 -41t-16.5 -40.5t-40.5 -16.5zM981 197l-55 30q2 9 3 17t1 17t-1 17.5t-3 15.5l56 32q8 5 10 13t0 16l-53 90 q-5 7 -12.5 9.5t-14.5 -0.5l-58 -32q-2 3 -4.5 5t-4.5 3q-7 6 -15 12t-19 11q-2 1 -3.5 2.5t-1.5 3.5v35q0 17 -11.5 28.5t-28.5 11.5h-51v101v1v1v0v0v144v0.5v0.5q-1 32 -31 56q-31 25 -79.5 41t-109.5 25q-60 8 -122 8t-123 -8q-60 -9 -108.5 -25t-78.5 -41 q-30 -24 -31 -56v0v0v-406q0 -31 30 -56q29 -24 77 -41.5t109 -26.5t123 -9q23 0 45 1.5t43 3.5q6 1 10.5 5.5t4.5 12.5q-2 6 -7 10t-11 4q-20 -2 -41.5 -3.5t-43.5 -1.5q-66 0 -122 9t-97.5 23.5t-64.5 32.5t-23 36v72q22 -18 55 -32q34 -13 75 -22.5t87 -14.5t92 -5 q21 0 43.5 1.5t42.5 3.5l-13 -22q-2 -4 -2 -8.5t1 -9.5t3.5 -8t7.5 -5l54 -30q-1 -7 -2 -15.5t-1 -18.5q0 -8 0.5 -16t1.5 -16v0l-56 -32q-7 -4 -9.5 -12t-0.5 -16l53 -90q5 -7 12.5 -9.5t14.5 -0.5l58 32q2 -2 4.5 -4t4.5 -4q8 -6 16 -12.5t18 -11.5q2 -1 3.5 -2.5 t1.5 -3.5v-40q0 -17 11.5 -28.5t28.5 -11.5h94q17 0 28.5 11.5t11.5 28.5v40q0 2 1.5 3.5t3.5 2.5q10 5 17.5 11t14.5 13q2 3 4.5 4.5t5.5 3.5l52 -28q14 -8 22 -4.5t12 10.5l53 88q2 4 2.5 8.5t-1.5 9.5q-1 3 -3.5 6.5t-5.5 4.5v0zM64 723q22 -18 55 -32q34 -13 75 -22.5 t87 -14.5q46 -4 92 -4q45 0 91 4q46 5 86.5 14.5t74.5 22.5q33 14 55 32v-88q-1 -17 -23 -35q-23 -18 -63.5 -32t-96.5 -23t-124 -9q-69 0 -125 9q-57 9 -98 23t-63 32q-23 18 -23 35v0v0v88zM373 880q68 0 124 -9q57 -9 97.5 -23t62.5 -32q23 -18 23 -35v0v0v0 q-1 -18 -23 -35q-23 -18 -63.5 -32t-96.5 -23t-124 -9q-69 0 -125 9q-57 9 -98 23t-63 32q-23 17 -23 35q0 17 23 35q22 18 63 32t98 23q56 9 125 9zM373 405q-69 0 -125 9q-57 9 -98 23.5t-63 32.5q-23 18 -23 36v72q22 -18 55 -32q34 -14 75 -23.5t87 -13.5q46 -5 92 -5 q45 0 91 5q46 4 86.5 13.5t74.5 23.5q33 14 55 32v-44h-10q-16 0 -28 -11.5t-12 -28.5v-36q0 -3 -1 -4.5t-3 -2.5q-11 -5 -18.5 -11t-15.5 -13q-2 -2 -4.5 -3.5t-5.5 -4.5l-51 29q-13 7 -21.5 4t-11.5 -10l-18 -31q-26 -2 -53.5 -4t-53.5 -2v0zM914 104l-48 27q-9 5 -18 4 t-16 -7q-4 -2 -6.5 -4.5t-4.5 -5.5q-7 -6 -13 -10.5t-13 -8.5q-9 -5 -15.5 -14.5t-6.5 -20.5v-42q0 -3 -2.5 -5.5t-5.5 -2.5h-95q-3 0 -5.5 2.5t-2.5 5.5v40q0 11 -6 21t-16 15q-7 3 -13.5 8t-13.5 11q-3 2 -6 4.5t-5 4.5q-4 4 -9.5 5.5t-10.5 1.5q-3 0 -6.5 -1t-7.5 -2 l-48 -28l-42 71l48 27q9 5 13.5 13.5t2.5 18.5q-1 7 -1 14.5v14.5v14.5t1 12.5q2 11 -2 20t-14 14l-46 25l42 71l48 -28q8 -4 17 -3t16 7q3 2 6 4.5t5 4.5q8 6 14 11t14 8q10 5 16 15t6 21v36q0 4 2 6t6 2h94q4 0 6 -2t2 -6v-35q0 -11 6.5 -20.5t16.5 -14.5q7 -4 13 -8.5 t12 -10.5q3 -3 6.5 -5t6.5 -5q7 -6 16 -6.5t18 3.5l48 27l41 -70l-46 -26q-8 -5 -12.5 -14t-3.5 -19v-14.5v-14.5v-14.5t-2 -14.5q-1 -10 3.5 -19.5t12.5 -14.5l47 -25l-43 -69v0z" />
</svg>