<svg viewBox="0 0 1024 1024" xmlns="http://www.w3.org/2000/svg">
  <path transform="scale(1, -1) translate(0, -960)" fill="currentColor" d="M934 317h-140q-9 0 -15 4.5t-9 11.5l-18 43q0 1 -1 1.5t-1 1.5v224v1v1v0v0v152v0.5v0.5q0 34 -31 60q-32 26 -83 43.5t-116 26.5q-64 10 -130 10q-65 0 -129 -9t-115 -26.5t-83 -43.5q-32 -25 -33 -59v0v0v-432q0 -33 32 -59q31 -26 82 -43.5t115 -27.5q65 -9 131 -9 q24 0 47 1t46 4q6 1 10.5 5.5t4.5 11.5q-2 6 -6.5 10.5t-11.5 4.5q-22 -3 -44.5 -4t-45.5 -1q-69 0 -129 9q-60 10 -103.5 25t-68.5 35q-25 19 -25 38v78q23 -19 58 -33q36 -15 79.5 -25t92.5 -15t98 -5q28 0 55.5 1.5t54.5 4.5v-278q0 -24 17 -41t41 -17h374q24 0 41 17 t17 41v203q0 24 -17 41t-41 17v0zM64 699q23 -19 58 -34q36 -14 79.5 -24t92.5 -15t98 -5t98 5t92.5 15t79.5 24q35 15 58 34v-94q-1 -19 -25 -38q-24 -18 -67.5 -33.5t-103.5 -24.5q-60 -10 -132 -10q-73 0 -133 9t-103.5 24t-67.5 34q-24 20 -24 39v0v0v94v0zM392 866 q72 0 132 -10q60 -9 103.5 -24.5t68.5 -34.5q24 -18 24 -37v0v0v0q-1 -19 -25 -37q-24 -19 -67.5 -34.5t-103.5 -24.5q-60 -10 -132 -10q-73 0 -133 9t-103.5 24t-67.5 34t-24 37q0 20 24 39t67.5 34t103.5 25t133 10zM64 466v78q23 -19 58 -34q36 -14 79.5 -24t92.5 -15 t98 -5t98 5t92.5 14.5t79.5 24.5q35 15 58 34v-136l-10 2t-11 1h-141q-20 0 -36 -13t-20 -33q-26 -4 -54 -5.5t-56 -1.5q-73 1 -133 11t-103.5 25t-67.5 34t-24 38v0zM960 56q0 -11 -7.5 -18.5t-18.5 -7.5h-376q-10 0 -17.5 7.5t-7.5 18.5v299q0 11 7.5 18.5t17.5 7.5h141 q9 0 15 -4.5t9 -11.5l18 -43q7 -17 21.5 -27t31.5 -10h140q11 0 18.5 -7.5t7.5 -18.5v-203v0z" />
</svg>