<svg viewBox="0 0 256 256" xmlns="http://www.w3.org/2000/svg">
  <path transform="scale(1, -1) translate(0, -256)" fill="currentColor" d="M218 34q-1 2 -4 2.5t-5 -1.5l-8 -5v14q0 9 -6 15.5t-15 6.5h-45v22q30 1 51 9q23 10 23 24v93q0 15 -26 24q-22 9 -54.5 9t-55.5 -9q-26 -9 -26 -24v-93q0 -14 23 -24q21 -8 51 -9v-22h-44q-9 0 -15.5 -6.5t-6.5 -15.5v-14l-7 6q-3 2 -5.5 1.5t-4.5 -3t-1.5 -5.5t2.5 -5 l19 -14q2 -1 4 -1t4 1l19 14q2 1 2.5 4t-1 5t-4.5 3t-5 -1l-8 -6v15q0 3 2.5 5.5t5.5 2.5h44v-22l-7 5q-3 2 -5.5 1.5t-4.5 -3t-1.5 -5t3.5 -4.5l18 -14q2 -1 4.5 -1t3.5 1l19 14q3 1 3.5 4t-1.5 5.5t-5 2.5t-5 -1l-7 -6v23h44q3 0 5.5 -2.5t2.5 -5.5v-14l-8 6q-2 2 -5 1.5 t-4.5 -3t-1 -5.5t2.5 -4l19 -14q2 -1 4 -1t4 1l19 13q1 2 1.5 5t-1.5 5zM128 233q20 0 37 -4q13 -3 21.5 -7.5t8.5 -8t-8.5 -8t-21.5 -7.5q-17 -4 -37 -4t-37 4q-13 3 -21.5 7.5t-8.5 8t8.5 8t21.5 7.5q17 4 37 4zM61 194q11 -7 29 -10.5t38 -3.5t38 4t29 10v-14 q0 -3 -8.5 -7.5t-21.5 -7.5q-17 -4 -37 -4t-37 4q-13 3 -21.5 7.5t-8.5 7.5v14zM61 161q11 -7 29 -10.5t38 -3.5t38 3.5t29 10.5v-10q0 -4 -8.5 -8.5t-21.5 -7.5q-17 -3 -37 -3t-37 3q-13 3 -21.5 7.5t-8.5 8.5v10zM61 121v10q11 -6 29 -9.5t38 -3.5t38 3.5t29 9.5v-10 q0 -3 -8.5 -8t-22.5 -8q-17 -3 -36 -3t-36 3q-14 3 -22.5 8t-8.5 8z" />
</svg>