<svg viewBox="0 0 1024 1024" xmlns="http://www.w3.org/2000/svg">
  <path transform="scale(1, -1) translate(0, -960)" fill="currentColor" d="M976 195h-45v66q0 39 -28 67.5t-68 28.5q-39 0 -67.5 -28.5t-28.5 -67.5v-66h-45q-7 0 -11.5 -4.5t-4.5 -11.5v-163q0 -7 4.5 -11.5t11.5 -4.5h282q7 0 11.5 4.5t4.5 11.5v163q0 7 -4.5 11.5t-11.5 4.5v0zM773 261q0 26 18.5 45t45.5 19q26 0 45 -19t19 -45v-66h-128v66z M960 32h-248v131h248v-131zM565 320q-35 -5 -70 -7.5t-73 -2.5q-79 0 -145 11t-113 27.5t-74 37.5q-26 21 -26 41v88q24 -21 63 -38q38 -16 86 -27.5t102 -16.5q53 -6 107 -6t108 6q54 5 101.5 16.5t86.5 27.5q39 17 63 38v-72q0 -7 4.5 -11.5t11.5 -4.5t11.5 4.5t4.5 11.5 v133v1v1v0v0v166v1v1q0 36 -35 64q-34 28 -89.5 47t-125.5 29t-141 10q-70 0 -140 -10t-125 -28.5t-90 -46.5q-34 -28 -35 -64v0v-1v-469q0 -32 30 -59q30 -28 83 -48t124 -32t153 -12q26 0 51.5 1.5t49.5 3.5q6 1 10.5 6t4.5 12q-2 6 -7 10t-11 4q-24 -2 -48 -3.5t-50 -1.5 q-76 0 -142 11t-114 28t-75 38t-27 42v88q24 -22 63 -38q38 -17 86 -28t102 -17q53 -5 107 -5q38 0 75 2.5t73 8.5q6 1 10 6.5t2 11.5q-1 7 -6 11t-11 3v0zM422 461q-79 0 -145 10q-66 11 -113 28t-74 37q-26 21 -26 42v0v0v105q24 -21 63 -38q38 -16 86 -27t102 -17 q53 -6 107 -6t108 6q54 5 101.5 16.5t86.5 27.5q39 17 63 38v-107q-1 -20 -27 -41q-27 -20 -74 -36.5t-113 -27.5q-65 -10 -145 -10v0zM422 864q80 0 145 -11q66 -10 113.5 -27t73.5 -38q27 -20 27 -41v0v0v0q-1 -21 -27 -42q-27 -21 -74 -37.5t-113 -26.5q-65 -11 -145 -11 q-79 0 -145 10t-113 27t-74 38q-26 21 -26 42t26 42q27 21 74 37.5t113 27.5q66 10 145 10z" />
</svg>