<svg viewBox="0 0 256 256" xmlns="http://www.w3.org/2000/svg">
  <path transform="scale(1, -1) translate(0, -256)" fill="currentColor" d="M244 147l-38 12v52q0 19 -31 30q-29 10 -69 10t-68 -10q-32 -11 -32 -30v-117q0 -12 14.5 -21t37.5 -14t48 -5l19 1q5 -15 18 -26.5t38 -22.5q2 -1 3 -1t3 1q27 12 40 24t17 29q4 15 4 44v37q1 2 0 4t-4 3zM106 237q25 0 46 -5q18 -4 29 -10t11 -11.5t-11 -11.5t-29 -10 q-21 -4 -45.5 -4t-45.5 4q-18 4 -29 10t-11 11.5t11 11.5t29 10q21 5 45 5zM20 189q14 -9 37 -14t49 -5t49.5 5t36.5 14v-25l-5 2h-5l-57 -19q-3 -1 -4 -3l-15 -1q-24 0 -45 5q-19 4 -30 10t-11 11v20zM20 148q14 -9 37 -14t49 -5l14 1v-24h-14q-24 0 -45 4q-19 4 -30 10.5 t-11 11.5v16zM20 94v16q14 -9 37 -13.5t49 -4.5h14q1 -16 2 -23l-16 -1q-24 0 -45 5q-18 4 -29.5 10t-11.5 11zM235 103q0 -26 -3 -38q-3 -15 -13.5 -24.5t-34.5 -20.5q-23 11 -33 20.5t-13.5 23.5t-3.5 36v36l50 16l51 -16v-33z" />
</svg>