<svg viewBox="0 0 256 256" xmlns="http://www.w3.org/2000/svg">
  <path transform="scale(1, -1) translate(0, -256)" fill="currentColor" d="M244 68h-8v13q0 11 -8 19t-19 8t-19 -8t-8 -19v-13h-8q-3 0 -5 -2t-2 -5v-41q0 -3 2 -5t5 -2h70q3 0 5 2t2 5v41q0 3 -2 5t-5 2zM196 81q0 6 4 9.5t9 3.5t9 -4t4 -9v-13h-26v13zM237 27h-56v27h56v-27zM141 99q-17 -3 -35 -3q-25 0 -46 5q-19 4 -30 10t-11 12v16 q14 -9 37 -14t49.5 -5t50 5t36.5 14v-12q0 -3 2 -5t5 -2t5 2t2 5v75q0 19 -31 31q-29 10 -69 10t-69 -10q-31 -11 -32 -30v-118q0 -18 32 -30q29 -10 69 -10q13 0 25 1q3 0 5 2.5t1.5 5t-2.5 4.5t-5 2q-11 -1 -24 -1q-24 0 -46 4q-18 4 -29 10.5t-11 11.5v16q13 -9 36.5 -14 t49.5 -5q21 0 38 3q3 0 4.5 2.5t0.5 5.5t-3.5 4.5t-4.5 1.5zM106 134q-25 0 -46 4q-19 4 -30 10.5t-11 11.5v21q13 -9 36.5 -14t50 -5t50 5t36.5 14v-21q0 -5 -11 -11.5t-30 -10.5q-21 -4 -45 -4zM106 229q24 0 45 -4q19 -4 30 -10.5t11 -12t-11 -12t-30 -10.5 q-20 -4 -45 -4t-46 5q-19 4 -30 10t-11 11.5t11 12t30 10.5q21 4 46 4z" />
</svg>