<svg viewBox="0 0 1024 1024" xmlns="http://www.w3.org/2000/svg">
  <path transform="scale(1, -1) translate(0, -960)" fill="currentColor" d="M384 522q2 -3 5 -4t6 -1q4 0 6.5 1t4.5 4q5 4 5 10.5t-5 11.5l-56 51l56 51q5 5 5 11.5t-5 11.5q-4 5 -10.5 5t-11.5 -5l-58 -53l-56 56q-4 5 -10.5 5t-11.5 -5t-5 -11.5t5 -10.5l56 -52l-56 -54q-5 -5 -5 -11.5t5 -10.5q2 -3 5.5 -4t5.5 -1q3 0 6 1t5 4l58 52zM776 670 q-5 5 -11.5 5t-10.5 -5l-58 -52l-56 54q-5 5 -11.5 5t-10.5 -5q-5 -5 -5 -11.5t5 -10.5l56 -52l-56 -54q-5 -5 -5 -11.5t5 -10.5q2 -3 5 -4t6 -1q2 0 5.5 1t5.5 4l58 52l57 -52q3 -3 5.5 -4t5.5 -1q4 0 6.5 1t5.5 4q4 4 4 10.5t-4 11.5l-58 53l56 51q4 5 4.5 11.5t-4.5 10.5 v0zM512 928q-99 0 -186 -38q-88 -38 -153 -103t-103 -153q-38 -87 -38 -186t38 -186q38 -88 103 -153t153 -103q87 -38 186 -38t186 38q88 38 153 103t103 153q38 87 38 186t-38 186q-38 88 -103 153t-153 103q-87 38 -186 38zM512 0q-92 0 -174 35q-81 36 -142 97t-97 142 q-35 82 -35 174t35 174q36 81 96.5 142t142.5 97q82 35 174 35t174 -35q81 -36 142 -96.5t97 -142.5q35 -82 35 -174t-35 -174q-36 -81 -96.5 -142t-142.5 -97q-82 -35 -174 -35zM512 290q-55 0 -106 -20t-91 -57q-5 -5 -5 -11.5t4 -11.5q4 -4 10.5 -4t11.5 4q36 34 81 51.5 t93 17.5q50 0 95 -17.5t80 -51.5q2 -2 4.5 -3t6.5 -1t6.5 1t4.5 3q5 5 5 11.5t-5 11.5q-38 37 -89 57t-106 20z" />
</svg>