<svg viewBox="0 0 1024 1024" xmlns="http://www.w3.org/2000/svg">
  <path transform="scale(1, -1) translate(0, -960)" fill="currentColor" d="M630 368h-236q-34 0 -58 -24t-24 -58v-24q0 -7 4.5 -11.5t11.5 -4.5t11.5 4.5t4.5 11.5v24q0 21 14.5 35.5t35.5 14.5h235q20 0 34.5 -14.5t14.5 -35.5v-24q0 -7 4.5 -11.5t11.5 -4.5q8 0 12 4.5t4 11.5v24q2 34 -22 58t-58 24zM512 928q-99 0 -186 -38 q-88 -38 -153 -103t-103 -153q-38 -87 -38 -186t38 -186q38 -88 103 -153t153 -103q87 -38 186 -38t186 38q88 38 153 103t103 153q38 87 38 186t-38 186q-38 88 -103 153t-153 103q-87 38 -186 38zM512 0q-92 0 -174 35q-81 36 -142 97t-97 142q-35 82 -35 174t35 174 q36 81 96.5 142t142.5 97q82 35 174 35t174 -35q81 -36 142 -96.5t97 -142.5q35 -82 35 -174t-35 -174q-36 -81 -96.5 -142t-142.5 -97q-82 -35 -174 -35zM386 514q2 -3 5 -4t6 -1q2 0 5.5 1t5.5 4q5 4 5 10.5t-5 11.5l-50 50l50 49q5 5 5 11.5t-5 11.5q-5 4 -11.5 4 t-10.5 -4l-48 -50l-50 50q-5 4 -11.5 4t-10.5 -4q-5 -5 -5 -11.5t5 -11.5l49 -49l-49 -50q-5 -5 -5 -11.5t5 -10.5q2 -3 5 -4t6 -1q2 0 5.5 1t5.5 4l50 49zM760 658q-5 4 -11.5 4t-10.5 -4l-48 -50l-50 50q-5 4 -11.5 4t-10.5 -4q-5 -5 -5 -11.5t5 -11.5l49 -49l-49 -50 q-5 -5 -5 -11.5t5 -10.5q2 -3 5 -4t6 -1q2 0 5.5 1t5.5 4l50 49l49 -49q3 -3 6 -4t5 -1q3 0 6 1t6 4q4 4 4 10.5t-4 11.5l-50 50l50 49q3 4 3 11t-5 12v0z" />
</svg>