<svg viewBox="0 0 256 256" xmlns="http://www.w3.org/2000/svg">
  <path transform="scale(1, -1) translate(0, -256)" fill="currentColor" d="M128 251q-33 0 -61.5 -16.5t-45 -45t-16.5 -61.5t16.5 -61.5t45 -45t61.5 -16.5t61.5 16.5t45 45t16.5 61.5t-16.5 61.5t-45 45t-61.5 16.5zM128 19q-29 0 -54 14.5t-40 39.5t-15 55t15 54.5t39.5 39.5t54.5 15t55 -15t39.5 -40t14.5 -54.5t-14.5 -54.5t-39.5 -39.5 t-55 -14.5zM128 99q-17 0 -31.5 -6t-26.5 -17q-2 -2 -2 -5t2 -5t5 -2t5 2q19 18 48 18q13 0 25.5 -5t22.5 -14q2 -2 5 -2t5 2.5t2 5t-2 5.5q-12 11 -27 17t-31 6zM74 142l10 10l10 -10q2 -2 5 -2t5 2.5t2 5t-2 4.5l-10 10l10 10q2 2 2 5t-2.5 5t-5 2.5t-4.5 -2.5l-10 -10 l-10 10q-2 3 -5 3t-5.5 -2.5t-2 -5t2.5 -5.5l10 -10l-10 -10q-2 -2 -2 -5t2 -5t5 -2t5 2zM192 182q-2 2 -4.5 2.5t-5.5 -2.5l-10 -10l-10 10q-2 2 -4.5 2.5t-5 -2t-2.5 -5t2 -5.5l10 -10l-10 -10q-2 -2 -2 -5t2 -5t5 -2t5 2l10 10l10 -10q2 -2 4.5 -2t4.5 2t2 5t-2 5l-10 10 l10 10q3 2 3.5 5t-2.5 5z" />
</svg>