<svg viewBox="0 0 1024 1024" xmlns="http://www.w3.org/2000/svg">
  <path transform="scale(1, -1) translate(0, -960)" fill="currentColor" d="M512 928q-99 0 -186 -38q-88 -38 -153 -103t-103 -153q-38 -87 -38 -186t38 -186q38 -88 103 -153t153 -103q87 -38 186 -38t186 38q88 38 153 103t103 153q38 87 38 186t-38 186q-38 88 -103 153t-153 103q-87 38 -186 38zM512 0q-92 0 -174 35q-81 36 -142 97t-97 142 q-35 82 -35 174t35 174q36 81 96.5 142t142.5 97q82 35 174 35t174 -35q81 -36 142 -96.5t97 -142.5q35 -82 35 -174t-35 -174q-36 -81 -96.5 -142t-142.5 -97q-82 -35 -174 -35zM410 658q-5 4 -11.5 4t-11.5 -4l-49 -50l-50 50q-5 4 -11.5 4t-10.5 -4q-5 -5 -5 -11.5 t5 -11.5l49 -49l-49 -50q-5 -5 -5 -11.5t5 -10.5q2 -3 5 -4t6 -1q2 0 5.5 1t5.5 4l50 49l49 -49q3 -3 6 -4t5 -1q3 0 6 1t6 4q4 4 4 10.5t-4 11.5l-50 50l50 49q4 4 4 11t-4 12zM760 658q-5 4 -11.5 4t-10.5 -4l-48 -50l-50 50q-5 4 -11.5 4t-10.5 -4q-5 -5 -5 -11.5 t5 -11.5l49 -49l-49 -50q-5 -5 -5 -11.5t5 -10.5q2 -3 5 -4t6 -1q2 0 5.5 1t5.5 4l50 49l49 -49q3 -3 6 -4t5 -1q3 0 6 1t6 4q4 4 4 10.5t-4 11.5l-50 50l50 49q3 4 3 11t-5 12v0zM606 283q-4 5 -10.5 5t-11.5 -5l-50 -49l-49 49q-5 5 -11.5 5t-11.5 -5q-4 -5 -4 -11t4 -11 l50 -50l-50 -49q-4 -5 -4 -11.5t4 -11.5q3 -2 6 -3.5t6 -1.5q2 0 5 1.5t6 3.5l49 50l50 -50q2 -2 5.5 -3.5t5.5 -1.5q3 0 6 1.5t5 3.5q5 5 5 11.5t-5 11.5l-49 49l49 50q4 5 4 11t-4 11v0z" />
</svg>