<svg viewBox="0 0 256 256" xmlns="http://www.w3.org/2000/svg">
  <path transform="scale(1, -1) translate(0, -256)" fill="currentColor" d="M128 251q-33 0 -61.5 -16.5t-45 -45t-16.5 -61.5t16.5 -61.5t45 -45t61.5 -16.5t61.5 16.5t45 45t16.5 61.5t-16.5 61.5t-45 45t-61.5 16.5zM128 19q-29 0 -54 14.5t-40 39.5t-15 55t15 54.5t39.5 39.5t54.5 15t55 -15t39.5 -40t14.5 -54.5t-14.5 -54.5t-39.5 -39.5 t-55 -14.5zM94 142q2 -2 5 -2t5 2.5t2 5t-2 4.5l-10 10l10 10q2 3 2 5.5t-2 4.5t-5 2.5t-5 -2.5l-10 -10l-10 10q-2 3 -5 3t-5 -2.5t-2 -5t2 -5.5l10 -10l-10 -10q-2 -2 -2 -5t2 -5t5 -2t5 2l10 10zM192 182q-2 2 -4.5 2.5t-5.5 -2.5l-10 -10l-10 10q-2 2 -4.5 2.5t-5 -2 t-2.5 -5t2 -5.5l10 -10l-10 -10q-2 -2 -2 -5t2 -5t5 -2t5 2l10 10l10 -10q2 -2 4.5 -2t4.5 2t2 5t-2 5l-10 10l10 10q3 2 3.5 5t-2.5 5zM157 111h-58q-10 0 -17 -7t-7 -17t7 -17t17 -7h58q10 0 17 7t7 17t-7 17t-17 7zM157 77h-58q-4 0 -7 3t-3 7t3 7t7 3h58q4 0 7 -3t3 -7 t-3 -7t-7 -3z" />
</svg>