<svg viewBox="0 0 256 256" xmlns="http://www.w3.org/2000/svg">
  <path transform="scale(1, -1) translate(0, -256)" fill="currentColor" d="M18 212h64q3 0 5 2t2 5t-2 5t-5 2h-64q-3 0 -5 -2t-2 -5t2 -5t5 -2zM246 183l-63 63q-5 6 -13 6t-14 -6l-10 -10q-6 -6 -6 -14t6 -13l5 -5l-96 -45q-9 -4 -11 -13l-39 -114q-2 -5 -0.5 -11t5.5 -11q7 -6 16 -6q3 0 6 1l114 39q9 3 13 11l45 96l5 -5q6 -6 14 -6t13 6 l11 10q5 6 5 13.5t-6 13.5zM146 61q-1 -3 -4 -4l-113 -38l56 56q7 -4 14 -4q12 0 20.5 8.5t8.5 20.5t-8.5 20t-20.5 8t-20.5 -8t-8.5 -20q0 -8 5 -16l-57 -56l38 114q2 3 4 4l101 48l32 -32zM84 100q0 6 4.5 10.5t10.5 4.5t10.5 -4.5t4.5 -10.5t-4.5 -10.5t-10.5 -4.5 t-10.5 4.5t-4.5 10.5zM236 166l-10 -10q-1 -2 -3.5 -2t-3.5 2l-63 63q-2 2 -2 4t2 3l10 11q2 1 4 1t3 -1l63 -63q2 -2 2 -4t-2 -4z" />
</svg>