<svg viewBox="0 0 1024 1024" xmlns="http://www.w3.org/2000/svg">
  <path transform="scale(1, -1) translate(0, -960)" fill="currentColor" d="M72 795h254q8 0 12 4.5t4 11.5t-4 11.5t-12 4.5h-254q-7 0 -11.5 -4.5t-4.5 -11.5t4.5 -11.5t11.5 -4.5v0zM978 659l-255 255q-18 18 -45 18t-46 -18l-40 -42q-10 -10 -14.5 -21.5t-4.5 -23.5q0 -13 4.5 -24.5t14.5 -20.5l34 -33l-402 -187q-13 -6 -23.5 -17.5 t-14.5 -26.5l-154 -456q-7 -20 -2 -40t20 -35q10 -11 24 -16.5t28 -5.5q6 0 12 1l12 2l456 154q15 4 26.5 14.5t17.5 23.5l187 402l33 -34q10 -10 21.5 -14.5t23.5 -4.5t24.5 4.5t20.5 14.5l42 42q9 9 14 20.5t5 23.5t-5.5 24.5t-13.5 20.5v0zM595 173q-3 -7 -10 -13.5 t-14 -9.5l-456 -152q-7 -2 -14 -2t-15 4l252 251q13 -8 27.5 -13.5t31.5 -5.5q43 0 73.5 30.5t30.5 73.5t-30.5 73.5t-73.5 30.5t-73.5 -30.5t-30.5 -73.5q0 -18 5.5 -33.5t15.5 -28.5l-250 -252q-4 8 -4 15t2 16l154 456q2 8 8 14t14 10l412 192l139 -139l-194 -413v0z M325 336q0 30 21 51t51 21t51 -21t21 -51t-21 -51t-51 -21t-51 21t-21 51zM955 592l-41 -42q-10 -9 -23.5 -9t-21.5 9l-255 253q-4 5 -6.5 11t-2.5 12t2.5 11.5t6.5 10.5l42 43q5 5 10.5 7.5t11.5 2.5t12 -2.5t11 -7.5l253 -253q4 -4 6.5 -10t2.5 -12t-2 -12.5t-6 -11.5v0z " />
</svg>