<svg viewBox="0 0 256 256" xmlns="http://www.w3.org/2000/svg">
  <path transform="scale(1, -1) translate(0, -256)" fill="currentColor" d="M213 179h-43q0 10 -7.5 17.5t-17.5 7.5h-115q-10 0 -17.5 -7.5t-7.5 -18.5v-84q0 -10 7.5 -17.5t17.5 -7.5h33q3 -7 9 -11.5t14 -4.5t14.5 4.5t9.5 11.5h70q3 -7 9.5 -11.5t14.5 -4.5t14 4.5t9 11.5h17q3 0 5 2t2 5v65q0 16 -11 27t-27 11zM19 94v84q0 5 3.5 8.5t7.5 3.5 h115q5 0 8 -3.5t3 -8.5v-95h-44q-2 9 -9 15t-16.5 6t-16.5 -6t-9 -15h-31q-4 0 -7.5 3t-3.5 8zM87 67q-5 0 -8.5 3.5t-3.5 8t3.5 8t8.5 3.5t8 -3.5t3 -8t-3 -8t-8 -3.5zM204 67q-5 0 -8.5 3.5t-3.5 8t3.5 8t8 3.5t8 -3.5t3.5 -8t-3.5 -8t-7.5 -3.5zM237 83h-8q-2 9 -9 15 t-16.5 6t-16.5 -6t-9 -15h-8v82h43q10 0 16.5 -7t6.5 -17v-58h1zM127 127q3 0 5 2t2 5v30q0 3 -2 5.5t-5 2.5h-77q-3 0 -5.5 -2.5t-2.5 -5.5v-30q0 -3 2.5 -5t5.5 -2h77zM56 157h64v-16h-64v16z" />
</svg>