<svg viewBox="0 0 1024 1024" xmlns="http://www.w3.org/2000/svg">
  <path transform="scale(1, -1) translate(0, -960)" fill="currentColor" d="M866 621h-164v72q0 7 -4 11.5t-12 4.5h-520q-7 0 -11.5 -4.5t-4.5 -11.5t4.5 -11.5t11.5 -4.5h504v-400h-177q-3 31 -26 53t-56 22q-32 0 -55.5 -22t-25.5 -53h-231q-7 0 -11.5 -4.5t-4.5 -11.5t4.5 -11.5t11.5 -4.5h234q8 -25 29.5 -41.5t48.5 -16.5q28 0 49 16.5 t30 41.5h264q8 -25 29 -41.5t49 -16.5t49 16.5t29 41.5h66q7 0 11.5 4.5t4.5 11.5v233q0 53 -37 90t-89 37zM411 219q-20 0 -34.5 14.5t-14.5 35.5q0 20 14.5 34.5t34.5 14.5q21 0 35.5 -14.5t14.5 -34.5q0 -21 -14 -35.5t-36 -14.5zM832 219q-20 0 -35 14.5t-15 35.5 q0 20 15 34.5t35 14.5t35 -14.5t15 -34.5q0 -21 -15 -35.5t-35 -14.5zM960 277h-46q-3 31 -26.5 53t-55.5 22t-55.5 -22t-26.5 -53h-46v312h163q40 0 67.5 -27.5t27.5 -67.5v-217h-2zM344 470q0 8 -4.5 12t-11.5 4h-280q-7 0 -11.5 -4t-4.5 -12q0 -7 4.5 -11.5t11.5 -4.5 h280q7 0 11.5 5t4.5 11z" />
</svg>