<svg viewBox="0 0 1024 1024" xmlns="http://www.w3.org/2000/svg">
  <path transform="scale(1, -1) translate(0, -960)" fill="currentColor" d="M883 384h-85v274q0 22 -12 41.5t-32 30.5l-303 150q-17 8 -36 8t-36 -8l-302 -150q-21 -11 -33 -30.5t-12 -41.5v-572q0 -32 23 -56t57 -24h150q8 0 12 4.5t4 11.5v39h154q7 -22 25.5 -35t41.5 -13q24 0 42 13.5t25 34.5h220q7 -22 25.5 -35t41.5 -13t41.5 13.5 t25.5 34.5h56q7 0 11.5 4.5t4.5 11.5v198q0 45 -32 77t-77 32v0zM246 38h-134q-19 0 -33.5 14t-14.5 34v572q0 13 7 25t19 18l302 152q10 5 21 5t22 -5l303 -152q12 -6 18.5 -17.5t6.5 -25.5v-274h-17v59q0 7 -4.5 11.5t-11.5 4.5h-167v45q0 32 -23 56t-57 24h-157 q-32 0 -56 -23t-24 -57v-466v0zM531 458h-253v44q0 20 14 34t34 14h157q19 0 33.5 -13.5t14.5 -34.5v-44zM278 426h439v-333h-144q-4 26 -23.5 44t-47.5 18q-27 0 -47.5 -18t-22.5 -44h-150v333h-4zM501 45q-17 0 -28.5 11.5t-11.5 28.5t11.5 28.5t28.5 11.5t28.5 -11.5 t11.5 -28.5t-11.5 -28.5t-28.5 -11.5v0zM854 45q-16 0 -28 11.5t-12 28.5t12 28.5t28 11.5q17 0 28.5 -11.5t11.5 -28.5t-11.5 -28.5t-28.5 -11.5zM960 93h-35q-4 26 -23.5 44t-47.5 18q-27 0 -47.5 -18t-22.5 -44h-35v259h134q33 0 55 -23t22 -54v-182v0z" />
</svg>