<svg viewBox="0 0 256 256" xmlns="http://www.w3.org/2000/svg">
  <path transform="scale(1, -1) translate(0, -256)" fill="currentColor" d="M233 210h-125q-8 0 -13.5 -5.5t-5.5 -12.5v-3h-55q-5 0 -8 -5l-20 -41q-1 -1 -1 -4v-63q0 -3 2 -5t5 -2h12q2 -11 10 -18t19 -7t19.5 7.5t9.5 17.5h86q2 -11 10 -18t19 -7t19.5 7.5t9.5 17.5h15q4 0 7 3t3 7v113q0 7 -5.5 12.5t-12.5 5.5zM37 175h53v-28h-67zM53 58 q-7 0 -11.5 5t-4.5 11t5 11t11 5t10.5 -5t4.5 -11t-4.5 -11t-10.5 -5zM53 104q-10 0 -17.5 -6t-10.5 -14h-6v49h71v-49h-9q-3 8 -10.5 14t-17.5 6zM197 58q-6 0 -10.5 5t-4.5 11t4.5 11t11 5t11 -5t4.5 -11t-5 -11t-11 -5zM237 84h-12q-3 8 -10.5 14t-17 6t-17.5 -6t-11 -14 h-66v108q0 2 1.5 3t3.5 1h125q2 0 3 -1t1 -3v-108z" />
</svg>