<svg viewBox="0 0 256 256" xmlns="http://www.w3.org/2000/svg">
  <path transform="scale(1, -1) translate(0, -256)" fill="currentColor" d="M221 115h-19v65q0 7 -3 12.5t-9 8.5l-76 38q-10 5 -20 0l-76 -38q-6 -3 -9.5 -8.5t-3.5 -12.5v-142q0 -10 6.5 -16.5t16.5 -6.5h37q3 0 5 2t2 5v6h34q2 -5 7.5 -8.5t11.5 -3.5t11 3.5t8 8.5h50q2 -5 7.5 -8.5t11.5 -3.5t11 3.5t8 8.5h12q3 0 5 2.5t2 5.5v49q0 12 -9 21 t-21 9zM59 29h-31q-4 0 -6.5 2.5t-2.5 6.5v142q0 6 5 8l76 38q4 2 8 0l75 -38q5 -2 5 -8v-49q-2 2 -5 2h-39v8q0 10 -6.5 16.5t-16.5 6.5h-39q-10 0 -16.5 -6.5t-6.5 -16.5v-112zM130 134h-57v8q0 3 2.5 5.5t6.5 2.5h39q3 0 6 -2.5t3 -5.5v-8zM73 120h103v-78h-31 q-2 7 -7.5 11.5t-13 4.5t-13 -4.5t-7.5 -11.5h-32v78h1zM125 30q-3 0 -5 2t-2 5t2 5t5 2t5 -2t2 -5t-2 -5t-5 -2zM214 30q-3 0 -5 2t-2 5t2 5t4.5 2t4.5 -2t2 -5t-2 -5t-4 -2zM237 42h-3q-2 7 -7.5 11.5t-13 4.5t-13 -4.5t-7.5 -11.5h-3v59h31q6 0 11 -5t5 -12v-42z" />
</svg>