<svg viewBox="0 0 1024 1024" xmlns="http://www.w3.org/2000/svg">
  <path transform="scale(1, -1) translate(0, -960)" fill="currentColor" d="M989 466l-120 174q-3 4 -6 5t-7 1h-202v56q0 36 -26 62t-62 26h-446q-36 0 -62 -26t-26 -62v-446q0 -36 26 -62t62 -26h134q9 -28 32 -45t53 -17t53.5 17t31.5 45h288q8 -28 31.5 -45t53.5 -17t53 17t32 45h94q7 0 11.5 4.5t4.5 11.5v274q0 2 -1 4l-2 4v0zM848 614 l106 -153h-300v153h194v0zM64 256v446q0 23 16.5 39.5t39.5 16.5h446q23 0 39.5 -16.5t16.5 -39.5v-502h-195q-2 34 -27.5 58t-60.5 24t-60 -23.5t-28 -58.5h-131q-23 0 -39.5 16.5t-16.5 39.5zM339 138q-23 0 -39.5 16.5t-16.5 39.5q0 22 16.5 39t39.5 17t39.5 -17 t16.5 -39q0 -23 -16.5 -39.5t-39.5 -16.5zM795 138q-23 0 -39.5 16.5t-16.5 39.5q0 22 16.5 39t39.5 17t39.5 -17t16.5 -39q0 -23 -16.5 -39.5t-39.5 -16.5zM883 200q-2 34 -27.5 58t-60.5 24t-60 -23.5t-28 -58.5h-53v229h306v-229h-77v0z" />
</svg>