<svg viewBox="0 0 256 256" xmlns="http://www.w3.org/2000/svg">
  <path transform="scale(1, -1) translate(0, -256)" fill="currentColor" d="M250 134l-30 44q-2 3 -6 3h-48v11q0 10 -7 17t-17 7h-112q-10 0 -17.5 -7t-7.5 -17v-112q0 -10 7.5 -17.5t17.5 -7.5h32q2 -7 8.5 -11t14.5 -4t14 4t9 11h68q2 -7 8.5 -11t14.5 -4t14 4t9 11h22q3 0 5 2t2 5v69zM210 167l23 -33h-67v33h44zM30 203h112q4 0 7 -3.5t3 -7.5 v-70h-133v70q0 4 3.5 7.5t7.5 3.5zM19 80v27h134v-38h-44q-1 9 -8 14.5t-16 5.5t-16 -5.5t-9 -14.5h-30q-5 0 -8 3.5t-3 7.5zM85 53q-5 0 -8 3t-3 7.5t3 8t7.5 3.5t8 -3t3.5 -8t-3.5 -8t-7.5 -3zM199 53q-5 0 -8 3.5t-3 7.5t3 7.5t7.5 3.5t8 -3t3.5 -7.5t-3.5 -8t-7.5 -3.5z M223 69q-1 9 -8 15t-16 6t-16 -6t-9 -15h-7v51h70v-51h-14z" />
</svg>