<svg viewBox="0 0 1024 1024" xmlns="http://www.w3.org/2000/svg">
  <path transform="scale(1, -1) translate(0, -960)" fill="currentColor" d="M853 638h-184v8q0 38 -26.5 64t-63.5 26h-457q-38 0 -64 -26t-26 -64v-334q0 -37 26 -63.5t64 -26.5h139q8 -27 31.5 -45.5t54.5 -18.5t54.5 18.5t32.5 45.5h296q8 -27 31.5 -45.5t54.5 -18.5t54.5 18.5t31.5 45.5h74q7 0 11.5 4.5t4.5 11.5v261q0 58 -41 98.5t-98 40.5z M64 312v336q0 24 17 41t41 17h457q24 0 41 -17t17 -41v-392h-200q-3 35 -28.5 59t-61.5 24t-61.5 -24t-27.5 -59h-136q-24 -1 -41 15.5t-17 40.5v0zM347 190q-24 0 -40.5 17t-16.5 41t16.5 41t40.5 17t41 -17t17 -41t-17 -41t-41 -17zM814 190q-24 0 -40.5 17t-16.5 41 t16.5 41t40.5 17t41 -17t17 -41t-17 -41t-41 -17zM960 254h-56q-2 35 -28 59.5t-62 24.5t-61.5 -24.5t-27.5 -59.5h-56v352h184q44 0 75.5 -31t31.5 -76v-245zM509 456q7 0 11.5 4.5t4.5 11.5v120q0 7 -4.5 11.5t-11.5 4.5h-311q-7 0 -11.5 -4.5t-4.5 -11.5v-120 q0 -7 4.5 -11.5t11.5 -4.5h311v0zM214 578h279v-88h-279v88v0z" />
</svg>