<svg viewBox="0 0 1024 1024" xmlns="http://www.w3.org/2000/svg">
  <path transform="scale(1, -1) translate(0, -960)" fill="currentColor" d="M850 643h-189v15q0 36 -25.5 61t-61.5 25h-456q-36 0 -61 -25t-25 -61v-354q0 -36 25 -61t61 -25h125q9 -29 33 -47.5t55 -18.5t55.5 18.5t32.5 47.5h303q8 -29 32 -47.5t56 -18.5q31 0 55 18.5t33 47.5h78q7 0 11.5 4t4.5 12v267q0 59 -42 100.5t-100 41.5v0zM64 304 v354q0 22 16 38t38 16h458q23 0 38.5 -16t15.5 -38v-408h-208q-2 36 -28.5 61t-62.5 25t-62.5 -25t-28.5 -61h-122q-22 0 -38 15.5t-16 38.5zM331 184q-25 0 -42 17.5t-17 41.5t17.5 41.5t41.5 17.5t41.5 -17.5t17.5 -41.5t-17.5 -41.5t-41.5 -17.5zM811 184q-25 0 -42 17.5 t-17 41.5t17.5 41.5t41.5 17.5t41.5 -17.5t17.5 -41.5t-17.5 -41.5t-41.5 -17.5zM960 250h-58q-2 36 -28.5 61t-62.5 25t-62.5 -25t-28.5 -61h-58v361h189q46 0 78.5 -32.5t32.5 -77.5v-251h-2zM179 590h152q7 0 11.5 4.5t4.5 11.5q0 8 -4.5 12t-11.5 4h-152q-7 0 -11.5 -4 t-4.5 -12q0 -7 4.5 -11.5t11.5 -4.5zM285 474q7 0 11.5 4t4.5 12q0 7 -4.5 11.5t-11.5 4.5h-106q-7 0 -11.5 -4.5t-4.5 -11.5q0 -8 4.5 -12t11.5 -4h106z" />
</svg>