<svg viewBox="0 0 1024 1024" xmlns="http://www.w3.org/2000/svg">
  <path transform="scale(1, -1) translate(0, -960)" fill="currentColor" d="M931 765h-501q-25 0 -42.5 -18t-17.5 -43v-22h-232q-8 0 -14.5 -4.5t-9.5 -10.5l-80 -161q0 -4 -1 -7.5t-1 -5.5v-250q0 -7 4.5 -11.5t11.5 -4.5h58q2 -42 32.5 -71.5t72.5 -29.5t73.5 29.5t32.5 71.5h365q2 -42 32.5 -71.5t72.5 -29.5q43 0 74 29.5t32 71.5h70 q11 0 19 8.5t8 18.5v450q2 25 -16 43t-43 18v0zM141 648h229v-136h-296zM211 157q-31 0 -53 22t-22 53t22 53t53 22t53 -22t22 -53t-22 -53t-53 -22zM211 338q-37 0 -65.5 -23t-36.5 -57h-45v222h306v-221h-55q-9 34 -38 56.5t-66 22.5v0zM789 157q-30 0 -50.5 20t-23.5 49 v0v11q3 29 24 48t50 19q31 0 53 -22t22 -53q-1 -29 -22.5 -50.5t-52.5 -21.5zM960 258h-69q-8 34 -36.5 57t-65.5 23t-65.5 -23t-37.5 -57h-284v446q0 12 8 20.5t20 8.5h501q12 0 20.5 -8.5t8.5 -20.5v-446z" />
</svg>