<svg viewBox="0 0 256 256" xmlns="http://www.w3.org/2000/svg">
  <path transform="scale(1, -1) translate(0, -256)" fill="currentColor" d="M212 180h-44v1q0 10 -7 17t-17 7h-114q-11 0 -18 -7t-7 -17v-89q0 -10 7.5 -17t17.5 -7h29q3 -8 9.5 -12.5t14.5 -4.5t14.5 4.5t9.5 12.5h71q3 -8 9.5 -12.5t14.5 -4.5t15 4.5t9 12.5h18q3 0 5 2t2 5v66q0 16 -11.5 27.5t-27.5 11.5zM19 92v88q0 5 3 8t8 3h114q4 0 7 -3 t3 -8v-99h-46q-1 9 -8.5 15.5t-17 6.5t-16.5 -6t-9 -16h-27q-5 0 -8 3t-3 8zM83 65q-5 0 -8.5 3.5t-3.5 8.5t3.5 8.5t8.5 3.5t8.5 -3.5t3.5 -8.5t-3.5 -8.5t-8.5 -3.5zM203 65q-5 0 -8.5 3.5t-3.5 8.5t3.5 8.5t8.5 3.5t8.5 -3.5t3 -8.5t-3.5 -8.5t-8 -3.5zM237 81h-9 q-2 9 -9 15.5t-16.5 6.5t-16.5 -6t-9 -16h-9v85h44q10 0 17 -7t7 -17v-61h1zM45 160h38q3 0 5 2.5t2 5.5t-2 5t-5 2h-38q-3 0 -5 -2t-2 -5t2 -5.5t5 -2.5zM71 131q3 0 5 2t2 5t-2 5.5t-5 2.5h-26q-3 0 -5 -2.5t-2 -5.5t2 -5t5 -2h26z" />
</svg>