<svg viewBox="0 0 256 256" xmlns="http://www.w3.org/2000/svg">
  <path transform="scale(1, -1) translate(0, -256)" fill="currentColor" d="M60 55q0 -4 3 -7.5t7.5 -3.5t7.5 3.5t3 8t-3 7.5t-7.5 3t-7.5 -3t-3 -8zM98 55q0 -4 3 -7.5t7.5 -3.5t7.5 3.5t3 8t-3 7.5t-7.5 3t-7.5 -3t-3 -8zM136 55q0 -4 3 -7.5t7.5 -3.5t7.5 3.5t3 8t-3 7.5t-7.5 3t-7.5 -3t-3 -8zM195 121q0 -12 8 -20t19.5 -8t20 8t8.5 19.5 t-8.5 20t-19.5 8.5l-4 -1l-18 31q11 11 11 25.5t-10.5 24.5t-25 10t-24.5 -10t-10 -25q0 -6 1 -11l-37 -25q-2 2 -4 2h-24q-9 0 -15.5 -6.5t-6.5 -15.5v-56h-18q-14 0 -23.5 -9.5t-9.5 -22.5v-11q0 -13 9.5 -22.5t23.5 -9.5h152q14 0 23.5 9.5t9.5 22.5v11q0 13 -9.5 22.5 t-23.5 9.5h-61l-6 21l60 56l7 2l16 -28q-11 -8 -11 -22zM177 225q9 0 15 -6t6 -15t-6.5 -15t-15 -6t-14.5 6t-6.5 15t6 15t15.5 6zM209 60v-10q0 -8 -5.5 -13.5t-13.5 -5.5h-152q-8 0 -13.5 5.5t-5.5 13.5v10q0 8 5.5 13t13.5 5h152q8 0 13.5 -5t5.5 -13zM70 92v57 q0 3 2.5 5t5.5 2h18l18 -63h-44v-1zM111 155l39 26q6 -7 14 -10l-46 -43zM237 121q0 -6 -4 -10t-10 -4t-10 4t-4 9.5t4.5 10t10 4.5t9.5 -4t4 -10z" />
</svg>