<svg viewBox="0 0 1024 1024" xmlns="http://www.w3.org/2000/svg">
  <path transform="scale(1, -1) translate(0, -960)" fill="currentColor" d="M314 157q0 -13 -9.5 -22.5t-22.5 -9.5q-14 0 -23 9.5t-9 22.5t9 22.5t23 9.5q13 0 22.5 -9.5t9.5 -22.5zM466 157q0 -13 -9.5 -22.5t-22.5 -9.5q-14 0 -23 9.5t-9 22.5t9 22.5t23 9.5q13 0 22.5 -9.5t9.5 -22.5zM618 157q0 -13 -9.5 -22.5t-22.5 -9.5q-14 0 -23 9.5 t-9 22.5t9 22.5t23 9.5q13 0 22.5 -9.5t9.5 -22.5zM891 518h-10.5t-10.5 -1l-81 136q20 18 33 43.5t13 53.5q0 53 -37.5 91.5t-91.5 38.5t-92 -38t-38 -92q0 -12 2.5 -23.5t7.5 -22.5l-167 -110q-1 4 -5 7.5t-9 3.5h-95q-30 0 -51.5 -22t-21.5 -52v-232v-2t1 -3h-88 q-49 0 -83.5 -34.5t-34.5 -83.5v-42q0 -49 34.5 -83.5t83.5 -34.5h612q49 0 83.5 34.5t34.5 83.5v42q0 49 -34.5 83.5t-83.5 34.5h-256l-29 101q1 0 2 1t3 2l243 226q9 1 18.5 4.5t18.5 6.5l78 -131q-22 -13 -36 -36t-14 -50q0 -42 29.5 -71.5t71.5 -29.5t71.5 29.5 t29.5 71.5t-29.5 71t-71.5 29v0zM707 848q40 0 69 -28.5t29 -69.5q0 -39 -28.5 -68t-69.5 -29t-69 28.5t-28 68.5q0 41 28 69.5t69 28.5zM848 176v-42q0 -36 -25 -61t-61 -25h-612q-36 0 -61 25t-25 61v42q0 36 25 61t61 25h612q36 0 61 -25t25 -61zM267 294q0 2 1 3t1 2 v232q0 17 12.5 29.5t28.5 12.5h82l2 -7v0v0l76 -272h-203v0zM467 429l-38 134l173 114q14 -19 34 -32t42 -19zM891 350q-29 0 -49 20t-20 49t20 49t49 20t49 -20t20 -49t-20 -49t-49 -20z" />
</svg>