<svg viewBox="0 0 1024 1024" xmlns="http://www.w3.org/2000/svg">
  <path transform="scale(1, -1) translate(0, -960)" fill="currentColor" d="M851 701v43h21q26 0 45 19t19 45v56q0 26 -19 45t-45 19h-722q-26 0 -45 -19t-19 -45v-54q0 -27 19 -45.5t45 -18.5h55v-746h-101q-7 0 -11.5 -4.5t-4.5 -11.5t4.5 -11.5t11.5 -4.5h768q26 0 45 19t19 45v64q0 26 -19 45t-45 19h-224q-26 0 -45 -19t-19 -45v-64 q0 -8 2.5 -16.5t7.5 -15.5h-149v746h222v-44q0 -33 23 -56.5t56 -26.5v-176h-96q-27 0 -45.5 -18.5t-18.5 -45.5v-64q0 -26 18.5 -45t45.5 -19h224q26 0 45 19t19 45v64q0 27 -19 45.5t-45 18.5h-96v176q31 3 52 26t21 56v0zM906 378v-64q0 -14 -9.5 -23t-22.5 -9h-224 q-14 0 -23 9t-9 23v64q0 13 9 22.5t23 9.5h224q13 0 22.5 -9.5t9.5 -22.5zM118 810v54q0 13 9.5 22.5t22.5 9.5h722q13 0 22.5 -9.5t9.5 -22.5v-54q0 -14 -9.5 -23t-22.5 -9h-722q-13 0 -22.5 9t-9.5 23v0zM413 320l-175 -102v193l175 103v-194zM616 32v64q0 13 9.5 22.5 t22.5 9.5h224q13 0 22.5 -9.5t9.5 -22.5v-64q0 -13 -9.5 -22.5t-22.5 -9.5h-224q-13 0 -22.5 9.5t-9.5 22.5zM237 0v181l174 102v-283h-174v0zM413 552l-175 -102v296h175v-194zM699 701v43h122v-43q0 -22 -15.5 -36.5t-35.5 -14.5h-18q-23 0 -38 14.5t-15 36.5z" />
</svg>