<svg viewBox="0 0 1024 1024" xmlns="http://www.w3.org/2000/svg">
  <path transform="scale(1, -1) translate(0, -960)" fill="currentColor" d="M891 928h-758q-27 0 -45.5 -19t-18.5 -45v-75q0 -27 18.5 -45.5t45.5 -18.5h80v-552h-53q-5 0 -9 -3t-5 -7l-32 -85q-8 -18 -5.5 -38t14.5 -37t29.5 -26t36.5 -9h249q21 0 39 9.5t29 27.5q10 17 12 37t-6 38l-35 83q-3 5 -6.5 7.5t-8.5 2.5h-41v262v0v0v240v0v0v50h270 v-389q0 -7 4.5 -11.5t11.5 -4.5h45v-66q0 -6 4.5 -11t11.5 -5q25 0 43.5 -18.5t18.5 -43.5q0 -26 -18.5 -44t-43.5 -18q-22 0 -39 13t-22 35q-1 6 -7 9.5t-12 1.5q-6 -1 -10 -7t-1 -12q7 -33 33 -53.5t60 -20.5q39 0 66.5 28t27.5 66q0 35 -22.5 61t-55.5 32v53h40 q7 0 11.5 4.5t4.5 11.5v389h49q27 0 45.5 18.5t18.5 45.5v75q0 26 -18.5 45t-45.5 19v0zM389 443l-144 -126v198l144 127v-199zM482 67q4 -12 3 -23.5t-8 -22.5t-17.5 -17t-22.5 -6h-248q-12 0 -22.5 6t-17.5 15q-7 10 -8.5 22t3.5 23l29 75h57v0v0v0v0h175v0v0v0v0h46 l31 -72v0zM245 173v102l144 127v-229h-144zM389 685l-144 -127v167h144v-40zM808 352h-85v373h85v-373zM923 789q0 -13 -9.5 -22.5t-22.5 -9.5h-758q-13 0 -22.5 9.5t-9.5 22.5v75q0 13 9.5 22.5t22.5 9.5h757q13 0 22.5 -9.5t9.5 -22.5v-75h1z" />
</svg>