<svg viewBox="0 0 256 256" xmlns="http://www.w3.org/2000/svg">
  <path transform="scale(1, -1) translate(0, -256)" fill="currentColor" d="M223 251h-190q-8 0 -13.5 -5.5t-5.5 -13.5v-19q0 -8 6 -13.5t14 -5.5h16v-132h-10q-2 0 -4 -1.5t-2 -2.5l-8 -22q-2 -5 -1.5 -10.5t4 -10t8.5 -7.5t11 -3h62q6 0 11 3t8.5 7.5t4 10.5t-2.5 12l-9 20q-2 5 -6 5h-8v131h62v-94q0 -3 2 -5t5 -2h8v-14q0 -3 2 -5t5 -2 q5 0 8.5 -4t3.5 -9t-3.5 -9t-8.5 -4t-8.5 3t-4 6.5t-3 5t-5.5 1t-4.5 -3t-0.5 -5.5q2 -9 9 -15t17.5 -6t18 8t7.5 19q0 9 -5.5 16t-13.5 10v7h7q3 0 5 2.5t2 5.5v94h9q8 0 14 6t6 14v18q0 8 -5.5 13.5t-13.5 5.5zM94 128l-30 -26v42l30 26v-42zM118 32q1 -5 -1 -9t-8 -4h-62 q-5 0 -7.5 4t-1.5 8l7 17h66zM64 62v21l30 26v-47h-30zM94 188l-30 -26v32h30v-6zM199 107h-15v87h15v-87zM228 213q0 -2 -2 -3.5t-4 -1.5h-189q-2 0 -3.5 1.5t-1.5 3.5v19q0 2 1.5 3.5t3.5 1.5h189q3 0 4.5 -1.5t1.5 -3.5v-19z" />
</svg>