<svg viewBox="0 0 1024 1024" xmlns="http://www.w3.org/2000/svg">
  <path transform="scale(1, -1) translate(0, -960)" fill="currentColor" d="M854 254l-80 140q-10 19 -29 29.5t-41 10.5h-54l-112 182v62q45 6 76.5 41.5t31.5 82.5q0 50 -34.5 86t-83.5 38h-1h-1h-350q-7 0 -11.5 -4t-4.5 -12q0 -7 4.5 -11.5t11.5 -4.5h262q-19 -16 -30 -40.5t-11 -51.5q0 -48 31.5 -83t77.5 -41v-62l-111 -182h-57 q-22 0 -41 -11t-30 -29l-85 -149q-10 -18 -10.5 -39.5t9.5 -39.5l86 -156q11 -20 30 -31t41 -11h57q34 0 57 24t23 56v72q0 7 -4.5 11.5t-11.5 4.5h-9q-11 0 -19.5 8t-8.5 19v64q0 21 14.5 34.5t33.5 13.5h101q21 0 34.5 -14.5t13.5 -33.5v-67q0 -11 -8 -19t-19 -8h-14 q-8 0 -12 -4.5t-4 -11.5v-69q0 -34 23.5 -57t56.5 -23h48q21 0 40 11t30 31l93 164q12 18 12 39.5t-11 40.5v0zM427 803q0 39 27.5 66t65.5 27t65.5 -27t27.5 -66q0 -38 -27.5 -65.5t-65.5 -27.5t-65.5 27.5t-27.5 65.5zM522 582l91 -147h-181l90 147v0zM827 190l-93 -164 q-6 -12 -18 -19t-25 -7h-48q-20 0 -34 14.5t-14 33.5v51q24 0 41 17.5t17 41.5v69q0 34 -24 57t-56 23h-101q-34 0 -57 -23.5t-23 -56.5v-64q0 -23 15.5 -40t37.5 -19v-56q0 -20 -14.5 -34t-33.5 -14h-58q-13 0 -24.5 7t-18.5 19l-86 156q-6 11 -6 24.5t6 23.5l84 149 q6 11 18 17.5t24 6.5h368q13 0 24.5 -6.5t17.5 -17.5l80 -139q7 -12 7 -25.5t-6 -24.5v0z" />
</svg>