<svg viewBox="0 0 256 256" xmlns="http://www.w3.org/2000/svg">
  <path transform="scale(1, -1) translate(0, -256)" fill="currentColor" d="M228 232h-74q-1 6 -6 9.5t-12 3.5h-16q-7 0 -11.5 -3.5t-6.5 -9.5h-74q-10 0 -16.5 -6.5t-6.5 -15.5v-177q0 -10 6.5 -16.5t16.5 -6.5h38q3 0 5 2.5t2 5.5t-2 5t-5 2h-14l12 158h37q0 -8 5.5 -13.5t13.5 -5.5h1v-36h-23q-8 0 -14 -6t-6 -14v-30q0 -8 6 -13.5t14 -5.5h58 q8 0 14 5.5t6 13.5v30q0 8 -6 13.5t-14 5.5h-21v37h1q8 0 13 5.5t6 12.5h38l11 -158h-12q-3 0 -5 -2t-2 -5t2 -5t5 -2h36q10 0 16.5 6.5t6.5 15.5v178q0 9 -6.5 15.5t-16.5 6.5zM162 108v-30q0 -2 -2 -4t-4 -2h-58q-2 0 -3.5 1.5t-1.5 4.5v30q0 2 1.5 3.5t3.5 1.5h59 q2 0 3.5 -1.5t1.5 -3.5zM237 210v-14h-82v22h73q4 0 6.5 -2t2.5 -6zM28 218h73v-22h-82v14q0 4 2.5 6t6.5 2zM38 24h-10q-4 0 -6.5 2.5t-2.5 6.5v149h31zM141 183q0 -2 -1.5 -3.5t-3.5 -1.5h-17q-2 0 -3.5 1.5t-1.5 3.5v43q0 2 1.5 4t3.5 2h17q2 0 3.5 -1.5t1.5 -4.5v-43z M228 24h-10l-11 158h30v-149q0 -3 -2.5 -6t-6.5 -3z" />
</svg>