<svg viewBox="0 0 1024 1024" xmlns="http://www.w3.org/2000/svg">
  <path transform="scale(1, -1) translate(0, -960)" fill="currentColor" d="M912 781h-61q-3 24 -20.5 40t-41.5 16h-69q-24 0 -42 -16t-20 -40h-192l-68 125q-2 3 -5.5 5.5t-8.5 2.5h-171q-7 0 -11.5 -4.5t-4.5 -11.5v-119h-85q-34 0 -57 -23.5t-23 -56.5v-41q0 -34 24 -57t56 -23h104v-416h-27q-6 0 -10.5 -3.5t-5.5 -9.5l-16 -72q-4 -18 0 -35.5 t16 -31.5q12 -15 28 -23t34 -8h199q18 0 34 8t28 23q12 14 16 31.5t0 35.5l-16 72q-1 6 -5.5 9.5t-10.5 3.5h-22v416h195q3 -24 20.5 -40t41.5 -16h21v-95h-99q-27 0 -45.5 -18.5t-18.5 -45.5v-35q0 -26 18.5 -45t45.5 -19h235q26 0 45 19t19 45v35q0 27 -19 45.5t-45 18.5 h-104v95h19q24 0 42 16t21 40h62q34 0 57 23.5t23 56.5v41q0 34 -24 58t-56 24zM904 365v-35q0 -14 -9.5 -23t-22.5 -9h-235q-13 0 -22.5 9t-9.5 23v35q0 13 9.5 22.5t22.5 9.5h235q13 0 22.5 -9.5t9.5 -22.5zM229 883h144l54 -102h-198v102v0zM64 659v42q0 20 14.5 34 t33.5 14h542v-138h-542q-19 0 -33.5 14t-14.5 34zM482 72q2 -11 -0.5 -21.5t-9.5 -18.5t-16.5 -13t-21.5 -5h-197q-11 0 -21 5t-18 13q-7 8 -9.5 18.5t0.5 21.5l13 59h265zM248 163v106l179 179v-285h-179zM427 493l-179 -179v265h178v-86h1zM819 587q0 -13 -9.5 -22.5 t-22.5 -9.5h-69q-13 0 -22.5 9.5t-9.5 22.5v186q0 13 9.5 22.5t22.5 9.5h69q13 0 22.5 -9.5t9.5 -22.5v-186zM960 659q0 -20 -14.5 -34t-33.5 -14h-61v138h61q20 0 34 -14.5t14 -33.5v-42v0z" />
</svg>