<svg viewBox="0 0 256 256" xmlns="http://www.w3.org/2000/svg">
  <path transform="scale(1, -1) translate(0, -256)" fill="currentColor" d="M216 81l-20 35q-3 5 -8.5 8.5t-11.5 3.5h-12l-27 43v12q12 3 19.5 12.5t7.5 22t-9 22.5t-22 11h-89q-3 0 -5 -2t-2 -5t2 -5t5 -2h59q-7 -9 -7 -20.5t7.5 -21t19.5 -12.5v-12l-26 -43h-13q-6 0 -11.5 -3.5t-8.5 -8.5l-21 -37q-3 -5 -3 -11.5t2 -11.5l22 -39q3 -6 8.5 -9 t11.5 -3h15q9 0 16 6.5t7 16.5v18q0 3 -2 5t-5 2h-3q-1 0 -2 1t-1 3v16q0 4 2.5 6.5t6.5 2.5h25q4 0 6.5 -2.5t2.5 -6.5v-17q0 -2 -1 -3t-2 -1h-4q-3 0 -5 -2t-2 -5v-17q0 -10 7 -16.5t16 -6.5h12q7 0 12 3t9 9l22 41q3 5 3 11.5t-3 11.5zM110 217q0 8 6 14t14.5 6t14.5 -6 t6 -14.5t-6 -14.5t-14.5 -6t-14.5 6t-6 15zM130 156l18 -28h-35zM204 65l-23 -41q-3 -5 -8 -5h-12q-4 0 -6.5 2.5t-2.5 6.5v10q6 2 10 6.5t4 11.5v17q0 10 -7 16.5t-16 6.5h-25q-10 0 -17 -6.5t-7 -16.5v-16q0 -6 4 -10.5t10 -6.5v-12q0 -4 -3 -6.5t-7 -2.5h-14q-5 0 -8 5 l-22 39q-1 2 -1 4.5t1 4.5l22 37q2 5 8 5h92q6 0 8 -5l20 -35q3 -5 0 -9z" />
</svg>