<svg viewBox="0 0 256 256" xmlns="http://www.w3.org/2000/svg">
  <path transform="scale(1, -1) translate(0, -256)" fill="currentColor" d="M216 191v8h2q8 0 14 5.5t6 13.5v14q0 8 -6 13.5t-14 5.5h-180q-8 0 -13.5 -5.5t-5.5 -13.5v-14q0 -7 5.5 -13t13.5 -6h10v-180h-22q-3 0 -5 -2t-2 -5t2 -5.5t5 -2.5h192q8 0 13.5 6t5.5 14v16q0 7 -5.5 13t-13.5 6h-56q-8 0 -13.5 -5.5t-5.5 -13.5v-16l1 -6h-30v181h50 v-8q0 -8 5.5 -15t13.5 -8v-38h-21q-7 0 -13 -6t-6 -14v-16q0 -7 5.5 -13t13.5 -6h56q8 0 14 5.5t6 13.5v16q0 8 -6 14t-14 6h-20v38q7 2 12.5 8.5t5.5 14.5zM223 110v-16q0 -2 -1.5 -3.5t-3.5 -1.5h-56q-2 0 -3.5 1.5t-1.5 3.5v16q0 3 1.5 4.5t3.5 1.5h56q2 0 3.5 -1.5 t1.5 -4.5zM33 218v14q0 2 1.5 3.5t3.5 1.5h180q3 0 4.5 -1.5t1.5 -3.5v-14q0 -2 -2 -3.5t-4 -1.5h-180q-2 0 -3.5 1.5t-1.5 3.5zM100 98l-38 -22v41l38 22v-41zM157 24v16q0 2 1.5 3.5t3.5 1.5h56q2 0 3.5 -1.5t1.5 -3.5v-16q0 -2 -1.5 -3.5t-3.5 -1.5h-56q-2 0 -3.5 1.5 t-1.5 3.5zM62 19v41l38 22v-63h-38zM100 156l-38 -22v65h38v-43zM178 191v8h24v-8q0 -4 -3 -7t-7 -3h-4q-4 0 -7 3t-3 7z" />
</svg>