<svg viewBox="0 0 1024 1024" xmlns="http://www.w3.org/2000/svg">
  <path transform="scale(1, -1) translate(0, -960)" fill="currentColor" d="M914 854h-306q-5 22 -22.5 37t-39.5 15h-68q-22 0 -40 -15t-22 -37h-306q-32 0 -55 -23t-23 -55v-709q0 -32 23 -55t55 -23h154q7 0 11.5 4.5t4.5 11.5t-4.5 11.5t-11.5 4.5h-67l46 656h171v-10q0 -26 19 -45t45 -19h18v-171h-104q-26 0 -45 -19t-19 -45v-122 q0 -26 19 -45t45 -19h235q27 0 45.5 19t18.5 45v122q0 26 -18.5 45t-45.5 19h-99v173h18q26 0 45 18.5t19 45.5v9h174l46 -656h-60q-8 0 -12 -4t-4 -12q0 -7 4 -11.5t12 -4.5h145q33 0 56 23t23 56v707q-2 32 -25 55t-55 23v0zM659 368v-122q0 -13 -9.5 -22.5t-22.5 -9.5 h-235q-13 0 -22.5 9.5t-9.5 22.5v122q0 13 9.5 22.5t22.5 9.5h235q13 0 22.5 -9.5t9.5 -22.5zM165 22h-55q-19 0 -32.5 14t-13.5 33v608h147l-46 -655v0zM64 709v67q0 19 13.5 32.5t32.5 13.5h304v-113h-350zM578 669q0 -13 -9.5 -22.5t-22.5 -9.5h-68q-13 0 -22.5 9.5 t-9.5 22.5v173q0 13 9.5 22.5t22.5 9.5h68q13 0 22.5 -9.5t9.5 -22.5v-173zM610 822h304q19 0 32.5 -13.5t13.5 -32.5v-67h-350v113zM914 22h-53l-47 656h144v-609q2 -21 -11.5 -34t-32.5 -13v0z" />
</svg>