<svg viewBox="0 0 1024 1024" xmlns="http://www.w3.org/2000/svg">
  <path transform="scale(1, -1) translate(0, -960)" fill="currentColor" d="M992 82q-1 6 -7 9.5t-12 1.5q-33 -7 -82 -8.5t-107 3.5v176h51q34 0 57 23t23 57v78q0 8 -4.5 12t-11.5 4t-11.5 -4t-4.5 -12v-78q0 -20 -13.5 -34t-34.5 -14h-51v326q0 8 -4.5 12t-11.5 4t-11.5 -4t-4.5 -12v-240h-98q-20 0 -34 14t-14 34v79q0 7 -4 11.5t-12 4.5 q-7 0 -11.5 -4.5t-4.5 -11.5v-79q0 -33 23.5 -56.5t56.5 -23.5h98v-259q-36 4 -73 9.5t-73 13.5v3t-1 3l-90 182q-9 21 -29 33t-43 12t-42 -12t-30 -33l-29 -59l-52 106q-10 20 -30 32.5t-42 12.5v0v0q-23 0 -42.5 -12.5t-29.5 -32.5l-92 -184q0 -1 -0.5 -2.5t-0.5 -2.5 q-4 -1 -6.5 -1.5t-3.5 -0.5q-6 -1 -9.5 -7t-1.5 -12q1 -6 7 -9.5t12 -1.5q1 0 41 8t98.5 13t125.5 3q67 -3 122 -24q44 -17 99 -30q54 -14 112 -23.5t115 -14.5q57 -6 106 -6q33 0 60 2.5t48 7.5q8 1 11.5 6.5t2.5 11.5v0zM91 166l83 168q6 14 17.5 21t26.5 7q14 0 25.5 -7 t17.5 -21l75 -153q-70 6 -136.5 -0.5t-108.5 -14.5v0zM374 176l-14 30l40 82q6 12 17.5 19.5t25.5 7.5q15 0 26 -7t17 -20l82 -166q-32 7 -62 15.5t-55 17.5q-18 7 -37 12t-40 9zM184 624q46 0 77.5 32t31.5 77q0 44 -32.5 76.5t-76.5 32.5t-76.5 -32.5t-32.5 -76.5 q0 -45 31.5 -77t77.5 -32zM184 811q32 0 54.5 -22.5t22.5 -54.5q0 -31 -22.5 -54.5t-54.5 -23.5t-54.5 23t-22.5 54t22.5 54.5t54.5 23.5z" />
</svg>