<svg viewBox="0 0 1024 1024" xmlns="http://www.w3.org/2000/svg">
  <path transform="scale(1, -1) translate(0, -960)" fill="currentColor" d="M992 136q-1 6 -7 10t-12 1q-33 -7 -82 -8t-107 3v176h51q34 0 57 23.5t23 56.5v79q0 7 -4.5 11.5t-11.5 4.5t-11.5 -4.5t-4.5 -11.5v-79q0 -20 -13.5 -34t-34.5 -14h-51v325q0 7 -4.5 11.5t-11.5 4.5t-11.5 -4.5t-4.5 -11.5v-240h-98q-20 0 -34 14t-14 34v79q0 7 -4 11.5 t-12 4.5q-7 0 -11.5 -4.5t-4.5 -11.5v-79q0 -33 23.5 -56.5t56.5 -23.5h98v-259q-40 4 -80 10q-41 7 -79.5 15t-74.5 18q-36 11 -67 23q-59 22 -128 25q-70 3 -130.5 -2t-102.5 -14q-42 -8 -45 -9q-7 -2 -10.5 -7t-2.5 -13q1 -6 7 -9.5t12 -1.5q1 0 41 8t98.5 13t125.5 3 q67 -3 122 -24q44 -17 99 -30q54 -14 112 -23.5t115 -14.5t106 -5q33 0 60 2t48 7q8 3 11.5 8.5t2.5 12.5v0zM184 571q46 0 77.5 32.5t31.5 76.5q0 46 -32.5 77.5t-76.5 31.5t-76.5 -32.5t-32.5 -76.5q0 -46 31.5 -77.5t77.5 -31.5zM184 757q32 0 54.5 -23t22.5 -54t-23 -54 t-54 -23t-54 23t-23 54t22.5 54t54.5 23z" />
</svg>