<svg viewBox="0 0 256 256" xmlns="http://www.w3.org/2000/svg">
  <path transform="scale(1, -1) translate(0, -256)" fill="currentColor" d="M42 167q11 0 18.5 7.5t7.5 18t-7.5 18t-18 7.5t-18 -7.5t-7.5 -18t7.5 -18t17.5 -7.5zM42 204q5 0 8.5 -3.5t3.5 -8t-3.5 -8t-8 -3.5t-8 3.5t-3.5 8t3.5 8t7.5 3.5zM246 92q-7 2 -22 3q-28 1 -57 -7v20h6q8 0 14 5.5t6 14.5v15q0 3 -2 5t-5 2t-5 -2t-2 -5v-15 q0 -3 -2 -4.5t-4 -1.5h-7v61q0 3 -2 5t-5 2t-5 -2t-2 -5v-44h-16q-2 0 -4 1.5t-2 4.5v15q0 3 -2 5t-5 2t-4.5 -2t-1.5 -5v-16q0 -8 5.5 -14t14.5 -6h16v-40q-11 -3 -20 -7q-42 19 -84 21q-21 1 -38 -2h-1q-2 -1 -3.5 -3.5t-1 -5.5t3 -4t5.5 -1v0q22 5 50 1q55 -7 108 -44 q1 -1 4 -1t5 3t1.5 5.5t-2.5 4.5q-14 9 -30 18l12 4q28 8 55 8q14 0 25 -3v0q3 0 5.5 1t3 4t-0.5 5.5t-4 3.5z" />
</svg>