<svg viewBox="0 0 256 256" xmlns="http://www.w3.org/2000/svg">
  <path transform="scale(1, -1) translate(0, -256)" fill="currentColor" d="M251 37q-1 3 -3.5 4.5t-5.5 0.5q-15 -3 -43 -1v39h10q10 0 16.5 6.5t6.5 16.5v19q0 3 -2 5.5t-5 2.5t-5 -2.5t-2 -5.5v-19q0 -4 -2.5 -6.5t-6.5 -2.5h-10v78q0 3 -2 5t-5 2t-5.5 -2t-2.5 -5v-58h-21q-4 0 -6.5 3t-2.5 7v19q0 3 -2.5 5t-5.5 2t-5 -2t-2 -5v-19 q0 -10 7 -17t16 -7h22v-58q-16 2 -31 5l-23 45q-3 6 -8.5 9.5t-12 3.5t-12 -3.5t-8.5 -9.5l-5 -9l-10 21q-3 6 -9 9.5t-12.5 3.5t-12 -3.5t-8.5 -9.5l-21 -46h-1q-2 0 -3.5 -2.5t-1 -5.5t3 -4.5t5.5 -0.5v0q14 3 28 5q27 3 48 0v0q10 -2 19 -5q22 -8 52.5 -13t56.5 -5 q17 0 28 2q2 0 3.5 2.5t1.5 5.5zM28 62l18 36q3 6 8.5 6t7.5 -6l17 -33q-24 1 -51 -3zM96 63l-3 5l10 19q2 5 7.5 5t8.5 -5l17 -36q-11 3 -22 7q-8 3 -18 5zM46 169q13 0 21.5 9t8.5 21.5t-8.5 21.5t-21.5 9t-21.5 -9t-8.5 -21.5t8.5 -21.5t21.5 -9zM46 216q7 0 11.5 -5 t4.5 -12t-4.5 -11.5t-11.5 -4.5t-11.5 4.5t-4.5 11.5t4.5 12t11.5 5z" />
</svg>