<svg viewBox="0 0 256 256" xmlns="http://www.w3.org/2000/svg">
  <path transform="scale(1, -1) translate(0, -256)" fill="currentColor" d="M251 50q-1 3 -3.5 4.5t-5.5 1.5q-15 -4 -43 -2v39h10q10 0 16.5 6.5t6.5 16.5v20q0 3 -2 5t-5 2t-5 -2t-2 -5v-20q0 -4 -2.5 -6.5t-6.5 -2.5h-10v78q0 3 -2 5t-5 2t-5.5 -2t-2.5 -5v-57h-21q-4 0 -6.5 2.5t-2.5 6.5v19q0 3 -2.5 5.5t-5.5 2.5t-5 -2.5t-2 -5.5v-19 q0 -10 7 -16.5t16 -6.5h22v-58q-43 4 -71 15q-23 9 -61 7q-20 -2 -40 -6h-2q-2 -1 -3.5 -3.5t-1 -5t3 -4.5t5.5 -1v0q19 4 37 6q36 2 58 -6t52.5 -13t56.5 -5q17 0 28 2q2 1 3.5 3.5t1.5 4.5zM46 156q13 0 21.5 8.5t8.5 21.5t-8.5 21.5t-21.5 8.5t-21.5 -8.5t-8.5 -21.5 t8.5 -21.5t21.5 -8.5zM46 202q7 0 11.5 -4.5t4.5 -11.5t-4.5 -11.5t-11.5 -4.5t-11.5 4.5t-4.5 11.5t4.5 11.5t11.5 4.5z" />
</svg>