<svg viewBox="0 0 1024 1024" xmlns="http://www.w3.org/2000/svg">
  <path transform="scale(1, -1) translate(0, -960)" fill="currentColor" d="M170 614q37 0 64 26.5t27 65.5q0 38 -26.5 64.5t-64.5 26.5t-65 -26.5t-27 -64.5q0 -39 27 -65.5t65 -26.5v0zM170 765q24 0 41.5 -17t17.5 -42q0 -26 -17 -43t-42 -17q-26 0 -43 17t-17 43q0 25 18 42t42 17v0zM981 291q-2 1 -26 5q-24 5 -66.5 6.5t-102.5 -4.5 q-59 -5 -132 -24v104h39q27 0 47 19.5t20 47.5v62q0 7 -4.5 11.5t-11.5 4.5t-11.5 -4.5t-4.5 -11.5v-62q0 -15 -10.5 -25t-24.5 -10h-39v259q0 7 -4 11.5t-12 4.5q-7 0 -11.5 -4.5t-4.5 -11.5v-189h-75q-14 0 -24.5 10.5t-10.5 24.5v61q0 7 -4.5 11.5t-11.5 4.5t-11.5 -4.5 t-4.5 -11.5v-62q0 -28 20 -48t47 -20h75v-182q-22 -7 -45 -15.5t-44 -16.5q-105 49 -193 67q-87 18 -152 20.5t-102 -3.5q-38 -7 -41 -7q-6 -1 -9.5 -7t-1.5 -12q1 -6 7 -9.5t12 -2.5q1 0 51 8q51 7 137.5 -2.5t203.5 -48.5q116 -39 249 -131q3 -1 5.5 -2t4.5 -1q4 0 7 1.5 t6 4.5q3 6 2 12.5t-7 10.5q-36 25 -71.5 45.5t-69.5 38.5q18 8 36 14t36 10q73 21 134 28q60 6 103.5 5t67.5 -6q24 -4 25 -4q6 -1 12 2t7 9t-2 12t-9 7v0z" />
</svg>