<svg viewBox="0 0 1024 1024" xmlns="http://www.w3.org/2000/svg">
  <path transform="scale(1, -1) translate(0, -960)" fill="currentColor" d="M354 605q2 -15 11.5 -24.5t21.5 -9.5h250q12 0 21.5 9.5t11.5 22.5l36 171q4 32 -3 60.5t-26 50.5q-16 21 -40 32t-53 11h-142q-29 0 -53.5 -10.5t-41.5 -31.5q-18 -21 -25.5 -50t-3.5 -60l36 -171v0zM370 866q13 14 30.5 22t39.5 8h142q22 0 40 -8t31 -22q14 -17 19 -39 t2 -45l-34 -172q0 -4 -1.5 -5.5t-0.5 -1.5h-249l-1.5 2.5t-1.5 5.5l-36 170q-4 24 1 46t19 39v0zM923 557q-2 2 -5.5 4t-7.5 2h-78q-7 0 -11.5 -4.5t-4.5 -11.5t4.5 -11.5t11.5 -4.5h58q-21 -61 -59.5 -112.5t-91.5 -88.5q-1 25 -9.5 49t-25.5 42q-20 24 -48 36t-61 12h-168 q-32 0 -60 -12.5t-49 -35.5q-15 -19 -24.5 -42.5t-10.5 -48.5q-53 37 -91.5 88.5t-58.5 112.5h59q7 0 11.5 4.5t4.5 11.5t-4.5 11.5t-11.5 4.5h-78q-4 0 -7.5 -1.5t-5.5 -4.5q-3 -3 -4 -7t1 -8q10 -40 29 -78q18 -37 43 -69.5t57 -60.5q31 -28 67 -49q46 -28 97.5 -42.5 t104.5 -16.5v-226h-114q-7 0 -11.5 -4.5t-4.5 -11.5t4.5 -11.5t11.5 -4.5h260q7 0 11.5 4.5t4.5 11.5t-4.5 11.5t-11.5 4.5h-114v226q53 2 104.5 16.5t97.5 42.5q36 21 67 49q32 28 57 60.5t43 69.5q19 38 29 78q2 4 1 7.5t-4 7.5v0zM344 400q16 18 38 27.5t47 9.5h168 q25 0 47 -9.5t38 -27.5q15 -18 22 -42t3 -49q-44 -25 -93.5 -38t-101.5 -13t-101.5 13t-93.5 38q-3 25 4 49t23 42v0z" />
</svg>