<svg viewBox="0 0 1024 1024" xmlns="http://www.w3.org/2000/svg">
  <path transform="scale(1, -1) translate(0, -960)" fill="currentColor" d="M912 795h-118q-8 0 -12 -4.5t-4 -11.5t4 -11.5t12 -4.5h118q20 0 34 -14.5t14 -33.5v-433h-896v433q0 21 14.5 34.5t33.5 13.5h117q7 0 11.5 4.5t4.5 11.5t-4.5 11.5t-11.5 4.5h-117q-34 0 -57 -23.5t-23 -56.5v-528q0 -33 24 -56.5t56 -23.5h282q-8 -18 -22 -42t-33 -39 q-5 -5 -7 -11.5t1 -12.5q2 -6 7.5 -10.5t13.5 -4.5h310q7 0 12.5 3.5t8.5 11.5q2 6 0 12.5t-7 11.5q-19 15 -33 39t-21 42h288q34 0 57 24t23 56v528q0 34 -24 57t-56 23v0zM638 19h-257q19 23 31 48.5t18 39.5h160q4 -14 16.5 -39.5t31.5 -48.5zM912 139h-800 q-20 0 -34 14.5t-14 33.5v61h896v-61q0 -20 -14.5 -34t-33.5 -14zM344 408h4t4 2q5 2 56 35t109 85q30 -28 68.5 -57.5t84.5 -62.5q6 -4 12.5 -3t10.5 6q3 6 2 12.5t-5 9.5q-46 33 -83 61.5t-66 53.5q44 45 76.5 98.5t32.5 111.5v3q0 13 -4 46.5t-32 60.5q-18 20 -44 29.5 t-58 9.5v0v0q-5 0 -35.5 -5.5t-58.5 -33.5q-20 -19 -29 -46.5t-8 -61.5q1 -53 27 -103.5t85 -106.5q-55 -50 -105.5 -82t-51.5 -33q-6 -4 -7.5 -10.5t1.5 -12.5q3 -3 6.5 -4.5t7.5 -1.5v0zM414 762q-1 27 6 48.5t22 35.5q21 22 45 25.5t25 3.5v0v0q26 0 46 -7t32 -20 q21 -20 23.5 -46.5t2.5 -38.5v-3q0 -50 -30 -98t-71 -89q-53 53 -76 97.5t-25 91.5v0z" />
</svg>