<svg viewBox="0 0 256 256" xmlns="http://www.w3.org/2000/svg">
  <path transform="scale(1, -1) translate(0, -256)" fill="currentColor" d="M85 167q1 -5 4.5 -8t7.5 -3h62q4 0 7.5 3t3.5 7l9 44q3 17 -7 29t-26 12h-36q-16 0 -26.5 -12t-7.5 -30zM95 230q5 7 15 7h36q9 0 15 -7t5 -18l-9 -42h-59l-8 42q-1 11 5 18zM233 157q-2 3 -5 3h-20q-3 0 -5 -2.5t-2 -5.5t2 -5t5 -2h10q-10 -26 -31 -42q-2 12 -9 19 q-11 14 -29 14h-42q-9 0 -16.5 -3.5t-13.5 -10.5q-7 -9 -9 -19q-21 17 -30 42h10q3 0 5 2t2 5t-2 5.5t-5 2.5h-20q-3 0 -5 -3t-1 -6q5 -21 18.5 -38.5t31.5 -28.5q23 -13 49 -14v-51h-25q-3 0 -5.5 -2t-2.5 -5t2.5 -5t5.5 -2h64q3 0 5.5 2t2.5 5t-2.5 5t-5.5 2h-25v51 q26 1 49 14q18 11 31.5 28.5t18.5 38.5q2 3 -1 6zM88 114q7 8 19 8h42q12 0 18.5 -8t6.5 -19q-22 -12 -46 -12t-46 12q0 12 6 19z" />
</svg>