<svg viewBox="0 0 1024 1024" xmlns="http://www.w3.org/2000/svg">
  <path transform="scale(1, -1) translate(0, -960)" fill="currentColor" d="M912 830h-118q-8 0 -12 -4t-4 -12q0 -7 4 -11.5t12 -4.5h118q20 0 34 -14t14 -34v-433h-896v433q0 21 14.5 34.5t33.5 13.5h117q7 0 11.5 4.5t4.5 11.5q0 8 -4.5 12t-11.5 4h-117q-34 0 -57 -23.5t-23 -56.5v-528q0 -33 24 -56.5t56 -23.5h282q-8 -18 -22 -42t-33 -39 q-5 -5 -7 -11.5t1 -12.5q2 -6 7.5 -10.5t13.5 -4.5h310q7 0 12.5 4t8.5 11q2 6 0 12.5t-7 11.5q-19 15 -33 39t-21 42h288q34 0 57 24t23 56v528q0 34 -24 57t-56 23zM638 54h-257q19 23 31 48.5t18 39.5h160q4 -14 16.5 -39.5t31.5 -48.5zM912 174h-800q-20 0 -34 14.5 t-14 33.5v61h896v-61q0 -20 -14.5 -34t-33.5 -14zM381 710h115v-115q0 -7 4.5 -11.5t11.5 -4.5t11.5 4.5t4.5 11.5v115h115q7 0 11.5 4.5t4.5 11.5q0 8 -4.5 12t-11.5 4h-115v116q0 7 -4.5 11.5t-11.5 4.5t-11.5 -4.5t-4.5 -11.5v-116h-115q-7 0 -11.5 -4t-4.5 -12 q0 -7 5 -11.5t11 -4.5z" />
</svg>