<svg viewBox="0 0 256 256" xmlns="http://www.w3.org/2000/svg">
  <path transform="scale(1, -1) translate(0, -256)" fill="currentColor" d="M61 154h24l15 -30q2 -4 7 -4q3 0 5 1t3 4l23 50l22 -44q2 -4 6 -4h28q3 0 5.5 2t2.5 5t-2.5 5t-5.5 2h-24l-25 51q-2 4 -7.5 4t-8.5 -5l-23 -50l-10 23q-2 4 -6 4h-29q-3 0 -5 -2.5t-2 -5t2 -4.5t5 -2zM228 232h-200q-10 0 -16.5 -7t-6.5 -16v-132q0 -10 6.5 -16.5 t16.5 -6.5h66q-6 -12 -10.5 -15.5t-3.5 -9.5q1 -2 3.5 -3.5t4.5 -1.5h78q3 0 5 1.5t3 4t0 5t-3 3.5q-5 5 -11 16h68q10 0 16.5 6.5t6.5 16.5v132q0 9 -7 16t-16 7zM28 218h200q4 0 6.5 -2.5t2.5 -6.5v-106h-218v106q0 4 2.5 6.5t6.5 2.5zM154 38h-53q5 7 9 16h36q2 -8 8 -16 zM228 68h-200q-4 0 -6.5 2.5t-2.5 6.5v12h218v-12q0 -4 -2.5 -6.5t-6.5 -2.5z" />
</svg>