<svg viewBox="0 0 1024 1024" xmlns="http://www.w3.org/2000/svg">
  <path transform="scale(1, -1) translate(0, -960)" fill="currentColor" d="M970 928h-916q-7 0 -11.5 -4.5t-4.5 -11.5v-186q0 -7 4.5 -11.5t11.5 -4.5h5v-726q0 -7 4.5 -11.5t11.5 -4.5t11.5 4.5t4.5 11.5v91h842v-91q0 -7 4.5 -11.5t11.5 -4.5t11.5 4.5t4.5 11.5v726h5q7 0 11.5 4.5t4.5 11.5v186q0 7 -5 11.5t-11 4.5v0zM70 896h882v-154h-882 v154v0zM933 107h-842v603h842v-603zM224 459h198q14 0 23 9.5t9 22.5v88q0 13 -9 22.5t-23 9.5h-198q-13 0 -22.5 -9.5t-9.5 -22.5v-88q0 -13 9.5 -22.5t22.5 -9.5v0zM224 579h198v-88h-198v88v0zM224 221h576q13 0 22.5 9.5t9.5 22.5v88q0 13 -9.5 22.5t-22.5 9.5h-576 q-13 0 -22.5 -9.5t-9.5 -22.5v-88q0 -13 9.5 -22.5t22.5 -9.5zM224 341h576v-88h-576v88zM602 461h198q13 0 22.5 9.5t9.5 22.5v88q0 13 -9.5 22.5t-22.5 9.5h-198q-14 0 -23 -9.5t-9 -22.5v-88q0 -13 9 -22.5t23 -9.5zM602 581h198v-88h-198v88z" />
</svg>