<svg viewBox="0 0 256 256" xmlns="http://www.w3.org/2000/svg">
  <path transform="scale(1, -1) translate(0, -256)" fill="currentColor" d="M228 227h-30q-3 0 -5 -2t-2 -5t2 -5.5t5 -2.5h30q4 0 6.5 -2.5t2.5 -6.5v-105h-218v106q0 3 3 6t6 3h30q3 0 5 2t2 5t-2 5t-5 2h-30q-10 0 -16.5 -6.5t-6.5 -16.5v-132q0 -10 6.5 -16.5t16.5 -6.5h66q-6 -12 -10.5 -15.5t-3.5 -9.5q1 -2 3.5 -3.5t4.5 -1.5h78q3 0 5 1.5 t3 4t0 5t-2 4.5q-6 4 -11 15h67q10 0 16.5 6.5t6.5 16.5v132q0 9 -7 16t-16 7zM154 33h-53q5 7 9 16h36q2 -8 8 -16zM228 62h-200q-4 0 -6.5 3t-2.5 7v12h218v-12q0 -4 -2.5 -7t-6.5 -3zM95 191h26v-26q0 -3 2 -5t5 -2t5 2t2 5v26h26q3 0 5 2t2 5t-2 5t-5 2h-26v25 q0 3 -2 5.5t-5 2.5t-5 -2.5t-2 -5.5v-25h-26q-3 0 -5 -2t-2 -5t2 -5t5 -2z" />
</svg>