<svg viewBox="0 0 256 256" xmlns="http://www.w3.org/2000/svg">
  <path transform="scale(1, -1) translate(0, -256)" fill="currentColor" d="M228 218h-30q-3 0 -5 -2t-2 -5t2 -5t5 -2h30q4 0 6.5 -3t2.5 -7v-105h-218v106q0 4 2.5 6.5t6.5 2.5h29q3 0 5 2t2 5t-2 5t-5 2h-29q-10 0 -16.5 -6.5t-6.5 -16.5v-132q0 -9 6.5 -16t16.5 -7h66q-6 -11 -10.5 -15t-3.5 -9q1 -3 3.5 -4.5t4.5 -1.5h78q3 0 5 1.5t3 4t0 5 t-2 4.5q-6 4 -11 15h67q10 0 16.5 7t6.5 16v132q0 9 -7 16t-16 7zM154 24h-53q5 7 9 16h36q2 -8 8 -16zM228 54h-200q-4 0 -6.5 2.5t-2.5 6.5v12h218v-12q0 -4 -2.5 -6.5t-6.5 -2.5zM86 115q1 0 4 1t13 8q14 10 26 20q15 -12 37 -28q2 -2 5 -1.5t4.5 3t1 5.5t-2.5 4 q-22 16 -35 27q26 27 26 52v2q0 18 -9.5 28t-27.5 10q-4 0 -10 -1q-9 -3 -16 -10q-10 -11 -10 -29q1 -14 7 -26t20 -26q-11 -10 -25 -19q-11 -7 -12.5 -8t-2.5 -3.5t1 -5.5t6 -3zM106 206q0 12 6 20q4 3 8.5 4.5t7.5 1.5q12 0 17.5 -5.5t5.5 -18.5v-2q0 -19 -22 -42 q-12 11 -17 21.5t-6 20.5z" />
</svg>