<svg viewBox="0 0 1024 1024" xmlns="http://www.w3.org/2000/svg">
  <path transform="scale(1, -1) translate(0, -960)" fill="currentColor" d="M912 928h-800q-34 0 -57 -23t-23 -57v-864q0 -7 4.5 -11.5t11.5 -4.5t11.5 4.5t4.5 11.5v645h424v-645q0 -7 4.5 -11.5t11.5 -4.5t11.5 4.5t4.5 11.5v141h440v-141q0 -7 4.5 -11.5t11.5 -4.5t11.5 4.5t4.5 11.5v864q0 34 -23 57t-57 23zM64 848q0 20 14 34t34 14h800 q20 0 34 -14t14 -34v-187h-896v187zM960 629v-219h-440v219h440zM520 157v221h440v-221h-440zM546 779q0 7 -4.5 11.5t-11.5 4.5h-37q-7 0 -11.5 -4.5t-4.5 -11.5t4.5 -11.5t11.5 -4.5h37q7 0 11.5 5t4.5 11zM714 496h36q8 0 12 4.5t4 11.5t-4 11.5t-12 4.5h-36 q-8 0 -12 -4.5t-4 -11.5t5 -11.5t11 -4.5zM750 277h-36q-8 0 -12 -4.5t-4 -11.5t4 -11.5t12 -4.5h36q8 0 12 4.5t4 11.5t-4 11.5t-12 4.5z" />
</svg>