<svg viewBox="0 0 256 256" xmlns="http://www.w3.org/2000/svg">
  <path transform="scale(1, -1) translate(0, -256)" fill="currentColor" d="M228 251h-200q-10 0 -16.5 -6.5t-6.5 -16.5v-216q0 -3 2 -5t5 -2t5 2t2 5v158h100v-158q0 -3 2 -5t5 -2t5 2t2 5v32h104v-32q0 -3 2 -5t5 -2t5.5 2t2.5 5v216q-1 10 -7.5 16.5t-16.5 6.5zM19 228q0 4 3 6.5t6 2.5h200q4 0 7 -2.5t3 -6.5v-44h-219v44zM237 170v-49h-104 v49h104zM133 58v49h104v-49h-104zM140 211q0 3 -2.5 5t-5.5 2h-9q-3 0 -5 -2t-2 -5t2 -5t5 -2h9q3 0 5.5 2t2.5 5zM178 137h10q3 0 5 2t2 5t-2 5.5t-5 2.5h-10q-3 0 -5 -2.5t-2 -5.5t2 -5t5 -2zM188 88h-10q-3 0 -5 -2t-2 -5t2 -5t5 -2h10q3 0 5 2t2 5t-2 5t-5 2z" />
</svg>