<svg viewBox="0 0 1024 1024" xmlns="http://www.w3.org/2000/svg">
  <path transform="scale(1, -1) translate(0, -960)" fill="currentColor" d="M590 448q0 32 -23 55t-55 23t-55 -23t-23 -55t23 -55t55 -23t55 23t23 55zM466 448q0 19 13.5 32.5t32.5 13.5t32.5 -13.5t13.5 -32.5t-13.5 -32.5t-32.5 -13.5t-32.5 13.5t-13.5 32.5zM552 213q14 0 24.5 10.5t10.5 24.5v35q0 1 1 2l1 1q8 4 14.5 9.5t14.5 10.5 q1 1 3 2.5t3 3.5l42 -24q10 -6 19 -3.5t13 9.5l43 74q2 4 2.5 8t-1.5 8q-1 4 -3.5 7t-5.5 6l-45 24q1 7 1.5 13.5t0.5 13.5t-0.5 14t-1.5 13l45 26q7 3 9 11t-1 16l-0.5 1t-1.5 1l-45 75q-3 6 -10.5 8.5t-16.5 -0.5l-0.5 -0.5t-0.5 -1.5l-47 -25q-2 1 -3.5 3t-4.5 3 q-6 6 -12.5 11t-16.5 8q-1 0 -1 1v2v29q0 15 -10.5 25t-24.5 10h-80q-15 0 -25.5 -10t-10.5 -25v-30q0 -1 -0.5 -2l-0.5 -1q-9 -5 -16 -10t-13 -11q-1 -1 -3 -2.5t-3 -2.5l-42 24q-11 6 -19.5 3.5t-12.5 -9.5l-43 -74q-3 -4 -3 -8t1 -8t3.5 -7t6.5 -6l45 -24q-2 -6 -2 -13 v-14v-13.5t2 -12.5l-42 -25q-7 -4 -9.5 -11.5t1.5 -15.5v-1t2 -1l44 -75q4 -7 11.5 -9.5t16.5 1.5h0.5t0.5 1l47 26q2 -1 3.5 -2.5t2.5 -3.5q7 -6 13.5 -11t15.5 -10q1 0 1 -1v-2v-34q0 -14 10.5 -24.5t25.5 -10.5h78v0zM469 250v33q0 11 -5.5 19t-15.5 13q-6 3 -11 7t-11 9 q-3 3 -5.5 4.5t-4.5 3.5q-4 4 -8.5 5.5t-9.5 1.5q-3 0 -6.5 -1t-7.5 -3l-38 -22l-32 56l38 21q8 5 12 12.5t2 16.5v0v0q-1 6 -1 12v12v11.5t1 10.5q2 10 -2 18.5t-12 11.5l-37 21l32 56l39 -22q7 -5 15.5 -4t16.5 7q2 2 4.5 4t4.5 4q6 5 11.5 9.5t11.5 6.5q9 5 14.5 13.5 t5.5 18.5v30q0 2 1 3t3 1h80q1 0 2 -1t1 -3v-28q0 -11 5.5 -19.5t15.5 -12.5q6 -3 10 -6.5t10 -9.5q3 -3 5.5 -5t4.5 -3q7 -5 15.5 -6t16.5 2l38 23l32 -56l-36 -21q-9 -5 -12.5 -13t-2.5 -17q1 -5 1.5 -11t0.5 -13q0 -6 -0.5 -12t-1.5 -12q-1 -10 2.5 -18t12.5 -13l36 -19 l-32 -56l-38 22q-7 5 -16 4t-16 -7l-4.5 -4.5t-5.5 -3.5q-6 -5 -10 -8.5t-10 -7.5q-10 -5 -15.5 -13.5t-5.5 -18.5v-35q0 -1 -1 -2t-2 -1h-80q-3 0 -4 1t-1 4v0zM358 115q-48 22 -88 57q-39 35 -66.5 78.5t-42.5 93.5q-15 51 -15 104q0 76 28 142q28 67 77.5 116.5 t115.5 78.5t142 29l-50 -54q-5 -5 -4 -11.5t6 -10.5q2 -3 4.5 -4t6.5 -1t6.5 1t4.5 4l75 81q5 5 5 11.5t-5 11.5l-75 81q-5 5 -11 5t-11 -3q-5 -5 -5 -11.5t3 -11.5l50 -54q-82 -1 -154 -33t-126 -86t-84 -126q-31 -73 -31 -155q0 -58 16 -113q16 -54 46.5 -101.5 t72.5 -84.5q43 -38 95 -63q1 -1 3 -1h3q5 0 8.5 2.5t6.5 6.5q3 6 1 12.5t-8 8.5v0zM910 448q0 58 -16 112q-16 55 -46 102t-72 85t-94 63q-6 2 -12.5 0t-8.5 -8q-3 -6 -0.5 -12.5t8.5 -8.5q48 -23 87 -58t66.5 -78t42.5 -93q15 -51 15 -104q0 -74 -28 -140t-76 -115.5 t-113 -78.5q-64 -30 -138 -32l49 54q5 5 4.5 11.5t-5.5 10.5q-5 5 -11.5 4.5t-11.5 -5.5l-75 -82q-3 -5 -3 -11t3 -10l75 -81q3 -3 6 -4t6 -1q2 0 5 1t6 4q5 5 5 11t-4 11l-49 55q80 1 150 33q70 33 122.5 87t82.5 125q30 72 30 153v0z" />
</svg>