<svg viewBox="0 0 256 256" xmlns="http://www.w3.org/2000/svg">
  <path transform="scale(1, -1) translate(0, -256)" fill="currentColor" d="M150 128q0 9 -6.5 15.5t-15.5 6.5t-15.5 -6.5t-6.5 -15.5t6.5 -15.5t15.5 -6.5t15.5 6.5t6.5 15.5zM120 128q0 4 2 6t6 2t6 -2t2 -6t-2 -6t-6 -2t-6 2t-2 6zM138 66q5 0 8.5 3.5t3.5 8.5v8q4 2 6 4l9 -4q4 -3 7 -2t5 4l11 18q2 4 1 7t-4 5l-10 5v11l10 5q3 1 4 4t-1 6 l-11 20q-2 2 -5 3t-6 0l-10 -6l-7 6v6q0 4 -3.5 8t-8.5 4h-20q-5 0 -8.5 -3.5t-3.5 -8.5v-7q-3 -1 -7 -5l-8 5q-4 2 -7.5 1t-4.5 -4l-11 -18q-2 -3 -1 -6.5t4 -5.5l10 -5v-10l-10 -5q-3 -2 -4 -5t0 -6l12 -19q1 -3 4 -4t6 0l10 6l2 -1q3 -3 5 -4v-7q0 -5 3.5 -8.5t8.5 -3.5 h21zM113 98q-1 0 -3 2l-4 3q-2 2 -5.5 2t-5.5 -1l-7 -4l-6 9l7 3q6 4 5 11v5v6q1 3 -0.5 6t-4.5 4l-6 4l5 9l7 -4q3 -2 6 -1.5t5 2.5l8 5q3 2 4.5 5t1.5 6v6h16v-6q0 -3 2 -6t5 -4l7 -6q3 -2 6 -2t6 1l7 4l5 -9l-7 -3q-3 -2 -4.5 -5t-0.5 -6v-5v-5q-1 -4 0.5 -7t4.5 -4l7 -4 l-6 -9l-7 4q-3 2 -6 1.5t-5 -1.5l-8 -6q-3 -2 -4.5 -5t-1.5 -6v-7h-16v7q0 3 -2 6t-5 5zM91 48q-24 10 -38 32t-14 48q0 23 11 42.5t29 31.5t41 14l-8 -8q-2 -2 -1.5 -5t2.5 -5t4.5 -2t5.5 2l19 21q1 2 1 4.5t-1 4.5l-19 21q-2 2 -5 2t-5 -2t-2.5 -5t1.5 -5l8 -9 q-26 -2 -47.5 -16t-34.5 -36.5t-13 -49.5q0 -30 16.5 -55.5t43.5 -37.5q1 -1 3 -1q4 0 5.5 3.5t1 6t-3.5 4.5zM231 128q0 30 -16 55t-43 38q-3 1 -5.5 0t-4 -3.5t-0.5 -5t4 -4.5q23 -10 37 -32t14 -48q0 -23 -11 -43t-30.5 -32t-41.5 -13l7 8q2 2 2 5t-2 5t-5 2t-5 -2 l-19 -21q-2 -2 -2 -4.5t2 -4.5l19 -21q2 -2 4.5 -2t5 2t2.5 5t-2 5l-8 9q27 1 49.5 15t35.5 37t13 50z" />
</svg>