<svg viewBox="0 0 256 256" xmlns="http://www.w3.org/2000/svg">
  <path transform="scale(1, -1) translate(0, -256)" fill="currentColor" d="M154 184q-3 1 -5 -1t-2.5 -5t1.5 -5t5 -3q36 -3 60 -15t24 -27q0 -9 -11 -18t-31 -15.5t-45 -8.5q7 9 7 18.5t-10 26.5q-6 10 -13 20q-3 3 -6 3t-6 -3q-7 -10 -13 -20q-10 -17 -10 -26.5t7 -18.5q-25 2 -45 9t-31 15.5t-11 18t11 18.5t30.5 15t43.5 8q3 1 4.5 3t1.5 5 t-2.5 5t-5.5 1q-43 -4 -70 -19.5t-27 -36.5q0 -15 16.5 -28.5t44.5 -21t62 -7.5t62.5 7.5t44.5 21t16 28.5q0 21 -27 36.5t-70 19.5zM128 135q6 -9 10.5 -17.5t4.5 -11.5q0 -7 -4.5 -11.5t-10.5 -4.5t-10.5 4.5t-4.5 11.5q0 3 4.5 11.5t10.5 17.5z" />
</svg>