<svg viewBox="0 0 1024 1024" xmlns="http://www.w3.org/2000/svg">
  <path transform="scale(1, -1) translate(0, -960)" fill="currentColor" d="M614 662q-6 2 -11 -3t-6 -11t3 -11t11 -7q76 -7 140 -24t110.5 -41t72.5 -53q26 -30 26 -62q0 -35 -31 -67q-31 -31 -85 -56t-126 -41q-73 -16 -155 -20q24 13 39.5 37.5t15.5 53.5q0 39 -43 102t-49 72q-2 3 -5.5 5t-6.5 2q-4 0 -7.5 -1.5t-5.5 -5.5q-7 -9 -49 -72 t-42 -102q0 -30 15 -54t39 -37q-83 4 -156 21q-73 16 -127.5 40.5t-85.5 55.5q-31 32 -31 67q0 31 26 61q26 29 72.5 53.5t110.5 41.5t140 24q6 2 10.5 6.5t3.5 11.5q-1 6 -5.5 11t-11.5 3q-84 -7 -153 -27q-70 -20 -120 -48t-77 -63q-28 -35 -28 -74q0 -46 37 -85 q37 -40 102 -69t153 -46q87 -16 188 -16t188 16q88 17 153 46.5t102 68.5q37 40 37 85q0 39 -28 74q-27 35 -77 63t-120 48q-69 20 -153 27v0zM440 358q0 21 24 62.5t48 75.5q24 -34 48 -75.5t24 -62.5q0 -30 -21 -51t-51 -21t-51 21t-21 51z" />
</svg>