<svg viewBox="0 0 256 256" xmlns="http://www.w3.org/2000/svg">
  <path transform="scale(1, -1) translate(0, -256)" fill="currentColor" d="M192 212h-12v6q0 4 -3 7.5t-8 3.5h-34v15q0 3 -2 5t-5 2t-5 -2t-2 -5v-16h-34q-4 0 -7.5 -3t-3.5 -8v-5h-12q-10 0 -17 -7t-7 -17v-160q0 -9 7 -16t17 -7h128q10 0 17 7t7 16v160q0 10 -7 17t-17 7zM90 214h76v-19h-76v19zM202 28q0 -3 -3 -6t-7 -3h-128q-4 0 -7 2.5 t-3 6.5v160q0 4 3 7t7 3h12v-6q0 -4 3 -7.5t8 -3.5h82q5 0 8 3.5t3 7.5v6h12q4 0 7 -3t3 -7v-160zM154 89l-33 -33l-11 10q-2 3 -5 3t-5 -2.5t-2 -5t2 -5.5l16 -16q2 -2 5 -2t5 2l38 38q2 3 2 5.5t-2.5 5t-5 2.5t-4.5 -2zM159 158h-62q-3 0 -5 -2t-2 -5t2 -5t5 -2h62 q3 0 5 2t2 5t-2 5t-5 2zM159 123h-62q-3 0 -5 -2t-2 -5t2 -5t5 -2h62q3 0 5 2t2 5t-2 5t-5 2z" />
</svg>