<svg viewBox="0 0 1024 1024" xmlns="http://www.w3.org/2000/svg">
  <path transform="scale(1, -1) translate(0, -960)" fill="currentColor" d="M768 771h-59v35q0 14 -9.5 23t-22.5 9h-149v3v2v69q0 7 -4.5 11.5t-11.5 4.5t-11.5 -4.5t-4.5 -11.5v-69v-2.5t2 -3.5h-149q-13 0 -22.5 -9.5t-9.5 -22.5v-34h-61q-34 0 -58 -24t-24 -57v-640q0 -34 24 -58t58 -24h512q34 0 58 24t24 58v640q0 33 -24 57t-58 24v0z M349 806h328v-100h-328v100v0zM818 50q0 -21 -15 -35.5t-35 -14.5h-512q-20 0 -35 14.5t-15 35.5v640q0 20 15 34.5t35 14.5h59v-33q0 -14 9.5 -23t22.5 -9h328q13 0 22.5 9t9.5 23v33h61q20 0 35 -14.5t15 -34.5v-640zM624 283l-141 -141l-53 53q-4 5 -10.5 5t-11.5 -5 t-5 -11t5 -11l64 -64q2 -3 5 -4t6 -1q4 0 6.5 1t4.5 4l152 152q5 5 5 11t-5 11q-4 5 -10.5 4.5t-11.5 -4.5zM637 557h-250q-7 0 -11.5 -4.5t-4.5 -11.5t4.5 -11.5t11.5 -4.5h248q7 0 11.5 4.5t4.5 11.5t-4 11.5t-10 4.5zM637 416h-250q-7 0 -11.5 -4.5t-4.5 -11.5t4.5 -11.5 t11.5 -4.5h248q7 0 11.5 4.5t4.5 11.5t-4 11.5t-10 4.5z" />
</svg>