<svg viewBox="0 0 1024 1024" xmlns="http://www.w3.org/2000/svg">
  <path transform="scale(1, -1) translate(0, -960)" fill="currentColor" d="M768 771h-59v35q0 14 -9.5 23t-22.5 9h-149v74q0 7 -4.5 11.5t-11.5 4.5t-11.5 -4.5t-4.5 -11.5v-74h-147q-13 0 -22.5 -9t-9.5 -23v-33h-61q-34 0 -58 -24t-24 -58v-640q0 -33 24 -57t58 -24h512q34 0 58 24t24 57v640q0 33 -24 56.5t-58 23.5zM349 806h328v-100h-328 v100v0zM818 50q0 -21 -15 -35.5t-35 -14.5h-512q-20 0 -35 14.5t-15 35.5v640q0 20 15 34.5t35 14.5h59v-33q0 -14 9.5 -23t22.5 -9h328q13 0 22.5 9t9.5 23v33h61q20 0 35 -14.5t15 -34.5v-640zM611 373h-83v86q0 7 -4.5 11.5t-11.5 4.5t-11.5 -4.5t-4.5 -11.5v-86h-83 q-7 0 -11.5 -4.5t-4.5 -11.5t4.5 -11.5t11.5 -4.5h83v-87q0 -7 4.5 -11.5t11.5 -4.5t11.5 4.5t4.5 11.5v87h83q7 0 11.5 4.5t4.5 11.5t-4.5 11.5t-11.5 4.5z" />
</svg>