<svg viewBox="0 0 1024 1024" xmlns="http://www.w3.org/2000/svg">
  <path transform="scale(1, -1) translate(0, -960)" fill="currentColor" d="M982 699l-89 181q-11 22 -31 33.5t-43 11.5h-613q-24 0 -43 -12.5t-30 -32.5l-91 -181q-10 -19 -9 -41t13 -40l391 -608q11 -18 29.5 -28.5t39.5 -10.5v0v0q20 0 38 10t30 27l405 608q12 19 13 41.5t-10 41.5v0zM864 866l91 -181v0v0l1.5 -4.5t1.5 -3.5h-272l-64 216h196 q14 0 26.5 -7t19.5 -20v0zM504 82l-149 563h306l-157 -563v0zM589 893l64 -216h-296l64 216h168zM162 866q6 13 18 20t26 7h181l-64 -216h-256q1 2 1.5 3.5l1.5 4.5zM547 26q-7 -11 -18 -17t-23 -6v0v0q-14 0 -25 6t-17 18l-390 608q-2 3 -3 5.5t-2 5.5h254l167 -630 q0 -1 0.5 -1.5t0.5 -1.5v-0.5v-1.5q1 -2 3.5 -4t6.5 -2v0v0h2h1v0v0v0v0v0v0v0v0h2h1v0v0q3 1 5 2.5t5 3.5v0.5v1.5t0.5 1.5t0.5 1.5l175 629h262l-2 -6t-3 -5l-403 -608v0z" />
</svg>