<svg viewBox="0 0 1024 1024" xmlns="http://www.w3.org/2000/svg">
  <path transform="scale(1, -1) translate(0, -960)" fill="currentColor" d="M987 570l-144 329q-3 9 -10 15.5t-15 10.5l-3 1.5t-2 1.5h-4.5h-3.5h-2.5h-2.5h-576q-14 0 -25.5 -8t-17.5 -21l-144 -329q-5 -12 -3.5 -25.5t9.5 -24.5l432 -531q6 -11 15.5 -16t21.5 -5v0v0v0v0v0v0q11 0 21 5t17 14l434 533q7 11 8 24.5t-5 25.5v0zM958 557 q2 -3 2 -4.5v-3.5h-258l112 336zM512 38l-147 479h294zM678 576l-150 320h258zM656 549h-288l144 307zM496 896l-152 -323l-122 323h1h1h272zM200 862l120 -313h-256v3.5t2 4.5zM85 517h246l151 -488l-397 488v0zM542 29l151 488h245l-396 -488v0z" />
</svg>