<svg viewBox="0 0 256 256" xmlns="http://www.w3.org/2000/svg">
  <path transform="scale(1, -1) translate(0, -256)" fill="currentColor" d="M81 162q-20 0 -38 -10.5t-28 -28t-10 -38t10 -38.5t28 -28t38.5 -10t38 10t28 28t10.5 38.5t-10.5 38t-28 28t-38.5 10.5zM81 23q-17 0 -31 8.5t-22.5 23t-8.5 31.5t8.5 31t22.5 22.5t31 8.5t31.5 -8.5t23 -22.5t8.5 -31t-8.5 -31.5t-23 -23t-31.5 -8.5zM238 198 q0 19 -12.5 31.5t-31 12.5t-31.5 -12.5t-13 -31t13 -31.5t31.5 -13t31 13t12.5 31zM164 198q0 13 9 21.5t21.5 8.5t21 -8.5t8.5 -21t-8.5 -21.5t-21 -9t-21.5 9t-9 21zM16 161q3 0 5.5 2t2.5 5v58q0 3 2 5t4 2h62q3 0 5 2t2 5t-2 5t-5 2h-62q-8 0 -14 -6t-6 -15v-58 q0 -3 2 -5t4 -2zM244 121q-3 0 -5 -2t-2 -5v-60q0 -3 -2 -5t-5 -2h-57q-3 0 -5 -2t-2 -5t2 -5.5t5 -2.5h57q9 0 15 6.5t6 14.5v60q0 4 -2 6t-5 2zM115 102q0 8 -6 14t-14 8v3q0 3 -2 5t-5 2t-5 -2t-2 -5v-3h-7v3q0 3 -2 5t-5 2t-5 -2t-2 -5v-3h-5q-3 0 -5 -2t-2 -4.5 t1.5 -4.5t3.5 -3v-49q-3 -1 -4 -3t-1 -4.5t2 -4.5t5 -2h6v-3q0 -3 2 -5.5t5 -2.5t5 2.5t2 5.5v3h7v-3q0 -3 2 -5.5t5 -2.5t5 2.5t2 5.5v3q8 2 14 8t6 15v1q0 8 -6 15q5 6 6 14q-1 0 -1 2zM101 101v-1q0 -3 -2.5 -5.5t-6.5 -2.5h-25v18h24q4 0 7 -2.5t3 -6.5zM101 70 q0 -4 -3 -6.5t-7 -2.5h-24v17h25q4 0 6.5 -2t2.5 -5v-1z" />
</svg>