<svg viewBox="0 0 1024 1024" xmlns="http://www.w3.org/2000/svg">
  <path transform="scale(1, -1) translate(0, -960)" fill="currentColor" d="M325 571q-61 0 -114 -23t-93 -63t-63 -94t-23 -114q0 -61 23 -114t63 -93t93 -63t114 -23q60 0 114 23q53 23 93 63t63 93t23 114q0 60 -23 114t-63 94t-93 63q-54 23 -114 23v0zM325 16q-54 0 -102 20q-47 21 -82.5 56.5t-55.5 82.5q-21 48 -21 102t20 101 q21 48 56.5 83.5t82.5 55.5q48 21 102 21t101 -21q48 -20 83.5 -55.5t55.5 -83.5q21 -47 21 -101t-21 -102q-20 -47 -55.5 -82.5t-83.5 -56.5q-47 -20 -101 -20zM941 730q0 68 -48.5 116t-116.5 48t-116.5 -48t-48.5 -116q0 -69 48.5 -117t116.5 -48t116.5 48t48.5 117v0z M645 730q0 55 38.5 93.5t94.5 38.5q55 0 93.5 -38.5t38.5 -93.5q0 -56 -38.5 -94.5t-93.5 -38.5q-56 0 -94.5 38.5t-38.5 94.5v0zM66 590q7 0 11.5 4.5t4.5 11.5v234q0 17 11.5 28.5t28.5 11.5h246q7 0 11.5 4.5t4.5 11.5t-4.5 11.5t-11.5 4.5h-246q-30 0 -51 -21t-21 -51 v-234q0 -6 5 -11t11 -5zM976 408q-7 0 -11.5 -4.5t-4.5 -11.5v-240q0 -17 -11.5 -28.5t-28.5 -11.5h-227q-7 0 -11.5 -4.5t-4.5 -11.5t4.5 -11.5t11.5 -4.5h229q30 0 51 21t21 51v240q-2 7 -6.5 11.5t-11.5 4.5v0zM448 336v2.5v2.5q-1 31 -24.5 54t-55.5 24v24 q0 7 -4.5 11.5t-11.5 4.5t-11.5 -4.5t-4.5 -11.5v-24h-50v24q0 7 -4 11.5t-12 4.5q-7 0 -11.5 -4.5t-4.5 -11.5v-24h-35q-7 0 -11.5 -4.5t-4.5 -11.5t4.5 -11.5t11.5 -4.5h5v-221h-5q-7 0 -11.5 -4t-4.5 -12q0 -7 4.5 -11.5t11.5 -4.5h35v-25q0 -7 4.5 -11.5t11.5 -4.5 q8 0 12 4.5t4 11.5v25h50v-25q0 -7 4.5 -11.5t11.5 -4.5t11.5 4.5t4.5 11.5v25q32 2 55.5 25t24.5 54v3v3q-1 18 -9.5 33t-22.5 25q14 11 23 26t9 33v0zM416 341v-1.5v-1.5q0 -18 -14.5 -31t-33.5 -13h-112v95h109q20 0 35.5 -14t15.5 -34v0zM368 262q19 0 32.5 -12.5 t13.5 -30.5v-2v-1v0v0q-1 -20 -16 -34t-36 -14h-106v94h112v0z" />
</svg>