<svg viewBox="0 0 1024 1024" xmlns="http://www.w3.org/2000/svg">
  <path transform="scale(1, -1) translate(0, -960)" fill="currentColor" d="M984 606q-17 56 -48 105q-30 50 -70.5 90t-89.5 71q-50 30 -106 48q-127 40 -246 16q-118 -23 -208.5 -91t-145.5 -171q-54 -104 -54 -226h192q0 76 35 141t93.5 106.5t133.5 53.5q75 13 156 -16q58 -22 103.5 -67.5t67.5 -103.5q29 -81 16 -156q-12 -75 -53.5 -133.5 t-106.5 -93.5t-141 -35v192h-192v-192h192v-192q122 0 226 54q103 55 171 145.5t91 208.5q24 119 -16 246zM174 267h-124v-123h124v-147h146v147h-146v123z" />
</svg>