<svg viewBox="0 0 256 256" xmlns="http://www.w3.org/2000/svg">
  <path transform="scale(1, -1) translate(0, -256)" fill="currentColor" d="M98 126q8 0 11 4t3 8.5t-4 8t-10 3.5h-11v0h2q1 -1 1 -3v-17q0 -2 -2 -2l-1 -1h5q2 -1 6 -1zM94 150h3q5 0 8 -3t3 -8t-2.5 -8t-7 -3t-4.5 2v20zM121 126v1h-1q-2 0 -2 1v13v0l-4 -1l1 -1v-11q0 -1 -1 -1h-1h4q1 -1 4 -1zM117 148q1 0 1 1.5t-1.5 1.5t-1.5 -1.5t2 -1.5z M139 128h-1q-1 0 -1 1v9q0 5 -3 5t-7 -2l-1 -1v3v0l-4 -1v-1q1 0 1 -2v-9q0 -2 -1 -2h-1h8v0h-1q-2 0 -2 2v10l4 2q3 0 3 -3v-9q0 -2 -1 -2h-1h7h1zM146 126q2 0 6 4v1q-2 -3 -4.5 -3t-4 2t-1.5 5v1h10v1q0 3 -1.5 4.5t-4 1.5t-4.5 -2t-2 -7q-1 -3 0.5 -5.5t5.5 -2.5z M146 141q1 0 2 -1t1 -2h-1h-6q0 3 4 3zM161 126v1h-1q-2 0 -2 1v8q0 1 1 2t2 1l2 -1q2 0 2 2t-1.5 2t-3.5 -2l-1 -2v3l-1 1q-1 0 -5 -2l1 -1q1 0 1 -1v-10q0 -1 -2 -1v0zM170 127q-3 0 -4 5v0v-4l4 -2q6 0 6 4t-4 5.5t-4 3.5t3 2t4 -3v0v3l-4 1q-3 0 -4.5 -1t-1.5 -3.5 t4 -4.5t4 -3t-0.5 -2t-2.5 -1zM206 128l1 5h-1q0 -2 -2 -4t-5.5 -2t-6.5 3.5t-3 9t3 8t6 2.5q7 0 8 -6h1l-1 6q-2 2 -7.5 2t-9 -3.5t-3.5 -9t3.5 -9t8 -4t8.5 1.5zM216 126v1v0q-2 0 -2 1v24v1l-4 -2l1 -1l1 -21q0 -1 -2 -1v-1h4q0 -1 2 -1zM218 139v-9q0 -5 3.5 -5t6.5 3 v-3l5 1v2h-1h-2v13v1l-6 -1v0h1q2 -1 2 -2v-9q-2 -2 -4.5 -2t-2.5 4v10v1l-5 -1v0q3 -1 3 -3zM235 148v-15v-6v-1l1 1q2 -1 5.5 -1t5.5 2.5t2 6t-2 5.5t-5 2t-5 -2v12l-1 1l-3 -2v0q2 -1 2 -3zM238 139q2 1 3.5 1t3.5 -2t2 -4.5t-1.5 -4.5t-3.5 -2t-3 1t-1 2v9zM90 119h-2 v-1q1 0 1 -1v-10q0 -1 -1 -1v0h5v0q-1 0 -1 1v10q0 1 1 1v1h-3zM107 119h-3l1 -1q1 0 1 -1v-7l-8 10h-4v-1q2 0 2 -1v-8q0 -3 -2 -3v0v-1h5h-1q-1 0 -1 1v10l10 -11v12l2 1h-2zM122 120v0h-10v0l-1 -3h1v1h4v-10v-1l-2 -1h6v0q-2 0 -2 2v10h2q1 0 1 -2l1 1v3v0zM134 109 l-2 -2h-2q-3 0 -3 1v4h3q1 0 1 -1h1v5v0q0 -2 -2 -2h-2v4h4l2 -2v3h-9v-1h-1q1 0 1 -1v-10q0 -1 -1 -1v0h10v2v1zM146 108l-2 4q2 1 2 4t-4 3h-6l1 -1q1 0 1 -1v-10h-1h-1v-1h6v0q-2 0 -2 2v4h1q2 -4 4 -6h3v0q-1 0 -1 1zM140 112v0v6h1q3 0 2.5 -3t-3.5 -3zM164 119v0h-5v0 q2 0 2 -2v-7l-8 10h-4v0q2 0 2 -2v-8q0 -2 -2 -2v0v-2h5v0q-2 0 -2 1v10l10 -11v10q0 3 2 3zM176 108v1l-4 11h-2l-3 -12h-2v-1h4v1h-1h-1l1 3h4l1 -3q0 -1 -1 -1v0h6h-1q-1 -1 -1 1zM168 111l2 5l2 -5h-4zM188 120v0h-10v0l-1 -3h1v1h4v-10v-1l-2 -1h6h-1q-1 0 -1 2v10h2 q2 0 2 -2v1v3zM192 119h-2v-1q1 0 1 -1v-10q0 -1 -1 -1v0h5v0q-1 0 -1 1v10q0 1 1 1h1v1h-4zM203 119q-3 0 -5 -2t-2 -5t2 -4.5t5 -1.5t5 2t2 5t-2 4.5t-5 1.5zM203 106q-5 0 -5 6.5t5 6.5q2 0 3 -2t1 -4q1 -7 -4 -7zM226 119v0h-5v0q2 0 2 -2v-7l-8 10h-4v0h1q2 0 2 -2v-8 q0 -2 -2 -2v0v-2h5v0l-2 1l-1 9l10 -11v10q0 4 2 4zM238 108v1l-4 11h-2l-3 -12h-1v-1h4l-1 1h-1l1 3h4l1 -3q0 -1 -1 -1h-1h6v0h-2v1zM230 111l2 5l1 -5h-3zM250 109l-1 -1v0l-1 -2h-3q-1 0 -1 2v9q0 1 1 1v0h-5v0q1 0 1 -2v-9q0 -1 -1 -1v-1h10v4v0zM250 120q-1 0 -1 -1.5 t1.5 -1.5t1.5 1.5t-2 1.5zM250 116q-1 0 -1 1.5t1.5 1.5t1.5 -1.5t-2 -1.5zM250 118h1h-2h1v-2h-1h1l-1 1h1q0 -1 1 -1v0zM250 118v0v0zM44 146v-35q6 2 9 7t3.5 10.5t-3.5 10.5t-9 7zM18 128q0 -6 3.5 -10.5t8.5 -7.5v36q-5 -2 -8.5 -7t-3.5 -11zM46 161h-9 q-14 0 -23.5 -9.5t-9.5 -23.5t10 -23.5t23 -9.5h9q13 0 23.5 9.5t10.5 23.5t-10 23.5t-24 9.5zM37 98q-12 0 -21 9t-9 21.5t9 21.5t21.5 9t21.5 -9t9 -21.5t-9 -21.5t-22 -9z" />
</svg>