<svg viewBox="0 0 1024 1024" xmlns="http://www.w3.org/2000/svg">
  <path transform="scale(1, -1) translate(0, -960)" fill="currentColor" d="M390 442q38 0 47 18.5t9 29.5q0 19 -14.5 33.5t-41.5 14.5h-13.5h-10.5h-8h-9v-2q5 0 8 -1.5t3 -9.5v-67q0 -8 -3 -9t-8 -3v-1h9h8q8 -3 14 -3h10v0zM376 534h3.5h7.5q21 0 32 -12t11 -32q0 -16 -8.5 -30t-31.5 -14q-4 0 -8 2t-4 10v76h-2zM483 442v1h-3q-4 0 -5 0.5 t-1 4.5v51q0 1 -0.5 1.5t-1.5 0.5h-2l-4 -1.5t-12 -3.5v0q4 -1 5.5 -2.5t1.5 -7.5v-36q0 -4 -1.5 -4.5t-5.5 -0.5h-1v-2h7.5h8.5q2 -1 6.5 -1h7.5v0zM467 528q1 0 4 1.5t3 4.5q0 2 -1.5 4.5t-5.5 2.5q-1 0 -3.5 -1.5t-2.5 -5.5q0 -3 2 -4.5t4 -1.5zM555 446h-1q-4 0 -5.5 1 t-1.5 4v37q0 8 -3.5 14.5t-12.5 6.5q-7 0 -12.5 -3.5t-12.5 -7.5v9q0 1 -0.5 1.5t-1.5 0.5q-5 -1 -9.5 -3t-8.5 -4v-1q5 -1 6 -3.5t1 -6.5v-37q0 -3 -1.5 -3.5t-5.5 -0.5h-1v-2h7h9h7h9v2h-5q-4 0 -5 0.5t-1 3.5v42q3 1 7.5 3.5t8.5 2.5t7.5 -3t3.5 -8v-37q0 -3 -1.5 -3.5 t-5.5 -0.5h-1v-2h7h9h6.5h6.5l1 -2v0zM582 442q9 0 14.5 4t13.5 12l-2 1q-4 -3 -8.5 -6t-9.5 -3q-8 0 -14 7t-6 18v5.5v1.5h38l2 1v1.5v0.5q0 12 -7 17t-16 5q-7 0 -17 -7t-10 -30q-4 -7 1 -17.5t21 -10.5zM584 501q5 0 8 -4t3 -7v-2h-1h-24q-2 6 2.5 9.5t11.5 3.5zM645 442 v1h-7q-3 0 -4.5 0.5t-1.5 4.5v32q0 5 4 8t7 3q4 0 5 -0.5t5 -0.5q3 0 4.5 1t1.5 5t-2.5 5t-3.5 1q-5 0 -9.5 -5t-8.5 -7v0v11v1h-1q-2 0 -7.5 -1t-13.5 -5v-2q1 -1 3.5 -1.5t2.5 -4.5v-38q0 -4 -1.5 -4.5t-4.5 -0.5h-2v-2h8.5h9.5q3 -1 7 -1h9v0zM682 445q-9 0 -13 4.5 t-5 12.5h-2l2 -16q4 -1 8.5 -2.5t9.5 -1.5q13 0 17.5 5.5t4.5 11.5q0 17 -16 19t-16 13q0 5 3 7.5t8 2.5q7 0 10.5 -3.5t5.5 -9.5h2l-2 13q-3 1 -7.5 3t-8.5 2q-12 0 -17 -6t-5 -12q0 -17 16 -19.5t16 -14.5q0 -2 -3.5 -5.5t-7.5 -3.5v0zM826 446l1 21l-1 2q-2 -10 -9.5 -17 t-18.5 -7q-16 0 -29.5 13.5t-13.5 34.5q0 25 13.5 34t25.5 9t19.5 -5t8.5 -17h5l-1 20q-5 5 -13.5 7.5t-18.5 2.5q-21 0 -36.5 -14t-15.5 -36q0 -24 14.5 -37.5t37.5 -13.5q8 -1 18 0.5t14 2.5v0zM864 442v1h-2q-3 0 -4.5 0.5t-1.5 4.5v98v1h-2h-0.5t-0.5 -1q-1 -2 -6 -4 t-7 -3v0q4 -1 5 -2.5t1 -8.5v-77q0 -3 -1 -4t-5 -1h-2v-1h8.5h7.5q0 -3 3 -3h7zM872 491v-37q0 -8 4.5 -12.5t11.5 -4.5t13 3t11 8v-11q1 1 8 1.5t13 3.5v6h-3h-4h-2.5t-1.5 2v51q0 1 -0.5 1h-1.5t-7 -0.5t-15 -0.5v-2q3 -1 7 -2t4 -4v-37q-5 -4 -9 -5t-9 -1q-8 0 -9.5 6 t-1.5 10v36v3.5t-2 1.5q-1 0 -6.5 -0.5t-10.5 -0.5v-2q8 -2 9.5 -5.5t1.5 -7.5v0zM941 528v-61q0 -5 -0.5 -12t-1.5 -12l2 -1l5 1q1 -1 6 -3t11 -2q16 0 24 11.5t8 25.5q0 12 -7 20.5t-20 8.5q-5 0 -11 -3t-10 -7v52v1h-1h-1t-1 -1q-1 -2 -5.5 -4t-7.5 -3v0q4 -1 7 -2.5 t3 -8.5v0zM952 491q1 1 4.5 4t8.5 3q8 0 15 -8t7 -20q0 -8 -5 -17.5t-17 -9.5q-7 0 -10 5.5t-3 7.5v35v0zM362 411h-5h-7v0v-1h2q1 0 3 -1t2 -4v-40q0 -1 -1.5 -3t-3.5 -2h-2v-2h5h7h5h6v0v2h-2q-1 0 -3 0.5t-2 4.5v40q0 1 1.5 3t3.5 2h2v1q-3 1 -6 0.5t-5 -0.5zM429 411 h-4.5h-6.5v0v-1h1q1 0 4 -1t3 -6v-27l-32 38h-4h-3h-4h-5v0v-1h-2q1 0 3.5 -1.5t2.5 -5.5v-32q0 -4 -1 -6.5t-5 -2.5h-2v-5h5h7h4h5v0v2h-1q-5 0 -6 1.5t-1 7.5v32l39 -43h1v3v3v34q0 7 1.5 8.5t5.5 1.5h1v1q0 1 -2.5 0.5t-3.5 -0.5zM490 416v0q0 -1 -1 -1.5l-1 -0.5h-38 q-2 0 -2 0.5v1.5v0h-2v-3v-3v-4t-1 -3v0h1q2 5 2.5 6t4.5 1h11v-42q0 -5 -1.5 -5.5t-4.5 -0.5h-2v-2h4.5h6.5h7.5h5.5v0v2h-2q-1 0 -3.5 0.5t-2.5 5.5v40h8q4 0 4.5 -2.5t0.5 -3.5v0l1 1v3v4q0 1 0.5 3t1.5 3v0h2zM534 373v0q-1 -7 -4.5 -8.5t-11.5 -1.5q-3 0 -6 0.5t-3 4.5 v18h9q4 0 5 -1.5t2 -5.5v0h3v4v6v4v5v0h-2q0 -3 -1 -4.5t-5 -1.5h-8v18h11q5 0 6 -2l4 -8v0h1v3v3v2.5v2.5v0v0h-7.5h-9.5h-9.5h-8.5v0v-1h-3q1 0 3 -1t2 -4v-40q0 -1 -1.5 -3t-3.5 -2h-2v-2h9.5h11.5h11h10v0v0q0 4 1 6t1 6v0l-4 3v0zM586 368l-12 18q5 1 8.5 4.5t3.5 7.5 q0 9 -6 11t-12 2h-6h-5h-7h-4v0v-1h1q1 0 3 -1t2 -6v-38q0 -1 -1 -1.5t-4 -0.5h-1v-5h4h7h6.5h4.5v0v2h-2q-1 0 -3.5 1t-2.5 5v16h5q3 -7 7 -13t9 -11h3h3h3h4v0v2q-4 1 -5 2.5t-3 5.5v0zM562 386h-2v22h1.5h3.5q5 0 8 -3t3 -8q-2 -5 -6 -8t-8 -3v0zM656 411v2h-4h-6h-4h-7 v0v-2h2q1 0 3.5 -0.5t2.5 -5.5v-27l-32 38h-3h-3h-4h-6v0v-2h2q1 0 3.5 -1t2.5 -5v-32q0 -5 -1.5 -7.5t-4.5 -2.5h-2v-6h4.5h6.5h5h5v0v2h-2q-4 0 -5 1.5t-1 7.5v32l38 -43h2v3v3v34q0 6 2 8.5t6 2.5v0v0zM704 366q-1 2 -1.5 4t-0.5 3l-14 40v3v0h-2v0q-1 -1 -3 -1.5 t-3 -0.5q0 -1 -1 -4t-1 -5l-11 -34q-1 -1 -2 -3t-4 -2v0v0v-1h3.5h2.5h4h6v0v1h-5q-1 0 -3 0.5t-2 1.5t1 2t1 4l1 7h18l2 -10q1 -1 1 -3v-2q0 -1 -1 -1h-4h2v-2h4.5h6.5h6h5v0v2h-1q-3 -3 -4 -2t-1 3v0zM674 381l6 21l6 -21h-12zM754 416v0q0 -1 -1 -1.5l-1 -0.5h-38 q-2 0 -2 0.5v1.5v0h-2v-3v-3v-4t-1 -3v0h1q2 5 2.5 6t4.5 1h11v-42q0 -5 -1.5 -5.5t-4.5 -0.5h-2v-2h4.5h6.5h7h4v0v2h-1q-1 0 -4 0.5t-3 5.5v40h12q3 0 3.5 -2.5t0.5 -3.5v0l2 1v3v4v3t2 3v0v0v0zM770 411h-5h-7v0v-1h2q1 0 3 -1t2 -4v-40q0 -1 -1.5 -3t-3.5 -2h-2v-2h5h7 h5h6v0v2h-2q-1 0 -3 0.5t-2 4.5v40q0 1 1.5 3t3.5 2h5v1q-5 1 -9 0.5t-5 -0.5zM811 413q-12 0 -19.5 -7.5t-7.5 -19.5q0 -14 7.5 -21t19.5 -7t20.5 8t8.5 21q1 13 -8 19.5t-21 6.5v0zM811 362q-8 0 -12.5 7.5t-4.5 19.5q0 7 2.5 14.5t14.5 7.5q9 0 13.5 -7t4.5 -17 q1 -9 -2.5 -17t-15.5 -8zM904 411v2h-4h-6h-4h-7v0v-2h2q1 0 3.5 -0.5t2.5 -5.5v-27l-32 38h-3h-3h-4h-6v0v-2h5q1 0 3.5 -1t2.5 -5v-32q0 -5 -1 -7.5t-5 -2.5h-2v-6h5h7h4h5v0v2h-3q-5 0 -5.5 1t-0.5 5v32l38 -43h2v3v3v34q-2 8 0 11t6 3v0v0v0zM952 366q-1 2 -1.5 4 t-0.5 3l-12 40v3h-0.5h-1.5v0q-1 -1 -3 -1.5t-3 -0.5q0 -1 -1 -4t-1 -5l-11 -34q-1 -1 -2 -3t-5 -2v0v0v-1h4.5h2.5h4h5v0v1h-1q-1 0 -3 0.5t-2 1.5t1 2t1 4l1 7h18l1 -10q2 -1 2 -3v-2q0 -1 -1 -1h-4h-1v-2h4h7h5h6v0v2q-6 -3 -7 -2t-1 3v0zM920 381l6 21l7 -21h-13z M998 373v0q0 -1 -0.5 -3t-0.5 -4q-1 -1 -3 -1.5t-4 -2.5h-3h-3h-1.5h-3.5q-1 0 -3 1t-2 3v39q0 1 1.5 1h3.5h2v2h-6h-5h-6h-6v0v-2h2q1 0 3 -0.5t2 -3.5v-39q0 -3 -1.5 -4t-3.5 -1h-2v-1h10h11h10h11v0v0q1 3 1.5 6.5t0.5 4.5v0v0v5h-4v0zM1002 416q-4 0 -5.5 -1.5 t-1.5 -4.5q0 -4 1.5 -5.5t5.5 -1.5q3 0 4.5 1.5t1.5 5.5q0 2 -1.5 4t-4.5 2zM1002 400q-2 0 -4.5 1.5t-2.5 4.5q0 4 1.5 5.5t5.5 1.5q3 0 4.5 -1.5t1.5 -5.5q0 -3 -2.5 -4.5t-3.5 -1.5zM1002 406q1 0 1 1v1q0 1 -0.5 1.5l-0.5 0.5h-5q1 0 1 -0.5v-1.5v-6v0h-1v0h1h-1v0v1h5 v-3t1 -2h2l-2 2l-1 6v0zM1002 406v0l-2 2h2v2v-4v0zM176 522v-143q22 9 36 28t14 44q1 22 -13.5 42t-36.5 29zM72 450q0 -24 14 -44t36 -28v142q-22 -7 -36 -27.5t-14 -42.5zM182 579h-33q-54 0 -93.5 -37t-39.5 -96q0 -54 39.5 -92.5t93.5 -38.5h33q54 0 96 38.5t42 92.5 q0 60 -40.5 96.5t-97.5 36.5zM149 328q-51 0 -86.5 35.5t-35.5 86.5q0 50 35.5 85.5t86.5 35.5q50 0 85.5 -35.5t35.5 -85.5q0 -51 -35.5 -86.5t-85.5 -35.5v0z" />
</svg>