<svg viewBox="0 0 1024 1024" xmlns="http://www.w3.org/2000/svg">
  <path transform="scale(1, -1) translate(0, -960)" fill="currentColor" d="M290 414h-226v340q0 7 -4.5 11.5t-11.5 4.5t-11.5 -4.5t-4.5 -11.5v-612q0 -7 4.5 -11.5t11.5 -4.5t11.5 4.5t4.5 11.5v240h226q6 0 10 -4t4 -10v-226q0 -7 4.5 -11.5t11.5 -4.5t11.5 4.5t4.5 11.5v226q0 19 -13.5 32.5t-32.5 13.5v0zM976 770q-7 0 -11.5 -4.5 t-4.5 -11.5v-340h-226q-19 0 -32.5 -13.5t-13.5 -32.5v-226q0 -7 4.5 -11.5t11.5 -4.5t11.5 4.5t4.5 11.5v226q0 6 4 10t10 4h226v-240q0 -7 4.5 -11.5t11.5 -4.5t11.5 4.5t4.5 11.5v612q0 6 -4.5 11t-11.5 5zM560 158h-32v389h176q7 0 11.5 4.5t4.5 11.5t-4.5 11.5 t-11.5 4.5h-384q-7 0 -11.5 -4.5t-4.5 -11.5t4.5 -11.5t11.5 -4.5h176v-389h-32q-7 0 -11.5 -4t-4.5 -12q0 -7 4.5 -11.5t11.5 -4.5h96q7 0 11.5 4.5t4.5 11.5q0 8 -5 12t-11 4z" />
</svg>