<svg viewBox="0 0 256 256" xmlns="http://www.w3.org/2000/svg">
  <path transform="scale(1, -1) translate(0, -256)" fill="currentColor" d="M187 251h-13q-6 0 -9.5 -4t-3.5 -9v-215q0 -7 5.5 -12.5t12.5 -5.5h12q7 0 12.5 5.5t5.5 12.5v85h9q5 0 8.5 4t3.5 9v86q0 18 -12.5 31t-30.5 13zM191 19h-12q-2 0 -3 1t-1 3v85h20v-84q0 -2 -1 -3.5t-3 -1.5zM216 122h-42v115h12q13 0 21.5 -9t8.5 -21v-85zM106 250 q-3 0 -5.5 -2t-2.5 -5v-61h-22v61q0 3 -2 5t-5 2t-5 -2t-2 -5v-61h-22v61q0 3 -2.5 5t-5 2t-4.5 -2t-2 -5v-102q0 -4 3 -7t7 -3h9v-107q0 -8 5.5 -13.5t13.5 -5.5h11q7 0 12.5 5.5t5.5 13.5v106h9q5 0 8 3t3 8v102q-1 3 -3 5t-4 2zM79 23q0 -2 -1 -3t-3 -1h-11q-2 0 -3.5 1 t-1.5 3v107h20v-107zM40 144v24h59v-24h-59z" />
</svg>