<svg viewBox="0 0 256 256" xmlns="http://www.w3.org/2000/svg">
  <path transform="scale(1, -1) translate(0, -256)" fill="currentColor" d="M72 123h-53v81q0 3 -2 5.5t-5 2.5t-5 -2.5t-2 -5.5v-152q0 -3 2 -5.5t5 -2.5t5 2.5t2 5.5v57h53q1 0 1 -1v-56q0 -3 2 -5.5t5 -2.5t5.5 2.5t2.5 5.5v56q-1 6 -5.5 10.5t-10.5 4.5zM244 211q-3 0 -5 -2t-2 -5v-82h-53q-6 0 -10.5 -4t-4.5 -10v-57q0 -3 2 -5t5 -2t5 2t2 5 v57q0 1 1 1h53v-57q0 -3 2 -5.5t5 -2.5t5.5 2.5t2.5 5.5v152q-1 3 -3 5t-5 2zM140 59h-5v91h41q3 0 5 2t2 5t-2 5t-5 2h-96q-3 0 -5 -2t-2 -5t2 -5t5 -2h41v-92h-5q-3 0 -5 -2t-2 -5t2 -5t5 -2h24q3 0 5 2t2 5t-2 5.5t-5 2.5z" />
</svg>