<svg viewBox="0 0 1024 1024" xmlns="http://www.w3.org/2000/svg">
  <path transform="scale(1, -1) translate(0, -960)" fill="currentColor" d="M747 928h-53q-16 0 -27 -11.5t-11 -26.5v-860q0 -25 18 -42.5t43 -17.5h46q25 0 43 17.5t18 42.5v352h46q16 0 27.5 11.5t11.5 27.5v344q0 67 -48 115t-114 48v0zM763 0h-46q-12 0 -20.5 8.5t-8.5 20.5v352h106v-352q0 -12 -9.5 -20.5t-21.5 -8.5v0zM878 421q0 -3 -2 -5 t-4 -2h-184v476q0 2 1.5 4t4.5 2h53q54 0 92 -38.5t39 -92.5v-344v0zM422 925q-7 0 -11.5 -4.5t-4.5 -11.5v-255h-113v255q0 7 -4.5 11.5t-11.5 4.5t-11.5 -4.5t-4.5 -11.5v-255h-115v255q0 7 -4.5 11.5t-11.5 4.5q-8 0 -12 -4.5t-4 -11.5v-408q0 -13 8 -21t20 -8h50v-440 q0 -25 18 -43t43 -18h45q25 0 42.5 18t17.5 43v438h48q14 0 21.5 8.5t7.5 20.5v410q3 6 -2 11t-11 5zM328 29q0 -12 -8.5 -20.5t-20.5 -8.5h-45q-12 0 -20 8.5t-8 20.5v441h102v-441zM146 502v120h260v-120h-260v0z" />
</svg>