<svg viewBox="0 0 1024 1024" xmlns="http://www.w3.org/2000/svg">
  <path transform="scale(1, -1) translate(0, -960)" fill="currentColor" d="M992 322q0 40 -22.5 72.5t-57.5 47.5v337q0 5 -3 9t-8 6q-25 8 -43.5 26.5t-27.5 43.5q-1 5 -5 8t-9 3h-688q-5 0 -9 -3t-5 -8q-9 -24 -28 -42t-43 -27q-5 -2 -8 -6t-3 -10v-483q0 -5 3 -9t8 -5q25 -9 43.5 -27.5t27.5 -43.5q1 -5 5 -8t9 -3h643v-165q0 -3 2 -6.5t5 -6.5 q3 -2 6.5 -2t7.5 1l69 22l69 -22h2h2q3 0 5.5 1t4.5 2q4 2 5 5.5t1 7.5v190q20 18 31 42.5t11 52.5v0zM960 322q0 -41 -29 -69.5t-69 -28.5t-68.5 29t-28.5 69q0 39 29 68t68 29q8 0 15 -1t13 -2h0.5h0.5q30 -11 49.5 -36.5t19.5 -57.5zM64 307v461q25 11 44.5 30.5 t30.5 44.5h666q11 -25 30.5 -44.5t44.5 -30.5v-318q-5 0 -9 0.5t-9 0.5q-54 0 -91.5 -37.5t-37.5 -91.5q0 -26 9 -49t26 -39h-629q-11 24 -30.5 43t-44.5 30v0zM920 58l-53 17q-2 1 -4.5 1t-4.5 -1l-53 -17v142h9q12 -5 24.5 -7.5t25.5 -2.5q16 0 30 4t28 11v-147h-2z M269 694h406q7 0 11.5 4.5t4.5 11.5q0 8 -4.5 12t-11.5 4h-406q-7 0 -11.5 -4t-4.5 -12q0 -7 4.5 -11.5t11.5 -4.5v0zM746 579q0 7 -4.5 11.5t-11.5 4.5h-516q-7 0 -11.5 -4.5t-4.5 -11.5t4.5 -11.5t11.5 -4.5h514q7 0 12.5 5t5.5 11zM699 459h-504q-7 0 -11.5 -4.5 t-4.5 -11.5t4.5 -11.5t11.5 -4.5h504q7 0 11.5 4.5t4.5 11.5q0 6 -4.5 11t-11.5 5v0z" />
</svg>