<svg viewBox="0 0 256 256" xmlns="http://www.w3.org/2000/svg">
  <path transform="scale(1, -1) translate(0, -256)" fill="currentColor" d="M251 96q0 11 -5.5 19.5t-14.5 12.5v83q0 5 -5 6.5t-9 6t-6 9.5q-1 2 -3 3.5t-4 1.5h-172q-2 0 -4 -1.5t-2 -3.5q-5 -12 -16 -15q-3 -1 -4 -3t-1 -4v-121q0 -5 5 -7t9 -6t6 -9q1 -3 3 -4t4 -1h158v-38q0 -4 3 -6t6 -1l17 5l18 -5q2 0 4.5 1t2.5 5v48q10 10 10 24zM216 75 q-9 0 -15.5 6t-6.5 15t6.5 15.5t15.5 6.5t15 -6.5t6 -15.5t-6.5 -15t-14.5 -6zM19 95v111q11 6 18 18h162q6 -12 18 -18v-74h-2q-14 0 -24.5 -10.5t-10.5 -25.5q0 -10 5 -19h-148q-7 13 -18 18zM218 38h-5l-9 -3v28q6 -2 11.5 -2t11.5 2v-28zM67 187h102q3 0 5 2t2 5t-2 5 t-5 2h-102q-3 0 -5 -2t-2 -5t2 -5t5 -2zM54 154h128q3 0 5 2t2 5t-2 5t-5 2h-128q-3 0 -5.5 -2t-2.5 -5t2.5 -5t5.5 -2zM175 134h-126q-3 0 -5 -2.5t-2 -5.5t2 -5t5 -2h126q3 0 5 2t2 5t-2 5.5t-5 2.5z" />
</svg>