<svg viewBox="0 0 1024 1024" xmlns="http://www.w3.org/2000/svg">
  <path transform="scale(1, -1) translate(0, -960)" fill="currentColor" d="M837 258q0 39 -21.5 70.5t-55.5 44.5v462q0 5 -3 9t-8 6q-24 8 -41.5 25.5t-25.5 41.5q-3 5 -6.5 8t-9.5 3h-384q-5 0 -9.5 -3t-5.5 -8q-8 -24 -25.5 -41.5t-41.5 -25.5q-6 -2 -9.5 -6t-3.5 -9v-601q0 -5 3.5 -9.5t7.5 -5.5q24 -8 41.5 -25.5t26.5 -41.5q1 -5 5 -8t9 -3 h344v-157q0 -4 2 -7l4 -6q3 -2 7 -2.5t8 -0.5l65 21l66 -21h2.5h2.5q2 0 4.5 1t4.5 2q4 3 5.5 6t1.5 7v173q0 2 -1 4.5t-2 3.5q20 17 31.5 41t11.5 52v0zM805 258q0 -39 -27.5 -66t-65.5 -27t-65.5 27t-27.5 66q0 38 27.5 65t65.5 27q7 0 13.5 -1t12.5 -2h0.5h0.5 q28 -9 47 -33.5t19 -55.5v0zM219 245v579q24 11 42.5 29.5t29.5 42.5h363q11 -24 29.5 -42.5t42.5 -29.5v-442q-3 0 -7.5 1t-8.5 1q-51 0 -87.5 -36.5t-36.5 -88.5q0 -24 8.5 -46t23.5 -39h-327q-9 23 -28.5 41.5t-43.5 29.5v0zM766 6l-49 16q-3 2 -5 2t-5 -2l-49 -16v136h8 q10 -4 22 -6.5t26 -2.5t28 3.5t26 9.5v-140h-2zM416 754h117q7 0 11.5 4t4.5 12q0 7 -4.5 11.5t-11.5 4.5h-117q-7 0 -11.5 -4.5t-4.5 -11.5q0 -8 4.5 -12t11.5 -4v0zM363 627h219q8 0 12 4.5t4 11.5t-4 11.5t-12 4.5h-219q-7 0 -11.5 -4.5t-4.5 -11.5t5 -11.5t11 -4.5z M618 512q0 7 -4.5 11.5t-11.5 4.5h-256q-8 0 -12 -4.5t-4 -11.5t4 -11.5t12 -4.5h256q6 0 11 4.5t5 11.5z" />
</svg>