<svg viewBox="0 0 256 256" xmlns="http://www.w3.org/2000/svg">
  <path transform="scale(1, -1) translate(0, -256)" fill="currentColor" d="M212 80q0 10 -5.5 18.5t-13.5 12.5v114q0 5 -5 6.5t-9 5.5t-6 9q0 3 -2 4t-5 1h-96q-4 0 -6 -5t-6 -9t-9 -5q-2 -1 -3.5 -3t-1.5 -4v-151q0 -4 5 -6t9 -6t6 -9q0 -2 2 -3.5t4 -1.5h83v-36q0 -4 3 -5.5t6 -1.5l16 5l18 -5q2 0 4 1.5t2 5.5v44q10 11 10 24zM178 60 q-9 0 -15 6t-6 14.5t6 14.5t14.5 6t14.5 -6t6 -14.5t-6 -14.5t-14 -6zM58 79v141q11 6 17 17h87q5 -11 16 -17v-105h-1q-14 0 -24 -10t-10 -25q0 -9 5 -18h-73q-6 12 -17 17zM180 24q-2 1 -4 0l-9 -2v26q4 -2 11 -2q3 0 10 2v-26zM104 201h29q3 0 5 2t2 5t-2 5.5t-5 2.5h-29 q-3 0 -5 -2.5t-2 -5.5t2 -5t5 -2zM91 170h55q3 0 5 2t2 5t-2 5t-5 2h-55q-3 0 -5 -2t-2 -5t2 -5t5 -2zM157 144q0 3 -2 5t-5 2h-64q-3 0 -5 -2t-2 -5t2 -5t5 -2h64q3 0 5 2t2 5z" />
</svg>