<svg viewBox="0 0 256 256" xmlns="http://www.w3.org/2000/svg">
  <path transform="scale(1, -1) translate(0, -256)" fill="currentColor" d="M105 146l-3 -16q-1 -4 3 -7q1 -1 3 -1.5t4 0.5l14 8l16 -8h2q2 0 4 1q3 3 3 7l-3 16l12 11q3 3 1.5 7t-5.5 5l-16 2l-8 15q-2 4 -6 4t-6 -4l-8 -15l-16 -2q-4 -1 -5 -5t1 -7zM119 158q4 1 5 4l2 5l3 -5q2 -3 5 -4l6 -1l-4 -4q-3 -2 -2 -6v-5l-5 2q-3 2 -6 0l-5 -2v5 q1 4 -2 6l-4 4zM232 222h-208q-8 0 -13.5 -6t-5.5 -14v-149q0 -8 5.5 -13.5t13.5 -5.5h208q8 0 13.5 5.5t5.5 13.5v149q0 8 -5.5 14t-13.5 6zM194 48h-134q1 3 1 8q0 15 -10.5 25t-24.5 10l-7 -1v80l7 -1q14 0 24.5 10.5t10.5 24.5v4h132v-4q0 -14 10 -24.5t25 -10.5 q5 0 9 2v-81q-6 2 -9 2q-15 0 -25 -10.5t-10 -24.5q0 -6 1 -9zM237 202v-16q-4 -3 -9 -3q-9 0 -15 6t-6 15v4h25q2 0 3.5 -1.5t1.5 -4.5zM24 208h22l1 -4q0 -9 -6 -15t-15 -6q-4 0 -7 1v18q0 3 1.5 4.5t3.5 1.5zM19 54v22q4 1 7 1q9 0 15 -6t6 -15q0 -4 -1 -7v-1h-22 q-2 0 -3.5 1.5t-1.5 4.5zM232 48h-24v1q-1 3 -1 7q0 9 6 15t15 6q5 0 9 -2v-21q0 -2 -1.5 -4t-3.5 -2zM182 104h-111q-3 0 -5 -2t-2 -5t2 -5t5 -2h111q3 0 5 2t2 5t-2 5t-5 2zM156 78h-58q-3 0 -5 -2t-2 -5t2 -5t5 -2h57q3 0 5 2t2 5t-2 5t-4 2z" />
</svg>