<svg viewBox="0 0 1024 1024" xmlns="http://www.w3.org/2000/svg">
  <path transform="scale(1, -1) translate(0, -960)" fill="currentColor" d="M432 523l-13 -70q-1 -5 1 -9.5t6 -6.5q3 -3 7.5 -3.5t9.5 1.5l64 34l64 -34q1 -1 3.5 -1h4.5q3 0 5 1t5 2q3 2 5 6.5t1 9.5l-13 70l52 50q3 3 4.5 7.5t-0.5 8.5q-1 5 -4.5 7.5t-7.5 3.5l-71 10l-32 64q-2 3 -5.5 6t-8.5 3t-8.5 -2.5t-6.5 -6.5l-32 -64l-70 -10 q-5 -1 -8.5 -3.5t-4.5 -7.5t0 -9.5t5 -6.5l48 -50v0zM474 579q3 0 6.5 3t5.5 5l21 43l21 -43q1 -3 4.5 -5.5t8.5 -2.5l46 -6l-33 -34q-3 -2 -4 -6.5t-1 -7.5l8 -47l-42 23q-3 2 -7 2t-7 -2l-42 -23l8 47q1 3 -0.5 7.5t-4.5 6.5l-33 34l45 6v0zM928 810h-832q-26 0 -45 -19 t-19 -45v-597q0 -27 19 -45.5t45 -18.5h832q26 0 45 18.5t19 45.5v597q0 26 -19 45t-45 19zM64 632q10 -4 20 -5t20 -1q53 0 89.5 37t36.5 89q0 7 -1 13.5t-2 12.5h557q-1 -6 -2 -13t-1 -13q0 -53 37.5 -89.5t88.5 -36.5q13 0 26 2.5t25 8.5v-359q-12 5 -25 8.5t-26 3.5 q-53 0 -89.5 -37.5t-36.5 -89.5q0 -12 2 -23t6 -22h-567q4 11 6 22t2 23q0 53 -37 90t-89 37q-11 0 -20.5 -2t-19.5 -5v349v0zM960 746v-74h-1.5t-1.5 -2q-11 -6 -23 -9t-25 -3q-40 0 -67.5 28t-27.5 66q0 7 1.5 13.5t3.5 12.5h109q13 0 22.5 -9.5t9.5 -22.5v0zM96 778h99 q3 -6 4 -13t1 -13q0 -40 -28 -67t-66 -27q-11 0 -21.5 2t-18.5 7v80q-2 12 7.5 21.5t22.5 9.5zM64 150v98q10 5 19.5 7.5t20.5 2.5q40 0 67 -28t27 -67q0 -9 -1 -18t-5 -17q-1 -2 -1 -4.5t1 -3.5h-96q-13 -1 -22.5 8t-9.5 22zM928 118h-106v5v3q-3 9 -4.5 18t-1.5 18 q0 39 28 66.5t66 27.5q14 0 26 -3.5t22 -9.5h2l2 -1v-93q-2 -12 -11.5 -21.5t-22.5 -9.5v0zM285 310h443q7 0 11.5 4.5t4.5 11.5q0 8 -4.5 12t-11.5 4h-443q-7 0 -11.5 -4t-4.5 -12q0 -7 5 -11.5t11 -4.5zM622 238h-230q-7 0 -11.5 -4t-4.5 -12q0 -7 4.5 -11.5t11.5 -4.5 h229q7 0 11.5 4.5t4.5 11.5q0 8 -4.5 12t-10.5 4z" />
</svg>