<svg viewBox="0 0 256 256" xmlns="http://www.w3.org/2000/svg">
  <path transform="scale(1, -1) translate(0, -256)" fill="currentColor" d="M185 134h-40v29h20q5 0 9 4l14 16q4 3 4 8t-4 9l-14 15q-3 4 -9 4h-20v25q0 3 -2 5t-5 2t-4.5 -2t-1.5 -5v-25h-61q-5 0 -9 -3.5t-4 -8.5v-31q0 -5 4 -9t9 -4h61v-29h-42q-5 0 -9 -4l-14 -15q-3 -4 -3 -8.5t3 -8.5l14 -16q4 -4 9 -4h41v-66q0 -3 2 -5t5 -2t5.5 2t2.5 5 v66h40q5 0 8.5 3.5t3.5 8.5v32q0 5 -3.5 8.5t-9.5 3.5zM72 205h93l13 -14l-13 -14h-93v28zM184 92h-93l-13 14l13 14h93v-28z" />
</svg>