<svg viewBox="0 0 1024 1024" xmlns="http://www.w3.org/2000/svg">
  <path transform="scale(1, -1) translate(0, -960)" fill="currentColor" d="M387 574h21.5h17.5v-248q0 -7 4 -11.5t12 -4.5q7 0 11.5 4.5t4.5 11.5v570h163v-570q0 -7 4.5 -11.5t11.5 -4.5t11.5 4.5t4.5 11.5v570h233q8 0 12 4.5t4 11.5t-4 11.5t-12 4.5h-497v0v0h-0.5h-1.5q-74 0 -125.5 -51t-51.5 -125t52 -126t125 -52v0zM387 896h11.5h15.5 h6.5h5.5v-290h-16h-23q-60 0 -102.5 43t-42.5 103t42 102t103 42zM886 122h-720l116 92q4 4 5 11t-2 12q-4 5 -11 6t-12 -3l-126 -101q-7 -6 -11.5 -15t-4.5 -18q0 -10 4.5 -19t11.5 -15l126 -101q3 -1 5.5 -2t4.5 -1q4 0 7 1.5t6 4.5q3 5 3 12t-6 11l-116 93h720q8 0 12 4 t4 12q0 7 -4 11.5t-12 4.5v0z" />
</svg>