<svg viewBox="0 0 256 256" xmlns="http://www.w3.org/2000/svg">
  <path transform="scale(1, -1) translate(0, -256)" fill="currentColor" d="M97 156h7v-58q0 -3 2 -5.5t5 -2.5t5 2.5t2 5.5v139h35v-139q0 -3 2 -5.5t5 -2.5t5 2.5t2 5.5v139h55q3 0 5.5 2t2.5 5t-2.5 5t-5.5 2h-125q-20 0 -34 -13.5t-14 -33.5t14 -34t34 -14zM97 237h7v-67h-7q-14 0 -24 10t-10 24t10 23.5t24 9.5zM192 78q-2 2 -5 2t-5 -2.5 t-1.5 -5.5t2.5 -5l23 -18h-172q-3 0 -5 -2t-2 -5t2 -5t5 -2h172l-22 -18q-3 -2 -3 -5t2 -5.5t5 -2.5t4 2l32 25q5 4 5 10.5t-5 10.5z" />
</svg>