<svg viewBox="0 0 1024 1024" xmlns="http://www.w3.org/2000/svg">
  <path transform="scale(1, -1) translate(0, -960)" fill="currentColor" d="M933 675l-80 103q-9 10 -21.5 17t-26.5 7h-399v110q0 7 -4 11.5t-12 4.5q-7 0 -11.5 -4.5t-4.5 -11.5v-110h-235q-25 0 -43 -18t-18 -43v-207q0 -25 18 -42.5t43 -17.5h235v-490q0 -7 4.5 -11.5t11.5 -4.5q8 0 12 4.5t4 11.5v490h397q15 0 27.5 6t20.5 18l80 102 q13 17 13.5 37.5t-11.5 37.5v0zM907 621l-80 -103q-3 -4 -9.5 -7.5t-12.5 -3.5h-666q-12 0 -20.5 8.5t-8.5 20.5v205q0 12 8.5 20.5t20.5 8.5h664q7 0 13 -3.5t10 -8.5l80 -102q7 -8 7 -18t-6 -17z" />
</svg>