<svg viewBox="0 0 1024 1024" xmlns="http://www.w3.org/2000/svg">
  <path transform="scale(1, -1) translate(0, -960)" fill="currentColor" d="M741 461h-171v139h92q9 0 16 3.5t13 9.5l56 62q10 11 10 26t-10 25l-56 63q-6 6 -13 9.5t-16 3.5h-92v110q0 7 -4.5 11.5t-11.5 4.5q-8 0 -12 -4.5t-4 -11.5v-110h-255q-15 0 -26.5 -11.5t-11.5 -27.5v-125q0 -15 11.5 -26.5t26.5 -11.5h255v-139h-176q-9 0 -16 -3.5 t-13 -9.5l-56 -62q-10 -11 -10 -26t10 -26l56 -62q6 -6 13 -9.5t16 -3.5h177q-1 -1 -1 -3v-3v-269q0 -7 4 -11.5t12 -4.5q7 0 11.5 4.5t4.5 11.5v270q0 2 -0.5 4t-1.5 3h173q15 0 26.5 11.5t11.5 26.5v125q0 16 -10.5 26.5t-27.5 10.5v0zM277 638v125q0 3 2 5t4 2h379 q2 0 3 -0.5t2 -1.5l56 -62q1 -3 1 -5t-1 -3l-56 -63q-1 -1 -2 -1h-3h-379q-2 -2 -4 0t-2 4v0zM747 299q0 -2 -2 -4t-4 -2h-379h-3t-2 1l-56 63q-1 2 -1 4.5t1 3.5l56 62q1 1 2 1.5t3 0.5h379q2 0 4 -2t2 -5v-123z" />
</svg>