<svg viewBox="0 0 1024 1024" xmlns="http://www.w3.org/2000/svg">
  <path transform="scale(1, -1) translate(0, -960)" fill="currentColor" d="M323 320q-39 0 -66.5 -28t-27.5 -66q0 -40 28 -67.5t66 -27.5q39 0 67 28t28 67q0 38 -28 66t-67 28v0zM323 163q-26 0 -44 18.5t-18 44.5q0 25 18 43.5t44 18.5q27 0 45 -18.5t18 -43.5q0 -26 -19 -44.5t-44 -18.5zM910 147q-10 0 -20 -3t-20 -8l-57 67q9 12 14 27t5 31 v315q0 49 -34.5 83.5t-83.5 34.5h-381v140q0 32 -23 54t-54 22h-208q-7 0 -11.5 -4t-4.5 -12q0 -7 4.5 -11.5t11.5 -4.5h206q20 0 32.5 -13t12.5 -31v-378q-44 -4 -82 -24q-38 -19 -66.5 -50t-44.5 -71t-16 -85q0 -48 18 -91q18 -42 49.5 -73.5t73.5 -49.5q43 -18 91 -18 q80 0 141.5 49t82.5 122h190q16 0 30 4.5t26 12.5l56 -65q-8 -11 -13 -23t-5 -27q0 -33 24 -57t58 -24t58 24t24 57q0 34 -25 57t-59 23v0zM715 662q36 0 61.5 -25t25.5 -61v-21h-2h-2h-465v106h382v1zM323 26q-41 0 -78 15q-36 16 -63 43t-43 64q-16 36 -16 78q0 41 16 77 q16 37 43 64t63 43q37 16 78 16q42 0 78 -16t63 -43t42 -64q16 -36 16 -77q0 -42 -16 -78q-15 -37 -42 -64t-63 -43q-36 -15 -78 -15v0zM552 197q1 7 1.5 14t0.5 15q0 46 -18 88q-17 41 -47.5 72t-70.5 50q-41 18 -87 20v67h466h1.5h1.5v-261q0 -27 -19 -46t-47 -19h-182v0z M910 18q-20 0 -34.5 14.5t-14.5 34.5q0 11 4.5 21t12.5 16v0v0v0v0q6 6 14.5 8.5t17.5 2.5q21 0 35.5 -14.5t14.5 -34.5q0 -21 -14.5 -34.5t-35.5 -13.5z" />
</svg>