<svg viewBox="0 0 256 256" xmlns="http://www.w3.org/2000/svg">
  <path transform="scale(1, -1) translate(0, -256)" fill="currentColor" d="M106 148q-6 0 -9.5 -4t-3.5 -9.5t4 -10t9 -4.5t8.5 4t3.5 10t-3.5 10t-8.5 4zM138 134q0 -5 3.5 -9t9 -4t9 4t3.5 9.5t-3.5 9.5t-9 4t-9 -4t-3.5 -10zM211 252h-166q-10 0 -17.5 -7.5t-7.5 -17.5v-168q0 -10 7 -17.5t18 -7.5h140l-7 22l16 -14l42 -38v223q0 10 -7.5 17.5 t-17.5 7.5zM163 90q-4 5 -9 10q8 2 13 5.5t8 6.5l2 3l-15 -7.5t-17 -4.5q-15 -3 -32 0q-8 1 -18 5l-9 4l-5 3l2 -3q3 -3 8 -6t12 -6l-9 -10q-17 1 -29 10q-6 4 -8 9v0q0 18 4 36q4 14 9 26l5 10q8 6 17 9q6 3 13 3l5 1l1 -2q-10 -3 -19 -7q-6 -3 -11 -6l-3 -3l7 3q13 5 27 8 h4q11 2 24 0q18 -2 38 -12l-4 3q-4 3 -10 6q-8 4 -18 7l2 2h5q6 -1 13 -3q9 -4 17 -10l4 -9q6 -13 9 -26q5 -19 5 -37q2 2 -1.5 -1.5t-8 -7t-12 -6t-16.5 -3.5z" />
</svg>