<svg viewBox="0 0 1024 1024" xmlns="http://www.w3.org/2000/svg">
  <path transform="scale(1, -1) translate(0, -960)" fill="currentColor" d="M509 422q-7 0 -11.5 -4t-4.5 -12v-185q0 -7 4.5 -11.5t11.5 -4.5t11.5 4.5t4.5 11.5v185q0 8 -5 12t-11 4v0zM384 334l-6 2q-6 1 -12 -3t-8 -10q-1 -6 3 -12t10 -7l7 -2h1.5h1.5q6 0 10.5 3.5t5.5 9.5t-3 12t-10 7zM651 330l-6 -2q-6 -1 -10 -6.5t-3 -12.5q1 -6 5.5 -9.5 t10.5 -3.5h1.5h1.5l7 2q6 1 10 6.5t2 12.5q-1 6 -6.5 10t-12.5 3zM840 358l-288 288q-17 17 -40.5 22.5t-45.5 -4.5l-173 -67q-13 38 -16 79q-2 40 7 79.5t29 76.5t50 67q5 5 5 11.5t-5 11.5q-5 4 -11 4t-11 -4q-34 -35 -56 -75q-22 -41 -31.5 -85t-7.5 -89q3 -45 18 -87 l-8 -2q-4 -1 -6 -3.5t-4 -6.5l-80 -209q-8 -23 -3.5 -46.5t21.5 -40.5l288 -288q12 -12 27 -18t31 -6q15 0 30 6t27 18l253 253q23 24 23 57.5t-23 57.5v0zM816 267l-251 -253q-15 -14 -35 -14t-34 14l-288 288q-11 11 -13.5 25t2.5 28l78 202q12 -25 28 -49t36 -44v0v0 l1.5 -1.5t1.5 -0.5q3 -1 4.5 -2t3.5 -1v0v0h2h2h0.5h0.5h1h1l0.5 0.5t0.5 1.5l1 0.5l1 0.5q1 2 2 3t1 2v2.5v2.5v1.5v1.5v2.5t-1 2.5q-2 1 -2 2.5t-2 2.5v0v0q-18 18 -32 39t-25 44l173 67q13 5 27.5 2.5t24.5 -13.5l288 -288q16 -14 16 -35t-14 -34v0z" />
</svg>