<svg viewBox="0 0 256 256" xmlns="http://www.w3.org/2000/svg">
  <path transform="scale(1, -1) translate(0, -256)" fill="currentColor" d="M252 207h-248v-158h248v158zM250 119q-1 -2 -12 -8q-17 -10 -37 -19q-28 -13 -60 -23q-39 -12 -81 -19h-54v155h245q-1 -1 -1 -86zM38 126q7 5 7 13.5t-5.5 13.5t-13.5 5h-11v-36h10q10 1 13 4zM22 129v23h2q6 0 9.5 -3t3.5 -8.5t-4 -9t-9 -3.5h-2v1zM48 158h7v-36h-7v36 zM70 128q-5 0 -8 5l-4 -5q5 -6 11.5 -6t9.5 3t3 8t-2 7t-8 4.5t-6 4.5t1.5 3t4.5 1t5 -3l3 4q-4 4 -10 4t-9 -3t-3 -7t2 -6t7 -4l2 -1q2 0 3 -1t1.5 -3t-0.5 -3l-1 -1q0 -1 -2 -1zM104 122q4 0 9 2v8q-4 -4 -9 -4t-8.5 3.5t-3.5 8.5t3.5 8.5t8 3.5t10.5 -4v8q-5 3 -9 3 q-8 0 -13.5 -5.5t-6 -13t5 -13t13.5 -5.5zM170 122l16 36h-8l-10 -24l-10 24h-7l15 -36h4zM208 129h-12v9h12v7h-12v7h12v6h-20v-35h20v6zM220 137h1l10 -14h8l-11 15q8 2 8 10q0 11 -13 11h-11v-36h8v14zM220 153h2q7 0 7 -5.5t-7 -5.5h-1v11h-1zM134 122q6 0 11 3.5t7 9.5 v6q0 8 -5.5 13.5t-13 5.5t-13.5 -5.5t-6 -13t6 -13.5t14 -6zM239 156l1 -1v0l-1 1h1q0 2 -1 2h-1v-3zM239 158q1 0 1 -1h-1v1zM239 154q3 0 3 2.5t-3 2.5t-2.5 -2.5t2.5 -2.5zM239 159q1 0 2 -1t1 -1.5t-1 -1.5t-2 -1t-1.5 0.5t-0.5 1.5t0.5 2t1.5 1z" />
</svg>