<svg viewBox="0 0 1024 1024" xmlns="http://www.w3.org/2000/svg">
  <path transform="scale(1, -1) translate(0, -960)" fill="currentColor" d="M422 526q-21 0 -35 -16t-14 -38t14.5 -38t34.5 -16q22 0 36 15.5t14 38.5q1 23 -13.5 38.5t-36.5 15.5zM651 474q0 -23 -14.5 -39t-34.5 -16q-21 0 -35.5 16t-14.5 39q0 22 14.5 38t35.5 16q20 0 34.5 -16t14.5 -38zM843 944h-662q-42 0 -72.5 -29.5t-30.5 -71.5v-670 q0 -42 29.5 -71.5t71.5 -29.5h562l-27 90l62 -60l61 -56l105 -94v891q4 42 -26.5 71.5t-72.5 29.5v0zM651 298l-10.5 12.5t-22.5 27.5q49 13 69 36l20 23q-15 -10 -29.5 -17t-26.5 -12q-18 -8 -36.5 -13t-35.5 -8q-36 -7 -67.5 -6t-60.5 6q-21 4 -38.5 9.5t-33.5 11.5 q-8 4 -18 7.5t-19 8.5q-1 0 -1.5 1t-2.5 1h-1t-1 1q-7 4 -10 7l-3 3l20.5 -22.5t67.5 -36.5q-12 -14 -22.5 -27l-10.5 -13q-83 3 -117 38l-34 35q0 60 11 113q12 52 25.5 91t24.5 62l11 22q54 41 96.5 46l42.5 5l5 -6q-68 -18 -99.5 -41l-31.5 -23l8 4t21 9q41 17 70 23 t42 9h3.5h5.5q22 3 48 3t52 -3q36 -4 73 -16t75 -32l-30 21.5t-94 40.5l6 10l42.5 -6t96.5 -45l11 -23q12 -22 25.5 -61t24.5 -92q11 -52 11 -112q1 1 -34 -35t-118 -37v0z" />
</svg>