<svg viewBox="0 0 256 256" xmlns="http://www.w3.org/2000/svg">
  <path transform="scale(1, -1) translate(0, -256)" fill="currentColor" d="M127 125q-3 0 -5 -2t-2 -5v-47q0 -3 2 -5t5 -2t5 2t2 5v47q0 3 -2 5t-5 2zM96 102l-1 1q-3 0 -5.5 -1.5t-3 -4.5t1.5 -5t4 -3h3q3 0 5 1.5t2.5 4t-1.5 5t-5 2.5zM162 102l-1 -1q-3 0 -4.5 -2.5t-1.5 -5t2.5 -4.5t4.5 -2l3 1q3 0 4.5 2.5t1 5.5t-3 4.5t-5.5 1.5zM212 108 l-72 72q-5 4 -11.5 5.5t-13.5 -0.5l-40 -16q-5 19 -0.5 37.5t17.5 32.5q3 2 3 5t-2.5 5t-5 2t-5.5 -2q-16 -17 -21.5 -40t1.5 -45q-3 -2 -3 -4l-20 -52q-3 -6 -1.5 -12.5t6.5 -11.5l72 -72q7 -7 16.5 -7t16.5 7l63 63q7 7 7 16.5t-7 16.5zM202 85l-63 -63q-3 -3 -7 -3t-6 3 l-72 72q-2 1 -2.5 4t0.5 6l17 44q5 -10 13 -18l3 -2h5l2 2l2 2l-1 5l-1 3q-8 7 -13 17l40 15q6 2 10 -2l72 -72q3 -3 3.5 -6.5t-2.5 -6.5z" />
</svg>