<svg viewBox="0 0 1024 1024" xmlns="http://www.w3.org/2000/svg">
  <path transform="scale(1, -1) translate(0, -960)" fill="currentColor" d="M1008 765h-992v-634h992v634v0zM1002 411q-1 0 -51 -32q-51 -31 -148 -74.5t-238 -90.5q-142 -47 -325 -78h-153.5h-62.5v99v211v211v100h154h334h335h156q0 -1 -1 -32v-80v-111v-123v0zM154 442q13 9 20 24t7 32q0 32 -21.5 52t-55.5 20h-43v-144h40q18 1 30.5 4 t22.5 12v0zM88 451v95h6q14 0 23 -2t16 -10q7 -7 11.5 -16.5t4.5 -19.5q0 -11 -4.5 -20.5t-11.5 -16.5q-7 -5 -16 -8t-23 -3h-6v1v0zM192 568h27v-144h-27v144zM280 450q-10 0 -18.5 5t-13.5 12l-18 -17q10 -14 21.5 -21t28.5 -7q22 0 36 13t14 35q0 17 -9 26.5t-35 18.5 q-13 5 -17.5 9t-4.5 9q0 7 6 11.5t15 4.5q5 0 11 -2.5t11 -10.5l13 18q-8 8 -19.5 12t-23.5 4q-19 0 -32 -12t-13 -32q0 -15 8 -23t29 -15l10.5 -3.5t8.5 -6.5q4 -3 6 -11t-1 -13q-1 -1 -2.5 -2t-2.5 -1q-1 -1 -3.5 -1h-4.5v0zM414 424q9 0 17.5 1.5t19.5 4.5v32 q-8 -8 -16.5 -12t-16.5 -4q-21 0 -34.5 14t-13.5 36q0 20 13.5 35t34.5 15q9 0 17.5 -4t18.5 -12v32q-8 4 -16.5 6.5t-16.5 2.5q-33 0 -55 -21.5t-22 -51.5q-2 -32 18.5 -53t51.5 -21zM678 422l64 146h-32l-38 -94l-38 94h-29l57 -146h16zM832 451h-50v39h50v25h-50v31h50 v22h-78v-141h78v24zM880 485h5l38 -56h34l-45 61q17 3 24.5 13t7.5 27q0 20 -13 31.5t-38 11.5h-45v-144h32v31v25v0zM880 549h10q13 0 20 -5.5t7 -17.5t-7 -17t-20 -5h-7v45h-3v0zM534 422q26 0 45.5 15.5t26.5 39.5q2 5 2 11v11q0 33 -22 55t-55 22q-29 0 -52 -22t-25 -52 q0 -31 24.5 -55.5t55.5 -24.5v0v0v0zM957 560l1 -5h2l-3 5q1 0 3 1l2 1q0 1 -1.5 2.5t-3.5 1.5h-5v-11h2l3 5v0zM957 566v0h1v-1t-0.5 -1.5l-0.5 -0.5v0v3v0zM957 550q5 0 8 3.5t3 8.5q0 4 -3 7.5t-8 3.5t-8 -3.5t-3 -7.5q1 -5 4 -8.5t7 -3.5zM957 571q3 0 6 -3t3 -6 q0 -4 -3 -7t-6 -3q-4 0 -7 3t-3 7q0 3 3 6t7 3z" />
</svg>