<svg viewBox="0 0 256 256" xmlns="http://www.w3.org/2000/svg">
  <path transform="scale(1, -1) translate(0, -256)" fill="currentColor" d="M250 128l-12 80q-2 18 -14.5 28t-31.5 10h-100q-9 0 -16 -4q0 3 -2 5t-5 2h-45q-8 0 -13.5 -5.5t-5.5 -13.5v-122q0 -8 5.5 -13.5t13.5 -5.5h45q3 0 5 2t2 5v0q11 -4 17 -11q10 -10 10 -23v-41q0 -4 2.5 -7.5t6.5 -4.5h1q8 -2 15 -2q14 0 24 7q16 12 16 38v30h43 q15 0 25 9q9 7 12.5 17t1.5 20zM62 103h-38q-2 0 -3.5 1.5t-1.5 3.5v122q0 2 1.5 3.5t3.5 1.5h38v-132zM228 102q-7 -6 -16 -6h-50q-3 0 -5.5 -2t-2.5 -5v-37q0 -19 -10 -27q-6 -5 -16 -5q-6 0 -11 2v39q0 19 -14 33q-11 11 -27 16v116q8 6 17 6h99q14 0 22 -6.5t10 -18.5 l12 -80q2 -7 -0.5 -13.5t-7.5 -11.5z" />
</svg>