<svg viewBox="0 0 1024 1024" xmlns="http://www.w3.org/2000/svg">
  <path transform="scale(1, -1) translate(0, -960)" fill="currentColor" d="M912 894h-800q-34 0 -57 -23t-23 -57v-505q0 -34 23 -57t57 -23h290l-53 -195h-90q-7 0 -11.5 -4.5t-4.5 -11.5q0 -8 4.5 -12t11.5 -4h506q7 0 11.5 4t4.5 12q0 7 -4.5 11.5t-11.5 4.5h-90l-53 195h290q34 0 57 23t23 57v505q0 33 -23 56.5t-57 23.5v0zM642 34h-260 l53 195h154l53 -195v0zM960 309q0 -21 -14 -34.5t-34 -13.5h-800q-20 0 -34 13.5t-14 34.5v505q0 21 14 34.5t34 13.5h800q20 0 34 -13.5t14 -34.5v-505z" />
</svg>