<svg viewBox="0 0 1024 1024" xmlns="http://www.w3.org/2000/svg">
  <path transform="scale(1, -1) translate(0, -960)" fill="currentColor" d="M888 802h-752q-43 0 -73.5 -30.5t-30.5 -73.5v-330q0 -43 30.5 -73.5t73.5 -30.5h360v-136h-152q-7 0 -11.5 -4.5t-4.5 -11.5t4.5 -11.5t11.5 -4.5h338q7 0 11.5 4.5t4.5 11.5t-4.5 11.5t-11.5 4.5h-154v136h360q43 0 73.5 30.5t30.5 73.5v330q0 43 -30.5 73.5 t-73.5 30.5zM960 368q0 -30 -21 -51t-51 -21h-752q-30 0 -51 21t-21 51v330q0 30 21 51t51 21h752q30 0 51 -21t21 -51v-330z" />
</svg>