<svg viewBox="0 0 256 256" xmlns="http://www.w3.org/2000/svg">
  <path transform="scale(1, -1) translate(0, -256)" fill="currentColor" d="M244 135h-232q-3 0 -5 -2t-2 -5t2 -5.5t5 -2.5h232q3 0 5 2.5t2 5.5t-2 5t-5 2zM128 171q16 0 27.5 11.5t11.5 27.5t-11.5 27.5t-27.5 11.5t-27.5 -11.5t-11.5 -27.5t11.5 -27.5t27.5 -11.5zM128 235q10 0 17.5 -7.5t7.5 -17.5t-7.5 -17.5t-17.5 -7.5t-17.5 7.5 t-7.5 17.5t7.5 17.5t17.5 7.5zM128 85q-16 0 -27.5 -11.5t-11.5 -27.5t11.5 -27.5t27.5 -11.5t27.5 11.5t11.5 27.5t-11.5 27.5t-27.5 11.5zM128 21q-10 0 -17.5 7.5t-7.5 17.5t7.5 17.5t17.5 7.5t17.5 -7.5t7.5 -17.5t-7.5 -17.5t-17.5 -7.5z" />
</svg>