<svg viewBox="0 0 1024 1024" xmlns="http://www.w3.org/2000/svg">
  <path transform="scale(1, -1) translate(0, -960)" fill="currentColor" d="M794 464h-564q-7 0 -11.5 -4.5t-4.5 -11.5t4.5 -11.5t11.5 -4.5h564q7 0 11.5 4.5t4.5 11.5t-4.5 11.5t-11.5 4.5zM512 554q38 0 65.5 27t27.5 65q0 39 -27.5 66t-65.5 27t-65.5 -27t-27.5 -66q0 -38 27.5 -65t65.5 -27v0zM512 709q25 0 43 -18t18 -43t-18 -43t-43 -18 t-43 18t-18 43t18 43t43 18v0zM512 342q-38 0 -65.5 -27t-27.5 -65q0 -39 27.5 -66t65.5 -27t65.5 27t27.5 66q0 38 -27.5 65t-65.5 27v0zM512 187q-25 0 -43 18t-18 43t18 43t43 18t43 -18t18 -43t-18 -43t-43 -18v0zM512 928q-99 0 -186 -38q-88 -38 -153 -103t-103 -153 q-38 -87 -38 -186t38 -186q38 -88 103 -153t153 -103q87 -38 186 -38t186 38q88 38 153 103t103 153q38 87 38 186t-38 186q-38 88 -103 153t-153 103q-87 38 -186 38zM512 0q-92 0 -174 35q-81 36 -142 97t-97 142q-35 82 -35 174t35 174q36 81 96.5 142t142.5 97 q82 35 174 35t174 -35q81 -36 142 -96.5t97 -142.5q35 -82 35 -174t-35 -174q-36 -81 -96.5 -142t-142.5 -97q-82 -35 -174 -35z" />
</svg>