<svg viewBox="0 0 256 256" xmlns="http://www.w3.org/2000/svg">
  <path transform="scale(1, -1) translate(0, -256)" fill="currentColor" d="M198 135h-140q-3 0 -5.5 -2t-2.5 -5t2.5 -5.5t5.5 -2.5h140q3 0 5.5 2.5t2.5 5.5t-2.5 5t-5.5 2zM128 151q11 0 18.5 8t7.5 18.5t-7.5 18.5t-18.5 8t-18.5 -8t-7.5 -18.5t7.5 -18.5t18.5 -8zM128 190q5 0 8.5 -3.5t3.5 -8.5t-3.5 -9t-8.5 -4t-8.5 4t-3.5 9t3.5 8.5 t8.5 3.5zM128 105q-11 0 -18.5 -8t-7.5 -18.5t7.5 -18.5t18.5 -8t18.5 8t7.5 18.5t-7.5 18.5t-18.5 8zM128 66q-5 0 -8.5 3.5t-3.5 9t3.5 9t8.5 3.5t8.5 -4t3.5 -9t-3.5 -8.5t-8.5 -3.5zM232 251h-208q-8 0 -13.5 -5.5t-5.5 -13.5v-208q0 -8 5.5 -13.5t13.5 -5.5h208 q8 0 14 5.5t6 13.5v208q-1 8 -6.5 13.5t-13.5 5.5zM237 24q0 -2 -1.5 -3.5t-3.5 -1.5h-208q-2 0 -3.5 1.5t-1.5 3.5v208q0 2 1.5 3.5t3.5 1.5h208q2 0 3.5 -1.5t1.5 -3.5v-208z" />
</svg>