<svg viewBox="0 0 1024 1024" xmlns="http://www.w3.org/2000/svg">
  <path transform="scale(1, -1) translate(0, -960)" fill="currentColor" d="M976 464h-928q-7 0 -11.5 -4.5t-4.5 -11.5t4.5 -11.5t11.5 -4.5h928q7 0 11.5 4.5t4.5 11.5t-4.5 11.5t-11.5 4.5zM512 632q59 0 101.5 42t42.5 102t-42 102t-102 42q-59 0 -101.5 -42t-42.5 -102t42.5 -102t101.5 -42zM512 886q46 0 79 -32.5t33 -79.5 q0 -45 -32.5 -78.5t-79.5 -33.5q-46 0 -79 33t-33 79q0 47 33 79.5t79 32.5zM512 264q-59 0 -101.5 -42t-42.5 -102t42 -102t102 -42q59 0 101.5 42t42.5 102t-42.5 102t-101.5 42zM512 10q-46 0 -79 32.5t-33 79.5q0 46 32.5 79t79.5 33q46 0 79 -33t33 -79 q0 -47 -33 -79.5t-79 -32.5z" />
</svg>