<svg viewBox="0 0 1024 1024" xmlns="http://www.w3.org/2000/svg">
  <path transform="scale(1, -1) translate(0, -960)" fill="currentColor" d="M560 482h-101v92h101v-92zM560 797h-101v-95h101v95zM682 571h-101v-91h101v91zM440 685h-101v-93h101v93zM560 685h-101v-93h101v93zM990 530q-16 12 -49.5 15t-62.5 -3q-3 29 -19.5 53.5t-42.5 46.5l-22 12l-13 -22q-21 -32 -25 -79.5t18 -82.5q-9 -4 -28.5 -10.5 t-44.5 -6.5h-682q-9 -59 7.5 -129.5t59.5 -123.5q42 -50 107 -75.5t149 -25.5q92 0 171 21t144 61t114 99t80 136q24 0 69.5 9t73.5 61q1 2 6 12.5t6 15.5l-16 16v0zM198 571h-102v-91h101v91h1zM318 571h-100v-91h100v91zM440 571h-101v-91h101v91zM318 685h-100v-93h100 v93z" />
</svg>