<svg viewBox="0 0 1024 1024" xmlns="http://www.w3.org/2000/svg">
  <path transform="scale(1, -1) translate(0, -960)" fill="currentColor" d="M635 464h-246q-71 0 -120.5 47t-49.5 115q0 67 50 114t120 47h366q7 0 11.5 4.5t4.5 11.5t-4.5 11.5t-11.5 4.5h-193v93q0 7 -4.5 11.5t-11.5 4.5q-8 0 -12 -4.5t-4 -11.5v-91h-141q-42 0 -79 -15q-37 -16 -64 -42t-43 -61q-16 -36 -16 -76t16 -75q16 -36 43.5 -62 t64.5 -41q36 -15 78 -15h248q71 0 120 -47.5t49 -114.5t-50 -114.5t-119 -47.5h-419q-8 0 -12 -4t-4 -12q0 -7 4 -11.5t12 -4.5h312v-94q0 -7 4 -11.5t12 -4.5q7 0 11.5 4.5t4.5 11.5v91h75q42 0 79 15q36 16 63.5 42t43.5 61q15 36 15 76t-16 76q-16 35 -43.5 61.5 t-64.5 42.5q-37 15 -79 15v0z" />
</svg>