<svg viewBox="0 0 1024 1024" xmlns="http://www.w3.org/2000/svg">
  <path transform="scale(1, -1) translate(0, -960)" fill="currentColor" d="M264 418h94q8 0 12 4t4 12q0 7 -4 11.5t-12 4.5h-41v27q0 7 -4.5 11.5t-11.5 4.5t-11.5 -4.5t-4.5 -11.5v-27h-21q-28 0 -47.5 -20t-19.5 -48q0 -27 19.5 -47t47.5 -20h43q15 0 25 -10.5t10 -24.5t-10 -24.5t-25 -10.5h-94q-7 0 -11.5 -4.5t-4.5 -11.5t4.5 -11.5 t11.5 -4.5h72v-27q0 -8 4.5 -12t11.5 -4t11.5 4t4.5 12v28q24 4 40.5 22.5t16.5 43.5q0 28 -19.5 47.5t-47.5 19.5h-43q-14 0 -24.5 10.5t-10.5 24.5q0 15 10.5 25.5t24.5 10.5v0zM286 586q-52 0 -99 -20q-46 -20 -80.5 -54.5t-54.5 -80.5t-20 -98t20 -99q20 -46 54.5 -80.5 t80.5 -54.5q47 -21 99 -21q53 0 99 20t80.5 54.5t55.5 81.5q20 46 20 99t-20 99q-21 46 -55.5 80t-80.5 54t-99 20v0zM286 110q-46 0 -86 18q-41 17 -71 47.5t-48 70.5q-17 41 -17 87q0 45 17 86q18 40 48 70.5t71 48.5q40 17 86 17q47 0 87 -17q41 -18 71 -48t47 -70 q18 -41 18 -87q-1 -46 -19 -87q-17 -40 -47.5 -70.5t-70.5 -47.5q-40 -18 -86 -18zM987 661l-152 152q-2 2 -4.5 3.5t-6.5 1.5t-6.5 -1.5t-4.5 -3.5l-152 -152q-5 -5 -5 -11.5t5 -11.5q2 -2 5.5 -3t5.5 -1t5.5 1t5.5 3l125 125v-483q0 -58 -41 -98.5t-98 -40.5h-8 q-7 0 -11.5 -4.5t-4.5 -11.5t4.5 -11.5t11.5 -4.5h8q71 0 121 50t50 121v483l125 -125q5 -4 11 -4t11 4q5 5 5 11.5t-5 11.5v0z" />
</svg>