<svg viewBox="0 0 1024 1024" xmlns="http://www.w3.org/2000/svg">
  <path transform="scale(1, -1) translate(0, -960)" fill="currentColor" d="M442 378h-48q-17 0 -28.5 11.5t-11.5 28.5q0 16 11.5 28t28.5 12h105q7 0 11.5 4t4.5 12q0 7 -4.5 11.5t-11.5 4.5h-48v32q0 7 -4.5 11.5t-11.5 4.5t-11.5 -4.5t-4.5 -11.5v-32h-24q-30 0 -51 -21t-21 -51t21 -51t51 -21h48q17 0 28.5 -12t11.5 -28q0 -17 -11.5 -28.5 t-28.5 -11.5h-107q-7 0 -11.5 -4.5t-4.5 -11.5q0 -8 4.5 -12t11.5 -4h80v-32q0 -8 4.5 -12t11.5 -4t11.5 4t4.5 12v33q28 3 46 23t18 49q1 29 -19.5 50t-50.5 21zM989 710q5 17 3 33.5t-10 29.5q-7 13 -20 22.5t-31 14.5q-25 7 -54.5 1.5t-57.5 -21.5q-26 -15 -44.5 -45.5 t-28.5 -58.5q-10 27 -28 58t-46 46q-48 28 -94.5 23t-67.5 -40q-16 -29 -5 -65.5t44 -64.5h-453q-26 0 -45 -18.5t-19 -45.5v-432q0 -26 19 -45t45 -19h803q27 0 45.5 19t18.5 45v432q0 18 -8.5 32t-21.5 23q20 15 35 35t21 41v0zM835 763q22 12 45.5 16.5t41.5 -0.5 q7 -2 16 -6.5t14 -15.5q6 -10 6 -20.5t-3 -18.5q-5 -19 -20.5 -37t-36.5 -30q-5 -2 -11.5 -4.5t-12.5 -3.5h-74q-11 1 -19.5 3t-15.5 4q9 25 27 62t43 51v0zM594 651q-35 21 -51 52t-4 54q13 23 48.5 25t70.5 -19q25 -14 42.5 -51t24.5 -62q-7 -2 -16 -4t-19 -3h-74 q-5 1 -10.5 3.5t-11.5 4.5zM64 146v432q0 13 9.5 22.5t22.5 9.5h635v-496h-635q-13 0 -22.5 9t-9.5 23zM931 146q0 -14 -9.5 -23t-22.5 -9h-136v496h136q13 0 22.5 -9.5t9.5 -22.5v-432z" />
</svg>