<svg viewBox="0 0 256 256" xmlns="http://www.w3.org/2000/svg">
  <path transform="scale(1, -1) translate(0, -256)" fill="currentColor" d="M66 117h24q3 0 5 2t2 5t-2 5.5t-5 2.5h-8v4q0 3 -2 5t-5 2t-5 -2.5t-2 -5.5v-4h-2q-8 0 -14 -5.5t-6 -13.5t6 -14t14 -6h11q2 0 3.5 -1.5t1.5 -4t-1.5 -4t-3.5 -1.5h-24q-3 0 -5 -2t-2 -5t2 -5.5t5 -2.5h15v-4q0 -3 2 -5t5 -2t5 2t2 5v5q7 2 11 7t4 12.5t-6 13.5t-14 6 h-11q-2 0 -3.5 1.5t-1.5 4t1.5 4t3.5 1.5zM72 166q-18 0 -33.5 -9t-24.5 -24.5t-9 -33.5t9 -33t24.5 -24t33.5 -9t33 9t24 24t9 33t-9 33.5t-24.5 24.5t-32.5 9zM72 47q-22 0 -37.5 15.5t-15.5 37t15.5 37t37 15.5t37 -15.5t15.5 -37t-15.5 -37t-36.5 -15.5zM249 183l-38 38 q-2 2 -5 2t-5 -2l-38 -38q-2 -2 -2 -5t2 -5t5 -2t5 2l26 26v-113q0 -14 -9.5 -23t-22.5 -9h-2q-3 0 -5 -2.5t-2 -5.5t2 -5t5 -2h2q19 0 32.5 13.5t13.5 32.5v115l26 -26q2 -2 5 -2t5 1.5t2 4.5t-2 5z" />
</svg>