<svg viewBox="0 0 1024 1024" xmlns="http://www.w3.org/2000/svg">
  <path transform="scale(1, -1) translate(0, -960)" fill="currentColor" d="M282 275h76q8 0 12 4.5t4 11.5t-4 11.5t-12 4.5h-30v19q0 8 -4.5 12t-11.5 4t-11.5 -4t-4.5 -12v-19h-13q-24 0 -40.5 -16.5t-16.5 -40.5t16.5 -41t40.5 -17h35q11 0 18.5 -7.5t7.5 -18.5q0 -10 -8 -16t-19 -6h-77q-7 0 -11.5 -4.5t-4.5 -11.5t4.5 -11.5t11.5 -4.5h54 v-19q0 -7 4.5 -11.5t11.5 -4.5q8 0 12 4.5t4 11.5v21q21 3 34 18.5t13 37.5q0 24 -17 40.5t-41 16.5h-35q-11 0 -18.5 7.5t-7.5 18.5t8.5 16.5t19.5 5.5v0zM797 696q-40 0 -73.5 -16.5t-56.5 -44.5l-176 125q3 8 4 17.5t1 19.5q0 55 -39 94t-94 39t-94 -39t-39 -94t39 -94 t94 -39q36 0 66.5 18.5t47.5 47.5l169 -120q-10 -18 -16 -39.5t-6 -44.5q0 -21 5 -40.5t14 -37.5l-149 -98q-32 47 -84.5 75.5t-113.5 28.5q-50 0 -94 -19t-76.5 -51.5t-52.5 -76.5q-19 -44 -19 -94t20 -94q19 -45 52.5 -78.5t77.5 -52.5q45 -20 95 -20t94 19t77 52t52 77 t19 94q0 30 -7 58t-20 54l150 99q23 -30 57.5 -47t75.5 -17q71 0 120 50t49 119q0 70 -49 120t-120 50v0zM365 696q-42 0 -71.5 29.5t-29.5 71.5t29.5 71.5t71.5 29.5t71.5 -29.5t29.5 -71.5t-29.5 -71.5t-71.5 -29.5zM299 0q-43 0 -81 17q-38 16 -66.5 44.5t-45.5 66.5 q-16 38 -16 82q0 43 16 81q17 38 45.5 66.5t66.5 45.5q38 16 81 16t82 -16q38 -17 66.5 -45.5t44.5 -66.5q17 -38 17 -81q0 -44 -17 -82q-16 -38 -44.5 -66.5t-66.5 -44.5q-39 -17 -82 -17v0zM797 387q-58 0 -98 40.5t-40 97.5t40.5 97t97.5 40q56 0 96.5 -40.5t40.5 -96.5 q0 -57 -40 -97.5t-97 -40.5z" />
</svg>