<svg viewBox="0 0 256 256" xmlns="http://www.w3.org/2000/svg">
  <path transform="scale(1, -1) translate(0, -256)" fill="currentColor" d="M110 114h-12q-3 0 -5 2t-2 5t2 5t5 2h27q3 0 5 2t2 5t-2 5t-5 2h-9v6q0 3 -2.5 5t-5.5 2t-5 -2t-2 -5v-6h-3q-9 0 -15 -6t-6 -14.5t6 -15t15 -6.5h12q3 0 5 -2t2 -5t-2 -5t-5 -2h-26q-3 0 -5 -2.5t-2 -5.5t2 -5t5 -2h17v-5q0 -3 2 -5t5 -2t5.5 2t2.5 5v6q7 1 11.5 7t4 14 t-6.5 14.5t-15 6.5zM250 193q3 10 -2 18t-14 11q-7 1 -15 0t-15 -6q-10 -5 -17 -20q-7 15 -17 20q-13 8 -26 6.5t-18 -11.5q-5 -7 -3.5 -15.5t8.5 -15.5h-107q-8 0 -13.5 -6t-5.5 -14v-108q0 -7 5.5 -13t13.5 -6h201q8 0 13.5 5.5t5.5 13.5v108q0 9 -6 14q10 9 12 19z M210 204q5 3 10.5 4t9.5 0t6 -4t0 -7q-2 -9 -12 -15q-4 -2 -6 -2h-18l-4 1q6 19 14 23zM150 182q-8 4 -11.5 11t-1 11.5t10.5 4.5t15.5 -4.5t14.5 -23.5q-3 -1 -5 -1h-18q-3 0 -5 2zM19 52v108q0 3 1.5 4.5t3.5 1.5h156v-118h-156q-2 0 -3.5 1t-1.5 3zM230 52q0 -2 -2 -3.5 t-4 -1.5h-30v119h30q2 0 4 -2t2 -4v-108z" />
</svg>