<svg viewBox="0 0 256 256" xmlns="http://www.w3.org/2000/svg">
  <path transform="scale(1, -1) translate(0, -256)" fill="currentColor" d="M121 157h31q3 0 5 2t2 5t-2 5t-5 2h-12v7q0 3 -2.5 5.5t-5.5 2.5t-5 -2.5t-2 -5.5v-7h-5q-9 0 -16 -6.5t-7 -16.5t7 -17t17 -7h14q4 0 6.5 -3t2.5 -6.5t-2.5 -6t-6.5 -2.5h-31q-3 0 -5 -2.5t-2 -5.5t2 -5t5 -2h21v-7q0 -3 2 -5t5 -2t5.5 2t2.5 5v8q8 1 13 7.5t5 15.5 t-6.5 16t-16.5 7h-14q-4 0 -7 2.5t-3 6.5t3 7t7 3zM128 251q-32 0 -60 -16.5t-44 -44t-16 -59.5q0 -20 6.5 -39t18.5 -35q-15 -25 -18 -39q-2 -7 3 -11v0q4 -2 8 -2q16 0 51 17q24 -11 51 -11q32 0 60 16t44 43.5t16 60t-16 60.5t-44 44t-60 16zM128 25q-26 0 -48 11 q-3 1 -6 0q-14 -7 -26 -11.5t-19 -5.5q5 13 18 35q1 2 1 4.5t-2 3.5q-12 15 -18.5 32.5t-6.5 36.5q1 29 15.5 53t38.5 38.5t53 14.5t53 -14.5t38.5 -38.5t14.5 -53t-14.5 -53.5t-38.5 -38.5t-53 -14z" />
</svg>