<svg viewBox="0 0 256 256" xmlns="http://www.w3.org/2000/svg">
  <path transform="scale(1, -1) translate(0, -256)" fill="currentColor" d="M121 178h29q3 0 5 2t2 5t-2 5t-5 2h-11v6q0 3 -2 5t-5 2t-5 -2t-2 -5v-6h-4q-10 0 -16.5 -6.5t-6.5 -16t6.5 -16t16.5 -6.5h13q4 0 6 -2.5t2 -6t-2 -6t-6 -2.5h-29q-3 0 -5 -2t-2 -5t2 -5t5 -2h20v-6q0 -3 2 -5t5 -2t5 2t2 5v7q8 1 13 7.5t5 15t-6.5 15t-16.5 6.5h-13 q-3 0 -5.5 2.5t-2.5 6t2.5 6t5.5 2.5zM232 244h-208q-8 0 -13.5 -5.5t-5.5 -13.5v-136q0 -8 5.5 -13.5t13.5 -5.5h98v-44h-36q-3 0 -5.5 -2.5t-2.5 -5.5t2.5 -5t5.5 -2h86q3 0 5 2t2 5t-2 5.5t-5 2.5h-36v44h96q8 0 13.5 5.5t5.5 13.5v136q0 8 -5.5 13.5t-13.5 5.5zM237 89 q0 -2 -1.5 -3.5t-3.5 -1.5h-208q-2 0 -3.5 1.5t-1.5 3.5v136q0 5 5 5h208q2 0 3.5 -1.5t1.5 -3.5v-136z" />
</svg>