<svg viewBox="0 0 256 256" xmlns="http://www.w3.org/2000/svg">
  <path transform="scale(1, -1) translate(0, -256)" fill="currentColor" d="M128 84q25 0 41.5 9.5t16.5 24t-16.5 24t-41.5 9.5t-41.5 -9.5t-16.5 -24t16.5 -24t41.5 -9.5zM128 137q19 0 31.5 -6t12.5 -13t-12.5 -13t-31.5 -6t-31.5 6t-12.5 13t12.5 13t31.5 6zM180 79q-2 1 -5 0t-3 -4q-3 -6 -15 -11t-28.5 -5t-28.5 4.5t-14 10.5q-2 3 -4.5 4 t-5 -0.5t-3.5 -4t0 -5.5q5 -10 20 -16.5t35 -6.5t35 6q18 7 22 19q1 3 -0.5 5.5t-4.5 3.5zM180 40q-2 1 -5 -0.5t-3 -3.5q-3 -7 -15 -12t-28.5 -5t-28.5 4.5t-14 11.5q-2 3 -4.5 3.5t-5 -0.5t-3.5 -4t0 -5q5 -11 20 -17.5t35 -6.5t35 6q18 7 22 20q1 2 -0.5 4.5t-4.5 4.5z M134 185h-26q-3 0 -5 -2t-2 -5t2 -5.5t5 -2.5h17v-4q0 -3 2 -5.5t5 -2.5t5 2.5t2 5.5v5q7 2 11.5 7.5t4.5 13t-6 14t-15 6.5h-12q-2 0 -4 1.5t-2 4.5t2 5t4 2h26q3 0 5 2t2 5t-2 5.5t-5 2.5h-9v4q0 3 -2 5t-5 2t-5 -2t-2 -5v-5h-3q-9 0 -15 -6t-6 -14.5t6 -14.5t15 -6h12 q2 0 4 -2t2 -5t-1.5 -4.5t-4.5 -1.5z" />
</svg>