<svg viewBox="0 0 1024 1024" xmlns="http://www.w3.org/2000/svg">
  <path transform="scale(1, -1) translate(0, -960)" fill="currentColor" d="M586 341h-116q-7 0 -11.5 -4.5t-4.5 -11.5t4.5 -11.5t11.5 -4.5h92v-37q0 -7 4 -11.5t12 -4.5q7 0 11.5 4.5t4.5 11.5v38q30 3 51 25t21 52q0 33 -23 56t-56 23h-53q-19 0 -32.5 13.5t-13.5 32.5t13.5 32.5t32.5 13.5h116q7 0 11.5 4.5t4.5 11.5q0 8 -4.5 12t-11.5 4h-56 v34q0 7 -4.5 11.5t-11.5 4.5q-8 0 -12 -4.5t-4 -11.5v-37h-29q-33 0 -56 -23t-23 -55q0 -33 23 -56t56 -23h53q19 0 32.5 -13.5t13.5 -32.5t-13.5 -31t-32.5 -12v0zM549 885q-46 0 -90 -10q-44 -9 -85.5 -27t-78.5 -44t-68 -60q-5 -5 -4 -11.5t6 -10.5q5 -5 11 -4.5t11 5.5 q29 31 63 56q35 24 73 41t79 26q41 8 83 8q84 0 158 -32q73 -32 128 -87t87 -128q32 -74 32 -157q0 -84 -32 -158t-87 -129t-129 -86q-74 -32 -157 -32q-66 0 -127 20t-111.5 57t-88.5 88q-38 52 -59 115q0 1 -0.5 1h-0.5h2t1 -1l113 -47q6 -2 12.5 0t8.5 8q3 6 0.5 12.5 t-8.5 8.5l-113 47q-12 4 -24 4t-24 -4q-12 -5 -20.5 -14t-13.5 -20l-46 -114q-3 -6 -0.5 -12t8.5 -8q1 -2 3 -2h3q5 0 9 2.5t5 7.5l47 113q1 4 3 6.5t3 4.5v-2v-2q22 -68 63 -124t96 -95.5t120 -61.5q66 -22 137 -22q91 0 170 35q80 34 139 93.5t94 138.5q34 80 34 170 t-34 170q-34 79 -93 138.5t-138 93.5q-80 35 -170 35v0z" />
</svg>