<svg viewBox="0 0 1024 1024" xmlns="http://www.w3.org/2000/svg">
  <path transform="scale(1, -1) translate(0, -960)" fill="currentColor" d="M269 418h96q7 0 11.5 4t4.5 12q0 7 -4.5 11.5t-11.5 4.5h-43v28q0 8 -4.5 12t-11.5 4q-8 0 -12 -4t-4 -12v-28h-21q-28 0 -48.5 -20t-20.5 -48q0 -27 20 -47t49 -20h45q14 0 25 -10.5t11 -24.5t-10.5 -24.5t-25.5 -10.5h-96q-8 0 -12 -4.5t-4 -11.5t4 -11.5t12 -4.5h73 v-29q0 -7 4.5 -11.5t11.5 -4.5t11.5 4.5t4.5 11.5v29q25 3 42 22t17 45q0 28 -20 47.5t-48 19.5h-45q-15 0 -26 10.5t-11 24.5q0 15 11 25.5t26 10.5zM291 589q-53 0 -100 -21q-48 -20 -83 -55.5t-56 -82.5q-20 -47 -20 -100q0 -54 20 -101q21 -47 56 -82.5t83 -55.5 q47 -21 100 -21q54 0 101 21q47 20 82 55.5t56 82.5q20 47 20 101q0 53 -20 100q-21 47 -56 82.5t-82 55.5q-47 21 -101 21v0zM291 102q-47 0 -88 18t-72 49t-49 72q-18 42 -18 89q0 46 18 88q18 41 49 72t72 49t88 18t88 -18q42 -18 72.5 -49t48.5 -72q18 -42 18 -88 q0 -47 -18 -89q-17 -41 -48 -72t-73 -49q-41 -18 -88 -18v0zM987 283q-5 5 -11 5t-11 -5l-128 -128v496q0 72 -51.5 123.5t-123.5 51.5h-8q-7 0 -11.5 -4.5t-4.5 -11.5q0 -8 4.5 -12t11.5 -4h8q59 0 101 -42t42 -101v-496l-128 128q-5 5 -11.5 5t-11.5 -5q-4 -5 -4 -11 t4 -11l156 -155q2 -3 4.5 -4t6.5 -1q3 0 6 1t5 4l155 155q5 5 5 11t-5 11v0z" />
</svg>