<svg viewBox="0 0 1024 1024" xmlns="http://www.w3.org/2000/svg">
  <path transform="scale(1, -1) translate(0, -960)" fill="currentColor" d="M512 778q-7 0 -11.5 -4.5t-4.5 -11.5v-18h-16q-32 0 -55 -25t-23 -60t23 -60t55 -25h64q19 0 32.5 -15.5t13.5 -36.5q0 -22 -13.5 -37.5t-32.5 -15.5h-99q-7 0 -11.5 -4.5t-4.5 -11.5t4.5 -11.5t11.5 -4.5h51v-18q0 -7 4.5 -11.5t11.5 -4.5t11.5 4.5t4.5 11.5v18h16 q32 0 55 25t23 60q0 34 -23 59t-55 25h-64q-19 0 -32.5 16t-13.5 37q0 22 13.5 37.5t32.5 15.5h101q7 0 11.5 4.5t4.5 11.5t-4.5 11.5t-11.5 4.5h-53v18q0 6 -5 11t-11 5zM512 928q-70 0 -132 -26q-61 -27 -107 -72.5t-72 -106.5q-27 -61 -27 -131q0 -77 33.5 -145.5 t93.5 -116.5q2 -2 4.5 -3t4.5 -1q4 0 7.5 1.5t5.5 5.5q4 5 3.5 12t-6.5 10q-54 43 -84 105t-30 132q0 63 25 118q24 56 65.5 97t96.5 65q56 24 119 24t119 -24q55 -24 96.5 -65t65.5 -97q25 -55 25 -118q0 -7 4 -11.5t12 -4.5q7 0 11.5 4.5t4.5 11.5q0 70 -27 131 q-26 61 -72 106.5t-107 72.5q-62 26 -132 26zM792 304h-162q-7 0 -11.5 -4.5t-4.5 -11.5t4.5 -11.5t11.5 -4.5h127l-210 -144q-5 -4 -10.5 -5t-11.5 -1h-194q-15 0 -29 -6t-24 -17l-100 -104q-5 -5 -5 -11t5 -11q2 -3 4.5 -4t6.5 -1q3 0 6 1t5 4l101 104q5 6 12.5 8.5 t16.5 2.5h195q11 0 21 3.5t19 9.5l209 145v-118q0 -7 4.5 -11.5t11.5 -4.5q8 0 12 4.5t4 11.5v160q2 7 -2.5 11.5t-11.5 4.5v0z" />
</svg>