<svg viewBox="0 0 256 256" xmlns="http://www.w3.org/2000/svg">
  <path transform="scale(1, -1) translate(0, -256)" fill="currentColor" d="M221 237h-186q-12 0 -21 -8.5t-9 -19.5v-116q0 -12 9 -20t21 -8h93q3 0 5 2t2 5t-2 5t-5 2h-93q-6 0 -11 4t-5 10v53h218v-32q0 -3 2 -5t5 -2t5.5 2t2.5 5v95q-1 12 -10 20t-21 8zM35 223h186q6 0 11 -4t5 -10v-14h-218v14q0 6 5 10t11 4zM19 160v20h218v-20h-218z M198 78h-16q-4 0 -6.5 3t-2.5 7.5t2.5 7.5t6.5 3h26q3 0 5 2t2 5t-2 5.5t-5 2.5h-11v2q0 3 -2 5t-5 2t-5 -2t-2 -5v-2h-1q-10 0 -17 -7.5t-7 -17.5t7 -17.5t17 -7.5h16q4 0 6.5 -3t2.5 -7.5t-2.5 -8t-6.5 -3.5h-26q-3 0 -5 -2t-2 -5t2 -5t5 -2h11v-2q0 -3 2 -5t5 -2t5 2t2 5 v2h1q10 0 17 7.5t7 17.5t-7 17.5t-17 7.5z" />
</svg>