<svg viewBox="0 0 1024 1024" xmlns="http://www.w3.org/2000/svg">
  <path transform="scale(1, -1) translate(0, -960)" fill="currentColor" d="M512 286q95 0 157 34.5t62 87.5t-62 87.5t-157 34.5t-157 -34.5t-62 -87.5t62 -87.5t157 -34.5zM512 496q79 0 133 -25.5t54 -64.5q0 -37 -54 -63t-133 -26t-133 25.5t-54 63.5q0 39 54 64.5t133 25.5zM717 242q-6 2 -12.5 -1t-8.5 -9q-6 -16 -22.5 -29.5t-41.5 -23.5 q-25 -9 -55.5 -14t-64.5 -5q-66 0 -117 19.5t-65 49.5q-3 6 -9 8t-12 0q-6 -3 -8.5 -9t0.5 -12q18 -41 75.5 -64.5t135.5 -23.5q36 0 70 6t61 16q33 14 54 32t29 40q3 6 0 11.5t-9 8.5v0zM717 83q-6 3 -12.5 0t-8.5 -9q-6 -16 -22.5 -30t-41.5 -23q-25 -11 -55.5 -16 t-64.5 -5q-66 0 -117 19.5t-65 49.5q-3 6 -9 8t-12 0q-6 -3 -8.5 -9t0.5 -12q18 -41 75.5 -64.5t135.5 -23.5q36 0 70 6t61 16q33 14 54 32t29 40q3 6 0 12.5t-9 8.5v0zM536 662h-102q-8 0 -12 -4t-4 -12q0 -7 4 -11.5t12 -4.5h78v-30q0 -7 4.5 -11.5t11.5 -4.5t11.5 4.5 t4.5 11.5v32q26 4 44 23.5t18 46.5q0 29 -20.5 50t-49.5 21h-46q-16 0 -27.5 11.5t-11.5 26.5q0 16 11.5 27.5t27.5 11.5h102q7 0 11.5 4t4.5 12q0 7 -4.5 11.5t-11.5 4.5h-48v30q0 7 -4.5 11.5t-11.5 4.5t-11.5 -4.5t-4.5 -11.5v-30h-24q-29 0 -49.5 -21t-20.5 -50 t20.5 -49.5t49.5 -20.5h46q16 0 27.5 -11.5t11.5 -27.5q0 -15 -10.5 -27.5t-26.5 -12.5z" />
</svg>