<svg viewBox="0 0 1024 1024" xmlns="http://www.w3.org/2000/svg">
  <path transform="scale(1, -1) translate(0, -960)" fill="currentColor" d="M485 659h115q7 0 11.5 4.5t4.5 11.5t-4.5 11.5t-11.5 4.5h-54v37q0 7 -4.5 11.5t-11.5 4.5q-8 0 -12 -4.5t-4 -11.5v-37h-29q-33 0 -56 -22.5t-23 -54.5q0 -31 23 -53.5t56 -22.5h53q19 0 32.5 -13.5t13.5 -31.5q0 -19 -13.5 -32t-32.5 -13h-116q-7 0 -11.5 -4.5 t-4.5 -11.5t4.5 -11.5t11.5 -4.5h90v-37q0 -7 4.5 -11.5t11.5 -4.5t11.5 4.5t4.5 11.5v37q30 2 50 24.5t20 52.5q0 32 -23 54.5t-55 22.5h-53q-19 0 -32.5 13t-13.5 31t15 31.5t33 13.5v0zM928 901h-832q-26 0 -45 -19t-19 -45v-546q0 -26 19 -45t45 -19h400v-200h-155 q-7 0 -11.5 -4.5t-4.5 -11.5t4.5 -11.5t11.5 -4.5h344q7 0 11.5 4.5t4.5 11.5t-4.5 11.5t-11.5 4.5h-157v200h400q26 0 45 19t19 45v546q0 26 -19 45t-45 19zM960 291q0 -13 -9.5 -22.5t-22.5 -9.5h-832q-13 0 -22.5 9.5t-9.5 22.5v546q0 13 9.5 22.5t22.5 9.5h832 q13 0 22.5 -9.5t9.5 -22.5v-546z" />
</svg>