<svg viewBox="0 0 256 256" xmlns="http://www.w3.org/2000/svg">
  <path transform="scale(1, -1) translate(0, -256)" fill="currentColor" d="M159 135h-62q-16 0 -27.5 11t-11.5 26.5t11.5 26.5t27.5 11h92q3 0 5 2t2 5t-2.5 5t-5.5 2h-45v20q0 3 -2 5t-5 2t-5 -2t-2 -5v-20h-32q-15 0 -27 -7t-19.5 -19t-7.5 -26t7.5 -25.5t19.5 -18.5t27 -7h62q16 0 27.5 -11t11.5 -26.5t-11.5 -26.5t-27.5 -11h-105 q-3 0 -5 -2.5t-2 -5.5t2 -5t5 -2h75v-20q0 -3 2 -5t5 -2t5.5 2t2.5 5v20h15q15 0 27 7t19.5 19t7.5 26t-7.5 26t-20 19t-26.5 7z" />
</svg>