<svg viewBox="0 0 1024 1024" xmlns="http://www.w3.org/2000/svg">
  <path transform="scale(1, -1) translate(0, -960)" fill="currentColor" d="M558 672h-99q-7 0 -11.5 -4.5t-4.5 -11.5t4.5 -11.5t11.5 -4.5h75v-29q0 -7 4.5 -11.5t11.5 -4.5q8 0 12 4.5t4 11.5v31q26 3 43.5 21.5t17.5 45.5q0 29 -20 49t-49 20h-46q-16 0 -26.5 10.5t-10.5 25.5q0 16 10.5 26.5t26.5 10.5h99q7 0 11.5 4.5t4.5 11.5t-4.5 11.5 t-11.5 4.5h-45v29q0 7 -4 11.5t-12 4.5q-7 0 -11.5 -4.5t-4.5 -11.5v-29h-22q-29 0 -49 -20t-20 -49q0 -28 20 -48t49 -20h45q15 0 26 -11t11 -26q0 -16 -10.5 -26.5t-25.5 -10.5zM968 147q-5 5 -11.5 5t-10.5 -5l-148 -147h-267v107h234q3 0 6 1.5t5 3.5l179 179 q5 5 5 11.5t-5 11.5q-5 4 -11 4t-11 -4l-175 -175h-227v107h203q4 0 6.5 1.5t5.5 3.5l201 199q4 3 5 7.5t-2 9.5q-2 5 -5.5 7.5t-8.5 2.5h-667q-4 0 -6.5 -1.5t-4.5 -3.5l-202 -198q-4 -4 -5 -8.5t2 -9.5q2 -5 5.5 -7.5t8.5 -2.5h253v-107h-253q-7 0 -11.5 -4.5t-4.5 -11.5 t4.5 -11.5t11.5 -4.5h253v-107h-253q-7 0 -11.5 -4.5t-4.5 -11.5t4.5 -11.5t11.5 -4.5h738q3 0 6 1t5 4l152 152q5 5 5 12t-5 10v0zM728 278h-176l155 167h189zM664 445l-155 -167h-135l154 167h136zM275 445h210l-155 -167h-224l169 167v0zM352 0v246h147v-123v0v0v0v0 v-123h-147v0z" />
</svg>