<svg viewBox="0 0 256 256" xmlns="http://www.w3.org/2000/svg">
  <path transform="scale(1, -1) translate(0, -256)" fill="currentColor" d="M146 104h-28q-3 0 -5.5 -2t-2.5 -5t2.5 -5t5.5 -2h19v-6q0 -3 2 -5t5 -2t5.5 2t2.5 5v7q7 1 12.5 7.5t5.5 15t-6.5 15t-16.5 6.5h-13q-4 0 -6 2.5t-2 6t2.5 6t5.5 2.5h29q3 0 5 2t2 5t-2 5t-5 2h-11v6q0 3 -2 5t-5 2t-5.5 -2t-2.5 -5v-6h-4q-9 0 -15.5 -6.5t-6.5 -16 t6.5 -16t15.5 -6.5h13q4 0 6.5 -2.5t2.5 -6t-2.5 -6t-6.5 -2.5zM137 240q-23 0 -44.5 -9.5t-37.5 -26.5q-2 -2 -2 -5t2 -5t5 -2t5 2q14 15 33 23.5t40 8.5q26 0 48.5 -13t36 -36t13.5 -49.5t-13 -49t-36 -36t-49 -13.5q-33 0 -58.5 19t-35.5 49v1l22 -9q3 -1 5.5 0t4 3.5 t0 5.5t-3.5 4l-29 12q-7 3 -14.5 0t-9.5 -10l-12 -29q-1 -2 0 -5t4 -4h3q5 0 6 4l10 25l1 -1q11 -35 40.5 -56.5t66.5 -21.5q30 0 56 15t41 41t15 56.5t-15.5 56t-41 40.5t-56.5 15z" />
</svg>