<svg viewBox="0 0 1024 1024" xmlns="http://www.w3.org/2000/svg">
  <path transform="scale(1, -1) translate(0, -960)" fill="currentColor" d="M990 456q-39 66 -91 119q-53 53 -115 90t-131 57t-141 20t-141 -20t-131 -57t-115 -90q-52 -53 -91 -119q-3 -4 -3 -8t3 -8q39 -66 91 -119q53 -53 115 -90t131 -57t141 -20t141 19q69 20 131 57t115 90q52 53 91 120q2 4 2 8t-2 8zM512 186q-67 0 -131 18t-121.5 52 t-106.5 83q-49 48 -86 109q37 61 86 109q49 49 106.5 83t121.5 52t131 18t131 -18t121.5 -52t106.5 -83q49 -48 86 -109q-37 -61 -86 -109q-49 -49 -106.5 -83t-121.5 -52t-131 -18v0zM488 542h104q7 0 11.5 4.5t4.5 11.5q0 8 -4.5 12t-11.5 4h-48v32q0 8 -4.5 12t-11.5 4 t-11.5 -4t-4.5 -12v-32h-24q-30 0 -51 -21t-21 -51t21 -51t51 -21h48q17 0 28.5 -11.5t11.5 -28.5q0 -16 -11.5 -28t-28.5 -12h-104q-7 0 -11.5 -4t-4.5 -12q0 -7 4.5 -11.5t11.5 -4.5h80v-32q0 -7 4.5 -11.5t11.5 -4.5t11.5 4.5t4.5 11.5v32q26 4 45 23.5t19 47.5 q0 30 -21 51t-51 21h-48q-17 0 -28.5 11.5t-11.5 28.5t11.5 29t28.5 12z" />
</svg>