<svg viewBox="0 0 1024 1024" xmlns="http://www.w3.org/2000/svg">
  <path transform="scale(1, -1) translate(0, -960)" fill="currentColor" d="M883 872h-742q-45 0 -77 -30t-32 -71v-464q0 -42 32 -71.5t77 -29.5h369q8 0 12 4.5t4 11.5q0 8 -4 12t-12 4h-369q-31 0 -54 20t-23 49v226h896v-139q0 -8 4.5 -12t11.5 -4t11.5 4t4.5 12v377q0 41 -32 71t-77 30v0zM141 840h742q31 0 54 -20t23 -49v-69h-896v69 q0 28 23 48.5t54 20.5zM64 565v105h896v-105h-896zM794 235h-66q-20 0 -34 16.5t-14 39.5t14.5 39.5t33.5 16.5h104q7 0 11.5 4.5t4.5 11.5t-4.5 11.5t-11.5 4.5h-56v19q0 8 -4.5 12t-11.5 4t-11.5 -4t-4.5 -12v-19h-18q-33 0 -56.5 -26t-23.5 -62t24 -62t56 -26h66 q20 0 34 -16.5t14 -39.5t-14.5 -39.5t-33.5 -16.5h-104q-7 0 -11.5 -4.5t-4.5 -11.5t4.5 -11.5t11.5 -4.5h56v-19q0 -7 4.5 -11.5t11.5 -4.5t11.5 4.5t4.5 11.5v19h16q34 0 57 26t23 62q1 36 -22 62t-56 26z" />
</svg>