<svg viewBox="0 0 256 256" xmlns="http://www.w3.org/2000/svg">
  <path transform="scale(1, -1) translate(0, -256)" fill="currentColor" d="M140 187h-25q-3 0 -5 -2t-2 -5t2 -5t5 -2h15v-5q0 -3 2.5 -5t5.5 -2t5 2t2 5v6q7 1 11 6.5t4 13.5t-6 13.5t-14 5.5h-12q-3 0 -4.5 2t-1.5 4.5t1.5 4t4.5 1.5h25q3 0 5 2t2 5t-2 5.5t-5 2.5h-8v4q0 3 -2 5t-5 2t-5.5 -2t-2.5 -5v-4h-2q-8 0 -14 -6t-6 -14.5t6 -14 t14 -5.5h11q3 0 5 -2t2 -4.5t-2 -4.5t-4 -2zM244 55q-2 2 -5 2t-5 -2l-36 -36h-62v21h55q3 0 5 2l44 45q3 2 3 5t-2.5 5t-5 2t-5.5 -2l-42 -43h-52v20h47q3 0 5 2l50 50q2 2 2.5 4t-0.5 4q-2 4 -6 4h-167q-3 0 -5 -2l-50 -50q-2 -1 -2 -3v-4q3 -5 7 -5h60v-20h-60 q-3 0 -5 -2.5t-2 -5.5t2 -5t5 -2h60v-21h-60q-3 0 -5 -2t-2 -5t2 -5t5 -2h184q3 0 5 2l38 38q2 3 2 6t-2 5zM181 88h-36l33 36h39zM159 124l-33 -36h-26l33 36h26zM70 124h44l-33 -36h-47zM91 19v55h31v-55h-31z" />
</svg>