<svg viewBox="0 0 256 256" xmlns="http://www.w3.org/2000/svg">
  <path transform="scale(1, -1) translate(0, -256)" fill="currentColor" d="M70 82h20q3 0 5 2t2 5t-2.5 5t-4.5 2h-5v2q0 3 -2 5t-5 2t-5.5 -2t-2.5 -5v-2v0q-7 0 -12 -5t-5 -12t5 -12t12 -5h9q1 0 2 -1t1 -2.5t-1 -2.5t-2 -1h-19q-3 0 -5 -2t-2 -5t2 -5t5 -2h11v-2q0 -3 2 -5t5 -2t5 2t2 5v3q5 2 8.5 6.5t3.5 11t-5 11.5t-12 5h-9q-2 0 -2.5 1 t-0.5 3t2 2zM199 193q-19 0 -33 -14l-40 28q1 5 1 8q0 15 -10.5 25.5t-25.5 10.5t-25.5 -10.5t-10.5 -25.5t10.5 -25.5t25.5 -10.5q9 0 17 4t12 11l38 -27q-4 -10 -4 -19.5t4 -18.5l-33 -22q-9 12 -22 18.5t-29.5 6.5t-31 -8.5t-23 -23t-8.5 -32t8.5 -32t23 -23t32 -8.5 t32 8.5t23 23t8.5 31.5q0 15 -6 27l34 22q6 -7 15 -11t19 -4q19 0 32 13.5t13 32t-13.5 32t-32.5 13.5zM91 193q-9 0 -15.5 6.5t-6.5 15.5t6.5 15.5t15.5 6.5t15.5 -6.5t6.5 -15.5t-6.5 -15.5t-15.5 -6.5zM75 19q-21 0 -35.5 14.5t-14.5 35t14.5 35t35 14.5t35 -14.5 t14.5 -35t-14.5 -35t-34.5 -14.5zM199 116q-13 0 -22 9t-9 22.5t9 22.5t22 9t22.5 -9t9.5 -22.5t-9.5 -22.5t-22.5 -9z" />
</svg>