<svg viewBox="0 0 1024 1024" xmlns="http://www.w3.org/2000/svg">
  <path transform="scale(1, -1) translate(0, -960)" fill="currentColor" d="M483 574h123q8 0 12 4.5t4 11.5q0 8 -4 12t-12 4h-59v40q0 8 -4.5 12t-11.5 4t-11.5 -4t-4.5 -12v-40h-30q-34 0 -58 -24t-24 -57q0 -34 24 -58t58 -24h56q20 0 34.5 -14.5t14.5 -34.5q0 -21 -14.5 -35.5t-34.5 -14.5h-123q-8 0 -12 -4.5t-4 -11.5t4 -11.5t12 -4.5h97 v-40q0 -7 4.5 -11.5t11.5 -4.5t11.5 4.5t4.5 11.5v42q31 2 53 25.5t22 55.5q0 34 -24 58t-57 24h-56q-21 0 -35.5 14.5t-14.5 34.5q0 21 14 34.5t34 13.5v0zM512 928q-97 0 -182 -37t-149 -100.5t-101 -148.5q-37 -86 -37 -183q0 -40 7 -79q7 -40 20 -77t33 -71 q19 -35 44 -66q-13 -21 -40.5 -72.5t-36.5 -85.5q-3 -13 1 -20.5t7 -11.5q5 -4 12 -6t16 -2q37 0 97 23.5t106 45.5q48 -23 98.5 -35t104.5 -12q97 0 182 37t149 100.5t101 149.5q37 85 37 182t-37 183q-37 85 -101 148.5t-149 100.5t-182 37v0zM512 24q-52 0 -101 12 t-94 34q-4 2 -7.5 2t-7.5 -2q-67 -33 -125.5 -53.5t-75.5 -16.5q9 37 43.5 98t34.5 62q3 5 2.5 9.5t-3.5 9.5q-50 59 -76.5 131t-26.5 149q0 91 35 170q34 80 93.5 139t138.5 94q80 34 170 34t169 -34q80 -35 139.5 -94t93.5 -139q35 -79 35 -170q0 -90 -35 -170 q-34 -79 -93.5 -138t-138.5 -93q-80 -34 -170 -34v0z" />
</svg>