<svg viewBox="0 0 256 256" xmlns="http://www.w3.org/2000/svg">
  <path transform="scale(1, -1) translate(0, -256)" fill="currentColor" d="M244 161h-16v11q0 9 -7 16t-17 7h-3v19q0 8 -5.5 13.5t-13.5 5.5h-131q-8 0 -14 -6t-6 -15v-62q-12 -10 -19 -24.5t-7 -30.5q0 -20 10 -36.5t26.5 -26t36.5 -9.5t37.5 11t26.5 30h62q10 0 17 7t7 17v21h16q3 0 5 2t2 5v38q0 3 -2 5t-5 2zM45 212q0 3 2 5t4 2h131 q2 0 4 -1.5t2 -3.5v-19h-136q-3 0 -5 1.5t-2 4.5v11zM77 37q-16 0 -29 7.5t-21 21t-8 29.5t8 29t21 21t29 8t29.5 -8t21 -21t7.5 -29t-7.5 -29.5t-21 -21t-29.5 -7.5zM214 88q0 -4 -3 -7t-7 -3h-57q2 9 2 17q0 20 -10 36.5t-26.5 26t-35.5 9.5q-17 0 -33 -7v23q3 -1 7 -1 h153q4 0 7 -3t3 -7v-10h-15q-9 0 -15 -6t-6 -15v-11q0 -8 6 -14t15 -6h15v-22zM237 124h-38q-3 0 -4.5 1.5t-1.5 4.5v11q0 3 1.5 4.5t4.5 1.5h38v-23zM72 112h22q3 0 5 2t2 5t-2 5t-5 2h-6v3q0 3 -2.5 5t-5.5 2t-5 -2t-2 -5v-3h-1q-8 0 -13.5 -5.5t-5.5 -13.5t5.5 -13.5 t13.5 -5.5h10q2 0 3.5 -1.5t1.5 -3.5t-1.5 -3.5t-3.5 -1.5h-22q-3 0 -5 -2t-2 -5t2 -5t5 -2h13v-3q0 -3 2 -5t5 -2t5.5 2t2.5 5v4q5 2 9 7t4 12t-5.5 12.5t-13.5 5.5h-10q-2 0 -3.5 1t-1.5 3.5t1.5 4t3.5 1.5z" />
</svg>