<svg viewBox="0 0 256 256" xmlns="http://www.w3.org/2000/svg">
  <path transform="scale(1, -1) translate(0, -256)" fill="currentColor" d="M44 177h-29q-3 0 -5 -2t-2 -5t2 -5t5 -2h20v-7q0 -3 2 -5t5 -2t5 2t2 5v7q8 2 13 8t5 15t-6.5 15.5t-16.5 6.5h-14q-3 0 -5.5 2.5t-2.5 6t2.5 5.5t5.5 2h30q3 0 5 2.5t2 5.5t-2 5t-5 2h-11v7q0 3 -2 5t-5 2t-5 -2t-2 -5v-6h-5q-9 0 -15.5 -7t-6.5 -16t6.5 -15.5 t15.5 -6.5h14q4 0 6.5 -2.5t2.5 -6t-2.5 -6.5t-6.5 -3zM244 17q-15 0 -27 12h17q3 0 5.5 2t2.5 5t-2.5 5.5t-5.5 2.5h-26q-2 6 -2 11l1 8h27q3 0 5 2t2 5t-1.5 4.5t-4.5 1.5h-21q5 7 13 11.5t17 4.5q3 0 5 2t2 5t-2 5t-5 2q-15 0 -27.5 -8.5t-18.5 -21.5h-13q-3 0 -5 -2 t-2 -5t2 -5t5 -2h8l-1 -8q0 -7 2 -12h-9q-3 0 -5 -2t-2 -5t2 -5t5 -2h15q7 -12 19 -19t25 -7q3 0 5.5 2t2.5 5t-2.5 5.5t-5.5 2.5zM115 218h88q5 0 8.5 -3.5t3.5 -8.5v-54l-10 10q-2 2 -5 2t-5 -2t-2 -5t2 -5l22 -22q2 -2 4.5 -2t4.5 2l22 22q2 2 2 4.5t-2 5t-5 2.5t-5 -2 l-10 -10v54q0 10 -7.5 17.5t-18.5 7.5h-87q-3 0 -5 -2t-2 -5t2 -4.5t5 -1.5zM141 26h-88q-5 0 -8.5 3t-3.5 8v55l10 -10q2 -2 5 -2t5 2t2 4.5t-2 5.5l-22 22q-2 2 -5 2t-5 -2l-22 -22q-2 -2 -2 -5t2 -5t5 -2t5 2l10 10v-54q0 -11 7.5 -18.5t18.5 -7.5h88q3 0 5 2t2 5t-2 5 t-5 2z" />
</svg>