<svg viewBox="0 0 1024 1024" xmlns="http://www.w3.org/2000/svg">
  <path transform="scale(1, -1) translate(0, -960)" fill="currentColor" d="M976 568h-77v54q0 35 -24 59.5t-59 24.5h-22v86q0 26 -19 45t-45 19h-525q-29 0 -50 -21t-21 -49v-21v0v0v-234q-46 -38 -74 -93.5t-28 -120.5q0 -57 22 -108q21 -50 58.5 -87.5t88.5 -59.5q50 -22 108 -22q42 0 80 12q39 12 72 34t59 52q25 30 42 67h256q34 0 58.5 24 t24.5 59v99h75q7 0 11.5 4.5t4.5 11.5v151q0 6 -4.5 10t-11.5 4v0zM166 786q0 15 11.5 26.5t27.5 11.5h525q13 0 22.5 -9.5t9.5 -22.5v-86h-557q-16 0 -27.5 11t-11.5 27v42v0zM309 72q-51 0 -96 19q-44 19 -77.5 52.5t-52.5 77.5q-19 45 -19 96q0 50 19 94q19 45 52.5 78 t77.5 52q45 19 96 19t95 -19q45 -19 78 -52.5t52 -77.5q20 -45 20 -96q-1 -50 -20 -95q-20 -44 -53 -77t-77 -52q-45 -19 -95 -19zM867 286q0 -21 -14.5 -36t-36.5 -15h-243q6 19 8.5 39.5t2.5 40.5q0 57 -22 108q-21 50 -58.5 87.5t-88.5 59.5q-50 22 -108 22 q-38 0 -74.5 -10.5t-66.5 -29.5v133q9 -5 18.5 -8t20.5 -3h558v0v0h53q22 0 36.5 -15t14.5 -37v-54h-70q-29 0 -50 -21t-21 -49v-44q0 -28 21 -49t50 -21h70v-98v0zM960 418h-77v0v0v0v0h-86q-16 0 -27.5 11t-11.5 27v43q0 16 11.5 27.5t27.5 11.5h163v-120v0zM288 394h88 q7 0 11.5 4t4.5 12q0 7 -4.5 11.5t-11.5 4.5h-38v24q0 7 -4.5 11.5t-11.5 4.5q-8 0 -12 -4.5t-4 -11.5v-24h-18q-26 0 -45 -19t-19 -44t19 -43.5t45 -18.5h40q13 0 22.5 -9.5t9.5 -21.5t-9.5 -21t-22.5 -9h-88q-7 0 -11.5 -4.5t-4.5 -11.5t4.5 -11.5t11.5 -4.5h66v-24 q0 -7 4 -11.5t12 -4.5q7 0 11.5 4.5t4.5 11.5v26q22 3 38 20.5t16 41.5q0 26 -19 44t-45 18h-40q-13 0 -22.5 9.5t-9.5 21.5t9.5 20.5t22.5 8.5z" />
</svg>