<svg viewBox="0 0 1024 1024" xmlns="http://www.w3.org/2000/svg">
  <path transform="scale(1, -1) translate(0, -960)" fill="currentColor" d="M176 632h-117q-7 0 -11.5 -4.5t-4.5 -11.5t4.5 -11.5t11.5 -4.5h91v-37q0 -7 4.5 -11.5t11.5 -4.5q8 0 12 4.5t4 11.5v39q30 2 51 24.5t21 53.5q0 32 -23 55t-55 23h-54q-20 0 -33.5 14t-13.5 33t13.5 32.5t33.5 13.5h116q8 0 12 4.5t4 11.5t-4 11.5t-12 4.5h-56v37 q0 7 -4 11.5t-12 4.5q-7 0 -11.5 -4.5t-4.5 -11.5v-37h-28q-33 0 -56 -23t-23 -55q0 -33 23 -56t56 -23h54q19 0 32.5 -13.5t13.5 -32.5t-13.5 -33.5t-32.5 -14.5v0zM976 -8q-41 0 -76 20t-57 52h96q7 0 11.5 4.5t4.5 11.5t-4.5 11.5t-11.5 4.5h-113q-6 13 -9 28t-3 30 q0 10 1.5 21t5.5 20h118q7 0 11.5 4.5t4.5 11.5t-4.5 11.5t-11.5 4.5h-105q20 39 58 63.5t84 24.5q7 0 11.5 4.5t4.5 11.5t-4.5 11.5t-11.5 4.5q-59 0 -107.5 -33.5t-71.5 -86.5h-59q-8 0 -12 -4.5t-4 -11.5t4 -11.5t12 -4.5h48q-3 -9 -4 -20t-1 -21q0 -16 2.5 -30.5 t6.5 -27.5h-52q-8 0 -12 -4.5t-4 -11.5t4 -11.5t12 -4.5h67q25 -46 70.5 -75t100.5 -29q7 0 11.5 4.5t4.5 11.5t-4.5 11.5t-11.5 4.5zM459 818h354q24 0 41.5 -18t17.5 -42v-246l-61 61q-5 5 -11 5t-11 -5t-5 -11.5t5 -11.5l88 -88q2 -2 4.5 -3t6.5 -1t6.5 1t4.5 3l87 87 q4 5 4 11t-4 11q-5 5 -11.5 5t-11.5 -5l-59 -59v246q0 38 -27 65t-64 27h-354q-7 0 -11.5 -4.5t-4.5 -11.5q0 -8 5 -12t11 -4v0zM565 26h-354q-24 0 -41.5 17.5t-17.5 41.5v246l59 -59q3 -2 6 -3.5t5 -1.5q3 0 6 1.5t6 3.5q4 5 4 11.5t-4 10.5l-88 88q-5 5 -11.5 5t-11.5 -5 l-86 -86q-5 -5 -5 -11.5t5 -10.5q5 -5 11 -5t11 5l59 59v-247q0 -37 27 -64t65 -27h353q7 0 11.5 4.5t4.5 11.5t-4 11t-10 4z" />
</svg>