<svg viewBox="0 0 256 256" xmlns="http://www.w3.org/2000/svg">
  <path transform="scale(1, -1) translate(0, -256)" fill="currentColor" d="M250 132q-20 33 -52.5 52.5t-69.5 19.5t-69.5 -19.5t-52.5 -52.5q-2 -4 0 -8q20 -33 52.5 -52.5t69.5 -19.5t69.5 19.5t52.5 52.5q2 4 0 8zM128 66q-32 0 -61 16.5t-47 45.5q18 29 47 45.5t61 16.5t61 -16.5t47 -45.5q-18 -29 -47 -45.5t-61 -16.5zM122 149h26q3 0 5 2 t2 5t-2 5t-5 2h-9v5q0 3 -2 5t-5 2t-5 -2t-2 -5v-5h-3q-9 0 -15 -6t-6 -14.5t6 -14.5t15 -6h12q3 0 5 -2t2 -5t-2 -5t-5 -2h-26q-3 0 -5 -2t-2 -5t2 -5t5 -2h17v-5q0 -3 2 -5t5 -2t5 2t2 5v5q7 2 11.5 7.5t4.5 13.5t-6 14t-15 6h-12q-3 0 -4.5 2t-1.5 5t1.5 5t4.5 2z" />
</svg>