<svg viewBox="0 0 256 256" xmlns="http://www.w3.org/2000/svg">
  <path transform="scale(1, -1) translate(0, -256)" fill="currentColor" d="M18 20q-7 0 -10 4t-3 9q0 10 4 19.5t10 16.5l1 1q4 5 4 7l-2 15q0 16 4 33q7 32 30 55q5 5 7.5 8.5t1.5 5.5t-4 6l-4 3q-5 5 -6.5 11.5t1.5 11.5t12 8q12 3 23.5 2t22.5 -6l2 -1q5 -3 7.5 -3.5t7.5 0.5l5 1q29 4 58 -3q23 -6 34 -19l13 -15l4 -4q4 -3 6 -6q6 -7 4 -17.5 t-9.5 -15t-20.5 -4.5h-1q-25 0 -50 -6q-6 -1 -9 -3t-6 -6l-2 -4q-8 -9 -19 -14.5t-23 -6t-16 6t0 15.5l-5 -3q-8 -6 -14 -17h-1q-5 -12 -1 -18q2 -2 6 -5l7 -6q7 -7 10.5 -16t2.5 -18.5t-7 -14.5q-4 -3 -10 -3t-12 4l-11 7q-6 2 -16 -4l-4 -2q-11 -7 -19 -9h-3zM81 222 q-8 0 -14 -2l-4 -1q0 -3 3 -5l2 -2q8 -7 10 -14t-3 -15q-3 -5 -9 -12q-21 -20 -27 -49q-3 -15 -3 -29l2 -15q0 -5 -1.5 -8.5t-5.5 -7.5l-2 -2q-10 -10 -10 -26q5 1 13 7l4 2q16 9 28 5q5 -1 10 -6l4 -2q5 -3 6 -1.5t1 4.5q1 7 -1.5 13t-7.5 10l-4 4q-7 5 -10 10 q-5 7 -4.5 15t4.5 17q7 14 18.5 22t22.5 10q8 2 11.5 -2t0.5 -10q-1 -4 -5 -8l-2 -2q-2 -2 -2 -3l3 -1q9 1 17.5 5t14.5 11l2 3q4 6 8 9q6 4 15 6q27 6 52 6h1q10 0 13 2t4 6t-0.5 6t-4.5 4l-5 4q-4 4 -8 10l-5 6q-9 9 -27 15q-27 7 -53 3l-1 -2q-10 -1 -15.5 0t-10.5 4 l-2 1q-11 5 -23 5z" />
</svg>