<svg viewBox="0 0 1024 1024" xmlns="http://www.w3.org/2000/svg">
  <path transform="scale(1, -1) translate(0, -960)" fill="currentColor" d="M70 29q-9 0 -17 3.5t-13 9.5t-6.5 13t-1.5 14q0 37 14 72.5t39 63.5l1 3q11 12 16 20t5 18q0 8 -1 14t-2 14t-2 16.5t-1 18.5q-1 32 2 64.5t11 63.5q14 61 44.5 117t73.5 99q16 15 29.5 32.5t8.5 34.5q-2 8 -9.5 15.5t-15.5 14.5q-3 3 -5 5.5t-5 4.5q-14 13 -22.5 34 t1.5 41q8 13 20 19t22 8q43 12 89 8t85 -22q3 -1 5.5 -2.5t4.5 -2.5q7 -3 14.5 -6.5t15.5 -4.5q11 -2 23 -1t25 3l10 -4q56 9 114 5.5t113 -17.5q45 -12 77.5 -29.5t53.5 -41.5q6 -6 12 -13t11 -14q7 -10 13.5 -18t15.5 -16q3 -2 6 -4.5t6 -4.5l4 -2l12 -10t12 -12 q9 -13 12.5 -29.5t1.5 -33.5q-4 -16 -13 -30.5t-24 -21.5q-17 -10 -36 -12t-37 -3h-4q-50 0 -101 -6t-100 -18q-12 -2 -23.5 -6t-19.5 -11q-8 -5 -13 -12t-11 -16l-5.5 -5.5t-4.5 -5.5q-29 -36 -71 -57.5t-89 -22.5q-18 0 -31 5t-20 16q-10 14 -6.5 32.5t17.5 36.5 q1 2 3 3.5t3 4.5q2 2 4 3.5t3 4.5q-18 -5 -33.5 -14t-29.5 -18q-20 -15 -35.5 -33t-26.5 -39q-12 -24 -13 -47.5t8 -39.5q6 -8 14.5 -15.5t17.5 -14.5q5 -4 10.5 -8.5t10.5 -9.5q26 -24 39 -58t11 -70q-2 -16 -7.5 -28t-15.5 -20q-17 -13 -37.5 -9.5t-35.5 13.5 q-5 2 -9.5 5.5t-8.5 6.5q-7 5 -14.5 10.5t-14.5 7.5q-14 5 -32.5 1t-42.5 -17q-4 -2 -7.5 -4.5t-6.5 -3.5q-17 -11 -35.5 -19.5t-38.5 -12.5q-2 -2 -4.5 -2.5t-5.5 -0.5v0zM323 835q-14 0 -28.5 -2t-28.5 -6q-6 -1 -13 -4.5t-10 -8.5q-3 -7 1.5 -17.5t13.5 -17.5 q2 -2 4.5 -3.5t4.5 -4.5q11 -9 21 -20t14 -26q9 -30 -9.5 -55t-36.5 -43q-40 -39 -68 -91.5t-41 -109.5q-7 -29 -9.5 -59t-1.5 -60q0 -8 1 -15.5t2 -16.5q1 -7 1.5 -14t1.5 -15q2 -21 -8 -35.5t-20 -24.5l-4 -4q-22 -22 -34 -52t-12 -61v-5.5t2 -2.5l2 -0.5t7 0.5 q16 2 31.5 9.5t31.5 17.5q3 2 6.5 4.5t7.5 5.5q29 16 54 21t47 -2q11 -4 20.5 -9.5t17.5 -13.5q4 -2 8.5 -5t7.5 -6q10 -6 20.5 -7.5t18.5 2.5q4 4 6.5 12t2.5 14q3 28 -7.5 55t-30.5 46q-5 3 -9 7t-10 7q-11 9 -21.5 18t-18.5 21q-15 22 -14 53t17 63q12 24 30.5 46 t41.5 38q15 10 35.5 21.5t44.5 16.5q9 2 19 2t16 -8q6 -9 4.5 -17.5t-2.5 -11.5q-4 -9 -9.5 -15t-10.5 -12q-1 -2 -3 -4l-3 -3q-6 -7 -9.5 -15.5t-0.5 -13.5q3 -3 9 -4.5t15 -1.5q40 1 75.5 18.5t60.5 48.5q3 3 4.5 6t3.5 5q6 9 13.5 18t17.5 16q12 10 26.5 14.5t27.5 7.5 q52 12 104.5 19t105.5 7h3q16 0 31 1t27 9q8 4 13.5 12.5t6.5 19.5q2 10 0 19.5t-8 16.5q-3 5 -7.5 9t-9.5 7l-3 2q-4 2 -7.5 5.5t-7.5 5.5q-9 9 -17 18t-15 19q-5 7 -10 13t-11 11q-19 20 -48 36t-68 26q-52 15 -106.5 17.5t-108.5 -5.5l-6 -2q-15 -2 -30 -3.5t-31 1.5 q-11 3 -19.5 6.5t-17.5 8.5q-2 1 -4.5 2t-4.5 3q-21 14 -45.5 19.5t-49.5 5.5v0z" />
</svg>