<svg viewBox="0 0 1024 1024" xmlns="http://www.w3.org/2000/svg">
  <path transform="scale(1, -1) translate(0, -960)" fill="currentColor" d="M280 499l-48 -70l-43 62q-4 5 -8.5 7.5t-10.5 2.5v0v0q-6 0 -11 -2.5t-9 -7.5l-43 -62l-48 70q-3 6 -9.5 7.5t-12.5 -2.5t-7.5 -10t2.5 -12l59 -82q6 -8 18.5 -8t18.5 8l43 62l43 -62q4 -5 9 -7.5t11 -2.5t10.5 2.5t8.5 7.5l56 82q3 6 2 12t-7 10q-7 4 -13.5 2t-10.5 -7z M621 499l-48 -70l-43 62q-6 9 -18.5 9t-18.5 -9l-43 -62l-48 70q-4 6 -10.5 7.5t-12.5 -2.5t-7 -10t2 -12l58 -82q6 -8 18.5 -8t18.5 8l43 62l43 -62q4 -5 8.5 -7.5t10.5 -2.5t11 2.5t9 7.5l56 82q3 6 2 12t-7 10t-13.5 2t-10.5 -7v0zM986 504q-6 4 -12.5 2.5t-10.5 -7.5 l-48 -70l-43 62q-6 9 -18.5 9t-18.5 -9l-43 -62l-48 70q-4 6 -10 7.5t-12 -2.5t-7.5 -10t2.5 -12l56 -82q6 -8 18.5 -8t18.5 8l43 62l43 -62q4 -5 8.5 -7.5t10.5 -2.5t11 2.5t8 7.5l56 82q3 4 1.5 10.5t-5.5 11.5v0z" />
</svg>