<svg viewBox="0 0 1024 1024" xmlns="http://www.w3.org/2000/svg">
  <path transform="scale(1, -1) translate(0, -960)" fill="currentColor" d="M992 429v1.5v1.5v0v8v8q0 99 -38 186q-38 88 -103 153t-153 103q-87 38 -186 38t-186 -38q-87 -37 -152 -102t-103 -152t-39 -186v0v0v0v-0.5v-1.5q0 -99 38 -186q38 -88 103 -153t153 -103q87 -38 186 -38q95 0 179 34q84 35 148 94.5t104 140.5t47 174v4.5v3.5q2 3 2 5 v5v0zM512 896q92 0 174 -35q81 -36 142 -96.5t97 -142.5q35 -82 35 -174v-9.5v-9.5v-3v-4v-3.5v-4.5q-6 -56 -49.5 -95t-100.5 -39q-62 0 -107 48.5t-45 113.5v0v3.5v4.5q0 60 -42 102t-102 42q-59 0 -101 -42t-43 -101v0q0 -61 -45 -105t-107 -44q-64 -1 -109 42.5 t-45 105.5q0 92 35 173q36 82 96.5 142.5t142.5 95.5t174 35zM512 560q47 0 79.5 -32.5t32.5 -79.5t-32.5 -79.5t-79.5 -32.5t-79.5 32.5t-32.5 79.5t32.5 79.5t79.5 32.5zM512 0q-77 0 -146 25q-70 24 -127 68t-98 104t-61 131q25 -28 60 -43.5t76 -15.5q58 0 103 31t67 79 q18 -33 51.5 -54t74.5 -21q40 0 72.5 19.5t50.5 50.5q19 -55 66.5 -90.5t106.5 -35.5q37 0 69 13.5t57 37.5q-23 -65 -64 -120q-42 -55 -97 -95t-121 -62q-67 -22 -140 -22zM213 437q2 -3 4.5 -3h4.5q4 0 7.5 1t5.5 5q5 5 4 12t-5 10q-10 9 -15.5 20.5t-5.5 26.5q0 14 5 29 t16 27q4 5 3.5 12t-5.5 10q-5 5 -12 4t-10 -5q-15 -17 -22 -37t-6 -42q-1 -20 7 -38.5t24 -31.5v0zM496 712q10 10 22 14.5t26 3.5q14 -2 29 -8t25 -18q3 -2 5.5 -3.5t6.5 -1.5q3 0 5.5 1.5t5.5 3.5q5 5 5 11.5t-5 10.5q-16 16 -35.5 24.5t-39.5 9.5q-22 1 -41 -6t-33 -21 q-5 -5 -5 -11.5t5 -11.5q6 -3 12.5 -3t11.5 5zM755 480h1h1q6 0 10.5 4t5.5 10q3 22 23.5 34.5t46.5 9.5q6 -2 12 2t6 10q1 6 -3 12t-10 6q-38 6 -69.5 -15t-36.5 -55q-2 -6 2 -11.5t11 -6.5z" />
</svg>