<svg viewBox="0 0 256 256" xmlns="http://www.w3.org/2000/svg">
  <path transform="scale(1, -1) translate(0, -256)" fill="currentColor" d="M251 123v1v4q0 33 -16.5 61.5t-45 45t-61.5 16.5t-61.5 -16.5t-45 -44.5t-16.5 -62v0q0 -33 16.5 -61.5t45 -45t61 -16.5t59.5 15t44 41t19 57zM128 237q30 0 55 -15t39.5 -40t14.5 -54v-8q-1 -13 -11 -22t-24 -9t-24 11.5t-10 25.5v2q0 17 -11.5 28.5t-28 11.5 t-28 -11.5t-11.5 -26.5t-10 -25t-24.5 -10t-24.5 10t-10 24q-1 29 14 54t39.5 39.5t54.5 14.5zM128 153q10 0 17.5 -7.5t7.5 -17.5t-7.5 -17.5t-17.5 -7.5t-17.5 7.5t-7.5 17.5t7.5 17.5t17.5 7.5zM128 19q-34 0 -61.5 19t-40.5 50q13 -8 27.5 -8t25.5 7t18 18 q5 -8 13.5 -12t17.5 -4t17 3.5t13 10.5q6 -13 18 -20.5t25.5 -7.5t25.5 7q-14 -29 -40.5 -46t-58.5 -17zM51 123q2 -1 5 -1t5 2t2 5t-3 5.5t-3.5 9t3.5 12.5q2 2 2 4.5t-2 4.5t-5 2t-5 -2q-9 -10 -8.5 -22t9.5 -20zM126 192q4 4 10.5 3.5t10.5 -5.5q2 -2 5 -2t5 2.5t2 5 t-2 4.5q-8 9 -20.5 9.5t-20.5 -7.5q-2 -2 -2 -5t2 -5t5 -2t5 2zM188 133h2q2 0 4 1.5t2.5 5t4.5 6t8 2t6.5 1t3 4.5t-1.5 5.5t-5 2.5q-11 2 -19.5 -4t-10.5 -16q0 -3 1.5 -5.5t4.5 -2.5z" />
</svg>