<svg viewBox="0 0 1024 1024" xmlns="http://www.w3.org/2000/svg">
  <path transform="scale(1, -1) translate(0, -960)" fill="currentColor" d="M658 523q-29 0 -50 -20.5t-21 -49.5t21 -50t50 -21q28 0 49 21t21 50t-20 49.5t-50 20.5v0zM658 414q-16 0 -27.5 11.5t-11.5 27.5q0 15 11.5 26.5t27.5 11.5q15 0 26.5 -11.5t11.5 -26.5q0 -16 -11 -27.5t-27 -11.5zM976 0h-110v848q0 34 -23.5 57t-56.5 23h-548 q-33 0 -56.5 -23t-23.5 -57v-848h-110q-7 0 -11.5 -4.5t-4.5 -11.5t4.5 -11.5t11.5 -4.5h928q7 0 11.5 4.5t4.5 11.5t-4.5 11.5t-11.5 4.5zM190 0v848q0 20 14 34t34 14h548q20 0 34 -14t14 -34v-848h-644v0z" />
</svg>