<svg viewBox="0 0 1024 1024" xmlns="http://www.w3.org/2000/svg">
  <path transform="scale(1, -1) translate(0, -960)" fill="currentColor" d="M512 386q-11 6 -22 8.5t-23 2.5q-18 0 -34.5 -6.5t-29.5 -19.5q-14 -13 -21.5 -30t-8.5 -37q0 -20 7 -39.5t22 -34.5l83 -83q5 -5 11.5 -8t13.5 -3q8 0 14.5 2.5t11.5 8.5l86 87q14 13 21 30.5t7 36.5t-7 36.5t-21 30.5q-21 23 -51.5 27.5t-58.5 -9.5zM602 256l-87 -86 q-1 -2 -3 -2t-3 2l-83 83q-10 9 -15.5 23t-5.5 28q0 13 5.5 24.5t13.5 18.5q8 9 19.5 12.5t22.5 3.5v0v0q9 0 18.5 -2.5t16.5 -8.5q3 -2 8.5 -2t8.5 2q20 13 42.5 11t37.5 -19q10 -10 15 -21t5 -24q2 -11 -2.5 -22t-13.5 -21v0zM512 928q-53 0 -100 -20t-82 -55t-55 -82 q-21 -47 -21 -101q0 -28 20 -48t49 -20h45q29 0 49 20t20 48v5q0 31 21.5 52.5t51.5 21.5t52 -22t22 -52v-65q0 -16 -9.5 -28t-24.5 -17l-238 -69q-25 -7 -40.5 -28t-15.5 -47v-376q0 -33 23 -56t55 -23h359q32 0 55 23t23 56v625q0 54 -21 101q-20 47 -55.5 82t-82.5 55 t-100 20v0zM738 46q0 -19 -14 -32.5t-33 -13.5h-358q-19 0 -33 13.5t-14 32.5v376q0 16 10 28t24 17l242 69q25 7 40.5 28t15.5 47v66q0 44 -31.5 74.5t-74.5 30.5q-44 0 -75 -31t-31 -74v-5q0 -16 -10.5 -26.5t-25.5 -10.5h-45q-16 0 -26.5 10.5t-10.5 26.5q-1 46 17 87 q17 41 47.5 71.5t71.5 47.5q41 18 88 18t88 -18q41 -17 71.5 -48t48.5 -72t18 -88v-624z" />
</svg>