<svg viewBox="0 0 256 256" xmlns="http://www.w3.org/2000/svg">
  <path transform="scale(1, -1) translate(0, -256)" fill="currentColor" d="M232 222h-208q-8 0 -13.5 -5.5t-5.5 -13.5v-150q0 -8 5.5 -13.5t13.5 -5.5h208q8 0 13.5 5.5t5.5 13.5v150q0 8 -5.5 13.5t-13.5 5.5zM151 208v-160h-46v160h46zM19 53v150q0 2 1.5 3.5t3.5 1.5h67v-160h-67q-2 0 -3.5 1.5t-1.5 3.5zM237 53q0 -2 -1.5 -3.5t-3.5 -1.5 h-67v160h67q2 0 3.5 -1.5t1.5 -3.5v-150zM70 140q-3 0 -5.5 -2t-2.5 -5v-11q0 -3 2.5 -5t5.5 -2t5 2t2 5v11q0 3 -2 5t-5 2zM186 140q-3 0 -5 -2t-2 -5v-11q0 -3 2 -5t5 -2t5.5 2t2.5 5v11q-1 3 -3 5t-5 2z" />
</svg>