<svg viewBox="0 0 256 256" xmlns="http://www.w3.org/2000/svg">
  <path transform="scale(1, -1) translate(0, -256)" fill="currentColor" d="M128 116q-5 2 -11 2q-11 0 -19 -7.5t-8 -19t9 -19.5l21 -21q3 -4 8 -4t8 4l22 21q8 8 8 19t-8 19q-6 6 -14 7.5t-16 -1.5zM148 82l-20 -20l-20 20q-4 4 -4 9.5t4 9t8.5 3.5t8 -2.5t7.5 0t8.5 2t8 -4t3.5 -8.5t-4 -9zM128 251q-18 0 -33.5 -9t-24.5 -24.5t-9 -33.5 q0 -8 6 -14t14 -6h11q8 0 14 6t6 14v1q0 7 4.5 11.5t11 4.5t11.5 -4.5t5 -11.5v-16q0 -3 -2 -5.5t-4 -2.5l-61 -17q-7 -3 -11.5 -9t-4.5 -13v-94q0 -9 6.5 -15.5t15.5 -6.5h90q9 0 15.5 6.5t6.5 15.5v156q0 18 -9 33.5t-24.5 24.5t-33.5 9zM181 28q0 -4 -2.5 -6.5t-5.5 -2.5 h-90q-3 0 -5.5 2.5t-2.5 6.5v94q0 2 1.5 4.5t4.5 3.5l60 17q7 2 12 8t5 13v17q0 12 -9 20.5t-21 8.5t-21 -8.5t-9 -20.5v-1q0 -3 -1.5 -5t-4.5 -2h-11q-3 0 -5 2t-2 5q0 14 7.5 26t19.5 19.5t26.5 7.5t26.5 -7.5t19.5 -19.5t7.5 -26v-156z" />
</svg>