<svg viewBox="0 0 1024 1024" xmlns="http://www.w3.org/2000/svg">
  <path transform="scale(1, -1) translate(0, -960)" fill="currentColor" d="M928 811h-832q-26 0 -45 -18.5t-19 -45.5v-598q0 -27 19 -45.5t45 -18.5h832q26 0 45 18.5t19 45.5v598q0 27 -19 45.5t-45 18.5v0zM616 779v-662h-210v662h210v0zM64 149v598q0 13 9.5 22.5t22.5 9.5h278v-662h-278q-13 0 -22.5 9.5t-9.5 22.5zM960 149 q0 -13 -9.5 -22.5t-22.5 -9.5h-280v662h280q13 0 22.5 -9.5t9.5 -22.5v-598zM278 485q-7 0 -11.5 -4.5t-4.5 -11.5v-43q0 -8 4.5 -12t11.5 -4q8 0 12 4t4 12v43q0 7 -4 11.5t-12 4.5zM746 485q-8 0 -12 -4.5t-4 -11.5v-43q0 -8 4 -12t12 -4q7 0 11.5 4t4.5 12v43 q0 7 -5 11.5t-11 4.5z" />
</svg>