<svg viewBox="0 0 1024 1024" xmlns="http://www.w3.org/2000/svg">
  <path transform="scale(1, -1) translate(0, -960)" fill="currentColor" d="M773 928h-522q-33 0 -56.5 -23t-23.5 -57v-800q0 -34 23.5 -57t56.5 -23h520q34 0 57 23t23 57v800q1 34 -22.5 57t-55.5 23zM821 48q0 -20 -14 -34t-34 -14h-522q-20 0 -34 14t-14 34v800q0 20 14 34t34 14h520q21 0 34.5 -14t13.5 -34v-800h2zM686 528q-28 0 -49 -21 t-21 -49q0 -29 21 -50t49 -21q29 0 50 21t21 50q0 28 -21 49t-50 21zM686 418q-15 0 -26.5 11t-11.5 27t11.5 27t26.5 11q16 0 27.5 -11t11.5 -27t-11.5 -27t-27.5 -11z" />
</svg>