<svg viewBox="0 0 1024 1024" xmlns="http://www.w3.org/2000/svg">
  <path transform="scale(1, -1) translate(0, -960)" fill="currentColor" d="M722 680q0 43 -17 81q-16 38 -44.5 67t-67.5 45q-38 17 -81 17t-81 -17q-38 -16 -67 -44.5t-45 -67.5q-17 -38 -17 -81t17 -81q16 -38 44.5 -67t67.5 -45q38 -17 81 -17t81 17q38 16 67 44.5t45 67.5q17 38 17 81zM512 502q-73 0 -125.5 52.5t-52.5 125.5t52.5 125.5 t125.5 52.5t125.5 -52.5t52.5 -125.5t-52.5 -125.5t-125.5 -52.5zM782 426q-43 0 -81 -17q-38 -16 -66.5 -44.5t-45.5 -67.5q-16 -38 -16 -81t16 -81q17 -39 45.5 -67.5t66.5 -44.5q38 -17 81 -17q44 0 82 17q38 16 66.5 44.5t44.5 67.5q17 38 17 81t-17 81q-16 38 -44.5 67 t-66.5 45q-38 17 -82 17zM782 38q-73 0 -125 52.5t-52 125.5t52 125.5t125 52.5q74 0 126 -52.5t52 -125.5t-52 -125.5t-126 -52.5zM242 426q-44 0 -82 -17q-38 -16 -66.5 -44.5t-44.5 -67.5q-17 -38 -17 -81t17 -81q16 -39 44.5 -67.5t66.5 -44.5q38 -17 82 -17q43 0 81 17 q38 16 66.5 44.5t45.5 67.5q16 38 16 81t-16 81q-17 38 -45.5 67t-66.5 45q-38 17 -81 17zM242 38q-74 0 -126 52.5t-52 125.5t52 125.5t126 52.5q73 0 125 -52.5t52 -125.5t-52 -125.5t-125 -52.5z" />
</svg>