<svg viewBox="0 0 1024 1024" xmlns="http://www.w3.org/2000/svg">
  <path transform="scale(1, -1) translate(0, -960)" fill="currentColor" d="M978 746q-8 8 -18 11t-19 0l-269 -83q-20 24 -60 52t-82 42q-40 14 -61 31l-21 17v0l-2 2l-115 96q-6 4 -18.5 8.5t-27.5 -2.5q-16 -7 -20.5 -19t-3.5 -19v-88l-154 124q-6 5 -18 9t-27 -2q-14 -7 -19 -19.5t-5 -20.5v-195q0 -39 5.5 -78.5t28.5 -102.5q25 -70 69 -116.5 t80 -78.5q30 -27 70 -44.5t64 -26.5q-11 -12 -29 -31t-38 -39q-14 -16 -45.5 -42.5l-31.5 -26.5q-14 -11 -42.5 -33t-32.5 -25q-11 -8 -15.5 -20t-0.5 -26q4 -17 17 -23.5t23 -6.5q1 0 30 -1t72 -1q38 0 80.5 1t79.5 2q44 3 83 15q40 13 74.5 29t62.5 33q29 17 49 30 q27 18 55 46q27 29 51 63t44 72t31 74q20 65 29.5 144t10.5 97l70 132q5 9 4 20t-8 20v0zM291 882l1 3.5t6 5.5q3 3 6.5 1.5t4.5 -2.5l117 -96q3 -4 27 -22t67 -33q35 -12 69.5 -35t53.5 -43q-19 -16 -37 -38t-28 -37q-20 21 -47 45.5t-54 42.5q-6 3 -11 6.5t-8 5.5 q-22 15 -41 25t-51 17q-26 6 -47.5 21t-28.5 21q1 2 2 4.5t1 4.5l-2 103v0zM954 722l-72 -135q-2 -1 -2 -3v-3t-2 -25q-2 -25 -7 -60.5t-12 -76.5t-17 -75q-11 -33 -30 -68q-18 -36 -41 -68t-48 -59q-25 -26 -49 -42q-53 -35 -116 -65.5t-137 -35.5q-39 -2 -84 -3t-83.5 -1 t-65.5 1h-26l-5 1.5t-7 5.5q-1 7 0.5 9t3.5 3q4 4 38 29.5t38 30.5q2 1 33 28t47 44q62 62 74 78t13 19q1 4 1 7.5t-3 5.5l-4.5 4.5t-4.5 3.5q-2 0 -54.5 18.5t-89.5 51.5q-35 32 -76 75.5t-65 107.5q-22 60 -27 97.5t-5 73.5v190l0.5 4t5.5 6h2.5h2.5q2 0 4.5 -1t3.5 -1 l178 -145q1 -1 28.5 -22t65.5 -29q28 -6 44 -15t38 -24q4 -3 9 -6t11 -7q32 -20 61.5 -48.5t46.5 -48.5q2 -4 5.5 -5.5t8.5 -1.5q4 0 7 2.5t6 5.5q9 16 33 48t47 45l277 85h1t2 -2q-1 -2 -2 -3l-1 -1v0zM758 614q-18 0 -30.5 -12.5t-12.5 -30.5t12.5 -30.5t30.5 -12.5 t31 12.5t13 30.5t-13 30.5t-31 12.5z" />
</svg>