<svg viewBox="0 0 256 256" xmlns="http://www.w3.org/2000/svg">
  <path transform="scale(1, -1) translate(0, -256)" fill="currentColor" d="M247 204q-3 3 -6 4t-7 0l-65 -20q-6 6 -15.5 12.5t-18.5 9.5t-16 8l-34 28q-2 2 -6 3t-8.5 -1t-6.5 -6t-1 -6v-16l-34 28q-7 5 -15 2q-4 -2 -6 -5.5t-2 -6.5v-49q0 -12 2 -20q2 -12 7.5 -27t16.5 -29q7 -8 21 -21q10 -9 30 -16l-13 -15l-20 -17l-18 -14q-8 -5 -5 -15 q1 -4 5 -7t8 -3h26q15 0 40 1q19 1 40 11q11 5 28 16v0q14 9 27.5 28t19.5 37q4 14 7 35q2 15 3 25l17 33q2 3 1.5 6.5t-2.5 6.5zM76 210v25l28 -23q3 -3 8 -6q8 -5 17 -9q15 -5 27 -17q-5 -5 -12 -14q-10 13 -23 20l-5 3q-6 5 -10 6q-6 3 -13.5 5t-16.5 8v2zM218 164 q-1 -2 -1 -3q0 -4 -2 -21q-3 -24 -7 -38q-6 -16 -18 -33t-23 -24q-17 -11 -28 -16q-18 -8 -34 -9q-20 -1 -59 -1h-4l18 14l20 19q19 19 23 24v1q1 2 -0.5 5t-4.5 4l-7 2q-7 2 -14 6q-8 4 -14 9q-13 11 -21 20q-9 11 -14 24.5t-7 23.5q-1 7 -1 18v48l44 -36q3 -3 9 -6 q8 -6 15 -7.5t10.5 -3.5t9.5 -6l5 -3q7 -5 14.5 -12t11.5 -12q2 -3 6 -3t6 3q3 6 8.5 13t9.5 9l64 19zM190 148q4 0 7 3t3 7.5t-3 8t-7.5 3.5t-7.5 -3.5t-3 -8t3 -7.5t8 -3z" />
</svg>