<svg viewBox="0 0 256 256" xmlns="http://www.w3.org/2000/svg">
  <path transform="scale(1, -1) translate(0, -256)" fill="currentColor" d="M200 23h-144q-3 0 -5 -2t-2 -5t2 -5.5t5 -2.5h144q3 0 5 2.5t2 5.5t-2 5t-5 2zM77 51h102q10 0 17.5 7t7.5 18v7q0 10 -7.5 17.5t-17.5 7.5h-102q-10 0 -17.5 -7.5t-7.5 -17.5v-7q0 -10 7.5 -17.5t17.5 -7.5zM66 84q0 4 3.5 7t7.5 3h102q4 0 7.5 -3t3.5 -7v-8 q0 -4 -3.5 -7t-7.5 -3h-102q-4 0 -7.5 3t-3.5 7v8zM227 247h-197q-11 0 -18 -7t-7 -17v-203q0 -3 2 -5t5 -2t5.5 2t2.5 5v203q0 4 3 7t7 3h197q4 0 7.5 -3t3.5 -7v-203q0 -3 2 -5t5 -2t5 2t2 5v203q-1 10 -8 17t-17 7z" />
</svg>