<svg viewBox="0 0 1024 1024" xmlns="http://www.w3.org/2000/svg">
  <path transform="scale(1, -1) translate(0, -960)" fill="currentColor" d="M720 518v0v0q-7 0 -11.5 -4t-4.5 -12l-5 -214v-1v-1l-366 362q-5 5 -11.5 5t-11.5 -5q-4 -5 -4 -11.5t4 -10.5l367 -362h-0.5h-1.5l-217 -8q-8 0 -12 -5t-4 -11t5 -11t11 -5v0v0l219 8q20 2 36 17.5t18 36.5l5 216q0 6 -4.5 11t-11.5 5v0zM912 928h-800q-34 0 -57 -23 t-23 -57v-800q0 -34 23 -57t57 -23h800q34 0 57 23t23 57v800q0 34 -23 57t-57 23zM960 48q0 -20 -14 -34t-34 -14h-800q-20 0 -34 14t-14 34v800q0 20 14 34t34 14h800q20 0 34 -14t14 -34v-800z" />
</svg>