<svg viewBox="0 0 256 256" xmlns="http://www.w3.org/2000/svg">
  <path transform="scale(1, -1) translate(0, -256)" fill="currentColor" d="M180 149q-3 0 -5 -2t-2 -5l-1 -48l-87 86q-2 2 -5 2t-5 -2t-2 -5t2 -5l87 -86l-48 -1q-3 0 -5 -2t-2 -5t2 -5t5 -2l55 2q6 0 10.5 4.5t5.5 11.5l1 55q1 2 -1 4t-5 3zM228 251h-200q-10 0 -16.5 -6.5t-6.5 -16.5v-200q0 -10 7 -16.5t16 -6.5h200q10 0 17 6.5t7 16.5v200 q-1 10 -7.5 16.5t-16.5 6.5zM237 28q0 -4 -2.5 -6.5t-6.5 -2.5h-200q-4 0 -6.5 2.5t-2.5 6.5v200q0 4 2.5 6.5t6.5 2.5h200q4 0 6.5 -2.5t2.5 -6.5v-200z" />
</svg>