<svg viewBox="0 0 256 256" xmlns="http://www.w3.org/2000/svg">
  <path transform="scale(1, -1) translate(0, -256)" fill="currentColor" d="M128 164q3 0 5 2t2 5v73q0 3 -2 5t-5 2t-5 -2t-2 -5v-73q0 -3 2 -5t5 -2zM203 235h23q4 0 7 -3t3 -7v-23q0 -3 2 -5t5 -2t5 2t2 5v23q0 10 -7 17.5t-17 7.5h-23q-3 0 -5 -2.5t-2 -5.5t2 -5t5 -2zM13 195q3 0 5 2t2 5v23q0 4 3 7.5t8 3.5h23q3 0 5 2t2 5t-2 5t-5 2h-24 q-10 0 -17 -7t-7 -17v-23q0 -3 2 -5.5t5 -2.5zM243 60q-3 0 -5 -2.5t-2 -5.5v-22q0 -5 -3 -8t-8 -3h-90v65q0 3 -2 5.5t-5 2.5t-5 -2.5t-2 -5.5v-64h-91q-4 0 -7 3t-3 7v23q0 3 -2 5t-5 2t-5 -2t-2 -5v-23q0 -10 7 -17t17 -7h195q10 0 17.5 7t7.5 17v23q0 3 -2 5t-5 2z M83 235h5q3 0 5.5 2t2.5 5t-2.5 5.5t-5.5 2.5h-5q-3 0 -5 -2.5t-2 -5.5t2 -5t5 -2zM169 235h5q3 0 5.5 2t2.5 5t-2.5 5.5t-5.5 2.5h-5q-3 0 -5 -2.5t-2 -5.5t2 -5t5 -2zM244 180q-3 0 -5.5 -2t-2.5 -5v-5q0 -3 2.5 -5.5t5.5 -2.5t5 2.5t2 5.5v5q-1 3 -2.5 5t-4.5 2zM244 94 q-3 0 -5.5 -2t-2.5 -5v-5q0 -3 2.5 -5.5t5.5 -2.5t5 2.5t2 5.5v5q-1 3 -2.5 5t-4.5 2zM14 180q-3 0 -5 -2t-2 -5v-5q0 -3 2 -5.5t5 -2.5t5 2.5t2 5.5v5q0 3 -2 5t-5 2zM7 87v-5q0 -3 2 -5.5t5 -2.5t5 2.5t2 5.5v5q0 3 -2 5t-5 2t-5 -2t-2 -5zM244 134h-73q-3 0 -5 -2t-2 -5 t2 -5t5 -2h73q3 0 5 2t2 5t-2 5t-5 2zM12 120h73q3 0 5 2.5t2 5.5t-2 5t-5 2h-73q-3 0 -5 -2t-2 -5t2 -5.5t5 -2.5z" />
</svg>