<svg viewBox="0 0 1024 1024" xmlns="http://www.w3.org/2000/svg">
  <path transform="scale(1, -1) translate(0, -960)" fill="currentColor" d="M976 211q-7 0 -11.5 -4.5t-4.5 -11.5v-193q-1 0 -2.5 -1t-2.5 -1h-886h-3t-2 2v193q0 7 -4.5 11.5t-11.5 4.5t-11.5 -4.5t-4.5 -11.5v-198q0 -12 10.5 -20.5t26.5 -8.5h885q15 0 25.5 8.5t10.5 20.5v198q2 6 -2.5 11t-11.5 5zM470 278q9 -8 19.5 -12t20.5 -4q11 0 21.5 4 t18.5 12l124 119q4 5 4 11t-4 11q-5 5 -11.5 5t-11.5 -5l-123 -118l-1 -1l-1 -1v613q0 7 -4 11.5t-12 4.5q-7 0 -11.5 -4.5t-4.5 -11.5v-613q-1 0 -1.5 1t-1.5 1l-121 118q-5 5 -11.5 5t-11.5 -5t-5 -11t5 -11l123 -119v0z" />
</svg>