<svg viewBox="0 0 1024 1024" xmlns="http://www.w3.org/2000/svg">
  <path transform="scale(1, -1) translate(0, -960)" fill="currentColor" d="M512 602q7 0 11.5 4t4.5 12v292q0 8 -4.5 12t-11.5 4t-11.5 -4t-4.5 -12v-291q0 -7 4.5 -12t11.5 -5zM811 890h91q22 0 37.5 -16t15.5 -37v-91q0 -8 4.5 -12t11.5 -4t11.5 4t4.5 12v91q0 35 -25 60t-60 25h-91q-7 0 -11.5 -4.5t-4.5 -11.5q0 -8 4.5 -12t11.5 -4zM53 728 q7 0 11.5 4.5t4.5 11.5v93q0 21 15.5 37t37.5 16h91q7 0 11.5 4t4.5 12q0 7 -4.5 11.5t-11.5 4.5h-91q-35 0 -60 -25t-25 -60v-91q0 -8 4.5 -13t11.5 -5v0zM971 163q-7 0 -11.5 -4.5t-4.5 -11.5v-91q0 -22 -15.5 -37.5t-37.5 -15.5h-374v1.5v0.5v269q0 7 -4.5 11.5 t-11.5 4.5t-11.5 -4.5t-4.5 -11.5v-269v-1.5v-0.5h-374q-22 0 -37.5 15.5t-15.5 37.5v91q0 7 -4.5 11.5t-11.5 4.5t-11.5 -4.5t-4.5 -11.5v-91q0 -35 25 -60t60 -25h780q35 0 60 25t25 60v91q0 6 -4.5 11t-11.5 5v0zM331 890h23q7 0 11.5 4t4.5 12q0 7 -4.5 11.5t-11.5 4.5 h-23q-7 0 -11.5 -4.5t-4.5 -11.5q0 -8 4.5 -12t11.5 -4zM675 890h23q7 0 11.5 4t4.5 12q0 7 -4.5 11.5t-11.5 4.5h-23q-7 0 -11.5 -4.5t-4.5 -11.5q0 -8 5 -12t11 -4zM974 645q-7 0 -11.5 -4.5t-4.5 -11.5v-23q0 -7 4.5 -11.5t11.5 -4.5q8 0 12 4.5t4 11.5v23q0 7 -5 11.5 t-11 4.5zM974 301q-7 0 -11.5 -4.5t-4.5 -11.5v-23q0 -7 4.5 -11.5t11.5 -4.5q8 0 12 4.5t4 11.5v23q0 7 -5 11.5t-11 4.5zM56 645q-7 0 -11.5 -4.5t-4.5 -11.5v-23q0 -7 4.5 -11.5t11.5 -4.5t11.5 4.5t4.5 11.5v23q0 7 -5 11.5t-11 4.5zM40 285v-23q0 -7 4.5 -11.5 t11.5 -4.5t11.5 4.5t4.5 11.5v23q0 7 -4.5 11.5t-11.5 4.5t-11.5 -4.5t-4.5 -11.5zM976 462h-291q-7 0 -11.5 -4t-4.5 -12q0 -7 4.5 -11.5t11.5 -4.5h291q7 0 11.5 4.5t4.5 11.5q0 6 -4.5 11t-11.5 5zM48 430h291q7 0 11.5 4.5t4.5 11.5q0 8 -4.5 12t-11.5 4h-291 q-7 0 -11.5 -4t-4.5 -12q0 -7 4.5 -11.5t11.5 -4.5z" />
</svg>