<svg viewBox="0 0 256 256" xmlns="http://www.w3.org/2000/svg">
  <path transform="scale(1, -1) translate(0, -256)" fill="currentColor" d="M244 30h-232q-3 0 -5 -2.5t-2 -5.5t2 -4.5t5 -1.5h232q3 0 5 2t2 5t-2 5t-5 2zM69 58h8q11 0 18.5 7.5t7.5 18.5v130q0 11 -7.5 18.5t-18.5 7.5h-8q-11 0 -18.5 -7.5t-7.5 -18.5v-130q0 -11 7.5 -18.5t18.5 -7.5zM57 214q0 6 3.5 9t8.5 3h8q5 0 8.5 -3t3.5 -9v-130 q0 -5 -3.5 -8.5t-8.5 -3.5h-8q-5 0 -8.5 3t-3.5 9v130zM179 58h8q11 0 18.5 7.5t7.5 18.5v78q0 10 -7.5 18t-18.5 8h-8q-11 0 -18.5 -8t-7.5 -18v-78q0 -11 7.5 -18.5t18.5 -7.5zM167 162q0 5 3.5 8.5t8.5 3.5h8q5 0 8.5 -3.5t3.5 -8.5v-78q0 -5 -3.5 -8.5t-8.5 -3.5h-8 q-5 0 -8.5 3t-3.5 9v78z" />
</svg>