<svg viewBox="0 0 1024 1024" xmlns="http://www.w3.org/2000/svg">
  <path transform="scale(1, -1) translate(0, -960)" fill="currentColor" d="M976 42h-928q-7 0 -11.5 -4.5t-4.5 -11.5q0 -8 4.5 -12t11.5 -4h928q7 0 11.5 4t4.5 12q0 7 -4.5 11.5t-11.5 4.5zM275 179h34q38 0 64.5 27t26.5 64v524q0 38 -27 64.5t-64 26.5h-34q-38 0 -64.5 -27t-26.5 -64v-524q0 -37 27 -64t64 -27zM216 794q0 25 17.5 42t41.5 17 h34q25 0 42 -17.5t17 -41.5v-524q0 -25 -17.5 -42t-41.5 -17h-34q-25 0 -42 17.5t-17 41.5v524zM715 179h34q38 0 64.5 27t26.5 64v312q0 39 -27 65.5t-64 26.5h-34q-38 0 -64.5 -27t-26.5 -65v-312q-1 -37 26 -64t65 -27zM654 582q0 26 18 43t42 17h33q25 0 42 -18t17 -42 v-312q0 -25 -17.5 -42t-41.5 -17h-33q-26 0 -43 17.5t-17 41.5v312z" />
</svg>