<svg viewBox="0 0 1024 1024" xmlns="http://www.w3.org/2000/svg">
  <path transform="scale(1, -1) translate(0, -960)" fill="currentColor" d="M691 648l-366 -362v0.5v1.5l-5 214q0 8 -5 12t-11 4q-7 0 -11.5 -5t-4.5 -11l5 -217q1 -10 5.5 -19t11.5 -16v0v0v0v0q8 -8 17 -12.5t20 -5.5l218 -8v0v0q6 0 11 4.5t5 11.5t-4.5 11.5t-11.5 4.5l-216 8h-1h-1l367 360q4 5 4 11.5t-4 10.5q-5 5 -11.5 5.5t-11.5 -3.5v0z M912 928h-800q-34 0 -57 -23t-23 -57v-800q0 -34 23 -57t57 -23h800q34 0 57 23t23 57v800q0 34 -23 57t-57 23zM960 48q0 -20 -14 -34t-34 -14h-800q-20 0 -34 14t-14 34v800q0 20 14 34t34 14h800q20 0 34 -14t14 -34v-800z" />
</svg>