<svg viewBox="0 0 1024 1024" xmlns="http://www.w3.org/2000/svg">
  <path transform="scale(1, -1) translate(0, -960)" fill="currentColor" d="M798 16h-572q-8 0 -12 -4.5t-4 -11.5t4 -11.5t12 -4.5h572q8 0 12 4.5t4 11.5t-5 11.5t-11 4.5zM307 154h410q36 0 60.5 25t24.5 61v30q0 36 -25 60.5t-60 24.5h-410q-36 0 -61 -25t-25 -60v-30q0 -36 25 -61t61 -25v0zM253 270q0 22 15.5 37.5t38.5 15.5h410 q21 0 37 -15.5t16 -37.5v-30q0 -22 -16 -38t-37 -16h-410q-21 0 -37.5 15.5t-16.5 38.5v30v0zM907 912h-789q-36 0 -61 -25t-25 -60v-811q0 -7 4.5 -11.5t11.5 -4.5t11.5 4.5t4.5 11.5v811q0 22 16 37.5t38 15.5h789q22 0 37.5 -15.5t15.5 -37.5v-811q0 -7 4.5 -11.5 t11.5 -4.5t11.5 4.5t4.5 11.5v811q0 35 -25 60t-60 25z" />
</svg>