<svg viewBox="0 0 1024 1024" xmlns="http://www.w3.org/2000/svg">
  <path transform="scale(1, -1) translate(0, -960)" fill="currentColor" d="M686 416l-158 -147v0v0v398q0 7 -4.5 11.5t-11.5 4.5t-11.5 -4.5t-4.5 -11.5v-400l-1 0.5t-2 1.5l-157 149q-5 4 -11.5 4t-10.5 -4q-5 -5 -5 -11.5t5 -11.5l156 -150q9 -6 18.5 -9.5t18.5 -3.5q11 0 21 3.5t19 10.5l160 149q5 5 5 11.5t-3 11.5q-4 3 -11 3t-12 -5v0z M912 928h-800q-34 0 -57 -23t-23 -57v-800q0 -34 23 -57t57 -23h800q34 0 57 23t23 57v800q0 34 -23 57t-57 23zM960 48q0 -20 -14 -34t-34 -14h-800q-20 0 -34 14t-14 34v800q0 20 14 34t34 14h800q20 0 34 -14t14 -34v-800z" />
</svg>