<svg viewBox="0 0 256 256" xmlns="http://www.w3.org/2000/svg">
  <path transform="scale(1, -1) translate(0, -256)" fill="currentColor" d="M240 54l-50 93l18 96q0 3 -2 5.5t-5 2.5h-48q-3 0 -5 -2t-2 -5v-15q0 -8 -5.5 -13t-13 -5t-12.5 5t-5 13v15q0 3 -2.5 5t-5.5 2h-46q-4 0 -6 -2.5t-1 -5.5l18 -95l-51 -94q-2 -2 -1.5 -4.5t2.5 -4.5l20 -17q12 -10 28 -10h19q6 0 12 -3l14 -7q8 -4 18 -4t19 4l14 7 q7 3 12 3h19q16 0 28 10l20 17q3 4 0 9zM64 237h32v-8q0 -13 9.5 -22.5t22.5 -9.5t22.5 9.5t9.5 22.5v8h32l-15 -84h-97zM210 39q-9 -7 -19 -7h-19q-10 0 -18 -4l-14 -6q-12 -6 -24 0l-14 6q-8 4 -18 4h-19q-11 0 -19 7l-15 13l47 88h100l47 -88z" />
</svg>