<svg viewBox="0 0 1024 1024" xmlns="http://www.w3.org/2000/svg">
  <path transform="scale(1, -1) translate(0, -960)" fill="currentColor" d="M968 152l-213 291v202v0.5v0.5v2v2q0 1 -0.5 1.5t-0.5 1.5l-0.5 0.5t-1.5 0.5l-109 128v130q0 7 -4.5 11.5t-11.5 4.5t-11.5 -4.5t-4.5 -11.5v-130l-96 -112l-96 112v130q0 7 -4.5 11.5t-11.5 4.5t-11.5 -4.5t-4.5 -11.5v-130l-110 -128l-0.5 -0.5t-1.5 -0.5 q0 -1 -0.5 -1.5t-0.5 -1.5v-2v-2v-0.5v-0.5v-179v0v0v-18l-218 -294q-4 -5 -3 -11.5t6 -11.5q48 -39 102 -70q53 -31 111 -52t118 -32q61 -11 124 -11q61 0 122 11t118.5 31.5t110.5 51.5q54 30 101 70q4 4 5 10.5t-3 11.5v0zM525 634l101 116l97 -113v-168 q-42 -42 -95.5 -65t-113.5 -23t-114 23t-96 65v169l96 114l101 -117q5 -6 12 -6t12 5v0zM512 0q-58 0 -114 10q-56 9 -109.5 28t-103.5 46q-50 28 -95 63l208 283q44 -38 99.5 -59t114.5 -21t113.5 20t99.5 59v0v0l208 -283q-45 -36 -94 -63q-50 -27 -103.5 -45.5 t-109.5 -28.5q-56 -9 -114 -9v0z" />
</svg>