<svg viewBox="0 0 1024 1024" xmlns="http://www.w3.org/2000/svg">
  <path transform="scale(1, -1) translate(0, -960)" fill="currentColor" d="M952 144l-206 376l72 389q1 3 0 6.5t-4 6.5q-1 3 -4 4.5t-7 1.5h-192q-7 0 -11.5 -4.5t-4.5 -11.5v-59q0 -35 -24 -59t-59 -24t-59 24.5t-24 58.5v59q0 7 -4.5 11.5t-11.5 4.5h-191q-3 0 -6.5 -1.5t-5.5 -4.5q-3 -3 -4 -6.5t0 -6.5l72 -386l-206 -377q-2 -5 -1 -10.5 t4 -9.5q46 -38 98 -68q52 -29 107.5 -49t113.5 -31q59 -10 118 -10t118 10q58 11 113.5 31t106.5 49q52 29 97 67q5 3 6 8.5t-1 10.5zM242 896h155v-43q0 -48 33.5 -81.5t81.5 -33.5t81.5 33.5t33.5 81.5v43h157l-67 -358h-408l-67 358v0zM512 0q-55 0 -109 9q-55 9 -106 27 t-99 45t-91 61l199 364h412l199 -365q-43 -34 -91 -61q-48 -26 -99.5 -44t-105.5 -27t-109 -9z" />
</svg>