<svg viewBox="0 0 1024 1024" xmlns="http://www.w3.org/2000/svg">
  <path transform="scale(1, -1) translate(0, -960)" fill="currentColor" d="M792 354q-16 76 -26 150t7 146v1q2 10 3.5 19.5t-2.5 20.5q-3 15 -13 24t-17 15q-10 7 -19.5 14t-18.5 14l-13.5 9t-15.5 7v138q0 7 -4.5 11.5t-11.5 4.5t-11.5 -4.5t-4.5 -11.5v-139v0v0q-9 -4 -16.5 -8.5t-12.5 -9.5l-75 -56q-10 -7 -18.5 -12t-15.5 -4q-7 0 -14.5 5 t-15.5 11l-66 53q-7 6 -15.5 11.5t-19.5 7.5q-2 1 -5 1.5t-6 0.5v139q0 7 -4.5 11.5t-11.5 4.5t-11.5 -4.5t-4.5 -11.5v-144q-12 -5 -22.5 -11.5t-17.5 -12.5q-12 -10 -27 -23.5t-20 -34.5q-2 -13 0.5 -25.5t4.5 -23.5l2 -7q9 -36 9 -78t-11 -94q-3 -20 -8 -40t-9 -39 q-6 -24 -12 -49t-11 -50q-9 -53 -10.5 -106.5t5.5 -107.5q6 -45 27.5 -68.5t60.5 -27.5q5 -1 69 -1q65 -1 140 -1h137h64q16 0 35.5 2t36.5 14q17 13 25 31.5t12 35.5q17 76 6 152t-27 151v0zM285 638l-2 7l-4 18t-1 17q3 11 12.5 20.5t21.5 19.5q13 10 27 18t27 4 q6 -1 12 -5t12 -9l69 -53q9 -7 21.5 -14.5t28.5 -7.5q17 0 31 7.5t23 14.5l75 56q8 6 16 11t15 4q5 0 10 -3.5t11 -8.5q9 -7 18.5 -14t17.5 -14q8 -5 13 -11t7 -12q1 -5 0 -11t-4 -13v-1q-16 -68 -9.5 -136.5t21.5 -135.5q-51 -4 -108 -6t-118 -2q-70 0 -136.5 3t-122.5 8 q3 15 7 31t7 33q12 54 12.5 100t-10.5 85zM782 58q-3 -18 -9 -30t-15 -18q-9 -8 -23 -9t-31 -1h-118h-129t-107 1q-45 0 -51 1q-29 3 -42.5 19t-18.5 49q-7 51 -5.5 102t10.5 102q4 20 8.5 40.5t9.5 40.5q57 -6 125 -8.5t140 -2.5q63 0 122 2t110 6q0 -1 1 -2.5t1 -3.5 q16 -71 26.5 -144.5t-4.5 -143.5v0z" />
</svg>