<svg viewBox="0 0 256 256" xmlns="http://www.w3.org/2000/svg">
  <path transform="scale(1, -1) translate(0, -256)" fill="currentColor" d="M244 56l-52 72v49l-1 3l-28 34v30q0 3 -2 5t-5 2t-5 -2t-2 -5v-32l-21 -24l-21 24v32q0 3 -2 5t-5 2t-5 -2t-2 -5v-31l-27 -32l-2 -3v-50l-52 -72q-2 -2 -1.5 -4.5t2.5 -4.5q24 -20 54 -31t61 -11t61 11t54 31q2 1 2.5 4t-1.5 5zM134 173l22 27l22 -25v-40 q-10 -10 -23 -15t-27 -5q-29 0 -50 20v40l22 25l22 -27q3 -3 6.5 -3t5.5 3zM128 19q-28 0 -54 9t-47 26l48 66q11 -9 25 -14t28 -5q30 0 52 18l49 -66q-21 -16 -47 -25t-54 -9z" />
</svg>