<svg viewBox="0 0 256 256" xmlns="http://www.w3.org/2000/svg">
  <path transform="scale(1, -1) translate(0, -256)" fill="currentColor" d="M226 91h-33v108q0 21 -15 36.5t-37 15.5h-30q-22 0 -37 -15.5t-15 -36.5v-109h-29q-3 0 -5 -2t-2 -5t2 -5t5 -2h17v-64q0 -3 2 -5t5 -2t5 2t2 5v12h135v-12q0 -3 2 -5t5 -2t5 2t2 5v65h17q3 0 5 2t2 5t-2.5 5t-5.5 2zM73 199q0 15 11.5 26.5t26.5 11.5h31 q15 0 26.5 -11.5t11.5 -26.5v-109h-107v109zM61 77h60v-39h-60v39zM195 38h-60v38h61v-38h-1zM94 64h-3q-3 0 -5 -2.5t-2 -5.5t2 -5t5 -2h3q3 0 5 2t2 5t-2.5 5.5t-4.5 2.5zM168 64h-3q-3 0 -5 -2.5t-2 -5.5t2 -5t5 -2h3q3 0 5 2t2 5t-2 5.5t-5 2.5z" />
</svg>