<svg viewBox="0 0 256 256" xmlns="http://www.w3.org/2000/svg">
  <path transform="scale(1, -1) translate(0, -256)" fill="currentColor" d="M201 105v2q-5 24 -6 36q-2 19 1 34v1q2 6 0.5 11.5t-8.5 10.5l-10 8l-6 3v33q0 3 -2 5t-5 2t-4.5 -2t-1.5 -5v-33l-4 -2l-21 -15q-4 -3 -6 -3.5t-5 1.5l-19 14q-5 5 -10 6v0v32q0 3 -2 5t-5 2t-5 -2t-2 -5v-34q-3 -1 -7 -4l-2 -2q-10 -7 -12 -16q-1 -4 1 -12v-4 q5 -16 0 -42l-4 -19q-4 -15 -6 -25q-5 -27 -1 -54q3 -24 25 -27q3 -1 102 -1q14 0 21 5.5t9 18.5q4 17 2 39q-2 13 -7 38zM74 176v2q-2 6 -1.5 8t7.5 7v0q8 6 10.5 5.5t5.5 -3.5l17 -13q8 -6 14.5 -6.5t15.5 6.5l19 15q4 2 5 2l3 -2l10 -7q3 -3 3.5 -4t0.5 -4l-1 -1 q-3 -15 -2 -33q0 -14 4 -33q-21 -2 -53 -2q-34 0 -60 3q1 4 2 12q5 29 0 48zM192 31q-2 -8 -4.5 -10t-11.5 -2q-96 0 -101 0.5t-8 3.5t-4 11q-3 27 1 50q2 12 4 18q33 -3 64 -3q28 0 56 2q5 -24 6 -36q2 -19 -2 -34z" />
</svg>