<svg viewBox="0 0 256 256" xmlns="http://www.w3.org/2000/svg">
  <path transform="scale(1, -1) translate(0, -256)" fill="currentColor" d="M240 54l-50 93l18 96q0 3 -2 5.5t-5 2.5h-48q-3 0 -5 -2t-2 -5v-15q0 -8 -5.5 -13t-13 -5t-12.5 5t-5 13v15q0 3 -2.5 5t-5.5 2h-46q-4 0 -6 -2.5t-1 -5.5l18 -95l-51 -94q-2 -2 -1.5 -4.5t2.5 -4.5q24 -19 52.5 -29.5t58.5 -10.5t58.5 10.5t51.5 29.5q2 1 3 3.5t-1 5.5z M64 237h32v-8q0 -13 9.5 -22.5t22.5 -9.5t22.5 9.5t9.5 22.5v8h32l-15 -84h-97zM128 19q-26 0 -51.5 8.5t-46.5 24.5l48 87h100l47 -87q-21 -16 -46 -24.5t-51 -8.5z" />
</svg>