<svg viewBox="0 0 1024 1024" xmlns="http://www.w3.org/2000/svg">
  <path transform="scale(1, -1) translate(0, -960)" fill="currentColor" d="M904 286h-144v445q1 41 -15 77q-15 36 -41.5 62.5t-62.5 42.5q-35 15 -76 15h-122q-40 0 -76 -15q-35 -16 -61.5 -42.5t-42.5 -62.5q-15 -36 -15 -77v-445h-128q-7 0 -11.5 -4t-4.5 -12q0 -7 4.5 -11.5t11.5 -4.5h80v-270q0 -7 4.5 -11.5t11.5 -4.5t11.5 4.5t4.5 11.5v59 h563v-59q0 -7 4.5 -11.5t11.5 -4.5t11.5 4.5t4.5 11.5v270h80q7 0 11.5 4.5t4.5 11.5q0 8 -6 12t-13 4zM280 731q0 69 48 117t117 48h121q68 0 116 -48t48 -117v-445h-450v445v0zM230 254h266v-179h-266v179v0zM794 75h-266v179h266v-179zM374 178h-11q-7 0 -11.5 -4.5 t-4.5 -11.5q0 -8 4.5 -12t11.5 -4h11q8 0 12 4t4 12q0 7 -5 11.5t-11 4.5zM670 178h-11q-7 0 -11.5 -4.5t-4.5 -11.5q0 -8 4.5 -12t11.5 -4h11q8 0 12 4t4 12q0 7 -4 11.5t-12 4.5z" />
</svg>