<svg viewBox="0 0 256 256" xmlns="http://www.w3.org/2000/svg">
  <path transform="scale(1, -1) translate(0, -256)" fill="currentColor" d="M128 255q-34 0 -63.5 -17t-46.5 -46.5t-17 -63.5t17 -63.5t46.5 -46.5t63.5 -17t63.5 17t46.5 46.5t17 63.5t-17 63.5t-46.5 46.5t-63.5 17zM241 122q-41 3 -83 -8q-8 22 -14 35q43 14 79 40q18 -28 18 -61v-6zM215 200q-33 -25 -77 -39q-22 45 -48 73q18 7 38 7 q26 0 48.5 -11t38.5 -30zM76 228q26 -26 49 -71q-57 -14 -107 -4q5 25 20.5 44.5t37.5 30.5zM16 140q23 -5 45 -5q35 0 70 10q6 -12 14 -35q-60 -18 -101 -57q-14 16 -21.5 35t-7.5 40zM54 43q39 37 96 54l4 -15q9 -30 14 -60q-19 -7 -40 -7t-40 7.5t-34 20.5zM181 28 q-6 33 -13 58l-5 14q37 10 76 7q-5 -25 -20.5 -46t-37.5 -33z" />
</svg>