<svg viewBox="0 0 256 256" xmlns="http://www.w3.org/2000/svg">
  <path transform="scale(1, -1) translate(0, -256)" fill="currentColor" d="M219 217h-23v1q0 13 -9.5 23t-23.5 10h-70q-14 0 -23.5 -9.5t-9.5 -23.5v-1h-23q-3 0 -5 -2t-2 -5t2 -5.5t5 -2.5h23v0q0 -13 7.5 -22t19.5 -11v-6q0 -15 9.5 -26.5t24.5 -14.5v-24l-14 -7q-3 -1 -4 -4t1 -6t6 -3l2 1l9 3v-14l-14 -7q-3 -1 -4 -4t1 -6t6 -3l2 1l9 3v-14 l-14 -7q-3 -1 -4 -4t1 -6t6 -3l2 1l9 3v-10q0 -3 2 -5t5 -2t5 2t2 5v18l14 7q3 1 4 4t-0.5 5.5t-4 3.5t-5.5 0l-8 -4v14l14 7q3 1 4 4t-0.5 5.5t-4 3.5t-5.5 0l-8 -4v14l14 7q3 1 4 4t-0.5 5.5t-4 3.5t-5.5 0l-8 -4v17q15 2 25 13.5t10 26.5v6q11 2 19 11.5t8 21.5v1h23 q3 0 5 2t2 5t-2.5 5t-5.5 2zM128 136q-11 0 -19 8t-8 20v5h54v-5q0 -12 -8 -20t-19 -8zM182 202q0 -8 -5.5 -13.5t-13.5 -5.5h-70q-8 0 -13.5 5.5t-5.5 13.5v16q0 8 5.5 13.5t13.5 5.5h70q8 0 13.5 -5.5t5.5 -13.5v-16zM146 217h-35q-3 0 -5 -2t-2 -5t2 -5.5t5 -2.5h35 q3 0 5 2.5t2 5.5t-2.5 5t-4.5 2z" />
</svg>