<svg viewBox="0 0 1024 1024" xmlns="http://www.w3.org/2000/svg">
  <path transform="scale(1, -1) translate(0, -960)" fill="currentColor" d="M877 792h-104v14q0 51 -35.5 86.5t-86.5 35.5h-278q-51 0 -86.5 -35.5t-35.5 -86.5v-14h-104q-7 0 -11.5 -4.5t-4.5 -11.5t4.5 -11.5t11.5 -4.5h104v-14q0 -47 31.5 -82t77.5 -40v-35q0 -59 39 -102t97 -50v-115l-62 -31q-6 -2 -8 -8.5t1 -12.5q3 -4 6.5 -6.5t8.5 -2.5h3 t3 1l48 24v-84l-62 -31q-6 -2 -8 -8.5t1 -12.5q3 -4 6.5 -6.5t8.5 -2.5h3t3 1l48 24v-84l-62 -31q-6 -2 -8 -8.5t1 -12.5q3 -4 6.5 -6.5t8.5 -2.5h3t3 1l48 24v-62q0 -7 4.5 -11.5t11.5 -4.5t11.5 4.5t4.5 11.5v78l64 32q6 3 8 9t-2 12q-2 6 -8 8t-12 -1l-50 -23v85l64 32 q6 2 8 8.5t-2 12.5q-2 6 -8 8t-12 -2l-50 -24v85l64 32q6 2 8 8.5t-2 12.5q-2 6 -8 8t-12 -2l-50 -24v99q58 6 98 49t40 103v34q45 5 76.5 39.5t31.5 82.5v14h104q8 0 12 4.5t4 11.5t-5.5 11.5t-11.5 4.5zM512 469q-49 0 -84.5 35.5t-35.5 84.5v35h240v-34 q0 -50 -35.5 -85.5t-84.5 -35.5v0zM741 746q0 -38 -26.5 -64t-63.5 -26h-278q-37 0 -63.5 26t-26.5 64v60q0 38 26.5 64t63.5 26h278q37 0 63.5 -26t26.5 -64v-60v0zM582 792h-139q-7 0 -11.5 -4.5t-4.5 -11.5t4.5 -11.5t11.5 -4.5h139q8 0 12 4.5t4 11.5t-5 11.5t-11 4.5z " />
</svg>