<svg viewBox="0 0 1024 1024" xmlns="http://www.w3.org/2000/svg">
  <path transform="scale(1, -1) translate(0, -960)" fill="currentColor" d="M685 707h-71v119q0 42 -30 72t-72 30t-72 -30t-30 -72v-117h-71q-7 0 -11.5 -4.5t-4.5 -11.5t4.5 -11.5t11.5 -4.5h71v-407q0 -2 1 -4.5t2 -4.5l83 -127v-150q0 -7 4.5 -11.5t11.5 -4.5t11.5 4.5t4.5 11.5v150l83 127q1 2 2 4.5t1 4.5v405h71q7 0 11.5 4.5t4.5 11.5 t-4.5 11.5t-11.5 4.5v0zM442 826q0 28 20.5 49t49.5 21t49.5 -21t20.5 -49v-117h-140v117v0zM582 275l-70 -107l-70 106v401h140v-400v0z" />
</svg>