<svg viewBox="0 0 1024 1024" xmlns="http://www.w3.org/2000/svg">
  <path transform="scale(1, -1) translate(0, -960)" fill="currentColor" d="M995 454l-189 125l191 125q6 4 9 10t2 12q0 8 -3.5 13.5t-9.5 9.5l-246 163q-6 5 -14.5 5t-16.5 -5l-208 -138l-206 138q-7 6 -16 6t-16 -6l-243 -162q-6 -3 -9.5 -9.5t-3.5 -12.5q0 -7 3.5 -13t9.5 -9l189 -125l-189 -127q-6 -3 -9.5 -9t-3.5 -13t3.5 -13t9.5 -9 l155 -103v-112q0 -7 3.5 -13t9.5 -11l302 -187q4 -2 7.5 -3.5t7.5 -1.5q3 0 6.5 1.5t7.5 3.5l301 184q6 4 9.5 10.5t3.5 13.5v115l153 103q6 3 9.5 9t3.5 13q-1 7 -4 13t-9 9v0zM749 579l-237 -157l-235 159l235 155l237 -157v0zM734 883l237 -157l-193 -128l-237 157z M51 728l237 157l194 -128l-236 -157h-3l-192 128v0zM245 560l237 -158l-194 -128l-237 158l194 128v0zM214 285l60 -39q3 -2 6.5 -3t7.5 -1t8 1t6 3l192 127v-349l-280 173v88v0zM810 195l-282 -173v351l192 -127q4 -2 7.5 -3t6.5 -1q4 0 8 1t7 3l59 39v-90h2zM736 275 l-194 127l90 59l147 97l194 -128z" />
</svg>