<svg viewBox="0 0 256 256" xmlns="http://www.w3.org/2000/svg">
  <path transform="scale(1, -1) translate(0, -256)" fill="currentColor" d="M159 210h-6v16q0 11 -7.5 18t-17.5 7t-17.5 -7t-7.5 -18v-16h-6q-8 0 -14 -5.5t-6 -14.5v-9q0 -8 6 -14t14 -6h6v-131q0 -10 7.5 -17.5t17.5 -7.5t17.5 7.5t7.5 17.5v131h6q8 0 14 5.5t6 14.5v9q0 9 -6 14.5t-14 5.5zM117 226q0 4 3 7.5t7.5 3.5t8 -3.5t3.5 -7.5v-16h-22 v16zM139 30q0 -5 -3 -8t-8 -3t-8 3t-3 8v131h22v-131zM165 181q0 -3 -2 -4.5t-4 -1.5h-62q-2 0 -4 1.5t-2 4.5v9q0 3 2 4.5t4 1.5h62q3 0 4.5 -1.5t1.5 -4.5v-9z" />
</svg>