<svg viewBox="0 0 1024 1024" xmlns="http://www.w3.org/2000/svg">
  <path transform="scale(1, -1) translate(0, -960)" fill="currentColor" d="M142 -18q-21 0 -41 8.5t-37 23.5q-16 16 -24 36t-8 41q0 22 8 41.5t24 35.5l528 512l-21 19q-15 15 -23.5 34.5t-8.5 40.5q0 22 8.5 41.5t23.5 34.5l7 6q30 29 72.5 29t72.5 -29l24 -24l55 53q32 31 78 31t78 -31q16 -16 24 -35.5t8 -41.5t-8 -41.5t-24 -35.5l-52 -51 l20 -19q16 -15 24 -34.5t8 -40.5q0 -22 -8 -41.5t-24 -34.5l-6 -6q-30 -29 -73 -29t-73 29l-24 24l-528 -512q-16 -18 -37 -26t-43 -8v0zM614 656l-528 -512q-10 -11 -16 -25t-6 -29q0 -16 6 -30t16 -25q23 -23 56.5 -23t55.5 23l528 512zM651 851q-13 0 -26.5 -5t-24.5 -16 l-6 -6q-11 -11 -17 -24t-6 -29q0 -15 6 -28.5t17 -24.5l201 -196q21 -21 51 -21t50 21l6 6q11 11 17 24t6 29q0 14 -6 28t-17 25l-201 198q-10 10 -23.5 14.5t-26.5 4.5v0zM771 808l112 -109l55 53q10 11 16 25t6 29q0 16 -6 30t-16 25q-23 23 -56.5 23t-55.5 -23z" />
</svg>