<svg viewBox="0 0 1024 1024" xmlns="http://www.w3.org/2000/svg">
  <path transform="scale(1, -1) translate(0, -960)" fill="currentColor" d="M766 550q-16 44 -39 89q-23 46 -51 92t-60 92t-67 89q-6 7 -15.5 11.5t-19.5 4.5v0v0q-11 0 -20.5 -4.5t-15.5 -13.5q-33 -42 -64 -86q-31 -45 -59 -90.5t-52 -90.5t-42 -88q-30 -69 -45.5 -135.5t-15.5 -126.5v-32q1 -61 26 -114q26 -53 68.5 -93t98.5 -63 q57 -23 121 -23t120 23q57 23 99 62t67 92t26 113v32q0 60 -15.5 124t-44.5 136v0zM794 259q-1 -54 -23 -101q-23 -47 -61 -82t-89 -56q-50 -20 -107 -20t-108 20q-51 21 -89 56.5t-61 82.5q-23 48 -24 102v32q0 57 14.5 119.5t44.5 129.5q18 42 41 87q23 44 50.5 88.5 t57.5 88.5q31 44 64 85q1 3 3.5 4t6.5 1v0v0q3 0 5.5 -1t5.5 -4q34 -42 65 -87q31 -44 58.5 -89.5t49.5 -90.5q23 -44 40 -86q28 -70 42 -131t14 -117v-31v0z" />
</svg>