<svg viewBox="0 0 256 256" xmlns="http://www.w3.org/2000/svg">
  <path transform="scale(1, -1) translate(0, -256)" fill="currentColor" d="M250 132l-43 29l44 29q4 3 4 8t-5 8l-61 40q-3 2 -6 2t-5 -2l-50 -33l-50 33q-2 2 -5.5 2.5t-6.5 -2.5l-61 -40q-4 -3 -4 -8t4 -8l43 -29l-43 -29q-4 -3 -4 -8t4 -8l37 -25v-26q0 -6 5 -9l76 -46q2 -2 5 -2t5 2l75 46q5 3 5 8v28l37 24q4 3 4.5 8t-4.5 8zM128 125l-54 36 l54 35l54 -35zM184 233l53 -35l-43 -29l-53 36zM18 198l54 36l44 -29l-54 -35h-1zM61 152l54 -36l-43 -28l-54 36zM57 82l10 -7q2 -2 5 -2t6 2l43 29v-77l-64 40v15zM199 66l-64 -39v77l43 -29q3 -1 6 -1t5 1l10 7v-16zM184 88l-43 29l53 35l43 -28z" />
</svg>