<svg viewBox="0 0 1024 1024" xmlns="http://www.w3.org/2000/svg">
  <path transform="scale(1, -1) translate(0, -960)" fill="currentColor" d="M517 -32q-72 0 -142.5 31t-121.5 87q-30 33 -50 70q-19 37 -28 77t-6 82q2 43 15 87q12 39 30.5 73.5t36.5 63.5q7 12 15 24l16 24l217 333q5 7 14 7t13 -7l204 -315q4 -9 10 -17t12 -17q30 -44 57 -90.5t39 -99.5q14 -67 2.5 -134t-47.5 -122q-43 -65 -110 -106.5 t-144 -48.5q-9 -2 -16.5 -2h-15.5v0zM512 883l-203 -313q-7 -12 -15 -24l-16 -24v0q-16 -28 -34 -60.5t-30 -71.5q-24 -78 -8.5 -151t69.5 -132q52 -56 124.5 -85t144.5 -20q70 7 131 44.5t99 95.5q33 50 43.5 111t-3.5 121q-10 48 -36 93t-55 87q-6 8 -11 16.5t-11 16.5 l-189 296v0zM266 530v0v0z" />
</svg>