<svg viewBox="0 0 256 256" xmlns="http://www.w3.org/2000/svg">
  <path transform="scale(1, -1) translate(0, -256)" fill="currentColor" d="M36 8q-13 0 -22 9t-9 21.5t9 21.5l130 125l-3 3q-9 9 -9 21t9 21l1 1q9 8 21 8t20 -8l4 -4l12 11q9 9 21.5 9t21.5 -8.5t9 -21t-9 -21.5l-11 -11l3 -3q8 -8 8 -20t-8 -21l-2 -2q-8 -8 -20 -8t-21 8l-4 4l-129 -126q-9 -9 -22 -9zM154 176l-130 -126q-5 -5 -5 -12t5 -11.5 t12 -4.5t12 5l130 126zM163 226q-7 0 -11 -4l-1 -2q-5 -4 -5 -10.5t5 -10.5l50 -49q5 -5 11 -5t10 5l2 1q5 4 5 11t-5 11l-51 49q-4 4 -10 4zM197 218l24 -23l11 11q5 5 5 11.5t-5 11.5t-12 5t-12 -5z" />
</svg>