<svg viewBox="0 0 1024 1024" xmlns="http://www.w3.org/2000/svg">
  <path transform="scale(1, -1) translate(0, -960)" fill="currentColor" d="M883 838q-42 44 -96.5 67t-112.5 23q-64 0 -123.5 -26.5t-108.5 -75.5q-44 -45 -66 -125q-23 -81 -33 -164t-11 -151q-1 -69 -1 -90l-169 -176q-3 0 -5.5 -1t-4.5 -4l-102 -1q-8 0 -12 -5t-4 -11t5 -11t11 -5v0v0l97 1v-99q0 -7 4.5 -11.5t11.5 -4.5t11.5 4.5t4.5 11.5 v104q3 2 4 4.5t1 5.5l170 176h11.5h16.5q40 0 110 3t146 14.5t146 33.5t109 61q57 56 79 117t16.5 121t-33.5 115q-29 55 -72 99v0zM874 410q-39 -38 -113 -59q-73 -21 -152 -31t-147 -12q-69 -1 -97 -1q-1 28 1 95q2 66 11.5 143t30.5 149q20 72 58 111q43 44 97 68.5 t111 24.5q52 0 99.5 -20.5t87.5 -59.5q38 -41 64 -91q26 -51 31 -104.5t-13 -108.5q-19 -55 -69 -104v0z" />
</svg>