<svg viewBox="0 0 1024 1024" xmlns="http://www.w3.org/2000/svg">
  <path transform="scale(1, -1) translate(0, -960)" fill="currentColor" d="M632 755v0q-12 4 -23.5 12.5t-19.5 19.5q-5 6 -10 13.5t-11 15.5l-74 107q-7 11 -19.5 16.5t-24.5 2.5q-14 -2 -23.5 -11.5t-12.5 -21.5l-24 -117q-4 -19 -17 -33.5t-32 -22.5q-57 -24 -102 -63q-46 -38 -78 -87t-49 -105q-18 -57 -18 -118q0 -85 33 -160t89.5 -130.5 t133.5 -88.5q76 -32 162 -32t162 32q76 33 133 88.5t90 130.5t33 160q0 67 -22 129t-61 114t-94 91q-55 38 -121 58zM512 -16q-80 0 -150 30t-122.5 81t-82.5 121q-31 69 -31 147q0 57 17 109q16 53 45.5 97.5t71.5 80.5q42 35 94 57q26 11 43.5 31t24.5 48l26 118 q1 4 3.5 6t6.5 4h0.5h0.5q4 0 6.5 -1.5t4.5 -3.5l74 -107q6 -10 11.5 -17.5t9.5 -13.5q11 -15 27 -26.5t34 -16.5q59 -20 109 -56q50 -37 86 -85t56 -105q21 -58 21 -119q0 -78 -31 -147q-30 -70 -82.5 -121t-122.5 -81t-150 -30v0zM726 498q-10 7 -23.5 10.5t-28.5 1.5 q-11 -1 -21 -2.5t-19 -6.5q-11 -5 -20 -10t-17 -11l-8 -5q-3 -2 -6 -3.5l-5 -2.5h-2l-1 -0.5t-1 -1.5q-1 0 -2.5 1.5t-5.5 3.5q-2 1 -3.5 2.5t-4.5 2.5l-6 5q-6 4 -12 8.5t-14 7.5q-36 18 -74 22.5t-71 -5.5q-23 -7 -41.5 -21t-30.5 -35q-11 -19 -13.5 -42t3.5 -46 q7 -25 21.5 -45.5t34.5 -32.5q13 -7 27.5 -11.5t30.5 -4.5q7 0 15.5 1t17.5 4q38 9 66.5 30.5t53.5 44.5l13 11q1 -2 2.5 -3.5l2.5 -2.5l5 -8q2 -5 5.5 -10.5t7.5 -10.5q19 -24 51.5 -36.5t64.5 4.5q15 7 31 26t21 59q2 16 1 29.5t-3 24.5q-7 19 -17 34t-25 24v0zM734 390 q-2 -15 -9.5 -33.5t-25.5 -26.5q-20 -11 -41.5 -2.5t-35.5 24.5q-2 4 -5 8l-6 8l-3 11q-6 11 -11 17.5t-11 9.5l-4 2h-3q-5 0 -9 -2t-8 -6l-20 -16q-24 -22 -49 -41t-56 -28l-14 -2t-12 -1q-11 0 -21.5 2.5t-19.5 8.5q-15 9 -26 24t-16 34q-4 17 -2.5 34t8.5 30 q9 14 22.5 25.5t30.5 15.5q10 3 19.5 4t20.5 1q21 0 42 -5t43 -16q6 -2 11 -5.5t10 -6.5l6 -5q3 -3 5 -4t5 -3q8 -6 15.5 -8t13.5 -1q3 0 6.5 1.5t5.5 3.5l2 1q4 3 7.5 4.5t6.5 3.5l8 5q8 5 15 9.5t16 8.5q7 2 14.5 4t15.5 2q10 0 18.5 -1.5t15.5 -6.5q9 -6 15.5 -15.5 t9.5 -21.5v0q3 -9 3 -19.5t-3 -25.5v0zM602 112q-6 -4 -12.5 -6.5t-13.5 -4.5q-13 -5 -27 -6.5t-27 -1.5q-14 1 -28 4.5t-27 9.5q-6 3 -12 0.5t-9 -8.5q-2 -6 0 -12t8 -9q17 -7 33 -10.5t31 -5.5h7h6q15 0 28.5 2.5t27.5 7.5q9 2 16.5 6t15.5 8q6 4 7.5 10.5t-2.5 12.5 q-5 3 -11.5 5t-10.5 -2zM610 234q-21 0 -40.5 -9t-33.5 -23q-5 -5 -5 -11.5t5 -11.5q2 -2 5 -3.5t6 -1.5q4 0 6.5 1.5t4.5 3.5q10 11 23.5 17t28.5 6q10 0 19.5 -3.5t15.5 -9.5q5 -5 11 -5t11 5t5 11t-5 11q-11 12 -26 18t-31 5v0z" />
</svg>