<svg viewBox="0 0 1024 1024" xmlns="http://www.w3.org/2000/svg">
  <path transform="scale(1, -1) translate(0, -960)" fill="currentColor" d="M734 754q-2 0 -2 0.5t2 -0.5q-33 21 -65 34.5t-64 30.5q-5 1 -9 4.5t-9 6.5q-21 17 -51 49t-56 62q-1 -16 -3.5 -28.5t-6.5 -24.5q-4 -19 -14.5 -33.5t-20.5 -22.5q-2 -1 -2.5 -1.5t-2.5 -0.5q-37 -28 -63.5 -41.5t-57.5 -30.5q-1 -1 -6 -3.5t-10 -5.5q-19 -12 -50 -36 t-61 -59q-40 -47 -66 -104q-25 -58 -33 -119t2 -122q9 -62 38 -117q22 -41 51.5 -78t67.5 -66q38 -30 86.5 -49t95.5 -29q67 -16 132 -14.5t129 26.5q49 20 91.5 51.5t76.5 72.5q45 56 68 125.5t23 141.5q3 92 -25 160q-29 68 -66 114.5t-73 72.5q-35 26 -46 34v0zM176 592 q-1 1 -7.5 8.5t5.5 23.5q36 54 89.5 89.5t74.5 44.5q7 4 35 19t59 37q20 16 33.5 36t19.5 67q5 -17 5.5 -31.5t0.5 -32.5q-1 -19 -13.5 -30t-13.5 -13q-4 -4 -15 -9t-14 -9q-3 -1 -3 -3t3 -2q5 -1 8 -3.5t3 -7.5q0 -4 -3.5 -13.5t-21.5 -26.5q-30 -30 -59 -54t-82 -55 q-50 -30 -76 -32.5t-28 -2.5v0zM739 34q-3 -4 -33 -21t-69 -19q-40 -3 -86 0t-77 32q-5 4 -4.5 11t4.5 9q3 4 5.5 5.5t6.5 1.5t5 -0.5t2 -1.5q13 -12 38 -19.5t71 -7.5q45 0 78 10.5t46 21.5q5 5 8.5 3t4.5 -5q3 -7 4 -12.5t-4 -7.5v0zM568 118q8 8 19.5 18t23.5 14 q13 5 21 5h19q12 0 23.5 -1.5t19.5 -4.5q9 -5 14 -16.5t9 -17.5q3 -7 0.5 -11.5t-7.5 -5.5q-4 -4 -6 -1.5t-6 12.5q-5 8 -13 16.5t-35 8.5q-26 0 -37 -7t-24 -18q-13 -10 -18.5 -13t-8.5 2q-4 3 -2 8.5t8 11.5v0zM824 112q-25 1 -70 55.5t-77 54.5q-21 1 -53 -17 q-31 -18 -68 -39.5t-76 -40.5q-39 -18 -75 -18q-42 0 -61 5.5t-34 17.5q-20 15 -31.5 38.5t-11.5 53.5q1 57 48 101.5t114 46.5q41 0 77 -17t66.5 -38t56.5 -38q25 -18 46 -18q36 1 94 48t92 47q36 0 48.5 -29t12.5 -51t-8 -57t-24 -62q-18 -25 -32 -34.5t-34 -8.5v0z" />
</svg>