<svg viewBox="0 0 256 256" xmlns="http://www.w3.org/2000/svg">
  <path transform="scale(1, -1) translate(0, -256)" fill="currentColor" d="M184 204q-1 0 -1 0.5t1 -0.5q-8 5 -21 11l-12 6q-1 0 -3 2l-1 1q-8 6 -27 27q-1 -7 -2.5 -14t-8.5 -13h-1q-10 -8 -24 -15l-11 -6q-16 -10 -27 -23q-21 -24 -25 -56.5t10 -59.5q12 -22 29 -35.5t46 -20.5q36 -8 65 4q25 9 42 30q11 14 17 31.5t6 35.5q1 37 -21 66 q-11 15 -30 28zM44 164v0q-4 3 0 8q7 12 22 22q10 8 18 12h1q13 6 23 14q6 4 9 9t4 16q2 -5 2 -16q-1 -5 -6 -10l-4 -3q-4 -1 -4.5 -1.5t-0.5 -1t2 -1t2 -3.5t-7 -9q-8 -8 -15 -13q-8 -7 -20 -14q-16 -10 -26 -9v0zM185 24q-2 -2 -8 -5q-9 -4 -18 -5q-14 0 -21 1 q-13 1 -20 7q-1 2 -1 3.5t1.5 2.5t3.5 1h1q8 -7 27 -7q11 0 19.5 2.5t11.5 5t4 0.5v-1q1 -4 0 -5zM142 46q1 0 2 1q6 5 9 6.5t8 1.5h2q7 0 10 -1.5t5 -6.5l1 -2q1 -2 0.5 -3t-1.5 -1.5t-2 -0.5l-2 4q-1 3 -3.5 4.5t-8 1.5t-8 -1.5t-6.5 -4.5l-6 -4q-1 -1 -2 0.5t2 5.5z M206 44q-3 0 -7 4l-9 8q-7 8 -11 11q-6 5 -10 5t-11 -4l-15 -8q-13 -8 -21 -12q-12 -5 -21.5 -5t-14.5 1t-8 4q-11 9 -11 23.5t12 25.5t28 11q11 1 23 -5q6 -3 18 -12l11 -7q6 -3 10 -3t11 4l25 16q6 3 10 3q8 0 11.5 -6t3.5 -13t-2 -15.5t-6 -15t-7.5 -8.5t-8.5 -2z" />
</svg>