<svg viewBox="0 0 1024 1024" xmlns="http://www.w3.org/2000/svg">
  <path transform="scale(1, -1) translate(0, -960)" fill="currentColor" d="M189 509q61 0 106 41t51 100h334q6 -59 51 -100t106 -41q65 0 111 46t46 111q0 64 -46 110t-111 46q-61 0 -106 -41t-51 -99h-334q-6 58 -51 99t-106 41q-65 2 -111 -44t-46 -111t46 -111.5t111 -46.5v0zM835 792q52 0 88.5 -36.5t36.5 -88.5q0 -51 -36.5 -88t-88.5 -37 q-51 0 -88 37t-37 88q0 52 37 88.5t88 36.5zM189 792q51 0 88 -36.5t37 -88.5q0 -51 -37 -88t-88 -37q-52 0 -88.5 37t-36.5 88q0 52 36.5 88.5t88.5 36.5zM835 387q-61 0 -106 -41t-51 -100h-332q-6 59 -51 100t-106 41q-65 0 -111 -46t-46 -111q0 -64 46 -110t111 -46 q61 0 106 41t51 99h334q6 -58 51 -99t106 -41q65 0 111 46t46 110q-2 64 -48 110.5t-111 46.5v0zM189 104q-52 0 -88.5 36.5t-36.5 88.5q0 51 36.5 88t88.5 37q51 0 88 -37t37 -88q0 -52 -37 -88.5t-88 -36.5zM835 104q-51 0 -88 36.5t-37 88.5q0 51 37 88t88 37 q52 0 88.5 -37t36.5 -88q0 -52 -36.5 -88.5t-88.5 -36.5z" />
</svg>