<svg viewBox="0 0 1024 1024" xmlns="http://www.w3.org/2000/svg">
  <path transform="scale(1, -1) translate(0, -960)" fill="currentColor" d="M976 464h-54v86q0 14 -9.5 23t-22.5 9h-125q-13 0 -22.5 -9t-9.5 -23v-86h-440v86q0 14 -9.5 23t-22.5 9h-125q-13 0 -22.5 -9t-9.5 -23v-86h-56q-7 0 -11.5 -4.5t-4.5 -11.5t4.5 -11.5t11.5 -4.5h56v-86q0 -14 9.5 -23t22.5 -9h125q13 0 22.5 9t9.5 23v86h438v-86 q0 -14 9.5 -23t22.5 -9h125q13 0 22.5 9t9.5 23v86h56q7 0 11.5 4.5t4.5 11.5t-4.5 11.5t-11.5 4.5zM136 346v204h125v-203h-125v-1zM890 346h-125v204h125v-204z" />
</svg>