<svg viewBox="0 0 256 256" xmlns="http://www.w3.org/2000/svg">
  <path transform="scale(1, -1) translate(0, -256)" fill="currentColor" d="M47 140q16 0 27.5 10.5t14.5 25.5h78q3 -15 14.5 -25.5t28 -10.5t29 12.5t12.5 30t-12.5 30t-29 12.5t-28 -10t-14.5 -25h-78q-3 15 -14.5 25t-28 10t-29 -12.5t-12.5 -30t12.5 -30t29.5 -12.5zM209 211q12 0 20 -8.5t8 -20t-8 -20t-20 -8.5t-20.5 8.5t-8.5 20t8.5 20 t20.5 8.5zM47 211q12 0 20.5 -8.5t8.5 -20t-8.5 -20t-20 -8.5t-20 8.5t-8.5 20t8.5 20t19.5 8.5zM209 116q-16 0 -27.5 -10.5t-14.5 -25.5h-78q-3 15 -14.5 25.5t-28 10.5t-29 -12.5t-12.5 -30t12.5 -30t29 -12.5t28 10t14.5 25h78q3 -15 14.5 -25t28 -10t29 12.5t12.5 30 t-12.5 30t-29.5 12.5zM47 45q-11 0 -19.5 8.5t-8.5 20t8.5 20t20 8.5t20 -8.5t8.5 -20t-8.5 -20t-20.5 -8.5zM209 45q-12 0 -20.5 8.5t-8.5 20t8.5 20t20.5 8.5t20 -8.5t8 -20t-8 -20t-20 -8.5z" />
</svg>