<svg viewBox="0 0 256 256" xmlns="http://www.w3.org/2000/svg">
  <path transform="scale(1, -1) translate(0, -256)" fill="currentColor" d="M232 177h-12v3q0 7 -6 13t-14 6h-35q-3 0 -5 -2t-2 -5v-57h-60v57q0 3 -2.5 5t-5.5 2h-35q-8 0 -13.5 -5.5t-5.5 -13.5v-3h-12q-8 0 -13.5 -5.5t-5.5 -13.5v-60q0 -8 5.5 -13.5t13.5 -5.5h12v-3q0 -8 6 -13.5t14 -5.5h35q3 0 5 2t2 5v57h61v-57q0 -3 2 -5t5 -2h36 q8 0 13.5 5.5t5.5 13.5v3h11q8 0 13.5 5.5t5.5 13.5v60q0 8 -5.5 13.5t-13.5 5.5zM24 93q-2 0 -3.5 1.5t-1.5 3.5v60q0 2 1.5 3.5t3.5 1.5h12v-70h-12zM84 72h-29q-2 0 -3.5 1.5t-1.5 3.5v102q0 2 1.5 3.5t3.5 1.5h29v-112zM206 76q0 -2 -1.5 -3.5t-4.5 -1.5h-28v113h28 q3 0 4.5 -1.5t1.5 -3.5v-103zM237 98q0 -2 -1.5 -3.5t-3.5 -1.5h-12v70h12q2 0 3.5 -1.5t1.5 -3.5v-60z" />
</svg>