<svg viewBox="0 0 256 256" xmlns="http://www.w3.org/2000/svg">
  <path transform="scale(1, -1) translate(0, -256)" fill="currentColor" d="M250 136l-21 30q-7 9 -18 9h-22q-9 0 -15.5 -6t-6.5 -16v-70h-21v103h30q3 0 5.5 2t2.5 5t-2.5 5t-5.5 2h-63q-3 0 -5 -2l-24 -28h-57q-10 0 -16 -6.5t-6 -15.5v-58q0 -9 6 -15.5t16 -6.5h5q3 -5 8 -8.5t12 -3.5t12 3.5t8 8.5h10q2 -5 7.5 -8.5t12 -3.5t12 3.5t8.5 8.5 h64q3 -5 8.5 -8.5t12 -3.5t12 3.5t7.5 8.5h18q3 0 5 2.5t2 5.5v56q0 2 -1 4zM189 161h22q5 0 7 -3l14 -21h-51v16q0 4 2 6t6 2zM19 91v57q0 3 2.5 5.5t5.5 2.5h60q4 0 5 2l25 28h15v-103h-8q-2 8 -8 12.5t-13.5 4.5t-13.5 -5t-8 -12h-7q-2 8 -8 12.5t-13.5 4.5t-13.5 -5 t-7 -12h-4q-4 0 -6.5 2t-2.5 6zM52 70q-3 0 -5.5 2.5t-2.5 5.5t2.5 5.5t6 2.5t5.5 -2.5t2 -5.5t-2.5 -5.5t-5.5 -2.5zM102 70q-3 0 -5.5 2.5t-2.5 5.5t2.5 5.5t5.5 2.5t5.5 -2.5t2.5 -5.5t-2.5 -5.5t-5.5 -2.5zM206 70q-5 0 -7 6l-1 2q1 4 3 6t5.5 2t5.5 -2.5t2 -5.5 t-2 -5.5t-6 -2.5zM228 83q-2 7 -8 12t-13.5 5t-13.5 -5t-8 -12h-4v40h56v-40h-9zM43 110q3 0 5 2t2 5v19q0 3 -2 5t-5 2t-5 -2t-2 -5v-19q0 -3 2 -5t5 -2zM83 110q3 0 5 2t2 5v19q0 3 -2 5t-5 2t-5 -2.5t-2 -4.5v-19q0 -3 2 -5t5 -2z" />
</svg>