<svg viewBox="0 0 256 256" xmlns="http://www.w3.org/2000/svg">
  <path transform="scale(1, -1) translate(0, -256)" fill="currentColor" d="M174 204h-92q-3 0 -5 -2t-2 -5t2 -5t5 -2h92q3 0 5 2t2 5t-2 5t-5 2zM174 165h-92q-3 0 -5 -2t-2 -5t2 -5.5t5 -2.5h92q3 0 5 2.5t2 5.5t-2 5t-5 2zM147 126h-65q-3 0 -5 -2t-2 -5t2 -5t5 -2h65q3 0 5 2t2 5t-2 5t-5 2zM128 86q-10 0 -17 -7t-7 -17t7 -17t17 -7t17 7 t7 17t-7 17t-17 7zM128 52q-4 0 -7 3t-3 7t3 7t7 3t7 -3t3 -7t-3 -7t-7 -3zM186 251h-116q-16 0 -27.5 -11.5t-11.5 -27.5v-168q0 -16 11.5 -27.5t27.5 -11.5h116q16 0 27.5 11.5t11.5 27.5v168q0 16 -11.5 27.5t-27.5 11.5zM211 44q0 -10 -7.5 -17.5t-17.5 -7.5h-116 q-10 0 -17.5 7.5t-7.5 17.5v168q0 10 7.5 17.5t17.5 7.5h116q10 0 17.5 -7.5t7.5 -17.5v-168z" />
</svg>