<svg viewBox="0 0 1024 1024" xmlns="http://www.w3.org/2000/svg">
  <path transform="scale(1, -1) translate(0, -960)" fill="currentColor" d="M53 506v0v0v0zM971 474q0 66 -13 126.5t-43 117.5q-30 56 -72 98t-93 70.5t-110 42.5q-58 15 -122 15q-104 0 -186 -36q-81 -37 -139.5 -97.5t-93.5 -139.5q-35 -80 -46 -165q32 46 75 90q44 44 99 78.5t121 56.5t143 24l34 -3t73.5 -23t69.5 -62q30 -43 22 -121h-349 q8 55 25.5 90.5t41.5 65.5q-56 -27 -101 -63q-45 -37 -76.5 -83.5t-47.5 -104.5q-16 -57 -15 -126q1 -54 19 -106q18 -53 49.5 -99t75.5 -83q44 -36 96 -56q62 -24 132 -28q69 -4 134 5t121 27t91 39v210q-60 -42 -152 -63q-92 -20 -178.5 -8t-149.5 60q-62 49 -62 145h626 v106h1z" />
</svg>