<svg viewBox="0 0 1024 1024" xmlns="http://www.w3.org/2000/svg">
  <path transform="scale(1, -1) translate(0, -960)" fill="currentColor" d="M781 734q-25 44 -54 77.5t-61 58.5q-37 29 -76 43t-78 14t-78 -14t-76 -43q-32 -25 -61 -58.5t-54 -77.5q-24 -40 -43 -86t-32 -94t-20 -97q-7 -50 -7 -97q0 -48 7 -91t22 -80q13 -37 33 -68.5t47 -56.5q49 -47 115.5 -71.5t146.5 -24.5q79 0 146 24.5t116 71.5 q27 25 47 56.5t33 68.5q15 37 22 80.5t7 90.5t-7 97q-7 49 -20 97.5t-32 93.5q-19 46 -43 86v0zM824 200q-12 -34 -31 -62t-43 -52q-44 -43 -105 -65.5t-135 -22.5q-73 0 -134 22.5t-106 65.5q-24 23 -42 51.5t-31 62.5q-13 35 -20 75.5t-7 84.5q0 45 6 92q7 47 19.5 93 t30.5 90t41 83q24 41 50.5 72.5t56.5 54.5q35 25 69 38t69 13t68.5 -13t65.5 -37q30 -22 57 -54t51 -72q22 -39 40 -83q19 -44 31.5 -90t18.5 -93q7 -47 7 -92q0 -46 -7 -86.5t-20 -75.5z" />
</svg>