<svg viewBox="0 0 1024 1024" xmlns="http://www.w3.org/2000/svg">
  <path transform="scale(1, -1) translate(0, -960)" fill="currentColor" d="M870 -6l-33 41q-63 79 -111 165t-80 178.5t-49 189.5q-16 98 -16 198v26q0 7 -4.5 11.5t-11.5 4.5h-37v104q0 7 -4.5 11.5t-11.5 4.5t-11.5 -4.5t-4.5 -11.5v-102h-35q-7 0 -11.5 -4.5t-4.5 -11.5v-26q0 -101 -17 -198q-16 -98 -48 -190t-80 -178q-48 -87 -111 -165 l-34 -42q-2 -3 -3 -8t2 -9q1 -5 4.5 -7.5t7.5 -2.5h250q7 0 11.5 4.5t4.5 11.5v26q0 32 23 56t57 24q32 0 56 -23.5t24 -56.5v-26q0 -7 4.5 -11.5t11.5 -4.5h250q4 0 8 2.5t6 7.5q2 3 1.5 7.5t-3.5 8.5zM477 766v10h72v-10q0 -58 5 -115q6 -57 16.5 -113t26.5 -110t37 -106 h-242q21 52 37 107q16 54 26.5 109.5t15.5 112.5q6 57 6 115v0zM624 0v10q0 45 -32.5 78.5t-79.5 33.5q-46 0 -79 -33t-33 -79v-10h-200l13 16q25 32 48 65t43.5 67t39.5 70q18 35 34 72h268q16 -37 34 -72q19 -36 39.5 -70t43.5 -67t48 -65l13 -16h-200z" />
</svg>