<svg viewBox="0 0 256 256" xmlns="http://www.w3.org/2000/svg">
  <path transform="scale(1, -1) translate(0, -256)" fill="currentColor" d="M220 16l-8 11q-32 39 -48 85t-16 96v6q0 3 -2 5t-5 2h-6v23q0 3 -2 5t-5 2t-5.5 -2t-2.5 -5v-23h-6q-3 0 -5 -2t-2 -5v-6q0 -50 -16 -96t-47 -85l-8 -11q-3 -3 -1 -7t7 -4h62q3 0 5 2t2 5v6q0 7 5 12t12 5t12 -5t5 -12v-6q0 -3 2 -5t5 -2h62q5 0 7 4q1 2 0.5 4t-1.5 3z M122 207h12q0 -56 20 -108h-52q20 52 20 108zM159 19q-1 12 -9.5 21t-21.5 9t-21.5 -9t-9.5 -21h-41q26 32 41 66h63q15 -34 40 -66h-41z" />
</svg>