<svg viewBox="0 0 256 256" xmlns="http://www.w3.org/2000/svg">
  <path transform="scale(1, -1) translate(0, -256)" fill="currentColor" d="M245 84l-95 122q-8 10 -22 10q-6 0 -12 -3t-10 -7l-95 -122q-5 -6 -6 -14t2.5 -15t10 -11t14.5 -4h192q7 0 14 4t10.5 11t2.5 15t-6 14zM236 61q-4 -7 -12 -7h-192q-8 0 -11.5 7.5t1.5 13.5l96 122q4 5 10 5t10 -5l96 -122q5 -6 2 -14zM128 119l15 15q2 2 2 5t-1.5 5 t-4.5 2t-5 -2l-21 -19q-2 -2 -2 -5t2 -6l15 -14l-15 -15q-2 -2 -2 -5t1.5 -5t4.5 -2t5 2l21 19q2 2 2 5t-2 6z" />
</svg>