<svg viewBox="0 0 1024 1024" xmlns="http://www.w3.org/2000/svg">
  <path transform="scale(1, -1) translate(0, -960)" fill="currentColor" d="M971 264l-382 488q-15 18 -34.5 27.5t-42.5 9.5t-42.5 -9.5t-34.5 -27.5l-382 -488q-18 -22 -20.5 -49.5t9.5 -52.5q12 -26 35.5 -40.5t52.5 -14.5h764q28 0 51.5 14.5t36.5 40.5q12 25 9 52.5t-20 49.5zM954 176q-9 -17 -24.5 -27t-35.5 -10h-764q-20 0 -35.5 10 t-24.5 27q-8 17 -6 35.5t14 33.5l383 486q9 12 23 19t28 7q16 0 29 -7t22 -19l383 -486q12 -15 14 -33.5t-6 -35.5zM494 413l71 67q5 5 5 11.5t-5 10.5q-5 5 -11.5 5t-11.5 -5l-83 -78q-2 -2 -3.5 -5.5t-1.5 -5.5q0 -3 1.5 -6t3.5 -5l71 -68l-71 -67q-5 -5 -5 -11t5 -11 q3 -3 6 -4t5 -1q3 0 6 1t6 4l83 78q2 3 3.5 6t1.5 5q0 3 -1.5 6t-3.5 6l-71 67v0z" />
</svg>