<svg viewBox="0 0 256 256" xmlns="http://www.w3.org/2000/svg">
  <path transform="scale(1, -1) translate(0, -256)" fill="currentColor" d="M244 136h-70v68q0 10 -7 17t-17 7h-44q-10 0 -17 -7.5t-7 -16.5v-69h-70q-3 0 -5 -2t-2 -5t2 -5t5 -2h17v-87q0 -3 2 -5t5 -2t5 2t2 5v83l25 -15v-45q0 -3 2.5 -5t5.5 -2t5 2t2 5v37l50 -31q6 -3 13.5 -3t14.5 5l14 12v-20q0 -3 2 -5t5 -2t5 2t2 5v31l25 22v-75 q0 -3 2.5 -5t5.5 -2t5 2t2 5v86v1h15q3 0 5 2t2 5t-2 5t-5 2zM96 204q0 4 2.5 7t7.5 3h45q4 0 7 -3t3 -7v-69h-26v39q0 3 -2 5.5t-5 2.5t-5 -2.5t-2 -5.5v-39h-26v69h1zM151 76q-2 -2 -5.5 -2.5t-5.5 1.5l-78 47h144z" />
</svg>