<svg viewBox="0 0 1024 1024" xmlns="http://www.w3.org/2000/svg">
  <path transform="scale(1, -1) translate(0, -960)" fill="currentColor" d="M376 578h272q4 0 7 1t6 5q2 2 3 5.5t0 7.5q-11 49 -47.5 80.5t-88.5 36.5v198q0 7 -4.5 11.5t-11.5 4.5t-11.5 -4.5t-4.5 -11.5v-198q-52 -5 -88 -36t-48 -81q-1 -4 0 -7.5t3 -5.5q3 -4 6 -5t7 -1zM512 682q40 0 70 -19.5t44 -54.5h-228q14 35 44 54.5t70 19.5zM936 435 h-848q-7 0 -11.5 -4.5t-4.5 -11.5t4.5 -11.5t11.5 -4.5h85v-419q0 -7 4.5 -11.5t11.5 -4.5t11.5 4.5t4.5 11.5v419h89v-256q0 -7 4.5 -11.5t11.5 -4.5q8 0 12 4.5t4 11.5v256h372v-256q0 -7 4 -11.5t12 -4.5q7 0 11.5 4.5t4.5 11.5v256h89v-419q0 -7 4.5 -11.5t11.5 -4.5 t11.5 4.5t4.5 11.5v419h85q7 0 11.5 4.5t4.5 11.5t-5 11.5t-11 4.5v0z" />
</svg>