<svg viewBox="0 0 1024 1024" xmlns="http://www.w3.org/2000/svg">
  <path transform="scale(1, -1) translate(0, -960)" fill="currentColor" d="M976 696h-928q-7 0 -11.5 -4.5t-4.5 -11.5t4.5 -11.5t11.5 -4.5h80v-448q0 -7 4.5 -11.5t11.5 -4.5t11.5 4.5t4.5 11.5v438l125 -75v-278q0 -7 4.5 -11.5t11.5 -4.5t11.5 4.5t4.5 11.5v261l221 -133q9 -6 20.5 -8.5t22.5 -2.5q14 0 28 4.5t26 14.5l75 62v-197 q0 -7 4.5 -11.5t11.5 -4.5q8 0 12 4.5t4 11.5v223l125 104v-413q0 -7 4.5 -11.5t11.5 -4.5t11.5 4.5t4.5 11.5v440l8 8h69q7 0 11.5 4.5t4.5 11.5t-4.5 11.5t-11.5 4.5v0zM613 461q-13 -11 -30 -12t-31 7l-346 208h648z" />
</svg>