<svg viewBox="0 0 256 256" xmlns="http://www.w3.org/2000/svg">
  <path transform="scale(1, -1) translate(0, -256)" fill="currentColor" d="M94 157h68q3 0 5.5 3t1.5 6q-3 12 -12 20.5t-22 10.5v47q0 3 -2 5t-5 2t-5.5 -2t-2.5 -5v-47q-12 -2 -21.5 -10.5t-12.5 -20.5q0 -4 2 -6l1 -1q3 -2 5 -2zM128 184q16 0 24 -13h-48q4 6 10 9.5t14 3.5zM234 128h-212q-3 0 -5 -2.5t-2 -5.5t2 -5t5 -2h18v-101q0 -3 2.5 -5 t5.5 -2t5 2t2 5v102h16v-62q0 -3 2 -5t5 -2t5.5 2t2.5 5v62h86v-62q0 -3 2.5 -5t5.5 -2t5 2t2 5v62h16v-102q0 -3 2 -5t5 -2t5.5 2t2.5 5v102h18q3 0 5 2t2 5t-3 5t-6 2z" />
</svg>