<svg viewBox="0 0 1024 1024" xmlns="http://www.w3.org/2000/svg">
  <path transform="scale(1, -1) translate(0, -960)" fill="currentColor" d="M976 466h-290v284q0 35 -24.5 59.5t-58.5 24.5h-181q-34 0 -58.5 -25t-24.5 -59v-284h-291q-7 0 -11.5 -4.5t-4.5 -11.5q0 -8 4.5 -12t11.5 -4h80v-357q0 -7 4.5 -11.5t11.5 -4.5t11.5 4.5t4.5 11.5v349l125 -76v-187q0 -7 4.5 -11.5t11.5 -4.5t11.5 4.5t4.5 11.5v168 l221 -133q9 -6 20.5 -8.5t22.5 -2.5q14 0 28 5t26 14l75 63v-106q0 -7 4.5 -11.5t11.5 -4.5q8 0 12 4.5t4 11.5v133l122 104v-323q0 -7 4.5 -11.5t11.5 -4.5t11.5 4.5t4.5 11.5v350l8 8h72q7 0 11.5 4.5t4.5 11.5q0 6 -4.5 10.5t-11.5 4.5v0zM370 750q0 22 15 37t36 15h181 q21 0 36 -15.5t15 -36.5v-284h-127q0 1 1 2t1 2v165q0 7 -4.5 11.5t-11.5 4.5t-11.5 -4.5t-4.5 -11.5v-163v-2.5t2 -2.5h-127v283h-1zM613 230q-13 -10 -30 -11.5t-31 7.5l-346 208h648l-241 -204v0z" />
</svg>