<svg viewBox="0 0 1024 1024" xmlns="http://www.w3.org/2000/svg">
  <path transform="scale(1, -1) translate(0, -960)" fill="currentColor" d="M266 418h-202v313q0 7 -4.5 11.5t-11.5 4.5t-11.5 -4.5t-4.5 -11.5v-568q0 -7 4.5 -11.5t11.5 -4.5t11.5 4.5t4.5 11.5v103h251v-103q0 -7 4.5 -11.5t11.5 -4.5t11.5 4.5t4.5 11.5v173q0 34 -24 58t-57 24zM64 299v87h202q20 0 34 -14.5t14 -33.5v-39h-250v0zM976 747 q-7 0 -11.5 -4.5t-4.5 -11.5v-315h-202q-33 0 -56.5 -24t-23.5 -56v-173q0 -7 4.5 -11.5t11.5 -4.5q8 0 12 4.5t4 11.5v103h250v-103q0 -7 4.5 -11.5t11.5 -4.5t11.5 4.5t4.5 11.5v568q0 7 -4.5 11.5t-11.5 4.5zM709 299v37q0 20 14.5 34t33.5 14h203v-86h-251v1zM741 557 q7 0 11.5 4.5t4.5 11.5t-4.5 11.5t-11.5 4.5h-458q-7 0 -11.5 -4.5t-4.5 -11.5t4.5 -11.5t11.5 -4.5h213v-394q0 -7 4.5 -11.5t11.5 -4.5t11.5 4.5t4.5 11.5v394h213v0z" />
</svg>