<svg viewBox="0 0 1024 1024" xmlns="http://www.w3.org/2000/svg">
  <path transform="scale(1, -1) translate(0, -960)" fill="currentColor" d="M512 128q-99 0 -186 25q-88 25 -153 68.5t-103 102.5q-38 58 -38 124q0 67 38 125t103 101.5t153 68.5q87 25 186 25t186 -25q88 -25 153 -68.5t103 -102.5q38 -58 38 -124q0 -67 -38 -125t-103 -101.5t-153 -68.5q-87 -25 -186 -25zM512 736q-92 0 -174 -23 q-81 -22 -142 -61.5t-97 -91.5q-35 -53 -35 -112t35 -112q36 -52 96.5 -91.5t142.5 -61.5q82 -23 174 -23t174 23q81 22 142 61.5t97 91.5q35 53 35 112t-35 112q-36 52 -96.5 91.5t-142.5 61.5q-82 23 -174 23z" />
</svg>