<svg viewBox="0 0 1024 1024" xmlns="http://www.w3.org/2000/svg">
  <path transform="scale(1, -1) translate(0, -960)" fill="currentColor" d="M950 0h-152v326q0 27 -18.5 45.5t-45.5 18.5h-64v168q0 33 -23 56.5t-57 23.5h-4v37q0 28 -17 49t-43 28v160q0 7 -4 11.5t-12 4.5q-7 0 -11.5 -4.5t-4.5 -11.5v-158q-30 -4 -50 -26.5t-20 -52.5v-37h-5q-32 0 -56 -23t-24 -57v-166h-64q-26 0 -45 -19t-19 -45v-328h-137 q-8 0 -12 -4.5t-4 -11.5t4 -11.5t12 -4.5h878q7 0 11.5 4.5t4.5 11.5t-5 11.5t-13 4.5zM458 675q0 19 13.5 33.5t34.5 14.5h3q19 0 33.5 -13.5t14.5 -34.5v-37h-98v37h-1zM421 605h171q19 0 33.5 -14t14.5 -34v-168q-24 -3 -41 -21t-17 -43v-325h-150v326q0 26 -17 43.5 t-41 20.5v168q0 20 14 33.5t33 13.5v0zM246 326q0 14 9.5 23t22.5 9h90q13 0 22.5 -9t9.5 -23v-326h-42v0v0h-110v326h-2zM656 0v0v0h-42v326q0 14 9.5 23t22.5 9h90q13 0 22.5 -9t9.5 -23v-326h-112z" />
</svg>