<svg viewBox="0 0 256 256" xmlns="http://www.w3.org/2000/svg">
  <path transform="scale(1, -1) translate(0, -256)" fill="currentColor" d="M238 19h-35v79q0 7 -5.5 13t-13.5 6h-13v39q0 9 -6 15t-15 7v7q0 7 -4 13t-11 8v38q0 3 -2 5t-5 2t-5 -2t-2 -5v-37q-8 -2 -13 -8.5t-5 -14.5v-6q-9 -1 -15 -7.5t-6 -15.5v-39h-12q-8 0 -14 -5.5t-6 -13.5v-79h-32q-3 0 -5 -2t-2 -5t2 -5t5 -2h220q3 0 5 2t2 5t-2 5.5 t-5 2.5zM126 194h1q4 0 6.5 -3t2.5 -6v-7h-18v7q-1 3 2 6t6 3zM105 164h43q4 0 6.5 -2.5t2.5 -5.5v-40q-7 -2 -11 -7t-4 -11v-79h-31v79q0 6 -4 11t-11 7v40q0 3 3 5.5t6 2.5zM64 98q0 2 1.5 3.5t4.5 1.5h22q2 0 3.5 -1.5t1.5 -3.5v-79h-32v79h-1zM164 19v0h-8v79q0 2 2 3.5 t4 1.5h22q2 0 3.5 -1.5t1.5 -3.5v-79h-25z" />
</svg>