<svg viewBox="0 0 256 256" xmlns="http://www.w3.org/2000/svg">
  <path transform="scale(1, -1) translate(0, -256)" fill="currentColor" d="M123 98q-2 -2 -2 -5t2 -5t5 -2t5 2l29 30q4 4 4 9.5t-4 8.5l-29 30q-2 2 -5 2t-5 -2t-2 -5t2 -5l23 -24h-102q-3 0 -5.5 -2t-2.5 -5t2.5 -5t5.5 -2h100zM185 251h-47q-7 0 -12 -5.5t-5 -12.5v-37q0 -3 2 -5t5 -2t5 2t2 5v38q0 1 1 2t3 1h47q8 0 14 -6t6 -14v-177 q0 -9 -6 -14.5t-14 -5.5h-48q-1 0 -2 1t-1 2v37q0 3 -2 5t-5 2t-5.5 -2t-2.5 -5v-37q0 -7 5.5 -12t12.5 -5h47q14 0 24 9.5t10 24.5v177q0 14 -10 24t-24 10z" />
</svg>