<svg viewBox="0 0 1024 1024" xmlns="http://www.w3.org/2000/svg">
  <path transform="scale(1, -1) translate(0, -960)" fill="currentColor" d="M501 320q-5 -5 -5 -11.5t5 -10.5q2 -3 5.5 -4t5.5 -1q4 0 6.5 1t4.5 4l119 118q6 6 9 13t3 16q0 8 -3 15.5t-9 13.5l-119 118q-5 5 -11 5t-11 -5t-5 -11.5t5 -10.5l113 -112h-440q-7 0 -11.5 -4.5t-4.5 -11.5q0 -8 4.5 -12t11.5 -4h431l-104 -106v0zM741 928h-187 q-24 0 -41 -17t-17 -41v-147q0 -7 4.5 -11.5t11.5 -4.5t11.5 4.5t4.5 11.5v147q0 11 7.5 18.5t18.5 7.5h187q38 0 65.5 -27t27.5 -66v-710q0 -39 -27.5 -66t-65.5 -27h-187q-11 0 -18.5 7.5t-7.5 18.5v147q0 7 -4.5 11.5t-11.5 4.5t-11.5 -4.5t-4.5 -11.5v-147q0 -24 17 -41 t41 -17h187q51 0 88 36.5t37 88.5v710q0 52 -37 88.5t-88 36.5z" />
</svg>