<svg viewBox="0 0 1024 1024" xmlns="http://www.w3.org/2000/svg">
  <path transform="scale(1, -1) translate(0, -960)" fill="currentColor" d="M819 938q-12 4 -32.5 6t-48.5 -2q-68 -8 -128 -37t-111 -75q-47 -43 -87 -94q-40 -52 -70 -113t-48 -133t-22 -156q-1 -4 -10 -1t-12 3q-36 70 -47 144.5t19 180.5q5 8 -6.5 17t-15.5 5q-7 -7 -28.5 -32.5t-38.5 -55.5q-45 -78 -53 -163q-9 -85 14 -164.5t75 -147.5 q53 -68 132 -112q77 -44 162 -53t165 13.5t148 75.5q68 52 112 130q50 92 56 216q7 125 -11 241t-51 203t-63 104v0z" />
</svg>