<svg viewBox="0 0 1024 1024" xmlns="http://www.w3.org/2000/svg">
  <path transform="scale(1, -1) translate(0, -960)" fill="currentColor" d="M912 757h-800q-26 0 -45 -19t-19 -45v-491q0 -27 19 -45.5t45 -18.5h800q26 0 45 18.5t19 45.5v491q0 26 -19 45t-45 19zM112 725h800h1h1l-376 -234q-12 -7 -25.5 -7t-24.5 7l-382 234h2.5h3.5v0zM470 462q10 -6 20.5 -8.5t21.5 -2.5t21.5 2.5t20.5 8.5l20 13l320 -305 h-771l327 305l20 -13v0zM80 693v3.5t2 4.5l340 -208l-334 -311q-4 4 -6 9.5t-2 11.5v490v0zM944 203q0 -7 -3 -13.5t-8 -10.5l-331 314l339 211q1 -2 1 -5.5v-5.5v-490h2z" />
</svg>