<svg viewBox="0 0 1024 1024" xmlns="http://www.w3.org/2000/svg">
  <path transform="scale(1, -1) translate(0, -960)" fill="currentColor" d="M963 -2h-515q10 6 19 13.5t18 15.5l485 485q22 23 22 56.5t-22 57.5l-280 280q-23 24 -56.5 23t-57.5 -23l-485 -485q-29 -29 -45 -67t-16 -80t15.5 -80t45.5 -68l99 -99q30 -30 68.5 -45.5t79.5 -15.5h1.5h1.5h0.5h0.5h621q7 0 11.5 4.5t4.5 11.5q0 8 -4.5 12t-11.5 4v0 zM600 883q7 7 16 11t18 4t17.5 -4t15.5 -11l280 -280q15 -14 15 -34t-15 -33l-376 -376l-347 347zM115 150q-25 26 -38 57.5t-13 67.5t13 68t38 57l87 86l347 -347l-87 -86q-51 -52 -123.5 -52t-124.5 52l-99 97v0z" />
</svg>