<svg viewBox="0 0 1024 1024" xmlns="http://www.w3.org/2000/svg">
  <path transform="scale(1, -1) translate(0, -960)" fill="currentColor" d="M883 883h-742q-45 0 -77 -29.5t-32 -71.5v-464q0 -42 32 -71t77 -29h369q8 0 12 4t4 12q0 7 -4 11.5t-12 4.5h-369q-31 0 -54 20t-23 48v226h896v-139q0 -7 4.5 -11.5t11.5 -4.5t11.5 4.5t4.5 11.5v377q0 42 -32 71.5t-77 29.5v0zM141 851h742q31 0 54 -20t23 -49v-68 h-896v68q0 29 23 49t54 20zM64 576v106h896v-106h-896zM853 333q7 0 11.5 4.5t4.5 11.5t-4.5 11.5t-11.5 4.5q-54 0 -98.5 -31t-64.5 -78h-50q-7 0 -11.5 -4.5t-4.5 -11.5t4.5 -11.5t11.5 -4.5h40q-2 -8 -2.5 -17t-0.5 -18q0 -12 1.5 -23t4.5 -22h-43q-7 0 -11.5 -4.5 t-4.5 -11.5t4.5 -11.5t11.5 -4.5h54q22 -44 64.5 -71.5t94.5 -27.5q7 0 11.5 4.5t4.5 11.5t-4.5 11.5t-11.5 4.5q-37 0 -70 18.5t-52 48.5h69q7 0 11.5 4.5t4.5 11.5t-4.5 11.5t-11.5 4.5h-85q-3 11 -5.5 22t-2.5 23q0 9 1.5 18t3.5 17h88q7 0 11.5 4.5t4.5 11.5t-4.5 11.5 t-11.5 4.5h-75q18 35 52.5 56t75.5 21v0z" />
</svg>