<svg viewBox="0 0 1024 1024" xmlns="http://www.w3.org/2000/svg">
  <path transform="scale(1, -1) translate(0, -960)" fill="currentColor" d="M512 928q-99 0 -186 -38q-88 -38 -153 -103t-103 -153q-38 -87 -38 -186t38 -186q38 -88 103 -153t153 -103q87 -38 186 -38t186 38q88 38 153 103t103 153q38 87 38 186t-38 186q-38 88 -103 153t-153 103q-87 38 -186 38zM512 0q-92 0 -174 35q-81 36 -142 97t-97 142 q-35 82 -35 174t35 174q36 81 96.5 142t142.5 97q82 35 174 35t174 -35q81 -36 142 -96.5t97 -142.5q35 -82 35 -174t-35 -174q-36 -81 -96.5 -142t-142.5 -97q-82 -35 -174 -35zM626 664q7 0 11.5 4.5t4.5 11.5t-4.5 11.5t-11.5 4.5q-43 0 -82 -14q-39 -15 -71 -40.5 t-54 -59.5q-23 -35 -33 -75h-66q-7 0 -11.5 -4.5t-4.5 -11.5t4.5 -11.5t11.5 -4.5h61q-1 -6 -1.5 -12.5t-0.5 -12.5q0 -18 2.5 -36t8.5 -36h-70q-7 0 -11.5 -4.5t-4.5 -11.5q0 -8 4.5 -12t11.5 -4h83q30 -64 90.5 -104t133.5 -40q7 0 11.5 4t4.5 12q0 7 -4.5 11.5t-11.5 4.5 q-60 0 -110 31t-79 81h114q7 0 11.5 4t4.5 12q0 7 -4.5 11.5t-11.5 4.5h-128q-6 16 -9.5 34t-3.5 38q0 7 0.5 13t1.5 12h139q7 0 11.5 4.5t4.5 11.5t-4.5 11.5t-11.5 4.5h-133q19 66 76 111.5t131 45.5z" />
</svg>