<svg viewBox="0 0 256 256" xmlns="http://www.w3.org/2000/svg">
  <path transform="scale(1, -1) translate(0, -256)" fill="currentColor" d="M199 19q-34 0 -61.5 19.5t-39.5 50.5h64q3 0 5.5 2t2.5 5t-2.5 5.5t-5.5 2.5h-69q-3 11 -3 24l1 14h71q3 0 5.5 2.5t2.5 5t-2.5 4.5t-5.5 2h-68q6 23 21.5 41.5t37.5 29t46 10.5q3 0 5 2t2 5t-2 5t-5 2q-28 0 -53 -12.5t-42.5 -34t-23.5 -48.5h-23q-3 0 -5 -2t-2 -5t2 -5 t5 -2h20q-1 -6 -1 -14q0 -14 3 -25h-22q-3 0 -5 -2t-2 -5t2 -5t5 -2h26q8 -24 25.5 -43.5t41 -30.5t49.5 -11q3 0 5 2.5t2 5.5t-2 5t-5 2z" />
</svg>