<svg viewBox="0 0 1024 1024" xmlns="http://www.w3.org/2000/svg">
  <path transform="scale(1, -1) translate(0, -960)" fill="currentColor" d="M370 544q0 -7 4 -11.5t12 -4.5h43q20 -44 61.5 -73t91.5 -29q8 0 12 4t4 12q0 7 -4 11.5t-12 4.5q-37 0 -68.5 19.5t-49.5 50.5h61q7 0 11.5 4.5t4.5 11.5t-4.5 11.5t-11.5 4.5h-75q-3 8 -4 17.5t-1 19.5q0 9 1 18t4 17h75q7 0 11.5 4.5t4.5 11.5t-4.5 11.5t-11.5 4.5 h-61q18 32 50 52t70 20q7 0 11.5 4.5t4.5 11.5t-4.5 11.5t-11.5 4.5q-52 0 -93.5 -29t-61.5 -75h-42q-7 0 -11.5 -4.5t-4.5 -11.5t4.5 -11.5t11.5 -4.5h32q-2 -8 -2.5 -17.5t-0.5 -17.5q0 -10 1 -19.5t4 -17.5h-32q-9 0 -14 -4.5t-5 -11.5zM512 928q-70 0 -132 -26 q-61 -27 -107 -72.5t-72 -106.5q-27 -61 -27 -131q0 -77 33.5 -145.5t93.5 -116.5q2 -2 4.5 -3t4.5 -1q4 0 7.5 1.5t5.5 5.5q4 5 3.5 12t-6.5 10q-54 43 -84 105t-30 132q0 63 25 118q24 56 65.5 97t96.5 65q56 24 119 24t119 -24q55 -24 96.5 -65t65.5 -97q25 -55 25 -118 q0 -7 4 -11.5t12 -4.5q7 0 11.5 4.5t4.5 11.5q0 70 -27 131q-26 61 -72 106.5t-107 72.5q-62 26 -132 26zM792 304h-162q-7 0 -11.5 -4.5t-4.5 -11.5t4.5 -11.5t11.5 -4.5h119l-200 -144q-5 -4 -11 -5t-12 -1h-195q-15 0 -29 -6t-24 -17l-100 -104q-5 -5 -5 -11t5 -11 q2 -3 4.5 -4t6.5 -1q3 0 6 1t5 4l101 104q5 6 12.5 8.5t16.5 2.5h195q11 0 21 3.5t19 9.5l209 152v-125q0 -7 4.5 -11.5t11.5 -4.5q8 0 12 4.5t4 11.5v160q2 7 -2.5 11.5t-11.5 4.5v0z" />
</svg>