<svg viewBox="0 0 1024 1024" xmlns="http://www.w3.org/2000/svg">
  <path transform="scale(1, -1) translate(0, -960)" fill="currentColor" d="M512 928q-99 0 -186 -38q-88 -38 -153 -103t-103 -153q-38 -87 -38 -186t38 -186q38 -88 103 -153t153 -103q87 -38 186 -38t186 38q88 38 153 103t103 153q38 87 38 186t-38 186q-38 88 -103 153t-153 103q-87 38 -186 38zM819 773l-81 -82q-45 41 -103 65.5t-123 24.5 t-123 -24t-103 -66l-81 82q30 29 65 51q35 23 74 39t81 25q43 8 87 8t87 -8q42 -9 81 -25t74 -39q35 -22 65 -51v0zM512 147q-62 0 -117 24q-54 23 -95 64t-65 96t-24 117t24 117t65 96t95 64q55 24 117 24t117 -24q54 -23 95 -64t65 -96t24 -117t-24 -117t-65 -96t-95 -64 q-55 -24 -117 -24v0zM182 750l82 -81q-40 -45 -62.5 -101t-22.5 -120t23 -121t64 -101l-82 -82q-28 30 -50 65q-23 35 -38.5 73.5t-23.5 79.5q-8 42 -8 86t8 85q8 42 23.5 80t37.5 73q22 34 49 64v0zM206 122l82 81q44 -41 101.5 -64.5t122.5 -23.5q62 0 117.5 21.5 t98.5 60.5l82 -82q-30 -27 -64 -48q-34 -22 -71.5 -36.5t-78.5 -22.5t-84 -8q-44 0 -86 8q-42 9 -81 24.5t-74 38.5q-35 22 -65 51v0zM834 136l-82 83q43 45 68 104t25 125q0 64 -22.5 120t-62.5 101l82 81q27 -30 49 -64q22 -35 37.5 -73t23.5 -80q8 -41 8 -85 q0 -46 -9 -89q-8 -43 -24.5 -82t-40.5 -75q-23 -35 -52 -66v0zM589 590q7 0 11.5 4.5t4.5 11.5q0 8 -4.5 12t-11.5 4q-59 0 -106 -37t-62 -92h-42q-7 0 -11.5 -4.5t-4.5 -11.5t4.5 -11.5t11.5 -4.5h37v-6.5v-6.5q0 -11 1.5 -22.5t4.5 -20.5h-41q-7 0 -11.5 -4.5t-4.5 -11.5 t4.5 -11.5t11.5 -4.5h53q21 -43 62.5 -70.5t92.5 -27.5q7 0 11.5 4.5t4.5 11.5t-4.5 11.5t-11.5 4.5q-37 0 -68 18.5t-51 47.5h69q7 0 11.5 4.5t4.5 11.5t-4.5 11.5t-11.5 4.5h-83q-4 11 -6 21.5t-2 21.5v6.5v6.5h91q7 0 11.5 4.5t4.5 11.5t-4.5 11.5t-11.5 4.5h-83 q13 42 50 69.5t83 27.5z" />
</svg>