<svg viewBox="0 0 1024 1024" xmlns="http://www.w3.org/2000/svg">
  <path transform="scale(1, -1) translate(0, -960)" fill="currentColor" d="M584 738q7 0 11.5 4t4.5 12q0 7 -4.5 11.5t-11.5 4.5q-52 0 -93.5 -29.5t-61.5 -74.5h-42q-7 0 -11.5 -4.5t-4.5 -11.5q0 -8 4.5 -12t11.5 -4h32q-2 -9 -2.5 -18t-0.5 -18t1 -18.5t4 -17.5h-32q-7 0 -11.5 -4.5t-4.5 -11.5q0 -8 4.5 -12t11.5 -4h43q20 -45 61.5 -74 t92.5 -29q7 0 11.5 4.5t4.5 11.5t-4.5 11.5t-11.5 4.5q-38 0 -69.5 19.5t-49.5 51.5h61q7 0 11.5 4t4.5 12q0 7 -4.5 11.5t-11.5 4.5h-75q-3 8 -4 17.5t-1 18.5q0 10 1 18.5t4 17.5h75q7 0 11.5 4t4.5 12q0 7 -4.5 11.5t-11.5 4.5h-64q18 31 50 51.5t70 20.5zM190 576 q8 0 12 4.5t4 11.5q0 63 25 118q24 56 65.5 97t96.5 65q56 24 119 24t119 -24q55 -24 96.5 -65t65.5 -97q25 -55 25 -118q0 -70 -30 -132t-84 -105q-5 -3 -6 -10t3 -12q2 -3 5.5 -5t7.5 -2q2 0 4.5 1t4.5 3q60 48 93.5 116.5t33.5 145.5q0 70 -27 131t-73 106.5t-107 72.5 q-61 26 -131 26t-131 -26q-62 -27 -107.5 -72.5t-72.5 -106.5t-27 -131q0 -7 4.5 -11.5t11.5 -4.5v0zM792 162q-7 0 -11.5 -4.5t-4.5 -11.5v-120l-210 147q-8 6 -18.5 9.5t-21.5 3.5h-195q-8 0 -16 3t-13 9l-100 104q-5 5 -11.5 5t-11.5 -5q-5 -4 -5 -10.5t5 -11.5l101 -104 q10 -11 23.5 -16.5t29.5 -5.5h195q6 0 12 -1.5t10 -5.5l208 -145h-124q-8 0 -12 -4.5t-4 -11.5q0 -8 4 -12t12 -4h161q7 0 11.5 4t4.5 12v160q-2 6 -7 11t-12 5v0z" />
</svg>