<svg viewBox="0 0 1024 1024" xmlns="http://www.w3.org/2000/svg">
  <path transform="scale(1, -1) translate(0, -960)" fill="currentColor" d="M797 0q-73 0 -140 23q-66 23 -122 64t-98 97q-41 56 -64 122h277q7 0 11.5 4t4.5 12q0 7 -4.5 11.5t-11.5 4.5h-287q-7 26 -10.5 53.5t-3.5 56.5q0 17 1 34.5t4 34.5h294q7 0 11.5 4.5t4.5 11.5t-4.5 11.5t-11.5 4.5h-288q18 73 59 136q41 64 99 110.5t130 73.5 q71 27 149 27q7 0 11.5 4.5t4.5 11.5t-4.5 11.5t-11.5 4.5q-85 0 -162 -29q-77 -30 -139 -81t-106 -120t-62 -149h-101q-7 0 -11.5 -4.5t-4.5 -11.5t4.5 -11.5t11.5 -4.5h95q-3 -17 -4 -34t-1 -35q0 -29 3.5 -56.5t9.5 -53.5h-103q-7 0 -11.5 -4.5t-4.5 -11.5q0 -8 4.5 -12 t11.5 -4h112q24 -73 68 -135q45 -62 105 -107t133 -70q73 -26 152 -26q7 0 11.5 4.5t4.5 11.5t-5 11.5t-11 4.5z" />
</svg>