<svg viewBox="0 0 256 256" xmlns="http://www.w3.org/2000/svg">
  <path transform="scale(1, -1) translate(0, -256)" fill="currentColor" d="M128 251q-33 0 -61.5 -16.5t-45 -45t-16.5 -61.5t16.5 -61.5t45 -45t61.5 -16.5t61.5 16.5t45 45t16.5 61.5t-16.5 61.5t-45 45t-61.5 16.5zM201 209l-17 -16q-24 21 -56 21t-56 -21l-17 16q15 13 34 20.5t39 7.5t39 -7.5t34 -20.5zM128 56q-19 0 -36 9.5t-26.5 26.5 t-9.5 36t9.5 36t26.5 26.5t36 9.5t36 -9.5t26.5 -26.5t9.5 -36t-9.5 -36t-26.5 -26.5t-36 -9.5zM46 199l16 -16q-9 -12 -14.5 -26t-5.5 -29q0 -31 20 -56l-16 -16q-27 31 -27 72q0 20 7 38t20 33zM56 46l16 17q25 -21 55.5 -21t54.5 19l16 -16q-14 -12 -32 -19t-38 -7 t-38.5 7t-33.5 20zM208 54l-16 17q10 11 16 26t6 30.5t-5.5 29.5t-14.5 26l16 16q13 -15 20 -33t7 -38.5t-7.5 -39t-21.5 -34.5zM147 160q3 0 5 2.5t2 5.5t-2 5t-5 2q-15 0 -27 -9t-17 -24h-8q-3 0 -5 -2t-2 -5t2 -5t5 -2h6l1 -8h-7q-3 0 -5 -2.5t-2 -5.5t2 -5t5 -2h12 q6 -11 17 -17.5t24 -6.5q3 0 5 2t2 5t-2 5t-5 2q-14 0 -24 11h11q3 0 5 2t2 5t-2.5 5t-5.5 2h-18q-1 4 -1 8v0h19q3 0 5.5 2.5t2.5 5.5t-2.5 5t-5.5 2h-16q5 8 12.5 12.5t16.5 4.5z" />
</svg>