<svg viewBox="0 0 1024 1024" xmlns="http://www.w3.org/2000/svg">
  <path transform="scale(1, -1) translate(0, -960)" fill="currentColor" d="M512 258q88 0 144 31t56 81q0 48 -57 80t-143 32t-143 -31.5t-57 -80.5q0 -50 56 -81t144 -31zM512 448q71 0 119.5 -23t48.5 -57t-48.5 -57t-119.5 -23t-119.5 23t-48.5 57t48.5 57t119.5 23zM699 219q-6 3 -12 0t-9 -9q-4 -14 -19 -25.5t-38 -21.5q-23 -8 -51 -12.5 t-58 -4.5q-60 0 -106 17t-59 45q-2 6 -8.5 8t-12.5 0t-8 -8.5t0 -12.5q17 -36 70 -58t124 -22q32 0 63.5 5.5t56.5 15.5q30 12 49 28.5t28 37.5q2 4 -1 10t-9 7zM699 75q-6 3 -12 0t-9 -9q-4 -15 -19 -26.5t-38 -20.5t-51 -14t-58 -5q-60 0 -106 17.5t-59 44.5 q-2 6 -8.5 8.5t-12.5 -0.5q-6 -2 -8 -8t0 -12q17 -36 70 -58t124 -22q32 0 63.5 5.5t56.5 14.5q30 12 49 29t28 37q2 5 -1 11t-9 8zM349 683q0 -7 4.5 -11.5t11.5 -4.5h38q22 -51 69.5 -84.5t106.5 -33.5q7 0 11.5 4.5t4.5 11.5t-4.5 11.5t-11.5 4.5q-45 0 -82.5 24 t-58.5 62h85q7 0 11.5 4.5t4.5 11.5t-4.5 11.5t-11.5 4.5h-97q-3 10 -4 19.5t-1 19.5q0 9 1 18.5t4 19.5h97q7 0 11.5 4.5t4.5 11.5t-4.5 11.5t-11.5 4.5h-85q20 40 57 64t83 24q7 0 11.5 4.5t4.5 11.5t-4.5 11.5t-11.5 4.5q-59 0 -107 -33.5t-69 -84.5h-39q-7 0 -11.5 -4.5 t-4.5 -11.5q0 -8 4.5 -12t11.5 -4h27q-2 -10 -3 -19.5t-1 -19.5q0 -9 1 -19t3 -19h-27q-6 -1 -10 -6t-4 -12v0z" />
</svg>