<svg viewBox="0 0 256 256" xmlns="http://www.w3.org/2000/svg">
  <path transform="scale(1, -1) translate(0, -256)" fill="currentColor" d="M128 77q23 0 38 9t15 22t-15 22t-38 9t-38 -9t-15 -22t15 -22t38 -9zM128 125q17 0 28 -5t11 -11.5t-11 -11.5t-28 -5t-28 5t-11 11.5t11 11.5t28 5zM176 74q-3 1 -5.5 -0.5t-3.5 -3.5q-2 -6 -13 -10.5t-26 -4.5t-25.5 4t-12.5 10q-2 3 -4.5 3.5t-5 -0.5t-3.5 -4t0 -5 q5 -10 19 -16t31.5 -6t32.5 5q16 7 20 19q1 3 -0.5 5.5t-3.5 3.5zM176 38q-3 1 -5.5 -0.5t-3.5 -3.5q-2 -6 -13 -10.5t-26 -4.5t-25.5 4t-12.5 10q-2 2 -4.5 3t-5 0t-3.5 -4t0 -5q5 -10 19 -16t31.5 -6t32.5 5q16 7 20 19q1 3 -0.5 5.5t-3.5 3.5zM84 187q0 -3 2 -5t5 -2h8 q6 -14 18.5 -22t26.5 -8q3 0 5.5 2t2.5 5t-2.5 5t-5.5 2q-8 0 -16 4.5t-13 11.5h16q3 0 5 2t2 5t-2 5t-5 2h-22l-1 6l1 7h22q3 0 5 2t2 5t-2 5.5t-5 2.5h-16q5 7 13 11t16 4q3 0 5.5 2t2.5 5t-2.5 5.5t-5.5 2.5q-14 0 -26.5 -8.5t-18.5 -21.5h-8q-3 0 -5 -2t-2 -5t2 -5t5 -2 h3v-7v-7h-3q-3 0 -5 -2t-2 -5z" />
</svg>