<svg viewBox="0 0 256 256" xmlns="http://www.w3.org/2000/svg">
  <path transform="scale(1, -1) translate(0, -256)" fill="currentColor" d="M14 189q3 0 5 2t2 5v17q0 3 2 5t5 2h10q3 0 5 2t2 5t-2 5t-5 2h-10q-9 0 -15 -6t-6 -15v-17q0 -3 2 -5t5 -2zM244 67q-3 0 -5 -2t-2 -5v-17q0 -3 -2 -5t-5 -2h-10q-3 0 -5 -2.5t-2 -5.5t2 -5t5 -2h10q9 0 15 6.5t6 14.5v18q0 3 -2 5t-5 2zM100 120h18q3 0 5.5 2t2.5 5 t-2.5 5t-5.5 2h-4v2q0 3 -2 5t-5 2t-5 -2t-2 -5v-2q-7 0 -11.5 -4.5t-4.5 -11.5t4.5 -11.5t11.5 -4.5h9q1 0 2 -1t1 -2.5t-3 -1.5h-18q-3 0 -5 -2t-2 -5t2 -5.5t5 -2.5h9v-1q0 -3 2.5 -5t5.5 -2t5 2t2 5v3q5 1 8 5.5t3 10.5t-5 11t-12 5h-8q-1 0 -2 0.5t-1 2t2 1.5zM230 216 h-157q-8 0 -14.5 -6t-6.5 -15v-21h-28q-8 0 -13.5 -5.5t-5.5 -13.5v-94q0 -8 5.5 -13.5t13.5 -5.5h161q8 0 13.5 5.5t5.5 13.5v23h26q9 0 15 6.5t6 15.5v89q0 9 -6 15t-15 6zM190 62q0 -3 -1.5 -4.5t-3.5 -1.5h-161q-2 0 -3.5 1.5t-1.5 4.5v93q0 5 5 5h161q2 0 3.5 -1.5 t1.5 -3.5v-93zM237 106q0 -3 -2 -5t-5 -2h-26v56q0 8 -5.5 13.5t-13.5 5.5h-119v22q0 3 2 5t5 2h157q3 0 5 -2t2 -5v-90zM59 115h-13q-3 0 -5.5 -2t-2.5 -5t2.5 -5.5t5.5 -2.5h13q3 0 5 2.5t2 5.5t-2 5t-5 2zM167 115h-13q-3 0 -5.5 -2t-2.5 -5t2.5 -5.5t5.5 -2.5h13 q3 0 5 2.5t2 5.5t-2 5t-5 2z" />
</svg>