<svg viewBox="0 0 1024 1024" xmlns="http://www.w3.org/2000/svg">
  <path transform="scale(1, -1) translate(0, -960)" fill="currentColor" d="M48 704q7 0 11.5 4.5t4.5 11.5v67q0 17 11.5 28.5t28.5 11.5h40q7 0 11.5 4.5t4.5 11.5t-4.5 11.5t-11.5 4.5h-40q-30 0 -51 -21t-21 -51v-67q0 -6 4.5 -11t11.5 -5zM976 192q-7 0 -11.5 -4.5t-4.5 -11.5v-67q0 -17 -11.5 -28.5t-28.5 -11.5h-40q-7 0 -11.5 -4.5 t-4.5 -11.5t4.5 -11.5t11.5 -4.5h40q30 0 51 21t21 51v67q0 6 -4.5 11t-11.5 5zM402 430h27v0v0v0v0h45q7 0 11.5 4.5t4.5 11.5q0 8 -4.5 12t-11.5 4h-29v18q0 7 -4.5 11.5t-11.5 4.5t-11.5 -4.5t-4.5 -11.5v-18h-11q-23 0 -39 -15.5t-16 -38.5t16 -38.5t39 -15.5h33 q10 0 16.5 -6.5t6.5 -16.5q0 -9 -6.5 -15.5t-16.5 -6.5h-72q-7 0 -11.5 -4.5t-4.5 -11.5t4.5 -11.5t11.5 -4.5h50v-18q0 -7 4.5 -11.5t11.5 -4.5t11.5 4.5t4.5 11.5v18q19 3 32 18t13 35q0 22 -16 38t-39 16h-33q-10 0 -16.5 6.5t-6.5 15.5q0 10 6.5 17t16.5 7v0zM920 790 h-627q-30 0 -51 -21t-21 -51v-97h-125q-26 0 -45 -19t-19 -45v-375q0 -26 19 -45t45 -19h643q27 0 45.5 19t18.5 45v106h115q30 0 51 21t21 51v357q2 30 -19 51.5t-51 21.5v0zM771 182q0 -13 -9.5 -22.5t-22.5 -9.5h-643q-13 0 -22.5 9.5t-9.5 22.5v375q0 13 9.5 22.5 t22.5 9.5h643q13 0 22.5 -9.5t9.5 -22.5v-375zM960 360q0 -17 -11.5 -28.5t-28.5 -11.5h-115v237q0 26 -19 45t-45 19h-488v97q0 17 11.5 28.5t28.5 11.5h627q17 0 28.5 -11.5t11.5 -28.5v-358zM237 384h-55q-7 0 -11.5 -4.5t-4.5 -11.5t4.5 -11.5t11.5 -4.5h55 q7 0 11.5 4.5t4.5 11.5t-5 11.5t-11 4.5zM669 384h-55q-7 0 -11.5 -4.5t-4.5 -11.5t4.5 -11.5t11.5 -4.5h55q7 0 11.5 4.5t4.5 11.5t-5 11.5t-11 4.5z" />
</svg>