<svg viewBox="0 0 1024 1024" xmlns="http://www.w3.org/2000/svg">
  <path transform="scale(1, -1) translate(0, -960)" fill="currentColor" d="M376 643q4 0 6.5 1.5t4.5 3.5l109 109v-435q0 -8 4.5 -12t11.5 -4t11.5 4t4.5 12v435l109 -109q5 -5 11 -5t11 5t5 11.5t-5 10.5l-118 119q-6 6 -13.5 9.5t-15.5 3.5t-15.5 -3.5t-13.5 -9.5l-118 -119q-5 -4 -5 -10.5t5 -11.5q2 -2 5.5 -3.5t5.5 -1.5v0zM934 464h-147 q-7 0 -11.5 -4.5t-4.5 -11.5t4.5 -11.5t11.5 -4.5h147q11 0 18.5 -7.5t7.5 -18.5v-187q0 -38 -27 -65.5t-66 -27.5h-710q-39 0 -66 27.5t-27 65.5v187q0 11 7.5 18.5t18.5 7.5h147q7 0 11.5 4.5t4.5 11.5t-4.5 11.5t-11.5 4.5h-147q-24 0 -41 -17t-17 -41v-187 q0 -51 36.5 -88t88.5 -37h710q52 0 88.5 37t36.5 88v187q0 24 -17 41t-41 17v0z" />
</svg>