<svg viewBox="0 0 1024 1024" xmlns="http://www.w3.org/2000/svg">
  <path transform="scale(1, -1) translate(0, -960)" fill="currentColor" d="M198 432h440q8 0 12 4.5t4 11.5t-4 11.5t-12 4.5h-430l106 104q4 5 4 11.5t-4 10.5q-5 5 -11.5 5t-11.5 -5l-118 -118q-6 -6 -9.5 -13t-3.5 -16q0 -8 3.5 -15.5t9.5 -13.5l118 -118q3 -2 5.5 -3.5t5.5 -1.5q4 0 6.5 1.5t5.5 3.5q4 5 4 11.5t-4 10.5l-116 114v0zM741 928 h-187q-24 0 -41 -17t-17 -41v-147q0 -7 4.5 -11.5t11.5 -4.5t11.5 4.5t4.5 11.5v147q0 11 7.5 18.5t18.5 7.5h187q38 0 65.5 -27t27.5 -66v-710q0 -39 -27.5 -66t-65.5 -27h-187q-11 0 -18.5 7.5t-7.5 18.5v147q0 7 -4.5 11.5t-11.5 4.5t-11.5 -4.5t-4.5 -11.5v-147 q0 -24 17 -41t41 -17h187q51 0 88 36.5t37 88.5v710q0 52 -37 88.5t-88 36.5z" />
</svg>