<svg viewBox="0 0 1024 1024" xmlns="http://www.w3.org/2000/svg">
  <path transform="scale(1, -1) translate(0, -960)" fill="currentColor" d="M477 318q6 -6 13 -9t16 -3v0q8 0 15 3t13 9l119 119q5 5 5 11t-5 11t-11.5 5t-11.5 -5l-108 -109v436q0 7 -4.5 11.5t-11.5 4.5q-8 0 -12 -4.5t-4 -11.5v-436l-109 109q-5 5 -11.5 5t-11.5 -5q-4 -5 -4 -11t4 -11l119 -119v0zM934 464h-147q-7 0 -11.5 -4.5t-4.5 -11.5 t4.5 -11.5t11.5 -4.5h147q11 0 18.5 -7.5t7.5 -18.5v-187q0 -38 -27 -65.5t-66 -27.5h-710q-39 0 -66 27.5t-27 65.5v187q0 11 7.5 18.5t18.5 7.5h147q7 0 11.5 4.5t4.5 11.5t-4.5 11.5t-11.5 4.5h-147q-24 0 -41 -17t-17 -41v-187q0 -51 36.5 -88t88.5 -37h710 q52 0 88.5 37t36.5 88v187q0 24 -17 41t-41 17v0z" />
</svg>