<svg viewBox="0 0 256 256" xmlns="http://www.w3.org/2000/svg">
  <path transform="scale(1, -1) translate(0, -256)" fill="currentColor" d="M117 93q4 -4 9.5 -4t9.5 4l29 30q2 2 2 5t-2 5t-5 2t-5 -2l-22 -22v101q0 3 -2 5.5t-5 2.5t-5 -2.5t-2 -5.5v-101l-22 22q-2 2 -5 2t-5 -2t-2 -5t2 -5zM234 135h-37q-3 0 -5 -2t-2 -5t2 -5t5 -2h37q1 0 2 -1t1 -3v-47q0 -8 -6 -14t-14 -6h-178q-8 0 -14 6t-6 14v48 q0 1 1 2t3 1h37q3 0 5 2t2 5t-2 5.5t-5 2.5h-38q-7 0 -12 -5.5t-5 -12.5v-47q0 -14 10 -24t24 -10h177q14 0 24 10t10 24v47q1 7 -4 12t-12 5z" />
</svg>