<svg viewBox="0 0 1024 1024" xmlns="http://www.w3.org/2000/svg">
  <path transform="scale(1, -1) translate(0, -960)" fill="currentColor" d="M888 928h-752q-43 0 -73.5 -30.5t-30.5 -73.5v-293q0 -7 4.5 -11.5t11.5 -4.5t11.5 4.5t4.5 11.5v293q0 30 21 51t51 21h754q28 0 49 -21t21 -51v-754q0 -30 -21 -51t-51 -21h-270q-8 0 -12 -4t-4 -12q0 -7 4 -11.5t12 -4.5h270q43 0 73.5 30.5t30.5 73.5v754 q0 43 -30.5 73.5t-73.5 30.5zM786 698v-130q0 -7 4 -11.5t12 -4.5q7 0 11.5 4.5t4.5 11.5v168v0v0q0 2 -1.5 5.5t-3.5 5.5v0v0v0v0q-3 3 -5.5 4t-5.5 1h-168q-8 0 -12 -4.5t-4 -11.5t4 -11.5t12 -4.5h129l-344 -342h-307q-34 0 -57 -23.5t-23 -56.5v-250q0 -34 23 -57 t57 -23h250q33 0 56.5 23t23.5 57v307zM410 48q0 -20 -14 -34t-34 -14h-250q-20 0 -34 14t-14 34v250q0 20 14 34t34 14h298v-298z" />
</svg>