<svg viewBox="0 0 256 256" xmlns="http://www.w3.org/2000/svg">
  <path transform="scale(1, -1) translate(0, -256)" fill="currentColor" d="M222 251h-188q-12 0 -20.5 -8.5t-8.5 -20.5v-73q0 -3 2 -5t5 -2t5.5 2t2.5 5v73q0 6 4 10.5t10 4.5h189q6 0 10.5 -4.5t4.5 -10.5v-188q0 -6 -4.5 -10.5t-10.5 -4.5h-69q-3 0 -5 -2t-2 -5t2 -5.5t5 -2.5h68q12 0 20.5 8.5t8.5 20.5v189q0 12 -8.5 20.5t-20.5 8.5z M194 183v-25q0 -3 2 -5t5 -2t5 2t2 5v42q0 3 -2 5t-5 2h-43q-3 0 -5 -2t-2 -5t2 -5.5t5 -2.5h26l-80 -79h-76q-10 0 -16.5 -7t-6.5 -16v-62q0 -10 6.5 -16.5t16.5 -6.5h62q10 0 17 6.5t7 16.5v76zM99 28q0 -4 -2.5 -6.5t-6.5 -2.5h-62q-4 0 -6.5 2.5t-2.5 6.5v62q0 4 2.5 7 t6.5 3h71v-72z" />
</svg>