<svg viewBox="0 0 256 256" xmlns="http://www.w3.org/2000/svg">
  <path transform="scale(1, -1) translate(0, -256)" fill="currentColor" d="M197 233q0 3 -2 5t-5 2h-30q-3 0 -5 -2.5t-2 -5.5l6 -45h-147q-4 0 -6 -3t0 -6l29 -80q2 -4 6 -4h135q3 0 5 2.5t2 5.5l-15 124h22q3 0 5 2t2 5zM168 107h-122l-24 66h139zM177 46q-1 10 -8.5 17t-16.5 7h-93q-10 -2 -15.5 -10.5t-4.5 -19t8 -17.5t16 -7h3q9 1 15 9.5 t4 19.5q0 6 -3 10h51q-3 -7 -2 -16.5t7.5 -16.5t15.5 -7h3q10 2 15.5 11t4.5 20zM72 44q0 -5 -2 -9.5t-6 -5t-7 3.5t-3.5 9t1.5 9.5t6 4.5h1q3 0 6 -3.5t4 -8.5zM156 30q-4 -1 -7.5 2.5t-4 9t2 9.5t5.5 5h1q4 0 7 -3.5t3.5 -8.5t-2 -9.5t-5.5 -4.5zM222 160q3 0 5.5 2t2.5 5 t-2.5 5t-5.5 2h-22q-3 0 -5 -2t-2 -5t2 -5t5 -2h22zM244 141h-38q-3 0 -5 -2t-2 -5t2 -5t5 -2h38q3 0 5 2t2 5t-2 5t-5 2zM233 109h-27q-3 0 -5 -2t-2 -5t2 -5t5 -2h27q3 0 5 2t2 5t-2 5t-5 2z" />
</svg>