<svg viewBox="0 0 1024 1024" xmlns="http://www.w3.org/2000/svg">
  <path transform="scale(1, -1) translate(0, -960)" fill="currentColor" d="M512 549q-42 0 -71.5 -29.5t-29.5 -71.5t29.5 -71.5t71.5 -29.5t71.5 29.5t29.5 71.5t-29.5 71.5t-71.5 29.5v0zM512 379q-29 0 -49 20t-20 49t20 49t49 20t49 -20t20 -49t-20 -49t-49 -20v0zM989 461q-39 60 -91 108q-52 49 -113.5 82t-130.5 51t-142 18t-142 -18 t-130.5 -51t-113.5 -82q-52 -48 -91 -108q-3 -6 -3 -12.5t3 -11.5q39 -61 91 -110q52 -48 113.5 -81.5t130.5 -51.5t142 -18t142 18t130.5 51.5t113.5 81.5q52 49 91 110v0q3 5 3 11.5t-3 12.5v0zM512 208q-68 0 -133 16q-65 17 -122 47.5t-106 75.5t-85 101q36 56 85 101 q49 44 106 75t122 48q65 16 133 16t133 -16q65 -17 122 -47.5t106 -75.5t85 -101q-36 -56 -85 -101q-49 -44 -106 -75t-122 -48q-65 -16 -133 -16zM962 453v0v0v0v0z" />
</svg>