<svg viewBox="0 0 256 256" xmlns="http://www.w3.org/2000/svg">
  <path transform="scale(1, -1) translate(0, -256)" fill="currentColor" d="M128 156q-12 0 -20 -8.5t-8 -19.5t8.5 -19.5t19.5 -8.5t19.5 8.5t8.5 19.5t-8 19.5t-20 8.5zM128 114q-6 0 -10 4t-4 10t4 10t10 4t10 -4t4 -10t-4 -10t-10 -4zM250 133q-20 31 -52.5 48.5t-69.5 17.5t-69.5 -17.5t-52.5 -48.5q-2 -5 0 -9q20 -32 52.5 -49.5t69.5 -17.5 t69.5 17.5t52.5 49.5q3 4 0 9zM128 71q-33 0 -61.5 15t-46.5 42q18 27 46.5 42t61.5 15t61.5 -15t46.5 -42q-18 -27 -46.5 -42t-61.5 -15z" />
</svg>