<svg viewBox="0 0 256 256" xmlns="http://www.w3.org/2000/svg">
  <path transform="scale(1, -1) translate(0, -256)" fill="currentColor" d="M249 133q-5 6 -17 17q-21 18 -44 29q-30 15 -60 15t-60 -15q-23 -11 -44 -29q-13 -12 -17 -18q-2 -2 -2 -4.5t2 -4.5q5 -6 17 -17q21 -18 44 -29q30 -15 60 -15t60 15q23 11 44 29q13 12 17 18q2 1 2 4t-2 5zM128 76q-32 0 -67 21q-21 13 -39 31q18 18 39 31q35 21 67 21 t67 -21q21 -13 39 -31q-18 -18 -39 -31q-35 -21 -67 -21zM100 128q0 -12 8 -20t20 -8t20 8t8 20t-8 20t-20 8t-20 -8t-8 -20zM142 128q0 -6 -4 -10t-10 -4t-10 4t-4 10t4 10t10 4t10 -4t4 -10z" />
</svg>