<svg viewBox="0 0 1024 1024" xmlns="http://www.w3.org/2000/svg">
  <path transform="scale(1, -1) translate(0, -960)" fill="currentColor" d="M579 -48h-125q-19 0 -31.5 14.5t-12.5 35.5v390h-114q-19 0 -32 14.5t-13 35.5v110q0 20 13.5 35t31.5 15h112v113q-1 51 14 93q14 42 40.5 72.5t64.5 46.5q37 17 83 17h94q19 0 32 -14.5t13 -35.5v-129q0 -21 -13.5 -35.5t-31.5 -14.5h-66q-8 0 -11 -0.5l-3 -0.5v-7.5 v-8.5v-98h104q12 0 21.5 -4.5t15.5 -13.5q7 -8 9.5 -19t-0.5 -22v0v0l-19 -107q-2 -17 -14.5 -28.5t-30.5 -11.5h-86v-394q0 -19 -13.5 -33.5t-31.5 -14.5v0zM294 568q-4 0 -8 -5t-4 -13v-110q0 -7 4 -12.5t8 -5.5h130q7 0 11.5 -4t4.5 -12v-408q0 -7 4 -12t9 -5h125 q4 0 8 5t4 12v413q0 7 4.5 11.5t11.5 4.5h101q5 0 9 3.5t4 9.5l19 109q1 5 0 9t-3 7q-2 2 -5.5 4t-7.5 2h-118q-7 0 -11.5 4.5t-4.5 11.5v114q0 24 8.5 36.5t37.5 12.5h69q5 0 9 5.5t4 12.5v126q0 8 -3.5 13t-9.5 5h-94q-78 0 -125 -54t-47 -144v-130q0 -7 -4 -11.5 t-12 -4.5h-128v0z" />
</svg>