<svg viewBox="0 0 1024 1024" xmlns="http://www.w3.org/2000/svg">
  <path transform="scale(1, -1) translate(0, -960)" fill="currentColor" d="M510 942q-104 0 -194 -36q-91 -36 -157.5 -100.5t-104.5 -151.5q-38 -88 -38 -192q0 -54 11 -105q10 -50 30.5 -95t48.5 -84q29 -39 65 -71q5 -5 8.5 -12.5t4.5 -14.5l2 -88q1 -20 18 -32.5t38 -2.5l99 43l12.5 2.5t14.5 -0.5q34 -9 70 -15t74 -6q105 0 196 37 q90 37 157 101t105 152q38 87 38 190q0 102 -38 190q-39 89 -106 153.5t-158 101.5q-91 36 -196 36v0zM808 573l-146 -229q-16 -26 -48 -33.5t-57 12.5l-115 88q-9 5 -18 5t-18 -5l-156 -117q-16 -12 -30.5 2t-3.5 30l146 229q16 27 48 34t57 -13l115 -88q9 -5 18 -5t18 5 l155 120q18 7 31.5 -6.5t3.5 -28.5v0z" />
</svg>