<svg viewBox="0 0 1024 1024" xmlns="http://www.w3.org/2000/svg">
  <path transform="scale(1, -1) translate(0, -960)" fill="currentColor" d="M512 944q-103 0 -194 -39q-90 -39 -157 -106t-106 -157q-39 -91 -39 -194t39 -194q39 -90 106 -157t157 -106q91 -39 194 -39t194 39q90 39 157 106t106 157q39 91 39 194t-39 194q-39 90 -106 157t-157 106q-91 39 -194 39zM643 642h-24.5h-24.5q-17 0 -27 -8.5 t-10 -23.5q-1 -14 -0.5 -27.5t0.5 -24.5q0 -4 1.5 -5t4.5 -1h37h37q5 0 7 -2t2 -8q-1 -21 -3.5 -43.5t-2.5 -44.5q0 -4 -2 -5t-8 -1h-29h-30q-9 0 -10 -1t-1 -10v-137v-137q0 -7 -2 -9t-9 -2h-50.5h-50.5q-7 0 -9 2t-2 9v70v68v68.5v70.5q0 5 -2 8t-8 2h-20.5h-22.5 q-7 -4 -8.5 -2t-1.5 6v43v45q0 5 1.5 6t5.5 1h22.5h22.5q7 0 9 2t2 9v33v34q0 21 5 39t17 35q16 20 37 30.5t45 12.5q25 1 50 0.5t51 1.5q3 0 4.5 -1.5t1.5 -5.5v-43.5v-44.5q1 -5 0 -7t-5 -2v0z" />
</svg>