<svg viewBox="0 0 1024 1024" xmlns="http://www.w3.org/2000/svg">
  <path transform="scale(1, -1) translate(0, -960)" fill="currentColor" d="M579 -61h-125q-24 0 -40.5 18t-16.5 43v381h-103q-24 0 -40.5 17.5t-16.5 43.5v110q0 25 16.5 43t40.5 18h100v101q0 54 15 99q16 45 44 77t67 49q40 18 88 18h96q24 0 41 -18t17 -43v-130q0 -25 -17 -42.5t-41 -17.5h-66h-1.5h-1.5v-3v-2v-87h91q15 -1 26.5 -6.5 t20.5 -15.5q8 -11 11.5 -24.5t1.5 -26.5v0v0l-20 -109q-2 -22 -18 -36t-39 -14h-74v-382q0 -24 -16.5 -42.5t-39.5 -18.5v0zM424 437q12 0 20.5 -8.5t8.5 -20.5v-408q0 -2 0.5 -3.5l0.5 -1.5h125l1 1.5t1 3.5v411q0 12 8.5 20.5t20.5 8.5h100h1t1 2v0.5v0.5l19 107v4.5 t-1 2.5l-1 0.5t-3 0.5h-118q-12 0 -20.5 8.5t-8.5 20.5v114q0 21 9.5 41t49.5 20h66l1 1t1 3v128q0 3 -1 4l-1 1h-94q-72 0 -115.5 -51t-43.5 -136v-130q0 -12 -8.5 -20t-20.5 -8h-128l-0.5 -1.5t-0.5 -3.5v-111q0 -2 0.5 -3l0.5 -1l130 3v0z" />
</svg>