<svg viewBox="0 0 256 256" xmlns="http://www.w3.org/2000/svg">
  <path transform="scale(1, -1) translate(0, -256)" fill="currentColor" d="M128 252q-34 0 -62.5 -16.5t-45 -45t-16.5 -62.5t16.5 -62.5t45 -45t62.5 -16.5t62.5 16.5t45 45t16.5 62.5t-16.5 62.5t-45 45t-62.5 16.5zM161 176h-13q-4 0 -6.5 -2t-2.5 -6v-9l1 -5h19q3 0 3 -2l-2 -22v-2h-20v-71q0 -2 -0.5 -2.5t-2.5 -0.5h-25q-2 0 -2.5 0.5 t-0.5 2.5v69q0 3 -2 2h-11h-2v24v1h12q2 0 2.5 0.5t0.5 2.5v17q0 10 6 18q7 10 20 11h25q2 0 2 -1v-22q1 -3 -1 -3z" />
</svg>