<svg viewBox="0 0 1024 1024" xmlns="http://www.w3.org/2000/svg">
  <path transform="scale(1, -1) translate(0, -960)" fill="currentColor" d="M928 746h-101v148q0 8 -4.5 12t-11.5 4t-11.5 -4t-4.5 -12v-148h-101q-26 0 -45 -19t-19 -45v-159h-534q-26 0 -45 -18.5t-19 -45.5v-411q0 -26 19 -45t45 -19h832q26 0 45 19t19 45v634q0 26 -19 45t-45 19v0zM64 50v409q0 13 9.5 22.5t22.5 9.5h533v-475h-154v250 q0 26 -18.5 45t-45.5 19h-131q-26 0 -45 -19t-19 -45v-248h-120q-13 0 -22.5 9t-9.5 23v0zM250 18v248q0 13 9 22.5t23 9.5h131q13 0 22.5 -9.5t9.5 -22.5v-248h-195v0zM960 50q0 -14 -9.5 -23t-22.5 -9h-267v664q0 13 9.5 22.5t22.5 9.5h235q13 0 22.5 -9.5t9.5 -22.5v-632 z" />
</svg>