<svg viewBox="0 0 1024 1024" xmlns="http://www.w3.org/2000/svg">
  <path transform="scale(1, -1) translate(0, -960)" fill="currentColor" d="M875 597h-483l-6 133q-2 31 -24 52t-53 21h-125q-31 0 -53.5 -21t-23.5 -52l-35 -682q-1 -16 4.5 -30.5t16.5 -25.5q11 -12 25.5 -18t30.5 -6h728q31 0 54 23t23 54v475q-2 32 -25 54.5t-54 22.5zM339 0h-190q-10 0 -18 3.5t-14 10.5q-6 8 -9.5 16t-3.5 18l34 680 q1 18 13.5 30.5t30.5 12.5h125q18 0 31 -12.5t14 -30.5l38 -728h-51zM573 0v250q0 13 9.5 22.5t22.5 9.5h96q13 0 22.5 -9.5t9.5 -22.5v-250h-160zM920 45q0 -18 -13.5 -31.5t-31.5 -13.5h-112v250q0 26 -18.5 45t-45.5 19h-96q-26 0 -45 -19t-19 -45v-250h-118l-29 565h482 q18 0 31 -13.5t13 -31.5v-475h2zM557 670q7 0 11.5 4.5t4.5 11.5v40q0 18 12.5 31.5t32.5 13.5q31 0 53.5 22.5t22.5 54.5v64q0 7 -4 11.5t-12 4.5q-7 0 -11.5 -4.5t-4.5 -11.5v-66q0 -18 -12.5 -31t-31.5 -13q-32 0 -54.5 -22.5t-22.5 -54.5v-40q0 -5 4.5 -10t11.5 -5v0z " />
</svg>