<svg viewBox="0 0 1024 1024" xmlns="http://www.w3.org/2000/svg">
  <path transform="scale(1, -1) translate(0, -960)" fill="currentColor" d="M930 758q-18 14 -41 16t-44 -6l-5 -2v146q0 7 -4.5 11.5t-11.5 4.5t-11.5 -4.5t-4.5 -11.5v-149q0 -2 1 -3.5t2 -4.5l-137 -53q-4 17 -13.5 32t-23.5 24q-18 14 -40.5 16t-44.5 -6l-173 -67q-3 17 -12.5 31.5t-24.5 24.5q-19 13 -41 15.5t-43 -6.5l-144 -56 q-27 -9 -43.5 -33t-16.5 -51v-568q0 -38 27 -65t65 -27h732q38 0 65 27t27 65v624q0 22 -10.5 42.5t-29.5 33.5v0zM86 59v568q0 18 11 33.5t28 22.5l144 56q5 3 10.5 4t10.5 1q8 0 17 -2.5t16 -8.5q12 -9 19 -21.5t7 -28.5v-683h-203q-26 0 -43 17.5t-17 41.5v0zM381 667 l182 71q15 4 29 3t26 -10q12 -8 18.5 -21t6.5 -28v-682h-262v667v0zM938 59q0 -24 -18 -41.5t-42 -17.5h-203v667l183 71q14 4 28 3t26 -10q12 -8 19 -21t7 -28v-623z" />
</svg>