<svg viewBox="0 0 1024 1024" xmlns="http://www.w3.org/2000/svg">
  <path transform="scale(1, -1) translate(0, -960)" fill="currentColor" d="M942 574l-243 103q-14 6 -31 6t-31 -6l-264 -111l-45 280q-5 29 -27.5 48.5t-52.5 19.5h-82q-28 0 -51 -18.5t-29 -47.5l-54 -291v-495q0 -33 24 -56.5t56 -23.5h384q34 0 57 24t23 56v69q0 21 14.5 34.5t33.5 13.5h93q20 0 34 -14.5t14 -33.5v-69q0 -33 23.5 -56.5 t56.5 -23.5h64q33 0 56.5 24t23.5 56v439q2 24 -11 44t-36 29v0zM112 14q-20 0 -34 14.5t-14 33.5v490l54 291q4 17 17 28.5t31 11.5h82q18 0 32 -11.5t16 -28.5l50 -299v-528h-234v-2zM960 62q0 -20 -14.5 -34t-33.5 -14h-64q-20 0 -34 14.5t-14 33.5v69q0 34 -24 57 t-56 23h-93q-33 0 -56.5 -23.5t-23.5 -56.5v-69q0 -20 -14.5 -34t-33.5 -14h-120v519l272 115q9 4 19 4t20 -4l243 -102q13 -6 21.5 -18.5t8.5 -26.5v-439h-3z" />
</svg>