<svg viewBox="0 0 256 256" xmlns="http://www.w3.org/2000/svg">
  <path transform="scale(1, -1) translate(0, -256)" fill="currentColor" d="M244 247q-7 3 -13 -1l-96 -73v63q0 3 -2 6t-5 4.5t-6.5 1.5t-6.5 -2l-96 -73v70q0 3 -2 5t-5 2t-5 -2t-2 -5v-213q0 -10 7 -17t17 -7h199q9 0 16 7t7 17v206q0 3 -2 6t-5 5zM60 20v24q0 4 3 7t7 3t7 -3t3 -7v-24h-20zM121 20h-26v24q0 10 -7 17t-17.5 7t-17.5 -7t-7 -17 v-24h-18q-3 0 -6 3t-3 7v126l102 77v-213zM178 20v24q0 4 3.5 7t7.5 3t7 -3t3 -7v-24h-21zM237 30q0 -4 -2.5 -7t-6.5 -3h-15v24q0 10 -7 17t-17 7t-17.5 -7t-7.5 -17v-24h-29v136l102 77v-203z" />
</svg>