<svg viewBox="0 0 256 256" xmlns="http://www.w3.org/2000/svg">
  <path transform="scale(1, -1) translate(0, -256)" fill="currentColor" d="M242 110l-61 50q-5 4 -11 5t-12 -1l-89 -36v94q0 9 -7 15.5t-16 6.5h-13q-10 1 -16.5 -6t-6.5 -16v-119h-1q-4 -2 -4 -6v-63q0 -9 6.5 -15.5t16.5 -6.5h200q9 0 15.5 6.5t6.5 15.5v58q2 11 -8 18zM24 222q0 3 2.5 5.5t5.5 2.5h14q3 0 5.5 -2.5t2.5 -5.5v-100l-31 -13v113 h1zM237 34q0 -3 -2.5 -5.5t-6.5 -2.5h-200q-4 0 -6.5 2.5t-2.5 5.5v58l145 58q5 2 9 -1l61 -50q3 -2 3 -7v-58zM70 72h-17q-3 0 -5 -2t-2 -5t2 -5t5 -2h17q3 0 5.5 2t2.5 5t-2.5 5t-5.5 2zM140 72h-18q-3 0 -5 -2t-2 -5t2 -5t5 -2h18q3 0 5 2t2 5t-2 5t-5 2zM206 72h-18 q-3 0 -5 -2t-2 -5t2 -5t5 -2h17q3 0 5 2t2 5t-2 5t-4 2z" />
</svg>