<svg viewBox="0 0 256 256" xmlns="http://www.w3.org/2000/svg">
  <path transform="scale(1, -1) translate(0, -256)" fill="currentColor" d="M237 162l-61 26q-9 4 -18 0l-62 -26l-11 66q-2 8 -8.5 14t-14.5 6h-20q-9 0 -15.5 -5.5t-7.5 -13.5l-14 -73v-124q0 -10 7 -17t16 -7h97q9 0 16 7t7 17v17q0 4 2.5 6.5t6.5 2.5h23q4 0 7 -2.5t3 -6.5v-17q0 -10 6.5 -17t16.5 -7h16q9 0 16 7t7 17v109q-1 7 -5 13t-10 8z M28 22q-4 0 -6.5 3t-2.5 7v122l13 72q1 3 3.5 5.5t5.5 2.5h21q3 0 5.5 -2.5t3.5 -5.5l12 -75v-129h-55zM237 32q0 -4 -2.5 -7t-6.5 -3h-16q-4 0 -6.5 3t-2.5 7v17q0 9 -7 16t-16 7h-24q-9 0 -16 -7t-7 -16v-17q0 -4 -2.5 -7t-6.5 -3h-27v125l66 28q4 1 7 0l61 -25q6 -3 6 -9 v-109z" />
</svg>