<svg viewBox="0 0 256 256" xmlns="http://www.w3.org/2000/svg">
  <path transform="scale(1, -1) translate(0, -256)" fill="currentColor" d="M228 249h-70q-9 0 -16 -7t-7 -16v-46q0 -3 -2 -5.5t-4 -2.5l-42 -17v65q0 3 -2 5t-5 2t-5 -2t-2 -5v-70l-30 -12v62q0 3 -2 5t-5 2t-5.5 -2t-2.5 -5v-68l-8 -4q-7 -2 -11 -8t-4 -14v-76q0 -9 7 -16t17 -7h199q9 0 16 7t7 16v196q0 9 -7 16t-16 7zM164 21v48q0 2 1.5 3.5 t3.5 1.5h25q2 0 3.5 -1.5t1.5 -3.5v-48h-35zM237 30q0 -3 -2.5 -6t-6.5 -3h-16v48q0 8 -5.5 13.5t-13.5 5.5h-24q-8 0 -13.5 -5.5t-5.5 -13.5v-48h-122q-4 0 -6.5 2.5t-2.5 6.5v76q0 3 1.5 5.5t4.5 3.5l109 43q6 3 10 9t4 13v46q0 4 3 6.5t7 2.5h69q4 0 7 -3t3 -6v-196z" />
</svg>