<svg viewBox="0 0 256 256" xmlns="http://www.w3.org/2000/svg">
  <path transform="scale(1, -1) translate(0, -256)" fill="currentColor" d="M219 168h-118l-2 31q0 9 -6.5 15t-15.5 6h-31q-9 0 -15.5 -6t-6.5 -15l-9 -171q0 -9 6.5 -16t15.5 -7h182q9 0 15.5 6.5t6.5 15.5v119q0 9 -6.5 15.5t-15.5 6.5zM85 19h-48q-3 0 -5.5 2.5t-2.5 5.5l8 170q0 3 2.5 5.5t5.5 2.5h31q4 0 6 -2.5t2 -5.5l10 -179h-9v1zM146 19 v59q0 3 1.5 4.5t3.5 1.5h24q2 0 3.5 -1.5t1.5 -4.5v-59h-34zM227 27q0 -3 -2 -5.5t-6 -2.5h-25v59q0 8 -5.5 14t-13.5 6h-24q-8 0 -13.5 -6t-5.5 -14v-59h-24l-6 135h117q3 0 5.5 -2t2.5 -6v-119zM139 181q3 0 5 2t2 5v10q0 3 2.5 5.5t5.5 2.5q9 0 15.5 6.5t6.5 15.5v16 q0 3 -2 5t-5 2t-5 -2t-2 -5v-16q0 -4 -2.5 -6t-5.5 -2q-9 0 -15.5 -6.5t-6.5 -15.5v-10q0 -3 2 -5t5 -2z" />
</svg>