<svg viewBox="0 0 256 256" xmlns="http://www.w3.org/2000/svg">
  <path transform="scale(1, -1) translate(0, -256)" fill="currentColor" d="M234 208q-4 3 -9.5 4t-11.5 0v32q0 3 -2 5t-5 2t-5 -2t-2 -5v-37l-29 -11q-3 8 -9 12t-12 5t-12 -2l-40 -15q-3 8 -9 12t-12.5 5t-12.5 -2l-36 -14q-7 -3 -11.5 -9.5t-4.5 -14.5v-142q0 -11 7.5 -18.5t18.5 -7.5h183q11 0 18.5 7.5t7.5 18.5v156q0 6 -3.5 11.5t-8.5 9.5z M24 31v142q0 3 2.5 6t5.5 5l37 14l3 1q4 0 7 -2q5 -4 5 -10v-167h-48q-4 -1 -8 2.5t-4 8.5zM98 181l44 17q5 2 10.5 -1.5t5.5 -9.5v-168h-60v162zM232 31q0 -5 -3.5 -8.5t-8.5 -3.5h-48v162l44 17q5 2 10.5 -1.5t5.5 -9.5v-156z" />
</svg>