<svg viewBox="0 0 1024 1024" xmlns="http://www.w3.org/2000/svg">
  <path transform="scale(1, -1) translate(0, -960)" fill="currentColor" d="M971 914q-9 4 -20 3t-20 -7l-403 -305v273q0 11 -5.5 20t-15.5 14q-9 5 -20 4t-20 -7l-403 -304v302q0 7 -4.5 11.5t-11.5 4.5t-11.5 -4.5t-4.5 -11.5v-851q0 -34 24 -58t58 -24h796q34 0 58 24t24 58v822q0 11 -5.5 21t-15.5 15v0zM226 5v104q0 21 15.5 37.5t38.5 16.5 t38.5 -15.5t15.5 -38.5v-104h-108v0zM496 5h-130v104q0 36 -25 61t-61 25t-61 -25t-25 -61v-104h-80q-21 0 -35.5 14.5t-14.5 34.5v511l422 320q3 1 4.5 1t2.5 -1q1 0 2 -1.5t1 -3.5v-875v0zM701 5v104q0 21 15.5 37.5t38.5 16.5t39 -15.5t16 -38.5v-104h-109zM960 56 q0 -20 -14.5 -35t-35.5 -15h-70v104q0 36 -25 61.5t-61 25.5t-61.5 -25.5t-25.5 -61.5v-104h-139v559l422 320q3 1 4.5 1t2.5 -1q1 0 2 -1.5t1 -3.5v-824z" />
</svg>