<svg viewBox="0 0 256 256" xmlns="http://www.w3.org/2000/svg">
  <path transform="scale(1, -1) translate(0, -256)" fill="currentColor" d="M238 169q-7 3 -13.5 2t-11.5 -5l-32 -25v7q0 6 -3.5 12t-9.5 9t-13 2t-12 -5l-32 -25v71q0 7 -5.5 13t-13.5 6h-68q-8 0 -13.5 -5.5t-5.5 -13.5v-168q0 -8 5.5 -13.5t13.5 -5.5h204q9 0 16 7t7 16v100q0 6 -3.5 12t-9.5 9zM19 44v168q0 2 1.5 3.5t3.5 1.5h68 q2 0 3.5 -1.5t1.5 -3.5v-173h-73q-2 0 -3.5 1.5t-1.5 3.5zM110 123l41 32q2 2 5 2.5t5 -1.5q6 -2 6 -8v-109h-57v84zM237 49q0 -4 -2.5 -7t-6.5 -3h-47v84l41 32q2 2 4.5 2.5t5.5 -1.5q5 -2 5 -8v-99z" />
</svg>