<svg viewBox="0 0 1024 1024" xmlns="http://www.w3.org/2000/svg">
  <path transform="scale(1, -1) translate(0, -960)" fill="currentColor" d="M910 922h-276q-34 0 -58 -24t-24 -58v-181q0 -15 -9 -27.5t-23 -18.5l-184 -75v276q0 8 -4.5 12t-11.5 4t-11.5 -4t-4.5 -12v-286v-1v-1l-144 -57v265q0 8 -4.5 12t-11.5 4t-11.5 -4t-4.5 -12v-278l-45 -18q-24 -9 -37.5 -30t-13.5 -46v-304q0 -34 24 -58t58 -24h795 q33 0 57 24t24 58v780q2 35 -22 59.5t-58 24.5v0zM643 6v207q0 13 9.5 22.5t22.5 9.5h98q13 0 22.5 -9.5t9.5 -22.5v-207h-162zM960 58q0 -21 -14.5 -35.5t-35.5 -14.5h-72v205q0 26 -18.5 45t-45.5 19h-97q-27 0 -45.5 -19t-18.5 -45v-207h-499q-21 0 -35.5 15t-14.5 35 v304q0 16 9 28t23 18l435 173q24 10 37.5 31t13.5 46v182q0 21 15 35.5t35 14.5h277q20 0 34.5 -14.5t14.5 -35.5v-780h2z" />
</svg>