<svg viewBox="0 0 1024 1024" xmlns="http://www.w3.org/2000/svg">
  <path transform="scale(1, -1) translate(0, -960)" fill="currentColor" d="M963 366l-246 200q-17 15 -38.5 17.5t-41.5 -4.5l-375 -152v395q0 34 -23 57t-57 23h-51q-33 0 -56.5 -23t-23.5 -57v-481l-8 -3q-6 -2 -8.5 -6t-2.5 -9v-249q0 -34 23 -57t57 -23h800q34 0 57 23t23 57v232q0 18 -8 34t-21 26v0zM83 822q0 20 14 34t34 14h53 q19 0 33.5 -13.5t14.5 -34.5v-408l-149 -60v468v0zM960 74q0 -20 -14 -34t-34 -14h-800q-19 0 -33.5 13.5t-14.5 34.5v238l586 237q12 5 25 2.5t23 -10.5l244 -200q9 -7 13.5 -16.5t4.5 -20.5v-230v0zM282 211h-69q-7 0 -11.5 -4.5t-4.5 -11.5t4.5 -11.5t11.5 -4.5h69 q7 0 11.5 4.5t4.5 11.5t-4.5 11.5t-11.5 4.5zM558 211h-68q-8 0 -12 -4.5t-4 -11.5t4 -11.5t12 -4.5h68q8 0 12 4.5t4 11.5t-4 11.5t-12 4.5zM822 211h-70q-7 0 -11.5 -4.5t-4.5 -11.5t4.5 -11.5t11.5 -4.5h69q7 0 11.5 4.5t4.5 11.5t-4.5 11.5t-10.5 4.5z" />
</svg>