<svg viewBox="0 0 256 256" xmlns="http://www.w3.org/2000/svg">
  <path transform="scale(1, -1) translate(0, -256)" fill="currentColor" d="M232 206h-22v34q0 3 -2.5 5t-5.5 2t-5 -2t-2 -5v-35h-22q-8 0 -13.5 -5.5t-5.5 -13.5v-37h-130q-8 0 -13.5 -5.5t-5.5 -13.5v-103q0 -8 5.5 -13.5t13.5 -5.5h208q8 0 13.5 5.5t5.5 13.5v159q0 8 -5.5 14t-13.5 6zM19 28v103q0 2 1.5 3.5t3.5 1.5h130v-113h-32v59 q0 8 -5.5 14t-13.5 6h-33q-8 0 -13.5 -6t-5.5 -14v-58h-27q-2 -1 -3.5 0.5t-1.5 3.5zM65 23v59q0 3 1.5 4.5t3.5 1.5h33q2 0 3.5 -1.5t1.5 -4.5v-58h-43v-1zM237 28q0 -2 -1.5 -3.5t-3.5 -1.5h-64v163q0 3 2 4.5t4 1.5h58q2 0 3.5 -2t1.5 -4v-158z" />
</svg>