<svg viewBox="0 0 256 256" xmlns="http://www.w3.org/2000/svg">
  <path transform="scale(1, -1) translate(0, -256)" fill="currentColor" d="M58 149q13 0 22.5 9.5t9.5 22.5t-9 22t-22.5 9t-22.5 -9t-9 -22t9 -22.5t22 -9.5zM58 198q8 0 13 -5t5 -12t-5 -12.5t-12.5 -5.5t-12.5 5.5t-5 12.5t5 12t12 5zM235 123q-7 8 -17 12t-21 4q-15 0 -28 -8t-20 -22q-10 7 -22.5 7t-21.5 -6q-4 8 -9 13q-16 16 -38 16 t-37 -16q-8 -8 -12.5 -18t-4.5 -21v-17q0 -10 7 -16.5t17 -6.5h199q9 0 16 6.5t7 16.5v18q2 22 -15 38zM153 76v-18h-53v18q0 11 8 18.5t18.5 7.5t18.5 -7.5t8 -18.5zM28 58q-3 0 -6 2.5t-3 6.5v17q0 17 12 29t27.5 12t27.5 -12q5 -5 9 -12q-9 -11 -9 -25v-18h-58zM237 67 q0 -4 -2.5 -6.5t-6.5 -2.5h-61v18q0 13 -7 22q5 12 15 19.5t23 7.5q16 0 27.5 -11.5t11.5 -28.5v-18zM198 149q13 0 22 9.5t9 22.5t-9 22t-22 9t-22.5 -9t-9.5 -22t9 -22.5t23 -9.5zM198 198q7 0 12 -5t5 -12t-5 -12.5t-12.5 -5.5t-12.5 5.5t-5 12.5t5 12t13 5zM127 124 q10 0 16.5 7t6.5 16.5t-7 16.5t-16.5 7t-16.5 -7t-7 -16.5t7 -16.5t17 -7zM127 158q4 0 6.5 -3t2.5 -7t-2.5 -7t-6.5 -3t-7 3t-3 7t3 7t7 3z" />
</svg>