<svg viewBox="0 0 1024 1024" xmlns="http://www.w3.org/2000/svg">
  <path transform="scale(1, -1) translate(0, -960)" fill="currentColor" d="M242 378q45 0 77.5 32t32.5 78t-32.5 78t-77.5 32q-46 0 -78.5 -32t-32.5 -78t32.5 -78t78.5 -32zM242 568q32 0 55 -23t23 -55q0 -33 -23 -56t-55 -23q-33 0 -56 23t-23 56q0 32 23 55t56 23zM922 258q-28 27 -64 42t-76 15q-60 0 -109.5 -33.5t-72.5 -87.5 q-19 15 -43 24t-51 9q-24 0 -46.5 -7.5t-40.5 -21.5q-7 17 -17.5 31.5t-22.5 26.5q-27 28 -62 43t-74 15q-38 0 -73.5 -14.5t-63.5 -41.5q-29 -29 -45 -67t-16 -79v-64q0 -32 23 -56t57 -24h774q33 0 56.5 23t23.5 57v72q0 38 -15 74t-42 64v0zM621 82v-82h-229v82 q0 46 33.5 79.5t80.5 33.5q46 0 80.5 -33.5t34.5 -79.5zM125 0q-19 0 -33.5 14t-14.5 34v66q0 34 13.5 66.5t37.5 56.5q24 23 53 35.5t61 12.5t61.5 -12.5t53.5 -35.5q12 -12 21.5 -27.5t15.5 -31.5q-17 -20 -26.5 -44t-9.5 -51v-83h-233v0zM947 48q0 -19 -13.5 -33.5 t-34.5 -14.5h-246v82q0 24 -7.5 45t-19.5 39q15 52 58.5 84.5t97.5 32.5q34 0 63.5 -12.5t53.5 -35.5q23 -23 35.5 -53t12.5 -64v-70zM782 378q46 0 78.5 32t32.5 78t-32.5 78t-78.5 32q-45 0 -77.5 -32t-32.5 -78q-1 -46 32 -78t78 -32zM782 568q33 0 56 -23t23 -55 q0 -33 -23 -56t-56 -23q-32 0 -55 23t-23 56q-1 32 22.5 55t55.5 23zM426 362q0 -34 24 -58t57 -24q34 0 58 24t24 58q0 33 -24 57t-58 24q-33 -1 -57 -24.5t-24 -56.5zM555 362q0 -21 -14.5 -35.5t-34.5 -14.5q-21 0 -35.5 14.5t-14.5 35.5q0 20 14.5 34.5t35.5 14.5 q20 0 34.5 -14.5t14.5 -34.5zM501 651q2 -2 5.5 -3.5t5.5 -1.5q4 0 6.5 1.5t4.5 3.5l122 122q13 13 19.5 29.5t7.5 34.5q0 23 -11 43t-29 32q-26 18 -59.5 14.5t-57.5 -27.5l-3 -3l-5 5q-13 13 -29.5 20t-34.5 7q-17 0 -33 -6t-28 -18q-13 -12 -20 -28.5t-8 -35.5 q0 -19 7 -37.5t21 -32.5l119 -119v0zM403 880q9 7 19 11.5t21 4.5q12 0 22.5 -4.5t19.5 -13.5l16 -16q5 -4 11 -4t11 4l15 15q15 15 36.5 18t39.5 -9q12 -8 19 -20.5t7 -27.5q0 -12 -4.5 -22.5t-13.5 -18.5l-110 -112l-109 109q-9 8 -14 20.5t-5 25.5q1 12 6 22.5t13 17.5z " />
</svg>