<svg viewBox="0 0 1024 1024" xmlns="http://www.w3.org/2000/svg">
  <path transform="scale(1, -1) translate(0, -960)" fill="currentColor" d="M234 546q46 0 79.5 33t33.5 80t-33.5 80.5t-79.5 33.5q-47 0 -80.5 -33.5t-33.5 -80.5t33.5 -80t80.5 -33zM234 741q33 0 57 -24t24 -58q0 -33 -24 -57t-57 -24q-34 0 -58 24t-24 57q0 34 24 58t58 24v0zM933 421q-29 29 -65.5 44t-77.5 15q-62 0 -113 -35t-74 -91 q-19 16 -44 25.5t-53 9.5q-26 0 -48 -8t-40 -21q-8 17 -18.5 32.5t-23.5 28.5q-28 27 -64.5 43t-76.5 16q-39 1 -75.5 -14.5t-65.5 -43.5q-30 -30 -46 -69t-16 -81v-67q0 -34 24 -58t58 -24h796q34 0 58 24t24 58v73q0 41 -15 77.5t-44 65.5v0zM624 240v-85h-237v85 q0 49 34.5 83.5t84.5 34.5q49 0 83.5 -35t34.5 -83zM114 155q-21 0 -35.5 14.5t-14.5 35.5v67q0 35 14 68.5t40 59.5q24 24 54.5 37t62.5 13h1h1q33 0 63.5 -13t54.5 -37q13 -13 23 -28.5t16 -32.5q-17 -19 -27 -44.5t-10 -52.5v-85h-243v-2zM960 205q0 -21 -14.5 -35.5 t-35.5 -14.5h-254v85q0 25 -8 47.5t-21 40.5q16 54 60.5 87t101.5 33q33 0 64.5 -13t55.5 -37t36.5 -55t12.5 -65v-73h2zM790 546q47 0 80.5 33t33.5 80t-33.5 80.5t-80.5 33.5q-46 0 -79.5 -33.5t-33.5 -80.5t33.5 -80t79.5 -33zM790 741q34 0 58 -24t24 -58q0 -33 -24 -57 t-58 -24q-33 0 -57 24t-24 57q0 34 24 58t57 24v0zM507 445q35 0 59 24t24 59t-24 59t-59 24t-59 -24t-24 -59t24 -59t59 -24zM507 578q22 0 36.5 -15t14.5 -37q0 -21 -14.5 -36t-36.5 -15q-21 0 -36 15t-15 36q0 22 15 37t36 15z" />
</svg>