<svg viewBox="0 0 256 256" xmlns="http://www.w3.org/2000/svg">
  <path transform="scale(1, -1) translate(0, -256)" fill="currentColor" d="M60 108q13 0 22 9t9 21.5t-9 21.5t-21.5 9t-21.5 -9t-9 -21.5t9 -21.5t21 -9zM60 155q7 0 12 -5t5 -11.5t-5 -11.5t-12 -5t-11.5 5t-4.5 11.5t5 11.5t11 5zM232 83q-15 15 -36 15q-15 0 -27.5 -8t-19.5 -21q-10 7 -21.5 7t-21.5 -6q-3 7 -9 13q-15 15 -36 15h-1 q-20 0 -36 -15q-7 -8 -11.5 -18t-4.5 -21v-16q0 -10 6.5 -16.5t16.5 -6.5h193q10 0 16.5 7t6.5 16v18q1 10 -3 19.5t-12 17.5zM152 36v-17h-51v17q0 11 7.5 18.5t18 7.5t18 -7.5t7.5 -18.5zM31 19q-3 0 -6 2.5t-3 6.5v16q0 17 12 28.5t27.5 11.5t25.5 -11q5 -4 8 -12 q-8 -11 -8 -24v-18h-56zM234 28q0 -4 -3 -6.5t-6 -2.5h-59v18q0 12 -6 22q4 11 13.5 18t22.5 7q15 0 26.5 -11t11.5 -27v-18zM196 108q12 0 21 9t9 21.5t-9 21.5t-21.5 9t-21.5 -9t-9 -21.5t9 -21.5t22 -9zM196 155q6 0 11 -5t5 -12t-4.5 -11.5t-11.5 -4.5t-12 4.5t-5 11.5 t5 12t12 5zM104 106q0 -9 6.5 -16t16 -7t16.5 7t7 16.5t-7 16.5t-16.5 7t-16 -7t-6.5 -17zM136 106q0 -3 -2.5 -6t-6.5 -3t-6.5 3t-2.5 6.5t2.5 6.5t6 3t6.5 -3t3 -7zM123 177q2 -2 4.5 -2t4.5 2l31 30q7 8 7 19q0 6 -3 11.5t-9 10t-14.5 3.5t-15.5 -7q-7 7 -17 7 t-17.5 -6.5t-7.5 -18t8 -19.5zM103 234q3 3 8 3t8 -3l4 -4q2 -2 5 -2.5t5 2.5l4 3q3 3 7.5 4t7.5 -2q5 -4 5 -9t-3 -9l-26 -25l-25 24q-4 4 -4 9.5t4 8.5z" />
</svg>