<svg viewBox="0 0 1024 1024" xmlns="http://www.w3.org/2000/svg">
  <path transform="scale(1, -1) translate(0, -960)" fill="currentColor" d="M946 163l-109 51q47 58 72 129t25 147q0 90 -34 170q-35 80 -94.5 139.5t-139.5 93.5q-79 35 -170 35t-170 -35q-80 -34 -139.5 -93.5t-94.5 -139.5q-34 -80 -34 -170q0 -91 34 -171q35 -80 94.5 -139.5t139.5 -93.5q79 -35 170 -35q58 0 113.5 15.5t105.5 43.5l56 -121 q5 -10 13 -15.5t19 -5.5h3h4q12 2 19.5 11t8.5 23l5 86q0 1 1 2t2 1l87 5q12 1 21.5 9t11.5 20q3 12 -2.5 22.5t-17.5 15.5zM496 83q-84 0 -158 32t-129 87.5t-87 129.5t-32 158t32 158t87 129t129 87t158 32t158 -32t129 -87t87 -129t32 -158q0 -72 -24.5 -139.5 t-71.5 -121.5l-99 46q-9 5 -20 3t-20 -9q-8 -7 -9.5 -18t3.5 -22l41 -88q-48 -29 -100 -43.5t-106 -14.5v0zM931 128l-86 -5q-13 -1 -23 -10.5t-11 -22.5l-5 -87v-1.5t-3 -1.5q-2 0 -2.5 1l-0.5 1l-112 240l-0.5 1t0.5 2l1 0.5l1 0.5h0.5h0.5l240 -112l1 -1t1 -2 q1 -2 0 -2.5t-2 -0.5zM496 318q-7 0 -11.5 -4t-4.5 -12v-4q0 -8 4.5 -12t11.5 -4t11.5 4t4.5 12v4q0 6 -4.5 11t-11.5 5zM496 698q-36 0 -65.5 -21t-41.5 -56q-4 -10 -5.5 -19.5t-1.5 -19.5q0 -7 4.5 -11.5t11.5 -4.5q8 0 12 4.5t4 11.5q0 8 1.5 15t3.5 13q9 25 30.5 39.5 t48.5 14.5q33 0 58 -24t25 -59t-24.5 -59t-58.5 -24q-8 0 -12 -4.5t-4 -11.5v-104q0 -8 4 -12t12 -4q7 0 11.5 4t4.5 12v89q42 6 70.5 38.5t28.5 75.5q-3 49 -36.5 83t-80.5 34v0z" />
</svg>