<svg viewBox="0 0 256 256" xmlns="http://www.w3.org/2000/svg">
  <path transform="scale(1, -1) translate(0, -256)" fill="currentColor" d="M238 60l-24 11q11 14 16.5 31.5t5.5 35.5q0 31 -15 57t-41 41t-56 15t-56 -15t-41 -41t-15 -56.5t15 -56.5t41 -41t56 -15q29 0 54 14l12 -28q3 -7 11 -7l3 1q4 0 6.5 3.5t2.5 7.5l1 20l20 1q4 0 7 2.5t4 6.5t-1 7.5t-6 5.5zM124 40q-27 0 -49.5 13t-35.5 36t-13 49.5 t13 49.5t35.5 36t49.5 13t49.5 -13t35.5 -36t13 -50q0 -17 -5.5 -32.5t-16.5 -28.5l-22 11q-4 1 -7.5 0.5t-6 -3t-3.5 -6.5t1 -7l9 -20q-21 -12 -47 -12zM211 50q-5 0 -8 -3.5t-3 -7.5l-1 -13l-21 46l46 -22h-13zM124 98q-3 0 -5 -2t-2 -5v-1q0 -3 2 -5t5 -2t5 2t2 5v1 q0 3 -2 5t-5 2zM124 194q-10 0 -18 -6t-12 -16q-2 -5 -2 -9t2.5 -6t5.5 -2t5 2t2 5t1 6q2 5 6.5 8.5t11 3.5t11.5 -5.5t5 -12.5t-5 -12.5t-13 -5.5q-3 0 -5 -2t-2 -5v-26q0 -3 2 -5t5 -2t5.5 2t2.5 5v20q10 2 17 11t7 20q0 13 -9.5 22.5t-22.5 9.5z" />
</svg>