<svg viewBox="0 0 256 256" xmlns="http://www.w3.org/2000/svg">
  <path transform="scale(1, -1) translate(0, -256)" fill="currentColor" d="M128 251q-33 0 -61.5 -16.5t-45 -45t-16.5 -61.5t16.5 -61.5t45 -45t61.5 -16.5t61.5 16.5t45 45t16.5 61.5t-16.5 61.5t-45 45t-61.5 16.5zM128 19q-29 0 -54 14.5t-40 39.5t-15 55t15 54.5t39.5 39.5t54.5 15t55 -15t39.5 -40t14.5 -54.5t-14.5 -54.5t-39.5 -39.5 t-55 -14.5zM98 189q-10 0 -17 -7t-7 -17.5t7 -17.5t17.5 -7t17.5 7t7 17.5t-7.5 17.5t-17.5 7zM98 154q-4 0 -7 3.5t-3 7.5t3 7t7.5 3t7.5 -3t3 -7t-3 -7.5t-8 -3.5zM172 135h-39q-3 0 -5 -2t-2 -5v-64q0 -3 2 -5.5t5 -2.5t5 2.5t2 5.5v24h21q3 0 5 2t2 5t-2 5t-5 2h-21v20 h32q3 0 5.5 2t2.5 4.5t-2.5 4.5t-5.5 2z" />
</svg>