<svg viewBox="0 0 256 256" xmlns="http://www.w3.org/2000/svg">
  <path transform="scale(1, -1) translate(0, -256)" fill="currentColor" d="M244 242h-94q-11 0 -18 -7.5t-7 -18.5v-66h-23q-3 0 -5.5 -2t-2.5 -5t2.5 -5t5.5 -2h23v-115q0 -3 2 -5t5 -2t5 2t2 5v115h66q3 0 5 2.5t2 5.5t-2 5t-5 2h-66v65q0 5 3.5 8t7.5 3h94q3 0 5 2t2 5t-2 5.5t-5 2.5zM36 240q-13 0 -22 -8.5t-9 -21.5v-1q0 -12 9 -21t21.5 -9 t21.5 9t9 21v1q0 13 -9 21.5t-21 8.5zM52 209q0 -7 -5 -11.5t-11.5 -4.5t-11.5 4.5t-5 11.5v1q0 7 5 11.5t11.5 4.5t11.5 -4.5t5 -11.5v-1z" />
</svg>