<svg viewBox="0 0 256 256" xmlns="http://www.w3.org/2000/svg">
  <path transform="scale(1, -1) translate(0, -256)" fill="currentColor" d="M244 143l-86 63q-6 4 -12.5 4.5t-13 -2.5t-10 -9t-3.5 -13v-36l-76 56q-5 4 -12 4.5t-13 -2.5t-9.5 -9t-3.5 -13v-116q0 -7 3.5 -13t9.5 -9t11 -3q8 0 14 5l76 56v-36q0 -7 3.5 -13t10 -9t10.5 -3q8 0 14 5l86 63q8 5 8 14.5t-7 15.5zM35 62q-4 -4 -10 -1.5t-6 9.5v116 q0 7 6 9.5t10 -1.5l85 -61v-9zM235 124l-86 -62q-5 -4 -10.5 -1.5t-5.5 9.5v116q0 6 6 9q2 1 4.5 1t5.5 -2l86 -63q2 -1 2 -3.5t-2 -3.5z" />
</svg>