<svg viewBox="0 0 256 256" xmlns="http://www.w3.org/2000/svg">
  <path transform="scale(1, -1) translate(0, -256)" fill="currentColor" d="M216 174h-37v16q0 3 -2 5t-5 2h-120q-3 0 -5 -2t-2 -5t2 -5.5t5 -2.5h112v-94h-38q-2 8 -8.5 13.5t-15 5.5t-15 -5.5t-8.5 -13.5h-27q-3 0 -5 -2t-2 -5t2 -5t5 -2h29q3 -7 8.5 -11t12.5 -4t13 4t9 11h62q2 -7 8 -11t13 -4t13 4t9 11h15q3 0 5 2t2 5v59q0 14 -10 24 t-25 10zM103 74q-4 0 -7 2.5t-3 6.5t3 7t7 3t6.5 -3t2.5 -7t-2.5 -6.5t-6.5 -2.5zM208 74q-4 0 -7 2.5t-3 6.5t3 7t7 3t7 -3t3 -7t-3 -6.5t-7 -2.5zM237 88h-6q-2 8 -8 13.5t-14.5 5.5t-15 -5.5t-8.5 -13.5h-6v72h37q9 0 15 -6t6 -15v-51zM61 116q-2 -2 -2 -5t2 -5t4.5 -2 t4.5 2l23 22q2 3 2 5.5t-2 4.5l-23 23q-2 2 -4.5 2t-5 -2t-2.5 -5t2 -5l11 -11h-59q-3 0 -5 -2t-2 -5t2 -4.5t5 -1.5h59z" />
</svg>