<svg viewBox="0 0 1024 1024" xmlns="http://www.w3.org/2000/svg">
  <path transform="scale(1, -1) translate(0, -960)" fill="currentColor" d="M966 498l-342 251q-19 14 -42.5 15.5t-45.5 -9.5t-34 -31t-12 -44v-168l-324 237q-19 14 -42.5 16t-45.5 -10q-21 -11 -33.5 -31t-12.5 -42v-466q0 -24 12.5 -44t33.5 -31q10 -5 19.5 -7.5t19.5 -2.5q13 0 26 4t23 12l324 237v-168q0 -24 12 -44t34 -31q10 -5 19.5 -7.5 t18.5 -2.5q14 0 26.5 4t23.5 12l344 251q12 9 19 22.5t7 27.5q-2 14 -9 27.5t-19 22.5v0zM147 173q-12 -9 -26.5 -10t-27.5 5q-13 7 -21 19.5t-8 26.5v468q0 15 8 27t21 19t27.5 6t26.5 -11l343 -249v-50zM947 424l-342 -251q-12 -9 -26.5 -10t-28.5 5q-13 7 -20.5 19.5 t-7.5 26.5v466q0 16 7.5 27.5t20.5 18.5q6 3 12 5t12 2q9 0 16.5 -2.5t14.5 -7.5l344 -251q6 -5 9.5 -11t3.5 -13t-4.5 -13t-10.5 -11z" />
</svg>