<svg viewBox="0 0 256 256" xmlns="http://www.w3.org/2000/svg">
  <path transform="scale(1, -1) translate(0, -256)" fill="currentColor" d="M135 154v49h40q3 0 5 2t2 5t-2 5.5t-5 2.5h-40v26q0 3 -2 5t-5 2t-5 -2t-2 -5v-27h-39q-3 0 -5.5 -2t-2.5 -5t2.5 -5t5.5 -2h39v-49q-19 -2 -34.5 -12.5t-24 -27t-8.5 -36t10 -36.5t27 -27.5t37.5 -10.5t37.5 10.5t27 27.5t10 36.5t-9 36t-24.5 27t-34.5 12.5zM128 19 q-17 0 -30.5 8t-22 22t-8.5 30.5t8.5 30.5t22 22t30.5 8t30.5 -8t22 -22t8.5 -30.5t-8.5 -30.5t-22 -22t-30.5 -8z" />
</svg>