<svg viewBox="0 0 256 256" xmlns="http://www.w3.org/2000/svg">
  <path transform="scale(1, -1) translate(0, -256)" fill="currentColor" d="M244 121q3 0 5 2t2 5t-2 5t-5 2h-14v50h14q3 0 5 2t2 5t-2 5t-5 2h-14v25q0 4 -4 6l-32 17q-3 2 -6 0l-28 -15l-29 15q-3 2 -6 0l-29 -15l-28 15q-3 2 -6 0l-33 -17q-4 -2 -4 -6v-25h-13q-3 0 -5 -2t-2 -5t2 -5t5 -2h13v-50h-13q-3 0 -5 -2t-2 -5t2 -5t5 -2h13v-50h-13 q-3 0 -5 -2t-2 -5t2 -5t5 -2h13v-22q0 -11 8 -18.5t19 -7.5h152q11 0 18.5 7.5t7.5 18.5v22h14q3 0 5 2t2 5t-2 5t-5 2h-14v50h14zM39 35v185l25 12l25 -12v-197h-37q-6 0 -9.5 3.5t-3.5 8.5zM103 220l25 12l24 -12v-197h-49v197zM216 35q0 -5 -3.5 -8.5t-8.5 -3.5h-38v197 l25 12l25 -12v-185z" />
</svg>