<svg viewBox="0 0 1024 1024" xmlns="http://www.w3.org/2000/svg">
  <path transform="scale(1, -1) translate(0, -960)" fill="currentColor" d="M976 432q7 0 11.5 4.5t4.5 11.5t-4.5 11.5t-11.5 4.5h-69v224h69q7 0 11.5 4.5t4.5 11.5t-4.5 11.5t-11.5 4.5h-69v112q0 5 -2 8.5t-6 5.5l-126 66q-4 1 -7.5 1t-7.5 -1l-120 -61l-120 61q-3 1 -6.5 1t-7.5 -1l-120 -61l-120 61q-4 1 -7.5 1t-6.5 -1l-128 -66 q-4 -2 -6 -6t-2 -8v-112h-66q-7 0 -11.5 -4.5t-4.5 -11.5t4.5 -11.5t11.5 -4.5h66v-224h-66q-7 0 -11.5 -4.5t-4.5 -11.5t4.5 -11.5t11.5 -4.5h66v-224h-66q-7 0 -11.5 -4.5t-4.5 -11.5t4.5 -11.5t11.5 -4.5h66v-99q0 -39 27 -66t65 -27h610q38 0 65.5 27t27.5 66v99h67 q7 0 11.5 4.5t4.5 11.5t-4.5 11.5t-11.5 4.5h-69v224h69v0zM146 77v745l110 56l110 -56v-806h-160q-25 0 -42.5 18t-17.5 43v0zM398 822l111 56l110 -56v-806h-221v806v0zM875 77q0 -25 -17.5 -43t-43.5 -18h-161v806l110 56l111 -56v-745h1z" />
</svg>