<svg viewBox="0 0 1024 1024" xmlns="http://www.w3.org/2000/svg">
  <path transform="scale(1, -1) translate(0, -960)" fill="currentColor" d="M912 757h-104q-26 0 -45 -19t-19 -45v-152h-117v152q0 26 -18.5 45t-45.5 19h-104q-26 0 -45 -19t-19 -45v-152h-117v152q0 26 -18.5 45t-45.5 19h-102q-26 0 -45 -19t-19 -45v-491q0 -27 19 -45.5t45 -18.5h104q26 0 45 18.5t19 45.5v152h117v-152q0 -27 18.5 -45.5 t45.5 -18.5h104q26 0 45 18.5t19 45.5v152h117v-152q0 -27 18.5 -45.5t45.5 -18.5h102q26 0 45 18.5t19 45.5v491q0 26 -19 45t-45 19v0zM248 203q0 -13 -9.5 -22.5t-22.5 -9.5h-104q-13 0 -22.5 9.5t-9.5 22.5v490q0 13 9.5 22.5t22.5 9.5h104q13 0 22.5 -9.5t9.5 -22.5 v-490zM280 387v123h117v-123h-117zM597 203q0 -13 -9.5 -22.5t-22.5 -9.5h-104q-13 0 -22.5 9.5t-9.5 22.5v490q0 13 9.5 22.5t22.5 9.5h104q13 0 22.5 -9.5t9.5 -22.5v-490zM629 387v123h117v-123h-117zM944 203q0 -13 -9.5 -22.5t-22.5 -9.5h-104q-13 0 -22.5 9.5 t-9.5 22.5v490q0 13 9.5 22.5t22.5 9.5h104q13 0 22.5 -9.5t9.5 -22.5v-490z" />
</svg>