<svg viewBox="0 0 1024 1024" xmlns="http://www.w3.org/2000/svg">
  <path transform="scale(1, -1) translate(0, -960)" fill="currentColor" d="M678 616q70 0 118.5 48.5t48.5 117.5q0 70 -49.5 116t-117.5 46h-332q-70 0 -118.5 -48.5t-48.5 -117.5q0 -70 48.5 -118.5t118.5 -48.5q-70 0 -118.5 -48.5t-48.5 -117.5q0 -70 48.5 -118.5t118.5 -48.5q-70 0 -118.5 -48t-48.5 -118t49 -115t118 -45q68 0 117 48.5 t49 117.5v493h166v5zM678 616q-69 0 -117.5 -48.5t-48.5 -117.5q0 -70 48.5 -118.5t117.5 -48.5q70 0 118.5 48.5t48.5 118.5v0q-4 69 -51.5 117.5t-115.5 48.5z" />
</svg>