<svg viewBox="0 0 1024 1024" xmlns="http://www.w3.org/2000/svg">
  <path transform="scale(1, -1) translate(0, -960)" fill="currentColor" d="M917 843h-288l-47 61q-8 11 -20.5 17.5t-27.5 6.5h-336q-25 0 -42.5 -18t-17.5 -43v-150h-31q-24 0 -41.5 -18t-17.5 -43v-627q0 -25 17.5 -43t41.5 -18h808q25 0 43 18t18 43v753q0 26 -17.5 43.5t-41.5 17.5v0zM170 867q0 12 8 20.5t20 8.5h336q8 0 13.5 -3t9.5 -8 l51 -67q2 -3 5.5 -5t7.5 -2h296q12 0 20.5 -8.5t8.5 -20.5v-235h-405l-56 131q-7 17 -22.5 27t-33.5 10h-259v152v0zM944 29q0 -12 -8.5 -20.5t-20.5 -8.5h-808q-12 0 -20.5 8.5t-8.5 20.5v627q0 12 8.5 20.5t20.5 8.5h320q9 0 16 -4.5t10 -13.5l61 -141q2 -4 5.5 -6.5 t8.5 -2.5h416v-488z" />
</svg>