<svg viewBox="0 0 256 256" xmlns="http://www.w3.org/2000/svg">
  <path transform="scale(1, -1) translate(0, -256)" fill="currentColor" d="M203 251h-150q-8 0 -13.5 -5.5t-5.5 -13.5v-208q0 -8 5.5 -13.5t13.5 -5.5h150q8 0 13.5 5.5t5.5 13.5v208q0 8 -5.5 13.5t-13.5 5.5zM208 24q0 -2 -1.5 -3.5t-3.5 -1.5h-150q-2 0 -3.5 1.5t-1.5 3.5v208q0 2 1.5 3.5t3.5 1.5h150q2 0 3.5 -1.5t1.5 -3.5v-208zM167 161 q-3 13 -14 22t-25 9t-25 -9t-13 -22q-4 -19 10 -39q7 -9 18 -20l-26 -27q-2 -2 -2 -5t2 -5t4.5 -2t5.5 2l26 27l28 -27q2 -2 4.5 -2t4.5 2t2 5t-2 5l-27 27v0q13 13 18 20q14 21 11 39zM144 131q-7 -10 -16 -19l-3 3q-9 11 -13 16q-11 16 -9 27q2 9 9 14.5t16 5.5t16 -6 t9 -13.5t-2 -15.5q-2 -6 -7 -12z" />
</svg>