<svg viewBox="0 0 256 256" xmlns="http://www.w3.org/2000/svg">
  <path transform="scale(1, -1) translate(0, -256)" fill="currentColor" d="M233 204h-101l-12 34q-2 6 -7 9.5t-11 3.5h-79q-7 0 -12.5 -5.5t-5.5 -13.5v-209q0 -7 5.5 -12.5t12.5 -5.5h210q8 0 13.5 5.5t5.5 12.5v163q0 8 -5.5 13t-13.5 5zM238 24q0 -2 -1.5 -3.5t-3.5 -1.5h-210q-2 0 -3 1.5t-1 3.5v208q0 2 1 3.5t3 1.5h79q4 0 5 -3l13 -39 q1 -2 2.5 -3.5t4.5 -1.5h106q2 0 3.5 -1.5t1.5 -2.5v-162zM144 98l-9 -10v52q0 3 -2 5t-5 2t-5.5 -2t-2.5 -5v-52l-8 10q-3 2 -5.5 2t-5 -2t-2.5 -5t2 -5l21 -23q2 -2 5.5 -2t5.5 2l21 23q2 2 2 5t-2 5t-5 2t-5 -2z" />
</svg>