<svg viewBox="0 0 256 256" xmlns="http://www.w3.org/2000/svg">
  <path transform="scale(1, -1) translate(0, -256)" fill="currentColor" d="M165 140l-34 18q-3 2 -6 0l-34 -18q-3 -1 -3 -6v-19q0 -17 7.5 -32.5t21.5 -24.5l7 -5q2 -1 4.5 -1t3.5 1l8 5q13 9 21 24t8 33v19q0 5 -4 6zM155 115q0 -14 -6.5 -26t-17.5 -19l-3 -3l-3 2q-11 8 -17.5 20t-6.5 26v15l27 13l27 -13v-15zM232 204h-100l-12 34q-2 6 -7 9 t-11 3h-78q-8 0 -13.5 -5t-5.5 -13v-208q0 -7 5.5 -12.5t13.5 -5.5h209q7 0 12.5 5.5t5.5 12.5v162q0 8 -5.5 13t-13.5 5zM237 24q0 -2 -1 -3t-3 -1h-209q-2 0 -3.5 1t-1.5 3v208q0 2 1.5 3t3.5 1h79q3 0 4 -2l13 -39q1 -2 2.5 -3.5t4.5 -1.5h106q2 0 3 -1t1 -3v-162z" />
</svg>