<svg viewBox="0 0 1024 1024" xmlns="http://www.w3.org/2000/svg">
  <path transform="scale(1, -1) translate(0, -960)" fill="currentColor" d="M813 928h-600q-27 0 -45.5 -19t-18.5 -45v-832q0 -26 18.5 -45t45.5 -19h600q26 0 45 19t19 45v832q0 26 -19 45t-45 19zM845 32q0 -13 -9.5 -22.5t-22.5 -9.5h-600q-13 0 -22.5 9.5t-9.5 22.5v832q0 13 9.5 22.5t22.5 9.5h600q13 0 22.5 -9.5t9.5 -22.5v-832zM654 579 q-10 48 -51 80.5t-91 34.5q-50 -1 -91 -34t-51 -81q-8 -33 3 -70.5t38 -73.5q18 -24 38 -46.5t41 -42.5l-12 -12l-12 -12l-18 -18l-37 -37l-37 -37q-4 -4 -4 -10.5t4 -11.5q5 -5 11.5 -5t11.5 5q18 18 36.5 36t36.5 38l18 17l12 12t14 12l12.5 -12.5l12.5 -12.5l21 -21 l35 -35t35 -34q3 -2 5.5 -3.5t6.5 -1.5q3 0 5.5 1.5t5.5 3.5q5 5 5 11.5t-5 10.5q-18 17 -35.5 34.5t-35.5 34.5l-22 21q-6 6 -13 12t-13 14q21 20 41 42t38 47q27 36 38 73.5t3 70.5v0zM512 368q-19 19 -38.5 40.5t-36.5 45.5q-13 18 -28.5 50.5t-6.5 68.5q8 37 40 62.5 t70 26.5q40 -1 72 -26.5t40 -62.5q7 -36 -7.5 -68.5t-27.5 -50.5q-18 -24 -38 -45.5t-39 -40.5v0z" />
</svg>