<svg viewBox="0 0 1024 1024" xmlns="http://www.w3.org/2000/svg">
  <path transform="scale(1, -1) translate(0, -960)" fill="currentColor" d="M606 427h-17v50q0 33 -23 57t-54 24q-32 0 -54.5 -24t-22.5 -57v-50h-19q-26 0 -45 -18.5t-19 -45.5v-123q0 -26 19 -45t45 -19h190q27 0 45.5 19t18.5 45v123q0 27 -18 45.5t-46 18.5zM466 477q0 20 13 34.5t31 14.5t31.5 -14.5t13.5 -34.5v-50h-91v50h2zM638 240 q0 -13 -9 -22.5t-23 -9.5h-190q-13 0 -22.5 9.5t-9.5 22.5v123q0 13 9.5 22.5t22.5 9.5h190q14 0 23 -9.5t9 -22.5v-123zM931 742h-413l-49 144q-7 20 -23.5 31t-35.5 11h-317q-27 0 -45 -18t-18 -44v-837q0 -25 18 -44t45 -19h840q25 0 43.5 18t18.5 45v651q-1 26 -19 44 t-45 18v0zM962 30q0 -12 -9 -21t-22 -9h-838q-12 0 -21.5 8.5t-9.5 21.5v836q0 12 9 21t22 9h317q9 0 17 -5.5t11 -15.5l53 -155q1 -5 5.5 -8t9.5 -3h425q12 0 21.5 -8.5t9.5 -22.5v-648v0z" />
</svg>