<svg viewBox="0 0 1024 1024" xmlns="http://www.w3.org/2000/svg">
  <path transform="scale(1, -1) translate(0, -960)" fill="currentColor" d="M930 741h-412l-49 144q-6 19 -22.5 30t-35.5 11h-317q-26 0 -44 -18t-18 -44v-832q0 -25 18 -43.5t44 -18.5h837q25 0 44 18t19 44v648q-2 25 -20 43t-44 18zM960 32q0 -12 -8.5 -21t-21.5 -9h-836q-12 0 -21 8.5t-9 21.5v832q0 12 8.5 21t21.5 9h317q10 0 17.5 -5 t11.5 -14l53 -153q1 -5 5 -8.5t9 -3.5h424q12 0 21.5 -8.5t9.5 -21.5v-648h-2zM523 506q-5 4 -12 4t-12 -4l-85 -92q-4 -4 -4 -10.5t6 -11.5q5 -5 11.5 -4.5t10.5 6.5l58 62v-237q0 -7 4.5 -11.5t11.5 -4.5t11.5 4.5t4.5 11.5v234l56 -61q2 -2 5.5 -3.5t5.5 -1.5q3 0 6 1.5 t5 3.5q5 5 5.5 11.5t-3.5 10.5l-85 92v0z" />
</svg>