<svg viewBox="0 0 1024 1024" xmlns="http://www.w3.org/2000/svg">
  <path transform="scale(1, -1) translate(0, -960)" fill="currentColor" d="M813 928h-600q-27 0 -45.5 -19t-18.5 -45v-832q0 -26 18.5 -45t45.5 -19h600q26 0 45 19t19 45v832q0 26 -19 45t-45 19zM845 32q0 -13 -9.5 -22.5t-22.5 -9.5h-600q-13 0 -22.5 9.5t-9.5 22.5v832q0 13 9.5 22.5t22.5 9.5h600q13 0 22.5 -9.5t9.5 -22.5v-832zM634 472 h-106v104q0 7 -4.5 11.5t-11.5 4.5t-11.5 -4.5t-4.5 -11.5v-106h-106q-7 0 -11.5 -4t-4.5 -12q0 -7 4.5 -11.5t11.5 -4.5h106v-105q0 -7 4.5 -11.5t11.5 -4.5t11.5 4.5t4.5 11.5v105h106q7 0 11.5 4.5t4.5 11.5q0 8 -5 13t-11 5z" />
</svg>