<svg viewBox="0 0 256 256" xmlns="http://www.w3.org/2000/svg">
  <path transform="scale(1, -1) translate(0, -256)" fill="currentColor" d="M203 251h-150q-8 0 -13.5 -5.5t-5.5 -13.5v-208q0 -8 5.5 -13.5t13.5 -5.5h150q8 0 13.5 5.5t5.5 13.5v208q0 8 -5.5 13.5t-13.5 5.5zM208 24q0 -2 -1.5 -3.5t-3.5 -1.5h-150q-2 0 -3.5 1.5t-1.5 3.5v208q0 2 1.5 3.5t3.5 1.5h150q2 0 3.5 -1.5t1.5 -3.5v-208zM158 137 h-23v23q0 3 -2 5t-5 2t-5 -2t-2 -5v-23h-23q-3 0 -5 -2t-2 -5t2 -5.5t5 -2.5h23v-23q0 -3 2 -5t5 -2t5.5 2t2.5 5v23h23q3 0 5 2.5t2 5.5t-2.5 5t-5.5 2z" />
</svg>