<svg viewBox="0 0 1024 1024" xmlns="http://www.w3.org/2000/svg">
  <path transform="scale(1, -1) translate(0, -960)" fill="currentColor" d="M301 514h307q7 0 11.5 4t4.5 12q0 7 -4.5 11.5t-11.5 4.5h-307q-7 0 -11.5 -4.5t-4.5 -11.5q0 -8 4.5 -12t11.5 -4zM301 344h307q7 0 11.5 4.5t4.5 11.5t-4.5 11.5t-11.5 4.5h-307q-7 0 -11.5 -4.5t-4.5 -11.5t4.5 -11.5t11.5 -4.5zM723 206h-422q-7 0 -11.5 -4t-4.5 -12 q0 -7 4.5 -11.5t11.5 -4.5h424q7 0 11.5 4.5t4.5 11.5q0 8 -5.5 12t-12.5 4zM930 741h-412l-49 144q-6 19 -22.5 30t-35.5 11h-317q-26 0 -44 -18t-18 -44v-832q0 -25 18 -43.5t44 -18.5h837q25 0 44 18t19 44v648q-2 25 -20 43t-44 18zM960 32q0 -12 -8.5 -21t-21.5 -9 h-836q-12 0 -21 8.5t-9 21.5v832q0 12 8.5 21t21.5 9h317q10 0 17.5 -5t11.5 -14l53 -153q1 -5 5 -8.5t9 -3.5h424q12 0 21.5 -8.5t9.5 -21.5v-648h-2z" />
</svg>