<svg viewBox="0 0 256 256" xmlns="http://www.w3.org/2000/svg">
  <path transform="scale(1, -1) translate(0, -256)" fill="currentColor" d="M75 142h77q3 0 5 2t2 5t-2 5t-5 2h-77q-3 0 -5 -2.5t-2 -5.5t2 -4.5t5 -1.5zM75 99h77q3 0 5 2t2 5t-2 5t-5 2h-77q-3 0 -5 -2t-2 -5t2 -5t5 -2zM181 71h-106q-3 0 -5 -2t-2 -5t2 -5.5t5 -2.5h106q3 0 5 2.5t2 5.5t-2 5t-5 2zM232 204h-100l-12 34q-2 6 -7 9t-11 3h-78 q-8 0 -13.5 -5t-5.5 -13v-208q0 -7 5.5 -12.5t13.5 -5.5h209q7 0 12.5 5.5t5.5 12.5v162q0 8 -5.5 13t-13.5 5zM237 24q0 -2 -1 -3t-3 -1h-209q-2 0 -3.5 1t-1.5 3v208q0 2 1.5 3t3.5 1h79q3 0 4 -2l13 -39q1 -2 2.5 -3.5t4.5 -1.5h106q2 0 3 -1t1 -3v-162z" />
</svg>