<svg viewBox="0 0 256 256" xmlns="http://www.w3.org/2000/svg">
  <path transform="scale(1, -1) translate(0, -256)" fill="currentColor" d="M230 251h-94q-9 0 -16 -7t-7 -17v-37h-87q-10 0 -17 -7t-7 -17v-89q0 -7 6 -13l54 -54q5 -5 13 -5h45q10 0 17 7t7 16v72l29 -29q5 -5 13 -5h45q9 0 16 6.5t7 16.5v139q0 9 -7 16t-17 7zM26 66h33q2 0 3 -1.5t1 -2.5v-33zM129 28q0 -4 -2.5 -6.5t-6.5 -2.5h-43v43 q0 7 -5 12.5t-13 5.5h-43v87q0 4 3 6.5t7 2.5h100q1 0 2.5 -1t1.5 -3v-144h-1zM143 120v7h26q2 0 3 -1.5t1 -2.5v-33zM240 89q0 -4 -3 -6.5t-7 -2.5h-42v42q0 8 -5.5 13t-12.5 5h-26v32q0 7 -5 12t-12 6v38q0 4 3 6.5t7 2.5h94q4 0 6.5 -2.5t2.5 -6.5v-139z" />
</svg>