<svg viewBox="0 0 1024 1024" xmlns="http://www.w3.org/2000/svg">
  <path transform="scale(1, -1) translate(0, -960)" fill="currentColor" d="M654 486l-134 69q-4 1 -7.5 1t-6.5 -1l-135 -69q-3 -2 -5.5 -5.5t-2.5 -8.5v-77q0 -66 30 -124t84 -95l29 -19q2 -1 4.5 -2t4.5 -1q3 0 5 1t5 2l29 19q52 37 82.5 95t30.5 124v77q-3 5 -6 8.5t-7 5.5v0zM630 397q0 -58 -26 -109t-73 -83v0v0l-19 -15l-19 13 q-47 33 -73 84t-26 108v67l118 61l118 -61v-65zM930 741h-412l-49 144q-6 19 -22.5 30t-35.5 11h-317q-26 0 -44 -18t-18 -44v-832q0 -25 18 -43.5t44 -18.5h837q25 0 44 18t19 44v648q-2 25 -20 43t-44 18zM960 32q0 -12 -8.5 -21t-21.5 -9h-836q-12 0 -21 8.5t-9 21.5v832 q0 12 8.5 21t21.5 9h317q10 0 17.5 -5t11.5 -14l53 -153q1 -5 5 -8.5t9 -3.5h424q12 0 21.5 -8.5t9.5 -21.5v-648h-2z" />
</svg>