<svg viewBox="0 0 256 256" xmlns="http://www.w3.org/2000/svg">
  <path transform="scale(1, -1) translate(0, -256)" fill="currentColor" d="M152 126h-2v9q0 10 -6.5 17t-16 7t-16 -7t-6.5 -17v-9h-1q-8 0 -13.5 -6t-5.5 -14v-30q0 -8 5.5 -13.5t13.5 -5.5h48q7 0 13 5.5t6 13.5v31q0 8 -5.5 13.5t-13.5 5.5zM120 135q0 4 2 7t6 3t6 -3t2 -7v-9h-16v9zM157 76q0 -2 -1.5 -3.5t-3.5 -1.5h-48q-2 0 -3.5 1.5 t-1.5 3.5v31q0 2 1.5 3.5t3.5 1.5h48q2 0 3.5 -1.5t1.5 -3.5v-31zM233 204h-101l-12 34q-2 6 -7 9.5t-11 3.5h-79q-7 0 -12.5 -5.5t-5.5 -13.5v-209q0 -7 5.5 -12.5t12.5 -5.5h210q8 0 13.5 5.5t5.5 12.5v163q0 8 -5.5 13t-13.5 5zM238 24q0 -2 -1.5 -3.5t-3.5 -1.5h-210 q-2 0 -3 1.5t-1 3.5v208q0 2 1 3.5t3 1.5h79q4 0 5 -3l13 -39q1 -2 2.5 -3.5t4.5 -1.5h106q2 0 3.5 -1.5t1.5 -2.5v-162z" />
</svg>