<svg viewBox="0 0 1024 1024" xmlns="http://www.w3.org/2000/svg">
  <path transform="scale(1, -1) translate(0, -960)" fill="currentColor" d="M920 928h-374q-34 0 -58 -24t-24 -58v-160h-360q-34 0 -58 -24t-24 -57v-357q0 -12 5 -23.5t13 -19.5l216 -219q8 -9 19.5 -13.5t23.5 -4.5h181q34 0 58 24t24 58v315l136 -136q8 -9 19.5 -13.5t23.5 -4.5h181q33 0 57 24t24 58v553q0 34 -24 58t-59 24v0zM75 211h160 q12 0 20.5 -8.5t8.5 -20.5v-160l-189 189v0zM530 50q0 -21 -15 -35.5t-35 -14.5h-182h-1h-1v182q0 26 -18 43.5t-43 17.5h-182v1v1v358q0 21 14.5 35.5t34.5 14.5h399q12 0 20.5 -8.5t8.5 -20.5v-574v0zM562 411v43h116q12 0 20.5 -8t8.5 -20v-160l-145 145v0zM971 293 q0 -21 -14.5 -35.5t-34.5 -14.5h-181h-1h-1v183q0 25 -17.5 42.5t-43.5 17.5h-116v138q0 25 -18 43t-43 18h-7v160q0 20 15 34.5t35 14.5h376q20 0 35 -14.5t15 -34.5v-552h1z" />
</svg>