<svg viewBox="0 0 256 256" xmlns="http://www.w3.org/2000/svg">
  <path transform="scale(1, -1) translate(0, -256)" fill="currentColor" d="M90 192q-12 0 -20 -8.5t-8 -19.5t8 -19.5t19.5 -8.5t19.5 8.5t8 19.5t-8 19.5t-19 8.5zM90 150q-6 0 -10 4t-4 9.5t4 9.5t9.5 4t9.5 -4t4 -9.5t-4 -9.5t-9 -4zM166 136q12 0 20 8t8 19.5t-8 19.5t-19.5 8t-19.5 -8t-8 -19.5t8 -19.5t19 -8zM166 178q6 0 10 -4t4 -10 t-4 -10t-9.5 -4t-9.5 4t-4 9.5t4 10t9 4.5zM90 120q-12 0 -20 -8t-8 -19.5t8 -19.5t19.5 -8t19.5 8t8 19.5t-8 19.5t-19 8zM90 78q-6 0 -10 4t-4 10t4 10t9.5 4t9.5 -4t4 -10t-4 -10t-9 -4zM166 64q12 0 20 8.5t8 19.5t-8 19.5t-19.5 8.5t-19.5 -8t-8 -19.5t8 -20t19 -8.5z M166 106q6 0 10 -4t4 -9.5t-4 -9.5t-9.5 -4t-9.5 4t-4 9.5t4 9.5t9 4zM244 19h-59q30 16 48 45t18 63t-16.5 62.5t-45 45t-61.5 16.5t-61.5 -16.5t-45 -45t-16.5 -61.5t16.5 -61.5t45 -45t61.5 -16.5h116q3 0 5 2t2 5t-2 5t-5 2zM19 128q0 30 15 54.5t39.5 39.5t54.5 15 t55 -15t39.5 -40t14.5 -54.5t-14.5 -54.5t-39.5 -39.5t-54.5 -14.5t-54.5 14.5t-40 39.5t-15 55z" />
</svg>