<svg viewBox="0 0 1024 1024" xmlns="http://www.w3.org/2000/svg">
  <path transform="scale(1, -1) translate(0, -960)" fill="currentColor" d="M358 690q-40 0 -69.5 -29.5t-29.5 -70.5q0 -40 29.5 -69.5t69.5 -29.5q41 0 70.5 29.5t29.5 69.5q0 41 -29 70.5t-71 29.5zM358 523q-27 0 -47 20t-20 47q0 28 20 48t47 20q28 0 48 -20t20 -48q0 -27 -19.5 -47t-48.5 -20zM666 491q40 0 69.5 29.5t29.5 69.5 q0 41 -29.5 70.5t-69.5 29.5q-41 0 -70.5 -29.5t-29.5 -70.5q0 -40 29 -69.5t71 -29.5zM666 658q27 0 47 -20t20 -48q0 -27 -20 -47t-47 -20q-28 0 -48 20t-20 47q0 28 19.5 48t48.5 20zM358 405q-40 0 -69.5 -29.5t-29.5 -69.5q0 -41 29.5 -70.5t69.5 -29.5q41 0 70.5 29.5 t29.5 70.5q0 40 -29 69.5t-71 29.5zM358 238q-27 0 -47 20t-20 48q0 27 20 47t47 20q28 0 48 -20t20 -47q0 -28 -19.5 -48t-48.5 -20zM666 206q40 0 69.5 29.5t29.5 70.5q0 40 -29.5 69.5t-69.5 29.5q-41 0 -70.5 -29.5t-29.5 -69.5q0 -41 29 -70.5t71 -29.5zM666 373 q27 0 47 -20t20 -47q0 -28 -20 -48t-47 -20q-28 0 -48 20t-20 48q0 27 19.5 47t48.5 20zM976 0h-291q67 26 123 70q57 45 97.5 103t63.5 128t23 147q0 99 -38 186q-38 88 -103 153t-153 103q-87 38 -186 38t-186 -38q-88 -38 -153 -103t-103 -153q-38 -87 -38 -186t38 -186 q38 -88 103 -153t153 -103q87 -38 186 -38h464q7 0 11.5 4.5t4.5 11.5t-4.5 11.5t-11.5 4.5zM64 448q0 92 35 174q36 81 96.5 142t142.5 97q82 35 174 35t174 -35q81 -36 142 -96.5t97 -142.5q35 -82 35 -174t-35 -174q-36 -81 -96.5 -142t-142.5 -97q-82 -35 -174 -35 t-174 35q-81 36 -142 97t-97 142q-35 82 -35 174z" />
</svg>