<svg viewBox="0 0 1024 1024" xmlns="http://www.w3.org/2000/svg">
  <path transform="scale(1, -1) translate(0, -960)" fill="currentColor" d="M400 354h2.5h2.5l261 75l-39 -69q-3 -6 -1 -12.5t8 -9.5q2 -2 3.5 -2h4.5q4 0 8 2t6 6l58 104q1 2 1.5 5.5t-0.5 7.5q-1 3 -2.5 5.5t-5.5 3.5l-107 60q-6 3 -12.5 1t-9.5 -8q-4 -6 -2 -12.5t8 -9.5l75 -42l-264 -75q-6 -2 -9 -7.5t-2 -11.5q2 -5 6.5 -8t9.5 -3v0z M536 659h-104q-7 0 -11.5 -4.5t-4.5 -11.5t4.5 -11.5t11.5 -4.5h80v-32q0 -7 4.5 -11.5t11.5 -4.5t11.5 4.5t4.5 11.5v32q26 4 45 23.5t19 47.5q0 30 -21 51t-51 21h-48q-17 0 -28.5 11.5t-11.5 28.5q0 15 11.5 26.5t28.5 11.5h104q7 0 11.5 4.5t4.5 11.5t-4.5 11.5 t-11.5 4.5h-48v32q0 7 -4.5 11.5t-11.5 4.5t-11.5 -4.5t-4.5 -11.5v-32h-24q-30 0 -51 -21t-21 -49q0 -29 21 -50.5t51 -21.5h48q17 0 28.5 -12t11.5 -28t-11.5 -27.5t-28.5 -11.5zM867 789h-142q-7 0 -11.5 -4.5t-4.5 -11.5t4.5 -11.5t11.5 -4.5h142q19 0 33 -13.5 t14 -33.5v-454q0 -19 -14 -32.5t-33 -13.5h-355v0v0v0v0h-355q-19 0 -33 13.5t-14 32.5v453q0 19 14 32.5t33 13.5h142q7 0 11.5 4.5t4.5 11.5t-4.5 11.5t-11.5 4.5h-142q-33 0 -56 -23t-23 -55v-453q-1 -32 22 -56t57 -24h339v-176h-139q-7 0 -11.5 -4.5t-4.5 -11.5 t4.5 -11.5t11.5 -4.5h310q7 0 11.5 4.5t4.5 11.5t-4.5 11.5t-11.5 4.5h-139v176h339q33 0 56 23t23 55v455q1 33 -22 56.5t-57 23.5z" />
</svg>