<svg viewBox="0 0 256 256" xmlns="http://www.w3.org/2000/svg">
  <path transform="scale(1, -1) translate(0, -256)" fill="currentColor" d="M100 102h2l58 17l-6 -11q-1 -2 0 -5t3 -5h3q5 0 6 3l15 26q1 3 0.5 5.5t-3.5 3.5l-26 15q-3 2 -6 1t-4.5 -3.5t-0.5 -5.5t4 -4l12 -7l-59 -17q-2 -1 -3.5 -3.5t-1 -5t2.5 -3.5t4 -1zM134 184h-26q-3 0 -5 -2t-2 -5t2 -5t5 -2h17v-5q0 -3 2 -5t5 -2t5 2t2 5v5 q7 2 11.5 7.5t4.5 13.5t-6 14t-15 6h-12q-3 0 -4.5 2t-1.5 5t2 5t4 2h26q3 0 5 2t2 5t-2 5t-5 2h-9v5q0 3 -2 5t-5 2t-5 -2t-2 -5v-5h-3q-9 0 -15 -6t-6 -14.5t6 -14.5t15 -6h12q3 0 5 -2t2 -5t-2 -5t-5 -2zM217 216h-36q-3 0 -5 -2t-2 -5t2 -5t5 -2h36q3 0 6 -3t3 -6v-113 q0 -4 -3 -6.5t-6 -2.5h-178q-3 0 -6 2.5t-3 6.5v113q0 4 3 6.5t6 2.5h36q3 0 5 2t2 5t-2.5 5t-5.5 2h-35q-9 0 -16 -6.5t-7 -16.5v-113q0 -9 7 -16t16 -7h82v-38h-31q-3 0 -5.5 -2t-2.5 -5t2.5 -5t5.5 -2h77q3 0 5 2t2 5t-2 5t-5 2h-31v38h82q9 0 15.5 6.5t6.5 16.5v113 q0 10 -7 16.5t-16 6.5z" />
</svg>