<svg viewBox="0 0 256 256" xmlns="http://www.w3.org/2000/svg">
  <path transform="scale(1, -1) translate(0, -256)" fill="currentColor" d="M104 204q-10 0 -19 -3.5t-15 -10.5q-15 -14 -14.5 -34t14.5 -34t34 -14q9 0 18 3.5t16 10.5q14 14 14 34q0 9 -4 18t-10 16q-14 14 -34 14zM128 132q-10 -10 -24 -10t-24 10t-10 24t10 24t24 10t24 -10t10 -24.5t-10 -23.5zM246 17l-72 74q17 18 22.5 42t-1 48t-23.5 42 q-14 13 -31.5 20.5t-36.5 7.5t-36 -7.5t-31 -20.5q-18 -18 -24.5 -43t0 -49.5t24.5 -42.5q14 -13 31.5 -20.5t35.5 -7.5q16 0 31.5 5.5t28.5 15.5l72 -74q1 -2 4.5 -2t5.5 2t1.5 5t-1.5 5zM46 98q-15 16 -20.5 37t0 42t20.5 36q12 12 26.5 18t31 6t31 -6t26.5 -18 q15 -15 20.5 -36t0 -42t-21 -36.5t-36 -21t-41.5 0t-37 20.5z" />
</svg>