<svg viewBox="0 0 1024 1024" xmlns="http://www.w3.org/2000/svg">
  <path transform="scale(1, -1) translate(0, -960)" fill="currentColor" d="M414 741q-36 0 -69 -14t-59 -39q-25 -25 -38.5 -58.5t-13.5 -69.5t13.5 -69.5t38.5 -58.5q27 -26 60.5 -39.5t67.5 -13.5q35 0 68.5 13.5t59.5 39.5q26 25 39.5 58.5t13.5 69.5t-13.5 69.5t-39.5 58.5q-25 25 -57.5 39t-70.5 14zM520 454q-43 -43 -105.5 -43t-105.5 43 q-43 44 -43 106t43 106q21 21 48 32t57 11t57 -11.5t49 -31.5q22 -22 32.5 -49t10.5 -57q1 -30 -10 -57.5t-33 -48.5zM973 -5l-296 304q53 54 80 122t26.5 138.5t-27.5 138.5t-81 121q-51 53 -118.5 81t-142.5 28q-74 0 -141 -28t-119 -79q-54 -54 -81 -122t-27 -139 t27 -139t81 -122t122 -80.5t138 -26.5q64 0 125.5 21.5t113.5 64.5l297 -305q3 -3 6 -4t6 -1t5.5 1t5.5 4q5 5 5 11t-5 11v0zM178 322q-50 49 -74 111q-25 62 -25 127t25 127q24 62 74 111q48 48 109.5 74t128.5 26t128.5 -26t109.5 -74q50 -49 74 -111q25 -62 25 -126.5 t-25 -126.5q-24 -63 -74 -112q-49 -50 -112 -74q-62 -25 -126.5 -25t-126.5 25q-62 24 -111 74v0z" />
</svg>