<svg viewBox="0 0 256 256" xmlns="http://www.w3.org/2000/svg">
  <path transform="scale(1, -1) translate(0, -256)" fill="currentColor" d="M156 214h-11q-3 0 -4.5 -1.5t-2.5 -3.5l-4 -15h-60q-3 0 -5.5 -3t-1.5 -6l7 -30q1 -3 3 -4.5t4 -1.5h52q2 0 4 1.5t3 3.5l11 46h5q3 0 5 2t2 5t-2 5t-5 2zM127 164h-41l-4 16h49zM89 142q-4 0 -7.5 -3t-3.5 -7.5t3 -7t7.5 -2.5t7.5 3t3 7t-3 7t-7 3zM124 142q-4 0 -7 -3 t-3 -7.5t3 -7t7.5 -2.5t7.5 3t3 7t-3 7t-8 3zM251 34l-11 64q-3 18 -15 28v96q0 9 -6 15t-15 6h-178q-9 0 -15 -6t-6 -15v-115q0 -9 6 -15t15 -6h121l11 -67q0 -2 2 -4t5 -2h1q3 1 4.5 3t1.5 5l-10 65q-3 13 5 24t21.5 13.5t24.5 -5.5t14 -22l10 -64q1 -3 3 -4.5t5 -1 t4.5 2.5t1.5 5zM187 138q-15 -3 -25.5 -13t-13.5 -25h-122q-3 0 -5 2.5t-2 4.5v115q0 3 2 5t5 2h178q3 0 5 -2t2 -5v-87q-11 4 -24 3zM215 93q-1 9 -8 14t-15.5 3.5t-14 -8.5t-3.5 -15l3 -23q0 -3 2.5 -4.5t4.5 -1.5l29 4q3 1 4.5 3.5t0.5 4.5zM190 73l-2 15q-1 3 1 5.5 t5 2.5h1q2 0 4 -1.5t3 -4.5l2 -15z" />
</svg>