<svg viewBox="0 0 1024 1024" xmlns="http://www.w3.org/2000/svg">
  <path transform="scale(1, -1) translate(0, -960)" fill="currentColor" d="M624 781h-45q-6 0 -10.5 -3.5t-5.5 -9.5l-17 -69h-250q-4 0 -7 -1.5t-6 -4.5q-2 -3 -3 -7t0 -6l29 -122q1 -6 5.5 -9t10.5 -3h206q6 0 10.5 3t5.5 9l45 191h32q7 0 11.5 4.5t4.5 11.5t-4.5 11.5t-11.5 4.5zM517 578h-181l-21 89h223zM355 522q-24 0 -40.5 -17t-16.5 -41 t16.5 -41t40.5 -17t41 17t17 41t-17 41t-41 17zM355 438q-11 0 -18 7.5t-7 18.5t7 18.5t18 7.5t18.5 -7.5t7.5 -18.5t-7.5 -18.5t-18.5 -7.5zM498 522q-24 0 -41 -17t-17 -41t17 -41t41 -17t40.5 17t16.5 41t-17.5 41t-39.5 17zM498 438q-11 0 -18.5 7.5t-7.5 18.5t7.5 18.5 t18.5 7.5q10 0 17.5 -7.5t7.5 -18.5t-8 -18.5t-17 -7.5zM950 328q-4 34 -21 61t-41 48v387q0 29 -21 49.5t-49 20.5h-716q-28 0 -49 -20.5t-21 -49.5v-461q0 -29 21 -49.5t49 -20.5h498q0 -5 1 -10t1 -11l41 -258q1 -6 5.5 -9t10.5 -3h1.5h1.5q6 1 10 6t3 11l-41 258 q-2 8 -2 15.5v14.5v0v0v0v0q2 49 36 87.5t86 47.5q58 9 106.5 -26.5t57.5 -93.5l42 -256q1 -6 6.5 -10t11.5 -3t10 6t2 11l-40 258v0zM749 475q-59 -9 -99 -51.5t-48 -98.5h-500q-15 0 -26.5 11.5t-11.5 26.5v461q0 16 11.5 27t26.5 11h714q16 0 27 -11t11 -27v-366 q-22 12 -49 16.5t-56 0.5zM765 366q-30 -4 -47 -28.5t-12 -54.5l14 -91q1 -6 5.5 -9.5t10.5 -3.5h1.5h1.5l111 18q3 0 5.5 2t5.5 4q2 3 2.5 6t0.5 5l-16 93q-5 29 -29 46.5t-54 12.5zM749 214l-11 74q-3 17 6.5 30.5t26.5 15.5h3h4q14 0 25.5 -9.5t14.5 -23.5l12 -75 l-81 -12v0z" />
</svg>