<svg viewBox="0 0 1024 1024" xmlns="http://www.w3.org/2000/svg">
  <path transform="scale(1, -1) translate(0, -960)" fill="currentColor" d="M958 408l-120 120q-4 5 -10.5 5t-11.5 -5t-5 -11.5t5 -10.5l120 -120q12 -12 18 -27t6 -31q0 -17 -6 -32t-18 -26q-12 -10 -27 -17t-31 -7t-31 6t-26 18l-59 60q4 8 6.5 17.5t2.5 18.5q0 16 -5.5 31t-16.5 25l-378 373l63 63q3 3 4 7.5t-1 9.5q-3 5 -7 7.5t-9 2.5 l-351 -24q-6 0 -10 -4.5t-4 -10.5l-24 -350q0 -5 2.5 -9.5t7.5 -6.5q1 -1 3 -1.5t3 -0.5q4 0 6.5 1.5t4.5 3.5l75 75v-1l-12 -13l376 -374q12 -12 26 -17.5t30 -5.5q4 0 9 1l10 2l133 -132q2 -3 5 -4t6 -1q2 0 5.5 1t5.5 4q5 4 5 10.5t-5 11.5l-126 126q1 2 3 3t3 2l133 133 l56 -56q15 -16 36 -25t44 -9t43.5 8.5t36.5 25.5q15 17 24 37t9 43q2 22 -6.5 42.5t-25.5 37.5v0zM86 830l295 21l-314 -315l19 294v0zM349 773l376 -376q6 -6 9.5 -14t3.5 -17l-592 204l203 203v0zM586 192q-14 -13 -33.5 -13t-32.5 13l-326 326l534 -182q-1 -1 -2 -2.5 t-1 -2.5l-139 -139v0z" />
</svg>