<svg viewBox="0 0 256 256" xmlns="http://www.w3.org/2000/svg">
  <path transform="scale(1, -1) translate(0, -256)" fill="currentColor" d="M163 198h-23l5 6q1 1 1 4t-1 4l-10 12l12 15q2 2 2 5t-2.5 5t-5 2t-5.5 -3l-16 -19q-1 -2 -1 -4.5t1 -4.5l10 -12l-8 -10h-29q-8 0 -13.5 -6t-5.5 -14v-154q0 -8 5.5 -13.5t13.5 -5.5h70q8 0 13.5 5.5t5.5 13.5v155q0 8 -5.5 13.5t-13.5 5.5zM88 144h80v-86h-80v86z M93 184h70q2 0 3.5 -1.5t1.5 -4.5v-20h-80v20q0 3 1.5 4.5t3.5 1.5zM163 19h-70q-2 0 -3.5 1.5t-1.5 3.5v21h80v-21q0 -2 -1.5 -3.5t-3.5 -1.5z" />
</svg>