<svg viewBox="0 0 1024 1024" xmlns="http://www.w3.org/2000/svg">
  <path transform="scale(1, -1) translate(0, -960)" fill="currentColor" d="M958 408l-120 120q-4 5 -10.5 5t-11.5 -5t-5 -11.5t5 -10.5l120 -120q12 -12 18 -27t6 -31q0 -17 -6 -32t-18 -26q-12 -10 -27 -17t-31 -7t-31 6t-26 18l-59 60q4 8 6.5 17.5t2.5 18.5q0 16 -5.5 31t-16.5 25l-378 373l63 63q3 3 4 7.5t-1 9.5q-3 5 -7 7.5t-9 2.5 l-351 -24q-6 0 -10 -4.5t-4 -10.5l-24 -350q0 -5 2.5 -9.5t7.5 -6.5q1 -1 3 -1.5t3 -0.5q4 0 6.5 1.5t4.5 3.5l61 61l378 -374q12 -12 26 -17.5t30 -5.5q4 0 9 1l10 2l133 -132q2 -3 5 -4t6 -1q2 0 5.5 1t5.5 4q5 4 5 10.5t-5 11.5l-126 126q1 2 3 3t3 2l133 133l56 -56 q15 -16 36 -25t44 -9t43.5 8.5t36.5 25.5q15 17 24 37t9 43q2 22 -6.5 42.5t-25.5 37.5zM429 333l-5 -45l-110 110l6 74q1 17 13 28.5t29 13.5l36 3q29 2 48.5 22.5t22.5 47.5l5 59l110 -110l-8 -85q-1 -17 -13 -28.5t-29 -12.5l-36 -4q-27 -3 -47 -23.5t-22 -49.5v0z M86 830l295 21l-314 -315l19 294v0zM349 773l97 -98l-8 -85q-1 -16 -12.5 -28t-28.5 -13l-37 -3q-29 -3 -48.5 -23t-21.5 -48l-5 -46l-141 139l205 205v0zM586 192q-14 -13 -33.5 -13t-32.5 13l-67 66l6 72q1 16 13 28t29 13l37 3q28 3 48 23t22 48l5 59l109 -109 q7 -7 10.5 -15.5t3.5 -17.5q0 -10 -3.5 -18.5t-10.5 -15.5l-136 -136v0z" />
</svg>