<svg viewBox="0 0 1024 1024" xmlns="http://www.w3.org/2000/svg">
  <path transform="scale(1, -1) translate(0, -960)" fill="currentColor" d="M986 493q-2 7 -2 10v3l-2 -3.5t-8 -9.5q-1 17 -4 32.5t-7 31.5q-5 20 -12.5 38.5t-16.5 36.5q-4 12 -12 23.5t-15 21.5q-1 3 -4 7.5t-7 8.5q-13 21 -29 38.5t-35 42.5q-12 21 -20 41.5t-12 42.5q-5 -14 -8.5 -28t-7.5 -27q-19 19 -33.5 32.5t-22.5 22.5q-48 40 -52 63 l-4 23l-17 -23q-18 -22 -35 -59.5t-26 -85.5q-8 -48 11 -99q13 -36 35.5 -65.5t52.5 -51.5q37 -30 73 -61t58 -93q-17 33 -41.5 59t-56.5 45q10 -21 14 -46t4 -46q0 -46 -17 -86q-18 -40 -48 -70t-70 -48q-40 -17 -86 -17q-13 0 -24.5 1.5t-24.5 4.5q-14 1 -28.5 6.5 t-26.5 11.5q-20 12 -36 27.5t-29 33.5v0l4 -2q8 -1 14 -3.5t14 -2.5q28 -5 57 -1.5t56 13.5q28 16 44 24t28 4v0q13 -4 19.5 5.5t-1.5 21.5q-16 20 -39.5 29t-48.5 4q-28 -3 -54 -13t-60 7q-1 1 -4 1.5t-5 3.5q-2 1 3 0t3 0q-7 3 -15 8t-14 9l7 -1q-10 5 -17 13t-12 19 q-5 12 -6.5 24t4.5 24q4 5 8.5 9.5t9.5 7.5q5 -1 7 -2.5l2 -1.5l-1 2.5t-3 3.5h1q4 -1 11.5 -4.5t11.5 -6.5q3 -1 5 -3.5t6 -6.5l0.5 1.5t-0.5 3.5q-1 4 -4.5 7t-6.5 6v0q3 -1 6.5 -3t5.5 -4q2 8 4 14t1 14v7.5t-1 8.5q-2 1 -0.5 2.5t1.5 -1.5q0 1 -0.5 3t-0.5 4v0l1 1 q1 1 3 2t4 3q10 7 22 13.5t24 10.5q10 5 17 7.5t10 3.5q1 1 4 3l6 4q8 7 13 16.5t8 19.5v2.5v4.5v9q-2 5 -15.5 9.5t-61.5 8.5q-17 1 -29 13.5t-16 29.5v0q10 24 25.5 44t38.5 33q1 1 -2.5 0.5t-2.5 1.5q4 1 8.5 3t9.5 3q1 1 -7.5 3.5t-18.5 1.5q-5 0 -11 -1.5t-11 -5.5 q1 2 6.5 4.5t4.5 2.5q-13 -1 -24.5 -6.5t-23.5 -11.5v2t2 3q-10 -4 -17 -9.5t-12 -12.5v1.5v2.5q-4 -3 -8 -6.5t-5 -5.5v0q-25 9 -53.5 12t-56.5 -3v0v0l-10 10t-11 13v0h-2q-1 1 -3 4.5t-3 7.5q-4 2 -4.5 5t-2.5 5v0q-1 0 -1 -1v-1v0q-5 14 -7.5 26t-2.5 26v0 q-8 -5 -14 -13t-8 -16q-3 -4 -3.5 -5.5l-1.5 -4.5v3q0 2 1 4.5l1 2.5v-0.5v-1.5q-4 -2 -5.5 -5.5t-2.5 -5.5q-2 -4 -2.5 -6t-2.5 -7v0.5v1.5v2.5t0 -1.5v-1q-10 -22 -16.5 -47t-9.5 -48q-1 -4 -1 -8v-9v0q-8 -9 -14 -17t-12 -17q-19 -30 -32.5 -64t-21.5 -69q4 14 12 26 t15 24q-16 -38 -24 -81.5t-8 -88.5q1 14 4.5 26t8.5 26q-2 -53 7 -103.5t31 -100.5q29 -66 76.5 -119t109.5 -90q24 -17 52 -30t56 -21q4 -2 8.5 -2.5t7.5 -2.5q-1 0 -1.5 0.5t-2.5 0.5q34 -12 70 -17t70 -5q126 0 176 33t53 37q5 5 11 12.5t10 15.5q1 1 4 1.5t6 2.5l3 4 q19 9 37 20t35 24q24 17 41.5 42t25.5 56q5 10 5 21.5t-3 23.5q1 1 1.5 4t2.5 5q28 42 42.5 92t17.5 100v2q-5 11 -6 22.5t-2 22.5v0v0zM384 688q-1 -1 -1.5 -3t-0.5 -3q0 2 1 3.5t1 2.5z" />
</svg>