<svg viewBox="0 0 1024 1024" xmlns="http://www.w3.org/2000/svg">
  <path transform="scale(1, -1) translate(0, -960)" fill="currentColor" d="M752 378q0 16 -6 31t-18 26l-395 397l32 32q8 8 10.5 19.5t-2.5 22.5q-5 9 -15 15.5t-20 6.5h-268q-15 0 -26.5 -11.5t-11.5 -26.5v-268q0 -12 6.5 -21t17.5 -14q4 -1 7.5 -2t6.5 -1q8 0 15 2.5t13 8.5l32 32l396 -397q12 -12 27 -18t29 -6q16 0 31 6t25 18l90 90 q12 12 18 27t6 31v0zM557 563l-95 -222l-132 133l92 224l135 -135v0zM74 619q-3 -2 -4.5 -1.5t-2.5 0.5t-2 1t-1 3v268q0 2 2 4t4 2h268q2 0 3 -1t1 -2t0.5 -3t-1.5 -4l-267 -267v0zM310 810l88 -88l-92 -224l-154 153zM706 342l-90 -89q-14 -15 -34 -15t-33 15l-63 62 l96 223l125 -125q7 -7 11 -16.5t4 -18.5q-2 -10 -5.5 -19t-10.5 -17v0zM715 86q-5 5 -11 5t-11 -5q-5 -4 -5 -10.5t5 -11.5l91 -91q2 -3 5.5 -4t5.5 -1q3 0 6 1t5 4q5 5 5 11t-5 11l-91 91v0zM806 178q-4 4 -10.5 4t-11.5 -4q-5 -5 -5 -11.5t5 -11.5l152 -152q2 -2 5.5 -3.5 t5.5 -1.5q3 0 6 1.5t5 3.5q5 5 5 11.5t-5 11.5l-152 152v0zM987 178l-91 89q-5 5 -11.5 5t-10.5 -5q-5 -5 -5 -11t5 -11l91 -91q2 -3 5.5 -4t5.5 -1t5.5 1t5.5 4q5 4 5 11.5t-5 12.5v0z" />
</svg>