<svg viewBox="0 0 1024 1024" xmlns="http://www.w3.org/2000/svg">
  <path transform="scale(1, -1) translate(0, -960)" fill="currentColor" d="M848 718h-82q0 44 -16 82q-17 38 -45.5 66.5t-67.5 44.5q-38 17 -82 17h-72q-43 0 -81 -17q-39 -16 -67.5 -44.5t-45.5 -67.5q-17 -38 -17 -82v-123q0 -8 4.5 -12t11.5 -4t11.5 4t4.5 12v123q0 74 53 126.5t126 52.5h72q75 0 127 -52t52 -126h-81q-27 0 -45.5 -18.5 t-18.5 -45.5v-622q0 -26 18.5 -45t45.5 -19h195q26 0 45 19t19 45v622q0 27 -19 45.5t-45 18.5zM621 526h259v-368h-259v368zM653 686h195q13 0 22.5 -9t9.5 -23v-94h-259v94q0 14 9.5 23t22.5 9zM848 0h-195q-13 0 -22.5 9.5t-9.5 22.5v94h259v-94q0 -13 -9.5 -22.5 t-22.5 -9.5zM288 496q-7 0 -11.5 -4.5t-4.5 -11.5v-58q0 -7 4.5 -11.5t11.5 -4.5t11.5 4.5t4.5 11.5v58q0 7 -4.5 11.5t-11.5 4.5zM470 533h-57q-7 0 -11.5 -4.5t-4.5 -11.5t4.5 -11.5t11.5 -4.5h57q8 0 12 4.5t4 11.5t-4 11.5t-12 4.5zM186 533h-58q-7 0 -11.5 -4.5 t-4.5 -11.5t4.5 -11.5t11.5 -4.5h58q7 0 11.5 4.5t4.5 11.5t-5 11.5t-11 4.5z" />
</svg>