<svg viewBox="0 0 1024 1024" xmlns="http://www.w3.org/2000/svg">
  <path transform="scale(1, -1) translate(0, -960)" fill="currentColor" d="M757 578q7 0 11.5 4t4.5 12v123q0 44 -17 82q-16 39 -45 67.5t-67 44.5q-39 17 -82 17h-72q-44 0 -83 -17q-38 -16 -66.5 -44.5t-45.5 -66.5t-17 -82h-124q-27 0 -45.5 -18.5t-18.5 -45.5v-622q0 -26 18.5 -45t45.5 -19h283q26 0 45 19t19 45v622q0 27 -19 45.5t-45 18.5 h-127q2 74 54.5 126t126.5 52h72q75 0 127 -52.5t52 -126.5v-123q-1 -8 4 -12t11 -4v0zM469 158h-347v368h347v-368zM437 0h-283q-14 0 -23 9.5t-9 22.5v94h347v-94q0 -13 -9.5 -22.5t-22.5 -9.5zM469 654v-94h-347v94q0 14 9 23t23 9h283q13 0 22.5 -9t9.5 -23zM757 496 q-7 0 -11.5 -4.5t-4.5 -11.5v-58q0 -7 4.5 -11.5t11.5 -4.5t11.5 4.5t4.5 11.5v58q0 7 -4.5 11.5t-11.5 4.5zM926 469l-59 33q-6 4 -12.5 2t-9.5 -8q-4 -6 -2 -12.5t8 -9.5l59 -34l4.5 -1.5t3.5 -0.5q4 0 8 2.5t7 5.5q3 6 1 12.5t-8 10.5v0zM648 502l-59 -33q-6 -4 -8 -10.5 t1 -12.5q3 -3 6.5 -5.5t8.5 -2.5q2 0 3.5 0.5l4.5 1.5l59 34q6 3 8 9.5t-2 12.5q-3 6 -9.5 7.5t-12.5 -1.5z" />
</svg>