<svg viewBox="0 0 256 256" xmlns="http://www.w3.org/2000/svg">
  <path transform="scale(1, -1) translate(0, -256)" fill="currentColor" d="M242 120l-30 30q-2 2 -5 2t-5 -2t-2 -5t2 -5l30 -30q5 -5 5 -12.5t-5 -12.5t-12.5 -5t-12.5 5l-13 13q2 4 2 9q0 9 -7 16l-92 92l13 13q4 4 2 8q-1 2 -3 3.5t-4 0.5l-87 -6q-3 0 -5 -2t-2 -4l-6 -88q0 -2 1 -4t3 -3t4 -1t4 2l13 14l92 -92q7 -7 16 -7l4 1l32 -32 q2 -2 5 -2t5 2t2 4.5t-2 5.5l-29 29l30 30l12 -12q9 -9 22.5 -9t22.5 9t9 22t-9 23zM104 100v-5l-22 22l1 16q1 3 3 5.5t5 2.5l9 1q9 1 14.5 6.5t6.5 13.5l1 9l22 -22l-2 -20q-1 -3 -3 -5.5t-5 -2.5l-10 -1q-8 -1 -13.5 -6.5t-6.5 -13.5zM25 221l63 4l-68 -67zM87 205 l21 -21l-2 -20q0 -3 -2 -5.5t-6 -2.5l-9 -1q-8 -1 -14 -7t-6 -14l-1 -4l-28 28zM116 82l2 16q0 3 2.5 5.5t5.5 2.5l9 1q8 1 14 7t7 14v8l23 -23q3 -2 3 -5.5t-3 -6.5l-35 -35q-2 -2 -5.5 -2t-6.5 2z" />
</svg>