<svg viewBox="0 0 256 256" xmlns="http://www.w3.org/2000/svg">
  <path transform="scale(1, -1) translate(0, -256)" fill="currentColor" d="M168 158h-33v34q0 3 -2 5.5t-5 2.5t-5 -2.5t-2 -5.5v-34h-33q-8 0 -13.5 -6t-5.5 -14v-114q0 -8 5.5 -13.5t13.5 -5.5h79q8 0 13.5 5.5t5.5 13.5v114q1 8 -5 14t-13 6zM83 80l89 33v-31l-89 -33v31zM88 144h80q2 0 3.5 -2t1.5 -4v-10l-89 -32v42q-1 2 0.5 4t3.5 2z M168 19h-80q-2 0 -3.5 1.5t-1.5 3.5v11l89 32v-43q1 -2 -0.5 -3.5t-3.5 -1.5zM120 223h16q2 0 2 2v17q0 2 -2 2h-16q-2 0 -2 -2v-17v-1q1 -1 2 -1zM161 203h17q2 0 2 2v16q0 2 -2 2h-17q-2 0 -2 -2v-17l1 -1h1zM78 203h17q2 0 2 2v16q0 2 -2 2h-17q-2 0 -2 -2v-17q0 -1 2 -1 z" />
</svg>