<svg viewBox="0 0 256 256" xmlns="http://www.w3.org/2000/svg">
  <path transform="scale(1, -1) translate(0, -256)" fill="currentColor" d="M212 198h-18q-1 22 -17 37.5t-38 15.5h-18q-15 0 -28 -7.5t-20.5 -20.5t-7.5 -28v-31q0 -3 2 -5t5 -2t5 2t2 5v31q0 17 12.5 29.5t29.5 12.5h18q17 0 29 -11.5t13 -27.5h-17q-8 0 -14 -5.5t-6 -13.5v-155q0 -8 6 -13.5t14 -5.5h48q8 0 13.5 5.5t5.5 13.5v156 q0 7 -5.5 12.5t-13.5 5.5zM158 145h59v-86h-59v86zM163 184h49q2 0 3.5 -1.5t1.5 -3.5v-21h-59v21q0 3 1.5 4t3.5 1zM212 19h-49q-2 0 -3.5 1.5t-1.5 3.5v21h59v-21q0 -2 -1.5 -3.5t-3.5 -1.5zM72 143q-3 0 -5 -2t-2 -5v-14q0 -3 2 -5.5t5 -2.5t5 2.5t2 5.5v14q0 3 -2 5 t-5 2zM118 152h-15q-3 0 -5 -2t-2 -5t2 -5t5 -2h15q3 0 5 2t2 5t-2 5t-5 2zM46 152h-14q-3 0 -5 -2t-2 -5t2 -5t5 -2h14q3 0 5.5 2.5t2.5 5t-2.5 4.5t-5.5 2z" />
</svg>