<svg viewBox="0 0 256 256" xmlns="http://www.w3.org/2000/svg">
  <path transform="scale(1, -1) translate(0, -256)" fill="currentColor" d="M246 139v3v0l-2 -3q-1 6 -3 16q-2 7 -7 19q-2 5 -7 11q-1 2 -3 4q-3 5 -9 12l-7 9q-6 10 -8 20l-4 -13l-14 13q-10 9 -13 16q-1 4 -1 6v0l-4 -6q-5 -7 -9 -15q-5 -11 -6 -21q-2 -13 2 -25q7 -18 22 -29l5 -4q11 -8 16 -14q8 -9 12 -20q-8 16 -24 26q4 -10 4 -24.5 t-7.5 -27t-20 -20t-27.5 -7.5q-7 0 -12.5 1t-14 6t-16.5 14l8 -2q15 -2 29 4l12 6q3 1 6 0t4.5 1.5t-0.5 5.5q-4 5 -9.5 7.5t-12.5 1.5l-8 -2q-6 -2 -9 -2q-6 -1 -11 2l-3 1h1h1q-5 2 -7 5l1 -1q-4 3 -7 9t0 11q2 3 4 5l3 -2l-2 2h1q4 -1 5 -3l3 -2v1q0 2 -3 3l4 -1v2 q1 3 1 4l-1 4q0 1 0.5 1h0.5l-1 1l2 2q7 5 12 6l7 3l2 1q4 4 5 10v4q0 3 -19 4q-4 0 -7 3t-4 8q5 13 16 19h-0.5h-0.5l4 2q1 0 -1.5 0.5t-5.5 0.5t-5 -1l2 1h1q-4 0 -11 -4h-1v1q-4 -2 -7 -6v2l-3 -4q-14 6 -28 3l-5 5q-1 1 -2 2.5t-1 2.5v1h-1q-2 6 -2 12q-4 -2 -6 -7 l-1 -2v2v0q-1 -1 -1 -3l-2 -3v1v-1q-5 -11 -6 -23l-1 -5l-6 -8q-9 -14 -14 -33l6 9l1 3q-8 -20 -8 -42q1 5 3 12q0 -27 10 -50q14 -33 46 -53q12 -8 28 -13l4 -1l-2 1q17 -6 36 -6q26 0 44 8q9 5 12.5 9t5.5 7l3 2q10 6 18 12q13 8 17 24q2 5 0 11l2 3q13 20 14 48v0 q-1 3 -1 9zM96 188v-2v2z" />
</svg>