<svg viewBox="0 0 256 256" xmlns="http://www.w3.org/2000/svg">
  <path transform="scale(1, -1) translate(0, -256)" fill="currentColor" d="M189 157q3 0 5 2t2 5v31q0 15 -7.5 28t-20 20.5t-28.5 7.5h-18q-22 0 -38 -15t-17 -37h-29q-7 0 -13 -5.5t-6 -13.5v-156q0 -8 5.5 -13.5t13.5 -5.5h71q8 0 13.5 5.5t5.5 13.5v156q0 7 -5.5 13t-13.5 6h-28q1 16 13 27t28 11h18q18 0 30 -12t12 -30v-31q0 -3 2 -5t5 -2z M114 59h-81v86h81v-86zM109 19h-71q-2 0 -3.5 1.5t-1.5 3.5v21h81v-21q0 -2 -1.5 -3.5t-3.5 -1.5zM114 180v-21h-81v21q0 2 1.5 3.5t3.5 1.5h71q2 -1 3.5 -2t1.5 -3zM189 143q-3 0 -5 -2t-2 -5v-14q0 -3 2 -5.5t5 -2.5t5 2.5t2 5.5v14q0 3 -2 5t-5 2zM233 136l-15 8 q-2 2 -5 1t-4.5 -3.5t-0.5 -5.5t4 -4l14 -9q2 -1 5 -1t4.5 3.5t1 6t-3.5 4.5zM161 144l-15 -8q-2 -2 -3 -4.5t0.5 -6t5.5 -3.5l4 1l15 9q2 1 3 4t-0.5 5.5t-4.5 3.5t-5 -1z" />
</svg>