<svg viewBox="0 0 1024 1024" xmlns="http://www.w3.org/2000/svg">
  <path transform="scale(1, -1) translate(0, -960)" fill="currentColor" d="M670 554h-142v150q0 7 -4.5 11.5t-11.5 4.5t-11.5 -4.5t-4.5 -11.5v-150h-142q-27 0 -45.5 -19t-18.5 -45v-458q0 -26 18.5 -45t45.5 -19h316q27 0 45.5 19t18.5 45v458q0 26 -18.5 45t-45.5 19v0zM322 338h380v-152h-380v152v0zM354 522h316q14 0 23 -9.5t9 -22.5v-122 h-380v122q0 13 9 22.5t23 9.5v0zM670 0h-316q-14 0 -23 9.5t-9 22.5v122h380v-122q0 -13 -9 -22.5t-23 -9.5zM478 829h68q3 0 5.5 2t2.5 6v67q0 4 -2.5 6t-5.5 2h-68q-3 0 -5.5 -2t-2.5 -6v-67q0 -3 2.5 -5.5t5.5 -2.5v0zM643 747h67q4 0 6 2.5t2 5.5v66q0 3 -2 5.5t-6 2.5 h-67q-3 0 -5.5 -2.5t-2.5 -5.5v-67q0 -3 3 -5t5 -2v0zM314 747h67q3 0 5.5 2.5t2.5 5.5v66q0 3 -2.5 5.5t-5.5 2.5h-67q-4 0 -6 -2.5t-2 -5.5v-67q0 -3 2 -5t6 -2v0z" />
</svg>