<svg viewBox="0 0 256 256" xmlns="http://www.w3.org/2000/svg">
  <path transform="scale(1, -1) translate(0, -256)" fill="currentColor" d="M191 110q0 10 -7 17l-97 97l6 6q3 2 3.5 6t-0.5 7q-4 8 -12 8h-66q-6 0 -9.5 -4t-3.5 -9v-66q0 -4 2 -7t4.5 -4.5t7 -1.5t7.5 4l6 6l97 -97q7 -7 16.5 -7t16.5 7l22 22q7 7 7 16zM136 156l-22 -50l-28 29l21 50zM19 175v62h61zM78 214l18 -18l-21 -50l-33 32zM174 104 l-22 -22q-3 -3 -7 -3t-7 3l-14 14l22 49l28 -28q2 -3 3 -6.5t-3 -6.5zM181 40q-2 2 -5 2t-5 -2t-2 -5t2 -5l23 -23q2 -2 4.5 -2t4.5 2t2 5t-2 5zM204 62q-3 3 -5.5 2.5t-5 -2.5t-2.5 -4.5t3 -5.5l38 -38q2 -2 4.5 -2t4.5 2.5t2 5t-2 4.5zM249 62l-23 23q-2 2 -5 2t-5 -2 t-2 -5t2 -5l23 -23q2 -2 4.5 -2t5 2t2.5 5t-2 5z" />
</svg>