<svg viewBox="0 0 1024 1024" xmlns="http://www.w3.org/2000/svg">
  <path transform="scale(1, -1) translate(0, -960)" fill="currentColor" d="M653 715h-119l36 43q3 5 3 10.5t-3 10.5l-47 56l56 67q5 5 4 12t-5 11q-5 5 -12 4t-11 -6l-64 -78q-3 -5 -3 -10.5t3 -10.5l47 -56l-45 -53h-123q-27 0 -45.5 -18.5t-18.5 -45.5v-619q0 -26 18.5 -45t45.5 -19h281q27 0 45.5 19t18.5 45v619q1 27 -17.5 45.5t-44.5 18.5 v0zM339 525h346v-367h-346v367v0zM371 683h282q13 0 22.5 -9.5t9.5 -22.5v-94h-346v94q0 13 9.5 22.5t22.5 9.5v0zM653 0h-282q-13 0 -22.5 9.5t-9.5 22.5v94h346v-94q0 -13 -9.5 -22.5t-22.5 -9.5z" />
</svg>