<svg viewBox="0 0 1024 1024" xmlns="http://www.w3.org/2000/svg">
  <path transform="scale(1, -1) translate(0, -960)" fill="currentColor" d="M512 -18q-60 0 -118 14.5t-112 41.5q-45 23 -83 53q-38 31 -69 67.5t-55 78.5q-23 43 -38 89q-14 45 -19 91t-1 91.5t17 89.5q13 45 35 87q-17 45 -7.5 93t44.5 83q4 6 11 8.5t14 2.5q15 0 25.5 -9.5t11.5 -24.5q4 -18 9 -34.5t15 -32.5q2 -3 4 -7t6 -7q20 2 39 2.5 t36 -1.5q24 33 59.5 52.5t74.5 23.5v0v0q12 0 21.5 -7t13.5 -17q4 -9 1.5 -19t-10.5 -18q-28 -27 -40.5 -50t-9.5 -30q1 -3 15 -8t51 -5h43q13 0 22.5 -7.5t12.5 -19.5q3 -11 -1.5 -21t-14.5 -18l-72 -46q-9 -6 -16 -16.5t-11 -23.5q-2 -8 -6 -14.5t-8 -11.5q-5 -4 -12 -6.5 t-16 -2.5q-9 1 -16.5 -1t-11.5 -4l-4 -3q-3 -4 -6 -8.5t-3 -7.5v-2v-1q2 -3 9.5 -5t23.5 -3q16 -2 31 -2h32h5q15 0 27.5 1t23.5 9q2 1 4.5 3t4.5 3q8 5 15 9.5t16 8.5t23 5.5t30 0.5q10 -1 23 -3.5t25 -9.5q8 -5 14.5 -13t9.5 -17q3 -12 -1 -23t-14 -17q-5 -3 -9.5 -4 t-7.5 -3q-2 0 -3 -0.5t-2 -0.5q-6 -1 -11 -5.5t-10 -9.5q-4 -3 -7.5 -5.5t-6.5 -5.5q-5 -3 -11 -6.5t-12 -6.5q-7 -3 -14.5 -7.5t-12.5 -9.5q-6 -6 -10 -14t-8 -17q-2 -4 -4.5 -10t-6.5 -10q10 -2 18.5 -3t16.5 -1q34 0 65 10t59 29q32 23 53 56.5t27 72.5q6 40 -3.5 77.5 t-33.5 70.5q-7 9 -7 21t7 22q3 6 9 9.5t13 4.5t14 0t13 -6q12 -9 23 -18.5t21 -21.5q-12 62 -42 128.5t-78 98.5h-2q-8 7 -11.5 17.5t-1.5 20.5q5 16 18 23t27 3v0q55 -16 110 -50q54 -33 97 -86t70 -125t27 -165v-40q0 -97 -38 -181q-39 -85 -105.5 -148t-157.5 -99 t-195 -36v0zM131 840v0h-1q-29 -30 -36.5 -71t8.5 -79l4 -7l-4 -6q-21 -40 -34 -82t-17.5 -85.5t-0.5 -87.5q5 -43 19 -86q14 -44 35 -83q22 -40 51 -74t65 -62t78 -50q50 -25 104.5 -39t111.5 -14q97 0 182 34q85 33 147.5 91.5t98.5 137.5t36 169v40q-1 87 -26 154 t-65.5 115.5t-90.5 79.5q-51 31 -102 45v0q-1 0 -2.5 -1t-1.5 -2t0.5 -2.5t0.5 -2.5q31 -20 55 -54t41 -73.5t27 -82.5t13 -81q0 -9 -4.5 -14.5t-11.5 -8.5q-7 -2 -13.5 1t-10.5 9q-12 18 -27 33.5t-30 27.5q-2 0 -2 0.5t-2 0.5h-1v-1q-1 -1 -1 -2.5t1 -2.5 q27 -37 38.5 -80.5t4.5 -89.5q-7 -45 -30.5 -84.5t-62.5 -65.5q-31 -22 -66.5 -33.5t-72.5 -11.5q-11 -1 -22 0.5t-23 2.5q-8 2 -14 7t-8 11q-3 7 -2.5 14t5.5 13q2 5 5.5 10t5.5 11q5 10 10.5 20t13.5 18q7 9 16.5 14.5t18.5 11.5q5 2 10 5.5t10 5.5q3 3 6 5t6 5 q6 6 14.5 11.5t17.5 9.5q2 0 4 0.5t3 0.5q2 1 4.5 1.5t3.5 1.5v2v3q-1 3 -3.5 6t-4.5 4q-7 5 -17 6.5t-18 1.5q-12 1 -22 0t-17 -5q-7 -2 -12.5 -6t-11.5 -8q-2 -3 -4.5 -4.5t-6.5 -3.5q-17 -11 -34.5 -13t-34.5 -2h-5q-15 0 -31 0.5t-33 1.5q-14 1 -30 4.5t-26 14.5 q-4 6 -6.5 12.5t-1.5 14.5q2 12 7.5 22.5t15.5 17.5l2.5 2.5t3.5 2.5q10 6 21.5 8.5t23.5 1.5h2t1 1q3 3 4 5.5t3 5.5q4 18 14.5 33t25.5 25l72 46q1 2 2 3t1 2q0 3 -1.5 3h-1.5h-44q-39 0 -63 8.5t-31 23.5q-13 32 19 71.5t37 45.5l1.5 1.5t0.5 1.5q-2 0 -3.5 1l-1.5 1 q-35 -2 -65 -20.5t-50 -48.5l-5 -8l-10 2q-19 2 -40.5 1.5t-45.5 -3.5l-8 -1l-5 6q-5 5 -9.5 12t-9.5 15q-10 17 -17 37t-10 40v3q-2 3 -3 4t-4 1v0zM496 290v0v0v0v0zM814 587v0v0v0v0z" />
</svg>