<svg viewBox="0 0 256 256" xmlns="http://www.w3.org/2000/svg">
  <path transform="scale(1, -1) translate(0, -256)" fill="currentColor" d="M107 132h14v-14q0 -3 2 -5.5t5 -2.5t5 2.5t2 5.5v14h14q3 0 5 2t2 5t-2 5t-5 2h-14v14q0 3 -2 5t-5 2t-5 -2t-2 -5v-14h-14q-3 0 -5 -2t-2 -5t2 -5t5 -2zM228 198h-61v14q0 12 -8.5 20t-19.5 8h-21q-12 0 -20 -8t-8 -20v-14h-62q-10 0 -16.5 -6.5t-6.5 -15.5v-50 q0 -13 11 -19v-70q0 -9 6 -15t14 -6h184q9 0 15 6t6 15v69q5 3 7.5 8.5t2.5 10.5v51q0 9 -6.5 15.5t-16.5 6.5zM103 212q0 6 4.5 10t9.5 4h21q6 0 10 -4t4 -10v-14h-49v14zM19 176q0 3 2.5 5.5t6.5 2.5h201q3 0 5.5 -2.5t2.5 -5.5v-51q0 -3 -2 -5.5t-4 -2.5l-10 -2l-61 -17 q-32 -9 -64 0l-61 17l-9 2q-3 0 -5 2.5t-2 5.5v51zM220 30h-184q-2 0 -4 2t-2 5v65l62 -18q18 -4 36 -4t36 4l63 18v-66q-1 -2 -3 -4t-4 -2z" />
</svg>