<svg viewBox="0 0 256 256" xmlns="http://www.w3.org/2000/svg">
  <path transform="scale(1, -1) translate(0, -256)" fill="currentColor" d="M236 166l-7 2l3 4q4 8 0.5 17t-12.5 11l-51 14q-9 2 -15.5 -2t-8.5 -12l-17 -63l-17 63q-2 8 -9 12t-15 2l-51 -14q-9 -2 -13 -11t1 -17l3 -4l-7 -2q-8 -2 -12 -9t-2 -15l8 -30q1 -8 9 -12q5 -3 9 -3h5l44 12q9 3 13 11.5t-2 17.5l-2 4l20 5l10 -37l-16 -60q0 -3 1 -5.5 t4 -3.5h2q3 0 4.5 1.5t2.5 3.5l10 36l9 -36q1 -2 3 -3.5t4 -1.5h2q3 1 4.5 3.5t0.5 5.5l-16 60l10 37l20 -5l-2 -4q-5 -8 -1.5 -17t12.5 -12l44 -11q3 -1 5 -1q6 0 11.5 4t7.5 10l8 31q2 8 -2 15t-12 9zM80 131q2 -3 0.5 -5t-3.5 -3l-43 -11q-2 -1 -4 0t-2 3l-8 31q-1 1 0 3 t3 3l11 3l8 -12q2 -4 6.5 -6.5t9.5 -2.5l5 1l13 3zM60 148q-4 -1 -6 3l-18 28q-1 3 0 5.5t4 2.5l51 14h1q2 0 3.5 -1t2.5 -3l9 -36zM156 186l2 7v4q1 2 3 3t4 0l51 -13q3 -1 3.5 -3.5t-0.5 -4.5l-17 -28q-2 -4 -6 -3l-47 13zM237 146l-8 -30q-1 -3 -3 -4t-4 0l-43 11 q-3 1 -4 3t1 5l4 7l13 -3l5 -1q5 0 9.5 2.5t6.5 6.5l8 12l11 -3q2 0 3 -2t1 -4z" />
</svg>