<svg viewBox="0 0 1024 1024" xmlns="http://www.w3.org/2000/svg">
  <path transform="scale(1, -1) translate(0, -960)" fill="currentColor" d="M992 576q-1 6 -7 9t-12 2q-37 -10 -87 -18q-50 -9 -108 -14.5t-124 -8.5q-66 -4 -136 -4q-72 0 -140 4q-69 3 -129 9t-111 15q-50 9 -85 20q-6 3 -12.5 -0.5t-8.5 -10.5q-2 -6 1 -11.5t9 -7.5l76 -211q3 -7 8.5 -12t14.5 -6h1.5h1.5q6 0 12 3.5t10 7.5l128 176 q22 -1 45.5 -3t46.5 -3l102 -192q4 -7 10.5 -10.5t13.5 -3.5v0v0q7 0 13.5 3.5t10.5 10.5l104 194q24 1 47 2l46 2l126 -174q4 -5 9.5 -8t13.5 -3h2h1q7 1 12.5 5.5t8.5 11.5l75 207q6 1 9 7t2 12zM146 370l-66 180q36 -8 81 -15t95 -12zM510 342l-88 170q24 -1 47.5 -1.5 t48.5 -0.5q22 0 42.5 0.5t41.5 1.5l-92 -170v0zM878 370l-110 152q50 4 94 10.5t80 14.5z" />
</svg>