<svg viewBox="0 0 1024 1024" xmlns="http://www.w3.org/2000/svg">
  <path transform="scale(1, -1) translate(0, -960)" fill="currentColor" d="M821 446l56 111q9 20 9 42t-12 41t-31.5 30.5t-42.5 11.5h-176v88q0 26 -19 45t-45 19h-390v78q0 7 -4.5 11.5t-11.5 4.5q-8 0 -12 -4.5t-4 -11.5v-928q0 -7 4 -11.5t12 -4.5q7 0 11.5 4.5t4.5 11.5v363h318v-51q0 -36 25 -61t60 -25h227q23 0 42.5 11t31.5 30t13 41.5 t-10 41.5l-56 112v0zM170 802h390q13 0 22.5 -9.5t9.5 -22.5v-357q0 -13 -9.5 -22.5t-22.5 -9.5h-54v0v0v0v0h-336v421v0zM846 269q-7 -12 -19.5 -19t-26.5 -7h-226q-21 0 -36.5 16t-15.5 39v51h38q26 0 45 18.5t19 45.5v235h176q14 0 26 -7t20 -19t8.5 -25.5t-6.5 -26.5 l-59 -117q-1 -4 -1 -7.5t1 -7.5l59 -116q6 -14 6 -27.5t-8 -25.5z" />
</svg>