<svg viewBox="0 0 1024 1024" xmlns="http://www.w3.org/2000/svg">
  <path transform="scale(1, -1) translate(0, -960)" fill="currentColor" d="M944 589l-45 11l18 29q8 13 9.5 29t-4.5 30t-18 24.5t-27 13.5l-205 55q-13 3 -26 1t-24 -8q-12 -6 -19 -16t-11 -24l-27 -99l-53 -198l-30 112l-50 185q-4 14 -12 23.5t-18 16.5q-12 6 -25 8t-25 -1l-205 -55q-15 -3 -27 -13.5t-18 -24.5t-4.5 -30t9.5 -29l18 -29 l-45 -11q-13 -4 -23 -12t-17 -19q-7 -10 -8.5 -23.5t2.5 -25.5l32 -122q3 -13 11 -23t19 -17q7 -5 15.5 -7t18.5 -2h8t9 1l173 47q16 3 27.5 13.5t17.5 24.5t4.5 30t-9.5 29l-18 29l109 29l45 -165l-66 -243q-1 -6 2.5 -12t9.5 -7h2h2q5 0 9.5 3t6.5 8l50 189l51 -189 q1 -5 5.5 -8t10.5 -3h2.5h2.5q6 1 9 7t2 12l-67 243l45 166l109 -28l-18 -29q-8 -13 -9.5 -29t4.5 -30q6 -15 17.5 -25t27.5 -14l173 -46q5 -1 9 -1.5t8 -0.5q9 0 17.5 2.5t16.5 7.5q12 6 19.5 16.5t10.5 23.5l32 121q6 24 -7.5 48t-38.5 31zM331 467q5 -7 5.5 -15t-2.5 -15 t-9 -13t-13 -8l-173 -46q-6 -2 -12.5 -1.5t-12.5 4.5q-6 3 -10 8t-6 13l-32 121q-2 6 -1.5 13t4.5 13q3 6 8 9.5t13 6.5l52 14l34 -56q10 -14 24.5 -23t31.5 -9q5 0 9 0.5t9 1.5l59 16l22 -34v0zM242 518q-11 -2 -22 1.5t-17 13.5l-69 112q-4 7 -4.5 15t1.5 15q3 7 9 13 t14 8l204 54q3 0 5.5 1t4.5 1q5 0 9 -1t9 -4q6 -3 9.5 -8t6.5 -13l3 -14v0v0l37 -139l-200 -55v0zM602 646l17 66v0v0l3 14q2 6 6 12t10 9q6 4 13 5t13 -2l205 -54q7 -2 13.5 -7t8.5 -14q4 -7 3 -15t-6 -15l-69 -112q-6 -10 -16.5 -14t-21.5 -1l-202 55l23 73v0zM958 517 l-32 -122q-1 -6 -5.5 -11.5t-10.5 -9.5q-6 -3 -12.5 -4t-12.5 1l-173 45q-7 2 -13.5 7t-8.5 14q-4 7 -3 15t6 15l22 37l59 -16q4 -1 8.5 -1.5t9.5 -0.5q17 0 32.5 8.5t23.5 23.5l34 56l54 -14q13 -5 19.5 -17.5t2.5 -25.5v0z" />
</svg>