<svg viewBox="0 0 1024 1024" xmlns="http://www.w3.org/2000/svg">
  <path transform="scale(1, -1) translate(0, -960)" fill="currentColor" d="M822 413l-59 141l59 140q2 2 2 4v3v0v0q0 7 -4.5 11.5t-11.5 4.5h-280v69q0 7 -4.5 11.5t-11.5 4.5h-280v110q0 7 -4.5 11.5t-11.5 4.5t-11.5 -4.5t-4.5 -11.5v-928q0 -7 4.5 -11.5t11.5 -4.5t11.5 4.5t4.5 11.5v490h264v-52q0 -14 10 -23.5t24 -9.5h276q8 0 12 4.5 t4 11.5q2 2 1 3.5t-1 4.5v0v0v0zM232 506v264h264v-263h-264v-1zM528 424v261h256l-56 -131l56 -132h-254l-1 0.5t-1 1.5v0z" />
</svg>