<svg viewBox="0 0 256 256" xmlns="http://www.w3.org/2000/svg">
  <path transform="scale(1, -1) translate(0, -256)" fill="currentColor" d="M208 128l14 26q3 5 2.5 11.5t-3.5 12t-9 8.5t-12 3h-41v19q0 8 -5.5 14t-13.5 6h-94v16q0 3 -2.5 5t-5.5 2t-4.5 -2t-1.5 -5v-232q0 -3 2 -5t5 -2t5 2t2 5v88h74v-10q0 -10 7 -17t17 -7h56q6 0 12 3t9 8.5t3.5 12t-2.5 12.5zM46 213h94q2 0 3.5 -1.5t1.5 -3.5v-89 q0 -2 -1.5 -3.5t-3.5 -1.5h-94v99zM209 85q-3 -5 -9 -5h-56q-5 0 -8 3t-3 7v10h7q8 0 13.5 5.5t5.5 13.5v56h41q5 0 8.5 -4.5t0.5 -10.5l-15 -29q-2 -3 0 -6l15 -29q3 -6 0 -11z" />
</svg>