<svg viewBox="0 0 1024 1024" xmlns="http://www.w3.org/2000/svg">
  <path transform="scale(1, -1) translate(0, -960)" fill="currentColor" d="M782 662l-337 197v53q0 7 -4.5 11.5t-11.5 4.5t-11.5 -4.5t-4.5 -11.5v-786q0 -7 4.5 -11.5t11.5 -4.5t11.5 4.5t4.5 11.5v312l337 197q4 3 6 6.5t2 8.5q0 4 -2 7t-6 5zM445 475v347l297 -172l-297 -175v0zM606 98q-7 0 -11.5 -4.5t-4.5 -11.5q0 -34 -48 -58t-115 -24 q-66 0 -114.5 24.5t-48.5 57.5q0 7 -4.5 11.5t-11.5 4.5t-11.5 -4.5t-4.5 -11.5q0 -48 56 -81t139 -33t139 33t56 81q0 7 -4 11.5t-12 4.5z" />
</svg>