<svg viewBox="0 0 256 256" xmlns="http://www.w3.org/2000/svg">
  <path transform="scale(1, -1) translate(0, -256)" fill="currentColor" d="M244 103l-112 112q-6 6 -13.5 6t-13.5 -6l-31 31q-7 7 -17.5 7t-16.5 -7l-30 -29q-7 -7 -7 -17.5t7 -17.5l31 -31q-5 -5 -5 -13t5 -14l112 -112q9 -9 22 -9t22 9l47 47q9 9 9 22t-9 22zM20 192q-3 3 -3 7.5t3 7.5l29 29q3 3 7.5 3t7.5 -3l31 -31l-44 -44zM234 69l-47 -47 q-5 -6 -12 -5.5t-12 5.5l-112 112q-1 1 -1 3t1 4l64 64q2 1 4 1t3 -1l112 -112q5 -5 5 -12t-5 -12zM48 202q-2 2 -4.5 2t-5 -2t-2.5 -5t2 -5l8 -8q2 -2 5 -2t5 2t2 4.5t-2 5.5zM73 210l-8 8q-2 3 -5 3t-5 -2.5t-2 -5t2 -5.5l8 -8q2 -2 4.5 -2t4.5 2t2.5 5t-1.5 5z" />
</svg>