<svg viewBox="0 0 256 256" xmlns="http://www.w3.org/2000/svg">
  <path transform="scale(1, -1) translate(0, -256)" fill="currentColor" d="M168 146l-21 1l1 38q0 5 -4 7q-2 0 -4.5 -0.5t-3.5 -2.5l-55 -74q-3 -4 -0.5 -7.5t7.5 -3.5l21 2l-2 -41q0 -6 5 -7h2q4 0 6 2l53 75q2 3 1 7t-6 4zM122 88l2 25q0 3 -2 5t-5 2l-15 -1l32 44l-1 -22q0 -3 2 -5t4 -2l15 -1zM251 135q0 11 -5 20t-13 15q1 20 -10.5 33.5 t-27.5 14.5q-5 11 -13.5 17.5t-18.5 8t-19 -1.5t-16 -10q-7 7 -16 9.5t-19 1.5t-18.5 -8t-13.5 -17q-17 -2 -27 -15q-12 -14 -11 -33q-8 -6 -13 -16t-5 -22t6.5 -23t17.5 -16q-2 -17 7 -30.5t23 -17.5q3 -12 11.5 -20.5t19.5 -11t21 0.5t17 10q13 -12 28 -12q5 0 10 2 q11 2 19.5 10.5t12.5 20.5q13 4 22 17.5t8 30.5q11 6 17 17.5t6 24.5zM217 104q-3 -1 -4 -3.5t0 -4.5q3 -14 -4 -25t-19 -13q-2 -1 -3.5 -2.5t-1.5 -3.5q-2 -10 -8.5 -16.5t-14.5 -8.5t-15.5 1t-12.5 11q-1 3 -5 3t-6 -3q-5 -7 -12.5 -10.5t-15.5 -1.5t-14.5 8t-7.5 17 q0 2 -2 3.5t-4 2.5q-12 2 -18.5 13t-3.5 25q0 2 -1 4.5t-4 3.5q-9 3 -14.5 11t-5.5 17.5t4.5 17t11.5 11.5q4 3 3 7q-2 15 7 25.5t21 10.5h1q4 0 6 5q3 9 9 14t14 6.5t15 -1.5t12 -10q2 -3 5.5 -3t5.5 3q5 6 12 9.5t15 2t14 -6.5t9 -14q0 -2 2.5 -3.5t4.5 -1.5q13 0 21 -10 q9 -11 7 -26q-1 -5 4 -7q6 -4 10.5 -11t4.5 -15q-1 -11 -7 -19.5t-15 -11.5z" />
</svg>