<svg viewBox="0 0 256 256" xmlns="http://www.w3.org/2000/svg">
  <path transform="scale(1, -1) translate(0, -256)" fill="currentColor" d="M221 51l-56 93v93h15q3 0 5 2t2 5t-2 5t-5 2h-99q-3 0 -5 -2t-2 -5t2 -5t5 -2h11v-93l-56 -93q-5 -7 -5 -15t4 -15.5t11 -11.5t16 -4h133q8 0 15 4t11 11.5t4 15.5t-4 15zM209 27q-2 -4 -6 -6t-9 -2h-133q-9 0 -14 8q-2 4 -2 8.5t2 8.5l57 94q2 2 2 4v95h44v-14h-12 q-3 0 -5.5 -2t-2.5 -5t2.5 -5t5.5 -2h12v-16h-16q-3 0 -5 -2t-2 -5t2 -5t5 -2h16v-16h-12q-3 0 -5.5 -2t-2.5 -5t2.5 -5t5.5 -2h12v-9q0 -2 2 -4l57 -92q2 -4 2 -8.5t-2 -8.5z" />
</svg>