<svg viewBox="0 0 1024 1024" xmlns="http://www.w3.org/2000/svg">
  <path transform="scale(1, -1) translate(0, -960)" fill="currentColor" d="M968 339l-448 448q-19 19 -45.5 19t-45.5 -19l-8 -8l-133 133q-12 12 -28 19t-33 7t-33 -7t-28 -19l-118 -118q-12 -12 -19 -28t-7 -33t7 -32.5t19 -28.5l134 -134l-8 -8q-9 -10 -14 -21.5t-5 -23.5q0 -13 5 -25t14 -20l448 -448q17 -17 37.5 -24.5t41.5 -7.5t42 8t38 24 l189 189q31 32 30.5 78.5t-32.5 79.5v0zM70 696q-15 16 -15 38t15 39l119 118q15 16 37.5 16t39.5 -16l134 -134l-195 -195zM946 203l-189 -189q-23 -22 -56.5 -22t-57.5 22l-448 448q-5 5 -7 11t-2 12t2 11.5t7 10.5l256 256q5 5 11 7.5t12 2.5t11.5 -2.5t10.5 -7.5 l448 -448q25 -23 25.5 -56t-23.5 -56v0zM184 734q-5 5 -11.5 5t-10.5 -5q-5 -4 -5 -10.5t5 -11.5l32 -32q2 -2 5 -3.5t6 -1.5q2 0 5.5 1.5t5.5 3.5q5 5 5 11.5t-5 10.5l-32 32v0zM282 770l-32 32q-5 4 -11.5 4t-11.5 -4q-5 -5 -5 -11.5t5 -11.5l32 -32q3 -2 6 -3.5t5 -1.5 q3 0 6 1.5t6 3.5q4 4 4 11t-4 12z" />
</svg>