<svg viewBox="0 0 1024 1024" xmlns="http://www.w3.org/2000/svg">
  <path transform="scale(1, -1) translate(0, -960)" fill="currentColor" d="M672 510q-4 3 -6 6.5t-2 8.5v371h43q7 0 11.5 4.5t4.5 11.5t-4.5 11.5t-11.5 4.5h-392q-7 0 -11.5 -4.5t-4.5 -11.5t4.5 -11.5t11.5 -4.5h43v-371q0 -5 -2 -8.5t-6 -6.5q-36 -23 -63 -54q-27 -32 -44.5 -69t-23.5 -78q-7 -42 -1 -85q6 -50 29 -94q23 -43 57.5 -77 t78.5 -56q45 -21 95 -27q8 -2 17 -2h17q55 0 107 19.5t93 55.5q47 42 72.5 99.5t25.5 119.5q0 76 -36.5 142t-101.5 106v0zM690 67q-44 -38 -97.5 -55.5t-112.5 -9.5q-45 4 -85 24q-40 19 -70.5 49.5t-51.5 68.5q-20 39 -25 83q-10 77 22.5 145.5t97.5 110.5q11 7 16.5 18 t5.5 24v371h240v-86h-60q-8 0 -12 -4.5t-4 -11.5q0 -8 4 -12t12 -4h60v-88h-32q-7 0 -11.5 -4.5t-4.5 -11.5q0 -8 4.5 -12t11.5 -4h32v-88h-60q-8 0 -12 -4.5t-4 -11.5q0 -8 4 -12t12 -4h60v-12q0 -13 6 -23.5t17 -17.5q57 -36 90 -95t33 -126q1 -56 -21.5 -108t-64.5 -89z " />
</svg>