<svg viewBox="0 0 1024 1024" xmlns="http://www.w3.org/2000/svg">
  <path transform="scale(1, -1) translate(0, -960)" fill="currentColor" d="M872 134l-226 373v389h71q7 0 11.5 4.5t4.5 11.5t-4.5 11.5t-11.5 4.5h-394q-7 0 -11.5 -4.5t-4.5 -11.5t4.5 -11.5t11.5 -4.5h55v-389l-226 -373q-16 -25 -16 -54.5t14 -55.5q15 -26 40.5 -41t55.5 -15h533q30 0 55.5 15t40.5 41q13 26 13 55.5t-16 54.5v0zM846 40 q-10 -19 -28 -29.5t-39 -10.5h-534q-22 0 -40 10.5t-27 29.5q-11 18 -10.5 39t11.5 39l229 378q1 2 1.5 4t0.5 4v392h203v-78h-63q-7 0 -11.5 -4.5t-4.5 -11.5q0 -8 4.5 -12t11.5 -4h63v-87h-79q-7 0 -11.5 -4.5t-4.5 -11.5t4.5 -11.5t11.5 -4.5h79v-86h-63q-7 0 -11.5 -4.5 t-4.5 -11.5t4.5 -11.5t11.5 -4.5h63v-47v-4t1 -4l229 -377q12 -18 12.5 -38.5t-9.5 -38.5v0z" />
</svg>