<svg viewBox="0 0 256 256" xmlns="http://www.w3.org/2000/svg">
  <path transform="scale(1, -1) translate(0, -256)" fill="currentColor" d="M214 251h-67q-15 0 -27.5 -7.5t-20 -20t-7.5 -27.5v-10q-16 10 -34 10h-16q-11 0 -18 -7t-7 -17v-143q0 -10 7 -17t18 -7h172q10 0 17 7t7 17v198q0 10 -7 17t-17 7zM99 19h-57q-5 0 -8 3t-3 7v143q0 4 3 7t8 3h16q14 0 26 -7t19.5 -19.5t7.5 -26.5v-110h-12zM224 29 q0 -4 -3 -7t-7 -3h-89v110q0 13 -5 25t-14 22v20q0 17 12 29t29 12h67q4 0 7 -3t3 -8v-197zM185 196h-33q-3 0 -5 -2t-2 -5t2 -5t5 -2h33q3 0 5 2t2 5t-2 5t-5 2zM185 156h-33q-3 0 -5 -2t-2 -5t2 -5t5 -2h33q3 0 5 2t2 5t-2 5t-5 2zM185 116h-33q-3 0 -5 -2t-2 -5t2 -5 t5 -2h33q3 0 5 2t2 5t-2 5t-5 2zM185 76h-33q-3 0 -5 -2t-2 -5t2 -5t5 -2h33q3 0 5 2t2 5t-2 5t-5 2z" />
</svg>