<svg viewBox="0 0 1024 1024" xmlns="http://www.w3.org/2000/svg">
  <path transform="scale(1, -1) translate(0, -960)" fill="currentColor" d="M858 928h-392q-35 0 -60 -25t-25 -60v-134h-215q-34 0 -59 -25t-25 -60v-571q0 -35 25 -60t59 -25h690q35 0 60 25t25 60v790q1 35 -24 60t-59 25v0zM114 53v195h142q13 0 22.5 -9.5t9.5 -22.5v-216h-120q-23 0 -38.5 15.5t-15.5 37.5zM397 0h-77v216q0 26 -19 45t-45 19 h-142v342q0 22 15.5 37.5t36.5 15.5h237q22 0 37.5 -15.5t15.5 -37.5v-622h-59zM910 53q0 -22 -15.5 -37.5t-36.5 -15.5h-368v622q0 34 -22.5 58t-54.5 27v136q0 22 15.5 37.5t37.5 15.5h390q22 0 37.5 -15.5t15.5 -37.5v-790h1zM730 683h-80q-8 0 -12 -4.5t-4 -11.5 t4 -11.5t12 -4.5h80q7 0 11.5 4.5t4.5 11.5t-5 11.5t-11 4.5zM730 451h-80q-8 0 -12 -4.5t-4 -11.5t4 -11.5t12 -4.5h80q7 0 11.5 4.5t4.5 11.5t-5 11.5t-11 4.5v0zM730 219h-80q-8 0 -12 -4.5t-4 -11.5t4 -11.5t12 -4.5h80q7 0 11.5 4.5t4.5 11.5t-5 11.5t-11 4.5z" />
</svg>