<svg viewBox="0 0 256 256" xmlns="http://www.w3.org/2000/svg">
  <path transform="scale(1, -1) translate(0, -256)" fill="currentColor" d="M214 251h-98q-10 0 -17 -7t-7 -17v-31h-50q-11 0 -18 -7t-7 -17v-143q0 -10 7 -17t18 -7h172q10 0 17 7t7 17v198q0 10 -7 17t-17 7zM32 29v46h32q2 0 3.5 -1.5t1.5 -3.5v-51h-27q-4 0 -7 3t-3 7zM99 19h-16v51q0 8 -5.5 13.5t-13.5 5.5h-32v83q0 4 3 7t7 3h59 q4 0 7.5 -3t3.5 -7v-153h-13zM224 29q0 -4 -3 -7t-7 -3h-89v153q0 8 -5.5 14.5t-13.5 8.5v32q0 4 3 7t7 3h98q4 0 7 -3t3 -7v-198zM182 190h-20q-3 0 -5 -2t-2 -5t2 -5t5 -2h20q3 0 5.5 2t2.5 5t-2.5 5t-5.5 2zM182 132h-20q-3 0 -5 -2t-2 -5t2 -5t5 -2h20q3 0 5.5 2t2 5 t-2.5 5t-5 2zM182 74h-20q-3 0 -5 -2t-2 -5t2 -5t5 -2h20q3 0 5.5 2t2.5 5t-2.5 5t-5.5 2z" />
</svg>