<svg viewBox="0 0 1024 1024" xmlns="http://www.w3.org/2000/svg">
  <path transform="scale(1, -1) translate(0, -960)" fill="currentColor" d="M858 928h-271q-43 0 -81 -16q-38 -17 -66 -45t-44 -66q-17 -38 -17 -81v-61q-31 23 -69 35.5t-80 12.5h-64q-34 0 -59 -25t-25 -60v-569q0 -35 25 -60t59 -25h690q35 0 60 25t25 60v790q1 35 -24 60t-59 25v0zM397 0h-231q-21 0 -36.5 15.5t-15.5 37.5v569 q0 22 15.5 37.5t36.5 15.5h64q47 0 88 -17q41 -18 72 -48.5t48 -71.5q18 -42 18 -88v-450h-59zM910 53q0 -22 -15.5 -37.5t-36.5 -15.5h-368v451q0 54 -20.5 101t-56.5 82v86q0 72 51.5 124t124.5 52h269q21 0 36.5 -15.5t15.5 -37.5v-790v0zM741 709h-131q-8 0 -12 -4.5 t-4 -11.5t4 -11.5t12 -4.5h131q7 0 11.5 4.5t4.5 11.5t-4.5 11.5t-11.5 4.5zM741 549h-131q-8 0 -12 -4.5t-4 -11.5t4 -11.5t12 -4.5h131q7 0 11.5 4.5t4.5 11.5t-4.5 11.5t-11.5 4.5zM741 389h-131q-8 0 -12 -4.5t-4 -11.5t4 -11.5t12 -4.5h131q7 0 11.5 4.5t4.5 11.5 t-4.5 11.5t-11.5 4.5zM741 229h-131q-8 0 -12 -4.5t-4 -11.5t4 -11.5t12 -4.5h131q7 0 11.5 4.5t4.5 11.5t-4.5 11.5t-11.5 4.5z" />
</svg>