<svg viewBox="0 0 256 256" xmlns="http://www.w3.org/2000/svg">
  <path transform="scale(1, -1) translate(0, -256)" fill="currentColor" d="M237 163l-11 15q-7 9 -18 9h-23v17q0 7 -5 13l-18 25q-7 9 -18 9h-89q-5 0 -10 -2.5t-8 -6.5l-18 -25q-5 -6 -5 -13v-176q0 -10 7 -16.5t16 -6.5h182q10 0 16.5 6.5t6.5 16.5v122q0 7 -5 13zM208 173q4 0 7 -3l6 -8h-36v11h23zM48 234q3 3 7 3h89q5 0 7 -3l13 -18h-129z M121 19h-84q-4 0 -6.5 2.5t-2.5 5.5v175h143v-174q0 -4 -2.5 -6.5t-6.5 -2.5h-41zM219 19h-36q2 4 2 8v121h43v-121q0 -3 -3 -5.5t-6 -2.5zM80 176h-13q-4 0 -4 -4v-12q0 -4 4 -4h13q4 0 4 4v12q0 2 -1 3t-3 1zM132 176h-13q-4 0 -4 -4v-12q0 -4 4 -4h13q4 0 4 4v12 q0 2 -1.5 3t-2.5 1zM80 125h-13q-4 0 -4 -4v-13q0 -4 4 -4h13q4 0 4 4v13q0 1 -1 2.5t-3 1.5zM132 125h-13q-4 0 -4 -4v-13q0 -4 4 -4h13q4 0 4 4v13q0 1 -1.5 2.5t-2.5 1.5zM80 73h-13q-4 0 -4 -4v-13q0 -4 4 -4h13q4 0 4 4v13q0 2 -1 3t-3 1zM132 73h-13q-4 0 -4 -4v-13 q0 -4 4 -4h13q4 0 4 4v13q0 2 -1.5 3t-2.5 1zM212 128h-12q-4 0 -4 -4v-13q0 -4 4 -4h13q4 0 4 4v13q-1 4 -5 4zM212 76h-12q-4 0 -4 -4v-13q0 -4 4 -4h13q4 0 4 4v13q-1 4 -5 4z" />
</svg>