<svg viewBox="0 0 1024 1024" xmlns="http://www.w3.org/2000/svg">
  <path transform="scale(1, -1) translate(0, -960)" fill="currentColor" d="M939 581l-45 61q-10 14 -27 23t-35 9h-104v78q0 12 -3.5 24t-10.5 22l-74 98q-11 14 -27.5 23t-34.5 9h-357q-18 0 -35 -8t-28 -24l-72 -99q-8 -10 -12 -21.5t-4 -25.5v-705q0 -33 23 -56t56 -23h729q33 0 56 23t23 56v489q-3 14 -7 25.5t-11 21.5zM832 642q11 0 21 -5 t16 -15l38 -51h-179v71h104zM184 877q6 9 16 14t21 5h357q10 0 20 -5t16 -14l66 -90h-563l67 90v0zM485 0h-338q-19 0 -32.5 13.5t-13.5 32.5v704v3v2h593v-2v-3v-705q0 -19 -13.5 -33t-32.5 -14h-163v2zM922 46q0 -19 -14 -32.5t-33 -13.5h-163q7 10 11.5 21.5t4.5 24.5 v493h195v-2v-3v-488h-1zM320 642h-51q-7 0 -11.5 -4.5t-4.5 -11.5v-52q0 -7 4.5 -11.5t11.5 -4.5h51q7 0 11.5 4.5t4.5 11.5v52q0 6 -4.5 11t-11.5 5zM526 642h-51q-7 0 -11.5 -4.5t-4.5 -11.5v-52q0 -7 4.5 -11.5t11.5 -4.5h51q8 0 12 4.5t4 11.5v52q0 6 -4 11t-12 5z M320 435h-51q-7 0 -11.5 -4.5t-4.5 -11.5v-51q0 -7 4.5 -11.5t11.5 -4.5h51q7 0 11.5 4.5t4.5 11.5v51q0 6 -4.5 11t-11.5 5zM526 435h-51q-7 0 -11.5 -4.5t-4.5 -11.5v-51q0 -7 4.5 -11.5t11.5 -4.5h51q8 0 12 4.5t4 11.5v51q0 6 -4 11t-12 5zM320 229h-51q-7 0 -11.5 -4.5 t-4.5 -11.5v-51q0 -8 4.5 -12t11.5 -4h51q7 0 11.5 4t4.5 12v51q0 6 -4.5 11t-11.5 5zM526 229h-51q-7 0 -11.5 -4.5t-4.5 -11.5v-51q0 -8 4.5 -12t11.5 -4h51q8 0 12 4t4 12v51q0 6 -4 11t-12 5zM850 446h-50q-7 0 -11.5 -4t-4.5 -12v-51q0 -7 4.5 -11.5t11.5 -4.5h51 q7 0 11.5 4.5t4.5 11.5v51q-1 6 -5.5 11t-11.5 5zM850 240h-50q-7 0 -11.5 -4.5t-4.5 -11.5v-51q0 -7 4.5 -11.5t11.5 -4.5h51q7 0 11.5 4.5t4.5 11.5v51q-1 6 -5.5 11t-11.5 5z" />
</svg>