<svg viewBox="0 0 1024 1024" xmlns="http://www.w3.org/2000/svg">
  <path transform="scale(1, -1) translate(0, -960)" fill="currentColor" d="M230 234q45 0 84 16q39 17 68 46t46 69q17 39 17 83t-17 83q-17 40 -46 69t-68 46q-39 16 -84 16q-44 0 -83 -16q-39 -17 -68 -46t-46 -69q-17 -39 -17 -83t17 -83q17 -40 46 -69t68 -46q39 -16 83 -16zM794 234q44 0 83 16q39 17 68 46t46 69q17 39 17 83t-17 83 q-17 40 -46 69t-68 46q-39 16 -83 16q-45 0 -84 -16q-39 -17 -68 -46t-46 -69q-17 -39 -17 -83t17 -83q17 -40 46 -69t68 -46q39 -16 84 -16z" />
</svg>