<svg viewBox="0 0 1024 1024" xmlns="http://www.w3.org/2000/svg">
  <path transform="scale(1, -1) translate(0, -960)" fill="currentColor" d="M488 658l-125 32v54q0 7 -4.5 11.5t-11.5 4.5t-11.5 -4.5t-4.5 -11.5v-54l-125 -32q-6 -2 -9.5 -8t-1.5 -12q1 -6 5.5 -9t10.5 -3h2h1l117 30v-134l-65 -15q-6 -1 -10 -7t-3 -12t5.5 -9.5t10.5 -3.5h1.5h1.5l75 16l75 -16h2h2q6 0 10 3.5t6 9.5q1 6 -2.5 12t-10.5 7 l-66 15v134l117 -30h2h1q5 0 10 3t6 9q3 8 -1 13t-10 7v0zM968 130l-195 195q-12 12 -27.5 18t-31.5 6t-31 -6t-27 -17l-77 77q42 46 63 103q20 57 18.5 115.5t-24.5 114.5t-68 101q-43 44 -100 67.5t-121 23.5q-63 0 -120.5 -23.5t-101.5 -69.5q-46 -44 -69.5 -101.5 t-23.5 -120.5q0 -64 23.5 -121t69.5 -102q45 -45 103.5 -68.5t118.5 -23.5q57 0 112 20t99 61l77 -77q-11 -12 -16.5 -26t-5.5 -31t6 -32t18 -27l195 -196q12 -12 27 -18t32 -6t32 6t27 18l20 20q12 12 18 27t6 32t-7 33t-19 28v0zM147 413q-41 39 -62 91t-21 109 q0 56 21 108t62 92q41 39 92.5 61t107.5 22q57 0 109 -21t91 -62q42 -42 62 -94q21 -52 21 -106t-21 -107q-20 -52 -62 -93q-41 -42 -93 -62q-52 -21 -106.5 -21t-106.5 21q-52 20 -94 62v0zM946 35l-20 -19q-14 -14 -35.5 -14t-36.5 14l-195 194q-7 7 -10.5 16t-3.5 19 q0 9 3.5 18.5t10.5 16.5l19 19q8 7 17 11t19 4q9 0 18.5 -4t16.5 -11l195 -195q7 -7 10.5 -16.5t3.5 -18.5q0 -10 -2.5 -18.5t-9.5 -15.5v0z" />
</svg>