<svg viewBox="0 0 256 256" xmlns="http://www.w3.org/2000/svg">
  <path transform="scale(1, -1) translate(0, -256)" fill="currentColor" d="M123 184l-29 7v11q0 3 -2 5.5t-5 2.5t-5 -2.5t-2 -5.5v-11l-29 -8q-2 0 -4 -2.5t-1 -5.5t2.5 -4t4.5 -1l27 6v-27l-14 -3q-3 -1 -4.5 -3t-1 -5t2.5 -4.5t5 -1.5h1l18 4l18 -4h2q2 0 4 1.5t2.5 4t-1 5t-4.5 3.5l-14 3v27l28 -6q2 0 4 1t2.5 4t-1 5.5t-4.5 3.5zM244 50 l-49 49q-7 7 -16 7t-15 -5l-15 15q14 16 18 36t-2 40t-21 35q-11 11 -26 17.5t-31.5 6.5t-31.5 -6.5t-26.5 -18t-18 -26.5t-6.5 -31.5t6.5 -31.5t18 -26.5t26.5 -17.5t31 -6q30 0 53 19l15 -15q-4 -6 -4 -15t6 -16l50 -48q6 -7 16 -7t17 7l5 5q7 7 7 17t-7 16zM39 121 q-10 10 -15 22.5t-5 26t5 26t14.5 22t22 14.5t26 5t26 -5t22.5 -15q13 -13 17.5 -30.5t0 -35t-17.5 -30.5t-30.5 -17.5t-35 0t-30.5 17.5zM234 27l-5 -5q-2 -3 -6.5 -3t-6.5 3l-49 48q-3 3 -3 7t3 7l5 5q2 3 6 3t7 -3l49 -49q3 -3 3 -6.5t-3 -6.5z" />
</svg>