<svg viewBox="0 0 1024 1024" xmlns="http://www.w3.org/2000/svg">
  <path transform="scale(1, -1) translate(0, -960)" fill="currentColor" d="M950 384q-13 18 -28 34.5t-31 31.5q-6 6 -12.5 13t-12.5 14q-2 1 -3 2.5t-2 3.5l-0.5 0.5l-1.5 1.5q-31 33 -58 70.5t-54 73.5q-20 29 -42 58.5t-46 58.5q-35 40 -70 72q-36 32 -72.5 54.5t-74.5 36.5q-37 13 -76 17q-57 6 -114.5 -10t-102.5 -52l-14 -12t-13 -14 q-6 -6 -12.5 -12t-13.5 -15q-36 -45 -52 -102.5t-10 -116.5q4 -38 17 -76q14 -37 36.5 -73.5t54.5 -72.5q33 -35 74 -69q28 -23 57.5 -45t59.5 -43q37 -27 74.5 -55t70.5 -59v0v0v0q2 -1 4 -2.5t3 -3.5q7 -6 13.5 -13t13.5 -13q16 -15 32 -30.5t34 -28.5q30 -22 63.5 -32 t67.5 -10q56 0 109.5 23t91.5 61q29 31 50 72t28.5 86t-0.5 90q-8 46 -38 86v0zM235 326q-78 65 -120.5 132.5t-50.5 138.5q-6 51 9 102.5t47 92.5q7 7 12.5 13t11.5 11q6 6 12 11t12 11q41 33 92.5 47.5t102.5 8.5q35 -3 69 -16q35 -12 69 -33.5t67 -52.5q33 -30 66 -69 q22 -27 44 -56.5t42 -58.5q13 -19 27.5 -38.5t28.5 -38.5q-50 27 -101 45q-52 19 -104 30t-105 14q-52 3 -103 -2l-37 38q-4 5 -10.5 5t-11.5 -5t-5 -11.5t5 -10.5l37 -37q-6 -51 -3 -102q3 -52 14 -104t29 -104q19 -52 45 -101q-20 14 -39 28l-38 28q-28 19 -57 40.5 t-57 43.5v0zM886 74q-27 -26 -62 -45q-36 -19 -75.5 -26t-78.5 0q-40 7 -75 32q-17 12 -32 26.5t-30 29.5l-13.5 13.5t-13.5 12.5q-2 1 -3 2t-4 3q-36 55 -63 113t-43 117t-22 118q-5 59 0 116q58 5 117 -1q59 -5 118 -21.5t117 -42.5q58 -27 112 -63q1 -2 2.5 -3t2.5 -4 q6 -7 13 -13.5t13 -13.5q15 -16 29.5 -31t26.5 -31q26 -34 33 -73q8 -39 1 -78t-25 -75q-19 -35 -45 -62z" />
</svg>