<svg viewBox="0 0 256 256" xmlns="http://www.w3.org/2000/svg">
  <path transform="scale(1, -1) translate(0, -256)" fill="currentColor" d="M240 114q-4 5 -13 14l-10 11q-12 13 -28 36l-2 2q-13 19 -20 27q-36 43 -75 46q-15 2 -30 -2.5t-27 -13.5l-7 -6q-2 -2 -6 -7v0q-10 -12 -14 -27t-2 -30q3 -39 46 -75q11 -9 29 -22q23 -16 36 -28l9 -8q8 -9 16 -15q16 -11 35 -11q15 0 28.5 6t24.5 15q16 18 20 42 q4 26 -10 46zM61 100q-38 31 -42 65q-1 13 2.5 25t11.5 22l3 4l8 7q10 8 22 11.5t25 2.5q34 -4 65 -42q10 -12 22 -28l6 -9q-46 20 -92 16l-8 8q-3 2 -5.5 2.5t-5 -2t-2.5 -5t3 -5.5l8 -8q-4 -46 16 -92l-9 7q-14 9 -28 21zM220 37q-14 -14 -34 -17.5t-36 8.5q-4 3 -11 10 l-12 11q-17 26 -25 55t-6 56q28 3 56.5 -5.5t54.5 -25.5l8 -8q8 -8 14 -15q11 -16 7.5 -36t-16.5 -33z" />
</svg>