<svg viewBox="0 0 256 256" xmlns="http://www.w3.org/2000/svg">
  <path transform="scale(1, -1) translate(0, -256)" fill="currentColor" d="M249 166q-6 5 -13 11q-15 12 -28 18q5 14 7 32q1 9 1 18v0q0 3 -2 5t-5 2v0q-13 0 -27 -3q-28 -5 -41 -18q-9 -10 -13 -23q-5 14 -13 23q-13 13 -41 18q-14 3 -27 3q-3 0 -5 -2t-2 -5q0 -7 1 -17q2 -18 7 -31q-14 -6 -28 -17q-11 -9 -13 -11.5t-2 -5t2 -5.5q5 -5 13 -11 q15 -12 28 -18q-4 -9 -6 -22q-1 -9 -1.5 -17.5t-0.5 -10.5t2 -4t5 -2v0q14 0 28 3q27 5 40 18q2 2 6 8v-90q0 -3 2 -5.5t5 -2.5t5.5 2.5t2.5 5.5v90q3 -6 6 -8q12 -13 39 -18q14 -3 29 -3v0q3 0 5 2t2 5q0 7 -1 16q-2 18 -7 32q13 6 28 17q11 8 12.5 10.5t1.5 5.5t-2 5z M151 221q14 13 51 16q-1 -21 -8 -38l-8 1q-15 1 -34 -11q-5 5 -13 7q4 17 12 25zM128 140q-9 0 -15.5 6.5t-6.5 15.5t6.5 15.5t15.5 6.5t15.5 -6.5t6.5 -15.5t-6.5 -15.5t-15.5 -6.5zM105 221q7 -8 12 -25q-8 -2 -14.5 -8t-8.5 -14q-16 4 -24 12q-4 3 -7 10q-8 16 -9 41 q14 -1 26 -4q17 -4 25 -12zM54 184q3 -6 6 -8q11 -11 32 -16q1 -7 4 -14q-15 -8 -26 -8q-4 0 -10 2q-10 4 -22 11q-9 6 -16 13q18 14 32 20zM105 104q-13 -14 -51 -17q1 21 8 38l9 -1q15 0 33 11q6 -4 13 -7q-5 -17 -12 -24zM151 103q-8 8 -12 25q8 3 14.5 9t8.5 14 q16 -4 24 -12q4 -5 7 -10q8 -17 9 -42q-14 1 -26 4q-17 5 -25 12zM202 140q-4 6 -6 8q-12 12 -32 16q-1 8 -4 14q15 8 25 8h1q4 0 10 -2q17 -5 38 -23q-18 -15 -32 -21z" />
</svg>