<svg viewBox="0 0 1024 1024" xmlns="http://www.w3.org/2000/svg">
  <path transform="scale(1, -1) translate(0, -960)" fill="currentColor" d="M803 469q-1 3 -3.5 6.5t-7.5 4.5q-61 19 -130 -2t-124 -76q-4 -4 -7 -7.5t-6 -5.5v139q86 35 128 103t45 71q16 36 20.5 102.5t-54.5 105.5q-19 14 -39.5 17.5t-40.5 -1.5q-29 -7 -50 -27.5t-32 -37.5q-12 17 -34 36t-50 26q-21 5 -41 0t-39 -19q-58 -42 -51.5 -108 t25.5 -102q1 -1 13 -22q13 -21 36 -48t56 -54q34 -28 77 -44v-136q-2 3 -4.5 6t-4.5 6q-54 54 -123.5 75t-131.5 3q-3 -1 -6.5 -3.5t-4.5 -7.5q-19 -61 2 -131t77 -124q42 -40 92.5 -63t100.5 -23h1.5h1.5v-144q0 -7 4.5 -11.5t11.5 -4.5q8 0 12 4.5t4 11.5v144h3h2 q51 0 102 23t92 63q55 54 76 123t2 132v0zM341 709q0 1 -20.5 64t36.5 104q11 7 21 10.5t20 3.5h7t6 -1q34 -8 56.5 -38l22.5 -30q2 -3 5.5 -5.5t8.5 -2.5t8.5 2.5t5.5 5.5q6 12 27 38t49 33q13 3 26.5 0.5t27.5 -11.5q56 -38 40 -100.5t-18 -66.5q0 -1 -39.5 -65.5 t-120.5 -94.5q-81 27 -125 90t-44 64v0zM320 237q-47 47 -66 104t-6 110q52 13 109.5 -6.5t103.5 -65.5q9 -9 17 -19t15 -21v-179q-45 0 -90.5 20t-82.5 57zM704 237q-38 -39 -84.5 -58.5t-93.5 -18.5v174q8 11 17 22.5t19 21.5q46 45 103.5 65t108.5 7q14 -52 -5 -109 t-65 -104v0z" />
</svg>