<svg viewBox="0 0 256 256" xmlns="http://www.w3.org/2000/svg">
  <path transform="scale(1, -1) translate(0, -256)" fill="currentColor" d="M201 172q-13 0 -39 -10q10 26 10 39q0 20 -13 35t-31 15t-31 -15t-13 -35q0 -13 10 -39q-26 10 -39 10q-20 0 -35 -13t-15 -31t15 -31t35 -13q13 0 39 10q-10 -26 -10 -39q0 -20 13 -35t31 -15t31 15t13 35q0 13 -10 39q26 -10 39 -10q20 0 35 13t15 31t-15 31t-35 13z M104 128q0 10 7 17t17 7t17 -7t7 -17t-7 -17t-17 -7t-17 7t-7 17zM128 237q13 0 21.5 -10.5t8.5 -25.5q0 -10 -12 -40q-8 5 -18.5 5t-17.5 -5q-12 30 -12 40q0 15 8.5 25.5t21.5 10.5zM19 128q0 13 10.5 21.5t25.5 8.5q10 0 40 -12q-5 -8 -5 -18.5t5 -17.5q-30 -12 -40 -12 q-15 0 -25.5 8.5t-10.5 21.5zM128 19q-13 0 -21.5 10.5t-8.5 25.5q0 10 12 39q8 -4 18.5 -4t17.5 4q12 -29 12 -39q0 -15 -8.5 -25.5t-21.5 -10.5zM201 98q-10 0 -40 12q5 8 5 18.5t-5 17.5q30 12 40 12q15 0 25.5 -9t10.5 -21t-10.5 -21t-25.5 -9z" />
</svg>