<svg viewBox="0 0 256 256" xmlns="http://www.w3.org/2000/svg">
  <path transform="scale(1, -1) translate(0, -256)" fill="currentColor" d="M251 132q0 11 -7.5 20t-18.5 12v45q0 10 -6.5 16.5t-16.5 6.5h-24v2q0 8 -6 13.5t-14 5.5h-62q-8 0 -14 -5.5t-6 -13.5v-18q0 -8 6 -13.5t14 -5.5h24v-30q-3 -1 -6 -5l-18 -17q-5 -5 -5 -13t5 -14l18 -17q2 -2 6 -4v-38h-24q-8 0 -14 -5.5t-6 -13.5v-2h-23q-3 0 -6 2.5 t-3 6.5v53q12 2 19 11t7 21.5t-9.5 22t-23 9.5t-23.5 -9.5t-10 -22t7.5 -21.5t18.5 -11v-53q0 -10 6.5 -16.5t16.5 -6.5h23v-2q0 -8 5.5 -13.5t13.5 -5.5h63q8 0 14 5.5t6 13.5v2h24q10 0 16.5 6.5t6.5 16.5v53q11 2 18.5 11t7.5 21zM19 132q0 7 5.5 12.5t13.5 5.5 t13.5 -5.5t5.5 -13t-5.5 -13t-13.5 -5.5t-13.5 5.5t-5.5 13.5zM90 216v18q0 2 1.5 3.5t4.5 1.5h63q2 0 3.5 -1.5t1.5 -3.5v-18q0 -2 -1.5 -3.5t-3.5 -1.5h-63q-3 0 -4.5 1.5t-1.5 3.5zM106 128q-1 2 -1 4t1 4l18 17q1 1 3 1t4 -1l17 -17q2 -2 2 -4t-2 -4l-17 -17 q-2 -1 -4 -1t-3 1zM164 22q0 -2 -2 -3.5t-4 -1.5h-62q-2 0 -4 1.5t-2 3.5v18q0 2 1.5 3.5t4.5 1.5h63q2 0 3.5 -1.5t1.5 -3.5v-18zM202 38h-24v2q0 8 -6 13.5t-14 5.5h-24v38q3 1 6 4l18 17q5 6 5 14t-5 13l-18 17q-2 3 -6 5v30h24q8 0 14 5.5t6 13.5v2h24q4 0 6.5 -2.5 t2.5 -6.5v-45q-11 -2 -18 -11t-7 -21t7 -21t18 -11v-53q0 -4 -2.5 -6.5t-6.5 -2.5zM218 113q-7 0 -12.5 5.5t-5.5 13t5.5 13t13 5.5t13 -5.5t5.5 -13t-5.5 -13t-13.5 -5.5z" />
</svg>