<svg viewBox="0 0 1024 1024" xmlns="http://www.w3.org/2000/svg">
  <path transform="scale(1, -1) translate(0, -960)" fill="currentColor" d="M987 592q-2 2 -53.5 47t-117.5 71q29 65 33 132.5t4 72.5q0 6 -4.5 11t-11.5 5q-3 0 -34 -1q-30 -1 -71 -8t-85 -23t-74 -46q-21 -21 -36.5 -53t-26.5 -75q-9 43 -24.5 74.5t-37.5 53.5q-29 30 -73 46t-85 23t-72 8q-30 1 -32 1q-6 0 -11 -4.5t-5 -11.5q0 -3 3.5 -68 t31.5 -130q-66 -24 -116.5 -68t-53.5 -47q-5 -5 -5 -11.5t5 -11.5q3 -2 54.5 -47t118.5 -71q-29 -65 -33 -132.5t-4 -72.5q0 -6 4.5 -11t11.5 -5h1h1q8 0 39 2q31 1 71 9t81 23q41 16 70 44q14 15 25 34t21 42v-413q0 -7 4.5 -11.5t11.5 -4.5t11.5 4.5t4.5 11.5v413 q10 -24 21 -42.5t25 -33.5q29 -28 70 -44t81 -23.5t71 -9.5q31 -1 39 -1h1.5h0.5q6 0 11 4.5t5 11.5q0 4 -4.5 69.5t-30.5 128.5q66 24 116.5 68t52.5 48q5 4 5 10.5t-5 11.5v0zM597 829q42 43 116 55t108 14q-1 -27 -8 -79t-29 -99q-11 2 -21.5 3.5t-20.5 2.5 q-30 0 -64 -11t-72 -35q-13 13 -28.5 21.5t-35.5 13.5q10 37 23.5 66.5t31.5 47.5zM512 485q-42 0 -71.5 29.5t-29.5 71.5t29.5 71t71.5 29t71.5 -29t29.5 -71t-29.5 -71.5t-71.5 -29.5v0zM427 829q18 -18 31.5 -46.5t23.5 -67.5q-36 -8 -63 -34.5t-37 -62.5q-37 8 -65 22 t-45 32q-8 8 -15.5 19t-13.5 24q-24 47 -31 102.5t-7 81.5q32 -2 106 -14.5t116 -55.5zM221 686q6 -10 13 -20.5t16 -17.5q21 -22 53.5 -37.5t75.5 -24.5q0 -20 5.5 -37t13.5 -32q-33 -21 -62 -30.5t-54 -9.5q-11 0 -23 2t-24 6q-51 15 -97.5 50.5t-67.5 54.5 q20 17 61.5 48.5t89.5 47.5zM427 341q-42 -43 -116 -55.5t-108 -13.5q1 25 8 78t27 100q11 -3 21.5 -4.5t20.5 -2.5h1h1q30 0 63.5 12t72.5 35q13 -12 28.5 -21.5t33.5 -14.5q-8 -37 -21.5 -66t-31.5 -47v0zM597 341q-18 18 -31.5 47.5t-23.5 67.5q36 8 63 34.5t37 61.5 q37 -10 65 -23t45 -31q8 -9 15.5 -19.5t13.5 -24.5q23 -46 30.5 -101.5t7.5 -82.5q-32 3 -106 15.5t-116 55.5zM803 483q-6 11 -13 20.5t-16 18.5q-21 21 -53.5 37t-75.5 27v0v0q0 19 -5 36t-14 32q32 21 61.5 30.5t54.5 9.5q11 0 22.5 -2t24.5 -6q51 -15 97.5 -50.5 t67.5 -54.5q-20 -18 -61.5 -49.5t-89.5 -48.5v0z" />
</svg>