<svg viewBox="0 0 1024 1024" xmlns="http://www.w3.org/2000/svg">
  <path transform="scale(1, -1) translate(0, -960)" fill="currentColor" d="M803 613q-26 0 -70 -12.5t-107 -38.5q26 63 38.5 107t12.5 70q0 78 -48.5 133.5t-116.5 55.5t-116.5 -55.5t-48.5 -133.5q0 -26 12.5 -70t38.5 -107q-63 26 -107 38.5t-70 12.5q-78 0 -133.5 -48.5t-55.5 -116.5t55.5 -116.5t133.5 -48.5q26 0 70 12.5t107 38.5 q-26 -63 -38.5 -107t-12.5 -70q0 -78 48.5 -133.5t116.5 -55.5t116.5 55.5t48.5 133.5q0 26 -12.5 70t-38.5 107q63 -26 107 -38.5t70 -12.5q78 0 133.5 48.5t55.5 116.5t-55.5 116.5t-133.5 48.5zM221 315q-65 0 -111 39t-46 94t46 94t111 39q24 0 68 -13.5t108 -39.5 q-12 -17 -19 -37t-7 -43t7 -43t19 -37q-64 -26 -108 -39.5t-68 -13.5zM379 739q0 65 39 111t94 46t94 -46t39 -111q0 -24 -13.5 -68t-39.5 -108q-17 12 -37 19t-43 7t-43 -7t-37 -19q-26 64 -39.5 108t-13.5 68zM621 448q0 -44 -31.5 -76.5t-77.5 -32.5t-77.5 31.5 t-31.5 77.5t31.5 77.5t77.5 31.5t77.5 -32.5t31.5 -76.5v0zM645 157q0 -65 -39 -111t-94 -46t-94 46t-39 111q0 24 13.5 68t39.5 108q17 -12 37 -19t43 -7t43 7t37 19q26 -64 39.5 -108t13.5 -68zM803 315q-24 0 -68 13.5t-108 39.5q12 17 19 37t7 43t-7 43t-19 37 q64 26 108 39.5t68 13.5q65 0 111 -39t46 -94t-46 -94t-111 -39z" />
</svg>