<svg viewBox="0 0 1024 1024" xmlns="http://www.w3.org/2000/svg">
  <path transform="scale(1, -1) translate(0, -960)" fill="currentColor" d="M992 462q0 46 -30 79.5t-74 39.5v192q0 32 -23 55t-55 23h-111v21q0 26 -18.5 45t-45.5 19h-253q-26 0 -45 -19t-19 -45v-72q0 -26 19 -45t45 -19h111v-141q-9 -2 -16 -6t-13 -10l-69 -69q-19 -19 -19 -45.5t19 -45.5l69 -69q6 -6 13 -10t16 -6v-171h-111 q-26 0 -45 -18.5t-19 -45.5v-21h-104q-19 0 -32.5 14t-13.5 33v221q43 6 72.5 39t29.5 79q0 49 -34.5 83.5t-83.5 34.5t-84.5 -34.5t-35.5 -85.5q0 -45 29.5 -78.5t72.5 -39.5v-221q0 -32 23 -55t56 -23h104v-21q0 -26 18.5 -45t45.5 -19h253q26 0 45 19t19 45v21h110 q32 0 55 23t23 55v223q46 6 76 39t30 77v0zM64 462q0 36 25 61.5t61 25.5t61.5 -25.5t25.5 -61.5t-25.5 -61t-61.5 -25t-61 25t-25 61zM350 798v74q0 13 9.5 22.5t22.5 9.5h253q13 0 22.5 -9.5t9.5 -22.5v-72q0 -13 -9.5 -22.5t-22.5 -9.5h-253q-13 -1 -22.5 8t-9.5 22v0z M418 440q-10 10 -10 22.5t10 22.5l68 69q5 4 11 6.5t12 2.5t11.5 -2.5t10.5 -6.5l69 -69q10 -10 10 -22.5t-10 -22.5l-69 -69q-9 -9 -22.5 -9t-22.5 9zM667 24q0 -13 -9.5 -22.5t-22.5 -9.5h-253q-13 0 -22.5 9.5t-9.5 22.5v72q0 13 9.5 22.5t22.5 9.5h253q13 0 22.5 -9.5 t9.5 -22.5v-72zM810 77h-111v21q0 26 -18.5 45t-45.5 19h-110v171q8 2 15.5 6t13.5 10l68 69q20 19 20 45.5t-20 45.5l-68 69q-6 6 -14 10t-15 6v140h110q27 0 45.5 19t18.5 45v21h111q19 0 32.5 -13.5t13.5 -32.5v-192q-43 -6 -72.5 -39.5t-29.5 -79.5q0 -45 29.5 -78.5 t72.5 -39.5v-221q1 -19 -13 -32.5t-33 -13.5v0zM874 376q-36 0 -61.5 25t-25.5 61t25.5 61.5t61.5 25.5t61 -25.5t25 -61.5t-25 -61t-61 -25z" />
</svg>