<svg viewBox="0 0 1024 1024" xmlns="http://www.w3.org/2000/svg">
  <path transform="scale(1, -1) translate(0, -960)" fill="currentColor" d="M992 448q0 54 -38.5 92.5t-92.5 38.5h-34l24 24q18 18 28.5 42.5t10.5 50.5t-10 50t-29 43q-18 18 -42 28t-51 10q-26 0 -49.5 -9.5t-42.5 -28.5l-24 -24v33q1 53 -37.5 91.5t-92.5 38.5t-92.5 -38.5t-38.5 -92.5v-34l-24 24q-18 18 -42.5 28.5t-50.5 10.5t-50 -10 t-43 -29q-38 -38 -38 -92.5t38 -91.5l24 -24h-33q-53 0 -91.5 -38.5t-38.5 -92.5t38.5 -92.5t92.5 -38.5h34l-24 -24q-18 -18 -28.5 -42.5t-10.5 -50.5t10 -50t29 -43q18 -18 42 -28t51 -10q26 0 49.5 9.5t42.5 28.5l24 24v-33q0 -54 39 -93t93 -39t92.5 39t38.5 93v33 l24 -24q18 -18 42 -28t51 -10q26 0 49.5 9.5t42.5 28.5q39 39 39 93t-39 91l-24 24h34q52 1 90 40t38 93v0zM778 322l51 -52q29 -28 29 -69t-29 -70q-15 -14 -32.5 -21.5t-38.5 -7.5q-19 0 -37.5 7.5t-32.5 21.5l-51 51q-4 4 -8.5 5t-9.5 -1q-5 -3 -7 -6.5t-2 -8.5v-73 q0 -41 -29.5 -70.5t-70.5 -29.5q-40 0 -69.5 29.5t-29.5 70.5v73q0 5 -2.5 9t-6.5 6q-2 1 -4 1h-3q-3 0 -6 -1t-5 -4l-51 -51q-15 -14 -32.5 -21.5t-38.5 -7.5q-20 0 -38 7.5t-32 21.5q-14 15 -21.5 32.5t-7.5 38.5q0 20 7.5 38t21.5 32l51 51q4 4 5 8.5t-2 9.5q-2 5 -5.5 7 t-8.5 2h-74q-37 -1 -65.5 28t-28.5 70t29 70t70 29h74q5 0 9 2.5t5 7.5q3 5 2 9.5t-5 7.5l-51 52q-29 28 -29 69t29 70q14 14 32 21.5t38 7.5q19 0 37.5 -7.5t33.5 -21.5l51 -51q3 -4 8 -5t9 1q5 3 7.5 6.5t2.5 8.5v73q-2 40 26.5 69t69.5 29t70 -29t29 -70v-74q0 -5 2.5 -9 t7.5 -5q5 -3 9.5 -2t7.5 5l52 51q14 15 32 22t38 7t38 -7t32 -22q15 -14 22 -32t7 -38q0 -19 -7 -37.5t-22 -33.5l-51 -51q-3 -3 -4 -8t1 -9q2 -5 6 -7.5t8 -2.5h74q41 0 70 -29t29 -70t-29 -70t-70 -29h-74q-4 0 -8.5 -2.5t-5.5 -7.5q-4 -2 -3 -6.5t5 -7.5v0zM512 610 q-66 0 -114 -47.5t-48 -114.5q0 -66 47.5 -114t114.5 -48q66 0 114 47.5t48 114.5q0 66 -48 114t-114 48zM512 318q-53 0 -91.5 38t-38.5 92t38 92t92 38q53 0 91.5 -38t38.5 -92t-38.5 -92t-91.5 -38z" />
</svg>