<svg viewBox="0 0 256 256" xmlns="http://www.w3.org/2000/svg">
  <path transform="scale(1, -1) translate(0, -256)" fill="currentColor" d="M251 128q0 15 -10.5 25.5t-24.5 10.5h-2h1q11 11 11 25.5t-10.5 25t-25.5 10.5t-25 -10l-1 -1v1q0 15 -10.5 25.5t-25 10.5t-25 -10.5t-10.5 -25.5v-1l-1 1q-10 10 -25 10t-25.5 -10.5t-10.5 -25t11 -25.5v0h-1q-14 0 -24.5 -10.5t-10.5 -25.5t10 -25.5t25 -10.5h1v0 q-11 -11 -11 -25.5t10.5 -25t25.5 -10.5t25 10l1 1v-1q0 -15 10.5 -25.5t25 -10.5t25 10.5t10.5 25.5v1l1 -1q10 -10 25 -10t25.5 10.5t10.5 25t-11 25.5h-1h2q14 0 24.5 10.5t10.5 25.5zM192 94l13 -12q6 -7 6 -16t-6.5 -15.5t-15 -6.5t-15.5 7l-12 13q-3 3 -7.5 1.5 t-4.5 -6.5v-18q0 -9 -6.5 -15.5t-15.5 -6.5t-15.5 6.5t-6.5 15.5v18q0 5 -4 7h-3q-3 0 -5 -2l-12 -13q-7 -6 -15.5 -6t-15 6.5t-6.5 15t6 15.5l13 12q2 2 2 4v4q-2 4 -7 4h-18q-9 0 -15.5 6.5t-6.5 15.5t6.5 15.5t15.5 6.5h18q5 0 6.5 4t-1.5 8l-13 12q-6 7 -6 16t6.5 15.5 t15 6.5t15.5 -7l12 -13q2 -1 4 -1.5t4 0.5q4 2 4 6v19q0 9 6.5 15t15.5 6t15.5 -6t6.5 -15v-19q0 -4 4 -6t8 1l12 13q7 7 15.5 7t15 -6.5t6.5 -15.5t-6 -15l-13 -13q-2 -2 -2 -4v-4q2 -4 7 -4h18q9 0 15.5 -6.5t6.5 -15.5t-6.5 -15.5t-15.5 -6.5h-18q-5 0 -6.5 -4t1.5 -8z M128 171q-18 0 -30.5 -12.5t-12.5 -30.5t12.5 -30.5t30.5 -12.5t30.5 12.5t12.5 30.5t-12.5 30.5t-30.5 12.5zM128 99q-12 0 -20.5 8.5t-8.5 20.5t8.5 20.5t20.5 8.5t20.5 -8.5t8.5 -20.5t-8.5 -20.5t-20.5 -8.5z" />
</svg>