<svg viewBox="0 0 256 256" xmlns="http://www.w3.org/2000/svg">
  <path transform="scale(1, -1) translate(0, -256)" fill="currentColor" d="M204 134q-2 4 -5 5q-16 5 -33 0t-32 -19v26q13 6 24 17q8 8 14 18q4 7 5 9q6 14 6 28q-1 18 -15 28q-11 7 -22.5 4t-20.5 -14q-10 11 -21 13.5t-22 -5.5q-14 -10 -14 -28q0 -15 7 -28h1q5 -10 13 -19q14 -16 31 -23v-25q-14 13 -31 18t-32 0q-4 -1 -5 -5q-5 -16 0.5 -34 t19.5 -32q10 -11 22.5 -16.5t25.5 -6.5v-33q0 -3 2.5 -5t5.5 -2t5 2t2 5v33q13 1 26 6.5t23 16.5q14 14 19.5 32t0.5 34zM88 194v1q-4 9 -5 16q-2 15 8 22q5 3 9 3h2q5 -1 11 -7q4 -5 6 -9t6.5 -4t6.5 4t7 9.5t10 7t11 -2.5q10 -6 9 -21q-1 -8 -4 -17v0q0 -1 -4 -8 q-6 -9 -13 -16q-9 -10 -20 -14q-12 4 -22 13q-7 7 -13 16q-5 6 -5 7zM82 77q-10 11 -15 24t-2 25q12 2 25 -2.5t24 -15.5q4 -4 7 -8v-41q-11 1 -21 5.5t-18 12.5zM135 59v40l1 2q4 5 7 7q10 11 23.5 15.5t25.5 2.5q2 -12 -2.5 -25t-15.5 -24q-18 -17 -39 -18z" />
</svg>