<svg viewBox="0 0 256 256" xmlns="http://www.w3.org/2000/svg">
  <path transform="scale(1, -1) translate(0, -256)" fill="currentColor" d="M223 120q-13 2 -23.5 -1t-17.5 -11q-16 -16 -10 -47q5 -27 -12 -36q-11 -5 -25 -6q-17 0 -28 7q-9 6 -12 18q10 0 17.5 7.5t7.5 17.5v5q13 1 21.5 10.5t8.5 22.5v81q0 13 -9.5 22.5t-22.5 9.5v1q0 13 -8.5 21.5t-21 8.5t-21 -9t-8.5 -21v-1q-13 0 -22.5 -9.5t-9.5 -22.5 v-82q0 -12 8.5 -21.5t20.5 -10.5v-6q0 -10 7.5 -17.5t17.5 -7.5q4 -20 18.5 -29t33.5 -9t33 7q10 5 16 15q8 14 3.5 37t6 34t30.5 8q3 -1 5 1t2.5 5t-1.5 5.5t-5 2.5zM88 237q7 0 11.5 -4.5t4.5 -10.5v-2h-32v1q0 7 5 11.5t11 4.5zM40 107v81q0 7 5.5 12.5t13.5 5.5h58 q8 0 13.5 -5.5t5.5 -12.5v-9h-27q-3 0 -5 -2t-2 -5t2 -5.5t5 -2.5h27v-18h-16q-3 0 -5 -2t-2 -5t2 -5t5 -2h16v-26q0 -8 -5.5 -13.5t-12.5 -5.5h-59q-8 1 -13.5 6.5t-5.5 13.5zM70 68v6h36v-6q0 -4 -3.5 -7.5t-7.5 -3.5h-13q-5 0 -8.5 3.5t-3.5 7.5z" />
</svg>