<svg viewBox="0 0 1024 1024" xmlns="http://www.w3.org/2000/svg">
  <path transform="scale(1, -1) translate(0, -960)" fill="currentColor" d="M891 403q-49 7 -89.5 -4.5t-67.5 -40.5q-20 -21 -34.5 -63t-0.5 -113q15 -73 -6.5 -109t-49.5 -49q-36 -18 -102.5 -23.5t-118.5 28.5q-31 20 -43 47t-14 44h14q37 0 63.5 26t26.5 64v35h1q50 0 84.5 34.5t34.5 83.5v323q0 50 -34.5 84.5t-84.5 34.5h-9v16 q0 44 -31.5 75.5t-75.5 31.5q-45 0 -76.5 -31.5t-31.5 -75.5v-16h-9q-49 0 -84 -34.5t-35 -84.5v-324q0 -50 34.5 -84.5t82.5 -34.5v-35q0 -37 26.5 -63.5t63.5 -26.5h8q2 -20 16.5 -56t56.5 -62q29 -18 61.5 -26t65.5 -8q37 0 70 8.5t56 19.5q28 14 59.5 57.5t12.5 135.5 q-9 48 -2 86.5t29 62.5q22 23 55 31.5t75 3.5q6 -1 12 3t6 12q1 7 -3.5 12t-11.5 5v0zM278 821q0 31 22 53t54 22q31 0 53 -22t22 -53v-16h-151v16zM150 363v323q0 36 25.5 61.5t61.5 25.5h233q36 0 61.5 -25.5t25.5 -61.5v-46h-119q-7 0 -11.5 -4.5t-4.5 -11.5t4.5 -11.5 t11.5 -4.5h119v-98h-75q-8 0 -12 -4t-4 -12q0 -7 4 -11.5t12 -4.5h75v-115q0 -36 -25.5 -61t-61.5 -25h-233q-36 0 -61.5 25t-25.5 61v0zM267 210v35h168v-35q0 -24 -16.5 -41t-40.5 -17h-53q-24 0 -41 17t-17 41v0z" />
</svg>