<svg viewBox="0 0 1024 1024" xmlns="http://www.w3.org/2000/svg">
  <path transform="scale(1, -1) translate(0, -960)" fill="currentColor" d="M989 547q-3 4 -6 5.5t-7 1.5h-110v121q0 24 -17 41.5t-39 17.5h-400l-40 100q-6 16 -20.5 26t-31.5 10h-230q-23 0 -39.5 -17.5t-16.5 -41.5v-726q0 -24 16.5 -41.5t39.5 -17.5h718q5 0 9.5 3t5.5 8l169 496q3 3 2 7.5t-3 6.5v0zM82 59q-8 3 -13 9.5t-5 16.5v726 q0 11 7 19t17 8h229q7 0 13 -4t9 -12l43 -108q3 -5 6.5 -7.5t8.5 -2.5h411q10 0 17 -8t7 -19v-122h-539q-5 0 -9 -2.5t-6 -6.5l-196 -487v0zM795 58h-678l187 464h650l-159 -464v0z" />
</svg>