<svg viewBox="0 0 256 256" xmlns="http://www.w3.org/2000/svg">
  <path transform="scale(1, -1) translate(0, -256)" fill="currentColor" d="M216 201v26q0 3 -2 5t-5 2h-86q-2 5 -6.5 7.5t-9.5 2.5h-62q-8 0 -13.5 -5.5t-5.5 -12.5v-133q0 -8 5.5 -13.5t12.5 -5.5h68v-17q-7 -2 -12 -7t-6 -12h-50q-3 0 -5 -2t-2 -5t2 -5t5 -2h50q2 -8 9 -13.5t16 -5.5t16 5.5t9 13.5h50q3 0 5.5 2t2.5 5t-2.5 5t-5.5 2h-49 q-2 7 -7 12t-12 7v17h85q8 0 13.5 5.5t5.5 13.5v90q0 6 -4 11t-10 7zM132 32v-1v1v-1v1q0 -5 -4 -9t-9 -4t-8.5 3.5t-3.5 8.5t3.5 8.5t8.5 3.5t9 -3.5t4 -7.5zM202 202h-53q-5 0 -10 3t-7 8l-3 7h73v-18zM216 93q0 -2 -1.5 -3.5t-2.5 -1.5h-167q-2 0 -3.5 1.5t-1.5 3.5v133 q0 1 1.5 2.5t3.5 1.5h62q4 0 4 -3l8 -19q3 -9 11.5 -14.5t18.5 -5.5h62q2 0 3.5 -1.5t1.5 -3.5v-90z" />
</svg>