<svg viewBox="0 0 1024 1024" xmlns="http://www.w3.org/2000/svg">
  <path transform="scale(1, -1) translate(0, -960)" fill="currentColor" d="M955 637v81q0 23 -15.5 39t-38.5 16h-402h-0.5h-0.5l-15 37q-5 10 -14.5 17t-20.5 7h-317q-35 1 -59 -23.5t-24 -58.5v-608q0 -35 24 -59t59 -24h762q35 0 59 24t24 59v459q0 11 -5.5 20t-15.5 14v0zM901 741q9 0 15.5 -6.5t6.5 -16.5v-76h-373l-40 99h391v0zM944 144 q0 -22 -15 -36.5t-36 -14.5h-762q-21 0 -36 15.5t-15 35.5v608q0 22 15 36.5t36 14.5h317q2 0 3.5 -1t2.5 -4l68 -169q3 -10 11 -15.5t19 -5.5h387q3 0 5 -2t2 -4v-458h-2z" />
</svg>