<svg viewBox="0 0 256 256" xmlns="http://www.w3.org/2000/svg">
  <path transform="scale(1, -1) translate(0, -256)" fill="currentColor" d="M225 175q-6 8 -16 9v15q0 10 -7 16.5t-16 6.5h-74l-7 19q-2 5 -6 7.5t-9 2.5h-40q-9 0 -16 -7t-7 -16v-145q0 -7 4.5 -11.5t10.5 -4.5h66v-14q-13 -4 -17 -16h-44q-3 0 -5 -2t-2 -5t2 -5.5t5 -2.5h44q3 -7 9 -12t14.5 -5t14.5 5t9 12h44q3 0 5 2.5t2 5.5t-2 5t-5 2h-44 q-4 12 -16 16v14h59q8 0 14 4.5t9 11.5l24 71q4 11 -3 21zM125 30v-1v1q0 -5 -3 -8t-7.5 -3t-7.5 3t-3 7.5t3 7.5t7.5 3t7.5 -3t3 -7zM41 86v141q0 4 3 7t6 3h40q1 0 2 -1l9 -23q2 -5 6 -5h78q4 0 7 -2.5t3 -6.5v-14h-99q-7 0 -13 -4t-9 -11zM214 158l-24 -71q0 -3 -3 -5 t-6 -2h-127l34 84q1 3 3.5 4.5t5.5 1.5h109q4 0 7 -4t1 -8z" />
</svg>