<svg viewBox="0 0 1024 1024" xmlns="http://www.w3.org/2000/svg">
  <path transform="scale(1, -1) translate(0, -960)" fill="currentColor" d="M854 741v104q0 7 -4 11.5t-12 4.5h-336q-1 0 -2 -0.5t-1 -1.5l-3 7q-8 20 -27 33t-42 13h-248q-31 0 -53 -22t-22 -52v-531q0 -31 22 -52t52 -21h283v-80q-29 -5 -50 -26t-25 -50h-210q-7 0 -11.5 -4t-4.5 -12q0 -7 4.5 -11.5t11.5 -4.5h210q6 -32 31.5 -54t59.5 -22 q35 0 60 22t31 54h210q7 0 11.5 4.5t4.5 11.5q0 8 -4.5 12t-11.5 4h-208q-5 29 -26 50t-50 26v80h352q32 0 53 21.5t21 51.5v362q0 27 -19 48t-47 24v0zM538 61v0v0v0v0q0 -25 -18 -43t-43 -18t-43 18t-18 43v0v0v0v0q0 25 18 43t43 18t43 -18t18 -43zM822 829v-87h-225 q-23 0 -42 13t-27 34l-16 40h310zM888 307q0 -17 -12.5 -29t-29.5 -12h-667q-17 0 -29 12t-12 29v531q-2 17 10.5 29.5t30.5 12.5h250q13 0 23 -7t15 -20l31 -77q12 -30 38.5 -48.5t60.5 -18.5h249q17 0 29.5 -12.5t12.5 -29.5v-360z" />
</svg>