<svg viewBox="0 0 256 256" xmlns="http://www.w3.org/2000/svg">
  <path transform="scale(1, -1) translate(0, -256)" fill="currentColor" d="M45 200q3 0 5 2.5t2 5.5v21q0 3 2.5 5.5t5.5 2.5h42v-142h-21q-3 0 -5 -2t-2 -5t2 -5t5 -2h94q3 0 5 2t2 5t-2 5t-5 2h-21v142h42q3 0 5.5 -2.5t2.5 -5.5v-22q0 -3 2 -5t5 -2t5 2t2 5v22q0 9 -6.5 15.5t-15.5 6.5h-136q-9 0 -15.5 -6.5t-6.5 -15.5v-22q0 -3 2 -5t5 -2z M140 96h-24v141h24v-141zM225 37l-19 19q-2 2 -5 2t-5 -2t-2 -5t2 -5l8 -8h-151l8 8q2 2 2 5t-2 5t-5 2t-5 -2l-20 -20q-2 -2 -2 -5t2 -5l19 -18q2 -2 4.5 -2t4.5 2t2 5t-2 5l-7 7h150l-8 -7q-2 -3 -2 -5.5t2 -4.5t5 -2t5 2l20 20q3 1 3 4t-2 5z" />
</svg>