<svg viewBox="0 0 256 256" xmlns="http://www.w3.org/2000/svg">
  <path transform="scale(1, -1) translate(0, -256)" fill="currentColor" d="M251 145q0 14 -9.5 23.5t-23.5 9.5t-23.5 -9.5t-9.5 -22.5t7.5 -22t18.5 -11v-29h-23l-27 49q-3 5 -8.5 8.5t-11.5 3.5t-11.5 -3.5t-8.5 -8.5l-1 -2l-23 43q-3 6 -8.5 9t-12 3t-11.5 -3t-8 -9l-51 -95v-5l3 -4h218q3 0 5 2t2 5t-2 5t-5 2h-2v29q11 2 18.5 11t7.5 21z M24 84l45 84q3 5 8 5t7 -5l45 -84h-105zM145 84l-17 32l6 10q2 4 7 4t8 -4l23 -43h-27v1zM198 145q0 8 6 13.5t13.5 5.5t13.5 -5.5t6 -13.5t-6 -13.5t-13.5 -5.5t-13.5 5.5t-6 13.5z" />
</svg>