<svg viewBox="0 0 1024 1024" xmlns="http://www.w3.org/2000/svg">
  <path transform="scale(1, -1) translate(0, -960)" fill="currentColor" d="M862 635q36 0 62 26t26 62t-25 62t-63 26q-36 0 -62 -26t-26 -62t26 -62t62 -26zM862 779q23 0 39.5 -16.5t16.5 -39.5t-16.5 -39.5t-39.5 -16.5q-22 0 -39 16.5t-17 39.5t17 39.5t39 16.5zM976 117h-62l-192 457q-10 22 -28.5 34.5t-42.5 12.5v0v0q-23 0 -42 -12.5 t-28 -34.5l-101 -251l-85 202q-9 21 -27.5 33.5t-42.5 12.5q-23 0 -42 -12.5t-29 -33.5l-164 -408h-42q-7 0 -11.5 -4.5t-4.5 -11.5t4.5 -11.5t11.5 -4.5h509v0v0h99v0v0v0v0h248v0v0v0v0h72q7 0 11.5 4.5t4.5 11.5t-4.5 11.5t-11.5 4.5v0zM613 562q6 14 17.5 20.5t22.5 6.5 v0v0q11 0 22.5 -6t17.5 -21l187 -445h-208v59q23 7 38 32.5t15 60.5q0 39 -20.5 66.5t-50.5 27.5t-50 -27.5t-20 -66.5q0 -35 15 -60.5t39 -32.5v-58h-72l-68 165zM654 205q-15 0 -26.5 18.5t-11.5 43.5t11.5 44t26.5 19q16 0 27.5 -19t11.5 -44t-11.5 -43.5t-27.5 -18.5z M286 512q6 14 18 20.5t22 6.5v0v0q11 0 22.5 -5.5t17.5 -21.5l165 -395h-406l161 395v0z" />
</svg>