<svg viewBox="0 0 1024 1024" xmlns="http://www.w3.org/2000/svg">
  <path transform="scale(1, -1) translate(0, -960)" fill="currentColor" d="M947 110l-86 -6v138q56 8 93.5 70.5t37.5 149.5q0 43 -11 86t-30.5 77.5t-46.5 56.5t-59 22q-52 0 -88.5 -50.5t-50.5 -117.5q-18 10 -38 15.5t-41 5.5q-66 0 -112 -46.5t-46 -112.5q0 -61 41 -105.5t101 -50.5v-154q-31 2 -61 9.5t-59 19.5l-46 21q-30 13 -56.5 31 t-49.5 42q-38 40 -85.5 66t-101.5 38l-104 23q-6 1 -12 -2.5t-7 -10.5q-1 -6 2 -12t11 -7l104 -23q49 -11 92.5 -35t78.5 -59q25 -25 54 -45.5t61 -34.5l46 -21q36 -16 75 -24t79 -8h14.5t14.5 2l288 22q7 0 11 5t3 13q-1 7 -5.5 9.5t-10.5 2.5v0zM845 672q44 0 79.5 -64.5 t35.5 -145.5q0 -70 -29 -123.5t-70 -63.5v71q0 7 -4.5 11.5t-11.5 4.5t-11.5 -4.5t-4.5 -11.5v-71q-42 10 -70.5 63.5t-28.5 123.5q0 81 35 145.5t80 64.5zM501 398q0 52 36.5 89.5t89.5 37.5q19 0 38 -6t34 -17q-1 -9 -2 -19.5t-1 -20.5q0 -40 9 -76t23 -64q-1 -2 -2.5 -2 t-2.5 -2q-15 -19 -36 -30.5t-45 -13.5v65q0 7 -4.5 11.5t-11.5 4.5q-8 0 -12 -4.5t-4 -11.5v-67q-45 6 -77 41.5t-32 84.5v0zM659 88h-7h-7v152q30 4 56.5 18t47.5 36q17 -21 37 -35t44 -17v-141zM181 584q53 0 90.5 37.5t37.5 90.5t-37.5 90.5t-90.5 37.5t-90.5 -37.5 t-37.5 -90.5q-1 -52 36.5 -90t91.5 -38zM181 810q39 0 67.5 -28.5t28.5 -67.5q0 -40 -28.5 -68t-67.5 -28q-40 0 -68 28t-28 68q0 39 27.5 67.5t68.5 28.5z" />
</svg>