<svg viewBox="0 0 256 256" xmlns="http://www.w3.org/2000/svg">
  <path transform="scale(1, -1) translate(0, -256)" fill="currentColor" d="M236 46l-18 -1v29q14 3 23.5 19t9.5 38q0 25 -11.5 44t-28.5 19q-13 0 -22.5 -11t-14.5 -29q-8 4 -17 4q-17 0 -29.5 -12.5t-12.5 -29t10 -28.5t25 -15v-32q-13 1 -25 7l-12 5q-14 6 -25 17q-20 21 -48 27l-26 6q-3 0 -5.5 -1.5t-3 -4t1 -5t4.5 -3.5l26 -5q24 -6 41 -23 q12 -13 30 -21l11 -5q19 -9 40 -9l79 6q3 1 5 3t1.5 5t-3 5t-5.5 1zM211 181q10 0 18 -15.5t8 -33.5q0 -15 -5.5 -27t-13.5 -16v13q0 3 -2 5.5t-5 2.5t-5 -2.5t-2 -5.5v-13q-8 4 -13.5 16t-5.5 27q1 18 8.5 33.5t17.5 15.5zM128 116q0 11 8.5 19.5t20.5 8.5q8 0 15 -4l-1 -9 q0 -19 8 -34q-6 -8 -15 -9v12q0 3 -2 5.5t-5 2.5t-5 -2.5t-2 -5.5v-12q-10 2 -16 10t-6 18zM164 41v0v33q13 2 23 11q7 -9 17 -11v-30zM45 159q15 0 25 10.5t10 25t-10 25t-24.5 10.5t-25 -10.5t-10.5 -25t10 -25t25 -10.5zM45 216q9 0 15 -6.5t6 -15t-6 -15t-15 -6.5 t-15 6.5t-6 15t6 15t15 6.5z" />
</svg>