<svg viewBox="0 0 1024 1024" xmlns="http://www.w3.org/2000/svg">
  <path transform="scale(1, -1) translate(0, -960)" fill="currentColor" d="M992 458q0 41 -16 77q-15 37 -42.5 64t-63.5 43q-37 16 -78 16q-28 0 -54 -7.5t-50 -21.5q-8 43 -25 83q-16 39 -38.5 69.5t-51.5 48.5q-28 18 -61 18t-61 -18q-29 -18 -51.5 -48.5t-38.5 -69.5q-17 -40 -25 -83q-23 14 -49.5 21.5t-54.5 7.5q-41 0 -78 -16 q-36 -16 -63.5 -43t-42.5 -64q-16 -36 -16 -77q0 -80 53.5 -136.5t130.5 -63.5v-194q0 -7 4.5 -11.5t11.5 -4.5t11.5 4.5t4.5 11.5v195q41 4 76.5 22.5t61.5 49.5v1t1 1q22 -30 50 -49.5t59 -24.5v-195q0 -7 4.5 -11.5t11.5 -4.5t11.5 4.5t4.5 11.5v195q31 4 59 23t50 49 q26 -32 62 -51t77 -22v-194q0 -7 4.5 -11.5t11.5 -4.5t11.5 4.5t4.5 11.5v194q77 7 130.5 63.5t53.5 136.5zM362 350q-22 -26 -51 -41.5t-63 -18.5v91q0 7 -4.5 11.5t-11.5 4.5t-11.5 -4.5t-4.5 -11.5v-91q-64 7 -108 54.5t-44 113.5q0 69 49 118.5t119 49.5q26 0 51.5 -8.5 t46.5 -23.5q-2 -14 -3 -27t-1 -26q0 -53 12.5 -100t32.5 -84l-5 -2.5t-4 -4.5zM528 291v98q0 7 -4.5 11.5t-11.5 4.5t-11.5 -4.5t-4.5 -11.5v-98q-29 5 -54 26q-25 22 -43.5 55t-29.5 76t-11 91q0 55 13 105t34 88t49 61t58 23t58 -23q27 -22 48.5 -60.5t34.5 -87.5 q13 -50 13 -104q0 -49 -11 -92t-29.5 -76.5t-43.5 -55.5q-25 -21 -54 -26zM808 290v91q0 7 -4.5 11.5t-11.5 4.5t-11.5 -4.5t-4.5 -11.5v-91q-34 3 -64 18.5t-51 43.5q-1 2 -3.5 3.5t-4.5 1.5q20 37 32.5 84t12.5 98q0 13 -1 26.5t-3 26.5q22 16 47 24t51 8q70 0 119 -49 t49 -119q0 -65 -44 -112t-108 -54v0z" />
</svg>