<svg viewBox="0 0 256 256" xmlns="http://www.w3.org/2000/svg">
  <path transform="scale(1, -1) translate(0, -256)" fill="currentColor" d="M216 172q10 0 17.5 7t7.5 17.5t-7.5 18t-18 7.5t-18 -7.5t-7.5 -18t7.5 -17.5t18.5 -7zM216 208q4 0 7.5 -3.5t3.5 -8t-3.5 -8t-8 -3.5t-8 3.5t-3.5 8t3.5 8t8.5 3.5zM244 48h-14l-46 113q-3 6 -8.5 9.5t-12.5 3.5t-12 -3.5t-8 -9.5l-23 -56l-18 43q-3 7 -8 10.5t-12 3.5 t-12.5 -3.5t-7.5 -10.5l-41 -100h-9q-3 0 -5 -2t-2 -5t2 -5t5 -2h232q3 0 5 2.5t2 5.5t-2 4.5t-5 1.5zM156 155q2 5 7.5 5t6.5 -5l45 -107h-44v10q6 2 9.5 9t3.5 17t-6 18t-14.5 8t-14.5 -8t-6 -19q0 -9 4 -16t10 -9v-10h-13l-16 38zM164 70q-3 0 -5 4t-2 9.5t2.5 9t4.5 3.5 t4 -3.5t2 -9t-2 -9.5t-4 -4zM74 143q3 5 8 5t7 -5l39 -95h-92z" />
</svg>