<svg viewBox="0 0 256 256" xmlns="http://www.w3.org/2000/svg">
  <path transform="scale(1, -1) translate(0, -256)" fill="currentColor" d="M251 130q0 14 -6.5 26t-18.5 19.5t-25.5 8t-25.5 -5.5q-6 23 -18.5 38t-28.5 15t-28.5 -15t-17.5 -38q-12 5 -24 5q-22 0 -37.5 -15.5t-15.5 -36.5t13.5 -35.5t32.5 -17.5v-46q0 -3 2 -5t5 -2t5.5 2t2.5 5v46q19 3 31 16q11 -13 25 -15v-47q0 -3 2 -5t5 -2t5 2t2 5v46 q13 3 25 16q13 -14 31 -16v-46q0 -3 2.5 -5t5.5 -2t5 2t2 5v46q18 2 31 17.5t13 34.5zM88 106q-9 -12 -23 -14v19q0 3 -2 5t-5 2t-5.5 -2t-2.5 -5v-19q-13 2 -22.5 13t-9.5 26.5t11.5 26.5t27.5 11q13 0 21 -6v-12q0 -26 10 -45v0zM135 93v20q0 3 -2 5t-5 2t-5.5 -2t-2.5 -5 v-20q-12 4 -20 20.5t-8 37.5q0 17 5 32t13 24.5t17 9.5t17 -9.5t13 -24.5t5 -32q1 -21 -7 -37.5t-20 -20.5zM205 92v19q0 3 -2 5t-5 2t-5 -2t-2 -5v-19q-14 2 -23 14h-1q10 20 10 45l-1 12q11 7 22 7q16 0 27 -11.5t11.5 -27t-8.5 -26.5t-23 -13z" />
</svg>