<svg viewBox="0 0 1024 1024" xmlns="http://www.w3.org/2000/svg">
  <path transform="scale(1, -1) translate(0, -960)" fill="currentColor" d="M992 517q0 50 -35.5 85.5t-86.5 35.5q-50 0 -85.5 -35.5t-35.5 -85.5q0 -46 30.5 -80t74.5 -40v-139h-113l-109 201q-11 19 -29 30.5t-40 11.5v0v0q-21 0 -40 -11.5t-29 -30.5l-14 -25l-104 193q-11 19 -29 30.5t-40 11.5q-21 0 -40 -11.5t-29 -30.5l-204 -377v-0.5v-1.5 v-1v-1q-2 0 -2 -1v-2v0v0v0v0v-2t2 -3v-0.5v-0.5v-1v-1l0.5 -1t0.5 -2v0v0q1 -1 2.5 -1.5t2.5 -1.5h1h1q1 0 2 -1t2 -1h860q7 0 11.5 4.5t4.5 11.5t-4.5 11.5t-11.5 4.5h-21v139q45 5 76 39t31 80v0zM75 258l191 355q6 12 17 18t24 6t24.5 -6.5t17.5 -17.5l190 -355h-464v0z M581 258h-7l-76 144q1 1 2.5 2t1.5 2l21 37q6 12 17.5 18t24.5 6v0q13 0 24 -6.5t17 -17.5l101 -187h-126v2zM782 517q0 37 26.5 63t63.5 26t63.5 -26t26.5 -63t-26.5 -63.5t-63.5 -26.5t-63.5 26.5t-26.5 63.5z" />
</svg>