<svg viewBox="0 0 256 256" xmlns="http://www.w3.org/2000/svg">
  <path transform="scale(1, -1) translate(0, -256)" fill="currentColor" d="M226 147h-102q-5 0 -8 3t-3 8v34q0 10 -7 17l-28 28q-7 7 -17 7.5t-18 -6.5l-31 -29q-7 -8 -7 -18v-155q0 -10 7 -17.5t18 -7.5h196q11 0 18 7.5t7 17.5v86q0 10 -7 17.5t-18 7.5zM112 25v37q0 5 3 8t7 3h19q4 0 7.5 -3t3.5 -8v-37h-40zM237 36q0 -5 -3 -8t-8 -3h-60v37 q0 11 -7.5 18t-17.5 7h-19q-10 0 -17 -7t-7 -18v-37h-68q-5 0 -8 3.5t-3 7.5v155q0 4 3 7l31 30q3 3 7.5 2.5t7.5 -3.5l28 -28q3 -3 3 -8v-34q0 -10 7 -17.5t18 -7.5h102q5 0 8 -3t3 -7v-86zM77 188h-36q-3 0 -5 -2t-2 -5t2 -5t5 -2h36q3 0 5 2t2 5t-2 5t-5 2z" />
</svg>