<svg viewBox="0 0 1024 1024" xmlns="http://www.w3.org/2000/svg">
  <path transform="scale(1, -1) translate(0, -960)" fill="currentColor" d="M906 512h-412q-22 0 -38 16t-16 38v136q0 17 -6 33t-18 28l-112 114q-24 25 -60 26t-62 -25l-123 -116q-13 -12 -20 -29t-7 -34v-619q0 -36 25 -61t61 -25h786q36 0 61 25t25 61v344q2 36 -23 62t-61 26v0zM435 26v160q0 22 16 38t39 16h73q23 0 39 -16t16 -38v-162h-183 v2zM960 80q0 -23 -16 -38.5t-38 -15.5h-256v160q0 36 -25.5 61t-61.5 25h-73q-36 0 -61.5 -25t-25.5 -61v-162h-285q-22 1 -38 17t-16 39v619q0 11 4.5 21.5t13.5 18.5l123 117q17 16 39 15t38 -17l110 -113q7 -7 11.5 -17.5t4.5 -21.5v-136q0 -36 25 -61t61 -25h412 q22 0 38 -16t16 -38v-346v0zM307 677h-144q-7 0 -11.5 -4.5t-4.5 -11.5t4.5 -11.5t11.5 -4.5h144q7 0 11.5 4.5t4.5 11.5t-5 11.5t-11 4.5z" />
</svg>