<svg viewBox="0 0 1024 1024" xmlns="http://www.w3.org/2000/svg">
  <path transform="scale(1, -1) translate(0, -960)" fill="currentColor" d="M907 928q-7 0 -11.5 -4.5t-4.5 -11.5v-451l-653 425q-20 14 -44.5 15t-46.5 -11q-21 -12 -33.5 -32.5t-12.5 -44.5v-730q0 -24 12.5 -44.5t33.5 -32.5q10 -6 20.5 -8.5t22.5 -2.5t25 3.5t23 11.5l653 425v-451q0 -7 4.5 -11.5t11.5 -4.5t11.5 4.5t4.5 11.5v928 q0 7 -5 11.5t-11 4.5zM221 37q-13 -9 -29 -9.5t-29 7.5q-13 7 -21 20.5t-8 29.5v728q0 15 8 28t21 21q6 4 13 5.5t14 1.5q9 0 16.5 -2.5t14.5 -7.5l630 -411l-630 -411v0z" />
</svg>