<svg viewBox="0 0 256 256" xmlns="http://www.w3.org/2000/svg">
  <path transform="scale(1, -1) translate(0, -256)" fill="currentColor" d="M201 134q-13 0 -22.5 -8.5t-10.5 -21.5h-33v48h15q7 0 13 6t6 14v30q0 6 3.5 9.5t9 3.5t9 -3.5t3.5 -9.5v-12q0 -3 2.5 -5t5.5 -2t5 2t2 5v12q0 12 -8 19.5t-18.5 7.5t-18 -6t-8.5 -15h-20v36q0 3 -2.5 5t-5.5 2t-5 -2t-2 -5v-37h-20q-2 10 -9.5 16t-17.5 6t-18 -8 t-8 -19v-12q0 -3 2 -5.5t5 -2.5t5 2.5t2 5.5v12q0 5 4 9t9.5 4t9 -4t3.5 -9v-31q0 -8 5.5 -13.5t13.5 -5.5h15v-49h-33q-1 13 -11 21.5t-23.5 8.5t-23 -10t-9.5 -24v-17q0 -3 2 -5t5 -2t5 2t2 5v17q0 8 6 14t14 6t14 -6t6 -14v-47q0 -7 5.5 -13t13.5 -6h28v-15h-69 q-3 0 -5 -2t-2 -5t2 -5t5 -2h148q3 0 5 2t2 5t-2 5t-5 2h-67v15h28q8 0 13.5 5.5t5.5 13.5v47q0 8 6 14t14 6t14 -6t6 -14v-17q0 -3 2 -5t5 -2t5 2t2 5v17q-1 15 -11 25t-24 10zM101 172v21h54v-21q0 -2 -1.5 -4t-3.5 -2h-44q-2 0 -3.5 1.5t-1.5 4.5zM168 53q0 -2 -2 -3.5 t-4 -1.5h-68q-2 0 -4 1.5t-2 3.5v36h79v-36h1z" />
</svg>