<svg viewBox="0 0 1024 1024" xmlns="http://www.w3.org/2000/svg">
  <path transform="scale(1, -1) translate(0, -960)" fill="currentColor" d="M805 458q-51 0 -86.5 -35t-36.5 -84h-154v219h72q26 0 45 19t19 45v124q0 26 18.5 44t43.5 18q26 0 44.5 -18.5t18.5 -43.5v-50q0 -7 4.5 -11.5t11.5 -4.5t11.5 4.5t4.5 11.5v50q0 39 -28 66.5t-67 27.5q-37 0 -63.5 -25t-30.5 -61h-104v158q0 7 -4.5 11.5t-11.5 4.5 t-11.5 -4.5t-4.5 -11.5v-158h-104q-4 36 -30.5 61t-63.5 25q-40 0 -67.5 -28t-27.5 -66v-50q0 -7 4.5 -11.5t11.5 -4.5t11.5 4.5t4.5 11.5v50q0 26 18.5 44t44.5 18q25 0 43.5 -18.5t18.5 -43.5v-124q0 -26 19 -45t45 -19h72v-219h-154q-2 49 -38 84t-85 35q-51 0 -87 -36.5 t-36 -87.5v-67q0 -7 4.5 -11.5t11.5 -4.5t11.5 4.5t4.5 11.5v67q0 39 27 65.5t64 26.5q39 0 65 -27t26 -65v-185q0 -27 19 -45.5t45 -18.5h122v-1v-1v-83h-278q-8 0 -12 -4.5t-4 -11.5t4 -11.5t12 -4.5h588q8 0 12 4.5t4 11.5t-4 11.5t-12 4.5h-278v82v1v0h122q26 0 45 19 t19 45v186q0 38 27 64.5t64 26.5t64 -27t27 -64v-67q0 -8 4.5 -12t11.5 -4t11.5 4t4.5 12v67q1 51 -35.5 88t-87.5 37v0zM392 622v100h238v-100q0 -13 -9 -22.5t-23 -9.5h-174q-13 0 -22.5 9.5t-9.5 22.5zM682 147q0 -13 -9.5 -22.5t-22.5 -9.5h-276q-13 0 -22.5 9.5 t-9.5 22.5v159h340v-159z" />
</svg>