<svg viewBox="0 0 256 256" xmlns="http://www.w3.org/2000/svg">
  <path transform="scale(1, -1) translate(0, -256)" fill="currentColor" d="M75 251h-52q-7 0 -12.5 -5.5t-5.5 -12.5v-52q0 -3 2 -5t5 -2t5.5 2t2.5 5v52q0 2 1 3t3 1h52q3 0 5 2t2 5t-2.5 5t-5.5 2zM233 251h-52q-3 0 -5 -2t-2 -5t2 -5.5t5 -2.5h52q2 0 3 -1t1 -3v-52q0 -3 2 -5t5 -2t5 2t2 5v52q0 8 -5.5 13.5t-12.5 5.5zM244 82q-3 0 -5 -2 t-2 -5v-52q0 -2 -1.5 -3t-2.5 -1h-52q-3 0 -5 -2t-2 -5t2 -5t5 -2h52q7 0 12.5 5t5.5 13v52q0 3 -2 5t-5 2zM75 19h-52q-2 0 -3 1t-1 3v52q0 3 -2 5t-5 2t-5 -2t-2 -5v-52q0 -8 5 -13t13 -5h52q3 0 5 2t2 5t-2 5t-5 2z" />
</svg>