<svg viewBox="0 0 1024 1024" xmlns="http://www.w3.org/2000/svg">
  <path transform="scale(1, -1) translate(0, -960)" fill="currentColor" d="M301 928h-208q-25 0 -43 -18t-18 -43v-208q0 -7 4.5 -11.5t11.5 -4.5t11.5 4.5t4.5 11.5v208q0 12 8.5 20.5t20.5 8.5h208q7 0 11.5 4.5t4.5 11.5t-4.5 11.5t-11.5 4.5zM931 928h-208q-7 0 -11.5 -4.5t-4.5 -11.5t4.5 -11.5t11.5 -4.5h208q12 0 20.5 -8.5t8.5 -20.5v-208 q0 -7 4.5 -11.5t11.5 -4.5t11.5 4.5t4.5 11.5v208q0 25 -18 43t-43 18zM976 253q-7 0 -11.5 -4.5t-4.5 -11.5v-208q0 -12 -8.5 -20.5t-20.5 -8.5h-208q-7 0 -11.5 -4.5t-4.5 -11.5t4.5 -11.5t11.5 -4.5h208q25 0 43 18t18 43v208q0 7 -4.5 11.5t-11.5 4.5zM301 0h-208 q-12 0 -20.5 8.5t-8.5 20.5v208q0 7 -4.5 11.5t-11.5 4.5t-11.5 -4.5t-4.5 -11.5v-208q0 -25 18 -43t43 -18h208q7 0 11.5 4.5t4.5 11.5t-4.5 11.5t-11.5 4.5z" />
</svg>