<svg viewBox="0 0 1024 1024" xmlns="http://www.w3.org/2000/svg">
  <path transform="scale(1, -1) translate(0, -960)" fill="currentColor" d="M928 754q26 0 45 18.5t19 45.5v46q0 26 -19 45t-45 19h-46q-27 0 -45.5 -19t-18.5 -45v-8h-221v8q0 26 -19 45t-45 19h-47q-26 0 -45 -19t-19 -45v-8h-216v8q0 26 -18.5 45t-45.5 19h-46q-26 0 -45 -19t-19 -45v-46q0 -27 19 -45.5t45 -18.5h8v-218h-8q-26 0 -45 -19 t-19 -45v-46q0 -27 19 -45.5t45 -18.5h8v-218h-8q-26 0 -45 -19t-19 -45v-48q0 -26 19 -45t45 -19h46q27 0 45.5 19t18.5 45v8h216v-8q0 -26 19 -45t45 -19h47q26 0 45 19t19 45v8h219v-8q0 -26 19 -45t45 -19h48q26 0 45 19t19 45v46q0 27 -19 45.5t-45 18.5h-8v218h8 q26 0 45 19t19 45v46q0 27 -19 45.5t-45 18.5h-8v220h8v0zM850 864q0 13 9 22.5t23 9.5h46q13 0 22.5 -9.5t9.5 -22.5v-46q0 -14 -9.5 -23t-22.5 -9h-46q-14 0 -23 9t-9 23v46zM454 864q0 13 9.5 22.5t22.5 9.5h47q13 0 22.5 -9.5t9.5 -22.5v-46q0 -14 -9.5 -23t-22.5 -9 h-47q-13 0 -22.5 9t-9.5 23v46zM64 818v46q0 13 9.5 22.5t22.5 9.5h46q14 0 23 -9.5t9 -22.5v-46q0 -14 -9 -23t-23 -9h-46q-13 0 -22.5 9t-9.5 23zM64 424v46q0 14 9.5 23t22.5 9h46q14 0 23 -9t9 -23v-46q0 -13 -9 -22.5t-23 -9.5h-46q-13 0 -22.5 9.5t-9.5 22.5zM174 32 q0 -13 -9 -22.5t-23 -9.5h-46q-13 0 -22.5 9.5t-9.5 22.5v46q0 14 9.5 23t22.5 9h46q14 0 23 -9t9 -23v-46zM565 32q0 -13 -9.5 -22.5t-22.5 -9.5h-47q-13 0 -22.5 9.5t-9.5 22.5v46q0 14 9.5 23t22.5 9h47q13 0 22.5 -9t9.5 -23v-46zM960 78v-46q0 -13 -9.5 -22.5 t-22.5 -9.5h-46q-14 0 -23 9.5t-9 22.5v46q0 14 9 23t23 9h46q13 0 22.5 -9t9.5 -23zM960 472v-46q0 -14 -9.5 -23t-22.5 -9h-46q-14 0 -23 9t-9 23v46q0 13 9 22.5t23 9.5h46q13 0 22.5 -9.5t9.5 -22.5zM888 536h-8q-26 0 -45 -19t-19 -45v-46q0 -27 19 -45.5t45 -18.5h8 v-218h-8q-26 0 -45 -19t-19 -45v-8h-219v8q0 26 -19 45t-45 19h-47q-26 0 -45 -19t-19 -45v-8h-216v8q0 26 -18.5 45t-45.5 19h-6v216h8q26 0 45 19t19 45v46q0 27 -19 45.5t-45 18.5h-8v220h8q26 0 45 18.5t19 45.5v6h216v-8q0 -26 19 -45t45 -19h46q27 0 45.5 19t18.5 45 v8h220v-8q0 -26 18.5 -45t45.5 -19h8v-216h-2zM595 595h-166q-27 0 -45.5 -18.5t-18.5 -45.5v-165q0 -26 18.5 -45t45.5 -19h165q26 0 45 19t19 45v165q1 27 -17.5 45.5t-45.5 18.5v0zM627 365q0 -13 -9.5 -22.5t-22.5 -9.5h-166q-13 0 -22.5 9.5t-9.5 22.5v166 q0 13 9.5 22.5t22.5 9.5h165q13 0 22.5 -9.5t9.5 -22.5v-166h1z" />
</svg>