<svg viewBox="0 0 1024 1024" xmlns="http://www.w3.org/2000/svg">
  <path transform="scale(1, -1) translate(0, -960)" fill="currentColor" d="M912 616q-11 12 -26.5 19t-32.5 7h-85v209q0 33 -23 55t-54 22t-54 -22t-23 -55v-35q-9 7 -20 10.5t-24 3.5q-28 0 -49 -17t-27 -43q-9 7 -21 11.5t-25 4.5q-12 0 -23.5 -4t-21.5 -11v32q0 31 -22 54t-55 23q-32 0 -54 -22t-22 -55v-161h-80q-17 0 -32.5 -7t-27.5 -19 q-10 -12 -16 -28t-4 -33l51 -515q3 -30 25.5 -51t52.5 -21h583q31 0 53.5 20.5t24.5 51.5l51 515q3 17 -2 32.5t-17 28.5v0zM646 851q0 18 13 31.5t32 13.5t32 -13t13 -32v-464q0 -13 -9.5 -22.5t-22.5 -9.5h-58v496v0zM570 798q18 0 31 -12.5t13 -31.5v-399h-89v355v0v0v44 q0 18 13.5 31t31.5 13v0zM450 754q18 0 31 -13t13 -32v-354h-89v355q0 18 12.5 31t32.5 13v0zM283 803q0 18 13 31.5t32 13.5q18 0 31.5 -13t13.5 -32v-446h-58q-13 0 -22.5 9.5t-9.5 22.5v414v0zM850 43q-2 -19 -15.5 -31t-31.5 -12h-582q-18 0 -31.5 12t-15.5 31l-51 515 q-1 10 2.5 19.5t10.5 17.5q7 7 15.5 11.5t19.5 4.5h80v-222q0 -27 19 -45.5t45 -18.5h389q26 0 45 18.5t19 45.5v221h86q10 0 19 -4t17 -12q7 -8 9.5 -17t1.5 -20z" />
</svg>