<svg viewBox="0 0 256 256" xmlns="http://www.w3.org/2000/svg">
  <path transform="scale(1, -1) translate(0, -256)" fill="currentColor" d="M230 172q-7 8 -16 8h-19v49q0 9 -6.5 15.5t-15.5 6.5t-15.5 -6.5t-6.5 -15.5v-4q-3 1 -9 1t-11 -3.5t-8 -9.5q-4 3 -9.5 3t-8.5 -2v3q0 9 -6.5 15.5t-15.5 6.5t-15.5 -6.5t-6.5 -15.5v-37h-17q-10 0 -17.5 -8.5t-6.5 -17.5l13 -128q1 -9 7.5 -15t15.5 -6h145q9 0 15.5 6 t7.5 15l12 128q1 11 -6 18zM165 229q0 3 2.5 5.5t5.5 2.5t5.5 -2.5t2.5 -5.5v-116q0 -2 -1.5 -3.5t-3.5 -1.5h-12v121h1zM142 212q4 0 6 -2t2 -6v-96h-16v96q0 4 2.5 6t5.5 2zM112 202q4 0 6 -2.5t2 -5.5v-86h-16v86q0 3 2.5 5.5t5.5 2.5zM74 217q0 3 2 5.5t5.5 2.5t6 -2.5 t2.5 -5.5v-109h-12q-2 0 -3.5 1.5t-1.5 3.5v104h1zM210 27q-1 -3 -3.5 -5.5t-5.5 -2.5h-146q-3 0 -5.5 2.5t-3.5 5.5l-12 129q-1 3 2 6t7 3h17v-52q0 -8 5.5 -13.5t13.5 -5.5h97q8 0 13.5 5.5t5.5 13.5v53h19q3 0 5.5 -3t2.5 -7z" />
</svg>