<svg viewBox="0 0 1024 1024" xmlns="http://www.w3.org/2000/svg">
  <path transform="scale(1, -1) translate(0, -960)" fill="currentColor" d="M904 421q-20 3 -40 -1.5t-37 -17.5q-11 -9 -22.5 -13t-23.5 -7q1 33 33 77.5t48 62.5q5 4 4.5 10.5t-5.5 11.5t-11.5 4t-11.5 -6q-7 -7 -47.5 -60t-41.5 -101q-12 2 -24 7t-23 12q-18 12 -37.5 16.5t-38.5 1.5q-44 -8 -68.5 -42.5t-18.5 -77.5q18 -120 48.5 -170 t50.5 -64q15 -10 30 -13.5t34 -0.5q14 2 20.5 6.5t10.5 9.5q6 6 14.5 10t17.5 4q8 0 16.5 -3.5t15.5 -10.5q3 -4 11 -9.5t21 -6.5q3 0 7.5 -1t8.5 -1q13 0 25 4t23 12q19 14 49 64.5t48 169.5v0q8 44 -18 80t-68 43v0zM960 306q-18 -114 -45 -158t-40 -54q-8 -6 -18 -8 t-22 0q-6 0 -8 2l-5 5q-10 11 -25 16.5t-29 5.5t-29 -5.5t-25 -16.5q-2 -1 -5 -3t-10 -4q-13 -1 -22 0.5t-18 7.5q-13 10 -40.5 53t-44.5 159q-4 31 13 54.5t48 29.5q3 0 5.5 1t5.5 1q11 0 21.5 -3.5t20.5 -10.5q18 -14 39 -21t43 -7h6q22 2 40 9t35 19q11 8 25 11.5t28 0.5 q25 -6 42.5 -31t13.5 -53v0zM470 845h-139q-25 0 -44.5 -16t-25.5 -40l-24 -106v-3v-3h-139q-14 0 -26.5 -5.5t-21.5 -15.5q-10 -10 -14.5 -23t-3.5 -27l42 -494q2 -25 21 -42t44 -17h227q26 0 45 17t21 42l42 493q1 13 -3.5 26.5t-14.5 22.5q-10 10 -22.5 15.5t-25.5 5.5 h-139l24 106q2 13 13.5 21.5t24.5 8.5h139q8 0 12 4.5t4 11.5t-5 12.5t-11 5.5v0zM400 115q-1 -13 -10.5 -21.5t-23.5 -8.5h-227q-13 0 -22.5 8.5t-10.5 21.5l-32 381h358zM432 634q5 -5 7 -12t1 -14l-6 -80h-364l-6 80q0 7 1.5 13.5t6.5 12.5q6 4 12 6.5t14 2.5h310 q7 0 13 -2.5t11 -6.5z" />
</svg>