<svg viewBox="0 0 256 256" xmlns="http://www.w3.org/2000/svg">
  <path transform="scale(1, -1) translate(0, -256)" fill="currentColor" d="M227 124q-12 2 -22 -5q-2 -2 -6 -3q2 6 7.5 14t11.5 14q2 2 2 5t-2 5t-5 2t-5 -2q-20 -22 -23 -38q-4 1 -7 3q-11 7 -22.5 5t-18 -12t-5.5 -22q8 -47 26 -60q7 -4 14 -4h5q5 1 8 4t6.5 3t7 -3t8.5 -4q11 -1 18 4q18 13 26 60q2 12 -5 22t-19 12zM237 93q-4 -25 -11 -39 q-5 -9 -9 -11.5t-8 -2.5q-1 0 -2 1q-7 7 -15.5 7t-15.5 -7l-2 -1q-4 0 -8 3t-9 11q-7 14 -11 39q-1 6 3 11t10 6h2q5 0 9 -2q10 -8 22 -8h2q11 1 20 8q5 3 11 2t9.5 -6t2.5 -11zM118 230h-35q-7 0 -13 -4.5t-8 -11.5l-6 -26h-32q-8 0 -14 -6.5t-5 -14.5l10 -123 q1 -8 6.5 -13t12.5 -5h57q8 0 13.5 5t5.5 13l11 123q0 9 -5.5 15t-14.5 6h-31l5 23q1 2 3 3.5t4 1.5h35q3 0 5 2t2 5t-1.5 5t-4.5 2zM92 40h-57q-2 0 -3.5 1.5t-1.5 3.5l-8 92h83l-8 -92q0 -2 -1.5 -3.5t-3.5 -1.5zM106 172q2 -2 1 -4l-1 -17h-86l-1 17q0 2 1.5 4t3.5 2h78 q2 0 4 -2z" />
</svg>