<svg viewBox="0 0 1024 1024" xmlns="http://www.w3.org/2000/svg">
  <path transform="scale(1, -1) translate(0, -960)" fill="currentColor" d="M736 835h-448q-34 0 -57 -23t-23 -57v-555q0 -30 19 -52.5t48 -25.5v-45q0 -7 4.5 -11.5t11.5 -4.5t11.5 4.5t4.5 11.5v45h391v-45q0 -7 4 -11.5t12 -4.5q7 0 11.5 4.5t4.5 11.5v45h6q34 0 57 23t23 57v553q0 34 -24 57t-56 23v0zM784 200q0 -20 -14 -34t-34 -14h-448 q-20 0 -34 14t-14 34v555q0 21 14 34.5t34 13.5h448q20 0 34 -13.5t14 -34.5v-555zM669 635q-7 0 -11.5 -4.5t-4.5 -11.5v-73q0 -8 4.5 -12t11.5 -4t11.5 4t4.5 12v73q0 6 -5 11t-11 5z" />
</svg>