<svg viewBox="0 0 256 256" xmlns="http://www.w3.org/2000/svg">
  <path transform="scale(1, -1) translate(0, -256)" fill="currentColor" d="M229 130q-14 17 -35 24q10 5 16 15t6 21q0 18 -12 30t-29.5 12t-29.5 -12.5t-12 -29.5q0 -11 6 -21t16 -15q-21 -7 -35 -24l-2 -2q-8 5 -17 8q10 5 16.5 15t6.5 21q0 18 -12.5 30t-29.5 12t-29.5 -12t-12.5 -30q0 -11 6.5 -21t16.5 -15q-21 -7 -35 -24q-10 -12 -16 -28.5 t-6 -35.5q0 -4 4 -6q12 -6 27 -11q24 -7 46.5 -7t46.5 7q14 5 26 11l1 1q13 -2 19 -2q23 0 46 8q15 5 26 11q4 1 4 6q-3 40 -23 64zM147 191q0 11 8 19t19.5 8t19.5 -8t8 -19.5t-8 -19.5t-19.5 -8t-19.5 8t-8 20zM54 173q0 11 8 19t19.5 8t19.5 -8t8 -19.5t-8 -19.5 t-19.5 -8t-19.5 8t-8 20zM82 38q-30 0 -63 15q2 31 19 51q18 21 43.5 21t43 -20.5t19.5 -52.5q-31 -14 -62 -14zM174 56q-8 0 -16 1q-3 33 -22 56q-3 4 -7 7l2 2q18 21 43.5 21t43 -20.5t19.5 -52.5q-11 -5 -25 -9q-19 -5 -38 -5z" />
</svg>