<svg viewBox="0 0 1024 1024" xmlns="http://www.w3.org/2000/svg">
  <path transform="scale(1, -1) translate(0, -960)" fill="currentColor" d="M906 450q-35 40 -79.5 65.5t-93.5 31.5q51 12 85.5 53.5t34.5 97.5q0 63 -45.5 109t-109.5 46q-65 0 -110.5 -45.5t-45.5 -109.5q0 -56 34.5 -97.5t85.5 -53.5q-50 -7 -94 -32t-78 -65q-4 -4 -7.5 -9t-7.5 -11q-26 18 -54.5 29t-58.5 16q51 12 85.5 53.5t34.5 97.5 q0 63 -45.5 109t-110.5 46q-64 0 -109.5 -45.5t-45.5 -109.5q0 -56 34.5 -97.5t85.5 -53.5q-49 -7 -93.5 -32t-79.5 -65q-40 -47 -62.5 -111.5t-23.5 -136.5q0 -5 2.5 -8.5t7.5 -6.5q12 -6 40 -18q28 -13 66 -24.5t84 -20.5t94 -9q53 0 100 9t84.5 21t63.5 24q27 12 39 18 q2 1 3.5 2.5t2.5 4.5q21 -4 41 -5.5t39 -1.5q53 0 100 9t84.5 21t63.5 24q27 12 39 18q3 3 5.5 6.5t2.5 8.5q-3 72 -25.5 136t-62.5 112v0zM574 699q0 51 36.5 87t87.5 36q50 0 86.5 -36t36.5 -87q0 -50 -36 -86.5t-87 -36.5q-52 0 -88 36t-36 87zM203 627q0 51 36.5 87 t86.5 36q51 0 87.5 -36t36.5 -87q0 -50 -36.5 -86.5t-87.5 -36.5t-87 36.5t-36 86.5zM326 74q-86 0 -160 26t-102 38q2 64 22 121t56 99q36 44 84 67t100 23q53 0 100.5 -23t83.5 -67q36 -42 56 -98.5t23 -120.5q-30 -15 -100.5 -40t-162.5 -25zM698 146q-20 0 -39 2t-40 4 q-5 66 -26 124.5t-59 102.5q-8 10 -16.5 18.5t-16.5 15.5q3 5 6.5 9.5t6.5 7.5q36 44 83.5 67t100.5 23q52 0 100 -23t84 -67q36 -42 56 -98.5t22 -120.5q-29 -15 -100 -40t-162 -25z" />
</svg>