<svg viewBox="0 0 256 256" xmlns="http://www.w3.org/2000/svg">
  <path transform="scale(1, -1) translate(0, -256)" fill="currentColor" d="M224 149q9 12 9 27q0 20 -14 34t-34 14t-33.5 -14t-13.5 -34v0h-20v0q0 20 -14 34t-33.5 14t-33.5 -14t-14 -34q0 -15 9 -27q-13 -9 -20 -21t-7 -24q0 -20 16.5 -36.5t44.5 -26t62 -9.5t62.5 9.5t45 26t16.5 36.5q-1 12 -8 24t-20 21zM185 210q14 0 24 -10t10 -23.5 t-10 -23.5t-24 -10t-23.5 10t-9.5 23.5t9.5 23.5t23.5 10zM71 210q14 0 23.5 -10t9.5 -24v-7q-3 -11 -12 -18.5t-22 -7.5t-23 9.5t-10 23.5t10 24t24 10zM128 46q-29 0 -54 8t-40 21t-15 29q0 19 23 35q13 -10 28.5 -10t28.5 9t17 24h25q5 -15 17 -24t28 -9t29 10 q23 -16 23 -35q-1 -16 -16 -29t-40 -21t-54 -8zM190 100q-13 -6 -29 -9.5t-33 -3.5q-37 0 -64 14q-3 1 -5.5 0t-4 -3t-0.5 -5t3 -5q15 -7 33 -11.5t38 -4.5q39 0 68 15q3 1 3.5 4t-0.5 5.5t-3.5 3.5t-5.5 0z" />
</svg>