<svg viewBox="0 0 256 256" xmlns="http://www.w3.org/2000/svg">
  <path transform="scale(1, -1) translate(0, -256)" fill="currentColor" d="M244 120h-14q7 9 7 21v17q0 14 -10.5 24.5t-24.5 10.5h-84v20q0 3 -2 5t-5 2h-31q-3 0 -5 -2t-2 -5v-20h-19q-15 0 -25 -10.5t-10 -24.5v-17q0 -11 7 -21h-14q-3 0 -5 -2t-2 -5v-56q0 -3 2 -5t5 -2h11q3 -6 8.5 -10t12.5 -4t12.5 4t8.5 10h11q2 -6 8 -10t12.5 -4t12 4 t8.5 10h23q3 -6 8.5 -10t12.5 -4t12.5 4t8.5 10h10q3 -6 8.5 -10t12.5 -4t12.5 4t8.5 10h10q3 0 5 2t2 5v56q0 3 -2 5t-5 2zM87 206h17v-14h-17v14zM33 141v17q0 8 6 14.5t15 6.5h148q8 0 14.5 -6t6.5 -15v-17q0 -8 -6 -14.5t-15 -6.5h-148q-9 0 -15 6.5t-6 14.5zM44 50 q-4 0 -6.5 3t-2.5 6.5t2.5 6t6.5 2.5t6.5 -2.5t2.5 -6t-2.5 -6.5t-6.5 -3zM96 50q-4 0 -6.5 3t-2.5 6.5t2.5 6t6.5 2.5t6.5 -2.5t2.5 -6t-2.5 -6.5t-6.5 -3zM160 50q-4 0 -6.5 3t-2.5 6.5t2.5 6t6.5 2.5t6.5 -2.5t2.5 -6t-2.5 -6.5t-6.5 -3zM212 50q-4 0 -6.5 3t-2.5 6.5 t2.5 6t6.5 2.5t6.5 -2.5t2.5 -6t-2.5 -6.5t-6.5 -3zM237 64h-3q-1 8 -7.5 13t-14.5 5t-14 -5t-8 -13h-8q-1 8 -7.5 13t-14.5 5t-14 -5t-8 -13h-20q-1 8 -7.5 13t-14.5 5t-14 -5t-8 -13h-8q-2 8 -8 13t-14 5t-14 -5t-8 -13h-3v42h218v-42z" />
</svg>