<svg viewBox="0 0 1024 1024" xmlns="http://www.w3.org/2000/svg">
  <path transform="scale(1, -1) translate(0, -960)" fill="currentColor" d="M987 427l-89 163q-5 8 -12.5 12t-16.5 4h-123q-16 0 -26.5 -10.5t-10.5 -25.5v-18h-109v5.5v5.5v95q0 67 -47 114t-115 47h-224q-67 0 -114 -47t-47 -114v-95q0 -42 19 -76.5t51 -56.5h-21q-12 0 -22 -7.5t-13 -19.5l-32 -120q-2 -8 0 -17t8 -16l61 -72q5 -6 12.5 -9.5 t16.5 -3.5h38q6 -37 35 -62.5t68 -25.5q28 0 52 14t37 37q13 -23 37 -37t53 -14q38 0 67 25.5t35 62.5h111q6 -37 35 -62.5t67 -25.5t67 25.5t35 62.5h44q7 0 13.5 2.5t10.5 6.5l41 37q6 5 9.5 12.5t3.5 14.5v172q0 4 -1 9t-4 8v0zM747 576h123l79 -144h-207v139q0 1 1.5 3 t3.5 2zM86 565v94q0 54 38 92t92 38h224q54 0 92 -38t38 -92v-94q0 -54 -38 -92t-92 -38h-224q-54 0 -92 38t-38 92v0zM597 520h113v-90h-177q23 17 39 39.5t25 50.5zM270 109q-30 0 -51 21t-21 51t21 51t51 21t51 -21t21 -51t-21 -51t-51 -21zM450 109q-30 0 -51 21t-21 51 t21 51t51 21t51 -21t21 -51t-21 -51t-51 -21zM766 109q-30 0 -51 21t-21 51t21 51t51 21t51 -21t21 -51t-21 -51t-51 -21zM958 235l-41 -37l-1 -0.5t-2 -0.5h-44q-6 37 -35 62.5t-67 25.5t-67 -25.5t-35 -62.5h-111q-6 37 -35 62.5t-67 25.5q-29 0 -53 -14.5t-37 -36.5 q-13 22 -37 36.5t-52 14.5q-39 0 -68 -25.5t-35 -62.5h-41h-3t-1 1l-60 72q-2 2 -2 3v2l34 120q0 1 1.5 2t2.5 1h858v-160v-2t-2 -1v0zM328 494q40 0 68 28.5t28 67.5q0 38 -39 83t-46 52q-5 5 -11 5t-11 -5q-6 -6 -45.5 -51.5t-39.5 -83.5q1 -39 28.5 -67.5t67.5 -28.5z M328 690q22 -23 43 -52.5t21 -47.5q0 -26 -19 -45t-45 -19t-45 19t-19 45q1 17 22.5 47t41.5 53z" />
</svg>