<svg viewBox="0 0 256 256" xmlns="http://www.w3.org/2000/svg">
  <path transform="scale(1, -1) translate(0, -256)" fill="currentColor" d="M250 124l-23 41q-3 6 -9 6h-31q-5 0 -9 -4t-4 -9v-1h-20v23q0 18 -13 30.5t-31 12.5h-56q-18 0 -30.5 -12.5t-12.5 -30.5v-24q0 -18 13 -30q-4 -1 -6.5 -3.5t-3.5 -5.5l-8 -30q-2 -6 2 -11l16 -18q3 -4 9 -4h7q3 -10 10.5 -16t17.5 -6q15 0 23 10q4 -5 10 -7.5t12 -2.5 q10 0 18 6t10 16h23q2 -10 10 -16t18 -6t18 6t10 16h8q5 0 8 3l11 9q4 3 4 9v43q0 3 -1 6zM216 157l16 -30h-44v30h28zM151 143h23v-16h-33q7 7 10 16zM25 180q0 13 8.5 21.5t20.5 8.5h56q12 0 20.5 -9t8.5 -21v-23q0 -12 -8.5 -20.5t-20.5 -8.5h-56q-12 0 -20.5 8.5 t-8.5 20.5v23zM68 46q-7 0 -11.5 4.5t-4.5 10.5t4.5 10.5t11 4.5t11 -4t4.5 -10.5t-4.5 -11t-10.5 -4.5zM112 46q-6 0 -10.5 4.5t-4.5 10.5t4.5 10.5t11 4.5t11 -4t4.5 -10.5t-4.5 -11t-11.5 -4.5zM192 46q-7 0 -11.5 4.5t-4.5 11t4.5 10.5t11 4t11 -4t4.5 -10.5t-4.5 -11 t-10.5 -4.5zM228 68h-8q-3 10 -10.5 16t-18 6t-18 -6t-9.5 -16h-23q-3 10 -10.5 16t-17.5 6q-14 0 -23 -11q-4 5 -10 8t-12 3q-10 0 -18 -6t-10 -16h-7l-14 17l8 28h210v-37zM82 136q11 0 19 8t8 19q0 9 -10 22q-5 7 -12 14q-2 2 -5 2t-5 -2q-7 -7 -13 -14q-9 -13 -9 -22 q0 -11 8 -19t19 -8zM82 184q5 -6 9 -12t4 -8q0 -6 -4 -9.5t-9 -3.5t-9 3.5t-4 9t13 20.5z" />
</svg>