<svg viewBox="0 0 1024 1024" xmlns="http://www.w3.org/2000/svg">
  <path transform="scale(1, -1) translate(0, -960)" fill="currentColor" d="M976 643q7 0 11.5 4.5t4.5 11.5v208q0 25 -18 43t-43 18h-208q-7 0 -11.5 -4.5t-4.5 -11.5t4.5 -11.5t11.5 -4.5h208h2.5h2.5l-424 -426l-426 426h3h2h208q7 0 11.5 4.5t4.5 11.5t-4.5 11.5t-11.5 4.5h-208q-12 0 -23.5 -4.5t-19.5 -13.5v0v0v0v0q-7 -8 -11.5 -19 t-4.5 -24v-208q0 -7 4.5 -11.5t11.5 -4.5t11.5 4.5t4.5 11.5v208v2.5v2.5l426 -424l-426 -426v3v2v208q0 7 -4.5 11.5t-11.5 4.5t-11.5 -4.5t-4.5 -11.5v-208q0 -24 18 -41.5t43 -17.5h208q7 0 11.5 4.5t4.5 11.5t-4.5 11.5t-11.5 4.5h-208h-2.5h-2.5l424 426l422 -423l2 -1 h2h-4h-3h-208q-7 0 -11.5 -4.5t-4.5 -11.5q0 -8 4.5 -12t11.5 -4h208q25 0 43 17.5t18 42.5v208q0 8 -4.5 12t-11.5 4t-11.5 -4t-4.5 -12v-208v-3v-3q0 1 -1 2l-1 1l-424 421l426 426v-3v-2v-208q0 -9 4.5 -13.5t11.5 -4.5z" />
</svg>