<svg viewBox="0 0 1024 1024" xmlns="http://www.w3.org/2000/svg">
  <path transform="scale(1, -1) translate(0, -960)" fill="currentColor" d="M838 928h-652q-39 0 -66 -27t-27 -66v-51q0 -17 5.5 -33t16.5 -29l277 -343v-296q0 -29 16.5 -53t44.5 -35l54 -19q9 -2 16.5 -4t15.5 -2q15 0 28 4t25 12q19 13 29.5 33.5t10.5 42.5v317l277 341q11 13 16.5 29.5t5.5 32.5v53q0 39 -27 66t-66 27zM125 835q0 25 17.5 43 t43.5 18h651q25 0 43 -18t18 -43v-51q0 -6 -1.5 -12t-3.5 -10h-1.5h-1.5h-762q-2 4 -2.5 10t-0.5 12v51zM605 394q-1 -3 -2 -5.5t-1 -4.5v-322q0 -15 -7 -28t-19 -21q-12 -9 -27 -11t-29 3l-56 19q-18 7 -29 22.5t-11 35.5v302q0 2 -1 5t-2 5l-272 334h725z" />
</svg>