<svg viewBox="0 0 1024 1024" xmlns="http://www.w3.org/2000/svg">
  <path transform="scale(1, -1) translate(0, -960)" fill="currentColor" d="M941 909q-4 8 -11.5 13.5t-17.5 5.5h-800q-10 0 -18 -4.5t-12 -13.5q-4 -7 -3 -16t7 -17l284 -327v0v0v0v0v0v0v0l1 -1l-0.5 0.5l-0.5 0.5v-550q0 -8 3.5 -15t10.5 -11q4 -2 8.5 -3t9.5 -1q4 0 9 1t10 3l221 138l3 2q6 6 8.5 12t2.5 12v411v0.5v0.5l280 327q6 6 7 14.5 t-2 17.5zM632 573q-6 -6 -7 -12t-1 -11v-411v0l-2 -1l-217 -138h-2t-1 -2v551q0 5 -2 11t-5 8l-283 328h798z" />
</svg>