<svg viewBox="0 0 1024 1024" xmlns="http://www.w3.org/2000/svg">
  <path transform="scale(1, -1) translate(0, -960)" fill="currentColor" d="M968 830v1v1v2.5t-2 2.5v0v0v1.5t-1 1.5q-9 26 -59 43q-51 17 -119.5 27t-143.5 14t-131 4t-131 -4t-143.5 -14.5t-119.5 -27.5t-60 -44q0 -1 -0.5 -1.5l-1.5 -1.5v0v0q0 -1 -1 -2t-1 -3v-0.5v-0.5v-1v-1q0 -2 0.5 -3.5l1.5 -4.5q1 -15 7 -29t15 -25l303 -357v-331 q0 -21 12 -38t31 -23l131 -45q5 -2 11 -2.5t12 -0.5q9 0 18.5 3.5t17.5 9.5q14 9 21 23t7 30v377l302 355q10 12 15.5 26t6.5 29q2 2 2 4.5v4.5q0 -1 0 -0.5v0.5v0zM512 896q101 0 180 -7q78 -7 132 -17.5t82 -22.5q29 -11 30 -20v-1v-1q-2 -8 -30 -19q-29 -12 -82.5 -22 t-131.5 -17q-79 -7 -180 -7t-180 7q-78 7 -131.5 17t-82.5 21q-28 12 -30 20v1v1q1 9 30 20q28 12 82 22.5t132 17.5q79 7 180 7zM614 426q-2 -3 -2.5 -5.5t-0.5 -4.5v-382q0 -9 -3.5 -16t-10.5 -12q-6 -4 -14 -5.5t-17 1.5l-131 46q-9 4 -15.5 12.5t-6.5 17.5v338q0 2 -1 5 t-2 5l-298 352q35 -14 86 -23q51 -10 106.5 -15.5t109.5 -7.5q55 -2 98 -2t98 2q54 2 109.5 7.5t106.5 15.5q51 9 86 23z" />
</svg>