<svg viewBox="0 0 256 256" xmlns="http://www.w3.org/2000/svg">
  <path transform="scale(1, -1) translate(0, -256)" fill="currentColor" d="M245 224v0q0 2 -1 3q-6 14 -54 20q-29 4 -62 4t-61 -4q-49 -6 -55 -20q-1 -1 -1 -3v-3q1 -8 7 -15l74 -89v-81q0 -6 4 -11.5t9 -6.5l33 -12q3 -1 6 -1q7 0 12 4q8 5 8 15v94l74 88q6 7 7 15v3v-1v1zM128 237q40 0 70 -5q25 -4 32 -9q-7 -5 -32 -9q-30 -4 -70 -4t-70 4 q-25 4 -32 9q7 5 32 9q30 5 70 5zM151 124q-1 -1 -1 -4v-96q0 -2 -2.5 -3.5t-5.5 -1.5l-32 11q-4 2 -4 5v85q0 3 -2 4l-67 80q19 -5 52 -7q20 -1 38.5 -1t39.5 1q32 2 51 7z" />
</svg>