<svg viewBox="0 0 1024 1024" xmlns="http://www.w3.org/2000/svg">
  <path transform="scale(1, -1) translate(0, -960)" fill="currentColor" d="M589 -32q-4 0 -7.5 1t-7.5 2l-155 56q-12 5 -19.5 15t-7.5 24v324l-269 335q-11 13 -16 28.5t-5 32.5v102q0 17 12 28.5t28 11.5h738q17 0 28.5 -11.5t11.5 -28.5v-102q0 -17 -5.5 -33t-15.5 -28l-269 -335v-382q0 -10 -4.5 -19t-12.5 -15l-12 -4t-12 -2v0zM142 896 q-3 0 -5.5 -2t-2.5 -6v-102q0 -11 4 -22.5t11 -19.5l273 -339q2 -3 3 -5t1 -5v-331q0 -2 1 -4.5t5 -3.5l155 -56q3 -1 5 -0.5t3 2.5q1 1 2 2.5t1 3.5v387q0 3 1 5t3 5l273 339q7 8 11 19t4 23v102q0 4 -2.5 6t-5.5 2h-740v0z" />
</svg>