<svg viewBox="0 0 1024 1024" xmlns="http://www.w3.org/2000/svg">
  <path transform="scale(1, -1) translate(0, -960)" fill="currentColor" d="M760 944h-331q-18 0 -35 -7t-29 -20l-167 -168q-12 -13 -18.5 -29.5t-6.5 -34.5v-643q0 -38 26 -64t63 -26h498q37 0 63.5 26t26.5 64v812q1 38 -26 64t-64 26v0zM819 42q0 -24 -16.5 -41t-40.5 -17h-498q-24 0 -41 17t-17 41v644q0 12 4.5 22.5t11.5 17.5l165 168 q9 9 19.5 13.5t22.5 4.5h333q24 0 40.5 -17t16.5 -41v-812v0zM464 448q7 0 11.5 4.5t4.5 11.5t-4.5 11.5t-11.5 4.5h-138q-7 0 -11.5 -4.5t-4.5 -11.5v-128q0 -7 4.5 -11.5t11.5 -4.5h122v-96h-120q-7 0 -11.5 -4.5t-4.5 -11.5t4.5 -11.5t11.5 -4.5h120q13 0 22.5 9.5 t9.5 22.5v96q0 13 -9.5 22.5t-22.5 9.5h-104v96h120zM725 448q7 0 11.5 4.5t4.5 11.5t-4.5 11.5t-11.5 4.5h-120q-13 0 -22.5 -9.5t-9.5 -22.5v-224q0 -13 9.5 -22.5t22.5 -9.5h104q13 0 22.5 9.5t9.5 22.5v78q0 14 -9.5 23t-22.5 9h-11q-8 0 -12 -4t-4 -12q0 -7 4 -11.5 t12 -4.5h11v-80h-104v226h120z" />
</svg>