<svg viewBox="0 0 1024 1024" xmlns="http://www.w3.org/2000/svg">
  <path transform="scale(1, -1) translate(0, -960)" fill="currentColor" d="M370 307q32 0 55 23t23 56q0 32 -23 55t-55 23q-33 0 -56 -23t-23 -55q0 -33 23 -56t56 -23zM370 432q19 0 32.5 -13.5t13.5 -32.5q0 -20 -13.5 -33.5t-32.5 -13.5q-20 0 -33.5 13.5t-13.5 33.5q0 19 13.5 32.5t33.5 13.5zM787 637q33 0 56 23t23 55q0 33 -23 56t-56 23 q-32 0 -55 -23t-23 -56q0 -32 23 -55t55 -23zM787 762q19 0 33 -14t14 -33t-14 -32.5t-33 -13.5t-32.5 13.5t-13.5 32.5t13.5 33t32.5 14zM888 925h-328q-43 0 -73.5 -30.5t-30.5 -73.5v-226h-336q-34 0 -57 -23t-23 -57v-464q0 -33 23 -56.5t57 -23.5h376q34 0 57 23.5 t23 56.5v250h314q43 0 73.5 30.5t30.5 73.5v416q-2 43 -32.5 73.5t-73.5 30.5v0zM488 821q0 30 21 51t51 21h330q30 0 51 -21t21 -51v-248q-10 -5 -24 -15t-18 -12q-11 -8 -21.5 -17t-20.5 -17q-27 -24 -56 -42t-65 -4q-7 2 -13.5 7t-13.5 10l-5 5q-18 14 -38 28t-44 20 q-17 5 -34 4.5t-36 -6.5q-7 27 -28 44t-49 17h-8v226v0zM120 563h376q20 0 34 -13.5t14 -34.5v-272q-6 -3 -16 -9.5t-26 -17.5q-10 -7 -21 -15.5t-20 -18.5q-28 -24 -57 -41.5t-65 -4.5q-7 2 -14 7.5t-15 11.5l-3 5q-18 14 -37.5 28t-43.5 22q-41 12 -77 -5t-67 -37 q-3 -1 -5.5 -3t-6.5 -3v353q2 21 16 34.5t34 13.5v0zM496 3h-376q-20 0 -34 14t-14 34v72q7 4 14 8.5t13 7.5q29 18 59 32.5t60 4.5q19 -6 36 -18t34 -25l3 -3q9 -8 18 -14.5t21 -11.5q10 -4 20 -6t18 -2q35 0 62.5 19t51.5 40q9 9 18.5 17t19.5 14q7 4 13 8.5t11 7.5v-156 q0 -15 -14.5 -29t-33.5 -14v0zM888 333h-312v169q17 6 30.5 7.5t27.5 -2.5q19 -6 36 -18t34 -25l5 -3q8 -7 17 -14t20 -10q10 -4 20 -6t18 -2q35 0 62.5 18.5t51.5 40.5q9 8 18.5 16t19.5 14l10 7.5t12 8.5v-131q2 -29 -19 -49.5t-51 -20.5v0z" />
</svg>