<svg viewBox="0 0 1024 1024" xmlns="http://www.w3.org/2000/svg">
  <path transform="scale(1, -1) translate(0, -960)" fill="currentColor" d="M691 402q-15 0 -26 -11t-11 -26q0 -16 11 -26.5t26 -10.5q16 0 26.5 10.5t10.5 26.5q0 14 -11 25.5t-26 11.5zM950 547q-20 22 -47.5 33.5t-57.5 11.5h-317v278q0 8 -4.5 12t-11.5 4t-11.5 -4t-4.5 -12v-278h-317q-61 0 -104 -43t-43 -103v-288q0 -60 43 -102.5 t104 -42.5q60 0 103 40.5t44 98.5h370q2 -59 44.5 -100t102.5 -41q61 0 104 43t43 103v288q2 29 -8.5 55t-31.5 47v0zM960 155q0 -47 -33.5 -80t-81.5 -33t-81.5 33t-33.5 80q0 12 -8 19.5t-20 7.5h-379q-12 0 -19.5 -7.5t-7.5 -19.5q0 -47 -34 -79.5t-81 -32.5t-82 33.5 t-35 80.5v288q0 47 34 80t81 33h666q23 0 44.5 -9t38.5 -26q16 -15 24 -36t8 -42v-290zM331 379h-57v58q0 7 -4.5 11.5t-11.5 4.5q-8 0 -12 -4.5t-4 -11.5v-58h-58q-7 0 -11.5 -4.5t-4.5 -11.5t4.5 -11.5t11.5 -4.5h58v-56q0 -7 4 -11.5t12 -4.5q7 0 11.5 4.5t4.5 11.5v56 h57q7 0 11.5 4.5t4.5 11.5t-4.5 11.5t-11.5 4.5zM840 402q-16 0 -26.5 -11t-10.5 -26q0 -16 10.5 -26.5t26.5 -10.5t26.5 10.5t10.5 26.5q0 14 -10.5 25.5t-26.5 11.5zM765 402q15 0 26 10.5t11 25.5q0 16 -11 26.5t-26 10.5q-16 0 -26.5 -10.5t-10.5 -26.5 q0 -15 10.5 -25.5t26.5 -10.5zM765 326q-16 0 -26.5 -10.5t-10.5 -25.5q0 -16 10.5 -26.5t26.5 -10.5q15 0 26 10.5t11 26.5q1 15 -10.5 25.5t-26.5 10.5z" />
</svg>