<svg viewBox="0 0 256 256" xmlns="http://www.w3.org/2000/svg">
  <path transform="scale(1, -1) translate(0, -256)" fill="currentColor" d="M170 118q-4 0 -7 -3.5t-3 -7.5t3 -7t7 -3t7 3t3.5 7t-3 7.5t-7.5 3.5zM240 155q-6 6 -13.5 9t-14.5 3h-77v67q0 3 -2 5t-5 2t-5.5 -2t-2.5 -5v-67h-76q-16 0 -28 -11.5t-12 -28.5v-72q0 -16 12 -27.5t28 -11.5t27 10t13 24h87q1 -14 12.5 -24.5t27.5 -10.5t27.5 11.5 t11.5 28.5v72q2 15 -10 28zM237 55q0 -11 -7.5 -18.5t-18.5 -7.5t-18.5 7.5t-7.5 18.5q0 4 -3 6.5t-7 2.5h-94q-4 0 -7 -2.5t-3 -6.5q0 -11 -7.5 -18t-18.5 -7t-18.5 7.5t-7.5 17.5v72q0 11 7.5 18.5t18.5 7.5h166q11 0 18.5 -7.5t7.5 -18.5v-72zM83 114h-11v11q0 3 -2.5 5 t-5.5 2t-5 -2t-2 -5v-11h-11q-3 0 -5 -2t-2 -5t2 -5t5 -2h11v-12q0 -3 2 -5t5 -2t5.5 2t2.5 5v12h11q3 0 5 2t2 5t-2 5t-5 2zM212 118q-4 0 -7 -3.5t-3 -7.5t3 -7t7.5 -3t7.5 3t3 7t-3 7.5t-8 3.5zM191 118q5 0 8 3t3 7t-3.5 7t-7.5 3t-7 -3t-3 -7t3 -7t7 -3zM191 96 q-4 0 -7 -3t-3 -7t3 -7t7.5 -3t7.5 3t3 7t-3 7t-8 3z" />
</svg>