<svg viewBox="0 0 1024 1024" xmlns="http://www.w3.org/2000/svg">
  <path transform="scale(1, -1) translate(0, -960)" fill="currentColor" d="M987 456l-89 163q-5 7 -12.5 11.5t-16.5 4.5h-123q-16 0 -26.5 -10.5t-10.5 -26.5v-17h-173l34 176h78q7 0 11.5 4.5t4.5 11.5t-4.5 11.5t-11.5 4.5h-493q-17 0 -32.5 -7t-26.5 -20q-11 -14 -16.5 -30t-2.5 -33l32 -240h-7q-12 0 -22 -7.5t-13 -19.5l-32 -120 q-2 -8 0 -17t8 -17l58 -70q5 -6 12.5 -9.5t16.5 -3.5h38q6 -37 35 -62.5t67 -25.5q29 0 53 14.5t37 36.5q13 -22 37 -36.5t53 -14.5q38 0 67 25.5t35 62.5h110q6 -37 35 -62.5t68 -25.5q38 0 67 25.5t35 62.5h43q8 0 14.5 2.5t9.5 7.5l42 37q6 4 9.5 12t3.5 15v169 q2 5 1.5 9.5t-3.5 8.5v0zM747 605h123l79 -144h-207v139q0 2 1.5 3.5t3.5 1.5zM710 550v-89h-198l18 89h180v0zM107 704q-1 10 1.5 20t9.5 17q8 7 17 11.5t19 4.5h380l-54 -296h-341l-32 243v0zM270 138q-30 0 -51 21t-21 51t21 51t51 21t51 -21t21 -51t-21 -51t-51 -21z M450 138q-30 0 -51 21t-21 51t21 51t51 21t51 -21t21 -51t-21 -51t-51 -21zM766 138q-30 0 -51 21t-21 51t21 51t51 21t51 -21t21 -51t-21 -51t-51 -21zM958 264l-41 -37l-1 -0.5t-2 -0.5h-44q-6 37 -35 62.5t-67 25.5t-67 -25.5t-35 -62.5h-111q-6 37 -35 62.5t-67 25.5 q-29 0 -53 -14.5t-37 -37.5q-13 23 -37 37.5t-52 14.5q-39 0 -68 -25.5t-35 -62.5h-41h-3t-1 1l-60 72q-2 1 -2 2.5v2.5l32 120q0 1 2 2t3 1h24v0v0v0h1h365v0v0v0v0h469v-160v-1.5t-2 -1.5z" />
</svg>