<svg viewBox="0 0 256 256" xmlns="http://www.w3.org/2000/svg">
  <path transform="scale(1, -1) translate(0, -256)" fill="currentColor" d="M250 132l-23 40q-3 6 -9 6h-31q-5 0 -9 -3.5t-4 -8.5v-2h-37l7 38h18q3 0 5 2t2 5t-2 5t-5 2h-124q-10 0 -16.5 -7.5t-5.5 -17.5l8 -57q-4 -1 -7 -3t-3 -6l-8 -30q-2 -6 2 -11l15 -18q4 -4 10 -4h7q2 -10 10 -16t18 -6q14 0 22 10q4 -5 10 -7.5t13 -2.5q10 0 18 6t10 16 h23q2 -10 9.5 -16t18 -6t18 6t10.5 16h8q5 0 8 3l10 9q4 3 4 9v43q1 2 0 6zM216 164l16 -30h-44v30h28zM174 150v-16h-42l3 16h39zM32 200q3 3 7 3h91l-13 -69h-79l-8 58q-1 4 2 8zM68 54q-7 0 -11.5 4t-4.5 10.5t4.5 11t11 4.5t11 -4.5t4.5 -11t-4.5 -10.5t-10.5 -4z M112 54q-6 0 -10.5 4t-4.5 10.5t4.5 11t11 4.5t11 -4.5t4.5 -10.5t-4.5 -10.5t-11.5 -4.5zM192 54q-7 0 -11.5 4.5t-4.5 10.5t4.5 10.5t11 4.5t11 -4.5t4.5 -10.5t-4.5 -10.5t-10.5 -4.5zM228 76h-8q-3 9 -10.5 15.5t-18 6.5t-18 -6.5t-9.5 -15.5h-23q-3 9 -10.5 15.5 t-17.5 6.5q-14 0 -23 -11q-4 5 -10 8t-12 3q-10 0 -18 -6.5t-10 -15.5h-7l-14 16l8 28h210v-36z" />
</svg>