<svg viewBox="0 0 256 256" xmlns="http://www.w3.org/2000/svg">
  <path transform="scale(1, -1) translate(0, -256)" fill="currentColor" d="M128 252q-34 0 -62.5 -16.5t-45 -45t-16.5 -62.5t16.5 -62.5t45 -45t62.5 -16.5t62.5 16.5t45 45t16.5 62.5t-16.5 62.5t-45 45t-62.5 16.5zM30 127l96 -96q-25 0 -47 13t-35 35t-14 48zM150 33l-117 117q8 33 34.5 54.5t60.5 21.5q24 0 44.5 -11t34.5 -29l-14 -12 q-10 15 -27.5 24.5t-37.5 9.5q-25 0 -45.5 -15t-29.5 -38l102 -102q19 7 32.5 22t17.5 34h-42v19h62q0 -23 -9.5 -43t-27 -33.5t-38.5 -18.5z" />
</svg>