<svg viewBox="0 0 1024 1024" xmlns="http://www.w3.org/2000/svg">
  <path transform="scale(1, -1) translate(0, -960)" fill="currentColor" d="M512 944q-103 0 -194 -39q-90 -39 -157 -106t-106 -157q-39 -91 -39 -194t39 -194q39 -90 106 -157t157 -106q91 -39 194 -39t194 39q90 39 157 106t106 157q39 91 39 194t-39 194q-39 90 -106 157t-157 106q-91 39 -194 39zM122 443l384 -384q-79 1 -148 31 q-70 31 -122 83t-83 121q-30 70 -31 149v0v0zM600 69l-467 467q15 65 50 120q36 55 85.5 95.5t111.5 63.5t132 23q48 0 93 -11t85.5 -32t75.5 -50q34 -30 61 -67l-54 -48q-42 63 -111.5 99.5t-149.5 36.5q-52 0 -98 -15q-47 -16 -86 -44t-69 -66q-29 -39 -46 -84l408 -408 q74 27 128 86.5t72 137.5h-170v75h250q0 -70 -22 -132q-23 -63 -63.5 -113t-96.5 -85q-55 -35 -119 -49v0z" />
</svg>