<svg viewBox="0 0 1024 1024" xmlns="http://www.w3.org/2000/svg">
  <path transform="scale(1, -1) translate(0, -960)" fill="currentColor" d="M766 723q-13 15 -30 22t-35 7h-171v144h72l113 -42q1 0 2.5 -0.5t2.5 -0.5q5 0 9 3t5 8q3 6 0 12t-9 9l-117 43h-1h-2h-211q-8 0 -12 -4.5t-4 -11.5t4 -11.5t12 -4.5h104v-144h-175q-19 0 -36 -8t-29 -21q-14 -14 -19.5 -31.5t-3.5 -37.5l59 -606q4 -35 29.5 -58.5 t60.5 -23.5h259q35 0 60.5 23.5t29.5 58.5l59 606q0 20 -6 37.5t-20 31.5v0zM699 51q-2 -23 -18.5 -37t-38.5 -14h-260q-22 0 -38.5 15t-18.5 36l-59 607q-2 12 2 23.5t12 20.5q8 10 19 15t24 5h378q12 0 23.5 -5t19.5 -15q8 -9 12 -20t2 -24l-59 -607v0z" />
</svg>