<svg viewBox="0 0 256 256" xmlns="http://www.w3.org/2000/svg">
  <path transform="scale(1, -1) translate(0, -256)" fill="currentColor" d="M243 90l-104 156q-3 5 -9.5 5t-9.5 -5l-98 -149q-11 -13 -11 -28q0 -18 16 -32.5t44 -23t60.5 -8.5t60.5 8.5t44 22.5q2 2 2.5 5t-1.5 5t-5 2.5t-5 -1.5q-14 -13 -39.5 -20.5t-55 -7.5t-54 6.5t-39 18t-14.5 24.5t13 24t36 18t49 8v-37q0 -5 4.5 -9.5t9.5 -4.5h94 q4 0 7 2t5 6q5 7 0 15zM123 224v-91q-40 -1 -70 -15zM137 82v37q13 0 27 -2q3 0 5 1.5t2.5 4.5t-1 5t-4.5 3q-14 2 -29 2v91l94 -142h-94z" />
</svg>