<svg viewBox="0 0 1024 1024" xmlns="http://www.w3.org/2000/svg">
  <path transform="scale(1, -1) translate(0, -960)" fill="currentColor" d="M962 288l-415 626q-5 7 -12.5 10.5t-16.5 3.5v0v0q-8 0 -15.5 -4t-11.5 -10l-390 -594v-1v-1q-22 -24 -33.5 -50t-11.5 -55q0 -52 36 -97q37 -44 100.5 -77t149.5 -52t186 -19q63 0 123 8q60 9 113 24.5t97 37.5t75 50q5 5 5.5 11.5t-3.5 10.5q-5 5 -11.5 6t-11.5 -4 q-29 -26 -71 -47q-42 -20 -92 -34.5t-107 -22.5t-117 -8q-89 0 -169 17t-140.5 46t-95.5 68t-35 82q0 41 33 78q33 38 90 66.5t133 46.5t162 20v-162q0 -18 12.5 -31t31.5 -13h375q12 0 22.5 6.5t15.5 17.5q5 10 5 22.5t-6 23.5v0zM502 872l2 -416q-49 -1 -95 -7t-87.5 -16 t-78.5 -24q-36 -14 -67 -31zM934 258q-1 -2 -3.5 -4.5t-7.5 -2.5h-374q-5 0 -9 3.5t-4 9.5v162q31 0 61 -2.5t57 -7.5q6 -1 12 3t6 10q1 6 -3 11.5t-10 5.5q-30 5 -61 7.5t-62 2.5l-2 418l400 -604q3 -4 2.5 -7.5t-2.5 -4.5z" />
</svg>