<svg viewBox="0 0 256 256" xmlns="http://www.w3.org/2000/svg">
  <path transform="scale(1, -1) translate(0, -256)" fill="currentColor" d="M236 35l-10 139q-1 11 -9 18.5t-19 7.5h-12v16q0 14 -10 24.5t-25 10.5h-47q-14 0 -24.5 -10t-10.5 -25v-16h-12q-11 0 -19 -8t-9 -18l-9 -139q-1 -13 7 -21.5t21 -8.5h160q13 0 21.5 9t6.5 21zM84 216q0 9 6 15t15 6h47q9 0 15 -6t6 -15v-16h-89v16zM219 24 q-5 -5 -11 -5h-160q-6 0 -10.5 4.5t-3.5 10.5l10 139q0 5 4 9t10 4h141q5 0 9.5 -4t4.5 -9l10 -139q0 -6 -4 -10zM159 116h-14l-4 13q-1 4 -4.5 6.5t-8 2.5t-8 -2.5t-4.5 -6.5l-4 -13h-14q-5 0 -8.5 -2.5t-5 -7t0 -8.5t5.5 -7l12 -9l-6 -14q-1 -4 0.5 -8.5t5 -7t8 -2.5 t7.5 3l11 8l10 -8q4 -2 8.5 -2.5t8 2t5 7t0.5 8.5l-5 14l12 10q4 2 5 6.5t-0.5 8.5t-5 6.5t-7.5 2.5zM147 93q-4 -3 -5 -6.5t0 -8.5l4 -13l-10 8q-3 3 -8 3t-9 -3l-10 -8l4 13q1 5 0 8.5t-5 6.5l-11 9h13q5 0 8.5 2.5t4.5 6.5l4 13l3 -13q2 -4 5.5 -6.5t7.5 -2.5h13z" />
</svg>