<svg viewBox="0 0 256 256" xmlns="http://www.w3.org/2000/svg">
  <path transform="scale(1, -1) translate(0, -256)" fill="currentColor" d="M209 196h-40l5 3q9 9 10.5 22.5t-7.5 22t-22 8t-23 -10.5q-2 -2 -4 -6q-2 4 -4 6q-10 9 -23 10t-21.5 -7.5t-8 -21.5t10.5 -23l5 -3h-40q-8 0 -13.5 -6t-5.5 -14v-36q0 -3 2 -5.5t5 -2.5h4v-108q0 -8 5.5 -13.5t13.5 -5.5h140q7 0 13 5.5t6 13.5v109h4q3 0 5 2t2 5v37 q0 8 -5.5 13.5t-13.5 5.5zM142 231q6 6 13 6.5t11.5 -4t4 -11.5t-6.5 -13q-3 -3 -10.5 -4.5t-16.5 -0.5q0 8 1 16t4 11zM90 233q4 4 10 4h1q7 0 13 -6q3 -3 4.5 -11t0.5 -16q-8 -1 -16 0.5t-11 4.5q-5 6 -6 13t4 11zM42 177q0 2 1.5 3.5t3.5 1.5h163q2 0 3.5 -1.5t1.5 -3.5 v-30h-173v30zM203 24q0 -2 -1.5 -3.5t-3.5 -1.5h-140q-2 0 -3.5 1.5t-1.5 3.5v109h149v-109h1z" />
</svg>