<svg viewBox="0 0 1024 1024" xmlns="http://www.w3.org/2000/svg">
  <path transform="scale(1, -1) translate(0, -960)" fill="currentColor" d="M885 717h-194q45 11 83 28.5t48 46.5q9 22 -0.5 45t-34.5 48q-29 27 -58 37t-59 3q-32 -9 -58 -35t-45 -57.5t-31 -60.5q-12 -30 -18 -44q-4 14 -17 44q-12 29 -31 60.5t-45 57.5t-59 35q-28 7 -58 -3t-58 -37q-26 -25 -35 -48t-1 -45q11 -29 48.5 -46.5t83.5 -28.5h-207 q-25 0 -42 -17.5t-17 -41.5v-122q0 -25 17.5 -42t41.5 -17h24v-426q0 -33 24 -57t58 -24h544q33 0 57 24t24 57v426h13q25 0 42 17.5t17 41.5v122q2 24 -15.5 41.5t-41.5 17.5v0zM677 894q5 2 9 2h8q17 0 34 -8.5t35 -26.5q18 -17 25 -32t2 -26q-6 -17 -31 -29 q-25 -13 -59.5 -22t-74.5 -14q-39 -6 -73 -8q16 40 49 96t76 68v0zM245 803q-5 11 2 26t25 32q18 18 36 26.5t34 8.5h8.5t7.5 -2q44 -10 77 -66t48 -98q-35 2 -74 8q-39 5 -73.5 14.5t-59.5 21.5q-25 13 -31 29v0zM840 50q0 -21 -14.5 -35.5t-35.5 -14.5h-544 q-20 0 -34.5 14.5t-14.5 35.5v427h643v-427zM910 536q0 -12 -8 -19.5t-19 -7.5h-744q-12 0 -19.5 8t-7.5 19v122q0 12 8 19.5t19 7.5h744q12 0 19.5 -8.5t7.5 -18.5v-122z" />
</svg>