<svg viewBox="0 0 256 256" xmlns="http://www.w3.org/2000/svg">
  <path transform="scale(1, -1) translate(0, -256)" fill="currentColor" d="M221 198h-29q13 6 16 15q5 13 -10 27.5t-32 9.5q-21 -5 -37 -43q-6 15 -13 25q-11 15 -24 18q-16 5 -31 -9.5t-11 -27.5q4 -8 17 -15h-32q-8 0 -13 -5t-5 -13v-30q0 -7 5 -12.5t13 -5.5h3v-104q0 -9 7 -16t17 -7h136q9 0 16 7t7 16v104q8 0 13 5.5t5 12.5v30q0 8 -5.5 13 t-12.5 5zM170 236q1 1 3 1q8 0 15.5 -8t6 -12.5t-17 -9t-35.5 -5.5q6 12 12 21q8 12 16 13zM64 218q-1 4 7 11.5t15 7.5h3q8 -2 16 -14q6 -8 11 -21q-19 2 -34.5 6.5t-17.5 9.5zM207 28q0 -3 -3 -6t-7 -3h-136q-4 0 -6.5 2.5t-2.5 6.5v104h154v-104h1zM225 150q0 -4 -4 -4 h-186q-2 0 -3 1t-1 3v30q0 2 1 3t3 1h186q1 0 2.5 -1t1.5 -3v-30z" />
</svg>