<svg viewBox="0 0 1024 1024" xmlns="http://www.w3.org/2000/svg">
  <path transform="scale(1, -1) translate(0, -960)" fill="currentColor" d="M885 717h-194q45 11 83 28.5t48 46.5q9 22 -0.5 45t-34.5 48q-29 27 -58 37t-59 3q-32 -9 -58 -35t-45 -57.5t-31 -60.5q-12 -30 -18 -44q-4 14 -17 44q-12 29 -31 60.5t-45 57.5t-59 35q-28 7 -58 -3t-58 -37q-26 -25 -35 -48t-1 -45q11 -29 48.5 -46.5t83.5 -28.5h-207 q-25 0 -42 -17.5t-17 -41.5v-122q0 -25 17.5 -42t41.5 -17h24v-426q0 -33 24 -57t58 -24h544q33 0 57 24t24 57v426h13q25 0 42 17.5t17 41.5v122q2 24 -15.5 41.5t-41.5 17.5v0zM840 50q0 -21 -14.5 -35.5t-35.5 -14.5h-544q-20 0 -34.5 14.5t-14.5 35.5v424h643v-424z M677 894q5 2 9 2h8q17 0 34 -8.5t35 -26.5q18 -17 25 -32t2 -26q-6 -17 -31 -29q-25 -13 -59.5 -22t-74.5 -14q-39 -6 -73 -8q16 40 49 96t76 68v0zM245 803q-5 11 2 26t25 32q18 18 36 26.5t34 8.5h8.5t7.5 -2q44 -10 77 -66t48 -98q-35 2 -74 8q-39 5 -73.5 14.5 t-59.5 21.5q-25 13 -31 29v0zM912 536q0 -12 -8 -19.5t-19 -7.5h-746q-12 0 -19.5 8t-7.5 19v122q0 12 8 19.5t19 7.5h744q12 0 19.5 -8.5t7.5 -18.5v-122h2zM432 195l0.5 -0.5t-0.5 -0.5l-21 -69q-3 -11 0 -21t13 -18q10 -6 20 -5.5t20 7.5l53 40h0.5h0.5l53 -40 q5 -4 10 -5t11 -1q5 0 9.5 1t9.5 5q10 6 13.5 17t-0.5 21l-21 66v1v1l56 43q9 7 12 17t-1 20q-3 9 -12 15.5t-20 6.5h-68h-1t-1 2l-21 67q-3 11 -12 17.5t-20 6.5v0v0q-11 0 -19.5 -6.5t-12.5 -17.5l-21 -67l-0.5 -1l-0.5 -1h-69q-11 0 -19.5 -6.5t-12.5 -15.5 q-4 -10 -0.5 -20.5t11.5 -16.5l61 -42v0zM394 266q0 1 0.5 1h0.5h69q11 0 19.5 6.5t12.5 17.5l21 67q0 2 1.5 2t1.5 -2l21 -67q3 -11 12 -17.5t20 -6.5h67h1t1 -1v-2v0l-56 -43q-9 -6 -12 -16.5t0 -20.5l21 -69v-0.5v-0.5q-2 -2 -2.5 -2h-0.5l-53 40q-5 4 -10 5t-11 1 t-11 -1t-9 -5l-53 -40h-1h-1q-1 0 -1 1t1 1l21 68q4 10 0.5 20.5t-11.5 16.5l-56 43l-3 2v2v0z" />
</svg>