<svg viewBox="0 0 1024 1024" xmlns="http://www.w3.org/2000/svg">
  <path transform="scale(1, -1) translate(0, -960)" fill="currentColor" d="M837 707h-154l1.5 1.5l1.5 1.5q17 17 26.5 38t12.5 42q1 23 -6 43t-21 36q-16 15 -36 22t-43 5q-21 -1 -42 -11.5t-38 -26.5q-9 -10 -15.5 -23t-9.5 -27q-4 14 -10 27t-16 23q-35 34 -81 37t-77 -28q-32 -31 -29 -77t38 -81l1.5 -1.5l1.5 -1.5h-153q-27 0 -45.5 -19 t-18.5 -45v-148q0 -7 4.5 -11.5t11.5 -4.5h30v-446q0 -26 19 -45t45 -19h557q26 0 45 19t19 45v446h30q8 0 12 4.5t4 11.5v148q-1 27 -20 46t-45 19v0zM560 835q12 12 28 20t31 9q16 1 29.5 -3.5t23.5 -15.5t15 -24t4 -29q-1 -17 -8 -32t-21 -27q-19 -19 -59.5 -23t-68.5 -1 q0 26 4 67t22 59v0zM350 845q10 9 22.5 14t25.5 5q17 0 34.5 -7t31.5 -22q19 -19 22.5 -59.5t1.5 -68.5q-26 -1 -67.5 2.5t-60.5 21.5q-25 27 -28 59.5t18 54.5zM822 32q0 -13 -9 -22.5t-23 -9.5h-556q-14 0 -23 9.5t-9 22.5v446h620v-446zM869 510h-714v132q0 13 9.5 22.5 t22.5 9.5h274h0.5h0.5h3h2h90h2h3h0.5h0.5h274q13 0 22.5 -9.5t9.5 -22.5v-132z" />
</svg>