<svg viewBox="0 0 1024 1024" xmlns="http://www.w3.org/2000/svg">
  <path transform="scale(1, -1) translate(0, -960)" fill="currentColor" d="M934 75l-40 554q-2 39 -31.5 66t-68.5 27h-61v78q0 53 -37.5 90.5t-90.5 37.5h-187q-53 0 -90.5 -37.5t-37.5 -90.5v-78h-61q-40 0 -68.5 -27.5t-32.5 -65.5l-38 -554q-2 -20 5 -39.5t22 -35.5q14 -16 33.5 -24t39.5 -8h644q20 0 39.5 8t33.5 24q15 16 22 35.5t5 39.5v0z M322 800q0 40 28 68t68 28h188q40 0 68 -28t28 -68v-78h-380v78v0zM883 22q-9 -10 -22 -16t-27 -6h-644q-14 0 -27 6t-22 16q-10 11 -14.5 24t-3.5 28l40 553q3 27 22 45.5t47 18.5h565q26 0 46 -18t23 -46l40 -553q-2 -15 -7 -28.5t-16 -23.5v0zM637 387h-58q-3 0 -5.5 2.5 t-3.5 5.5l-16 55q-4 13 -15 21.5t-25 8.5q-15 0 -26 -8t-14 -22l-18 -55q-1 -3 -3.5 -5.5t-6.5 -2.5h-57q-15 0 -25 -7.5t-15 -21.5q-5 -13 -1 -25.5t15 -20.5l48 -37q3 -2 4 -4.5t-1 -6.5l-17 -58q-4 -13 0.5 -26t15.5 -20q6 -4 12 -6t12 -2q7 0 13 2.5t12 7.5l44 33 q2 3 6 3t6 -3l44 -33q10 -9 24 -9t25 7q12 8 16.5 20.5t-0.5 25.5l-17 58q-2 4 -1 6.5t4 4.5l48 37q11 8 15 21t-1 25t-15 20.5t-23 8.5v0zM643 336l-48 -37q-11 -8 -14.5 -20.5t0.5 -25.5l17 -58q2 -5 0 -7.5t-3 -3.5t-4.5 -1.5t-8.5 1.5l-43 34q-6 4 -12 6t-13 2 q-8 0 -14 -2.5t-12 -5.5l-43 -34q-4 -4 -7.5 -2.5t-5.5 2.5l-3.5 3.5t0.5 7.5l17 58q4 13 0.5 25.5t-14.5 20.5l-48 37q-4 4 -4 7t1 4q0 1 2.5 4t6.5 3h58q14 0 25 8t15 22l18 54q1 5 4.5 6.5t4.5 1.5t5 -1t5 -7l17 -54q4 -13 15.5 -21.5t24.5 -8.5h58q5 0 7.5 -3t2.5 -4 t-1.5 -4t-5.5 -7v0z" />
</svg>