<svg viewBox="0 0 1024 1024" xmlns="http://www.w3.org/2000/svg">
  <path transform="scale(1, -1) translate(0, -960)" fill="currentColor" d="M898 752h-231q6 2 11.5 5.5t9.5 7.5q28 27 28 67t-28 67q-28 28 -67.5 28t-66.5 -28q-27 -26 -24 -79t4 -62l2 -8h-48l2 8q1 9 4.5 61.5t-24.5 79.5q-27 28 -66.5 28t-67.5 -28q-28 -27 -28 -67t28 -67q5 -5 10 -8t11 -5h-231q-33 0 -56.5 -23t-23.5 -57v-144 q0 -13 9.5 -22.5t22.5 -9.5h8v0v0v-494q0 -14 9.5 -23t22.5 -9h783q13 0 22.5 9t9.5 23v492v0v0h9q14 0 23 9.5t9 22.5v144q3 35 -20.5 58.5t-55.5 23.5zM576 877q18 18 45 18t45 -18t18 -44.5t-18 -45.5q-12 -12 -44 -13.5t-57 2.5q-3 24 -2 56.5t13 44.5v0zM358 877 q9 9 21 14t24 5t23.5 -5t21.5 -14q12 -12 13.5 -44t-2.5 -57q-24 -2 -56.5 -1.5t-44.5 12.5q-19 19 -19 45.5t19 44.5zM902 349h-214q-2 24 -13 43.5t-30 33.5q-12 8 -24.5 12t-25.5 4v52h309zM459 136q10 -6 20.5 -11.5t21.5 -9.5q2 -1 5.5 -1h5.5h5.5t5.5 1q10 4 19.5 8.5 t19.5 10.5v-132h-103v134v0zM366 333q0 21 7.5 38t23.5 27q11 8 21.5 10t19.5 0v0v0q15 -4 26.5 -15t20.5 -20q5 -6 11.5 -9.5t13.5 -3.5v0v0q8 0 14.5 3.5t11.5 9.5q7 9 19.5 20t26.5 15q11 4 22 1.5t22 -11.5q15 -10 23 -27t7 -38q0 -25 -8 -45.5l-8 -20.5l-11.5 -20.5 t-33.5 -44.5q-6 -8 -13 -14l-14 -12q-13 -11 -27.5 -19t-28.5 -13q-16 6 -30.5 14.5t-28.5 19.5q-6 4 -12 10t-12 14q-23 25 -35 45l-12 20q0 1 -8 21t-8 45v0zM427 442q-12 0 -24.5 -4t-24.5 -12q-20 -14 -30.5 -33t-13.5 -44h-214v145h307v-52v0zM120 317h216 q4 -25 11 -44l7 -19q0 -1 8 -14t22 -32h-264v109zM669 254q0 2 7.5 20t9.5 43h216v-111h-262q14 20 21.5 33.5t7.5 14.5zM563 434q-17 -8 -30 -20.5t-21 -23.5q-8 11 -21 23.5t-30 20.5v62h102v-62zM120 2v172h291q4 -4 8.5 -8t9.5 -8v-158l-309 2v0zM595 2v156q5 5 10 9 t9 9h290v-174h-309v0zM78 528v144q0 20 14 34t34 14h770q20 0 34 -14t14 -34v-144h-866v0z" />
</svg>