<svg viewBox="0 0 256 256" xmlns="http://www.w3.org/2000/svg">
  <path transform="scale(1, -1) translate(0, -256)" fill="currentColor" d="M224 207h-48q7 8 6.5 18.5t-8 18t-19 7.5t-20 -8.5t-5.5 -35.5h-5q2 8 1 17q-1 13 -7 19q-8 8 -19 8t-18.5 -8t-8 -18t6.5 -18h-48q-10 0 -17 -7t-7 -16v-36q0 -5 3 -8t7 -3v-121q0 -5 3.5 -8t8.5 -3h195q5 0 8 3t3 8v121q5 0 8 3t3 8v36q0 9 -6.5 16t-16.5 7zM146 233 q4 4 9.5 4t9 -3.5t3.5 -9t-4 -9.5q-1 -2 -7 -2.5t-13 0.5q-1 7 -0.5 13t2.5 7zM92 233q3 4 8.5 4t9.5 -4q2 -2 2.5 -8t-0.5 -12q-7 -1 -12.5 -0.5t-7.5 2.5q-4 4 -4 9t4 9zM223 106h-49q-1 12 -12 18q-5 4 -11 5v7h71v-30h1zM138 126q-4 -2 -10 -8q-5 6 -10 8v11h19v-11h1z M81 106h-48v31h71v-8q-6 0 -11 -4q-10 -7 -12 -19zM33 92h48q1 -6 4 -13l1 -1q0 -1 4 -8h-57v22zM118 44q2 -1 5 -2h1q3 -1 4 -1l4 1l6 2v-25h-20v25zM94 99q0 10 7 14q4 4 8.5 2.5t9.5 -8.5q3 -5 8.5 -5t8.5 5q5 7 10 8t8 -2q7 -5 7 -14q0 -6 -3 -15l-4 -5q-3 -6 -8 -11 l-6 -6q-6 -5 -12 -7q-6 2 -13 7l-6 6q-4 5 -7.5 10t-3.5 6v1q-3 8 -4 14zM170 78v1q3 7 4 13h49v-22h-57zM23 184q0 4 2.5 6.5t6.5 2.5h192q4 0 7 -2.5t3 -6.5v-33h-211v33zM33 57h69l2 -3v-35h-71v38zM152 19v35l3 3h68v-38h-71z" />
</svg>