<svg viewBox="0 0 1024 1024" xmlns="http://www.w3.org/2000/svg">
  <path transform="scale(1, -1) translate(0, -960)" fill="currentColor" d="M1000 464l-474 475q-4 5 -14 5t-18 -5l-131 -131l122 -122q7 4 15 5.5t17 1.5q33 0 55.5 -23.5t22.5 -55.5q0 -8 -1.5 -16t-4.5 -16l97 -97q8 3 16 4.5t16 1.5q34 0 56.5 -23.5t22.5 -54.5q0 -34 -23.5 -56.5t-55.5 -22.5q-33 0 -55.5 24t-22.5 55q0 8 1.5 16.5t4.5 15.5 l-97 97h-2v-184q22 -9 36 -28.5t14 -44.5q0 -34 -23.5 -56.5t-55.5 -22.5q-33 0 -55.5 24t-22.5 55q0 25 14 45t36 28v180q-22 9 -36 28.5t-14 44.5q0 9 1.5 17t4.5 15l-121 122l-303 -301q-4 -5 -4 -15t4 -17l476 -475q4 -5 14 -5t18 5l473 475q4 7 3.5 16t-6.5 16v0z" />
</svg>