<svg viewBox="0 0 256 256" xmlns="http://www.w3.org/2000/svg">
  <path transform="scale(1, -1) translate(0, -256)" fill="currentColor" d="M250 132l-118 119q-2 1 -4.5 1t-3.5 -1l-33 -33l30 -30q3 1 8 1q8 0 14 -5.5t6 -13.5q0 -5 -2 -8l25 -25q3 2 8 2q8 0 13.5 -6t5.5 -14t-5.5 -13.5t-14 -5.5t-14 5.5t-5.5 13.5q0 5 2 8l-25 25v-46q5 -3 8.5 -8t3.5 -12t-5.5 -12.5t-14 -5.5t-14 5.5t-5.5 12.5t3.5 12 t8.5 8v44q-5 3 -8.5 8t-3.5 10.5t2 8.5l-31 30l-75 -75q-2 -1 -2 -3.5t2 -4.5l118 -119q2 -1 4.5 -1t3.5 1l119 119q2 4 -1 8z" />
</svg>