<svg viewBox="0 0 1024 1024" xmlns="http://www.w3.org/2000/svg">
  <path transform="scale(1, -1) translate(0, -960)" fill="currentColor" d="M1008 464q-4 95 -43 180q-39 84 -103 148t-148 102t-180 42q-51 2 -101 -6t-96 -25.5t-89 -44.5q-42 -27 -78 -63q-38 -35 -66 -76q-29 -41 -48.5 -86.5t-29.5 -94.5t-10 -100q0 -84 27 -161q27 -78 75.5 -141.5t116.5 -109.5q67 -45 149 -66v0q4 -2 6.5 -2h6.5 q8 0 15.5 2.5t13.5 7.5q8 7 13.5 16.5t5.5 21.5v56q0 12 0.5 50t0.5 44q2 11 5 19t8 15q4 5 4.5 11.5t-2.5 12.5q-3 5 -8 8.5t-11 4.5q-10 1 -18.5 2.5t-17.5 3.5q-10 4 -21 8t-22 10q-9 5 -18 12t-17 17q-6 8 -12 20t-10 26q-5 17 -7.5 34t-2.5 36q0 27 8.5 49.5t25.5 42.5 l6 8l-5 9q-7 17 -7 36.5t7 43.5q4 0 10 -1.5t16 -6.5q18 -7 26.5 -11t11.5 -6q5 -3 9 -5.5t7 -4.5l11 -6l7 1q21 6 44.5 9.5t46.5 3.5q24 0 46 -3.5t45 -9.5l7 -1l25 14q11 6 21 11t22 10q9 3 15 4t9 2q8 -21 8.5 -41.5t-6.5 -38.5l-3 -9l6 -8q17 -18 25.5 -41t8.5 -51 q0 -20 -2.5 -37t-7.5 -31q-5 -15 -10 -27t-14 -21q-6 -8 -15 -15.5t-20 -13.5q-12 -6 -23 -10.5t-22 -7.5q-7 -2 -16 -3.5t-19 -2.5q-6 -1 -10.5 -5t-7.5 -10q-2 -4 -1 -10t3 -10q7 -10 10.5 -23t3.5 -29v-128q0 -12 5.5 -22t14.5 -16q9 -7 20 -8.5t23 0.5q81 24 147 73 q66 48 112 113.5t69 145.5q23 79 19 164v0zM650 -5q-4 -1 -7.5 0t-7.5 3q-3 3 -4.5 6.5t-1.5 6.5v128q0 17 -3.5 31.5t-9.5 26.5q7 1 13.5 2.5t12.5 3.5q12 4 24 9t27 12q14 8 25 17.5t20 19.5q10 13 17 27.5t13 29.5q6 18 8.5 38t2.5 42q0 30 -9.5 56.5t-27.5 49.5 q8 24 5.5 49.5t-13.5 52.5l-3 7l-6 1q-10 4 -23 3t-28 -7q-12 -5 -24 -11l-24 -12l-13 -8q-23 6 -46 8.5t-47 2.5t-47 -2.5t-46 -8.5q-3 3 -7 5t-7 3q-6 5 -17 10t-26 11q-17 7 -30.5 9.5t-24.5 -1.5l-8 -3l-3 -7q-11 -28 -12.5 -53.5t6.5 -48.5q-18 -22 -27.5 -48t-9.5 -56 q0 -20 2.5 -40.5t8.5 -39.5q6 -18 13 -32.5t16 -25.5q9 -12 20 -21t25 -15q12 -8 24.5 -13t24.5 -8q6 -3 13 -4t13 -3q-4 -8 -7 -17t-4 -19v-2v-17v-37q-36 12 -65.5 27.5t-53.5 39.5q-15 18 -31 33t-25 20q-18 8 -28.5 -4t-6.5 -22q4 -13 19 -21.5t24 -18.5 q11 -12 16 -26.5t15 -26.5q14 -20 57.5 -39.5t78.5 -9.5v-50q0 -5 -2 -8.5t-5 -4.5q-3 -2 -7 -3t-7 0v0q-75 20 -138 63q-62 43 -107.5 102.5t-70.5 131.5t-25 151q0 48 9 94q10 46 28 88.5t45 80.5q26 38 60 71q35 34 75 59t83.5 41.5t89.5 23.5q47 8 95 6q89 -3 168 -39 t139 -95.5t96 -138.5t40 -169q4 -79 -18 -154q-22 -74 -65 -135.5t-105 -107.5t-138 -70v0z" />
</svg>