<svg viewBox="0 0 256 256" xmlns="http://www.w3.org/2000/svg">
  <path transform="scale(1, -1) translate(0, -256)" fill="currentColor" d="M247 187q-3 1 -5.5 0t-3.5 -3l-23 -52q-11 11 -26 11q-11 0 -20.5 -6t-13.5 -16l-11 3q-16 4 -32 0l-11 -3q-4 10 -13.5 16t-20.5 6q-15 0 -26 -11l-23 52q-1 2 -3.5 3t-5.5 0t-4 -3.5t1 -5.5l26 -60q-2 -6 -2 -12q0 -16 11 -27t26.5 -11t26 11t10.5 27v1l12 3q12 4 24 0 l11 -3v-1q0 -16 11 -27t26.5 -11t26.5 11t11 27q0 6 -2 12l26 60q1 3 0.5 5.5t-3.5 3.5zM67 82q-9 0 -16 7t-7 16.5t7 16.5t16.5 7t16 -7t6.5 -16.5t-6.5 -16.5t-16.5 -7zM189 82q-10 0 -16.5 7t-6.5 16.5t6.5 16.5t16 7t16.5 -7t7 -16.5t-7 -16.5t-16 -7z" />
</svg>