<svg viewBox="0 0 1024 1024" xmlns="http://www.w3.org/2000/svg">
  <path transform="scale(1, -1) translate(0, -960)" fill="currentColor" d="M938 451l-189 306q-3 3 -6 5t-7 3q-4 0 -7 -1.5t-6 -3.5l-80 -94q-5 -5 -4 -12t6 -11q5 -5 12 -4t10 6l66 77l141 -228q-16 6 -33.5 9.5t-35.5 3.5q-78 0 -132.5 -55t-54.5 -132v-8v-8l-98 61q-4 2 -8.5 2t-9.5 -2l-96 -61v7.5v8.5q0 78 -55 132.5t-132 54.5 q-18 0 -35.5 -3.5t-33.5 -9.5l141 226l66 -77q5 -5 11 -5.5t11 4.5q5 4 6 10.5t-4 11.5l-80 94q-3 3 -6 4.5t-7 0.5q-4 0 -7 -2t-6 -6l-189 -304q-25 -25 -39.5 -59t-14.5 -72q0 -78 55 -132.5t132 -54.5q63 0 111.5 36.5t66.5 92.5q1 0 1.5 1t1.5 1l110 69l111 -69 q1 0 1.5 -1t1.5 -1q18 -56 66.5 -92.5t111.5 -36.5q79 0 134.5 54.5t55.5 132.5q0 38 -14.5 72t-39.5 59zM219 165q-63 0 -109 45t-46 110t46 110t109 45q64 0 109.5 -45.5t45.5 -109.5t-45 -109.5t-110 -45.5zM805 165q-65 0 -110 45.5t-45 109.5t45.5 109.5t109.5 45.5 q63 0 109 -45t46 -110t-46 -110t-109 -45z" />
</svg>