<svg viewBox="0 0 1024 1024" xmlns="http://www.w3.org/2000/svg">
  <path transform="scale(1, -1) translate(0, -960)" fill="currentColor" d="M989 474l-226 276q-2 3 -5.5 5t-7.5 2q-3 0 -6.5 -1.5t-5.5 -3.5l-79 -93q-5 -5 -4 -12t6 -10q5 -5 11 -4t11 5l67 79l192 -237h-860l192 237l67 -79q5 -4 11 -5t11 4t6 11t-4 11l-79 93q-2 2 -5 4t-7 2t-7.5 -1t-5.5 -5l-226 -278q-2 -4 -3 -8.5t2 -9.5q1 -4 4 -6t7 -2 l24 -294q0 -6 5 -10.5t11 -4.5h312q6 0 11 4.5t5 10.5l24 292h149l25 -294q0 -6 5 -10t11 -4h312q6 0 11 4t5 10l24 296q4 1 7 3.5t4 4.5q3 5 2 9.5t-3 8.5v0zM382 171h-281l-24 275h328zM923 171h-281l-24 277h329z" />
</svg>