<svg viewBox="0 0 1024 1024" xmlns="http://www.w3.org/2000/svg">
  <path transform="scale(1, -1) translate(0, -960)" fill="currentColor" d="M982 674q-6 2 -12 0t-8 -8l-98 -224q-19 25 -47 39.5t-62 14.5q-44 0 -79.5 -26t-49.5 -65l-55 16q-29 8 -59 8t-59 -8l-55 -16q-14 39 -49.5 65t-79.5 26q-34 0 -62 -14.5t-47 -39.5l-98 224q-2 6 -8 8t-12 0q-6 -3 -8.5 -9t0.5 -12l107 -247q-5 -10 -7.5 -23t-2.5 -25 q0 -57 40.5 -97t97.5 -40q56 0 96.5 40.5t40.5 96.5v8.5t-1 7.5l56 16q25 8 50 8t51 -8l56 -16q0 -3 -1 -7.5t-1 -8.5q0 -57 40.5 -97t97.5 -40q56 0 96.5 40.5t40.5 96.5q0 14 -2.5 26t-6.5 22l107 247q3 6 1 12t-8 9v0zM269 253q-43 0 -74.5 31t-31.5 74q0 45 31.5 75.5 t74.5 30.5t74 -31t31 -75q0 -43 -30.5 -74t-74.5 -31v0zM755 253q-43 0 -74 31t-31 74q0 45 31 75.5t74 30.5t74.5 -31t31.5 -75q0 -43 -31.5 -74t-74.5 -31z" />
</svg>