<svg viewBox="0 0 256 256" xmlns="http://www.w3.org/2000/svg">
  <path transform="scale(1, -1) translate(0, -256)" fill="currentColor" d="M237 130l-47 76q-2 4 -5.5 4t-6.5 -3l-20 -23q-1 -2 -1 -5t2 -5t5 -2t5 2l14 17l29 -47q-5 2 -10 2q-20 0 -34.5 -14.5t-15.5 -34.5l-20 13q-3 2 -7 0l-20 -13q0 20 -14.5 34.5t-34.5 14.5q-6 0 -11 -2l29 47l14 -17q2 -2 5 -2t5 1.5t2.5 4.5t-1.5 6l-20 23q-3 3 -6.5 3 t-5.5 -4l-47 -76q-7 -6 -10.5 -15t-3.5 -19q0 -21 14.5 -35.5t35.5 -14.5q16 0 29 9.5t18 23.5l26 17l26 -17q5 -14 18 -23.5t29 -9.5q20 0 35 14.5t15 35.5q-1 10 -4.5 19t-10.5 15zM55 60q-15 0 -25.5 10.5t-10.5 25.5t10.5 25.5t25.5 10.5t25.5 -10.5t10.5 -25.5 t-10.5 -25.5t-25.5 -10.5zM201 60q-15 0 -25.5 10.5t-10.5 25.5t10.5 25.5t25.5 10.5t25.5 -10.5t10.5 -25.5t-10.5 -25.5t-25.5 -10.5z" />
</svg>