<svg viewBox="0 0 256 256" xmlns="http://www.w3.org/2000/svg">
  <path transform="scale(1, -1) translate(0, -256)" fill="currentColor" d="M251 128q0 31 -15 61q-13 22 -33.5 37t-44.5 21q-17 4 -30 4q-3 0 -5 -2t-3 -5v-232q0 -3 2.5 -5t5.5 -2l15 1q27 3 50.5 18t38.5 38q18 29 19 63v3zM206 132q-2 23 -10 42h31q9 -20 10 -42h-31zM135 24v34h37q-16 -22 -37 -34zM172 188h-38v43q18 -11 38 -43zM134 72v46 h58q-1 -25 -12 -46h-46zM134 132v42h46q10 -20 12 -42h-58zM219 188h-31q-17 30 -34 46v0q20 -5 37 -17t28 -29zM159 24q17 14 29 34h23q-20 -25 -52 -34zM221 72h-25q9 22 10 46h30q-1 -25 -15 -46zM53 124q12 0 20.5 8.5t8.5 21t-8.5 21t-20.5 8.5t-21 -8.5t-8.5 -21 t9 -21t20.5 -8.5zM53 169q6 0 10.5 -4.5t4.5 -11t-4.5 -11t-11 -4.5t-11 4.5t-4 11t4.5 11t11 4.5zM53 105q-13 0 -25.5 -5.5t-20.5 -14.5q-2 -2 -2 -5t2 -5t5 -2t5 2q7 8 16.5 12t19.5 4t19.5 -4t15.5 -12q2 -2 5 -2t5.5 2t2.5 5t-2 5q-9 9 -21 14.5t-25 5.5z" />
</svg>