<svg viewBox="0 0 1024 1024" xmlns="http://www.w3.org/2000/svg">
  <path transform="scale(1, -1) translate(0, -960)" fill="currentColor" d="M992 448q0 60 -15.5 121t-45.5 116q-24 42 -57 79q-32 37 -71 66t-83 50q-44 22 -91 34q-31 7 -60.5 10.5t-58.5 3.5q-7 0 -11.5 -4.5t-4.5 -11.5v-475v0v0v0v0v0v-453q0 -7 4.5 -11.5t11.5 -4.5q15 0 30 1l30 2q53 7 103 25q50 17 94.5 45t82.5 65q37 37 67 83 q36 55 55 117.5t20 128.5v0v0v0v0v0v0v13v0zM813 453q-3 49 -15 97.5t-33 92.5h152q21 -45 32 -93.5t13 -96.5h-149v0zM526 11v168h183q-35 -55 -82 -98t-101 -70zM710 675h-184v208q45 -25 90.5 -77t93.5 -131zM526 211v210h255q-1 -55 -14.5 -108.5t-38.5 -101.5h-202z M526 453v190h202q23 -44 36 -92t17 -98h-255v0zM899 675h-152q0 1 -0.5 2l-0.5 1q-45 76 -87.5 129t-85.5 84q12 -1 24 -3.5t24 -5.5q44 -11 84 -30q40 -20 76 -46t65 -59q30 -33 53 -72v0zM584 6q48 32 89 74.5t73 95.5q0 1 0.5 1.5t0.5 1.5h123q-26 -35 -58 -63 q-32 -29 -68.5 -51t-76.5 -37t-83 -22v0zM891 211v0v0h-128q24 49 36.5 102.5t13.5 107.5h145q-2 -57 -19.5 -110t-47.5 -100zM211 443q45 0 75.5 31.5t30.5 74.5t-31.5 74t-74.5 31q-44 0 -74.5 -31t-30.5 -74t31 -74.5t74 -31.5v0zM211 624q31 0 52.5 -22t21.5 -52 t-22 -51.5t-52 -21.5t-51.5 21.5t-21.5 51.5t21.5 52t51.5 22v0zM211 344q-50 0 -96 -20t-80 -57q-5 -5 -4.5 -11t6.5 -11q5 -5 11 -5t11 6q29 32 69 49t83 17t83 -17t69 -49q3 -2 6 -3t5 -1q3 0 6 1t6 3q4 5 4.5 11.5t-3.5 11.5q-33 35 -79 55t-97 20v0z" />
</svg>