<svg viewBox="0 0 256 256" xmlns="http://www.w3.org/2000/svg">
  <path transform="scale(1, -1) translate(0, -256)" fill="currentColor" d="M163 199q-3 0 -5 -2t-2 -5v-6l-21 -9v26q0 3 -2 5t-5 2t-5.5 -2t-2.5 -5v-25l-20 9v5q0 3 -2 5.5t-5 2.5t-5 -2.5t-2 -5.5v-80q0 -5 4 -7l30 -12v-35q0 -3 2.5 -5t5.5 -2t5 2t2 5v35l30 12q5 2 5 7v80q0 3 -2 5t-5 2zM156 171v-19l-21 -9v19zM121 163v-22l-21 9v22z M100 116v18l21 -8v-18zM135 108v20l21 9v-21zM229 198q0 1 -1 1v0q-17 24 -43.5 38t-56.5 14q-33 0 -61.5 -16.5t-45 -45t-16.5 -61.5q0 -23 9 -44v-1q13 -35 44.5 -56.5t69.5 -21.5q33 0 61.5 16.5t45 45t16.5 61.5q0 38 -22 70zM128 19q-32 0 -59 17.5t-40 46.5l34 18 q3 2 3.5 4.5t-1 5.5t-4 3.5t-5.5 -0.5l-32 -18q-5 15 -5 32q0 30 14.5 54.5t39.5 39.5t55 15q25 0 47 -11t37 -29l-21 -12q-3 -1 -3.5 -4t1 -6t5.5 -3q2 0 3 1l23 12q17 -26 17 -56.5t-14.5 -55.5t-40 -39.5t-54.5 -14.5z" />
</svg>