<svg viewBox="0 0 1024 1024" xmlns="http://www.w3.org/2000/svg">
  <path transform="scale(1, -1) translate(0, -960)" fill="currentColor" d="M651 722q-7 0 -11.5 -4.5t-4.5 -11.5v-32l-107 -45v120q0 7 -4.5 11.5t-11.5 4.5t-11.5 -4.5t-4.5 -11.5v-119l-107 45v31q0 7 -4.5 11.5t-11.5 4.5t-11.5 -4.5t-4.5 -11.5v-324q0 -4 2.5 -8.5t6.5 -5.5l130 -53v-145q0 -8 4.5 -12t11.5 -4t11.5 4t4.5 12v145l130 53 q4 2 6.5 6t2.5 8v324q0 6 -4.5 11t-11.5 5v0zM635 638v-102l-107 -45v103l107 44v0zM496 595v-113l-107 44v114zM389 394v97l107 -45v-97zM528 349v107l107 45v-109zM906 723v0v0v0v0q-33 46 -76 84t-93.5 65t-107.5 41q-56 15 -117 15q-99 0 -186 -38q-88 -38 -153 -103 t-103 -153q-38 -87 -38 -186q0 -46 8 -89.5t24 -83.5v-0.5v-0.5q26 -68 71 -124t103.5 -96.5t127.5 -62.5q70 -23 146 -23q99 0 186 38q88 38 153 103t103 153q38 87 38 186q0 77 -23 146.5t-63 128.5zM512 0q-70 0 -133 20q-64 20 -117.5 56t-94.5 87q-42 50 -68 111 l149 80q6 3 8 9.5t-2 12.5q-3 6 -9.5 8t-12.5 -2l-144 -76q-12 32 -18 68t-6 74q0 92 35 174q36 81 96.5 142t142.5 97q82 35 174 35q54 0 105 -12q51 -13 96 -36t85 -55q39 -33 69 -73l-99 -53q-6 -3 -8 -9.5t2 -12.5q2 -4 5.5 -6t8.5 -2h4t4 1l102 55q35 -52 54.5 -114.5 t19.5 -130.5q0 -92 -35 -174q-36 -81 -96.5 -142t-142.5 -97q-82 -35 -174 -35z" />
</svg>