<svg viewBox="0 0 256 256" xmlns="http://www.w3.org/2000/svg">
  <path transform="scale(1, -1) translate(0, -256)" fill="currentColor" d="M223 251q-3 0 -5 -2t-2 -5v-23h-176v23q0 3 -2.5 5t-5.5 2t-4.5 -2t-1.5 -5v-232q0 -3 2 -5t5 -2t5 2t2 5v72h176v-72q0 -3 2 -5t5 -2t5 2t2 5v232q0 3 -2 5t-5 2zM40 98v110h176v-110h-176zM92 179h24q3 0 5 2t2 5t-2 5t-5 2h-24q-10 0 -17 -7t-7 -16v-32q0 -10 7 -17 t17 -7h7q10 0 17 7t7 17v16q0 3 -2 5t-5 2h-12q-3 0 -5.5 -2t-2.5 -5t2.5 -5t5.5 -2h4v-10q0 -4 -2.5 -6.5t-6.5 -2.5h-7q-4 0 -7 2.5t-3 6.5v32q0 4 3 7t7 3zM164 193h-2q-9 0 -16 -7t-7 -16v-32q0 -10 7 -17t16 -7h2q10 0 17 7t7 17v32q0 9 -7 16t-17 7zM174 138 q0 -4 -3 -7t-7 -3h-2q-4 0 -6.5 3t-2.5 7v32q0 4 3 6.5t6 2.5h2q4 0 7 -2.5t3 -6.5v-32z" />
</svg>