<svg viewBox="0 0 1024 1024" xmlns="http://www.w3.org/2000/svg">
  <path transform="scale(1, -1) translate(0, -960)" fill="currentColor" d="M893 928q-7 0 -11.5 -4.5t-4.5 -11.5v-102h-730v102q0 7 -4.5 11.5t-11.5 4.5t-11.5 -4.5t-4.5 -11.5v-928q0 -7 4.5 -11.5t11.5 -4.5t11.5 4.5t4.5 11.5v298h730v-298q0 -7 4.5 -11.5t11.5 -4.5t11.5 4.5t4.5 11.5v928q0 7 -4.5 11.5t-11.5 4.5zM147 314v464h730v-464 h-730v0zM368 664h96q7 0 11.5 4.5t4.5 11.5t-4.5 11.5t-11.5 4.5h-96q-34 0 -58.5 -24t-24.5 -59v-128q0 -34 24 -58.5t59 -24.5h29q33 0 58 24t25 59v65q0 8 -4.5 12t-11.5 4h-48q-7 0 -11.5 -4t-4.5 -12q0 -7 4.5 -11.5t11.5 -4.5h32v-49q0 -21 -15 -36t-36 -15h-29 q-20 0 -35.5 14.5t-15.5 36.5v128q0 21 14.5 36t36.5 15v0zM656 696h-6q-34 0 -59 -24t-25 -59v-128q0 -34 24.5 -58.5t59.5 -24.5h6q34 0 58.5 24t24.5 59v128q0 35 -24 59t-59 24zM707 486q0 -20 -14.5 -35.5t-36.5 -15.5h-6q-21 0 -36.5 15t-15.5 36v128q0 21 15 36.5 t37 15.5h6q20 0 35.5 -15t15.5 -37v-128v0z" />
</svg>