<svg viewBox="0 0 256 256" xmlns="http://www.w3.org/2000/svg">
  <path transform="scale(1, -1) translate(0, -256)" fill="currentColor" d="M214 241q-8 10 -20 10h-132q-6 0 -11 -2.5t-9 -7.5q-7 -10 -3 -21q8 -28 31 -46t52 -20v-38q-9 -2 -14 -9t-5 -15q0 -12 9 -19q-3 -15 -8 -27q-8 -18 -22 -28q-2 -1 -3 -3.5t0 -4.5q2 -5 7 -5h86q4 0 6 5t-2 8q-15 11 -23 29q-5 12 -7 26q8 8 8 19q0 8 -5 15t-13 9v38 q29 3 51.5 21t30.5 45q3 12 -4 21zM153 19h-49q16 20 21 48h7q5 -28 21 -48zM140 92q0 -5 -3.5 -8.5t-8 -3.5t-8 3.5t-3.5 8t3.5 8t8 3.5t8 -3.5t3.5 -7.5zM204 224q-8 -25 -29 -40.5t-47 -15.5t-47 15.5t-29 40.5q-1 5 2 9t8 4h132q5 0 8 -4.5t2 -8.5z" />
</svg>