<svg viewBox="0 0 1024 1024" xmlns="http://www.w3.org/2000/svg">
  <path transform="scale(1, -1) translate(0, -960)" fill="currentColor" d="M845 893q-12 17 -31 26t-40 9h-526q-20 0 -38.5 -9t-31.5 -26q-12 -16 -15.5 -35.5t2.5 -38.5q17 -54 49 -100q33 -46 76.5 -80t95.5 -54q53 -19 110 -22v-173q-31 -6 -52.5 -30.5t-21.5 -57.5q0 -21 10 -39.5t26 -30.5q-5 -41 -30.5 -112.5t-96.5 -122.5q-5 -4 -6 -8.5 t0 -9.5t5.5 -8t10.5 -3h342q5 0 9.5 3t6.5 8q1 5 0 10t-6 8q-75 53 -98 126.5t-27 108.5q16 12 25 30.5t9 39.5q0 33 -21.5 57.5t-52.5 30.5v173q58 3 110 22t95 52.5t74 79.5q32 46 49 102q7 19 4 38t-15 36zM640 0h-254q52 52 74 113.5t28 102.5l12 -2t12 -1t13 1t13 2 q6 -37 27 -99.5t75 -116.5zM571 302q0 -24 -16.5 -40.5t-40.5 -16.5t-41 16.5t-17 40.5t17 41t41 17q22 0 39.5 -17.5t17.5 -40.5zM827 829q-15 -53 -46 -96t-72.5 -73.5t-91.5 -47.5t-105 -17q-54 0 -104 17t-92 48t-73 74t-46 95q-4 12 -1.5 23.5t9.5 21.5t19 16t24 6h526 q14 0 25.5 -6t19.5 -16q7 -10 9.5 -22t-1.5 -23v0z" />
</svg>