<svg viewBox="0 0 256 256" xmlns="http://www.w3.org/2000/svg">
  <path transform="scale(1, -1) translate(0, -256)" fill="currentColor" d="M250 80l-13 32q-2 6 -7 9t-10 3h-22q2 3 1 6l-23 59q-2 6 -6.5 9t-10.5 3h-63q-5 0 -10 -3t-7 -9l-22 -59q-1 -3 1 -6h-22q-5 0 -10 -3t-7 -9l-13 -32q-3 -9 2 -17q2 -4 6.5 -6t8.5 -2h96q4 0 6 3t1 6l-23 57h50l-23 -57q-1 -3 1 -6t5 -3h96q5 0 9 2t7 6q5 8 2 17z M92 184q2 3 4 3h63q4 0 4 -3l19 -49h-108zM109 69h-85q-3 0 -4 2v0q-1 2 0 4l12 32q1 3 4 3h56zM236 71v0q-1 -2 -3 -2h-86l16 41h57q3 0 4 -3l12 -32q2 -3 0 -4z" />
</svg>