<svg viewBox="0 0 1024 1024" xmlns="http://www.w3.org/2000/svg">
  <path transform="scale(1, -1) translate(0, -960)" fill="currentColor" d="M987 267l-51 130q-7 18 -22.5 28t-35.5 10h-94v1v1l-90 235q-7 18 -22.5 29t-34.5 11h-251q-20 0 -35.5 -11t-22.5 -29l-88 -234v-0.5v-0.5h-94q-20 0 -35.5 -11t-22.5 -28l-51 -129q-6 -15 -4 -30t10 -28q9 -13 22.5 -20t28.5 -7h384q4 0 7.5 2t5.5 4q3 3 3 7t-1 8 l-83 211h206l-83 -211q-1 -4 -1 -8t2 -7q3 -3 6.5 -4.5t6.5 -1.5h384q16 0 29.5 7t21.5 20q8 12 9.5 27t-4.5 29v0zM358 662q4 9 11.5 14.5t16.5 5.5h251q9 0 17 -5.5t10 -14.5l80 -214h-466zM94 214q-7 0 -13.5 3.5t-10.5 9.5q-4 7 -5.5 14.5t1.5 14.5l51 130q3 8 11 13.5 t16 5.5h234l75 -189h-359v-2zM955 229q-5 -6 -11 -9.5t-13 -3.5h-361l75 189h233q10 0 17 -5.5t11 -13.5l51 -130q3 -7 2.5 -14t-4.5 -13v0z" />
</svg>