<svg viewBox="0 0 256 256" xmlns="http://www.w3.org/2000/svg">
  <path transform="scale(1, -1) translate(0, -256)" fill="currentColor" d="M56 56h20v0q2 1 2 -1q4 -23 30 -31q19 -6 40 0q24 4 32 29q5 13 6 32v25l-2 -2q-8 -16 -21.5 -24.5t-29.5 -9.5q-38 -1 -60.5 21.5t-23.5 64.5q0 20 4 34q8 27 27 42.5t48 15.5q20 0 36 -11q14 -10 20 -23v-1h1v30h22v-161q0 -31 -11 -50q-13 -23 -40 -29t-52 0 q-29 7 -42 28q-6 10 -6 21zM127 234q-13 1 -25.5 -6.5t-21 -22t-9.5 -35.5q-2 -24 6 -42q9 -21 28 -30q11 -6 26 -5t27 9q16 12 22.5 32.5t3.5 42.5q-3 27 -17.5 42t-39.5 15z" />
</svg>