<svg viewBox="0 0 1024 1024" xmlns="http://www.w3.org/2000/svg">
  <path transform="scale(1, -1) translate(0, -960)" fill="currentColor" d="M222 162h7h37.5h37.5h3.5t2.5 -5q10 -51 42.5 -81t79.5 -44q38 -12 78.5 -12t79.5 10q50 10 82.5 40t49.5 77q12 33 16.5 65t5.5 63v52v49h-2q-1 -1 -1.5 -4t-2.5 -6q-33 -62 -87.5 -96.5t-117.5 -35.5q-76 -2 -137 19t-105 64t-68 108t-26 151q-1 36 2 70t14 66 q14 52 41 95q26 42 63.5 72.5t86.5 47.5q48 16 106 17q89 0 146.5 -45.5t79.5 -92.5q1 -1 1.5 -2.5t3.5 1.5v118h86v-330v-195.5v-93.5v-24q0 -56 -10 -108q-10 -51 -34 -93t-62 -71q-38 -30 -94 -43q-50 -12 -105 -13t-107 11t-96 40q-44 27 -71 72q-12 21 -18 42.5 t-8 44.5v0v0zM507 874q-38 0 -76 -15t-69.5 -46.5t-52.5 -81.5q-22 -49 -26 -117q-2 -43 4 -86t22 -81.5t43 -69.5q28 -31 69 -51q41 -19 100.5 -18t108.5 36q35 25 58 59t36 73.5t15 82.5q3 43 -3 86q-7 50 -24 92t-45.5 72.5t-67.5 47.5q-40 17 -92 17v0z" />
</svg>