<svg viewBox="0 0 1024 1024" xmlns="http://www.w3.org/2000/svg">
  <path transform="scale(1, -1) translate(0, -960)" fill="currentColor" d="M646 410q-4 -5 -7.5 -9.5t-3.5 -11.5t2 -10.5t8 -7.5q5 -3 10 -4.5t12 -1.5q9 0 17 3.5t15 9.5q7 7 10 15t3 17q-7 4 -16.5 7.5t-21.5 3.5q-5 -1 -12.5 -4.5t-15.5 -6.5v0zM541 538h-47v-77h47q8 0 15 3t12 8q12 12 10.5 28t-12.5 28q-3 5 -10.5 7.5t-14.5 2.5zM1008 686 q-1 16 -4.5 30t-13.5 25q-3 5 -7.5 8.5t-9.5 5.5q-11 7 -23 9t-25 2h-4.5h-6.5h-808h-5h-7h-4h-5h-9t-9 -1t-9.5 -2t-7.5 -5q-5 -1 -9 -4t-7 -7q-4 -3 -6 -7t-6 -9q-1 -5 -3 -9t-3 -8v-9v-9v-4v-6v-4.5v-6.5v-456v-4v-7v-4v-6v-8t2 -9q1 -5 1.5 -9t4.5 -9q1 -5 4.5 -8.5 t6.5 -7.5q4 -3 7.5 -5t8.5 -6q5 -1 9 -3t9 -3q6 -2 10.5 -2h8.5h4h6h4h7h809h5h7h4h5h9t9 2q5 1 9 1.5t8 4.5q5 1 9 4.5t7 6.5q4 4 6 7.5t6 8.5q3 5 4 9t2 9v10v11v4v5v4.5v6.5v82v82v123.5v124.5q0 10 0.5 24t-0.5 28v0zM341 358q-16 -15 -37 -23.5t-46 -8.5 q-35 0 -66.5 19t-45.5 50v0q-14 28 -14 58.5t14 56.5q16 33 46.5 52.5t65.5 19.5q24 0 46 -8t38 -24l-35 -35q-8 9 -21.5 14.5t-24.5 3.5q-24 0 -44 -15t-28 -36v0q-4 -12 -4 -24.5t4 -25.5q7 -24 25.5 -37.5t46.5 -13.5q13 0 24 3t19 8q10 7 16.5 16.5t7.5 21.5h-67v52h118 q1 -8 1.5 -14t0.5 -14q-1 -30 -11 -54.5t-29 -41.5v0zM589 453q-9 -9 -21 -13.5t-26 -4.5h-46v-89h-29v219h74q13 0 25.5 -5t20.5 -16q19 -18 20.5 -44.5t-18.5 -46.5q1 1 0.5 1t-0.5 -1zM741 342h-27v23h-2q-8 -13 -20 -20t-26 -7t-24.5 3.5t-19.5 12.5q-8 7 -12.5 16.5 t-4.5 21.5t4.5 21t12.5 17q9 8 20.5 10.5t26.5 2.5q13 0 24 -1.5t19 -7.5v6q0 7 -3 13t-8 11t-12.5 8t-14.5 3q-12 0 -21 -5t-18 -16l-24 16q10 16 25.5 22.5t35.5 6.5q16 0 28.5 -4.5t21.5 -12.5q8 -9 12.5 -20.5t4.5 -26.5q1 0 1.5 -46.5l0.5 -46.5v0zM802 278h-29l35 77 l-62 141h32l44 -110l42 110h29l-91 -218v0z" />
</svg>