<svg viewBox="0 0 1024 1024" xmlns="http://www.w3.org/2000/svg">
  <path transform="scale(1, -1) translate(0, -960)" fill="currentColor" d="M363 734q31 -51 58 -98t50 -91.5t43 -86.5t36 -84q-13 -56 -31.5 -110t-38.5 -106q-11 44 -22 87q-12 42 -26.5 83t-33.5 81q-18 40 -43 79q11 58 8.5 120t-0.5 126v0zM256 571h-205q-9 0 -14.5 -10t1.5 -17q35 -46 65 -94q30 -49 55 -100.5t46 -106.5t38 -113h230 q-14 58 -31 113q-16 56 -38 109.5t-50 104.5q-27 52 -63 101q-8 5 -16 9t-18 4zM363 768q57 -91 109 -188t94 -200t69 -210q28 -108 35 -218h250q-10 114 -38 224q-27 110 -68.5 213t-95.5 198q-53 96 -115 181h-240v0zM920 918q-4 12 -13 19t-21 7h-195q-8 0 -14 -7t-3 -15 q10 -38 20 -78q9 -39 16.5 -80t13.5 -83q5 -42 9 -84q39 -71 72 -145q33 -73 58.5 -148.5t42.5 -151.5q18 -76 27 -152q14 50 24 105q11 54 18 111.5t10 116.5q4 58 4 115q0 61 -5 121q-5 59 -13.5 118t-21.5 117t-29 114v0v0z" />
</svg>