<svg viewBox="0 0 256 256" xmlns="http://www.w3.org/2000/svg">
  <path transform="scale(1, -1) translate(0, -256)" fill="currentColor" d="M162 118q-3 -2 -3 -4.5t0.5 -3l2 -2t5.5 -1.5t7.5 3.5t3.5 7.5q-4 3 -10 3q-2 0 -6 -3zM135 150h-11v-19h11q4 0 7 3t2.5 7t-2.5 6.5t-7 2.5zM252 188q-1 9 -4 13q-2 2 -5.5 4.5t-11.5 2.5h-210l-5 -1q-3 0 -4 -1t-4 -3l-2 -4l-2 -5v-128l1 -6q0 -2 0.5 -3.5t3.5 -3.5 l4 -3l4 -2h5h213l5 1q2 0 3.5 0.5t4.5 3.5l2 4q1 1 2 3v128zM85 106q-8 -8 -21 -8q-8 0 -16 4.5t-11.5 12t-3.5 15t4 15t11.5 12.5t15.5 5q13 0 22 -8l-9 -9q-2 2 -5.5 3.5t-6.5 0.5q-6 0 -11 -3.5t-7 -9.5t0 -12t6.5 -9.5t11 -3.5t11.5 3.5t6 9.5h-17v12h30v-6 q0 -16 -10 -24zM147 129q-4 -4 -11 -4h-12v-23h-7v55h18q8 0 12.5 -5t4.5 -11.5t-5 -11.5q1 1 0 1v-1zM185 102h-7v5v0q-4 -7 -11 -7t-11.5 4t-4.5 9.5t4 9.5t12 4t11 -3v2q0 3 -3 6t-7.5 3t-8.5 -5l-6 4q4 7 15 7q8 0 12.5 -4.5t4.5 -11.5v-23zM200 86h-7l9 19l-16 35h8 l12 -28l10 28h7z" />
</svg>