<svg viewBox="0 0 1024 1024" xmlns="http://www.w3.org/2000/svg">
  <path transform="scale(1, -1) translate(0, -960)" fill="currentColor" d="M984 493h-459v-136h329q-6 -71 -36 -122t-74.5 -84t-98.5 -49q-55 -16 -111 -16q-70 0 -135 27q-65 26 -114 73.5t-78 113.5q-29 67 -29 146q0 77 28 143t76.5 114t113.5 76q65 27 138 27q57 0 102 -15q44 -15 75.5 -33.5t47.5 -33.5l17 -15l93 97l-23 22 q-23 21 -66.5 46.5t-107.5 46.5q-63 21 -144 21q-107 1 -199 -40q-91 -41 -158.5 -109.5t-106.5 -158.5q-38 -89 -38 -186q0 -94 36 -183q37 -89 104 -158.5t160 -112.5q93 -42 207 -42q100 0 184 32q85 33 146 92t95 143q34 83 34 184q1 42 -3.5 66l-4.5 24v0v0z" />
</svg>