<svg viewBox="0 0 256 256" xmlns="http://www.w3.org/2000/svg">
  <path transform="scale(1, -1) translate(0, -256)" fill="currentColor" d="M110 5h-22q-3 0 -5 2t-2 5v8q0 3 -4 8t-10 8q-4 3 -6.5 7t-2.5 9v16q0 2 2 4q9 10 16 24q1 3 3.5 4t5.5 0t4 -4t-1 -5q-6 -15 -16 -26v-13q0 -3 2 -4q9 -5 15 -12.5t6 -15.5v0h23l-16 16q-2 2 -2 5l2 43q0 3 2.5 5t6.5 1q22 -6 45 2q2 1 5 -0.5t3 -4.5q3 -13 6 -23l1 -2 v-17q0 -4 -3 -6l-4 -3q-3 -2 -4 -5t0 -5q3 -7 9 -7h12q3 0 6 2t4 5l13 62q-4 29 -2 60q1 5 6 6l16 4q9 1 11.5 10t-3.5 15l-8 8q-2 2 -2 5v15l-18 18q-8 8 -18.5 8t-19.5 -8l-17 -17q-15 -15 -38.5 -24t-47.5 -9q-19 0 -32 -13t-13 -32v-28v-2q11 -42 11 -85l28 -1q3 0 5 -2 t2 -5t-2 -5t-5 -2h-28q-6 0 -10 4t-4 10q0 40 -10 83l-1 4v29q0 16 8 29.5t21.5 21t29.5 7.5q21 0 42 8t34 21l17 17q12 12 28.5 12t29.5 -12l18 -17q4 -4 4 -10v-13l6 -6q5 -5 7 -13t-0.5 -15.5t-8 -13t-13.5 -7.5l-11 -2q-2 -26 1 -52v-5l-5 -24l-7 -36q-2 -8 -8.5 -13.5 t-14.5 -5.5h-12q-8 0 -14 4.5t-8.5 12.5t0 15t9.5 11v1v12l-4 16q-19 -5 -37 -2l-2 -32l13 -13q6 -7 3.5 -15t-10.5 -10h-10zM204 87z" />
</svg>