<svg viewBox="0 0 1024 1024" xmlns="http://www.w3.org/2000/svg">
  <path transform="scale(1, -1) translate(0, -960)" fill="currentColor" d="M440 -32h-10h-11h-67q-7 0 -11.5 4.5t-4.5 11.5v18v11v3q0 18 -20.5 39.5t-43.5 35.5q-13 9 -21 22.5t-8 28.5v64q0 4 1.5 6.5t3.5 5.5q20 21 36 46t28 53q2 6 8.5 8t12.5 0q6 -3 8.5 -9t-0.5 -12q-12 -29 -28.5 -55t-37.5 -49v-58q0 -7 3.5 -13.5t9.5 -10.5 q28 -16 54 -44t26 -58v-3v-11v-2h51h38.5h12.5q5 1 7.5 3.5t2.5 6.5q1 2 0.5 5.5t-3.5 6.5l-63 63q-2 2 -3 5.5t-1 7.5l11 174q0 4 2 7t4 4q3 3 6 3h7q46 -12 93.5 -10t92.5 17q3 1 6.5 1t5.5 -3q3 -1 5 -4t3 -7q6 -26 11.5 -47.5t12.5 -45.5v-2v-3v-67q0 -3 -2 -6.5 t-4 -6.5l-14 -9q-17 -12 -21 -28.5t0 -29.5q3 -13 15 -25t33 -12h48q18 0 32 12t17 28l31 146q11 53 16 76t5 28v1v1q-8 58 -9 116t4 120q0 5 4 9.5t9 5.5l65 14q19 5 34 18t21 32t0.5 38t-18.5 34l-32 32q-2 2 -3.5 4.5t-1.5 6.5v61q0 2 -1 4.5t-2 4.5l-70 71 q-16 17 -37 26t-45 9v0q-24 0 -45 -9t-38 -26l-71 -71q-28 -28 -66 -51q-39 -23 -83 -40t-92 -26t-95 -9q-78 0 -134 -55.5t-56 -134.5v-40.5v-30.5v-38.5t2 -9.5v-3q10 -41 18 -83q7 -42 12.5 -84.5t8.5 -85.5q2 -43 2 -86q0 -5 4 -9t9 -4h112q7 0 11.5 -4.5t4.5 -11.5 t-4.5 -11.5t-11.5 -4.5h-112q-19 0 -32 13.5t-13 31.5q0 42 -2 84q-3 42 -8.5 83.5t-12.5 82.5q-8 41 -18 81v3q-2 6 -2 13v43v29.5v41.5q0 46 17 86q18 41 48 71t71 48q40 17 86 17q44 0 89 9q44 8 85 23.5t77 37.5q36 21 61 47l71 70q21 22 49 33.5t58 11.5v0 q30 0 57.5 -11.5t48.5 -31.5l70 -71q6 -6 9.5 -14t3.5 -18v-54l27 -27q20 -21 27 -49t-1 -55q-9 -28 -29.5 -47t-49.5 -25l-51 -13q-5 -56 -3.5 -110t8.5 -108q1 -4 -2 -18.5t-21 -96.5l-30 -145q-6 -29 -29 -47.5t-53 -18.5h-48q-27 0 -49 16t-29 43q-8 27 1 52t33 41l6 5 v56q-6 19 -11 37.5t-10 39.5q-41 -12 -84 -13.5t-84 6.5l-9 -147l57 -58q10 -9 13.5 -21.5t-0.5 -24.5t-13 -20t-22 -10q-3 -2 -7.5 -2h-29.5zM830 288v0v0v0v0z" />
</svg>