<svg viewBox="0 0 1024 1024" xmlns="http://www.w3.org/2000/svg">
  <path transform="scale(1, -1) translate(0, -960)" fill="currentColor" d="M981 602l-464 168q-3 1 -6 1t-5 -1l-464 -168q-4 -2 -7 -6t-3 -9t3 -9t8 -5l194 -71v-100q0 -57 21 -108q22 -50 59.5 -87t87.5 -59t107 -22t107 22t87.5 59t59.5 87q21 51 21 108v100l139 52v-207q0 -7 4.5 -11.5t11.5 -4.5q8 0 12 4.5t4 11.5v218l23 8q5 1 8 5t3 9 t-3 9t-8 6v0zM512 738l418 -151l-164 -59v0v0l-254 -91l-253 91v0v0l-165 59l418 151v0zM755 402q0 -51 -19 -95t-52 -77t-77 -52q-45 -20 -95 -20t-95 20q-44 19 -77 52t-52 77t-19 95v89l238 -86q1 0 2.5 -1t2.5 -1t2.5 0.5t2.5 1.5l238 86v-89v0z" />
</svg>