<svg viewBox="0 0 256 256" xmlns="http://www.w3.org/2000/svg">
  <path transform="scale(1, -1) translate(0, -256)" fill="currentColor" d="M246 198l-116 42q-2 1 -4 0l-116 -42q-5 -2 -5 -6q0 -3 1.5 -4.5t3.5 -2.5l32 -11v-74q0 -5 4 -7q49 -17 85 -17q18 0 35 4v-12q-9 -2 -14.5 -9t-5.5 -17t8 -18t19 -8t18.5 8t7.5 17.5t-5.5 17t-13.5 9.5v16q7 1 22 6l8 3q4 2 4 7v73l32 12q5 2 5 6q0 2 -1 4t-4 3z M186 42q0 -5 -4 -8.5t-9 -3.5t-8.5 3.5t-3.5 9t3.5 9t8.5 3.5t9 -3.5t4 -9.5zM56 104v64l70 -25l2 -1l2 1l36 13v-62q-25 -5 -50.5 -3t-59.5 13zM200 104q-1 0 -3 -1q-12 -4 -17 -5v63l20 7v-64zM174 174l-30 11q-3 1 -5.5 -0.5t-3.5 -4t0 -5t4 -3.5l14 -6l-25 -9l-95 34 l95 35l95 -35z" />
</svg>