<svg viewBox="0 0 1024 1024" xmlns="http://www.w3.org/2000/svg">
  <path transform="scale(1, -1) translate(0, -960)" fill="currentColor" d="M986 400l-76 77v81q8 6 12 14.5t4 17.5q0 12 -6.5 22t-17.5 15l-404 184q-8 4 -16.5 4t-15.5 -4l-410 -181q-11 -4 -17.5 -14t-6.5 -22t6.5 -22t17.5 -15l152 -69v-210q0 -40 15 -76q16 -37 42.5 -64t62.5 -42q36 -16 77 -16h150q41 0 77 16q36 15 62.5 42t42.5 63 q15 37 15 77v207l93 41l35 16v-68l-75 -74q-7 -7 -7 -17.5t7 -17.5l72 -74q3 -3 8 -5.5t9 -2.5q5 0 9.5 2.5t8.5 5.5l72 74q7 7 7.5 17.5t-5.5 17.5zM718 280q0 -68 -48 -117t-116 -49h-151q-68 0 -116.5 49t-48.5 117v194l228 -103q3 -1 7.5 -2t8.5 -1q3 0 7.5 1t8.5 2 l219 99v-190h1zM830 555l-344 -153q-1 -2 -3 -2t-3 2l-411 184q-4 1 -4.5 3.5t-0.5 4.5q0 1 0.5 3.5t4.5 4.5l408 180h1.5h1.5h1.5h1.5l405 -182q4 -1 4.5 -4t0.5 -4t-0.5 -4t-4.5 -4zM894 318l-62 64l62 64l63 -64z" />
</svg>