<svg viewBox="0 0 1024 1024" xmlns="http://www.w3.org/2000/svg">
  <path transform="scale(1, -1) translate(0, -960)" fill="currentColor" d="M981 717l-464 168q-3 1 -6 1t-5 -1l-464 -168q-4 -3 -7 -6.5t-3 -9.5t3 -9.5t8 -5.5l136 -49v-304q0 -5 3.5 -9t7.5 -6q51 -17 97 -29q45 -13 86 -21t79 -11q37 -4 73 -4q39 0 77 4.5t75 12.5v-73q-34 -6 -56.5 -32t-22.5 -61q0 -38 27.5 -66t67.5 -28q39 0 66.5 27 t27.5 67q0 35 -22.5 61t-55.5 32v80q30 8 62 18t66 22q5 1 8 5t3 9v304l136 50q5 1 8 5t3 9t-4.5 10t-9.5 8v0zM754 106q0 -26 -18 -44.5t-45 -18.5q-26 0 -44 18t-18 45q0 26 18 44t44 18q27 0 45 -18.5t18 -43.5zM210 346v280l296 -108q1 0 2 -0.5t2 -0.5h3t2 1l159 58 v-272q-51 -12 -101 -16q-51 -5 -106.5 -0.5t-118.5 18.5t-138 40v0zM814 346q-27 -10 -53.5 -18.5t-51.5 -15.5v275l105 39v-280v0zM696 618l-123 46q-6 2 -12.5 -1t-8.5 -9t1 -12t9 -8l88 -34l-138 -50l-418 151l418 150l418 -150l-234 -83v0z" />
</svg>