<svg viewBox="0 0 256 256" xmlns="http://www.w3.org/2000/svg">
  <path transform="scale(1, -1) translate(0, -256)" fill="currentColor" d="M248 118l-18 18v18q4 3 4 10.5t-7 11.5l-101 46q-6 2 -11 0l-102 -46q-4 -1 -6 -4.5t-2 -7.5t2 -7t6 -5l36 -16v-50q0 -22 15 -37.5t37 -15.5h37q22 0 37 15.5t15 37.5v49l26 12v-11l-17 -18q-3 -3 -3 -7t3 -6l18 -19q3 -2 6.5 -2t6.5 2l18 19q3 3 3 6.5t-3 6.5zM177 86 q0 -16 -11.5 -27t-26.5 -11h-38q-16 0 -27 11t-11 27v44l53 -24q2 -1 5 -1t5 1l51 23v-43zM206 158l-85 -39l-101 45l100 44l100 -44zM224 100l-12 12l12 11l11 -11z" />
</svg>