<svg viewBox="0 0 1024 1024" xmlns="http://www.w3.org/2000/svg">
  <path transform="scale(1, -1) translate(0, -960)" fill="currentColor" d="M309 611v162q0 29 -20 49t-49 20h-166q-15 0 -24.5 -10t-9.5 -24v-32q0 -7 4.5 -11.5t11.5 -4.5t11.5 4.5t4.5 11.5v32v1.5t2 0.5h166q16 0 26.5 -11t10.5 -26v-107h-181q-26 0 -45 -19t-19 -45v-117q0 -27 19 -45.5t45 -18.5h149q26 0 45 18.5t19 45.5v126v0zM277 483 q0 -13 -9.5 -22.5t-22.5 -9.5h-149q-13 0 -22.5 9.5t-9.5 22.5v117q0 13 9.5 22.5t22.5 9.5h181v-149zM464 419h149q26 0 45 19t19 45v117q0 26 -19 45t-45 19h-181v224q0 7 -4.5 11.5t-11.5 4.5t-11.5 -4.5t-4.5 -11.5v-405q0 -26 19 -45t45 -19v0zM613 634q13 0 22.5 -9.5 t9.5 -22.5v-117q0 -13 -9.5 -22.5t-22.5 -9.5h-149q-13 0 -22.5 9.5t-9.5 22.5v149h181zM976 451h-141q-15 0 -26 10.5t-11 26.5v107q0 16 11 26.5t26 10.5h141q7 0 11.5 4.5t4.5 11.5t-4.5 11.5t-11.5 4.5h-141q-29 0 -49 -20t-20 -49v-107q0 -29 20 -49t49 -20h141 q7 0 11.5 4.5t4.5 11.5t-4.5 11.5t-11.5 4.5v0zM698 270l-240 -240l-132 130q-4 5 -10.5 5t-11.5 -5t-5 -11.5t5 -10.5l142 -143q3 -2 6 -3.5t6 -1.5q2 0 5 1.5t6 3.5l251 251q5 5 5 11.5t-5 11.5t-11.5 5t-10.5 -4v0z" />
</svg>