<svg viewBox="0 0 1024 1024" xmlns="http://www.w3.org/2000/svg">
  <path transform="scale(1, -1) translate(0, -960)" fill="currentColor" d="M741 734q-35 0 -60 -25t-25 -59q0 -5 1 -10.5t2 -10.5l-56 -37q-1 -1 -2 -1t-3 1l-56 18h-2h-2q-5 30 -28.5 50t-55.5 20q-34 0 -59 -25t-25 -60q0 -9 2 -18t6 -17q-3 0 -4.5 -1t-2.5 -2q-13 -11 -27 -22t-27 -21q-12 12 -27.5 18t-31.5 6q-35 0 -60 -25t-25 -60t25 -60 t60 -25q34 0 59 25t25 60q0 8 -1 16.5t-5 15.5q13 11 28 22.5t28 22.5l2 2t1 2q12 -12 27.5 -18.5t31.5 -6.5q30 0 53 18.5t29 46.5l51 -16q3 -1 6 -1h5q6 0 11 1.5t10 4.5l51 34q12 -16 29.5 -25t38.5 -9q34 0 59 25t25 60t-23 60.5t-58 25.5v0zM259 405q-21 0 -37 15.5 t-16 37.5q0 21 16 36.5t37 15.5q22 0 37.5 -15.5t15.5 -36.5q0 -22 -15.5 -37.5t-37.5 -15.5zM456 546q-22 0 -37.5 15.5t-15.5 36.5q0 22 15.5 37.5t37.5 15.5t37.5 -15.5t15.5 -37.5q0 -21 -15.5 -36.5t-37.5 -15.5zM741 598q-22 0 -37.5 16t-15.5 37q0 22 15.5 37.5 t37.5 15.5q21 0 37 -15.5t16 -37.5q0 -21 -16 -37t-37 -16zM886 846h-748q-44 0 -75 -31t-31 -74v-371q0 -44 31 -75t75 -31h358v-181h-195q-7 0 -11.5 -4.5t-4.5 -11.5t4.5 -11.5t11.5 -4.5h422q7 0 11.5 4.5t4.5 11.5t-4.5 11.5t-11.5 4.5h-195v181h358q44 0 75 31t31 75 v371q0 43 -31 74t-75 31zM960 370q0 -30 -22 -52t-52 -22h-748q-30 0 -52 22t-22 52v371q0 30 22 51.5t52 21.5h748q30 0 52 -21.5t22 -51.5v-371z" />
</svg>