<svg viewBox="0 0 256 256" xmlns="http://www.w3.org/2000/svg">
  <path transform="scale(1, -1) translate(0, -256)" fill="currentColor" d="M244 50h-5v93q0 6 -4.5 10.5t-10.5 4.5h-23q-6 0 -10.5 -4.5t-4.5 -10.5v-93h-32v54q0 6 -4.5 10.5t-10.5 4.5h-23q-6 0 -10.5 -4.5t-4.5 -10.5v-54h-31v155q0 7 -4.5 11t-11.5 4h-22q-7 0 -11.5 -4.5t-4.5 -10.5v-155h-4q-3 0 -5 -2.5t-2 -5.5t2 -4.5t5 -1.5h232 q3 0 5 2t2 5t-2 5t-5 2zM31 50v155q0 1 1 1h23q1 0 1 -1v-155h-25zM116 50v54q0 1 1 1h23q1 0 1 -1v-54h-25zM200 50v93q0 1 2 1h22q2 0 2 -1v-93h-26z" />
</svg>