<svg viewBox="0 0 256 256" xmlns="http://www.w3.org/2000/svg">
  <path transform="scale(1, -1) translate(0, -256)" fill="currentColor" d="M244 64h-5v90q0 6 -4.5 10.5t-10.5 4.5h-23q-6 0 -10.5 -4.5t-4.5 -10.5v-90h-32v127q0 6 -4.5 10.5t-10.5 4.5h-23q-6 0 -10.5 -4.5t-4.5 -10.5v-127h-31v73q0 7 -4.5 11t-11.5 4h-22q-7 0 -11.5 -4t-4.5 -11v-73h-4q-3 0 -5 -2t-2 -5t2 -5t5 -2h232q3 0 5 2.5t2 5.5 t-2 4.5t-5 1.5zM31 64v73q0 1 1 1h23q1 0 1 -1v-73h-25zM116 64v127q0 1 1 1h23q1 0 1 -1v-127h-25zM200 64v90q0 1 2 1h22q2 0 2 -1v-90h-26z" />
</svg>