<svg viewBox="0 0 256 256" xmlns="http://www.w3.org/2000/svg">
  <path transform="scale(1, -1) translate(0, -256)" fill="currentColor" d="M244 24h-5v110q0 6 -4.5 10.5t-10.5 4.5h-23q-6 0 -10.5 -4.5t-4.5 -10.5v-110h-32v86q0 6 -4.5 10.5t-10.5 4.5h-23q-6 0 -10.5 -4.5t-4.5 -10.5v-86h-31v57q0 6 -4.5 10.5t-11.5 4.5h-22q-7 0 -11.5 -4.5t-4.5 -10.5v-57h-4q-3 0 -5 -2t-2 -5t2 -5t5 -2h232q3 0 5 2.5 t2 5.5t-2 4.5t-5 1.5zM31 24v57q0 1 1 1h23q1 0 1 -1v-57h-25zM116 24v86q0 1 1 1h23q1 0 1 -1v-86h-25zM200 24v110q0 1 2 1h22q2 0 2 -1v-110h-26zM38 160h2l168 50l-8 -13q-2 -3 -1.5 -5.5t3 -4t4.5 -1.5q4 0 6 3l17 28q2 3 1.5 5.5t-3.5 4.5l-28 17q-2 2 -5 1.5t-4.5 -3 t-1 -5.5t3.5 -4l14 -9l-170 -50q-2 -1 -3.5 -3.5t-1 -5.5t2.5 -4t4 -1z" />
</svg>