<svg viewBox="0 0 256 256" xmlns="http://www.w3.org/2000/svg">
  <path transform="scale(1, -1) translate(0, -256)" fill="currentColor" d="M244 19h-34v121q0 3 -2 5.5t-5 2.5t-5 -2.5t-2 -5.5v-121h-53v82q0 3 -2 5t-5 2t-5 -2t-2 -5v-82h-56v43q0 3 -2 5t-5 2t-5.5 -2t-2.5 -5v-43h-24q-6 0 -10.5 4.5t-4.5 10.5v210q0 3 -2 5t-5 2t-5 -2t-2 -5v-210q0 -12 8.5 -20.5t20.5 -8.5h210q3 0 5 2t2 5t-2 5t-5 2z M64 101q12 0 20.5 8.5t8.5 20.5q0 4 -2 10l19 12q8 -8 20 -8t20.5 8.5t8.5 20.5q0 3 -1 9l24 14q9 -10 21 -10t20.5 8.5t8.5 20.5t-8.5 20.5t-20.5 8.5t-20.5 -8.5t-8.5 -20.5l1 -7l-25 -14q-8 7 -20 7t-20 -8.5t-8 -20.5q0 -4 1 -8l-20 -13q-8 7 -19.5 7t-20 -8.5t-8.5 -20 t8.5 -20t20.5 -8.5zM203 231q6 0 10.5 -4.5t4.5 -10.5t-4.5 -10.5t-10.5 -4.5t-10.5 4.5t-4.5 10.5t4.5 10.5t10.5 4.5zM131 188q6 0 10.5 -4.5t4.5 -10.5t-4.5 -10.5t-10.5 -4.5t-10.5 4.5t-4.5 10.5t4.5 10.5t10.5 4.5zM64 145q6 0 10.5 -4.5t4.5 -10.5t-4.5 -10.5 t-10.5 -4.5t-10.5 4.5t-4.5 10.5t4.5 10.5t10.5 4.5z" />
</svg>