<svg viewBox="0 0 256 256" xmlns="http://www.w3.org/2000/svg">
  <path transform="scale(1, -1) translate(0, -256)" fill="currentColor" d="M251 197v1l-1 3l-2 3l-43 12q-3 0 -5.5 -1.5t-3 -4.5t1 -5t4.5 -3l27 -7l-33 -23q-6 23 -23 40q-12 12 -27.5 18t-32 6t-32 -6t-27.5 -18.5t-19 -28.5t-7 -32v-9l-20 -16q-3 -1 -3 -4t2 -5.5t5 -2.5t4 1l16 12q6 -20 21 -36q12 -12 27.5 -18.5t31.5 -6.5q31 0 55 20 l63 -63q2 -2 5 -2t5 2t2 5t-2 5l-63 63q11 12 16 27.5t4 31.5l36 25l-6 -22q0 -3 1 -5.5t4 -2.5l2 -1q2 0 4 1.5t3 3.5l11 42zM63 200q10 10 23 15.5t27 5.5q29 0 50 -21q16 -16 19 -38l-36 -26q-3 -3 -7.5 -2.5t-6.5 3.5l-29 33q-6 7 -16 8t-18 -5l-26 -20q0 13 5 25.5 t15 21.5zM162 101q-20 -21 -49.5 -21t-50.5 21q-14 15 -19 35l34 26q3 3 7.5 2.5t7.5 -4.5l28 -32q6 -8 15.5 -9t17.5 5l29 20q-1 -24 -20 -43z" />
</svg>