<svg viewBox="0 0 1024 1024" xmlns="http://www.w3.org/2000/svg">
  <path transform="scale(1, -1) translate(0, -960)" fill="currentColor" d="M976 0h-147v498q0 7 -4.5 11.5t-11.5 4.5t-11.5 -4.5t-4.5 -11.5v-498h-237v341q0 7 -4.5 11.5t-11.5 4.5t-11.5 -4.5t-4.5 -11.5v-341h-246v182q0 8 -4.5 12t-11.5 4q-8 0 -12 -4t-4 -12v-182h-114q-30 0 -51 21t-21 51v840q0 7 -4.5 11.5t-11.5 4.5t-11.5 -4.5 t-4.5 -11.5v-840q0 -43 30.5 -73.5t73.5 -30.5h840q7 0 11.5 4.5t4.5 11.5t-4.5 11.5t-11.5 4.5zM256 352q43 0 73.5 30.5t30.5 73.5q0 13 -3 25t-8 21l88 56q1 2 2 3t3 2q14 -18 35 -28t45 -10q43 0 73.5 30.5t30.5 73.5q0 12 -2.5 22.5t-7.5 20.5l115 64q15 -18 36 -29 t46 -11q43 0 73.5 30.5t30.5 73.5t-30.5 73.5t-73.5 30.5t-73.5 -30.5t-30.5 -73.5q0 -10 1.5 -18.5t4.5 -16.5l-117 -64q-14 15 -34 24t-42 9q-44 0 -74 -30t-30 -74q0 -10 2 -21t6 -20q-3 0 -4.5 -0.5t-2.5 -1.5l-89 -59q-15 14 -33.5 22t-40.5 8q-43 0 -73.5 -30 t-30.5 -74q0 -43 31 -72.5t73 -29.5v0zM813 870q30 0 51 -21t21 -51t-21 -51t-51 -21t-51 21t-21 51t21.5 51t50.5 21zM523 701q30 0 51 -21t21 -51t-21 -51t-51 -21t-51 21t-21 51t21 51t51 21zM256 526q30 0 51 -21t21 -51t-21 -51t-51 -21t-51 21t-21 51t21.5 51t50.5 21 z" />
</svg>