<svg viewBox="0 0 1024 1024" xmlns="http://www.w3.org/2000/svg">
  <path transform="scale(1, -1) translate(0, -960)" fill="currentColor" d="M992 725v1.5v1.5v1.5t-2 1.5v1t-1 1v0v0v0v0l-1 0.5l-1 0.5l-0.5 1l-0.5 1q-2 0 -2 1t-2 1l-0.5 0.5l-0.5 0.5l-167 45q-6 1 -12 -2t-7 -9t2 -12t9 -7l132 -34l-168 -120q-9 47 -31.5 91t-58.5 80q-47 47 -106.5 71.5t-123.5 24.5q-65 0 -125 -24.5t-106 -71.5 q-45 -47 -70.5 -106t-25.5 -124q0 -10 1 -19.5t2 -19.5l-88 -68q-4 -4 -5 -11t2 -12q3 -3 6 -4.5t7 -1.5q2 0 4.5 1t5.5 2l75 56q11 -44 32.5 -83.5t53.5 -71.5q47 -47 106.5 -71.5t124.5 -24.5q61 0 117 22t102 63l262 -263q3 -2 6 -3.5t5 -1.5q3 0 6 1.5t6 3.5q4 5 4 11.5 t-4 11.5l-263 262q47 52 67.5 114.5t15.5 127.5l175 124l-32 -120q-1 -6 2 -12t9 -7h2.5h2.5q5 0 9 3.5t7 7.5l43 162v0v0v3v2v0zM157 539q0 59 22 112.5t64 95.5t95.5 64.5t112.5 22.5t112.5 -22.5t95.5 -64.5q36 -36 56.5 -79.5t26.5 -89.5l-152 -109q-18 -12 -38.5 -10 t-34.5 18l-115 131q-23 26 -58 29.5t-62 -18.5l-125 -97v8v9v0zM659 331h-0.5t0.5 0h-1h1q-42 -42 -95.5 -64t-112.5 -22t-112.5 22t-95.5 64q-32 33 -52.5 72t-28.5 83l140 109q17 13 39 11t37 -19l113 -131q23 -25 56 -29.5t61 15.5l136 97q0 -56 -21 -110.5t-64 -97.5z " />
</svg>