<svg viewBox="0 0 1024 1024" xmlns="http://www.w3.org/2000/svg">
  <path transform="scale(1, -1) translate(0, -960)" fill="currentColor" d="M976 123h-30v386q0 20 -14 34t-34 14h-92q-20 0 -34 -14t-14 -34v-387h-150v228q0 21 -14 34.5t-34 13.5h-91q-21 0 -34.5 -13.5t-13.5 -34.5v-227h-151v634q0 20 -13.5 34t-34.5 14h-96q-20 0 -34 -14t-14 -34v-635h-30q-7 0 -11.5 -4.5t-4.5 -11.5q0 -8 4.5 -12 t11.5 -4h928q7 0 11.5 4t4.5 12q0 7 -4.5 12t-11.5 5zM110 123v634q0 7 4.5 11.5t11.5 4.5h92q7 0 11.5 -4.5t4.5 -11.5v-635h-124v1zM450 123v227q0 8 4 12t12 4h91q7 0 11.5 -4t4.5 -12v-227h-123v0zM789 123v386q0 7 4.5 11.5t11.5 4.5h91q7 0 11.5 -4.5t4.5 -11.5v-387 h-123v1z" />
</svg>