<svg viewBox="0 0 1024 1024" xmlns="http://www.w3.org/2000/svg">
  <path transform="scale(1, -1) translate(0, -960)" fill="currentColor" d="M976 21h-30v449q0 21 -14 34.5t-34 13.5h-92q-20 0 -34 -13.5t-14 -34.5v-449h-150v353q0 21 -14 34.5t-34 13.5h-91q-21 0 -34.5 -13.5t-13.5 -34.5v-353h-151v240q0 20 -13.5 34t-34.5 14h-96q-20 0 -34 -14t-14 -34v-240h-30q-7 0 -11.5 -4.5t-4.5 -11.5t4.5 -11.5 t11.5 -4.5h928q7 0 11.5 4.5t4.5 11.5t-4.5 11.5t-11.5 4.5zM110 21v240q0 7 4.5 11.5t11.5 4.5h92q7 0 11.5 -4.5t4.5 -11.5v-240h-124v0zM450 21v353q0 8 4 12t12 4h91q7 0 11.5 -4t4.5 -12v-353h-123v0zM789 21v449q0 8 4.5 12t11.5 4h91q7 0 11.5 -4t4.5 -12v-449h-123z M154 587h2h2l700 208l-48 -77q-4 -6 -3 -12t7 -10q3 -1 4.5 -2t3.5 -1q4 0 8 2t5 6l71 112q3 6 2 12.5t-7 9.5l-112 71q-6 3 -12.5 2t-10.5 -7q-3 -6 -2 -12.5t7 -10.5l80 -49v0h-1l-703 -208q-6 -3 -9 -8t-2 -11q4 -8 8.5 -11.5t9.5 -3.5v0z" />
</svg>