<svg viewBox="0 0 1024 1024" xmlns="http://www.w3.org/2000/svg">
  <path transform="scale(1, -1) translate(0, -960)" fill="currentColor" d="M976 22h-30v386q0 20 -14 34t-34 14h-92q-20 0 -34 -14t-14 -34v-386h-150v228q0 20 -14 34t-34 14h-91q-21 0 -34.5 -14t-13.5 -34v-228h-151v445q0 21 -13.5 34.5t-34.5 13.5h-96q-20 0 -34 -13.5t-14 -34.5v-445h-30q-7 0 -11.5 -4t-4.5 -12q0 -7 4.5 -11.5t11.5 -4.5 h928q7 0 11.5 4.5t4.5 11.5q0 8 -4.5 12t-11.5 4v0zM110 22v445q0 7 4.5 11.5t11.5 4.5h92q7 0 11.5 -4.5t4.5 -11.5v-445h-124v0zM450 22v228q0 7 4 11.5t12 4.5h91q7 0 11.5 -4.5t4.5 -11.5v-228h-123v0zM789 22v386q0 7 4.5 11.5t11.5 4.5h91q7 0 11.5 -4.5t4.5 -11.5 v-386h-123zM162 717q20 0 37.5 8t30.5 22l196 -126q-5 -10 -7.5 -19.5t-2.5 -20.5q0 -40 27.5 -67.5t66.5 -27.5q40 0 67.5 27.5t27.5 67.5v4.5v6.5l169 70q14 -16 33.5 -27t42.5 -11q39 0 66.5 27.5t27.5 66.5q0 40 -27.5 67.5t-66.5 27.5q-40 0 -67.5 -27.5t-27.5 -67.5 q0 -7 1.5 -14t3.5 -13l-165 -69q-12 24 -34.5 38.5t-50.5 14.5q-19 0 -36.5 -7.5t-30.5 -19.5l-197 128q4 8 6 17.5t2 19.5q0 39 -27 66.5t-67 27.5t-66.5 -28t-26.5 -68q0 -39 28 -66.5t67 -27.5v0zM851 779q25 0 44 -18.5t19 -43.5t-18 -44t-45 -19q-26 0 -44 19t-18 44 t18 43.5t44 18.5zM512 642q25 0 43.5 -19t18.5 -44t-18 -43.5t-44 -18.5q-25 0 -43.5 18.5t-18.5 43.5t18.5 44t43.5 19zM162 874q25 0 43.5 -19t18.5 -44t-18 -43.5t-44 -18.5q-27 0 -45 18.5t-18 43.5t18.5 44t44.5 19z" />
</svg>