<svg viewBox="0 0 256 256" xmlns="http://www.w3.org/2000/svg">
  <path transform="scale(1, -1) translate(0, -256)" fill="currentColor" d="M185 202q-10 0 -17 -7t-7 -17l1 -4l-12 -7l-13 4q-2 8 -8.5 13t-15.5 5t-16 -7t-7 -17q0 -4 1 -7l-11 -9q-7 5 -16 5t-16 -7t-7 -17t7 -17t17 -7t17 7t7 17q0 4 -1 7l11 9q7 -5 15 -5t14 4.5t8 11.5l10 -3q3 -1 5.5 -1t5.5 2l11 7q7 -8 17.5 -8t17.5 7t7 17t-7.5 17 t-17.5 7zM65 120q-4 0 -7 3t-3 7.5t3 7t7 2.5t7 -2.5t3 -7t-3 -7.5t-7 -3zM114 156q-4 0 -7 2.5t-3 7t3 7.5t7 3t7 -3t3 -7.5t-3 -7t-7 -2.5zM185 168q-4 0 -7 3t-3 7.5t3 7t7 2.5t7 -2.5t3 -7t-3 -7.5t-7 -3zM222 230h-188q-12 0 -20.5 -8.5t-8.5 -20.5v-93q0 -12 8.5 -21 t20.5 -9h87v-39h-46q-3 0 -5 -2t-2 -5t2 -5t5 -2h106q3 0 5 2t2 5t-2 5t-5 2h-46v39h87q12 0 20.5 9t8.5 21v93q0 12 -8.5 20.5t-20.5 8.5zM237 108q0 -6 -4.5 -10.5t-10.5 -4.5h-188q-6 0 -10.5 4.5t-4.5 10.5v93q0 7 4.5 11.5t10.5 4.5h188q6 0 10.5 -4.5t4.5 -11.5v-93z " />
</svg>