<svg viewBox="0 0 256 256" xmlns="http://www.w3.org/2000/svg">
  <path transform="scale(1, -1) translate(0, -256)" fill="currentColor" d="M244 24h-5v94q0 6 -4.5 10.5t-10.5 4.5h-23q-6 0 -10.5 -4.5t-4.5 -10.5v-94h-32v54q0 7 -4.5 11.5t-10.5 4.5h-23q-6 0 -10.5 -4.5t-4.5 -11.5v-53h-31v108q0 6 -4.5 10.5t-11.5 4.5h-22q-7 0 -11.5 -4.5t-4.5 -10.5v-109h-4q-3 0 -5 -2t-2 -5t2 -5t5 -2h232q3 0 5 2.5 t2 5.5t-2 4.5t-5 1.5zM31 24v109q0 1 1 1h23q1 0 1 -1v-109h-25zM116 24v54q0 2 1 2h23q1 0 1 -2v-53h-25v-1zM200 24v94q0 1 2 1h22q2 0 2 -1v-94h-26zM40 192q11 0 18 7l45 -29q-2 -4 -2 -9q0 -11 8 -19t19 -8t18.5 8t7.5 19v1l38 16q8 -9 19.5 -9t19 7.5t7.5 19t-7.5 19 t-18.5 7.5t-18.5 -7.5t-7.5 -18.5v-6l-36 -15q-4 6 -10 9.5t-12 3.5q-10 0 -17 -6l-45 29q1 3 1 8q0 11 -8 19t-18.5 8t-18.5 -8t-8 -19t8 -19t18 -8zM213 208q5 0 8.5 -3.5t3.5 -9t-3.5 -9.5t-8.5 -4t-9 4t-4 9t3.5 9t9.5 4zM140 161q0 -5 -3.5 -9t-8.5 -4t-8.5 3.5t-3.5 9 t3.5 9.5t8.5 4t8.5 -4t3.5 -9zM40 232q6 0 9.5 -4t3.5 -8.5t-2 -7.5q-4 -6 -10 -6t-9.5 4t-3.5 9t3.5 9t8.5 4z" />
</svg>