<svg viewBox="0 0 256 256" xmlns="http://www.w3.org/2000/svg">
  <path transform="scale(1, -1) translate(0, -256)" fill="currentColor" d="M234 139q-26 0 -48 -21q4 22 12.5 47t18.5 39t16.5 14t10.5 4t4 9.5t-4 9.5t-10 4q-32 0 -62 -19q-14 -9 -27 -22q-14 15 -28 25q-31 22 -67 22q-6 0 -10 -4t-4 -10t4 -9.5t10.5 -3.5t16.5 -14t19 -40q7 -21 11 -44q-5 -14 -10 -32l-4 8q-12 18 -28 27.5t-34 9.5 q-6 0 -9.5 -4t-3.5 -9.5t3.5 -9.5t8.5 -4q2 -2 5 -6q4 -7 8 -16q10 -30 10 -71q0 -6 4 -10t10 -4h142q6 0 9.5 4t3.5 10q0 41 11 71q3 10 6.5 15.5t5.5 6.5q6 0 9.5 4t3.5 9.5t-4 9.5t-10 4zM99 175q-9 27 -20 42.5t-23 19.5q28 -2 53 -19q15 -11 27 -24q-8 -9 -13 -17 q-8 -12 -16 -29q-4 17 -8 27zM210 94q-12 -32 -12 -75h-141q0 43 -11 75q-3 9 -7 17q-7 11 -13 13q13 -1 24.5 -9t20.5 -21q6 -10 13 -25q1 -2 2.5 -3t4.5 -1q5 0 6 6q9 55 37 99q20 29 44.5 44.5t49.5 17.5q-11 -4 -22.5 -20t-20.5 -42q-11 -32 -17 -77q-1 -3 0.5 -5t4 -3 t5 0t3.5 3l3 6q10 14 21.5 22t24.5 9q-10 -5 -20 -31z" />
</svg>