<svg viewBox="0 0 1024 1024" xmlns="http://www.w3.org/2000/svg">
  <path transform="scale(1, -1) translate(0, -960)" fill="currentColor" d="M938 480q-60 0 -114.5 -29t-98.5 -83q11 64 25 122t32 110q40 114 83 167.5t73 53.5q18 0 30.5 12.5t12.5 30.5t-12.5 30.5t-30.5 12.5q-64 -1 -125 -20t-119 -55q-31 -19 -59.5 -44t-55.5 -54q-27 32 -56.5 59t-61.5 49q-61 43 -127 64.5t-136 21.5q-16 0 -28.5 -12.5 t-12.5 -30.5t12.5 -30.5t30.5 -12.5q30 0 73 -53.5t82 -167.5q15 -42 27 -87.5t21 -93.5q-14 -38 -26 -79.5t-22 -83.5q-7 15 -15 29.5t-17 27.5q-47 70 -107.5 107t-129.5 37q-18 0 -30.5 -12.5t-12.5 -30.5t12.5 -30.5t29.5 -12.5v0v0q3 0 20.5 -20t36.5 -76 q21 -59 31.5 -133.5t10.5 -154.5q0 -18 12.5 -30.5t30.5 -12.5h568q18 0 30.5 12.5t12.5 30.5q0 80 11 154.5t31 133.5q19 58 36.5 77t21.5 19q18 0 30.5 12.5t12.5 30.5q0 19 -12.5 32t-30.5 13v0zM384 632q-19 57 -42 102q-22 45 -46 76.5t-49 48.5q-25 16 -49 16 q-4 0 -7.5 3.5t-3.5 7.5q0 5 3.5 8.5t7.5 3.5q64 0 125 -20.5t119 -59.5q31 -22 59 -48.5t56 -57.5q-15 -17 -29 -35.5t-27 -38.5q-22 -32 -41 -68t-36 -74q-8 35 -18 69.5t-22 66.5v0zM938 426q-22 0 -45.5 -32t-42.5 -87q-22 -61 -33 -138t-11 -159q0 -5 -3 -8.5t-8 -3.5 h-568q-5 0 -8 3.5t-3 8.5q0 82 -11.5 159t-31.5 138q-19 55 -42 87t-46 32q-5 0 -8 3t-3 8q1 5 4.5 8t7.5 3q60 0 114 -33.5t96 -96.5q14 -22 27 -47.5t23 -52.5q2 -5 6.5 -8.5t9.5 -3.5q6 0 9.5 4t4.5 9q10 57 24 110q14 54 33 104.5t42 96.5q24 46 51 88q40 60 86.5 106.5 t97.5 78.5q54 34 111.5 51.5t116.5 17.5q4 0 7.5 -3t3.5 -8t-3.5 -6.5t-7.5 -1.5q-24 0 -49 -17q-25 -16 -48.5 -47.5t-46.5 -76.5q-22 -45 -42 -102q-23 -68 -40.5 -145t-28.5 -163q-1 -6 2 -10.5t9 -6.5q6 -3 11.5 -0.5t8.5 8.5t7 12.5t9 12.5q40 63 94.5 96.5t113.5 33.5 q4 0 7.5 -3t3.5 -8t-3.5 -8t-7.5 -3z" />
</svg>