<svg viewBox="0 0 1024 1024" xmlns="http://www.w3.org/2000/svg">
  <path transform="scale(1, -1) translate(0, -960)" fill="currentColor" d="M883 926h-742q-45 0 -77 -31.5t-32 -76.5v-743q0 -44 32 -76.5t77 -32.5h742q45 0 77 32.5t32 76.5v743q0 45 -32 76.5t-77 31.5zM960 818v-204h-432v280h355q31 0 54 -22t23 -54v0zM528 582h432v-272h-432v272zM496 310h-432v272h432v-272zM141 894h355v-280h-432v204 q0 32 23 54t54 22zM64 75v203h432v-280h-355q-31 0 -54 23t-23 54v0zM883 -2h-355v280h432v-203q0 -31 -23 -54t-54 -23v0z" />
</svg>