<svg viewBox="0 0 1024 1024" xmlns="http://www.w3.org/2000/svg">
  <path transform="scale(1, -1) translate(0, -960)" fill="currentColor" d="M976 432q7 0 11.5 4.5t4.5 11.5t-4.5 11.5t-11.5 4.5h-138v227h138q7 0 11.5 4.5t4.5 11.5t-4.5 11.5t-11.5 4.5h-138v103q0 7 -4 11.5t-12 4.5q-7 0 -11.5 -4.5t-4.5 -11.5v-103h-278v103q0 7 -4.5 11.5t-11.5 4.5t-11.5 -4.5t-4.5 -11.5v-103h-278v103q0 7 -4.5 11.5 t-11.5 4.5q-8 0 -12 -4.5t-4 -11.5v-103h-138q-7 0 -11.5 -4.5t-4.5 -11.5t4.5 -11.5t11.5 -4.5h138v-227h-138q-7 0 -11.5 -4.5t-4.5 -11.5t4.5 -11.5t11.5 -4.5h138v-227h-138q-7 0 -11.5 -4.5t-4.5 -11.5t4.5 -11.5t11.5 -4.5h138v-103q0 -7 4 -11.5t12 -4.5 q7 0 11.5 4.5t4.5 11.5v103h278v-103q0 -7 4.5 -11.5t11.5 -4.5t11.5 4.5t4.5 11.5v103h278v-103q0 -7 4.5 -11.5t11.5 -4.5q8 0 12 4.5t4 11.5v103h138q7 0 11.5 4.5t4.5 11.5t-4.5 11.5t-11.5 4.5h-138v227h138zM806 691v-227h-278v227h278zM218 691h278v-227h-278v227v0z M218 205v227h278v-227h-278v0zM806 205h-278v227h278v-227z" />
</svg>