<svg viewBox="0 0 1024 1024" xmlns="http://www.w3.org/2000/svg">
  <path transform="scale(1, -1) translate(0, -960)" fill="currentColor" d="M315 917h-203q-34 0 -57 -23.5t-23 -56.5v-203q0 -34 23 -57t57 -23h203q34 0 57 23t23 57v203q0 33 -23 56.5t-57 23.5zM363 634q0 -21 -13.5 -34.5t-34.5 -13.5h-203q-20 0 -34 13.5t-14 34.5v203q0 20 14 34t34 14h203q21 0 34.5 -14t13.5 -34v-203zM912 917h-203 q-34 0 -57 -23.5t-23 -56.5v-203q0 -34 23 -57t57 -23h203q34 0 57 23t23 57v203q0 33 -23 56.5t-57 23.5zM960 634q0 -21 -14 -34.5t-34 -13.5h-203q-21 0 -34.5 13.5t-13.5 34.5v203q0 20 13.5 34t34.5 14h203q20 0 34 -14t14 -34v-203zM315 342h-203q-34 0 -57 -23 t-23 -57v-203q0 -33 23 -56.5t57 -23.5h203q34 0 57 23.5t23 56.5v203q0 34 -23 57t-57 23v0zM363 59q0 -20 -13.5 -34t-34.5 -14h-203q-20 0 -34 14t-14 34v203q0 21 14 34.5t34 13.5h203q21 0 34.5 -13.5t13.5 -34.5v-203zM912 342h-203q-34 0 -57 -23t-23 -57v-203 q0 -33 23 -56.5t57 -23.5h203q34 0 57 23.5t23 56.5v203q0 34 -23 57t-57 23v0zM960 59q0 -20 -14 -34t-34 -14h-203q-21 0 -34.5 14t-13.5 34v203q0 21 13.5 34.5t34.5 13.5h203q20 0 34 -13.5t14 -34.5v-203z" />
</svg>