<svg viewBox="0 0 256 256" xmlns="http://www.w3.org/2000/svg">
  <path transform="scale(1, -1) translate(0, -256)" fill="currentColor" d="M79 151h-51q-10 0 -16.5 7t-6.5 16v51q0 10 6.5 16.5t16.5 6.5h51q9 0 16 -6.5t7 -16.5v-51q0 -9 -7 -16t-16 -7zM28 234q-4 0 -6.5 -2.5t-2.5 -6.5v-51q0 -3 2.5 -6t6.5 -3h51q3 0 6 3t3 6v51q0 4 -2.5 6.5t-6.5 2.5h-51zM228 151h-51q-9 0 -16 7t-7 16v51q0 10 7 16.5 t16 6.5h51q10 0 16.5 -6.5t6.5 -16.5v-51q0 -9 -6.5 -16t-16.5 -7zM177 234q-3 0 -6 -2.5t-3 -6.5v-51q0 -3 2.5 -6t6.5 -3h51q4 0 6.5 3t2.5 6v51q0 4 -2.5 6.5t-6.5 2.5h-51zM79 8h-51q-10 0 -16.5 6.5t-6.5 16.5v51q0 9 6.5 16t16.5 7h51q9 0 16 -7t7 -16v-51 q0 -10 -7 -16.5t-16 -6.5zM28 91q-4 0 -6.5 -3t-2.5 -6v-51q0 -4 2.5 -6.5t6.5 -2.5h51q3 0 6 2.5t3 6.5v51q0 3 -2.5 6t-6.5 3h-51zM228 8h-51q-9 0 -16 6.5t-7 16.5v51q0 9 7 16t16 7h51q10 0 16.5 -7t6.5 -16v-51q0 -10 -6.5 -16.5t-16.5 -6.5zM177 91q-3 0 -6 -3t-3 -6 v-51q0 -4 2.5 -6.5t6.5 -2.5h51q4 0 6.5 2.5t2.5 6.5v51q0 3 -2.5 6t-6.5 3h-51z" />
</svg>