<svg viewBox="0 0 256 256" xmlns="http://www.w3.org/2000/svg">
  <path transform="scale(1, -1) translate(0, -256)" fill="currentColor" d="M244 121q3 0 5 2t2 5t-2 5t-5 2h-31v51h31q3 0 5 2t2 5t-2 5t-5 2h-31v22q0 3 -2 5.5t-5 2.5t-5.5 -2.5t-2.5 -5.5v-22h-63v22q0 3 -2 5.5t-5 2.5t-5 -2.5t-2 -5.5v-22h-64v22q0 3 -2 5.5t-5 2.5t-5 -2.5t-2 -5.5v-22h-31q-3 0 -5 -2t-2 -5t2 -5t5 -2h31v-51h-31 q-3 0 -5 -2t-2 -5t2 -5t5 -2h31v-51h-31q-3 0 -5 -2t-2 -5t2 -5t5 -2h31v-22q0 -3 2 -5t5 -2t5.5 2t2.5 5v22h63v-22q0 -3 2 -5t5 -2t5.5 2t2.5 5v22h63v-22q0 -3 2 -5t5 -2t5.5 2t2.5 5v22h30q3 0 5 2.5t2 5.5t-2 4.5t-5 1.5h-31v51h31zM199 186v-51h-64v51h64zM57 186h64 v-51h-64v51zM57 70v51h64v-51h-64zM199 70h-64v51h64v-51z" />
</svg>