<svg viewBox="0 0 256 256" xmlns="http://www.w3.org/2000/svg">
  <path transform="scale(1, -1) translate(0, -256)" fill="currentColor" d="M226 66q-4 12 -14 17.5t-21 2.5l-46 -14q2 7 0 13t-8 9t-13 3h-38q-6 0 -11.5 5.5t-13.5 5.5h-31q-9 0 -16 -7.5t-7 -17.5v-49q0 -10 7 -17t17 -7h37q7 0 13 4h1q15 -9 34 -9q11 0 22 3l68 21q14 5 18.5 16t1.5 21zM31 24q-4 0 -7 3t-3 8v49q0 4 3 7t6 3h31q3 0 5 -2 l4 -3v-65h-39zM202 42l-68 -20q-9 -3 -18 -3q-15 0 -28 7l-4 3v55h40q3 0 5 -1t2.5 -2.5t-1.5 -5.5t-6.5 -8.5t-2 -8t4.5 -4t10 1.5l59 17q6 2 11 -1t6 -9q4 -15 -10 -21zM248 246q-2 4 -5 4q-18 2 -29 0q-16 -3 -26 -14q-9 -8 -10 -23q0 -11 5 -18q-19 -15 -28 -37 q-7 19 -24 34q7 8 7 21q0 7 -2.5 13t-6.5 10q-11 11 -27 14q-11 2 -28 1q-5 -1 -6.5 -4.5t1.5 -7.5t6 -11q1 -4 2 -11l1 -1q1 -8 3 -12q2 -7 6 -11q10 -9 23 -9l8 1q30 -23 30 -64q0 -3 2 -5t5 -2t5 2t2 5q0 42 32 65v1q5 -3 12 -3q13 0 23 9q4 4 6 11q2 4 3.5 12t2.5 12 q2 7 6 12q2 1 2 3t-1 3zM98 203q-4 3 -6 15v2q-3 11 -5 17q20 0 33 -11q5 -5 5 -12.5t-4.5 -12t-11.5 -4t-11 5.5zM225 218q-2 -12 -6.5 -16t-11 -4.5t-11 4t-4.5 12t6 12.5q11 11 32 11h1q-3 -6 -6 -17v-2z" />
</svg>