<svg viewBox="0 0 1024 1024" xmlns="http://www.w3.org/2000/svg">
  <path transform="scale(1, -1) translate(0, -960)" fill="currentColor" d="M930 221q-14 43 -51.5 64t-78.5 9q-52 -15 -117 -34t-109 -31q16 24 17 41t-4 29q-8 23 -30.5 33t-44.5 10h-160q-13 0 -27 6t-27 18q-11 10 -24 15.5t-28 5.5h-129q-35 0 -60 -26t-25 -63v-207q0 -37 25 -64t61 -27h156q14 0 28 5t26 16l11 -7q33 -18 68.5 -27t72.5 -9 q23 0 44.5 3t41.5 9l292 90q55 22 68 63t4 78v0v0zM118 32q-22 0 -38 17.5t-16 41.5v207q0 24 15.5 40.5t37.5 16.5h129q9 0 17 -3t14 -8q5 -5 10.5 -8.5t11.5 -7.5h-1v-288q-6 -2 -11.5 -5t-11.5 -3h-157v0zM848 110l-290 -88q-18 -6 -37 -8.5t-39 -2.5q-33 0 -64.5 8.5 t-60.5 23.5l-21 11l-5 2v256q6 -1 11.5 -2t11.5 -1h160q13 0 26.5 -6t17.5 -17q5 -13 -5.5 -32.5t-34.5 -42.5l-9 -8l6 -11q5 -10 24.5 -6t132.5 38q52 16 95 28l43 12q27 8 53.5 -7.5t35.5 -45.5q5 -17 1 -50t-52 -51v0zM990 795q-1 13 -10.5 22t-21.5 10q-27 3 -72.5 -4 t-80.5 -42q-17 -17 -29 -39.5t-19 -45.5v0v0q2 25 -3.5 74.5t-39.5 88.5q-34 37 -81.5 47.5t-77.5 11.5v0q-13 0 -22.5 -9.5t-10.5 -23.5q-3 -33 3 -84.5t38 -88.5q27 -30 64 -39t67 -9q20 0 32.5 1.5t15.5 1.5v-253q0 -7 4.5 -11.5t11.5 -4.5q8 0 12 4.5t4 11.5v160h5.5 h4.5q31 0 80.5 9t84.5 44q35 36 39.5 89t1.5 79zM723 698q-20 -3 -65 0.5t-72 34.5q-28 31 -32 78.5t-2 70.5q0 2 1 2.5l1 0.5v0q21 0 64 -8.5t72 -39.5q28 -31 31 -75t2 -64zM923 648q-31 -31 -80 -37t-70 -6q1 21 12 71t42 81q30 30 70.5 34.5t59.5 2.5q1 0 2 -1t1 -3 q1 -20 -3 -65.5t-34 -76.5v0z" />
</svg>