<svg viewBox="0 0 1024 1024" xmlns="http://www.w3.org/2000/svg">
  <path transform="scale(1, -1) translate(0, -960)" fill="currentColor" d="M891 198q-13 41 -49 62t-74 9q-48 -15 -109 -33t-102 -30q13 22 14.5 38.5t-3.5 27.5q-8 22 -30 32t-42 10h-152q-13 0 -25.5 5.5t-24.5 16.5q-10 10 -23 14.5t-26 4.5h-123q-34 0 -58 -25t-24 -60v-195q0 -36 24 -61t59 -25h147q14 0 27.5 4.5t24.5 14.5l9 -5 q30 -17 64 -25t69 -8q22 0 42 3t40 9l278 82q53 20 65 59t2 75v0v0zM123 21q-21 0 -36 15.5t-15 38.5v195q0 22 14.5 37.5t35.5 15.5h123q8 0 15 -2.5t12 -8.5q5 -5 9.5 -8.5t9.5 -5.5v-272q-5 -3 -10.5 -4t-10.5 -1h-147v0zM813 94l-275 -83q-17 -6 -35.5 -8.5t-36.5 -2.5 q-32 0 -61.5 8t-57.5 22l-21 12l-4 1v242q4 -1 9 -2t11 -1h154q12 0 25 -6t17 -15q4 -12 -5 -30.5t-32 -40.5l-10 -8l7 -11q4 -9 23 -5.5t125 34.5q50 14 90 26l40 12q26 8 50.5 -6t32.5 -43q6 -16 2.5 -47t-48.5 -48v0zM982 915q-1 4 -5 7t-7 3q-52 5 -108 -1.5t-104 -53.5 q-15 -15 -24 -37t-9 -46q0 -21 6.5 -40t18.5 -32v0h-1q-48 -35 -80.5 -80t-47.5 -101q-15 51 -44 93.5t-71 76.5q2 1 3.5 3t2.5 3q14 15 22 34.5t7 42.5q0 24 -9 46.5t-25 36.5q-48 46 -103.5 52t-107.5 3q-5 0 -8.5 -3t-4.5 -7q-1 -3 -1 -7.5t3 -8.5q18 -25 25.5 -50 t12.5 -49t12 -46t23 -39q16 -15 38 -23.5t46 -8.5q8 0 16.5 1.5t16.5 3.5q65 -48 97.5 -115.5t32.5 -154.5q0 -8 4.5 -12t11.5 -4t11.5 4t4.5 12q0 87 33 155.5t98 116.5q2 1 3.5 3t1.5 5q12 -8 25 -10.5t26 -2.5q23 0 44.5 8.5t38.5 23.5q18 17 24.5 39t10.5 46 q5 25 12.5 50t26.5 49q2 2 3 6.5t-2 7.5v0zM381 739q-12 12 -17.5 29t-9.5 38q-3 21 -8.5 43.5t-19.5 46.5q41 2 83.5 -5.5t76.5 -40.5q11 -11 17.5 -27t6.5 -34q0 -16 -5 -30t-15 -25q-23 -22 -55.5 -18.5t-53.5 23.5v0zM912 806q-5 -21 -9.5 -38.5t-16.5 -28.5 q-20 -20 -53 -23.5t-55 18.5q-10 10 -15.5 24t-5.5 31q0 18 6.5 34t17.5 27q30 28 65 38t71 10h11.5h10.5q-12 -26 -17.5 -48.5t-9.5 -43.5z" />
</svg>