<svg viewBox="0 0 1024 1024" xmlns="http://www.w3.org/2000/svg">
  <path transform="scale(1, -1) translate(0, -960)" fill="currentColor" d="M931 202q-13 42 -49 62t-76 10q-49 -15 -111.5 -33.5t-104.5 -30.5q15 22 15.5 39t-3.5 28q-9 21 -30.5 31t-41.5 10h-156q-13 0 -26 6t-25 17q-11 9 -23.5 14t-25.5 5h-125q-34 0 -58 -25t-24 -61v-199q0 -36 25 -62t60 -26h150q15 0 28 5t25 14l11 -4q32 -17 66 -26.5 t70 -9.5q22 0 43 3.5t41 9.5l280 85q51 22 63.5 62t1.5 76v0v0zM152 21q-22 0 -37.5 16.5t-15.5 39.5v198q0 23 14.5 39t35.5 16h125q8 0 15 -3t13 -9l10 -8t10 -6v-277q-5 -2 -10.5 -3.5t-10.5 -1.5h-149v-1zM853 96l-279 -85q-18 -6 -36 -8.5t-37 -2.5q-31 0 -62 8t-58 22 l-21 12l-5 1v247q5 -2 10.5 -3t10.5 -1h155q13 0 26 -5.5t17 -16.5q5 -12 -4.5 -31t-33.5 -41l-10 -8l7 -11q5 -10 24 -6t128 36q49 15 91 27l42 12q26 7 51 -7t33 -43q4 -16 0 -47t-49 -49v0zM704 453h5.5h5.5v-56q0 -7 4.5 -11.5t11.5 -4.5t11.5 4.5t4.5 11.5v291h6h5 q33 0 68 17t65 47q37 37 54 81.5t7 80.5q-1 3 -4.5 6.5t-6.5 4.5q-36 11 -80.5 -6t-81.5 -55q-31 -31 -48 -67.5t-16 -70.5v-0.5v-0.5v-135q-7 10 -14.5 20t-17.5 19q-37 37 -81 53.5t-80 7.5q-4 -2 -7 -5t-5 -7q-10 -36 6.5 -80t54.5 -81q30 -30 65.5 -47t67.5 -17v0z M803 842q28 27 61.5 42.5t60.5 11.5q3 -26 -11.5 -60t-43.5 -62q-28 -28 -61.5 -43t-59.5 -11q-4 26 10.5 59.5t43.5 62.5zM539 661q27 3 60.5 -11.5t61.5 -43.5q27 -27 42.5 -61t11.5 -60q-26 -4 -60 10.5t-61 43.5q-28 29 -43 62t-12 60v0z" />
</svg>