<svg viewBox="0 0 256 256" xmlns="http://www.w3.org/2000/svg">
  <path transform="scale(1, -1) translate(0, -256)" fill="currentColor" d="M236 67q-4 12 -14 17.5t-21 2.5l-47 -14q2 7 -0.5 13t-8.5 9.5t-12 3.5h-39q-5 0 -11 5t-14 5h-32q-10 0 -16.5 -7t-6.5 -17v-50q0 -10 7 -17.5t17 -7.5h37q7 0 14 4h1q16 -9 35 -9q11 0 21 3l70 21q14 6 18.5 16.5t1.5 21.5zM38 24q-4 0 -7 3.5t-3 8.5v49q0 4 3 7t7 3 h31q2 0 5 -2l4 -3v-66h-2h-38zM212 43l-70 -21q-9 -3 -17 -3q-16 0 -29 7l-5 3v56h41q3 0 5.5 -1t3 -3t-1.5 -5.5t-6.5 -8t-2.5 -8.5t4 -4.5t10 1.5l60 18q6 1 11 -2t7 -8.5t0 -11.5t-10 -9zM176 126v-10q0 -3 2 -5.5t5 -2.5t5 2.5t2 5.5v69q9 0 18.5 4.5t17.5 12.5 q10 10 14 21.5t2 21.5q-2 4 -5 5q-10 3 -22 -1.5t-22 -14.5q-8 -8 -12.5 -18t-4.5 -19v-25l-2 3q-10 10 -22 14.5t-22 1.5q-4 -1 -5 -5q-3 -10 1.5 -21.5t14.5 -21.5q8 -8 17 -12.5t18 -4.5zM203 224q6 7 13 10t12 3q0 -5 -3 -12t-9.5 -13.5t-13 -9.5t-12.5 -3q0 5 3 12 t10 13zM163 166q7 -7 10 -13.5t3 -12.5q-5 0 -12 3t-13.5 9.5t-9.5 13.5t-3 12q5 0 12 -3t13 -9z" />
</svg>