<svg viewBox="0 0 256 256" xmlns="http://www.w3.org/2000/svg">
  <path transform="scale(1, -1) translate(0, -256)" fill="currentColor" d="M235 72q-3 12 -13.5 18t-22.5 2l-49 -14q2 8 -0.5 14t-8.5 9t-13 3h-40q-6 0 -12 6t-14 6h-33q-10 0 -17 -7.5t-7 -18.5v-51q0 -11 7 -18.5t18 -7.5h38q7 0 14 5l2 -1q18 -9 36 -9q11 0 22 3l73 22q15 5 19 17q4 10 1 22zM30 27q-5 0 -8 3.5t-3 8.5v51q0 5 3 8.5t7 3.5 h33q2 0 4.5 -2t5.5 -4v-68h-3h-39v-1zM211 46l-73 -22q-7 -2 -18 -2q-15 0 -30 7l-5 3v59h43q3 0 5 -1t3 -3q2 -5 -9 -16q-4 -4 -2 -7.5t4.5 -4t10.5 1.5l62 18q6 2 11.5 -1.5t8 -9.5t0.5 -12t-11 -10zM251 215q0 4 -3.5 7t-7.5 4q-10 0 -19 -2q-13 -3 -22 -11q-4 -4 -7 -9 q-2 18 -12 29q-8 9 -21 13q-10 2 -21 2q-4 0 -7.5 -3t-3.5 -8q-1 -11 1 -22q2 -14 10 -23q12 -13 35 -13h9v-59q0 -3 2 -5.5t5 -2.5t5 2.5t2 5.5v36q29 0 43 14q8 9 11 23q2 10 1 22zM178 193q-21 -1 -30 8.5t-8 32.5q21 -1 30 -11t8 -30zM228 180q-9 -9 -32 -10q1 9 4 17 q3 11 9 16q9 9 25 9h3q1 -23 -9 -32z" />
</svg>