<svg viewBox="0 0 256 256" xmlns="http://www.w3.org/2000/svg">
  <path transform="scale(1, -1) translate(0, -256)" fill="currentColor" d="M182 76l-12 14v1q10 14 10 30q0 20 -13 34.5t-32 16.5v11h9q3 0 5 2t2 5t-2 5t-5 2h-9v40h6q3 0 5 2t2 5t-2 5t-5 2h-26q-3 0 -5 -2t-2 -5t2 -5t5 -2h6v-21h-13q-3 0 -5 -2t-2 -5t2 -5t5 -2h13v-30q-19 -2 -32 -16.5t-13 -34.5q0 -16 10 -30l-12 -15q-10 -12 -10 -29 t12.5 -29.5t29.5 -12.5h43q18 0 30.5 12.5t12.5 30.5q1 16 -10 28zM150 19h-44q-12 0 -20 8.5t-8 20t7 18.5l12 15q4 4 4 9t-3 9q-7 9 -7 22q0 16 11 27t26.5 11t26.5 -11t11 -27q0 -12 -7 -22q-3 -4 -3 -9t4 -9l12 -15q7 -8 7 -19t-9 -19.5t-20 -8.5zM128 102q8 0 14.5 6 t6.5 14.5t-6 14.5t-15 6t-15 -6t-6 -14.5t6.5 -14.5t14.5 -6zM128 129q3 0 5 -2t2 -5t-2 -5t-5 -2t-5 2t-2 5t2 5t5 2zM144 60h-32q-3 0 -5 -2t-2 -5t2 -5t5 -2h32q3 0 5 2t2 5t-2 5t-5 2z" />
</svg>