<svg viewBox="0 0 1024 1024" xmlns="http://www.w3.org/2000/svg">
  <path transform="scale(1, -1) translate(0, -960)" fill="currentColor" d="M718 232l-49 58q-4 3 -4 7.5t4 9.5q18 25 27.5 54.5t9.5 60.5q0 77 -52 132.5t-126 61.5v0v0v66h46q8 0 12 4t4 12q0 7 -4 11.5t-12 4.5h-46v182h35q7 0 11.5 4.5t4.5 11.5t-4.5 11.5t-11.5 4.5h-102q-7 0 -11.5 -4.5t-4.5 -11.5t4.5 -11.5t11.5 -4.5h35v-109h-66 q-7 0 -11.5 -4.5t-4.5 -11.5t4.5 -11.5t11.5 -4.5h66v-141v0v0q-74 -6 -126 -61t-52 -132q0 -31 9.5 -60.5t27.5 -54.5q3 -4 3 -9t-3 -9l-49 -58q-20 -21 -29.5 -48t-9.5 -56q0 -66 47 -113t113 -47h171q66 0 113 47t47 113q-1 30 -10.5 57t-29.5 49v0zM598 0h-172 q-53 0 -90.5 37.5t-37.5 90.5q0 23 8 44.5t22 38.5l50 58q10 12 10.5 28t-9.5 29q-15 21 -23.5 45.5t-8.5 50.5q0 68 48 115t114 47t113.5 -48t47.5 -114q0 -26 -8 -50t-24 -46q-9 -13 -8.5 -28.5t10.5 -28.5l50 -58q15 -17 22.5 -38.5t7.5 -44.5q4 -53 -32.5 -90.5 t-89.5 -37.5zM512 354q29 0 49.5 20.5t20.5 49.5t-20.5 49.5t-49.5 20.5t-49.5 -20.5t-20.5 -49.5t20.5 -49.5t49.5 -20.5zM512 462q16 0 27 -11t11 -27t-11 -27t-27 -11t-27 11t-11 27t11 27t27 11zM576 165h-128q-7 0 -11.5 -4.5t-4.5 -11.5t4.5 -11.5t11.5 -4.5h128 q7 0 11.5 4.5t4.5 11.5t-4.5 11.5t-11.5 4.5z" />
</svg>