<svg viewBox="0 0 256 256" xmlns="http://www.w3.org/2000/svg">
  <path transform="scale(1, -1) translate(0, -256)" fill="currentColor" d="M186 159h-13v33q0 15 -10.5 25.5t-25.5 10.5h-18q-15 0 -25.5 -10.5t-10.5 -25.5v-33h-13q-17 0 -32 -9t-24 -24t-9 -33t8.5 -33t24 -23.5t32.5 -8.5h116q17 0 32 8.5t24 23.5t9 33t-9 33t-24 24t-32 9zM97 192q0 9 6.5 15.5t15.5 6.5h18q9 0 15.5 -6.5t6.5 -15.5v-33 h-62v33zM70 145h116q21 0 36 -15.5t15 -36.5v-7h-217l-1 7q0 22 15 37t36 15zM186 42h-116q-15 0 -27.5 8.5t-19.5 21.5h209q-6 -13 -18.5 -21.5t-27.5 -8.5z" />
</svg>