<svg viewBox="0 0 1024 1024" xmlns="http://www.w3.org/2000/svg">
  <path transform="scale(1, -1) translate(0, -960)" fill="currentColor" d="M742 560h-62v147q0 54 -38.5 92.5t-92.5 38.5h-74q-54 0 -92.5 -38.5t-38.5 -92.5v-147h-62q-52 0 -97 -20q-46 -19 -80 -53t-53 -80q-20 -46 -20 -98t20 -98q19 -45 53 -79t80 -53q45 -20 97 -20h460q52 0 97 20q46 19 80 53t53 80q20 45 20 97q0 51 -20 97 q-19 46 -53 80t-80 54q-45 20 -97 20zM378 706q0 40 29 69.5t70 29.5h73q41 0 70.5 -29.5t29.5 -69.5v-146h-272v146zM282 528h459q45 0 85 -17t70 -47t47 -70t17 -85q0 -10 -1 -20.5t-2 -19.5h-890q-1 11 -2 20.5t-1 19.5q0 45 17 85t46.5 70t69.5 47t85 17v0zM742 91h-460 q-71 0 -127.5 41t-79.5 105h872q-21 -64 -77.5 -105t-127.5 -41v0z" />
</svg>