<svg viewBox="0 0 1024 1024" xmlns="http://www.w3.org/2000/svg">
  <path transform="scale(1, -1) translate(0, -960)" fill="currentColor" d="M976 29h-74v838h74q7 0 11.5 4.5t4.5 11.5t-4.5 11.5t-11.5 4.5h-88v0v0h-752v0v0h-88q-7 0 -11.5 -4.5t-4.5 -11.5t4.5 -11.5t11.5 -4.5h72v-837h-72q-7 0 -11.5 -4t-4.5 -12q0 -7 4.5 -11.5t11.5 -4.5h928q7 0 11.5 4.5t4.5 11.5q0 8 -4.5 11.5t-11.5 3.5zM870 488 h-219v379h219v-379v0zM619 867v-377h-214v377h214zM373 867v-377h-221v377h221zM403 29v205h219v-205h-219zM653 29v221q0 7 -4.5 11.5t-11.5 4.5h-250q-7 0 -11.5 -4.5t-4.5 -11.5v-221h-219v427h718v-427h-217v0z" />
</svg>