<svg viewBox="0 0 1024 1024" xmlns="http://www.w3.org/2000/svg">
  <path transform="scale(1, -1) translate(0, -960)" fill="currentColor" d="M272 774q20 -13 73 -58.5t92 -115.5q3 -6 9.5 -7.5t12.5 1.5t7.5 9.5t-0.5 12.5q-26 44 -57 79q-32 35 -60 59.5t-47 38.5q-20 14 -22 15q-4 2 -8 2t-8 -2t-40 -26q-37 -25 -79.5 -70t-77.5 -111q-35 -65 -35 -148q0 -47 14 -90q15 -42 40.5 -76.5t60.5 -58.5 q36 -24 77 -33h1.5h1.5q6 0 10.5 3.5t5.5 9.5t-2 12t-11 7q-72 16 -119 79.5t-47 146.5q0 68 27 123t62 96.5t70 66.5q34 26 49 35v0zM483 528q-7 0 -11.5 -4.5t-4.5 -11.5v-120h-117v120q0 7 -4 11.5t-12 4.5q-7 0 -11.5 -4.5t-4.5 -11.5v-274q0 -7 4.5 -11.5t11.5 -4.5 q8 0 12 4.5t4 11.5v120h117v-120q0 -7 4.5 -11.5t11.5 -4.5t11.5 4.5t4.5 11.5v274q0 7 -5 11.5t-11 4.5zM909 542h-43q-35 0 -59.5 -24t-24.5 -59v-145q0 -35 24.5 -59.5t59.5 -24.5h43q35 0 59 24.5t24 59.5v145q0 35 -24 59t-59 24v0zM960 315q0 -21 -15 -36t-36 -15h-43 q-22 0 -37 15t-15 36v146q0 21 15 36t37 15h43q21 0 36 -15t15 -36v-146zM714 251q0 30 -21 51t-51 21t-51 -21t-21 -51v-17q0 -8 4 -12t12 -4q7 0 11.5 4t4.5 12v17q0 17 11.5 28.5t28.5 11.5q16 0 28 -11.5t12 -28.5q0 -13 -5 -26t-13 -23l-72 -90q-2 -4 -3 -8.5t1 -9.5 q3 -3 6.5 -6t8.5 -3h94q7 0 11.5 4.5t4.5 11.5t-4.5 11.5t-11.5 4.5h-61l52 62q12 16 18 34.5t6 37.5v0z" />
</svg>