<svg viewBox="0 0 256 256" xmlns="http://www.w3.org/2000/svg">
  <path transform="scale(1, -1) translate(0, -256)" fill="currentColor" d="M68 206q9 -6 18 -15q13 -13 20 -26q2 -3 4.5 -3.5t5 1t3.5 4t-1 5.5q-10 18 -28 34q-10 9 -19 15v0q-4 2 -7 0l-1 -1q-19 -12 -32 -27q-26 -30 -26 -64q0 -24 14.5 -43t36.5 -24h1q3 0 4.5 1.5t2.5 4t-1 5t-4 3.5q-17 4 -28.5 19t-11.5 35q0 26 20 50q12 15 29 26z M121 151q-3 0 -5 -2t-2 -5v-27h-24v27q0 3 -2 5t-5 2t-4.5 -2t-1.5 -5v-68q0 -3 2 -5.5t5 -2.5t5 2.5t2 5.5v27h23v-27q0 -3 2.5 -5.5t5.5 -2.5t5 2.5t2 5.5v68q-1 3 -3.5 5t-4.5 2zM227 155h-11q-9 0 -16 -7t-7 -17v-36q0 -10 7 -17t16 -7h11q10 0 17 7t7 17v36q0 10 -7 17 t-17 7zM237 95q0 -4 -2.5 -7t-6.5 -3h-11q-4 0 -7 3t-3 7v36q0 4 3 7t7 3h11q3 0 6 -3t3 -7v-36zM182 79q0 8 -6 14.5t-15 6.5t-15 -6t-6 -15v-5q0 -3 2 -5t5 -2t5 2t2 5v5q0 2 2 4.5t5 2.5t5 -2t2 -5q0 -6 -4 -11l-18 -22q-2 -3 -0.5 -7.5t6.5 -4.5h24q3 0 5 2.5t2 5.5 t-2 5t-5 2h-9l9 11q6 8 6 19z" />
</svg>