<svg viewBox="0 0 256 256" xmlns="http://www.w3.org/2000/svg">
  <path transform="scale(1, -1) translate(0, -256)" fill="currentColor" d="M238 189q-12 29 -38 47q-19 13 -38 15q-10 0 -19.5 -2.5t-16.5 -8.5q-16 9 -35.5 5.5t-37.5 -17.5q-19 -15 -31 -38t-14 -49q-2 -30 10 -58q15 -36 29 -41q6 -2 10.5 1.5t6.5 8t1.5 8.5t-1.5 10l-2 4q-3 12 -1.5 25t7.5 24q11 20 34 29q9 -16 27 -31q11 -9 35 -23 q10 -7 12 -11t2 -9q0 -4 -2 -12v-6q-2 -15 4 -32q5 -14 18 -20q7 -3 13 -3t10.5 2t7 6.5t1.5 10.5q0 4 -2 10l-2 4q-2 6 1 13q1 5 5 14l5 9q9 21 11 50q2 38 -10 65zM234 125q-2 -28 -10 -45l-3 -7q-5 -12 -7 -19q-3 -10 -1 -20l2 -5q2 -7 1.5 -9t-4.5 -2t-8 2q-8 4 -10 12 q-5 13 -4 26l1 6q2 9 2 14q0 8 -3 13.5t-8 10.5l-9 6l-1 1q-24 14 -35 23q-18 15 -25 32q-2 4 -6 4q-2 0 -2 -1q-15 -5 -27.5 -14.5t-20 -23t-9.5 -29t3 -30.5l2 -10q0 -4 -1 -5q-2 1 -7 8q-6 9 -13 25q-11 26 -9 52q1 22 12 42.5t28 34.5q15 12 30 15q8 1 16 -0.5t14 -5.5 q2 -1 5 -1t4 2q5 5 13 7.5t16 2.5q16 -1 32 -12q11 -8 19.5 -18.5t13.5 -22.5q11 -26 9 -59z" />
</svg>