<svg viewBox="0 0 1024 1024" xmlns="http://www.w3.org/2000/svg">
  <path transform="scale(1, -1) translate(0, -960)" fill="currentColor" d="M886 186l-494 409q-2 22 -11 42.5t-26 37.5q-33 34 -80.5 37.5t-85.5 -22.5q-7 19 -12.5 51.5t9.5 64.5q13 33 47 55.5t87 34.5q6 1 10 7t1 12q-1 6 -7 10t-12 1q-61 -14 -100.5 -40.5t-57.5 -66.5q-21 -47 -11.5 -90.5t17.5 -62.5q-32 -39 -30 -89.5t38 -85.5 q17 -17 38 -26t44 -11l422 -480q2 -2 5.5 -3t7.5 -1q2 0 5.5 1t5.5 2q5 5 5.5 11t-3.5 11l-407 463q17 3 33 11.5t30 23.5q13 13 22 29.5t13 34.5l477 -394q2 -2 4.5 -2.5t4.5 -0.5q4 0 7.5 1.5t5.5 4.5q5 4 4 10t-6 10zM331 514q-14 -15 -31.5 -22t-37.5 -7h-3h-3 q-17 1 -34 8t-30 21q-29 28 -29 69t29 70q14 14 32.5 21.5t36.5 7.5t36 -7.5t33 -21.5q13 -13 20 -29.5t8 -34.5v-3v-4q2 -18 -5 -36t-22 -32z" />
</svg>