<svg viewBox="0 0 256 256" xmlns="http://www.w3.org/2000/svg">
  <path transform="scale(1, -1) translate(0, -256)" fill="currentColor" d="M226 236q-13 9 -27.5 12t-29.5 0l-105 -27l-50 14q-3 0 -6 -1.5t-3 -5.5v-93q0 -4 3 -6t6 -1l50 17l77 -19l8 -31h-14q-3 0 -5 -2t-2 -5t2 -5.5t5 -2.5h17l14 -56q2 -8 8.5 -13t16 -5t17 7t7.5 17v95l10 6q12 10 18.5 23.5t6.5 29t-6 29t-18 23.5zM19 219l38 -10v-51 l-38 -13v74zM202 31q0 -4 -3.5 -7.5t-7.5 -3.5t-7 2.5t-4 6.5l-23 93l11 -3q10 -2 17.5 -2t15.5 2v-88h1zM217 142q-10 -7 -21.5 -9.5t-23.5 0.5l-101 25v51l101 25q12 3 23.5 0.5t21 -10t15 -18.5t5.5 -23t-5.5 -23t-14.5 -18z" />
</svg>