<svg viewBox="0 0 1024 1024" xmlns="http://www.w3.org/2000/svg">
  <path transform="scale(1, -1) translate(0, -960)" fill="currentColor" d="M894 869q-46 36 -103 48.5t-114 -2.5l-421 -105l-203 54q-4 0 -8 -0.5t-7 -2.5q-3 -3 -4.5 -6t-1.5 -7v-373q0 -3 2 -6.5t4 -6.5q4 -2 7.5 -2t7.5 1l203 69l320 -80v-3v-2l34 -139h-69q-7 0 -11.5 -4.5t-4.5 -11.5q0 -8 4.5 -12t11.5 -4h73h2h2l57 -234q7 -30 31 -48.5 t54 -18.5q36 0 62 26t26 62v376v2t-2 3q12 6 24 13t23 15q47 36 72 89t25 111q2 58 -23.5 110.5t-72.5 88.5v0zM64 827l176 -46v-223l-176 -60v329zM818 61q0 -23 -17 -39.5t-39 -16.5q-20 0 -35 12t-20 31l-96 394l67 -16q16 -4 31.5 -6t31.5 -2q20 0 39.5 3t38.5 9v-369 h-1zM875 494q-41 -31 -90.5 -41.5t-99.5 1.5l-413 104v221l413 104q50 12 99.5 1.5t90.5 -41.5t63 -77t22 -97t-22 -96.5t-63 -78.5z" />
</svg>