<svg viewBox="0 0 256 256" xmlns="http://www.w3.org/2000/svg">
  <path transform="scale(1, -1) translate(0, -256)" fill="currentColor" d="M224 65l-123 101q-1 12 -10 21t-20.5 10.5t-21.5 -4.5q-4 13 0 24q7 15 32 21q3 0 4.5 2.5t1 5.5t-3 4.5t-5.5 0.5q-32 -8 -42 -29q-7 -17 1 -39q-8 -10 -7 -23.5t10 -22.5t21 -10l105 -119q1 -3 4 -3t5.5 2t2.5 4.5t-2 5.5l-98 112q7 2 12.5 7.5t7.5 13.5l116 -96 q1 -2 4 -2t5.5 2.5t2.5 5.5t-2 5zM66 140h-1h-1q-8 1 -14 7t-6 15t6.5 15t15.5 6t14.5 -6t6.5 -13v-3q0 -9 -6.5 -15t-14.5 -6z" />
</svg>