<svg viewBox="0 0 256 256" xmlns="http://www.w3.org/2000/svg">
  <path transform="scale(1, -1) translate(0, -256)" fill="currentColor" d="M63 92l-14 -14q-2 -2 -2 -4.5t2 -5t5 -2.5t5 2l14 14q2 3 2 5.5t-2 5t-5 2.5t-5 -3zM149 162q3 0 5 2l14 14q2 2 2 4.5t-2 5t-5 2.5t-5 -2l-14 -14q-2 -2 -2 -5t2.5 -5t4.5 -2zM186 135h-20q-3 0 -5 -2t-2 -5t2 -5t5 -2h20q3 0 5 2t2 5t-2 5t-5 2zM59 188q-2 2 -5 2 t-5 -2t-2 -5t2 -5l14 -14q2 -2 4.5 -2t4.5 2t2.5 4.5t-2.5 5.5zM154 92q-2 2 -4.5 2.5t-5 -2t-2.5 -5t2 -5.5l14 -14q2 -2 5 -2t5 2.5t2 5t-2 4.5zM109 251q-3 0 -5 -2t-2 -5v-232q0 -3 2 -5.5t5 -2.5q33 0 61.5 17t45 45t16.5 61.5t-17 62t-45 45t-61 16.5zM116 19v218 q28 -2 51 -17t37 -39.5t14 -52.5t-14 -52.5t-37 -39.5t-51 -17zM58 128q0 3 -2 5t-5 2h-20q-3 0 -5 -2t-2 -5t2 -5t5 -2h20q3 0 5 2t2 5z" />
</svg>