<svg viewBox="0 0 1024 1024" xmlns="http://www.w3.org/2000/svg">
  <path transform="scale(1, -1) translate(0, -960)" fill="currentColor" d="M928 555h-69v59q0 34 -23 57t-57 23h-667q-34 0 -57 -23t-23 -57v-331q0 -33 23 -56.5t57 -23.5h667q34 0 57 23.5t23 56.5v59h69q26 0 45 19t19 45v85q0 27 -19 45.5t-45 18.5zM827 282q0 -21 -13.5 -34.5t-34.5 -13.5h-667q-20 0 -34 13.5t-14 34.5v332q0 21 14 34.5 t34 13.5h667q21 0 34.5 -13.5t13.5 -34.5v-332zM960 405q0 -13 -9.5 -22.5t-22.5 -9.5h-69v149h69q13 0 22.5 -9.5t9.5 -22.5v-85zM206 544q-7 0 -11.5 -4.5t-4.5 -11.5v-158q0 -8 4.5 -12t11.5 -4q8 0 12 4t4 12v158q0 6 -4 11t-12 5zM366 544q-7 0 -11.5 -4.5t-4.5 -11.5 v-158q0 -8 4.5 -12t11.5 -4q8 0 12 4t4 12v158q0 6 -5 11t-11 5z" />
</svg>