<svg viewBox="0 0 256 256" xmlns="http://www.w3.org/2000/svg">
  <path transform="scale(1, -1) translate(0, -256)" fill="currentColor" d="M128 251q-33 0 -61.5 -16.5t-45 -45t-16.5 -61.5t16.5 -61.5t45 -45t61.5 -16.5t61.5 16.5t45 45t16.5 61.5t-16.5 61.5t-45 45t-61.5 16.5zM128 19q-29 0 -54 14.5t-40 39.5t-15 55t15 54.5t39.5 39.5t54.5 15t55 -15t39.5 -40t14.5 -54.5t-14.5 -54.5t-39.5 -39.5 t-55 -14.5zM128 196q-18 0 -34 -9t-25 -25t-9 -34t9 -34t25 -25t34 -9q3 0 5 2t2 5v122q0 3 -2 5t-5 2zM121 74q-20 3 -33.5 18t-13.5 35.5t13.5 36t33.5 18.5v-108z" />
</svg>