<svg viewBox="0 0 1024 1024" xmlns="http://www.w3.org/2000/svg">
  <path transform="scale(1, -1) translate(0, -960)" fill="currentColor" d="M261 296l-56 -56q-5 -5 -5 -11.5t5 -10.5q2 -3 5.5 -4t5.5 -1t5.5 1t5.5 4l56 56q5 4 5 10.5t-5 11.5t-11 5t-11 -5zM597 595q3 0 6 1.5t5 3.5l56 56q5 5 5 11.5t-5 10.5q-5 5 -11.5 5t-10.5 -5l-56 -56q-5 -4 -5 -10.5t5 -11.5q2 -2 5 -3.5t6 -1.5v0zM744 464h-78 q-8 0 -12 -4.5t-4 -11.5t4 -11.5t12 -4.5h78q7 0 11.5 4.5t4.5 11.5t-5 11.5t-11 4.5zM227 678q-5 5 -11 5t-11 -5q-5 -4 -5 -10.5t5 -11.5l56 -56q2 -2 5.5 -3.5t5.5 -1.5t5.5 1.5t5.5 3.5q5 5 5 11.5t-5 10.5l-56 56v0zM608 296q-5 5 -11.5 5t-10.5 -5q-5 -5 -5 -11.5 t5 -10.5l56 -56q2 -3 5 -4t6 -1q2 0 5.5 1t5.5 4q5 4 5 10.5t-5 11.5l-56 56v0zM435 928q-7 0 -11.5 -4.5t-4.5 -11.5v-928q0 -7 4.5 -11.5t11.5 -4.5q99 0 187 38q87 38 152 103t103 153q38 87 38 186t-38 186q-38 88 -103 153t-152 103q-88 38 -187 38v0zM451 0v896 q90 -3 169 -39q79 -37 137.5 -97.5t91.5 -140.5q34 -80 34 -171t-34 -171t-92.5 -140t-137.5 -97q-78 -36 -168 -40v0zM221 448q0 7 -4.5 11.5t-11.5 4.5h-80q-7 0 -11.5 -4.5t-4.5 -11.5t4.5 -11.5t11.5 -4.5h78q7 0 12.5 5t5.5 11z" />
</svg>