<svg viewBox="0 0 256 256" xmlns="http://www.w3.org/2000/svg">
  <path transform="scale(1, -1) translate(0, -256)" fill="currentColor" d="M193 219h-37v15q0 7 -5 12t-13 5h-21q-7 0 -12 -5t-5 -12v-14h-37q-16 0 -26.5 -11t-10.5 -27v-24q0 -15 10.5 -26t26.5 -11h37v-92q0 -10 7 -17t17 -7h8q10 0 17 7t7 17v92h37q15 0 26 11t11 26v24q0 16 -11 26.5t-26 10.5zM114 234q0 1 1 2t3 1h21q1 0 2 -1t1 -2v-14 h-28v14zM142 29q0 -4 -3 -7t-7 -3h-8q-4 0 -7 3t-3 7v92h28v-92zM216 158q0 -9 -7 -16t-16 -7h-130q-9 0 -16 7t-7 16v24q0 10 7 17t16 7h129q10 0 17 -7t7 -17v-24z" />
</svg>