<svg viewBox="0 0 256 256" xmlns="http://www.w3.org/2000/svg">
  <path transform="scale(1, -1) translate(0, -256)" fill="currentColor" d="M40 146h1l93 4q1 -5 5 -6l13 -4v0q0 -10 6.5 -17t16.5 -7h21q9 0 16 7t7 17v52q0 15 -9 30q-12 21 -36 29q-3 1 -6 -0.5t-3 -5.5v-35l-4 -5h-20q-3 0 -5 -2t-2 -5v-6l-93 3q-10 1 -17.5 -6t-7.5 -17v-2q0 -10 7 -17t17 -7zM148 190h16q4 0 6 2l8 10q1 1 1 4v27 q16 -9 22 -26q4 -9 4 -16v-52q0 -4 -2.5 -6.5t-6.5 -2.5h-21q-4 0 -6.5 2.5t-2.5 6.5v6q0 3 -1.5 4.5t-4.5 2.5l-12 4v34zM31 171q0 4 2.5 7t6.5 3l94 -3v-15l-94 -3q-4 0 -6.5 3t-2.5 7v1zM232 62h-39v16h16q3 0 5 2.5t2 5.5t-2 5t-5 2h-42q-3 0 -5 -2t-2 -5t2 -5.5t5 -2.5 h12v-16h-103v28h15q3 0 5 2t2 5t-2 5t-5 2h-42q-3 0 -5 -2t-2 -5t2 -5t5 -2h13v-28h-38q-8 0 -13.5 -5.5t-5.5 -13.5v-19q0 -8 5.5 -13.5t13.5 -5.5h208q8 0 13.5 5.5t5.5 13.5v19q0 8 -5.5 13.5t-13.5 5.5zM237 24q0 -2 -1.5 -3.5t-3.5 -1.5h-208q-2 0 -3.5 1.5t-1.5 3.5 v19q0 2 1.5 3.5t3.5 1.5h208q2 0 3.5 -1.5t1.5 -3.5v-19z" />
</svg>