<svg viewBox="0 0 256 256" xmlns="http://www.w3.org/2000/svg">
  <path transform="scale(1, -1) translate(0, -256)" fill="currentColor" d="M199 220h-43v16q0 6 -4.5 10.5t-10.5 4.5h-26q-6 0 -10.5 -4.5t-4.5 -10.5v-16h-43q-12 0 -20.5 -8.5t-8.5 -20.5v-29q0 -12 8.5 -20.5t20.5 -8.5h43v-113q0 -6 4.5 -10.5t10.5 -4.5h26q6 0 10.5 4.5t4.5 10.5v113h43q12 0 20.5 8.5t8.5 20.5v29q0 12 -8.5 20.5 t-20.5 8.5zM114 236q0 1 1 1h26l1 -1v-16h-28v16zM142 20q0 -1 -1 -1h-26l-1 1v113h28v-113zM214 162q0 -7 -4.5 -11t-10.5 -4h-142q-6 0 -10.5 4.5t-4.5 10.5v29q0 6 4.5 10.5t10.5 4.5h141q6 0 10.5 -4.5t4.5 -10.5v-29h1z" />
</svg>