<svg viewBox="0 0 1024 1024" xmlns="http://www.w3.org/2000/svg">
  <path transform="scale(1, -1) translate(0, -960)" fill="currentColor" d="M774 494q-13 16 -31.5 24t-38.5 8h-64q-2 76 -11 148t-25 128.5t-39 91.5q-23 34 -53 34t-53 -34q-23 -35 -39 -91.5t-25 -128.5t-11 -148h-66q-20 0 -38.5 -8t-31.5 -24q-13 -15 -18.5 -34.5t-2.5 -40.5l63 -374q6 -34 31.5 -55.5t59.5 -21.5h261q33 0 59 21.5t32 55.5 l62 374q4 21 -1.5 40.5t-19.5 34.5v0zM512 896q14 0 31 -26q16 -25 30 -73t23 -116q10 -69 12 -155h-192q2 86 12 155q9 68 23 116t30 73q17 26 31 26zM763 426l-62 -375q-4 -23 -20 -37t-38 -14h-262q-22 0 -39 14t-20 36l-63 374q-2 13 1.5 25.5t11.5 22.5t20.5 15.5 t25.5 5.5h80v0v0v0v0v0v0h226v0v0v0v0v0v0h80q13 0 25 -5.5t21 -15.5t12.5 -22t0.5 -24z" />
</svg>