<svg viewBox="0 0 1024 1024" xmlns="http://www.w3.org/2000/svg">
  <path transform="scale(1, -1) translate(0, -960)" fill="currentColor" d="M928 928h-832q-26 0 -45 -19t-19 -45v-832q0 -26 19 -45t45 -19h832q26 0 45 19t19 45v832q0 26 -19 45t-45 19zM960 357h-82q-13 0 -22.5 11.5t-9.5 26.5v208q0 17 9.5 28.5t22.5 11.5h80v-286h2zM96 896h832q13 0 22.5 -9.5t9.5 -22.5v-189h-80q-19 0 -34 -11t-24 -29 h-190v-1l-22 19q-53 45 -123 49.5t-125 -35.5q-24 -18 -41.5 -37t-24.5 -30q-1 -2 -3.5 -3.5t-4.5 -1.5h-40v10q0 29 -19 49.5t-45 20.5h-120v189q0 13 9.5 22.5t22.5 9.5zM770 397q-10 0 -18 -3.5t-14 -9.5l-1 -1t-1 -2l-150 -223l-60 16l-32 50q-1 2 -3.5 4t-5.5 2l-48 13 l-21 47q-1 3 -4 5.5t-6 2.5l-49 12l-21 29l139 144q12 12 28.5 13t30.5 -10l5 -4q24 -18 54.5 -16t51.5 25l24 26q8 8 12.5 19.5t3.5 23.5q0 12 -5.5 23t-13.5 20h150v0v0v-208h-46v2zM325 373q-15 12 -31.5 18t-34.5 6h-9v0v0v168h38q11 0 20 4.5t15 12.5q7 10 22 27t37 34 q46 34 105 30.5t103 -43.5l47 -41q7 -7 11.5 -14.5t4.5 -14.5q0 -6 -1.5 -11t-6.5 -10l-24 -25q-12 -14 -30 -15.5t-33 10.5l-4 3q-23 17 -52 15.5t-49 -21.5l-128 -133v0zM64 643h122q13 0 22.5 -11.5t9.5 -26.5v-208q0 -17 -9.5 -28.5t-22.5 -11.5h-122v286v0zM928 0h-832 q-13 0 -22.5 9.5t-9.5 22.5v293h120q19 0 34 11t24 29h17q12 0 23.5 -4t21.5 -12q-2 -4 -3 -9.5t3 -9.5l32 -44q1 -2 3.5 -3.5t4.5 -2.5l48 -13l21 -45q1 -3 4 -5.5t5 -2.5l48 -12l31 -50q1 -2 3.5 -4t5.5 -2l77 -21h2.5h2.5q4 0 7 2l6 4l155 231q2 1 4.5 2t5.5 1h52 q8 -18 23.5 -29t34.5 -11h80v-293q0 -13 -9.5 -22.5t-22.5 -9.5z" />
</svg>