<svg viewBox="0 0 1024 1024" xmlns="http://www.w3.org/2000/svg">
  <path transform="scale(1, -1) translate(0, -960)" fill="currentColor" d="M875 493q-13 15 -31.5 24t-38.5 9h-165q-2 76 -11 148t-25 128.5t-39 91.5q-23 34 -53 34t-53 -34q-23 -35 -39 -91.5t-25 -128.5t-11 -148h-163q-21 0 -39 -9t-32 -24q-13 -16 -17.5 -36t-1.5 -39l72 -375q6 -32 31.5 -53.5t58.5 -21.5h440q32 0 57.5 21.5t31.5 53.5 l72 375q4 20 -1 39.5t-18 35.5v0zM512 896q14 0 31 -26q16 -25 30 -73t23 -116q10 -69 12 -155h-192q2 86 12 155q9 68 23 116t30 73q17 26 31 26zM862 424l-72 -376q-3 -22 -20 -35t-39 -13h-438q-22 0 -38.5 14t-20.5 34l-72 374q-3 14 0.5 26.5t11.5 23.5q9 11 21.5 16.5 t25.5 5.5h179v0v0v0v0v0v0h224v0v0v0v0v0v0h179q13 0 25.5 -5.5t21.5 -16.5q8 -10 11.5 -22.5t0.5 -25.5z" />
</svg>