<svg viewBox="0 0 1024 1024" xmlns="http://www.w3.org/2000/svg">
  <path transform="scale(1, -1) translate(0, -960)" fill="currentColor" d="M976 378h-37q-17 0 -28.5 13.5t-11.5 34.5v243q0 20 11.5 34.5t28.5 14.5h37q7 0 11.5 4.5t4.5 11.5q0 8 -4.5 12t-11.5 4h-37q-21 0 -39 -13t-26 -33h-226l-35 30q-40 35 -90.5 47.5t-98.5 0.5q-64 -15 -105 -55.5t-57 -62.5q-1 -4 -4 -6t-7 -2h-48v13q0 33 -21 56.5 t-51 23.5h-83q-7 0 -11.5 -4.5t-4.5 -11.5t4.5 -11.5t11.5 -4.5h83q17 0 28.5 -14t11.5 -34v-242q0 -20 -11.5 -34.5t-28.5 -14.5h-83q-7 0 -11.5 -4.5t-4.5 -11.5q0 -8 4.5 -12t11.5 -4h83q22 0 39.5 13t26.5 33h21q14 0 28.5 -5t25.5 -14v0q-4 -5 -4.5 -10.5t2.5 -10.5 l37 -50q1 -2 3.5 -3.5t4.5 -2.5l56 -14l26 -53q1 -4 4 -6t5 -2l58 -16l37 -58q1 -2 3.5 -4t5.5 -2l90 -26h2.5h2.5q3 0 6.5 2t6.5 5l168 246q4 7 11 10.5t16 3.5h67q10 -16 25.5 -26t33.5 -10h37q7 0 11.5 4t4.5 12q0 7 -4.5 11.5t-11.5 4.5v0zM293 398q-16 14 -35.5 21 t-39.5 7h-15v1.5v1.5v195h48q12 0 22.5 5.5t16.5 15.5q13 19 50 55.5t92 49.5q41 11 83 0t77 -41l43 -37v-2h2l21 -17q9 -9 14 -18t6 -19q0 -7 -2 -13.5t-7 -12.5l-27 -28q-16 -16 -37.5 -18t-39.5 11l-7 5q-26 19 -57.5 17t-55.5 -25l-151 -157l-1 3v0zM811 414 q-15 0 -29.5 -7.5t-23.5 -20.5l-160 -239l-72 21l-36 58l-4 4t-6 2l-56 16l-26 53q-1 3 -4 5.5t-5 2.5l-58 16l-27 35l163 170q15 14 35 15t37 -11l7 -4q27 -21 61 -17.5t57 28.5l27 29q10 9 14.5 22t3.5 27q-1 15 -7.5 28t-18.5 25h183v-1.5v-1.5v-242v-5.5t1 -5.5h-56v-2z " />
</svg>