<svg viewBox="0 0 1024 1024" xmlns="http://www.w3.org/2000/svg">
  <path transform="scale(1, -1) translate(0, -960)" fill="currentColor" d="M829 230v482q0 29 -23 49.5t-56 20.5q-13 0 -24.5 -3.5t-21.5 -10.5v51q0 29 -23 50t-55 21q-17 0 -31.5 -6t-24.5 -15q-10 17 -28 27t-41 10q-31 0 -53.5 -19t-25.5 -47q-9 7 -21 10.5t-25 3.5q-32 0 -55 -20.5t-23 -49.5v-394l-56 68q-23 28 -60.5 36.5t-69.5 -8.5 q-16 -8 -26 -22t-14 -30q-4 -17 0 -34.5t16 -33.5q22 -28 44 -58t44 -58l53 -71q6 -7 11 -15t11 -15q17 -23 35 -47t40 -43q44 -37 101 -52t114 -15q27 0 54 3t51 8q69 15 107 45q37 30 54 64t19 67q3 32 3 51v0zM640 34q-34 -8 -73 -10q-40 -3 -79 2t-75 18q-37 14 -66 39 q-20 17 -36.5 39t-33.5 44q-6 9 -11.5 16.5t-11.5 15.5l-52 71q-23 29 -45 57.5t-45 57.5q-7 10 -9.5 20.5t-0.5 21.5q3 9 9 17.5t15 14.5q22 12 48 5.5t42 -28.5l85 -101q3 -3 8 -4.5t9 0.5q5 1 8.5 5t3.5 9v438q0 16 13.5 27.5t32.5 11.5t32 -10.5t14 -26.5v-6v-0.5v-1.5 v-272q0 -7 4.5 -11.5t11.5 -4.5q8 0 12 4.5t4 11.5v278v1v1v51q0 16 14 27.5t33 11.5t32.5 -11.5t13.5 -27.5v-341q0 -7 4.5 -11.5t11.5 -4.5t11.5 4.5t4.5 11.5v325q0 16 13.5 27.5t33.5 11.5q19 0 32.5 -11.5t13.5 -27.5v-104v-0.5v-0.5v-44v0v-1v-207q0 -7 4.5 -11.5 t11.5 -4.5t11.5 4.5t4.5 11.5v252q1 15 14 25.5t32 10.5q20 0 33.5 -11t13.5 -27v-483q0 -39 -19 -104.5t-138 -90.5v0z" />
</svg>