<svg viewBox="0 0 1024 1024" xmlns="http://www.w3.org/2000/svg">
  <path transform="scale(1, -1) translate(0, -960)" fill="currentColor" d="M640 525q-2 76 -11 149q-9 72 -25 128.5t-39 91.5q-23 34 -53 34t-53 -34q-23 -35 -39 -91.5t-25 -128.5q-9 -73 -11 -149q-72 -9 -121.5 -63.5t-49.5 -128.5v-274q0 -38 27 -64.5t64 -26.5h413q38 0 64.5 27t26.5 64v274q1 74 -47.5 128.5t-120.5 63.5zM512 896 q14 0 31 -26q16 -25 30 -73t23 -116q10 -69 12 -155h-192q2 86 12 155q9 68 23 116t30 73q17 26 31 26zM406 494h212q66 0 113.5 -47t47.5 -114v-13q-41 -13 -112.5 -21.5t-152.5 -8.5q-83 0 -154.5 8t-111.5 22v13q-1 67 45.5 114t112.5 47v0zM718 0h-412q-26 0 -43 17.5 t-17 41.5v229q45 -13 115.5 -21t150.5 -8q82 0 151.5 8t114.5 21v-227q0 -25 -17 -43t-43 -18z" />
</svg>