<svg viewBox="0 0 1024 1024" xmlns="http://www.w3.org/2000/svg">
  <path transform="scale(1, -1) translate(0, -960)" fill="currentColor" d="M934 67l-99 347q-2 6 -7.5 9.5t-11.5 2.5l-58 -16l-115 398q-1 52 -38 88.5t-90 36.5t-90 -36.5t-38 -88.5l-113 -400l-64 19q-6 1 -12 -2t-8 -9l-100 -349q-4 -12 -3 -24.5t7 -23.5t16.5 -19t22.5 -11l73 -21v0v0q5 -1 9 -2t9 -1q20 0 37.5 12.5t23.5 33.5l99 347 q1 4 0.5 7t-2.5 6q-1 3 -3.5 5t-5.5 3l-69 19l99 346q16 -30 46 -48.5t66 -18.5t66.5 18.5t45.5 48.5l99 -344l-76 -22q-4 -2 -6.5 -3.5t-3.5 -4.5t-2 -6.5t0 -6.5l100 -347q6 -22 23 -34.5t37 -12.5q5 0 9 0.5t9 2.5l74 21q25 7 38.5 31t5.5 49v0zM256 19 q-4 -13 -15.5 -19.5t-24.5 -2.5l-74 21q-6 1 -10.5 5.5t-8.5 10.5q-3 6 -3.5 12t0.5 12l94 332l64 -19v0v0v0v0l71 -19l-93 -333v0zM515 709q-39 0 -67.5 28t-28.5 68q0 39 28.5 67.5t67.5 28.5q40 0 68 -28.5t28 -67.5q0 -40 -28 -68t-68 -28zM882 19l-74 -21 q-6 -2 -12.5 -1t-11.5 3q-6 4 -10 8.5t-6 10.5l-94 333l134 38l94 -332q5 -12 -1.5 -23.5t-18.5 -15.5v0z" />
</svg>