<svg viewBox="0 0 256 256" xmlns="http://www.w3.org/2000/svg">
  <path transform="scale(1, -1) translate(0, -256)" fill="currentColor" d="M210 74v120q0 8 -6.5 14.5t-15.5 6.5q-6 0 -9 -2v8q0 8 -6.5 14.5t-16.5 6.5q-7 0 -13 -4q-3 3 -7.5 5.5t-10.5 2.5q-7 0 -13 -4.5t-8 -10.5q-5 2 -10 2q-9 0 -16 -6t-7 -15v-90l-8 10q-6 8 -17 10.5t-20 -2t-11.5 -15t4.5 -19.5l41 -54q11 -16 20 -23q21 -18 55 -18 q13 0 27 3q31 6 42 28q6 12 6 32zM160 27q-18 -4 -37 -2q-21 3 -34 14q-6 5 -17 19l-42 56q-2 3 -1.5 7t4.5 6.5t9.5 1.5t8.5 -5l22 -26q3 -4 7.5 -2t4.5 6v110q0 2 2.5 4t6 2t6 -1.5t2.5 -4.5v-70q0 -3 2.5 -5t5.5 -2t5 2t2 5v82q0 3 2.5 5t6 2t6 -2t2.5 -5v-85 q0 -3 2.5 -5t5.5 -2t5 2t2 5v82q0 3 2.5 5t6 2t6 -2t2.5 -5v-89q0 -3 2.5 -5t5.5 -2t5 2t2 5v62q0 3 2.5 5t6 2t6 -2t2.5 -5v-121v-3q-2 -15 -7 -24q-9 -14 -31 -19z" />
</svg>