<svg viewBox="0 0 1024 1024" xmlns="http://www.w3.org/2000/svg">
  <path transform="scale(1, -1) translate(0, -960)" fill="currentColor" d="M512 928q-99 0 -186 -38q-88 -38 -153 -103t-103 -153q-38 -87 -38 -186t38 -186q38 -88 103 -153t153 -103q87 -38 186 -38t186 38q88 38 153 103t103 153q38 87 38 186t-38 186q-38 88 -103 153t-153 103q-87 38 -186 38zM950 357h-0.5h-0.5h-69q-13 0 -22.5 11.5 t-9.5 26.5v208q0 17 9.5 28.5t22.5 11.5h32h1.5h1.5q22 -43 33.5 -92.5t11.5 -102.5q0 -24 -2.5 -47t-7.5 -44zM512 896q61 0 118 -16t106.5 -45t90.5 -69q41 -41 71 -91h-18q-19 0 -34 -11t-24 -29h-190v-1l-22 19q-53 45 -123 49.5t-125 -35.5q-24 -18 -41.5 -37 t-24.5 -30q-1 -2 -3.5 -3.5t-4.5 -1.5h-40v10q0 29 -19 49.5t-45 20.5h-58q30 50 71 91q41 40 90.5 69t106.5 45t118 16zM770 397q-10 0 -18 -3.5t-14 -9.5l-1 -1t-1 -2l-150 -223l-60 16l-32 50q-1 2 -3.5 4t-5.5 2l-48 13l-21 47q-1 3 -4 5.5t-6 2.5l-49 12l-21 29 l139 144q12 12 28.5 13t30.5 -10l5 -4q24 -18 54.5 -16t51.5 25l24 26q8 8 12.5 19.5t3.5 23.5q0 12 -5.5 23t-13.5 20h150v0v0v-208h-46v2zM325 373q-15 12 -31.5 18t-34.5 6h-9v0v0v168h38q11 0 20 4.5t15 12.5q7 10 22 27t37 34q46 34 105 30.5t103 -43.5l47 -41 q7 -7 11.5 -14.5t4.5 -14.5q0 -6 -1.5 -11t-6.5 -10l-24 -25q-12 -14 -30 -15.5t-33 10.5l-4 3q-23 17 -52 15.5t-49 -21.5l-128 -133v0zM109 645h1.5h1.5h72q13 0 22.5 -11.5t9.5 -27.5v-208q0 -16 -9.5 -28t-22.5 -12h-109h-0.5h-0.5q-5 21 -7.5 43.5t-2.5 46.5 q0 53 11.5 102.5t33.5 94.5v0zM512 0q-77 0 -146 24q-70 25 -126.5 68.5t-97.5 102.5q-41 60 -60 130h102q19 0 34 11t24 29h17q12 0 23.5 -4t21.5 -12q-2 -4 -3 -9.5t3 -9.5l32 -44q1 -2 3.5 -3.5t4.5 -2.5l48 -13l21 -45q1 -3 4 -5.5t5 -2.5l48 -12l31 -50q1 -2 3.5 -4 t5.5 -2l77 -21h2.5h2.5q4 0 7 2l6 4l155 231q2 1 4.5 2t5.5 1h52q8 -18 23.5 -29t34.5 -11h64q-20 -70 -62 -130q-41 -59 -97.5 -102.5t-126.5 -68.5q-69 -24 -146 -24z" />
</svg>