<svg viewBox="0 0 256 256" xmlns="http://www.w3.org/2000/svg">
  <path transform="scale(1, -1) translate(0, -256)" fill="currentColor" d="M246 76q-4 12 -15 18t-23 3l-52 -16q3 9 0 15.5t-9 10t-13 3.5h-42q-6 0 -12.5 5.5t-15.5 5.5h-34q-10 0 -17.5 -7.5t-7.5 -18.5v-54q0 -11 7.5 -19t17.5 -8h41q8 0 15 5l1 -1q18 -10 38 -10q12 0 23 4l77 23q15 6 19.5 17.5t1.5 23.5zM30 28q-4 0 -7.5 3.5t-3.5 9.5v54 q0 5 3 8.5t8 3.5h34q4 0 6 -3l4 -3v-73h-3h-41zM220 48l-75 -23q-9 -3 -19 -3q-17 0 -32 8l-6 3v62h46q3 0 5.5 -1t3.5 -3q2 -6 -10 -17q-4 -4 -1.5 -7.5t4.5 -4t11 1.5l65 20q7 1 12.5 -2.5t7.5 -9.5q5 -17 -12 -24zM244 165h-12v76q0 3 -2.5 5t-5.5 2t-5 -2t-2 -5v-76h-27 v63q0 3 -2.5 5.5t-5 2.5t-4.5 -2.5t-2 -5.5v-63h-28v43q0 3 -2 5t-5 2t-5 -2t-2 -5v-43h-8q-3 0 -5.5 -2t-2.5 -5t2.5 -5.5t5.5 -2.5h118q3 0 5 2.5t2 5.5t-2 5t-5 2z" />
</svg>