<svg viewBox="0 0 256 256" xmlns="http://www.w3.org/2000/svg">
  <path transform="scale(1, -1) translate(0, -256)" fill="currentColor" d="M163 150q-1 39 -8 65q-10 36 -27 36t-27 -36q-7 -27 -8 -65q-18 -3 -30.5 -17.5t-12.5 -33.5v-68q0 -11 8 -18.5t18 -7.5h104q10 0 18 7.5t8 18.5v68q0 19 -12.5 33.5t-30.5 17.5zM128 237q3 0 8 -10.5t8 -28.5q4 -21 5 -48h-42q1 27 5 48q3 18 8 28.5t8 10.5zM102 137 h52q16 0 27 -11t11 -26v-1q-11 -3 -28 -5t-36 -2q-43 0 -64 7v1q0 15 11 26t27 11zM180 19h-104q-4 0 -8 3.5t-4 8.5v53q23 -6 64 -6q38 0 64 6v-53q0 -5 -3.5 -8.5t-8.5 -3.5z" />
</svg>