<svg viewBox="0 0 256 256" xmlns="http://www.w3.org/2000/svg">
  <path transform="scale(1, -1) translate(0, -256)" fill="currentColor" d="M128 251q-33 0 -61.5 -16.5t-45 -45t-16.5 -61.5t16.5 -61.5t45 -45t61.5 -16.5t61.5 16.5t45 45t16.5 61.5t-16.5 61.5t-45 45t-61.5 16.5zM235 108h-15q-2 0 -3.5 2t-1.5 5v52q0 3 1.5 5t3.5 2h7q11 -23 11 -46q-1 -10 -3 -20zM128 237q28 0 52 -13.5t39 -35.5 q-5 -1 -9 -3.5t-6 -6.5h-45l-5 3q-14 13 -32.5 14t-32.5 -10q-11 -8 -17 -17h-7q0 8 -5.5 14t-13.5 6h-9q15 22 39 35.5t52 13.5zM192 118q-5 0 -10 -4l-37 -55l-12 3l-7 12q-1 1 -4 3l-10 3l-5 10q-1 3 -5 3l-11 3l-3 4l34 34q2 3 5 3t5 -2l2 -1q7 -5 15.5 -4.5t14.5 7.5 l6 6q5 6 5 13q0 4 -2 8h29v-46h-10zM81 113q-7 5 -16 5v36h7q7 0 11 6q7 8 14 14q11 8 24.5 7t24.5 -10l11 -10q3 -3 3 -5t-1 -3l-6 -7q-2 -2 -5.5 -2.5t-5.5 1.5l-2 1q-6 6 -14.5 5t-14.5 -7zM29 174h17q2 0 3.5 -2t1.5 -5v-52q0 -3 -1.5 -5t-3.5 -2h-25q-2 11 -2 20 q0 25 10 46zM128 19q-36 0 -64.5 21t-39.5 54h22q5 0 9.5 2.5t6.5 7.5h3q4 0 7 -2q-1 -3 1 -5l8 -11q1 -2 4 -2l10 -3l5 -10q1 -3 4 -4l12 -3l7 -11q1 -2 4 -3l21 -6q3 0 6 3l38 57h12q2 -5 6.5 -7.5t9.5 -2.5h12q-11 -33 -39.5 -54t-64.5 -21z" />
</svg>