<svg viewBox="0 0 256 256" xmlns="http://www.w3.org/2000/svg">
  <path transform="scale(1, -1) translate(0, -256)" fill="currentColor" d="M232 251h-208q-8 0 -13.5 -5.5t-5.5 -13.5v-208q0 -8 5.5 -13.5t13.5 -5.5h208q8 0 14 5.5t6 13.5v208q-1 8 -6.5 13.5t-13.5 5.5zM237 108h-17q-2 0 -3.5 2t-1.5 5v52q0 3 1.5 5t3.5 2h17v-66zM24 237h208q2 0 3.5 -1.5t1.5 -3.5v-44h-17q-5 0 -9.5 -3t-6.5 -7h-45l-5 3 q-14 13 -32.5 14t-32.5 -10q-11 -8 -17 -17h-7q0 8 -5.5 14t-13.5 6h-27v44q0 2 1.5 3.5t3.5 1.5zM192 118q-5 0 -10 -4l-37 -55l-12 3l-7 12q-1 1 -4 3l-10 3l-5 10q-1 3 -5 3l-11 3l-3 4l34 34q2 3 5 3t5 -2l2 -1q7 -5 15.5 -4.5t14.5 7.5l6 6q5 6 5 13q0 4 -2 8h29v-46 h-10zM81 113q-7 5 -16 5v36h7q7 0 11 6q7 8 14 14q11 8 24.5 7t24.5 -10l11 -10q3 -3 3 -5t-1 -3l-6 -7q-2 -2 -5.5 -2.5t-5.5 1.5l-2 1q-6 6 -14.5 5t-14.5 -7zM19 174h27q2 0 3.5 -2t1.5 -5v-52q0 -3 -1.5 -5t-3.5 -2h-27v66zM232 19h-208q-2 0 -3.5 1.5t-1.5 3.5v70h27 q5 0 9 2.5t7 7.5h2q4 0 8 -2q-1 -3 1 -5l8 -11q1 -2 3 -2l11 -3l5 -10q1 -3 4 -4l11 -3l7 -11q1 -2 4 -3l22 -6q3 0 6 3l38 57h12q2 -5 6.5 -7.5t9.5 -2.5h17v-70q0 -2 -1.5 -3.5t-3.5 -1.5z" />
</svg>