<svg viewBox="0 0 1024 1024" xmlns="http://www.w3.org/2000/svg">
  <path transform="scale(1, -1) translate(0, -960)" fill="currentColor" d="M893 88l-135 427q-1 5 -5.5 8t-10.5 3h-102q-2 76 -11 148t-25 128.5t-39 91.5q-23 34 -53 34t-53 -34q-23 -35 -39 -91.5t-25 -128.5t-11 -148h-104q-5 0 -9.5 -3t-6.5 -8l-133 -427q-7 -22 -3 -43t16 -39q13 -18 32.5 -27t41.5 -9h587q21 0 40.5 10t32.5 26 q15 17 18.5 38.5t-3.5 43.5v0zM512 896q14 0 31 -26q16 -25 30 -73t23 -116q10 -69 12 -155h-192q2 86 12 155q9 68 23 116t30 73q17 26 31 26zM854 24q-8 -12 -20.5 -18t-27.5 -6h-588q-15 0 -27.5 6.5t-20.5 17.5q-9 12 -11.5 26t1.5 27l131 416h109v0v0v0v0v0v0h224v0v0 v0v0v0v0h107l131 -416q5 -13 3 -27t-11 -26v0z" />
</svg>