<svg viewBox="0 0 256 256" xmlns="http://www.w3.org/2000/svg">
  <path transform="scale(1, -1) translate(0, -256)" fill="currentColor" d="M221 141q-4 5 -9 7.5t-11 2.5h-38q-1 38 -9 65q-9 35 -26 35t-26 -35q-8 -27 -9 -65h-38q-6 0 -11 -2.5t-9 -7.5q-7 -9 -5 -21l18 -94q1 -9 8.5 -15t16.5 -6h110q10 0 17 6t9 15l18 94q2 12 -6 21zM128 237q3 0 8 -10.5t8 -28.5q4 -21 5 -47h-42q1 26 5 47q3 18 8 28.5 t8 10.5zM213 122l-18 -93q-1 -4 -4.5 -7t-7.5 -3h-110q-4 0 -7.5 3t-3.5 7l-18 93q-2 5 1.5 10t9.5 5h146q5 0 8.5 -4.5t3.5 -10.5z" />
</svg>