<svg viewBox="0 0 1024 1024" xmlns="http://www.w3.org/2000/svg">
  <path transform="scale(1, -1) translate(0, -960)" fill="currentColor" d="M971 234q-14 44 -53 66t-81 10q-57 -16 -125.5 -36.5t-113.5 -33.5q17 25 18.5 43.5t-3.5 31.5q-10 23 -32.5 34t-44.5 11h-170q-14 0 -28 6t-28 20q-10 9 -24 14.5t-30 5.5h-136q-36 0 -62 -27t-26 -65v-216q0 -40 26 -67.5t64 -27.5h163q15 0 29.5 5.5t27.5 15.5l13 -6 q34 -18 71.5 -28.5t75.5 -10.5q24 0 47 3.5t43 11.5l304 92q58 23 72 66t3 82v0v0zM122 37q-24 0 -41 18.5t-17 43.5v216q0 25 16.5 43t39.5 18h136q8 0 16.5 -3.5t15.5 -9.5q5 -5 10.5 -9t11.5 -7v-304l-12 -4t-12 -2h-164v0zM886 118l-304 -92q-19 -6 -39 -9.5t-41 -3.5 q-34 0 -67.5 8.5t-63.5 24.5l-22 12l-5 1v274l12 -2t12 -1h168q14 0 28.5 -6t19.5 -18q6 -15 -5 -35.5t-37 -44.5l-9 -8l6 -12q5 -9 25.5 -5t137.5 39q54 16 99 29.5l45 13.5q30 9 57.5 -7t37.5 -49q5 -19 0.5 -54t-55.5 -55v0zM976 582h-62v317q0 7 -4.5 11.5t-11.5 4.5 q-8 0 -12 -4.5t-4 -11.5v-317h-135v268q0 7 -4.5 11.5t-11.5 4.5t-11.5 -4.5t-4.5 -11.5v-266h-134v182q0 8 -4.5 12t-11.5 4t-11.5 -4t-4.5 -12v-184h-47q-7 0 -11.5 -4t-4.5 -12q0 -7 4.5 -11.5t11.5 -4.5h474q7 0 11.5 4.5t4.5 11.5q0 8 -4.5 12t-11.5 4v0z" />
</svg>