<svg viewBox="0 0 1024 1024" xmlns="http://www.w3.org/2000/svg">
  <path transform="scale(1, -1) translate(0, -960)" fill="currentColor" d="M968 208l-450 210v124q41 6 68.5 37.5t27.5 73.5q0 45 -32.5 78.5t-79.5 33.5q-38 0 -68.5 -24t-39.5 -63q-2 -6 -3 -12.5t-1 -12.5q0 -7 4.5 -11.5t11.5 -4.5q8 0 12 4.5t4 11.5q0 5 0.5 9.5t1.5 9.5q6 28 27.5 44.5t49.5 16.5q32 0 56 -23.5t24 -56.5q0 -34 -23.5 -57 t-56.5 -23q-7 0 -11.5 -4.5t-4.5 -11.5v-138l-431 -211q-13 -6 -18.5 -19t-1.5 -26q3 -14 14 -22t26 -8h880q14 0 25 8.5t15 23.5q1 13 -6 25t-20 18v0zM960 170q0 -2 -1.5 -4.5t-6.5 -2.5h-880q-5 0 -6.5 2.5t-1.5 4.5q0 1 0.5 4t4.5 5l432 211l454 -211q4 -2 4.5 -5 t0.5 -4z" />
</svg>