<svg viewBox="0 0 1024 1024" xmlns="http://www.w3.org/2000/svg">
  <path transform="scale(1, -1) translate(0, -960)" fill="currentColor" d="M726 566q-7 0 -11.5 -4t-4.5 -12v-64q0 -21 -15.5 -37.5t-36.5 -16.5h-122v214h51q36 0 60.5 25.5t24.5 61.5v64q0 7 -4.5 11.5t-11.5 4.5t-11.5 -4.5t-4.5 -11.5v-64q0 -22 -15.5 -38.5t-37.5 -16.5h-51v234q0 7 -4.5 11.5t-11.5 4.5t-11.5 -4.5t-4.5 -11.5v-373h-43 q-22 0 -37.5 16t-15.5 39v64q0 7 -4.5 11.5t-11.5 4.5t-11.5 -4.5t-4.5 -11.5v-64q0 -36 25 -61.5t60 -25.5h43v-213h-136q-22 0 -38 16t-16 39v64q0 7 -4.5 11.5t-11.5 4.5q-8 0 -12 -4.5t-4 -11.5v-64q0 -36 25 -61.5t61 -25.5h136v-262h-107q-7 0 -11.5 -4.5t-4.5 -11.5 t4.5 -11.5t11.5 -4.5h248q7 0 11.5 4.5t4.5 11.5t-4.5 11.5t-11.5 4.5h-107v402h121q36 0 60.5 25t24.5 61v64q-1 6 -5.5 10t-12.5 4v0z" />
</svg>