<svg viewBox="0 0 1024 1024" xmlns="http://www.w3.org/2000/svg">
  <path transform="scale(1, -1) translate(0, -960)" fill="currentColor" d="M651 496l-129 -98v200l148 112q5 4 6 11t-2 12q-4 5 -11 6t-12 -3l-129 -98v274q0 7 -4.5 11.5t-11.5 4.5q-8 0 -12 -4.5t-4 -11.5v-146l-119 92q-5 3 -12 2t-10 -6q-4 -4 -3 -11t6 -11l138 -106v-201l-119 91q-5 4 -12 3t-10 -6q-4 -5 -3.5 -12t6.5 -11l138 -105v-485 h-111q-7 0 -11.5 -4.5t-4.5 -11.5t4.5 -11.5t11.5 -4.5h263q7 0 11.5 4.5t4.5 11.5t-4.5 11.5t-11.5 4.5h-120v358l148 112q5 4 6 11t-2 12q-4 6 -10.5 6.5t-12.5 -3.5v0z" />
</svg>