<svg viewBox="0 0 256 256" xmlns="http://www.w3.org/2000/svg">
  <path transform="scale(1, -1) translate(0, -256)" fill="currentColor" d="M182 161q-3 0 -5.5 -2t-2.5 -5v-16q0 -5 -3 -8t-7 -3h-27v48h10q10 0 17 7t7 17v16q0 3 -2 5t-5 2t-5 -2t-2 -5v-16q0 -4 -3 -7t-8 -3h-10v55q0 3 -2 5t-5 2t-5 -2t-2 -5v-90h-8q-4 0 -7 3t-3 7v16q0 3 -2.5 5.5t-5 2.5t-4.5 -2.5t-2 -5.5v-16q0 -10 7.5 -17t17.5 -7h8 v-48h-31q-5 0 -8 3.5t-3 7.5v16q0 3 -2 5t-5 2t-5 -2t-2 -5v-16q0 -10 7 -17.5t17 -7.5h31v-59h-24q-3 0 -5 -2t-2 -5t2 -5.5t5 -2.5h62q3 0 5.5 2.5t2.5 5.5t-2.5 5t-5.5 2h-24v94h28q10 0 17 7t7 18v16q1 3 -1 5t-5 2z" />
</svg>