<svg viewBox="0 0 256 256" xmlns="http://www.w3.org/2000/svg">
  <path transform="scale(1, -1) translate(0, -256)" fill="currentColor" d="M82 156l12 -12q2 -2 4.5 -2t5 2.5t2 5.5t-2.5 5l-11 10l12 11q2 2 2 5t-2 5t-5 2t-5 -2l-12 -11l-12 11q-2 2 -5 2t-5 -2t-2 -5t2 -5l12 -11l-12 -11q-2 -2 -2 -4.5t1.5 -5t5 -2.5t5.5 2zM196 186q-2 2 -5 2t-5 -2l-12 -11l-12 11q-2 2 -5 2t-5 -2t-2 -5t2 -5l12 -11 l-12 -11q-2 -2 -2 -5t2 -5t5 -2t5 2l12 11l12 -11q2 -2 5 -2t5 2t2 5t-2 5l-12 11l12 11q2 2 2 4.5t-2 5.5zM128 251q-33 0 -61.5 -16.5t-45 -45t-16.5 -61.5t16.5 -61.5t45 -45t61.5 -16.5t61.5 16.5t45 45t16.5 61.5t-16.5 61.5t-45 45t-61.5 16.5zM128 19q-29 0 -54 14.5 t-40 39.5t-15 55t15 54.5t39.5 39.5t54.5 15t55 -15t39.5 -40t14.5 -54.5t-14.5 -54.5t-39.5 -39.5t-55 -14.5zM176 80q-20 -18 -47.5 -18t-48.5 18q-2 2 -4.5 2t-5 -2t-2 -5t2.5 -5q12 -11 26.5 -16.5t30.5 -5.5t30.5 5.5t26.5 16.5q2 2 2.5 5t-1.5 5t-5 2t-5 -2z" />
</svg>