<svg viewBox="0 0 1024 1024" xmlns="http://www.w3.org/2000/svg">
  <path transform="scale(1, -1) translate(0, -960)" fill="currentColor" d="M701 674q-51 0 -87 -41t-36 -99q0 -7 4 -11.5t12 -4.5q7 0 11.5 4.5t4.5 11.5q0 45 26 76.5t65 31.5q37 0 64 -31.5t27 -76.5q0 -7 4.5 -11.5t11.5 -4.5t11.5 4.5t4.5 11.5q0 58 -36 99t-87 41zM414 533q0 -7 4.5 -11.5t11.5 -4.5q8 0 12 4.5t4 11.5q0 57 -35.5 98 t-87.5 41q-51 0 -87 -41t-36 -98q0 -7 4.5 -11.5t11.5 -4.5t11.5 4.5t4.5 11.5q0 44 26.5 75.5t64.5 31.5q39 0 65 -31t26 -76zM992 472q-5 95 -44 179q-40 83 -105 144.5t-150 97.5q-85 35 -181 35t-181 -35q-85 -36 -150 -97.5t-105 -144.5q-39 -84 -44 -179v-12v-12 q0 -19 1 -37.5t4 -36.5q14 -85 56 -160q42 -74 105 -128.5t144 -86.5q80 -31 170 -31t170 31q81 32 144 86.5t105 128.5q42 75 56 160q3 18 4 36.5t1 37.5v12v12zM512 0q-92 0 -174 35q-81 36 -142 97t-97 142q-35 82 -35 174t35 174q36 81 96.5 142t142.5 97q82 35 174 35 t174 -35q81 -36 142 -96.5t97 -142.5q35 -82 35 -174t-35 -174q-36 -81 -96.5 -142t-142.5 -97q-82 -35 -174 -35zM710 248q-40 -37 -91.5 -57t-106.5 -20t-106.5 20t-91.5 57q-5 5 -11.5 4.5t-11.5 -6.5q-5 -4 -4.5 -10.5t6.5 -11.5q44 -42 101 -64t118 -22t118 22t101 64 q5 5 5 11.5t-3 10.5q-4 6 -11 6.5t-12 -4.5v0z" />
</svg>