<svg viewBox="0 0 1024 1024" xmlns="http://www.w3.org/2000/svg">
  <path transform="scale(1, -1) translate(0, -960)" fill="currentColor" d="M512 928q-99 0 -186 -38q-88 -38 -153 -103t-103 -153q-38 -87 -38 -186t38 -186q38 -88 103 -153t153 -103q87 -38 186 -38t186 38q88 38 153 103t103 153q38 87 38 186t-38 186q-38 88 -103 153t-153 103q-87 38 -186 38zM512 0q-92 0 -174 35q-81 36 -142 97t-97 142 q-35 82 -35 174t35 174q36 81 96.5 142t142.5 97q82 35 174 35t174 -35q81 -36 142 -96.5t97 -142.5q35 -82 35 -174t-35 -174q-36 -81 -96.5 -142t-142.5 -97q-82 -35 -174 -35zM710 310q-7 0 -11.5 -4t-4.5 -12q0 -34 -24 -58.5t-59 -24.5t-59 24.5t-24 58.5q0 8 -4.5 12 t-11.5 4t-11.5 -4t-4.5 -12q0 -34 -24 -58.5t-59 -24.5t-59 24.5t-24 58.5q0 8 -4.5 12t-11.5 4q-8 0 -12 -4t-4 -12q0 -48 33.5 -81.5t81.5 -33.5q31 0 57 15.5t42 40.5q16 -25 42 -40.5t57 -15.5q48 0 81.5 33.5t33.5 81.5q0 6 -5 11t-11 5zM389 592q0 25 -18 43.5 t-45 18.5q-25 0 -43.5 -18t-18.5 -44q0 -25 18 -43.5t44 -18.5t44.5 18.5t18.5 43.5zM698 654q-26 0 -44.5 -18t-18.5 -44q0 -25 18 -43.5t45 -18.5q25 0 43.5 18t18.5 44q-1 25 -19 43.5t-43 18.5z" />
</svg>