<svg viewBox="0 0 1024 1024" xmlns="http://www.w3.org/2000/svg">
  <path transform="scale(1, -1) translate(0, -960)" fill="currentColor" d="M512 928q-99 0 -186 -38q-88 -38 -153 -103t-103 -153q-38 -87 -38 -186t38 -186q38 -88 103 -153t153 -103q87 -38 186 -38t186 38q88 38 153 103t103 153q38 87 38 186t-38 186q-38 88 -103 153t-153 103q-87 38 -186 38zM512 0q-92 0 -174 35q-81 36 -142 97t-97 142 q-35 82 -35 174t35 174q36 81 96.5 142t142.5 97q82 35 174 35t174 -35q81 -36 142 -96.5t97 -142.5q35 -82 35 -174t-35 -174q-36 -81 -96.5 -142t-142.5 -97q-82 -35 -174 -35zM730 379h-436q-8 0 -15 -3.5t-12 -9.5t-7 -13t-1 -14q9 -45 32 -83q24 -38 57.5 -66t75.5 -43 q42 -16 88 -16t88 16q42 15 75.5 43t56.5 66q24 38 33 83q1 7 -0.5 14t-7.5 13q-5 6 -12 9.5t-15 3.5v0zM512 163q-40 0 -77 14q-36 14 -65.5 38t-50.5 58q-20 34 -28 74l1 1t2 1h437q1 0 1.5 -1t1.5 -2q-8 -40 -29 -73q-20 -34 -50 -58t-66 -38q-37 -14 -77 -14v0zM322 533 q26 0 45 18.5t19 45.5q0 26 -19 45t-45 19q-27 0 -45.5 -19t-18.5 -45q1 -28 19.5 -46t44.5 -18zM766 595q0 -26 -18.5 -45t-45.5 -19q-26 0 -45 19t-19 45q0 27 19 45.5t45 18.5q27 0 45.5 -18.5t18.5 -45.5z" />
</svg>