<svg viewBox="0 0 256 256" xmlns="http://www.w3.org/2000/svg">
  <path transform="scale(1, -1) translate(0, -256)" fill="currentColor" d="M175 187q-14 0 -23.5 -11t-9.5 -27q0 -3 2 -5t5 -2t5 2t2 5q0 10 6 17t14 7t13.5 -7t5.5 -17q0 -3 2 -5t5 -2t5.5 2t2.5 5q-1 16 -11 27t-24 11zM100 149q0 -3 2.5 -5t5.5 -2t5 2t2 5q0 16 -10 27t-24 11t-23.5 -11t-9.5 -27q0 -3 2 -5t5 -2t5 2t2 5q0 10 6 17t14 7 t13 -7t5 -17zM128 251q-33 0 -61.5 -16.5t-45 -45t-16.5 -61.5t16.5 -61.5t45 -45t61.5 -16.5t61.5 16.5t45 45t16.5 61.5t-16.5 61.5t-45 45t-61.5 16.5zM128 19q-29 0 -53.5 14t-39 37.5t-16.5 51.5v6q0 30 15 54.5t39.5 39.5t54.5 15t55 -15t39.5 -40t14.5 -54v-6 q-1 -28 -16 -51.5t-39.5 -37.5t-53.5 -14zM176 80q-20 -18 -47.5 -18t-48.5 18q-2 2 -4.5 2t-5 -2t-2 -5t2.5 -5q12 -11 26.5 -16.5t30.5 -5.5t30.5 5.5t26.5 16.5q2 2 2.5 5t-1.5 5t-5 2t-5 -2z" />
</svg>