<svg viewBox="0 0 256 256" xmlns="http://www.w3.org/2000/svg">
  <path transform="scale(1, -1) translate(0, -256)" fill="currentColor" d="M128 251q-33 0 -61.5 -16.5t-45 -45t-16.5 -61.5t16.5 -61.5t45 -45t61.5 -16.5t61.5 16.5t45 45t16.5 61.5t-16.5 61.5t-45 45t-61.5 16.5zM128 19q-29 0 -54 14.5t-40 39.5t-15 55t15 54.5t39.5 39.5t54.5 15t55 -15t39.5 -40t14.5 -54.5t-14.5 -54.5t-39.5 -39.5 t-55 -14.5zM182 114h-108q-6 0 -9.5 -4.5t-2.5 -9.5q5 -23 23.5 -38.5t42.5 -15.5t42.5 15t23.5 39q1 5 -2.5 9.5t-9.5 4.5zM128 60q-18 0 -32.5 11t-19.5 29h104q-5 -18 -19.5 -29t-32.5 -11zM80 149q7 0 11.5 5t4.5 11.5t-4.5 11t-11 4.5t-11.5 -4.5t-4.5 -11.5t5 -11.5 t10.5 -4.5zM160 165q0 -7 4.5 -11.5t11 -4.5t11.5 4.5t5 11t-5 11.5t-11.5 5t-11 -5t-4.5 -11z" />
</svg>