<svg viewBox="0 0 256 256" xmlns="http://www.w3.org/2000/svg">
  <path transform="scale(1, -1) translate(0, -256)" fill="currentColor" d="M128 251q-33 0 -61.5 -16.5t-45 -45t-16.5 -61.5t16.5 -61.5t45 -45t61.5 -16.5t61.5 16.5t45 45t16.5 61.5t-16.5 61.5t-45 45t-61.5 16.5zM128 19q-29 0 -54 14.5t-40 39.5t-15 55t15 54.5t39.5 39.5t54.5 15t55 -15t39.5 -40t14.5 -54.5t-14.5 -54.5t-39.5 -39.5 t-55 -14.5zM178 96q-3 0 -5.5 -2t-2.5 -5q0 -7 -5 -12t-12 -5t-12.5 5t-5.5 12q0 3 -2 5t-5 2t-5 -2t-2 -5q0 -7 -5.5 -12t-12.5 -5t-12 5t-5 12q0 3 -2.5 5t-5.5 2t-5 -2t-2 -5q0 -13 9.5 -22t23.5 -9t24 12q10 -12 24 -12t23 9t9 22q0 3 -2 5t-4 2zM97 164q0 6 -4.5 11 t-11 5t-11 -4.5t-4.5 -11t4.5 -11.5t11 -5t11 5t4.5 11zM174 180q-6 0 -10.5 -4.5t-4.5 -11t4.5 -11.5t11 -5t11 4.5t4.5 11t-4.5 11.5t-11.5 5z" />
</svg>