<svg viewBox="0 0 256 256" xmlns="http://www.w3.org/2000/svg">
  <path transform="scale(1, -1) translate(0, -256)" fill="currentColor" d="M75 153h38q5 0 6.5 4.5t-2.5 8.5l-35 26q-2 2 -5 1.5t-5 -3t-1.5 -5.5t3.5 -5l18 -13h-17q-3 0 -5 -2t-2 -5t2 -5t5 -2zM143 153h38q3 0 5 2t2 5t-2 5t-5 2h-17l18 14q3 2 3.5 4.5t-1.5 5t-5 3t-5 -1.5l-35 -26q-4 -3 -3 -8q1 -2 3 -3.5t4 -1.5zM128 251 q-33 0 -61.5 -16.5t-45 -45t-16.5 -61.5t16.5 -61.5t45 -45t61.5 -16.5t61.5 16.5t45 45t16.5 61.5t-16.5 61.5t-45 45t-61.5 16.5zM128 19q-29 0 -54 14.5t-40 39.5t-15 55t15 54.5t39.5 39.5t54.5 15t55 -15t39.5 -40t14.5 -54.5t-14.5 -54.5t-39.5 -39.5t-55 -14.5z M182 114h-108q-6 0 -9.5 -4.5t-2.5 -9.5q5 -23 23.5 -38.5t42.5 -15.5t42.5 15t23.5 39q1 5 -2.5 9.5t-9.5 4.5zM128 60q-18 0 -32.5 11t-19.5 29h104q-5 -18 -19.5 -29t-32.5 -11z" />
</svg>