<svg viewBox="0 0 1024 1024" xmlns="http://www.w3.org/2000/svg">
  <path transform="scale(1, -1) translate(0, -960)" fill="currentColor" d="M512 928q-99 0 -186 -38q-88 -38 -153 -103t-103 -153q-38 -87 -38 -186t38 -186q38 -88 103 -153t153 -103q87 -38 186 -38t186 38q88 38 153 103t103 153q38 87 38 186t-38 186q-38 88 -103 153t-153 103q-87 38 -186 38zM512 0q-92 0 -174 35q-81 36 -142 97t-97 142 q-35 82 -35 174t35 174q36 81 96.5 142t142.5 97q82 35 174 35t174 -35q81 -36 142 -96.5t97 -142.5q35 -82 35 -174t-35 -174q-36 -81 -96.5 -142t-142.5 -97q-82 -35 -174 -35zM462 624q0 7 -4 11.5t-12 4.5q-7 0 -11.5 -4.5t-4.5 -11.5q0 -35 -24 -59t-59 -24t-59 24 t-24 59q0 7 -4.5 11.5t-11.5 4.5t-11.5 -4.5t-4.5 -11.5q0 -48 33.5 -81.5t81.5 -33.5t81.5 33.5t33.5 81.5zM776 640q-7 0 -11.5 -4.5t-4.5 -11.5q0 -35 -24 -59t-59 -24t-59 24t-24 59q0 7 -4.5 11.5t-11.5 4.5q-8 0 -12 -4.5t-4 -11.5q0 -48 33.5 -81.5t81.5 -33.5 t81.5 33.5t33.5 81.5q0 6 -5 11t-11 5zM738 310q-8 0 -12 -4t-4 -12q0 -39 -28.5 -68t-67.5 -29q-40 0 -68 28.5t-28 68.5q0 8 -4.5 12t-11.5 4q-8 0 -12 -4t-4 -12q0 -39 -28.5 -68t-67.5 -29q-40 0 -68 28.5t-28 68.5q0 8 -4.5 12t-11.5 4q-8 0 -12 -4t-4 -12 q0 -52 37.5 -90.5t90.5 -38.5q36 0 66 18.5t46 48.5q16 -30 46 -48.5t66 -18.5q52 0 90 37.5t38 91.5q0 8 -5 12t-11 4z" />
</svg>