<svg viewBox="0 0 256 256" xmlns="http://www.w3.org/2000/svg">
  <path transform="scale(1, -1) translate(0, -256)" fill="currentColor" d="M190 251h-124q-12 0 -20.5 -8.5t-8.5 -20.5v-188q0 -12 8.5 -20.5t20.5 -8.5h124q12 0 21 8.5t9 20.5v188q0 12 -9 20.5t-21 8.5zM206 34q0 -6 -4.5 -10.5t-11.5 -4.5h-124q-6 0 -10.5 4.5t-4.5 10.5v188q0 6 4.5 10.5t10.5 4.5h124q7 0 11.5 -4.5t4.5 -10.5v-188z M128 174q-19 0 -32.5 -13.5t-13.5 -32.5q0 -15 10 -28q-16 -9 -20 -17q-7 -10 -3.5 -22t13.5 -18q6 -4 15 -4l7 1q12 3 18 13q5 8 6 28v0q20 0 33 13.5t13 32.5t-13.5 33t-32.5 14zM110 61q-3 -6 -9 -7.5t-11.5 1.5t-7.5 9t1.5 12t30.5 22q0 -13 -1 -23.5t-3 -13.5zM128 96 v0v14.5t-3.5 4.5t-7.5 0l-14 -7q-7 9 -7 20q0 13 9.5 22.5t22.5 9.5t22.5 -9.5t9.5 -23t-9 -22.5t-23 -9zM176 61q-5 0 -8 -3t-3 -8t3 -8t8 -3t8 3t3 7.5t-3.5 8t-7.5 3.5z" />
</svg>