<svg viewBox="0 0 1024 1024" xmlns="http://www.w3.org/2000/svg">
  <path transform="scale(1, -1) translate(0, -960)" fill="currentColor" d="M760 928h-496q-43 0 -74.5 -30.5t-31.5 -75.5v-748q0 -44 31 -75t75 -31h498q43 0 74 30.5t31 75.5v748q-1 45 -32 75.5t-75 30.5zM834 74q0 -30 -22 -52t-52 -22h-496q-30 0 -52 22t-22 52v748q0 30 22 52t52 22h498q30 0 51.5 -22t21.5 -52v-748h-1zM514 621 q-71 0 -122 -50.5t-51 -122.5q0 -31 11 -60t30 -52q-27 -18 -52.5 -37t-33.5 -35q-11 -18 -13.5 -39t2.5 -41t17.5 -36.5t30.5 -27.5q12 -7 25.5 -10.5t27.5 -3.5q7 0 13.5 1t13.5 2q20 5 36.5 17.5t27.5 30.5q9 17 14 50.5t7 69.5h6.5h7.5q71 0 122 50.5t51 122.5 q0 69 -50.5 120t-120.5 51v0zM450 173q-8 -13 -19.5 -21.5t-25.5 -12.5q-15 -3 -29 -1t-27 9t-21.5 19t-12.5 26q-3 14 -1 28.5t9 27.5q11 18 56.5 48t86.5 53q2 -48 -2 -102.5t-14 -73.5v0zM514 307h-7.5h-7.5v42.5t-1 23.5q0 3 -2.5 7t-5.5 6q-4 2 -8.5 2t-7.5 -2 q-5 -3 -23.5 -12.5t-40.5 -23.5q-18 20 -28.5 44.5t-10.5 51.5q0 58 41 99.5t100 41.5t100 -41t41 -100q0 -56 -41 -97.5t-98 -41.5v0zM704 179q-18 0 -30.5 -12.5t-12.5 -30.5t12.5 -30.5t30.5 -12.5t30.5 12.5t12.5 30.5t-12.5 30.5t-30.5 12.5z" />
</svg>