<svg viewBox="0 0 1024 1024" xmlns="http://www.w3.org/2000/svg">
  <path transform="scale(1, -1) translate(0, -960)" fill="currentColor" d="M523 115v0v0h-371v0v0h-104q-7 0 -11.5 4.5t-4.5 11.5t4.5 11.5t11.5 4.5h88q2 28 13 97q11 68 39 148.5t76 160.5q48 79 125 129q38 25 81 39q43 13 90 16t99 -6t107 -29q12 34 42 56.5t67 22.5q48 0 81.5 -33.5t33.5 -81.5t-33.5 -82t-81.5 -34t-81.5 34t-33.5 82v2v2 q-54 8 -96.5 -4t-71.5 -44q-42 -45 -58 -115q-15 -71 -16 -143t7 -132q8 -61 13 -85h65q7 0 11.5 -4.5t4.5 -11.5t-4.5 -11.5t-11.5 -4.5h-80q1 0 0.5 0h-0.5zM170 147h336q-6 30 -13 93q-8 63 -6 137t20 146q18 73 63 122q19 20 42 33.5t50 20.5q-73 13 -136.5 2.5 t-117.5 -45.5q-71 -46 -116 -121t-71.5 -151.5t-37.5 -142.5t-13 -94zM877 749q-35 0 -59 -24.5t-24 -58.5q0 -35 24 -59.5t59 -24.5t59 24.5t24 59.5q0 34 -24 58.5t-59 24.5z" />
</svg>