<svg viewBox="0 0 256 256" xmlns="http://www.w3.org/2000/svg">
  <path transform="scale(1, -1) translate(0, -256)" fill="currentColor" d="M219 214q-9 0 -17 -5t-12 -13q-55 18 -94 -7q-32 -21 -50 -70q-11 -30 -14 -63h-20q-3 0 -5 -2.5t-2 -5.5t2 -4.5t5 -1.5h138q3 0 5.5 2t2.5 5t-2.5 5t-5.5 2h-13q-5 29 -4 54q1 42 17 60q13 14 38 11q0 -12 9.5 -21t22.5 -9t22.5 9.5t9.5 22.5t-10 22t-23 9zM140 179 q-19 -20 -21 -64q-2 -28 3 -59h-76q3 32 13 59q16 44 45 63q21 13 49 12q-8 -6 -13 -11zM219 164q-7 0 -12.5 5.5t-5.5 13t5.5 12.5t13 5t12.5 -5t5 -12.5t-5.5 -13t-12.5 -5.5z" />
</svg>