<svg viewBox="0 0 256 256" xmlns="http://www.w3.org/2000/svg">
  <path transform="scale(1, -1) translate(0, -256)" fill="currentColor" d="M236 106q-6 15 -37 13q-21 -1 -48 -9q-11 21 -16 39q-7 25 -1.5 40t24.5 21q4 -7 10.5 -11.5t15.5 -4.5q4 0 10 2q11 4 15.5 15.5t0.5 22t-15 15t-22 0.5q-8 -3 -12.5 -10t-5.5 -15q-50 -3 -73 -36q-16 -23 -17 -58q-1 -25 5 -54q-22 -13 -36 -26q-19 -18 -13.5 -31.5 t31.5 -13.5q17 0 41 6t49 16q43 18 70 39q31 24 24 40zM178 236q2 1 6 1t7.5 -2.5t5.5 -7t-0.5 -10.5t-8 -8t-11 0.5t-7.5 8t0.5 11t7.5 7.5zM137 40q-29 -11 -54 -17q-21 -5 -34.5 -4.5t-15 5t7.5 13.5q11 12 33 25l2 -7q0 -2 2 -3.5t4 -1.5h3q3 1 4 3.5t0 5t-3 13.5 q-4 16 -6 32q-2 21 0 39q4 22 14.5 37.5t31.5 23.5q-4 -6 -5 -10q-7 -18 0 -46q6 -21 18 -44q7 -14 12 -21q2 -2 4.5 -2.5t5 1t3 4t-0.5 5.5l-4 6q19 6 35 7q13 2 20.5 0.5t9 -4.5t-8 -13t-28.5 -22q-22 -13 -50 -25z" />
</svg>