<svg viewBox="0 0 1024 1024" xmlns="http://www.w3.org/2000/svg">
  <path transform="scale(1, -1) translate(0, -960)" fill="currentColor" d="M867 630h-2h-3q-22 74 -47 129t-51.5 92t-55.5 56t-60 21q-43 2 -80 -25q-36 -27 -62.5 -61.5t-42.5 -64.5q-15 -30 -17 -33v0v0v0v0l-310 -744h-66q-7 0 -11.5 -4.5t-4.5 -11.5t4.5 -11.5t11.5 -4.5h77v0v0h704q7 0 11.5 4.5t4.5 11.5t-4.5 11.5t-11.5 4.5h-65l-308 736 q18 38 65.5 100t102.5 60q35 -2 84 -55t100 -217q-28 -11 -46.5 -36.5t-18.5 -57.5q0 -42 29.5 -71.5t71.5 -29.5t71 29.5t29 71.5t-28.5 71t-70.5 29v0zM171 0l290 696l289 -696h-579v0zM867 459q-29 0 -49 20t-20 49t20 49t49 20t49 -20t20 -49t-20 -49t-49 -20z" />
</svg>