<svg viewBox="0 0 256 256" xmlns="http://www.w3.org/2000/svg">
  <path transform="scale(1, -1) translate(0, -256)" fill="currentColor" d="M188 148q0 -11 8.5 -19.5t20.5 -8.5t20 8.5t8 20t-8 19.5t-19 9q-23 72 -56 74q-18 1 -36 -20q-9 -11 -17 -27l-77 -185h-14q-3 0 -5.5 -2t-2.5 -5t2.5 -5.5t5.5 -2.5h195q3 0 5 2.5t2 5.5t-2 5t-5 2h-15l-75 181q6 13 15 24q13 14 22.5 13t19.5 -12q13 -16 24 -51 q-7 -4 -11.5 -11t-4.5 -15zM47 19l68 163l68 -163h-136zM217 163q6 0 10 -4.5t4 -10.5t-4 -10t-10 -4t-10.5 4t-4.5 10t4.5 10.5t10.5 4.5z" />
</svg>