<svg viewBox="0 0 256 256" xmlns="http://www.w3.org/2000/svg">
  <path transform="scale(1, -1) translate(0, -256)" fill="currentColor" d="M178 123v35q0 21 -14.5 36t-35.5 15t-35.5 -15t-14.5 -36v-35q-28 -4 -46 -11q-27 -10 -27 -26q0 -18 38 -29q35 -10 85 -10t85 10q38 11 38 29q0 16 -27 26q-18 7 -46 11zM128 61q-33 0 -60 5q-22 4 -35.5 10t-13.5 10t6 8t18 8q14 4 35 7v-7q0 -3 2 -5.5t5 -2.5t5 2.5 t2 5.5v56q0 15 10.5 26t25.5 11t26 -11t11 -26v-57q0 -3 2 -5t5 -2t5 2t2 5v8q20 -3 35 -8q12 -3 18 -7.5t5.5 -8t-14 -9.5t-35.5 -10q-27 -5 -60 -5z" />
</svg>