<svg viewBox="0 0 1024 1024" xmlns="http://www.w3.org/2000/svg">
  <path transform="scale(1, -1) translate(0, -960)" fill="currentColor" d="M701 418v152q0 78 -55.5 133t-133.5 55t-133.5 -55t-55.5 -133v-152q-29 -4 -78 -13q-50 -9 -97 -24.5t-82 -39.5q-34 -24 -34 -58q0 -35 42 -62q43 -28 111 -46t154 -28q86 -9 173 -9t173 9q86 10 154 28t111 46q42 27 42 62q0 33 -34 57q-33 23 -79.5 39t-96.5 25 q-49 9 -81 14zM512 170q-104 0 -187 11t-141 27.5t-89 36.5t-31 38q0 27 66 57t193 46v-45q0 -7 4.5 -11.5t11.5 -4.5t11.5 4.5t4.5 11.5v229q0 64 46 110t111 46t111 -46t46 -110v-229q0 -7 4.5 -11.5t11.5 -4.5t11.5 4.5t4.5 11.5v43q127 -16 193 -45t66 -56 q0 -18 -31 -38t-89 -36.5t-141 -27.5t-187 -11v0z" />
</svg>