<svg viewBox="0 0 1024 1024" xmlns="http://www.w3.org/2000/svg">
  <path transform="scale(1, -1) translate(0, -960)" fill="currentColor" d="M938 710q-142 52 -274 65t-244 4.5t-198 -30.5q-86 -21 -136 -39q-30 -10 -45 -38t-7 -61l113 -433q5 -17 15.5 -31t24.5 -22q16 -9 32.5 -10t33.5 5q77 27 153 34q76 8 144.5 3.5t126.5 -17.5q57 -12 97 -25q6 -2 12 -2.5t12 -0.5q11 0 21 2.5t19 8.5q15 9 25.5 22 t14.5 29l111 437q8 31 -6.5 60t-44.5 39v0zM958 621l-110 -439q-2 -9 -9 -18t-15 -14q-10 -4 -19.5 -5.5t-20.5 1.5q-48 16 -123 31t-165 15q-60 0 -123 -9.5t-128 -32.5q-11 -3 -21.5 -2t-18.5 6q-10 4 -16 12.5t-8 19.5l-115 435q-5 19 3.5 36t28.5 25q47 16 131 37 q83 21 192 29.5t238 -3.5q129 -13 267 -63q20 -9 28.5 -26t3.5 -35v0zM640 477h-112v112q0 7 -4.5 11.5t-11.5 4.5t-11.5 -4.5t-4.5 -11.5v-112h-112q-7 0 -11.5 -4.5t-4.5 -11.5t4.5 -11.5t11.5 -4.5h112v-112q0 -7 4.5 -11.5t11.5 -4.5t11.5 4.5t4.5 11.5v112h112 q7 0 11.5 4.5t4.5 11.5t-5 11.5t-11 4.5v0z" />
</svg>