<svg viewBox="0 0 1024 1024" xmlns="http://www.w3.org/2000/svg">
  <path transform="scale(1, -1) translate(0, -960)" fill="currentColor" d="M714 453l-24 205q-4 28 -25.5 47.5t-50.5 19.5h-204q-29 0 -50.5 -19.5t-25.5 -47.5l-24 -205q-65 -9 -117 -23q-51 -13 -87 -30.5t-55 -37.5q-19 -21 -19 -44q0 -36 42 -63q43 -28 111 -47t154 -29q86 -9 173 -9t173 9q86 10 154 28.5t111 46.5q42 28 42 64q0 23 -19 44 q-19 20 -55 37.5t-87 30.5q-52 14 -117 23v0zM512 202q-96 0 -178 10t-142 27t-94 38q-34 20 -34 41q0 26 61.5 56t181.5 47l-6 -50q-1 -6 3 -11t11 -6q6 -2 11.5 2.5t6.5 11.5l33 288q3 17 15 27.5t29 10.5h203q17 0 29.5 -10.5t13.5 -27.5l34 -288q1 -6 5.5 -10t10.5 -4 h0.5h0.5q6 1 10.5 6t4.5 11l-7 50q121 -18 183 -47.5t62 -55.5q0 -21 -33 -41q-33 -21 -92 -38t-142 -27q-82 -10 -181 -10z" />
</svg>