<svg viewBox="0 0 256 256" xmlns="http://www.w3.org/2000/svg">
  <path transform="scale(1, -1) translate(0, -256)" fill="currentColor" d="M54 5q-3 0 -5 1.5t-2 3.5l-17 86q-17 18 -22.5 41t1 46.5t23.5 40.5t38.5 23.5t44 2t40.5 -19.5l5 -4l86 -17q3 -1 4.5 -3t0.5 -6q-9 -35 -27 -67t-44 -57.5t-57.5 -43.5t-66.5 -27h-2zM45 94l14 -73q31 9 59.5 25.5t51.5 39.5q47 47 65 111l-73 14q-2 -6 -9 -23 q-15 -33 -33 -52q-16 -16 -41 -28q-17 -9 -34 -14zM97 237q-16 0 -30 -5.5t-25 -17t-17 -25.5t-6 -29t5.5 -28.5t14.5 -24.5q15 4 31 12q25 12 40 27t27 39q7 16 12 32l-3 3q-22 17 -49 17zM115 141z" />
</svg>