<svg viewBox="0 0 1024 1024" xmlns="http://www.w3.org/2000/svg">
  <path transform="scale(1, -1) translate(0, -960)" fill="currentColor" d="M214 -32q-2 0 -4 1l-4 2t-4 4.5t-2 6.5l-67 343q-49 50 -75 114t-26 134q0 71 27 136t77 115q49 49 109 75q61 26 124.5 29t126.5 -17q62 -20 115 -63l12 -10t12 -11l344 -67q4 -1 6.5 -2.5t4.5 -3.5q2 -3 2.5 -6.5t-0.5 -6.5q-18 -70 -45 -136t-62 -128t-79 -119 q-43 -57 -94 -108q-52 -52 -109 -96q-57 -43 -119.5 -78.5t-129.5 -62.5q-66 -27 -136 -45h-1h-3v0zM166 322l61 -319q66 18 128 44q62 27 120 60.5t112 75.5q53 41 101 89t89 101q41 54 75 112t60 120t43 128l-317 62q-1 -3 -2.5 -8t-3.5 -11q-5 -14 -13 -35t-19 -47 q-19 -44 -51.5 -101t-78.5 -102v0q-38 -39 -83 -69q-45 -29 -87.5 -49.5t-78.5 -33.5q-35 -12 -55 -17v0zM387 896q-62 0 -121.5 -24t-107.5 -70q-46 -47 -69 -105q-24 -59 -25 -120t21 -120t67 -107q14 4 47 15q34 11 76.5 30.5t88.5 48.5q46 28 84 66q36 36 64 82 q28 45 48 88t32 77q12 35 16 49q-4 4 -8 7.5t-8 7.5q-1 1 -2 1.5t-1 1.5q-45 37 -96.5 54.5t-105.5 17.5v0zM461 501v0v0z" />
</svg>