<svg viewBox="0 0 256 256" xmlns="http://www.w3.org/2000/svg">
  <path transform="scale(1, -1) translate(0, -256)" fill="currentColor" d="M236 196q-63 23 -131 18q-45 -4 -84 -18q-9 -3 -13 -11t-2 -17l28 -108q3 -11 12 -15.5t19 -0.5q33 11 73 9q28 -2 55 -11q4 -1 7 -1q6 0 12 3q9 5 11 15l28 109q2 9 -2.5 17t-12.5 11zM237 172l-28 -110q-1 -4 -4.5 -5.5t-7.5 -0.5q-36 11 -73 11q-34 0 -64 -11 q-5 -1 -8 0.5t-5 6.5l-28 109q-1 3 1 6.5t5 4.5q37 14 80 17q66 5 125 -17q4 -1 6 -4.5t1 -6.5zM160 138h-25v25q0 3 -2 5t-5 2t-5 -2t-2 -5v-25h-25q-3 0 -5 -2t-2 -5t2 -5t5 -2h25v-25q0 -3 2 -5t5 -2t5 2t2 5v25h25q3 0 5 2t2 5t-2 5t-5 2z" />
</svg>