<svg viewBox="0 0 256 256" xmlns="http://www.w3.org/2000/svg">
  <path transform="scale(1, -1) translate(0, -256)" fill="currentColor" d="M181 132l-5 49q-1 9 -7.5 14.5t-14.5 5.5h-52q-8 0 -14 -5.5t-8 -14.5l-5 -49q-27 -4 -44 -11q-26 -10 -26 -25q0 -19 38 -30q35 -10 85 -10t84 10q39 11 39 30q0 15 -26 25q-17 7 -44 11zM128 70q-33 0 -60 4q-22 4 -35.5 10.5t-13.5 11.5t13 11q16 7 41 11l-1 -9 q0 -3 1.5 -5t4.5 -2.5t5 1t3 4.5l8 72q0 3 2.5 5t5.5 2h51q3 0 5.5 -2t2.5 -5l8 -72q0 -2 2.5 -4t4.5 -2h1q3 0 4.5 2.5t1.5 5.5l-1 9q25 -4 40 -11q14 -6 14 -11t-13 -11.5t-36 -10.5q-26 -4 -59 -4z" />
</svg>