<svg viewBox="0 0 1024 1024" xmlns="http://www.w3.org/2000/svg">
  <path transform="scale(1, -1) translate(0, -960)" fill="currentColor" d="M976 597q-7 5 -17 6.5t-18 -1.5l-181 -66v78q0 27 -19 45.5t-45 18.5h-600q-26 0 -45 -18.5t-19 -45.5v-334q0 -26 19 -45t45 -19h600q26 0 45 19t19 45v78l181 -65q3 -1 6 -1.5t7 -0.5q6 0 11.5 1.5t10.5 5.5q7 4 11.5 13t4.5 19v236q0 9 -4.5 17.5t-11.5 13.5v0z M696 250h-600q-13 0 -22.5 9t-9.5 23v332q0 14 9.5 23t22.5 9h600q13 0 22.5 -9t9.5 -23v-99v0v0v-133v0v0v-99q0 -14 -9.5 -23.5t-22.5 -9.5zM960 330q0 -3 -1 -4t-2 -1t-2.5 -0.5t-4.5 0.5l-190 69v110l190 69q3 1 4.5 0.5t2.5 -0.5t2 -1.5t1 -3.5v-238zM346 554 q-8 0 -12 -4.5t-4 -11.5v-74h-108v74q0 7 -4 11.5t-12 4.5q-7 0 -11.5 -4.5t-4.5 -11.5v-180q0 -7 4.5 -11.5t11.5 -4.5q8 0 12 4.5t4 11.5v74h108v-74q0 -7 4 -11.5t12 -4.5q7 0 11.5 4.5t4.5 11.5v180q0 6 -5 11t-11 5v0zM555 554h-85q-7 0 -11.5 -4.5t-4.5 -11.5v-180 q0 -7 4.5 -11.5t11.5 -4.5h85q23 0 39.5 17t16.5 39v100q0 22 -16.5 39t-39.5 17v0zM579 398q0 -9 -7 -16.5t-17 -7.5h-69v148h69q10 0 17 -7.5t7 -16.5v-100z" />
</svg>