<svg viewBox="0 0 256 256" xmlns="http://www.w3.org/2000/svg">
  <path transform="scale(1, -1) translate(0, -256)" fill="currentColor" d="M246 168q-5 3 -12 1l-41 -15v16q0 7 -5.5 13t-13.5 6h-150q-8 0 -13.5 -5.5t-5.5 -13.5v-84q0 -8 5.5 -13.5t13.5 -5.5h150q8 0 13.5 5.5t5.5 13.5v15l41 -15h6t6 2q5 4 5 10v60q0 6 -5 10zM174 81h-150q-2 0 -3.5 1.5t-1.5 3.5v84q0 2 1.5 3.5t3.5 1.5h150q2 0 3.5 -1.5 t1.5 -3.5v-84q0 -2 -1.5 -3.5t-3.5 -1.5zM237 100l-44 16v24l44 16v-56zM86 157q-3 0 -5 -2t-2 -5v-15h-21v15q0 3 -2 5t-5 2t-5 -2t-2 -5v-45q0 -3 2 -5t5 -2t5 2t2 5v15h21v-15q0 -3 2 -5t5 -2t5.5 2t2.5 5v45q-1 3 -3 5t-5 2zM139 157h-21q-3 0 -5.5 -2t-2.5 -5v-45 q0 -3 2.5 -5t5.5 -2h21q7 0 12 5t5 12v25q0 7 -5 12t-12 5zM142 116q0 -3 -3 -3h-15v31h15q3 0 3 -3v-25z" />
</svg>