<svg viewBox="0 0 1024 1024" xmlns="http://www.w3.org/2000/svg">
  <path transform="scale(1, -1) translate(0, -960)" fill="currentColor" d="M928 795h-832q-26 0 -45 -18.5t-19 -45.5v-566q0 -27 19 -45.5t45 -18.5h832q26 0 45 18.5t19 45.5v566q0 27 -19 45.5t-45 18.5v0zM960 165q0 -13 -9.5 -22.5t-22.5 -9.5h-832q-13 0 -22.5 9.5t-9.5 22.5v566q0 13 9.5 22.5t22.5 9.5h832q13 0 22.5 -9.5t9.5 -22.5v-566 zM440 581q-7 0 -11.5 -4.5t-4.5 -11.5v-101h-150v101q0 7 -4.5 11.5t-11.5 4.5q-8 0 -12 -4.5t-4 -11.5v-234q0 -7 4 -11.5t12 -4.5q7 0 11.5 4.5t4.5 11.5v101h150v-101q0 -7 4.5 -11.5t11.5 -4.5t11.5 4.5t4.5 11.5v234q0 6 -5 11t-11 5v0zM714 581h-112q-8 0 -12 -4.5 t-4 -11.5v-234q0 -7 4 -11.5t12 -4.5h112q27 0 47 20t20 47v130q1 29 -19 49t-48 20v0zM750 382q0 -14 -10 -24.5t-25 -10.5h-96v202h96q15 0 25 -10.5t10 -24.5v-132z" />
</svg>