<svg viewBox="0 0 1024 1024" xmlns="http://www.w3.org/2000/svg">
  <path transform="scale(1, -1) translate(0, -960)" fill="currentColor" d="M968 357h-0.5t0.5 0l-54 49q1 11 1 22v22v21t-1 22l54 49q19 18 22.5 43.5t-8.5 48.5l-65 113q-13 23 -37 32.5t-50 1.5l-68 -23q-17 14 -36 24.5t-38 19.5l-16 72q-7 22 -27.5 38t-46.5 16h-65h-1.5h-1.5q-55 2 -106 -11t-96 -39.5t-81 -66.5q-37 -39 -63 -89 q-22 -42 -28 -86t-7 -76q0 -14 -4.5 -29t-13.5 -27l-91 -144q-4 -7 -6 -14.5t-2 -14.5q0 -23 16 -38.5t38 -15.5h61v-101q0 -38 27.5 -65.5t65.5 -27.5q8 0 15 1.5t12 3.5l72 22v-107q0 -14 10.5 -24.5t24.5 -10.5h154h1h1h0.5h0.5h66q25 0 45.5 16t26.5 42l16 72 q19 8 38 19t35 24l69 -23q25 -7 49 2.5t38 31.5l65 114q15 21 11 47t-22 44v0zM374 3v128q0 4 -1 7.5t-5 5.5q-2 1 -4.5 2t-5.5 1h-2h-2l-95 -29q-3 -1 -8 -2t-9 -1q-26 0 -43.5 18t-17.5 43v117q0 7 -4.5 11.5t-11.5 4.5h-77q-10 0 -16 6.5t-6 15.5q0 4 1 6.5t2 6.5l91 144 q10 16 15.5 34.5t6.5 37.5q2 47 9.5 82.5t22.5 64.5q22 45 54 80q31 35 70 59t84 37q44 13 92 13h1.5h1.5v-893v-0.5v-0.5h-139q-2 -2 -3 -1t-1 2v0zM954 282l-66 -114q-7 -12 -21 -17.5t-27 -1.5l-77 24q-3 1 -7.5 0t-6.5 -3q-18 -15 -38.5 -26.5t-41.5 -20.5 q-4 -1 -6.5 -4t-3.5 -7l-17 -80q-4 -14 -15 -23t-25 -9h-50v1.5v1.5v893h50q14 0 25.5 -9.5t14.5 -22.5l17 -80q1 -4 3.5 -7t6.5 -4q21 -9 41.5 -20.5t38.5 -26.5q3 -2 7 -3t7 0l77 24q14 5 28 -0.5t22 -18.5l65 -114q7 -13 5 -27.5t-13 -24.5l-59 -55q-2 -2 -4 -5.5 t-1 -8.5q1 -11 2 -23t1 -24t-1 -23.5t-2 -22.5q0 -4 1.5 -7.5t3.5 -6.5l59 -55v0v0q10 -8 12 -22.5t-5 -26.5z" />
</svg>