<svg viewBox="0 0 1024 1024" xmlns="http://www.w3.org/2000/svg">
  <path transform="scale(1, -1) translate(0, -960)" fill="currentColor" d="M826 558h-4v60q0 64 -25 120q-24 57 -66 99t-98 67q-57 24 -121 24t-120 -24q-57 -25 -98.5 -67t-66.5 -98q-24 -56 -24 -120v-59h-3q-52 0 -88.5 -36.5t-36.5 -88.5v-81q0 -52 36.5 -88.5t88.5 -36.5h59q27 0 45.5 18.5t18.5 45.5v201q0 27 -18.5 45.5t-45.5 18.5h-24 v60q0 57 22 108q21 51 58.5 88.5t88.5 59.5q50 22 108 22t108 -22t87.5 -59.5t59.5 -87.5q22 -51 22 -108v-59h-24q-27 0 -45.5 -19t-18.5 -45v-202q0 -26 18.5 -45t45.5 -19h24q-3 -72 -53 -120t-126 -56q-2 22 -17.5 37t-37.5 15h-107q-23 0 -38.5 -16t-15.5 -39v-29 q0 -22 15.5 -38t38.5 -16h109q21 0 37 15.5t17 37.5q45 3 83 20q39 17 67 44.5t44 64.5q16 36 17 79h4q51 0 87.5 36.5t36.5 88.5v81q-1 52 -37.5 87.5t-86.5 35.5v0zM290 494v-201q0 -13 -9.5 -22.5t-22.5 -9.5h-60q-38 0 -65 27t-27 66v81q0 39 27 66t65 27h60 q13 -1 22.5 -10.5t9.5 -23.5v0zM579 22q0 -9 -6.5 -15.5t-15.5 -6.5h-109q-10 0 -16 6.5t-6 15.5v29q0 10 6 16.5t16 6.5h109q9 0 15.5 -6.5t6.5 -16.5v-29zM917 354q0 -39 -27.5 -66t-65.5 -27h-59q-13 0 -22.5 9.5t-9.5 22.5v201q0 14 9.5 23t22.5 9h59q38 0 65.5 -27 t27.5 -65v-80v0z" />
</svg>