<svg viewBox="0 0 256 256" xmlns="http://www.w3.org/2000/svg">
  <path transform="scale(1, -1) translate(0, -256)" fill="currentColor" d="M138 251q-25 0 -45.5 -12t-32.5 -33t-12 -45v-18l-19 -38q-2 -3 0 -6.5t6 -3.5h12q1 0 1 -1v-48q0 -4 2.5 -6t5.5 -1l40 7l1 -1l1 -1v-32q0 -3 2 -5t4 -2l85 14q2 0 4 2.5t2 4.5v44q0 18 13 33q10 12 15 27t5 31q0 24 -12 45t-33 33t-45 12zM197 112q-16 -19 -16 -42v-38 l-69 -12v24q0 7 -5 11t-11 4l-34 -5v40q0 6 -4.5 10.5t-10.5 4.5l14 28q1 3 1 7v17q0 20 10.5 38t28 28t38 10t38.5 -10t28 -28t10 -38q-1 -28 -18 -49zM121 153h30q3 0 5 2t2 5t-2 5t-5 2h-11v7q0 3 -2.5 5t-5.5 2t-5 -2t-2 -5v-7h-4q-10 0 -16.5 -6.5t-6.5 -16t7 -16 t16 -6.5h13q4 0 6.5 -3t2.5 -6.5t-2.5 -6t-6.5 -2.5h-29q-3 0 -5 -2t-2 -5t2 -5t5 -2h20v-7q0 -3 2 -5t5 -2t5.5 2t2.5 5v7q7 2 12.5 8t5.5 15t-6.5 16t-16.5 7h-13q-4 0 -6.5 2.5t-2.5 6t2.5 6t5.5 2.5z" />
</svg>