<svg viewBox="0 0 1024 1024" xmlns="http://www.w3.org/2000/svg">
  <path transform="scale(1, -1) translate(0, -960)" fill="currentColor" d="M552 928q-72 0 -135 -27q-64 -28 -111.5 -75.5t-74.5 -110.5q-28 -64 -28 -136v-67v-4t-1 -4l-77 -152q-3 -4 -2 -8l2 -8t5 -6t9 -2h47q7 0 12 -5t5 -13v-193q0 -4 1.5 -7.5t5.5 -5.5q2 -2 5.5 -3t6.5 0l160 27q4 1 7.5 0t7.5 -3l4 -6t2 -7v-128q0 -4 1.5 -7t5.5 -6 q2 -2 4.5 -2.5t4.5 -0.5h1.5h1.5l333 56q6 1 9.5 5.5t3.5 10.5v178q0 36 14 71t40 68v0v0q39 47 59.5 104t20.5 118q0 72 -28 136q-28 63 -75.5 110.5t-110.5 74.5q-64 28 -136 28v0zM797 376q-30 -36 -45.5 -77t-15.5 -83v-163l-301 -50v109q0 11 -4.5 21t-12.5 16t-16 8.5 t-16 2.5h-4.5h-3.5l-143 -24v176q0 20 -14.5 35t-34.5 15h-21l64 128q2 4 3.5 10t1.5 12v67q0 66 25 123q25 58 68 101t101 68t124 25t124 -25q57 -25 100 -68t68 -101q25 -57 25 -123q0 -56 -18.5 -108t-53.5 -95v0zM485 558h118q7 0 11.5 4.5t4.5 11.5q0 8 -4.5 12 t-11.5 4h-57v39q0 7 -4.5 11.5t-11.5 4.5q-8 0 -12 -4.5t-4 -11.5v-39h-29q-33 0 -56.5 -23t-23.5 -57q0 -33 23 -56.5t57 -23.5h54q19 0 33.5 -13.5t14.5 -34.5q0 -20 -13.5 -34t-34.5 -14h-118q-7 0 -11.5 -4t-4.5 -12q0 -7 4.5 -11.5t11.5 -4.5h93v-38q0 -7 4 -11.5 t12 -4.5q7 0 11.5 4.5t4.5 11.5v38q30 3 51.5 25.5t21.5 53.5q0 32 -23 56t-57 24h-54q-19 0 -33.5 13.5t-14.5 34.5t13.5 35t34.5 14v0z" />
</svg>