<svg viewBox="0 0 1024 1024" xmlns="http://www.w3.org/2000/svg">
  <path transform="scale(1, -1) translate(0, -960)" fill="currentColor" d="M854 749q-34 34 -75 60t-85.5 44t-92.5 26q-48 9 -97 7q-97 -1 -183 -38q-85 -37 -149 -100.5t-101 -147.5q-38 -84 -39 -179v0v-211q0 -14 8.5 -22.5t21.5 -9.5l356 -170h94q7 0 11.5 4.5t4.5 11.5t-4.5 11.5t-11.5 4.5h-88l-288 138h21q13 0 22.5 9t9.5 23v179 q0 13 -9.5 22.5t-22.5 9.5h-93q1 89 36 167t94.5 137t139.5 94q79 34 170 35q47 2 92 -6q44 -8 85.5 -24.5t79.5 -41.5t71 -57q31 -31 55 -66t40 -73.5t25 -79.5q8 -41 8 -84v-3h-94q-14 0 -23 -9.5t-9 -22.5v-179q0 -13 9 -22.5t23 -9.5h94q13 0 22.5 9.5t9.5 22.5v216 q0 46 -9 90t-26.5 85t-43.5 79t-59 71zM158 210h-89q-1 0 -2.5 0.5t-2.5 0.5v178h94v-179v0zM960 210h-94v179h94v-179v0z" />
</svg>