<svg viewBox="0 0 256 256" xmlns="http://www.w3.org/2000/svg">
  <path transform="scale(1, -1) translate(0, -256)" fill="currentColor" d="M251 124q0 23 -9.5 44t-26.5 38t-40.5 26.5t-48.5 8.5q-32 -1 -59.5 -16.5t-44 -42t-17.5 -58.5v-56q0 -4 3 -7t7 -3l89 -43h24q3 0 5 2t2 5t-2 5t-5 2h-21l-62 30q6 3 6 9v45q0 5 -3.5 8t-7.5 3h-21q1 28 16 51.5t39 37t52 14.5q23 0 43.5 -8t36 -23t23.5 -33.5t8 -38.5 h-20q-5 0 -8 -3t-3 -8v-45q0 -5 3 -8t8 -3h23q5 0 8 3t3 8v54v2zM37 72h-18v38h18v-38zM237 72h-17v38h17v-38z" />
</svg>