<svg viewBox="0 0 256 256" xmlns="http://www.w3.org/2000/svg">
  <path transform="scale(1, -1) translate(0, -256)" fill="currentColor" d="M208 159v12q0 22 -10.5 40.5t-29 29t-40.5 10.5t-40.5 -10.5t-29 -29t-10.5 -40.5v-12q-14 -1 -23 -11t-9 -23v-21q0 -14 9.5 -24t24.5 -10h14q8 0 14 6t6 14v50q0 7 -6 13t-14 6h-2v12q0 18 8.5 33t24 24t33.5 9t33 -9t24 -24t9 -33v-12h-2q-8 0 -14 -5.5t-6 -13.5v-51 q0 -8 6 -13.5t14 -5.5h2q-3 -14 -13.5 -24.5t-25.5 -13.5q-1 6 -5.5 9.5t-10.5 3.5h-27q-7 0 -11.5 -5t-4.5 -12v-7q0 -7 4.5 -11.5t11.5 -4.5h27q6 0 10.5 4t6.5 9q20 3 34.5 17.5t17.5 34.5q14 1 23.5 10.5t9.5 23.5v20q0 14 -9.5 24t-23.5 11zM70 140v-51q0 -2 -1.5 -3.5 t-4.5 -1.5h-14q-9 0 -14.5 6t-5.5 14v20q0 9 5.5 14.5t14.5 5.5h14q2 1 4 -0.5t2 -3.5zM142 22q0 -1 -1 -2t-2 -1h-27q-1 0 -1.5 1t-0.5 2v7q0 1 0.5 1.5t1.5 0.5h27q1 0 2 -0.5t1 -1.5v-7zM226 104q0 -8 -5.5 -14t-14.5 -6l-4 1l-3 -1h-7q-2 0 -4 1.5t-2 4.5v50q0 2 2 3.5 t4 1.5h14q9 0 14.5 -6t5.5 -14v-21z" />
</svg>