<svg viewBox="0 0 1024 1024" xmlns="http://www.w3.org/2000/svg">
  <path transform="scale(1, -1) translate(0, -960)" fill="currentColor" d="M854 666q-34 34 -75 60q-40 26 -84.5 43.5t-92.5 26.5q-48 8 -98 7q-98 -1 -184 -39q-86 -37 -150 -101t-101 -149t-37 -181v-192q0 -21 14 -34.5t34 -13.5h104q20 0 34 13.5t14 34.5v147q0 20 -14 34t-34 14h-104q-5 0 -8.5 -1t-7.5 -2q0 89 35 168q34 80 93.5 139.5 t140.5 94.5q80 35 171 36q47 1 92 -7q45 -7 86.5 -24t79.5 -41q38 -25 70 -57q31 -31 55 -66t40 -73.5t25 -78.5q8 -41 8 -83v-8q-4 2 -7.5 2.5t-8.5 0.5h-104q-20 0 -34 -14t-14 -34v-147q0 -21 14 -34.5t34 -13.5h104q20 0 34 13.5t14 34.5v200q0 45 -9 89q-9 45 -26.5 86 t-43.5 79t-59 71v0zM80 304h104q7 0 11.5 -4.5t4.5 -11.5v-147q0 -7 -4.5 -11.5t-11.5 -4.5h-104q-7 0 -11.5 4.5t-4.5 11.5v147q0 7 4.5 11.5t11.5 4.5zM960 141q0 -7 -4.5 -11.5t-11.5 -4.5h-104q-7 0 -11.5 4.5t-4.5 11.5v147q0 7 4.5 11.5t11.5 4.5h104q7 0 11.5 -4.5 t4.5 -11.5v-147z" />
</svg>