<svg viewBox="0 0 256 256" xmlns="http://www.w3.org/2000/svg">
  <path transform="scale(1, -1) translate(0, -256)" fill="currentColor" d="M216 184q-18 18 -41.5 27t-48.5 9q-33 -1 -60.5 -17t-44 -44t-16.5 -60v-48q0 -6 4.5 -10.5t10.5 -4.5h26q6 0 10.5 4.5t4.5 10.5v37q0 6 -4.5 10.5t-10.5 4.5h-27q1 28 15.5 51.5t39 37.5t52.5 14q23 0 43.5 -8t36 -23t23.5 -33.5t8 -38.5h-27q-6 0 -10.5 -4.5 t-4.5 -10.5v-37q0 -6 4.5 -10.5t10.5 -4.5h26q6 0 10.5 4.5t4.5 10.5v50q0 24 -9 45.5t-26 37.5zM20 89h26q1 0 1 -1v-37q0 -1 -1 -1h-26q-1 0 -1 1v37q0 1 1 1zM237 51q0 -1 -1 -1h-26q-1 0 -1 1v37q0 1 1 1h26q1 0 1 -1v-37z" />
</svg>