<svg viewBox="0 0 256 256" xmlns="http://www.w3.org/2000/svg">
  <path transform="scale(1, -1) translate(0, -256)" fill="currentColor" d="M244 107l-12 12v9v10l12 11q5 5 6.5 12.5t-2.5 14.5l-16 28q-4 7 -11 9.5t-15 0.5l-16 -5q-7 5 -16 9l-4 17q-1 7 -7 12t-13 5h-18q-28 0 -52 -14.5t-37 -39.5q-8 -16 -9 -42q0 -6 -3 -12l-23 -36q-2 -4 -2 -9q0 -7 4.5 -12t11.5 -5h13v-22q0 -10 7.5 -18t18.5 -8 q5 0 8 1l14 5v-23q0 -5 3.5 -8.5t8.5 -3.5h54q8 0 13.5 4.5t7.5 12.5l4 16q8 4 16 10l16 -6q7 -2 14 1t11 9l16 28q4 7 3 14.5t-6 12.5zM94 55q-3 2 -7 1l-24 -7l-3 -1q-5 0 -8.5 4t-3.5 9v29q0 3 -2 5t-5 2h-19q-3 0 -3 3l1 2l22 36q6 9 6 19q1 22 8 36q11 20 29.5 31.5 t40.5 12.5v-218h-30v30q1 3 -2 6zM236 88l-17 -29q-1 -2 -3.5 -3t-5.5 0l-19 6q-3 1 -6 -1q-9 -7 -19 -11q-4 -2 -4 -5l-5 -20q0 -3 -2 -4.5t-5 -1.5h-10v218h10q2 0 4 -1.5t3 -4.5l4 -20q1 -4 4 -5q12 -5 19 -11q4 -3 7 -1l19 6q3 0 5.5 -1t3.5 -3l16 -28q3 -6 -1 -10 l-15 -13q-2 -3 -2 -6l1 -11l-1 -12q-1 -3 2 -6l15 -13q2 -2 2.5 -4.5t-0.5 -4.5z" />
</svg>