<svg viewBox="0 0 256 256" xmlns="http://www.w3.org/2000/svg">
  <path transform="scale(1, -1) translate(0, -256)" fill="currentColor" d="M16 161q1 -1 3 -1q5 0 6 5q3 8 6 14q2 3 1 5.5t-3.5 4t-5.5 0.5t-4 -3q-5 -9 -7 -16q-1 -3 0.5 -5.5t3.5 -3.5zM55 219q-2 2 -5 2t-5 -2q-7 -6 -12 -12q-2 -2 -1.5 -5t2.5 -5t5 -2t5 3q4 5 10 10q3 3 3 6t-2 5zM26 90q-4 10 -4 15q-1 3 -3.5 4.5t-5.5 1t-4.5 -3 t-0.5 -5.5q2 -9 5 -16q2 -5 6 -5l3 1q2 0 3.5 3t0.5 5zM36 70q-2 2 -5 3t-5 -0.5t-3 -4.5t1 -5q6 -10 10 -14q1 -3 4.5 -3t5 2t2 5t-1.5 5q-4 5 -8 12zM19 128q0 8 1 15q1 3 -1 5t-5 2.5t-5 -1t-3 -4.5q-1 -9 -1 -17v0q0 -3 2 -5t5 -2t5 2t2 5zM108 235h1q9 2 15 2q3 0 5 2 t2 5t-2 5t-5 2h-1q-11 -1 -17 -2q-3 -1 -4.5 -3t-1 -5t2.5 -4.5t5 -1.5zM230 166q4 -10 5 -15q0 -2 2 -3.5t5 -1.5h1q3 0 4.5 2.5t0.5 5.5q-1 9 -4 16q-1 3 -4 4.5t-5.5 0t-4 -4t-0.5 -4.5zM220 186q2 -3 6 -3q2 0 4 1.5t3 4t-1 5.5q-6 9 -10 14q-2 2 -5 2t-5 -1.5 t-2.5 -4.5t1.5 -6q7 -8 9 -12zM146 236q8 -2 15 -4h2q2 0 4 1t3 3.5t-0.5 5t-3.5 3.5q-12 3 -17 4q-3 1 -5.5 -1t-3 -4.5t1.5 -5t4 -2.5zM70 221q1 0 3 1q9 5 14 7q2 1 3.5 3.5t0.5 5.5t-4 4t-5 0q-7 -2 -16 -8q-2 -1 -2.5 -4t0.5 -6t6 -3zM212 58l-11 -11q-2 -2 -2 -5t2 -5 t5 -2t5 1q7 7 12 13q2 2 1.5 5t-2.5 5t-5.5 1.5t-4.5 -2.5zM240 95q-3 1 -5.5 -0.5t-3.5 -4.5t-5 -10l-1 -3q-2 -3 -1 -5.5t4 -4.5l3 -1q4 0 6 4q4 9 7 16q1 3 -0.5 5.5t-3.5 3.5zM205 215q2 3 1.5 5.5t-2.5 4.5q-7 6 -15 10q-2 1 -5 0.5t-4.5 -3t-0.5 -5.5t3 -4q7 -4 13 -9 q2 -1 4.5 -1t5.5 2zM244 136q-3 0 -5 -2.5t-2 -5.5v0q0 -7 -1 -15q-1 -3 1 -5.5t5 -2.5v0q3 0 5 1.5t2 4.5q1 8 1 17v0q1 3 -1 5.5t-5 2.5zM182 34q-8 -5 -13 -7q-3 -1 -4 -4t0.5 -6.5t5.5 -3.5l3 1q6 2 15 7q3 2 3.5 4.5t-1 5t-4 3.5t-5.5 0zM109 21q-8 1 -15 3q-2 1 -5 0 t-3.5 -4t0.5 -5.5t4 -3.5q11 -3 17 -4h1q2 0 4.5 2t2.5 4.5t-1.5 4.5t-4.5 3zM147 21q-9 -2 -15 -2q-3 0 -5 -2t-2 -5t2 -5t5 -2l18 2q3 0 4.5 2.5t1 5.5t-3 4.5t-5.5 1.5zM74 34q-8 4 -13 8q-3 2 -5.5 1.5t-4.5 -3t-1.5 -5t2.5 -4.5q7 -6 14 -10q2 -1 5 -1t4.5 3t1 6 t-2.5 5zM135 81v40h40q3 0 5 2t2 4.5t-2 5t-5 2.5h-40v40q0 3 -2 5t-5 2t-5 -2t-2 -5v-40h-40q-3 0 -5 -2t-2 -5t2 -5t5 -2h40v-40q0 -3 2 -5t5 -2t5 2t2 5z" />
</svg>