<svg viewBox="0 0 1024 1024" xmlns="http://www.w3.org/2000/svg">
  <path transform="scale(1, -1) translate(0, -960)" fill="currentColor" d="M64 448q0 16 1 31t4 30q0 7 -3.5 12.5t-11.5 6.5q-6 1 -11.5 -3t-5.5 -11q-3 -16 -4 -32.5t-1 -33.5v-1v-1q0 -7 4.5 -11.5t11.5 -4.5q7 2 11.5 6.5t4.5 11.5zM74 354q-2 7 -7 10.5t-13 1.5q-6 -1 -10 -6.5t-2 -12.5q3 -17 8 -32.5t11 -31.5q2 -5 6.5 -8t9.5 -3h2t3 2 q6 2 9 8t0 12q-5 15 -9.5 30t-7.5 30v0zM213 803q-5 5 -11.5 5t-11.5 -3q-12 -11 -23.5 -23t-22.5 -25q-5 -5 -4 -12t6 -11q2 -2 4.5 -2.5t4.5 -0.5q4 0 7.5 1.5t5.5 5.5q10 12 20.5 23t22.5 21q5 3 6 9.5t-4 11.5v0zM133 210q-4 6 -10.5 7t-12.5 -3q-6 -3 -7 -9.5t3 -12.5 q8 -14 18.5 -27.5t21.5 -26.5q2 -3 5.5 -5t6.5 -2t6 1t4 2q5 5 5.5 11.5t-3.5 11.5q-11 14 -20 26.5t-17 26.5zM70 590q2 0 3 -0.5t2 -0.5q5 0 9 3t6 8q4 14 11 28.5t14 29.5q4 6 2 12t-8 10t-12.5 2t-10.5 -8q-8 -15 -14.5 -30.5t-12.5 -30.5q-1 -7 2 -13.5t9 -9.5z M950 542q2 -6 6 -9t10 -3h2h2q6 1 10 6.5t2 12.5q-3 17 -8 32.5t-11 31.5q-2 6 -8.5 9t-12.5 0q-6 -2 -9 -8t0 -12q5 -14 9.5 -29t7.5 -31zM278 834h4.5t3.5 1q14 9 28 15l28 12q6 3 9 9t-1 12q-2 6 -8 9t-12 -1q-16 -6 -31 -13t-30 -16q-6 -3 -7.5 -9.5t0.5 -12.5 q5 -2 9 -4t7 -2zM589 890q15 -3 30.5 -6.5t30.5 -8.5h2h2q5 0 9.5 3.5t6.5 7.5q3 6 0 12.5t-9 8.5q-16 5 -32.5 9.5t-33.5 6.5q-7 0 -13 -4.5t-6 -11.5q-1 -6 2.5 -11t10.5 -6v0zM430 888h2h2q15 2 30.5 4t31.5 2q7 0 11.5 5t4.5 11t-5 11t-11 5q-17 -1 -33.5 -2.5 t-33.5 -3.5q-6 -1 -10 -6.5t-3 -12.5q0 -5 4 -9t10 -4v0zM590 6q-15 -2 -30.5 -4t-31.5 -2q-7 0 -11.5 -5t-4.5 -11t5 -11t11 -5v0v0q17 0 33.5 2t33.5 4q6 2 10 7t3 13q0 7 -6 10.5t-12 1.5zM856 160q-10 -12 -21 -23l-22 -22q-5 -5 -5 -11t3 -11q3 -3 6 -4t5 -1q3 0 6 1 t6 4q12 11 23.5 23t22.5 25q5 5 4 12t-6 10q-6 4 -12 3t-10 -6zM954 304q-6 2 -12.5 -1t-8.5 -9q-5 -14 -12 -28.5t-14 -28.5q-3 -6 -1 -12.5t8 -10.5q1 -1 3 -1h5q4 0 8 2t6 6q8 14 14.5 29.5t12.5 31.5q3 8 0 14t-9 8v0zM918 704q-8 14 -18.5 27.5t-21.5 26.5 q-4 5 -10.5 6t-11.5 -4t-5.5 -11.5t3.5 -10.5q10 -12 19.5 -25t17.5 -25q3 -4 6 -6t7 -2q2 0 4.5 0.5t3.5 2.5q6 3 8 9t-2 12v0zM976 466q-7 0 -11.5 -4.5t-4.5 -11.5v-2q0 -16 -1 -31.5t-4 -30.5q-1 -6 3 -12t12 -6h0.5h0.5q6 0 10.5 4t5.5 10q3 17 4 34t1 34v1 q0 6 -4.5 10.5t-11.5 4.5v0zM288 59q-13 7 -26 16.5t-25 18.5q-5 4 -12 3.5t-11 -6.5q-3 -5 -2.5 -12t6.5 -10q13 -11 27 -20t29 -17q2 -1 3.5 -1.5t4.5 -0.5t7.5 2.5t6.5 5.5q2 5 0 12t-8 9zM806 827q-13 11 -27 20t-29 17q-6 4 -12 2t-10 -8t-2 -12.5t8 -10.5 q14 -7 27 -16t25 -19q2 -1 4.5 -2t4.5 -1q4 0 7.5 1.5t5.5 4.5q5 6 4 13.5t-6 10.5zM736 61q-13 -9 -27.5 -15t-28.5 -12q-6 -3 -9 -9t-1 -12q3 -5 6.5 -7.5t8.5 -2.5q1 0 3 0.5t3 1.5q16 6 31.5 13t29.5 16q6 3 7.5 9.5t-1.5 12.5q-3 5 -9.5 6t-12.5 -1v0zM435 6 q-15 3 -30.5 6.5t-30.5 8.5q-6 2 -12 -1t-8 -9q-3 -6 0 -12t9 -9q16 -4 32.5 -8.5t33.5 -7.5h1.5h1.5q6 0 10.5 3.5t5.5 9.5q1 7 -3 12.5t-10 6.5v0zM528 259v173h173q7 0 11.5 4.5t4.5 11.5t-4.5 11.5t-11.5 4.5h-173v173q0 7 -4.5 11.5t-11.5 4.5t-11.5 -4.5t-4.5 -11.5 v-173h-173q-7 0 -11.5 -4.5t-4.5 -11.5t4.5 -11.5t11.5 -4.5h173v-173q0 -7 4.5 -11.5t11.5 -4.5t11.5 5t4.5 11z" />
</svg>