<svg viewBox="0 0 256 256" xmlns="http://www.w3.org/2000/svg">
  <path transform="scale(1, -1) translate(0, -256)" fill="currentColor" d="M197 236q-14 15 -35 15q-16 0 -28 -10l-6 -4l-5 5q-13 9 -28 9q-21 0 -35 -15q-7 -7 -10.5 -16.5t-3.5 -20.5q0 -21 16 -41q11 -12 38 -35l8 -7l-17 -8q-3 -1 -4 -4t0.5 -6t6.5 -3q2 0 2 1l20 9q2 0 3 2l2 -1q-4 -7 -3.5 -13.5t4 -13t0 -13t-3.5 -13.5t3.5 -13.5 t0.5 -12.5l-6 -11q-1 -3 -0.5 -5.5t2.5 -4t5 -1.5t5 4l6 10q4 6 4 13.5t-4 13.5t0 12.5t4 14t-4 13.5t0 13l4 6q0 -1 1 -1l20 -9q2 -1 3 -1q4 0 6 3.5t1 6t-4 3.5l-17 9l8 6q28 24 38 36q16 20 16 41.5t-13 36.5zM183 167q-9 -11 -37 -34l-17 -15q-2 -1 -2 0l-24 21 q-23 19 -30 28q-13 15 -13 31.5t10 27.5t25 11q10 0 19 -7q3 -2 6.5 -6t8 -4t7 3.5t6.5 6.5q8 7 19 7q15 0 25 -11t10 -27t-13 -32z" />
</svg>