<svg viewBox="0 0 1024 1024" xmlns="http://www.w3.org/2000/svg">
  <path transform="scale(1, -1) translate(0, -960)" fill="currentColor" d="M778 870q-26 28 -60.5 43t-72.5 15q-29 0 -55 -9t-49 -26q-7 -6 -14.5 -13t-14.5 -14q-7 7 -14.5 14t-14.5 13q-23 17 -49 26t-55 9q-38 0 -72 -15t-61 -43q-25 -27 -38.5 -62.5t-13.5 -76.5t15.5 -79t48.5 -78q27 -33 66.5 -67.5t85.5 -74.5q13 -11 27.5 -23.5 t29.5 -24.5l-62 -29q-6 -2 -8.5 -8.5t0.5 -12.5q2 -4 5.5 -6.5t8.5 -2.5h3t4 1l80 37v0v0q1 0 2 -0.5t2 -0.5l-4 -8q-14 -23 -14 -49t14 -49q8 -14 8 -32t-8 -32q-14 -23 -14 -49t14 -49q8 -14 8 -31.5t-8 -32.5l-24 -40q-4 -6 -2 -12t6 -10l4.5 -1.5t3.5 -0.5q4 0 8 2.5 t7 5.5l24 40q13 23 13 49t-13 49q-9 14 -9 32t9 32q13 23 13 49t-13 49q-9 14 -9 31.5t9 32.5l17 28l3 -1.5t2 -1.5l80 -37q1 -1 3 -1h4q4 0 8 2.5t6 6.5q2 6 0 12.5t-8 8.5l-77 35l26 22t24 22q45 38 84 72.5t68 67.5q32 39 48 77.5t16 79.5q1 41 -12.5 77t-38.5 62v0z M742 597q-26 -33 -64 -66t-83 -72q-15 -13 -33 -28t-36 -31q-4 -5 -12 -5t-13 5q-18 16 -35.5 31t-33.5 28q-46 39 -83.5 72t-63.5 66q-29 35 -42.5 68t-13.5 68q0 33 11.5 63.5t31.5 53.5q19 22 47 34t60 12q24 0 45 -7t40 -22q7 -6 14.5 -13t14.5 -14q3 -5 9 -7.5t12 -2.5 v0v0q6 0 11 2.5t9 7.5q6 7 13.5 14t15.5 13q17 15 38 22t44 7q31 0 59.5 -12t49.5 -34q21 -23 32 -53.5t11 -63.5q1 -36 -12.5 -69.5t-42.5 -66.5z" />
</svg>