<svg viewBox="0 0 256 256" xmlns="http://www.w3.org/2000/svg">
  <path transform="scale(1, -1) translate(0, -256)" fill="currentColor" d="M128 18q-8 0 -14 6l-27 23q-23 19 -32 28q-16 14 -25 25q-25 30 -25 61q0 15 5 29t15 25t23.5 16.5t28.5 5.5q22 0 41 -14q6 -5 10 -9q4 4 10 9q19 14 41 14q31 0 52 -22q10 -11 15 -25t5 -29q0 -31 -25 -61q-9 -11 -25 -25q-9 -9 -32 -28l-27 -23q-6 -6 -14 -6zM77 224 q-12 0 -23 -5t-18 -13q-17 -18 -17 -44t21 -52q9 -11 25 -25q9 -9 31 -27l28 -24q1 -1 4 -1t4 1l28 24q22 18 31 27q16 14 25 25q21 26 21 51.5t-16.5 44t-41.5 18.5q-18 0 -32 -12q-4 -2 -10 -10h-1q-3 -4 -8 -4t-8 4q-6 6 -11 10q-15 12 -32 12z" />
</svg>