<svg viewBox="0 0 256 256" xmlns="http://www.w3.org/2000/svg">
  <path transform="scale(1, -1) translate(0, -256)" fill="currentColor" d="M170 188h-1l-11 49q-1 6 -6 10t-12 4h-24q-7 0 -12 -4t-6 -10l-11 -49h-1q-10 0 -16.5 -7t-6.5 -17v-73q0 -10 6.5 -16.5t16.5 -6.5h1l11 -50q1 -6 6 -10t12 -4h24q7 0 12 4t6 10l11 50h1q10 0 17 6.5t7 16.5v74q-1 9 -7.5 16t-16.5 7zM112 234q0 3 4 3h24q4 0 4 -3 l11 -46h-54zM86 174h84q4 0 6.5 -3t2.5 -7v-39l-33 19q-3 2 -6 0l-33 -19l-30 17v22q0 4 2.5 7t6.5 3zM144 22q0 -3 -4 -3h-24q-4 0 -4 3l-11 46h53zM170 82h-84q-4 0 -6.5 3t-2.5 7v35l26 -15q4 -2 7 0l32 19l36 -21v-18q1 -4 -1.5 -7t-6.5 -3z" />
</svg>