<svg viewBox="0 0 1024 1024" xmlns="http://www.w3.org/2000/svg">
  <path transform="scale(1, -1) translate(0, -960)" fill="currentColor" d="M987 -5l-302 303q-1 1 -1.5 1h-1.5q50 55 75 123t24 138t-29 137q-27 67 -80 121q-55 54 -124 81q-69 28 -141 28t-141 -27q-69 -28 -124 -82q-54 -55 -82 -124q-27 -69 -27 -141t27 -141q28 -69 82 -124q56 -55 124 -82t140 -27q69 0 134.5 25t118.5 74q0 -1 1 -1.5 t1 -1.5l302 -302q3 -3 6 -4t5 -1q3 0 6 1t6 4q6 5 6 11t-5 11v0zM165 312q-50 50 -75 113t-25 128.5t25 128.5t75 113q49 51 112 76t129 25t129.5 -25t112.5 -76q50 -50 75 -113t25 -128.5t-25 -128.5t-75 -113t-113 -75t-128.5 -25t-128.5 25t-113 75zM482 707 q-18 0 -34 -5.5t-30 -16.5q-4 -3 -7 -5.5t-6 -5.5q-3 2 -6 5t-7 6q-14 11 -30 16.5t-34 5.5q-24 0 -45 -9t-37 -26q-15 -17 -23.5 -38.5t-8.5 -46.5t10 -47.5t29 -46.5q17 -19 39 -39.5t47 -42.5l2 -1q8 -8 18.5 -16t19.5 -18q5 -5 11 -7.5t13 -2.5q6 0 12.5 2.5t11.5 7.5 q11 10 21 18t19 16q27 22 49 42t39 39q19 23 29 46t10 49q0 24 -8.5 46t-23.5 38q-15 18 -35.5 27.5t-44.5 9.5v0zM533 515q-16 -18 -37.5 -37.5t-47.5 -40.5q-8 -7 -18.5 -16t-21.5 -18q-1 -1 -3 -1t-3 1q-11 10 -21 18.5t-19 15.5q-26 21 -48 40.5t-37 37.5 q-16 19 -23.5 37t-7.5 37q0 18 6 34t18 28q11 12 26 19t32 7q12 0 23.5 -4t21.5 -12q3 -4 7 -7.5t7 -7.5q6 -7 17 -7t17 7q3 4 7 8l7 7q10 7 21.5 11.5t23.5 4.5q17 0 32 -7t26 -19q10 -12 16 -28t6 -34q2 -19 -5 -37.5t-22 -36.5v0z" />
</svg>