<svg viewBox="0 0 256 256" xmlns="http://www.w3.org/2000/svg">
  <path transform="scale(1, -1) translate(0, -256)" fill="currentColor" d="M249 17l-75 74q17 19 22 43t-2 47.5t-25 41.5t-43 24.5t-49.5 0t-43 -25t-25 -43t0 -49.5t24.5 -44q14 -13 32 -20.5t36 -7.5t34 6t30 18l74 -75q2 -2 5 -2t5 2t2 5t-2 5zM43 96q-16 16 -21.5 37t0 42.5t21.5 37.5q12 12 27 18t31.5 6t31.5 -6t27 -18q16 -16 21.5 -37 t0 -42.5t-21.5 -37.5t-37.5 -21.5t-42.5 0t-37 21.5zM120 196q-9 0 -18 -6l-1 -1l-1 1q-8 6 -18 6q-13 0 -22 -9.5t-9 -23.5t10 -26q6 -7 23 -21l10 -8q3 -3 7 -3t9 3l14 12q13 11 18 17q10 13 10 26t-9 23t-23 10zM131 146q-5 -6 -21 -19l-9 -7l-11 9q-14 12 -18 17 q-7 8 -7 16.5t5 14t10.5 5.5t10.5 -4q2 -1 3.5 -3.5t6 -2.5t6.5 3l3 3q5 4 10 4q7 0 11.5 -5.5t5.5 -13.5t-6 -17z" />
</svg>