<svg viewBox="0 0 1024 1024" xmlns="http://www.w3.org/2000/svg">
  <path transform="scale(1, -1) translate(0, -960)" fill="currentColor" d="M907 904q-24 17 -49 22t-50 -1q-37 -10 -65 -37.5t-42 -47.5q-15 20 -42.5 47.5t-64.5 37.5q-26 6 -51 1t-49 -22q-36 -26 -51 -61q-14 -36 -15 -72.5t9 -70.5q9 -34 21 -57l4.5 -9.5t14.5 -23.5q-10 -11 -17.5 -22.5t-13.5 -19.5q-19 29 -60.5 73t-100.5 58 q-35 9 -70.5 1.5t-68.5 -31.5q-66 -46 -83 -110q-16 -64 -9.5 -123t22.5 -101l17 -42q2 -4 25 -45q23 -40 67 -93t109 -106q65 -52 151 -79h2h3h2h2q86 27 150 80q63 52 106 105t65 94q22 40 23 44q0 1 24 65.5t18 143.5q52 48 77.5 93.5t26.5 47.5q11 22 21 56q9 34 8.5 71 t-15.5 73q-14 35 -51 61zM770 306q-1 -1 -21 -39q-21 -37 -61 -87.5t-100 -101.5q-59 -51 -138 -78q-80 27 -141 78q-60 51 -102 101.5t-63 88.5q-22 38 -22 39q-1 1 -16 38q-15 38 -21.5 90.5t7.5 110.5q14 57 71 97q21 15 42 22t43 7q7 0 14.5 -1t14.5 -2 q68 -17 111 -77.5t44 -61.5q4 -8 14 -8t15 8q0 1 43.5 61.5t111.5 77.5q29 7 57.5 0t56.5 -26q57 -40 70 -97q14 -58 7.5 -111t-22.5 -90q-15 -38 -15 -39zM915 656l-20.5 -36.5t-60.5 -78.5q-9 36 -29.5 68.5t-58.5 59.5q-34 24 -69.5 31.5t-70.5 -1.5q-32 -7 -59.5 -25.5 t-48.5 -39.5q-6 10 -9.5 16l-3.5 6q-1 2 -11 28q-11 25 -15 59t6 71q9 37 47 63q18 13 36 17t38 -1q44 -11 72 -51l28 -40q3 -4 6.5 -6t8.5 -2v0v0q5 0 8.5 2t5.5 6l28.5 40t72.5 51q18 5 36 0.5t38 -16.5q37 -26 46 -63t5 -71t-14 -59q-11 -26 -12 -28z" />
</svg>