<svg viewBox="0 0 1024 1024" xmlns="http://www.w3.org/2000/svg">
  <path transform="scale(1, -1) translate(0, -960)" fill="currentColor" d="M680 675h-14l-47 207q-3 20 -19.5 33t-37.5 13h-100q-21 0 -37.5 -13t-21.5 -33l-46 -207h-13q-34 0 -57 -23t-23 -57v-294q0 -34 23 -57t57 -23h13l46 -207q5 -20 21.5 -33t37.5 -13h100q21 0 37.5 13t21.5 33l46 207h15q33 0 56.5 23t23.5 57v294q-2 33 -25 56.5 t-57 23.5v0zM435 874q1 9 9 15.5t18 6.5h100q9 0 16.5 -6.5t10.5 -15.5l45 -200h-244l45 200v0zM344 643h336q20 0 34 -13.5t14 -34.5v-177l-149 84q-3 3 -7.5 3t-8.5 -3l-136 -78l-131 75v95q0 20 14 34.5t34 14.5v0zM589 22q-3 -9 -10.5 -15.5t-16.5 -6.5h-100 q-9 0 -16.5 6.5t-10.5 15.5l-45 200h244zM680 253h-336q-20 0 -34 13.5t-14 34.5v163l123 -70q4 -3 8.5 -3t7.5 3l136 78l157 -90v-80q0 -20 -14 -34.5t-34 -14.5v0z" />
</svg>