<svg viewBox="0 0 1024 1024" xmlns="http://www.w3.org/2000/svg">
  <path transform="scale(1, -1) translate(0, -960)" fill="currentColor" d="M914 789q-39 41 -90 63t-107 22q-43 0 -82 -13.5t-73 -39.5q-14 -11 -26.5 -23t-21.5 -25q-11 13 -24 25.5t-26 22.5q-35 26 -73.5 39.5t-81.5 13.5q-58 0 -108.5 -22t-88.5 -63q-37 -41 -57.5 -94.5t-20.5 -113.5q0 -61 23 -119t73 -116q43 -52 102 -105t130 -111 q24 -21 50 -43.5t55 -46.5q10 -8 21.5 -13t25.5 -5q13 0 24.5 5t21.5 13q28 24 55 46.5t51 43.5q70 60 129 112.5t103 103.5q49 58 72.5 115t23.5 120q-2 60 -22 113.5t-58 94.5v0zM872 366q-42 -49 -100.5 -100.5t-128.5 -111.5q-24 -21 -51 -43.5t-54 -46.5 q-11 -10 -26 -10t-26 10q-27 24 -54 47t-51 43q-70 58 -128.5 110.5t-100.5 101.5q-44 54 -66 107t-22 108q0 54 17.5 101.5t51.5 83.5q33 36 78.5 56t95.5 20q37 0 71.5 -12t64.5 -35q12 -9 23 -20t22 -23q5 -6 11 -8.5t13 -2.5v0v0q7 0 13 3t11 8q10 12 21.5 23t23.5 20 q30 23 64.5 35t71.5 12q50 0 95.5 -20t78.5 -56q34 -36 51.5 -83.5t17.5 -101.5q0 -55 -22 -108t-66 -107v0z" />
</svg>