<svg viewBox="0 0 1024 1024" xmlns="http://www.w3.org/2000/svg">
  <path transform="scale(1, -1) translate(0, -960)" fill="currentColor" d="M938 306v411q0 26 -19 45t-45 19h-724q-26 0 -45 -19t-19 -45v-410q-22 -5 -38 -22.5t-16 -41.5v-62q0 -27 19 -45.5t45 -18.5h832q26 0 45 18.5t19 45.5v62q0 24 -16 41.5t-38 21.5zM118 501h173q4 0 7.5 2t5.5 4l58 80l86 -155q2 -4 5.5 -6t7.5 -2v0v0q3 0 6.5 2t6.5 4 l54 82h373v0v0v-208h-783v197v0zM150 749h722q13 0 22.5 -9.5t9.5 -22.5v-170v0v0h-381q-3 0 -6.5 -2t-6.5 -4l-44 -67l-87 153q-2 4 -5.5 6t-7.5 2q-3 0 -7.5 -1.5t-6.5 -4.5l-67 -95h-167v183q0 13 9.5 22.5t22.5 9.5v0zM960 179q0 -13 -9.5 -22.5t-22.5 -9.5h-832 q-13 0 -22.5 9.5t-9.5 22.5v63q0 13 9.5 22.5t22.5 9.5h832q13 0 22.5 -9.5t9.5 -22.5v-63z" />
</svg>