<svg viewBox="0 0 256 256" xmlns="http://www.w3.org/2000/svg">
  <path transform="scale(1, -1) translate(0, -256)" fill="currentColor" d="M228 244q-13 9 -27 6t-26 -19q-12 16 -26.5 19.5t-27.5 -6.5q-17 -12 -18 -35q0 -17 8 -34l4 -7l-4 -5q-19 26 -39 30.5t-37.5 -7.5t-22.5 -32q-5 -16 -1 -36q3 -17 9 -30l1 -1q10 -20 25 -37q29 -33 64 -45h2h2q36 12 64 46q15 18 24 36v1q5 11 8 23q4 15 3 29 q16 16 25 35v0q9 16 8 34q0 23 -18 35zM190 94l-1 -1q-9 -17 -22 -33q-25 -30 -55 -40q-32 11 -58 43q-13 16 -21 31v0q-7 14 -9 32q-4 32 19 48q10 7 19 7l7 -1q12 -3 24 -16q7 -7 12 -17h1q1 -4 5 -4t7 4q0 1 4 7q6 9 13 15q10 9 19 11q13 3 26 -6q17 -11 19 -31l1 -2 q1 -14 -4 -32q-4 -11 -6 -15zM226 181q-2 -4 -4 -7q-6 -9 -12 -17q-6 18 -22 28q-18 13 -37 8q-13 -3 -26 -14l-1 2q-5 9 -6 21q-3 21 12 30q7 6 15 4t15 -10q6 -6 8 -10.5t6 -4.5t6 4q4 6 9 11q7 8 14.5 10t16.5 -4q15 -9 12 -30q-1 -11 -6 -21z" />
</svg>