<svg viewBox="0 0 256 256" xmlns="http://www.w3.org/2000/svg">
  <path transform="scale(1, -1) translate(0, -256)" fill="currentColor" d="M243 63l-57 137q-1 3 -2.5 4t-4.5 1h-31q-2 0 -4 -1t-3 -4l-58 -138q-2 -4 0.5 -7t6.5 -3h20q3 0 5 1.5t3 2.5l9 24h71l8 -24q2 -4 8 -4h21q6 0 8 3.5t0 7.5zM142 109l21 53l20 -53h-41zM50 171q2 -2 4.5 -2t5 2.5t2 5t-2.5 5.5l-21 19q-2 2 -4.5 2t-5.5 -2l-21 -19 q-2 -3 -2 -5.5t2 -5t5 -2.5t5 2l9 9v-104l-9 9q-2 2 -5 2t-5 -2.5t-2 -5t2 -5.5l21 -19q2 -2 4.5 -2t5.5 2l21 19q2 3 2.5 5.5t-2 5t-5 2.5t-4.5 -2l-10 -9v104z" />
</svg>