<svg viewBox="0 0 1024 1024" xmlns="http://www.w3.org/2000/svg">
  <path transform="scale(1, -1) translate(0, -960)" fill="currentColor" d="M973 189l-229 547q-5 12 -10 15.5t-17 3.5h-123q-9 0 -16.5 -2.5t-14.5 -16.5l-230 -552q-7 -14 1.5 -28t25.5 -14h80q12 0 20 7t10 13l39 96h281l36 -96q3 -12 12.5 -16t17.5 -4h85q24 2 31.5 16t0.5 31v0zM568 371l83 215l80 -215h-163zM206 629q3 -3 5.5 -4t6.5 -1 q3 0 5.5 1t5.5 4q5 5 4 11t-6 11l-85 77q-4 4 -10.5 4t-9.5 -4l-85 -77q-5 -5 -5 -11t3 -11q5 -5 11.5 -5t11.5 3l57 53v-467l-57 53q-5 4 -11.5 3.5t-11.5 -5.5t-4 -11.5t6 -10.5l85 -77q2 -3 4.5 -4t6.5 -1q3 0 6 1t5 4l85 77q5 4 5 10.5t-4 11.5t-10.5 5t-11.5 -3 l-58 -53v469l56 -53v0z" />
</svg>