<svg viewBox="0 0 1024 1024" xmlns="http://www.w3.org/2000/svg">
  <path transform="scale(1, -1) translate(0, -960)" fill="currentColor" d="M976 590q-7 0 -11.5 -4t-4.5 -12v-25h-390v54q0 12 -8.5 20.5t-20.5 8.5h-183v136h236q7 0 11.5 4.5t4.5 11.5t-4.5 11.5t-11.5 4.5h-504q-8 0 -12 -4.5t-4 -11.5t4 -11.5t12 -4.5h235v-136h-181q-46 0 -79 -32.5t-33 -79.5v-229q0 -12 8.5 -20.5t20.5 -8.5h97v-136h-62 q-8 0 -14.5 5.5t-6.5 12.5t-4.5 11.5t-11.5 4.5t-11.5 -4.5t-4.5 -11.5q0 -20 15.5 -35t37.5 -15h416q7 0 11.5 4.5t4.5 11.5q0 8 -4.5 12t-11.5 4h-110v136h139q12 0 20.5 8.5t8.5 20.5v53l390 43v-24q0 -7 4.5 -11.5t11.5 -4.5t11.5 4.5t4.5 11.5v211q0 8 -4.5 12t-11.5 4 v0zM370 126h-180v136h180v-136zM538 296h-474v226q0 32 23 56t57 24h395v-306h-1zM570 378v139h390v-96l-390 -43v0z" />
</svg>