<svg viewBox="0 0 256 256" xmlns="http://www.w3.org/2000/svg">
  <path transform="scale(1, -1) translate(0, -256)" fill="currentColor" d="M244 167q-3 0 -5 -2t-2 -5v-4h-91v11q0 4 -3.5 7t-7.5 3h-43v28h56q3 0 5.5 2t2.5 5t-2.5 5t-5.5 2h-126q-3 0 -5 -2t-2 -5t2 -5t5 -2h56v-28h-42q-13 0 -22 -9t-9 -22v-57q0 -4 3 -7.5t8 -3.5h21v-28h-13l-2 1v1q0 3 -2.5 5t-5.5 2t-4.5 -2t-1.5 -5q0 -6 5 -10.5 t11 -4.5h104q3 0 5.5 2t2.5 5t-2.5 5t-5.5 2h-25v28h32q4 0 7.5 3t3.5 7v11l91 10v-3q0 -3 2 -5t5 -2t5.5 2t2.5 5v53q-1 3 -3 5t-5 2zM89 51h-39v28h39v-28zM132 93h-113v53q0 7 5 12t12 5h96v-70zM146 114v28h91v-18z" />
</svg>