<svg viewBox="0 0 256 256" xmlns="http://www.w3.org/2000/svg">
  <path transform="scale(1, -1) translate(0, -256)" fill="currentColor" d="M235 93q-1 27 -9 43q-10 22 -29 38t-43 22q-2 5 -7.5 9t-12.5 4h-13q-6 0 -11.5 -3.5t-8.5 -9.5q-21 -5 -39 -20.5t-29 -37.5t-13 -45q-6 -1 -10.5 -6t-4.5 -12v-9q0 -8 5 -13t13 -5h210q7 0 12.5 5t5.5 13v9q0 7 -4.5 12t-11.5 6zM100 181v-21q0 -3 2 -5.5t5 -2.5t5 2.5 t2 5.5v28q0 3 2.5 5t5.5 2h13q3 0 5 -2t2 -5v-28q0 -3 2.5 -5.5t5.5 -2.5t5 2.5t2 5.5v20q18 -6 33 -19t24 -31q6 -13 8 -37h-44v6q0 3 -2 5t-5 2t-5 -2t-2 -5v-6h-28v17q0 3 -2.5 5t-5.5 2t-5 -2t-2 -5v-17h-28v6q0 3 -2 5t-5 2t-5 -2t-2 -5v-6h-45q2 29 21 54t45 34z M237 65q0 -4 -4 -4h-210q-4 0 -4 4v10q0 4 4 4h210q4 0 4 -4v-10z" />
</svg>