<svg viewBox="0 0 1024 1024" xmlns="http://www.w3.org/2000/svg">
  <path transform="scale(1, -1) translate(0, -960)" fill="currentColor" d="M928 325h-18v11v11q0 85 -31 161q-31 75 -85.5 131t-127.5 88q-73 33 -156 33q-82 0 -155 -33q-73 -32 -127.5 -88t-85.5 -131q-32 -76 -32 -161v-11v-11h-14q-26 0 -45 -19t-19 -45v-63q0 -26 19 -45t45 -19h832q26 0 45 19t19 45v63q0 27 -19 45.5t-45 18.5zM144 347 q0 55 15 106q14 51 40.5 94.5t62.5 78.5q37 35 80 59v-101q0 -7 4.5 -11.5t11.5 -4.5q8 0 12 4.5t4 11.5v115q28 12 58.5 19t61.5 8v-180q0 -8 4.5 -12t11.5 -4q8 0 12 4t4 12v182q33 -1 63 -8t57 -19v-115q0 -8 4.5 -12t11.5 -4q8 0 12 4t4 12v100q45 -24 81 -59 q37 -35 63 -78.5t40 -93.5q15 -51 15 -106v-11.5v-11.5h-731q0 5 -1 10.5t-1 10.5v0zM960 200q0 -13 -9.5 -22.5t-22.5 -9.5h-832q-13 0 -22.5 9.5t-9.5 22.5v62q0 14 9.5 23t22.5 9h832q13 0 22.5 -9t9.5 -23v-62z" />
</svg>