<svg viewBox="0 0 256 256" xmlns="http://www.w3.org/2000/svg">
  <path transform="scale(1, -1) translate(0, -256)" fill="currentColor" d="M232 100h-1v3q0 29 -14 53t-37.5 38.5t-51.5 14.5t-51.5 -14.5t-37.5 -38.5t-14 -53v-3h-1q-8 0 -13.5 -5.5t-5.5 -13.5v-15q0 -8 5.5 -14t13.5 -6h208q8 0 13.5 6t5.5 14v15q0 8 -5.5 13.5t-13.5 5.5zM39 103q0 25 12 46t32 33v-20q0 -3 2 -5t5 -2t5 2t2 5v27q12 4 24 5 v-42q0 -3 2 -5t5 -2t5.5 2t2.5 5v43q13 -2 24 -6v-27q0 -3 2 -5t5 -2t5 2t2 5v20q20 -12 32 -33t12 -46v-2h-179v2zM237 66q0 -2 -1.5 -3.5t-3.5 -1.5h-208q-2 0 -3.5 1.5t-1.5 3.5v16q0 2 1.5 3.5t3.5 1.5h208q2 0 3.5 -1.5t1.5 -3.5v-16z" />
</svg>