<svg viewBox="0 0 1024 1024" xmlns="http://www.w3.org/2000/svg">
  <path transform="scale(1, -1) translate(0, -960)" fill="currentColor" d="M931 296h-3q0 18 -6.5 74t-30.5 105q-20 44 -50 82q-29 37 -65.5 67t-78.5 52q-43 21 -89 33q-7 21 -27 36t-45 15h-51q-25 0 -44 -14t-27 -36q-65 -15 -123 -54q-58 -40 -101.5 -96t-68.5 -125q-26 -68 -28 -139v0q-25 0 -43 -18t-18 -43v-38q0 -25 18 -43t43 -18h840 q25 0 43 18t18 43v38q-2 25 -20 43t-43 18v0zM411 675v-101q0 -7 4.5 -11.5t11.5 -4.5t11.5 4.5t4.5 11.5v114q0 17 12.5 28.5t30.5 11.5h52q18 0 30.5 -11.5t12.5 -28.5v-114q0 -7 4.5 -11.5t11.5 -4.5t11.5 4.5t4.5 11.5v101q41 -11 78 -31t69.5 -47.5t58.5 -61.5t45 -73 q18 -38 25 -86t9 -78h-202v38q0 7 -4.5 11.5t-11.5 4.5t-11.5 -4.5t-4.5 -11.5v-38h-136v80q0 7 -4.5 11.5t-11.5 4.5t-11.5 -4.5t-4.5 -11.5v-80h-136v38q0 7 -4.5 11.5t-11.5 4.5t-11.5 -4.5t-4.5 -11.5v-38h-203q2 64 25 125q22 61 61 112t90 88t110 52v0zM960 197 q0 -12 -8.5 -20.5t-20.5 -8.5h-838q-12 0 -20.5 8.5t-8.5 20.5v38q0 12 8.5 20.5t20.5 8.5h840q12 0 20.5 -8.5t8.5 -20.5v-38h-2z" />
</svg>