<svg viewBox="0 0 1024 1024" xmlns="http://www.w3.org/2000/svg">
  <path transform="scale(1, -1) translate(0, -960)" fill="currentColor" d="M710 742q-7 71 -59.5 123t-124.5 61q-66 8 -123.5 -22.5t-88.5 -89.5q-4 -6 -2 -12t8 -8q6 -4 12 -2t9 8q26 49 75 75.5t106 20.5q61 -8 105 -52t50 -103q6 -57 -21.5 -106t-77.5 -73q-44 -21 -69.5 -62.5t-25.5 -89.5v-221q0 -7 4.5 -11.5t11.5 -4.5t11.5 4.5t4.5 11.5 v219q0 40 21 74t54 49q63 29 95.5 87t24.5 124zM501 66q-17 0 -28.5 -12t-11.5 -28q0 -17 11.5 -28.5t28.5 -11.5t28.5 11.5t11.5 28.5q1 15 -11 27.5t-29 12.5v0z" />
</svg>