<svg viewBox="0 0 1024 1024" xmlns="http://www.w3.org/2000/svg">
  <path transform="scale(1, -1) translate(0, -960)" fill="currentColor" d="M976 541q-42 0 -72 -30.5t-30 -72.5v-16h-108v29q0 42 16 78q16 37 43 64.5t64 43.5t79 16q7 0 11.5 4.5t4.5 11.5t-4.5 11.5t-11.5 4.5q-48 0 -90 -18q-43 -19 -75 -50.5t-50 -74.5q-19 -42 -19 -91v-29h-304v178q0 50 -31 89.5t-79 51.5l90 93q4 4 4 10.5t-4 11.5 q-5 5 -11.5 5t-11.5 -5l-85 -88v114q0 7 -4 11.5t-12 4.5q-7 0 -11.5 -4.5t-4.5 -11.5v-114l-84 88q-5 5 -11.5 5t-11.5 -5t-5 -11.5t5 -10.5l90 -93q-46 -11 -77 -48t-34 -85h-94q-7 0 -11.5 -4.5t-4.5 -11.5t4.5 -11.5t11.5 -4.5h94v-195q0 -79 30 -149t82 -122t122 -82 t149 -30t149 30q69 30 121 82t82 122t30 149v25v0v0v0v0v31q0 29 21 49.5t50 20.5q7 0 11.5 4.5t4.5 11.5t-5.5 12.5t-12.5 5.5v0zM874 381q0 -73 -28 -137q-27 -63 -75 -111t-111 -75q-64 -28 -137 -28q-72 0 -136 28q-64 27 -111.5 75t-75.5 111q-27 64 -27 137v219 q0 47 32.5 79.5t79.5 32.5t79.5 -32.5t32.5 -79.5v-194q0 -3 1 -5.5t4 -5.5q2 -2 4.5 -3.5t6.5 -1.5h459v-9h2z" />
</svg>