<svg viewBox="0 0 256 256" xmlns="http://www.w3.org/2000/svg">
  <path transform="scale(1, -1) translate(0, -256)" fill="currentColor" d="M244 154q-12 0 -20 -8.5t-8 -19.5v-1h-21v4q0 20 13.5 33.5t33.5 13.5q3 0 5 2.5t2 5.5t-2 5t-5 2q-17 0 -31 -8.5t-22 -22.5t-8 -30v-5h-70v41q0 13 -7 23t-18 14l19 19q2 3 2 5.5t-2 4.5t-5 2.5t-5 -2.5l-16 -16v20q0 3 -2 5.5t-5 2.5t-5.5 -2.5t-2.5 -5.5v-20l-16 16 q-2 2 -4.5 2.5t-5 -2t-2.5 -5t2 -5.5l20 -19q-10 -4 -17 -12.5t-8 -19.5h-21q-3 0 -5 -2t-2 -5t2 -5t5 -2h20v-46q0 -27 13.5 -49.5t36 -35.5t49.5 -13t49.5 13t35.5 35.5t13 49.5v14q0 6 4.5 10.5t10.5 4.5q3 0 5 2t2 5t-2 5t-5 2zM131 27q-23 0 -42 11.5t-30.5 30.5 t-11.5 42v55q0 10 7.5 17.5t18 7.5t17.5 -7t7 -18v-48q0 -3 2 -5t5 -2h112q0 -23 -11.5 -42.5t-31 -30.5t-42.5 -11z" />
</svg>