<svg viewBox="0 0 1024 1024" xmlns="http://www.w3.org/2000/svg">
  <path transform="scale(1, -1) translate(0, -960)" fill="currentColor" d="M845 838l-136 79q-18 11 -40 11t-40 -11l-136 -79q-19 -10 -29.5 -29t-10.5 -41v-157q0 -21 11 -40t29 -30l136 -79q9 -4 19 -7.5t21 -3.5t20.5 2.5t19.5 8.5l136 79q19 11 29.5 30t10.5 40v157q0 23 -11 41.5t-29 28.5zM853 613q0 -13 -6.5 -24.5t-17.5 -17.5l-136 -78 q-11 -6 -24 -6t-24 6l-136 78q-11 6 -17.5 17.5t-6.5 24.5v157q0 13 6.5 24t17.5 17l136 79q6 3 12 4.5t12 1.5t12 -1.5t12 -4.5l136 -79q11 -6 17.5 -17t6.5 -24v-157zM533 354l-136 78q-18 11 -40 11t-40 -11l-136 -78q-19 -11 -29.5 -30t-10.5 -41v-157q0 -21 11 -40 t29 -30l136 -78q9 -5 19 -8.5t21 -3.5t20.5 3t19.5 9l136 78q19 11 29.5 30t10.5 40v157q0 22 -10.5 41t-29.5 30zM541 126q0 -13 -6.5 -24t-17.5 -17l-136 -79q-11 -6 -24 -6t-24 6l-136 79q-11 6 -17.5 17t-6.5 24v157q0 13 6.5 24.5t17.5 17.5l136 78q6 4 12 5.5t12 1.5 t12 -1.5t12 -5.5l136 -78q11 -6 17.5 -17.5t6.5 -24.5v-157v0z" />
</svg>