<svg viewBox="0 0 256 256" xmlns="http://www.w3.org/2000/svg">
  <path transform="scale(1, -1) translate(0, -256)" fill="currentColor" d="M212 228l-34 20q-5 3 -11 3t-12 -3l-34 -20q-5 -3 -8 -8t-3 -12v-39q0 -6 3 -11.5t8 -8.5l34 -19q6 -4 12 -4t11 4l34 19q6 3 9 8.5t3 11.5v39q0 6 -3 11.5t-9 8.5zM210 169q0 -5 -4 -8l-34 -19q-5 -3 -10 0l-34 19q-4 3 -4 8v39q0 6 4 8l34 20q2 1 4.5 1t4.5 -1l34 -20 q4 -2 4 -8v-39h1zM135 107l-34 19q-6 3 -12 3t-11 -3l-34 -19q-6 -3 -9 -8.5t-3 -11.5v-39q0 -7 3 -12t9 -8l34 -20q5 -3 11 -3t12 3l34 20q5 3 8 8t3 12v39q0 6 -3 11.5t-8 8.5zM132 48q0 -6 -4 -8l-34 -20q-5 -3 -9 0l-35 20q-4 3 -4 8v39q0 6 4 8l34 20q3 1 5 1t4 -1 l34 -20q5 -2 5 -8v-39z" />
</svg>