<svg viewBox="0 0 256 256" xmlns="http://www.w3.org/2000/svg">
  <path transform="scale(1, -1) translate(0, -256)" fill="currentColor" d="M128 251q-33 0 -61.5 -16.5t-45 -45t-16.5 -61.5t16.5 -61.5t45 -45t61.5 -16.5t61.5 16.5t45 45t16.5 61.5t-16.5 61.5t-45 45t-61.5 16.5zM128 19q-29 0 -54 14.5t-40 39.5t-15 55t15 54.5t39.5 39.5t54.5 15t55 -15t39.5 -40t14.5 -54.5t-14.5 -54.5t-39.5 -39.5 t-55 -14.5zM183 172l-44 26q-5 2 -11 2t-11 -2l-44 -26q-11 -6 -11 -19v-51q0 -5 3 -10t8 -8l44 -26q5 -3 11 -3t11 3l44 26q11 6 11 19v51q0 5 -3 10t-8 8zM180 102q0 -4 -4 -6l-44 -26q-4 -1 -8 0l-44 26q-4 2 -4 6v52q0 4 4 6l44 26h4h4l44 -26q4 -2 4 -6v-52z" />
</svg>