<svg viewBox="0 0 1024 1024" xmlns="http://www.w3.org/2000/svg">
  <path transform="scale(1, -1) translate(0, -960)" fill="currentColor" d="M726 614l-177 103q-17 9 -37 9t-37 -9l-177 -103q-17 -9 -27 -26.5t-10 -37.5v-203q0 -20 10 -37t27 -27l177 -102q9 -5 18 -7.5t19 -2.5t19 2.5t18 7.5l177 102q17 10 27 27.5t10 36.5v203q0 20 -10 37t-27 27v0zM731 346q0 -11 -5.5 -21t-15.5 -16l-177 -101 q-10 -6 -21 -6t-21 6l-177 102q-10 6 -15.5 15.5t-5.5 21.5v203q0 11 5.5 21t15.5 16l177 101q5 2 10.5 3.5t10.5 1.5t10.5 -1.5t10.5 -3.5l177 -102q10 -6 15.5 -15.5t5.5 -21.5v-203v0zM512 928q-99 0 -186 -38q-88 -38 -153 -103t-103 -153q-38 -87 -38 -186t38 -186 q38 -88 103 -153t153 -103q87 -38 186 -38t186 38q88 38 153 103t103 153q38 87 38 186t-38 186q-38 88 -103 153t-153 103q-87 38 -186 38zM512 0q-92 0 -174 35q-81 36 -142 97t-97 142q-35 82 -35 174t35 174q36 81 96.5 142t142.5 97q82 35 174 35t174 -35 q81 -36 142 -96.5t97 -142.5q35 -82 35 -174t-35 -174q-36 -81 -96.5 -142t-142.5 -97q-82 -35 -174 -35z" />
</svg>