<svg viewBox="0 0 1024 1024" xmlns="http://www.w3.org/2000/svg">
  <path transform="scale(1, -1) translate(0, -960)" fill="currentColor" d="M205 125q41 0 69 29t28 68q0 41 -28 69.5t-69 28.5t-69.5 -29t-28.5 -69q0 -39 28.5 -68t69.5 -29v0zM205 290q27 0 46 -20t19 -46t-19 -46t-46 -20q-28 0 -47 19t-19 47t19 47t47 19v0zM206 66q-48 0 -92.5 -18.5t-76.5 -52.5q-5 -5 -5 -11t5 -11t11 -5t11 5 q28 29 66.5 45t79.5 16t79.5 -16t65.5 -45q3 -3 6 -4t6 -1t5.5 1t5.5 4q5 5 5 11t-5 11q-30 34 -74.5 52.5t-92.5 18.5v0zM718 224q0 -41 28.5 -69.5t69.5 -28.5t69.5 29t28.5 69q0 41 -28.5 69.5t-69.5 28.5t-69.5 -29t-28.5 -69zM882 224q0 -28 -19 -47t-47 -19t-47 20 t-19 46t19 46t47 20t47 -20t19 -46zM987 -5q-32 34 -76.5 52.5t-92.5 18.5t-93 -18.5t-77 -52.5q-5 -5 -5 -11t5 -11t11.5 -5t10.5 5q28 29 66.5 45t79.5 16q42 0 80 -16t66 -45q2 -3 5 -4t6 -1t6 1t5 4q6 5 7 11t-4 11v0zM406 635v0v0h180q50 0 85 35.5t35 84.5 q0 23 -8.5 44t-23.5 38q-14 14 -31 23.5t-37 13.5q-10 16 -25.5 28t-33.5 20q-8 3 -17.5 4.5t-19.5 1.5q-45 0 -78.5 -31.5t-36.5 -75.5q-33 -5 -56.5 -31t-23.5 -62q-1 -38 26 -65.5t65 -27.5v0zM406 789h4q7 0 11.5 4.5t4.5 11.5v6q0 35 25 60t59 25q8 0 15 -1t13 -4 q14 -5 26 -15t20 -25q2 -3 5 -5.5t8 -2.5q14 -1 28 -8t25 -19q12 -12 18 -28t6 -33q0 -36 -26 -62t-62 -26h-180q-25 0 -42.5 18t-17.5 43t17.5 43t42.5 18v0zM206 392q8 0 12 4.5t4 11.5v62h581v-62q0 -7 4.5 -11.5t11.5 -4.5t11.5 4.5t4.5 11.5v78q0 8 -4.5 12t-11.5 4 h-291v47q0 7 -4.5 11.5t-11.5 4.5t-11.5 -4.5t-4.5 -11.5v-47h-290q-7 0 -11.5 -4t-4.5 -12v-78q0 -6 4.5 -11t11.5 -5v0z" />
</svg>