<svg viewBox="0 0 256 256" xmlns="http://www.w3.org/2000/svg">
  <path transform="scale(1, -1) translate(0, -256)" fill="currentColor" d="M51 44q12 0 20 8.5t8 19.5t-8 19.5t-19.5 8.5t-19.5 -8.5t-8 -19.5t8 -19.5t19 -8.5zM51 85q6 0 10 -4t4 -9.5t-4 -9.5t-9.5 -4t-9.5 4t-4 9.5t4 9.5t9 4zM52 35q-13 0 -24.5 -4.5t-20.5 -13.5q-2 -2 -2 -5t2 -5t5 -2t5 2q7 6 16 10t18.5 4t18.5 -4t16 -10q2 -2 5 -2t5 2 t2 5t-2 5q-8 9 -20 13.5t-24 4.5zM176 72q0 -11 8.5 -19.5t19.5 -8.5t19.5 8.5t8.5 19.5t-8.5 19.5t-19.5 8.5t-19.5 -8.5t-8.5 -19.5zM218 72q0 -6 -4 -10t-10 -4t-10 4t-4 10t4 10t10 4t10 -4.5t4 -9.5zM249 17q-9 9 -20.5 13.5t-24 4.5t-24.5 -4.5t-20 -13.5q-2 -2 -2 -5 t2 -5t5 -2t5 2q7 6 16 10t18.5 4t18.5 -4t16 -10q1 -2 4.5 -2t5.5 2t2 5t-2 5zM102 172h44q14 0 24 9.5t10 23t-8.5 22t-17.5 10.5q-7 9 -16 12q-5 2 -10 2q-12 0 -21 -7.5t-11 -19.5q-9 -2 -14.5 -9t-5.5 -17.5t7.5 -18t18.5 -7.5zM102 210v0q3 0 5.5 2.5t2.5 5.5v1 q0 7 5 12.5t13 5.5q2 0 5 -1q7 -3 10 -8q2 -4 5 -4q7 -1 12 -6.5t5 -13t-5.5 -13t-13.5 -5.5h-44q-6 0 -9 3.5t-3 8.5t3 8.5t9 3.5zM52 111q3 0 5 2t2 5v13h139v-13q0 -3 2 -5t5 -2t5 2t2 5v20q0 3 -2 5t-5 2h-70v9q0 3 -2 5t-5 2t-5 -2t-2 -5v-9h-69q-3 0 -5.5 -2t-2.5 -5 v-20q0 -3 2.5 -5t5.5 -2z" />
</svg>