<svg viewBox="0 0 1024 1024" xmlns="http://www.w3.org/2000/svg">
  <path transform="scale(1, -1) translate(0, -960)" fill="currentColor" d="M803 162q-6 0 -12 -1t-12 -3l-85 173h2q12 0 20.5 8.5t8.5 20.5v88q0 65 -46 110t-109 45h-112q-65 0 -110.5 -45.5t-45.5 -109.5v-88q0 -12 8.5 -20.5t20.5 -8.5h2l-85 -173q-6 2 -12 3t-12 1q-37 0 -63.5 -26.5t-26.5 -63.5t26.5 -63.5t63.5 -26.5t63.5 26.5t26.5 63.5 q0 22 -10 41t-27 31l91 187h128v-187q-31 -6 -52.5 -30t-21.5 -58q0 -37 26.5 -63.5t63.5 -26.5t63.5 26.5t26.5 63.5q0 32 -21.5 57t-52.5 31v187h131l91 -187q-16 -12 -26 -30.5t-10 -41.5q0 -37 26 -63.5t63 -26.5t63.5 26.5t26.5 63.5t-26.5 63.5t-63.5 26.5v0zM221 14 q-24 0 -41 17t-17 41t17 41t41 17t40.5 -17t16.5 -41t-16.5 -41t-40.5 -17v0zM570 58q0 -24 -17 -41t-41 -17t-41 17t-17 41t17 40.5t41 16.5t41 -17.5t17 -39.5zM333 448q0 52 36.5 87.5t86.5 35.5h112q52 0 87.5 -36.5t35.5 -86.5v-85h-24v0h-1h-154v0v0v0v0h-155h-0.5 h-1.5h-24v85h2zM803 14q-24 0 -40.5 17t-16.5 41t16.5 41t40.5 17t41 -17t17 -41t-17 -41t-41 -17zM512 694q50 0 85 34.5t35 82.5t-35 82.5t-85 34.5t-85 -34.5t-35 -82.5t35 -82.5t85 -34.5zM512 896q37 0 62.5 -25t25.5 -60t-26 -60t-62 -25q-37 0 -62.5 25t-25.5 60 t25.5 60t62.5 25z" />
</svg>