<svg viewBox="0 0 256 256" xmlns="http://www.w3.org/2000/svg">
  <path transform="scale(1, -1) translate(0, -256)" fill="currentColor" d="M201 59h-5l-18 38q3 1 4.5 3.5t1.5 5.5v22q0 17 -12.5 29.5t-29.5 12.5h-28q-17 0 -29.5 -12.5t-12.5 -29.5v-22q0 -3 1.5 -5.5t4.5 -3.5l-18 -38h-5q-10 0 -17.5 -7.5t-7.5 -17.5t7.5 -17.5t18 -7.5t17.5 7.5t7 18t-8 18.5l21 43h28v-41q-8 -3 -13.5 -9.5t-5.5 -16 t7.5 -17t18 -7.5t18 7.5t7.5 17t-5 16t-14 9.5v41h28l22 -43q-8 -8 -8 -19t7 -18t17.5 -7t18 7t7.5 18t-7.5 18t-17.5 7zM55 23q-5 0 -8 3t-3 8t3.5 8t8 3t7.5 -3t3 -8t-3 -8t-8 -3zM139 30q0 -4 -3 -7.5t-8 -3.5t-8 3.5t-3 8t3.5 8t8 3.5t7.5 -3.5t3 -8.5zM86 128 q0 12 8 20t20 8h28q12 0 20 -8t8 -20v-18h-84v18zM201 23q-5 0 -8 3t-3 8t3 8t7.5 3t8 -3.5t3.5 -8t-3 -7.5t-8 -3zM128 186q14 0 23.5 9.5t9.5 23t-9.5 23t-23.5 9.5t-23.5 -9.5t-9.5 -23t9.5 -23t23.5 -9.5zM128 237q8 0 13.5 -5.5t5.5 -13t-5.5 -13t-13.5 -5.5t-13.5 5.5 t-5.5 13t5.5 13t13.5 5.5z" />
</svg>