<svg viewBox="0 0 1024 1024" xmlns="http://www.w3.org/2000/svg">
  <path transform="scale(1, -1) translate(0, -960)" fill="currentColor" d="M979 746q-17 58 -51.5 104t-77.5 67l-4 1q-8 4 -25.5 9t-41.5 -4q-23 -8 -34 -25t-15 -28l-5 -6q-15 -37 -41 -100q-26 -62 -54 -125.5t-53 -114.5t-38 -66q-32 -41 -65 -65t-60 -27q-1 0 -1.5 1t-1.5 1q-23 14 -47.5 26t-43.5 12q-9 0 -55 -15q-46 -16 -97.5 -44 t-92.5 -67t-41 -85q0 -44 22 -85q22 -40 60 -71t88 -50t105 -19h4.5h6.5q10 0 23 -1t30 -1q48 0 111 8t110 38q18 12 59 69q42 56 90.5 129.5t96.5 150.5q49 77 82 131v-504q0 -7 4 -11.5t12 -4.5q7 0 11.5 4.5t4.5 11.5v557q3 6 5.5 10.5t5.5 7.5q21 33 25 80.5t-11 100.5 v0zM938 582v-0.5t0 0.5q-47 -75 -103 -165t-108.5 -169.5t-93.5 -136.5q-41 -58 -57 -68q-28 -18 -65 -27t-73.5 -12t-67.5 -3q-32 1 -48 2h-7.5h-5.5q-49 1 -93 17t-77.5 42.5t-53.5 61.5q-19 35 -19 73q0 35 36 67q37 33 83 57.5t86 39.5q41 14 49 15q10 0 29 -8.5 t46 -25.5q6 -3 9.5 -4.5t6.5 -1.5q35 0 75 26.5t79 75.5q16 20 47 84q31 65 62 136.5t55 129.5t26 63q0 1 1 2.5t2 2.5q5 8 12 20t20 17q15 5 25.5 2.5t18.5 -5.5q1 0 2 -1l1 -1q37 -17 66.5 -58t45.5 -94q12 -44 9.5 -85.5t-20.5 -68.5z" />
</svg>