<svg viewBox="0 0 1024 1024" xmlns="http://www.w3.org/2000/svg">
  <path transform="scale(1, -1) translate(0, -960)" fill="currentColor" d="M320 179q24 0 46 9.5t40 25.5l524 524q9 9 14 20t5 24q0 14 -5.5 25.5t-13.5 19.5l-82 82q-18 18 -45 18t-45 -18l-524 -523q-17 -17 -26.5 -39.5t-9.5 -47.5q0 -24 9.5 -46t26.5 -40q16 -18 38.5 -26t47.5 -8v0zM781 886q3 5 9 7.5t13 2.5t12.5 -2.5t10.5 -7.5l81 -81 q5 -5 7.5 -11t2.5 -12t-2.5 -11.5t-7.5 -10.5l-413 -411l-126 126l413 411v0zM256 363l90 90l126 -127l-90 -89q-13 -13 -29 -19.5t-33 -6.5q-18 0 -34 7t-28 19q-14 13 -20 29t-6 33t6 34t18 30zM952 0h-880q-7 0 -11.5 -4.5t-4.5 -11.5t4.5 -11.5t11.5 -4.5h880 q7 0 11.5 4.5t4.5 11.5t-4.5 11.5t-11.5 4.5z" />
</svg>