<svg viewBox="0 0 1024 1024" xmlns="http://www.w3.org/2000/svg">
  <path transform="scale(1, -1) translate(0, -960)" fill="currentColor" d="M966 229l-28 28t-63 64.5t-68 72.5q-33 35 -44 51q-25 37 -45 82t-35 97q-9 44 -33.5 71.5t-59.5 35.5q-22 3 -40 -1t-22 -5q-34 -7 -72.5 -0.5t-77.5 24.5q-33 14 -62.5 33.5t-59.5 41.5l-8 5q-5 5 -19.5 15t-34.5 10q-14 0 -25 -4.5t-22 -14.5q-2 -2 -20 -23 q-19 -21 -40 -51.5t-38 -65.5t-17 -65q0 -3 1 -5.5t4 -5.5l29 -30l27 -488q0 -5 3.5 -9t9.5 -6h2h1q5 0 8.5 2.5t5.5 5.5l160 277v0v0q24 -25 45.5 -55.5t44.5 -62.5l5 -7q19 -28 40.5 -58.5t47.5 -62.5q43 -55 85 -70t73 -15q8 0 15.5 1t13.5 1q3 0 7 0.5t7 -0.5 q67 3 136.5 10.5t134.5 30.5q20 7 35 23.5t21 39.5q2 24 -5 45t-23 38v0zM256 387l-134 -230l-21 398l161 -161q-2 -2 -3.5 -3t-2.5 -4v0zM958 155q-3 -14 -12.5 -24.5t-22.5 -15.5q-61 -23 -126.5 -29.5t-132.5 -10.5h-7.5t-8.5 -1q-25 -3 -68.5 4.5t-89.5 67.5 q-24 31 -46 60t-41 58l-5 6q-22 34 -44.5 65.5t-47.5 58.5v0v0l-242 243q4 42 44 97.5t62 79.5q4 5 10 7.5t12 2.5q11 0 20.5 -7t13.5 -11q1 -1 1.5 -1h1.5l9 -7q32 -21 62.5 -41.5t64.5 -34.5q44 -22 88.5 -29t82.5 1h1h1l15 4t33 1q31 -7 46 -32.5t21 -50.5 q15 -55 36.5 -102.5t48.5 -86.5q11 -16 44 -51q32 -36 67 -72.5t64 -65.5q28 -29 31 -32q10 -10 14 -24t0 -27z" />
</svg>