<svg viewBox="0 0 256 256" xmlns="http://www.w3.org/2000/svg">
  <path transform="scale(1, -1) translate(0, -256)" fill="currentColor" d="M242 217l-22 22q-8 8 -20 8t-21 -8l-125 -126q-3 -2 -3 -5.5t3 -6.5l2 -3l-21 -21q-6 -6 -6 -13l-21 -21q-3 -4 -2.5 -9t4.5 -8l31 -16q2 -1 5.5 -1t7.5 3l14 14q7 0 12 5l22 22l2 -3q3 -2 6.5 -2t6.5 2l126 126q8 8 8 20t-9 21zM46 23l-25 13l13 13l19 -19zM70 41 q-1 -2 -3.5 -2t-4.5 2l-18 18q-1 1 -1 3.5t1 4.5l22 21l26 -25zM232 186l-121 -122l-44 43l122 122q5 4 11 4t11 -4l22 -22q4 -5 4 -11t-5 -10z" />
</svg>