<svg viewBox="0 0 256 256" xmlns="http://www.w3.org/2000/svg">
  <path transform="scale(1, -1) translate(0, -256)" fill="currentColor" d="M250 80q-3 5 -9 9.5t-14 6.5h-2q-24 5 -31 8q-15 8 -28 28q-30 46 -49 93q-2 4 -7 4h-84q-3 0 -5 -2t-2 -5v-1q1 -8 -1 -20q-2 -24 -11 -49q-5 -16 3 -30v-88q0 -3 2 -5t5 -2h44q3 0 5 2t2 5v66q34 -11 41 -18q4 -5 7 -13q1 -5 3 -16v-4q1 -8 3 -12q1 -6 5 -9q2 -1 5 -1 h112q3 0 5 2t2 5v0q0 42 -1 46zM54 104v-63h-30v72l30 -9v0v0zM237 41h-102q-1 2 -2 11l-1 3q-2 12 -4 19q-3 10 -9 18v0q-7 7 -26 14q-13 5 -43 14q-23 7 -28 10q-5 7 -2 17q12 35 13 68h73q20 -48 49 -90q15 -24 32 -33q7 -4 33 -9l4 -1q5 -1 8.5 -3.5t3.5 -3.5 q1 -7 1 -34z" />
</svg>