<svg viewBox="0 0 1024 1024" xmlns="http://www.w3.org/2000/svg">
  <path transform="scale(1, -1) translate(0, -960)" fill="currentColor" d="M962 795l-88 88q-32 31 -75 31t-74 -31l-503 -502q-3 -4 -4.5 -7.5t-1.5 -8.5t1.5 -9t4.5 -7l20 -19l-96 -96q-10 -10 -15 -23.5t-5 -26.5v0l-86 -86q-5 -5 -7 -12t-1 -14q1 -6 5 -11.5t11 -9.5l122 -65q3 -3 7 -3.5t9 -0.5q6 0 12.5 2.5t11.5 7.5l56 56l-2 2h1.5h1.5 q13 0 25 4.5t22 14.5l96 96l19 -19q3 -4 7 -5.5t9 -1.5t9 2t7 5l502 502q29 30 29 73t-30 74v0zM184 14l-118 64l72 72q2 -2 3.5 -5t4.5 -6l72 -72q2 -2 5 -4.5t6 -4.5l-45 -44v0zM290 91q-10 -9 -24.5 -9t-23.5 9l-72 72q-10 10 -10 24.5t10 23.5l96 96l120 -120zM939 669 l-496 -496l-190 192l496 496q21 21 51.5 21t50.5 -21l88 -88q21 -22 21 -52.5t-21 -51.5z" />
</svg>