<svg viewBox="0 0 1024 1024" xmlns="http://www.w3.org/2000/svg">
  <path transform="scale(1, -1) translate(0, -960)" fill="currentColor" d="M566 928h-110q-38 0 -66 -27.5t-28 -66.5v-568q0 -10 6 -16.5t16 -6.5h22v-97q0 -14 5 -24.5t13 -19.5v-107q0 -6 3 -12.5t8 -9.5q4 -3 8.5 -4t7.5 -1h4.5t3.5 2l117 35q10 2 16 10.5t6 18.5v68h-1q8 9 12.5 19.5t4.5 24.5v97h23q9 0 15.5 6.5t6.5 16.5v568 q1 39 -26 66.5t-67 27.5zM568 35l-112 -33v84q2 0 4.5 -0.5t5.5 -0.5h89h6.5t4.5 1l2 -51v0zM586 146q0 -12 -8.5 -20.5t-20.5 -8.5h-90q-12 0 -20.5 8.5t-8.5 20.5v97h146v-97h2zM629 277h-235v557q0 25 18 43.5t44 18.5h110q26 0 44.5 -18t18.5 -44v-557z" />
</svg>