<svg viewBox="0 0 256 256" xmlns="http://www.w3.org/2000/svg">
  <path transform="scale(1, -1) translate(0, -256)" fill="currentColor" d="M177 33q-18 0 -35 7t-31 19l-40 36q-2 -3 -4 -8q-2 -8 -4 -20q-1 -9 -1 -12v-6q0 -4 -3.5 -8.5t-10.5 -4.5h-20q-10 0 -16.5 6.5t-6.5 15.5v96q0 5 1 13q3 13 10 24q10 16 28 25q2 1 9 4q11 3 21 3q3 0 6.5 -1.5t5.5 -4.5l75 -109q4 2 6 5l1 7q0 5 3.5 8.5t8.5 4.5h1 q26 1 45 -8q15 -6 21 -16q4 -8 4 -16q0 -5 -2 -13q-4 -15 -15 -25q-14 -15 -39 -21q-9 -1 -18 -1zM72 111q2 0 4 -2l44 -40q15 -13 34 -18.5t38.5 -2t30.5 15.5q9 8 12 19q2 6 2 10q0 13 -16.5 20t-38.5 7q0 -8 -3 -12q-3 -7 -9 -10.5t-10.5 -4t-7.5 2.5l-78 112 q-8 0 -17 -2l-7 -3q-20 -11 -28 -30q-4 -10 -3 -19v-97q0 -3 2.5 -5.5t5.5 -2.5h20v6q0 3 2 13q2 13 5 23.5t9 15.5q4 3 7 4h2zM76 209z" />
</svg>