<svg viewBox="0 0 256 256" xmlns="http://www.w3.org/2000/svg">
  <path transform="scale(1, -1) translate(0, -256)" fill="currentColor" d="M244 75l-28 28q-19 20 -23 26q-12 19 -19 44q-3 12 -9.5 19.5t-16.5 9.5v0q-7 0 -16 -2h-1q-17 -3 -36 6q-9 4 -27 16l-4 4q-8 7 -16 7t-14.5 -6.5t-14.5 -19.5q-14 -20 -14 -33q0 -3 2 -5l7 -7l6 -120q0 -3 1.5 -4.5t4.5 -2.5h1q4 0 6 4l38 65q7 -7 18 -24l3 -4 q7 -12 22 -30q17 -23 42 -23l10 1q22 1 35 2q19 3 34 8q12 5 16 18q1 7 -1 13t-6 10zM33 66l-5 81l33 -33zM237 55q-1 -6 -7 -8q-14 -5 -31 -7q-12 -2 -33 -3h-4q-10 -1 -17 1q-11 3 -20 16q-15 18 -21 29l-3 3q-14 21 -22 30l-60 60q2 8 10 22q7 10 15 20q2 1 4 1t5 -2 l5 -4q19 -14 32 -19q23 -12 44 -7l5 1q4 1 7 0q10 -2 14 -18q7 -27 22 -48q7 -11 52 -56q4 -6 3 -11z" />
</svg>