<svg viewBox="0 0 256 256" xmlns="http://www.w3.org/2000/svg">
  <path transform="scale(1, -1) translate(0, -256)" fill="currentColor" d="M248 203q-5 16 -14 28t-20 17h-1q-9 5 -18.5 1.5t-15.5 -14.5l-1 -2q-13 -32 -25 -60q-16 -35 -21 -41q-15 -19 -28 -21q-16 9 -24 9q-3 0 -14 -4q-14 -4 -26 -11q-15 -8 -24 -18q-11 -11 -11 -23q0 -15 10 -28.5t26.5 -22t35.5 -8.5l16 -1q38 0 57 13q8 5 34 44 q19 29 43 68v-116q0 -3 2 -5t5 -2t5.5 2t2.5 5v139l2 4q5 9 6 21.5t-2 25.5zM142 29q-17 -11 -61 -10h-4q-15 1 -28 7t-21 16.5t-8 22.5q0 9 14 19q10 8 27 16q14 6 20 7q4 0 17 -8l1 -1q3 -1 4 -1q9 0 20 7t21 19t46 99l2 7q3 6 6.5 7t8.5 0l1 -1q8 -4 15.5 -13.5 t10.5 -21.5t2.5 -21.5t-4.5 -15.5l-3 -5q-30 -48 -54 -85q-27 -40 -33 -44z" />
</svg>