<svg viewBox="0 0 1024 1024" xmlns="http://www.w3.org/2000/svg">
  <path transform="scale(1, -1) translate(0, -960)" fill="currentColor" d="M528 576q-78 0 -132.5 -54.5t-54.5 -132.5t55 -132.5t132 -54.5t132 54.5t55 132.5t-54.5 132.5t-132.5 54.5zM528 234q-64 0 -109.5 45.5t-45.5 109.5q0 63 45.5 109t109.5 46t109.5 -46t45.5 -109q0 -64 -45 -109.5t-110 -45.5v0zM536 379v53q0 7 -4.5 11.5t-11.5 4.5 t-11.5 -4.5t-4.5 -11.5v-61q0 -3 1 -6t4 -5l35 -35q2 -3 5.5 -4t5.5 -1q3 0 6 1t5 4q5 5 5 11t-5 11l-30 32v0zM822 760h-603q-15 0 -29 6t-24 16q-9 10 -14 22.5t-5 25.5q1 14 6 25.5t15 21.5q10 9 22 14t26 5h589q7 0 11.5 4.5t4.5 11.5t-4.5 11.5t-11.5 4.5h-589 q-20 0 -38 -8t-32 -21t-22 -30t-9 -35v-3v-2v0v0v-775q0 -36 25.5 -61t61.5 -25h620q36 0 61.5 25t25.5 61v621q0 35 -25.5 60t-61.5 25zM877 54q0 -22 -16 -38t-39 -16h-620q-23 0 -39 16t-16 38v704q15 -13 33.5 -20.5t38.5 -7.5h603q23 0 39 -16t16 -39v-621v0z" />
</svg>