<svg viewBox="0 0 256 256" xmlns="http://www.w3.org/2000/svg">
  <path transform="scale(1, -1) translate(0, -256)" fill="currentColor" d="M204 124h-49v28h31q8 0 14 5.5t6 13.5v61q0 8 -6 13.5t-14 5.5h-116q-8 0 -14 -5.5t-6 -13.5v-61q0 -8 6 -13.5t14 -5.5h31v-28h-49q-8 0 -14 -5.5t-6 -13.5v-61q0 -7 4 -12t11 -6v-14q0 -3 2 -5t5 -2t5 2t2 5v13h134v-13q0 -3 2 -5t5 -2t5.5 2t2.5 5v14q6 1 10 6t4 12 v61q-1 8 -6.5 13.5t-13.5 5.5zM64 171v61q0 2 1.5 3.5t4.5 1.5h117q2 0 3.5 -1.5t1.5 -3.5v-61q0 -2 -1.5 -3.5t-3.5 -1.5h-117q-3 0 -4.5 1.5t-1.5 3.5zM115 152h26v-28h-26v28zM47 105q0 2 1.5 3.5t3.5 1.5h69v-71h-69q-3 0 -4.5 1.5t-1.5 3.5v61h1zM209 44 q0 -2 -1.5 -3.5t-3.5 -1.5h-69v71h69q2 0 4 -1.5t2 -3.5v-61h-1zM97 61q3 0 5 2t2 5v20q0 3 -2 5t-5 2t-5 -2t-2 -5v-20q0 -3 2 -5t5 -2zM159 94q-3 0 -5 -2t-2 -5v-20q0 -3 2 -5t5 -2t5 2t2 5v20q0 3 -2 5t-5 2z" />
</svg>