<svg viewBox="0 0 256 256" xmlns="http://www.w3.org/2000/svg">
  <path transform="scale(1, -1) translate(0, -256)" fill="currentColor" d="M214 120h-79v24h60q8 0 13.5 5.5t5.5 13.5v69q0 8 -5.5 13.5t-13.5 5.5h-134q-8 0 -13.5 -5.5t-5.5 -13.5v-69q0 -8 5.5 -13.5t13.5 -5.5h60v-24h-79q-8 0 -14 -6t-6 -14v-88q0 -3 2.5 -5t5.5 -2t4.5 2t1.5 5v53h183v-53q0 -3 2 -5t5 -2t5.5 2t2.5 5v89q0 8 -6 13.5 t-14 5.5zM56 163v69q0 2 1.5 3.5t3.5 1.5h134q2 0 3.5 -1.5t1.5 -3.5v-69q0 -2 -1.5 -3.5t-3.5 -1.5h-134q-2 0 -3.5 1.5t-1.5 3.5zM36 100q0 3 1.5 4.5t4.5 1.5h172q2 0 4 -1.5t2 -4.5v-21h-184v21z" />
</svg>