<svg viewBox="0 0 256 256" xmlns="http://www.w3.org/2000/svg">
  <path transform="scale(1, -1) translate(0, -256)" fill="currentColor" d="M244 49h-14v63h2q3 0 5.5 2.5t2.5 5.5t-2.5 5t-5.5 2h-31v41q0 4 -3 6l-66 40q-4 2 -8 0l-17 -10q-2 7 -7.5 12t-13.5 5h-3q-9 0 -15 -6.5t-6 -14.5v-24l-4 -2q-3 -2 -3 -6v-42h-31q-3 0 -5.5 -2t-2.5 -5t2.5 -5t5.5 -2h2v-64h-14q-3 0 -5 -2t-2 -5t2 -4.5t5 -1.5h232 q3 0 5 2t2 5t-2 5t-5 2zM216 112v-63h-14v63h14zM76 200q0 3 2 5t5 2h3q3 0 5 -2t2 -5v-5l-17 -10v15zM69 164l59 36l60 -36v-38h-119v38zM40 112h14v-63h-14v63zM136 49h-17v29h17v-29zM150 49v36q0 3 -2 5t-5 2h-31q-3 0 -5 -2t-2 -5v-36h-37v63h119v-63h-37zM128 176 q-8 0 -14 -6t-6 -14.5t6 -14.5t14 -6t14 6t6 14.5t-6 14.5t-14 6zM128 149q-3 0 -4.5 2t-1.5 4.5t1.5 4.5t4.5 2t4.5 -2t1.5 -4.5t-1.5 -4.5t-4.5 -2z" />
</svg>