<svg viewBox="0 0 256 256" xmlns="http://www.w3.org/2000/svg">
  <path transform="scale(1, -1) translate(0, -256)" fill="currentColor" d="M229 5h-54q-9 0 -15.5 6.5t-6.5 15.5v44q0 3 -2.5 5.5t-5.5 2.5h-33q-4 0 -6 -2.5t-2 -5.5v-44q0 -9 -6.5 -15.5t-15.5 -6.5h-55q-9 0 -15.5 6.5t-6.5 15.5v140q0 4 2 8t6 7l106 66q4 3 9 3t10 -3l105 -66q8 -5 8 -15v-139q0 -10 -6.5 -16.5t-15.5 -6.5zM111 93h33 q9 0 15.5 -6.5t6.5 -15.5v-44q0 -3 2.5 -5.5t5.5 -2.5h55q3 0 5.5 2.5t2.5 5.5v139q0 2 -2 4l-105 66q-2 2 -4 0l-105 -66q-2 -1 -2 -4v-139q0 -3 2.5 -5.5t5.5 -2.5h55q3 0 5.5 2.5t2.5 5.5v44q-1 9 5.5 15.5t15.5 6.5z" />
</svg>