<svg viewBox="0 0 256 256" xmlns="http://www.w3.org/2000/svg">
  <path transform="scale(1, -1) translate(0, -256)" fill="currentColor" d="M239 150l-106 99q-2 2 -5 2t-5 -2l-106 -99q-2 -2 -1.5 -6t3.5 -5q12 -6 18.5 -17t6.5 -24v-74q0 -8 5.5 -13.5t13.5 -5.5h30q8 0 13.5 5.5t5.5 13.5v23q0 2 1.5 3.5t3.5 1.5h22q2 0 3.5 -1.5t1.5 -3.5v-23q0 -8 5.5 -13.5t13.5 -5.5h31q7 0 13 5.5t6 13.5v74 q0 12 7 23.5t18 17.5q4 2 4 5q-2 5 -3 6zM128 234l94 -88q-2 -2 -8 -7h-172q-6 5 -8 7zM198 24q0 -2 -2 -3.5t-4 -1.5h-30q-2 0 -3.5 1.5t-1.5 3.5v23q0 8 -5.5 13.5t-13.5 5.5h-22q-8 0 -13.5 -5.5t-5.5 -13.5v-23q0 -2 -1.5 -3.5t-3.5 -1.5h-30q-2 0 -3.5 1.5t-1.5 3.5v74 q0 14 -7 27h153q-7 -13 -7 -27v-74h2z" />
</svg>