<svg viewBox="0 0 1024 1024" xmlns="http://www.w3.org/2000/svg">
  <path transform="scale(1, -1) translate(0, -960)" fill="currentColor" d="M962 554l-424 366q-9 7 -20.5 7t-19.5 -7l-436 -366q-7 -6 -10 -16t1 -20q3 -9 11 -14.5t18 -5.5h14v-466q0 -26 19 -45t45 -19h704q26 0 45 19t19 45v467h14q10 0 18 5.5t11 15.5q4 10 1.5 19t-10.5 15v0zM896 32q0 -13 -9.5 -22.5t-22.5 -9.5h-318q75 35 112.5 95 t39.5 63q18 35 22.5 98.5t-51.5 103.5q-19 13 -38.5 17t-38.5 -1q-28 -7 -48 -26t-32 -35q-12 16 -32 35.5t-48 25.5q-19 5 -39 0.5t-38 -16.5q-57 -40 -52 -103.5t23 -98.5q2 -3 41 -62.5t116 -95.5h-323q-13 0 -22.5 9.5t-9.5 22.5v467h768v-467v0zM514 21 q-77 27 -118.5 89t-41.5 63q-2 3 -19 63t38 98q9 8 19 10.5t19 2.5h7.5t5.5 -1q32 -8 53 -37t21 -31q3 -7 13.5 -7t14.5 7l21 29.5t53 38.5q13 3 25.5 0t25.5 -12q54 -37 37.5 -97.5t-18.5 -63.5q0 -1 -40 -63t-116 -89v0zM912 531h-827l432 365l422 -365h-27v0z" />
</svg>