<svg viewBox="0 0 1024 1024" xmlns="http://www.w3.org/2000/svg">
  <path transform="scale(1, -1) translate(0, -960)" fill="currentColor" d="M976 120h-69v277h23q7 0 11.5 4.5t4.5 11.5t-4.5 11.5t-11.5 4.5h-136v179q0 4 -2.5 8t-5.5 6l-266 162q-4 2 -8 2t-8 -2l-88 -54v4q0 30 -21 52t-53 22h-11q-30 0 -51.5 -21t-21.5 -53v-99l-21 -13q-4 -2 -6 -5.5t-2 -8.5v-179h-135q-7 0 -11.5 -4.5t-4.5 -11.5 t4.5 -11.5t11.5 -4.5h23v-277h-69q-7 0 -11.5 -4.5t-4.5 -11.5t4.5 -11.5t11.5 -4.5h928q7 0 11.5 4.5t4.5 11.5t-4.5 11.5t-11.5 4.5zM875 397v-277h-81v277h81zM291 734q0 17 12 29.5t30 12.5h11q17 0 29.5 -12t12.5 -30v-24l-93 -56v80h-2zM262 600l250 150l250 -152 v-169h-500v171v0zM149 397h81v-277h-81v277zM555 120h-91v142h93v-142h-2zM587 120v158q0 8 -4.5 12t-11.5 4h-123q-7 0 -11.5 -4t-4.5 -12v-158h-170v277h500v-277h-175v0zM512 627q-29 0 -49.5 -20.5t-20.5 -49.5t20.5 -50t49.5 -21t49.5 21t20.5 50t-20.5 49.5 t-49.5 20.5v0zM512 520q-16 0 -27 11.5t-11 26.5q0 16 11 27.5t27 11.5t27 -11.5t11 -27.5q0 -15 -11 -26.5t-27 -11.5z" />
</svg>