<svg viewBox="0 0 256 256" xmlns="http://www.w3.org/2000/svg">
  <path transform="scale(1, -1) translate(0, -256)" fill="currentColor" d="M242 157l-106 91q-3 3 -7 3t-7 -3l-108 -91q-3 -2 -4 -5.5t0.5 -6.5t4 -5t5.5 -2h1v-114q0 -8 5.5 -13.5t13.5 -5.5h176q8 0 13.5 5.5t5.5 13.5v114h1q3 0 5.5 2t4.5 5q2 7 -4 12zM129 236l98 -84h-198zM221 24q0 -2 -1.5 -3.5t-3.5 -1.5h-68q12 8 21 22q5 6 8 13v0 q7 12 6 26q0 19 -14 28q-10 8 -21 5.5t-20 -13.5q-10 11 -20.5 13.5t-21.5 -5.5q-13 -9 -14 -27q0 -14 6 -27q1 -4 8 -13q10 -14 22 -22h-68q-2 0 -3.5 1.5t-1.5 3.5v114h186v-114zM128 24q-10 4 -20 14q-7 6 -12 15q-5 6 -5 7v1q-4 8 -4 16q-2 13 8 20q4 3 8 3l2 -1 q5 -1 11 -7q3 -4 5 -8t6 -4t6.5 4t6.5 8q5 6 10 7t10 -2q8 -5 9 -14q0 -7 -2 -15q-2 -6 -3 -8l-2.5 -4.5t-7 -10.5t-11 -11.5t-15.5 -9.5z" />
</svg>