<svg viewBox="0 0 1024 1024" xmlns="http://www.w3.org/2000/svg">
  <path transform="scale(1, -1) translate(0, -960)" fill="currentColor" d="M976 226h-64v292q0 22 -10.5 40t-29.5 28l-186 104q-18 9 -38 9t-38 -9l-218 -120h-200q-32 0 -55 -23t-23 -56v-267h-66q-7 0 -11.5 -4.5t-4.5 -11.5t4.5 -11.5t11.5 -4.5h349v0v0h579q7 0 11.5 4.5t4.5 11.5t-4.5 12.5t-11.5 5.5zM147 493q0 19 13.5 32.5t33.5 13.5 h188v-312h-233v266h-2zM413 546l213 118q10 6 22 6t22 -6l186 -104q11 -6 17.5 -17t6.5 -23v-293h-149v141q0 26 -18.5 45t-45.5 19h-40q-26 0 -45 -19t-19 -45v-141h-150v319v0zM595 226v140q0 14 9.5 23t22.5 9h40q13 0 22.5 -9t9.5 -23v-140h-104v0z" />
</svg>