<svg viewBox="0 0 256 256" xmlns="http://www.w3.org/2000/svg">
  <path transform="scale(1, -1) translate(0, -256)" fill="currentColor" d="M141 180l-38 29q-2 2 -4 2t-4 -2l-38 -29q-2 -1 -2.5 -4t1.5 -5.5t5 -2.5t5 1l6 5v-25q0 -3 2 -5t5 -2h41q3 0 5 2t2 5v25l6 -5q2 -2 5 -1.5t4.5 3t1 5.5t-2.5 4zM113 184v-28h-27v28l13 11l14 -11v0v0zM71 90h37q3 0 5 2t2 5t-2 5t-5 2h-37q-3 0 -5 -2t-2 -5t2 -5t5 -2z M127 66h-56q-3 0 -5 -2t-2 -5t2 -5t5 -2h56q3 0 5 2t2 5t-2 5t-5 2zM227 120h-33v105q0 11 -7.5 18.5t-17.5 7.5h-133q-11 0 -18.5 -7.5t-7.5 -18.5v-194q0 -11 7.5 -18.5t18.5 -7.5h186q10 0 17 7t7 17v72q0 8 -5.5 13.5t-13.5 5.5zM24 31v194q0 5 3.5 8.5t8.5 3.5h132 q5 0 8.5 -3.5t3.5 -8.5v-197q0 -4 2 -10h-146q-5 1 -8.5 4.5t-3.5 8.5zM232 28q0 -3 -3 -6t-7 -3h-18q-4 0 -7 2.5t-3 6.5v78h33q2 0 3.5 -1.5t1.5 -3.5v-73z" />
</svg>