<svg viewBox="0 0 1024 1024" xmlns="http://www.w3.org/2000/svg">
  <path transform="scale(1, -1) translate(0, -960)" fill="currentColor" d="M858 402h-330v120h251q27 0 45.5 18.5t18.5 45.5v278q0 26 -18.5 45t-45.5 19h-534q-27 0 -45.5 -19t-18.5 -45v-277q0 -26 18.5 -45t45.5 -19h251v-120h-330q-26 0 -45 -18.5t-19 -45.5v-355q0 -7 4.5 -11.5t11.5 -4.5q8 0 12 4.5t4 11.5v226h756v-226q0 -7 4 -11.5 t12 -4.5q7 0 11.5 4.5t4.5 11.5v355q0 25 -19 44t-45 19v0zM213 587v277q0 13 9.5 22.5t22.5 9.5h534q13 0 22.5 -9.5t9.5 -22.5v-277q0 -13 -9.5 -22.5t-22.5 -9.5h-534q-13 0 -22.5 9.5t-9.5 22.5v0zM134 338q0 13 9.5 22.5t22.5 9.5h692q13 0 22.5 -9.5t9.5 -22.5v-98 h-756v98v0z" />
</svg>