<svg viewBox="0 0 1024 1024" xmlns="http://www.w3.org/2000/svg">
  <path transform="scale(1, -1) translate(0, -960)" fill="currentColor" d="M947 528l-424 395q-5 5 -11 5t-11 -5l-424 -395q-3 -2 -4.5 -6t-0.5 -8q0 -4 2 -7.5t6 -5.5q50 -27 78.5 -73.5t28.5 -102.5v-293q0 -26 19 -45t45 -19h119q26 0 45 19t19 45v93q0 13 9 22.5t23 9.5h86q13 0 22.5 -9.5t9.5 -22.5v-93q0 -26 19 -45t45 -19h122q26 0 45 19 t19 45v294q0 56 29 103t79 73q4 2 6 5t2 8q2 4 1 7.5t-4 5.5zM802 326v-294q0 -13 -9.5 -22.5t-22.5 -9.5h-122q-13 0 -22.5 9.5t-9.5 22.5v93q0 26 -19 45t-45 19h-86q-27 0 -45.5 -19t-18.5 -45v-93q0 -13 -9.5 -22.5t-22.5 -9.5h-119q-13 0 -22.5 9.5t-9.5 22.5v294 q0 34 -9 65t-24 57h652q-18 -26 -27 -57.5t-9 -64.5zM862 480h-700q-10 11 -22 21.5t-25 18.5l397 370l397 -370q-13 -8 -24.5 -18t-22.5 -22z" />
</svg>