<svg viewBox="0 0 256 256" xmlns="http://www.w3.org/2000/svg">
  <path transform="scale(1, -1) translate(0, -256)" fill="currentColor" d="M228 156h-100v66q0 7 -3.5 12.5t-10 8.5t-13 2t-11.5 -5l-76 -63q-4 -4 -6.5 -8.5t-2.5 -9.5v-125q0 -10 7 -17t17 -7h199q10 0 17 7t7 17v99q-1 9 -8 16t-16 7zM19 34v125q0 5 4 7l76 63q2 3 4.5 3t5.5 -1q5 -3 5 -9v-197h-19v44q0 8 -5.5 13.5t-13.5 5.5h-18 q-7 0 -13 -5.5t-6 -13.5v-45h-11q-3 0 -6 3t-3 7zM53 24v45q0 2 1.5 3.5t3.5 1.5h18q2 0 3.5 -1.5t1.5 -3.5v-45h-28zM237 34q0 -4 -2.5 -7t-6.5 -3h-100v118h100q4 0 6.5 -3t2.5 -7v-98z" />
</svg>