<svg viewBox="0 0 1024 1024" xmlns="http://www.w3.org/2000/svg">
  <path transform="scale(1, -1) translate(0, -960)" fill="currentColor" d="M818 421h-210v134h139q27 0 45.5 19t18.5 45v245q0 26 -18.5 45t-45.5 19h-469q-26 0 -45 -19t-19 -45v-245q0 -26 19 -45t45 -19h138v-134h-210q-26 0 -45 -19t-19 -45v-245q0 -25 17 -42.5t41 -21.5v-64q0 -7 4.5 -11.5t11.5 -4.5t11.5 4.5t4.5 11.5v64h560v-64 q0 -7 4.5 -11.5t11.5 -4.5t11.5 4.5t4.5 11.5v64q24 2 41 20.5t17 43.5v245q0 26 -19 45t-45 19zM246 619v245q0 13 9.5 22.5t22.5 9.5h469q13 0 22.5 -9.5t9.5 -22.5v-245q0 -13 -9.5 -22.5t-22.5 -9.5h-469q-13 0 -22.5 9.5t-9.5 22.5v0zM448 555h128v-134h-128v134v0z M174 112v245q0 13 9.5 22.5t22.5 9.5h290v-309h-290q-13 0 -22.5 9.5t-9.5 22.5v0zM850 112q0 -13 -9.5 -22.5t-22.5 -9.5h-290v309h290q13 0 22.5 -9.5t9.5 -22.5v-245zM387 190q7 0 11.5 4.5t4.5 11.5v80q0 8 -4.5 12t-11.5 4t-11.5 -4t-4.5 -12v-80q0 -6 4.5 -11t11.5 -5 zM637 302q-7 0 -11.5 -4t-4.5 -12v-80q0 -7 4.5 -11.5t11.5 -4.5t11.5 4.5t4.5 11.5v80q0 6 -4.5 11t-11.5 5z" />
</svg>