<svg viewBox="0 0 1024 1024" xmlns="http://www.w3.org/2000/svg">
  <path transform="scale(1, -1) translate(0, -960)" fill="currentColor" d="M910 549h-409v275q0 24 -12.5 44t-34.5 30q-21 10 -44.5 7t-41.5 -19l-306 -252q-14 -12 -22 -28.5t-8 -34.5v-499q0 -34 24 -58t58 -24h798q34 0 58 24t24 58v395q-2 34 -26 58t-58 24zM64 72v499q0 11 4.5 21t13.5 18l305 252q7 6 15.5 9t16.5 3q5 0 10.5 -1.5 t10.5 -3.5q13 -6 21 -18.5t8 -26.5v-802h-103v191q0 26 -18.5 45t-45.5 19h-68q-27 0 -45.5 -19t-18.5 -45v-191h-56q-21 0 -35.5 15t-14.5 35v0zM202 22v191q0 13 9 22.5t23 9.5h68q14 0 23 -9.5t9 -22.5v-191h-132v0zM960 72q0 -20 -14.5 -35t-35.5 -15h-409v495h409 q21 0 35.5 -14.5t14.5 -35.5v-395z" />
</svg>