<svg viewBox="0 0 1024 1024" xmlns="http://www.w3.org/2000/svg">
  <path transform="scale(1, -1) translate(0, -960)" fill="currentColor" d="M965 651l-423 267q-14 9 -31 9t-31 -9l-421 -265q-13 -9 -20 -22t-7 -28v-558q0 -33 22 -55t53 -22h218q31 0 54 22t23 55v174q0 18 12.5 30.5t30.5 12.5h133q18 0 31 -12.5t13 -31.5v-175q0 -31 22 -53t54 -22h217q31 0 54 22t23 55v557q0 15 -7 28t-20 21v0zM960 45 q0 -18 -13 -31.5t-32 -13.5h-216q-18 0 -30.5 12.5t-12.5 30.5v176q0 31 -22 54t-55 23h-133q-31 0 -53 -22t-22 -53v-175q0 -18 -12.5 -31t-32.5 -13h-219q-18 -2 -30.5 10.5t-12.5 30.5v560q0 7 3.5 13t9.5 10l421 265q6 4 13.5 4t13.5 -4l422 -267q6 -4 9.5 -9.5 t3.5 -12.5v-557v0z" />
</svg>