<svg viewBox="0 0 256 256" xmlns="http://www.w3.org/2000/svg">
  <path transform="scale(1, -1) translate(0, -256)" fill="currentColor" d="M244 76h-13v70q0 6 -3 11t-9 8l-46 26q-5 3 -11 3t-11 -3l-54 -29h-49q-9 0 -15.5 -7t-6.5 -16v-63h-14q-3 0 -5 -2.5t-2 -5.5t2 -4.5t5 -1.5h232q3 0 5 2t2 5t-2 5t-5 2zM40 139q0 4 2 6.5t6 2.5h44v-72h-52v63zM106 151l52 29q4 2 8 0l47 -26q4 -3 4 -8v-70h-31v32 q0 8 -5.5 14t-13.5 6h-10q-8 0 -13.5 -6t-5.5 -14v-32h-32v75zM152 76v32q0 2 1.5 3.5t3.5 1.5h10q2 0 3.5 -1.5t1.5 -3.5v-32h-20z" />
</svg>