<svg viewBox="0 0 1024 1024" xmlns="http://www.w3.org/2000/svg">
  <path transform="scale(1, -1) translate(0, -960)" fill="currentColor" d="M406 763q-4 4 -9.5 4t-9.5 -4l-150 -115q-5 -4 -6 -11t3 -11q3 -5 10 -6t12 2l42 32v-123q0 -7 4 -11.5t12 -4.5h164q8 0 12 4.5t4 11.5v123l42 -32q2 -1 4.5 -2t5.5 -1t6.5 1.5t5.5 5.5q4 4 3.5 11t-6.5 11l-149 115v0zM462 672v-125h-132v125q0 1 -0.5 3t-1.5 3l67 52 l67 -52q2 -1 1 -2.5t-1 -3.5v0zM285 309h147q7 0 11.5 4.5t4.5 11.5t-4.5 11.5t-11.5 4.5h-149q-7 0 -11.5 -4.5t-4.5 -11.5t5.5 -11.5t12.5 -4.5zM507 190h-222q-7 0 -11.5 -4t-4.5 -12q0 -7 4.5 -11.5t11.5 -4.5h222q7 0 11.5 4.5t4.5 11.5q0 8 -4.5 12t-11.5 4v0z M909 403h-143v434q0 37 -27 64t-64 27h-533q-37 0 -64 -27t-27 -64v-778q0 -37 27 -64t64 -27h748q33 0 57 24t24 58v289q1 28 -17.5 46t-44.5 18v0zM83 59v778q0 24 17.5 41.5t41.5 17.5h532q24 0 41.5 -17.5t17.5 -41.5v-789q0 -14 4.5 -27t12.5 -23h-608 q-24 2 -41.5 19.5t-17.5 41.5v0zM941 50q0 -21 -14.5 -35.5t-35.5 -14.5h-75q-20 0 -35 14.5t-15 35.5v321h143q13 0 22.5 -9.5t9.5 -22.5v-289v0z" />
</svg>