<svg viewBox="0 0 1024 1024" xmlns="http://www.w3.org/2000/svg">
  <path transform="scale(1, -1) translate(0, -960)" fill="currentColor" d="M976 435h-16l-128 255q-2 3 -6 6t-8 3h-370v192q0 7 -4.5 11.5t-11.5 4.5h-170q-7 0 -11.5 -4.5t-4.5 -11.5v-193h-40q-4 0 -8 -2.5t-6 -7.5l-128 -253h-16q-7 0 -11.5 -4.5t-4.5 -11.5t4.5 -11.5t11.5 -4.5h11v-400q0 -7 4.5 -11.5t11.5 -4.5h331q8 0 12 4.5t4 11.5v125 q0 37 26.5 63.5t63.5 26.5t63.5 -26.5t26.5 -63.5v-123q0 -7 4 -11.5t12 -4.5h331q7 0 11.5 4.5t4.5 11.5v400h11q7 0 11.5 4.5t4.5 11.5t-4.5 10.5t-11.5 3.5v0zM278 875h138v-177h-139v177h1zM216 667h46v0v0h170v0v0h376l115 -232h-822l115 232v0zM933 21h-299v107 q0 50 -36 86t-86 36t-86 -36t-36 -86v-107h-299v384h843v-384h-1z" />
</svg>