<svg viewBox="0 0 256 256" xmlns="http://www.w3.org/2000/svg">
  <path transform="scale(1, -1) translate(0, -256)" fill="currentColor" d="M248 167l-107 59q-6 3 -12 3t-12 -3l-108 -59q-3 -1 -3.5 -4t1 -6t5.5 -3q2 0 3 1l25 13v-117q0 -10 7 -17.5t17 -7.5h43q3 0 5 2.5t2 5.5v41q0 4 3.5 7t7.5 3h6q4 0 7.5 -3t3.5 -7v-42q0 -3 2 -5t5 -2h43q10 0 17 7t7 17v118l25 -13q2 -2 5 -1t4.5 3.5t0.5 5.5t-3 4z M202 51q0 -4 -3 -7.5t-7 -3.5h-36v35q0 10 -7.5 17t-17.5 7h-6q-10 0 -17.5 -7t-7.5 -17v-35h-36q-4 0 -7 3.5t-3 7.5v114h148v-114zM59 179l65 35q5 3 10 0l63 -35h-138z" />
</svg>