<svg viewBox="0 0 1024 1024" xmlns="http://www.w3.org/2000/svg">
  <path transform="scale(1, -1) translate(0, -960)" fill="currentColor" d="M475 214q9 4 18 5.5t19 1.5q7 0 11.5 4.5t4.5 11.5v152h109q5 0 8.5 2t5.5 6l125 217q2 4 2 8.5t-2 7.5l-125 218q-2 4 -5.5 6t-8.5 2h-109v56q0 7 -4.5 11.5t-11.5 4.5t-11.5 -4.5t-4.5 -11.5v-56h-109q-5 0 -8.5 -2t-5.5 -6l-125 -218q-2 -3 -2 -7.5t2 -8.5l125 -217 q2 -4 5.5 -6t8.5 -2h109v-138q-8 -1 -16 -2.5t-16 -5.5q-42 -15 -68 -52t-26 -82q0 -59 41.5 -101t100.5 -42t100.5 42t41.5 101q0 7 -4 11.5t-12 4.5q-7 0 -11.5 -4.5t-4.5 -11.5q0 -46 -32 -78.5t-78 -32.5t-78 32.5t-32 78.5q0 36 20 65.5t53 39.5v0zM397 824h232 l65 -112h-363l66 112v0zM312 678h398l32 -56l-32 -56h-398l-32 56zM331 534h362l-66 -112h-230l-66 112v0z" />
</svg>