<svg viewBox="0 0 256 256" xmlns="http://www.w3.org/2000/svg">
  <path transform="scale(1, -1) translate(0, -256)" fill="currentColor" d="M120 67v0q5 1 8 1t5 2.5t2 5.5v35h25q4 0 6 3l31 54q2 3 0 7l-32 55q-2 3 -6 3h-24v11q0 3 -2 5t-5 2t-5 -2t-2 -5v-11h-24q-4 0 -6 -4l-31 -54q-2 -4 0 -7l31 -54q2 -4 6 -4h24v-29l-6 -1q-11 -5 -18 -15t-7 -22q0 -16 11 -27.5t27 -11.5t27.5 11.5t11.5 27.5q0 3 -2 5 t-5 2t-5 -2t-2 -5q0 -10 -7.5 -17.5t-17.5 -7.5t-17.5 7.5t-7.5 16.5t4.5 15.5t12.5 9.5zM101 219h54l13 -22h-80zM80 183h96l6 -11l-6 -11h-96l-6 11zM88 147h80l-13 -22h-54z" />
</svg>