<svg viewBox="0 0 1024 1024" xmlns="http://www.w3.org/2000/svg">
  <path transform="scale(1, -1) translate(0, -960)" fill="currentColor" d="M957 542q-3 3 -6 4t-5 1q-29 -1 -56.5 -6t-54.5 -13q-3 61 -17.5 123.5t-28.5 102.5q-1 3 -3.5 5.5t-6.5 3.5q-3 1 -7 1t-7 -2q-23 -15 -48 -32.5t-50 -38.5q-32 75 -74 136.5t-68 94.5q-5 6 -13 6t-13 -6q-26 -33 -68 -94.5t-74 -136.5q-25 21 -50 38.5t-48 32.5 q-3 2 -7 2t-7 -1q-4 -1 -6.5 -3.5t-3.5 -5.5q-7 -22 -25 -87.5t-23 -138.5q-26 7 -53 12t-56 7q-3 0 -5.5 -1t-5.5 -4q-2 -2 -3.5 -5t-1.5 -6v-99q-1 -90 34 -173q36 -82 97.5 -146t143.5 -103t173 -42v0v0v0v0q92 3 175 42q82 39 143.5 103t97.5 146q35 83 32 173v99 q3 4 2 6.5t-3 4.5v0zM803 518v0v0q-47 -18 -89 -44q-42 -27 -77 -61.5t-63 -74.5q-27 -41 -46 -87v154q0 19 3.5 39.5t10.5 41.5q15 40 41 75q25 34 55 64t63 54q32 25 62 46q12 -37 24.5 -93.5t15.5 -113.5v0zM384 672q28 66 64 122t64 92q28 -36 64 -92t64 -122v-1t2 -1 q-40 -36 -74.5 -79t-53.5 -95q0 -1 -0.5 -1.5l-1.5 -1.5v1.5t-2 1.5q-19 52 -52.5 95.5t-73.5 80.5q-1 -1 -0.5 -1t0.5 1zM259 723q30 -20 63 -44q33 -25 63.5 -55t55.5 -65t39 -74q7 -22 11.5 -43t2.5 -39v-152q-18 46 -45 87q-28 41 -63 75.5t-78 60.5q-42 27 -90 44 q3 52 15.5 107t25.5 98v0zM94 432v82q86 -8 159 -45t127 -94.5t85 -132.5t31 -159v0v-81q-83 6 -157 43q-73 37 -128 96t-87 134q-31 75 -30 157v0zM930 432v0v0q1 -82 -30 -157q-32 -75 -87 -134t-128 -96q-74 -37 -157 -43v81q0 84 31 159t85 132.5t127 94.5t159 45v-82z " />
</svg>