<svg viewBox="0 0 256 256" xmlns="http://www.w3.org/2000/svg">
  <path transform="scale(1, -1) translate(0, -256)" fill="currentColor" d="M233 191h-39v10q0 6 -4 10t-10 5v20q0 6 -4.5 10.5t-11.5 4.5h-73q-6 0 -10.5 -4.5t-4.5 -10.5v-20q-6 -1 -10 -5t-4 -10v-10h-39q-8 0 -13 -5.5t-5 -12.5v-161q0 -3 2 -5t5 -2h232q3 0 5 2t2 5v161q0 7 -5.5 12.5t-12.5 5.5zM90 236q0 1 2 1h73q1 0 1 -1v-20h-76v20z M19 173q0 1 1 2.5t3 1.5h39v-158h-43v154zM134 19h-18v58h24v-58h-6zM154 19v65q0 3 -2.5 5t-5.5 2h-37q-3 0 -5 -2t-2 -5v-65h-26v182q0 1 1 1h103q1 0 1 -1v-182h-27zM237 19h-43v158h39q2 0 3 -1t1 -3v-154zM146 163h-11v12q0 3 -2 5t-5 2t-5.5 -2t-2.5 -5v-12h-11 q-3 0 -5 -2t-2 -5t2 -5t5 -2h11v-12q0 -3 2.5 -5t5.5 -2t5 2t2 5v12h11q3 0 5.5 2t2.5 5t-2.5 5t-5.5 2z" />
</svg>