<svg viewBox="0 0 256 256" xmlns="http://www.w3.org/2000/svg">
  <path transform="scale(1, -1) translate(0, -256)" fill="currentColor" d="M220 241h-184q-13 0 -22 -9t-9 -22v-164q0 -13 9 -22t22 -9h184q13 0 22 9t9 22v164q0 13 -9 22t-22 9zM36 227h184q7 0 12 -5t5 -12v-23h-218v23q0 7 5 12t12 5zM220 29h-184q-7 0 -12 5t-5 12v127h218v-127q0 -7 -5 -12t-12 -5zM158 114h-23v23q0 3 -2 5t-5 2t-5 -2 t-2 -5v-23h-23q-3 0 -5.5 -2.5t-2.5 -5.5t2.5 -5t5.5 -2h23v-23q0 -3 2 -5t5 -2t5 2t2 5v23h23q3 0 5.5 2t2.5 5t-2.5 5.5t-5.5 2.5z" />
</svg>