<svg viewBox="0 0 1024 1024" xmlns="http://www.w3.org/2000/svg">
  <path transform="scale(1, -1) translate(0, -960)" fill="currentColor" d="M928 626h-195v238q0 26 -19 45t-45 19h-312q-27 0 -45.5 -19t-18.5 -45v-157h-197q-26 0 -45 -18.5t-19 -45.5v-595q0 -34 23 -57t57 -23h195v0v0v0v0h605q34 0 57 23t23 57v514q0 26 -19 45t-45 19v0zM291 0h-179q-20 0 -34 14t-14 34v595q0 13 9.5 22.5t22.5 9.5h195 v-675zM325 864q0 13 9.5 22.5t22.5 9.5h312q13 0 22.5 -9.5t9.5 -22.5v-254v0v0v-610h-88v248q0 7 -4.5 11.5t-11.5 4.5h-170q-7 0 -11.5 -4.5t-4.5 -11.5v-248h-88v864h2zM443 0v232h138v-232h-138v0zM960 48q0 -20 -14 -34t-34 -14h-179v594h195q13 0 22.5 -9.5t9.5 -22.5 v-514zM437 675h59v-59q0 -7 4.5 -11.5t11.5 -4.5t11.5 4.5t4.5 11.5v59h59q7 0 11.5 4.5t4.5 11.5t-4.5 11.5t-11.5 4.5h-59v59q0 8 -4.5 12t-11.5 4t-11.5 -4t-4.5 -12v-59h-59q-7 0 -11.5 -4.5t-4.5 -11.5t4.5 -11.5t11.5 -4.5z" />
</svg>