<svg viewBox="0 0 1024 1024" xmlns="http://www.w3.org/2000/svg">
  <path transform="scale(1, -1) translate(0, -960)" fill="currentColor" d="M878 368h-315v496q0 26 -18.5 45t-45.5 19h-368q-26 0 -45 -19t-19 -45v-832q0 -26 19 -45t45 -19h747q33 0 56.5 23t23.5 57v240q-1 32 -24 56t-56 24v0zM414 0h-200v96q0 41 29.5 71t71.5 30t71.5 -29.5t29.5 -71.5v-96h-2zM531 0h-85v96q0 54 -38.5 93.5t-93.5 39.5 q-56 0 -94.5 -39t-38.5 -94v-96h-50q-13 0 -22.5 9.5t-9.5 22.5v832q0 13 9.5 22.5t22.5 9.5h368q13 0 22.5 -9.5t9.5 -22.5v-864zM925 48q0 -19 -14 -33.5t-34 -14.5h-314v336h315q20 0 34 -14t14 -34v-240h-1zM256 608q7 0 11.5 4.5t4.5 11.5v59h85v-59q0 -7 4.5 -11.5 t11.5 -4.5t11.5 4.5t4.5 11.5v150q0 8 -4.5 12t-11.5 4t-11.5 -4t-4.5 -12v-59h-85v59q0 8 -4.5 12t-11.5 4t-11.5 -4t-4.5 -12v-150q0 -7 5 -11.5t11 -4.5zM392 483h-155q-7 0 -11.5 -4.5t-4.5 -11.5t4.5 -11.5t11.5 -4.5h155q7 0 11.5 4.5t4.5 11.5t-5 11.5t-11 4.5z M392 368h-155q-7 0 -11.5 -4.5t-4.5 -11.5t4.5 -11.5t11.5 -4.5h155q7 0 11.5 4.5t4.5 11.5t-5 11.5t-11 4.5z" />
</svg>