<svg viewBox="0 0 256 256" xmlns="http://www.w3.org/2000/svg">
  <path transform="scale(1, -1) translate(0, -256)" fill="currentColor" d="M224 159h-162v2q0 13 -9.5 22t-22.5 9h-11v29q0 3 -2 5t-5 2t-5 -2t-2 -5v-187q0 -3 2 -5t5 -2t5.5 2t2.5 5v24h218v-24q0 -3 2 -5t5 -2t5 2t2 5v98q-1 11 -9 19t-19 8zM237 132v-21h-218v34h205q5 0 9 -4t4 -9zM122 97v-25h-48v25h48zM136 97h42v-25h-42v25zM30 178 q8 0 13 -5t5 -12v-2h-29v19h11zM19 97h41v-25h-41v25zM192 72v25h45v-25h-45zM207 198h11v-11q0 -3 2 -5t5 -2t5 2t2 5v11h10q3 0 5.5 2t2.5 5t-2.5 5t-5.5 2h-10v10q0 3 -2 5t-5 2t-5 -2t-2 -5v-10h-11q-3 0 -5 -2.5t-2 -5.5t2 -4.5t5 -1.5z" />
</svg>