<svg viewBox="0 0 256 256" xmlns="http://www.w3.org/2000/svg">
  <path transform="scale(1, -1) translate(0, -256)" fill="currentColor" d="M234 181l-55 25v18q0 4 -4 6l-44 20q-3 1 -5 0l-44 -20q-4 -2 -4 -6v-18l-56 -25q-8 -3 -12.5 -10.5t-4.5 -16.5v-124q0 -10 7 -17t17 -7h198q10 0 17 7t7 17v124q0 9 -5 16.5t-12 10.5zM19 29v125q0 5 2.5 9t6.5 5l49 22v-171h-48q-4 1 -7 3.5t-3 6.5zM156 20h-65v200 l37 16l37 -16v-200h-9zM237 29q0 -4 -3 -7t-7 -3h-48v171l49 -22q4 -1 6.5 -5t2.5 -9v-125zM144 191h-9v9q0 3 -2 5.5t-5 2.5t-5.5 -2.5t-2.5 -5.5v-9h-8q-3 0 -5 -2t-2 -5t2 -5t5 -2h9v-9q0 -3 2 -5t5 -2t5.5 2t2.5 5v9h8q3 0 5 2t2 5t-2 5t-5 2z" />
</svg>