<svg viewBox="0 0 1024 1024" xmlns="http://www.w3.org/2000/svg">
  <path transform="scale(1, -1) translate(0, -960)" fill="currentColor" d="M581 787q-7 0 -11.5 -4.5t-4.5 -11.5v-57h-106v57q0 7 -4.5 11.5t-11.5 4.5t-11.5 -4.5t-4.5 -11.5v-147q0 -7 4.5 -11.5t11.5 -4.5t11.5 4.5t4.5 11.5v58h106v-58q0 -7 4.5 -11.5t11.5 -4.5t11.5 4.5t4.5 11.5v149q0 6 -5 10t-11 4zM578 506h-132q-7 0 -11.5 -4.5 t-4.5 -11.5q0 -8 4.5 -12t11.5 -4h132q7 0 11.5 4t4.5 12q0 7 -4.5 11.5t-11.5 4.5zM578 390h-132q-7 0 -11.5 -4t-4.5 -12q0 -7 4.5 -11.5t11.5 -4.5h132q7 0 11.5 4.5t4.5 11.5q0 8 -4.5 12t-11.5 4zM947 501l-177 91v269q0 26 -19 45t-45 19h-388q-26 0 -45 -19t-19 -45 v-269l-177 -91q-21 -11 -33 -30.5t-12 -43.5v-374q0 -34 24 -58t58 -24h796q34 0 58 24t24 58v374q0 24 -12 43.5t-33 30.5v0zM114 3q-21 0 -35.5 14.5t-14.5 35.5v374q0 15 7.5 26.5t19.5 18.5l163 83v-552h-140v0zM611 3h-198v138q0 41 29 70t70 29t70 -29t29 -70v-138v0z M738 3h-95v138q0 54 -38.5 92.5t-92.5 38.5t-92.5 -38.5t-38.5 -92.5v-138h-95v858q0 13 9.5 22.5t22.5 9.5h388q13 0 22.5 -9.5t9.5 -22.5v-858v0zM960 53q0 -21 -14.5 -35.5t-35.5 -14.5h-140v552l163 -83q12 -6 19.5 -18t7.5 -27v-374z" />
</svg>