<svg viewBox="0 0 256 256" xmlns="http://www.w3.org/2000/svg">
  <path transform="scale(1, -1) translate(0, -256)" fill="currentColor" d="M233 180h-45v53q0 8 -5.5 13t-12.5 5h-84q-7 0 -12.5 -5t-5.5 -13v-53h-45q-8 0 -13 -5t-5 -13v-139q0 -8 5 -13t13 -5h210q7 0 12.5 5t5.5 13v139q0 7 -5 12.5t-13 5.5zM105 20v53q0 1 1 1h44q1 0 1 -1v-53h-46zM237 23q0 -2 -1 -3t-3 -1h-68v54q0 6 -4.5 10.5 t-10.5 4.5h-44q-6 0 -10.5 -4.5t-4.5 -10.5v-54h-68q-4 0 -4 4v139q0 4 4 4h52q3 0 5 2t2 5v60q0 4 4 4h84q2 0 3 -1t1 -3v-60q0 -3 2 -5t5 -2h53q1 0 2.5 -1t1.5 -3v-139h-1zM144 202h-9v9q0 3 -2 5t-5 2t-5 -2t-2 -5v-9h-9q-3 0 -5.5 -2.5t-2.5 -5.5t2.5 -5t5.5 -2h9v-9 q0 -3 2 -5t5 -2t5 2t2 5v9h9q3 0 5.5 2t2.5 5t-2.5 5.5t-5.5 2.5zM67 135h-20q-3 0 -5 -2t-2 -5t2 -5.5t5 -2.5h20q3 0 5 2.5t2 5.5t-2 5t-5 2zM138 135h-20q-3 0 -5 -2t-2 -5t2 -5.5t5 -2.5h20q3 0 5 2.5t2 5.5t-2 5t-5 2zM210 135h-20q-3 0 -5.5 -2t-2.5 -5t2.5 -5.5 t5.5 -2.5h20q3 0 5 2.5t2 5.5t-2 5t-5 2zM67 84h-20q-3 0 -5 -2t-2 -5t2 -5t5 -2h20q3 0 5 2t2 5t-2 5t-5 2zM210 84h-20q-3 0 -5.5 -2t-2.5 -5t2.5 -5t5.5 -2h20q3 0 5 2t2 5t-2 5t-5 2z" />
</svg>