<svg viewBox="0 0 256 256" xmlns="http://www.w3.org/2000/svg">
  <path transform="scale(1, -1) translate(0, -256)" fill="currentColor" d="M228 172h-91v56q0 10 -7 16.5t-16 6.5h-86q-10 0 -16.5 -6.5t-6.5 -16.5v-216q0 -3 2 -5t5 -2h232q3 0 5 2t2 5v137q0 10 -6.5 16.5t-16.5 6.5zM19 228q0 4 3 6.5t6 2.5h86q4 0 6.5 -2.5t2.5 -6.5v-209h-29v60q0 3 -2 5t-5 2h-32q-3 0 -5 -2t-2 -5v-60h-29v209zM62 19v53 h18v-53h-18zM237 19h-100v139h91q4 0 6.5 -2.5t2.5 -6.5v-130zM206 124h-12v11q0 3 -2 5t-5 2t-5 -2t-2 -5v-11h-12q-3 0 -5 -2.5t-2 -5.5t2 -5t5 -2h12v-11q0 -3 2 -5.5t5 -2.5t5 2.5t2 5.5v11h12q3 0 5 2t2 5t-2 5.5t-5 2.5zM55 177h32q3 0 5 2t2 5v32q0 3 -2 5.5t-5 2.5 h-32q-3 -1 -5 -3t-2 -5v-32q0 -3 2 -5t5 -2zM62 209h18v-18h-18v18zM55 112h32q3 0 5 2.5t2 5.5v32q0 3 -2 5t-5 2h-32q-3 0 -5 -2t-2 -5v-32q0 -3 2 -5.5t5 -2.5zM62 144h18v-18h-18v18z" />
</svg>