<svg viewBox="0 0 1024 1024" xmlns="http://www.w3.org/2000/svg">
  <path transform="scale(1, -1) translate(0, -960)" fill="currentColor" d="M880 890h-736q-46 0 -79 -33t-33 -79v-660q0 -45 32.5 -78.5t79.5 -33.5h736q46 0 79 33t33 79v660q0 46 -32.5 79t-79.5 33zM144 858h736q32 0 56 -23.5t24 -56.5v-108h-896v108q0 33 23 56.5t57 23.5v0zM880 38h-736q-32 0 -56 23.5t-24 56.5v520h896v-521 q0 -33 -23 -56t-57 -23zM634 378h-106v105q0 7 -4.5 11.5t-11.5 4.5t-11.5 -4.5t-4.5 -11.5v-105h-106q-7 0 -11.5 -4.5t-4.5 -11.5q0 -8 4.5 -12t11.5 -4h106v-106q0 -7 4.5 -11.5t11.5 -4.5t11.5 4.5t4.5 11.5v106h106q7 0 11.5 4t4.5 12q0 7 -5 11.5t-11 4.5z" />
</svg>