<svg viewBox="0 0 1024 1024" xmlns="http://www.w3.org/2000/svg">
  <path transform="scale(1, -1) translate(0, -960)" fill="currentColor" d="M933 645h-194v224q0 25 -17.5 42t-41.5 17h-334q-26 0 -43 -17.5t-17 -41.5v-224h-195q-25 0 -42 -17.5t-17 -41.5v-557q0 -25 17.5 -43t41.5 -18h840q25 0 42 17.5t17 41.5v557q2 25 -15.5 43t-41.5 18v0zM410 3v224q0 7 4 11.5t12 4.5h172q8 0 12 -4.5t4 -11.5v-224 h-204v0zM960 27q0 -12 -8 -19.5t-19 -7.5h-287v227q0 21 -13.5 34.5t-34.5 13.5h-172q-21 0 -34.5 -13.5t-13.5 -34.5v-227h-287q-12 0 -19.5 8t-7.5 19v557q0 12 8 19.5t19 7.5h210q7 0 11.5 4.5t4.5 11.5v240q0 12 8 19.5t19 7.5h334q12 0 20 -8t8 -19v-240q0 -7 4 -11.5 t12 -4.5h209q12 0 19.5 -8t7.5 -19v-557h2zM578 731h-50v50q0 7 -4.5 11.5t-11.5 4.5t-11.5 -4.5t-4.5 -11.5v-50h-50q-7 0 -11.5 -4.5t-4.5 -11.5t4.5 -11.5t11.5 -4.5h50v-49q0 -8 4.5 -12t11.5 -4t11.5 4t4.5 12v49h50q7 0 11.5 4.5t4.5 11.5t-4.5 11.5t-11.5 4.5z M267 464h-80q-7 0 -11.5 -4.5t-4.5 -11.5t4.5 -11.5t11.5 -4.5h80q7 0 11.5 4.5t4.5 11.5t-5 11.5t-11 4.5zM552 464h-80q-7 0 -11.5 -4.5t-4.5 -11.5t4.5 -11.5t11.5 -4.5h80q7 0 11.5 4.5t4.5 11.5t-4.5 11.5t-11.5 4.5zM838 464h-80q-7 0 -11.5 -4.5t-4.5 -11.5 t4.5 -11.5t11.5 -4.5h80q8 0 12 4.5t4 11.5t-5 11.5t-11 4.5zM267 261h-80q-7 0 -11.5 -4.5t-4.5 -11.5t4.5 -11.5t11.5 -4.5h80q7 0 11.5 4.5t4.5 11.5t-5 11.5t-11 4.5zM838 261h-80q-7 0 -11.5 -4.5t-4.5 -11.5t4.5 -11.5t11.5 -4.5h80q8 0 12 4.5t4 11.5t-5 11.5 t-11 4.5z" />
</svg>