<svg viewBox="0 0 1024 1024" xmlns="http://www.w3.org/2000/svg">
  <path transform="scale(1, -1) translate(0, -960)" fill="currentColor" d="M822 274h-48v65q0 7 -4 11.5t-12 4.5q-7 0 -11.5 -4.5t-4.5 -11.5v-65h-48q-7 0 -11.5 -4.5t-4.5 -11.5q0 -8 4.5 -12t11.5 -4h48v-66q0 -7 4.5 -11.5t11.5 -4.5q8 0 12 4.5t4 11.5v66h48q8 0 12 4t4 12q0 7 -5 11.5t-11 4.5zM378 685q-63 0 -107.5 -44.5t-44.5 -107.5 q0 -64 44 -108t108 -44q63 0 107.5 44t44.5 108q0 63 -44.5 107.5t-107.5 44.5zM378 413q-50 0 -85 34.5t-35 85.5q0 49 34.5 84.5t85.5 35.5q49 0 84.5 -35t35.5 -85q0 -49 -35 -84.5t-85 -35.5zM754 496q-9 0 -17 -1t-15 -2q1 9 2 18.5t1 18.5q0 77 -25 141 q-25 63 -70.5 108.5t-109.5 70.5q-63 25 -141 25q-83 1 -147 -22q-65 -23 -109.5 -67t-67.5 -108q-23 -65 -23 -147q0 -93 51 -179q50 -86 112 -152.5t116 -107.5q53 -40 59 -44q2 -1 4.5 -2t4.5 -1q3 0 6 1t5 2l42 38.5t96 97.5q24 -72 86 -118.5t141 -46.5q49 0 93 19 q43 19 75.5 51.5t51.5 75.5t19 93q0 49 -19 92q-19 44 -52 76t-77 51q-43 19 -92 19zM378 80q-21 16 -72 59q-52 43 -105.5 104t-95.5 135q-41 75 -41 153q0 102 33 164q32 62 80 95t102 44q55 11 99 11q71 0 129 -22q58 -23 99 -64t63 -98q22 -58 22 -130q0 -9 -1.5 -20 t-4.5 -23q-75 -22 -123 -84.5t-48 -144.5q0 -9 1 -18t2 -19q-45 -50 -84 -88t-55 -54v0zM754 51q-43 0 -81 16q-37 17 -65 45t-45 65q-16 38 -16 81q0 42 16 80q17 37 45 65t65 45q38 16 81 16q42 0 80 -16q37 -17 65 -45t45 -65q16 -38 16 -80q0 -43 -16 -81 q-17 -37 -45 -65t-65 -45q-38 -16 -80 -16z" />
</svg>