<svg viewBox="0 0 1024 1024" xmlns="http://www.w3.org/2000/svg">
  <path transform="scale(1, -1) translate(0, -960)" fill="currentColor" d="M933 686h-170v52q0 20 -13.5 34t-34.5 14h-9v94q0 20 -14 34t-34 14h-293q-21 0 -34.5 -14t-13.5 -34v-93h-10q-20 0 -34 -13.5t-14 -34.5v-51h-168q-25 0 -42 -17.5t-17 -41.5v-645q0 -7 4.5 -11.5t11.5 -4.5h928q7 0 11.5 4.5t4.5 11.5v643q0 25 -17.5 42t-41.5 17v0z M349 880q0 7 4.5 11.5t11.5 4.5h294q7 0 11.5 -4.5t4.5 -11.5v-93h-326v93v0zM64 627q0 12 8 19.5t19 7.5h168v-654h-195v627zM534 0h-80v254h117v-254h-37zM603 0v270q0 8 -4.5 12t-11.5 4h-149q-7 0 -11.5 -4t-4.5 -12v-270h-129v739q0 7 4.5 11.5t11.5 4.5h409 q8 0 12 -4.5t4 -11.5v-739h-131zM960 0h-197v654h168q12 0 19.5 -8t7.5 -19v-627h2zM586 576h-58v58q0 7 -4.5 11.5t-11.5 4.5t-11.5 -4.5t-4.5 -11.5v-58h-58q-7 0 -11.5 -4.5t-4.5 -11.5t4.5 -11.5t11.5 -4.5h58v-58q0 -7 4.5 -11.5t11.5 -4.5t11.5 4.5t4.5 11.5v58h58 q7 0 11.5 4.5t4.5 11.5t-4.5 11.5t-11.5 4.5z" />
</svg>