<svg viewBox="0 0 1024 1024" xmlns="http://www.w3.org/2000/svg">
  <path transform="scale(1, -1) translate(0, -960)" fill="currentColor" d="M896 560h-661v21q0 47 -33.5 80t-79.5 33h-58v125q0 7 -4.5 11.5t-11.5 4.5t-11.5 -4.5t-4.5 -11.5v-747q0 -7 4.5 -11.5t11.5 -4.5t11.5 4.5t4.5 11.5v106h896v-106q0 -7 4.5 -11.5t11.5 -4.5t11.5 4.5t4.5 11.5v392q0 40 -28 68t-68 28zM960 464v-96h-896v160h832 q26 0 45 -19t19 -45zM499 336v-126h-216v126h216zM531 336h194v-126h-194v126zM122 662q33 0 57 -24t24 -57v-21h-139v102h58zM64 336h187v-126h-187v126zM757 210v126h203v-126h-203zM829 739h53v-53q0 -7 4 -11.5t12 -4.5q7 0 11.5 4.5t4.5 11.5v53h52q8 0 12 4.5t4 11.5 t-4 11.5t-12 4.5h-52v53q0 7 -4.5 11.5t-11.5 4.5q-8 0 -12 -4.5t-4 -11.5v-53h-53q-7 0 -11.5 -4.5t-4.5 -11.5t4.5 -11.5t11.5 -4.5z" />
</svg>