<svg viewBox="0 0 1024 1024" xmlns="http://www.w3.org/2000/svg">
  <path transform="scale(1, -1) translate(0, -960)" fill="currentColor" d="M912 800h-528q-34 0 -57 -23t-23 -57v-77l-240 -27v158q0 8 -4.5 12t-11.5 4t-11.5 -4t-4.5 -12v-651q0 -7 4.5 -11.5t11.5 -4.5t11.5 4.5t4.5 11.5v159l240 -29v-77q0 -34 23 -57t57 -23h528q34 0 57 23t23 57v544q0 34 -23 57t-57 23zM64 314v268l240 29v-328zM960 176 q0 -20 -14 -34t-34 -14h-528q-20 0 -34 14t-14 34v544q0 20 14 34t34 14h528q20 0 34 -14t14 -34v-544zM787 464h-123v123q0 7 -4.5 11.5t-11.5 4.5t-11.5 -4.5t-4.5 -11.5v-123h-123q-7 0 -11.5 -4.5t-4.5 -11.5t4.5 -11.5t11.5 -4.5h123v-123q0 -7 4.5 -11.5t11.5 -4.5 t11.5 4.5t4.5 11.5v123h123q7 0 11.5 4.5t4.5 11.5t-5 11.5t-11 4.5z" />
</svg>