<svg viewBox="0 0 1024 1024" xmlns="http://www.w3.org/2000/svg">
  <path transform="scale(1, -1) translate(0, -960)" fill="currentColor" d="M928 618h-227v156q0 32 -22.5 54.5t-54.5 22.5h-224q-31 0 -54 -22t-23 -55v-156h-227q-26 0 -45 -19t-19 -45v-445q0 -27 19 -45.5t45 -18.5h832q26 0 45 18.5t19 45.5v445q0 26 -19 45t-45 19v0zM355 774q0 18 13 31.5t32 13.5h224q18 0 31.5 -12.5t13.5 -32.5v-350 h-314v350v0zM64 109v445q0 13 9.5 22.5t22.5 9.5h227v-509h-227q-13 0 -22.5 9.5t-9.5 22.5zM355 392h314v-315h-69v152q0 26 -19 45t-45 19h-48q-26 0 -45 -19t-19 -45v-152h-69v315zM456 77v152q0 13 9.5 22.5t22.5 9.5h48q13 0 22.5 -9.5t9.5 -22.5v-152h-112zM960 109 q0 -13 -9.5 -22.5t-22.5 -9.5h-227v509h227q13 0 22.5 -9.5t9.5 -22.5v-445zM440 638h56v-56q0 -7 4.5 -11.5t11.5 -4.5t11.5 4.5t4.5 11.5v56h56q7 0 11.5 4.5t4.5 11.5q0 8 -4.5 12t-11.5 4h-56v56q0 8 -4.5 12t-11.5 4t-11.5 -4t-4.5 -12v-56h-56q-7 0 -11.5 -4t-4.5 -12 q0 -7 5 -11.5t11 -4.5z" />
</svg>