<svg viewBox="0 0 1024 1024" xmlns="http://www.w3.org/2000/svg">
  <path transform="scale(1, -1) translate(0, -960)" fill="currentColor" d="M824 365q-7 0 -11.5 -4.5t-4.5 -11.5v-75h-110v75q0 7 -4.5 11.5t-11.5 4.5q-8 0 -12 -4.5t-4 -11.5v-183q0 -7 4 -11.5t12 -4.5q7 0 11.5 4.5t4.5 11.5v76h110v-76q0 -7 4.5 -11.5t11.5 -4.5t11.5 4.5t4.5 11.5v183q0 7 -4.5 11.5t-11.5 4.5zM378 685 q-63 0 -107.5 -44.5t-44.5 -107.5q0 -64 44 -108t108 -44q63 0 107.5 44t44.5 108q0 63 -44.5 107.5t-107.5 44.5zM378 413q-50 0 -85 34.5t-35 85.5q0 49 34.5 84.5t85.5 35.5q49 0 84.5 -35t35.5 -85q0 -49 -35 -84.5t-85 -35.5zM754 496q-9 0 -17 -1t-15 -2q1 9 2 18.5 t1 18.5q0 71 -27 134q-28 63 -75 110t-109 74q-63 27 -135 27q-72 1 -135 -26t-110 -74t-75 -109q-27 -63 -27 -135q0 -71 50 -153q51 -83 112.5 -154.5t114.5 -121.5q54 -49 59 -54q2 -2 5 -2.5t6 -0.5q4 0 6.5 1t4.5 2l42 38.5t96 97.5q24 -72 86 -118.5t141 -46.5 q49 0 93 19q43 19 75.5 51.5t51.5 75.5t19 93q0 49 -19 92q-19 44 -52 76t-77 51q-43 19 -92 19zM378 82q-21 19 -72 69q-52 51 -105.5 116t-95.5 135q-41 70 -41 129q0 65 25 122q24 57 67 99.5t100 67.5t122 25q64 0 121 -25q58 -25 100.5 -67.5t66.5 -99.5 q25 -57 25 -122q0 -9 -1.5 -20t-4.5 -23q-75 -22 -123 -84.5t-48 -144.5q0 -9 1 -18t2 -19q-43 -50 -82 -87.5t-57 -52.5v0zM754 51q-43 0 -81 16q-37 17 -65 45t-45 65q-16 38 -16 81q0 42 16 80q17 37 45 65t65 45q38 16 81 16q42 0 80 -16q37 -17 65 -45t45 -65 q16 -38 16 -80q0 -43 -16 -81q-17 -37 -45 -65t-65 -45q-38 -16 -80 -16z" />
</svg>