<svg viewBox="0 0 256 256" xmlns="http://www.w3.org/2000/svg">
  <path transform="scale(1, -1) translate(0, -256)" fill="currentColor" d="M225 88h-5l-62 32l68 36h18q3 0 5 2t2 5t-2 5t-5 2h-196l-30 48q-2 2 -4.5 2.5t-5 -1t-3.5 -4t1 -5.5l32 -51q2 -3 6 -3h16l68 -36l-64 -33q-3 1 -8 1q-10 0 -18 -8t-8 -19t7.5 -18.5t18.5 -7.5q8 0 14.5 4.5t9.5 11.5h120q3 -7 9.5 -11.5t14.5 -4.5q11 0 19 8t8 18.5 t-7.5 18.5t-18.5 8zM90 156h106l-53 -28zM205 79q-6 -6 -6 -14h-117q-1 7 -5 13l66 34zM56 49q-5 0 -8.5 3.5t-3.5 9t3.5 9t9 3.5t9 -3.5t3.5 -8.5t-4 -9t-9 -4zM225 49q-5 0 -9 4t-4 9t4 8.5t9 3.5t8.5 -3.5t3.5 -9t-3.5 -9t-8.5 -3.5z" />
</svg>