<svg viewBox="0 0 256 256" xmlns="http://www.w3.org/2000/svg">
  <path transform="scale(1, -1) translate(0, -256)" fill="currentColor" d="M206 110q-3 0 -5 -2t-2 -5v-15h-22v15q0 3 -2 5t-5 2t-5 -2t-2 -5v-45q0 -3 2 -5.5t5 -2.5t5 2.5t2 5.5v15h22v-15q0 -3 2 -5.5t5 -2.5t5 2.5t2 5.5v45q0 3 -2 5t-5 2zM94 190q-16 0 -28 -12t-12 -29t12 -29t28.5 -12t28.5 12t12 29t-12 29t-29 12zM94 122 q-8 0 -14.5 4.5t-9.5 12t-1.5 15.5t7 14t13.5 7.5t15.5 -1.5t12 -10t4.5 -15q0 -11 -7.5 -19t-19.5 -8zM188 143h-4v5q0 25 -12 45.5t-32.5 32.5t-45 12t-45 -12t-32.5 -32.5t-12 -44.5q0 -31 41 -79q21 -24 44 -44q2 -2 4.5 -2t4 1.5t10.5 9.5q10 10 21 22q7 -17 23 -28 t35 -11q17 0 31.5 8.5t23 23t8.5 31.5t-8.5 31.5t-23 22.5t-31.5 8zM94 40q-26 25 -46 51q-29 36 -29 57t10 38.5t27.5 27.5t38 10t38 -10t27.5 -27.5t10 -38.5q0 -4 -1 -8q-19 -6 -31.5 -22.5t-12.5 -37.5l1 -8q-14 -16 -32 -32zM188 32q-20 0 -34 14.5t-14 34.5t14 34.5 t34.5 14.5t34.5 -14.5t14 -34.5t-14.5 -34.5t-34.5 -14.5z" />
</svg>