<svg viewBox="0 0 256 256" xmlns="http://www.w3.org/2000/svg">
  <path transform="scale(1, -1) translate(0, -256)" fill="currentColor" d="M206 88h-9v13q0 3 -2 5t-5 2t-5.5 -2t-2.5 -5v-13h-8q-3 0 -5.5 -2.5t-2.5 -5.5t2.5 -5t5.5 -2h8v-13q0 -3 2.5 -5t5.5 -2t5 2t2 5v13h9q3 0 5 2t2 5t-2.5 5.5t-4.5 2.5zM94 190q-16 0 -28 -12t-12 -29t12 -29t28.5 -12t28.5 12t12 29t-12 29t-29 12zM94 122 q-8 0 -14.5 4.5t-9.5 12t-1.5 15.5t7 14t13.5 7.5t15.5 -1.5t12 -10t4.5 -15q0 -11 -7.5 -19t-19.5 -8zM188 143h-4v5q0 27 -11 47.5t-31.5 31.5t-46.5 11q-43 0 -66.5 -23.5t-23.5 -65.5q0 -29 22 -60q15 -23 40 -45q14 -12 24 -18q2 -2 4.5 -2t3.5 1.5t10 9.5q11 10 21 22 q8 -17 23.5 -28t34.5 -11q17 0 31.5 8.5t23 23t8.5 31.5t-8.5 31.5t-23 22.5t-31.5 8zM94 40q-25 19 -44 41q-31 36 -31 68q0 43 27 62q19 13 48 13q35 0 55.5 -20.5t20.5 -55.5q0 -4 -1 -8q-19 -6 -31.5 -22.5t-12.5 -37.5l1 -8q-13 -14 -32 -32zM188 32q-20 0 -34 14.5 t-14 34.5t14 34.5t34.5 14.5t34.5 -14.5t14 -34.5t-14.5 -34.5t-34.5 -14.5z" />
</svg>