<svg viewBox="0 0 1024 1024" xmlns="http://www.w3.org/2000/svg">
  <path transform="scale(1, -1) translate(0, -960)" fill="currentColor" d="M883 627l-325 283q-20 18 -47 18t-47 -18l-323 -283q-12 -9 -18 -24t-6 -30v-533q0 -30 21 -51t51 -21h142q30 0 51 21t21 51v184q0 17 11.5 28.5t28.5 11.5h143q16 0 28 -11.5t12 -28.5v-184q0 -30 21 -51t51 -21h142q30 0 51 21t21 51v533q-4 15 -10.5 29t-18.5 25v0z M875 40q0 -17 -11.5 -28.5t-28.5 -11.5h-142q-17 0 -28.5 11.5t-11.5 28.5v184q0 30 -21 51t-51 21h-143q-30 0 -51 -21t-21 -51v-184q0 -17 -11.5 -28.5t-28.5 -11.5h-142q-17 0 -28.5 11.5t-11.5 28.5v533q0 8 3.5 16t9.5 14l329 283q11 10 26 10t26 -10l324 -283 q6 -6 9.5 -13.5t3.5 -16.5v-533zM597 634q-7 0 -11.5 -4.5t-4.5 -11.5v-69h-138v69q0 7 -4.5 11.5t-11.5 4.5t-11.5 -4.5t-4.5 -11.5v-170q0 -7 4.5 -11.5t11.5 -4.5t11.5 4.5t4.5 11.5v69h138v-69q0 -7 4.5 -11.5t11.5 -4.5t11.5 4.5t4.5 11.5v170q0 6 -5 11t-11 5z" />
</svg>