<svg viewBox="0 0 256 256" xmlns="http://www.w3.org/2000/svg">
  <path transform="scale(1, -1) translate(0, -256)" fill="currentColor" d="M223 175l-81 71q-6 5 -14 5t-14 -5l-81 -71q-7 -7 -7 -16v-133q0 -9 6 -15t15 -6h35q9 0 15 6t6 15v46q0 3 2 5t5 2h36q2 0 4 -2t2 -5v-46q0 -9 6 -15t15 -6h36q9 0 15 6t6 15v133q0 9 -7 16zM216 26q0 -3 -2 -5t-5 -2h-35q-3 0 -5 2t-2 5v46q0 9 -6 15t-15 6h-36 q-8 0 -14 -6t-6 -15v-46q0 -3 -2 -5t-5 -2h-36q-2 0 -4.5 2t-2.5 5v133q0 4 3 5l81 71q1 2 4 2t5 -2l81 -71q2 -1 2 -5v-133zM149 177q-3 0 -5 -2t-2 -5v-14h-28v14q0 3 -2.5 5t-5 2t-4.5 -2t-2 -5v-42q0 -3 2 -5t5 -2t5 2t2 5v14h29v-14q0 -3 2 -5t5 -2t4.5 2t1.5 5v42 q0 3 -2 5t-5 2z" />
</svg>