<svg viewBox="0 0 256 256" xmlns="http://www.w3.org/2000/svg">
  <path transform="scale(1, -1) translate(0, -256)" fill="currentColor" d="M128 50q8 0 13 6q26 29 43 55q24 37 24 58.5t-10.5 40t-29 29.5t-40.5 11t-40.5 -11t-29 -29.5t-10.5 -40t24 -58.5q17 -26 43 -55q5 -6 13 -6zM128 236q18 0 33 -9t24 -24t9 -33q0 -16 -16.5 -43.5t-46.5 -60.5q-1 -1 -3 -1t-3 1q-30 33 -46.5 60.5t-16.5 43.5 q0 18 9 33t24 24t33 9zM214 102q-3 1 -5.5 0t-3.5 -4t0 -5.5t3 -3.5q14 -6 21.5 -13t7.5 -14q0 -10 -14 -20t-39 -16t-56 -6t-57 6q-24 6 -38 16t-14 20q0 7 8 14t21 13q3 1 4 4t0 5.5t-4 3.5t-5 0q-19 -8 -28.5 -18.5t-9.5 -21.5q0 -16 16 -28.5t44 -20t63 -7.5t63 7.5 t44 20t16 28.5q0 11 -9.5 21.5t-27.5 18.5zM135 148v17h18q3 0 5 2t2 5t-2 5.5t-5 2.5h-18v17q0 3 -2 5t-5 2t-5 -2t-2 -5v-17h-18q-3 0 -5 -2.5t-2 -5.5t2 -5t5 -2h18v-17q0 -3 2 -5.5t5 -2.5t5 2.5t2 5.5z" />
</svg>