<svg viewBox="0 0 256 256" xmlns="http://www.w3.org/2000/svg">
  <path transform="scale(1, -1) translate(0, -256)" fill="currentColor" d="M244 212q-3 0 -5 -2t-2 -5v-25h-92v16q0 8 -5.5 13.5t-13.5 5.5h-102q-8 0 -13.5 -5.5t-5.5 -13.5v-41q0 -12 8.5 -20.5t20.5 -8.5h43l38 -24l-31 -19q-6 5 -15.5 5t-16.5 -7t-7 -16.5t7 -17t17 -7.5t17 7t7 17q0 4 -1 7l36 23l37 -23q-1 -3 -1 -7q0 -9 7 -16.5t17 -7.5 t17 7t7 17t-7.5 17t-16 7t-16.5 -5l-31 20l39 24h42q12 0 20.5 8.5t8.5 20.5v49q0 3 -2 5t-5 2zM69 55q-4 0 -7 3t-3 7t3 7t7 3t7 -3t3 -7t-3 -7t-7 -3zM188 74q4 0 7 -2.5t3 -7t-3 -7.5t-7.5 -3t-7 3t-2.5 7.5t2.5 7t7.5 2.5zM131 196v-16h-30v22h25q2 -1 3.5 -2.5 t1.5 -3.5zM61 180v21h26v-21h-26zM19 196q0 2 1.5 4t3.5 2h24v-22h-29v16zM128 111l-25 15h50zM237 156q0 -6 -4.5 -10.5t-10.5 -4.5h-188q-6 0 -10.5 4.5t-4.5 10.5v10h218v-10z" />
</svg>