<svg viewBox="0 0 1024 1024" xmlns="http://www.w3.org/2000/svg">
  <path transform="scale(1, -1) translate(0, -960)" fill="currentColor" d="M976 773q-7 0 -11.5 -4.5t-4.5 -11.5v-112h-392v77q0 26 -19 45t-45 19h-408q-26 0 -45 -19t-19 -45v-164q0 -42 30 -72t72 -30h176l173 -109l-147 -93q-11 11 -26 17.5t-33 6.5q-35 0 -59 -24t-24 -59t24 -59t59 -24t59 24t24 59q0 9 -2 17t-4 15l160 101l160 -101 q-4 -7 -5.5 -15t-1.5 -17q0 -35 24.5 -59t58.5 -24q35 0 59.5 24t24.5 59t-24.5 59t-59.5 24q-16 0 -31.5 -6.5t-27.5 -17.5l-149 93l173 109h175q42 0 72 30t30 72v199q0 6 -4.5 11t-11.5 5v0zM277 142q-22 0 -36.5 15t-14.5 37q0 21 14.5 36t36.5 15q21 0 36 -15t15 -36 q0 -22 -15.5 -37t-35.5 -15zM750 246q22 0 37 -14.5t15 -36.5q0 -21 -15 -36t-37 -15q-21 0 -36 15t-15 36q0 22 15 36.5t36 14.5zM536 722v-77h-146v109h114q13 0 22.5 -9.5t9.5 -22.5zM234 645v109h126v-109h-126zM64 722q0 13 9.5 22.5t22.5 9.5h106v-109h-138v77z M514 365l-143 89h283l-140 -89v0zM960 558q0 -28 -21 -49t-49 -21h-756q-28 0 -49 21t-21 49v55h896v-55z" />
</svg>