<svg viewBox="0 0 1024 1024" xmlns="http://www.w3.org/2000/svg">
  <path transform="scale(1, -1) translate(0, -960)" fill="currentColor" d="M512 150q13 0 24.5 5.5t20.5 14.5q30 33 75 88t87.5 117.5t72.5 125.5t30 113q0 65 -24 121t-66 98t-99 66q-56 24 -119 24q-65 0 -121 -24q-56 -25 -98 -67t-66 -98t-24 -120q0 -49 30 -113q30 -63 72.5 -125.5t87.5 -117.5t75 -88q6 -10 17.5 -15t24.5 -5v0zM512 891 q58 0 108 -22t87.5 -59.5t59.5 -87.5q22 -51 22 -108q0 -47 -32 -109q-32 -63 -74.5 -124t-85.5 -112q-43 -52 -66 -77q-8 -8 -20.5 -8t-20.5 8q-23 25 -66 77q-43 51 -86 112.5t-74 123.5q-32 63 -32 109q1 58 23 108q23 51 60.5 88.5t88.5 59.5q50 21 108 21v0zM851 331 q-6 3 -12 0.5t-9 -8.5q-2 -6 0 -12t8 -9q58 -25 90 -56t32 -64q0 -36 -36 -68t-97 -56.5t-142 -38.5q-82 -14 -173 -14t-173 14q-81 14 -142 38t-97 56q-36 33 -36 69q0 33 32.5 65t92.5 57q6 2 8 8.5t0 12.5q-3 6 -9 8t-12 0q-70 -29 -107 -68t-37 -83t37 -82 q37 -39 102 -67t153 -44q87 -16 188 -16t188 16q88 16 153 44t102 67q37 38 37 82q0 42 -36 81t-105 68zM496 526q0 -7 4.5 -11.5t11.5 -4.5t11.5 4.5t4.5 11.5v84h83q7 0 11.5 4t4.5 12q0 7 -4.5 11.5t-11.5 4.5h-83v83q0 7 -4.5 11.5t-11.5 4.5t-11.5 -4.5t-4.5 -11.5v-83 h-83q-7 0 -11.5 -4.5t-4.5 -11.5q0 -8 4.5 -12t11.5 -4h83v-84z" />
</svg>