<svg viewBox="0 0 1024 1024" xmlns="http://www.w3.org/2000/svg">
  <path transform="scale(1, -1) translate(0, -960)" fill="currentColor" d="M912 613h-378v235q0 34 -23 57t-57 23h-342q-34 0 -57 -23t-23 -57v-864q0 -7 4.5 -11.5t11.5 -4.5h928q7 0 11.5 4.5t4.5 11.5v549q0 33 -23 56.5t-57 23.5zM64 848q0 20 14 34t34 14h342q21 0 34.5 -14t13.5 -34v-848h-139v253q0 7 -4.5 11.5t-11.5 4.5h-128 q-7 0 -11.5 -4.5t-4.5 -11.5v-253h-139v848zM235 0v237h96v-237h-96zM960 0h-426v581h378q20 0 34 -14t14 -34v-533zM822 419h-59v59q0 8 -4.5 12t-11.5 4t-11.5 -4t-4.5 -12v-59h-59q-7 0 -11.5 -4.5t-4.5 -11.5t4.5 -11.5t11.5 -4.5h59v-59q0 -7 4.5 -11.5t11.5 -4.5 t11.5 4.5t4.5 11.5v59h59q8 0 12 4.5t4 11.5t-5 11.5t-11 4.5zM219 656h128q7 0 11.5 4.5t4.5 11.5v128q0 7 -4.5 11.5t-11.5 4.5h-128q-7 0 -11.5 -4.5t-4.5 -11.5v-128q0 -6 5 -11t11 -5zM235 784h96v-96h-96v96zM219 397h128q7 0 11.5 4.5t4.5 11.5v128q0 7 -4.5 11.5 t-11.5 4.5h-128q-7 0 -11.5 -4.5t-4.5 -11.5v-128q0 -6 5 -11t11 -5zM235 525h96v-96h-96v96z" />
</svg>