<svg viewBox="0 0 1024 1024" xmlns="http://www.w3.org/2000/svg">
  <path transform="scale(1, -1) translate(0, -960)" fill="currentColor" d="M930 650l-226 100v82q0 5 -2.5 9t-7.5 5l-176 79q-3 1 -6.5 1t-5.5 -1l-176 -79q-5 -2 -7.5 -5.5t-2.5 -8.5v-82l-226 -100q-28 -12 -45 -38.5t-17 -57.5v-500q0 -34 24 -58.5t59 -24.5h794q35 0 59 24.5t24 58.5v500q0 31 -17 57.5t-45 38.5v0zM64 53v501q0 21 12 39.5 t31 27.5l213 94v-713h-205q-21 0 -36 15t-15 36v0zM624 2h-272v819l160 72l160 -72v-819h-48zM960 53q0 -22 -15 -36.5t-36 -14.5h-205v713l213 -94q20 -9 31.5 -27.5t11.5 -39.5v-501zM576 690h-48v48q0 7 -4.5 11.5t-11.5 4.5t-11.5 -4.5t-4.5 -11.5v-48h-48 q-7 0 -11.5 -4.5t-4.5 -11.5q0 -8 4.5 -12t11.5 -4h48v-48q0 -8 4.5 -12t11.5 -4t11.5 4t4.5 12v48h48q7 0 11.5 4t4.5 12q0 7 -4.5 11.5t-11.5 4.5z" />
</svg>