<svg viewBox="0 0 256 256" xmlns="http://www.w3.org/2000/svg">
  <path transform="scale(1, -1) translate(0, -256)" fill="currentColor" d="M220 111h-76v121q0 8 -6 13.5t-14 5.5h-92q-7 0 -12.5 -5.5t-5.5 -13.5v-208q0 -8 5.5 -13.5t13.5 -5.5h187q9 0 16 6.5t7 16.5v60q-1 9 -7.5 16t-15.5 7zM101 19h-44v21q0 9 6.5 15.5t15.5 6.5t15.5 -6.5t6.5 -15.5v-21zM130 19h-16v21q0 15 -10.5 25.5t-25.5 10.5 t-25.5 -10.5t-10.5 -25.5v-21h-9q-2 0 -3.5 1.5t-1.5 3.5v208q0 2 1.5 3.5t3.5 1.5h92q2 0 3.5 -1.5t1.5 -3.5v-213zM228 28q0 -4 -2.5 -6.5t-5.5 -2.5h-76v78h76q3 0 5.5 -2.5t2.5 -6.5v-60zM64 165q3 0 5 2t2 5v12h15v-12q0 -3 2.5 -5t5.5 -2t4.5 2t1.5 5v38q0 3 -2 5 t-5 2t-5 -2t-2 -5v-12h-16v12q0 3 -2 5t-5 2t-5 -2t-2 -5v-38q1 -3 3 -5t5 -2zM98 140h-39q-3 0 -5 -2t-2 -5t2 -5t5 -2h39q3 0 5 2t2 5t-2 5t-5 2zM98 111h-39q-3 0 -5 -2t-2 -5t2 -5.5t5 -2.5h39q3 0 5 2.5t2 5.5t-2 5t-5 2z" />
</svg>