<svg viewBox="0 0 1024 1024" xmlns="http://www.w3.org/2000/svg">
  <path transform="scale(1, -1) translate(0, -960)" fill="currentColor" d="M899 277q-6 0 -11 -1t-11 -2l-272 142l296 155h75q7 0 11.5 4.5t4.5 11.5t-4.5 11.5t-11.5 4.5h-790l-125 197q-3 6 -9.5 7t-11.5 -2q-6 -4 -7 -10.5t2 -12.5l130 -204q2 -4 5.5 -6t7.5 -2h64l294 -154l-278 -146q-8 3 -16 5t-18 2q-38 0 -65.5 -27.5t-27.5 -67.5 q0 -39 27.5 -66.5t65.5 -27.5q31 0 54.5 18t33.5 46h498q9 -28 33.5 -46t54.5 -18q38 0 65 27.5t27 66.5q0 40 -26 67.5t-65 27.5v0zM310 570h522l-261 -136l-261 136v0zM571 398l271 -142q-16 -13 -26 -31.5t-10 -40.5h-488q0 19 -7.5 36.5t-20.5 29.5l281 148v0zM226 120 q-26 0 -43.5 18t-17.5 44t17.5 44.5t43.5 18.5q25 0 42.5 -18t17.5 -45q0 -25 -17.5 -43.5t-42.5 -18.5v0zM899 120q-25 0 -43 18t-18 44t18 44.5t43 18.5t43 -18t18 -45q0 -25 -18 -43.5t-43 -18.5z" />
</svg>