<svg viewBox="0 0 256 256" xmlns="http://www.w3.org/2000/svg">
  <path transform="scale(1, -1) translate(0, -256)" fill="currentColor" d="M145 216q-3 0 -5 -2t-2 -5v-12h-20v12q0 3 -2.5 5t-5.5 2t-4.5 -2t-1.5 -5v-37q0 -3 2 -5t5 -2t5 2t2 5v12h21v-12q0 -3 2 -5t5 -2t4.5 2t1.5 5v37q0 3 -2 5t-5 2zM144 145h-32q-3 0 -5.5 -2t-2.5 -5t2.5 -5t5.5 -2h32q3 0 5.5 2t2.5 5t-2.5 5t-5.5 2zM144 116h-32 q-3 0 -5.5 -2t-2.5 -5t2.5 -5t5.5 -2h32q3 0 5.5 2t2.5 5t-2.5 5t-5.5 2zM238 144l-43 22v65q0 8 -5.5 13.5t-13.5 5.5h-96q-8 0 -14 -5.5t-6 -13.5v-65l-42 -22q-6 -3 -9.5 -8.5t-3.5 -12.5v-93q0 -10 7 -17t17 -7h199q9 0 16 7t7 17v93q0 7 -3.5 12.5t-9.5 8.5zM28 20 q-4 0 -6.5 2.5t-2.5 6.5v94q0 6 5 8l36 19v-131h-32v1zM150 20h-44v31q0 9 6.5 15.5t15.5 6.5t15.5 -6.5t6.5 -15.5v-31zM181 20h-17v31q0 15 -10.5 25.5t-25.5 10.5t-25.5 -10.5t-10.5 -25.5v-31h-18v211q0 2 1.5 3.5t4.5 1.5h96q3 0 4.5 -1.5t1.5 -3.5v-211h-1zM237 29 q0 -4 -2.5 -6.5t-6.5 -2.5h-32v130l36 -18q5 -3 5 -9v-94z" />
</svg>