<svg viewBox="0 0 256 256" xmlns="http://www.w3.org/2000/svg">
  <path transform="scale(1, -1) translate(0, -256)" fill="currentColor" d="M181 82h-25v34q19 9 30.5 26t11.5 39q0 19 -9.5 35t-25.5 25.5t-35 9.5t-35.5 -9.5t-26 -25.5t-9.5 -35q0 -22 11.5 -39t30.5 -26v-34h-25q-3 0 -5 -2t-2 -5v-31q0 -16 11.5 -27.5t27.5 -11.5h42q16 0 27.5 11.5t11.5 27.5v31q0 3 -1.5 5t-4.5 2zM184 181q0 -20 -12 -35 t-30 -20q8 12 12.5 26t4.5 29q0 31 -17 55q18 -5 30 -20.5t12 -34.5zM127 231q9 -10 13.5 -23t4.5 -27t-4.5 -27.5t-13.5 -23.5q-9 10 -14 23.5t-5 27.5t5 27t14 23zM72 181q0 19 11 33.5t28 19.5q-17 -24 -17 -53q0 -15 4.5 -29t12.5 -25q-17 5 -28 20t-11 34zM114 112 q9 -2 14 -2q8 0 14 2v-30h-28v30zM174 44q0 -10 -7.5 -17.5t-18.5 -7.5h-41q-10 0 -17.5 7.5t-7.5 17.5v24h92v-24z" />
</svg>