<svg viewBox="0 0 1024 1024" xmlns="http://www.w3.org/2000/svg">
  <path transform="scale(1, -1) translate(0, -960)" fill="currentColor" d="M723 253h-110v157q37 15 68 39q31 25 53 57.5t34 71.5q13 39 13 81q0 56 -21 105t-57.5 85.5t-85.5 57.5t-105 21t-105 -21t-85.5 -57.5t-57.5 -85.5t-21 -105q0 -42 13 -81q12 -39 34.5 -71.5t53.5 -57.5q31 -24 67 -39v-157h-110q-7 0 -11.5 -4.5t-4.5 -11.5v-125 q0 -60 42 -102t102 -42h166q60 0 102 42t42 102v125q0 7 -5 11.5t-11 4.5v0zM749 659q0 -46 -17 -87q-16 -41 -45 -72.5t-68 -51.5t-83 -24q42 46 65 107t23 128q0 66 -23 127.5t-65 107.5q45 -4 84 -24t67.5 -51.5t44.5 -72.5q17 -41 17 -87zM506 878v0h1q41 -42 63 -99 t22 -120q0 -62 -22 -119.5t-63 -99.5l-1 -2q-41 42 -63 99.5t-22 120.5q0 62 22.5 120t62.5 100v0zM275 659q0 45 16 84q15 40 42.5 71t63.5 52q37 20 80 27q-42 -47 -64.5 -107.5t-22.5 -126.5t23 -127t65 -106q-43 6 -80 26q-37 21 -64.5 52t-42.5 71q-16 40 -16 84z M443 398q17 -4 34 -6.5t35 -2.5t35 2.5t34 6.5v-145h-136v145h-2zM707 112q0 -47 -32.5 -79.5t-79.5 -32.5h-166q-47 0 -79.5 32.5t-32.5 79.5v109h390v-109z" />
</svg>