<svg viewBox="0 0 256 256" xmlns="http://www.w3.org/2000/svg">
  <path transform="scale(1, -1) translate(0, -256)" fill="currentColor" d="M251 128q0 10 -4.5 19t-12.5 14q-5 18 -19 29t-33 11h-108q-18 0 -32.5 -11t-18.5 -29q-8 -5 -13 -14t-5 -19t5 -19t13 -14q4 -18 18.5 -29t32.5 -11h108q19 0 33 11t19 29q8 5 12.5 14t4.5 19zM74 187h108q11 0 20 -5t14 -14h-5h-166h-5q5 9 14 14t20 5zM182 69h-108 q-11 0 -20 5t-14 14h171h5q-5 -9 -14 -14t-20 -5zM211 102h-166q-11 0 -18.5 7.5t-7.5 18.5t7.5 18.5t18.5 7.5h166q11 0 18.5 -7.5t7.5 -18.5t-7.5 -18.5t-18.5 -7.5zM196 129l-26 10q-3 1 -6 0l-23 -9l-24 9q-2 1 -5 0l-24 -9l-23 9q-3 1 -5.5 0t-3.5 -4t0 -5.5t4 -3.5 l26 -10q2 -1 5 0l23 9l24 -9q2 -1 5 0l24 9l23 -9h4q2 0 3.5 1t2.5 3.5t0 5t-4 3.5z" />
</svg>