<svg viewBox="0 0 1024 1024" xmlns="http://www.w3.org/2000/svg">
  <path transform="scale(1, -1) translate(0, -960)" fill="currentColor" d="M992 448q0 40 -19 73t-50 52q-14 68 -69 112.5t-126 44.5h-432q-71 0 -125 -44.5t-69 -112.5q-32 -19 -51 -52t-19 -73t19 -73t50 -52q14 -68 69 -112.5t124 -44.5h434q71 0 125 44.5t69 112.5q32 19 51 52t19 73v0zM296 698h434q52 0 94.5 -30t61.5 -78q-9 3 -19.5 5 t-21.5 2h-664q-11 0 -21 -1.5t-21 -5.5q18 48 61 78t96 30v0zM728 198h-432q-53 0 -95 30t-60 78q9 -3 19.5 -5t20.5 -2h664q11 0 20.5 1.5t19.5 5.5q-18 -48 -61 -78t-96 -30zM843 331h-662q-48 0 -82.5 34.5t-34.5 82.5t34.5 82.5t82.5 34.5h664q48 0 82.5 -34.5 t34.5 -82.5t-35.5 -82.5t-83.5 -34.5zM779 442l-105 40q-3 1 -6 1t-6 -1l-99 -39l-99 39q-2 1 -5.5 1t-5.5 -1l-99 -39l-98 39q-6 2 -12 -1t-9 -9q-2 -6 1 -12t9 -9l104 -40q2 -1 5.5 -1t5.5 1l99 39l99 -39q3 -1 6 -1t6 1l99 39l99 -39q1 0 2.5 -0.5t3.5 -0.5q5 0 9.5 2 t5.5 7q2 9 -1 14.5t-9 8.5z" />
</svg>