<svg viewBox="0 0 1024 1024" xmlns="http://www.w3.org/2000/svg">
  <path transform="scale(1, -1) translate(0, -960)" fill="currentColor" d="M925 0h-69v896h69q7 0 11.5 4.5t4.5 11.5t-4.5 11.5t-11.5 4.5h-168q-7 0 -11.5 -4.5t-4.5 -11.5t4.5 -11.5t11.5 -4.5h69v-94h-224v46q0 34 -23.5 57t-56.5 23h-359q-33 0 -56.5 -23t-23.5 -57v-800q0 -34 23.5 -57t56.5 -23h359q33 0 56.5 23t23.5 57v46h222v-94h-69 q-7 0 -11.5 -4.5t-4.5 -11.5t4.5 -11.5t11.5 -4.5h168q7 0 11.5 4.5t4.5 11.5t-4 11.5t-10 4.5zM570 48q0 -20 -14 -34t-34 -14h-359q-20 0 -34 14t-14 34v800q0 20 14 34t34 14h359q20 0 34 -14t14 -34v-800zM602 126v644h222v-644h-222zM437 784h-189q-7 0 -11.5 -4.5 t-4.5 -11.5t4.5 -11.5t11.5 -4.5h187q7 0 11.5 4.5t4.5 11.5t-4 11.5t-10 4.5zM437 576h-189q-7 0 -11.5 -4.5t-4.5 -11.5t4.5 -11.5t11.5 -4.5h187q7 0 11.5 4.5t4.5 11.5t-4 11.5t-10 4.5zM437 366h-189q-7 0 -11.5 -4t-4.5 -12q0 -7 4.5 -11.5t11.5 -4.5h187 q7 0 11.5 4.5t4.5 11.5q0 8 -4 12t-10 4zM437 157h-189q-7 0 -11.5 -4.5t-4.5 -11.5t4.5 -11.5t11.5 -4.5h187q7 0 11.5 4.5t4.5 11.5t-4 11.5t-10 4.5z" />
</svg>