<svg viewBox="0 0 256 256" xmlns="http://www.w3.org/2000/svg">
  <path transform="scale(1, -1) translate(0, -256)" fill="currentColor" d="M128 251q-33 0 -61.5 -16.5t-45 -45t-16.5 -61.5t16.5 -61.5t45 -45t61.5 -16.5t61.5 16.5t45 45t16.5 61.5t-16.5 61.5t-45 45t-61.5 16.5zM128 19q-29 0 -54 14.5t-40 39.5t-15 55t15 54.5t39.5 39.5t54.5 15t55 -15t39.5 -40t14.5 -54.5t-14.5 -54.5t-39.5 -39.5 t-55 -14.5zM166 160q3 0 5 2l13 13q2 2 2.5 5t-2 5t-5 2t-5.5 -2l-13 -13q-2 -2 -2 -5t2 -5t5 -2zM84 94l-13 -13q-2 -2 -2 -5t2 -5t5 -2t5 2l13 13q2 3 2 5.5t-2 5t-5 2.5t-5 -3zM201 135h-19q-3 0 -5 -2t-2 -5t2 -5.5t5 -2.5h19q3 0 5 2.5t2 5.5t-2 5t-5 2zM80 128 q0 3 -2 5t-5 2h-19q-3 0 -5 -2t-2 -5t2 -5t5 -2h19q3 0 5 2t2 5zM172 94q-2 3 -5 3t-5 -2.5t-2.5 -5t2.5 -5.5l13 -13q2 -2 4.5 -2t4.5 2t2.5 5t-2.5 5zM81 185q-2 2 -5 2t-5 -2t-2 -5t2 -5l13 -13q2 -2 5 -2t5 2t2 4.5t-2 5.5zM128 80q-3 0 -5 -2t-2 -5v-19q0 -3 2 -5t5 -2 t5 2t2 5v19q0 3 -2 5t-5 2zM128 208q-3 0 -5 -2t-2 -5v-19q0 -3 2 -5t5 -2t5 2t2 5v19q0 3 -2 5t-5 2z" />
</svg>