<svg viewBox="0 0 1024 1024" xmlns="http://www.w3.org/2000/svg">
  <path transform="scale(1, -1) translate(0, -960)" fill="currentColor" d="M662 448l111 288q12 32 8 65.5t-24 60.5q-21 30 -54.5 47t-70.5 17h-240q-38 0 -71 -17t-54 -47q-19 -28 -23.5 -61.5t7.5 -64.5l111 -288l-111 -288q-12 -32 -8 -65.5t24 -60.5q21 -30 54 -47t71 -17h242q38 0 71 17t53 47q20 28 24 61.5t-8 64.5zM731 51 q-17 -24 -43 -37.5t-56 -13.5h-240q-30 0 -56 13.5t-43 37.5q-16 22 -18.5 47.5t7.5 50.5l110 288q2 6 2 12t-2 12v0l-110 288q-10 24 -7 50t18 47q17 23 43 36.5t56 13.5h242q30 0 56 -13.5t43 -37.5q15 -22 18 -47.5t-7 -50.5l-110 -288q-3 -6 -3 -12t3 -12l110 -288 q8 -24 5.5 -49t-18.5 -47v0z" />
</svg>