<svg viewBox="0 0 1024 1024" xmlns="http://www.w3.org/2000/svg">
  <path transform="scale(1, -1) translate(0, -960)" fill="currentColor" d="M512 928q-99 0 -186 -38q-88 -38 -153 -103t-103 -153q-38 -87 -38 -186t38 -186q38 -88 103 -153t153 -103q87 -38 186 -38t186 38q88 38 153 103t103 153q38 87 38 186t-38 186q-38 88 -103 153t-153 103q-87 38 -186 38zM512 0q-92 0 -174 35q-81 36 -142 97t-97 142 q-35 82 -35 174t35 174q36 81 96.5 142t142.5 97q82 35 174 35t174 -35q81 -36 142 -96.5t97 -142.5q35 -82 35 -174t-35 -174q-36 -81 -96.5 -142t-142.5 -97q-82 -35 -174 -35zM666 586q3 0 5.5 1t5.5 3l53 53q4 5 4 11.5t-4 11.5q-5 4 -11.5 4t-11.5 -4l-53 -53 q-4 -5 -4 -11.5t4 -11.5q3 -2 6 -3t6 -1v0zM347 306l-53 -53q-4 -5 -4 -11.5t4 -11.5q3 -2 6 -3t6 -1q2 0 5 1t6 3l53 53q4 5 4 11.5t-4 11.5q-5 4 -11.5 4t-11.5 -4zM805 464h-75q-8 0 -12 -4.5t-4 -11.5t4 -11.5t12 -4.5h75q7 0 11.5 4.5t4.5 11.5t-5 11.5t-11 4.5z M310 448q0 7 -4 11.5t-12 4.5h-75q-7 0 -11.5 -4.5t-4.5 -11.5t4.5 -11.5t11.5 -4.5h75q6 0 11 4.5t5 11.5zM677 306q-5 4 -11.5 4t-11.5 -4q-4 -5 -4 -11.5t4 -11.5l53 -53q3 -2 6 -3t5 -1q3 0 6 1t6 3q4 5 4 11.5t-4 11.5l-53 53v0zM317 666q-5 4 -11.5 4t-11.5 -4 q-4 -5 -4 -11.5t4 -11.5l53 -53q3 -2 6 -3t5 -1q3 0 6 1t6 3q4 5 4 11.5t-4 11.5zM512 246q-7 0 -11.5 -4t-4.5 -12v-75q0 -7 4.5 -11.5t11.5 -4.5t11.5 4.5t4.5 11.5v75q0 6 -4.5 11t-11.5 5zM512 757q-7 0 -11.5 -4.5t-4.5 -11.5v-75q0 -8 4.5 -12t11.5 -4t11.5 4t4.5 12 v75q0 6 -4.5 11t-11.5 5z" />
</svg>