<svg viewBox="0 0 1024 1024" xmlns="http://www.w3.org/2000/svg">
  <path transform="scale(1, -1) translate(0, -960)" fill="currentColor" d="M870 0h-57v181q0 53 -22 102t-61 83l-69 63q-6 5 -8.5 11.5t-2.5 13.5q0 8 2.5 14.5t8.5 11.5l69 62q39 36 61 84.5t22 101.5v168h57q8 0 12 4.5t4 11.5t-4 11.5t-12 4.5h-716q-8 0 -12 -4.5t-4 -11.5t4 -11.5t12 -4.5h57v-168q0 -53 22 -102t61 -84l69 -62 q6 -5 8.5 -11.5t2.5 -14.5q0 -7 -2.5 -13.5t-8.5 -11.5l-69 -63q-39 -36 -61 -84t-22 -101v-181h-57q-8 0 -12 -4.5t-4 -11.5t4 -11.5t12 -4.5h716q8 0 12 4.5t4 11.5t-5 11.5t-11 4.5zM426 896h171v-163q0 -7 -2.5 -13t-7.5 -11l-75 -77l-75 75q-5 5 -7.5 11.5t-2.5 12.5 v165h-1zM243 181q0 47 18.5 88.5t53.5 72.5l69 63q11 9 16.5 22t5.5 27q0 15 -5.5 27.5t-16.5 22.5l-69 62q-35 32 -53.5 74t-18.5 88v168h151v-163q0 -13 4.5 -26t14.5 -22l86 -87q3 -2 6 -3t5 -1q3 0 6 1t6 3l86 87q10 9 14.5 22t4.5 26v163h151v-168q0 -47 -19 -88.5 t-53 -73.5l-66 -62q-11 -10 -16.5 -22.5t-5.5 -27.5q0 -14 5.5 -27t16.5 -22l69 -63q35 -31 53.5 -73.5t18.5 -87.5v-181h-538v181v0z" />
</svg>