<svg viewBox="0 0 256 256" xmlns="http://www.w3.org/2000/svg">
  <path transform="scale(1, -1) translate(0, -256)" fill="currentColor" d="M185 105h19q3 0 5 2t2 5t-2 5t-5 2h-5v2q0 3 -2 5t-5 2t-5 -2t-2 -5v-2q-7 0 -12 -5t-5 -11.5t5 -11.5t12 -5h8q3 0 3 -3t-3 -3h-18q-3 0 -5 -2t-2 -5t2 -5t5 -2h10v-2q0 -3 2 -5t5 -2t5 2t2 5v2q5 2 8 6.5t3 10.5t-4.5 11t-11.5 5h-9q-3 0 -3 3t3 3zM190 154 q-17 0 -31 -8.5t-22.5 -22.5t-8.5 -31t8.5 -31t22.5 -22.5t30.5 -8.5t31 8.5t22.5 22.5t8 31t-8.5 31t-22.5 22.5t-30 8.5zM190 45q-20 0 -34 14t-14 33.5t14 33.5t33.5 14t33.5 -14t14 -33.5t-14 -33.5t-33 -14zM150 192v22h5q3 0 5 2t2 5t-2 5t-5 2h-143q-3 0 -5 -2t-2 -5 t2 -5t5 -2v0v-22q0 -15 6 -29t17 -25l10 -10l-10 -10q-11 -11 -17 -25t-6 -29v-22v0q-3 0 -5 -2t-2 -5t2 -5t5 -2h100q3 0 5 2t2 5t-2 5t-5 2h-86v22q0 12 5 23.5t14 20.5l15 15q2 2 2 5t-2 5l-15 15q-19 18 -19 44v22h110v-22q0 -12 -4.5 -23.5t-13.5 -20.5l-15 -15 q-2 -2 -2 -5t2 -5l7 -7q2 -2 4.5 -2t4.5 2.5t2 5t-2 4.5l-1 2l10 10q10 11 16 25t6 29z" />
</svg>