<svg viewBox="0 0 256 256" xmlns="http://www.w3.org/2000/svg">
  <path transform="scale(1, -1) translate(0, -256)" fill="currentColor" d="M158 5h-60q-10 0 -19 4.5t-14.5 12.5t-6.5 17t2 17l27 72l-27 71q-3 9 -2 18t6.5 17t14 12.5t19.5 4.5h60q10 0 19 -4.5t14.5 -12.5t6.5 -17t-2 -18l-27 -71l27 -71q3 -9 2 -18t-6.5 -17t-14.5 -12.5t-19 -4.5zM98 237q-7 0 -12.5 -3t-9 -8t-4.5 -11t1 -11l28 -72 q1 -4 0 -8l-28 -72q-2 -5 -1.5 -11t4.5 -11t9.5 -8t12.5 -3h60q7 0 13 3t9.5 8t4 11t-1.5 11l-27 72q-2 4 0 8l27 72q2 5 1.5 11t-4 11t-9.5 8t-13 3h-60zM168 127zM88 127zM168 129z" />
</svg>