<svg viewBox="0 0 256 256" xmlns="http://www.w3.org/2000/svg">
  <path transform="scale(1, -1) translate(0, -256)" fill="currentColor" d="M218 19h-12v42q0 14 -5.5 27t-15.5 22l-17 16q-2 2 -2 4t2 4l17 16q10 9 15.5 22t5.5 27v38h12q3 0 5 2t2 5t-2 5t-5 2h-180q-3 0 -4.5 -2t-1.5 -5t2 -5t5 -2h11v-39q0 -14 5.5 -27t16.5 -22l17 -16q2 -2 2 -4.5t-2 -4.5l-17 -15q-11 -10 -16.5 -22.5t-5.5 -26.5v-42h-12 q-3 0 -5 -2t-2 -5t2 -5t5 -2h180q3 0 5 2t2 5t-2 5.5t-5 2.5zM110 237h36v-38q0 -2 -1 -4l-17 -17l-17 17q-1 2 -1 4v38zM64 61q0 11 4.5 21t12.5 18l17 15q6 5 6 14t-6 16l-17 15q-8 8 -12.5 18t-4.5 21v38h31v-38q0 -9 6 -14l21 -22q2 -2 5 -2t5 2l22 22q5 5 5 14v38h32 v-39q0 -11 -4.5 -21t-12.5 -18l-18 -15q-6 -6 -6 -15t6 -15l18 -16q8 -7 12.5 -17t4.5 -21v-42h-127v43z" />
</svg>