<svg viewBox="0 0 1024 1024" xmlns="http://www.w3.org/2000/svg">
  <path transform="scale(1, -1) translate(0, -960)" fill="currentColor" d="M741 368h73q8 0 12 4.5t4 11.5t-4 11.5t-12 4.5h-28v18q0 7 -4.5 11.5t-11.5 4.5q-8 0 -12 -4.5t-4 -11.5v-18h-13q-23 0 -39.5 -16.5t-16.5 -39.5t16.5 -39.5t39.5 -16.5h33q10 0 17 -7t7 -17t-7 -17t-17 -7h-73q-7 0 -11.5 -4.5t-4.5 -11.5t4.5 -11.5t11.5 -4.5h53v-16 q0 -7 4 -11.5t12 -4.5q7 0 11.5 4.5t4.5 11.5v19q19 4 31.5 19t12.5 36q0 22 -16.5 39t-39.5 17h-33q-10 0 -17 7t-7 17q0 9 7 15.5t17 6.5zM758 539q-48 0 -91 -18q-42 -19 -74 -50.5t-50 -74.5q-18 -42 -18 -90t18 -91q19 -42 50.5 -74t74.5 -50q42 -19 90 -19t91 18 q42 19 74 50.5t50 73.5q19 43 19 92q0 48 -18 91q-19 42 -51 74t-74 50q-43 18 -91 18zM758 102q-42 0 -78 16q-37 16 -64.5 43.5t-42.5 64.5q-16 37 -16 78t16 78t43.5 64.5t63.5 43.5q37 16 78 16q42 0 79 -16t64 -43.5t43 -64.5t16 -78t-16 -78t-43.5 -64.5t-64.5 -43.5 q-36 -16 -78 -16zM589 706v99h30q7 0 11.5 4.5t4.5 11.5t-4.5 11.5t-11.5 4.5h-571q-7 0 -11.5 -4.5t-4.5 -11.5t4.5 -11.5t11.5 -4.5h13v-98q0 -59 22 -113t64 -95l50 -49l-50 -50q-41 -41 -63.5 -95.5t-22.5 -112.5v-98h-13q-7 0 -11.5 -4t-4.5 -12q0 -7 4.5 -11.5 t11.5 -4.5h400q7 0 11.5 4.5t4.5 11.5q0 8 -4.5 12t-11.5 4h-355v98q0 52 20.5 101t56.5 85l60 60q5 5 5 11.5t-5 11.5l-60 61q-38 37 -57.5 84.5t-19.5 100.5v98h464v-98q0 -51 -20.5 -100t-56.5 -85l-61 -61q-2 -3 -3.5 -5.5t-1.5 -5.5q0 -4 1.5 -6.5t3.5 -5.5l27 -27 q3 -2 6 -3.5t6 -1.5q2 0 5 1.5t6 3.5q5 5 5 11.5t-5 11.5l-16 16l49 49q42 40 64.5 94.5t22.5 112.5v0z" />
</svg>