<svg viewBox="0 0 256 256" xmlns="http://www.w3.org/2000/svg">
  <path transform="scale(1, -1) translate(0, -256)" fill="currentColor" d="M244 40h-13v100q0 8 -5.5 13.5t-13.5 5.5v30l8 -5q3 -1 6 0t4.5 3.5t0.5 5t-4 4.5l-54 31q-5 3 -11 3t-11 -3l-55 -31q-2 -2 -3 -4.5t0.5 -5.5t5.5 -3h3l9 5v-30h-66q-8 0 -13.5 -5.5t-5.5 -13.5v-101h-14q-3 0 -5 -2t-2 -5t2 -4.5t5 -1.5h232q3 0 5 2t2 5t-2 5t-5 2z M125 197l33 19q4 2 8 0l32 -18v-38h-73v37zM115 40v56q0 2 1.5 3.5t3.5 1.5h20q2 0 3.5 -1.5t1.5 -3.5v-57h-30v1zM159 40v56q0 8 -5.5 13.5t-13.5 5.5h-20q-8 0 -14 -5.5t-6 -13.5v-57h-60v101q0 2 1.5 4t3.5 2h167q2 0 3.5 -2t1.5 -4v-100h-58z" />
</svg>