<svg viewBox="0 0 1024 1024" xmlns="http://www.w3.org/2000/svg">
  <path transform="scale(1, -1) translate(0, -960)" fill="currentColor" d="M986 741l-29 75q-10 25 -32 40.5t-48 15.5h-730q-26 0 -48 -15.5t-32 -40.5l-29 -75q-7 -21 -4.5 -41.5t14.5 -38.5q10 -15 24 -24t30 -11v-536q0 -27 19 -45.5t45 -18.5h693q27 0 45.5 18.5t18.5 45.5v534q17 4 31 13t24 22q12 18 14 39.5t-6 42.5zM891 88 q0 -13 -9.5 -22.5t-22.5 -9.5h-694q-13 0 -22.5 9.5t-9.5 22.5v534h757v-534h1zM950 678q-7 -10 -19 -17t-25 -7h-788q-13 0 -25 6t-19 18q-8 12 -10 25t3 27l29 75q6 15 20 25t31 10h728q17 0 31 -10t20 -25l29 -75q6 -14 4.5 -27.5t-9.5 -24.5v0zM453 222h120q26 0 45 19 t19 45v120q0 27 -19 45.5t-45 18.5h-120q-27 0 -45.5 -18.5t-18.5 -45.5v-120q0 -26 18.5 -45t45.5 -19v0zM421 406q0 14 9.5 23t22.5 9h120q13 0 22.5 -9t9.5 -23v-120q0 -13 -9.5 -22.5t-22.5 -9.5h-120q-13 0 -22.5 9.5t-9.5 22.5v120v0z" />
</svg>