<svg viewBox="0 0 256 256" xmlns="http://www.w3.org/2000/svg">
  <path transform="scale(1, -1) translate(0, -256)" fill="currentColor" d="M228 250h-200q-9 0 -16 -6.5t-7 -16.5v-121q0 -10 7 -17t17 -7h15q4 0 6 -2l17 -15q2 -2 5 -2t5 2t2 5t-3 5l-16 15q-7 6 -16 6h-16q-3 0 -6 3t-3 7v40l6 -6q2 -2 5 -2t5 2t2 5t-2 5l-16 15v62q0 4 2.5 6.5t6.5 2.5h65v-67h-23q-3 0 -5 -2t-2 -5t2 -5t5 -2h48q3 0 5 2 t2 5t-2 5t-5 2h-11v67h120q4 0 7 -2.5t3 -6.5v-58h-64q-10 0 -17 -7l-16 -15q-2 -2 -2 -5t2 -5t5 -2t5 2l16 15q4 3 7 3h65v-57h-64q-3 0 -5 -2.5t-2 -5.5t2 -5t5 -2h63v-54q0 -4 -2.5 -7t-6.5 -3h-45q-4 0 -7 3t-3 7v4q0 10 -6.5 17t-16.5 7h-5q-4 0 -7 3t-3 6v21l13 13 q2 2 2.5 5t-2 5.5t-5 2.5t-5.5 -3l-13 -13h-27q-3 0 -5 -2t-2 -5t2 -5t5 -2h23v-17q0 -10 7 -17t17 -7h5q4 0 6.5 -2.5t2.5 -6.5v-5q0 -9 7 -16t17 -7h45q9 0 16 7t7 16v199q0 10 -7 16.5t-16 6.5z" />
</svg>