<svg viewBox="0 0 256 256" xmlns="http://www.w3.org/2000/svg">
  <path transform="scale(1, -1) translate(0, -256)" fill="currentColor" d="M159 134l-18 16q-5 4 -12.5 4t-13.5 -4l-18 -16q-7 -6 -7 -15v-24q0 -8 6 -14t14 -6h36q9 0 14.5 6t5.5 14v24q0 9 -7 15zM152 95q0 -3 -1.5 -4.5t-4.5 -1.5h-36q-2 0 -4 1.5t-2 4.5v24q0 2 2 4l18 16q3 2 5 2t3 -2l18 -16q2 -2 2 -4v-24zM218 242q-12 0 -21.5 -7.5 t-10.5 -19.5h-115q-2 12 -11.5 19.5t-22.5 7.5t-22.5 -9.5t-9.5 -23.5v-172q0 -9 7 -16t16 -7h199q10 0 17 6.5t7 16.5v172q0 14 -9.5 23.5t-23.5 9.5zM199 209q0 8 5.5 13.5t13.5 5.5t13.5 -5.5t5.5 -13.5v-113q-8 6 -18.5 6t-19.5 -6v113zM19 209q0 8 5.5 13.5t14 5.5 t14 -5.5t5.5 -13.5v-113q-9 6 -19 6t-20 -6v113zM237 37q0 -4 -2.5 -6.5t-6.5 -2.5h-200q-4 0 -6.5 2.5t-2.5 6.5v32q0 8 5.5 13.5t13.5 5.5t13.5 -5.5t5.5 -13.5v-9q0 -3 2 -5.5t5 -2.5t5.5 2.5t2.5 5.5v141h113v-142q0 -3 2 -5t5 -2t5.5 2t2.5 5v9q0 8 5.5 14t13.5 6 t13.5 -5.5t5.5 -14.5v-31h-1z" />
</svg>