<svg viewBox="0 0 1024 1024" xmlns="http://www.w3.org/2000/svg">
  <path transform="scale(1, -1) translate(0, -960)" fill="currentColor" d="M928 595h-174v88q0 24 -13.5 44t-34.5 30l-218 93q-18 8 -38 6t-37 -13t-27 -29t-10 -38v-35h-280q-26 0 -45 -19t-19 -45v-575q0 -26 19 -45t45 -19h832q26 0 45 19t19 45v429q0 27 -19 45.5t-45 18.5zM64 102v575q0 13 9.5 22.5t22.5 9.5h282v-639h-282 q-13 0 -22.5 9.5t-9.5 22.5zM410 725v51q0 12 5.5 22.5t16.5 17.5t22.5 8t22.5 -5l217 -94q14 -6 21.5 -18t7.5 -25v-613h-313v656v0zM960 102q0 -13 -9.5 -22.5t-22.5 -9.5h-174v493h174q13 0 22.5 -9.5t9.5 -22.5v-429z" />
</svg>