<svg viewBox="0 0 1024 1024" xmlns="http://www.w3.org/2000/svg">
  <path transform="scale(1, -1) translate(0, -960)" fill="currentColor" d="M482 613q2 -3 5 -4t6 -1q2 0 5.5 1t5.5 4l78 70q5 5 5.5 11.5t-3.5 11.5q-5 4 -11.5 4.5t-10.5 -3.5l-68 -61l-24 24q-4 5 -10.5 5t-11.5 -5q-5 -4 -5 -10.5t5 -11.5l34 -35v0zM506 414q1 -1 3 -1h3h3t3 1q70 33 110 68t59.5 79t23.5 100q3 57 -1 133q0 6 -4 10t-8 4 q-29 5 -62.5 20t-56.5 42q-2 3 -5.5 5t-7.5 2h-110q-4 0 -7 -1.5t-6 -5.5q-21 -27 -55 -42.5t-63 -19.5q-6 -1 -9.5 -5.5t-3.5 -8.5q-3 -76 1 -133q4 -56 23.5 -100t59.5 -79t110 -68zM344 779q36 9 67 26t53 40h96q20 -24 52 -41.5t68 -24.5q5 -145 -24 -212t-144 -122 q-114 55 -143.5 122t-24.5 212v0zM976 50h-62v128l19 -16q2 -3 4.5 -3.5t4.5 -0.5q4 0 7.5 1.5t5.5 5.5q5 5 4 12t-5 10l-157 131q-5 4 -10.5 4t-10.5 -4l-112 -94v0v0l-45 -37q-5 -5 -5.5 -11t4.5 -11q4 -5 10.5 -6t11.5 4l19 16v-128h-293v128l20 -16q2 -2 4.5 -2.5 t4.5 -0.5q4 0 7.5 1.5t5.5 4.5q5 5 4 12t-6 11l-156 131q-5 4 -10.5 4t-10.5 -4l-112 -94v0v0l-45 -37q-5 -5 -5.5 -11.5t3.5 -11.5q5 -4 11.5 -5t11.5 4l19 16v-128h-64q-7 0 -11.5 -4.5t-4.5 -11.5t4.5 -11.5t11.5 -4.5h928q7 0 11.5 4.5t4.5 11.5t-4.5 10t-11.5 3v0z M142 50v155l96 80l96 -80v-155h-192v0zM690 50v155l96 80l96 -80v-155h-192v0z" />
</svg>