<svg viewBox="0 0 256 256" xmlns="http://www.w3.org/2000/svg">
  <path transform="scale(1, -1) translate(0, -256)" fill="currentColor" d="M118 167q2 -2 4.5 -2t5.5 2l20 18q2 2 2 5t-2 5t-5 2t-5 -2l-14 -13l-4 4q-2 2 -5 2t-5 -2t-2.5 -5t2.5 -5zM125 117q2 -1 3 -1t3 1q23 11 34 23.5t14 31.5q3 14 1 43q0 2 -1.5 4t-4.5 3q-8 1 -15.5 5t-11.5 9q-2 3 -6 3h-27q-4 0 -6 -3q-4 -5 -11.5 -9t-16.5 -5 q-2 -1 -3.5 -2.5t-2.5 -4.5q0 -29 2 -43q4 -19 15 -31.5t34 -23.5zM89 208q18 5 29 16h21q11 -11 28 -16q1 -24 -1.5 -37.5t-11 -22.5t-26.5 -17q-18 8 -26.5 17.5t-11 22.5t-1.5 37zM244 32h-12v22q2 -1 4.5 -1t4.5 2t2 5t-3 5l-39 33q-2 2 -4.5 2t-4.5 -2l-39 -33 q-2 -2 -2 -4.5t1.5 -5t4.5 -3t5 1.5v-23h-68v23q3 -2 5.5 -2t4.5 2.5t1.5 5.5t-2.5 5l-39 33q-2 2 -4.5 2t-4.5 -2l-39 -33q-2 -2 -2.5 -4.5t1.5 -5t5 -3t5 1.5v-23h-13q-3 0 -5 -2t-2 -5t2 -4.5t5 -1.5h232q3 0 5 2t2 5t-2 5t-5 2zM38 32v34l21 18l21 -18v-34h-42zM176 32 v34l20 18l21 -18v-34h-41z" />
</svg>