<svg viewBox="0 0 256 256" xmlns="http://www.w3.org/2000/svg">
  <path transform="scale(1, -1) translate(0, -256)" fill="currentColor" d="M226 210h-34l-2 -1l-18 -9q-4 -2 -4 -6v-2h-47v38q0 8 -5.5 13.5t-13.5 5.5h-36q-7 0 -13 -5.5t-6 -13.5v-91q0 -8 5.5 -13.5t13.5 -5.5h36q8 0 13.5 5.5t5.5 13.5v39h47v-2q0 -5 4 -7l18 -9h3h34q10 0 17.5 7t7.5 17v1q-1 10 -8 17.5t-18 7.5zM107 139q0 -2 -1.5 -3.5 t-3.5 -1.5h-36q-2 0 -3.5 1.5t-1.5 3.5v91q0 2 1.5 3.5t3.5 1.5h36q2 0 3.5 -1.5t1.5 -3.5v-91zM237 184q0 -4 -3 -7t-8 -3h-32l-12 6v9l12 6h32q5 0 8 -3t3 -8zM148 57v15q0 10 -6.5 16.5t-16.5 6.5h-75q-10 0 -16.5 -6.5t-6.5 -16.5v-15q-9 0 -15.5 -6.5t-6.5 -16.5v-20 q0 -3 2 -5t5 -2h151q3 0 5 2t2 5v20q0 10 -6.5 16.5t-15.5 6.5zM41 72q0 4 3 6.5t6 2.5h76q3 0 6 -2.5t3 -6.5v-15h-94v15zM156 21h-137v13q0 4 3 7t6 3h120q3 0 6 -3t3 -7v-13h-1z" />
</svg>