<svg viewBox="0 0 1024 1024" xmlns="http://www.w3.org/2000/svg">
  <path transform="scale(1, -1) translate(0, -960)" fill="currentColor" d="M891 512q-7 0 -11.5 -4.5t-4.5 -11.5v-437q0 -21 -14.5 -36t-36.5 -15h-622q-22 0 -37 15t-15 36v437q0 7 -4 11.5t-12 4.5q-7 0 -11.5 -4.5t-4.5 -11.5v-437q0 -35 24.5 -59t59.5 -24h622q35 0 59 24t24 59v437q0 6 -5 11t-11 5zM984 632l-427 275q-21 13 -45.5 13 t-45.5 -13l-426 -275q-6 -4 -7 -10t2 -12q4 -6 10.5 -7.5t12.5 2.5l427 277q13 8 28 8t28 -8l427 -276q2 -1 4.5 -2t3.5 -1q4 0 8 2.5t5 5.5q3 5 2 11t-7 10zM362 318l139 -140q2 -3 4.5 -4t6.5 -1t6.5 1t4.5 4l139 140v0v0l10 10q17 17 25.5 38t8.5 44q0 22 -8.5 43 t-25.5 38q-16 17 -36.5 25.5t-43.5 8.5v0v0q-23 0 -43 -8.5t-37 -23.5q-16 15 -36.5 23.5t-43.5 8.5t-43.5 -9t-36.5 -25q-34 -33 -34 -80.5t34 -80.5l10 -12v0v0v0zM374 469q12 12 26.5 18t31.5 6t32 -6t26 -18l9 -10q3 -2 5.5 -3.5t5.5 -1.5q4 0 6.5 1.5t5.5 3.5l9 10 q12 12 27 18t31 6v0v0q17 0 31 -6t26 -18t18 -27.5t6 -31.5q0 -17 -6 -32.5t-18 -27.5l-134 -137l-138 137q-24 26 -24 60t24 59v0z" />
</svg>