<svg viewBox="0 0 1024 1024" xmlns="http://www.w3.org/2000/svg">
  <path transform="scale(1, -1) translate(0, -960)" fill="currentColor" d="M891 512q-7 0 -11.5 -4.5t-4.5 -11.5v-437q0 -21 -14.5 -36t-36.5 -15h-171v296q0 34 -23.5 57t-56.5 23h-122q-33 0 -56.5 -23t-23.5 -57v-298h-169q-22 0 -37 15t-15 37v438q0 7 -4 11.5t-12 4.5q-7 0 -11.5 -4.5t-4.5 -11.5v-437q0 -35 24.5 -59t59.5 -24h624 q34 0 58.5 24t24.5 59v437q-1 6 -6.5 11t-11.5 5v0zM403 6v298q0 20 14 34t34 14h122q20 0 34 -14t14 -34v-298h-218v0zM984 632l-427 275q-21 13 -45.5 13t-45.5 -13l-426 -275q-6 -4 -7 -10t2 -12q4 -6 10.5 -7.5t12.5 2.5l427 277q13 8 28 8t28 -8l427 -276q2 -1 4.5 -2 t3.5 -1q4 0 8 2.5t5 5.5q3 5 2 11t-7 10z" />
</svg>