<svg viewBox="0 0 1024 1024" xmlns="http://www.w3.org/2000/svg">
  <path transform="scale(1, -1) translate(0, -960)" fill="currentColor" d="M891 512q-7 0 -11.5 -4.5t-4.5 -11.5v-437q0 -21 -14.5 -36t-36.5 -15h-622q-22 0 -37 15t-15 36v437q0 7 -4 11.5t-12 4.5q-7 0 -11.5 -4.5t-4.5 -11.5v-437q0 -35 24.5 -59t59.5 -24h622q35 0 59 24t24 59v437q0 6 -5 11t-11 5zM984 632l-427 275q-21 13 -45.5 13 t-45.5 -13l-426 -275q-6 -4 -7 -10t2 -12q4 -6 10.5 -7.5t12.5 2.5l427 277q13 8 28 8t28 -8l427 -276q2 -1 4.5 -2t3.5 -1q4 0 8 2.5t5 5.5q3 5 2 11t-7 10z" />
</svg>