<svg viewBox="0 0 256 256" xmlns="http://www.w3.org/2000/svg">
  <path transform="scale(1, -1) translate(0, -256)" fill="currentColor" d="M208 84h-14v14q0 3 -2 5t-5 2t-5 -2t-2 -5v-14h-14q-3 0 -5 -2t-2 -5t2 -5t5 -2h14v-14q0 -3 2 -5t5 -2t5 2t2 5v14h14q3 0 5.5 2t2.5 5t-2.5 5t-5.5 2zM196 140v35q0 4 -3 6l-89 53q-4 2 -7 0l-27 -16q-1 10 -8.5 17.5t-17.5 7.5h-4q-10 0 -18 -7.5t-8 -18.5v-33l-6 -4 q-3 -2 -3 -6v-86q0 -10 7.5 -18t18.5 -8h48q3 0 5 2.5t2 5.5v51h28v-51q0 -3 2 -5t5 -2h5q4 -22 21.5 -36t40.5 -14q17 0 31.5 8.5t23 23.5t8.5 32q0 24 -15.5 42t-39.5 21zM29 217q0 5 3.5 8.5t8.5 3.5h3q5 0 8.5 -3.5t3.5 -8.5v-7l-28 -17v24h1zM79 135q-3 0 -5 -2t-2 -5 v-51h-41q-5 0 -8.5 3.5t-3.5 8.5v82l81 49l82 -49v-31q-19 -1 -33.5 -12.5t-20.5 -28.5v29q0 3 -2.5 5t-5.5 2h-41zM187 27q-20 0 -34.5 14.5t-14.5 35t14.5 35.5t35 15t35 -14.5t14.5 -35t-14.5 -35.5t-35.5 -15z" />
</svg>