<svg viewBox="0 0 256 256" xmlns="http://www.w3.org/2000/svg">
  <path transform="scale(1, -1) translate(0, -256)" fill="currentColor" d="M100 167q-3 3 -8 3t-8 -3l-18 -14q-4 -3 -4 -10v-26q0 -6 3.5 -9.5t9.5 -3.5h34q6 0 9.5 3.5t3.5 9.5v26q0 6 -4 10zM108 118h-33v24l17 14l16 -14v-24zM228 188q0 4 -2 6l-53 54q-2 3 -6 3h-116q-9 0 -16 -7t-7 -17v-199q0 -9 6.5 -16t16.5 -7h154q10 0 16.5 6.5 t6.5 16.5v160zM174 227l31 -31h-31v31zM70 19v31q0 2 1.5 3.5t4.5 1.5h9v-8q0 -3 2 -5t5 -2t5.5 2t2.5 5v8h22v-16q0 -3 2 -5t5 -2t5 2t2 5v16h22v-8q0 -3 2 -5t5 -2t5 2t2 5v8h10q2 0 4 -1.5t2 -3.5v-31h-118zM205 19h-5v31q0 8 -5.5 13.5t-13.5 5.5h-105q-8 0 -14 -5.5 t-6 -13.5v-31h-5q-4 0 -7 2.5t-3 6.5v200q0 4 3 6.5t7 2.5h109v-48q0 -3 2 -5t5 -2h47v-153q0 -4 -2.5 -7t-6.5 -3z" />
</svg>