<svg viewBox="0 0 256 256" xmlns="http://www.w3.org/2000/svg">
  <path transform="scale(1, -1) translate(0, -256)" fill="currentColor" d="M240 179l-98 69q-6 4 -14 4t-15 -4l-97 -69q-5 -3 -8 -8.5t-3 -12.5v-129q0 -10 7.5 -17.5t17.5 -7.5h195q11 0 18 7.5t7 17.5v129q1 6 -2 11.5t-8 9.5zM169 18h-82v51q0 6 5 9l29 20q3 2 6.5 2.5t6.5 -2.5l29 -20q5 -3 5 -9v-51h1zM237 29q0 -5 -3 -8t-8 -3h-43v51 q0 13 -11 21l-29 20q-7 5 -15 5t-14 -5l-30 -20q-5 -4 -8 -9.5t-3 -11.5v-51h-43q-4 0 -7.5 3t-3.5 8v129q0 6 5 10l98 68q3 2 6 2t6 -2l98 -68q5 -3 5 -10v-129z" />
</svg>