<svg viewBox="0 0 1024 1024" xmlns="http://www.w3.org/2000/svg">
  <path transform="scale(1, -1) translate(0, -960)" fill="currentColor" d="M958 0h-100v397q0 29 -18 51.5t-46 29.5l-188 48v200q0 26 -14 47t-37 32l-269 117q-19 8 -40.5 6t-39.5 -13q-18 -12 -28 -30.5t-10 -39.5v-845h-102q-8 0 -12 -4.5t-4 -11.5t4 -11.5t12 -4.5h891q7 0 11.5 4.5t4.5 11.5t-4.5 11.5t-10.5 4.5v0zM200 843q0 13 6 25 t18 20q11 7 24.5 8.5t25.5 -3.5l268 -115q15 -6 23.5 -19.5t8.5 -28.5v-192l-49 12q-19 5 -38.5 1.5t-35.5 -15.5q-15 -12 -24 -29.5t-9 -37.5v-469h-218v843v0zM589 0h-139v466q0 12 5.5 23t14.5 18q10 7 22 9.5t23 0.5l269 -69q18 -5 29 -19t11 -32v-397h-235z" />
</svg>