<svg viewBox="0 0 1024 1024" xmlns="http://www.w3.org/2000/svg">
  <path transform="scale(1, -1) translate(0, -960)" fill="currentColor" d="M478 445q-7 0 -11.5 -4.5t-4.5 -11.5v-224q0 -12 -8 -20.5t-20 -8.5h-277q-12 0 -20.5 8.5t-8.5 20.5v224q0 7 -4.5 11.5t-11.5 4.5t-11.5 -4.5t-4.5 -11.5v-224q0 -25 18 -43t43 -18h277q25 0 42.5 18t17.5 43v224q0 7 -4 11.5t-12 4.5zM550 544l-224 133q-14 8 -31 8 t-31 -8l-224 -133q-6 -4 -7.5 -10t1.5 -12q2 -4 5.5 -6t8.5 -2h4t4 1l224 133q7 4 15 4t14 -4l224 -133q6 -3 12.5 -1t9.5 8q4 6 2.5 12t-7.5 10zM992 550q0 83 -41 142.5t-98 59.5q-58 0 -98.5 -59t-40.5 -143q0 -76 35.5 -133.5t87.5 -66.5v-192q0 -7 4.5 -11.5t11.5 -4.5 t11.5 4.5t4.5 11.5v192q51 10 87 67t36 133zM853 382q-45 0 -76 49.5t-31 120.5t31 120.5t76 49.5q44 -2 75.5 -51.5t31.5 -120.5q0 -70 -31.5 -119t-75.5 -49z" />
</svg>