<svg viewBox="0 0 256 256" xmlns="http://www.w3.org/2000/svg">
  <path transform="scale(1, -1) translate(0, -256)" fill="currentColor" d="M223 147q-3 0 -5 -2t-2 -5v-110q0 -4 -3 -7t-7 -3h-156q-4 0 -7 3t-3 7v110q0 3 -2 5t-5 2t-5 -2t-2 -5v-109q0 -10 7.5 -17t16.5 -7h156q10 0 17 7t7 17v109q0 3 -2.5 5t-4.5 2zM248 177l-107 69q-6 4 -13 3.5t-13 -3.5l-107 -69q-2 -2 -2.5 -4.5t1 -5t4.5 -3t5 0.5 l107 69q2 1 5 1t6 -1l106 -69q2 -1 4.5 -1t5 3t1.5 5.5t-3 4.5zM88 94l35 -36q2 -2 5 -2t5 2l37 38q9 9 9 22.5t-9 22.5t-21.5 9t-20.5 -7q-10 7 -20 7q-14 0 -23 -9t-9 -22.5t9 -22.5zM96 131q5 5 12.5 5t12.5 -5l2 -3q2 -2 5 -2t5 2l2 3q5 5 12.5 5t12.5 -5t5 -12.5 t-5 -12.5l-32 -33l-32 33q-5 5 -5 12.5t5 12.5z" />
</svg>