<svg viewBox="0 0 1024 1024" xmlns="http://www.w3.org/2000/svg">
  <path transform="scale(1, -1) translate(0, -960)" fill="currentColor" d="M906 762h-136q-3 0 -4.5 -0.5t-2.5 -1.5l-72 -35q-3 -3 -6 -6.5t-3 -8.5v-20h-210v166q0 26 -19 45t-45 19h-142q-27 0 -45.5 -19t-18.5 -45v-363q0 -27 18.5 -45.5t45.5 -18.5h142q26 0 45 18.5t19 45.5v166h211v-21q0 -4 2.5 -8t7.5 -6l72 -35q1 -1 3 -1.5t3 -0.5h136 q36 0 61.5 25.5t25.5 61.5v1q-2 36 -27 61.5t-61 25.5zM440 493q0 -13 -9.5 -22.5t-22.5 -9.5h-142q-14 0 -23 9.5t-9 22.5v363q0 13 9 22.5t23 9.5h142q13 0 22.5 -9.5t9.5 -22.5v-363zM960 674q0 -23 -16 -39t-38 -16h-132l-59 29v53l59 29h132q22 0 38 -16t16 -39v-1v0z M589 154h-8v70q0 34 -23.5 57t-56.5 23h-301q-34 0 -57 -23t-23 -57v-70h-8q-34 0 -57 -23.5t-23 -56.5v-82q0 -7 4.5 -11.5t11.5 -4.5h605q7 0 11.5 4.5t4.5 11.5v82q0 32 -23.5 56t-56.5 24zM152 224q0 20 14 34t34 14h301q20 0 34 -14t14 -34v-70h-397v70v0zM637 8h-573 v66q0 20 14 34t34 14h477q20 0 34 -14t14 -34v-66z" />
</svg>