<svg viewBox="0 0 256 256" xmlns="http://www.w3.org/2000/svg">
  <path transform="scale(1, -1) translate(0, -256)" fill="currentColor" d="M185 198l-80 37q-7 3 -14 0l-82 -37q-3 -1 -4 -4t0.5 -6t6.5 -3q2 0 2 1l6 2v-82q0 -9 6.5 -15.5t15.5 -6.5h110q9 0 15.5 6.5t6.5 15.5v82l5 -2q2 -2 5 -1t4 4t0 5.5t-3 3.5zM160 126h-19q-4 0 -6.5 2t-2.5 6v6q0 4 2.5 6t6.5 2h19v-22zM97 222q1 1 3 0l60 -28v-3h-126 v3zM34 149h20q3 0 5.5 -2.5t2.5 -6.5v-5q0 -4 -2.5 -6.5t-5.5 -2.5h-20v23zM152 98h-110q-3 0 -5.5 2t-2.5 6v6h20q9 0 15.5 6.5t6.5 15.5v6q0 9 -6.5 15.5t-15.5 6.5h-20v15h126v-15h-19q-9 0 -16 -6.5t-7 -15.5v-6q0 -9 7 -15.5t16 -6.5h19v-6q0 -4 -2.5 -6t-5.5 -2z M167 68q-3 0 -5 -2.5t-2 -5.5v-10h-121v10q0 3 -2 5.5t-5 2.5t-5.5 -2.5t-2.5 -5.5v-34q0 -3 2.5 -5t5.5 -2t5 2t2 5v10h121v-10q0 -3 2.5 -5t5.5 -2t5 2t2 5v34q0 4 -2.5 6t-5.5 2zM244 98h-10v112h10q3 0 5 2t2 5t-2 5t-5 2h-34q-3 0 -5 -2.5t-2 -5.5t2 -5t5 -2h10v-112 h-10q-3 0 -5 -2t-2 -5t2 -5t5 -2h34q3 0 5 2t2 5t-2 5.5t-5 2.5z" />
</svg>