<svg viewBox="0 0 1024 1024" xmlns="http://www.w3.org/2000/svg">
  <path transform="scale(1, -1) translate(0, -960)" fill="currentColor" d="M733 718l-317 146q-11 5 -23.5 5t-22.5 -5l-269 -120v0v0l-59 -27q-6 -3 -8.5 -9t0.5 -12q2 -4 5.5 -6t8.5 -2h3t3 2l37 16v-346q0 -32 23 -55t56 -23h438q32 0 55 23t23 55v346l36 -16q6 -3 12 -0.5t8 8.5q3 4 0.5 10.5t-9.5 9.5v0zM123 542h90q19 0 32.5 -13.5 t13.5 -32.5v-22q0 -20 -13.5 -33.5t-32.5 -13.5h-90v115v0zM608 314h-438q-20 0 -33.5 13.5t-13.5 32.5v37h90q32 0 55 23t23 55v23q0 32 -23 55t-55 23h-90v82h530v-84h-90q-32 0 -55 -23t-23 -55v-22q0 -33 23 -56t55 -23h90v-35q0 -19 -13 -32.5t-32 -13.5v0zM653 427 h-90q-19 0 -32.5 13.5t-13.5 33.5v22q0 19 13.5 32.5t32.5 13.5h90v-115v0zM653 690h-530v30l259 115q5 3 10.5 3t10.5 -3l250 -115v-30zM669 195q-7 0 -11.5 -4.5t-4.5 -11.5v-51h-511v51q0 7 -4 11.5t-12 4.5q-7 0 -11.5 -4.5t-4.5 -11.5v-136q0 -7 4.5 -11.5t11.5 -4.5 q8 0 12 4.5t4 11.5v51h511v-51q0 -7 4.5 -11.5t11.5 -4.5t11.5 4.5t4.5 11.5v136q0 6 -4.5 11t-11.5 5zM976 314h-51v472h51q7 0 11.5 4t4.5 12q0 7 -4.5 11.5t-11.5 4.5h-136q-7 0 -11.5 -4.5t-4.5 -11.5q0 -8 4.5 -12t11.5 -4h51v-472h-51q-7 0 -11.5 -4.5t-4.5 -11.5 q0 -8 4.5 -12t11.5 -4h136q7 0 11.5 4t4.5 12q0 7 -4.5 11.5t-11.5 4.5z" />
</svg>