<svg viewBox="0 0 1024 1024" xmlns="http://www.w3.org/2000/svg">
  <path transform="scale(1, -1) translate(0, -960)" fill="currentColor" d="M954 643l-391 274q-23 15 -51 15t-51 -15l-391 -274q-18 -12 -28 -32t-10 -41v-517q0 -37 26 -63.5t64 -26.5h780q38 0 64 26.5t26 63.5v517q0 21 -10 40.5t-28 32.5v0zM686 -5h-348v216q0 15 6.5 27t17.5 20l116 81q15 11 33.5 11t32.5 -11l117 -81q12 -9 18 -21.5 t6 -25.5v-216h1zM960 53q0 -24 -17 -41t-41 -17h-184v216q0 22 -10 41.5t-28 32.5l-117 81q-23 16 -51 16t-51 -16l-117 -81q-18 -12 -28 -32t-10 -42v-216h-184q-24 0 -41 17t-17 41v517q0 14 6.5 26.5t17.5 19.5l390 275q8 5 16 7.5t18 2.5t17.5 -2.5t16.5 -7.5l390 -273 q12 -9 18 -21.5t6 -25.5v-518v0z" />
</svg>