<svg viewBox="0 0 1024 1024" xmlns="http://www.w3.org/2000/svg">
  <path transform="scale(1, -1) translate(0, -960)" fill="currentColor" d="M557 525q-19 17 -44 17t-44 -17l-72 -64q-11 -10 -17 -23t-6 -28v-96q0 -28 20 -48t48 -20h145q28 0 47.5 20t19.5 48v96q0 14 -5.5 27.5t-16.5 23.5zM619 315q0 -14 -10.5 -24.5t-24.5 -10.5h-146q-14 0 -24.5 10.5t-10.5 24.5v96q0 7 3.5 14t9.5 13l72 64q5 5 10.5 6.5 t11.5 1.5t12 -2t11 -6l72 -64q6 -4 9.5 -11t3.5 -16v-96h1zM872 893q-47 0 -81.5 -32t-38.5 -79h-480q-4 46 -38.5 78.5t-81.5 32.5q-49 0 -84.5 -35.5t-35.5 -84.5v-688q0 -34 24 -58t58 -24h795q33 0 57 24t24 58v686q2 51 -33.5 86.5t-84.5 35.5v0zM64 726v45q0 36 26 62 t62 26t62 -26t26 -62v-480q-17 18 -39.5 28.5t-48.5 10.5t-48.5 -10.5t-39.5 -28.5v435v0zM960 85q0 -21 -14.5 -35.5t-35.5 -14.5h-796q-21 0 -35.5 14.5t-14.5 35.5v126q0 36 26 62t62 26t62 -26t26 -62v-37q0 -7 4.5 -11.5t11.5 -4.5t11.5 4.5t4.5 11.5v576h478v-577 q0 -7 4.5 -11.5t11.5 -4.5q8 0 12 4.5t4 11.5v37q0 36 26 62t62 26t62 -26t26 -62v-125h2zM872 331q-26 0 -49 -10t-39 -28v478q0 36 26 62t62 26t62 -25t26 -61v-480q-17 17 -39.5 27.5t-48.5 10.5z" />
</svg>