<svg viewBox="0 0 256 256" xmlns="http://www.w3.org/2000/svg">
  <path transform="scale(1, -1) translate(0, -256)" fill="currentColor" d="M249 202l-7 19q-3 7 -9 11.5t-14 4.5h-182q-8 0 -14.5 -4.5t-8.5 -11.5l-8 -19q-4 -12 3 -23q5 -7 13 -9v-132q0 -8 5.5 -14t13.5 -6h173q8 0 14 6t6 14v132q8 2 12 8t5 12t-2 12zM220 38q0 -2 -2 -3.5t-4 -1.5h-173q-2 0 -3.5 1.5t-1.5 3.5v131h183v-131h1zM235 187 q-3 -5 -9 -5h-196q-6 0 -9 5t-1 10l7 19q1 3 4 5t6 2h182q3 0 6 -2t4 -5l7 -19q2 -5 -1 -10zM113 69h30q8 0 13.5 5.5t5.5 13.5v30q0 8 -5.5 13.5t-13.5 5.5h-30q-8 0 -13.5 -5.5t-5.5 -13.5v-30q0 -8 5.5 -13.5t13.5 -5.5zM108 118q0 2 1.5 3t3.5 1h30q2 0 3.5 -1.5 t1.5 -2.5v-30q0 -3 -1.5 -4.5t-3.5 -1.5h-30q-2 0 -3.5 1.5t-1.5 4.5v30z" />
</svg>