<svg viewBox="0 0 256 256" xmlns="http://www.w3.org/2000/svg">
  <path transform="scale(1, -1) translate(0, -256)" fill="currentColor" d="M100 171l-4 -25q-1 -4 2 -6q2 -2 4 -2t4 1l22 12l22 -12l3 -1q2 0 4 2q3 2 3 6l-4 25l18 18q3 3 1.5 7t-5.5 5l-25 3l-11 23q-2 4 -6.5 4t-6.5 -4l-11 -23l-25 -3q-4 -1 -5.5 -5t1.5 -7zM116 191q4 1 6 4l6 13l6 -13q2 -3 6 -4l14 -2l-10 -10q-3 -2 -2 -6l2 -14l-14 7h-2 h-3l-13 -8l2 15q1 3 -2 6l-10 10zM244 39h-12v23q2 -2 4.5 -2t4.5 2.5t2 5.5t-3 5l-39 33q-2 1 -4.5 1t-4.5 -1l-39 -33q-2 -2 -2 -5t1.5 -5t4.5 -2.5t5 1.5v-23h-68v23q3 -2 5.5 -2t4.5 2t1.5 5t-2.5 5l-39 34q-2 1 -4.5 1t-4.5 -1l-39 -33q-2 -2 -2.5 -5t1.5 -5t5 -2.5 t5 1.5v-23h-13q-3 0 -5 -2t-2 -5t2 -5t5 -2h232q3 0 5 2t2 5t-2 5t-5 2zM38 39v35l21 17l21 -17v-35h-42zM176 39v35l20 17l21 -17v-35h-41z" />
</svg>