<svg viewBox="0 0 1024 1024" xmlns="http://www.w3.org/2000/svg">
  <path transform="scale(1, -1) translate(0, -960)" fill="currentColor" d="M394 595q-11 10 -26 10t-26 -10l-68 -56q-8 -6 -11.5 -14t-3.5 -18v-104q0 -17 12.5 -29t29.5 -12h137q17 0 29.5 12t12.5 29v104q0 10 -3.5 18t-10.5 14l-72 56v0zM446 403q0 -3 -3 -6t-6 -3h-138q-3 0 -6 3t-3 6v104q0 3 1 4t2 3l69 56q1 1 2.5 1h3.5h3t3 -1l69 -56 l2 -4t1 -3v-104v0zM902 690q0 3 -1 6.5t-3 4.5t-2 2t-2 3l-208 212q-1 2 -1.5 2t-1.5 2l-6 4t-8 2h-1h-1h-2h-3h-457q-35 0 -59 -24t-24 -58v-795q0 -33 24 -57t57 -24h616q34 0 58 24t24 57v634v2v1q1 1 1 1.5v0.5v0zM685 874l163 -168h-163v168zM270 0v136q0 13 9.5 22.5 t22.5 9.5h50v-43q0 -7 4.5 -11.5t11.5 -4.5t11.5 4.5t4.5 11.5v43h112v-78q0 -8 4.5 -12t11.5 -4t11.5 4t4.5 12v78h112v-43q0 -7 4.5 -11.5t11.5 -4.5t11.5 4.5t4.5 11.5v43h53q13 0 22.5 -9.5t9.5 -22.5v-136h-487zM819 0h-32v136q0 26 -18.5 45t-45.5 19h-421 q-26 0 -45 -19t-19 -45v-136h-33q-21 0 -35.5 14.5t-14.5 35.5v796q-1 21 13.5 35.5t36.5 14.5h449v-206q0 -8 4.5 -12t11.5 -4h200v-624q0 -21 -14.5 -35.5t-36.5 -14.5v0z" />
</svg>