<svg viewBox="0 0 1024 1024" xmlns="http://www.w3.org/2000/svg">
  <path transform="scale(1, -1) translate(0, -960)" fill="currentColor" d="M976 82h-64v416q0 26 -19 45t-45 19h-11v152l51 -29q6 -4 12.5 -2t9.5 8q4 6 2 12.5t-8 10.5l-218 121q-18 10 -38 10t-38 -10l-221 -123q-6 -4 -8 -10t1 -12q3 -4 6.5 -6t8.5 -2h3.5t4.5 1l51 29v-152h-277q-26 0 -45 -19t-19 -45v-416h-67q-7 0 -11.5 -4.5t-4.5 -11.5 t4.5 -11.5t11.5 -4.5h928q7 0 11.5 4.5t4.5 11.5t-4.5 12.5t-11.5 5.5zM488 731l138 77q10 6 22.5 6t21.5 -6l135 -75v-1.5v-1.5v-167h-317v165v1.5v1.5v0zM446 82v238q0 13 9.5 22.5t22.5 9.5h82q13 0 22.5 -9.5t9.5 -22.5v-238h-146zM624 82v238q0 26 -19 45t-45 19h-82 q-26 0 -45 -19t-19 -45v-238h-267v416q0 13 9.5 22.5t22.5 9.5h669q13 0 22.5 -9.5t9.5 -22.5v-416h-256z" />
</svg>