<svg viewBox="0 0 1024 1024" xmlns="http://www.w3.org/2000/svg">
  <path transform="scale(1, -1) translate(0, -960)" fill="currentColor" d="M976 144h-62v562q0 32 -23 55t-56 23h-437q-32 0 -55 -23t-23 -55v-172h-144q-26 0 -45 -18.5t-19 -45.5v-326h-64q-7 0 -11.5 -4.5t-4.5 -11.5t4.5 -11.5t11.5 -4.5h928q7 0 11.5 4.5t4.5 11.5t-4.5 11.5t-11.5 4.5zM336 144h-192v326q0 14 9.5 23t22.5 9h371 q13 0 22.5 -9t9.5 -23v-326h-243v0zM613 144v326q0 27 -19 45.5t-45 18.5h-197v172q0 19 13.5 32.5t32.5 13.5h437q19 0 33 -13.5t14 -32.5v-562h-269z" />
</svg>