<svg viewBox="0 0 1024 1024" xmlns="http://www.w3.org/2000/svg">
  <path transform="scale(1, -1) translate(0, -960)" fill="currentColor" d="M834 259h-68v67q0 8 -4 12t-12 4q-7 0 -11.5 -4t-4.5 -12v-67h-67q-7 0 -11.5 -4.5t-4.5 -11.5t4.5 -11.5t11.5 -4.5h67v-67q0 -7 4.5 -11.5t11.5 -4.5q8 0 12 4.5t4 11.5v67h68q7 0 11.5 4.5t4.5 11.5t-5 11.5t-11 4.5zM773 485v149q0 3 -2.5 7.5t-5.5 6.5l-354 216 q-3 2 -7.5 2t-8.5 -2l-125 -75v16q-1 37 -28.5 64t-65.5 27h-14q-38 0 -65 -27t-27 -66v-136l-30 -19q-4 -2 -6 -5.5t-2 -7.5v-344q0 -38 27 -64.5t64 -26.5h192q7 0 11.5 4.5t4.5 11.5v214h135v-216q0 -7 4 -11.5t12 -4.5h24h2h1q8 -42 30 -78t54 -63t71 -42q40 -15 85 -15 q50 0 94 19q45 20 78 53t52 77t19 94q0 48 -17 90t-46.5 74.5t-69.5 52.5q-40 21 -86 25v0zM102 803q0 25 18 43t43 18h13q25 0 42 -17.5t17 -41.5v-37l-134 -82v117h1zM507 230h-8v216q0 8 -4.5 12t-11.5 4h-166q-7 0 -11.5 -4t-4.5 -12v-216h-176q-25 0 -42 18t-17 42v336 l336 204l337 -204v-140q-48 -1 -91 -21t-74.5 -53t-49.5 -76q-18 -44 -18 -93v-5.5t1 -7.5v0v0v0zM749 32q-44 0 -82 17q-39 16 -67.5 44.5t-45.5 67.5q-16 38 -16 82t16 82q17 39 45.5 67.5t67.5 45.5q38 16 82 16t82 -16q39 -17 67.5 -45.5t44.5 -67.5q17 -38 17 -82 t-17 -82q-16 -39 -44.5 -67.5t-67.5 -44.5q-38 -17 -82 -17z" />
</svg>