<svg viewBox="0 0 256 256" xmlns="http://www.w3.org/2000/svg">
  <path transform="scale(1, -1) translate(0, -256)" fill="currentColor" d="M223 147q-3 0 -5 -2t-2 -5v-110q0 -4 -3 -7t-7 -3h-40v72q0 10 -7 16.5t-16 6.5h-31q-9 0 -16 -6.5t-7 -16.5v-71h-39q-5 0 -7.5 3t-2.5 7v109q0 3 -2.5 5t-5 2t-4.5 -2t-2 -5v-109q0 -10 7.5 -17t16.5 -7h156q10 0 17 7t7 17v109q0 3 -2.5 5t-4.5 2zM104 21v71 q0 4 2.5 6.5t6.5 2.5h31q3 0 6 -2.5t3 -6.5v-71h-49zM248 177l-107 69q-6 4 -13 3.5t-13 -3.5l-107 -69q-2 -2 -2.5 -4.5t1 -5t4.5 -3t5 0.5l107 69q2 1 5 1t6 -1l106 -69q2 -1 4.5 -1t5 3t1.5 5.5t-3 4.5z" />
</svg>