<svg viewBox="0 0 256 256" xmlns="http://www.w3.org/2000/svg">
  <path transform="scale(1, -1) translate(0, -256)" fill="currentColor" d="M232 168h-40v19q0 7 -4 12.5t-10 8.5l-55 23q-5 3 -11 2.5t-10.5 -4t-7.5 -8.5t-3 -11v-6h-67q-8 0 -13.5 -5.5t-5.5 -13.5v-143q0 -8 5.5 -14t13.5 -6h208q8 0 13.5 6t5.5 14v107q0 8 -5.5 13.5t-13.5 5.5zM19 42v143q0 2 1.5 3.5t3.5 1.5h68v-153h-68q-2 0 -3.5 1.5 t-1.5 3.5zM105 197v13q0 5 4 7.5t9 0.5l54 -23q6 -3 6 -8v-150h-73v160zM237 42q0 -3 -1.5 -4.5t-3.5 -1.5h-40v118h40q2 0 3.5 -1.5t1.5 -3.5v-107z" />
</svg>