<svg viewBox="0 0 1024 1024" xmlns="http://www.w3.org/2000/svg">
  <path transform="scale(1, -1) translate(0, -960)" fill="currentColor" d="M413 626l-18 -104q-1 -5 1 -9.5t6 -6.5q3 -3 7.5 -3.5t9.5 1.5l95 50l94 -50q1 -1 3.5 -1.5t4.5 -0.5t4.5 1t5.5 3t5 6.5t1 9.5l-18 104l77 73q4 4 5 8.5t0 7.5q-1 5 -4.5 7.5t-8.5 3.5l-105 16l-47 96q-3 9 -14 9t-15 -9l-46 -96l-106 -16q-4 -1 -7.5 -3.5t-4.5 -7.5 q-2 -5 -0.5 -9t4.5 -7l71 -73v0zM464 712q4 0 7 3t6 5l37 74l36 -74q2 -4 5 -6t8 -2l82 -11l-59 -58q-3 -2 -4 -6.5t-1 -7.5l14 -82l-73 39q-2 1 -4 1h-4h-4.5t-3.5 -1l-74 -39l14 82q2 3 0 7.5t-4 6.5l-60 58l82 11v0zM976 82h-62v128l19 -16q2 -3 4.5 -3.5t4.5 -0.5 q4 0 7.5 1.5t5.5 5.5q5 5 4 12t-5 10l-157 131q-5 4 -10.5 4t-10.5 -4l-112 -94v0v0l-45 -37q-5 -5 -5.5 -11t4.5 -11q4 -5 10.5 -6t11.5 4l19 16v-128h-293v128l20 -16q2 -2 4.5 -2.5t4.5 -0.5q4 0 7.5 1.5t5.5 4.5q5 5 4 12t-6 11l-156 131q-5 4 -10.5 4t-10.5 -4 l-112 -94v0v0l-45 -37q-5 -5 -5.5 -11.5t3.5 -11.5q5 -4 11.5 -5t11.5 4l19 16v-128h-64q-7 0 -11.5 -4.5t-4.5 -11.5t4.5 -11.5t11.5 -4.5h928q7 0 11.5 4.5t4.5 11.5t-4.5 10t-11.5 3v0zM142 82v155l96 80l96 -80v-155h-192v0zM690 82v155l96 80l96 -80v-155h-192v0z" />
</svg>