<svg viewBox="0 0 256 256" xmlns="http://www.w3.org/2000/svg">
  <path transform="scale(1, -1) translate(0, -256)" fill="currentColor" d="M183 198h-99q-8 0 -11 -5l-1 -1q-4 -5 -3 -11l6 -35q1 -4 4.5 -7t8.5 -3h84l-9 -43l-33 -14l-34 13l-3 21q-1 3 -3 4.5t-5 1t-4.5 -2.5t-1.5 -5l4 -22q2 -7 8 -9l35 -14q1 -1 4 -1t5 1l34 15q6 2 8 9l9 45q1 6 -3 10.5t-10 4.5h-84l-6 34h100q3 0 5 2t2 5t-2 5t-5 2z M240 245q-5 5 -11 7.5t-12 2.5h-178q-13 0 -22.5 -10.5t-7.5 -23.5l21 -177q2 -10 8 -17t16 -9l67 -16l7 -1q3 0 7 1l67 16q10 2 16 9t8 17l21 177q2 13 -7 24zM233 223l-21 -177q-1 -5 -4.5 -9t-7.5 -5l-68 -16q-4 -1 -8 0l-67 16q-5 1 -8.5 4.5t-4.5 9.5l-21 177 q-1 7 4 12.5t13 5.5h177q7 0 12 -5.5t4 -12.5z" />
</svg>