<svg viewBox="0 0 1024 1024" xmlns="http://www.w3.org/2000/svg">
  <path transform="scale(1, -1) translate(0, -960)" fill="currentColor" d="M563 910q-23 18 -51 18t-51 -18q-40 -31 -101 -86t-118 -125.5t-97 -153.5q-41 -82 -41 -167q-1 -85 31 -160q32 -74 87.5 -129.5t130.5 -88.5q74 -32 159 -32t159 32q75 33 130.5 88.5t87.5 129.5q33 75 33 160t-41 167t-98.5 152.5t-118.5 126.5q-61 55 -101 86z M480 885q7 6 15.5 8.5t16.5 2.5t16.5 -2.5t15.5 -8.5q39 -31 98 -84t114 -120t94 -145q40 -78 40 -158v-6v-6l-106 61q-19 12 -41.5 12t-43.5 -12l-85 -49q-12 -8 -26 -8t-26 8l-85 49q-19 12 -42.5 12t-42.5 -12l-85 -49q-12 -8 -26.5 -8t-26.5 8l-113 67q16 71 58 139 q42 67 93 125t102 103q51 46 86 73v0zM512 0q-78 0 -147 30q-68 30 -119.5 81t-81.5 120t-30 147q0 8 0.5 16.5t1.5 16.5l102 -61q20 -12 43 -12t42 12l85 50q12 7 26.5 7t26.5 -7l85 -50q19 -12 42 -12t42 12l85 50q12 7 26.5 7t26.5 -7l118 -69q-9 -70 -41 -131 q-33 -60 -83 -104.5t-114 -70.5q-64 -25 -136 -25v0z" />
</svg>