<svg viewBox="0 0 256 256" xmlns="http://www.w3.org/2000/svg">
  <path transform="scale(1, -1) translate(0, -256)" fill="currentColor" d="M143 246q-7 5 -15 5t-15 -5q-32 -25 -55 -54q-35 -44 -35 -82q0 -28 14 -52t38 -38.5t53 -14.5t53 14.5t38 38.5t14 52q0 38 -35 82q-23 29 -55 54zM122 235q3 2 6 2t6 -2q30 -24 51 -49q33 -40 34 -73l-21 13q-6 3 -12.5 3t-11.5 -3l-22 -13q-5 -3 -10 0l-21 13 q-6 3 -12.5 3t-11.5 -3l-21 -13q-5 -3 -10 0l-27 16q8 30 37 63q20 23 46 43zM128 19q-25 0 -46 12.5t-33 33.5t-12 45v4l21 -13q6 -3 12.5 -3.5t11.5 3.5l22 12q5 3 10 0l21 -12q6 -3 12 -3.5t12 3.5l21 12q5 3 10 0l28 -16q-3 -22 -15.5 -40t-32 -28t-42.5 -10z" />
</svg>