<svg viewBox="0 0 1024 1024" xmlns="http://www.w3.org/2000/svg">
  <path transform="scale(1, -1) translate(0, -960)" fill="currentColor" d="M984 594l-427 238q-19 11 -41.5 11t-41.5 -11l-434 -238q-6 -4 -8 -10.5t2 -12.5q2 -3 5.5 -5.5t8.5 -2.5q2 0 4 0.5t4 1.5l117 64q-1 -1 -1.5 -3t-0.5 -4v-505q0 -27 19 -45.5t45 -18.5h554q26 0 45 18.5t19 45.5v507q0 2 -1 4t-1 4l119 -66q6 -3 12 -1t10 8 q1 5 -0.5 11t-7.5 10v0zM821 118q0 -13 -9.5 -22.5t-22.5 -9.5h-554q-13 0 -22.5 9.5t-9.5 22.5v490h618v-490zM190 640l300 163q12 7 25.5 7t25.5 -7l294 -163h-645v0z" />
</svg>