<svg viewBox="0 0 256 256" xmlns="http://www.w3.org/2000/svg">
  <path transform="scale(1, -1) translate(0, -256)" fill="currentColor" d="M246 174l-52 18v31q0 3 -2.5 5t-5.5 2t-5 -2t-2 -5v-26l-82 30q-5 2 -10.5 1t-10.5 -4l-68 -51q-2 -2 -2.5 -5t1 -5t4.5 -2.5t5 1.5l13 9v-123q0 -9 6.5 -15.5t15.5 -6.5h141q9 0 15.5 6.5t6.5 15.5v122l28 -10h2q5 0 6.5 3.5t0 6.5t-4.5 4zM200 48q0 -3 -2.5 -5.5 t-5.5 -2.5h-141q-3 0 -5.5 2.5t-2.5 5.5v134l41 30q4 3 8 2l107 -38v-128h1zM64 148v-26q0 -3 2 -5.5t5 -2.5h26q3 0 5 2.5t2 5.5v26q0 3 -2 5t-5 2h-26q-3 0 -5 -2t-2 -5zM78 141h12v-13h-12v13zM140 114h26q3 0 5.5 2.5t2.5 5.5v26q0 3 -2.5 5t-5.5 2h-26q-3 0 -5 -2 t-2 -5v-26q0 -3 2 -5.5t5 -2.5zM147 141h12v-13h-12v13zM97 95h-26q-3 0 -5 -2t-2 -5v-26q0 -3 2 -5.5t5 -2.5h26q3 0 5 2.5t2 5.5v26q0 3 -2 5t-5 2zM90 69h-12v12h12v-12zM140 55h26q3 0 5.5 2t2.5 5v26q0 3 -2.5 5t-5.5 2h-26q-3 0 -5 -2t-2 -5v-26q0 -3 2 -5t5 -2z M147 81h12v-12h-12v12z" />
</svg>