<svg viewBox="0 0 1024 1024" xmlns="http://www.w3.org/2000/svg">
  <path transform="scale(1, -1) translate(0, -960)" fill="currentColor" d="M888 718q0 59 -42 101t-102 42q-28 0 -52.5 -10t-43.5 -27q-20 47 -64.5 75.5t-98.5 28.5q-61 0 -108.5 -36.5t-62.5 -93.5q-14 8 -28.5 12t-31.5 4q-49 0 -84.5 -34.5t-35.5 -83.5q0 -35 18.5 -63t47.5 -43l234 -563q10 -26 33 -41t51 -15q29 0 51.5 15.5t33.5 42.5 l243 587q2 2 2 4.5t-2 5.5q21 15 31.5 39.5t10.5 52.5v0zM744 829q47 0 79.5 -32.5t32.5 -78.5q0 -45 -32.5 -77.5t-79.5 -32.5q-32 0 -60 17.5t-41 46.5q10 18 14.5 38t4.5 42q0 10 -1 18.5t-3 18.5q16 18 39 29t47 11v0zM485 896q49 0 89 -30t52 -77q2 -10 3 -18.5 t1 -18.5q0 -19 -4.5 -37t-14.5 -35q-19 -34 -53 -53t-73 -19q-34 0 -63.5 15t-50.5 41q3 7 4 15.5t1 16.5q0 24 -9 45t-25 38q9 49 49.5 83t93.5 34v0zM168 694q0 36 26 61.5t62 25.5t62 -25.5t26 -61.5t-26 -61t-62 -25t-62 25t-26 61zM576 37q-8 -21 -25 -29t-31 -8t-31 8 t-25 29l-224 539q4 0 7.5 -1t6.5 -1q16 0 30.5 4t27.5 11v0v0q13 7 24 17.5t19 22.5q12 -12 26.5 -22.5t29.5 -16.5l1 -0.5l1 -0.5h0.5h0.5q17 -7 34.5 -11t36.5 -4q18 0 35.5 4t34.5 11q1 0 1.5 0.5t1.5 0.5q20 9 36.5 21.5t29.5 28.5q10 -16 24 -28.5t30 -21.5l2 -1h2 q14 -7 30 -11t32 -4t31 3.5t30 9.5z" />
</svg>