<svg viewBox="0 0 1024 1024" xmlns="http://www.w3.org/2000/svg">
  <path transform="scale(1, -1) translate(0, -960)" fill="currentColor" d="M827 419h-62q7 10 11.5 22.5t4.5 25.5v40q0 31 -21.5 54t-52.5 26q9 10 13.5 22.5t4.5 25.5v40q0 34 -23.5 57t-56.5 23h-2q7 57 -16 110t-24 55q-2 5 -6.5 6.5t-9.5 1.5q-5 -1 -8 -3.5t-5 -7.5q-14 -53 -66 -101.5t-68 -60.5h-61q-33 0 -56.5 -23t-23.5 -57v-40 q0 -14 4.5 -26t13.5 -22q-30 -2 -52 -24.5t-22 -55.5v-40q0 -13 4.5 -25.5t11.5 -22.5h-62q-7 0 -11.5 -4.5t-4.5 -11.5t4.5 -11.5t11.5 -4.5h80l33 -329q4 -39 32.5 -64.5t67.5 -25.5h206q38 0 67 25.5t32 64.5l34 329h80q7 0 11.5 4.5t4.5 11.5t-5.5 11.5t-12.5 4.5v0z M590 872q10 -23 18 -55t3 -62h-120q23 21 52 51.5t47 65.5zM331 675q0 21 14 34.5t34 13.5h245v0v0v0v0h21q20 0 34 -13.5t14 -34.5v-40q0 -20 -14 -34t-34 -14h-266q-20 0 -34 14t-14 34v40v0zM275 507q0 21 14 34.5t34 13.5h379q21 0 34.5 -13.5t13.5 -34.5v-40 q0 -20 -13.5 -34t-34.5 -14h-379q-20 0 -34 14t-14 34v40v0zM352 32q-4 6 -7 14t-4 16l-11 117l177 210h143zM323 387h143l-140 -165l-16 165h13v0zM614 0h-56l133 157l-9 -96q-3 -27 -22 -44t-46 -17zM698 213v0v0l-181 -213h-107q-10 0 -18.5 2.5t-15.5 7.5l315 377h24 l-17 -174v0z" />
</svg>