<svg viewBox="0 0 256 256" xmlns="http://www.w3.org/2000/svg">
  <path transform="scale(1, -1) translate(0, -256)" fill="currentColor" d="M207 124h-11q2 5 2 9v10q0 8 -4.5 14t-11.5 8q2 5 2 10v10q0 9 -5.5 15.5t-14.5 7.5q1 17 -10 39l-1 1q-3 4 -7 3.5t-6 -5.5q-2 -9 -13 -21q-8 -9 -18 -17h-15q-9 0 -16 -6.5t-7 -16.5v-10q0 -5 3 -10q-8 -2 -12.5 -8t-4.5 -14v-10q0 -4 2 -9h-10q-3 0 -5 -2t-2 -5t2 -5 t5 -2h17l8 -80q2 -11 10 -18t18 -7h52q11 0 19 7t9 18l8 80h18q3 0 5 2t2 5t-2.5 5t-5.5 2zM89 30v1l-3 29l42 50h28zM147 227q4 -11 3 -19h-19v0q12 12 16 19zM86 185q0 3 2.5 6t6.5 3h66q4 0 6.5 -2.5t2.5 -6.5v-10q0 -4 -2.5 -6.5t-6.5 -2.5h-66q-4 0 -6.5 2.5t-2.5 6.5 v10zM72 143q0 3 2.5 6t5.5 3h95q4 0 6.5 -2.5t2.5 -6.5v-10q0 -4 -2.5 -6.5t-6.5 -2.5h-94q-4 0 -6.5 2.5t-2.5 6.5v10zM81 110h29l-26 -31zM154 19h-8l23 27l-2 -15q0 -5 -4 -8.5t-9 -3.5zM172 70l-44 -51h-29l75 91h1z" />
</svg>