<svg viewBox="0 0 256 256" xmlns="http://www.w3.org/2000/svg">
  <path transform="scale(1, -1) translate(0, -256)" fill="currentColor" d="M225 196q0 16 -11.5 27t-27.5 11q-12 0 -23 -7q-6 11 -17 17.5t-25.5 6.5t-26.5 -8.5t-17 -22.5q-6 2 -13 2q-14 0 -23.5 -9.5t-9.5 -22.5q0 -10 4.5 -17.5t12.5 -11.5l58 -140q3 -8 9 -12t14.5 -4t15 4t9.5 12l61 147l1 2q9 11 9 26zM186 220q10 0 17.5 -7.5t7.5 -17.5 t-7.5 -17.5t-17.5 -7.5q-7 0 -13 4t-9 10q4 10 4 20v8q8 8 18 8zM121 237q12 0 21 -7t12 -18q1 -4 1 -8q0 -9 -4.5 -17t-12.5 -12.5t-16 -4.5t-14.5 3.5t-11.5 8.5l1 7q0 12 -8 22q2 11 11 18.5t21 7.5zM64 208q8 0 13.5 -5.5t5.5 -13t-5.5 -13t-13.5 -5.5t-13.5 5.5 t-5.5 13t5.5 13t13.5 5.5zM141 26q-3 -7 -11 -7t-11 7l-54 131q8 0 15 4h1q6 4 9 8q6 -6 12 -8l2 -1q8 -4 18 -4t19 4l1 1q8 4 14 10q6 -6 12 -10l2 -1q9 -4 17 -4q5 0 9 2z" />
</svg>