<svg viewBox="0 0 1024 1024" xmlns="http://www.w3.org/2000/svg">
  <path transform="scale(1, -1) translate(0, -960)" fill="currentColor" d="M512 -32q-17 0 -29.5 11t-15.5 27l-46 383l-35 -144q-4 -15 -16 -24.5t-28 -9.5q-15 0 -27 10t-14 25l-37 183l-66 -259q-3 -16 -16 -25.5t-28 -8.5q-16 1 -28 12t-14 28l-83 656q-3 18 3 35.5t18 31.5q12 15 28 22t34 7v0v0v0h800q18 0 35 -8t29 -21q12 -14 17 -31.5 t2 -35.5l-83 -619q-2 -16 -14 -26.5t-28 -12.5q-16 -1 -28.5 9.5t-15.5 26.5l-29 126l-74 -243q-5 -15 -16 -23.5t-25 -8.5q-15 0 -26.5 8.5t-15.5 23.5l-56 179l-27 -266q-3 -15 -15.5 -26.5t-29.5 -11.5v0zM427 493h1h-1q6 0 10.5 -4.5t5.5 -10.5l56 -467q0 -5 4 -8t9 -3 t8.5 3t4.5 8l35 344q0 6 4 9.5t10 5.5q6 0 11 -3t7 -9l78 -254q2 -4 5 -6t7 -2q3 0 6.5 2t4.5 6l91 299q1 5 5.5 8t10.5 3t9.5 -3t4.5 -9l42 -188q1 -4 4.5 -6.5t8.5 -2.5t8 3t3 8l83 619q1 11 -2 22t-11 20q-7 9 -17 14t-21 5h-800v0v0q-11 0 -21 -4.5t-17 -13.5 q-8 -8 -12 -19t-1 -22l83 -658q0 -5 3 -7.5t8 -3.5q5 0 8.5 2.5t4.5 7.5l82 328q1 6 5.5 9t10.5 3t10 -3t6 -9l51 -253q1 -5 4 -7.5t7 -2.5t8 2.5t5 7.5l56 227q1 6 5 9.5t9 3.5v0z" />
</svg>