<svg viewBox="0 0 256 256" xmlns="http://www.w3.org/2000/svg">
  <path transform="scale(1, -1) translate(0, -256)" fill="currentColor" d="M128 5q-5 0 -9 3.5t-5 8.5l-10 79l-5 -20q-1 -4 -5 -7t-9 -3t-8.5 3t-4.5 8l-7 32l-13 -52q-1 -5 -5 -8t-9 -2.5t-9 4t-4 8.5l-21 165q-1 11 6 19t18 8h200q5 0 10 -2.5t8 -6.5t4.5 -9t1.5 -10l-21 -155q-1 -5 -4.5 -8.5t-8.5 -3.5t-9.5 3t-5.5 8l-4 21l-15 -50 q-2 -5 -5.5 -7.5t-8.5 -2.5t-8.5 2.5t-5.5 7.5l-9 31l-5 -52q-1 -5 -5 -8.5t-9 -3.5zM107 142v0q3 0 4.5 -2t2.5 -4l14 -117l9 86q1 3 2.5 4.5t4 2t4.5 -1t3 -3.5l19 -64l23 75q1 3 3 4t4 1t4 -1.5t2 -3.5l11 -47l21 155q0 4 -3 7.5t-7 3.5h-200q-5 0 -8 -3.5t-2 -7.5 l20 -165l21 82q0 3 2 4.5t4.5 1t4.5 -2t2 -3.5l14 -63l14 57q1 2 2.5 3.5t4.5 1.5z" />
</svg>