<svg viewBox="0 0 256 256" xmlns="http://www.w3.org/2000/svg">
  <path transform="scale(1, -1) translate(0, -256)" fill="currentColor" d="M232 201h-97v29q0 3 -2 5t-5 2t-5 -2t-2 -5v-29h-97q-8 0 -13.5 -5.5t-5.5 -13.5v-144q0 -7 5.5 -13t13.5 -6h208q8 0 13.5 5.5t5.5 13.5v144q0 8 -5.5 13.5t-13.5 5.5zM237 38q0 -2 -1.5 -3.5t-3.5 -1.5h-208q-2 0 -3.5 1.5t-1.5 3.5v144q0 2 1.5 3.5t3.5 1.5h208 q2 0 3.5 -1.5t1.5 -3.5v-144zM80 114q11 0 19 8t8 19.5t-8 19.5t-19.5 8t-19.5 -8t-8 -19.5t8 -19.5t20 -8zM80 155q5 0 9 -4t4 -9.5t-4 -9.5t-9.5 -4t-9.5 4t-4 9.5t4 9.5t10 4zM80 100q-15 0 -25 -10t-10 -24q0 -3 2 -5.5t5 -2.5t5 2.5t2 5.5q0 8 6 14t15 6t15 -6t6 -14 q0 -3 2 -5.5t5 -2.5t5 2.5t2 5.5q-1 14 -11 24t-24 10zM197 154h-51q-3 0 -5 -2t-2 -5t2 -5t5 -2h51q3 0 5 2t2 5t-2 5t-5 2zM197 118h-51q-3 0 -5 -2t-2 -5t2 -5t5 -2h51q3 0 5 2t2 5t-2 5t-5 2zM179 75h-33q-3 0 -5 -2t-2 -5t2 -5.5t5 -2.5h33q3 0 5 2.5t2 5.5t-2 5t-5 2z " />
</svg>