<svg viewBox="0 0 256 256" xmlns="http://www.w3.org/2000/svg">
  <path transform="scale(1, -1) translate(0, -256)" fill="currentColor" d="M239 107l-13 12l1 9l-1 10l13 11q5 5 6 12.5t-2 14.5l-17 28q-3 7 -10.5 9.5t-14.5 0.5l-16 -5q-7 5 -16 9l-4 17q-1 7 -7 12t-14 5h-32q-8 0 -14 -5t-7 -12l-4 -17q-9 -3 -16 -9l-16 5q-7 2 -14.5 -0.5t-10.5 -9.5l-17 -28q-3 -7 -2 -14t6 -12l13 -12l-1 -9l1 -10 l-13 -11q-5 -5 -6 -12.5t2 -13.5l17 -29q3 -6 10.5 -9t14.5 -1l16 5q7 -5 16 -9l4 -17q1 -7 7 -11.5t14 -4.5h32q8 0 14 4.5t7 11.5l4 17q9 4 16 9l16 -5q7 -2 14.5 1t10.5 9l17 28q3 7 2 14t-6 12zM231 88l-17 -29q-1 -2 -3.5 -3t-4.5 0l-20 6q-3 1 -6 -1q-8 -7 -19 -11 q-4 -2 -4 -5l-5 -20q0 -3 -2 -4.5t-5 -1.5h-33q-2 0 -4 1.5t-3 4.5l-5 20q-1 3 -4 5q-11 4 -19 11q-3 1 -4.5 1h-2.5l-20 -6q-2 -1 -4.5 0t-3.5 4l-17 28q-2 5 1 9l15 14q3 2 3 6l-1 11l1 11q0 4 -3 6l-15 14q-1 2 -1.5 4.5t0.5 4.5l16 28q1 3 3.5 3.5t5.5 0.5l19 -6 q3 -2 7 1q8 7 19 11q3 1 4 5l4 20q1 2 3 4t4 2h33q3 0 5 -1.5t2 -4.5l5 -20q0 -3 4 -5q11 -4 19 -11q3 -2 6 -1l20 6q2 1 4.5 0t3.5 -4l17 -28q2 -5 -1 -9l-15 -14q-3 -2 -3 -6l1 -11l-1 -11q0 -4 3 -6l15 -14q6 -4 3 -9zM129 187q-19 1 -33 -12.5t-14 -33.5 q0 -12 5.5 -22.5t15.5 -16.5q3 -2 3 -6v-7q0 -9 5.5 -14.5t14.5 -5.5h4q8 0 14 5.5t6 14.5v7q0 2 0.5 3.5t1.5 1.5q10 7 16 17t6 21q1 19 -12.5 33.5t-32.5 14.5zM130 83h-4q-2 0 -4 1.5t-2 4.5v7h16v-7q0 -3 -2 -4.5t-4 -1.5zM145 113q-3 -2 -4 -3h-26q-1 2 -4 3 q-7 5 -11 12t-4 16q0 13 9 22.5t23 9.5h1q13 0 22 -10t9 -23q0 -8 -4 -15t-11 -12z" />
</svg>