<svg viewBox="0 0 1024 1024" xmlns="http://www.w3.org/2000/svg">
  <path transform="scale(1, -1) translate(0, -960)" fill="currentColor" d="M418 531q7 -5 11.5 -13.5t4.5 -18.5v-30q0 -29 20 -49t48 -20h16q29 0 49 20t20 49v32q0 5 1.5 9.5t3.5 7.5v0v0q2 4 5 7.5t6 5.5q39 24 60.5 62.5t22.5 83.5q2 35 -11 67.5t-38 58.5q-25 27 -57 41t-66 15q-36 1 -69.5 -11.5t-58.5 -37.5q-27 -26 -40 -58.5t-13 -68.5 q1 -47 23.5 -87t61.5 -65zM557 469q0 -16 -10.5 -26.5t-26.5 -10.5h-16q-16 0 -26.5 10.5t-10.5 26.5v30v5v5h93v-5v-3v-32h-3zM410 786q20 20 46.5 30.5t55.5 10.5h2h1q29 -1 55 -13t46 -33q20 -22 30.5 -48.5t9.5 -55.5q-1 -36 -19.5 -68t-49.5 -52q-6 -4 -10 -8.5 t-9 -9.5h-117q-3 5 -8 9.5t-9 8.5q-33 20 -51 53t-18 70q1 31 12.5 58t32.5 48v0zM992 358v2v2v1.5t-2 1.5v1.5t-1 1.5v0v0l-1 1l-1 1q0 1 -1 1h-2t-1.5 1t-1.5 1l-1 0.5l-1 0.5l-165 44q-6 1 -12 -2.5t-7 -9.5t2 -12t9 -7l132 -33l-349 -252q-18 -12 -38.5 -9.5t-35.5 17.5 l-113 132q-23 26 -58 29t-62 -18l-244 -187q-4 -4 -5 -11t2 -12q3 -3 6 -4.5t7 -1.5q2 0 4.5 1t5.5 2l243 189q17 13 39 11t36 -19l114 -131q22 -26 55.5 -30t60.5 15l343 245l-32 -120q-1 -6 2 -12t9 -7h2.5h2.5q5 0 9 3t7 8l43 163v0v0v2v1v0z" />
</svg>