<svg viewBox="0 0 256 256" xmlns="http://www.w3.org/2000/svg">
  <path transform="scale(1, -1) translate(0, -256)" fill="currentColor" d="M129 165q-18 1 -32 -13q-7 -6 -10.5 -14.5t-3.5 -17.5q0 -11 5.5 -21t15.5 -17q3 -1 3 -4v-8q0 -8 5.5 -13.5t13.5 -5.5h4q9 0 14.5 5.5t5.5 13.5v8l1 2l1 2q10 6 15.5 16t5.5 21q1 19 -12.5 32.5t-31.5 13.5zM130 65h-4q-2 0 -4 1.5t-2 4.5v6h15v-6q0 -2 -1.5 -4 t-3.5 -2zM144 95l-3 -3l-1 -1h-24l-1 1l-3 3q-7 4 -10.5 11t-3.5 15q0 13 9 22t21 9h1q12 0 21 -10t9 -22q-1 -8 -4.5 -14.5t-10.5 -10.5zM224 200h-51v20q0 7 -5.5 13t-13.5 6h-52q-7 0 -13 -5.5t-6 -13.5v-21h-51q-11 0 -19 -8t-8 -19v-128q0 -11 8 -19t19 -8h192 q11 0 19 8t8 19v128q0 11 -8 19.5t-19 8.5zM97 220q0 2 1.5 3.5t3.5 1.5h52q2 0 3.5 -1.5t1.5 -3.5v-21h-62v21zM237 44q0 -5 -4 -9t-9 -4h-192q-5 0 -9 4t-4 9v128q0 6 4 10t9 4h192q5 0 9 -4t4 -10v-128z" />
</svg>