<svg viewBox="0 0 1024 1024" xmlns="http://www.w3.org/2000/svg">
  <path transform="scale(1, -1) translate(0, -960)" fill="currentColor" d="M931 622q-8 59 -34 110q-27 52 -67.5 92.5t-92.5 66.5q-52 27 -110 34q-14 2 -27.5 2.5t-26.5 0.5h-1h-1q-73 0 -139.5 -28t-117.5 -79q-52 -52 -80 -118.5t-28 -139.5q0 -15 -4.5 -30.5t-12.5 -28.5l-91 -144q-4 -7 -6 -14.5t-2 -14.5q0 -23 15.5 -38.5t38.5 -15.5h61 v-101q0 -38 27 -65.5t66 -27.5q8 0 15 1.5t12 3.5l72 22v-107q0 -14 10.5 -24.5t24.5 -10.5h136h1h1h219q7 0 11.5 4.5t4.5 11.5v181q0 59 15.5 111t45.5 95q40 54 57 119t8 132v0zM843 389q-33 -47 -50 -104t-17 -120v-165h-206h-1h-1h-134q-2 0 -3 1t-1 2v128q0 4 -1 7.5 t-5 5.5q-2 1 -4.5 2t-5.5 1h-2h-2l-95 -29q-3 -1 -8 -2t-9 -1q-26 0 -43.5 18t-17.5 43v117q0 7 -4.5 11.5t-11.5 4.5h-75q-10 0 -16.5 6.5t-6.5 15.5q0 4 1 6.5t2 6.5l92 144q10 17 16 36.5t6 40.5q0 66 25.5 127t72.5 108q46 47 106 71.5t126 26.5h1.5h1.5q13 0 26 -0.5 t25 -3.5q53 -6 101 -30q47 -24 83.5 -60.5t60.5 -83.5q25 -47 32 -101q6 -62 -8.5 -121t-49.5 -109v0zM563 718q-38 2 -74 -12t-63 -42q-28 -28 -43 -63t-15 -73q0 -49 24 -92t66 -70q8 -4 12.5 -14t4.5 -21v-33q0 -30 22 -52t52 -22h17q30 0 52 22t22 52v33q0 5 1 10.5 t4 8.5v0v0q2 5 5.5 8.5t7.5 6.5q40 25 64 66.5t25 88.5q1 37 -12.5 72t-40.5 64q-25 30 -59.5 45.5t-71.5 16.5zM608 298q0 -17 -12.5 -29.5t-29.5 -12.5h-17q-17 0 -29.5 12.5t-12.5 29.5v33v6t-1 5h102q0 -2 -1 -4.5t-1 -6.5v-33h2zM642 394q-6 -4 -11 -9t-9 -11h-128 q-3 6 -8 11t-11 9q-35 21 -54 57t-19 77q0 32 12.5 61.5t35.5 52.5q22 21 50.5 32.5t59.5 11.5h2.5h2.5q31 -1 59 -13.5t51 -35.5q22 -23 33.5 -52t11.5 -60q-4 -41 -24.5 -75.5t-53.5 -55.5v0z" />
</svg>