<svg viewBox="0 0 1024 1024" xmlns="http://www.w3.org/2000/svg">
  <path transform="scale(1, -1) translate(0, -960)" fill="currentColor" d="M704 846q-42 42 -96.5 64t-113.5 18q-54 -4 -101 -28t-82 -64t-55 -92t-21 -110q-1 -77 32 -144t91 -109v-179q0 -34 24 -57t56 -23h144q34 0 57 23.5t23 56.5v179q59 41 92 107t33 142q3 62 -19 117t-64 99v0zM582 154h-144q-20 0 -34 14t-14 34v166h242v-166 q0 -20 -14.5 -34t-35.5 -14zM638 403l-3 -3h-107v125q0 7 -4.5 11.5t-11.5 4.5t-11.5 -4.5t-4.5 -11.5v-125h-107l-5 3q-56 37 -87 98.5t-30 132.5q1 52 19 98q18 47 49 82t73 57t90 25h6.5h7.5q48 0 91.5 -18.5t78.5 -53.5q37 -38 56.5 -88t18.5 -106q0 -70 -31 -130.5 t-88 -96.5zM614 0h-204q-8 0 -12 -4.5t-4 -11.5t4 -11.5t12 -4.5h204q8 0 12 4.5t4 11.5t-5 11.5t-11 4.5z" />
</svg>