<svg viewBox="0 0 1024 1024" xmlns="http://www.w3.org/2000/svg">
  <path transform="scale(1, -1) translate(0, -960)" fill="currentColor" d="M939 200v0q-13 42 -49 62.5t-76 9.5q-49 -14 -110.5 -32t-103.5 -30q13 21 14.5 38t-3.5 29q-8 21 -29.5 31t-42.5 10h-153q-14 0 -26 6t-26 17q-10 9 -23 14t-26 5h-123q-34 -1 -58 -26.5t-24 -59.5v-197q0 -36 24 -62t59 -26h149q14 0 27.5 4.5t25.5 14.5l9 -5 q32 -17 66 -26t69 -9q21 0 42 3.5t41 9.5l278 85q53 20 66 59t3 75v0zM163 21q-21 0 -36 16.5t-15 39.5v197q0 22 14.5 38t35.5 16h123q8 0 15.5 -2.5t13.5 -8.5q4 -5 9 -9t11 -7v0v-275q-4 -3 -10 -4t-10 -1h-151v0zM861 96l-277 -85q-17 -6 -35.5 -8.5t-38.5 -2.5 q-31 0 -61.5 8t-58.5 22l-20 12l-5 1v245q5 -1 10.5 -2t10.5 -1h153q12 0 25 -5.5t17 -15.5q5 -12 -4.5 -31t-32.5 -41l-10 -8l7 -11q5 -10 23.5 -6t126.5 36q49 15 90 27l41 12q27 7 51.5 -7t33.5 -43q5 -17 2 -48t-48 -48v0zM597 544q9 -6 15 -17t6 -23v-37q0 -32 23 -56 t57 -24h19q32 0 56 23.5t24 56.5v39q0 12 5.5 22t15.5 18q44 27 70 72.5t27 98.5q1 41 -14 79t-43 70q-29 30 -66.5 47t-77.5 18q-42 1 -81.5 -14t-69.5 -45t-46 -68.5t-16 -80.5q-1 -56 24.5 -103t71.5 -76zM765 467q0 -19 -14 -33.5t-34 -14.5h-19q-20 0 -34 14t-14 34v37 q0 4 -0.5 7.5t-1.5 6.5h117q0 -3 -1 -6t-1 -6v-39h2zM584 846q25 24 56.5 37t66.5 13h2.5h2.5q35 -1 66.5 -15.5t55.5 -40.5q25 -26 37 -58t12 -67q-1 -44 -23 -82.5t-60 -61.5q-6 -3 -12 -9t-10 -12h-143l-10 12t-12 9q-39 24 -61 63.5t-22 85.5q1 36 15 68.5t39 57.5z" />
</svg>