<svg viewBox="0 0 1024 1024" xmlns="http://www.w3.org/2000/svg">
  <path transform="scale(1, -1) translate(0, -960)" fill="currentColor" d="M517 688q-37 1 -72 -12.5t-61 -40.5q-26 -26 -41 -60t-15 -73q0 -48 23 -89.5t63 -66.5q9 -5 13.5 -14t4.5 -20v-32q0 -30 21 -51t51 -21h18q30 0 51 21t21 51v34q0 4 1 9t3 10v0v0l6.5 6.5l6.5 6.5q40 25 62.5 65t24.5 87q1 36 -12.5 70t-39.5 61t-59.5 42.5t-69.5 16.5 v0zM560 280q0 -17 -11.5 -28.5t-28.5 -11.5h-18q-16 0 -28 11.5t-12 28.5v32v5.5t-1 5.5h97v-4.5v-4.5v-34h2zM592 373q-6 -4 -11 -8.5t-8 -9.5h-123q-4 6 -9 10t-11 8q-33 21 -52.5 55.5t-19.5 73.5q0 32 12 60t35 49q21 22 49 33.5t58 11.5h2h1q30 -1 57.5 -13t48.5 -35 t32 -51t11 -58q-1 -38 -19.5 -72t-52.5 -54zM966 518l-32 37q-9 11 -13.5 26t-3.5 30l5 48q3 40 -20.5 72t-61.5 42l-48 11q-14 4 -27 13t-21 21l-24 41q-20 35 -58.5 47t-74.5 -4l-45 -19q-14 -6 -29 -6t-30 6l-45 19q-36 16 -74 4t-58 -47l-26 -43q-7 -13 -19.5 -22 t-28.5 -12l-48 -11q-38 -8 -61.5 -41t-20.5 -72l5 -48q1 -16 -3.5 -30t-13.5 -26l-32 -37q-27 -30 -27 -69.5t27 -69.5l32 -37q9 -11 13.5 -26t3.5 -30l-5 -48q-3 -40 20.5 -72t61.5 -42l48 -11q14 -4 27 -13t21 -21l24 -41q20 -35 58.5 -47t74.5 4l45 19q14 6 29 6t30 -6 l45 -19q9 -5 19.5 -6.5t21.5 -1.5q28 0 52.5 13.5t38.5 37.5l24 41q8 14 20.5 23t27.5 11l48 11q39 9 62.5 41.5t19.5 72.5l-5 48q-1 15 3.5 29.5t14.5 26.5l32 37q26 30 26.5 70t-25.5 70v0zM942 400l-32 -37q-14 -17 -21 -37.5t-4 -42.5l5 -48q2 -27 -14 -49.5t-44 -28.5 l-48 -11q-22 -5 -39 -18t-28 -32l-24 -42q-15 -24 -41.5 -32.5t-51.5 2.5l-45 19q-9 5 -20 6.5t-21 1.5q-11 0 -21.5 -2t-20.5 -6l-45 -19q-25 -11 -51.5 -2.5t-41.5 32.5l-25 42q-11 19 -29 32t-38 18l-48 11q-28 6 -44 28.5t-14 49.5l5 48q2 22 -4.5 42.5t-21.5 37.5 l-32 37q-18 20 -18 48.5t18 49.5l32 36q15 17 21.5 38t4.5 42l-5 48q-2 28 14 50.5t44 28.5l48 11q21 5 38.5 17.5t28.5 32.5l24 41q14 24 40.5 32.5t52.5 -1.5l44 -20q21 -8 42.5 -8t41.5 8l44 20q26 10 52.5 1.5t40.5 -32.5l24 -41q11 -20 29 -32.5t38 -17.5l48 -11 q28 -6 44 -28.5t14 -50.5l-5 -48q-2 -21 4.5 -42t21.5 -38l32 -36q19 -22 19 -50t-18 -48z" />
</svg>