<svg viewBox="0 0 1024 1024" xmlns="http://www.w3.org/2000/svg">
  <path transform="scale(1, -1) translate(0, -960)" fill="currentColor" d="M424 358q7 -4 10.5 -12t3.5 -16v-29q0 -28 19 -47t47 -19h16q28 0 47 19t19 47v30q0 5 1 9t3 7v0v0q3 4 5.5 7t6.5 4q36 23 56.5 59.5t21.5 78.5q1 34 -11.5 64t-34.5 54q-23 24 -53.5 38t-63.5 15q-34 1 -65.5 -11.5t-56.5 -36.5t-37 -54.5t-12 -65.5q0 -43 20.5 -80.5 t57.5 -60.5v0zM554 301q0 -15 -10.5 -24.5t-23.5 -9.5h-16q-14 0 -24 10.5t-10 23.5v29v3.5v4.5h85v-4v-3v-30h-1zM418 597q19 18 43.5 28t50.5 10h1.5h1.5q27 -1 51 -12t44 -31q19 -20 28.5 -45t7.5 -51q-1 -34 -18 -63t-46 -47q-4 -4 -9 -8t-8 -8h-109l-8 8t-10 8 q-30 19 -47 49t-17 66q3 27 13.5 52t30.5 44v0zM915 928h-806q-27 0 -45.5 -19t-18.5 -45v-38q0 -27 18.5 -45.5t45.5 -18.5h8v-549q0 -53 37.5 -90.5t90.5 -37.5h251v-101q0 -7 4.5 -11.5t11.5 -4.5t11.5 4.5t4.5 11.5v102h251q53 0 90.5 38t37.5 90v548h8q27 0 45.5 18.5 t18.5 45.5v38q0 26 -18.5 45t-45.5 19v0zM875 213q0 -40 -28 -68t-68 -28h-534q-40 0 -68 28t-28 68v549h726v-549zM947 826q0 -14 -9.5 -23t-22.5 -9h-806q-13 0 -22.5 9t-9.5 23v38q0 13 9.5 22.5t22.5 9.5h805q13 0 22.5 -9.5t9.5 -22.5v-38h1z" />
</svg>