<svg viewBox="0 0 256 256" xmlns="http://www.w3.org/2000/svg">
  <path transform="scale(1, -1) translate(0, -256)" fill="currentColor" d="M178 180q-11 10 -25 15.5t-29 4.5q-19 -1 -34 -11t-24 -26t-9.5 -34.5t8 -34.5t22.5 -26v-35q0 -11 8 -19t19 -8h28q11 0 18.5 8t7.5 19v35q15 10 23.5 26t8.5 34q0 15 -6 28.5t-16 23.5zM142 20h-28q-5 0 -8.5 4t-3.5 10v30h53v-30q0 -6 -4 -10t-9 -4zM158 78h-60v0 q-13 8 -20 21.5t-7 29.5q0 23 15.5 39.5t38.5 17.5h3q23 0 40 -16q9 -8 13.5 -19t4.5 -23q0 -16 -7.5 -29t-20.5 -21zM128 214q3 0 5 2.5t2 5.5v20q0 3 -2 5.5t-5 2.5t-5 -2.5t-2 -5.5v-21q0 -3 2 -5t5 -2zM222 209q-2 2 -4.5 2t-5.5 -2l-14 -14q-2 -2 -2 -5t2 -5t5 -2t5 2 l14 14q2 2 2 5t-2 5zM58 195l-14 14q-2 2 -5 2t-5 -2t-2 -5t2 -5l14 -14q2 -2 5 -2t5 2t2 5t-2 5zM33 126h-21q-3 0 -5 -2.5t-2 -5.5t2 -4.5t5 -1.5h21q3 0 5 2t2 5t-2 5t-5 2zM244 126h-21q-3 0 -5 -2.5t-2 -5.5t2 -5t5 -2h21q3 0 5 2t2 5t-2 5.5t-5 2.5zM136 136h-16 q-2 0 -3.5 1.5t-1.5 3.5t1.5 3.5t3.5 1.5h24q3 0 5.5 2t2.5 5t-2.5 5t-5.5 2h-6q0 3 -2.5 5t-5.5 2t-5 -2t-2 -5h-3q-8 0 -13.5 -5.5t-5.5 -13.5t5.5 -13.5t13.5 -5.5h16q3 0 4.5 -1t1.5 -3t-1.5 -3.5t-4.5 -1.5h-27q-3 0 -5 -2t-2 -5t2 -5.5t5 -2.5h15q0 -3 2 -5t5 -2t5 2 t2 5v1q8 0 13 5.5t5 13t-6 13t-14 5.5z" />
</svg>