<svg viewBox="0 0 256 256" xmlns="http://www.w3.org/2000/svg">
  <path transform="scale(1, -1) translate(0, -256)" fill="currentColor" d="M236 172q-4 30 -26.5 52t-52.5 26l-15 1q-19 0 -36 -7t-30 -20.5t-20.5 -30.5t-7.5 -36q0 -7 -3 -13l-23 -36q-2 -4 -2 -9q0 -7 4.5 -12t11.5 -5h13v-22q0 -10 7.5 -18t18.5 -8q5 0 8 1l14 5v-23q0 -5 3.5 -8.5t8.5 -3.5h89q3 0 5.5 2t2.5 5v45q0 29 14 50q10 14 14 31 t2 34zM208 115q-17 -25 -17 -58v-38h-80v30q0 4 -2.5 6t-6.5 1l-25 -7l-2 -1q-5 0 -9 4t-4 9v29q0 3 -2 5t-5 2h-19q-2 0 -2 3v2l23 36q6 9 6 20q0 16 6 31t17 26t25.5 17t30.5 6h13q26 -3 44.5 -22t22.5 -44q4 -33 -14 -57zM141 198q-10 1 -19.5 -3t-17.5 -11 q-15 -15 -15 -36q0 -13 6.5 -24.5t17.5 -18.5q3 -2 3 -6v-9q0 -8 6 -14.5t15 -6.5h5q8 0 14.5 6.5t6.5 14.5v9l1 3q0 2 2 3q11 7 17 18t7 23q0 21 -14 36q-7 8 -16 12t-19 4zM142 83h-4q-3 0 -5.5 2t-2.5 5v9h20v-9q-1 -3 -3 -5t-5 -2zM159 117q-3 -1 -5 -4h-29q-2 3 -5 4 q-8 5 -12.5 13.5t-4.5 17.5q0 15 10.5 25.5t26.5 10.5v0q15 0 25.5 -11t10.5 -26q0 -9 -4.5 -17t-12.5 -13z" />
</svg>