<svg viewBox="0 0 256 256" xmlns="http://www.w3.org/2000/svg">
  <path transform="scale(1, -1) translate(0, -256)" fill="currentColor" d="M251 135q0 11 -5 20t-14 15q2 20 -10 33.5t-28 14.5q-4 11 -13 17.5t-19 8.5q-15 2 -29 -6q-1 3 -4 5.5t-7 2.5q-18 0 -34 -7t-29 -19.5t-20 -29t-7 -34.5q0 -7 -3 -13l-22 -34q-2 -4 -2 -10t4.5 -10.5t11.5 -4.5h12v-21q0 -10 7.5 -17.5t17.5 -7.5q4 0 8 1l13 4v-21 q0 -5 3.5 -8.5t8.5 -3.5h32q4 0 7 2t4 6q10 -7 22 -7q5 0 10 1q12 3 20.5 11.5t11.5 20.5q14 4 22.5 18t7.5 30q11 6 17 18t6 25zM120 24h-28v29q0 3 -2.5 5t-6.5 2l-25 -8q-5 0 -8.5 3.5t-3.5 8.5v28q0 3 -2 5t-5 2h-18q-2 0 -2 2l22 35q5 10 5 20q0 16 6 29.5t16.5 24 t24 16.5t27.5 6v-208zM217 104q-3 -1 -4 -3.5t-1 -5.5q4 -14 -3.5 -25t-18.5 -13q-2 -1 -4 -2.5t-2 -3.5q-2 -10 -8 -16.5t-14 -8.5t-15.5 0.5t-12.5 9.5v184q5 6 11.5 8.5t14.5 1.5t14 -6.5t9 -13.5q0 -2 2.5 -3.5t4.5 -1.5q12 0 21.5 -11t6.5 -26q0 -5 4 -7q7 -4 11 -11 t4.5 -16.5t-5.5 -18t-15 -11.5z" />
</svg>