<svg viewBox="0 0 1024 1024" xmlns="http://www.w3.org/2000/svg">
  <path transform="scale(1, -1) translate(0, -960)" fill="currentColor" d="M430 749q-36 1 -68.5 -12t-59.5 -38q-25 -25 -38.5 -57.5t-13.5 -68.5q0 -46 21.5 -85.5t61.5 -65.5q7 -4 11.5 -13t4.5 -19v-30q0 -29 20 -49t49 -20h16q28 0 48 20t20 49v32q0 5 1.5 9.5t3.5 8.5v0v0q3 3 5.5 6.5t5.5 5.5q38 24 60 62t24 82q1 35 -12 67.5t-38 59.5 q-24 26 -55.5 40.5t-66.5 15.5zM470 360q0 -16 -10.5 -26.5t-25.5 -10.5h-16q-16 0 -26.5 10.5t-10.5 26.5v30v5.5v4.5h91v-4v-4v-32h-2zM502 450q-6 -4 -10 -8.5t-7 -9.5h-117q-4 5 -8.5 9.5t-9.5 8.5q-32 20 -49.5 52t-17.5 71q0 30 11.5 56.5t31.5 47.5q21 20 46.5 30.5 t54.5 10.5h2h1q29 -1 55 -12.5t46 -31.5q21 -22 31 -48.5t9 -54.5q-1 -38 -19 -70t-50 -51v0zM987 -5l-261 261q55 59 81 132q27 72 25.5 147.5t-30.5 146.5q-30 72 -87 129q-58 58 -132 88q-73 29 -150 29t-151 -29q-74 -30 -133 -88t-88 -132q-30 -73 -30 -150t30 -151 q29 -74 88 -133t132.5 -88t150.5 -29q73 0 143.5 26.5t128.5 79.5l261 -261q2 -3 5.5 -4t5.5 -1t5.5 1t5.5 4q5 5 5 11t-5 11v0zM171 267q-54 54 -81 122t-27 139t27 139t81 122q54 53 122 80t139 27t139 -26.5t122 -80.5t81 -122t27 -139t-27 -139t-81 -122t-122 -81 t-139 -27t-139 27t-122 81v0z" />
</svg>