<svg viewBox="0 0 256 256" xmlns="http://www.w3.org/2000/svg">
  <path transform="scale(1, -1) translate(0, -256)" fill="currentColor" d="M215 221l-79 29q-8 3 -16 0l-79 -29q-7 -3 -11.5 -9.5t-4.5 -13.5v-72q0 -51 39 -87q24 -21 56 -33q4 -1 8 -1t8 1q32 11 56 33q39 35 39 87v72q0 7 -4.5 13.5t-11.5 9.5zM217 126q0 -45 -36 -77q-21 -19 -50 -29q-3 -2 -7 0q-29 10 -50 29q-36 31 -36 77v72q0 3 2 5.5 t5 4.5l79 28q3 2 7 0l78 -28q3 -2 5 -4.5t2 -5.5v-72h1zM129 194q-19 0 -33.5 -13.5t-14.5 -33.5q0 -12 6 -22.5t16 -17.5q3 -2 3 -5v-8q0 -8 6 -14t14 -6h4q8 0 14 6t6 14v8q0 2 0.5 3.5t2.5 1.5q10 7 16 17t6 22q0 18 -13.5 32.5t-32.5 15.5zM130 88h-4q-2 0 -4 2t-2 4v7 h16v-7q0 -2 -2 -4t-4 -2zM145 119q-3 -2 -4 -4h-26q-1 2 -5 4q-7 5 -11 12t-4 16q0 13 9.5 23t23.5 10h1q13 -1 22.5 -11t9.5 -23q-1 -8 -5 -15.5t-11 -11.5z" />
</svg>