<svg viewBox="0 0 1024 1024" xmlns="http://www.w3.org/2000/svg">
  <path transform="scale(1, -1) translate(0, -960)" fill="currentColor" d="M517 530q-34 1 -65 -11.5t-55 -36.5t-37 -55t-13 -65q0 -44 20.5 -81t58.5 -60q7 -5 10.5 -13t3.5 -16v-29q0 -27 19 -46t47 -19h16q27 0 46 19t19 46v31q0 8 4.5 16t10.5 12q36 23 56.5 59.5t21.5 78.5q1 34 -11.5 64t-34.5 54q-24 24 -54.5 37t-62.5 15v0zM554 163 q0 -14 -10 -23.5t-24 -9.5h-16q-14 0 -24 9.5t-10 23.5v29v4v4h84v-3v-3v-31zM584 248q-5 -4 -9.5 -7.5t-8.5 -8.5h-108q-4 5 -8 8.5t-10 7.5q-30 19 -47 49t-17 66q0 28 10.5 52.5t29.5 43.5q19 18 43.5 28.5t50.5 10.5h2h2q26 -2 50.5 -12.5t43.5 -31.5q19 -20 28.5 -44.5 t8.5 -51.5q0 -33 -16 -62.5t-45 -47.5v0zM928 829h-168v65q0 8 -4.5 12t-11.5 4t-11.5 -4t-4.5 -12v-65h-432v65q0 8 -4.5 12t-11.5 4t-11.5 -4t-4.5 -12v-65h-168q-26 0 -45 -19t-19 -45v-715q0 -27 19 -45.5t45 -18.5h832q26 0 45 18.5t19 45.5v715q0 26 -19 45t-45 19z M96 797h168v-35q0 -8 4.5 -12t11.5 -4t11.5 4t4.5 12v35h432v-35q0 -8 4.5 -12t11.5 -4t11.5 4t4.5 12v35h168q13 0 22.5 -9.5t9.5 -22.5v-130h-896v130q0 13 9.5 22.5t22.5 9.5v0zM928 18h-832q-13 0 -22.5 9t-9.5 23v553h896v-555q0 -12 -9.5 -21t-22.5 -9z" />
</svg>