<svg viewBox="0 0 1024 1024" xmlns="http://www.w3.org/2000/svg">
  <path transform="scale(1, -1) translate(0, -960)" fill="currentColor" d="M992 477q-1 42 -21 78t-53 58q4 36 -6.5 69.5t-33.5 61.5q-21 25 -49 39.5t-59 16.5q-17 41 -50 68t-75 33q-34 5 -64.5 -4.5t-55.5 -30.5v6q0 14 -10.5 24.5t-24.5 10.5q-70 0 -134 -26.5t-113 -75.5t-75.5 -113t-26.5 -134q0 -15 -4 -29.5t-12 -26.5l-87 -137 q-2 -6 -4 -13t-2 -14q0 -23 15.5 -38t37.5 -15h57v-95q0 -37 26.5 -63t63.5 -26q7 0 14 1t12 4l68 20v-100q0 -15 10.5 -25.5t25.5 -10.5h129q15 0 25 10.5t10 25.5v6q21 -18 46.5 -27.5t51.5 -9.5q8 0 17 1.5t18 3.5q46 11 78.5 44.5t43.5 81.5q27 8 50.5 25.5t40.5 43.5 q17 27 23.5 59t2.5 63q43 18 69.5 62.5t24.5 97.5v0zM493 24q0 -1 -1 -2t-2 -1h-130q-1 0 -2 1t-1 2v123q0 4 -1.5 7.5t-5.5 5.5q-2 1 -4.5 2t-4.5 1h-2.5h-2.5l-90 -27q-3 -1 -7 -1.5t-9 -0.5q-24 0 -40.5 17t-16.5 41v110q0 8 -4.5 12t-11.5 4h-72q-9 0 -15 6.5t-6 14.5 q0 3 1 6t2 5l87 136q10 17 15 35.5t5 38.5q0 64 24.5 121t68.5 103q45 44 103 68.5t121 24.5q1 0 2 -1t1 -2v-850h-1zM870 339q-6 -2 -9 -7.5t-2 -11.5q7 -29 2 -57.5t-21 -52.5q-14 -23 -35 -37.5t-47 -18.5q-4 -2 -7.5 -5t-4.5 -8q-8 -42 -34 -71.5t-66 -39.5 q-36 -8 -69 4.5t-55 43.5v741q21 28 51 41.5t64 8.5q36 -5 63 -29t39 -61q1 -5 6.5 -8t11.5 -3q27 0 51 -11.5t43 -33.5q21 -24 29 -54t2 -63q-2 -4 0.5 -8.5t7.5 -7.5q30 -16 48 -47.5t19 -67.5q5 -45 -20 -83t-67 -53z" />
</svg>