<svg viewBox="0 0 1024 1024" xmlns="http://www.w3.org/2000/svg">
  <path transform="scale(1, -1) translate(0, -960)" fill="currentColor" d="M333 440q0 -47 22.5 -87.5t62.5 -64.5q7 -5 12 -13.5t5 -18.5v-32q0 -29 21 -49.5t50 -20.5h16q28 0 49 20.5t21 49.5v32q0 5 1 9.5t4 8.5v0v0q2 3 4.5 6.5t6.5 5.5q38 24 61 63t24 85q1 36 -12 68.5t-38 59.5q-25 26 -57.5 41t-67.5 15q-36 1 -69.5 -12.5t-59.5 -39.5 q-28 -24 -42 -56.5t-14 -69.5v0zM558 224q0 -16 -11 -27t-27 -11h-16q-16 0 -27 11t-11 27v32v4.5v5.5h94v-5.5v-4.5v-32h-2zM512 587h2h1q29 -1 55.5 -13t47.5 -33q20 -22 30.5 -49.5t10.5 -56.5q-1 -37 -19 -69t-50 -52q-6 -4 -10.5 -8.5t-8.5 -9.5h-118q-4 5 -8.5 9.5 t-10.5 8.5q-33 20 -51 53t-18 71q0 30 11.5 58t33.5 48q20 22 46.5 32.5t55.5 10.5v0zM808 736q-5 5 -11.5 4t-10.5 -6q-5 -4 -4.5 -10.5t5.5 -11.5q31 -29 56 -63q24 -34 41 -72.5t26 -79.5q8 -41 8 -83q0 -84 -32 -157q-32 -74 -87 -129t-128 -87q-74 -31 -157 -31 q-84 0 -158 32t-129 87t-86 128q-32 74 -32 157q0 65 19 124t54.5 109t84.5 88q49 39 109 60l-45 -109q-2 -6 0 -12t8 -8q1 -2 3 -2h4q4 0 8.5 2.5t5.5 7.5l46 113q5 12 5 24t-5 24q-4 12 -13.5 21.5t-21.5 13.5l-113 47q-6 2 -12.5 0t-8.5 -8q-3 -6 -0.5 -12.5t8.5 -8.5 l113 -46q5 -3 8.5 -5.5t6.5 -7.5q-67 -22 -122 -63q-54 -41 -93.5 -95.5t-60.5 -120.5q-22 -65 -22 -136q0 -90 35 -170q34 -79 93.5 -138.5t138.5 -93.5q80 -34 170 -34t169 34q80 35 139.5 94t93.5 139q35 79 35 169q0 46 -10 90q-9 44 -27 85.5t-44 78.5t-60 68v0z" />
</svg>