<svg viewBox="0 0 256 256" xmlns="http://www.w3.org/2000/svg">
  <path transform="scale(1, -1) translate(0, -256)" fill="currentColor" d="M129 191q-10 0 -19 -3.5t-16.5 -10.5t-11 -16t-3.5 -19q0 -13 6 -24t17 -18q3 -2 3 -6v-8q0 -9 6 -15t15 -6h4q9 0 15 6t6 15v8q0 2 1 4l2 2q10 7 16.5 17.5t6.5 22.5q0 10 -3.5 19t-10 16.5t-15.5 11t-19 4.5zM130 79h-4q-3 0 -5 2t-2 5v8h18v-8q0 -3 -2 -5t-5 -2z M147 112q-3 -2 -5 -4h-28q-2 3 -5 4q-8 5 -12 13t-4 17q0 15 10.5 25t24.5 10v0q15 0 25 -11t9 -25q1 -9 -3.5 -16.5t-11.5 -12.5zM244 148l-8 9q-5 5 -4 11l1 12q1 11 -5.5 20t-17.5 12l-12 3q-6 1 -10 7l-6 10q-5 10 -16 13t-21 -1l-11 -5q-6 -2 -12 0l-11 5q-10 4 -21 1 t-16 -13l-6 -10q-4 -6 -10 -8l-12 -2q-11 -3 -17.5 -12t-5.5 -20l1 -12q1 -7 -4 -12l-8 -9q-7 -8 -7 -19t7 -20l8 -9q5 -4 4 -11l-1 -12q-1 -11 5.5 -20t17.5 -12l12 -2q6 -2 10 -8l6 -10q5 -10 16 -13t21 1l11 5q6 2 12 0l12 -5q5 -2 12 -2t14 3.5t10 10.5l6 10q4 6 10 8 l12 2q11 3 17.5 12t5.5 20l-1 12q-1 7 4 12l8 9q7 8 7 19t-7 20zM233 118l-8 -9q-8 -10 -7 -22l1 -12q1 -6 -2.5 -10.5t-9.5 -6.5l-12 -2q-12 -3 -19 -14l-6 -10q-3 -5 -8.5 -7t-10.5 0l-11 5q-6 2 -12 2t-12 -2l-11 -5q-5 -3 -10.5 -1t-8.5 7l-6 11q-7 11 -19 13l-12 3 q-6 1 -9.5 6t-2.5 10l1 12q1 13 -7 22l-8 10q-4 4 -4 10t4 10l8 9q8 10 7 22l-1 12q-1 6 2.5 10.5t9.5 6.5l12 2q12 3 19 14l6 10q3 5 8.5 7t10.5 0l11 -5q12 -5 24 0l11 5q5 2 10.5 0.5t8.5 -7.5l6 -10q7 -11 19 -14l12 -2q6 -2 9.5 -6.5t2.5 -10.5l-1 -12q-1 -12 7 -22 l8 -9q4 -4 4 -10t-4 -10z" />
</svg>