<svg viewBox="0 0 1024 1024" xmlns="http://www.w3.org/2000/svg">
  <path transform="scale(1, -1) translate(0, -960)" fill="currentColor" d="M907 882h-789q-36 0 -61 -25.5t-25 -61.5v-526q0 -36 25 -60.5t61 -24.5h69v-130q0 -12 6.5 -21t16.5 -14q3 -1 7.5 -2t8.5 -1q7 0 13.5 2.5t11.5 7.5l178 158h477q36 0 60 25t24 60v526q2 36 -23 61.5t-60 25.5v0zM960 269q0 -22 -15.5 -37.5t-37.5 -15.5h-483 q-2 0 -5.5 -1t-5.5 -4l-183 -161q-2 -3 -4 -2.5t-4 0.5q-1 0 -2.5 2t-1.5 4v146q0 7 -4.5 11.5t-11.5 4.5h-84q-22 0 -38 15.5t-16 37.5v526q0 22 16 38.5t38 16.5h789q22 0 37.5 -16t15.5 -39v-526zM517 752q-34 1 -65 -11.5t-55 -36.5t-37 -54.5t-13 -65.5 q0 -43 20.5 -80.5t58.5 -60.5q7 -5 10.5 -12.5t3.5 -16.5v-28q0 -28 19 -47t47 -19h16q27 0 46 19t19 47v30q0 5 1.5 8.5t3.5 7.5v0v0q2 4 5 7t6 4q36 23 56.5 59.5t22.5 78.5q1 33 -11.5 63.5t-35.5 54.5q-25 24 -55.5 38t-62.5 15v0zM554 386q0 -15 -10 -24.5t-24 -9.5 h-16q-14 0 -24 9.5t-10 24.5v28v4.5v3.5h84v-3v-3v-30zM584 470q-5 -3 -9.5 -7t-8.5 -9h-108q-4 5 -8 9t-10 7q-30 20 -47 50t-17 66q0 27 10.5 51.5t29.5 44.5q19 18 43.5 28t50.5 10h2h2q26 -1 50.5 -12t43.5 -31q19 -21 28.5 -45.5t8.5 -50.5q0 -34 -16 -63.5t-45 -47.5z " />
</svg>