<svg viewBox="0 0 1024 1024" xmlns="http://www.w3.org/2000/svg">
  <path transform="scale(1, -1) translate(0, -960)" fill="currentColor" d="M517 714q-37 1 -72 -13t-61 -40q-26 -27 -41 -61t-15 -72q0 -48 23 -90t63 -67q9 -5 13.5 -14t4.5 -19v-32q0 -30 21 -51t51 -21h18q30 0 51 21t21 51v33q0 5 1 10t3 9v0v0q3 4 6.5 7.5t6.5 5.5q40 25 62.5 65t24.5 87q1 36 -12.5 70.5t-39.5 60.5q-26 28 -59.5 43 t-69.5 17v0zM560 307q0 -17 -11.5 -28.5t-28.5 -11.5h-18q-16 0 -28 11.5t-12 28.5v32v6t-1 5h97v-4.5v-4.5v-34h2zM592 400q-6 -4 -11 -8.5t-8 -9.5h-123q-4 6 -9 10t-11 8q-33 22 -52.5 56t-19.5 74q0 31 12 59t35 49q21 21 48 32.5t57 11.5h3h1q30 -2 57 -14t48 -34 q22 -23 32.5 -51t9.5 -58q1 -39 -17 -72t-52 -53v0zM544 926q-42 4 -83 -1t-79 -18t-73 -35q-35 -21 -66 -50q-30 -28 -54 -61q-24 -34 -40.5 -71t-24.5 -77q-9 -40 -9 -82q0 -98 40 -185q39 -87 94 -158t114 -124q59 -52 98 -82q11 -8 23.5 -12.5t25.5 -4.5q14 0 26 3.5 t22 12.5q38 27 96 78q57 50 112 119t95 155q40 85 43 184q4 79 -23 151q-27 71 -76 126.5t-116 90.5q-68 35 -145 41v0zM875 520q-3 -92 -41 -174q-39 -81 -91.5 -146.5t-108.5 -114.5q-55 -48 -92 -75q-13 -10 -30 -10t-30 10q-38 28 -95 78q-57 51 -110 118.5t-90 150.5 q-38 83 -38 176q0 75 30.5 145t86.5 122q50 47 113 71.5t133 24.5h15t15 -2q71 -5 133 -37q61 -32 106.5 -83t70.5 -117q25 -65 23 -137v0z" />
</svg>