<svg viewBox="0 0 256 256" xmlns="http://www.w3.org/2000/svg">
  <path transform="scale(1, -1) translate(0, -256)" fill="currentColor" d="M238 67q-4 12 -14 17.5t-21 2.5q-30 -9 -47 -14q2 6 0 12.5t-8 9.5t-13 3h-38q-6 0 -11.5 5t-13.5 5h-31q-10 0 -17 -7t-7 -17v-49q0 -10 7 -17.5t17 -7.5h37q7 0 14 4v0q17 -9 36 -9q10 0 21 3l70 21q13 5 17.5 16t1.5 22zM41 24q-4 0 -7 3.5t-3 7.5v49q0 5 3 8t6 3h31 q2 0 5 -2l4 -3v-66h-39zM214 43l-69 -21q-10 -3 -17 -3q-16 0 -29 7l-5 2v56h41q3 0 5 -1t3 -2.5t-1.5 -5.5t-7 -8t-2.5 -8t4.5 -4.5t10.5 1.5l60 18q5 1 10 -2t7 -9q3 -15 -10 -20zM148 149q4 -2 4 -7v-10q0 -9 6.5 -15.5t15.5 -6.5h5q10 0 16.5 6.5t6.5 15.5v10q0 5 4 7 q12 7 18.5 19t7.5 26q0 11 -4 21t-11 19q-16 16 -39 16.5t-39.5 -15.5t-16.5 -39q0 -14 6.5 -26.5t19.5 -20.5zM188 133q0 -4 -2.5 -6.5t-6.5 -2.5h-5q-3 0 -5.5 2.5t-2.5 6.5v10h22v-10zM148 225q12 12 29 12h1q8 0 15.5 -3.5t12.5 -9.5q12 -12 12 -29q0 -10 -5.5 -19 t-13.5 -15q-4 -2 -5 -5h-33q-3 4 -5 5q-9 6 -14.5 15t-5.5 20q-1 17 12 29z" />
</svg>