<svg viewBox="0 0 256 256" xmlns="http://www.w3.org/2000/svg">
  <path transform="scale(1, -1) translate(0, -256)" fill="currentColor" d="M129 151q-18 1 -32 -13q-7 -6 -10.5 -14.5t-3.5 -17.5q0 -11 5.5 -21t15.5 -17q3 -1 3 -4v-8q0 -8 5.5 -13.5t13.5 -5.5h4q9 0 14.5 5.5t5.5 13.5v8l1 2l1 2q10 6 15.5 16t5.5 21q1 19 -12.5 32.5t-31.5 13.5zM130 52h-4q-2 0 -4 1.5t-2 3.5v6h15v-6q0 -2 -1.5 -3.5 t-3.5 -1.5zM144 81l-3 -3l-1 -1h-24l-1 1l-3 3q-7 4 -10.5 11t-3.5 15q0 13 9 22t21 9h1q12 0 21 -10t9 -22q-1 -8 -4.5 -14.5t-10.5 -10.5zM232 226h-39v14q0 3 -2 5t-5 2t-5.5 -2t-2.5 -5v-14h-101v14q0 3 -2 5t-5 2t-5 -2t-2 -5v-14h-39q-8 0 -13.5 -5.5t-5.5 -13.5v-179 q0 -8 5.5 -13.5t13.5 -5.5h208q8 0 13.5 5.5t5.5 13.5v179q0 8 -5.5 13.5t-13.5 5.5zM24 212h39v-6q0 -3 2 -5t5 -2t5.5 2t2.5 5v6h102v-6q0 -3 2 -5t5 -2t5 2t2 5v6h38q2 0 3.5 -1.5t1.5 -3.5v-29h-218v29q0 2 1.5 3.5t3.5 1.5zM232 23h-208q-2 0 -3.5 1.5t-1.5 3.5v136 h218v-136q0 -2 -1.5 -3.5t-3.5 -1.5z" />
</svg>