<svg viewBox="0 0 256 256" xmlns="http://www.w3.org/2000/svg">
  <path transform="scale(1, -1) translate(0, -256)" fill="currentColor" d="M104 103q3 -1 3 -5v-7q0 -8 5.5 -13.5t13.5 -5.5h4q8 0 14 5.5t6 13.5v8l1 2l1 2q10 6 15.5 16t6.5 21q0 18 -13 31.5t-31 14.5t-32 -13q-7 -6 -10.5 -14.5t-3.5 -17.5q-1 -11 4.5 -21.5t15.5 -16.5zM130 86h-4q-2 0 -4 1.5t-2 3.5v7h15v-7q0 -2 -1.5 -3.5t-3.5 -1.5z M106 163q10 9 22 9h1q12 0 21 -9.5t8 -22.5q0 -7 -3.5 -14t-10.5 -11q-1 0 -3 -2l-1 -1h-24l-1 1q-2 2 -3 2q-7 4 -10.5 11t-3.5 15q-1 13 8 22zM229 251h-202q-8 0 -13.5 -5.5t-5.5 -13.5v-10q0 -7 5.5 -12.5t12.5 -5.5v-134q0 -15 10.5 -25t24.5 -10h60v-23q0 -3 2 -5 t5 -2t5.5 2t2.5 5v22h60q14 0 24 10.5t10 24.5v135q8 0 13 5.5t5 12.5v10q0 8 -5.5 13.5t-13.5 5.5zM216 69q0 -8 -6 -14.5t-15 -6.5h-134q-8 0 -14.5 6.5t-6.5 14.5v135h176v-135zM234 222q0 -2 -1.5 -3.5t-4.5 -1.5h-201q-2 0 -3.5 1.5t-1.5 3.5v10q0 2 1.5 3.5t3.5 1.5 h201q3 0 4.5 -1.5t1.5 -3.5v-10z" />
</svg>