<svg viewBox="0 0 1024 1024" xmlns="http://www.w3.org/2000/svg">
  <path transform="scale(1, -1) translate(0, -960)" fill="currentColor" d="M947 355v1v-1l-54 50q1 11 1 21.5v21.5v21.5t-1 21.5l54 50q19 18 23 43t-8 48l-66 114q-12 22 -36.5 32t-49.5 1l-69 -22q-17 13 -36 24t-38 19l-16 70q-7 26 -27 42t-46 16h-132q-25 0 -45.5 -16t-26.5 -42l-16 -72q-19 -8 -37 -19t-36 -24l-69 23q-25 8 -49.5 -1.5 t-36.5 -32.5l-66 -114q-13 -22 -9 -47.5t23 -43.5l53 -49q-1 -10 -2 -20.5t-1 -21.5v-21.5t2 -21.5l-55 -50q-19 -18 -22.5 -43t8.5 -48l65 -114q14 -22 38 -32t49 -1l69 22q16 -13 35 -24t38 -19l16 -70q6 -26 26.5 -42t45.5 -16h131q26 0 46 16t26 42l16 72q20 8 38 19 t36 24l69 -23q25 -7 49.5 2t36.5 32l66 114q15 21 11.5 46.5t-21.5 42.5zM933 282l-66 -114q-7 -12 -21 -17.5t-28 -1.5l-77 24q-4 1 -8 0t-7 -3q-19 -15 -39 -26.5t-41 -20.5q-3 -1 -5.5 -4t-3.5 -7l-18 -80q-3 -14 -14 -23t-26 -9h-131q-14 0 -26 9.5t-14 24.5l-21 78 q-1 4 -3.5 7t-5.5 4q-22 9 -42 20.5t-38 26.5q-3 1 -5.5 2t-4.5 1h-2.5h-2.5l-77 -24q-14 -5 -28 0.5t-21 18.5l-66 114q-7 13 -5 27.5t13 24.5l59 55q3 2 4.5 5.5t0.5 8.5l-2 24t-1 23q0 12 1 23t2 23q0 4 -1 7.5t-4 6.5l-59 55q-11 9 -13 24t5 29l66 113q7 12 21 17.5 t28 1.5l77 -24q4 -1 8 0t7 4q19 14 39 26t41 20q3 1 5.5 4.5t3.5 6.5l18 80q3 15 14 23.5t26 8.5h131q14 0 26 -9.5t14 -23.5l18 -79q1 -3 3.5 -6.5t5.5 -4.5q22 -8 42 -20t38 -26q4 -3 7.5 -4t7.5 0l76 24q15 5 29 -0.5t21 -18.5l66 -113q7 -14 4.5 -28t-12.5 -25l-60 -55 q-2 -2 -4 -5.5t0 -8.5l2 -24t1 -22q0 -11 -1 -23l-2 -24q0 -3 1 -7t3 -7l60 -55v0v0q13 -12 15.5 -26t-4.5 -26v0zM517 672q-36 1 -68 -11.5t-57 -38.5q-25 -25 -39 -56.5t-14 -67.5q0 -46 21.5 -85t60.5 -63q7 -4 11.5 -12t4.5 -18v-30q0 -28 20 -48.5t49 -20.5h16 q27 0 47.5 20t20.5 49v30q0 10 4.5 18t11.5 12q38 23 59.5 61.5t22.5 81.5q1 35 -11.5 66.5t-36.5 56.5q-26 28 -58 42t-65 14v0zM557 291q0 -14 -10.5 -25.5t-26.5 -11.5h-16q-14 0 -25.5 11t-11.5 26v31v4.5v4.5h90v-3.5v-4.5v-32zM587 379q-5 -3 -9.5 -7t-7.5 -10h-114 q-4 4 -8.5 9t-9.5 8q-31 19 -49 51t-18 69q0 29 11 55.5t32 45.5t46.5 29.5t53.5 10.5h2h1q27 -1 53 -12t46 -33q20 -20 30 -46.5t10 -54.5q-2 -34 -20.5 -65t-48.5 -50v0z" />
</svg>