<svg viewBox="0 0 256 256" xmlns="http://www.w3.org/2000/svg">
  <path transform="scale(1, -1) translate(0, -256)" fill="currentColor" d="M103 146q3 -2 3 -5v-8q0 -8 6 -14t14 -6h4q8 0 14 6t6 14v8q0 1 1 2.5t2 2.5q10 6 16 16.5t7 22.5q0 19 -13.5 33.5t-33.5 15.5t-34 -14q-7 -6 -11 -15t-4 -19q1 -12 6.5 -22.5t16.5 -17.5zM130 127h-4q-3 0 -4.5 2t-1.5 4v7h16v-7q0 -2 -1.5 -4t-4.5 -2zM105 210 q9 10 23 10h1q13 -1 23 -10.5t9 -23.5q0 -9 -4 -16t-11 -11q-4 -3 -5 -4h-26q-1 1 -5 4q-7 4 -11 11.5t-4 16.5q0 14 10 23zM251 106v0l-1 3l-3 4l-43 11q-2 1 -4.5 -0.5t-3.5 -4.5t0.5 -5.5t4.5 -3.5l27 -6l-82 -60q-4 -2 -8 -1.5t-7 3.5l-28 32q-7 8 -16.5 9t-17.5 -5 l-61 -47q-3 -2 -3 -5t2 -5.5t5 -2.5t4 2l61 47q3 2 7.5 2t7.5 -4l28 -33q7 -7 16.5 -8t17.5 4l78 56l-5 -22q-1 -2 0.5 -4.5t4.5 -3.5h2q2 0 4 1t2 4l11 41v2z" />
</svg>