<svg viewBox="0 0 1024 1024" xmlns="http://www.w3.org/2000/svg">
  <path transform="scale(1, -1) translate(0, -960)" fill="currentColor" d="M517 586q-34 1 -65 -11.5t-55 -36.5t-37 -55t-13 -65q0 -44 20.5 -81t58.5 -60q7 -5 10.5 -13t3.5 -16v-29q0 -27 19 -46t47 -19h16q27 0 46 19t19 46v31q0 4 1.5 8t3.5 8v0v0q2 3 5 5.5t6 5.5q36 23 56.5 59t22.5 78q1 34 -11.5 64.5t-35.5 54.5q-25 25 -55.5 38 t-62.5 15v0zM554 219q0 -14 -10 -23.5t-24 -9.5h-16q-14 0 -24 9.5t-10 23.5v29v4v4h84v-3v-3v-31zM584 304q-5 -4 -9.5 -7.5t-8.5 -8.5h-108q-4 5 -8 8.5t-10 7.5q-30 19 -47 49t-17 66q0 28 10.5 52.5t29.5 43.5q19 18 43.5 28.5t50.5 10.5h2h2q26 -2 50.5 -12.5 t43.5 -31.5q19 -20 28.5 -44.5t8.5 -51.5q0 -33 -16 -62.5t-45 -47.5v0zM896 722h-218v92q0 27 -18.5 45.5t-45.5 18.5h-204q-27 0 -45.5 -18.5t-18.5 -45.5v-92h-218q-40 0 -68 -28.5t-28 -67.5v-512q0 -40 28 -68t68 -28h768q40 0 68 28t28 68v512q0 39 -28 67.5t-68 28.5 v0zM378 814q0 14 9 23t23 9h204q14 0 23 -9t9 -23v-92h-268v92v0zM960 114q0 -27 -19 -45.5t-45 -18.5h-768q-26 0 -45 18.5t-19 45.5v512q0 26 19 45t45 19h768q26 0 45 -19t19 -45v-512z" />
</svg>