<svg viewBox="0 0 1024 1024" xmlns="http://www.w3.org/2000/svg">
  <path transform="scale(1, -1) translate(0, -960)" fill="currentColor" d="M418 590q7 -4 11.5 -13t4.5 -19v-30q0 -29 20 -49t48 -20h16q29 0 49 20t20 49v32q0 5 1.5 9.5t3.5 8.5v0v0q2 3 5 6.5t6 5.5q39 24 60.5 63t22.5 83q2 35 -11 67.5t-38 58.5q-25 27 -57 41t-66 15q-36 2 -69.5 -11t-58.5 -38q-27 -25 -40 -58t-13 -69q1 -46 23.5 -86 t61.5 -66v0zM557 528q0 -16 -10.5 -26.5t-26.5 -10.5h-16q-16 0 -26.5 10.5t-10.5 26.5v30v5.5v4.5h93v-4.5v-3.5v-32h-3zM410 846q20 21 46.5 31.5t55.5 10.5h2h1q29 -1 55 -13t46 -33q20 -22 30.5 -49t9.5 -55q-1 -36 -19.5 -68t-49.5 -52q-6 -4 -10 -8.5t-9 -9.5h-117 q-3 5 -8 9.5t-9 8.5q-33 20 -51 53t-18 70q1 30 12.5 57t32.5 48v0zM989 27q0 1 0.5 1.5t0.5 1.5q0 2 0.5 2t1.5 2v1.5v1.5v1.5v1.5v0v0l-43 163q-1 6 -7 9.5t-12 1.5q-6 -1 -10 -7t-2 -12l32 -120l-342 243q-28 20 -61 16t-56 -30l-113 -131q-15 -17 -37 -19t-39 11 l-244 190q-5 4 -12 3.5t-11 -6.5q-3 -5 -3 -12t6 -10l244 -189q27 -22 62 -18.5t58 29.5l113 131q15 16 36 18.5t38 -10.5l350 -249l-131 -34q-6 -1 -10 -7t-1 -12q1 -5 5.5 -8t10.5 -3h2h3l164 43h1t1 1q1 0 1.5 0.5t0.5 1.5l1 0.5t2 2.5v-1v1v0v0v0z" />
</svg>