<svg viewBox="0 0 256 256" xmlns="http://www.w3.org/2000/svg">
  <path transform="scale(1, -1) translate(0, -256)" fill="currentColor" d="M129 197q-10 0 -19 -3.5t-16 -10.5q-15 -14 -15 -35q0 -13 6 -24t17 -18q3 -1 3 -6v-8q0 -8 6 -14t15 -6h4q9 0 15 6t6 14v9q0 1 1 3l2 2q10 7 16 17.5t7 23.5q0 9 -3.5 18.5t-10 16.5t-15.5 11t-19 4zM130 86h-4q-3 0 -5 2t-2 4v8h18v-8q0 -2 -2 -4t-5 -2zM146 118 q-2 -1 -4 -4h-28q-3 3 -5 4q-8 5 -12.5 13t-4.5 17q0 15 10.5 25t24.5 10h1q15 0 25 -11t9 -25q1 -8 -3.5 -16t-12.5 -13zM136 251q-21 1 -41 -5.5t-36 -21t-24.5 -34.5t-8.5 -41q0 -43 34 -87q22 -28 54 -52q6 -5 13.5 -5t14.5 4q31 23 53 50q33 43 35 86q0 27 -12 50.5 t-33.5 38.5t-48.5 17zM134 21q-6 -4 -12 0q-29 22 -50 48q-32 41 -32 80q0 19 7.5 35.5t21.5 29.5q25 23 59 23l8 -1q22 -1 41 -14t29.5 -33t9.5 -43q-1 -39 -33 -79q-20 -25 -49 -46z" />
</svg>