<svg viewBox="0 0 1024 1024" xmlns="http://www.w3.org/2000/svg">
  <path transform="scale(1, -1) translate(0, -960)" fill="currentColor" d="M974 483v1v-1v1v-1v1v-1q-3 6 -7.5 10.5t-9.5 8.5l-227 175q1 6 1 12.5v12.5q1 44 -15 84.5t-46 72.5q-30 33 -69.5 50.5t-83.5 18.5q-45 1 -86 -15t-73 -47q-32 -32 -48.5 -72.5t-16.5 -84.5v-13t1 -13l-227 -173q-7 -4 -12 -11l-10 -14v0v0v-0.5v-1.5q-5 -8 -7.5 -18.5 t-2.5 -19.5v-392q0 -35 24.5 -59t58.5 -24h791q35 0 59 24t24 59v384q-1 13 -5.5 25t-12.5 21v0zM381 843q26 25 60 39t71 14h2.5h2.5q37 -1 71 -16.5t60 -42.5q26 -28 39.5 -62.5t13.5 -72.5q-1 -46 -25 -87t-63 -66q-7 -5 -13 -11t-11 -12h-152q-5 8 -11 13.5t-12 9.5 q-42 26 -65 68t-23 90q-1 40 13 75t42 61v0zM448 494h126q-1 -3 -1 -6.5v-7.5v-40q0 -22 -15 -36.5t-36 -14.5h-21q-22 0 -36.5 14.5t-14.5 36.5v38q1 5 0 9t-2 7v0zM301 648q11 -38 35 -71t59 -55q11 -6 17 -18t6 -26v-38q0 -35 24 -59t59 -24h21q34 0 58.5 24t24.5 59v40 q0 13 5.5 24.5t16.5 18.5q34 22 57.5 52.5t35.5 67.5l214 -163l-422 -237l-429 239l1.5 1.5l1.5 1.5zM958 51q0 -21 -14.5 -36t-36.5 -15h-790q-22 0 -36.5 15t-14.5 36v392v5t1 5l437 -242q2 -1 4 -1h4h4t4 1l435 243l2 -8t1 -9v-386v0z" />
</svg>