<svg viewBox="0 0 256 256" xmlns="http://www.w3.org/2000/svg">
  <path transform="scale(1, -1) translate(0, -256)" fill="currentColor" d="M80 126q0 -13 6 -23.5t16 -17.5q3 -2 3 -5v-8q0 -9 6 -15t15 -6h4q8 0 14 6t6 15v8l1 3q0 1 2 2q10 6 16 16.5t6 22.5q1 19 -13 34q-7 7 -15.5 11t-17.5 5q-20 0 -34.5 -14t-14.5 -34zM130 66h-4q-3 0 -4.5 1.5t-1.5 4.5v7h17v-7q-1 -3 -2.5 -4.5t-4.5 -1.5zM128 160h1 q14 -1 23.5 -11t9.5 -24q0 -8 -4.5 -15.5t-11.5 -12.5q-3 -2 -4 -4h-27q-1 2 -5 4q-7 5 -11.5 12.5t-4.5 16.5q0 15 10 24.5t24 9.5zM204 202q-2 2 -5 2t-5 -2t-2 -5t2 -5q15 -14 23.5 -33t8.5 -39q0 -27 -13 -49.5t-36 -36t-49.5 -13.5t-49 13.5t-35.5 36t-13 49.5 q0 31 18 56.5t48 35.5l-10 -23q-1 -3 0 -5.5t4 -3.5l3 -1q4 0 6 5l12 28q3 7 0 14.5t-11 9.5l-28 12q-3 1 -5.5 0t-3.5 -4t0 -5.5t4 -3.5l24 -10q-34 -12 -54.5 -41t-20.5 -64q0 -31 15 -57t41 -41t56.5 -15t56.5 15t41 41t15 57q-1 23 -10.5 45t-26.5 37z" />
</svg>