<svg viewBox="0 0 256 256" xmlns="http://www.w3.org/2000/svg">
  <path transform="scale(1, -1) translate(0, -256)" fill="currentColor" d="M178 230q-11 11 -25 16.5t-29 4.5q-19 -1 -34.5 -12t-24.5 -28t-9 -36.5t8 -36.5t23 -28v-44q0 -9 6.5 -16t16.5 -7h36q10 0 16.5 7t6.5 16v44q15 10 23 27t8 36q0 16 -5.5 30.5t-16.5 26.5zM146 57h-36q-4 0 -7 3t-3 6v39h55v-39q0 -3 -3 -6t-6 -3zM158 119h-23v28 q0 3 -2 5t-5 2t-5.5 -2t-2.5 -5v-28h-22h-1q-13 9 -20.5 23.5t-7 31.5t7.5 31t19.5 22.5t27.5 9.5h4q23 0 40 -17q9 -10 13.5 -22t4.5 -25q0 -16 -7.5 -30.5t-20.5 -23.5zM154 19h-52q-3 0 -5 -2t-2 -5t2 -5.5t5 -2.5h52q3 0 5 2.5t2 5.5t-2 5t-5 2z" />
</svg>