<svg viewBox="0 0 256 256" xmlns="http://www.w3.org/2000/svg">
  <path transform="scale(1, -1) translate(0, -256)" fill="currentColor" d="M246 138v1v1l-4 4l-57 42l1 5q0 12 -4 22.5t-12 19t-18.5 13.5t-22 5t-22.5 -4t-19.5 -12.5t-13 -19t-4.5 -22.5v-5l-55 -42q-5 -4 -6 -7l-1 -1q-2 -5 -2 -11v-98q0 -10 7 -17t17 -7h197q10 0 17 7t7 17v96q-1 9 -5 13zM97 224q13 13 31 13h1q18 -1 30.5 -14.5 t12.5 -30.5q0 -12 -5.5 -21t-15.5 -15q-2 -2 -5 -6h-36q-2 4 -5 6q-10 6 -15.5 16t-5.5 21q0 19 13 31zM116 137h24v-11q0 -4 -2.5 -7t-7.5 -3h-5q-4 0 -7 3t-3 7v10zM97 144q5 -3 5 -8v-10q0 -10 7 -17t17 -7h5q10 0 17 7t7 17v10q0 5 4 8q16 10 23 28l46 -36l-100 -56 l-102 57l48 36q6 -18 23 -29zM227 19h-198q-4 0 -7 3t-3 7v95l105 -58l4 -1l3 1l105 59v-96q0 -4 -2.5 -7t-6.5 -3z" />
</svg>