<svg viewBox="0 0 256 256" xmlns="http://www.w3.org/2000/svg">
  <path transform="scale(1, -1) translate(0, -256)" fill="currentColor" d="M103 161q3 -2 3 -5v-8q0 -8 6 -14t14 -6h4q8 0 14 6t6 14v8q0 1 1 2.5t2 2.5q10 6 16 16.5t7 22.5q0 19 -13.5 33.5t-33.5 14.5q-9 1 -18 -2.5t-16 -10.5t-11 -16t-4 -18q1 -12 6.5 -22.5t16.5 -17.5zM130 142h-4q-3 0 -4.5 1.5t-1.5 4.5v7h16v-7q0 -3 -1.5 -4.5 t-4.5 -1.5zM105 225q10 10 23 10h1q13 -1 23 -10.5t9 -24.5q0 -8 -4 -15.5t-11 -11.5q-4 -2 -5 -4h-26q-1 2 -5 4q-7 5 -11 12.5t-4 16.5q0 14 10 23zM250 21v1l1 1l-11 45q-1 2 -3.5 3.5t-5 1t-4 -3t-1.5 -5.5l6 -22l-79 56q-8 6 -17.5 5t-15.5 -9l-28 -33q-3 -3 -7 -3.5 t-8 2.5l-61 47q-2 2 -5 1.5t-4.5 -2.5t-1.5 -5t3 -5l60 -47q8 -6 18 -5t16 8l29 33q2 3 6.5 3.5t7.5 -2.5l83 -58l-27 -7q-3 0 -4.5 -2.5t-1 -5.5t2.5 -4t4 -1l44 11l3 2h1v0v0z" />
</svg>