<svg viewBox="0 0 256 256" xmlns="http://www.w3.org/2000/svg">
  <path transform="scale(1, -1) translate(0, -256)" fill="currentColor" d="M108 206q-20 1 -34.5 -13t-14.5 -33q0 -13 6 -23.5t16 -16.5q3 -3 3 -6v-7q0 -9 6 -15t14 -6h4q9 0 15 6t6 15v8q0 1 0.5 2.5t2.5 2.5q10 6 15.5 16t6.5 22q0 20 -13.5 34t-32.5 14zM108 100h-4q-2 0 -4 2t-2 4v8h16v-8q1 -2 -1 -4t-5 -2zM124 131q-3 -2 -4 -4h-27 q-1 2 -4 4q-7 5 -11.5 12.5t-4.5 15.5q0 14 10 23.5t23 9.5h1q14 0 23.5 -10t9.5 -24q-1 -8 -5 -15.5t-11 -11.5zM249 17l-63 63q17 20 22.5 45.5t-1.5 51t-26.5 45t-46 26.5t-53 0t-46.5 -27t-27 -46.5t0 -53t27 -46.5q15 -15 34 -22.5t38.5 -7.5t36.5 6.5t32 18.5l63 -63 q2 -2 4.5 -2t5 2t2.5 5t-2 5zM45 85q-17 17 -23 40t0 46t23 40q13 13 29 19.5t33.5 6.5t34 -6.5t29.5 -19.5q17 -17 23 -40t0 -46t-23 -40t-40 -23t-46 0t-40 23z" />
</svg>