<svg viewBox="0 0 256 256" xmlns="http://www.w3.org/2000/svg">
  <path transform="scale(1, -1) translate(0, -256)" fill="currentColor" d="M183 251h-110q-9 0 -16 -7t-7 -16v-200q0 -10 7 -17t16 -7h110q9 0 16 7t7 17v200q0 10 -7 16.5t-16 6.5zM192 28q0 -4 -3 -6.5t-7 -2.5h-109q-3 0 -6 2.5t-3 6.5v200q0 4 2.5 6.5t6.5 2.5h110q3 0 6 -2.5t3 -6.5v-200zM128 84q11 0 19 7.5t8 19t-8 19t-19 7.5t-19 -7.5 t-8 -19t8 -19t19 -7.5zM128 123q5 0 9 -3.5t4 -9t-4 -9t-9 -3.5t-9 3.5t-4 9t4 9t9 3.5zM128 74q-12 0 -23 -6t-18 -17q-2 -2 -1.5 -5t3 -4.5t5 -1.5t4.5 4q5 7 13 11.5t16.5 4.5t16.5 -4.5t14 -11.5q1 -3 4 -3.5t5.5 1t3 4.5t-1.5 5q-7 11 -18 17t-23 6zM110 186h11v-12 q0 -3 2 -5t5 -2t5 2t2 5v12h11q3 0 5.5 2t2.5 5t-2.5 5t-5.5 2h-11v11q0 3 -2 5t-5 2t-5 -2t-2 -5v-11h-11q-3 0 -5.5 -2t-2.5 -5t2.5 -5t5.5 -2z" />
</svg>