<svg viewBox="0 0 1024 1024" xmlns="http://www.w3.org/2000/svg">
  <path transform="scale(1, -1) translate(0, -960)" fill="currentColor" d="M731 928h-438q-34 0 -57 -23t-23 -57v-800q0 -34 23 -57t57 -23h438q34 0 57 23t23 57v800q0 34 -23 57t-57 23zM779 48q0 -20 -13.5 -34t-34.5 -14h-438q-21 0 -34.5 14t-13.5 34v800q0 20 13.5 34t34.5 14h438q21 0 34.5 -14t13.5 -34v-800zM512 283q40 0 67 28t27 67 q0 38 -28 66t-66 28t-66 -28t-28 -66q0 -39 27 -67t67 -28zM512 442q26 0 44 -19t18 -44q0 -26 -18.5 -44t-43.5 -18q-26 0 -44 18.5t-18 43.5t18 44t44 19zM514 221q-48 0 -89.5 -23t-67.5 -64q-4 -4 -2 -11t7 -11l4 -2t4 -1q3 0 7 2t5 6q22 33 56 51.5t74 18.5 q36 0 70 -19t56 -53q4 -6 10.5 -7t12.5 2q6 4 7 10.5t-2 12.5q-27 42 -67.5 65t-84.5 23v0zM438 691h58v-57q0 -8 4.5 -12t11.5 -4t11.5 4t4.5 12v57h58q7 0 11.5 4.5t4.5 11.5t-4.5 11.5t-11.5 4.5h-58v58q0 7 -4.5 11.5t-11.5 4.5t-11.5 -4.5t-4.5 -11.5v-58h-58 q-7 0 -11.5 -4.5t-4.5 -11.5t5 -11.5t11 -4.5z" />
</svg>