<svg viewBox="0 0 256 256" xmlns="http://www.w3.org/2000/svg">
  <path transform="scale(1, -1) translate(0, -256)" fill="currentColor" d="M35 250q-8 -3 -12 -10l-3 -4l-1 -106q0 -105 1 -109t5 -8t7 -5.5t17 -2.5h171l5 3q9 4 12 15q1 5 1 104.5t-1 104.5t-4.5 9.5t-7.5 6.5l-4 3h-166q-18 -1 -20 -1zM221 234l3 -3v-113l-8 -5q-9 -6 -21 -16q-19 -17 -27.5 -19.5t-15.5 -1t-14 8.5q-19 15 -32 20.5t-27 2.5 t-33 -16l-12 -7l-1 12v117q0 14 1 17.5t4 4.5v0q3 1 91 1h89zM152 197q-7 -2 -13.5 -6.5t-9.5 -11.5q-2 -3 -2 -6v-9.5t1.5 -11t6.5 -10t10 -7.5t13 -2.5t13.5 1.5t11.5 8t8 15.5t-1 18.5q-1 5 -6 10.5t-10 8t-11.5 3t-11.5 -0.5h1zM169 181q3 -2 5.5 -5t3 -5t0.5 -7.5 t-2.5 -9.5t-7.5 -7q-12 -5 -21 3q-8 6 -7 16.5t10 14.5q4 2 9.5 2t9.5 -2zM223 63v-38l-6 -6h-178l-6 5v44l36 21q5 3 10 5q10 2 19 -1t22 -13l17 -12q4 -2 9 -4t12.5 -1.5t14 3t13 7t17.5 13.5q18 15 19 15t1 -38z" />
</svg>