<svg viewBox="0 0 256 256" xmlns="http://www.w3.org/2000/svg">
  <path transform="scale(1, -1) translate(0, -256)" fill="currentColor" d="M244 47h-18v162h18q3 0 5 2t2 5t-2 5t-5 2h-18v21q0 3 -2.5 5t-5.5 2t-4.5 -2t-1.5 -5v-21h-168v21q0 3 -2 5t-5 2t-5 -2t-2 -5v-21h-18q-3 0 -5 -2t-2 -4.5t2 -5t5 -2.5h18v-162h-18q-3 0 -5 -2t-2 -5t2 -5t5 -2h18v-21q0 -3 2.5 -5t5.5 -2t5 2t2 5v21h167v-21 q0 -3 2 -5t5 -2t5 2t2 5v21h18q3 0 5 2t2 5t-2 5t-5 2zM44 209h167v-82l-17 18q-5 5 -12.5 5t-12.5 -4l-31 -28q-1 -1 -3 -1t-3 1l-33 44q-5 8 -13.5 8t-14.5 -6l-26 -30v75h-1zM44 47v67l37 41q2 2 3.5 1.5t3.5 -2.5l33 -44q5 -6 13 -7h1q7 0 12 5l31 28q1 1 2.5 1t3.5 -1 l27 -28v-61h-167z" />
</svg>