<svg viewBox="0 0 1024 1024" xmlns="http://www.w3.org/2000/svg">
  <path transform="scale(1, -1) translate(0, -960)" fill="currentColor" d="M976 110h-86v676h86q7 0 11.5 4t4.5 12q0 7 -4.5 11.5t-11.5 4.5h-86v94q0 7 -4.5 11.5t-11.5 4.5q-8 0 -12 -4.5t-4 -11.5v-94h-692v94q0 7 -4 11.5t-12 4.5q-7 0 -11.5 -4.5t-4.5 -11.5v-94h-86q-7 0 -11.5 -4.5t-4.5 -11.5q0 -8 4.5 -12t11.5 -4h86v-674h-86 q-7 0 -11.5 -4.5t-4.5 -11.5t4.5 -11.5t11.5 -4.5h86v-96q0 -7 4.5 -11.5t11.5 -4.5q8 0 12 4.5t4 11.5v94h692v-94q0 -7 4 -11.5t12 -4.5q7 0 11.5 4.5t4.5 11.5v94h86q7 0 11.5 4.5t4.5 11.5q0 8 -4.5 12t-11.5 4zM166 786h692v-370l-90 91q-17 17 -41.5 18t-43.5 -15 l-121 -110q-5 -4 -11 -6t-12 -2q-6 1 -11.5 3.5t-9.5 7.5l-132 176q-9 11 -20.5 17.5t-26.5 6.5q-13 0 -25.5 -5t-22.5 -16l-126 -140v344h1zM166 110v287l151 166q5 5 10.5 7.5t11.5 2.5t12 -3.5t11 -7.5l132 -176q8 -11 19 -17t25 -7h2.5h3.5q11 0 21.5 3.5t18.5 12.5 l122 110q8 7 19.5 7t20.5 -9l112 -113v-259h-692v-4z" />
</svg>