<svg viewBox="0 0 1024 1024" xmlns="http://www.w3.org/2000/svg">
  <path transform="scale(1, -1) translate(0, -960)" fill="currentColor" d="M941 944v0h-858q-27 -1 -46.5 -20.5t-22.5 -45.5v-859q3 -26 21.5 -44.5t44.5 -22.5h864q28 1 47 22t19 48v852q-3 27 -22.5 48t-46.5 22v0zM987 22q0 -20 -13.5 -34t-31.5 -15h-862q-19 1 -32 15t-13 33v856q1 19 15 32t33 16h856q21 -1 34.5 -15t13.5 -35v-853v0z M134 603h79v-304h-79v304zM362 459l-12 79q-1 18 -4 35t-5 30h-101v-304h67v200l29 -200h50l27 205v-205h67v304h-104l-14 -144v0zM674 579q-5 7 -13.5 10.5t-18.5 7.5q-10 1 -28 3t-44 2h-60v-304h47.5h47.5q18 0 39.5 1t32.5 19q5 8 6.5 17t2.5 19q2 8 2 16.5v18.5v52.5 v52.5v36.5t-2 23.5q-1 7 -4.5 13t-7.5 12v0zM618 394q0 -16 -3 -25l-4 -12q-1 -4 -6.5 -5.5t-14.5 -1.5v202h11t7 -2q1 -1 3 -3.5t3 -5.5q2 -4 2 -10.5v-16.5v-120h2v0zM885 507q-3 5 -6.5 8t-9.5 5q-10 4 -21.5 5t-21.5 -2q-5 -1 -10 -2.5t-10 -3.5q-2 -1 -4.5 -2.5 t-4.5 -4.5q-1 -1 -4.5 -3t-3.5 -3v49.5v49.5h-77v-304h72l5 21q5 -5 10 -9.5t11 -8.5q4 -3 11 -3.5t13 -0.5t12.5 1t12.5 3q13 6 21 18.5t10 26.5q1 21 1 41.5v41.5v29v27q-1 6 -2.5 11t-3.5 10v0zM818 371q0 -9 -0.5 -17t-1.5 -10q-1 -4 -4.5 -5t-8.5 -1q-3 0 -5 1t-4 3 q-2 4 -2 9.5v14.5v82v16.5t2 7.5q1 1 3.5 3t5.5 2q4 0 8 -1.5t5 -5.5q1 -3 1.5 -8.5t0.5 -15.5v-75z" />
</svg>