<svg viewBox="0 0 1024 1024" xmlns="http://www.w3.org/2000/svg">
  <path transform="scale(1, -1) translate(0, -960)" fill="currentColor" d="M976 464q-7 0 -11.5 -4.5t-4.5 -11.5v-312q0 -56 -38 -96t-92 -40h-636q-54 0 -92 40t-38 96v312q0 7 -4.5 11.5t-11.5 4.5t-11.5 -4.5t-4.5 -11.5v-312q0 -70 47 -119t115 -49h636q68 0 115 49t47 119v312q0 7 -4.5 11.5t-11.5 4.5zM467 301q10 -10 21.5 -14t23.5 -4 t23.5 4.5t19.5 13.5l138 136q5 5 5 11t-5 11t-11.5 5t-11.5 -5l-137 -136q-1 -1 -2.5 -2t-2.5 -1v1v1v590q0 7 -4.5 11.5t-11.5 4.5t-11.5 -4.5t-4.5 -11.5v-590v-2v-2q-1 2 -3 3t-3 2l-136 136q-5 5 -11.5 5t-11.5 -5t-5 -11t5 -11l136 -136v0z" />
</svg>