<svg viewBox="0 0 1024 1024" xmlns="http://www.w3.org/2000/svg">
  <path transform="scale(1, -1) translate(0, -960)" fill="currentColor" d="M928 896h-832q-26 0 -45 -19t-19 -45v-768q0 -26 19 -45t45 -19h832q26 0 45 19t19 45v768q0 26 -19 45t-45 19zM96 864h832q13 0 22.5 -9.5t9.5 -22.5v-142h-896v142q0 13 9.5 22.5t22.5 9.5zM928 32h-832q-13 0 -22.5 9.5t-9.5 22.5v594h896v-594q0 -13 -9.5 -22.5 t-22.5 -9.5zM688 418q-5 3 -12 2t-10 -6q-4 -4 -3 -11t6 -11q18 -13 31.5 -25.5t21.5 -19.5q-15 -14 -48 -40.5t-77 -44.5q-6 -2 -9 -8t-1 -12q3 -5 6.5 -7.5t8.5 -2.5h2.5t3.5 2q64 25 105 63t42 41q4 4 4 10t-4 10l-18 19t-49 41v0zM603 526q-6 4 -12.5 2t-9.5 -8 l-146 -259q-44 17 -78 44t-50 42q21 21 78 61t129 40q7 0 11.5 4.5t4.5 11.5t-4.5 11.5t-11.5 4.5q-50 0 -93 -19q-44 -18 -76 -40.5t-51 -42.5q-19 -19 -20 -21q-4 -5 -4 -10.5t4 -10.5q2 -2 42 -40t103 -64l-21 -40q-3 -6 -1 -12.5t8 -9.5q2 -2 3.5 -2h4.5q5 0 8.5 2 t5.5 6l184 328q3 6 0.5 13t-8.5 9v0z" />
</svg>