<svg viewBox="0 0 256 256" xmlns="http://www.w3.org/2000/svg">
  <path transform="scale(1, -1) translate(0, -256)" fill="currentColor" d="M232 243h-208q-8 0 -13.5 -5.5t-5.5 -13.5v-192q0 -8 5.5 -13.5t13.5 -5.5h208q8 0 14 5.5t6 13.5v192q-1 8 -6.5 13.5t-13.5 5.5zM24 229h208q2 0 3.5 -1.5t1.5 -3.5v-33h-218v33q0 2 1.5 3.5t3.5 1.5zM232 27h-208q-2 0 -3.5 1.5t-1.5 3.5v145h218v-145q0 -2 -1.5 -3.5 t-3.5 -1.5zM174 123q-3 2 -5.5 1.5t-4.5 -3t-1.5 -5.5t3.5 -4l10 -9q-14 -13 -28 -19q-2 -1 -3.5 -3.5t0 -6t6.5 -3.5h2q21 8 38 27v0q2 2 2 4.5t-2 4.5q0 1 -5 6t-12 10zM152 150q-2 2 -5 1t-4 -3l-7 -14q-1 2 -3 3.5t-4 1.5q-21 0 -42 -14q-11 -7 -20 -17v0q-2 -2 -2 -4.5 t2 -5.5v0q16 -17 34 -25l-4 -7q-1 -2 -0.5 -5t2.5 -4t5.5 -1t5.5 3l46 82q1 2 0 5t-4 4zM82 103q8 8 18 14q15 8 29 8h1l-22 -40q-13 6 -26 18z" />
</svg>