<svg viewBox="0 0 256 256" xmlns="http://www.w3.org/2000/svg">
  <path transform="scale(1, -1) translate(0, -256)" fill="currentColor" d="M36 237h189q3 0 5 2t2 5t-2 5t-5 2h-189q-3 0 -5.5 -2t-2.5 -5t2.5 -5t5.5 -2zM225 19h-189q-3 0 -5.5 -2t-2.5 -5t2.5 -5.5t5.5 -2.5h189q3 0 5 2.5t2 5.5t-2 5t-5 2zM75 82q2 0 4 1q6 3 7 9v72q0 3 -2 5.5t-4 3.5q-6 3 -11 -1l-41 -35q-4 -4 -4 -9t3 -8l42 -36 q3 -2 6 -2zM72 156v-55l-32 27zM225 193h-90q-3 0 -5 -2t-2 -5t2 -5t5 -2h90q3 0 5 2t2 5t-2 5t-5 2zM225 135h-90q-3 0 -5 -2t-2 -5t2 -5.5t5 -2.5h90q3 0 5 2.5t2 5.5t-2 5t-5 2zM225 77h-90q-3 0 -5 -2t-2 -5t2 -5.5t5 -2.5h90q3 0 5 2.5t2 5.5t-2 5t-5 2z" />
</svg>