<svg viewBox="0 0 1024 1024" xmlns="http://www.w3.org/2000/svg">
  <path transform="scale(1, -1) translate(0, -960)" fill="currentColor" d="M123 896h759q7 0 11.5 4.5t4.5 11.5t-4.5 11.5t-11.5 4.5h-759q-7 0 -11.5 -4.5t-4.5 -11.5t4.5 -11.5t11.5 -4.5v0zM882 0h-759q-7 0 -11.5 -4.5t-4.5 -11.5t4.5 -11.5t11.5 -4.5h759q7 0 11.5 4.5t4.5 11.5t-4.5 11.5t-11.5 4.5zM906 474l-167 142q-6 5 -13.5 6 t-15.5 -1q-8 -4 -12.5 -11.5t-4.5 -15.5v-288q1 -9 6 -15t13 -9q2 -2 5.5 -2h5.5q5 0 9.5 1.5t8.5 4.5l165 143q4 3 7.5 10t3.5 14q0 5 -2.5 11t-8.5 10v0zM725 312v274l160 -136zM123 664h362q7 0 11.5 4.5t4.5 11.5t-4.5 11.5t-11.5 4.5h-362q-7 0 -11.5 -4.5t-4.5 -11.5 t4.5 -11.5t11.5 -4.5v0zM123 432h362q7 0 11.5 4.5t4.5 11.5t-4.5 11.5t-11.5 4.5h-362q-7 0 -11.5 -4.5t-4.5 -11.5t4.5 -11.5t11.5 -4.5v0zM123 200h362q7 0 11.5 4.5t4.5 11.5t-4.5 11.5t-11.5 4.5h-362q-7 0 -11.5 -4.5t-4.5 -11.5t4.5 -11.5t11.5 -4.5v0z" />
</svg>