<svg viewBox="0 0 256 256" xmlns="http://www.w3.org/2000/svg">
  <path transform="scale(1, -1) translate(0, -256)" fill="currentColor" d="M31 237h189q3 0 5.5 2t2.5 5t-2.5 5t-5.5 2h-189q-3 0 -5 -2t-2 -5t2 -5t5 -2zM220 19h-189q-3 0 -5 -2t-2 -5t2 -5.5t5 -2.5h189q3 0 5.5 2.5t2.5 5.5t-2.5 5t-5.5 2zM228 137l-41 35q-6 4 -11 2q-3 -2 -4.5 -4.5t-1.5 -5.5v-72q1 -6 6 -9q3 -1 5.5 -1t5.5 3l41 35 q4 4 4.5 8.5t-4.5 8.5zM184 101v55l32 -28zM31 179h90q3 0 5 2t2 5t-2 5.5t-5 2.5h-90q-3 0 -5 -2.5t-2 -5.5t2 -5t5 -2zM31 121h90q3 0 5 2t2 5t-2 5t-5 2h-90q-3 0 -5 -2t-2 -5t2 -5t5 -2zM31 63h90q3 0 5 2t2 5t-2 5t-5 2h-90q-3 0 -5 -2t-2 -5t2 -5t5 -2z" />
</svg>