<svg viewBox="0 0 1024 1024" xmlns="http://www.w3.org/2000/svg">
  <path transform="scale(1, -1) translate(0, -960)" fill="currentColor" d="M142 896h759q7 0 11.5 4.5t4.5 11.5t-4.5 11.5t-11.5 4.5h-759q-7 0 -11.5 -4.5t-4.5 -11.5t4.5 -11.5t11.5 -4.5v0zM901 0h-759q-7 0 -11.5 -4.5t-4.5 -11.5t4.5 -11.5t11.5 -4.5h759q7 0 11.5 4.5t4.5 11.5t-4.5 11.5t-11.5 4.5zM283 283q4 -3 8.5 -4.5t9.5 -1.5h5.5 t5.5 1q7 4 12.5 10t6.5 14v288q0 10 -4.5 17t-12.5 11q-8 3 -15.5 2t-13.5 -7l-167 -139q-4 -4 -7.5 -10.5t-3.5 -13.5q0 -8 3.5 -13.5t7.5 -9.5l165 -144v0zM299 586v-274l-160 138zM901 696h-362q-7 0 -11.5 -4.5t-4.5 -11.5t4.5 -11.5t11.5 -4.5h362q7 0 11.5 4.5 t4.5 11.5t-4.5 11.5t-11.5 4.5zM901 464h-362q-7 0 -11.5 -4.5t-4.5 -11.5t4.5 -11.5t11.5 -4.5h362q7 0 11.5 4.5t4.5 11.5t-4.5 11.5t-11.5 4.5zM901 232h-362q-7 0 -11.5 -4.5t-4.5 -11.5t4.5 -11.5t11.5 -4.5h362q7 0 11.5 4.5t4.5 11.5t-4.5 11.5t-11.5 4.5z" />
</svg>