<svg viewBox="0 0 1024 1024" xmlns="http://www.w3.org/2000/svg">
  <path transform="scale(1, -1) translate(0, -960)" fill="currentColor" d="M941 584q-29 34 -70 52t-85 18q-54 0 -105.5 -43t-85.5 -78l-83 -83l-125 124q-29 29 -62.5 54t-86.5 25q-44 0 -84.5 -18.5t-70.5 -52.5q-30 -32 -42.5 -74.5t-6.5 -86.5q7 -58 44.5 -104t92.5 -64q41 -13 82 -10t78 23q23 12 70 44t79 64l30 31l42 -42q28 -27 59 -50 t66 -41l13 -6q21 -12 45.5 -17.5t48.5 -5.5q17 0 33.5 2.5t32.5 8.5q55 18 92.5 64t44.5 104q9 44 -3.5 86t-42.5 76v0zM459 397q-30 -30 -75 -61t-66 -42q-31 -15 -66 -18t-70 9q-46 15 -78 53t-38 88q-5 38 5.5 74t35.5 65q25 27 59 43t72 16q44 0 71.5 -20.5t55.5 -48.5 l125 -125l-31 -33v0zM958 424q-6 -49 -38 -87t-78 -54q-35 -11 -70 -8.5t-66 18.5l-13 6q-33 17 -62.5 38.5t-54.5 46.5l-42 42l84 83q31 31 77.5 71.5t90.5 40.5q37 0 71.5 -15.5t59.5 -43.5t35.5 -64t5.5 -74v0z" />
</svg>