<svg viewBox="0 0 256 256" xmlns="http://www.w3.org/2000/svg">
  <path transform="scale(1, -1) translate(0, -256)" fill="currentColor" d="M196 74q-13 0 -24 6l-4 1q-16 8 -32 23l-8 9l-6 -6q-7 -8 -20 -17q-11 -7 -18 -10q-20 -11 -42 -4q-15 5 -25 17t-11 28q-2 12 1.5 23t11 20t18.5 13.5t23 4.5t22 -6q6 -4 16 -14l30 -30l19 20q14 14 22 20q15 10 27 10t23 -4.5t18.5 -13.5t11 -20t1.5 -23 q-2 -16 -12 -28t-24 -17q-8 -2 -18 -2zM146 114q12 -12 29 -20l3 -2q15 -8 32 -2q10 3 17.5 12t9.5 20q2 18 -10 33q-5 6 -13 9.5t-17 3.5t-21 -9q-7 -6 -19 -17l-19 -19zM60 168q-9 0 -17 -3.5t-14 -9.5q-12 -14 -9 -33q1 -11 8.5 -20t18.5 -12q17 -6 31 2q7 3 17 10 q11 8 18 15l5 6l-30 30q-8 8 -13 11q-7 4 -15 4z" />
</svg>