<svg viewBox="0 0 256 256" xmlns="http://www.w3.org/2000/svg">
  <path transform="scale(1, -1) translate(0, -256)" fill="currentColor" d="M232 232h-208q-8 0 -13.5 -5.5t-5.5 -13.5v-62q0 -8 5.5 -13.5t13.5 -5.5h61v-35h-25q-8 0 -14 -5.5t-6 -13.5v-36q0 -8 6 -13.5t14 -5.5h137q8 0 13.5 5.5t5.5 13.5v36q0 8 -5.5 13.5t-13.5 5.5h-28v35h63q8 0 13.5 5.5t5.5 13.5v63q0 7 -5.5 12.5t-13.5 5.5zM202 78 v-36q0 -2 -1.5 -3.5t-4.5 -1.5h-136q-3 0 -4.5 1.5t-1.5 3.5v36q0 3 1.5 4.5t4.5 1.5h137q2 0 3.5 -2t1.5 -4zM155 98h-56v34h56v-34zM237 151q0 -2 -1.5 -3.5t-3.5 -1.5h-208q-2 0 -3.5 1.5t-1.5 3.5v63q0 2 1.5 3.5t3.5 1.5h208q2 0 3.5 -1.5t1.5 -3.5v-63zM63 189h-13 q-3 0 -5.5 -2t-2.5 -5t2.5 -5t5.5 -2h13q3 0 5 2t2 5t-2 5t-5 2zM110 189h-14q-3 0 -5 -2t-2 -5t2 -5t5 -2h14q3 0 5 2t2 5t-2 5t-5 2zM191 189h-14q-3 0 -5 -2t-2 -5t2 -5t5 -2h14q3 0 5 2t2 5t-2 5t-5 2z" />
</svg>