<svg viewBox="0 0 1024 1024" xmlns="http://www.w3.org/2000/svg">
  <path transform="scale(1, -1) translate(0, -960)" fill="currentColor" d="M928 854h-832q-26 0 -45 -18.5t-19 -45.5v-249q0 -27 19 -45.5t45 -18.5h258v-163h-116q-26 0 -45 -19t-19 -45v-144q0 -27 19 -45.5t45 -18.5h549q27 0 45.5 18.5t18.5 45.5v144q0 26 -18.5 45t-45.5 19h-123v163h264q26 0 45 18.5t19 45.5v249q0 27 -19 45.5t-45 18.5z M818 250v-144q0 -14 -9.5 -23t-22.5 -9h-548q-13 0 -22.5 9t-9.5 23v144q0 13 9.5 22.5t22.5 9.5h549q12 0 21.5 -9.5t9.5 -22.5v0zM632 314h-246v163h246v-163zM960 541q0 -13 -9.5 -22.5t-22.5 -9.5h-832q-13 0 -22.5 9.5t-9.5 22.5v249q0 14 9.5 23t22.5 9h832 q13 0 22.5 -9t9.5 -23v-249zM253 682h-55q-7 0 -11.5 -4.5t-4.5 -11.5q0 -8 4.5 -12t11.5 -4h55q7 0 11.5 4t4.5 12q0 7 -4.5 11.5t-11.5 4.5zM438 682h-54q-7 0 -11.5 -4.5t-4.5 -11.5q0 -8 4.5 -12t11.5 -4h54q8 0 12 4t4 12q0 7 -4 11.5t-12 4.5zM763 682h-54 q-7 0 -11.5 -4.5t-4.5 -11.5q0 -8 4.5 -12t11.5 -4h54q7 0 11.5 4t4.5 12q0 7 -4.5 11.5t-11.5 4.5z" />
</svg>