<svg viewBox="0 0 256 256" xmlns="http://www.w3.org/2000/svg">
  <path transform="scale(1, -1) translate(0, -256)" fill="currentColor" d="M225 93h-13q-2 7 -8 11t-13 4h-61l-35 120q-1 6 -6.5 8t-10.5 -2l-2 -1v2q-2 7 -8.5 12t-13.5 5l-23 -1q-12 0 -18.5 -9.5t-3.5 -20.5l11 -36l-3 -3q-3 -1 -4 -4.5t1 -6.5l46 -150q2 -7 8 -11.5t14 -4.5h109q7 0 12.5 3.5t8.5 8.5h13q9 0 16 7t7 16v30q0 10 -7 16.5 t-16 6.5zM35 148h69l9 -31h-68zM26 172zM100 162h-69l-3 11l55 47zM22 225q-1 5 1.5 8t7.5 3l23 1q3 0 5.5 -2t3.5 -5l2 -7l-33 -28zM82 19q-3 0 -5.5 1.5t-3.5 4.5l-24 78h67l24 -84h-58zM200 28q0 -4 -2.5 -6.5t-6.5 -2.5h-36l-22 75h57q4 0 7 -3t3 -7v-56zM234 41 q0 -4 -2.5 -6.5t-6.5 -2.5h-11v47h11q3 0 6 -2.5t3 -6.5v-29z" />
</svg>