<svg viewBox="0 0 1024 1024" xmlns="http://www.w3.org/2000/svg">
  <path transform="scale(1, -1) translate(0, -960)" fill="currentColor" d="M987 774l-144 144q-5 5 -11 5t-11 -5q-5 -4 -5 -10.5t5 -11.5l59 -59l-112 -112l-158 158q-5 5 -11.5 5t-11.5 -5t-5 -11t5 -11l59 -59l-489 -490q-24 -24 -24 -58t24 -57l38 -39l-158 -158q-5 -5 -5 -11.5t5 -10.5q2 -3 5.5 -4t5.5 -1t5.5 1t5.5 4l159 158l43 -43 q12 -12 27 -18t30 -6q16 0 31 6t27 18l490 489l59 -59q2 -2 5.5 -3.5t5.5 -1.5t5.5 1.5t5.5 3.5q5 5 5 11.5t-5 11.5l-158 158l112 112l62 -62q3 -3 6 -4t5 -1q3 0 6 1t6 4q2 2 4 9t-3 11v0zM726 486l-68 69q-5 5 -11.5 5t-11.5 -5t-5 -11t5 -11l69 -69l-91 -91l-107 107 q-5 5 -11.5 5t-11.5 -5t-5 -11.5t5 -10.5l107 -108l-97 -97l-69 67q-5 5 -11.5 5t-10.5 -5q-5 -5 -5 -11.5t5 -10.5l68 -69l-115 -115q-14 -15 -35 -15t-35 15l-104 104q-15 14 -15 35t15 35l489 490l176 -176l-120 -116v0z" />
</svg>