<svg viewBox="0 0 1024 1024" xmlns="http://www.w3.org/2000/svg">
  <path transform="scale(1, -1) translate(0, -960)" fill="currentColor" d="M958 290l-160 158l138 138q20 20 31 46t11 54q0 29 -11 55t-31 46l-86 87q-21 20 -46.5 30.5t-54.5 10.5t-55 -10.5t-46 -30.5l-136 -140l-158 159q-33 32 -79.5 32t-79.5 -32l-128 -128q-32 -33 -32 -79.5t32 -79.5l159 -158l-138 -138q-20 -20 -31 -46t-11 -54 q0 -29 11 -55t31 -46l86 -87q21 -20 46.5 -30.5t54.5 -10.5t55 10.5t46 30.5l138 138l158 -158q17 -17 37.5 -24.5t40.5 -7.5q22 0 43 8t37 24l128 128q16 15 25 35.5t9 42.5q-1 24 -9.5 44.5t-24.5 37.5v0zM672 850q16 15 36 23.5t42 8.5q23 0 43 -8.5t36 -23.5l86 -87 q16 -15 24 -35t8 -43q0 -22 -8 -42.5t-24 -36.5l-137 -137l-244 243l138 138v0zM352 46q-16 -15 -36 -23.5t-42 -8.5q-23 0 -43 8.5t-36 23.5l-86 87q-16 15 -24 35t-8 43q0 22 8 42.5t24 36.5l137 137l242 -241l-136 -140v0zM936 154l-128 -128q-23 -23 -56.5 -23t-57.5 23 l-606 603q-23 23 -23 56t23 57l128 128q11 11 25.5 17.5t30.5 6.5t30.5 -6t25.5 -18l605 -604q11 -11 17.5 -26t6.5 -30q1 -16 -4.5 -31t-16.5 -25v0zM461 630q-5 5 -11.5 5t-11.5 -5l-107 -107q-5 -5 -5 -11t5 -11q3 -3 6 -4t5 -1q3 0 6 1t6 4l107 107q5 5 5 11.5t-5 10.5z M579 512q-5 5 -11 5t-11 -5l-107 -107q-5 -5 -5 -11.5t5 -11.5q2 -2 5 -3t6 -1q2 0 5.5 1t5.5 3l107 108q5 4 5 10.5t-5 11.5v0zM675 395l-107 -107q-5 -5 -5 -11.5t5 -10.5q2 -3 5.5 -4t5.5 -1q3 0 6 1t5 4l108 107q4 5 4 11t-4 11q-5 5 -11.5 4.5t-11.5 -4.5v0z" />
</svg>