<svg viewBox="0 0 1024 1024" xmlns="http://www.w3.org/2000/svg">
  <path transform="scale(1, -1) translate(0, -960)" fill="currentColor" d="M813 896h93q21 0 36.5 -16t15.5 -38v-93q0 -7 4.5 -11.5t11.5 -4.5q8 0 12 4.5t4 11.5v93q0 36 -25 61t-59 25h-93q-7 0 -11.5 -4.5t-4.5 -11.5t4.5 -11.5t11.5 -4.5zM46 734q8 0 12 4.5t4 11.5v92q0 22 16 38t39 16h93q7 0 11.5 4.5t4.5 11.5t-4.5 11.5t-11.5 4.5h-93 q-36 0 -61.5 -25t-25.5 -61v-93q0 -6 5 -10.5t11 -4.5v0zM210 0h-93q-22 0 -38.5 15.5t-16.5 37.5v93q0 7 -4 11.5t-12 4.5q-7 0 -11.5 -4.5t-4.5 -11.5v-93q0 -36 25.5 -60.5t61.5 -24.5h93q7 0 11.5 4.5t4.5 11.5t-5 11.5t-11 4.5v0zM974 163q-7 0 -11.5 -4.5t-4.5 -11.5 v-93q0 -21 -15.5 -36.5t-36.5 -15.5h-93q-7 0 -11.5 -4.5t-4.5 -11.5q0 -8 4.5 -12t11.5 -4h93q36 0 60 25t24 59v93q0 6 -4 11t-12 5zM350 0h-22q-7 0 -11.5 -4.5t-4.5 -11.5t4.5 -11.5t11.5 -4.5h22q8 0 12 4.5t4 11.5t-4 11.5t-12 4.5zM699 0h-24q-7 0 -11.5 -4.5 t-4.5 -11.5t4.5 -11.5t11.5 -4.5h24q7 0 11.5 4.5t4.5 11.5t-5 11.5t-11 4.5zM328 896h22q8 0 12 4.5t4 11.5t-4 11.5t-12 4.5h-22q-7 0 -11.5 -4.5t-4.5 -11.5t4.5 -11.5t11.5 -4.5zM675 896h24q7 0 11.5 4.5t4.5 11.5t-4.5 11.5t-11.5 4.5h-24q-7 0 -11.5 -4.5t-4.5 -11.5 t5 -11.5t11 -4.5zM978 650q-8 0 -12 -4.5t-4 -11.5v-24q0 -8 4 -12t12 -4q7 0 11.5 4t4.5 12v24q0 7 -5 11.5t-11 4.5zM978 301q-8 0 -12 -4.5t-4 -11.5v-23q0 -7 4 -11.5t12 -4.5q7 0 11.5 4.5t4.5 11.5v23q0 7 -5 11.5t-11 4.5zM50 650q-8 0 -12 -4.5t-4 -11.5v-24 q0 -8 4 -12t12 -4q7 0 11.5 4t4.5 12v24q0 7 -5 11.5t-11 4.5v0zM50 246q7 0 11.5 4.5t4.5 11.5v23q0 7 -4.5 11.5t-11.5 4.5q-8 0 -12 -4.5t-4 -11.5v-23q0 -7 4 -11.5t12 -4.5v0zM974 432q8 0 12 4.5t4 11.5t-4 11.5t-12 4.5h-448v448q0 7 -4 11.5t-12 4.5 q-7 0 -11.5 -4.5t-4.5 -11.5v-448h-448q-7 0 -11.5 -4.5t-4.5 -11.5t4.5 -11.5t11.5 -4.5h448v-448q0 -7 4.5 -11.5t11.5 -4.5q8 0 12 4.5t4 11.5v448h448z" />
</svg>