<svg viewBox="0 0 256 256" xmlns="http://www.w3.org/2000/svg">
  <path transform="scale(1, -1) translate(0, -256)" fill="currentColor" d="M203 237h23q5 0 8 -3t3 -8v-23q0 -3 2 -5t5 -2t5 2t2 5v23q0 11 -7 18t-17 7h-23q-4 0 -6 -2t-2 -5t2 -5t5 -2zM12 196q3 0 5 2.5t2 5.5v22q0 5 3 8t7 3h23q3 0 5.5 2t2.5 5t-2.5 5t-5.5 2h-23q-10 0 -17 -7t-7 -18v-23q0 -3 2 -5t5 -2zM52 19h-23q-4 0 -7 3t-3 7v23 q0 3 -2 5.5t-5 2.5t-5.5 -2.5t-2.5 -5.5v-23q0 -10 7.5 -17t17.5 -7h23q3 0 5 2t2 5t-2 5t-5 2zM244 60q-3 0 -5.5 -2.5t-2.5 -5.5v-23q0 -4 -3 -7t-7 -3h-23q-3 0 -5 -2t-2 -5t2 -5.5t5 -2.5h23q10 0 17 7.5t7 17.5v23q1 3 -1 5.5t-5 2.5zM88 19h-6q-3 0 -5 -2t-2 -5 t2 -5.5t5 -2.5h6q3 0 5 2.5t2 5.5t-2 5t-5 2zM175 19h-6q-3 0 -5 -2t-2 -5t2 -5.5t5 -2.5h6q3 0 5 2.5t2 5.5t-2 5t-5 2zM82 237h6q3 0 5 2t2 5t-2 5t-5 2h-6q-3 0 -5 -2t-2 -5t2 -5t5 -2zM169 237h6q3 0 5 2t2 5t-2 5t-5 2h-6q-3 0 -5 -2t-2 -5t2 -5t5 -2zM244 182 q-3 0 -5 -2.5t-2 -5.5v-6q0 -3 2 -5t5 -2t5.5 2t2.5 5v6q-1 3 -3 5.5t-5 2.5zM244 94q-3 0 -5 -2t-2 -5v-5q0 -3 2 -5.5t5 -2.5t5.5 2.5t2.5 5.5v5q-1 3 -3 5t-5 2zM12 182q-3 0 -5 -2.5t-2 -5.5v-6q0 -3 2 -5t5 -2t5.5 2t2.5 5v6q-1 3 -3 5.5t-5 2.5zM12 75q3 0 5.5 2 t2.5 5v6q0 3 -2.5 5t-5.5 2t-5 -2t-2 -5v-6q0 -3 2 -5t5 -2zM244 121q3 0 5 2t2 5t-2 5t-5 2h-109v109q0 3 -2 5t-5 2t-5.5 -2t-2.5 -5v-109h-108q-3 0 -5.5 -2t-2.5 -5t2.5 -5.5t5.5 -2.5h109v-108q0 -3 2 -5t5 -2t5 2t2 5v109h109z" />
</svg>