<svg viewBox="0 0 256 256" xmlns="http://www.w3.org/2000/svg">
  <path transform="scale(1, -1) translate(0, -256)" fill="currentColor" d="M128 187q-16 0 -29.5 -8t-21.5 -21.5t-8 -29.5t8 -29.5t21.5 -21.5t29.5 -8t29.5 8t21.5 21.5t8 29.5t-8 29.5t-21.5 21.5t-29.5 8zM128 83q-19 0 -32 13t-13 32t13 32t32 13t32 -13t13 -32t-13 -32t-32 -13zM192 216q-6 0 -10.5 -4.5t-4.5 -11t4.5 -11t11 -4.5t11 4.5 t4.5 11t-4.5 11t-11.5 4.5zM192 255h-128q-17 0 -31.5 -8.5t-23 -23t-8.5 -31.5v-128q0 -17 8.5 -31.5t23 -23t31.5 -8.5h128q18 0 32 8.5t22.5 23t8.5 31.5v128q0 17 -8.5 31.5t-23 23t-31.5 8.5zM241 64q0 -20 -14 -34.5t-35 -14.5h-128q-20 0 -34.5 14.5t-14.5 34.5v128 q0 20 14.5 34.5t34.5 14.5h128q20 0 34.5 -14.5t14.5 -34.5v-128z" />
</svg>