<svg viewBox="0 0 1024 1024" xmlns="http://www.w3.org/2000/svg">
  <path transform="scale(1, -1) translate(0, -960)" fill="currentColor" d="M1006 653q-1 38 -7.5 67t-14.5 54q-8 26 -22 47t-34 41q-20 21 -41 34t-45 22q-24 10 -52.5 16t-69.5 7q-42 2 -74 2.5t-134 0.5h-133t-72 -2q-41 -1 -68.5 -7.5t-52.5 -14.5q-26 -8 -47 -22.5t-41 -35.5q-21 -20 -34.5 -41t-21.5 -47q-10 -24 -16 -52t-7 -69t-2 -72 t-1 -133v-133t2 -72q1 -41 7.5 -68.5t14.5 -52.5q8 -26 22 -47t34 -41q20 -21 42 -34.5t46 -21.5q24 -9 52.5 -15.5t69.5 -7.5q40 -2 71 -2.5t133 -0.5h133t72 2q41 1 69 7.5t53 14.5t46 22t42 34q20 20 33.5 42t22.5 46q8 24 14.5 52.5t7.5 69.5q1 38 1.5 69.5t0.5 133.5 t1.5 134.5t-0.5 73.5v0zM917 248q-1 -36 -7 -57t-11 -36q-7 -17 -16 -30.5t-22 -25.5q-13 -13 -26 -21.5t-30 -16.5q-13 -5 -34.5 -11t-58.5 -7h-69h-129q-99 0 -130.5 0.5t-69.5 1.5q-36 1 -57.5 7t-35.5 10q-17 8 -30.5 17t-25.5 22q-13 13 -21.5 26t-17.5 30 q-4 13 -10 34t-7 59v67.5v130.5v131t1 69q2 36 7.5 57t10.5 36q7 17 16 30.5t21 25.5q13 13 26 21t30 16q13 4 34 10t59 7t69 1.5t131 0.5q99 0 130 -0.5t70 -1.5q36 -1 57 -7l35 -10q17 -8 30.5 -16.5t25.5 -20.5q14 -13 22 -26t17 -30q5 -13 10.5 -34.5t6.5 -58.5 q2 -38 2 -69v-131t-1 -131t-2 -69zM512 702q-53 0 -100 -20q-46 -20 -80.5 -54.5t-54.5 -81.5q-19 -46 -19 -98q0 -53 20 -100q20 -46 54.5 -80.5t81.5 -54.5q46 -19 98 -19t99 19q46 20 81 54.5t56 80.5q20 47 20 100t-20 100q-20 46 -54.5 80.5t-81.5 54.5q-47 19 -100 19 zM512 282q-70 0 -118 49t-48 117t49 117t117 49q70 0 118 -48t48 -118t-48 -118t-118 -48zM838 714q0 -25 -17 -42.5t-42 -17.5q-24 0 -41.5 17.5t-17.5 42.5q0 24 17.5 41.5t41.5 17.5q25 0 42 -17.5t17 -41.5v0z" />
</svg>