<svg viewBox="0 0 256 256" xmlns="http://www.w3.org/2000/svg">
  <path transform="scale(1, -1) translate(0, -256)" fill="currentColor" d="M82 128q0 -19 13.5 -32.5t33 -13.5t33 13.5t13.5 32.5t-13.5 32.5t-33 13.5t-33 -13.5t-13.5 -32.5zM179 252h-102q-20 0 -36.5 -10t-26.5 -26.5t-10 -36.5v-101q0 -20 10 -37t26.5 -27t36.5 -10h101q20 0 37 10t27 26.5t10 36.5v102q0 20 -10 36.5t-26.5 26.5t-36.5 10z M128 67q-16 0 -30 8.5t-22 22.5t-8 30t8 30t22 22.5t30.5 8.5t30 -8.5t22 -22.5t8.5 -30t-8 -30t-22 -22.5t-31 -8.5zM212 183q-6 -7 -16 -7t-17 7t-7 16.5t6.5 17t17 7.5t17 -8t6.5 -17t-7 -16zM196 210q-4 0 -7 -3t-3 -7t3 -7t7 -3t7 3t3 7t-3 7t-7 3z" />
</svg>