<svg viewBox="0 0 1024 1024" xmlns="http://www.w3.org/2000/svg">
  <path transform="scale(1, -1) translate(0, -960)" fill="currentColor" d="M699 448q0 -77 -54.5 -131.5t-130.5 -54.5q-77 0 -131.5 54.5t-54.5 131.5t54.5 131.5t131.5 54.5q76 0 130.5 -54.5t54.5 -131.5zM715 944h-406q-61 0 -114 -23t-93 -63t-63 -93t-23 -114v-403q0 -62 23 -116t63 -94t93 -63t114 -23h403q62 0 116 23t94 63t63 93t23 114 v406q0 61 -23 114t-63 93t-93 63t-114 23zM514 205q-51 0 -96 19q-44 19 -77 52.5t-52 77.5t-19 94t20 94q19 44 52 77.5t77 52.5t95 19q49 0 93 -19t77 -52.5t52 -77.5t19 -94t-19 -94q-18 -44 -51 -77.5t-77 -52.5t-94 -19zM850 669q-12 -13 -29.5 -20t-38.5 -7 q-18 0 -35 7t-32 20q-13 13 -20 30t-7 37t7 36.5t20 30.5q13 15 30 22t37 7q18 0 36 -7t32 -20q12 -16 19.5 -33.5t7.5 -37.5q-1 -19 -8 -35.5t-19 -29.5zM784 774q-16 0 -27 -11t-11 -27t11 -27t27 -11t27 11t11 27t-10.5 27t-27.5 11v0z" />
</svg>