<svg viewBox="0 0 1024 1024" xmlns="http://www.w3.org/2000/svg">
  <path transform="scale(1, -1) translate(0, -960)" fill="currentColor" d="M512 672q-46 0 -87 -18q-41 -17 -71.5 -47.5t-47.5 -71.5q-18 -41 -18 -87t18 -87q17 -41 47.5 -71.5t71.5 -47.5q41 -18 87 -18t87 18q40 17 70.5 47.5t47.5 71.5t17 87t-17 87t-47.5 71.5t-70.5 47.5q-41 18 -87 18zM512 256q-79 0 -135.5 56.5t-56.5 135.5t56.5 135.5 t135.5 56.5t134.5 -56.5t55.5 -135.5t-55.5 -135.5t-134.5 -56.5zM770 798q-26 0 -43.5 -17.5t-17.5 -42.5q0 -26 17.5 -43.5t43.5 -17.5q25 0 42.5 17.5t17.5 43.5q0 25 -17.5 42.5t-42.5 17.5v0zM768 944h-512q-50 0 -94 -19q-43 -19 -75.5 -51.5t-51.5 -75.5 q-19 -44 -19 -94v-512q0 -49 19 -93t51.5 -76.5t75.5 -51.5q44 -19 94 -19h512q49 0 93 19q43 19 76 51.5t52 75.5q19 44 19 94v512q0 50 -19 94q-19 43 -51.5 75.5t-75.5 51.5q-44 19 -94 19zM976 192q0 -43 -16 -81q-17 -38 -45 -66t-66 -45q-38 -16 -81 -16h-512 q-43 0 -81 16q-38 17 -66 45t-45 66q-16 38 -16 81v512q0 43 16 81q17 38 45 66t66 45q38 16 81 16h512q43 0 81 -16q38 -17 66 -45t45 -66q16 -38 16 -81v-512z" />
</svg>