<svg viewBox="0 0 256 256" xmlns="http://www.w3.org/2000/svg">
  <path transform="scale(1, -1) translate(0, -256)" fill="currentColor" d="M252 179q-1 15 -6 31q-4 12 -13.5 21.5t-22 14.5t-30.5 5q-14 1 -52 1h-51q-15 -1 -31 -6q-11 -4 -21.5 -14t-15 -22.5t-4.5 -30.5v-7q-1 -17 -1 -44v-51q1 -15 6 -31q4 -12 14 -21.5t22 -14.5q15 -5 29.5 -5.5t52.5 -0.5h51q15 1 30 6q12 4 22 14t14 22q5 15 6 30z M229 78q0 -11 -4 -22v-1q-4 -9 -9.5 -14t-14.5 -10v0q-11 -4 -23 -4h-100q-11 1 -22 4l-1 1q-8 3 -13.5 8.5t-9.5 14.5v0q-4 11 -5 23l1 100q0 11 4 22v1q4 9 9.5 14.5t13.5 8.5v0q11 4 23 5h50h50q12 -1 23 -4l1 -1q8 -3 13.5 -8.5t9.5 -14.5v0q4 -11 5 -23v-50 q0 -27 -1 -44v-6zM128 192q-17 0 -32 -9t-23.5 -23.5t-8.5 -31.5t9 -32t23.5 -23.5t31.5 -8.5t32 8.5t23.5 23.5t8.5 32.5t-8.5 32t-23 23t-32.5 8.5zM128 86q-17 0 -29.5 12.5t-12.5 29.5t12.5 29.5t29.5 12.5t29.5 -12.5t12.5 -29.5t-12.5 -29.5t-29.5 -12.5zM180 194 q0 -6 4.5 -10t10.5 -4t10.5 4t4.5 10.5t-4.5 10.5t-10.5 4t-10.5 -4t-4.5 -11z" />
</svg>