<svg viewBox="0 0 1024 1024" xmlns="http://www.w3.org/2000/svg">
  <path transform="scale(1, -1) translate(0, -960)" fill="currentColor" d="M949 810h-120q-6 0 -10.5 -3.5t-5.5 -9.5l-50 -205h-80q5 17 6.5 33.5t1.5 33.5q0 36 -9.5 70.5t-27.5 65.5q-36 60 -95 95t-130 36h-5h-5h-3.5h-4.5q-67 -2 -124.5 -37t-91.5 -92q-18 -31 -27.5 -65.5t-9.5 -70.5q0 -17 2.5 -34.5t5.5 -32.5h-91q-3 0 -6.5 -1.5 t-6.5 -5.5q-2 -2 -3 -6t0 -7l75 -323q2 -6 6 -9.5t10 -3.5h548q6 0 10 3.5t6 9.5l128 528h107q7 0 11.5 4.5t4.5 11.5t-4.5 11t-11.5 4zM659 661q0 -17 -2.5 -34.5t-6.5 -32.5h-138q2 16 3.5 33t1.5 34q0 20 -2 39.5t-5 38.5q32 4 63 11t61 18q13 -24 19 -52t6 -55zM358 594 q-2 16 -3 33t-1 34q0 19 2 38t4 39v0v0q16 -2 32 -3t32 -1q13 0 27 1t26 1q3 -18 4.5 -37t1.5 -38q0 -18 -1 -35t-4 -32h-120v0zM419 891q18 -29 31.5 -60t21.5 -63q-25 -2 -52 -1.5t-52 3.5q7 31 20 61.5t31 59.5zM616 797q-28 -10 -55.5 -16t-56.5 -10q-8 33 -20.5 64 t-29.5 59q50 -6 91.5 -31t70.5 -66zM382 891q-15 -29 -27 -58.5t-21 -59.5q-26 3 -51.5 9t-50.5 15q28 37 66.5 61.5t83.5 32.5zM189 661q0 29 6.5 56t18.5 53q28 -10 56 -17t56 -11q-3 -19 -4.5 -39t-1.5 -41q0 -16 1 -33t4 -34h-127q-3 15 -6 31.5t-3 34.5v0zM685 270 h-522l-67 292h661l-72 -292v0zM611 131h-376q-33 0 -57 -24t-24 -57q0 -34 24 -58t57 -24q34 0 58 24t24 58q0 14 -4.5 26t-13.5 23h247q-9 -11 -13.5 -23t-4.5 -26q0 -34 24 -58t58 -24q33 0 57 24t24 58q1 33 -22.5 57t-57.5 24zM285 50q0 -21 -14.5 -35.5t-35.5 -14.5 q-20 0 -34.5 14.5t-14.5 35.5q0 20 14.5 34.5t34.5 14.5q21 0 35.5 -14.5t14.5 -34.5zM611 0q-20 0 -34.5 14.5t-14.5 35.5q0 20 14.5 34.5t34.5 14.5q21 0 35.5 -14.5t14.5 -34.5q0 -21 -14.5 -35.5t-35.5 -14.5z" />
</svg>