<svg viewBox="0 0 256 256" xmlns="http://www.w3.org/2000/svg">
  <path transform="scale(1, -1) translate(0, -256)" fill="currentColor" d="M237 222h-30q-2 0 -4 -1.5t-3 -4.5l-12 -48h-14q2 8 2 14q0 19 -9.5 35t-25 25t-33.5 9h-5q-18 -1 -33 -10t-24.5 -25t-9.5 -35q0 -8 2 -14h-19q-4 0 -6 -3t-1 -6l19 -81q0 -2 2 -3.5t5 -1.5h136q3 0 5 1.5t2 3.5l32 129h24q3 0 5 2.5t2 5.5t-2 5.5t-5 2.5zM160 167h-29 l1 14q0 9 -1 17q9 2 26 6q5 -11 5 -23q0 -6 -2 -14zM105 233q5 -8 9 -22q-10 -1 -18 0q2 10 9 22zM92 167q-1 5 -1 13.5t1 16.5l14 -1l11 1q1 -8 1 -16l-1 -14h-25zM149 217q-9 -3 -21 -5q-2 11 -8 23q17 -4 29 -18zM90 234q-6 -11 -9 -22l-1 1q-12 2 -17 4q10 12 27 17z M50 181q0 13 6 23q12 -4 23 -5q-1 -9 -1 -18v-14h-26q-2 6 -2 14zM169 86h-126l-15 67h157zM153 52h-94q-10 0 -17 -7t-7 -16.5t7 -16.5t16.5 -7t16.5 7t7 16q0 5 -2 10h52q-2 -5 -2 -10q0 -9 6.5 -16t16.5 -7t17 7t6.5 16.5t-7.5 16.5t-16 7zM68 28q0 -4 -2.5 -6.5 t-6.5 -2.5t-7 2.5t-3 6.5t3 7t7 3t6.5 -3t2.5 -7zM153 19q-4 0 -7 3t-3 7t3 6.5t7 2.5t6.5 -2.5t2.5 -6.5t-2.5 -7t-6.5 -3z" />
</svg>