<svg viewBox="0 0 1024 1024" xmlns="http://www.w3.org/2000/svg">
  <path transform="scale(1, -1) translate(0, -960)" fill="currentColor" d="M928 486h-346q4 15 5.5 30t1.5 30q0 37 -9.5 73t-29.5 67q-37 64 -99.5 100.5t-136.5 37.5h-8h-4h-3h-2.5h-3.5q-70 -4 -129 -40t-95 -96q-18 -32 -27.5 -68.5t-9.5 -73.5q0 -45 14 -87t39 -78q35 -48 86.5 -77t110.5 -35v-133q0 -26 18.5 -45t45.5 -19h582q26 0 45 19 t19 45v286q0 27 -19 45.5t-45 18.5zM950 445l-313 -125l-314 125q5 5 11 7t12 2h582q6 0 12 -3t10 -6v0zM304 787q19 -30 32.5 -63t23.5 -68q-28 -2 -56 -2t-56 4q10 33 23.5 66t32.5 63zM243 626q17 -2 34 -3t33 -1q15 0 29 1t27 3q4 -20 6 -40t2 -40q0 -16 -1 -30.5 t-3 -29.5h-24q-22 0 -38.5 -12.5t-22.5 -31.5q-10 0 -19.5 -1t-17.5 -1v0v0q-6 26 -9.5 53t-3.5 54q0 19 1.5 39t6.5 40q-1 0 -0.5 0h0.5v0zM282 410v-66q-8 16 -14.5 31.5t-11.5 32.5h13.5t12.5 2zM557 546q0 -16 -2.5 -30.5t-5.5 -29.5h-147q2 15 3 30t1 30q0 21 -2 41.5 t-6 41.5q34 5 66.5 12t65.5 18q13 -26 20 -54.5t7 -58.5zM512 688q-29 -10 -59 -17t-61 -10q-8 33 -21.5 66t-31.5 63q53 -6 98 -32.5t75 -69.5zM267 789q-17 -30 -30 -62t-21 -65q-26 4 -53.5 10t-53.5 16q29 40 69.5 66t88.5 35zM64 546q0 30 7 58.5t20 54.5 q29 -9 59 -16.5t60 -12.5q-4 -20 -6 -41.5t-2 -42.5q0 -28 3 -56t9 -55q-27 -3 -54.5 -9.5t-55.5 -15.5v0v0q-19 30 -29.5 64t-10.5 72v0zM126 382q24 8 49 13.5t49 7.5q8 -26 19 -51.5t24 -49.5q-41 8 -77 28.5t-64 51.5v0zM928 104h-582q-14 0 -23 9.5t-9 22.5v147v0v0v0 v0v131l318 -126q1 0 2.5 -1t3.5 -1q3 0 4.5 0.5t2.5 1.5l315 126v-278q0 -13 -9.5 -22.5t-22.5 -9.5v0z" />
</svg>