<svg viewBox="0 0 256 256" xmlns="http://www.w3.org/2000/svg">
  <path transform="scale(1, -1) translate(0, -256)" fill="currentColor" d="M232 140h-83q1 6 1 12q0 20 -10 37t-26 26.5t-35 9.5h-6q-18 -1 -33.5 -10.5t-25 -26t-9.5 -36.5q0 -24 14 -42q8 -12 21 -19.5t28 -10.5v-30q0 -8 5.5 -13.5t13.5 -5.5h145q8 0 13.5 5.5t5.5 13.5v72q0 7 -5.5 12.5t-13.5 5.5zM86 140q-5 0 -10 -3t-7 -8h-5q-2 11 -2 23 q0 9 1 17l15 -1l11 1q1 -9 1 -17v-12h-4zM66 183q3 12 10 24q6 -11 10 -24q-6 -1 -20 0zM54 114q3 -10 7 -18q-13 4 -24 14q9 2 17 4zM228 126l-69 -27l-68 27h137zM104 140q1 8 1 12q0 10 -1 19q15 2 27 6q6 -12 6 -25q0 -6 -1 -12h-32zM123 190q-10 -4 -23 -6q-3 14 -9 26 q19 -5 32 -20zM61 209q-5 -10 -9 -24q-9 1 -20 5q11 13 29 19zM24 177q12 -4 25 -6q-2 -12 -2 -19q0 -12 3 -25q-8 -1 -23 -5q-9 14 -9 30q1 14 6 25zM232 45h-146q-2 0 -3.5 1.5t-1.5 3.5v66l75 -30h3h2l75 30v-66q1 -2 -0.5 -3.5t-3.5 -1.5z" />
</svg>