<svg viewBox="0 0 1024 1024" xmlns="http://www.w3.org/2000/svg">
  <path transform="scale(1, -1) translate(0, -960)" fill="currentColor" d="M795 0h-126q-7 0 -11.5 -4.5t-4.5 -11.5t4.5 -11.5t11.5 -4.5h126q7 0 11.5 4.5t4.5 11.5t-4.5 11.5t-11.5 4.5zM570 0h-122q-7 0 -11.5 -4.5t-4.5 -11.5t4.5 -11.5t11.5 -4.5h123q7 0 11.5 4.5t4.5 11.5t-5 11.5t-12 4.5zM805 666h-63v83q0 7 -4 11.5t-12 4.5 q-7 0 -11.5 -4.5t-4.5 -11.5v-83h-348q-34 0 -58 -24t-24 -58v-322h-62q-8 0 -12 -4t-4 -12q0 -7 4 -11.5t12 -4.5h62v-83q0 -7 4.5 -11.5t11.5 -4.5t11.5 4.5t4.5 11.5v83h349q33 0 57 24t24 58v322h63q7 0 11.5 4t4.5 12q0 7 -4.5 11.5t-11.5 4.5zM710 312 q0 -20 -14.5 -35t-34.5 -15h-347v322q0 20 14.5 35t34.5 15h349v-322h-2zM904 637q19 0 32 -13.5t13 -31.5q0 -7 4.5 -11.5t11.5 -4.5t11.5 4.5t4.5 11.5q0 32 -23 54.5t-54 22.5q-7 0 -11.5 -4.5t-4.5 -11.5t4.5 -11.5t11.5 -4.5zM965 509q-7 0 -11.5 -4.5t-4.5 -11.5v-123 q0 -8 4.5 -12t11.5 -4t11.5 4t4.5 12v123q0 6 -4.5 11t-11.5 5zM965 286q-7 0 -11.5 -4t-4.5 -12v-123q0 -7 4.5 -11.5t11.5 -4.5t11.5 4.5t4.5 11.5v123q0 8 -4.5 12t-11.5 4zM965 61q-7 0 -11.5 -4.5t-4.5 -11.5q0 -19 -13.5 -32t-31.5 -13q-7 0 -11.5 -4.5t-4.5 -11.5 t4.5 -11.5t11.5 -4.5q32 0 54.5 23t22.5 54q0 7 -4.5 11.5t-11.5 4.5zM358 0q-19 0 -31.5 13.5t-12.5 31.5q0 7 -4.5 11.5t-11.5 4.5q-8 0 -12 -4.5t-4 -11.5q0 -33 22.5 -55t53.5 -22q8 0 12 4.5t4 11.5t-4 11.5t-12 4.5zM229 896h126q7 0 11.5 4.5t4.5 11.5t-4.5 11.5 t-11.5 4.5h-126q-7 0 -11.5 -4.5t-4.5 -11.5t4.5 -11.5t11.5 -4.5v0zM454 896h122q7 0 11.5 4.5t4.5 11.5t-4.5 11.5t-11.5 4.5h-123q-7 0 -11.5 -4.5t-4.5 -11.5t5 -11.5t12 -4.5v0zM120 259q-19 0 -32 13.5t-13 31.5q0 7 -4.5 11.5t-11.5 4.5t-11.5 -4.5t-4.5 -11.5 q0 -32 23 -54.5t54 -22.5q7 0 11.5 4.5t4.5 11.5t-4.5 11.5t-11.5 4.5zM59 387q7 0 11.5 4.5t4.5 11.5v123q0 8 -4.5 12t-11.5 4t-11.5 -4t-4.5 -12v-123q0 -6 4.5 -11t11.5 -5zM59 610q7 0 11.5 4t4.5 12v123q0 7 -4.5 11.5t-11.5 4.5t-11.5 -4.5t-4.5 -11.5v-123 q0 -8 4.5 -12t11.5 -4zM120 928q-32 0 -54.5 -23t-22.5 -54q0 -7 4.5 -11.5t11.5 -4.5t11.5 4.5t4.5 11.5q0 18 13.5 31.5t31.5 13.5q7 0 11.5 4.5t4.5 11.5t-4.5 11.5t-11.5 4.5zM666 896q19 0 31.5 -13.5t12.5 -31.5q0 -7 4.5 -11.5t11.5 -4.5q8 0 12 4.5t4 11.5 q0 33 -22.5 55t-53.5 22q-8 0 -12 -4.5t-4 -11.5t4 -11.5t12 -4.5z" />
</svg>