<svg viewBox="0 0 256 256" xmlns="http://www.w3.org/2000/svg">
  <path transform="scale(1, -1) translate(0, -256)" fill="currentColor" d="M199 19h-32q-3 0 -5 -2t-2 -5t2 -5.5t5 -2.5h32q3 0 5 2.5t2 5.5t-2 5t-5 2zM142 19h-30q-3 0 -5 -2t-2 -5t2 -5.5t5 -2.5h31q3 0 5 2.5t2 5.5t-2.5 5t-5.5 2zM201 185h-12v18q0 3 -2 5t-5 2t-5.5 -2t-2.5 -5v-18h-84q-9 0 -16 -6.5t-7 -16.5v-78h-12q-3 0 -5 -2t-2 -5 t2 -5t5 -2h12v-18q0 -3 2 -5t5 -2t5.5 2t2.5 5v18h84q10 0 16.5 7t6.5 16v78h13q3 0 5 2t2 5t-2.5 5t-5.5 2zM175 94q0 -4 -2.5 -6.5t-6.5 -2.5h-85v77q0 4 3 6.5t6 2.5h85v-77zM226 172q4 0 6 -2.5t2 -5.5t2.5 -5.5t5.5 -2.5t5 2.5t2 5.5q0 9 -6.5 15.5t-16.5 6.5 q-3 0 -5 -2t-2 -5t2 -5t5 -2zM241 146q-3 0 -5 -2t-2 -5v-31q0 -3 2 -5t5 -2t5 2t2 5v31q0 3 -2 5t-5 2zM241 91q-3 0 -5 -2t-2 -5v-31q0 -3 2 -5t5 -2t5 2t2 5v31q0 3 -2 5t-5 2zM241 34q-3 0 -5 -2t-2 -5t-2.5 -5.5t-5.5 -2.5t-5.5 -2t-2.5 -5t2.5 -5.5t5.5 -2.5 q9 0 15.5 6.5t6.5 16.5q0 3 -2 5t-5 2zM90 19q-4 0 -6.5 2.5t-2.5 5.5t-2 5t-5 2t-5 -2t-2 -5q0 -9 6.5 -15.5t15.5 -6.5q3 0 5 2t2 5t-1.5 5t-4.5 2zM57 237h32q3 0 5 2t2 5t-2 5t-5 2h-32q-3 0 -5 -2t-2 -5t2 -5t5 -2zM114 237h30q3 0 5 2t2 5t-2 5t-5 2h-31q-3 0 -5 -2 t-2 -5t2.5 -5t5.5 -2zM30 84q-4 0 -6 2.5t-2 5.5t-2.5 5.5t-5 2.5t-4.5 -2.5t-2 -5.5q0 -9 6.5 -15.5t15.5 -6.5q3 0 5 2t2 5t-2 5t-5 2zM15 110q3 0 5 2t2 5v31q0 3 -2 5t-5 2t-5 -2t-2 -5v-31q0 -3 2 -5t5 -2zM15 165q3 0 5 2t2 5v31q0 3 -2 5t-5 2t-5 -2t-2 -5v-31 q0 -3 2 -5t5 -2zM30 251q-9 0 -15.5 -6.5t-6.5 -15.5q0 -3 2 -5t5 -2t5 2t2 5t2.5 5.5t5.5 2.5t5.5 2t2.5 5t-2.5 5t-5.5 2zM166 237q4 0 6.5 -2.5t2.5 -5.5t2 -5t5 -2t5 2t2 5q0 9 -6.5 15.5t-15.5 6.5q-3 0 -5 -2t-2 -5t1.5 -5t4.5 -2z" />
</svg>