<svg viewBox="0 0 1024 1024" xmlns="http://www.w3.org/2000/svg">
  <path transform="scale(1, -1) translate(0, -960)" fill="currentColor" d="M811 339q35 48 53.5 103.5t18.5 114.5q0 49 -13 97t-38 90q-25 43 -59 76q-34 34 -74.5 58t-85.5 37q-46 12 -95 13h-6.5h-4.5q-48 -1 -94 -13q-46 -13 -86.5 -36.5t-74.5 -57.5q-34 -33 -58 -75q-26 -42 -39 -90t-13 -98q0 -58 18 -114.5t54 -104.5q25 -35 56 -62 q32 -27 68 -46.5t76 -29.5q40 -11 82 -12v0v0v-61q-24 -5 -41.5 -22.5t-22.5 -41.5h-174q-8 0 -12 -4.5t-4 -11.5t4 -11.5t12 -4.5h174q6 -28 28 -47t52 -19t52 18.5t28 47.5h174q8 0 12 4.5t4 11.5t-4 11.5t-12 4.5h-174q-5 24 -22.5 41.5t-41.5 22.5v59v0v0q43 2 83 13 t76 30.5t68 47.5q31 27 56 61v0zM850 558q0 -51 -15.5 -99.5t-44.5 -90.5q-1 1 -2 1.5t-2 0.5q-40 13 -80.5 21.5t-81.5 13.5q10 37 14.5 75.5t4.5 77.5q0 30 -2.5 59.5t-8.5 59.5q46 6 89.5 16.5t86.5 24.5v0h2q20 -37 30 -77.5t10 -82.5v0zM512 221q-24 37 -42 76.5 t-30 80.5q36 2 73 2t73 -2q-14 -41 -32 -80.5t-42 -76.5zM512 894q29 -45 49.5 -93t32.5 -99q-40 -3 -82 -3t-83 3q13 52 33.5 100t49.5 92zM422 672q22 -2 44.5 -3.5t45.5 -1.5t45.5 1.5t44.5 3.5q4 -28 7.5 -56.5t3.5 -57.5q0 -38 -5 -75t-14 -73q-40 3 -81 3t-81 -3 q-10 36 -14.5 73.5t-4.5 74.5q0 28 2.5 56.5t6.5 57.5v0zM794 746q-41 -15 -83 -24.5t-84 -14.5q-12 49 -31 96t-44 91q73 -8 136.5 -47t105.5 -101v0zM474 893q-27 -45 -46 -91.5t-30 -95.5q-43 6 -84.5 15.5t-81.5 22.5q41 64 104 102t138 47v0zM174 558q0 42 10.5 82.5 t29.5 77.5q44 -15 88 -25t90 -16q-6 -29 -8.5 -59t-2.5 -60q0 -38 4.5 -77t14.5 -76q-41 -5 -81.5 -14t-80.5 -21q-1 0 -2 -1t-2 -1q-29 42 -44.5 90.5t-15.5 99.5v0zM253 341q37 12 76 20.5t77 12.5q12 -39 29 -77.5t39 -74.5q-65 8 -122 38t-99 81v0zM562 50v0v0v0v0 q0 -21 -15 -35.5t-35 -14.5t-35 14.5t-15 33.5v0v0v0v0q0 20 15 34t35 14q20 1 35 -12.5t15 -33.5zM550 222q22 36 39 74.5t29 77.5q39 -4 77.5 -12.5t75.5 -20.5q-42 -51 -99 -81t-122 -38v0z" />
</svg>