<svg viewBox="0 0 256 256" xmlns="http://www.w3.org/2000/svg">
  <path transform="scale(1, -1) translate(0, -256)" fill="currentColor" d="M597 67h-56v4q0 4 -4 4h-4v8q21 1 38.5 12t27.5 29t10 39.5t-10.5 40t-29 29.5t-40.5 11t-40.5 -11t-29.5 -29.5t-11 -40t10.5 -39.5t28 -29t38.5 -12v-8h-4q-4 0 -4 -4v-4h-57q-4 0 -4 -4t4 -4h57v-4q0 -4 4 -4h16q4 0 4 4v4h56q4 0 4 4q0 2 -1 3t-3 1zM547 93 q9 11 14 34h30q-7 -12 -18.5 -21t-25.5 -13zM554 135h-51q-2 13 -2 28.5t2 27.5h52q2 -12 2 -26.5t-3 -29.5zM601 163q0 -15 -5 -28h-33q2 13 2 28t-2 28h33q5 -13 5 -28zM591 200h-30q-5 22 -14 34q14 -4 25.5 -13t18.5 -21zM529 236q7 0 13.5 -10t10.5 -26h-48 q4 16 10.5 26t13.5 10zM511 233q-9 -11 -15 -34h-30q8 13 19.5 22t25.5 12zM456 163q0 15 6 28h33q-3 -13 -3 -28t3 -28h-33q-6 13 -6 28zM466 127h30q5 -22 15 -34q-14 4 -25.5 13t-19.5 21zM505 127h48q-4 -16 -10.5 -26t-13.5 -10t-13.5 10t-10.5 26zM533 59h-8v8h8v-8z M205 99q19 25 19 57q0 26 -13 48t-34.5 34t-46.5 13h-4q-25 -1 -46.5 -13.5t-34.5 -34.5t-13 -48q0 -31 19 -56q12 -18 30.5 -28t39.5 -11v-10q-12 -3 -15 -15h-42q-3 0 -5 -2t-2 -5t2 -5t5 -2h42q2 -7 8 -12t13.5 -5t13.5 5t9 12h41q3 0 5 2t2 5t-2 5t-5 2h-41 q-4 12 -15 15v10q21 2 39.5 12t30.5 27zM110 121q-4 16 -4 34q0 11 2 25h20l20 1q2 -11 2 -25q0 -19 -4 -34q-19 1 -36 -1zM111 194q6 21 17 40q11 -19 17 -40q-17 -1 -34 0zM142 108q-5 -16 -14 -31q-8 13 -14 31h28zM143 75q8 15 13 31q13 -2 32 -6q-19 -20 -45 -25z M197 112q-18 5 -37 8q4 19 4 36q0 13 -2 26q19 3 39 10q8 -17 8 -36q1 -24 -12 -44zM193 204q-18 -6 -34 -8q-6 20 -16 40q15 -3 28 -11.5t22 -20.5zM113 236q-10 -19 -16 -40q-16 3 -34 8q18 25 50 32zM46 156q0 19 9 36q19 -7 39 -10q-2 -13 -2 -26q0 -19 4 -36 q-19 -2 -37 -8q-13 20 -13 44zM68 100q18 4 32 6q5 -16 13 -31q-26 5 -45 25zM128 19q-4 0 -6.5 2.5t-2.5 6.5t2.5 6.5t6.5 2.5t6.5 -2.5t2.5 -6.5t-2.5 -6.5t-6.5 -2.5z" />
</svg>