<svg viewBox="0 0 256 256" xmlns="http://www.w3.org/2000/svg">
  <path transform="scale(1, -1) translate(0, -256)" fill="currentColor" d="M173 167q-20 19 -49 17q-16 -1 -30 -9.5t-22 -23t-8.5 -30.5t7 -30t20.5 -24v-30q0 -10 7 -17t18 -7h24q11 0 18 7t7 17v30q13 9 20.5 23t7.5 30q0 27 -20 47zM140 27h-24q-5 0 -8 3t-3 8v26h47v-26q-1 -5 -4 -8t-8 -3zM156 78h-21v13q0 3 -2 5t-5 2t-5 -2t-2 -5v-13h-21 q-11 7 -17 18.5t-6 24.5q1 20 14.5 34.5t33.5 15.5h3q21 0 35 -14q8 -7 12 -16.5t4 -20.5q0 -12 -6 -23.5t-17 -18.5zM128 206q3 0 5 2t2 5v23q0 3 -2 5t-5 2t-5 -2t-2 -5v-24q0 -2 2 -4t5 -2zM230 192q3 2 3 5t-2.5 5t-5 2t-5.5 -2l-16 -16q-2 -2 -2 -4.5t2 -5t5 -2.5t5 2z M35 202q-2 2 -5 2t-5 -2.5t-2 -5t2 -4.5l16 -16q2 -2 4.5 -2t5 2t2 5t-2.5 5zM35 110h-23q-3 0 -5 -2t-2 -5t2 -5t5 -2h23q3 0 5 2.5t2 5.5t-2 4.5t-5 1.5zM244 110h-23q-3 0 -5 -2t-2 -5t2 -5t5 -2h23q3 0 5 2t2 5t-2 5t-5 2z" />
</svg>