<svg viewBox="0 0 256 256" xmlns="http://www.w3.org/2000/svg">
  <path transform="scale(1, -1) translate(0, -256)" fill="currentColor" d="M50 107h-34q-4 0 -7.5 -3.5t-3.5 -9.5v-73q0 -5 3.5 -9t7.5 -4h34q5 0 8 4t3 9v73q0 6 -3 9.5t-8 3.5zM47 23h-28v70h28v-70zM145 128h-34q-5 0 -8 -3.5t-3 -8.5v-96q0 -4 3.5 -8t7.5 -4h34q5 0 8 3.5t3 8.5v96q0 5 -3.5 8.5t-7.5 3.5zM142 23h-28v91h28v-91zM240 96h-34 q-5 0 -8 -3.5t-3 -8.5v-63q0 -5 3 -8.5t8 -3.5h34q4 0 7.5 3.5t3.5 8.5v63q0 5 -3.5 8.5t-7.5 3.5zM237 23h-28v60h28v-60zM139 208h-21q-4 0 -6.5 2t-2.5 5.5t2.5 6t6.5 2.5h31q3 0 5 2.5t2 5.5t-2 5t-5 2h-11v1q0 3 -2 5.5t-5 2.5t-5 -2.5t-2 -5.5v-2h-6q-10 0 -16.5 -6.5 t-6.5 -16t6.5 -16t16.5 -6.5h21q3 0 6 -2.5t3 -6t-3 -6t-6 -2.5h-36q-3 0 -5 -2t-2 -5t2 -5t5 -2h21v-2q0 -3 2 -5.5t5 -2.5t5 2.5t2 5.5v2h1q10 0 16.5 6.5t6.5 16t-7 16.5t-16 7z" />
</svg>