<svg viewBox="0 0 1024 1024" xmlns="http://www.w3.org/2000/svg">
  <path transform="scale(1, -1) translate(0, -960)" fill="currentColor" d="M971 293l-56 67q-3 4 -8.5 5.5t-10.5 -0.5l-82 -39q-6 -2 -8 -8t0 -12q3 -6 9 -8.5t12 0.5l50 24q-20 -62 -56 -112q-37 -50 -85 -85.5t-105 -55.5q-57 -19 -119 -19t-120 19q-57 20 -105 56.5t-84 86.5q-36 51 -56 113q-1 5 -7 7.5t-12 0.5q-6 -3 -9 -8.5t-2 -12.5 q21 -67 60 -121q39 -55 91 -94.5t115 -60.5q62 -22 129 -22q68 0 130 22q63 21 115 60.5t91 94.5q39 54 61 121v2v1l38 -45l6 -4t7 -2q2 0 5 1t5 2q4 6 5 13t-4 13v0zM213 550q6 4 8 10.5t-2 12.5q-3 6 -9.5 8t-12.5 -2l-58 -32q16 67 52 122q35 56 84.5 96t110.5 62 q60 23 126 23q67 0 127 -23q61 -22 110.5 -62.5t85.5 -96.5q35 -56 51 -124q2 -6 8 -10t12 -1q6 1 9.5 7t1.5 12q-18 73 -56 133q-38 61 -92 104.5t-119 67.5q-66 25 -138 25t-138 -25q-65 -24 -119 -68t-92 -105q-38 -60 -56 -134v-0.5v-0.5l-45 53q-4 4 -10.5 5t-11.5 -4 t-5.5 -11t3.5 -11l66 -79q2 -2 5.5 -4t7.5 -2h3.5t4.5 2l88 52v0zM510 254q8 0 12 4.5t4 11.5v32h28q33 0 57 24t24 56q0 33 -24 56.5t-57 23.5h-84q-20 0 -34.5 14.5t-14.5 33.5q0 20 14.5 34t34.5 14h133q7 0 11.5 4.5t4.5 11.5q0 8 -4.5 12t-11.5 4h-77v32q0 8 -4 12 t-12 4q-7 0 -11.5 -4t-4.5 -12v-32h-24q-33 0 -57 -23.5t-24 -56.5q0 -32 24 -56t57 -24h84q20 0 34.5 -14t14.5 -34q0 -19 -14.5 -33.5t-34.5 -14.5h-138q-7 0 -11.5 -4t-4.5 -12q0 -7 4.5 -11.5t11.5 -4.5h77v-32q1 -6 5.5 -11t11.5 -5v0z" />
</svg>