<svg viewBox="0 0 1024 1024" xmlns="http://www.w3.org/2000/svg">
  <path transform="scale(1, -1) translate(0, -960)" fill="currentColor" d="M200 352h-134q-15 0 -24.5 -11.5t-9.5 -26.5v-295q0 -15 9.5 -26.5t24.5 -11.5h134q14 0 24 11.5t10 26.5v295q-2 15 -11.5 26.5t-22.5 11.5zM200 21q0 -3 -1 -5l-1 -2h-132l-1 1.5t-1 5.5v293q0 3 1 4.5l1 1.5h132l1 -2t1 -4v-293zM579 437h-134q-15 0 -24.5 -10.5 t-9.5 -24.5v-383q0 -14 9.5 -24.5t24.5 -10.5h134q15 0 24.5 10.5t9.5 24.5v381q0 16 -10.5 26.5t-23.5 10.5zM581 19q0 -2 -1 -2.5l-1 -0.5h-133l-0.5 1t-0.5 2v381q0 2 0.5 2.5l0.5 0.5h135l0.5 -1t0.5 -2v-381h-1zM958 310h-134q-14 0 -24 -11t-10 -27v-251 q0 -16 10 -27.5t24 -11.5h134q15 0 24.5 11.5t9.5 27.5v251q0 16 -9.5 27t-24.5 11zM960 21q0 -3 -1 -5l-1 -2h-132l-1 1.5t-1 5.5v251q0 2 1 4l1 2h132l1 -2t1 -4v-251v0zM555 754h-85q-20 0 -34 13t-14 31q0 20 14 32.5t34 12.5h127q7 0 11.5 4.5t4.5 11.5t-4.5 11.5 t-11.5 4.5h-56v23q0 7 -4.5 11.5t-11.5 4.5t-11.5 -4.5t-4.5 -11.5v-21h-39q-33 0 -56.5 -23t-23.5 -54t23.5 -54t56.5 -23h85q21 0 34.5 -13.5t13.5 -31.5q0 -19 -13.5 -31.5t-34.5 -12.5h-144q-7 0 -11.5 -4.5t-4.5 -11.5q0 -8 4.5 -12t11.5 -4h96v-21q0 -7 4.5 -11.5 t11.5 -4.5t11.5 4.5t4.5 11.5v21h16q34 0 57 22.5t23 53.5q0 32 -23.5 54t-56.5 22v0z" />
</svg>