<svg viewBox="0 0 256 256" xmlns="http://www.w3.org/2000/svg">
  <path transform="scale(1, -1) translate(0, -256)" fill="currentColor" d="M249 90l-19 20q-3 4 -8 2l-20 -10q-3 -1 -4 -4t0.5 -5.5t4.5 -3.5t5 1l7 3q-11 -29 -34.5 -46t-53 -17t-54 18.5t-33.5 48.5q-1 3 -4 4.5t-5.5 0.5t-3.5 -4t-1 -5q11 -34 39 -55.5t62.5 -21.5t62.5 20.5t39 54.5l10 -10q1 -2 4.5 -2t5.5 2t2 4.5t-2 4.5zM34 134l22 12 q2 2 3 4.5t-0.5 5t-4 3.5t-5.5 0l-11 -7q8 33 33 53.5t57 20.5t57.5 -21t33.5 -53q0 -3 2.5 -4.5t5.5 -1t4.5 3t0.5 5.5q-6 24 -21 43.5t-37 30.5t-46 11q-37 0 -65.5 -23.5t-38.5 -59.5l-7 8q-2 2 -5 2t-5 -2t-2 -5t1 -5l19 -19q2 -2 5 -2q2 -1 4 0zM128 77q3 0 5 2t2 5v5 h4q9 0 16 7t7 16.5t-7 16.5t-16 7h-21q-4 0 -6.5 2.5t-2.5 6.5t2.5 6.5t6.5 2.5h33q3 0 5 2t2 5t-2 5t-5 2h-16v6q0 3 -2 5t-5 2t-5.5 -2t-2.5 -5v-6h-2q-10 0 -17 -6.5t-7 -16t7 -16.5t17 -7h20q4 0 7 -2.5t3 -6.5t-3 -6.5t-7 -2.5h-34q-3 0 -5 -2.5t-2 -5.5t2 -5t5 -2h16 v-5q0 -3 2.5 -5t5.5 -2z" />
</svg>