<svg viewBox="0 0 1024 1024" xmlns="http://www.w3.org/2000/svg">
  <path transform="scale(1, -1) translate(0, -960)" fill="currentColor" d="M685 595q-37 35 -85 52.5t-101 14.5q-48 -3 -91 -23q-42 -20 -73.5 -52.5t-49.5 -75.5q-18 -42 -18 -90q-1 -64 28 -118.5t81 -89.5v-125q0 -36 26 -61t62 -25h99q36 0 62 25t26 61v125q53 33 82.5 87.5t29.5 117.5q-1 50 -21 95.5t-57 81.5v0v0zM562 34h-100 q-22 0 -39 15.5t-17 38.5v118h212v-118q0 -23 -17 -38.5t-39 -15.5zM629 237h-101v2v1v59q0 7 -4.5 11.5t-11.5 4.5t-11.5 -4.5t-4.5 -11.5v-59v-2v-1h-101q-47 30 -73.5 78t-25.5 104q1 42 16 79q16 37 43.5 65t64.5 46q37 17 79 20h6h5q44 0 82.5 -15.5t68.5 -43.5 q32 -32 49.5 -71.5t17.5 -84.5q1 -52 -25.5 -99.5t-73.5 -77.5zM512 771q7 0 11.5 4.5t4.5 11.5v91q0 8 -4.5 12t-11.5 4t-11.5 -4t-4.5 -12v-92q0 -6 4.5 -10.5t11.5 -4.5zM914 734q-5 5 -11.5 5t-11.5 -5l-64 -62q-5 -5 -5 -11.5t5 -10.5q3 -3 6 -4t5 -1q4 0 6.5 1t5.5 4 l64 62q4 5 4 11.5t-4 10.5v0zM133 734q-5 5 -11.5 5t-11.5 -5q-4 -4 -4 -10.5t4 -11.5l63 -62q2 -3 5.5 -4t5.5 -1t5.5 1t5.5 4q5 4 5 10.5t-5 11.5l-62 62v0zM141 365h-93q-7 0 -11.5 -4.5t-4.5 -11.5t4.5 -11.5t11.5 -4.5h93q7 0 11.5 4.5t4.5 11.5t-5 11.5t-11 4.5z M976 365h-93q-7 0 -11.5 -4.5t-4.5 -11.5t4.5 -11.5t11.5 -4.5h93q7 0 11.5 4.5t4.5 11.5t-4.5 11.5t-11.5 4.5z" />
</svg>