<svg viewBox="0 0 1024 1024" xmlns="http://www.w3.org/2000/svg">
  <path transform="scale(1, -1) translate(0, -960)" fill="currentColor" d="M643 502q-15 11 -32 14.5t-33 0.5q-22 -5 -39 -20t-27 -28q-10 13 -27 28t-39 20q-16 3 -33 -0.5t-32 -14.5q-48 -33 -44 -86.5t18 -82.5q1 -4 40 -60.5t114 -80.5h2h3h2h2q75 24 112.5 81t38.5 60q14 29 18.5 82.5t-44.5 86.5v0zM640 346q0 -2 -32 -51.5t-94 -72.5 q-63 23 -96.5 72.5t-33.5 51.5q0 1 -14.5 50t28.5 79q8 5 16 8t15 3h4.5t4.5 -1q26 -6 43 -29.5t17 -25.5q2 -3 5.5 -5.5t8.5 -2.5v0v0q5 0 8.5 2.5t5.5 5.5q5 10 21.5 29.5t38.5 25.5q9 2 19.5 -0.5t20.5 -9.5q43 -30 29 -78t-15 -51v0zM776 800h-26v53q0 18 -7.5 33 t-20.5 26q-15 11 -32 14.5t-34 -1.5l-472 -125q-1 0 -2.5 -1t-2.5 -2q-1 0 -1.5 -1t-1.5 -1v0v0v0v0q-2 -2 -3.5 -4.5t-1.5 -6.5v0v0v0v0v-741q0 -31 22 -53t53 -22h528q32 0 54 22t22 53v682q1 31 -21 53t-53 22zM664 894q10 3 20 0.5t17 -8.5q8 -6 12.5 -15t4.5 -18v-53 h-408zM819 43q0 -18 -12.5 -30.5t-30.5 -12.5h-528q-18 0 -30.5 12.5t-12.5 30.5v725h571q18 0 30.5 -12.5t12.5 -30.5v-682z" />
</svg>