<svg viewBox="0 0 256 256" xmlns="http://www.w3.org/2000/svg">
  <path transform="scale(1, -1) translate(0, -256)" fill="currentColor" d="M163 144q-10 6 -19 4t-16 -10q-7 8 -16 10t-18 -4q-12 -8 -12 -24q-1 -11 5 -22q1 -3 5 -9q6 -8 13 -15q10 -9 22 -13l2 -1q1 0 2 1q23 7 39 35v2q5 11 5 22q-1 16 -12 24zM157 104q0 -1 -3.5 -7t-9.5 -11q-7 -8 -16 -11q-8 3 -16 11q-5 5 -10 12l-3 6l-2 5q-2 7 -1.5 13 t6.5 10q3 2 6 2h2q4 -1 7 -5t5 -7.5t6 -3.5t6 3.5t5.5 7.5t7.5 5t8 -2q11 -7 2 -28v0zM194 219h-4v10q0 11 -8.5 17.5t-18.5 3.5l-118 -32l-3 -2q-2 -1 -2 -4v-185q0 -9 6.5 -15.5t15.5 -6.5h132q9 0 15.5 6.5t6.5 15.5v170q0 9 -6.5 15.5t-15.5 6.5zM167 237q3 1 6.5 -1.5 t3.5 -5.5v-10h-76zM202 27q0 -3 -2.5 -5.5t-5.5 -2.5h-132q-3 0 -5.5 2.5t-2.5 5.5v178h140q3 0 5.5 -2.5t2.5 -5.5v-170z" />
</svg>