<svg viewBox="0 0 1024 1024" xmlns="http://www.w3.org/2000/svg">
  <path transform="scale(1, -1) translate(0, -960)" fill="currentColor" d="M893 834q0 38 -27.5 66t-67.5 28h-574q-38 0 -66 -27.5t-28 -66.5v-832q0 -5 2 -8.5t6 -6.5q3 -2 7.5 -2t8.5 2l89 59q3 2 6 2t5 -2l117 -76q4 -3 9 -3t9 3l115 76q2 2 5.5 2t5.5 -2l117 -76q2 -2 4.5 -3t5.5 -1q2 0 4.5 1t4.5 3l117 78q2 1 5.5 1t5.5 -1l90 -59 q3 -3 7.5 -3t8.5 3q3 2 5.5 5.5t2.5 8.5v831v0zM797 75q-11 7 -24 7t-24 -7l-107 -72l-108 72q-4 4 -11 6t-13 2t-12 -1.5t-12 -4.5l-107 -71l-107 71q-11 7 -24 7t-24 -7l-64 -43v800q2 26 20.5 44t43.5 18h574q26 0 44.5 -18t18.5 -44v-802l-64 43v0zM450 770h-143 q-7 0 -11.5 -4.5t-4.5 -11.5q0 -8 4.5 -12t11.5 -4h143q7 0 11.5 4t4.5 12q0 7 -5 11.5t-11 4.5zM709 770h-39q-7 0 -11.5 -4.5t-4.5 -11.5q0 -8 4.5 -12t11.5 -4h39q7 0 11.5 4t4.5 12q0 7 -4.5 11.5t-11.5 4.5zM306 555h91q7 0 11.5 4.5t4.5 11.5t-4.5 11.5t-11.5 4.5h-91 q-8 0 -12 -4.5t-4 -11.5t5 -11.5t11 -4.5zM709 587h-39q-7 0 -11.5 -4.5t-4.5 -11.5t4.5 -11.5t11.5 -4.5h39q7 0 11.5 4.5t4.5 11.5t-4.5 11.5t-11.5 4.5zM450 405h-143q-7 0 -11.5 -4.5t-4.5 -11.5t4.5 -11.5t11.5 -4.5h143q7 0 11.5 4.5t4.5 11.5t-5 11.5t-11 4.5z M709 405h-39q-7 0 -11.5 -4.5t-4.5 -11.5t4.5 -11.5t11.5 -4.5h39q7 0 11.5 4.5t4.5 11.5t-4.5 11.5t-11.5 4.5zM397 224h-91q-8 0 -12 -4.5t-4 -11.5t4 -11.5t12 -4.5h91q7 0 11.5 4.5t4.5 11.5t-4.5 11.5t-11.5 4.5zM709 224h-39q-7 0 -11.5 -4.5t-4.5 -11.5t4.5 -11.5 t11.5 -4.5h39q7 0 11.5 4.5t4.5 11.5t-4.5 11.5t-11.5 4.5z" />
</svg>