<svg viewBox="0 0 256 256" xmlns="http://www.w3.org/2000/svg">
  <path transform="scale(1, -1) translate(0, -256)" fill="currentColor" d="M226 224q0 11 -7.5 19t-18.5 8h-144q-11 0 -18.5 -8t-7.5 -19v-208q0 -3 3 -6q2 -1 4 -0.5t3 1.5l22 15l29 -20q2 -1 4 -1t4 1l29 20l28 -20q2 -1 4.5 -1t3.5 1l29 20l22 -15q3 -3 7 -1t4 6v208zM201 37q-3 3 -7.5 3t-7.5 -3l-26 -17l-25 17q-3 3 -7 3t-8 -3l-25 -17 l-25 17q-8 5 -16 0l-11 -7v194q0 5 4 9t9 4h143q5 0 9 -4t4 -9v-194zM112 211h-35q-3 0 -5 -2t-2 -5t2 -5t5 -2h35q3 0 5.5 2t2.5 5t-2.5 5t-5.5 2zM177 211h-9q-3 0 -5.5 -2t-2.5 -5t2.5 -5t5.5 -2h9q3 0 5 2t2 5t-2 5t-5 2zM76 152h23q3 0 5 2t2 5t-2 5t-5 2h-23 q-3 0 -5 -2t-2 -5t2 -5t5 -2zM177 166h-9q-3 0 -5.5 -2t-2.5 -5t2.5 -5t5.5 -2h9q3 0 5 2t2 5t-2 5t-5 2zM112 120h-35q-3 0 -5 -2t-2 -5t2 -5t5 -2h35q3 0 5.5 2t2.5 5t-2.5 5t-5.5 2zM177 120h-9q-3 0 -5.5 -2t-2.5 -5t2.5 -5t5.5 -2h9q3 0 5 2t2 5t-2 5t-5 2zM99 75h-23 q-3 0 -5 -2t-2 -5t2 -5.5t5 -2.5h23q3 0 5 2.5t2 5.5t-2 5t-5 2zM177 75h-9q-3 0 -5.5 -2t-2.5 -5t2.5 -5.5t5.5 -2.5h9q3 0 5 2.5t2 5.5t-2 5t-5 2z" />
</svg>