<svg viewBox="0 0 1024 1024" xmlns="http://www.w3.org/2000/svg">
  <path transform="scale(1, -1) translate(0, -960)" fill="currentColor" d="M976 579q-7 0 -11.5 -4.5t-4.5 -11.5v-96q0 -9 -6.5 -15.5t-15.5 -6.5h-180v102h64q8 0 12 4.5t4 11.5t-4 11.5t-12 4.5h-64v16q0 34 -23 57t-57 23h-16v80q0 7 -4 11.5t-12 4.5q-7 0 -11.5 -4.5t-4.5 -11.5v-80h-102v195q0 23 -16 39t-38 16h-96q-8 0 -12 -4.5t-4 -11.5 t4 -11.5t12 -4.5h96q9 0 15.5 -6.5t6.5 -16.5v-195h-102v80q0 7 -4.5 11.5t-11.5 4.5q-8 0 -12 -4.5t-4 -11.5v-80h-16q-34 0 -57 -23t-23 -57v-16h-64q-8 0 -12 -4.5t-4 -11.5t4 -11.5t12 -4.5h64v-102h-180q-22 0 -38 -16t-16 -39v-96q0 -7 4.5 -11.5t11.5 -4.5t11.5 4.5 t4.5 11.5v96q0 10 6.5 16.5t15.5 6.5h180v-103h-64q-8 0 -12 -4t-4 -12q0 -7 4 -11.5t12 -4.5h64v-16q0 -33 23 -56.5t57 -23.5h16v-60q0 -8 4 -12t12 -4q7 0 11.5 4t4.5 12v60h102v-156q0 -23 16 -39t38 -16h96q8 0 12 4.5t4 11.5t-4 11.5t-12 4.5h-96q-9 0 -15.5 6.5 t-6.5 16.5v156h102v-60q0 -8 4.5 -12t11.5 -4q8 0 12 4t4 12v60h16q34 0 57 23.5t23 56.5v16h64q8 0 12 4.5t4 11.5q0 8 -4 12t-12 4h-64v103h180q22 0 38 15.5t16 38.5v96q0 7 -4.5 11.5t-11.5 4.5v0zM726 262q0 -20 -13.5 -34t-34.5 -14h-332q-21 0 -34.5 14t-13.5 34v333 q0 21 13.5 34.5t34.5 13.5h332q21 0 34.5 -13.5t13.5 -34.5v-333zM557 522h-90q-20 0 -34 -14t-14 -34v-90q0 -20 14 -34t34 -14h90q20 0 34 14t14 34v90q0 20 -14 34t-34 14zM573 384q0 -7 -4.5 -11.5t-11.5 -4.5h-90q-7 0 -11.5 4.5t-4.5 11.5v90q0 7 4.5 11.5t11.5 4.5 h90q7 0 11.5 -4.5t4.5 -11.5v-90z" />
</svg>