<svg viewBox="0 0 256 256" xmlns="http://www.w3.org/2000/svg">
  <path transform="scale(1, -1) translate(0, -256)" fill="currentColor" d="M244 164q-3 0 -5 -2t-2 -5v-24q0 -3 -3 -3h-41v20h13q3 0 5 2t2 5t-2 5t-5 2h-13v1q0 10 -7 16.5t-16 6.5h-2v18q0 3 -2 5t-5 2t-5 -2t-2 -5v-18h-20v46q0 6 -4.5 11t-11.5 5h-24q-3 0 -5.5 -2t-2.5 -5t2.5 -5t5.5 -2h24q2 0 2 -3v-45h-19v17q0 3 -2 5t-5 2t-5.5 -2 t-2.5 -5v-17h-1q-9 0 -16 -7t-7 -16v-1h-13q-3 0 -5 -2t-2 -5t2 -5t5 -2h13v-20h-40q-7 0 -12 -5t-5 -12v-24q0 -3 2 -5t5 -2t5 2t2 5v24q0 3 3 3h41v-20h-13q-3 0 -5 -2t-2 -5t2 -5t5 -2h13v-1q0 -10 7 -16.5t16 -6.5h2v-13q0 -3 2 -5t5 -2t5 2t2 5v13h20v-37q0 -7 5 -12 t11 -5h24q3 0 5.5 2.5t2.5 5.5t-2.5 5t-5.5 2h-24q-2 0 -2 3v36h19v-12q0 -3 2 -5.5t5 -2.5t5.5 2.5t2.5 5.5v12h1q9 0 16 7t7 16v1h13q3 0 5 2.5t2 5.5t-2 5t-5 2h-13v19h42q7 0 11.5 5t4.5 12v24q-1 3 -3 5t-5 2zM179 82q0 -4 -3 -7t-6 -3h-84q-3 0 -6 3t-3 7v83q0 3 3 6 t6 3h84q3 0 6 -2.5t3 -6.5v-83zM139 150h-22q-7 0 -11 -4.5t-4 -11.5v-22q0 -6 4.5 -10.5t10.5 -4.5h22q7 0 11 4.5t4 10.5v22q0 7 -4.5 11.5t-10.5 4.5zM140 112q0 -1 -1 -1h-22q-1 0 -1 1v22q0 2 1 2h22q1 0 1 -2v-22z" />
</svg>