<svg viewBox="0 0 256 256" xmlns="http://www.w3.org/2000/svg">
  <path transform="scale(1, -1) translate(0, -256)" fill="currentColor" d="M210 223h-168v21q0 3 -2.5 5t-5.5 2t-4.5 -2t-1.5 -5v-232q0 -3 2 -5t5 -2t5 2t2 5v78h168q8 0 13.5 6t5.5 14v94q0 8 -6 13.5t-13 5.5zM214 110q0 -2 -1.5 -4t-3.5 -2h-168v105h168q2 0 3.5 -1.5t1.5 -3.5v-94zM116 196h-23q-3 0 -5 -2.5t-2 -5.5v-62q0 -3 2 -5t5 -2 t5 2t2 5v24h16q9 0 16 6.5t7 16t-7 16.5t-16 7zM116 164h-16v18h16q3 0 5.5 -3t2.5 -6.5t-2.5 -6t-5.5 -2.5zM176 196h-2q-10 0 -16.5 -7t-6.5 -16v-31q0 -9 7 -15.5t16 -6.5h2q9 0 15.5 6.5t6.5 15.5v31q0 9 -6.5 16t-15.5 7zM184 142q0 -3 -2.5 -5.5t-5.5 -2.5h-2 q-4 0 -6.5 2.5t-2.5 5.5v31q0 3 2.5 6t6.5 3h2q3 0 5.5 -3t2.5 -6v-31zM64 196q-3 0 -5 -2.5t-2 -5.5v-62q0 -3 2 -5t5 -2t5.5 2t2.5 5v63q0 3 -2.5 5t-5.5 2z" />
</svg>