<svg viewBox="0 0 1024 1024" xmlns="http://www.w3.org/2000/svg">
  <path transform="scale(1, -1) translate(0, -960)" fill="currentColor" d="M838 814h-684v98q0 7 -4.5 11.5t-11.5 4.5q-8 0 -12 -4.5t-4 -11.5v-928q0 -7 4 -11.5t12 -4.5q7 0 11.5 4.5t4.5 11.5v326h684q27 0 45.5 19t18.5 45v376q0 27 -18.5 45.5t-45.5 18.5zM870 374q0 -13 -9 -22.5t-23 -9.5h-684v440h684q14 0 23 -9t9 -23v-376zM462 707 h-91q-7 0 -11.5 -4.5t-4.5 -11.5v-248q0 -7 4.5 -11.5t11.5 -4.5t11.5 4.5t4.5 11.5v109q3 -1 4.5 -2t3.5 -1h67q33 0 56 23t23 57q0 31 -23 54.5t-56 23.5zM462 581h-67q-2 0 -4.5 -1t-3.5 -2v96h75q20 0 33.5 -14t13.5 -34q0 -18 -13.5 -31.5t-33.5 -13.5zM702 707h-6 q-32 0 -56 -23t-24 -57v-121q0 -33 23 -56.5t57 -23.5h6q33 0 56.5 23t23.5 57v121q0 33 -23 56.5t-57 23.5zM750 506q0 -20 -13.5 -34t-34.5 -14h-6q-19 0 -33.5 13.5t-14.5 34.5v121q0 19 14 33.5t34 14.5h6q20 0 34 -13.5t14 -34.5v-121zM258 707q-8 0 -12 -4.5t-4 -11.5 v-248q0 -7 4 -11.5t12 -4.5q7 0 11.5 4.5t4.5 11.5v248q0 6 -4.5 11t-11.5 5z" />
</svg>