<svg viewBox="0 0 256 256" xmlns="http://www.w3.org/2000/svg">
  <path transform="scale(1, -1) translate(0, -256)" fill="currentColor" d="M191 251h-126q-10 0 -17.5 -7.5t-7.5 -17.5v-197q0 -10 7.5 -17.5t17.5 -7.5h125q11 0 18 7.5t7 17.5v197q0 11 -7 18t-17 7zM201 30q0 -5 -3 -8t-8 -3h-125q-4 0 -7.5 3t-3.5 8v196q0 5 3.5 8t7.5 3h125q5 0 8 -3t3 -8v-196zM131 107q-17 0 -28.5 12t-11.5 28.5 t11.5 28.5t28.5 12q3 0 5 2t2 5t-2 5t-5 2q-15 0 -27.5 -7t-19.5 -19.5t-7 -27.5t7 -27.5t19.5 -19.5t27.5 -7q3 0 5 2t2 5t-2 4.5t-5 1.5zM168 160l-5 1q-3 1 -5 3l-2 5q-2 4 -5.5 4t-4.5 -4l-3 -5q-1 -2 -4 -3l-5 -1q-4 0 -5 -3.5t1 -6.5l4 -3q2 -2 2 -5l-1 -6q-1 -3 2 -5 t6 -1l5 3q2 1 5 0l5 -3q3 -1 6 1t2 6v5q-1 3 1 5l4 4q3 2 2 5.5t-5 3.5z" />
</svg>