<svg viewBox="0 0 256 256" xmlns="http://www.w3.org/2000/svg">
  <path transform="scale(1, -1) translate(0, -256)" fill="currentColor" d="M181 168v9q0 3 -2 5t-5 2h-9l-9 9q-2 2 -5 2t-5 -2l-10 -9h-9q-3 0 -5 -2t-2 -5v-9l-8 -10q-2 -2 -2 -4.5t2 -5.5l9 -9v-9q0 -3 2 -4.5t5 -1.5h10l9 -10q2 -2 4.5 -2t4.5 2l10 10h9q3 0 5 2t2 4v9l9 9q2 3 2 5.5t-2 4.5zM169 147q-2 -2 -2 -5v-4h-5q-2 0 -4 -2l-6 -6 l-6 6q-2 2 -5 2h-5v4q0 3 -2 5l-6 6l6 6q2 2 2 5v5h4q3 0 5 2l6 6l6 -6q2 -2 5 -2h4v-5q0 -3 2 -5l6 -6zM201 251h-146q-8 0 -13.5 -5.5t-5.5 -13.5v-208q0 -8 5.5 -14t13.5 -6h145q8 0 14 6t6 14v208q0 8 -5.5 13.5t-13.5 5.5zM50 24v208q0 2 2 3.5t4 1.5h28v-218h-28 q-3 0 -4.5 1.5t-1.5 3.5zM206 24q0 -2 -1.5 -3.5t-4.5 -1.5h-103v218h104q2 0 3.5 -1.5t1.5 -3.5v-208zM174 89h-45q-3 0 -5 -2t-2 -5t2 -5t5 -2h45q3 0 5 2t2 5t-2 5t-5 2zM163 56h-35q-3 0 -5 -2t-2 -5t2 -5t5 -2h35q3 0 5 2t2 5t-2 5t-5 2z" />
</svg>