<svg viewBox="0 0 1024 1024" xmlns="http://www.w3.org/2000/svg">
  <path transform="scale(1, -1) translate(0, -960)" fill="currentColor" d="M960 35q-16 0 -25.5 7.5t-19.5 18.5q-11 12 -26.5 24.5t-42.5 12.5q-26 0 -42 -12.5t-26 -24.5q-10 -11 -20 -18.5t-25 -7.5q-16 0 -25.5 7.5t-19.5 18.5q-11 12 -26.5 24.5t-42.5 12.5q-26 0 -42 -12.5t-27 -24.5q-9 -11 -19 -18.5t-25 -7.5q-16 0 -26 7.5t-19 18.5 q-11 12 -27 24.5t-42 12.5t-42 -12.5t-27 -24.5q-9 -11 -18 -18.5t-25 -7.5l-3 5q0 1 -11 26q-10 25 -21 63.5t-17 84.5t2 88q4 18 10.5 36.5t13.5 39.5q8 20 14.5 40.5t11.5 42.5q1 1 2.5 3t2.5 5q1 6 2.5 11t3.5 11q29 -9 65 -43.5t47 -76.5q1 -5 5.5 -8t10.5 -3h2.5h2.5 q6 1 9 7t2 12q-12 45 -50.5 85t-77.5 54q33 50 97.5 73.5t137.5 10.5q6 -2 12 2t8 10q1 6 -3 12t-10 8q-84 16 -157.5 -10t-111.5 -80q-5 38 -19 74t-32 62q-17 25 -36.5 41t-38.5 18q-6 1 -12 -3t-8 -10q-1 -6 3 -12t10 -7q12 -2 26.5 -14t28.5 -32q15 -23 28 -56t18 -69 q-43 34 -101 37.5t-107 -27.5q-6 -4 -7 -10.5t2 -12.5q4 -6 10.5 -7t12.5 2q46 30 102 22t90 -49q0 -5 -1 -9.5t-3 -9.5v-1.5v-1.5q-4 -21 -11 -41t-14 -39q-9 -22 -15.5 -41.5t-10.5 -40.5q-13 -68 5 -139.5t32 -111.5l-1.5 1.5l-1.5 1.5q-11 12 -27 24.5t-42 12.5 t-42 -12.5t-27 -24.5q-8 -8 -17.5 -16t-25.5 -8q-7 0 -11.5 -4.5t-4.5 -11.5t4.5 -11.5t11.5 -4.5q26 0 42 12.5t27 24.5q9 11 19 18.5t26 7.5q15 0 25 -7.5t19 -18.5q10 -11 23 -21.5t33 -13.5q2 0 3 -1t2 -1h1.5h1.5h3h2q27 0 42.5 12.5t26.5 24.5q10 11 19.5 18.5 t25.5 7.5q15 0 25 -7.5t20 -18.5q10 -12 26 -24.5t42 -12.5q27 0 42.5 12.5t26.5 24.5q10 11 19.5 18.5t25.5 7.5t25.5 -7.5t19.5 -18.5q11 -12 26.5 -24.5t42.5 -12.5q26 0 42 12.5t26 24.5q10 11 20 18.5t25 7.5q16 0 25.5 -7.5t19.5 -18.5q11 -12 26.5 -24.5t42.5 -12.5 q7 0 11.5 4.5t4.5 11.5t-3.5 11.5t-9.5 4.5v0zM992 672q-2 6 -8 9t-13 1q-2 -2 -43.5 -20t-66.5 -56q-25 38 -66.5 56t-44.5 20q-6 2 -12 -1t-8 -9q-3 -6 0 -12t9 -9q19 -6 59 -29t47 -59q1 -6 5.5 -9.5t10.5 -3.5t10.5 3.5t5.5 9.5q8 42 56 64.5t49 23.5q5 3 8 9t2 12v0z M694 861q14 -5 40 -20t31 -38q1 -6 5.5 -9.5t10.5 -3.5t10.5 3.5t5.5 9.5q5 23 31 38t39 20q6 2 9 7.5t1 13.5q-3 6 -8.5 9t-12.5 0q-2 -1 -29 -12.5t-46 -36.5q-19 24 -46.5 36t-28.5 13q-6 3 -12.5 0t-8.5 -9q-4 -8 -1 -13.5t10 -7.5z" />
</svg>