<svg viewBox="0 0 1024 1024" xmlns="http://www.w3.org/2000/svg">
  <path transform="scale(1, -1) translate(0, -960)" fill="currentColor" d="M512 928q-99 0 -186 -38q-88 -38 -153 -103t-103 -153q-38 -87 -38 -186t38 -186q38 -88 103 -153t153 -103q87 -38 186 -38t186 38q88 38 153 103t103 153q38 87 38 186t-38 186q-38 88 -103 153t-153 103q-87 38 -186 38zM512 896q92 0 174 -35q81 -36 142 -96.5 t97 -142.5q35 -82 35 -174q0 -47 -9 -91t-26 -83h-2h-1h-234v1.5v1.5q0 44 -46 76t-114 36v3t-2 3l-3 8l-15.5 45t-8.5 88q1 8 4.5 18t6.5 20q4 10 7.5 20.5t5.5 21.5q1 1 1.5 2.5t1.5 3.5v2v2q12 -6 27 -21.5t20 -33.5q1 -5 5.5 -8t10.5 -3h2h3q6 1 9.5 7t1.5 12 q-6 23 -24 43.5t-39 30.5q17 20 47 29t62 3q6 -1 12 3t7 10q2 6 -2 12t-10 7q-40 7 -76 -4t-59 -35q-3 17 -10 32t-14 26t-18 21.5t-27 13.5q-6 1 -12 -3t-7 -10t3 -12t10 -7q4 -1 10.5 -5.5t13.5 -15.5q6 -8 11 -19.5t8 -24.5q-23 12 -50.5 11.5t-51.5 -15.5 q-6 -3 -7.5 -9.5t2.5 -12.5t10 -7t12 2q22 13 47 10t41 -21v-2.5v-2.5v-0.5v-0.5q-2 -10 -5.5 -20.5l-6.5 -19.5l-8 -22t-5 -22q-10 -50 7.5 -99.5t19.5 -52.5v0q-66 -4 -111 -36t-47 -77h-236h-1.5h-1.5q-17 37 -26 80.5t-9 90.5q0 92 35 174q36 81 96.5 142t142.5 97 q82 35 174 35v0zM512 357q59 0 101.5 -24t42.5 -56v-1.5v-1.5h-288q4 33 46 58t98 25zM512 0q-65 0 -125 18q-59 17 -110.5 49t-92.5 76q-41 45 -69 99h795q-28 -54 -69 -99q-42 -44 -93.5 -76t-110.5 -49q-60 -18 -125 -18v0z" />
</svg>