<svg viewBox="0 0 1024 1024" xmlns="http://www.w3.org/2000/svg">
  <path transform="scale(1, -1) translate(0, -960)" fill="currentColor" d="M629 544l-18 -2t-19 -1q-43 0 -80 16t-65 43.5t-44 65.5q-16 37 -16 80q0 9 1 18l2 18q2 5 0 9.5t-6 6.5q-4 3 -9 3t-9 -3q-37 -26 -68.5 -77t-31.5 -102q0 -41 15 -78q16 -36 43 -63t64 -43q36 -16 78 -16q50 0 101 32t78 69q2 4 2 9t-2 9q-3 3 -7 5t-9 1zM466 451 q-70 0 -119 49.5t-49 118.5q0 33 17.5 67.5t41.5 60.5v0v0q0 -49 18 -92q19 -43 51 -75t75 -51t93 -19v0v0q-27 -24 -61.5 -41.5t-66.5 -17.5zM803 570q-7 14 -7.5 29t7.5 30l88 160q12 21 12 46t-13 47q-14 21 -34.5 33.5t-45.5 12.5h-596q-38 0 -65 -27t-27 -66v-851 q0 -7 4 -11.5t12 -4.5q7 0 11.5 4.5t4.5 11.5v317q12 -11 28 -17t32 -6h592q26 0 47 12.5t33 34.5q12 21 13 46t-11 47l-85 152v0zM861 339q-9 -14 -22.5 -22t-30.5 -8h-592q-25 0 -43 17.5t-18 43.5v464q0 25 18 42.5t43 17.5h594q16 0 30 -8t22 -22q9 -14 9 -30t-7 -31 l-88 -160q-12 -21 -12 -45t12 -44l86 -154q8 -14 7.5 -30t-8.5 -31zM632 731h-43v43q0 8 -4.5 12t-11.5 4t-11.5 -4t-4.5 -12v-43h-43q-8 0 -12 -4.5t-4 -11.5t4 -11.5t12 -4.5h43v-43q0 -7 4.5 -11.5t11.5 -4.5t11.5 4.5t4.5 11.5v43h43q7 0 11.5 4.5t4.5 11.5t-4.5 11.5 t-11.5 4.5z" />
</svg>