<svg viewBox="0 0 1024 1024" xmlns="http://www.w3.org/2000/svg">
  <path transform="scale(1, -1) translate(0, -960)" fill="currentColor" d="M734 99q-24 -6 -48.5 -9.5t-48.5 -3.5q-75 0 -141 29t-115 78t-77 115q-29 66 -29 140t28 140t77 115t115 78q65 29 140 29q24 0 49 -3.5t49 -9.5q6 -1 11.5 1t7.5 7t1 11t-6 8q-56 40 -121.5 60t-135.5 20q-95 1 -179 -35q-83 -36 -145 -98t-98 -145t-36 -178t36 -178 t98 -145.5t145 -98.5q84 -36 179 -36q70 0 136 20.5t121 59.5q5 4 6 9.5t-1 10.5q-2 6 -7.5 8t-10.5 1v0zM490 22q-89 0 -166 34q-78 33 -135.5 91t-91.5 135q-33 78 -33 166t33 166q34 77 91.5 135t135.5 91q77 34 166 34q42 0 82.5 -8.5t78.5 -23.5q-84 3 -158 -27 q-75 -29 -130.5 -83t-88.5 -127q-32 -74 -32 -157q0 -82 31 -153q31 -72 84.5 -125.5t125.5 -84.5q71 -31 152 -31h7.5h7.5q-38 -15 -78 -23.5t-82 -8.5zM992 526q-1 5 -4.5 7.5t-8.5 4.5l-118 17l-53 107q-2 4 -6 7t-8 3v0v0q-5 0 -8.5 -2.5t-6.5 -7.5l-53 -107l-118 -17 q-5 -2 -8.5 -4.5t-4.5 -7.5q-1 -4 0 -8.5t5 -7.5l86 -83l-20 -118q-2 -5 0 -9.5t6 -6.5q2 -1 4.5 -2t5.5 -1h3.5t4.5 1l105 56l106 -56q3 -2 8 -1.5t9 3.5q4 2 6 6.5t1 9.5l-21 118l85 83q2 4 3 8.5t0 7.5v0zM874 443q-3 -2 -4 -6.5t-1 -7.5l16 -95l-85 45q-4 3 -7.5 3 t-6.5 -3l-85 -45l16 95q1 3 -1 7.5t-4 6.5l-69 67l95 15q3 0 6.5 2.5t5.5 5.5l42 86l43 -86q1 -4 4.5 -6t8.5 -2l94 -15l-68 -67v0z" />
</svg>