<svg viewBox="0 0 256 256" xmlns="http://www.w3.org/2000/svg">
  <path transform="scale(1, -1) translate(0, -256)" fill="currentColor" d="M240 28q-3 0 -4.5 1t-5 5t-7.5 6q-5 4 -11.5 4t-11.5 -4q-3 -1 -8 -6v0q-3 -4 -5 -5t-4.5 -1t-4.5 1t-5.5 5t-6.5 6q-6 4 -12.5 4t-11.5 -4q-3 -1 -7 -6h-1q-3 -4 -4.5 -5t-4.5 -1t-4.5 1t-5.5 5t-7 6q-5 4 -11.5 4t-12.5 -4q-3 -1 -7 -6h-1q-4 -5 -6 -6l-1 1 q-5 12 -8 24q-6 23 -3 39q2 8 6.5 19t5.5 19q2 2 2 3v3q7 -4 14 -11.5t10 -15.5q0 -3 2 -4t4 -1h2q3 1 4.5 3.5t0.5 4.5q-3 11 -11.5 21t-18.5 15q8 10 22.5 14.5t31.5 1.5q3 0 5 1.5t2.5 4.5t-1 5.5t-4.5 2.5q-19 4 -36.5 -1.5t-28.5 -17.5q-3 17 -12 29q-10 15 -20 16 q-3 1 -5.5 -0.5t-3 -4.5t1 -5.5t4 -3t6 -3t6.5 -7.5q6 -9 9 -23q-11 7 -24.5 6.5t-24.5 -7.5q-3 -2 -3.5 -4.5t1 -5t4.5 -3t5 0.5q11 7 23.5 5.5t20.5 -10.5l-1 -4q-1 -7 -6 -19l-1 -3q-4 -12 -5 -18q-4 -22 5 -54q-5 3 -11 3t-11 -3q-3 -2 -8 -6v-1q-2 -3 -3.5 -4.5 t-4.5 -1.5t-5 -2t-2 -5t2 -5t5 -2q6 0 12 3q3 2 7 6l1 1l4.5 4.5t4.5 1.5t4.5 -1.5l4.5 -4.5q7 -8 15 -10h4q7 0 12 3q3 2 7 6l1 1l4.5 4.5t4.5 1.5t4.5 -1.5t5 -5.5t7.5 -6q5 -3 11.5 -3t11.5 3q3 2 8 6v1q3 3 5 4.5t4.5 1.5t4.5 -1.5t5.5 -5.5t6.5 -6q6 -3 12.5 -3t11.5 3 q3 2 7 6l1 1l4.5 4.5t4.5 1.5t4.5 -1.5l5.5 -5.5t7 -6q5 -3 12 -3q3 0 5 2t2 5t-3 5t-6 2zM251 185q-1 3 -3.5 4t-5.5 0q-17 -6 -27 -17q-9 11 -27 17q-2 1 -4.5 0t-4 -4t0 -5.5t4.5 -3.5q7 -3 13 -7q10 -6 11 -13q1 -2 3 -3.5t4.5 -1.5t4 1.5t2.5 3.5q1 7 11 13q6 5 13 7 q3 1 4.5 3.5t0.5 5.5zM172 228q5 -1 10 -4.5t6 -6.5t2.5 -4.5t4 -1.5t4.5 1.5t2.5 4.5t5.5 6.5t10 4.5q3 1 4 4t0.5 5.5t-3 3.5t-5.5 0.5t-7 -2.5q-7 -4 -11 -8q-6 6 -17 10l-1 1q-3 1 -5.5 -0.5t-3.5 -4.5t0.5 -5.5t3.5 -3.5z" />
</svg>