<svg viewBox="0 0 1024 1024" xmlns="http://www.w3.org/2000/svg">
  <path transform="scale(1, -1) translate(0, -960)" fill="currentColor" d="M864 838q-53 0 -90.5 -37.5t-37.5 -90.5q0 -52 37.5 -90t90.5 -38t90.5 38t37.5 90q0 53 -37.5 90.5t-90.5 37.5zM864 614q-40 0 -68 28.5t-28 67.5q0 40 28 68t68 28t68 -28t28 -68q0 -39 -28 -67.5t-68 -28.5zM869 75q-13 0 -21 6t-19 17q-10 10 -24.5 21.5t-38.5 11.5 t-38 -11.5t-24 -21.5q-10 -11 -18.5 -17t-21.5 -6t-21 6t-19 17q-5 4 -10 9t-11 10q-6 33 -28 61t-56.5 48.5t-79.5 32.5q-45 11 -95 11v0v0l-13 26q0 1 -25 71t-12 137q3 14 8.5 29t11.5 30q6 17 11.5 34t8.5 35v0v0v0v2v0.5v0.5v0v0q2 4 3 7.5t2 7.5q22 -8 49.5 -34 t37.5 -59q1 -5 5.5 -8t10.5 -3h2h2q6 1 9.5 7t2.5 12q-10 36 -40 68t-61 44q26 36 76 53t108 8q6 -2 12 2t7 10t-3 12t-10 8q-63 12 -120 -7t-89 -59q-5 29 -16 54.5t-24 44.5q-10 15 -26 30.5t-37 19.5q-6 1 -12 -3t-7 -10t3 -12t10 -7q9 -1 20 -11t21 -24q12 -17 21.5 -41 t14.5 -49q-35 24 -80 25.5t-84 -22.5q-6 -3 -7 -9.5t3 -12.5q3 -6 9.5 -7.5t12.5 2.5q36 23 79 16.5t70 -37.5q0 -3 -0.5 -6t-1.5 -7q-3 -16 -9 -33t-12 -32q-6 -17 -11.5 -33t-8.5 -33q-14 -74 11.5 -148t28.5 -79l6 -14q-48 -5 -89 -20t-71.5 -38t-47.5 -53 q-18 -29 -18 -62v-1v-1q-9 -6 -17.5 -11t-20.5 -5q-7 0 -11.5 -4.5t-4.5 -11.5t4.5 -11.5t11.5 -4.5q24 0 38.5 11.5t25.5 22.5q10 9 18 15.5t22 6.5t22 -6.5t18 -15.5q10 -11 24.5 -22.5t39.5 -11.5q24 0 38.5 11.5t23.5 22.5q10 11 18.5 16.5t21.5 5.5q14 0 22 -5.5 t18 -16.5t24.5 -22.5t38.5 -11.5t38.5 11.5t23.5 22.5q10 11 18.5 16.5t21.5 5.5t21 -5.5t19 -16.5q10 -11 24.5 -22.5t38.5 -11.5t38 11.5t24 22.5t18.5 16.5t21.5 5.5t21 -5.5t19 -16.5q10 -11 24 -22.5t38 -11.5q8 0 12 4.5t4 11.5t-5.5 11.5t-11.5 4.5v0zM498 98 q-10 -11 -18.5 -17t-21.5 -6q-14 0 -22 6t-18 17q-10 10 -24.5 21.5t-38.5 11.5t-38.5 -11.5t-23.5 -21.5q-10 -11 -18.5 -17t-21.5 -6q-15 0 -23 6.5t-17 16.5q-10 10 -24.5 21.5t-39.5 11.5q-9 0 -17 -2t-14 -4q17 48 79.5 80.5t144.5 32.5q80 0 142 -30t81 -77h-2.5h-2.5 q-24 0 -38 -11.5t-24 -21.5v0z" />
</svg>