<svg viewBox="0 0 1024 1024" xmlns="http://www.w3.org/2000/svg">
  <path transform="scale(1, -1) translate(0, -960)" fill="currentColor" d="M714 600v42q0 7 -4.5 11.5t-11.5 4.5h-42l-40 40q-5 4 -11.5 4t-10.5 -4l-40 -40h-42q-7 0 -11.5 -4.5t-4.5 -11.5v-42l-40 -40q-5 -5 -5 -11.5t5 -10.5l40 -40v-42q0 -7 4.5 -11.5t11.5 -4.5h42l40 -40q2 -2 5 -3.5t6 -1.5q2 0 5.5 1.5t5.5 3.5l40 40h42q7 0 11.5 4.5 t4.5 11.5v42l40 40q4 4 4 10.5t-4 11.5l-40 40v0zM686 517q-2 -3 -3 -5.5t-1 -5.5v-32h-32q-4 0 -6.5 -1.5t-5.5 -3.5l-33 -34l-34 34q-2 2 -4.5 3.5t-6.5 1.5h-32v32q0 3 -1 5.5t-4 5.5l-33 33l33 34q3 2 4 5t1 6v32h32q4 0 6.5 1.5t4.5 3.5l34 34l33 -34q3 -2 5.5 -3.5 t6.5 -1.5h32v-32q0 -3 1 -6t3 -5l34 -34l-34 -33v0zM803 928h-582q-27 0 -45.5 -19t-18.5 -45v-832q0 -26 18.5 -45t45.5 -19h581q26 0 45 19t19 45v832q1 26 -17.5 45t-45.5 19zM189 32v832q0 13 9.5 22.5t22.5 9.5h123v-896h-123q-13 0 -22.5 9.5t-9.5 22.5zM835 32 q0 -13 -9.5 -22.5t-22.5 -9.5h-425v896h425q13 0 22.5 -9.5t9.5 -22.5v-832zM696 280h-181q-7 0 -11.5 -4.5t-4.5 -11.5t4.5 -11.5t11.5 -4.5h181q7 0 11.5 4.5t4.5 11.5t-5 11.5t-11 4.5zM651 149h-137q-8 0 -12 -4.5t-4 -11.5t4 -11.5t12 -4.5h137q7 0 11.5 4.5t4.5 11.5 t-4.5 11.5t-11.5 4.5z" />
</svg>