<svg viewBox="0 0 1024 1024" xmlns="http://www.w3.org/2000/svg">
  <path transform="scale(1, -1) translate(0, -960)" fill="currentColor" d="M893 242h-147q1 2 2 4.5t1 4.5q0 60 -64 102.5t-159 46.5q2 2 2 5.5t-2 7.5l-4 9q0 2 -22.5 64t-11.5 124q2 12 7 25.5t11 26.5q4 15 9.5 29.5t9.5 30.5q1 1 2 3t1 3q0 2 1 5.5t2 5.5q19 -7 43 -30t31 -51q1 -5 5.5 -8.5t10.5 -3.5h2h3q6 2 9.5 8t1.5 12 q-11 33 -37.5 61.5t-55.5 40.5q24 32 68.5 47.5t94.5 6.5q6 -1 12 3t7 10q2 6 -2 12t-10 7q-57 11 -108 -6t-81 -53q-5 25 -14 48.5t-21 41.5q-10 13 -24.5 27t-33.5 18q-6 1 -12 -3t-7 -10t3 -12t10 -7q8 -2 17.5 -10.5t18.5 -21.5q10 -15 18.5 -35.5t12.5 -41.5 q-33 20 -72.5 21.5t-73.5 -20.5q-6 -3 -7 -9.5t2 -12.5q4 -6 10.5 -7t12.5 2q32 21 69.5 15.5t61.5 -32.5v-5.5t-2 -6.5v-0.5v-0.5q-2 -15 -7 -29t-10 -29q-6 -15 -10.5 -30t-7.5 -29q-12 -68 11.5 -135.5t25.5 -70.5l5 -10q-93 -4 -157 -49.5t-66 -108.5h-144 q-7 0 -11.5 -4.5t-4.5 -11.5q0 -8 4.5 -12t11.5 -4h764q7 0 11.5 4t4.5 12q0 7 -7 11.5t-14 4.5v0zM512 368q85 0 145 -34.5t60 -82.5q0 -2 1 -4.5t2 -4.5h-413q0 52 60.5 89t144.5 37zM246 120h-83q-7 0 -11.5 -4.5t-4.5 -11.5t4.5 -11.5t11.5 -4.5h83q8 0 12 4.5t4 11.5 t-5 11.5t-11 4.5v0zM605 120h-123q-8 0 -12 -4.5t-4 -11.5t4 -11.5t12 -4.5h123q7 0 11.5 4.5t4.5 11.5t-4.5 11.5t-11.5 4.5zM765 0h-83q-8 0 -12 -4.5t-4 -11.5t4 -11.5t12 -4.5h83q7 0 11.5 4.5t4.5 11.5t-4.5 11.5t-11.5 4.5zM429 0h-83q-8 0 -12 -4.5t-4 -11.5t4 -11.5 t12 -4.5h83q7 0 11.5 4.5t4.5 11.5t-5 11.5t-11 4.5zM824 120h-40q-7 0 -11.5 -4.5t-4.5 -11.5t4.5 -11.5t11.5 -4.5h40q7 0 11.5 4.5t4.5 11.5t-5 11.5t-11 4.5z" />
</svg>