<svg viewBox="0 0 1024 1024" xmlns="http://www.w3.org/2000/svg">
  <path transform="scale(1, -1) translate(0, -960)" fill="currentColor" d="M763 928h-502q-36 0 -61.5 -25t-25.5 -61v-788q0 -36 25.5 -61t61.5 -25h501q36 0 61 25t25 61v788q1 36 -24 61t-61 25v0zM818 54q0 -22 -16 -38t-39 -16h-502q-23 0 -39 16t-16 38v788q0 22 16 38t39 16h501q22 0 38 -16t16 -38v-788h2zM525 352q-72 0 -123.5 51 t-51.5 123t51.5 123.5t123.5 51.5q7 0 11.5 4.5t4.5 11.5t-4.5 11.5t-11.5 4.5q-43 0 -80 -16q-38 -17 -66 -45t-44 -65q-17 -38 -17 -81q0 -42 17 -80q16 -37 44 -65t66 -45q37 -16 80 -16q7 0 11.5 4.5t4.5 11.5t-5 11.5t-11 4.5zM674 594l-21 3q-3 0 -4 1t-3 4l-9 19 q-5 9 -15 15.5t-20 6.5v0v0q-11 0 -21 -5.5t-15 -16.5l-9 -19q-1 -2 -2.5 -3t-4.5 -2l-20 -3q-11 -2 -20 -9.5t-12 -18.5q-4 -10 -1.5 -21t10.5 -19l15 -14q1 -1 1.5 -3t-0.5 -3l-3 -21q-2 -11 2 -22t14 -17q5 -3 10.5 -5.5t11.5 -2.5q5 0 10 1.5t10 3.5l17 10q1 1 3 1t4 -1 l19 -10q9 -5 20.5 -4.5t20.5 7.5q10 8 14 18t2 21l-3 21q0 2 0.5 3.5t1.5 2.5l14 14q9 9 11 19.5t-1 20.5q0 11 -8.5 18.5t-18.5 9.5zM674 549l-15 -15q-7 -7 -9.5 -16t-1.5 -19l3 -21q0 -3 -1 -4.5t-2 -3.5q-1 -1 -3.5 -1.5t-4.5 1.5l-19 10q-9 5 -19 5t-18 -5l-18 -10 q-2 -1 -4 -0.5t-4 0.5q-1 2 -2 3.5t-1 4.5l3 21q2 10 -1 19t-10 16l-14 15q-3 2 -2.5 4.5t0.5 3.5t1.5 3t5.5 2l20 3q10 1 18 7t13 15l9 19q2 3 4 4t3 1v0q1 0 3 -0.5t3 -4.5l10 -19q5 -8 13 -13.5t17 -7.5l21 -3q4 0 5 -1.5t1 -3.5q0 -1 -1 -4t-3 -5v0z" />
</svg>