<svg viewBox="0 0 256 256" xmlns="http://www.w3.org/2000/svg">
  <path transform="scale(1, -1) translate(0, -256)" fill="currentColor" d="M128 251q-33 0 -61.5 -16.5t-45 -45t-16.5 -61.5t16.5 -61.5t45 -45t61.5 -16.5t61.5 16.5t45 45t16.5 61.5t-16.5 61.5t-45 45t-61.5 16.5zM128 237q30 0 55 -15t39.5 -40t14.5 -54q0 -21 -8 -40h-54q-1 11 -12.5 18.5t-28.5 9.5l-2 7q-3 6 -4 12q-1 8 0 14l3 9 q2 5 3 10q6 -5 7 -10q0 -2 2 -3.5t5 -1.5h2q2 1 3.5 3.5t0.5 5.5q-1 5 -4.5 10t-8.5 8q4 3 9.5 4.5t12.5 0.5q3 -1 5 1t2.5 4.5t-1 5t-4.5 2.5q-9 2 -17.5 0t-15.5 -7q-1 6 -5 11q-6 9 -13 10q-3 1 -5.5 -1t-3 -5t1.5 -5t5 -2.5t6 -8.5q-13 3 -22 -4q-2 -1 -3 -4t1 -5.5 t4.5 -3t6 1.5t8 2t8.5 -3l-7 -22q-2 -9 1 -20q1 -8 4 -16q-15 -1 -25.5 -9t-12.5 -19h-54q-8 19 -8 41q0 29 15 54t40 39.5t54 14.5zM128 102q12 0 21.5 -4.5t11.5 -10.5h-65q3 7 12 11t20 4zM128 19q-30 0 -55 14.5t-39 39.5h188q-14 -25 -39 -39.5t-55 -14.5z" />
</svg>