<svg viewBox="0 0 256 256" xmlns="http://www.w3.org/2000/svg">
  <path transform="scale(1, -1) translate(0, -256)" fill="currentColor" d="M216 229q-14 0 -24.5 -10.5t-10.5 -24.5t10.5 -24.5t24.5 -10.5t24.5 10.5t10.5 24.5t-10.5 24.5t-24.5 10.5zM216 173q-9 0 -15 6t-6 14.5t6.5 14.5t15 6t14.5 -6t6 -14.5t-6 -14.5t-15 -6zM217 38q-2 0 -4 1l-3 3q-4 5 -7 7q-5 3 -11.5 3t-11.5 -3q-3 -2 -6 -7l-5 -3 q-1 -1 -3 -1t-4 1l-4 3q-1 3 -4 5q-4 17 -22.5 28t-43.5 11l-2 6q-13 30 -9 49q0 3 3 9l2 9q4 9 5 14v1q5 -2 10 -7.5t6 -11.5q1 -3 3 -4t4 -1h2q3 1 4.5 3.5t0.5 4.5q-3 9 -9.5 16.5t-14.5 12.5q7 7 18 10t23 1q3 -1 5 1t2.5 4.5t-1 5t-4.5 3.5q-15 2 -28.5 -1.5 t-22.5 -12.5q-3 11 -10 21.5t-17 12.5q-3 1 -5.5 -0.5t-3 -4.5t1.5 -5.5t5 -3t7.5 -7t7.5 -15.5q-9 4 -19.5 3.5t-18.5 -5.5q-3 -2 -3.5 -4.5t1 -5t4.5 -3t5 0.5q8 5 17.5 4t15.5 -7l-1 -2q-1 -6 -5 -16.5t-5 -16.5q-3 -15 3 -36q3 -14 7 -22q-24 -3 -39 -15.5t-16 -29.5 q-1 -3 -4.5 -3t-5.5 -2.5t-2 -5.5t2 -4.5t5 -1.5q6 0 11 3q3 2 7 6l4 4q2 1 4 1t3 -1l4 -4q4 -4 7 -6q5 -3 11.5 -3t10.5 3q3 2 7 6l4 4q2 1 4 1t4 -1l3 -4q4 -4 7 -6q5 -3 11.5 -3t11.5 3q3 2 6 6l5 4q1 1 3 1t3.5 -1.5l3.5 -3.5q4 -4 7 -6q5 -3 11.5 -3t10.5 3q3 2 7 6 l4 4q2 1 4 1t4 -1l3 -4q4 -4 7 -6q5 -3 11 -3q3 0 5.5 2t2.5 5t-2 5t-5 2zM122 42l-1 -1l-3 -2q-1 -1 -3 -1t-4 1l-4 3q-4 5 -7 7q-4 3 -10.5 3t-11.5 -3q-3 -2 -7 -7l-4 -3q-1 -1 -3.5 -1t-3.5 1l-4 3q-4 5 -7 7q-5 3 -11 3h-2q6 9 20 14.5t30.5 5.5t30.5 -5.5t20 -15.5 q-5 0 -8 -2.5t-7 -6.5z" />
</svg>