<svg viewBox="0 0 256 256" xmlns="http://www.w3.org/2000/svg">
  <path transform="scale(1, -1) translate(0, -256)" fill="currentColor" d="M212 168q16 0 27.5 11.5t11.5 27.5t-11 27.5t-27.5 11.5t-27.5 -11.5t-11 -27.5t11 -27.5t27 -11.5zM212 232q11 0 18 -7.5t7 -17.5t-7 -17.5t-17.5 -7.5t-17.5 7.5t-7 17.5t7 17.5t17 7.5zM244 24q-3 0 -4.5 1.5l-4.5 4.5v0q-5 5 -8 7q-5 3 -12 3t-12 -3q-3 -2 -7 -7v0 q-3 -3 -5 -4.5t-4.5 -1.5t-4.5 1.5t-5 4.5v0q-4 5 -7 7q-6 3 -12.5 3t-11.5 -3q-3 -2 -8 -7v0l-4.5 -4.5t-4.5 -1.5t-4.5 1.5l-4.5 4.5h-1q-4 5 -7 7q-5 3 -12 3t-12 -3q-3 -2 -7 -7h-1q-4 -5 -7 -5v0q-5 13 -8 25q-6 23 -3 40q1 4 5 16l1 2l6 21q2 1 2 3v2q7 -3 14.5 -10.5 t9.5 -16.5q1 -2 2.5 -3.5t4.5 -1.5h2q3 1 4 3.5t1 5.5q-3 11 -12 21t-19 15q8 10 23 15t32 2q3 -1 5.5 1t2.5 4.5t-1.5 5t-4.5 3.5q-19 3 -37 -2.5t-29 -17.5q-3 16 -12 30t-21 16q-3 1 -5.5 -1t-3 -5t1.5 -5t4 -3q6 0 12.5 -10.5t9.5 -23.5q-12 6 -26 5.5t-26 -7.5 q-2 -2 -2.5 -4.5t1 -5t4.5 -3t5 0.5q11 7 23.5 5.5t20.5 -10.5v-5q-2 -7 -6.5 -19.5t-6.5 -20.5q-4 -22 6 -55q-5 3 -12 3t-12 -3q-3 -2 -7 -7v0q-3 -4 -5 -5t-5 -1t-5 -2t-2 -5t2 -5t5 -2q7 0 12 4q3 2 7 6l1 1q3 3 4.5 4t4.5 1t4.5 -1t4.5 -4q7 -8 16 -10l4 -1q6 0 12 4 q3 2 7 6v1q3 3 5 4t4.5 1t4.5 -1t5 -4v-1q4 -4 7 -6q5 -4 12 -4t12 4q3 2 8 6v1q3 3 4.5 4t4.5 1t4.5 -1t4.5 -4v-1q5 -4 8 -6q5 -4 12 -4t12 4q3 2 7 6v1q3 3 5 4t4.5 1t4.5 -1t5 -4v-1q4 -4 7 -6q6 -4 12 -4q3 0 5.5 2.5t2.5 5.5q0 6 -6 6z" />
</svg>