<svg viewBox="0 0 1024 1024" xmlns="http://www.w3.org/2000/svg">
  <path transform="scale(1, -1) translate(0, -960)" fill="currentColor" d="M994 -6q-2 6 -8 10t-12 2q-61 -13 -104 0.5t-97 38.5q-52 24 -121 51t-178 45q-34 6 -64 8.5t-58 2.5q-16 50 -26 114t0 124q4 22 12.5 46t18.5 49q11 27 20.5 56t14.5 57v0.5v1.5q1 8 4 16l6 16q37 -8 85 -53t63 -101q2 -4 6 -7.5t10 -3.5h3h2q6 1 10 7t1 12 q-16 56 -67 106.5t-99 65.5q20 31 52 56q31 24 71 38.5t86 18.5t95 -5q6 -1 12 3t7 10t-3 12t-10 7q-51 10 -101 6q-49 -4 -92.5 -20t-79.5 -42q-35 -26 -58 -60q-6 48 -23.5 93t-40.5 78q-23 32 -47 51t-47 24q-6 1 -12 -3t-7 -10q-2 -6 2 -12t10 -7q17 -2 35.5 -18 t36.5 -43q21 -31 38 -75t22 -91q-53 45 -127.5 52t-136.5 -33q-6 -4 -7.5 -10t2.5 -12q3 -6 9.5 -7.5t12.5 2.5q61 38 133 26.5t115 -65.5q0 -6 -1 -12l-2 -12v0v0q-5 -26 -14.5 -52.5t-19.5 -52.5q-9 -27 -18 -51t-14 -48q-10 -62 -0.5 -127t24.5 -118q-74 -3 -127 -19 q-54 -16 -88.5 -34.5t-50.5 -34.5q-17 -16 -18 -18q-5 -5 -4.5 -11t5.5 -11t12 -4t11 5q0 1 23 21q23 21 72 41.5t127 31.5q77 11 187 -7q107 -18 174.5 -44t116.5 -49q44 -20 80.5 -34t79.5 -14q15 0 30.5 1.5t32.5 6.5q7 1 10.5 6.5t2.5 11.5z" />
</svg>