<svg viewBox="0 0 1024 1024" xmlns="http://www.w3.org/2000/svg">
  <path transform="scale(1, -1) translate(0, -960)" fill="currentColor" d="M850 622q58 0 100 42t42 101t-42 100.5t-100 41.5q-59 0 -101 -41.5t-42 -100.5q0 -60 42 -101.5t101 -41.5zM850 875q45 0 77.5 -32.5t32.5 -77.5q0 -46 -32.5 -78.5t-77.5 -32.5q-46 0 -78.5 32.5t-32.5 78.5q0 45 32.5 77.5t78.5 32.5zM976 21q-17 0 -26.5 7.5 t-19.5 19.5q-11 12 -27 24.5t-44 12.5q-27 0 -42.5 -12.5t-26.5 -24.5q-9 -11 -19 -19t-27 -8t-26.5 7.5t-19.5 19.5q-11 12 -27 24.5t-44 12.5q-27 0 -42.5 -12.5t-27.5 -24.5q-10 -11 -20 -19t-27 -8q-16 0 -25.5 7.5t-20.5 19.5t-27 24.5t-43 12.5q-28 0 -43.5 -12.5 t-27.5 -24.5q-9 -11 -19 -18.5t-26 -8.5l-3 6q0 1 -10 26q-11 26 -22 65.5t-17 86.5q-7 47 1 91q4 18 10.5 37t13.5 40q7 20 15 41.5t12 43.5q2 1 3.5 3t1.5 5q1 6 3 11.5t4 10.5q28 -10 65 -45t48 -77q1 -4 5.5 -7.5t10.5 -3.5h2.5h2.5q6 1 9 7t2 12q-12 46 -51.5 87 t-79.5 56q32 50 98 74.5t142 10.5q6 -2 12 2t7 10t-3 12t-10 8q-84 15 -157 -12.5t-113 -82.5q-5 40 -19 76.5t-32 62.5q-18 27 -38 42.5t-39 18.5q-6 1 -12 -3t-7 -10t3 -12t10 -7q13 -2 27 -14.5t29 -33.5q15 -24 28.5 -57t17.5 -69q-44 35 -103 38.5t-110 -29.5 q-6 -3 -7 -9.5t2 -12.5q4 -6 10.5 -7t12.5 2q48 30 105 21.5t92 -50.5q0 -4 -1 -9t-3 -10v-1.5v-1.5q-4 -20 -11 -40.5t-14 -41.5q-9 -21 -15.5 -41.5t-10.5 -39.5q-13 -71 5 -144.5t34 -111.5q-2 1 -2 2t-2 1q-10 12 -26 24.5t-44 12.5t-41.5 -12.5t-24.5 -24.5 q-10 -11 -19.5 -19t-26.5 -8q-7 0 -11.5 -4.5t-4.5 -11.5t4.5 -11.5t11.5 -4.5q28 0 43 12.5t27 24.5q10 10 20 18.5t27 8.5t26 -7.5t20 -19.5q10 -11 23 -22t33 -14q1 0 2.5 -0.5t2.5 -0.5h1.5h1.5h2.5h2.5q28 0 43 12.5t27 24.5q10 10 20 18.5t27 8.5t26 -7.5t20 -19.5 t27 -24.5t44 -12.5q27 0 42.5 12.5t27.5 24.5q10 10 20 18.5t26 8.5q17 0 26.5 -7.5t20.5 -19.5t27 -24.5t43 -12.5q28 0 43.5 12.5t27.5 24.5q9 10 19 18.5t27 8.5t26.5 -7.5t19.5 -19.5q11 -12 27 -24.5t44 -12.5q7 0 11.5 4.5t4.5 11.5t-7 11.5t-14 4.5v0z" />
</svg>