<svg viewBox="0 0 256 256" xmlns="http://www.w3.org/2000/svg">
  <path transform="scale(1, -1) translate(0, -256)" fill="currentColor" d="M251 15q0 3 -2.5 4.5t-5.5 0.5q-13 -3 -25 0q-7 2 -23 9l-1 1q-18 8 -30 12q-21 8 -46 12q-13 2 -28 2q-10 33 -6 56q1 6 5 17l2 7q7 18 9 28l1 6q9 -4 19.5 -14t13.5 -22q0 -2 2 -3.5t4 -1.5h2q3 1 4.5 3.5t0.5 5.5q-4 13 -15.5 26t-23.5 18q10 14 29 20.5t41 2.5 q3 -1 5.5 1t3 4.5t-1.5 5t-4 2.5q-24 5 -46 -2t-36 -22q-4 20 -15.5 37.5t-24.5 19.5q-3 0 -5.5 -1.5t-3 -4.5t1.5 -5t4 -3q8 -1 16 -14q10 -14 14 -33q-14 9 -32 9.5t-32 -9.5q-2 -1 -3 -4t1 -5.5t4.5 -3t5.5 1.5q14 8 30.5 6t26.5 -14l-1 -5q-2 -9 -8 -26l-1 -2 q-6 -16 -7 -23q-5 -25 5 -59q-29 -2 -51 -14q-12 -6 -19 -13v-1q-2 -2 -1.5 -4.5t2.5 -4.5t5 -2t5 2l7 7q10 6 22 10q18 6 39 6q15 0 32 -2q23 -4 43 -11q12 -4 29 -12v-1q14 -6 20 -8q11 -3 20.5 -3t16.5 2q4 0 5.5 2.5t0.5 5.5z" />
</svg>