<svg viewBox="0 0 256 256" xmlns="http://www.w3.org/2000/svg">
  <path transform="scale(1, -1) translate(0, -256)" fill="currentColor" d="M223 80h-33q0 15 -15.5 26t-39.5 13l-2 5q-11 26 -8 44q1 4 4 12l6 16q4 -2 8 -6.5t5 -9.5q1 -3 3 -4.5t4 -1.5l2 1q3 1 4.5 3.5t0.5 4.5q-2 8 -8 15t-12 11q5 6 14.5 8.5t20.5 0.5q3 -1 5 1t2.5 4.5t-1 5t-4.5 3.5q-13 2 -25 -1t-21 -11q-3 11 -8 18q-7 11 -16 12 q-3 1 -5.5 -0.5t-3 -4.5t1.5 -5.5t4.5 -2.5t6.5 -6t6 -13q-8 4 -17 3t-16 -5q-3 -2 -3.5 -5t1 -5t4.5 -3t5 1q7 4 15 3.5t13 -6.5v-2q0 -3 -3 -9l-1 -4q-3 -7 -5 -16q-2 -13 2 -30q2 -11 6 -21q-22 -2 -37.5 -13t-16.5 -26h-33q-3 0 -5 -2.5t-2 -5.5t2 -5t5 -2h191q3 0 5 2 t2 5t-2.5 5.5t-5.5 2.5zM128 105q19 0 33.5 -7.5t14.5 -17.5h-96q2 10 16 17.5t32 7.5zM62 49h-21q-3 0 -5 -2t-2 -5t2 -5.5t5 -2.5h21q3 0 5 2.5t2 5.5t-2.5 5t-4.5 2zM151 49h-31q-3 0 -5 -2t-2 -5t2 -5.5t5 -2.5h31q3 0 5 2.5t2 5.5t-2 5t-5 2zM191 19h-21q-3 0 -5 -2 t-2 -5t2 -5.5t5 -2.5h21q3 0 5 2.5t2 5.5t-2 5t-5 2zM107 19h-21q-3 0 -5 -2t-2 -5t2 -5.5t5 -2.5h21q3 0 5 2.5t2 5.5t-2 5t-5 2zM206 49h-10q-3 0 -5 -2t-2 -5t2 -5.5t5 -2.5h10q3 0 5 2.5t2 5.5t-2 5t-5 2z" />
</svg>