<svg viewBox="0 0 256 256" xmlns="http://www.w3.org/2000/svg">
  <path transform="scale(1, -1) translate(0, -256)" fill="currentColor" d="M157 155q-6 -1 -9 -1q-19 0 -33.5 14.5t-14.5 33.5l1 9q1 4 -3 7t-8 0q-10 -8 -18 -21.5t-8 -26.5q0 -21 15.5 -36.5t36.5 -15.5q13 0 27 8t21 18q2 4 -0.5 8t-6.5 3zM116 132q-16 0 -27 11t-11 27q0 12 9 24q2 -21 17.5 -36t36.5 -18q-14 -8 -25 -8zM203 160q-3 6 0 12 l22 40q4 6 3.5 13t-4 13t-9.5 9.5t-13 3.5h-148q-11 0 -19 -8t-8 -19v-212q0 -3 2 -5t5 -2t5.5 2t2.5 5v73q5 -3 12 -3h148q7 0 13 3.5t9.5 9.5t4 13t-3.5 13zM212 102q-3 -6 -10 -6h-148q-6 0 -9.5 4t-3.5 9v116q0 5 3.5 8.5t9.5 3.5h148q7 0 10 -6q2 -2 2 -5.5t-1 -6.5 l-22 -40q-3 -6 -3 -12.5t3 -12.5l21 -39q4 -7 0 -13zM158 202h-8v7q0 3 -2 5t-5 2t-5 -2t-2 -5v-7h-8q-3 0 -5 -2.5t-2 -5.5t2 -5t5 -2h8v-7q0 -3 2 -5t5 -2t5 2t2 5v8h8q3 0 5 2t2 5t-2 5t-5 2z" />
</svg>