<svg viewBox="0 0 256 256" xmlns="http://www.w3.org/2000/svg">
  <path transform="scale(1, -1) translate(0, -256)" fill="currentColor" d="M208 251h-160q-7 0 -13 -5.5t-6 -13.5v-208q0 -8 5.5 -13.5t13.5 -5.5h160q7 0 13 5.5t6 13.5v208q0 8 -6 13.5t-13 5.5zM96 164q2 0 3.5 -1.5t1.5 -3.5v-63q0 -2 -1.5 -3.5t-3.5 -1.5h-52v73h52zM105 80q4 3 6.5 7t2.5 10v62q0 11 -9 17v61h45v-218h-45v61zM43 232 q0 2 1.5 3.5t3.5 1.5h43v-59h-48v54zM43 24v54h48v-59h-43q-2 0 -3.5 1.5t-1.5 3.5zM213 24q0 -2 -1.5 -3.5t-3.5 -1.5h-43v218h43q2 0 3.5 -1.5t1.5 -3.5v-208zM72 116q3 0 5 2t2 5v12q0 3 -2 5t-5 2t-5 -2t-2 -5v-12q0 -3 2 -5t5 -2z" />
</svg>