<svg viewBox="0 0 1024 1024" xmlns="http://www.w3.org/2000/svg">
  <path transform="scale(1, -1) translate(0, -960)" fill="currentColor" d="M830 928h-636q-27 0 -45.5 -19t-18.5 -45v-832q0 -26 18.5 -45t45.5 -19h636q27 0 45.5 19t18.5 45v832q0 26 -18.5 45t-45.5 19zM382 605q14 0 23 -9.5t9 -22.5v-250q0 -13 -9 -22.5t-23 -9.5h-220v314h220v0zM408 266q17 7 27 22.5t10 34.5v250q0 19 -10 34.5t-27 22.5 v266h205v-896h-203v262q0 2 -0.5 2t-1.5 2v0zM162 864q0 13 9 22.5t23 9.5h184v-259h-216v227v0zM162 32v227h216v-259h-184q-14 0 -23 9.5t-9 22.5v0zM862 32q0 -13 -9 -22.5t-23 -9.5h-184v896h184q14 0 23 -9.5t9 -22.5v-832zM288 413q7 0 11.5 4.5t4.5 11.5v46 q0 7 -4.5 11.5t-11.5 4.5t-11.5 -4.5t-4.5 -11.5v-46q0 -7 4.5 -11.5t11.5 -4.5z" />
</svg>