<svg viewBox="0 0 1024 1024" xmlns="http://www.w3.org/2000/svg">
  <path transform="scale(1, -1) translate(0, -960)" fill="currentColor" d="M678 338q14 9 29.5 16.5l15.5 7.5l-46 -7.5t-103 -13.5q-68 -4 -134.5 -5t-103.5 5q-88 12 -13 35.5l75 23.5l-46 -3t-112 -35q-37 -18 1 -31q38 -12 112 -16.5t165 0.5t160 23v0zM515 402q-29 62 -75 124t75 157q150 120 123 190.5l-27 70.5q16 -62 -6 -105 q-22 -42 -60 -76.5t-80 -65.5q-43 -30 -68 -68q-35 -51 6 -107.5t112 -119.5v0zM736 741l-51 -17q-50 -16 -99 -49.5t-69 -84.5q-20 -52 41 -121q36 -41 12 -72.5l-24 -31.5l53.5 41t11.5 101q-38 55 -38 98t163 136zM725 219l-1.5 -1.5t-0.5 -3.5q93 25 128 64 q34 38 29.5 71.5t-39.5 51.5q-34 18 -79 2q-5 -1 -9.5 -4.5t-6.5 -8.5q4 2 9.5 4t12.5 3q42 8 69 -49t-112 -129v0v0zM814 98l6.5 -13.5t-38.5 -26.5q-42 -13 -121 -21q-80 -7 -166 -8t-163 5t-114 22q-28 12 4 26t47 17q17 4 25 3l8 -1q-14 10 -53 2q-40 -7 -70 -22 t-35 -32t50 -25q149 -25 279 -24q131 2 219.5 17.5t124.5 38.5q36 24 -3 42v0zM382 178q-56 -17 -46 -38q11 -21 60.5 -34t124.5 -10q75 2 148 34q-13 4 -28 12t-27 15q-66 -13 -106 -14.5t-98 4.5q-50 6 -39 18.5zM731 -11q-56 -10 -118 -15q-63 -5 -123.5 -5.5t-114.5 3.5 q-55 4 -97 10l26 -10t114 -17q66 -4 145 -2q80 2 148.5 12t115.5 30q47 21 50 53l-22.5 -20.5t-123.5 -38.5v0v0zM645 261q-87 -17 -145 -18.5t-121 5.5q-49 5 -35.5 21.5l13.5 16.5q-63 -21 -52 -41q10 -20 65.5 -30.5t141.5 -7.5t174 30q-10 3 -20 9t-21 15z" />
</svg>