<svg viewBox="0 0 256 256" xmlns="http://www.w3.org/2000/svg">
  <path transform="scale(1, -1) translate(0, -256)" fill="currentColor" d="M4 252v-248h248v248h-248zM139 59q0 -18 -9.5 -27t-25.5 -9q-25 0 -35 22l19 12q3 -6 6.5 -9t9.5 -3t9 3t3 12v78h23v-79zM194 23q-15 0 -26 6.5t-16 17.5l19 11q9 -14 23 -14q7 0 11.5 3t4.5 8.5t-4 8.5t-13 8l-6 2q-14 6 -21 14t-7 21.5t9.5 22t24.5 8.5 q12 0 19.5 -4.5t13.5 -14.5l-18 -12q-3 5 -6.5 7.5t-8.5 2.5t-8 -3t-3 -7.5t3 -7t11 -6.5l5 -2q16 -7 23 -14q8 -9 8.5 -23.5t-10.5 -23.5t-28 -9z" />
</svg>