<svg viewBox="0 0 1024 1024" xmlns="http://www.w3.org/2000/svg">
  <path transform="scale(1, -1) translate(0, -960)" fill="currentColor" d="M16 944v-992h992v992h-992zM557 171q0 -73 -39.5 -107.5t-101.5 -34.5q-55 0 -88.5 25t-50.5 61l77 48q9 -20 22 -34t38 -14q24 0 37 11.5t13 47.5v314h93v-317zM778 29q-65 0 -107.5 28t-64.5 66l77 45q16 -24 37.5 -40t55.5 -16q29 0 45.5 12.5t16.5 35.5q0 24 -17 36 t-50 26l-22 10q-51 20 -81.5 52.5t-30.5 89.5q0 53 36 87.5t100 34.5q44 0 76 -17t55 -58l-72 -48q-12 20 -25.5 30t-35.5 10q-20 0 -32.5 -11.5t-12.5 -28.5q0 -21 14 -32t42 -24l23 -10q59 -25 92 -56t33 -91q1 -64 -42.5 -97.5t-109.5 -33.5v0z" />
</svg>