<svg viewBox="0 0 256 256" xmlns="http://www.w3.org/2000/svg">
  <path transform="scale(1, -1) translate(0, -256)" fill="currentColor" d="M170 100q4 4 11 6v0l-37 -5q-45 -2 -59 0t-10.5 5.5t14.5 6.5l11 3h-6l-14 -2q-10 -3 -19.5 -7.5t-0.5 -7.5t28.5 -4.5t42 0t39.5 5.5zM129 116q-2 5 -9 15t-10 15q-3 10 0.5 19.5t18 21t21.5 21.5t8.5 18t0.5 13.5t-4 9.5l-2 3q3 -13 -0.5 -23t-12.5 -19q-5 -5 -17 -14 l-13 -11q-7 -6 -11 -12q-8 -11 2 -27q7 -11 28 -30zM184 201q-4 -1 -9 -2q-10 -4 -18 -8q-12 -7 -19 -14q-9 -9 -9.5 -20t11.5 -24q7 -8 3 -18q-3 -5 -7 -8v0l5 3q5 3 9.5 8t6 11.5t-3.5 13.5l-2 2q-7 11 -8 16q-2 8 7 17t34 23zM181 71v-1q21 5 30.5 14.5t8.5 18.5 t-10 13.5t-20 0.5q-2 -1 -4 -3l6 1q5 1 10.5 -2.5t6.5 -10t-5.5 -15t-22.5 -16.5zM204 40l1 -1.5t-1 -4t-8 -4.5q-14 -4 -43.5 -6t-56.5 0q-30 1 -42 6q-6 3 2 6q4 3 10.5 4.5t9.5 0.5v0q-5 4 -19.5 -0.5t-19.5 -10t11 -8.5q29 -5 57 -6q26 -1 49 2q20 2 34.5 6t18.5 8.5 t-3 7.5zM96 60q-14 -3 -12 -8.5t15.5 -9t30.5 -2.5q20 1 37 8q-6 2 -13 7q-16 -3 -26 -3.5t-26 1.5q-7 1 -8.5 2.5t0.5 3.5zM183 13q-27 -5 -61 -5q-30 0 -52 4l2 -2q4 -1 10 -2q9 -2 22 -3q41 -3 74 2q40 6 41 21l-1 -1q-1 -2 -5 -4.5t-11.5 -5t-18.5 -4.5zM161 81 q-20 -4 -35 -4.5t-31 1.5q-7 1 -8.5 3t0.5 4l2 3q-15 -5 -13 -10.5t17 -8t35 -1.5q23 1 44 7q-5 2 -11 6z" />
</svg>