<svg viewBox="0 0 1024 1024" xmlns="http://www.w3.org/2000/svg">
  <path transform="scale(1, -1) translate(0, -960)" fill="currentColor" d="M170 829q-63 0 -108.5 -44.5t-45.5 -107.5v-611h838q65 0 109.5 45.5t44.5 107.5v610h-838v0zM342 227q0 -47 -32 -78.5t-78 -31.5h-162v235l33 -6.5t79 -6.5q80 0 109 26.5t29 63.5v128h-94v-131q0 -24 -15.5 -39.5t-44.5 -15.5q-24 0 -47 6.5t-47 17.5v272 q0 47 32.5 79t77.5 32h160v-86v-189.5v-189.5v-86v0zM648 227q0 -47 -32.5 -78.5t-77.5 -31.5h-160v253q20 -17 58 -27.5t97 -9.5q32 1 59 7l27 6v48q-17 -9 -37.5 -16t-45.5 -8q-44 -4 -69 16.5t-25 59.5t25.5 60t68.5 17q25 -1 46.5 -8t36.5 -17v48l-27.5 5.5t-58.5 6.5 q-58 2 -96 -7.5t-59 -28.5v144q0 46 32 78t78 32h160v-549v0zM952 227q0 -47 -32.5 -78.5t-77.5 -31.5h-164v224h172q30 0 50 15.5t20 40.5q0 24 -18 37.5t-44 13.5v2q24 3 36.5 16.5t12.5 32.5q0 24 -18 37t-44 14h-4.5h-6.5h-154v116q0 46 32.5 78t77.5 32h162v-549v0z M798 435h4.5h2.5q8 -1 15 -8.5t7 -18.5q0 -12 -7 -19.5t-15 -7.5h-4h-3h-62v59h62v-5zM736 469v51h56h3h3q9 -1 16 -8t7 -19q0 -10 -7 -18t-16 -9h-2.5h-3.5q0 2 -28 2.5z" />
</svg>