<svg viewBox="0 0 1024 1024" xmlns="http://www.w3.org/2000/svg">
  <path transform="scale(1, -1) translate(0, -960)" fill="currentColor" d="M883 454q-7 0 -11.5 -4t-4.5 -12v-172q0 -24 -16.5 -41t-40.5 -17t-41 17t-17 41v467q1 40 -14 76q-16 35 -42 61.5t-62 42.5q-35 15 -76 15h-92q-41 0 -76 -15q-36 -16 -62.5 -42.5t-41.5 -61.5q-16 -36 -16 -76v-467q0 -24 -16.5 -41t-40.5 -17t-41 17t-17 41v172 q0 8 -4.5 12t-11.5 4t-11.5 -4t-4.5 -12v-172q0 -38 26.5 -64t63.5 -26t63 26t26 64v100h82v-180l-77 -197q-2 -6 1 -12.5t9 -8.5q1 0 2.5 -1t3.5 -1q5 0 9 2.5t6 7.5l78 202v188h80v-382q0 -7 4.5 -11.5t11.5 -4.5t11.5 4.5t4.5 11.5v382h88v-187l78 -201q3 -5 6.5 -7.5 t8.5 -2.5h2.5t3.5 2q6 2 9 8t1 12l-77 197v179h74v-100q0 -38 26 -64t63 -26t63.5 26t26.5 64v172q-1 6 -6 11t-12 5v0zM302 398v335q0 67 48 115t116 48h92q68 0 116 -48t48 -115v-335h-420v0z" />
</svg>