<svg viewBox="0 0 256 256" xmlns="http://www.w3.org/2000/svg">
  <path transform="scale(1, -1) translate(0, -256)" fill="currentColor" d="M221 132q-3 0 -5 -2t-2 -5v-43q0 -5 -3.5 -8t-8 -3t-8 3.5t-3.5 7.5v117q0 21 -15 36.5t-36 15.5h-24q-21 0 -36 -15.5t-15 -36.5v-117q0 -4 -3.5 -7.5t-8 -3.5t-8 3.5t-3.5 7.5v44q0 3 -2 5t-5 2t-5 -2t-2 -5v-44q0 -10 7.5 -17.5t18 -7.5t17.5 7.5t7 17.5v23h15v-42 l-19 -48q-1 -3 0 -5.5t4 -3.5l2 -1q3 0 4.5 1.5t2.5 3.5l20 50v45h14v-93q0 -3 2 -5t5 -2t5.5 2t2.5 5v93h16v-45l20 -50q1 -5 6 -5l2 1q3 1 4 3.5t0 5.5l-18 48v42h12v-23q0 -10 7.5 -17.5t18 -7.5t17.5 7.5t7 17.5v44q0 3 -2 4.5t-5 1.5zM78 119v80q0 16 11 27t27 11h23 q16 0 27 -11t11 -27v-81h-99v1z" />
</svg>