<svg viewBox="0 0 256 256" xmlns="http://www.w3.org/2000/svg">
  <path transform="scale(1, -1) translate(0, -256)" fill="currentColor" d="M49 128l-5 4q-10 11 -14 25.5t0 29.5q-11 2 -18.5 11.5t-7.5 22t10 22t23 9.5t22 -7.5t11 -19.5q14 3 27.5 -0.5t23.5 -14.5l2 -2l-25 -24l-1 2q-6 6 -14.5 6t-14.5 -6t-6 -14.5t6 -14.5l55 -55l-25 -24l-26 24zM76 154l26 26l29 29q11 11 25.5 14.5t28.5 -0.5 q2 12 11.5 20t22.5 8t22.5 -9.5t9.5 -22.5t-8.5 -22.5t-20.5 -10.5q4 -14 0.5 -29t-14.5 -25l-2 -2l-23 25l1 1q6 6 6 14.5t-6 14.5t-14 6t-14 -6l-4 -5l-51 -50zM186 31q-14 -4 -28.5 -0.5t-25.5 14.5l-2 1l24 25l2 -2q6 -6 14.5 -6t14.5 6t6 14.5t-6 14.5l-5 4l-51 51 l25 25l55 -56q10 -10 14 -24t1 -28q12 -1 20 -10.5t8 -22.5t-10 -22.5t-22.5 -9.5t-21.5 7.5t-12 18.5zM177 100l-26 -26l-29 -29q-10 -10 -24 -14t-28 -1q-3 -11 -12 -18.5t-21.5 -7.5t-22 9.5t-9.5 22t7 21.5t18 12q-3 14 0.5 28t13.5 24l2 2l24 -25l-2 -1q-6 -6 -6 -14.5 t6 -14.5t14.5 -6t14.5 6l55 55z" />
</svg>