<svg viewBox="0 0 256 256" xmlns="http://www.w3.org/2000/svg">
  <path transform="scale(1, -1) translate(0, -256)" fill="currentColor" d="M227 81q1 13 -3 25t-13 21q9 9 12.5 21.5t2.5 24.5q11 4 18 14.5t7 22.5q0 17 -12 28.5t-28 11.5q-12 0 -22.5 -6.5t-14.5 -17.5q-13 1 -25.5 -2.5t-22.5 -12.5q-9 9 -21 13t-24 2q-5 11 -15 18t-22 7q-17 0 -28.5 -11.5t-11.5 -28.5q0 -12 6 -21.5t16 -14.5 q-1 -13 2.5 -25.5t13.5 -22.5q-18 -19 -16 -47q-10 -4 -16 -14t-6 -21q0 -17 12 -28.5t28 -11.5q12 0 22 6t15 16q25 -2 45 15q10 -9 23 -13t26 -1q5 -11 15 -17t22 -6q16 0 28 12t12 28q0 12 -6.5 22t-18.5 14zM176 86q0 -4 -2 -6t-5 -2.5t-5 0.5l12 12v-4zM78 90l12 -12 q-2 -1 -4.5 -0.5t-5 2.5t-2.5 5.5v4.5zM126 114l-12 12l12 13l13 -13zM78 167q0 4 2 6t5 2.5t5 -0.5l-12 -12v4zM175 163l-12 12q2 1 5 0.5t5.5 -2.5t2.5 -6v-3zM178 206l11 -3l1 11q2 7 8 12.5t14 5.5t14 -6t6 -14t-5.5 -14t-12.5 -7l-12 -1l3 -11q3 -9 1.5 -18t-6.5 -17 l-9 10q4 6 4 14q0 12 -8.5 20t-20 8t-19.5 -8l-44 -44l-9 8l44 44q7 8 18 10.5t22 -0.5zM24 211q0 9 6 15t14 6t14 -5t7 -13l1 -10l10 2q18 5 33 -6l-9 -9q-8 5 -18 4t-16 -9q-9 -8 -9 -20t9 -20l44 -44l-10 -8l-43 44q-8 8 -10.5 18.5t-0.5 22.5l3 9l-10 3q-7 1 -11 7 t-4 13zM77 47l-10 2l-2 -9q-1 -7 -7 -12t-14 -5t-14 6t-6 14t4.5 13.5t11.5 7.5l9 2l-2 11q-2 9 -0.5 18t5.5 16l10 -9q-4 -6 -4 -14q0 -12 8 -20.5t20 -8.5t20 9l44 44l9 -9l-44 -44q-7 -8 -17 -11t-21 -1zM212 24q-8 0 -13.5 4.5t-7.5 11.5l-2 11l-10 -4q-9 -2 -18.5 -0.5 t-16.5 6.5l9 9q8 -5 18 -4t16 8q9 9 9 21t-9 20l-43 43l9 10l44 -44q7 -8 10 -18.5t1 -20.5l-3 -11l11 -2q7 -1 12.5 -7t5 -14t-6.5 -13.5t-15 -5.5z" />
</svg>