<svg viewBox="0 0 1024 1024" xmlns="http://www.w3.org/2000/svg">
  <path transform="scale(1, -1) translate(0, -960)" fill="currentColor" d="M195 446l-17 18q-45 44 -58.5 103t2.5 116q-45 10 -74.5 46.5t-29.5 84.5q0 54 38.5 93t92.5 39q50 0 87 -32t44 -79q54 13 108.5 -1.5t96.5 -57.5l6 -6l-97 -98l-7 6q-24 24 -57.5 24t-57.5 -24t-24 -57.5t24 -57.5l219 -219l-97 -98l-104 100l-95 100v0zM306 554 l219 219q44 44 102.5 57.5t113.5 -1.5q7 49 44.5 80.5t86.5 31.5q54 0 92.5 -38.5t38.5 -92.5q0 -51 -33 -87.5t-82 -44.5q17 -55 2 -113.5t-58 -100.5l-6 -6l-95 97l7 7q24 24 24 57.5t-24 57.5t-58 24t-58 -24l-16 -21l-97 -96l-104 -104l-99 98v0zM746 61 q-58 -17 -116.5 -3.5t-103.5 57.5l-6 7l98 97l6 -6q24 -24 57.5 -24t57.5 24t24 57.5t-24 57.5l-21 18l-97 99l-104 104l97 97l221 -220q42 -42 57.5 -98t1.5 -110q50 -8 81 -45t31 -87q0 -54 -38.5 -92.5t-92.5 -38.5q-47 -1 -83.5 30t-45.5 76v0zM709 336l-219 -219 q-42 -42 -98 -57.5t-110 -1.5q-12 -46 -48 -76t-84 -30q-54 0 -92.5 38.5t-38.5 92.5q0 46 29 82.5t72 45.5q-13 57 0.5 112.5t55.5 97.5l6 6l98 -97l-6 -7q-24 -24 -24 -57.5t24 -57.5t57.5 -24t57.5 24l219 219l101 -91v0z" />
</svg>