<svg viewBox="0 0 1024 1024" xmlns="http://www.w3.org/2000/svg">
  <path transform="scale(1, -1) translate(0, -960)" fill="currentColor" d="M901 483q-5 4 -7.5 8.5t-3.5 9.5q-4 21 -6.5 43.5t-9.5 42.5q-24 66 -72 112t-108 68t-126 18q-67 -4 -128 -38q-36 -20 -65 -47.5t-50 -62.5q-5 1 -8 3t-5 3q-38 17 -77 13t-75 -29q-34 -24 -48 -57.5t-8 -78.5q0 -3 -1.5 -8.5t-4.5 -8.5q-53 -39 -72.5 -99t0.5 -122 q19 -61 71 -101t114 -42q39 2 79 2h81h110h110.5h110.5q56 0 112 2q70 1 122.5 44t68.5 109q13 65 -15 124t-89 92v0v0zM939 208q-24 -29 -56 -45t-70 -16q-75 -1 -151 -0.5t-150 0.5h-45q-45 -1 -99 -0.5t-99 0.5h-47q-57 0 -100 26t-66 80t-6.5 112.5t67.5 92.5 q12 8 16.5 16.5t0.5 23.5q-7 36 5 63t43 47q30 20 62 21t65 -16q13 -7 21.5 -11t16.5 16q19 36 45.5 61.5t60.5 43.5q64 37 135 36t130.5 -33t98.5 -92q39 -61 41 -143q0 -9 4 -16t13 -11q79 -37 98 -114.5t-34 -141.5v0zM786 350q-9 -40 -42 -68.5t-75 -28.5q-22 0 -41.5 8 t-35.5 24q-36 33 -86.5 86t-83.5 79q-27 20 -54.5 17.5t-50.5 -24.5q-33 -29 -32 -64q2 -36 23.5 -62t56.5 -32q35 -7 69 22q4 5 9.5 12t12.5 11q10 7 21.5 1.5t0.5 -19.5q-24 -36 -61.5 -49.5t-75.5 -1.5q-39 12 -62 44.5t-23 78.5q1 29 16.5 55.5t44.5 42.5q29 15 59.5 15 t57.5 -20q67 -51 107 -102t83 -76q32 -20 66.5 -10t55.5 42q38 65 -21 116t-117 -5q-5 -5 -9.5 -11.5t-11.5 -9.5q-13 -9 -21 0t-1 17q27 38 65 52.5t82 -2.5q41 -16 61.5 -55t12.5 -83v0v0z" />
</svg>