<svg viewBox="0 0 256 256" xmlns="http://www.w3.org/2000/svg">
  <path transform="scale(1, -1) translate(0, -256)" fill="currentColor" d="M225 137q-2 1 -3 4l-1 6q-1 11 -3 16q-7 21 -25 34.5t-40.5 15t-42.5 -9.5q-18 -10 -29 -28l-3 2q-20 8 -37.5 -4t-14.5 -34q0 -3 -2 -5q-13 -9 -17.5 -24t0 -30.5t17.5 -25.5t29 -10h67h84q17 1 30 11.5t17 27t-3.5 31t-22.5 23.5zM235 68q-13 -15 -32 -15h-75 q0 -1 -71 0h-1q-31 0 -42 26q-6 14 -1.5 28.5t16.5 22.5q3 3 4 5t1 5q-4 18 11 28t32 1l2 -1q3 -2 4.5 -1.5t3.5 3.5q9 18 26 27q21 12 45 8t40 -22t16 -44q0 -5 5 -7q13 -6 19.5 -17t5.5 -24t-9 -23zM196 104q-2 -11 -10 -18t-19 -7t-19 8l-16 16q-20 20 -26.5 25 t-13.5 4.5t-13 -5.5q-8 -7 -8 -16t6 -16t14.5 -8t16.5 6l2 2q2 3 4.5 4t5 -0.5t0.5 -4.5q-6 -9 -15.5 -12.5t-19 -0.5t-15.5 11.5t-6 19.5q0 7 4 14t11.5 10.5t15 3.5t13.5 -5q12 -8 27 -25q14 -15 21.5 -19.5t16 -2t13.5 10.5q7 10 2 20.5t-16 13t-20 -6.5l-1 -1 q-3 -3 -5 -4.5t-4.5 0.5t-0.5 5q7 9 16.5 12.5t20 -0.5t16 -14t2.5 -20z" />
</svg>