<svg viewBox="0 0 1024 1024" xmlns="http://www.w3.org/2000/svg">
  <path transform="scale(1, -1) translate(0, -960)" fill="currentColor" d="M880 61l-2 37q-2 34 -27.5 58.5t-60.5 24.5h-224l-105 157l22 388h104q23 0 39.5 -16.5t16.5 -39.5v-260q0 -8 4.5 -12t11.5 -4t11.5 4t4.5 12v260q0 38 -26 63t-62 25h-102q0 71 -50 120.5t-120 49.5q-71 0 -121 -50t-50 -121v-4t2 -3q-2 -2 -2 -4v-4l24 -408l-19 -272 q-1 -18 5 -35t19 -32q13 -14 29.5 -21.5t34.5 -7.5h555q18 0 35 7t29 21q13 14 19 31.5t5 35.5zM198 350l-22 376h277l-23 -376h-232v0zM315 896q58 0 98 -40t41 -98h-278q0 58 41 98t98 40zM834 18q-9 -9 -19.5 -13.5t-22.5 -4.5h-555q-12 0 -22.5 4.5t-19.5 13.5 q-8 8 -11.5 19.5t-2.5 23.5l17 257h239l109 -161q2 -4 5.5 -5.5t6.5 -1.5h232q23 0 39 -15.5t17 -36.5l2 -37q1 -13 -3 -24t-11 -19v0zM392 219q-12 0 -20.5 -8.5t-8.5 -20.5t8.5 -20t20.5 -8t20.5 8t8.5 20t-8.5 20.5t-20.5 8.5z" />
</svg>