<svg viewBox="0 0 1024 1024" xmlns="http://www.w3.org/2000/svg">
  <path transform="scale(1, -1) translate(0, -960)" fill="currentColor" d="M810 696q-9 10 -21 15.5t-24 5.5h-232l69 173q2 2 4.5 4t6.5 2v0h152q7 0 11.5 4.5t4.5 11.5t-4.5 11.5t-11.5 4.5h-152v0v0q-13 0 -24 -7.5t-15 -19.5l-73 -184h-242q-13 0 -24.5 -5.5t-20.5 -15.5q-8 -10 -12 -22.5t-2 -25.5l66 -587q4 -41 34 -68t71 -27h283 q41 0 71 27t35 68l66 587q1 13 -3.5 25.5t-12.5 22.5v0zM726 66q-3 -28 -23.5 -47t-49.5 -19h-282q-29 0 -49.5 19t-23.5 47l-37 329l65 34q27 14 57.5 14.5t56.5 -11.5l10 -5q31 -15 65.5 -15.5t66.5 14.5l20 9q26 12 55 11t55 -14l54 -29l-40 -337v0zM794 653l-26 -216 l-43 22q-33 17 -68.5 18t-69.5 -13l-19 -10q-25 -10 -52.5 -10t-53.5 12l-9 5q-34 17 -72 16t-71 -19l-54 -28l-26 223q-1 6 1 11.5t6 10.5q3 5 9 7.5t13 2.5h504q6 0 12 -2.5t11 -7.5q4 -5 6 -10.5t2 -11.5v0z" />
</svg>