<svg viewBox="0 0 256 256" xmlns="http://www.w3.org/2000/svg">
  <path transform="scale(1, -1) translate(0, -256)" fill="currentColor" d="M205 192q-6 6 -14 6h-53l15 39h38q3 0 5 2t2 5t-2 5t-4 2h-38q-5 0 -8 -2.5t-5 -6.5l-17 -44h-59q-8 0 -13.5 -6t-4.5 -14l16 -147q1 -11 9.5 -19t19.5 -8h71q12 0 20 7.5t9 19.5l17 147q1 8 -4 14zM62 183q1 1 3 1h126q2 0 3 -1t1 -3l-5 -50l-7 4q-9 4 -18.5 4.5 t-18.5 -3.5l-5 -3q-12 -5 -24 1l-3 1q-9 4 -19 4t-19 -5l-10 -5l-5 51q-1 3 1 4zM179 33q-1 -6 -5.5 -10t-10.5 -4h-70q-6 0 -10.5 4t-5.5 10l-9 80l14 7q6 4 13 4t13 -3l2 -1q9 -5 18.5 -5t17.5 4l5 3q6 2 12.5 2t12.5 -3l11 -6z" />
</svg>