<svg viewBox="0 0 256 256" xmlns="http://www.w3.org/2000/svg">
  <path transform="scale(1, -1) translate(0, -256)" fill="currentColor" d="M223 32v9q-1 10 -8 16.5t-17 6.5h-55l-25 38l6 93h23q4 0 7.5 -3.5t3.5 -7.5v-66q0 -3 2 -5t5 -2t5 2t2 5v66q0 10 -7 17.5t-18 7.5h-23q-1 18 -14 30t-31.5 12t-32 -13t-13.5 -32l1 -2l-1 -1l6 -103l-5 -68q0 -11 7.5 -19t18.5 -8h138q11 0 18.5 8.5t6.5 18.5zM52 106 l-5 88h63l-5 -88h-53zM79 237q12 0 21 -8t10 -20h-63q1 12 10.5 20t21.5 8zM206 22q-3 -3 -8 -3h-139q-5 0 -8 3.5t-3 8.5l5 61h55l26 -39q2 -3 6 -3h58q4 0 7.5 -3t3.5 -7l1 -10q-1 -5 -4 -8zM98 71q-3 0 -5 -2t-2 -5t2 -5.5t5 -2.5t5 2.5t2 5.5t-2 5t-5 2z" />
</svg>