<svg viewBox="0 0 1024 1024" xmlns="http://www.w3.org/2000/svg">
  <path transform="scale(1, -1) translate(0, -960)" fill="currentColor" d="M902 872h-684q-38 0 -64 -26t-26 -64v-268h-32q-26 0 -45 -19t-19 -45v-362q0 -26 19 -45t45 -19h98q26 0 45 19t19 45v362q0 26 -19 45t-45 19h-32v268q0 24 16.5 41t40.5 17h685q24 0 41 -17t17 -41v-635q0 -38 -27.5 -65.5t-65.5 -27.5q-39 0 -66 27.5t-27 65.5v397 q0 60 -43 103t-103 44h-0.5h-0.5q-29 0 -56 -10.5t-48 -32.5q-22 -20 -32.5 -47.5t-10.5 -56.5v-30h-32q-27 0 -45.5 -19t-18.5 -45v-362q0 -26 18.5 -45t45.5 -19h97q27 0 45.5 19t18.5 45v362q0 26 -18.5 45t-45.5 19h-32v30q0 23 9 44t25 38q17 16 38 24.5t43 8.5 q47 0 80.5 -34t33.5 -81v-397q0 -51 36.5 -88t88.5 -37q51 0 87 37.5t36 87.5v635q0 38 -26 64t-64 26v0zM226 450v-362q0 -13 -9.5 -22.5t-22.5 -9.5h-98q-13 0 -22.5 9.5t-9.5 22.5v362q0 13 9.5 22.5t22.5 9.5h98q13 0 22.5 -9.5t9.5 -22.5zM578 450v-362 q0 -13 -9.5 -22.5t-22.5 -9.5h-98q-13 0 -22.5 9.5t-9.5 22.5v362q0 13 9.5 22.5t22.5 9.5h98q13 0 22.5 -9.5t9.5 -22.5z" />
</svg>