<svg viewBox="0 0 256 256" xmlns="http://www.w3.org/2000/svg">
  <path transform="scale(1, -1) translate(0, -256)" fill="currentColor" d="M226 237h-172q-10 0 -17.5 -7t-7.5 -18v-64h-5q-8 0 -13.5 -6t-5.5 -14v-90q0 -8 5.5 -13.5t13.5 -5.5h24q8 0 14 5.5t6 13.5v90q0 8 -6 14t-14 6h-5v64q0 4 3.5 7.5t7.5 3.5h172q4 0 7.5 -3.5t3.5 -7.5v-159q0 -9 -6 -14.5t-14.5 -5.5t-14 5.5t-5.5 14.5v99 q0 16 -11.5 28t-27.5 12h-1q-16 0 -27.5 -12t-11.5 -28v-5h-6q-7 0 -13 -5.5t-6 -13.5v-91q0 -8 5.5 -13.5t13.5 -5.5h25q8 0 13.5 5.5t5.5 13.5v91q0 8 -5.5 14t-13.5 6h-5v4q0 11 7.5 18.5t17.5 7.5h1q10 0 17.5 -7.5t7.5 -18.5v-99q0 -14 10 -24t24 -10t24 10t10 24v159 q0 10 -7.5 17.5t-17.5 7.5zM53 128v-90q0 -2 -1.5 -3.5t-3.5 -1.5h-24q-2 0 -3.5 1.5t-1.5 3.5v90q0 3 1.5 4.5t3.5 1.5h24q2 0 3.5 -2t1.5 -4zM142 128v-90q0 -2 -1.5 -3.5t-4.5 -1.5h-24q-2 0 -3.5 1.5t-1.5 3.5v90q0 3 1.5 4.5t3.5 1.5h24q2 0 4 -2t2 -4z" />
</svg>