<svg viewBox="0 0 256 256" xmlns="http://www.w3.org/2000/svg">
  <path transform="scale(1, -1) translate(0, -256)" fill="currentColor" d="M101 38h54q9 0 16 7t7 16v18q0 9 -7 16t-16 7h-54q-9 0 -16 -7t-7 -16v-18q0 -9 7 -16t16 -7zM92 79q0 4 2.5 6.5t6.5 2.5h54q4 0 6.5 -2.5t2.5 -6.5v-17q0 -4 -2.5 -7t-6.5 -3h-54q-4 0 -6.5 3t-2.5 7v17zM90 159q6 -3 14 -6q13 -4 24 -4q20 0 38 10q4 2 4 6 q-1 21 -12 34q-5 6 -13 10q7 7 7 17t-7 17.5t-17 7.5t-17.5 -7t-7.5 -17.5t7 -17.5q-7 -3 -12 -10q-12 -13 -12 -34q1 -4 4 -6zM128 237q4 0 7 -3t3 -7.5t-3 -7.5t-7 -3t-7 3t-3 7.5t3 7.5t7 3zM109 190q8 9 19 9t18.5 -9t8.5 -21q-14 -6 -26.5 -6t-27.5 6q1 13 8 21z M221 135h-186q-5 0 -9 -3.5t-4 -8.5v-22q0 -5 4 -8.5t9 -3.5h7v-71q0 -5 3.5 -9t8.5 -4h148q5 0 8.5 4t3.5 9v71h7q5 0 9 3.5t4 8.5v22q0 5 -4 8.5t-9 3.5zM220 103h-13q-3 0 -5 -2t-2 -5v-77h-144v77q0 3 -2 5t-5 2h-13v19h184v-19z" />
</svg>