<svg viewBox="0 0 1024 1024" xmlns="http://www.w3.org/2000/svg">
  <path transform="scale(1, -1) translate(0, -960)" fill="currentColor" d="M619 334h-214q-34 0 -58 -24t-24 -57v-71q0 -33 24 -57t58 -24h214q34 0 58 24t24 57v71q0 33 -24 57t-58 24zM669 182q0 -20 -14.5 -34.5t-35.5 -14.5h-214q-21 0 -35.5 14.5t-14.5 34.5v71q0 20 14.5 34.5t35.5 14.5h214q21 0 35.5 -14.5t14.5 -34.5v-71zM366 582 q14 -6 55 -21t91 -15q54 0 94 15t52 21q3 3 5.5 6.5t2.5 8.5q0 37 -12 70.5t-33 57.5q-13 17 -30.5 28t-35.5 17q18 10 30 29.5t12 42.5q0 36 -25 61t-60 25t-60 -25t-25 -60q0 -23 11.5 -42t30.5 -30q-19 -6 -36 -17.5t-30 -27.5v0v0q-20 -25 -31.5 -57.5t-13.5 -70.5 q0 -6 2.5 -10t5.5 -6v0zM512 896q22 0 37.5 -15.5t15.5 -37.5q0 -21 -15.5 -37t-37.5 -16t-37.5 16t-15.5 37q0 22 15.5 37.5t37.5 15.5v0zM427 704q17 20 39 31t46 11t46 -11t39 -31q15 -19 24.5 -44.5t12.5 -54.5q-16 -7 -48.5 -18t-73.5 -11q-38 0 -72 11t-50 18 q3 30 12.5 55t24.5 44v0zM885 466h-746q-15 0 -26.5 -11.5t-11.5 -27.5v-86q1 -16 12 -26.5t26 -10.5h40v-298q0 -15 11.5 -26.5t27.5 -11.5h588q16 0 27.5 11.5t11.5 26.5v298h40q15 0 26.5 11.5t11.5 26.5v87q-1 14 -12 25.5t-26 11.5v0zM890 341q0 -3 -2 -5t-5 -2h-56 q-7 0 -11.5 -4t-4.5 -12v-313q0 -3 -2 -5t-4 -2h-587q-3 0 -5 2t-2 5v315q0 7 -4.5 11.5t-11.5 4.5h-56q-2 0 -4 2t-2 4v87q0 2 2 4t4 2h744q3 0 5 -2t2 -4v-88z" />
</svg>