<svg viewBox="0 0 256 256" xmlns="http://www.w3.org/2000/svg">
  <path transform="scale(1, -1) translate(0, -256)" fill="currentColor" d="M248 44l-31 31q-2 2 -5 2t-5 -2l-8 -8l-21 20l23 23q20 19 27.5 49t1.5 65q-1 5 -6 6q-36 6 -65.5 -1.5t-49.5 -26.5l-22 -23l-21 21l8 8q2 2 2.5 4.5t-2.5 5.5l-30 30q-6 5 -13.5 5t-13.5 -5l-9 -9q-5 -5 -5 -13t5 -14l31 -30q2 -2 5 -2t5 2l8 8l20 -21l-22 -22 q-20 -20 -27.5 -49.5t-1.5 -65.5q0 -5 6 -6q15 -3 29 -3q26 0 48 8t37 23l22 23l21 -21l-8 -8q-2 -2 -2 -5t2 -5l31 -30q5 -6 13 -6t14 6l9 8q5 6 5 14t-5 14zM44 196l-26 26q-1 2 -1 4t1 3l9 9q2 1 3.5 1t3.5 -1l26 -26zM120 191q16 17 41 23.5t56 2.5q4 -31 -2.5 -56 t-23.5 -42l-22 -22l-17 17q6 8 8 17q4 15 -4.5 23.5t-24.5 5.5q-9 -3 -17 -9l-17 17zM105 117q3 10 11.5 18.5t17.5 10.5l5 1q4 0 6.5 -2.5t0.5 -10.5q-3 -10 -11.5 -18t-17 -10.5t-11.5 0.5t-1 11zM136 64q-16 -16 -41 -22.5t-56 -2.5q-4 31 2.5 56t22.5 41l23 23l17 -17 q-10 -11 -12 -22q-4 -15 4 -24q6 -6 16 -6q4 0 8 2q13 3 22 12l17 -17zM238 27l-9 -9q-1 -1 -3 -1t-4 1l-26 26l16 16l26 -26q2 -1 2 -3.5t-2 -3.5z" />
</svg>