<svg viewBox="0 0 1024 1024" xmlns="http://www.w3.org/2000/svg">
  <path transform="scale(1, -1) translate(0, -960)" fill="currentColor" d="M982 102l-123 124q-5 4 -11 4t-11 -4l-40 -40l-98 97l98 98q38 38 65 87q26 49 40.5 106t16.5 122q1 64 -10 134q-1 5 -4.5 9t-8.5 4q-70 11 -135 9q-64 -2 -121.5 -16t-105.5 -41q-49 -26 -88 -64l-97 -97l-98 97l40 40q5 5 5 11.5t-5 11.5l-123 123q-19 20 -46 20.5 t-45 -19.5l-35 -35q-20 -18 -20 -44.5t20 -44.5l123 -124q2 -2 5.5 -3t5.5 -1t5.5 1t5.5 3l40 40l98 -97l-98 -101q-38 -38 -65 -87q-26 -48 -40 -105t-16 -121q-2 -65 9 -135q1 -5 4.5 -9t8.5 -4q30 -5 59.5 -7t57.5 -2q51 0 98 7q47 8 88.5 23.5t78.5 37.5q36 23 66 53 l99 99l98 -97l-40 -40q-5 -5 -5 -11.5t5 -11.5l123 -123q10 -9 21.5 -14t23.5 -5t23.5 5t21.5 14l35 35q20 17 20.5 43.5t-19.5 44.5v0zM176 704l-112 112q-10 10 -10 22.5t10 22.5l35 35q5 5 11 7.5t12 2.5t11.5 -2.5t10.5 -7.5l112 -112zM469 710q35 35 79 59t96.5 37.5 t111.5 15.5t124 -8q9 -64 7 -123q-3 -59 -16 -111t-38 -96q-24 -44 -59 -79l-97 -98l-80 80q-1 1 -2.5 2t-4.5 1q15 17 24.5 36t14.5 38q7 26 2.5 48t-18.5 37q-15 14 -37 18.5t-48 -2.5q-18 -5 -37 -14.5t-37 -24.5q0 2 -1 4t-2 3l-80 80l98 97v0zM458 485q18 18 38 30.5 t40 17.5q5 1 10.5 2t11.5 1q9 0 17 -2.5t15 -8.5q11 -11 11 -27.5t-3 -27.5q-4 -20 -17 -40t-31 -38t-38 -30.5t-40 -17.5q-11 -2 -26.5 -2.5t-27.5 10.5q-11 11 -11 27.5t3 26.5q4 21 17 41t31 38v0zM554 186q-35 -35 -79 -59q-44 -25 -96 -38t-111 -15t-124 8 q-9 64 -7 123q3 59 16 111t37 96t58 79l99 99l80 -80q1 -1 2.5 -1.5t2.5 -1.5q-20 -20 -34 -43.5t-20 -47.5q-8 -26 -3.5 -48t19.5 -37q9 -9 23 -15t31 -6q7 0 14.5 1.5t15.5 3.5q24 6 47.5 20t44.5 35q0 -2 1 -3l2 -2l80 -80zM960 35l-35 -35q-10 -10 -22.5 -10t-22.5 10 l-112 112l80 80l112 -112q10 -10 10 -22.5t-10 -22.5z" />
</svg>