<svg viewBox="0 0 256 256" xmlns="http://www.w3.org/2000/svg">
  <path transform="scale(1, -1) translate(0, -256)" fill="currentColor" d="M128 251q-33 0 -61.5 -16.5t-45 -45t-16.5 -61.5t16.5 -61.5t45 -45t61.5 -16.5t61.5 16.5t45 45t16.5 61.5t-16.5 61.5t-45 45t-61.5 16.5zM128 19q-29 0 -54 14.5t-40 39.5t-15 55t15 54.5t39.5 39.5t54.5 15t55 -15t39.5 -40t14.5 -54.5t-14.5 -54.5t-39.5 -39.5 t-55 -14.5zM98 189q-10 0 -17 -7t-7 -17.5t7 -17.5t17.5 -7t17.5 7t7 17.5t-7.5 17.5t-17.5 7zM98 154q-4 0 -7 3.5t-3 7.5t3 7t7.5 3t7.5 -3t3 -7t-3 -7.5t-8 -3.5zM176 81l-27 17l27 15q3 2 3.5 4.5t-1 5.5t-4 3.5t-5.5 -0.5l-29 -16v18q0 3 -2 5t-5 2t-5 -2t-2 -5v-64 q0 -3 2 -5t5 -2t5 2t2 5v22l29 -18q2 -1 3 -1q4 0 6 3t1.5 6t-3.5 5z" />
</svg>