<svg viewBox="0 0 1024 1024" xmlns="http://www.w3.org/2000/svg">
  <path transform="scale(1, -1) translate(0, -960)" fill="currentColor" d="M843 488q0 1 1 2.5t1 2.5l24 107q1 7 -0.5 15t-6.5 14q-4 6 -11 9.5t-16 3.5h-197q-8 0 -15 -3.5t-12 -9.5t-7 -14t1 -15l24 -107q0 -1 0.5 -2l0.5 -1q-4 -3 -9 -5.5t-10 -4.5q-24 32 -55.5 58t-67.5 44l30 138q2 7 0.5 15t-6.5 14t-12 9.5t-15 3.5h-264q-9 0 -16 -3.5 t-11 -9.5q-5 -6 -7 -14t0 -15l31 -138q-41 -19 -75 -49t-59 -68t-38 -82q-14 -45 -14 -93q0 -44 11.5 -85t33.5 -77q2 -4 5.5 -6t8.5 -2h442v0v0h413q4 0 8 2t6 6q17 29 26 62t9 68q-2 75 -44 137.5t-108 92.5v0zM635 606v2v0l1 1l1 1h197q1 0 1 -0.5v-1.5v-1v-1l-24 -107 q-18 6 -37 9.5t-40 3.5q-20 0 -39 -3.5t-37 -9.5l-23 107v0zM218 725v1v0l0.5 1l0.5 1h264h1.5t0.5 -2v-0.5v-0.5l-27 -133q-26 8 -52 13t-54 5t-54 -5t-52 -13zM64 290q0 60 23 112q22 53 61.5 92.5t92.5 61.5q53 23 113 23t112 -23q53 -22 92.5 -61.5t61.5 -92.5 q23 -52 23 -112q0 -36 -9 -71.5t-26 -66.5h-509q-17 31 -26 66.5t-9 71.5v0zM934 152h-292q15 32 23.5 67t8.5 71q0 44 -12 84.5t-33 76.5q24 13 51.5 20t55.5 7q46 1 87 -16q41 -18 71.5 -48t47.5 -71q18 -41 18 -87q0 -28 -7 -54t-19 -50z" />
</svg>