<svg viewBox="0 0 256 256" xmlns="http://www.w3.org/2000/svg">
  <path transform="scale(1, -1) translate(0, -256)" fill="currentColor" d="M214 140l6 25q1 6 -2.5 10.5t-9.5 4.5h-48q-6 0 -9.5 -4.5t-2.5 -10.5l6 -25q-12 15 -30 23l8 36q2 6 -2 10t-9 4h-66q-5 0 -9 -4t-2 -10l8 -36q-22 -10 -34.5 -30.5t-12.5 -43.5t12 -43q2 -3 6 -3h213q4 0 6 3q9 16 9 34.5t-10 34.5t-27 25zM162 165h44l-5 -21 q-8 3 -17 3t-17 -3zM58 199h60l-6 -31q-12 4 -23.5 4t-23.5 -4zM19 88q0 19 9.5 35t25.5 25.5t34.5 9.5t34.5 -9.5t25.5 -25.5t9.5 -35q0 -16 -8 -31h-124q-7 15 -7 31zM232 57h-67q7 16 7 31q0 21 -10 40q11 5 22 5q22 0 37.5 -15.5t15.5 -37.5q0 -12 -5 -23z" />
</svg>