<svg viewBox="0 0 1024 1024" xmlns="http://www.w3.org/2000/svg">
  <path transform="scale(1, -1) translate(0, -960)" fill="currentColor" d="M750 576l34 248q2 19 -3.5 38.5t-18.5 33.5q-14 14 -32 23t-37 9h-362q-20 0 -37.5 -8t-31.5 -24q-13 -14 -18.5 -33.5t-3.5 -38.5l34 -248q-42 -29 -76 -66q-34 -38 -58 -82.5t-37 -95.5q-13 -50 -13 -105q0 -69 21 -133t63 -120q3 -3 6.5 -4.5t6.5 -1.5h650 q3 0 6.5 1.5t6.5 4.5q42 56 63 120.5t21 132.5q0 55 -13 105q-13 51 -37 95.5t-58 82.5q-34 37 -76 66zM272 829q-1 13 2.5 25t11.5 23q9 8 21 13.5t24 5.5h360q13 0 25 -5.5t20 -15.5q8 -9 12 -22t2 -26l-32 -233q-45 26 -98 40t-110 14q-56 0 -109 -14.5t-99 -39.5zM829 0 h-634q-36 50 -54.5 108t-18.5 119q0 81 30 152q31 71 84 124t124 84t152 31t152 -31t124 -84t84 -124q30 -71 30 -152q0 -61 -18.5 -119t-54.5 -108v0z" />
</svg>