<svg viewBox="0 0 1024 1024" xmlns="http://www.w3.org/2000/svg">
  <path transform="scale(1, -1) translate(0, -960)" fill="currentColor" d="M528 430v482q0 7 -4.5 11.5t-11.5 4.5t-11.5 -4.5t-4.5 -11.5v-40h-118q-8 0 -12 -4.5t-4 -11.5t4 -11.5t12 -4.5h118v-82h-70q-8 0 -12 -4t-4 -12q0 -7 4 -11.5t12 -4.5h70v-81h-150q-8 0 -12 -4.5t-4 -11.5t4 -11.5t12 -4.5h150v-181q-45 -3 -84 -22q-39 -20 -68 -51 t-46 -71q-16 -41 -16 -86q0 -49 18 -92q18 -42 49 -73.5t73 -50.5q42 -18 90 -18t90 18t73 49.5t49 74.5q18 42 18 90q0 46 -16 86q-17 41 -46 72t-68 50t-84 22zM512 0q-41 0 -78 16q-36 15 -62.5 42.5t-42.5 63.5q-15 37 -15 78t15 78q16 36 42.5 62.5t62.5 42.5 q37 15 78 15t78 -15q36 -16 62.5 -43t42.5 -64q15 -36 15 -78q0 -41 -15 -77q-16 -36 -42.5 -63t-62.5 -43q-37 -15 -78 -15z" />
</svg>