<svg viewBox="0 0 256 256" xmlns="http://www.w3.org/2000/svg">
  <path transform="scale(1, -1) translate(0, -256)" fill="currentColor" d="M227 227q-11 12 -26 18t-31.5 6t-31.5 -6t-27 -18q-15 -15 -21 -36.5t0 -42.5l-81 -81q-4 -4 -4 -9v-39q0 -5 4 -9t10 -4h38q6 0 10 4l9 9q5 5 4 11v3l7 1q5 1 8.5 4.5t4.5 7.5v8l4 -1q6 0 10.5 4t4.5 10v5h5q6 0 10 4l14 15q22 -6 43 -0.5t36 21.5q11 11 17.5 26t6.5 32 q0 33 -24 57zM217 121q-13 -13 -31.5 -17.5t-36.5 1.5q-4 1 -7 -1l-18 -18h-12q-3 0 -5 -2t-2 -5v-12l-10 1q-3 0 -5.5 -1.5t-2.5 -4.5l-1 -14l-14 -1q-3 0 -5 -2t-2 -6l1 -10l-9 -9l-39 -1v39l84 84q3 3 2 7q-6 18 -1.5 36.5t17.5 32.5q20 20 48 20q14 0 26.5 -5t21.5 -15 q20 -20 20 -48q1 -14 -4 -26.5t-15 -22.5zM164 203q-8 -8 -8 -19.5t8 -19.5t19 -8t19 8t8.5 19.5t-7.5 19.5t-19.5 8t-19.5 -8zM193 174q-4 -4 -9.5 -4t-9.5 4t-4 9.5t4 9.5t9.5 4t9.5 -4t4 -9.5t-4 -9.5z" />
</svg>