<svg viewBox="0 0 1024 1024" xmlns="http://www.w3.org/2000/svg">
  <path transform="scale(1, -1) translate(0, -960)" fill="currentColor" d="M899 835q-46 46 -104 69q-58 24 -118.5 24t-118.5 -23q-58 -24 -104 -70q-30 -30 -51 -67t-31.5 -77t-9.5 -83q0 -42 12 -83l-329 -330q-6 -6 -9.5 -14t-3.5 -16v-154q0 -18 12.5 -30.5t30.5 -12.5h154q8 0 16 3.5t14 9.5l39 38q7 7 10.5 16.5t1.5 18.5l-3 26l42 3 q15 1 26 12t12 27l3 41l26 -3q10 -1 18 1.5t16 9.5q7 6 10.5 14.5t3.5 17.5v35h34q8 0 16 3.5t14 9.5l62 63q42 -12 84 -13t81.5 9t76.5 30t67 50q46 47 70 105q23 58 23 118.5t-23 118.5q-24 58 -70 103zM877 413q-55 -55 -132 -73t-153 6q-5 1 -8.5 0t-7.5 -4l-70 -68 q-2 -2 -4 -3t-4 -1h-50q-7 0 -11.5 -4t-4.5 -12v-51q0 -2 -1 -4.5t-2 -3.5q-3 -1 -4.5 -2t-3.5 -1l-42 5q-3 0 -6 -0.5t-5 -2.5q-2 -3 -3.5 -5.5t-2.5 -6.5l-5 -57q0 -4 -3 -7t-7 -3l-59 -5q-4 0 -6.5 -2t-4.5 -4q-3 -2 -3 -5.5v-5.5l4 -42v-4.5t-3 -4.5l-38 -39 q-1 -1 -3.5 -2t-4.5 -1h-154q-5 0 -8 3t-3 8v154q0 2 1 4.5t2 3.5l336 337q4 4 5 8.5t-2 7.5q-25 77 -6 154t75 134q41 41 93.5 62.5t106.5 21.5t106.5 -21t93.5 -63q42 -42 63 -94q21 -53 21.5 -107t-20.5 -107q-21 -52 -62 -93v0zM664 739q-29 -29 -29 -69t29 -68 q14 -15 32.5 -22t36.5 -7t36 7t33 22q28 28 28 68t-28 69q-28 28 -68.5 28t-69.5 -28v0zM779 624q-19 -19 -46 -19t-47 19q-19 19 -19 46.5t19 46.5q10 9 22 14t25 5q12 0 24.5 -5t21.5 -14q19 -21 19 -47.5t-19 -45.5z" />
</svg>