<svg viewBox="0 0 1024 1024" xmlns="http://www.w3.org/2000/svg">
  <path transform="scale(1, -1) translate(0, -960)" fill="currentColor" d="M528 430v482q0 7 -4.5 11.5t-11.5 4.5t-11.5 -4.5t-4.5 -11.5v-93h-136q-7 0 -11.5 -4.5t-4.5 -11.5t4.5 -11.5t11.5 -4.5h136v-357q-45 -3 -84 -22q-40 -19 -69 -50t-46 -72q-17 -40 -17 -86q0 -48 18 -90t49.5 -73.5t74.5 -50.5q42 -18 90 -18t90 18t73.5 49.5 t50.5 74.5q18 42 18 90q0 46 -17 86q-17 41 -46 72t-69 50q-39 19 -84 22zM512 0q-41 0 -78 16q-36 15 -63.5 42.5t-42.5 63.5q-16 37 -16 78t16 78q15 36 42.5 62.5t63.5 42.5q37 15 78 15t78 -15q36 -16 63.5 -43t42.5 -64q16 -36 16 -78q0 -41 -16 -77q-15 -36 -42.5 -63 t-63.5 -43q-37 -15 -78 -15z" />
</svg>