<svg viewBox="0 0 1024 1024" xmlns="http://www.w3.org/2000/svg">
  <path transform="scale(1, -1) translate(0, -960)" fill="currentColor" d="M970 126l-13 13l11 11q19 20 19 48t-19 47q-10 9 -22 14t-26 5t-26 -5t-22 -14l-11 -11l-69 70l11 11q10 10 14.5 22t4.5 26q0 15 -4.5 27t-14.5 21l-1 2q-20 19 -48 19t-47 -19l-11 -13l-106 106l-0.5 0.5l-0.5 0.5l-8 7v211q0 39 -15.5 76t-43.5 65t-65 43.5t-76 15.5 q-70 0 -124 -43.5t-70 -110.5q-27 -6 -51 -19.5t-43 -33.5q-27 -26 -42 -60t-17 -72q-2 -40 12 -76.5t42 -66.5q30 -31 70 -48t84 -17h209l18 -16l368 -368q11 -11 24.5 -17t28.5 -6q14 0 28 6t24 17l26 25q24 22 24 53.5t-22 53.5v0zM110 466q-24 25 -35.5 55.5t-10.5 62.5 q1 31 14 60t36 50q18 18 40 30t48 17q4 1 7.5 4.5t4.5 8.5q11 60 57.5 98.5t107.5 38.5q34 0 65 -12.5t54 -36.5q24 -24 36.5 -54.5t12.5 -64.5v-283q0 -13 -9.5 -22.5t-22.5 -9.5h-273q-38 1 -72 16t-60 42v0zM947 42l-25 -26q-12 -12 -30.5 -12t-30.5 12l-363 362h17 q27 0 45.5 18.5t18.5 45.5v28l106 -105q5 -5 11 -5t11 5l23 22q9 10 23.5 10t25.5 -10l2 -1q5 -5 7 -11.5t2 -12.5t-2 -13t-7 -11l-23 -23q-4 -5 -4 -11t4 -11l93 -93q5 -5 11.5 -5t11.5 5l22 22q10 10 25 10t25 -10q9 -9 9 -23.5t-9 -25.5l-23 -23q-5 -4 -5 -10.5t5 -11.5 l24 -24q13 -13 13 -31t-13 -31v0z" />
</svg>