<svg viewBox="0 0 1024 1024" xmlns="http://www.w3.org/2000/svg">
  <path transform="scale(1, -1) translate(0, -960)" fill="currentColor" d="M962 245l-189 190q-31 30 -72 30t-71 -30l-40 -40l-425 442q0 1 -1 1.5t-1 1.5h-0.5t-0.5 2l-79 81q-5 5 -11 5t-11 -5t-5 -11t5 -11l70 -74l-93 -97q-4 -5 -4 -11.5t4 -11.5q2 -2 5 -3.5t5 -1.5q4 0 6.5 1.5t4.5 3.5l93 98l123 -128l-131 -138q-5 -5 -5 -11t5 -11 q2 -3 5.5 -4t5.5 -1q4 0 6.5 1t4.5 4l130 136l269 -282l-40 -40q-30 -31 -30 -71.5t30 -70.5l189 -191q15 -14 33.5 -22t38.5 -8q19 0 37.5 7.5t34.5 22.5l104 103q14 14 22 32.5t8 39.5q0 20 -8 38.5t-22 33.5v0zM939 123l-104 -102q-20 -21 -48.5 -21t-48.5 21l-189 190 q-21 21 -21 48.5t21 49.5l49 49v0v0v0v0l52 52q10 10 22 15t26 5q13 0 25.5 -5t23.5 -15l189 -191q10 -9 15.5 -22t5.5 -27q0 -15 -4 -26t-14 -21v0z" />
</svg>