<svg viewBox="0 0 256 256" xmlns="http://www.w3.org/2000/svg">
  <path transform="scale(1, -1) translate(0, -256)" fill="currentColor" d="M251 161l-21 68q-1 3 -4 5l-66 17q-3 1 -6 -2l-48 -47l-2 -4l-5 -38l-90 -89q-4 -5 -4 -10v-42q0 -6 4 -10t10 -4h42q6 0 10 4l10 10q1 1 2 3l7 20l21 8q3 1 4 4l7 21l18 5l4 2l17 16l36 6q3 1 3 2l48 48q4 3 3 7zM193 118l-36 -6q-3 0 -3 -2l-18 -17l-20 -5q-4 -2 -5 -5 l-7 -21l-22 -7q-3 -1 -4 -5l-7 -22l-10 -9h-42v1v41l91 91q1 1 2 4l5 38l44 42l57 -15l18 -60zM155 192q-8 -8 -8 -18.5t7.5 -18t19 -7.5t18.5 7.5t7 18t-7.5 18.5t-18.5 8t-18 -8zM182 165q-4 -3 -9 -3t-8.5 3.5t-3.5 8.5t3.5 8.5t9 3.5t9 -4t3.5 -8.5t-4 -8.5z" />
</svg>