<svg viewBox="0 0 256 256" xmlns="http://www.w3.org/2000/svg">
  <path transform="scale(1, -1) translate(0, -256)" fill="currentColor" d="M245 50l-1 1v1q6 5 6 13.5t-5.5 14t-14 5.5t-14.5 -5v-1l-14 13l1 1q5 5 5 13.5t-5 14.5h-1q-5 6 -13.5 6t-14.5 -6v-1l-26 26v51q0 11 -4.5 20.5t-11.5 16.5q-16 16 -38 16q-18 0 -32 -11t-19 -28q-13 -3 -23 -13q-14 -14 -16 -36q0 -10 3.5 -20t11.5 -18t18.5 -12.5 t22.5 -4.5h53q1 -3 2 -3l92 -92q6 -7 15 -7t16 7l6 6q7 7 7 16t-6 16zM30 134q-12 12 -11 28t11 26q9 8 21 11q2 0 3.5 1.5t1.5 3.5q3 14 13.5 23t25.5 9q16 0 27.5 -11.5t11.5 -27.5v-71q0 -2 -1.5 -3t-3.5 -1h-69q-8 0 -16 3t-14 9zM235 28l-7 -6q-2 -2 -5 -2t-6 2l-85 86 q7 1 11.5 6t4.5 12l21 -21q2 -2 5 -2t5 2l6 6q1 1 3.5 1t4.5 -1v-1q2 -1 2 -3.5t-2 -4.5l-5 -5q-2 -2 -2.5 -5t2.5 -5l23 -23q2 -2 5 -2t5 2l5 5q2 2 4.5 2t4 -1.5t1.5 -4t-2 -4.5l-5 -5q-2 -3 -2 -5.5t2 -4.5l6 -6q2 -3 2 -6t-2 -6z" />
</svg>