<svg viewBox="0 0 256 256" xmlns="http://www.w3.org/2000/svg">
  <path transform="scale(1, -1) translate(0, -256)" fill="currentColor" d="M243 79l-48 48q-8 8 -19.5 8t-20.5 -8l-8 -8l-124 130q-2 2 -5 2t-5 -2t-2 -5t2 -5l15 -16l-21 -23q-2 -2 -2 -4.5t2.5 -5t5 -2.5t5.5 2l20 22l27 -27l-31 -32q-2 -2 -2 -5t2 -5t5 -2t5 2l31 31l63 -66l-8 -8q-8 -8 -8 -19.5t8 -20.5l47 -48q9 -8 20.5 -8t19.5 8l26 26 q9 8 9 20q0 6 -2.5 11.5t-6.5 9.5zM233 49l-26 -25q-4 -5 -10 -5t-11 5l-47 47q-4 4 -4 10t4 10l26 25q5 5 10.5 5t9.5 -5l47 -47q5 -5 5 -10.5t-4 -9.5z" />
</svg>