<svg viewBox="0 0 256 256" xmlns="http://www.w3.org/2000/svg">
  <path transform="scale(1, -1) translate(0, -256)" fill="currentColor" d="M228 209h-200q-10 0 -16.5 -7t-6.5 -16v-116q0 -10 6.5 -16.5t16.5 -6.5h200q10 0 16.5 6.5t6.5 16.5v116q0 9 -6.5 16t-16.5 7zM237 70q0 -4 -2.5 -6.5t-6.5 -2.5h-200q-4 0 -6.5 2.5t-2.5 6.5v116q0 4 2.5 6.5t6.5 2.5h200q4 0 6.5 -2.5t2.5 -6.5v-116zM92 149q4 0 4 4 v13q0 4 -4 4h-13q-4 0 -4 -4v-13q0 -4 4 -4h13zM96 122q0 -4 4 -4h14q4 0 4 4v13q0 4 -4 4h-14q-4 0 -4 -4v-13zM138 122q0 -4 4 -4h14q4 0 4 4v13q0 4 -4 4h-14q-4 0 -4 -4v-13zM122 149h13q4 0 4 4v13q0 4 -4 4h-13q-4 0 -4 -4v-13q0 -4 4 -4zM177 170h-13q-4 0 -4 -4v-13 q0 -4 4 -4h13q4 0 4 4v13q0 2 -1.5 3t-2.5 1zM170 97h-84q-3 0 -5 -2t-2 -5t2 -5t5 -2h84q3 0 5.5 2t2.5 5t-2.5 5t-5.5 2z" />
</svg>