<svg viewBox="0 0 1024 1024" xmlns="http://www.w3.org/2000/svg">
  <path transform="scale(1, -1) translate(0, -960)" fill="currentColor" d="M912 760h-800q-34 0 -57 -23t-23 -57v-462q0 -34 23 -57t57 -23h800q34 0 57 23t23 57v462q0 32 -23 56t-57 24zM960 216q0 -20 -14 -34t-34 -14h-800q-20 0 -34 14t-14 34v464q0 20 14 34t34 14h800q20 0 34 -14t14 -34v-464zM386 549v53q0 7 -4.5 11.5t-11.5 4.5h-53 q-7 0 -11.5 -4.5t-4.5 -11.5v-53q0 -7 4.5 -11.5t11.5 -4.5h53q6 0 11 4.5t5 11.5zM386 422q0 -7 4 -11.5t12 -4.5h52q8 0 12 4.5t4 11.5v53q0 7 -4 11.5t-12 4.5h-52q-8 0 -12 -4.5t-4 -11.5v-53zM554 422q0 -7 4 -11.5t12 -4.5h52q8 0 12 4.5t4 11.5v53q0 7 -4 11.5 t-12 4.5h-52q-8 0 -12 -4.5t-4 -11.5v-53zM486 533h53q7 0 11.5 4.5t4.5 11.5v53q0 7 -4.5 11.5t-11.5 4.5h-53q-7 0 -11.5 -4.5t-4.5 -11.5v-53q0 -7 4.5 -11.5t11.5 -4.5v0zM707 616h-53q-7 0 -11.5 -4.5t-4.5 -11.5v-53q0 -7 4.5 -11.5t11.5 -4.5h53q7 0 11.5 4.5 t4.5 11.5v53q0 7 -5 11.5t-11 4.5zM680 312h-336q-7 0 -11.5 -4.5t-4.5 -11.5t4.5 -11.5t11.5 -4.5h338q7 0 11.5 4.5t4.5 11.5t-5.5 11.5t-12.5 4.5z" />
</svg>