<svg viewBox="0 0 1024 1024" xmlns="http://www.w3.org/2000/svg">
  <path transform="scale(1, -1) translate(0, -960)" fill="currentColor" d="M978 120l-223 221q-18 18 -45 18t-46 -18l-13 -13l-115 115q40 43 59 96t18 107.5t-22 106.5q-22 52 -63 93q-43 43 -97 64q-54 22 -110.5 22t-110.5 -22q-54 -21 -96 -64q-43 -42 -64 -96q-22 -54 -22 -110.5t22 -110.5q21 -54 64 -97t97 -64.5t111 -21.5q52 0 102.5 19 t92.5 56l115 -115l-13 -13q-9 -10 -14 -21.5t-5 -23.5q0 -13 5 -24.5t14 -20.5l223 -222q9 -10 20.5 -14.5t23.5 -4.5q14 0 25.5 4.5t19.5 14.5l47 46q9 10 14 21.5t5 23.5t-5 25t-14 23v0zM136 454q-38 39 -58 87q-19 48 -19 98t19 98q20 49 58 87t86.5 57.5t97.5 19.5 t98 -19.5t86 -57.5q38 -38 58 -87q19 -48 19 -98t-19 -98q-20 -48 -58 -87q-38 -37 -86 -56q-47 -19 -97 -19t-98 19q-49 19 -87 56zM955 51l-46 -46q-10 -10 -23.5 -10t-21.5 10l-222 222q-5 5 -7.5 11t-2.5 12t2.5 11.5t7.5 10.5l46 46q5 5 10.5 7.5t11.5 2.5t12 -2.5 t11 -7.5l222 -222q5 -5 7.5 -10.5t2.5 -11.5t-2.5 -12t-7.5 -11zM237 683h81q8 0 12 4.5t4 11.5t-4 11.5t-12 4.5h-81q-7 0 -11.5 -4.5t-4.5 -11.5t5 -11.5t11 -4.5v0zM408 592h-171q-7 0 -11.5 -4.5t-4.5 -11.5t4.5 -11.5t11.5 -4.5h171q7 0 11.5 4.5t4.5 11.5t-5 11.5 t-11 4.5z" />
</svg>