<svg viewBox="0 0 256 256" xmlns="http://www.w3.org/2000/svg">
  <path transform="scale(1, -1) translate(0, -256)" fill="currentColor" d="M216 232q-11 8 -24 8q-16 0 -28 -13t-12 -31q-1 -14 6 -27q-4 -7 -6 -16l-24 -26l-24 26q-2 9 -6 16q7 12 7 27q-1 19 -13 31.5t-28 12.5q-13 0 -24 -8q-19 -14 -28 -47q-8 -28 -7 -59q2 -26 11 -45t24 -28q10 -6 21 -6q18 0 30 12.5t13 30.5q1 16 -7 28l3 6q2 4 3 9 l17 -19v-91q0 -3 2.5 -5t5.5 -2t5 2t2 5v91l17 19l1 -1q1 -6 3 -8l2 -6q-7 -12 -7 -28q1 -18 13.5 -30.5t29.5 -12.5q11 0 22 6q15 9 24 28t10 45q2 30 -6 59q-9 33 -28 47zM91 91q-1 -12 -9 -20.5t-20 -8.5q-8 0 -14 4q-13 7 -20 22.5t-8 37.5q-2 27 5 54q8 29 24 41 q6 5 15 5q11 0 18.5 -9t8 -21.5t-6.5 -22.5q-2 -2 -2 -4t2 -4q4 -6 6 -15q1 -15 -2 -20v-1q-3 -5 -4.5 -6.5t-1.5 -4t2 -4.5q7 -10 7 -23zM237 126q-2 -22 -9 -38t-19 -22q-8 -4 -15 -4q-12 0 -20 8.5t-8.5 21.5t7.5 22q1 2 1 4.5t-2 5.5t-3 6l-1 1q-3 5 -2 20q1 7 6 15 q2 1 2 3.5t-2 4.5q-6 9 -6 22t8 22t18 9q8 0 15 -5q16 -13 24 -42q7 -26 6 -54z" />
</svg>