<svg viewBox="0 0 1024 1024" xmlns="http://www.w3.org/2000/svg">
  <path transform="scale(1, -1) translate(0, -960)" fill="currentColor" d="M854 854q-19 15 -41 23t-45 8q-62 0 -106.5 -48.5t-45.5 -118.5q-1 -28 6.5 -55t22.5 -50q-10 -16 -17 -33.5t-10 -37.5l-106 -115l-107 117v0v0q-4 18 -10.5 35.5t-16.5 33.5q14 23 22 50t6 55q-1 70 -45 118.5t-107 48.5q-22 0 -44.5 -7.5t-41.5 -23.5q-38 -28 -65 -76 t-44 -104.5t-23 -118.5q-7 -61 -4 -117q7 -100 42 -172t92 -106q18 -11 39 -16.5t41 -5.5q66 0 112 46t48 115q2 30 -6 59t-24 53q4 6 7.5 12.5t6.5 13.5q8 13 11.5 29t4.5 30l92 -98v-371q0 -7 4 -11.5t12 -4.5q7 0 11.5 4.5t4.5 11.5v371l91 98q1 -16 4 -31.5t12 -27.5 q3 -7 7 -13.5t7 -12.5q-17 -24 -24 -52.5t-6 -59.5q2 -68 48 -114.5t112 -46.5q20 0 40.5 5.5t39.5 16.5q29 17 53 44q23 26 40 61.5t28 79.5q10 44 13 95q2 55 -6 116q-7 61 -24.5 118t-44.5 105q-28 47 -66 75v0zM374 301q-2 -55 -38.5 -93t-89.5 -38q-16 0 -32 4.5 t-32 12.5q-51 30 -81.5 95.5t-36.5 157.5q-3 53 3 110q6 58 21.5 111.5t39.5 97.5q25 44 59 70q16 12 32.5 18t34.5 6q50 0 84.5 -39t35.5 -96q2 -26 -6 -50.5t-22 -43.5q-4 -5 -4 -9.5t4 -9.5q10 -15 17 -30.5t10 -33.5q1 -13 0.5 -42t-10.5 -46v-1t-1 -1q-4 -8 -8.5 -15.5 t-9.5 -14.5q-4 -5 -4 -10.5t4 -8.5q16 -22 24 -48t6 -53v0zM958 440q-6 -92 -36 -157.5t-82 -95.5q-14 -8 -30.5 -12.5t-33.5 -4.5q-53 0 -89.5 37t-38.5 94q-1 27 7 53t23 48q4 4 4 9.5t-4 9.5q-4 7 -9 14.5t-8 15.5l-0.5 1t-1.5 1q-11 18 -11.5 47t0.5 41q2 18 9 34.5 t18 29.5q4 5 4 9.5t-4 9.5q-14 20 -22 44.5t-7 49.5q2 57 36.5 96t83.5 39q18 0 35 -6t33 -18q35 -26 60 -70q26 -44 41 -97.5t21 -111.5q6 -57 2 -110z" />
</svg>