<svg viewBox="0 0 256 256" xmlns="http://www.w3.org/2000/svg">
  <path transform="scale(1, -1) translate(0, -256)" fill="currentColor" d="M144 104q-3 0 -5.5 -2.5t-2.5 -5.5t2.5 -5t5 -2t4 -1t1.5 -2.5t-1.5 -2.5t-4 -1t-5 -2t-2.5 -5t2.5 -5t5 -2t4 -1.5t1.5 -2.5t-1.5 -2.5t-4 -1.5t-5 -2t-2.5 -5t2.5 -5t5.5 -2q8 0 13.5 5t5.5 11.5t-4 11.5q4 5 4 10q0 9 -5.5 14.5t-13.5 5.5zM128 251q-33 0 -61.5 -16.5 t-45 -45t-16.5 -61.5t16.5 -61.5t45 -45t61.5 -16.5t61.5 16.5t45 45t16.5 61.5t-16.5 61.5t-45 45t-61.5 16.5zM128 19q-30 0 -55 14.5t-39.5 39.5t-14.5 54.5t14.5 54.5t39.5 40t55 15t55 -15t39.5 -40t14.5 -54.5t-14.5 -54.5t-39.5 -39.5t-55 -14.5zM86 179q-6 0 -10 -4 t-4 -10t4 -10t9.5 -4t10 4t4.5 10t-4 10t-10 4zM170 179q-5 0 -9.5 -4t-4.5 -10t4.5 -10t10 -4t9.5 4t4 10t-4 10t-10 4z" />
</svg>