<svg viewBox="0 0 1024 1024" xmlns="http://www.w3.org/2000/svg">
  <path transform="scale(1, -1) translate(0, -960)" fill="currentColor" d="M642 280q0 24 -20 41t-48 17q-7 0 -11.5 -4.5t-4.5 -11.5q0 -8 4.5 -12t11.5 -4q15 0 25.5 -7.5t10.5 -18.5t-10.5 -18.5t-25.5 -7.5q-7 0 -11.5 -4t-4.5 -12q0 -7 4.5 -11.5t11.5 -4.5q15 0 25.5 -7t10.5 -18t-10.5 -18.5t-25.5 -7.5q-7 0 -11.5 -4.5t-4.5 -11.5 t4.5 -11.5t11.5 -4.5q28 0 48 17t20 41q0 12 -6 23t-15 18q8 8 14.5 19t6.5 23zM512 928q-99 0 -186 -38q-88 -38 -153 -103t-103 -153q-38 -87 -38 -186t38 -186q38 -88 103 -153t153 -103q87 -38 186 -38t186 38q88 38 153 103t103 153q38 87 38 186t-38 186 q-38 88 -103 153t-153 103q-87 38 -186 38zM512 0q-92 0 -174 35q-81 36 -142 97t-97 142q-35 82 -35 174t35 174q36 81 96.5 142t142.5 97q82 35 174 35t174 -35q81 -36 142 -96.5t97 -142.5q35 -82 35 -174t-35 -174q-36 -81 -96.5 -142t-142.5 -97q-82 -35 -174 -35z M342 651q-22 0 -39 -16.5t-17 -39.5t17 -39.5t39 -16.5q23 0 39.5 16.5t16.5 39.5t-16 39.5t-40 16.5zM682 651q-23 0 -39.5 -16.5t-16.5 -39.5t16.5 -39.5t39.5 -16.5q22 0 39 16.5t17 39.5t-17 39.5t-39 16.5z" />
</svg>