<svg viewBox="0 0 256 256" xmlns="http://www.w3.org/2000/svg">
  <path transform="scale(1, -1) translate(0, -256)" fill="currentColor" d="M175 187q-14 0 -23.5 -11t-9.5 -27q0 -3 2 -5t5 -2t5 2t2 5q0 10 6 17t14 7t13.5 -7t5.5 -17q0 -3 2 -5t5 -2t5.5 2t2.5 5q-1 16 -11 27t-24 11zM81 187q-14 0 -24 -11t-10 -27q0 -3 2 -5t5 -2t5.5 2t2.5 5q0 10 5.5 17t13.5 7t14 -7t6 -17q0 -3 2 -5t5 -2t5 2t2 5 q0 16 -10 27t-24 11zM144 104q-3 0 -5.5 -2.5t-2.5 -5.5t2.5 -5t5 -2t4 -1t1.5 -2.5t-1.5 -2.5t-4 -1t-5 -2t-2.5 -5t2.5 -5t5 -2t4 -1.5t1.5 -2.5t-1.5 -2.5t-4 -1.5t-5 -2t-2.5 -5t2.5 -5t5.5 -2q8 0 13.5 5t5.5 11.5t-4 11.5q4 5 4 10q0 9 -5.5 14.5t-13.5 5.5zM128 251 q-33 0 -61.5 -16.5t-45 -45t-16.5 -61.5t16.5 -61.5t45 -45t61.5 -16.5t61.5 16.5t45 45t16.5 61.5t-16.5 61.5t-45 45t-61.5 16.5zM128 19q-30 0 -55 14.5t-39.5 39.5t-14.5 54.5t14.5 54.5t39.5 40t55 15t55 -15t39.5 -40t14.5 -54.5t-14.5 -54.5t-39.5 -39.5t-55 -14.5z " />
</svg>