<svg viewBox="0 0 1024 1024" xmlns="http://www.w3.org/2000/svg">
  <path transform="scale(1, -1) translate(0, -960)" fill="currentColor" d="M992 451q0 3 -2 11t-11 16q-6 6 -13 9t-16 3v0v0h-0.5h-0.5l-3.5 2t-9.5 9q-7 7 -18.5 23t-16.5 23q-1 1 -15.5 23t-27.5 40q-16 20 -41 43t-49 35t-45.5 15t-39.5 3q-27 0 -55.5 -7t-54.5 -19q-21 -10 -36 -22.5t-25 -22.5q-6 6 -12 11.5t-6 6.5q-18 15 -41 27t-48 19 q-1 0 -33 6.5t-68 0.5q-32 -6 -52 -18t-34 -22l-4 -4q-15 -12 -33 -34l-18 -22q-2 -3 -15 -22t-17 -24l-21 -32l-7.5 -10.5t-16.5 -19.5q-4 -5 -7 -6t-4 -2h-1.5h-1.5q-14 -3 -22 -9t-12 -12q-7 -12 -5.5 -24t2.5 -15q16 -40 45 -72q28 -31 55.5 -53.5t48.5 -34.5 q22 -13 24 -14q67 -34 143.5 -50.5t158.5 -16.5q23 0 46 1t46 4q3 0 5.5 0.5t3.5 0.5q17 1 49 8t34 7t24 6t44 14q14 5 23.5 10t19.5 10q5 2 10 4.5t11 4.5q19 9 41.5 25.5l22.5 16.5q9 7 24.5 21.5t16.5 16.5q6 5 15.5 17.5t11.5 14.5q5 5 11.5 16t8.5 13q3 7 8 16.5t6 9.5 q1 10 0.5 17.5l-0.5 7.5v0zM958 442q-1 -4 -5 -12t-7 -12q-4 -6 -9 -14t-7 -12q-5 -7 -13.5 -17t-12.5 -13q-7 -8 -19 -19.5t-19 -16.5l-21.5 -15.5t-38.5 -22.5q-6 -2 -11 -4.5t-9 -5.5l-18 -8t-21 -9q-20 -7 -42 -13l-22 -6q-12 -3 -38.5 -8.5t-38.5 -6.5h-4t-7 -1 q-52 -6 -102 -5q-49 1 -96 8.5t-91 21.5q-44 13 -85 34q-1 0 -64 43t-93 114q0 1 -0.5 4.5t0.5 4.5q1 3 4 4t6 1q4 0 12.5 3t19.5 13q10 11 19 22.5t9 12.5l20 29q8 12 19 28t13 18q6 8 20.5 25.5t25.5 24.5l3 3q12 10 29 19.5t43 14.5q30 5 58.5 0t29.5 -7q22 -4 41 -14.5 t34 -23.5q4 -4 13 -12t13 -15q2 -4 5.5 -5.5t7.5 -1.5q3 0 6.5 2t6.5 5l16.5 18.5t43.5 32.5q30 14 55.5 18t42.5 4q18 0 35 -2t35 -12q20 -10 42 -29.5t34 -36.5q13 -18 28 -39l15 -21q1 -2 14 -21.5t24 -30.5q11 -10 17.5 -14t11.5 -5q1 0 4 -0.5t6 -0.5q2 0 3.5 -1 l4.5 -3q2 -2 2.5 -4l0.5 -2q2 1 2.5 -1t-1.5 -5v0z" />
</svg>