<svg viewBox="0 0 256 256" xmlns="http://www.w3.org/2000/svg">
  <path transform="scale(1, -1) translate(0, -256)" fill="currentColor" d="M251 130q0 4 -4 7.5t-9 4.5l-2 2q-4 4 -9 11l-11 16q-4 5 -10.5 11t-12.5 9q-10 5 -22 5h-1q-14 0 -29 -7q-7 -4 -14 -10l-3 2q-10 9 -23 12h-1q-15 4 -26.5 2t-21.5 -11l-1 -1q-4 -3 -9 -8.5t-5 -6.5l-13 -19q-2 -3 -6 -7q-1 0 -1 -1v0q-7 -1 -11 -6q-2 -4 -2 -7t1 -5v0 q6 -17 24 -31q9 -8 20 -14v0q35 -18 77 -18q11 0 23 2h2q5 0 20 4h2q1 0 17 5l15 7q5 2 14 9l3 2q3 2 10 9l5 6l7 10l4 8q4 4 3 8zM234 122q-3 -5 -4 -6q-4 -6 -6 -7l-5 -5l-4 -3q-8 -7 -14 -10l-5 -3q-5 -2 -10.5 -4t-15.5 -5v0q-12 -3 -18 -3l-3 -1q-52 -5 -92 15 q-1 0 -8 4q-9 6 -16 13q-10 10 -14 20q5 0 10 5q3 2 7 8l8 12l10 13q4 5 6 6l1 1q8 6 16 7.5t20 -0.5h1q10 -3 18 -9q3 -3 5.5 -6.5t6 -3.5t5.5 3l4 5q5 4 10 7q12 5 23 5v0q10 0 16 -3q5 -2 10 -6.5t8 -8.5l13 -18q5 -8 8 -11q5 -5 8 -5l3 -1q0 -2 -2 -5z" />
</svg>