<svg viewBox="0 0 1024 1024" xmlns="http://www.w3.org/2000/svg">
  <path transform="scale(1, -1) translate(0, -960)" fill="currentColor" d="M486 474q6 1 12.5 3.5t13.5 5.5q6 -3 13 -5t13 -4t11 -2h11q46 0 83 38t59 108q16 49 12.5 91.5t-26.5 71.5q-17 21 -43 31.5t-56 8.5q-15 -1 -29 -4.5t-27 -8.5q-5 30 -20.5 59.5t-40.5 57.5q-6 2 -12.5 2t-11.5 -4q-5 -5 -5 -11t5 -11q22 -23 34 -47t17 -48 q-15 5 -31 8.5t-30 4.5q-31 3 -56.5 -7.5t-42.5 -32.5q-23 -29 -26.5 -71.5t12.5 -91.5q24 -78 67 -115.5t94 -26.5zM362 760q12 16 30.5 23t41.5 6q16 -1 39 -7t36 -12q3 -2 7 -2t7 2l15 6q12 6 25 9t27 4q23 2 41.5 -5t30.5 -22q18 -22 20.5 -57t-10.5 -76q-8 -24 -39 -79 t-87 -43q-6 1 -12 3.5t-12 6.5q-3 1 -4.5 1h-3.5h-4.5t-3.5 -1q-8 -4 -14 -6.5t-10 -3.5q-58 -12 -89 43t-39 79q-14 39 -11.5 73.5t19.5 57.5zM976 235h-91v202h91q7 0 11.5 4.5t4.5 11.5t-4.5 11.5t-11.5 4.5h-811q-55 0 -94 -39.5t-39 -93.5q0 -38 19.5 -69t50.5 -48 q-31 -17 -50.5 -48t-19.5 -69q0 -55 39 -93.5t94 -38.5h726q7 0 11.5 4t4.5 12q0 7 -4.5 11.5t-11.5 4.5h-109v201h194q7 0 11.5 4.5t4.5 11.5t-4.5 11.5t-11.5 4.5v0zM64 336q0 42 29.5 71.5t71.5 29.5h688v-202h-688q-42 0 -71.5 29.5t-29.5 71.5v0zM750 2h-585 q-42 0 -71.5 29t-29.5 71t29.5 71.5t71.5 29.5h585v-201v0z" />
</svg>