<svg viewBox="0 0 256 256" xmlns="http://www.w3.org/2000/svg">
  <path transform="scale(1, -1) translate(0, -256)" fill="currentColor" d="M244 78h-20v44h20q3 0 5 2t2 5t-2 5t-5 2h-88q15 9 22 33q4 13 3 24.5t-7 19.5q-10 12 -28 11q-6 -1 -12 -3q-3 15 -15 27q-2 2 -5 2.5t-5 -1.5t-2 -5t2 -5q8 -9 11 -17q-4 1 -10 1l-1 1q-9 0 -16 -3t-12 -9q-6 -7 -7 -18.5t3 -24.5q8 -23 22 -33h-58q-15 0 -25.5 -11 t-10.5 -26q0 -9 4 -16.5t11 -12.5q-7 -5 -11 -12.5t-4 -16.5q0 -15 10.5 -26t25.5 -11h182q3 0 5 2.5t2 5.5t-2 5t-5 2h-25v45h46q3 0 5 2t2 5t-2 5t-5 2zM91 174q-3 9 -2.5 17t4.5 13q5 7 15 6q4 0 9.5 -1.5t8.5 -3t6 -0.5l4 2q5 2 12 3q10 1 16 -6q8 -10 2 -30 q-4 -11 -9 -18q-9 -12 -20 -10q-2 0 -5 2h-4q-2 0 -3 -1l-5 -2q-11 -2 -20 10q-5 8 -9 19zM19 100q0 9 6.5 15.5t16.5 6.5h169v-44h-170q-9 0 -15.5 6.5t-6.5 15.5zM184 19h-143q-9 0 -15.5 6.5t-6.5 16t6.5 16t15.5 6.5h143v-45z" />
</svg>