<svg viewBox="0 0 256 256" xmlns="http://www.w3.org/2000/svg">
  <path transform="scale(1, -1) translate(0, -256)" fill="currentColor" d="M251 189q0 22 -15.5 37.5t-37.5 15.5q-17 0 -31 -10.5t-19 -27.5q-11 2 -20 2t-20 -2q-4 17 -18.5 27.5t-31.5 10.5q-22 0 -37.5 -15.5t-15.5 -37.5q0 -16 9 -29t23 -19q-5 -15 -5 -31q0 -26 13 -48t35 -35t48 -13t48 13t35 35t13 48q0 16 -5 30q15 7 23.5 20t8.5 29z M19 189q0 16 11.5 27.5t27.5 11.5q13 0 23.5 -7.5t13.5 -20.5q-17 -6 -30.5 -18t-22.5 -28q-10 4 -16.5 13.5t-6.5 21.5zM128 28q-22 0 -41 11t-30 30t-11 41t11 41t30 30t41 11t41 -11t30 -30t11 -41t-11 -41t-30 -30t-41 -11zM214 154q-9 16 -22.5 28t-30.5 18 q3 13 13.5 20.5t23.5 7.5q16 0 27.5 -11.5t11.5 -27.5q0 -12 -6.5 -21.5t-16.5 -13.5zM132 128h-8q-7 0 -12.5 -5.5t-5.5 -13.5v-42q0 -8 5.5 -13.5t12.5 -5.5h8q8 0 13.5 5.5t5.5 13.5v42q0 8 -5.5 13.5t-13.5 5.5zM137 67q0 -2 -1.5 -3.5t-3.5 -1.5h-8q-1 0 -2.5 1.5 t-1.5 3.5v42q0 2 1 3.5t3 1.5h8q2 0 3.5 -1.5t1.5 -3.5v-42zM84 143q0 -5 3 -8t7.5 -3t8 3t3.5 7.5t-3.5 8t-8 3.5t-7.5 -3.5t-3 -7.5zM151 143q0 -5 3.5 -8t7.5 -3t7.5 3t3.5 7.5t-3.5 8t-7.5 3.5t-7.5 -3.5t-3.5 -7.5z" />
</svg>