<svg viewBox="0 0 1024 1024" xmlns="http://www.w3.org/2000/svg">
  <path transform="scale(1, -1) translate(0, -960)" fill="currentColor" d="M992 693q0 41 -16 78q-15 36 -42.5 63t-63.5 43q-37 16 -78 16q-67 0 -120.5 -41t-71.5 -105l-2 -8q-20 5 -41.5 7.5t-44.5 2.5t-44.5 -2.5t-41.5 -7.5l-2 8q-18 64 -71.5 104t-120.5 40q-41 0 -78 -15q-36 -16 -63.5 -43t-42.5 -63q-16 -36 -16 -77q0 -64 36 -115 t95 -72q-11 -30 -16.5 -62.5t-5.5 -65.5q0 -77 29 -145t79.5 -118.5t118.5 -80.5q68 -29 146 -29q76 0 144 29t118.5 79.5t80.5 118.5q29 68 29 146q0 33 -5.5 65.5t-16.5 62.5q56 20 92 71.5t36 115.5v0zM64 693q0 68 49 117t119 49q56 0 101 -33.5t61 -87.5l1 -8 q-73 -24 -130 -75.5t-89 -120.5q-50 18 -81 61.5t-31 97.5v0zM512 37q-70 0 -132 26q-62 27 -108.5 73.5t-73.5 108.5t-27 133q0 70 27 132t73.5 108t108.5 72q62 27 132 27t132 -27t108.5 -73t73.5 -108t27 -133t-27 -133t-73.5 -107.5t-108.5 -72.5q-62 -26 -132 -26v0z M848 534q-32 69 -89.5 120.5t-129.5 75.5l1 8q15 54 60.5 88.5t101.5 34.5q70 -1 119 -50.5t49 -117.5q0 -54 -31 -97.5t-81 -61.5zM530 435h-32q-27 0 -45 -18.5t-18 -43.5v-170q0 -26 18.5 -44t44.5 -18h32q26 0 44 18.5t18 43.5v170q0 26 -18 44t-44 18zM560 203 q0 -13 -9 -21.5t-21 -8.5h-32q-14 0 -22.5 9t-8.5 21v170q0 13 9.5 21.5t21.5 8.5h32q13 0 21.5 -9t8.5 -21v-170zM422 507q0 -18 -12.5 -30.5t-30.5 -12.5t-30.5 12.5t-12.5 30.5t12.5 30.5t30.5 12.5t30.5 -12.5t12.5 -30.5zM691 507q0 -18 -12.5 -30.5t-30.5 -12.5 t-30.5 12.5t-12.5 30.5t12.5 30.5t30.5 12.5t30.5 -12.5t12.5 -30.5z" />
</svg>