<svg viewBox="0 0 1024 1024" xmlns="http://www.w3.org/2000/svg">
  <path transform="scale(1, -1) translate(0, -960)" fill="currentColor" d="M965 504l-59 48q-10 7 -13.5 18.5t0.5 23.5l19 75q5 15 1.5 31t-12.5 30q-10 13 -24 21t-31 9l-78 3q-12 1 -22 8t-13 18l-27 72q-6 15 -18 26.5t-27 16.5q-16 6 -32 4t-31 -12l-64 -42q-9 -6 -21 -6t-22 6l-65 42q-15 10 -31 12t-32 -4q-15 -5 -27 -16.5t-18 -26.5 l-27 -72q-5 -11 -14 -18.5t-21 -7.5l-77 -5q-17 -1 -31 -8.5t-23 -21.5q-10 -13 -13 -29t2 -32l19 -75q3 -12 -1 -23t-12 -19l-59 -48q-15 -9 -22 -23t-7 -31t7 -31t20 -25l59 -48q10 -7 13.5 -18.5t-0.5 -23.5l-19 -75q-5 -15 -1.5 -31t12.5 -30q10 -13 24 -21t31 -9l76 -5 q12 -1 22 -8t14 -17l27 -72q6 -16 17.5 -27.5t27.5 -16.5q6 -1 11 -2t11 -1q11 0 20.5 2.5t19.5 8.5l66 42q9 6 21 6t22 -6l64 -42q13 -8 29 -10t33 2q16 5 27.5 16.5t17.5 27.5l27 72q5 10 14 17.5t21 7.5l77 5q17 1 31 9t24 21q9 14 12.5 30t-1.5 31l-19 75q-4 12 0 23.5 t12 18.5l60 48q13 11 20 25t7 31q2 17 -4.5 31t-19.5 25v0zM946 416l-60 -48q-16 -13 -23 -34t-1 -41l20 -75q2 -9 0.5 -18t-7.5 -16q-5 -7 -13 -11.5t-17 -4.5l-77 -5q-22 -1 -39 -13.5t-25 -32.5l-27 -72q-4 -9 -10 -15.5t-16 -8.5q-8 -3 -17 -1.5t-16 6.5l-64 41 q-18 12 -39.5 12t-39.5 -12l-65 -41q-8 -5 -17 -6.5t-17 1.5q-8 2 -15 8.5t-11 15.5l-30 73q-7 21 -24.5 33.5t-39.5 13.5l-77 5q-9 0 -17 4t-13 12q-5 7 -7 16t0 17l20 75q6 21 -1 41t-23 35l-60 48q-7 4 -10.5 12t-3.5 18t3.5 18t10.5 14l60 48q16 13 23 34t1 41l-18 74 q-2 8 -1 17t7 16q6 8 13.5 12t17.5 4l77 5q21 1 38 13.5t26 33.5l27 72q3 8 9.5 14.5t15.5 9.5q4 1 7 1h6q6 0 12 -1.5t11 -4.5l65 -42q18 -12 39.5 -12t39.5 12l64 42q7 5 16 6t17 -1q9 -3 15.5 -9.5t10.5 -14.5l27 -72q7 -21 24.5 -33.5t39.5 -13.5l77 -5q9 0 17 -4 t13 -12q5 -7 7 -16t0 -17l-20 -75q-6 -21 1 -41t23 -35l60 -48q7 -6 10.5 -14t3.5 -18q0 -9 -3.5 -16.5t-10.5 -13.5v0zM342 560q-7 0 -11.5 -4.5t-4.5 -11.5v-93l-52 101q-3 5 -8 7t-10 1t-9 -5.5t-4 -10.5v-158q0 -8 4.5 -12t11.5 -4t11.5 4t4.5 12v92l53 -100q2 -4 6 -6 t8 -2h3h1q4 1 8 5.5t4 10.5v158q0 6 -5 11t-11 5v0zM514 528q7 0 11.5 4.5t4.5 11.5t-4.5 11.5t-11.5 4.5h-63q-7 0 -11.5 -4.5t-4.5 -11.5v-158q0 -8 4.5 -12t11.5 -4h63q7 0 11.5 4t4.5 12q0 7 -4.5 11.5t-11.5 4.5h-47v46h16q7 0 11.5 4.5t4.5 11.5t-4.5 11.5t-11.5 4.5 h-16v48h47zM770 558q-6 3 -12 -0.5t-8 -10.5l-30 -99l-22 99q-2 6 -7 9.5t-11 3.5q-5 0 -8.5 -3t-5.5 -8l-28 -101l-22 99q-1 6 -7 10t-12 1q-6 -1 -10 -7t-1 -12l36 -158q2 -5 6 -9t9 -4v0v0q5 0 9 3t7 8l29 99l22 -99q1 -5 5.5 -9t8.5 -4q6 0 10.5 3.5t5.5 8.5l47 158 q1 8 -2 14.5t-9 7.5v0z" />
</svg>