<svg viewBox="0 0 256 256" xmlns="http://www.w3.org/2000/svg">
  <path transform="scale(1, -1) translate(0, -256)" fill="currentColor" d="M243 144l-15 12l-2 4t0 4l5 18q1 5 0 9.5t-3 8.5q-6 8 -16 9l-20 1q-4 0 -6 4l-7 18q-3 10 -13 13t-18 -2l-16 -11q-4 -3 -8 0l-16 11q-8 5 -18 2t-13 -12l-7 -18q-2 -5 -6 -5l-20 -1q-9 0 -15 -8.5t-4 -18.5l5 -18q1 -4 -2 -7l-15 -12q-8 -7 -8 -17t8 -16l15 -12 q1 -1 2 -3t0 -4l-5 -19q-1 -5 0 -9.5t3 -8.5q6 -8 16 -8l20 -2q4 0 6 -4l7 -18q3 -9 13 -12q3 -2 6 -2q6 0 12 4l16 10q4 3 8 0l16 -10q8 -6 17.5 -3t13.5 13l7 18q0 1 2 2.5t4 1.5l19 1q10 1 16 9t3 18l-4 18q-1 4 2 7l15 12q8 7 8 17t-8 16zM234 122l-15 -12 q-5 -4 -7 -9.5t0 -11.5l5 -19q0 -3 -2 -6t-5 -3l-18 -1q-7 0 -12 -4t-7 -10l-7 -18q-1 -3 -4 -4t-6 1l-16 11q-5 3 -11.5 3t-11.5 -3l-17 -11q-2 -2 -5.5 -0.5t-4.5 3.5l-7 18q-2 6 -7 10t-11 4l-19 1q-3 0 -5 3t-2 6l5 19q2 6 0 12t-7 9l-15 12q-3 3 -3 6t3 6l15 12 q5 4 6.5 9.5t0.5 11.5l-5 19q-2 3 0.5 6t5.5 3l19 1q7 0 12 4t7 10l7 18q1 3 4 4h2q3 0 4 -1l17 -11q5 -3 11.5 -3t11.5 3l16 11q2 2 5.5 0.5t4.5 -3.5l7 -18q2 -6 7 -10t11 -4l19 -1q3 0 5 -3t2 -6l-5 -19q-1 -6 0.5 -11.5t6.5 -9.5l15 -12q3 -2 3 -5.5t-3 -6.5zM86 159 q-3 0 -5.5 -2t-2.5 -5v-12l-7 15q-1 2 -3.5 3t-5 0.5t-3.5 -2.5t-1 -4v-40q0 -3 2 -5t5 -2t5 2t2 5v11l8 -14q1 -4 6 -4l1 1q3 0 4 2t1 4v40q0 3 -2 5t-4 2zM128 145q3 0 5.5 2t2.5 5t-2.5 5t-5.5 2h-15q-3 0 -5 -2t-2 -5v-40q0 -3 2 -5t5 -2h15q3 0 5.5 2t2.5 5t-2.5 5.5 t-5.5 2.5h-8v5h1q3 0 5 2t2 5t-2 5.5t-5 2.5h-1v5h8zM193 158q-2 1 -5 -0.5t-4 -3.5l-4 -14l-3 13q0 3 -2.5 4.5t-6 1t-4.5 -5.5l-4 -13l-4 13q0 3 -2.5 4.5t-5.5 1t-4.5 -3t-0.5 -5.5l9 -40q1 -5 7 -5v0q3 0 4.5 1.5t2.5 3.5l4 14l3 -14q1 -5 7 -5q2 0 4 1.5t3 3.5l11 40 q1 3 -0.5 5.5t-4.5 2.5z" />
</svg>