<svg viewBox="0 0 256 256" xmlns="http://www.w3.org/2000/svg">
  <path transform="scale(1, -1) translate(0, -256)" fill="currentColor" d="M250 112l-5 11q-2 5 0 11l4 10q2 4 1 8.5t-4 7.5l-7 8q-5 4 -5 10v11q0 5 -2.5 8.5t-6.5 5.5l-10 4q-6 3 -8 8l-4 10q-2 4 -5.5 6.5t-8.5 2.5h-11q-6 0 -10 4l-7 8q-5 4 -11 4q-3 0 -6 -1l-10 -4q-5 -3 -11 0l-10 4q-5 2 -9.5 1.5t-7.5 -4.5l-8 -7q-4 -5 -10 -5h-11 q-5 0 -8.5 -2.5t-5.5 -6.5l-4 -10q-3 -6 -8 -8l-10 -4q-4 -2 -6.5 -5.5t-2.5 -8.5v-11q0 -6 -4 -10l-8 -8q-4 -3 -5 -7.5t1 -8.5l4 -11q3 -5 0 -11l-4 -10q-1 -4 -0.5 -8.5t4.5 -7.5l7 -8q5 -4 5 -10v-11q0 -5 2.5 -8.5t6.5 -5.5l10 -4q6 -3 8 -8l4 -10q2 -4 5.5 -6.5 t8.5 -2.5h11q5 0 10 -4l8 -8q4 -5 11 -5q3 0 5 1l11 5q5 2 11 0l10 -5q3 -1 6 -1q6 0 10 5l8 7q4 5 10 5h11q5 0 8.5 2.5t5.5 6.5l4 10q3 6 8 8l10 4q4 2 6.5 5.5t2.5 8.5v11q0 5 4 10l8 8q4 3 5 7.5t-1 8.5zM237 106l-8 -8q-9 -8 -9 -20v-11v-1l-11 -5q-11 -4 -15 -15 l-4 -10q0 -1 -1 -1h-11q-12 0 -20 -8l-8 -8l-1 -1l-10 4q-5 2 -10.5 2t-11.5 -2l-11 -4v0l-8 8q-9 9 -20 9h-12l-1 1l-4 10q-5 11 -15 15l-10 5q-1 0 -1 1v11q0 12 -8 20l-8 8v1l4 10q4 11 0 22l-4 10v1l8 8q8 8 8 20v11l1 1l10 4q11 5 16 16l4 10q0 1 1 1h11q12 0 20 8l8 8 h1l10 -4q5 -2 11 -2t11 2l10 5q1 0 1 -1l8 -8q8 -8 20 -8h10l2 -1l4 -10q4 -11 15 -16l11 -4v-1v-11q0 -12 9 -20l7 -8l1 -1l-4 -10q-5 -11 0 -22l4 -10v-1zM154 157q-2 2 -5 2t-5 -2l-45 -45q-2 -3 -2 -5.5t2 -4.5t4.5 -2t4.5 2l46 45q2 2 2 5t-2 5zM102 166l-1 2 q-2 2 -4.5 2.5t-5 -1.5t-3 -4.5t1.5 -4.5l1 -2q2 -4 5 -4t5 1.5t2.5 4.5t-1.5 6zM166 100l-2 1q-2 2 -5 1.5t-4.5 -3t-1 -5.5t2.5 -4l2 -2q2 -1 5 -1t4.5 2.5t1.5 5.5t-3 5z" />
</svg>