<svg viewBox="0 0 1024 1024" xmlns="http://www.w3.org/2000/svg">
  <path transform="scale(1, -1) translate(0, -960)" fill="currentColor" d="M989 381l-18 41q-5 14 -5 27t5 26l16 40q6 13 3 27.5t-12 25.5l-31 30q-9 10 -15 23t-6 27v45q0 14 -8 26.5t-22 18.5l-40 16q-13 4 -22.5 14t-14.5 22l-16 40q-6 14 -18 22.5t-27 8.5h-43q-14 0 -26.5 5t-22.5 16l-31 30q-8 8 -17.5 12t-19.5 4q-4 0 -9 -1l-10 -2 l-41 -18q-12 -5 -26 -5t-27 5l-42 18q-14 6 -28 2.5t-25 -13.5l-30 -31q-10 -9 -22.5 -15t-27.5 -6h-44q-15 0 -27 -8.5t-18 -21.5l-16 -40q-5 -13 -15 -22.5t-22 -14.5l-40 -16q-14 -6 -22 -18t-8 -27v-44q0 -15 -5 -27t-16 -23l-31 -30q-10 -11 -13 -25.5t2 -27.5l18 -42 q5 -13 5 -26t-5 -27l-16 -40q-6 -13 -3 -27.5t12 -24.5l31 -31q9 -9 15 -22t6 -27v-45q0 -15 8.5 -27t21.5 -18l40 -16q13 -5 22.5 -15t14.5 -22l16 -40q6 -14 18 -22t27 -8h44q15 0 27 -5t23 -16l30 -32q8 -7 16.5 -10.5t19.5 -3.5q4 0 9 1l10 2l41 17q12 5 26 5t27 -5 l42 -17q5 -1 9.5 -2t7.5 -1q10 0 19 3.5t17 10.5l30 30q10 10 22.5 15.5t27.5 5.5h44q15 0 27 8t18 23l16 40q5 13 15 22.5t22 13.5l40 16q14 6 22 18.5t8 26.5v45q0 14 5 26.5t16 23.5l32 32q10 9 12.5 23.5t-2.5 27.5v0zM955 350l-32 -30q-14 -14 -21.5 -33t-7.5 -39v-45 q0 -5 -2 -9t-7 -7l-42 -17q-19 -8 -33 -22.5t-21 -32.5l-16 -40q-3 -5 -6.5 -7t-9.5 -2h-45q-20 0 -39 -8t-33 -21l-30 -32q-4 -4 -9 -5t-9 2l-40 16q-10 3 -19.5 5.5t-18.5 2.5q-10 0 -20 -2.5t-19 -5.5l-43 -16q-4 -2 -9 -1.5t-9 4.5l-30 32q-14 14 -33 21.5t-39 7.5h-45 q-5 0 -9 2t-7 7l-17 42q-8 19 -22.5 33t-32.5 21l-41 18q-5 2 -7.5 6t-2.5 10v45q0 20 -8 38.5t-21 33.5l-30 30q-4 2 -5 6.5t2 9.5l16 40q7 19 7 39t-7 38l-16 40q-3 5 -2 9.5t5 7.5l32 34q14 14 21.5 33t7.5 39v45q0 5 2 9t7 7l42 17q19 8 33 22.5t21 32.5l18 41 q2 5 6 7.5t10 2.5h45q20 0 38.5 8t33.5 21l30 30q4 4 9 5t9 -2l40 -16q19 -7 38.5 -7t37.5 7l42 16q4 2 9 1.5t9 -4.5l30 -30q14 -15 33 -22t39 -7h43q5 0 9.5 -2.5t6.5 -7.5l18 -41q7 -19 21.5 -33t32.5 -22l42 -17q5 -3 7 -6.5t2 -9.5v-45q0 -20 8 -39t21 -33l32 -30 q4 -4 5 -8.5t-2 -9.5l-16 -40q-8 -19 -8 -39t8 -38l18 -41q1 -6 0 -11t-5 -9v0zM586 555l-183 -181q-5 -4 -5 -10.5t5 -11.5q3 -2 6 -3.5t5 -1.5q3 0 6 1.5t6 3.5l182 181q5 5 5 11t-5 11t-11.5 5t-10.5 -5zM398 590l-4 8q-4 6 -10.5 7.5t-12.5 -2.5q-6 -3 -7 -9.5t2 -12.5 l5 -8q3 -4 6 -5.5t7 -1.5q2 0 4.5 1t5.5 3q6 3 7 9.5t-3 10.5v0zM650 330q-5 3 -12 2t-11 -6q-3 -4 -2 -11t7 -11l8 -5q2 -1 4.5 -2t5.5 -1t6.5 1.5t5.5 4.5q4 5 3 12t-6 11l-9 5v0z" />
</svg>