<svg viewBox="0 0 1024 1024" xmlns="http://www.w3.org/2000/svg">
  <path transform="scale(1, -1) translate(0, -960)" fill="currentColor" d="M942 40l-131 866q-1 9 -7.5 15.5t-16.5 6.5h-45h-2h-2h-76q-24 0 -41 -15t-21 -38l-8 -59h-190l6 40q2 13 -2 26.5t-12 24.5q-9 11 -21.5 17t-26.5 6h-76q-24 0 -41 -15t-21 -38l-126 -837q-3 -13 1.5 -26.5t12.5 -23.5q10 -10 22.5 -16t25.5 -6h72q23 0 41 15t21 38 l12 70h193l-8 -51q-2 -13 2 -26.5t13 -23.5q8 -9 20.5 -15.5t27.5 -6.5h72q24 0 41 15t21 38l37 240l37 -240q3 -23 20.5 -38t41.5 -15h72q13 0 25.5 6t22.5 16q8 10 12 23.5t2 26.5v0zM587 784l-21 -133h-190l21 133h190v0zM514 299h-192l22 144h192zM541 474h-192l22 144 h191zM248 26q-1 -11 -9.5 -18.5t-20.5 -7.5h-74q-7 0 -13 2.5t-11 8.5q-5 5 -6.5 11.5t0.5 12.5l126 835q1 11 9.5 18.5t20.5 7.5h76q7 0 13 -2.5t11 -8.5q4 -5 5.5 -11.5t0.5 -12.5l-128 -835v0zM294 123l23 144h192l-23 -144h-192zM640 26q-2 -11 -11 -18.5t-19 -7.5h-72 q-8 0 -14 2.5t-10 8.5q-5 6 -6.5 12t-0.5 12l125 835q1 11 9.5 18.5t20.5 7.5h76q7 0 13 -2.5t11 -8.5q4 -5 5.5 -11.5t0.5 -12.5zM902 11q-3 -6 -9.5 -8.5t-12.5 -2.5h-72q-12 0 -20.5 7.5t-9.5 18.5l-53 339l69 446l116 -777q2 -5 -0.5 -11.5t-7.5 -11.5v0z" />
</svg>