<svg viewBox="0 0 256 256" xmlns="http://www.w3.org/2000/svg">
  <path transform="scale(1, -1) translate(0, -256)" fill="currentColor" d="M238 26l-32 217q-1 4 -3.5 6t-5.5 2h-31q-7 0 -12.5 -4.5t-6.5 -11.5l-2 -12h-41l1 7q1 8 -4.5 14.5t-14.5 6.5h-18q-7 0 -12.5 -4.5t-6.5 -11.5l-31 -209q-2 -8 4 -14.5t14 -6.5h18q7 0 12.5 4.5t5.5 11.5l3 15h42l-1 -9q-2 -9 4 -15t14 -6h18q7 0 12.5 4.5t5.5 11.5 l7 40l6 -40q1 -7 6.5 -11.5t12.5 -4.5h18q9 0 14.5 6.5t3.5 13.5zM126 94h-42l5 30h42zM132 138h-41l5 30h41zM143 209l-4 -27h-41l4 27h41zM59 23q-1 -4 -5 -4h-18q-2 0 -4 1v1q-1 2 -1 3l31 209q1 4 5 4h19q2 0 4 -2v0q1 -2 1 -3zM77 50l5 30h42l-4 -30h-43zM157 23 q-1 -4 -5 -4h-18q-2 0 -4 1v1q-1 2 -1 3l31 209q1 4 5 4h19q2 0 4 -2v0q1 -2 1 -3zM224 21q-1 -2 -4 -2h-18q-4 0 -5 4l-13 85l14 91l26 -175q1 -2 0 -3z" />
</svg>