<svg viewBox="0 0 256 256" xmlns="http://www.w3.org/2000/svg">
  <path transform="scale(1, -1) translate(0, -256)" fill="currentColor" d="M192 73q-5 17 -6 25q-2 27 5 65q1 5 -3 7q-8 7 -14 19l7 54q0 3 -1.5 5t-4.5 2.5t-5 -1t-3 -4.5l-7 -51q-14 -14 -32.5 -14t-31.5 14l-7 51q0 3 -2.5 4.5t-5.5 1.5t-5 -2.5t-1 -5.5l7 -54q-5 -12 -14 -19q-2 -2 -2.5 -3.5t-0.5 -3.5q7 -36 5 -65q-1 -7 -5 -24l-1 -2 q-8 -32 -9 -55q0 -2 1.5 -4t4.5 -3q33 -6 66.5 -6t66.5 6q3 1 4.5 3t1.5 4q0 15 -3 31q-1 9 -5 25zM128 19q-25 0 -58 4q1 19 8 46l1 6q4 15 5 22q2 28 -4 65q8 7 12 16q17 -12 36.5 -12t35.5 12q4 -8 12 -16q-6 -37 -4 -65q1 -7 5 -22l1 -6q7 -27 8 -46q-33 -4 -58 -4z" />
</svg>