<svg viewBox="0 0 1024 1024" xmlns="http://www.w3.org/2000/svg">
  <path transform="scale(1, -1) translate(0, -960)" fill="currentColor" d="M755 226q-7 28 -13 54.5t-8 49.5q-6 60 -1 122t19 140q1 5 -1 8.5t-5 7.5q-23 18 -38 41t-25 44l29 217q1 6 -3 12t-11 6q-8 1 -13 -3t-5 -11l-27 -210q-21 -20 -55 -39t-86 -19t-86 19.5t-55 40.5l-27 208q-1 6 -6.5 10t-11.5 4q-6 -1 -10 -6.5t-4 -11.5l29 -219 q-9 -20 -24.5 -43.5t-38.5 -41.5q-3 -2 -4.5 -6.5t-1.5 -9.5q14 -78 18 -140t0 -122q-3 -23 -8.5 -48.5t-12.5 -55.5q-12 -47 -23 -100.5t-12 -117.5q0 -6 3 -10t9 -6q29 -4 100.5 -13t165.5 -9t165.5 9t100.5 13q6 2 9 6t3 10q-1 64 -12 118.5t-23 101.5v0zM512 0v0 q-82 0 -147.5 7t-98.5 12q2 57 12.5 105.5t22.5 91.5q7 30 13.5 57t8.5 52q6 61 2.5 123t-18.5 139q21 18 35 38.5t23 40.5v0v0q24 -21 60.5 -37t86.5 -16t86.5 16t60.5 37h0.5h1.5q9 -20 23.5 -40.5t33.5 -38.5q-14 -77 -18 -139t2 -123q3 -25 8.5 -52t14.5 -57 q11 -43 21 -91.5t14 -105.5q-35 -5 -100.5 -12t-147.5 -7v0z" />
</svg>