<svg viewBox="0 0 1024 1024" xmlns="http://www.w3.org/2000/svg">
  <path transform="scale(1, -1) translate(0, -960)" fill="currentColor" d="M934 246l-265 341q-3 3 -6 5t-7 2h-128v318q0 7 -4.5 11.5t-11.5 4.5t-11.5 -4.5t-4.5 -11.5v-318h-128q-4 0 -7 -1.5t-6 -5.5l-265 -341q-4 -4 -6 -11t-2 -13v-36q0 -17 11.5 -28.5t28.5 -11.5h171q11 -35 34 -67q24 -32 54.5 -56.5t64.5 -39.5t66 -15t66 15t64.5 40 t54.5 57t36 67h171q17 0 28.5 11.5t11.5 28.5v37q-1 5 -3.5 11.5t-6.5 10.5zM512 0q-46 0 -104.5 43.5t-82.5 103.5h374q-24 -60 -82.5 -103.5t-104.5 -43.5zM910 186q0 -4 -2 -6t-6 -2h-782q-4 0 -6 2t-2 6v36v3t2 2l260 335h272l261 -335q1 -1 1.5 -2t0.5 -3v-36h1z" />
</svg>