<svg viewBox="0 0 1024 1024" xmlns="http://www.w3.org/2000/svg">
  <path transform="scale(1, -1) translate(0, -960)" fill="currentColor" d="M835 499l-155 202q-2 2 -5.5 4t-7.5 2h-139v205q0 7 -4.5 11.5t-11.5 4.5t-11.5 -4.5t-4.5 -11.5v-206h-139q-4 0 -7.5 -1.5t-5.5 -5.5l-155 -201q-4 -5 -3.5 -11.5t4.5 -11.5l156 -134v0h1q1 -67 49.5 -114.5t115.5 -47.5t115.5 47.5t49.5 114.5v0h1l156 134 q4 5 4.5 11.5t-3.5 12.5v0zM512 211q-53 0 -91.5 37t-41.5 90h266q-3 -53 -41.5 -90t-91.5 -37v0zM661 370h-298l-139 121l141 184h294l141 -184zM512 99q-7 0 -11.5 -4.5t-4.5 -11.5v-99q0 -7 4.5 -11.5t11.5 -4.5t11.5 4.5t4.5 11.5v99q0 7 -4.5 11.5t-11.5 4.5zM310 165 l-70 -71q-5 -4 -5 -10.5t5 -11.5q2 -2 5.5 -3.5t5.5 -1.5q3 0 6 1.5t5 3.5l71 70q5 5 5 11.5t-5 11.5t-12 5t-11 -5zM714 165q-5 5 -11.5 5t-11.5 -5t-5 -11.5t5 -11.5l71 -70q2 -2 5 -3.5t6 -1.5q2 0 5.5 1.5t5.5 3.5q5 5 5 11.5t-5 10.5l-70 71v0z" />
</svg>