<svg viewBox="0 0 256 256" xmlns="http://www.w3.org/2000/svg">
  <path transform="scale(1, -1) translate(0, -256)" fill="currentColor" d="M227 19h-35v168q0 20 -14 34.5t-34 14.5h-57l-13 13q-2 2 -5 2t-5 -2l-23 -23q-2 -2 -2 -4.5t2 -5.5l-12 -12q-7 -6 -7 -16t7 -16l23 -23q6 -7 16 -7t16 7l12 12q2 -2 5 -2t5 2l23 23q2 2 2 4.5t-2 5.5l-28 27h43q14 0 24 -10t10 -24v-168h-35q-3 0 -5 -2t-2 -5t2 -5.5 t5 -2.5h84q3 0 5 2.5t2 5.5t-2 5t-5 2zM74 159q-3 -3 -6.5 -3t-6.5 3l-23 23q-2 2 -2 6t3 6l12 12l35 -35zM101 176l-45 45l13 13l45 -45z" />
</svg>