<svg viewBox="0 0 256 256" xmlns="http://www.w3.org/2000/svg">
  <path transform="scale(1, -1) translate(0, -256)" fill="currentColor" d="M211 142l-39 51q-2 3 -5 3h-32v48q0 3 -2 5t-5 2t-5 -2t-2 -5v-48h-32q-3 0 -5 -3l-39 -51q-2 -2 -2 -4.5t3 -4.5l38 -33q1 -17 13.5 -29.5t30.5 -12.5t30.5 12.5t13.5 29.5l38 33q2 2 2.5 4.5t-1.5 4.5zM128 72q-11 0 -19.5 7.5t-10.5 18.5h60q-2 -11 -10.5 -18.5 t-19.5 -7.5zM164 112h-72l-32 27l32 43h71l33 -43zM128 44q-3 0 -5 -2t-2 -5v-25q0 -3 2 -5t5 -2t5 2t2 5v25q0 3 -2 5t-5 2zM75 59l-17 -17q-3 -3 -2.5 -5.5t2.5 -4.5t4.5 -2t4.5 2l18 17q2 2 2 5t-2 5t-5 2t-5 -2zM181 59q-2 2 -5 2t-5 -2t-2 -5t2 -5l17 -17q2 -2 5 -2 t5 2t2 4.5t-2 5.5z" />
</svg>