<svg viewBox="0 0 1024 1024" xmlns="http://www.w3.org/2000/svg">
  <path transform="scale(1, -1) translate(0, -960)" fill="currentColor" d="M976 67h-112q4 6 5 13t1 14v357q0 33 -23 56.5t-57 23.5h-22q-7 0 -11.5 -4.5t-4.5 -11.5t4.5 -11.5t11.5 -4.5h24q19 0 33.5 -13.5t14.5 -34.5v-358q0 -11 -7.5 -19t-19.5 -8h-627q-11 0 -19.5 7.5t-8.5 19.5v358q0 19 14 33.5t34 14.5h13q7 0 11.5 4.5t4.5 11.5 t-4.5 11.5t-11.5 4.5h-13q-32 0 -56 -23t-24 -57v-358q0 -7 2 -14t5 -13h-85q-7 0 -11.5 -4.5t-4.5 -11.5q0 -8 4.5 -12t11.5 -4h928q7 0 11.5 4t4.5 12q0 7 -4.5 12t-11.5 5v0zM498 363q75 0 128.5 53.5t53.5 129.5q0 7 -4.5 11.5t-11.5 4.5t-11.5 -4.5t-4.5 -11.5 q0 -63 -44 -107t-106 -44q-63 0 -107 44t-44 107q0 62 44 106t107 44q10 0 21 -1.5t22 -4.5q6 -3 12 0.5t7 10.5q2 6 -1 12t-10 7q-13 4 -26 6t-27 2q-76 0 -129 -53.5t-53 -128.5q1 -76 54.5 -129.5t129.5 -53.5zM504 571q-5 -5 -5.5 -11t3.5 -11q3 -3 6 -4t6 -1q2 0 5 1 t6 4l208 184h102q7 0 11.5 4.5t4.5 11.5t-4.5 11.5t-11.5 4.5h-89v80q0 7 -4.5 11.5t-11.5 4.5q-8 0 -12 -4.5t-4 -11.5v-88zM446 544q0 7 -4 11.5t-12 4.5q-7 0 -11.5 -4.5t-4.5 -11.5q0 -34 24.5 -58.5t59.5 -24.5q7 0 11.5 4.5t4.5 11.5t-4.5 11.5t-11.5 4.5 q-21 1 -36.5 16t-15.5 35v0z" />
</svg>