<svg viewBox="0 0 1024 1024" xmlns="http://www.w3.org/2000/svg">
  <path transform="scale(1, -1) translate(0, -960)" fill="currentColor" d="M512 395q42 0 79 16t65 44t45 65q16 37 16 80q0 42 -16 79q-16 38 -44 65.5t-65 44.5q-37 16 -80 16t-80 -16t-65 -44t-44 -65t-16 -80q0 -42 16 -79q17 -37 44.5 -65t65.5 -45q37 -16 79 -16v0zM512 771q71 0 122 -50.5t51 -122.5q0 -70 -50.5 -121t-122.5 -51 q-71 0 -122 50t-51 122t51 122.5t122 50.5v0zM530 536q2 -2 5 -3.5t6 -1.5q2 0 5.5 1.5t5.5 3.5q5 5 5 11.5t-5 10.5l-35 36v59q0 7 -4.5 11.5t-11.5 4.5t-11.5 -4.5t-4.5 -11.5v-66q0 -3 1 -6t4 -5l40 -40v0zM976 125h-59v419q0 30 -21 51t-51 21h-45q-7 0 -11.5 -4.5 t-4.5 -11.5t4.5 -11.5t11.5 -4.5h43q17 0 28.5 -11.5t11.5 -28.5v-419h-744v419q0 17 11.5 28.5t28.5 11.5h45q7 0 11.5 4.5t4.5 11.5t-4.5 11.5t-11.5 4.5h-43q-30 0 -51 -21t-21 -51v-419h-61q-7 0 -11.5 -4.5t-4.5 -11.5t4.5 -11.5t11.5 -4.5h75v0v0v0v0h776v0v0v0v0h77 q7 0 11.5 4.5t4.5 11.5t-4.5 11.5t-11.5 4.5z" />
</svg>