<svg viewBox="0 0 1024 1024" xmlns="http://www.w3.org/2000/svg">
  <path transform="scale(1, -1) translate(0, -960)" fill="currentColor" d="M976 280h-67v437q0 43 -30.5 73.5t-73.5 30.5h-586q-43 0 -73.5 -30.5t-30.5 -73.5v-439h-67q-7 0 -11.5 -4t-4.5 -12v-67q0 -50 35.5 -85.5t86.5 -35.5h715q50 0 85.5 35.5t35.5 85.5v67q2 8 -2.5 13t-11.5 5v0zM147 717q0 30 21 51t51 21h586q30 0 51 -21t21 -51v-439 h-256q-4 0 -7.5 -1t-5.5 -5l-24 -29h-150l-28 29q-2 2 -5 3.5t-6 1.5h-248v440v0zM960 197q0 -37 -26 -63.5t-64 -26.5h-716q-38 0 -64 26.5t-26 63.5v51h323l27 -29q3 -2 6 -3.5t6 -1.5h164q4 0 7.5 1.5t5.5 5.5l24 29h333v-53v0zM480 661h64q7 0 11.5 4.5t4.5 11.5 t-4.5 11.5t-11.5 4.5h-64q-7 0 -11.5 -4.5t-4.5 -11.5t5 -11.5t11 -4.5z" />
</svg>