<svg viewBox="0 0 256 256" xmlns="http://www.w3.org/2000/svg">
  <path transform="scale(1, -1) translate(0, -256)" fill="currentColor" d="M244 75h-17v88q0 13 -9 22t-22 9h-135q-13 0 -22 -9t-9 -22v-88h-18q-3 0 -5 -2t-2 -5t2 -5t5 -2h232q3 0 5 2t2 5t-2 5t-5 2zM209 75h-166v88q0 7 5 12t12 5h135q7 0 12 -5t5 -12v-88h-3zM164 143l-20 3l-10 18q-2 4 -6 4t-6 -4l-10 -18l-20 -3q-4 -1 -5.5 -5t1.5 -7 l15 -15l-3 -20q-1 -4 2 -7q2 -1 4 -1t4 1l18 9l19 -9l3 -1q2 0 4 1q3 3 2 7l-3 20l15 15q3 3 1 7q0 2 -1.5 3t-3.5 2zM140 124q-2 -3 -2 -6l2 -10l-10 5l-2 1q-2 0 -3 -1l-9 -5l2 10q0 3 -2 6l-8 7l10 1q4 1 5 4l5 10l4 -10q2 -3 5 -4l10 -1z" />
</svg>