<svg viewBox="0 0 256 256" xmlns="http://www.w3.org/2000/svg">
  <path transform="scale(1, -1) translate(0, -256)" fill="currentColor" d="M244 59h-10v113q0 9 -6.5 15.5t-15.5 6.5q-3 1 -5 -1t-2 -5t1.5 -5t5 -2.5t6 -2.5t2.5 -6v-113h-184v113q0 3 3 5.5t6.5 2.5t5 2.5t1.5 5.5t-2 5t-5 2q-9 0 -16 -7t-7 -16v-113h-10q-3 0 -5 -2t-2 -5t2 -5t5 -2h232q3 0 5 2t2 5t-2 5t-5 2zM106 140h15v-15q0 -3 2 -5 t5 -2t5 2t2 5v15h15q3 0 5.5 2t2.5 5t-2.5 5t-5.5 2h-15v16q0 3 -2 5t-5 2t-5 -2t-2 -5v-16h-15q-3 0 -5.5 -2t-2.5 -5t2.5 -5t5.5 -2zM128 83q17 0 32 8.5t23.5 23t8.5 32t-8.5 32.5t-23.5 23.5t-32 8.5t-32 -8.5t-23.5 -23.5t-8.5 -32.5t8.5 -32t23.5 -23t32 -8.5z M128 197q21 0 35.5 -14.5t14.5 -35.5t-14.5 -35.5t-35.5 -14.5t-35.5 14.5t-14.5 35.5t14.5 35.5t35.5 14.5z" />
</svg>