<svg viewBox="0 0 256 256" xmlns="http://www.w3.org/2000/svg">
  <path transform="scale(1, -1) translate(0, -256)" fill="currentColor" d="M244 89h-14v106q0 12 -8.5 20.5t-20.5 8.5h-146q-12 0 -20.5 -8.5t-8.5 -20.5v-106h-14q-3 0 -5 -2t-2 -5v-18q0 -13 9.5 -23t23.5 -10h180q14 0 23.5 10t9.5 23v18q0 3 -2 5t-5 2zM40 195q0 6 4.5 10.5t10.5 4.5h146q6 0 10.5 -4.5t4.5 -10.5v-106h-176v106zM237 64 q0 -8 -5.5 -13.5t-13.5 -5.5h-180q-8 0 -13.5 5.5t-5.5 13.5v11h218v-11zM166 164l-20 7l-12 17q-2 3 -5.5 3t-5.5 -3l-13 -17l-19 -7q-3 -1 -4.5 -4t0.5 -6l12 -18l1 -20q0 -4 2 -5.5t4 -1.5h2l20 7l20 -7q4 -1 7 1t3 6v21l12 17q2 3 0.5 6t-4.5 4zM144 143q-1 -2 -1 -4 v-14l-15 5q-2 0 -2 -1l-13 -4v14q0 2 -1 4l-8 11l12 4q2 1 4 3l8 11l8 -11q1 -2 3 -3l13 -4z" />
</svg>