<svg viewBox="0 0 256 256" xmlns="http://www.w3.org/2000/svg">
  <path transform="scale(1, -1) translate(0, -256)" fill="currentColor" d="M244 89h-14v106q0 12 -8.5 20.5t-20.5 8.5h-146q-12 0 -20.5 -8.5t-8.5 -20.5v-106h-14q-3 0 -5 -2t-2 -5v-18q0 -13 9.5 -23t23.5 -10h180q14 0 23.5 10t9.5 23v18q0 3 -2 5t-5 2zM40 195q0 6 4.5 10.5t10.5 4.5h146q6 0 10.5 -4.5t4.5 -10.5v-106h-176v106zM237 64 q0 -8 -5.5 -13.5t-13.5 -5.5h-180q-8 0 -13.5 5.5t-5.5 13.5v11h218v-11zM136 192h-16q-3 0 -5 -2t-2 -5t2 -5t5 -2h16q3 0 5 2t2 5t-2 5t-5 2z" />
</svg>