<svg viewBox="0 0 1024 1024" xmlns="http://www.w3.org/2000/svg">
  <path transform="scale(1, -1) translate(0, -960)" fill="currentColor" d="M992 122v3.5v4.5l-80 211q0 1 -1 2t-2 3v454q0 30 -21 51t-50 21h-652q-29 0 -50 -21t-21 -51v-454q-1 -2 -2 -3t-1 -2l-78 -211q-2 -2 -2 -4v-4v-1v-1v-82q0 -7 4.5 -11.5t11.5 -4.5h928q7 0 11.5 4.5t4.5 11.5v84v0v0v0zM147 800q0 17 11.5 28.5t27.5 11.5h652 q16 0 27.5 -11.5t11.5 -28.5v-453h-730v453v0zM960 54h-896v66v0v0l72 194h750l74 -192v0v0v-68zM544 739h-64q-7 0 -11.5 -4.5t-4.5 -11.5t4.5 -11.5t11.5 -4.5h64q7 0 11.5 4.5t4.5 11.5t-5 11.5t-11 4.5z" />
</svg>