<svg viewBox="0 0 1024 1024" xmlns="http://www.w3.org/2000/svg">
  <path transform="scale(1, -1) translate(0, -960)" fill="currentColor" d="M990 83l-68 295v0.5v0.5l4 6t2 7v384q0 34 -23 57t-57 23h-672q-34 0 -57 -23t-23 -57v-384q0 -4 1 -6.5t4 -4.5v-1v-1l-69 -296q-1 -7 1 -15t7 -14q6 -6 13.5 -10t16.5 -4h885q10 0 17.5 3.5t13.5 10.5q4 8 5.5 15t-1.5 14v0zM128 776q0 20 14 34t34 14h672q20 0 34 -14 t14 -34v-368h-768v368zM960 74l-1 -1t-4 -1h-885q-2 0 -3 1l-1 1l-1 0.5l-1 0.5l67 295q0 1 2 2t5 1h747q2 0 4 -2t2 -3l69 -293v0v-1v0z" />
</svg>