<svg viewBox="0 0 1024 1024" xmlns="http://www.w3.org/2000/svg">
  <path transform="scale(1, -1) translate(0, -960)" fill="currentColor" d="M976 280h-67v435q0 45 -31.5 75.5t-74.5 30.5h-582q-45 0 -75.5 -31.5t-30.5 -74.5v-435h-67q-7 0 -11.5 -4.5t-4.5 -11.5v-72q0 -49 34.5 -83.5t83.5 -34.5h724q49 0 83.5 34.5t34.5 83.5v70q0 8 -4.5 13t-11.5 5zM147 715q0 31 22 52.5t52 21.5h582q31 0 52.5 -22 t21.5 -52v-435h-730v435v0zM960 192q0 -36 -25 -61t-61 -25h-724q-36 0 -61 25t-25 61v54h896v-54zM544 693h-64q-7 0 -11.5 -4.5t-4.5 -11.5t4.5 -11.5t11.5 -4.5h64q7 0 11.5 4.5t4.5 11.5t-5 11.5t-11 4.5z" />
</svg>