<svg viewBox="0 0 1024 1024" xmlns="http://www.w3.org/2000/svg">
  <path transform="scale(1, -1) translate(0, -960)" fill="currentColor" d="M976 226h-82v363q0 47 -33 80t-80 33h-538q-47 0 -80 -33t-33 -80v-363h-82q-7 0 -11.5 -4.5t-4.5 -11.5q0 -8 4.5 -12t11.5 -4h928q7 0 11.5 4t4.5 12q0 7 -4.5 11.5t-11.5 4.5v0zM835 226h-673v363q0 33 24 57t57 24h538q33 0 57 -24t24 -57v-363h-27v0zM654 494 l-88 13l-40 80q-3 9 -14 9t-14 -9l-40 -80l-88 -13q-5 -1 -8.5 -3.5t-4.5 -7.5t0 -9t5 -7l64 -62l-15 -88q-1 -5 1 -9.5t6 -6.5q2 -1 4.5 -2t4.5 -1h4.5t3.5 1l79 42l78 -42q4 -2 8.5 -1.5t9.5 3.5q3 2 5 6.5t1 9.5l-14 88l64 62q3 4 4.5 8.5t-0.5 7.5q-4 5 -8 8t-8 3v0z M571 422q-2 -2 -3.5 -6t-1.5 -8l12 -64l-58 30q-1 2 -3.5 2h-4.5h-4t-4 -2l-58 -30l12 64q1 4 -1 8t-4 6l-47 45l64 10q4 0 7.5 2.5t5.5 5.5l29 59l29 -58q1 -3 4.5 -5.5t8.5 -2.5l64 -9z" />
</svg>