<svg viewBox="0 0 256 256" xmlns="http://www.w3.org/2000/svg">
  <path transform="scale(1, -1) translate(0, -256)" fill="currentColor" d="M244 89h-14v106q0 12 -8.5 20.5t-20.5 8.5h-146q-12 0 -20.5 -8.5t-8.5 -20.5v-106h-14q-3 0 -5 -2t-2 -5v-17q0 -14 10 -24t23 -10h179q14 0 24 10t10 24v17q0 3 -2 5t-5 2zM40 195q0 7 4 11t11 4h146q7 0 11 -4t4 -11v-106h-61q-3 0 -5 -3l-5 -6h-35l-6 7q-2 2 -5 2 h-59v106zM237 65q0 -8 -5.5 -13.5t-13.5 -5.5h-180q-8 0 -13.5 5.5t-5.5 13.5v10h77l5 -6q2 -3 5 -3h42q3 0 5 3l5 6h79v-10zM120 178h16q3 0 5 2.5t2 5.5t-2 5t-5 2h-16q-3 0 -5 -2t-2 -5t2 -5.5t5 -2.5z" />
</svg>