<svg viewBox="0 0 1024 1024" xmlns="http://www.w3.org/2000/svg">
  <path transform="scale(1, -1) translate(0, -960)" fill="currentColor" d="M976 280h-67v435q0 45 -31.5 75.5t-74.5 30.5h-582q-45 0 -75.5 -31.5t-30.5 -74.5v-435h-67q-7 0 -11.5 -4.5t-4.5 -11.5v-72q0 -49 34.5 -83.5t83.5 -34.5h724q49 0 83.5 34.5t34.5 83.5v70q0 8 -4.5 13t-11.5 5zM147 715q0 31 22 52.5t52 21.5h582q31 0 52.5 -22 t21.5 -52v-435h-730v435v0zM960 192q0 -36 -25 -61t-61 -25h-724q-36 0 -61 25t-25 61v54h896v-54zM659 582l-83 28l-53 70q-5 6 -13 6t-12 -6l-53 -70l-83 -28q-4 -1 -6.5 -3.5t-3.5 -5.5q-1 -4 -0.5 -7.5t2.5 -7.5l51 -70l1 -88q0 -4 2 -7t5 -6q2 -1 4.5 -2t4.5 -1h3h2 l83 26l84 -26q3 -1 6.5 -0.5t7.5 2.5t5 5.5t1 6.5l2 88l51 71q3 3 3 7t-1 7q-1 4 -3.5 7t-6.5 4v0zM589 501q-1 -3 -2 -5t-1 -5v-70l-68 21q-2 1 -4.5 1t-4.5 -1l-67 -21v70q0 3 -1 5t-3 5l-41 57l67 23q2 1 4.5 2.5t3.5 3.5l42 58l41 -58q1 -2 3.5 -3.5t4.5 -2.5l67 -23 l-41 -57v0z" />
</svg>