<svg viewBox="0 0 1024 1024" xmlns="http://www.w3.org/2000/svg">
  <path transform="scale(1, -1) translate(0, -960)" fill="currentColor" d="M976 160h-53v462q0 32 -22 55t-53 25q-6 0 -11 -4t-7 -10q0 -7 4.5 -11.5t10.5 -6.5q19 -1 32 -14.5t13 -33.5v-462h-757v462q0 20 13.5 34t34.5 14q7 0 11.5 4.5t4.5 11.5q0 8 -5 12t-11 4q-34 0 -57 -23t-23 -57v-462h-53q-7 0 -11.5 -4.5t-4.5 -11.5t4.5 -11.5 t11.5 -4.5h928q7 0 11.5 4.5t4.5 11.5t-4.5 11.5t-11.5 4.5zM422 507h74v-73q0 -8 4.5 -12t11.5 -4t11.5 4t4.5 12v73h74q7 0 11.5 4.5t4.5 11.5t-4.5 11.5t-11.5 4.5h-74v74q0 7 -4.5 11.5t-11.5 4.5t-11.5 -4.5t-4.5 -11.5v-74h-74q-7 0 -11.5 -4.5t-4.5 -11.5t5 -11.5 t11 -4.5v0zM512 280q50 0 95 19q44 20 77.5 53t52.5 78q20 44 20 95q0 50 -20 94q-19 45 -52 78t-78 52t-95 19t-95 -19q-45 -20 -78 -53t-52 -78q-20 -44 -20 -95q0 -50 20 -94q19 -45 52 -78t78 -52t95 -19v0zM512 736q44 0 83 -17q38 -17 67 -46t46 -67q17 -39 17 -83 t-17 -82q-17 -39 -46 -68t-67 -46q-39 -17 -83 -17t-83 17q-38 17 -67 46t-46 68q-17 38 -17 82q0 45 17 83q17 39 46 68t67 45q39 17 83 17v0z" />
</svg>