<svg viewBox="0 0 256 256" xmlns="http://www.w3.org/2000/svg">
  <path transform="scale(1, -1) translate(0, -256)" fill="currentColor" d="M244 54h-19v102q0 9 -5.5 15t-14.5 7q-3 0 -5 -2t-2.5 -5t1.5 -5t5 -2t5 -2.5t2 -5.5v-102h-166v102q0 3 2 5.5t5 2.5t5 2t2 5t-2 5t-5 2q-9 0 -15.5 -6.5t-6.5 -15.5v-102h-18q-3 0 -5 -2t-2 -5t2 -5t5 -2h232q3 0 5 2t2 5t-2 5t-5 2zM89 93q1 0 3 1q9 4 18.5 11.5 t18.5 14.5q10 -9 33 -26h1q2 -2 5 -1.5t4.5 3t1 5t-2.5 4.5h-1q-20 15 -31 24l7 8q14 19 17 38q1 11 -2 20t-12 15t-21 5q-16 0 -24.5 -9.5t-9.5 -22.5q-2 -26 20 -49l4 -5l-1 -1q-9 -8 -15 -12q-8 -6 -17 -11q-3 -2 -3.5 -4.5t2 -5t5.5 -2.5zM108 183q1 8 6.5 13.5 t14.5 5.5h1q6 0 11 -2.5t7 -8.5t1 -13q-2 -16 -14 -31l-7 -7l-4 4q-17 20 -16 39z" />
</svg>