<svg viewBox="0 0 256 256" xmlns="http://www.w3.org/2000/svg">
  <path transform="scale(1, -1) translate(0, -256)" fill="currentColor" d="M213 55h-14v31q0 3 -2 5.5t-5 2.5t-5 -2.5t-2 -5.5v-31h-145v80q0 4 2.5 6.5t6.5 2.5h51q3 0 5 2t2 5t-2 5t-5 2h-51q-9 0 -16 -7t-7 -16v-81h-14q-3 0 -5 -2t-2 -5t2 -4.5t5 -1.5h201q3 0 5 2t2 5t-2 5t-5 2zM244 176q-3 0 -5 -2t-2 -5v-41q0 -3 2 -5t5 -2t5 2t2 5v41 q0 3 -2 5t-5 2zM220 182l-5 5l-22 22q-5 5 -9.5 6t-9 -1.5t-6 -7.5t0.5 -10l2 -9h-16q-7 0 -11 -2q-6 -3 -8 -11v-2q-1 -5 0 -9q1 -7 14 -36v0q3 -8 7 -10t10 -2h35q10 0 14.5 4.5t4.5 14.5v41q-1 4 -1 7zM206 129h-4h-39q-1 1 -1 3q-13 30 -13.5 33t0.5 5v0l1 2q1 1 4 1h25 q3 0 5.5 2.5t1.5 5.5l-4 20l6 -5q12 -12 19 -20v-44z" />
</svg>