<svg viewBox="0 0 1024 1024" xmlns="http://www.w3.org/2000/svg">
  <path transform="scale(1, -1) translate(0, -960)" fill="currentColor" d="M853 142h-69v138q0 7 -4.5 11.5t-11.5 4.5t-11.5 -4.5t-4.5 -11.5v-138h-603v333q0 21 14.5 34.5t33.5 13.5h203q7 0 11.5 4.5t4.5 11.5t-4.5 11.5t-11.5 4.5h-203q-34 0 -57 -23.5t-23 -56.5v-333h-69q-7 0 -11.5 -4t-4.5 -12q0 -7 4.5 -11.5t11.5 -4.5h805 q7 0 11.5 4.5t4.5 11.5q0 8 -5 12t-11 4zM976 629q-7 0 -11.5 -4.5t-4.5 -11.5v-165q0 -7 4.5 -11.5t11.5 -4.5t11.5 4.5t4.5 11.5v165q0 6 -4.5 11t-11.5 5zM867 658q-2 6 -17.5 22.5t-68.5 68.5q-6 5 -10 9t-6 7q-5 5 -12 11t-17 8q-16 4 -30.5 -4.5t-19.5 -24.5 q-2 -8 -0.5 -17l2.5 -15l11 -51h-80q-8 0 -17.5 -1t-17.5 -5q-10 -5 -17.5 -14.5t-9.5 -21.5q-1 -2 -1.5 -4t-0.5 -4q-1 -7 -1 -14.5t1 -15.5q1 -5 9 -30t46 -114q3 -8 9 -18t18 -17q8 -5 16.5 -6t15.5 -1h141h0.5h0.5q10 0 24.5 2t25.5 14q11 11 12.5 25.5t1.5 24.5v157 q-2 7 -3.5 14t-4.5 15v0zM834 445q-4 -4 -11.5 -5.5t-16.5 -1.5h-140q-5 0 -9.5 0.5t-6.5 1.5q-4 2 -7 7.5t-6 11.5q-34 77 -43 104t-10 32v0v0q-1 6 -1 11t1 10v2.5t2 2.5q1 5 4 9t7 5q2 4 7.5 4.5t9.5 0.5h2h2h99q3 0 6.5 1.5t6.5 4.5q2 3 3 6.5t0 6.5l-16 72q-1 5 -2 9.5 t0 6.5q1 4 4.5 6t6.5 1q4 -2 7.5 -5t7.5 -7l6.5 -6.5t10.5 -9.5q17 -15 45.5 -43.5t34.5 -36.5q2 -3 2 -7v-9v-156q0 -10 -1.5 -18t-4.5 -11v0z" />
</svg>