<svg viewBox="0 0 256 256" xmlns="http://www.w3.org/2000/svg">
  <path transform="scale(1, -1) translate(0, -256)" fill="currentColor" d="M241 167h-32v62q0 5 -3.5 8.5t-8.5 3.5h-159q-5 0 -8.5 -3.5t-3.5 -8.5v-85q-4 -3 -6 -8l-15 -75q-1 -5 3 -9.5t9 -4.5h136v-22q0 -4 3 -7t7 -3h78q4 0 7 3t3 7v132q0 4 -3 7t-7 3zM20 61l14 71h119v-71h-133zM153 157v-11h-113v80h155v-60h-32q-4 1 -7 -2t-3 -7zM237 30 h-70v123h70v-123zM202 56q-4 0 -6.5 -3t-2.5 -6.5t2.5 -6.5t6.5 -3t6.5 2.5t2.5 6.5t-2.5 7t-6.5 3zM193 122h23q3 0 5 2t2 5t-2.5 5t-4.5 2h-23q-3 0 -5 -2t-2 -5t2 -5t5 -2z" />
</svg>