<svg viewBox="0 0 256 256" xmlns="http://www.w3.org/2000/svg">
  <path transform="scale(1, -1) translate(0, -256)" fill="currentColor" d="M244 36h-24l1 4v89q0 9 -7 16t-16 7h-6q-3 0 -5 -2.5t-2 -5.5t2 -5t5 -2h6q4 0 6.5 -2.5t2.5 -6.5v-89q0 -2 -1 -3t-3 -1h-157q-1 0 -2 1t-1 3v90q0 3 2.5 6t6.5 3h3q3 0 5 2t2 5t-2 5t-5 2h-3q-10 0 -16.5 -6.5t-6.5 -16.5v-89v-4h-17q-3 0 -5 -2t-2 -5t2 -5t5 -2h232 q3 0 5 2t2 5t-2 5t-5 2zM124 104q21 0 35 14t14 34q0 3 -2 5t-5 2t-5 -2t-2 -5q0 -14 -10 -24t-24.5 -10t-24.5 10t-10 24t10 24t24 10q6 0 9.5 -1t6 0.5t3.5 4t-0.5 5t-4.5 3.5q-7 2 -14 2q-20 1 -34 -13.5t-14 -34.5t14 -34t34 -14zM124 161q-2 -2 -2.5 -5t1.5 -5.5 t5 -2.5t5 2l52 46h24q3 0 5 2t2 5t-2 5t-5 2h-19v17q0 3 -2.5 5t-5.5 2t-5 -2t-2 -5v-21zM115 152q0 3 -2 5t-5 2t-5 -2t-2 -5q0 -10 7 -17t16 -7q3 0 5 2.5t2 5.5t-2 5t-5 2t-6 2.5t-3 6.5z" />
</svg>