<svg viewBox="0 0 256 256" xmlns="http://www.w3.org/2000/svg">
  <path transform="scale(1, -1) translate(0, -256)" fill="currentColor" d="M213 55h-14v31q0 3 -2 5.5t-5 2.5t-5 -2.5t-2 -5.5v-31h-145v80q0 4 2.5 6.5t6.5 2.5h51q3 0 5 2t2 5t-2 5t-5 2h-51q-9 0 -16 -7t-7 -16v-81h-14q-3 0 -5 -2t-2 -5t2 -4.5t5 -1.5h201q3 0 5 2t2 5t-2 5t-5 2zM244 209q-3 0 -5 -2t-2 -5v-41q0 -3 2 -5t5 -2t5 2t2 5v41 q0 3 -2 5t-5 2zM202 215h-36q-6 0 -10 -2t-7 -10v0q-11 -25 -14 -36v0v-9l1 -2q1 -8 8 -11q4 -2 10 -2h16l-2 -10q-1 -5 0 -9t5 -6.5t8 -2.5h3q4 1 8 5l23 23q4 3 5 6t1 8v39q0 10 -4.5 14.5t-14.5 4.5zM207 157v-3q-7 -8 -19 -19l-6 -5l4 20q1 3 -1 5.5t-6 2.5h-25h-4t-1 2 v6q0 3 13 33l1 3h43v-5z" />
</svg>