<svg viewBox="0 0 1024 1024" xmlns="http://www.w3.org/2000/svg">
  <path transform="scale(1, -1) translate(0, -960)" fill="currentColor" d="M992 717l-2 2l2 -2l-1.5 1.5t-0.5 3.5v0.5t-1 0.5l-3 3l-188 108q-3 1 -7.5 1t-8.5 -1l-184 -106l-1 -2h-1t-1 -1l-1 -2l-0.5 -0.5t-1.5 -0.5v-2h-2v0v-1.5v-3.5v-205l-155 -89v400v1.5v3.5v1v1.5t-1 0.5l-0.5 0.5t-1.5 0.5l-5 5l-185 107q-4 2 -8.5 2t-7.5 -2l-184 -105 l-2 -3l-1 -0.5t-1 -1.5v-2v-0.5t-1 -0.5l-0.5 -1t-1.5 -1v-1v-2.5v-2.5v-637q0 -5 1.5 -8.5t5.5 -4.5l371 -214q1 0 1 -0.5v-1.5h2h3h3h0.5h1.5t1.5 0.5t0.5 1.5l366 214q4 1 5 4.5t1 8.5v200l178 101q4 1 5 4.5t1 8.5v214q8 2 9 3.5l1 1.5v0zM234 909v0l155 -90l-155 -89 l-156 89l156 90v0zM402 792v-389l-90 -51l-66 -37v389l90 51zM402 -5l-343 195v602l66 -37l89 -51v-419l0.5 -1t1.5 -1v0v-0.5t2 -0.5l1 -2h1t1 -2l1 -1l181 -101v-176h-1v-5zM418 200l-154 90l163 94l178 101l155 -90l-112 -65zM773 190l-339 -195v179l252 144l88 52v-180 h-1zM773 422l-66 37l-89 51v176l65 -36l90 -52v-176zM789 626l-155 89l155 88l155 -89zM805 422v176l89 52l66 36v-176z" />
</svg>