<svg viewBox="0 0 1024 1024" xmlns="http://www.w3.org/2000/svg">
  <path transform="scale(1, -1) translate(0, -960)" fill="currentColor" d="M917 861q0 27 -20 47t-47 20h-676q-27 0 -47 -20t-20 -47v-808v-1v-1q3 -35 28 -59t60 -24h706q7 0 11.5 4.5t4.5 11.5t-4.5 11.5t-11.5 4.5h-706q-24 0 -40 16.5t-16 39.5t16.5 39.5t39.5 16.5h706q7 0 11.5 4.5t4.5 11.5v2v1v1.5v1.5v727zM302 896h125v-1.5v-1.5v-232 l-54 29q-4 2 -8 2t-7 -2l-54 -28v231q0 1 -1 1.5t-1 1.5v0zM139 125v736q0 14 10.5 24.5t24.5 10.5h98v-1.5v-1.5v-258q0 -5 2 -8.5t6 -5.5q4 -3 8 -3t8 3l70 38l71 -38q1 -1 3 -1.5t5 -0.5q2 0 4.5 0.5t3.5 1.5q3 2 5.5 5.5t2.5 8.5v258v1.5v1.5h390q15 0 25 -10.5 t10 -24.5v-715h-691q-15 0 -29.5 -6t-26.5 -15v0z" />
</svg>