<svg viewBox="0 0 256 256" xmlns="http://www.w3.org/2000/svg">
  <path transform="scale(1, -1) translate(0, -256)" fill="currentColor" d="M216 98l-6 3l7 5q6 3 9 9t2.5 12.5t-3.5 12t-9 8.5l-12 7l13 8q6 4 9 9.5t2.5 12.5t-4 12.5t-8.5 8.5l-75 42q-6 3 -12.5 3t-12.5 -3l-76 -45q-6 -3 -9.5 -8.5t-3.5 -12.5t3.5 -12.5t9.5 -8.5l12 -7l-12 -8q-6 -3 -9.5 -8.5t-3.5 -12t3.5 -12.5t9.5 -9l7 -4l-7 -4 q-6 -3 -9 -9t-3 -12.5t3 -12t9 -8.5l76 -44q6 -4 13 -4t13 4l75 46q6 4 9 9.5t2.5 12t-3.5 12t-9 8.5zM41 182q0 6 5 9l77 45q3 1 5.5 1t5.5 -1l75 -42q5 -3 5 -9t-5 -9l-75 -47q-2 -2 -5 -2t-6 2l-76 44q-6 2 -6 9zM41 125q0 6 5 9l20 11l50 -29q5 -3 12 -3t13 4l49 30 l19 -10q5 -3 5.5 -9t-4.5 -10l-76 -47q-2 -1 -5 -1t-6 1l-76 44q-6 3 -6 10zM210 67l-76 -47q-2 -1 -5 -1t-6 1l-76 44q-5 4 -5 10t5 9l14 8l55 -32q5 -3 12 -3t13 3l55 34l14 -7q5 -4 5 -10t-5 -9z" />
</svg>