<svg viewBox="0 0 256 256" xmlns="http://www.w3.org/2000/svg">
  <path transform="scale(1, -1) translate(0, -256)" fill="currentColor" d="M232 115h-49v44q0 10 -7 17t-17 7h-44v44q0 10 -7 17t-17 7h-62q-10 0 -17 -7t-7 -17v-62q0 -10 7 -17t17 -7h44v-44q0 -10 7 -17t17 -7h44v-49q0 -8 5.5 -13.5t13.5 -5.5h72q8 0 13.5 5.5t5.5 13.5v72q0 8 -5.5 13.5t-13.5 5.5zM29 155q-4 0 -7 3t-3 7v62q0 4 3 7t7 3 h62q4 0 7 -3t3 -7v-44h-5q-10 0 -17 -7t-7 -17v-5h-43v1zM97 87q-4 0 -7 3t-3 7v62q0 4 3 7t7 3h62q4 0 7 -3t3 -7v-44h-9q-8 0 -14 -5.5t-6 -13.5v-10h-43v1zM237 24q0 -2 -1.5 -3.5t-3.5 -1.5h-72q-2 0 -4 1.5t-2 3.5v72q0 2 2 4t4 2h72q2 0 3.5 -1.5t1.5 -4.5v-72z" />
</svg>