<svg viewBox="0 0 1024 1024" xmlns="http://www.w3.org/2000/svg">
  <path transform="scale(1, -1) translate(0, -960)" fill="currentColor" d="M859 317l-45 24l48 29q21 12 31.5 32t10.5 43t-12 43t-33 30l-65 37l68 43q21 12 31.5 32.5t10.5 43.5q0 22 -12 42t-33 31l-302 170q-21 11 -43.5 11t-43.5 -11l-305 -178q-21 -12 -32 -31.5t-11 -43.5t11 -43.5t32 -31.5l69 -40l-69 -40q-21 -12 -32 -31.5t-11 -43.5 t11 -44t32 -32l46 -27l-46 -27q-21 -12 -32 -31.5t-11 -43.5t11 -43.5t32 -31.5l305 -176q10 -6 21.5 -9t22.5 -3q12 0 23.5 3.5t20.5 9.5l303 186q20 12 30.5 32t10.5 43q0 25 -12 45t-31 32v0zM154 664q0 14 7 27t20 21l307 176q6 4 13 6t14 2t13.5 -1.5t13.5 -4.5 l301 -168q13 -8 20 -20t7 -27q0 -14 -6.5 -26.5t-18.5 -21.5l-303 -187q-13 -8 -27.5 -8t-28.5 8l-305 176q-13 7 -20 19.5t-7 28.5v0zM154 435q0 15 7 27.5t20 20.5l85 48l204 -118q10 -6 21.5 -8.5t22.5 -2.5q12 0 23.5 3t20.5 9l204 125l81 -46q13 -7 20 -19.5t7 -27.5 q0 -14 -6.5 -26.5t-18.5 -21.5l-303 -187q-13 -8 -27.5 -8t-28.5 8l-305 176q-13 7 -20 20t-7 28v0zM845 195l-303 -187q-13 -8 -27.5 -8t-28.5 8l-305 176q-13 7 -20 19.5t-7 28.5q0 14 7 27t20 21l62 35l227 -131q10 -6 21.5 -8.5t22.5 -2.5q12 0 23.5 3.5t20.5 9.5 l224 137l60 -33q13 -8 20 -20t7 -27q0 -14 -6 -27.5t-18 -20.5v0z" />
</svg>