<svg viewBox="0 0 1024 1024" xmlns="http://www.w3.org/2000/svg">
  <path transform="scale(1, -1) translate(0, -960)" fill="currentColor" d="M955 331l-64 40q-6 4 -12.5 2.5t-9.5 -7.5q-4 -6 -2.5 -12t7.5 -10l64 -40q1 -1 2 -2.5t1 -2.5t-0.5 -2t-2.5 -3l-423 -265q-1 -1 -3 -1t-3 1l-423 265q-1 2 -2 3t-1 2t0.5 2.5t2.5 2.5l64 40q6 4 7.5 10t-2.5 12q-3 6 -9.5 7.5t-12.5 -2.5l-64 -40q-9 -5 -13.5 -13.5 t-4.5 -18.5q0 -9 4.5 -18t13.5 -14l422 -265q5 -3 10 -5t11 -2q5 0 10.5 1.5t10.5 5.5l422 265q9 5 13.5 14t4.5 18q0 10 -4.5 18.5t-13.5 13.5v0zM429 334l75 -46l4 -2t4 -1t4.5 1t3.5 2l75 46q6 4 7.5 10.5t-2.5 12.5t-10 7t-12 -2l-66 -42l-66 42q-6 3 -12 2t-10 -7 t-2.5 -12.5t7.5 -10.5zM216 469l112 -71l4 -2t4 -1q4 0 8 2.5t5 5.5q3 6 2 12.5t-7 10.5l-112 70q-6 4 -12.5 2.5t-9.5 -7.5t-1.5 -13t7.5 -9v0zM123 530q4 0 8 2t5 6q4 6 2.5 12t-7.5 10l-53 32l53 34q6 3 7.5 9.5t-2.5 12.5t-10 7t-12 -2l-76 -47q-2 -2 -4 -5.5t-2 -8.5 t2 -8.5t6 -4.5l75 -46q1 -3 3.5 -3h4.5v0zM224 688q2 0 4.5 0.5t3.5 2.5l112 71q6 3 7 9.5t-2 12.5q-4 6 -10.5 7t-12.5 -2l-112 -71q-6 -3 -7 -9.5t3 -12.5q3 -5 6.5 -6.5t7.5 -1.5v0zM446 824l66 42l66 -42q2 -1 3.5 -2t4.5 -1t7 2t5 6q4 6 3 12.5t-7 9.5l-76 47 q-3 2 -7.5 2t-9.5 -2l-75 -47q-6 -3 -7.5 -9.5t2.5 -12.5q6 -6 12.5 -7.5t12.5 2.5zM680 760l112 -70q1 -2 3.5 -2h4.5q4 0 8 2t5 6q3 6 2 12.5t-7 9.5l-112 71q-6 3 -12.5 2t-9.5 -7q-3 -7 -1.5 -13.5t7.5 -10.5zM984 606l-75 47q-6 3 -12.5 2t-10.5 -7q-3 -6 -2 -12.5 t7 -9.5l53 -34l-53 -34q-6 -3 -7 -9.5t2 -12.5q3 -4 6.5 -6t6.5 -2t5 0.5t3 2.5l75 47q4 2 6 5.5t2 6.5q0 4 -1 9t-5 7v0zM688 395q2 0 4.5 0.5t3.5 2.5l112 71q6 3 7 9.5t-2 12.5q-4 6 -10.5 7.5t-12.5 -2.5l-112 -70q-6 -4 -7 -10.5t3 -12.5q3 -3 6.5 -5.5t7.5 -2.5z" />
</svg>