<svg viewBox="0 0 256 256" xmlns="http://www.w3.org/2000/svg">
  <path transform="scale(1, -1) translate(0, -256)" fill="currentColor" d="M240 102l-16 10q-2 1 -5 0.5t-4.5 -3t-1 -5.5t3.5 -4l14 -9l-103 -65l-103 65l14 9q3 1 3.5 4t-1 5.5t-4.5 3t-5 -1.5l-16 -10q-6 -4 -6 -11t6 -10l105 -66q4 -2 7 -2t7 2l105 66q6 4 6 11t-6 11zM106 97l18 -12q2 -1 4 -1t4 1l18 12q3 1 3.5 4t-1 5.5t-4.5 3t-5 -1.5 l-15 -9l-15 9q-2 2 -5 1.5t-4.5 -3t-1 -5.5t3.5 -4zM88 125l-28 17q-3 2 -6 1.5t-4.5 -3t-0.5 -5.5t3 -4l28 -18q2 -1 4.5 -1t4.5 3t1.5 5.5t-2.5 4.5zM31 145q3 0 5 3t1.5 6t-2.5 4l-10 6l9 6q3 1 3.5 4t-1 5.5t-4.5 3t-5 -1.5l-19 -11q-3 -2 -3 -6t3 -6l19 -12q2 -1 4 -1z M56 185q2 0 4 1l28 18q2 1 2.5 4t-1 5.5t-4.5 3t-5 -1.5l-28 -17q-2 -2 -3 -5t1.5 -5.5t5.5 -2.5zM113 220l15 9l15 -9q2 -2 3 -2q4 0 6 3t1.5 6t-3.5 4l-18 12q-4 2 -8 0l-19 -12q-2 -1 -3 -4t1 -5.5t5 -3t5 1.5zM168 204l28 -18q2 -1 4 -1q4 0 6 2.5t1 5.5t-3 5l-28 17 q-2 2 -5 1.5t-4.5 -3t-1 -5.5t2.5 -4zM248 170l-19 12q-3 1 -5.5 0.5t-4 -3t-1 -5.5t2.5 -4l9 -6l-9 -5q-2 -2 -3 -4.5t1 -5.5t6 -3q2 0 4 1l19 12q3 2 3 5.5t-3 5.5zM172 112q2 0 4 1l28 18q2 1 2.5 4t-1 5.5t-4.5 3t-5 -1.5l-28 -17q-2 -2 -3 -4.5t1 -5.5t6 -3z" />
</svg>