<svg viewBox="0 0 1024 1024" xmlns="http://www.w3.org/2000/svg">
  <path transform="scale(1, -1) translate(0, -960)" fill="currentColor" d="M346 928h-234q-34 0 -57 -23t-23 -57v-800q0 -34 23 -57t57 -23h234q33 0 56.5 23t23.5 57v800q0 34 -23.5 57t-56.5 23zM394 48q0 -20 -14 -34t-34 -14h-234q-20 0 -34 14t-14 34v800q0 20 14 34t34 14h234q20 0 34 -14t14 -34v-800zM912 928h-234q-33 0 -56.5 -23 t-23.5 -57v-234q0 -33 23.5 -56.5t56.5 -23.5h234q34 0 57 23.5t23 56.5v234q0 34 -23 57t-57 23zM960 614q0 -20 -14 -34t-34 -14h-234q-20 0 -34 14t-14 34v234q0 20 14 34t34 14h234q20 0 34 -14t14 -34v-234zM912 362h-234q-33 0 -56.5 -23.5t-23.5 -56.5v-234 q0 -34 23.5 -57t56.5 -23h234q34 0 57 23t23 57v234q0 33 -23 56.5t-57 23.5zM960 48q0 -20 -14 -34t-34 -14h-234q-20 0 -34 14t-14 34v234q0 20 14 34t34 14h234q20 0 34 -14t14 -34v-234z" />
</svg>