<svg viewBox="0 0 1024 1024" xmlns="http://www.w3.org/2000/svg">
  <path transform="scale(1, -1) translate(0, -960)" fill="currentColor" d="M912 928h-800q-34 0 -57 -23t-23 -57v-312q0 -34 23 -57t57 -23h800q34 0 57 23t23 57v312q0 34 -23 57t-57 23zM960 536q0 -20 -14 -34t-34 -14h-800q-20 0 -34 14t-14 34v312q0 20 14 34t34 14h800q20 0 34 -14t14 -34v-312zM346 315h-234q-34 0 -57 -23t-23 -57v-187 q0 -34 23 -57t57 -23h234q33 0 56.5 23t23.5 57v187q0 33 -23.5 56.5t-56.5 23.5zM394 48q0 -20 -14 -34t-34 -14h-234q-20 0 -34 14t-14 34v187q0 21 14 34.5t34 13.5h234q20 0 34 -13.5t14 -34.5v-187zM912 315h-234q-33 0 -56.5 -23t-23.5 -57v-187q0 -34 23.5 -57 t56.5 -23h234q34 0 57 23t23 57v187q0 33 -23 56.5t-57 23.5zM960 48q0 -20 -14 -34t-34 -14h-234q-20 0 -34 14t-14 34v187q0 21 14 34.5t34 13.5h234q20 0 34 -13.5t14 -34.5v-187z" />
</svg>