<svg viewBox="0 0 256 256" xmlns="http://www.w3.org/2000/svg">
  <path transform="scale(1, -1) translate(0, -256)" fill="currentColor" d="M228 251h-200q-10 0 -16.5 -6.5t-6.5 -16.5v-109q0 -9 6.5 -16t16.5 -7h200q10 0 16.5 7t6.5 16v109q0 10 -6.5 16.5t-16.5 6.5zM237 119q0 -3 -2.5 -6t-6.5 -3h-200q-4 0 -6.5 2.5t-2.5 6.5v109q0 4 2.5 6.5t6.5 2.5h200q4 0 6.5 -2.5t2.5 -6.5v-109zM222 62h-188 q-3 0 -5 -2t-2 -5t2 -5t5 -2h188q3 0 5 2t2 5t-2 5t-5 2zM222 19h-188q-3 0 -5 -2t-2 -5t2 -5.5t5 -2.5h188q3 0 5 2.5t2 5.5t-2 5t-5 2z" />
</svg>