<svg viewBox="0 0 256 256" xmlns="http://www.w3.org/2000/svg">
  <path transform="scale(1, -1) translate(0, -256)" fill="currentColor" d="M228 251h-200q-10 0 -16.5 -6.5t-6.5 -16.5v-78q0 -10 7 -16.5t16 -6.5h200q10 0 17 6.5t7 16.5v78q-1 10 -7.5 16.5t-16.5 6.5zM237 150q0 -4 -2.5 -6.5t-6.5 -2.5h-200q-4 0 -6.5 2.5t-2.5 6.5v78q0 4 2.5 6.5t6.5 2.5h200q4 0 6.5 -2.5t2.5 -6.5v-78zM86 98h-58 q-10 0 -16.5 -7t-6.5 -17v-46q0 -10 6.5 -16.5t16.5 -6.5h58q10 0 17 6.5t7 16.5v47q0 9 -7 16t-17 7zM96 28q0 -4 -3 -6.5t-7 -2.5h-58q-4 0 -6.5 2.5t-2.5 6.5v47q0 3 2.5 6t6.5 3h58q4 0 7 -2.5t3 -6.5v-47zM228 98h-58q-10 0 -17 -7t-7 -17v-46q0 -10 7 -16.5t17 -6.5 h58q10 0 16.5 6.5t6.5 16.5v47q0 9 -6.5 16t-16.5 7zM237 28q0 -4 -2.5 -6.5t-6.5 -2.5h-58q-4 0 -7 2.5t-3 6.5v47q0 3 3 6t7 3h58q4 0 6.5 -2.5t2.5 -6.5v-47z" />
</svg>