<svg viewBox="0 0 256 256" xmlns="http://www.w3.org/2000/svg">
  <path transform="scale(1, -1) translate(0, -256)" fill="currentColor" d="M86 251h-58q-10 0 -16.5 -6.5t-6.5 -16.5v-200q0 -10 7 -16.5t16 -6.5h59q9 0 16 6.5t7 16.5v200q0 10 -7 16.5t-17 6.5zM96 28q0 -4 -3 -6.5t-7 -2.5h-58q-4 0 -6.5 2.5t-2.5 6.5v200q0 4 2.5 6.5t6.5 2.5h58q4 0 7 -2.5t3 -6.5v-200zM228 251h-58q-10 0 -17 -7t-7 -16 v-59q0 -9 7 -16t17 -7h58q10 0 16.5 7t6.5 16v59q0 10 -6.5 16.5t-16.5 6.5zM237 170q0 -4 -2.5 -7t-6.5 -3h-58q-4 0 -7 3t-3 7v58q0 4 3 6.5t7 2.5h58q4 0 6.5 -2.5t2.5 -6.5v-58zM228 110h-58q-10 0 -17 -7t-7 -17v-58q0 -10 7 -16.5t17 -6.5h58q10 0 16.5 6.5t6.5 16.5 v58q0 10 -6.5 17t-16.5 7zM237 28q0 -4 -2.5 -6.5t-6.5 -2.5h-58q-4 0 -7 2.5t-3 6.5v58q0 4 3 7t7 3h58q4 0 6.5 -3t2.5 -7v-58z" />
</svg>