<svg viewBox="0 0 1024 1024" xmlns="http://www.w3.org/2000/svg">
  <path transform="scale(1, -1) translate(0, -960)" fill="currentColor" d="M955 872q-1 4 -3.5 7t-7.5 4q-4 1 -8 0t-8 -3q-17 -16 -44 -36q-26 -21 -63.5 -42.5t-85.5 -42.5q-47 -20 -106 -34q-78 -20 -121 -61t-63 -82t-24 -73q-3 -31 -3 -32v-3v-7q-53 17 -110 25.5t-106 14.5l-28 5q-39 5 -68 14.5t-48 22.5q-4 2 -8.5 2.5t-7.5 -1.5 q-5 -3 -7.5 -7t-2.5 -9q0 -47 7 -121t30.5 -149t69.5 -139q46 -63 125 -90q36 -12 68.5 -18t62.5 -6q27 0 51.5 5t46.5 14q13 5 27.5 16.5t17.5 12.5q27 24 44 58t23 75q30 -7 58.5 -10.5t53.5 -3.5q57 0 103.5 17.5t80.5 52.5q55 58 74 147q19 90 17.5 182.5t-14.5 173.5 q-14 81 -23 121v0zM531 102l-0.5 1l-0.5 1q-2 0 -64 32.5t-109 103.5q-4 6 -10.5 7t-12.5 -2q-6 -4 -7 -10.5t3 -12.5q43 -63 98 -98t79 -46q-7 -4 -15.5 -10t-13.5 -7v0v0q-38 -18 -90 -17t-114 22q-66 21 -107 74q-40 54 -62.5 119t-31.5 132q-8 67 -9 116q20 -9 46.5 -16 t59.5 -11l28 -3q51 -6 111 -15q60 -10 114 -29t94 -52q39 -33 49 -87q12 -57 3 -107t-38 -85zM875 270q-43 -44 -111 -56t-159 10q0 18 -1.5 36t-5.5 38q-3 18 -10 34.5t-17 30.5q37 4 99 29t96 101q3 6 0.5 12t-8.5 9q-6 2 -12 0t-8 -8q-36 -81 -105 -96.5t-86 -15.5 q-19 19 -44 34.5t-53 25.5v9v12q0 3 3 30q3 28 21 63.5t56 70.5t107 52q53 13 98 32q45 18 81.5 37.5t64.5 39.5t49 37q9 -47 20 -123t10 -158t-19 -159t-66 -127v0z" />
</svg>