<svg viewBox="0 0 1024 1024" xmlns="http://www.w3.org/2000/svg">
  <path transform="scale(1, -1) translate(0, -960)" fill="currentColor" d="M987 -2l-229 228q41 44 62.5 98.5t21.5 115.5q0 42 -11 85q-10 42 -30 84t-49 82q-29 41 -67 79q-100 99 -205 129q-105 29 -192 24.5t-143 -25.5t-57 -21l-5 -2l-3 -5q-1 -1 -21 -56q-21 -56 -26 -142t25 -190q29 -105 128 -204q39 -39 80 -68q42 -29 84.5 -49t85.5 -30 q43 -9 84 -9q59 0 114 20.5t100 62.5l229 -229q3 -2 6 -3.5t5 -1.5q4 0 6.5 1.5t5.5 3.5q6 5 6 11.5t-5 10.5v0zM210 299q-88 88 -118 179q-29 91 -28.5 168.5t18.5 132.5t25 71q15 6 71 24q56 17 134 18t170 -28q92 -30 179 -117q36 -35 63 -73q28 -38 46.5 -77.5 t27.5 -78.5q10 -40 10 -78q0 -55 -19 -103.5t-55 -88.5l-144 142v220q0 7 -4 11.5t-12 4.5q-7 0 -11.5 -4.5t-4.5 -11.5v-188l-12 13v0v0l-160 160q-5 5 -11.5 5t-11.5 -5t-5 -11t5 -11l133 -131h-187q-7 0 -11.5 -4.5t-4.5 -11.5q0 -8 4.5 -12t11.5 -4h221l184 -183 q-51 -45 -113 -62t-128 -8t-134 45t-129 97v0z" />
</svg>