<svg viewBox="0 0 256 256" xmlns="http://www.w3.org/2000/svg">
  <path transform="scale(1, -1) translate(0, -256)" fill="currentColor" d="M249 18l-55 55q19 23 19 53q0 22 -10.5 44t-29.5 41q-30 30 -69 37q-29 5 -58 -2q-16 -4 -25 -8l-3 -1v-2q-5 -9 -9 -25q-7 -30 -2 -58q8 -39 38 -69q20 -19 42 -29.5t43 -10.5q31 0 54 20l55 -55q2 -2 5 -2t5 2t2 4.5t-2 5.5zM54 93q-25 25 -32 56q-6 24 -1 49 q3 16 8 28q13 6 28 9q26 4 50 -1q31 -8 56 -33q18 -17 27 -36.5t9 -38.5q0 -25 -15 -43l-33 33v52q0 3 -2 5.5t-5 2.5t-5.5 -2.5t-2.5 -5.5v-39l-38 38q-2 2 -4.5 2t-5 -2t-2.5 -5t2 -5l28 -28h-39q-3 0 -5 -2t-2 -5t2 -5.5t5 -2.5h53l43 -42q-15 -13 -35.5 -14.5t-42 7.5 t-41.5 28z" />
</svg>