<svg viewBox="0 0 1024 1024" xmlns="http://www.w3.org/2000/svg">
  <path transform="scale(1, -1) translate(0, -960)" fill="currentColor" d="M934 800q-3 1 -36 10q-34 10 -81.5 15.5t-101.5 2.5q-55 -3 -99 -26q-50 -27 -87.5 -63t-56.5 -77q-7 39 -27 77.5t-51 74.5q-33 38 -82 60t-95.5 34t-81.5 16q-34 4 -37 4q-8 0 -12.5 -4t-5.5 -10q0 -3 -1 -38q-2 -34 3 -81.5t20 -98.5q15 -52 48 -90q47 -52 101.5 -81 t102.5 -29q21 0 40 6t35 18q-9 -29 -18 -77q-10 -48 -13.5 -115.5t2.5 -153.5q5 -87 26 -193q1 -6 5.5 -9.5t10.5 -3.5h1.5h1.5q6 1 10 6.5t3 12.5q-25 126 -28 224t4.5 167.5t19.5 110.5q13 42 18 55q18 -32 54.5 -49t83.5 -17q36 0 75.5 10t79.5 32q44 23 78 65 q33 42 55.5 84.5t33.5 74.5t12 35q2 7 -1 13t-9 8zM174 627q-24 28 -37 66q-14 39 -20 77.5t-6 72.5q-1 33 -1 51q18 -1 52 -7q33 -6 71 -17.5t75 -29.5q37 -19 62 -46q37 -42 56.5 -90.5t16.5 -89.5q-1 -20 -9 -36.5t-20 -27.5q-40 -34 -110.5 -11.5t-129.5 88.5v0z M750 549q-78 -41 -152.5 -37t-99.5 51q-9 15 -9.5 32.5t5.5 38.5q12 39 49 77t87 63q26 14 56 19t61 5q51 0 95.5 -9t66.5 -15q-6 -17 -19 -48t-33 -65t-47 -65q-27 -30 -60 -47v0z" />
</svg>