<svg viewBox="0 0 256 256" xmlns="http://www.w3.org/2000/svg">
  <path transform="scale(1, -1) translate(0, -256)" fill="currentColor" d="M234 219q-4 1 -15 4q-17 3 -32 3q-21 0 -35 -7q-22 -12 -33 -29q-5 17 -19 32q-9 11 -29 19q-13 5 -31 8q-11 2 -15 2t-6 -2t-2 -5v-1q-1 -17 1 -32q4 -30 18 -45q11 -14 25.5 -21.5t27.5 -7.5q8 0 14 3q-6 -22 -6 -49q-1 -37 7 -80q1 -3 2.5 -4.5t4.5 -1.5h1 q3 1 4.5 3.5t1.5 4.5q-10 47 -7 88q2 25 8 45q12 -13 34 -13q19 0 40 10q14 7 26 24q8 12 15 28q5 11 5.5 14.5t-1 6t-4.5 3.5zM46 175q-9 11 -13 32q-3 14 -2 29q15 -1 29 -6q21 -7 30 -17.5t14 -22t4 -21t-6 -13.5q-9 -8 -25.5 -2.5t-30.5 21.5zM186 156q-19 -10 -36 -9 t-23 11q-3 6 -0.5 15t11 18t20.5 15t29 6t36 -4q-5 -14 -13 -27q-11 -18 -24 -25z" />
</svg>