<svg viewBox="0 0 256 256" xmlns="http://www.w3.org/2000/svg">
  <path transform="scale(1, -1) translate(0, -256)" fill="currentColor" d="M242 235q-1 4 -5 5t-7 -2q-11 -10 -26 -19q-22 -13 -47 -19q-32 -8 -46 -33q-8 -14 -9 -30q-20 5 -51 9h-7q-20 3 -28 9q-3 3 -7 1t-4 -6q0 -40 10 -70q15 -46 50 -58q18 -6 33 -6t26 5q3 1 9 6l3 2q14 12 18 32q12 -3 25 -3q30 0 48 18q24 25 24 81q0 36 -9 78zM132 46 q-8 3 -17 9q-15 10 -23 23q-2 2 -5 3t-5 -0.5t-3 -4.5t1 -6q15 -21 41 -34l-3 -2q-19 -8 -49 2q-27 8 -40 44q-9 24 -10 58q9 -3 23 -5l7 -1q24 -3 37 -6q21 -4 34 -12q16 -10 19 -25q2 -13 0.5 -24t-7.5 -19zM217 86q-20 -20 -63 -11q0 9 -1 17q-1 4 -5 13q34 6 46 34 q2 2 1 5t-4 4t-5.5 0t-3.5 -4q-7 -15 -23 -21q-10 -4 -21 -5q-9 9 -23 14l1 3q0 5 2 12q3 12 11 22q12 13 31 17q39 10 71 34q8 -42 6 -76q-3 -40 -20 -58z" />
</svg>