<svg viewBox="0 0 1024 1024" xmlns="http://www.w3.org/2000/svg">
  <path transform="scale(1, -1) translate(0, -960)" fill="currentColor" d="M534 918q-10 11 -26 11t-26 -11q-26 -24 -75 -75t-97.5 -118.5t-83.5 -146.5q-36 -79 -36 -159q1 -92 27 -173q25 -81 68.5 -142.5t101.5 -97.5t123 -38h0.5h1.5v0v0h1.5h1.5h1h1q50 0 97 21t87 61q31 31 56 71q24 41 41 88t26 99t8 106q0 80 -37 160q-37 79 -86 147.5 t-99 120.5t-76 76v0zM678 74q-33 -34 -71 -52t-79 -20v144l91 91q5 5 5 11t-5 11t-11 5t-11 -5l-69 -69v178l91 91q5 5 5 11.5t-5 11.5q-5 4 -11 4t-11 -4l-85 -84l-85 85q-5 5 -11 5t-11 -5t-5 -11t5 -11l91 -93v-179l-69 69q-5 4 -11 4t-11 -4q-5 -5 -5 -11.5t5 -11.5 l91 -91v-142q-56 6 -106 41q-49 35 -86 91t-58 129t-22 156q-1 75 33 150t80.5 139.5t93.5 113.5q48 50 73 72q0 2 1 2h2h2.5t2.5 -2q25 -23 73 -73q49 -50 96.5 -115t83.5 -140q36 -76 37 -150q0 -52 -9 -101q-8 -49 -23.5 -93t-38.5 -82t-53 -66v0z" />
</svg>