<svg viewBox="0 0 256 256" xmlns="http://www.w3.org/2000/svg">
  <path transform="scale(1, -1) translate(0, -256)" fill="currentColor" d="M229 190q-2 5 -7 7t-10 -1q-30 -13 -52 -31q-16 29 -58 56q-26 17 -55 29q-5 2 -10 0t-7 -7q-12 -31 -16 -62q-9 -51 5 -82q16 -35 68 -67q26 -16 54 -27h2h3q19 7 41 21q42 26 53 54q10 23 3 60q-4 25 -14 50zM32 105q-13 27 -5 73q4 29 15 59q31 -14 55 -30 q40 -26 52.5 -53.5t4.5 -74.5q-5 -28 -15 -58q-30 13 -55 29q-40 27 -52 55zM227 85q-7 -18 -32 -36q-17 -13 -40 -24q10 30 14 58q6 41 -4 69q20 16 51 31q9 -21 13 -43q7 -34 -2 -55z" />
</svg>