<svg viewBox="0 0 1024 1024" xmlns="http://www.w3.org/2000/svg">
  <path transform="scale(1, -1) translate(0, -960)" fill="currentColor" d="M906 691q-3 7 -8.5 13t-12.5 10q-7 2 -15 2t-16 -4q-30 -13 -94 -48.5t-125 -85.5q-34 68 -97 126q-64 58 -132.5 102.5t-130.5 74.5q-62 31 -94 44q-7 3 -15 3t-16 -3q-7 -4 -12 -9t-8 -14q-12 -31 -33 -97q-20 -66 -33 -146.5t-12 -166.5q2 -85 33 -156 q36 -82 114 -149q77 -67 156.5 -115t141.5 -75t68 -29q1 0 2.5 -1t3.5 -1q1 0 2.5 0.5l4.5 1.5v0q4 2 53 23q49 22 110.5 60t121.5 90q59 53 86 118q22 54 23 116q0 63 -10.5 122.5t-27.5 111.5q-16 51 -28 82v0zM115 350q-30 67 -31 148q-1 82 12 159t33 140q20 64 31 94 l2 2l1 1h1h2h1h3q31 -13 92 -43q62 -30 129.5 -74t128.5 -101t91 -124q31 -68 31 -153q0 -84 -14 -163.5t-34 -142.5q-21 -63 -31 -90q-26 12 -88 41q-62 30 -131.5 75t-133.5 104q-64 58 -95 127v0zM920 272q-20 -47 -61 -89q-42 -41 -89.5 -74t-93.5 -57q-47 -24 -76 -38 q13 36 31 98t30 136t11 153q0 78 -26 146q60 52 125 87.5t95 48.5q1 1 2.5 0.5l1.5 -0.5q2 0 3 -1t1 -2q10 -23 26 -71q17 -48 28 -106t12 -119q1 -62 -20 -112v0z" />
</svg>