<svg viewBox="0 0 256 256" xmlns="http://www.w3.org/2000/svg">
  <path transform="scale(1, -1) translate(0, -256)" fill="currentColor" d="M195 136l-122 -1l33 35q2 2 2 5t-2 5t-5 2t-5 -2l-38 -41q-4 -5 -4 -11.5t4 -11.5l38 -39q2 -2 5 -2t5 2t2 5t-2 5l-32 34l121 1q3 0 5 2t2 5t-2 5t-5 2zM228 251h-200q-10 0 -16.5 -6.5t-6.5 -16.5v-200q0 -10 7 -16.5t16 -6.5h200q10 0 17 6.5t7 16.5v200 q-1 10 -7.5 16.5t-16.5 6.5zM237 28q0 -4 -2.5 -6.5t-6.5 -2.5h-200q-4 0 -6.5 2.5t-2.5 6.5v200q0 4 2.5 6.5t6.5 2.5h200q4 0 6.5 -2.5t2.5 -6.5v-200z" />
</svg>