<svg viewBox="0 0 1024 1024" xmlns="http://www.w3.org/2000/svg">
  <path transform="scale(1, -1) translate(0, -960)" fill="currentColor" d="M779 466v0v0l-513 -4v0v0l148 160q5 5 5 11.5t-6 11.5q-5 5 -11.5 4.5t-11.5 -6.5l-148 -160q-14 -17 -14 -38.5t14 -38.5l148 -156q3 -3 6 -4t6 -1q2 0 5 1t6 4q5 4 5 10.5t-5 11.5l-149 155v1t-2 1l514 3q7 0 11.5 5t4.5 11q2 8 -2 13t-11 5v0zM912 928h-800 q-34 0 -57 -23t-23 -57v-800q0 -34 23 -57t57 -23h800q34 0 57 23t23 57v800q0 34 -23 57t-57 23zM960 48q0 -20 -14 -34t-34 -14h-800q-20 0 -34 14t-14 34v800q0 20 14 34t34 14h800q20 0 34 -14t14 -34v-800z" />
</svg>