<svg viewBox="0 0 1024 1024" xmlns="http://www.w3.org/2000/svg">
  <path transform="scale(1, -1) translate(0, -960)" fill="currentColor" d="M474 760q-33 1 -62 -10.5t-52 -34.5q-23 -21 -34.5 -50t-11.5 -62q0 -41 19 -76t54 -57q6 -3 9.5 -10t3.5 -15v-27q0 -26 18 -44.5t44 -18.5h15q25 0 43.5 18t18.5 45v30q0 7 3.5 14t9.5 12q34 20 53 54t21 74q1 31 -10.5 59.5t-33.5 52.5q-21 21 -49 33t-59 13v0z M507 419q0 -12 -8.5 -21t-21.5 -9h-15q-12 0 -21 8.5t-9 21.5v27v4v3h75v-2.5v-2.5v-29v0zM536 499q-5 -2 -8.5 -6.5t-7.5 -7.5h-99q-4 5 -7.5 8.5t-8.5 5.5q-28 17 -43 45t-15 61q0 25 9.5 48t27.5 40t40 26t46 9h2h2q24 -1 46 -10.5t40 -27.5q17 -18 26 -41t9 -47 q-1 -32 -17 -59t-42 -44v0zM874 890h-2h2v0h-640q-41 0 -70.5 -29.5t-29.5 -70.5v-516h-24q-32 1 -55 -22t-23 -55v-72q0 -49 34.5 -84t83.5 -35h511h2.5h3.5q49 0 84 35t35 84v496h128q32 0 55 23t23 55v72q0 49 -34.5 84t-83.5 35v0zM150 38q-36 0 -61 25.5t-25 61.5v72 q0 19 13.5 32.5t32.5 13.5h392q20 0 33.5 -13.5t13.5 -32.5v-72q0 -25 10 -48t28 -39h-437v0zM754 259v-134q0 -36 -25.5 -61.5t-61.5 -25.5t-61 25.5t-25 61.5v72q0 32 -23 55t-56 23h-336v517q0 28 20 47.5t48 19.5h560q-18 -17 -28.5 -39t-10.5 -47v-514h-1zM960 699 q0 -19 -13.5 -32.5t-32.5 -13.5h-128v118q0 36 25 61.5t61 25.5t62 -25.5t26 -61.5v-72z" />
</svg>