<svg viewBox="0 0 256 256" xmlns="http://www.w3.org/2000/svg">
  <path transform="scale(1, -1) translate(0, -256)" fill="currentColor" d="M232 135h-39v97q0 8 -5.5 13.5t-13.5 5.5h-92q-8 0 -14 -5.5t-6 -13.5v-97h-38q-8 0 -13.5 -5.5t-5.5 -13.5v-92q0 -8 5.5 -14t13.5 -6h208q8 0 13.5 6t5.5 14v92q0 8 -5.5 13.5t-13.5 5.5zM77 232q0 2 1.5 3.5t3.5 1.5h92q3 0 4.5 -1.5t1.5 -3.5v-97h-103v97zM19 24v92 q0 2 1.5 3.5t3.5 1.5h98v-102h-98q-2 0 -3.5 1.5t-1.5 3.5zM237 24q0 -2 -1.5 -3.5t-3.5 -1.5h-97v102h97q2 0 3.5 -1.5t1.5 -3.5v-92zM149 162q2 -4 6 -4l4 1q2 1 3 4t-1 5l-27 46q-2 4 -6 4t-6 -4l-27 -46q-2 -2 -1 -5t3.5 -4.5t5 -0.5t4.5 3l21 36zM74 108h-25 q-3 0 -5 -2t-2 -5v-62q0 -3 2 -5t5 -2h25q8 0 13 5.5t5 12.5v9q0 6 -4 11q4 5 4 11v9q0 7 -5.5 12.5t-12.5 5.5zM56 94h18q2 0 3 -1.5t1 -2.5v-9q0 -2 -1 -3t-3 -1h-18v17zM78 50q0 -1 -1.5 -2.5t-2.5 -1.5h-18v17h18q2 0 3 -1.5t1 -3.5v-8zM202 56q-5 -6 -13.5 -6t-14 6 t-5.5 14t5.5 14t13 6t12.5 -5q3 -2 6 -1.5t4.5 3t1.5 5.5t-3 4q-9 8 -21.5 8t-22.5 -10t-10 -24t10 -24t23.5 -10t23.5 10q2 3 2 5.5t-2 4.5t-4.5 2t-5.5 -2z" />
</svg>