<svg viewBox="0 0 1024 1024" xmlns="http://www.w3.org/2000/svg">
  <path transform="scale(1, -1) translate(0, -960)" fill="currentColor" d="M928 464h-168v400q0 26 -19 45t-45 19h-368q-26 0 -45 -19t-19 -45v-400h-168q-26 0 -45 -19t-19 -45v-368q0 -26 19 -45t45 -19h832q26 0 45 19t19 45v368q0 26 -19 45t-45 19zM296 864q0 13 9.5 22.5t22.5 9.5h368q13 0 22.5 -9.5t9.5 -22.5v-400h-432v400zM64 32v368 q0 13 9.5 22.5t22.5 9.5h400v-432h-400q-13 0 -22.5 9.5t-9.5 22.5zM960 32q0 -13 -9.5 -22.5t-22.5 -9.5h-400v432h400q13 0 22.5 -9.5t9.5 -22.5v-368zM606 589q4 -6 10.5 -7.5t12.5 2.5t7 10t-2 12l-109 183q-5 7 -14.5 7t-12.5 -7l-109 -183q-4 -6 -2 -12t7 -10 q2 -1 3.5 -1.5t4.5 -0.5t7.5 2.5t6.5 5.5l94 160zM296 355h-99q-7 0 -11.5 -4.5t-4.5 -11.5v-246q0 -7 4.5 -11.5t11.5 -4.5h99q25 0 43 17.5t18 43.5v33q0 13 -5.5 25t-15.5 20q10 8 15.5 20t5.5 25v33q0 26 -18 43.5t-43 17.5v0zM325 171v-33q0 -12 -8.5 -20.5t-20.5 -8.5 h-83v91h83q12 0 20.5 -8.5t8.5 -20.5v0zM211 232v91h83q12 0 20.5 -8.5t8.5 -20.5v-33q0 -12 -8.5 -20.5t-20.5 -8.5h-83v0zM819 152q-13 -13 -29.5 -20t-34.5 -7q-37 0 -63 26t-26 63q0 38 26 64t63 26q16 0 30 -5t26 -14q5 -4 12 -3.5t11 6.5q3 5 2.5 12t-6.5 10 q-15 14 -35 21t-41 7q-51 0 -86.5 -36t-35.5 -86t35.5 -86t86.5 -36q24 0 46.5 9.5t39.5 26.5q5 4 5 10.5t-5 11.5t-10.5 5t-10.5 -5z" />
</svg>