<svg viewBox="0 0 256 256" xmlns="http://www.w3.org/2000/svg">
  <path transform="scale(1, -1) translate(0, -256)" fill="currentColor" d="M119 209q-18 1 -30.5 -12t-12.5 -30q0 -11 5 -20.5t14 -14.5q2 -2 2 -4v-7q0 -8 5.5 -13.5t13.5 -5.5h3q8 0 13.5 5.5t5.5 13.5v7q0 2 2 4q9 5 14 14t5 20q1 17 -11 30t-29 13zM119 116h-3q-2 0 -3.5 1.5t-1.5 3.5v5h13v-5q0 -2 -1.5 -3.5t-3.5 -1.5zM132 143 q-2 -1 -3 -3h-22l-4 3q-6 4 -9.5 10.5t-3.5 13.5q0 12 8 20t20 8h1q11 0 19 -9t8 -20q-2 -15 -14 -23zM218 242v0v0h-160q-11 0 -19 -8.5t-8 -19.5v-126h-3q-10 0 -16.5 -6.5t-6.5 -15.5v-18q0 -14 9.5 -23.5t23.5 -9.5h129q14 0 23.5 9.5t9.5 23.5v120h29q10 0 16.5 7 t6.5 16v18q-1 13 -10.5 23t-23.5 10zM38 28q-8 0 -13.5 5.5t-5.5 13.5v18q0 4 2.5 6.5t5.5 2.5h98q4 0 6.5 -2.5t2.5 -6.5v-18q0 -11 6 -19h-102zM186 81v-34q0 -8 -5.5 -13.5t-13.5 -5.5t-13.5 5.5t-5.5 13.5v18q0 9 -6.5 16t-15.5 7h-82v126q0 6 4 10t10 4h133 q-6 -9 -6 -19v-128h1zM237 191q0 -4 -2.5 -6.5t-5.5 -2.5h-29v27q0 8 5.5 13.5t13 5.5t13 -5.5t5.5 -13.5v-18z" />
</svg>