<svg viewBox="0 0 1024 1024" xmlns="http://www.w3.org/2000/svg">
  <path transform="scale(1, -1) translate(0, -960)" fill="currentColor" d="M930 802h-365q-16 0 -29.5 -7t-23.5 -19q-10 11 -23.5 18.5t-29.5 7.5h-365q-26 0 -44 -18t-18 -45v-541q0 -25 18 -43.5t44 -18.5h402v-26q0 -7 4.5 -11.5t11.5 -4.5t11.5 4.5t4.5 11.5v26h402q25 0 43.5 18t18.5 44v541q0 27 -18 45t-44 18zM94 168q-12 0 -21 8.5 t-9 21.5v541q0 12 8.5 21.5t21.5 9.5h367q14 0 25.5 -11t11.5 -26v0v-565h-404v0zM960 198q0 -12 -8.5 -21t-21.5 -9h-402v565q0 15 10.5 26t26.5 11h365q12 0 21 -9t9 -22v-541v0zM218 606h123q7 0 11.5 4.5t4.5 11.5q0 8 -4.5 12t-11.5 4h-123q-8 0 -12 -4t-4 -12 q0 -7 5 -11.5t11 -4.5v0zM678 606h124q7 0 11.5 4.5t4.5 11.5q0 8 -4.5 12t-11.5 4h-124q-7 0 -11.5 -4t-4.5 -12q0 -7 4.5 -11.5t11.5 -4.5zM803 502h-123q-7 0 -11.5 -4t-4.5 -12q0 -7 4.5 -11.5t11.5 -4.5h123q7 0 11.5 4.5t4.5 11.5q0 8 -4.5 12t-11.5 4zM344 502h-123 q-7 0 -11.5 -4t-4.5 -12q0 -7 4.5 -11.5t11.5 -4.5h123q7 0 11.5 4.5t4.5 11.5q0 8 -5 12t-11 4zM344 357h-123q-7 0 -11.5 -4.5t-4.5 -11.5t4.5 -11.5t11.5 -4.5h123q7 0 11.5 4.5t4.5 11.5t-5 11.5t-11 4.5zM803 357h-123q-7 0 -11.5 -4.5t-4.5 -11.5t4.5 -11.5t11.5 -4.5 h123q7 0 11.5 4.5t4.5 11.5t-4.5 11.5t-11.5 4.5z" />
</svg>