<svg viewBox="0 0 256 256" xmlns="http://www.w3.org/2000/svg">
  <path transform="scale(1, -1) translate(0, -256)" fill="currentColor" d="M232 219h-91q-7 0 -13 -5q-5 5 -13 5h-91q-8 0 -13.5 -5.5t-5.5 -12.5v-135q0 -8 5.5 -13.5t13.5 -5.5h97v-3q0 -3 2 -5.5t5 -2.5t5.5 2.5t2.5 5.5v3h97q8 0 13.5 5.5t5.5 13.5v135q-1 8 -6.5 13t-13.5 5zM24 61q-2 0 -3.5 1.5t-1.5 3.5v135q0 2 1.5 3t3.5 1h91 q3 0 4.5 -1.5t1.5 -4.5v-138h-97zM237 66q0 -2 -1 -3.5t-3 -1.5h-98v138q0 3 2 4.5t4 1.5h91q2 0 3.5 -1t1.5 -3v-135zM54 165h31q3 0 5 2t2 5t-2 5t-5 2h-31q-3 0 -5 -2t-2 -5t2.5 -5t4.5 -2zM170 165h30q3 0 5.5 2t2.5 5t-2.5 5t-5.5 2h-30q-3 0 -5.5 -2t-2.5 -5t2.5 -5 t5.5 -2zM201 145h-31q-3 0 -5 -2t-2 -5t2 -5.5t5 -2.5h31q3 0 5 2.5t2 5.5t-2 5t-5 2zM86 145h-31q-3 0 -5 -2t-2 -5t2 -5.5t5 -2.5h31q3 0 5 2.5t2 5.5t-2 5t-5 2zM86 108h-31q-3 0 -5 -2t-2 -5t2 -5t5 -2h31q3 0 5 2t2 5t-2 5t-5 2zM201 108h-31q-3 0 -5 -2t-2 -5t2 -5 t5 -2h31q3 0 5 2t2 5t-2 5t-5 2z" />
</svg>