<svg viewBox="0 0 1024 1024" xmlns="http://www.w3.org/2000/svg">
  <path transform="scale(1, -1) translate(0, -960)" fill="currentColor" d="M278 408q39 0 67 27.5t28 66.5q0 40 -27.5 67.5t-67.5 27.5q-39 0 -66.5 -27.5t-27.5 -67.5q0 -39 28 -66.5t66 -27.5zM278 563q26 0 44.5 -18t18.5 -44q0 -27 -18 -45t-45 -18q-26 0 -44 18t-18 45q0 26 18.5 44t43.5 18v0zM784 283h-565q-7 0 -11.5 -4.5t-4.5 -11.5 t4.5 -11.5t11.5 -4.5h565q7 0 11.5 4.5t4.5 11.5t-4.5 11.5t-11.5 4.5zM784 595h-155q-7 0 -11.5 -4.5t-4.5 -11.5t4.5 -11.5t11.5 -4.5h155q7 0 11.5 4.5t4.5 11.5t-4.5 11.5t-11.5 4.5zM784 440h-155q-7 0 -11.5 -4.5t-4.5 -11.5t4.5 -11.5t11.5 -4.5h155q7 0 11.5 4.5 t4.5 11.5q0 6 -4.5 11t-11.5 5zM912 774h-800q-34 0 -57 -23t-23 -57v-492q0 -34 23 -57t57 -23h800q34 0 57 23t23 57v492q0 34 -23 57t-57 23v0zM960 202q0 -21 -14 -34.5t-34 -13.5h-800q-20 0 -34 13.5t-14 34.5v492q0 21 14 34.5t34 13.5h800q20 0 34 -13.5t14 -34.5 v-492z" />
</svg>