<svg viewBox="0 0 256 256" xmlns="http://www.w3.org/2000/svg">
  <path transform="scale(1, -1) translate(0, -256)" fill="currentColor" d="M70 115q10 0 18 8t8 18.5t-8 18.5t-18.5 8t-18.5 -8t-8 -18.5t8 -18.5t19 -8zM70 154q5 0 8.5 -3.5t3.5 -8.5t-3.5 -9t-9 -4t-9 4t-3.5 9t3.5 8.5t9.5 3.5zM196 90h-141q-3 0 -5 -2t-2 -5t2 -5t5 -2h141q3 0 5 2t2 5t-2 5t-5 2zM196 168h-39q-3 0 -5 -2.5t-2 -5.5t2 -5 t5 -2h39q3 0 5 2t2 5t-2 5.5t-5 2.5zM196 129h-39q-3 0 -5 -2t-2 -5t2 -5.5t5 -2.5h39q3 0 5 2.5t2 5.5t-2 5t-5 2zM228 213h-200q-10 0 -16.5 -7t-6.5 -16v-124q0 -9 6.5 -16t16.5 -7h200q10 0 16.5 7t6.5 16v124q0 9 -6.5 16t-16.5 7zM237 66q0 -3 -2.5 -6t-6.5 -3h-200 q-4 0 -6.5 3t-2.5 6v124q0 3 2.5 6t6.5 3h200q4 0 6.5 -3t2.5 -6v-124z" />
</svg>