<svg viewBox="0 0 1024 1024" xmlns="http://www.w3.org/2000/svg">
  <path transform="scale(1, -1) translate(0, -960)" fill="currentColor" d="M851 787q-34 34 -73 61q-40 26 -83 44t-89 27t-94 9t-94 -9t-89 -27t-83 -44q-39 -27 -73 -61t-61 -73q-26 -40 -44 -83t-27 -89t-9 -94t9 -94t27 -89t44 -83q27 -39 61 -73q35 -36 75 -62t83 -44t89 -26q46 -9 92 -9t92 9q46 8 89 26t83 44t75 62q70 70 106 158 q35 89 35 181t-35 181q-36 88 -106 158v0zM829 765q17 -17 32 -36t27 -38l-218 -219q-3 25 -14.5 47.5t-29.5 40.5t-41 29.5t-47 15.5l217 219q19 -12 38 -27t36 -32v0zM640 448q0 -25 -9.5 -48.5t-27.5 -41.5t-42 -28t-49 -10t-48.5 9.5t-41.5 27.5q-18 19 -28 42.5 t-10 48.5t9.5 48.5t27.5 41.5t42 28t49 10t48.5 -9.5t41.5 -27.5q18 -19 28 -42.5t10 -48.5zM512 896q58 0 111.5 -14t102.5 -40l-214 -215l-214 215q49 26 102.5 40t111.5 14zM195 765q17 17 36 32t38 27l219 -219q-25 -4 -47.5 -15.5t-40.5 -29.5t-29.5 -41t-15.5 -47 l-219 219q12 19 27 38t32 36v0zM64 448q0 58 14 111.5t40 102.5l215 -214l-215 -214q-26 49 -40 102.5t-14 111.5zM195 131q-17 17 -32 36t-27 38l219 219q4 -25 15.5 -47.5t29.5 -40.5t41 -29.5t47 -15.5l-219 -219q-19 12 -38 27t-36 32v0zM298 54l214 215l214 -215 q-49 -27 -104 -40q-55 -14 -110.5 -14t-109.5 14q-55 13 -104 40v0zM829 131q-17 -17 -36 -32t-38 -27l-219 218q25 3 47.5 14.5t40.5 29.5t29.5 41t15.5 47l219 -219q-12 -18 -27 -36.5t-32 -35.5zM691 448l215 214q27 -49 40 -104q14 -55 14 -110.5t-14 -109.5 q-13 -55 -40 -104l-215 214v0z" />
</svg>