<svg viewBox="0 0 1024 1024" xmlns="http://www.w3.org/2000/svg">
  <path transform="scale(1, -1) translate(0, -960)" fill="currentColor" d="M930 211q30 54 46 114.5t16 122.5t-16 122.5t-46 114.5l1 1q18 18 27.5 41.5t9.5 48.5t-9.5 48.5t-27.5 41.5q-38 37 -90.5 37t-90.5 -36l-1 -1q-54 30 -114.5 46t-122.5 16t-122.5 -16t-114.5 -46l-1 1q-38 36 -90.5 36t-90.5 -37q-18 -18 -27.5 -41.5t-9.5 -48.5 t9.5 -48.5t27.5 -41.5l1 -1q-30 -54 -46 -114.5t-16 -122.5t16 -122.5t46 -114.5l-1 -1q-37 -38 -37 -90t37 -90q18 -18 41 -27t48 -9q26 0 49 9t41 27l2 2q55 -31 115.5 -47.5t122.5 -16.5t122.5 16t114.5 46l1 -1q18 -18 42 -27.5t48 -9.5t48 9.5t42 27.5q37 37 37 90.5 t-37 91.5v0zM960 448q0 -56 -14 -110.5t-40 -103.5l-213 212l-3 -3v2.5v2.5v2.5v2.5l3 -3l213 212q26 -49 40 -103.5t14 -110.5v0zM907 843q13 -13 20 -30.5t7 -36.5t-7 -36.5t-20 -30.5l-222 -223q-6 26 -18 47.5t-30 40.5q-18 18 -39.5 30t-47.5 18l223 221q29 28 68 28 t66 -28zM614 346q-43 -44 -103.5 -44t-102.5 44q-42 43 -42.5 103.5t42.5 102.5q22 22 48.5 32.5t55.5 10.5q28 0 55 -10.5t49 -32.5q42 -43 42 -103.5t-44 -102.5zM512 896q56 0 110.5 -14t103.5 -40l-212 -213l3 -3h-2.5h-2.5h-1.5h-1.5l3 3l-214 213q49 26 103.5 40 t110.5 14v0zM88 776q0 19 7 36.5t20 30.5q28 28 67.5 28t67.5 -28l220 -221q-24 -6 -46 -18t-40 -30t-30 -40t-18 -46l-219 221q-15 14 -22 31.5t-7 35.5v0zM64 448q0 56 14 110.5t40 103.5l213 -212l3 3v-1.5v-1.5v-3v-2l-1 1l-215 -212q-26 49 -40 103.5t-14 110.5v0z M184 24q-19 0 -36.5 7t-30.5 20q-28 28 -28 67.5t28 67.5l222 222q6 -24 18 -46t30 -40t40.5 -30t47.5 -18l-225 -221q-14 -15 -31 -22t-35 -7zM512 0q-56 0 -110.5 14t-103.5 40l212 213l-3 3h2.5h2.5h2.5h2.5l-3 -3l212 -213q-49 -26 -103.5 -40t-110.5 -14v0zM907 53 q-27 -28 -67 -28t-67 28l-223 222q24 6 46.5 18t40.5 30t30 40.5t18 46.5l222 -223q28 -29 28 -68t-28 -66z" />
</svg>