<svg viewBox="0 0 256 256" xmlns="http://www.w3.org/2000/svg">
  <path transform="scale(1, -1) translate(0, -256)" fill="currentColor" d="M128 5q-24 0 -46.5 9t-40 27t-27 40t-9.5 47t9.5 47t27 39.5t39.5 27t47 9.5t47 -9.5t40 -26.5q23 -24 31.5 -55.5t0 -63.5t-31.5 -55q-18 -18 -40.5 -27t-46.5 -9zM79 30q22 -11 48 -11t50 11l-49 49zM38 67q7 -10 13 -16t16 -13l49 49q-11 3 -18.5 10.5t-10.5 18.5z M140 87l49 -49q10 7 16 13t13 16l-49 49q-3 -11 -10.5 -18.5t-18.5 -10.5zM30 177q-11 -23 -11 -48.5t11 -49.5l49 49zM177 128l49 -49q11 22 11 48t-11 50zM128 157q-11 0 -20 -8t-9 -20t8.5 -21t20 -9t20.5 8t9 20t-8.5 21t-20.5 9zM158 158q8 -7 11 -18l49 49 q-7 10 -13 16t-16 13l-49 -49q11 -3 18 -11zM38 189l49 -49q3 11 10.5 18.5t18.5 10.5l-49 49q-10 -7 -16 -13q-8 -8 -13 -16zM79 226l49 -49l49 49q-23 11 -49 11t-49 -11z" />
</svg>