<svg viewBox="0 0 256 256" xmlns="http://www.w3.org/2000/svg">
  <path transform="scale(1, -1) translate(0, -256)" fill="currentColor" d="M251 128q0 31 -15 59q9 10 9 24t-10 24t-24 10t-24 -9q-29 15 -59.5 15t-58.5 -15q-10 9 -24 9t-24 -10.5t-10 -24t9 -23.5q-15 -28 -15 -59t15 -59q-9 -10 -9 -24t10 -24t24 -10t24 9q27 -15 58.5 -15t58.5 15q10 -9 24 -9t24 10t10.5 24t-8.5 24q15 29 15 59zM226 80 l-49 48l49 48q11 -22 11 -48t-11 -48zM225 225q6 -6 6 -15t-6 -15l-52 -52q-4 11 -11.5 18.5t-17.5 11.5l52 52q6 6 14.5 6t14.5 -6zM104 104q-10 10 -10 24t10 24t24 10t23.5 -10t9.5 -24t-9.5 -23.5t-23.5 -9.5t-24 9zM176 226l-48 -49l-48 49q22 11 48 11t48 -11zM31 225 q6 6 14.5 6t14.5 -6l52 -52q-11 -4 -18 -11t-11 -18l-52 52q-6 6 -6 14.5t6 14.5zM30 176l49 -48l-49 -48q-11 21 -11 48t11 48zM46 25q-9 0 -15 6t-6 14.5t6 14.5l52 52q4 -10 12 -18t18 -11l-52 -52q-7 -6 -15 -6zM80 30l48 49l48 -49q-23 -11 -48.5 -11t-47.5 11zM225 31 q-6 -6 -15 -6t-15 6l-52 52q11 4 18.5 11.5t10.5 17.5l52 -52q6 -6 6.5 -14.5t-5.5 -14.5z" />
</svg>