<svg viewBox="0 0 256 256" xmlns="http://www.w3.org/2000/svg">
  <path transform="scale(1, -1) translate(0, -256)" fill="currentColor" d="M216 215h-4q0 15 -10.5 25.5t-25.5 10.5h-96q-15 0 -25.5 -10.5t-10.5 -25.5h-4q-8 0 -13.5 -5.5t-5.5 -13.5v-172q0 -8 5.5 -13.5t13.5 -5.5h176q8 0 13.5 5.5t5.5 13.5v172q0 7 -5.5 13t-13.5 6zM80 237h96q9 0 15.5 -6.5t6.5 -16.5h-140q0 10 6.5 16.5t15.5 6.5z M75 19v131q0 2 1.5 3.5t3.5 1.5h41v-136h-46zM135 19v136h41q2 0 3.5 -1.5t1.5 -3.5v-132h-46v1zM221 24q0 -2 -1.5 -3.5t-3.5 -1.5h-22v131q0 8 -5.5 13.5t-13.5 5.5h-95q-8 0 -13.5 -5.5t-5.5 -13.5v-131h-21q-2 0 -3.5 1.5t-1.5 3.5v172q0 2 1.5 3.5t3.5 1.5h176 q2 0 3.5 -1.5t1.5 -3.5v-172z" />
</svg>