<svg viewBox="0 0 256 256" xmlns="http://www.w3.org/2000/svg">
  <path transform="scale(1, -1) translate(0, -256)" fill="currentColor" d="M232 233h-15q-8 0 -13.5 -5.5t-5.5 -13.5v-14h-140v14q0 8 -5.5 13.5t-13.5 5.5h-15q-8 0 -13.5 -5.5t-5.5 -13.5v-37q0 -8 5.5 -13.5t13.5 -5.5h15q8 0 13.5 5.5t5.5 13.5v9h19v-43q0 -9 6.5 -16t15.5 -8v-49q-10 -9 -10 -21v-20q0 -3 2 -5t5 -2t5 2t2 5v20q0 6 4 9.5 t10 3.5h21q6 0 10 -3.5t4 -9.5v-20q0 -3 2 -5t5 -2t5 2t2 5v20q0 12 -10 21v49q9 1 15.5 7.5t6.5 15.5v44h21v-9q0 -8 5.5 -13.5t13.5 -5.5h14q8 0 13.5 5.5t5.5 13.5v37q0 8 -5.5 13.5t-13.5 5.5zM44 177q0 -2 -1.5 -3.5t-3.5 -1.5h-15q-2 0 -3.5 1.5t-1.5 3.5v37 q0 3 1.5 4.5t3.5 1.5h15q2 0 3.5 -2t1.5 -4v-37zM119 146q0 4 2.5 6t6 2t6 -2.5t2.5 -5.5t-2.5 -5.5t-6 -2.5t-6 2t-2.5 6zM138 77h-22l-3 -1v43h29v-43zM164 186v-44q0 -4 -3 -6.5t-7 -2.5h-8q4 6 4 12q0 9 -6.5 16t-16 7t-16 -7t-6.5 -16q0 -6 4 -12h-7q-4 0 -7 3t-3 7v43 h72v0zM237 177q0 -2 -1.5 -3.5t-3.5 -1.5h-15q-2 0 -3.5 1.5t-1.5 3.5v37q0 2 1.5 4t3.5 2h15q2 0 3.5 -1.5t1.5 -4.5v-37z" />
</svg>