<svg viewBox="0 0 1024 1024" xmlns="http://www.w3.org/2000/svg">
  <path transform="scale(1, -1) translate(0, -960)" fill="currentColor" d="M928 858h-59q-27 0 -45.5 -19t-18.5 -45v-69h-586v69q0 26 -18.5 45t-45.5 19h-59q-26 0 -45 -19t-19 -45v-149q0 -27 19 -45.5t45 -18.5h59q27 0 45.5 18.5t18.5 45.5v48h107l-4 -6t-2 -7v-171q0 -35 25 -60t60 -25h1v-210v-1.5v-1.5q-18 -13 -29 -34t-11 -46v-78 q0 -7 4.5 -11.5t11.5 -4.5q8 0 12 4.5t4 11.5v78q0 28 20 47.5t48 19.5h86q28 0 47.5 -19.5t19.5 -47.5v-78q0 -7 4.5 -11.5t11.5 -4.5t11.5 4.5t4.5 11.5v78q0 24 -11 45t-29 35v1.5v1.5v212h7q33 0 56.5 23.5t23.5 56.5v176q0 3 -2 6.5t-5 5.5h114v-48q0 -26 18.5 -45 t45.5 -19h59q26 0 45 19t19 45v149q0 25 -19 44t-45 19v0zM187 645q0 -13 -9.5 -22.5t-22.5 -9.5h-59q-13 0 -22.5 9.5t-9.5 22.5v149q0 13 9.5 22.5t22.5 9.5h59q13 0 22.5 -9.5t9.5 -22.5v-149zM579 227q-6 3 -13 3h-14h-86q-8 0 -15 -1t-13 -2v199h141v-199zM464 520 q0 19 13.5 32.5t32.5 13.5q20 0 33.5 -13.5t13.5 -32.5t-13.5 -32.5t-33.5 -13.5t-33 13.5t-13 32.5zM666 680v-176q0 -20 -14.5 -34t-33.5 -14h-61q14 11 23 27t9 35q0 33 -23 56t-56 23q-32 0 -55 -23t-23 -54q0 -19 9 -35.5t23 -26.5h-56q-22 0 -37.5 15.5t-15.5 36.5 v170q0 4 -2 7l-4 6h323q-2 -3 -4 -5.5t-2 -7.5v0zM960 645q0 -13 -9.5 -22.5t-22.5 -9.5h-59q-13 0 -22.5 9.5t-9.5 22.5v149q0 13 9.5 22.5t22.5 9.5h59q13 0 22.5 -9.5t9.5 -22.5v-149z" />
</svg>