<svg viewBox="0 0 1024 1024" xmlns="http://www.w3.org/2000/svg">
  <path transform="scale(1, -1) translate(0, -960)" fill="currentColor" d="M864 782h-27v13q0 55 -39 94t-94 39h-382q-56 0 -94.5 -39t-38.5 -94v-13h-29q-26 0 -45 -18.5t-19 -45.5v-686q0 -26 19 -45t45 -19h704q26 0 45 19t19 45v686q0 27 -19 45.5t-45 18.5zM219 795q0 42 29.5 71.5t71.5 29.5h381q42 0 71.5 -29.5t29.5 -71.5v-13h-583v13v0 zM288 0v536q0 13 9.5 22.5t22.5 9.5h176v-568h-208zM528 0v568h176q13 0 22.5 -9.5t9.5 -22.5v-536h-208zM896 32q0 -13 -9.5 -22.5t-22.5 -9.5h-96v536q0 26 -19 45t-45 19h-384q-26 0 -45 -19t-19 -45v-536h-96q-13 0 -22.5 9.5t-9.5 22.5v686q0 14 9.5 23t22.5 9h704 q13 0 22.5 -9t9.5 -23v-686z" />
</svg>