<svg viewBox="0 0 256 256" xmlns="http://www.w3.org/2000/svg">
  <path transform="scale(1, -1) translate(0, -256)" fill="currentColor" d="M202 196v0q-6 17 -18 30q-18 18 -41 23q-15 3 -30 0q-23 -4 -41 -23q-10 -11 -17 -29l-1 -1q-7 -18 -5.5 -35.5t11.5 -35.5l16 -23q6 -7 8 -12q3 -6 4 -13q1 -2 3 -3.5t4 -1.5h67q2 0 4 1.5t2 3.5q2 8 4.5 12.5t7.5 10.5l6 10q7 8 10 15q11 18 12 35q1 16 -6 35v1z M189 191q3 -7 4 -12q1 -8 1 -17q-2 -15 -10 -30l-16 -22q-5 -7 -7.5 -13t-4.5 -11h-56l-4 11q-3 7 -8 13l-16 24q-9 15 -10 28.5t5 29.5v1q6 15 15 24q15 15 34 19q12 2 24 0q19 -4 34 -20q9 -9 15 -24v-1zM154 54h-52q-3 0 -5 -2.5t-2 -5.5t2 -5t5 -2h51q3 0 5 2t2 5 t-2 5.5t-4 2.5zM145 19h-34q-3 0 -5 -2t-2 -5t2 -5.5t5 -2.5h34q3 0 5 2.5t2 5.5t-2 5t-5 2z" />
</svg>