<svg viewBox="0 0 256 256" xmlns="http://www.w3.org/2000/svg">
  <path transform="scale(1, -1) translate(0, -256)" fill="currentColor" d="M144 235h-9v9q0 3 -2 5t-5 2t-5.5 -2t-2.5 -5v-9h-8q-25 0 -45.5 -12.5t-32.5 -33t-12 -45.5v-34q0 -7 6 -11q4 -2 7.5 -1.5t5.5 2.5l21 14l26 -18q7 -4 14 0l19 13v-90h-25q-3 0 -5 -2t-2 -5t2 -5t5 -2h64q3 0 5 2t2 5t-2 5t-5 2h-25v89l19 -12q3 -2 7 -2t7 2l26 17 l21 -14q6 -4 13 -1q3 2 4.5 5t1.5 7v34q0 25 -12 45.5t-32.5 33t-45.5 12.5zM220 112l-19 13q-7 5 -14 0l-26 -17l-29 20q-2 1 -4 1t-4 -1l-29 -20l-26 18q-3 2 -6.5 2t-7.5 -2l-19 -13v31q0 21 10 38.5t27.5 28t38.5 10.5h32q21 0 38.5 -10.5t27.5 -28t10 -38.5v-32z" />
</svg>