<svg viewBox="0 0 1024 1024" xmlns="http://www.w3.org/2000/svg">
  <path transform="scale(1, -1) translate(0, -960)" fill="currentColor" d="M797 715v1v1q-6 17 -21 48.5t-46 64.5q-34 36 -73.5 59t-85.5 33q-29 6 -57 6t-56 -6q-47 -9 -87.5 -31.5t-74.5 -58.5q-31 -34 -46.5 -65.5t-22.5 -49.5q-7 -21 -16.5 -56t-5.5 -80q2 -35 13.5 -69.5t31.5 -68.5q8 -13 19 -30.5t27 -38.5q5 -7 8.5 -12t7.5 -10l2 -2 q9 -13 15.5 -23t12.5 -23t11 -27t9 -27q1 -5 5.5 -8.5t10.5 -3.5h265q6 0 10.5 3.5t5.5 8.5q4 14 9 28t12 26q6 13 12.5 23t16.5 22l25 35q12 17 22 31.5t17 27.5q8 15 24.5 50.5t20.5 87.5q3 45 -5.5 79.5t-15.5 54.5v0zM786 582v0v0q-4 -45 -19.5 -77.5t-22.5 -45.5 t-16.5 -27t-20.5 -30l-25 -36q-10 -13 -17.5 -24t-14.5 -25q-6 -11 -11 -23.5t-9 -24.5h-238q-4 12 -8.5 24t-9.5 24q-7 15 -14.5 26.5t-17.5 24.5l-1 2q-4 4 -7.5 9.5t-8.5 12.5q-15 20 -26.5 37t-18.5 30q-18 30 -28.5 61t-13.5 62q-3 41 5.5 72.5t15.5 51.5q6 16 19.5 44 t41.5 58q30 32 65.5 52.5t75.5 29.5q25 4 50 4t51 -4q40 -8 76 -28t66 -52q29 -30 42 -58.5t19 -44.5v0v-1q8 -20 16 -51.5t5 -72.5v0zM614 139h-204q-8 0 -12 -4.5t-4 -11.5t4 -11.5t12 -4.5h203q7 0 11.5 4.5t4.5 11.5t-4.5 11.5t-10.5 4.5zM579 0h-134q-7 0 -11.5 -4.5 t-4.5 -11.5t4.5 -11.5t11.5 -4.5h134q7 0 11.5 4.5t4.5 11.5t-4.5 11.5t-11.5 4.5z" />
</svg>