<svg viewBox="0 0 1024 1024" xmlns="http://www.w3.org/2000/svg">
  <path transform="scale(1, -1) translate(0, -960)" fill="currentColor" d="M898 453h-772q-38 0 -66 -27.5t-28 -67.5v-76q0 -8 4.5 -12t11.5 -4h235v-258h-120q-7 0 -11.5 -4.5t-4.5 -11.5t4.5 -11.5t11.5 -4.5h135v0v0v0v0h424v0v0v0v0h134q7 0 11.5 4.5t4.5 11.5t-4.5 11.5t-11.5 4.5h-120v258h240q7 0 11.5 4t4.5 12v76q0 39 -27.5 67 t-66.5 28v0zM709 8h-394v258h394v-258zM960 298h-896v60q0 26 18 44.5t44 18.5h773q25 0 44 -18t19 -45v-60h-2zM726 786l2 1q17 17 41.5 17t41.5 -17l37 -35q8 -8 13 -19t5 -23t-5 -22.5t-13 -18.5l-2 -2q-4 -5 -4 -11t4 -11q3 -3 6 -4t6 -1q2 0 5 1t6 4l1 1q14 14 21 30 t7 34t-7 34.5t-21 29.5l-4 5l113 114q5 5 5 11t-5 11t-11 5t-11 -5l-114 -113l-8 8q-26 26 -63.5 26t-64.5 -26l-3 -2q-5 -5 -5 -11.5t5 -10.5q5 -5 11.5 -5t10.5 5v0zM158 779l-4 -5q-27 -26 -27 -63.5t27 -64.5l1 -1q3 -3 6 -4t5 -1q4 0 6.5 1t5.5 4q4 5 4 11t-4 11l-2 2 q-17 17 -17 41.5t17 41.5l35 35q17 17 42 17t41 -17l2 -1q5 -5 11.5 -5t10.5 5q5 4 5 10.5t-5 11.5l-1 2q-27 26 -64.5 26t-63.5 -26l-8 -8l-114 113q-5 5 -11 5t-11 -5t-5 -11t5 -11l113 -114v0z" />
</svg>