<svg viewBox="0 0 256 256" xmlns="http://www.w3.org/2000/svg">
  <path transform="scale(1, -1) translate(0, -256)" fill="currentColor" d="M184 184q3 0 5 2t2 5t-2 5t-5 2h-8q-2 17 -13.5 28.5t-28.5 13.5v4q0 3 -2 5t-4.5 2t-4.5 -2t-2 -5v-5q-16 -2 -27.5 -13.5t-14.5 -27.5h-7q-3 0 -5 -2.5t-2 -5t2 -4.5t5 -2h6v-89l-10 -82q-1 -3 1 -5.5t6 -2.5h69h2h34q4 0 6 2.5t1 5.5l-11 82v89h8zM93 184h70v-83h-70 v83zM128 226q12 0 22 -8t12 -20h-69q3 12 12.5 20t22.5 8zM137 19h-19v18q0 2 1.5 3.5t4.5 1.5h8q2 0 3.5 -1.5t1.5 -3.5v-18zM151 19v18q0 8 -5.5 13.5t-13.5 5.5h-8q-8 0 -14 -5.5t-6 -13.5v-18h-21l9 68h72l9 -68h-22zM128 165q-9 0 -14.5 -6t-5.5 -14.5t5.5 -14t14 -5.5 t14.5 5.5t6 14t-6 14.5t-14 6zM128 139q-3 0 -4.5 1.5t-1.5 4t1.5 4.5t4 2t4.5 -2t2 -4.5t-2 -4t-4 -1.5z" />
</svg>