<svg viewBox="0 0 1024 1024" xmlns="http://www.w3.org/2000/svg">
  <path transform="scale(1, -1) translate(0, -960)" fill="currentColor" d="M702 694l-40 162q-8 31 -33 51.5t-58 20.5h-115q-32 0 -58 -20t-33 -52l-40 -162q-5 -21 -1 -42t18 -39q14 -17 33.5 -27t42.5 -10h78v-576h-59q-7 0 -11.5 -4.5t-4.5 -11.5t4.5 -11.5t11.5 -4.5h150q7 0 11.5 4.5t4.5 11.5t-4.5 11.5t-11.5 4.5h-59v576h82 q21 0 40.5 9.5t34.5 27.5q13 17 17.5 38.5t-0.5 42.5v0zM659 632q-8 -12 -21.5 -18t-27.5 -6h-196q-14 0 -27 6t-22 18t-12 26t1 28l40 162q4 20 21.5 34t38.5 14h116q21 0 38.5 -13t21.5 -35l40 -162q4 -14 1.5 -28t-12.5 -26v0z" />
</svg>