<svg viewBox="0 0 256 256" xmlns="http://www.w3.org/2000/svg">
  <path transform="scale(1, -1) translate(0, -256)" fill="currentColor" d="M224 132h-192q-11 0 -19 -8t-8 -18v-20q0 -3 2 -5t5 -2h56v-58h-26q-3 0 -5.5 -2t-2.5 -5t2.5 -5.5t5.5 -2.5h173q3 0 5 2.5t2 5.5t-2 5t-5 2h-27v58h56q3 0 5 2t2 5v20q0 10 -8 18t-19 8zM174 21h-92v58h92v-58zM237 93h-218v13q0 5 3.5 8.5t9.5 3.5h193q5 0 8.5 -3.5 t3.5 -8.5v-13zM184 210v1q4 3 9 3t8 -3l9 -9q4 -4 4 -8.5t-4 -8.5v0q-2 -2 -2.5 -5t2 -5t5 -2t4.5 2h1q7 8 7 18t-7 18l27 26q2 2 2 5t-2 5t-5 2t-5 -2l-27 -26q-7 7 -18 7t-18 -7v-1q-2 -2 -2 -5t2 -5t5 -2t5 2zM35 211q-7 -8 -6.5 -18t7.5 -17v-1q2 -2 5 -2t5 2t2 5t-2 5 v1q-4 3 -4 8t4 8l8 9q4 4 9 3.5t8 -3.5h1q2 -2 5 -2t5 2t2 5t-2 5h-1q-7 8 -18 8t-18 -8l-26 26q-2 2 -5 2t-5 -2t-2 -5t2 -5z" />
</svg>