<svg viewBox="0 0 1024 1024" xmlns="http://www.w3.org/2000/svg">
  <path transform="scale(1, -1) translate(0, -960)" fill="currentColor" d="M736 683q7 0 11.5 4.5t4.5 11.5t-4.5 11.5t-11.5 4.5h-42q-6 67 -53 114.5t-113 53.5v29q0 7 -4.5 11.5t-11.5 4.5t-11.5 -4.5t-4.5 -11.5v-29q-66 -6 -114 -53.5t-52 -114.5h-42q-7 0 -11.5 -4.5t-4.5 -11.5t4.5 -11.5t11.5 -4.5h38v-369l-43 -327q0 -3 0.5 -6.5 t2.5 -6.5q3 -2 6.5 -3t6.5 -1h143q1 0 2 -1t2 -1h130h2.5t2.5 2h142q4 0 7.5 1t5.5 3q2 3 3 6.5t0 6.5l-43 327v369h40v0zM358 683h304v-355h-304v355zM510 851q59 0 102.5 -39t48.5 -97h-301q6 58 49 97t101 39zM560 2h-99v84q0 14 9.5 23t22.5 9h35q13 0 22.5 -9t9.5 -23 v-84zM592 2v84q0 27 -19 45.5t-45 18.5h-34q-26 0 -45 -18.5t-19 -45.5v-84h-112l40 296h308l38 -296h-112v0zM510 582q-27 0 -47 -19.5t-20 -47.5q0 -27 20 -47t47 -20q28 0 48 20t20 47q0 28 -19.5 47.5t-48.5 19.5v0zM510 478q-14 0 -24.5 10.5t-10.5 25.5 q0 14 10.5 24.5t24.5 10.5q15 0 25.5 -10.5t10.5 -24.5q1 -15 -9.5 -25.5t-26.5 -10.5v0z" />
</svg>