<svg viewBox="0 0 1024 1024" xmlns="http://www.w3.org/2000/svg">
  <path transform="scale(1, -1) translate(0, -960)" fill="currentColor" d="M576 862h-48v50q0 7 -4.5 11.5t-11.5 4.5t-11.5 -4.5t-4.5 -11.5v-50h-48q-72 0 -135 -27q-64 -28 -111.5 -75t-74.5 -111q-28 -63 -28 -135v-138q0 -11 5.5 -20t15.5 -14q10 -4 20 -4t20 6l86 58q2 1 4 1t3 -1l107 -72q10 -6 22 -6t21 6l95 64v-394h-111 q-7 0 -11.5 -4.5t-4.5 -11.5t4.5 -11.5t11.5 -4.5h255q7 0 11.5 4.5t4.5 11.5t-4.5 11.5t-11.5 4.5h-114v392l96 -64q5 -4 10.5 -5t10.5 -1q6 0 11 1t10 5l107 72q1 1 3 1t3 -1l85 -58q8 -6 19 -6t21 5t15.5 14t5.5 19v138q0 73 -27 136q-27 64 -74.5 111.5t-111.5 75.5 q-63 27 -136 27v0zM894 376q0 -2 -1 -3.5t-2 -1.5t-2.5 -0.5t-3.5 0.5l-85 58q-10 6 -22 6t-21 -6l-107 -72q-2 -1 -4 -1t-3 1l-120 80q-3 2 -8.5 2t-8.5 -2l-120 -80q-2 -1 -4 -1t-3 1l-107 72q-5 3 -10.5 4.5t-10.5 1.5t-10.5 -1.5t-10.5 -4.5l-86 -58q-2 -1 -3.5 -1 t-2.5 1q-2 0 -3 1.5t-1 3.5v138q-1 65 23 123q24 57 66.5 100t100.5 68t124 25h128q66 0 124 -25t101 -68t68 -100q25 -58 25 -123v-138z" />
</svg>