<svg viewBox="0 0 256 256" xmlns="http://www.w3.org/2000/svg">
  <path transform="scale(1, -1) translate(0, -256)" fill="currentColor" d="M231 62h-9v15q0 12 -8.5 20.5t-20 8.5t-20 -8.5t-8.5 -20.5v-15h-9q-3 0 -5 -2t-2 -5v-43q0 -3 2 -5t5 -2h75q3 0 5 2t2 5v44q0 3 -2 4.5t-5 1.5zM179 77q0 6 4.5 10.5t10.5 4.5t10 -4.5t4 -10.5v-15h-28v15h-1zM224 19h-61v29h61v-29zM156 171h44q7 0 13 -5q4 -4 6 -9.5 t1 -10.5q0 -3 1.5 -5.5t4.5 -2.5h1q3 0 5 1.5t2 4.5q2 9 -1.5 18t-10.5 15q-10 8 -23 8h-37v25q0 24 -14 34q-10 7 -22 7q-8 0 -14 -2v0q-4 -1 -6 -4.5t-2 -6.5v-36q0 -18 -22 -29q0 3 -2 4.5t-5 1.5h-38q-8 0 -13.5 -5.5t-5.5 -13.5v-104q0 -8 5.5 -13.5t13.5 -5.5h38 q2 0 4 1.5t3 3.5q6 -2 14 -2h20q3 0 5.5 2t2.5 5t-2.5 5t-5.5 2h-20q-8 0 -14 5v99q14 5 23 15q13 13 13 29v34q3 1 8 1q9 0 14 -4q9 -7 9 -23v-32q0 -3 2 -5t5 -2zM68 52h-31q-2 0 -3.5 1.5t-1.5 3.5v104q0 2 1.5 3.5t3.5 1.5h31v-114z" />
</svg>