<svg viewBox="0 0 1024 1024" xmlns="http://www.w3.org/2000/svg">
  <path transform="scale(1, -1) translate(0, -960)" fill="currentColor" d="M923 174h-48v71q0 42 -29.5 71.5t-71.5 29.5t-71 -29.5t-29 -71.5v-71h-48q-8 0 -12 -4t-4 -12v-174q0 -7 4 -11.5t12 -4.5h299q7 0 11.5 4.5t4.5 11.5v174q-1 6 -6 11t-12 5v0zM706 245q0 29 20 49t48 20q29 0 49 -20t20 -49v-71h-137v71v0zM907 0h-267v142h267v-142z M622 634h176q17 0 33.5 -6t29.5 -18q19 -17 28 -42t5 -51q-1 -6 3 -12t10 -6h1.5h1.5q6 0 10.5 3.5t5.5 9.5q6 35 -6 67.5t-38 54.5q-18 14 -39.5 22t-44.5 8h-160v110q0 45 -13 77t-39 51q-17 12 -37.5 18t-42.5 6q-23 0 -38 -4l-15 -4v0v0q-11 -3 -18.5 -13t-7.5 -22v-142 q0 -61 -44.5 -92t-67.5 -41v14q0 8 -4.5 12t-11.5 4h-150q-27 0 -45.5 -18.5t-18.5 -45.5v-416q0 -26 18.5 -45t45.5 -19h150q7 0 11.5 4.5t4.5 11.5v18q16 -10 32.5 -14.5t34.5 -4.5h84q7 0 11.5 4.5t4.5 11.5t-4.5 11.5t-11.5 4.5h-84q-18 0 -35 7t-32 20v410q16 4 80 42 t64 124v142q0 2 1 3t2 1l12.5 3t29.5 3q18 0 33.5 -4.5t28.5 -13.5q21 -14 30.5 -40t9.5 -62v-126q0 -8 5 -12t11 -4zM283 130h-134q-13 0 -22.5 9t-9.5 23v416q0 13 9.5 22.5t22.5 9.5h134v-480z" />
</svg>