<svg viewBox="0 0 256 256" xmlns="http://www.w3.org/2000/svg">
  <path transform="scale(1, -1) translate(0, -256)" fill="currentColor" d="M237 164q-11 10 -25 10h-44v29q0 26 -16 39q-10 7 -24 7q-5 0 -11 -1l-5 -1q-4 -1 -6.5 -4.5t-2.5 -7.5v-41q0 -13 -10 -23q-6 -7 -17 -11v0q0 3 -2 5t-5 2h-45q-8 0 -13.5 -5.5t-5.5 -13.5v-122q0 -8 5.5 -14t13.5 -6h45q3 0 5 2.5t2 4.5q8 -4 16 -4h100q19 0 31 10 t15 28l12 80q2 11 -1.5 21t-11.5 16zM62 21h-38q-2 0 -3.5 1.5t-1.5 3.5v122q0 2 1.5 3.5t3.5 1.5h38v-132zM237 130l-13 -81q-2 -12 -10 -18.5t-22 -6.5h-100q-9 0 -16 6v115q13 4 24 14q17 14 17 35v40q5 1 10 1q10 0 17 -5q10 -8 10 -27v-37q0 -3 2 -5t5 -2h51q9 0 16 -6 q5 -4 7.5 -10t1.5 -13z" />
</svg>