<svg viewBox="0 0 1024 1024" xmlns="http://www.w3.org/2000/svg">
  <path transform="scale(1, -1) translate(0, -960)" fill="currentColor" d="M358 536q0 7 -4 11.5t-12 4.5h-182q-7 0 -11.5 -4.5t-4.5 -11.5t4.5 -11.5t11.5 -4.5h182q6 0 11 5t5 11zM864 552h-182q-8 0 -12 -4.5t-4 -11.5t4 -11.5t12 -4.5h182q7 0 11.5 4.5t4.5 11.5t-4.5 11.5t-11.5 4.5zM510 714q8 0 12 4t4 12v182q0 7 -4 11.5t-12 4.5 q-7 0 -11.5 -4.5t-4.5 -11.5v-182q0 -8 4.5 -12t11.5 -4zM648 646q4 0 6.5 1.5t4.5 3.5l130 130q5 5 5 11t-5 11t-11.5 5t-11.5 -5l-129 -129q-5 -5 -5 -11.5t5 -11.5q2 -2 5.5 -3.5t5.5 -1.5v0zM365 651q2 -2 5.5 -3.5t5.5 -1.5t5.5 1.5t5.5 3.5q5 5 5 11.5t-5 11.5 l-129 129q-5 5 -11.5 5t-11.5 -5t-5 -11t5 -11l130 -130v0zM786 381q-15 12 -31.5 18t-34.5 6h-117v80q0 35 -10.5 60t-30.5 39q-14 10 -29.5 14.5t-34.5 4.5q-17 0 -28.5 -3l-11.5 -3v0v0q-10 -3 -16.5 -11.5t-6.5 -19.5v-107q0 -42 -28.5 -64.5t-48.5 -29.5v5q0 7 -4 11.5 t-12 4.5h-102q-26 0 -45 -19t-19 -45v-290q0 -26 19 -45t45 -19h102q8 0 12 4.5t4 11.5v3q11 -6 23 -8.5t24 -2.5h264q49 0 80.5 26t37.5 72l34 212q3 27 -6 52.5t-29 42.5v0zM325 0h-87q-13 0 -22.5 9.5t-9.5 22.5v291q0 13 9.5 22.5t22.5 9.5h87v-355zM789 291l-34 -213 q-3 -33 -26 -51.5t-60 -18.5h-264q-13 0 -25 5t-22 14v306q16 6 62.5 35.5t46.5 93.5v108l8.5 2t22.5 2q13 0 24.5 -3t19.5 -9q15 -11 22 -29.5t7 -44.5v-96q0 -7 4.5 -11.5t11.5 -4.5h133q12 0 23.5 -4.5t21.5 -11.5q14 -14 20 -32.5t4 -36.5v0z" />
</svg>