<svg viewBox="0 0 256 256" xmlns="http://www.w3.org/2000/svg">
  <path transform="scale(1, -1) translate(0, -256)" fill="currentColor" d="M252 145q0 28 -17 51t-45.5 36.5t-61.5 13.5t-61.5 -13.5t-45.5 -36.5t-17 -51q0 -24 13.5 -45.5t37 -35.5t53.5 -18q3 0 6.5 -2t4 -4t0.5 -8l-2 -14q-1 -5 1 -7.5t9.5 1t25.5 15.5q20 13 38 26q23 17 35 31q26 28 26 61zM84 116q0 -1 -0.5 -1.5t-1.5 -0.5h-37v2v54 q0 1 0.5 1.5t1.5 0.5h9q1 0 1.5 -0.5t0.5 -1.5v-43h24l1 -0.5t1 -1.5v-9zM105 116q0 -1 -1 -1.5t-2 -0.5h-8q-1 0 -1.5 0.5t-0.5 1.5v54q0 1 0.5 1.5t1.5 0.5h8q1 0 2 -0.5t1 -1.5v-54zM165 116q0 -1 -0.5 -1.5t-1.5 -0.5h-9l-26 34v-32q0 -1 -0.5 -2t-1.5 -1h-9 q-1 0 -1.5 1t-0.5 2v54q0 1 0.5 1.5t1.5 0.5h9l25 -34v32q0 1 0.5 2t1.5 1h10q1 0 1.5 -1t0.5 -2v-54zM213 161q0 -1 -0.5 -1.5t-1.5 -0.5h-24v-9h24q1 0 1.5 -1t0.5 -2v-8q0 -1 -0.5 -2t-1.5 -1h-24v-8h24q1 0 1.5 -0.5t0.5 -1.5v-9q0 -1 -0.5 -1.5t-1.5 -0.5h-37v2v55l2 1 h35q1 0 1.5 -1t0.5 -2v-9z" />
</svg>