<svg viewBox="0 0 1024 1024" xmlns="http://www.w3.org/2000/svg">
  <path transform="scale(1, -1) translate(0, -960)" fill="currentColor" d="M451 581q-24 31 -47.5 47.5t-56.5 16.5q-27 0 -45.5 -18.5t-18.5 -45.5q0 -26 18.5 -45t45.5 -19q41 0 67.5 25t59.5 71l1 1q9 13 19.5 26t21.5 26q-12 -13 -22.5 -27l-19.5 -26l-4 -6l-4 -6l-8 -10t-7 -10v0zM347 752q60 0 100.5 -25t70.5 -59q29 34 69.5 59t100.5 25 q71 0 121 -50t50 -121h-107q0 27 -18.5 45.5t-45.5 18.5q-41 0 -67.5 -24.5t-59.5 -70.5l4 6t5 5v0v0q3 6 7 11t7 9q24 -31 47.5 -47.5t56.5 -16.5q27 0 45.5 19t18.5 45h107q0 -70 -50 -120.5t-121 -50.5q-59 0 -100 25.5t-70 58.5q-30 -33 -70.5 -58.5t-100.5 -25.5 q-71 0 -121 50.5t-50 120.5q0 71 50 121t121 50v0zM560 549q-9 -13 -19 -26.5t-22 -26.5q12 14 22.5 27.5t19.5 26.5l-1 -1v0zM16 318v-178h102v23h-77v155h-25v0zM136 305v-24h25v24h-25zM136 268v-128h25v128h-25zM449 305v-24h25v24h-25zM449 268v-128h25v128h-25z M289 237l2 -8l2 -8q0 -3 0.5 -6t0.5 -5v-1.5v-0.5v-69h-25v60q0 4 -0.5 8t-0.5 8q-1 4 -2 7.5t-3 6.5q-2 4 -4 6.5t-6 4.5q-3 2 -7 3.5t-9 1.5q-4 0 -7 -1l-6 -2t-5.5 -2.5t-5.5 -4.5q-2 -2 -3.5 -5t-3.5 -8q-1 -4 -1.5 -8.5t-0.5 -10.5h-1v-64h-25v129h25v-16l5 5t5 4 q7 3 14 5t16 2q7 0 12.5 -1t9.5 -3q5 -2 8.5 -5t6.5 -7q3 -3 5 -7l4 -8v0zM878 237q2 -4 2.5 -8t1.5 -8q0 -1 0.5 -2.5t0.5 -3.5t0.5 -4t0.5 -3v-69h-25v60q0 4 -0.5 8t-0.5 8q-1 4 -2 7.5t-3 6.5q-2 4 -4.5 6.5t-5.5 4.5t-7.5 3.5t-9.5 1.5q-3 0 -6.5 -1t-6.5 -2t-5.5 -2.5 t-4.5 -4.5q-2 -2 -4 -5t-3 -8q-2 -4 -2.5 -8.5t-0.5 -10.5v0v-64h-25v129h25v-16q2 3 4.5 5t5.5 4q6 3 13.5 5t15.5 2q7 0 12.5 -1t10.5 -3q4 -2 8 -5t7 -7q2 -3 4.5 -7t3.5 -8v0zM434 197h-13v0h-82q1 -8 3 -14t6 -11q5 -5 11.5 -8t15.5 -3q6 0 11 1.5t9 3.5q4 3 7.5 6.5 t5.5 8.5l25 -8q-4 -8 -9.5 -14.5t-13.5 -10.5t-16.5 -6.5t-17.5 -2.5q-10 0 -18.5 2t-15.5 6t-12.5 9.5t-9.5 12.5q-4 8 -6 16t-2 18t1.5 18.5t5.5 15.5q4 8 9.5 13.5t12.5 9.5t15.5 6t17.5 2q10 0 18.5 -2t15.5 -6q6 -4 11.5 -10.5t8.5 -14.5q4 -8 5 -17.5t1 -20.5v0z M375 247q-10 0 -17 -2.5t-11 -8.5q-3 -4 -5 -8.5t-4 -10.5h70q-1 6 -3 11.5t-5 8.5q-4 5 -10.5 7.5t-14.5 2.5v0zM517 148q7 -4 15.5 -6t18.5 -2t19 2t16 7t12 11.5t9 15.5l-26 6q-1 -5 -4 -8.5t-7 -6.5t-8.5 -4t-10.5 -1q-9 0 -16 2.5t-11 8.5q-5 6 -7 14t-2 17q0 6 1 11.5 t3 10.5q1 5 4 8.5t7 6.5q4 2 9 3.5t11 1.5t11 -1.5t9 -4.5t7 -6.5t5 -9.5l25 7q-3 8 -8 15t-12 12q-8 5 -17 7.5t-19 2.5t-18.5 -2t-15.5 -6t-12 -9.5t-9 -13.5q-4 -7 -6 -15.5t-2 -17.5t2 -17.5t6 -15.5q3 -7 8.5 -13t12.5 -10v0zM654 148q7 -4 15.5 -6t17.5 -2 q10 0 18 1.5t16 5.5q7 5 12.5 10.5t9.5 12.5t5.5 15.5t1.5 18.5q0 9 -1.5 17.5t-5.5 15.5q-4 8 -9.5 13.5t-12.5 9.5t-15.5 6t-18.5 2q-9 0 -17.5 -2t-15.5 -6t-12.5 -9.5t-9.5 -12.5q-4 -8 -6 -16.5t-2 -17.5t2 -17.5t6 -15.5q4 -8 9.5 -13.5t12.5 -9.5v0zM715 173 q-5 -6 -11.5 -8.5t-16.5 -2.5q-9 0 -15.5 3t-11.5 9q-5 5 -7 13t-2 17q0 6 1 11.5t3 10.5t5 8.5t7 6.5q4 2 9 3.5t11 1.5q10 0 16.5 -3t11.5 -8q4 -6 6.5 -14t2.5 -17q0 -10 -2.5 -17.5t-6.5 -13.5v0zM918 149q8 -5 17.5 -7t20.5 -2q13 0 22.5 2.5t15.5 7.5q7 5 10.5 12.5 t3.5 16.5q0 4 -1 8t-3 8q-2 3 -5.5 5.5t-8.5 5.5q-4 2 -10.5 4.5t-14.5 4.5q-8 1 -14 3l-9 3q-4 1 -6.5 2.5t-4.5 2.5q-1 2 -1.5 3.5t-0.5 3.5q0 4 1.5 6.5t4.5 4.5q4 2 8.5 3t10.5 1t10.5 -1.5t8.5 -4.5q3 -2 5.5 -5.5t2.5 -8.5l26 5q-1 5 -3 10t-6 9q-3 4 -7.5 7t-10.5 5 t-12.5 3t-14.5 1q-7 0 -14 -1t-12 -3q-6 -3 -10 -6t-8 -7q-3 -4 -4.5 -9t-1.5 -11q0 -4 1.5 -8t3.5 -7t5.5 -5.5t8.5 -5.5q4 -2 11 -4t15 -4q7 -2 12 -3.5t9 -3.5h0.5h0.5q4 -1 6.5 -2.5t3.5 -3.5q1 -1 1.5 -3t0.5 -4q0 -4 -1.5 -7t-4.5 -5q-3 -3 -8 -4t-10 -1q-7 0 -12 1.5 t-10 3.5q-4 3 -6.5 7t-4.5 9l-25 -4q2 -9 6.5 -16t11.5 -12v0z" />
</svg>