<svg viewBox="0 0 1024 1024" xmlns="http://www.w3.org/2000/svg">
  <path transform="scale(1, -1) translate(0, -960)" fill="currentColor" d="M152 409q-12 -13 -28 -23t-40 -10q-28 0 -48 20t-20 48t20 48t48 20q24 0 40.5 -10t27.5 -23q12 13 28 23t40 10q28 0 48 -20t20 -48t-20 -48t-48 -20q-24 0 -40.5 10t-27.5 23zM245 444q0 10 -7.5 17.5t-18.5 7.5q-13 0 -22 -6.5t-19 -18.5q10 -12 19 -18.5t22 -6.5 q11 0 18.5 7.5t7.5 17.5zM125 444q-9 12 -18.5 18.5t-22.5 6.5q-10 0 -17.5 -7.5t-7.5 -17.5t7.5 -17.5t17.5 -7.5q13 0 22.5 6.5t18.5 18.5v0zM336 393v119h17v-103h51v-16h-68v0zM416 487v17h16v-17h-16zM416 393v86h16v-86h-16zM625 487v17h16v-17h-16zM625 393v86h16 v-86h-16zM520 448q0 2 -0.5 4.5t-1.5 5.5t-2.5 5.5t-3.5 4.5q-2 3 -4.5 4.5t-5.5 3.5q-3 1 -6.5 2t-8.5 1t-10 -1.5t-9 -3.5q-2 -1 -4 -2.5t-3 -3.5v11h-17v-86h17v42v0q0 4 0.5 7.5t1.5 5.5q1 3 2 5t3 4q1 1 3 2.5t4 2.5q2 0 4 0.5t4 0.5q4 0 6.5 -0.5t4.5 -2.5q2 -1 4 -3 t3 -4t1.5 -4.5t1.5 -5.5q0 -3 0.5 -5.5t0.5 -4.5v-40h16v46v1v4t-1 4v0zM914 448q-1 2 -1.5 4.5t-1.5 5.5t-2.5 5.5t-3.5 4.5q-2 3 -4 4.5t-5 3.5q-4 1 -7.5 2t-7.5 1q-6 0 -11 -1.5t-9 -3.5q-2 -1 -3.5 -2.5l-3.5 -3.5v11h-16v-86h16v42v0q0 4 0.5 7.5t1.5 5.5q1 3 2 5t3 4 q1 1 3 2.5t4 2.5q2 0 4 0.5t4 0.5q4 0 6.5 -0.5t4.5 -2.5q3 -1 4.5 -3t2.5 -4t2 -4.5t1 -5.5q1 -3 1 -5.5v-4.5v-40h17v46q0 1 -0.5 2t-0.5 3v0v0v2v2v0zM606 432h9q0 7 -1 13t-3 12q-2 5 -5.5 9t-8.5 7q-4 3 -10 4.5t-12 1.5t-11.5 -1.5t-10.5 -4.5q-5 -2 -8.5 -6t-6.5 -9 q-2 -5 -3.5 -10.5t-1.5 -12.5q0 -6 1.5 -11.5t4.5 -10.5q2 -5 6 -8.5t9 -6.5q4 -3 10 -4t12 -1t12 1.5t11 4.5t9 7t6 10l-16 4q-2 -3 -4 -5.5t-5 -3.5q-3 -2 -6.5 -3t-6.5 -1q-6 0 -10.5 2t-8.5 6q-2 3 -3.5 7t-2.5 9h55v1v0zM557 457q3 4 7.5 6t10.5 2t10 -2t7 -5 q2 -2 3.5 -5.5t1.5 -7.5h-46q1 4 2.5 7t3.5 5zM693 393q-7 0 -12.5 1.5t-10.5 4.5q-4 2 -8 6t-6 9q-3 5 -4 10.5t-1 11.5t1.5 11.5t3.5 10.5q3 5 6.5 9t7.5 6q5 3 10.5 4.5t12.5 1.5t13 -2t11 -5t8 -7.5t5 -10.5l-17 -4q-1 3 -3 5.5t-5 4.5q-2 2 -5.5 3t-7.5 1t-7 -1l-6 -2 q-3 -2 -5 -4.5t-3 -6.5q-1 -3 -1.5 -6.5t-0.5 -7.5q0 -6 1.5 -11.5t4.5 -8.5q3 -4 7.5 -6t10.5 -2q4 0 7 1l6 2q2 2 4 4.5t3 5.5l17 -3q-2 -6 -5.5 -10.5t-8.5 -8.5q-5 -3 -11 -4.5t-12 -1.5v0zM784 393q-7 0 -12.5 1.5t-9.5 3.5q-5 3 -8.5 7t-6.5 9q-2 5 -3.5 10.5 t-1.5 11.5t1.5 12t3.5 10q3 5 6.5 9t8.5 6q4 3 10 4.5t12 1.5t11.5 -1.5t10.5 -4.5q5 -2 8.5 -6t6.5 -9q2 -5 3.5 -10.5t1.5 -11.5t-1.5 -12t-3.5 -11q-3 -4 -6.5 -8t-8.5 -7q-5 -2 -10.5 -3.5t-11.5 -1.5zM784 408q6 0 10.5 2t7.5 6q3 3 4.5 8.5t1.5 11.5t-1.5 11.5 t-4.5 8.5q-3 4 -7.5 6t-10.5 2q-5 0 -8 -1l-6 -2q-3 -2 -5 -4.5t-3 -5.5t-2 -7t-1 -8q0 -6 2 -11t5 -9t7.5 -6t10.5 -2v0zM963 393q-7 0 -13.5 1.5t-11.5 4.5q-5 4 -8 8.5t-4 10.5l17 2q0 -3 2 -5.5t5 -4.5q3 -1 6.5 -2t7.5 -1t7 0.5t5 2.5q2 1 3.5 3t1.5 5q0 2 -0.5 3 t-1.5 2t-2.5 2t-3.5 2h-2q-2 1 -5.5 2t-7.5 2q-6 1 -10.5 2.5t-7.5 3.5t-5.5 3.5t-3.5 3.5q-2 2 -2.5 4.5t-0.5 5.5q0 4 1 7.5t3 5.5q2 3 5 5t7 4q3 1 7.5 2t9.5 1t9.5 -1t8.5 -2q4 -2 7 -4t5 -4q3 -3 4.5 -6t1.5 -7l-17 -3q-1 3 -2.5 5.5t-3.5 4.5q-2 1 -5.5 2t-7.5 1 q-3 0 -6 -0.5t-6 -1.5q-2 -2 -3 -3.5t-1 -3.5v-3t1 -2t3 -2l4 -2q3 0 7 -1.5t9 -2.5t9.5 -2.5t7.5 -3.5q3 -1 5 -3l4 -4q1 -2 2 -5t1 -6q0 -6 -2.5 -10.5t-7.5 -8.5q-4 -3 -10.5 -5t-14.5 -2v0z" />
</svg>