<svg viewBox="0 0 1024 1024" xmlns="http://www.w3.org/2000/svg">
  <path transform="scale(1, -1) translate(0, -960)" fill="currentColor" d="M1008 517q0 83 -39 157t-106.5 129t-158.5 87q-90 32 -192 32t-192 -32t-157.5 -87t-107.5 -128q-39 -74 -39 -158q0 -75 31 -141q31 -67 86.5 -120t131.5 -88q76 -36 165 -48q12 -1 26 -7.5t18 -16.5q3 -8 2 -21.5t-1 -23.5l-3 -19t-3 -24q-1 -8 1 -25.5t42 1.5 q19 8 68 38q48 29 106.5 70t117.5 88q59 48 98 92v0q54 58 80 118.5t26 126.5zM336 400q0 -4 -3 -7t-7 -3h-139q-1 0 -3 1t-3 1v0v0q-1 1 -1.5 3t-0.5 3v0v218q0 4 3 7t7 3h33q4 0 7 -3t3 -7v-171h94q4 0 7 -3t3 -7v-35v0zM419 400q0 -4 -3 -7t-6 -3h-34q-4 0 -7 3t-3 7v216 q0 4 3 7t7 3h34q3 0 6 -3t3 -7v-216zM661 400q0 -4 -3 -7t-7 -3h-33h-2v0v0v0v0v0v0v0v0v0q-1 0 -1.5 1l-0.5 1l-102 134v-128q0 -3 -3 -6t-7 -3h-33q-4 0 -7 3t-3 6v216q0 4 3 7t7 3h33h0.5t1.5 -2l99 -132v128q0 3 3 6t7 3h38q4 0 7 -3t3 -6v-218zM853 581q0 -4 -3 -7 t-7 -3h-94v-37h94q4 0 7 -3t3 -6v-34q0 -3 -3 -6t-7 -3h-94v-34h94q4 0 7 -3t3 -7v-33q0 -4 -3 -7t-7 -3h-139q-1 0 -3 1t-3 1v0v0q-2 1 -2 3v3v0v216q0 1 1 3t1 4v0v0q1 1 3 1h3v0h139q4 0 7 -3t3 -6v-37v0z" />
</svg>