<svg viewBox="0 0 1024 1024" xmlns="http://www.w3.org/2000/svg">
  <path transform="scale(1, -1) translate(0, -960)" fill="currentColor" d="M598 870h373q7 0 11.5 4.5t4.5 11.5q0 8 -4.5 12t-11.5 4h-373q-7 0 -11.5 -4t-4.5 -12q0 -7 4.5 -11.5t11.5 -4.5v0zM971 610h-373q-7 0 -11.5 -4.5t-4.5 -11.5q0 -8 4.5 -12t11.5 -4h373q7 0 11.5 4t4.5 12q0 7 -5 11.5t-11 4.5zM971 318h-373q-7 0 -11.5 -4t-4.5 -12 q0 -7 4.5 -11.5t11.5 -4.5h373q7 0 11.5 4.5t4.5 11.5q0 8 -5 12t-11 4zM971 27h-373q-7 0 -11.5 -4.5t-4.5 -11.5t4.5 -11.5t11.5 -4.5h373q7 0 11.5 4.5t4.5 11.5t-5 11.5t-11 4.5zM376 752q5 -5 11.5 -5t10.5 5q5 5 5 11.5t-5 10.5l-134 135q-18 18 -43 18t-42 -18 l-136 -135q-5 -4 -5 -10.5t5 -11.5q3 -2 6 -3.5t5 -1.5q4 0 6.5 1.5t5.5 3.5l136 134q1 2 2 2t2 2v-1v-1v-882v-1.5v-1.5q-1 1 -2 2.5t-2 2.5l-136 136q-5 5 -11.5 5t-11.5 -5t-5 -11.5t5 -10.5l135 -136q8 -9 19.5 -13.5t23.5 -4.5v0v0q12 0 23.5 4.5t19.5 13.5l136 136 q5 4 5 10.5t-5 11.5t-11.5 5t-10.5 -5l-138 -136q-1 -1 -2 -1.5t-1 -1.5v0.5v0.5v884v1.5v1.5q1 -1 2 -1.5l3 -1.5l134 -138v0z" />
</svg>