<svg viewBox="0 0 256 256" xmlns="http://www.w3.org/2000/svg">
  <path transform="scale(1, -1) translate(0, -256)" fill="currentColor" d="M113 161q-7 9 -12.5 12.5t-13 3.5t-12 -4.5t-4.5 -11t4.5 -11.5t11.5 -5q9 0 17 6q5 5 15 18v0q6 9 10 14q-4 -6 -10 -14zM87 204q24 0 42 -21q9 10 18 15q11 6 25 6q18 0 30.5 -12.5t12.5 -30.5h-27q0 7 -4.5 11.5t-11.5 4.5q-9 0 -17 -6q-5 -4 -15 -18l6 8 q7 -8 12.5 -12t13 -4t12 5t4.5 11h27q0 -17 -12.5 -29.5t-30.5 -12.5q-24 0 -43 21q-8 -10 -17 -15q-12 -6 -25 -6q-18 0 -30.5 12.5t-12.5 30t12.5 30t30.5 12.5zM140 153v0q-6 -9 -10 -13q4 5 10 13v0zM4 95v-44h26v6h-20v38h-6zM34 92v-6h6v6h-6zM34 83v-32h6v32h-6z M112 92v-6h6v6h-6zM112 83v-32h6v32h-6zM72 75q1 -1 1 -4l1 -20h-7v19q0 2 -1 3.5t-2.5 2.5t-4 1t-3.5 -0.5t-2.5 -1.5t-2 -3t-0.5 -5v-16h-6v32h6v-4l2 2q3 2 7 2t6 -1t4 -3t2 -4zM220 75v-4l1 -20h-6l-1 19q0 2 -1 3.5t-2.5 2.5t-3.5 1t-3.5 -0.5t-2.5 -1.5t-2 -3t-1 -5 v-16h-6v32h6v-4l3 2q3 2 6.5 2t6 -1t4 -3t2.5 -4zM108 65h-3h-20q0 -4 2 -6.5t6 -2.5t6 1.5t3 3.5l6 -2q-2 -4 -5.5 -6t-8.5 -2t-8.5 2t-5.5 5.5t-2 8.5t2 8.5t5.5 5.5t8.5 2t8 -2t5 -6t1 -10zM94 78q-5 0 -7 -2.5t-2 -5.5h17q-1 4 -2.5 6t-5.5 2zM129 53q4 -2 9 -2t8.5 2.5 t5.5 6.5l-7 2q0 -3 -2 -4.5t-6 -1.5t-6 3t-2 7t1 6.5t3 4t4.5 1.5t5 -1.5t2.5 -4.5l7 2q-1 4 -5 6.5t-9 2.5t-8.5 -2t-5.5 -5.5t-2 -8.5t2 -8.5t5 -5.5zM163 53q4 -2 8.5 -2t8.5 2t6 5.5t2 8.5t-2 8.5t-5.5 5.5t-8.5 2t-8.5 -2t-5.5 -5.5t-2 -8.5t2 -8.5t5 -5.5zM179 59 q-3 -3 -7.5 -3t-6.5 3t-2 7t1 6.5t3 4t5.5 1.5t6 -3t2.5 -8t-2 -8zM230 53q3 -2 9 -2t9.5 2.5t3.5 7.5q0 2 -1 3.5t-3 3t-7 2.5l-6 1q-1 1 -2 1.5t-1 2t2 2.5t4.5 1t4.5 -1.5t2 -3.5l7 1q-1 3 -2.5 5t-4.5 3t-6.5 1t-6.5 -1t-4.5 -3t-1.5 -4.5t1 -4.5t3.5 -3t6.5 -2l6 -2 q1 0 2 -1t1 -2.5t-2 -2.5t-5 -1t-5 1.5t-3 3.5l-6 -1q1 -4 5 -7z" />
</svg>