<svg viewBox="0 0 256 256" xmlns="http://www.w3.org/2000/svg">
  <path transform="scale(1, -1) translate(0, -256)" fill="currentColor" d="M150 230h93q3 0 5 2.5t2 5.5t-2 5t-5 2h-93q-3 0 -5.5 -2t-2.5 -5t2.5 -5.5t5.5 -2.5zM243 172h-93q-3 0 -5.5 -2.5t-2.5 -5.5t2.5 -5t5.5 -2h93q3 0 5 2t2 5t-2 5.5t-5 2.5zM243 98h-93q-3 0 -5.5 -2t-2.5 -5t2.5 -5t5.5 -2h93q3 0 5 2t2 5t-2 5t-5 2zM243 26h-93 q-3 0 -5.5 -2.5t-2.5 -5.5t2.5 -5t5.5 -2h93q3 0 5 2t2 5t-2 5.5t-5 2.5zM92 202q2 -2 4.5 -2t4.5 2t2 5t-2 5l-33 34q-5 5 -12.5 5t-13.5 -5l-34 -34q-2 -2 -2 -5t2.5 -5t5 -2t4.5 2l30 30v-208l-30 30q-2 2 -4.5 2t-5 -2t-2.5 -5t2 -5l34 -34q5 -5 12.5 -5t13.5 5l34 34 q2 2 2 5t-2.5 5t-5 2t-4.5 -2l-30 -30v208z" />
</svg>