<svg viewBox="0 0 256 256" xmlns="http://www.w3.org/2000/svg">
  <path transform="scale(1, -1) translate(0, -256)" fill="currentColor" d="M38 118q-7 -8 -17 -8q-7 0 -12 5t-5 12t5 12t12 5q10 0 17 -8q7 8 17 8q7 0 12 -5t5 -12t-5 -12t-12 -5q-10 0 -17 8zM61 127q0 3 -2 4.5t-4 1.5q-6 0 -10 -6q4 -6 10 -6q2 0 4 1.5t2 4.5zM31 127q-5 6 -10 6q-3 0 -4.5 -1.5t-1.5 -4.5t1.5 -4.5t4.5 -1.5q5 0 10 6z M84 114v30h4v-26h13v-4h-17zM104 138v4h4v-4h-4zM104 114v22h4v-22h-4zM156 138v4h4v-4h-4zM156 114v22h4v-22h-4zM130 128q0 1 -1 3l-1 2q-1 1 -2.5 2t-4 1t-4.5 -2l-2 -1v3h-4v-22h4v11l1 3q0 1 1 2l2 1l2 1q1 0 2.5 -1t1.5 -2l1 -2v-13h4v14zM228 128v3l-2 2q-1 1 -2.5 2 t-4 1t-4.5 -2l-1 -1v3h-5v-22h5v11v3q0 1 1 2l2 1l2 1q2 0 3 -1l2 -2v-2l1 -13h4zM152 124h2q0 4 -1 6.5t-3.5 4t-5.5 1.5t-5.5 -1.5t-4 -4t-1.5 -5.5t1.5 -5.5t4 -4t5.5 -1.5t5.5 1.5t4.5 4.5l-5 1q0 -1 -1.5 -2t-4 -1t-4 1.5t-1.5 4.5h14zM139 130q2 2 5 2t4 -1.5t1 -3.5 h-11q0 2 1 3zM173 114q-3 0 -5.5 1.5t-3.5 4t-1 5.5t1 5.5t3.5 4t6 1.5t6 -2t2.5 -4l-4 -2q0 2 -1.5 3t-3.5 1t-3.5 -1t-2 -2.5t-0.5 -4t1.5 -4.5t4 -2t4 1t1.5 2l4 -1q0 -2 -2.5 -4t-6.5 -2zM196 114q-3 0 -5.5 1.5t-4 4t-1.5 5.5t1.5 5.5t4 4t5.5 1.5t5.5 -1.5t3.5 -4 t1.5 -5.5t-1 -5.5t-4 -4t-5.5 -1.5zM196 118q3 0 4.5 2t1.5 5t-1.5 5t-4 2t-4 -1t-2 -2.5t-0.5 -4t1.5 -4.5t4.5 -2zM241 114q-4 0 -6.5 2t-3.5 4l5 1q0 -1 1.5 -2t3.5 -1t3 0.5t1 2.5v1l-2 1l-8 2q-2 1 -2.5 2t-0.5 3t1 3t3 2t4.5 1t4.5 -1t3 -2.5t1 -2.5l-4 -1 q0 2 -1.5 2.5t-3.5 0.5t-3 -0.5t-1 -1.5l1 -1l9 -4q2 0 2.5 -1.5t0.5 -3.5t-2 -4t-6 -2z" />
</svg>