<svg viewBox="0 0 1024 1024" xmlns="http://www.w3.org/2000/svg">
  <path transform="scale(1, -1) translate(0, -960)" fill="currentColor" d="M942 262l-134 133q-48 48 -116.5 50t-118.5 -43l-107 107q20 23 31.5 52t11.5 61q0 35 -13 66.5t-37 55.5l-134 133q-49 50 -120 50t-122 -50q-24 -24 -37.5 -55.5t-13.5 -66.5t13 -66t38 -55l133 -133q25 -25 56.5 -37.5t65.5 -12.5q27 0 54.5 9.5t50.5 27.5l109 -109 q-18 -23 -27.5 -50t-9.5 -55q0 -35 13 -66.5t38 -55.5l133 -133q25 -25 56.5 -37t65.5 -12q33 0 64.5 12t56.5 37q24 24 37 55.5t15 64.5q-2 35 -15 66.5t-37 56.5v0zM238 523l-132 133q-21 20 -31.5 46t-10.5 53q0 28 10.5 53.5t31.5 45.5q20 21 45.5 31.5t53.5 10.5 q27 0 53 -10.5t46 -31.5l133 -132q19 -21 29.5 -46.5t10.5 -53.5q0 -25 -9 -48.5t-25 -42.5l-59 59q-5 5 -11.5 5t-10.5 -5q-5 -4 -5 -10.5t5 -11.5l57 -58q-41 -31 -93 -27.5t-88 40.5v0zM918 42v0q-40 -41 -98.5 -41t-99.5 41l-133 132q-20 21 -30.5 46.5t-10.5 53.5 q0 22 7 42.5t20 38.5l57 -56q3 -2 6 -3.5t6 -1.5t5.5 1.5t5.5 3.5q5 5 5 11.5t-5 11.5l-58 57q19 17 43 25.5t48 8.5q27 0 53 -10.5t47 -31.5l132 -133q20 -20 30 -46t10 -54q2 -27 -8.5 -52t-31.5 -44v0z" />
</svg>