<svg viewBox="0 0 1024 1024" xmlns="http://www.w3.org/2000/svg">
  <path transform="scale(1, -1) translate(0, -960)" fill="currentColor" d="M234 -48h-143q-37 0 -64 26t-27 62v472q0 37 26.5 62.5t64.5 25.5h143q37 0 64 -26t27 -62v-472q1 -36 -26 -62t-65 -26v0zM91 522q-3 0 -6 -1.5t-3 -5.5v-472q0 -1 1.5 -3.5t7.5 -2.5h143q3 0 6 1.5t3 4.5v469q0 1 -3 3.5t-6 2.5h-143v4v0zM941 -48h-144q-37 0 -64 26 t-27 62v195q0 7 -5 11.5t-15 4.5q-7 0 -13 -4.5t-6 -11.5v-193q0 -38 -26.5 -63t-64.5 -25h-142q-38 0 -65 26t-27 62v470q0 37 26.5 62.5t65.5 25.5h142q23 0 41.5 -10t30.5 -27q5 1 10.5 4t8.5 6q37 18 78 23.5t79 0.5v0q42 -6 78 -25q37 -19 63.5 -48t42.5 -67 q15 -37 16 -79v-341q4 -34 -21.5 -59.5t-61.5 -25.5v0zM688 330q41 0 69.5 -29t28.5 -67v-194q0 -1 1.5 -3.5t7.5 -2.5h143q3 0 6 1t3 5v339q-1 53 -38.5 93t-92.5 45q-28 3 -58.5 -1.5t-58.5 -17.5q-14 -5 -26.5 -13.5t-24.5 -15.5l-62 -45v88q0 1 -2 3.5t-8 2.5h-142 q-4 0 -7 -1t-3 -5v-472q0 -1 2 -3.5t8 -2.5h144q3 0 6 1t3 5v195q3 40 31 67.5t70 27.5zM173 610q-70 0 -120 49t-50 119q0 69 49 117.5t121 48.5t120.5 -49t48.5 -119t-50 -118t-119 -48v0zM173 862q-37 0 -64 -25.5t-27 -60.5q0 -37 26 -61.5t65 -24.5q38 0 64.5 25.5 t26.5 60.5q0 37 -26.5 61.5t-64.5 24.5v0z" />
</svg>