<svg viewBox="0 0 1024 1024" xmlns="http://www.w3.org/2000/svg">
  <path transform="scale(1, -1) translate(0, -960)" fill="currentColor" d="M936 944h-846q-30 0 -51 -21t-21 -51v-848q0 -29 21 -50.5t51 -21.5h843q30 0 51 21t21 51v850q2 28 -18.5 49t-50.5 21v0zM310 101h-145v472h145v-472zM237 638q-36 0 -60.5 25t-24.5 60t25 60t60 25t60 -25t25 -60t-24 -60t-61 -25zM862 101h-145v229q0 40 -10.5 83 t-66.5 43q-58 0 -73 -38t-15 -84v-233h-146v472h143v-66h1q16 29 51 53t89 24q111 0 143.5 -64.5t32.5 -162.5v-256h-4v0z" />
</svg>