<svg viewBox="0 0 256 256" xmlns="http://www.w3.org/2000/svg">
  <path transform="scale(1, -1) translate(0, -256)" fill="currentColor" d="M38 147h49q3 0 5 2t2 5t-2 5.5t-5 2.5h-49q-14 0 -23.5 -10t-9.5 -23.5t9.5 -23.5t23.5 -10h49q3 0 5 2t2 5t-2 5.5t-5 2.5h-49q-8 0 -13.5 5.5t-5.5 13t5.5 13t13.5 5.5zM146 135h-36q-3 0 -5 -2t-2 -5t2 -5.5t5 -2.5h36q3 0 5 2.5t2 5.5t-2 5t-5 2zM218 161h-49 q-3 0 -5 -2t-2 -5t2 -5t5 -2h49q8 0 13.5 -6t5.5 -13.5t-5.5 -13.5t-13.5 -6h-49q-3 0 -5 -2t-2 -5t2 -5t5 -2h49q14 0 23.5 9.5t9.5 23.5t-10 24t-23 10z" />
</svg>