<svg viewBox="0 0 256 256" xmlns="http://www.w3.org/2000/svg">
  <path transform="scale(1, -1) translate(0, -256)" fill="currentColor" d="M128 251q-14 0 -23.5 -10t-9.5 -23v-50q0 -3 2 -5t5 -2t5 2t2 5v50q0 8 6 13.5t13.5 5.5t13.5 -5.5t6 -13.5v-49q0 -3 2 -5t5 -2t5 2t2 5v49q-1 14 -10.5 23.5t-23.5 9.5zM135 110v36q0 3 -2 5t-5 2t-5 -2t-2 -5v-36q0 -3 2 -5t5 -2t5 2t2 5zM154 94q-3 0 -5 -2t-2 -5 v-49q0 -8 -6 -13.5t-13.5 -5.5t-13.5 5.5t-6 13.5v49q0 3 -2 5t-5 2t-5 -2t-2 -5v-49q0 -14 9.5 -23.5t23.5 -9.5t23.5 9.5t9.5 23.5v49q1 3 -1 5t-5 2z" />
</svg>