<svg viewBox="0 0 256 256" xmlns="http://www.w3.org/2000/svg">
  <path transform="scale(1, -1) translate(0, -256)" fill="currentColor" d="M238 84l-34 33q-12 12 -29.5 13t-31.5 -10l-23 23q10 12 10 28q0 19 -13 33l-33 33q-14 14 -33 14t-32.5 -13.5t-13.5 -32.5q0 -9 3.5 -17.5t9.5 -15.5l34 -33q6 -7 14.5 -10.5t17.5 -3.5q14 0 26 8l24 -23q-8 -12 -8 -26q0 -20 13 -33l33 -33q7 -7 15.5 -10.5t17.5 -3.5 t17.5 3.5t15 10t10 15t3.5 17.5q0 20 -13 34zM62 149l-34 33q-9 10 -9 23t9.5 22.5t22.5 9.5t23 -9l33 -33q9 -9 9 -23q0 -11 -6 -18l-12 12q-2 2 -5 2t-5 -2t-2 -5t2 -5l12 -12q-9 -5 -20 -4t-18 9zM228 28q-10 -9 -23 -9t-23 9l-33 34q-9 10 -9 23q0 8 4 15l12 -11 q2 -2 4.5 -2t4.5 2t2 5t-2 5l-12 12q9 6 19 6q13 0 22 -9l34 -34q9 -9 9 -22.5t-9 -23.5z" />
</svg>