<svg viewBox="0 0 1024 1024" xmlns="http://www.w3.org/2000/svg">
  <path transform="scale(1, -1) translate(0, -960)" fill="currentColor" d="M152 536h197q7 0 11.5 4.5t4.5 11.5t-4.5 11.5t-11.5 4.5h-197q-49 0 -84.5 -35t-35.5 -85t35.5 -85t84.5 -35h197q7 0 11.5 4.5t4.5 11.5t-4.5 11.5t-11.5 4.5h-197q-36 0 -62 25.5t-26 62.5t26 62.5t62 25.5zM584 464h-144q-7 0 -11.5 -4.5t-4.5 -11.5t4.5 -11.5 t11.5 -4.5h144q7 0 11.5 4.5t4.5 11.5t-4.5 11.5t-11.5 4.5zM872 568h-197q-7 0 -11.5 -4.5t-4.5 -11.5t4.5 -11.5t11.5 -4.5h197q37 0 62.5 -26t25.5 -62t-26 -62t-62 -26h-197q-7 0 -11.5 -4.5t-4.5 -11.5t4.5 -11.5t11.5 -4.5h197q50 0 85 35.5t35 84.5q0 50 -35.5 85 t-84.5 35z" />
</svg>