<svg viewBox="0 0 1024 1024" xmlns="http://www.w3.org/2000/svg">
  <path transform="scale(1, -1) translate(0, -960)" fill="currentColor" d="M512 928q-50 0 -85 -35.5t-35 -84.5v-197q0 -7 4.5 -11.5t11.5 -4.5t11.5 4.5t4.5 11.5v197q0 36 25.5 62t62.5 26t62.5 -26t25.5 -62v-197q0 -7 4.5 -11.5t11.5 -4.5t11.5 4.5t4.5 11.5v197q0 49 -35 84.5t-85 35.5zM528 376v144q0 7 -4.5 11.5t-11.5 4.5t-11.5 -4.5 t-4.5 -11.5v-144q0 -7 4.5 -11.5t11.5 -4.5t11.5 4.5t4.5 11.5zM616 301q-7 0 -11.5 -4.5t-4.5 -11.5v-197q0 -37 -26 -62.5t-62 -25.5t-62 26t-26 62v197q0 7 -4.5 11.5t-11.5 4.5t-11.5 -4.5t-4.5 -11.5v-197q0 -50 35.5 -85t84.5 -35q50 0 85 35.5t35 84.5v197 q0 7 -4.5 11.5t-11.5 4.5z" />
</svg>