<svg viewBox="0 0 1024 1024" xmlns="http://www.w3.org/2000/svg">
  <path transform="scale(1, -1) translate(0, -960)" fill="currentColor" d="M221 814h-141q-20 0 -34 -13.5t-14 -34.5v-140q0 -21 14 -34.5t34 -13.5h141q20 0 34 13.5t14 34.5v140q0 21 -14.5 34.5t-33.5 13.5v0zM237 627q0 -7 -4.5 -11.5t-11.5 -4.5h-141q-7 0 -11.5 4.5t-4.5 11.5v141q0 7 4.5 11.5t11.5 4.5h141q7 0 11.5 -4.5t4.5 -11.5v-141 zM221 317h-141q-20 0 -34 -14t-14 -34v-141q0 -20 14 -34t34 -14h141q20 0 34 14t14 34v141q0 20 -14.5 34t-33.5 14zM237 130q0 -8 -4.5 -12t-11.5 -4h-141q-7 0 -11.5 4t-4.5 12v140q0 8 4.5 12t11.5 4h141q7 0 11.5 -4t4.5 -12v-140v0zM458 752h518q7 0 11.5 4.5 t4.5 11.5t-4.5 11.5t-11.5 4.5h-518q-8 0 -12 -4.5t-4 -11.5t4 -11.5t12 -4.5zM976 642h-518q-8 0 -12 -4.5t-4 -11.5q0 -8 4 -12t12 -4h518q7 0 11.5 4t4.5 12q0 7 -4.5 11.5t-11.5 4.5zM976 286h-518q-8 0 -12 -4t-4 -12q0 -7 4 -11.5t12 -4.5h518q7 0 11.5 4.5t4.5 11.5 q0 8 -4.5 12t-11.5 4zM976 144h-518q-8 0 -12 -4.5t-4 -11.5t4 -11.5t12 -4.5h518q7 0 11.5 4.5t4.5 11.5t-4.5 11.5t-11.5 4.5z" />
</svg>