<svg viewBox="0 0 256 256" xmlns="http://www.w3.org/2000/svg">
  <path transform="scale(1, -1) translate(0, -256)" fill="currentColor" d="M55 223h-35q-6 0 -10.5 -4.5t-4.5 -10.5v-36q0 -6 4.5 -10.5t10.5 -4.5h35q6 0 10.5 4.5t4.5 10.5v36q0 6 -4.5 10.5t-10.5 4.5zM56 173q0 -1 -1 -1h-35q-1 0 -1 1v35q0 1 1 1h35q1 0 1 -1v-35zM55 98h-35q-6 0 -10.5 -4.5t-4.5 -10.5v-35q0 -6 4.5 -10.5t10.5 -4.5h35 q7 0 11 4.5t4 10.5v35q0 7 -4.5 11t-10.5 4zM56 48q0 -1 -1 -1h-35q-1 0 -1 1v36q0 1 1 1h35q1 0 1 -1v-36zM114 201h130q3 0 5 2t2 5t-2 5t-5 2h-130q-3 0 -5 -2t-2 -5t2 -5t5 -2zM244 180h-130q-3 0 -5 -2.5t-2 -5.5t2 -5t5 -2h130q3 0 5 2t2 5t-2 5.5t-5 2.5zM244 90 h-130q-3 0 -5 -2t-2 -5t2 -5t5 -2h130q3 0 5 2t2 5t-2 5t-5 2zM244 55h-130q-3 0 -5 -2t-2 -5t2 -5t5 -2h130q3 0 5 2t2 5t-2 5t-5 2z" />
</svg>