<svg viewBox="0 0 256 256" xmlns="http://www.w3.org/2000/svg">
  <path transform="scale(1, -1) translate(0, -256)" fill="currentColor" d="M47 244h-27q-6 0 -10.5 -4.5t-4.5 -11.5v-26q0 -7 4.5 -11.5t10.5 -4.5h27q6 0 10.5 4.5t4.5 11.5v27q0 6 -4.5 10.5t-10.5 4.5zM48 202q0 -1 -2 -1h-26q-1 0 -1 1v27q0 1 1 1h27q1 0 1 -1v-27zM102 208h142q3 0 5 2.5t2 5.5t-2 4.5t-5 1.5h-142q-3 0 -5 -2t-2 -5t2 -5 t5 -2zM47 159h-27q-6 0 -10.5 -4.5t-4.5 -10.5v-27q0 -6 4.5 -10.5t10.5 -4.5h27q6 0 10.5 4.5t4.5 10.5v27q0 6 -4.5 10.5t-10.5 4.5zM48 117q0 -1 -2 -1h-26q-1 0 -1 1v27q0 1 1 1h27q1 0 1 -1v-27zM244 137h-142q-3 0 -5 -2t-2 -5t2 -5t5 -2h142q3 0 5 2t2 5t-2 5t-5 2z M47 69h-27q-6 0 -10.5 -4.5t-4.5 -10.5v-27q0 -6 4.5 -10.5t10.5 -4.5h27q6 0 10.5 4.5t4.5 10.5v27q0 6 -4.5 10.5t-10.5 4.5zM48 27q0 -1 -2 -1h-26q-1 0 -1 1v27q0 1 1 1h27q1 0 1 -1v-27zM244 48h-142q-3 0 -5 -2.5t-2 -5.5t2 -5t5 -2h142q3 0 5 2t2 5t-2 5.5t-5 2.5z " />
</svg>