<svg viewBox="0 0 256 256" xmlns="http://www.w3.org/2000/svg">
  <path transform="scale(1, -1) translate(0, -256)" fill="currentColor" d="M63 201h181q3 0 5 2t2 5t-2 5t-5 2h-181q-3 0 -5 -2t-2 -5t2 -5t5 -2zM244 135h-181q-3 0 -5 -2t-2 -5t2 -5.5t5 -2.5h181q3 0 5 2.5t2 5.5t-2 5t-5 2zM244 55h-181q-3 0 -5 -2t-2 -5t2 -5.5t5 -2.5h181q3 0 5 2.5t2 5.5t-2 5t-5 2zM23 220q-5 0 -8 -3.5t-3 -8t3 -8 t8 -3.5t8 3.5t3 8t-3 8t-8 3.5zM23 139q-5 0 -8 -3t-3 -8t3 -8t8 -3t8 3t3 7.5t-3 8t-8 3.5zM23 59q-4 0 -7.5 -3.5t-3.5 -8t3 -8t8 -3.5t8 3.5t3 8t-3 8t-8 3.5z" />
</svg>