<svg viewBox="0 0 1024 1024" xmlns="http://www.w3.org/2000/svg">
  <path transform="scale(1, -1) translate(0, -960)" fill="currentColor" d="M253 754h723q7 0 11.5 4t4.5 12q0 7 -4.5 11.5t-11.5 4.5h-723q-7 0 -11.5 -4.5t-4.5 -11.5q0 -8 5 -12t11 -4v0zM976 464h-723q-7 0 -11.5 -4.5t-4.5 -11.5t4.5 -11.5t11.5 -4.5h723q7 0 11.5 4.5t4.5 11.5t-4.5 11.5t-11.5 4.5zM976 142h-723q-7 0 -11.5 -4t-4.5 -12 q0 -7 4.5 -11.5t11.5 -4.5h723q7 0 11.5 4.5t4.5 11.5q0 8 -4.5 12t-11.5 4zM93 814q-19 0 -32 -13t-13 -31t13 -31.5t32 -13.5t32 12.5t13 32.5q0 19 -13.5 31.5t-31.5 12.5v0zM93 493q-19 0 -32 -13.5t-13 -31.5t13 -31.5t32 -13.5t32 13t13 32q0 18 -13.5 31.5 t-31.5 13.5v0zM93 171q-18 0 -31.5 -12.5t-13.5 -32.5q0 -19 13 -31.5t32 -12.5t32 12.5t13 31.5q0 20 -13.5 32.5t-31.5 12.5z" />
</svg>