<svg viewBox="0 0 1024 1024" xmlns="http://www.w3.org/2000/svg">
  <path transform="scale(1, -1) translate(0, -960)" fill="currentColor" d="M187 899h-107q-20 0 -34 -13.5t-14 -34.5v-107q0 -20 14 -34t34 -14h107q21 0 34.5 14t13.5 34v107q0 21 -14.5 34.5t-33.5 13.5zM203 744q0 -7 -4.5 -11.5t-11.5 -4.5h-107q-7 0 -11.5 4.5t-4.5 11.5v107q0 7 4.5 11.5t11.5 4.5h107q7 0 11.5 -4.5t4.5 -11.5v-107z M408 781h568q7 0 11.5 4.5t4.5 11.5t-4.5 11.5t-11.5 4.5h-568q-7 0 -11.5 -4.5t-4.5 -11.5t4.5 -11.5t11.5 -4.5zM187 558h-107q-20 0 -34 -13.5t-14 -34.5v-107q0 -20 14 -34t34 -14h107q21 0 34.5 14t13.5 34v107q0 21 -14.5 34.5t-33.5 13.5v0zM203 403q0 -7 -4.5 -11.5 t-11.5 -4.5h-107q-7 0 -11.5 4.5t-4.5 11.5v107q0 8 4.5 12t11.5 4h107q7 0 11.5 -4t4.5 -12v-107zM976 474h-568q-7 0 -11.5 -4.5t-4.5 -11.5q0 -8 4.5 -12t11.5 -4h568q7 0 11.5 4t4.5 12q0 7 -4.5 11.5t-11.5 4.5zM187 200h-107q-20 0 -34 -14t-14 -34v-107 q0 -21 14 -34.5t34 -13.5h107q21 0 34.5 13.5t13.5 34.5v107q0 20 -14.5 34t-33.5 14zM203 45q0 -7 -4.5 -11.5t-11.5 -4.5h-107q-7 0 -11.5 4.5t-4.5 11.5v107q0 7 4.5 11.5t11.5 4.5h107q7 0 11.5 -4.5t4.5 -11.5v-107zM976 115h-568q-7 0 -11.5 -4.5t-4.5 -11.5 t4.5 -11.5t11.5 -4.5h568q7 0 11.5 4.5t4.5 11.5t-4.5 11.5t-11.5 4.5z" />
</svg>