<svg viewBox="0 0 256 256" xmlns="http://www.w3.org/2000/svg">
  <path transform="scale(1, -1) translate(0, -256)" fill="currentColor" d="M98 128q-3 0 -5 -2.5t-2 -5.5v-63q0 -3 2 -5t5 -2t5 2t2 5v64q0 3 -2 5t-5 2zM163 128q-3 0 -5 -2t-3 -5l-5 -57h-10l-5 57q0 3 -2 5t-5 1.5t-5 -2.5t-2 -5l5 -64q1 -2 3 -4t4 -2h24q3 0 5 2t2 4l5 64q0 3 -2 5.5t-4 2.5zM232 163h-97v21q8 3 12.5 9t4.5 15t-7 16t-17 7 t-17 -7t-7 -16t5 -15t12 -9v-21h-97q-8 0 -13.5 -5.5t-5.5 -13.5v-110q0 -8 5.5 -14t13.5 -6h208q8 0 13.5 6t5.5 14v110q0 8 -5.5 13.5t-13.5 5.5zM118 207q0 4 3 7t7 3t7 -3t3 -7t-3 -7t-7 -3t-7 3t-3 7zM237 34q0 -2 -1.5 -4t-3.5 -2h-208q-2 0 -3.5 2t-1.5 4v110 q0 2 1.5 3.5t3.5 1.5h208q2 0 3.5 -1.5t1.5 -3.5v-110zM179 184q2 -2 5 -2t5 2q9 10 9 24t-9 23q-2 2 -5 2t-5 -2t-2 -5t2 -5q5 -5 5.5 -13t-5.5 -14q-2 -2 -2 -5t2 -5zM208 177q2 -2 4.5 -2t4.5 2q13 13 13 31t-13 31q-2 2 -5 2t-5 -2t-2 -5t2 -5q9 -9 9 -21t-9 -21 q-2 -2 -1.5 -5t2.5 -5zM72 182q3 0 5 2t2 5t-2 5q-6 6 -6 14t6 13q2 2 2 5t-2 5t-5 2t-5 -2q-10 -9 -10 -23t10 -24q2 -2 5 -2zM44 175q2 0 4.5 2t2 5t-2.5 5q-8 9 -8 21.5t8 21.5q3 2 2.5 4.5t-2.5 5t-5 2.5t-5 -2q-12 -13 -12 -31.5t12 -31.5q2 -2 6 -2zM74 64h-23v57 q0 3 -2 5t-5 2t-5.5 -2t-2.5 -5v-60q0 -4 3.5 -7.5t8.5 -3.5h25q3 0 5 2t2 5t-1.5 5t-4.5 2zM218 114q3 0 5 2t2 5t-2.5 5t-4.5 2h-24q-3 0 -5 -2t-2 -5v-64q0 -3 2 -5t5 -2h24q3 0 5 2t2 5t-2.5 5t-4.5 2h-17v18h17q3 0 5 2t2 5t-2.5 5t-4.5 2h-17v18h17z" />
</svg>