<svg viewBox="0 0 256 256" xmlns="http://www.w3.org/2000/svg">
  <path transform="scale(1, -1) translate(0, -256)" fill="currentColor" d="M41 34q-21 0 -30 24q-6 16 -6 46t10.5 57t28.5 43q20 18 46 18q40 0 73 -11q8 2 21 1h2q65 0 65 -26q0 -11 -12 -31q-14 -21 -33 -35q-24 -18 -47 -18q-16 -26 -42 -42q-20 -14 -44 -21q-19 -5 -32 -5zM89 208q-21 0 -37 -15t-24.5 -39t-8.5 -50q0 -36 9 -49q4 -7 13 -7 q12 0 29 5q22 7 41 19q23 17 38 40q2 4 6 4h2q16 0 32 9q13 8 25 22q10 11 16.5 23t6.5 16.5t-13.5 8.5t-37.5 4h-2q-13 0 -21 -1q-2 -1 -4 0q-30 10 -70 10z" />
</svg>