<svg viewBox="0 0 1024 1024" xmlns="http://www.w3.org/2000/svg">
  <path transform="scale(1, -1) translate(0, -960)" fill="currentColor" d="M392 435q-7 0 -11.5 -4.5t-4.5 -11.5v-254q0 -7 4.5 -11.5t11.5 -4.5t11.5 4.5t4.5 11.5v254q0 6 -5 11t-11 5zM650 435q-6 0 -11.5 -4t-6.5 -10l-19 -240h-64l-19 240q0 7 -5.5 11t-12.5 3q-7 0 -11.5 -5t-2.5 -12l20 -255q0 -6 5 -10t11 -4h95q6 0 11 4t5 10l21 255 q0 7 -4.5 12t-11.5 5v0zM928 576h-400v106q29 6 48 28.5t19 52.5q0 36 -24 60.5t-59 24.5t-59 -24t-24 -59q0 -30 19 -53.5t48 -28.5v-107h-400q-26 0 -45 -19t-19 -45v-442q0 -26 19 -45t45 -19h832q26 0 45 19t19 45v442q0 26 -19 45t-45 19v0zM461 765q0 21 14.5 36 t36.5 15t36.5 -15t14.5 -36q0 -22 -14.5 -36.5t-36.5 -14.5t-36.5 14.5t-14.5 36.5zM960 70q0 -13 -9.5 -22.5t-22.5 -9.5h-832q-13 0 -22.5 9.5t-9.5 22.5v442q0 13 9.5 22.5t22.5 9.5h832q13 0 22.5 -9.5t9.5 -22.5v-442zM725 683q2 -2 5.5 -3.5t5.5 -1.5t5.5 1.5t5.5 3.5 q35 35 35 85t-35 85q-5 5 -11 5t-11 -5t-5 -11.5t5 -11.5q26 -26 26 -62.5t-26 -61.5q-5 -5 -5 -11.5t5 -11.5v0zM838 651q3 -2 6 -3.5t6 -1.5q2 0 5 1.5t6 3.5q23 23 35.5 53t12.5 64t-12.5 63.5t-35.5 53.5q-5 5 -11.5 5t-11.5 -5q-4 -5 -4 -11.5t4 -11.5 q20 -19 29.5 -42.5t9.5 -51.5t-10.5 -51.5t-28.5 -42.5q-4 -5 -4 -11.5t4 -11.5v0zM288 678q4 0 6.5 1.5t4.5 3.5q5 5 5 11.5t-5 11.5q-26 26 -26 62.5t26 61.5q5 5 5 11.5t-5 11.5t-11 5t-11 -5q-35 -35 -35 -85t35 -85q2 -2 4.5 -3.5t6.5 -1.5zM174 646q4 0 6.5 1.5 t5.5 3.5q4 5 4 11.5t-4 11.5q-39 38 -39 93t39 94q4 5 4 11t-4 11q-5 5 -11.5 5t-11.5 -5q-48 -48 -48 -116t48 -117q3 -2 6 -3t5 -1v0zM294 181h-104v238q0 7 -4 11.5t-12 4.5q-7 0 -11.5 -4.5t-4.5 -11.5v-238q0 -13 9.5 -22.5t22.5 -9.5h103q7 0 11.5 4.5t4.5 11.5 t-3.5 11.5t-11.5 4.5zM870 403q8 0 12 4.5t4 11.5t-4 11.5t-12 4.5h-94q-7 0 -11.5 -4.5t-4.5 -11.5v-254q0 -7 4.5 -11.5t11.5 -4.5h94q8 0 12 4.5t4 11.5t-4 11.5t-12 4.5h-78v96h78q8 0 12 4.5t4 11.5t-4 11.5t-12 4.5h-78v96h78v-2z" />
</svg>