<svg viewBox="0 0 1024 1024" xmlns="http://www.w3.org/2000/svg">
  <path transform="scale(1, -1) translate(0, -960)" fill="currentColor" d="M165 83q-45 0 -71 26t-40 65.5t-18 86.5q-4 48 -4 91q0 85 22 167t64 147t102 105q61 40 137 40q116 0 191 -17.5t100 -27.5q17 4 38.5 5t49.5 0h8q43 0 87 -3q44 -4 79.5 -14.5t58.5 -28.5t23 -47q0 -25 -27 -79q-28 -54 -76.5 -108.5t-115.5 -95.5q-66 -41 -144 -41 q-52 -83 -120 -135q-68 -53 -135 -83t-124 -41q-56 -12 -85 -12v0zM357 779q-69 0 -123 -37t-92 -97.5t-58 -137.5q-20 -76 -20 -155q0 -158 34 -196.5t67 -38.5q27 0 82 11q54 10 118 39.5t129 80.5q64 51 112 131q3 4 6.5 6t8.5 2h8q68 0 128 38q61 37 106 86.5t71 98.5 q26 48 26 70q0 29 -58 45t-158 16v0v0h-8q-28 0 -48.5 -1.5t-36.5 -5.5h-4.5h-4.5q-21 10 -94.5 27.5t-190.5 17.5v0z" />
</svg>