<svg viewBox="0 0 256 256" xmlns="http://www.w3.org/2000/svg">
  <path transform="scale(1, -1) translate(0, -256)" fill="currentColor" d="M250 74l-30 107q-2 8 -8.5 13t-15.5 5h-35v27h73q3 0 5 2t2 5t-2 5t-5 2h-212q-3 0 -5.5 -2t-2.5 -5t2.5 -5t5.5 -2h72v-28h-35q-8 0 -14.5 -5t-8.5 -13l-30 -106q-1 -5 0 -11t4 -10q6 -8 16 -9v-21q0 -3 2 -5t5 -2t5 2t2 5v20h177v-20q0 -3 2 -5t5 -2t5 2t2 5v21 q10 1 16 10t3 20zM108 226h40v-27h-40v27zM235 61q-3 -4 -9 -4h-197q-5 0 -8.5 4t-1.5 9l30 108q1 3 4 5t6 2h138q3 0 6 -2t4 -5l30 -108q1 -5 -2 -9zM128 166q-19 0 -32 -13t-13 -31.5t13 -31.5t32 -13t32 13t13 31.5t-13 31.5t-32 13zM135 92v19q0 3 -2 5t-5 2t-5 -2 t-2 -5v-19q-11 2 -17.5 10.5t-6.5 20t9 20.5t22 9t22 -8.5t9 -21.5q0 -11 -7 -19.5t-17 -10.5z" />
</svg>