<svg viewBox="0 0 256 256" xmlns="http://www.w3.org/2000/svg">
  <path transform="scale(1, -1) translate(0, -256)" fill="currentColor" d="M204 46l14 14q2 3 2 5.5t-2 5t-5 2.5t-5 -3l-17 -16h-51v38q18 1 32.5 10.5t23 24.5t8.5 33v9q0 3 2 5.5t5 2.5t5 2t2 5t-2 5t-5 2q-8 0 -14 -5.5t-7 -14.5h-10v1q0 12 8.5 20.5t21.5 8.5q3 0 5 2t2 5t-2 5.5t-5 2.5q-18 0 -31 -13t-13 -31v0h-42v25q0 8 -4.5 15 t-11.5 10l11 12q2 2 2 4.5t-2 5t-5 2.5t-5 -2l-7 -8v8q0 3 -2 5t-5 2t-5 -2t-2 -5v-8l-7 7q-2 2 -5 2t-5 -2t-2 -5t2 -5l11 -11q-6 -3 -10 -8.5t-5 -11.5h-12q-3 0 -5 -2t-2 -5t2 -5t5 -2h11v-29q0 -26 17.5 -45.5t42.5 -22.5v-39h-66l7 7q2 2 2 5t-2 5t-5 2t-5 -2l-19 -19 q-2 -2 -2 -5t2 -5l19 -18q2 -2 4.5 -2t5 2t2.5 5t-3 5l-6 7h66v-27q0 -3 2 -5t5 -2t5 2t2 5v27h51l17 -17q2 -2 5 -2t5 2t2 5t-2 5zM80 160v37q0 6 4.5 10.5t10.5 4.5t10.5 -4.5t4.5 -10.5v-33q0 -2 2 -4t4 -2h74q-1 -22 -17 -37t-38 -15q-15 -1 -27.5 6.5t-20 20t-7.5 27.5 z" />
</svg>