<svg viewBox="0 0 1024 1024" xmlns="http://www.w3.org/2000/svg">
  <path transform="scale(1, -1) translate(0, -960)" fill="currentColor" d="M989 229l-120 429q-7 27 -30.5 44.5t-51.5 17.5h-152v133h304q7 0 11.5 4.5t4.5 11.5t-4.5 11.5t-11.5 4.5h-853q-7 0 -11.5 -4.5t-4.5 -11.5t4.5 -11.5t11.5 -4.5h304v-133h-152q-28 0 -51 -17.5t-30 -44.5l-122 -429q-6 -19 -1.5 -39t16.5 -36t29 -25t36 -9v-93 q0 -7 4.5 -11.5t11.5 -4.5t11.5 4.5t4.5 11.5v93h730v-93q0 -7 4.5 -11.5t11.5 -4.5t11.5 4.5t4.5 11.5v93q19 0 36 9t29 25q12 15 16.5 34.5t-1.5 40.5zM421 853h181v-133h-181v133zM949 173q-7 -10 -18.5 -15.5t-24.5 -5.5h-789q-13 0 -24 5.5t-19 15.5q-8 9 -10 21.5 t0 24.5l120 429q6 18 20.5 29t32.5 11h550q18 0 32.5 -11t18.5 -27l120 -429q4 -13 1.5 -26t-10.5 -22zM512 589q-70 0 -118 -49t-48 -118q0 -68 48 -117t118 -49t118 49t48 117q0 69 -48 118t-118 49zM528 288v91q0 7 -4.5 11.5t-11.5 4.5t-11.5 -4.5t-4.5 -11.5v-91 q-50 6 -84 44.5t-34 89.5q0 56 39.5 95.5t94.5 39.5t94.5 -39.5t39.5 -95.5q0 -51 -34 -89.5t-84 -44.5z" />
</svg>