<svg viewBox="0 0 256 256" xmlns="http://www.w3.org/2000/svg">
  <path transform="scale(1, -1) translate(0, -256)" fill="currentColor" d="M238 128h-28q11 13 11 29.5t-11 29t-27 13.5q-2 22 -17.5 36.5t-37.5 14.5q-9 0 -18 -3q-17 -6 -28 -22q-19 -3 -32 -18q-15 -15 -15 -38q0 -12 5 -23t14 -19h-36q-3 0 -5.5 -2t-2.5 -5t2.5 -5t5.5 -2h220q3 0 5.5 2t2.5 5t-2.5 5t-5.5 2zM92 128q-18 0 -30.5 12.5 t-12.5 29.5t11 29t27 13q4 1 5 4q8 14 23 19q5 2 13 2q17 0 29 -11.5t12 -28.5v-3q0 -3 2 -5t5 -2h2q13 0 21.5 -8.5t8.5 -21t-8.5 -21t-21.5 -8.5h-86zM210 76h-164q-3 0 -5 -2t-2 -5t2 -5t5 -2h164q3 0 5 2t2 5t-2.5 5t-4.5 2zM177 19h-98q-3 0 -5 -2t-2 -5t2 -5.5t5 -2.5 h98q3 0 5 2.5t2 5.5t-2 5t-5 2z" />
</svg>