<svg viewBox="0 0 1024 1024" xmlns="http://www.w3.org/2000/svg">
  <path transform="scale(1, -1) translate(0, -960)" fill="currentColor" d="M954 437h-146q30 21 48 55.5t18 73.5q0 64 -45 110.5t-109 49.5q-1 42 -17 79q-17 37 -45 64t-66 43q-37 16 -80 16q-18 0 -35.5 -2.5t-31.5 -8.5q-35 -12 -63 -34.5t-48 -55.5q-36 -5 -69 -22t-57 -43q-28 -30 -43 -67.5t-15 -76.5q0 -58 28.5 -105t74.5 -76h-183 q-7 0 -11.5 -4.5t-4.5 -11.5t4.5 -11.5t11.5 -4.5h640v0v0h244q7 0 11.5 4.5t4.5 11.5t-5 11.5t-11 4.5v0zM368 437q-77 0 -131.5 53t-54.5 128q0 33 13 65.5t37 57.5q22 23 51.5 37.5t62.5 18.5q3 0 6.5 2t5.5 6q16 29 41.5 50t56.5 31q12 5 26 7.5t30 2.5q72 0 124 -50.5 t52 -122.5v-13q0 -7 4.5 -11.5t11.5 -4.5h6q56 0 94 -37t38 -92t-38 -92.5t-94 -37.5h-342v2zM838 230h-652q-8 0 -12 -4t-4 -12q0 -7 4 -11.5t12 -4.5h652q8 0 12 4.5t4 11.5q0 8 -5 12t-11 4zM707 0h-390q-7 0 -11.5 -4.5t-4.5 -11.5t4.5 -11.5t11.5 -4.5h392 q7 0 11.5 4.5t4.5 11.5t-5.5 11.5t-12.5 4.5z" />
</svg>