<svg viewBox="0 0 256 256" xmlns="http://www.w3.org/2000/svg">
  <path transform="scale(1, -1) translate(0, -256)" fill="currentColor" d="M128 174q-9 5 -16 4q-14 0 -24 -9.5t-10 -24.5q-1 -7 2 -14t8 -13l30 -29q4 -4 10 -4t10 4l30 30q11 11 10.5 25t-10.5 25q-8 8 -19 10t-21 -4zM158 128l-30 -30l-30 30q-7 6 -7 15.5t6.5 15t13.5 5.5t11.5 -3t8.5 0q7 4 14.5 3.5t13 -6.5t6 -14.5t-6.5 -15.5zM128 251 q-29 0 -54 -14.5t-39.5 -39t-14.5 -53.5q0 -46 50 -94q25 -25 54 -44v0q2 -1 4 -1t4 1v0q28 18 53 43q50 50 50 95q0 29 -14 53.5t-39 39t-54 14.5zM128 20q-16 10 -32 25q-26 22 -41 44q-21 29 -21 54.5t13 47t34.5 34t46.5 12.5t46.5 -12.5t34.5 -34t13 -46.5 q0 -37 -41 -79q-23 -24 -53 -45z" />
</svg>