<svg viewBox="0 0 1024 1024" xmlns="http://www.w3.org/2000/svg">
  <path transform="scale(1, -1) translate(0, -960)" fill="currentColor" d="M510 619q-14 9 -30.5 13t-33.5 3q-24 0 -46 -8.5t-40 -24.5q-19 -17 -29 -40.5t-11 -49.5q-1 -28 10 -54t30 -45l118 -119q6 -6 15 -9t17 -3q9 0 17 3t15 9l122 122q18 18 27.5 41t9.5 49q0 25 -9.5 48t-27.5 41q-30 34 -73 40t-81 -16zM642 442l-122 -122q-4 -4 -9 -4 t-9 4l-118 117q-14 14 -22 34.5t-8 40.5q0 19 7.5 36.5t20.5 29.5q14 12 30 18.5t34 6.5v0v0q15 0 29 -4.5t26 -12.5q3 -3 8.5 -3t8.5 3q29 19 63.5 16.5t58.5 -28.5q13 -13 21 -30.5t8 -36.5q1 -18 -6 -35t-21 -30v0zM512 928q-86 0 -162 -33t-133 -89.5t-90 -132.5 t-33 -163q0 -106 62 -203q61 -96 136.5 -169.5t140.5 -118.5q64 -44 71 -48q1 -2 3.5 -2.5t4.5 -0.5t4.5 1t3.5 2q6 4 71 50q64 45 139.5 119t137.5 170q62 95 62 200q0 87 -33 163t-89.5 132.5t-133.5 89.5q-76 33 -162 33zM512 3q-22 14 -85 61q-62 46 -129 114.5 t-119 154.5q-53 86 -53 177q0 80 31 150q30 71 82.5 123t122.5 83q70 30 150 30t150 -30q70 -31 122.5 -83t82.5 -123q31 -70 31 -150q0 -90 -53 -175q-52 -86 -118.5 -154.5t-129.5 -115.5t-85 -62z" />
</svg>