<svg viewBox="0 0 1024 1024" xmlns="http://www.w3.org/2000/svg">
  <path transform="scale(1, -1) translate(0, -960)" fill="currentColor" d="M501 360q-7 0 -11.5 -4.5t-4.5 -11.5v-171q0 -7 4.5 -11.5t11.5 -4.5t11.5 4.5t4.5 11.5v171q0 7 -4.5 11.5t-11.5 4.5v0zM813 670h-85v130q0 53 -37.5 90.5t-90.5 37.5h-176q-53 0 -90.5 -37.5t-37.5 -90.5v-131h-85q-26 0 -45 -19t-19 -45v-573q0 -26 19 -45t45 -19 h602q26 0 45 19t19 45v574q0 27 -19 45.5t-45 18.5zM328 800q0 40 28 68t68 28h178q39 0 67.5 -28t28.5 -68v-131h-368v131h-2zM845 32q0 -13 -9.5 -22.5t-22.5 -9.5h-602q-13 0 -22.5 9.5t-9.5 22.5v574q0 14 9.5 23t22.5 9h602q13 0 22.5 -9t9.5 -23v-574z" />
</svg>