<svg viewBox="0 0 1024 1024" xmlns="http://www.w3.org/2000/svg">
  <path transform="scale(1, -1) translate(0, -960)" fill="currentColor" d="M690 616v136q0 36 -14 68t-38 57q-25 24 -57.5 37.5t-66.5 13.5q-74 0 -126 -52t-52 -126v-134q-38 -23 -70 -55q-32 -31 -55 -70t-35 -83q-13 -45 -13 -93q0 -71 28 -134q27 -64 74.5 -111t110.5 -75q64 -27 136 -27t135 27q64 28 111.5 75.5t74.5 110.5q28 64 28 136 q0 47 -13 91q-12 44 -34.5 83t-53.5 70q-32 32 -70 55v0zM368 750q0 60 43 103t103 43q28 0 55 -11t47 -32t31.5 -47.5t11.5 -55.5v-118q-33 16 -70 24t-75 8q-39 0 -75 -8t-69 -24v118h-2zM512 0q-65 0 -123 25t-101 68t-68 101q-25 57 -25 123q0 65 25 123t68 101t101 68 t123 25t123 -25t101 -68t68 -101t25 -123q0 -66 -25 -123q-25 -58 -68 -101t-101 -68t-123 -25v0zM512 301q-7 0 -11.5 -4.5t-4.5 -11.5v-139q0 -8 4.5 -12t11.5 -4t11.5 4t4.5 12v139q0 6 -4.5 11t-11.5 5z" />
</svg>