<svg viewBox="0 0 256 256" xmlns="http://www.w3.org/2000/svg">
  <path transform="scale(1, -1) translate(0, -256)" fill="currentColor" d="M176 172v32q0 20 -14 33.5t-34 13.5t-33.5 -13.5t-13.5 -33.5v-32q-20 -12 -31.5 -32.5t-11.5 -44.5t12 -45t33 -33t45 -12t45 12t33 33t12 45t-11.5 44t-30.5 33zM95 204q0 13 10 23t23.5 10t23.5 -9.5t10 -23.5v-26q-17 7 -34 7t-33 -7v26zM128 19q-21 0 -38.5 10 t-27.5 27.5t-10 38t10 38t27.5 28t38.5 10.5t38.5 -10.5t27.5 -28t10 -38t-10 -38t-27.5 -27.5t-38.5 -10zM128 94q-3 0 -5 -2t-2 -5v-35q0 -3 2 -5t5 -2t5 2t2 5v35q0 3 -2 5t-5 2z" />
</svg>