<svg viewBox="0 0 256 256" xmlns="http://www.w3.org/2000/svg">
  <path transform="scale(1, -1) translate(0, -256)" fill="currentColor" d="M204 177h-27v20q0 15 -6.5 27.5t-18 19.5t-24.5 7t-24.5 -7t-18 -19.5t-6.5 -27.5v-20h-27q-11 0 -18.5 -7.5t-7.5 -17.5v-70q0 -21 10.5 -38.5t28 -28t38.5 -10.5h50q21 0 39 10t28 28t10 38v71q0 10 -7.5 17.5t-18.5 7.5zM93 197q0 17 10 28.5t25 11.5t25 -11.5 t10 -28.5v-19h-70v19zM216 82q0 -17 -8.5 -31.5t-23 -23t-31.5 -8.5h-50q-17 0 -31.5 8.5t-23 23t-8.5 31.5v70q0 4 3.5 7.5t8.5 3.5h152q5 0 8.5 -3.5t3.5 -7.5v-70zM145 93h-34q-4 0 -7.5 -3.5t-3.5 -7.5v-34q0 -5 3 -8.5t8 -3.5h34q5 0 8 3.5t3 8.5v34q0 4 -3 7.5t-8 3.5 zM142 51h-28v28h28v-28z" />
</svg>