<svg viewBox="0 0 256 256" xmlns="http://www.w3.org/2000/svg">
  <path transform="scale(1, -1) translate(0, -256)" fill="currentColor" d="M205 251h-154q-10 0 -16.5 -6.5t-6.5 -15.5v-217q0 -3 2.5 -5t5.5 -2t5 2t2 5v44h94v-44q0 -3 2 -5t5 -2t5 2t2 5v13h63v-13q0 -3 2.5 -5t5.5 -2t5 2t2 5v217q-1 9 -8 15.5t-16 6.5zM214 229v-89h-64v97h55q4 0 6.5 -2.5t2.5 -5.5zM51 237h85v-59h-94v51q0 3 2.5 5.5 t6.5 2.5zM42 70v94h94v-94h-94zM150 39v87h64v-88h-64v1zM168 174q3 0 5 2t2 5v2q0 3 -2 5t-5 2t-5.5 -2t-2.5 -5v-2q0 -3 2.5 -5t5.5 -2zM168 98q-3 0 -5.5 -2t-2.5 -5v-3q0 -3 2.5 -5t5.5 -2t5 2t2 5v3q-1 3 -2.5 5t-4.5 2z" />
</svg>