<svg viewBox="0 0 1024 1024" xmlns="http://www.w3.org/2000/svg">
  <path transform="scale(1, -1) translate(0, -960)" fill="currentColor" d="M630 349h-41v62q0 39 -27.5 66t-65.5 27t-65.5 -27t-27.5 -66v-62h-41q-8 0 -12 -4.5t-4 -11.5v-157q0 -7 4 -11.5t12 -4.5h270q7 0 11.5 4.5t4.5 11.5v157q-1 7 -5.5 11.5t-12.5 4.5v0zM435 411q0 25 18 43t43 18t43 -18t18 -43v-62h-122v62v0zM614 192h-238v125h238 v-125zM928 872h-832q-26 0 -45 -19t-19 -45v-720q0 -26 19 -45t45 -19h832q26 0 45 19t19 45v720q0 26 -19 45t-45 19zM96 840h832q13 0 22.5 -9.5t9.5 -22.5v-192h-896v192q0 13 9.5 22.5t22.5 9.5zM928 56h-832q-13 0 -22.5 9.5t-9.5 22.5v496h896v-496q0 -13 -9.5 -22.5 t-22.5 -9.5zM194 704h12q8 0 12 4.5t4 11.5t-4 11.5t-12 4.5h-12q-8 0 -12 -4.5t-4 -11.5t5 -11.5t11 -4.5zM338 704h12q8 0 12 4.5t4 11.5t-4 11.5t-12 4.5h-12q-8 0 -12 -4.5t-4 -11.5t5 -11.5t11 -4.5zM482 704h12q8 0 12 4.5t4 11.5t-4 11.5t-12 4.5h-12q-8 0 -12 -4.5 t-4 -11.5t5 -11.5t11 -4.5z" />
</svg>