<svg viewBox="0 0 256 256" xmlns="http://www.w3.org/2000/svg">
  <path transform="scale(1, -1) translate(0, -256)" fill="currentColor" d="M175 172v32q0 20 -13 33q-7 7 -15.5 10.5t-19 3.5t-20 -4.5t-16.5 -13.5q-2 -3 -1.5 -5.5t3 -4.5t5.5 -1.5t4 2.5q5 6 12 9.5t14 3.5q14 0 24 -9.5t10 -23.5v-26q-17 7 -34 7q-24 0 -44.5 -12t-32.5 -33t-12 -45.5t12 -45t32.5 -32.5t45 -12t45 12t32.5 32.5t12 45 t-11.5 44.5t-31.5 33zM128 19q-20 0 -37.5 10t-28 27.5t-10.5 38t10.5 38t28 28t37.5 10.5t37.5 -10.5t28 -28t10.5 -38t-10.5 -38t-28 -27.5t-37.5 -10zM128 94q-3 0 -5 -2t-2 -5v-35q0 -3 2 -5t5 -2t5 2t2 5v35q0 3 -2 5t-5 2z" />
</svg>