<svg viewBox="0 0 1024 1024" xmlns="http://www.w3.org/2000/svg">
  <path transform="scale(1, -1) translate(0, -960)" fill="currentColor" d="M821 928h-618q-32 0 -55 -23t-23 -54v-867q0 -7 4.5 -11.5t11.5 -4.5t11.5 4.5t4.5 11.5v189h400v-189q0 -7 4.5 -11.5t11.5 -4.5t11.5 4.5t4.5 11.5v62h277v-62q0 -7 4 -11.5t12 -4.5q7 0 11.5 4.5t4.5 11.5v867q1 31 -22 54t-55 23zM867 851v-368h-278v413h232 q19 0 32.5 -13.5t13.5 -31.5zM203 896h355v-261h-400v216q-1 18 12.5 31.5t32.5 13.5zM157 205v398h400v-398h-400v0zM589 78v373h277v-373h-277zM670 643q8 0 12 4.5t4 11.5v10q0 7 -4 11.5t-12 4.5q-7 0 -11.5 -4.5t-4.5 -11.5v-10q0 -7 4.5 -11.5t11.5 -4.5zM670 315 q-7 0 -11.5 -4.5t-4.5 -11.5v-9q0 -8 4.5 -12t11.5 -4q8 0 12 4t4 12v9q0 7 -5 11.5t-11 4.5z" />
</svg>