<svg viewBox="0 0 256 256" xmlns="http://www.w3.org/2000/svg">
  <path transform="scale(1, -1) translate(0, -256)" fill="currentColor" d="M158 106h-8v13q0 11 -7.5 18.5t-18.5 7.5t-18.5 -7.5t-7.5 -18.5v-13h-8q-3 0 -5 -2t-2 -5v-39q0 -3 2 -5t5 -2h68q3 0 5 2t2 5v39q0 3 -2 5t-5 2zM112 119q0 5 3.5 8.5t8 3.5t8.5 -3.5t4 -8.5v-13h-25v13h1zM151 67h-54v25h54v-25zM232 237h-208q-8 0 -13.5 -5.5 t-5.5 -13.5v-180q0 -8 5.5 -13.5t13.5 -5.5h208q8 0 13.5 5.5t5.5 13.5v180q0 8 -5.5 13.5t-13.5 5.5zM24 223h208q2 0 3.5 -1.5t1.5 -3.5v-45h-218v45q0 2 1.5 3.5t3.5 1.5zM232 33h-208q-2 0 -3.5 1.5t-1.5 3.5v121h218v-121q0 -2 -1.5 -3.5t-3.5 -1.5zM48 189h4q3 0 5 2 t2 5t-2 5t-5 2h-4q-3 0 -5 -2t-2 -5t2 -5t5 -2zM84 189h4q3 0 5 2t2 5t-2 5t-5 2h-4q-3 0 -5 -2t-2 -5t2 -5t5 -2zM120 189h4q3 0 5 2t2 5t-2 5t-5 2h-4q-3 0 -5 -2t-2 -5t2.5 -5t4.5 -2z" />
</svg>