<svg viewBox="0 0 256 256" xmlns="http://www.w3.org/2000/svg">
  <path transform="scale(1, -1) translate(0, -256)" fill="currentColor" d="M188 176v13q0 24 -16 42t-39 20q-12 1 -24 -3t-21.5 -12.5t-14.5 -20t-5 -23.5v-15q-18 -3 -30 -17t-12 -32v-76q0 -20 14 -33.5t33 -13.5h109q20 0 34 14t14 33v76q0 18 -12 31.5t-30 16.5zM97 225q15 14 35 12q17 -2 29.5 -15.5t12.5 -32.5v-12h-92v15q0 9 4 18t11 15z M216 52q0 -13 -9.5 -23t-23.5 -10h-110q-14 0 -23.5 10t-9.5 23v75q0 15 10.5 25.5t25.5 10.5h104q15 0 25.5 -10t10.5 -25v-76zM128 114q-3 0 -5 -2t-2 -5v-42q0 -3 2 -5t5 -2t5 2t2 5v42q0 3 -2 5t-5 2z" />
</svg>