<svg viewBox="0 0 256 256" xmlns="http://www.w3.org/2000/svg">
  <path transform="scale(1, -1) translate(0, -256)" fill="currentColor" d="M216 251h-60q-8 0 -15.5 -3.5t-12.5 -10.5q-5 7 -12.5 10.5t-15.5 3.5h-60q-14 0 -24.5 -10t-10.5 -25v-176q0 -14 10 -24.5t25 -10.5h60q8 0 15.5 3.5t12.5 10.5q5 -7 12.5 -10.5t15.5 -3.5h60q14 0 24.5 10t10.5 25v176q0 14 -10.5 24.5t-24.5 10.5zM100 19h-60 q-9 0 -15 6t-6 15v176q0 9 6 15t15 6h60q9 0 15 -6t6 -15v-176q0 -9 -6 -15t-15 -6zM237 40q0 -9 -6 -15t-15 -6h-60q-9 0 -15 6t-6 15v176q0 9 6 15t15 6h60q9 0 15 -6t6 -15v-176zM98 206h-54q-3 0 -5.5 -2.5t-2.5 -5.5t2.5 -5t5.5 -2h54q3 0 5 2t2 5t-2 5.5t-5 2.5z M98 174h-54q-3 0 -5.5 -2t-2.5 -5t2.5 -5t5.5 -2h54q3 0 5 2t2 5t-2 5t-5 2zM211 206h-49q-3 0 -5 -2.5t-2 -5.5t2 -5t5 -2h49q3 0 5 2t2 5t-2 5.5t-5 2.5zM211 174h-49q-3 0 -5 -2t-2 -5t2 -5t5 -2h49q3 0 5 2t2 5t-2 5t-5 2zM48 137q-3 0 -5.5 -2t-2.5 -5v-46q0 -3 2.5 -5 t5.5 -2t5 2t2 5v46q0 3 -2 5t-5 2zM165 134q-3 0 -5 -2t-2 -5v-46q0 -3 2 -5t5 -2t5 2t2 5v46q0 3 -2 5t-5 2z" />
</svg>