<svg viewBox="0 0 1024 1024" xmlns="http://www.w3.org/2000/svg">
  <path transform="scale(1, -1) translate(0, -960)" fill="currentColor" d="M739 632v61q0 45 -16 86t-44 72.5t-65 52.5q-38 20 -81 24q-49 5 -94 -11t-81 -48q-34 -31 -53 -74.5t-19 -90.5v-72q-70 -7 -119 -60.5t-49 -125.5v-302q0 -73 52 -124.5t124 -51.5h437q73 0 125.5 52t52.5 126v302q-1 71 -50 123.5t-120 60.5zM379 845q31 27 70 41 t81 10q74 -6 125.5 -65t51.5 -138v-59h-390v70q0 40 16 76.5t46 64.5v0zM877 146q0 -60 -43 -103t-103 -43h-438q-60 0 -102 42.5t-42 101.5v301q0 65 45.5 110t109.5 45h414q65 0 112 -45t47 -107v-302v0zM512 379q-7 0 -11.5 -4.5t-4.5 -11.5v-168q0 -7 4.5 -11.5 t11.5 -4.5t11.5 4.5t4.5 11.5v168q0 7 -4.5 11.5t-11.5 4.5z" />
</svg>