<svg viewBox="0 0 256 256" xmlns="http://www.w3.org/2000/svg">
  <path transform="scale(1, -1) translate(0, -256)" fill="currentColor" d="M125 109q-3 0 -5 -2t-2 -5v-43q0 -3 2 -5t5 -2t5 2t2 5v43q0 3 -2 5t-5 2zM203 186h-18v30q0 14 -10 24.5t-25 10.5h-44q-14 0 -24.5 -10.5t-10.5 -24.5v-30h-18q-8 0 -13.5 -5.5t-5.5 -13.5v-143q0 -8 5.5 -13.5t13.5 -5.5h151q7 0 13 5.5t6 13.5v144q-1 7 -6.5 12.5 t-13.5 5.5zM85 216q0 9 6 15t15 6h44q9 0 15 -6t6 -15v-30h-86v30zM208 24q0 -2 -1.5 -3.5t-3.5 -1.5h-150q-2 0 -3.5 1.5t-1.5 3.5v144q0 2 1.5 3.5t3.5 1.5h150q2 0 3.5 -1.5t1.5 -3.5v-144z" />
</svg>