<svg viewBox="0 0 1024 1024" xmlns="http://www.w3.org/2000/svg">
  <path transform="scale(1, -1) translate(0, -960)" fill="currentColor" d="M688 616q0 1 1 2.5t1 3.5v130q0 36 -13 68t-39 57q-25 24 -57.5 37.5t-66.5 13.5q-41 0 -77.5 -18t-62.5 -51q-3 -5 -2.5 -12t6.5 -10q4 -4 10.5 -3t9.5 6q22 26 52 41t64 15q28 0 55 -11t47 -32t31 -47.5t11 -55.5v-118q-34 16 -70 24t-76 8q-72 0 -135 -27 q-63 -28 -110.5 -75.5t-74.5 -110.5q-27 -64 -27 -136t27 -135t74 -110t111 -75q63 -27 135 -27t135 27q63 28 110.5 75.5t74.5 110.5q27 64 27 136q0 47 -12 91t-34.5 83t-54.5 70q-32 32 -70 55zM512 0q-65 0 -123 25q-57 25 -100 68t-67 101q-25 57 -25 123q0 65 25 123 q24 58 67 101t100 68q58 25 123 25t123 -25q57 -25 100 -68t67 -101q25 -58 25 -123q0 -66 -25 -123q-24 -58 -67 -101t-100 -68q-58 -25 -123 -25zM512 301q-7 0 -11.5 -4.5t-4.5 -11.5v-139q0 -8 4.5 -12t11.5 -4t11.5 4t4.5 12v139q0 6 -4.5 11t-11.5 5z" />
</svg>