<svg viewBox="0 0 256 256" xmlns="http://www.w3.org/2000/svg">
  <path transform="scale(1, -1) translate(0, -256)" fill="currentColor" d="M211 168q0 23 -11.5 42t-30.5 30t-41 11t-41 -11t-30.5 -30t-11.5 -41t10 -40t27.5 -29.5t38.5 -13.5v-74q0 -3 2 -5t5 -2t5.5 2t2.5 5v74q20 2 37.5 13.5t27.5 29.5t10 39zM128 100q-19 0 -34.5 9t-25 25t-9.5 34.5t9.5 34t25 25t34.5 9.5t34.5 -9.5t25 -25t9.5 -34.5 t-9.5 -34.5t-25 -24.5t-34.5 -9zM128 207q-16 0 -27.5 -11.5t-11.5 -27.5t11.5 -27.5t27.5 -11.5t27.5 11.5t11.5 27.5t-11.5 27.5t-27.5 11.5zM128 144q-10 0 -17.5 7t-7.5 17.5t7.5 17.5t17.5 7t17.5 -7t7.5 -17.5t-7.5 -17.5t-17.5 -7z" />
</svg>