<svg viewBox="0 0 1024 1024" xmlns="http://www.w3.org/2000/svg">
  <path transform="scale(1, -1) translate(0, -960)" fill="currentColor" d="M803 760h-35q-16 38 -42 69q-27 31 -60.5 53t-72.5 34t-81 12t-81 -12t-72.5 -33.5t-60.5 -53.5q-26 -31 -42 -69h-35q-27 0 -45.5 -19t-18.5 -45v-94q0 -27 18.5 -45.5t45.5 -18.5h35q31 -74 96 -119t144 -49v-386q0 -7 4.5 -11.5t11.5 -4.5t11.5 4.5t4.5 11.5v386 q79 4 144 49t96 119h35q27 0 45.5 18.5t18.5 45.5v94q0 26 -18.5 45t-45.5 19zM512 896q71 0 130.5 -37t90.5 -99h-442q31 62 90.5 99t130.5 37v0zM512 402q-71 0 -130.5 36.5t-90.5 99.5h443q-32 -63 -91.5 -99.5t-130.5 -36.5zM835 602q0 -14 -9.5 -23t-22.5 -9h-582 q-13 0 -22.5 9t-9.5 23v94q0 13 9.5 22.5t22.5 9.5h45v0v0v0v0h491v0v0h45q13 0 22.5 -9.5t9.5 -22.5v-94h1z" />
</svg>