<svg viewBox="0 0 1024 1024" xmlns="http://www.w3.org/2000/svg">
  <path transform="scale(1, -1) translate(0, -960)" fill="currentColor" d="M830 610q0 66 -25 124t-68 101t-101 68t-124 25t-124 -25t-101 -68t-68 -101t-25 -124q0 -42 10 -81t30 -73q0 -1 0.5 -1.5l0.5 -0.5q20 -34 48 -63q27 -29 61 -50.5t73 -33.5t81 -14v-309q0 -7 4 -11.5t12 -4.5q7 0 11.5 4.5t4.5 11.5v307q63 3 117 29q55 26 96 69 t64 100q23 56 23 121v0zM512 322q-79 0 -144.5 39t-103.5 103q30 95 68.5 147t80.5 59q55 9 97 -36.5t44 -46.5q3 -6 9.5 -7t12.5 4q6 4 7 10t-2 12q-3 4 -52.5 55.5t-118.5 40.5q-50 -7 -91 -56.5t-74 -139.5q-10 24 -14.5 50t-4.5 54q0 58 22 110q23 53 61.5 92t90.5 61 q53 23 112 23t112 -23q52 -22 90.5 -61t61.5 -91q22 -53 22 -111q0 -59 -22 -112q-23 -52 -61.5 -91.5t-90.5 -61.5q-53 -23 -112 -23v0z" />
</svg>