<svg viewBox="0 0 256 256" xmlns="http://www.w3.org/2000/svg">
  <path transform="scale(1, -1) translate(0, -256)" fill="currentColor" d="M211 168q0 23 -11.5 42t-30.5 30t-41 11t-41 -11t-30.5 -30t-11.5 -41t11 -40v-2q10 -17 27.5 -28t37.5 -13v-74q0 -3 2 -5t5 -2t5.5 2t2.5 5v74q20 2 37.5 13.5t27.5 29.5t10 39zM128 100q-18 0 -33.5 8.5t-24.5 23.5q7 22 15.5 34.5t18 14t20.5 -6.5q8 -6 12 -13 q2 -3 4.5 -3.5t5 1.5t3 4.5t-1.5 5.5q-5 7 -13 14q-17 14 -32 11q-25 -4 -41 -43q-2 8 -2 17q0 19 9 34.5t25 25t34.5 9.5t34.5 -9.5t25 -25t9 -34.5t-9 -34.5t-24.5 -24.5t-34.5 -9z" />
</svg>