<svg viewBox="0 0 1024 1024" xmlns="http://www.w3.org/2000/svg">
  <path transform="scale(1, -1) translate(0, -960)" fill="currentColor" d="M922 610q0 66 -25 124t-68.5 101t-101.5 68t-124 25q-62 0 -118.5 -22t-100.5 -64q-58 -3 -109 -27q-52 -23 -90 -62.5t-60 -91.5q-23 -52 -23 -111q0 -38 9.5 -73.5t27.5 -66.5l1 -1l1 -1q36 -64 98.5 -104t139.5 -43v-277q0 -7 4.5 -11.5t11.5 -4.5t11.5 4.5t4.5 11.5 v277q34 2 65.5 11t59.5 26q12 -3 25 -5t26 -2v-307q0 -7 4.5 -11.5t11.5 -4.5t11.5 4.5t4.5 11.5v307q63 3 118 29t96 69t65 100q24 56 24 121zM171 419q28 85 62 132.5t73 53.5q49 7 87 -33.5t39 -41.5q4 -6 10 -7t12 3t7.5 10.5t-2.5 12.5q-2 3 -47 50t-110 38 q-44 -7 -81 -51.5t-67 -124.5q-9 21 -12.5 44t-3.5 47q0 53 20 101q21 47 56 82t82 56q47 20 101 20q53 0 100 -20q48 -21 83 -56t56 -82q20 -48 20 -101t-20 -101q-21 -47 -56 -82t-83 -56q-47 -20 -100 -20q-73 -1 -132.5 34.5t-93.5 91.5v0zM602 322h-14t-14 1 q51 40 81 99.5t30 127.5q0 56 -20 105q-19 49 -53.5 88t-80.5 64q-47 25 -101 31q38 28 81.5 43t90.5 15q59 0 111 -23q52 -22 91 -61t62 -91q22 -53 22 -111q0 -59 -22 -112q-23 -52 -62 -91t-91 -62t-111 -23v0z" />
</svg>