<svg viewBox="0 0 256 256" xmlns="http://www.w3.org/2000/svg">
  <path transform="scale(1, -1) translate(0, -256)" fill="currentColor" d="M233 168q0 23 -11 42t-30 30t-42 11q-15 0 -29.5 -5.5t-25.5 -15.5q-20 -1 -36.5 -11.5t-26 -27.5t-9.5 -37t9 -36l1 -2q9 -16 24.5 -26t34.5 -12v-66q0 -3 2 -5t5 -2t5 2t2 5v66q15 2 29 9q4 -1 9 -1v-74q0 -3 2 -5t5 -2t5 2t2 5v74q21 2 38 13.5t27 29.5t10 39zM46 121 q13 41 31 43q8 1 17 -6q7 -5 11 -11q2 -3 4.5 -3.5t5 1.5t3 4.5t-1.5 5.5q-4 7 -12 13q-15 12 -30 10q-21 -3 -36 -38q-2 9 -2 14q0 16 8.5 30.5t22.5 22.5t31 8t31 -8t22.5 -22.5t8.5 -31t-8.5 -30.5t-22.5 -22.5t-30.5 -8.5t-30 8t-22.5 21zM151 100q11 10 17 24t6 30 q0 27 -16.5 47.5t-42.5 26.5q17 9 35.5 9t34 -9t25 -25t9.5 -34.5t-9 -34.5t-24.5 -25t-34.5 -9z" />
</svg>