<svg viewBox="0 0 256 256" xmlns="http://www.w3.org/2000/svg">
  <path transform="scale(1, -1) translate(0, -256)" fill="currentColor" d="M209 170q0 25 -14 45t-36 30h-2q-14 6 -29 6q-22 0 -40.5 -11t-29.5 -29.5t-11 -40t10 -39.5t27 -29t37 -13v-77q0 -3 2 -5t5 -2t5.5 2t2.5 5v77q20 2 37 13t26.5 29t9.5 39zM69 138q-5 9 -7 21l94 71q11 -5 19 -12zM128 237q7 0 12 -1l-79 -60q3 26 22 43.5t45 17.5z M77 126v1l107 80q7 -10 10 -22l-98 -74q-12 6 -19 15zM128 102q-9 0 -17 3l84 63q0 -18 -9 -33t-24.5 -24t-33.5 -9z" />
</svg>