<svg viewBox="0 0 1024 1024" xmlns="http://www.w3.org/2000/svg">
  <path transform="scale(1, -1) translate(0, -960)" fill="currentColor" d="M826 614q0 50 -15 94q-14 45 -39.5 83t-61.5 67q-35 29 -78 46h-1.5t-1.5 2q-28 10 -57 16t-60 6q-65 0 -122 -25q-57 -24 -99.5 -67t-67.5 -100t-25 -122q0 -62 23 -117q24 -56 64 -98t94 -68q55 -26 117 -29v-318q0 -7 4.5 -11.5t11.5 -4.5t11.5 4.5t4.5 11.5v318 q62 3 116 29t94.5 68t63.5 98q24 55 24 117zM718 805l-446 -336q-14 24 -24.5 51.5t-13.5 57.5l390 294q28 -12 51 -29t43 -38zM512 896q20 0 39.5 -2.5t37.5 -8.5l-359 -269q1 58 23 109t60.5 89t89.5 60t109 22zM290 443l448 338q18 -24 30.5 -52.5t18.5 -58.5l-405 -304 q-26 14 -49.5 33.5t-42.5 43.5zM512 334q-25 0 -49 5t-45 13l374 283q0 -5 1 -9.5t1 -9.5q0 -58 -23 -109q-22 -52 -60 -90t-90 -60q-51 -23 -109 -23z" />
</svg>