<svg viewBox="0 0 1024 1024" xmlns="http://www.w3.org/2000/svg">
  <path transform="scale(1, -1) translate(0, -960)" fill="currentColor" d="M915 846q-36 40 -85 61t-105 21q-84 0 -135.5 -29t-77.5 -62q-26 33 -77.5 62t-135.5 29q-56 0 -105 -21t-85 -61q-37 -42 -56 -100t-19 -128q0 -42 14 -89q14 -46 42.5 -98t71.5 -110q42 -57 99 -119q40 -45 79 -83q38 -38 68.5 -66t50.5 -45q19 -16 21 -18l22 -19 q3 -2 5.5 -2.5t4.5 -0.5t5 1t5 2l22 19q2 2 21 18q20 17 50.5 45t68.5 66q39 38 79 83q57 62 99 119q43 58 71.5 110t42.5 98q14 47 14 89q0 70 -19 128t-56 100v0zM741 224q-40 -44 -78 -81q-38 -38 -68 -65.5t-49 -44.5q-19 -16 -21 -17l-13 -11l-13 11q-2 1 -21 17 q-19 17 -49 44.5t-68 65.5q-38 37 -78 81q-54 60 -95 115q-40 55 -67.5 104t-41.5 93q-13 44 -13 82q0 64 17 116.5t50 89.5q31 35 73.5 53.5t92.5 18.5q84 0 130.5 -30t68.5 -61l1 -3q3 -4 6 -5.5t7 -1.5v0v0q4 0 7 2.5t6 5.5l3 2q22 31 68 61t129 30q49 0 92 -18.5 t74 -51.5q34 -38 50.5 -90t16.5 -117q0 -38 -13 -82q-14 -44 -41.5 -93.5t-67.5 -104.5q-41 -55 -95 -115zM611 402q12 15 19 34t7 39q0 31 -15 62.5t-43 59.5v0q-72 72 -144 55t-73 -17l-5 -1l-3 -5q0 -1 -17 -72.5t55 -143.5q29 -29 60.5 -43.5t62.5 -14.5q21 0 39 6.5 t35 19.5l72 -72q2 -3 5.5 -4t5.5 -1q4 0 6.5 1t4.5 4q5 5 5 11t-5 11l-72 71v0zM414 434q-52 52 -46.5 105t11.5 69q16 6 69.5 12t106.5 -47q23 -23 35.5 -48.5t12.5 -50.5q0 -15 -3.5 -27.5t-12.5 -24.5l-41 40q-5 5 -11.5 5t-11.5 -5q-5 -4 -5 -10.5t5 -11.5l40 -40 q-30 -20 -70.5 -12t-78.5 46v0z" />
</svg>