<svg viewBox="0 0 1024 1024" xmlns="http://www.w3.org/2000/svg">
  <path transform="scale(1, -1) translate(0, -960)" fill="currentColor" d="M928 736h-832q-26 0 -45 -19t-19 -45v-448q0 -26 19 -45t45 -19h832q26 0 45 19t19 45v448q0 26 -19 45t-45 19zM413 563q9 10 22 14.5t26 4.5v0v0q11 0 21.5 -3t19.5 -9q4 -3 9 -3t9 3q22 14 48 12t45 -20q11 -11 16 -24t5 -28q0 -14 -6 -27t-15 -24l-96 -96 q-3 -2 -5 -2t-5 2l-93 93q-10 11 -16.5 26.5t-5.5 31.5q-1 14 4.5 27t16.5 22v0zM635 584q-25 25 -59 29.5t-64 -11.5q-12 6 -24 9t-26 3q-19 0 -37.5 -7t-32.5 -20q-6 -6 -11.5 -12.5t-9.5 -14.5l-269 144h820l-269 -144q-4 6 -8.5 12t-9.5 12v0zM960 224q0 -13 -9.5 -22.5 t-22.5 -9.5h-832q-13 0 -22.5 9.5t-9.5 22.5v448q0 4 1 7.5t2 6.5l293 -156q-1 -4 -1.5 -8.5t-0.5 -7.5q0 -23 8.5 -44t23.5 -38l93 -93q6 -6 13 -8.5t14 -2.5q8 0 15 2.5t13 8.5l96 96q14 15 22 34t8 40v9.5t-2 9.5l293 157q1 -4 2 -7.5t1 -7.5v-446h2z" />
</svg>