<svg viewBox="0 0 1024 1024" xmlns="http://www.w3.org/2000/svg">
  <path transform="scale(1, -1) translate(0, -960)" fill="currentColor" d="M344 461q4 0 6.5 1t4.5 4l104 104q24 24 24 56.5t-24 56.5t-56.5 24t-56.5 -24l-2 -1l-2 1q-24 24 -56.5 24t-56.5 -24t-24 -56.5t24 -56.5l104 -104q2 -3 4.5 -4t6.5 -1v0zM251 659q7 7 16 11t18 4q8 0 17 -4t16 -11l13 -13q3 -2 5.5 -3t5.5 -1q4 0 6.5 1t5.5 3l12 13 q15 15 35 15t34 -15q15 -14 15 -34t-15 -35l-93 -92l-91 94q-14 13 -14 33.5t14 33.5v0zM738 706q-16 0 -31 -6t-25 -18l-2 -2l-2 2q-10 10 -25 17t-31 7q-15 0 -30 -6t-26 -18q-24 -24 -24 -57t24 -57l104 -104q3 -2 6 -3.5t6 -1.5q2 0 5 1.5t6 3.5l104 104q24 24 24 57 t-24 57q-13 12 -28 18t-31 6zM773 592l-93 -93l-93 93q-14 14 -14 34t14 35q7 7 15.5 10.5t18.5 3.5q9 0 18 -3.5t15 -10.5l13 -13q5 -5 11.5 -5t11.5 5l12 13q14 13 34.5 13t34.5 -13q16 -15 16 -35.5t-14 -33.5zM512 928q-99 0 -186 -38q-88 -38 -153 -103t-103 -153 q-38 -87 -38 -186t38 -186q38 -88 103 -153t153 -103q87 -38 186 -38t186 38q88 38 153 103t103 153q38 87 38 186t-38 186q-38 88 -103 153t-153 103q-87 38 -186 38zM512 0q-92 0 -174 35q-81 36 -142 97t-97 142q-35 82 -35 174t35 174q36 81 96.5 142t142.5 97 q82 35 174 35t174 -35q81 -36 142 -96.5t97 -142.5q35 -82 35 -174t-35 -174q-36 -81 -96.5 -142t-142.5 -97q-82 -35 -174 -35zM712 338h-400q-7 0 -14 -3.5t-12 -9.5q-4 -6 -5.5 -13t-0.5 -14q8 -42 29 -78q22 -35 53 -60.5t70 -39.5t82 -14q42 0 81 14t70 39.5t52 60.5 q22 36 30 78q1 7 0 14t-6 13q-7 6 -14.5 9.5t-14.5 3.5v0zM512 139q-73 0 -130 47.5t-72 119.5l0.5 0.5t1.5 0.5h400h1h1q-15 -74 -72 -121t-130 -47z" />
</svg>