<svg viewBox="0 0 256 256" xmlns="http://www.w3.org/2000/svg">
  <path transform="scale(1, -1) translate(0, -256)" fill="currentColor" d="M86 128q3 0 5 2l26 26q6 7 6 16.5t-6 16t-15 7t-16 -5.5q-7 6 -16 5.5t-15 -7t-6 -16t6 -16.5l26 -26q2 -2 5 -2zM65 179q3 3 7 3t6 -3l3 -3q2 -2 5 -2t5 2l3 3q3 3 6.5 3t6.5 -3t2.5 -6.5t-2.5 -6.5l-21 -21l-21 21q-3 3 -2.5 6.5t2.5 6.5zM201 189q-7 7 -15.5 7 t-15.5 -6q-7 6 -15.5 6t-15.5 -7t-7 -16.5t7 -16.5l26 -26q2 -2 5 -2t5 2l26 26q7 7 7 16.5t-7 16.5zM191 166l-21 -21l-21 21q-2 3 -2 6.5t2.5 6.5t6.5 3t6 -3l3 -3q2 -2 5 -2.5t5 2.5l3 3q3 2 7 2t6.5 -2.5t2 -6t-2.5 -6.5zM128 251q-33 0 -61.5 -16.5t-45 -45 t-16.5 -61.5t16.5 -61.5t45 -45t61.5 -16.5t61.5 16.5t45 45t16.5 61.5t-16.5 61.5t-45 45t-61.5 16.5zM128 19q-29 0 -54 14.5t-40 39.5t-15 55t15 54.5t39.5 39.5t54.5 15t55 -15t39.5 -40t14.5 -54.5t-14.5 -54.5t-39.5 -39.5t-55 -14.5zM178 103h-100q-5 0 -8.5 -4 t-2.5 -9q4 -22 21.5 -36t39.5 -14t39.5 14t21.5 36q1 4 -2 8.5t-9 4.5zM128 54q-16 0 -29.5 10t-17.5 25h93q-4 -15 -17 -25t-29 -10z" />
</svg>