<svg viewBox="0 0 1024 1024" xmlns="http://www.w3.org/2000/svg">
  <path transform="scale(1, -1) translate(0, -960)" fill="currentColor" d="M621 674v222h29q7 0 11.5 4.5t4.5 11.5t-4.5 11.5t-11.5 4.5h-45q-7 0 -11.5 -4.5t-4.5 -11.5v-250v0v-1v-1.5v-1.5v-2l1 -2q0 -1 1 -1.5t1 -1.5t1 -1h1l1 -1t2 -1t1.5 -1t1.5 -1v0h2q53 -15 97 -45q45 -31 77 -73t49 -92q18 -51 18 -106q0 -69 -27 -129 q-26 -60 -70.5 -104.5t-105.5 -70.5q-60 -26 -128 -26t-128 26t-105 70.5t-71 104.5t-26 129q0 55 18 106t50 93t76 72q45 31 98 45v0h2q1 0 1.5 1t1.5 1t1.5 1t1.5 1l1 0.5l1 0.5q0 1 0.5 1.5t0.5 1.5q0 2 0.5 2t1.5 2v1.5v1.5v0v1v250q0 7 -4.5 11.5t-11.5 4.5h-43 q-8 0 -12 -4.5t-4 -11.5t4 -11.5t12 -4.5h27v-222q-57 -18 -103 -51q-47 -34 -80.5 -79.5t-52.5 -99.5q-19 -55 -19 -114q0 -75 29 -141q28 -66 77 -115t115 -78q66 -28 141 -28t141 28q66 29 115 78t77 115q29 66 29 141q0 59 -19 114q-19 54 -52 99.5t-80 79.5 q-46 33 -102 51v0zM381 378q0 -20 7 -38t20 -33l78 -78q5 -5 12 -7.5t14 -2.5t13.5 2.5t12.5 7.5l80 80q13 13 19 29.5t6 34.5t-6.5 34.5t-18.5 29.5q-22 21 -51 25t-55 -9q-10 5 -20.5 7t-21.5 2q-16 0 -31.5 -6t-28.5 -18q-14 -9 -21.5 -25t-7.5 -35v0zM430 418 q9 7 18.5 10.5t20.5 3.5v0v0q8 0 16.5 -2.5t15.5 -7.5q3 -2 8.5 -2t8.5 2q17 12 38.5 10t35.5 -16q8 -8 13 -19t5 -23t-5 -22.5t-13 -18.5l-80 -80q-1 -1 -2.5 -1t-2.5 1l-75 78q-10 10 -14.5 21.5t-4.5 25.5q0 12 4.5 22t12.5 18v0z" />
</svg>