<svg viewBox="0 0 256 256" xmlns="http://www.w3.org/2000/svg">
  <path transform="scale(1, -1) translate(0, -256)" fill="currentColor" d="M231 230q-9 10 -22 15.5t-27 5.5q-35 0 -54 -21q-18 21 -53 21q-15 0 -27.5 -5.5t-21.5 -15.5q-21 -22 -21 -60q0 -43 58 -106q17 -18 36 -36q14 -13 19 -17l6 -5q1 -1 4 -1t4 1l6 5q3 2 18 16q20 18 37 37q58 64 58 106q0 38 -20 60zM183 74q-17 -18 -36 -36 q-15 -14 -18 -16l-1 -1l-1 1q-3 2 -18 16q-19 18 -36 36q-54 60 -54 97q0 32 16 49q7 9 17.5 13t21.5 4q18 0 31 -7q10 -5 17 -14v-1q2 -3 5.5 -3t6.5 3v1q16 21 47 21q12 0 22 -4.5t17 -12.5q16 -17 16 -49q1 -38 -53 -97zM157 117q5 7 5 18q0 17 -15 32q-14 14 -33 15 q-14 1 -25 -5l-2 -1l-1 -2q-6 -11 -5 -25q1 -19 15.5 -33.5t32.5 -14.5q10 0 18 5l16 -16q2 -2 5 -2t5 2.5t2 5t-2 4.5zM106 126q-10 10 -11 23q0 9 3 17q8 3 16 2q13 -1 23.5 -11.5t10.5 -21.5q0 -5 -1 -8l-8 8q-2 2 -5 2t-5 -2t-2 -5t2 -5l8 -7q-7 -4 -15.5 -1.5 t-15.5 9.5z" />
</svg>