<svg viewBox="0 0 256 256" xmlns="http://www.w3.org/2000/svg">
  <path transform="scale(1, -1) translate(0, -256)" fill="currentColor" d="M128 108q-14 0 -24 -10.5t-10 -24.5t10 -24t24 -10t24 10t10 24t-10 24.5t-24 10.5zM128 53q-8 0 -14 6t-6 14.5t6 14.5t14 6t14 -6t6 -14.5t-6 -14.5t-14 -6zM117 189q-6 6 -15 6.5t-16 -5.5q-7 6 -16 5.5t-15 -7t-6 -16t6 -16.5l26 -26q2 -2 5 -2t5 2l26 26q7 7 7 16.5 t-7 16.5zM107 166l-21 -21l-21 21q-3 3 -2.5 6.5t3 6.5t6.5 3t6 -3l3 -3q2 -2 5 -2t5 2l3 3q3 3 6.5 3t6.5 -3t2.5 -6.5t-2.5 -6.5zM201 189q-7 7 -15.5 7t-15.5 -6q-7 6 -15.5 6t-15.5 -7t-7 -16.5t7 -16.5l26 -26q2 -2 5 -2t5 2l26 26q7 7 7 16.5t-7 16.5zM191 166 l-21 -21l-21 21q-2 3 -2 6.5t2.5 6.5t6.5 3t6 -3l3 -3q2 -2 5 -2.5t5 2.5l3 3q3 2 7 2t6.5 -2.5t2 -6t-2.5 -6.5zM128 251q-33 0 -61.5 -16.5t-45 -45t-16.5 -61.5t16.5 -61.5t45 -45t61.5 -16.5t61.5 16.5t45 45t16.5 61.5t-16.5 61.5t-45 45t-61.5 16.5zM128 19 q-29 0 -54 14.5t-40 39.5t-15 55t15 54.5t39.5 39.5t54.5 15t55 -15t39.5 -40t14.5 -54.5t-14.5 -54.5t-39.5 -39.5t-55 -14.5z" />
</svg>