<svg viewBox="0 0 256 256" xmlns="http://www.w3.org/2000/svg">
  <path transform="scale(1, -1) translate(0, -256)" fill="currentColor" d="M242 135q-6 5 -13 7.5t-15 0.5q-9 17 -25 30q-26 20 -61 20t-61 -21q-16 -12 -25 -29l-7 1q-12 0 -21 -8.5t-9 -22t9 -22.5l24 -24q4 -4 9.5 -4t9.5 4l25 25q9 9 9 21.5t-9 21.5t-24 8q10 14 24 23q20 13 45.5 13t45.5 -13q14 -9 24 -23h-3q-12 0 -20.5 -8t-9 -21.5 t8.5 -22.5l25 -25q4 -4 9.5 -4t8.5 4l25 26q9 8 10 20.5t-9 22.5zM73 125q5 -5 5 -12t-5 -11l-25 -25l-24 24q-5 5 -5 12t4.5 12t10.5 5t10 -3t8.5 0t10.5 2.5t10 -4.5zM232 102l-24 -25l-24 24q-5 5 -5 12t4.5 12t10.5 5t10 -3t8 0t10 2.5t10.5 -5t4.5 -11t-5 -11.5z" />
</svg>