<svg viewBox="0 0 1024 1024" xmlns="http://www.w3.org/2000/svg">
  <path transform="scale(1, -1) translate(0, -960)" fill="currentColor" d="M960 466q-22 21 -52 28t-58 -1q-6 11 -27 44q-22 33 -63 69t-102 64t-146 28q-86 0 -147 -28q-62 -28 -103 -64t-62 -69q-22 -33 -27 -44q-9 2 -17 4t-17 2q-20 0 -39 -7t-34 -22q-16 -15 -25 -35t-9 -41q0 -24 8.5 -46t25.5 -39l97 -98q6 -6 13.5 -8.5t15.5 -2.5 t15.5 2.5t13.5 8.5l101 101q15 16 23.5 35.5t8.5 41.5q0 21 -8.5 41t-23.5 36q-23 22 -53.5 28.5t-58.5 -3.5q10 18 32 47q23 29 59.5 57t88.5 49q52 20 122 20q71 0 123 -21q53 -20 89.5 -48.5t58.5 -57.5t31 -46q-8 4 -17.5 5.5t-18.5 1.5q-21 0 -39.5 -7.5t-34.5 -21.5 q-16 -15 -25 -34.5t-9 -42.5q0 -24 8.5 -46t25.5 -39l98 -97q6 -6 13 -9t15 -3q9 0 16 3t13 9l101 100q16 16 24 36t8 41q0 23 -8 43t-24 36v0zM299 443q11 -11 17 -25t6 -29q0 -16 -6 -30t-17 -25l-101 -100q-2 -3 -5 -3t-6 3l-97 97q-12 12 -19 28t-5 33q0 16 6.5 29.5 t17.5 23.5q10 9 23 14t28 5v0v0q11 0 22 -3.5t21 -9.5q4 -2 9 -2t9 2q22 17 49.5 15t47.5 -23zM938 334l-101 -100q-3 -3 -6 -3t-5 3l-98 97q-12 12 -18.5 28t-5.5 33q0 16 6.5 29.5t17.5 23.5q11 9 24 14t27 5h1h1q12 0 22.5 -3.5t20.5 -9.5q4 -2 9 -2t9 2q22 16 50 13.5 t47 -22.5q11 -11 17 -25t6 -30q-2 -14 -8 -28t-16 -25v0z" />
</svg>