<svg viewBox="0 0 256 256" xmlns="http://www.w3.org/2000/svg">
  <path transform="scale(1, -1) translate(0, -256)" fill="currentColor" d="M232 203h-208q-8 0 -13.5 -5.5t-5.5 -13.5v-112q0 -8 5.5 -14t13.5 -6h208q8 0 13.5 6t5.5 14v112q0 8 -5.5 13.5t-13.5 5.5zM105 155q5 4 10 4t9 -3t8 0t9.5 2.5t9.5 -4.5t4 -10t-4 -11l-23 -23l-22 22q-5 5 -5 11.5t4 11.5zM161 164q-7 7 -16 8.5t-17 -2.5q-6 2 -13 2 q-11 0 -19 -7l-4 -5l-54 29h181l-55 -29zM232 67h-208q-2 0 -3.5 1.5t-1.5 3.5v111l67 -36v-3q0 -13 9 -22l23 -23q4 -4 9.5 -4t9.5 4l24 24q8 8 8 20v3l68 37v-111q0 -2 -1.5 -3.5t-3.5 -1.5z" />
</svg>