<svg viewBox="0 0 256 256" xmlns="http://www.w3.org/2000/svg">
  <path transform="scale(1, -1) translate(0, -256)" fill="currentColor" d="M246 71q-4 13 -14.5 19t-22.5 2l-52 -15q3 9 0.5 15t-9 9.5t-12.5 3.5h-42q-6 0 -12.5 5.5t-14.5 5.5h-34q-10 0 -17.5 -7.5t-7.5 -18.5v-53q0 -11 7.5 -18.5t18.5 -7.5h40q8 0 14 5l2 -1q17 -10 37 -10q13 0 23 4l76 23q15 5 20 17q4 11 0 22zM34 25q-5 0 -8.5 3.5 t-3.5 8.5v53q0 5 3.5 8.5t7.5 3.5h34q3 0 6 -2l4 -4v-71h-3h-40zM221 45l-75 -23q-8 -3 -19 -3q-16 0 -31 8l-5 3v61h44q3 0 5.5 -1t3.5 -3t-1 -6.5t-8 -9.5q-4 -4 -2 -7.5t4.5 -4t11.5 1.5l64 19q6 1 12 -2t8 -10t0 -13.5t-12 -9.5zM170 143q5 -5 11.5 -5t10.5 5l38 37 q12 12 12 29t-12 30q-10 10 -23.5 12t-25.5 -5q-9 5 -19 5q-16 0 -28 -11q-6 -5 -9.5 -12.5t-3.5 -16.5t3.5 -17t9.5 -15zM143 230q9 7 18 7h1q8 0 15 -5q4 -2 8 0q8 6 17.5 5t17.5 -8.5t8 -18.5t-8 -19l-38 -37q-1 -2 -2 0l-36 36q-9 8 -9 20.5t8 19.5z" />
</svg>