<svg viewBox="0 0 1024 1024" xmlns="http://www.w3.org/2000/svg">
  <path transform="scale(1, -1) translate(0, -960)" fill="currentColor" d="M512 354q-52 0 -89 -37t-37 -90t36.5 -89.5t89.5 -36.5t89.5 36.5t36.5 89.5t-37 90t-89 37zM512 134q-38 0 -66 27.5t-28 67.5q0 38 27 66t67 28q38 0 66 -27.5t28 -66.5t-28 -67t-66 -28zM459 682q-24 24 -56.5 24t-56.5 -24l-2 -2l-2 2q-24 24 -56.5 24t-56.5 -24 t-24 -57t24 -57l104 -104q2 -2 5.5 -3.5t5.5 -1.5t5.5 1.5t5.5 3.5l104 104q23 24 23 57.5t-23 56.5v0zM437 592l-93 -93l-93 93q-14 14 -14 34t14 35q7 7 16 10.5t18 3.5q8 0 17 -3.5t16 -10.5l13 -13q3 -2 5.5 -3.5t5.5 -1.5q4 0 6.5 1.5t5.5 3.5l12 13q15 14 35 14 t34 -14q15 -15 15 -35.5t-13 -33.5v0zM738 706q-16 0 -31 -6t-25 -18l-2 -2l-2 2q-10 10 -25 17t-31 7q-15 0 -30 -6t-26 -18q-24 -24 -24 -57t24 -57l104 -104q3 -2 6 -3.5t6 -1.5q2 0 5 1.5t6 3.5l104 104q24 24 24 57t-24 57q-13 12 -28 18t-31 6zM773 592l-93 -93 l-93 93q-14 14 -14 34t14 35q7 7 15.5 10.5t18.5 3.5q9 0 18 -3.5t15 -10.5l13 -13q5 -5 11.5 -5t11.5 5l12 13q14 13 34.5 13t34.5 -13q16 -15 16 -35.5t-14 -33.5zM512 928q-99 0 -186 -38q-88 -38 -153 -103t-103 -153q-38 -87 -38 -186t38 -186q38 -88 103 -153 t153 -103q87 -38 186 -38t186 38q88 38 153 103t103 153q38 87 38 186t-38 186q-38 88 -103 153t-153 103q-87 38 -186 38zM512 0q-92 0 -174 35q-81 36 -142 97t-97 142q-35 82 -35 174t35 174q36 81 96.5 142t142.5 97q82 35 174 35t174 -35q81 -36 142 -96.5t97 -142.5 q35 -82 35 -174t-35 -174q-36 -81 -96.5 -142t-142.5 -97q-82 -35 -174 -35z" />
</svg>