<svg viewBox="0 0 256 256" xmlns="http://www.w3.org/2000/svg">
  <path transform="scale(1, -1) translate(0, -256)" fill="currentColor" d="M232 158h-14v12q0 9 -7 16t-16 7h-167q-10 0 -16.5 -7t-6.5 -16v-83q0 -10 6.5 -16.5t16.5 -6.5h167q9 0 16 6.5t7 16.5v12h14q8 0 13.5 5.5t5.5 13.5v21q0 8 -5.5 13.5t-13.5 5.5zM204 86q0 -3 -2.5 -6t-6.5 -3h-167q-4 0 -6.5 3t-2.5 6v84q0 3 2.5 6t6.5 3h167 q3 0 6 -3t3 -6v-84zM237 117q0 -2 -1.5 -3.5t-3.5 -1.5h-14v31h14q2 0 3.5 -1.5t1.5 -3.5v-21zM52 155q-3 0 -5.5 -2t-2.5 -5v-40q0 -3 2.5 -5t5.5 -2t5 2t2 5v40q0 3 -2 5t-5 2z" />
</svg>