<svg viewBox="0 0 1024 1024" xmlns="http://www.w3.org/2000/svg">
  <path transform="scale(1, -1) translate(0, -960)" fill="currentColor" d="M914 699h-253v34q0 49 -35 84.5t-85 35.5h-59q-50 0 -85 -35t-35 -85v-34h-252q-32 0 -55 -23t-23 -55v-501q0 -32 23 -55t55 -23h804q32 0 55 23t23 55v502q0 33 -23 55t-55 22zM64 493q70 6 120 55.5t54 118.5h546q5 -71 55 -121t119 -56v-240q-69 -6 -119 -55.5 t-55 -119.5h-546q-4 70 -54 120t-120 55v243v0zM960 622v-99q-58 6 -98 47t-44 99h97q18 -1 31.5 -14t13.5 -33zM395 733q0 36 26 62t62 26h59q36 0 62 -26t26 -62v-34h-235v34zM110 667h98q-6 -56 -47 -96t-97 -46v97q0 20 13.5 32.5t32.5 12.5zM110 75q-19 0 -32.5 13.5 t-13.5 33.5v97q56 -6 97 -46t45 -96h-96v-2zM914 75h-98q6 57 46 97.5t96 45.5v-98q2 -18 -11.5 -31.5t-32.5 -13.5zM518 227h3h2h2.5h2.5q66 22 98 71.5t33 51.5q13 27 17 74t-39 77q-15 9 -29.5 12.5t-29.5 0.5q-20 -5 -34 -17.5t-22 -22.5q-10 12 -24 24t-32 16 q-16 3 -30.5 -0.5t-29.5 -12.5q-43 -30 -39 -77t17 -74q1 -2 34.5 -51.5t99.5 -71.5v0zM424 475q6 5 12 7.5t14 2.5q2 0 3.5 -0.5l4.5 -1.5q18 -5 32 -21t17 -24q3 -3 6.5 -5.5t8.5 -2.5v0v0q4 0 8 2.5t6 5.5q5 9 18.5 25.5t31.5 19.5q8 3 16.5 0.5t16.5 -8.5 q36 -25 24.5 -66.5t-13.5 -43.5l-27 -43.5t-80 -62.5q-53 19 -81.5 62t-28.5 44t-12.5 43t23.5 67v0z" />
</svg>