<svg viewBox="0 0 256 256" xmlns="http://www.w3.org/2000/svg">
  <path transform="scale(1, -1) translate(0, -256)" fill="currentColor" d="M228 194h-60v5q0 14 -9.5 23.5t-22.5 9.5h-15q-14 0 -23.5 -9.5t-9.5 -23.5v-5h-60q-9 0 -15.5 -6.5t-6.5 -15.5v-126q0 -9 6.5 -15.5t15.5 -6.5h200q10 0 16.5 6.5t6.5 15.5v126q0 9 -6.5 15.5t-16.5 6.5zM19 136q17 3 29 15t15 29h131q2 -17 14 -29.5t30 -14.5v-55 q-17 -2 -29.5 -14t-14.5 -29h-132q-2 16 -14 28.5t-29 14.5v55zM237 172v-22q-11 2 -19 10.5t-10 19.5h21q3 0 5.5 -2.5t2.5 -5.5zM102 199q0 8 5.5 13.5t12.5 5.5h15q8 0 13.5 -5.5t5.5 -13.5v-5h-52v5zM28 180h20q-2 -11 -10 -19t-19 -10v21q0 3 2.5 5.5t6.5 2.5zM28 38 q-4 0 -6.5 2.5t-2.5 5.5v21q11 -2 19 -10t10 -19h-20zM228 38h-20q2 11 10 19t19 10v-21q0 -3 -2.5 -5.5t-6.5 -2.5zM129 70h2h2q14 5 25 18q6 7 10 14v0q4 10 4 21q0 13 -10 19.5t-17.5 5t-13.5 -8.5q-6 7 -14.5 8.5t-16.5 -3.5q-11 -8 -11 -22q0 -10 5 -20q0 -1 4.5 -7.5 t10.5 -12.5q9 -9 20 -12zM108 132q3 2 4 2h2q3 -1 6 -4t4.5 -6.5t5.5 -3.5t5.5 3.5t4.5 6.5t6 4t6 -2q9 -6 3 -23l-3 -6q-4 -5 -9 -10q-6 -6 -13 -9q-10 4 -18 15q-5 5 -7 9v2q-6 16 3 22z" />
</svg>