<svg viewBox="0 0 256 256" xmlns="http://www.w3.org/2000/svg">
  <path transform="scale(1, -1) translate(0, -256)" fill="currentColor" d="M178 124q-4 0 -6 -0.5t-4 -2t-2 -3.5l-3 -11l-27 28v109q0 3 -2 5t-5 2t-5 -2t-2 -5v-109l-29 -29l-3 12q-1 5 -6 6h-7q-17 0 -32 -8t-23.5 -21.5t-8.5 -29.5t8.5 -30t23.5 -21.5t32 -7.5h7q5 1 6 5q10 40 5 78l33 33l32 -31q-5 -41 5 -80q1 -5 6 -5l7 -1q18 0 32.5 8 t23.5 21.5t9 30t-9 30t-23.5 21.5t-32.5 8zM78 19v0q-21 0 -36 13.5t-15 32t15 32t36 13.5q11 -45 0 -91zM178 19v0q-10 45 0 91q21 0 35.5 -13.5t15 -32t-14.5 -32t-36 -13.5z" />
</svg>