<svg viewBox="0 0 256 256" xmlns="http://www.w3.org/2000/svg">
  <path transform="scale(1, -1) translate(0, -256)" fill="currentColor" d="M26 19v4v-4zM197 186q-6 3 -13 2.5t-12.5 -4t-8.5 -9.5t-3 -13v-35l-25 14v94q0 3 -2 5t-5 2t-5 -2t-2 -5v-92v-2l-25 -14v35q0 7 -3 13t-9 9.5t-12.5 4t-12.5 -2.5q-25 -11 -39.5 -34.5t-14.5 -50.5v-39q0 -7 3 -12.5t8 -9.5q7 -5 16 -5q4 0 7 1l28 9q13 4 21 15t8 25 v26l32 18l32 -18v-26q0 -14 8 -25t21 -15l28 -9q3 -1 7 -1q10 0 16 5q11 9 11 22v39q0 27 -14.5 50.5t-39.5 34.5zM82 85q0 -9 -5 -16.5t-14 -10.5l-28 -8q-5 -2 -10.5 2t-5.5 10v40q0 23 12.5 42.5t33.5 29.5q3 1 6 1t6 -2q6 -4 6 -11v-43l-12 -7q-3 -2 -3.5 -4.5t1 -5 t4.5 -3t5 0.5l5 3v-18h-1zM237 62q0 -6 -5 -10t-11 -2l-27 8q-9 3 -14.5 10t-5.5 17v17l4 -2q2 -1 5 -1t4.5 3t1 5.5t-2.5 4.5l-12 7v43q0 7 6 10q3 2 6 2t6 -1q21 -9 33.5 -29t12.5 -43v-39h-1z" />
</svg>