<svg viewBox="0 0 256 256" xmlns="http://www.w3.org/2000/svg">
  <path transform="scale(1, -1) translate(0, -256)" fill="currentColor" d="M83 96v24q22 3 37 19.5t15 39.5q0 16 -8 29.5t-21.5 21.5t-29.5 8t-29.5 -8t-21.5 -21.5t-8 -29.5q0 -23 15 -39.5t37 -19.5v-24q-27 -2 -45.5 -13t-18.5 -26q0 -11 9.5 -19.5t25.5 -14t35.5 -5.5t36 5.5t26 14.5t9.5 19q0 15 -18.5 26t-45.5 13zM31 179q0 18 13 31.5 t31.5 13.5t31.5 -13.5t13 -32t-13 -31.5t-31.5 -13t-31.5 13t-13 32zM76 32q-16 0 -29 4t-20.5 9.5t-7.5 11.5t7.5 12t20.5 9.5t29 3.5t29 -3.5t20.5 -9.5t7.5 -12t-7.5 -11.5t-20.5 -9.5t-29 -4zM248 225q-3 5 -10 5h-46q-6 0 -9.5 -5t-2.5 -11l12 -44q0 -3 2 -4.5t4 -1.5 h10v-134q0 -3 2.5 -5.5t5.5 -2.5t5 2.5t2 5.5v135h10q2 0 4 1.5t3 3.5l11 45q1 6 -3 10zM227 179h-23l-10 37h43z" />
</svg>