<svg viewBox="0 0 256 256" xmlns="http://www.w3.org/2000/svg">
  <path transform="scale(1, -1) translate(0, -256)" fill="currentColor" d="M232 210h-208q-8 0 -13.5 -5.5t-5.5 -13.5v-126q0 -8 5.5 -13.5t13.5 -5.5h208q8 0 13.5 5.5t5.5 13.5v126q0 8 -5.5 13.5t-13.5 5.5zM237 65q0 -2 -1.5 -3.5t-3.5 -1.5h-208q-2 0 -3.5 1.5t-1.5 3.5v126q0 2 1.5 3.5t3.5 1.5h208q2 0 3.5 -1.5t1.5 -3.5v-126zM184 96 h-110q-3 0 -5 -2t-2 -5t2 -5t5 -2h110q3 0 5.5 2t2.5 5t-2.5 5t-5.5 2zM75 154q4 0 7 3t3 7t-3 7t-7 3t-7 -3t-3 -7t3 -7t7 -3zM111 154q4 0 7 3t3 7t-3 7t-7 3t-7 -3t-3 -7t3 -7t7 -3zM146 154q5 0 7.5 3t2.5 7t-2.5 7t-7 3t-7.5 -3t-3 -7t3 -7t7 -3zM182 154q5 0 7.5 3 t2.5 7t-2.5 7t-7 3t-7.5 -3t-3 -7t3 -7t7 -3zM76 116q4 0 7 2.5t3 7t-3 7.5t-7 3t-7 -3t-3 -7t3 -7t7 -3zM112 136q-4 0 -7 -3t-3 -7t3 -7t7 -3t7 3t3 7t-3 7t-7 3zM148 136q-4 0 -7 -3t-3 -7t3 -7t7 -3t7 3t3 7t-3 7t-7 3zM184 136q-5 0 -7.5 -3t-2.5 -7t2.5 -7t7 -3t7.5 3 t3 7t-3 7t-7 3z" />
</svg>