<svg viewBox="0 0 1024 1024" xmlns="http://www.w3.org/2000/svg">
  <path transform="scale(1, -1) translate(0, -960)" fill="currentColor" d="M928 763h-832q-26 0 -45 -18.5t-19 -45.5v-504q0 -26 19 -45t45 -19h832q26 0 45 19t19 45v504q0 27 -19 45.5t-45 18.5zM960 197q0 -13 -9.5 -22.5t-22.5 -9.5h-832q-13 0 -22.5 9.5t-9.5 22.5v502q0 13 9.5 22.5t22.5 9.5h832q13 0 22.5 -9.5t9.5 -22.5v-502zM738 307 h-442q-7 0 -11.5 -4.5t-4.5 -11.5t4.5 -11.5t11.5 -4.5h442q7 0 11.5 4.5t4.5 11.5t-5 11.5t-11 4.5zM299 552q17 0 28.5 11.5t11.5 28.5t-11.5 28.5t-28.5 11.5t-28.5 -11.5t-11.5 -28.5t11.5 -28.5t28.5 -11.5zM443 552q17 0 28.5 11.5t11.5 28.5t-11.5 28.5t-28.5 11.5 t-28.5 -11.5t-11.5 -28.5t11.5 -28.5t28.5 -11.5zM586 552q16 0 28 11.5t12 28.5t-12 28.5t-28 11.5q-17 0 -28.5 -11.5t-11.5 -28.5t11.5 -28.5t28.5 -11.5zM730 552q16 0 28 11.5t12 28.5t-12 28.5t-28 11.5q-17 0 -28.5 -11.5t-11.5 -28.5t11.5 -28.5t28.5 -11.5z M344 438q0 17 -11.5 28.5t-28.5 11.5t-28.5 -11.5t-11.5 -28.5q0 -16 11.5 -28t28.5 -12t28.5 12t11.5 28zM448 480q-17 0 -28.5 -11.5t-11.5 -28.5t11.5 -28.5t28.5 -11.5t28.5 11.5t11.5 28.5t-11.5 28.5t-28.5 11.5zM592 480q-17 0 -28.5 -11.5t-11.5 -28.5t11.5 -28.5 t28.5 -11.5t28.5 11.5t11.5 28.5t-11.5 28.5t-28.5 11.5zM734 480q-16 0 -28 -11.5t-12 -28.5t12 -28.5t28 -11.5q17 0 28.5 11.5t11.5 28.5t-11.5 28.5t-28.5 11.5z" />
</svg>