<svg viewBox="0 0 1024 1024" xmlns="http://www.w3.org/2000/svg">
  <path transform="scale(1, -1) translate(0, -960)" fill="currentColor" d="M885 448l72 371q3 21 -1.5 40.5t-17.5 34.5q-14 16 -32.5 25t-39.5 9h-708q-21 0 -39.5 -9t-30.5 -25q-13 -15 -18 -34.5t-1 -40.5l70 -371l-70 -371q-4 -21 1 -40.5t18 -34.5q12 -16 30.5 -25t39.5 -9h709q21 0 39 9t32 25q13 15 17.5 34.5t1.5 40.5l-72 371v0zM112 875 q8 10 20 15.5t26 5.5h709q13 0 25 -5.5t22 -15.5q8 -11 11.5 -23.5t0.5 -25.5l-72 -362h-684l-71 362q-2 13 1.5 25.5t11.5 23.5v0zM912 21q-8 -11 -20 -16t-26 -5h-708q-13 0 -24.5 5.5t-21.5 15.5q-8 11 -11.5 23.5t-1.5 25.5l71 362h686l69 -362q2 -13 -1.5 -25.5 t-11.5 -23.5zM304 315q-16 0 -27 -11.5t-11 -26.5q0 -16 11 -27.5t27 -11.5t27 11.5t11 27.5q2 15 -9.5 26.5t-28.5 11.5zM443 315q-15 0 -26.5 -11.5t-11.5 -26.5q0 -16 11.5 -27.5t26.5 -11.5q16 0 27.5 11.5t11.5 27.5q0 15 -11.5 26.5t-27.5 11.5zM581 315 q-16 0 -27.5 -11.5t-11.5 -26.5q0 -16 11.5 -27.5t27.5 -11.5q15 0 26.5 11.5t11.5 27.5q1 15 -10 26.5t-28 11.5zM720 315q-16 0 -27 -11.5t-11 -26.5q0 -16 11 -27.5t27 -11.5t27 11.5t11 27.5q0 15 -11 26.5t-27 11.5zM304 168q-16 0 -27 -11.5t-11 -26.5q0 -16 11 -27.5 t27 -11.5t27 11.5t11 27.5q0 15 -10.5 26.5t-27.5 11.5zM443 168q-15 0 -26.5 -11.5t-11.5 -26.5q0 -16 11.5 -27.5t26.5 -11.5q16 0 27.5 11.5t11.5 27.5q0 15 -11.5 26.5t-27.5 11.5zM581 168q-16 0 -27.5 -11.5t-11.5 -26.5q0 -16 11.5 -27.5t27.5 -11.5q15 0 26.5 11.5 t11.5 27.5q0 15 -10.5 26.5t-27.5 11.5zM720 168q-16 0 -27 -11.5t-11 -26.5q0 -16 11 -27.5t27 -11.5t27 11.5t11 27.5q0 15 -11 26.5t-27 11.5z" />
</svg>