<svg viewBox="0 0 1024 1024" xmlns="http://www.w3.org/2000/svg">
  <path transform="scale(1, -1) translate(0, -960)" fill="currentColor" d="M320 309v120q43 3 81 21q38 19 66 49t45 69q16 39 16 83q0 46 -18 87q-17 41 -47.5 71.5t-71.5 48.5q-41 17 -87 17t-87 -17q-41 -18 -71.5 -48.5t-47.5 -71.5q-18 -41 -18 -87q0 -44 16 -83q16 -40 44 -69.5t66 -48.5q38 -18 82 -21v-120q-54 -2 -101 -14 q-46 -11 -80.5 -30.5t-54.5 -44.5q-20 -26 -20 -55q0 -30 21 -56q21 -27 57.5 -46.5t86.5 -30.5q49 -11 107 -11t107 11q50 11 86.5 30.5t57.5 45.5t21 57q-1 29 -20 55q-20 25 -54.5 44.5t-80.5 30.5q-47 12 -101 14zM112 651q0 79 56.5 135.5t135.5 56.5t135.5 -56.5 t56.5 -135.5t-56.5 -135.5t-135.5 -56.5t-135.5 56.5t-56.5 135.5zM304 53q-97 0 -168.5 33t-71.5 79q0 45 71 78.5t169 33.5t169 -33.5t71 -78.5q0 -46 -71.5 -79t-168.5 -33zM984 830q-6 8 -13.5 11.5t-16.5 3.5h-184q-9 0 -17 -3.5t-14 -11.5q-6 -7 -7.5 -15t1.5 -17 l46 -179q1 -5 5.5 -9t10.5 -4h51v-550q0 -7 4.5 -11.5t11.5 -4.5q8 0 12 4.5t4 11.5v550h52q6 0 10 3.5t6 9.5l46 179q1 8 -0.5 16.5t-7.5 15.5v0zM917 638h-111l-43 167q0 2 0.5 3.5t1.5 1.5t1.5 0.5t3.5 0.5h185q3 0 3.5 -0.5t1.5 -0.5v-1.5v-3.5l-43 -167v0z" />
</svg>