<svg viewBox="0 0 256 256" xmlns="http://www.w3.org/2000/svg">
  <path transform="scale(1, -1) translate(0, -256)" fill="currentColor" d="M224 128l18 92q2 12 -5.5 21.5t-20.5 9.5h-176q-12 0 -20 -9t-6 -22l18 -92l-18 -92q-2 -12 5.5 -21.5t20.5 -9.5h177q11 0 19 9.5t6 21.5zM30 233q3 4 10 4h177q5 0 8.5 -4.5t2.5 -9.5l-17 -88h-166l-17 88q-1 6 2 10zM226 23q-4 -4 -10 -4h-176q-6 0 -9.5 4t-2.5 10 l17 88h167l16 -88q1 -6 -2 -10zM76 95q-4 0 -7 -3t-3 -7t3 -6.5t7 -2.5t7 2.5t3 6.5t-3 7t-7 3zM111 95q-4 0 -7 -3t-3 -7t3 -6.5t7 -2.5t6.5 2.5t2.5 6.5t-2.5 7t-6.5 3zM145 95q-4 0 -6.5 -3t-2.5 -7t2.5 -6.5t6.5 -2.5t7 2.5t3 6.5t-3 7t-7 3zM180 95q-4 0 -7 -3t-3 -7 t3 -6.5t7 -2.5t7 2.5t3 6.5t-3 7t-7 3zM76 58q-4 0 -7 -3t-3 -6.5t3 -6.5t7 -3t7 2.5t3 6.5t-3 7t-7 3zM111 58q-4 0 -7 -3t-3 -6.5t3 -6.5t7 -3t6.5 2.5t2.5 6.5t-2.5 7t-6.5 3zM145 58q-4 0 -6.5 -3t-2.5 -6.5t2.5 -6.5t6.5 -3t7 3t3 6.5t-3 6.5t-7 3zM180 58q-4 0 -7 -3 t-3 -7t3 -6.5t7 -2.5t7 3t3 6.5t-3 6.5t-7 3z" />
</svg>