<svg viewBox="0 0 1024 1024" xmlns="http://www.w3.org/2000/svg">
  <path transform="scale(1, -1) translate(0, -960)" fill="currentColor" d="M986 45l-620 518q-1 1 -2 1.5t-2 0.5l123 40q5 1 7.5 4.5t3.5 8.5q1 4 -1 8t-5 8l-117 83l3 145q0 5 -2 8.5t-6 6.5q-4 2 -8 2t-8 -2l-117 -88l-136 45q-5 1 -9 0t-7 -4t-4 -7.5t1 -8.5l45 -137l-88 -119q-3 -3 -3.5 -7.5t1.5 -9.5q3 -4 6.5 -6.5t8.5 -1.5l144 3l81 -118 q3 -4 6 -5.5t7 -1.5h1h1q4 1 7.5 4t4.5 7l39 124l1.5 -3t1.5 -2l619 -519q3 -2 5 -2.5t5 -0.5t6.5 1.5t6.5 5.5q6 2 6 8t-6 11zM320 579l-37 -117l-69 98q-2 4 -5.5 5t-6.5 1v0v0l-122 -3l74 99q2 4 2 7.5t-1 7.5l-38 115l113 -38q4 -2 8 -1t7 4l97 73l-3 -121 q0 -4 1.5 -7.5t5.5 -5.5l97 -69l-117 -38q-1 -1 -3 -3.5t-3 -6.5v0z" />
</svg>