<svg viewBox="0 0 1024 1024" xmlns="http://www.w3.org/2000/svg">
  <path transform="scale(1, -1) translate(0, -960)" fill="currentColor" d="M894 915q-39 0 -68 -28.5t-29 -68.5v-344q0 -60 -21 -112t-58 -92t-87 -64q-49 -24 -106 -27q-59 -2 -113.5 18t-97.5 61q-44 40 -66 93.5t-22 112.5v352q0 40 -28.5 69t-69.5 29t-68.5 -28t-27.5 -68v-352q0 -98 36 -186q37 -87 100 -154t147 -107q84 -41 179 -45h9.5 h8.5q47 0 92 9t87.5 26t81.5 42q38 25 72 58q35 34 63 74q27 40 46 84t28 91q10 47 10 96v364q0 40 -28.5 68.5t-69.5 28.5zM894 883q27 0 46.5 -19t19.5 -46v-96h-130v96q0 27 19 46t45 19zM130 883q26 0 45.5 -19t19.5 -46v-96h-131v96q0 27 19 46t47 19zM64 466v224h130 v-224q0 -66 25 -125.5t72 -105.5q42 -39 94.5 -61.5t108.5 -26.5v-142v0v0q-88 4 -167 42q-78 38 -136.5 100.5t-92.5 144.5t-34 174v0zM822 133q-30 -30 -64 -52q-34 -23 -71.5 -39t-77.5 -24q-40 -9 -81 -10v141q64 3 119 30q55 26 96 70.5t64 102.5t23 123v215h130v-236 q0 -46 -9 -90t-26.5 -85t-42.5 -78q-26 -36 -60 -68zM470 515q4 0 7.5 1.5t5.5 5.5l72 86q21 25 19.5 57t-24.5 55l-25 26q-15 14 -15 34t13 36l71 78q4 5 3.5 11.5t-5.5 11.5t-11.5 4t-10.5 -6l-71 -78q-21 -24 -20 -57.5t23 -56.5l26 -25q14 -15 14.5 -35t-11.5 -34 l-72 -87q-5 -4 -4 -11t6 -11q2 -2 4.5 -3.5t4.5 -1.5v0z" />
</svg>