<svg viewBox="0 0 256 256" xmlns="http://www.w3.org/2000/svg">
  <path transform="scale(1, -1) translate(0, -256)" fill="currentColor" d="M220 220q-15 15 -34.5 23t-39.5 8t-38 -7t-32 -21l-64 -65q-7 -7 -7 -17t7 -17l24 -24q8 -8 18 -8t17 8l60 59q6 6 14.5 7t15 -4t7 -14.5t-7.5 -16.5l-60 -60q-7 -7 -7 -17t7 -18l24 -24q8 -7 18 -7t17 7l64 64q19 19 25 45t-1.5 52.5t-26.5 46.5zM61 110q-3 -3 -7.5 -3 t-7.5 3l-24 24q-3 3 -3 7t3 7l23 23l39 -39zM149 22q-3 -3 -7.5 -3t-7.5 3l-24 24q-3 3 -3 7.5t3 7.5l23 23l39 -39zM213 86l-31 -32l-40 39l28 28q5 5 8 12.5t3 14.5q-1 16 -13 25q-9 7 -21 7q-15 0 -27 -12l-27 -27l-39 39l31 32q12 12 27.5 18t33 6t34 -7t29.5 -21 q17 -16 24 -38.5t1.5 -45t-21.5 -38.5z" />
</svg>