<svg viewBox="0 0 1024 1024" xmlns="http://www.w3.org/2000/svg">
  <path transform="scale(1, -1) translate(0, -960)" fill="currentColor" d="M870 806q-29 30 -62 52q-34 23 -70.5 38.5t-75.5 23.5t-80 8h-0.5h-0.5q-77 0 -146 -28t-121 -81l-256 -257q-26 -26 -26 -60.5t26 -59.5l97 -98q25 -25 60 -25t60 25l240 238q29 29 67 32.5t66 -19.5q14 -12 23 -29t11 -36q1 -22 -7 -42.5t-24 -36.5l-243 -241 q-25 -26 -25 -60.5t25 -59.5l98 -98q12 -12 28 -18t32 -6q17 0 32.5 6t28.5 18l258 258q55 55 82 127q26 72 24.5 147.5t-31.5 148.5q-31 74 -90 133v0zM605 14q-16 -15 -38 -15t-37 15l-98 98q-16 16 -16 38t16 37l99 99l173 -171l-99 -101v0zM861 272l-135 -134l-172 172 l118 120q20 21 30.5 47.5t9.5 55.5q-1 26 -12.5 49.5t-32.5 39.5q-17 14 -36.5 21t-40.5 7q-26 0 -52 -11t-47 -31l-117 -117l-172 170l-23 -23l173 -172l-99 -100q-16 -15 -38 -15t-37 15l-98 98q-16 16 -16 38t16 37l256 258q49 49 113 74.5t133 24.5q75 0 143.5 -29 t122.5 -85q54 -54 82 -122q28 -67 30 -136.5t-23 -134.5q-25 -66 -76 -117v0z" />
</svg>