<svg viewBox="0 0 256 256" xmlns="http://www.w3.org/2000/svg">
  <path transform="scale(1, -1) translate(0, -256)" fill="currentColor" d="M224 248q-12 0 -20 -8t-8 -20v-86q0 -18 -8.5 -34t-23.5 -25.5t-33 -10.5q-14 -1 -27 4t-23.5 15t-16 22.5t-5.5 26.5v88q0 12 -8 20t-19 8t-19 -8t-8 -20v-88q0 -32 16 -60.5t43.5 -46t59.5 -18.5h4q24 0 46 8.5t40 26t27.5 40t9.5 48.5v90q0 12 -8 20t-19 8zM224 234 q5 0 9 -4t4 -10v-21h-27v21q0 6 4 10t10 4zM32 234q6 0 10 -4t4 -10v-21h-27v21q0 6 4 10t9 4zM19 132v54h27v-53q0 -17 6.5 -32.5t18.5 -27.5q21 -20 50 -22v-30q-28 2 -51.5 17.5t-37 40.5t-13.5 53zM204 51q-15 -13 -32.5 -21t-36.5 -9v29q21 2 38 14t27 30.5t10 39.5v52 h27v-56q0 -22 -8.5 -42.5t-24.5 -36.5zM118 142q3 0 5 2l18 22q6 7 5.5 16t-6.5 16l-7 6q-2 3 -2.5 7t2.5 7l17 20q2 2 2 5t-2.5 4.5t-5 1.5t-4.5 -2l-18 -19q-6 -7 -6 -16.5t7 -16.5l6 -7q3 -2 3 -6t-2 -7l-18 -21q-2 -2 -2 -5t2.5 -5t5.5 -2z" />
</svg>