<svg viewBox="0 0 256 256" xmlns="http://www.w3.org/2000/svg">
  <path transform="scale(1, -1) translate(0, -256)" fill="currentColor" d="M244 50l-48 48q-6 7 -15 7.5t-16 -4.5l-25 24q18 21 18 49q0 15 -6 29t-16 25q-15 15 -35 20t-39.5 0t-34.5 -20t-20 -34.5t0 -39.5t20 -34q11 -11 25 -17t29 -6q28 0 49 18l24 -25q-5 -7 -4 -16t7 -15l48 -48q7 -7 17 -7t17 7l5 5q7 7 7 17t-7 17zM37 130 q-12 12 -16 28.5t0 32.5t16 28q9 9 20.5 13.5t24 4.5t24 -4.5t20.5 -13.5q18 -19 18 -45t-18 -44t-44 -18t-45 18zM234 26l-4 -4q-3 -3 -7.5 -3t-7.5 3l-48 48q-3 3 -3 7t3 7l5 5q2 3 6.5 3t7.5 -3l48 -48q3 -3 3 -7.5t-3 -7.5zM99 206q-2 -2 -2 -4.5t2 -5.5q8 -8 8 -19.5 t-8 -19.5q-2 -2 -2 -5t2 -5t5 -2t5 2q12 12 12 29.5t-12 29.5q-2 3 -5 3t-5 -3z" />
</svg>