<svg viewBox="0 0 1024 1024" xmlns="http://www.w3.org/2000/svg">
  <path transform="scale(1, -1) translate(0, -960)" fill="currentColor" d="M867 803q-63 63 -142 94t-161 31t-161 -31t-142 -94q-31 -30 -54 -65q-23 -36 -39 -74t-24 -79q-8 -42 -8 -84q0 -41 7 -80q8 -40 22.5 -76.5t35.5 -70.5t49 -64l-213 -215q-5 -5 -5 -11t5 -11q2 -3 4.5 -4t6.5 -1t6.5 1t4.5 4l215 214q30 -27 64 -49q33 -21 70 -35.5 t77 -21.5q39 -7 80 -7q42 0 84 8q41 8 79.5 24t73.5 39t65 53q63 63 94 141q31 79 31 161t-31 161t-94 142v0zM285 781q57 57 130 86t150 29q72 0 141.5 -26t125.5 -78l-123 -101q-33 -26 -74.5 -24t-71.5 32q-11 11 -24 14t-22 1l-18 -6t-21 -18l-24 -37q-25 -37 -68 -46.5 t-80 14.5q-18 11 -35 21.5t-34 21.5l-24 16h-1t-1 2q15 26 33 51t41 48v0zM408 136q-34 14 -65.5 35.5t-57.5 47.5q-35 35 -60 77t-39 88l132 19q47 7 90 -17.5t61 -68.5q15 -40 6 -82t-40 -72l-27 -27v0zM440 123l16 16q37 37 48 88.5t-8 100.5q-23 56 -75 86t-111 21 l-132 -19q-5 20 -7.5 41.5t-2.5 41.5q0 40 7.5 78t22.5 74l24 -14q16 -11 33.5 -22t35.5 -21q18 -11 37 -17t38 -6q34 0 65.5 16.5t53.5 47.5l24 37q2 5 6.5 6.5l10.5 3.5q2 0 7.5 -1t10.5 -6q40 -39 93.5 -41.5t95.5 32.5l126 104q27 -29 47 -62t33 -68h-1.5h-1.5l-146 -75 q-55 -29 -86.5 -81.5t-31.5 -113.5q0 -44 16.5 -84t49.5 -72q6 -6 23 -18t33 -22q-50 -33 -106.5 -50.5t-117.5 -17.5q-36 -2 -68 3t-62 14v0zM845 221q-7 -7 -14.5 -13.5t-14.5 -12.5q-16 10 -36 23.5t-25 18.5q-26 26 -41 60.5t-15 72.5q0 52 27.5 96.5t75.5 69.5l144 74 q13 -51 14 -103q1 -53 -12 -103.5t-38 -96.5q-26 -47 -65 -86v0z" />
</svg>