<svg viewBox="0 0 1024 1024" xmlns="http://www.w3.org/2000/svg">
  <path transform="scale(1, -1) translate(0, -960)" fill="currentColor" d="M968 130l-192 192q-24 24 -58 24t-59 -23l-113 114q36 41 55.5 91t19.5 106q0 58 -22.5 112t-64.5 96q-43 43 -97 64q-54 22 -110.5 22t-110.5 -22q-54 -21 -98 -64q-43 -44 -64 -98q-22 -54 -22 -110.5t22 -110.5q21 -54 64 -97q42 -42 96 -64.5t112 -22.5 q56 0 106 19.5t91 55.5l114 -113q-23 -25 -23 -59t24 -58l192 -192q12 -12 27.5 -18t32.5 -6q16 0 31.5 6t27.5 18l17 18q12 12 18 27t6 32q2 18 -4 33.5t-18 27.5v0zM141 448q-39 38 -58 87q-19 48 -19 98.5t19 98.5q19 49 58 87q38 39 86.5 58t98.5 19q51 0 99.5 -19 t86.5 -58q37 -37 57 -85t20 -100q0 -53 -20 -101t-57 -85t-85 -57t-101 -20q-52 0 -100 20t-85 57v0zM944 34l-18 -18q-15 -16 -37 -16t-36 16l-192 192q-16 16 -16 37.5t16 36.5l17 17q8 7 18 11.5t19 4.5q10 0 20 -3.5t17 -12.5l192 -192q16 -15 16 -37t-16 -36v0z M405 752q-5 -5 -5 -11.5t5 -10.5q36 -36 36 -87.5t-36 -88.5q-5 -5 -5 -11.5t5 -11.5q2 -2 5.5 -3.5t5.5 -1.5t5.5 1.5t5.5 3.5q46 46 46 110.5t-46 110.5q-3 5 -10 5t-12 -5z" />
</svg>