<svg viewBox="0 0 256 256" xmlns="http://www.w3.org/2000/svg">
  <path transform="scale(1, -1) translate(0, -256)" fill="currentColor" d="M219 219q-21 21 -49.5 28.5t-57 0t-49.5 -28.5q-15 -16 -23.5 -36t-8.5 -42q0 -41 27 -73l-51 -51q-2 -2 -2 -5t2 -5t5 -2t5 2l51 51q16 -13 34.5 -20t39.5 -7t41.5 8.5t35.5 23.5q21 21 28.5 49.5t0 57t-28.5 49.5zM73 209q14 14 31.5 21t36.5 7q36 0 63 -23l-29 -24 q-7 -6 -16 -5t-16 7q-3 3 -7 4t-7 1q-8 -2 -12 -7l-6 -10q-6 -8 -15.5 -10t-18 3.5t-16.5 10.5l-4 3q6 12 16 22zM101 54q-16 7 -28 19q-16 17 -23 37l30 4q11 2 20.5 -3.5t13.5 -15.5t2 -19.5t-9 -16.5zM116 48v1q10 10 13 23.5t-2 27.5q-6 15 -20 22.5t-29 5.5l-32 -4 q-1 7 -1 17q0 18 6 33l20 -12q9 -6 19.5 -6t19 4.5t13.5 12.5l6 9q1 1 2 1l2 -1q10 -10 25 -11t26 9l29 24q11 -12 17 -27l-35 -18q-14 -7 -22.5 -21t-8.5 -30q0 -11 4.5 -21.5t12.5 -19.5l11 -8q-24 -14 -51 -14q-15 1 -25 3zM209 73q-1 -1 -3 -2l-2 -3q-6 4 -13 9 q-13 13 -13 31q0 13 6 23.5t17 16.5l33 16q6 -24 -0.5 -48.5t-24.5 -42.5z" />
</svg>