<svg viewBox="0 0 256 256" xmlns="http://www.w3.org/2000/svg">
  <path transform="scale(1, -1) translate(0, -256)" fill="currentColor" d="M193 237h33q3 0 5 2t2 5t-2 5t-5 2h-33q-8 0 -13.5 -5.5t-5.5 -13.5v-24h-98q-22 0 -37.5 -15.5t-15.5 -37.5v-67q0 -10 7 -16.5t16 -6.5h87v-53q0 -3 2 -5t5 -2t5.5 2t2.5 5v53h52q13 0 22 9.5t9 21.5v60q0 19 -12 33t-31 17v26q0 2 1.5 3.5t3.5 1.5zM85 79h-39 q-3 0 -6 3t-3 6v66q0 16 11.5 27.5t28 11.5t28 -11.5t11.5 -28.5v-74h-31zM216 156v-60q0 -7 -5 -12t-12 -5h-69v74q0 12 -4.5 22.5t-13.5 18.5h62v-42q0 -3 2.5 -5t5.5 -2t5 2t2 5v40q12 -3 19.5 -13t7.5 -23zM85 117h-23q-3 0 -5 -2t-2 -5t2 -5t5 -2h23q3 0 5 2t2 5t-2 5 t-5 2z" />
</svg>