<svg viewBox="0 0 256 256" xmlns="http://www.w3.org/2000/svg">
  <path transform="scale(1, -1) translate(0, -256)" fill="currentColor" d="M187 135q2 1 5 0q1 5 0 10q-2 9 -5 9t-3.5 -2.5t0 -7.5t3.5 -9zM158 130q3 -1 4 -0.5t-1 3t-6 4t-8.5 1t-8 -3t-3.5 -3.5t4.5 0t8 1.5t8.5 -1.5zM152 128q-3 -1 -5 -2.5t-2 -3.5v0h3q5 2 11 2h1q1 -1 1.5 0t-2.5 2.5t-7 1.5zM182 118q2 3 -2 5t-5 -0.5t0.5 -4t4 -2 t2.5 1.5zM191 130q-2 0 -3 -2.5t0 -5t3 -2.5t3 2.5t0 5t-3 2.5zM70 86v0q-3 0 -4 1.5t0.5 6t2 7.5t-0.5 6q-4 6 -10 6.5t-9.5 -3.5t-4 -8.5t1 -4.5t2.5 3l2 4q1 2 4.5 3t5.5 -1t2.5 -4t-0.5 -6t-1 -6q0 -4 2.5 -6t5.5 -1.5t4 2.5v1h-1h-2zM236 95q-1 5 -2 7l-2 4q3 4 3 9 q2 8 -5 16q-3 4 -10.5 6.5t-12.5 3.5v4q0 13 -1 20q-3 14 -11 21q9 9 14 18.5t5 19.5t-8 15.5t-21.5 5.5t-30.5 -7l-6 -4l-13 13q-13 12 -39 -2q-23 -12 -47 -38t-33 -51q-11 -26 2 -37l9 -7q-4 -9 -3 -19q2 -13 13 -23t25 -10q11 -27 35.5 -41.5t53.5 -14.5t53.5 14 t35.5 40l1 4q4 12 4 19t-3 10.5t-6 3.5zM61 68q-10 1 -18.5 8.5t-8.5 17.5q-2 12 4 19.5t15.5 9t17 -4t9.5 -18.5t-2.5 -22.5t-16.5 -9.5zM51 132q-13 -3 -20 -13h-1l-8 8q-4 9 3 27q5 13 15 28q13 18 29.5 33t32 22.5t24.5 4.5q3 0 14 -12v0l-12 -8q-14 -9 -25 -18 q-18 -13 -31 -31.5t-21 -40.5zM183 76q-3 0 -6 -1q-7 0 -14 1q-10 1 -19 4q1 4 3.5 4.5t8.5 -0.5q9 -1 16 0q12 0 25 4q16 4 28 14q3 -8 4 -14q3 1 5 -1t1 -9q-2 -14 -14 -28q-7 -7 -17 -12q-5 -3 -11 -5q-22 -7 -42 -0.5t-28 24.5v1q-1 3 -1 4q-4 12 -1 24t11 21q2 1 2 2.5 t-1 2.5l-3 4q-6 6 -9 11q-4 9 -3 18.5t8.5 16t15.5 6.5l16 -1q6 -1 10 0.5t9 5.5l2 1q3 2 5 3q5 1 8 -1t5 -7q0 -3 1 -10l1 -17q0 -4 1 -5.5t4 -2.5l6 -2q10 -2 14 -7q2 -2 2.5 -6t-4.5 -9.5t-16 -10.5q-23 -10 -53 -8h-2q-6 1 -9.5 -2.5t-4 -9.5t2.5 -11q6 -9 23 -10t35 5 t26 17v0q-18 -11 -38 -15t-33 1l-1 1q-7 3 -8 9q10 -3 21 -3q7 0 13 1l5 2q1 0 0 0zM99 182q16 19 31 26v0l-3 -8h1q4 4 12 6.5t15 3.5v-1q-2 -2 -4 -5v0q5 0 11.5 -1.5t11.5 -4.5v0q-1 -1 -1 0q-24 6 -49 -2q-14 -5 -25 -13v0v-1z" />
</svg>