<svg viewBox="0 0 1024 1024" xmlns="http://www.w3.org/2000/svg">
  <path transform="scale(1, -1) translate(0, -960)" fill="currentColor" d="M747 477q5 1 10 1t11 -1q1 5 2.5 15.5t-0.5 22.5q-4 17 -9.5 27.5t-14.5 9.5q-10 -1 -11 -12.5t1 -30.5q0 -10 4 -18.5t7 -13.5v0zM630 458q8 -4 12.5 -5t5.5 0q4 3 -4 13t-23 16q-17 7 -35 5t-32 -12q-5 -3 -9 -7.5t-4 -8.5q1 -5 15 1t34 6q14 1 23 -2.5t17 -5.5v0z M610 446q-16 -1 -24 -8t-5 -14q1 0 2.5 -0.5t8.5 2.5q10 3 20.5 4.5t22.5 -0.5h7.5t3.5 2q2 2 -9 9.5t-27 4.5v0v0zM730 408q4 12 -11 20t-21 -4q-5 -12 11 -19.5t21 3.5v0zM763 454q-13 0 -13 -18t13 -18t13 18t-13 18v0v0zM282 280h-8t-10 5q-8 13 6 33t0 45 q-15 29 -40.5 27t-35.5 -14q-14 -17 -15 -34t3 -17q8 -1 10 7.5t8 19.5q5 10 17.5 12.5t20.5 -6.5v0q21 -13 12 -28.5t-7 -33.5q1 -29 21.5 -31t26.5 10q1 1 0.5 2t-0.5 3q-2 -1 -2.5 0.5t-6.5 -0.5v0v0zM944 317q-5 20 -7 23.5t-9 21.5q4 4 14 33t-20 64q-17 18 -48 28.5 t-45 11.5q-1 18 -2.5 81t-45.5 102q36 36 54.5 74t18.5 73q0 66 -69 82.5t-167 -23.5l-26 -14l-25 24.5t-26 24.5q-56 50 -157 -6q-101 -57 -188.5 -154t-132.5 -201q-45 -105 11 -151l33 -29q-7 -16 -9.5 -35.5t0.5 -37.5q4 -55 50 -94t98 -39q48 -111 148 -167 q100 -55 210.5 -55.5t209.5 53.5t144 163q2 7 11.5 35.5t9.5 56.5q-1 29 -13 42t-22 13v0zM245 210q-39 1 -73 31t-38 69q-4 51 21 82q26 30 60 35.5t66 -16.5q32 -21 41 -73q6 -48 -11 -89t-66 -39v0zM205 462q-25 -4 -46 -17t-36 -34q-8 7 -20 18t-13 14q-22 41 10 109 t62 112q39 56 86 103q48 48 95 81t90 48q42 16 71 8q10 -1 32 -25.5l22 -24.5l-47 -28.5t-100 -71.5q-35 -27 -66 -59q-31 -33 -57 -70t-47 -78t-36 -85v0v0zM731 240l-48.5 -3t-104.5 19q9 34 53 16t158 16q25 7 55 21.5t57 34.5q5 -13 9 -27t7 -27q5 1 17.5 -4t6.5 -36 q-5 -33 -20 -60t-36 -52q-16 -17 -32.5 -29.5t-34.5 -22.5q-10 -4 -21.5 -9t-23.5 -8q-44 -15 -87 -15q-44 0 -81.5 12.5t-66.5 37.5q-30 24 -45 59q-1 5 -4 10t-3 13q-13 45 -1.5 93.5t45.5 83.5q1 1 3.5 4.5t2.5 6.5q0 2 -1 5t-4 5q-12 17 -38.5 48.5t-20.5 87.5 q5 38 35 63.5t63 24.5h11q13 -1 26.5 -1.5t24.5 -3.5q20 -1 38 3t39 21q7 5 13.5 9.5t15.5 8.5q8 1 16 0t12 -5q17 -10 21 -33t7 -44q0 -12 0.5 -32.5t0.5 -28.5q1 -16 5.5 -22t15.5 -10q5 -1 10 -3t12 -3q22 -5 36 -12.5t20 -14.5q5 -5 7.5 -10t4.5 -11q1 -18 -17.5 -40.5 t-64.5 -42.5q-78 -36 -144.5 -34t-76.5 2q-33 5 -48 -28.5t5 -64.5q19 -28 64 -37q46 -9 98 -1.5t101 29.5q48 22 73 57q1 1 0.5 1.5t-2.5 0.5q-34 -24 -73 -39q-39 -16 -77 -23t-73 -6q-34 1 -60 12q-8 3 -20.5 11t-16.5 27q74 -22 115 -12l41 10l2.5 1t-1.5 1v0v0z M395 666q29 32 60.5 59t62.5 41h2v-1q-1 -5 -5.5 -12.5t-5.5 -14.5v-2h1v0q18 13 49 25t60 13h1.5t0.5 -1v-2q-5 -3 -9.5 -8t-8.5 -9v-2h0.5h1.5q20 0 45.5 -6.5t43.5 -15.5q2 -2 1 -3t-2 1q-58 14 -108 9t-88.5 -17.5t-64.5 -28.5q-27 -15 -37 -22q3 -1 3 -1.5t-3 -1.5v0v0 v0z" />
</svg>