<svg viewBox="0 0 1024 1024" xmlns="http://www.w3.org/2000/svg">
  <path transform="scale(1, -1) translate(0, -960)" fill="currentColor" d="M992 309v142q0 27 -19 45.5t-45 18.5h-51v291q0 12 -3.5 24t-9.5 21v0.5v1.5v0v0q-11 17 -29 27t-40 10h-680q-35 0 -59 -24.5t-24 -59.5v-433q0 -35 24 -59t59 -24h194q2 -9 7 -16t12 -13q-10 -9 -16 -21.5t-6 -26.5v-143q0 -26 18.5 -45t45.5 -19h558q26 0 45 19t19 45 v143q0 14 -6 26.5t-16 21.5q10 8 16 20.5t6 27.5zM794 858q8 0 15 -2.5t13 -7.5l-344 -189q-12 -6 -24.5 -6t-24.5 6l-343 189q6 5 14 7.5t15 2.5h679v0zM64 373v433q0 4 1 8.5t2 7.5l347 -192q10 -4 20 -6.5t20 -2.5q11 0 21 2.5t19 6.5l348 192q1 -3 2 -7t1 -9v-291h-475 q-27 0 -45.5 -18.5t-18.5 -45.5v-129h-191q-21 0 -36 14.5t-15 36.5v0zM960 213v-143q0 -13 -9.5 -22.5t-22.5 -9.5h-558q-14 0 -23 9.5t-9 22.5v143q0 13 9 22.5t23 9.5h558q13 0 22.5 -9.5t9.5 -22.5zM370 277q-14 0 -23 9.5t-9 22.5v142q0 13 9 22.5t23 9.5h491v0v0v0v0 h67q13 0 22.5 -9.5t9.5 -22.5v-142q0 -13 -9.5 -22.5t-22.5 -9.5h-558zM462 414q-13 0 -22.5 -9t-9.5 -23v-1q0 -13 9.5 -22.5t22.5 -9.5q14 0 23 9.5t9 22.5v1q0 14 -9 23t-23 9zM861 398h-77q-7 0 -11.5 -4t-4.5 -12q0 -7 4.5 -11.5t11.5 -4.5h77q7 0 11.5 4.5t4.5 11.5 q0 8 -5 12t-11 4zM462 110q14 0 23 9.5t9 22.5v2q0 13 -9 22.5t-23 9.5q-13 0 -22.5 -9.5t-9.5 -22.5v-2q0 -13 9.5 -22.5t22.5 -9.5zM784 126h77q7 0 11.5 4.5t4.5 11.5q0 8 -4.5 12t-11.5 4h-77q-7 0 -11.5 -4t-4.5 -12q0 -7 5 -11.5t11 -4.5z" />
</svg>