<svg viewBox="0 0 1024 1024" xmlns="http://www.w3.org/2000/svg">
  <path transform="scale(1, -1) translate(0, -960)" fill="currentColor" d="M773 896h131q7 0 11.5 4.5t4.5 11.5t-4.5 11.5t-11.5 4.5h-131q-27 0 -45.5 -19t-18.5 -45v-110h-384v-2q-5 0 -10 1t-11 1q-41 0 -78 -16q-36 -16 -62.5 -43t-42.5 -63q-15 -36 -15 -77v-267q0 -34 23 -57t57 -23h360q0 -1 -1 -2.5t-1 -3.5v-218q0 -7 4.5 -11.5 t11.5 -4.5t11.5 4.5t4.5 11.5v218v3t-2 3h221q47 0 80.5 33.5t33.5 80.5v238q0 74 -49 128t-121 64v112q1 13 11 22.5t23 9.5v0zM341 240h-155q-21 0 -34.5 14t-13.5 34v266q0 69 49 117.5t117 48.5q72 0 122.5 -50.5t50.5 -122.5v-307h-136zM877 560v-238q0 -34 -24 -58 t-58 -24h-288v309q0 54 -26.5 99.5t-69.5 73.5h295v-176q0 -8 4 -12t12 -4q7 0 11.5 4t4.5 12v174q60 -10 99.5 -54.5t39.5 -105.5zM341 392h-91q-8 0 -12 -4.5t-4 -11.5t4 -11.5t12 -4.5h91q7 0 11.5 4.5t4.5 11.5t-5 11.5t-11 4.5z" />
</svg>