<svg viewBox="0 0 256 256" xmlns="http://www.w3.org/2000/svg">
  <path transform="scale(1, -1) translate(0, -256)" fill="currentColor" d="M251 129q0 8 -5.5 13.5t-13.5 5.5h-10v70q0 6 -4 12l-1 2q-7 9 -19 9h-169q-10 0 -17 -7t-7 -16v-109q0 -10 7 -16.5t17 -6.5h46q1 -3 3 -4q-5 -5 -5 -12v-36q0 -8 5.5 -13.5t13.5 -5.5h140q8 0 13.5 5.5t5.5 13.5v36q0 7 -4 12q4 5 4 12v35zM237 129v-36q0 -2 -1.5 -3.5 t-3.5 -1.5h-140q-2 0 -3.5 1.5t-1.5 3.5v36q0 2 1.5 3.5t3.5 1.5h140q2 0 3.5 -1.5t1.5 -3.5zM198 228l-80 -44q-4 -3 -9 0l-80 44h169zM19 109v108l83 -46q5 -3 12 -3t12 3l82 46v-69h-116q-8 0 -13.5 -5.5t-5.5 -13.5v-30h-44q-4 0 -7 3t-3 7zM237 34q0 -2 -1.5 -4 t-3.5 -2h-140q-2 0 -3.5 2t-1.5 4v35q0 2 1.5 3.5t3.5 1.5h140q2 0 3.5 -1.5t1.5 -3.5v-35zM116 119q-3 0 -5.5 -2t-2.5 -5v-1q0 -3 2.5 -5t5.5 -2t5 2t2 5v1q0 3 -2 5t-5 2zM215 118h-19q-3 0 -5 -2t-2 -5t2 -5t5 -2h19q3 0 5 2t2 5t-2 5t-5 2zM116 59q-3 0 -5.5 -2 t-2.5 -5v0q0 -3 2.5 -5.5t5.5 -2.5t5 2.5t2 5.5v0q0 3 -2 5t-5 2zM215 59h-19q-3 0 -5 -2t-2 -5t2 -5.5t5 -2.5h19q3 0 5 2.5t2 5.5t-2 5t-5 2z" />
</svg>