<svg viewBox="0 0 1024 1024" xmlns="http://www.w3.org/2000/svg">
  <path transform="scale(1, -1) translate(0, -960)" fill="currentColor" d="M528 546v336l86 -87q5 -5 11.5 -5t11.5 5t5 11.5t-5 11.5l-98 97q-11 11 -27 11t-27 -11l-98 -97q-5 -5 -5 -11.5t5 -11.5q3 -2 6 -3.5t5 -1.5q4 0 6.5 1.5t5.5 3.5l86 88v-336q-57 -3 -107 -27q-50 -23 -87 -62t-58 -90q-22 -51 -22 -109q0 -60 23 -113q23 -54 62 -93 t92 -62t113 -23t113 23q52 23 91.5 62t62.5 92t23 113q0 57 -22 108q-21 51 -58 90t-87 63t-107 27v0zM512 0q-53 0 -100 20t-82 55t-55 82q-21 47 -21 101q0 53 21 100q20 47 55 82t82 55t100 20t100 -20t82 -55t55 -82q21 -47 21 -100q0 -54 -21 -101q-20 -47 -55 -82 t-82 -55t-100 -20z" />
</svg>