<svg viewBox="0 0 256 256" xmlns="http://www.w3.org/2000/svg">
  <path transform="scale(1, -1) translate(0, -256)" fill="currentColor" d="M135 155v75l17 -17q2 -2 5 -2t5 2t2 5t-2 5l-25 25q-3 3 -8.5 3t-9.5 -3l-24 -25q-2 -2 -2 -5t2 -5t5 -2t5 2l17 17v-74q-19 -2 -35 -12.5t-25 -27t-9 -36.5t10.5 -37.5t27.5 -27.5t37.5 -10t38 10.5t27.5 27.5t10 37t-9.5 36.5t-25 27t-34.5 11.5zM128 19q-17 0 -31 8 t-22.5 22t-8.5 31t8.5 31t22.5 22.5t31 8.5t31 -8.5t22.5 -22.5t8.5 -30.5t-8.5 -30.5t-22.5 -22.5t-31 -8.5z" />
</svg>