<svg viewBox="0 0 1024 1024" xmlns="http://www.w3.org/2000/svg">
  <path transform="scale(1, -1) translate(0, -960)" fill="currentColor" d="M925 928h-312q-7 0 -11.5 -4.5t-4.5 -11.5t4.5 -11.5t11.5 -4.5h312q3 0 6 -1t7 -2l-1 -0.5t-1 -1.5l-325 -312q-45 40 -103.5 62.5t-123.5 22.5q-72 0 -136 -27q-63 -28 -110.5 -75.5t-74.5 -110.5q-28 -64 -28 -136t28 -135q27 -63 74.5 -110t110.5 -75q64 -27 136 -27 t135 27q64 28 111.5 75.5t74.5 110.5q28 64 28 136q0 69 -26 132t-72 109l322 309v-0.5v-0.5v-314q0 -7 4.5 -11.5t11.5 -4.5t11.5 4.5t4.5 11.5v314q0 25 -19 43.5t-45 18.5v0zM384 0q-65 0 -123 25t-101 68t-68 101q-25 57 -25 123q0 65 25 123t68 101t101 68t123 25 t123 -25t101 -68t68 -101t25 -123q-1 -66 -26 -123q-25 -58 -68 -101t-100 -68q-58 -25 -123 -25v0z" />
</svg>