<svg viewBox="0 0 256 256" xmlns="http://www.w3.org/2000/svg">
  <path transform="scale(1, -1) translate(0, -256)" fill="currentColor" d="M231 251h-78q-3 0 -5 -2t-2 -5t2 -5t5 -2h75l-75 -72q-25 20 -57 20q-24 0 -45 -12t-33 -33t-12 -45.5t12 -45t33 -32.5t45 -12t45 12t33 32.5t12 45.5q0 17 -6 32.5t-17 27.5l73 71v-72q0 -3 2 -5.5t5 -2.5t5 2.5t2 5.5v78q0 8 -5.5 13.5t-13.5 5.5zM96 19 q-21 0 -38.5 10t-27.5 27.5t-10 38t10 38t27.5 28t38.5 10.5t38.5 -10.5t27.5 -28t10 -38t-10 -38t-27.5 -27.5t-38.5 -10z" />
</svg>