<svg viewBox="0 0 256 256" xmlns="http://www.w3.org/2000/svg">
  <path transform="scale(1, -1) translate(0, -256)" fill="currentColor" d="M206 142q0 12 -8 20t-19 8h-68q-6 0 -10 -4l-4 -4l-4 4q-4 4 -10 4h-8q-8 0 -14 -5.5t-7 -13.5l-6 -63q0 -7 4 -11t10 -4h2l4 -47q0 -9 6.5 -15t15.5 -6h15q8 0 14.5 6t7.5 15l9 88h43q11 0 19 8.5t8 19.5zM129 128q-3 0 -5 -1.5t-2 -4.5l-9 -95q0 -3 -2.5 -5.5 t-6.5 -2.5h-14q-4 0 -6 2.5t-3 5.5l-4 53q-1 3 -2.5 5t-4.5 2h-8l7 63q0 3 2 4.5t5 1.5h7l9 -8q2 -2 5 -2t5 2l9 8h68q6 0 9.5 -4t3.5 -9.5t-3.5 -9.5t-9.5 -4h-50v-1zM188 56h-12q-2 0 -4 2t-2 4t2 4t4 2h24q3 0 5.5 2t2.5 5t-2.5 5t-5.5 2h-8v4q0 3 -2 5.5t-5 2.5t-5 -2.5 t-2 -5.5v-4h-2q-9 0 -14.5 -5.5t-5.5 -14t5.5 -14.5t14.5 -6h11q2 0 4 -1.5t2 -4t-2 -4.5t-4 -2h-24q-3 0 -5 -2t-2 -5t2 -5t5 -2h15v-4q0 -3 2 -5t5 -2t5 2t2 5v5q7 2 11 7t4.5 12.5t-5.5 13.5t-14 6zM99 181q15 0 25 10.5t10 24.5t-10 24.5t-24.5 10.5t-25 -10.5 t-10.5 -24.5t10.5 -24.5t24.5 -10.5zM99 237q9 0 15 -6t6 -15t-6 -15t-14.5 -6t-15 6t-6.5 15t6.5 15t14.5 6z" />
</svg>