<svg viewBox="0 0 1024 1024" xmlns="http://www.w3.org/2000/svg">
  <path transform="scale(1, -1) translate(0, -960)" fill="currentColor" d="M571 754q0 -14 -9.5 -23t-22.5 -9t-22.5 9t-9.5 23q0 13 9.5 22.5t22.5 9.5t22.5 -9.5t9.5 -22.5zM928 662l-266 61q3 9 4 16t1 13q0 54 -36.5 91t-89.5 37t-90.5 -37.5t-37.5 -90.5q0 -16 6.5 -36t17.5 -42l-77 -16l-224 64q-18 4 -37 0.5t-35 -15.5t-24 -29t-8 -36 v-474q0 -28 16.5 -50t42.5 -30l263 -72l3 -2l310 64l224 -51q5 -1 10 -1h9q14 0 27.5 4.5t24.5 12.5q14 12 22 28.5t8 35.5v475q0 29 -17.5 51.5t-46.5 28.5v0zM541 848q39 0 66.5 -27.5t27.5 -68.5q0 -28 -30.5 -83.5t-65.5 -106.5q-35 51 -64.5 106.5t-29.5 83.5 q-1 41 27 68.5t69 27.5zM450 648q15 -30 33.5 -59.5t33.5 -50.5q3 -6 9 -9.5t13 -3.5v0v0q7 0 13 3t10 8q20 30 46 73t43 82v-585l-277 -58v581l76 16v3v0zM64 170v472q0 12 5.5 22t13.5 18q10 7 21.5 9.5t23.5 -0.5l214 -61v-577l-241 67q-17 5 -27 19t-10 31v0zM960 107 q0 -12 -5 -22.5t-14 -17.5q-10 -7 -20.5 -9.5t-22.5 0.5l-215 49v579l239 -54q16 -4 27 -18t11 -32v-475v0z" />
</svg>