<svg viewBox="0 0 1024 1024" xmlns="http://www.w3.org/2000/svg">
  <path transform="scale(1, -1) translate(0, -960)" fill="currentColor" d="M512 928q-81 0 -152 -30q-72 -30 -125 -81t-84 -121q-31 -69 -31 -147q0 -63 40 -142q39 -80 94.5 -159t114.5 -149q59 -69 98 -112q10 -9 21.5 -15t23.5 -6q13 0 24.5 6t20.5 15q39 43 98 112q59 70 114.5 149t94.5 158q40 80 40 143q0 78 -31 147q-31 70 -84 121 t-125 81q-71 30 -152 30zM534 10q-8 -10 -21 -10t-22 10q-30 32 -87 98q-56 66 -112 144t-98 157q-42 80 -42 140q0 72 28 135q29 63 77.5 110.5t114.5 74.5t140 27t140 -27q65 -27 114 -74.5t78 -110.5q28 -63 28 -135q0 -60 -42 -140q-41 -79 -97 -157t-113 -144 q-56 -66 -86 -98zM512 698q-66 0 -113 -47t-47 -113t47 -113t113 -47t113 47t47 113t-47 113t-113 47zM512 410q-53 0 -90.5 37.5t-37.5 90.5q0 52 37.5 90t90.5 38t90.5 -38t37.5 -90q0 -54 -37.5 -91t-90.5 -37z" />
</svg>