<svg viewBox="0 0 256 256" xmlns="http://www.w3.org/2000/svg">
  <path transform="scale(1, -1) translate(0, -256)" fill="currentColor" d="M128 251q-27 0 -50.5 -13.5t-37 -35.5t-13.5 -49.5t34 -75.5q21 -31 53 -66q6 -6 14 -6t14 6q31 34 53 66q34 48 34 75.5t-13.5 50t-37 35.5t-50.5 13zM131 20q-1 -1 -3 -1t-3 1q-28 31 -50 60q-34 48 -34 72t11.5 43t31.5 30.5t44 11.5t44 -11.5t31.5 -30.5t11.5 -42 q0 -25 -34 -73q-20 -27 -50 -60zM128 193q-18 0 -30.5 -12.5t-12.5 -30.5t12.5 -30.5t30.5 -12.5t30.5 12.5t12.5 30.5t-12.5 30.5t-30.5 12.5zM128 121q-12 0 -20.5 8.5t-8.5 20.5t8.5 21t20.5 9t20.5 -9t8.5 -21t-8.5 -20.5t-20.5 -8.5z" />
</svg>