<svg viewBox="0 0 256 256" xmlns="http://www.w3.org/2000/svg">
  <path transform="scale(1, -1) translate(0, -256)" fill="currentColor" d="M123 204q0 -3 2 -5.5t5.5 -2.5t6 2.5t2.5 6t-2.5 5.5t-6 2t-5.5 -2t-2 -6zM233 184l-68 16l1 4q0 15 -10.5 25t-25 10t-24.5 -10t-10 -25q0 -6 5 -18l-11 -2l-55 15q-12 3 -21 -4t-9 -19v-118q0 -8 5 -14.5t12 -8.5l67 -19l78 16l55 -12q3 -1 5 -1q9 0 15 5q9 7 9 19v119 q0 8 -5 14.5t-13 7.5zM131 225q9 0 15 -6t6 -15q0 -5 -5.5 -16.5t-15.5 -25.5q-9 14 -15 25.5t-6 16.5q0 9 6 15t15 6zM108 173q7 -13 15 -24q3 -5 8 -5t8 5q15 23 21 35v-139l-64 -13v139zM19 58v118q0 6 3.5 8.5t8.5 1.5l51 -15v-138l-56 16q-3 1 -5 3.5t-2 5.5zM237 43 q0 -5 -3.5 -7.5t-7.5 -2.5l-52 12v139l56 -13q3 -1 5 -3.5t2 -5.5v-119z" />
</svg>