<svg viewBox="0 0 256 256" xmlns="http://www.w3.org/2000/svg">
  <path transform="scale(1, -1) translate(0, -256)" fill="currentColor" d="M228 251h-200q-10 0 -16.5 -6.5t-6.5 -16.5v-200q0 -10 7 -16.5t16 -6.5h200q10 0 16.5 6.5t6.5 16.5v200q0 10 -6.5 16.5t-16.5 6.5zM237 228v-30h-50v39h41q4 0 6.5 -2.5t2.5 -6.5zM237 72h-50v112h50v-112zM19 184h51v-112h-51v112zM83 184h89v-112h-89v112zM173 237 v-39h-90v39h90zM28 237h41v-39h-50v30q0 4 2.5 6.5t6.5 2.5zM19 28v30h51v-39h-42q-4 0 -6.5 2.5t-2.5 6.5zM83 19v39h89v-39h-89zM228 19h-41v39h50v-30q0 -4 -2.5 -6.5t-6.5 -2.5z" />
</svg>