<svg viewBox="0 0 1024 1024" xmlns="http://www.w3.org/2000/svg">
  <path transform="scale(1, -1) translate(0, -960)" fill="currentColor" d="M912 928h-800q-34 0 -57 -23t-23 -57v-800q0 -34 23 -57t57 -23h800q34 0 57 23t23 57v800q0 34 -23 57t-57 23zM960 848v-133h-226v181h178q20 0 34 -14t14 -34zM960 213h-226v470h226v-470zM64 683h226v-472h-226v472v0zM322 683h380v-472h-380v472v0zM702 896v-181 h-380v181h380zM112 896h178v-181h-226v133q0 20 14 34t34 14v0zM64 48v133h226v-181h-178q-20 0 -34 14t-14 34v0zM322 0v181h380v-181h-380v0zM912 0h-178v181h226v-133q0 -20 -14 -34t-34 -14z" />
</svg>