<svg viewBox="0 0 256 256" xmlns="http://www.w3.org/2000/svg">
  <path transform="scale(1, -1) translate(0, -256)" fill="currentColor" d="M218 197q-13 25 -37 39.5t-53 14.5t-53 -14.5t-37 -39.5q-11 -22 -12 -43v-2q0 -1 1 -2q7 -15 24.5 -26t41.5 -16l-7 -65q-1 -7 1.5 -14t7.5 -12.5t11.5 -8.5t13.5 -3h16q16 0 26 11q5 6 7 13t2 14l-7 65q24 5 41.5 16t24.5 25v3q-1 25 -12 45zM156 42q2 -9 -4.5 -16 t-15.5 -7h-16q-9 0 -15 6.5t-5 16.5l6 64q11 -1 22 -1t21 1zM128 118q-31 0 -55.5 10t-32.5 26q1 19 10 36q12 22 32.5 34.5t45.5 12.5t45.5 -12.5t32.5 -34.5q8 -16 10 -36q-8 -16 -33 -26t-55 -10zM86 170q-4 0 -7 -3t-3 -7t3 -7t7 -3t7 3t3 7t-3 7t-7 3zM160 160 q0 -5 3 -8t7.5 -3t7.5 3t3 7.5t-3 7.5t-7.5 3t-7.5 -3t-3 -7zM118 202q0 -4 3 -7t7.5 -3t7.5 3t3 7t-3 7t-7.5 3t-7.5 -3t-3 -7z" />
</svg>