<svg viewBox="0 0 1024 1024" xmlns="http://www.w3.org/2000/svg">
  <path transform="scale(1, -1) translate(0, -960)" fill="currentColor" d="M862 717q-25 49 -63 88q-37 39 -82.5 66.5t-97.5 41.5q-52 15 -107 15t-107 -15q-52 -14 -97.5 -41.5t-82.5 -66.5q-38 -39 -63 -88q-22 -40 -33 -81.5t-12 -85.5v0v0v-3v-3t1 -3q14 -29 39 -54q25 -26 59.5 -47t77.5 -36q43 -16 92 -25l-29 -270q-3 -27 5.5 -53 t26.5 -45t42.5 -30t51.5 -11h61q26 0 51 11t43 30t26.5 45t5.5 53l-28 270q48 9 90 25q42 15 76.5 35.5t58.5 46.5q25 25 39 55q1 1 1 3v3q-1 45 -12.5 87.5t-32.5 82.5v0zM638 106q3 -21 -3.5 -39.5t-20.5 -34.5q-13 -16 -31.5 -24t-38.5 -8h-62q-21 0 -39.5 8t-31.5 24 t-19.5 34.5t-4.5 39.5l29 267q23 -4 47 -5.5t49 -1.5t49.5 1.5t48.5 5.5l28 -267v0zM512 398q-63 0 -122 12q-58 11 -106.5 31t-83.5 48q-35 27 -51 60v0q1 39 11 77.5t30 75.5q24 45 58 81t75.5 61t89.5 39q48 13 99 13t99 -13q48 -14 89.5 -39t75.5 -61t58 -81 q19 -36 29 -74t12 -79q-16 -33 -51 -60q-35 -28 -83.5 -48t-106.5 -31q-59 -12 -122 -12zM344 618q-18 0 -30 -12.5t-12 -29.5t12.5 -29.5t29.5 -12.5q18 0 30 12.5t12 29.5t-12 29.5t-30 12.5zM723 574q0 -17 -12 -29t-29 -12q-18 0 -30 12t-12 29q0 18 12 30t30 12 q17 0 29 -12t12 -30zM555 744q0 -17 -12 -29.5t-29 -12.5q-18 0 -30 12.5t-12 29.5t12 29.5t30 12.5q17 0 29 -12.5t12 -29.5z" />
</svg>