<svg viewBox="0 0 256 256" xmlns="http://www.w3.org/2000/svg">
  <path transform="scale(1, -1) translate(0, -256)" fill="currentColor" d="M223 240h-85q-11 0 -19.5 -8t-8.5 -20v-3h-90q-6 0 -10.5 -4.5t-4.5 -10.5v-108q0 -19 9.5 -35.5t25.5 -26t35 -9.5q22 0 39.5 12.5t25.5 32.5q17 -13 39 -13h1q14 0 26 5t22.5 15t16.5 24t6 29v92q0 12 -8 20t-20 8zM132 86q0 -15 -8 -28t-20.5 -20.5t-28 -7.5 t-28.5 7.5t-20.5 20.5t-7.5 28v108q0 1 1 1h111q1 0 1 -1v-108zM237 120q0 -12 -4.5 -23t-13 -19.5t-19 -12.5t-20.5 -4q-21 1 -35 13q1 4 1 12v16q1 -1 3.5 -2t5 0.5t3.5 4.5q2 7 8.5 11.5t14.5 4.5t14 -4.5t9 -11.5q2 -5 7 -5h2q3 1 4 4t1 5q-5 12 -14.5 19t-21.5 7 t-21.5 -6.5t-14.5 -16.5v69l4 -1q4 0 7 3.5t3 7.5t-3 7t-6.5 3t-6.5 -1q-1 4 -5 6t-8 2h-6v4q0 6 4 10t10 4h84q6 0 10 -4t4 -10v-92zM54 149q0 5 -3 8t-7.5 3t-7.5 -3.5t-3 -7.5t3 -7t7.5 -3t7.5 3t3 7zM107 160q-5 0 -8 -3.5t-3 -7.5t3.5 -7t7.5 -3t7 3t3 7t-3 7.5t-7 3.5 zM212 202q-4 0 -7 -3t-3 -7.5t3 -7.5t7.5 -3t7.5 3t3 7.5t-3 7.5t-8 3zM108 92q-3 1 -5.5 0t-3.5 -4q-3 -7 -9.5 -11.5t-14 -4.5t-14 4.5t-9.5 11.5q0 3 -3 4t-5.5 0.5t-4 -3.5t-0.5 -5q4 -12 14 -19t22.5 -7t22.5 7t14 18q1 3 -0.5 6t-3.5 3z" />
</svg>