<svg viewBox="0 0 1024 1024" xmlns="http://www.w3.org/2000/svg">
  <path transform="scale(1, -1) translate(0, -960)" fill="currentColor" d="M891 886h-337q-42 0 -71.5 -29t-29.5 -71v-26h-373q-20 0 -34 -14t-14 -34v-432q0 -56 21 -105t57.5 -85.5t85.5 -57.5t105 -21q44 0 85 14q40 14 73.5 38t58.5 58t39 74q33 -27 74 -41.5t86 -15.5h2h3q50 0 97.5 19.5t86.5 56.5q40 41 63 94t23 110v368q0 40 -29.5 70 t-71.5 30v0zM301 42q-49 0 -93 18q-43 19 -75 51.5t-50 75.5q-19 44 -19 93v432q0 7 4.5 11.5t11.5 4.5h442q7 0 11.5 -4.5t4.5 -11.5v-432q0 -49 -19 -93q-18 -43 -50.5 -75.5t-75.5 -51.5q-43 -18 -92 -18zM960 418q0 -51 -20 -98t-57 -83q-35 -34 -77 -51.5t-89 -15.5 q-43 1 -82 16.5t-70 43.5q2 12 3.5 25t1.5 25v389q6 -5 12 -7.5t13 -2.5q18 0 30 12.5t12 29.5q0 18 -12.5 29.5t-29.5 11.5q-8 0 -16 -3t-14 -9q-6 13 -17.5 20.5t-25.5 7.5h-37v26q0 29 20 49t49 20h337q29 0 49 -20t20 -49v-366v0zM216 533q0 18 -12.5 29.5t-29.5 11.5 q-18 0 -29.5 -12t-11.5 -29q0 -18 12.5 -30t28.5 -12q18 -1 30 11.5t12 30.5zM427 574q-18 0 -29.5 -12t-11.5 -29q0 -18 12 -30t29 -12q18 0 30 12.5t12 29.5q1 17 -11.5 29t-30.5 12zM850 744q-18 0 -30 -12.5t-12 -29.5q0 -18 12.5 -29.5t29.5 -11.5q18 0 29.5 12.5 t11.5 28.5q0 17 -12.5 29.5t-28.5 12.5zM426 294q-6 3 -12.5 0t-8.5 -9q-12 -34 -40.5 -54t-63.5 -20t-63.5 20.5t-40.5 53.5q-3 6 -9 9t-12 0q-6 -2 -9 -8t-1 -12q16 -44 52.5 -69.5t82.5 -25.5q45 0 82 26.5t52 68.5q3 6 0 12t-9 8zM723 464q-45 0 -82 -26t-52 -68 q-3 -6 0 -12.5t9 -8.5q6 -3 12.5 0t8.5 9q12 34 40.5 54t63.5 20t63.5 -20.5t40.5 -53.5q1 -4 5.5 -7.5t9.5 -3.5q1 0 2 0.5t2 1.5q6 2 9 8.5t1 12.5q-14 42 -50.5 68t-82.5 26z" />
</svg>