<svg viewBox="0 0 1024 1024" xmlns="http://www.w3.org/2000/svg">
  <path transform="scale(1, -1) translate(0, -960)" fill="currentColor" d="M898 749h-772q-45 0 -77.5 -32.5t-32.5 -78.5v-380q0 -46 32.5 -78.5t77.5 -32.5h773q46 0 78.5 32.5t32.5 78.5v380q-2 46 -34.5 78.5t-77.5 32.5v0zM976 258q0 -33 -23 -56t-55 -23h-772q-32 0 -55 23t-23 56v380q0 33 23 56t55 23h773q33 0 56 -23t23 -56v-380h-2z M590 602q-24 0 -46 -7t-40 -21q-17 12 -37 17.5t-41 5.5q-62 0 -105.5 -44t-43.5 -105t43.5 -105t105.5 -44q20 0 40 6t38 17q19 -14 40.5 -21t45.5 -7q64 0 109 45t45 109t-45 109t-109 45zM594 333q-16 0 -30 4t-26 10q18 21 29 46t11 55q-2 30 -12 56t-28 45 q13 7 26.5 10.5t29.5 3.5q46 0 80.5 -33.5t34.5 -81.5q-1 -48 -35 -81.5t-80 -33.5v0z" />
</svg>