<svg viewBox="0 0 256 256" xmlns="http://www.w3.org/2000/svg">
  <path transform="scale(1, -1) translate(0, -256)" fill="currentColor" d="M224 206h-192q-13 0 -22 -9t-9 -21v-96q0 -12 9 -21t22 -9h193q12 0 21 9t9 21v96q0 12 -9 21t-22 9zM241 80q0 -6 -4.5 -11t-11.5 -5h-193q-7 0 -12 4.5t-5 11.5v96q0 6 5 11t12 5h193q7 0 11.5 -5t4.5 -11v-96zM148 166q-13 0 -22 -6q-8 5 -20 5q-15 0 -26 -11t-11 -26 t11 -26t26 -11q11 0 20 5q10 -6 22 -6q16 0 27 11t11 27t-11 27t-27 11zM148 99q-6 0 -14 4q10 11 10 25.5t-10 24.5q7 4 14 4q12 0 20.5 -8.5t8.5 -20.5t-8.5 -20.5t-20.5 -8.5z" />
</svg>