<svg viewBox="0 0 1024 1024" xmlns="http://www.w3.org/2000/svg">
  <path transform="scale(1, -1) translate(0, -960)" fill="currentColor" d="M896 926h-768q-40 0 -68 -28t-28 -68v-764q0 -40 28 -68t68 -28h768q40 0 68 28t28 68v764q0 40 -28 68t-68 28zM960 66q0 -27 -19 -45.5t-45 -18.5h-768q-26 0 -45 18.5t-19 45.5v764q0 27 19 45.5t45 18.5h768q26 0 45 -18.5t19 -45.5v-764zM365 674h-69v68 q0 8 -4.5 12t-11.5 4t-11.5 -4t-4.5 -12v-68h-69q-7 0 -11.5 -4.5t-4.5 -11.5q0 -8 4.5 -12t11.5 -4h69v-69q0 -7 4.5 -11.5t11.5 -4.5t11.5 4.5t4.5 11.5v69h69q7 0 11.5 4t4.5 12q0 7 -4.5 11.5t-11.5 4.5zM819 754q-5 4 -11 4t-11 -4l-53 -52l-53 52q-5 4 -11 4t-11 -4 q-5 -5 -5 -11.5t5 -11.5l53 -51l-53 -51q-5 -5 -5 -11.5t5 -11.5q2 -2 5.5 -3t5.5 -1q4 0 6.5 1t4.5 3l53 52l53 -52q2 -2 5.5 -3t5.5 -1q4 0 6.5 1t4.5 3q5 5 5 11.5t-5 11.5l-53 51l53 51q5 5 5 11.5t-5 11.5v0zM344 254h-126q-8 0 -12 -4t-4 -12q0 -7 4 -11.5t12 -4.5 h126q7 0 11.5 4.5t4.5 11.5q0 8 -5 12t-11 4zM802 294h-127q-7 0 -11.5 -4t-4.5 -12q0 -7 4.5 -11.5t11.5 -4.5h127q7 0 11.5 4.5t4.5 11.5q0 8 -4.5 12t-11.5 4zM802 189h-127q-7 0 -11.5 -4.5t-4.5 -11.5t4.5 -11.5t11.5 -4.5h127q7 0 11.5 4.5t4.5 11.5t-4.5 11.5 t-11.5 4.5z" />
</svg>