<svg viewBox="0 0 256 256" xmlns="http://www.w3.org/2000/svg">
  <path transform="scale(1, -1) translate(0, -256)" fill="currentColor" d="M224 251h-192q-11 0 -19 -8t-8 -19v-192q0 -11 8 -19t19 -8h192q11 0 19 8t8 19v192q0 11 -8 19t-19 8zM237 32q0 -5 -4 -9t-9 -4h-192q-5 0 -9 4t-4 9v192q0 5 4 9t9 4h192q5 0 9 -4t4 -9v-192zM91 188h-14v14q0 3 -2 5t-5 2t-5 -2t-2 -5v-14h-14q-3 0 -5 -2.5t-2 -5.5 t2 -5t5 -2h14v-14q0 -3 2 -5t5 -2t5 2t2 5v14h14q3 0 5 2t2 5t-2 5.5t-5 2.5zM207 206q-2 3 -5 3t-5 -3l-11 -10l-11 10q-2 3 -5 3t-5 -2.5t-2 -5t2 -5.5l11 -10l-11 -11q-2 -2 -2 -5t2 -5t5 -2t5 2l11 11l10 -11q2 -2 5 -2t5 2t2 5t-2 5l-10 11l11 11q2 2 2 5t-2 4zM86 82 h-32q-3 0 -5 -2t-2 -5t2 -5t5 -2h32q3 0 5 2t2 5t-2 5t-5 2zM200 92h-31q-3 0 -5 -2t-2 -5t2 -5t5 -2h31q3 0 5.5 2t2.5 5t-2.5 5t-5.5 2zM200 66h-31q-3 0 -5 -2t-2 -5t2 -5t5 -2h31q3 0 5.5 2t2.5 5t-2.5 5t-5.5 2z" />
</svg>