<svg viewBox="0 0 1024 1024" xmlns="http://www.w3.org/2000/svg">
  <path transform="scale(1, -1) translate(0, -960)" fill="currentColor" d="M907 928h-789q-36 0 -61 -25t-25 -61v-165q0 -7 4.5 -11.5t11.5 -4.5t11.5 4.5t4.5 11.5v165q0 22 16 38t38 16h789q22 0 37.5 -16t15.5 -38v-181h-146v5q0 36 -25 61t-59 25h-160q-8 0 -12 -4.5t-4 -11.5t4 -11.5t12 -4.5h160q21 0 36.5 -16t15.5 -38v-436 q0 -21 -15.5 -36.5t-36.5 -15.5h-18q-7 0 -11.5 -4.5t-4.5 -11.5q0 -8 4.5 -12t11.5 -4h18q36 0 60 25t24 59v399h146v-173q0 -7 4.5 -11.5t11.5 -4.5t11.5 4.5t4.5 11.5v386q0 36 -25 61t-60 25zM976 264q-7 0 -11.5 -4.5t-4.5 -11.5v-194q0 -21 -15.5 -36.5t-37.5 -15.5 h-789q-22 -2 -38 13.5t-16 37.5v237h146v-60q0 -36 25 -60t61 -24h248q7 0 11.5 4t4.5 12q0 7 -4.5 11.5t-11.5 4.5h-250q-21 0 -37.5 15.5t-16.5 36.5v240q0 8 -4.5 12t-11.5 4t-11.5 -4t-4.5 -12v-148h-144v172q0 8 -4.5 12t-11.5 4t-11.5 -4t-4.5 -12v-441 q0 -36 25 -60.5t61 -24.5h789q36 0 60.5 25t24.5 60v195q0 6 -4.5 11t-11.5 5v0zM426 750h-132q-36 0 -61 -25t-25 -61v-21q0 -7 4.5 -11.5t11.5 -4.5t11.5 4.5t4.5 11.5v21q0 22 16 38t38 16h132q7 0 11.5 4.5t4.5 11.5q0 8 -5 12t-11 4zM654 486q8 0 12 4.5t4 11.5v18 q0 36 -25 61t-59 25h-146q-36 0 -61 -25t-25 -61v-146q0 -36 25 -60t61 -24h146q36 0 60 25t24 59q0 8 -4 12t-12 4q-7 0 -11.5 -4t-4.5 -12q0 -21 -15.5 -36.5t-36.5 -15.5h-146q-22 0 -38 15.5t-16 36.5v146q0 22 15.5 38t38.5 16h146q21 0 36.5 -15.5t15.5 -38.5v-18 q0 -6 4.5 -11t11.5 -5z" />
</svg>