<svg viewBox="0 0 256 256" xmlns="http://www.w3.org/2000/svg">
  <path transform="scale(1, -1) translate(0, -256)" fill="currentColor" d="M227 251h-197q-11 0 -18 -7t-7 -18v-41q0 -3 2 -5t5 -2t5.5 2t2.5 5v41q0 5 3 8t7 3h197q4 0 7.5 -3t3.5 -8v-42h-31q0 9 -7.5 15.5t-16.5 6.5h-40q-3 0 -5 -2t-2 -5t2 -5t5 -2h40q4 0 7 -3t3 -7v-109q0 -4 -3 -7.5t-7 -3.5h-5q-3 0 -5 -2t-2 -5t2 -5t5 -2h5q10 0 17 7 t7 17v98h31v-40q0 -3 2 -5t5 -2t5 2t2 5v96q-1 11 -8 18t-17 7zM244 85q-3 0 -5 -2t-2 -5v-49q0 -4 -3 -7t-8 -3h-196q-5 0 -8 3t-3 7v56h31v-12q0 -10 7 -17t17 -7h62q3 0 5 2t2 5t-2 5t-5 2h-62q-5 0 -8 3t-3 8v60q0 3 -2 5t-5 2t-5 -2t-2 -5v-35h-30v40q0 3 -2 5t-5 2 t-5 -2t-2 -5v-110q0 -10 7 -17.5t17 -7.5h197q11 0 18 7.5t7 17.5v49q0 3 -2 5t-5 2zM106 207h-32q-11 0 -18 -7t-7 -18v-5q0 -3 2 -5t5 -2t5.5 2t2.5 5v5q0 5 3 8t7 3h33q3 0 5 2t2 5t-2.5 5t-5.5 2zM164 135q3 0 5 2t2 5v4q0 11 -7 18t-18 7h-36q-10 0 -17 -7t-7 -18v-36 q0 -10 7 -17t17 -7h36q11 0 18 7t7 17q0 3 -2 5t-5 2t-5.5 -2t-2.5 -5.5t-3 -6.5t-7 -3h-36q-5 0 -8 3t-3 7v36q0 5 3 8t8 3h36q4 0 7 -3t3 -8v-4q0 -3 2.5 -5t5.5 -2z" />
</svg>