<svg viewBox="0 0 256 256" xmlns="http://www.w3.org/2000/svg">
  <path transform="scale(1, -1) translate(0, -256)" fill="currentColor" d="M88 148q18 0 29.5 7t11.5 17.5t-11.5 17.5t-29 7t-29 -7t-11.5 -17.5t11.5 -17.5t28.5 -7zM88 183q12 0 19.5 -3.5t7.5 -7.5t-7.5 -7.5t-19 -3.5t-19 3.5t-7.5 7.5t7.5 7.5t18.5 3.5zM226 128h-84q14 8 22 19.5t8 24.5q0 16 -11.5 29.5t-30.5 21t-41 7.5t-41 -7.5 t-30.5 -20.5t-11.5 -28v-56q0 -25 12.5 -46.5t34 -34t46.5 -12.5h127q10 0 18 7.5t8 17.5v52q-1 11 -8.5 18.5t-17.5 7.5zM88 217q19 0 35 -6t25.5 -16.5t9.5 -22.5t-9.5 -22t-25.5 -16t-34.5 -6t-34.5 6t-25.5 16t-9.5 22t9.5 22.5t25.5 16.5t34 6zM237 51q0 -5 -3.5 -8.5 t-7.5 -3.5h-18v15q0 3 -2 5.5t-5 2.5t-5 -2.5t-2 -5.5v-15h-36v15q0 3 -2 5.5t-5 2.5t-5 -2.5t-2 -5.5v-15h-36v15q0 3 -2 5.5t-5 2.5t-5 -2.5t-2 -5.5v-15q-20 1 -37.5 12t-27.5 29t-10 39v21q12 -12 30 -19t39 -7h138q4 0 7.5 -3.5t3.5 -8.5v-51z" />
</svg>