<svg viewBox="0 0 256 256" xmlns="http://www.w3.org/2000/svg">
  <path transform="scale(1, -1) translate(0, -256)" fill="currentColor" d="M149 182q-16 0 -27.5 -11t-11.5 -27.5t11.5 -27.5t27.5 -11t27.5 11t11.5 27.5t-11.5 27.5t-27.5 11zM149 119q-10 0 -17.5 7.5t-7.5 17.5t7.5 17.5t17.5 7.5t17.5 -7.5t7.5 -17.5t-7.5 -17.5t-17.5 -7.5zM154 246q-27 0 -49 -12t-34.5 -33.5t-12.5 -46.5v-14h-21 q-4 0 -7.5 -3t-3.5 -8v-34q0 -5 3 -8t8 -3h21v-18h-36q-7 0 -12 -5t-5 -13v-31q0 -3 2 -5t5 -2t5 2t2 5v31q0 2 1 3t3 1h137q25 0 46.5 12.5t33.5 35t11.5 49t-13.5 49t-35 35.5t-49 13zM40 98v28h18v-28h-18zM159 66h-87v88q0 21 10.5 39t29.5 28.5t42 10.5t42 -11.5 t30 -30.5t11 -41.5t-10 -41.5t-28 -30t-40 -11z" />
</svg>