<svg viewBox="0 0 1024 1024" xmlns="http://www.w3.org/2000/svg">
  <path transform="scale(1, -1) translate(0, -960)" fill="currentColor" d="M597 654q-59 0 -101 -41.5t-42 -100.5t42 -100.5t101 -41.5t100.5 41.5t41.5 100.5t-41.5 100.5t-100.5 41.5zM597 400q-46 0 -78.5 32.5t-32.5 77.5q0 46 32.5 78.5t78.5 32.5q45 0 77.5 -32.5t32.5 -78.5q0 -45 -32.5 -77.5t-77.5 -32.5zM618 907q-80 0 -149 -27 q-68 -27 -118.5 -74.5t-78.5 -112.5q-29 -65 -29 -141v-66h-94q-13 0 -22.5 -9t-9.5 -23v-136q0 -13 9.5 -22.5t22.5 -9.5h94v-94h-153q-24 0 -41 -17t-17 -41v-126q0 -7 4.5 -11.5t11.5 -4.5t11.5 4.5t4.5 11.5v126q0 11 7.5 18.5t18.5 7.5h545q76 -1 142 27q65 28 113 78 t75 119q27 68 27 149q0 77 -29 145q-30 69 -81 119.5t-119 80.5q-68 29 -145 29zM149 317v136h94v-136h-94zM637 190h-362v360q0 69 26 129q26 59 72 102t109 68q62 25 136 25q70 0 133 -26q62 -27 108.5 -73.5t73.5 -108.5t27 -133q0 -73 -25 -136q-24 -63 -67.5 -109 t-102.5 -72t-128 -26z" />
</svg>