<svg viewBox="0 0 1024 1024" xmlns="http://www.w3.org/2000/svg">
  <path transform="scale(1, -1) translate(0, -960)" fill="currentColor" d="M354 538q63 0 106.5 25t43.5 61t-43.5 61t-106.5 25q-64 0 -107.5 -25t-43.5 -61t43.5 -61t107.5 -25zM354 680q52 0 85 -17.5t33 -36.5q0 -20 -33 -37.5t-85 -17.5q-53 0 -86 17.5t-33 37.5q0 19 33 36.5t86 17.5zM902 435h-384q70 29 113.5 79t43.5 112q0 46 -25 86 q-25 41 -69 71t-102 48q-59 17 -125 17q-65 0 -122 -17q-58 -17 -101 -46t-70 -68q-26 -39 -29 -83v0v-223q0 -75 29 -141q28 -66 77.5 -115.5t115.5 -77.5q66 -29 141 -29h507q38 0 64 26t26 64v206q0 37 -26 64t-64 27zM354 816q60 0 112 -15q53 -15 92.5 -40.5 t61.5 -60.5q23 -35 23 -74q0 -40 -23 -75q-22 -34 -61.5 -60t-92.5 -41q-52 -15 -112 -15t-113 15t-92 41t-62 60q-23 35 -23 75q0 39 23 74q22 35 61.5 60.5t92.5 40.5t113 15zM960 139q0 -24 -17 -40.5t-41 -16.5h-83v73q0 7 -4.5 11.5t-11.5 4.5t-11.5 -4.5t-4.5 -11.5 v-75h-166v74q0 7 -4.5 11.5t-11.5 4.5t-11.5 -4.5t-4.5 -11.5v-74h-167v74q0 7 -4 11.5t-12 4.5q-7 0 -11.5 -4.5t-4.5 -11.5v-74q-67 1 -127 28q-59 26 -103.5 71t-69.5 105q-26 59 -26 127v119q19 -29 49 -52t67.5 -39.5t81.5 -26.5q44 -9 92 -9h548q24 0 41 -16.5 t17 -40.5v-207z" />
</svg>