<svg viewBox="0 0 1024 1024" xmlns="http://www.w3.org/2000/svg">
  <path transform="scale(1, -1) translate(0, -960)" fill="currentColor" d="M670 744q-56 0 -96.5 -40.5t-40.5 -97.5q0 -56 40.5 -96.5t96.5 -40.5q57 0 97.5 40.5t40.5 96.5q0 57 -40 97.5t-98 40.5zM670 502q-43 0 -74 31.5t-31 74.5t31 74.5t74 31.5q44 0 75 -31.5t31 -74.5t-30.5 -74.5t-75.5 -31.5zM646 926q-64 -3 -126 -24t-119.5 -58 t-109.5 -89q-51 -52 -96 -118q-38 -56 -68 -118q-30 -63 -51 -127t-33 -128q-11 -63 -11 -122q0 -72 51 -123t123 -51q56 0 101.5 32t63.5 85q16 43 47.5 79.5t77.5 62.5q43 25 97.5 40.5t115.5 20.5q57 5 109 33q51 27 90 70.5t61 99.5q23 55 23 115q0 70 -27 131 q-28 60 -75 104t-110 68q-63 23 -134 17v0zM706 320q-64 -5 -121.5 -21.5t-104.5 -42.5q-50 -29 -85.5 -70t-53.5 -90q-16 -43 -52.5 -69.5t-82.5 -26.5q-58 0 -100 42t-42 100q0 56 11 117t31.5 122.5t49.5 122.5q29 60 65 114q42 63 92 113q49 50 103.5 85t112.5 55 t119 23q6 2 12 2h10q60 0 113 -23q53 -22 92 -61.5t62 -92.5t23 -113q0 -54 -20 -104q-21 -49 -55.5 -88.5t-81.5 -64.5q-46 -25 -97 -29z" />
</svg>