<svg viewBox="0 0 256 256" xmlns="http://www.w3.org/2000/svg">
  <path transform="scale(1, -1) translate(0, -256)" fill="currentColor" d="M168 205q-16 0 -27 -11t-11 -26t11 -26t26.5 -11t26.5 11t11 26t-11 26t-26 11zM168 144q-10 0 -17 7t-7 16.5t7 16.5t16.5 7t16.5 -7t7 -16.5t-7 -16.5t-16 -7zM168 251q-5 0 -7 -1q-33 -1 -62.5 -20.5t-52.5 -52.5q-19 -28 -30 -62t-11 -63q0 -20 14 -33.5t33 -13.5 q15 0 27 8.5t17 22.5q8 21 30 33.5t52 15.5q20 1 37 13t27 30.5t9.5 40t-11.5 40.5t-30.5 30.5t-41.5 11.5zM176 99q-33 -2 -57 -17q-27 -15 -37 -41q-3 -10 -11.5 -16t-18.5 -6q-14 0 -23.5 10t-9.5 23q0 28 10.5 59.5t28.5 57.5q21 31 47.5 48.5t56.5 19.5l5 1 q19 0 35 -9.5t25 -25.5t9.5 -34t-8 -33.5t-22 -25.5t-30.5 -11z" />
</svg>