<svg viewBox="0 0 256 256" xmlns="http://www.w3.org/2000/svg">
  <path transform="scale(1, -1) translate(0, -256)" fill="currentColor" d="M208 140q0 30 -21 54v33q0 10 -7 17t-17 7h-70q-10 0 -17 -7t-7 -17v-33q-10 -11 -15.5 -25t-5.5 -29q0 -30 21 -54v-70q0 -6 5 -10q3 -1 5.5 -1t4.5 1l42 22h3l42 -22q5 -3 10.5 0t5.5 9v71q10 11 15.5 25t5.5 29zM93 237h70q4 0 7 -3t3 -7v-21q-21 14 -45 14t-45 -14 v21q0 4 3 7t7 3zM128 206q18 0 33 -9t24 -24t9 -32.5t-9 -33t-24 -24t-33 -8.5t-33 9t-24 24t-9 32.5t9 32.5t24 24t33 9zM136 40q-8 4 -16 0l-37 -18v52q21 -14 45 -14t45 14v-53zM94 134l3 -2q2 -2 1 -4l-1 -3q-2 -6 0 -11t6.5 -8.5t9.5 -3.5t11 4l2 2q2 1 4 0l3 -2 q4 -4 9.5 -4t10 3.5t6.5 8.5t0 11l-1 3q-1 2 1 4l3 2q4 3 6 8t0.5 10.5t-6 9t-10.5 3.5h-4q-2 0 -2 2l-2 3q-1 5 -5.5 8.5t-10.5 3.5t-10.5 -3.5t-5.5 -8.5l-2 -4q0 -2 -2 -2h-4q-6 0 -10.5 -3t-6 -8.5t0.5 -10.5t6 -8zM101 148l0.5 1t2.5 1h4q5 0 9.5 3.5t6.5 8.5l1 3 q1 2 3 2t3 -2l1 -3q2 -5 6.5 -8.5t9.5 -3.5h4q3 0 3 -2v0q0 -2 -1 -3l-3 -2q-5 -3 -6.5 -8.5t-0.5 -10.5l2 -4q0 -1 -1 -3h-1q-1 -2 -3 0l-3 2q-4 3 -10 3t-10 -3l-3 -2q-1 -1 -3 0v0q-2 1 -2 3l2 4q1 5 -0.5 10t-6.5 9l-3 2q-1 1 -1 3v0z" />
</svg>