<svg viewBox="0 0 1024 1024" xmlns="http://www.w3.org/2000/svg">
  <path transform="scale(1, -1) translate(0, -960)" fill="currentColor" d="M528 360v155l170 123q16 12 23 32t1 40l-40 122v0v0v0v0l-18 53q-6 19 -22.5 31t-38.5 12h-182q-21 0 -38 -12t-23 -33l-56 -174q-6 -21 0 -40.5t24 -31.5l168 -123v-156q-76 -6 -128.5 -62t-52.5 -133q0 -40 16 -76q15 -35 42 -61.5t62 -42.5q36 -15 77 -15t77 15 q35 16 62 42.5t42 62.5q16 36 16 77q0 77 -52.5 133t-128.5 62zM512 542l-85 61l264 80q-1 -6 -4 -10.5t-9 -8.5l-166 -122v0zM390 874q4 9 12 15.5t19 6.5h184q11 0 19 -6.5t11 -15.5l11 -36l-292 -76zM333 699l8 26l315 83l30 -93l-291 -88l-49 37q-10 6 -13 16t0 19v0z M512 0q-68 0 -116.5 48t-48.5 117q0 68 48.5 115.5t116.5 47.5t116.5 -48t48.5 -117q0 -68 -48.5 -115.5t-116.5 -47.5v0zM523 250q-5 4 -11 4t-11 -4l-66 -66q-5 -5 -5 -11.5t5 -10.5l66 -66q2 -2 5.5 -3.5t5.5 -1.5t5.5 1.5t5.5 3.5l66 66q5 4 5 10.5t-5 11.5l-66 66v0z M512 131l-42 42l42 41l42 -41z" />
</svg>