<svg viewBox="0 0 256 256" xmlns="http://www.w3.org/2000/svg">
  <path transform="scale(1, -1) translate(0, -256)" fill="currentColor" d="M135 108v35l41 30q5 3 7 9t0 12l-14 44q-2 6 -7 9.5t-11 3.5h-46q-6 0 -11 -3.5t-7 -9.5l-14 -44q-2 -6 0 -12t7 -9l41 -30v-35q-19 -2 -32 -16.5t-13 -35t15 -36t37 -15.5t37 15.5t15 36t-13 35t-32 16.5zM128 155l-14 11l49 15zM105 237h46q4 0 5 -4l2 -6l-65 -17l8 23 q0 4 4 4zM86 190l2 5l74 19l6 -17l-69 -21l-11 8q-3 2 -2 6zM128 19q-16 0 -27 11t-11 26.5t11 27t27 11.5t27 -11.5t11 -27t-11 -26.5t-27 -11zM133 80q-2 2 -5 2.5t-5 -2.5l-17 -16q-2 -2 -2 -5t2 -5l17 -16q2 -2 4.5 -2t4.5 2l17 16q2 2 2 5t-2 5zM128 53l-6 7l6 6l6 -6z " />
</svg>