<svg viewBox="0 0 256 256" xmlns="http://www.w3.org/2000/svg">
  <path transform="scale(1, -1) translate(0, -256)" fill="currentColor" d="M228 216q3 6 3 12t-3.5 11.5t-9 8.5t-11.5 3h-28q-7 0 -12.5 -3.5t-8.5 -9.5l-30 -57l-29 57q-3 6 -9 9.5t-12 3.5h-29q-6 0 -11.5 -3t-8.5 -8.5t-3.5 -11.5t2.5 -12l55 -108q-16 -18 -16 -42q0 -16 8.5 -30t22.5 -22.5t30.5 -8.5t30.5 8.5t22.5 22.5t8.5 30q0 25 -17 42 zM170 232q1 2 3.5 3.5t4.5 1.5h29q6 0 8.5 -5t0.5 -9l-54 -106l-2 1l-24 47zM40 222q-3 6 0.5 10.5t8.5 4.5h28q7 0 9 -6l54 -105q-6 1 -12 1q-18 0 -34 -10zM128 19q-20 0 -33.5 13.5t-13.5 33.5t14 33.5t33 13.5t33 -14t14 -33.5t-13.5 -33t-33.5 -13.5zM128 89 q-9 0 -15.5 -6.5t-6.5 -16t6.5 -16t15.5 -6.5t15.5 6.5t6.5 15.5t-6.5 16t-15.5 7zM128 58q-4 0 -6 2.5t-2 6t2.5 5.5t5.5 2t5.5 -2.5t2.5 -5.5t-2 -5.5t-6 -2.5z" />
</svg>