<svg viewBox="0 0 1024 1024" xmlns="http://www.w3.org/2000/svg">
  <path transform="scale(1, -1) translate(0, -960)" fill="currentColor" d="M605 504q7 0 11.5 4.5t4.5 11.5v91h61q32 0 55 23t23 56v160q0 32 -23 55t-55 23h-340q-32 0 -55 -23t-23 -55v-162q0 -32 23 -55t55 -23h61v-92q0 -7 4.5 -11.5t11.5 -4.5h77v-94l-50 8q-3 0 -6.5 -1t-5.5 -4l-48 -46l-60 -29q-3 -1 -5.5 -4.5t-2.5 -6.5l-11 -66 l-29 -59q-1 -4 -1 -7.5t1 -6.5l29 -60l11 -65l3.5 -7t4.5 -4l60 -31l48 -46q2 -3 5.5 -4t6.5 -1l66 10l66 -10h0.5h0.5q4 0 6.5 1t4.5 4l48 46l60 31q3 1 5.5 4t2.5 7l11 65l29 60q1 3 1 6.5t-1 7.5l-29 59l-11 66q-2 3 -3.5 6.5t-4.5 4.5l-60 30l-48 47q-2 2 -5.5 3.5 t-6.5 1.5l-50 -8v94h77zM618 342l1.5 -1.5l1.5 -1.5l54 -29l10 -59v-2t1 -3l28 -54l-28 -54q0 -2 -0.5 -3t-0.5 -2l-10 -59l-54 -29q-1 0 -2 -1t-1 -2l-44 -42l-59 8h-0.5h-0.5h-1h-1l-59 -8l-43 42q-2 1 -2 1.5t-2 1.5l-54 29l-10 59v2t-1 3l-31 54l28 54q0 2 0.5 3t0.5 2 l10 59l54 29q1 0 2 1t1 2l44 42l59 -8h2h3l59 8l45 -42v0zM448 643v253h128v-253h-128zM728 850v-162q0 -19 -13.5 -32.5t-32.5 -13.5h-74v254h74q19 0 32.5 -13.5t13.5 -32.5zM296 688v162q0 19 13.5 32.5t32.5 13.5h74v-253h-74q-19 0 -32.5 13.5t-13.5 31.5zM435 611h154 v-75h-154v75v0zM416 192q0 -40 28 -68t68 -28t68 28t28 68t-28 68t-68 28q-40 1 -68 -27t-28 -69zM576 192q0 -26 -19 -45t-45 -19t-45 19t-19 45t19 45t45 19t45 -18t19 -46z" />
</svg>