<svg viewBox="0 0 1024 1024" xmlns="http://www.w3.org/2000/svg">
  <path transform="scale(1, -1) translate(0, -960)" fill="currentColor" d="M938 886q-11 20 -30.5 31t-41.5 11h-111q-21 0 -39.5 -10t-30.5 -28l-181 -277l-163 273q-12 20 -31.5 31t-40.5 11h-111q-22 0 -41.5 -11t-30.5 -31q-10 -19 -10 -41.5t10 -42.5l269 -453q-25 -30 -39.5 -68.5t-14.5 -80.5q0 -48 18 -90t49.5 -73.5t74.5 -50.5 q42 -18 90 -18t90 18t73.5 49.5t50.5 74.5q18 42 18 90q0 53 -22.5 99t-59.5 79l255 424q10 19 10 41.5t-10 42.5zM114 870q7 12 19 19t25 7h8l122 -216q2 -4 6 -6t8 -2h4.5t3.5 2q6 3 7.5 9.5t-0.5 12.5l-114 200h64q13 0 25.5 -7t19.5 -19l264 -441q-11 2 -21 2.5t-21 0.5 q-44 0 -84 -16t-71 -43l-264 445q-7 12 -7 25.5t6 26.5zM734 200q0 -41 -15 -78q-16 -36 -43 -63.5t-64 -42.5q-36 -16 -78 -16q-41 0 -77 16q-37 15 -64 42.5t-43 63.5q-16 37 -16 78t16 78q16 36 43 63.5t64 42.5q36 16 77 16q42 0 78 -16q37 -15 64 -42.5t43 -63.5 q15 -37 15 -78zM909 818l-250 -421q-9 6 -19 10.5t-19 8.5l-99 168q1 1 2 2.5t2 2.5l184 283q8 12 19 18t25 6h68l-128 -195q-3 -6 -2 -12.5t7 -10.5q3 -1 5 -2t3 -1q4 0 7.5 2.5t5.5 5.5l141 213h3q14 0 26 -7t19 -19t7 -26t-7 -26v0zM547 291q-5 3 -9.5 2t-7.5 -3l-56 -48 q-5 -5 -6 -11.5t4 -11.5t11.5 -5.5t10.5 4.5l31 25v-123q0 -7 4.5 -11.5t11.5 -4.5t11.5 4.5t4.5 11.5v158q0 4 -3 8t-7 5v0z" />
</svg>