<svg viewBox="0 0 256 256" xmlns="http://www.w3.org/2000/svg">
  <path transform="scale(1, -1) translate(0, -256)" fill="currentColor" d="M107 60q0 -8 6 -14t15 -6t15 6t6 14.5t-6 14.5t-15 6t-15 -6t-6 -15zM135 60q0 -2 -2 -4t-5 -2t-5 2t-2 4.5t2 4.5t5 2t5 -2t2 -5zM224 243v1q0 3 -2.5 5t-5.5 2h-176q-3 0 -5.5 -2t-2.5 -5v-44q0 -3 2 -5l82 -81q-19 -4 -31 -19t-12 -35q0 -15 7.5 -27.5t20 -20 t27.5 -7.5t27.5 7.5t20 20t7.5 27.5q0 20 -12 35t-31 19l82 81q2 2 2 5v43zM127 162l-46 46h91zM186 222h-118l-15 15h148zM46 223l71 -71l-10 -10l-61 61v20zM169 60q0 -17 -12 -29t-29 -12t-29 12t-12 29.5t12 29.5t29 12t29 -12.5t12 -29.5zM128 121l-11 11l93 94v-23z " />
</svg>