<svg viewBox="0 0 1024 1024" xmlns="http://www.w3.org/2000/svg">
  <path transform="scale(1, -1) translate(0, -960)" fill="currentColor" d="M440 178q0 -30 21 -51t51 -21t51 21t21 51t-21 51t-51 21q-30 -2 -51 -23t-21 -49zM552 178q0 -17 -11.5 -28.5t-28.5 -11.5t-28.5 11.5t-11.5 28.5q0 16 11.5 28t28.5 12t28.5 -12.5t11.5 -27.5zM866 928h-708q-7 0 -11.5 -4.5t-4.5 -11.5v-14v0v0v-162q0 -4 1.5 -6.5 t3.5 -4.5l339 -341q-78 -10 -131 -69t-53 -139q0 -43 17 -80q16 -38 44.5 -66.5t67.5 -44.5q38 -17 81 -17t81 17q38 16 67 44.5t45 66.5q17 38 17 82q0 80 -53 139t-131 69l340 340q3 3 4 5.5t1 6.5v174q-1 7 -5.5 11.5t-11.5 4.5zM507 566l-211 213h421l-210 -213v0z M749 811h-485l-82 85h650zM174 859l311 -315l-55 -56l-256 254v117v0zM690 178q0 -74 -52.5 -126t-125.5 -52t-125.5 52t-52.5 126q0 73 52.5 125t125.5 52t125.5 -52t52.5 -125zM512 405l-61 61l315 320v0v0l84 84v-128z" />
</svg>