<svg viewBox="0 0 1024 1024" xmlns="http://www.w3.org/2000/svg">
  <path transform="scale(1, -1) translate(0, -960)" fill="currentColor" d="M909 82l-127 313q32 42 49 92t17 107q-1 69 -27 129q-27 61 -72.5 106.5t-106.5 72.5q-61 26 -130 26t-130 -26q-61 -27 -106.5 -72.5t-71.5 -106.5q-26 -60 -26 -129q0 -56 17 -106.5t48 -92.5l-128 -313q-1 -4 -1 -8.5t3 -7.5q2 -4 5.5 -5.5t8.5 -1.5l130 10l86 -96 q3 -3 6 -4t5 -1h2h2q3 1 6.5 3.5t5.5 6.5l114 281q6 0 12 -0.5t12 -0.5h12t12 1l114 -281q1 -4 4.5 -7t7.5 -3h2h2q3 0 6.5 1t4.5 4l86 96l130 -10q3 0 7.5 1.5t6.5 5.5l2 8t0 8v0zM354 14l-74 82q-2 2 -5.5 4t-7.5 1l-112 -8l111 275q37 -40 85 -67t103 -37zM210 594 q0 62 23 117q24 55 65 96t97 65q55 24 117 24t117 -24t96.5 -65t65.5 -96q23 -55 23 -117q0 -63 -23 -118q-24 -55 -65 -96t-97 -65q-55 -24 -117 -24t-117 24t-96.5 65t-65.5 96q-23 55 -23 118v0zM757 102q-4 0 -7.5 -1t-5.5 -3l-74 -84l-100 250q55 10 103.5 36.5 t84.5 67.5l111 -274l-112 8v0zM518 701q-3 2 -8.5 1.5t-8.5 -3.5l-91 -73q-5 -4 -6 -11t4 -12q4 -5 11 -5.5t11 4.5l64 52v-222q0 -7 4.5 -11.5t11.5 -4.5q8 0 12 4.5t4 11.5v254q2 5 -0.5 8.5t-7.5 6.5v0z" />
</svg>