<svg viewBox="0 0 1024 1024" xmlns="http://www.w3.org/2000/svg">
  <path transform="scale(1, -1) translate(0, -960)" fill="currentColor" d="M682 373l220 433q10 20 9.5 41.5t-12.5 40.5t-30.5 29.5t-41.5 10.5h-113q-24 0 -44.5 -12.5t-31.5 -33.5l-128 -250l-126 250q-11 21 -30.5 33.5t-43.5 12.5h-113q-22 0 -41 -10.5t-31 -29.5t-12.5 -40.5t9.5 -41.5l220 -433q2 -3 4 -4t3 -3q-33 -31 -51 -73.5 t-18 -90.5q0 -49 18 -92q18 -42 49.5 -73.5t74.5 -50.5q42 -18 90 -18t90 18t73.5 49.5t50.5 74.5q18 42 18 90t-19 91t-50 74q3 2 4 3.5zM371 387l-221 434q-6 12 -5.5 25.5t7.5 25.5t18.5 18t26.5 6h113q15 0 27.5 -8t19.5 -21l227 -446q-17 6 -35 8.5t-37 2.5 q-40 0 -76 -12.5t-65 -35.5v1.5v1.5v0zM712 200q0 -41 -16 -78q-15 -36 -42.5 -63.5t-63.5 -42.5q-37 -16 -78 -16t-78 16q-36 15 -63.5 42.5t-42.5 63.5q-16 37 -16 78t16 78q15 36 42.5 63.5t63.5 42.5q37 16 78 16t78 -16q36 -15 63.5 -42.5t42.5 -63.5q16 -37 16 -78z M630 400l-100 197l137 270q7 13 19.5 21t27.5 8h113q13 0 25.5 -6.5t19.5 -17.5q7 -12 7.5 -25t-5.5 -26l-221 -434v-0.5v-0.5q-6 3 -11.5 6.5t-11.5 7.5v0zM512 278q-32 0 -55 -23t-23 -55t23 -55t55 -23t55 23t23 55t-23 55t-55 23zM512 154q-19 0 -32.5 13.5t-13.5 32.5 t13.5 32.5t32.5 13.5t32.5 -13.5t13.5 -32.5t-13.5 -32.5t-32.5 -13.5z" />
</svg>