<svg viewBox="0 0 1024 1024" xmlns="http://www.w3.org/2000/svg">
  <path transform="scale(1, -1) translate(0, -960)" fill="currentColor" d="M675 928h-326q-31 0 -53 -22t-22 -53v-298q0 -20 11 -38t29 -29l88 -46q1 -2 2.5 -3t3.5 -2q0 -1 -1 -2.5t-1 -2.5v-80q0 -36 22.5 -64t56.5 -37l-31 -61l-96 -14q-4 -1 -7.5 -3.5t-4.5 -7.5q-2 -5 -0.5 -9.5t4.5 -6.5l69 -67l-16 -96q-1 -5 1 -9.5t6 -6.5q3 -3 7.5 -3.5 t9.5 1.5l85 45l85 -45q1 -1 3 -1.5t5 -0.5q2 0 4.5 1t4.5 3q4 2 6 6.5t1 9.5l-16 96l69 67q3 3 4.5 7.5t-0.5 8.5q-1 5 -4.5 7.5t-7.5 3.5l-96 14l-31 61q34 10 56.5 37.5t22.5 63.5v80q0 1 -0.5 2.5t-1.5 2.5q2 1 3.5 1.5t2.5 3.5l88 46q18 10 29 28t11 39v298q0 31 -22 53 t-53 22v0zM533 430q-10 -4 -21 -4t-19 4l-63 34v432h167v-434zM306 555v298q0 18 12.5 30.5t30.5 12.5h48v-416l-69 37q-11 6 -16.5 16t-5.5 22zM557 160l72 -11l-53 -50q-2 -2 -3.5 -6.5t-1.5 -7.5l13 -72l-64 33q-1 2 -3.5 2h-4.5h-4t-4 -2l-64 -33l13 72q1 3 -1 7.5 t-4 6.5l-53 51l72 12q4 0 7.5 2.5t5.5 5.5l32 65l32 -65q2 -4 5 -6.5t8 -3.5zM525 280q-5 5 -12 5t-12 -5q-27 5 -44 24.5t-17 47.5v69l37 -21q8 -5 17.5 -7.5t17.5 -2.5t17.5 2.5t17.5 7.5l37 21v-69q1 -26 -16.5 -46.5t-42.5 -25.5v0zM718 555q0 -12 -5.5 -22t-16.5 -16 l-69 -37v416h48q18 0 30.5 -12.5t12.5 -30.5v-298v0z" />
</svg>