<svg viewBox="0 0 256 256" xmlns="http://www.w3.org/2000/svg">
  <path transform="scale(1, -1) translate(0, -256)" fill="currentColor" d="M186 251h-116q-3 0 -5 -2t-2 -5v-72q0 -3 2 -5t5 -2h28v-20q0 -3 2 -5t5 -2h16v-16q-22 -3 -37 -19.5t-15 -39.5q0 -16 8 -29.5t21.5 -21.5t29.5 -8t29.5 8t21.5 21.5t8 29.5q0 23 -15 39.5t-37 19.5v16h16q3 0 5 2t2 5v20h28q3 0 5 2t2 5v72q0 3 -2 5t-5 2zM173 64 q0 -18 -13 -31.5t-32 -13.5t-32 13.5t-13 32t13 32t32 13.5t32 -13.5t13 -32.5zM115 180v57h26v-57h-26zM77 237h24v-57h-24v57zM112 153v13h32v-13h-32zM179 180h-24v57h24v-57zM101 64q0 -11 8 -19t19 -8t19 8t8 19.5t-8 19.5t-19 7.5t-19 -8.5t-8 -19zM141 64q0 -5 -4 -9 t-9 -4t-9 4t-4 9.5t4 9.5t9 3.5t9 -4t4 -9.5z" />
</svg>