<svg viewBox="0 0 256 256" xmlns="http://www.w3.org/2000/svg">
  <path transform="scale(1, -1) translate(0, -256)" fill="currentColor" d="M237 239q-3 6 -8.5 9t-12.5 3h-27q-6 0 -11.5 -3t-8.5 -8l-43 -65l-38 64q-4 6 -9.5 9t-11.5 3h-27q-7 0 -12.5 -3t-9 -9t-3 -12.5t3.5 -11.5l67 -111q-13 -17 -13 -38q0 -17 8 -31t22 -22t31 -8t31 8t22 22t8 31q0 13 -5 24.5t-14 20.5l61 104q3 6 3 12t-3 12zM31 232 q3 5 9 5l29 -53q2 -3 6 -3l4 1q2 1 3 4t0 5l-26 46h11q5 0 8 -5l63 -105h-4q-21 0 -38 -13l-65 108q-3 6 0 10zM181 66q0 -19 -14 -33t-33.5 -14t-33.5 13.5t-14 33.5t14 33.5t33.5 13.5t33.5 -14t14 -33zM225 222l-61 -103l-7 3l-23 39l46 71q4 5 9 5h11l-29 -45 q-1 -2 -0.5 -5t2.5 -4t5 -1t5 3l34 52q5 -1 8 -5t0 -10zM138 92q-4 2 -8 -2l-14 -12q-2 -1 -2 -4t1.5 -5.5t4.5 -2.5t6 2l2 2v-25q0 -3 2 -5t5 -2t5 2t2 5v40q0 5 -4 7z" />
</svg>