<svg viewBox="0 0 256 256" xmlns="http://www.w3.org/2000/svg">
  <path transform="scale(1, -1) translate(0, -256)" fill="currentColor" d="M230 38l-32 76q16 23 16 50q1 24 -11 43.5t-32 31.5t-43 12t-43 -12t-32 -31.5t-12 -43.5q0 -28 16 -50l-31 -76q-1 -4 1 -7t6 -3l31 2l21 -22q2 -3 5 -3h1q4 1 5 5l28 68h8l28 -69q1 -4 5 -4h1q3 0 5 2l21 23l30 -2q5 0 7 3.5t1 6.5zM88 25l-16 17q-2 3 -6 3l-23 -2 l24 60q18 -18 42 -23zM55 164q0 20 10 37t26.5 26.5t36.5 9.5t36.5 -9.5t26.5 -26.5t10 -36.5t-10 -36.5t-26.5 -26.5t-36.5 -9.5t-36.5 9.5t-26.5 26.5t-10 36zM190 44q-4 0 -6 -2l-15 -17l-22 55q25 5 42 22l24 -59zM131 194q-3 2 -7 -1l-23 -18q-3 -2 -3 -5t1.5 -5.5 t4.5 -2.5t6 2l11 9v-49q0 -3 2 -5t5 -2t5 2t2 5v64q0 4 -4 6z" />
</svg>