<svg viewBox="0 0 256 256" xmlns="http://www.w3.org/2000/svg">
  <path transform="scale(1, -1) translate(0, -256)" fill="currentColor" d="M135 139h16q3 0 5 2t2 5v20h13q9 0 15.5 6.5t6.5 15.5v40q0 10 -6.5 16.5t-15.5 6.5h-85q-10 0 -16.5 -6.5t-6.5 -16.5v-40q0 -9 6.5 -15.5t16.5 -6.5h12v-20q0 -3 2 -5.5t5 -2.5h16v-17l-9 2q-3 1 -6 -2l-12 -11l-14 -8q-3 -1 -4 -5l-2 -16l-8 -14q-1 -4 0 -6l8 -15 l2 -16q1 -3 4 -5l14 -7l12 -12q3 -2 6 -2l16 3l17 -3q3 0 5 2l12 12l14 7q3 2 4 5l2 16l8 15q1 3 0 6l-8 14l-2 16q-1 4 -4 5l-14 8l-12 11q-3 3 -6 2l-9 -1v17zM115 180v57h26v-57h-26zM179 228v-40q0 -4 -2.5 -6t-6.5 -2h-15v57h15q4 0 6.5 -2.5t2.5 -6.5zM77 188v40 q0 4 2.5 6.5t6.5 2.5h15v-57h-15q-4 0 -6.5 2.5t-2.5 5.5zM112 166h32v-13h-32v13zM152 99h1l13 -7l3 -15l6 -13l-7 -13l-2 -15l-13 -7l-11 -10l-13 2l-16 -2l-11 10l-12 7l-3 15l-6 13l6 13l3 15l13 7l10 10l14 -2l15 2zM101 64q0 -11 8 -19t19 -8t19 8t8 19t-8 19t-19 8 t-19 -8t-8 -19zM141 64q0 -5 -4 -9t-9 -4t-9 4t-4 9t4 9t9 4t9 -4t4 -9z" />
</svg>