<svg viewBox="0 0 1024 1024" xmlns="http://www.w3.org/2000/svg">
  <path transform="scale(1, -1) translate(0, -960)" fill="currentColor" d="M819 496q0 61 -22.5 115t-60.5 95v139q0 35 -24 59t-59 24h-282q-35 0 -59 -24t-24 -59v-139q-38 -41 -60.5 -95t-22.5 -115t22.5 -115t60.5 -95v-288q0 -8 4 -15t10 -10q4 -3 8 -4t8 -1t7.5 1t5.5 2l168 87q6 2 12 2t12 -2l168 -87q7 -3 15 -3t14 3q7 4 10.5 11.5 t3.5 14.5v288q40 42 62.5 96t22.5 115v0zM371 896h280q23 0 38 -15t15 -36v-109q-40 31 -89 49t-103 18t-103 -18t-89 -49v109q0 21 15 36t36 15zM512 771q57 0 107 -21q50 -22 87.5 -59.5t59.5 -87.5q21 -50 21 -107t-21 -107q-22 -50 -59.5 -87.5t-87.5 -59.5 q-50 -21 -107 -21t-107 21q-50 22 -87.5 59.5t-59.5 87.5q-21 50 -21 107t21 107q22 50 59.5 87.5t87.5 59.5q50 21 107 21v0zM538 86q-12 6 -26 6t-27 -6l-165 -84v254q40 -31 89 -49t103 -18t103 18t89 49v-256zM384 480l11 -8q6 -5 9 -12.5t1 -14.5l-5 -15 q-6 -18 -0.5 -34.5t21.5 -27.5q15 -11 33 -11t32 11l12 8q6 5 14 5t14 -5l12 -8q7 -6 15.5 -8.5t17.5 -2.5t17 2.5t17 8.5q15 11 21 28.5t0 33.5l-5 13q-3 7 -0.5 15t9.5 12l10 10q16 11 21.5 28.5t-0.5 33.5q-6 18 -20.5 28.5t-32.5 10.5h-14q-9 0 -14.5 4.5t-8.5 11.5 l-5 13q-6 18 -20 28t-32 10v0v0q-20 0 -34 -11t-19 -27l-5 -13q-2 -7 -8.5 -12.5t-13.5 -5.5h-15q-19 0 -33.5 -10.5t-19.5 -27.5q-8 -17 -3 -33.5t21 -27.5v0zM394 533q2 6 7 11t15 5h14q18 0 33 10.5t20 27.5l5 13q4 10 10 13t12 3t13 -4t10 -12l5 -13q6 -18 20 -28 t32 -10h15q9 0 15 -5t7 -11q3 -6 1 -13.5t-10 -13.5l-12 -8q-14 -11 -20 -28.5t0 -34.5l4 -13q4 -9 0.5 -16t-9.5 -11q-5 -3 -13 -4.5t-16 4.5l-11 8q-7 6 -15.5 8.5t-18.5 2.5q-8 0 -16.5 -2.5t-16.5 -8.5l-12 -8q-8 -6 -16 -4.5t-12 4.5q-5 4 -8.5 11t-1.5 16l5 13 q6 18 0.5 35t-21.5 28l-11 8q-4 6 -4.5 13.5t1.5 13.5v0z" />
</svg>