<svg viewBox="0 0 1024 1024" xmlns="http://www.w3.org/2000/svg">
  <path transform="scale(1, -1) translate(0, -960)" fill="currentColor" d="M518 333q-4 2 -9 1t-8 -4l-63 -63q-4 -5 -4 -11t4 -11q5 -5 11.5 -5t11.5 5l35 35v-149q0 -7 4.5 -11.5t11.5 -4.5t11.5 4.5t4.5 11.5v187q0 5 -2.5 9.5t-7.5 5.5v0zM528 480l195 426q3 6 0.5 12t-8.5 8q-6 3 -12 0.5t-9 -8.5l-182 -395l-181 395q-2 6 -8.5 8.5 t-12.5 -0.5q-6 -2 -8 -8t0 -12l194 -426q-50 -3 -94 -24t-76.5 -55.5t-50.5 -79.5q-19 -45 -19 -97q0 -53 20 -99q20 -47 55 -82t82 -55q46 -20 99 -20t99 20q47 20 82 55t55 82q20 46 20 99q0 52 -19 97q-18 45 -50.5 79.5t-76.5 55.5t-94 24v0zM512 0q-46 0 -87 18 q-41 17 -71.5 47.5t-47.5 71.5q-18 41 -18 87t18 87q17 41 47.5 71.5t71.5 47.5q41 18 87 18t87 -18q41 -17 71.5 -47.5t47.5 -71.5q18 -41 18 -87t-18 -87q-17 -41 -47.5 -71.5t-71.5 -47.5q-41 -18 -87 -18z" />
</svg>