<svg viewBox="0 0 1024 1024" xmlns="http://www.w3.org/2000/svg">
  <path transform="scale(1, -1) translate(0, -960)" fill="currentColor" d="M742 928h-460q-8 0 -12 -4.5t-4 -11.5v-285q0 -7 4 -11.5t12 -4.5h123v-91q0 -7 4.5 -11.5t11.5 -4.5h75v-86q-44 -3 -82 -22t-66.5 -49t-44.5 -70q-17 -39 -17 -83q0 -47 18 -88t49 -72t72 -48q41 -18 87 -18t87 18q41 17 72 48t49 72t18 88q0 44 -17 83 q-16 40 -44.5 70t-66.5 49t-82 22v86h77q7 0 11.5 4.5t4.5 11.5v91h123q7 0 11.5 4.5t4.5 11.5v285q-1 7 -5.5 11.5t-12.5 4.5zM706 194q0 -41 -16 -76q-15 -35 -41.5 -61.5t-61.5 -41.5t-75 -15t-75 15t-61.5 41.5t-41.5 61.5q-16 35 -16 76q0 80 57.5 136t136.5 56 q40 0 75 -16q35 -15 61.5 -41t41.5 -61q16 -35 16 -74zM448 643v253h128v-253h-128zM298 896h118v-253h-118v253zM435 536v75h154v-75h-154v0zM726 643h-118v253h118v-253zM416 194q0 -40 28 -68t68 -28t68 28t28 68q0 39 -28 67.5t-68 28.5t-68 -28.5t-28 -67.5zM576 194 q0 -27 -19 -45.5t-45 -18.5t-45 18.5t-19 45.5q0 26 19 45t45 19t45 -19t19 -45z" />
</svg>