<svg viewBox="0 0 256 256" xmlns="http://www.w3.org/2000/svg">
  <path transform="scale(1, -1) translate(0, -256)" fill="currentColor" d="M63 251q-16 0 -29 -8t-21 -21t-8 -29v-130q0 -16 8 -29t21 -21t29 -8t29.5 8t21 21t7.5 29v130q0 16 -7.5 29t-21 21t-29.5 8zM107 63q0 -18 -13 -31t-31 -13t-31 13t-13 31v58h89v-58h-1zM107 135h-88v58q0 18 13 31t31.5 13t31 -13t12.5 -31v-58zM44 190q-3 0 -5 -2.5 t-2 -5.5v-16q0 -3 2 -5t5 -2t5.5 2t2.5 5v16q-1 3 -3 5.5t-5 2.5zM44 66q3 0 5.5 2.5t2.5 5.5v16q0 3 -2.5 5t-5.5 2t-5 -2t-2 -5v-16q0 -3 2 -5.5t5 -2.5zM236 165q-10 10 -23.5 13.5t-27 0t-23.5 -13.5t-13.5 -23.5t0 -27t13.5 -23.5q7 -7 17 -11t20 -4t19.5 4t17.5 11 q15 15 15 37t-15 37zM172 101q-10 10 -11 23.5t7 24.5l53 -53q-12 -7 -25.5 -6t-23.5 11zM230 106l-53 54q10 6 22 6q16 0 26.5 -10.5t11.5 -24t-7 -25.5z" />
</svg>