<svg viewBox="0 0 1024 1024" xmlns="http://www.w3.org/2000/svg">
  <path transform="scale(1, -1) translate(0, -960)" fill="currentColor" d="M858 786l-312 136q-16 7 -33.5 7t-34.5 -7l-312 -136q-24 -11 -38 -33.5t-11 -48.5l14 -216q5 -82 33 -158t76.5 -142.5t115.5 -122.5q67 -55 150 -95q1 -2 3 -2h3h3t3 2q83 40 150 95q67 56 115.5 122.5t77.5 142.5q28 75 33 156l15 216q1 27 -13 50t-38 34v0zM862 488 q-4 -76 -31 -147q-26 -71 -71 -134t-108 -115t-140 -90q-77 38 -140 90q-62 52 -107 115t-72 134q-26 71 -31 147l-13 218q-1 16 7.5 30t22.5 21l312 136q5 1 10.5 2t10.5 1t10.5 -1t10.5 -4l312 -136q14 -6 22.5 -20t7.5 -31zM589 621q-18 0 -34 -6t-30 -17 q-4 -2 -6.5 -4.5l-6.5 -6.5q-2 4 -5.5 6.5t-7.5 4.5q-14 11 -30.5 17t-33.5 6q-24 0 -45 -9.5t-36 -25.5q-16 -17 -24 -39t-8 -46q0 -25 9.5 -48.5t28.5 -46.5q17 -19 39.5 -39.5t48.5 -43.5l2 -1q8 -8 17.5 -16t20.5 -16q5 -5 11 -7.5t13 -2.5t13 2.5t11 7.5 q11 9 20.5 17.5t19.5 15.5q26 23 49 43t39 40q19 24 28.5 47t9.5 48q0 24 -8 46t-24 39q-15 16 -36 25.5t-45 9.5v0zM640 427q-16 -18 -37 -37.5t-48 -40.5q-9 -7 -19 -16t-21 -18q-1 -1 -3 -1t-3 1q-10 9 -19.5 17t-19.5 15l-1 2q-27 21 -48 40.5t-37 37.5q-16 19 -23 37 t-7 37q0 18 6 34t18 28q10 12 25 19t32 7q12 0 23.5 -4t21.5 -12q4 -4 8 -7.5t6 -7.5q6 -7 17 -7t17 7q4 5 7.5 8.5l6.5 6.5q10 7 21.5 11.5t23.5 4.5q17 0 32 -7t26 -19t17.5 -28t6.5 -34q1 -19 -6 -37t-23 -37v0z" />
</svg>