<svg viewBox="0 0 256 256" xmlns="http://www.w3.org/2000/svg">
  <path transform="scale(1, -1) translate(0, -256)" fill="currentColor" d="M154 5h-52q-7 0 -12.5 5.5t-5.5 13.5v60h-60q-8 0 -13.5 5.5t-5.5 12.5v52q0 7 5.5 12.5t13.5 5.5h60v60q0 8 5.5 13.5t12.5 5.5h52q7 0 12.5 -5.5t5.5 -13.5v-60h60q8 0 13.5 -5.5t5.5 -12.5v-52q0 -7 -5.5 -12.5t-13.5 -5.5h-60v-60q0 -8 -5.5 -13.5t-12.5 -5.5z M24 158q-3 0 -4 -1t-1 -3v-52q0 -2 1.5 -3t3.5 -1h66q3 0 5.5 -2.5t2.5 -5.5v-66q0 -3 1 -4t3 -1h52q2 0 3 1.5t1 3.5v67q0 3 2.5 5t5.5 2h66q3 0 4 1.5t1 3.5v51q0 2 -1 3t-4 1h-67q-3 0 -5 2.5t-2 5.5v66q0 3 -1.5 4t-3.5 1h-51q-2 0 -3 -1.5t-1 -3.5v-66q0 -3 -2.5 -5.5 t-5.5 -2.5h-66z" />
</svg>