<svg viewBox="0 0 1024 1024" xmlns="http://www.w3.org/2000/svg">
  <path transform="scale(1, -1) translate(0, -960)" fill="currentColor" d="M864 638h-174q-5 70 -56 118.5t-122 48.5t-121 -49t-55 -118h-176q-53 0 -90.5 -37.5t-37.5 -90.5v-305q0 -53 37.5 -90.5t90.5 -37.5h704q53 0 90.5 37.5t37.5 90.5v305q0 53 -37.5 90.5t-90.5 37.5zM514 773q57 0 98.5 -39t46.5 -96h-291q5 56 46.5 95.5t99.5 39.5z M960 203q0 -39 -28 -67.5t-68 -28.5h-704q-40 0 -68 28.5t-28 67.5v307q0 40 28 68t68 28h704q40 0 68 -28t28 -68v-307zM598 368h-70v70q0 8 -4.5 12t-11.5 4t-11.5 -4t-4.5 -12v-70h-70q-8 0 -12 -4.5t-4 -11.5t4 -11.5t12 -4.5h70v-70q0 -8 4.5 -12t11.5 -4t11.5 4 t4.5 12v70h70q8 0 12 4.5t4 11.5t-4 11.5t-12 4.5z" />
</svg>