<svg viewBox="0 0 256 256" xmlns="http://www.w3.org/2000/svg">
  <path transform="scale(1, -1) translate(0, -256)" fill="currentColor" d="M192 185h-16q-1 19 -14.5 32t-33 13t-33 -13t-14.5 -32h-17q-16 0 -29.5 -8t-21.5 -21.5t-8 -29.5v-65q0 -15 10 -25t25 -10h176q14 0 24.5 10t10.5 25v65q0 16 -8 29.5t-21.5 21.5t-29.5 8zM128 216q14 0 23.5 -9t10.5 -22h-67q1 13 10.5 22t22.5 9zM64 171h128 q19 0 32 -13.5t13 -31.5v-11v0q-2 -7 -7.5 -11.5t-11.5 -4.5h-180q-7 0 -12 4.5t-7 11.5v0v11q0 18 13 31.5t32 13.5zM216 40h-176q-9 0 -15 6t-6 15v31q9 -6 19 -6h180q10 0 19 6v-31q0 -9 -6 -15t-15 -6zM113 127h8v-8q0 -3 2 -5t5 -2t5 2t2 5v8h8q3 0 5 2t2 5t-2 5t-5 2 h-8v8q0 3 -2 5t-5 2t-5 -2t-2 -5v-8h-8q-3 0 -5 -2t-2 -5t2 -5t5 -2z" />
</svg>