<svg viewBox="0 0 1024 1024" xmlns="http://www.w3.org/2000/svg">
  <path transform="scale(1, -1) translate(0, -960)" fill="currentColor" d="M374 338h-259q-35 0 -59 -24.5t-24 -59.5v-40q0 -34 24 -58.5t59 -24.5h259q35 0 59.5 24.5t24.5 58.5v40q0 35 -24.5 59.5t-59.5 24.5zM229 165h-114q-21 0 -36 14.5t-15 36.5v40q0 22 15 36.5t36 14.5h114v-142v0zM426 216q0 -22 -15 -36.5t-37 -14.5h-113v141h113 q22 0 37 -15t15 -37v-38v0zM982 510l-51 106q-1 2 -2.5 3.5t-3.5 2.5v72q0 27 -19 45.5t-45 18.5h-162q-26 0 -45 -18.5t-19 -45.5v-73q-1 -1 -2 -2.5t-1 -2.5l-51 -106q-5 -9 -7.5 -20.5t-2.5 -22.5v-270q0 -33 23 -56t56 -23h265q33 0 56 23t23 56v270q-2 11 -4.5 22.5 t-7.5 20.5v0zM602 437h358v-143h-358v143zM667 694q0 14 9.5 23t22.5 9h162q13 0 22.5 -9t9.5 -23v-68h-226v68zM656 592h251l47 -96q3 -6 4.5 -14t1.5 -15h-358q0 7 2 14.5t4 14.5zM914 149h-266q-19 0 -32.5 13.5t-13.5 32.5v66h358v-66q0 -19 -13.5 -32.5t-32.5 -13.5z M248 528q24 0 47 9.5t41 27.5q36 36 36 88t-36 89q-36 38 -88 37t-90 -37q-37 -36 -36.5 -88t36.5 -89q20 -18 43 -27.5t47 -9.5zM314 587q-24 -24 -58.5 -26.5t-61.5 17.5v0v0l129 129v0v0q19 -27 17 -61.5t-26 -58.5v0zM182 720q14 13 31 20t35 7q14 0 27.5 -4.5 t25.5 -12.5v0v0l-130 -130v0v0q-19 28 -16.5 61.5t27.5 58.5z" />
</svg>