<svg viewBox="0 0 1024 1024" xmlns="http://www.w3.org/2000/svg">
  <path transform="scale(1, -1) translate(0, -960)" fill="currentColor" d="M992 286v143q0 26 -19 45t-45 19h-51v336q0 35 -24.5 59t-58.5 24h-679q-35 0 -59 -24t-24 -59v-479q0 -34 24 -58.5t59 -24.5h194q2 -8 7 -15.5t12 -13.5q-10 -8 -16 -20.5t-6 -27.5v-142q0 -26 18.5 -45t45.5 -19h558q26 0 45 19t19 45v142q0 15 -6 27.5t-16 20.5 q10 9 16 21.5t6 26.5zM845 829v-141h-203l118 192h34q21 0 36 -15t15 -36zM498 880l-119 -192h-185l118 192h186zM536 880h186l-119 -192h-185zM115 880h159l-117 -192h-93v141q0 21 15 36t36 15v0zM64 350v306h781v-162h-475q-27 0 -45.5 -18.5t-18.5 -45.5v-129h-191 q-21 -1 -36 13.5t-15 35.5v0zM960 190v-142q0 -13 -9.5 -22.5t-22.5 -9.5h-558q-14 0 -23 9.5t-9 22.5v142q0 14 9 23t23 9h558q13 0 22.5 -9t9.5 -23zM370 254q-14 0 -23 9.5t-9 22.5v143q0 13 9 22.5t23 9.5h491v0v0v0v0h67q13 0 22.5 -9.5t9.5 -22.5v-143 q0 -13 -9.5 -22.5t-22.5 -9.5h-558zM462 392q-13 0 -22.5 -9.5t-9.5 -22.5v-2q0 -13 9.5 -22.5t22.5 -9.5q14 0 23 9.5t9 22.5v2q0 14 -9 23t-23 9zM861 376h-77q-7 0 -11.5 -4.5t-4.5 -11.5t4.5 -11.5t11.5 -4.5h77q7 0 11.5 4.5t4.5 11.5t-5 11.5t-11 4.5zM462 88 q14 0 23 9.5t9 22.5v2q0 13 -9 22.5t-23 9.5q-13 0 -22.5 -9.5t-9.5 -22.5v-2q0 -13 9.5 -22.5t22.5 -9.5zM784 104h77q7 0 11.5 4.5t4.5 11.5t-4.5 11.5t-11.5 4.5h-77q-7 0 -11.5 -4.5t-4.5 -11.5t5 -11.5t11 -4.5z" />
</svg>