<svg viewBox="0 0 1024 1024" xmlns="http://www.w3.org/2000/svg">
  <path transform="scale(1, -1) translate(0, -960)" fill="currentColor" d="M603 445h-77v77q0 7 -4 11.5t-12 4.5q-7 0 -11.5 -4.5t-4.5 -11.5v-77h-76q-8 0 -12 -4.5t-4 -11.5t4 -11.5t12 -4.5h76v-77q0 -7 4.5 -11.5t11.5 -4.5q8 0 12 4.5t4 11.5v77h77q7 0 11.5 4.5t4.5 11.5q0 6 -4.5 11t-11.5 5zM992 478q0 48 -34.5 82.5t-82.5 34.5h-59 l-13 51q-5 17 -14.5 30t-25.5 22q-15 8 -32.5 9.5t-34.5 -3.5q-56 -18 -112 -23q-55 -4 -104.5 -1t-90.5 12q-41 8 -69 17q-17 5 -33.5 2.5t-30.5 -10.5q-14 -9 -24.5 -22.5t-13.5 -28.5l-13 -55h-56q-48 0 -82.5 -34.5t-34.5 -82.5q0 -46 32.5 -80t79.5 -36l-6 -26 q-9 -31 6.5 -59.5t45.5 -39.5q42 -15 83 -25t81 -16t78 -9t74 -3q51 0 98 5t88 12.5t76 16.5q34 10 61 19q31 11 47 39.5t7 59.5l-6 26q48 1 81.5 34.5t33.5 81.5v0zM149 394q-35 0 -60 25t-25 59q0 35 25 60t60 25h46l-43 -169h-3zM819 267q-44 -15 -109 -29 q-66 -15 -146 -20t-173 5q-92 10 -191 44q-18 6 -27.5 24t-4.5 37l80 312q2 11 8 19t16 13q6 4 12 5t14 1h6.5t7.5 -1q30 -9 73 -17q43 -9 95 -12.5t110 1.5t117 25q11 3 21.5 2t20.5 -6q9 -4 15 -12.5t9 -19.5l80 -310q5 -19 -5 -37t-29 -24zM875 394h-6l-45 169h50 q34 0 59 -25t25 -60q2 -36 -23 -60t-60 -24z" />
</svg>