<svg viewBox="0 0 256 256" xmlns="http://www.w3.org/2000/svg">
  <path transform="scale(1, -1) translate(0, -256)" fill="currentColor" d="M143 5h-30q-8 0 -13.5 5.5t-5.5 13.5v36q0 3 -2.5 4t-5.5 0l-31 -18q-7 -3 -14.5 -1t-11.5 8l-15 27q-4 6 -2 14t9 12l31 18q2 1 2 4t-2 4l-31 18q-7 4 -9 12t2 14l15 26q4 7 11.5 9t14.5 -2l31 -17q3 -2 5.5 -0.5t2.5 4.5v36q0 8 5.5 13.5t13.5 5.5h30q8 0 13.5 -5.5 t5.5 -13.5v-36q0 -3 2.5 -4t5.5 0l31 18q7 3 14.5 1.5t11.5 -8.5l15 -27q4 -7 2 -14.5t-9 -11.5l-31 -17q-2 -1 -2 -4.5t2 -4.5l31 -18q7 -3 9 -11t-2 -15l-15 -26q-4 -7 -12 -9t-14 2l-31 17q-3 1 -5.5 0t-2.5 -4v-36q0 -8 -5.5 -13.5t-13.5 -5.5zM88 79q5 0 10 -3 q10 -5 10 -16v-36q0 -2 1.5 -3.5t3.5 -1.5h30q2 0 3.5 1.5t1.5 3.5v36q0 5 3 9.5t7.5 7t9.5 2.5t9 -3l31 -18q2 -1 4 0t3 2l15 27q1 1 0.5 3.5t-2.5 3.5l-30 18q-5 2 -7.5 6.5t-2.5 9.5t2.5 9.5t7.5 6.5l30 18q2 1 2.5 3t-0.5 4l-15 27q-1 2 -2.5 2h-4.5l-31 -18 q-4 -3 -9 -3t-10 3q-10 6 -10 16v36q0 2 -1.5 3.5t-3.5 1.5h-30q-2 0 -3.5 -1.5t-1.5 -3.5v-36q0 -5 -3 -9.5t-7 -7t-9.5 -2.5t-9.5 3l-31 18q-2 1 -4 0t-3 -2l-15 -27q-1 -1 -0.5 -3.5t2.5 -3.5l31 -18q9 -5 9 -16q0 -5 -2.5 -9.5t-6.5 -6.5l-31 -18q-2 -2 -2.5 -3.5 t0.5 -4.5l15 -26q1 -2 3 -2.5t4 0.5l31 18q4 3 9 3z" />
</svg>