<svg viewBox="0 0 256 256" xmlns="http://www.w3.org/2000/svg">
  <path transform="scale(1, -1) translate(0, -256)" fill="currentColor" d="M94 104h-65q-10 0 -17 -7t-7 -17v-10q0 -10 7 -17t17 -7h65q9 0 16 7t7 17v10q0 10 -7 17t-16 7zM54 60h-25q-4 0 -7 3t-3 7v10q0 4 3 6.5t7 2.5h25v-29zM103 70q0 -4 -3 -7t-6 -3h-26v30h26q4 0 6.5 -3t2.5 -7v-10zM248 145l-13 26l-1 2v16q0 8 -5.5 13.5t-13.5 5.5h-40 q-8 0 -13.5 -5.5t-5.5 -13.5v-17l-14 -27q-2 -5 -2 -13v-67q0 -9 6.5 -16t15.5 -7h66q10 0 16.5 7t6.5 16v68q0 6 -3 12zM153 122h84v-30h-84v30zM170 190q0 2 1.5 3.5t3.5 1.5h40q2 0 3.5 -1.5t1.5 -3.5v-14h-50v14zM166 161h58l11 -22q1 -2 1 -3h-82zM228 56h-66 q-4 0 -6 2.5t-2 6.5v13h83v-13q0 -4 -2.5 -6.5t-6.5 -2.5zM62 145q14 0 24 10t10 24.5t-10 24.5t-24 9.5t-24 -10t-10 -24t9.5 -24.5t24.5 -10zM76 165q-4 -5 -10.5 -6t-11.5 2l26 27q3 -6 2 -12t-6 -11zM48 194q6 6 14 6q4 0 8 -2l-26 -27q-3 6 -2 12t6 11z" />
</svg>