<svg viewBox="0 0 256 256" xmlns="http://www.w3.org/2000/svg">
  <path transform="scale(1, -1) translate(0, -256)" fill="currentColor" d="M223 76l-33 23q-6 4 -12.5 2.5t-10.5 -8.5l-9 -12h-1h-1q-29 18 -54 46q-16 18 -28 36q-1 2 0 3l14 9q5 3 6.5 9.5t-2.5 11.5l-22 34q-4 5 -10 6.5t-12 -2.5l-32 -18l-1 -1q-12 -12 -9.5 -35t19 -51t42.5 -55q39 -39 79 -55q18 -7 34.5 -7t27.5 10l1 1l19 31 q3 6 1.5 12.5t-6.5 9.5zM216 62l-19 -30q-6 -6 -18 -5.5t-28 6.5q-38 15 -74 51q-24 24 -39 50q-14 23 -17.5 42.5t3.5 27.5l31 19q2 1 3 -1l22 -33q1 -2 0 -2l-14 -9q-5 -4 -6.5 -10t2.5 -12q12 -19 29 -38q27 -29 57 -48q6 -4 12 -2.5t10 6.5l8 12q2 3 4 2l33 -22 q1 -2 1 -4zM244 198h-39v39q0 3 -2 5t-5 2t-5.5 -2t-2.5 -5v-39h-39q-3 0 -5 -2t-2 -5t2.5 -5t5.5 -2h39v-39q0 -3 2 -5t5 -2t5 2t2 5v39h39q3 0 5 2t2 5t-2 5t-5 2z" />
</svg>