<svg viewBox="0 0 1024 1024" xmlns="http://www.w3.org/2000/svg">
  <path transform="scale(1, -1) translate(0, -960)" fill="currentColor" d="M885 232l-133 90q-18 12 -39.5 6.5t-35.5 -26.5l-34 -48q-3 -6 -10.5 -7.5t-13.5 3.5q-68 42 -122 91q-55 48 -97 94t-70 85q-29 39 -44 62q-3 6 -2 13.5t7 12.5l55 37q16 12 20 32.5t-8 37.5l-89 133q-11 17 -31 21.5t-38 -5.5l-126 -75q-2 0 -2 -1t-2 -2 q-35 -36 -37 -96q-1 -60 27 -133.5t84 -155.5q55 -82 134 -161q38 -37 77 -70t78 -60.5t79 -48.5q39 -22 77 -37q37 -14 70.5 -21.5t62.5 -7.5q32 0 58 9.5t44 27.5l1.5 1.5l1.5 1.5l75 127q9 19 4.5 39t-21.5 31zM872 179l-74 -125q-27 -26 -79.5 -26t-120.5 26 q-36 15 -73 36q-38 20 -76 46.5t-76 58.5q-38 31 -74 67q-71 72 -123 148q-53 76 -81 144t-30 124q-3 55 26 85l125 74q7 3 14.5 2t11.5 -9l89 -132q5 -6 3 -14t-8 -12l-54 -38q-17 -12 -21 -32t7 -37q15 -24 45 -65q29 -40 72 -87.5t100 -97.5q56 -50 127 -94q16 -11 36 -7 t31 21l33 48q8 10 16 13t15 -2l133 -89q7 -4 9 -11.5t-3 -14.5v0zM976 715h-168v170q0 7 -4.5 11.5t-11.5 4.5t-11.5 -4.5t-4.5 -11.5v-168h-170q-7 0 -11.5 -4.5t-4.5 -11.5t4.5 -11.5t11.5 -4.5h168v-168q0 -7 4.5 -11.5t11.5 -4.5q8 0 12 4.5t4 11.5v166h170 q7 0 11.5 4.5t4.5 11.5t-4.5 11.5t-11.5 4.5v0z" />
</svg>