<svg viewBox="0 0 256 256" xmlns="http://www.w3.org/2000/svg">
  <path transform="scale(1, -1) translate(0, -256)" fill="currentColor" d="M197 170l-27 30v32q0 8 -5.5 13.5t-13.5 5.5h-46q-8 0 -13.5 -5.5t-5.5 -13.5v-32l-27 -30q-13 -14 -13 -34v-113q0 -8 5.5 -13t12.5 -5h128q8 0 13 5t5 13v113q0 20 -13 34zM100 232q0 2 1.5 3.5t3.5 1.5h46q2 0 3.5 -1.5t1.5 -3.5v-28h-56v28zM60 102h56q2 0 3.5 -1.5 t1.5 -4.5v-43q0 -2 -1.5 -3.5t-3.5 -1.5h-56v54zM196 23q0 -4 -4 -4h-128q-4 0 -4 4v11h56q8 0 13.5 5.5t5.5 13.5v44q0 8 -5.5 13.5t-13.5 5.5h-56v20q0 14 10 24l26 30h64l27 -30q9 -10 9 -24v-113z" />
</svg>