<svg viewBox="0 0 1024 1024" xmlns="http://www.w3.org/2000/svg">
  <path transform="scale(1, -1) translate(0, -960)" fill="currentColor" d="M768 662h-78q-5 70 -56 118.5t-122 48.5t-121 -48.5t-55 -118.5h-80q-46 0 -87 -17q-41 -18 -71.5 -48.5t-47.5 -71.5q-18 -40 -18 -87v-259q0 -53 37.5 -90.5t90.5 -37.5h704q53 0 90.5 37.5t37.5 90.5v259q0 47 -18 87q-17 41 -47.5 71.5t-71.5 48.5q-41 17 -87 17v0z M514 797q57 0 98.5 -39t46.5 -96h-291q5 57 46.5 96t99.5 39zM256 630h512q79 0 135.5 -56t56.5 -136v-44h-2q-6 -32 -30.5 -52t-57.5 -20h-716q-32 0 -57 20t-31 52h-2v44q0 80 56.5 136t135.5 56zM864 83h-704q-40 0 -68 28.5t-28 67.5v152q17 -18 40 -29t50 -11h716 q27 0 50 10.5t40 29.5v-152q0 -39 -28 -67.5t-68 -28.5zM451 454h45v-44q0 -8 4.5 -12t11.5 -4t11.5 4t4.5 12v44h45q7 0 11.5 4.5t4.5 11.5q0 8 -4.5 12t-11.5 4h-45v45q0 7 -4.5 11.5t-11.5 4.5t-11.5 -4.5t-4.5 -11.5v-45h-45q-7 0 -11.5 -4t-4.5 -12q0 -7 5 -11.5 t11 -4.5v0z" />
</svg>