<svg viewBox="0 0 256 256" xmlns="http://www.w3.org/2000/svg">
  <path transform="scale(1, -1) translate(0, -256)" fill="currentColor" d="M251 124q0 7 -5.5 13t-13.5 6h-10v80q0 10 -7 17t-17 7h-169q-10 0 -17 -7t-7 -17v-119q0 -10 7 -17t17 -7h46q1 -2 3 -4q-5 -5 -5 -12v-36q0 -8 5.5 -13.5t13.5 -5.5h140q8 0 13.5 5.5t5.5 13.5v36q0 7 -4 12q4 5 4 12v36zM237 124v-36q0 -2 -1.5 -3.5t-3.5 -1.5h-140 q-2 0 -3.5 1.5t-1.5 3.5v36q0 2 1.5 3.5t3.5 1.5h140q2 0 3.5 -2t1.5 -3zM208 223v-32h-42l26 42h6q5 0 7.5 -3t2.5 -7zM119 233l-25 -42h-40l26 42h39zM136 233h39l-25 -42h-40zM29 233h34l-25 -42h-19v32q0 4 3 7t7 3zM19 104v73h189v-35h-116q-8 0 -13.5 -5.5t-5.5 -13.5 v-29h-44q-4 0 -7 3t-3 7zM237 28q0 -2 -1.5 -3.5t-3.5 -1.5h-140q-2 0 -3.5 1.5t-1.5 3.5v36q0 2 1.5 3.5t3.5 1.5h140q2 0 3.5 -1.5t1.5 -3.5v-36zM116 113q-3 0 -5.5 -2t-2.5 -5v0q0 -3 2.5 -5.5t5.5 -2.5t5 2.5t2 5.5v0q0 3 -2 5t-5 2zM215 113h-19q-3 0 -5 -2t-2 -5 t2 -5.5t5 -2.5h19q3 0 5 2.5t2 5.5t-2 5t-5 2zM116 54q-3 0 -5.5 -2.5t-2.5 -5.5v0q0 -3 2.5 -5t5.5 -2t5 2t2 5v0q0 3 -2 5.5t-5 2.5zM215 53h-19q-3 0 -5 -2t-2 -5t2 -5t5 -2h19q3 0 5 2t2 5t-2 5t-5 2z" />
</svg>