<svg viewBox="0 0 1024 1024" xmlns="http://www.w3.org/2000/svg">
  <path transform="scale(1, -1) translate(0, -960)" fill="currentColor" d="M296 730q58 0 109 -23q51 -22 89 -60t60 -90q22 -51 22 -109t-22 -109q-22 -52 -60 -90t-89 -60q-51 -23 -109 -23t-109 23q-50 22 -88.5 60t-60.5 90q-22 51 -22 109t22 109q22 52 60 90t89 60q51 23 109 23zM742 714q29 0 55 -21q25 -21 44 -57.5t30 -84.5t11 -103v0 q0 -55 -11 -104q-11 -48 -30 -84t-44 -57q-26 -21 -55 -21q-28 0 -54 21q-25 21 -44 57.5t-30 84.5t-11 103t11 103t30 84.5t44 57.5q26 21 54 21v0zM958 685q21 0 35.5 -69.5t14.5 -167.5t-14.5 -167.5t-35.5 -69.5q-20 0 -34.5 69.5t-14.5 167.5t14.5 167.5t34.5 69.5v0z " />
</svg>