<svg viewBox="0 0 1024 1024" xmlns="http://www.w3.org/2000/svg">
  <path transform="scale(1, -1) translate(0, -960)" fill="currentColor" d="M573 -32h-122q-26 0 -45 19t-19 45v142q0 9 -4.5 16.5t-11.5 12.5t-16 5t-16 -5l-123 -70q-23 -13 -49 -6t-39 30l-61 105q-6 11 -8 24t2 26q3 13 10.5 22.5t19.5 15.5l123 71q8 5 12 12t4 17q0 8 -4 16t-12 12l-123 71q-11 6 -19 16t-11 22q-4 12 -2 25t8 25l61 105 q13 23 39 30.5t49 -6.5l123 -70q7 -5 16 -5t16 5t11.5 12t4.5 17v139q0 26 19 45t45 19h122q26 0 45 -19t19 -45v-142q0 -9 4.5 -16.5t11.5 -12.5t16 -5t16 5l123 70q11 6 23.5 8t26.5 -1q12 -4 22 -11.5t16 -19.5l61 -105q6 -11 8 -24t-2 -26q-3 -13 -10.5 -22.5 t-19.5 -15.5l-123 -71q-8 -5 -12 -12t-4 -17q0 -8 4 -16t12 -12l123 -71q11 -6 19 -16t11 -22q4 -12 2 -25t-8 -25l-61 -105q-6 -11 -16 -19t-22 -12q-12 -3 -25 -1t-25 8l-123 70q-7 5 -16 5t-16 -5t-11.5 -12t-4.5 -17v-139q0 -26 -19 -45t-45 -19zM354 238q8 0 16 -2 t16 -6q15 -8 23.5 -23t8.5 -33v-142q0 -13 9 -22.5t23 -9.5h121q13 0 22.5 9.5t9.5 22.5v142q0 18 9 33t23 23q16 9 33 9t31 -9l123 -70q6 -4 12 -4t12 1t11.5 5t8.5 9l60 106q4 6 4.5 12t-0.5 12q-2 6 -6 11.5t-9 7.5l-123 70q-16 9 -24 23.5t-8 32.5t9 33t23 23l123 71 q6 3 9.5 8t5.5 11q1 6 0.5 12.5t-4.5 11.5l-60 106q-4 6 -9 9.5t-11 4.5t-12.5 0.5t-11.5 -3.5l-123 -71q-15 -8 -32 -8t-32 8q-15 9 -23.5 23.5t-8.5 32.5v146q0 13 -9.5 22.5t-22.5 9.5h-121q-14 0 -23 -9.5t-9 -22.5v-142q0 -18 -9 -33t-23 -23q-16 -9 -33 -9t-31 9 l-124 70q-12 7 -24.5 3.5t-19.5 -14.5l-61 -106q-4 -6 -4.5 -12t1.5 -12q1 -6 5 -11.5t9 -7.5l123 -70q16 -9 24 -23.5t8 -32.5t-8.5 -33t-23.5 -23l-123 -71q-6 -3 -9.5 -8t-4.5 -11q-2 -6 -1.5 -12.5t4.5 -11.5l61 -106q7 -12 19.5 -15t24.5 4l124 71q7 2 15 3t17 1v0z " />
</svg>