<svg viewBox="0 0 1024 1024" xmlns="http://www.w3.org/2000/svg">
  <path transform="scale(1, -1) translate(0, -960)" fill="currentColor" d="M939 904q-20 16 -45.5 21.5t-50.5 -0.5l-566 -139h-114q-49 0 -84.5 -35t-35.5 -85v-244q0 -43 27 -75.5t68 -40.5l70 -292q5 -20 22 -33t37 -13h31q14 0 26.5 6t21.5 18q8 11 11 24.5t0 28.5l-59 254l544 -133q7 -1 13.5 -2t13.5 -1q19 0 36.5 6t32.5 18 q20 16 30.5 38.5t10.5 48.5v544q1 25 -9 47.5t-31 38.5v0zM294 757l240 59v-542l-240 59v424v0zM75 422v244q0 36 25.5 62t62.5 26h101v-418h-101h-4.5h-4.5v0v0q-34 4 -56.5 29t-22.5 57v0zM322 11q-5 -5 -11 -8t-12 -3h-30q-11 0 -19 6.5t-10 15.5l-70 282h94l62 -267 q3 -7 1.5 -14t-5.5 -12v0zM949 270q0 -18 -8 -34t-23 -26q-14 -12 -32 -16t-36 1l-285 71v558l285 70q18 5 36 1t32 -15q15 -11 23 -27t8 -34v-549v0z" />
</svg>