<svg viewBox="0 0 1024 1024" xmlns="http://www.w3.org/2000/svg">
  <path transform="scale(1, -1) translate(0, -960)" fill="currentColor" d="M986 890q0 12 -7 21.5t-17 13.5q-11 5 -22.5 2.5t-19.5 -10.5q-40 -37 -88 -66q-48 -30 -98 -52t-100 -38q-50 -15 -93 -23h-2.5h-2.5v0v0v0v0q-18 0 -74 -1q-57 0 -118.5 -1t-111.5 -1q-51 -1 -56 -1q-6 0 -11 -5t-5 -11v-51h-37q-35 0 -60 -25t-25 -60v-118 q0 -35 25 -60t60 -25h37v-51q0 -6 4.5 -11t11.5 -5h26t54 -2l58 -275q6 -29 29.5 -48t53.5 -19h14q19 0 36.5 8t29.5 24q12 14 16.5 33t0.5 37l-49 240h55.5t35.5 -1v0v0v0v0h2.5h2.5q43 -9 93 -24t100 -37.5t98 -52.5t88 -67q6 -5 12 -8t14 -3q3 0 7.5 1t8.5 2 q10 5 17 14.5t7 20.5v735zM453 19q-7 -9 -18.5 -14t-23.5 -5h-14q-19 0 -33.5 12t-17.5 30l-56 265h121l53 -243q2 -12 -1 -23.5t-10 -21.5v0zM176 411h-53q-21 0 -37 15.5t-16 37.5v117q0 21 16 37t37 16h53q7 0 11.5 4t4.5 12v51h66q44 1 93.5 1.5t95.5 0.5q46 1 71 1 v-365q-25 0 -71 1q-46 0 -95.5 0.5t-93.5 1.5h-66v52q0 7 -4.5 12t-11.5 5v0zM949 150h-3t-4 2q-40 38 -90 69q-49 31 -101 54t-103 39q-52 16 -96 25v368q44 9 96 25q51 17 103 40t101 54q50 31 90 68q2 2 4 2h3t3 -1.5t2 -4.5v-733q0 -4 -2 -5.5t-3 -1.5v0z" />
</svg>