<svg viewBox="0 0 1024 1024" xmlns="http://www.w3.org/2000/svg">
  <path transform="scale(1, -1) translate(0, -960)" fill="currentColor" d="M965 912q0 5 -3.5 9t-7.5 5q-5 2 -9.5 0.5t-8.5 -4.5q-36 -44 -85 -79q-50 -35 -104.5 -61.5t-109.5 -44.5t-103 -27h-1h-2h-0.5h-0.5h-2h-2q-15 -1 -78.5 -7.5t-233.5 -24.5q-67 -7 -111.5 -57t-44.5 -117t44.5 -117t111.5 -57q11 -2 21.5 -3t20.5 -2l61 -291 q6 -29 28.5 -47.5t51.5 -18.5h14q19 0 35.5 8t28.5 22q12 15 16.5 33t-0.5 36l-49 239l57 -6t27 -2h3h1h0.5h0.5h1h2q48 -9 103 -27t109.5 -44.5t104.5 -61.5q49 -36 85 -80q2 -3 5.5 -5t7.5 -2q1 0 2 0.5l3 1.5q4 1 7.5 5.5t3.5 8.5v818v0zM451 19q-7 -8 -17 -13.5 t-21 -5.5h-15q-18 0 -32 11.5t-17 28.5l-56 269l118 -11l50 -237q2 -11 -0.5 -22t-9.5 -20v0zM91 502q0 56 36.5 96.5t91.5 46.5q139 14 205.5 21t90.5 9v-345q-25 2 -92 9t-204 21q-55 6 -91.5 47t-36.5 95v0zM547 326v354q45 9 96 25q51 17 103 41t100 55t87 69v-734 q-39 38 -87 70q-48 31 -99.5 54.5t-102.5 40.5q-52 16 -97 25z" />
</svg>