<svg viewBox="0 0 256 256" xmlns="http://www.w3.org/2000/svg">
  <path transform="scale(1, -1) translate(0, -256)" fill="currentColor" d="M237 244q-12 10 -27 6l-141 -35h-29q-13 0 -22.5 -9.5t-9.5 -23.5v-60q0 -12 6.5 -20.5t17.5 -11.5l17 -71q2 -7 7 -10.5t11 -3.5h8q9 0 14.5 6.5t3.5 15.5l-14 59l131 -32q3 -1 8 -1q11 0 19 7q12 9 12 24v136q-1 15 -12 24zM76 203l54 13v-128l-54 13v102zM22 122v60 q0 8 5.5 13.5t12.5 5.5h22v-98h-22q-7 0 -12.5 5.5t-5.5 13.5zM78 21q-1 -2 -4 -2h-7q-3 0 -5 3l-16 67h18l15 -65q0 -3 -1 -3zM234 84q0 -8 -6 -13t-15 -3l-69 16v136l69 16q8 2 14.5 -3t6.5 -13v-136z" />
</svg>