<svg viewBox="0 0 1024 1024" xmlns="http://www.w3.org/2000/svg">
  <path transform="scale(1, -1) translate(0, -960)" fill="currentColor" d="M803 904q-18 14 -40.5 18t-44.5 -2l-412 -112h-210q-26 0 -45 -19t-19 -45v-317q0 -26 19 -45t45 -19h21l65 -313q8 -34 35 -55.5t61 -21.5h10q22 0 42 9t33 26t18.5 38.5t0.5 43.5l-57 273h1l389 -110q7 -3 13.5 -3h13.5q16 0 31 4.5t29 14.5q18 14 28 34t10 44v479 q1 24 -9 44t-28 34v0zM96 395q-13 0 -22.5 9.5t-9.5 22.5v317q0 13 9.5 22.5t22.5 9.5h203v-381h-203zM352 83q4 -14 0 -28.5t-13 -25.5q-9 -12 -22 -18t-29 -6h-11q-23 0 -41 15t-23 38l-64 307h145l58 -282v0zM810 347q0 -15 -7 -29t-19 -24q-12 -9 -27 -11.5t-31 0.5 l-393 111v387l395 109q14 3 29 0.5t27 -12.5q12 -9 19 -23t7 -29v-479zM976 688q-7 0 -11.5 -4.5t-4.5 -11.5v-158q0 -8 4.5 -12t11.5 -4t11.5 4t4.5 12v158q0 7 -4.5 11.5t-11.5 4.5z" />
</svg>