<svg viewBox="0 0 256 256" xmlns="http://www.w3.org/2000/svg">
  <path transform="scale(1, -1) translate(0, -256)" fill="currentColor" d="M244 244q0 2 -1 4t-3.5 2.5t-4.5 0t-3 -2.5q-16 -19 -46 -34q-25 -12 -52 -18l-80 -8q-18 -2 -30 -15t-12 -31t12 -31.5t30 -15.5l8 -1l15 -70q2 -9 8.5 -14t14.5 -5h4q11 0 18.5 9t4.5 19l-11 56l18 -2q27 -5 52 -18q30 -14 46 -34q2 -3 6 -3l2 1q2 0 3.5 2t1.5 4z M110 22q-3 -3 -7 -3h-4q-3 0 -5.5 2t-3.5 5l-13 64l23 -3l12 -57q1 -4 -2 -8zM26 142q0 12 8 21.5t21 10.5q56 6 71 8v-80l-71 7q-12 1 -20.5 10.5t-8.5 22.5zM140 100v84q23 5 46 15q26 12 44 28v-170q-18 16 -44 28q-23 10 -46 15z" />
</svg>