<svg viewBox="0 0 1024 1024" xmlns="http://www.w3.org/2000/svg">
  <path transform="scale(1, -1) translate(0, -960)" fill="currentColor" d="M512 928q-99 0 -186 -38q-88 -38 -153 -103t-103 -153q-38 -87 -38 -186t38 -186q38 -88 103 -153t153 -103q87 -38 186 -38t186 38q88 38 153 103t103 153q38 87 38 186t-38 186q-38 88 -103 153t-153 103q-87 38 -186 38zM512 0q-92 0 -174 35q-81 36 -142 97t-97 142 q-35 82 -35 174t35 174q36 81 96.5 142t142.5 97q82 35 174 35t174 -35q81 -36 142 -96.5t97 -142.5q35 -82 35 -174t-35 -174q-36 -81 -96.5 -142t-142.5 -97q-82 -35 -174 -35zM678 658h-332q-8 0 -12 -4.5t-4 -11.5q0 -8 4 -12t12 -4h332q8 0 12 4t4 12q0 7 -4 11.5 t-12 4.5zM678 464h-332q-8 0 -12 -4.5t-4 -11.5t4 -11.5t12 -4.5h332q8 0 12 4.5t4 11.5t-4 11.5t-12 4.5zM678 270h-332q-8 0 -12 -4t-4 -12q0 -7 4 -11.5t12 -4.5h332q8 0 12 4.5t4 11.5q0 8 -4 12t-12 4z" />
</svg>