<svg viewBox="0 0 1024 1024" xmlns="http://www.w3.org/2000/svg">
  <path transform="scale(1, -1) translate(0, -960)" fill="currentColor" d="M835 405q-15 19 -15 43t15 43l154 183q5 4 4 11t-6 11q-5 5 -12 4t-10 -6l-155 -182q-23 -28 -23 -64t23 -64l153 -182q3 -3 6 -5t7 -2q2 0 5 1t5 2q4 5 5 11.5t-4 11.5l-152 184v0zM61 694q-5 5 -11.5 6t-11.5 -4q-4 -5 -5 -11.5t4 -10.5l153 -183q16 -19 16 -43 t-16 -43l-155 -183q-5 -4 -4 -11t6 -11q2 -2 4.5 -2.5t4.5 -0.5q4 0 7.5 1.5t5.5 4.5l155 181q23 28 23 64t-23 64l-153 182v0zM512 720q-7 0 -11.5 -4.5t-4.5 -11.5v-512q0 -7 4.5 -11.5t11.5 -4.5t11.5 4.5t4.5 11.5v512q0 6 -4.5 11t-11.5 5z" />
</svg>