<svg viewBox="0 0 1024 1024" xmlns="http://www.w3.org/2000/svg">
  <path transform="scale(1, -1) translate(0, -960)" fill="currentColor" d="M984 366l-78 79q-10 9 -23.5 9t-21.5 -9l-79 -79q-9 -9 -9 -22t9 -22l28 -29l-55 -53l-27 27q-10 10 -22.5 10t-22.5 -10l-78 -78q-10 -10 -10 -22.5t10 -22.5l78 -78q5 -5 11 -7.5t12 -2.5t11.5 2.5t10.5 7.5l78 78q10 10 10 22.5t-10 22.5l-27 27l53 53l27 -27 q5 -5 11 -7.5t12 -2.5t11.5 2.5t10.5 7.5l78 78q11 10 11.5 23.5t-9.5 22.5v0zM706 88v0l-79 78l79 79l78 -79zM883 264v0l-78 78l78 79l79 -79zM520 250h-413q-18 0 -31.5 13t-13.5 31v469q0 4 1 7.5t3 7.5l372 -226q10 -6 20.5 -8.5t21.5 -2.5t21.5 2.5t20.5 8.5l374 226 q1 -4 2 -7.5t1 -7.5v-214q0 -7 4.5 -11.5t11.5 -4.5t11.5 4.5t4.5 11.5v214q0 31 -22.5 54t-54.5 23h-747q-32 0 -54.5 -23t-22.5 -54v-469q0 -31 23 -53.5t54 -22.5h413q7 0 11.5 4t4.5 12q0 7 -5 11.5t-11 4.5zM853 808q6 0 11 -1t10 -4l-368 -224q-12 -7 -26 -7t-26 7 l-368 224q5 3 10 4t11 1h746z" />
</svg>