<svg viewBox="0 0 256 256" xmlns="http://www.w3.org/2000/svg">
  <path transform="scale(1, -1) translate(0, -256)" fill="currentColor" d="M223 72q-7 0 -13 -5l-14 10l1 5v2l18 11q4 -2 9 -2q8 0 14 6t6 14.5t-6 14t-14.5 5.5t-14 -5.5t-5.5 -14.5q0 -4 1 -7l-15 -10q-5 6 -13 6t-14 -6t-6 -14.5t6 -14t13.5 -5.5t11.5 3l15 -10v-3q0 -9 5.5 -14.5t14 -5.5t14.5 5.5t6 14t-5.5 14.5t-14.5 6zM134 78h-106 q-4 0 -6.5 3t-2.5 6v121l92 -56q6 -4 12.5 -4t12.5 4l92 56v-55q0 -3 2.5 -5t5.5 -2t5 2t2 5v55q0 10 -6.5 16.5t-16.5 6.5h-192q-10 0 -16.5 -6.5t-6.5 -16.5v-121q0 -9 6.5 -16t16.5 -7h106q3 0 5 2.5t2 5.5t-2 4.5t-5 1.5zM129 163q-5 -3 -10 0l-89 54h188z" />
</svg>