<svg viewBox="0 0 1024 1024" xmlns="http://www.w3.org/2000/svg">
  <path transform="scale(1, -1) translate(0, -960)" fill="currentColor" d="M709 365q-23 -23 -35 -52t-12 -60t12 -60t35 -52t52 -35t60 -12t60 12t52 35q47 47 47 112.5t-47 111.5q-47 47 -112 47t-112 -47zM694 253q0 25 9.5 48t27.5 41t42 27.5t48 9.5q20 0 40 -7t37 -20l-176 -176l-1 -1t-1 -2q-12 18 -19 38t-7 42v0zM910 163 q-18 -18 -41 -27.5t-48 -9.5q-22 0 -42 7t-37 21q2 0 2 0.5t2 0.5l176 176q28 -37 25 -85t-37 -83v0zM910 802h-796q-34 0 -58 -24t-24 -58v-502q0 -34 24 -58t58 -24h441q7 0 11.5 4.5t4.5 11.5t-4.5 11.5t-11.5 4.5h-441q-21 0 -35.5 14.5t-14.5 35.5v502q0 5 1 9.5t2 8.5 l400 -244q11 -6 22 -9t23 -3t23 3t22 9l400 244q1 -4 2 -8.5t1 -9.5v-230q0 -8 4.5 -12t11.5 -4t11.5 4t4.5 12v230q0 34 -24 58t-58 24v0zM541 523q-13 -8 -28 -8t-28 8l-395 240q6 4 12 5.5t13 1.5h797q7 0 13.5 -2t12.5 -5z" />
</svg>