<svg viewBox="0 0 256 256" xmlns="http://www.w3.org/2000/svg">
  <path transform="scale(1, -1) translate(0, -256)" fill="currentColor" d="M248 102l-20 19q-3 3 -7.5 3t-8.5 -3l-40 -41q-2 -2 -4 -6l-5 -24q-1 -6 3 -10t8 -4l27 6q3 1 6 3l41 41q3 3 3 8t-3 8zM197 56l-19 -5l4 20l38 38l16 -15zM135 66h-107q-4 0 -6.5 2.5t-2.5 6.5v121l93 -56q6 -4 12.5 -4t12.5 4l93 56v-55q0 -3 2.5 -5t5.5 -2t5 2t2 5v56 q0 9 -7 16t-16 7h-194q-9 0 -16 -7t-7 -16v-122q0 -10 6.5 -16.5t16.5 -6.5h107q3 0 5 2t2 5t-2 5t-5 2zM130 152q-5 -4 -10 0l-90 54h189z" />
</svg>