<svg viewBox="0 0 256 256" xmlns="http://www.w3.org/2000/svg">
  <path transform="scale(1, -1) translate(0, -256)" fill="currentColor" d="M242 98q-2 2 -5 2t-5 -2l-18 -17l-17 17q-2 2 -5 2t-5 -2t-2 -5t2 -5l17 -17l-17 -17q-2 -3 -2 -5.5t2 -4.5t5 -2t5 2l17 17l17 -17q2 -2 5 -2t5 2t2 4.5t-2 5.5l-17 17l17 17q2 2 2.5 5t-1.5 5zM228 214h-200q-9 0 -16 -7t-7 -16v-126q0 -9 7 -16t16 -7h111q3 0 5 2t2 5 t-2.5 5t-5.5 2h-110q-4 0 -6.5 2.5t-2.5 6.5v125l96 -58q6 -4 13 -4t13 4l96 58v-57q0 -3 2 -5t5 -2t5.5 2t2.5 5v58q-1 9 -8 16t-16 7zM134 144q-3 -1 -6 -1t-5 1l-93 56h196z" />
</svg>