<svg viewBox="0 0 256 256" xmlns="http://www.w3.org/2000/svg">
  <path transform="scale(1, -1) translate(0, -256)" fill="currentColor" d="M236 94h-6v12q0 7 -4.5 11.5t-10.5 4.5h-16q-6 0 -10.5 -4.5t-4.5 -11.5v-12h-6q-6 0 -10.5 -4.5t-4.5 -11.5v-26q0 -6 4.5 -10.5t10.5 -4.5h58q6 0 10.5 4.5t4.5 10.5v26q0 7 -4.5 11.5t-10.5 4.5zM199 106q0 2 1 2h16q1 0 1 -2v-12h-18v12zM237 53q0 -1 -1 -1h-57 q-1 0 -1 1v26q0 1 1 1h57q1 0 1 -1v-26zM138 61h-110q-4 0 -6.5 2.5t-2.5 6.5v124l95 -58q6 -3 13 -3t13 3l96 58v-56q0 -3 2 -5.5t5 -2.5t5 2.5t2 5.5v57q0 9 -7 16t-16 7h-199q-9 0 -16 -7t-7 -16v-125q0 -10 7 -16.5t16 -6.5h110q3 0 5 2t2 5t-2 5t-5 2zM133 148 q-3 -1 -6 -1t-5 1l-92 56h195z" />
</svg>