<svg viewBox="0 0 256 256" xmlns="http://www.w3.org/2000/svg">
  <path transform="scale(1, -1) translate(0, -256)" fill="currentColor" d="M77 158h103q5 0 9 4t4 10v63q0 6 -4 10t-9 4h-103q-6 0 -9.5 -4t-3.5 -10v-63q0 -5 4 -9.5t9 -4.5zM78 172v56l43 -27q3 -2 7 -2t8 2l44 26v-55h-102zM92 235h72l-35 -22h-1zM251 27l-13 71q1 2 1 6v90q0 7 -5 11.5t-12 4.5q-3 0 -5 -2t-2 -5t2 -5t5 -2t3 -3v-89 q0 -3 -3 -3h-188q-2 0 -2 3v90q0 2 2.5 2t5 2.5t2.5 5.5t-2.5 5t-5.5 2q-6 0 -11 -5t-5 -12v-90q0 -3 1 -6l-14 -71q-1 -8 4 -14t13 -6h212q7 0 12.5 6t4.5 14zM236 22q-1 -1 -2 -1h-212q-1 0 -2 1v0q-1 1 -1 3l12 62h195l11 -62q0 -2 -1 -3z" />
</svg>