<svg viewBox="0 0 1024 1024" xmlns="http://www.w3.org/2000/svg">
  <path transform="scale(1, -1) translate(0, -960)" fill="currentColor" d="M946 922h-392q-20 0 -33.5 -13.5t-13.5 -31.5v-288q0 -12 6 -22.5t17 -17.5q4 -4 10 -5.5t12 -1.5t12 1.5t10 5.5l93 53q1 1 3 1h4h270q19 0 32.5 13.5t13.5 31.5v229q2 18 -11.5 31.5t-32.5 13.5v0zM960 650q0 -6 -4 -9.5t-10 -3.5h-271q-6 0 -11.5 -1.5t-10.5 -5.5 l-93 -52q-5 -3 -8.5 -2.5t-5.5 2.5q-2 1 -4.5 3.5t-2.5 7.5v288q0 6 4.5 9.5t10.5 3.5h392q6 0 10 -4t4 -9v-227v0zM229 312q47 0 79.5 32t32.5 77q0 44 -33.5 76.5t-78.5 32.5q-46 0 -79 -32.5t-33 -76.5q0 -45 32.5 -77t79.5 -32zM229 499q33 0 56.5 -22.5t23.5 -54.5 t-24 -54t-56 -22q-33 0 -56.5 22.5t-23.5 53.5q0 32 23 54.5t57 22.5zM280 227h-102q-60 0 -103 -42.5t-43 -102.5v-80q0 -12 8 -20t19 -8h338q12 0 19.5 8.5t7.5 19.5v80q1 61 -41.5 103t-102.5 42zM394 6h-330v76q0 46 33.5 79.5t80.5 33.5h102q47 0 80.5 -33.5 t33.5 -79.5v-76z" />
</svg>