<svg viewBox="0 0 256 256" xmlns="http://www.w3.org/2000/svg">
  <path transform="scale(1, -1) translate(0, -256)" fill="currentColor" d="M228 230h-200q-9 0 -16 -7t-7 -17v-125q0 -10 7 -16.5t16 -6.5h116q3 0 5.5 2t2.5 5t-2.5 5t-5.5 2h-116q-4 0 -6.5 2.5t-2.5 6.5v125l96 -58q6 -4 13 -4t13 4l96 58v-46q0 -3 2 -5t5 -2t5.5 2t2.5 5v46q-1 10 -8 17t-16 7zM134 160q-3 -2 -6 -2t-5 2l-93 56h196z M241 116l-24 8q-4 1 -8 0l-24 -8q-4 -2 -6.5 -5.5t-2.5 -7.5l4 -53q1 -6 6 -10l20 -12q3 -2 6 -2t7 2l19 12q6 3 6 10l5 53q1 4 -1.5 7.5t-6.5 5.5zM231 52l-18 -12l-19 12l-4 51l23 7l23 -7z" />
</svg>