<svg viewBox="0 0 256 256" xmlns="http://www.w3.org/2000/svg">
  <path transform="scale(1, -1) translate(0, -256)" fill="currentColor" d="M175 110q-12 -13 -12 -30.5t12.5 -30t30 -12.5t30 12.5t12.5 30t-12.5 30t-30.5 12.5t-30 -12zM185 100q8 8 20 8q8 0 15 -4l-39 -39q-4 6 -4 15q-1 10 8 20zM226 59q-9 -8 -21 -8q-7 0 -15 4l40 39q5 -8 3.5 -18t-7.5 -17zM228 219h-200q-9 0 -16 -6.5t-7 -16.5v-126 q0 -9 7 -16t16 -7h111q3 0 5 2t2 5t-2 5.5t-5 2.5h-111q-3 0 -6 2.5t-3 6.5v125l97 -59q6 -3 12.5 -3t12.5 3l97 59v-58q0 -3 2 -5t5 -2t5 2t2 5v58q-1 10 -8 16.5t-16 6.5zM134 149q-3 -1 -6 -1t-5 1l-93 56h196z" />
</svg>