<svg viewBox="0 0 1024 1024" xmlns="http://www.w3.org/2000/svg">
  <path transform="scale(1, -1) translate(0, -960)" fill="currentColor" d="M987 118l-101 95q32 39 29 91t-40 90q-19 19 -44 29.5t-52 10.5q-26 0 -51.5 -10.5t-44.5 -29.5q-39 -40 -39 -96.5t39 -97.5q19 -19 44.5 -29.5t51.5 -10.5q24 0 45.5 8t39.5 22l101 -96q2 -2 4.5 -3t6.5 -1t6.5 1t4.5 3q5 6 5 13.5t-5 10.5v0zM704 224q-30 30 -30 73.5 t30 73.5q14 15 33.5 23t40.5 8q20 0 39.5 -8t33.5 -23q30 -30 30 -73.5t-30 -73.5q-14 -14 -33.5 -22t-39.5 -8q-21 0 -39.5 8t-34.5 22zM544 186h-432q-19 0 -33.5 13.5t-14.5 34.5v491q0 5 1 8.5t2 7.5l391 -237q9 -6 20.5 -9.5t22.5 -3.5t22 3.5t21 9.5l390 237 q2 -4 3 -8.5t1 -7.5v-226q0 -7 4 -11.5t12 -4.5q7 0 11.5 4.5t4.5 11.5v226q0 32 -23.5 56t-56.5 24h-778q-34 0 -57 -23.5t-23 -56.5v-491q0 -33 23 -56.5t57 -23.5h432q7 0 11.5 4t4.5 12q0 7 -5 11.5t-11 4.5zM893 773q6 0 12 -2t12 -5l-387 -235q-12 -7 -27.5 -7 t-27.5 7l-387 235q5 4 11 5.5t13 1.5h781v0z" />
</svg>