<svg viewBox="0 0 1024 1024" xmlns="http://www.w3.org/2000/svg">
  <path transform="scale(1, -1) translate(0, -960)" fill="currentColor" d="M312 187q56 0 96 40t40 96q0 57 -40 96.5t-96 39.5t-96 -39.5t-40 -96.5q0 -56 40 -96t96 -40zM312 427q43 0 73.5 -30.5t30.5 -73.5t-30.5 -73.5t-73.5 -30.5t-73.5 30.5t-30.5 73.5t30.5 73.5t73.5 30.5zM312 101q-76 0 -147 -26t-128 -75q-5 -5 -6 -11.5t4 -10.5 q5 -5 11.5 -6t11.5 4q52 44 117.5 68.5t136.5 24.5t136.5 -24.5t117.5 -68.5q3 -2 5.5 -2.5t4.5 -0.5q4 0 7 1.5t6 4.5q5 5 4 12t-6 11q-56 48 -127 73.5t-148 25.5v0zM946 923h-394q-19 0 -32.5 -13.5t-13.5 -32.5v-288q0 -12 5.5 -22.5t16.5 -17.5q6 -4 11 -5.5t11 -1.5 t12 1.5t11 5.5l93 53q1 1 3 1h3h272q19 0 32.5 13.5t13.5 33.5v228q2 20 -11.5 32.5t-32.5 12.5v0zM960 650q0 -6 -4 -10.5t-10 -4.5h-272q-6 0 -12 -1.5t-11 -4.5l-93 -53q-4 -2 -8 -1.5t-6 1.5l-3.5 3.5t-2.5 7.5v288q0 6 4 10.5t10 4.5h394q6 0 10 -4.5t4 -10.5v-225v0z " />
</svg>