<svg viewBox="0 0 1024 1024" xmlns="http://www.w3.org/2000/svg">
  <path transform="scale(1, -1) translate(0, -960)" fill="currentColor" d="M952 310l-146 -140v112q0 7 -4 11.5t-12 4.5q-7 0 -11.5 -4.5t-4.5 -11.5v-122q0 -19 14 -32.5t33 -13.5h121q8 0 12 4t4 12q0 7 -4 11.5t-12 4.5h-115l147 142q5 5 5 11.5t-5 10.5q-4 5 -10.5 5t-11.5 -5v0zM910 784h-796q-34 0 -58 -24t-24 -58v-502q0 -34 24 -58 t58 -24h441q7 0 11.5 4.5t4.5 11.5q0 8 -4.5 12t-11.5 4h-441q-21 0 -35.5 15t-14.5 35v502q0 5 1 9.5t2 8.5l400 -243q11 -6 22 -9.5t23 -3.5t23 3.5t22 9.5l400 243q1 -4 2 -8.5t1 -9.5v-230q0 -7 4.5 -11.5t11.5 -4.5t11.5 4.5t4.5 11.5v230q0 34 -24 58t-58 24v0z M541 504q-13 -8 -28 -8t-28 8l-395 240q4 4 10 6t14 2h796q8 0 14 -2l12 -4z" />
</svg>