<svg viewBox="0 0 1024 1024" xmlns="http://www.w3.org/2000/svg">
  <path transform="scale(1, -1) translate(0, -960)" fill="currentColor" d="M976 256h-101v101q0 7 -4.5 11.5t-11.5 4.5t-11.5 -4.5t-4.5 -11.5v-101h-101q-7 0 -11.5 -4.5t-4.5 -11.5t4.5 -11.5t11.5 -4.5h101v-101q0 -7 4.5 -11.5t11.5 -4.5t11.5 4.5t4.5 11.5v101h101q7 0 11.5 4.5t4.5 11.5t-4.5 11.5t-11.5 4.5zM550 160h-438q-20 0 -34 14.5 t-14 33.5v501q0 5 1 9l2 8l397 -241q11 -6 22 -9.5t23 -3.5t23 3.5t22 9.5l396 241q2 -3 3 -7.5t1 -9.5v-229q0 -7 4 -11.5t12 -4.5q7 0 11.5 4.5t4.5 11.5v229q0 33 -24 56.5t-56 23.5h-792q-34 0 -58 -24t-24 -58v-499q0 -34 24 -57t56 -23h438q8 0 12 4.5t4 11.5t-4 11.5 t-12 4.5v0zM906 757q7 0 13 -2t11 -5l-394 -238q-13 -7 -28 -7t-28 7l-392 238q6 4 12 5.5t12 1.5h794z" />
</svg>