<svg viewBox="0 0 1024 1024" xmlns="http://www.w3.org/2000/svg">
  <path transform="scale(1, -1) translate(0, -960)" fill="currentColor" d="M966 333v0v0q-7 9 -17.5 15t-23.5 6h-139q-8 0 -12 -4.5t-4 -11.5q0 -8 4 -12t12 -4h139h2h1l-210 -192q-4 -5 -4.5 -11.5t3.5 -11.5q2 -2 5.5 -3.5t5.5 -1.5t5.5 1.5t5.5 3.5l207 186v-130q0 -7 4 -11.5t12 -4.5q7 0 11.5 4.5t4.5 11.5v139q0 9 -3 17t-9 14v0v0v0z M910 794h-796q-34 0 -58 -24t-24 -58v-502q0 -34 24 -58t58 -24h441q7 0 11.5 4.5t4.5 11.5t-4.5 11.5t-11.5 4.5h-441q-21 0 -35.5 14.5t-14.5 35.5v502q0 5 1 9.5t2 8.5l400 -244q11 -6 22 -9t23 -3t23 3t22 9l400 244q1 -4 2 -8.5t1 -9.5v-230q0 -8 4.5 -12t11.5 -4 t11.5 4t4.5 12v232q0 33 -24 56.5t-58 23.5v0zM541 515q-13 -8 -28 -8t-28 8l-395 240q6 4 12 5.5t13 1.5h797q7 0 13.5 -2t12.5 -5z" />
</svg>