<svg viewBox="0 0 256 256" xmlns="http://www.w3.org/2000/svg">
  <path transform="scale(1, -1) translate(0, -256)" fill="currentColor" d="M249 48l-23 22q7 11 5.5 24t-11.5 23.5t-25 10.5t-26 -11t-11 -26.5t10.5 -26t26.5 -10.5q11 0 21 6l23 -22q2 -2 5 -2t5 2t2 5t-2 5zM178 74q-6 7 -6 16.5t6.5 16.5t16 7t16.5 -7t7 -16.5t-7 -16.5t-16.5 -7t-16.5 7zM136 65h-108q-4 0 -6.5 2.5t-2.5 6.5v122l94 -57 q6 -3 13 -3t12 3l94 57v-55q0 -3 2 -5t5 -2t5 2t2 5v56q0 10 -6.5 16.5t-15.5 6.5h-196q-10 0 -16.5 -6.5t-6.5 -16.5v-123q0 -9 7 -15.5t16 -6.5h108q3 0 5 2t2 5t-2 4.5t-5 1.5zM131 152q-5 -4 -11 0l-90 54h191z" />
</svg>