<svg viewBox="0 0 256 256" xmlns="http://www.w3.org/2000/svg">
  <path transform="scale(1, -1) translate(0, -256)" fill="currentColor" d="M247 86l-21 20q-2 3 -4.5 3t-5 -2.5t-2.5 -5t2 -5.5l14 -13h-61q-3 0 -5 -2t-2 -5t2 -5t5 -2h61l-14 -13q-2 -2 -2 -5t2 -5t5 -2t5 2l20 20q4 4 4.5 10t-3.5 10zM136 57h-108q-4 0 -6.5 3t-2.5 6v123l95 -57q6 -4 12.5 -4t11.5 4l95 57v-56q0 -3 2 -5t5 -2t5.5 2t2.5 5 v57q0 10 -7 16.5t-17 6.5h-196q-10 0 -16.5 -6.5t-6.5 -16.5v-124q0 -9 6.5 -16t16.5 -7h108q3 0 5.5 2t2.5 5t-2.5 5t-5.5 2zM132 144q-5 -4 -11 0l-91 55h192z" />
</svg>