<svg viewBox="0 0 1024 1024" xmlns="http://www.w3.org/2000/svg">
  <path transform="scale(1, -1) translate(0, -960)" fill="currentColor" d="M309 582h409q18 0 31 13t13 31v251q0 18 -13 30.5t-31 12.5h-409q-18 0 -30.5 -12.5t-12.5 -30.5v-253q0 -17 12.5 -29.5t30.5 -12.5v0zM717 614h-408q-5 0 -8 3.5t-3 8.5v241l190 -115q6 -4 12 -5t14 -1q6 0 12.5 1t12.5 5l191 115v-243q-2 -4 -5 -7t-8 -3v0zM326 888 h375l-179 -109q-4 -2 -8.5 -2t-7.5 2l-180 109v0zM990 43l-52 285h-2q2 6 3.5 12t1.5 12v358q0 23 -16.5 39.5t-39.5 16.5q-7 0 -11.5 -4t-4.5 -12q0 -7 4.5 -11.5t11.5 -4.5q9 0 16.5 -7t7.5 -17v-358q0 -10 -7.5 -17t-16.5 -7h-747q-10 0 -17 7t-7 17v358q0 10 7 17t17 7 q7 0 11.5 4.5t4.5 11.5q0 8 -4.5 12t-11.5 4q-23 0 -39.5 -16.5t-16.5 -39.5v-358q0 -6 1 -12t3 -12h-1l-51 -285q-3 -12 0.5 -24.5t11.5 -21.5q9 -10 19.5 -14.5t22.5 -4.5h850q12 0 23 5t18 14q9 9 11.5 21t-0.5 25zM954 16q-4 -4 -8.5 -6t-9.5 -2h-848q-5 0 -9.5 2 t-8.5 6q-3 5 -4.5 10t0.5 11l48 259h798l48 -259q1 -5 -1 -10.5t-5 -10.5z" />
</svg>