<svg viewBox="0 0 1024 1024" xmlns="http://www.w3.org/2000/svg">
  <path transform="scale(1, -1) translate(0, -960)" fill="currentColor" d="M944 299h-35v63q0 20 -14 34t-34 14h-63q-20 0 -34 -14t-14 -34v-63h-35q-20 0 -34 -13.5t-14 -34.5v-104q0 -20 14 -34t34 -14h229q20 0 34 14t14 34v104q0 19 -14 33.5t-34 14.5zM782 362q0 7 4.5 11.5t11.5 4.5h63q7 0 11.5 -4.5t4.5 -11.5v-63h-95v63zM960 147 q0 -7 -4.5 -11.5t-11.5 -4.5h-229q-7 0 -11.5 4.5t-4.5 11.5v104q0 7 4.5 11.5t11.5 4.5h229q7 0 11.5 -4.5t4.5 -11.5v-104zM552 168h-440q-20 0 -34 14.5t-14 33.5v499q0 5 1 9t2 9l399 -242q10 -6 21 -9.5t23 -3.5t23 3.5t22 9.5l399 242q1 -4 2 -8.5t1 -9.5v-229 q0 -7 4.5 -11.5t11.5 -4.5t11.5 4.5t4.5 11.5v229q0 34 -24 57t-56 23h-795q-34 0 -58 -24t-24 -57v-500q0 -33 24 -56.5t56 -23.5h438q8 0 12 4.5t4 11.5q0 8 -4 13t-10 5v0zM906 765q7 0 13 -2t11 -5l-392 -240q-14 -8 -28.5 -7.5t-27.5 7.5l-394 239q6 3 12 4.5t12 1.5 h794v2z" />
</svg>