<svg viewBox="0 0 256 256" xmlns="http://www.w3.org/2000/svg">
  <path transform="scale(1, -1) translate(0, -256)" fill="currentColor" d="M233 200q-3 0 -5 -2t-2 -5t2 -5t4 -2t3.5 -1.5t1.5 -2.5v-109q0 -2 -1.5 -3t-2.5 -1h-210q-1 0 -2.5 1t-1.5 3v109q0 2 1.5 3t3.5 1t4 2t2 5t-2 5t-5 2q-7 0 -12.5 -5t-5.5 -13v-109q0 -7 5.5 -12.5t12.5 -5.5h76l-20 -33h-25q-3 0 -5 -2.5t-2 -5.5t2 -5t5 -2h148 q3 0 5 2t2 5t-2 5.5t-5 2.5h-25l-20 33h76q8 0 13 5.5t5 12.5v109q0 7 -5.5 12.5t-12.5 5.5zM161 22h-66l20 33h26zM76 157h104q6 0 10 4t4 10v64q0 6 -4 9.5t-10 3.5h-104q-6 0 -10 -3.5t-4 -9.5v-64q0 -6 4.5 -10t9.5 -4zM76 171v56l44 -27q4 -2 8 -2t8 2l44 27v-56h-104z M91 234h74l-37 -22h-1z" />
</svg>