<svg viewBox="0 0 256 256" xmlns="http://www.w3.org/2000/svg">
  <path transform="scale(1, -1) translate(0, -256)" fill="currentColor" d="M78 60q15 0 26 10.5t11 26t-11 26.5t-26 11t-26 -11t-11 -26t11 -26t26 -11zM78 120q10 0 16.5 -7t6.5 -16.5t-6.5 -16t-16.5 -6.5t-16.5 6.5t-6.5 16t7 16.5t16 7zM78 44q-19 0 -37.5 -6.5t-32.5 -19.5q-3 -1 -3 -4t2 -5.5t4.5 -2.5t5.5 2q13 10 28.5 16t33 6t33 -6 t28.5 -16q2 -2 5 -2t4.5 2t1.5 5t-2 5q-15 13 -33 19.5t-38 6.5zM236 250h-98q-6 0 -10 -4t-4 -10v-72q0 -4 1.5 -7.5t5.5 -5.5t7 -2t7 2l23 13h69q6 0 10 4.5t4 10.5v57q0 6 -4.5 10t-10.5 4zM237 178v0h-68q-3 0 -7 -2l-24 -13v0v72v1h98l1 -1v-57z" />
</svg>