<svg viewBox="0 0 256 256" xmlns="http://www.w3.org/2000/svg">
  <path transform="scale(1, -1) translate(0, -256)" fill="currentColor" d="M207 88q-3 0 -5 -2t-2 -5v-35q0 -3 2 -5.5t5 -2.5t5 2.5t2 5.5v35q0 3 -2 5t-5 2zM228 213h-200q-9 0 -16 -7t-7 -16v-126q0 -10 7 -16.5t16 -6.5h128q3 0 5 2t2 5t-2 5t-5 2h-128q-3 0 -6 2.5t-3 6.5v125l97 -59q6 -3 12.5 -3t12.5 3l97 59v-57q0 -3 2 -5t5 -2t5 2t2 5 v58q-1 9 -8 16t-16 7zM134 142q-3 -1 -6 -1t-5 1l-93 56h196zM207 124q-5 0 -8 -3.5t-3 -8t3.5 -8t8 -3.5t7.5 3.5t3 8t-3 8t-8 3.5z" />
</svg>