<svg viewBox="0 0 256 256" xmlns="http://www.w3.org/2000/svg">
  <path transform="scale(1, -1) translate(0, -256)" fill="currentColor" d="M228 219h-200q-9 0 -16 -6.5t-7 -16.5v-126q0 -9 7 -16t16 -7h111q3 0 5 2t2 5t-2 5.5t-5 2.5h-111q-3 0 -6 2.5t-3 6.5v125l97 -59q6 -3 12.5 -3t12.5 3l97 59v-58q0 -3 2 -5t5 -2t5 2t2 5v58q-1 10 -8 16.5t-16 6.5zM134 149q-3 -1 -6 -1t-5 1l-93 56h196zM218 116 q-9 0 -16 -4q-6 4 -15 4q-11 0 -19 -8t-8 -19t8 -19l30 -31q2 -2 4.5 -2t4.5 2l29 30q8 8 8 19t-7.5 19.5t-18.5 8.5zM226 79l-24 -25l-24 25q-4 4 -3.5 9.5t4 9.5t9 4t8.5 -4l1 -1q2 -2 5 -2t6 2l1 1q3 4 8.5 4t9.5 -4t3.5 -9.5t-4.5 -9.5z" />
</svg>