<svg viewBox="0 0 1024 1024" xmlns="http://www.w3.org/2000/svg">
  <path transform="scale(1, -1) translate(0, -960)" fill="currentColor" d="M982 336l-76 77q-5 5 -11 7t-13 2v0v0q-8 0 -14 -2t-10 -7l-164 -165q-3 -4 -5.5 -7.5t-3.5 -8.5l-21 -98q-1 -8 1.5 -16t8.5 -14q4 -5 10 -7.5t14 -2.5h3h3l98 21q4 1 8 3.5t8 6.5l164 163q5 5 7.5 11t2.5 13q0 6 -2.5 12.5t-7.5 11.5v0zM960 310l-165 -163v0v0l-97 -21 l-2 2l22 99l164 163h1l77 -76v-4v0zM539 189h-427q-19 0 -33.5 13.5t-14.5 34.5v486q0 5 1 9t2 7l387 -235q10 -6 21.5 -9.5t22.5 -3.5q10 0 21.5 3.5t21.5 9.5l387 235q1 -3 2 -7.5t1 -8.5v-224q0 -7 4.5 -11.5t11.5 -4.5t11.5 4.5t4.5 11.5v224q0 33 -23 56.5t-57 23.5 h-771q-32 0 -56 -23t-24 -57v-488q0 -32 23 -56t57 -24h429q7 0 11.5 4.5t4.5 11.5t-5.5 12.5t-12.5 5.5v0zM886 771q6 0 12 -2l12 -4l-384 -232q-12 -7 -26.5 -7t-27.5 7l-384 232q5 2 11 4t13 2h774v0z" />
</svg>