<svg viewBox="0 0 256 256" xmlns="http://www.w3.org/2000/svg">
  <path transform="scale(1, -1) translate(0, -256)" fill="currentColor" d="M244 83h-22v23q0 3 -2.5 5t-5.5 2t-5 -2t-2 -5v-23h-22q-3 0 -5 -2t-2 -5t2 -5t5 -2h22v-23q0 -3 2 -5t5 -2t5.5 2t2.5 5v23h22q3 0 5 2t2 5t-2 5t-5 2zM138 59h-110q-4 0 -6.5 3t-2.5 6v124l95 -58q6 -3 13 -3t13 3l96 58v-56q0 -3 2 -5t5 -2t5 2t2 5v57q0 10 -7 16.5 t-16 6.5h-199q-9 0 -16 -6.5t-7 -16.5v-125q0 -9 7 -16t16 -7h110q3 0 5 2t2 5t-2 5t-5 2zM132 146q-2 -1 -5 -1t-5 1l-92 56h194z" />
</svg>