<svg viewBox="0 0 1024 1024" xmlns="http://www.w3.org/2000/svg">
  <path transform="scale(1, -1) translate(0, -960)" fill="currentColor" d="M971 267h-254q-7 0 -11.5 -4.5t-4.5 -11.5t4.5 -11.5t11.5 -4.5h254q7 0 11.5 4.5t4.5 11.5t-5 11.5t-11 4.5zM910 781h-796q-34 0 -58 -24t-24 -58v-502q0 -34 24 -58t58 -24h441q7 0 11.5 4.5t4.5 11.5t-4.5 11.5t-11.5 4.5h-441q-21 0 -35.5 14.5t-14.5 35.5v502 q0 5 1 9.5t2 8.5l400 -243q11 -6 22 -9.5t23 -3.5t23 3.5t22 9.5l400 243q1 -4 2 -8.5t1 -9.5v-230q0 -7 4.5 -11.5t11.5 -4.5t11.5 4.5t4.5 11.5v230q0 34 -24 58t-58 24zM541 501q-13 -9 -28 -9t-28 9l-395 240q6 3 12 4.5t13 1.5h797q7 0 13.5 -2t12.5 -4z" />
</svg>