<svg viewBox="0 0 1024 1024" xmlns="http://www.w3.org/2000/svg">
  <path transform="scale(1, -1) translate(0, -960)" fill="currentColor" d="M910 843h-796q-34 0 -58 -24t-24 -57v-503q0 -33 24 -57t58 -24h464q7 0 11.5 4t4.5 12q0 7 -4.5 11.5t-11.5 4.5h-464q-21 0 -35.5 14.5t-14.5 34.5v503q0 4 1 9t2 8l400 -243q11 -6 22 -9.5t23 -3.5t23 3.5t22 9.5l400 243q1 -3 2 -8t1 -9v-186q0 -7 4.5 -11.5 t11.5 -4.5t11.5 4.5t4.5 11.5v186q0 33 -24 57t-58 24zM541 563q-13 -8 -28 -8t-28 8l-397 240q6 4 12 5.5t14 1.5h796q8 0 14 -2t12 -5zM960 389l-96 32q-6 2 -12 2t-12 -2l-96 -32q-13 -5 -20 -16t-6 -24l18 -213q1 -10 6 -18t13 -12l79 -48q4 -3 9 -4t10 -1t10 1t9 4 l78 48q9 4 13.5 12t6.5 18l17 213q0 13 -7.5 24t-19.5 16v0zM936 139q0 -1 -1 -3t-2 -2l-79 -48q-1 -1 -3 -1t-3 1l-78 48l-3 3t-1 2l-17 213q0 2 1 4t4 2l96 32h0.5h0.5h1h1l96 -32q2 -1 3.5 -2.5t1.5 -3.5l-18 -213v0z" />
</svg>