<svg viewBox="0 0 256 256" xmlns="http://www.w3.org/2000/svg">
  <path transform="scale(1, -1) translate(0, -256)" fill="currentColor" d="M248 110l-20 19q-3 3 -7.5 3t-7.5 -3l-20 -19q-3 -4 -3 -8t3 -8l5 -4l-9 -10l-5 5q-3 3 -7.5 3t-8.5 -3l-19 -20q-3 -3 -3 -7.5t3 -7.5l19 -20q4 -3 8 -3t8 3l19 20q3 3 3 7.5t-3 7.5l-5 5l10 9l4 -5q4 -3 8 -3t8 3l19 20q4 3 4 7.5t-3 8.5zM176 42l-15 16l15 15l16 -15z M221 86l-16 16l16 16l15 -16zM130 81h-103q-4 0 -6.5 2.5t-2.5 6.5v116l90 -54q5 -4 11.5 -4t12.5 4l89 54v-53q0 -3 2 -5t5 -2t5.5 2t2.5 5v54q0 9 -6.5 15.5t-16.5 6.5h-186q-9 0 -16 -6.5t-7 -15.5v-117q0 -10 7 -16.5t16 -6.5h103q3 0 5 2t2 5t-2 5t-5 2zM125 164 q-2 -2 -5 -2t-5 2l-85 51h180z" />
</svg>