<svg viewBox="0 0 256 256" xmlns="http://www.w3.org/2000/svg">
  <path transform="scale(1, -1) translate(0, -256)" fill="currentColor" d="M236 96l-31 -31v21q0 3 -2 5t-5 2t-5.5 -2t-2.5 -5v-30q0 -6 4.5 -10.5t10.5 -4.5h31q3 0 5 2t2 5t-2 5.5t-5 2.5h-22l31 30q2 2 2 5t-1.5 5t-4.5 2t-5 -2zM228 215h-200q-9 0 -16 -7t-7 -16v-126q0 -10 7 -16.5t16 -6.5h111q3 0 5 2t2 5t-2 5t-5 2h-111q-3 0 -6 3t-3 6 v125l97 -58q6 -4 12.5 -4t12.5 4l97 58v-57q0 -3 2 -5t5 -2t5 2t2 5v58q-1 9 -8 16t-16 7zM134 145q-3 -2 -6 -2t-5 2l-93 56h196z" />
</svg>