<svg viewBox="0 0 1024 1024" xmlns="http://www.w3.org/2000/svg">
  <path transform="scale(1, -1) translate(0, -960)" fill="currentColor" d="M979 272l-81 80q-5 5 -11.5 5t-11.5 -5t-5 -11.5t5 -10.5l75 -74h-275q-7 0 -11.5 -4.5t-4.5 -11.5t4.5 -11.5t11.5 -4.5h274l-75 -74q-5 -4 -5 -10.5t5 -11.5q2 -2 5 -3.5t6 -1.5t6 1.5t5 3.5l82 82q6 6 9 14t3 18q2 8 -1.5 16t-9.5 14zM546 152h-434q-20 0 -34 14 t-14 34v494q0 5 1 9t2 9l394 -238q9 -6 21 -9.5t24 -3.5t23 3.5t21 9.5l394 238l2 -8t1 -8v-227q0 -7 4.5 -11.5t11.5 -4.5t11.5 4.5t4.5 11.5v227q0 34 -23 57t-57 23h-787q-34 0 -57 -24t-23 -56v-494q0 -34 23 -57t57 -23h434q7 0 11.5 4t4.5 12q0 7 -4.5 10.5t-11.5 3.5 zM898 744q6 0 12.5 -2t11.5 -4l-389 -237q-13 -7 -28 -7t-27 7l-390 235q5 4 11.5 5t12.5 1h786v2z" />
</svg>