<svg viewBox="0 0 1024 1024" xmlns="http://www.w3.org/2000/svg">
  <path transform="scale(1, -1) translate(0, -960)" fill="currentColor" d="M910 802h-796q-34 0 -58 -24t-24 -58v-502q0 -34 24 -58t58 -24h441q7 0 11.5 4.5t4.5 11.5t-4.5 11.5t-11.5 4.5h-441q-21 0 -35.5 14.5t-14.5 35.5v502q0 5 1 9.5t2 8.5l400 -244q11 -6 22 -9t23 -3t23 3t22 9l400 244q1 -4 2 -8.5t1 -9.5v-230q0 -8 4.5 -12t11.5 -4 t11.5 4t4.5 12v230q0 34 -24 58t-58 24v0zM541 522q-13 -9 -28 -9t-28 9l-395 240q6 3 12 4.5t13 1.5h797q7 0 13.5 -2t12.5 -4zM870 389q-16 0 -31.5 -6t-28.5 -17q-14 11 -29 17t-32 6q-19 0 -36.5 -7.5t-30.5 -21.5q-28 -29 -28 -69.5t28 -69.5l116 -122v0v0v0v0v0v0v0v0 v0q3 -2 5.5 -3.5t6.5 -1.5v0v0v0v0v0v0v0v0v0v0v0v0v0v0v0v0v0v0v0v0v0v0v0v0v0v0v0v0v0v0v0v0v0v0v0v0v0v0q2 0 5 1.5t6 3.5v0v0v0v0v0v0v0v0l117 122v0v0q13 14 20 31.5t7 37.5q0 19 -7 37t-20 31q-14 16 -31 23.5t-37 7.5v0zM915 243v0v0l-105 -109l-106 109 q-19 19 -19 47t19 48q8 9 20 14t25 5q12 0 23.5 -5t21.5 -14l4 -5q3 -3 5.5 -4t6.5 -1v0q3 0 5.5 1t5.5 4l5 5q18 18 44.5 18t43.5 -18q9 -10 14 -22t5 -25t-4.5 -25.5t-13.5 -22.5v0z" />
</svg>