<svg viewBox="0 0 1024 1024" xmlns="http://www.w3.org/2000/svg">
  <path transform="scale(1, -1) translate(0, -960)" fill="currentColor" d="M947 285l-134 -131q-9 -9 -21 -9t-21 9l-75 73q-5 5 -11.5 5t-10.5 -5q-5 -5 -5 -11t5 -11l75 -74q8 -8 19.5 -12.5t23.5 -4.5t23 4.5t20 12.5l135 131q4 5 4 11.5t-4 11.5t-11 5t-12 -5v0zM910 782h-796q-34 0 -58 -24t-24 -57v-503q0 -33 24 -57t58 -24h441 q7 0 11.5 4.5t4.5 11.5t-4.5 11.5t-11.5 4.5h-441q-21 0 -35.5 14.5t-14.5 34.5v504q0 5 1 9.5t2 8.5l400 -243q11 -6 22 -9.5t23 -3.5t23 3.5t22 9.5l400 243q1 -4 2 -8.5t1 -9.5v-230q0 -7 4.5 -11.5t11.5 -4.5t11.5 4.5t4.5 11.5v230q0 34 -24 57t-58 23zM541 504 q-13 -8 -28 -8t-28 8l-395 240q6 4 12 5t13 1h797q7 0 13.5 -2t12.5 -4z" />
</svg>