<svg viewBox="0 0 1024 1024" xmlns="http://www.w3.org/2000/svg">
  <path transform="scale(1, -1) translate(0, -960)" fill="currentColor" d="M931 725q-7 0 -11.5 -4.5t-4.5 -11.5t4.5 -11.5t11.5 -4.5q12 0 20.5 -8.5t8.5 -18.5v-436q0 -12 -8.5 -20t-20.5 -8h-838q-12 0 -20.5 8t-8.5 20v434q0 12 8.5 19.5t20.5 7.5q7 0 11.5 4.5t4.5 11.5t-4.5 11.5t-11.5 4.5q-25 0 -43 -17.5t-18 -41.5v-435q0 -25 18 -43 t43 -18h323l-94 -158h-106q-7 0 -11.5 -4.5t-4.5 -11.5q0 -8 4.5 -12t11.5 -4h590q8 0 12 4t4 12q0 7 -4 11.5t-12 4.5h-105l-95 158h325q25 0 43 18t18 43v435q0 25 -18 43t-43 18v0zM664 10h-304l93 156v1v1h117l94 -158v0zM304 576h416q18 0 30.5 12.5t12.5 30.5v256 q0 18 -12.5 30.5t-30.5 12.5h-416q-18 0 -30.5 -12.5t-12.5 -30.5v-256q1 -18 13.5 -30.5t29.5 -12.5zM720 608h-416q-5 0 -8 3t-3 8v247l193 -119q6 -3 12.5 -4.5t13.5 -1.5q6 0 13 1.5t13 4.5l193 117v-246q-1 -4 -4 -7t-7 -3zM323 886h379l-182 -110q-4 -2 -8.5 -2 t-9.5 2z" />
</svg>