<svg viewBox="0 0 1024 1024" xmlns="http://www.w3.org/2000/svg">
  <path transform="scale(1, -1) translate(0, -960)" fill="currentColor" d="M829 277q-7 0 -11.5 -4.5t-4.5 -11.5v-141q0 -7 4.5 -11.5t11.5 -4.5t11.5 4.5t4.5 11.5v141q0 6 -4.5 11t-11.5 5zM910 774h-796q-34 0 -58 -24t-24 -57v-501q0 -34 24 -58t58 -24h508q8 0 12 4.5t4 11.5q0 8 -4 12t-12 4h-508q-21 0 -35.5 15t-14.5 35v502q0 5 1 9.5 t2 8.5l400 -243q11 -6 22 -9.5t23 -3.5t23 3.5t22 9.5l400 243q1 -4 2 -8.5t1 -9.5v-230q0 -7 4.5 -11.5t11.5 -4.5t11.5 4.5t4.5 11.5v230q0 34 -24 57t-58 23v0zM541 496q-13 -8 -28 -8t-28 8l-397 240q6 4 12 5t14 1h796q8 0 14 -2l12 -4zM862 354q0 -14 -9.5 -24 t-23.5 -10t-24 10t-10 24t10 23.5t24 9.5t23.5 -9.5t9.5 -23.5z" />
</svg>