<svg viewBox="0 0 1024 1024" xmlns="http://www.w3.org/2000/svg">
  <path transform="scale(1, -1) translate(0, -960)" fill="currentColor" d="M955 366q-1 6 -6.5 10t-12.5 3q-6 -1 -10 -6.5t-3 -12.5l15 -70v0v0q-36 34 -87.5 35t-87.5 -35q-18 -17 -27.5 -39.5t-9.5 -47.5q0 -24 9.5 -46t27.5 -40t41 -26.5t47 -8.5t47 8.5t41 26.5q5 5 5 11t-5 11t-11 5t-11 -5q-27 -26 -65 -26t-65 26q-13 13 -20 29.5t-7 33.5 q0 18 7 34t20 28q27 26 65 26t65 -26l1 -1t2 -1l-66 -12q-6 -2 -10 -7t-2 -13q1 -6 5.5 -9t10.5 -3h1.5h1.5l83 17q16 4 24.5 17.5t5.5 29.5l-19 84v0zM910 813h-796q-34 0 -58 -24t-24 -58v-502q0 -34 24 -58t58 -24h441q7 0 11.5 4.5t4.5 11.5t-4.5 11.5t-11.5 4.5h-441 q-21 0 -35.5 14.5t-14.5 35.5v502q0 5 1 9.5t2 8.5l400 -243q11 -6 22 -9.5t23 -3.5t23 3.5t22 9.5l400 243q1 -4 2 -8.5t1 -9.5v-230q0 -7 4.5 -11.5t11.5 -4.5t11.5 4.5t4.5 11.5v230q0 34 -24 58t-58 24zM541 534q-13 -8 -28 -8t-28 8l-395 240q6 4 12 5.5t13 1.5h797 q7 0 13.5 -2t12.5 -5z" />
</svg>