<svg viewBox="0 0 1024 1024" xmlns="http://www.w3.org/2000/svg">
  <path transform="scale(1, -1) translate(0, -960)" fill="currentColor" d="M904 227q-22 0 -39.5 -9.5t-29.5 -25.5v0v0l-57 27q2 6 3 13t1 14v7.5t-1 7.5l65 33v0v0q12 -10 27.5 -17t32.5 -7q34 0 59 25t25 59q0 33 -25 58t-59 25q-35 0 -60 -25t-25 -58q0 -9 2 -17.5t4 -16.5l-59 -30q-11 18 -30 29t-42 11q-35 0 -60 -25t-25 -59q0 -33 25 -58 t60 -25q19 0 35.5 8t28.5 21l59 -29v0v0q-1 -5 -2 -9.5t-1 -9.5q0 -35 25 -59t60 -24t60 24.5t25 58.5t-23 58.5t-59 24.5v0zM907 406q22 0 37.5 -15t15.5 -36q0 -20 -15.5 -35.5t-37.5 -15.5q-21 0 -37 15.5t-16 35.5q0 21 16 36t37 15zM699 194q-21 0 -37 15t-16 36t16 36 t37 15q22 0 37.5 -15.5t15.5 -35.5q0 -21 -15.5 -36t-37.5 -15zM904 91q-22 0 -37.5 15.5t-15.5 35.5q0 22 15.5 37t37.5 15t37.5 -15.5t15.5 -36.5q0 -20 -15 -35.5t-38 -15.5zM542 219h-430q-19 0 -33.5 14t-14.5 34v490q0 5 1 8.5t2 7.5l391 -237q9 -6 20.5 -9.5 t22.5 -3.5t22 3.5t21 9.5l390 237q2 -4 3 -8.5t1 -7.5v-224q0 -7 4 -11.5t12 -4.5q7 0 11.5 4.5t4.5 11.5v224q0 32 -23.5 56t-56.5 24h-778q-32 0 -56 -23.5t-24 -56.5v-490q0 -32 23 -56t57 -24h430q8 0 12 4.5t4 11.5t-5 11.5t-11 4.5zM890 805q6 0 12 -2t12 -5 l-386 -233q-12 -7 -26.5 -7t-27.5 7l-386 233q5 3 11 5t13 2h778z" />
</svg>