<svg viewBox="0 0 256 256" xmlns="http://www.w3.org/2000/svg">
  <path transform="scale(1, -1) translate(0, -256)" fill="currentColor" d="M235 89l-34 -33q-1 -1 -3 -1t-3 1l-19 19q-2 2 -4.5 2t-5 -2t-2.5 -5t2 -5l19 -19q5 -5 13 -5t13 5l33 33q3 2 3 5t-2 5t-5 2t-5 -2zM228 215h-200q-9 0 -16 -7t-7 -16v-126q0 -10 7 -16.5t16 -6.5h111q3 0 5 2t2 5t-2 5t-5 2h-111q-3 0 -6 3t-3 6v125l97 -59 q6 -3 12.5 -3t12.5 3l97 59v-57q0 -3 2 -5.5t5 -2.5t5 2.5t2 5.5v58q-1 9 -8 16t-16 7zM134 144q-3 -1 -6 -1t-5 1l-93 56h196z" />
</svg>