<svg viewBox="0 0 1024 1024" xmlns="http://www.w3.org/2000/svg">
  <path transform="scale(1, -1) translate(0, -960)" fill="currentColor" d="M512 272q36 0 68.5 14t57.5 39q24 25 37.5 56.5t12.5 66.5v304q0 73 -51.5 124.5t-124.5 51.5t-124.5 -51.5t-51.5 -124.5v-304q0 -73 51.5 -124.5t124.5 -51.5zM368 752q0 59 42 101.5t102 42.5t102 -42t42 -102v-304q0 -29 -10.5 -54.5t-29.5 -46.5q-20 -20 -47 -31.5 t-55 -11.5q-60 0 -102 42t-42 102v304h-2zM832 456q0 7 -4.5 11.5t-11.5 4.5t-11.5 -4.5t-4.5 -11.5q0 -59 -23 -112q-22 -52 -61.5 -91.5t-91.5 -61.5q-53 -23 -112 -23t-112 22q-52 23 -90.5 62t-61.5 91q-22 52 -22 111q0 8 -4.5 12t-11.5 4q-8 0 -12 -4t-4 -12 q0 -64 23 -120q24 -57 65 -100t96 -69t118 -29v-136h-123q-7 0 -11.5 -4.5t-4.5 -11.5t4.5 -11.5t11.5 -4.5h280q7 0 11.5 4.5t4.5 11.5t-4.5 11.5t-11.5 4.5h-125v136q63 4 118 30q56 26 97 69t65 100t24 121z" />
</svg>