<svg viewBox="0 0 256 256" xmlns="http://www.w3.org/2000/svg">
  <path transform="scale(1, -1) translate(0, -256)" fill="currentColor" d="M128 81q20 0 33.5 14t13.5 33v76q0 19 -14 33t-33 14t-33 -14t-14 -33v-76q0 -19 13.5 -33t33.5 -14zM95 204q0 14 9.5 23.5t23 9.5t23 -10t9.5 -23v-76q0 -14 -9.5 -24t-23 -10t-23 10t-9.5 23v77zM211 130q0 3 -2 5t-5 2t-5.5 -2t-2.5 -5q0 -19 -9 -34.5t-25 -25 t-34.5 -9.5t-34.5 9.5t-25.5 25t-9.5 34.5q0 3 -2 5t-5 2t-5 -2t-2 -5q0 -21 10 -39.5t27.5 -30t38.5 -12.5v-29h-28q-3 0 -5.5 -2t-2.5 -5t2.5 -5t5.5 -2h70q3 0 5 2t2 5t-2 5t-5 2h-28v29q21 1 38.5 12.5t28 30t10.5 39.5z" />
</svg>