<svg viewBox="0 0 1024 1024" xmlns="http://www.w3.org/2000/svg">
  <path transform="scale(1, -1) translate(0, -960)" fill="currentColor" d="M512 413q76 0 129 53.5t53 128.5v151q0 75 -53 128.5t-129 53.5t-129 -53.5t-53 -128.5v-151q0 -75 53 -128.5t129 -53.5zM362 746q0 62 44 106t106 44t106 -44t44 -106v-151q0 -62 -44 -106t-106 -44t-106 44t-44 106v151v0zM834 586q0 7 -4.5 11.5t-11.5 4.5 q-8 0 -12 -4.5t-4 -11.5q0 -60 -23 -112q-23 -53 -62 -92t-92 -62q-53 -22 -113 -22t-113 22q-52 23 -91.5 62t-62.5 92q-23 52 -23 112q0 7 -4 11.5t-12 4.5q-7 0 -11.5 -4.5t-4.5 -11.5q0 -65 24 -121q24 -57 65.5 -100t97.5 -69q55 -26 119 -29v-283q0 -7 4.5 -11.5 t11.5 -4.5t11.5 4.5t4.5 11.5v283q64 3 119 29q56 26 97.5 69t65.5 100q24 56 24 121z" />
</svg>