<svg viewBox="0 0 256 256" xmlns="http://www.w3.org/2000/svg">
  <path transform="scale(1, -1) translate(0, -256)" fill="currentColor" d="M178 251q-19 0 -36 -10t-26.5 -26.5t-9.5 -36.5q0 -11 3 -21l-94 -94q-10 -10 -10 -24t10 -24t24 -10t24 10l94 94q11 -3 21 -3q20 0 36.5 9.5t26 26t9.5 36.5t-9.5 36.5t-26 26.5t-36.5 10zM25 25q-6 5 -6 13.5t6 14.5l3 3l28 -29l-2 -2q-7 -6 -15.5 -6t-13.5 6zM66 37 l-29 29l78 77q10 -18 28 -28zM120 178q0 10 3 19l74 -74q-8 -3 -18 -3q-16 0 -29.5 8t-21.5 21t-8 29zM210 129l-81 81q8 13 21 20t28.5 7t29 -8t21.5 -21t8 -29t-7.5 -29t-19.5 -21z" />
</svg>