<svg viewBox="0 0 1024 1024" xmlns="http://www.w3.org/2000/svg">
  <path transform="scale(1, -1) translate(0, -960)" fill="currentColor" d="M930 190q-2 2 -4 2t-3 -2q-9 -4 -20.5 -9t-22.5 -8q-36 -13 -71.5 -20t-72.5 -7q-71 0 -135.5 23t-117.5 65q-53 44 -81 100t-28 116q0 13 3.5 27.5t8.5 26.5q-45 -39 -72 -90q-26 -52 -32.5 -107.5t8.5 -112.5q14 -56 51 -104q17 -26 38.5 -46t47.5 -36 q47 -29 100.5 -38.5t107.5 0.5q9 1 17 3.5t15 5.5l5 2q40 14 76 34q37 20 70 46.5t61 57.5t51 67q3 1 3 2.5t-3 1.5v0zM421 -10q-1 2 -3 2.5t-4 2.5q-25 17 -46.5 37.5t-39.5 45.5q-38 53 -53.5 117t-5.5 130q9 66 43.5 120.5t87.5 93.5l1 1t4 1q5 3 11.5 7.5t13.5 8.5 q5 3 10 5t11 6h2q9 5 26 10.5t36 5.5q28 0 52.5 -11t42.5 -27q-2 3 -4 5t-3 6q-15 25 -40.5 55t-76.5 57q-52 27 -101 32.5t-60 5.5q-58 0 -109 -16q-52 -17 -92.5 -46.5t-67.5 -69.5t-35 -87q-4 -8 -4.5 -16.5t-0.5 -17.5q0 -56 12 -110.5t36 -105.5q29 -61 72 -111 t96.5 -86.5t114.5 -58.5t125 -28q10 -2 20 -2h20h2q-9 1 -16.5 3.5t-15.5 6.5q-16 4 -31.5 12t-29.5 16v0zM968 686l-2 5q-30 58 -77 105t-106 80t-128 50q-69 18 -143 18q-82 0 -156 -26q-75 -25 -136.5 -70.5t-107.5 -108.5q-46 -62 -70 -136q-2 -5 -4 -11t-3 -11 q5 8 11.5 16.5t12.5 16.5q12 12 24.5 24t25.5 21q42 30 96.5 48.5t114.5 18.5q17 0 67 -5.5t104 -34.5q54 -28 82.5 -60t44.5 -60q7 -12 12 -24.5t8 -24.5q2 -9 4 -17t3 -17q1 -12 1 -21.5v-15.5v-1.5v-2.5q0 -18 -9 -42t-24 -45q-1 -1 -2 -1.5t-3 -3.5q-4 -3 -5 -5t-1 -6 q0 -5 3 -10t9 -11q39 -27 97 -30t62 -2q30 0 58.5 8.5t56.5 23.5q54 30 84.5 84t30.5 116q4 64 -10.5 106t-24.5 62v0z" />
</svg>