<svg viewBox="0 0 1024 1024" xmlns="http://www.w3.org/2000/svg">
  <path transform="scale(1, -1) translate(0, -960)" fill="currentColor" d="M928 851h-832q-26 0 -45 -18.5t-19 -45.5v-680q0 -26 19 -45t45 -19h832q26 0 45 19t19 45v680q0 28 -19 46t-45 18zM96 819h832q13 0 22.5 -9.5t9.5 -22.5v-137h-896v137q0 15 9.5 23.5t22.5 8.5zM928 77h-832q-13 0 -22.5 9.5t-9.5 22.5v510h896v-510q0 -15 -9.5 -23.5 t-22.5 -8.5zM512 499h-250q-26 0 -45 -18.5t-19 -45.5v-181q0 -26 19 -45t45 -19h250q26 0 45 19t19 45v181q0 27 -19 45.5t-45 18.5v0zM544 254q0 -13 -9.5 -22.5t-22.5 -9.5h-250q-13 0 -22.5 9.5t-9.5 22.5v181q0 13 9.5 22.5t22.5 9.5h250q13 0 22.5 -9.5t9.5 -22.5 v-181v0zM786 298q-27 0 -45.5 -19t-18.5 -45q0 -27 18.5 -45.5t45.5 -18.5q26 0 45 18.5t19 45.5q0 26 -19 45t-45 19zM786 202q-14 0 -23 9t-9 23q0 13 9 22.5t23 9.5q13 0 22.5 -9.5t9.5 -22.5q0 -14 -9.5 -23t-22.5 -9zM786 349q7 0 11.5 4.5t4.5 11.5v115q0 7 -4.5 11.5 t-11.5 4.5q-8 0 -12 -4.5t-4 -11.5v-115q0 -7 4 -11.5t12 -4.5z" />
</svg>