<svg viewBox="0 0 1024 1024" xmlns="http://www.w3.org/2000/svg">
  <path transform="scale(1, -1) translate(0, -960)" fill="currentColor" d="M992 642q0 59 -22 111q-23 52 -61.5 91t-90.5 62q-52 22 -111 22q-58 0 -109 -22q-52 -22 -90.5 -59.5t-61.5 -88.5q-22 -51 -24 -108l-358 -402q-10 -11 -10 -25.5t10 -25.5l2 -2q1 -2 1 -4.5t-1 -4.5l-12 -10q-10 -12 -16 -26t-6 -30t6 -30.5t18 -25.5l72 -74 q12 -12 26 -17t30 -5t30 6t26 16l10 10q2 2 3.5 2t4.5 -2l8 -8l1 2q11 -6 23 -5t22 9l402 359q57 1 108 24t88.5 61.5t59.5 89.5t22 110v0zM960 642q0 -30 -7 -59t-20 -55l-336 342q25 12 52.5 19t56.5 7q52 0 99 -20q46 -20 80.5 -54.5t54.5 -80.5q20 -47 20 -99v0z M480 755l334 -341q-25 -12 -51.5 -18t-56.5 -6q-53 0 -99 20t-80 54.5t-54 80.5t-20 98q0 30 7 58.5t20 53.5zM227 22l-9 -9q-14 -13 -33.5 -13t-34.5 13l-73 72q-6 7 -9.5 16t-3.5 19t3.5 18t10.5 16l12 11l2 2t2 3l140 -141q-3 -3 -4.5 -4t-2.5 -3v0zM290 22 q-3 -1 -5.5 -1t-4.5 1v0h-2l-192 196q-1 2 -1 4t1 4l336 376q7 -48 28 -89q21 -42 53 -74.5t74 -53.5q41 -21 89 -27l-376 -336v0zM843 429l-347 355q14 22 32 39.5t40 30.5l347 -353q-13 -22 -31.5 -40t-40.5 -32z" />
</svg>