<svg viewBox="0 0 1024 1024" xmlns="http://www.w3.org/2000/svg">
  <path transform="scale(1, -1) translate(0, -960)" fill="currentColor" d="M714 928q-58 0 -109 -22q-50 -22 -88 -59.5t-60 -88.5t-22 -108q0 -23 3.5 -45.5t11.5 -42.5l-383 -383q-17 -18 -26 -40.5t-9 -47.5t9 -47.5t26 -40.5q19 -17 41.5 -26t46.5 -9t47 8.5t41 26.5l381 381v3q22 -7 44.5 -11.5t45.5 -4.5q57 0 108 22t88.5 60t59.5 88 q22 51 22 109q0 57 -22 108t-59.5 88.5t-88.5 59.5t-108 22zM91 27q-13 12 -20 29t-7 35t7 35.5t20 30.5l19 19l130 -130l-19 -19q-27 -26 -65 -26t-65 26v0zM262 67l-129 130l331 333q20 -42 54 -76t76 -54l-332 -333v0zM467 650q0 25 5 49t14 47l322 -324 q-22 -9 -45.5 -14t-48.5 -5q-51 0 -96 20q-45 19 -78.5 52.5t-52.5 78.5q-20 45 -20 96v0zM838 437l-336 337q32 54 88 88t124 34q51 0 95 -19q45 -20 78.5 -53.5t53.5 -78.5q19 -44 19 -95q0 -69 -34 -125t-88 -88v0z" />
</svg>