<svg viewBox="0 0 256 256" xmlns="http://www.w3.org/2000/svg">
  <path transform="scale(1, -1) translate(0, -256)" fill="currentColor" d="M192 19h-46v27l5 1q19 2 34.5 13.5t24.5 29.5t9 39q0 18 -6.5 33.5t-18.5 27.5q-5 4 -9 7l12 19q3 5 1 11t-6 9l-24 13q-5 3 -10.5 1.5t-8.5 -7.5l-54 -84q-3 -5 -1 -11t6 -9l24 -13q3 -2 7 -2l4 1q6 2 8 7l35 54l1 -2q3 -2 5 -4q10 -10 15.5 -23t5.5 -28 q0 -26 -16 -45.5t-40 -22.5h-8l-9 1q-13 2 -24.5 9t-18.5 19h33q3 0 5 2t2 5t-2 5t-5 2h-78q-3 0 -5.5 -2t-2.5 -5t2.5 -5t5.5 -2h29q9 -17 24 -28t33 -14h2v-28h-46q-3 0 -5 -2.5t-2 -5.5t2 -5t5 -2h106q3 0 5 2t2 5t-2.5 5t-4.5 2zM131 139v-1l-24 13v1l55 85l23 -13v-1z " />
</svg>