<svg viewBox="0 0 1024 1024" xmlns="http://www.w3.org/2000/svg">
  <path transform="scale(1, -1) translate(0, -960)" fill="currentColor" d="M766 0h-195v133q9 0 16 0.5t15 0.5q56 7 104 34q48 28 83 70.5t55 96.5q20 55 20 116q0 69 -25.5 130t-73.5 107q-7 7 -15.5 14t-18.5 13l39 58q8 13 11 29t0 32q-4 15 -12.5 28t-22.5 23l-29 19q-13 8 -29 11.5t-32 -0.5q-16 -3 -29 -12t-22 -23l-179 -280 q-9 -13 -12 -29t0 -32q4 -15 12.5 -28t23.5 -23l28 -19q10 -6 21.5 -9.5t22.5 -3.5q19 0 37 9.5t30 27.5l126 195q7 -6 15 -11.5t14 -12.5q43 -41 66.5 -95.5t23.5 -117.5q0 -54 -18 -103q-18 -50 -49.5 -88t-74.5 -63t-94 -31q-7 -1 -15 -1h-17q-10 0 -19.5 1t-20.5 2 q-60 10 -109.5 46t-80.5 92h154q7 0 11.5 4t4.5 12q0 7 -4.5 11.5t-11.5 4.5h-316q-7 0 -11.5 -4.5t-4.5 -11.5q0 -8 4.5 -12t11.5 -4h127q32 -69 91 -113.5t130 -56.5q4 -1 8 -1.5t8 -0.5v-134h-194q-7 0 -11.5 -4.5t-4.5 -11.5t4.5 -11.5t11.5 -4.5h422q8 0 12 4.5t4 11.5 t-5 11.5t-11 4.5v0zM562 512q-11 -17 -31 -21t-37 7l-28 19q-9 5 -14 13t-7 17q-3 10 -1 19.5t7 17.5l183 278q4 9 12 14t18 7q2 0 4.5 1t5.5 1q7 0 13 -2.5t12 -5.5l29 -19q8 -5 13 -13t8 -18q2 -9 0 -18.5t-7 -18.5l-180 -278v0z" />
</svg>