<svg viewBox="0 0 256 256" xmlns="http://www.w3.org/2000/svg">
  <path transform="scale(1, -1) translate(0, -256)" fill="currentColor" d="M232 232h-208q-8 0 -13.5 -5.5t-5.5 -13.5v-170q0 -8 5.5 -13.5t13.5 -5.5h208q8 0 13.5 5.5t5.5 13.5v170q0 8 -5.5 13.5t-13.5 5.5zM24 218h208q2 0 3.5 -1.5t1.5 -3.5v-31h-218v31q0 2 1.5 3.5t3.5 1.5zM232 38h-208q-2 0 -3.5 1.5t-1.5 3.5v125h218v-125 q0 -2 -1.5 -3.5t-3.5 -1.5zM128 144h-62q-8 0 -14 -6t-6 -14v-45q0 -8 6 -13.5t14 -5.5h62q8 0 13.5 5.5t5.5 13.5v46q0 8 -5.5 13.5t-13.5 5.5zM133 80q0 -2 -1.5 -4t-3.5 -2h-62q-3 0 -4.5 1.5t-1.5 4.5v45q0 2 2 3.5t4 1.5h62q2 0 3.5 -1.5t1.5 -3.5v-45zM196 86 q-4 0 -8 -3.5t-4 -8t3.5 -8.5t8.5 -4t8.5 3.5t3.5 8.5t-3.5 8.5t-8.5 3.5zM196 100q3 0 5.5 2t2.5 5v29q0 3 -2.5 5t-5.5 2t-5 -2t-2 -5v-29q0 -3 2 -5t5 -2z" />
</svg>