<svg viewBox="0 0 256 256" xmlns="http://www.w3.org/2000/svg">
  <path transform="scale(1, -1) translate(0, -256)" fill="currentColor" d="M251 176q0 21 -10 38t-27 27t-37 10t-36.5 -9.5t-27 -26t-11.5 -36.5l-88 -99q-3 -3 -3 -8t3 -8l-2 -2q-7 -7 -7 -16.5t7 -15.5l18 -18q7 -6 16.5 -6t15.5 6l2 2v-1h1q3 -2 7.5 -2t7.5 3l100 89q19 1 35.5 10.5t26 26.5t9.5 36zM237 176q0 -12 -5 -23l-78 80q11 4 22 4 q17 0 31 -8t22 -22t8 -31zM116 176q0 13 5 23l77 -79q-9 -4 -22 -4q-16 0 -29.5 8t-22 22t-8.5 30zM52 22q-2 -3 -5.5 -3t-6.5 3l-18 18q-2 2 -3 5.5t3 6.5l1 2l31 -31zM72 25l-47 47l79 88q5 -21 20 -36t36 -20zM211 127l-83 85q6 8 14 14l83 -85q-6 -8 -14 -14z" />
</svg>