<svg viewBox="0 0 256 256" xmlns="http://www.w3.org/2000/svg">
  <path transform="scale(1, -1) translate(0, -256)" fill="currentColor" d="M128 116q20 0 34 14.5t14 34.5v37q0 20 -14 34.5t-34 14.5t-34 -14.5t-14 -34.5v-37q0 -20 14 -34.5t34 -14.5zM128 237q14 0 24 -10t10 -24h-4q-3 0 -5.5 -2t-2.5 -5t2.5 -5.5t5.5 -2.5h4v-17h-4q-3 0 -5.5 -2t-2.5 -5t2.5 -5.5t5.5 -2.5h4q-3 -11 -12.5 -19t-21.5 -8 t-21.5 8t-12.5 19h4q3 0 5.5 2.5t2.5 5.5t-2.5 5t-5.5 2h-4v17h4q3 0 5.5 2.5t2.5 5.5t-2.5 5t-5.5 2h-4q0 14 10 24t24 10zM212 162q0 3 -2.5 5.5t-5.5 2.5t-5 -2.5t-2 -5.5q0 -18 -9.5 -34t-25.5 -25t-34.5 -9t-34.5 9t-25.5 25t-9.5 34q0 3 -2 5.5t-5 2.5t-5 -2.5 t-2 -5.5q0 -21 10 -39.5t27.5 -29.5t38.5 -13v-68q0 -3 2 -5t5 -2t5 2t2 5v68q22 2 39.5 13.5t28 29.5t10.5 39z" />
</svg>