<svg viewBox="0 0 256 256" xmlns="http://www.w3.org/2000/svg">
  <path transform="scale(1, -1) translate(0, -256)" fill="currentColor" d="M200 149l-24 41v17h6q3 0 5.5 2t2.5 5t-2.5 5.5t-5.5 2.5h-6v5q0 10 -7 17t-16 7h-50q-10 0 -16.5 -7t-6.5 -17v-6h-6q-3 0 -5.5 -2t-2.5 -5t2.5 -5t5.5 -2h6v-18l-24 -41v-3v-117q0 -10 7 -17t16 -7h98q10 0 17 7t7 17v117q0 3 -1 4zM94 227q0 4 2.5 7t6.5 3h49 q4 0 7 -3t3 -7v-6h-68v6zM93 184q1 2 1 4v19h68v-19l1 -4l16 -27l-15 -4q-17 -4 -32 3q-11 5 -23.5 5t-24.5 -5l-10 -4zM187 29q0 -4 -3 -7t-7 -3h-98q-4 0 -6.5 3t-2.5 7v106l20 8q9 4 18.5 3.5t18.5 -4.5q20 -8 41 -3l18 5l1 -1v-114z" />
</svg>