<svg viewBox="0 0 1024 1024" xmlns="http://www.w3.org/2000/svg">
  <path transform="scale(1, -1) translate(0, -960)" fill="currentColor" d="M789 525l-95 166v85h37q7 0 11.5 4.5t4.5 11.5t-4.5 11.5t-11.5 4.5h-37v37q-1 35 -25 59t-58 24h-198q-34 0 -58.5 -24t-24.5 -59v-37h-37q-7 0 -11.5 -4.5t-4.5 -11.5t4.5 -11.5t11.5 -4.5h37v-85l-95 -166q-1 -3 -1 -4.5v-3.5v-467q0 -34 24 -59t59 -25h392 q33 0 58 24.5t25 59.5v467q-1 2 -1.5 4.5t-1.5 3.5v0zM363 845q0 20 15 35.5t36 15.5h197q21 0 36 -15t15 -36v-37h-299v37v0zM360 678l1.5 4.5t0.5 3.5v90h299v-90v-3.5t1 -4.5l71 -123l-74 -19q-33 -8 -68 -5.5t-66 16.5q-43 19 -91.5 20t-92.5 -17l-72 -28l91 156v0z M758 51q0 -20 -14.5 -35.5t-36.5 -15.5h-390q-21 0 -36 15t-15 36v434h1.5h1.5l86 35q39 16 80 15t79 -18q37 -17 77 -20t79 7l82 22l8 -14v-461h-2z" />
</svg>