<svg viewBox="0 0 256 256" xmlns="http://www.w3.org/2000/svg">
  <path transform="scale(1, -1) translate(0, -256)" fill="currentColor" d="M192 245q-21 0 -36.5 -12t-21.5 -31q-14 7 -32 9v17q0 3 -2 5t-5 2t-5 -2t-2 -5v-17h-3q-19 -2 -35.5 -13t-25.5 -27t-9 -35v-71q0 -5 -2 -7l-7 -11q-3 -6 0 -10v-1q3 -5 9 -5h73v-13q0 -3 2 -5.5t5 -2.5t5 2.5t2 5.5v13h74q6 0 8 5q2 2 2 5t-2 5l-7 11q-2 3 -2 7v65 q8 -3 17 -3q16 0 30 8t22 22t7.5 30t-8.5 29.5t-21.5 21.5t-29.5 8zM165 50l3 -4h-146l3 5q3 6 4 13v72q0 24 16.5 41t41 20t45.5 -10v-1q0 -16 7.5 -29t20.5 -22v-71q1 -7 5 -14zM192 140q-19 0 -32.5 13.5t-13.5 32.5t13.5 32t32 13t32 -13t13.5 -32t-13 -32.5t-32 -13.5z M203 193h-23q-3 0 -5 -2t-2 -5t2 -5.5t5 -2.5h23q3 0 5 2.5t2 5.5t-2 5t-5 2z" />
</svg>