<svg viewBox="0 0 1024 1024" xmlns="http://www.w3.org/2000/svg">
  <path transform="scale(1, -1) translate(0, -960)" fill="currentColor" d="M766 904q-40 0 -77 -14t-66 -38t-49 -57q-21 -33 -28 -72q-34 21 -72 32t-79 13v78q0 8 -4.5 12t-11.5 4t-11.5 -4t-4.5 -12v-78h-11t-11 -2q-58 -6 -107 -31t-85 -64t-57 -88q-20 -49 -20 -105v-286q-1 -11 -3.5 -18.5t-6.5 -13.5l-27 -45q-5 -7 -5 -14t5 -15 q4 -6 10.5 -9t15.5 -3h302v-66q0 -7 4.5 -11.5t11.5 -4.5t11.5 4.5t4.5 11.5v66h306q7 0 13.5 3t10.5 9q3 5 4 13.5t-4 15.5l-29 45q-5 8 -7.5 16.5t-2.5 17.5v273q20 -7 39.5 -10.5t40.5 -3.5q47 0 88 18q41 17 72 47.5t48 72.5q18 41 18 87q0 47 -18 88q-17 41 -48 72 t-72 48q-41 18 -88 18v0zM669 142l24 -36h-312v0v0v0v0h-314l24 40q5 9 8.5 20t4.5 24v290q0 49 18 93q19 44 51 78t76 57q44 22 95 28q53 6 103 -6.5t92 -39.5v-5.5v-4.5q0 -62 31.5 -114t82.5 -81v-290q1 -14 5 -27.5t11 -25.5v0zM766 485q-40 0 -75 15t-61.5 41.5 t-41.5 61.5t-15 75q0 41 15 76t41.5 61.5t61.5 41.5t75 15q41 0 76 -15t61.5 -41.5t41.5 -61.5t15 -76q0 -40 -15 -75t-41.5 -61.5t-61.5 -41.5t-76 -15v0zM811 694h-91q-7 0 -11.5 -4t-4.5 -12q0 -7 4.5 -11.5t11.5 -4.5h91q7 0 11.5 4.5t4.5 11.5q0 8 -4.5 12t-11.5 4z " />
</svg>