<svg viewBox="0 0 256 256" xmlns="http://www.w3.org/2000/svg">
  <path transform="scale(1, -1) translate(0, -256)" fill="currentColor" d="M201 19h-33q-3 0 -5 -2t-2 -5t2 -5.5t5 -2.5h33q3 0 5 2.5t2 5.5t-2 5t-5 2zM143 19h-31q-3 0 -5 -2t-2 -5t2 -5.5t5 -2.5h31q3 0 5 2.5t2 5.5t-2 5t-5 2zM203 189h-3v39q0 9 -6.5 16t-16.5 7h-149q-9 0 -16 -7t-7 -16v-149q0 -9 7 -16t16 -7h38v-2q0 -3 2.5 -5t5.5 -2 t5 2t2 5v111q0 4 3 7t6 3h114q3 0 5 2t2 5t-2.5 5t-5.5 2zM66 165v-95h-38q-4 0 -6.5 2.5t-2.5 6.5v149q0 3 3 6t6 3h149q4 0 6.5 -2.5t2.5 -6.5v-39h-96q-10 0 -17 -7t-7 -17zM228 176q4 0 6.5 -3t2.5 -6t2 -5t5 -2t5.5 2t2.5 5q0 9 -7 16t-16 7q-3 0 -5 -2.5t-2 -5.5 t1.5 -4.5t4.5 -1.5zM244 149q-3 0 -5 -2t-2 -5v-32q0 -3 2 -5t5 -2t5 2t2 5v32q0 3 -2 5t-5 2zM244 92q-3 0 -5 -2t-2 -5v-31q0 -3 2 -5.5t5 -2.5t5 2.5t2 5.5v31q0 3 -2 5t-5 2zM244 35q-3 0 -5 -2t-2 -5.5t-2.5 -6t-6 -2.5t-5.5 -2t-2 -5t2 -5.5t5 -2.5q9 0 16 7t7 16 q0 3 -2 5.5t-5 2.5zM89 19q-3 0 -6 2.5t-3 6t-2 5.5t-5 2t-5 -2t-2 -5q0 -10 6.5 -16.5t16.5 -6.5q3 0 5 2t2 5t-2 5t-5 2z" />
</svg>