<svg viewBox="0 0 1024 1024" xmlns="http://www.w3.org/2000/svg">
  <path transform="scale(1, -1) translate(0, -960)" fill="currentColor" d="M803 0h-129q-8 0 -12 -4.5t-4 -11.5t4 -11.5t12 -4.5h129q7 0 11.5 4.5t4.5 11.5t-5 11.5t-11 4.5zM573 0h-125q-7 0 -11.5 -4.5t-4.5 -11.5t4.5 -11.5t11.5 -4.5h125q7 0 11.5 4.5t4.5 11.5t-4.5 11.5t-11.5 4.5zM813 678h-23v168q0 34 -24 58t-57 24h-595 q-34 0 -58 -24t-24 -58v-593q0 -34 24 -58t58 -24h163v-19q0 -7 4.5 -11.5t11.5 -4.5t11.5 4.5t4.5 11.5v445q0 20 14.5 34.5t34.5 14.5h453q7 0 11.5 4.5t4.5 11.5q0 8 -4 12t-10 4v0zM278 597v-395h-164q-21 0 -35.5 14.5t-14.5 36.5v593q0 21 14.5 35.5t35.5 14.5h593 q21 0 35.5 -14.5t14.5 -35.5v-166h-397q-34 -1 -58 -25.5t-24 -57.5v0zM914 650q19 0 32.5 -14t13.5 -33q0 -7 4.5 -11.5t11.5 -4.5t11.5 4.5t4.5 11.5q0 33 -23 56t-55 23q-8 0 -12 -4.5t-4 -11.5q0 -8 4 -12t12 -4zM976 518q-7 0 -11.5 -4t-4.5 -12v-124q0 -8 4.5 -12 t11.5 -4t11.5 4t4.5 12v124q0 8 -4.5 12t-11.5 4v0zM976 293q-7 0 -11.5 -4.5t-4.5 -11.5v-125q0 -7 4.5 -11.5t11.5 -4.5t11.5 4.5t4.5 11.5v125q0 6 -4.5 11t-11.5 5zM976 62q-7 0 -11.5 -4t-4.5 -12q0 -19 -13.5 -32.5t-32.5 -13.5q-8 0 -12 -4.5t-4 -11.5t4 -11.5 t12 -4.5q32 0 55 23t23 55q0 8 -4.5 12t-11.5 4zM357 0q-19 0 -33 13.5t-14 32.5q0 8 -4 12t-12 4q-7 0 -11.5 -4t-4.5 -12q0 -32 23 -55t56 -23q7 0 11.5 4.5t4.5 11.5t-5 11.5t-11 4.5v0z" />
</svg>