<svg viewBox="0 0 256 256" xmlns="http://www.w3.org/2000/svg">
  <path transform="scale(1, -1) translate(0, -256)" fill="currentColor" d="M191 19h-56v21q18 2 33.5 15t24 33t8.5 43.5t-8.5 43.5t-24 33t-33.5 15v21q0 3 -2 5t-5 2t-5 -2t-2 -5v-21q-18 -2 -33.5 -15t-24 -33t-8.5 -43.5t8.5 -43.5t24 -32.5t33.5 -15.5v-21h-56q-3 0 -5 -2t-2 -5t2 -5t5 -2h125q3 0 5.5 2t2.5 5t-2 5t-5 2zM69 132 q0 21 8 38.5t21.5 28t29.5 10.5t29.5 -10.5t21.5 -28t8 -38.5t-8 -39t-21.5 -28.5t-29.5 -10.5t-29.5 10.5t-21.5 28.5t-8 39z" />
</svg>