<svg viewBox="0 0 1024 1024" xmlns="http://www.w3.org/2000/svg">
  <path transform="scale(1, -1) translate(0, -960)" fill="currentColor" d="M987 -5l-301 301q40 44 56.5 103.5t7.5 126.5q-8 71 -43 139.5t-91 124.5q-59 59 -128 93q-69 35 -138 43t-131 -10q-63 -19 -109 -65t-64 -109t-10 -131.5t42 -137.5t93 -127q57 -57 125 -91.5t139 -43.5q12 -1 23 -2t22 -1q54 0 101 17t85 50l300 -301q3 -2 6 -3t6 -1 q2 0 5 1t6 3q3 4 3 10t-5 11v0zM437 242q-65 8 -128.5 40.5t-116.5 85.5q-54 54 -86 117t-40 126t8 119q16 57 57 99q35 33 80.5 50t95.5 17q36 0 73 -8q38 -9 74.5 -25t71.5 -40t66 -55q53 -53 85.5 -116t40.5 -129q9 -65 -8.5 -120.5t-56.5 -95.5q-40 -39 -95.5 -56.5 t-120.5 -8.5v0z" />
</svg>