<svg viewBox="0 0 1024 1024" xmlns="http://www.w3.org/2000/svg">
  <path transform="scale(1, -1) translate(0, -960)" fill="currentColor" d="M763 0h-235v107q55 4 104 34q48 29 84 76.5t57 109.5q21 63 21 134t-21 134t-57 111t-84 77q-49 29 -104 33v96q0 7 -4.5 11.5t-11.5 4.5t-11.5 -4.5t-4.5 -11.5v-96q-55 -4 -104 -33q-48 -30 -84 -77.5t-57 -109.5q-21 -63 -21 -134q0 -70 21 -133t56.5 -110.5 t84.5 -76.5q48 -30 104 -33v-109h-235q-7 0 -11.5 -4.5t-4.5 -11.5t4.5 -11.5t11.5 -4.5h501q7 0 11.5 4.5t4.5 11.5t-4.5 11.5t-10.5 4.5zM262 462q0 67 20 126t53.5 103t79.5 69q45 26 97 26t97 -26q45 -25 79 -69t54 -103t20 -126q0 -66 -20 -125t-53.5 -103t-79.5 -69 q-45 -26 -97 -26t-97 26q-45 25 -79 69t-54 103t-20 125v0z" />
</svg>