<svg viewBox="0 0 1024 1024" xmlns="http://www.w3.org/2000/svg">
  <path transform="scale(1, -1) translate(0, -960)" fill="currentColor" d="M797 0h-87v203q0 3 -1 5t-2 5q28 27 50 62q23 35 38.5 75t24.5 85t9 93q0 83 -25 156q-25 72 -68 126.5t-101 86.5q-58 31 -123 31t-123 -31q-58 -32 -101 -86.5t-68 -127.5t-25 -157q0 -48 9 -92q8 -45 24 -85.5t39 -74.5q22 -35 50 -63l-2 -4t-1 -5v-202h-87 q-7 0 -11.5 -4.5t-4.5 -11.5t4.5 -11.5t11.5 -4.5h570q7 0 11.5 4.5t4.5 11.5t-5 11.5t-11 4.5zM227 526q0 77 23 145q22 67 60.5 117t90.5 79t111 29t111 -29q51 -29 90 -79t61 -117q23 -68 23 -145q0 -76 -23 -144q-22 -67 -60.5 -117t-90.5 -79t-111 -29t-111 30 q-52 29 -90.5 79t-60.5 117q-23 67 -23 143v0zM346 186q36 -29 78 -44.5t88 -15.5t88 16t78 44v-186h-332v186v0z" />
</svg>