<svg viewBox="0 0 256 256" xmlns="http://www.w3.org/2000/svg">
  <path transform="scale(1, -1) translate(0, -256)" fill="currentColor" d="M236 39l-38 67q-3 5 -8 8t-12 3q-13 0 -20 -11l-10 -20l-44 78v22h75q4 0 6 4q1 2 1 4t-1 3l-15 21l14 22q3 3 1 7t-7 4h-65q-9 0 -16 -7t-7 -16v-64l-70 -125q-3 -5 -3 -11t3 -11.5t8 -8.5t12 -3h176q6 0 11.5 3t8.5 8t3 11.5t-3 11.5zM97 148l23 -40l-3 -2l-9 -8l-8 8 q-2 2 -5 2t-5 -2l-9 -9l-8 9zM104 228q0 4 3 6.5t6 2.5h52l-10 -14q-2 -4 0 -8l10 -14h-61v27zM114 19h-74q-5 0 -7.5 4t-0.5 9l34 60l11 -10q2 -2 4.5 -2t4.5 2l9 9l9 -9q2 -2 4.5 -2t5.5 2l12 13l44 -77h-56v1zM224 23q-3 -4 -8 -4h-30l-30 53l15 27q3 4 8 4t7 -4l38 -67 q2 -4 0 -9z" />
</svg>