<svg viewBox="0 0 1024 1024" xmlns="http://www.w3.org/2000/svg">
  <path transform="scale(1, -1) translate(0, -960)" fill="currentColor" d="M933 86l-149 266q-11 19 -29 29.5t-40 10.5v0v0q-21 0 -39.5 -10.5t-29.5 -29.5l-54 -96l-187 331v106h310q5 0 8.5 2t6.5 6q2 3 1 7.5t-3 8.5l-66 91l66 91q2 4 2.5 8.5t-0.5 7.5q-3 7 -7 10t-8 3h-262q-33 0 -56.5 -23t-23.5 -57v-261l-282 -501q-11 -19 -11 -39.5 t11 -38.5q11 -19 29 -29.5t40 -10.5h704q22 0 40 10.5t29 29.5q11 18 11 38.5t-11 39.5v0zM389 550l104 -184l-58 -57l-41 41q-5 5 -11.5 5t-11.5 -5l-45 -44l-48 48l111 196v0zM405 848q0 19 13.5 33.5t34.5 14.5h232l-55 -75q-2 -4 -2 -9.5t2 -9.5l55 -76h-280v122v0z M456 0h-296q-13 0 -23.5 6t-18.5 18q-6 11 -6 23.5t6 22.5v0v0l144 256l53 -52q3 -3 5.5 -4t5.5 -1q4 0 6.5 1t5.5 4l44 44l42 -41q5 -5 11.5 -5t10.5 5l63 62l190 -339h-243v0zM906 24q-8 -12 -18.5 -18t-23.5 -6h-128l-126 224l64 112q6 11 17 17.5t24 6.5t24 -6.5 t18 -17.5l150 -266q5 -10 5 -22.5t-6 -23.5z" />
</svg>