<svg viewBox="0 0 256 256" xmlns="http://www.w3.org/2000/svg">
  <path transform="scale(1, -1) translate(0, -256)" fill="currentColor" d="M76 122h80q15 0 27 7.5t19.5 19.5t7.5 26q0 21 -14 36q-12 13 -30 16q-10 15 -27 21q-7 3 -17 3q-20 0 -35 -14t-16 -33q-16 -3 -26 -14t-10 -27.5t12 -28.5t29 -12zM76 190h2q3 0 5 2t2 5v3q0 15 11 26t27 11q6 0 12 -2q13 -4 21 -17q2 -3 5 -4q14 -1 25 -12t11 -27 t-12 -27t-28 -11h-81q-12 0 -20 7.5t-8 19t8 19t20 7.5zM35 61l22 16q7 5 13 0l11 -8q7 -5 15 -5t15 5l11 8q3 2 6.5 2t6.5 -2l11 -8q7 -5 15 -5t15 5l11 8q6 5 13 0l22 -16q1 -1 4.5 -1t5 2.5t1 5.5t-2.5 4l-22 16q-7 5 -15 5t-15 -5l-11 -8q-7 -4 -13 0l-11 8q-7 5 -15 5 t-15 -5l-11 -8q-6 -4 -13 0l-11 8q-7 5 -15 5t-15 -5l-22 -16q-2 -1 -2.5 -4t1.5 -5.5t5 -3t5 1.5zM229 18l-22 16q-6 4 -14.5 4t-14.5 -4l-12 -9q-6 -4 -12 0l-12 9q-6 4 -14.5 4t-14.5 -4l-11 -9q-7 -4 -13 0l-11 9q-7 4 -15 4t-15 -4l-22 -16q-2 -2 -2.5 -5t1.5 -5 t5 -2.5t5 0.5l22 16q7 5 13 0l11 -8q7 -5 15 -5t15 5l11 8q6 5 13 0l11 -8q7 -5 15 -5t15 5l11 8q6 5 13 0l22 -16q1 -1 4.5 -1t5 2.5t1 5.5t-3.5 5z" />
</svg>