<svg viewBox="0 0 1024 1024" xmlns="http://www.w3.org/2000/svg">
  <path transform="scale(1, -1) translate(0, -960)" fill="currentColor" d="M304 437v0v0h320q42 0 79 16q37 15 65 42.5t45 63.5q16 36 16 78q0 37 -14 72.5t-41 63.5q-22 24 -53 40t-65 21q-18 30 -44.5 51t-57.5 32q-15 5 -30.5 8t-33.5 3q-80 0 -137 -55.5t-59 -133.5q-60 -3 -102 -46.5t-42 -103.5q0 -63 45 -107.5t109 -44.5zM304 709h6 q8 0 12 4.5t4 11.5v11q0 66 48 113t116 47q14 0 27 -2.5t25 -7.5q29 -9 52.5 -28.5t37.5 -46.5q2 -3 5 -5.5t8 -2.5q30 -3 58 -17t47 -36q22 -24 34.5 -53t12.5 -60q0 -70 -50.5 -119t-122.5 -49h-320q-52 0 -87 34.5t-35 85.5q0 50 36 85t86 35zM133 190l88 64 q14 11 32.5 11t32.5 -11l45 -33q23 -17 51.5 -17t52.5 17l45 33q14 11 32.5 11t33.5 -11l44 -33q23 -17 51.5 -17t52.5 17l45 33q15 11 33 11t33 -11l88 -64q2 -1 4.5 -2t4.5 -1q4 0 7.5 1.5t5.5 5.5q4 4 3 11t-6 11l-88 64q-23 17 -51.5 17t-52.5 -17l-45 -34 q-14 -10 -32.5 -10t-32.5 10l-45 34q-23 17 -51.5 17t-52.5 -17l-45 -34q-14 -10 -32.5 -10t-33.5 10l-46 34q-23 17 -51.5 17t-52.5 -17l-88 -64q-5 -4 -6 -11t3 -11q5 -6 12 -7t12 3v0zM822 61q-22 17 -51 17t-53 -17l-44 -34q-15 -11 -33.5 -11t-32.5 11l-45 34 q-23 17 -51.5 17t-52.5 -17l-45 -34q-14 -11 -32.5 -11t-32.5 11l-45 34q-23 17 -51.5 17t-52.5 -17l-88 -64q-5 -4 -6 -11t3 -12q3 -4 10 -5t12 2l88 64q15 11 33 11t33 -11l45 -33q22 -17 51 -17t53 17l44 33q15 11 33.5 11t32.5 -11l45 -33q23 -17 51.5 -17t52.5 17 l45 33q14 11 32.5 11t32.5 -11l88 -64q3 -1 5 -2t5 -1t6.5 1.5t6.5 4.5q3 5 2 12t-6 11l-88 64v0z" />
</svg>