<svg viewBox="0 0 256 256" xmlns="http://www.w3.org/2000/svg">
  <path transform="scale(1, -1) translate(0, -256)" fill="currentColor" d="M216 5h-112q-11 0 -19.5 8t-8.5 20v10l-52 45q-11 11 -12 26t9 26.5t25.5 13t27.5 -8.5l3 -3v23q-1 22 9.5 41t28.5 31t39 14q19 1 36 -5.5t29.5 -19t18.5 -27.5t6 -32v-134q0 -12 -8 -20t-20 -8zM49 140h-2q-10 -1 -16 -8.5t-5.5 -17t8.5 -15.5l54 -47q2 -2 2 -5v-14 q0 -6 4 -10t10 -4h112q6 0 10 4t4 10v134q0 14 -5.5 27t-15.5 23t-24 15.5t-30 4.5q-18 -1 -33 -11t-23.5 -26.5t-8.5 -35.5v-38q0 -4 -4 -6q-2 -1 -4 -0.5t-4 1.5l-14 13q-7 6 -15 6z" />
</svg>