<svg viewBox="0 0 1024 1024" xmlns="http://www.w3.org/2000/svg">
  <path transform="scale(1, -1) translate(0, -960)" fill="currentColor" d="M866 -32h-448q-42 0 -71.5 29.5t-29.5 71.5v46l-211 183q-44 37 -48 93.5t33 99.5q18 21 42.5 33t50.5 14q28 2 53.5 -7t45.5 -27l32 -27v117q0 66 24 124q23 59 64 104t96 72q55 28 119 32q70 5 136 -20t115 -74q45 -46 69.5 -105t24.5 -125v-535q3 -41 -27 -70t-70 -29 v0zM195 506h-3.5h-4.5q-20 -2 -38.5 -11t-33.5 -25q-29 -32 -25.5 -75.5t36.5 -71.5l216 -187q3 -2 4 -5.5t1 -7.5v-54q0 -29 20 -49t49 -20h448q29 0 49 20t20 49v534q0 59 -22.5 112.5t-64.5 94.5q-43 45 -102.5 67.5t-122.5 18.5q-57 -4 -107 -29q-49 -25 -86 -65.5 t-58 -93.5t-21 -113v-152q0 -5 -2.5 -8.5t-7.5 -5.5q-5 -3 -9.5 -2t-7.5 5l-58 48q-14 13 -32 19.5t-37 6.5v0z" />
</svg>