<svg viewBox="0 0 256 256" xmlns="http://www.w3.org/2000/svg">
  <path transform="scale(1, -1) translate(0, -256)" fill="currentColor" d="M149 66q-3 0 -4.5 -2t-2.5 -4h-123v156q0 7 5 12t12 5h88q8 0 13 -5t5 -12v-6q0 -3 2 -5.5t5 -2.5t5 2.5t2 5.5v6q0 13 -9 22t-22 9h-88q-13 0 -22 -9t-9 -22v-176q0 -13 9 -22t22 -9h88q13 0 22 9t9 22v19q0 3 -2 5t-5 2zM124 22h-88q-7 0 -12 5t-5 13v6h123v-6 q0 -7 -5 -12.5t-13 -5.5zM251 221q0 3 -2 5t-5 2q-21 2 -39.5 -7t-39.5 -29l-11 -12l-17 5q-7 3 -15 1t-14 -8l-18 -18q-3 -3 -2 -7t5 -5l22 -6l-2 -2q-2 -2 -2 -5t2 -5l39 -40q2 -2 5 -2t5 2l2 2l6 -22q2 -3 5 -4l2 -1q3 0 5 2l18 19q6 5 8 13t-1 15l-5 17l12 11 q20 20 29 39t8 40zM118 168q7 6 15 4l10 -3l-17 -17l-18 6zM195 110q2 -8 -4 -15l-10 -10l-5 18l16 17zM190 138l-27 -28l-6 -5l-29 29l47 48q19 18 35 26q13 6 27 6q0 -14 -6 -27q-8 -17 -26 -35z" />
</svg>