<svg viewBox="0 0 1024 1024" xmlns="http://www.w3.org/2000/svg">
  <path transform="scale(1, -1) translate(0, -960)" fill="currentColor" d="M694 928h-364q-48 0 -82.5 -34.5t-34.5 -82.5v-728q0 -48 34.5 -82.5t82.5 -34.5h363q48 0 82.5 34.5t34.5 82.5v728q0 48 -34 82.5t-82 34.5v0zM419 896h195v-53q0 -14 -10 -23.5t-23 -9.5h-128q-15 0 -24.5 10t-9.5 23v53v0zM778 85q0 -35 -25 -60t-60 -25h-363 q-35 0 -60 25t-25 60v726q0 35 25 60t60 25h57v-53q0 -27 19.5 -46t46.5 -19h128q27 0 46 19.5t19 45.5v53h47q35 0 60 -25t25 -60v-726zM550 130h-76q-8 0 -12 -4.5t-4 -11.5q0 -8 4 -12t12 -4h76q8 0 12 4t4 12q0 7 -5 11.5t-11 4.5z" />
</svg>