<svg viewBox="0 0 256 256" xmlns="http://www.w3.org/2000/svg">
  <path transform="scale(1, -1) translate(0, -256)" fill="currentColor" d="M243 220q0 2 -2 4t-5 2q-18 1 -34 -6.5t-34 -25.5l-23 -25h-27q-3 0 -5 -2l-17 -18q-2 -2 -2 -5t2 -5l16 -16l-2 -2q-5 -5 -8 -19q-2 -8 -4 -18q0 -3 2 -5.5t5 -2.5h1q30 5 37 13l2 2l16 -15q2 -2 5 -2t5 2l17 17q2 2 2 5l-1 27l24 25q17 18 24.5 34.5t5.5 35.5zM133 99 q-4 -3 -19 -7q1 7 2.5 12.5t3.5 7.5l2 2l12 -12q0 -1 -1 -3zM177 134q-2 -2 -2 -5l1 -27l-10 -11l-55 53l10 10l27 1q3 0 5 2l25 27q15 15 29 22q11 5 22 6q0 -12 -5 -23q-6 -13 -21 -29zM161 64q-3 0 -5 -2t-2 -4h-128v161q0 7 5.5 12.5t12.5 5.5h91q8 0 13 -5.5t5 -12.5 v-7q0 -3 2 -5t5 -2t5.5 2t2.5 5v7q0 13 -9.5 22.5t-22.5 9.5h-91q-13 0 -22.5 -9.5t-9.5 -22.5v-182q0 -13 9.5 -22.5t22.5 -9.5h91q13 0 22.5 9.5t9.5 22.5v19q0 3 -2 5.5t-5 2.5zM136 19h-91q-8 0 -13 5t-5 13v7h127v-7q0 -8 -5.5 -13t-12.5 -5z" />
</svg>