<svg viewBox="0 0 1024 1024" xmlns="http://www.w3.org/2000/svg">
  <path transform="scale(1, -1) translate(0, -960)" fill="currentColor" d="M694 928h-364q-48 0 -82.5 -34.5t-34.5 -82.5v-728q0 -48 34.5 -82.5t82.5 -34.5h363q48 0 82.5 34.5t34.5 82.5v728q0 48 -34 82.5t-82 34.5v0zM330 896h363q35 0 60 -25t25 -60v-657h-2h-2h-528h-0.5h-0.5v657q1 35 25.5 60t59.5 25v0zM694 0h-364q-35 0 -60 25t-25 60 v38h0.5h0.5h528h2h2v-40q0 -33 -24.5 -58t-59.5 -25v0zM355 542h157q7 0 11.5 4.5t4.5 11.5v156q0 7 -4.5 11.5t-11.5 4.5h-155q-7 0 -11.5 -4.5t-4.5 -11.5v-156q-1 -6 3.5 -11t10.5 -5zM371 699h125v-123h-123v123h-2zM355 254h157q7 0 11.5 4.5t4.5 11.5v156 q0 7 -4.5 11.5t-11.5 4.5h-155q-7 0 -11.5 -4.5t-4.5 -11.5v-156q-1 -7 3.5 -11.5t10.5 -4.5v0zM371 410h125v-124h-123v124h-2zM656 542h30q8 0 12 4.5t4 11.5q0 8 -4 12t-12 4h-14v124h14q8 0 12 4t4 12q0 7 -4 11.5t-12 4.5h-30q-7 0 -11.5 -4.5t-4.5 -11.5v-156 q0 -6 5 -11t11 -5zM656 254h30q8 0 12 4.5t4 11.5q0 8 -4 12t-12 4h-14v124h14q8 0 12 4t4 12q0 7 -4 11.5t-12 4.5h-30q-7 0 -11.5 -4.5t-4.5 -11.5v-156q0 -7 5 -11.5t11 -4.5v0z" />
</svg>