<svg viewBox="0 0 1024 1024" xmlns="http://www.w3.org/2000/svg">
  <path transform="scale(1, -1) translate(0, -960)" fill="currentColor" d="M552 131q0 -16 -11.5 -28t-28.5 -12t-28.5 12t-11.5 28q0 17 11.5 28.5t28.5 11.5t28.5 -11.5t11.5 -28.5zM560 800h-96q-7 0 -11.5 -4.5t-4.5 -11.5t4.5 -11.5t11.5 -4.5h96q7 0 11.5 4.5t4.5 11.5t-5 11.5t-11 4.5zM720 928h-416q-34 0 -57 -23t-23 -57v-800 q0 -34 23 -57t57 -23h416q34 0 57 23t23 57v800q0 34 -23 57t-57 23zM768 48q0 -20 -14 -34t-34 -14h-416q-20 0 -34 14t-14 34v800q0 20 14 34t34 14h416q20 0 34 -14t14 -34v-800z" />
</svg>