<svg viewBox="0 0 256 256" xmlns="http://www.w3.org/2000/svg">
  <path transform="scale(1, -1) translate(0, -256)" fill="currentColor" d="M185 56q-3 0 -5 -2t-2 -5v-21q0 -4 -3 -6.5t-7 -2.5h-126q-3 0 -6 2.5t-3 6.5v200q0 4 3 6.5t6 2.5h28q2 0 2 -1v-9q0 -8 5.5 -13.5t13.5 -5.5h30q8 0 14 5.5t6 13.5v9q0 1 1 1h26q3 0 6 -3t3 -7v-16q0 -3 2 -5t5 -2t5.5 2t2.5 5v16q0 10 -7 17t-17 7h-126 q-10 0 -16.5 -7t-6.5 -17v-199q0 -9 7 -16t16 -7h126q10 0 17 7t7 16v21q0 3 -2 5t-5 2zM127 236v-9q0 -3 -1.5 -4.5t-3.5 -1.5h-30q-3 0 -4.5 1.5t-1.5 4.5v10h42zM202 139h-13v13q0 3 -2 5t-5 2t-5.5 -2t-2.5 -5v-13h-12q-3 0 -5.5 -2t-2.5 -5t2.5 -5.5t5.5 -2.5h12v-12 q0 -3 2.5 -5t5.5 -2t5 2t2 5v13h13q3 0 5 2t2 5t-2 5t-5 2zM182 187q-15 0 -28 -7.5t-20.5 -20t-7.5 -28t7.5 -28t20.5 -20t28 -7.5t27.5 7.5t20 20.5t7.5 28t-7.5 27.5t-20 20t-27.5 7.5zM182 90q-17 0 -29.5 12.5t-12.5 29.5t12.5 29.5t29.5 12.5t29 -12.5t12 -29.5 t-12 -29.5t-29 -12.5z" />
</svg>