<svg viewBox="0 0 256 256" xmlns="http://www.w3.org/2000/svg">
  <path transform="scale(1, -1) translate(0, -256)" fill="currentColor" d="M175 251h-94q-11 0 -19.5 -8.5t-8.5 -20.5v-188q0 -12 8.5 -20.5t19.5 -8.5h94q11 0 19.5 8.5t8.5 20.5v188q0 12 -8 20.5t-20 8.5zM81 237h94q6 0 10 -4.5t4 -10.5v-105h-122v105q0 6 4 10.5t10 4.5zM175 19h-94q-6 0 -10 4.5t-4 10.5v69h122v-69q0 -6 -4 -10.5 t-10 -4.5zM95 90h-6q-3 0 -5 -2.5t-2 -5.5t2 -5t5 -2h6q3 0 5 2t2 5t-2 5.5t-5 2.5zM132 90h-5q-3 0 -5 -2.5t-2 -5.5t2 -5t5 -2h5q3 0 5.5 2t2.5 5t-2.5 5.5t-5.5 2.5zM170 90h-6q-3 0 -5 -2.5t-2 -5.5t2 -5t5 -2h6q3 0 5 2t2 5t-2 5.5t-5 2.5zM95 54h-6q-3 0 -5 -2t-2 -5 t2 -5t5 -2h6q3 0 5 2t2 5t-2 5t-5 2zM132 54h-5q-3 0 -5 -2t-2 -5t2 -5t5 -2h5q3 0 5.5 2t2.5 5t-2.5 5t-5.5 2zM170 54h-6q-3 0 -5 -2t-2 -5t2 -5t5 -2h6q3 0 5 2t2 5t-2 5t-5 2zM121 204h15q3 0 5 2.5t2 5.5t-2 4.5t-5 1.5h-15q-3 0 -5 -2t-2 -5t2 -5t5 -2z" />
</svg>