<svg viewBox="0 0 256 256" xmlns="http://www.w3.org/2000/svg">
  <path transform="scale(1, -1) translate(0, -256)" fill="currentColor" d="M174 251h-92q-13 0 -22.5 -9.5t-9.5 -22.5v-182q0 -13 9.5 -22.5t22.5 -9.5h91q13 0 22.5 9.5t9.5 22.5v182q0 13 -9 22.5t-22 9.5zM82 237h91q8 0 13 -5.5t5 -12.5v-161h-127v161q0 7 5.5 12.5t12.5 5.5zM174 19h-92q-7 0 -12.5 5t-5.5 13v7h128v-7q0 -7 -5.5 -12.5 t-12.5 -5.5zM90 192h23q3 0 5 2t2 5t-2 5t-5 2h-23q-3 0 -5 -2t-2 -5t2 -5t5 -2zM143 192h23q3 0 5 2t2 5t-2 5t-5 2h-23q-3 0 -5 -2t-2 -5t2 -5t5 -2zM98 154q-7 -7 -7 -18q0 -13 16 -31l10 -10l6 -5q2 -2 4.5 -2t4.5 2l2 2q8 7 14 13q16 18 16 30t-6 19.5t-15.5 7.5 t-14.5 -4q-6 4 -14 4q-10 0 -16 -8zM122 144q2 -3 6 -3t6.5 3.5t7 3.5t6.5 -3t2 -9.5t-12 -20.5q-6 -7 -10 -10l-10 10q-12 14 -12 20.5t2.5 9.5t7 3t6.5 -4z" />
</svg>