<svg viewBox="0 0 256 256" xmlns="http://www.w3.org/2000/svg">
  <path transform="scale(1, -1) translate(0, -256)" fill="currentColor" d="M177 251h-98q-12 0 -20.5 -8.5t-8.5 -20.5v-188q0 -12 8.5 -20.5t20.5 -8.5h98q12 0 20.5 8.5t8.5 20.5v188q0 12 -8.5 20.5t-20.5 8.5zM79 237h98q6 0 10.5 -4.5t4.5 -10.5v-148q0 -6 -4.5 -11t-11.5 -5h-96q-7 0 -11.5 5t-4.5 11v148q0 6 4.5 10.5t10.5 4.5zM177 19 h-98q-6 0 -10.5 4.5t-4.5 10.5v15q8 -5 16 -5h96q9 0 16 5v-15q0 -6 -4.5 -10.5t-10.5 -4.5zM121 208h15q3 0 5.5 2t2.5 5t-2.5 5t-5.5 2h-15q-3 0 -5 -2t-2 -5t2 -5t5 -2z" />
</svg>