<svg viewBox="0 0 1024 1024" xmlns="http://www.w3.org/2000/svg">
  <path transform="scale(1, -1) translate(0, -960)" fill="currentColor" d="M707 928h-390q-43 0 -74.5 -31t-31.5 -75v-748q0 -44 31.5 -75t74.5 -31h390q43 0 74.5 31t31.5 75v748q0 44 -31.5 75t-74.5 31zM317 896h390q30 0 52 -22t22 -52v-588q0 -32 -22.5 -54.5t-54.5 -22.5h-384q-31 0 -54 22t-23 55v0v0v588q0 30 22 52t52 22v0zM707 0h-390 q-30 0 -52 22t-22 52v83q15 -15 34.5 -23.5t42.5 -8.5h384q23 0 42 8.5t35 23.5v-83q0 -30 -22 -52t-52 -22v0zM483 779h63q7 0 11.5 4.5t4.5 11.5t-4.5 11.5t-11.5 4.5h-63q-7 0 -11.5 -4.5t-4.5 -11.5t4.5 -11.5t11.5 -4.5v0z" />
</svg>