<svg viewBox="0 0 1024 1024" xmlns="http://www.w3.org/2000/svg">
  <path transform="scale(1, -1) translate(0, -960)" fill="currentColor" d="M595 186q-7 0 -11.5 -4.5t-4.5 -11.5v-7h-0.5h-0.5h-512h-0.5h-1.5v637q0 34 24 58t58 24h352q33 0 57 -24t24 -58v-26q0 -7 4.5 -11.5t11.5 -4.5t11.5 4.5t4.5 11.5v26q0 47 -33.5 80.5t-79.5 33.5h-352q-47 0 -80.5 -33.5t-33.5 -80.5v-704q0 -47 33.5 -80.5 t80.5 -33.5h352q46 0 79.5 33.5t33.5 80.5v75q0 6 -4.5 10.5t-11.5 4.5zM498 14h-352q-34 0 -58 24t-24 58v37v0h2h512h0.5h0.5v-37q0 -34 -24 -58t-57 -24zM992 821q0 6 -4 10t-10 4q-58 4 -132.5 -18.5t-175.5 -122.5l-49 -49l-77 21q-28 8 -55 1t-47 -27l-74 -74 q-2 -2 -3.5 -6.5t-1.5 -9.5q1 -3 4 -6.5t7 -4.5l108 -32l-23 -22q-2 -3 -3.5 -5.5t-1.5 -5.5q0 -4 1.5 -6.5t3.5 -5.5l159 -158q2 -2 5 -3.5t6 -1.5q2 0 5.5 1.5t5.5 3.5l22 22l32 -107q2 -3 5 -6.5t7 -4.5h2h1q3 0 6 1t5 4l74 73q20 21 27 48t-2 55l-19 73l50 50 q99 101 121.5 175.5t20.5 133.5v0zM464 618q14 14 33 18.5t37 -1.5l58 -17l-85 -85l-97 29zM790 379q6 -19 1 -38t-18 -32l-55 -55l-28 98l84 85zM770 478v0v0l-141 -140l-136 136l197 196q87 88 151.5 111t116.5 22q2 -53 -22 -117t-110 -152l-56 -56v0z" />
</svg>