<svg viewBox="0 0 1024 1024" xmlns="http://www.w3.org/2000/svg">
  <path transform="scale(1, -1) translate(0, -960)" fill="currentColor" d="M739 149q-7 0 -11.5 -4.5t-4.5 -11.5v-82q0 -20 -14.5 -34.5t-34.5 -14.5h-504q-21 0 -35.5 14.5t-14.5 34.5v795q-1 21 13.5 35.5t36.5 14.5h112q7 0 12 -5t5 -13v-35q0 -27 20 -47t47 -20h120q28 0 48 20t20 47v35q0 8 5 13t12 5h103q20 0 34.5 -14.5t14.5 -35.5v-64 q0 -7 4.5 -11.5t11.5 -4.5t11.5 4.5t4.5 11.5v64q0 34 -24 58t-57 24h-503q-36 0 -60.5 -24t-24.5 -58v-795q0 -33 24 -57t58 -24h504q34 0 58 24t24 57v82q1 6 -3.5 11t-11.5 5zM522 878v-35q0 -14 -10.5 -24.5t-25.5 -10.5h-120q-14 0 -24.5 10.5t-10.5 24.5v35q0 5 -1 9 t-2 9h197q-1 -4 -2 -8.5t-1 -9.5zM806 480h-64v64q0 7 -4 11.5t-12 4.5q-7 0 -11.5 -4.5t-4.5 -11.5v-64h-64q-7 0 -11.5 -4.5t-4.5 -11.5t4.5 -11.5t11.5 -4.5h64v-64q0 -7 4.5 -11.5t11.5 -4.5q8 0 12 4.5t4 11.5v64h64q8 0 12 4.5t4 11.5t-4 11.5t-12 4.5zM728 674 q-43 0 -81 -17q-38 -16 -67 -44.5t-45 -67.5q-17 -38 -17 -81t17 -81q16 -38 44.5 -67t67.5 -45q38 -17 81 -17t81 17q38 16 67 44.5t45 67.5q17 38 17 81t-17 81q-16 38 -44.5 67t-67.5 45q-38 17 -81 17zM728 286q-73 0 -125.5 52.5t-52.5 125.5t52.5 125.5t125.5 52.5 t125.5 -52.5t52.5 -125.5t-52.5 -125.5t-125.5 -52.5z" />
</svg>