<svg viewBox="0 0 256 256" xmlns="http://www.w3.org/2000/svg">
  <path transform="scale(1, -1) translate(0, -256)" fill="currentColor" d="M233 198h-77v23q0 12 -8.5 21t-21.5 9h-91q-13 0 -21.5 -9t-8.5 -21v-187q0 -12 8.5 -20.5t21.5 -8.5h91q13 0 21.5 8.5t8.5 20.5v76h76q8 0 13.5 5.5t5.5 13.5v51q0 7 -5.5 12.5t-12.5 5.5zM126 19h-91q-7 0 -11.5 4.5t-4.5 10.5v187q0 7 4.5 11.5t11.5 4.5h91 q7 0 11.5 -4.5t4.5 -11.5v-23h-24q-7 0 -12.5 -5t-5.5 -13v-67q0 -5 2.5 -9.5t6.5 -7t9 -2.5t10 4l14 9v-72q0 -7 -4.5 -11.5t-11.5 -4.5zM237 129q0 -2 -1 -3.5t-3 -1.5h-87q-3 0 -4 -1l-21 -14q-3 -2 -5 -0.5t-2 3.5v68q0 2 1.5 3t2.5 1h115q2 0 3 -1t1 -3v-51zM79 64 q-6 0 -10 -4.5t-4 -10t4.5 -9.5t10 -4t9.5 4t4 9.5t-4 10t-10 4.5z" />
</svg>