<svg viewBox="0 0 1024 1024" xmlns="http://www.w3.org/2000/svg">
  <path transform="scale(1, -1) translate(0, -960)" fill="currentColor" d="M931 717h-318v104q0 44 -31.5 75.5t-75.5 31.5h-367q-44 0 -75.5 -31.5t-31.5 -75.5v-747q0 -44 31.5 -75t75.5 -31h367q44 0 75.5 31.5t31.5 75.5v315h318q25 0 43 18t18 43v205q0 25 -18 43t-43 18zM506 0h-367q-31 0 -53 22t-22 53v746q0 31 22 53t53 22h367 q31 0 53 -22t22 -53v-104h-107q-26 0 -43.5 -18t-17.5 -43v-269q0 -17 8.5 -31.5t23.5 -22.5q7 -4 14 -5.5t15 -1.5q9 0 17.5 3t17.5 9l72 49v-310q0 -33 -22 -55t-53 -22v0zM960 451q0 -12 -8.5 -20.5t-20.5 -8.5h-349q-2 0 -4.5 -1t-4.5 -2l-83 -57q-8 -5 -16 -5.5 t-15 3.5t-11.5 10.5t-4.5 15.5v270q0 12 8.5 20.5t20.5 8.5h458q12 0 20 -8.5t8 -20.5v-205h2zM317 206q-30 0 -51 -21t-21 -51t21 -51t51 -21t51 21t21 51t-21 51t-51 21zM317 93q-17 0 -28.5 11.5t-11.5 28.5t11.5 28.5t28.5 11.5t28.5 -11.5t11.5 -28.5t-11.5 -28.5 t-28.5 -11.5z" />
</svg>