<svg viewBox="0 0 256 256" xmlns="http://www.w3.org/2000/svg">
  <path transform="scale(1, -1) translate(0, -256)" fill="currentColor" d="M176 171h-15q-4 0 -6.5 2t-2.5 5t2.5 5.5t6.5 2.5h31q3 0 5 2t2 5t-2 5t-5 2h-12v2q0 3 -2.5 5.5t-5.5 2.5t-5 -2.5t-2 -5.5v-2h-5q-9 0 -15.5 -6t-6.5 -15t6.5 -15t15.5 -6h16q3 0 5.5 -2.5t2.5 -5.5t-2.5 -5t-5.5 -2h-32q-3 0 -5.5 -2t-2.5 -5t2.5 -5t5.5 -2h21v-3 q0 -3 2 -5t5 -2t5 2t2 5v3q8 1 13.5 7t6 14.5t-6 14.5t-16.5 6zM138 82q-3 0 -5 -2t-2 -5v-47q0 -4 -2.5 -6.5t-6.5 -2.5h-93q-4 0 -7 2.5t-3 6.5v157q0 4 3 7t7 3h67q3 0 5.5 2t2.5 5t-2.5 5t-5.5 2h-67q-10 0 -17 -7t-7 -16v-157q0 -10 7 -16.5t17 -6.5h93q10 0 17 7t7 16 v46q0 3 -2.5 5t-5.5 2zM229 226q-11 12 -25 18.5t-30.5 7t-31.5 -6.5q-3 -1 -4 -3.5t0 -5.5t3.5 -4t5.5 0q14 6 27 5q26 0 45 -20q9 -10 13.5 -22.5t4.5 -26.5q0 -17 -8.5 -31.5t-23.5 -23.5q-2 -1 -3 -4t1 -6t6 -3q2 0 3 2q18 10 28 27.5t11 38.5q1 16 -5 31t-17 27z M93 170q0 3 -2 5.5t-5 2.5h-22q-3 0 -5 -2.5t-2 -5.5t2 -5t5 -2h22q3 0 5 2t2 5zM65 44q0 -5 3 -8t7.5 -3t7.5 3t3 7.5t-3 7.5t-7.5 3t-7.5 -3t-3 -7z" />
</svg>