<svg viewBox="0 0 256 256" xmlns="http://www.w3.org/2000/svg">
  <path transform="scale(1, -1) translate(0, -256)" fill="currentColor" d="M139 53q-3 0 -5 -2t-2 -5q0 -7 -4.5 -11.5t-11.5 -4.5h-81q-7 0 -11.5 5t-4.5 11v164q0 7 4.5 11.5t11.5 4.5h82q6 0 10.5 -5t4.5 -11v-6q0 -3 2.5 -5t5.5 -2t5 2t2 5v6q0 12 -8.5 21t-21.5 9h-82q-13 0 -21.5 -9t-8.5 -21v-164q0 -12 9 -21t21 -9h82q12 0 20.5 9t8.5 21 q0 3 -2 5t-5 2zM81 198q3 0 5 2.5t2 5.5t-2 5t-5 2h-11q-3 0 -5.5 -2t-2.5 -5t2.5 -5.5t5.5 -2.5h11zM60 53q0 -3 2 -5t5 -2h17q3 0 5 2t2 5t-2 5t-5 2h-17q-3 0 -5 -2t-2 -5zM198 139q-3 0 -5 -2t-2 -5q0 -16 -11 -27t-26.5 -11t-26.5 11t-11 26.5t11 26.5t27 11q6 0 10 -2 q3 -1 5.5 0.5t3.5 4.5t-0.5 5.5t-4.5 3.5q-6 2 -14 2q-22 0 -37 -15t-15 -36.5t15 -36.5t36.5 -15t36.5 15t15 37q0 3 -2 5t-5 2zM244 192h-21v19q0 3 -2 5t-5 2t-5.5 -2t-2.5 -5v-22l-54 -48q-2 -2 -2.5 -5t1.5 -5.5t5 -2.5t5 2l55 48h26q3 0 5 2.5t2 5.5t-2 4.5t-5 1.5z M136 139q-3 0 -5 -2t-2 -5q0 -11 7 -18t18 -7q3 0 5 2t2 5t-2 5t-6 2t-7 3t-3 7t-2 6t-5 2z" />
</svg>