<svg viewBox="0 0 1024 1024" xmlns="http://www.w3.org/2000/svg">
  <path transform="scale(1, -1) translate(0, -960)" fill="currentColor" d="M536 216q-7 0 -11.5 -4.5t-4.5 -11.5v-3v0v0h-456v565q0 28 21 49t49 21h314q29 0 49.5 -21t20.5 -49v-23q0 -7 4.5 -11.5t11.5 -4.5q8 0 12 4.5t4 11.5v23q0 42 -30 72t-72 30h-314q-42 1 -72 -29t-30 -73v-629q0 -42 30 -72.5t72 -30.5h314q42 0 72 30.5t30 72.5v67 q2 7 -3 11.5t-11 4.5zM450 62h-316q-28 0 -49 21t-21 50v32h456v0v0v-32q0 -29 -21 -50t-49 -21zM800 478q-7 0 -11.5 -4t-4.5 -12q0 -63 -45 -108t-109 -45q-63 0 -108 45t-45 108q0 64 45 109t108 45q11 0 22.5 -1.5t21.5 -4.5q6 -3 12 0.5t7 10.5q2 6 -1 12t-10 7 q-14 4 -27 6t-26 2q-77 0 -131.5 -54.5t-54.5 -131.5q0 -76 55.5 -130.5t131.5 -54.5q77 0 131.5 54.5t54.5 130.5q0 6 -5 11t-11 5v0zM976 685h-93v83q0 7 -4.5 11.5t-11.5 4.5t-11.5 -4.5t-4.5 -11.5v-90l-213 -190q-4 -5 -5 -11.5t4 -10.5q2 -3 5.5 -4t5.5 -1t5.5 1 t5.5 4l213 188h104q7 0 11.5 4.5t4.5 11.5q0 8 -4.5 11.5t-11.5 3.5v0zM579 462q0 8 -4.5 12t-11.5 4t-11.5 -4t-4.5 -12q0 -34 25 -58.5t58 -24.5q8 0 12 4.5t4 11.5t-4 11.5t-12 4.5q-21 -1 -36 14.5t-15 36.5v0z" />
</svg>