<svg viewBox="0 0 256 256" xmlns="http://www.w3.org/2000/svg">
  <path transform="scale(1, -1) translate(0, -256)" fill="currentColor" d="M174 251h-92q-13 0 -22.5 -9.5t-9.5 -22.5v-182q0 -13 9.5 -22.5t22.5 -9.5h91q13 0 22.5 9.5t9.5 22.5v182q0 13 -9 22.5t-22 9.5zM82 237h91q8 0 13 -5.5t5 -12.5v-161h-127v161q0 7 5.5 12.5t12.5 5.5zM174 19h-92q-7 0 -12.5 5t-5.5 13v7h128v-7q0 -7 -5.5 -12.5 t-12.5 -5.5zM89 149h39q3 0 5 2t2 5v39q0 3 -2 5t-5 2h-39q-3 0 -5 -2t-2 -5v-39q0 -3 2 -5t5 -2zM96 188h25v-25h-25v25zM89 76h39q3 0 5 2.5t2 5.5v38q0 3 -2 5.5t-5 2.5h-39q-3 0 -5 -2.5t-2 -5.5v-38q0 -3 2 -5.5t5 -2.5zM96 116h25v-25h-25v25zM164 149h8q3 0 5 2t2 5 t-2 5t-5 2h-1v25h1q3 0 5 2t2 5t-2 5t-5 2h-8q-3 0 -5 -2t-2 -5v-39q0 -3 2 -5t5 -2zM164 76h8q3 0 5 2.5t2 5.5t-2 5t-5 2h-1v25h1q3 0 5 2t2 5t-2 5t-5 2h-8q-3 0 -5 -2t-2 -5v-39q0 -3 2 -5.5t5 -2.5z" />
</svg>