<svg viewBox="0 0 256 256" xmlns="http://www.w3.org/2000/svg">
  <path transform="scale(1, -1) translate(0, -256)" fill="currentColor" d="M134 73q-5 0 -7 -5h-108v138q0 6 4.5 10.5t10.5 4.5h78q6 0 10.5 -4t4.5 -11v-5q0 -3 2 -5t5 -2t5.5 2t2.5 5v5q0 12 -8.5 20.5t-20.5 8.5h-79q-12 0 -20.5 -8.5t-8.5 -20.5v-157q0 -12 8.5 -20.5t20.5 -8.5h78q12 0 20.5 8.5t8.5 20.5v17q0 3 -2 5t-5 2zM112 35h-78 q-6 0 -10.5 4t-4.5 11v4h108v-4q0 -7 -4.5 -11t-10.5 -4zM200 138q-3 0 -5 -2t-2 -5q0 -14 -10.5 -24.5t-25 -10.5t-25 10.5t-10.5 25t10.5 24.5t25.5 10q5 0 8.5 -1t6 0.5t3.5 4t-0.5 5t-3.5 3.5q-8 2 -14 2q-21 0 -35.5 -14t-14.5 -34.5t14.5 -35t35 -14.5t35 14.5 t14.5 34.5q0 3 -2 5t-5 2zM244 190h-20v18q0 3 -2 5t-5 2t-5 -2t-2 -5v-21l-52 -47q-3 -1 -3 -4t2 -5.5t5 -2.5t5 2l52 46h25q3 0 5 2t2 5t-2 5t-5 2zM141 138q-3 0 -5 -2t-2 -5q0 -10 7 -17t17 -7q3 0 5 2t2 5t-2 5.5t-6 2.5t-6.5 2.5t-2.5 6t-2 5.5t-5 2z" />
</svg>