<svg viewBox="0 0 256 256" xmlns="http://www.w3.org/2000/svg">
  <path transform="scale(1, -1) translate(0, -256)" fill="currentColor" d="M174 251h-92q-13 0 -22.5 -9.5t-9.5 -22.5v-182q0 -13 9.5 -22.5t22.5 -9.5h91q13 0 22.5 9.5t9.5 22.5v182q0 13 -9 22.5t-22 9.5zM108 237h43v-10q0 -3 -1.5 -4.5t-4.5 -1.5h-32q-2 0 -3.5 1.5t-1.5 4.5v9v1zM192 37q0 -7 -5.5 -12.5t-12.5 -5.5h-92q-7 0 -12.5 5.5 t-5.5 12.5v182q0 7 5.5 12.5t12.5 5.5h12v-10q0 -8 6 -14t14 -6h32q8 0 13.5 6t5.5 14v10h9q8 0 13 -5.5t5 -12.5v-182zM138 52h-20q-3 0 -5 -2.5t-2 -5.5t2 -5t5 -2h20q3 0 5 2t2 5t-2.5 5.5t-4.5 2.5z" />
</svg>