<svg viewBox="0 0 1024 1024" xmlns="http://www.w3.org/2000/svg">
  <path transform="scale(1, -1) translate(0, -960)" fill="currentColor" d="M694 928h-364q-48 0 -82.5 -34.5t-34.5 -82.5v-728q0 -48 34.5 -82.5t82.5 -34.5h363q48 0 82.5 34.5t34.5 82.5v728q0 48 -34 82.5t-82 34.5v0zM330 896h363q35 0 60 -25t25 -60v-657h-2h-2h-528h-0.5h-0.5v657q1 35 25.5 60t59.5 25v0zM694 0h-364q-35 0 -60 25t-25 60 v38h0.5h0.5h528h2h2v-40q0 -33 -24.5 -58t-59.5 -25v0zM360 717h91q7 0 11.5 4.5t4.5 11.5t-4.5 11.5t-11.5 4.5h-91q-7 0 -11.5 -4.5t-4.5 -11.5t5 -11.5t11 -4.5zM573 717h91q7 0 11.5 4.5t4.5 11.5t-4.5 11.5t-11.5 4.5h-91q-7 0 -11.5 -4.5t-4.5 -11.5t4.5 -11.5 t11.5 -4.5zM400 546q-11 -12 -16.5 -29.5t-5.5 -36.5q0 -24 15 -52t45 -62q22 -24 39.5 -39t18.5 -15l6 -5q3 -2 5.5 -2.5t4.5 -0.5t5 1t5 2l6 5q1 1 18.5 16.5t39.5 37.5q31 34 45.5 62.5t14.5 51.5q0 20 -5.5 37t-16.5 29v0v0q-11 12 -26 18.5t-32 6.5q-19 0 -32.5 -5 t-21.5 -12q-8 7 -21.5 12t-32.5 5q-17 0 -32 -6.5t-26 -18.5zM499 520q3 -4 6 -5t7 -1t8 2t6 6q6 9 16.5 13t23.5 4q10 0 19 -3.5t15 -10.5q7 -7 10.5 -19t3.5 -26q0 -12 -10 -34.5t-42 -58.5q-16 -17 -30 -30t-20 -18q-6 6 -20 18.5t-30 29.5q-32 36 -42 58.5t-10 34.5 q0 14 3.5 26t10.5 19q6 7 15 10.5t19 3.5q14 0 24 -4.5t17 -14.5z" />
</svg>