<svg viewBox="0 0 1024 1024" xmlns="http://www.w3.org/2000/svg">
  <path transform="scale(1, -1) translate(0, -960)" fill="currentColor" d="M960 814q0 6 -4 10.5t-10 4.5q-51 2 -114.5 -18.5t-148.5 -108.5l-97 -102l-114 -2q-4 0 -6.5 -1t-4.5 -3l-67 -71q-5 -5 -5 -11t5 -11l75 -72q-6 -3 -11 -6.5t-8 -8.5q-21 -21 -31 -74t-11 -66q0 -4 1 -7.5t4 -5.5q2 -3 4.5 -4t6.5 -1h1.5h1.5q15 2 67 14t72 32 q5 5 8.5 10t6.5 11l75 -72q2 -2 5 -3.5t6 -1.5v0v0q4 0 6.5 1.5t4.5 3.5l68 71q2 2 3 4.5t1 6.5l-1 113l97 103q82 86 100.5 150.5t13.5 114.5v0zM541 323q-10 -9 -40.5 -18t-60.5 -15q5 30 13 60.5t17 39.5q5 5 10.5 8.5t12.5 4.5l61 -57q-3 -6 -6.5 -12t-6.5 -11v0z M717 462q-3 -2 -4 -4.5t-1 -6.5l2 -113l-52 -55l-236 229l51 54l113 2q4 0 6.5 1t5.5 4l102 107q72 74 126 95.5t98 21.5q1 -45 -18.5 -99.5t-90.5 -127.5l-102 -108v0zM643 178q-7 0 -11.5 -4.5t-4.5 -11.5v-7h-1.5h-1.5h-528h-1h-1v656q0 35 25 60t60 25h363q35 0 60 -25 t25 -60v-25q0 -8 4.5 -12t11.5 -4t11.5 4t4.5 12v25q0 48 -34.5 82.5t-82.5 34.5h-363q-48 0 -82.5 -34.5t-34.5 -82.5v-728q0 -48 34.5 -82.5t82.5 -34.5h363q48 0 82.5 34.5t34.5 82.5v77q0 8 -5 13t-11 5v0zM542 0h-363q-35 0 -60 25t-25 60v38h1h1h528h1.5h1.5v-40 q0 -33 -25 -58t-60 -25v0z" />
</svg>