<svg viewBox="0 0 1024 1024" xmlns="http://www.w3.org/2000/svg">
  <path transform="scale(1, -1) translate(0, -960)" fill="currentColor" d="M966 797q0 6 -4 10t-10 4q-52 3 -118.5 -18.5t-155.5 -112.5l-102 -107l-118 -2q-4 0 -6.5 -1t-5.5 -4l-70 -73q-5 -5 -5 -11.5t5 -11.5l78 -75q-6 -3 -11 -7t-9 -9q-22 -21 -32 -77t-12 -70q0 -4 1.5 -7t3.5 -6q3 -2 5.5 -3.5t5.5 -1.5h2h2q14 3 69 15t76 35 q5 5 8.5 10.5t6.5 11.5l78 -75q2 -2 5 -3.5t6 -1.5v0v0q4 0 6.5 1.5t4.5 3.5l71 74q2 2 3.5 4.5t1.5 6.5l-2 118l102 106q87 90 105.5 157t14.5 120v0zM530 286q-10 -9 -42.5 -19t-63.5 -16q5 31 13.5 64t18.5 43q5 5 11 8.5t13 6.5l62 -61q-1 -8 -4.5 -14.5t-7.5 -11.5z M714 430q-3 -2 -4 -4.5t-1 -6.5l1 -118l-54 -56l-246 238l54 56l118 2q4 0 6.5 1t5.5 4l107 110q75 78 131.5 100t101.5 22q2 -47 -18.5 -104t-94.5 -135l-107 -109v0zM637 101q-7 0 -11.5 -4.5t-4.5 -11.5q0 -35 -25 -60t-60 -25h-363q-35 0 -60 25t-25 60v726q0 35 25 60 t60 25h363q35 0 60 -25t25 -60v-25q0 -8 4.5 -12t11.5 -4t11.5 4t4.5 12v25q0 48 -34.5 82.5t-82.5 34.5h-363q-48 0 -82.5 -34.5t-34.5 -82.5v-728q0 -48 34.5 -82.5t82.5 -34.5h363q48 0 82.5 34.5t34.5 82.5q0 7 -4.5 12.5t-11.5 5.5zM397 790q0 8 -4.5 12t-11.5 4h-51 q-8 0 -12 -4t-4 -12q0 -7 4 -11.5t12 -4.5h51q6 0 11 5t5 11zM299 114q0 -8 4.5 -12t11.5 -4h77q7 0 11.5 4t4.5 12q0 7 -4.5 11.5t-11.5 4.5h-77q-6 0 -11 -4.5t-5 -11.5z" />
</svg>