<svg viewBox="0 0 1024 1024" xmlns="http://www.w3.org/2000/svg">
  <path transform="scale(1, -1) translate(0, -960)" fill="currentColor" d="M699 928h-374q-42 0 -71.5 -31t-29.5 -75v-748q0 -44 29.5 -75t71.5 -31h374q42 0 71.5 31t29.5 75v748q0 44 -29.5 75t-71.5 31zM325 896h374q29 0 49 -22t20 -52v-428h-512v428q0 30 20 52t49 22zM699 0h-374q-29 0 -49 22t-20 52v288h512v-288q0 -30 -20 -52t-49 -22z M379 283h-22q-7 0 -11.5 -4.5t-4.5 -11.5t4.5 -11.5t11.5 -4.5h22q7 0 11.5 4.5t4.5 11.5t-5 11.5t-11 4.5zM530 283h-23q-7 0 -11.5 -4.5t-4.5 -11.5t4.5 -11.5t11.5 -4.5h23q7 0 11.5 4.5t4.5 11.5t-5 11.5t-11 4.5zM678 283h-22q-7 0 -11.5 -4.5t-4.5 -11.5t4.5 -11.5 t11.5 -4.5h22q8 0 12 4.5t4 11.5t-4 11.5t-12 4.5zM379 141h-22q-7 0 -11.5 -4.5t-4.5 -11.5t4.5 -11.5t11.5 -4.5h22q7 0 11.5 4.5t4.5 11.5t-5 11.5t-11 4.5zM530 141h-23q-7 0 -11.5 -4.5t-4.5 -11.5t4.5 -11.5t11.5 -4.5h23q7 0 11.5 4.5t4.5 11.5t-5 11.5t-11 4.5z M678 141h-22q-7 0 -11.5 -4.5t-4.5 -11.5t4.5 -11.5t11.5 -4.5h22q8 0 12 4.5t4 11.5t-4 11.5t-12 4.5zM483 765h61q7 0 11.5 4.5t4.5 11.5t-4.5 11.5t-11.5 4.5h-61q-7 0 -11.5 -4.5t-4.5 -11.5t5 -11.5t11 -4.5z" />
</svg>