<svg viewBox="0 0 256 256" xmlns="http://www.w3.org/2000/svg">
  <path transform="scale(1, -1) translate(0, -256)" fill="currentColor" d="M244 215q0 3 -2 5t-4 2q-20 0 -36.5 -7.5t-34.5 -26.5l-25 -26h-28q-3 0 -5 -2l-17 -18q-2 -2 -2 -5t2 -5l16 -17l-2 -2q-5 -5 -9 -20q-2 -8 -3 -19q-1 -3 1.5 -5.5t5.5 -2.5h1q30 5 38 14l2 2l17 -16q2 -2 5 -2t5 2l17 18q2 2 2 5v29l25 25q18 19 25.5 36t5.5 36z M130 90q-1 -2 -7 -4t-13 -4q1 7 3 13t3 8l3 2l13 -13zM176 126q-2 -2 -2 -5l1 -29l-11 -11l-57 56l11 11h28q3 0 5 2l27 28q15 16 30 24q11 5 23 6q0 -12 -5 -24q-7 -14 -22 -31zM159 44q-3 0 -5 -2t-2 -5q0 -8 -5 -13t-13 -5h-91q-7 0 -12.5 5t-5.5 13v182q0 7 5.5 12.5 t12.5 5.5h11v-11q0 -8 6 -13.5t14 -5.5h32q8 0 14 5.5t6 13.5v11h8q8 0 13 -5.5t5 -12.5v-7q0 -3 2 -5t5 -2t5 2t2 5v7q0 13 -9 22.5t-23 9.5h-91q-13 0 -22.5 -9.5t-9.5 -22.5v-182q0 -13 9.5 -22.5t22.5 -9.5h91q13 0 22.5 9.5t9.5 22.5q0 3 -2 5t-5 2zM112 227 q0 -3 -2 -4.5t-4 -1.5h-32q-2 0 -4 1.5t-2 4.5v10h43v-10h1zM72 44q0 -3 2 -5t5 -2h19q3 0 5.5 2t2.5 5t-2.5 5.5t-5.5 2.5h-19q-3 0 -5 -2.5t-2 -5.5z" />
</svg>