<svg viewBox="0 0 1024 1024" xmlns="http://www.w3.org/2000/svg">
  <path transform="scale(1, -1) translate(0, -960)" fill="currentColor" d="M554 253q-8 0 -12 -4.5t-4 -11.5v-187q0 -21 -15 -36.5t-37 -15.5h-371q-21 2 -36 17t-15 36v626q0 20 15 35.5t36 15.5h271q7 0 11.5 4.5t4.5 11.5t-4.5 11.5t-11.5 4.5h-271q-33 0 -58 -24t-25 -59v-626q0 -35 24 -59t59 -24h373q34 0 58.5 24t24.5 59v186 q-1 7 -5.5 11.5t-11.5 4.5v0zM909 832q-41 44 -95.5 69t-114.5 27q-33 1 -65.5 -5t-62.5 -19q-6 -2 -8 -8.5t0 -12.5q3 -6 9 -8t12 0q28 12 56.5 17t57.5 4q54 -2 102 -24.5t85 -61.5q38 -41 57 -93.5t18 -108.5q-2 -71 -37.5 -132t-96.5 -98q-6 -4 -7.5 -10.5t2.5 -12.5 q2 -3 5.5 -5.5t8.5 -2.5q3 0 5 0.5t3 1.5q67 41 107 109t42 147q2 65 -19.5 123t-63.5 104zM344 634h-85q-7 0 -11.5 -4.5t-4.5 -11.5q0 -8 4.5 -12t11.5 -4h85q7 0 11.5 4t4.5 12q0 7 -5 11.5t-11 4.5zM301 170q-24 0 -41 -17t-17 -41t17 -41t41 -17t40.5 17t16.5 41 t-16.5 41t-40.5 17zM301 85q-11 0 -18.5 7.5t-7.5 17.5q0 11 7.5 18.5t18.5 7.5t18 -7.5t7 -18.5q0 -10 -7 -17.5t-18 -7.5zM722 594q-6 2 -12.5 0t-8.5 -8q-3 -6 -0.5 -12.5t8.5 -8.5q15 -7 25 -21.5t10 -31.5q0 -24 -17 -41t-41 -17t-40.5 17t-16.5 41v163h123 q7 0 11.5 4.5t4.5 11.5t-4.5 11.5t-11.5 4.5h-123v55q0 7 -4.5 11.5t-11.5 4.5t-11.5 -4.5t-4.5 -11.5v-55h-29q-7 0 -11.5 -4.5t-4.5 -11.5t4.5 -11.5t11.5 -4.5h29v-165q0 -37 26 -63t63 -26q38 0 64 26t26 63q0 28 -14.5 50.5t-39.5 33.5v0z" />
</svg>