<svg viewBox="0 0 1024 1024" xmlns="http://www.w3.org/2000/svg">
  <path transform="scale(1, -1) translate(0, -960)" fill="currentColor" d="M914 672h-196v8q0 20 -11 38t-30 26l-138 59q-13 6 -27 6t-27 -6l-138 -59q-19 -8 -30 -25t-11 -39v-8h-196q-32 0 -55 -23t-23 -55v-428q0 -32 23 -55t55 -23h805q33 0 56 23t23 55v428q-2 32 -25 55t-55 23v0zM960 594v-74q-8 -4 -17 -6t-18 -2q-35 0 -60 25t-25 60 q0 12 3.5 22.5t9.5 20.5h62q18 0 31.5 -13.5t13.5 -32.5v0zM338 678q0 11 6 20.5t16 13.5l138 59q3 1 6.5 2t7.5 1t7.5 -1t6.5 -2l138 -59q11 -5 16.5 -14t5.5 -20v-70q0 -100 -34 -162.5t-119 -119.5q-10 -6 -21 -6t-21 6q-85 57 -119 119.5t-34 162.5v70v0zM474 301 q8 -6 18 -8.5t20 -2.5t20 2.5t18 8.5q93 60 130.5 129.5t37.5 177.5v32h98q-4 -11 -6 -21.5t-2 -21.5q0 -48 34.5 -82.5t82.5 -34.5q9 0 18 1.5t17 4.5v-211q-8 3 -17.5 5t-17.5 2q-48 0 -82.5 -34.5t-34.5 -82.5q0 -11 2 -22t6 -21h-608q4 10 6 21t2 22q0 48 -34.5 82.5 t-82.5 34.5q-9 0 -18 -1.5t-17 -5.5v211q8 -3 17.5 -4.5t17.5 -1.5q48 0 82.5 34.5t34.5 82.5q0 11 -2 21.5t-6 21.5h98v-32q0 -107 37.5 -177t130.5 -130zM110 640h63q6 -10 9.5 -20.5t3.5 -22.5q0 -35 -25 -60t-60 -25q-10 0 -18.5 2t-16.5 6v74q-2 19 11.5 32.5 t32.5 13.5v0zM64 166v74q8 4 17 6t18 2q35 0 60 -25t25 -60q0 -12 -3.5 -22.5t-9.5 -20.5h-61q-19 0 -32.5 13.5t-13.5 32.5v0zM914 120h-63q-6 10 -9.5 20.5t-3.5 22.5q0 35 25 60t60 25q10 0 18.5 -2t16.5 -6v-74q2 -19 -11.5 -32.5t-32.5 -13.5v0zM470 498q3 -3 6 -4 t6 -1q2 0 4.5 1t4.5 2l101 82q5 3 6 10t-3 12q-3 5 -10 6t-12 -3l-90 -72l-25 29q-5 5 -11.5 5t-11.5 -3q-5 -5 -5 -11.5t4 -11.5l36 -41v0z" />
</svg>