<svg viewBox="0 0 1024 1024" xmlns="http://www.w3.org/2000/svg">
  <path transform="scale(1, -1) translate(0, -960)" fill="currentColor" d="M512 933q-83 0 -156 -30t-127.5 -81t-86.5 -120t-32 -147q0 -62 41 -142q41 -79 97.5 -158t117.5 -149t101 -112q9 -10 20.5 -15t24.5 -5v0v0q13 0 24.5 5t20.5 15q40 42 101 112t117.5 149t97.5 158q41 80 41 142q0 78 -32 147t-86.5 120t-127.5 81t-156 30v0zM533 14 q-5 -4 -10 -6.5t-11 -2.5t-11.5 2.5t-9.5 6.5q-30 33 -89 99q-58 66 -116 144t-101 158t-43 140q0 72 30 135q29 62 79 109t118 75q67 27 143 27t143 -27q68 -28 118 -75t79 -109q30 -63 30 -135q0 -60 -43 -140t-101 -158t-116 -144q-59 -66 -89 -99zM555 542h-85 q-19 0 -32.5 14t-13.5 33t13.5 32.5t32.5 13.5h135q7 0 11.5 4.5t4.5 11.5t-4.5 11.5t-11.5 4.5h-77v31q0 7 -4.5 11.5t-11.5 4.5t-11.5 -4.5t-4.5 -11.5v-31h-27q-33 0 -56 -23t-23 -55q0 -33 23 -56t56 -23h85q19 0 32.5 -13.5t13.5 -32.5t-13.5 -32.5t-32.5 -13.5h-135 q-7 0 -11.5 -4.5t-4.5 -11.5q0 -8 4.5 -12t11.5 -4h77v-31q0 -7 4.5 -11.5t11.5 -4.5t11.5 4.5t4.5 11.5v31h27q33 0 56 23t23 55q-2 32 -25 55t-54 23z" />
</svg>