<svg viewBox="0 0 1024 1024" xmlns="http://www.w3.org/2000/svg">
  <path transform="scale(1, -1) translate(0, -960)" fill="currentColor" d="M912 752h-800q-34 0 -57 -23t-23 -57v-448q0 -34 23 -57t57 -23h800q34 0 57 23t23 57v448q0 34 -23 57t-57 23zM960 338h-178q-12 0 -20 8t-8 20v164q0 12 8 20t20 8h178v-220v0zM912 176h-800q-20 0 -34 14t-14 34v448q0 20 14 34t34 14h800q20 0 34 -14t14 -34v-82 h-178q-25 0 -42.5 -17.5t-17.5 -42.5v-165q0 -25 17.5 -43t42.5 -18h178v-80q0 -20 -14 -34t-34 -14zM866 416q13 0 22.5 9.5t9.5 22.5t-9.5 22.5t-22.5 9.5q-14 0 -23 -9.5t-9 -22.5q1 -13 10.5 -22.5t21.5 -9.5z" />
</svg>