<svg viewBox="0 0 1024 1024" xmlns="http://www.w3.org/2000/svg">
  <path transform="scale(1, -1) translate(0, -960)" fill="currentColor" d="M562 528h73q7 0 11.5 4.5t4.5 11.5t-4.5 11.5t-11.5 4.5h-29v18q0 7 -4 11.5t-12 4.5q-7 0 -11.5 -4.5t-4.5 -11.5v-18h-12q-23 0 -39.5 -16t-16.5 -38q0 -23 16.5 -39t39.5 -16h33q10 0 17 -6.5t7 -15.5q0 -10 -7 -16.5t-17 -6.5h-73q-8 0 -12 -4t-4 -12q0 -7 4 -11.5 t12 -4.5h51v-17q0 -7 4.5 -11.5t11.5 -4.5t11.5 4.5t4.5 11.5v19q19 4 32 19t13 35q0 23 -17 39t-39 16h-34q-10 0 -17 6.5t-7 15.5q0 10 8 15.5t18 5.5v0zM658 242h-399q-17 0 -29 12t-12 29v365q0 17 12 29.5t29 12.5h640q17 0 29.5 -12.5t12.5 -29.5v-219q0 -7 4.5 -11.5 t11.5 -4.5t11.5 4.5t4.5 11.5v219q0 30 -22 52t-52 22h-80v41q0 30 -21.5 52t-51.5 22h-640q-30 0 -52 -22t-22 -52v-365q0 -30 22 -51.5t52 -21.5h80v-42q0 -30 21.5 -51.5t51.5 -21.5h399q7 0 11.5 4t4.5 12q0 7 -5 11.5t-11 4.5zM106 357q-17 0 -29.5 12.5t-12.5 28.5 v365q0 17 12.5 29.5t29.5 12.5h640q16 0 28.5 -12.5t12.5 -29.5v-41h-528q-30 0 -51.5 -22t-21.5 -52v-291h-80v0zM976 218h-30v46q0 32 -23 54.5t-54 22.5t-54 -23t-23 -54v-46h-30q-8 0 -12 -4.5t-4 -11.5v-127q0 -7 4 -11.5t12 -4.5h214q7 0 11.5 4.5t4.5 11.5v127 q0 6 -4.5 11t-11.5 5v0zM822 264q0 19 13.5 32t31.5 13t31.5 -13.5t13.5 -31.5v-46h-91v46h1zM960 91h-184v95h184v-95z" />
</svg>