<svg viewBox="0 0 256 256" xmlns="http://www.w3.org/2000/svg">
  <path transform="scale(1, -1) translate(0, -256)" fill="currentColor" d="M196 221q-13 14 -30 21.5t-36 8t-36.5 -6t-31.5 -20t-21 -31t-7 -37.5q0 -24 11.5 -45.5t32.5 -34.5q4 -2 7 -7t3 -11v-17q0 -15 10.5 -25.5t25.5 -10.5h8q15 0 25.5 10.5t10.5 25.5v17q0 6 3 10.5t7 7.5q20 13 32 33.5t12 44.5q1 19 -5.5 36t-20.5 31zM154 41 q0 -9 -6.5 -15.5t-15.5 -6.5h-8q-9 0 -15.5 6.5t-6.5 15.5v17q0 2 -1 6h54l-1 -6v-17zM171 88q-5 -2 -10 -9h-66q-4 6 -10 9q-18 12 -28 30t-10 39q0 16 6.5 31t18 26t26 17t30.5 6h2q15 0 29.5 -6.5t26 -18.5t17 -27t5.5 -31q0 -20 -10 -37.5t-27 -28.5zM121 184h29 q3 0 5 2.5t2 5.5t-2 5t-5 2h-11v6q0 3 -2 5t-5 2t-5 -2t-2 -5v-6h-4q-9 0 -16 -6.5t-7 -16t6.5 -16t16.5 -6.5h13q4 0 6 -2.5t2 -6t-2.5 -6t-5.5 -2.5h-29q-3 0 -5 -2t-2 -5t2 -5t5 -2h20v-6q0 -3 2 -5t5 -2t5 2t2 5v7q8 1 13 7.5t5 15t-6.5 15t-16.5 6.5h-13q-3 0 -5.5 2.5 t-2.5 6t2.5 5.5t5.5 2z" />
</svg>