<svg viewBox="0 0 1024 1024" xmlns="http://www.w3.org/2000/svg">
  <path transform="scale(1, -1) translate(0, -960)" fill="currentColor" d="M914 739h-272v24q0 27 -19 45.5t-45 18.5h-132q-26 0 -45 -18.5t-19 -45.5v-24h-272q-32 0 -55 -22.5t-23 -54.5v-427q0 -32 23 -55t55 -23h272v-24q0 -27 19 -45.5t45 -18.5h132q26 0 45 18.5t19 45.5v24h272q32 0 55 23t23 55v427q0 32 -23 54.5t-55 22.5zM960 662v-73 q-8 -4 -17 -6t-18 -2q-35 0 -60 25t-25 60q0 12 3.5 22.5t9.5 20.5h62q18 -1 31.5 -15t13.5 -32v0zM110 707h63q6 -9 9.5 -20t3.5 -23q0 -35 -25 -60t-60 -25q-10 0 -18.5 2.5t-16.5 5.5v74q-2 19 11.5 32.5t32.5 13.5v0zM64 234v73q8 4 17 6t18 2q35 0 60 -25t25 -60 q0 -12 -3.5 -22.5t-9.5 -20.5h-61q-19 1 -32.5 15t-13.5 32v0zM208 189q4 11 6 21.5t2 21.5q0 48 -34.5 82.5t-82.5 34.5q-9 0 -18 -1.5t-17 -5.5v212q8 -3 17.5 -5t17.5 -2q48 0 82.5 34.5t34.5 82.5q0 11 -2 21.5t-6 21.5h174v-518h-174v0zM610 133q0 -13 -9.5 -22.5 t-22.5 -9.5h-132q-13 0 -22.5 9.5t-9.5 22.5v630q0 13 9.5 22.5t22.5 9.5h132q13 0 22.5 -9.5t9.5 -22.5v-630zM642 707h174q-4 -11 -6 -21.5t-2 -21.5q0 -48 34.5 -82.5t82.5 -34.5q9 0 18 1.5t17 5.5v-212q-8 3 -17.5 5t-17.5 2q-48 0 -82.5 -34.5t-34.5 -82.5 q0 -11 2 -21.5t6 -21.5h-174v518v0zM914 189h-63q-6 9 -9.5 20t-3.5 23q0 35 25 60t60 25q10 0 18.5 -2.5t16.5 -5.5v-74q2 -19 -11.5 -32.5t-32.5 -13.5v0z" />
</svg>