<svg viewBox="0 0 256 256" xmlns="http://www.w3.org/2000/svg">
  <path transform="scale(1, -1) translate(0, -256)" fill="currentColor" d="M228 207h-200q-10 0 -16.5 -7t-6.5 -16v-112q0 -10 6.5 -17t16.5 -7h200q10 0 16.5 7t6.5 17v112q0 10 -6.5 16.5t-16.5 6.5zM237 103h-41q-2 0 -3.5 1.5t-1.5 3.5v40q0 2 1.5 3.5t3.5 1.5h41v-50zM228 63h-200q-4 0 -6.5 2.5t-2.5 6.5v112q0 4 2.5 6.5t6.5 2.5h200 q4 0 6.5 -2.5t2.5 -6.5v-17h-41q-8 0 -13.5 -5.5t-5.5 -13.5v-41q0 -7 5.5 -12.5t13.5 -5.5h41v-17q0 -4 -2.5 -6.5t-6.5 -2.5zM216 120q4 0 6 2.5t2 5.5t-2 5.5t-5.5 2.5t-6 -2.5t-2 -5.5t2.5 -5.5t5 -2.5z" />
</svg>