<svg viewBox="0 0 256 256" xmlns="http://www.w3.org/2000/svg">
  <path transform="scale(1, -1) translate(0, -256)" fill="currentColor" d="M217 227l-84 23q-5 2 -9 0l-85 -23q-6 -1 -9.5 -6t-3.5 -11v-62q0 -47 26 -85.5t69 -56.5q3 -1 6.5 -1t7.5 1q43 18 69 56.5t26 86.5v61q0 6 -3.5 11t-9.5 6zM216 149q0 -42 -24 -78t-62 -51q-2 -1 -3 0q-40 15 -63.5 50.5t-23.5 78.5v61q0 3 3 4l84 23h2l84 -23 q3 -1 3 -4v-61zM142 146h-29q-6 0 -10 4t-4 10t4 10t10 4h47q3 0 5 2.5t2 5.5t-2 5t-5 2h-25v9q0 3 -2 5t-5 2t-5.5 -2t-2.5 -5v-9h-7q-12 0 -20 -8.5t-8 -20t8 -20t20 -8.5h29q6 0 10 -4t4 -10t-4 -10.5t-10 -4.5h-46q-3 0 -5 -2t-2 -5t2 -5t5 -2h25v-9q0 -3 2 -5t5 -2 t5.5 2t2.5 5v9h7q12 0 20 8t8 20t-8.5 20.5t-20.5 8.5z" />
</svg>