<svg viewBox="0 0 256 256" xmlns="http://www.w3.org/2000/svg">
  <path transform="scale(1, -1) translate(0, -256)" fill="currentColor" d="M248 166l-33 20q-2 8 -8.5 13t-15.5 5h-5l-54 34q-4 3 -8 0l-54 -34h-5q-9 0 -15.5 -5t-8.5 -13l-33 -21q-3 -2 -3 -6v-117q0 -11 7.5 -18.5t17.5 -7.5h196q11 0 18 7.5t7 18.5v118q0 3 -3 6zM237 142l-21 -8v35l21 -13v-14zM128 224l32 -20h-64zM65 190h126 q4 0 7.5 -2.5t3.5 -6.5v-52l-76 -28l-73 27v53q1 4 4.5 6.5t7.5 2.5zM40 168v-36l-21 8v16zM226 31h-196q-4 0 -7.5 3t-3.5 8v83l105 -38h2h3l108 40v-85q0 -4 -3 -7.5t-8 -3.5zM128 122q11 0 19 8t8 19t-8 19t-19 8t-19 -8t-8 -19t8 -19t19 -8zM128 162q5 0 9 -4t4 -9.5 t-4 -9t-9 -3.5t-9 3.5t-4 9t4 9.5t9 4z" />
</svg>