<svg viewBox="0 0 256 256" xmlns="http://www.w3.org/2000/svg">
  <path transform="scale(1, -1) translate(0, -256)" fill="currentColor" d="M228 204h-65v3q0 8 -5.5 13.5t-13.5 5.5h-33q-8 0 -13.5 -5.5t-5.5 -13.5v-3h-64q-10 0 -16.5 -6.5t-6.5 -15.5v-107q0 -9 6.5 -16t16.5 -7h65v-3q0 -8 5.5 -13.5t13.5 -5.5h33q8 0 13.5 5.5t5.5 13.5v3h65q10 0 16.5 6.5t6.5 15.5v108q-1 9 -7.5 15.5t-16.5 6.5z M237 182v-17q-3 -1 -6 -1q-7 0 -12.5 5.5t-5.5 12.5q0 4 2 8h14q3 0 5.5 -2.5t2.5 -5.5zM28 190h13q2 -4 2 -8q0 -7 -5 -12.5t-13 -5.5q-3 0 -6 2v16q0 3 2.5 5.5t6.5 2.5zM19 74v17q3 1 6 1q8 0 13 -5t5 -13q0 -4 -2 -8h-13q-4 0 -6.5 2.5t-2.5 5.5zM56 66q1 4 1 8 q0 13 -9.5 22.5t-22.5 9.5l-6 -1v45h6q13 0 22.5 9t9.5 23q0 4 -1 7h37v-123h-37zM149 49q0 -2 -1.5 -3.5t-3.5 -1.5h-33q-2 0 -3.5 1.5t-1.5 3.5v158q0 2 1.5 3.5t3.5 1.5h33q2 0 3.5 -1.5t1.5 -3.5v-158zM163 190h37q-1 -4 -1 -8q0 -13 9.5 -22.5t22.5 -9.5l6 1v-45l-6 1 q-13 0 -22.5 -9.5t-9.5 -22.5q0 -4 1 -8h-37v123zM228 66h-13q-2 4 -2 8q0 7 5 12.5t13 5.5q3 0 6 -2v-16q0 -3 -2.5 -5.5t-6.5 -2.5z" />
</svg>