<svg viewBox="0 0 256 256" xmlns="http://www.w3.org/2000/svg">
  <path transform="scale(1, -1) translate(0, -256)" fill="currentColor" d="M228 187h-45q0 5 -3.5 10t-9.5 7l-34 15q-8 3 -16 0l-34 -15q-6 -2 -9 -6.5t-4 -10.5h-45q-10 0 -16.5 -6.5t-6.5 -16.5v-106q0 -10 6.5 -16.5t16.5 -6.5h201q9 0 15.5 6.5t6.5 16.5v106q0 10 -6.5 16.5t-16.5 6.5zM200 49h-144q1 4 1 8q0 13 -9.5 22.5t-22.5 9.5l-6 -1 v46l6 -1q13 0 22.5 9.5t9.5 22.5q0 4 -1 7h17v-4q0 -28 10 -46t34 -34q5 -3 11 -3t11 3q24 16 34 34t10 46v5h17q-1 -4 -1 -8q0 -13 9.5 -22.5t22.5 -9.5l6 1v-45l-6 1q-13 0 -22.5 -9.5t-9.5 -22.5q0 -5 1 -9zM237 164v-16q-3 -1 -6 -1q-7 0 -12.5 5t-5.5 13q0 3 2 7h14 q3 1 5.5 -1.5t2.5 -6.5zM87 186q0 1 1 3t3 2l35 15h2h2l35 -15q2 0 3 -2t1 -3v-18q0 -24 -8.5 -39t-28.5 -29q-4 -2 -8 0q-20 14 -28.5 29t-8.5 39v18zM28 173h13q2 -4 2 -8q0 -7 -5 -12.5t-13 -5.5q-3 0 -6 1v17q0 3 2.5 5.5t6.5 2.5zM19 58v16q3 1 6 1q8 0 13 -5t5 -13 q0 -3 -2 -7h-13q-4 -1 -6.5 1.5t-2.5 6.5zM228 49h-13q-2 4 -2 8q0 7 5 12.5t13 5.5q3 0 6 -1v-17q0 -3 -2.5 -5.5t-6.5 -2.5zM116 138q1 -2 4.5 -2t4.5 2l25 20q3 2 3 5t-1.5 5t-4.5 2.5t-5 -1.5l-21 -16l-4 5q-2 2 -5 2t-5.5 -2t-2.5 -4.5t2 -5.5z" />
</svg>