<svg viewBox="0 0 256 256" xmlns="http://www.w3.org/2000/svg">
  <path transform="scale(1, -1) translate(0, -256)" fill="currentColor" d="M128 252q-28 0 -51.5 -13t-37.5 -35.5t-14 -49.5t35 -76q23 -32 55 -66q6 -6 13.5 -6t12.5 6q32 34 55 66q35 49 35 76t-14 49.5t-37.5 35.5t-51.5 13zM131 22q-1 -2 -3 -2t-3 2q-29 31 -51 60q-35 48 -35 73q0 22 12 41.5t32.5 30.5t44.5 11t44.5 -11t32.5 -30.5 t12 -41.5q0 -25 -35 -73q-22 -29 -51 -60zM139 154h-21q-4 0 -6.5 2.5t-2.5 6t2.5 6t6.5 2.5h33q3 0 5 2t2 5t-2 5.5t-5 2.5h-16v4q0 3 -2 5t-5 2t-5 -2t-2 -5v-4h-4q-9 0 -15.5 -6.5t-6.5 -16t6.5 -16t15.5 -6.5h21q4 0 6.5 -2.5t2.5 -6t-2.5 -6t-6.5 -2.5h-33q-3 0 -5 -2 t-2 -5t2 -5t5 -2h16v-5q0 -3 2 -5t5 -2t5 2t2 5v5h4q9 0 15.5 6.5t6.5 15.5t-6.5 15.5t-15.5 6.5z" />
</svg>