<svg viewBox="0 0 1024 1024" xmlns="http://www.w3.org/2000/svg">
  <path transform="scale(1, -1) translate(0, -960)" fill="currentColor" d="M866 834l-338 92q-8 2 -16 2t-16 -2l-338 -92q-19 -5 -31 -21t-12 -35v-247q0 -93 27 -179q26 -86 75 -159t118 -129q69 -57 155 -91q4 -3 10 -4t12 -1t11 1t11 4q86 35 155 92t118 130t75 159q27 86 27 179v245q-1 19 -13 35t-30 21v0zM875 533q0 -87 -25 -169 q-26 -82 -72.5 -151.5t-111.5 -123.5t-144 -86q-5 -2 -10.5 -2t-10.5 2q-81 33 -146 86q-65 54 -110.5 122.5t-70.5 150.5q-25 81 -25 169v247q0 8 5.5 15.5t13.5 9.5l338 93h3h3h3t3 -2l338 -92q8 -3 13.5 -10.5t5.5 -15.5v-243v0zM570 507h-117q-29 0 -49 20t-20 49t20 49 t49 20h185q8 0 12 4.5t4 11.5t-4 11.5t-12 4.5h-110v46q0 7 -4.5 11.5t-11.5 4.5t-11.5 -4.5t-4.5 -11.5v-46h-42q-42 0 -71 -29.5t-29 -71.5t29 -71.5t71 -29.5h117q29 0 49 -20t20 -49q0 -28 -20 -48t-49 -20h-185q-8 0 -12 -4.5t-4 -11.5q0 -8 4 -12t12 -4h110v-47 q0 -7 4.5 -11.5t11.5 -4.5t11.5 4.5t4.5 11.5v45h42q42 0 71 29.5t29 71.5t-29 72t-71 30v0z" />
</svg>