<svg viewBox="0 0 1024 1024" xmlns="http://www.w3.org/2000/svg">
  <path transform="scale(1, -1) translate(0, -960)" fill="currentColor" d="M776 813q-52 54 -117 83.5t-137 31.5q-75 2 -143.5 -25t-122.5 -79q-53 -52 -81.5 -120t-28.5 -142q0 -48 11 -93q12 -45 34 -85t54 -74q33 -34 73 -59q21 -13 33 -35.5t12 -49.5v-67q0 -54 38.5 -92.5t92.5 -38.5h36q54 0 92.5 38.5t38.5 92.5v69q0 25 12 47.5t33 35.5 q39 25 70 58q31 32 53 71t34 82q13 44 14 90q2 72 -23.5 139.5t-77.5 121.5v0zM629 99q0 -41 -29.5 -70t-69.5 -29h-36q-40 0 -69.5 29t-29.5 70v67q0 11 -1.5 21t-4.5 19h246q-2 -8 -3.5 -17.5t-1.5 -18.5v-71h-1zM690 278q-12 -7 -22.5 -17.5t-17.5 -22.5h-276 q-7 12 -17.5 22.5t-22.5 17.5q-36 23 -65 54t-49.5 67.5t-31.5 77.5q-10 41 -10 85q0 68 25.5 129.5t74.5 108.5q48 47 108 71.5t126 24.5h4.5h3.5q66 -1 125.5 -28.5t106.5 -77.5q47 -49 71 -110.5t22 -127.5q-1 -42 -12 -82q-11 -39 -31 -74.5t-49 -65.5q-28 -29 -63 -52 v0zM485 685h115q7 0 11.5 4.5t4.5 11.5t-4.5 11.5t-11.5 4.5h-54v37q0 7 -4.5 11.5t-11.5 4.5q-8 0 -12 -4.5t-4 -11.5v-37h-29q-33 0 -56 -23t-23 -54q0 -32 23 -54.5t56 -22.5h53q19 0 32.5 -13.5t13.5 -31.5q0 -19 -13.5 -31.5t-32.5 -12.5h-116q-7 0 -11.5 -4.5 t-4.5 -11.5q0 -8 4.5 -12t11.5 -4h90v-37q0 -7 4.5 -11.5t11.5 -4.5t11.5 4.5t4.5 11.5v37q30 2 50 24t20 52q0 33 -23 55t-55 22h-53q-19 0 -32.5 13.5t-13.5 31.5t15 31.5t33 13.5v0z" />
</svg>