<svg viewBox="0 0 1024 1024" xmlns="http://www.w3.org/2000/svg">
  <path transform="scale(1, -1) translate(0, -960)" fill="currentColor" d="M984 587l-133 85q-6 30 -30.5 50t-55.5 20h-26l-219 136q-4 3 -8.5 3t-9.5 -3l-219 -137h-25q-32 0 -56 -19.5t-31 -51.5l-134 -83q-1 -2 -3 -5.5t-2 -7.5v-470q0 -37 26 -62.5t62 -25.5h782q38 0 63 26t25 62v470q2 4 0 7.5t-6 5.5zM960 496l-107 -40v176l107 -67v-69z M512 846l168 -104h-336zM259 709h506q21 0 37 -14t19 -34v-1v-1v-3v-3v-208l-317 -117l-302 110v215v3v3v1v1q3 20 19.5 34t37.5 14zM171 632v-182l-107 38v77zM904 48h-784q-24 0 -40 16.5t-16 39.5v350l117 -41v0v0l320 -117q1 0 2 -1t3 -1q1 0 2 0.5t2 1.5l450 165v-357 q0 -23 -16.5 -39.5t-39.5 -16.5zM512 437q40 0 68 28t28 68q0 39 -28 67.5t-68 28.5t-68 -28.5t-28 -67.5q0 -40 28 -68t68 -28zM512 595q26 0 45 -18.5t19 -45.5q0 -26 -19 -45t-45 -19t-45 19t-19 45q0 27 19 45.5t45 18.5z" />
</svg>