<svg viewBox="0 0 256 256" xmlns="http://www.w3.org/2000/svg">
  <path transform="scale(1, -1) translate(0, -256)" fill="currentColor" d="M140 145h19q3 0 5 2t2 5t-2 5t-5 2h-5v1q0 3 -2 5.5t-5 2.5t-5 -2.5t-2 -5.5v-1q-7 0 -12 -5t-5 -11.5t5 -11.5t12 -5h8q3 0 3 -3t-3 -3h-18q-3 0 -5 -2t-2 -5t2 -5t5 -2h10v-2q0 -3 2 -5t5 -2t5 2t2 5v3q5 2 8.5 6t3.5 10t-5 11t-12 5h-9q-2 0 -2 3t2 3zM164 80h-99 q-3 0 -5 2t-2 5v91q0 3 2 5t5 2h160q3 0 5 -2t2 -5v-55q0 -3 2 -5t5 -2t5 2t2 5v55q0 9 -6 15t-15 6h-17v7q0 9 -6 15.5t-15 6.5h-160q-8 0 -14.5 -6.5t-6.5 -15.5v-91q0 -8 6.5 -14.5t14.5 -6.5h17v-7q0 -9 6 -15t15 -6h100q3 0 5 2t2 5t-2.5 5t-5.5 2zM26 108q-3 0 -5 2 t-2 5v92q0 3 2 5t5 2h160q3 0 5.5 -2t2.5 -5v-7h-129q-9 0 -15 -6.5t-6 -15.5v-70h-18zM244 73h-4v9q0 9 -6.5 15.5t-16 6.5t-16 -6.5t-6.5 -15.5v-9h-5q-3 0 -5 -2t-2 -5v-32q0 -3 2 -5t5 -2h54q3 0 5 2t2 5v32q0 3 -2 5t-5 2zM209 82q0 3 2.5 5.5t6 2.5t6 -2t2.5 -6v-9 h-17v9zM237 42h-40v18h40v-18z" />
</svg>