<svg viewBox="0 0 256 256" xmlns="http://www.w3.org/2000/svg">
  <path transform="scale(1, -1) translate(0, -256)" fill="currentColor" d="M121 120h29q3 0 5 2t2 4.5t-2 5t-5 2.5h-11v6q0 3 -2 5t-5 2t-5 -2t-2 -5v-6h-4q-9 0 -16 -6.5t-7 -16t6.5 -16t16.5 -6.5h13q4 0 6 -2.5t2 -6t-2.5 -6t-5.5 -2.5h-29q-3 0 -5 -2t-2 -5t2 -5t5 -2h20v-6q0 -3 2 -5t5 -2t5 2t2 5v7q8 1 13 7.5t5 15t-6.5 15t-16.5 6.5h-13 q-3 0 -5.5 2.5t-2.5 6t2.5 6t5.5 2.5zM222 114q-9 22 -26 42q-14 18 -28 28l22 41q2 4 1 8t-4 7q-11 11 -25 11q-9 0 -22 -5l-2 -1q-5 -2 -7 -2q-20 7 -31 7q-19 0 -34 -16q-3 -3 -3.5 -7.5t1.5 -8.5l23 -34q-14 -11 -28 -28q-16 -20 -26 -42q-12 -27 -12 -57 q0 -21 15.5 -36.5t36.5 -15.5h110q21 0 36.5 15.5t15.5 36.5q0 29 -13 57zM76 225q12 11 24 11q9 0 26 -6q2 -1 6 -1t12 3l2 1q10 5 16 5q7 0 15 -7l-23 -42h-54zM183 19h-110q-15 0 -26.5 11t-11.5 27q0 27 11 52q9 20 24 38t29 28h58q15 -12 29 -28.5t24 -37.5 q10 -25 10 -52q1 -16 -10.5 -27t-26.5 -11z" />
</svg>