<svg viewBox="0 0 1024 1024" xmlns="http://www.w3.org/2000/svg">
  <path transform="scale(1, -1) translate(0, -960)" fill="currentColor" d="M485 427h45v0v0v0v0h70q7 0 11.5 4.5t4.5 11.5t-4.5 11.5t-11.5 4.5h-54v37q0 7 -4.5 11.5t-11.5 4.5q-8 0 -12 -4.5t-4 -11.5v-37h-29q-33 0 -56 -22.5t-23 -54.5t23 -54t56 -22h53q19 0 32.5 -13.5t13.5 -31.5t-13.5 -31.5t-32.5 -13.5h-116q-7 0 -11.5 -4.5 t-4.5 -11.5t4.5 -11.5t11.5 -4.5h90v-40q0 -7 4.5 -11.5t11.5 -4.5t11.5 4.5t4.5 11.5v37q30 2 50 24.5t20 52.5q0 32 -23 54t-55 22h-53q-19 0 -32.5 13.5t-13.5 31.5t15 33t33 15v0zM880 389v0q-19 43 -44.5 84.5t-57.5 80.5q-35 42 -67 71t-53 45l91 172q6 12 4 25 t-11 21q-22 19 -45.5 29.5t-48.5 10.5q-24 0 -44.5 -7t-37.5 -14h-1q-11 -5 -21.5 -9t-18.5 -4q-1 0 -2.5 0.5t-2.5 1.5q-36 13 -65 21t-57 8q-36 0 -67 -14.5t-61 -44.5q-9 -10 -10.5 -24t6.5 -26l97 -147q-21 -17 -52 -45.5t-65 -68.5q-32 -38 -58 -79.5t-44 -85.5 q-24 -54 -36 -110.5t-12 -113.5q0 -40 15 -75q16 -36 42.5 -62.5t61.5 -41.5q36 -16 76 -16h439q40 0 75 16q36 15 62.5 41.5t41.5 62.5q16 35 16 75q1 56 -10.5 112t-34.5 111v0zM294 834q-1 2 -0.5 4.5t2.5 4.5q25 25 50 37.5t54 12.5q24 0 50 -7t59 -19q14 -6 31.5 -1 t37.5 12h1q15 6 32.5 12t36.5 6t37 -8t35 -24q1 -1 2 -3.5t0 -4.5l-95 -176h-232l-101 154v0zM731 0h-438q-67 0 -115 48t-48 115q0 54 11 107.5t33 105.5q18 41 42.5 80.5t55.5 76.5q36 42 68.5 71.5t51.5 43.5h240q20 -16 52 -44.5t68 -70.5q31 -37 55.5 -76.5t42.5 -80.5 q21 -52 32.5 -105t11.5 -108q0 -67 -48 -115t-115 -48z" />
</svg>