<svg viewBox="0 0 256 256" xmlns="http://www.w3.org/2000/svg">
  <path transform="scale(1, -1) translate(0, -256)" fill="currentColor" d="M244 120h-5v9q0 10 -6.5 16.5t-16 6.5t-16 -6.5t-6.5 -16.5v-9h-5q-3 0 -5 -2t-2 -5v-32q0 -3 2 -5t5 -2h55q3 0 5 2t2 5v32q0 3 -2 5t-5 2zM208 129q0 4 2.5 6.5t6 2.5t6 -2.5t2.5 -6.5v-9h-17v9zM237 88h-41v18h41v-18zM107 170h25q3 0 5 2t2 5t-2 5t-5 2h-9v4 q0 3 -2 5.5t-5 2.5t-5 -2.5t-2 -5.5v-4h-3q-8 0 -14 -6t-6 -14.5t6 -14.5t14 -6h12q3 0 4.5 -1.5t1.5 -4.5t-1.5 -5t-4.5 -2h-25q-3 0 -5 -2t-2 -5t2 -5t5 -2h16v-4q0 -3 2 -5.5t5 -2.5t5.5 2.5t2.5 5.5v5q6 2 10.5 7t4.5 13t-6 14t-15 6h-11q-3 0 -5 1.5t-2 4.5t2 5t5 2z M158 90h-131q-3 0 -5.5 2.5t-2.5 5.5v110q0 3 2.5 5.5t5.5 2.5h171q3 0 5.5 -2.5t2.5 -5.5v-37q0 -3 2 -5t5 -2t5 2t2 5v37q0 9 -6.5 15.5t-15.5 6.5h-171q-9 0 -15.5 -6.5t-6.5 -15.5v-109q0 -9 6.5 -15.5t15.5 -6.5h79v-36h-30q-3 0 -5.5 -2t-2.5 -5t2.5 -5.5t5.5 -2.5h74 q3 0 5 2.5t2 5.5t-2 5t-5 2h-30v36h38q3 0 5 2t2 5t-2 4.5t-5 1.5z" />
</svg>