<svg viewBox="0 0 1024 1024" xmlns="http://www.w3.org/2000/svg">
  <path transform="scale(1, -1) translate(0, -960)" fill="currentColor" d="M589 626q-22 0 -42 -6t-37 -17q-14 9 -33 16t-43 7q-54 0 -90.5 -39t-36.5 -96q-2 -60 44.5 -115.5t138.5 -97.5l22 -9l21 9q26 12 57 32q32 19 60 45.5t46 60.5q19 33 19 74q1 57 -35.5 96.5t-90.5 39.5v0zM520 309l-8 -5l-10 3q-46 23 -105.5 69.5t-57.5 114.5 q0 43 27.5 73t67.5 30q21 0 38 -8t30 -15l10 -6l10 6q13 11 30.5 16t36.5 5q39 0 66.5 -29.5t27.5 -72.5q1 -68 -58 -114t-105 -67zM720 928h-416q-60 0 -102 -42t-42 -102v-672q0 -60 42 -102t102 -42h416q60 0 102 42t42 102v672q0 60 -42.5 102t-101.5 42zM832 112 q0 -47 -32.5 -79.5t-79.5 -32.5h-416q-47 0 -79.5 32.5t-32.5 79.5v672q0 47 32.5 79.5t79.5 32.5h416q47 0 79.5 -32.5t32.5 -79.5v-672zM568 131h-125q-7 0 -11.5 -4.5t-4.5 -11.5t4.5 -11.5t11.5 -4.5h125q7 0 11.5 4.5t4.5 11.5t-5 11.5t-11 4.5zM472 787h67 q7 0 11.5 4.5t4.5 11.5t-4.5 11.5t-11.5 4.5h-67q-7 0 -11.5 -4.5t-4.5 -11.5t4.5 -11.5t11.5 -4.5v0z" />
</svg>