<svg viewBox="0 0 256 256" xmlns="http://www.w3.org/2000/svg">
  <path transform="scale(1, -1) translate(0, -256)" fill="currentColor" d="M228 246h-26q-3 0 -5 -2.5t-2 -5.5t2 -5t5 -2h26q4 0 6.5 -2.5t2.5 -6.5v-132q0 -3 -2.5 -6t-6.5 -3h-200q-4 0 -6.5 3t-2.5 6v132q0 4 2.5 7t6.5 3h24q3 0 5 2t2 5t-2 5t-5 2h-24q-9 0 -16 -7t-7 -17v-131q0 -10 7 -17t16 -7h66v-42h-16q-3 0 -5 -2t-2 -5t2 -5t5 -2h100 q3 0 5 2t2 5t-2 5t-5 2h-16v42h65q9 0 16 7t7 17v131q1 10 -6 17t-16 7zM148 25h-40v42h40v-42zM108 170h13v-13q0 -3 2 -5t5 -2t5 2t2 5v13h13q3 0 5 2t2 5t-2 5t-5 2h-13v13q0 3 -2 5t-5 2t-5 -2t-2 -5v-13h-13q-3 0 -5 -2t-2 -5t2 -5t5 -2zM128 112q18 0 33 8.5t24 24 t9 33t-9 32.5t-24 24t-33 9t-33 -9t-24 -24t-9 -32.5t9 -33t24 -24t33 -8.5zM128 229q21 0 36.5 -15.5t15.5 -36.5t-15.5 -36t-36.5 -15t-36.5 15t-15.5 36.5t15.5 36.5t36.5 15z" />
</svg>