<svg viewBox="0 0 1024 1024" xmlns="http://www.w3.org/2000/svg">
  <path transform="scale(1, -1) translate(0, -960)" fill="currentColor" d="M976 405h-32v48q0 32 -23 55t-55 23q-33 0 -56 -23t-23 -55v-48h-32q-7 0 -11.5 -4.5t-4.5 -11.5v-128q0 -7 4.5 -11.5t11.5 -4.5h221q7 0 11.5 4.5t4.5 11.5v128q0 6 -4.5 11t-11.5 5zM819 453q0 19 13.5 32.5t33.5 13.5q19 0 32.5 -13.5t13.5 -32.5v-48h-93v48v0z M960 275h-189v96h189v-96zM427 629h99q8 0 12 4.5t4 11.5t-4 11.5t-12 4.5h-44v29q0 7 -4.5 11.5t-11.5 4.5q-8 0 -12 -4.5t-4 -11.5v-29h-23q-29 0 -49 -20t-20 -49t20 -49t49 -20h47q15 0 25.5 -10.5t10.5 -26.5q0 -15 -11 -26.5t-27 -11.5h-99q-7 0 -11.5 -4.5 t-4.5 -11.5t4.5 -11.5t11.5 -4.5h75v-29q0 -7 4.5 -11.5t11.5 -4.5t11.5 4.5t4.5 11.5v31q25 3 43 22.5t18 45.5q0 29 -20 49t-49 20h-46q-16 0 -26.5 10.5t-10.5 26.5t11.5 26.5t26.5 10.5v0zM630 286h-521q-18 0 -31.5 13t-13.5 32v435q0 18 13 31.5t32 13.5h683 q18 0 31.5 -12.5t13.5 -32.5v-147q0 -7 4.5 -11.5t11.5 -4.5t11.5 4.5t4.5 11.5v147q0 32 -22.5 54.5t-54.5 22.5h-683q-33 -1 -55 -23t-22 -54v-435q0 -31 22 -54t55 -23h326v-168h-133q-7 0 -11.5 -4t-4.5 -12q0 -7 4.5 -11.5t11.5 -4.5h298q7 0 11.5 4.5t4.5 11.5 q0 8 -4.5 12t-11.5 4h-133v168h165q7 0 11.5 4.5t4.5 11.5q0 8 -6 12t-12 4z" />
</svg>