<svg viewBox="0 0 1024 1024" xmlns="http://www.w3.org/2000/svg">
  <path transform="scale(1, -1) translate(0, -960)" fill="currentColor" d="M910 906h-100q-8 0 -12 -4.5t-4 -11.5q0 -8 4 -12t12 -4h100q21 0 35.5 -15t14.5 -35v-525q0 -20 -14.5 -34.5t-35.5 -14.5h-796q-21 0 -35.5 14.5t-14.5 34.5v525q0 20 14.5 35t35.5 15h94q7 0 11.5 4t4.5 12q0 7 -4.5 11.5t-11.5 4.5h-94q-34 0 -58 -24t-24 -58v-525 q0 -33 24 -57t58 -24h273v-194h-77q-7 0 -11.5 -4.5t-4.5 -11.5t4.5 -11.5t11.5 -4.5v0v0h309h0.5h1.5v0h1h92q7 0 11.5 4.5t4.5 11.5t-4.5 11.5t-11.5 4.5v0v0h-76v192h274q34 0 58 24t24 58v526q-2 34 -26 58t-58 24v0zM605 22h-186v194h186v-194zM432 629h64v-64 q0 -7 4.5 -11.5t11.5 -4.5t11.5 4.5t4.5 11.5v64h64q7 0 11.5 4.5t4.5 11.5t-4.5 11.5t-11.5 4.5h-64v64q0 7 -4.5 11.5t-11.5 4.5t-11.5 -4.5t-4.5 -11.5v-64h-64q-7 0 -11.5 -4.5t-4.5 -11.5t5 -11.5t11 -4.5zM512 394q52 0 97 19q45 20 79 54t54 79q20 46 20 97 q0 52 -20 97q-20 46 -53.5 80.5t-79.5 54.5q-45 19 -97 19t-97 -19q-45 -20 -79 -54t-54 -79q-20 -46 -20 -97q0 -52 20 -97q20 -46 53.5 -80.5t79.5 -53.5q45 -20 97 -20v0zM512 862q45 0 85 -17q39 -17 68.5 -46.5t46.5 -69.5q18 -39 18 -84t-18 -85q-17 -40 -46.5 -70 t-68.5 -47q-40 -17 -85 -17t-85 17q-39 17 -68.5 46.5t-46.5 69.5q-18 39 -18 84t18 85q17 40 46.5 70t68.5 47q40 17 85 17v0z" />
</svg>