<svg viewBox="0 0 256 256" xmlns="http://www.w3.org/2000/svg">
  <path transform="scale(1, -1) translate(0, -256)" fill="currentColor" d="M68 148h21l13 -30q1 -2 3 -3.5t5 -1.5q5 0 7 5l20 51l17 -41q2 -3 5 -5.5t7 -2.5h22q3 0 5 2t2 5t-2 5t-5 2h-21l-22 52q-2 6 -7.5 6t-8.5 -6l-20 -50l-8 18q-3 8 -11 8h-22q-3 0 -5 -2t-2 -5t2 -5t5 -2zM220 233h-184q-13 0 -22 -9t-9 -22v-147q0 -13 9 -22t22 -9h184 q13 0 22 9t9 22v147q0 12 -9 21.5t-22 9.5zM36 219h184q7 0 12 -5t5 -12v-108h-218v108q0 7 5 12t12 5zM220 37h-184q-7 0 -12 5t-5 12v26h218v-26q0 -7 -5 -12t-12 -5zM88 67h-19q-3 0 -5 -2t-2 -5t2 -5.5t5 -2.5h19q3 0 5 2.5t2 5.5t-2 5t-5 2zM138 67h-20q-3 0 -5 -2 t-2 -5t2 -5.5t5 -2.5h20q3 0 5 2.5t2 5.5t-2 5t-5 2zM187 67h-19q-3 0 -5 -2t-2 -5t2 -5.5t5 -2.5h19q3 0 5 2.5t2 5.5t-2 5t-5 2z" />
</svg>