<svg viewBox="0 0 1024 1024" xmlns="http://www.w3.org/2000/svg">
  <path transform="scale(1, -1) translate(0, -960)" fill="currentColor" d="M272 542h88q2 0 3.5 -1t2.5 -2l53 -125q3 -6 8 -9t11 -3v0v0q8 0 12.5 3.5t7.5 10.5l89 229l82 -189q5 -11 14 -16.5t21 -5.5h88q7 0 11.5 4t4.5 12q0 7 -4.5 11.5t-11.5 4.5h-86q-3 0 -4.5 1t-2.5 2l-91 211q-2 6 -8 10t-13 3q-7 0 -12.5 -4.5t-8.5 -10.5l-88 -227 l-43 101q-5 11 -14 16.5t-21 5.5h-88q-7 0 -11.5 -4t-4.5 -12q0 -7 5 -11.5t11 -4.5v0zM880 854h-736q-47 0 -79.5 -32.5t-32.5 -79.5v-588q0 -47 32.5 -79.5t79.5 -32.5h736q46 0 79 32.5t33 79.5v588q0 47 -32.5 79.5t-79.5 32.5zM144 822h736q32 0 56 -23t24 -57v-443 h-896v443q0 34 23 57t57 23v0zM880 74h-736q-32 0 -56 23t-24 57v113h896v-113q0 -34 -23 -57t-57 -23zM352 190h-77q-7 0 -11.5 -4t-4.5 -12q0 -7 4.5 -11.5t11.5 -4.5h77q7 0 11.5 4.5t4.5 11.5q0 8 -5 12t-11 4zM550 190h-76q-8 0 -12 -4t-4 -12q0 -7 4 -11.5t12 -4.5h76 q8 0 12 4.5t4 11.5q0 8 -4 12t-12 4zM749 190h-77q-7 0 -11.5 -4t-4.5 -12q0 -7 4.5 -11.5t11.5 -4.5h77q7 0 11.5 4.5t4.5 11.5q0 8 -4.5 12t-11.5 4z" />
</svg>