<svg viewBox="0 0 256 256" xmlns="http://www.w3.org/2000/svg">
  <path transform="scale(1, -1) translate(0, -256)" fill="currentColor" d="M212 206h-16q-3 0 -5.5 -2t-2.5 -5t2.5 -5t5.5 -2h16q3 0 5.5 -2t2.5 -5v-111q0 -3 -2.5 -5.5t-5.5 -2.5h-168q-3 0 -5.5 2.5t-2.5 5.5v112q0 3 2.5 5t5.5 2h19q3 0 5 2t2 5t-2 5t-5 2h-19q-9 0 -15.5 -6t-6.5 -15v-111q0 -9 6.5 -15t15.5 -6h50v-34h-8q-3 0 -5 -2.5 t-2 -5.5t2 -4.5t5 -1.5h85q3 0 5 2t2 5t-2 5t-5 2h-9v34h51q9 0 15 6t6 15v111q0 8 -6.5 14t-15.5 6zM148 19h-40v34h40v-34zM118 174q0 -1 -1 -1l-21 -21q-2 -2 -2 -5t2 -5.5t5 -2.5t5 3l22 22l22 -22q2 -2 5 -2t5 2t2 4.5t-2 5.5l-22 21v1q10 10 14 16q13 17 10 34 q-3 11 -12.5 18.5t-21.5 7.5t-21.5 -7.5t-12.5 -18.5q-3 -16 10 -34q4 -5 14 -16v0zM108 221q2 6 7.5 11t12.5 4.5t13 -5t7 -10.5q2 -9 -6 -23q-7 -8 -14 -15l-2 3q-8 8 -11 12q-9 13 -7 23z" />
</svg>