<svg viewBox="0 0 256 256" xmlns="http://www.w3.org/2000/svg">
  <path transform="scale(1, -1) translate(0, -256)" fill="currentColor" d="M147 175q-11 0 -19 -5q-11 5 -20 5q-14 0 -24 -10.5t-10.5 -26t11.5 -30t36 -25.5l7 -3l6 3q23 11 35.5 25.5t12.5 30t-10 26t-25 10.5zM129 96l-1 -1l-1 1q-16 8 -25 16q-15 13 -14 27q0 9 6 15.5t14 6.5t16 -5l5 -3l4 3q5 5 14.5 5t15 -6.5t5.5 -15.5q0 -14 -14 -27 q-10 -9 -25 -16zM180 251h-104q-16 0 -27.5 -11.5t-11.5 -27.5v-168q0 -17 11.5 -28.5t27.5 -11.5h104q16 0 27.5 11.5t11.5 28.5v168q0 16 -11.5 27.5t-27.5 11.5zM205 44q0 -10 -7.5 -17.5t-17.5 -7.5h-104q-10 0 -17.5 7.5t-7.5 17.5v168q0 10 7.5 17.5t17.5 7.5h104 q10 0 17.5 -7.5t7.5 -17.5v-168zM142 52h-31q-3 0 -5 -2t-2 -5t2 -5t5 -2h31q3 0 5 2t2 5t-2 5t-5 2zM118 210h17q3 0 5 2t2 5t-2 5t-5 2h-17q-3 0 -5 -2t-2 -5t2 -5t5 -2z" />
</svg>