<svg viewBox="0 0 1024 1024" xmlns="http://www.w3.org/2000/svg">
  <path transform="scale(1, -1) translate(0, -960)" fill="currentColor" d="M850 750h-68q-7 0 -11.5 -4t-4.5 -12q0 -7 4.5 -11.5t11.5 -4.5h68q16 0 28 -11.5t12 -28.5v-444q0 -17 -12 -28.5t-28 -11.5h-676q-16 0 -28 11.5t-12 28.5v444q0 17 12 28.5t28 11.5h79q7 0 11.5 4.5t4.5 11.5q0 8 -4.5 12t-11.5 4h-79q-30 0 -51 -21t-21 -51v-444 q0 -30 21 -51t51 -21h215v-160h-48q-7 0 -11.5 -4.5t-4.5 -11.5q0 -8 4.5 -12t11.5 -4v0v0h341q7 0 11.5 4t4.5 12q0 7 -4.5 11.5t-11.5 4.5v0v0h-48v158h214q30 0 51 21t21 51v446q1 29 -19.5 50.5t-50.5 21.5v0zM603 0h-181v160h181v-160zM490 630q-5 -4 -10 -9l-10 -10 l-9 -9l-34 -34t-33 -34q-5 -4 -5 -10.5t5 -11.5q4 -5 10.5 -5t11.5 5l33.5 33.5l33.5 33.5l10 10l9.5 9.5l9.5 9.5l9.5 -9.5l9.5 -9.5l13 -13l32.5 -32.5l31.5 -31.5q2 -2 5 -3.5t6 -1.5q4 0 6.5 1.5t4.5 3.5q5 5 5 11.5t-5 10.5q-15 16 -31.5 32.5t-32.5 31.5l-12 13 l-10 10t-10 9q17 17 33.5 36t32.5 38q23 31 32 63.5t3 61.5q-8 41 -43.5 69.5t-79.5 29.5q-43 -1 -78.5 -29.5t-44.5 -69.5q-6 -29 3 -61.5t32 -63.5q16 -20 32.5 -38.5t33.5 -35.5v0zM419 822q7 32 33 52.5t58 21.5q33 -1 59.5 -22.5t33.5 -51.5q6 -30 -6.5 -56.5 t-23.5 -42.5q-15 -19 -30.5 -37t-32.5 -33q-15 17 -31.5 34t-30.5 36q-10 16 -22.5 42.5t-6.5 56.5z" />
</svg>