<svg viewBox="0 0 1024 1024" xmlns="http://www.w3.org/2000/svg">
  <path transform="scale(1, -1) translate(0, -960)" fill="currentColor" d="M555 -32q-78 0 -153 25t-140 74q-42 33 -75 73q-34 40 -58 86t-38 96q-14 51 -17 105q-4 65 11 128q14 63 44.5 119.5t74.5 103.5q44 48 100 81q65 39 134.5 56.5t142.5 12.5q9 0 17 -5.5t12 -15.5q3 -8 1 -17.5t-9 -15.5q-35 -35 -60 -77q-25 -41 -38.5 -87t-14.5 -94 q-2 -49 9 -98q15 -71 55 -130q39 -58 95 -98.5t124 -59.5q68 -20 142 -12v0q9 1 18 -3.5t14 -12.5q4 -9 3.5 -18t-5.5 -16q-26 -36 -58 -66q-31 -31 -67.5 -54.5t-77.5 -40.5q-40 -17 -83 -26q-26 -7 -52 -10t-51 -3v0zM552 896q-61 0 -118.5 -16.5t-111.5 -49.5 q-53 -31 -94 -75t-69.5 -96.5t-42.5 -111.5q-13 -59 -10 -120q2 -50 15 -97q13 -48 35.5 -91t53.5 -80q32 -38 72 -68q39 -30 84 -50q44 -21 91 -31.5t96 -10.5t97 11q40 9 78 25q37 16 71 38t64 51q30 28 54 62v-2q-79 -8 -152 13q-74 21 -134 65t-103 107q-42 64 -59 141 q-12 53 -10 105t16.5 101.5t40.5 94.5q27 46 65 83q-7 2 -14.5 2h-14.5z" />
</svg>