<svg viewBox="0 0 256 256" xmlns="http://www.w3.org/2000/svg">
  <path transform="scale(1, -1) translate(0, -256)" fill="currentColor" d="M219 73q-23 -2 -44.5 6.5t-36 26t-19.5 40.5t1.5 46t23.5 40q5 5 2.5 11.5t-9.5 7.5q-38 2 -71 -18q-29 -17 -45 -47t-14 -64q1 -27 14 -51t34 -41q16 -12 35.5 -18.5t39.5 -6.5q14 0 26 3q22 5 41 17.5t32 30.5q4 6 0.5 12t-10.5 5zM153 22q-23 -6 -46.5 -0.5t-43 20 t-30.5 36t-12 45.5q-2 30 12.5 56.5t40.5 42t55 15.5h1q-17 -19 -23.5 -44t-1 -50t21.5 -44.5t38.5 -30t48.5 -9.5q-12 -14 -27.5 -23.5t-33.5 -13.5zM179 198l-3 -15q-1 -3 0.5 -5.5t3.5 -4.5q5 -3 10 -1l14 8l14 -8q2 -1 4.5 -1t5.5 2q5 4 4 10l-3 15l11 11q5 4 3 9.5 t-8 7.5l-15 2l-7 14q-1 2 -3.5 4t-5.5 2q-6 0 -8 -6l-7 -14l-15 -2q-3 -1 -5 -2.5t-3 -4.5t-0.5 -5.5t2.5 -4.5zM193 214q5 1 7 6l4 8l4 -8q3 -5 8 -6l9 -1l-7 -6q-4 -4 -2 -9l1 -9l-8 4q-5 3 -9 0l-9 -4l2 9q0 5 -3 9l-7 6zM249 123q-2 6 -8 7l-9 1l-3 8q-3 5 -9 5t-9 -6 l-3 -7l-9 -1q-2 -1 -4.5 -2.5t-3.5 -4.5t0 -5.5t3 -4.5l6 -6l-2 -9q-1 -2 0.5 -5t4 -4.5t5 -1.5t4.5 1l8 4l7 -4q6 -3 10.5 0.5t4.5 9.5l-2 9l6 6q5 4 3 10zM229 116q-3 -4 -3 -9l1 -2l-2 1q-3 1 -5 1t-4 -1l-2 -1v2q1 5 -2 9l-2 1l2 1q5 0 8 5v2l1 -2q3 -5 8 -5l2 -1z" />
</svg>