<svg viewBox="0 0 256 256" xmlns="http://www.w3.org/2000/svg">
  <path transform="scale(1, -1) translate(0, -256)" fill="currentColor" d="M139 5q-20 0 -39.5 6.5t-35.5 18.5q-22 17 -34.5 41t-13.5 51q-2 34 14 64t45 47q33 20 71 18q7 -1 9.5 -7t-2.5 -12q-17 -17 -23.5 -40t-1.5 -46t20 -40.5t36 -26t44 -6.5q4 1 7 -0.5t4 -4.5q4 -7 -1 -12q-13 -18 -32 -30.5t-41 -17.5q-12 -3 -26 -3zM138 237 q-30 0 -55.5 -15.5t-40 -42t-12.5 -56.5q1 -24 12 -45.5t30.5 -36t43 -20t46.5 0.5q18 3 33.5 13t27.5 24q-26 -1 -48.5 9.5t-38.5 30t-21.5 44.5t1 50t22.5 44zM230 59z" />
</svg>