<svg viewBox="0 0 1024 1024" xmlns="http://www.w3.org/2000/svg">
  <path transform="scale(1, -1) translate(0, -960)" fill="currentColor" d="M123 488h-75q-7 0 -11.5 -4.5t-4.5 -11.5t4.5 -11.5t11.5 -4.5h75q7 0 11.5 4.5t4.5 11.5t-5 11.5t-11 4.5v0zM976 488h-194q-7 0 -11.5 -4.5t-4.5 -11.5t4.5 -11.5t11.5 -4.5h194q7 0 11.5 4.5t4.5 11.5t-4.5 11.5t-11.5 4.5zM854 270h-684q-8 0 -12 -4t-4 -12 q0 -7 4 -11.5t12 -4.5h686q7 0 11.5 4.5t4.5 11.5q0 8 -5 12t-13 4zM718 27h-412q-8 0 -12 -4.5t-4 -11.5t4 -11.5t12 -4.5h411q7 0 11.5 4.5t4.5 11.5t-4.5 11.5t-10.5 4.5zM464 419q16 0 31.5 2.5t30.5 5.5q27 7 50.5 19.5t44.5 30.5q3 3 4.5 7t0.5 9q-2 5 -5 8t-8 3 q-59 11 -103.5 52.5t-59.5 99.5q-16 58 2 115.5t65 97.5q3 3 4.5 7t0.5 9q-2 5 -5 8t-8 3q-27 5 -53 3.5t-53 -8.5q-48 -12 -85 -42q-38 -30 -61 -70t-30 -87q-8 -47 5 -95q11 -40 34 -73q22 -33 53 -56t68 -36t77 -13v0zM411 861q13 3 27 4.5t28 1.5h2.5h3.5 q-40 -44 -53.5 -103.5t2.5 -117.5q15 -57 57 -102t98 -64q-13 -8 -26.5 -13.5t-29.5 -10.5q-42 -11 -83 -5t-75.5 26t-60.5 53t-37 75t-6 83q6 41 26 76t53 60q32 26 74 37z" />
</svg>