<svg viewBox="0 0 1024 1024" xmlns="http://www.w3.org/2000/svg">
  <path transform="scale(1, -1) translate(0, -960)" fill="currentColor" d="M878 216v0q-73 -7 -141 12t-123.5 59.5t-94.5 99.5t-55 131q-11 48 -9 97q2 48 15.5 93.5t38.5 87.5q24 42 59 78q7 7 9.5 16t-1.5 17q-4 9 -11.5 14.5t-15.5 6.5q-73 5 -142.5 -12.5t-134.5 -56.5q-56 -33 -100 -81q-44 -47 -74.5 -103.5t-44.5 -119.5q-15 -63 -11 -128 q3 -53 17 -104t38 -97t58 -86q33 -40 75 -73q64 -48 139 -73.5t153 -25.5q25 0 51 2.5t51 8.5q43 10 84 27q40 17 76.5 40.5t68.5 53.5t57 66q5 8 6 17t-4 17q-7 8 -15.5 12.5t-18.5 3.5v0zM614 10q-48 -11 -96 -11q-49 0 -96 10.5t-92 31.5q-44 20 -84 50q-39 30 -70 68 q-32 37 -54.5 80t-35.5 90q-13 48 -16 98q-3 61 11 120t42 111.5t69 96.5q42 44 94 75q54 33 112 49.5t119 16.5h14t13 -2q-38 -37 -64 -83q-27 -45 -41.5 -94.5t-15.5 -101.5q-2 -52 9 -105q17 -77 59 -141q43 -63 103.5 -107t134.5 -65q73 -21 153 -13q-25 -33 -55 -61 q-29 -28 -63 -50t-72 -38q-37 -16 -78 -25v0zM882 184v0v1v-1zM728 733l-11 -67q-1 -8 2 -15.5t9 -12.5q6 -4 14 -4.5t15 3.5l61 32l60 -32q4 -1 7 -2t6 -1q5 0 9 1t7 3q6 5 9.5 12t1.5 16l-11 67l50 48q6 6 7.5 13t-1.5 16q-2 8 -8 13t-14 6l-67 9l-31 61q-3 7 -10 11.5 t-14 4.5t-13.5 -4.5t-10.5 -11.5l-30 -61l-67 -9q-9 -1 -14.5 -6t-8.5 -13q-2 -9 0 -16t7 -13l46 -48v0zM770 806q7 2 12 5.5t8 9.5l28 54l27 -54q3 -6 8 -10.5t13 -4.5l60 -9l-43 -43q-5 -5 -7 -11.5t-1 -12.5l10 -61l-55 29q-6 3 -12.5 3t-12.5 -3l-55 -29l10 61 q1 7 -1 13t-7 11l-45 43zM984 424q-2 7 -8 12.5t-14 6.5l-40 7l-18 35q-4 7 -10.5 11.5t-13.5 4.5t-13.5 -4.5t-10.5 -11.5l-18 -35l-40 -7q-8 -1 -14 -6t-8 -13q-2 -7 0 -15t6 -14l29 -27l-6 -40q-1 -7 2 -14.5t9 -12.5q4 -3 8 -4t8 -1t6.5 1t6.5 2l35 19l35 -19 q7 -3 15 -3t14 5t9 12t2 15l-6 40l29 27q4 6 6 14t0 15v0zM925 390q-5 -4 -7 -11t-1 -13l5 -32l-29 16q-3 0 -6 1t-7 1t-6.5 -1t-6.5 -2l-29 -16l5 32q1 7 -1 13t-7 11l-24 22l32 5q7 1 12 4.5t9 9.5l14 31l15 -31q3 -6 8 -10t13 -4l32 -5z" />
</svg>