<svg viewBox="0 0 256 256" xmlns="http://www.w3.org/2000/svg">
  <path transform="scale(1, -1) translate(0, -256)" fill="currentColor" d="M128 251q-33 0 -61.5 -16.5t-45 -45t-16.5 -61.5t16.5 -61.5t45 -45t61.5 -16.5t61.5 16.5t45 45t16.5 61.5t-16.5 61.5t-45 45t-61.5 16.5zM128 19q-29 0 -54 14.5t-40 39.5t-15 55t15 54.5t39.5 39.5t54.5 15t55 -15t39.5 -40t14.5 -54.5t-14.5 -54.5t-39.5 -39.5 t-55 -14.5zM64 143q-6 0 -10.5 -4.5t-4.5 -11t4.5 -11t10.5 -4.5t10.5 4.5t4.5 11t-4.5 11t-10.5 4.5zM128 143q-6 0 -10.5 -4.5t-4.5 -11t4.5 -11t10.5 -4.5t10.5 4.5t4.5 11t-4.5 11t-10.5 4.5zM177 128q0 -6 4.5 -10.5t10.5 -4.5t10.5 4.5t4.5 10.5t-4.5 10.5t-10.5 4.5 t-10.5 -4.5t-4.5 -10.5z" />
</svg>