<svg viewBox="0 0 256 256" xmlns="http://www.w3.org/2000/svg">
  <path transform="scale(1, -1) translate(0, -256)" fill="currentColor" d="M128 156q-12 0 -20 -8.5t-8 -20t8.5 -19.5t20 -8t19.5 8.5t8 20t-8 19.5t-20 8zM128 114q-6 0 -10 4t-4 10t4 10t10 4t10 -4t4 -10t-4 -10t-10 -4zM223 156q-12 0 -20 -8.5t-8 -20t8 -19.5t19.5 -8t20 8.5t8.5 20t-8 19.5t-20 8zM223 114q-6 0 -10 4t-4 10t4 10t10 4 t10 -4t4 -10t-4 -10t-10 -4zM33 156q-11 0 -19.5 -8.5t-8.5 -20t8.5 -19.5t20 -8t19.5 8.5t8 20t-8 19.5t-20 8zM33 114q-6 0 -10 4t-4 10t4 10t10 4t10 -4t4 -10t-4 -10t-10 -4z" />
</svg>