<svg viewBox="0 0 1024 1024" xmlns="http://www.w3.org/2000/svg">
  <path transform="scale(1, -1) translate(0, -960)" fill="currentColor" d="M512 549q-42 0 -71.5 -29.5t-29.5 -71.5t29.5 -71.5t71.5 -29.5t71.5 29.5t29.5 71.5t-29.5 71.5t-71.5 29.5v0zM512 379q-29 0 -49 20t-20 49t20 49t49 20t49 -20t20 -49t-20 -49t-49 -20v0zM891 549q-42 0 -71.5 -29.5t-29.5 -71.5t29.5 -71.5t71.5 -29.5t71.5 29.5 t29.5 71.5t-29.5 71.5t-71.5 29.5v0zM891 379q-29 0 -49 20t-20 49t20 49t49 20t49 -20t20 -49t-20 -49t-49 -20zM133 549q-42 0 -71.5 -29.5t-29.5 -71.5t29.5 -71.5t71.5 -29.5t71.5 29.5t29.5 71.5t-30 71.5t-71 29.5v0zM133 379q-29 0 -49 20t-20 49t20 49t49 20t49 -20 t20 -49q-2 -29 -22 -49t-47 -20z" />
</svg>