<svg viewBox="0 0 1024 1024" xmlns="http://www.w3.org/2000/svg">
  <path transform="scale(1, -1) translate(0, -960)" fill="currentColor" d="M512 445q4 0 6.5 1t4.5 4l45 44h37q7 0 11.5 4.5t4.5 11.5v37l45 45q2 2 3 5t1 6q0 4 -1 6.5t-3 4.5l-45 45v37q0 7 -4.5 11.5t-11.5 4.5h-37l-45 45q-5 5 -11 5t-11 -5l-45 -45h-37q-7 0 -11.5 -4.5t-4.5 -11.5v-37l-45 -45q-4 -4 -4 -10.5t4 -11.5l45 -45v-37 q0 -7 4.5 -11.5t11.5 -4.5h37l45 -44q2 -3 4.5 -4t6.5 -1v0zM462 526h-27v28q0 3 -1 5.5t-4 5.5l-38 38l38 39q3 2 4 4.5t1 6.5v27h27q4 0 6.5 1t5.5 4l38 38l38 -38q3 -3 5.5 -4t6.5 -1h27v-27q0 -4 1 -6.5t4 -4.5l38 -39l-38 -38q-3 -3 -4 -5.5t-1 -5.5v-28h-27 q-4 0 -6.5 -1t-5.5 -3l-38 -39l-38 39q-2 2 -5 3t-7 1v0zM910 30l-84 136q-6 10 -15.5 15t-20.5 5h-214q37 35 83 84q45 50 84.5 106t66.5 114q27 59 27 113q0 67 -26 127q-25 59 -69 103t-104 69q-59 26 -126 26t-126 -26q-60 -25 -104 -69t-69 -103q-26 -60 -26 -127 q0 -53 27 -112q27 -58 67 -114t86 -106q45 -49 83 -85h-216q-11 0 -20.5 -5.5t-15.5 -14.5l-84 -136q-6 -9 -6.5 -20.5t4.5 -20.5q6 -10 16 -15.5t21 -5.5h726q11 0 21 5.5t14 15.5q6 11 6 21.5t-6 19.5zM219 603q0 61 23 114t63 93t93 63t114 23t114 -23t93 -63t63 -93 t23 -114q0 -47 -26 -102q-25 -55 -66.5 -112.5t-93.5 -113.5q-53 -56 -107 -104q-54 48 -107 104q-52 56 -93.5 113.5t-66.5 112.5q-26 55 -26 102v0zM883 5q0 -1 -2 -3t-6 -2h-726q-4 0 -5.5 2t-2.5 3q0 1 -0.5 3.5t0.5 5.5l85 136q1 3 3 4t5 1h240q1 0 3 0.5t3 1.5 q6 -5 11 -10t10 -9q2 -3 4.5 -4t6.5 -1q2 0 5.5 1t5.5 4q5 3 10 8l11 11q1 -1 3 -1.5t3 -0.5h240q3 0 5 -1t3 -4l85 -136q1 -3 0.5 -5.5t-0.5 -3.5z" />
</svg>