<svg viewBox="0 0 256 256" xmlns="http://www.w3.org/2000/svg">
  <path transform="scale(1, -1) translate(0, -256)" fill="currentColor" d="M128 124q3 0 5 2l10 11h8q3 0 5 2t2 5v8l11 10q2 2 2 5t-2 5l-11 10v8q0 3 -2 5.5t-5 2.5h-8l-10 10q-2 2 -5 2t-5 -2l-11 -10h-8q-3 0 -5 -2.5t-2 -5.5v-8l-10 -10q-2 -2 -2 -5t2 -5l10 -10v-8q0 -3 2 -5.5t5 -2.5h8l11 -10q2 -2 5 -2zM116 150h-4v4q0 3 -2 5l-8 7l8 8 q2 2 2 4v4h4q2 0 4 2l8 8l7 -8q2 -2 5 -2h4v-4q0 -2 2 -4l7 -8l-7 -7q-2 -2 -2 -5v-4h-4q-3 0 -5 -2l-7 -7l-7 7q-3 2 -5 2zM230 25l-21 34q-4 7 -11 7h-47q25 25 40 47q21 31 21 54t-11 42t-30.5 30.5t-42.5 11.5t-42.5 -11.5t-30.5 -30.5t-11 -42t21 -54q15 -22 40 -47 h-47q-7 0 -11 -7l-21 -34q-4 -7 -0.5 -13.5t11.5 -6.5h182q7 0 11 6.5t0 13.5zM58 167q0 19 9.5 35t25.5 25.5t35 9.5t35 -9.5t25.5 -25.5t9.5 -36t-22 -50q-18 -26 -48 -53q-30 27 -48 53q-22 30 -22 51zM38 19l21 32h60l4 -3q2 -2 5 -2t5 2l4 3h60l21 -32h-180z" />
</svg>