<svg viewBox="0 0 1024 1024" xmlns="http://www.w3.org/2000/svg">
  <path transform="scale(1, -1) translate(0, -960)" fill="currentColor" d="M341 723l-128 -128q-5 -5 -5 -11t5 -11q2 -3 5.5 -4t5.5 -1t5.5 1t5.5 4l155 155q5 5 5 11.5t-5 10.5l-155 156q-5 4 -11 4t-11 -4q-5 -5 -5 -11.5t5 -11.5l128 -128h-213q-40 0 -68 -28t-28 -68v-355q0 -7 4.5 -11.5t11.5 -4.5t11.5 4.5t4.5 11.5v355q0 27 19 45.5 t45 18.5h213v0zM514 18h-128q-8 0 -12 -4.5t-4 -11.5q0 -8 4 -12t12 -4h128q7 0 11.5 4t4.5 12q0 7 -5 11.5t-11 4.5zM258 18h-128q-8 0 -12 -4.5t-4 -11.5q0 -8 4 -12t12 -4h128q7 0 11.5 4t4.5 12q0 7 -5 11.5t-11 4.5zM638 720h128q8 0 12 4.5t4 11.5t-4 11.5t-12 4.5 h-128q-7 0 -11.5 -4.5t-4.5 -11.5t4.5 -11.5t11.5 -4.5zM48 192q-7 0 -11.5 -4.5t-4.5 -11.5v-128q0 -7 4.5 -11.5t11.5 -4.5t11.5 4.5t4.5 11.5v128q0 6 -4.5 11t-11.5 5zM976 752h-82q-7 0 -11.5 -4.5t-4.5 -11.5t4.5 -11.5t11.5 -4.5h66v-30q0 -8 4.5 -12t11.5 -4t11.5 4 t4.5 12v46q0 7 -4.5 11.5t-11.5 4.5zM770 18h-128q-8 0 -12 -4.5t-4 -11.5q0 -8 4 -12t12 -4h128q7 0 11.5 4t4.5 12q0 7 -5 11.5t-11 4.5zM976 322q-7 0 -11.5 -4.5t-4.5 -11.5v-128q0 -8 4.5 -12t11.5 -4t11.5 4t4.5 12v128q0 7 -4.5 11.5t-11.5 4.5zM976 578 q-7 0 -11.5 -4.5t-4.5 -11.5v-128q0 -8 4.5 -12t11.5 -4t11.5 4t4.5 12v128q0 7 -4.5 11.5t-11.5 4.5zM976 66q-7 0 -11.5 -4.5t-4.5 -11.5v-34h-62q-8 0 -12 -4.5t-4 -11.5t4 -11.5t12 -4.5h78q7 0 11.5 4.5t4.5 11.5v50q0 7 -4.5 11.5t-11.5 4.5z" />
</svg>