<svg viewBox="0 0 256 256" xmlns="http://www.w3.org/2000/svg">
  <path transform="scale(1, -1) translate(0, -256)" fill="currentColor" d="M244 58h-10l-36 52q-1 2 -5.5 2.5t-6.5 -2.5l-8 -13l-38 55q-2 3 -5.5 3t-5.5 -3l-33 -48l-18 30q-2 4 -6.5 4t-5.5 -4l-44 -76h-10q-3 0 -5 -2t-2 -5t2 -5t5 -2h232q3 0 5 2.5t2 5.5t-2 4.5t-5 1.5zM72 117l18 -30q2 -3 5.5 -3t6.5 3l33 48l38 -55q1 -2 5 -2.5t6 2.5 l8 12l24 -34h-178zM208 154q12 0 20.5 8.5t8.5 20t-8.5 20.5t-20.5 9t-20.5 -8.5t-8.5 -20.5t8.5 -20.5t20.5 -8.5zM208 198q6 0 10.5 -4.5t4.5 -10.5t-4.5 -10.5t-10.5 -4.5t-10.5 4.5t-4.5 10.5t4.5 10.5t10.5 4.5z" />
</svg>