<svg viewBox="0 0 256 256" xmlns="http://www.w3.org/2000/svg">
  <path transform="scale(1, -1) translate(0, -256)" fill="currentColor" d="M236 44l-28 62q15 23 15 49.5t-13 48t-34.5 34.5t-47.5 13t-47.5 -13t-34.5 -34.5t-13 -48t15 -49.5l-28 -62q-3 -7 -2.5 -13.5t4 -12.5t9.5 -9.5t13 -3.5h168q6 0 12.5 3.5t10 9t4 12.5t-2.5 14zM47 156q0 22 11 40.5t29.5 29.5t40.5 11t40.5 -10.5t29.5 -29.5t11 -41 q0 -18 -8 -35l-21 45q-3 7 -10 11.5t-15 4.5t-14.5 -4t-10.5 -12l-20 -44l-3 6q-3 7 -10 11.5t-15 4.5t-14.5 -4.5t-9.5 -11.5l-3 -7q-8 17 -8 35zM33 25q-4 6 -1 13l39 84q4 8 12 8t12 -8l39 -84q3 -6 -1 -12.5t-11 -6.5h-78q-7 0 -11 6zM223 25q-4 -6 -11 -6h-66 q7 12 0 25l-28 61l25 55q4 8 12 8t12 -8l57 -122q3 -7 -1 -13z" />
</svg>