<svg viewBox="0 0 1024 1024" xmlns="http://www.w3.org/2000/svg">
  <path transform="scale(1, -1) translate(0, -960)" fill="currentColor" d="M944 240v0v0q23 48 35.5 100.5t12.5 107.5q0 99 -38 186q-38 88 -103 153t-153 103q-87 38 -186 38t-186 -38q-88 -38 -153 -103t-103 -153q-38 -87 -38 -186q0 -62 15 -120.5t44 -109.5l0.5 -1t1.5 -1q30 -56 74 -102q44 -45 98 -77.5t117 -50.5q62 -18 130 -18 q66 0 127 17t115 49h0.5t0.5 1v0v0q61 35 109.5 87.5t79.5 117.5zM512 896q92 0 174 -35q81 -36 142 -96.5t97 -142.5q35 -82 35 -174q0 -44 -8.5 -87t-25.5 -81l-233 325q-12 17 -29.5 25t-37.5 8v0v0q-21 0 -38.5 -9t-29.5 -24l-99 -136l-32 45q-12 16 -29.5 24.5 t-37.5 8.5v0v0q-20 0 -37.5 -9t-29.5 -24l-186 -260q-20 45 -31.5 93.5t-11.5 100.5q0 92 35 174q36 82 96.5 142.5t142.5 96.5q82 35 174 35v0zM125 224l195 270q7 10 17.5 15.5t22.5 5.5v0v0q12 0 22.5 -5.5t17.5 -15.5l45 -62v0v0l275 -379q-46 -25 -99 -39t-109 -14 q-62 0 -119 16q-58 16 -108 45.5t-90 70.5q-41 42 -70 92v0zM749 69l-269 371l106 146q7 9 17.5 14.5t22.5 5.5v0q12 0 22 -5.5t18 -14.5l246 -340q-28 -55 -69 -100t-94 -77v0z" />
</svg>