<svg viewBox="0 0 1024 1024" xmlns="http://www.w3.org/2000/svg">
  <path transform="scale(1, -1) translate(0, -960)" fill="currentColor" d="M976 203h-43l-194 424q-1 4 -4 6.5t-7 3.5t-7.5 0t-6.5 -5l-103 -101l-113 184q-3 4 -6.5 6t-8.5 2q-3 0 -7.5 -2t-6.5 -6l-149 -249l-51 14q-5 1 -10 -1t-8 -7l-153 -269h-50q-7 0 -11.5 -4.5t-4.5 -11.5t4.5 -11.5t11.5 -4.5h928q7 0 11.5 4.5t4.5 11.5t-4.5 11.5 t-11.5 4.5zM483 678l111 -179q2 -3 4.5 -5t6.5 -3q3 0 6.5 1.5t6.5 3.5l100 98l178 -391h-347l-120 229q-1 2 -4 4.5t-6 3.5l-65 18l129 220v0zM274 446l129 -36l111 -208h-380l140 244v0z" />
</svg>