<svg viewBox="0 0 1024 1024" xmlns="http://www.w3.org/2000/svg">
  <path transform="scale(1, -1) translate(0, -960)" fill="currentColor" d="M984 266l-102 224q-11 24 -32.5 37.5t-47.5 13.5q-27 0 -48.5 -13.5t-31.5 -37.5l-13 -29l-112 243q-11 24 -32.5 37.5t-47.5 13.5v0q-27 0 -48 -13.5t-32 -37.5l-80 -176l-18 38q-11 24 -32 38t-48 14q-26 0 -47.5 -14t-32.5 -38l-139 -300q-10 -21 -8.5 -43.5 t14.5 -41.5q14 -19 32.5 -29.5t41.5 -10.5h277h0.5h0.5h504q23 0 42.5 10.5t31.5 29.5t15 41.5t-7 43.5v0zM74 198q-8 12 -9 27t5 28l138 301q7 15 20.5 23.5t30.5 8.5t30.5 -9t20.5 -23l32 -69v0v0l106 -232q6 -13 5 -27t-8 -28q-7 -12 -19.5 -18.5t-27.5 -6.5h-195v0v0 h-83q-14 0 -26.5 6.5t-19.5 18.5v0zM586 173h-122q1 2 3 3.5t3 4.5q12 19 14 41.5t-7 43.5l-103 224l93 200q7 15 21 23.5t30 8.5q17 0 30.5 -9t21.5 -23l124 -274v0v0l74 -163q6 -13 5 -27t-8 -28q-7 -12 -20.5 -18.5t-27.5 -6.5h-131v0zM950 198q-7 -12 -20 -18.5 t-28 -6.5h-118q1 2 3 3.5t3 4.5q12 19 14 41.5t-7 43.5l-72 156l24 53q7 16 20.5 24t30.5 8t30.5 -8.5t20.5 -23.5l103 -224q7 -12 6 -25.5t-10 -27.5v0z" />
</svg>