<svg viewBox="0 0 256 256" xmlns="http://www.w3.org/2000/svg">
  <path transform="scale(1, -1) translate(0, -256)" fill="currentColor" d="M239 74v1l1 1q11 24 11 52q0 34 -16.5 62t-45 44.5t-61.5 16.5t-61.5 -16.5t-45 -45t-16.5 -61.5q0 -31 15 -59l1 -1q16 -29 45 -46t62.5 -17t62.5 17v0q32 20 48 52zM128 237q30 0 55 -15t39.5 -40t14.5 -54q0 -19 -6 -36l-55 77q-7 9 -20 9q-5 0 -10 -2.5t-9 -6.5 l-22 -31l-6 8q-6 10 -19 10q-6 0 -11 -2.5t-8 -7.5l-43 -60q-9 19 -9 42q0 30 15 54.5t39.5 39.5t54.5 15zM35 72l48 66q3 4 7.5 4t7.5 -4l78 -108q-22 -11 -48 -11q-29 0 -54 14t-39 39zM188 37l-64 89l25 34q3 4 7.5 4t7.5 -4l60 -83q-12 -24 -36 -40z" />
</svg>