<svg viewBox="0 0 256 256" xmlns="http://www.w3.org/2000/svg">
  <path transform="scale(1, -1) translate(0, -256)" fill="currentColor" d="M249 84l-26 56q-3 6 -9 10t-13.5 4t-13.5 -4t-9 -10l-1 -2l-25 55q-3 7 -9 11t-13.5 4t-13.5 -4t-10 -11l-17 -38l-2 4q-3 6 -9 10t-13.5 4t-13.5 -4t-9 -10l-35 -75q-2 -6 -2 -12.5t4 -11.5q8 -12 21 -12h196q6 0 11.5 3t9 8.5t4 12t-1.5 12.5zM21 67q-4 6 -1 11l34 75 q4 6 10.5 6t9.5 -6l35 -75q2 -6 -1 -10.5t-9 -5.5h-69q-6 1 -9 5zM146 62h-24q5 11 0 22l-25 55l22 49q3 6 10 6t10 -6l51 -110q2 -5 -1 -10t-9 -5h-34v-1zM235 67q-3 -5 -9 -5h-24q5 11 0 22l-17 38l5 12q4 6 10.5 6t9.5 -6l26 -56q2 -5 -1 -11z" />
</svg>