<svg viewBox="0 0 1024 1024" xmlns="http://www.w3.org/2000/svg">
  <path transform="scale(1, -1) translate(0, -960)" fill="currentColor" d="M934 106l-116 254q30 46 45 97t15 105q0 75 -28 142q-29 67 -79 116.5t-117 78.5q-66 29 -142 29t-142 -29q-67 -29 -117 -78.5t-78 -116.5q-29 -67 -29 -142q0 -54 15 -106t45 -96l-116 -254q-11 -23 -9 -47.5t15 -45.5q13 -22 34.5 -33.5t47.5 -11.5h308h1h1h358 q26 0 47.5 11.5t34.5 33.5q13 20 15 45t-9 48v0zM178 562q0 69 26 129q26 61 71.5 106.5t106.5 72.5q61 26 130 26t130 -26q61 -27 106.5 -72.5t71.5 -106.5q26 -60 26 -129q0 -45 -11.5 -87.5t-32.5 -80.5l-93 201q-12 27 -35.5 41.5t-52.5 14.5v0v0q-29 0 -52.5 -14.5 t-35.5 -41.5l-93 -200l-21 47q-12 26 -35.5 41t-52.5 15t-52.5 -15t-35.5 -41l-22 -48q-21 38 -32 80.5t-11 87.5v0zM123 30q-8 15 -9.5 31t4.5 32l156 336q8 18 24 28t35 10t35 -10t24 -28l35 -77v0v0l120 -259q7 -16 6 -32t-11 -31q-8 -13 -22.5 -21t-29.5 -9h-221v0v0 h-91q-17 0 -31.5 8t-23.5 22v0zM901 30q-9 -14 -23.5 -22t-31.5 -8h-288q3 2 5.5 5.5t4.5 7.5q13 20 15 45t-9 48l-115 251l104 225q9 18 24.5 28.5t34.5 10.5q20 0 35.5 -10.5t24.5 -28.5l225 -489q6 -16 4.5 -32.5t-10.5 -30.5v0z" />
</svg>