<svg viewBox="0 0 1024 1024" xmlns="http://www.w3.org/2000/svg">
  <path transform="scale(1, -1) translate(0, -960)" fill="currentColor" d="M512 928q-65 0 -122 -27t-99.5 -74t-67.5 -110t-25 -135v-268q0 -72 24 -135q25 -63 67.5 -110t99.5 -74q58 -27 123 -27q60 0 115 23.5t99 67.5q50 49 75.5 116t25.5 140v267q0 72 -25 135t-68 110t-100 74t-122 27v0zM794 582v-40h-263v352q55 -4 103 -30 q47 -26 83 -68t56 -97q21 -55 21 -117zM499 896v-352h-270v40q0 62 21 118q21 55 57.5 97.5t85.5 67.5q50 26 106 29zM702 82q-39 -40 -88 -61t-102 -21q-58 0 -109 25q-52 24 -90 67t-60 100q-23 57 -23 122v196h565v-196q0 -66 -24 -127t-69 -105z" />
</svg>