<svg viewBox="0 0 1024 1024" xmlns="http://www.w3.org/2000/svg">
  <path transform="scale(1, -1) translate(0, -960)" fill="currentColor" d="M973 493l-117 117q-5 4 -11.5 4t-10.5 -4q-5 -5 -5 -11.5t5 -11.5l116 -117q2 -1 3 -2l2 -2h-427v425q1 -1 2.5 -2t2.5 -3l117 -116q2 -3 5 -4t6 -1t6 1t5 4q5 4 5 10.5t-5 11.5l-117 117q-8 9 -19.5 14t-23.5 5t-23.5 -5t-21.5 -14l-115 -117q-5 -5 -5 -11.5t5 -10.5 q5 -5 11.5 -5t10.5 5l117 116q1 2 2.5 3t4.5 2v-427h-421h-4t-3 -2l3 4.5t2 2.5l117 117q5 4 5 10.5t-5 11.5t-11.5 5t-10.5 -5l-117 -117q-18 -18 -18 -44t18 -44l117 -117q2 -2 5 -3t6 -1t6 1t5 3q5 5 5 11.5t-5 11.5l-117 117l-3 3t-2 5l2 -1t5 -1h419v-427q-1 1 -3 2 t-3 3l-117 116q-5 5 -11.5 5t-11.5 -5q-4 -4 -4 -10.5t4 -11.5l117 -117q10 -9 21.5 -14t23.5 -5t23.5 5t21.5 14l117 117q4 5 4 11.5t-4 10.5q-5 5 -11.5 5t-11.5 -5l-117 -116q-1 -2 -2 -3l-2 -2v427h425q-1 -1 -2 -3t-3 -3l-116 -117q-5 -5 -5 -11.5t5 -11.5q2 -2 5 -3 t6 -1t6 1t5 3l117 117q18 19 18 45t-18 45v0z" />
</svg>