<svg viewBox="0 0 1024 1024" xmlns="http://www.w3.org/2000/svg">
  <path transform="scale(1, -1) translate(0, -960)" fill="currentColor" d="M976 464h-454q-8 0 -12 -4.5t-4 -11.5t4 -11.5t12 -4.5h454q7 0 11.5 4.5t4.5 11.5t-4.5 11.5t-11.5 4.5zM976 187h-451q-7 0 -11.5 -4.5t-4.5 -11.5t4.5 -11.5t11.5 -4.5h451q7 0 11.5 4.5t4.5 11.5t-4.5 11.5t-11.5 4.5zM525 709h451q7 0 11.5 4.5t4.5 11.5t-4.5 11.5 t-11.5 4.5h-451q-7 0 -11.5 -4.5t-4.5 -11.5t4.5 -11.5t11.5 -4.5zM286 470l-193 140q-9 6 -20 7t-20 -4q-10 -5 -15.5 -15t-5.5 -20v-279q0 -11 5.5 -20t15.5 -13q3 -3 8 -4t9 -1q6 0 12 2t11 6l193 139q8 5 12 13.5t4 16.5q0 10 -4 18t-12 14zM267 434l-193 -140 q-3 -1 -4.5 -1t-2.5 1q-1 0 -2 1.5t-1 3.5v279q0 2 1 3t2 1h1h2h2l2 -1l193 -139q1 -2 2 -3t1 -2v-1t-3 -2z" />
</svg>