<svg viewBox="0 0 1024 1024" xmlns="http://www.w3.org/2000/svg">
  <path transform="scale(1, -1) translate(0, -960)" fill="currentColor" d="M976 464h-906h-2t-2 -2q1 8 4.5 15.5t9.5 13.5l155 184q5 5 4 12t-5 11q-5 4 -12 3.5t-11 -5.5l-155 -184q-24 -28 -24 -64t24 -64l155 -184l6 -4t7 -2q2 0 5 1t5 2q4 5 5 11t-4 11l-155 186q-5 6 -8.5 13.5t-5.5 15.5q1 -2 2 -2h2h906q7 0 11.5 4.5t4.5 11.5t-4.5 11.5 t-11.5 4.5zM445 829h526q7 0 11.5 4.5t4.5 11.5t-4.5 11.5t-11.5 4.5h-526q-7 0 -11.5 -4.5t-4.5 -11.5t4.5 -11.5t11.5 -4.5v0zM971 67h-526q-7 0 -11.5 -4.5t-4.5 -11.5t4.5 -11.5t11.5 -4.5h526q7 0 11.5 4.5t4.5 11.5t-5 11.5t-11 4.5z" />
</svg>