<svg viewBox="0 0 1024 1024" xmlns="http://www.w3.org/2000/svg">
  <path transform="scale(1, -1) translate(0, -960)" fill="currentColor" d="M741 171l-186 -155q-6 -5 -13.5 -8.5t-15.5 -5.5q0 1 1 2t1 2v906q0 7 -4.5 11.5t-11.5 4.5t-11.5 -4.5t-4.5 -11.5v-906v-2t2 -2q-8 1 -15.5 4.5t-13.5 9.5l-184 155q-5 5 -12 4t-11 -5q-4 -5 -3.5 -12t5.5 -11l184 -155q14 -12 30.5 -18t33.5 -6t34 6t30 18l184 155 q5 5 5.5 11.5t-3.5 11.5q-4 4 -10 4.5t-11 -3.5v0zM115 923q-7 0 -11.5 -4.5t-4.5 -11.5v-526q0 -7 4.5 -11.5t11.5 -4.5t11.5 4.5t4.5 11.5v526q0 6 -4.5 11t-11.5 5v0zM909 923q-7 0 -11.5 -4.5t-4.5 -11.5v-526q0 -7 4.5 -11.5t11.5 -4.5t11.5 4.5t4.5 11.5v526 q0 6 -5 11t-11 5z" />
</svg>