<svg viewBox="0 0 1024 1024" xmlns="http://www.w3.org/2000/svg">
  <path transform="scale(1, -1) translate(0, -960)" fill="currentColor" d="M576 904q-28 24 -64 24t-64 -24l-184 -155q-5 -5 -5.5 -11.5t3.5 -11.5q5 -4 11.5 -5t11.5 4l184 155q6 5 13.5 8.5t15.5 5.5q-2 -1 -2 -2v-2v-906q0 -7 4.5 -11.5t11.5 -4.5t11.5 4.5t4.5 11.5v906v2t-2 2q8 -1 15.5 -4.5t13.5 -9.5l184 -155q3 -3 5 -3h5t6.5 1t6.5 5 q4 5 3.5 12t-5.5 10l-184 154v0zM909 531q-7 0 -11.5 -4.5t-4.5 -11.5v-526q0 -7 4.5 -11.5t11.5 -4.5t11.5 4.5t4.5 11.5v526q0 7 -5 11.5t-11 4.5v0zM115 531q-7 0 -11.5 -4.5t-4.5 -11.5v-526q0 -7 4.5 -11.5t11.5 -4.5t11.5 4.5t4.5 11.5v526q0 7 -4.5 11.5t-11.5 4.5v0 z" />
</svg>