<svg viewBox="0 0 256 256" xmlns="http://www.w3.org/2000/svg">
  <path transform="scale(1, -1) translate(0, -256)" fill="currentColor" d="M206 5h-185q-6 0 -11 5t-5 11v54q0 7 5 11q12 12 27 22q30 18 55 18q18 0 34 -6l-10 37l-19 -9q-3 -1 -5 -1h-46q-13 0 -23 6.5t-14.5 18.5t-2.5 24t11 21l28 28q4 6 12 6h89q4 0 8 -2.5t6 -6.5l86 -172q5 -11 4.5 -22.5t-6.5 -21t-16 -15.5t-22 -6zM92 113 q-22 0 -49 -18q-14 -9 -23 -19l-1 -1v-54q0 -2 2 -2h185q8 0 15 4t11 11t4.5 15t-2.5 15l-86 172q-1 1 -2 1h-90l-29 -29q-6 -7 -7.5 -15t1.5 -14.5t9.5 -11.5t15.5 -5h46l26 12q3 2 6 0.5t4 -4.5l15 -62q1 -2 0 -4t-3 -3q-4 -3 -8 0q-6 5 -17.5 8.5t-22.5 3.5z" />
</svg>