<svg viewBox="0 0 1024 1024" xmlns="http://www.w3.org/2000/svg">
  <path transform="scale(1, -1) translate(0, -960)" fill="currentColor" d="M824 -32h-739q-23 0 -38 15t-15 38v214q0 10 4.5 20t11.5 17q2 2 30 27t72.5 54.5t101.5 53.5q57 23 118 23q37 0 77.5 -9.5t72.5 -25.5l-46 189l-82 -40h-1t-1 -2q-3 -1 -8 -2t-12 -1h-184q-47 0 -85 25.5t-56 69.5q-18 43 -9.5 87.5t41.5 78.5l112 112q6 8 16 12t21 4 h355q15 0 28 -8t20 -21l344 -688v0v0q19 -39 17 -82.5t-25 -80.5q-22 -37 -60 -58.5t-81 -21.5v0zM370 398q-56 0 -109 -22t-94.5 -49.5t-67.5 -50.5q-26 -24 -29 -26q-2 -3 -4 -7t-2 -8v-216q0 -8 5.5 -13.5t15.5 -5.5h739q36 0 66.5 17t48.5 47q19 30 20.5 65t-13.5 66 l-344 688q-4 6 -9 9.5t-11 3.5h-355q-2 0 -6 -1t-7 -4v-0.5t-1 -0.5l-114 -114q-26 -26 -33 -61t8 -70q14 -35 44 -55t68 -20h184q2 0 4.5 0.5t4.5 0.5l99 50q4 1 7.5 1t7.5 -1q3 -1 5.5 -4.5t3.5 -6.5l58 -244q1 -4 -1 -9t-5 -8q-4 -3 -9 -3t-9 3q-30 21 -77 35t-89 14v0z " />
</svg>