<svg viewBox="0 0 256 256" xmlns="http://www.w3.org/2000/svg">
  <path transform="scale(1, -1) translate(0, -256)" fill="currentColor" d="M216 168q-37 27 -60 66l-2 2q-4 7 -11 11t-15 4t-15 -4t-11 -11l-2 -2q-23 -39 -60 -67q-8 -7 -8 -17q0 -6 3.5 -11t9.5 -8q31 -12 59 -15l-9 -86q-1 -10 6 -18t17 -8h20q11 0 18 7.5t6 18.5l-9 85q30 4 58 15q6 3 9.5 8t3.5 12q0 11 -8 18zM148 30q0 -5 -3 -8t-7 -3h-20 q-4 0 -7 3t-3 8l10 85h20zM206 145q-41 -16 -78 -16q-22 0 -45 6q-17 4 -33 10q-4 2 -4 5.5t3 5.5q39 30 63 71l2 2q5 8 14 8q4 0 8 -2t6 -6l2 -2q24 -40 63 -71q3 -2 3 -6t-4 -5z" />
</svg>