<svg viewBox="0 0 1024 1024" xmlns="http://www.w3.org/2000/svg">
  <path transform="scale(1, -1) translate(0, -960)" fill="currentColor" d="M419 488q52 6 104.5 19t105.5 32q5 1 8 5.5t3 9.5q0 72 -24 135q-24 64 -65 111.5t-97 75.5q-55 28 -118 28t-118 -27q-56 -28 -97 -75.5t-65 -110.5q-24 -64 -24 -136q0 -5 2.5 -9t7.5 -5q49 -22 101.5 -36t107.5 -19l-21 -382q-1 -22 6.5 -42t22.5 -36q16 -16 35 -25 t42 -9t42 8.5t35 25.5q15 15 22.5 35t6.5 43l-23 384v0zM336 872q55 0 103 -24t85 -65.5t59 -97.5t23 -120q-73 -26 -144 -39t-139 -13t-133 13t-126 39q2 64 24 120t58.5 97.5t85.5 65.5t104 24zM389 46q-11 -10 -24 -16t-29 -6t-29 6t-24 16q-11 11 -15.5 25t-3.5 30 l21 382q9 0 19 -0.5t19 -0.5q16 0 32.5 1t33.5 2l21 -384q0 -16 -6 -30t-15 -25v0zM810 534q-38 0 -71 -16q-34 -17 -58.5 -45.5t-38.5 -66.5q-15 -38 -15 -81q0 -5 2.5 -9t7.5 -6q27 -12 57 -20t60 -12l-12 -214q-1 -14 3.5 -27t14.5 -23t22.5 -15t27.5 -5q14 0 27 5.5 t22 14.5q10 11 14.5 24t3.5 26l-11 218q28 3 57 10.5t59 19.5q5 1 8.5 5.5t3.5 8.5q-1 44 -16 81q-14 38 -39 66.5t-58 44.5q-34 16 -71 16zM845 62q0 -7 -2.5 -13.5t-7.5 -11.5q-9 -11 -25 -11t-26 11q-5 5 -7.5 12t-2.5 15l12 216h7.5h8.5h15t17 2l11 -220v0zM659 336 q4 70 47.5 118t103.5 48t103 -48t47 -118q-82 -28 -157 -28t-144 28z" />
</svg>