<svg viewBox="0 0 256 256" xmlns="http://www.w3.org/2000/svg">
  <path transform="scale(1, -1) translate(0, -256)" fill="currentColor" d="M108 135q26 4 50 13q5 2 5 6q0 25 -10.5 46t-29 33t-39.5 12t-39.5 -12t-29 -33t-10.5 -45q0 -5 4 -7q24 -10 51 -13l-6 -93q0 -12 8.5 -21.5t21 -9.5t21 9.5t8.5 21.5zM84 231q17 0 31.5 -9.5t23.5 -26t10 -35.5q-71 -25 -129 -1q0 20 9 36.5t23.5 26t31.5 9.5zM95 30 q-4 -5 -10.5 -5t-11.5 4.5t-4 11.5l5 93h20l5 -93q0 -6 -4 -11zM202 153q-13 0 -24 -7.5t-17.5 -20t-6.5 -27.5q0 -5 4 -7q11 -5 27 -8l-3 -51q0 -9 6 -15t14.5 -6t14 6t5.5 15l-2 52q16 3 27 7q4 2 4 6q0 15 -6.5 28t-17.5 20.5t-25 7.5zM208 31q0 -3 -1.5 -4.5t-4 -1.5 t-4 1.5t-1.5 4.5l3 51h6zM168 102q2 16 11.5 26.5t23 10.5t23 -10.5t11.5 -26.5q-37 -12 -69 0z" />
</svg>