<svg viewBox="0 0 256 256" xmlns="http://www.w3.org/2000/svg">
  <path transform="scale(1, -1) translate(0, -256)" fill="currentColor" d="M153 176q0 11 -6 21.5t-17 18.5q-22 15 -51.5 15t-50.5 -15q-11 -8 -17 -18.5t-6 -22.5t5 -21t14 -14q12 -6 23 -1q2 0 3 1q1 -11 -2 -30q-1 -6 3 -10t9 -4h38q5 0 9 4t3 10q-4 20 -2 30l3 -2q11 -4 23 1v1q8 5 12 11q7 10 7 25zM127 153q-6 -3 -10 -1t-5.5 5.5t-5.5 4.5 q-2 0 -4 -1t-3 -3q-6 -10 -6 -23q0 -9 3 -25h-34q5 31 -3 47q-2 4 -6.5 4t-6 -4t-6 -6t-10 1t-8.5 9t-3 14t4.5 15.5t12.5 13.5q18 12 42.5 12t42 -12.5t17.5 -28.5q1 -10 -4 -16q-3 -4 -7 -6zM232 120q-17 12 -39 12t-38 -12q-19 -13 -19 -32q0 -10 4.5 -17.5t12 -11 t15.5 -1.5q0 -8 -2 -19q-1 -5 3 -9.5t9 -4.5h30q6 0 9.5 4t2.5 10q-2 10 -2 18q9 -2 15.5 1.5t10.5 8.5q6 9 6 21q1 9 -3.5 17.5t-14.5 14.5zM229 72q-3 -1 -5.5 -1t-5 2.5t-6.5 2t-5 -4.5q-2 -7 -2 -16q0 -6 2 -16h-26q1 10 2 16q0 9 -2 16q-2 4 -6 4.5t-6 -2t-5 -2.5t-5 1 q-8 4 -8 16t12.5 21t30.5 9t30.5 -8.5t12.5 -21t-8 -16.5z" />
</svg>