<svg viewBox="0 0 1024 1024" xmlns="http://www.w3.org/2000/svg">
  <path transform="scale(1, -1) translate(0, -960)" fill="currentColor" d="M856 597q-37 27 -70 58q-34 31 -64.5 65t-58.5 71q-27 37 -50 76l-5 7q-16 25 -41.5 39.5t-54.5 14.5t-54.5 -14.5t-41.5 -39.5l-5 -8q-24 -40 -51 -77t-57.5 -70.5t-64.5 -64.5q-33 -31 -70 -59q-13 -9 -21 -24.5t-8 -31.5q0 -21 12.5 -39t32.5 -26q37 -15 102 -34.5 t143 -28.5l-37 -352q-2 -18 3.5 -34.5t17.5 -29.5t28 -20t33 -7h80q18 0 33 7t27 20t18 29.5t3 34.5l-38 352q77 10 140.5 28.5t100.5 34.5q21 8 33 26t12 39q0 17 -7 32t-20 26v0zM603 56q1 -11 -2 -21t-11 -17q-7 -9 -16.5 -12.5t-19.5 -3.5h-80q-11 0 -20.5 4t-16.5 12 q-7 7 -10.5 17t-2.5 21l37 354q13 -2 25.5 -2h25.5h26.5t26.5 2zM827 504v0q-23 -9 -56 -20q-34 -12 -75 -22t-88 -17t-96 -7t-96 7t-88 17t-75 22q-33 11 -56 20q-11 5 -17.5 15t-6.5 22q0 9 4.5 17t11.5 13q38 29 73 61t66.5 66.5t58.5 72.5q28 38 53 79l5 8q9 18 28 28 t39 10t39 -10t30 -28l5 -8q24 -41 52 -79t59.5 -73t66.5 -67t73 -60q7 -6 11.5 -14t4.5 -16q-1 -13 -8 -22.5t-18 -14.5v0z" />
</svg>