<svg viewBox="0 0 256 256" xmlns="http://www.w3.org/2000/svg">
  <path transform="scale(1, -1) translate(0, -256)" fill="currentColor" d="M128 251q-28 0 -51.5 -16t-37 -42.5t-13.5 -58.5q0 -4 4 -6q33 -15 71 -19l-5 -71q0 -14 9 -23.5t22.5 -9.5t23 10t8.5 23l-5 72q36 4 71 17q4 2 4 7q1 31 -12.5 58t-37 43t-51.5 16zM191 206q-1 -3 -4 -5t-7.5 -2t-8 4t-3.5 9.5t6 9.5q9 -7 17 -16zM63 180 q0 -5 -3.5 -8.5t-9.5 -3.5q-2 0 -5 1q3 10 10 23q4 -2 6 -5t2 -7zM146 37q0 -7 -5 -12.5t-13 -5.5t-13 5.5t-5 12.5l5 71h9l17 1zM40 139q1 11 2 16q5 -1 8 -1q11 0 18.5 7.5t7.5 18.5q0 7 -3.5 13.5t-10.5 9.5q13 16 29.5 25t34.5 9t34 -8q-7 -8 -7 -18.5t7.5 -18 t18.5 -7.5t20 8q15 -24 16 -55q-96 -33 -175 1zM129 187q-11 0 -18.5 -7.5t-7.5 -18.5t7.5 -19t18.5 -8t19 8t8 19t-8 18.5t-19 7.5zM129 148q-5 0 -8.5 3.5t-3.5 8.5t3.5 9t8.5 4t9 -4t4 -9t-4 -8.5t-9 -3.5z" />
</svg>