<svg viewBox="0 0 256 256" xmlns="http://www.w3.org/2000/svg">
  <path transform="scale(1, -1) translate(0, -256)" fill="currentColor" d="M244 138q-7 7 -16.5 11.5t-19.5 4.5t-20 -4.5t-16 -11.5q-5 -6 -6.5 -13t1.5 -13.5t9 -10.5t14 -4h11v-37q0 -4 -3 -7t-7 -3h-55v118h38q6 0 11.5 3t8.5 7.5t4 10.5t-1 12q-8 21 -27 34t-41.5 13t-41 -13t-26.5 -34l-1 -1q-5 2 -12 2q-10 0 -20 -4.5t-16 -11.5 q-5 -6 -6.5 -13t1.5 -13.5t9 -10.5t14 -4h11v-42q0 -10 7 -17t18 -7h56v-64q0 -3 2.5 -5t5.5 -2t5 2t2 5v21h55q10 0 17 7t7 17v37h12q7 0 13 4t8.5 10.5t1 13.5t-6.5 13zM74 196q7 17 22 27.5t33 10.5t33 -10.5t22 -27.5q2 -5 -1 -9.5t-9 -4.5h-87l-3 4q-4 5 -10 8v2z M20 165q-2 6 2.5 11.5t11.5 8.5t14 3t15 -3v-1q8 -3 11.5 -8t1 -11t-9.5 -6h-37q-7 0 -9 6zM122 93h-57q-4 0 -7 3t-3 8v41h11q8 0 14 4t9 11q2 5 2 8h31v-75zM236 117q-3 -7 -10 -7h-37q-6 0 -9 6.5t2 11.5t11.5 8.5t14.5 3.5q16 0 26 -12q5 -5 2 -11z" />
</svg>