<svg viewBox="0 0 1024 1024" xmlns="http://www.w3.org/2000/svg">
  <path transform="scale(1, -1) translate(0, -960)" fill="currentColor" d="M598 638q0 44 -22 83t-66 69q-39 28 -90 43t-105 15t-104.5 -15t-90.5 -43q-43 -30 -65.5 -68.5t-22.5 -83.5t18.5 -79.5t51.5 -51.5q20 -9 40.5 -10t38.5 7q7 2 13 6.5t11 9.5q7 -32 5 -70t-8 -72q-2 -9 0.5 -17t7.5 -14q4 -6 12 -9.5t16 -3.5h149q9 0 16.5 3.5 t12.5 9.5t7 14t1 17q-7 38 -10.5 74.5t5.5 69.5q6 -6 12.5 -11t14.5 -9q18 -8 39.5 -7t40.5 11q18 9 45 38.5t27 93.5v0zM515 536q-13 -6 -27 -7t-27 4q-7 2 -14.5 9.5t-11.5 19.5q-1 4 -5 7.5t-8 3.5t-8.5 -2.5t-7.5 -5.5q-25 -46 -22 -94t11 -100v-2t-1 -3l-1.5 -0.5 t-3.5 -0.5h-149q-1 0 -2.5 0.5t-2.5 0.5l-0.5 1.5t-0.5 3.5q7 47 8 98t-18 93q-2 4 -6 6.5t-8 2.5h-0.5h-1.5q-5 0 -9 -3t-5 -8q-4 -12 -12 -18.5t-14 -8.5q-12 -5 -26 -4t-27 7q-25 12 -39 38.5t-14 63.5q0 36 19 68t55 57t81.5 39t96.5 14q50 0 95.5 -14t81.5 -39 t55 -57.5t19 -67.5q1 -51 -19 -73.5t-31 -28.5v0zM923 406q-30 22 -68 33t-79 11t-79 -11.5t-68 -32.5q-34 -22 -51.5 -53t-17.5 -65q0 -36 15 -63.5t43 -40.5q18 -8 36 -8.5t34 6.5q2 -20 -0.5 -44t-5.5 -47q-2 -8 0.5 -16t7.5 -14q4 -6 12 -9.5t16 -3.5h119q8 0 15.5 3.5 t13.5 9.5q4 6 6.5 14t1.5 16q-4 24 -6.5 47.5t-0.5 43.5q16 -7 34.5 -6.5t36.5 8.5q10 6 32 29t22 75q0 35 -17.5 65.5t-51.5 52.5v0zM922 213q-16 -7 -31 -5t-24 13q-2 3 -6.5 4.5t-9.5 0.5q-5 -2 -8 -4.5t-5 -7.5q-9 -28 -6.5 -62t8.5 -66v-2t-2 -2q-1 -2 -1.5 -2h-2.5 h-119q-1 0 -2 1t-3 1l-0.5 1t-0.5 3q6 39 8 70.5t-7 59.5q-1 5 -4.5 7.5t-7.5 3.5h-2h-2q-3 0 -6.5 -1.5t-5.5 -4.5q-10 -11 -25 -13t-30 5q-18 9 -29 29t-11 46t14.5 50t41.5 43q27 18 60.5 28t69.5 10t69.5 -9.5t59.5 -28.5q27 -19 41.5 -43t14.5 -50q2 -38 -13 -55 t-23 -20v0z" />
</svg>