<svg viewBox="0 0 1024 1024" xmlns="http://www.w3.org/2000/svg">
  <path transform="scale(1, -1) translate(0, -960)" fill="currentColor" d="M512 928q-82 0 -154 -36t-125.5 -98t-84.5 -145t-31 -177q0 -5 2.5 -9t6.5 -5q70 -32 143 -50t150 -24l-21 -298q-1 -24 7 -45t24 -39q17 -16 38 -25t45 -9t45 9t38 26t24.5 39t6.5 46l-21 299q72 7 145 25t146 46q5 1 8 5t3 9q0 94 -31 177t-84.5 145t-125.5 98t-154 36 zM779 760q-7 -18 -22.5 -29t-34.5 -11q-26 0 -44.5 18t-18.5 44q0 18 10 33.5t25 22.5q24 -15 45 -35t40 -43zM214 717q21 -5 34.5 -21.5t13.5 -39.5q0 -25 -18 -43.5t-44 -18.5q-10 0 -19 3t-16 8q9 31 22 59t27 53v0zM594 86q1 -16 -5 -31.5t-18 -28.5q-12 -12 -27 -19 t-32 -7t-32.5 7t-26.5 19q-12 12 -18 28t-5 32l21 296q11 0 22 -0.5t23 -0.5q19 0 39 1t39 2l20 -298v0zM149 483q0 24 3 46.5t8 44.5q10 -4 20.5 -7.5t22.5 -3.5q39 0 67 27.5t28 67.5q0 30 -17.5 54t-45.5 34q25 34 55 62q31 27 66 47t75 30q39 11 81 11q41 0 79 -10 t73 -28q-17 -14 -27 -33.5t-10 -42.5q0 -38 27.5 -66t67.5 -28q24 0 45 11.5t33 31.5q35 -51 54.5 -114.5t22.5 -133.5q-99 -35 -194 -53q-96 -18 -187 -18t-178 18t-169 53v0zM517 672q-39 0 -67 -27.5t-28 -66.5q0 -40 27.5 -67.5t67.5 -27.5q39 0 66.5 27.5t27.5 67.5 q0 39 -28 66.5t-66 27.5zM517 517q-25 0 -44 18t-19 44q0 27 18 45t45 18q26 0 44 -18t18 -45q0 -26 -18.5 -44t-43.5 -18z" />
</svg>