<svg viewBox="0 0 1024 1024" xmlns="http://www.w3.org/2000/svg">
  <path transform="scale(1, -1) translate(0, -960)" fill="currentColor" d="M970 478q-27 29 -62.5 44.5t-75.5 15.5q-38 0 -74.5 -16t-63.5 -44q-18 -19 -21.5 -43.5t5.5 -47.5q11 -24 31.5 -37.5t47.5 -13.5h59v-157q0 -21 -15.5 -37t-37.5 -16h-232v496h165q22 0 40 10t30 27t14.5 38t-4.5 41q-16 39 -42 72q-27 33 -61 56t-74 36q-41 13 -84 13 t-84 -13q-40 -13 -74.5 -36.5t-60.5 -56.5q-27 -33 -42 -73q-1 -4 -2 -7.5t-2 -6.5q-15 4 -29.5 6.5t-28.5 2.5q-38 0 -74.5 -15.5t-63.5 -43.5q-18 -19 -21.5 -43.5t5.5 -47.5q11 -24 31.5 -37.5t47.5 -13.5h59v-178q0 -35 25 -60t60 -25h238v-269q0 -7 4.5 -11.5 t11.5 -4.5t11.5 4.5t4.5 11.5v96h232q35 0 60 25t25 60v157h58q26 0 46.5 13.5t31.5 37.5q11 23 6.5 47.5t-20.5 43.5v0zM283 725q28 71 91.5 114.5t139.5 43.5t140 -43.5t92 -114.5q4 -12 3 -25.5t-10 -24.5q-7 -11 -18.5 -16.5t-24.5 -5.5h-354q-2 5 -5.5 9.5t-6.5 9.5 q-11 11 -23 20.5t-25 16.5v7.5t1 8.5zM69 592q-5 12 -4.5 27.5t13.5 30.5q22 24 52 36.5t62 12.5t62 -12.5t52 -36.5q13 -15 13.5 -30.5t-4.5 -27.5t-17.5 -22t-31.5 -10h-149q-19 0 -31 10t-17 22v0zM261 296q-22 0 -37.5 15.5t-15.5 37.5v179h58q26 0 46.5 13.5t31.5 37.5 q5 10 6.5 20.5t-0.5 21.5h149v-323h-238v-2zM955 398q-5 -12 -17 -22t-32 -10h-149q-19 0 -31.5 10t-18.5 22q-5 12 -4 28t14 30q21 24 51 37t62 13q33 0 62.5 -13t51.5 -37q14 -14 15 -30t-4 -28z" />
</svg>