<svg viewBox="0 0 1024 1024" xmlns="http://www.w3.org/2000/svg">
  <path transform="scale(1, -1) translate(0, -960)" fill="currentColor" d="M902 928h-260q-45 0 -76.5 -29.5t-31.5 -71.5v-608q-30 37 -82 59.5t-116 22.5q-47 0 -89 -13q-42 -14 -73.5 -36.5t-49.5 -52.5t-18 -65q0 -34 18 -64t49.5 -53t73.5 -36t89 -13t89 13t73.5 36t49.5 53t18 64v4v3v1.5v1.5v683q0 29 22 49t54 20h260q8 0 12 4.5t4 11.5 t-5 11.5t-11 4.5v0zM336 0q-82 0 -140 39.5t-58 94.5q0 56 57.5 95.5t140.5 39.5q82 0 140 -39.5t58 -95.5q0 -55 -58 -94.5t-140 -39.5z" />
</svg>