<svg viewBox="0 0 1024 1024" xmlns="http://www.w3.org/2000/svg">
  <path transform="scale(1, -1) translate(0, -960)" fill="currentColor" d="M970 826q-11 9 -24 13.5t-28 3.5l-571 -43q-26 -2 -44 -21.5t-18 -45.5v-515q-19 16 -48 26t-63 10q-60 0 -101 -29t-41 -71t41 -71.5t101 -29.5t101.5 29.5t41.5 71.5v385l643 48v-328q-19 17 -48 27t-62 10q-60 0 -101.5 -29.5t-41.5 -71.5t41.5 -71.5t101.5 -29.5 t101 29.5t41 71.5v579q0 15 -6 28.5t-16 23.5v0zM174 85q-44 0 -77 20.5t-33 48.5q0 27 33 47.5t77 20.5q45 0 78 -20.5t33 -47.5q0 -28 -32.5 -48.5t-78.5 -20.5zM850 126q-45 0 -78 21t-33 48q0 28 33 48.5t78 20.5q44 0 77 -20.5t33 -48.5q0 -27 -33 -48t-77 -21z M960 619l-643 -49v161q0 15 9.5 24.5t23.5 10.5l572 44h1.5h1.5q7 0 13 -2.5t11 -7.5q6 -5 8.5 -11.5t2.5 -14.5v-155v0z" />
</svg>