<svg viewBox="0 0 256 256" xmlns="http://www.w3.org/2000/svg">
  <path transform="scale(1, -1) translate(0, -256)" fill="currentColor" d="M245 224q-7 6 -15 6l-143 -11q-8 -1 -13.5 -6.5t-5.5 -13.5v-123q-10 6 -24 6q-17 0 -28 -8t-11 -19.5t11 -20t27.5 -8.5t27.5 8.5t11 19.5v94l155 12v-73q-11 7 -25 7q-16 0 -27 -8.5t-11 -20t11 -19.5t27.5 -8t27.5 8t11 20v144q0 4 -1.5 8t-4.5 6zM44 40 q-11 0 -18 4.5t-7 10t7 9.5t17.5 4t17.5 -4t7 -9.5t-7 -10t-17 -4.5zM212 51q-10 0 -17 4.5t-7 9.5t7 9.5t17.5 4.5t17.5 -4.5t7 -9.5t-7 -9.5t-18 -4.5zM82 199q0 2 2 3.5t4 2.5l143 11q3 0 4.5 -2t1.5 -4v-36l-155 -12v37z" />
</svg>