<svg viewBox="0 0 1024 1024" xmlns="http://www.w3.org/2000/svg">
  <path transform="scale(1, -1) translate(0, -960)" fill="currentColor" d="M968 506l-77 78q-7 7 -10.5 16.5t-3.5 18.5v114q0 33 -24 57t-58 24h-113q-10 0 -19 4t-17 11l-78 77q-24 24 -57.5 24t-57.5 -24l-79 -77q-7 -7 -16 -11t-19 -4h-113q-34 0 -58 -24t-24 -57v-114q0 -9 -3.5 -18.5t-10.5 -16.5l-77 -78q-24 -24 -24 -58t24 -58l77 -78 q7 -7 10.5 -16.5t3.5 -18.5v-114q0 -33 24 -57t58 -24h113q10 0 19 -4t16 -11l79 -77q12 -12 27 -18t30 -6q16 0 31 6t27 18l78 79q8 7 17 10.5t19 3.5h113q34 0 58 24t24 58v113q0 10 3.5 19t10.5 17l79 78q22 23 22 56.5t-24 57.5zM946 413l-77 -77q-12 -12 -18 -26.5 t-6 -31.5v-113q0 -21 -14.5 -35.5t-35.5 -14.5h-113q-17 0 -31.5 -6t-26.5 -18l-78 -77q-15 -14 -35.5 -14t-35.5 14l-75 77q-12 12 -26.5 18t-31.5 6h-113q-21 0 -35.5 14.5t-14.5 35.5v113q0 17 -6 31.5t-18 26.5l-77 78q-14 15 -14 35.5t14 35.5l77 75q12 12 18 26.5 t6 31.5v113q0 21 14.5 35.5t35.5 14.5h113q17 0 31.5 6t26.5 18l78 77q15 14 35.5 14t35.5 -14l75 -77q12 -12 26.5 -18t31.5 -6h113q21 0 35.5 -14.5t14.5 -35.5v-113q0 -17 6 -31.5t18 -26.5l77 -78q14 -14 14 -34.5t-14 -34.5v0zM658 395l-16 -2t-15 -1q-71 0 -121 50 t-50 121q0 7 1 15l2 16q1 4 -1 8.5t-5 7.5q-4 2 -9 2t-9 -2q-32 -23 -59 -67t-27 -87q0 -71 50 -121t121 -50q43 0 87 27t67 59q2 4 2 9t-2 9q-3 3 -7.5 5t-8.5 1v0zM520 315q-58 0 -98.5 41t-40.5 98q0 26 13.5 53.5t31.5 49.5q1 -40 17 -76q15 -35 42 -61.5t62 -42.5 t75 -17q-21 -18 -49 -31.5t-53 -13.5v0zM661 552h-34v34q0 7 -4.5 11.5t-11.5 4.5t-11.5 -4.5t-4.5 -11.5v-34h-35q-7 0 -11.5 -4.5t-4.5 -11.5t4.5 -11.5t11.5 -4.5h34v-34q0 -7 4 -11.5t12 -4.5q7 0 11.5 4.5t4.5 11.5v34h33q7 0 11.5 4.5t4.5 11.5t-4 11.5t-10 4.5z" />
</svg>