<svg viewBox="0 0 256 256" xmlns="http://www.w3.org/2000/svg">
  <path transform="scale(1, -1) translate(0, -256)" fill="currentColor" d="M244 144l-19 20q-3 3 -3 6v29q0 9 -7 16t-16 7h-29q-4 0 -6 3l-20 19q-7 7 -16.5 7t-15.5 -7l-20 -19q-3 -3 -6 -3h-29q-9 0 -16 -7t-7 -16v-29q0 -4 -3 -6l-19 -20q-7 -6 -7 -16t7 -16l19 -20q3 -3 3 -6v-29q0 -9 7 -16t16 -7h29q4 0 6 -3l20 -19q6 -7 16 -7t16 7l20 19 q3 3 6 3h29q9 0 16 7t7 16v29q0 4 3 6l19 20q7 6 7 15.5t-7 16.5zM234 122l-19 -20q-7 -7 -7 -16v-29q0 -4 -2.5 -6.5t-6.5 -2.5h-28q-10 0 -17 -7l-19 -19q-3 -3 -7 -3t-6 3l-20 19q-7 7 -16 7h-29q-4 0 -6.5 2.5t-2.5 6.5v29q0 9 -7 16l-19 20q-3 2 -3 6t3 7l19 19 q7 7 7 17v28q0 4 2.5 6.5t6.5 2.5h29q9 0 16 7l20 19q2 3 6 3t7 -3l19 -19q7 -7 17 -7h28q4 0 6.5 -2.5t2.5 -6.5v-28q0 -10 7 -17l19 -19q3 -3 3 -7t-3 -6zM164 118q-5 -1 -7 -1q-17 0 -28.5 11.5t-11.5 27.5l1 8q1 4 -3 7t-8 -1q-9 -6 -16 -17.5t-7 -22.5 q0 -19 13.5 -32.5t32.5 -13.5q11 0 23 7t18 16q2 4 -0.5 8t-6.5 3zM130 98q-13 0 -22.5 9.5t-9.5 22.5q0 8 6 18q3 -17 15 -29t28 -15q-9 -6 -17 -6zM165 157h-5v6q0 3 -2.5 5t-5.5 2t-5 -2t-2 -5v-6h-5q-3 0 -5 -2t-2 -5t2 -5t5 -2h6v-6q0 -3 2 -5t5 -2t5 2t2 5v6h6 q3 0 5 2t2 5t-2.5 5t-5.5 2z" />
</svg>