<svg viewBox="0 0 1024 1024" xmlns="http://www.w3.org/2000/svg">
  <path transform="scale(1, -1) translate(0, -960)" fill="currentColor" d="M984 883q-2 13 -12 22t-23 12q-13 2 -25.5 -3.5t-19.5 -15.5q-46 -72 -117 -72t-118 16q-42 13 -86.5 3.5t-75.5 -39.5q-31 30 -75 40t-86 -4q-46 -15 -117 -15t-117 71q-6 9 -16 14.5t-21 5.5q-18 0 -30.5 -12.5t-12.5 -30.5v-880q0 -7 4.5 -11.5t11.5 -4.5t11.5 4.5 t4.5 11.5v650q16 -20 41 -45q25 -26 60.5 -50t81.5 -43q45 -19 102 -25q49 -4 90 7.5t70 36.5q47 -42 113.5 -44.5t123.5 14.5q54 16 104 50t85.5 83.5t49.5 113.5q15 64 -1 140v0zM736 526q-50 -15 -113 -12t-103 46q-2 2 -5.5 3.5t-5.5 1.5q-4 0 -6.5 -1.5t-4.5 -3.5 q-32 -35 -75 -41.5t-69 -4.5q-73 7 -127 36t-89.5 61.5t-53.5 58.5q-18 25 -18 26t-1 1.5t-1 1.5v176q0 5 3 8t8 3q4 0 6.5 -1t3.5 -5q27 -43 63 -62t73.5 -23.5t73.5 1.5q35 6 62 15q37 12 75.5 1.5t63.5 -39.5q5 -5 12 -5t12 5q25 30 63.5 40t75.5 -2q27 -8 62 -14 q35 -7 72.5 -2.5t74.5 23.5q36 19 63 62q3 2 5.5 4t5.5 1q4 -1 6.5 -3.5t3.5 -6.5q15 -69 2 -126q-12 -58 -43.5 -102.5t-77.5 -74.5q-46 -31 -97 -46v0z" />
</svg>