<svg viewBox="0 0 256 256" xmlns="http://www.w3.org/2000/svg">
  <path transform="scale(1, -1) translate(0, -256)" fill="currentColor" d="M249 238q-1 4 -4 6.5t-7 3.5t-8 -0.5t-6 -5.5q-10 -14 -26 -16q-13 -2 -30 4q-10 3 -21 1t-20 -9q-8 7 -19 9t-22 -1q-16 -6 -29 -4q-17 2 -27 16q-3 6 -10 6t-11 -3.5t-4 -9.5v-221q0 -3 2 -5t5 -2t5 2t2 5v155q12 -13 26 -22q20 -11 42 -14q25 -2 40 11q12 -9 29 -10 q15 -1 31 3q20 6 36 20t23 33q8 22 3 48zM183 150q-14 -4 -27 -3q-15 2 -24 11q-1 2 -4.5 2t-5.5 -2q-6 -7 -17 -10q-8 -2 -17 -1q-27 3 -50 22q-11 10 -19 22v43q11 -16 29.5 -21t41.5 3q9 3 17.5 0.5t14.5 -9.5q2 -2 5.5 -2t5.5 2q5 7 14 9.5t17 -0.5q23 -8 42 -3t29 22 q5 -22 -1.5 -39t-20 -29t-30.5 -17z" />
</svg>