<svg viewBox="0 0 256 256" xmlns="http://www.w3.org/2000/svg">
  <path transform="scale(1, -1) translate(0, -256)" fill="currentColor" d="M128 251q-33 0 -61.5 -16.5t-45 -45t-16.5 -61.5t16.5 -61.5t45 -45t61.5 -16.5t61.5 16.5t45 45t16.5 61.5t-16.5 61.5t-45 45t-61.5 16.5zM128 19q-29 0 -54 14.5t-40 39.5t-15 55t15 54.5t39.5 39.5t54.5 15t55 -15t39.5 -40t14.5 -54.5t-14.5 -54.5t-39.5 -39.5 t-55 -14.5zM172 98h-9v9q0 3 -2 5t-5 2t-5 -2t-2 -5v-9h-14v9q0 3 -2 5t-5 2t-5.5 -2t-2.5 -5v-9h-14v9q0 3 -2 5t-5 2t-5 -2t-2 -5v-9h-8q-3 0 -5 -2t-2 -5t2 -5t5 -2h9v-9q0 -3 2 -5t5 -2t5 2t2 5v9h14v-9q0 -3 2 -5t5 -2t5.5 2t2.5 5v9h14v-9q0 -3 2 -5t5 -2t5 2t2 5v9h8 q3 0 5 2t2 5t-2 5t-5 2zM100 165q0 6 -4 10t-10 4t-10 -4t-4 -10t4 -10t10 -4t10 4t4 10zM170 179q-5 0 -9.5 -4t-4.5 -10t4.5 -10t10 -4t9.5 4t4 10t-4 10t-10 4z" />
</svg>