<svg viewBox="0 0 256 256" xmlns="http://www.w3.org/2000/svg">
  <path transform="scale(1, -1) translate(0, -256)" fill="currentColor" d="M128 251q-33 0 -61.5 -16.5t-45 -45t-16.5 -61.5t16.5 -61.5t45 -45t61.5 -16.5t61.5 16.5t45 45t16.5 61.5t-16.5 61.5t-45 45t-61.5 16.5zM128 19q-29 0 -54 14.5t-40 39.5t-15 55t15 54.5t39.5 39.5t54.5 15t55 -15t39.5 -40t14.5 -54.5t-14.5 -54.5t-39.5 -39.5 t-55 -14.5zM169 88h-7v11q0 3 -2 5t-5 2t-5 -2t-2 -5v-11h-14v11q0 3 -2 5t-5 2t-5 -2t-2 -5v-11h-14v11q0 3 -2 5t-5 2t-5 -2t-2 -5v-11h-7q-3 0 -5 -2t-2 -5t2 -5t5 -2h7v-11q0 -3 2 -5t5 -2t5 2t2 5v11h14v-11q0 -3 2 -5t5 -2t5 2t2 5v11h14v-11q0 -3 2 -5t5 -2t5 2t2 5 v11h7q3 0 5 2t2 5t-2 5t-5 2zM118 172q0 3 -2 5t-5 2t-5 -2t-2 -5q0 -7 -5 -12.5t-12 -5.5t-12.5 5.5t-5.5 12.5q0 3 -2 5t-5 2t-5 -2t-2 -5q0 -13 9.5 -22.5t22.5 -9.5t22 9.5t9 22.5zM194 179q-3 0 -5 -2t-2 -5q0 -8 -5.5 -13t-12.5 -5t-12 5t-5 13q0 3 -2.5 5t-5.5 2 t-4.5 -2t-1.5 -5q0 -13 9 -22.5t22 -9.5t22.5 9.5t9.5 22.5q0 3 -2 5t-5 2z" />
</svg>