<svg viewBox="0 0 1024 1024" xmlns="http://www.w3.org/2000/svg">
  <path transform="scale(1, -1) translate(0, -960)" fill="currentColor" d="M512 928q-99 0 -186 -38q-88 -38 -153 -103t-103 -153q-38 -87 -38 -186t38 -186q38 -88 103 -153t153 -103q87 -38 186 -38t186 38q88 38 153 103t103 153q38 87 38 186t-38 186q-38 88 -103 153t-153 103q-87 38 -186 38zM512 0q-92 0 -174 35q-81 36 -142 97t-97 142 q-35 82 -35 174t35 174q36 81 96.5 142t142.5 97q82 35 174 35t174 -35q81 -36 142 -96.5t97 -142.5q35 -82 35 -174t-35 -174q-36 -81 -96.5 -142t-142.5 -97q-82 -35 -174 -35zM398 595q0 -23 -16 -39.5t-40 -16.5q-23 0 -39.5 16.5t-16.5 39.5t16.5 39.5t39.5 16.5 q24 0 40 -16.5t16 -39.5zM738 595q0 -23 -16.5 -39.5t-39.5 -16.5q-24 0 -40 16.5t-16 39.5t16 39.5t40 16.5q23 0 39.5 -16.5t16.5 -39.5zM608 376q-5 5 -11.5 5t-10.5 -5l-74 -74l-74 74q-4 5 -10.5 5t-11.5 -5t-5 -11.5t5 -10.5l74 -74l-74 -74q-5 -4 -5 -10.5t5 -11.5 q2 -2 5.5 -3.5t5.5 -1.5q4 0 6.5 1.5t4.5 3.5l74 72l74 -74q2 -2 5 -3t6 -1q2 0 5.5 1t5.5 3q5 5 5 11.5t-5 11.5l-74 73l74 74q5 5 5 12t-5 12v0z" />
</svg>