<svg viewBox="0 0 1024 1024" xmlns="http://www.w3.org/2000/svg">
  <path transform="scale(1, -1) translate(0, -960)" fill="currentColor" d="M688 154q-5 8 -7.5 16.5t-2.5 16.5v216q0 7 -4 11.5t-12 4.5q-7 0 -11.5 -4.5t-4.5 -11.5v-216q0 -13 4 -25.5t11 -25.5l22 -35h-307v0v0v0v0h-309l23 38q4 10 7.5 20.5t4.5 24.5v285q0 48 18 91q19 43 50.5 77t74.5 56q44 23 94 29q54 6 106 -7t94 -45q5 -3 12 -2t11 6 q3 4 2 11t-6 11q-37 26 -79.5 40.5t-89.5 17.5v78q0 7 -4.5 11.5t-11.5 4.5t-11.5 -4.5t-4.5 -11.5v-77h-10.5t-10.5 -1q-57 -6 -106 -31q-48 -25 -83.5 -63t-55.5 -87q-21 -49 -21 -103v-281q-1 -11 -3.5 -18.5t-5.5 -13.5l-27 -45q-5 -7 -5 -14.5t5 -14.5q3 -6 9.5 -9.5 t14.5 -3.5h297v-65q0 -7 4.5 -11.5t11.5 -4.5t11.5 4.5t4.5 11.5v65h301q7 0 13.5 3.5t10.5 9.5q4 5 4.5 13t-4.5 16l-24 42v0zM829 533h-109l120 117q4 3 5 7.5t-2 9.5q-2 5 -5.5 7.5t-8.5 2.5h-147q-8 0 -12 -4.5t-4 -11.5t4 -11.5t12 -4.5h108l-120 -117q-3 -4 -4 -8.5 t1 -9.5q3 -4 6.5 -6.5t8.5 -2.5h147q7 0 11.5 4.5t4.5 11.5t-5 11.5t-11 4.5zM976 797h-75l86 83q4 4 5 8.5t-2 9.5q-2 4 -5.5 6.5t-8.5 2.5h-114q-7 0 -11.5 -4.5t-4.5 -11.5t4.5 -11.5t11.5 -4.5h76l-87 -85q-3 -3 -4 -7.5t1 -9.5t6 -7.5t8 -2.5h114q7 0 11.5 4.5 t4.5 11.5t-4.5 12.5t-11.5 5.5v0z" />
</svg>