<svg viewBox="0 0 256 256" xmlns="http://www.w3.org/2000/svg">
  <path transform="scale(1, -1) translate(0, -256)" fill="currentColor" d="M128 251q-33 0 -61.5 -16.5t-45 -45t-16.5 -61.5t16.5 -61.5t45 -45t61.5 -16.5t61.5 16.5t45 45t16.5 61.5t-16.5 61.5t-45 45t-61.5 16.5zM128 19q-29 0 -54 14.5t-40 39.5t-15 55t15 54.5t39.5 39.5t54.5 15t55 -15t39.5 -40t14.5 -54.5t-14.5 -54.5t-39.5 -39.5 t-55 -14.5zM72 165q0 -6 4 -10t9.5 -4t10 4t4.5 10t-4.5 10t-10 4t-9.5 -4t-4 -10zM156 165q0 -6 4.5 -10t10 -4t9.5 4t4 10t-4 10t-9.5 4t-10 -4t-4.5 -10zM154 112q-2 2 -5 2t-5 -2l-16 -16l-16 16q-2 2 -5 2t-5 -2t-2 -5t2 -5l16 -16l-16 -17q-2 -2 -2 -5t2 -5t5 -2t5 2 l16 17l16 -17q2 -2 4.5 -2t4.5 2t2 5t-2 5l-16 17l16 16q3 2 3 5t-2 5z" />
</svg>