<svg viewBox="0 0 1024 1024" xmlns="http://www.w3.org/2000/svg">
  <path transform="scale(1, -1) translate(0, -960)" fill="currentColor" d="M771 498q-14 16 -34.5 26t-43.5 10h-77v130q0 2 -1 4t-1 4q12 16 18 34.5t6 39.5q0 24 -16 54q-16 29 -36 55.5t-39 45.5q-18 20 -22 24q-5 5 -11.5 5t-11.5 -5q-4 -4 -22 -24q-18 -19 -38.5 -45.5t-36.5 -55.5q-16 -30 -16 -54q0 -21 6 -39.5t18 -34.5q-1 -1 -1.5 -3.5 t-0.5 -4.5v-130h-77q-22 0 -43 -9t-35 -27t-20 -39.5t-2 -44.5l54 -360q6 -37 35 -61.5t66 -24.5h245q38 0 66 24.5t34 61.5l60 360q3 22 -2.5 44t-20.5 40v0zM512 890q25 -27 59 -71.5t34 -74.5q0 -18 -7 -35t-20 -31h-133q-13 14 -20 30.5t-7 35.5q1 29 35 74t59 72v0z M440 646h144v-113h-144v113zM763 419l-59 -360q-4 -25 -24 -42t-46 -17h-244q-26 0 -45.5 17t-24.5 42l-59 360q-3 16 1.5 31t14.5 27q9 12 24 18.5t30 6.5h362q15 0 29 -6.5t25 -18.5q10 -12 14.5 -27t1.5 -31v0z" />
</svg>