<svg viewBox="0 0 256 256" xmlns="http://www.w3.org/2000/svg">
  <path transform="scale(1, -1) translate(0, -256)" fill="currentColor" d="M194 192l-1 1v6q0 21 -15.5 36.5t-36.5 15.5h-27q-21 0 -36.5 -15.5t-15.5 -36.5v-6q-13 -13 -20.5 -30.5t-7.5 -36.5v-70q0 -21 15 -36t37 -15h85q21 0 36 15t15 36v70q0 19 -7.5 36t-20.5 30zM77 199q0 16 11 27t27 11h26q16 0 27 -11t11 -27v-118q0 -2 -1.5 -3.5 t-3.5 -1.5h-92q-2 0 -3.5 1.5t-1.5 3.5v118zM208 56q0 -15 -11 -26t-27 -11h-84q-16 0 -27 11t-11 26v70q0 25 15 46v-91q0 -8 5.5 -13.5t13.5 -5.5h92q8 0 13.5 5.5t5.5 13.5v91q15 -21 15 -46v-70z" />
</svg>