<svg viewBox="0 0 256 256" xmlns="http://www.w3.org/2000/svg">
  <path transform="scale(1, -1) translate(0, -256)" fill="currentColor" d="M183 160l-3 3q-4 25 -16 47t-31 39q-2 2 -5 2t-4 -2q-20 -17 -32 -39t-16 -47q-12 -11 -19 -26t-7 -31v-58q0 -18 12.5 -30.5t30.5 -12.5h69q18 0 30.5 12.5t12.5 30.5v58q0 15 -5.5 29t-16.5 25zM128 234q19 -18 29.5 -43.5t10.5 -52.5v-37q0 -15 -10 -25t-25 -10h-10 q-15 0 -25 10t-10 25v37q0 27 10.5 52.5t29.5 43.5zM192 48q0 -12 -8.5 -20.5t-20.5 -8.5h-70q-12 0 -20.5 8.5t-8.5 20.5v58q0 18 10 32v-37q0 -21 14 -35t35 -14h10q21 0 35 14t14 35v37q10 -15 10 -32v-58z" />
</svg>