<svg viewBox="0 0 256 256" xmlns="http://www.w3.org/2000/svg">
  <path transform="scale(1, -1) translate(0, -256)" fill="currentColor" d="M163 150v77q0 10 -7 17t-18 7h-20q-10 0 -17.5 -7t-7.5 -17v-77q-26 -9 -42.5 -31t-16.5 -48q0 -18 8 -34.5t22 -28.5q4 -3 9 -3h111q4 0 8 3q14 12 22 28.5t8 34.5q0 26 -16.5 48t-42.5 31zM162 71q0 -30 -11 -52h-46q-11 22 -11 52q0 20 5 36.5t13 25.5t16 9t16 -9 t13 -25.5t5 -36.5zM107 227q0 4 3 7t8 3h20q5 0 8 -3t3 -7v-73q-12 2 -21.5 2t-19.5 -2v73h-1zM48 71q0 22 14 40t35 26q-8 -12 -12.5 -29.5t-4.5 -36.5q0 -29 10 -52h-17q-12 10 -18.5 23.5t-6.5 28.5zM183 19h-17q10 23 10 51q0 20 -4.5 37.5t-12.5 28.5q22 -8 35.5 -26 t13.5 -40q0 -14 -6.5 -27.5t-18.5 -23.5z" />
</svg>