<svg viewBox="0 0 1024 1024" xmlns="http://www.w3.org/2000/svg">
  <path transform="scale(1, -1) translate(0, -960)" fill="currentColor" d="M638 530v313q0 35 -25 60t-59 25h-84q-34 0 -59 -25t-25 -60v-313q-52 -18 -95 -49q-44 -31 -75.5 -71.5t-49.5 -88.5q-17 -48 -17 -102q0 -68 30 -131.5t85 -109.5v0q5 -5 11.5 -7.5t14.5 -2.5h443q7 0 13 2.5t12 7.5q56 46 86 109.5t30 131.5q0 54 -17 102t-48.5 88.5 t-75.5 71.5q-43 31 -95 49v0zM418 843q0 22 15.5 37.5t36.5 15.5h84q21 0 36.5 -15.5t15.5 -37.5v-304q-22 5 -46 8t-48 3t-48 -3t-46 -8v304zM659 219q0 -62 -12.5 -119.5t-35.5 -99.5h-198q-23 43 -35.5 100t-12.5 119q0 61 12 115q11 54 31.5 95t46.5 65q27 24 57 24 t57 -24q26 -24 46.5 -65t31.5 -95q12 -54 12 -115zM285 2q-49 42 -76.5 99t-27.5 118q0 51 18 97q18 47 50.5 84.5t76.5 65.5q44 27 96 41q-20 -21 -37 -51q-16 -30 -28 -67t-18 -80t-6 -90q0 -61 11.5 -118t33.5 -101h-87h-3.5t-2.5 2v0zM739 2q-1 -2 -2 -2h-3h-86 q22 44 33.5 101t11.5 118q0 94 -24.5 169.5t-65.5 118.5q52 -13 97 -40q44 -28 76 -65.5t51 -84.5q18 -46 18 -98q-1 -61 -29 -118t-77 -99z" />
</svg>