<svg viewBox="0 0 1024 1024" xmlns="http://www.w3.org/2000/svg">
  <path transform="scale(1, -1) translate(0, -960)" fill="currentColor" d="M768 698q-2 2 -4 3.5t-4 2.5v27q0 41 -15 77q-16 36 -42.5 62.5t-61.5 42.5q-36 15 -76 15h-106q-40 0 -76 -15q-35 -16 -61.5 -42.5t-42.5 -61.5q-15 -36 -15 -76v-29q-54 -50 -84 -119t-30 -143v-282q0 -79 56.5 -135.5t135.5 -56.5h341q79 0 135.5 56.5t56.5 135.5 v282q-1 72 -28 138t-79 118zM296 733q0 67 48 115t115 48h106q67 0 115 -48t48 -115v-472q0 -13 -9.5 -22.5t-22.5 -9.5h-368q-13 0 -22.5 9.5t-9.5 22.5v472zM842 160q0 -66 -47 -113t-113 -47h-340q-66 0 -113 47t-47 113v282q0 60 21 116t61 101v-398q0 -27 19 -45.5 t45 -18.5h368q26 0 45 18.5t19 45.5v398q40 -45 61 -100.5t21 -115.5v-283z" />
</svg>