<svg viewBox="0 0 1024 1024" xmlns="http://www.w3.org/2000/svg">
  <path transform="scale(1, -1) translate(0, -960)" fill="currentColor" d="M723 570q-2 2 -5.5 4.5t-5.5 6.5h-1t-1 1q-7 49 -23 96q-16 46 -40 89.5t-55 82.5q-31 40 -69 73q-5 4 -11 4t-10 -4q-38 -33 -69 -73q-32 -39 -55.5 -82.5t-40.5 -90.5q-16 -47 -23 -96l-1 -0.5t-1 -1.5q-47 -43 -73 -101t-26 -121v-229q0 -66 47 -113t113 -47h278 q66 0 113 47t47 113v230q0 60 -23 115t-65 97v0zM512 890q41 -39 74 -86q32 -46 54.5 -97t34.5 -107q11 -55 11 -112v-149q0 -63 -45 -108t-108 -45h-42q-63 0 -108 45t-45 108v149q0 57 11 112q12 55 34.5 106.5t54.5 97.5q33 47 74 86v0zM779 128q0 -53 -37.5 -90.5 t-90.5 -37.5h-278q-53 0 -90.5 37.5t-37.5 90.5v230q0 47 16 91.5t46 80.5q-1 -10 -1 -20.5v-21.5v-149q0 -77 54 -131t131 -54h42q77 0 131 54t54 131v149v21t-1 21q30 -36 46 -80.5t16 -91.5v-230z" />
</svg>