<svg viewBox="0 0 1024 1024" xmlns="http://www.w3.org/2000/svg">
  <path transform="scale(1, -1) translate(0, -960)" fill="currentColor" d="M813 827l-271 96q-14 5 -29 5t-30 -5l-270 -96q-27 -9 -43 -32.5t-16 -52.5v-190q0 -118 10 -201q11 -84 44.5 -148.5t96.5 -117.5q62 -52 165 -107q10 -5 21.5 -8.5t22.5 -3.5q10 0 21 3t22 9q103 55 165 107q63 53 96.5 117.5t44.5 148.5q11 83 11 201v190 q-2 29 -18.5 52.5t-42.5 32.5v0zM840 552q0 -113 -10 -193t-41.5 -140.5t-90.5 -109.5q-60 -50 -159 -103q-13 -7 -27.5 -7t-26.5 7q-99 53 -158 103q-59 49 -91 109.5t-42 140.5t-10 193v190q0 18 11 33.5t27 21.5l271 96q5 1 9.5 2t9.5 1t9.5 -1t9.5 -2l271 -96 q16 -6 27 -21.5t11 -33.5v-190v0zM600 704q-2 1 -5 2t-6 1q-57 -2 -105.5 -46.5t-69.5 -110.5q-20 -63 -7.5 -123.5t51.5 -96.5l-40 -127q-3 -6 0.5 -12t10.5 -9h2h3q4 0 8.5 3.5t7.5 8.5l40 126q52 7 97 50t66 107q20 66 5.5 129.5t-58.5 97.5zM622 485q-18 -55 -56 -92.5 t-83 -42.5q-33 30 -44 83t7 108t56.5 92t83.5 42q33 -29 43 -81.5t-7 -108.5v0z" />
</svg>