<svg viewBox="0 0 256 256" xmlns="http://www.w3.org/2000/svg">
  <path transform="scale(1, -1) translate(0, -256)" fill="currentColor" d="M204 226l-68 24q-8 3 -16 0l-68 -24q-8 -3 -12.5 -9.5t-4.5 -14.5v-48q0 -43 6 -65q6 -26 23 -44t52 -37q6 -3 12 -3t12 3q35 19 52 37t23 44q6 22 6 65v48q0 8 -4.5 14.5t-12.5 9.5zM207 154q0 -40 -5 -61q-5 -23 -20.5 -39t-48.5 -34q-2 -1 -5 -1t-6 1q-32 18 -47.5 34 t-21.5 40q-4 20 -4 60v48q0 3 2 6t5 4l68 24q2 1 4 1h3l69 -25q3 -1 5 -4t2 -6v-48zM152 194q-2 2 -5 2q-15 -1 -27.5 -12t-18 -28t-3 -33t12.5 -25l-9 -30q-1 -3 0 -5.5t4 -3.5l2 -1q2 0 4 1.5t3 3.5l9 30q14 3 25.5 14t17 28t1.5 33.5t-16 25.5zM153 138 q-4 -12 -12.5 -20.5t-18.5 -10.5q-8 7 -10 19t2 24.5t13 21t19 10.5q7 -7 9 -19t-2 -25z" />
</svg>