<svg viewBox="0 0 1024 1024" xmlns="http://www.w3.org/2000/svg">
  <path transform="scale(1, -1) translate(0, -960)" fill="currentColor" d="M970 422l-872 500q-14 7 -28 5.5t-25 -12.5t-12.5 -25t5.5 -28l500 -873q6 -10 16 -15.5t22 -5.5h1h1q12 1 22 8t14 18l109 243l243 109q11 4 18.5 14t7.5 22t-6 23t-16 17v0zM954 374l-239 -107l-136 136q-5 5 -11 5t-11 -5t-5 -11t5 -11l136 -136l-107 -239 q-2 -3 -5.5 -4.5t-4.5 -1.5t-5 1t-6 5l-499 872q-4 5 -2 9.5t3 5.5q1 0 3.5 1.5t4.5 1.5h3t4 -2l873 -499q4 -2 4.5 -6t0.5 -5t-1.5 -4.5t-4.5 -5.5z" />
</svg>