<svg viewBox="0 0 256 256" xmlns="http://www.w3.org/2000/svg">
  <path transform="scale(1, -1) translate(0, -256)" fill="currentColor" d="M248 112l-22 16v44q8 15 13 32q4 12 6 24l2 10q0 3 -2 5.5t-4.5 2.5t-5 -2t-2.5 -4v-1q-2 -14 -6 -31q-10 -31 -30 -51q-27 -27 -69 -27h-2q-55 1 -82 45l-1 1q-11 18 -17 42q-3 14 -3 21q0 3 -2 5t-5 2t-5 -2t-2 -5q0 -7 4 -23q5 -25 17 -46v-44l-22 -17q-2 -1 -2.5 -3 t0.5 -5l9 -29q0 -2 2 -3.5t5 -1.5h31q5 0 7 5l9 30q2 4 -2 8l-23 16v25q29 -32 77 -34v-40h-4q-10 0 -17.5 -7t-7.5 -18t8 -19l20 -20q3 -3 8 -3t8 3l20 20q8 8 8 18.5t-8 17.5q-4 4 -9.5 6t-11.5 1v40q47 3 77 36v-24l-22 -16q-2 -1 -3 -3.5t0 -4.5l10 -30q0 -2 2 -3t5 -1 h31q5 0 7 4l9 30q1 5 -3 8zM48 81h-21l-7 20l17 13l17 -13zM146 60q4 -4 4 -8.5t-4 -7.5l-18 -19l-18 18q-4 4 -4 9t3.5 8t7.5 3t7.5 -2.5t7 0t7.5 2.5t7 -3zM229 84h-21l-6 20l15 10h2h3l14 -10z" />
</svg>