<svg viewBox="0 0 1024 1024" xmlns="http://www.w3.org/2000/svg">
  <path transform="scale(1, -1) translate(0, -960)" fill="currentColor" d="M992 840q0 7 -4.5 11.5t-11.5 4.5t-11.5 -4.5t-4.5 -11.5q0 -92 -35 -174q-36 -81 -96.5 -142t-142.5 -97q-82 -35 -174 -35t-174 35q-81 36 -142 96.5t-97 142.5q-35 82 -35 174q0 7 -4.5 11.5t-11.5 4.5t-11.5 -4.5t-4.5 -11.5q0 -95 35 -179q34 -84 94 -148t141 -104 t173 -47q-30 -29 -71.5 -79t-41.5 -94q0 -61 43.5 -105t104.5 -44q62 0 105.5 44t43.5 105q0 45 -41 94.5t-72 78.5q93 7 175 47q81 40 141.5 104t94.5 148q35 84 35 179v0zM629 189q0 -48 -34.5 -82.5t-82.5 -34.5t-82.5 34.5t-34.5 82.5q0 37 43.5 86t73.5 75 q30 -26 73.5 -75t43.5 -86z" />
</svg>