<svg viewBox="0 0 1024 1024" xmlns="http://www.w3.org/2000/svg">
  <path transform="scale(1, -1) translate(0, -960)" fill="currentColor" d="M986 374l-95 69v179v3t-1 2q27 48 44 94q17 47 26 84.5t11 60.5q3 24 3 25q0 7 -4 12t-10 6q-6 0 -11 -4.5t-7 -10.5q0 -6 -12 -77t-55.5 -153.5t-128.5 -149.5q-86 -68 -234 -68h-3h-3q-67 1 -120 16q-54 15 -95.5 40t-73.5 58q-31 33 -54 69q-1 1 -1.5 3t-1.5 3 q-27 44 -43 88q-15 45 -23 81.5t-11 60.5q-2 24 -3 28q0 7 -5 11.5t-11 4.5q-7 0 -11.5 -5t-4.5 -11q0 -1 2 -26q3 -24 11.5 -62.5t25.5 -86.5t46 -96v-190l-95 -69q-3 -2 -5 -7.5t-1 -9.5l38 -119q2 -5 6 -8t10 -3h125q5 0 9.5 3t6.5 8l39 119q1 4 -0.5 9.5t-6.5 7.5 l-94 69v142q24 -31 57 -60q32 -28 72.5 -49.5t90.5 -34.5q50 -14 111 -16v-187q-6 3 -13 4t-14 1q-17 0 -32.5 -6t-28.5 -18t-20.5 -28t-8.5 -34q0 -20 7 -38t20 -33l79 -78q5 -5 11.5 -7.5t13.5 -2.5q8 0 14 2.5t12 7.5l80 80q13 13 19.5 29.5t6.5 34.5t-7 34.5t-19 29.5 q-18 18 -42 23.5t-48 -1.5v187q61 2 111 16t91 36.5t73 51.5q32 30 57 63v-139l-95 -69q-5 -4 -6 -8.5t0 -9.5l38 -118q1 -5 5.5 -8t10.5 -3h125q5 0 9.5 3t6.5 8l38 118q3 6 1 11t-5 8v0zM200 248h-102l-32 96l81 59v0v0v0v0l82 -59l-29 -96v0zM594 182q8 -8 12.5 -18.5 t4.5 -22.5t-4.5 -22.5t-12.5 -19.5l-80 -80q-2 -1 -3 -1t-2 1l-77 80q-10 10 -14.5 21.5t-4.5 25.5q0 12 4.5 22t12.5 18q9 7 18.5 10.5t20.5 3.5v0v0q8 0 16.5 -2.5t15.5 -7.5q3 -2 8.5 -2t8.5 2q20 12 40.5 10t35.5 -18v0zM926 259h-100l-32 96l72 53q2 -1 4.5 -2t4.5 -1 q3 0 5 1t5 2l72 -53l-31 -96v0z" />
</svg>