<svg viewBox="0 0 1024 1024" xmlns="http://www.w3.org/2000/svg">
  <path transform="scale(1, -1) translate(0, -960)" fill="currentColor" d="M512 928q-99 0 -186 -38q-88 -38 -153 -103t-103 -153q-38 -87 -38 -186t38 -186q38 -88 103 -153t153 -103q87 -38 186 -38t186 38q88 38 153 103t103 153q38 87 38 186t-38 186q-38 88 -103 153t-153 103q-87 38 -186 38zM512 0q-92 0 -174 35q-81 36 -142 97t-97 142 q-35 82 -35 174t35 174q36 81 96.5 142t142.5 97q82 35 174 35t174 -35q81 -36 142 -96.5t97 -142.5q35 -82 35 -174t-35 -174q-36 -81 -96.5 -142t-142.5 -97q-82 -35 -174 -35zM462 624q0 7 -4 11.5t-12 4.5q-7 0 -11.5 -4.5t-4.5 -11.5q0 -35 -24 -59t-59 -24t-59 24 t-24 59q0 7 -4.5 11.5t-11.5 4.5t-11.5 -4.5t-4.5 -11.5q0 -48 33.5 -81.5t81.5 -33.5t81.5 33.5t33.5 81.5zM776 640q-7 0 -11.5 -4.5t-4.5 -11.5q0 -35 -24 -59t-59 -24t-59 24t-24 59q0 7 -4.5 11.5t-11.5 4.5q-8 0 -12 -4.5t-4 -11.5q0 -48 33.5 -81.5t81.5 -33.5 t81.5 33.5t33.5 81.5q0 6 -5 11t-11 5zM744 272l-45 27q-24 15 -52.5 15t-52.5 -15q-17 -9 -37 -9t-37 9v0v0q-24 15 -53 15t-53 -15q-16 -9 -36 -9t-37 9l-45 27q-6 4 -12.5 2t-9.5 -6q-4 -5 -2 -12t8 -11l45 -27q24 -14 52.5 -14t52.5 14q17 10 37 10t37 -10v0v0 q24 -14 53 -14t53 14q16 10 36 10t37 -10l45 -27q2 -1 4 -1.5t4 -0.5q4 0 8 2.5t6 5.5q3 5 1.5 12t-7.5 9z" />
</svg>