<svg viewBox="0 0 1024 1024" xmlns="http://www.w3.org/2000/svg">
  <path transform="scale(1, -1) translate(0, -960)" fill="currentColor" d="M610 301l-244 51q0 -1 -1 -3t-3 -3l220 -324l13 13l39 237q-9 4 -15.5 11.5t-8.5 17.5v0zM522 619q-8 -9 -18.5 -15.5t-25.5 -6.5h-3.5h-5.5l-111 -175l296 128v2.5v2.5v3v4l-132 57v0zM528 651l144 -61q4 4 7.5 5.5t8.5 1.5l22 147l-89 90l-101 -159q4 -5 6 -11.5 t2 -12.5v0v0zM830 626l-89 89l-21 -120q4 -1 7 -4t6 -5zM613 333q5 9 15 15.5t22 6.5l24 160q-2 1 -3.5 2t-1.5 3l-298 -128q0 -1 1 -4t1 -6zM854 602l-104 -45l258 -111l-154 156v0zM667 270l-32 -193l183 182l-130 27q-4 -6 -10 -9.5t-11 -6.5zM314 322q-5 0 -9.5 0.5 t-8.5 0.5l-61 -94l-22 22l56 90q-1 1 -2 3t-3 2l-104 -45l-26 24l112 49l-203 45l-27 29l10 10l236 -50q2 4 5 7t7 6l-116 166l23 23l120 -176q3 0 6.5 0.5t6.5 0.5h6.5t9.5 -1l112 176q-8 7 -10.5 16.5t-2.5 19.5v7t1 5l-142 60l24 26l133 -56q9 8 22.5 10t26.5 0l104 161 l-86 85l-496 -496l496 -496l50 50l-224 324q-6 -3 -11.5 -3.5t-12.5 -0.5v0v0zM706 510l-28 -164q8 -5 12 -13t4 -16l149 -32l138 137l-248 106q-4 -7 -11.5 -12.5t-15.5 -5.5v0z" />
</svg>