<svg viewBox="0 0 256 256" xmlns="http://www.w3.org/2000/svg">
  <path transform="scale(1, -1) translate(0, -256)" fill="currentColor" d="M152 91l-60 13q0 -1 -2 -2l56 -80l3 3l9 59q-4 2 -6 7zM130 171q-4 -6 -10 -6h-3l-27 -43l74 32v2zM132 179l36 -15q2 1 4 1l6 37l-23 22l-25 -39q2 -3 2 -6zM208 172l-23 23l-5 -30l3 -3zM153 99q1 3 3.5 4.5t5.5 1.5l6 40v0q-1 0 -1 1l-74 -32v-2zM214 166l-26 -11 l64 -27zM167 84l-8 -49l45 46l-32 7q-1 -2 -5 -4zM78 96l-2 1h-2l-15 -24l-6 6l14 22v1h-1l-26 -11l-6 6l28 13l-51 11l-7 7l2 2l60 -12q0 2 2 3l-28 42l5 5l30 -44h7l28 44q-3 4 -3 10q0 2 1 2l-36 16l6 6l33 -14q5 4 13 2l26 41l-22 21l-124 -124l124 -124l12 12l-56 82 q-2 -2 -6 -2zM176 144l-6 -42q4 -2 4 -7l37 -8l34 35l-62 26q-1 -2 -3 -3t-4 -1z" />
</svg>