<svg viewBox="0 0 256 256" xmlns="http://www.w3.org/2000/svg">
  <path transform="scale(1, -1) translate(0, -256)" fill="currentColor" d="M78 217q-3 0 -5 -2t-2 -5v0q0 -3 2 -5.5t5 -2.5t5.5 2.5t2.5 5.5v0q-1 3 -3 5t-5 2zM185 217h-21q-3 0 -5 -2t-2 -5t2 -5.5t5 -2.5h21q3 0 5 2.5t2 5.5t-2 5t-5 2zM232 69h-4v35q0 10 -7.5 17t-17.5 7h-68v42h69q8 0 13.5 5.5t5.5 13.5v40q0 8 -5.5 13.5t-13.5 5.5h-152 q-7 0 -13 -5.5t-6 -13.5v-40q0 -8 5.5 -13.5t13.5 -5.5h69v-40l1 -2h-68q-11 0 -18 -7t-7 -17v-35h-5q-8 0 -13.5 -5.5t-5.5 -13.5v-23q0 -8 5.5 -13.5t13.5 -5.5h23q8 0 13.5 5.5t5.5 13.5v23q0 7 -5.5 13t-13.5 6h-5v35q0 4 3.5 7t7.5 3h68v-46h-5q-7 0 -13 -5.5t-6 -13.5 v-23q0 -7 5.5 -13t13.5 -6h23q8 0 13.5 5.5t5.5 13.5v23q0 8 -5.5 13.5t-13.5 5.5h-4v47h67q5 0 8 -3t3 -8v-35h-4q-8 0 -13.5 -5.5t-5.5 -13.5v-23q0 -8 5.5 -13.5t13.5 -5.5h23q8 0 13.5 5.5t5.5 13.5v23q0 8 -5.5 13.5t-13.5 5.5zM47 189v40q0 2 1.5 3.5t3.5 1.5h152 q2 0 3.5 -1.5t1.5 -3.5v-40q0 -2 -1.5 -3.5t-3.5 -1.5h-152q-2 0 -3.5 1.5t-1.5 3.5zM52 50v-23q0 -2 -1.5 -3.5t-3.5 -1.5h-23q-2 0 -3.5 1.5t-1.5 3.5v23q0 2 1.5 3.5t3.5 1.5h23q2 0 3.5 -1.5t1.5 -3.5zM144 50v-23q0 -2 -1.5 -3.5t-3.5 -1.5h-23q-2 0 -3.5 1.5t-1.5 3.5 v23q0 2 1.5 3.5t3.5 1.5h23q3 0 4 -1.5t1 -3.5zM237 27q0 -2 -1.5 -3.5t-3.5 -1.5h-23q-2 0 -3.5 1.5t-1.5 3.5v23q0 2 1.5 3.5t3.5 1.5h23q2 0 3.5 -1.5t1.5 -3.5v-23z" />
</svg>