<svg viewBox="0 0 256 256" xmlns="http://www.w3.org/2000/svg">
  <path transform="scale(1, -1) translate(0, -256)" fill="currentColor" d="M128 184q11 0 19.5 8.5t8.5 20t-8.5 19.5t-20 8t-19.5 -8t-8 -19.5t8 -20t20 -8.5zM128 227q6 0 10 -4t4 -10t-4.5 -10t-10 -4t-9.5 4t-4 10t4 10t10 4zM93 143q6 7 15.5 11t19.5 4t19 -4t16 -11q2 -2 5 -2t5 2t2.5 5t-1.5 5q-9 9 -21 14.5t-25 5.5t-25 -5.5t-21 -14.5 q-2 -2 -1.5 -5t2.5 -5t5 -2t5 2zM54 58q11 0 19.5 8t8.5 19.5t-8.5 20t-20 8.5t-19.5 -8.5t-8 -20t8 -19.5t20 -8zM54 100q6 0 10 -4t4 -10t-4.5 -10t-10 -4t-9.5 4t-4 10t4 10t10 4zM52 47q-12 0 -24 -5.5t-21 -14.5q-2 -2 -2 -5t2 -5t5 -2t5 2q7 7 16 11t19 4t19.5 -4 t16.5 -11q1 -2 4.5 -2t5.5 2t2 5t-2 5q-9 9 -21 14.5t-25 5.5zM202 58q11 0 19.5 8t8.5 19.5t-8.5 20t-20 8.5t-19.5 -8.5t-8 -20t8 -19.5t20 -8zM202 100q6 0 10 -4t4 -10t-4.5 -10t-10 -4t-9.5 4t-4 10t4 10t10 4zM249 27q-9 9 -20.5 14.5t-24.5 5.5t-25 -5.5t-21 -14.5 q-2 -2 -2 -5t2 -5t5 -2t5 2q7 7 16 11t20 4q20 0 35 -15q2 -2 5 -2t5 2t2 5t-2 5zM152 102l-17 8v18q0 3 -2 5t-5 2t-5.5 -2t-2.5 -5v-17l-17 -9q-2 -1 -3 -3.5t0 -5t4 -3.5t5 0l18 8l19 -8q1 -1 2 -1q5 0 6.5 3.5t0.5 6t-3 3.5z" />
</svg>