<svg viewBox="0 0 256 256" xmlns="http://www.w3.org/2000/svg">
  <path transform="scale(1, -1) translate(0, -256)" fill="currentColor" d="M202 172q-6 0 -14 -2v5q0 16 -8 29.5t-21.5 21.5t-30 8t-30 -8t-21.5 -21.5t-8 -29.5v-5q-8 2 -14 2q-21 0 -35 -14.5t-14 -34.5t14 -34t35 -14h67v-9q-11 -4 -14 -14h-38q-3 0 -5.5 -2.5t-2.5 -5.5t2.5 -5t5.5 -2h38q2 -6 7.5 -10.5t13 -4.5t13 4.5t7.5 10.5h38q3 0 5 2 t2 5t-2 5.5t-5 2.5h-38q-3 10 -14 14v9h67q20 0 34.5 14.5t14.5 34.5t-14.5 34t-34.5 14zM128 37q-3 0 -5.5 2t-2.5 5.5t2.5 6t5.5 2.5t5.5 -2.5t2.5 -6t-2.5 -5.5t-5.5 -2zM202 89h-148q-14 0 -24.5 10t-10.5 24.5t10 24.5t25 10q11 0 20 -6q2 -2 4.5 -1.5t4.5 1.5q4 3 2 8 q-3 7 -3 16q0 18 13.5 31t32.5 13t32.5 -13t13.5 -31q0 -9 -3 -16q-1 -2 -0.5 -4t2.5 -4q4 -3 9 0q9 6 20 6q14 0 24.5 -10t10.5 -24.5t-10.5 -24.5t-24.5 -10z" />
</svg>