<svg viewBox="0 0 1024 1024" xmlns="http://www.w3.org/2000/svg">
  <path transform="scale(1, -1) translate(0, -960)" fill="currentColor" d="M510 686q42 0 71.5 29.5t29.5 71.5t-29.5 71.5t-71.5 29.5t-71 -29.5t-29 -71.5t29 -71.5t71 -29.5v0zM510 856q29 0 49 -20t20 -49t-20 -49t-49 -20q-28 0 -48 20t-20 49t20 49t48 20v0zM363 517q29 31 68 48t81 17t81 -17t68 -48q2 -3 5.5 -4t5.5 -1t5.5 1t5.5 4 q5 5 5 11t-3 11q-34 36 -79 55.5t-94 19.5t-94 -19.5t-79 -55.5q-5 -5 -4 -11t6 -11t11 -5t11 5zM214 178q42 0 71.5 29t29.5 71t-29.5 71.5t-71.5 29.5t-71 -29.5t-29 -71.5t29 -71t71 -29v0zM214 347q29 0 49 -20t20 -49q0 -28 -20 -48t-49 -20q-28 0 -48 20t-20 48 q0 29 20 49t48 20v0zM210 110q-50 0 -95 -19.5t-78 -55.5q-5 -5 -4 -11t5 -11q5 -5 11.5 -4t11.5 5q29 32 68 49t81 17t81 -17t67 -49q3 -2 6 -3t6 -1q2 0 5 1t6 3q5 5 5 11.5t-4 11.5q-33 35 -78 54t-94 19v0zM806 178q42 0 71.5 29t29.5 71t-29.5 71.5t-71.5 29.5 t-71 -29.5t-29 -71.5t30 -71t70 -29zM806 347q29 0 49 -20t20 -49q0 -28 -20 -48t-49 -20q-28 0 -48 20t-20 48q0 29 20.5 49t47.5 20zM987 35q-33 36 -78 55.5t-95 19.5q-49 0 -94 -19.5t-78 -55.5q-5 -5 -4.5 -11t5.5 -11t11.5 -5t11.5 6q28 32 67 49t81 17t81 -17t68 -49 q3 -2 6 -3t5 -1q3 0 6 1t6 3q2 3 4 9.5t-3 11.5v0zM602 334l-76 34v80q0 7 -4 11.5t-12 4.5q-7 0 -11.5 -4.5t-4.5 -11.5v-77l-75 -37q-6 -2 -8 -8t0 -12q3 -6 9 -8.5t12 0.5l75 35l80 -37q1 -1 3 -1.5t4 -0.5q4 0 8 2.5t6 7.5q4 7 2 13.5t-8 8.5v0z" />
</svg>