<svg viewBox="0 0 256 256" xmlns="http://www.w3.org/2000/svg">
  <path transform="scale(1, -1) translate(0, -256)" fill="currentColor" d="M218 70h-1l-66 125q10 10 10 23.5t-9.5 23t-23 9.5t-23 -9.5t-9.5 -23t10 -23.5l-67 -125h-1q-14 0 -23.5 -9.5t-9.5 -23t9.5 -23t22 -9.5t21 7t11.5 17h118q3 -10 11.5 -17t19.5 -7q13 0 22.5 9.5t9.5 23t-9 23t-23 9.5zM128 237q8 0 13 -5.5t5 -13t-5 -13t-13 -5.5 t-13 5.5t-5 13t5 13t13 5.5zM38 19q-8 0 -13.5 5.5t-5.5 13t5.5 13t13 5.5t13 -5.5t5.5 -13t-5.5 -13t-12.5 -5.5zM186 43h-116q-2 8 -6.5 14t-10.5 9l64 122q6 -2 11 -2t11 2l64 -122q-6 -3 -10.5 -9t-6.5 -14zM218 19q-7 0 -12.5 5.5t-5.5 13t5.5 13t13 5.5t13 -5.5 t5.5 -13t-5.5 -13t-13.5 -5.5z" />
</svg>