<svg viewBox="0 0 256 256" xmlns="http://www.w3.org/2000/svg">
  <path transform="scale(1, -1) translate(0, -256)" fill="currentColor" d="M227 232h-197q-11 0 -18 -7t-7 -17v-121q0 -10 7 -17.5t18 -7.5h8v-31q0 -4 4 -7h3q2 0 4 1l52 37h125q11 0 18 7t7 17v122q0 10 -7 17t-17 7zM237 87q0 -4 -3 -7.5t-7 -3.5h-128q-2 0 -4 -1l-43 -31v25q0 3 -2 5t-5 2h-15q-5 0 -8 3.5t-3 7.5v121q0 4 3 7t8 3h197 q4 0 7 -3t3 -7v-121zM194 192q-10 0 -17 -7t-7 -17q0 -5 2 -8l-20 -15q-3 1 -7 1h-5l-12 11q3 6 3 11q0 10 -7 17t-17 7t-16.5 -7t-6.5 -17q0 -3 1 -6l-7 -5q-7 6 -16 6t-16 -7t-7 -16.5t7 -16.5t16.5 -7t16.5 6.5t7 16.5l-1 6l8 5q6 -5 15 -5q6 0 11 3l9 -9q-6 -7 -6 -16 t7 -16t17 -7t16.5 6.5t6.5 16.5q0 8 -4 14l16 13q5 -4 14 -4t16 6.5t7 16.5t-7 16.5t-17 6.5zM62 129q-3 0 -6 3t-3 7t3 6.5t6.5 2.5t6.5 -2.5t3 -6.5t-3 -7t-7 -3zM98 168q0 4 3 7t7 3t6.5 -3t2.5 -7t-3 -7t-6.5 -3t-6.5 3t-3 7zM145 113q-4 0 -6.5 3t-2.5 6.5t2.5 6.5 t6.5 3t7 -3t3 -6.5t-3 -6.5t-7 -3zM194 158q-4 0 -7 3t-3 7t3 7t7 3t6.5 -3t2.5 -7t-2.5 -7t-6.5 -3z" />
</svg>