<svg viewBox="0 0 1024 1024" xmlns="http://www.w3.org/2000/svg">
  <path transform="scale(1, -1) translate(0, -960)" fill="currentColor" d="M808 610q-19 0 -37 -4t-35 -11q1 10 2 19.5t1 20.5q0 46 -18 87q-18 40 -48.5 70.5t-72.5 47.5q-41 18 -88 18t-88 -18q-41 -17 -72 -47.5t-49 -70.5q-18 -41 -18 -87q0 -9 1 -19.5t2 -20.5q-17 7 -35 11t-37 4q-76 0 -130 -53.5t-54 -127.5q0 -75 54 -128t130 -53h280 v-58q-22 -4 -38 -20t-21 -39h-160q-7 0 -11.5 -4.5t-4.5 -11.5t4.5 -11.5t11.5 -4.5h161q6 -26 27 -43.5t49 -17.5q27 0 48 17.5t27 43.5h161q8 0 12 4.5t4 11.5t-4 11.5t-12 4.5h-163q-5 22 -20.5 38.5t-38.5 20.5v58h280q77 0 130.5 53t53.5 128q0 74 -54 127.5t-130 53.5 v0zM557 115v0v0v0v0q0 -19 -13.5 -32t-31.5 -13t-31.5 13t-13.5 32v0v0v0v0q0 18 13 31.5t32 13.5q18 0 31.5 -13.5t13.5 -31.5zM808 280h-592q-64 0 -108 44t-44 105t45 105t107 44q24 0 46.5 -7t41.5 -21q5 -3 9.5 -2.5t9.5 2.5q4 4 5.5 8.5t-0.5 9.5q-6 16 -9.5 32.5 t-3.5 33.5q0 39 16 73q15 35 41.5 61t62.5 41q35 15 75 15q81 0 138.5 -55.5t57.5 -134.5q0 -17 -3.5 -33.5t-9.5 -32.5q-3 -5 -1 -10t6 -8q3 -3 8.5 -3t10.5 3q19 14 41.5 21t46.5 7q63 0 107.5 -44t44.5 -105q2 -61 -42.5 -105t-106.5 -44z" />
</svg>