<svg viewBox="0 0 256 256" xmlns="http://www.w3.org/2000/svg">
  <path transform="scale(1, -1) translate(0, -256)" fill="currentColor" d="M128 251q-38 0 -65 -10q-30 -11 -30 -29v-110q0 -16 28 -27q25 -10 60 -11v-16q-11 -3 -14 -14h-38q-3 0 -5 -2t-2 -5t2 -5t5 -2h38q2 -7 8 -11t13.5 -4t13 4t8.5 11h38q3 0 5 2t2 5t-2 5t-5 2h-38q-4 11 -14 14v16q35 1 60 11q28 11 28 27v111q-1 18 -31 28 q-27 10 -65 10zM128 237q23 0 43 -4q17 -4 27.5 -9.5t10.5 -11t-10.5 -11t-27.5 -9.5q-20 -4 -43 -4t-43 4q-17 4 -27.5 9.5t-10.5 11t10.5 11t27.5 9.5q20 4 43 4zM128 19q-3 0 -5.5 2t-2.5 5.5t2 6t5.5 2.5t6 -2.5t2.5 -5.5t-2.5 -5.5t-5.5 -2.5zM128 78q-23 0 -42 4 q-18 4 -28.5 9.5t-10.5 10.5v15q13 -9 34.5 -13t46 -4t46.5 4.5t35 12.5v-15q0 -5 -10.5 -10.5t-28.5 -9.5q-19 -4 -42 -4zM128 114q-23 0 -43 4q-17 3 -27.5 9t-10.5 11v14q13 -8 34.5 -12.5t46 -4.5t46.5 4.5t35 12.5v-14q0 -5 -10.5 -11t-27.5 -9q-20 -4 -43 -4zM128 149 q-23 0 -43 4q-17 4 -27.5 9.5t-10.5 10.5v19q13 -9 34.5 -13.5t46 -4.5t46.5 4.5t35 13.5v-19q0 -5 -10.5 -10.5t-27.5 -9.5q-20 -4 -43 -4z" />
</svg>