<svg viewBox="0 0 1024 1024" xmlns="http://www.w3.org/2000/svg">
  <path transform="scale(1, -1) translate(0, -960)" fill="currentColor" d="M512 928q-67 0 -132 -9q-66 -9 -118.5 -27t-84.5 -44q-33 -27 -33 -61v-440q0 -32 30 -58t79.5 -44t113.5 -29q63 -10 129 -11v-83q-23 -5 -38.5 -21.5t-20.5 -38.5h-163q-8 0 -12 -4t-4 -12q0 -7 4 -11.5t12 -4.5h163q6 -26 26.5 -43t48.5 -17t48.5 17t26.5 43h163 q8 0 12 4.5t4 11.5q0 8 -4 12t-12 4h-163q-5 23 -21 39t-38 21v83q66 1 129 11q63 11 112.5 29t80.5 44q30 26 30 58v440q0 34 -33 61q-32 26 -84.5 44t-118.5 27q-65 9 -132 9zM512 896q74 0 136 -10q61 -10 105.5 -25.5t69.5 -34.5q25 -20 25 -39t-25 -38 q-24 -20 -68.5 -35.5t-106.5 -25.5t-136 -10t-136 10t-106.5 25.5t-68.5 35.5q-25 19 -25 38t25 39q25 19 69.5 34.5t105.5 25.5q62 10 136 10zM557 45v0v0v0v0q0 -19 -13.5 -32t-31.5 -13t-31.5 13.5t-13.5 31.5v0v0v0v0q0 18 13.5 31.5t31.5 13.5t31.5 -13t13.5 -32z M512 237q-72 0 -133 10q-61 9 -106 25t-70 36q-25 19 -25 39v82q22 -20 59 -35q36 -15 81 -25.5t95 -15.5q50 -6 101 -6q50 0 100 6q50 5 94.5 15.5t81.5 25.5q36 15 60 35v-82q-1 -20 -27 -39q-26 -20 -71 -36t-106 -25q-62 -10 -134 -10zM512 378q-74 0 -136 9 q-61 10 -105.5 25.5t-69.5 35.5q-25 19 -25 38v80q23 -19 59 -35q37 -15 81.5 -25.5t94.5 -15.5q51 -5 101 -5t100 5t95 15.5t81 25.5q37 16 60 35v-80q0 -19 -25 -38q-25 -20 -69.5 -35.5t-105.5 -25.5q-62 -9 -136 -9v0zM512 520q-74 0 -136 10q-61 10 -105.5 25.5 t-69.5 34.5q-25 20 -25 39v97q23 -19 59 -35q37 -15 81.5 -25.5t94.5 -15.5q51 -5 101 -5t100 5t95 15.5t81 25.5q37 16 60 35v-97q0 -19 -25 -39q-25 -19 -69.5 -34.5t-105.5 -25.5q-62 -10 -136 -10z" />
</svg>