<svg viewBox="0 0 1024 1024" xmlns="http://www.w3.org/2000/svg">
  <path transform="scale(1, -1) translate(0, -960)" fill="currentColor" d="M874 205q-4 0 -7.5 -0.5t-5.5 -1.5l-272 515q19 17 31 40.5t12 51.5q-1 49 -36 83.5t-84 34.5t-83.5 -34.5t-34.5 -83.5q0 -28 11 -51.5t32 -40.5l-272 -515q-4 0 -7.5 1t-5.5 1q-49 0 -83.5 -34.5t-34.5 -84.5q0 -49 33.5 -83.5t82.5 -34.5q44 0 76.5 27.5t40.5 68.5 h491q8 -41 41 -68.5t76 -27.5q49 0 84 34.5t35 83.5q0 50 -35.5 84.5t-84.5 34.5zM426 810q0 36 25 61t61 25t61 -25t25 -61t-25 -61.5t-61 -25.5t-61 25.5t-25 61.5zM464 702q11 -4 23 -7.5t25 -3.5t25 2.5t23 7.5l269 -507q-30 -12 -50 -39t-22 -61h-490q-2 34 -22 61 t-50 39l269 508v0zM150 0q-36 0 -61 25t-25 61t25 61.5t61 25.5t61.5 -25.5t25.5 -61.5t-25.5 -61t-61.5 -25zM874 0q-36 0 -61.5 25t-25.5 61t25.5 61.5t61.5 25.5t61 -25.5t25 -61.5t-25 -61t-61 -25z" />
</svg>