<svg viewBox="0 0 1024 1024" xmlns="http://www.w3.org/2000/svg">
  <path transform="scale(1, -1) translate(0, -960)" fill="currentColor" d="M958 270q16 42 25 86.5t9 91.5q0 58 -13 113q-14 54 -38 102.5t-59 90.5t-77 75l-1.5 1.5l-1.5 1.5q-60 44 -134 70t-156 26q-99 0 -186 -38q-88 -38 -153 -103t-103 -153q-38 -87 -38 -186q0 -60 14 -116t40 -105.5t63 -91.5q36 -43 81 -76l2 -1h2q58 -42 129 -66 t149 -24q76 0 145 22t126.5 62t102.5 96q44 55 71 121l1 1v0zM67 397l847 248q18 -36 29.5 -76.5t14.5 -82.5l-843 -246q-19 36 -31 75.5t-17 81.5v0zM898 675l-834 -245v9.5v8.5q0 38 6 74.5t18 71.5l702 204q33 -25 60 -56.5t48 -66.5zM512 896q68 0 130 -19.5t115 -54.5 l-655 -192q27 59 68 108q42 49 95 84t116 55q63 19 131 19zM133 211l827 243v-2.5v-3.5q0 -42 -7 -81.5t-22 -76.5l-686 -200q-34 24 -62.5 54.5t-49.5 66.5v0zM512 0q-64 0 -123 17t-111 49l637 187q-27 -57 -69 -103q-41 -47 -93 -80t-113 -52q-61 -18 -128 -18v0z" />
</svg>