<svg viewBox="0 0 256 256" xmlns="http://www.w3.org/2000/svg">
  <path transform="scale(1, -1) translate(0, -256)" fill="currentColor" d="M243 84q8 21 8 44q0 30 -14 57v1q-12 23 -33 39l-2 1q-15 12 -34.5 18.5t-39.5 6.5q-39 0 -71 -22.5t-45 -58.5v0q-7 -21 -7 -42l1 -10q2 -27 15 -50.5t35 -39.5h1q31 -23 70 -23t70 21.5t45 55.5zM20 113l207 61q7 -15 9 -34l-206 -60q-8 16 -10 33zM220 186l-201 -58v0 q0 17 6 34l172 50q13 -10 23 -26zM128 237q29 0 54 -15l-150 -44q13 27 39 43t57 16zM38 67l199 58q-1 -19 -7 -34l-168 -49q-14 10 -24 25zM128 19q-27 0 -51 12l145 43q-14 -25 -39 -40t-55 -15z" />
</svg>