<svg viewBox="0 0 1024 1024" xmlns="http://www.w3.org/2000/svg">
  <path transform="scale(1, -1) translate(0, -960)" fill="currentColor" d="M976 837q-7 0 -11.5 -4.5t-4.5 -11.5v-674q0 -56 -39.5 -95t-94.5 -39h-645q-48 -1 -82.5 33t-34.5 82v698q0 25 17.5 42t41.5 17h613q25 0 42 -17.5t17 -41.5v-647q0 -7 4.5 -11.5t11.5 -4.5t11.5 4.5t4.5 11.5v647q0 38 -27 64.5t-64 26.5h-613q-37 0 -64 -27t-27 -64 v-698q0 -61 44 -105t105 -44h645q69 0 117.5 49t48.5 118v675q0 6 -4.5 11t-11.5 5v0zM686 766h-492q-8 0 -12 -4t-4 -12q0 -7 4 -11.5t12 -4.5h492q8 0 12 4.5t4 11.5q0 8 -4 12t-12 4zM194 178h492q8 0 12 4t4 12q0 7 -4 11.5t-12 4.5h-492q-8 0 -12 -4.5t-4 -11.5 q0 -8 4 -12t12 -4v0zM416 362q7 0 11.5 4t4.5 12v230q0 7 -4.5 11.5t-11.5 4.5h-230q-8 0 -12 -4.5t-4 -11.5v-230q0 -8 4 -12t12 -4h230zM202 592h198v-198h-198v198zM563 565h112q7 0 11.5 4.5t4.5 11.5t-4.5 11.5t-11.5 4.5h-112q-7 0 -11.5 -4.5t-4.5 -11.5t5 -11.5 t11 -4.5zM563 397h112q7 0 11.5 4.5t4.5 11.5t-4.5 11.5t-11.5 4.5h-112q-7 0 -11.5 -4.5t-4.5 -11.5t5 -11.5t11 -4.5z" />
</svg>