<svg viewBox="0 0 256 256" xmlns="http://www.w3.org/2000/svg">
  <path transform="scale(1, -1) translate(0, -256)" fill="currentColor" d="M244 228q-3 0 -5 -2t-2 -5v-169q0 -12 -9 -21t-22 -9h-161q-11 0 -18.5 7.5t-7.5 18.5v174q0 5 3.5 8.5t8.5 3.5h153q5 0 8.5 -3.5t3.5 -8.5v-161q0 -3 2 -5t5 -2t5 2t2 5v161q0 11 -7.5 18.5t-18.5 7.5h-153q-11 0 -18.5 -7.5t-7.5 -18.5v-174q0 -16 11.5 -28t28.5 -12 h161q19 0 32 13t13 32v168q0 3 -2 5t-5 2zM172 210h-124q-3 0 -5 -2t-2 -5t2 -5t5 -2h124q3 0 5 2t2 5t-2 5t-5 2zM48 57h124q3 0 5 2t2 5t-2 5.5t-5 2.5h-124q-3 0 -5 -2.5t-2 -5.5t2 -5t5 -2zM104 103q3 0 5 2t2 5v58q0 3 -2 5t-5 2h-58q-3 0 -5 -2t-2 -5v-58q0 -3 2 -5 t5 -2h58zM53 161h44v-44h-44v44zM141 154h28q3 0 5 2.5t2 5.5t-2 5t-5 2h-28q-3 0 -5 -2t-2 -5t2 -5.5t5 -2.5zM141 112h28q3 0 5 2.5t2 5.5t-2 5t-5 2h-28q-3 0 -5 -2t-2 -5t2 -5.5t5 -2.5z" />
</svg>