<svg viewBox="0 0 256 256" xmlns="http://www.w3.org/2000/svg">
  <path transform="scale(1, -1) translate(0, -256)" fill="currentColor" d="M231 251h-33q-8 0 -13.5 -5.5t-5.5 -13.5v-92l-144 98q-4 3 -9 3.5t-10 -2t-7.5 -7t-2.5 -10.5v-189q0 -5 2.5 -9.5t7 -6.5t9.5 -2t10 3l144 98v-92q0 -8 5.5 -13.5t13.5 -5.5h33q8 0 13.5 5.5t5.5 13.5v208q0 8 -5.5 13.5t-13.5 5.5zM28 30q-3 -2 -5.5 -1t-2.5 4v189 q0 3 3 4q0 1 2 1h2l146 -99zM236 24q0 -2 -1.5 -3.5t-3.5 -1.5h-33q-2 0 -3.5 1.5t-1.5 3.5v208q0 2 1.5 3.5t3.5 1.5h33q2 0 3.5 -1.5t1.5 -3.5v-208z" />
</svg>