<svg viewBox="0 0 1024 1024" xmlns="http://www.w3.org/2000/svg">
  <path transform="scale(1, -1) translate(0, -960)" fill="currentColor" d="M424 117h-138q-7 0 -11.5 -4.5t-4.5 -11.5t4.5 -11.5t11.5 -4.5h138q7 0 11.5 4.5t4.5 11.5t-4.5 11.5t-11.5 4.5zM342 779h26q7 0 11.5 4.5t4.5 11.5t-4.5 11.5t-11.5 4.5h-26q-7 0 -11.5 -4.5t-4.5 -11.5t4.5 -11.5t11.5 -4.5zM483 442q-59 34 -127.5 35.5 t-128.5 -29.5q-6 -4 -8 -10t2 -11q3 -6 9.5 -8t11.5 2q52 27 113 26t112 -33q3 -1 4.5 -1h3.5q4 0 8 2t7 6q3 5 1 11t-8 10zM272 333q-6 -4 -7 -10.5t2 -12.5q4 -6 10.5 -7t12.5 3q30 19 65 17t63 -24q2 -1 4.5 -2t4.5 -1q4 0 7.5 1.5t5.5 4.5q4 5 3.5 12t-6.5 11 q-35 27 -81 29.5t-84 -21.5zM530 557q-41 21 -85 32t-89 12t-89 -9q-45 -9 -86 -29q-6 -2 -8.5 -8.5t0.5 -12.5q2 -6 8.5 -8t12.5 0q37 18 78 27t82 8.5t82 -10.5q40 -10 78 -29q1 -2 3 -2h5q4 0 8 2t6 6q4 5 2 11t-8 10zM891 819h-251v45q0 26 -19 45t-45 19h-443 q-27 0 -45.5 -19t-18.5 -45v-832q0 -26 18.5 -45t45.5 -19h443q26 0 45 19t19 45v45h250q26 0 45 18.5t19 45.5v614q1 27 -17.5 45.5t-45.5 18.5v0zM640 670h170v-91h-170v91zM608 32q0 -13 -9.5 -22.5t-22.5 -9.5h-443q-13 0 -22.5 9.5t-9.5 22.5v832q0 13 9.5 22.5 t22.5 9.5h443q13 0 22.5 -9.5t9.5 -22.5v-832zM923 141q0 -13 -9.5 -22.5t-22.5 -9.5h-251v437h186q7 0 11.5 4t4.5 12v123q0 7 -4.5 11.5t-11.5 4.5h-186v85h250q13 0 22.5 -9.5t9.5 -22.5v-613h1zM818 421h-23q-7 0 -11.5 -4.5t-4.5 -11.5t4.5 -11.5t11.5 -4.5h23 q7 0 11.5 4.5t4.5 11.5t-4.5 11.5t-11.5 4.5zM818 264h-23q-7 0 -11.5 -4.5t-4.5 -11.5t4.5 -11.5t11.5 -4.5h23q7 0 11.5 4.5t4.5 11.5t-4.5 11.5t-11.5 4.5z" />
</svg>