<svg viewBox="0 0 256 256" xmlns="http://www.w3.org/2000/svg">
  <path transform="scale(1, -1) translate(0, -256)" fill="currentColor" d="M106 48h-34q-3 0 -5.5 -2t-2.5 -5t2.5 -5t5.5 -2h34q3 0 5 2t2 5t-2 5t-5 2zM86 208h6q3 0 5 2t2 5t-2 5t-5 2h-6q-3 0 -5.5 -2t-2.5 -5t2.5 -5t5.5 -2zM122 129q-15 9 -33 9.5t-34 -8.5q-2 -1 -3 -3.5t0.5 -5.5t4 -4t5.5 1q12 7 26.5 6.5t27.5 -7.5q1 -1 4 -1t4.5 3 t1 5.5t-3.5 4.5zM111 99q-9 8 -21.5 8.5t-23.5 -5.5q-2 -2 -2.5 -5t1 -5t4.5 -3t5 1q7 4 14.5 3.5t13.5 -5.5q2 -1 5 -1t5 2.5t2 5t-3 4.5zM134 158q-21 11 -45 11.5t-45 -9.5q-3 -2 -3.5 -4.5t0.5 -5t4 -3.5t5 0q18 9 38.5 8.5t38.5 -9.5l3 -1q4 0 6 3t1 6t-3 4zM223 224 h-60v8q0 8 -5.5 13.5t-13.5 5.5h-111q-8 0 -13.5 -5.5t-5.5 -13.5v-208q0 -8 6 -13.5t14 -5.5h110q8 0 13.5 5.5t5.5 13.5v8h60q8 0 13.5 6t5.5 14v153q0 8 -5.5 13.5t-13.5 5.5zM163 180h37v-16h-37v16zM149 24q0 -2 -1.5 -3.5t-3.5 -1.5h-111q-2 0 -3.5 1.5t-1.5 3.5v208 q0 2 1.5 3.5t3.5 1.5h111q2 0 3.5 -1.5t1.5 -3.5v-208zM228 51q0 -2 -2 -3.5t-4 -1.5h-59v104h44q3 0 5 2t2 5v31q0 3 -2 5t-5 2h-44v15h60q2 0 3.5 -1.5t1.5 -3.5v-154zM204 124h-5q-3 0 -5 -2t-2 -5t2 -5t5 -2h5q3 0 5.5 2t2.5 5t-2.5 5t-5.5 2zM204 85h-5q-3 0 -5 -2 t-2 -5t2 -5t5 -2h5q3 0 5.5 2t2.5 5t-2.5 5t-5.5 2z" />
</svg>