<svg viewBox="0 0 256 256" xmlns="http://www.w3.org/2000/svg">
  <path transform="scale(1, -1) translate(0, -256)" fill="currentColor" d="M177 30q-12 -6 -25 -8q-29 -7 -56 1.5t-46.5 29t-26.5 49.5q-3 8 -3 21q-2 30 12.5 56.5t40.5 42t55 15.5v0q-21 -24 -26 -56q0 -3 1.5 -5t4.5 -2.5t5.5 1t2.5 4.5q5 30 27 53q5 5 2.5 11.5t-9.5 7.5q-38 2 -71 -18q-29 -17 -45 -47t-14 -64q0 -12 3 -23 q7 -28 24.5 -49.5t42 -33t52.5 -11.5q14 0 27 3q15 3 28 9q2 1 3 4t0 5.5t-4 3.5t-5 0zM211 168q5 0 9 -3.5t4 -9t-4 -9.5t-9 -4h-113q-3 0 -5.5 -2t-2.5 -5t2.5 -5t5.5 -2h113q11 0 19 8t8 19t-8 19t-19 8q-3 0 -5 -2.5t-2 -5.5t2 -4.5t5 -1.5zM120 109q-3 0 -5 -2t-2 -5 t2 -5t5 -2h78q3 0 5 2t2 5t-2 5t-5 2h-78zM224 75h-113q-3 0 -5 -2t-2 -5t2 -5t5 -2h113q5 0 9 -4t4 -9t-4 -9q-2 -2 -2.5 -5t1.5 -5.5t5 -2.5t5 2q9 9 9 20t-8 19t-19 8z" />
</svg>