<svg viewBox="0 0 1024 1024" xmlns="http://www.w3.org/2000/svg">
  <path transform="scale(1, -1) translate(0, -960)" fill="currentColor" d="M566 891q-20 7 -40.5 12t-42.5 9h-3h-3v0q-13 0 -25 -8t-17 -21t-1.5 -25.5t12.5 -22.5q44 -39 73 -88q29 -48 43 -101.5t13 -109.5t-18 -110q-20 -62 -57 -114q-37 -51 -87 -88.5t-111 -58.5q-60 -22 -126 -24q-14 0 -26 -9t-16 -23q-3 -15 2.5 -28t17.5 -22 q30 -18 60 -32t60 -22q33 -11 68.5 -16t71.5 -5q80 0 154 25t135 70.5t105 108.5q45 63 66 138q25 89 14 178q-11 88 -52.5 164.5t-110.5 134.5q-69 59 -159 88v0zM843 334q-21 -72 -63 -131q-43 -59 -100 -100.5t-125 -63.5q-68 -23 -141 -23q-32 0 -65 5t-66 14 q-30 10 -58.5 23t-53.5 28q-7 5 -5 14t12 9q69 2 133 25q65 22 119 62t95 95q41 56 62 123q19 62 20 123q0 61 -16 118.5t-47 109.5q-32 51 -77 93q-6 6 -2.5 14t10.5 8h1h1q19 -4 39 -8t39 -10q84 -28 148 -83q65 -55 103.5 -126t49.5 -154q11 -82 -13 -165v0z" />
</svg>