<svg viewBox="0 0 256 256" xmlns="http://www.w3.org/2000/svg">
  <path transform="scale(1, -1) translate(0, -256)" fill="currentColor" d="M228 198q-4 4 -10 2q-10 -5 -21 -2t-17 12q-4 7 -4.5 14.5t2.5 14.5q2 6 -1 9q-2 2 -4.5 3t-4.5 0q-14 -4 -24 -16q-8 -9 -10 -23q-1 -3 -1 -10q0 -3 2 -5t5 -2t4.5 2t1.5 6t1 7q2 9 8 16q3 4 7 6q-2 -16 6 -30q7 -11 19 -16t25 -4q-5 -6 -10.5 -9.5t-11.5 -4.5 q-2 -1 -3.5 -3.5t-1 -5t2.5 -4t4 -1.5h2q7 2 14.5 7t13 12t8.5 16q2 5 -2 9zM165 146q-6 12 -17.5 19.5t-25 7.5t-25.5 -7.5t-17 -20.5q-14 3 -28 -4q-10 -5 -17.5 -14t-9 -19.5t1.5 -20.5t9.5 -17.5t15.5 -11.5t20 -4q3 0 5 2t2 5t-2 5t-5 2q-15 0 -25 11t-7 26q1 8 6 14.5 t12 9.5q10 4 20 3q5 -1 9 1t6 6q4 9 12 14.5t17.5 5.5t17.5 -5t12 -13t12 -9q13 -2 21 -12t7 -23q-1 -11 -9 -19t-19 -10q-3 0 -5 -2.5t-1.5 -5.5t3 -4.5t5.5 -1.5q16 2 27.5 13.5t12.5 27.5q1 19 -11 33.5t-30 17.5zM126 55h-9l14 19q2 2 1.5 5t-3 4.5t-5.5 1t-4 -2.5 l-16 -22q-3 -3 -3 -6.5t2 -6.5q3 -6 11 -6h8l-17 -25q-2 -2 -1.5 -5t3 -4.5t5 -1.5t4.5 3l20 28q4 6 0 12.5t-10 6.5z" />
</svg>