<svg viewBox="0 0 1024 1024" xmlns="http://www.w3.org/2000/svg">
  <path transform="scale(1, -1) translate(0, -960)" fill="currentColor" d="M902 720q-4 4 -11 5t-13 -2q-45 -21 -93 -7.5t-75 55.5q-18 29 -20 62t12 65q3 6 2 12.5t-5 11.5q-3 4 -9.5 6t-12.5 0q-27 -8 -48.5 -22.5t-39.5 -35.5q-16 -18 -26.5 -40t-15.5 -46q-2 -10 -2.5 -19.5t-0.5 -18.5q0 -8 4.5 -12t11.5 -4t11.5 5t4.5 11q0 8 0.5 15.5 t2.5 16.5q4 20 13 38t21 34q11 13 24 22.5t29 17.5q-11 -34 -5.5 -69.5t24.5 -66.5q30 -48 83 -66t106 -2q-10 -20 -24.5 -37.5t-33.5 -29.5q-11 -7 -22.5 -12t-23.5 -7q-6 -1 -10 -7t-2 -12t6 -9.5t10 -3.5h3h1q14 4 28 10t28 14q28 18 49 46t31 61q-2 5 -4.5 11t-7.5 10v0 zM658 507q-4 0 -6.5 2t-3.5 5q-20 46 -63.5 74t-94.5 28q-53 0 -96.5 -29t-63.5 -78q-2 -3 -4 -4.5t-6 -0.5q-26 6 -54 2.5t-53 -15.5q-40 -18 -66 -52.5t-32 -76.5q-6 -39 4.5 -75t35.5 -65q25 -28 59 -44t72 -16q8 0 12 4t4 12q0 7 -4 11.5t-12 4.5q-31 0 -58.5 12.5 t-48.5 36.5q-20 24 -28.5 53.5t-3.5 60.5q5 35 27 63t53 42q22 10 44.5 12.5t43.5 -2.5q15 -2 27.5 4.5t17.5 19.5q17 40 52.5 63t77.5 23t76.5 -22t51.5 -61q4 -11 13.5 -17.5t21.5 -7.5q57 -6 94 -51t31 -103q-5 -48 -40 -83t-85 -42q-6 -1 -10 -6t-3 -11t6.5 -10t11.5 -3 q61 9 103 52t47 101q8 71 -36 126t-114 63v0zM502 142h-49q-1 0 -2 1l-1 1q0 1 -1 2.5t1 2.5l64 88q3 5 2 12t-6 10q-4 4 -11 3t-11 -6l-64 -88q-6 -8 -7 -18t4 -19t13.5 -14t18.5 -5h49q2 0 3 -1l1 -1q0 -1 0.5 -2t-0.5 -2l-77 -112q-4 -6 -2.5 -12.5t7.5 -10.5 q2 -1 4.5 -2t4.5 -1q4 0 7.5 2t5.5 4l77 112q6 9 6 19t-5 18q-4 9 -13 14t-19 5v0z" />
</svg>