<svg viewBox="0 0 256 256" xmlns="http://www.w3.org/2000/svg">
  <path transform="scale(1, -1) translate(0, -256)" fill="currentColor" d="M119 236v0h2q12 -3 18 -4q27 -9 46 -30t26 -48t-1 -54q-6 -24 -22 -42t-38 -28t-46 -10q-17 0 -32.5 5t-28.5 13q-2 1 -1.5 3t2.5 2q35 1 63.5 22t39.5 55q9 30 1 59.5t-31 50.5q-2 2 -1 4t3 2zM119 250q-6 0 -10 -3t-6 -8t-1 -10t5 -9q20 -18 27 -44t-1 -52 q-9 -29 -33.5 -47.5t-55.5 -19.5q-6 0 -10 -3.5t-6 -9t0.5 -10.5t7.5 -8q15 -10 31 -14q18 -6 37 -6q27 0 52 11.5t43 32t25 46.5q9 31 1.5 61.5t-29 53.5t-52.5 34q-13 4 -22 5h-3z" />
</svg>