<svg viewBox="0 0 1024 1024" xmlns="http://www.w3.org/2000/svg">
  <path transform="scale(1, -1) translate(0, -960)" fill="currentColor" d="M712 45q-24 -12 -49 -20.5t-52 -14.5q-90 -20 -176 -4q-86 15 -157.5 60t-123.5 115t-74 160q-5 21 -8.5 43t-4.5 43q-3 61 11 120t42 111.5t70 96.5q41 44 93 75q60 36 125.5 52.5t133.5 11.5q-48 -48 -78 -108.5t-40 -127.5q-1 -6 3 -12t10 -6q6 -1 11.5 3t5.5 10 q9 61 37.5 117.5t71.5 99.5q7 8 9.5 17t-1.5 17q-3 8 -11 14t-18 7q-73 5 -143 -13t-133 -56q-56 -34 -101 -81q-44 -47 -74 -103.5t-45 -119.5q-14 -63 -11 -128q1 -24 5 -47t10 -46q19 -81 64 -148q44 -67 105.5 -115t136.5 -74t156 -26q26 0 52.5 2.5t53.5 8.5 q28 6 55 15.5t53 23.5q6 2 8.5 8t-0.5 12t-9.5 8t-12.5 -1zM843 619q27 0 45 -18.5t18 -43.5t-19 -44t-44 -19h-453q-7 0 -11.5 -4t-4.5 -12q0 -7 4.5 -11.5t11.5 -4.5h453q40 0 67.5 28t27.5 67t-28 66.5t-67 27.5q-7 0 -11.5 -4.5t-4.5 -11.5t4.5 -11.5t11.5 -4.5z M482 360q-8 0 -12 -4.5t-4 -11.5t4 -11.5t12 -4.5h310q7 0 11.5 4.5t4.5 11.5t-4.5 11.5t-11.5 4.5h-310zM896 226h-453q-7 0 -11.5 -4.5t-4.5 -11.5q0 -8 4.5 -12t11.5 -4h453q26 0 44 -19t18 -44q0 -13 -5.5 -25t-14.5 -21q-5 -5 -5.5 -11.5t3.5 -11.5q2 -2 5.5 -3t5.5 -1 q3 0 6 1t5 3q15 14 23 32t8 39q1 37 -27 65t-66 28v0z" />
</svg>