<svg viewBox="0 0 1024 1024" xmlns="http://www.w3.org/2000/svg">
  <path transform="scale(1, -1) translate(0, -960)" fill="currentColor" d="M171 874q-3 6 -9.5 8t-11.5 -2q-6 -2 -8 -8.5t0 -12.5l90 -165h-96q-43 0 -73.5 -30t-30.5 -74v-283q0 -43 30.5 -73.5t73.5 -30.5h363l98 -181q2 -3 5.5 -5.5t8.5 -2.5q3 0 4.5 0.5t3.5 1.5q6 4 8 10t-1 12l-455 836v0zM136 234q-30 0 -51 21t-21 51v284q0 30 21 51 t51 21h114l232 -427h-346v-1zM928 555h-69v35q0 44 -30.5 74t-73.5 30h-309q-7 0 -11.5 -4t-4.5 -12q0 -7 4.5 -11.5t11.5 -4.5h311q30 0 51 -21t21 -51v-283q0 -30 -21 -51t-51 -21h-91q-8 0 -12 -4.5t-4 -11.5t4 -11.5t12 -4.5h91q43 0 73.5 30.5t30.5 73.5v35h67 q26 0 45 19t19 45v85q0 27 -19 45.5t-45 18.5zM960 405q0 -13 -9.5 -22.5t-22.5 -9.5h-69v149h69q13 0 22.5 -9.5t9.5 -22.5v-85z" />
</svg>