<svg viewBox="0 0 256 256" xmlns="http://www.w3.org/2000/svg">
  <path transform="scale(1, -1) translate(0, -256)" fill="currentColor" d="M46 236q-2 2 -5 3t-5.5 -0.5t-3 -4t0.5 -5.5l20 -37h-19q-12 0 -20.5 -8.5t-8.5 -20.5v-71q0 -12 8.5 -20.5t20.5 -8.5h89l23 -43q2 -4 6 -4q2 0 4 1.5t3 4t-1 5.5zM34 78q-6 0 -10.5 4.5t-4.5 10.5v71q0 6 4.5 10.5t10.5 4.5h27l55 -101h-82zM232 158h-14v5 q0 12 -8.5 20.5t-20.5 8.5h-77q-3 0 -5.5 -2t-2.5 -5t2.5 -5t5.5 -2h77q6 0 10.5 -4.5t4.5 -10.5v-71q0 -6 -4.5 -10.5t-10.5 -4.5h-23q-3 0 -5 -2t-2 -5t2 -5.5t5 -2.5h23q12 0 20.5 9t8.5 21v5h14q8 0 13.5 5.5t5.5 13.5v22q0 8 -5.5 14t-13.5 6zM237 117q0 -2 -1.5 -3.5 t-3.5 -1.5h-14v31h14q2 0 3.5 -1.5t1.5 -3.5v-21z" />
</svg>