<svg viewBox="0 0 1024 1024" xmlns="http://www.w3.org/2000/svg">
  <path transform="scale(1, -1) translate(0, -960)" fill="currentColor" d="M512 928q-99 0 -186 -38q-88 -38 -153 -103t-103 -153q-38 -87 -38 -186t38 -186q38 -88 103 -153t153 -103q87 -38 186 -38t186 38q88 38 153 103t103 153q38 87 38 186t-38 186q-38 88 -103 153t-153 103q-87 38 -186 38zM64 448q0 44 8 85q8 42 23.5 80t37.5 73 q22 34 49 64l351 -350h-331q-8 0 -12 -4.5t-4 -11.5t4 -11.5t12 -4.5h363l249 -250q-30 -27 -64 -49q-35 -22 -73 -37.5t-80 -23.5q-41 -8 -85 -8q-92 0 -174 35q-81 36 -142 97t-97 142q-35 82 -35 174zM837 141l-227 227h89q7 0 11.5 4.5t4.5 11.5t-4.5 11.5t-11.5 4.5 h-121l-373 373q30 29 65 51q35 23 74 39t81 25q43 8 87 8q92 0 174 -35q81 -36 142 -96.5t97 -142.5q35 -82 35 -174q0 -44 -8 -87q-9 -42 -25 -81t-39 -74q-22 -35 -51 -65v0zM774 710q-7 0 -11.5 -4t-4.5 -12v-89q0 -1 -7 -8t-29 -10q-16 -2 -26 -13t-11 -25 q-1 -49 -0.5 -62t1.5 -15q2 -6 6 -9.5t10 -3.5h2h2q6 1 10 7t2 12q0 2 -0.5 14t0.5 55q0 4 2.5 6t5.5 2q35 4 48.5 17.5t15.5 22.5q2 3 2 5.5v5.5v88q-1 6 -6.5 11t-11.5 5v0z" />
</svg>