<svg viewBox="0 0 256 256" xmlns="http://www.w3.org/2000/svg">
  <path transform="scale(1, -1) translate(0, -256)" fill="currentColor" d="M128 251q-33 0 -61.5 -16.5t-45 -45t-16.5 -61.5t16.5 -61.5t45 -45t61.5 -16.5t61.5 16.5t45 45t16.5 61.5t-16.5 61.5t-45 45t-61.5 16.5zM19 128q0 20 7 38t20 33l80 -80h-76q-3 0 -5 -2t-2 -5t2 -5.5t5 -2.5h90l59 -59q-15 -12 -33 -19t-38 -7q-29 0 -54 14.5 t-40 39.5t-15 55zM209 55l-49 50h15q3 0 5 2t2 5t-2 5t-5 2h-29l-91 90q15 13 33.5 20.5t39.5 7.5q30 0 55 -14.5t39.5 -40t14.5 -54.5q0 -20 -7.5 -39t-20.5 -34zM194 196q-3 0 -5.5 -2t-2.5 -5v-21q-1 -2 -6.5 -2.5t-8.5 -4.5t-3 -9q0 -17 0.5 -19.5t2.5 -4t4 -1.5h2 q3 0 4.5 2.5t0.5 5.5v0v16q14 2 18 12v4v22q0 3 -1.5 5t-4.5 2z" />
</svg>