<svg viewBox="0 0 256 256" xmlns="http://www.w3.org/2000/svg">
  <path transform="scale(1, -1) translate(0, -256)" fill="currentColor" d="M60 155q2 -1 2 -2v-35q0 -1 -1 -1h-1l-13 7q-2 1 -2 3v16q0 1 -1 2l-6 3q-1 1 -2 0l-6 -3q-1 -1 -1 -2v-16q0 -2 -2 -3l-13 -7h-1.5t-0.5 1v35q0 1 1 2l24 13h1zM166 134q1 0 1 1v8l-1 1l-7 4h-1l-8 -4v-1v-8v-1l8 -4h1zM167 200h2l13 -8q1 0 1 -2v-64q0 -1 -1 -2 l-22 -13q-2 -1 -3 0l-22 13q-2 1 -2 2v26q0 1 2 2l22 13q1 1 3 0l5 -3h1l1 1v34v1zM244 146q0 -2 -1 -2l-14 -8h-1t-1 1v6v2l-7 4h-2l-7 -4v-2v-8v-1l23 -13v-1v-1l-14 -7q-1 -1 -2 0l-22 12q-2 1 -2 3v25q0 2 2 2l22 13q1 1 3 0l22 -13q1 0 1 -2v-6zM127 58q-2 0 -3 1l-7 4 q-1 0 0 1l3 1l6 -3h1l21 12v0v25v0l-21 12h-1l-21 -12v0v-25l6 -3q2 -2 3.5 -1t1.5 3v24h4v-24q0 -7 -6 -7q-2 0 -5 1l-5 4q-3 1 -3 3v25q0 2 2 3l21 13q3 1 5 0l21 -13q2 -1 2 -3v-25q0 -2 -2 -3l-21 -12q-1 -1 -2 -1v0zM133 75q-11 0 -11 7v1h3q1 0 1 -1.5t1.5 -2.5 t5.5 -1q6 0 6 2.5t-1 3t-6 1t-7 2t-2 4.5t2.5 5t6.5 2q10 0 11 -8v0h-4l-0.5 1t-1.5 2t-5.5 1t-4.5 -2t1 -3l6 -1q5 0 7.5 -1.5t2.5 -4.5q0 -7 -11 -7v0zM159 100v0q1 0 1 0.5t-1 0.5v0v-1zM158 102h1q2 0 2 -1t-1 -1v0q1 0 1 -1v-1h-1v1h-1v-1h-1v4zM156 100q0 -1 1 -2 t2.5 -1t2.5 0.5t1 2t-1 2.5t-2.5 1t-2.5 -1t-1 -2v0zM163 100q0 -2 -1 -3t-2.5 -1t-3 1t-1.5 3t1.5 3t3 1t2.5 -1t1 -3v0zM219 145v0l5 -3v-5l-5 -3l-5 3l1 5zM100 167h-3l-23 -14q-1 0 -1 -2v-26q0 -2 1 -3l23 -13q1 -1 3 0l22 13q2 1 2 3v26q0 2 -2 2z" />
</svg>