<svg viewBox="0 0 1024 1024" xmlns="http://www.w3.org/2000/svg">
  <path transform="scale(1, -1) translate(0, -960)" fill="currentColor" d="M507 -48q-9 0 -19.5 2t-18.5 9l-122 72q-13 9 -10 11.5t9 4.5q18 5 26.5 10t27.5 14q1 1 4 1t6 -2l92 -56q2 -2 5 -2t7 2l363 209q1 1 3.5 4t2.5 6v421q0 3 -1.5 5t-4.5 4l-365 207q-1 1 -4.5 1t-6.5 -1l-362 -210q-1 -1 -3.5 -4t-2.5 -6v-417q0 -4 1.5 -5.5l4.5 -4.5 l99 -56q41 -20 64.5 -3.5t23.5 42.5v409q0 5 3.5 8t8.5 3h46q5 0 8 -3t3 -8v-413q0 -54 -27.5 -83t-77.5 -29q-17 0 -32.5 3t-51.5 20l-94 53q-17 9 -27.5 27t-10.5 40v421q0 20 9.5 37.5t28.5 29.5l360 209q17 10 38.5 10t38.5 -10l363 -211q17 -9 27.5 -27t10.5 -40v-418 q0 -20 -9.5 -37.5t-28.5 -29.5l-362 -208q-12 -7 -22 -9t-21 -2v0zM800 365q0 59 -40 81t-125 34t-104 20.5t-19 29.5q0 16 15 33.5t78 17.5q55 0 79 -14.5t33 -52.5q1 -4 3.5 -5.5t7.5 -1.5h46q2 0 4.5 1l2.5 1l0.5 2.5t0.5 3.5q-4 66 -49 96.5t-130 30.5q-78 0 -122 -31 t-44 -86q0 -59 43.5 -81t116.5 -30q89 -8 108.5 -21t19.5 -30q0 -30 -25.5 -43t-81.5 -13q-72 0 -95.5 18t-28.5 54q-1 4 -3.5 7t-7.5 3h-43q-5 0 -8 -3.5t-3 -7.5q0 -46 35.5 -90.5t154.5 -44.5q87 -2 134 30t47 92z" />
</svg>