<svg viewBox="0 0 1024 1024" xmlns="http://www.w3.org/2000/svg">
  <path transform="scale(1, -1) translate(0, -960)" fill="currentColor" d="M242 555q2 -1 3.5 -3.5t1.5 -5.5v-138q0 -1 -0.5 -2.5t-2.5 -1.5q-1 -1 -2.5 -1t-2.5 1l-53 30q-2 1 -3.5 3.5t-1.5 5.5v65q0 2 -1.5 4.5t-4.5 4.5l-22 13q-1 1 -2.5 1h-2.5h-3.5t-2.5 -1l-22 -13q-3 -2 -4.5 -4.5t-1.5 -4.5v-65q0 -3 -1 -5.5t-4 -3.5l-53 -30 q-1 -1 -2.5 -1t-2.5 1q-1 0 -2 1.5t-1 2.5v138q0 3 1.5 5.5t3.5 3.5l89 51q1 1 2.5 1.5t2.5 0.5h1q1 0 2.5 -0.5t2.5 -1.5l89 -51v0zM665 472q1 0 1 1v1v36v1t-1 1l-30 18h-2h-1l-31 -18l-0.5 -1l-0.5 -1v-36l0.5 -1l0.5 -1l31 -18h1.5h1.5l30 18v0zM669 735q2 1 3 1t3 -1 l53 -29q2 -2 3.5 -4.5t1.5 -5.5v-255q0 -3 -1.5 -5.5t-3.5 -4.5l-89 -51q-3 -1 -5.5 -1t-5.5 1l-89 51q-2 2 -3.5 4.5t-1.5 5.5v102q0 3 1.5 5.5t3.5 4.5l89 51q3 1 5.5 1t5.5 -1l22 -13h2h2l1.5 1.5t0.5 1.5v137q0 1 0.5 2.5t1.5 1.5v0zM976 520q0 -3 -1.5 -5.5t-3.5 -3.5 l-54 -31q-1 -1 -2.5 -1t-2.5 1q-1 0 -2 1.5t-1 2.5v25q0 2 -0.5 3t-1.5 2l-28 16q-1 1 -2.5 1t-3.5 -1l-27 -16q-2 -1 -2.5 -2t-0.5 -3v-32q0 -1 0.5 -2.5t2.5 -1.5l89 -52q1 0 2 -1.5t1 -2.5q0 -2 -1 -3l-2 -2l-53 -30q-3 -1 -6 -1t-5 1l-88 51q-3 1 -4.5 3.5t-1.5 5.5v103 q0 3 1.5 5t4.5 4l89 51q2 2 5 2t5 -2l89 -51q2 -2 3.5 -4t1.5 -5v-25v0zM507 168q-3 0 -5 0.5t-4 1.5l-28 17q-3 1 -2.5 2t1.5 1q4 2 6 2.5t7 3.5h0.5h1.5l21 -13h1.5h1.5l84 48q0 1 0.5 1.5t0.5 1.5v96q0 1 -0.5 1.5t-0.5 1.5l-84 48h-1.5h-1.5l-83 -48l-1.5 -1.5 t-0.5 -1.5v-96q0 -1 0.5 -1.5l1.5 -1.5l23 -13q9 -4 14.5 -0.5t5.5 9.5v95q0 1 0.5 2t1.5 1h11q1 0 1.5 -1t0.5 -2v-95q0 -13 -6.5 -19.5t-18.5 -6.5q-3 0 -7 0.5t-12 4.5l-22 12q-4 3 -6.5 7t-2.5 9v96q0 5 2.5 9t6.5 7l84 48q4 2 9 2t8 -2l84 -48q4 -3 6.5 -7t2.5 -9v-96 q0 -5 -2.5 -9t-6.5 -7l-84 -48q-2 -1 -4 -1.5t-4 -0.5v0v0zM533 234q-28 0 -36.5 10.5t-8.5 20.5q0 1 1 2t2 1h10q1 0 2 -1l1 -1q1 -9 6.5 -13t22.5 -4q13 0 19 3t6 10q0 4 -4.5 7t-25.5 5q-17 2 -27 7t-10 19q0 13 10 20t28 7q20 0 30.5 -7t11.5 -22v-1.5t-1 -0.5 l-0.5 -0.5l-0.5 -0.5h-11q-1 0 -2 0.5t-1 1.5q-2 9 -7.5 12t-18.5 3q-14 0 -17.5 -4t-3.5 -7q0 -5 4.5 -7t23.5 -5q20 -2 29 -7.5t9 -18.5q0 -14 -11 -21.5t-31 -7.5h1v0zM635 337h2q2 0 2.5 1l0.5 1q0 2 -1 2.5t-2 0.5h-2v-5v0zM631 345h6q2 0 4.5 -1t2.5 -4t-1.5 -3.5 t-2.5 -1.5v0q2 0 2.5 -1t0.5 -2v-1v0v0q0 -1 0.5 -2.5l0.5 -1.5h-4v0v0v3v2q-1 1 -1 1.5t-1 0.5h-3v-7h-4v18v0zM624 336q0 -6 4 -10t9 -4q6 0 10 4t4 10q0 5 -4 9t-10 4q-5 0 -9 -4t-4 -9v0v0zM653 336q0 -7 -4.5 -12t-11.5 -5q-6 0 -11 5t-5 12q0 6 5 11t11 5q7 0 11.5 -5 t4.5 -11v0v0zM876 515q0 1 0.5 1t1.5 -1l17 -10l0.5 -0.5l0.5 -0.5v-20q0 -1 -0.5 -1.5l-0.5 -0.5l-17 -10h-1.5h-0.5l-17 10q-1 0 -1 0.5v1.5v20v0.5t1 0.5zM398 602q-2 2 -5 2t-6 -2l-91 -52q-3 -2 -4.5 -4.5t-1.5 -5.5v-105q0 -3 1.5 -5.5t4.5 -4.5l91 -53q3 -1 6 -1t5 1 l91 53q3 2 4.5 4.5t1.5 5.5v105q0 3 -1.5 5.5t-4.5 4.5l-91 52v0z" />
</svg>