<svg viewBox="0 0 256 256" xmlns="http://www.w3.org/2000/svg">
  <path transform="scale(1, -1) translate(0, -256)" fill="currentColor" d="M127 4q-7 0 -10 3l-30 18q-3 2 -3 2.5t2 1.5v0q5 1 10 4l5 2l25 -15h2l91 53q2 1 2 2v105q0 2 -2 3l-91 51q-1 1 -3 0l-90 -52l-2 -2v-105q0 -1 2 -2l25 -14q9 -5 15.5 -1.5t6.5 10.5v103q0 3 2 3h12q3 0 3 -3v-103q0 -14 -7 -21t-20 -7q-5 0 -8.5 0.5t-11.5 4.5l-24 13 q-4 3 -7 7.5t-3 9.5v105q0 11 10 17l90 53q4 2 9.5 2t9.5 -2l91 -53q4 -3 7 -7.5t3 -9.5v-104q0 -11 -10 -17l-90 -52q-5 -3 -11 -3zM200 107q0 14 -9 20t-32 9q-15 2 -21 3.5t-8 3.5t-2 6.5t4.5 8t18.5 3.5t20 -3.5t8 -13.5q1 -1 3 -1h12h1l1 2q-2 16 -13 23.5t-31.5 7.5 t-31.5 -7.5t-11 -21.5t10 -19.5t30 -7.5t27 -6q5 -2 5 -7q0 -8 -6 -11t-21 -3q-17 0 -23 4t-7 14q-1 2 -3 2h-11q-3 0 -3 -3q0 -14 9 -22q12 -11 39 -11q21 -1 33 7t12 23z" />
</svg>