<svg viewBox="0 0 1024 1024" xmlns="http://www.w3.org/2000/svg">
  <path transform="scale(1, -1) translate(0, -960)" fill="currentColor" d="M968 451q-7 9 -18 13.5t-22 4.5h-445q0 1 1 2t1 3v192l446 35q7 0 11.5 5t3.5 12q0 8 -5.5 12t-12.5 3l-445 -35v115l448 83q6 1 10 6.5t3 12.5q0 6 -5 10t-11 3l-443 -82v8q0 8 -4.5 12t-11.5 4t-11.5 -4t-4.5 -12v-16l-157 -28v44q0 8 -4.5 12t-11.5 4t-11.5 -4 t-4.5 -12v-51l-154 -29q-6 -1 -10 -6.5t-2 -12.5q1 -6 5.5 -9.5t10.5 -3.5h1.5h1.5l147 28v-92l-152 -9q-7 0 -11.5 -5.5t-2.5 -12.5q0 -6 5 -10t11 -4h0.5h0.5l149 11v-174v-3t2 -2h-170q-12 0 -22.5 -4.5t-17.5 -13.5q-7 -8 -11.5 -18.5t-2.5 -22.5q5 -56 23 -107 q18 -52 47.5 -97t68.5 -83q40 -38 88 -65v-15q0 -30 21.5 -51.5t51.5 -21.5h340q30 0 51.5 21.5t21.5 51.5v15q27 14 51 33t45 40q57 57 90.5 129t40.5 151q2 10 -2 21t-12 19v0zM296 778l157 28v-112l-157 -12v96v0zM296 474v176l157 12v-188v-3t1 -2h-158v2v3zM829 152 q-22 -22 -46 -40t-50 -32q-4 -2 -6 -6t-2 -8v-24q0 -17 -12.5 -29.5t-29.5 -12.5h-341q-16 0 -28.5 12.5t-12.5 29.5v24q0 4 -2.5 8t-5.5 6q-61 34 -107.5 84t-75.5 111h804q-16 -33 -37.5 -64t-47.5 -59zM926 307h-828v0v0q-10 25 -16 51.5t-8 52.5q0 5 1 9.5t5 6.5 q4 4 8.5 6t9.5 2h832q4 0 9 -2t8 -6q4 -3 5.5 -7.5t1.5 -8.5q-5 -26 -11.5 -52.5t-16.5 -51.5z" />
</svg>