<svg viewBox="0 0 1024 1024" xmlns="http://www.w3.org/2000/svg">
  <path transform="scale(1, -1) translate(0, -960)" fill="currentColor" d="M738 528l-212 392q-3 7 -13.5 7t-14.5 -7l-212 -392q-3 -6 -1 -12.5t8 -9.5q6 -4 12.5 -2t9.5 8l197 366l197 -366q2 -4 5.5 -6t8.5 -2h4.5t3.5 2q6 3 7.5 9.5t-0.5 12.5v0zM637 280q-7 0 -11.5 -4.5t-4.5 -11.5v-238l-221 249q-4 4 -8.5 5t-9.5 0q-4 -1 -6.5 -5.5 t-2.5 -8.5v-282q0 -7 4.5 -11.5t11.5 -4.5t11.5 4.5t4.5 11.5v238l219 -249q2 -3 5.5 -4t5.5 -1h2.5t4.5 2q4 1 6.5 5t2.5 9v280q1 7 -3.5 11.5t-10.5 4.5z" />
</svg>