<svg viewBox="0 0 256 256" xmlns="http://www.w3.org/2000/svg">
  <path transform="scale(1, -1) translate(0, -256)" fill="currentColor" d="M195 113l-16 95q-3 19 -17.5 31t-33.5 12t-33 -12t-17 -31l-17 -95q-14 -8 -21 -22.5t-4.5 -30t13 -27t25.5 -15.5q12 -3 24 0q12 -13 30.5 -13t31.5 13q5 -2 10 -2q8 0 14 2q14 4 24.5 15t12.5 26q3 17 -4.5 31.5t-21.5 22.5zM207 62q-2 -11 -9.5 -19t-17.5 -11 q-6 -1 -12 -1q3 6 4 13q0 3 -1.5 5.5t-4.5 2.5t-5.5 -1.5t-2.5 -4.5q-1 -12 -9.5 -20t-20.5 -8t-20.5 8t-9.5 20q0 3 -2.5 4.5t-5.5 1.5t-4.5 -2.5t-1.5 -5.5q1 -7 4 -13q-6 0 -12 1q-10 3 -17.5 11t-9.5 19.5t4 23t17 16.5l3 2l18 102q3 13 13 22t24 9t24 -9t13 -22 l17 -102l4 -2q11 -5 17 -16t4 -24z" />
</svg>