<svg viewBox="0 0 256 256" xmlns="http://www.w3.org/2000/svg">
  <path transform="scale(1, -1) translate(0, -256)" fill="currentColor" d="M207 242q-9 9 -21 9h-105q-8 0 -14 -5.5t-6 -14.5v-22h-14q-3 0 -5 -2t-2 -5t2 -5t5 -2h14v-60h-14q-3 0 -5 -2t-2 -5t2 -5.5t5 -2.5h14v-60h-14q-3 0 -5 -2t-2 -5t2 -5t5 -2h14v-22q0 -8 6 -14t14 -6h105q13 0 21.5 8.5t8.5 21.5v186q0 14 -9 22zM202 35 q0 -7 -4.5 -11.5t-11.5 -4.5h-105q-2 0 -4 2t-2 4v22h25q3 0 5 2t2 5t-2 5.5t-5 2.5h-25v60h25q3 0 5 2t2 5t-2 5t-5 2h-25v60h25q3 0 5 2t2 5t-2 5t-5 2h-25v21q0 2 2 4t4 2h105q7 0 11.5 -4.5t4.5 -11.5v-186z" />
</svg>