<svg viewBox="0 0 1024 1024" xmlns="http://www.w3.org/2000/svg">
  <path transform="scale(1, -1) translate(0, -960)" fill="currentColor" d="M821 896q-16 16 -35 24t-40 8h-421q-29 0 -49 -20t-20 -49v-101h-69q-7 0 -11.5 -4t-4.5 -12q0 -7 4.5 -11.5t11.5 -4.5h69v-262h-69q-7 0 -11.5 -4.5t-4.5 -11.5t4.5 -11.5t11.5 -4.5h69v-264h-69q-7 0 -11.5 -4.5t-4.5 -11.5t4.5 -11.5t11.5 -4.5h69v-101q0 -29 20 -49 t49 -20h421q44 0 75.5 31.5t31.5 76.5v745q0 23 -8.5 43t-23.5 34v0zM819 75q0 -31 -22 -53t-53 -22h-419q-16 0 -26.5 10.5t-10.5 26.5v101h110q8 0 12 4t4 12q0 7 -4 11.5t-12 4.5h-110v262h110q8 0 12 4.5t4 11.5t-4 11.5t-12 4.5h-110v264h110q8 0 12 4.5t4 11.5 t-4 11.5t-12 4.5h-110v99q0 16 10.5 26.5t26.5 10.5h421q15 0 28.5 -6t23.5 -16q11 -11 17 -25t6 -28l-2 -746v0z" />
</svg>