<svg viewBox="0 0 1024 1024" xmlns="http://www.w3.org/2000/svg">
  <path transform="scale(1, -1) translate(0, -960)" fill="currentColor" d="M379 773q7 0 11.5 4.5t4.5 11.5v57q0 8 -4.5 12t-11.5 4t-11.5 -4t-4.5 -12v-57q0 -7 5 -11.5t11 -4.5zM766 904q-40 0 -77 -14t-66 -38t-49 -57q-21 -33 -28 -72q-46 27 -98 38t-106 5q-57 -6 -106 -31q-50 -25 -86 -64t-56 -88t-20 -105v-286q-2 -11 -4 -18.5t-6 -13.5 l-27 -45q-5 -7 -5 -14t5 -15q3 -6 10 -9t15 -3h303v-66q0 -7 4.5 -11.5t11.5 -4.5t11.5 4.5t4.5 11.5v66h305q8 0 14.5 3t9.5 9q4 5 4.5 13.5t-4.5 15.5l-30 45q-5 8 -7.5 16.5t-2.5 17.5v273q20 -7 39.5 -10.5t40.5 -3.5q47 0 88 18q41 17 72 47.5t48 72.5q18 41 18 87 q0 47 -18 88q-17 41 -48 72t-72 48q-41 18 -88 18v0zM669 142l24 -36h-312v0v0v0v0h-314l24 40q5 9 8.5 20t4.5 24v290q0 49 18 93q19 44 51 78t76 57q44 22 95 28q53 6 103 -6.5t92 -39.5v-5.5v-4.5q0 -62 31.5 -114t82.5 -81v-290q1 -14 5 -27.5t11 -25.5v0zM766 485 q-40 0 -75 15t-61.5 41.5t-41.5 61.5t-15 75q0 41 15 76t41.5 61.5t61.5 41.5t75 15q41 0 76 -15t61.5 -41.5t41.5 -61.5t15 -76q0 -40 -15 -75t-41.5 -61.5t-61.5 -41.5t-76 -15v0z" />
</svg>