<svg viewBox="0 0 1024 1024" xmlns="http://www.w3.org/2000/svg">
  <path transform="scale(1, -1) translate(0, -960)" fill="currentColor" d="M821 874q-58 0 -103.5 -35.5t-61.5 -89.5h-547q-31 0 -54 -22.5t-23 -54.5v-573q0 -31 23 -54t54 -23h600q31 0 54 23t23 54v429q8 -1 16.5 -2t16.5 -1q71 0 121 51t50 123q2 72 -48 123.5t-121 51.5v0zM754 99q0 -18 -13.5 -31.5t-31.5 -13.5h-600q-18 0 -31.5 13.5 t-13.5 31.5v573q0 18 13.5 31.5t31.5 13.5h541q0 -5 -1 -9.5t-1 -8.5q0 -54 29.5 -97.5t76.5 -63.5v-439zM821 557q-58 0 -98.5 41.5t-40.5 100.5t40.5 101t98.5 42q57 0 98 -42t41 -101t-41 -100.5t-98 -41.5v0zM190 469h322q7 0 11.5 4.5t4.5 11.5t-4.5 11.5t-11.5 4.5 h-322q-7 0 -11.5 -4.5t-4.5 -11.5t4.5 -11.5t11.5 -4.5v0zM590 309h-400q-7 0 -11.5 -4.5t-4.5 -11.5t4.5 -11.5t11.5 -4.5h400q8 0 12 4.5t4 11.5t-4 11.5t-12 4.5z" />
</svg>