<svg viewBox="0 0 1024 1024" xmlns="http://www.w3.org/2000/svg">
  <path transform="scale(1, -1) translate(0, -960)" fill="currentColor" d="M960 514l-40 30q-12 10 -17.5 24t-1.5 29l13 48q4 18 1 36t-14 33q-12 15 -29.5 25t-37.5 11l-52 4q-16 1 -29.5 10t-19.5 23l-19 45q-8 17 -21.5 29.5t-31.5 20.5q-19 6 -39 3.5t-36 -11.5l-44 -26q-14 -8 -30.5 -8t-29.5 8l-44 26q-16 10 -36 12.5t-39 -4.5 q-18 -6 -31.5 -19t-21.5 -31l-19 -45q-6 -14 -19.5 -23t-29.5 -10l-52 -4q-20 -1 -37.5 -10.5t-29.5 -25.5q-11 -16 -14 -33.5t1 -35.5l13 -48q4 -13 -1.5 -28t-17.5 -25l-40 -30q-16 -12 -24 -29.5t-8 -36.5t8 -36.5t24 -29.5l40 -30q12 -10 17.5 -24t1.5 -29l-13 -48 q-4 -18 -1 -36t14 -33q12 -15 29.5 -25t37.5 -11l52 -4q16 -1 29.5 -10t19.5 -23l19 -45q8 -17 21.5 -29.5t31.5 -20.5q7 -2 14.5 -3t14.5 -1q12 0 24 3t22 9l44 26q14 8 30.5 8t29.5 -8l44 -26q16 -10 36 -12.5t39 4.5q18 6 31.5 19t21.5 31l19 45q6 14 19.5 23t29.5 10 l52 4q20 1 37.5 10.5t29.5 25.5q11 16 14 33.5t-1 35.5l-13 48q-4 15 1 29t18 24l40 30q16 12 24 29.5t8 36.5t-8 36.5t-24 29.5v0zM939 408l-40 -30q-20 -16 -28 -39.5t-1 -47.5l13 -48q3 -11 1 -22t-9 -19q-7 -11 -18.5 -17t-24.5 -7l-51 -4q-25 -1 -46 -15.5t-31 -36.5 l-19 -45q-5 -11 -13.5 -19t-20.5 -12q-12 -3 -25.5 -2t-23.5 7l-44 26q-21 13 -46.5 13t-47.5 -13l-43 -26q-11 -7 -24 -8t-26 3q-12 4 -20.5 12t-12.5 19l-18 43q-10 23 -31 37.5t-46 15.5l-51 5q-13 1 -24.5 7t-18.5 17q-7 9 -9 19.5t1 21.5l13 48q6 24 -2 47.5t-27 39.5 l-40 30q-10 7 -15.5 17.5t-5.5 22.5t5.5 22.5t15.5 17.5l40 30q20 16 28 39.5t1 47.5l-13 48q-3 11 -1 22t9 19q7 11 18.5 17t24.5 6l51 3q25 1 46 15.5t31 37.5l19 45q5 10 13.5 18t20.5 12q5 1 9.5 2t9.5 1q8 0 15.5 -2t14.5 -6l44 -25q21 -14 46.5 -14t47.5 14l43 25 q11 7 24 8.5t26 -3.5q12 -4 20.5 -12t12.5 -18l20 -45q9 -23 30 -37.5t46 -15.5l52 -3q13 -1 24.5 -7t18.5 -16q7 -9 8.5 -19.5t-0.5 -21.5l-13 -48q-6 -24 2 -47.5t27 -39.5l40 -30q8 -7 13.5 -17.5t5.5 -22.5t-5.5 -22.5t-15.5 -17.5zM650 586q-5 4 -11.5 4t-11.5 -4 l-253 -252q-4 -4 -4 -10.5t4 -11.5q3 -2 6 -3.5t6 -1.5q2 0 5 1.5t6 3.5l253 253q4 3 4 9.5t-4 11.5v0zM462 498q11 10 17 25t6 31q0 15 -6 30t-17 26q-22 22 -55.5 22t-56.5 -22q-10 -11 -16 -26t-6 -30q0 -16 6 -31t16 -25q11 -11 26 -17t30 -6q16 0 31 6t25 17zM373 520 q-7 7 -11 15.5t-4 18.5q0 9 4 17.5t11 15.5t15.5 11t17.5 4q10 0 18.5 -4t15.5 -11t10.5 -15.5t3.5 -17.5q0 -10 -3.5 -18.5t-10.5 -15.5q-13 -13 -33 -13t-34 13v0zM562 400q-23 -23 -23 -56t23 -56q12 -12 26 -17t30 -5q15 0 29.5 5.5t26.5 16.5q22 23 22 56t-22 56 q-24 23 -57 23t-55 -23zM651 310q-13 -13 -33 -13t-34 13q-13 14 -13 33.5t13 34.5q7 7 15.5 10.5t18.5 3.5q9 0 17.5 -3.5t15.5 -10.5q13 -15 13 -34.5t-13 -33.5z" />
</svg>