<svg viewBox="0 0 256 256" xmlns="http://www.w3.org/2000/svg">
  <path transform="scale(1, -1) translate(0, -256)" fill="currentColor" d="M244 131h-73v28h43q10 0 18 7.5t8 18.5v33q0 11 -8 18.5t-18 7.5h-100q-11 0 -18.5 -7.5t-7.5 -18.5v-33q0 -11 7.5 -18.5t18.5 -7.5h42v-28h-144q-3 0 -5 -2t-2 -5v-106q0 -3 2 -5t5 -2t5 2t2 5v54h218v-54q0 -3 2 -5t5 -2t5.5 2t2.5 5v106q-1 3 -3 5t-5 2zM102 185v33 q0 5 3.5 8.5t8.5 3.5h100q5 0 8.5 -3.5t3.5 -8.5v-33q0 -5 -3.5 -8.5t-8.5 -3.5h-100q-5 0 -8.5 3.5t-3.5 8.5zM19 117h218v-31h-218v31zM18 159h33q5 0 9 4t4 9v59q0 6 -4 9.5t-9 3.5h-33q-5 0 -9 -3.5t-4 -9.5v-59q0 -5 4 -9t9 -4zM19 230h31v-58h-31v58z" />
</svg>