<svg viewBox="0 0 1024 1024" xmlns="http://www.w3.org/2000/svg">
  <path transform="scale(1, -1) translate(0, -960)" fill="currentColor" d="M976 446h-304v136h184q38 0 65.5 27.5t27.5 65.5v135q0 38 -27.5 65t-65.5 27h-400q-38 0 -65.5 -27t-27.5 -65v-135q0 -38 27.5 -65.5t65.5 -27.5h184v-136h-592q-7 0 -11.5 -4t-4.5 -12v-420q0 -8 4.5 -12t11.5 -4t11.5 4t4.5 12v227h896v-227q0 -8 4.5 -12t11.5 -4 t11.5 4t4.5 12v420q0 8 -4.5 12t-11.5 4v0zM395 675v135q0 25 18 42.5t43 17.5h400q25 0 43 -17.5t18 -42.5v-135q0 -25 -18 -43t-43 -18h-400q-25 0 -43 18t-18 43zM64 414h896v-145h-896v145zM74 582h129q17 0 29.5 12.5t12.5 29.5v237q0 17 -12.5 29t-29.5 12h-129 q-17 0 -29.5 -12t-12.5 -29v-237q0 -17 12.5 -29.5t29.5 -12.5zM64 861q0 3 3 6t7 3h129q4 0 7 -3t3 -6v-237q0 -4 -3 -7t-7 -3h-129q-4 0 -7 3t-3 7v237v0z" />
</svg>