<svg viewBox="0 0 256 256" xmlns="http://www.w3.org/2000/svg">
  <path transform="scale(1, -1) translate(0, -256)" fill="currentColor" d="M207 82h-5v56q0 12 -8.5 20.5t-20.5 8.5h-20q-12 0 -20.5 -8.5t-8.5 -20.5v-56h-4q-3 0 -5 -2.5t-2 -5.5t2 -5t5 -2h88q3 0 5 2t2 5t-2.5 5.5t-5.5 2.5zM138 138q0 6 4 10.5t10 4.5h20q7 0 11 -4.5t4 -10.5v-56h-49v56zM223 206h-143q-5 10 -14.5 16t-21.5 6 q-16 0 -27.5 -11.5t-11.5 -28.5v-120q0 -16 11.5 -27.5t27.5 -11.5h179q12 0 20 8.5t8 20.5v120q0 11 -8 19.5t-20 8.5zM44 214q11 0 18.5 -7.5t7.5 -18.5v-90q-10 9 -24.5 9t-26.5 -9v90q0 11 7.5 18.5t17.5 7.5zM19 68q0 10 7.5 17.5t18 7.5t18 -7.5t7.5 -17.5t-7.5 -17.5 t-18 -7.5t-18 7.5t-7.5 17.5zM237 57q0 -6 -4 -10.5t-9 -4.5h-150q10 11 10 26v124h139q6 0 10 -4.5t4 -10.5v-120z" />
</svg>