<svg viewBox="0 0 256 256" xmlns="http://www.w3.org/2000/svg">
  <path transform="scale(1, -1) translate(0, -256)" fill="currentColor" d="M188 251h-120q-8 0 -13.5 -5.5t-5.5 -13.5v-220q0 -3 2 -5t5 -2t5 2t2 5v18h130v-18q0 -3 2 -5t5 -2t5.5 2t2.5 5v220q-1 8 -6.5 13.5t-13.5 5.5zM63 166h130v-54h-130v54zM68 237h120q2 0 3.5 -1.5t1.5 -3.5v-53h-130v53q0 2 1.5 3.5t3.5 1.5zM63 98h130v-54h-130v54z M126 202h3q3 0 5 2t2 5t-2 5t-5 2h-3q-3 0 -5 -2t-2 -5t2.5 -5t4.5 -2zM130 147h-3q-3 0 -5 -2t-2 -5t2 -5.5t5 -2.5h3q3 0 5 2.5t2 5.5t-2.5 5t-4.5 2zM130 79h-3q-3 0 -5 -2t-2 -5t2 -5t5 -2h3q3 0 5 2t2 5t-2.5 5t-4.5 2z" />
</svg>