<svg viewBox="0 0 1024 1024" xmlns="http://www.w3.org/2000/svg">
  <path transform="scale(1, -1) translate(0, -960)" fill="currentColor" d="M752 928h-480q-26 0 -45 -19t-19 -45v-880q0 -7 4.5 -11.5t11.5 -4.5t11.5 4.5t4.5 11.5v85h544v-85q0 -7 4.5 -11.5t11.5 -4.5t11.5 4.5t4.5 11.5v880q0 26 -19 45t-45 19zM240 611q1 0 2.5 -0.5t2.5 -0.5h534h2.5t2.5 1v-240q-1 0 -2.5 1t-2.5 1h-534q-1 0 -2.5 -0.5 t-2.5 -1.5v240v0zM272 896h480q13 0 22.5 -9.5t9.5 -22.5v-222q-1 0 -2.5 0.5t-2.5 0.5h-534h-2.5t-2.5 -1v222q0 13 9.5 22.5t22.5 9.5v0zM240 341q1 0 2.5 -1t2.5 -1h534q1 0 2.5 0.5t2.5 1.5v-240h-544v240zM506 755h11q7 0 11.5 4.5t4.5 11.5t-4.5 11.5t-11.5 4.5h-11 q-8 0 -12 -4.5t-4 -11.5t5 -11.5t11 -4.5v0zM506 478h11q7 0 11.5 4.5t4.5 11.5q0 8 -4.5 12t-11.5 4h-11q-8 0 -12 -4t-4 -12q0 -7 5 -11.5t11 -4.5v0zM518 242h-11q-7 0 -11.5 -4.5t-4.5 -11.5q0 -8 4.5 -12t11.5 -4h11q8 0 12 4t4 12q0 7 -5 11.5t-11 4.5z" />
</svg>