<svg viewBox="0 0 256 256" xmlns="http://www.w3.org/2000/svg">
  <path transform="scale(1, -1) translate(0, -256)" fill="currentColor" d="M213 172h-50q-3 0 -5 -2t-2 -5v-22h-36q4 7 4 15v23q0 12 -8 20.5t-20 8.5h-62q-12 0 -20.5 -8.5t-8.5 -20.5v-23q0 -9 4 -16q-4 -2 -4 -6v-67q0 -3 2 -5t5 -2h14q3 -7 9.5 -11.5t14.5 -4.5t14 4.5t9 11.5h15q2 -7 8.5 -11.5t14.5 -4.5t14.5 4.5t9.5 11.5h45 q3 -7 9.5 -11.5t14.5 -4.5t14 4.5t9 11.5h17q3 0 5 2t2 5v66q0 15 -11 26t-27 11zM19 181q0 6 4.5 10.5t10.5 4.5h62q6 0 10.5 -4.5t4.5 -10.5v-23q0 -6 -4.5 -10.5t-10.5 -4.5h-62q-6 0 -10.5 4.5t-4.5 10.5v23zM19 133q8 -4 15 -4h122v-53h-20q-1 9 -8 15t-16.5 6 t-16.5 -6t-9 -15h-12q-1 9 -8 15t-16.5 6t-16.5 -6t-8 -15h-6v57zM50 60q-5 0 -8.5 3.5t-3.5 8.5t3.5 8.5t8 3.5t8 -3.5t3.5 -8.5t-3.5 -8.5t-7.5 -3.5zM111 60q-5 0 -8 3.5t-3 8.5t3 8.5t8 3.5t8.5 -3.5t3.5 -8.5t-3.5 -8.5t-8.5 -3.5zM204 60q-5 0 -8.5 3.5t-3.5 8.5 t3.5 8.5t8 3.5t8 -3.5t3.5 -8.5t-3.5 -8.5t-7.5 -3.5zM237 76h-8q-2 9 -9 15t-16.5 6t-16.5 -6t-9 -15h-8v82h43q10 0 16.5 -7t6.5 -16v-59h1z" />
</svg>