<svg viewBox="0 0 1024 1024" xmlns="http://www.w3.org/2000/svg">
  <path transform="scale(1, -1) translate(0, -960)" fill="currentColor" d="M853 614h-200q-7 0 -11.5 -4t-4.5 -12v-102h-178q13 14 21 32t8 38v93q0 42 -30 72.5t-72 30.5h-252q-42 0 -72 -30.5t-30 -72.5v-93v-2v-2v-1v-1v-347q0 -7 4.5 -11.5t11.5 -4.5h66q8 -28 31.5 -46t54.5 -18t54.5 18t31.5 46h63q3 0 6 1t5 4q7 -30 31 -49.5t55 -19.5 q30 0 54 18t33 46h121v0v0h76q8 -28 31.5 -46t54.5 -18t54.5 18t31.5 46h74q7 0 11.5 4.5t4.5 11.5v262q0 58 -41 98.5t-98 40.5v0zM64 661q0 29 21 49.5t49 20.5h250q29 0 49.5 -20.5t20.5 -49.5v-93q0 -29 -20.5 -49.5t-49.5 -20.5h-250q-28 -2 -49 19t-21 49v95v0z M198 165q-24 0 -40.5 16.5t-16.5 40.5t16.5 41t40.5 17t41 -17t17 -41q1 -24 -16.5 -40.5t-41.5 -16.5zM355 227q-2 1 -3.5 2t-4.5 1h-59q-2 35 -28 59.5t-62 24.5t-61.5 -25t-27.5 -60h-45v264q14 -13 32 -21t38 -8h503v-235h-103q-2 35 -27.5 59t-61.5 24q-36 1 -61.5 -24 t-28.5 -61v0zM445 165q-24 0 -41 16.5t-17 40.5t17 41t41 17t40.5 -17t16.5 -41t-16.5 -40.5t-40.5 -16.5zM814 165q-24 0 -40.5 16.5t-16.5 40.5t16.5 41t40.5 17t41 -17t17 -41t-17 -40.5t-41 -16.5zM960 229h-56q-2 35 -28 59t-62 24t-61.5 -24t-27.5 -59h-56v352h184 q44 0 75.5 -31.5t31.5 -75.5v-245z" />
</svg>