<svg viewBox="0 0 1024 1024" xmlns="http://www.w3.org/2000/svg">
  <path transform="scale(1, -1) translate(0, -960)" fill="currentColor" d="M693 589q-16 14 -35 22t-40 8h-44q-46 0 -87 -21.5t-66 -59.5l-21 -31q-2 -5 -6.5 -8.5t-9.5 -5.5l-109 -55q-19 -9 -31 -28t-12 -40q0 -17 7 -32t20 -26q10 -8 22.5 -13t24.5 -6v-309q0 -7 4 -11.5t12 -4.5q7 0 11.5 4.5t4.5 11.5v312l43 6q15 3 30 10t27 18l58 51v-397 q0 -7 4.5 -11.5t11.5 -4.5t11.5 4.5t4.5 11.5v432q0 5 -2.5 9t-7.5 5q-4 3 -9 2t-8 -5l-83 -73q-9 -8 -19.5 -12.5t-20.5 -7.5l-39 -4q0 7 -4.5 11.5t-11.5 4.5t-11.5 -4.5t-4.5 -11.5v-5q-7 0 -14 3t-11 8q-8 6 -12 15t-4 19q0 13 6.5 23.5t18.5 16.5l109 54q8 5 15 11 t12 13l19 29q22 32 55 50.5t72 18.5h43q16 0 29.5 -6t23.5 -15q43 -41 64 -113.5t24 -184.5q0 -29 -7.5 -56t-24.5 -53l-13 -17q-16 -23 -23 -49t-7 -54v-54q0 -7 4 -11.5t12 -4.5q7 0 11.5 4.5t4.5 11.5v56q0 23 6.5 44.5t18.5 40.5l13 17q19 29 28.5 61t8.5 66 q-1 59 -7 108t-18 89t-29 70q-18 31 -42 53v0zM549 696q48 0 82.5 34.5t34.5 82.5t-34.5 82.5t-82.5 34.5t-82.5 -34.5t-34.5 -82.5q0 -49 34.5 -83t82.5 -34zM549 896q35 0 60 -25t25 -60t-25 -60t-60 -25t-60 25t-25 60t25 60t60 25z" />
</svg>