<svg viewBox="0 0 1024 1024" xmlns="http://www.w3.org/2000/svg">
  <path transform="scale(1, -1) translate(0, -960)" fill="currentColor" d="M837 200l-15 14q-16 17 -44.5 34t-51.5 26l-104 35q54 29 88 83t34 120v8q52 18 83 58t31 88q0 42 -25 78.5t-67 57.5l-68 33v0v0q-33 42 -81.5 67.5t-104.5 25.5t-104.5 -25.5t-79.5 -67.5v0v0l-69 -33q-42 -21 -66.5 -57.5t-24.5 -78.5q0 -48 31 -88t83 -58v-8 q0 -67 34.5 -121.5t89.5 -83.5l-100 -30q-39 -12 -71.5 -33t-56.5 -49q-32 -37 -48 -81t-16 -93v-13q0 -17 11.5 -28.5t28.5 -11.5h718q17 0 28.5 11.5t11.5 28.5v13q-1 50 -20 96.5t-55 82.5zM750 773q34 -17 54 -46t20 -61q0 -36 -22 -65.5t-60 -45.5v144q0 23 -4.5 45.5 t-12.5 42.5l25 -14v0zM512 896q41 0 77 -16q36 -15 63 -42t43 -63q15 -37 15 -77v-188q0 -14 -2 -28t-6 -28l-139 55q-27 11 -56.5 11t-56.5 -11l-128 -50q-4 12 -5.5 25.5t-1.5 27.5v186q0 40 15 76q15 37 41.5 64t62.5 42q37 16 78 16zM200 666q0 33 20 61.5t54 45.5 l25 13q-8 -21 -12.5 -43.5t-4.5 -44.5v-144q-38 15 -60 45.5t-22 66.5v0zM331 429l130 51q21 8 44.5 8t46.5 -8l139 -54q-24 -51 -72 -81.5t-107 -30.5q-60 -2 -108.5 30.5t-72.5 84.5zM878 8q0 -4 -2 -6t-6 -2h-718q-4 0 -6 2t-2 6v13q0 42 14.5 81.5t43.5 71.5 q20 24 49 43t63 29l139 44q13 -4 27.5 -6t29.5 -2q17 0 33.5 2t32.5 7q1 0 1.5 -0.5t1.5 -0.5l136 -45q19 -6 44 -21.5t39 -29.5l15 -15q31 -31 48 -72.5t17 -85.5v-13v0zM418 686h1q7 0 11.5 4.5t4.5 11.5q0 8 -4.5 12t-11.5 4h-1q-8 0 -12 -4t-4 -12q0 -7 4 -11.5t12 -4.5 zM605 686h1q8 0 12 4.5t4 11.5q0 8 -4 12t-12 4h-1q-7 0 -11.5 -4t-4.5 -12q0 -7 4.5 -11.5t11.5 -4.5z" />
</svg>