<svg viewBox="0 0 256 256" xmlns="http://www.w3.org/2000/svg">
  <path transform="scale(1, -1) translate(0, -256)" fill="currentColor" d="M175 166q-9 8 -21 8h-10q-13 0 -23.5 -6t-17.5 -16l-5 -7q-1 -2 -3 -3l-27 -13q-6 -3 -9 -8.5t-3 -11.5q0 -10 7 -17q5 -4 11 -5v-75q0 -3 2 -5t5 -2t5 2t2 5v76l8 1q10 1 16 7l10 8v-92q0 -3 2 -5t5 -2t5 2t2 5v108q0 4 -4 6q-2 1 -4 1t-4 -2l-20 -18q-5 -4 -9 -4l-7 -1 q-2 4 -6 4q-2 0 -4 -1t-2 -3l-2 1q-3 2 -3 6.5t4 7.5l27 13q5 3 8 8l5 7q5 7 13 11t16 4h11q7 0 11 -4q20 -19 22 -72q0 -14 -8 -26l-4 -5q-8 -12 -8 -27v-14q0 -3 2 -5t5 -2t5 2t2 5v14q0 11 6 20l3 4q10 15 10 34q-1 29 -7 49.5t-19 32.5zM137 187q13 0 22.5 9.5t9.5 22.5 t-9.5 22.5t-22.5 9.5t-22.5 -9.5t-9.5 -22.5t9.5 -22.5t22.5 -9.5zM137 237q8 0 13 -5.5t5 -13t-5 -12.5t-12.5 -5t-13 5t-5.5 12.5t5.5 13t12.5 5.5z" />
</svg>