<svg viewBox="0 0 256 256" xmlns="http://www.w3.org/2000/svg">
  <path transform="scale(1, -1) translate(0, -256)" fill="currentColor" d="M211 68l-3 4q-5 5 -12.5 9t-13.5 6l-20 7q12 8 19 21t7 29q13 5 21 15t8 22t-6.5 22t-18.5 16l-16 8q-9 11 -21.5 17.5t-26.5 6.5t-26.5 -6.5t-21.5 -17.5l-16 -8q-12 -6 -18.5 -16t-6.5 -22t8 -22t21 -15q0 -16 7 -29t19 -21l-18 -6q-21 -7 -34 -22q-16 -19 -16 -45v-3 q0 -6 3.5 -9.5t8.5 -3.5h180q5 0 9 3.5t4 9.5v3q0 13 -5 25.5t-15 21.5zM87 122l29 11q11 4 20 0l32 -12q-6 -11 -17 -17.5t-23.5 -6.5t-23.5 6.5t-17 18.5zM203 182q0 -6 -4 -12t-10 -10v30q0 9 -3 16q8 -3 12.5 -9.5t4.5 -14.5zM128 237q19 0 33 -14t14 -33v-47 q0 -5 -1 -10l-32 13q-15 6 -31 0l-29 -12v9v47q-1 20 13 33.5t33 13.5zM53 182q0 8 4.5 14.5t12.5 10.5q-3 -8 -3 -16v-31q-6 3 -10 9t-4 13zM217 19h-178v2q0 20 14 36q10 12 27 17l22 8q4 1 5 5q11 -4 21.5 -4t20.5 4q1 -4 5 -5l24 -8q5 -2 10.5 -5.5t9.5 -6.5l3 -4 q16 -15 16 -37v-2zM104 185h1q3 0 5 2t2 5t-2 5t-5 2h-1q-3 0 -5 -2t-2 -5t2 -5t5 -2zM151 185h1q3 0 5 2t2 5t-2 5t-5 2h-1q-3 0 -5 -2t-2 -5t2 -5t5 -2z" />
</svg>