<svg viewBox="0 0 256 256" xmlns="http://www.w3.org/2000/svg">
  <path transform="scale(1, -1) translate(0, -256)" fill="currentColor" d="M232 244h-208q-8 0 -13.5 -5.5t-5.5 -13.5v-136q0 -8 5.5 -13.5t13.5 -5.5h98v-44h-36q-3 0 -5.5 -2.5t-2.5 -5.5t2.5 -5t5.5 -2h86q3 0 5 2t2 5t-2 5.5t-5 2.5h-36v44h96q8 0 13.5 5.5t5.5 13.5v136q0 8 -5.5 13.5t-13.5 5.5zM237 89q0 -2 -1.5 -3.5t-3.5 -1.5h-208 q-2 0 -3.5 1.5t-1.5 3.5v136q0 5 5 5h208q2 0 3.5 -1.5t1.5 -3.5v-136zM174 212h-12q-3 0 -5 -1.5t-2 -3.5l-5 -18h-68q-4 0 -6 -3t-1 -6l8 -34q0 -2 2 -4t5 -2h58q2 0 4 1.5t2 4.5l13 52h7q3 0 5 2t2 5t-2 5t-5 2zM142 155h-47l-5 20h57zM99 132q-5 0 -8.5 -3.5t-3.5 -8 t3.5 -8t8.5 -3.5t8 3.5t3 8t-3 8t-8 3.5zM138 132q-4 0 -7.5 -3.5t-3.5 -8t3.5 -8t8 -3.5t8 3.5t3.5 8t-3.5 8t-8.5 3.5z" />
</svg>