<svg viewBox="0 0 1024 1024" xmlns="http://www.w3.org/2000/svg">
  <path transform="scale(1, -1) translate(0, -960)" fill="currentColor" d="M880 890h-736q-47 0 -79.5 -33t-32.5 -79v-660q0 -46 32.5 -79t79.5 -33h736q47 0 79.5 33t32.5 79v660q0 45 -32.5 78.5t-79.5 33.5zM144 858h736q34 0 57 -23.5t23 -56.5v-106h-896v106q0 32 23 56t57 24zM880 38h-736q-34 0 -57 23.5t-23 56.5v520h896v-520 q0 -32 -23 -56t-57 -24zM773 301h-96q-1 0 -3 1t-2 2l-85 170q-5 9 -14.5 14.5t-20.5 5.5t-20 -6t-14 -16l-78 -174q-1 -3 -3 -3.5l-2 -0.5q-1 0 -3 0.5t-2 3.5l-46 84q-5 10 -14 15.5t-20 5.5h-97q-7 0 -11.5 -4.5t-4.5 -11.5t4.5 -11.5t11.5 -4.5h97q2 0 3.5 -1t1.5 -2 l43 -86q5 -10 14 -15.5t20 -5.5v0v0q11 0 20 6.5t14 15.5l78 175q1 2 3 2.5l2 0.5q1 0 3 -0.5t2 -2.5l84 -170q5 -10 14 -15.5t20 -5.5h96q7 0 11.5 4.5t4.5 11.5t-2.5 12.5t-8.5 5.5v0z" />
</svg>