<svg viewBox="0 0 256 256" xmlns="http://www.w3.org/2000/svg">
  <path transform="scale(1, -1) translate(0, -256)" fill="currentColor" d="M220 241h-184q-13 0 -22 -9t-9 -22v-165q0 -13 9 -22t22 -9h184q13 0 22 9t9 22v165q0 13 -9 22t-22 9zM36 227h184q7 0 12 -5t5 -12v-24h-218v24q0 7 5 12t12 5zM220 29h-184q-7 0 -12 5t-5 12v127h218v-127q0 -7 -5 -12t-12 -5zM193 94h-23l-21 42q-1 3 -4.5 5t-7 1.5 t-6.5 -2.5t-5 -5l-18 -41l-9 19q-3 7 -11 7h-25q-3 0 -5 -2t-2 -5t2 -5t5 -2h24l10 -21q3 -7 11 -7h1q3 0 6.5 2t4.5 5l18 41l20 -40q3 -6 12 -6h24q3 0 5 2t2 5t-2.5 5t-5.5 2z" />
</svg>