<svg viewBox="0 0 256 256" xmlns="http://www.w3.org/2000/svg">
  <path transform="scale(1, -1) translate(0, -256)" fill="currentColor" d="M229 203h-202q-9 0 -15.5 -6.5t-6.5 -15.5v-107q0 -9 6.5 -15.5t15.5 -6.5h202q9 0 15.5 6.5t6.5 15.5v108q0 9 -6.5 15t-15.5 6zM237 74q0 -3 -2 -5.5t-6 -2.5h-202q-3 0 -5.5 2.5t-2.5 5.5v108q0 3 2.5 5.5t5.5 2.5h202q3 0 5.5 -2.5t2.5 -5.5v-108zM117 160h-27 q-3 0 -5 -2.5t-2 -5.5v-52q0 -3 2 -5t5 -2t5.5 2t2.5 5v22h19q3 0 5 2t2 5v23q0 3 -2 5.5t-5 2.5zM110 136h-12v10h12v-10zM66 160h-27q-3 0 -5 -2.5t-2 -5.5v-52q0 -3 2 -5t5 -2h27q3 0 5 2t2 5v52q0 3 -2 5.5t-5 2.5zM59 108h-13v38h13v-38zM218 160q-3 0 -5.5 -2.5 t-2.5 -5.5v-22l-12 26q-2 2 -4 3t-4.5 0.5t-4 -2.5t-1.5 -4v-51q0 -3 2.5 -5t5.5 -2t5 2t2 5v22l13 -25q2 -3 6 -3h2q2 1 3.5 2.5t1.5 4.5v50q0 3 -2 5t-5 2zM163 146q3 0 5 2t2 5t-2 5t-5 2h-20q-3 0 -5 -2t-2 -5v-51q0 -3 2 -5t5 -2h20q3 0 5 2t2 5t-2 5.5t-5 2.5h-13v11 h3q3 0 5 2t2 5t-2 5t-5 2h-3v11h13z" />
</svg>