<svg viewBox="0 0 1024 1024" xmlns="http://www.w3.org/2000/svg">
  <path transform="scale(1, -1) translate(0, -960)" fill="currentColor" d="M643 878q-128 0 -219 -74q-92 -74 -135 -182.5t-32 -231.5q12 -124 90 -222q27 -35 60 -63q33 -27 70.5 -46.5t78.5 -30.5q42 -10 87 -10q54 0 105.5 16t93.5 44q-33 -28 -71 -52q-37 -23 -79 -39.5t-87 -25.5q-46 -9 -93 -9h-11.5h-10.5q-99 4 -186 45q-86 41 -150 108 t-101 155t-37 188q0 103 39 194q39 90 106 157t157 106q91 39 194 39h2q47 0 92 -9q45 -8 86.5 -24.5t79.5 -40.5q38 -23 71 -52q-43 28 -94 44t-106 16v0zM846 83q-61 -37 -131 -35t-133 46q42 17 78 50t62.5 79t41.5 104q15 57 15 121t-14 121q-15 57 -41 103.5t-62 79.5 t-80 50q63 44 133.5 46t132.5 -37q80 -74 120 -169q40 -96 40 -195.5t-41 -194.5q-40 -96 -121 -169v0z" />
</svg>