<svg viewBox="0 0 256 256" xmlns="http://www.w3.org/2000/svg">
  <path transform="scale(1, -1) translate(0, -256)" fill="currentColor" d="M163 186q8 2 17 8q12 7 20 18.5t9 23.5q0 2 -1 4t-3 3q-11 4 -24.5 2t-26 -10t-19.5 -17v15q0 4 -3 6l-20 11q-2 1 -5 0.5t-4.5 -3t-1 -5t3.5 -4.5l16 -9v-37q-24 -1 -44 -14t-31.5 -34t-11.5 -46t13 -46.5t34.5 -34t46.5 -12.5t46.5 12.5t34.5 34t13 47.5 q0 29 -16.5 52.5t-42.5 34.5zM162 223q8 5 16.5 7t15.5 1q-2 -7 -7.5 -14t-13.5 -12t-17 -7t-16 -1q2 7 8 14t14 12zM128 19q-22 0 -40 10.5t-29 29t-11 40t11 40t29 29t40 10.5t40 -10.5t29 -29t11 -40t-11 -40t-29 -29t-40 -10.5z" />
</svg>