<svg viewBox="0 0 256 256" xmlns="http://www.w3.org/2000/svg">
  <path transform="scale(1, -1) translate(0, -256)" fill="currentColor" d="M227 251h-197q-11 0 -18 -7t-7 -18v-197q0 -10 7 -17t18 -7h197q10 0 17 7t7 17v197q0 11 -7 18t-17 7zM227 19h-92v36q0 3 -2 5t-5 2t-5 -2t-2 -5v-36h-91q-5 0 -8 3t-3 7v92h37q3 0 5 2t2 5t-2 5t-5 2h-37v91q0 5 3 8t8 3h91v-37q0 -3 2 -5t5 -2t5.5 2t2.5 5v37h91 q4 0 7.5 -3t3.5 -8v-91h-37q-3 0 -5 -2t-2 -5t2 -5.5t5 -2.5h37v-91q-1 -4 -4 -7t-7 -3zM150 134h-15v17q0 3 -2 5t-5 2t-5.5 -2t-2.5 -5v-17h-14q-3 0 -5.5 -2t-2.5 -5t2.5 -5t5.5 -2h14v-17q0 -3 2.5 -5t5.5 -2t5 2t2 5v17h15q3 0 5 2t2 5t-2 5t-5 2z" />
</svg>