<svg viewBox="0 0 1024 1024" xmlns="http://www.w3.org/2000/svg">
  <path transform="scale(1, -1) translate(0, -960)" fill="currentColor" d="M907 928h-789q-36 0 -61 -25t-25 -61v-789q0 -36 25 -60.5t61 -24.5h789q36 0 60.5 25t24.5 60v789q0 36 -25 61t-60 25zM907 0h-379v1.5v1.5v155q0 8 -4.5 12t-11.5 4t-11.5 -4t-4.5 -12v-155v-1.5v-1.5h-378q-22 0 -38 15.5t-16 37.5v379h1.5h1.5h155q8 0 12 4.5 t4 11.5t-4 11.5t-12 4.5h-155h-1.5h-1.5v378q0 22 16 38t38 16h378v-1.5v-1.5v-155q0 -8 4.5 -12t11.5 -4t11.5 4t4.5 12v155v1.5v1.5h379q22 0 37.5 -16t15.5 -38v-378h-1.5h-1.5h-155q-8 0 -12 -4.5t-4 -11.5t4 -11.5t12 -4.5h155h1.5h1.5v-379q0 -22 -15.5 -37.5 t-37.5 -15.5zM598 462h-70v79q0 7 -4.5 11.5t-11.5 4.5t-11.5 -4.5t-4.5 -11.5v-79h-70q-8 0 -12 -4t-4 -12q0 -7 4 -11.5t12 -4.5h70v-78q0 -7 4.5 -11.5t11.5 -4.5t11.5 4.5t4.5 11.5v78h70q8 0 12 4.5t4 11.5q0 6 -4 11t-12 5z" />
</svg>