<svg viewBox="0 0 256 256" xmlns="http://www.w3.org/2000/svg">
  <path transform="scale(1, -1) translate(0, -256)" fill="currentColor" d="M226 251h-196q-8 0 -14 -5.5t-6 -13.5v-208q0 -8 6 -13.5t14 -5.5h196q8 0 14 5.5t6 13.5v208q0 8 -6 13.5t-14 5.5zM232 24q0 -2 -1.5 -3.5t-4.5 -1.5h-196q-2 0 -4 1.5t-2 3.5v208q0 2 2 3.5t4 1.5h196q3 0 4.5 -1.5t1.5 -3.5v-208zM88 200q0 9 -7 16t-16.5 7t-16.5 -7 t-7 -16.5t7 -16.5t16.5 -7t16.5 7t7 17zM55 200q0 4 3 6.5t6.5 2.5t6.5 -2.5t3 -6.5t-3 -7t-6.5 -3t-6.5 3t-3 7zM192 223q-10 0 -17 -7t-7 -16.5t7 -16.5t16.5 -7t16.5 7t7 16.5t-7 16.5t-16 7zM192 190q-4 0 -7 3t-3 6.5t3 6.5t6.5 3t6.5 -2.5t3 -6.5t-2.5 -7t-6.5 -3z M100 157h56q3 0 5.5 2t2.5 5t-2.5 5.5t-5.5 2.5h-56q-3 0 -5.5 -2.5t-2.5 -5.5t2.5 -5t5.5 -2zM187 136h-118q-8 0 -13.5 -6t-5.5 -14v-58q0 -7 5.5 -13t13.5 -6h118q8 0 13.5 5.5t5.5 13.5v58q0 8 -5.5 14t-13.5 6zM192 58q0 -2 -1.5 -3.5t-3.5 -1.5h-118q-2 0 -3.5 1.5 t-1.5 3.5v58q0 3 1.5 4.5t3.5 1.5h118q2 0 3.5 -1.5t1.5 -4.5v-58zM114 110l-6 -6q-5 -4 -5 -10t5 -10l-8 -9q-3 -2 -2.5 -5t2.5 -5t4.5 -2t4.5 2l8 8q4 4 4 10t-4 10l7 7q2 2 2 5t-2.5 5t-5 2t-4.5 -2zM146 110l-6 -6q-4 -4 -4 -10t4 -10l-8 -9q-2 -2 -2 -5t2 -5t5 -2t5 2 l8 8q4 4 4 10t-4 10l6 7q2 2 2 5t-2 5t-5 2t-5 -2z" />
</svg>