<svg viewBox="0 0 1024 1024" xmlns="http://www.w3.org/2000/svg">
  <path transform="scale(1, -1) translate(0, -960)" fill="currentColor" d="M989 618l-75 233q-9 27 -31 42.5t-49 15.5h-636q-26 0 -48 -15.5t-30 -40.5l-83 -234q-3 -6 -4 -12t-1 -12v-502q0 -45 31.5 -76t75.5 -31h747q45 0 76.5 31t31.5 76v504q-2 5 -3 10.5t-2 10.5v0zM883 840l71 -219h-426v256h306q18 0 31 -10t18 -27zM150 842 q6 15 19.5 25t30.5 10h296v-256h-426l80 221v0zM885 19h-746q-31 0 -53 22t-22 53v496h896v-496q0 -31 -22 -53t-53 -22v0z" />
</svg>