<svg viewBox="0 0 256 256" xmlns="http://www.w3.org/2000/svg">
  <path transform="scale(1, -1) translate(0, -256)" fill="currentColor" d="M232 221h-208q-8 0 -13.5 -5.5t-5.5 -13.5v-23q0 -7 3.5 -12t9.5 -6v-107q0 -8 6 -14t14 -6h180q8 0 14 6t6 14v107q6 2 9.5 7t3.5 11v23q0 8 -5.5 13.5t-13.5 5.5zM19 202q0 2 1.5 3.5t3.5 1.5h208q2 0 4 -1.5t2 -3.5v-23q0 -2 -2 -3.5t-4 -1.5h-208q-2 0 -3.5 1.5 t-1.5 3.5v23zM223 54q0 -2 -1.5 -3.5t-3.5 -1.5h-180q-3 0 -4.5 1.5t-1.5 3.5v106h191v-106zM56 58h22q4 0 7.5 3.5t3.5 8.5v21q0 5 -3.5 8t-7.5 3h-22q-5 0 -8 -3t-3 -8v-21q0 -5 3.5 -8.5t7.5 -3.5zM59 88h15v-15h-15v15z" />
</svg>