<svg viewBox="0 0 1024 1024" xmlns="http://www.w3.org/2000/svg">
  <path transform="scale(1, -1) translate(0, -960)" fill="currentColor" d="M928 808h-832q-26 0 -45 -19t-19 -45v-93q0 -24 16 -42t38 -20v-439q0 -26 19 -45t45 -19h724q26 0 45 19t19 45v440q22 4 38 21.5t16 41.5v93q0 26 -19 44t-45 18v0zM906 152q0 -13 -9.5 -22.5t-22.5 -9.5h-724q-13 0 -22.5 9.5t-9.5 22.5v437h788v-437zM960 653 q0 -13 -9.5 -22.5t-22.5 -9.5h-832q-13 0 -22.5 9.5t-9.5 22.5v93q0 13 9.5 22.5t22.5 9.5h832q13 0 22.5 -9.5t9.5 -22.5v-93zM224 182h86q14 0 23 9.5t9 22.5v87q0 13 -9 22.5t-23 9.5h-86q-13 0 -22.5 -9.5t-9.5 -22.5v-87q0 -13 9.5 -22.5t22.5 -9.5v0zM224 301h86v-87 h-86v87v0z" />
</svg>