<svg viewBox="0 0 256 256" xmlns="http://www.w3.org/2000/svg">
  <path transform="scale(1, -1) translate(0, -256)" fill="currentColor" d="M128 130q-5 2 -12 2q-12 0 -20 -7.5t-8 -20t9 -21.5l22 -23q4 -3 9 -3t9 3l23 24q8 8 8 20t-8 20q-6 7 -15 8.5t-17 -2.5zM150 94l-22 -22l-22 21q-4 5 -4 11.5t4 10t9 3.5t9 -2.5t8 0.5t9 2.5t9 -4.5t4 -10t-4 -10zM208 183h-30v18q0 21 -14.5 35.5t-35 14.5t-35.5 -15 t-15 -35v-18h-30q-11 0 -19 -8t-8 -19v-124q0 -11 8 -19t19 -8h160q11 0 19 8t8 19v124q0 11 -8 19t-19 8zM92 201q0 15 10.5 25.5t25.5 10.5t25.5 -10.5t10.5 -25.5v-18h-72v18zM221 32q0 -5 -4 -9t-9 -4h-160q-5 0 -9 4t-4 9v124q0 5 4 9t9 4h160q5 0 9 -4t4 -9v-124z" />
</svg>