<svg viewBox="0 0 256 256" xmlns="http://www.w3.org/2000/svg">
  <path transform="scale(1, -1) translate(0, -256)" fill="currentColor" d="M137 176q-11 0 -18.5 -8t-7.5 -18v-13h-7q-3 0 -5 -2t-2 -5v-38q0 -3 2 -5t5 -2h66q3 0 5 2t2 5v39q0 3 -2 5t-5 2h-7v12q0 11 -7.5 18.5t-18.5 7.5zM125 150q0 4 3.5 8t8.5 4t8.5 -3.5t3.5 -8.5v-13h-23v13h-1zM163 99h-52v25h52v-25zM137 240q-23 0 -45 -9.5t-38 -26.5 q-2 -2 -1.5 -5t2.5 -5t5 -2t5 2q14 15 33 23.5t39 8.5q27 0 49.5 -13t36 -36t13.5 -49.5t-13.5 -49t-36 -36t-49.5 -13.5q-32 0 -57.5 18.5t-35.5 49.5l22 -9q3 -2 5.5 -0.5t3.5 4t0 5.5t-4 4l-28 11q-7 3 -14.5 0t-10.5 -10l-11 -28q-1 -3 0 -5.5t4 -4.5h3q4 0 6 4l10 26 v-1q12 -35 41.5 -56t65.5 -21q31 0 56.5 15t41 41t15.5 56t-15.5 56t-41 41t-56.5 15z" />
</svg>