<svg viewBox="0 0 1024 1024" xmlns="http://www.w3.org/2000/svg">
  <path transform="scale(1, -1) translate(0, -960)" fill="currentColor" d="M512 442q-11 6 -23.5 9t-24.5 3q-19 0 -36.5 -7t-32.5 -20q-14 -13 -22.5 -31.5t-9.5 -38.5q0 -22 8.5 -42.5t23.5 -36.5l90 -89q6 -6 13 -8.5t14 -2.5t14 2.5t13 8.5l93 93q14 14 22 32.5t8 39.5q0 20 -8 38.5t-22 33.5q-24 22 -57.5 26.5t-62.5 -10.5v0zM610 302 l-93 -92q-3 -3 -5 -3t-5 3l-91 89q-11 11 -16.5 26t-5.5 30t5.5 27.5t14.5 20.5q10 9 22 13.5t25 4.5v0v0q11 0 20.5 -3.5t19.5 -9.5q3 -2 8.5 -2t8.5 2q21 14 45.5 12t42.5 -20q10 -10 15.5 -22.5t5.5 -27.5q1 -13 -3.5 -25.5t-13.5 -22.5v0zM832 654h-131v85 q0 78 -55.5 133.5t-133.5 55.5t-133.5 -55.5t-55.5 -133.5v-85h-131q-40 0 -68 -28t-28 -68v-494q0 -40 28 -68t68 -28h640q40 0 68 28t28 68v494q0 40 -28 68t-68 28zM355 739q0 65 46 111t111 46t111 -46t46 -111v-85h-314v85v0zM896 64q0 -26 -19 -45t-45 -19h-640 q-26 0 -45 19t-19 45v494q0 27 19 45.5t45 18.5h640q26 0 45 -18.5t19 -45.5v-494z" />
</svg>