<svg viewBox="0 0 1024 1024" xmlns="http://www.w3.org/2000/svg">
  <path transform="scale(1, -1) translate(0, -960)" fill="currentColor" d="M845 627l-299 282q-10 9 -22.5 14t-25.5 5h-272q-29 0 -49 -20t-20 -49v-822q0 -29 20 -49t49 -20h569q29 0 49 20t20 49v542q1 15 -4.5 27.5t-14.5 20.5v0zM811 616h-246q-16 0 -26.5 10.5t-10.5 24.5v231zM834 37q0 -16 -11 -26.5t-26 -10.5h-570q-15 0 -26 10.5 t-11 26.5v822q0 16 11 26.5t26 10.5h269v-246q0 -28 20 -48t49 -20h269v-2v-1v-542v0zM616 360h-16l6 32q2 6 -2 12t-10 7t-12 -3t-8 -10l-6 -36h-123l6 32q1 6 -3 12t-10 7t-12 -3t-7 -10l-6 -37h-18q-7 0 -11.5 -4.5t-4.5 -11.5t4.5 -11.5t11.5 -4.5h13l-19 -102h-27 q-8 0 -12 -4.5t-4 -11.5t4 -11.5t12 -4.5h20l-9 -37q-1 -6 3 -12t10 -7h1.5h1.5q6 0 10.5 3.5t5.5 9.5l8 40h123l-6 -34q-2 -6 2 -12t10 -7h2h2q6 0 10 3.5t6 9.5l8 40h16q7 0 11.5 4t4.5 12q0 7 -4.5 11.5t-11.5 4.5h-10l19 102h23q7 0 11.5 4.5t4.5 11.5t-5.5 11.5 t-12.5 4.5v0zM542 226h-123l19 102h124z" />
</svg>