<svg viewBox="0 0 256 256" xmlns="http://www.w3.org/2000/svg">
  <path transform="scale(1, -1) translate(0, -256)" fill="currentColor" d="M213 175l-75 71q-5 5 -14 5h-68q-8 0 -14 -6t-6 -14v-205q0 -9 6 -14.5t14 -5.5h143q8 0 14 5.5t6 14.5v135q0 9 -6 14zM135 230l61 -57h-55q-2 0 -4 1.5t-2 3.5v52zM199 19h-142q-3 0 -4.5 1.5t-1.5 4.5v206q0 2 1.5 4t4.5 2h64v-59q0 -8 6 -13.5t14 -5.5h65v-134 q-1 -3 -2.5 -4.5t-4.5 -1.5zM154 109v0v4q1 3 -0.5 5.5t-4.5 3t-5.5 -1t-2.5 -4.5l-1 -7h-25l1 4q0 3 -1.5 5.5t-4.5 3t-5.5 -1t-2.5 -4.5l-1 -7h-2q-3 0 -5 -2t-2 -5t1.5 -5t4.5 -2l-4 -20h-4q-3 0 -5 -2t-2 -5t2 -5t5 -2h2l-1 -5q-1 -3 0.5 -5.5t4.5 -2.5h2q2 0 4 1.5 t2 4.5l2 7h25l-1 -5q-1 -3 1 -5t5 -3h1q2 0 4 2t3 4l1 8h2q3 0 5 2t2 5t-1.5 4.5t-4.5 2.5l4 19h3q3 0 5 2t2 5t-2.5 5t-5.5 2zM133 76h-25l4 19h25z" />
</svg>