<svg viewBox="0 0 1024 1024" xmlns="http://www.w3.org/2000/svg">
  <path transform="scale(1, -1) translate(0, -960)" fill="currentColor" d="M826 928h-628q-33 0 -56.5 -23t-23.5 -57v-800q0 -34 23.5 -57t56.5 -23h628q33 0 56.5 23t23.5 57v800q0 34 -24 57t-56 23zM874 48q0 -20 -14 -34t-34 -14h-628q-20 0 -34 14t-14 34v800q0 20 14 34t34 14h628q20 0 34 -14t14 -34v-800zM736 803h-182q-14 0 -23 -9.5 t-9 -22.5v-221q0 -13 9 -22.5t23 -9.5h182q13 0 22.5 9.5t9.5 22.5v221q0 13 -9.5 22.5t-22.5 9.5zM554 550v221h182v-221h-182zM275 742h122q7 0 11.5 4.5t4.5 11.5q0 8 -4.5 12t-11.5 4h-122q-7 0 -11.5 -4t-4.5 -12q0 -7 4.5 -11.5t11.5 -4.5v0zM275 533h122 q7 0 11.5 4.5t4.5 11.5t-4.5 11.5t-11.5 4.5h-122q-7 0 -11.5 -4.5t-4.5 -11.5t4.5 -11.5t11.5 -4.5v0zM752 354h-477q-7 0 -11.5 -4.5t-4.5 -11.5q0 -8 4.5 -12t11.5 -4h477q7 0 11.5 4t4.5 12q0 7 -5 11.5t-11 4.5zM752 142h-477q-7 0 -11.5 -4t-4.5 -12q0 -7 4.5 -11.5 t11.5 -4.5h477q7 0 11.5 4.5t4.5 11.5q0 8 -5 12t-11 4z" />
</svg>