<svg viewBox="0 0 256 256" xmlns="http://www.w3.org/2000/svg">
  <path transform="scale(1, -1) translate(0, -256)" fill="currentColor" d="M206 251h-156q-10 0 -16.5 -6.5t-6.5 -16.5v-200q0 -10 6.5 -16.5t16.5 -6.5h157q9 0 16 6.5t7 16.5v200q-1 10 -7.5 16.5t-16.5 6.5zM215 28q0 -4 -2.5 -6.5t-6.5 -2.5h-156q-4 0 -7 2.5t-3 6.5v200q0 4 3 6.5t7 2.5h156q4 0 7 -2.5t3 -6.5v-200h-1zM184 220h-46 q-4 0 -7.5 -3.5t-3.5 -8.5v-55q0 -4 3.5 -7.5t7.5 -3.5h46q5 0 8 3t3 8v56q0 4 -3.5 7.5t-7.5 3.5zM181 156h-39v50h39v-50zM69 199h30q3 0 5 2t2 5t-2 5t-5 2h-30q-3 0 -5 -2t-2 -5t2 -5t5 -2zM69 146h30q3 0 5 2t2 5t-2 5t-5 2h-30q-3 0 -5 -2t-2 -5t2 -5t5 -2zM188 108 h-119q-3 0 -5 -2.5t-2 -5.5t2 -5t5 -2h119q3 0 5 2t2 5t-2 5.5t-5 2.5zM188 55h-119q-3 0 -5 -2t-2 -5t2 -5.5t5 -2.5h119q3 0 5 2.5t2 5.5t-2 5t-5 2z" />
</svg>