<svg viewBox="0 0 1024 1024" xmlns="http://www.w3.org/2000/svg">
  <path transform="scale(1, -1) translate(0, -960)" fill="currentColor" d="M984 467l-173 173q-5 5 -11 5t-11 -5t-5 -11.5t5 -10.5l169 -170l-169 -170q-5 -4 -5 -10.5t5 -11.5q2 -2 5.5 -3.5t5.5 -1.5q4 0 6.5 1.5t4.5 3.5l173 174q8 8 8 18.5t-8 18.5v0zM235 640q-5 5 -11 5t-11 -5l-173 -173q-7 -7 -7 -18t7 -19l173 -174q2 -2 5.5 -3.5 t5.5 -1.5q4 0 6.5 1.5t4.5 3.5q5 5 5 11.5t-5 10.5l-169 170l169 170q5 4 5 10.5t-5 11.5v0zM344 493q-19 0 -32 -13.5t-13 -31.5t13.5 -31.5t31.5 -13.5q19 0 32 13.5t13 31.5t-13 31.5t-32 13.5v0zM562 448q0 -19 -13.5 -32t-31.5 -13q-19 0 -32 13t-13 32t13 32t32 13 q18 0 31.5 -13t13.5 -32v0zM738 448q0 -19 -13.5 -32t-31.5 -13q-19 0 -32 13t-13 32t13 32t32 13q18 0 31.5 -13t13.5 -32v0z" />
</svg>