<svg viewBox="0 0 256 256" xmlns="http://www.w3.org/2000/svg">
  <path transform="scale(1, -1) translate(0, -256)" fill="currentColor" d="M248 135l-43 43q-2 3 -5 3t-5 -2.5t-2 -5t2 -5.5l40 -40l-40 -40q-2 -2 -2 -5t2 -5t4.5 -2t4.5 2l44 43q3 3 3 7t-3 7zM61 178q-2 2 -5 2.5t-5 -2.5l-43 -43q-3 -3 -3 -7t3 -7l43 -43q2 -2 5 -2t5 2t2 4.5t-2 5.5l-40 40l40 40q2 3 2 5.5t-2 4.5zM86 139q-5 0 -8 -3 t-3 -7.5t3.5 -8t8 -3.5t7.5 3t3 8t-3 8t-8 3zM118 128q0 -5 3.5 -8t8 -3t7.5 3t3 8t-3 8t-7.5 3t-8 -3t-3.5 -8zM162 128q0 -5 3.5 -8t8 -3t7.5 3t3 8t-3 8t-7.5 3t-8 -3t-3.5 -8z" />
</svg>