<svg viewBox="0 0 256 256" xmlns="http://www.w3.org/2000/svg">
  <path transform="scale(1, -1) translate(0, -256)" fill="currentColor" d="M229 203h-202q-9 0 -15.5 -6.5t-6.5 -15.5v-107q0 -9 6.5 -15.5t15.5 -6.5h202q9 0 15.5 6.5t6.5 15.5v108q0 9 -6.5 15t-15.5 6zM237 74q0 -3 -2 -5.5t-6 -2.5h-202q-3 0 -5.5 2.5t-2.5 5.5v108q0 3 2.5 5.5t5.5 2.5h202q3 0 5.5 -2.5t2.5 -5.5v-108zM72 160h-27 q-3 0 -5 -2.5t-2 -5.5v-52q0 -3 2 -5t5 -2t5 2t2 5v22h20q3 0 5 2t2 5v23q0 3 -2 5.5t-5 2.5zM65 136h-13v10h13v-10zM125 160h-27q-3 0 -5 -2.5t-2 -5.5v-52q0 -3 2 -5t5 -2t5 2t2 5v22h13v-22q0 -3 2 -5t5 -2t5 2t2 5v52q0 3 -2 5.5t-5 2.5zM105 146h13v-10h-13v10z M153 162q-3 0 -5 -2t-2 -5v-54q0 -3 2 -5t5 -2t5 2t2 5v54q0 3 -2 5t-5 2zM208 157q-2 3 -5 3h-20q-3 0 -5 -2.5t-2 -5.5v-50q0 -3 2 -5t5 -2h20q3 0 5 3l13 16q2 2 2 4v20q0 3 -2 5zM208 121l-9 -12h-9v37h10l8 -10v-15z" />
</svg>