<svg viewBox="0 0 1024 1024" xmlns="http://www.w3.org/2000/svg">
  <path transform="scale(1, -1) translate(0, -960)" fill="currentColor" d="M917 738h-810q-31 0 -53 -22t-22 -54v-427q0 -31 22 -53t53 -22h810q31 0 53 22t22 53v427q0 32 -22 54t-53 22zM960 234q0 -18 -12.5 -31t-30.5 -13h-810q-18 0 -30.5 13t-12.5 31v428q0 18 12.5 31t30.5 13h810q18 0 30.5 -13t12.5 -31v-428zM286 563h-107 q-7 0 -11.5 -4.5t-4.5 -11.5v-208q0 -7 4.5 -11.5t11.5 -4.5t11.5 4.5t4.5 11.5v98h91q8 0 12 4.5t4 11.5v93q0 7 -4 12t-12 5zM270 469h-75v61h75v-61zM499 563h-107q-7 0 -11.5 -4.5t-4.5 -11.5v-208q0 -7 4.5 -11.5t11.5 -4.5t11.5 4.5t4.5 11.5v98h75v-98 q0 -7 4.5 -11.5t11.5 -4.5t11.5 4.5t4.5 11.5v207q0 7 -4.5 12t-11.5 5v0zM408 531h75v-61h-75v61zM611 573q-7 0 -11.5 -4.5t-4.5 -11.5v-218q0 -7 4.5 -11.5t11.5 -4.5t11.5 4.5t4.5 11.5v218q0 7 -5 11.5t-11 4.5v0zM822 557q-2 2 -5 3.5t-6 1.5h-80q-7 0 -11.5 -4.5 t-4.5 -11.5v-202q0 -7 4.5 -11.5t11.5 -4.5h80q4 0 7.5 1.5t5.5 4.5l51 64q1 3 2 5.5t1 4.5v82q0 2 -1 5t-3 6zM845 414l-42 -54h-56v171h58l41 -46v-71h-1z" />
</svg>