<svg viewBox="0 0 1024 1024" xmlns="http://www.w3.org/2000/svg">
  <path transform="scale(1, -1) translate(0, -960)" fill="currentColor" d="M834 928h-644q-20 0 -34 -14t-14 -34v-157q0 -20 14 -34t34 -14h605l-270 -241q-10 -9 -15.5 -21.5t-5.5 -25.5v-73h-38q-21 0 -34.5 -14t-13.5 -34v-250q0 -20 13.5 -34t34.5 -14h108q21 0 34.5 14t13.5 34v251q0 21 -13.5 34.5t-34.5 13.5h-38v74q0 6 2.5 11.5 t7.5 10.5l299 267q15 4 26 17t11 30v155q0 20 -14 34t-34 14v0zM590 267v-251q0 -7 -4 -11.5t-12 -4.5h-108q-8 0 -12 4.5t-4 11.5v251q0 7 4 11.5t12 4.5h54v0v0v0v0h54q8 0 12 -5t4 -11zM174 723v157q0 7 4.5 11.5t11.5 4.5h644q7 0 11.5 -4.5t4.5 -11.5v-157 q0 -7 -4.5 -11.5t-11.5 -4.5h-644q-7 0 -11.5 5t-4.5 11v0z" />
</svg>