<svg viewBox="0 0 256 256" xmlns="http://www.w3.org/2000/svg">
  <path transform="scale(1, -1) translate(0, -256)" fill="currentColor" d="M207 220h-9v16q0 6 -4.5 10.5t-10.5 4.5h-163q-6 0 -10.5 -4.5t-4.5 -10.5v-47q0 -6 4.5 -10.5t10.5 -4.5h164q6 0 10.5 4.5t4.5 10.5v17h9q12 0 21 -9t9 -21.5t-9 -21t-21 -8.5h-80q-7 0 -12.5 -5.5t-5.5 -12.5v-25h-6q-6 0 -10.5 -4.5t-4.5 -10.5v-68q0 -6 4.5 -10.5 t10.5 -4.5h26q7 0 11.5 4.5t4.5 10.5v68q0 7 -4.5 11.5t-11.5 4.5h-6v24q0 2 1 3t3 1h79q18 0 31 12.5t13 31t-13 31.5t-31 13zM184 189q0 -1 -1 -1h-163q-1 0 -1 1v47q0 1 1 1h163q1 0 1 -1v-47zM132 88v-68q0 -1 -2 -1h-26q-1 0 -1 1v68q0 2 1 2h26q2 -1 2 -2z" />
</svg>