<svg viewBox="0 0 1024 1024" xmlns="http://www.w3.org/2000/svg">
  <path transform="scale(1, -1) translate(0, -960)" fill="currentColor" d="M912 730h-56v112q0 26 -19 45t-45 19h-576q-26 0 -45 -19t-19 -45v-104h-85v51q0 7 -4.5 11.5t-11.5 4.5t-11.5 -4.5t-4.5 -11.5v-131q0 -8 4.5 -12t11.5 -4t11.5 4t4.5 12v48h83v-104q0 -27 19 -45.5t45 -18.5h576q27 0 45.5 18.5t18.5 45.5v96h58q20 0 34 -14.5 t14 -33.5v-154q0 -16 -8.5 -28t-21.5 -17l-452 -177h-14q-28 0 -48.5 -20t-20.5 -49v-147q0 -28 20 -48.5t49 -20.5h37q27 0 48 20t21 49v147q0 18 -9 32.5t-22 23.5l403 158q23 10 37.5 30t14.5 45v152q-2 35 -26 59.5t-56 24.5v0zM824 602q0 -14 -9.5 -23t-22.5 -9h-576 q-13 0 -22.5 9t-9.5 23v240q0 13 9.5 22.5t22.5 9.5h576q13 0 22.5 -9.5t9.5 -22.5v-240zM536 58q0 -15 -10.5 -26t-26.5 -11h-37q-14 0 -25 10.5t-11 26.5v147q0 14 10.5 25.5t25.5 11.5h37q15 0 26 -11t11 -26v-147v0z" />
</svg>