<svg viewBox="0 0 1024 1024" xmlns="http://www.w3.org/2000/svg">
  <path transform="scale(1, -1) translate(0, -960)" fill="currentColor" d="M891 802h-25v80q0 19 -12.5 32.5t-29.5 13.5h-539q-17 0 -29.5 -13.5t-12.5 -32.5v-80h-85q-16 0 -28.5 -12.5t-12.5 -29.5v-243q0 -17 12.5 -29.5t28.5 -12.5h455q3 0 6 -3t3 -6v-85h-48q-15 0 -25.5 -11.5t-10.5 -28.5v-333q0 -17 10.5 -28.5t25.5 -11.5h128 q16 0 26.5 11.5t10.5 28.5v333q0 17 -10.5 28.5t-26.5 11.5h-48v83q0 17 -12 29.5t-29 12.5h-455q-3 0 -6 3t-3 6v245q0 4 3 7t6 3h85v-80q0 -20 12.5 -33.5t29.5 -13.5h539q17 0 29.5 13.5t12.5 33.5v80h25q7 0 11.5 4t4.5 12q0 7 -4.5 11.5t-11.5 4.5zM707 341v-333 q0 -4 -1.5 -6t-3.5 -2h-128q-1 0 -2.5 2t-1.5 6v333q0 3 1.5 5.5t2.5 2.5h128q2 -1 3.5 -3.5t1.5 -4.5zM834 690q0 -8 -3 -11.5t-7 -3.5h-539q-4 0 -7 4.5t-3 10.5v192q0 6 3 10t7 4h539q4 0 7 -4t3 -10v-192z" />
</svg>