<svg viewBox="0 0 256 256" xmlns="http://www.w3.org/2000/svg">
  <path transform="scale(1, -1) translate(0, -256)" fill="currentColor" d="M228 201h-11v25q0 8 -5.5 14t-13.5 6h-144q-8 0 -14 -6t-6 -14v-23h-14v10q0 3 -2.5 5t-5.5 2t-5 -2t-2 -5v-33q0 -3 2 -5t5 -2t5.5 2t2.5 5v9h14v-23q0 -8 6 -13.5t14 -5.5h144q7 0 13 5.5t6 13.5v21h11q4 0 6.5 -2.5t2.5 -6.5v-38q0 -6 -6 -8l-112 -44h-3q-8 0 -14 -6 t-6 -14v-37q0 -9 6 -14.5t14 -5.5h9q9 0 14.5 5.5t5.5 14.5v37q0 7 -5 13l96 38q7 3 11 8.5t4 12.5v38q0 10 -7 16.5t-16 6.5zM203 166q0 -2 -1.5 -3.5t-3.5 -1.5h-144q-2 0 -4 1.5t-2 3.5v60q0 3 1.5 4.5t4.5 1.5h144q2 0 3.5 -1.5t1.5 -4.5v-60zM131 30q0 -2 -2 -4t-4 -2 h-9q-3 0 -4.5 2t-1.5 4v37q0 3 1.5 4.5t4.5 1.5h9q2 0 4 -1.5t2 -4.5v-37z" />
</svg>