<svg viewBox="0 0 256 256" xmlns="http://www.w3.org/2000/svg">
  <path transform="scale(1, -1) translate(0, -256)" fill="currentColor" d="M223 219h-4v17q0 6 -4 10.5t-9 4.5h-135q-5 0 -9 -4.5t-4 -10.5v-16h-18q-6 0 -10 -4t-4 -10v-61q0 -6 4 -9.5t10 -3.5h113v-18h-9q-5 0 -8.5 -3.5t-3.5 -9.5v-83q0 -5 3.5 -9t8.5 -4h32q5 0 8.5 4t3.5 9v83q0 6 -3.5 9.5t-8.5 3.5h-9v18q0 6 -4 10t-9 4h-114v60h18v-17 q0 -6 4 -10.5t9 -4.5h135q6 0 10 4.5t4 10.5v17h3q3 0 5 2t2 5t-2 4.5t-5 1.5zM174 19h-28v81h28v-81zM205 188v0h-133v49h133v-49z" />
</svg>