<svg viewBox="0 0 256 256" xmlns="http://www.w3.org/2000/svg">
  <path transform="scale(1, -1) translate(0, -256)" fill="currentColor" d="M208 251h-160q-7 0 -11.5 -4.5t-4.5 -10.5v-39q0 -6 4.5 -10.5t11.5 -4.5h143l-62 -55q-6 -6 -6 -14v-15h-7q-6 0 -10.5 -4.5t-4.5 -10.5v-63q0 -6 4.5 -10.5t10.5 -4.5h27q7 0 11 4.5t4 10.5v63q0 6 -4.5 10.5t-10.5 4.5h-7v15q0 2 2 3l74 67q5 1 8 5t3 9v39 q0 6 -4 10.5t-11 4.5zM144 83v-63q0 -1 -1 -1h-27q-1 0 -1 1v63q0 1 1 1h27zM46 197v39q0 1 2 1h160q2 0 2 -1v-39q0 -1 -1 -1h-161q-2 0 -2 1z" />
</svg>