<svg viewBox="0 0 256 256" xmlns="http://www.w3.org/2000/svg">
  <path transform="scale(1, -1) translate(0, -256)" fill="currentColor" d="M226 77l-1 1q-5 3 -15 6v0q-7 1 -9 3v1q-4 3 -4 9t4 9l16 16q14 14 18.5 32t0 36t-18.5 32t-32.5 21.5t-40.5 7.5q-24 0 -47.5 -10t-41.5 -28t-27 -40t-9 -46.5t9 -47t26.5 -39.5t39.5 -26t46.5 -9t46.5 9.5t39 26.5q4 4 6 8.5t2 9.5q0 11 -8 18zM216 51 q-15 -15 -34.5 -23.5t-41.5 -8.5q-45 0 -76 32q-16 14 -24 34t-8 42q0 45 32 76q16 16 37 25t42 9q19 0 35 -6.5t28 -18.5q17 -17 17 -40t-17 -40l-16 -16q-8 -8 -8 -19.5t8 -18.5q4 -5 15 -8h1q6 -2 9 -4t3 -7q1 -2 0.5 -4t-2.5 -4zM160 138q-5 0 -8 -3t-3 -7t3 -7t7.5 -3 t7.5 3t3 7t-3 7t-7 3zM191 165q0 6 -4.5 11t-11 5t-11.5 -5t-5 -11.5t5 -11t11.5 -4.5t11 4.5t4.5 11.5zM107 191q0 -9 6 -15t15 -6t15 6t6 15t-6 15t-15 6t-15 -6t-6 -15z" />
</svg>