<svg viewBox="0 0 1024 1024" xmlns="http://www.w3.org/2000/svg">
  <path transform="scale(1, -1) translate(0, -960)" fill="currentColor" d="M894 235l-1 2q-9 5 -20 10t-36 12v0q-13 3 -25.5 8.5t-16.5 7.5l-1 2q-9 8 -13.5 20t-4.5 26q0 13 4.5 25t13.5 22l65 65q40 40 60 89q19 50 19 101t-19 101q-20 50 -60 90q-54 54 -127.5 83t-157.5 29q-46 0 -93 -10t-92 -29t-87 -47q-41 -27 -78 -63q-34 -35 -60 -73 q-26 -39 -43.5 -81.5t-26.5 -87.5q-9 -46 -9 -94t9 -94t27 -88.5t44 -80.5q26 -39 61 -71q34 -35 72 -61q39 -27 81 -44.5t88 -26.5t95 -9q47 0 93 9q45 9 87.5 27t81.5 44q38 27 72 61q12 12 19 28.5t7 33.5q0 19 -7 36t-21 28v0zM874 131q-32 -32 -68 -56 q-37 -25 -76.5 -41.5t-81.5 -24.5q-43 -9 -86 -9q-45 0 -88 8q-43 9 -82.5 25t-75.5 41q-36 24 -68 56q-32 30 -56 66q-25 36 -41.5 75.5t-25.5 82.5q-8 43 -8 88t8 87q8 43 24.5 82.5t40.5 75.5q25 36 56 68q35 34 74 60t81 44t86 28q44 9 87 9q77 0 144.5 -27t118.5 -77 q35 -36 53 -80q18 -43 18 -88.5t-18 -88.5q-18 -44 -53 -79l-66 -66q-13 -13 -20 -31t-7 -37q0 -21 7 -38.5t19 -30.5q10 -13 32.5 -19.5t26.5 -7.5q21 -5 30 -9.5t16 -8.5q7 -6 11 -16t4 -22q0 -9 -4.5 -20.5t-11.5 -18.5v0zM638 490q-18 0 -29.5 -12.5t-11.5 -29.5 t12.5 -29.5t28.5 -12.5q18 0 30 12.5t12 29.5t-12 29.5t-30 12.5zM765 595q0 27 -19 45.5t-45 18.5q-27 0 -45.5 -18.5t-18.5 -45.5q0 -26 18.5 -45t45.5 -19q26 0 45 19t19 45zM597 701q0 -35 -25 -60t-60 -25t-60 25t-25 60t25 60t60 25t60 -25t25 -60z" />
</svg>