<svg viewBox="0 0 1024 1024" xmlns="http://www.w3.org/2000/svg">
  <path transform="scale(1, -1) translate(0, -960)" fill="currentColor" d="M958 163h-80q15 15 23 34t8 40q0 29 -14.5 52.5t-36.5 36.5q4 4 9 7.5t10 7.5q15 15 22.5 34t7.5 41q0 29 -14 52.5t-37 37.5q5 3 9.5 6.5t9.5 7.5q16 16 23.5 35t7.5 40q0 45 -31.5 75.5t-74.5 30.5h-243q8 11 12.5 23t4.5 26q0 28 -16 49t-41 28q13 27 35 44t46 20 q6 1 10 6.5t3 11.5t-6 13t-11 6q-35 -6 -64.5 -31t-46.5 -62q-30 -3 -50 -26t-20 -54q0 -14 4.5 -26.5t12.5 -22.5h-208q-21 0 -40 -8t-35 -23q-15 -15 -22.5 -34t-7.5 -41q0 -29 14 -52.5t37 -37.5q-5 -3 -9.5 -6.5t-9.5 -7.5q-16 -16 -23.5 -35t-7.5 -40q0 -29 14.5 -53 t37.5 -37q-5 -3 -10 -7t-10 -7q-15 -16 -22.5 -35t-7.5 -40q0 -22 8 -41t22 -33h-84q-8 0 -12 -4.5t-4 -11.5v-37q0 -59 41.5 -100.5t100.5 -41.5h640q59 0 100.5 41.5t41.5 100.5v37q0 4 -5 7.5t-11 3.5zM875 419q0 -14 -5.5 -28t-16.5 -25q-11 -10 -24 -16t-29 -6h-74 q2 5 2 10v11v128h72q31 0 53 -22t22 -52v0zM445 755q0 21 14.5 35.5t34.5 14.5v0v0v0v0q21 0 35.5 -14.5t14.5 -35.5q0 -20 -14 -34t-34 -15h-2q-21 0 -35 14.5t-14 34.5v0zM149 598q0 15 5.5 28.5t16.5 24.5t24 17t29 6h270h0.5h1.5t0.5 0t1.5 0h307q31 0 52 -22t21 -52 q0 -14 -5.5 -28t-16.5 -25t-24 -16.5t-29 -5.5h-88q-7 0 -11.5 -4.5t-4.5 -11.5v-144q0 -9 -1.5 -16t-6.5 -13q-2 -4 -4.5 -8t-6.5 -6q-8 -9 -20 -13.5t-25 -4.5q-18 0 -32.5 9t-23.5 25q-3 6 -4.5 13t-1.5 15v144q0 8 -4.5 12t-11.5 4h-335q-30 -1 -51.5 20.5t-21.5 51.5v0 zM149 419q0 15 5.5 28.5t16.5 24.5t24 16.5t29 5.5h317v-128q0 -4 0.5 -10t0.5 -10h-320q-30 -2 -51.5 20t-21.5 53v0zM149 238q0 15 5.5 28.5t16.5 24.5t24 17t29 6h333q13 -20 33.5 -31t44.5 -11q19 0 36.5 7t30.5 20q4 4 6.5 7.5t5.5 7.5h88q31 0 52 -22t21 -52 q0 -14 -5.5 -28t-16.5 -25t-24 -16t-27 -6h-580q-31 -1 -52 20.5t-21 52.5v0zM942 110q0 -45 -32 -77.5t-78 -32.5h-640q-46 0 -78 32.5t-32 77.5v21h139h0.5h0.5h578h1h1h139v-21h1z" />
</svg>