<svg viewBox="0 0 256 256" xmlns="http://www.w3.org/2000/svg">
  <path transform="scale(1, -1) translate(0, -256)" fill="currentColor" d="M240 60h-14q4 8 4 16q0 14 -10 22l2 2q8 8 8 21t-10 22l2 1q9 9 9 21t-9 21t-21 9h-56q2 4 2 9q0 7 -3.5 12.5t-9.5 8.5q6 9 16 11q3 1 4.5 3.5t1 5t-2.5 4.5t-5 1q-9 -1 -17 -7.5t-13 -16.5q-7 0 -12.5 -6.5t-5.5 -14.5q0 -5 2 -9h-46q-12 0 -21 -9t-9 -22t10 -21l-2 -2 q-8 -9 -8 -22t10 -21l-2 -2q-9 -9 -9 -21q0 -8 5 -15h-14q-3 0 -5 -2t-2 -5v-10q0 -16 11.5 -27t27.5 -11h160q16 0 27.5 11t11.5 27v10q-1 2 -3 4t-4 2zM216 121q0 -6 -4 -11t-12 -5h-15v31h15q7 0 11.5 -4.5t4.5 -10.5zM114 205q0 4 2.5 6.5t6.5 2.5t6.5 -2.5t2.5 -6.5 t-2.5 -6.5t-6.5 -2.5v0q-4 0 -6.5 2.5t-2.5 6.5zM40 166q0 6 4 10.5t12 4.5h144q6 0 11 -4.5t5 -11t-4.5 -11t-11.5 -4.5h-22q-3 0 -5 -2t-2 -5v-36q0 -4 -1 -5.5t-3 -3.5q-3 -4 -9 -4q-8 0 -11 7q-2 3 -2 6v36q0 3 -2 5t-5 2h-82q-7 0 -11.5 4.5t-4.5 11.5zM40 121 q0 6 4 10.5t12 4.5h76v-31h-76q-7 0 -11.5 4.5t-4.5 11.5zM40 76q0 6 4.5 10.5t11.5 4.5h81q4 -5 9.5 -7.5t11.5 -2.5q12 0 19 7l3 3h20q6 0 11 -4.5t5 -11t-4.5 -11t-11.5 -4.5h-144q-7 0 -11.5 4.5t-4.5 11.5zM232 44q0 -11 -7 -18t-17 -7h-160q-10 0 -17.5 7t-7.5 18v2 h209v-2z" />
</svg>