<svg viewBox="0 0 256 256" xmlns="http://www.w3.org/2000/svg">
  <path transform="scale(1, -1) translate(0, -256)" fill="currentColor" d="M129 225q-9 0 -17.5 -3.5t-15.5 -9.5q-13 -13 -13 -32q0 -12 5.5 -22t15.5 -17q2 -1 2 -5v-7q0 -8 6 -13.5t14 -5.5h4q8 0 14 5.5t6 13.5v8q0 3 2 4q10 6 15.5 16t5.5 21q1 18 -12 32t-32 15zM130 124h-4q-2 0 -4 1.5t-2 3.5v7h16v-7q0 -2 -2 -3.5t-4 -1.5zM144 153 l-2 -2l-2 -1h-24l-1 1q-2 2 -3 2q-7 4 -11 11t-4 16q0 13 9 22t22 9v0q14 -1 22.5 -10t8.5 -22q0 -8 -4 -15t-11 -11zM190 251h-124q-12 0 -21 -9t-9 -21v-126q0 -9 7 -15l75 -70q5 -6 14 -6h58q12 0 21 9t9 21v188q-1 12 -9.5 20.5t-20.5 8.5zM61 83h54q2 0 4 -1.5t2 -3.5 v-51zM205 34q0 -6 -4.5 -10.5t-10.5 -4.5h-55v59q0 8 -6 13.5t-14 5.5h-64v125q0 6 4.5 10.5t10.5 4.5h124q7 0 11.5 -4.5t4.5 -10.5v-188h-1z" />
</svg>