<svg viewBox="0 0 256 256" xmlns="http://www.w3.org/2000/svg">
  <path transform="scale(1, -1) translate(0, -256)" fill="currentColor" d="M132 5h-2q-14 0 -28 5t-23.5 14t-15 21t-5.5 25v129q0 13 6 24t17 18.5t23.5 9t25.5 -2.5l3 -1q3 -1 5 -2q14 -7 21.5 -19.5t7.5 -26.5v-110q0 -17 -10 -28l-3 -3q-11 -10 -26 -10q-8 0 -15.5 3.5t-12.5 9.5q-10 12 -10 29v92q0 3 2 5t5 2t5 -2t2 -5v-92q0 -12 7 -20 t16.5 -8t16.5 6l2 2q7 9 7 20v109q0 11 -5.5 19.5t-16.5 13.5l-5 3q-9 3 -19 1.5t-18 -6.5q-17 -11 -17 -31v-128q0 -10 4.5 -19.5t12 -17t19 -11.5t22.5 -4t21 3.5t18 11.5q16 16 16 37v100q0 3 2 5t5 2t5 -2t2 -5v-100q0 -13 -5 -25t-15 -21.5t-22.5 -14.5t-24.5 -5z" />
</svg>