<svg viewBox="0 0 1024 1024" xmlns="http://www.w3.org/2000/svg">
  <path transform="scale(1, -1) translate(0, -960)" fill="currentColor" d="M765 634q-7 0 -11.5 -4.5t-4.5 -11.5v-400q1 -45 -16 -84t-50 -72q-33 -31 -76 -48t-89 -16q-49 0 -96.5 18t-79.5 48q-32 31 -50 71.5t-18 82.5v515q0 41 19 75.5t54 57.5q35 24 75.5 29.5t81.5 -9.5l5 -1q5 -1 9.5 -3t9.5 -5q44 -23 69 -61.5t25 -84.5v-438 q0 -24 -8 -46t-22 -39q-2 -4 -4.5 -5.5t-3.5 -2.5q-16 -14 -34 -21.5t-38 -7.5q-23 0 -44.5 10t-35.5 27q-16 18 -24 40t-8 46v368q0 8 -4.5 12t-11.5 4t-11.5 -4t-4.5 -12v-368q0 -30 10.5 -57t29.5 -50t46.5 -35.5t57.5 -12.5q26 0 50 9.5t43 29.5q1 1 4 3.5t5 7.5 q20 21 29.5 48t9.5 57v437q0 55 -29.5 101t-81.5 72q-6 4 -12 6l-12 4l-4 1q-48 16 -96.5 10t-89.5 -34q-42 -27 -64 -68.5t-22 -89.5v-514q0 -49 20.5 -95t57.5 -82q36 -34 89.5 -54t107.5 -20v0v0h3.5h4.5q49 0 96 18.5t83 53.5q38 37 57.5 83t19.5 96v399q0 7 -4.5 11.5 t-11.5 4.5v0z" />
</svg>