<svg viewBox="0 0 1024 1024" xmlns="http://www.w3.org/2000/svg">
  <path transform="scale(1, -1) translate(0, -960)" fill="currentColor" d="M517 822q-34 2 -66 -11t-56 -37t-37.5 -55t-13.5 -65q0 -44 20.5 -81.5t57.5 -60.5q8 -5 11.5 -12.5t3.5 -16.5v-29q0 -27 19.5 -46t45.5 -19h16q28 0 47 19.5t19 45.5v31q0 8 4 16t10 13q36 22 57 58.5t22 78.5q1 34 -11.5 64.5t-35.5 55.5q-21 24 -51 37.5t-62 13.5v0z M554 453q0 -15 -10.5 -24.5t-23.5 -9.5h-16q-14 0 -24 10.5t-10 23.5v29v3.5v4.5h85v-4v-3v-30h-1zM584 539q-5 -3 -9.5 -7t-8.5 -9h-110q-4 5 -8.5 9.5t-9.5 6.5q-30 19 -47 50t-17 65q0 28 11 53.5t31 44.5q19 19 43.5 28.5t50.5 9.5h2h2q26 -1 50.5 -11.5t43.5 -31.5 q19 -20 28.5 -45t9.5 -52q0 -34 -16.5 -63.5t-45.5 -47.5zM760 928h-496q-43 0 -74.5 -31t-31.5 -75v-505q0 -13 6 -26.5t15 -21.5l299 -282q10 -9 22 -14t25 -5h233q44 0 75 31t31 75v748q1 44 -30 75t-74 31v0zM213 280h246q16 0 26.5 -10.5t10.5 -24.5v-232l-283 267v0z M834 74q0 -30 -22 -52t-52 -22h-232v246q0 28 -20 48t-49 20h-269v2v1v505q0 30 22 52t52 22h496q30 0 52 -22t22 -52v-748v0z" />
</svg>