<svg viewBox="0 0 256 256" xmlns="http://www.w3.org/2000/svg">
  <path transform="scale(1, -1) translate(0, -256)" fill="currentColor" d="M128 251q-25 0 -46.5 -12.5t-34 -34t-12.5 -46.5q0 -3 2 -5t5 -2h9l21 -45q-5 -2 -8 -6.5t-3 -10.5v-65q0 -8 5.5 -13.5t13.5 -5.5h96q8 0 14 5.5t6 13.5v66q0 5 -3 9.5t-8 6.5l21 45h8q3 0 5.5 2t2.5 5q-1 25 -13.5 46.5t-34 34t-46.5 12.5zM128 237q20 0 37.5 -9.5 t28.5 -26t13 -36.5h-157q1 20 12 36.5t28.5 26t37.5 9.5zM176 94q2 0 3.5 -1.5t1.5 -3.5v-10h-106v10q0 2 1.5 3.5t3.5 1.5h96zM127 108l-20 43h42l-20 -43h-2zM92 151l19 -43h-25l-20 43h26zM176 19h-96q-2 0 -3.5 1.5t-1.5 3.5v41h106v-41q0 -2 -1.5 -3.5t-3.5 -1.5z M170 108h-25l19 43h26zM158 44h-13q-3 0 -5 -2t-2 -5t2 -5t5 -2h13q3 0 5.5 2t2.5 5t-2.5 5t-5.5 2z" />
</svg>