<svg viewBox="0 0 1024 1024" xmlns="http://www.w3.org/2000/svg">
  <path transform="scale(1, -1) translate(0, -960)" fill="currentColor" d="M512 928q-74 0 -140 -28q-65 -29 -114 -77.5t-78 -114.5q-28 -66 -28 -140q0 -7 4.5 -11.5t11.5 -4.5h43l91 -197q-20 -6 -33 -22.5t-13 -38.5v-262q0 -26 19 -45t45 -19h384q26 0 45 19t19 45v262q0 22 -13 39t-33 22l91 197h43q7 0 11.5 4.5t4.5 11.5q0 74 -28 140 q-29 65 -77.5 114t-114.5 78q-66 28 -140 28v0zM499 358l-89 196h204l-89 -196h-26v0zM376 552v-1.5v-1.5l88 -192h-128l-90 195h130zM704 0h-384q-13 0 -22.5 9.5t-9.5 22.5v176h448v-176q0 -13 -9.5 -22.5t-22.5 -9.5zM736 294v-54h-448v54q0 14 9.5 23t22.5 9h384 q13 0 22.5 -9t9.5 -23zM688 358h-128l88 192v2v2h128zM803 584v0v0h-582v0v0h-37q4 65 31 122q27 56 71 98.5t102 67.5q58 24 124 24t124 -24q58 -25 102 -67t71 -99t31 -122h-37zM634 101h-55q-7 0 -11.5 -4.5t-4.5 -11.5t4.5 -11.5t11.5 -4.5h55q7 0 11.5 4.5t4.5 11.5 t-4.5 11.5t-11.5 4.5z" />
</svg>