<svg viewBox="0 0 1024 1024" xmlns="http://www.w3.org/2000/svg">
  <path transform="scale(1, -1) translate(0, -960)" fill="currentColor" d="M512 928q-70 0 -131 -27q-61 -26 -107 -72t-73 -108q-27 -61 -27 -131q0 -7 4.5 -11.5t11.5 -4.5h40l98 -212l-8 -5q-7 -4 -13.5 -9.5t-10.5 -13.5v0v0v0v0q-4 -6 -6 -14t-2 -16v-195q0 -16 8 -30t22 -21l170 -85q6 -4 12 -5.5t14 -1.5q7 0 13 1.5t12 5.5l170 85 q14 7 22 20.5t8 30.5v197q0 16 -9 30t-24 21l-10 5l98 212h40q7 0 11.5 4.5t4.5 11.5q0 70 -27 131q-27 62 -72.5 108t-107.5 72q-61 27 -131 27zM266 574h118v-0.5v-0.5l70 -154l-96 -45l-92 200v0zM685 331l-67 -32l-168 83l51 24q2 2 4.5 2h4.5h5.5t4.5 -2zM512 246 l-173 85l72 34l168 -83l-67 -36v0zM536 435q-11 5 -23.5 5t-22.5 -5l-7 -3l-65 142h187l-64 -142zM331 88q-6 4 -9.5 9.5t-3.5 12.5v196v0v0l178 -87v-214zM706 110q0 -7 -3.5 -12.5t-9.5 -9.5l-165 -83v214l72 35v-67q0 -7 4.5 -11.5t11.5 -4.5t11.5 4.5t4.5 11.5v82v0v0 l74 35v0v0v-194zM666 374l-96 45l70 154v0.5v0.5h117l-91 -200v0zM784 606v0v0h-576q3 61 28 114t66 92t95 61q54 23 115 23t115 -23q54 -22 95 -61t66 -92t28 -114h-32z" />
</svg>