<svg viewBox="0 0 256 256" xmlns="http://www.w3.org/2000/svg">
  <path transform="scale(1, -1) translate(0, -256)" fill="currentColor" d="M128 251q-24 0 -44 -12t-31.5 -32t-11.5 -43q0 -3 2 -5.5t5 -2.5h8l22 -48q-3 -2 -6 -5v-1q-3 -4 -3 -9v-49q0 -5 2.5 -9t7.5 -6l42 -21q4 -2 7 -2h2q3 0 7 2l41 20q4 2 7 6t3 9v49q0 6 -4 10v0q-3 4 -6 6l22 48h8q3 0 5 2.5t2 5.5q0 23 -11.5 43t-31.5 32t-44 12z M128 237q19 0 35 -9t26 -24t12 -34h-146q2 19 12 34t26 24t35 9zM164 99l-10 -5l-34 17l8 4zM128 81l-36 18l11 5l36 -18zM134 128q-6 2 -11 0l-13 29h37zM94 157l16 -35l-19 -8l-20 43h23zM84 40q-1 1 -1 3v45l38 -19v-47zM172 40l-37 -18v47l12 6v-12q0 -3 2 -5t5 -2t5 2 t2 5v19l13 6v-45q0 -1 -2 -3zM165 114l-19 8l16 34h23z" />
</svg>