<svg viewBox="0 0 256 256" xmlns="http://www.w3.org/2000/svg">
  <path transform="scale(1, -1) translate(0, -256)" fill="currentColor" d="M98 183q2 2 2.5 5t-1.5 5.5t-5 2.5t-5 -2q-11 -8 -17.5 -26t-6.5 -40t6.5 -40t17.5 -26q2 -2 5 -2t5 2.5t1.5 5.5t-2.5 5q-8 6 -13.5 20.5t-5.5 34.5t5.5 34.5t13.5 20.5zM167 194q-2 2 -5 1.5t-5 -2.5t-1.5 -5t2.5 -5q8 -6 13.5 -20.5t5.5 -34.5t-5.5 -34.5t-12.5 -20.5 q-3 -2 -3 -5t2 -5.5t4.5 -2.5t5.5 2q10 8 17 26t6.5 40t-7 40t-17.5 26zM232 251h-208q-8 0 -13.5 -5.5t-5.5 -13.5v-208q0 -8 5.5 -13.5t13.5 -5.5h208q8 0 14 5.5t6 13.5v208q-1 8 -6.5 13.5t-13.5 5.5zM237 24q0 -2 -1.5 -3.5t-3.5 -1.5h-208q-2 0 -3.5 1.5t-1.5 3.5v208 q0 2 1.5 3.5t3.5 1.5h208q2 0 3.5 -1.5t1.5 -3.5v-208z" />
</svg>