<svg viewBox="0 0 1024 1024" xmlns="http://www.w3.org/2000/svg">
  <path transform="scale(1, -1) translate(0, -960)" fill="currentColor" d="M304 448q0 77 22 140t56 90q5 4 6 11t-2 12q-4 5 -11 6t-12 -3q-42 -31 -66.5 -101t-24.5 -155q0 -84 24.5 -154t66.5 -102q3 -1 5 -2t5 -1t6.5 1.5t6.5 4.5q3 5 2.5 12t-6.5 11q-34 27 -56 90t-22 140v0zM661 704q-5 4 -12 3.5t-11 -6.5q-3 -5 -2.5 -12t6.5 -11 q34 -26 56 -89.5t22 -140.5t-22 -140t-56 -90q-5 -4 -6 -11t2 -12q3 -3 6.5 -4.5t6.5 -1.5t5 1t5 2q42 32 66.5 101.5t24.5 154.5t-24.5 154.5t-66.5 101.5v0zM512 928q-99 0 -186 -38q-88 -38 -153 -103t-103 -153q-38 -87 -38 -186t38 -186q38 -88 103 -153t153 -103 q87 -38 186 -38t186 38q88 38 153 103t103 153q38 87 38 186t-38 186q-38 88 -103 153t-153 103q-87 38 -186 38zM512 0q-92 0 -174 35q-81 36 -142 97t-97 142q-35 82 -35 174t35 174q36 81 96.5 142t142.5 97q82 35 174 35t174 -35q81 -36 142 -96.5t97 -142.5 q35 -82 35 -174t-35 -174q-36 -81 -96.5 -142t-142.5 -97q-82 -35 -174 -35z" />
</svg>