<svg viewBox="0 0 256 256" xmlns="http://www.w3.org/2000/svg">
  <path transform="scale(1, -1) translate(0, -256)" fill="currentColor" d="M98 183q2 2 2.5 5t-1.5 5.5t-5 2.5t-5 -2q-11 -8 -17.5 -26t-6.5 -40t6.5 -40t17.5 -26q2 -2 5 -2t5 2.5t1.5 5.5t-2.5 5q-8 6 -13.5 20.5t-5.5 34.5t5.5 34.5t13.5 20.5zM167 194q-2 2 -5 1.5t-5 -2.5t-1.5 -5t2.5 -5q8 -6 13.5 -20.5t5.5 -34.5t-5.5 -34.5t-12.5 -20.5 q-3 -2 -3 -5t2 -5.5t4.5 -2.5t5.5 2q10 8 17 26t6.5 40t-7 40t-17.5 26zM128 251q-33 0 -61.5 -16.5t-45 -45t-16.5 -61.5t16.5 -61.5t45 -45t61.5 -16.5t61.5 16.5t45 45t16.5 61.5t-16.5 61.5t-45 45t-61.5 16.5zM128 19q-29 0 -54 14.5t-40 39.5t-15 55t15 54.5 t39.5 39.5t54.5 15t55 -15t39.5 -40t14.5 -54.5t-14.5 -54.5t-39.5 -39.5t-55 -14.5z" />
</svg>