<svg viewBox="0 0 1024 1024" xmlns="http://www.w3.org/2000/svg">
  <path transform="scale(1, -1) translate(0, -960)" fill="currentColor" d="M99 448q0 74 11 144q12 70 32.5 129t49.5 105t64 73q5 4 6 11t-3 12q-3 4 -10 5t-12 -2q-39 -30 -70 -78q-31 -49 -53.5 -111t-34.5 -135q-12 -74 -12 -153t12 -153q12 -73 34 -135t53 -111q32 -48 71 -78q2 -1 4.5 -2t4.5 -1q4 0 7.5 1.5t5.5 4.5q4 5 3.5 12t-6.5 11 q-35 27 -64 73t-49.5 105t-32.5 129q-11 70 -11 144v0zM787 925q-5 3 -12 3t-10 -6q-4 -5 -3.5 -12t6.5 -11q35 -27 64 -73t49.5 -105t31.5 -129q12 -70 12 -144t-11 -144q-12 -70 -32.5 -129t-49.5 -105t-64 -73q-5 -4 -6 -11t3 -12q2 -3 5.5 -4.5t7.5 -1.5q2 0 4.5 1 t4.5 2q39 30 70 78q31 49 53.5 111t34.5 135q12 74 12 153t-12 153q-12 73 -34.5 135t-53.5 111q-31 48 -70 78v0z" />
</svg>