<svg viewBox="0 0 256 256" xmlns="http://www.w3.org/2000/svg">
  <path transform="scale(1, -1) translate(0, -256)" fill="currentColor" d="M100 132q16 0 27 11t11 27t-11 27t-27 11t-27 -11t-11 -27t11 -27t27 -11zM100 194q10 0 17 -7t7 -17t-7 -17t-17 -7t-17 7t-7.5 17t7 17t17.5 7zM121 72h-42q-3 0 -5 -2t-2 -5t2 -5t5 -2h42q3 0 5 2t2 5t-2 5t-5 2zM132 102h-64q-3 0 -5 -2t-2 -5t2 -5t5 -2h63q3 0 5 2 t2 5t-2 5t-4 2zM213 251h-185q-6 0 -10.5 -4.5t-4.5 -10.5v-216q0 -6 4.5 -10.5t10.5 -4.5h185q12 0 20.5 8.5t8.5 20.5v188q1 12 -8 20.5t-21 8.5zM144 19h-116q-1 0 -1 1v216q0 1 1 1h135q4 0 6.5 -2.5t2.5 -6.5v-200q0 -4 -2.5 -6.5t-6.5 -2.5h-19zM229 34 q0 -6 -4.5 -10.5t-11.5 -4.5h-29q2 4 2 9v200q0 5 -2 9h29q7 0 11.5 -4.5t4.5 -10.5v-188z" />
</svg>