<svg viewBox="0 0 256 256" xmlns="http://www.w3.org/2000/svg">
  <path transform="scale(1, -1) translate(0, -256)" fill="currentColor" d="M148 59h-40q-3 0 -5 -2t-2 -5t2 -5.5t5 -2.5h40q3 0 5 2.5t2 5.5t-2 5t-5 2zM188 251h-128q-6 0 -10.5 -4.5t-4.5 -10.5v-216q0 -7 4.5 -11.5t10.5 -4.5h128q10 0 16.5 7t6.5 17v200q0 10 -7 16.5t-16 6.5zM197 28q0 -4 -3 -6.5t-6 -2.5h-128q-1 0 -1 1v216q0 1 1 1h128 q4 0 6.5 -2.5t2.5 -6.5v-200zM158 88h-60q-3 0 -5 -2.5t-2 -5.5t2 -5t5 -2h60q3 0 5.5 2t2.5 5t-2.5 5.5t-5.5 2.5zM128 218q-15 0 -28 -7.5t-20.5 -20t-7.5 -28t7.5 -28t20.5 -20.5t28 -8t28 8t20.5 20.5t7.5 28t-7.5 28t-20.5 20t-28 7.5zM169 170h-18q-1 18 -7 31 q10 -4 16.5 -12.5t8.5 -18.5zM119 170q1 19 9 34q8 -15 9 -34h-18zM137 156q-1 -19 -9 -35q-8 16 -9 35h18zM111 201q-5 -15 -7 -31h-18q2 10 9 18.5t16 12.5zM87 156h18q1 -19 7 -32q-10 4 -16.5 12.5t-8.5 19.5zM145 124q5 15 7 32h18q-3 -11 -9.5 -19.5t-15.5 -12.5z" />
</svg>