<svg viewBox="0 0 256 256" xmlns="http://www.w3.org/2000/svg">
  <path transform="scale(1, -1) translate(0, -256)" fill="currentColor" d="M192 251h-136q-6 0 -10.5 -4.5t-4.5 -10.5v-216q0 -7 4.5 -11.5t10.5 -4.5h135q10 0 16.5 7t6.5 17v200q0 10 -6.5 16.5t-15.5 6.5zM200 28q0 -4 -2.5 -6.5t-6.5 -2.5h-135q-1 0 -1 1v216q0 1 1 1h135q4 0 6.5 -2.5t2.5 -6.5v-200zM160 102h-64q-3 0 -5 -2t-2 -5t2 -5 t5 -2h64q3 0 5 2t2 5t-2 5t-5 2zM149 68h-42q-3 0 -5 -2.5t-2 -5.5t2 -5t5 -2h42q3 0 5 2t2 5t-2 5.5t-5 2.5zM102 173h2l17 6v-21l-13 -7q-3 -1 -4 -4t0.5 -6t6.5 -3h2l15 8l16 -8h2q2 0 4 1t3 3t0 5t-4 4l-13 7v21l17 -6h2q2 0 4 1t3 3.5t-0.5 5.5t-3.5 3l-22 8v12 q0 3 -2 5.5t-5 2.5t-5 -2.5t-2 -5.5v-12l-22 -8q-3 -1 -4 -3.5t-0.5 -5t2 -3.5t4.5 -1z" />
</svg>