<svg viewBox="0 0 1024 1024" xmlns="http://www.w3.org/2000/svg">
  <path transform="scale(1, -1) translate(0, -960)" fill="currentColor" d="M400 474q59 0 100.5 41.5t41.5 100.5t-41.5 100.5t-100.5 41.5t-100.5 -41.5t-41.5 -100.5t41.5 -100.5t100.5 -41.5zM400 726q46 0 78 -32t32 -78t-32 -78t-78 -32t-78 32t-32 78t32 78t78 32zM483 211h-168q-7 0 -11.5 -4.5t-4.5 -11.5t4.5 -11.5t11.5 -4.5h168 q7 0 11.5 4.5t4.5 11.5t-4.5 11.5t-11.5 4.5zM526 333h-254q-7 0 -11.5 -4.5t-4.5 -11.5t4.5 -11.5t11.5 -4.5h253q7 0 11.5 4.5t4.5 11.5t-4.5 11.5t-10.5 4.5zM853 928h-739q-21 0 -34.5 -14t-13.5 -34v-864q0 -20 13.5 -34t34.5 -14h737q45 0 75.5 31t30.5 75v748 q1 44 -30 75t-74 31zM578 0h-464q-8 0 -12 4.5t-4 11.5v864q0 7 4 11.5t12 4.5h539q20 0 34 -14t14 -34v-800q0 -20 -14 -34t-34 -14h-75zM926 74q0 -32 -21.5 -53t-51.5 -21h-136q7 10 11.5 22.5t4.5 25.5v800q0 13 -4.5 25.5t-11.5 22.5h136q31 0 52 -22t21 -52v-748z" />
</svg>