<svg viewBox="0 0 1024 1024" xmlns="http://www.w3.org/2000/svg">
  <path transform="scale(1, -1) translate(0, -960)" fill="currentColor" d="M592 158h-160q-7 0 -11.5 -4t-4.5 -12q0 -7 4.5 -11.5t11.5 -4.5h160q7 0 11.5 4.5t4.5 11.5q0 8 -4.5 12t-11.5 4zM750 928h-508q-21 0 -34.5 -14t-13.5 -34v-864q0 -20 13.5 -34t34.5 -14h510q34 0 57 23t23 57v800q-1 34 -24.5 57t-57.5 23zM798 48q0 -20 -13.5 -34 t-34.5 -14h-508q-8 0 -12 4.5t-4 11.5v864q0 7 4 11.5t12 4.5h510q20 0 34 -14t14 -34v-800h-2zM632 274h-240q-7 0 -11.5 -4.5t-4.5 -11.5q0 -8 4.5 -12t11.5 -4h242q7 0 11.5 4t4.5 12q0 7 -5.5 11.5t-12.5 4.5zM512 798q-44 0 -82 -16q-39 -17 -67.5 -45.5t-45.5 -67.5 q-16 -38 -16 -82t16 -82q17 -39 45.5 -67.5t67.5 -44.5q38 -17 82 -17t82 17q39 16 67.5 44.5t45.5 67.5q16 38 16 82t-16 82q-17 39 -45.5 67.5t-67.5 45.5q-38 16 -82 16zM691 603h-97q-2 43 -11 83.5t-26 75.5q54 -15 91.5 -58.5t42.5 -100.5zM518 766q20 -34 31 -75.5 t13 -87.5h-100q2 46 13 88t31 75h3h3h3h3v0zM467 760q-17 -35 -25.5 -75t-11.5 -83h-97q5 57 42.5 101t91.5 57v0zM333 571h97q2 -43 11 -83t26 -75q-54 14 -91.5 57.5t-42.5 100.5v0zM506 408q-20 34 -31 76t-13 87h100q-2 -45 -13 -87t-31 -76h-3h-3h-3h-3zM557 413 q17 35 25.5 75t11.5 83h97q-5 -57 -42.5 -100.5t-91.5 -57.5z" />
</svg>