<svg viewBox="0 0 1024 1024" xmlns="http://www.w3.org/2000/svg">
  <path transform="scale(1, -1) translate(0, -960)" fill="currentColor" d="M766 928h-540q-21 0 -34.5 -14t-13.5 -34v-864q0 -20 13.5 -34t34.5 -14h539q33 0 56.5 23t23.5 57v800q1 34 -22.5 57t-56.5 23v0zM814 48q0 -20 -13.5 -34t-34.5 -14h-540q-8 0 -12 4.5t-4 11.5v864q0 7 4 11.5t12 4.5h539q20 0 34 -14t14 -34v-800h1zM638 333h-252 q-8 0 -12 -4.5t-4 -11.5t4 -11.5t12 -4.5h252q8 0 12 4.5t4 11.5t-4 11.5t-12 4.5zM597 195h-170q-7 0 -11.5 -4.5t-4.5 -11.5t4.5 -11.5t11.5 -4.5h168q7 0 11.5 4.5t4.5 11.5t-4 11.5t-10 4.5zM406 640h3t2 2l85 28v-110l-62 -32q-6 -2 -8 -8.5t1 -12.5q3 -5 6.5 -7 t8.5 -2h3t3 1l64 32l64 -32q1 -1 3 -1h3q5 0 8.5 2t6.5 7q2 6 0 12.5t-7 8.5l-62 32v109l85 -29q1 0 2 -1t3 -1q4 0 8.5 3.5t5.5 8.5q2 6 -1 12t-9 8l-94 32v60q0 7 -4.5 11.5t-11.5 4.5t-11.5 -4.5t-4.5 -11.5v-60l-94 -32q-6 -2 -9 -7.5t-1 -12.5q1 -5 5.5 -7.5t8.5 -2.5 v0z" />
</svg>