<svg viewBox="0 0 1024 1024" xmlns="http://www.w3.org/2000/svg">
  <path transform="scale(1, -1) translate(0, -960)" fill="currentColor" d="M512 474q59 0 100.5 41.5t41.5 100.5t-41.5 100.5t-100.5 41.5t-100.5 -41.5t-41.5 -100.5t41.5 -100.5t100.5 -41.5zM512 726q46 0 78 -32t32 -78t-32 -78t-78 -32t-78 32t-32 78t32 78t78 32zM597 211h-170q-7 0 -11.5 -4.5t-4.5 -11.5t4.5 -11.5t11.5 -4.5h168 q7 0 11.5 4.5t4.5 11.5t-4 11.5t-10 4.5zM766 928h-540q-21 0 -34.5 -14t-13.5 -34v-864q0 -20 13.5 -34t34.5 -14h539q33 0 56.5 23t23.5 57v800q1 34 -22.5 57t-56.5 23v0zM814 48q0 -20 -13.5 -34t-34.5 -14h-540q-8 0 -12 4.5t-4 11.5v864q0 7 4 11.5t12 4.5h539 q20 0 34 -14t14 -34v-800h1zM638 333h-252q-8 0 -12 -4.5t-4 -11.5t4 -11.5t12 -4.5h252q8 0 12 4.5t4 11.5t-4 11.5t-12 4.5z" />
</svg>