<svg viewBox="0 0 1024 1024" xmlns="http://www.w3.org/2000/svg">
  <path transform="scale(1, -1) translate(0, -960)" fill="currentColor" d="M293 640h2t3 2l84 28v-110l-60 -32q-6 -2 -8 -8.5t1 -12.5q3 -5 6.5 -7t8.5 -2h3t3 1l64 32l64 -32q1 -1 3 -1h3q5 0 8.5 2t6.5 7q2 6 0 12.5t-7 8.5l-62 32v109l85 -29q1 0 2 -1t3 -1q4 0 8.5 3.5t5.5 8.5q2 6 -1 12t-9 8l-94 32v60q0 7 -4.5 11.5t-11.5 4.5t-11.5 -4.5 t-4.5 -11.5v-60l-94 -32q-6 -2 -9 -7.5t-1 -12.5q0 -5 4 -7.5t9 -2.5zM483 211h-168q-7 0 -11.5 -4.5t-4.5 -11.5t4.5 -11.5t11.5 -4.5h168q7 0 11.5 4.5t4.5 11.5t-4.5 11.5t-11.5 4.5zM526 333h-254q-7 0 -11.5 -4.5t-4.5 -11.5t4.5 -11.5t11.5 -4.5h253q7 0 11.5 4.5 t4.5 11.5t-4.5 11.5t-10.5 4.5zM853 928h-739q-21 0 -34.5 -14t-13.5 -34v-864q0 -20 13.5 -34t34.5 -14h737q45 0 75.5 31t30.5 75v748q1 44 -30 75t-74 31zM578 0h-464q-8 0 -12 4.5t-4 11.5v864q0 7 4 11.5t12 4.5h539q20 0 34 -14t14 -34v-800q0 -20 -14 -34t-34 -14 h-75zM926 74q0 -32 -21.5 -53t-51.5 -21h-136q7 10 11.5 22.5t4.5 25.5v800q0 13 -4.5 25.5t-11.5 22.5h136q31 0 52 -22t21 -52v-748z" />
</svg>