<svg viewBox="0 0 256 256" xmlns="http://www.w3.org/2000/svg">
  <path transform="scale(1, -1) translate(0, -256)" fill="currentColor" d="M77 208h32q3 0 5 2t2 5t-2 5t-5 2h-32q-3 0 -5 -2t-2 -5t2 -5t5 -2zM68 176h51q3 0 5 2t2 5t-2 5t-5 2h-51q-3 0 -5.5 -2t-2.5 -5t2.5 -5t5.5 -2zM119 157h-51q-3 0 -5.5 -2t-2.5 -5t2.5 -5t5.5 -2h51q3 0 5 2t2 5t-2 5t-5 2zM226 33l-11 41q9 13 9 28q0 21 -14.5 35.5 t-34.5 14.5q-10 0 -19 -4v81q0 9 -6.5 15.5t-15.5 6.5h-82q-9 0 -15.5 -6.5t-6.5 -15.5v-113q0 -9 6.5 -15.5t15.5 -6.5h74q2 -11 8 -20l-10 -41q-2 -9 2.5 -17t13.5 -10h3q3 -1 5 -1q5 0 11 3q8 5 10 14l6 22l5 -22q2 -8 8 -12.5t14 -4.5q2 0 5 1l3 1q9 2 13.5 9.5 t2.5 16.5zM210 102q0 -14 -10 -24.5t-24.5 -10.5t-25 10.5t-10.5 25t10.5 25t25 10.5t24.5 -10.5t10 -25.5zM44 116v113q0 3 2 5.5t6 2.5h83q3 0 5.5 -2t2.5 -6v-89q-15 -13 -17 -32h-74q-4 0 -6 2t-2 6zM156 25q-1 -3 -3.5 -4.5t-6.5 -1.5l-2 1q-4 1 -5.5 3.5t-0.5 6.5 l8 32q9 -5 18 -8zM211 24q-2 -4 -5 -4l-2 -1q-3 -1 -6 1t-4 5l-7 29q9 3 17 8l8 -32q0 -5 -1 -6zM168 84q2 -2 5 -2v0q3 0 5 2l20 22q1 2 1 5t-2 5t-5 2t-5 -2l-15 -17l-8 8q-2 2 -5 2t-5 -2t-2 -5t2 -5z" />
</svg>