<svg viewBox="0 0 1024 1024" xmlns="http://www.w3.org/2000/svg">
  <path transform="scale(1, -1) translate(0, -960)" fill="currentColor" d="M307 779h130q7 0 11.5 4.5t4.5 11.5t-4.5 11.5t-11.5 4.5h-130q-7 0 -11.5 -4.5t-4.5 -11.5t5 -11.5t11 -4.5v0zM270 651h205q7 0 11.5 4.5t4.5 11.5t-4.5 11.5t-11.5 4.5h-205q-7 0 -11.5 -4.5t-4.5 -11.5t4.5 -11.5t11.5 -4.5zM475 554h-205q-7 0 -11.5 -4.5 t-4.5 -11.5q0 -8 4.5 -12t11.5 -4h205q7 0 11.5 4t4.5 12q0 7 -4.5 11.5t-11.5 4.5zM891 64l-41 166q0 2 -1 2t-1 2q18 22 27.5 50.5t9.5 59.5q0 77 -54.5 131.5t-131.5 54.5q-23 0 -44 -6t-41 -15v344q0 31 -22 53t-53 22h-333q-31 0 -53 -22t-22 -53v-455q0 -31 22 -53 t53 -22h309q3 -25 12 -47.5t23 -41.5q0 -2 -0.5 -2t-0.5 -2l-40 -166q-7 -30 8.5 -57t45.5 -34l11 -3q5 -2 9.5 -2h8.5q25 0 45.5 15.5t28.5 42.5l33 134v0v0v0v0l34 -134q6 -26 27 -42t46 -16h9.5t8.5 2l11 3q15 3 27 12t20 21q8 14 10.5 29t-1.5 29v0zM853 346 q0 -64 -45 -109t-109 -45q-63 0 -108 45t-45 109q0 63 45 108t108 45q64 0 109 -45t45 -108zM163 398v455q0 18 12.5 30.5t30.5 12.5h333q18 0 30.5 -12.5t12.5 -30.5v-365q-28 -24 -46 -58.5t-21 -74.5h-309q-18 0 -30.5 12.5t-12.5 30.5v0zM635 34q-5 -18 -20 -27t-33 -5 l-11 3q-18 5 -26.5 20t-5.5 33l37 150q19 -17 41.5 -28.5t48.5 -14.5l-31 -131v0zM854 24q-4 -7 -11 -12.5t-16 -6.5l-11 -3q-18 -5 -33 4.5t-20 27.5l-32 129q25 5 48.5 16.5t41.5 26.5l37 -150q3 -8 2 -16.5t-6 -15.5v0zM680 282q2 -3 5 -4t6 -1v0v0q4 0 6.5 1t4.5 4 l79 86q5 5 4 11.5t-6 10.5q-5 5 -11 4.5t-11 -5.5l-67 -75l-44 41q-4 5 -10.5 5t-11.5 -5t-5 -11t5 -11l56 -51v0z" />
</svg>