<svg viewBox="0 0 1024 1024" xmlns="http://www.w3.org/2000/svg">
  <path transform="scale(1, -1) translate(0, -960)" fill="currentColor" d="M418 533q40 0 76 15q36 16 62.5 42.5t42.5 62.5q15 36 15 77q0 40 -15 76q-15 37 -42 64t-63 42q-36 16 -76 16q-41 0 -77 -15q-36 -16 -63 -42.5t-43 -62.5t-16 -77t16 -77t43 -63t63 -42q36 -16 77 -16v0zM418 896q68 0 116 -48t48 -117q0 -68 -48 -116.5t-116 -48.5 q-69 0 -118 48.5t-49 116.5q0 69 49 117t118 48v0zM219 378h347q8 0 12 4t4 12q0 7 -4 11.5t-12 4.5h-347q-60 0 -102.5 -43t-42.5 -103t42.5 -103t102.5 -43h231q7 0 11.5 4.5t4.5 11.5q0 8 -4.5 12t-11.5 4h-231q-47 0 -80 33.5t-33 80.5t33 80.5t80 33.5v0zM762 346 q-78 0 -133.5 -55.5t-55.5 -133.5t55.5 -133.5t133.5 -55.5t133 55.5t55 133.5t-55 133.5t-133 55.5v0zM762 0q-65 0 -111 46t-46 111t46 111t111 46q64 0 110 -46t46 -111t-46 -111t-110 -46v0zM818 173h-40v40q0 7 -4.5 11.5t-11.5 4.5q-8 0 -12 -4.5t-4 -11.5v-40h-40 q-8 0 -12 -4.5t-4 -11.5t4 -11.5t12 -4.5h40v-40q0 -7 4 -11.5t12 -4.5q7 0 11.5 4.5t4.5 11.5v40h40q7 0 11.5 4.5t4.5 11.5t-5 11.5t-11 4.5z" />
</svg>