<svg viewBox="0 0 256 256" xmlns="http://www.w3.org/2000/svg">
  <path transform="scale(1, -1) translate(0, -256)" fill="currentColor" d="M104 146q22 0 37.5 15.5t15.5 37t-15.5 37t-37 15.5t-37 -15.5t-15.5 -37t15.5 -37t36.5 -15.5zM104 237q16 0 27.5 -11t11.5 -27t-11.5 -27.5t-27.5 -11.5t-27 11.5t-11 27.5t11.5 27t26.5 11zM112 57h-57q-11 0 -18 7.5t-7 18t7 17.5t18 7h87q3 0 5 2t2 5t-2 5.5 t-5 2.5h-87q-16 0 -27.5 -11.5t-11.5 -28t11.5 -28t27.5 -11.5h57q3 0 5.5 2t2.5 5t-2.5 5t-5.5 2zM190 105q-20 0 -35 -14.5t-15 -35.5t15 -35.5t35.5 -14.5t35 15t14.5 35.5t-14.5 35t-35.5 14.5zM190 19q-15 0 -25.5 10.5t-10.5 25.5t11 25.5t25.5 10.5t25 -10.5 t10.5 -25.5t-10.5 -25.5t-25.5 -10.5zM204 62h-6v7q0 3 -2.5 5t-5.5 2t-5 -2t-2 -5v-7h-7q-3 0 -5 -2t-2 -5t2 -5t5 -2h7v-7q0 -3 2 -5t5 -2t5.5 2t2.5 5v7h6q3 0 5.5 2t2.5 5t-2.5 5t-5.5 2z" />
</svg>