<svg viewBox="0 0 256 256" xmlns="http://www.w3.org/2000/svg">
  <path transform="scale(1, -1) translate(0, -256)" fill="currentColor" d="M70 230h-42q-10 0 -16.5 -7t-6.5 -16v-158q0 -10 6.5 -16.5t16.5 -6.5h42q10 0 16.5 6.5t6.5 16.5v158q0 9 -7 16t-16 7zM79 49q0 -3 -3 -6t-6 -3h-42q-4 0 -6.5 2.5t-2.5 6.5v158q0 4 2.5 6.5t6.5 2.5h42q4 0 6.5 -2.5t2.5 -6.5v-158zM228 230h-42q-10 0 -16.5 -7 t-6.5 -16v-158q0 -10 6.5 -16.5t16.5 -6.5h42q10 0 16.5 6.5t6.5 16.5v158q0 9 -6.5 16t-16.5 7zM237 49q0 -3 -2.5 -6t-6.5 -3h-42q-4 0 -6.5 2.5t-2.5 6.5v158q0 3 2.5 6t6.5 3h42q4 0 6.5 -2.5t2.5 -6.5v-158z" />
</svg>