<svg viewBox="0 0 1024 1024" xmlns="http://www.w3.org/2000/svg">
  <path transform="scale(1, -1) translate(0, -960)" fill="currentColor" d="M280 843h-168q-34 0 -57 -23t-23 -57v-632q0 -33 23 -56.5t57 -23.5h168q34 0 57 23.5t23 56.5v632q0 34 -24 57t-56 23zM328 133q0 -21 -14 -34.5t-34 -13.5h-168q-20 0 -34 13.5t-14 34.5v630q0 21 14 34.5t34 13.5h168q20 0 34 -13.5t14 -34.5v-630zM912 843h-168 q-34 0 -57 -23t-23 -57v-632q0 -33 23 -56.5t57 -23.5h168q34 0 57 23.5t23 56.5v632q0 34 -23 57t-57 23zM960 133q0 -21 -14 -34.5t-34 -13.5h-168q-20 0 -34 13.5t-14 34.5v630q0 21 14 34.5t34 13.5h168q20 0 34 -13.5t14 -34.5v-630z" />
</svg>