<svg viewBox="0 0 256 256" xmlns="http://www.w3.org/2000/svg">
  <path transform="scale(1, -1) translate(0, -256)" fill="currentColor" d="M232 196h-46v9q0 3 -2 5t-5 2h-31v16q0 8 -5.5 14t-13.5 6h-105q-8 0 -13.5 -6t-5.5 -14v-200q0 -8 5.5 -14t13.5 -6h105q8 0 13.5 6t5.5 14v16h31q3 0 5 2t2 5v10h46q8 0 13.5 5.5t5.5 13.5v96q0 8 -5.5 14t-13.5 6zM134 28q0 -3 -1.5 -4.5t-3.5 -1.5h-105q-2 0 -3.5 2 t-1.5 4v200q0 2 1.5 4t3.5 2h105q2 0 3.5 -2t1.5 -4v-200zM172 58h-24v140h24v-140zM237 80q0 -2 -1.5 -4t-3.5 -2h-46v108h46q2 0 3.5 -2t1.5 -4v-96zM216 164q-3 0 -5 -2t-2 -5v-23q0 -3 2 -5t5 -2t5 2t2 5v23q0 3 -2 5t-5 2zM44 169h64q3 0 5 2t2 5v32q0 3 -2 5t-5 2h-64 q-3 0 -5.5 -2t-2.5 -5v-32q0 -3 2.5 -5t5.5 -2zM50 201h50v-18h-50v18zM44 141q-3 0 -5 -2t-2 -5t2 -5.5t5 -2.5h6q3 0 5.5 2.5t2.5 5.5t-2.5 5t-5.5 2h-6zM108 141h-6q-3 0 -5 -2t-2 -5t2 -5.5t5 -2.5h6q3 0 5.5 2.5t2.5 5.5t-2.5 5t-5.5 2zM57 99q0 3 -2 5t-5 2h-6 q-3 0 -5 -2t-2 -5t2 -5t5 -2h6q3 0 5 2t2 5zM108 106h-6q-3 0 -5 -2t-2 -5t2 -5t5 -2h6q3 0 5.5 2t2.5 5t-2.5 5t-5.5 2zM93 60h-33q-3 0 -5 -2t-2 -5t2 -5t5 -2h33q3 0 5 2t2 5t-2 5t-5 2z" />
</svg>