<svg viewBox="0 0 1024 1024" xmlns="http://www.w3.org/2000/svg">
  <path transform="scale(1, -1) translate(0, -960)" fill="currentColor" d="M928 706h-195v49q0 7 -4.5 11.5t-11.5 4.5h-135v79q0 26 -18.5 45t-45.5 19h-422q-26 0 -45 -19t-19 -45v-804q0 -26 19 -45t45 -19h421q26 0 45 19t19 45v79h134q7 0 11.5 4.5t4.5 11.5v49h197q26 0 45 19t19 45v388q0 26 -19 45t-45 19v0zM549 46q0 -13 -9.5 -22.5 t-22.5 -9.5h-421q-13 0 -22.5 9.5t-9.5 22.5v804q0 13 9.5 22.5t22.5 9.5h421q13 0 22.5 -9.5t9.5 -22.5v-804zM701 157h-119v582h119v-582zM960 254q0 -13 -9.5 -22.5t-22.5 -9.5h-195v452h195q13 0 22.5 -9.5t9.5 -22.5v-388zM864 581q-7 0 -11.5 -4.5t-4.5 -11.5v-90 q0 -7 4.5 -11.5t11.5 -4.5t11.5 4.5t4.5 11.5v90q0 6 -5 11t-11 5v0zM174 624h256q8 0 12 4.5t4 11.5v126q0 8 -4 12t-12 4h-256q-7 0 -11.5 -4t-4.5 -12v-126q0 -7 4.5 -11.5t11.5 -4.5v0zM190 750h224v-94h-224v94v0zM202 488h-24q-8 0 -12 -4.5t-4 -11.5t4 -11.5t12 -4.5 h24q7 0 11.5 4.5t4.5 11.5t-5 11.5t-11 4.5zM434 488h-24q-8 0 -12 -4.5t-4 -11.5t4 -11.5t12 -4.5h24q7 0 11.5 4.5t4.5 11.5t-5 11.5t-11 4.5zM202 347h-24q-8 0 -12 -4.5t-4 -11.5t4 -11.5t12 -4.5h24q7 0 11.5 4.5t4.5 11.5t-5 11.5t-11 4.5zM434 347h-24q-8 0 -12 -4.5 t-4 -11.5t4 -11.5t12 -4.5h24q7 0 11.5 4.5t4.5 11.5t-5 11.5t-11 4.5zM371 166h-129q-8 0 -12 -4t-4 -12q0 -7 4 -11.5t12 -4.5h129q7 0 11.5 4.5t4.5 11.5q0 8 -5 12t-11 4z" />
</svg>