<svg viewBox="0 0 256 256" xmlns="http://www.w3.org/2000/svg">
  <path transform="scale(1, -1) translate(0, -256)" fill="currentColor" d="M211 212q-3 20 -16.5 31.5t-33.5 11.5h-87q-2 0 -4 -1.5t-3 -3.5l-50 -203q0 -4 2 -6.5t5 -2.5h28l-7 -28q-1 -4 1 -6.5t6 -2.5h62q2 0 4 1.5t2 3.5l19 82h22q12 0 24.5 5t23 13.5t18 20t10.5 24.5q5 20 -2.5 37t-23.5 24zM80 241h81q16 0 25.5 -9t10.5 -24q1 -9 -1 -16 q-2 -11 -8.5 -20.5t-15.5 -17.5q-17 -15 -39 -15h-26q-3 0 -4.5 -1.5t-2.5 -3.5l-20 -82h-47zM224 154q-5 -21 -23.5 -36.5t-39.5 -15.5h-27q-3 0 -5 -1.5t-2 -4.5l-19 -81h-48l6 23h20q2 0 4 1.5t2 3.5l20 82h21q13 0 25.5 4.5t23.5 13.5q21 18 28 45q1 3 1 8 q9 -6 12.5 -17.5t0.5 -24.5z" />
</svg>