<svg viewBox="0 0 1024 1024" xmlns="http://www.w3.org/2000/svg">
  <path transform="scale(1, -1) translate(0, -960)" fill="currentColor" d="M891 658l-1 1v0q-17 -77 -50 -135q-34 -59 -84 -99t-117 -61q-67 -20 -149 -20h-90l-51 -331h-48l-7 -35q-1 -10 6 -19t17 -9h160q13 0 24.5 9t13.5 23l2 7l29 192l1 11q1 13 12 22.5t27 9.5h24q58 0 109 13q51 12 91.5 41t69.5 76q28 46 42 115q13 60 5.5 107t-36.5 82 v0zM400 347v0v0v0zM357 363l-2 -9q1 16 14.5 27t28.5 11h90q67 0 125 15q58 14 104.5 47t79.5 87t49 133q2 4 2 8v9v0q8 58 -1.5 100.5t-41.5 77.5q-9 9 -20 18t-23 17q-17 10 -34.5 17t-37.5 10q-14 4 -30 5.5t-33 4.5l-28 2t-29 1h-306q-17 0 -29 -10.5t-14 -24.5 l-128 -815q-1 -13 6.5 -22.5t20.5 -9.5h189l48 301v0z" />
</svg>