<svg viewBox="0 0 1024 1024" xmlns="http://www.w3.org/2000/svg">
  <path transform="scale(1, -1) translate(0, -960)" fill="currentColor" d="M834 778q-10 74 -61 120t-128 46h-349q-6 0 -10.5 -3.5t-5.5 -9.5l-198 -811q-2 -4 -1 -7.5t4 -6.5q2 -3 5.5 -5t7.5 -2h124l-32 -128q-1 -3 0 -7t4 -7q2 -4 5.5 -5.5t6.5 -1.5h248q6 0 10.5 3.5t5.5 9.5l79 336h96q49 0 97 18.5t88 53.5q41 34 69 79t40 94 q16 78 -13 142.5t-92 91.5v0zM309 912h336q66 0 109 -40t48 -106q1 -19 -0.5 -35t-6.5 -32v0v0q-9 -43 -35 -83.5t-62 -71.5t-79 -47.5t-86 -16.5h-106q-6 0 -10.5 -3.5t-5.5 -9.5l-81 -336h-213l192 781v0zM906 550q-11 -44 -36 -84t-62 -71q-36 -31 -79 -47.5t-86 -16.5 h-109q-6 0 -10 -3.5t-6 -9.5l-78 -336h-213l29 117h88q6 0 10.5 3.5t5.5 9.5l82 336h94q49 0 97 18.5t89 53.5q40 35 68 79t40 92q3 12 5 24.5t2 25.5q43 -25 63 -76.5t6 -114.5z" />
</svg>