<svg viewBox="0 0 256 256" xmlns="http://www.w3.org/2000/svg">
  <path transform="scale(1, -1) translate(0, -256)" fill="currentColor" d="M251 216q0 10 -7 18l-10 10q-8 7 -18.5 7t-17.5 -7l-17 -17l-11 11q-8 7 -18 7t-18 -7l-42 -42q-2 -2 -2 -5t2 -5t4.5 -2.5t5.5 2.5l42 42q3 3 8 3t8 -3l11 -11l-115 -115q-5 -5 -5 -13l1 -4l-18 -18q-5 -5 -5 -12t5 -12l-27 -27q-2 -2 -2 -4.5t2 -5t5 -2.5t5 2l26 27 q5 -5 12 -5t13 6l17 17l5 -1q7 0 12 6l142 141q7 9 7 19zM58 44q-2 -1 -3.5 -1t-2.5 1l-8 8q-1 2 -1 3.5t1 2.5l16 16l13 -14zM92 66q-1 -1 -2.5 -1t-2.5 1l-21 21q-1 1 -1 3t1 3l114 114l26 -26zM234 208l-17 -17l-26 26l17 17q3 3 8 3t8 -3l10 -10q3 -3 3 -8.5t-3 -7.5z " />
</svg>