<svg viewBox="0 0 1024 1024" xmlns="http://www.w3.org/2000/svg">
  <path transform="scale(1, -1) translate(0, -960)" fill="currentColor" d="M966 862l-40 40q-13 14 -29.5 20t-34.5 6t-34 -7t-30 -19l-75 -75l-53 53q-13 13 -29.5 19.5t-34.5 6.5t-34 -7t-30 -19l-168 -171q-4 -5 -4 -11.5t4 -11.5q5 -4 11.5 -4t11.5 4l169 170q17 17 41.5 17t40.5 -17l53 -53l-467 -467q-9 -8 -13.5 -19t-4.5 -23q0 -6 1 -11 t2 -9l-75 -76q-7 -8 -11.5 -18.5t-4.5 -22.5t4.5 -22.5t13.5 -19.5l4 -5l-113 -113q-5 -5 -5 -11.5t5 -11.5q2 -3 4.5 -4.5t6.5 -1.5t6.5 1t4.5 4l114 113l5 -4q8 -9 19 -13.5t22 -4.5t22 4.5t20 13.5l75 75q5 -3 10.5 -3h10.5q11 0 22 4.5t19 12.5l567 567q13 13 19 29.5 t6 34.5t-6 32.5t-18 27.5zM240 104q-8 -8 -19 -8t-19 8l-34 34q-4 3 -6 8.5t-2 10.5q0 6 2 10.5t6 8.5l72 72l70 -70l-70 -74v0zM378 192q-9 -8 -19.5 -8t-19.5 8l-83 83q-4 4 -6 8.5t-2 10.5t2 11t6 9l467 467l122 -122l-467 -467v0zM942 758l-75 -75l-121 122l75 75 q17 17 41.5 17t39.5 -17l40 -40q9 -8 13.5 -19t4.5 -23t-4.5 -22t-13.5 -18z" />
</svg>