<svg viewBox="0 0 1024 1024" xmlns="http://www.w3.org/2000/svg">
  <path transform="scale(1, -1) translate(0, -960)" fill="currentColor" d="M990 781q0 6 -2 11t-6 10l-29.5 29.5l-29.5 29.5q-13 13 -26.5 27t-27.5 27q-4 5 -8.5 8t-10.5 3q-6 2 -12 0t-12 -6l-119 -118h-568q-44 0 -74.5 -31.5t-30.5 -74.5v-622q0 -44 30.5 -75t74.5 -31h623q44 0 74.5 31t30.5 75v572l115 114q5 5 6.5 10.5t1.5 10.5zM837 661 v0v0l-296 -295q-3 -2 -5.5 -3.5t-5.5 -2.5l-160 -53l52 160q2 4 3 6.5t4 4.5l294 295h2v1l16 16l112 -112l-16 -17v0zM837 74q0 -32 -22 -53t-52 -21h-624q-31 0 -52 22t-21 52v624q0 31 21.5 52t51.5 21h539l-272 -270q-4 -5 -8 -11t-6 -13l-61 -186q-2 -6 -0.5 -10.5 t2.5 -5.5q2 -3 6.5 -5.5t9.5 -2.5h3l189 63q7 2 13 5.5t11 8.5l273 272v-542h-1zM877 701l-112 112l81 81q14 -13 28 -27l27 -27q14 -14 28 -28.5t29 -29.5z" />
</svg>