<svg viewBox="0 0 1024 1024" xmlns="http://www.w3.org/2000/svg">
  <path transform="scale(1, -1) translate(0, -960)" fill="currentColor" d="M982 747q-40 42 -82 84.5t-84 83.5q-5 6 -11.5 9.5t-14.5 3.5q-7 0 -13 -2.5t-12 -7.5v0l-624 -620q-5 -5 -9.5 -12t-6.5 -14l-91 -278q-2 -5 -1.5 -9.5t2.5 -8.5q3 -2 7 -5t11 -3h3l280 94q7 3 13.5 6.5t12.5 9.5l620 621q5 5 7.5 11.5t2.5 12.5t-2.5 12.5t-7.5 11.5v0z M338 101q-3 -3 -6.5 -5t-6.5 -3l-253 -87l85 255q1 3 3 6.5t5 6.5l470 468l175 -172zM958 720l-128 -128l-174 173l131 131h2l1 -0.5t4 -2.5q43 -41 84 -83.5t82 -84.5l1 -1l1 -1q-2 -1 -2 -1.5t-2 -1.5z" />
</svg>