<svg viewBox="0 0 256 256" xmlns="http://www.w3.org/2000/svg">
  <path transform="scale(1, -1) translate(0, -256)" fill="currentColor" d="M251 211q0 4 -3 7l-28 29q-3 3 -7.5 3.5t-7.5 -2.5l-29 -28h-141q-13 0 -21.5 -9t-8.5 -21v-156q0 -12 8.5 -20.5t21.5 -8.5h155q13 0 21.5 8.5t8.5 20.5v142l28 28q3 3 3 7zM133 110q0 -1 -1 -1v-1l-35 -11l12 35l77 77l24 -24zM206 34q0 -6 -4.5 -10.5t-11.5 -4.5h-155 q-7 0 -11.5 4.5t-4.5 10.5v156q0 7 4.5 11.5t11.5 4.5h127l-62 -63q-4 -3 -5 -7l-15 -46q-1 -4 1 -7t6 -3h1l48 15q4 1 7 5l63 62v-128zM219 196l-24 23l16 16l24 -24z" />
</svg>