<svg viewBox="0 0 256 256" xmlns="http://www.w3.org/2000/svg">
  <path transform="scale(1, -1) translate(0, -256)" fill="currentColor" d="M232 114l-113 114q-4 4 -10 4t-10 -4l-2 -2l-17 17q-8 8 -19.5 8t-19.5 -8l-28 -28q-8 -8 -8 -19.5t8 -19.5l17 -17l-2 -2q-4 -4 -4 -10t4 -10l112 -112q10 -10 22.5 -15t24.5 -5t23 4t19 12q21 18 22 46q1 13 -4 25.5t-15 21.5zM23 205l28 28q4 4 10 4t9 -4l17 -17 l-47 -47l-17 17q-4 4 -4 9.5t4 9.5zM220 31q-15 -13 -35 -12t-35 16l-112 112l71 71l114 -113q15 -16 14 -38t-17 -36zM181 104q-12 0 -20.5 -8.5t-8.5 -20.5t8.5 -20t20.5 -8t20 8.5t8 20t-8.5 20t-19.5 8.5zM191 65q-4 -4 -10 -4t-10.5 4t-4.5 10t4.5 10.5t10.5 4.5 t10.5 -4.5t4 -10.5t-4.5 -10z" />
</svg>