<svg viewBox="0 0 1024 1024" xmlns="http://www.w3.org/2000/svg">
  <path transform="scale(1, -1) translate(0, -960)" fill="currentColor" d="M920 386l-454 454q-12 12 -31 12t-32 -12l-17 -18l-76 76q-28 28 -69 28t-70 -28l-112 -112q-29 -29 -29 -70t29 -70l75 -75l-17 -17q-13 -14 -13 -32t13 -31l448 -448q37 -37 85 -56t97 -19q43 0 84 14.5t75 44.5q38 34 60 80t23 96q3 52 -15 99.5t-54 83.5v0zM83 669 q-19 19 -19 47t19 47l112 112q19 19 47 19t48 -19l75 -75l-207 -206zM886 51q-31 -27 -70 -40t-79 -10.5t-78 18.5q-38 17 -69 48l-448 448q-3 4 -3 8.5t3 7.5l285 287q1 1 3.5 2t4.5 1q3 0 5 -1t3 -2l455 -455q31 -31 47 -72t15 -86t-20 -84.5t-54 -69.5v0zM723 338 q-20 0 -38.5 -8t-33.5 -23q-14 -14 -22 -32.5t-8 -39.5q0 -20 8 -38.5t22 -33.5q15 -14 33.5 -22t38.5 -8q21 0 39.5 8t32.5 22q30 30 30 72t-30 72q-14 16 -32.5 23.5t-39.5 7.5zM773 186q-10 -10 -22.5 -15.5t-27.5 -5.5q-14 0 -27 5.5t-22 15.5q-10 9 -15.5 22t-5.5 27 q0 15 5.5 27.5t15.5 22.5q9 9 22 15t27 6q15 0 27.5 -6t22.5 -15q20 -21 20 -50t-20 -49z" />
</svg>