<svg viewBox="0 0 1024 1024" xmlns="http://www.w3.org/2000/svg">
  <path transform="scale(1, -1) translate(0, -960)" fill="currentColor" d="M893 834q0 38 -27.5 66t-67.5 28h-574q-38 0 -66 -27.5t-28 -66.5v-832q0 -5 2 -8.5t6 -6.5q3 -2 7.5 -2t8.5 2l89 59q3 2 6 2t5 -2l117 -76q4 -3 9 -3t9 3l115 76q2 2 5.5 2t5.5 -2l117 -76q2 -2 4.5 -3t5.5 -1q2 0 4.5 1t4.5 3l115 76q3 2 6 2t6 -2l89 -59q4 -2 8.5 -2 t7.5 2q4 3 6 6.5t2 8.5l2 832v0zM797 75q-11 7 -24 7t-24 -7l-107 -72l-108 72q-4 4 -11 5.5t-13 1.5t-12 -1.5t-12 -5.5l-107 -70l-107 70q-11 7 -24 7t-24 -7l-64 -43v802q2 26 20.5 44t43.5 18h574q26 0 44.5 -18t18.5 -44v-802l-64 43v0zM590 562l-198 -199 q-5 -5 -5 -11t5 -11q2 -3 5.5 -4t5.5 -1q3 0 6 1t5 4l199 198q5 5 5 11.5t-5 11.5q-5 4 -11.5 4t-11.5 -4zM378 610q-4 6 -10.5 7t-12.5 -3q-5 -4 -6 -10.5t3 -11.5l6 -8q3 -4 6.5 -5t6.5 -1t5 1t5 2q6 3 7 9.5t-2 12.5l-8 7v0zM659 315q-5 4 -12 3t-10 -6q-4 -5 -3 -12 t6 -10l8 -7q2 -1 4.5 -2t5.5 -1t6.5 1.5t5.5 4.5q4 5 3 12t-6 11l-8 6v0z" />
</svg>