<svg viewBox="0 0 1024 1024" xmlns="http://www.w3.org/2000/svg">
  <path transform="scale(1, -1) translate(0, -960)" fill="currentColor" d="M549 885q-46 0 -90 -10q-44 -9 -85.5 -27t-78.5 -44t-68 -60q-5 -5 -4 -11.5t6 -10.5q5 -5 11 -4.5t11 5.5q29 31 63 56q35 24 73 41t79 26q41 8 83 8q84 0 158 -32q73 -32 128 -87t87 -128q32 -74 32 -157q0 -84 -32 -158t-87 -129t-129 -86q-74 -32 -157 -32 q-66 0 -127 20t-111.5 57t-88.5 88q-38 52 -59 115q-2 5 -8.5 8t-12.5 1t-9 -7.5t0 -12.5q22 -68 63 -124t95.5 -95.5t120.5 -61.5q65 -22 137 -22q90 0 170 35q80 34 139 93.5t93 138.5q35 80 35 170t-35 170q-34 79 -93.5 138.5t-139.5 93.5q-79 35 -169 35v0zM157 349 l113 -47q6 -2 12.5 0t8.5 8q3 6 0.5 12.5t-8.5 8.5l-113 47q-12 4 -24 4t-24 -4q-12 -5 -20.5 -14t-13.5 -20l-46 -114q-3 -6 -0.5 -12t8.5 -8q1 -2 2 -2h2q5 0 9.5 2.5t5.5 7.5l46 113q3 6 7 10.5t9 7.5q7 2 13.5 2t12.5 -2v0zM478 346q4 0 6.5 1t5.5 3l179 180q5 4 5 10.5 t-5 11.5t-11.5 5t-11.5 -5l-180 -179q-5 -5 -5 -11.5t5 -11.5q2 -2 5.5 -3t6.5 -1zM456 595q-4 6 -10 7.5t-12 -2.5t-7.5 -10t2.5 -12l5 -8q2 -4 5.5 -5.5t6.5 -1.5t5.5 1t4.5 2q6 4 7 10.5t-2 12.5l-5 6v0zM709 294q3 0 6.5 1.5t6.5 5.5q3 5 2 12t-6 10l-8 5q-4 4 -11 3 t-11 -6t-3 -12t6 -11l8 -4q3 -3 5 -3.5t5 -0.5v0z" />
</svg>