<svg viewBox="0 0 256 256" xmlns="http://www.w3.org/2000/svg">
  <path transform="scale(1, -1) translate(0, -256)" fill="currentColor" d="M226 224q0 11 -7.5 19t-18.5 8h-144q-11 0 -18.5 -8t-7.5 -19v-208q0 -3 3 -6q2 -1 4 -0.5t3 1.5l22 15l29 -20q2 -1 4 -1t4 1l29 20l28 -20q2 -1 4.5 -1t3.5 1l29 20l22 -15q3 -3 7 -1t4 6v208zM201 37q-8 5 -15 0l-26 -17l-25 17q-3 3 -7 3t-8 -3l-25 -17l-25 17 q-8 5 -16 0l-11 -7v194q0 5 4 9t9 4h143q5 0 9 -4t4 -9v-194zM156 158q-2 2 -5 2.5t-5 -2.5l-50 -49q-2 -2 -2 -5t2 -5t5 -2t5 2l49 49q2 2 2 5t-1 5zM98 168l-1 2q-2 2 -4.5 2.5t-5 -1t-3 -4.5t1.5 -5l1 -2q2 -3 5 -3t5 1.5t2.5 4.5t-1.5 5zM169 96l-2 1q-3 2 -5.5 1.5 t-4.5 -3t-1.5 -5t3.5 -4.5l2 -2q2 -1 4.5 -1t4.5 2.5t1.5 5.5t-2.5 5z" />
</svg>