<svg viewBox="0 0 1024 1024" xmlns="http://www.w3.org/2000/svg">
  <path transform="scale(1, -1) translate(0, -960)" fill="currentColor" d="M834 469h-136v137q0 8 -4.5 12t-11.5 4h-74v119h83q7 0 11.5 4.5t4.5 11.5t-4.5 11.5t-11.5 4.5h-83v6q0 7 -4.5 11.5t-11.5 4.5t-11.5 -4.5t-4.5 -11.5v-6h-83q-7 0 -11.5 -4.5t-4.5 -11.5t4.5 -11.5t11.5 -4.5h83v-119h-75q-7 0 -11.5 -4t-4.5 -12v-137h-136 q-7 0 -11.5 -4.5t-4.5 -11.5v-421q0 -26 18.5 -45t45.5 -19h389q26 0 45 19t19 45v421q0 6 -4.5 11t-11.5 5zM517 589h149v-122h-149v122v0zM818 32q0 -13 -9.5 -22.5t-22.5 -9.5h-389q-13 0 -22.5 9.5t-9.5 22.5v405h453v-405zM381 757q0 7 -4.5 11.5t-11.5 4.5h-176 q-7 0 -11.5 -4.5t-4.5 -11.5t4.5 -11.5t11.5 -4.5h176q7 0 11.5 4.5t4.5 11.5zM206 898l154 -68q1 -1 3 -1h3q5 0 9.5 2.5t5.5 6.5q2 6 0 12.5t-8 8.5l-154 67q-6 3 -12 0.5t-9 -8.5t-0.5 -12t8.5 -8v0zM381 674q-3 6 -9 8t-12 0l-154 -68q-6 -2 -8 -8t0 -12q3 -5 6.5 -7.5 t8.5 -2.5h3t3 2l154 67q5 2 7.5 8.5t0.5 12.5z" />
</svg>