<svg viewBox="0 0 256 256" xmlns="http://www.w3.org/2000/svg">
  <path transform="scale(1, -1) translate(0, -256)" fill="currentColor" d="M208 136h-31v31q0 3 -2 5t-5 2h-16v24h18q3 0 5 2t2 5t-2 5t-5 2h-18q0 2 -2 4t-4.5 2t-4.5 -2t-2 -4h-18q-3 0 -5 -2t-2 -5t2 -5t5 -2h17v-24h-15q-3 0 -5 -2t-2 -5v-31h-32q-3 0 -5 -2t-2 -5v-105q0 -8 5.5 -13.5t13.5 -5.5h98q7 0 13 5.5t6 13.5v105q0 3 -2 5t-5 2z M132 160h32v-24h-32v24zM202 24q0 -2 -1.5 -3.5t-4.5 -1.5h-97q-2 0 -3.5 1.5t-1.5 3.5v98h108v-98zM91 198q3 0 5 2t2 5t-2 5t-5 2h-44q-3 0 -5 -2t-2 -5t2 -5t5 -2h44zM50 238l39 -17l3 -1q4 0 5.5 3.5t0.5 6.5t-4 4l-38 16q-3 2 -5.5 1t-3.5 -4t0 -5.5t3 -3.5zM98 186 q-2 2 -4.5 3t-5.5 0l-38 -17q-3 -1 -4 -3.5t0.5 -6t6.5 -3.5h3l38 17q3 2 4 4.5t0 5.5z" />
</svg>