<svg viewBox="0 0 256 256" xmlns="http://www.w3.org/2000/svg">
  <path transform="scale(1, -1) translate(0, -256)" fill="currentColor" d="M182 197h-22v35q0 8 -5.5 13.5t-13.5 5.5h-27q-8 0 -13.5 -5.5t-5.5 -13.5v-35h-21q-8 0 -14 -5.5t-6 -13.5v-154q0 -8 6 -13.5t14 -5.5h107q8 0 13.5 5.5t5.5 13.5v154q1 7 -5 13t-13 6zM109 232q0 2 1.5 3.5t3.5 1.5h28q2 0 3.5 -1.5t1.5 -3.5v-35h-37v35h-1zM187 24 q0 -2 -1.5 -3.5t-3.5 -1.5h-108q-2 0 -3.5 1.5t-1.5 3.5v154q0 2 1.5 3.5t3.5 1.5h108q2 0 3.5 -1.5t1.5 -3.5v-154zM128 147q-10 0 -17 -12.5t-7 -31t7 -31t17 -12.5t17 12.5t7 31t-7 31t-17 12.5zM128 74q-3 0 -6.5 8.5t-3.5 21t3.5 21t6.5 8.5t6.5 -8.5t3.5 -21t-3.5 -21 t-6.5 -8.5z" />
</svg>