<svg viewBox="0 0 256 256" xmlns="http://www.w3.org/2000/svg">
  <path transform="scale(1, -1) translate(0, -256)" fill="currentColor" d="M244 84v0l-27 92h7q3 0 5 2t1 6l-7 28l7 28q1 3 -1.5 5.5t-5.5 2.5l-69 -6q-11 9 -26 9t-26 -9l-69 6q-3 0 -5.5 -2.5t-1.5 -5.5l7 -28l-7 -28q-1 -4 1 -6.5t5 -2.5l7 1l-27 -84v-5l39 -67q4 -7 10.5 -11t14.5 -4h104q8 0 14.5 4t10.5 10zM209 210l5 -20l-50 6q3 7 3 16 t-3 16l50 6l-5 -20v-4zM153 212q0 -10 -7.5 -17.5t-18 -7.5t-17.5 7.5t-7 17.5t7.5 17.5t17.5 7.5t17.5 -7.5t7.5 -17.5zM47 214l-5 19l50 -5q-3 -8 -3 -17t3 -16l-50 -5l5 20v4zM102 182q11 -9 26 -9t26 9l48 -4l23 -76q-29 17 -63 23t-68.5 1t-62.5 -20l23 71zM193 26 q-5 -7 -13 -7h-104q-8 0 -13 7l-35 62q27 18 63 23.5t72.5 -1.5t64.5 -26z" />
</svg>