<svg viewBox="0 0 1024 1024" xmlns="http://www.w3.org/2000/svg">
  <path transform="scale(1, -1) translate(0, -960)" fill="currentColor" d="M726 710h-96v154q0 26 -18.5 45t-45.5 19h-108q-27 0 -45.5 -19t-18.5 -45v-154h-96q-27 0 -45.5 -18.5t-18.5 -45.5v-614q0 -26 18.5 -45t45.5 -19h428q27 0 45.5 19t18.5 45v614q0 27 -18.5 45.5t-45.5 18.5zM426 864q0 13 9 22.5t23 9.5h108q14 0 23 -9.5t9 -22.5 v-154h-172v154v0zM758 32q0 -13 -9 -22.5t-23 -9.5h-428q-14 0 -23 9.5t-9 22.5v614q0 14 9 23t23 9h428q14 0 23 -9t9 -23v-614zM512 514q-37 0 -61.5 -47t-24.5 -117q0 -69 24.5 -116t61.5 -47t61.5 47t24.5 116q0 70 -24.5 117t-61.5 47v0zM512 219q-19 0 -36.5 37.5 t-17.5 93.5q0 57 17.5 94.5t36.5 37.5t36.5 -37.5t17.5 -94.5q0 -56 -17.5 -93.5t-36.5 -37.5z" />
</svg>