<svg viewBox="0 0 1024 1024" xmlns="http://www.w3.org/2000/svg">
  <path transform="scale(1, -1) translate(0, -960)" fill="currentColor" d="M965 277v1.5v1.5v2v1v0.5v1.5l-114 369l42 -4h0.5h0.5q4 0 7.5 1t5.5 3q3 3 4 7t-1 8l-30 115l29 114q1 3 0 7.5t-3 6.5q-3 2 -6.5 4t-8.5 1l-281 -27q-20 18 -44.5 28t-53.5 10t-53.5 -10t-44.5 -28l-283 27q-3 1 -6.5 -1t-6.5 -4q-2 -2 -3 -6.5t0 -7.5l29 -114 l-29 -114q-1 -3 0 -7.5t3 -6.5q3 -2 6.5 -3.5t6.5 -1.5h1h1l41 5l-115 -357v-0.5v-0.5v-2v-2v-1.5v-1.5t0.5 -1.5l1.5 -1.5v-1v-1l153 -265q15 -24 39.5 -38.5t52.5 -14.5h414q28 0 52 13.5t38 37.5l153 253v1v1q0 1 1 2l1 1v0zM848 779l24 -96l-238 24q10 17 16 36t6 41 q0 20 -6 40t-16 37l238 24l-24 -96v-5v-5zM624 784q0 -47 -32.5 -79.5t-79.5 -32.5t-79.5 32.5t-32.5 79.5t32.5 79.5t79.5 32.5t79.5 -32.5t32.5 -79.5zM176 787l-24 96l238 -24q-10 -17 -16 -36t-6 -39t6 -40t16 -37l-240 -22l24 96q2 1 2 3v3v0zM414 678q20 -18 45 -28 t53 -10q29 0 53.5 10t44.5 28l206 -20l104 -338q-89 57 -196 87q-106 29 -215 31t-214 -24t-191 -80l104 324zM782 35q-9 -17 -26 -26t-36 -9h-414q-20 0 -37.5 10t-26.5 27l-146 253q84 59 192 88q107 28 220 26.5t223 -33.5q109 -32 197 -94l-146 -242v0z" />
</svg>