<svg viewBox="0 0 1024 1024" xmlns="http://www.w3.org/2000/svg">
  <path transform="scale(1, -1) translate(0, -960)" fill="currentColor" d="M555 326q19 11 31 31.5t12 44.5q0 36 -25 61t-61 25t-61 -25t-25 -61q0 -24 12 -44t31 -32q-19 -6 -37 -17.5t-32 -28.5q-22 -25 -33.5 -59.5t-12.5 -73.5q0 -5 2 -8.5t7 -5.5q13 -7 56 -23t93 -16q55 0 96 16t53 23q3 2 5.5 5.5t2.5 8.5q0 39 -12.5 73t-34.5 60 q-13 17 -29.5 28.5t-37.5 17.5v0zM512 456q23 0 38.5 -16t15.5 -38q0 -23 -15.5 -39t-38.5 -16t-38.5 16t-15.5 39q0 22 15.5 38t38.5 16zM512 126q-40 0 -74.5 12t-50.5 19q3 30 12.5 56t26.5 46q16 21 39 32t49 11q25 0 47.5 -10.5t40.5 -32.5q16 -19 26 -45.5t12 -56.5 q-17 -7 -51.5 -19t-76.5 -12v0zM845 627l-299 282q-10 9 -22.5 14t-25.5 5h-256q-35 0 -59.5 -24t-24.5 -59v-794q0 -35 24.5 -59t59.5 -24h540q35 0 59.5 24t24.5 59v528q0 15 -6 27.5t-15 20.5zM811 616h-246q-16 0 -26.5 10.5t-10.5 24.5v231zM834 51q0 -21 -15 -36 t-37 -15h-540q-22 0 -37 15t-15 36v794q0 21 15 36t37 15h254v-246q0 -28 20 -48t49 -20h269v-2v-1v-528v0z" />
</svg>