<svg viewBox="0 0 1024 1024" xmlns="http://www.w3.org/2000/svg">
  <path transform="scale(1, -1) translate(0, -960)" fill="currentColor" d="M907 741h-389l-44 128q-9 25 -31 41t-49 16h-277q-35 0 -60 -25t-25 -59v-788q0 -34 25 -59t60 -25h790q35 0 60 25t25 59v604q0 34 -25 58.5t-60 24.5zM960 54q0 -21 -15.5 -36.5t-37.5 -15.5h-790q-22 0 -37.5 15.5t-15.5 36.5v788q0 21 15.5 36.5t37.5 15.5h277 q16 0 29.5 -9.5t19.5 -25.5l48 -139q1 -5 5.5 -8t9.5 -3h401q22 0 37.5 -15.5t15.5 -37.5v-602v0zM560 410q20 12 32.5 31.5t12.5 44.5q0 38 -26 63t-62 25q-37 0 -62.5 -26t-25.5 -62q0 -25 12 -44.5t33 -31.5q-21 -6 -38.5 -19t-32.5 -29q-21 -27 -33.5 -61.5t-12.5 -73.5 q0 -5 2.5 -8.5t6.5 -5.5q14 -7 57.5 -23t94.5 -16q57 0 98.5 16.5t53.5 22.5q4 2 6 5.5t2 8.5q-1 40 -12.5 74.5t-33.5 60.5q-16 16 -34 28t-38 20zM517 542q23 0 39.5 -16.5t16.5 -39.5q0 -22 -16.5 -39t-39.5 -17t-39.5 17t-16.5 39q0 23 16 39.5t40 16.5zM517 205 q-41 0 -77 11.5t-51 18.5q2 31 11.5 58t26.5 46q18 22 41.5 32.5t48.5 10.5t48 -11t41 -32q17 -20 27.5 -47t11.5 -58q-16 -6 -50.5 -17.5t-77.5 -11.5z" />
</svg>