<svg viewBox="0 0 256 256" xmlns="http://www.w3.org/2000/svg">
  <path transform="scale(1, -1) translate(0, -256)" fill="currentColor" d="M145 98q7 7 7 18t-7 18t-17.5 7t-17.5 -7t-7 -18t7 -18q-8 -4 -13 -10q-12 -15 -12 -35q0 -4 5 -6.5t13 -5.5q13 -4 25 -4q20 0 39 10q3 2 3 7q0 21 -12 34q-7 7 -13 10zM128 127q5 0 8 -3t3 -7.5t-3 -7.5t-7.5 -3t-8 3t-3.5 7.5t3 7.5t8 3zM128 51q-12 0 -28 6 q1 13 8.5 22t19 9t19 -9t9.5 -22q-5 -2 -12.5 -4t-15.5 -2zM213 175l-75 71q-5 5 -14 5h-64q-9 0 -16 -7t-7 -16v-199q0 -10 7 -16.5t16 -6.5h136q9 0 16 7t7 16v132q0 9 -6 14zM135 230l61 -57h-55q-2 0 -4 1.5t-2 3.5v52zM196 19h-136q-3 0 -6 2.5t-3 6.5v199q0 4 3 7t6 3 h61v-59q0 -8 6 -13.5t14 -5.5h65v-130q-1 -4 -3.5 -7t-6.5 -3z" />
</svg>