<svg viewBox="0 0 256 256" xmlns="http://www.w3.org/2000/svg">
  <path transform="scale(1, -1) translate(0, -256)" fill="currentColor" d="M227 204h-95l-11 30q-2 8 -8.5 12.5t-14.5 4.5h-69q-10 0 -17 -7t-7 -17v-197q0 -10 7 -17t17 -7h198q10 0 17 7t7 17v150q0 10 -7 17t-17 7zM237 30q0 -5 -3 -7.5t-7 -2.5h-198q-4 0 -7 2.5t-3 7.5v196q0 5 3 7.5t7 2.5h69q4 0 6.5 -1.5t3.5 -4.5l12 -35q1 -2 2.5 -3.5 t4.5 -1.5h100q4 0 7 -3t3 -7v-150zM146 119q8 8 8 18.5t-7.5 18t-18 7.5t-17.5 -7.5t-7 -18t8 -18.5q-8 -4 -14 -11q-12 -14 -12 -35q0 -5 4 -7q20 -10 39 -10q13 0 26 5q8 2 14 5q3 2 3 7q0 21 -12 35q-7 8 -14 11zM129 149q5 0 8 -3.5t3 -8t-3 -8t-8 -3.5t-8 3.5t-3 8t3 8 t8 3.5zM129 70q-13 0 -29 7q1 13 9 23t20 10t20 -10t9 -23q-12 -7 -29 -7z" />
</svg>