<svg viewBox="0 0 256 256" xmlns="http://www.w3.org/2000/svg">
  <path transform="scale(1, -1) translate(0, -256)" fill="currentColor" d="M241 114l-31 31q-3 2 -5.5 2t-4.5 -2t-2.5 -5t2.5 -5l31 -31q6 -6 6 -14t-5.5 -13.5t-13.5 -5.5t-14 6l-14 14q1 4 1 8q0 10 -7 17l-96 97l6 6q2 3 3 6.5t-0.5 7t-5 5.5t-6.5 2h-67q-5 0 -9 -3.5t-4 -8.5v-68q0 -3 2 -6.5t4.5 -4.5t7 -1t7.5 4l6 5l97 -97q7 -7 17 -7h1 l35 -35q2 -2 5 -2t5 2t2 5t-2 5l-31 31l21 21l12 -13q10 -9 23.5 -9t23.5 9.5t10 23t-10 23.5zM136 145l-21 -50l-29 29l21 50zM19 164v62h62zM78 203l18 -19l-21 -50l-33 33zM153 70q-3 -3 -7 -3t-7 3l-14 14l21 50l29 -28q3 -3 3 -7t-3 -7z" />
</svg>