<svg viewBox="0 0 1024 1024" xmlns="http://www.w3.org/2000/svg">
  <path transform="scale(1, -1) translate(0, -960)" fill="currentColor" d="M957 381l-125 126q-5 5 -11.5 5t-10.5 -5q-5 -5 -5 -11t5 -11l126 -127q25 -25 25 -61.5t-25 -61.5t-61.5 -25t-61.5 25l-64 64q3 9 5.5 17t2.5 17q0 17 -6 32t-18 25l-399 397l32 32q9 9 11 20t-3 22q-4 11 -13.5 17.5t-21.5 6.5h-269q-15 -1 -26.5 -12t-11.5 -27v-268 q0 -12 6.5 -21.5t17.5 -14.5q4 -1 7.5 -2t6.5 -1q8 0 15 2.5t13 8.5l32 32l396 -396q12 -12 27 -18t31 -6h4.5t5.5 1v-0.5t1 -0.5l144 -144q3 -3 6 -4t5 -1q3 0 6 1t6 4q4 4 4 10.5t-4 11.5l-135 134q4 3 8.5 5.5t7.5 6.5l87 86l59 -59q18 -18 40 -26.5t45 -8.5q22 0 44 8.5 t40 26.5q34 35 34 84t-35 84v0zM558 517l-96 -224l-132 133l94 225zM74 573q-3 -3 -4.5 -2.5t-2.5 0.5t-2 1.5t-1 3.5v270q0 3 2 5t4 2h269q3 0 4 -1t1 -2q0 -2 0.5 -4t-2.5 -3l-268 -270v0zM310 765l88 -88l-94 -226l-154 154l160 160v0zM619 208q-14 -14 -35 -14t-35 14 l-61 61l96 224l125 -125q7 -7 10.5 -16.5t3.5 -18.5q0 -10 -3.5 -19t-10.5 -16l-90 -90v0z" />
</svg>