<svg viewBox="0 0 1024 1024" xmlns="http://www.w3.org/2000/svg">
  <path transform="scale(1, -1) translate(0, -960)" fill="currentColor" d="M966 237l-145 93q-18 12 -40 8t-34 -21l-41 -56q-5 -7 -14.5 -8.5t-17.5 3.5q-75 44 -135 94q-60 51 -106 99t-78 89q-31 41 -48 65q-2 4 -2.5 7.5t-0.5 7.5q1 3 3.5 6.5t4.5 5.5l59 40q9 6 14.5 14.5t8.5 19.5q2 11 0 20.5t-8 19.5l-98 139q-12 17 -33 22t-41 -6 l-132 -77q-5 -2 -8 -4.5t-5 -4.5q-36 -38 -36 -101t31.5 -139t92.5 -160q60 -85 145 -165q64 -60 130 -107q65 -48 128.5 -81t121.5 -50q58 -18 107 -18q32 0 59.5 8.5t47.5 25.5l5.5 5.5t5.5 6.5v0v0l80 128q10 18 4.5 38.5t-25.5 32.5zM957 182l-80 -128q-1 -1 -2.5 -2 t-2.5 -2q-35 -30 -95 -27q-61 3 -135.5 33t-157.5 85q-83 54 -162 129q-78 75 -136 154q-57 78 -88.5 149t-33.5 128q-3 57 27 89q1 2 2.5 3t2.5 1l134 75l6 2t6 1q6 0 10.5 -2.5t8.5 -7.5l97 -139q3 -3 4 -7t0 -7q-2 -4 -4 -7.5t-4 -5.5l-60 -40q-8 -6 -14 -14.5t-8 -19.5 q-2 -9 0 -19.5t8 -18.5q17 -25 49 -67t79.5 -91.5t109.5 -102.5q62 -52 138 -97q18 -11 40 -7t34 21l41 56q5 7 14.5 8.5t17.5 -3.5l146 -93q8 -4 10.5 -11t-2.5 -15v0z" />
</svg>