<svg viewBox="0 0 256 256" xmlns="http://www.w3.org/2000/svg">
  <path transform="scale(1, -1) translate(0, -256)" fill="currentColor" d="M242 75l-36 24q-6 4 -13 2.5t-11 -8.5l-10 -13q0 -1 -1 -1h-2q-32 20 -60 51q-17 19 -31 40v2t1 2l15 10q6 4 7 10.5t-3 12.5l-24 36q-4 6 -10.5 7.5t-11.5 -2.5l-36 -20l-1 -1q-14 -13 -11 -38t21 -56t47 -60q21 -20 43 -35.5t43 -24t37 -8.5q19 0 31 11l1 1l20 35 q4 6 2.5 12.5t-7.5 10.5zM235 60l-20 -34q-7 -7 -20.5 -7t-31.5 7q-40 16 -81 57q-27 27 -44 56q-16 26 -19.5 47t5.5 30l34 20q1 1 2 1t2 -1l24 -37q1 -1 0.5 -2t-1.5 -1l-15 -11q-5 -4 -6.5 -10.5t2.5 -11.5q14 -22 33 -42q29 -32 62 -53q6 -4 12.5 -2.5t10.5 6.5l9 14 q3 3 5 2l36 -24q3 -2 1 -4zM137 186q6 0 10 4t4 9.5t-4 10t-10 4.5t-10 -4.5t-4 -10t4 -9.5t10 -4zM170 200q0 -6 4 -10t10 -4t10 4t4 9.5t-4 10t-10 4.5t-10 -4.5t-4 -9.5zM218 200q0 -6 4 -10t9.5 -4t10 4t4.5 9.5t-4.5 10t-10 4.5t-9.5 -4.5t-4 -9.5z" />
</svg>