<svg viewBox="0 0 1024 1024" xmlns="http://www.w3.org/2000/svg">
  <path transform="scale(1, -1) translate(0, -960)" fill="currentColor" d="M968 230l-146 96q-19 12 -40.5 8t-34.5 -20l-41 -58q-5 -7 -14.5 -8.5t-16.5 3.5q-23 15 -45.5 30t-43.5 31q-5 4 -12 3.5t-11 -6.5q-3 -5 -3 -12t6 -11q23 -16 46 -32.5t47 -31.5q19 -12 40.5 -7.5t33.5 22.5l41 57q5 8 14.5 9t16.5 -4l145 -96q8 -5 10 -13t-2 -16 l-80 -131l-2 -2t-2 -3q-28 -24 -73 -26q-46 -3 -102.5 13.5t-122.5 51.5q-65 35 -133 86q-5 4 -12 3t-10 -6q-4 -5 -3 -12t6 -10q51 -39 101 -68q49 -30 95.5 -50t89.5 -30q42 -11 79 -11q32 0 59.5 8.5t47.5 26.5q2 3 5.5 6.5t5.5 6.5l80 131q10 18 4.5 39t-23.5 33v0z M901 829q-5 5 -11.5 5t-11.5 -5l-417 -410q-58 59 -96 109.5t-56 77.5q-5 8 -3 16t9 13l59 40q9 6 14.5 15t8.5 19q2 11 0 21t-8 19l-98 142q-12 18 -33 22.5t-40 -6.5l-136 -75q-5 -2 -8 -4.5t-7 -5.5q-35 -38 -35 -101t30 -139.5t88 -161.5t140 -167l-167 -163 q-5 -5 -5 -11.5t5 -11.5q3 -2 6 -3.5t5 -1.5q4 0 6.5 1.5t5.5 3.5l755 739q5 4 5 11t-5 12zM91 800l2.5 2.5l2.5 2.5l134 78q8 5 17 3t14 -9l97 -143q3 -3 4 -7.5t0 -8.5q-2 -3 -4 -6.5t-6 -5.5l-59 -40q-18 -12 -22.5 -33.5t7.5 -40.5q18 -28 58 -80t99 -112l-125 -122 q-75 75 -129 154q-55 78 -85 149t-32 128q-3 58 27 91v0z" />
</svg>