<svg viewBox="0 0 1024 1024" xmlns="http://www.w3.org/2000/svg">
  <path transform="scale(1, -1) translate(0, -960)" fill="currentColor" d="M816 552q29 0 56.5 10.5t49.5 31.5q4 4 4 10.5t-4 11.5q-5 5 -11.5 5t-11.5 -5q-35 -32 -84 -32t-82 32q-17 16 -25.5 36t-8.5 42t9 42.5t25 36.5q35 32 84 32t82 -32l1.5 -1.5t1.5 -0.5l-80 -22q-6 -1 -9 -7t-2 -12q1 -5 5.5 -8.5t10.5 -3.5h2.5h2.5l93 26q7 2 13 7 t11 12q3 7 4 14.5t-1 16.5l-27 97q-1 6 -7 9.5t-12 1.5q-6 -1 -9.5 -7t-2.5 -12l23 -77q-45 36 -103 34t-100 -42q-22 -20 -33.5 -46t-11.5 -54q0 -29 11.5 -55.5t33.5 -45.5q20 -23 47 -34t55 -11v0zM968 226l-146 97q-19 13 -41.5 7.5t-38.5 -28.5l-38 -52 q-5 -8 -13.5 -10t-15.5 3q-74 47 -135 101q-60 53 -106.5 104t-77.5 94q-32 43 -49 69q-5 7 -3 16.5t10 14.5l59 41q18 13 22 35t-8 40l-97 146q-12 18 -33.5 23t-40.5 -5l-141 -84q-1 0 -1.5 -1t-1.5 -2q-39 -39 -41 -105q-1 -65 29.5 -146t92.5 -170q61 -90 148 -177 q41 -41 83 -77q43 -36 86.5 -66t86.5 -53q43 -24 85 -41q40 -16 76.5 -24t68.5 -8q35 0 63.5 10t48.5 30l1.5 1.5l1.5 1.5l82 139q11 20 6.5 42t-22.5 34v0zM957 168l-82 -138q-31 -30 -89 -30t-133 30q-40 17 -82 40t-83.5 52t-83.5 64q-41 35 -81 75q-78 78 -136 162 q-58 83 -89.5 158.5t-33.5 136.5q-2 60 30 93l138 82q7 5 16.5 3t13.5 -10l98 -145q5 -7 3.5 -16.5t-9.5 -14.5l-60 -41q-18 -12 -22 -34t8 -40q17 -26 49 -70q32 -45 79.5 -97t109.5 -107q63 -55 140 -103q18 -12 39 -7t33 23l36 52q9 11 18 15t18 -2l145 -97 q10 -8 12.5 -17.5t-2.5 -16.5v0z" />
</svg>