<svg viewBox="0 0 256 256" xmlns="http://www.w3.org/2000/svg">
  <path transform="scale(1, -1) translate(0, -256)" fill="currentColor" d="M214 60q-31 2 -62 16q-2 1 -5 0t-4 -3l-18 -33q-25 14 -45.5 34.5t-34.5 45.5l33 18q2 1 3 3.5t0 5.5q-14 30 -17 62q0 3 -2 4.5t-4 1.5h-41q-3 0 -5 -2t-2 -5q0 -45 20 -87q15 -31 39.5 -56t56.5 -40q41 -20 87 -20q3 0 5 2t2 5v41q0 3 -2 5t-4 2zM24 201h28 q3 -28 14 -54l-27 -14q-14 33 -15 68zM138 34l14 27q26 -11 54 -14v-28q-35 1 -68 15zM167 194h23q3 0 5 2.5t2 5.5t-2 5t-5 2h-7v3q0 3 -2 5t-5 2t-5.5 -2t-2.5 -5v-3h-1q-8 0 -13.5 -5.5t-5.5 -14t5.5 -14t13.5 -5.5h10q2 0 3.5 -1.5t1.5 -3.5t-1.5 -3.5t-3.5 -1.5h-22 q-3 0 -5 -2t-2 -5t2 -5t5 -2h14v-4q0 -3 2 -5t5 -2t5 2t2 5v4q6 2 10 7t4 12.5t-5.5 13t-13.5 5.5h-10q-2 0 -4 1.5t-2 3.5t1.5 3.5t3.5 1.5zM172 251q-20 0 -36.5 -10t-26.5 -27t-10 -37t10 -36.5t27 -26.5t36.5 -10t36.5 10t27 26.5t10 36.5t-10 37t-27 27t-37 10z M172 118q-16 0 -29.5 8t-21.5 21.5t-8 29.5t8 30t21.5 22t30 8t30 -8t21.5 -21.5t8 -30t-8 -30t-21.5 -21.5t-30.5 -8z" />
</svg>