<svg viewBox="0 0 256 256" xmlns="http://www.w3.org/2000/svg">
  <path transform="scale(1, -1) translate(0, -256)" fill="currentColor" d="M244 76l-37 24q-6 4 -12.5 2.5t-10.5 -6.5l-10 -14q-1 -2 -4 -1q-13 8 -22 15q-2 2 -5 1.5t-4.5 -2.5t-1.5 -5t3 -5q12 -9 23 -16q5 -3 12 -2t10 7l11 14q1 2 3 0l37 -24q2 -1 0 -3l-20 -33q-13 -11 -42 -2t-62 33q-2 2 -5 1.5t-5 -2.5t-1.5 -5t2.5 -5q26 -20 50 -30 t42.5 -10t29.5 9q3 3 3 4l20 33q4 6 2.5 12t-6.5 10zM227 225q-2 2 -5 2t-5 -2l-102 -100q-19 20 -35 44q-2 2 0 3l15 10q6 4 7 11t-2 12l-25 36q-3 5 -10 6.5t-12 -1.5l-35 -20l-3 -2q-12 -14 -9.5 -37t19 -51.5t43.5 -56.5l-39 -39q-2 -2 -2 -5t2 -5t5 -2t5 2l188 185 q2 2 2 5t-2 5zM25 214h1l34 20q0 1 1.5 0.5t1.5 -1.5l25 -35v-2l-1 -2l-15 -10q-5 -4 -6.5 -10.5t2.5 -11.5q15 -23 38 -47l-27 -26q-25 25 -41 52q-15 24 -18 44t5 29z" />
</svg>