<svg viewBox="0 0 1024 1024" xmlns="http://www.w3.org/2000/svg">
  <path transform="scale(1, -1) translate(0, -960)" fill="currentColor" d="M962 226l-146 97q-19 13 -41.5 7.5t-38.5 -28.5l-37 -52q-5 -8 -13 -10t-16 3q-74 47 -134 101q-61 53 -107 104t-78 94t-49 69q-4 7 -2 16.5t9 14.5l59 41q18 13 22 35t-8 40l-97 146q-12 18 -33.5 23t-40.5 -5l-141 -84q-1 0 -1.5 -1t-1.5 -2q-39 -38 -41 -104 q-1 -66 30 -146.5t92 -170.5t148 -177q41 -41 84 -77q42 -36 85.5 -66t86.5 -53q43 -24 85 -41q41 -16 77 -24t68 -8q35 0 63.5 10t48.5 30q2 1 2 1.5t2 1.5l81 139q11 20 6 42t-23 34v0zM950 168l-81 -138q-31 -30 -89 -30t-134 30q-40 17 -81 40q-42 23 -84 52t-83 64 q-42 35 -81 75q-79 78 -136 162q-58 83 -89 158.5t-34 136.5q-2 60 30 93l138 82q8 5 16.5 3t13.5 -10l98 -145q4 -7 3 -16.5t-10 -14.5l-59 -41q-18 -12 -22 -34t8 -40q16 -26 49 -70q32 -45 79.5 -97t109.5 -107t139 -103q18 -12 39 -7t33 23l37 52q8 11 17.5 15t17.5 -2 l146 -97q9 -8 11.5 -17.5t-2.5 -16.5v0zM547 662q30 0 51 21t21 51t-21 51t-51 21t-51 -21t-21 -51t21 -51t51 -21zM547 774q17 0 28.5 -11.5t11.5 -28.5q0 -16 -11.5 -28t-28.5 -12t-28.5 12t-11.5 28q0 17 12.5 28.5t27.5 11.5zM736 662q30 0 51 21t21 51t-21 51t-51 21 t-51 -21t-21 -51t21.5 -51t50.5 -21zM736 774q17 0 28.5 -11.5t11.5 -28.5q0 -16 -11.5 -28t-28.5 -12t-28.5 12t-11.5 28q0 17 12 28.5t28 11.5zM926 662q30 0 51 21t21 51t-21 51t-51 21t-51 -21t-21 -51t21 -51t51 -21zM926 774q17 0 28.5 -11.5t11.5 -28.5 q0 -16 -11.5 -28t-28.5 -12q-16 0 -28 12t-12 28q0 17 12 28.5t28 11.5z" />
</svg>