<svg viewBox="0 0 1024 1024" xmlns="http://www.w3.org/2000/svg">
  <path transform="scale(1, -1) translate(0, -960)" fill="currentColor" d="M910 370q-2 22 -18 37t-39 15h-682q-23 0 -39 -15t-18 -37l-36 -338q-1 -12 2.5 -23.5t12.5 -21.5q9 -9 20 -14t25 -5h750q12 0 23.5 5t19.5 14q9 10 12.5 21.5t2.5 23.5l-36 338v0zM906 8q-4 -4 -9 -6t-11 -2h-748q-6 0 -11 2t-9 6q-3 4 -5 9.5t-1 11.5l32 337 q1 10 8.5 17t17.5 7h683q9 0 16.5 -6.5t8.5 -17.5l34 -337q1 -6 -0.5 -11t-5.5 -10v0zM512 294q-42 0 -71.5 -29t-29.5 -71t29.5 -71.5t71.5 -29.5t71.5 29.5t29.5 71.5t-29.5 71t-71.5 29v0zM512 126q-29 0 -49 20t-20 49t20 49t49 20t49 -20t20 -49t-20 -49t-49 -20v0z M117 648q2 -47 33.5 -67.5t52.5 -20.5v0v0h112q31 2 57 23.5t26 64.5v51h53h73h73h53v-51q0 -43 26 -64.5t58 -23.5h112v0v0q22 0 53 20.5t34 67.5v15v23v17.5v8.5v1v1q-3 31 -14.5 57t-30.5 47q-29 26 -61.5 42t-58.5 26q-79 32 -158.5 37t-83.5 5v0v0q-70 -1 -123.5 -8.5 t-119.5 -33.5q-26 -9 -58.5 -25.5t-62.5 -42.5q-20 -21 -31 -46.5t-14 -56.5v-0.5v-0.5v-9v-17v-24v-16v0zM184 795q26 24 55.5 38.5t54.5 24.5q64 22 114 29.5t118 8.5q4 0 81 -5.5t151 -32.5q26 -10 55 -24t54 -37q16 -16 24.5 -37t10.5 -46v-9.5v-16.5v-23.5v-14.5 q-2 -33 -23 -45.5t-31 -12.5v0v0h-110q-10 0 -32.5 9.5t-22.5 46.5v66q0 4 -3 8.5t-8 7.5q-2 1 -47.5 1h-99.5h-98.5t-47.5 -1q-5 -2 -8 -6t-3 -10v-66q0 -36 -22 -45.5t-31 -10.5h-112v0v0q-9 0 -30.5 12.5t-23.5 43.5v16v24v16.5v7.5q2 26 11.5 47t23.5 36v0z" />
</svg>