<svg viewBox="0 0 1024 1024" xmlns="http://www.w3.org/2000/svg">
  <path transform="scale(1, -1) translate(0, -960)" fill="currentColor" d="M968 226l-146 97q-19 13 -41.5 7.5t-38.5 -28.5l-38 -52q-5 -8 -13.5 -10t-15.5 3q-74 47 -135 101q-60 53 -106.5 104t-77.5 94q-32 43 -49 69q-5 7 -3 16.5t10 14.5l59 41q18 13 22 35t-8 40l-97 148q-12 18 -33.5 23t-40.5 -6l-141 -85q-1 0 -1.5 -1t-1.5 -2 q-39 -39 -41 -105q-1 -65 29.5 -146t92.5 -170q61 -90 148 -177q41 -41 83 -77q43 -36 86.5 -66t86.5 -53q43 -24 85 -41q40 -16 76.5 -24t68.5 -8q35 0 63.5 10t48.5 30l1.5 1.5l1.5 1.5l84 139q9 20 4.5 42t-22.5 34v0zM957 168l-82 -138q-31 -30 -89 -30t-133 30 q-40 17 -82 40t-83.5 52t-83.5 64q-41 35 -81 75q-78 78 -136 162q-58 83 -89.5 158.5t-33.5 136.5q-2 60 30 93l138 82q7 5 16.5 3t13.5 -10l98 -145q5 -7 3.5 -16.5t-9.5 -14.5l-60 -41q-18 -12 -22 -34t8 -40q17 -26 49 -70q32 -45 79.5 -97t109.5 -107q63 -55 140 -103 q18 -11 39 -6.5t33 22.5l36 52q9 11 18 15t18 -2l145 -97q10 -8 12.5 -17.5t-2.5 -16.5v0zM598 875q67 -4 126 -32q60 -27 105.5 -71.5t73.5 -103.5q29 -59 35 -126q0 -6 5 -10t11 -4h0.5h0.5q7 0 11.5 5t3.5 13q-6 73 -37 137q-32 64 -81.5 112.5t-113.5 77.5 q-65 30 -138 34q-6 0 -11 -4t-7 -10q0 -7 4.5 -12.5t11.5 -5.5v0zM584 715q74 -8 127 -61t62 -128q1 -6 5.5 -10t10.5 -4h0.5h0.5q6 1 10.5 6.5t4.5 11.5q-5 42 -23 79q-19 38 -47.5 66.5t-65.5 47.5q-38 19 -80 24q-7 1 -12 -3t-6 -11q-1 -6 3 -11.5t10 -6.5v0z" />
</svg>