<svg viewBox="0 0 256 256" xmlns="http://www.w3.org/2000/svg">
  <path transform="scale(1, -1) translate(0, -256)" fill="currentColor" d="M202 153q20 0 33.5 14t13.5 34t-13.5 33.5t-34 13.5t-34 -14t-13.5 -33.5t14 -33.5t34 -14zM225 177q-10 -10 -23 -10q-10 0 -19 5l47 47q6 -10 5 -22t-10 -20zM178 224q10 10 24 10q9 0 18 -5l-46 -47q-7 10 -6 22t10 20zM244 75l-37 24q-6 4 -12.5 2.5t-11.5 -8.5 l-9 -13q-1 -1 -2 -1h-2q-32 20 -59 51q-18 19 -31 40q-1 1 -1 2t1 2l15 10q6 4 7 10.5t-2 12.5l-25 36q-3 6 -10 7.5t-12 -2.5l-37 -21q-13 -13 -10.5 -38t20.5 -56t47 -60q21 -20 43 -35.5t43 -24t37 -8.5q20 0 31 11l1 1l21 35q3 6 1.5 12.5t-6.5 10.5zM236 60l-20 -34 q-7 -7 -20.5 -7t-31.5 7q-39 16 -81 57q-27 27 -44 56q-16 26 -19.5 47t5.5 30l34 20q1 1 2 1t2 -1l24 -37q1 -1 0.5 -2t-1.5 -1l-14 -11q-5 -4 -6.5 -10.5t2.5 -11.5q14 -22 32 -42q29 -32 63 -53q6 -4 12 -2.5t10 6.5l10 14q2 3 4 2l37 -24q2 -2 0 -4z" />
</svg>