<svg viewBox="0 0 256 256" xmlns="http://www.w3.org/2000/svg">
  <path transform="scale(1, -1) translate(0, -256)" fill="currentColor" d="M244 75l-37 24q-6 4 -12.5 2.5t-11.5 -8.5l-9 -13q-1 -1 -2 -1h-2q-32 20 -59 51q-18 19 -31 40q-1 1 -1 2t1 2l15 10q6 4 7 10.5t-2 12.5l-25 37q-3 5 -10 6.5t-12 -1.5l-37 -22q-13 -13 -10.5 -38t20.5 -56t47 -60q21 -20 43 -35.5t43 -24t37 -8.5q20 0 31 11l1 1 l21 35q3 6 1.5 12.5t-6.5 10.5zM237 60l-20 -34q-7 -7 -20.5 -7t-31.5 7q-40 16 -82 57q-27 27 -44 56q-16 26 -19.5 47t5.5 30l34 20q1 1 2 1t2 -1l24 -37q1 -1 0.5 -2t-1.5 -1l-14 -11q-5 -4 -6.5 -10.5t2.5 -11.5q14 -22 32 -42q29 -32 63 -53q6 -4 12 -2.5t10 6.5l10 14 q2 3 4 2l37 -24q2 -2 1 -4zM149 232q22 -2 40 -13t29.5 -29t13.5 -39q0 -3 2 -4.5t4 -1.5h1q3 0 4.5 2t1.5 5q-2 25 -15 46t-34 33.5t-46 14.5q-3 0 -5 -2t-2.5 -5t1.5 -5t5 -2zM146 192q17 -2 29.5 -14.5t14.5 -30.5q0 -2 2 -4t5 -2h1q3 0 4.5 2.5t1.5 4.5q-3 23 -19 39 t-38 18q-3 0 -5 -1.5t-2.5 -4t1.5 -5t5 -2.5z" />
</svg>