<svg viewBox="0 0 256 256" xmlns="http://www.w3.org/2000/svg">
  <path transform="scale(1, -1) translate(0, -256)" fill="currentColor" d="M151 202h79l-22 -24q-2 -2 -2 -4.5t2 -5t5 -2.5t5 2l29 30q4 4 4 10t-4 10l-29 30q-2 2 -4.5 2t-5 -2t-2.5 -4.5t2 -5.5l22 -23h-79q-3 0 -5 -2t-2 -5t2 -4.5t5 -1.5zM244 75l-37 24q-6 4 -12.5 2.5t-11.5 -8.5l-9 -13q-1 -1 -2 -1h-2q-32 20 -59 51q-18 19 -31 40 q-1 1 -1 2t1 2l15 10q6 4 7 10.5t-2 12.5l-25 36q-3 6 -10 7.5t-12 -2.5l-37 -21q-13 -13 -10 -38t20.5 -56t46.5 -60q21 -20 43 -35.5t43 -24t37 -8.5q20 0 30 11l2 1l20 35q4 6 2.5 12.5t-6.5 10.5zM236 59l-20 -34q-7 -6 -20.5 -6t-32 7.5t-39.5 22t-41 34.5 q-27 27 -44 55q-15 27 -18.5 48t5.5 30l34 20q0 1 1.5 1t1.5 -1l25 -37v-2t-1 -1l-15 -11q-5 -4 -6.5 -10.5t2.5 -11.5q14 -22 32 -42q29 -32 63 -53q6 -4 12 -2.5t10 6.5l9 14q3 3 5 2l36 -24q3 -2 1 -5z" />
</svg>