<svg viewBox="0 0 256 256" xmlns="http://www.w3.org/2000/svg">
  <path transform="scale(1, -1) translate(0, -256)" fill="currentColor" d="M228 247h-62q-10 0 -16.5 -7t-6.5 -16v-73q0 -10 6.5 -16.5t16.5 -6.5h62q10 0 16.5 6.5t6.5 16.5v73q0 9 -6.5 16t-16.5 7zM237 151q0 -3 -2.5 -6t-6.5 -3h-62q-4 0 -6.5 2.5t-2.5 6.5v73q0 4 2.5 6.5t6.5 2.5h62q4 0 6.5 -2.5t2.5 -6.5v-73zM181 206q-3 0 -5 -2.5 t-2 -5.5v-20q0 -3 2 -5.5t5 -2.5t5 2.5t2 5.5v20q0 3 -2 5.5t-5 2.5zM213 206q-3 0 -5 -2.5t-2 -5.5v-20q0 -3 2 -5.5t5 -2.5t5 2.5t2 5.5v20q0 3 -2.5 5.5t-4.5 2.5zM234 76l-36 24q-5 4 -12 2.5t-11 -8.5l-9 -12q-1 -2 -3 -1q-30 19 -57 48q-17 19 -30 39v1t1 1l14 10 q5 4 6.5 10.5t-2.5 12.5l-23 35q-4 5 -10.5 6.5t-11.5 -2.5l-34 -20q-10 -10 -11 -26.5t7.5 -37.5t23 -42t34.5 -41t41 -35t41.5 -23t35.5 -8q19 0 30 11l1 1l19 33q4 6 2.5 12.5t-6.5 9.5zM226 62l-19 -33q-7 -6 -19.5 -6t-29.5 7q-19 8 -39 22t-38.5 32.5t-32.5 38.5 t-21.5 38t-7.5 31t6 19l33 19q1 2 3 0l23 -35q2 -2 0 -3l-14 -10q-5 -4 -6.5 -10.5t2.5 -11.5q12 -20 30 -40q28 -31 60 -51q6 -3 12 -2t10 6l9 13q2 3 4 2l35 -24q1 0 1 -0.5t-1 -1.5z" />
</svg>