<svg viewBox="0 0 1024 1024" xmlns="http://www.w3.org/2000/svg">
  <path transform="scale(1, -1) translate(0, -960)" fill="currentColor" d="M704 779l114 109v-344q0 -7 4 -11.5t12 -4.5q7 0 11.5 4.5t4.5 11.5v342l113 -108q3 -3 5.5 -4t5.5 -1q4 0 6.5 1t5.5 4q4 4 4 10.5t-4 11.5l-119 114q-14 13 -33 13t-32 -13l-119 -114q-5 -5 -5 -11.5t5 -10.5q5 -5 10.5 -4.5t10.5 5.5v0zM968 226l-146 97 q-19 13 -41.5 7.5t-38.5 -28.5l-38 -52q-5 -8 -13.5 -10t-15.5 3q-74 47 -135 101q-60 53 -106.5 104t-77.5 94q-32 43 -49 69q-5 7 -3 16.5t10 14.5l59 41q18 13 22 35t-8 40l-97 146q-12 18 -33.5 23t-40.5 -5l-141 -84q-1 0 -1.5 -1t-1.5 -2q-39 -39 -41 -105 q-1 -65 29.5 -146t92.5 -170q61 -90 148 -177q41 -41 83 -77q43 -36 86.5 -66t86.5 -53q43 -24 85 -41q40 -16 76.5 -24t68.5 -8q35 0 63.5 10t48.5 30l1.5 1.5l1.5 1.5l82 139q11 20 6.5 42t-22.5 34v0zM957 168l-82 -138q-31 -30 -89 -30t-133 30q-40 17 -82 40t-83.5 52 t-83.5 64q-41 35 -81 75q-78 78 -136 162q-58 83 -89.5 158.5t-33.5 136.5q-2 60 30 93l138 82q7 5 16.5 3t13.5 -10l98 -145q5 -7 3.5 -16.5t-9.5 -14.5l-60 -41q-18 -12 -22 -34t8 -40q17 -26 49 -70q32 -45 79.5 -97t109.5 -107q63 -55 140 -103q18 -12 39 -7t33 23 l36 52q9 11 18 15t18 -2l145 -97q10 -8 12.5 -17.5t-2.5 -16.5v0z" />
</svg>