<svg viewBox="0 0 1024 1024" xmlns="http://www.w3.org/2000/svg">
  <path transform="scale(1, -1) translate(0, -960)" fill="currentColor" d="M629 725q12 -10 27 -14.5t30 -4.5h6h6q18 2 34 11t26 24l26 33q7 10 17.5 16t22.5 7t23.5 -2t21.5 -11l94 -75q5 -4 12 -3.5t11 6.5q3 5 2.5 12t-6.5 10l-94 76q-14 12 -32.5 16.5t-36.5 2.5q-18 -3 -34 -12t-27 -23l-25 -34q-7 -10 -17.5 -15.5t-22.5 -6.5 q-12 -2 -24.5 1t-20.5 11l-94 76q-5 3 -12 2.5t-11 -6.5q-3 -4 -3 -11t6 -11l95 -75v0zM968 226l-146 97q-19 13 -41.5 7.5t-38.5 -28.5l-38 -52q-5 -8 -13.5 -10t-15.5 3q-74 47 -135 101q-60 53 -106.5 104t-77.5 94q-32 43 -49 69q-5 7 -3 16.5t10 14.5l59 41 q18 13 22 35t-8 40l-97 148q-12 18 -33.5 23t-40.5 -6l-141 -85q-1 0 -1.5 -1t-1.5 -2q-39 -39 -41 -105q-1 -65 29.5 -146t92.5 -170q61 -90 148 -177q41 -41 83 -77q43 -36 86.5 -66t86.5 -53q43 -24 85 -41q40 -16 76.5 -24t68.5 -8q35 0 63.5 10t48.5 30l1.5 1.5 l1.5 1.5l84 139q9 20 4.5 42t-22.5 34v0zM957 168l-82 -138q-31 -30 -89 -30t-133 30q-40 17 -82 40t-83.5 52t-83.5 64q-41 35 -81 75q-78 78 -136 162q-58 83 -89.5 158.5t-33.5 136.5q-2 60 30 93l138 82q7 5 16.5 3t13.5 -10l98 -145q5 -7 3.5 -16.5t-9.5 -14.5l-60 -41 q-18 -12 -22 -34t8 -40q17 -26 49 -70q32 -45 79.5 -97t109.5 -107q63 -55 140 -103q18 -11 39 -6.5t33 22.5l36 52q9 11 18 15t18 -2l145 -97q10 -8 12.5 -17.5t-2.5 -16.5v0z" />
</svg>