<svg viewBox="0 0 1024 1024" xmlns="http://www.w3.org/2000/svg">
  <path transform="scale(1, -1) translate(0, -960)" fill="currentColor" d="M987 894q-5 5 -11 5t-11 -5l-211 -198l-103 96h85q7 0 11.5 4.5t4.5 11.5t-4.5 11.5t-11.5 4.5h-120q-7 0 -11.5 -4.5t-4.5 -11.5v-120q0 -7 4.5 -11.5t11.5 -4.5t11.5 4.5t4.5 11.5v78l110 -104q3 -2 5.5 -3t6.5 -1q3 0 5.5 1t5.5 3l222 210q5 5 5 11.5t-5 10.5v0z M958 227l-145 98q-19 13 -42 7.5t-38 -28.5l-37 -53q-5 -7 -13.5 -9t-15.5 3q-74 46 -133 99q-60 53 -106 103.5t-77 92.5q-31 43 -47 68q-5 7 -3 15.5t9 14.5l60 40q18 12 22 34t-8 42l-98 145q-12 18 -33 23t-40 -7l-138 -81q-1 0 -1.5 -1t-1.5 -1q-38 -38 -40 -104 q-2 -65 28.5 -145t91.5 -168q61 -89 147 -175q40 -40 83 -76q42 -36 85 -66t86 -53q42 -24 84 -40q41 -16 77 -24t67 -8q35 0 63 9.5t49 30.5l1.5 1.5l1.5 1.5l82 138q8 19 3 40t-23 33v0zM947 171l-80 -136q-31 -29 -88 -29t-131 29q-40 16 -81 39q-41 22 -82.5 51 t-82.5 64q-41 34 -80 73q-78 78 -136 161q-57 83 -88 157.5t-34 134.5q-2 60 29 93l136 80q7 5 16 3t14 -9l98 -146q5 -7 3.5 -16.5t-10.5 -13.5l-59 -40q-18 -12 -22 -33.5t8 -40.5q17 -26 49 -70t79 -95.5t108 -105.5q62 -54 138 -102q18 -11 39 -6.5t33 21.5l37 52 q7 11 17 14.5t18 -1.5l146 -97q7 -6 9 -15t-3 -16v0z" />
</svg>