<svg viewBox="0 0 1024 1024" xmlns="http://www.w3.org/2000/svg">
  <path transform="scale(1, -1) translate(0, -960)" fill="currentColor" d="M853 163q-65 6 -128 22.5t-123 43.5q-6 2 -12 0t-9 -7l-75 -140q-55 28 -104 64q-50 36 -93 79.5t-80 92.5q-36 50 -64 104l141 76q6 2 8 8t-2 12q-26 60 -43 123t-23 129q0 6 -5 10t-11 4h-163v0v0q-3 0 -6 -1t-5 -4q-2 -2 -3.5 -4.5t-1.5 -6.5q0 -45 5 -89 q5 -45 14.5 -88t24.5 -86q15 -42 35 -83v0v0q29 -61 68 -116q40 -56 88 -103.5t103 -87.5q55 -39 117 -69q40 -19 83 -33q42 -15 85.5 -25t87.5 -15t89 -5q4 0 6.5 1t4.5 4q3 2 4 4.5t1 6.5v163q0 6 -3.5 11t-10.5 5v0zM83 752h133q6 -60 21.5 -118.5t39.5 -115.5l-127 -67 q-31 72 -47.5 147.5t-19.5 153.5zM536 69l67 126q55 -24 114 -39.5t120 -21.5v-132q-79 0 -154.5 17t-146.5 50zM669 726h89q8 0 12 4.5t4 11.5q0 8 -4 12t-12 4h-38v26q0 7 -4.5 11.5t-11.5 4.5t-11.5 -4.5t-4.5 -11.5v-26h-19q-27 0 -45.5 -18.5t-18.5 -45.5 q0 -26 18.5 -45t45.5 -19h41q14 0 23 -9t9 -23q0 -13 -9 -22.5t-23 -9.5h-89q-7 0 -11.5 -4t-4.5 -12q0 -7 4.5 -11.5t11.5 -4.5h67v-25q0 -7 4.5 -11.5t11.5 -4.5t11.5 4.5t4.5 11.5v25q24 4 40 21.5t16 42.5q0 27 -19 45.5t-45 18.5h-42q-13 0 -22.5 9.5t-9.5 22.5 q0 14 9 23t22 9zM690 928q-59 0 -110 -22q-52 -22 -90.5 -60.5t-60.5 -90.5q-23 -51 -23 -110t23 -111q22 -51 60.5 -89.5t89.5 -60.5q52 -22 111 -22q58 0 110 22t90 60.5t61 89.5q22 52 22 111t-23 110q-22 52 -60.5 90.5t-90.5 60.5q-51 22 -109 22v0zM690 395 q-52 0 -98 20q-45 20 -79.5 54t-54.5 79q-20 46 -20 98q0 53 20 98q20 46 54.5 79.5t79.5 53.5q46 19 98 19q51 0 97 -20q46 -19 80 -53t54 -80t20 -98t-20 -98q-20 -45 -54 -79t-80 -53q-46 -20 -97 -20v0z" />
</svg>