<svg viewBox="0 0 256 256" xmlns="http://www.w3.org/2000/svg">
  <path transform="scale(1, -1) translate(0, -256)" fill="currentColor" d="M196 11q-25 0 -58 17t-65 48q-29 27 -46.5 55.5t-21 52.5t9.5 37q1 2 4 3l33 19q6 3 12.5 1.5t9.5 -6.5l25 -35q4 -6 2.5 -12t-6.5 -10l-15 -10q-1 0 -1 -1l1 -1q13 -19 31 -38q27 -29 59 -48q1 -1 2 -0.5t2 0.5l10 14q4 6 10.5 7t12.5 -3l37 -23q5 -4 6.5 -10t-1.5 -12 l-20 -32q-1 -2 -3 -4q-11 -9 -30 -9zM61 231h-2l-34 -19q-9 -10 -5 -29.5t19 -44.5q17 -27 44 -52.5t55 -41.5q26 -15 47.5 -18.5t30.5 4.5l21 33q1 2 -1 3l-36 23h-2.5t-1.5 -1l-11 -14q-4 -5 -10.5 -6t-11.5 2q-34 20 -63 51q-19 20 -32 40q-4 5 -2.5 12t6.5 10l15 10 q1 0 1 1v2l-25 34q-1 1 -2 1zM223 28z" />
</svg>