<svg viewBox="0 0 256 256" xmlns="http://www.w3.org/2000/svg">
  <path transform="scale(1, -1) translate(0, -256)" fill="currentColor" d="M204 151q17 0 28 11q2 2 2.5 5t-1.5 5t-5 2t-5 -2q-8 -7 -19 -7t-18.5 7.5t-7.5 17.5t7 17t17 7.5t18 -4.5l-12 -3q-3 -1 -4.5 -3.5t-1 -5t2.5 -4t5 -1.5l25 7q5 1 7.5 5.5t1.5 10.5l-7 24q-1 3 -3.5 4.5t-5.5 0.5t-4.5 -3.5t-0.5 -5.5l4 -14q-12 8 -26.5 6.5 t-24.5 -11.5q-12 -11 -12 -27.5t12 -27.5t28 -11zM244 75l-37 24q-6 4 -12.5 2.5t-11.5 -8.5l-9 -13q-1 -1 -2 -1h-2q-32 20 -59 51q-18 19 -31 40q-1 1 -1 2t1 2l15 10q6 4 7 10.5t-2 12.5l-25 36q-3 6 -10 7.5t-12 -2.5l-37 -21q-13 -13 -10.5 -38t20.5 -56t47 -60 q21 -20 43 -35.5t43 -24t37 -8.5q20 0 31 11l1 1l21 35q3 6 1.5 12.5t-6.5 10.5zM236 60l-20 -34q-7 -7 -20.5 -7t-31.5 7q-39 16 -81 57q-27 27 -44 56q-16 26 -19.5 47t5.5 30l34 20q1 1 2 1t2 -1l24 -37q1 -1 0.5 -2t-1.5 -1l-14 -11q-5 -4 -6.5 -10.5t2.5 -11.5 q14 -22 32 -42q29 -32 63 -53q6 -4 12 -2.5t10 6.5l10 14q2 3 4 2l37 -24q2 -2 0 -4z" />
</svg>