<svg viewBox="0 0 1024 1024" xmlns="http://www.w3.org/2000/svg">
  <path transform="scale(1, -1) translate(0, -960)" fill="currentColor" d="M603 755h344l-109 -113q-4 -5 -4 -11.5t4 -11.5q3 -2 5.5 -3.5t6.5 -1.5q3 0 5.5 1.5t5.5 3.5l113 119q14 14 14 33t-14 32l-113 119q-5 4 -11.5 4t-11.5 -4q-4 -5 -4 -11.5t4 -11.5l109 -113h-344q-7 0 -11.5 -4.5t-4.5 -11.5q0 -8 5 -11.5t11 -3.5v0zM966 226l-145 97 q-19 13 -42 7.5t-38 -28.5l-37 -52q-5 -8 -13.5 -10t-15.5 3q-74 47 -135 100q-60 54 -106.5 104.5t-77.5 94.5q-32 43 -49 69q-5 7 -3 16.5t10 14.5l59 41q18 13 22 35t-8 40l-97 146q-12 18 -33.5 23t-40.5 -5l-139 -85q-1 0 -1.5 -1t-1.5 -2q-39 -39 -41 -105t29 -146.5 t92 -170.5t148 -177q41 -40 84 -75q42 -36 85 -66t86 -53q43 -24 85 -41q40 -16 76.5 -24t68.5 -8q35 0 63.5 10t48.5 30l1.5 1.5l1.5 1.5l82 139q11 20 6.5 41t-24.5 35v0zM957 168l-82 -138q-31 -30 -88.5 -30t-132.5 30q-40 17 -81 40q-42 23 -84 52t-83 64 q-42 35 -81 75q-79 78 -137 162q-58 83 -89.5 158t-33.5 136t29 94l138 82q8 3 17 1.5t13 -9.5l98 -146q5 -7 3.5 -16t-9.5 -14l-60 -42q-18 -12 -22 -33.5t8 -39.5q17 -27 49 -71t79.5 -96.5t109.5 -107.5q63 -55 140 -103q18 -11 39 -6.5t33 22.5l36 53q9 11 18 15t18 -2 l145 -98q10 -6 12.5 -15.5t-2.5 -16.5v0z" />
</svg>