<svg viewBox="0 0 256 256" xmlns="http://www.w3.org/2000/svg">
  <path transform="scale(1, -1) translate(0, -256)" fill="currentColor" d="M249 242q-2 2 -5 2t-5 -2l-51 -48l-18 17h14q3 0 5 2t2 5t-2 5t-5 2h-30q-3 0 -5 -2t-2 -5v-30q0 -3 2 -5t5 -2t5 2t2 5v13l23 -21q2 -2 4.5 -2t4.5 2l56 52q2 2 2 5t-2 5zM241 75l-36 25q-6 4 -13 2t-11 -8l-9 -13q-1 -2 -3 -1q-32 20 -59 50q-18 19 -31 40q-1 2 1 3 l14 10q6 4 7 10.5t-2 12.5l-25 36q-4 6 -10 7.5t-12 -1.5l-35 -21l-1 -1q-13 -13 -10 -38t20.5 -55t46.5 -59q20 -21 42 -36.5t42 -23.5t38.5 -8t29.5 11l1 1l21 35q3 6 1.5 12.5t-7.5 9.5zM234 60l-20 -34q-7 -6 -20 -6t-31 7q-19 8 -40 22.5t-40 34.5q-27 26 -44 54 q-15 26 -18.5 47t5.5 31l33 20q2 0 3 -1l25 -37v-1.5t-1 -1.5l-15 -10q-5 -4 -6.5 -10.5t2.5 -12.5q14 -22 32 -41q29 -32 63 -53q5 -4 11.5 -2.5t10.5 7.5l9 13q3 3 5 2l36 -24q1 -3 0 -4z" />
</svg>