<svg viewBox="0 0 256 256" xmlns="http://www.w3.org/2000/svg">
  <path transform="scale(1, -1) translate(0, -256)" fill="currentColor" d="M231 108q-1 7 -6 11.5t-12 4.5h-170q-7 0 -12 -4.5t-6 -11.5l-8 -84q-1 -8 4 -13.5t13 -5.5h188q8 0 13 5.5t5 13.5zM224 20q-1 -1 -2 -1h-188q-1 0 -2.5 1t-0.5 3l8 84q0 3 4 3h171q3 0 3 -3l9 -84zM128 93q-12 0 -20 -8.5t-8 -20t8 -19.5t20 -8t20 8t8 19.5t-8 20 t-20 8.5zM128 51q-6 0 -10 4t-4 10t4 10t10 4t10 -4t4 -10t-4 -10t-10 -4zM26 178q1 -12 9 -18.5t16 -6.5h28q10 0 17 6.5t7 18.5v9h57v-9q0 -12 7 -18.5t17 -6.5h28q8 0 16 6.5t8 18.5v16q-1 17 -12 28v0q-12 11 -31 18q-17 7 -41 9q-12 1 -21 1q-19 0 -32 -2t-30.5 -8 t-30.5 -17v-1q-10 -10 -12 -27v-17zM48 213q9 8 26 15q15 5 27.5 7t30.5 2q8 0 20 -1q21 -3 36 -8q18 -7 26 -15t9 -19v-16q0 -6 -4 -8.5t-7 -2.5h-27q-11 1 -11 11v16q0 5 -4 7h-37.5t-37.5 -0.5t-3.5 -2.5t-1.5 -4v-16q0 -10 -10 -11h-28q-2 0 -6 2.5t-4 8.5v16 q-2 11 6 19z" />
</svg>