<svg viewBox="0 0 1024 1024" xmlns="http://www.w3.org/2000/svg">
  <path transform="scale(1, -1) translate(0, -960)" fill="currentColor" d="M912 912h-248q-34 0 -57 -23t-23 -57v-291q0 -34 23 -57t57 -23h248q34 0 57 23t23 57v291q0 32 -23 56t-57 24zM960 541q0 -21 -14 -34.5t-34 -13.5h-248q-20 0 -34 13.5t-14 34.5v291q0 20 14 34t34 14h248q20 0 34 -14t14 -34v-291zM725 747q-7 0 -11.5 -4.5 t-4.5 -11.5v-83q0 -7 4.5 -11.5t11.5 -4.5t11.5 4.5t4.5 11.5v83q0 6 -4.5 11t-11.5 5zM851 747q-7 0 -11.5 -4.5t-4.5 -11.5v-83q0 -7 4.5 -11.5t11.5 -4.5t11.5 4.5t4.5 11.5v83q0 6 -5 11t-11 5zM928 232l-139 94q-19 14 -41 7.5t-36 -27.5l-35 -50q-5 -6 -12.5 -8 t-14.5 2q-72 44 -130 95t-102 99.5t-74 89.5t-46 66q-5 7 -3.5 14.5t7.5 12.5l56 40q18 12 22.5 34t-7.5 40l-95 139q-12 18 -32 22.5t-40 -6.5l-132 -78l-1 -1t-3 -1q-37 -37 -38.5 -100.5t30.5 -145.5q16 -40 39 -81q23 -42 52 -83.5t63 -82.5q35 -41 74 -80t79 -73 q41 -35 82.5 -64t82.5 -52q42 -22 82 -38q38 -16 73.5 -23t65.5 -7q34 0 61 9.5t46 28.5q2 1 2 1.5t2 1.5l78 133q11 18 6 39t-22 33v0zM917 176l-79 -131q-30 -28 -85 -28t-126 28q-38 15 -78 37t-80 49.5t-80 61.5q-39 33 -77 71t-71 78q-33 39 -61 79.5t-50 80.5t-37 79 q-29 71 -29 126t29 85l131 77q7 5 15.5 3t13.5 -10l94 -139q5 -7 3 -15.5t-8 -13.5l-56 -40q-18 -12 -21.5 -33t7.5 -39q16 -25 47 -67t76.5 -92t105.5 -103q59 -53 133 -99q18 -11 38 -7t32 21l35 50q7 11 16 14t18 -3l139 -94q5 -3 6.5 -11t-1.5 -15v0z" />
</svg>