<svg viewBox="0 0 1024 1024" xmlns="http://www.w3.org/2000/svg">
  <path transform="scale(1, -1) translate(0, -960)" fill="currentColor" d="M512 682q100 0 185 -20q86 -19 149 -51.5t99 -74.5q36 -43 36 -90q0 -46 -36 -89t-99 -75.5t-149 -52.5q-85 -19 -185 -19t-185 19q-86 20 -149 52.5t-99 75.5t-36 89q0 47 36 90q36 42 99 74.5t149 51.5q85 20 185 20v0zM512 709q-103 0 -194 -21q-90 -20 -157 -55.5 t-106 -82.5q-39 -48 -39 -102t39 -101q39 -48 106 -83t157 -55q91 -20 194 -20t194 20q90 20 157 55t106 83q39 47 39 101t-39 101q-39 48 -106 83.5t-157 55.5q-91 21 -194 21zM354 467q-9 -47 -39.5 -51.5t-69.5 -4.5l22 111q45 0 70 -4.5t17 -50.5v0v0zM166 301h58l13 70 q47 0 80 2t59 27q30 29 37 70.5t-15 65.5q-12 13 -29 20t-43 7h-110l-50 -262v0zM456 632h56l-13 -70q36 0 68 -2t49 -16q17 -17 11.5 -48.5t-22.5 -127.5h-59q16 91 20.5 113t-0.5 29q-4 8 -23.5 9t-52.5 1l-29 -152h-56l51 264v0zM798 467q-8 -47 -38.5 -51.5t-69.5 -4.5 l22 111q44 0 69.5 -4.5t16.5 -50.5v0v0zM611 301h56l13 67q50 0 81.5 2t57.5 27q30 29 37 70.5t-14 65.5q-12 13 -29.5 20t-42.5 7h-111z" />
</svg>