<svg viewBox="0 0 256 256" xmlns="http://www.w3.org/2000/svg">
  <path transform="scale(1, -1) translate(0, -256)" fill="currentColor" d="M128 186q32 0 59 -8t42.5 -21.5t15.5 -29t-15.5 -29t-42.5 -22t-59 -8.5t-59 8.5t-42.5 22t-15.5 29t15.5 29t42.5 21.5t59 8zM128 193q-34 0 -62.5 -8.5t-45 -23.5t-16.5 -33t16.5 -32.5t45 -23.5t62.5 -9t62.5 9t45 23.5t16.5 32.5t-16.5 33t-45 23.5t-62.5 8.5z M88 133q-1 -10 -8 -13q-4 -1 -15 -1h-4l6 27h4q11 1 15 -1.5t2 -11.5zM42 91h14l3 18h5q12 0 17 1q8 1 13 6q8 7 9.5 17.5t-4.5 17t-17 6.5h-28zM114 174h14l-3 -18h2h16q8 -1 11 -4t3 -8t-3 -20l-3 -16h-15l6 31q0 3 -0.5 4.5t-5.5 2.5h-14l-7 -38h-14zM200 133 q-2 -10 -9 -13q-4 -1 -15 -1h-4l6 27h4q11 1 15 -1.5t3 -11.5zM153 91h14l3 17h6q12 0 16 1q8 1 13 6q7 7 9 17.5t-4 17t-18 6.5h-27z" />
</svg>