<svg viewBox="0 0 256 256" xmlns="http://www.w3.org/2000/svg">
  <path transform="scale(1, -1) translate(0, -256)" fill="currentColor" d="M186 102q-3 0 -5.5 -1.5t-2.5 -4.5v-4q-1 -4 -3 -8t-6.5 -7t-11 -3t-10 4.5t-4.5 11.5v7l6 66h18q7 0 13 7l11 14q2 3 1.5 6t-3 4.5t-5.5 1t-4 -2.5l-12 -15h-1h-70q-8 0 -13 -6l-19 -24q-2 -2 -1.5 -5t2.5 -5t5 -2t5 3l19 23q1 1 2 1h11v0q-2 -35 -6 -57q-3 -16 -8 -24 t-11 -8q-3 0 -5 -2t-2 -5t2 -5t5 -2q14 0 23 16q6 11 9.5 27.5t6.5 52.5v7h14q-6 -59 -6 -64v-10q1 -12 8.5 -20.5t20.5 -8.5q11 0 18.5 5.5t11.5 13.5t4 16q-1 3 -2.5 5t-4.5 2zM232 251h-208q-8 0 -13.5 -5.5t-5.5 -13.5v-208q0 -8 5.5 -13.5t13.5 -5.5h208q8 0 14 5.5 t6 13.5v208q-1 8 -6.5 13.5t-13.5 5.5zM237 24q0 -2 -1.5 -3.5t-3.5 -1.5h-208q-2 0 -3.5 1.5t-1.5 3.5v208q0 2 1.5 3.5t3.5 1.5h208q2 0 3.5 -1.5t1.5 -3.5v-208z" />
</svg>