<svg viewBox="0 0 1024 1024" xmlns="http://www.w3.org/2000/svg">
  <path transform="scale(1, -1) translate(0, -960)" fill="currentColor" d="M742 333v0v0q-7 0 -11.5 -4.5t-4.5 -11.5q0 -1 -1.5 -15.5t-10.5 -32.5q-5 -11 -12 -19.5t-16 -14.5q-10 -7 -23.5 -10.5t-28.5 -3.5q-16 0 -29 5t-21 16q-8 9 -14 23.5t-7 32.5q-1 12 -0.5 20.5t0.5 11.5q0 1 3 38q4 36 8 82t8 90t5 62h82q12 0 23 5.5t18 14.5l45 60 q4 4 3 11t-6 11t-12 3t-10 -6l-47 -61q-2 -4 -6.5 -6t-9.5 -2h-280q-12 0 -22.5 -5t-17.5 -14l-77 -95q-4 -4 -3.5 -11t5.5 -11q2 -2 4.5 -2.5t5.5 -0.5t6.5 1.5t5.5 4.5l77 95q3 3 7 5.5t9 2.5h56l-1 -15q-3 -49 -8.5 -111.5t-15.5 -118.5q-6 -31 -14.5 -55t-17.5 -41 q-12 -21 -26 -30.5t-30 -9.5q-8 0 -12 -4.5t-4 -11.5t4 -11.5t12 -4.5q18 0 40 10.5t43 45.5q11 19 19.5 45t15.5 60q12 58 17 121.5t9 114.5l1 16h79q-2 -20 -6 -64t-8 -89t-7 -80q-3 -34 -3 -36q0 -4 -1 -14t1 -25q2 -22 9 -41t19 -32q14 -16 32.5 -24t41.5 -8q20 0 38 5 t32 16q12 8 22 19.5t17 24.5q11 22 13.5 40.5t2.5 20.5q1 7 -4 12.5t-11 5.5v0zM928 928h-832q-26 0 -45 -19t-19 -45v-832q0 -26 19 -45t45 -19h832q26 0 45 19t19 45v832q0 26 -19 45t-45 19zM960 32q0 -13 -9.5 -22.5t-22.5 -9.5h-832q-13 0 -22.5 9.5t-9.5 22.5v832 q0 13 9.5 22.5t22.5 9.5h832q13 0 22.5 -9.5t9.5 -22.5v-832z" />
</svg>