<svg viewBox="0 0 256 256" xmlns="http://www.w3.org/2000/svg">
  <path transform="scale(1, -1) translate(0, -256)" fill="currentColor" d="M186 102q-3 0 -5.5 -1.5t-2.5 -4.5v-4q-1 -4 -3 -8t-6.5 -7t-11 -3t-10 4.5t-4.5 11.5v7l6 66h18q7 0 13 7l11 14q2 3 1.5 6t-3 4.5t-5.5 1t-4 -2.5l-12 -15h-1h-70q-8 0 -13 -6l-19 -24q-2 -2 -1.5 -5t2.5 -5t5 -2t5 3l19 23q1 1 2 1h11v0q-2 -35 -6 -57q-3 -16 -8 -24 t-11 -8q-3 0 -5 -2t-2 -5t2 -5t5 -2q14 0 23 16q6 11 9.5 27.5t6.5 52.5v7h14q-6 -59 -6 -64v-10q1 -12 8.5 -20.5t20.5 -8.5q11 0 18.5 5.5t11.5 13.5t4 16q-1 3 -2.5 5t-4.5 2zM128 251q-33 0 -61.5 -16.5t-45 -45t-16.5 -61.5t16.5 -61.5t45 -45t61.5 -16.5t61.5 16.5 t45 45t16.5 61.5t-16.5 61.5t-45 45t-61.5 16.5zM128 19q-30 0 -54.5 15t-39.5 39.5t-15 54.5t15 54.5t39.5 39.5t54.5 15t54.5 -15t39.5 -39.5t15 -54.5t-15 -54.5t-39.5 -39.5t-54.5 -15z" />
</svg>