<svg viewBox="0 0 1024 1024" xmlns="http://www.w3.org/2000/svg">
  <path transform="scale(1, -1) translate(0, -960)" fill="currentColor" d="M950 213q-6 0 -11 -4.5t-5 -11.5q0 -1 -3.5 -31.5t-21.5 -66.5q-11 -21 -25.5 -39t-32.5 -30q-23 -15 -50 -23.5t-59 -8.5q-33 0 -60.5 12t-46.5 33q-18 21 -28.5 49.5t-14.5 64.5q-2 25 -1 43t1 21q1 4 7 81q7 78 15.5 172.5t16.5 178.5q7 84 9 101h170q19 0 37 9t30 24 l86 115q4 5 3 12t-6 11q-5 3 -12 2t-10 -5l-87 -116q-7 -9 -18 -14.5t-23 -5.5h-536q-20 0 -37 -8t-29 -23l-147 -179q-5 -5 -4 -12t5 -10q3 -3 5.5 -3.5t4.5 -0.5q4 0 7 1.5t6 5.5l149 179q7 10 17.5 14.5t22.5 4.5h121q-1 -9 -1.5 -20t-1.5 -23q-3 -47 -7 -101 q-3 -55 -8.5 -112.5t-13.5 -115.5q-8 -59 -19 -113q-12 -61 -27.5 -107t-34.5 -80q-24 -42 -54 -63.5t-65 -21.5q-7 0 -11.5 -4t-4.5 -12q0 -7 4.5 -11.5t11.5 -4.5q45 0 81.5 25.5t64.5 75.5q20 36 36 84.5t29 110.5q12 55 20 114q7 58 12.5 116t9.5 114q3 55 6 103 q2 12 2 23t2 22h182q-2 -23 -9 -107q-8 -84 -16.5 -176.5t-14.5 -167.5q-7 -75 -8 -79q0 -4 -1 -23.5t1 -46.5q4 -42 17 -75t34 -58q24 -28 57.5 -42t73.5 -14q38 0 69.5 9.5t58.5 27.5q22 14 39 34.5t30 46.5q21 41 25 75t4 36q-1 9 -5.5 14t-12.5 5v0z" />
</svg>