<svg viewBox="0 0 256 256" xmlns="http://www.w3.org/2000/svg">
  <path transform="scale(1, -1) translate(0, -256)" fill="currentColor" d="M238 72q-3 0 -5.5 -2t-2.5 -4l-1 -8q-1 -8 -5 -16q-4 -9 -13.5 -16t-25 -7t-24 10t-10.5 27q-1 7 0 14l11 132h40q6 0 11 2.5t8 6.5l22 29q2 2 1.5 5t-2.5 4.5t-5 1.5t-5 -3l-22 -28q-3 -4 -8 -4h-134q-11 0 -18 -9l-37 -45q-2 -2 -1.5 -5t2.5 -5t5 -2t5 3l37 45q3 3 7 3 h28l-1 -13q-2 -33 -4 -51q-3 -31 -7 -53q-6 -29 -15 -46q-11 -20 -27 -20q-3 0 -5.5 -2t-2.5 -5t2.5 -5t5.5 -2q10 0 19 5q11 7 20 22q10 18 17 50q4 23 7 55q2 18 4 52l1 13h39l-12 -130v-17q2 -21 14.5 -35t34.5 -14q19 0 33 10q12 8 18 21q4 9 6 20q1 5 1.5 8.5t-1.5 5.5 t-5 2z" />
</svg>