<svg viewBox="0 0 1024 1024" xmlns="http://www.w3.org/2000/svg">
  <path transform="scale(1, -1) translate(0, -960)" fill="currentColor" d="M816 805h-288v107q0 7 -4.5 11.5t-11.5 4.5t-11.5 -4.5t-4.5 -11.5v-107h-288q-26 0 -45 -19t-19 -45v-709q0 -26 19 -45t45 -19h608q26 0 45 19t19 45v709q0 26 -19 45t-45 19zM390 390q-6 14 -15 23t-18 16q-3 2 -5 3.5t-3 2.5l3 3t5 4q8 7 17.5 16t15.5 22t6.5 26 t0.5 25v6.5v4.5h4.5t6.5 -1q12 -1 26 -1.5t28 4.5t24 14.5t18 19.5l4 4t6 7q1 -1 4 -4.5t7 -6.5q8 -10 17.5 -19t22.5 -13q13 -5 27 -5t27 1q4 0 6.5 0.5t4.5 1.5v-6.5v-4.5q-1 -12 0 -25.5t7 -25.5q6 -14 15 -23t18 -16q3 -2 5 -3.5t3 -2.5l-3.5 -3.5t-5.5 -4.5 q-10 -7 -19 -16t-15 -23q-6 -13 -6 -26v-26v-6.5v-5.5q-3 0 -5.5 0.5t-5.5 1.5q-12 1 -26 1.5t-29 -4.5q-13 -5 -23 -14.5t-18 -19.5q-2 -1 -5 -4t-5 -7l-4.5 4.5l-6.5 6.5q-9 10 -18 18.5t-22 13.5q-7 3 -14.5 4t-14.5 1h-12t-14 -2h-5.5t-5.5 -1v6v5q1 13 1 27t-6 27v0z M848 32q0 -13 -9.5 -22.5t-22.5 -9.5h-288v253q4 3 8.5 8t9.5 11l13.5 13.5t13.5 10.5q8 4 18.5 3.5t19.5 -1.5q18 -3 26.5 -1.5t13.5 5.5l2 2q3 5 4.5 12.5t0.5 25.5q0 10 -0.5 19.5t3.5 17.5q3 7 10 13.5t14 12.5q14 12 19.5 18.5t5.5 13.5t-5.5 13.5t-19.5 18.5 q-7 6 -14.5 12.5t-9.5 14.5q-4 8 -3.5 18t0.5 20q1 16 -0.5 24t-6.5 13t-13.5 6t-26.5 -1q-11 -1 -21 -1.5t-19 3.5q-7 2 -14 8.5t-15 15.5q-12 14 -19 19.5t-14 5.5q-9 0 -17 -6.5t-18 -18.5q-8 -8 -14 -14.5t-14 -9.5q-8 -4 -18 -3.5t-20 1.5q-18 2 -26.5 1t-13.5 -6 l-2 -1q-3 -5 -4.5 -13.5t0.5 -25.5v-18.5t-4 -18.5q-3 -7 -9.5 -13.5t-14.5 -11.5q-14 -12 -19.5 -18.5t-5.5 -13.5t5.5 -13.5t19.5 -18.5q8 -6 15 -12.5t9 -14.5q4 -8 4.5 -17.5t-0.5 -21.5q-2 -15 -0.5 -23.5t6.5 -13.5q5 -4 13.5 -5.5t26.5 1.5q5 0 10 0.5t11 0.5 q5 0 9.5 -1t9.5 -2q7 -2 14.5 -9t14.5 -15q6 -6 10 -10.5t7 -7.5v-254h-286q-13 0 -22.5 9.5t-9.5 22.5v709q0 13 9.5 22.5t22.5 9.5h608q13 0 22.5 -9.5t9.5 -22.5v-709v0zM512 370q28 0 47 19t19 46q0 28 -19 47t-47 19t-47 -19t-19 -47q0 -27 19 -46t47 -19zM512 470 q14 0 24 -9.5t10 -23.5q0 -15 -10 -24.5t-24 -9.5t-24 9.5t-10 24.5q0 13 10 23t24 10z" />
</svg>