<svg viewBox="0 0 256 256" xmlns="http://www.w3.org/2000/svg">
  <path transform="scale(1, -1) translate(0, -256)" fill="currentColor" d="M204 220h-69v24q0 3 -2 5t-5 2t-5 -2t-2 -5v-24h-69q-8 0 -13.5 -5.5t-5.5 -13.5v-177q0 -8 5.5 -13.5t13.5 -5.5h152q8 0 13.5 5.5t5.5 13.5v177q0 8 -5.5 13.5t-13.5 5.5zM100 115q-2 4 -8 10h1q6 6 8 11t1 12q9 0 14.5 2t11.5 9v0v0q6 -7 11.5 -9t14.5 -1 q-1 -8 1.5 -13.5t8.5 -10.5q-6 -5 -8.5 -10.5t-1.5 -12.5q-9 0 -14 -1.5t-10 -7.5l-2 -2h-1q-5 7 -11 9t-8 2l-6 -1q1 8 -2 14zM209 24q0 -2 -1.5 -3.5t-3.5 -1.5h-69v59l4 4q3 4 5 4.5t7 0.5h2h8t5 2v1q2 2 2 4v10q0 4 0.5 5t3.5 4l2 2q7 6 7 10.5t-7 10.5v0q-4 3 -5 5.5 t-0.5 7.5t0 7.5t-2.5 4.5v0q-2 2 -4.5 2.5t-8 -0.5t-7.5 0t-5 4l-2 2q-3 4 -5.5 5.5t-5.5 1.5t-5 -2l-5 -5q-4 -4 -5.5 -5t-6.5 -1h-2q-5 1 -8 0.5t-5 -2.5l-1 -1q-1 -2 -2 -5v-9q0 -4 -0.5 -5.5t-3.5 -3.5l-2 -2q-4 -3 -5.5 -5t-1.5 -6t7 -10h1q4 -3 5 -5.5t0 -7.5v0v-7.5 t2 -3.5v-1q2 -2 5 -2h8h8q2 0 5 -4l5 -5v-59h-69q-2 0 -3.5 1.5t-1.5 3.5v177q0 2 1.5 3.5t3.5 1.5h152q2 0 3.5 -1.5t1.5 -3.5v-177zM116 125q0 -5 3.5 -8.5t8.5 -3.5t8.5 3.5t3.5 8.5t-3.5 9t-8.5 4t-8.5 -4t-3.5 -9z" />
</svg>