<svg viewBox="0 0 256 256" xmlns="http://www.w3.org/2000/svg">
  <path transform="scale(1, -1) translate(0, -256)" fill="currentColor" d="M150 249q-33 6 -63.5 -5t-52 -36t-27.5 -58q-4 -24 1 -47.5t19 -44t34.5 -34t44.5 -17.5q12 -2 22 -2q28 0 54 13t43.5 36t22.5 52q6 33 -5 63.5t-35.5 52t-57.5 27.5zM235 108v-1l-3 -11l-97 37v104l13 -2q29 -5 50.5 -24t31.5 -46t5 -57zM121 237v-102h-101l1 13 q5 24 19 44t35.5 31.5t45.5 13.5zM108 21q-21 4 -39 15.5t-31 29.5q-17 24 -19 55h107l101 -38q-10 -22 -28.5 -37.5t-42 -22.5t-48.5 -2z" />
</svg>