<svg viewBox="0 0 256 256" xmlns="http://www.w3.org/2000/svg">
  <path transform="scale(1, -1) translate(0, -256)" fill="currentColor" d="M157 231q-9 2 -13 2v11q0 3 -2 5t-5 2v0q-32 0 -59 -14t-46 -38.5t-24 -55.5q-2 -9 -2 -23q0 -3 2 -5.5t5 -2.5h11q2 -25 14 -47.5t33 -37.5t46 -20q12 -2 21 -2q35 0 64 21q19 12 31.5 31.5t16.5 41.5q5 30 -6 58.5t-34 48.5t-53 25zM21 140q5 27 20.5 48.5t38.5 34 t50 14.5v-111h-110q0 5 1 14v0zM235 101q-3 -20 -14 -36.5t-27.5 -28t-35.5 -15.5t-39 -1q-34 7 -56.5 32.5t-25.5 59.5h100q3 0 5 2t2 5v100l11 -1q26 -5 46.5 -22.5t29.5 -42.5t4 -52z" />
</svg>