<svg viewBox="0 0 1024 1024" xmlns="http://www.w3.org/2000/svg">
  <path transform="scale(1, -1) translate(0, -960)" fill="currentColor" d="M627 850q-15 2 -31 4t-31 2v56q0 7 -5.5 11.5t-12.5 4.5q-93 0 -177 -32q-84 -31 -151.5 -87.5t-113.5 -133.5q-47 -78 -63 -169q-4 -23 -6 -46t-2 -47q0 -7 4 -11.5t12 -4.5h56q2 -78 30 -149q28 -70 76 -126t114 -94q65 -38 143 -52q20 -4 39.5 -6t40.5 -2q67 0 131 20 t120 60q37 25 67 57q30 31 53.5 67.5t39.5 77.5t24 84q16 90 -4 176q-20 85 -68.5 155t-121.5 119t-163 66zM74 499q15 85 56 156q42 72 103 124.5t137 82.5q77 31 161 34v-467h-411v0v0h-54q0 18 2 35.5t6 34.5v0zM952 339q-7 -41 -22 -78q-15 -38 -36.5 -72t-50.5 -63 q-28 -29 -62 -52q-34 -24 -72 -40q-37 -16 -76 -24.5t-79 -9.5t-80 6q-72 14 -132 49q-61 36 -105.5 88t-70.5 117t-28 137h411q7 0 11.5 4.5t4.5 11.5v411q14 0 28.5 -2t28.5 -4q83 -15 151 -61q67 -45 112 -110t63 -145q19 -79 4 -163v0z" />
</svg>