<svg viewBox="0 0 1024 1024" xmlns="http://www.w3.org/2000/svg">
  <path transform="scale(1, -1) translate(0, -960)" fill="currentColor" d="M512 502v0v0v0q-71 0 -120.5 -50t-49.5 -119q0 -39 16 -71.5t42 -56.5v-0.5v-1.5v0h2q22 -19 50.5 -30t59.5 -11q71 0 120.5 50t49.5 119q0 70 -49.5 120.5t-120.5 50.5v0zM650 349h-122v121q48 -6 82 -40t40 -81zM374 333q0 53 35 92t87 45v-131l-86 -99 q-17 18 -26.5 41.5t-9.5 51.5v0zM512 194q-22 0 -42 6.5t-36 17.5l86 97h130q-6 -50 -45.5 -85.5t-92.5 -35.5zM736 802h-46v38q0 19 -13.5 32.5t-31.5 13.5h-117v26q0 7 -4.5 11.5t-11.5 4.5t-11.5 -4.5t-4.5 -11.5v-26h-117q-19 0 -32 -13.5t-13 -32.5v-38h-46 q-31 0 -52.5 -23t-21.5 -54v-680q0 -31 22 -54t52 -23h448q31 0 52.5 23t21.5 54v680q1 31 -21 54t-53 23v0zM366 840q0 6 4 10t9 4h266q5 0 9 -4t4 -10v-54v0v0v0v0v-55q0 -6 -4 -10t-9 -4h-266q-5 0 -9 4t-4 10v109v0zM779 45q0 -18 -12.5 -31.5t-28.5 -13.5h-450 q-18 0 -30 13.5t-12 31.5v680q0 18 12.5 31.5t29.5 13.5h46v-39q0 -19 13.5 -32.5t31.5 -13.5h266q19 0 32 13.5t13 32.5v39h46q18 0 30 -13.5t12 -31.5v-680h1z" />
</svg>