<svg viewBox="0 0 1024 1024" xmlns="http://www.w3.org/2000/svg">
  <path transform="scale(1, -1) translate(0, -960)" fill="currentColor" d="M597 920q-97 18 -190 -4q-92 -21 -167.5 -73.5t-128.5 -131.5t-71 -177q-8 -47 -8 -94q1 -47 11 -92.5t29 -88.5t46 -83q28 -40 62 -72q34 -33 73 -58.5t82 -42.5q44 -18 91 -27q21 -4 42.5 -6t43.5 -2q73 0 141 21q68 22 126 60.5t103 93.5q46 54 73 121l3 -2l12 31 l-4 1q6 17 10 34l8 34v0q17 97 -4 190q-22 93 -75 169t-132 129t-176 70v0zM496 896v-432h-430q1 16 2.5 32t3.5 32q14 79 54 145q39 67 95.5 115.5t127.5 76.5q70 28 147 31zM432 8q-44 8 -85 24q-40 16 -77 40t-68 54q-32 31 -58 68q-37 54 -56.5 114t-21.5 124h443 l416 -157q-30 -71 -81 -127q-52 -56 -117 -92t-141 -49q-75 -13 -154 1v0zM528 459v437q16 0 31.5 -2t32.5 -4q91 -17 164 -67q74 -49 123 -120t69 -157q20 -87 4 -178q-2 -16 -6.5 -31.5t-9.5 -30.5l-408 153v0z" />
</svg>