<svg viewBox="0 0 256 256" xmlns="http://www.w3.org/2000/svg">
  <path transform="scale(1, -1) translate(0, -256)" fill="currentColor" d="M248 132q0 3 -2 4.5t-5 1.5h-103v99q0 3 -2 5t-4 2h-4q-33 0 -60.5 -16t-43.5 -43.5t-16 -60t16 -60t43.5 -43.5t60.5 -16t60.5 16t43.5 43.5t16 59.5v8zM124 230v-95l-83 -71q-19 28 -19 60q0 28 13.5 52t37 38.5t51.5 15.5zM234 124q0 -28 -14 -52.5t-38.5 -38.5 t-53.5 -14q-23 0 -43 9t-35 25l84 71h100zM214 179h-28q-3 0 -5 -2t-2 -5t2 -5t5 -2h18v-6q0 -3 2.5 -5t5.5 -2t5 2t2 5v7q7 1 12 7t5 14.5t-6.5 14.5t-15.5 6h-13q-3 0 -5.5 2.5t-2.5 5.5t2.5 5.5t5.5 2.5h28q3 0 5 2t2 5t-2 5t-5 2h-10v6q0 3 -2 5t-5 2t-5.5 -2t-2.5 -5 v-6h-3q-9 0 -15.5 -6t-6.5 -15t6.5 -15.5t15.5 -6.5h13q3 0 5.5 -2t2.5 -5.5t-2.5 -6t-5.5 -2.5z" />
</svg>