<svg viewBox="0 0 256 256" xmlns="http://www.w3.org/2000/svg">
  <path transform="scale(1, -1) translate(0, -256)" fill="currentColor" d="M155 251q-3 0 -5 -2t-2 -5v-83q0 -3 2 -5t5 -2h89q3 0 5 2.5t2 5.5q-2 24 -15 44.5t-34.5 32.5t-46.5 12zM162 168v69q28 -3 49 -22t25 -47h-74zM222 130h-94v92q0 2 -2 4t-5 2h-4q-30 0 -56 -15t-41 -40.5t-15 -56t15 -56t41 -41t56.5 -15.5t56 15t40.5 41t15 56v7 q0 3 -2 5t-5 2zM117 19q-26 0 -48.5 13t-36 35.5t-13.5 49t12.5 48.5t34.5 35.5t48 13.5v-91q0 -3 2 -5t5 -2h95q-1 -26 -14 -48.5t-35.5 -35.5t-49.5 -13z" />
</svg>