<svg viewBox="0 0 1024 1024" xmlns="http://www.w3.org/2000/svg">
  <path transform="scale(1, -1) translate(0, -960)" fill="currentColor" d="M981 462q0 6 -5 10.5t-11 4.5h-423v406q0 6 -4 11t-12 5h-6.5h-7.5q-97 0 -183 -36q-85 -37 -148.5 -100t-100.5 -148t-37 -181t37 -181t100.5 -148.5t148.5 -99.5q86 -37 183 -37t183 37q85 36 148.5 99.5t100.5 148.5t37 181v14v14v0zM510 867v-398q-1 0 -1.5 -1 t-1.5 -1l-345 -293q-41 54 -64 120t-23 140q0 89 34 168q35 79 94 138t138 93t169 34v0zM512 0q-49 0 -96 10q-46 11 -88 30.5t-79 47.5t-67 62l346 295l1 0.5l1 0.5h419v-6v-6q0 -90 -34 -169q-35 -79 -94 -138t-139 -93q-79 -34 -170 -34v0zM854 642h-110q-7 0 -11.5 -4.5 t-4.5 -11.5q0 -8 4.5 -12t11.5 -4h86v-36q0 -7 4.5 -11.5t11.5 -4.5q8 0 12 4.5t4 11.5v36q29 2 49 23t20 50q0 31 -22 53t-53 22h-51q-18 0 -30.5 13t-12.5 31t12.5 30.5t30.5 12.5h110q7 0 11.5 4.5t4.5 11.5t-4.5 11.5t-11.5 4.5h-53v35q0 7 -4 11.5t-12 4.5 q-7 0 -11.5 -4.5t-4.5 -11.5v-35h-27q-31 0 -53 -22t-22 -53q0 -32 22 -54t53 -22h51q18 0 31 -12.5t13 -30.5t-13 -29.5t-31 -11.5v0z" />
</svg>