<svg viewBox="0 0 1024 1024" xmlns="http://www.w3.org/2000/svg">
  <path transform="scale(1, -1) translate(0, -960)" fill="currentColor" d="M981 555q-6 1 -12 -2t-7 -9q-12 -41 -22.5 -51.5t-11.5 -10.5q-2 -2 -4.5 -0.5t-3.5 1.5q-5 5 -11.5 5t-10.5 -5v0v-1q-11 45 -38 86.5t-68 76.5q11 17 17.5 36t6.5 41q0 56 -40 96.5t-98 40.5q-50 0 -88.5 -32.5t-45.5 -80.5q-11 1 -22 1h-23q-29 0 -57.5 -3.5 t-55.5 -9.5l-15 -3l-8 11q-14 20 -35.5 34t-49.5 24q-21 7 -63 10.5t-47 2.5q-4 0 -7 -2t-6 -5q-2 -3 -2.5 -6.5t1.5 -7.5l48 -158l-68 -96l-91 -26q-5 -2 -8 -6.5t-3 -9.5v-160q0 -5 3 -9.5t8 -6.5l90 -26l5 -8q18 -37 46 -69t64 -57l11 -8l-13 -98q0 -3 0.5 -6.5t3.5 -5.5 q2 -3 5.5 -4t6.5 -1h141q4 0 7.5 2t5.5 4l32 45l181 14l38 -59q3 -3 6 -5.5t7 -2.5h139q4 0 7.5 1.5t5.5 3.5t3 5.5t0 7.5l-21 153l7 7q41 43 62 94t21 106q0 11 -1 21l-2 20q3 -2 9 -5t15 -3q2 0 4.5 0.5t4.5 1.5q18 5 32.5 25.5t25.5 59.5q1 8 -2 14t-9 8v0zM678 826 q44 0 75 -31t31 -75t-30.5 -75t-75.5 -31q-43 0 -74 31t-31 75t30.5 75t74.5 31v0zM798 238l-11 -12q-2 -3 -3.5 -6.5t-1.5 -6.5l20 -143h-112l-39 60q-2 3 -5.5 5t-8.5 1l-197 -16q-4 0 -7 -2t-4 -4l-31 -45h-113l11 88q0 5 -1.5 8.5t-4.5 5.5l-20 13q-32 23 -57.5 52 t-41.5 62l-11 17q-1 4 -4 5.5t-6 2.5l-86 26v134l85 24q2 1 4.5 2.5t3.5 4.5l75 107q2 3 2.5 7t-0.5 7l-45 144q18 -1 41.5 -4t35.5 -7q22 -7 40 -19t28 -27l15 -21q2 -4 7.5 -6t9.5 -1l24 7q26 6 53 9.5t53 3.5q11 0 21.5 -1t21.5 -1q4 -53 43 -90.5t93 -37.5q27 0 50.5 10 t42.5 25q49 -42 75.5 -94.5t26.5 -110.5q2 -48 -17 -92.5t-55 -83.5v0z" />
</svg>