<svg viewBox="0 0 1024 1024" xmlns="http://www.w3.org/2000/svg">
  <path transform="scale(1, -1) translate(0, -960)" fill="currentColor" d="M597 480h-40q0 1 0.5 2.5t0.5 3.5v53q0 37 -26 62.5t-62 25.5q-37 0 -62.5 -26t-25.5 -62v-53q0 -1 0.5 -3t1.5 -3h-40q-7 0 -11.5 -4.5t-4.5 -11.5v-149q0 -7 4.5 -11.5t11.5 -4.5h254q8 0 12 4.5t4 11.5v149q-1 6 -6 11t-11 5v0zM411 486v53q0 24 16.5 40t39.5 16 t39.5 -16.5t16.5 -39.5v-53q0 -1 0.5 -3t1.5 -3h-115q1 1 1 2.5v3.5v0zM581 331h-224v117h222v-117h2zM981 579q-6 3 -12 -1t-7 -10q-12 -41 -22.5 -51.5t-11.5 -10.5q-2 -2 -4.5 -0.5t-3.5 1.5q-5 5 -11.5 5t-10.5 -5v0v-1q-15 56 -52 104q-37 49 -89.5 84t-118.5 55 q-66 21 -139 21q-29 0 -57.5 -3.5t-55.5 -9.5l-15 -5l-8 11q-14 19 -35.5 34t-49.5 24q-21 7 -63 10t-45 3v0v0q-4 1 -7.5 -1t-5.5 -4q-3 -4 -3 -7.5v-7.5l48 -158l-68 -96l-91 -26q-5 -1 -8 -5.5t-3 -10.5v-160q0 -4 3 -8.5t8 -7.5l90 -25l5 -8q18 -37 46 -69t64 -58l11 -8 l-13 -94q0 -4 0.5 -7t3.5 -6q2 -2 5.5 -3.5t6.5 -1.5h141q4 0 7.5 2t5.5 5l32 45l179 14l39 -59q2 -4 5.5 -6t6.5 -2h140q3 0 6.5 1t5.5 4q3 2 4 5.5t0 6.5l-21 152l6 8q41 44 62 94.5t21 105.5q0 11 -1 21t-2 21l10 -5t14 -3h5t5 2q18 4 32.5 25t24.5 59q3 6 0 12.5t-9 8.5 v0zM798 261v0l-11 -13q-2 -2 -3.5 -5.5t-1.5 -7.5l20 -142h-114l-38 59q-4 5 -8 6.5t-8 1.5l-197 -16q-4 0 -7 -2t-4 -4l-31 -45h-113l11 88q0 5 -1.5 8.5t-5.5 7.5l-19 13q-32 22 -57.5 51.5t-41.5 61.5l-8 16q-1 4 -4 5.5t-6 2.5l-86 24v135l85 24q2 1 4.5 2.5t3.5 3.5 l75 107q2 4 2.5 7.5t-0.5 7.5l-45 144q18 -2 41.5 -4.5t35.5 -7.5q22 -7 40 -18.5t28 -27.5l15 -21q2 -3 7.5 -5t9.5 -1l24 6q26 6 53 9.5t53 3.5q77 0 145 -24q68 -23 118.5 -63.5t80.5 -94.5q29 -54 29 -116q2 -48 -16.5 -93t-54.5 -84v0z" />
</svg>