<svg viewBox="0 0 1024 1024" xmlns="http://www.w3.org/2000/svg">
  <path transform="scale(1, -1) translate(0, -960)" fill="currentColor" d="M806 928h-355q-51 0 -97 -20q-45 -19 -78.5 -53t-52.5 -79q-20 -45 -20 -96t20 -96q19 -45 53 -79t79 -53q45 -20 96 -20v32q-45 0 -84 17q-40 17 -69 46.5t-46 68.5q-17 40 -17 84t16 84q17 39 46.5 68.5t69.5 46.5q39 17 84 17v0v-912q0 -7 4.5 -11.5t11.5 -4.5 t11.5 4.5t4.5 11.5v912h183v-912q0 -7 4 -11.5t12 -4.5q7 0 11.5 4.5t4.5 11.5v912h108q8 0 12 4.5t4 11.5t-5 11.5t-11 4.5z" />
</svg>