<svg viewBox="0 0 1024 1024" xmlns="http://www.w3.org/2000/svg">
  <path transform="scale(1, -1) translate(0, -960)" fill="currentColor" d="M739 701q0 47 -18 88t-48.5 72t-72.5 49q-41 18 -88 18t-88 -18t-72 -49t-49 -72t-18 -88q0 -45 16 -85q17 -40 45 -70t67 -49t83 -22v-491q0 -7 4.5 -11.5t11.5 -4.5t11.5 4.5t4.5 11.5v491q44 3 83 22q38 19 66.5 49t45.5 70q16 40 16 85zM512 506v0v0v0v0 q-40 0 -76 15q-35 15 -61.5 42t-42.5 62q-15 36 -15 76t15 76q16 35 42.5 61.5t61.5 42.5q36 15 76 15t76 -15q35 -16 61.5 -42.5t42.5 -61.5q15 -36 15 -76t-15 -76q-16 -35 -42.5 -62t-61.5 -42q-36 -15 -76 -15zM554 800q-24 0 -40 -16.5t-16 -39.5t16.5 -39.5 t39.5 -16.5q24 0 40 16.5t16 39.5t-16 39.5t-40 16.5z" />
</svg>