<svg viewBox="0 0 1024 1024" xmlns="http://www.w3.org/2000/svg">
  <path transform="scale(1, -1) translate(0, -960)" fill="currentColor" d="M872 392l-112 178v278q0 34 -23 57t-57 23h-336q-34 0 -57 -23t-23 -57v-277l-112 -177q-10 -15 -10 -31.5t8 -31.5q9 -14 23 -23t32 -9h209l82 -318q1 -5 5.5 -9t10.5 -4t10.5 3.5t5.5 9.5l82 318h209q17 0 31.5 8.5t23.5 23.5q7 15 6.5 31t-8.5 30zM296 848q0 20 14 34 t34 14h336q20 0 34 -14t14 -34v-266h-432v266zM512 48l-64 250h128zM845 346q-4 -8 -10.5 -12t-15.5 -4h-614q-9 0 -15.5 4t-10.5 12q-3 7 -3 15t3 15l109 174h446l109 -174q5 -7 5 -15t-3 -15v0z" />
</svg>