<svg viewBox="0 0 256 256" xmlns="http://www.w3.org/2000/svg">
  <path transform="scale(1, -1) translate(0, -256)" fill="currentColor" d="M7 128q1 -29 13.5 -55t33.5 -42q9 -7 28 -14l2 -1q-2 14 0 32q2 11 8 33l4 19q2 5 2 9t-2 11l-1 3q-2 11 3 21q3 8 10 12t13.5 1.5t9 -9.5t1.5 -13t-5 -16q-3 -7 -4 -11q-2 -7 -1.5 -14t5 -11.5t11 -5t12.5 2.5q15 6 23 27q6 16 4 33.5t-13 28t-28 13.5q-13 2 -26.5 -2 t-23 -13.5t-13 -23t0.5 -25.5l3 -8q2 -6 3 -10t0.5 -8.5t-3.5 -7.5l-2 -1q0 -1 -2 0l-1 1q-11 7 -17 20q-8 18 -4.5 39t16.5 36t33 22t39.5 4t36 -13.5t23.5 -27.5q9 -19 5.5 -43.5t-18.5 -41.5q-8 -9 -18 -14.5t-20.5 -6t-19.5 3t-14 10.5q-6 -33 -22 -61q-1 -1 12.5 -4 t15.5 -3q21 -1 43.5 6.5t40.5 21.5q31 25 40.5 62t-3 73.5t-43.5 60.5q-24 19 -52.5 23t-57.5 -7q-14 -4 -32 -18q-25 -18 -38 -45q-11 -23 -11 -53z" />
</svg>