<svg viewBox="0 0 1024 1024" xmlns="http://www.w3.org/2000/svg">
  <path transform="scale(1, -1) translate(0, -960)" fill="currentColor" d="M29 446q1 -55 14 -110t37.5 -105.5t58.5 -93.5q35 -44 79 -78q27 -20 57 -33.5t61 -27.5q-7 43 -3 86q3 42 12 84.5t20 84.5q12 43 21 85q2 8 3 17.5t1 18.5q0 14 -3.5 27t-7.5 26q-3 22 -0.5 44t11.5 43q14 27 41.5 44.5t54.5 6.5q26 -10 35.5 -38.5t4.5 -54.5 q-4 -28 -16 -53t-19 -51q-8 -26 -5.5 -55t21.5 -47q18 -17 44 -19t49 7q34 15 56 45.5t35 63.5q24 63 16.5 133.5t-56.5 116.5q-20 20 -48 33t-59 18q-53 8 -106.5 -7t-90.5 -54q-37 -38 -52 -92t1 -105q5 -16 12.5 -33t11.5 -34t1.5 -36t-14.5 -31l-2.5 -2.5t-3.5 -2.5 q-3 -1 -6 0.5l-5 2.5q-23 15 -40.5 36.5t-28.5 45.5q-17 37 -21 77q-5 40 1.5 79.5t23.5 75.5q17 37 44 67q26 30 60 52t71.5 35.5t78.5 17.5q40 5 79 -1q75 -9 141.5 -52t97.5 -111q19 -41 23.5 -86.5t-2.5 -89.5q-8 -46 -26 -88t-48 -77t-71.5 -57t-86.5 -24 q-38 -3 -73.5 10.5t-54.5 45.5q-12 -65 -35 -127.5t-57 -119.5q-1 -2 52 -13.5t60 -11.5q45 -4 90 2q45 7 88.5 21.5t84.5 36.5q40 22 75 50q96 76 140 181t39 215t-57 213q-51 103 -146 175q-49 38 -102 60q-54 23 -109.5 31t-113.5 1q-57 -6 -115 -26q-35 -12 -67.5 -31.5 t-62.5 -40.5q-48 -36 -85.5 -82.5t-62.5 -100.5q-26 -49 -36 -103t-9 -110v0z" />
</svg>