<svg viewBox="0 0 256 256" xmlns="http://www.w3.org/2000/svg">
  <path transform="scale(1, -1) translate(0, -256)" fill="currentColor" d="M232 193h-18q-8 0 -13.5 -5.5t-5.5 -13.5v-2h-18v24q0 7 -5.5 12.5t-12.5 5.5h-19q-8 0 -13.5 -5.5t-5.5 -12.5v-24h-60v2q0 8 -5.5 13.5t-13.5 5.5h-18q-8 0 -13.5 -5.5t-5.5 -13.5v-60q0 -8 5.5 -14t13.5 -6h18q8 0 13.5 6t5.5 14v2h60v-56q0 -7 5.5 -12.5t13.5 -5.5 h19q7 0 12.5 5t5.5 13v56h18v-2q0 -8 5.5 -14t13.5 -6h18q8 0 13.5 6t5.5 14v60q0 8 -5.5 13.5t-13.5 5.5zM135 196q0 1 1.5 2.5t3.5 1.5h19q2 0 3 -1.5t1 -2.5v-24h-28v24zM47 114q0 -2 -1.5 -4t-3.5 -2h-18q-2 0 -3.5 1.5t-1.5 4.5v60q0 2 1.5 3.5t3.5 1.5h18 q2 0 3.5 -1.5t1.5 -3.5v-60zM163 60q0 -1 -1 -2.5t-3 -1.5h-19q-2 0 -3.5 1.5t-1.5 2.5v56h28v-56zM61 130v28h134v-28h-134zM237 114q0 -2 -1.5 -4t-3.5 -2h-18q-2 0 -3.5 1.5t-1.5 4.5v60q0 2 1.5 3.5t3.5 1.5h18q2 0 3.5 -1.5t1.5 -3.5v-60z" />
</svg>