<svg viewBox="0 0 256 256" xmlns="http://www.w3.org/2000/svg">
  <path transform="scale(1, -1) translate(0, -256)" fill="currentColor" d="M75 153h38q5 0 6.5 4.5t-2.5 8.5l-35 26q-2 2 -5 1.5t-5 -3t-1.5 -5.5t3.5 -5l18 -13h-17q-3 0 -5 -2t-2 -5t2 -5t5 -2zM181 167h-17l18 13q3 2 3.5 5t-1.5 5.5t-5 3t-5 -1.5l-35 -26q-4 -3 -2.5 -8t6.5 -5h38q3 0 5 2t2 5t-2 5t-5 2zM128 251q-33 0 -61.5 -16.5t-45 -45 t-16.5 -61.5t16.5 -61.5t45 -45t61.5 -16.5t61.5 16.5t45 45t16.5 61.5t-16.5 61.5t-45 45t-61.5 16.5zM128 19q-29 0 -54 14.5t-40 39.5t-15 55t15 54.5t39.5 39.5t54.5 15t55 -15t39.5 -40t14.5 -54.5t-14.5 -54.5t-39.5 -39.5t-55 -14.5zM128 103q-16 0 -30.5 -5.5 t-26.5 -16.5q-2 -2 -2 -5t1.5 -5.5t4.5 -2.5t5 2q10 9 22.5 14t25.5 5t25.5 -5t22.5 -14q2 -2 4.5 -1.5t5 2.5t2 5t-2.5 5q-12 11 -26.5 16.5t-30.5 5.5z" />
</svg>