<svg viewBox="0 0 1024 1024" xmlns="http://www.w3.org/2000/svg">
  <path transform="scale(1, -1) translate(0, -960)" fill="currentColor" d="M301 558h150q5 0 9 3.5t6 8.5q1 4 -0.5 9.5t-4.5 7.5l-141 106q-5 3 -12 2t-10 -5q-4 -5 -3 -12t6 -11l102 -77h-102q-7 0 -11.5 -4t-4.5 -12q0 -7 5 -11.5t11 -4.5v0zM723 590h-102l102 77q5 4 6 11t-3 12q-3 4 -10 5t-12 -2l-141 -106q-3 -3 -5 -8t0 -9q2 -5 6 -8.5 t9 -3.5h150q7 0 11.5 4.5t4.5 11.5q0 8 -5 12t-11 4v0zM512 928q-99 0 -186 -38q-88 -38 -153 -103t-103 -153q-38 -87 -38 -186t38 -186q38 -88 103 -153t153 -103q87 -38 186 -38t186 38q88 38 153 103t103 153q38 87 38 186t-38 186q-38 88 -103 153t-153 103 q-87 38 -186 38zM512 0q-92 0 -174 35q-81 36 -142 97t-97 142q-35 82 -35 174t35 174q36 81 96.5 142t142.5 97q82 35 174 35t174 -35q81 -36 142 -96.5t97 -142.5q35 -82 35 -174t-35 -174q-36 -81 -96.5 -142t-142.5 -97q-82 -35 -174 -35zM512 336q-62 0 -119 -22 t-102 -64q-5 -5 -5 -11.5t5 -11.5t11.5 -5t11.5 5q39 37 91 57t107 20t107 -20t91 -58q3 -3 5.5 -4t6.5 -1q3 0 5.5 1t5.5 4q5 4 5 10.5t-5 11.5q-45 43 -102 65.5t-119 22.5z" />
</svg>