<svg viewBox="0 0 1024 1024" xmlns="http://www.w3.org/2000/svg">
  <path transform="scale(1, -1) translate(0, -960)" fill="currentColor" d="M882 850q-36 19 -79 33q-42 15 -89.5 25t-97.5 15q-51 5 -104 5t-104 -5q-50 -5 -97.5 -15t-89.5 -25q-43 -14 -79 -33q-22 -12 -31.5 -36.5t1.5 -47.5l341 -760q8 -18 24 -28t35 -10v0v0q19 0 35 10t24 28l202 448l78 178l61 134q11 23 1.5 47.5t-31.5 36.5v0zM744 467 l-202 -448q-3 -9 -11 -14t-19 -5v0q-10 0 -18 5.5t-12 13.5l-268 597q56 14 123 24q67 11 143 13.5t159 -5.5t171 -30l-66 -151v0zM883 779l-59 -129q-92 24 -179 32q-87 7 -166.5 4.5t-149.5 -13.5t-127 -25l-60 133q-4 12 0 24.5t16 18.5q34 17 75 30q40 13 85.5 22.5 t94.5 14.5t99 5t99 -5t94.5 -14.5t86.5 -23.5t75 -32q12 -6 16.5 -18t-0.5 -24z" />
</svg>