<svg viewBox="0 0 256 256" xmlns="http://www.w3.org/2000/svg">
  <path transform="scale(1, -1) translate(0, -256)" fill="currentColor" d="M250 110q-7 21 -21 43t-34 42t-42 34t-43 21q-8 2 -15.5 -1.5t-9.5 -10.5l-79 -206q-2 -6 -0.5 -11.5t5.5 -9.5q6 -6 14 -6q3 0 7 1l206 79q7 2 10.5 9.5t1.5 15.5zM27 20q-3 -1 -6 1v0q-3 3 -1 6l16 44q3 -7 9.5 -11t13.5 -4q10 0 17.5 7.5t7.5 17.5t-7.5 17.5 t-17.5 7.5q-5 0 -10 -2l31 82q10 -6 16 -10q-5 -4 -8 -9t-3 -11q0 -11 7.5 -18t17.5 -7q8 0 14 4t9 11q32 -30 54 -66l-10 -4q0 11 -7 18t-17.5 7t-17.5 -7t-7 -17t6 -17zM48 81q0 5 3 8t7.5 3t8 -3t3.5 -7.5t-3.5 -8t-8 -3.5t-7.5 3.5t-3 7.5zM121 156v0q0 -5 -3 -8 t-7.5 -3t-8 3t-3.5 7.5t3 7.5t7 3zM150 66q-4 1 -6.5 4t-2.5 7t3 7t8 3t8 -3t3 -7t-2 -7zM233 98l-33 -13q-26 44 -68 80v1q-9 7 -17 13h-1q-16 12 -29 20l13 34q0 2 1.5 3t3.5 1h2q19 -6 40 -19.5t39.5 -32.5t32 -40t19.5 -40q1 -2 0 -4t-3 -3z" />
</svg>