<svg viewBox="0 0 1024 1024" xmlns="http://www.w3.org/2000/svg">
  <path transform="scale(1, -1) translate(0, -960)" fill="currentColor" d="M989 371q-13 42 -34 84q-21 43 -49 86t-63 85q-34 42 -73 81q-40 40 -82 74t-84.5 62t-85.5 49t-84 34q-27 9 -51.5 -2.5t-33.5 -37.5l-312 -825q-7 -19 -3 -38.5t19 -33.5q9 -10 22 -14.5t26 -4.5q6 0 12 1t12 3l483 184v0v0h2h1.5h1.5l57 23v0v0l280 107 q24 8 35.5 32.5t3.5 50.5v0zM112 3q-10 -3 -20 -1t-18 9t-10 17t3 20l82 214v-0.5v-0.5q0 -36 26 -62t62 -26t62 26t26 62t-26 62t-62 26q-21 0 -38 -8.5t-29 -22.5l145 381q22 -13 44.5 -27.5t46.5 -31.5q-22 -11 -36.5 -32.5t-14.5 -47.5q0 -36 26 -62t62 -26q31 0 55 20 t32 50q30 -29 61 -62q31 -32 60.5 -68.5t58.5 -76.5q28 -40 55 -84l-71 -27q2 5 2 9.5v9.5q0 36 -26 62t-62 26t-62 -26t-26 -62q0 -21 10 -39.5t25 -30.5l-443 -170v0zM179 261q0 23 16.5 39.5t39.5 16.5t39.5 -16.5t16.5 -39.5t-16.5 -39.5t-39.5 -16.5t-39.5 16.5 t-16.5 39.5zM494 568q0 -2 1 -4.5t1 -5.5q0 -22 -16.5 -39t-39.5 -17t-39.5 17t-16.5 39q0 23 15.5 39t37.5 17q15 -10 29 -22l28 -24v0zM602 189h-2h-2v0q-19 3 -32.5 18.5t-13.5 35.5q0 23 16.5 39.5t39.5 16.5t39.5 -16.5t16.5 -39.5q0 -9 -3.5 -18.5t-9.5 -16.5l-49 -19 v0zM938 317l-143 -55q-36 63 -78 118t-86 102.5t-89 87.5t-89 73v0v0q-34 25 -66 46.5t-61 38.5l55 144q3 11 12 17.5t21 6.5h6t6 -2q39 -12 80 -33q41 -20 82 -47t81 -60t78 -71t71 -78t60 -81.5t47 -82.5q21 -41 33 -81q5 -13 -1 -25.5t-19 -17.5v0z" />
</svg>