<svg viewBox="0 0 256 256" xmlns="http://www.w3.org/2000/svg">
  <path transform="scale(1, -1) translate(0, -256)" fill="currentColor" d="M128 251q-27 0 -50 -13.5t-36 -36t-13 -49.5q0 -35 24 -72q17 -26 45 -52q15 -14 26 -22q2 -1 4 -1t4 1q11 8 26 22q28 26 45 53q24 37 24 71q0 27 -13 49.5t-36 36t-50 13.5zM128 21q-28 21 -49 47q-36 45 -36 84q0 23 11.5 42.5t31 31t42.5 11.5t42.5 -11.5t31 -31 t11.5 -42.5q0 -39 -36 -83q-21 -27 -49 -48zM149 198h-29q-3 0 -5.5 -2.5t-2.5 -5.5v-62h-22q-3 0 -5 -2t-2 -5t2 -5t5 -2h22v-22q0 -3 2.5 -5t5.5 -2t5 2t2 5v22h22q3 0 5 2t2 5t-2 5t-5 2h-22v21h22q10 0 17 7t7 17t-7 17.5t-17 7.5zM149 163h-22v20h22q4 0 7 -3t3 -7 t-3 -7t-7 -3z" />
</svg>