<svg viewBox="0 0 256 256" xmlns="http://www.w3.org/2000/svg">
  <path transform="scale(1, -1) translate(0, -256)" fill="currentColor" d="M242 34l-14 105q-2 9 -9 15.5t-17 6.5h-25q11 17 11 30q0 16 -8 30t-22 22t-30 8t-30 -8t-22 -22t-8 -30q0 -13 11 -30h-25q-10 0 -17 -6.5t-9 -15.5l-14 -105q-1 -11 6.5 -20t19.5 -9h176q11 0 19 9t7 20zM128 237q19 0 32.5 -13.5t13.5 -32.5q0 -12 -17 -33 q-12 -15 -29 -30q-17 15 -29 30q-17 21 -17 33q0 19 13.5 32.5t32.5 13.5zM42 137q1 4 4.5 7t7.5 3h35q14 -16 34 -34v0q2 -2 4.5 -2t4.5 2l1 1q20 17 33 33h35q5 0 8 -3t4 -7l3 -25h-39q-4 0 -5 -3l-28 -31h-110zM31 23q-3 4 -3 9l4 32h115q4 0 5 2l28 32h38l4 -28l-68 -21 q-3 -1 -4.5 -5t1.5 -6l17 -19h-128q-5 0 -9 4zM225 23q-4 -4 -9 -4h-28l-18 20l54 17l4 -24q0 -5 -3 -9zM154 193q0 11 -7.5 19t-18.5 8t-18.5 -8t-7.5 -19t7.5 -18.5t18.5 -7.5t18.5 7.5t7.5 18.5zM116 193q0 5 3.5 9t8.5 4t8.5 -4t3.5 -9t-3.5 -8.5t-8.5 -3.5t-8.5 3.5 t-3.5 8.5z" />
</svg>