<svg viewBox="0 0 256 256" xmlns="http://www.w3.org/2000/svg">
  <path transform="scale(1, -1) translate(0, -256)" fill="currentColor" d="M128 251q-27 0 -50 -13.5t-36 -36t-13 -49.5q0 -35 24 -72q17 -26 45 -52q15 -14 26 -22q2 -1 4 -1t4 1q11 8 26 22q28 26 45 53q24 37 24 71q0 27 -13 49.5t-36 36t-50 13.5zM128 21q-28 21 -49 47q-36 45 -36 84q0 23 11.5 42.5t31 31t42.5 11.5t42.5 -11.5t31 -31 t11.5 -42.5q0 -39 -36 -83q-21 -27 -49 -48zM163 125h-39q2 5 2 12v7h30q3 0 5 2.5t2 5.5t-2 5t-5 2h-30v10q0 6 4.5 10.5t10.5 4.5t11 -4q2 -2 4.5 -1.5t5 2t2 4.5t-1.5 5q-8 8 -20 8t-20.5 -8.5t-8.5 -20.5v-10h-17q-3 0 -5 -2t-2 -5t2 -5.5t5 -2.5h17v-7q0 -5 -3.5 -8.5 t-8.5 -3.5h-8q-3 0 -5 -2t-2 -5t2 -5t5 -2h70q3 0 5 2t2 5t-2 5t-5 2z" />
</svg>