<svg viewBox="0 0 1024 1024" xmlns="http://www.w3.org/2000/svg">
  <path transform="scale(1, -1) translate(0, -960)" fill="currentColor" d="M976 27h-62v128l19 -16q2 -2 4.5 -2.5t4.5 -0.5q4 0 7.5 1.5t5.5 4.5q5 5 4 12t-5 11l-157 131q-5 4 -10.5 4t-10.5 -4l-112 -94v0v0l-45 -37q-5 -5 -5.5 -11.5t4.5 -11.5q4 -4 10.5 -5t11.5 4l19 16v-128h-293v128l20 -16q2 -3 4.5 -3h4.5q4 0 7.5 1t5.5 5q5 5 4 12 t-6 10l-156 132q-5 3 -10.5 3t-10.5 -3l-112 -95v0v0l-45 -37q-5 -4 -5.5 -10.5t3.5 -11.5q5 -5 11.5 -5.5t11.5 3.5l19 16v-128h-64q-7 0 -11.5 -4t-4.5 -12q0 -7 4.5 -11.5t11.5 -4.5h928q7 0 11.5 4.5t4.5 11.5q0 8 -4.5 10.5t-11.5 2.5v0zM142 27v155l96 80l96 -80v-155 h-192v0zM690 27v155l96 80l96 -80v-155h-192zM525 418q2 -3 4.5 -3.5t4.5 -0.5q3 0 6 1t4 3q3 2 34 30t67.5 68.5t65.5 88.5q30 47 30 89q0 43 -16 81q-17 37 -45 65t-65 45q-38 16 -81 16q-42 0 -80 -16q-37 -17 -65 -45t-45 -65q-16 -38 -16 -81q0 -42 30 -89 q29 -48 65.5 -88.5t67.5 -68.5t34 -30zM534 869q72 0 123.5 -51.5t51.5 -123.5q0 -28 -20 -62q-19 -35 -46.5 -69t-57.5 -63q-30 -30 -51 -49q-21 19 -51 49q-30 29 -57.5 63t-46.5 69q-19 34 -19 62q0 72 51 123.5t123 51.5zM621 701q0 36 -25.5 61t-61.5 25t-61 -25 t-25 -61t25 -61.5t61 -25.5t61.5 25.5t25.5 61.5zM480 701q0 23 16 38.5t38 15.5q23 0 39 -15.5t16 -38.5t-16 -39t-39 -16q-21 0 -37.5 16t-16.5 39z" />
</svg>