<svg viewBox="0 0 1024 1024" xmlns="http://www.w3.org/2000/svg">
  <path transform="scale(1, -1) translate(0, -960)" fill="currentColor" d="M954 72l-56 418q-5 33 -31 56.5t-61 23.5h-123q24 33 39.5 67t15.5 65q0 47 -17 88q-18 41 -49 71.5t-72 48.5t-88 18t-88 -18q-42 -18 -72.5 -49t-48.5 -72t-18 -88q0 -31 15.5 -65t38.5 -68h-123q-35 0 -60.5 -22.5t-30.5 -57.5l-55 -416q-2 -19 4 -38.5t19 -33.5 t31 -23t38 -9h702q19 0 37.5 8t31.5 24t18 34t3 38v0zM512 896q40 0 76 -15q35 -16 61.5 -42.5t42.5 -61.5q15 -36 15 -76q0 -31 -19 -67t-46 -69v0v0q-35 -45 -73.5 -81t-54.5 -52q-24 20 -57 53q-34 33 -64.5 70.5t-52.5 76.5t-22 70q0 40 15 75t41.5 61.5t61.5 42.5 q36 15 76 15zM157 485q2 21 19 36t40 15h147q45 -55 89.5 -96t48.5 -43q2 -3 4.5 -3h4.5q3 0 6 1t4 2q4 3 48.5 43.5t89.5 95.5h147q23 0 39 -15t20 -36l14 -114h-171q-3 0 -6.5 -1t-6.5 -4l-112 -129h-452q-2 0 -3 -0.5t-2 -1.5l32 250v0zM117 21q-9 9 -12.5 21.5 t-2.5 24.5l20 139q2 -1 3.5 -2t4.5 -1h460q4 0 7.5 1.5t5.5 3.5l112 130h171l18 -132l-280 -84q-4 -2 -7 -5t-4 -7q-1 -3 0 -7.5t3 -6.5l86 -96h-540q-14 0 -25.5 5.5t-19.5 15.5v0zM907 21q-8 -10 -19.5 -15.5t-25.5 -5.5h-116l-88 99l249 77l15 -107q2 -15 -2 -27t-13 -21 v0zM605 709q0 38 -27.5 65.5t-65.5 27.5t-65.5 -27.5t-27.5 -65.5q0 -39 27.5 -66t65.5 -27q38 -1 65.5 26.5t27.5 66.5zM451 709q0 25 18 43t43 18t43 -18t18 -43t-18 -43t-43 -18q-25 -1 -43 17.5t-18 43.5v0z" />
</svg>