<svg viewBox="0 0 1024 1024" xmlns="http://www.w3.org/2000/svg">
  <path transform="scale(1, -1) translate(0, -960)" fill="currentColor" d="M694 805q-26 0 -52 -5t-52 -14q-44 34 -98.5 54.5t-115.5 20.5q-71 0 -133 -26q-63 -27 -110 -74t-74 -110t-27 -134q0 -70 50 -152t111.5 -153.5t114.5 -120.5t58 -54q3 -3 5.5 -3h6.5q3 0 5.5 1t5.5 2q5 5 59 55t115 122q47 -51 84.5 -85.5t37.5 -35.5q2 -3 4.5 -3h6.5 t6.5 1t4.5 2q4 5 49 47q45 43 97.5 104.5t95.5 132.5q43 70 43 130q0 62 -23 116q-24 54 -64 94.5t-95 63.5q-54 24 -116 24zM376 72q-21 19 -72 69q-52 50 -105 114.5t-94 133.5q-41 70 -41 128q0 65 25 122q24 57 66.5 99.5t99.5 67.5q57 24 121 24q65 0 122 -24 q56 -25 98.5 -67.5t67.5 -99.5q24 -57 24 -122q0 -58 -41 -128q-41 -69 -94 -133.5t-105 -114.5q-51 -50 -72 -69zM694 128q-14 13 -45 43.5t-67 68.5q27 34 52 69q25 36 44 71.5t31 69.5q11 35 11 67q0 72 -27 135t-75 110q18 6 37 8.5t39 2.5q55 0 103 -21q49 -21 85 -57 t57 -84q21 -49 21 -104q0 -48 -34 -107q-35 -59 -80 -113.5t-88 -97.5q-44 -44 -64 -61zM376 670q-62 0 -106 -44t-44 -106t44 -106t106 -44t106 44t44 106t-44 106t-106 44zM376 402q-49 0 -83.5 34.5t-34.5 83.5t34.5 83.5t83.5 34.5t83.5 -34.5t34.5 -83.5t-34.5 -83.5 t-83.5 -34.5z" />
</svg>