<svg viewBox="0 0 1024 1024" xmlns="http://www.w3.org/2000/svg">
  <path transform="scale(1, -1) translate(0, -960)" fill="currentColor" d="M512 928q-80 0 -150 -30q-70 -31 -122.5 -83t-82.5 -123q-31 -70 -31 -150q0 -112 57 -214q56 -102 125 -180t129 -126q59 -47 65 -51q3 -1 5.5 -2t4.5 -1t4.5 1t5.5 2q6 4 65 52q60 47 129 125t125 180q57 102 57 214q0 80 -31 150q-30 71 -82.5 123t-122.5 83 q-70 30 -150 30zM512 3q-21 16 -79 66t-119 123t-108 163q-48 90 -48 187q0 74 28 138t76 112t112 76q65 28 138 28t138 -28q64 -28 112 -76t76 -112t28 -138q0 -97 -48 -187q-47 -90 -108 -163t-119 -123t-79 -66zM602 704q7 0 11.5 4.5t4.5 11.5t-4.5 11.5t-11.5 4.5 q-64 0 -116 -36.5t-75 -91.5h-64q-7 0 -11.5 -4.5t-4.5 -11.5t4.5 -11.5t11.5 -4.5h55q-4 -12 -5.5 -24t-1.5 -24q0 -17 2.5 -32.5t8.5 -31.5h-59q-7 0 -11.5 -4.5t-4.5 -11.5t4.5 -11.5t11.5 -4.5h72q27 -49 75.5 -80.5t107.5 -31.5q7 0 11.5 4.5t4.5 11.5t-4.5 11.5 t-11.5 4.5q-45 0 -83.5 22t-62.5 58h106q7 0 11.5 4.5t4.5 11.5t-4.5 11.5t-11.5 4.5h-122q-6 14 -9.5 30.5t-3.5 33.5q0 12 2 24t5 22h128q7 0 11.5 4.5t4.5 11.5q0 8 -4.5 12t-11.5 4h-116q22 44 64 71t92 27v0z" />
</svg>