<svg viewBox="0 0 1024 1024" xmlns="http://www.w3.org/2000/svg">
  <path transform="scale(1, -1) translate(0, -960)" fill="currentColor" d="M512 928q-80 0 -150 -30q-70 -31 -122.5 -83t-82.5 -123q-31 -70 -31 -150q0 -112 57 -214q56 -102 125 -180t129 -126q59 -47 65 -51q3 -1 5.5 -2t4.5 -1t4.5 1t5.5 2q6 4 65 52q60 47 129 125t125 180q57 102 57 214q0 80 -31 150q-30 71 -82.5 123t-122.5 83 q-70 30 -150 30zM512 3q-21 16 -79 66t-119 123t-108 163q-48 90 -48 187q0 74 28 138t76 112t112 76q65 28 138 28t138 -28q64 -28 112 -76t76 -112t28 -138q0 -97 -48 -187q-47 -90 -108 -163t-119 -123t-79 -66zM483 634h125q7 0 11.5 4t4.5 12q0 7 -4.5 11.5t-11.5 4.5 h-61v41q0 7 -4.5 11.5t-11.5 4.5t-11.5 -4.5t-4.5 -11.5v-41h-32q-35 0 -59 -24.5t-24 -59.5q0 -34 24 -58.5t59 -24.5h58q21 0 36 -14.5t15 -36.5t-15 -36.5t-36 -14.5h-125q-7 0 -11.5 -4.5t-4.5 -11.5t4.5 -11.5t11.5 -4.5h99v-42q0 -7 4.5 -11.5t11.5 -4.5t11.5 4.5 t4.5 11.5v42q33 2 55 25.5t22 55.5q0 35 -24 59.5t-59 24.5h-58q-21 0 -36 14.5t-15 36.5q0 21 15 37t36 16v0z" />
</svg>