<svg viewBox="0 0 256 256" xmlns="http://www.w3.org/2000/svg">
  <path transform="scale(1, -1) translate(0, -256)" fill="currentColor" d="M174 220q-13 0 -26 -4q-24 18 -54 18q-24 0 -44.5 -12t-32.5 -32.5t-12 -44.5q0 -30 41 -78q21 -24 43 -44q2 -1 4.5 -1t4.5 1l2 2q23 21 40 41q13 -15 28 -28v0q2 -2 5 -2t4 2q19 15 38 38q35 41 35 67q1 21 -9.5 39t-28 28t-38.5 10zM94 38q-26 24 -47 50 q-28 36 -28 56.5t10 38t27.5 27.5t38 10t37.5 -10t27.5 -27t10 -38t-28.5 -57q-21 -26 -47 -50zM174 52q-13 12 -24 24q33 42 33 69q0 17 -6 32t-17 28q9 1 14 1q17 0 31.5 -8.5t23 -23t8.5 -32t-24 -47.5q-16 -22 -39 -43zM94 187q-17 0 -29 -12t-12 -29t12 -29t29 -12 t29 12t12 29t-12 29t-29 12zM94 119q-11 0 -19 8t-8 19t8 19t19 8t19 -8t8 -19t-8 -19t-19 -8z" />
</svg>