<svg viewBox="0 0 1024 1024" xmlns="http://www.w3.org/2000/svg">
  <path transform="scale(1, -1) translate(0, -960)" fill="currentColor" d="M512 928q-80 0 -150 -30q-70 -31 -122.5 -83t-82.5 -123q-31 -70 -31 -150q0 -112 57 -214q56 -102 125 -180t129 -126q59 -47 65 -51q3 -1 5.5 -2t4.5 -1t4.5 1t5.5 2q6 4 65 52q60 47 129 125t125 180q57 102 57 214q0 80 -31 150q-30 71 -82.5 123t-122.5 83 q-70 30 -150 30zM512 3q-21 16 -79 66t-119 123t-108 163q-48 90 -48 187q0 74 28 138t76 112t112 76q65 28 138 28t138 -28q64 -28 112 -76t76 -112t28 -138q0 -97 -48 -187q-47 -90 -108 -163t-119 -123t-79 -66zM595 714h-117q-7 0 -11.5 -4.5t-4.5 -11.5v-261h-102 q-7 0 -11.5 -4.5t-4.5 -11.5t4.5 -11.5t11.5 -4.5h102v-101q0 -7 4.5 -11.5t11.5 -4.5q8 0 12 4.5t4 11.5v101h103q7 0 11.5 4.5t4.5 11.5t-4.5 11.5t-11.5 4.5h-103v107h101q35 0 60 25t25 60t-25 60t-60 25v0zM595 578h-101v104h101q22 0 37.5 -16t15.5 -37 q0 -22 -15.5 -36.5t-37.5 -14.5z" />
</svg>