<svg viewBox="0 0 256 256" xmlns="http://www.w3.org/2000/svg">
  <path transform="scale(1, -1) translate(0, -256)" fill="currentColor" d="M182 112h-47v27q9 -3 19 -3q15 0 31 10q5 3 5 9t-4.5 9.5t-8.5 5.5q11 13 13 35q1 5 -3 9t-10 3q-14 -2 -26 -8q-2 18 -13 37q-3 5 -9.5 5t-10.5 -5q-10 -18 -13 -37q-12 6 -26 8q-6 1 -10 -3t-3 -10q2 -20 13 -35q-4 -2 -8.5 -5t-4.5 -9t5 -9q25 -17 50 -7v-28h-47 q-7 0 -13 -5.5t-6 -13.5v-11q0 -5 2.5 -9t7.5 -7l8 -41q2 -8 8.5 -13.5t14.5 -5.5h64q8 0 14.5 5.5t8.5 13.5l9 42q4 2 6.5 6.5t2.5 9.5v11q0 7 -6 13t-13 6zM82 156q6 3 10.5 4t6 5t-2.5 7q-12 11 -15 31q16 -3 26 -12q1 -2 3.5 -2t3.5 1q4 2 4 6q0 18 10 38q10 -18 10 -38 q0 -4 4 -6q2 -1 4.5 -1t3.5 2q10 9 26 11q-4 -20 -16 -30q-3 -3 -1.5 -7t5.5 -5t10 -5q-20 -12 -42 1q-4 2 -7 0q-22 -12 -43 0zM69 92q0 3 1.5 4.5t3.5 1.5h108q2 0 3.5 -1.5t1.5 -4.5v-10q0 -3 -1.5 -4.5t-3.5 -1.5h-108q-2 0 -3.5 1.5t-1.5 4.5v10zM160 19h-64q-3 0 -6 2 t-3 5l-7 37h96l-7 -37q0 -3 -3 -5t-6 -2z" />
</svg>