<svg viewBox="0 0 256 256" xmlns="http://www.w3.org/2000/svg">
  <path transform="scale(1, -1) translate(0, -256)" fill="currentColor" d="M170 5h-2l-40 10l-40 -10q-4 0 -6.5 2t-2.5 5v21q0 3 2 5l19 19v31l-76 -20q-3 0 -5.5 2t-2.5 5v33q0 4 2 6l82 60v49q0 12 8 20t20 8t20 -8t8 -20v-49l82 -60q2 -2 2 -6v-33q0 -3 -2.5 -5t-5.5 -2l-76 19v-30l19 -19q2 -2 2 -5v-21q0 -3 -2.5 -5t-4.5 -2zM128 30 q1 0 2 -1l33 -8v9l-19 19q-2 2 -2 5v42q0 4 2.5 6t6.5 1l75 -19v20l-81 61q-3 2 -3 6v52q0 6 -4 10t-10 4t-10 -4t-4 -10v-52q0 -4 -3 -6l-81 -60v-21l75 19q4 0 6.5 -1.5t2.5 -5.5v-42q0 -3 -2 -5l-19 -19v-9z" />
</svg>