<svg viewBox="0 0 256 256" xmlns="http://www.w3.org/2000/svg">
  <path transform="scale(1, -1) translate(0, -256)" fill="currentColor" d="M237 154v0q-9 9 -20 16q-22 16 -39 16h-1q-12 0 -27 -8q-10 -5 -21 -14q-2 18 -6 33q-7 20 -18 31q-15 15 -48 20q-17 3 -33 3v0q-3 0 -5 -2t-2 -5v0q0 -16 3 -32q6 -33 22 -48q12 -12 38 -18q16 -4 36 -5v-67h-3q-17 0 -31 -8.5t-22.5 -22.5t-8.5 -31q0 -3 2 -5t5 -2 h129q3 0 5 2t2 5q0 17 -8 31t-22.5 22.5t-31.5 8.5h-2v61q27 -22 48 -22h1q17 0 39 15q10 7 19 16v0q2 2 2 5t-2 5zM180 19h-114q2 18 15.5 29.5t32.5 11.5h18q18 0 31.5 -11.5t16.5 -29.5zM52 174q-11 10 -16 32q-3 14 -4 31q17 -1 33 -5q21 -5 31 -15t15 -31q4 -15 5 -31 q-18 1 -32 4q-22 5 -32 15zM178 127v0v0q-10 0 -24 8q-10 6 -20 15q10 9 20 14q13 8 23 8h1q9 0 23 -8q10 -6 21 -15q-26 -22 -44 -22z" />
</svg>