<svg viewBox="0 0 1024 1024" xmlns="http://www.w3.org/2000/svg">
  <path transform="scale(1, -1) translate(0, -960)" fill="currentColor" d="M726 370h-198v140q52 -24 103 -19t102 39q7 4 10.5 11t3.5 16q0 8 -3.5 16t-10.5 13q-11 7 -23 13t-24 11q24 27 39.5 64t21.5 83q1 7 -1 14.5t-8 12.5q-6 6 -13 8.5t-15 1.5q-33 -5 -62 -15t-53 -25q-3 40 -16.5 80t-37.5 80q-5 7 -12 11.5t-17 4.5v0v0q-8 0 -16 -4.5 t-13 -11.5q-24 -40 -37.5 -80t-16.5 -80q-24 15 -53.5 25.5t-61.5 14.5q-8 1 -15.5 -1.5t-13.5 -8.5q-6 -5 -8.5 -12.5t-1.5 -14.5q6 -45 21 -82t40 -65q-12 -5 -23 -11t-23 -13q-8 -5 -11.5 -12.5t-3.5 -16.5t3.5 -16t11.5 -11q30 -20 60 -30t60 -10q21 0 42.5 5t41.5 15 v-140h-196q-27 0 -45.5 -19t-18.5 -45v-44q0 -19 10 -34t26 -23l34 -171q6 -29 28.5 -47.5t51.5 -18.5h256q29 0 51.5 18.5t28.5 47.5l35 172q16 8 26.5 23.5t10.5 34.5v43q-1 25 -20 44t-46 19v0zM309 557v1v-1q15 11 31 18t31 12q5 1 7.5 4.5t3.5 6.5q2 5 0.5 9t-4.5 7 q-28 26 -45.5 63t-22.5 85q39 -5 70 -18.5t55 -34.5q4 -4 8.5 -4t9.5 2q5 3 7 6.5t2 8.5q-1 43 12 87t40 87h-2v0q26 -43 38.5 -87t12.5 -87q0 -5 2.5 -9.5t7.5 -5.5q5 -2 9.5 -1.5t7.5 3.5q24 21 55.5 34t71.5 17q-6 -47 -23 -83.5t-46 -62.5q-4 -2 -5 -6.5t0 -9.5 q1 -4 4.5 -7t6.5 -4q16 -3 31.5 -10.5t29.5 -18.5v0v-1q-48 -33 -97 -34t-98 29q-4 2 -8 2t-8 -2q-49 -30 -97.5 -29t-97.5 34v0zM688 40q-4 -17 -17.5 -28.5t-30.5 -11.5h-256q-18 0 -32 11.5t-18 28.5l-32 160h416zM758 264q0 -13 -9 -22.5t-23 -9.5h-428q-14 0 -23 9.5 t-9 22.5v43q0 13 9 22.5t23 9.5h428q14 0 23 -9.5t9 -22.5v-43z" />
</svg>