<svg viewBox="0 0 1024 1024" xmlns="http://www.w3.org/2000/svg">
  <path transform="scale(1, -1) translate(0, -960)" fill="currentColor" d="M728 373h-102q21 12 41.5 28t39.5 34q57 57 83.5 123t15.5 120q-1 5 -4.5 8.5t-7.5 4.5q-33 7 -72 -0.5t-79 -28.5q-6 88 -38.5 159t-84.5 105q-4 3 -9 3t-9 -3q-51 -34 -84 -105t-39 -159q-39 21 -78 28.5t-72 0.5q-5 -1 -8.5 -4.5t-4.5 -8.5q-11 -55 16 -121.5 t83 -121.5q18 -19 39 -34.5t43 -27.5h-103q-26 0 -45 -19t-19 -45v-43q0 -20 10 -35.5t27 -22.5l37 -174q6 -29 28.5 -47.5t51.5 -18.5h256q29 0 52 18.5t28 47.5l35 174q16 7 26.5 22.5t10.5 35.5v43q0 26 -19 45t-45 19v0zM776 661q5 -46 -20 -101.5t-73 -103.5 q-26 -26 -55.5 -46t-59.5 -32q35 44 55.5 107.5t21.5 136.5q35 23 68.5 32.5t62.5 6.5zM512 893q46 -36 73.5 -107.5t27.5 -155.5q0 -81 -26.5 -151t-69.5 -106h-10q-44 37 -70 106.5t-26 150.5q0 86 27 156.5t74 106.5v0zM248 661q29 3 62.5 -7t68.5 -30q1 -73 21 -137.5 t56 -108.5q-30 12 -60 32t-55 46q-48 48 -73 103.5t-20 101.5zM690 40q-4 -17 -18 -28.5t-32 -11.5h-256q-18 0 -32 11.5t-18 28.5l-32 160h420l-32 -160v0zM760 266q0 -14 -9.5 -23t-22.5 -9h-432q-13 0 -22.5 9t-9.5 23v43q0 13 9.5 22.5t22.5 9.5h432q13 0 22.5 -9.5 t9.5 -22.5v-43z" />
</svg>