<svg viewBox="0 0 1024 1024" xmlns="http://www.w3.org/2000/svg">
  <path transform="scale(1, -1) translate(0, -960)" fill="currentColor" d="M680 -32h-2h-1l-165 42l-165 -42q-3 -1 -7 0t-7 3q-3 3 -5 6t-2 7v85q0 3 1.5 6t3.5 5l80 80v141l-317 -80q-3 -1 -6.5 0t-7.5 3q-2 2 -4 5.5t-2 7.5v131q0 4 1 7t5 6l331 246v202q0 41 29.5 70t71.5 29t71.5 -29t29.5 -70v-202l331 -246q4 -3 5 -6t1 -7v-131 q0 -4 -1 -7.5t-5 -5.5q-2 -2 -6.5 -3t-7.5 0l-317 80v-141l80 -80q2 -2 3.5 -5t1.5 -6v-85q0 -4 -1.5 -7t-5.5 -6q-2 -1 -4.5 -2t-6.5 -1v0zM512 42h2h1l149 -37v57l-80 80q-2 3 -3.5 5.5t-1.5 6.5v168q0 3 1.5 6.5t5.5 5.5q3 3 6.5 4t7.5 0l317 -80v102l-330 246 q-3 3 -4.5 6.5t-1.5 6.5v210q0 27 -20 47t-49 20t-49 -20t-20 -47v-210q0 -3 -1.5 -6.5t-4.5 -6.5l-330 -246v-102l317 80q4 1 7.5 0t6.5 -4q3 -2 5 -5.5t2 -6.5v-168q0 -4 -1.5 -6.5t-3.5 -5.5l-80 -80v-57l149 37h1h2v0z" />
</svg>