<svg viewBox="0 0 256 256" xmlns="http://www.w3.org/2000/svg">
  <path transform="scale(1, -1) translate(0, -256)" fill="currentColor" d="M182 112h-16q5 3 13 10q15 15 21.5 32.5t3.5 31.5q0 4 -5 6q-16 3 -35 -6q-3 21 -11 38t-21 26q-2 1 -4 1t-4 -1q-13 -9 -21 -26t-10 -38q-20 9 -35 6q-5 -1 -6 -6q-3 -14 4 -31.5t22 -32.5q7 -7 12 -10h-16q-7 0 -13 -5.5t-6 -13.5v-11q0 -5 3 -9.5t7 -6.5l8 -42 q1 -8 8 -13.5t15 -5.5h64q8 0 14.5 5.5t8.5 13.5l9 42q4 2 6.5 6.5t2.5 9.5v11q0 8 -5.5 13.5t-13.5 5.5zM191 178q1 -10 -5.5 -22.5t-16.5 -23.5q-8 -8 -18 -14q12 22 13 52q15 9 27 8zM128 235q10 -9 16 -25.5t6 -35.5t-6 -36t-16 -26q-10 9 -16 25.5t-6 36t6 36t16 25.5z M65 178q12 1 27 -8q1 -30 14 -52q-10 6 -19 14q-11 11 -17 23.5t-5 22.5zM69 93q0 2 1.5 3.5t3.5 1.5h108q2 0 4 -1.5t2 -3.5v-11q0 -2 -1.5 -3.5t-4.5 -1.5h-108q-2 0 -3.5 1.5t-1.5 3.5v11zM160 19h-64q-3 0 -6 2t-3 5l-7 37h97l-7 -37q-1 -3 -4 -5t-6 -2z" />
</svg>