<svg viewBox="0 0 1024 1024" xmlns="http://www.w3.org/2000/svg">
  <path transform="scale(1, -1) translate(0, -960)" fill="currentColor" d="M982 390l-86 87q-8 8 -21 10t-24 -5l-120 -76q-1 -1 -2 -1t-3 1l-134 138v1.5v1.5v1t2 2l251 207q6 5 9.5 11.5t3.5 13.5q0 8 -2.5 15t-7.5 13l-107 107q-9 8 -21.5 10t-23.5 -5l-283 -189q-1 -1 -2.5 -1t-2.5 1l-80 81q-18 18 -40.5 27.5t-49.5 9.5q-25 0 -48 -10 t-41 -28q-39 -37 -40 -90.5t37 -90.5l81 -80q1 -1 1 -2.5t-1 -2.5l-189 -283q-7 -11 -5.5 -23.5t10.5 -21.5l107 -107q5 -5 12 -8t16 -2q7 0 13.5 3.5t11.5 9.5l207 253q1 1 2 1.5l1 0.5l1 -0.5t2 -1.5l136 -134q1 -2 1 -3t-1 -2l-74 -119q-6 -10 -4.5 -22.5t9.5 -21.5 l87 -87q4 -5 11 -7t14 -2h2.5h2.5q8 1 15 5.5t12 13.5l123 222l223 123q7 5 12.5 12t6.5 16q1 7 -2 14.5t-8 13.5v0zM958 362l-230 -128l-128 -231q-1 -2 -2 -2.5l-1 -0.5h-1t-2 2l-87 86q-1 1 -1 2.5t1 2.5l74 118q7 11 5 23t-10 22l-136 134q-5 5 -11.5 7.5t-14.5 2.5 h-0.5h-0.5q-7 0 -14 -3.5t-12 -9.5l-209 -253q-2 -1 -3 -1h-1h-1t-2 1l-107 108v2v2l189 284v0v0q7 10 6 23t-11 21l-82 80q-27 28 -26.5 67.5t28.5 67.5q13 13 30.5 21t36.5 8q19 1 36.5 -6.5t30.5 -21.5l80 -81q9 -10 21.5 -11t23.5 6l287 192q1 1 2 1t2 -1l108 -107 q1 -1 1 -1.5v-1.5v-1t-1 -3l-253 -208q-6 -4 -9.5 -11t-3.5 -14t2.5 -14t7.5 -13l132 -138q9 -10 21.5 -11t23.5 6l120 75q1 2 2.5 2t2.5 -2l86 -86q2 -1 2 -1.5v-1.5v-2t-2 -1v0z" />
</svg>