<svg viewBox="0 0 1024 1024" xmlns="http://www.w3.org/2000/svg">
  <path transform="scale(1, -1) translate(0, -960)" fill="currentColor" d="M912 464h-106v168q0 71 -50 120.5t-119 49.5h-15v44q0 34 -24 58t-57 24h-53q-34 0 -58 -24t-24 -58v-43h-14q-71 0 -120.5 -50t-49.5 -119v-356q-19 3 -38 3.5t-42 0.5h-27q-7 0 -11.5 -4.5t-4.5 -11.5v-55q0 -50 23 -93q23 -44 62 -76.5t91 -51.5q53 -19 112 -19h66v0 h1h152q66 -1 125 24q58 25 102 68.5t69 103.5q26 59 26 126v155q0 6 -5 11t-11 5v0zM437 846q0 21 14.5 35.5t34.5 14.5h53q21 0 35.5 -14.5t14.5 -35.5v-43h-152v43v0zM251 632q0 58 40.5 98t97.5 40h246q58 0 98 -41t40 -97v-168h-13q-66 0 -124 -25q-59 -24 -103 -67 t-70 -100q-26 -58 -28 -123q-25 42 -69 73t-99 47q-3 1 -7.5 2t-8.5 1v360zM128 210v38h11q37 0 63 -1.5t57 -9.5q79 -22 127.5 -76.5t48.5 -122.5v-38h-49q-54 0 -101 17q-47 16 -82 44.5t-55 66.5t-20 82v0zM896 293q0 -61 -23 -114t-63 -93t-93 -63t-114 -23h-136v139 q0 61 23 114t63 93t93 63t114 23h136v-139z" />
</svg>