<svg viewBox="0 0 256 256" xmlns="http://www.w3.org/2000/svg">
  <path transform="scale(1, -1) translate(0, -256)" fill="currentColor" d="M149 5q-5 0 -9 3l-21 22q-3 3 -3.5 7t1.5 8l18 28l-32 31l-50 -61q-3 -5 -8.5 -5t-8.5 4l-27 27q-3 3 -3.5 7t1.5 8l47 70l-20 18q-10 10 -9.5 24.5t10 24.5t24.5 10.5t25 -9.5l19 -19l69 46q4 2 8 1.5t7 -3.5l27 -27q4 -3 4 -8t-5 -9l-61 -51l31 -31l28 17q4 3 8 2.5 t7 -3.5l22 -22q4 -4 3 -10q-1 -3 -2.5 -5t-3.5 -4l-55 -30l-30 -55q-4 -5 -9 -6h-2zM130 39l18 -19l32 56l56 31l-19 19l-28 -18q-4 -2 -8 -1.5t-7 3.5l-34 34q-3 4 -3 8.5t5 9.5l61 50l-24 24l-70 -46q-3 -2 -7.5 -1.5t-7.5 3.5l-20 20q-6 6 -14.5 6t-14.5 -6.5t-6.5 -15 t5.5 -14.5l21 -20q3 -3 3.5 -7.5t-2.5 -8.5l-46 -69l24 -24l50 61q3 5 8.5 5t9.5 -3l34 -34q3 -3 3.5 -7t-2.5 -8z" />
</svg>