<svg viewBox="0 0 256 256" xmlns="http://www.w3.org/2000/svg">
  <path transform="scale(1, -1) translate(0, -256)" fill="currentColor" d="M209 164q16 15 22 48q3 17 3 32q0 3 -2 5t-5 2v0q-16 0 -33 -3q-33 -6 -48 -21q-11 -10 -18 -31q-6 20 -17 31q-15 15 -48 21q-17 3 -33 3v0q-3 0 -5 -2t-2 -5v0q0 -16 3 -32q6 -33 21 -48q13 -12 39 -18q16 -4 35 -5v-27h-37q-11 0 -18 -9t-6 -19l10 -61q2 -8 8.5 -14 t15.5 -6h68q9 0 15.5 5.5t8.5 14.5l10 61q2 10 -5 19t-19 9h-37v27q19 1 36 5q25 6 38 18zM180 96q3 -4 2 -8l-10 -61q-1 -3 -3.5 -5.5t-6.5 -2.5h-68q-4 0 -6.5 2.5t-3.5 5.5l-10 61q-1 4 2.5 7.5t7.5 3.5h88q4 1 8 -3zM155 217q10 10 33 16q14 3 31 4q-1 -17 -4 -31 q-6 -22 -16 -32t-32 -15q-14 -3 -32 -4q1 17 5 32q5 21 15 30zM57 174q-10 10 -16 32q-3 14 -4 31q17 -1 33 -5q21 -5 31 -15t15 -31q4 -15 5 -31q-18 1 -32 4q-22 5 -32 15z" />
</svg>