<svg viewBox="0 0 1024 1024" xmlns="http://www.w3.org/2000/svg">
  <path transform="scale(1, -1) translate(0, -960)" fill="currentColor" d="M512 928q-99 0 -186 -38q-88 -38 -153 -103t-103 -153q-38 -87 -38 -186t38 -186q38 -88 103 -153t153 -103q87 -38 186 -38t186 38q88 38 153 103t103 153q38 87 38 186t-38 186q-38 88 -103 153t-153 103q-87 38 -186 38zM512 0q-92 0 -174 35q-81 36 -142 97t-97 142 q-35 82 -35 174t35 174q36 81 96.5 142t142.5 97q82 35 174 35t174 -35q81 -36 142 -96.5t97 -142.5q35 -82 35 -174t-35 -174q-36 -81 -96.5 -142t-142.5 -97q-82 -35 -174 -35zM512 728q-58 0 -109 -22t-89 -60t-60 -89t-22 -109t22 -109q22 -50 60 -88.5t89 -60.5 t109 -22t109 22t89 60t60 89t22 109t-22 109t-60 89t-89 60t-109 22zM512 200q-51 0 -96 20q-45 19 -79 53t-53 79q-20 45 -20 96t20 96q19 45 53 79t79 53q45 20 96 20t96 -20q45 -19 79 -53t53 -79q20 -45 20 -96t-20 -96q-19 -45 -53 -79t-79 -53q-45 -20 -96 -20z" />
</svg>