<svg viewBox="0 0 256 256" xmlns="http://www.w3.org/2000/svg">
  <path transform="scale(1, -1) translate(0, -256)" fill="currentColor" d="M128 251q-33 0 -61.5 -16.5t-45 -45t-16.5 -61.5t16.5 -61.5t45 -45t61.5 -16.5t61.5 16.5t45 45t16.5 61.5t-16.5 61.5t-45 45t-61.5 16.5zM128 19q-29 0 -54 14.5t-40 39.5t-15 55t15 54.5t39.5 39.5t54.5 15t55 -15t39.5 -40t14.5 -54.5t-14.5 -54.5t-39.5 -39.5 t-55 -14.5zM128 201q-20 0 -36.5 -10t-26.5 -26.5t-10 -36.5t10 -36.5t26.5 -26.5t36.5 -10t36.5 10t26.5 26.5t10 36.5t-10 36.5t-26.5 26.5t-36.5 10zM128 69q-16 0 -29.5 8t-21.5 21.5t-8 29.5t8 29.5t21.5 21.5t29.5 8t29.5 -8t21.5 -21.5t8 -29.5t-8 -29.5t-21.5 -21.5 t-29.5 -8z" />
</svg>