<svg viewBox="0 0 256 256" xmlns="http://www.w3.org/2000/svg">
  <path transform="scale(1, -1) translate(0, -256)" fill="currentColor" d="M137 156q-11 0 -19 -8.5t-8 -19.5t8 -19.5t19.5 -8.5t19.5 8.5t8 19.5t-8 19.5t-20 8.5zM137 114q-5 0 -9 4t-4 9.5t4 9.5t9.5 4t9.5 -4t4 -9.5t-4 -9.5t-10 -4zM137 187q-16 0 -29.5 -8t-21.5 -21.5t-8 -29.5t8 -29.5t21.5 -21.5t29.5 -8t29.5 8t21.5 21.5t8 29.5 t-8 29.5t-21.5 21.5t-29.5 8zM137 83q-18 0 -31.5 13t-13.5 32t13.5 32t32 13t31.5 -13t13 -32t-13 -32t-32 -13zM244 217h-4q-14 0 -24 -10t-10 -25v-53q0 -4 3 -7.5t8 -3.5h20v-75q0 -3 2 -5t5 -2t5.5 2t2.5 5v167q-1 3 -3 5t-5 2zM220 132v50q0 8 5 13.5t12 6.5v-70h-17z M84 198v16q0 3 -2 5t-5 2t-5 -2t-2 -5v-16q0 -9 -5.5 -16t-13.5 -9v41q0 3 -2 5t-5 2t-5 -2t-2 -5v-41q-8 3 -13.5 9.5t-5.5 15.5v16q0 3 -2 5t-5 2t-5 -2t-2 -5v-16q0 -15 9 -25.5t23 -13.5v-116q0 -3 2.5 -5t5.5 -2t5 2t2 5v116q15 2 24 13t9 26z" />
</svg>