<svg viewBox="0 0 1024 1024" xmlns="http://www.w3.org/2000/svg">
  <path transform="scale(1, -1) translate(0, -960)" fill="currentColor" d="M549 547q-41 0 -70 -29t-29 -70t29 -70t70 -29t70 29t29 70t-29 70t-70 29zM549 381q-28 0 -47.5 19.5t-19.5 47.5t19.5 47.5t47.5 19.5q27 0 47 -19.5t20 -47.5t-20 -47.5t-47 -19.5zM549 670q-46 0 -87 -17q-40 -18 -70.5 -48t-47.5 -71q-18 -40 -18 -86t18 -86 q17 -41 47.5 -71.5t70.5 -48.5q41 -18 87 -18t87 18q41 17 71 47.5t48 71.5t18 87t-18 87q-18 40 -48 70.5t-71 47.5t-87 17zM549 256q-79 0 -135 56t-56 134t56.5 134.5t134.5 56.5t135 -55t57 -134t-56.5 -135.5t-135.5 -56.5zM976 790h-16q-53 0 -89.5 -36.5t-36.5 -89.5 v-213q0 -13 9 -22.5t23 -9.5h94v-312q0 -7 4.5 -11.5t11.5 -4.5t11.5 4.5t4.5 11.5v667q0 8 -4.5 12t-11.5 4v0zM866 451v213q0 38 27 66t67 28v-307h-94v0zM310 806q-7 0 -11.5 -4t-4.5 -12v-64q0 -43 -28.5 -75t-70.5 -38v177q0 8 -4.5 12t-11.5 4t-11.5 -4t-4.5 -12v-177 q-42 6 -70.5 38t-28.5 75v64q0 8 -4.5 12t-11.5 4t-11.5 -4t-4.5 -12v-64q0 -56 38 -97.5t93 -47.5v-474q0 -7 4.5 -11.5t11.5 -4.5t11.5 4.5t4.5 11.5v474q55 6 93 47.5t38 97.5v64q0 6 -5 11t-11 5v0z" />
</svg>