<svg viewBox="0 0 256 256" xmlns="http://www.w3.org/2000/svg">
  <path transform="scale(1, -1) translate(0, -256)" fill="currentColor" d="M155 193v-59q19 -10 32 -1t13 33t-10 37t-36 22q-35 11 -55 15v-178l40 -13v149q0 6 2.5 8.5t6.5 1.5q7 -2 7 -15zM235 114q-12 5 -27 6.5t-27 0.5t-23 -3l-11 -4v-24l43 15q5 2 12 2.5t12 -1t4 -4t-6 -4.5l-66 -22v-24l89 32l6 3q8 3 11.5 7.5t0 10t-17.5 9.5zM11 101 q-7 -6 -3.5 -13t17.5 -11q31 -10 62 -5h4v21l-21 -7q-5 -2 -12 -2.5t-11.5 1t-4 4t6.5 4.5l42 15v24l-58 -21q0 1 -4 -1l-9 -4q-5 -2 -9 -5z" />
</svg>