<svg viewBox="0 0 1024 1024" xmlns="http://www.w3.org/2000/svg">
  <path transform="scale(1, -1) translate(0, -960)" fill="currentColor" d="M944 570l-742 371q-33 17 -68 15t-65 -20q-30 -19 -47 -50t-17 -67v-742q0 -36 17 -67t48 -50q17 -11 35 -16t37 -5q16 0 31.5 3.5t29.5 11.5l741 372q35 18 55 51t20 71t-20 71.5t-55 50.5v0zM600 680l-144 -186l-315 407q9 0 18 -2.5t17 -5.5zM61 77v742q0 17 7 33 t20 26l333 -430l-335 -430q-13 10 -19 26t-6 33v0zM176 5q-8 -5 -17.5 -6.5t-19.5 -1.5l315 406l144 -187zM920 376l-269 -134l-160 206l160 206l269 -134q20 -11 32.5 -30t12.5 -42t-12.5 -42t-32.5 -30z" />
</svg>