<svg viewBox="0 0 1024 1024" xmlns="http://www.w3.org/2000/svg">
  <path transform="scale(1, -1) translate(0, -960)" fill="currentColor" d="M46 613l4.5 -1.5t3.5 -0.5q3 0 4.5 0.5t3.5 1.5l260 142q3 3 5.5 6.5t2.5 8.5q0 4 -2.5 8t-5.5 6l-260 142q-3 2 -7 2t-9 -2q-3 -2 -4.5 -5.5t-1.5 -8.5v-286q0 -4 1.5 -8t4.5 -5v0zM72 885l211 -117l-211 -115v232zM974 686h-483q-7 0 -11.5 -4t-4.5 -12q0 -7 4.5 -11.5 t11.5 -4.5h483q8 0 12 4.5t4 11.5q0 8 -5 12t-11 4zM491 883h483q8 0 12 4.5t4 11.5t-4 11.5t-12 4.5h-483q-7 0 -11.5 -4.5t-4.5 -11.5t4.5 -11.5t11.5 -4.5zM971 458h-921q-8 0 -12 -4.5t-4 -11.5q0 -8 4 -12t12 -4h921q7 0 11.5 4t4.5 12q0 7 -4.5 11.5t-11.5 4.5z M971 229h-921q-8 0 -12 -4.5t-4 -11.5t4 -11.5t12 -4.5h921q7 0 11.5 4.5t4.5 11.5t-4.5 11.5t-11.5 4.5zM971 0h-921q-8 0 -12 -4.5t-4 -11.5t4 -11.5t12 -4.5h921q7 0 11.5 4.5t4.5 11.5t-4.5 11.5t-11.5 4.5z" />
</svg>