<svg viewBox="0 0 1024 1024" xmlns="http://www.w3.org/2000/svg">
  <path transform="scale(1, -1) translate(0, -960)" fill="currentColor" d="M939 560l-742 371q-30 15 -62 13.5t-60 -19.5q-27 -17 -43 -45t-16 -61v-742q0 -33 16 -61t43 -45q16 -9 32.5 -14t33.5 -5q14 0 28.5 3.5t27.5 9.5l742 371q33 16 51 46t18 66t-19 65.5t-50 46.5v0zM141 912q11 0 21.5 -2.5t19.5 -7.5l437 -217l-163 -210l-338 434 q6 1 11.5 2t11.5 1v0zM48 77v742q0 23 11 43.5t29 33.5l347 -448l-347 -448q-19 13 -29.5 33.5t-10.5 43.5v0zM182 -6q-15 -8 -31.5 -10t-32.5 3l338 435l163 -209l-437 -219v0zM925 365l-277 -139l-173 222l171 221l277 -139q24 -12 37.5 -34t13.5 -50q2 -25 -11.5 -47 t-37.5 -34v0z" />
</svg>