<svg viewBox="0 0 256 256" xmlns="http://www.w3.org/2000/svg">
  <path transform="scale(1, -1) translate(0, -256)" fill="currentColor" d="M246 54l-65 36q-4 2 -7.5 -0.5t-3.5 -5.5v-72q0 -4 4 -6q1 -1 3 -1t4 1l65 36q3 1 3 6q0 1 -1 3t-2 3zM184 24v48l44 -24zM133 80h-121q-3 0 -5 -2.5t-2 -5.5t2 -5t5 -2h121q3 0 5 2t2 5t-2 5.5t-5 2.5zM133 22h-121q-3 0 -5 -2t-2 -5t2 -5t5 -2h121q3 0 5 2t2 5t-2 5 t-5 2zM244 137h-231q-3 0 -5 -2t-2 -5t2 -5.5t5 -2.5h231q3 0 5 2.5t2 5.5t-2.5 5t-4.5 2zM244 194h-231q-3 0 -5 -2t-2 -5t2 -5t5 -2h231q3 0 5 2t2 5t-2.5 5t-4.5 2zM13 237h231q3 0 5 2t2 5t-2 5t-5 2h-231q-3 0 -5 -2t-2 -5t2 -5t5 -2z" />
</svg>