<svg viewBox="0 0 1024 1024" xmlns="http://www.w3.org/2000/svg">
  <path transform="scale(1, -1) translate(0, -960)" fill="currentColor" d="M976 141l-259 142q-4 3 -8.5 3t-7.5 -3q-4 -2 -6 -5.5t-2 -8.5v-285q0 -5 2 -8.5t6 -5.5q2 -2 3.5 -2h4.5h3.5t4.5 2l259 144q4 2 6 5.5t2 8.5t-2 7.5t-6 5.5zM725 11v232l211 -117zM533 242h-483q-8 0 -12 -4.5t-4 -11.5q0 -8 4 -12t12 -4h483q7 0 11.5 4t4.5 12 q0 7 -4.5 11.5t-11.5 4.5zM533 13h-483q-8 0 -12 -4.5t-4 -11.5t4 -11.5t12 -4.5h483q7 0 11.5 4.5t4.5 11.5t-4.5 11.5t-11.5 4.5zM974 470h-921q-7 0 -11.5 -4t-4.5 -12q0 -7 4.5 -11.5t11.5 -4.5h921q8 0 12 4.5t4 11.5q0 8 -5 12t-11 4zM974 699h-921q-7 0 -11.5 -4.5 t-4.5 -11.5t4.5 -11.5t11.5 -4.5h921q8 0 12 4.5t4 11.5t-5 11.5t-11 4.5zM53 896h921q8 0 12 4.5t4 11.5t-4 11.5t-12 4.5h-921q-7 0 -11.5 -4.5t-4.5 -11.5t4.5 -11.5t11.5 -4.5v0z" />
</svg>