<svg viewBox="0 0 1024 1024" xmlns="http://www.w3.org/2000/svg">
  <path transform="scale(1, -1) translate(0, -960)" fill="currentColor" d="M621 709v-239q75 -37 127 -2.5t52 130.5q0 99 -41 150t-141 87q-41 13 -106 32t-117 29v-714l162 -51v597q0 22 9 34t24 6q18 -4 24.5 -21.5t6.5 -37.5v0zM941 394q-51 18 -111 25t-112 2t-86 -14.5l-34 -9.5l-11 -5v-96l173 61q22 8 50 9.5t46 -4.5q18 -5 15.5 -15.5 t-25.5 -18.5l-260 -90v-94l353 126l26.5 12t40.5 32q15 15 3.5 37.5t-68.5 42.5zM43 339q-26 -20 -14.5 -48.5t70.5 -45.5q63 -21 125.5 -26t122.5 5q4 0 8.5 1t7.5 1v83l-81 -29q-22 -8 -50 -9.5t-46 4.5q-18 5 -15.5 15t26.5 19l166 59v96l-232 -83q1 1 -31 -11t-57 -31v0 z" />
</svg>