<svg viewBox="0 0 1024 1024" xmlns="http://www.w3.org/2000/svg">
  <path transform="scale(1, -1) translate(0, -960)" fill="currentColor" d="M733 760h-79v152q0 7 -4 11.5t-12 4.5q-7 0 -11.5 -4.5t-4.5 -11.5v-152h-220v152q0 7 -4.5 11.5t-11.5 4.5q-8 0 -12 -4.5t-4 -11.5v-152h-79q-20 0 -34 -14t-14 -34v-213q0 -40 15 -75q16 -36 42 -62t61 -41q36 -15 76 -15h59v-322q0 -7 4.5 -11.5t11.5 -4.5t11.5 4.5 t4.5 11.5v322h61q40 0 75 15q36 15 62 41t41 62q15 35 15 75v213q-1 19 -15 33.5t-34 14.5zM749 499q0 -67 -47.5 -114t-114.5 -47h-152q-67 0 -114 47t-47 114v213q0 7 4 11.5t12 4.5h441q7 0 11.5 -4.5t4.5 -11.5v-213h2z" />
</svg>