<svg viewBox="0 0 1024 1024" xmlns="http://www.w3.org/2000/svg">
  <path transform="scale(1, -1) translate(0, -960)" fill="currentColor" d="M693 546h-165v163q0 7 -4.5 11.5t-11.5 4.5t-11.5 -4.5t-4.5 -11.5v-165h-165q-7 0 -11.5 -4.5t-4.5 -11.5t4.5 -11.5t11.5 -4.5h165v-165q0 -7 4.5 -11.5t11.5 -4.5t11.5 4.5t4.5 11.5v167h165q7 0 11.5 4t4.5 12q0 7 -5 11.5t-11 4.5zM693 203h-362q-7 0 -11.5 -4.5 t-4.5 -11.5t4.5 -11.5t11.5 -4.5h360q7 0 11.5 4.5t4.5 11.5t-4 11.5t-10 4.5zM928 928h-832q-26 0 -45 -19t-19 -45v-832q0 -26 19 -45t45 -19h832q26 0 45 19t19 45v832q0 26 -19 45t-45 19zM960 32q0 -13 -9.5 -22.5t-22.5 -9.5h-832q-13 0 -22.5 9.5t-9.5 22.5v832 q0 13 9.5 22.5t22.5 9.5h832q13 0 22.5 -9.5t9.5 -22.5v-832z" />
</svg>