<svg viewBox="0 0 256 256" xmlns="http://www.w3.org/2000/svg">
  <path transform="scale(1, -1) translate(0, -256)" fill="currentColor" d="M173 155h-38v38q0 3 -2 5t-5 2t-5 -2t-2 -5v-38h-38q-3 0 -5 -2t-2 -5t2 -5t5 -2h38v-38q0 -3 2 -5t5 -2t5 2t2 5v38h38q3 0 5 2t2 5t-2 5t-5 2zM173 70h-90q-3 0 -5 -2.5t-2 -5.5t2 -5t5 -2h90q3 0 5 2t2 5t-2 5.5t-5 2.5zM232 251h-208q-8 0 -13.5 -5.5t-5.5 -13.5 v-208q0 -8 5.5 -13.5t13.5 -5.5h208q8 0 14 5.5t6 13.5v208q-1 8 -6.5 13.5t-13.5 5.5zM237 24q0 -2 -1.5 -3.5t-3.5 -1.5h-208q-2 0 -3.5 1.5t-1.5 3.5v208q0 2 1.5 3.5t3.5 1.5h208q2 0 3.5 -1.5t1.5 -3.5v-208z" />
</svg>