<svg viewBox="0 0 1024 1024" xmlns="http://www.w3.org/2000/svg">
  <path transform="scale(1, -1) translate(0, -960)" fill="currentColor" d="M981 163l-203 477q-11 25 -30 44t-44 30l-477 203q-39 17 -80.5 9t-72.5 -40q-32 -31 -40 -72.5t9 -80.5l203 -477q11 -25 30 -44t44 -30l475 -203q13 -6 27.5 -8.5t28.5 -2.5q28 0 52.5 10.5t45.5 31.5q32 31 40.5 72.5t-8.5 80.5v0zM74 744q-17 37 -7 69t29 51 q13 13 33 22.5t44 9.5q11 0 21.5 -2.5t21.5 -7.5l475 -203q6 -2 11.5 -5.5t11.5 -7.5l-426 -422q-4 5 -7 10.5t-6 11.5zM928 32q-19 -19 -50.5 -29t-69.5 7l-475 201q-6 3 -11.5 6t-11.5 7l426 424q4 -5 7 -10.5t6 -11.5l203 -476q16 -36 5.5 -67.5t-29.5 -50.5v0z" />
</svg>