<svg viewBox="0 0 1024 1024" xmlns="http://www.w3.org/2000/svg">
  <path transform="scale(1, -1) translate(0, -960)" fill="currentColor" d="M906 485q-32 41 -65 89t-70 108q-1 2 -3.5 7.5t-5.5 11.5q-17 35 -52.5 94t-88.5 88q-58 31 -135 40t-136 2q-67 -7 -119.5 -32t-84.5 -64q-42 -51 -54.5 -116t-14.5 -121q-1 -42 -1.5 -84t-0.5 -84q0 -18 1.5 -38t8.5 -39q8 -21 25.5 -38t39.5 -26q18 -6 37 -6t35 6 q23 -30 60 -41t72 1q22 -25 55 -34t65 1q0 -5 -0.5 -10.5t-1.5 -10.5q-1 -21 -1.5 -42t1.5 -43q2 -31 13.5 -58t28.5 -46v0v0q4 -5 10 -9.5t10 -8.5q12 -8 26.5 -12t29.5 -4q9 0 16.5 1.5t15.5 3.5q26 7 44.5 23.5t29.5 39.5q10 20 12 42.5t2 45.5q2 57 2 114.5t-2 113.5 q14 -12 28 -22.5t30 -18.5q29 -15 57 -19t53 4q32 10 51 36.5t18 56.5q1 31 -12.5 54t-28.5 44v0zM870 328q-25 -8 -48.5 -1.5t-35.5 12.5q-22 11 -41.5 27.5t-37.5 33.5q-3 4 -8 4t-9 -1q-5 -2 -7.5 -5.5t-2.5 -8.5q1 -65 1 -131.5t-1 -132.5q-1 -22 -2.5 -41t-10.5 -34 q-7 -16 -21 -28t-32 -17q-16 -5 -32 -3t-28 11q-4 2 -8.5 5.5t-7.5 7.5q-14 14 -23 36t-11 48q-2 20 -1.5 39.5t3.5 40.5q1 12 1 24v24q0 5 -2 8.5t-6 6.5q-3 2 -7.5 2t-8.5 -2q-26 -17 -59 -10t-51 32q-4 5 -9.5 6t-11.5 -1q-28 -14 -60.5 -4t-48.5 38q-1 2 -3.5 4t-5.5 4 q-4 1 -7 0l-6 -2q-13 -7 -28.5 -8t-30.5 5q-17 6 -29.5 17.5t-18.5 27.5q-6 14 -7 31t-1 34q0 41 -0.5 82.5t1.5 82.5q3 53 14 113.5t49 105.5q37 45 88.5 62.5t95.5 22.5q56 6 127 -1.5t124 -35.5q45 -24 78 -79t50 -89q3 -7 6 -13t5 -9q37 -61 70.5 -110.5t65.5 -91.5 q13 -18 25 -36.5t13 -38.5q0 -22 -13.5 -40t-34.5 -24v0z" />
</svg>