<svg viewBox="0 0 1024 1024" xmlns="http://www.w3.org/2000/svg">
  <path transform="scale(1, -1) translate(0, -960)" fill="currentColor" d="M949 472q0 18 -1.5 38t-8.5 39q-8 21 -25.5 38t-39.5 26q-18 6 -37 6t-35 -6q-23 30 -60 41t-72 -1q-22 25 -55 34t-65 -2q0 5 0.5 10.5t1.5 10.5q1 20 1.5 41.5t-1.5 42.5q-2 32 -13.5 58.5t-28.5 45.5v0v0q-6 5 -11 9.5t-11 8.5q-18 12 -41 15t-47 -4q-25 -7 -44 -23 t-30 -39q-9 -21 -11.5 -43t-2.5 -45q-1 -58 -1 -115.5t1 -113.5q-13 12 -27.5 22.5t-30.5 19.5q-28 14 -56.5 18t-53.5 -4q-31 -10 -50.5 -36.5t-18.5 -56.5q0 -29 14.5 -51.5t30.5 -42.5q31 -41 64 -89t70 -108q2 -2 4 -7.5t6 -11.5q17 -35 52.5 -94.5t88.5 -88.5 q44 -24 102 -33.5t111 -9.5q15 0 29.5 1t27.5 2q67 8 120 32.5t85 63.5q42 51 54 116t15 121q1 41 1 82.5t-1 82.5v0zM917 306q-3 -53 -14 -113.5t-49 -106.5q-37 -44 -88.5 -62t-95.5 -22q-56 -6 -127 1.5t-124 34.5q-45 24 -78 79.5t-48 88.5q-4 8 -6.5 13.5t-4.5 9.5 q-38 61 -71 110t-65 91q-15 18 -26.5 36.5t-12.5 39.5q0 20 14 37.5t34 24.5q7 2 13.5 3.5t13.5 1.5q18 0 34 -5.5t26 -10.5q21 -11 40.5 -27.5t37.5 -33.5q4 -4 8.5 -4t9.5 1q4 2 6.5 5.5t2.5 8.5q-1 65 -1 131.5t1 132.5q1 22 3 41t10 34q7 16 21 28t32 17q14 6 29.5 4 t27.5 -10q4 -3 8.5 -6t7.5 -7q14 -14 22 -36t12 -49q2 -19 1.5 -38.5t-3.5 -41.5q-1 -12 -1 -24v-24q0 -5 2 -8.5t6 -5.5q3 -3 7.5 -3t8.5 3q26 17 59 10t51 -33q4 -4 9.5 -5.5t11.5 1.5q28 14 60.5 4t48.5 -38q1 -2 3.5 -4.5t5.5 -3.5q4 -1 7 -0.5t6 2.5q13 7 28.5 8 t30.5 -5q17 -6 29.5 -17.5t18.5 -27.5q6 -14 7 -31.5t1 -34.5v-80.5t-1 -83.5v0z" />
</svg>