<svg viewBox="0 0 1024 1024" xmlns="http://www.w3.org/2000/svg">
  <path transform="scale(1, -1) translate(0, -960)" fill="currentColor" d="M987 560q-7 25 -23 44t-39 30q-21 9 -43 11.5t-45 2.5q-58 1 -115.5 1t-113.5 -1q12 13 22.5 27.5t19.5 30.5q14 28 18 56.5t-4 53.5q-10 31 -36.5 50.5t-56.5 18.5q-29 0 -51.5 -14.5t-42.5 -30.5q-41 -31 -89 -64t-108 -70q-2 -2 -7.5 -4t-11.5 -6q-35 -17 -94.5 -52.5 t-88.5 -88.5q-32 -56 -41 -133t-2 -136q7 -67 32 -119.5t64 -84.5q51 -42 116 -54.5t121 -14.5q22 -1 44 -1.5t44 -0.5h39.5h38.5q18 0 38 1.5t39 8.5q22 8 39 25.5t25 39.5q6 18 6 37t-6 35q30 23 41 60t-1 72q25 22 34 55t0 65q5 0 10.5 -0.5t10.5 -1.5q20 -1 41.5 -1.5 t42.5 1.5q32 2 58.5 13.5t45.5 28.5v0v0q5 4 9.5 10t8.5 10q12 20 15 43t-4 47v0zM949 490q-3 -4 -6 -8.5t-7 -7.5q-14 -14 -36 -22t-49 -12q-19 -2 -38.5 -1.5t-41.5 3.5q-12 1 -24 1h-24q-5 0 -8.5 -2t-5.5 -6q-3 -3 -3 -7.5t3 -8.5q17 -26 10 -59t-33 -51 q-4 -4 -5.5 -9.5t1.5 -11.5q14 -28 4 -60.5t-38 -48.5q-2 -1 -4.5 -3.5t-3.5 -5.5q-1 -4 -0.5 -7t2.5 -6q7 -13 8 -28.5t-5 -30.5q-6 -17 -17.5 -29.5t-27.5 -18.5q-14 -6 -31.5 -7t-34.5 -1q-40 0 -82 -0.5t-84 1.5q-53 3 -113.5 14t-105.5 49q-45 37 -62.5 88.5 t-22.5 95.5q-6 56 1.5 127t35.5 124q24 45 79 78t89 48q7 4 13 6.5t9 4.5q61 38 110.5 71t91.5 65q18 15 36.5 26.5t38.5 12.5v0h2q19 0 37 -14t25 -34q8 -25 1.5 -49t-12.5 -36q-11 -22 -27.5 -41t-33.5 -37q-4 -4 -4 -8.5t1 -9.5q2 -5 5.5 -7.5t8.5 -2.5q65 2 131.5 2 t132.5 -2q22 -1 41 -2.5t34 -9.5q16 -8 28 -21.5t17 -31.5q6 -16 4 -31.5t-10 -27.5v0z" />
</svg>