<svg viewBox="0 0 256 256" xmlns="http://www.w3.org/2000/svg">
  <path transform="scale(1, -1) translate(0, -256)" fill="currentColor" d="M148 5q-9 0 -16 5q-2 1 -6 5q-9 10 -11 27q-1 8 0 22v1q-7 -1 -14.5 1.5t-12.5 7.5q-9 -3 -18 -0.5t-16 9.5q-9 -2 -18 1q-13 5 -18 18q-3 6 -3 20v10q0 21 1 32q0 18 3 31q5 18 15 30q17 21 53 25q17 2 35 0q20 -3 34 -10q19 -10 36 -47q2 -4 3 -5q19 -30 33 -49 q5 -7 8 -11q4 -8 4 -15.5t-5.5 -15t-14.5 -10.5q-13 -4 -30 4l-10 6v-12q1 -26 0 -39q-1 -16 -4 -23q-5 -12 -20 -17q-4 -1 -8 -1zM137 24l3 -3q5 -3 13 -1t11 9q2 4 3 16v2q1 22 0 66q0 5 4 7q2 1 4 0.5t3 -2.5q12 -11 19 -14q11 -6 19 -3q4 1 7 4.5t3 9t-8 15.5 q-18 23 -35 51l-3 5q-15 33 -30 41q-12 6 -30 8q-16 2 -31 1q-30 -4 -44 -20q-8 -10 -12 -25q-2 -12 -3 -28v-41q0 -11 2 -16.5t9 -8t13 0.5q3 1 5.5 0.5t4.5 -2.5q3 -6 10 -8.5t13 0.5q2 2 4.5 1.5t4.5 -3.5q4 -5 11 -6.5t13 2.5q3 2 6.5 0t3.5 -6v-13q-1 -12 0 -18 q0 -14 7 -21z" />
</svg>