<svg viewBox="0 0 256 256" xmlns="http://www.w3.org/2000/svg">
  <path transform="scale(1, -1) translate(0, -256)" fill="currentColor" d="M142 16h-20q-13 0 -20 2q-12 5 -18 19q-3 9 0 18q-7 6 -10 15t0 18q-5 5 -7.5 12.5t-0.5 15.5h-2q-13 -1 -21 0q-19 2 -28 11q-2 2 -5 6.5t-4 11t1 12.5q4 14 17 21q7 3 23 4h51q-3 4 -6 10q-9 16 -4 30q3 9 10.5 14.5t15.5 5.5q7 0 14 -4q4 -2 11 -7l1 -1q17 -14 49 -34 l6 -3q15 -7 24 -13q15 -11 21 -22q7 -14 10 -35q2 -18 0 -35q-3 -35 -25 -53q-12 -10 -30 -15q-13 -3 -31 -4h-22zM75 130q4 0 6 -4t0 -7q-4 -5 -2.5 -12t7.5 -11q2 -2 2.5 -4.5t-0.5 -5.5q-3 -6 -1 -13t8 -10q2 -1 3 -4t-1 -5q-3 -6 -0.5 -13t9.5 -10q3 -1 12 -2h13 q21 0 31 1q16 0 28 3q15 4 24.5 11.5t15.5 21.5q4 10 5 22q1 15 -1 31q-2 19 -8 31q-5 9 -19 18q-8 5 -21 11l-6 4q-28 16 -51 34q-5 5 -9 7t-8 2t-8 -3t-5 -7q-2 -8 3 -19q4 -7 15 -19q1 -1 1.5 -3.5t-0.5 -4.5q-2 -4 -6 -4q-33 1 -66 0q-12 0 -18.5 -3t-9.5 -11 q1 -8 3 -11t3 -4q7 -7 20 -8q6 0 19 1h12z" />
</svg>