<svg viewBox="0 0 1024 1024" xmlns="http://www.w3.org/2000/svg">
  <path transform="scale(1, -1) translate(0, -960)" fill="currentColor" d="M949 555q-28 53 -87.5 88.5t-95.5 52.5q-6 4 -11 6t-8 4q-60 37 -108 69.5t-90 64.5q-21 16 -43.5 30.5t-51.5 14.5q-30 0 -56.5 -19.5t-35.5 -49.5q-9 -25 -5.5 -53.5t19.5 -56.5q8 -16 19 -30.5t23 -27.5q-57 1 -114.5 1t-114.5 -1q-23 -1 -45.5 -3.5t-42.5 -10.5 q-24 -11 -40.5 -30.5t-23.5 -43.5t-4 -47t15 -41q4 -6 8.5 -11t9.5 -10v0v0q18 -17 44.5 -27.5t59.5 -13.5q21 -3 42.5 -2.5t41.5 2.5q5 0 10.5 0.5t10.5 0.5q-9 -31 -0.5 -64t32.5 -56q-13 -35 -1.5 -71.5t41.5 -59.5q-6 -17 -6 -35.5t6 -36.5q9 -23 25 -40t39 -26 q19 -7 39 -8t38 -1h39h39h44.5t43.5 1q57 3 122.5 15.5t114.5 53.5q40 34 64.5 86t31.5 119q9 58 0.5 134.5t-38.5 132.5v0zM957 290q-5 -44 -23 -95.5t-62 -88.5q-44 -38 -105 -49t-114 -14q-41 -1 -83.5 -1h-83.5q-16 0 -33 1t-32 7q-16 6 -27.5 18.5t-17.5 29.5 q-6 15 -5 31t8 28q1 2 2 5.5t0 7.5q-1 3 -3 5.5t-5 3.5q-28 16 -38 48.5t4 60.5q3 5 1.5 11t-6.5 10q-26 18 -32.5 51t10.5 59q2 4 2 8.5t-2 7.5q-2 4 -6 6t-8 2v0v0q-12 0 -24 -0.5t-24 -0.5q-21 -2 -40.5 -2.5t-39.5 0.5q-27 2 -49 10.5t-36 23.5q-4 3 -7.5 7t-5.5 9 q-6 12 -8 28t3 32q5 18 17 32t28 21q17 7 36 9.5t39 3.5q66 2 132.5 1.5t131.5 -1.5q5 0 9 2.5t6 7.5q2 4 1 9t-5 8q-16 18 -33 37.5t-27 41.5q-8 13 -14 36t2 48q8 21 26 34.5t37 13.5q20 0 38.5 -12t36.5 -26q42 -32 90.5 -65.5t109.5 -70.5q4 -2 9 -5t13 -6 q33 -16 88.5 -48.5t79.5 -78.5q29 -54 37 -125.5t2 -126.5v0z" />
</svg>