<svg viewBox="0 0 1024 1024" xmlns="http://www.w3.org/2000/svg">
  <path transform="scale(1, -1) translate(0, -960)" fill="currentColor" d="M965 474l-856 448q-16 8 -32.5 5.5t-28.5 -15.5q-12 -12 -14.5 -28.5t4.5 -32.5l448 -856q8 -13 20 -20t27 -7h1.5h1.5q16 1 28 10t17 24l105 272l272 105q15 6 24 18.5t10 26.5q1 16 -6.5 29t-20.5 21zM947 410l-278 -109q-4 -1 -6.5 -3.5t-3.5 -6.5l-109 -278 q-2 -6 -6.5 -9.5t-10.5 -3.5t-11 2.5t-8 8.5l-447 856q-5 9 -2 15t5 8q3 2 6.5 4t6.5 2h5t5 -2l856 -448q5 -2 8 -7.5t3 -11.5t-3.5 -10.5t-9.5 -6.5v0z" />
</svg>