<svg viewBox="0 0 256 256" xmlns="http://www.w3.org/2000/svg">
  <path transform="scale(1, -1) translate(0, -256)" fill="currentColor" d="M154 5q-14 0 -28.5 3t-25.5 8q-20 10 -37 47q-1 4 -2 5q-19 30 -33 49q-6 7 -8 11q-4 8 -4 15.5t5.5 15t13.5 10.5q14 4 30 -4q6 -3 10 -6v12q0 26 1 39q0 16 4 23q5 12 20 17q6 2 12.5 1t11.5 -4q2 -1 6 -5q10 -11 12 -28v-22v-1q7 1 14.5 -1t12.5 -7q9 2 18 -0.5 t15 -9.5q10 3 18 -1q14 -5 19 -17q3 -7 3 -20v-10q0 -22 -1 -32q-1 -18 -4 -31q-4 -19 -14 -30q-18 -22 -53 -26q-6 -1 -16 -1zM45 156q-2 0 -5.5 -1t-6.5 -4.5t-3 -9t8 -15.5q18 -23 35 -50l3 -6q15 -33 30 -40q12 -7 30 -9q16 -2 31 -1q30 4 44 20q8 10 12 26q2 11 3 27 v41q0 11 -2 16q-2 6 -9 8.5t-13 -0.5q-3 -1 -5.5 -0.5t-4.5 2.5q-3 6 -10 8.5t-13 -0.5q-2 -2 -4.5 -1.5t-4.5 3.5q-4 5 -11 6.5t-13 -2.5q-3 -2 -6.5 0t-3.5 6v13q1 12 0 18q-1 13 -7 20l-3 3q-6 3 -13.5 1t-10.5 -9q-3 -5 -3 -16v-2q-1 -23 0 -66q0 -5 -4 -7 q-2 -1 -4 -0.5t-4 1.5q-12 12 -19 15q-2 2 -5.5 3.5t-7.5 1.5z" />
</svg>