<svg viewBox="0 0 256 256" xmlns="http://www.w3.org/2000/svg">
  <path transform="scale(1, -1) translate(0, -256)" fill="currentColor" d="M114 16h-22q-18 1 -31 4q-18 4 -30 14q-21 18 -25 53q-2 17 0 35q3 21 10 34q10 20 47 37q3 1 4 2q31 19 49 33q8 6 12 8q7 4 14 4v0q9 0 16 -5.5t10 -13.5q5 -14 -3 -30q-3 -6 -7 -10h13q26 0 38 -1q16 0 23 -4q13 -5 18 -20q1 -6 0.5 -12.5t-4.5 -11.5q-1 -2 -5 -6 q-10 -10 -27 -12h-22h-1q1 -7 -1 -14.5t-8 -12.5q3 -9 0.5 -18t-9.5 -15q2 -10 -1 -18q-5 -14 -18 -19q-6 -3 -20 -3q-6 2 -20 2zM143 226v0v0q-4 0 -8 -2t-9 -6q-23 -18 -51 -35l-5 -3q-33 -15 -41 -30q-6 -12 -8 -30q-2 -16 -1 -31q4 -30 20 -44q10 -8 25 -12q12 -2 28 -3 h41q11 0 15 2q7 2 9.5 9t-0.5 13q-2 3 -1.5 5.5t3.5 4.5q6 3 8 10t-1 13q-1 2 -0.5 4.5t2.5 4.5q6 4 7.5 11t-2.5 13q-2 3 -0.5 6.5t6.5 3.5h12q13 -1 19 0q12 1 19 7l3 3q4 6 1.5 13.5t-9.5 10.5q-4 3 -15 3h-3q-22 1 -66 0q-4 0 -6 4q-1 2 -0.5 4t1.5 4q11 12 15 19 q5 10 3 19q0 3 -3.5 6t-7.5 3zM237 132z" />
</svg>