<svg viewBox="0 0 1024 1024" xmlns="http://www.w3.org/2000/svg">
  <path transform="scale(1, -1) translate(0, -960)" fill="currentColor" d="M722 21h-420q-16 0 -31.5 8.5t-24.5 23.5l-209 363q-9 14 -9 32t9 32l209 363q9 15 23.5 23.5t32.5 8.5h420q16 0 31.5 -8.5t24.5 -23.5l209 -363q9 -14 9 -32t-9 -32l-209 -363q-9 -16 -24.5 -24t-31.5 -8zM302 843q-8 0 -15.5 -4.5t-11.5 -11.5l-211 -363q-5 -7 -5 -16 t5 -16l210 -363q4 -7 11 -11.5t16 -4.5h419q8 0 16 4.5t11 11.5l213 363q5 7 5 16t-5 16l-210 363q-4 7 -11 11.5t-16 4.5h-421v0z" />
</svg>