<svg viewBox="0 0 1024 1024" xmlns="http://www.w3.org/2000/svg">
  <path transform="scale(1, -1) translate(0, -960)" fill="currentColor" d="M834 590q8 16 13.5 33t5.5 35q0 54 -39 93t-94 39h-4h-4v4.5v3.5q0 54 -39 93.5t-94 39.5q-31 0 -58.5 -13.5t-45.5 -37.5q-8 2 -16.5 3.5t-18.5 1.5q-44 0 -78.5 -26t-47.5 -67h-7h-6q-54 0 -93.5 -39t-39.5 -94q0 -18 5 -34.5t14 -32.5q-2 0 -4.5 -1t-3.5 -4 q-2 -2 -3.5 -5.5t-1.5 -7.5l42 -548q1 -11 5.5 -20.5t10.5 -16.5v0v0v0v0q8 -9 20 -14t25 -5h461q24 0 41.5 16t18.5 40l42 548q0 4 -1 7.5t-4 5.5q4 0 2.5 1t-3.5 2v0zM253 26v0v0l-16 216l317 316h233l-534 -532v0zM211 558h296l-275 -275l-21 275v0zM304 757q6 0 11 -0.5 t10 -1.5q3 -1 6 0t7 2q3 1 4.5 4t1.5 7q6 36 34 59.5t64 23.5q9 0 17.5 -1.5t17.5 -4.5q5 -3 11 -1t8 7q14 21 37 33t48 12q41 0 71 -29.5t30 -71.5q0 -6 -1 -11.5t-3 -10.5q-1 -4 0.5 -8.5t4.5 -7.5q4 -4 7.5 -5t8.5 0t11 2t12 1q40 0 70 -29.5t30 -71.5q0 -16 -4.5 -31.5 t-14.5 -27.5q-1 -1 -1.5 -3t-1.5 -3h-574q0 1 -1 3t-3 3q-9 13 -14 28.5t-5 30.5q0 44 29.5 73.5t71.5 29.5v0zM274 2l537 537l-19 -253l-286 -286h-224h-5t-3 2v0zM771 27q-1 -11 -9.5 -19t-19.5 -8h-192l237 237l-16 -210v0z" />
</svg>