<svg viewBox="0 0 256 256" xmlns="http://www.w3.org/2000/svg">
  <path transform="scale(1, -1) translate(0, -256)" fill="currentColor" d="M212 164q4 8 4 16q0 15 -10 25t-25 11q0 14 -10.5 24.5t-25.5 10.5q-8 0 -15 -3.5t-12 -9.5l-8 1q-11 0 -20 -6.5t-13 -16.5h-1q-15 0 -25.5 -10.5t-10.5 -25.5q0 -8 3 -16q-2 -2 -2 -5l11 -137q1 -6 5 -11v0q5 -6 13 -6h116q7 0 12 5t6 12l10 137q1 3 -2 5h1h-1zM75 19 l124 124l-4 -54l-70 -70h-50zM56 153h64l-60 -59zM62 75l77 77h50l-123 -123zM76 202q3 0 5.5 -0.5t5 1t3.5 4.5q1 8 7 13t14 5q5 0 7.5 -1t5 -0.5t3.5 2.5q3 5 8 8t11 3q9 0 15.5 -6.5t6.5 -15.5l-1 -5q-1 -4 2 -7t7 -1h5q9 0 15.5 -6.5t6.5 -15t-5 -13.5v-1h-140v1 q-4 5 -4 13.5t6.5 15t15.5 6.5zM186 19h-41l48 48l-3 -44q0 -2 -1.5 -3t-2.5 -1z" />
</svg>