<svg viewBox="0 0 1024 1024" xmlns="http://www.w3.org/2000/svg">
  <path transform="scale(1, -1) translate(0, -960)" fill="currentColor" d="M883 883h-742q-46 0 -77.5 -32t-31.5 -77v-491q0 -44 31.5 -76.5t77.5 -32.5h217q4 0 6.5 -1t5.5 -3l94 -116q8 -10 21 -16t27 -6t27 6t21 16l94 116q3 2 5.5 3t6.5 1h217q45 0 77 32t32 77v491q0 45 -31.5 77t-77.5 32v0zM960 283q0 -31 -22 -54t-55 -23h-217 q-10 0 -19 -3.5t-15 -10.5l-1 -1l-1 -1l-94 -116q-8 -11 -23 -11t-23 11l-95 116v1t-1 1q-8 7 -16 10.5t-18 3.5h-219q-33 0 -55 22.5t-22 54.5v491q0 32 22 54.5t55 22.5h744q31 0 54 -22t23 -55v-491h-2zM267 682h456q7 0 11.5 4t4.5 12q0 7 -4.5 11.5t-11.5 4.5h-456 q-7 0 -11.5 -4.5t-4.5 -11.5q0 -8 4.5 -12t11.5 -4v0zM267 512h330q7 0 11.5 4.5t4.5 11.5t-4.5 11.5t-11.5 4.5h-330q-7 0 -11.5 -4.5t-4.5 -11.5t4.5 -11.5t11.5 -4.5v0zM765 376h-498q-7 0 -11.5 -4.5t-4.5 -11.5t4.5 -11.5t11.5 -4.5h498q7 0 11.5 4.5t4.5 11.5 t-4.5 11.5t-11.5 4.5z" />
</svg>