<svg viewBox="0 0 256 256" xmlns="http://www.w3.org/2000/svg">
  <path transform="scale(1, -1) translate(0, -256)" fill="currentColor" d="M228 209h-200q-10 0 -16.5 -7t-6.5 -16v-116q0 -10 6.5 -17t16.5 -7h200q10 0 16.5 7t6.5 17v116q0 9 -6.5 16t-16.5 7zM237 70q0 -4 -2.5 -6.5t-6.5 -2.5h-200q-4 0 -6.5 2.5t-2.5 6.5v116q0 4 2.5 6.5t6.5 2.5h200q4 0 6.5 -2.5t2.5 -6.5v-116zM128 172q-3 0 -5 -2 t-2 -5v-63q0 -3 2 -5.5t5 -2.5t5 2.5t2 5.5v63q0 3 -2 5t-5 2zM44 126h36q3 0 5.5 2.5t2.5 5.5t-2.5 5t-5.5 2h-36q-3 0 -5.5 -2t-2.5 -5t2.5 -5.5t5.5 -2.5zM211 172h-39q-4 0 -6.5 -2.5t-2.5 -5.5v-40q0 -3 2.5 -5.5t6.5 -2.5h39q3 0 5.5 2.5t2.5 5.5v40q0 3 -2.5 5.5 t-5.5 2.5zM205 130h-28v28h28v-28zM91 109h-47q-3 0 -5.5 -2t-2.5 -5t2.5 -5.5t5.5 -2.5h47q3 0 5 2.5t2 5.5t-2 5t-5 2z" />
</svg>