<svg viewBox="0 0 1024 1024" xmlns="http://www.w3.org/2000/svg">
  <path transform="scale(1, -1) translate(0, -960)" fill="currentColor" d="M912 760h-800q-34 0 -57 -23t-23 -57v-464q0 -34 23 -57t57 -23h800q34 0 57 23t23 57v464q0 32 -23 56t-57 24zM960 216q0 -20 -14 -34t-34 -14h-800q-20 0 -34 14t-14 34v464q0 20 14 34t34 14h800q20 0 34 -14t14 -34v-464zM512 611q-7 0 -11.5 -4.5t-4.5 -11.5v-253 q0 -7 4.5 -11.5t11.5 -4.5t11.5 4.5t4.5 11.5v253q0 7 -4.5 11.5t-11.5 4.5zM174 453h148q7 0 11.5 4.5t4.5 11.5t-4.5 11.5t-11.5 4.5h-148q-7 0 -11.5 -4.5t-4.5 -11.5t5 -11.5t11 -4.5v0zM843 611h-157q-9 0 -15.5 -6.5t-6.5 -15.5v-157q0 -10 6.5 -16t15.5 -6h157 q10 0 16.5 6t6.5 16v157q0 9 -6.5 15.5t-16.5 6.5zM834 443h-136v136h136v-136zM363 358h-189q-7 0 -11.5 -4t-4.5 -12q0 -7 4.5 -11.5t11.5 -4.5h189q7 0 11.5 4.5t4.5 11.5q0 8 -4.5 12t-11.5 4z" />
</svg>