<svg viewBox="0 0 1024 1024" xmlns="http://www.w3.org/2000/svg">
  <path transform="scale(1, -1) translate(0, -960)" fill="currentColor" d="M643 328h-166q9 11 14 25.5t5 30.5v38h120q7 0 11.5 4.5t4.5 11.5q0 8 -4.5 12t-11.5 4h-120v50q0 28 19 47t47 19q13 0 24.5 -5t19.5 -13q5 -5 11.5 -5t11.5 5t5 11.5t-5 10.5q-13 14 -30.5 21t-36.5 7q-41 0 -69.5 -29t-28.5 -69v-50h-70q-8 0 -12 -4t-4 -12 q0 -7 4 -11.5t12 -4.5h70v-38q0 -23 -16 -39.5t-38 -16.5h-29q-7 0 -11.5 -4.5t-4.5 -11.5t4.5 -11.5t11.5 -4.5h261q7 0 11.5 4.5t4.5 11.5t-4.5 11.5t-10.5 4.5v0zM928 739h-832q-26 0 -45 -18.5t-19 -45.5v-454q0 -27 19 -45.5t45 -18.5h832q26 0 45 18.5t19 45.5v454 q0 27 -19 45.5t-45 18.5v0zM960 221q0 -13 -9.5 -22.5t-22.5 -9.5h-832q-13 0 -22.5 9.5t-9.5 22.5v454q0 13 9.5 22.5t22.5 9.5h832q13 0 22.5 -9.5t9.5 -22.5v-454zM242 618h-56q-8 0 -12 -4.5t-4 -11.5q0 -8 4 -12t12 -4h56q7 0 11.5 4t4.5 12q0 7 -5 11.5t-11 4.5v0z M840 309h-56q-7 0 -11.5 -4.5t-4.5 -11.5t4.5 -11.5t11.5 -4.5h56q7 0 11.5 4.5t4.5 11.5t-5 11.5t-11 4.5z" />
</svg>