<svg viewBox="0 0 1024 1024" xmlns="http://www.w3.org/2000/svg">
  <path transform="scale(1, -1) translate(0, -960)" fill="currentColor" d="M667 270h-211q16 16 25 38t9 47v77h139q7 0 11.5 4.5t4.5 11.5t-4.5 11.5t-11.5 4.5h-139v61q0 42 26 71.5t62 29.5q16 0 31.5 -7t28.5 -21q5 -4 11.5 -4t11.5 4q5 5 5 11.5t-5 11.5q-17 18 -39 27.5t-44 9.5q-50 0 -85 -39t-35 -94v-61h-101q-7 0 -11.5 -4.5t-4.5 -11.5 t4.5 -11.5t11.5 -4.5h101v-77q0 -35 -22 -60t-54 -25h-25q-7 0 -11.5 -4t-4.5 -12q0 -7 4.5 -11.5t11.5 -4.5h309q7 0 11.5 4.5t4.5 11.5q0 8 -4.5 12t-10.5 4zM512 928q-99 0 -186 -38q-88 -38 -153 -103t-103 -153q-38 -87 -38 -186t38 -186q38 -88 103 -153t153 -103 q87 -38 186 -38t186 38q88 38 153 103t103 153q38 87 38 186t-38 186q-38 88 -103 153t-153 103q-87 38 -186 38zM512 0q-92 0 -174 35q-81 36 -142 97t-97 142q-35 82 -35 174t35 174q36 81 96.5 142t142.5 97q82 35 174 35t174 -35q81 -36 142 -96.5t97 -142.5 q35 -82 35 -174t-35 -174q-36 -81 -96.5 -142t-142.5 -97q-82 -35 -174 -35z" />
</svg>