<svg viewBox="0 0 256 256" xmlns="http://www.w3.org/2000/svg">
  <path transform="scale(1, -1) translate(0, -256)" fill="currentColor" d="M167 87h-47q5 8 5 18v16h32q3 0 5 2t2 5t-2 5.5t-5 2.5h-32v12q0 9 5.5 15.5t13.5 6.5t13 -6q2 -2 5 -2.5t5 1.5t2 5t-1 5q-10 11 -23.5 11t-23.5 -10.5t-10 -25.5v-12h-22q-3 0 -5 -2.5t-2 -5.5t2 -5t5 -2h22v-16q0 -8 -4.5 -13t-10.5 -5h-7q-3 0 -5 -2t-2 -5t2 -5.5 t5 -2.5h77q3 0 5.5 2.5t2.5 5.5t-2 5t-5 2zM128 251q-33 0 -61.5 -16.5t-45 -45t-16.5 -61.5t16.5 -61.5t45 -45t61.5 -16.5t61.5 16.5t45 45t16.5 61.5t-16.5 61.5t-45 45t-61.5 16.5zM128 19q-29 0 -54 14.5t-40 39.5t-15 55t15 54.5t39.5 39.5t54.5 15t55 -15t39.5 -40 t14.5 -54.5t-14.5 -54.5t-39.5 -39.5t-55 -14.5z" />
</svg>