<svg viewBox="0 0 256 256" xmlns="http://www.w3.org/2000/svg">
  <path transform="scale(1, -1) translate(0, -256)" fill="currentColor" d="M161 101h-36q2 5 2 11v6h27q3 0 5.5 2t2.5 5t-2.5 5t-5.5 2h-27v10q0 6 4 10t9.5 4t9.5 -4q2 -2 5 -2t5 2t2 5t-2 5q-8 8 -19 8t-19 -8.5t-8 -19.5v-10h-15q-3 0 -5 -2t-2 -5t2 -5t5 -2h15v-7q0 -4 -3.5 -7.5t-7.5 -3.5h-7q-3 0 -5.5 -2t-2.5 -5t2.5 -5t5.5 -2h65 q3 0 5 2t2 5t-2 5.5t-5 2.5zM232 204h-208q-8 0 -13.5 -5.5t-5.5 -13.5v-114q0 -8 5.5 -13.5t13.5 -5.5h208q8 0 13.5 5.5t5.5 13.5v114q0 8 -5.5 13.5t-13.5 5.5zM237 71q0 -2 -1.5 -3.5t-3.5 -1.5h-208q-2 0 -3.5 1.5t-1.5 3.5v114q0 2 1.5 3.5t3.5 1.5h208q2 0 3.5 -1.5 t1.5 -3.5v-114zM60 173h-14q-3 0 -5 -2t-2 -5t2 -5t5 -2h14q3 0 5.5 2t2.5 5t-2.5 5t-5.5 2zM210 96h-14q-3 0 -5 -2t-2 -5t2 -5t5 -2h14q3 0 5 2t2 5t-2 5t-5 2z" />
</svg>