<svg viewBox="0 0 1024 1024" xmlns="http://www.w3.org/2000/svg">
  <path transform="scale(1, -1) translate(0, -960)" fill="currentColor" d="M885 82h-162q9 12 14 26t5 30v30h64q8 0 12 4.5t4 11.5t-4 11.5t-12 4.5h-64v59q0 28 17 47.5t41 19.5q11 0 21 -4.5t17 -12.5q5 -5 11.5 -5t11.5 3q5 5 5 11.5t-4 11.5q-12 13 -28 20.5t-34 7.5q-37 0 -63.5 -29t-26.5 -70v-59h-24q-7 0 -11.5 -4.5t-4.5 -11.5 t4.5 -11.5t11.5 -4.5h24v-30q0 -24 -13.5 -40t-34.5 -16h-16q-7 0 -11.5 -4.5t-4.5 -11.5q0 -8 4.5 -12t11.5 -4h239q7 0 11.5 4t4.5 12q0 7 -4.5 11.5t-11.5 4.5v0zM883 846h-742q-45 0 -77 -29t-32 -71v-464q0 -42 32 -71.5t77 -29.5h369q8 0 12 4.5t4 11.5t-4 11.5 t-12 4.5h-369q-31 0 -54 20t-23 49v225h896v-139q0 -7 4.5 -11.5t11.5 -4.5t11.5 4.5t4.5 11.5v378q0 42 -32 71t-77 29v0zM141 814h742q31 0 54 -20t23 -48v-69h-896v69q0 28 23 48t54 20v0zM64 539v106h896v-106h-896v0z" />
</svg>