<svg viewBox="0 0 1024 1024" xmlns="http://www.w3.org/2000/svg">
  <path transform="scale(1, -1) translate(0, -960)" fill="currentColor" d="M955 0h-665q60 34 96 94t36 133v167h448q8 0 12 4t4 12q0 7 -4 11.5t-12 4.5h-448v206q0 55 21 103q20 48 56 83.5t83 56.5q48 21 103 21q50 0 96.5 -19t82.5 -55q5 -4 11.5 -4t10.5 4q5 5 5 11.5t-5 11.5q-40 41 -92.5 62t-108.5 21q-61 0 -114 -23q-53 -24 -93 -64 t-63 -94t-23 -115v-206h-282q-7 0 -11.5 -4.5t-4.5 -11.5q0 -8 4.5 -12t11.5 -4h280v-167q0 -47 -17 -88q-18 -41 -48.5 -72t-71.5 -49t-88 -18h-96q-7 0 -11.5 -4.5t-4.5 -11.5t4.5 -11.5t11.5 -4.5h888q7 0 11.5 4.5t4.5 11.5t-5.5 11.5t-12.5 4.5v0z" />
</svg>