<svg viewBox="0 0 1024 1024" xmlns="http://www.w3.org/2000/svg">
  <path transform="scale(1, -1) translate(0, -960)" fill="currentColor" d="M430 502h-14q-7 0 -11.5 -4t-4.5 -12q0 -7 4.5 -11.5t11.5 -4.5h205q7 0 11.5 4.5t4.5 11.5q0 8 -4.5 12t-11.5 4h-133q6 10 10 22t4 25v24h52q7 0 11.5 4.5t4.5 11.5t-4.5 11.5t-11.5 4.5h-52v48q0 23 14 39.5t33 16.5q8 0 16 -3.5t14 -11.5q5 -4 11.5 -4.5t11.5 3.5 q4 5 4.5 11t-3.5 11q-11 12 -25 19t-29 7q-33 0 -56 -25.5t-23 -62.5v-48h-17q-7 0 -11.5 -4.5t-4.5 -11.5t4.5 -11.5t11.5 -4.5h17v-24q-1 -19 -12 -33t-28 -14zM190 576q8 0 12 4.5t4 11.5q0 63 25 118q24 56 65.5 97t96.5 65q56 24 119 24t119 -24q55 -24 96.5 -65 t65.5 -97q25 -55 25 -118q0 -70 -30 -132t-84 -105q-5 -3 -6 -10t3 -12q2 -3 5.5 -5t7.5 -2q2 0 4.5 1t4.5 3q60 48 93.5 116.5t33.5 145.5q0 70 -27 131t-73 106.5t-107 72.5q-61 26 -131 26t-131 -26q-62 -27 -107.5 -72.5t-72.5 -106.5t-27 -131q0 -7 4.5 -11.5 t11.5 -4.5v0zM792 162q-7 0 -11.5 -4.5t-4.5 -11.5v-119l-210 144q-8 6 -18.5 9.5t-21.5 3.5h-195q-8 0 -16 3.5t-13 9.5l-100 104q-5 5 -11.5 5t-11.5 -5t-5 -11.5t5 -11.5l101 -104q10 -10 23.5 -16t29.5 -6h195q6 0 12 -1.5t10 -4.5l210 -144h-126q-8 0 -12 -4.5 t-4 -11.5q0 -8 4 -12t12 -4h161q7 0 11.5 4t4.5 12v160q-2 6 -7 11t-12 5z" />
</svg>