<svg viewBox="0 0 256 256" xmlns="http://www.w3.org/2000/svg">
  <path transform="scale(1, -1) translate(0, -256)" fill="currentColor" d="M239 19h-157q12 9 19 23t7 30v39h110q3 0 5 2t2 5t-2 5t-5 2h-109v49q0 17 8.5 31.5t22.5 23t31 8.5q12 0 23.5 -4.5t19.5 -12.5q2 -2 5 -2t5 2t2 4.5t-2 5.5q-10 10 -24 15.5t-28 5.5q-21 0 -38.5 -10.5t-28 -28t-10.5 -38.5v-49h-67q-3 0 -5.5 -2t-2.5 -5t2.5 -5 t5.5 -2h66v-39q0 -14 -7 -26.5t-19 -19.5t-27 -7h-24q-3 0 -5 -2t-2 -5t2 -5.5t5 -2.5h222q3 0 5 2.5t2 5.5t-2 5t-5 2z" />
</svg>