<svg viewBox="0 0 256 256" xmlns="http://www.w3.org/2000/svg">
  <path transform="scale(1, -1) translate(0, -256)" fill="currentColor" d="M221 40h-35q2 4 2 11v5h13q3 0 5 2t2 5t-2 5t-5 2h-13v12q0 5 3.5 9.5t8 4.5t7 -3t5.5 -3t5 2t2.5 5t-1.5 5q-8 8 -18.5 8t-17.5 -8.5t-7 -19.5v-12h-3q-3 0 -5 -2t-2 -5t2 -5t5 -2h3v-5q0 -5 -2.5 -8t-6.5 -3h-4q-3 0 -5 -2.5t-2 -5.5t2 -5t5 -2h60q3 0 5 2t2 5 t-2.5 5.5t-5.5 2.5zM221 230h-186q-12 0 -21 -8t-9 -20v-116q0 -11 9 -19.5t21 -8.5h93q3 0 5 2.5t2 5.5t-2 5t-5 2h-93q-6 0 -11 4t-5 10v53h218v-32q0 -3 2 -5t5 -2t5.5 2t2.5 5v94q-1 12 -10 20t-21 8zM35 216h186q6 0 11 -4t5 -10v-14h-218v14q0 6 5 10t11 4zM19 154v20 h218v-20h-218z" />
</svg>