<svg viewBox="0 0 1024 1024" xmlns="http://www.w3.org/2000/svg">
  <path transform="scale(1, -1) translate(0, -960)" fill="currentColor" d="M701 701q-6 3 -12.5 1t-10.5 -8q-3 -6 -1 -12t8 -10q43 -23 77 -57q35 -34 59 -74.5t37 -87.5q12 -46 12 -95q0 -74 -28 -139q-28 -66 -76.5 -114.5t-113.5 -76.5q-66 -28 -140 -28t-140 28q-65 28 -113.5 76.5t-76.5 114.5q-28 65 -28 139q0 48 12 94q13 46 36 86.5 t57 74.5q33 33 75 57q6 4 7.5 10.5t-0.5 12.5q-4 6 -10.5 7.5t-12.5 -1.5q-45 -26 -82 -63q-36 -37 -61.5 -81.5t-39.5 -94.5q-13 -49 -13 -102q0 -81 30 -152q31 -71 84 -124t124 -83q71 -31 152 -31t152 31q71 30 124 83t84 124q30 71 30 152q0 54 -14 104 q-13 51 -39.5 95.5t-63.5 80.5q-37 37 -84 63v0zM507 501q7 0 11.5 4.5t4.5 11.5v395q0 7 -4.5 11.5t-11.5 4.5t-11.5 -4.5t-4.5 -11.5v-395q0 -7 4.5 -11.5t11.5 -4.5v0z" />
</svg>