<svg viewBox="0 0 256 256" xmlns="http://www.w3.org/2000/svg">
  <path transform="scale(1, -1) translate(0, -256)" fill="currentColor" d="M151 163q-6 4 -8.5 8t-2.5 12q0 3 -2 5t-5 2h-10q-3 0 -5 -2t-2 -5q0 -8 -2.5 -12t-9.5 -8v0q-8 -5 -12 -10q-6 -8 -6 -19q0 -8 4 -15q-4 -7 -4 -15v-14q0 -9 7 -16t16 -7h37q10 0 16.5 7t6.5 16v14q0 8 -4 15q4 7 4 15q0 11 -6 19q-3 5 -11 10h-1zM151 114q5 -4 5 -10 v-14q0 -4 -3 -6.5t-7 -2.5h-36q-4 0 -7 2.5t-3 6.5v14q0 6 5 10q2 1 2 4.5t-2 5.5q-5 4 -5 10t3 10t9 8h1q6 4 9 7q4 4 6 10q2 -6 7 -11l9 -6t9 -8t3 -10t-5 -10q-2 -2 -2 -5.5t2 -4.5zM200 251q-3 0 -5.5 -2t-2.5 -5v-16h-33v16q0 3 -2 5t-5 2t-5 -2t-2 -5v-16h-34v16 q0 3 -2 5t-5 2t-5 -2t-2 -5v-16h-33v16q0 3 -2.5 5t-5.5 2t-4.5 -2t-1.5 -5v-232q0 -3 2 -5t5 -2t5 2t2 5v17h34v-17q0 -3 2 -5t5 -2t5 2t2 5v17h34v-17q0 -3 2 -5t5 -2t5 2t2 5v17h34v-17q0 -3 2 -5t5 -2t5 2t2 5v232q-3 7 -8 7zM64 214h128v-171h-128v171z" />
</svg>