<svg viewBox="0 0 1024 1024" xmlns="http://www.w3.org/2000/svg">
  <path transform="scale(1, -1) translate(0, -960)" fill="currentColor" d="M598 579q-22 16 -36.5 31.5t-14.5 56.5q0 7 -4.5 11.5t-11.5 4.5h-40q-7 0 -11.5 -4.5t-4.5 -11.5q0 -41 -14 -57t-37 -31q-22 -14 -44.5 -37.5t-22.5 -71.5q0 -16 5.5 -31.5t15.5 -27.5q-10 -12 -15.5 -27t-5.5 -32v-54q0 -34 23.5 -57t56.5 -23h147q34 0 57 23.5 t23 56.5v54q0 17 -5.5 32t-15.5 27q10 12 15.5 27.5t5.5 31.5q1 48 -21.5 71.5t-44.5 37.5v0zM613 400q9 -8 15 -21t6 -27v-54q0 -21 -14.5 -34.5t-33.5 -13.5h-148q-20 0 -34 14t-14 34v54q0 13 6 25.5t15 22.5q3 2 4 5.5t1 7.5q0 3 -1 6.5t-4 6.5q-9 8 -15 20.5t-6 25.5 q0 35 16.5 51.5t36.5 30.5q22 14 41.5 34t22.5 65h8q4 -45 23.5 -65t40.5 -34t37 -30.5t16 -51.5q0 -13 -5.5 -25.5t-15.5 -20.5q-1 -4 -2 -7.5t-1 -7.5q0 -3 1 -6.5t4 -4.5v0zM798 928q-7 0 -11.5 -4.5t-4.5 -11.5v-75h-158v75q0 7 -4.5 11.5t-11.5 4.5t-11.5 -4.5 t-4.5 -11.5v-75h-160v75q0 7 -4.5 11.5t-11.5 4.5t-11.5 -4.5t-4.5 -11.5v-75h-158v75q0 7 -4.5 11.5t-11.5 4.5q-8 0 -12 -4.5t-4 -11.5v-832v-1.5v-1.5v-1.5v-1.5v-90q0 -7 4 -11.5t12 -4.5q7 0 11.5 4.5t4.5 11.5v80h158v-80q0 -7 4.5 -11.5t11.5 -4.5t11.5 4.5t4.5 11.5 v80h160v-80q0 -7 4.5 -11.5t11.5 -4.5t11.5 4.5t4.5 11.5v80h158v-80q0 -7 4.5 -11.5t11.5 -4.5q8 0 12 4.5t4 11.5v91v1.5v1.5v2v2v830q0 7 -5 11.5t-11 4.5zM242 805h539v-709h-539v709v0z" />
</svg>