<svg viewBox="0 0 1024 1024" xmlns="http://www.w3.org/2000/svg">
  <path transform="scale(1, -1) translate(0, -960)" fill="currentColor" d="M928 866h-832q-26 0 -45 -19t-19 -45v-109q0 -7 4.5 -11.5t11.5 -4.5h24v-360q0 -27 19 -45.5t45 -18.5h360v-123l-86 -72q-5 -5 -6 -11.5t4 -11.5t11.5 -5.5t10.5 4.5l82 67l82 -67q2 -3 4.5 -3.5t4.5 -0.5q4 0 7.5 1.5t5.5 5.5q5 5 4 12t-6 10l-86 72v123h360 q26 0 45 19t19 45v359h24q7 0 11.5 4.5t4.5 11.5v109q0 26 -19 45t-45 19v0zM920 317q0 -13 -9.5 -22.5t-22.5 -9.5h-752q-13 0 -22.5 9.5t-9.5 22.5v360h816v-360zM960 709h-24v0v0h-848v0v0h-24v93q0 13 9.5 22.5t22.5 9.5h832q13 0 22.5 -9.5t9.5 -22.5v-93z" />
</svg>