<svg viewBox="0 0 256 256" xmlns="http://www.w3.org/2000/svg">
  <path transform="scale(1, -1) translate(0, -256)" fill="currentColor" d="M232 235h-208q-8 0 -13.5 -5.5t-5.5 -13.5v-27q0 -3 2 -5t5 -2h3v-87q0 -8 5.5 -13.5t13.5 -5.5h87v-27l-20 -17q-2 -1 -2.5 -4t1.5 -5.5t5 -2.5t5 2l18 15l19 -15q1 -2 4.5 -2t5 2t1.5 5t-2 5l-21 17v27h87q8 0 13.5 5.5t5.5 13.5v87h3q3 0 5 2.5t2 5.5v26 q0 8 -5.5 13.5t-13.5 5.5zM19 216q0 2 1.5 4t3.5 2h208q2 0 4 -2t2 -4v-20h-219v20zM227 95q0 -2 -1.5 -3.5t-3.5 -1.5h-188q-3 0 -4.5 1.5t-1.5 3.5v87h198v-87h1z" />
</svg>