<svg viewBox="0 0 1024 1024" xmlns="http://www.w3.org/2000/svg">
  <path transform="scale(1, -1) translate(0, -960)" fill="currentColor" d="M512 562q-50 0 -91 -16q-41 -15 -71 -34t-47 -35l-18 -18q-4 -3 -4 -8.5t2 -8.5q1 -4 51 -55t180 -51q122 0 174.5 51t53.5 55q3 4 2.5 9t-3.5 8t-61.5 53t-167.5 50zM512 366q-92 0 -137 31t-58 48q18 17 70 50t125 33q79 0 128.5 -32.5t66.5 -49.5q-14 -16 -60.5 -48 t-134.5 -32zM978 328l-100 54q-3 3 -4.5 6.5t-1.5 6.5q2 15 3.5 29t1.5 29t-1.5 29.5t-3.5 27.5q0 4 0.5 8t4.5 5l101 56q8 5 11 15t0 20l-95 160q-4 9 -14 12t-21 0l-104 -58q-2 -1 -5.5 -1t-5.5 1q-6 5 -11 9t-10 9q-13 12 -26 21.5t-30 18.5q-7 3 -10.5 9t-3.5 15v60 q0 24 -17 41t-41 17h-166q-24 0 -41 -17t-17 -41v-64q0 -7 -4 -13.5t-10 -10.5q-17 -8 -30 -18.5t-28 -22.5q-5 -4 -9 -7.5t-10 -8.5q-2 -1 -5 -2t-6 0l-95 53q-21 12 -31.5 4.5t-11.5 -10.5l-91 -157q-2 -5 -3 -10.5t0 -10.5t4.5 -9.5t8.5 -6.5l99 -54q3 -3 4.5 -6.5 t1.5 -6.5q-2 -13 -3.5 -27.5t-1.5 -30.5q0 -14 1 -28.5t3 -28.5v0q0 -4 -1.5 -7.5t-5.5 -5.5l-101 -56q-8 -5 -11 -15t0 -20l95 -160q4 -9 14 -12t21 0l104 58q2 1 5.5 1t5.5 -1q5 -5 9.5 -8.5t9.5 -7.5q15 -12 28 -22t30 -18q7 -4 10.5 -10t3.5 -14v-70q0 -24 17 -41 t41 -17h168q24 0 40.5 17t16.5 41v73q0 7 4.5 14t10.5 10q17 9 30 18.5t26 21.5q5 4 9.5 8.5t9.5 7.5q2 1 5 2t6 0l95 -53q21 -12 31.5 -4.5t11.5 10.5l93 157q2 5 3 10t0 11q0 5 -3.5 9.5t-7.5 6.5zM869 154q-1 0 -1.5 0.5t-1.5 0.5l-95 53q-11 6 -24 5t-22 -8 q-6 -5 -11 -9t-10 -9q-13 -11 -24 -19.5t-26 -15.5q-14 -7 -23.5 -21.5t-9.5 -31.5v-73q0 -11 -7.5 -18.5t-18.5 -7.5h-166q-11 0 -18.5 7.5t-7.5 18.5v70q0 17 -9 31.5t-24 21.5t-26.5 15.5t-25.5 19.5q-4 4 -9 8.5t-11 9.5q-6 4 -12.5 6.5t-13.5 2.5q-5 0 -10.5 -1 t-10.5 -4l-97 -54l-88 149l96 54q12 6 17.5 18.5t4.5 26.5q-1 13 -2 26.5t-1 26.5q0 14 1 27.5t2 25.5q2 14 -3.5 27t-18.5 19l-95 53l87 149q1 0 1.5 -1t1.5 -1l94 -53q11 -6 24 -4.5t23 9.5q4 5 9 8.5t10 7.5q13 11 25 20.5t26 16.5q16 7 25 21.5t9 31.5v64q0 10 7 17.5 t18 7.5h168q11 0 18.5 -7.5t7.5 -17.5v-63q0 -17 9 -31t24 -22q15 -7 26 -15.5t24 -19.5q5 -5 10.5 -9t10.5 -8q9 -9 22 -9.5t24 5.5l98 55l88 -149l-96 -53q-12 -7 -18.5 -19.5t-2.5 -26.5q2 -12 2.5 -25.5t0.5 -27.5q0 -13 -1 -26.5t-4 -26.5q-2 -14 4.5 -26.5t18.5 -19.5 l94 -51zM546 448q0 -14 -10 -24t-24 -10t-24 10t-10 24t10 24t24 10t24 -10t10 -24z" />
</svg>