<svg viewBox="0 0 1024 1024" xmlns="http://www.w3.org/2000/svg">
  <path transform="scale(1, -1) translate(0, -960)" fill="currentColor" d="M955 882q-15 8 -32.5 7t-32.5 -11l-596 -403v389q0 26 -18.5 45t-45.5 19h-129q-27 0 -45.5 -19t-18.5 -45v-832q0 -26 18.5 -45t45.5 -19h131q26 0 45 19t19 45v389l595 -403q9 -6 17.5 -9t17.5 -3q8 0 15.5 2.5t13.5 5.5q16 9 25 23.5t9 32.5v756q-1 18 -10 32.5 t-24 23.5v0zM262 32q0 -13 -9 -22.5t-23 -9.5h-129q-13 0 -22.5 9.5t-9.5 22.5v832q0 13 9.5 22.5t22.5 9.5h131q13 0 22.5 -9.5t9.5 -22.5v-832h-2zM955 70q0 -8 -4.5 -15.5t-11.5 -11.5q-7 -3 -16 -3t-16 5l-597 403l597 403q7 5 16 5t16 -3q7 -4 11.5 -11.5t4.5 -15.5 v-756z" />
</svg>