<svg viewBox="0 0 256 256" xmlns="http://www.w3.org/2000/svg">
  <path transform="scale(1, -1) translate(0, -256)" fill="currentColor" d="M240 239q-5 3 -10 2.5t-9 -3.5l-144 -98v92q0 8 -5.5 13.5t-13.5 5.5h-33q-8 0 -13.5 -5.5t-5.5 -13.5v-208q0 -8 5.5 -13.5t13.5 -5.5h33q8 0 13.5 5.5t5.5 13.5v92l144 -98q5 -3 10 -3t9.5 2t7 6.5t2.5 9.5v189q0 6 -2.5 10.5t-7.5 6.5zM63 24q0 -2 -1.5 -3.5 t-3.5 -1.5h-33q-2 0 -3.5 1.5t-1.5 3.5v208q0 2 1.5 3.5t3.5 1.5h33q2 0 3.5 -1.5t1.5 -3.5v-208zM236 34q0 -3 -2.5 -4.5t-4.5 0.5l-146 98l145 98q3 2 5.5 1t2.5 -4v-189z" />
</svg>