<svg viewBox="0 0 256 256" xmlns="http://www.w3.org/2000/svg">
  <path transform="scale(1, -1) translate(0, -256)" fill="currentColor" d="M124 95h21q3 0 5 2t2 5t-2 5.5t-5 2.5h-6v2q0 3 -2 5.5t-5 2.5t-5.5 -2.5t-2.5 -5.5v-2h-1q-7 0 -12.5 -5.5t-5.5 -13.5t5.5 -13t12.5 -5h10q2 0 3 -1.5t1 -3.5q0 -4 -3 -4h-22q-3 0 -5 -2t-2 -5t2 -5t5 -2h13v-3q0 -3 2 -5t5 -2t5 2t2 5v3q6 2 9.5 7t3.5 11.5t-5.5 12 t-12.5 5.5h-10q-2 0 -3 1.5t-1 3t1 3t3 1.5zM183 152l-42 33q-6 5 -13.5 5t-13.5 -5q-3 9 -3 18q0 15 5.5 24.5t11 9.5t10 -5.5t6.5 -13.5q1 -3 3.5 -4.5t5 -1t4 3t1.5 5.5q-4 14 -12 22t-18 8q-13 0 -22 -14t-9 -34q0 -14 5 -27l-30 -23q-8 -7 -8 -17v-104q0 -11 8 -19 t19 -8h73q12 0 19.5 8t7.5 19v103q0 5 -2 9.5t-6 7.5zM178 32q0 -5 -4 -9t-9 -4h-74q-5 0 -9 4t-4 9v103q0 4 3 6l29 23q9 -9 18 -9q3 0 5.5 2t2.5 5t-2.5 5t-6 2t-6.5 4l1 1q3 2 5.5 2t4.5 -2l42 -32q3 -3 3 -6v-104h1z" />
</svg>