<svg viewBox="0 0 256 256" xmlns="http://www.w3.org/2000/svg">
  <path transform="scale(1, -1) translate(0, -256)" fill="currentColor" d="M124 95h21q3 0 5 2t2 5t-2 5.5t-5 2.5h-6v2q0 3 -2 5.5t-5 2.5t-5.5 -2.5t-2.5 -5.5v-2h-1q-7 0 -12.5 -5.5t-5.5 -13.5t5.5 -13t12.5 -5h10q2 0 3 -1.5t1 -3.5q0 -4 -3 -4h-22q-3 0 -5 -2t-2 -5t2 -5t5 -2h13v-3q0 -3 2 -5t5 -2t5 2t2 5v3q6 2 9.5 7t3.5 11.5t-5.5 12 t-12.5 5.5h-10q-2 0 -3 1.5t-1 3t1 3t3 1.5zM164 194h-52q-1 6 -1 9q0 15 5.5 24.5t11 9.5t10 -5.5t6.5 -13.5q1 -3 3.5 -4.5t5 -1t4 3t1.5 5.5q-4 14 -12 22t-18 8q-13 0 -22 -14t-9 -34l1 -9h-7q-11 0 -19 -8t-8 -19v-135q0 -11 8 -19t19 -8h73q12 0 20 8t8 19v135 q0 11 -8 19t-20 8zM178 32q0 -5 -4 -9t-10 -4h-72q-6 0 -10 4t-4 9v135q0 6 4 9.5t10 3.5h9q4 -11 11.5 -17.5t16.5 -6.5q3 0 5 2t2 5t-2 5t-5.5 2t-6.5 3t-6 8h49q5 0 9 -4t4 -9v-136z" />
</svg>