<svg viewBox="0 0 1024 1024" xmlns="http://www.w3.org/2000/svg">
  <path transform="scale(1, -1) translate(0, -960)" fill="currentColor" d="M494 328h85q7 0 11.5 4.5t4.5 11.5t-4.5 11.5t-11.5 4.5h-35v22q0 8 -4.5 12t-11.5 4t-11.5 -4t-4.5 -12v-22h-16q-25 0 -43 -18t-18 -43t18 -43t43 -18h38q12 0 20.5 -8t8.5 -20t-8.5 -20.5t-20.5 -8.5h-84q-8 0 -12 -4.5t-4 -11.5t4 -11.5t12 -4.5h62v-23 q0 -7 4.5 -11.5t11.5 -4.5t11.5 4.5t4.5 11.5v24q22 4 36.5 21t14.5 40q0 25 -17.5 43t-43.5 18h-38q-12 0 -20.5 8.5t-8.5 20.5t7.5 19.5t19.5 7.5v0zM658 701h-220q-2 11 -3 23.5t-1 24.5q0 60 24 103.5t57 43.5q23 0 43.5 -24t30.5 -64q1 -6 7 -10t12 -1q6 1 10 7t1 12 q-13 52 -42 82t-63 30q-48 0 -81 -52t-33 -127q0 -12 1 -24t4 -24h-40q-40 0 -68 -28.5t-28 -67.5v-541q0 -40 28 -68t68 -28h293q39 0 67.5 28t28.5 68v541q0 39 -28.5 67.5t-67.5 28.5v0zM722 64q0 -26 -19 -45t-45 -19h-292q-26 0 -45 19t-19 45v541q0 26 19 45t45 19h47 q13 -45 40 -72t62 -27q7 0 11.5 4t4.5 12q0 7 -4.5 11.5t-11.5 4.5q-21 0 -38.5 18.5t-28.5 48.5h211q27 0 45.5 -19t18.5 -45v-541h-1z" />
</svg>