<svg viewBox="0 0 1024 1024" xmlns="http://www.w3.org/2000/svg">
  <path transform="scale(1, -1) translate(0, -960)" fill="currentColor" d="M886 717h-20v147q0 26 -19 45t-45 19h-580q-26 0 -45 -19t-19 -45v-147h-20q-27 0 -45.5 -19t-18.5 -45v-242q0 -26 18.5 -45t45.5 -19h20v-315q0 -26 19 -45t45 -19h580q26 0 45 19t19 45v315h20q27 0 45.5 19t18.5 45v242q0 26 -18.5 45t-45.5 19v0zM190 864 q0 13 9.5 22.5t22.5 9.5h580q13 0 22.5 -9.5t9.5 -22.5v-147h-644v147v0zM834 32q0 -13 -9.5 -22.5t-22.5 -9.5h-580q-13 0 -22.5 9.5t-9.5 22.5v315h644v-315zM918 411q0 -13 -9 -22.5t-23 -9.5h-748q-14 0 -23 9.5t-9 22.5v242q0 13 9 22.5t23 9.5h748q14 0 23 -9.5 t9 -22.5v-242zM387 221h248q7 0 11.5 4.5t4.5 11.5t-4.5 11.5t-11.5 4.5h-248q-7 0 -11.5 -4.5t-4.5 -11.5t5 -11.5t11 -4.5v0zM387 94h248q7 0 11.5 4.5t4.5 11.5q0 8 -4.5 12t-11.5 4h-248q-7 0 -11.5 -4t-4.5 -12q0 -7 5 -11.5t11 -4.5v0zM850 574q0 -17 -12.5 -29 t-29.5 -12t-29.5 12t-12.5 29q0 18 12.5 30t29.5 12t29.5 -12t12.5 -30z" />
</svg>