<svg viewBox="0 0 256 256" xmlns="http://www.w3.org/2000/svg">
  <path transform="scale(1, -1) translate(0, -256)" fill="currentColor" d="M222 198h-2v34q0 8 -6 13.5t-14 5.5h-144q-8 0 -14 -5.5t-6 -13.5v-34h-2q-7 0 -13 -5.5t-6 -13.5v-60q1 -8 6.5 -13.5t12.5 -5.5h2v-76q0 -8 6 -13.5t14 -5.5h144q8 0 14 5.5t6 13.5v76h2q7 0 13 5.5t6 13.5v60q-1 8 -6.5 13.5t-12.5 5.5zM50 232q0 2 2 3.5t4 1.5h144 q3 0 4.5 -1.5t1.5 -3.5v-34h-156v34zM206 24q0 -2 -1.5 -3.5t-4.5 -1.5h-144q-3 0 -4.5 1.5t-1.5 3.5v76h155v-76h1zM226 119q0 -2 -1.5 -3.5t-3.5 -1.5h-187q-2 0 -3.5 1.5t-1.5 3.5v60q0 2 1.5 3.5t3.5 1.5h188q2 0 3.5 -1.5t1.5 -3.5v-60h-1zM97 68h62q3 0 5 2.5t2 5.5 t-2 5t-5 2h-62q-3 0 -5 -2t-2 -5t2 -5.5t5 -2.5zM97 37h62q3 0 5 2t2 5t-2 5t-5 2h-62q-3 0 -5 -2t-2 -5t2 -5t5 -2zM192 160q0 -5 3 -8t7 -3t7 3t3 7.5t-3 7.5t-7 3t-7 -3t-3 -7z" />
</svg>