<svg viewBox="0 0 256 256" xmlns="http://www.w3.org/2000/svg">
  <path transform="scale(1, -1) translate(0, -256)" fill="currentColor" d="M156 179h-38q-10 0 -16 -7l-18 -18q-7 -6 -7 -16v-38q0 -9 6.5 -16t16.5 -7h56q9 0 16 7t7 16v56q0 9 -6.5 16t-16.5 7zM165 100q0 -3 -2.5 -6t-6.5 -3h-56q-3 0 -6 3t-3 6v38q0 3 3 7l18 18q3 3 7 3h37q4 0 7 -3t3 -7v-56h-1zM244 121q3 0 5 2t2 5t-2 5t-5 2h-24v41h24 q3 0 5 2t2 5t-2 5t-5 2h-24v7q0 9 -7 16t-16 7h-7v21q0 3 -2.5 5t-5.5 2t-5 -2t-2 -5v-21h-40v21q0 3 -2 5t-5 2t-5 -2t-2 -5v-21h-41v21q0 3 -2 5t-5 2t-5 -2t-2 -5v-21h-7q-10 0 -16.5 -7t-6.5 -16v-7h-24q-3 0 -5 -2.5t-2 -5.5t2 -4.5t5 -1.5h24v-41h-24q-3 0 -5 -2 t-2 -5t2 -5t5 -2h24v-41h-24q-3 0 -5 -2t-2 -5t2 -5t5 -2h24v-7q0 -9 7 -16t16 -7h7v-21q0 -3 2.5 -5t5.5 -2t5 2t2 5v21h41v-21q0 -3 2 -5t5 -2t5 2t2 5v21h41v-21q0 -3 2 -5t5 -2t5 2t2 5v21h7q10 0 17 7t7 16v7h24q3 0 5 2.5t2 5t-3 4.5t-6 2h-24v41h24zM206 59 q0 -4 -3 -6.5t-6 -2.5h-138q-4 0 -6.5 3t-2.5 6v138q0 4 3 6.5t6 2.5h138q4 0 6.5 -3t2.5 -6v-138z" />
</svg>