<svg viewBox="0 0 1024 1024" xmlns="http://www.w3.org/2000/svg">
  <path transform="scale(1, -1) translate(0, -960)" fill="currentColor" d="M622 640h-150q-17 0 -31.5 -6t-26.5 -18l-70 -72q-12 -12 -18 -26.5t-6 -31.5v-150q0 -34 24 -58t58 -24h222q34 0 58 24t24 58v222q-2 34 -25.5 58t-58.5 24zM672 338q0 -21 -14.5 -35.5t-35.5 -14.5h-220q-21 0 -35.5 14.5t-14.5 35.5v150q0 10 3.5 19t10.5 16l72 72 q8 7 17 11t19 4h150q20 0 35 -15t15 -35v-222h-2zM976 432q7 0 11.5 4.5t4.5 11.5t-4.5 11.5t-11.5 4.5h-107v187h107q7 0 11.5 4.5t4.5 11.5t-4.5 11.5t-11.5 4.5h-107v40q0 34 -24 58t-58 24h-40v96q0 7 -4.5 11.5t-11.5 4.5t-11.5 -4.5t-4.5 -11.5v-96h-187v96 q0 7 -4.5 11.5t-11.5 4.5t-11.5 -4.5t-4.5 -11.5v-96h-187v96q0 7 -4.5 11.5t-11.5 4.5t-11.5 -4.5t-4.5 -11.5v-96h-40q-34 0 -58 -24t-24 -58v-40h-107q-7 0 -11.5 -4.5t-4.5 -11.5t4.5 -11.5t11.5 -4.5h107v-187h-107q-7 0 -11.5 -4.5t-4.5 -11.5t4.5 -11.5t11.5 -4.5 h107v-187h-107q-7 0 -11.5 -4.5t-4.5 -11.5t4.5 -11.5t11.5 -4.5h107v-40q0 -34 24 -58t58 -24h40v-96q0 -7 4.5 -11.5t11.5 -4.5t11.5 4.5t4.5 11.5v96h187v-96q0 -7 4.5 -11.5t11.5 -4.5t11.5 4.5t4.5 11.5v96h187v-96q0 -7 4.5 -11.5t11.5 -4.5t11.5 4.5t4.5 11.5v96h40 q34 0 58 24t24 58v40h107q7 0 11.5 4.5t4.5 11.5t-4.5 11.5t-11.5 4.5h-107v187h107v0zM837 173q0 -21 -14.5 -35.5t-35.5 -14.5h-550q-21 0 -35.5 14.5t-14.5 35.5v550q0 21 14.5 35.5t35.5 14.5h550q21 0 35.5 -14.5t14.5 -35.5v-550z" />
</svg>