<svg viewBox="0 0 1024 1024" xmlns="http://www.w3.org/2000/svg">
  <path transform="scale(1, -1) translate(0, -960)" fill="currentColor" d="M578 597v0h-143v-149h143q30 0 52.5 22t22.5 52q1 32 -22 53.5t-53 21.5zM512 944q-103 0 -194 -39q-90 -39 -157 -106t-106 -157q-39 -91 -39 -194t39 -194q39 -90 106 -157t157 -106q91 -39 194 -39t194 39q90 39 157 106t106 157q39 91 39 194t-39 194 q-39 90 -106 157t-157 106q-91 39 -194 39zM578 349v0h-143v-149h-99v496h242q73 0 123.5 -50.5t50.5 -123.5q1 -72 -50.5 -122.5t-123.5 -50.5z" />
</svg>