<svg viewBox="0 0 256 256" xmlns="http://www.w3.org/2000/svg">
  <path transform="scale(1, -1) translate(0, -256)" fill="currentColor" d="M136 167h-33q-3 0 -5 -2t-2 -5t2 -5t5 -2h23v-8q0 -3 2 -5t5 -2t5 2t2 5v8q9 2 14.5 8.5t5.5 16t-7 16.5t-17 7h-15q-4 0 -7 3t-3 7.5t3 7.5t7 3h33q3 0 5 2t2 5t-2 5t-5 2h-14v8q0 3 -2 5t-5 2t-5 -2t-2 -5v-8h-5q-10 0 -17.5 -7t-7.5 -17t7.5 -17t17.5 -7h15q4 0 7 -3 t3 -7.5t-3 -7.5t-7 -3zM219 19h-84v71l23 -22q2 -2 4.5 -2t4.5 2t2 5t-2 5l-34 34q-2 2 -5 2.5t-5 -2.5l-35 -34q-2 -2 -2 -5t2.5 -5t5 -2t4.5 2l23 22v-71h-84q-3 0 -5 -2t-2 -5t2 -5.5t5 -2.5h182q3 0 5 2.5t2 5.5t-2 5t-5 2z" />
</svg>