<svg viewBox="0 0 256 256" xmlns="http://www.w3.org/2000/svg">
  <path transform="scale(1, -1) translate(0, -256)" fill="currentColor" d="M52 95h-10q-11 0 -19 -7.5t-8 -19.5v-36q0 -11 8 -19t19 -8h10q11 0 19 8t8 19v36q0 11 -8 19t-19 8zM42 81h10q5 0 9 -3.5t4 -9.5v-11h-36v11q0 5 4 9t9 4zM52 19h-10q-5 0 -9 3.5t-4 9.5v11h36v-11q0 -5 -4 -9t-9 -4zM133 121h-10q-11 0 -19 -7.5t-8 -19.5v-62 q0 -11 8 -19t19 -8h10q11 0 19 8t8 19v62q0 11 -8 19t-19 8zM110 73h36v-16h-36v16zM123 107h10q6 0 9.5 -3.5t3.5 -9.5v-7h-36v7q0 6 4 9.5t9 3.5zM133 19h-10q-6 0 -9.5 3.5t-3.5 9.5v11h36v-11q0 -5 -4 -9t-9 -4zM214 163h-10q-11 0 -19 -8t-8 -19v-104q0 -11 8 -19 t19 -8h10q11 0 19 8t8 19v104q0 12 -8 19.5t-19 7.5zM191 112h36v-18h-36v18zM191 80h36v-18h-36v18zM204 149h10q5 0 9 -3.5t4 -9.5v-9h-36v9q0 6 4 9.5t9 3.5zM214 19h-10q-5 0 -9 3.5t-4 9.5v16h36v-16q0 -6 -4 -9.5t-9 -3.5zM214 200h-20q-3 0 -5 -2t-2 -5t2 -5t5 -2h11 v-2q0 -3 2 -5t5 -2t5.5 2t2.5 5v3q5 1 8.5 5.5t3.5 10.5v1q0 7 -5 12t-12 5h-11q-3 0 -3 3v1q0 1 1 2t2 1h20q3 0 5 2t2 5t-2 5t-5 2h-5v2q0 3 -2 5t-5 2t-5 -2t-2 -5v-2h-1q-7 0 -12 -5t-5 -12v-1q0 -7 5 -12t12 -5h10q3 0 3 -3v0q0 -2 -1 -3t-2 -1z" />
</svg>