<svg viewBox="0 0 1024 1024" xmlns="http://www.w3.org/2000/svg">
  <path transform="scale(1, -1) translate(0, -960)" fill="currentColor" d="M208 304h-40q-40 0 -68 -28t-28 -68v-144q0 -40 28 -68t68 -28h40q40 0 68 28t28 68v144q0 40 -28 68t-68 28zM168 272h40q26 0 45 -19t19 -45v-56h-166v56q0 26 18 45t44 19zM208 0h-40q-26 0 -45 19t-19 45v56h168v-56q0 -26 -19 -45t-45 -19zM531 408h-40 q-39 0 -67.5 -28t-28.5 -68v-248q0 -40 28.5 -68t67.5 -28h40q40 0 68 28t28 68v250q0 39 -28 66.5t-68 27.5zM429 240h166v-88h-166v88v0zM493 376h40q26 0 45 -19t19 -45v-40h-168v42q0 26 18.5 44t45.5 18v0zM531 0h-40q-26 0 -45 19t-19 45v56h167v-56q1 -26 -17.5 -45 t-45.5 -19zM856 576h-40q-40 0 -68 -28t-28 -68v-416q0 -40 28 -68t68 -28h40q40 0 68 28t28 68v418q-1 39 -28.5 66.5t-67.5 27.5zM752 398h166v-97h-166v97zM752 269h166v-98h-166v98zM816 544h40q26 0 45 -19t19 -45v-51h-168v51q0 26 19 45t45 19zM856 0h-40 q-26 0 -45 19t-19 45v77h166v-77q0 -26 -18 -45t-44 -19zM856 725h-80q-7 0 -11.5 -4.5t-4.5 -11.5t4.5 -11.5t11.5 -4.5h56v-21q0 -7 4.5 -11.5t11.5 -4.5t11.5 4.5t4.5 11.5v21q20 2 34 18t14 38v3q0 23 -16.5 39.5t-39.5 16.5h-40q-10 0 -17 7t-7 17v5q0 9 7 16.5t17 7.5 h80q7 0 11.5 4.5t4.5 11.5t-4.5 11.5t-11.5 4.5h-32v19q0 7 -4.5 11.5t-11.5 4.5t-11.5 -4.5t-4.5 -11.5v-19h-16q-23 0 -39.5 -16.5t-16.5 -39.5v-5q0 -23 16.5 -39.5t39.5 -16.5h40q10 0 17 -7t7 -17v-3q0 -11 -7 -17.5t-17 -6.5z" />
</svg>