<svg viewBox="0 0 1024 1024" xmlns="http://www.w3.org/2000/svg">
  <path transform="scale(1, -1) translate(0, -960)" fill="currentColor" d="M542 594h-129q-7 0 -11.5 -4.5t-4.5 -11.5q0 -8 4.5 -12t11.5 -4h102v-44q0 -7 4.5 -11.5t11.5 -4.5t11.5 4.5t4.5 11.5v44q34 2 57 26.5t23 57.5q0 35 -25 60t-60 25h-59q-21 0 -37 15.5t-16 37.5t16 37.5t37 15.5h130q7 0 11.5 4.5t4.5 11.5t-4.5 11.5t-11.5 4.5h-64 v43q0 7 -4.5 11.5t-11.5 4.5t-11.5 -4.5t-4.5 -11.5v-43h-34q-35 0 -60 -25t-25 -60t25 -60t60 -25h59q22 0 37.5 -15.5t15.5 -37.5q0 -21 -15.5 -36.5t-37.5 -15.5zM877 0h-349v326l110 -110q3 -2 6 -3.5t6 -1.5q2 0 5 1.5t6 3.5q5 5 5 11.5t-5 10.5l-138 138q-5 5 -11 5 t-11 -5l-138 -138q-5 -4 -5 -10.5t5 -11.5t11.5 -5t11.5 5l110 110v-326h-349q-7 0 -11.5 -4.5t-4.5 -11.5t4.5 -11.5t11.5 -4.5h728q7 0 11.5 4.5t4.5 11.5t-4 11.5t-10 4.5v0z" />
</svg>