<svg viewBox="0 0 256 256" xmlns="http://www.w3.org/2000/svg">
  <path transform="scale(1, -1) translate(0, -256)" fill="currentColor" d="M71 72q14 0 24 10t10 24t-10 24t-24 10t-24 -10t-10 -24t10 -24t24 -10zM71 126q8 0 14 -6t6 -14t-5.5 -14t-14 -6t-14.5 6t-6 14t6 14t14 6zM71 65q-17 0 -33.5 -6t-29.5 -17q-3 -2 -3 -5t2 -5.5t4.5 -2.5t5.5 2q11 9 25 14.5t29 5.5t29.5 -5.5t25.5 -14.5q1 -2 4 -2 t5 2.5t2 5t-3 5.5q-13 11 -29 17t-34 6zM146 215q1 2 1 5t-2 5t-5 2t-5 -2l-28 -32q-6 -6 -5.5 -15t5.5 -15l28 -31q2 -3 5 -3t5 2t2.5 4.5t-1.5 5.5l-28 31q-2 3 -2.5 6.5t2.5 5.5zM245 193l-28 31q-2 3 -4.5 3t-5 -2t-2.5 -5t2 -5l28 -32q2 -2 2 -5.5t-2 -5.5l-28 -32 q-2 -2 -2 -5t2 -5t5 -2t5 3l28 31q6 7 6 16t-6 15zM192 224q-3 1 -5.5 0t-3.5 -4l-27 -80q-1 -2 0.5 -4.5t3.5 -3.5l3 -1q2 0 4 1.5t3 3.5l26 80q1 2 -0.5 4.5t-3.5 3.5z" />
</svg>