<svg viewBox="0 0 1024 1024" xmlns="http://www.w3.org/2000/svg">
  <path transform="scale(1, -1) translate(0, -960)" fill="currentColor" d="M866 834l-338 92q-8 2 -16 2t-16 -2l-338 -92q-19 -5 -31 -21t-12 -35v-247q0 -93 27 -179q26 -86 75 -159t118 -129q69 -57 155 -91q4 -3 10 -4t12 -1t11 1t11 4q86 34 155 91t118 130t75 159q27 87 27 180v245q-1 19 -13 35t-30 21v0zM875 533q0 -87 -25 -169 q-26 -82 -72.5 -151.5t-111.5 -123.5t-144 -86q-5 -2 -10.5 -2t-10.5 2q-81 33 -146 86q-65 54 -110.5 122.5t-70.5 150.5q-25 81 -25 169v247q0 8 5.5 15.5t13.5 9.5l338 93h3h3h3t3 -2l338 -92q8 -3 13.5 -10.5t5.5 -15.5v-243v0zM712 587l-242 -203l-116 98q-5 4 -12 3.5 t-11 -5.5q-5 -5 -4 -12t6 -10l126 -106q3 -2 5 -2.5t5 -0.5q2 0 5 1t4 2l253 213q5 5 6 11t-4 11q-3 4 -9 4.5t-12 -4.5v0z" />
</svg>