<svg viewBox="0 0 256 256" xmlns="http://www.w3.org/2000/svg">
  <path transform="scale(1, -1) translate(0, -256)" fill="currentColor" d="M217 227l-84 23q-5 2 -9 0l-85 -23q-6 -1 -9.5 -6t-3.5 -11v-62q0 -47 26 -86t69 -56q3 -1 6.5 -1t7.5 1q43 18 69 56.5t26 86.5v61q0 6 -3.5 11t-9.5 6zM216 149q0 -42 -24 -78t-62 -51q-2 -1 -3 0q-40 15 -63.5 50.5t-23.5 78.5v61q0 3 3 4l84 23h2l84 -23q3 -1 3 -4 v-61zM176 165l-58 -49l-28 23q-2 2 -4.5 1.5t-5 -2.5t-2 -5t2.5 -5l32 -26q1 -2 4 -2t5 2l63 53q2 2 2 4.5t-1.5 5t-4.5 2.5t-5 -2z" />
</svg>