<svg viewBox="0 0 256 256" xmlns="http://www.w3.org/2000/svg">
  <path transform="scale(1, -1) translate(0, -256)" fill="currentColor" d="M239 70l-62 62q21 4 37 19q20 20 20 48t-20 48q-4 4 -10 4t-10 -4l-66 -66l-66 66q-4 4 -10 4t-10 -4q-13 -13 -17.5 -30.5t0 -35t17.5 -30.5q16 -16 38 -19l-63 -62q-7 -7 -7 -17.5t7 -17.5l23 -23q7 -7 17.5 -7t17.5 7l53 54l53 -54q7 -7 17.5 -7t18.5 7l22 23 q7 7 7 17.5t-7 17.5zM204 237q8 -8 12 -17.5t4 -20.5t-4 -21t-12 -17q-14 -15 -34 -16q-3 6 -8 11q-10 10 -25 13zM105 100q-10 10 -10 23.5t9.5 23t23.5 9.5t23.5 -9.5t9.5 -23t-9.5 -23t-23.5 -10t-23 9.5zM52 237l68 -68q-14 -2 -25 -13q-5 -4 -8 -11q-20 1 -35 16 q-10 10 -13.5 24t0 28t13.5 24zM65 22q-3 -3 -7.5 -3t-7.5 3l-23 23q-3 3 -3 7.5t3 8.5l55 55q2 -15 12.5 -25.5t25.5 -13.5zM229 44l-23 -22q-3 -3 -7.5 -3t-7.5 3l-55 55q15 2 25.5 12.5t13.5 25.5l55 -55q2 -3 2 -7.5t-3 -8.5z" />
</svg>