<svg viewBox="0 0 1024 1024" xmlns="http://www.w3.org/2000/svg">
  <path transform="scale(1, -1) translate(0, -960)" fill="currentColor" d="M947 208l-253 253q-2 2 -5 4.5t-6 3.5q0 1 -0.5 3t-0.5 3q46 4 88.5 23t75.5 52q38 38 57 84.5t19 98.5q0 51 -19 98t-57 84q-12 12 -31 12t-31 -12l-272 -272l-272 272q-12 12 -31 12t-31 -12q-38 -38 -57 -85q-19 -48 -19 -98t19 -98q19 -47 57 -85q33 -34 75.5 -53 t88.5 -22q0 -2 -0.5 -4t-0.5 -3q-4 -1 -6.5 -3t-4.5 -5l-253 -251q-12 -12 -19 -28t-7 -34t7 -34.5t19 -28.5l89 -89q14 -14 30 -20t33 -6t33 6t29 20l221 220l221 -220q26 -27 62.5 -27t62.5 27l89 89q25 25 25 62.5t-25 62.5v0zM806 893q4 3 9 3t9 -3q32 -33 49.5 -74 t17.5 -86q0 -46 -17.5 -87t-49.5 -73q-31 -31 -70.5 -48t-83.5 -18q-6 13 -14 25t-19 23q-24 24 -54.5 37t-64.5 14zM410 326q-42 42 -42 102t42 102q20 20 46.5 30.5t55.5 10.5t55.5 -10.5t46.5 -30.5q21 -21 31.5 -47.5t10.5 -55.5t-10.5 -55.5t-31.5 -46.5 q-20 -21 -46.5 -31.5t-55.5 -10.5q-29 1 -55.5 12t-46.5 31zM200 571q-33 34 -49 76q-17 41 -17 84.5t16 85.5q17 42 50 76q4 3 9 3t9 -3l288 -288q-34 -1 -64.5 -14t-54.5 -37q-11 -11 -19 -23t-14 -25q-44 1 -83.5 18t-70.5 47v0zM269 16q-17 -17 -40 -17t-40 17l-90 90 q-8 8 -12 18.5t-4 21.5q0 10 4.5 20.5t11.5 19.5l237 236q1 -32 14 -62.5t37 -55.5q24 -24 54.5 -37t64.5 -14zM925 106l-90 -90q-17 -17 -40 -17t-40 17l-237 237q34 1 64.5 14t54.5 37t37 54.5t14 63.5l237 -236q15 -17 15 -40.5t-15 -39.5v0z" />
</svg>