<svg viewBox="0 0 256 256" xmlns="http://www.w3.org/2000/svg">
  <path transform="scale(1, -1) translate(0, -256)" fill="currentColor" d="M203 218l-42 28q-8 5 -17 5h-74q-12 0 -21 -8.5t-9 -20.5v-187q0 -12 9 -20.5t21 -8.5h116q12 0 20.5 8.5t8.5 20.5v158q0 7 -3 13.5t-9 11.5zM202 35q0 -7 -5 -11.5t-11 -4.5h-116q-7 0 -11.5 4.5t-4.5 11.5v186q0 7 5 11.5t11 4.5h74q5 0 9 -3l41 -28q7 -5 7 -14v-157 h1zM108 157h-23q-3 0 -5 -2t-2 -5v-87q0 -3 2 -5t5 -2t5 2t2 5v44h16q8 0 14 6t6 14v10q-1 8 -6.5 14t-13.5 6zM113 127q0 -2 -1.5 -4t-3.5 -2h-17v21h17q2 0 4 -1.5t2 -3.5v-10h-1zM160 106h10q3 0 5.5 2t2.5 5t-2.5 5t-5.5 2h-10q-8 0 -13 -5t-5 -13v-3q0 -8 5 -13t13 -5 q1 0 2 -1t1 -2v-4q0 -2 -1 -3t-2 -1h-11q-3 0 -5 -2t-2 -5t2 -5t5 -2h11q7 0 12 5t5 13v3q0 8 -5 13t-12 5q-2 0 -3 1t-1 2v4q0 1 1 2.5t3 1.5z" />
</svg>