<svg viewBox="0 0 1024 1024" xmlns="http://www.w3.org/2000/svg">
  <path transform="scale(1, -1) translate(0, -960)" fill="currentColor" d="M987 762q-5 4 -11 4t-11 -4l-186 -186q-9 23 -23.5 44t-32.5 39t-39 32.5t-44 23.5l186 186q4 5 4 11t-4 11q-5 5 -11.5 5t-11.5 -5l-197 -197q-16 5 -34 7.5t-34 2.5q-53 0 -101 -20t-85 -57q-46 -46 -68 -114t-29 -135.5t-4 -122.5q3 -54 5 -74l-61 -61 q-14 -14 -18.5 -34.5t2.5 -40.5q7 -19 0 -38.5t-25 -30.5q-14 -8 -30.5 -8t-30.5 8q-23 14 -27.5 37t6.5 41q4 6 2 12.5t-8 10.5q-6 3 -12.5 1t-10.5 -8q-18 -32 -8.5 -67t42.5 -54q11 -6 22.5 -9.5t23.5 -3.5t24.5 3.5t23.5 9.5q28 17 38.5 47t0.5 60q-4 12 -2 23t10 19 l60 60q19 -1 74 -4q55 -2 122.5 4.5t135.5 28.5q69 21 115 67q51 52 68 121t-1 135l197 197q3 5 3 11.5t-5 11.5v0zM701 309q-40 -40 -102 -60q-61 -19 -123.5 -26t-114.5 -6q-52 2 -75 4q-1 22 -3 74q-1 53 5.5 115t26.5 124q19 61 59 101q33 33 75.5 50t88.5 17t88 -17 t75 -50t50 -76q17 -42 17 -86.5t-17 -86.5q-17 -43 -50 -77zM453 573q-39 -39 -39 -93t39 -91q19 -19 43 -29t50 -10q25 0 49 10t43 29q39 38 39 92.5t-39 91.5q-39 38 -93 38t-92 -38v0zM614 411q-28 -29 -69 -29t-70 29t-29 70t29 69q15 15 33 22t38 7q19 0 37.5 -7 t32.5 -22q28 -28 27.5 -69t-29.5 -70z" />
</svg>