<svg viewBox="0 0 1024 1024" xmlns="http://www.w3.org/2000/svg">
  <path transform="scale(1, -1) translate(0, -960)" fill="currentColor" d="M976 253h-133q-7 0 -13.5 3.5t-10.5 10.5l-67 130q-8 14 -22 21t-29 6q-16 -2 -28.5 -11.5t-18.5 -23.5l-57 -162q-4 -9 -11.5 -13t-14.5 -4t-14 4t-10 13l-145 453q-6 16 -19.5 25.5t-30.5 9.5v0v0q-17 1 -31.5 -8t-19.5 -24l-165 -373q-4 -7 -10 -11.5t-14 -4.5h-64 q-7 0 -11.5 -4t-4.5 -12q0 -7 4.5 -11.5t11.5 -4.5h64q17 0 32 10t21 26l166 374v2q1 3 6.5 7t12.5 4q8 0 13 -3.5t7 -11.5l145 -451q6 -18 20.5 -29t34.5 -11v0h1q19 0 34 10.5t21 28.5l57 160q3 6 8 10t11 4t11.5 -3t8.5 -8l67 -130q7 -14 21 -23t30 -9h136q7 0 11.5 4.5 t4.5 11.5t-4.5 12.5t-11.5 5.5v0z" />
</svg>