<svg viewBox="0 0 256 256" xmlns="http://www.w3.org/2000/svg">
  <path transform="scale(1, -1) translate(0, -256)" fill="currentColor" d="M143 58v0v0q-6 0 -10.5 3t-6.5 9l-36 112q-1 2 -2 2v0q-2 0 -2 -1l-42 -94q-2 -5 -6 -8t-10 -3h-16q-3 0 -5 2.5t-2 5.5t2 4.5t5 1.5h16q3 0 3 2l41 94q2 5 6.5 7.5t9.5 2.5t9.5 -3t5.5 -8l37 -113q1 -2 3.5 -2t2.5 2l15 41q2 4 5.5 7t8.5 3v0q10 1 15 -8l18 -33 q1 -2 3 -2h33q3 0 5 -2t2 -5t-2 -5t-5 -2h-33q-5 0 -9 2.5t-7 7.5l-17 32q0 1 -1.5 1t-2.5 -2l-14 -40q-3 -5 -7 -8t-10 -3z" />
</svg>