<svg viewBox="0 0 256 256" xmlns="http://www.w3.org/2000/svg">
  <path transform="scale(1, -1) translate(0, -256)" fill="currentColor" d="M182 195q-10 0 -20 -4q-6 5 -11 7l1 18q1 10 -6 17.5t-17 7.5h-2q-9 0 -16 -7t-7 -18l2 -18q-8 -4 -12 -7q-9 4 -20 4q-19 0 -34.5 -12t-25 -32.5t-9.5 -45.5t9.5 -45.5t25 -32.5t34.5 -12q15 0 28 7q13 -7 27 -7t26 7q12 -7 27 -7q20 0 35.5 12t25 32.5t9.5 45.5 t-9.5 45.5t-25.5 32.5t-35 12zM118 218q0 3 2.5 6t6.5 3h2q4 0 6.5 -3t2.5 -6l-2 -16l-8 1l-9 -1zM182 29q-12 0 -22 6q-6 3 -11 0q-10 -6 -21 -6t-20 6q-6 3 -12 0q-10 -6 -22 -6q-15 0 -27.5 10t-20 27.5t-7.5 38.5t7.5 38.5t20 27.5t27.5 10q8 0 17 -3q5 -3 11 2 q11 9 26 9.5t26 -9.5q6 -5 12 -2q8 3 16 3q15 0 27.5 -10t20 -27.5t7.5 -38.5t-7.5 -38.5t-20 -27.5t-27.5 -10zM154 95h-48q-9 0 -15.5 -6.5t-6.5 -15.5t6.5 -15.5t15.5 -6.5h48q9 0 15.5 6.5t6.5 15.5t-6.5 15.5t-15.5 6.5zM154 65h-48q-4 0 -6 2.5t-2 6t2 5.5t6 2h48 q3 0 5.5 -2.5t2.5 -5.5t-2.5 -5.5t-5.5 -2.5zM176 152q-1 4 -5.5 3.5t-6.5 -3.5l-10 -21q-2 -3 0 -6.5t6 -3.5h20q4 0 6 3.5t0 6.5zM102 131l-10 21q-2 4 -6.5 4t-5.5 -4l-11 -21q-2 -3 0.5 -6.5t5.5 -3.5h21q4 0 6 3.5t0 6.5z" />
</svg>