<svg viewBox="0 0 1024 1024" xmlns="http://www.w3.org/2000/svg">
  <path transform="scale(1, -1) translate(0, -960)" fill="currentColor" d="M528 717v179h117q7 0 11.5 4.5t4.5 11.5t-4.5 11.5t-11.5 4.5h-266q-7 0 -11.5 -4.5t-4.5 -11.5t4.5 -11.5t11.5 -4.5h117v-179q-16 -15 -66 -61q-49 -46 -102 -107.5t-95 -130.5q-41 -69 -41 -130q0 -66 25 -124t68.5 -101.5t102.5 -69.5q58 -25 124 -25t124 25 t101.5 68.5t69.5 102.5q25 58 25 124q0 61 -41 130q-42 69 -95 130.5t-102 107.5q-50 46 -66 61zM512 0q-59 0 -112 23q-52 22 -91.5 61.5t-61.5 91.5q-23 53 -23 112q0 53 38 115q37 63 86 120.5t97 102.5q47 45 67 62q20 -17 67 -62q48 -45 97 -102.5t86 -120.5 q38 -62 38 -115q0 -59 -23 -112q-22 -52 -61.5 -91.5t-91.5 -61.5q-53 -23 -112 -23z" />
</svg>