<svg viewBox="0 0 256 256" xmlns="http://www.w3.org/2000/svg">
  <path transform="scale(1, -1) translate(0, -256)" fill="currentColor" d="M250 55l-21 78l14 57q1 3 -1 6t-6 3h-60l-13 33q-1 3 -4 4t-5.5 0t-3.5 -3.5t0 -5.5l11 -28h-66l12 28q1 3 0 5.5t-3.5 4t-5.5 0.5t-4 -4l-14 -34h-60q-3 0 -5.5 -3t-1.5 -6l14 -57l-21 -78q-4 -13 5 -24.5t23 -11.5h188q14 0 23 11q4 6 5.5 12.5t-0.5 12.5zM172 184h55 l-11 -44h-176l-11 44h143zM234 39q-4 -5 -12 -5h-188q-8 0 -12 5.5t-2 12.5l20 74h176l20 -74q2 -7 -2 -13z" />
</svg>