<svg viewBox="0 0 1024 1024" xmlns="http://www.w3.org/2000/svg">
  <path transform="scale(1, -1) translate(0, -960)" fill="currentColor" d="M928 757h-832q-26 0 -45 -19t-19 -45v-490q0 -26 19 -45t45 -19h832q26 0 45 19t19 45v490q0 26 -19 45t-45 19v0zM96 725h832q13 0 22.5 -9.5t9.5 -22.5v-162l-432 -136v67q0 8 -4.5 12t-11.5 4t-11.5 -4t-4.5 -12v-67l-432 136v162q0 13 9.5 22.5t22.5 9.5v0zM928 171 h-832q-13 0 -22.5 9.5t-9.5 22.5v295l443 -140h2.5h2.5h2.5h2.5l443 140v-295q0 -13 -9.5 -22.5t-22.5 -9.5z" />
</svg>