<svg viewBox="0 0 1024 1024" xmlns="http://www.w3.org/2000/svg">
  <path transform="scale(1, -1) translate(0, -960)" fill="currentColor" d="M557 718q-23 20 -53 20t-53 -20l-147 -123q-5 -5 -5.5 -11t3.5 -11q5 -5 11.5 -6t11.5 4l147 123q4 4 8 6.5t8 3.5v-720q0 -7 4.5 -11.5t11.5 -4.5t11.5 4.5t4.5 11.5v720q5 -1 8.5 -3.5t7.5 -6.5l147 -123q3 -2 5 -2.5t5 -0.5t6.5 1.5t6.5 4.5q4 5 3.5 12t-5.5 11 l-147 121v0zM722 928h-420q-7 0 -11.5 -4.5t-4.5 -11.5t4.5 -11.5t11.5 -4.5h420q7 0 11.5 4.5t4.5 11.5t-5 11.5t-11 4.5z" />
</svg>