<svg viewBox="0 0 1024 1024" xmlns="http://www.w3.org/2000/svg">
  <path transform="scale(1, -1) translate(0, -960)" fill="currentColor" d="M659 658q-5 4 -11 5t-11 -4t-6 -11t4 -11l123 -147q4 -4 6.5 -8.5t3.5 -7.5h-720q-7 0 -11.5 -4.5t-4.5 -11.5q0 -8 4.5 -12t11.5 -4h718q-1 -5 -3.5 -9t-5.5 -7l-123 -148q-5 -4 -4.5 -11t5.5 -11q3 -2 5 -2.5t5 -0.5t6.5 1.5t6.5 4.5l123 147q19 23 19 53t-19 53 l-122 146v0zM976 674q-7 0 -11.5 -4.5t-4.5 -11.5v-420q0 -7 4.5 -11.5t11.5 -4.5t11.5 4.5t4.5 11.5v420q0 6 -4.5 11t-11.5 5v0z" />
</svg>