<svg viewBox="0 0 1024 1024" xmlns="http://www.w3.org/2000/svg">
  <path transform="scale(1, -1) translate(0, -960)" fill="currentColor" d="M467 178q12 -10 25.5 -15t27.5 -5t28 5t25 15l147 123q5 5 5.5 11t-3.5 11q-5 5 -11.5 6t-11.5 -4l-147 -123q-4 -4 -8 -6.5t-8 -3.5v720q0 7 -4.5 11.5t-11.5 4.5t-11.5 -4.5t-4.5 -11.5v-718q-5 1 -8.5 3.5t-7.5 5.5l-147 123q-5 5 -12 4.5t-11 -5.5t-3.5 -12t5.5 -11 l147 -124v0zM722 0h-420q-7 0 -11.5 -4.5t-4.5 -11.5t4.5 -11.5t11.5 -4.5h420q7 0 11.5 4.5t4.5 11.5t-5 11.5t-11 4.5z" />
</svg>