<svg viewBox="0 0 1024 1024" xmlns="http://www.w3.org/2000/svg">
  <path transform="scale(1, -1) translate(0, -960)" fill="currentColor" d="M974 694q-4 45 -36.5 78t-76.5 39q-18 3 -35.5 0.5t-33.5 -8.5v39q0 36 -25 61t-61 25h-396q-36 0 -61 -25t-25 -61v-500q-16 5 -32.5 6.5t-34.5 -1.5q-39 -7 -68 -35t-38 -67q-6 -30 1 -59.5t26 -52.5q20 -24 46.5 -37t57.5 -13q11 0 21.5 1.5t20.5 5.5v-37 q0 -36 25 -60.5t61 -24.5h397q36 0 61.5 25t25.5 60v57q0 4 -2.5 8t-5.5 5q-4 3 -8.5 3t-7.5 -1q-16 -7 -33.5 -9.5t-34.5 1.5q-27 6 -48 27.5t-27 49.5q-5 22 1 44t20 40t35 27.5t43 9.5q12 0 23 -2.5t21 -6.5q3 -3 7.5 -2.5t8.5 2.5q3 1 5.5 5t2.5 9v237q12 -5 24 -7.5 t25 -2.5q28 0 54 11.5t45 31.5q18 22 26.5 49t5.5 55v0zM760 344q-8 2 -17 3.5t-18 1.5q-30 0 -56.5 -12.5t-46.5 -35.5q-19 -23 -26 -52.5t-1 -59.5q7 -37 34.5 -65.5t64.5 -37.5q17 -3 33.5 -3t32.5 5v-34q0 -21 -16 -36.5t-38 -15.5h-396q-21 0 -37.5 15.5t-16.5 36.5v61 q0 5 -2 8.5t-6 6.5q-2 1 -4 1h-4h-4t-4 -1q-11 -6 -23.5 -9.5t-26.5 -3.5q-22 0 -43 10t-35 27q-14 16 -20 39t-1 45q6 29 28 50.5t52 26.5q18 4 35.5 0.5t33.5 -11.5q4 -2 8 -2t8 2t6 6t2 8v114h150q5 0 8.5 2t6.5 6q2 4 2 8t-2 8q-6 11 -9.5 23.5t-3.5 26.5q0 22 9.5 43 t27.5 35t40 20t45 1q28 -6 50 -27.5t28 -51.5q4 -19 1 -37t-12 -35q-3 -3 -3 -7.5t3 -8.5q2 -3 5.5 -5.5t8.5 -2.5h151v-86h-2zM917 613q-15 -16 -34.5 -25t-40.5 -9q-16 0 -30.5 4.5t-27.5 13.5q-4 2 -8 2.5t-8 -1.5t-6 -5.5t-2 -8.5v-120h-125q6 17 6.5 34.5t-3.5 35.5 q-8 39 -36.5 67.5t-67.5 35.5q-30 6 -58.5 -1.5t-51.5 -25.5q-23 -20 -35.5 -46.5t-12.5 -56.5q0 -11 1.5 -21.5t4.5 -19.5h-126v376q0 22 16 38t38 16h397q22 0 38.5 -16t16.5 -38v-66q0 -5 2 -8.5t6 -5.5q3 -3 7.5 -2.5t8.5 3.5q15 11 33.5 15t38.5 1q33 -5 57.5 -30 t28.5 -59q1 -21 -6 -41.5t-21 -35.5z" />
</svg>