<svg viewBox="0 0 256 256" xmlns="http://www.w3.org/2000/svg">
  <path transform="scale(1, -1) translate(0, -256)" fill="currentColor" d="M246 190q-1 12 -9.5 21t-20.5 11q-7 1 -15 -1v5q0 11 -7 18t-18 7h-98q-11 0 -18 -7t-7 -18v-120q-8 1 -14 0q-11 -2 -19 -9.5t-10 -18.5q-2 -8 0 -16t7 -14.5t12.5 -10t15.5 -3.5h8v-5q0 -10 7 -17t17 -7h99q11 0 18 7t7 17v15q0 4 -3.5 6t-6.5 0q-7 -4 -14 -2 t-11.5 6.5t-5.5 10.5q-3 11 4 19t17 8q6 0 9.5 -2t7 0t3.5 6v55q5 -1 9 -1q16 0 27 12q5 5 7.5 12.5t1.5 15.5zM187 106h-6q-8 0 -15.5 -3.5t-12.5 -9.5t-7 -14.5t0 -16.5q2 -10 9.5 -17.5t17.5 -10.5q7 -1 14 0v-5q0 -4 -3 -7t-8 -3h-98q-5 0 -8 3t-3 7v15q0 5 -3 6 q-2 1 -4 1l-4 -1q-4 -2 -11 -2q-11 0 -17 8t-4 19q1 6 6 10.5t12.5 6t14.5 -2.5q3 -2 6.5 0t3.5 6v26h35q4 0 6 3.5t-0.5 7.5t-2.5 10q0 11 8 17.5t18 4.5q7 -1 11.5 -5.5t5.5 -11.5q2 -9 -2 -15q-2 -4 0 -7.5t6 -3.5h34v-15h1zM227 171q-7 -7 -17 -7q-7 0 -12 4 q-3 2 -7 0.5t-4 -6.5v-26h-24q2 7 0 15q-2 10 -10 18t-19 10q-16 3 -30 -8q-6 -5 -9.5 -12.5t-3.5 -15.5l1 -7h-24v90q0 5 3 8t7 3h99q4 0 7.5 -3t3.5 -8v-16q0 -4 3 -6q2 -1 4 -1t3 1q7 5 15 4t13.5 -6.5t6.5 -13.5q0 -10 -6 -17z" />
</svg>