<svg viewBox="0 0 1024 1024" xmlns="http://www.w3.org/2000/svg">
  <path transform="scale(1, -1) translate(0, -960)" fill="currentColor" d="M570 835q-45 0 -88.5 -8.5t-78.5 -23.5q-3 -1 -4.5 -4t-1.5 -7t1 -9t4 -12q1 -5 7.5 -15t17.5 -6q36 14 72.5 21t71.5 7q39 0 78 -8.5t76 -23.5q29 -14 57 -31.5t58 -44.5q1 -1 4 -1h6q4 0 10.5 4t11.5 9q8 9 11.5 16.5t-5.5 15.5q-28 27 -59.5 47t-71.5 36 q-43 20 -87.5 29t-89.5 9v0zM261 290l2.5 -9t3.5 -14q13 -29 30.5 -54.5t40.5 -49.5q21 -21 48 -38.5t56 -31.5q30 -13 61 -18.5t65 -5.5t65 6.5t61 17.5q29 13 54.5 30t49.5 40q22 22 39 48.5t32 55.5q13 30 18.5 61.5t5.5 65.5q0 33 -6.5 65t-17.5 61q-13 29 -30.5 54.5 t-40.5 49.5q-21 22 -48 39t-56 31q-30 14 -61 20t-65 6t-66 -7t-62 -19q-24 -9 -59 -32.5t-58 -48.5v0v269h448q13 0 15.5 12t2.5 20q0 7 -2.5 19.5t-15.5 12.5l-485 -4q-9 0 -15.5 -7t-6.5 -15v-376q0 -8 9.5 -14.5t19.5 -7.5q20 -5 27.5 -0.5t12.5 11.5l1 1q9 12 26.5 30 l17.5 18q37 38 85.5 57.5t101.5 19.5t101.5 -19.5t85.5 -57.5q37 -37 57 -85.5t20 -101.5t-20 -102t-57 -87q-37 -37 -86 -56.5t-103 -19.5q-36 0 -70 9t-63 29v229q0 24 9.5 46.5t27.5 41.5q19 20 44.5 32.5t53.5 12.5q27 0 52.5 -10t44.5 -29q18 -19 28.5 -43.5 t10.5 -50.5q0 -58 -40 -97t-96 -39q-12 0 -27.5 3l-15.5 3q-12 4 -17.5 -7.5t-6.5 -14.5q-5 -21 0 -27t6 -7q19 -5 32.5 -7t29.5 -2q41 0 77 15q36 16 62.5 42.5t42.5 62.5q15 36 15 76t-15 76q-16 35 -42.5 62t-62.5 43t-77 16q-38 0 -74 -14.5t-65 -41.5 q-27 -27 -41.5 -60t-14.5 -68v-1v-79.5v-108.5v0q-15 17 -29 41.5t-25 51.5q-4 10 -12.5 10t-19.5 -3q-6 -8 -17 -14t-7 -18v0v0zM883 118v0q-5 5 -9 8.5t-8 3.5q-4 1 -7.5 0t-5.5 -2l-2 -2q-27 -27 -58 -48.5t-67 -34.5q-36 -15 -74 -23.5t-79 -8.5q-39 0 -78 8.5t-76 23.5 q-36 16 -66.5 36.5t-58.5 46.5q-27 29 -48.5 59.5t-34.5 65.5q-13 33 -18 56.5t-7 31.5v1.5v0.5q-2 8 -10 10t-22 1q-4 -2 -15 -5.5t-11 -15.5v0q5 -27 12 -53.5t17 -50.5q17 -41 41.5 -76t55.5 -66q33 -33 68 -56.5t75 -41.5q42 -17 86 -27t90 -10q45 0 89.5 9t86.5 28 q41 17 76 42t66 56l2 1q2 4 2.5 11t-12.5 21v0zM491 344q0 -5 3.5 -8.5t6.5 -7.5l1 -2q5 -4 9 -6.5t9 -2.5t5.5 0.5l0.5 0.5l18.5 18.5l18.5 18.5l34 -33q1 -2 4 -4t7 -3q5 0 9 2t9 8q12 12 8.5 17.5t-7.5 9.5l-33 34l36 38q5 7 2.5 13t-8.5 11q-8 8 -15 9t-12 -3l-37 -32 l-34 37q-1 1 -3 1.5t-3 0.5q-4 0 -8.5 -2t-9.5 -8q-8 -8 -9.5 -13.5t3.5 -11.5l37 -37l-34 -39q-5 0 -6.5 -2t-1.5 -4v0z" />
</svg>