<svg viewBox="0 0 256 256" xmlns="http://www.w3.org/2000/svg">
  <path transform="scale(1, -1) translate(0, -256)" fill="currentColor" d="M164 106q-1 3 -4 3.5t-5.5 -1.5t-3 -5t1.5 -5l5 -7h-123l20 29h52q3 0 5 2t2 5t-2 5t-5 2h-42l32 44l4 -5q2 -3 4.5 -3.5t5 1.5t3 5t-1.5 5l-10 13q-1 3 -5 3q-2 0 -3.5 -1t-2.5 -2l-81 -114q-5 -6 -5 -13t3 -13.5t9 -10t13 -3.5h133q7 0 13 3.5t9 10t2.5 13.5t-4.5 13z M173 60q-3 -6 -10 -6h-133q-6 0 -9.5 6t0.5 12l4 5h143l4 -5q4 -6 1 -12zM197 216q-14 0 -26.5 -7t-19.5 -18.5t-7 -25.5t7 -26t19.5 -19t27 -7t26.5 7t19.5 19t7.5 26t-7 25.5t-19.5 18.5t-27.5 7zM197 128q-16 0 -27.5 11t-11.5 26.5t11.5 26.5t28 11t28 -11t11.5 -26.5 t-11.5 -26.5t-28.5 -11zM202 177q-2 2 -4.5 2t-4.5 -2l-15 -14q-2 -2 -2 -5t2 -5t4.5 -2t5.5 1l10 10l10 -10q2 -2 4.5 -2t5 2t2 5t-2.5 5z" />
</svg>