<svg viewBox="0 0 1024 1024" xmlns="http://www.w3.org/2000/svg">
  <path transform="scale(1, -1) translate(0, -960)" fill="currentColor" d="M976 213l-389 573q-13 19 -32.5 29.5t-42.5 10.5t-43 -10.5t-32 -29.5l-389 -573q-14 -22 -15.5 -47t10.5 -48q12 -22 33.5 -35t46.5 -13h778q26 0 47 13t33 35q12 23 10.5 48t-15.5 47v0zM286 507h453l136 -203h-726l137 203v0zM462 768q9 12 21.5 19t28.5 7t28.5 -7 t21.5 -19l155 -230h-410l155 230v0zM954 133q-9 -15 -22.5 -23.5t-30.5 -8.5h-778q-17 0 -30.5 8t-22.5 24q-8 14 -7 30.5t11 30.5l54 78h768l53 -78q9 -14 10.5 -30t-5.5 -31v0z" />
</svg>