<svg viewBox="0 0 1024 1024" xmlns="http://www.w3.org/2000/svg">
  <path transform="scale(1, -1) translate(0, -960)" fill="currentColor" d="M909 136h-794q-18 0 -32.5 9t-23.5 23q-8 14 -8 32t8 32l215 363q4 9 13 14t20 5v0v0q11 0 19.5 -4.5t14.5 -14.5l78 -131q1 -2 3 -2.5t4 -0.5v0v0q1 0 3 0.5t3 2.5l160 277q5 8 14 13.5t20 5.5v0v0q10 0 18.5 -5t14.5 -14l304 -507q10 -16 10 -33t-8 -31 q-9 -16 -23.5 -25t-32.5 -9zM307 582h-3t-3 -3l-213 -361q-5 -8 -5 -16.5t5 -15.5q5 -8 12 -12t15 -4h794q8 0 15.5 4t11.5 12q5 7 4.5 15.5t-4.5 16.5l-304 507q-1 2 -3 2.5t-3 0.5q-2 0 -4 -0.5t-3 -2.5l-161 -275q-5 -9 -14 -14.5t-20 -5.5v0v0q-11 0 -19.5 5t-14.5 15 l-78 131q-1 1 -2.5 1h-2.5v0z" />
</svg>