<svg viewBox="0 0 1024 1024" xmlns="http://www.w3.org/2000/svg">
  <path transform="scale(1, -1) translate(0, -960)" fill="currentColor" d="M648 355q-4 6 -10 7t-12 -4q-6 -3 -7 -9.5t3 -12.5l34 -48h-541l99 139h213q7 0 11.5 4.5t4.5 11.5t-4.5 11.5t-11.5 4.5h-190l149 210l25 -35q4 -6 10.5 -7t12.5 3t7 10.5t-4 12.5l-39 54q-2 4 -5.5 5.5t-6.5 1.5q-4 0 -7.5 -2t-5.5 -5l-325 -459q-14 -20 -16 -45 t10 -48t33 -35.5t47 -12.5h529q25 0 46.5 13.5t33.5 34.5q12 22 10 47.5t-16 45.5l-77 107v0zM702 170q-7 -15 -20.5 -23t-30.5 -8h-529q-17 0 -30.5 8t-21.5 23q-7 14 -5.5 30t10.5 29l18 27h585l18 -26q11 -14 12.5 -30t-6.5 -30v0zM789 789q-42 0 -79 -15 q-37 -16 -64.5 -42t-43.5 -61q-16 -36 -16 -76t16 -75q16 -36 43.5 -62t64.5 -41t79 -15t79 15t64.5 41t43.5 62q16 35 16 75t-16 76q-16 35 -43.5 61t-64.5 42q-37 15 -79 15v0zM789 434q-71 0 -121 47t-50 114t50 114.5t121 47.5t121 -47.5t50 -114.5t-50 -114t-121 -47z M800 635q-5 5 -11.5 5t-10.5 -5l-58 -56q-5 -5 -5 -11t5 -11t11.5 -5t10.5 5l48 45l48 -45q3 -3 5.5 -4t6.5 -1q3 0 5.5 1t5.5 4q5 5 5 11t-5 11l-61 56v0z" />
</svg>