<svg viewBox="0 0 1024 1024" xmlns="http://www.w3.org/2000/svg">
  <path transform="scale(1, -1) translate(0, -960)" fill="currentColor" d="M987 576q-13 50 -39.5 85t-77.5 35h-89v-106q0 -61 -44.5 -105.5t-101.5 -44.5h-238q-49 0 -83 -36t-34 -86v-225q0 -47 35.5 -76.5t81.5 -45.5q55 -17 111.5 -18.5t125.5 18.5q44 13 80 41t36 81v89h-235v29h355q51 0 75.5 33t41.5 87q18 59 18 116.5t-18 128.5v0z M648 128q18 0 31.5 -13.5t13.5 -31.5t-13.5 -31.5t-31.5 -13.5q-18 -1 -31.5 13t-13.5 32q-1 18 12.5 31.5t32.5 13.5zM386 470h236q50 0 83.5 36t33.5 86v222q0 47 -35 80.5t-82 41.5q-58 8 -120 8t-116 -8q-76 -13 -96.5 -42t-20.5 -80v-89h237v-29h-324q-50 0 -91 -31 t-54 -89q-17 -67 -17 -118t17 -120q13 -53 43 -86.5t83 -33.5h77v107q-1 59 43 102t103 43v0v0zM371 786q-18 0 -31.5 13t-13.5 31t13.5 31.5t31.5 13.5t31.5 -13.5t13.5 -31.5t-13.5 -31t-31.5 -13v0z" />
</svg>