<svg viewBox="0 0 256 256" xmlns="http://www.w3.org/2000/svg">
  <path transform="scale(1, -1) translate(0, -256)" fill="currentColor" d="M247 160q-8 30 -29 30h-23v-26q0 -16 -11 -27t-25 -11h-60q-12 0 -20.5 -9t-8.5 -21v-57q0 -11 8 -18.5t22 -12t28 -4.5t30 5q30 8 30 30v23h-59v7h89q11 0 17.5 7.5t11 22.5t4.5 29t-4 32zM162 48q4 0 7.5 -3.5t3.5 -8t-3 -7.5t-7.5 -3.5t-8 3t-3.5 8t3 8t8 3.5zM96 134 h60q12 0 20.5 8.5t8.5 21.5v56q0 11 -8.5 19.5t-20.5 10.5q-31 4 -60 0q-17 -3 -23 -10t-6 -20v-23h59v-7h-80q-13 0 -23.5 -8t-13.5 -22q-4 -17 -4 -29.5t4 -30.5q8 -30 32 -30h19v27q0 15 11 26t25 11zM93 212q-5 0 -8 3.5t-3 8t3 8t7.5 3.5t8 -3.5t3.5 -8t-3.5 -8 t-7.5 -3.5z" />
</svg>