<svg viewBox="0 0 1024 1024" xmlns="http://www.w3.org/2000/svg">
  <path transform="scale(1, -1) translate(0, -960)" fill="currentColor" d="M603 96q-7 0 -11.5 -4.5t-4.5 -11.5v-96q0 -7 4.5 -11.5t11.5 -4.5t11.5 4.5t4.5 11.5v96q0 6 -5 11t-11 5zM395 173l-67 -67q-5 -5 -5 -11.5t5 -11.5q2 -2 5.5 -3.5t5.5 -1.5q3 0 6 1.5t5 3.5l68 67q4 5 4 11.5t-4 11.5q-5 5 -11.5 5t-11.5 -5zM800 539q4 0 6.5 1.5 t4.5 3.5l67 67q5 5 5 11.5t-5 11.5q-4 4 -10.5 4t-11.5 -4l-67 -68q-5 -4 -5 -10.5t5 -11.5q2 -2 5.5 -3.5t5.5 -1.5v0zM978 374h-96q-8 0 -12 -4t-4 -12q0 -7 4 -11.5t12 -4.5h96q7 0 11.5 4.5t4.5 11.5q0 8 -5 12t-11 4zM395 544q3 -2 6 -3.5t5 -1.5q3 0 6 1.5t6 3.5 q4 5 4 11.5t-4 10.5l-68 68q-4 4 -10.5 4t-11.5 -4q-5 -5 -5 -11.5t5 -11.5zM811 173q-5 5 -11 5t-11 -5t-5 -11.5t5 -11.5l67 -67q2 -2 5.5 -3.5t5.5 -1.5q3 0 6 1.5t5 3.5q5 5 5 11.5t-5 11.5l-67 67v0zM603 928q-118 0 -222 -45q-105 -45 -182.5 -123t-122.5 -182 q-46 -105 -46 -223q0 -7 4.5 -11.5t11.5 -4.5h557q7 0 11.5 4.5t4.5 11.5v557q0 7 -5 11.5t-11 4.5zM587 371h-525q3 107 46 201q42 94 113 165t165 114q94 42 201 45v-525z" />
</svg>