<svg viewBox="0 0 1024 1024" xmlns="http://www.w3.org/2000/svg">
  <path transform="scale(1, -1) translate(0, -960)" fill="currentColor" d="M512 928q-99 0 -186 -38q-88 -38 -153 -103t-103 -153q-38 -87 -38 -186t38 -186q38 -88 103 -153t153 -103q87 -38 186 -38t186 38q88 38 153 103t103 153q38 87 38 186t-38 186q-38 88 -103 153t-153 103q-87 38 -186 38zM496 0q-76 2 -144 28.5t-123 72.5l267 150 v-251zM496 896v-166l-430 -242q7 83 43 156t93.5 128t133.5 88q75 33 160 36zM64 450l432 243v-184l-400 -226q-16 39 -24 80.5t-8 84.5v1v1v0zM109 253l387 219v-184l-293 -165q-29 28 -52.5 61t-41.5 69v0zM528 0v896q90 -3 169 -39q78 -37 136.5 -97.5t92.5 -140.5 t34 -171t-34 -171q-33 -80 -91.5 -140t-137.5 -97q-79 -36 -169 -40z" />
</svg>