<svg viewBox="0 0 256 256" xmlns="http://www.w3.org/2000/svg">
  <path transform="scale(1, -1) translate(0, -256)" fill="currentColor" d="M128 251q-33 0 -61.5 -16.5t-45 -45t-16.5 -61.5t16.5 -61.5t45 -45t61.5 -16.5t61.5 16.5t45 45t16.5 61.5t-16.5 61.5t-45 45t-61.5 16.5zM121 145l-95 -54q-7 18 -7 36l102 57v-39zM121 19q-32 2 -58 22l58 33v-55zM121 237v-37l-101 -57q4 25 18 46t36 33.5t47 14.5z M31 78l90 51v-39l-69 -39q-12 11 -21 27zM135 19v218q28 -2 51.5 -17t37 -39.5t13.5 -52.5t-13.5 -52.5t-37 -39.5t-51.5 -17z" />
</svg>