<svg viewBox="0 0 1024 1024" xmlns="http://www.w3.org/2000/svg">
  <path transform="scale(1, -1) translate(0, -960)" fill="currentColor" d="M512 928q-99 0 -186 -38q-88 -38 -153 -103t-103 -153q-38 -87 -38 -186t38 -186q38 -88 103 -153t153 -103q87 -38 186 -38t186 38q88 38 153 103t103 153q38 87 38 186t-38 186q-38 88 -103 153t-153 103q-87 38 -186 38zM960 446l-432 -243v184l400 226 q16 -39 24 -80.5t8 -84.5v-1v-1v0zM528 896q76 -2 144 -28.5t123 -72.5l-267 -150v251zM915 643l-387 -219v184l293 165q29 -28 52.5 -61t41.5 -69v0zM64 448q0 91 34 171q33 80 91.5 140t137.5 97q79 36 169 40v-896q-90 4 -169 40q-78 37 -136.5 97t-92.5 140t-34 171z M528 0v166l430 244q-7 -84 -43 -158q-36 -73 -93.5 -128t-133.5 -88q-75 -33 -160 -36v0z" />
</svg>