<svg viewBox="0 0 256 256" xmlns="http://www.w3.org/2000/svg">
  <path transform="scale(1, -1) translate(0, -256)" fill="currentColor" d="M128 251q-33 0 -61.5 -16.5t-45 -45t-16.5 -61.5t16.5 -61.5t45 -45t61.5 -16.5t61.5 16.5t45 45t16.5 61.5t-16.5 61.5t-45 45t-61.5 16.5zM135 237q32 -2 59 -22l-59 -33v55zM135 111l96 54q6 -18 6 -35l-102 -58v39zM225 178l-90 -51v39l70 40q12 -12 20 -28zM19 128 q0 28 13.5 52.5t37 39.5t51.5 17v-218q-28 2 -51.5 17t-37 39.5t-13.5 52.5zM135 19v37l101 57q-4 -25 -18 -46t-35.5 -33.5t-47.5 -14.5z" />
</svg>