<svg viewBox="0 0 256 256" xmlns="http://www.w3.org/2000/svg">
  <path transform="scale(1, -1) translate(0, -256)" fill="currentColor" d="M128 251q-33 0 -61.5 -16.5t-45 -45t-16.5 -61.5t16.5 -61.5t45 -45t61.5 -16.5t61.5 16.5t45 45t16.5 61.5t-16.5 61.5t-45 45t-61.5 16.5zM128 19q-29 0 -54 14.5t-40 39.5t-15 55t15 54.5t39.5 39.5t54.5 15t55 -15t39.5 -40t14.5 -54.5t-14.5 -54.5t-39.5 -39.5 t-55 -14.5zM135 208q-9 2 -17 -0.5t-14.5 -7.5t-10.5 -13t-4 -15.5t3 -13.5q1 -3 3.5 -4.5t5 -0.5t4 3.5t0.5 5.5v1q-2 5 -2 7q0 12 9 19.5t20 4.5q8 -1 13.5 -6.5t7 -13.5t-3 -15.5t-12 -10.5t-12 -10t-4.5 -16v-26q0 -3 2 -5t5 -2t5 2t2 5v26q0 4 2 7.5t6 4.5 q12 6 18.5 17.5t4.5 24.5t-10.5 21.5t-20.5 10.5zM128 69h-1q-3 0 -5 -2t-2 -5t2 -5.5t5 -2.5h1q3 0 5.5 2.5t2.5 5.5t-2.5 5t-5.5 2z" />
</svg>