<svg viewBox="0 0 1024 1024" xmlns="http://www.w3.org/2000/svg">
  <path transform="scale(1, -1) translate(0, -960)" fill="currentColor" d="M512 928q-99 0 -186 -38q-88 -38 -153 -103t-103 -153q-38 -87 -38 -186t38 -186q38 -88 103 -153t153 -103q87 -38 186 -38t186 38q88 38 153 103t103 153q38 87 38 186t-38 186q-38 88 -103 153t-153 103q-87 38 -186 38zM512 0q-92 0 -174 35q-81 36 -142 97t-97 142 q-35 82 -35 174t35 174q36 81 96.5 142t142.5 97q82 35 174 35t174 -35q81 -36 142 -96.5t97 -142.5q35 -82 35 -174t-35 -174q-36 -81 -96.5 -142t-142.5 -97q-82 -35 -174 -35zM538 757q-32 6 -62.5 -2t-54.5 -29q-24 -20 -37.5 -48.5t-13.5 -59.5q0 -12 2 -24t6 -24 q2 -6 8 -9t12 -1t9 8.5t1 12.5q-4 8 -5 17.5t-1 19.5q0 24 10 46.5t30 37.5q19 16 42.5 22.5t48.5 1.5q33 -6 58 -30.5t30 -57.5q7 -39 -11.5 -73t-55.5 -48q-27 -13 -42.5 -38t-15.5 -55v-102q0 -8 4.5 -12t11.5 -4t11.5 4t4.5 12v102q0 20 11 37t27 24q47 19 71 63t16 94 q-9 43 -40.5 75.5t-74.5 39.5v0zM514 198h-5q-7 0 -11.5 -4t-4.5 -12q0 -7 4.5 -11.5t11.5 -4.5h5q7 0 11.5 4.5t4.5 11.5q0 8 -4.5 12t-11.5 4z" />
</svg>