<svg viewBox="0 0 1024 1024" xmlns="http://www.w3.org/2000/svg">
  <path transform="scale(1, -1) translate(0, -960)" fill="currentColor" d="M763 898q-1 8 -6.5 14t-12.5 11q-7 4 -15.5 5t-16.5 -2q-25 -8 -71.5 -27t-99.5 -53q-10 -6 -15 -22.5t-6 -44.5q-19 7 -37.5 9.5t-29.5 -6.5q-33 -27 -58.5 -59t-45.5 -65q-45 -77 -58 -159t-10.5 -150.5t12.5 -114.5t11 -50q0 -2 1 -3.5t2 -2.5q-13 -33 -23.5 -64 t-21.5 -66q-4 -14 -9 -29l-10 -30q-2 -6 1 -12.5t9 -8.5q1 0 2 -1t3 -1q4 0 8.5 3.5t5.5 8.5q5 15 9.5 30.5t9.5 28.5q12 37 23.5 71.5t26.5 69.5q24 7 70 25q46 19 99 51t106 80t91 114q38 63 54 130q15 67 18 128t-4 111q-6 51 -12 81v0zM685 466v0v0q-31 -54 -74 -95 t-88.5 -70.5t-87.5 -49.5q-42 -19 -72 -30q21 41 49 88t71 105q4 5 3 12t-6 11q-5 3 -12 2t-10 -5q-47 -64 -77 -114t-51 -93q-6 28 -11 75q-6 47 -4 104t16 119t47 120q18 31 42 60t54 55q6 1 22 -4t32 -12q4 -1 8 -1t8 3q4 2 6 5.5t2 6.5q0 22 2 41t6 25q50 31 94.5 49.5 t68.5 25.5h4h1q1 0 2 -1t1 -4q5 -23 11 -70q7 -47 5.5 -106.5t-14.5 -125.5t-48 -126v0z" />
</svg>