<svg viewBox="0 0 256 256" xmlns="http://www.w3.org/2000/svg">
  <path transform="scale(1, -1) translate(0, -256)" fill="currentColor" d="M194 241q-2 5 -6.5 8t-10.5 1q-23 -7 -43 -20q-5 -2 -6 -15q-12 3 -16 -1q-17 -15 -27 -32q-19 -32 -17 -78q1 -25 6 -42v-1l-16 -46q-1 -3 0.5 -5.5t4.5 -3.5h2q2 0 4 1t3 3l7 23q6 18 10 26q23 7 43 20q33 20 49 48t17 65q1 25 -4 49zM168 134q-12 -21 -34 -37 q-17 -13 -37 -21q9 18 26 41q2 3 1.5 5.5t-3 4.5t-5 1.5t-4.5 -3.5q-18 -24 -28 -44q-3 22 -1 43q2 29 14 50q9 15 23 28q3 -1 11 -4q3 -2 6.5 0t3.5 6q0 10 1 15q19 12 38 17q5 -20 4 -43q-1 -34 -16 -59z" />
</svg>