<svg viewBox="0 0 1024 1024" xmlns="http://www.w3.org/2000/svg">
  <path transform="scale(1, -1) translate(0, -960)" fill="currentColor" d="M917 75q-19 7 -45 21t-40 29l4.5 4.5t5.5 4.5q37 32 64 68t44.5 77.5t26.5 88.5q9 48 9 104q0 97 -38 183q-37 86 -101.5 150t-150.5 102q-86 37 -184 37t-184 -37q-86 -38 -150.5 -102t-101.5 -151q-38 -86 -38 -184q0 -97 38 -184q37 -86 101.5 -150.5t150.5 -101.5 t184 -37q44 0 87 7.5t83 22.5q20 -26 57.5 -50.5t102.5 -24.5q10 0 39.5 2.5t32.5 2.5q6 0 10 5t4 11v88q-1 5 -3.5 8.5t-7.5 5.5v0zM894 -13q-14 -1 -31 -2t-23 -1q-59 0 -91 23.5t-50 48.5q-2 4 -5.5 5t-7.5 1h-3t-3 -1q-40 -17 -82 -25.5t-86 -8.5q-91 0 -172 35 q-80 35 -140 95t-95 140q-35 81 -35 172q0 92 35 172q35 81 95 141t140 95q81 35 172 35t172 -35q80 -35 140 -95t95 -140t35 -172q0 -51 -8 -96q-8 -44 -24.5 -82.5t-41.5 -71.5q-25 -34 -59 -63v0v0q-18 -16 -22.5 -22.5t-3.5 -12.5q0 -3 1 -4.5t2 -2.5q15 -21 47.5 -39.5 t50.5 -25.5v-63h-2zM517 816q-44 0 -82 -17q-39 -16 -67.5 -44.5t-45.5 -66.5q-16 -38 -16 -82v-270q0 -44 16 -82q17 -39 45.5 -67.5t67.5 -45.5q38 -16 82 -16q33 0 65 10.5t60 30.5q2 3 4 6.5t2 6.5q0 4 -1 7.5t-4 5.5q-19 17 -55.5 37.5t-53.5 29.5v69q36 -7 89.5 -20.5 t72.5 -29.5q4 -2 7.5 -3t8.5 0q4 1 7 4.5t3 6.5q1 6 2 47t1.5 93t1.5 103q0 51 1 77q0 42 -16 80.5t-45 68.5q-30 29 -69 45t-81 16v0zM691 317q-41 18 -100.5 30.5t-68.5 14.5q-4 1 -7.5 0t-5.5 -4q-3 -2 -5 -5.5t-2 -6.5v-98q0 -5 2.5 -8.5t7.5 -5.5q14 -8 43.5 -23.5 t50.5 -29.5q-20 -12 -42.5 -18t-45.5 -6q-74 0 -126.5 52.5t-52.5 126.5v270q0 75 52.5 127.5t126.5 52.5q36 0 69 -14t58 -39t39 -57.5t14 -67.5q-2 -35 -3 -77q0 -43 -1 -83.5t-2 -74.5q0 -35 -1 -56v0z" />
</svg>