<svg viewBox="0 0 256 256" xmlns="http://www.w3.org/2000/svg">
  <path transform="scale(1, -1) translate(0, -256)" fill="currentColor" d="M230 38q-10 4 -18 9q19 16 28 37.5t9 49.5q0 33 -16 60.5t-44 44t-61 16.5t-61 -16.5t-44 -44t-16 -60.5t16 -61t44 -44.5t61 -16.5q22 0 41 7q16 -18 41 -18l18 1q3 0 4.5 2t1.5 5v22q1 4 -4 7zM221 16q-5 -1 -11 -1q-12 0 -21 6q-6 4 -12 11q-1 3 -5 3l-3 -1 q-20 -8 -41 -8q-29 0 -53.5 14.5t-39 39.5t-14.5 54t14.5 53.5t39 39t53.5 14.5t54 -14.5t39.5 -39t14.5 -53.5q0 -25 -8 -43.5t-24 -32.5q-5 -4 -6.5 -6.5t-1.5 -4.5t2 -3q5 -9 23 -17v-11zM129 223q-15 0 -27.5 -7.5t-20 -20t-7.5 -27.5v-68q0 -15 7.5 -28t20 -20.5 t29 -7.5t31.5 11q3 2 3 5.5t-2 5.5q-6 6 -27 16v12q29 -6 36 -11q3 -2 7 -1t4.5 4.5t1.5 71.5v10q0 23 -16 39q-8 8 -18.5 12t-21.5 4zM170 100q-12 4 -35 9l-5 1q-2 0 -5 -2t-3 -5v-25q0 -4 4 -6l19 -10q-8 -3 -16 -3q-17 0 -29 12t-12 29v68q0 17 12 29t29 12t29 -12 t12 -29v-68z" />
</svg>