<svg viewBox="0 0 1024 1024" xmlns="http://www.w3.org/2000/svg">
  <path transform="scale(1, -1) translate(0, -960)" fill="currentColor" d="M733 634q7 0 11.5 4t4.5 12q0 7 -4.5 11.5t-11.5 4.5q-71 0 -122 -50.5t-51 -122.5v-90v0v0v0v0v-141q0 -13 9.5 -22.5t22.5 -9.5h125q13 0 22.5 9.5t9.5 22.5v125q0 13 -9.5 22.5t-22.5 9.5h-125v74q0 57 41.5 99t99.5 42v0zM717 262h-125v125h125v-125zM448 634 q7 0 11.5 4t4.5 12q0 7 -4.5 11.5t-11.5 4.5q-71 0 -122 -50.5t-51 -122.5v-90v0v0v0v0v-141q0 -13 9.5 -22.5t22.5 -9.5h125q13 0 22.5 9.5t9.5 22.5v125q0 13 -9.5 22.5t-22.5 9.5h-125v74q0 57 41 99t100 42v0zM432 262h-125v125h125v-125zM512 928q-99 0 -186 -38 q-88 -38 -153 -103t-103 -153q-38 -87 -38 -186t38 -186q38 -88 103 -153t153 -103q87 -38 186 -38t186 38q88 38 153 103t103 153q38 87 38 186t-38 186q-38 88 -103 153t-153 103q-87 38 -186 38zM512 0q-92 0 -174 35q-81 36 -142 97t-97 142q-35 82 -35 174t35 174 q36 81 96.5 142t142.5 97q82 35 174 35t174 -35q81 -36 142 -96.5t97 -142.5q35 -82 35 -174t-35 -174q-36 -81 -96.5 -142t-142.5 -97q-82 -35 -174 -35z" />
</svg>