<svg viewBox="0 0 256 256" xmlns="http://www.w3.org/2000/svg">
  <path transform="scale(1, -1) translate(0, -256)" fill="currentColor" d="M183 171q3 0 5 2t2 5t-2 5.5t-5 2.5q-19 0 -32.5 -13.5t-13.5 -32.5v-58q0 -5 3.5 -8t7.5 -3h32q4 0 7.5 3t3.5 8v31q0 5 -3.5 8t-7.5 3h-28v16q-1 12 8.5 21.5t22.5 9.5zM176 85h-25v25h25v-25zM112 171q3 0 5 2t2 5t-2 5.5t-5 2.5q-19 0 -32.5 -13.5t-13.5 -32.5v-58 q0 -5 3 -8t8 -3h31q5 0 8 3t3 8v31q0 5 -3 8t-8 3h-28v16q0 13 9.5 22t22.5 9zM105 85h-25v25h25v-25zM128 251q-33 0 -61.5 -16.5t-45 -45t-16.5 -61.5t16.5 -61.5t45 -45t61.5 -16.5t61.5 16.5t45 45t16.5 61.5t-16.5 61.5t-45 45t-61.5 16.5zM128 19q-29 0 -54 14.5 t-40 39.5t-15 55t15 54.5t39.5 39.5t54.5 15t55 -15t39.5 -40t14.5 -54.5t-14.5 -54.5t-39.5 -39.5t-55 -14.5z" />
</svg>