<svg viewBox="0 0 256 256" xmlns="http://www.w3.org/2000/svg">
  <path transform="scale(1, -1) translate(0, -256)" fill="currentColor" d="M95 218h-67q-9 0 -16 -7t-7 -17v-66q0 -10 7 -17t16 -7h7q5 0 8 -4.5t0 -8.5l-9 -19q-3 -5 -2.5 -11t3.5 -11.5t8.5 -8.5t11.5 -3h13q7 0 12.5 3.5t8.5 10.5l27 53q2 5 2 10v79q0 10 -6.5 17t-16.5 7zM104 115q0 -2 -1 -4l-27 -54q-2 -5 -8 -5h-13q-5 0 -8 4.5t0 9.5 l9 18q3 5 2.5 11.5t-3.5 11.5t-8.5 8t-11.5 3h-7q-4 0 -6.5 3t-2.5 7v66q0 4 3 7t6 3h67q4 0 6.5 -3t2.5 -7v-79zM228 218h-67q-10 0 -16.5 -7t-6.5 -17v-66q0 -10 6.5 -17t16.5 -7h7q5 0 7.5 -4.5t0.5 -8.5l-9 -19q-3 -5 -2.5 -11t3.5 -11.5t8.5 -8.5t11.5 -3h13 q7 0 12.5 3.5t8.5 10.5l27 53q2 5 2 11v78q0 10 -7 17t-16 7zM237 115q0 -2 -1 -4l-27 -54q-2 -5 -8 -5h-13q-5 0 -8 4.5t0 9.5l9 18q3 5 2.5 11.5t-4 11.5t-8.5 8t-11 3h-7q-4 0 -6.5 3t-2.5 7v66q0 4 2.5 7t6.5 3h67q4 0 6.5 -3t2.5 -7v-79z" />
</svg>