<svg viewBox="0 0 256 256" xmlns="http://www.w3.org/2000/svg">
  <path transform="scale(1, -1) translate(0, -256)" fill="currentColor" d="M119 174q0 5 -3.5 8.5t-7.5 3.5h-32q-4 0 -7.5 -3.5t-3.5 -8.5v-31q0 -4 3.5 -7.5t7.5 -3.5h28v-15q0 -13 -9 -22.5t-23 -9.5q-3 0 -5 -2t-2 -5t2 -5.5t5 -2.5q20 0 33 13.5t13 32.5v58h1zM105 146h-25v25h25v-25zM179 185h-31q-5 0 -8 -3t-3 -8v-31q0 -5 3 -8t8 -3h28 v-16q0 -13 -9.5 -22.5t-22.5 -9.5q-3 0 -5 -2t-2 -5t2 -5t5 -2q19 0 32.5 13.5t13.5 32.5v58q0 5 -3 8t-8 3zM151 171h25v-25h-25v25zM128 251q-33 0 -61.5 -16.5t-45 -45t-16.5 -61.5t16.5 -61.5t45 -45t61.5 -16.5t61.5 16.5t45 45t16.5 61.5t-16.5 61.5t-45 45 t-61.5 16.5zM128 19q-29 0 -54 14.5t-40 39.5t-15 55t15 54.5t39.5 39.5t54.5 15t55 -15t39.5 -40t14.5 -54.5t-14.5 -54.5t-39.5 -39.5t-55 -14.5z" />
</svg>