<svg viewBox="0 0 1024 1024" xmlns="http://www.w3.org/2000/svg">
  <path transform="scale(1, -1) translate(0, -960)" fill="currentColor" d="M405 622h-127q-19 0 -33.5 -13.5t-14.5 -34.5v-126q0 -19 14 -33.5t34 -14.5h13q6 0 9 -3t4 -5q1 -1 2.5 -5.5t-2.5 -8.5l-18 -36q-6 -10 -5 -22.5t7 -23.5t17 -16.5t23 -5.5h24q13 0 25 6.5t18 18.5l51 103q3 4 4 10t1 10v151q1 20 -13 34.5t-33 14.5zM421 424 q0 -2 -0.5 -3.5t-1.5 -2.5l-51 -103q-2 -3 -6 -5.5t-8 -2.5h-24q-6 0 -9 3t-4 5q-1 1 -2.5 5.5t2.5 9.5l17 35q6 11 5.5 23t-6.5 23t-17 17t-23 6h-13q-6 0 -11 4t-5 12v126q0 6 4.5 11t11.5 5h126q6 0 11 -4.5t5 -11.5v-152h-1zM746 622h-127q-19 0 -33.5 -13.5 t-14.5 -34.5v-126q0 -19 14 -33.5t34 -14.5h13q6 0 9 -3t4 -5t2 -6t-2 -8l-18 -36q-6 -10 -5 -22.5t7 -23.5t17 -16.5t23 -5.5h24q13 0 25 6.5t18 18.5l51 103q3 4 4 10t1 10v151q1 20 -13 34.5t-33 14.5zM762 424q0 -2 -0.5 -3.5t-1.5 -2.5l-51 -103q-3 -3 -6.5 -5.5 t-8.5 -2.5h-24q-6 0 -8.5 3t-3.5 5q-2 3 -3 6.5t3 8.5l17 35q6 11 5.5 23t-6.5 23t-17 17t-23 6h-13q-6 0 -11 4t-5 12v126q0 6 4.5 11t11.5 5h126q6 0 11 -4.5t5 -11.5v-152h-1zM512 928q-99 0 -186 -38q-88 -38 -153 -103t-103 -153q-38 -87 -38 -186t38 -186 q38 -88 103 -153t153 -103q87 -38 186 -38t186 38q88 38 153 103t103 153q38 87 38 186t-38 186q-38 88 -103 153t-153 103q-87 38 -186 38zM512 0q-92 0 -174 35q-81 36 -142 97t-97 142q-35 82 -35 174t35 174q36 81 96.5 142t142.5 97q82 35 174 35t174 -35 q81 -36 142 -96.5t97 -142.5q35 -82 35 -174t-35 -174q-36 -81 -96.5 -142t-142.5 -97q-82 -35 -174 -35z" />
</svg>