<svg viewBox="0 0 256 256" xmlns="http://www.w3.org/2000/svg">
  <path transform="scale(1, -1) translate(0, -256)" fill="currentColor" d="M186 143h-3h-1v1l5 9q3 7 -1.5 14t-12.5 7h-6q-4 0 -7.5 -2t-5.5 -6l-13 -26q-1 -2 -1 -6v-38q0 -6 4 -10.5t10 -4.5h32q6 0 10.5 4.5t4.5 10.5v32q0 6 -4 10.5t-11 4.5zM187 96h-1h-31h-1v38l13 26h1h6v0q1 0 0 -1l-4 -9q-4 -7 0.5 -14t13.5 -7h3q1 0 1 -1v-32h-1z M101 143h-3h-1v1l5 9q3 7 -1.5 14t-12.5 7h-6q-4 0 -7.5 -2t-5.5 -6l-13 -26q-2 -2 -2 -6v-38q0 -6 4.5 -10.5t10.5 -4.5h32q6 0 10.5 4.5t4.5 10.5v32q0 6 -4.5 10.5t-10.5 4.5zM102 96h-1h-31h-1v38l13 26v0h6h1q1 0 0 -1l-4 -9q-4 -7 0.5 -14t12.5 -7h4v-1v-32zM128 251 q-33 0 -61.5 -16.5t-45 -45t-16.5 -61.5t16.5 -61.5t45 -45t61.5 -16.5t61.5 16.5t45 45t16.5 61.5t-16.5 61.5t-45 45t-61.5 16.5zM128 19q-29 0 -54 14.5t-40 39.5t-15 55t15 54.5t39.5 39.5t54.5 15t55 -15t39.5 -40t14.5 -54.5t-14.5 -54.5t-39.5 -39.5t-55 -14.5z" />
</svg>