<svg viewBox="0 0 1024 1024" xmlns="http://www.w3.org/2000/svg">
  <path transform="scale(1, -1) translate(0, -960)" fill="currentColor" d="M392 822q0 27 -19 45.5t-45 18.5h-232q-26 0 -45 -18.5t-19 -45.5v-232q0 -26 19 -45t45 -19h264v-171q0 -65 -25 -121q-24 -57 -66.5 -99.5t-99.5 -66.5q-57 -25 -121 -25q-7 0 -11.5 -4.5t-4.5 -11.5t4.5 -11.5t11.5 -4.5q71 0 134 27q63 28 109.5 74.5t73.5 109.5 q27 62 27 133v187v0v0v280v0zM360 558h-264q-13 0 -22.5 9.5t-9.5 22.5v232q0 14 9.5 23t22.5 9h232q13 0 22.5 -9t9.5 -23v-264zM992 822q0 27 -19 45.5t-45 18.5h-232q-26 0 -45 -18.5t-19 -45.5v-232q0 -26 19 -45t45 -19h264v-171q0 -65 -25 -121q-24 -57 -66.5 -99.5 t-99.5 -66.5q-57 -25 -121 -25q-7 0 -11.5 -4.5t-4.5 -11.5t4.5 -11.5t11.5 -4.5q71 0 134 27q63 28 109.5 74.5t73.5 109.5q27 62 27 133v187v0v0v0v0v280v0zM664 590v232q0 14 9.5 23t22.5 9h232q13 0 22.5 -9t9.5 -23v-264h-264q-13 0 -22.5 9.5t-9.5 22.5z" />
</svg>