<svg viewBox="0 0 256 256" xmlns="http://www.w3.org/2000/svg">
  <path transform="scale(1, -1) translate(0, -256)" fill="currentColor" d="M228 152h-7q-5 0 -8 4.5t0 8.5l9 19q3 5 2.5 11t-3.5 11.5t-8.5 8.5t-11.5 3h-13q-7 0 -12.5 -3.5t-8.5 -10.5l-27 -53q-2 -5 -2 -10v-79q0 -10 6.5 -17t16.5 -7h67q9 0 16 7t7 17v66q0 10 -7 17t-16 7zM237 62q0 -4 -2.5 -7t-6.5 -3h-67q-4 0 -6.5 3t-2.5 7v79q0 2 1 4 l27 54q2 5 8 5h13q5 0 8 -4.5t0 -9.5l-9 -18q-3 -6 -2.5 -12t3.5 -11.5t8.5 -8t11.5 -2.5h7q4 0 6.5 -3t2.5 -7v-66zM95 152h-7q-5 0 -7.5 4.5t-0.5 8.5l9 19q3 5 2.5 11t-3.5 11.5t-8.5 8.5t-11.5 3h-13q-7 0 -12.5 -3.5t-8.5 -10.5l-26 -53q-3 -5 -3 -10v-79q0 -10 7 -17 t17 -7h66q10 0 17 7t7 17v66q-1 10 -7.5 17t-16.5 7zM104 62q0 -4 -2.5 -7t-6.5 -3h-67q-4 0 -6.5 3t-2.5 7v79q0 2 1 4l27 54q2 5 8 5h13q5 0 8 -4.5t0 -9.5l-9 -18q-3 -5 -2.5 -11.5t4 -11.5t8.5 -8t11 -3h7q4 0 6.5 -3t2.5 -7v-66z" />
</svg>