<svg viewBox="0 0 256 256" xmlns="http://www.w3.org/2000/svg">
  <path transform="scale(1, -1) translate(0, -256)" fill="currentColor" d="M232 112h-63v40q0 20 10 37.5t27.5 27.5t37.5 10q3 0 5 2t2 5t-2 4.5t-5 1.5q-24 0 -44.5 -12t-32.5 -32.5t-12 -44.5v-117q0 -7 5.5 -13t13.5 -6h58q8 0 13.5 5.5t5.5 13.5v58q0 8 -5.5 14t-13.5 6zM237 34q0 -2 -1.5 -3.5t-3.5 -1.5h-58q-2 0 -3.5 1.5t-1.5 3.5v64h63 q2 0 3.5 -1.5t1.5 -4.5v-58zM94 226q3 0 5 2.5t2 5.5t-2 5t-5 2q-24 0 -44.5 -12t-32.5 -32.5t-12 -44.5v-117q0 -8 5.5 -13.5t13.5 -5.5h58q8 0 13.5 5.5t5.5 13.5v57q0 8 -5.5 14t-13.5 6h-63v40q0 20 10 37t27.5 27t37.5 10zM87 92v-58q0 -2 -1.5 -3.5t-3.5 -1.5h-58 q-2 0 -3.5 1.5t-1.5 3.5v64h63q2 0 3.5 -1.5t1.5 -4.5z" />
</svg>