<svg viewBox="0 0 1024 1024" xmlns="http://www.w3.org/2000/svg">
  <path transform="scale(1, -1) translate(0, -960)" fill="currentColor" d="M379 795h-265q-34 0 -58 -24t-24 -57v-266q0 -34 24 -58t58 -24h25q13 0 24.5 -6.5t18.5 -17.5q8 -10 8 -23.5t-6 -25.5l-37 -74q-9 -19 -8 -40.5t11 -39.5q11 -18 30 -28t41 -10h51q24 0 43.5 12t30.5 33l107 214q5 8 6.5 17.5t1.5 19.5v317q1 33 -23.5 57t-58.5 24v0z M430 397q0 -6 -1 -12t-3 -11l-109 -214q-6 -13 -18.5 -20t-26.5 -7h-51q-13 0 -24.5 6.5t-18.5 17.5q-8 11 -8 24t6 25l37 74q9 19 8 40.5t-11 39.5q-11 18 -30 28t-41 10h-25q-21 0 -35.5 15t-14.5 35v266q0 20 14.5 34.5t35.5 14.5h265q21 0 35.5 -14.5t14.5 -34.5v-317h1 zM910 795h-265q-34 0 -58 -24t-24 -57v-266q0 -34 24 -58t58 -24h25q14 0 25 -6.5t19 -17.5q7 -10 7 -23.5t-6 -25.5l-37 -74q-9 -19 -8 -40.5t12 -39.5q10 -18 29 -28t41 -10h51q24 0 43.5 12t30.5 33l107 214q5 8 6.5 17.5t1.5 19.5v317q0 33 -24 57t-58 24v0zM960 397 q0 -6 -1 -12t-4 -11l-107 -214q-6 -13 -18 -20t-27 -7h-51q-13 0 -24.5 6.5t-18.5 17.5t-7.5 24t5.5 25l37 74q10 19 9 40.5t-12 39.5t-30 28t-41 10h-25q-21 0 -35.5 15t-14.5 35v266q0 20 14.5 34.5t35.5 14.5h265q21 0 35.5 -14.5t14.5 -34.5v-317v0z" />
</svg>