<svg viewBox="0 0 256 256" xmlns="http://www.w3.org/2000/svg">
  <path transform="scale(1, -1) translate(0, -256)" fill="currentColor" d="M61 198q-19 1 -35 -10.5t-20 -28.5q-2 -10 0 -20.5t8.5 -19t16 -14t21.5 -7.5l14 -34q1 -3 3.5 -4.5t5.5 -1.5t5.5 1.5t3.5 4.5l8 18q13 30 19 47q4 13 2.5 25.5t-9.5 23.5q-14 20 -43 20zM98 133q-5 -14 -18 -44l-5 -11l-13 33l-5 1q-9 0 -17.5 4.5t-13.5 11.5 q-10 13 -6 28q3 12 14.5 20t26.5 8v0q21 0 32 -15q5 -7 6.5 -16.5t-1.5 -19.5zM242 177q-8 10 -19 15.5t-25 5.5v0q-20 0 -35.5 -11t-19.5 -28q-5 -22 8 -39q7 -9 16.5 -14.5t21.5 -7.5l14 -34q1 -3 3.5 -4.5t5.5 -1.5t5.5 1.5t3.5 4.5l8 18q13 29 19 47q4 12 2.5 25 t-8.5 23zM235 133q-5 -14 -18 -44l-5 -11l-13 33l-5 1q-9 0 -17.5 4.5t-13.5 11.5q-10 12 -6 28q3 12 14.5 20t26.5 8v0q21 0 32 -15q5 -7 6.5 -16.5t-1.5 -19.5z" />
</svg>