<svg viewBox="0 0 1024 1024" xmlns="http://www.w3.org/2000/svg">
  <path transform="scale(1, -1) translate(0, -960)" fill="currentColor" d="M910 530h-25q-13 0 -24.5 6.5t-18.5 17.5q-8 10 -8 23.5t6 25.5l37 74q9 19 8 40.5t-11 39.5q-11 18 -30 28t-41 10h-51q-24 0 -43.5 -12t-30.5 -33l-107 -214q-5 -8 -6.5 -17.5t-1.5 -19.5v-315q0 -34 24 -58t58 -24h265q34 0 58 24t24 58v264q0 34 -24 58t-58 24v0z M960 182q0 -20 -14.5 -34.5t-35.5 -14.5h-265q-21 0 -35.5 14.5t-14.5 34.5v317q0 6 1.5 12t3.5 11l107 214q6 13 18.5 20t26.5 7h51q13 0 24.5 -6.5t18.5 -17.5q8 -11 8 -24t-6 -25l-37 -74q-9 -19 -8 -40.5t11 -39.5q11 -18 30 -28t41 -10h25q21 0 35.5 -15t14.5 -35v-266 v0zM379 530h-25q-14 0 -25 6.5t-19 17.5q-7 10 -7 23.5t6 25.5l37 74q9 19 8 40.5t-12 39.5q-10 18 -29 28t-41 10h-51q-24 0 -43.5 -12t-30.5 -33l-107 -214q-4 -8 -6 -17.5t-2 -19.5v-315q0 -34 24 -58t58 -24h265q34 0 58 24t24 58v264q1 34 -23.5 58t-58.5 24v0z M430 182q0 -20 -14.5 -34.5t-34.5 -14.5h-267q-21 0 -35.5 14.5t-14.5 34.5v317q0 6 1 12t4 11l107 214q6 13 18 20t27 7h51q13 0 24.5 -6.5t18.5 -17.5t7.5 -24t-5.5 -25l-37 -74q-10 -19 -9 -40.5t12 -39.5t30 -28t41 -10h25q21 0 35.5 -15t14.5 -35v-266h1z" />
</svg>