<svg viewBox="0 0 256 256" xmlns="http://www.w3.org/2000/svg">
  <path transform="scale(1, -1) translate(0, -256)" fill="currentColor" d="M101 174h-31q-7 0 -11 -4t-4 -10v-32q0 -6 4.5 -10.5t10.5 -4.5h3l1 -1l-5 -9q-3 -7 1.5 -14t12.5 -7h6q4 0 7.5 2t5.5 6l13 26q1 2 1 6v38q0 6 -4.5 10t-10.5 4zM102 122v0v0l-13 -26h-1h-6l-1 1l5 9q4 7 -0.5 14t-13.5 7h-3q-1 0 -1 1v32h1h32h1v-38zM186 174h-31 q-6 0 -10.5 -4t-4.5 -10v-32q0 -6 4.5 -10.5t10.5 -4.5h3l1 -1l-5 -9q-3 -7 1.5 -14t12.5 -7h6q4 0 7.5 2t5.5 6l13 26q2 2 2 6v38q-1 6 -5 10t-11 4zM187 122v0v0l-13 -26v0h-6l-1 1l4 9q4 7 -0.5 14t-12.5 7h-4v1v32v0h32h1v-38zM128 251q-33 0 -61.5 -16.5t-45 -45 t-16.5 -61.5t16.5 -61.5t45 -45t61.5 -16.5t61.5 16.5t45 45t16.5 61.5t-16.5 61.5t-45 45t-61.5 16.5zM128 19q-29 0 -54 14.5t-40 39.5t-15 55t15 54.5t39.5 39.5t54.5 15t55 -15t39.5 -40t14.5 -54.5t-14.5 -54.5t-39.5 -39.5t-55 -14.5z" />
</svg>