<svg viewBox="0 0 1024 1024" xmlns="http://www.w3.org/2000/svg">
  <path transform="scale(1, -1) translate(0, -960)" fill="currentColor" d="M992 438q0 42 -31 75t-62 55q-48 31 -91 46.5t-67 20.5q-13 55 -32 105t-42 86q-32 51 -59 62t-46 6q-14 -3 -28 -15.5t-22 -41.5q-34 23 -60.5 27.5t-48.5 -10.5q-8 -6 -17 -19.5t-10 -37.5q-1 -29 12 -66q12 -37 33 -76.5t48 -78.5t56 -72h-123q-50 0 -94 -17 q-44 -16 -78.5 -45.5t-56.5 -69.5q-23 -39 -29 -86q-46 3 -79 -29t-33 -78q0 -44 31 -75.5t75 -31.5q16 0 31.5 5t28.5 14q36 -43 87 -67t107 -24h221q19 0 35.5 10t25.5 27h158q36 0 62 26t26 62t-26 62t-62 26h-18q8 27 10 56t-3 57h61q45 0 77.5 33t32.5 79v0zM570 862 q15 4 33 -10t37 -44q19 -31 36.5 -73.5t29.5 -89.5q-11 5 -19.5 11t-16.5 14l-129 143q2 15 8.5 30.5t20.5 18.5v0zM800 358q-4 0 -7 -1t-6 -5q-2 -4 -3 -6.5t0 -6.5q7 -33 4.5 -68t-14.5 -68q-1 -3 -0.5 -7.5t2.5 -6.5q2 -4 5.5 -5.5t7.5 -1.5h40q23 0 39.5 -16.5 t16.5 -39.5q0 -22 -16.5 -39t-39.5 -17h-149v1v1q0 29 -21 49.5t-49 20.5h-44q-6 62 -52 105t-109 43h-37q-7 0 -11.5 -4.5t-4.5 -11.5q0 -8 4.5 -12t11.5 -4h40q50 0 87 -33t43 -83h-68q-7 0 -11.5 -4t-4.5 -12q0 -7 4.5 -11.5t11.5 -4.5h143q15 0 26.5 -11t11.5 -27 t-11.5 -28t-26.5 -12h-221q-53 0 -100.5 24t-77.5 67q-2 3 -4.5 5t-6.5 2q-3 0 -6.5 -1.5t-6.5 -3.5q-10 -10 -23 -15.5t-28 -5.5q-30 0 -51.5 22t-21.5 53q0 35 27 58t62 16q4 -1 7.5 0t5.5 3t4 5t2 6q3 43 23 81q19 37 50 64.5t71 43.5t85 16h160q5 0 9 2.5t6 7.5q2 4 1 9 t-5 8q-33 33 -63 74t-52.5 82t-36.5 78q-13 37 -12 62q0 11 3.5 19t10.5 13q18 13 45 -1.5t45 -30.5l134 -147q13 -14 29 -24t35 -16l14 -3v0v0h2h2q19 -4 62.5 -18t92.5 -46q26 -18 52 -44.5t26 -58.5t-23 -55t-55 -23h-85v-2z" />
</svg>