<svg viewBox="0 0 256 256" xmlns="http://www.w3.org/2000/svg">
  <path transform="scale(1, -1) translate(0, -256)" fill="currentColor" d="M251 126q0 18 -24 34q-19 13 -39 17q-8 30 -19 47q-14 23 -29 18q-9 -2 -14 -12q-16 10 -27 2q-7 -5 -7.5 -17.5t9.5 -32t24 -37.5h-25q-24 0 -43.5 -15.5t-23.5 -38.5q-12 -1 -20 -9.5t-8 -20.5t8.5 -20.5t20.5 -8.5q8 0 15 3q9 -10 22 -16t27 -6h55q11 0 17 9h38 q10 0 17.5 7.5t7.5 18t-7.5 18t-17.5 7.5h-1q2 11 1 22h12q13 0 22 9t9 22zM143 229q6 1 14.5 -13t13.5 -32l-33 36q2 7 5 9zM200 109q-3 0 -5.5 -3t-1.5 -6q4 -17 -2 -32q-1 -3 1 -6.5t5 -3.5h10q5 0 8 -3t3 -8t-3 -8t-8 -3h-34q-1 7 -6.5 12t-13.5 5h-9q-2 16 -14 26.5 t-29 10.5h-9q-3 0 -5 -2t-2 -5t2 -5t5 -2h10q10 0 18 -6.5t11 -16.5h-13q-3 0 -5.5 -2t-2.5 -5t2.5 -5.5t5.5 -2.5h35q3 0 5 -1.5t2 -4.5t-2 -4.5t-5 -1.5h-55q-13 0 -24 5.5t-18 15.5q-2 3 -5.5 3t-5.5 -2q-4 -4 -10.5 -4t-11 4.5t-4.5 11t5.5 11.5t13.5 3q3 0 5.5 2t2.5 5 q1 21 17 35.5t37 14.5h40q5 0 7 4t-2 8q-16 16 -28 38t-12 34q0 4 2 5q5 4 19 -7l33 -37q7 -8 17 -11l4 -1q20 -4 38 -15q7 -5 12 -10q6 -7 6 -13.5t-4.5 -11.5t-11.5 -5h-20z" />
</svg>