<svg viewBox="0 0 1024 1024" xmlns="http://www.w3.org/2000/svg">
  <path transform="scale(1, -1) translate(0, -960)" fill="currentColor" d="M133 886q-42 0 -71.5 -30t-29.5 -70q0 -42 29.5 -71.5t71.5 -29.5t71.5 29.5t29.5 71.5q-2 40 -31 70t-70 30zM133 717q-29 0 -49 20t-20 49q0 28 20 48t49 20t49 -20t20 -48q0 -29 -21 -49t-48 -20zM133 549q-42 0 -71.5 -29.5t-29.5 -71.5t29.5 -71.5t71.5 -29.5 t71.5 29.5t29.5 71.5t-30 71.5t-71 29.5v0zM133 379q-29 0 -49 20t-20 49t20 49t49 20t49 -20t20 -49q-2 -29 -22 -49t-47 -20zM133 211q-42 0 -71.5 -29.5t-29.5 -71.5t29.5 -71t71.5 -29t71.5 29t29.5 71t-30 71.5t-71 29.5zM133 42q-29 0 -49 20t-20 48q0 29 20 49t49 20 t49 -20t20 -49q0 -28 -21 -48t-48 -20zM386 770h590q7 0 11.5 4t4.5 12q0 7 -4.5 11.5t-11.5 4.5h-590q-8 0 -12 -4.5t-4 -11.5q0 -8 4 -12t12 -4zM976 464h-590q-8 0 -12 -4.5t-4 -11.5t4 -11.5t12 -4.5h590q7 0 11.5 4.5t4.5 11.5t-4.5 11.5t-11.5 4.5zM976 126h-590 q-8 0 -12 -4t-4 -12q0 -7 4 -11.5t12 -4.5h590q7 0 11.5 4.5t4.5 11.5q0 8 -4.5 12t-11.5 4z" />
</svg>