<svg viewBox="0 0 256 256" xmlns="http://www.w3.org/2000/svg">
  <path transform="scale(1, -1) translate(0, -256)" fill="currentColor" d="M33 240q-11 0 -19.5 -8t-8.5 -19.5t8.5 -20t20 -8.5t19.5 8.5t8 20t-8 19.5t-20 8zM33 198q-6 0 -10 4.5t-4 10t4 9.5t10 4t10 -4t4 -9.5t-4 -10t-10 -4.5zM33 156q-11 0 -19.5 -8.5t-8.5 -20t8.5 -19.5t20 -8t19.5 8.5t8 20t-8 19.5t-20 8zM33 114q-6 0 -10 4t-4 10 t4 10t10 4t10 -4t4 -10t-4 -10t-10 -4zM33 72q-11 0 -19.5 -8.5t-8.5 -20t8.5 -19.5t20 -8t19.5 8t8 19.5t-8 20t-20 8.5zM33 30q-5 0 -9.5 4t-4.5 9.5t4 10t10 4.5t10 -4.5t4 -10t-4 -9.5t-10 -4zM96 205h148q3 0 5 2t2 5t-2 5t-5 2h-148q-3 0 -5 -2t-2 -5t2 -5t5 -2z M244 135h-148q-3 0 -5 -2t-2 -5t2 -5.5t5 -2.5h148q3 0 5 2.5t2 5.5t-2 5t-5 2zM244 51h-148q-3 0 -5 -2t-2 -5t2 -5.5t5 -2.5h148q3 0 5 2.5t2 5.5t-2 5t-5 2z" />
</svg>