<svg viewBox="0 0 256 256" xmlns="http://www.w3.org/2000/svg">
  <path transform="scale(1, -1) translate(0, -256)" fill="currentColor" d="M231 182q-17 18 -42 23q-14 22 -37 30q-10 4 -24 4q-19 0 -35 -9t-25.5 -25t-10.5 -35q-22 -2 -37 -18t-15 -38q0 -15 7.5 -28t20.5 -21q1 -1 3 -1q5 0 6.5 3t0.5 6t-3 4q-10 6 -15.5 15.5t-5.5 21.5q0 18 12.5 30t30.5 12h2q3 0 5 2.5t2 5.5v4q0 16 8 29t21 21t29 8 q9 0 18 -4q21 -7 32 -27q2 -3 5 -3q11 -2 20.5 -6.5t17 -13t12 -19t4.5 -21.5q0 -16 -8 -29.5t-21 -22.5q-2 -1 -3 -4t0.5 -5.5t4.5 -3t5 0.5q17 11 26.5 27.5t9.5 36.5q-1 14 -6 27t-15 23zM86 92q-3 0 -5 -2.5t-2 -5.5v-60q0 -3 2 -5t5 -2t5.5 2t2.5 5v61q-1 3 -3 5t-5 2z M128 112q-3 0 -5 -2t-2 -5v-61q0 -3 2 -5t5 -2t5 2t2 5v61q0 3 -2 5t-5 2zM170 92q-3 0 -5.5 -2.5t-2.5 -5.5v-60q0 -3 2.5 -5t5.5 -2t5 2t2 5v61q0 3 -2 5t-5 2z" />
</svg>