<svg viewBox="0 0 1024 1024" xmlns="http://www.w3.org/2000/svg">
  <path transform="scale(1, -1) translate(0, -960)" fill="currentColor" d="M915 656q-32 36 -76 58.5t-92 29.5q-25 43 -62.5 74.5t-82.5 47.5q-20 7 -42 11.5t-46 4.5q-57 0 -107 -22q-49 -22 -86.5 -59t-58.5 -87q-22 -50 -22 -106v-2q-44 -1 -82 -19q-38 -17 -66 -46t-44 -67t-16 -82q0 -58 28 -107t78 -79q2 -1 3.5 -1h4.5t7.5 2t6.5 6 q4 6 2 12.5t-8 9.5q-42 24 -66 66t-24 91q0 77 53 129.5t129 52.5h8q8 0 12 4.5t4 11.5v18q0 50 19 94q20 43 52.5 75.5t76.5 51.5t94 19q22 0 41 -3.5t36 -9.5q42 -14 76.5 -44t56.5 -69q2 -4 5 -6t7 -2q45 -5 86 -25.5t71 -53.5q33 -36 50 -80.5t17 -92.5 q0 -66 -31.5 -122.5t-88.5 -91.5q-6 -4 -7 -10t3 -12q3 -6 9.5 -7.5t12.5 2.5q65 38 100.5 102.5t35.5 138.5q0 54 -20 104t-57 90v0zM346 291q-8 0 -12 -4.5t-4 -11.5v-243q0 -7 4 -11.5t12 -4.5q7 0 11.5 4.5t4.5 11.5v243q0 6 -5 11t-11 5zM512 371q-7 0 -11.5 -4.5 t-4.5 -11.5v-243q0 -7 4.5 -11.5t11.5 -4.5t11.5 4.5t4.5 11.5v243q0 7 -4.5 11.5t-11.5 4.5zM678 291q-7 0 -11.5 -4.5t-4.5 -11.5v-243q0 -7 4.5 -11.5t11.5 -4.5q8 0 12 4.5t4 11.5v243q0 6 -4 11t-12 5z" />
</svg>