<svg viewBox="0 0 1024 1024" xmlns="http://www.w3.org/2000/svg">
  <path transform="scale(1, -1) translate(0, -960)" fill="currentColor" d="M990 293q-14 88 -57 163q-43 74 -107 128t-144 85q-81 30 -170 30t-170 -30q-80 -31 -144 -85t-107 -128q-43 -75 -57 -163q-2 -4 -2 -7.5v-7.5q0 -14 5 -27t14 -25q12 -15 29 -23t35 -8v0h794q18 0 35 8t29 23q9 12 14 26t5 28v7t-2 6v0zM397 229q6 42 38.5 71.5 t76.5 29.5t76.5 -29t38.5 -72h-230v0zM659 229q-6 55 -47.5 94t-99.5 39t-99.5 -38.5t-47.5 -94.5h-139q3 56 26 106q24 49 62.5 86t89.5 58q51 22 108 22t108 -21q50 -21 89 -58t63 -87q23 -49 26 -106h-139zM830 229q-3 63 -29 118q-26 56 -68.5 97t-99.5 65t-121 24 t-121 -24q-56 -23 -99 -64.5t-69 -96.5q-26 -56 -29 -119h-79q-11 0 -21 4.5t-19 12.5q-2 3 -3.5 5.5t-2.5 4.5q-4 8 -5 16t0 16q14 82 54 152q40 69 99.5 119.5t135.5 79.5q75 28 159 28q83 0 159 -28q75 -29 134.5 -79.5t100.5 -119.5q40 -70 54 -152q1 -8 0 -15.5 t-5 -14.5q-1 -3 -2.5 -5.5t-3.5 -4.5q-7 -8 -17.5 -13t-22.5 -5h-79v-1z" />
</svg>