<svg viewBox="0 0 256 256" xmlns="http://www.w3.org/2000/svg">
  <path transform="scale(1, -1) translate(0, -256)" fill="currentColor" d="M251 90q-5 29 -22.5 53t-44 37.5t-56.5 13.5t-56.5 -13.5t-44 -37.5t-22.5 -53v-5q0 -8 5 -14q8 -9 19 -9h198q11 0 19 9q5 7 5 15v4zM103 76q2 9 9 14.5t16 5.5t16 -5.5t9 -14.5h-50zM168 76q-3 15 -14 24.5t-26 9.5t-26 -9.5t-14 -24.5h-29q2 18 11.5 32t24.5 22 t32.5 8t32.5 -8t24.5 -22t11.5 -32h-28zM210 76q-1 21 -12.5 38.5t-30 27.5t-39.5 10t-39.5 -10t-30 -27.5t-12.5 -38.5h-17q-5 0 -7.5 3t-2.5 7v2q4 26 20 47t39 33t50 12t50 -12t38.5 -33t20.5 -48v-2q0 -3 -3 -6t-7 -3h-17z" />
</svg>