<svg viewBox="0 0 1024 1024" xmlns="http://www.w3.org/2000/svg">
  <path transform="scale(1, -1) translate(0, -960)" fill="currentColor" d="M826 598q-9 2 -16.5 5t-15.5 5q1 5 1.5 10t2.5 12q17 87 5.5 151t-49.5 88q-39 21 -97.5 0.5t-120.5 -74.5q-5 -5 -12 -10t-12 -12q-4 3 -8 7t-8 9q-66 59 -127 81t-102 -1q-38 -22 -49.5 -83t4.5 -141q2 -9 4 -17t3 -15q-9 -1 -18 -4.5t-17 -6.5q-78 -28 -128 -69 t-50 -83q0 -46 52.5 -88.5t133.5 -68.5q7 -1 13.5 -4t13.5 -3q-1 -8 -4 -16.5t-3 -18.5q-15 -79 -3.5 -138t50.5 -81q38 -24 99.5 -2.5t124.5 79.5q5 5 10 9t11 8q4 -4 12 -10.5t15 -11.5q60 -54 118 -74t98 2q38 24 50.5 87t-4.5 147q-1 4 -2 12t-4 15q5 1 9 2t8 4 q84 25 139 67.5t55 87.5q-1 38 -52.5 77.5t-129.5 66.5v0v0zM563 762q54 46 100.5 63t70.5 5q24 -13 32 -66t-8 -129q-1 -5 -1.5 -9t-2.5 -12q-33 8 -64.5 13.5t-65.5 7.5q-18 27 -38 53t-42 48q5 10 9.5 15.5t9.5 10.5v0zM341 347q7 -13 15 -25t17 -24q-24 1 -46 4.5 t-44 7.5q5 21 13 42.5t19 42.5q5 -11 12.5 -24t13.5 -24v0v0zM283 578q21 4 42.5 8t45.5 8q-8 -12 -15.5 -24.5t-13.5 -25.5t-13 -25t-14 -26q-11 23 -18 43.5t-14 41.5v0zM334 445q9 20 20.5 39t23.5 39q12 21 23.5 39.5t22.5 37.5q22 1 43.5 1.5t44.5 0.5q22 0 45 -1 t43 -1q13 -18 24.5 -37t21.5 -37q12 -18 22.5 -38t21.5 -40q-9 -20 -20.5 -39t-23.5 -39q-12 -21 -23.5 -39.5t-22.5 -37.5q-22 -1 -44 -1.5t-46 -0.5t-45.5 1t-42.5 1q-13 18 -24 37t-22 40q-11 20 -21 37t-21 38v0v0zM683 347q7 13 13.5 25.5t13.5 25.5q9 -20 17 -41.5 t15 -42.5q-21 -5 -44.5 -9t-47.5 -7q9 12 17.5 24.5t15.5 24.5v0v0zM712 494q-7 14 -13.5 26t-13.5 26q-7 13 -15 24t-14 22q24 -4 46 -7.5t42 -8.5q-7 -20 -15.5 -40.5t-16.5 -41.5zM512 710q16 -16 29.5 -33t26.5 -35q-29 1 -57.5 1t-57.5 -1q15 19 30.5 36t28.5 32v0z M288 829q24 13 74 -5.5t105 -71.5q4 -4 7.5 -7t8.5 -6q-21 -24 -42 -49.5t-41 -51.5q-32 -3 -65 -8t-65 -12q-1 7 -3 14.5t-3 13.5q-13 71 -6 120.5t30 62.5v0zM243 320q-5 1 -11.5 3t-12.5 3q-32 9 -64.5 25t-58.5 36q-17 12 -26 26.5t-12 31.5q0 26 42 57t108 55 q8 3 16.5 5t17.5 6q9 -32 21 -62.5t25 -60.5q-12 -30 -24 -60.5t-21 -64.5zM466 133q-24 -22 -52 -38.5t-59 -28.5q-17 -9 -34 -9t-33 7q-24 13 -31.5 60.5t4.5 117.5q1 8 3 16t3 16q33 -8 66 -12.5t64 -5.5q18 -26 39.5 -53t43.5 -51q-1 -7 -5.5 -11.5t-8.5 -7.5v0v0z M514 178q-16 16 -30 33t-28 35q13 0 26.5 -0.5t29.5 -0.5h30t28 1q-14 -15 -27.5 -32t-28.5 -36zM766 122q-1 -17 -9 -33.5t-23 -27.5q-24 -13 -68.5 3.5t-97.5 63.5q-5 5 -11.5 10t-12.5 12q22 24 42 50.5t38 53.5q34 2 66 8t64 13q1 -5 1.5 -11t2.5 -11q9 -34 10 -67 t-2 -64v0v0zM802 328q-4 -1 -8.5 -1.5t-9.5 -3.5q-10 33 -23 63t-27 60q14 29 25.5 60t21.5 62q8 -1 15.5 -4t13.5 -6q67 -24 109.5 -54.5t42.5 -57.5q1 -27 -43.5 -60.5t-116.5 -57.5v0zM512 358q37 0 62.5 26t25.5 62t-26 62t-62 26q-35 0 -61.5 -26t-26.5 -62t25.5 -62 t62.5 -26v0z" />
</svg>