<svg viewBox="0 0 256 256" xmlns="http://www.w3.org/2000/svg">
  <path transform="scale(1, -1) translate(0, -256)" fill="currentColor" d="M206 166q-1 0 -5 1l-3 1l2 6q4 21 1 37t-12.5 22t-24 0.5t-30.5 -18.5l-2 -2q-3 -2 -4 -4l-4 4q-17 15 -32 20.5t-25 0t-13 -21t2 -35.5l1 -8q-3 0 -9 -3q-19 -7 -31.5 -17t-12.5 -21t13 -21.5t33 -17.5l7 -1v-4q-1 -3 -1 -5q-4 -20 -1 -35t12.5 -20.5t25 0t30.5 19.5 l5 5q4 -4 7 -6q15 -14 29.5 -18.5t24.5 1t13 21t-1 36.5l-1 2q0 4 -1 5h1l4 2q21 6 34.5 16.5t13.5 21t-13 20.5t-33 17zM141 206q13 12 24.5 16.5t18 1t8 -17t-1.5 -31.5l-2 -5q-19 4 -32 5q-11 16 -20 25q2 3 5 6zM85 103q3 -5 8 -13q-10 1 -22 4q2 9 8 21zM71 160 q8 2 22 4q-5 -6 -7 -12l-7 -13q-3 6 -7 17zM84 127q2 5 8 15l14 24h22h22q4 -5 10 -15l2 -3q3 -5 8 -15l2 -5q-2 -5 -8 -15l-14 -24h-22h-22q-6 7 -12 19zM171 103l3 6l4 7q4 -12 8 -22q-8 -1 -24 -4q4 5 9 13zM178 140l-3 6l-4 6l-7 12q14 -2 22 -4zM128 194q7 -8 14 -18 q-14 1 -29 0zM72 223q6 4 19 -1t26 -18q2 -2 4 -3q-6 -6 -16 -19l-5 -6q-19 -3 -32 -6l-2 8q-3 17 -1.5 29.5t7.5 15.5zM61 96q-1 0 -2 1l-4 1q-17 4 -31 15q-8 5 -10 14q0 7 10.5 14.5t27.5 13.5l8 3q4 -14 12 -31l-2 -5q-7 -17 -9 -26zM116 49q-12 -11 -27 -17 q-9 -4 -17 0q-6 3 -8 15t1 29l2 8q17 -3 32 -4q8 -12 21 -26q0 -2 -4 -5zM128 60q-4 5 -13 16l-1 2h28zM192 46q-1 -9 -8 -15q-7 -3 -18 1.5t-24 15.5l-6 6q11 12 20 26q12 0 32 5l2 -6q3 -14 2 -33zM200 98h-1l-3 -1q-3 9 -10 26l-2 5q6 15 11 30q2 0 6 -2h1 q17 -6 27.5 -14t11 -14.5t-11 -15t-29.5 -14.5zM128 106q9 0 15.5 6.5t6.5 15.5t-6.5 15.5t-15.5 6.5t-15.5 -6.5t-6.5 -15.5t6.5 -15.5t15.5 -6.5z" />
</svg>