<svg viewBox="0 0 256 256" xmlns="http://www.w3.org/2000/svg">
  <path transform="scale(1, -1) translate(0, -256)" fill="currentColor" d="M128 251q-33 0 -61.5 -16.5t-45 -45t-16.5 -61.5t16.5 -61.5t45 -45t61.5 -16.5t61.5 16.5t45 45t16.5 61.5t-16.5 61.5t-45 45t-61.5 16.5zM128 19q-29 0 -54 14.5t-40 39.5t-15 55t15 54.5t39.5 39.5t54.5 15t55 -15t39.5 -40t14.5 -54.5t-14.5 -54.5t-39.5 -39.5 t-55 -14.5zM128 175q-20 0 -33.5 -13.5t-13.5 -33t14 -33.5t33 -14t33 14t14 33.5t-13.5 33t-33.5 13.5zM128 95q-14 0 -23.5 9.5t-9.5 23.5t9.5 23.5t23.5 9.5t23.5 -9.5t9.5 -23.5t-9.5 -23.5t-23.5 -9.5z" />
</svg>