<svg viewBox="0 0 1024 1024" xmlns="http://www.w3.org/2000/svg">
  <path transform="scale(1, -1) translate(0, -960)" fill="currentColor" d="M810 811h-167v56q0 25 -17.5 43t-43.5 18h-140q-26 0 -43.5 -18t-17.5 -43v-56h-167q-20 0 -34 -13.5t-14 -34.5v-85q0 -20 14 -34t34 -14h4v-556q0 -45 31 -75.5t74 -30.5h378q44 0 74.5 31t30.5 75v556h4q20 0 34 14t14 34v85q0 19 -14 33.5t-34 14.5v0zM413 867 q0 12 8.5 20.5t20.5 8.5h140q12 0 20.5 -8.5t8.5 -20.5v-56h-198v56v0zM774 74q0 -32 -21.5 -53t-51.5 -21h-378q-31 0 -52 22t-21 52v556h526v-556h-2zM826 678q0 -7 -4.5 -11.5t-11.5 -4.5h-596q-7 0 -11.5 4.5t-4.5 11.5v85q0 7 4.5 11.5t11.5 4.5h596q7 0 11.5 -4.5 t4.5 -11.5v-85zM406 227q3 0 5.5 1t4.5 2q5 4 6 11t-3 12q-13 18 -20 40t-7 45q0 10 1.5 21t4.5 20q4 11 8 20.5t10 18.5q4 4 7.5 9t6.5 10q5 5 5 11t-5 11q-4 5 -10.5 5t-11.5 -5t-9.5 -10.5t-9.5 -11.5q-7 -11 -13 -23t-10 -25q-3 -12 -5.5 -25t-2.5 -26q0 -29 8.5 -55.5 t25.5 -48.5q4 -3 7.5 -5t6.5 -2v0zM605 418q6 -10 10.5 -19.5t6.5 -19.5q4 -9 5.5 -20t1.5 -21q0 -23 -7 -45t-20 -40q-4 -5 -3 -12t6 -11q2 -1 4.5 -2t4.5 -1q4 0 7.5 1.5t5.5 5.5q17 22 25.5 48.5t8.5 55.5q0 13 -2.5 25.5t-5.5 25.5q-4 13 -9.5 25t-13.5 23 q-4 6 -8.5 11.5t-10.5 10.5q-5 5 -11 5t-11 -5t-5 -11t5 -11q5 -4 8.5 -8.5t7.5 -10.5z" />
</svg>