<svg viewBox="0 0 256 256" xmlns="http://www.w3.org/2000/svg">
  <path transform="scale(1, -1) translate(0, -256)" fill="currentColor" d="M202 222h-38v11q0 7 -5.5 12.5t-12.5 5.5h-36q-7 0 -12.5 -5.5t-5.5 -12.5v-11h-39q-6 0 -10.5 -4.5t-4.5 -10.5v-21q0 -6 3.5 -10t9.5 -5v-137q0 -12 8.5 -20.5t20.5 -8.5h95q12 0 20.5 8.5t8.5 20.5v137q6 1 9.5 5t3.5 10v21q0 6 -4 10.5t-11 4.5zM106 233q0 2 1.5 3 t2.5 1h36q1 0 2.5 -1t1.5 -3v-11h-44v11zM52 207q0 1 2 1h148q2 0 2 -1v-21q0 -2 -2 -2h-148q-2 0 -2 2v21zM175 19h-94q-7 0 -11.5 4.5t-4.5 10.5v136h126v-136q0 -6 -5 -10.5t-11 -4.5zM100 133l-2 -2l-3 -4q-4 -6 -6 -13t-2 -14q0 -15 9 -27q2 -3 5 -3t5 1.5t2.5 4.5 t-1.5 5q-6 9 -6 19q0 5 1 9t4 10l4 4q2 2 1.5 5t-2.5 5t-4.5 2t-4.5 -2zM160 127l-1 2l-3 4q-2 2 -5 2t-5 -2t-2.5 -5t1.5 -5l4 -4q3 -4 4 -9t1 -10q0 -10 -6 -19q-2 -3 -1.5 -5.5t2.5 -4t5 -1.5t5 3q9 12 9 27q0 7 -1.5 13.5t-6.5 13.5z" />
</svg>