<svg viewBox="0 0 256 256" xmlns="http://www.w3.org/2000/svg">
  <path transform="scale(1, -1) translate(0, -256)" fill="currentColor" d="M104 85h-37l10 19l11 -7q4 -3 8 0.5t2 7.5l-18 53q0 2 -2.5 3.5t-4.5 0.5l-56 -8q-2 0 -4 -1.5t-2.5 -4t0.5 -4.5t3 -3l11 -6l-19 -36q-2 -3 0 -7l3 -6q18 -32 27 -46q5 -8 11 -12t13 -4h44q3 0 5 2t2 5v47q0 3 -2 5t-5 2zM97 38h-36q-3 0 -6.5 2.5t-6.5 6.5 q-15 25 -28 49l21 38q1 2 0.5 5t-3.5 4l31 5l10 -29l-1 1q-3 1 -5.5 0.5t-4.5 -2.5l-20 -36q-2 -3 0.5 -6.5t5.5 -3.5h43v-34zM60 181l41 -23q1 -1 3 -1l2 1q3 0 5 3l21 37l11 -18l-11 -6q-2 -2 -2.5 -4t-0.5 -4q2 -5 7 -5l50 -3q4 0 6 4l24 45q3 4 -1 7.5t-8 1.5l-11 -6 l-22 34q-2 4 -6 4h-1q-39 0 -59 -1q-9 0 -16 -4t-10 -9l-24 -43q-2 -3 -1.5 -6t3.5 -4zM93 226q3 5 14 6q18 1 56 1l23 -37q2 -3 6 -3l-11 -22l-23 1l1 3q1 2 -1 5l-21 34q-2 4 -6 4t-6 -4l-23 -41l-29 16zM248 112l-18 36q-1 2 -4 3t-5 0l-42 -23q-3 -2 -3.5 -4.5t0.5 -4.5 l16 -30h-22v11q0 3 -1 5t-3 2q-5 2 -8 -2l-29 -40q-3 -3 -1 -7l26 -45q2 -3 6 -3h2q2 1 3.5 2.5t1.5 3.5v13h41q4 0 6 3l12 19q13 20 20 33q4 8 5 15t-3 13zM234 90q-7 -12 -25 -41l-5 -7h-43q-4 0 -6 -3l-12 21l13 19l2 -1q2 -2 4 -2l41 -1q4 0 6 3.5t0 6.5l-18 35l29 16 l16 -30q3 -6 -2 -16z" />
</svg>