<svg viewBox="0 0 1024 1024" xmlns="http://www.w3.org/2000/svg">
  <path transform="scale(1, -1) translate(0, -960)" fill="currentColor" d="M416 264h-170l58 102l56 -33q5 -3 9.5 -2.5t8.5 3.5q3 4 4.5 8.5t-0.5 9.5l-72 210q-2 6 -6.5 8.5t-10.5 2.5l-224 -34q-5 -1 -9 -4.5t-4 -8.5q-1 -4 1 -9t7 -8l53 -32l-83 -154q-3 -3 -3 -7.5t3 -8.5l12 -22t30.5 -54t39.5 -68q21 -37 39 -65q17 -28 40 -43t47 -15h174 q7 0 11.5 4.5t4.5 11.5v192q0 6 -4.5 11t-11.5 5v0zM400 74h-158q-16 0 -32 11t-28 32q-31 49 -67.5 113.5t-48.5 86.5l86 158q4 6 2 12.5t-8 8.5l-28 16l167 26l54 -156l-33 20q-3 1 -6.5 1.5t-6.5 -0.5q-4 -1 -6.5 -2.5t-3.5 -5.5l-77 -139q-2 -4 -2 -8t2 -8q3 -4 6.5 -6 t8.5 -2h181v-158h-2zM243 670l165 -92q2 -2 4 -2h4h2.5h2.5q3 1 5.5 2.5t3.5 5.5l93 165l61 -101l-53 -30q-5 -3 -7 -8t-1 -10t5.5 -8.5t9.5 -4.5l201 -11q5 0 9 2t6 6l96 181q2 5 1 10t-5 9q-3 4 -8.5 4.5t-10.5 -2.5l-53 -31l-92 147q-3 4 -6.5 6t-6.5 2q-1 0 -26 1 q-25 0 -61.5 -0.5t-78.5 -0.5q-43 -1 -77 -3q-33 -1 -57 -13.5t-36 -32.5l-95 -170q-3 -5 -1.5 -11t6.5 -10v0zM360 846q7 14 25 22t41 9q58 2 133 2.5t100 0.5l96 -154q4 -6 10 -7t11 3l19 11l-65 -125l-136 8l20 11q3 1 5 4t3 6q2 3 1 6t-2 7l-85 137q-2 4 -6 6t-8 2 q-5 0 -8.5 -2t-6.5 -6l-97 -174l-138 78l88 155v0zM982 379l-73 141q-1 2 -3.5 4.5t-6.5 3.5q-3 1 -6 1t-7 -3l-166 -89q-6 -4 -8 -10t2 -11l72 -138l-119 2l2 56q0 5 -3.5 9.5t-7.5 6.5q-5 1 -10.5 -0.5t-7.5 -5.5l-115 -159q-3 -3 -3.5 -8t1.5 -9l103 -178q2 -4 5.5 -6 t8.5 -2h2h1q5 1 8.5 5.5t4.5 8.5l3 61h175q3 0 7 2.5t5 5.5q1 1 15 22l32.5 52.5t40.5 67.5q22 36 39 66q15 29 18 56.5t-9 47.5v0zM946 291q-29 -51 -68.5 -114t-53.5 -84h-181q-6 0 -11 -4.5t-5 -11.5l-1 -23l-71 120l79 109v-21q0 -3 1 -5.5t3 -5.5q3 -2 5.5 -3.5 t6.5 -1.5l161 -1q5 0 8.5 2t6.5 6q2 3 2 7.5t-2 8.5l-77 147l139 75l66 -126v0v0q8 -13 6 -32.5t-14 -41.5v0z" />
</svg>