<svg viewBox="0 0 256 256" xmlns="http://www.w3.org/2000/svg">
  <path transform="scale(1, -1) translate(0, -256)" fill="currentColor" d="M74 112q0 -7 4.5 -11.5t11.5 -4.5t12 4.5t5 11.5t-5 12t-12 5t-11.5 -5t-4.5 -12zM149 112q0 -7 5 -11.5t12 -4.5t11.5 4.5t4.5 11.5t-4.5 12t-11.5 5t-12 -5t-5 -12zM128 51q27 0 40 13q1 1 1 3t-1 3.5t-3.5 1.5t-3.5 -2q-8 -9 -32.5 -9t-33.5 9q-1 2 -3.5 2t-3.5 -1.5 t-1 -3.5t1 -3q12 -13 40 -13zM183 35q13 5 22 11q16 10 24.5 24t8.5 29v8q6 4 10 10.5t4 13.5q0 11 -8.5 19.5t-19.5 8.5q-5 0 -10 -2t-8 -5q-29 19 -70 20l14 46l39 -10q0 -9 7 -16t16.5 -7t16.5 7t7 16.5t-7.5 16.5t-15.5 7t-14 -4t-8 -10l-44 9q-2 1 -3.5 0t-1.5 -3 l-17 -53q-21 0 -40 -5.5t-34 -14.5q-8 7 -19 7t-19.5 -8.5t-8.5 -19.5q0 -7 4 -13.5t10 -10.5v-8q0 -15 8.5 -28.5t24.5 -24.5q10 -6 23 -11l2 -1q20 -6 40 -8q38 -4 67 10zM212 223q6 0 10 -4t4 -10t-4 -10t-10 -4t-10 4t-4 10t4 10t10 4zM14 131q0 7 5.5 12.5t12.5 5.5 t11 -3q-16 -13 -22 -30q-7 6 -7 15zM128 34q-27 0 -50.5 9t-37 23.5t-13.5 32t13.5 32t37 23.5t50.5 9t50.5 -9t37 -23.5t13.5 -31.5t-13.5 -32t-37 -24t-50.5 -9zM236 117q-6 16 -23 29q4 4 11.5 4t12.5 -5.5t5 -14t-6 -13.5z" />
</svg>