<svg viewBox="0 0 1024 1024" xmlns="http://www.w3.org/2000/svg">
  <path transform="scale(1, -1) translate(0, -960)" fill="currentColor" d="M429 386q0 -28 -20 -48t-47 -20q-28 0 -48 20t-20 48q0 27 20 47t48 20q27 0 47 -20t20 -47zM730 386q0 -28 -20 -48t-48 -20q-27 0 -47 20t-20 48q0 27 20 47t47 20q28 0 48 -20t20 -47zM512 141q55 0 95 12.5t65 36.5q5 5 5 14t-5 14q-5 4 -13.5 4t-13.5 -4 q-18 -21 -51.5 -30t-81.5 -9t-81 9.5t-52 29.5q-5 4 -13.5 4t-13.5 -4q-5 -5 -5 -14t5 -14q25 -25 65 -37t95 -12v0zM731 75q24 10 46.5 21t43.5 24q63 42 98 97t35 114q0 9 -1 17t-1 15q24 16 40 41t16 55q0 47 -33 79.5t-79 32.5q-20 0 -40 -7.5t-34 -19.5 q-57 37 -128.5 57.5t-151.5 22.5l58 184l157 -38q0 -39 27.5 -66t65.5 -27q37 0 64.5 27.5t27.5 65.5q0 37 -28.5 65.5t-65.5 28.5q-29 0 -52 -15.5t-33 -40.5l-174 37q-7 2 -14 -1.5t-9 -11.5l-67 -211q-84 -1 -160 -22.5t-136 -57.5q-15 13 -34 20t-39 7q-47 0 -79.5 -33 t-32.5 -79q0 -30 15 -56t41 -40q-2 -8 -2 -16.5v-15.5q0 -60 34 -114.5t99 -96.5q20 -13 42 -24t47 -21q0 1 39 -12q39 -12 102 -21t141 -4q78 4 155 40v0zM848 827q22 0 39 -16t17 -40q0 -21 -16 -38.5t-40 -17.5q-22 0 -39 16t-17 40t16.5 40t39.5 16zM56 459q0 30 21 52 t53 22q12 0 23 -3.5t20 -9.5q-33 -25 -55.5 -55t-34.5 -63q-13 10 -20 25t-7 32v0zM512 74q-83 0 -157 20q-73 20 -128 55t-86 82q-32 46 -32 99q0 52 32 99q31 46 86 81.5t128 56.5q74 20 157 20t157 -20q73 -21 128 -56t86 -81q32 -47 32 -99t-32 -99q-31 -47 -86 -82 t-128 -56q-74 -20 -157 -20zM942 403q-12 33 -34.5 62.5t-54.5 56.5q9 7 20 9.5t23 2.5q30 0 52 -21t22 -52q-2 -18 -9 -33t-19 -25z" />
</svg>