<svg viewBox="0 0 1024 1024" xmlns="http://www.w3.org/2000/svg">
  <path transform="scale(1, -1) translate(0, -960)" fill="currentColor" d="M314 696h-202q-34 0 -57 -23t-23 -57v-328q0 -34 23 -57t57 -23h202q33 0 56.5 23t23.5 57v328q0 34 -23.5 57t-56.5 23zM362 288q0 -20 -14 -34t-34 -14h-202q-20 0 -34 14t-14 34v328q0 20 14 34t34 14h202q20 0 34 -14t14 -34v-328zM912 696h-202q-33 0 -56.5 -23 t-23.5 -57v-328q0 -34 23.5 -57t56.5 -23h202q34 0 57 23t23 57v328q0 34 -23 57t-57 23zM960 288q0 -20 -14 -34t-34 -14h-202q-20 0 -34 14t-14 34v328q0 20 14 34t34 14h202q20 0 34 -14t14 -34v-328zM512 858q-7 0 -11.5 -4.5t-4.5 -11.5v-68q0 -7 4.5 -11.5t11.5 -4.5 t11.5 4.5t4.5 11.5v68q0 7 -4.5 11.5t-11.5 4.5zM512 618q-7 0 -11.5 -4.5t-4.5 -11.5v-68q0 -7 4.5 -11.5t11.5 -4.5t11.5 4.5t4.5 11.5v68q0 7 -4.5 11.5t-11.5 4.5zM512 378q-7 0 -11.5 -4.5t-4.5 -11.5v-68q0 -7 4.5 -11.5t11.5 -4.5t11.5 4.5t4.5 11.5v68 q0 7 -4.5 11.5t-11.5 4.5zM512 138q-7 0 -11.5 -4.5t-4.5 -11.5v-68q0 -7 4.5 -11.5t11.5 -4.5t11.5 4.5t4.5 11.5v68q0 7 -4.5 11.5t-11.5 4.5z" />
</svg>