<svg viewBox="0 0 256 256" xmlns="http://www.w3.org/2000/svg">
  <path transform="scale(1, -1) translate(0, -256)" fill="currentColor" d="M78 193h-50q-10 0 -16.5 -6.5t-6.5 -16.5v-82q0 -10 6.5 -16.5t16.5 -6.5h50q10 0 17 6.5t7 16.5v82q0 10 -7 16.5t-17 6.5zM88 88q0 -4 -3 -6.5t-7 -2.5h-50q-4 0 -6.5 2.5t-2.5 6.5v82q0 4 2.5 6.5t6.5 2.5h50q4 0 7 -2.5t3 -6.5v-82zM228 193h-50q-10 0 -17 -6.5 t-7 -16.5v-82q0 -10 7 -16.5t17 -6.5h50q10 0 16.5 6.5t6.5 16.5v82q0 10 -6.5 16.5t-16.5 6.5zM237 88q0 -4 -2.5 -6.5t-6.5 -2.5h-50q-4 0 -7 2.5t-3 6.5v82q0 4 3 6.5t7 2.5h50q4 0 6.5 -2.5t2.5 -6.5v-82zM128 234q-3 0 -5 -2.5t-2 -5.5v-16q0 -3 2 -5.5t5 -2.5t5 2.5 t2 5.5v16q0 3 -2 5.5t-5 2.5zM128 174q-3 0 -5 -2.5t-2 -5.5v-16q0 -3 2 -5.5t5 -2.5t5 2.5t2 5.5v16q0 3 -2 5.5t-5 2.5zM128 114q-3 0 -5 -2.5t-2 -5.5v-16q0 -3 2 -5.5t5 -2.5t5 2.5t2 5.5v16q0 3 -2 5.5t-5 2.5zM128 53q-3 0 -5 -2t-2 -5v-17q0 -3 2 -5t5 -2t5 2t2 5v17 q0 3 -2 5t-5 2z" />
</svg>