<svg viewBox="0 0 256 256" xmlns="http://www.w3.org/2000/svg">
  <path transform="scale(1, -1) translate(0, -256)" fill="currentColor" d="M184 251h-112q-8 0 -13.5 -5.5t-5.5 -13.5v-208q0 -8 5.5 -13.5t13.5 -5.5h112q8 0 13.5 5.5t5.5 13.5v208q0 8 -5.5 13.5t-13.5 5.5zM72 237h112q2 0 3.5 -1.5t1.5 -3.5v-73h-122v73q0 2 1.5 3.5t3.5 1.5zM184 19h-112q-2 0 -3.5 1.5t-1.5 3.5v121h122v-121 q0 -2 -1.5 -3.5t-3.5 -1.5zM161 174q3 0 5 2t2 5v16q0 3 -2 5t-5 2t-5 -2t-2 -5v-16q0 -3 2 -5t5 -2zM161 128q-3 0 -5 -2t-2 -5v-16q0 -3 2 -5t5 -2t5 2t2 5v16q0 3 -2 5t-5 2z" />
</svg>