<svg viewBox="0 0 256 256" xmlns="http://www.w3.org/2000/svg">
  <path transform="scale(1, -1) translate(0, -256)" fill="currentColor" d="M19 128q0 30 15 55t40 39.5t54 14.5q23 0 44 -9.5t37 -26.5h-23q-3 0 -5 -2t-2 -5t2 -5t5 -2h38q3 0 5 2t2 4l2 32q0 3 -1.5 5t-4.5 2.5t-5 -1.5t-3 -5l-1 -15q-18 19 -41.5 29.5t-48.5 10.5q-34 0 -62 -16.5t-44.5 -45t-16.5 -62t17 -61.5q2 -3 6 -3l4 1q2 1 2.5 4 t-0.5 5q-15 25 -15 55zM244 168q0 3 -3 4t-5.5 0.5t-4 -3.5t-0.5 -5q6 -17 6 -36q0 -29 -14.5 -54.5t-39.5 -40t-55 -14.5q-33 0 -60 18h18q3 0 5 2t2 5t-2 5t-5 2h-38q-2 0 -4 -2t-2 -4l-3 -32q0 -3 2 -5t5 -3v0q3 0 5 2t2 5l1 18q16 -12 35 -18.5t39 -6.5q34 0 62 16.5 t44.5 45t16.5 61.5q0 20 -7 40zM128 84q3 0 5 2t2 5v30h30q3 0 5 2t2 5t-2 5t-5 2h-30v30q0 3 -2 5t-5 2t-5 -2t-2 -5v-30h-30q-3 0 -5 -2t-2 -5t2 -5t5 -2h30v-30q0 -3 2 -5t5 -2z" />
</svg>