<svg viewBox="0 0 1024 1024" xmlns="http://www.w3.org/2000/svg">
  <path transform="scale(1, -1) translate(0, -960)" fill="currentColor" d="M64 448q0 92 35 174q36 81 96.5 142t142.5 97q82 35 174 35q51 0 100 -11q49 -12 93.5 -33.5t84.5 -52.5q39 -31 71 -71h-115q-8 0 -12 -4.5t-4 -11.5t4 -11.5t12 -4.5h150q6 0 11 4t5 10l10 128q0 8 -4.5 12.5t-10.5 5.5q-7 0 -11.5 -4t-5.5 -10l-7 -90q-34 41 -76 74 t-89.5 55.5t-99.5 34.5t-106 12q-99 0 -186 -38q-88 -38 -153 -103t-103 -153q-38 -87 -38 -186q0 -64 16.5 -125t49.5 -115q2 -4 5.5 -6t8.5 -2h4t4 2q6 3 7.5 9.5t-1.5 12.5q-31 50 -46.5 107.5t-15.5 116.5v0zM966 603q-2 6 -7.5 9t-12.5 1q-6 -3 -9 -8.5t-1 -12.5 q12 -35 18 -71.5t6 -74.5q0 -92 -35 -174q-36 -81 -96.5 -142t-142.5 -96q-82 -36 -174 -36q-76 0 -147 25t-130 71h109q7 0 11.5 4.5t4.5 11.5q0 8 -4.5 12t-11.5 4h-150q-6 0 -11 -4t-5 -10l-10 -128q0 -7 4 -11.5t10 -6.5h1h1q6 0 11 4.5t5 10.5l8 96q32 -27 68 -47 q35 -20 73.5 -34t79.5 -21t83 -7q99 0 186 38q88 38 153 103t103 153q38 87 38 186q0 40 -6 79t-20 76zM512 285q7 0 11.5 4.5t4.5 11.5v131h131q7 0 11.5 4.5t4.5 11.5t-4.5 11.5t-11.5 4.5h-131v131q0 7 -4.5 11.5t-11.5 4.5t-11.5 -4.5t-4.5 -11.5v-131h-131 q-7 0 -11.5 -4.5t-4.5 -11.5t4.5 -11.5t11.5 -4.5h131v-131q0 -7 4.5 -11.5t11.5 -4.5z" />
</svg>