<svg viewBox="0 0 1024 1024" xmlns="http://www.w3.org/2000/svg">
  <path transform="scale(1, -1) translate(0, -960)" fill="currentColor" d="M736 928h-448q-26 0 -45 -19t-19 -45v-832q0 -26 19 -45t45 -19h448q26 0 45 19t19 45v832q0 26 -19 45t-45 19zM288 896h448q13 0 22.5 -9.5t9.5 -22.5v-302h-512v302q0 13 9.5 22.5t22.5 9.5zM736 0h-448q-13 0 -22.5 9.5t-9.5 22.5v498h512v-498q0 -13 -9.5 -22.5 t-22.5 -9.5zM643 642q7 0 11.5 4t4.5 12v64q0 7 -4.5 11.5t-11.5 4.5t-11.5 -4.5t-4.5 -11.5v-64q0 -6 4.5 -11t11.5 -5zM643 437q-7 0 -11.5 -4.5t-4.5 -11.5v-64q0 -7 4.5 -11.5t11.5 -4.5t11.5 4.5t4.5 11.5v64q0 7 -5 11.5t-11 4.5z" />
</svg>