<svg viewBox="0 0 256 256" xmlns="http://www.w3.org/2000/svg">
  <path transform="scale(1, -1) translate(0, -256)" fill="currentColor" d="M209 110q-2 2 -5 2t-5 -2t-2 -5t2 -5l33 -34l-212 -1l-1 1v40q0 3 -2 5.5t-5 2.5t-5.5 -2.5t-2.5 -5.5v-40q0 -6 4.5 -10.5t11.5 -4.5l212 1l-33 -35q-2 -2 -2 -5t2.5 -5t5 -2t5.5 2l37 41q4 4 4 10.5t-4 11.5zM247 199q-5 5 -11 5l-212 -1l34 36q2 2 2 5t-2 5t-5 2 t-5 -2l-39 -42q-4 -5 -4 -11.5t4 -11.5l37 -39q2 -2 5 -2t5 2t2.5 5t-1.5 5l-33 34l212 1l1 -2v-35q0 -3 2 -5t5 -2t5.5 2t2.5 5v35q-1 7 -5 11z" />
</svg>