<svg viewBox="0 0 1024 1024" xmlns="http://www.w3.org/2000/svg">
  <path transform="scale(1, -1) translate(0, -960)" fill="currentColor" d="M928 896h-832q-26 0 -45 -19t-19 -45v-768q0 -26 19 -45t45 -19h832q26 0 45 19t19 45v768q0 26 -19 45t-45 19zM96 864h832q13 0 22.5 -9.5t9.5 -22.5v-142h-896v142q0 13 9.5 22.5t22.5 9.5zM928 32h-832q-13 0 -22.5 9.5t-9.5 22.5v594h896v-594q0 -13 -9.5 -22.5 t-22.5 -9.5zM486 400q0 7 -4 11.5t-12 4.5h-108q18 43 58.5 69.5t89.5 26.5q41 0 77 -18t58 -51q3 -6 9.5 -7t12.5 2q6 4 7.5 10.5t-2.5 12.5q-26 38 -69 60.5t-93 22.5q-66 0 -118 -39t-69 -100q-1 -4 0 -7.5t3 -7.5q3 -2 6.5 -4t6.5 -2h131q6 0 11 5t5 11v0zM685 320h-117 q-7 0 -11.5 -4.5t-4.5 -11.5t4.5 -11.5t11.5 -4.5h94q-19 -47 -60 -75.5t-92 -28.5q-33 0 -64 14t-54 39q-5 5 -11.5 5t-10.5 -4q-5 -3 -5.5 -10t3.5 -12q28 -30 65.5 -47t76.5 -17q68 0 121 41.5t70 107.5q1 3 0 7t-3 7q-3 3 -6.5 4t-6.5 1v0z" />
</svg>