<svg viewBox="0 0 1024 1024" xmlns="http://www.w3.org/2000/svg">
  <path transform="scale(1, -1) translate(0, -960)" fill="currentColor" d="M134 515q3 0 5.5 0.5t4.5 1.5l178 62q6 3 9 9t0 12q-2 6 -8.5 9t-12.5 1l-148 -53q16 63 52 115t85.5 89.5t110.5 57.5q60 21 126 21q67 0 127 -21q61 -21 110.5 -59t85.5 -91q35 -52 51 -115q2 -6 8 -10t12 -2t9.5 8t1.5 12q-18 69 -57 126t-92.5 98.5t-119.5 64.5 t-138 23q-71 0 -136 -23q-65 -22 -118.5 -62.5t-91.5 -96.5q-39 -56 -57 -124l-53 150q-2 6 -8 9t-12 1t-9 -8.5t-1 -12.5l61 -174q3 -9 10.5 -13.5t14.5 -4.5v0zM974 157l-65 171q-3 5 -6.5 9t-8.5 5q-4 3 -9 3t-11 -3l-176 -67q-6 -2 -9 -8.5t-1 -12.5t8.5 -9t12.5 0 l153 57q-20 -56 -56 -102t-83.5 -79t-103.5 -50q-57 -18 -118 -18q-63 0 -120 18q-58 19 -106 53t-84 82q-37 48 -57 106q-2 6 -7.5 9t-12.5 1q-6 -3 -9 -8.5t-1 -12.5q22 -62 61 -113t91 -87.5t115 -56.5q62 -20 130 -20q65 0 126 19q60 19 111 53.5t90 83.5t62 108 l54 -142q2 -5 6 -7.5t8 -2.5h3t4 2q7 1 9.5 7t-0.5 12v0z" />
</svg>