<svg viewBox="0 0 256 256" xmlns="http://www.w3.org/2000/svg">
  <path transform="scale(1, -1) translate(0, -256)" fill="currentColor" d="M249 149q0 3 -2.5 4.5t-5.5 1t-4.5 -2.5t-0.5 -5q1 -8 1 -19q0 -29 -14.5 -54.5t-39.5 -40t-54.5 -14.5t-54.5 14.5t-40 39.5t-15 55t15 55t40 39.5t54 14.5q23 0 44 -9.5t37 -26.5l-13 4q-2 1 -5 0t-3.5 -4t0.5 -5.5t4 -3.5l36 -11q2 0 4.5 1.5t2.5 5.5v33q0 3 -2 5 t-5 2t-5.5 -2t-2.5 -5v-13q-17 21 -41 32t-51 11q-33 0 -61.5 -16.5t-45 -45t-16.5 -61.5t16.5 -61.5t45 -45t61.5 -16.5t61.5 16.5t45 45t16.5 61.5q0 9 -2 21zM128 78q3 0 5 2t2 5v31h31q3 0 5.5 2t2.5 5t-2.5 5t-5.5 2h-31v32q0 3 -2 5t-5 2t-5 -2t-2 -5v-32h-31 q-3 0 -5.5 -2t-2.5 -5t2.5 -5t5.5 -2h31v-31q0 -3 2 -5t5 -2z" />
</svg>