<svg viewBox="0 0 1024 1024" xmlns="http://www.w3.org/2000/svg">
  <path transform="scale(1, -1) translate(0, -960)" fill="currentColor" d="M829 366q-5 5 -11.5 5t-11.5 -5q-4 -4 -4 -10.5t4 -11.5l149 -155l0.5 -1t1.5 -1l-877 -3q-4 0 -6.5 1t-4.5 4q-3 2 -4 4.5t-1 6.5v162q0 7 -4.5 11.5t-11.5 4.5t-11.5 -4.5t-4.5 -11.5v-162q0 -10 3.5 -18t10.5 -16q8 -7 16 -10.5t18 -3.5v0v0l875 3v0v0l-149 -160 q-4 -5 -4 -11t6 -11q2 -3 5 -4t6 -1q4 0 6.5 1t4.5 4l149 160q13 15 13 37.5t-13 39.5l-150 156v0zM978 725q-8 7 -16 10.5t-18 3.5v0v0l-875 -3v0v0l157 165q4 5 4 11t-4 11q-5 5 -11.5 5t-11.5 -5l-158 -166q-13 -16 -13 -38t13 -39l149 -157q2 -2 5 -3.5t6 -1.5 q2 0 5.5 1.5t5.5 3.5q5 5 5 11.5t-5 11.5l-149 155v0.5t-1 0.5l878 5v0v0q4 0 6.5 -1t4.5 -4q3 -2 4 -4.5t1 -6.5v-141q0 -7 4.5 -11.5t11.5 -4.5t11.5 4.5t4.5 11.5v141q0 10 -3.5 18.5t-10.5 15.5v0z" />
</svg>