<svg viewBox="0 0 1024 1024" xmlns="http://www.w3.org/2000/svg">
  <path transform="scale(1, -1) translate(0, -960)" fill="currentColor" d="M984 530q-1 6 -6.5 10t-12.5 2q-6 -1 -10 -6.5t-3 -12.5q4 -19 5 -38t1 -39q0 -92 -35 -174q-35 -81 -96 -142t-143 -96q-81 -36 -174 -36q-92 0 -173 36q-82 36 -142.5 97t-95.5 143t-35 174t35 174q36 82 96.5 142.5t142.5 96.5q82 35 174 35q53 0 103 -12 q51 -12 97 -35.5t86 -56.5q41 -33 72 -75l-88 27q-6 2 -12 -1t-8 -10q-3 -6 0.5 -12.5t10.5 -8.5l136 -42h2h3t4.5 1t4.5 3q4 2 5.5 5.5t1.5 6.5v133q0 7 -4.5 11.5t-11.5 4.5q-8 0 -12 -4.5t-4 -11.5v-83q-35 45 -79 81q-43 35 -92.5 60t-103.5 38q-55 13 -111 13 q-99 0 -186 -38q-88 -38 -153 -103t-103 -153q-38 -87 -38 -186t38 -186q38 -88 103 -153t153 -103q87 -38 186 -38t186 38q88 38 153 103t103 153q38 87 38 186q0 20 -2 40.5t-6 41.5v0zM512 259q7 0 11.5 4.5t4.5 11.5v136h136q7 0 11.5 4.5t4.5 11.5t-4.5 11.5t-11.5 4.5 h-136v136q0 7 -4.5 11.5t-11.5 4.5t-11.5 -4.5t-4.5 -11.5v-136h-136q-7 0 -11.5 -4.5t-4.5 -11.5t4.5 -11.5t11.5 -4.5h136v-136q0 -7 4.5 -11.5t11.5 -4.5z" />
</svg>