<svg viewBox="0 0 1024 1024" xmlns="http://www.w3.org/2000/svg">
  <path transform="scale(1, -1) translate(0, -960)" fill="currentColor" d="M715 382q-5 5 -11 5t-11 -5q-5 -4 -5 -10.5t5 -11.5l83 -83l-536 -2q-2 0 -2.5 1l-0.5 1v0.5v0.5v52q0 7 -4.5 11.5t-11.5 4.5t-11.5 -4.5t-4.5 -11.5v-52q0 -7 2.5 -13t6.5 -11q5 -4 12 -7.5t14 -3.5v0v0l534 2l-81 -85q-5 -5 -5 -11.5t5 -10.5q2 -3 4.5 -4t6.5 -1 t6.5 1t4.5 4l95 96q9 12 9 27t-11 27l-93 94v0zM784 650h-0.5t0.5 0l-534 -2l86 88q5 5 5 11.5t-5 10.5q-5 5 -11.5 5t-10.5 -5l-100 -99q-9 -12 -9 -27t11 -27l93 -93q2 -2 5.5 -3.5t5.5 -1.5q4 0 6.5 1.5t4.5 3.5q5 5 5 11.5t-5 10.5l-83 84h536v0v0q1 0 2 -0.5t1 -1.5v-1 v-1v-38q0 -7 4.5 -11.5t11.5 -4.5t11.5 4.5t4.5 11.5v38q0 8 -2.5 14t-6.5 10q-6 6 -12.5 9t-13.5 3v0zM928 928h-832q-26 0 -45 -19t-19 -45v-832q0 -26 19 -45t45 -19h832q26 0 45 19t19 45v832q0 26 -19 45t-45 19zM960 32q0 -13 -9.5 -22.5t-22.5 -9.5h-832 q-13 0 -22.5 9.5t-9.5 22.5v832q0 13 9.5 22.5t22.5 9.5h832q13 0 22.5 -9.5t9.5 -22.5v-832z" />
</svg>