<svg viewBox="0 0 256 256" xmlns="http://www.w3.org/2000/svg">
  <path transform="scale(1, -1) translate(0, -256)" fill="currentColor" d="M232 243h-208q-8 0 -13.5 -5.5t-5.5 -13.5v-192q0 -8 5.5 -13.5t13.5 -5.5h208q8 0 14 5.5t6 13.5v192q-1 8 -6.5 13.5t-13.5 5.5zM24 229h208q2 0 3.5 -1.5t1.5 -3.5v-33h-218v33q0 2 1.5 3.5t3.5 1.5zM232 27h-208q-2 0 -3.5 1.5t-1.5 3.5v145h218v-145q0 -2 -1.5 -3.5 t-3.5 -1.5zM124 116q0 3 -2 5t-5 2h-22q5 8 13.5 13t18.5 5t18 -4t13 -12q2 -2 5 -2.5t5 1t3 4t-1 5.5q-7 10 -18.5 16t-24.5 6q-17 0 -31 -10.5t-18 -26.5q-1 -4 1 -6.5t5 -2.5h33q3 0 5 2t2 5zM171 99h-29q-3 0 -5 -2t-2 -5t2 -5t5 -2h19q-5 -9 -14 -14.5t-20 -5.5 q-16 0 -27 12q-3 2 -5.5 2.5t-5 -2t-2.5 -5t2 -4.5q7 -8 17 -12.5t21 -4.5q18 0 32 11t19 28q0 4 -1.5 6.5t-5.5 2.5z" />
</svg>