<svg viewBox="0 0 256 256" xmlns="http://www.w3.org/2000/svg">
  <path transform="scale(1, -1) translate(0, -256)" fill="currentColor" d="M30 142h3l44 16q3 1 4.5 3.5t0.5 5.5t-3.5 4t-5.5 0l-27 -9q10 27 34 44t55.5 17t56.5 -19.5t33 -50.5q1 -2 3.5 -4t5 -1t4 3.5t1.5 4.5q-6 24 -21.5 42t-37 28t-46.5 10q-36 0 -64.5 -21t-38.5 -54l-12 35q-1 2 -3.5 3.5t-5.5 0.5t-4 -3.5t0 -5.5l15 -43q1 -3 3.5 -4.5 t5.5 -1.5zM250 56l-16 44q-1 4 -5.5 5t-6.5 0l-44 -17q-3 -1 -4.5 -4t0 -5.5t4 -3.5t5.5 0l27 10q-11 -24 -34 -38t-50 -14q-31 0 -55.5 17t-33.5 46q-1 2 -3.5 3.5t-5.5 0.5t-4 -3.5t0 -5.5q10 -32 38 -52t62 -20t61 18t39 47l13 -33q2 -4 7 -4h2q3 1 4.5 4t-0.5 5z" />
</svg>