<svg viewBox="0 0 1024 1024" xmlns="http://www.w3.org/2000/svg">
  <path transform="scale(1, -1) translate(0, -960)" fill="currentColor" d="M906 653h-176l-152 152q7 8 10.5 19.5t3.5 23.5q0 34 -23 57t-57 23t-57 -23t-23 -57q0 -12 3.5 -23.5t9.5 -21.5l-152 -152h-176q-25 0 -43 -17.5t-18 -43.5v-33q0 -24 17 -41.5t41 -19.5l99 -368q1 -5 5.5 -8t10.5 -3h86q18 -65 72 -107t125 -42t125 42t73 107h87 q6 0 10.5 3t5.5 8l97 370q24 1 41 18.5t17 41.5v34q-1 25 -19 43t-43 18v0zM512 896q20 0 34 -14.5t14 -33.5q0 -10 -3.5 -19t-10.5 -15v0v0v0v0q-6 -7 -15 -10.5t-19 -3.5t-19 3.5t-15 10.5v0v0v0v0q-7 6 -10.5 15t-3.5 19q0 19 14 33.5t34 14.5zM467 781q10 -6 21.5 -9.5 t23.5 -3.5t23.5 3.5t21.5 9.5l129 -130h-347l128 130v0zM512 0q-72 0 -123 51t-51 123t51 123.5t123 51.5t123 -51.5t51 -123.5t-51 -123t-123 -51zM784 149h-67q1 6 1 12.5v12.5q0 43 -16 81q-16 37 -44 65t-66 45q-37 16 -80 16t-80 -16q-38 -17 -66 -45t-44 -65 q-16 -38 -16 -81v-13t1 -12h-67l-93 349h728zM934 558q0 -12 -8 -20t-20 -8h-8v0v0h-772v0v0h-8q-12 0 -20 8t-8 20v34q0 12 8 20.5t20 8.5h788q12 0 20 -8.5t8 -20.5v-34zM576 190h-128q-7 0 -11.5 -4t-4.5 -12q0 -7 4.5 -11.5t11.5 -4.5h128q7 0 11.5 4.5t4.5 11.5 q0 8 -5 12t-11 4z" />
</svg>