<svg viewBox="0 0 1024 1024" xmlns="http://www.w3.org/2000/svg">
  <path transform="scale(1, -1) translate(0, -960)" fill="currentColor" d="M946 243l-100 99q-24 24 -58 24t-58 -24l-40 -40l-116 116l101 100l167 45q21 6 37 22t22 37l46 172q1 6 -2 12t-9 7t-12 -2t-7 -9l-47 -172q-3 -13 -13 -23t-23 -13l-172 -47q-2 0 -3.5 -1t-2.5 -4l-104 -104l-83 84l104 104q1 1 2 3t3 3l46 171q4 13 14 23t23 14 l171 46q6 2 9 8t2 12t-7 9.5t-12 1.5l-174 -43q-22 -6 -38 -22t-22 -38l-44 -166l-101 -101l-106 106q-2 2 -3.5 2.5t-4.5 2.5l13 12q22 22 24 53t-16 56l-69 91q-11 15 -27 23t-34 9q-18 2 -35 -4t-29 -20l-65 -68q-13 -14 -19 -30t-5 -34t9 -34t23 -27l91 -69 q11 -8 23.5 -12t26.5 -4q15 0 31 6t28 18l13 13q0 -3 1 -5t3 -3l106 -106l-126 -126l-168 -43q-22 -6 -38 -22t-22 -38l-35 -132q-6 -22 0 -43.5t23 -38.5l49 -50q12 -12 27.5 -18t31.5 -6q6 0 11.5 1t11.5 3l133 35q21 6 37 21.5t22 37.5l45 166l126 127l115 -115l-40 -40 q-24 -24 -24 -58.5t24 -58.5l99 -99q22 -22 51 -34.5t60 -12.5t60 12t50 35q22 21 34.5 50t12.5 60t-13 57.5t-35 49.5v0zM277 646q-13 -13 -32.5 -14t-34.5 10l-92 68q-8 8 -13.5 17t-5.5 20q-1 11 3 21.5t12 18.5l65 66q7 7 16.5 10.5t18.5 3.5h2h2q10 -1 20 -6t16 -13 l69 -91q12 -16 10.5 -34.5t-15.5 -32.5zM398 290l-2 -4t-2 -3l-47 -171q-3 -13 -13 -23t-24 -14l-132 -35q-14 -4 -27 -0.5t-23 13.5l-48 49q-10 10 -13 23.5t0 26.5l35 133q4 13 14 23t23 14l170 46q2 0 3.5 1t2.5 4l130 129l83 -83l-130 -129v0zM923 45 q-18 -18 -40.5 -27.5t-47.5 -9.5t-47.5 9.5t-40.5 27.5l-99 99q-14 14 -14 35t14 37l40 40l37 -37q2 -2 5.5 -3.5t5.5 -1.5t5.5 1.5t5.5 3.5q5 5 5 11.5t-5 11.5l-37 36l42 42q7 7 16.5 10.5t18.5 3.5q10 0 19 -3.5t16 -10.5l100 -99q18 -18 27 -40.5t9 -47.5t-8.5 -47.5 t-26.5 -40.5v0z" />
</svg>