<svg viewBox="0 0 1024 1024" xmlns="http://www.w3.org/2000/svg">
  <path transform="scale(1, -1) translate(0, -960)" fill="currentColor" d="M915 448q0 -42 -8 -83t-24 -80q-2 -6 0 -12.5t8 -8.5t12.5 0t8.5 8q17 42 26 85.5t9 88.5q0 95 -36 179q-36 83 -98 145t-145 98q-84 36 -178 36q-95 0 -179 -36q-83 -35 -145 -97t-98 -145t-36 -178t36 -178t98 -145.5t145 -98.5q84 -36 179 -36q45 0 89 9t85 27 q6 2 9 8t-1 12q-2 6 -8.5 9t-12.5 -1q-38 -15 -79 -23.5t-84 -8.5q-88 0 -165 34q-77 33 -134.5 91t-91.5 135q-33 78 -33 166t33 166q34 77 91.5 135t135.5 91q77 34 166 34q88 0 165 -34q78 -33 135.5 -91t91.5 -135q33 -78 33 -166zM976 242h-122l-30 121q-1 6 -7 10 t-12 1q-6 -1 -10 -7t-1 -12l32 -133q1 -4 5.5 -8t10.5 -4h134q7 0 11.5 4t4.5 12q0 7 -4.5 11.5t-11.5 4.5v0zM507 242q7 0 11.5 4t4.5 12v334q0 11 -5.5 20t-16.5 14q-10 4 -21 3t-19 -8l-90 -75q-5 -5 -5.5 -11.5t4.5 -11.5q4 -5 10.5 -5.5t11.5 4.5l90 75q2 1 3.5 1 t2.5 -1q1 0 2 -1.5t1 -3.5v-336q0 -6 5 -10t11 -4z" />
</svg>