<svg viewBox="0 0 256 256" xmlns="http://www.w3.org/2000/svg">
  <path transform="scale(1, -1) translate(0, -256)" fill="currentColor" d="M244 79h-18q4 2 5 4q9 21 9 45q0 32 -16 59t-43 42.5t-58.5 15.5t-58.5 -15.5t-43 -42.5t-16 -59t16 -59t43 -42.5t58 -15.5q25 0 45 9q3 1 4 3.5t0 5.5t-4 4t-5 -1q-19 -8 -40 -8q-28 1 -51.5 15t-37.5 37.5t-14 51.5t14 51.5t37.5 37.5t51.5 14t52 -14t38 -37.5 t14 -51.5q0 -20 -8 -40q-2 -2 -0.5 -5t3.5 -4h1h-6l-7 28q0 3 -2.5 4.5t-5.5 1t-4.5 -3t-0.5 -5.5l8 -33q0 -3 2 -4t4 -1h34q3 0 5 2t2 5t-2 4.5t-5 1.5zM127 73q3 0 5 2t2 5v84q0 4 -2 7t-5.5 4.5t-7 1t-6.5 -2.5l-22 -19q-2 -2 -2.5 -5t1.5 -5t5 -2.5t5 1.5l20 16v-80 q0 -3 2 -5t5 -2z" />
</svg>