<svg viewBox="0 0 256 256" xmlns="http://www.w3.org/2000/svg">
  <path transform="scale(1, -1) translate(0, -256)" fill="currentColor" d="M121 27q-5 0 -8 3l-99 79q-9 7 -9 18.5t9 19.5l99 79q6 5 13 2q3 -2 5 -5t2 -7v-44q26 -4 48.5 -15t39.5 -28q12 -12 18.5 -24.5t9.5 -28.5q2 -11 2 -26q0 -4 -2 -7t-5 -4.5t-6.5 -1.5t-5.5 2q-55 36 -98 41v-40q0 -4 -2 -7t-5 -4.5t-6 -1.5zM120 213l-97 -77 q-4 -3 -4 -8t4 -8l97 -77v44q0 3 2.5 5t4.5 2q48 -3 110 -42q0 16 -1 20q-3 15 -8.5 25.5t-15.5 21.5q-17 17 -39 27t-47 13q-3 0 -4.5 2t-1.5 5v47z" />
</svg>