<svg viewBox="0 0 1024 1024" xmlns="http://www.w3.org/2000/svg">
  <path transform="scale(1, -1) translate(0, -960)" fill="currentColor" d="M986 234q-14 66 -38 113.5t-71 95.5q-35 35 -76 63q-40 29 -85.5 50.5t-94.5 35.5q-48 14 -99 21v187q0 11 -6 20.5t-17 14.5q-9 5 -20 4t-20 -9l-395 -316q-14 -12 -23 -29.5t-9 -36.5t8 -36.5t24 -29.5l395 -318q5 -5 11.5 -6.5t12.5 -1.5q5 0 9 1t7 2q10 5 16.5 14 t6.5 21v173q55 -5 112 -22q56 -17 109 -40.5t101 -50.5q49 -27 89 -53q8 -6 19 -6.5t21 4.5q9 5 14.5 14.5t4.5 19.5q0 36 -2 61t-4 40v0zM957 128q-1 0 -2.5 -0.5t-4.5 0.5q-42 28 -94 57t-109.5 53.5t-118.5 41.5t-121 21q-3 0 -6 -1.5t-5 -3.5t-3.5 -5.5t-1.5 -5.5v-189 q0 -2 -1 -3.5t-2 -2.5q-1 0 -3 -0.5t-3 1.5l-399 317q-9 7 -14 17.5t-5 22.5t5 22.5t14 17.5l395 318q2 2 3 2h1h1h2t2 -1.5t1 -4.5v-204q0 -6 4 -10t10 -6q51 -5 99 -18q48 -14 92.5 -34.5t84.5 -47.5q41 -28 75 -61q42 -43 64.5 -87t34.5 -105q2 -13 3.5 -37t2.5 -58 q2 -3 1 -4.5t-2 -1.5z" />
</svg>