<svg viewBox="0 0 256 256" xmlns="http://www.w3.org/2000/svg">
  <path transform="scale(1, -1) translate(0, -256)" fill="currentColor" d="M237 96v103q0 7 -4.5 11t-10.5 4h-188q-7 0 -11.5 -4t-4.5 -11v-103q-5 -1 -9 -5.5t-4 -9.5v-24q0 -6 4.5 -10.5t10.5 -4.5h216q6 0 10.5 4.5t4.5 10.5v24q0 5 -4 9.5t-10 5.5zM33 199q0 1 1 1h188q2 0 2 -1v-103h-191v103zM237 57q0 -1 -1 -1h-216q-1 0 -1 1v23q0 2 1 2 h216q1 0 1 -2v-23zM100 156h-9v9q0 3 -2 5t-5 2t-5.5 -2t-2.5 -5v-9h-9q-3 0 -5 -2.5t-2 -5.5t2 -5t5 -2h9v-9q0 -3 2.5 -5t5.5 -2t5 2t2 5v10h9q3 0 5.5 2t2.5 5t-2.5 5t-5.5 2zM190 183h-38q-3 0 -5 -2t-2 -5t2 -5.5t5 -2.5h38q3 0 5 2.5t2 5.5t-2 5t-5 2zM190 156h-38 q-3 0 -5 -2.5t-2 -5.5t2 -5t5 -2h38q3 0 5 2t2 5t-2 5.5t-5 2.5zM190 128h-38q-3 0 -5 -2t-2 -5t2 -5t5 -2h38q3 0 5 2t2 5t-2 5t-5 2z" />
</svg>