<svg viewBox="0 0 1024 1024" xmlns="http://www.w3.org/2000/svg">
  <path transform="scale(1, -1) translate(0, -960)" fill="currentColor" d="M944 307h-6v426q0 20 -14 34t-34 14h-756q-20 0 -34 -14t-14 -34v-426h-6q-20 0 -34 -13.5t-14 -34.5v-94q0 -21 14 -34.5t34 -13.5h864q20 0 34 13.5t14 34.5v94q0 19 -14 33.5t-34 14.5zM118 733q0 7 4.5 11.5t11.5 4.5h754q7 0 11.5 -4.5t4.5 -11.5v-426h-786v426v0z M960 163q0 -7 -4.5 -11.5t-11.5 -4.5h-864q-7 0 -11.5 4.5t-4.5 11.5v95q0 7 4.5 11.5t11.5 4.5h864q7 0 11.5 -4.5t4.5 -11.5v-95zM402 546h-50v49q0 7 -4.5 11.5t-11.5 4.5t-11.5 -4.5t-4.5 -11.5v-49h-50q-7 0 -11.5 -4.5t-4.5 -11.5q0 -8 4.5 -12t11.5 -4h50v-50 q0 -7 4.5 -11.5t11.5 -4.5t11.5 4.5t4.5 11.5v50h50q7 0 11.5 4t4.5 12q0 7 -5 11.5t-11 4.5zM758 656h-150q-7 0 -11.5 -4.5t-4.5 -11.5t4.5 -11.5t11.5 -4.5h150q8 0 12 4.5t4 11.5t-4 11.5t-12 4.5zM758 546h-150q-7 0 -11.5 -4.5t-4.5 -11.5q0 -8 4.5 -12t11.5 -4h150 q8 0 12 4t4 12q0 7 -4 11.5t-12 4.5zM758 435h-150q-7 0 -11.5 -4.5t-4.5 -11.5t4.5 -11.5t11.5 -4.5h150q8 0 12 4.5t4 11.5t-4 11.5t-12 4.5z" />
</svg>