<svg viewBox="0 0 1024 1024" xmlns="http://www.w3.org/2000/svg">
  <path transform="scale(1, -1) translate(0, -960)" fill="currentColor" d="M990 13l-145 349v270h97q5 0 9.5 3t6.5 8t0 10t-6 8l-347 217q-43 27 -94 27t-93 -27l-346 -216q-5 -2 -7 -7t1 -10q1 -5 5.5 -8t10.5 -3h97v-272l-144 -348q-2 -6 0 -12t8 -8q1 -2 3 -2h4q4 0 8.5 2.5t5.5 7.5l122 291q10 -58 40 -107q30 -50 73.5 -86t98.5 -57 q54 -21 116 -21q61 0 116 21q54 21 97.5 57t73.5 86q30 49 41 107l120 -293q2 -5 5.5 -7.5t8.5 -2.5q1 0 3 0.5t3 1.5q6 2 8.5 8t-0.5 13v0zM435 851q35 22 77 22t77 -22l299 -187h-752zM814 632v-259h-604v259h604zM512 53q-61 0 -114 22q-54 23 -94.5 62t-65.5 91 q-24 53 -27 113h602q-3 -60 -27 -113q-25 -52 -65.5 -91t-94.5 -62q-53 -22 -114 -22v0z" />
</svg>