<svg viewBox="0 0 1024 1024" xmlns="http://www.w3.org/2000/svg">
  <path transform="scale(1, -1) translate(0, -960)" fill="currentColor" d="M808 -13l-67 403v29v0v0v328q0 22 -10.5 41t-28.5 31l-142 95q-22 14 -47.5 14t-46.5 -14l-143 -95q-18 -12 -28 -31t-10 -41v-329v0v0v0v-29l-67 -403q-2 -5 0.5 -9.5t7.5 -6.5q2 -2 3.5 -2h4.5q2 0 5 1t4 2l269 223l270 -223q3 -1 5.5 -2t4.5 -1h4t4 2q5 2 7 7t1 10v0z M512 235l-197 162v6h394v-6l-197 -162v0zM315 747q0 13 6.5 25.5t17.5 19.5l143 94q13 10 29.5 10t29.5 -10l142 -94q12 -7 18 -19.5t6 -25.5v-313h-392v313v0zM254 24l56 334l176 -144l-232 -190v0zM538 214l176 144l56 -334z" />
</svg>