<svg viewBox="0 0 256 256" xmlns="http://www.w3.org/2000/svg">
  <path transform="scale(1, -1) translate(0, -256)" fill="currentColor" d="M246 55l-34 35v116q0 19 -13.5 32t-32 13t-32 -13t-13.5 -32v-156q0 -13 -9 -22t-22.5 -9t-22.5 9t-9 22v118l34 34q2 2 2.5 4t-0.5 4q-2 4 -6 4h-73q-5 0 -6.5 -4.5t1.5 -7.5l34 -34v-118q0 -18 13.5 -31.5t32.5 -13.5t32.5 13.5t13.5 31.5v156q0 13 9 22t22 9t22.5 -9 t9.5 -22v-116l-35 -35q-1 -1 -1.5 -3.5t0.5 -3.5q2 -5 6 -5h73q5 0 6 4.5t-2 7.5zM71 200l-20 -20l-19 20h39zM185 57l20 20l19 -20h-39z" />
</svg>