<svg viewBox="0 0 1024 1024" xmlns="http://www.w3.org/2000/svg">
  <path transform="scale(1, -1) translate(0, -960)" fill="currentColor" d="M978 149l-141 141v468q-1 70 -51 120t-120 50t-120 -50t-50 -120v-620q0 -57 -40.5 -97.5t-97.5 -40.5q-56 0 -96.5 40.5t-40.5 97.5v473l141 141q3 4 4 8.5t-1 9.5q-3 4 -6.5 6.5t-8.5 2.5h-291q-5 0 -9 -2.5t-5 -6.5q-3 -5 -2 -9.5t5 -8.5l141 -141v-473 q0 -71 50 -120.5t119 -49.5q70 0 120 50t50 120v620q0 57 40.5 97.5t97.5 40.5q56 0 96.5 -40.5t40.5 -97.5v-468l-141 -141q-3 -4 -4 -8.5t1 -9.5q3 -5 6.5 -7t8.5 -2h291q5 0 9 2t5 7q3 4 2 9t-3 9v0zM312 747l-107 -107l-107 107h214zM712 152l107 107l107 -107h-214v0z " />
</svg>