<svg viewBox="0 0 1024 1024" xmlns="http://www.w3.org/2000/svg">
  <path transform="scale(1, -1) translate(0, -960)" fill="currentColor" d="M928 928h-611q-27 0 -45.5 -19t-18.5 -45v-370h-157q-26 0 -45 -18.5t-19 -45.5v-398q0 -26 19 -45t45 -19h398q27 0 45.5 19t18.5 45v157h370q26 0 45 18.5t19 45.5v611q0 26 -19 45t-45 19v0zM526 32q0 -13 -9 -22.5t-23 -9.5h-398q-13 0 -22.5 9.5t-9.5 22.5v398 q0 14 9.5 23t22.5 9h157v-209q0 -27 18.5 -45.5t45.5 -18.5h209v-157zM526 221h-209q-13 0 -22.5 9.5t-9.5 22.5v209h209q14 0 23 -9t9 -23v-209zM960 253q0 -13 -9.5 -22.5t-22.5 -9.5h-370v209q0 27 -18.5 45.5t-45.5 18.5h-209v370q0 13 9.5 22.5t22.5 9.5h611 q13 0 22.5 -9.5t9.5 -22.5v-611zM826 762v0v0h-1t1 0q-5 4 -11 6.5t-12 2.5h-176q-7 0 -11.5 -4.5t-4.5 -11.5t4.5 -11.5t11.5 -4.5h152l-152 -152q-5 -5 -5 -11t5 -11q3 -3 6 -4t5 -1q3 0 6 1t6 4l152 152v-154q0 -7 4 -11.5t12 -4.5q7 0 11.5 4.5t4.5 11.5v175 q1 7 -1.5 13t-6.5 11v0z" />
</svg>