<svg viewBox="0 0 256 256" xmlns="http://www.w3.org/2000/svg">
  <path transform="scale(1, -1) translate(0, -256)" fill="currentColor" d="M232 251h-153q-8 0 -13.5 -5.5t-5.5 -13.5v-89h-36q-8 0 -13.5 -5.5t-5.5 -13.5v-100q0 -8 5.5 -13.5t13.5 -5.5h100q7 0 13 5.5t6 13.5v36h89q8 0 13.5 5.5t5.5 13.5v153q0 8 -5.5 13.5t-13.5 5.5zM129 24q0 -2 -1.5 -3.5t-3.5 -1.5h-100q-2 0 -3.5 1.5t-1.5 3.5v100 q0 2 1.5 3t3.5 1h36v-49q0 -8 5.5 -13.5t13.5 -5.5h50v-36zM129 74h-50q-2 0 -3.5 1.5t-1.5 3.5v50h50q2 0 3.5 -1.5t1.5 -3.5v-50zM237 79q0 -2 -1.5 -3.5t-3.5 -1.5h-89v50q0 7 -5.5 12.5t-13.5 5.5h-50v90q0 2 1.5 3.5t3.5 1.5h153q2 0 3.5 -1.5t1.5 -3.5v-153zM208 208 l-1 2q-2 2 -6 2h-44q-3 0 -5 -2.5t-2 -5.5t2 -5t5 -2h31l-33 -33q-2 -2 -2 -4.5t2 -5t4.5 -2.5t4.5 2l34 34v-32q0 -3 2 -5t5 -2t5 2t2 5v44q0 5 -4 8z" />
</svg>