<svg viewBox="0 0 1024 1024" xmlns="http://www.w3.org/2000/svg">
  <path transform="scale(1, -1) translate(0, -960)" fill="currentColor" d="M947 664l-131 234q-8 14 -22 22t-31 8h-504q-17 0 -30.5 -8t-22.5 -22l-129 -232v0v0v0v0q-1 -2 -1.5 -4t-0.5 -3v-629q0 -25 18 -42.5t43 -17.5h754q25 0 42.5 17.5t17.5 42.5v626q-1 2 -1.5 4.5t-1.5 3.5v0zM107 642h178v-3v-2q0 -37 -26.5 -63.5t-63.5 -26.5t-63 26.5 t-26 63.5v5h1zM317 642h179v-3v-2q0 -37 -26 -63.5t-64 -26.5q-37 0 -63 26.5t-26 63.5v2v3v0zM528 642h178v-3v-2q0 -37 -26.5 -63.5t-63.5 -26.5t-63.5 26.5t-26.5 63.5q2 1 2 2v3v0zM739 642h178v-5q0 -37 -26.5 -63.5t-63.5 -26.5t-63 26.5t-26 63.5q1 1 1 2v3v0z M235 882q4 7 10.5 10.5t13.5 3.5h504q7 0 14 -3.5t10 -10.5l117 -208h-394v0v0h-206v0v0h-186zM275 0v277q0 12 8.5 20.5t20.5 8.5h80q12 0 20.5 -8.5t8.5 -20.5v-277h-138v0zM917 29q0 -12 -8.5 -20.5t-20.5 -8.5h-445v277q0 25 -17.5 43t-43.5 18h-80q-25 0 -42.5 -18 t-17.5 -43v-277h-108q-12 0 -20 8.5t-8 20.5v526q16 -18 39.5 -29t49.5 -11q34 0 62 16.5t44 44.5q15 -28 43.5 -44.5t61.5 -16.5q34 0 62 16.5t44 44.5q16 -28 44 -44.5t62 -16.5q33 0 61.5 16.5t43.5 44.5q16 -28 44 -44.5t62 -16.5q26 0 49.5 11t39.5 29v-526h-1z M742 338h-81q-16 0 -27.5 -11.5t-11.5 -27.5v-81q0 -16 11.5 -27.5t27.5 -11.5h81q16 0 27.5 11.5t11.5 27.5v81q0 16 -11.5 27.5t-27.5 11.5zM749 216q0 -2 -2 -4t-5 -2h-81q-3 0 -5 2t-2 4v82q0 2 2 4t5 2h81q3 0 5 -2t2 -4v-82z" />
</svg>