<svg viewBox="0 0 1024 1024" xmlns="http://www.w3.org/2000/svg">
  <path transform="scale(1, -1) translate(0, -960)" fill="currentColor" d="M770 546h-34q-6 73 -58.5 125.5t-125.5 58.5v35q0 7 -4.5 11.5t-11.5 4.5t-11.5 -4.5t-4.5 -11.5v-35q-73 -6 -125.5 -58.5t-58.5 -125.5h-34q-7 0 -11.5 -4.5t-4.5 -11.5q0 -8 4.5 -12t11.5 -4h468q7 0 11.5 4t4.5 12q0 7 -5 11.5t-11 4.5v0zM536 699q66 0 114 -44 t54 -108h-336q6 64 54 108t114 44zM880 928h-688q-26 0 -45 -19t-19 -45v-178h-32q-7 0 -11.5 -4t-4.5 -12q0 -7 4.5 -11.5t11.5 -4.5h32v-190h-32q-7 0 -11.5 -4.5t-4.5 -11.5t4.5 -11.5t11.5 -4.5h32v-190h-32q-7 0 -11.5 -4.5t-4.5 -11.5q0 -8 4.5 -12t11.5 -4h32v-178 q0 -26 19 -45t45 -19h688q26 0 45 19t19 45v832q0 26 -19 45t-45 19zM912 32q0 -13 -9.5 -22.5t-22.5 -9.5h-688q-13 0 -22.5 9.5t-9.5 22.5v832q0 13 9.5 22.5t22.5 9.5h688q13 0 22.5 -9.5t9.5 -22.5v-832zM634 365h-196q-7 0 -11.5 -4.5t-4.5 -11.5t4.5 -11.5t11.5 -4.5 h194q7 0 11.5 4.5t4.5 11.5t-4 11.5t-10 4.5zM634 230h-196q-7 0 -11.5 -4t-4.5 -12q0 -7 4.5 -11.5t11.5 -4.5h194q7 0 11.5 4.5t4.5 11.5q0 8 -4 12t-10 4z" />
</svg>