<svg viewBox="0 0 256 256" xmlns="http://www.w3.org/2000/svg">
  <path transform="scale(1, -1) translate(0, -256)" fill="currentColor" d="M244 230h-232q-3 0 -5 -2t-2 -5q0 -15 7 -27.5t19.5 -20t27.5 -7.5h62v-56h-33q-3 0 -5 -2t-2 -5t2 -5t5 -2h33v-26q0 -10 -5 -18q-8 -15 -28 -15q-3 0 -5 -2t-2 -5t2 -5t5 -2q21 0 33 12q4 4 7 9q2 -4 7 -9q12 -12 33 -12q3 0 5 2t2 5t-2 5.5t-5 2.5q-20 0 -28 15 q-5 8 -5 17v26h33q3 0 5 2t2 5t-2 5t-5 2h-33v57h61q15 0 27.5 7t20 19.5t7.5 27.5q0 3 -2 5t-5 2zM197 183h-138q-15 0 -26 9.5t-13 23.5h216q-2 -14 -13.5 -23.5t-25.5 -9.5z" />
</svg>