<svg viewBox="0 0 256 256" xmlns="http://www.w3.org/2000/svg">
  <path transform="scale(1, -1) translate(0, -256)" fill="currentColor" d="M240 184l-33 58q-3 4 -7 6.5t-9 2.5h-126q-5 0 -9 -2.5t-7 -6.5l-33 -59v-3v-157q0 -7 5 -12.5t13 -5.5h188q8 0 13 5.5t5 12.5v157v4v0zM68 174q-1 -8 -6.5 -13t-13 -5t-13 5t-5.5 13h38zM121 174q-1 -8 -6.5 -13t-13 -5t-13 5t-6.5 13h39zM174 174q-1 -8 -6.5 -13 t-13 -5t-13 5t-6.5 13h39zM226 174q-1 -8 -6.5 -13t-13 -5t-13 5t-5.5 13h38zM62 235q1 2 3 2h126q2 0 4 -2l27 -48h-187zM72 19v66q0 2 1 3t3 1h20q2 0 3 -1t1 -3v-66h-28zM222 19h-108v66q0 8 -5 13t-13 5h-20q-7 0 -12.5 -5t-5.5 -13v-66h-24q-2 0 -3 1.5t-1 2.5v125 q9 -6 19 -6q8 0 15 3.5t12 8.5q4 -6 11 -9t15 -3t15 3.5t11 8.5q5 -6 12 -9t15 -3t15 3.5t11 8.5q5 -6 12 -9t15 -3q10 0 19 6v-125q-1 -2 -2 -3t-3 -1zM186 103h-21q-5 0 -8.5 -3.5t-3.5 -8.5v-21q0 -5 3.5 -8.5t8.5 -3.5h21q5 0 8.5 3.5t3.5 8.5v21q0 5 -3.5 8.5t-8.5 3.5 zM184 72h-18v17h18v-17z" />
</svg>