<svg viewBox="0 0 256 256" xmlns="http://www.w3.org/2000/svg">
  <path transform="scale(1, -1) translate(0, -256)" fill="currentColor" d="M192 156h-5q-3 17 -15.5 30t-30.5 15v7q0 3 -2 5t-5 2t-5 -2t-2 -5v-7q-18 -2 -30.5 -15t-15.5 -30h-5q-3 0 -5.5 -2.5t-2.5 -5.5t2.5 -5t5.5 -2h116q3 0 5.5 2t2.5 5t-2.5 5.5t-5.5 2.5zM134 188q14 0 25 -9.5t13 -22.5h-76q2 13 13 22.5t25 9.5zM220 251h-172 q-8 0 -13.5 -5.5t-5.5 -13.5v-42h-5q-3 0 -5 -2t-2 -5t2 -5t5 -2h5v-41h-5q-3 0 -5 -2t-2 -5t2 -5.5t5 -2.5h5v-41h-5q-3 0 -5 -2t-2 -5t2 -4.5t5 -1.5h5v-42q0 -8 5.5 -13.5t13.5 -5.5h172q8 0 13.5 5.5t5.5 13.5v208q0 8 -5.5 13.5t-13.5 5.5zM225 24q0 -2 -1.5 -3.5 t-3.5 -1.5h-172q-2 0 -3.5 1.5t-1.5 3.5v208q0 2 1.5 3.5t3.5 1.5h172q2 0 3.5 -1.5t1.5 -3.5v-208zM158 110h-48q-3 0 -5.5 -2t-2.5 -5t2.5 -5t5.5 -2h48q3 0 5 2t2 5t-2 5t-5 2zM158 77h-48q-3 0 -5.5 -2t-2.5 -5t2.5 -5.5t5.5 -2.5h48q3 0 5 2.5t2 5.5t-2 5t-5 2z" />
</svg>