<svg viewBox="0 0 1024 1024" xmlns="http://www.w3.org/2000/svg">
  <path transform="scale(1, -1) translate(0, -960)" fill="currentColor" d="M987 229q-11 33 -42.5 51t-66.5 8l-225 -54v17q0 31 -22 55t-57 30h-222q-7 18 -24.5 30t-37.5 12h-192q-28 0 -48 -20t-20 -48v-233q0 -29 20 -49t49 -20h189q14 0 28 6t23 16q5 5 8.5 11t6.5 12l17 -8q34 -17 69.5 -25.5t73.5 -8.5q21 0 43.5 3.5t44.5 9.5l251 70v0v0 l72 21q18 5 32 15.5t22 26.5q10 18 12 36t-4 36v0zM317 54q-6 -6 -13.5 -8.5t-15.5 -2.5h-187q-15 0 -26 10.5t-11 26.5v232q0 14 10.5 24.5t24.5 10.5h192q15 0 26 -10.5t11 -26.5v-232q0 -6 -2.5 -12.5t-8.5 -11.5v0zM952 174q-6 -9 -14.5 -16t-20.5 -11l-72 -21l-251 -70 q-53 -14 -106.5 -9.5t-101.5 28.5l-28 15v216h213q22 -4 36 -19t14 -34v-26l-72 -17q-6 -2 -10 -8t-1 -12q1 -6 7 -9.5t12 -1.5l329 79q23 6 43.5 -5.5t27.5 -33.5q3 -11 2 -22.5t-7 -22.5zM765 643h85q27 0 47 -20t20 -49q0 -28 -20 -48t-47 -20h-127q-7 0 -11.5 -4.5 t-4.5 -11.5q0 -8 4.5 -12t11.5 -4h69v-26q0 -7 4.5 -11.5t11.5 -4.5t11.5 4.5t4.5 11.5v26h27q41 0 70 29t29 71t-29 71.5t-70 29.5h-85q-27 0 -47 20t-20 49t20 49t47 20h127q7 0 11.5 4.5t4.5 11.5t-4.5 11.5t-11.5 4.5h-69v25q0 8 -4.5 12t-11.5 4t-11.5 -4t-4.5 -12v-25 h-26q-40 0 -69.5 -29.5t-29.5 -71.5t28.5 -71.5t69.5 -29.5z" />
</svg>