<svg viewBox="0 0 256 256" xmlns="http://www.w3.org/2000/svg">
  <path transform="scale(1, -1) translate(0, -256)" fill="currentColor" d="M250 74q-3 10 -12 15t-19 2l-53 -12v1q0 9 -6 15.5t-16 8.5h-54q-2 4 -6.5 7t-10.5 3h-48q-8 0 -14 -6t-6 -14v-58q0 -9 5.5 -14.5t14.5 -5.5h47q9 0 15 6l3 4l2 -1q17 -9 37 -9q10 0 23 3l80 23q10 2 15.5 12t2.5 20zM77 32q-2 -2 -5 -2h-47q-2 0 -4 1.5t-2 4.5v58 q0 2 2 4t4 2h48q3 0 4.5 -2t1.5 -4v-58q0 -3 -2 -4zM236 61q-3 -4 -7 -5l-81 -23q-13 -3 -25.5 -2t-24.5 7l-5 2v49h50q4 -1 6.5 -3.5t2.5 -6.5v-4l-15 -3q-3 -1 -4.5 -3.5t-1 -5t3 -4.5t5.5 -1l82 20q5 1 9 -1.5t5.5 -6.5t-0.5 -9zM191 174h21q6 0 10 -4.5t4 -10t-4 -9.5 t-10 -4h-31q-3 0 -5 -2.5t-2 -5.5t2 -5t5 -2h14v-3q0 -3 2 -5t5 -2t5 2t2 5v4h4q11 0 19.5 8t8.5 19.5t-8.5 20t-19.5 8.5h-21q-6 0 -10 4t-4 9.5t4 10t10 4.5h31q3 0 5 2t2 5t-2 5t-5 2h-14v4q0 3 -2 5t-5 2t-5 -2t-2 -5v-4h-4q-11 0 -19.5 -8.5t-8.5 -19.5t8.5 -19.5 t19.5 -8.5z" />
</svg>