<svg viewBox="0 0 256 256" xmlns="http://www.w3.org/2000/svg">
  <path transform="scale(1, -1) translate(0, -256)" fill="currentColor" d="M146 193q-8 7 -18 7t-18 -7l-47 -47q-7 -8 -7 -18t7 -18l47 -47q7 -7 17.5 -7t17.5 7l47 47q7 7 7 17.5t-7 17.5zM183 120l-47 -47q-3 -3 -8 -3t-8 3l-47 47q-3 3 -3 7.5t3 8.5l47 47q3 3 7.5 3t8.5 -3l47 -47q3 -3 3 -7.5t-3 -8.5zM128 244q-31 0 -58 -15.5t-42.5 -42.5 t-15.5 -58t15.5 -58t42.5 -42.5t58 -15.5t58 15.5t42.5 42.5t15.5 58t-15.5 58t-42.5 42.5t-58 15.5zM128 26q-28 0 -51.5 13.5t-37 37t-13.5 51.5t13.5 51.5t37 37t51.5 13.5t51.5 -13.5t37 -37t13.5 -51.5t-13.5 -51.5t-37 -37t-51.5 -13.5z" />
</svg>