<svg viewBox="0 0 1024 1024" xmlns="http://www.w3.org/2000/svg">
  <path transform="scale(1, -1) translate(0, -960)" fill="currentColor" d="M574 698q-26 26 -62.5 26t-61.5 -26l-188 -188q-26 -26 -26 -62.5t26 -61.5l188 -188q12 -12 28 -18.5t34 -6.5t34 6.5t28 18.5l188 188q12 12 18.5 28t6.5 34t-6.5 34t-18.5 28l-188 188v0zM739 408l-187 -187q-16 -16 -40 -16t-40 16l-187 187q-17 17 -17 40t17 40 l187 187q8 9 18.5 12.5t21.5 3.5t21.5 -3.5t18.5 -12.5l187 -187q9 -8 12.5 -18.5t3.5 -21.5t-3.5 -21.5t-12.5 -18.5zM512 912q-96 0 -180 -36q-85 -37 -148 -100t-99 -147q-37 -85 -37 -181t36 -180q37 -85 100 -148t147 -99q85 -37 181 -37t180 36q85 37 148 100t99 147 q37 85 37 181t-36 180q-37 85 -100 148t-147 99q-85 37 -181 37zM512 16q-89 0 -168 34t-137.5 92.5t-92.5 137.5t-34 168t34 168t92.5 137.5t137.5 92.5t168 34t168 -34t137.5 -92.5t92.5 -137.5t34 -168t-34 -168t-92.5 -137.5t-137.5 -92.5t-168 -34z" />
</svg>