<svg viewBox="0 0 256 256" xmlns="http://www.w3.org/2000/svg">
  <path transform="scale(1, -1) translate(0, -256)" fill="currentColor" d="M128 251q-33 0 -61.5 -16.5t-45 -45t-16.5 -61.5t16.5 -61.5t45 -45t61.5 -16.5t61.5 16.5t45 45t16.5 61.5t-16.5 61.5t-45 45t-61.5 16.5zM128 19q-14 0 -29 4v92q0 3 2 6t6 4l46 12l-11 -27q-1 -3 0.5 -5.5t3.5 -3.5l3 -1q2 0 4 1.5t2 3.5l18 44q1 2 -0.5 5t-3.5 4 l-44 17q-3 1 -5.5 0t-4 -4t0 -5.5t4.5 -3.5l30 -12l-47 -13q-8 -2 -13 -8.5t-5 -15.5v-87q-29 14 -47.5 41.5t-18.5 60.5q0 30 15 54.5t39.5 39.5t54.5 15t55 -15t39.5 -40t14.5 -54.5t-14.5 -54.5t-39.5 -39.5t-55 -14.5z" />
</svg>