<svg viewBox="0 0 256 256" xmlns="http://www.w3.org/2000/svg">
  <path transform="scale(1, -1) translate(0, -256)" fill="currentColor" d="M128 251q-33 0 -61.5 -16.5t-45 -45t-16.5 -61.5t16.5 -61.5t45 -45t61.5 -16.5t61.5 16.5t45 45t16.5 61.5t-16.5 61.5t-45 45t-61.5 16.5zM128 19q-14 0 -29 4v88q0 4 3 7t8 3h37l-22 -21q-2 -3 -2 -5.5t2 -4.5t5 -2t5 2l33 33q3 2 3 5t-3 5l-33 34q-2 2 -5 2t-5 -2 t-2 -5t2 -5l21 -22h-37q-10 0 -17 -7t-7 -17v-83q-29 12 -47.5 39.5t-18.5 60.5q0 30 15 54.5t39.5 39.5t54.5 15t55 -15t39.5 -40t14.5 -54.5t-14.5 -54.5t-39.5 -39.5t-55 -14.5z" />
</svg>