<svg viewBox="0 0 1024 1024" xmlns="http://www.w3.org/2000/svg">
  <path transform="scale(1, -1) translate(0, -960)" fill="currentColor" d="M632 645q-5 5 -11.5 5t-10.5 -5q-5 -5 -5 -11.5t5 -11.5l148 -155l0.5 -0.5t1.5 -0.5l-514 -4q-7 0 -11.5 -5t-4.5 -11q0 -7 5 -11.5t11 -4.5v0v0l514 4v0v0l-149 -160q-5 -5 -4.5 -11.5t6.5 -11.5q2 -2 4.5 -3.5t6.5 -1.5t6.5 1.5t4.5 3.5l149 160q13 17 13 38.5 t-13 38.5l-152 157v0zM912 928h-800q-34 0 -57 -23t-23 -57v-800q0 -34 23 -57t57 -23h800q34 0 57 23t23 57v800q0 34 -23 57t-57 23zM960 48q0 -20 -14 -34t-34 -14h-800q-20 0 -34 14t-14 34v800q0 20 14 34t34 14h800q20 0 34 -14t14 -34v-800z" />
</svg>