<svg viewBox="0 0 1024 1024" xmlns="http://www.w3.org/2000/svg">
  <path transform="scale(1, -1) translate(0, -960)" fill="currentColor" d="M512 928q-99 0 -186 -38q-88 -38 -153 -103t-103 -153q-38 -87 -38 -186t38 -186q38 -88 103 -153t153 -103q87 -38 186 -38t186 38q88 38 153 103t103 153q38 87 38 186t-38 186q-38 88 -103 153t-153 103q-87 38 -186 38zM512 0q-36 0 -70 5.5t-66 15.5q4 2 7 5.5 t3 8.5v360q0 18 11 32.5t29 18.5l196 55l-56 -144q-2 -6 0.5 -12.5t9.5 -8.5q1 0 2.5 -1t3.5 -1q5 0 9.5 2.5t5.5 7.5l70 176q1 2 1 5.5t-1 7.5q-1 3 -3.5 5t-5.5 3l-176 69q-6 2 -12.5 -1t-8.5 -9q-3 -6 0 -12t9 -9l136 -54l-190 -48q-28 -7 -45 -31t-17 -52v-360v-4t1 -3 q-63 25 -117 67q-53 41 -92 96t-60 120q-22 66 -22 138q0 92 35 174q36 81 97 142t142 97q82 35 174 35t174 -35q82 -36 142.5 -96.5t96.5 -142.5q35 -82 35 -174t-35 -174q-36 -81 -96.5 -142t-142.5 -97q-82 -35 -174 -35v0z" />
</svg>