<svg viewBox="0 0 1024 1024" xmlns="http://www.w3.org/2000/svg">
  <path transform="scale(1, -1) translate(0, -960)" fill="currentColor" d="M512 928q-99 0 -186 -38q-88 -38 -153 -103t-103 -153q-38 -87 -38 -186t38 -186q38 -88 103 -153t153 -103q87 -38 186 -38t186 38q88 38 153 103t103 153q38 87 38 186t-38 186q-38 88 -103 153t-153 103q-87 38 -186 38zM512 0q-36 0 -70 5.5t-66 15.5q4 2 7 5.5 t3 8.5v344q0 22 15.5 37.5t38.5 15.5h178l-108 -107q-4 -5 -4 -11.5t4 -11.5q3 -2 6 -3t6 -1q2 0 5 1t6 3l134 135q5 5 5 11t-5 11l-134 135q-5 4 -11.5 4t-11.5 -4q-4 -5 -4 -11.5t4 -11.5l108 -107h-180q-36 0 -61 -25t-25 -60v-342v-3t2 -4q-63 24 -117 65 q-53 41 -91.5 95.5t-59.5 120.5q-22 65 -22 137q0 92 35 174q36 81 97 142t142 97q82 35 174 35t174 -35q82 -36 142.5 -97t96.5 -142q35 -82 35 -174t-35 -174q-36 -82 -96.5 -142.5t-142.5 -96.5q-82 -35 -174 -35v0z" />
</svg>