<svg viewBox="0 0 256 256" xmlns="http://www.w3.org/2000/svg">
  <path transform="scale(1, -1) translate(0, -256)" fill="currentColor" d="M12 121h73q3 0 5 2t2 5t-2 5t-5 2h-73q-3 0 -5 -2t-2 -5t2 -5t5 -2zM13 196q3 0 5 2t2 5v23q0 4 3.5 7t7.5 3h23q3 0 5 2.5t2 5.5t-2 5t-5 2h-24q-10 0 -17 -7t-7 -18v-23q0 -3 2 -5t5 -2zM54 20h-24q-4 0 -7 3t-3 7v23q0 3 -2 5t-5 2t-5 -2t-2 -5v-23q0 -10 7 -17t17 -7 h23q3 0 5 2t2 5t-1.5 5t-4.5 2zM227 250h-23q-3 0 -5.5 -2t-2.5 -5t2.5 -5t5.5 -2h23q4 0 7 -3t3 -7v-92h-65q-3 0 -5 -2t-2 -5t2 -5t5 -2h65v-91q0 -4 -3 -7.5t-7 -3.5h-23q-3 0 -5.5 -2t-2.5 -5t2.5 -5t5.5 -2h23q10 0 17 7t7 17v198q0 10 -7 17t-17 7zM6 88v-5q0 -3 2 -5 t5 -2t5 2t2 4v6q0 3 -2 5t-5 2t-5 -2t-2 -5zM13 162q3 0 5 2t2 5v6q0 3 -2 5t-5 2t-5 -2t-2 -5v-6q0 -3 2 -5t5 -2zM88 251h-6q-3 0 -5 -2t-2 -5t2 -5t5 -2h6q3 0 5 2t2 5t-2 5t-5 2zM169 237h5q3 0 5.5 2t2.5 5t-2.5 5.5t-5.5 2.5h-5q-3 0 -5 -2.5t-2 -5.5t2 -5t5 -2z M88 20h-6q-3 0 -5 -2t-2 -5t2 -5t5 -2h6q3 0 5 2t2 5t-2 5t-5 2zM175 20h-6q-3 0 -5 -2t-2 -5t2 -5t5 -2h6q3 0 5 2t2 5t-2 5t-5 2zM128 252q-3 0 -5 -2.5t-2 -5.5v-73q0 -3 2 -5t5 -2t5.5 2t2.5 5v73q0 3 -2.5 5.5t-5.5 2.5zM128 92q-3 0 -5 -2.5t-2 -5.5v-73q0 -3 2 -5 t5 -2t5.5 2t2.5 5v74q0 3 -2.5 5t-5.5 2z" />
</svg>