<svg viewBox="0 0 256 256" xmlns="http://www.w3.org/2000/svg">
  <path transform="scale(1, -1) translate(0, -256)" fill="currentColor" d="M128 158q-16 0 -29 -8t-21 -21t-8 -28.5t8 -29t21 -21t29 -7.5t29 7.5t21 20.5t8 29t-8 29t-21 21t-29 8zM128 56q-18 0 -31 13t-13 31t13 31t31 13t31 -13t13 -31t-13 -31t-31 -13zM142 194l14 14q7 7 7 17.5t-6.5 17t-14 8t-14.5 -1.5q-5 2 -10 2q-10 0 -17.5 -6.5 t-7.5 -18t7 -18.5l14 -14q-23 -3 -41.5 -16.5t-29 -34t-10.5 -43.5q0 -26 12.5 -48t34.5 -34.5t48 -12.5t48 12.5t34.5 34.5t12.5 48q0 23 -10.5 43.5t-29 34t-41.5 16.5zM107 226q0 5 3 8t7 3t7.5 -2.5t7 0t7.5 2t7 -3.5t3 -7.5t-3 -7.5l-18 -18l-18 17q-3 4 -3 9zM128 19 q-22 0 -40.5 11t-29.5 29.5t-11 40.5t11 40.5t29.5 29.5t40.5 11t40.5 -11t29.5 -29.5t11 -40.5t-11 -40.5t-29.5 -29.5t-40.5 -11z" />
</svg>