<svg viewBox="0 0 1024 1024" xmlns="http://www.w3.org/2000/svg">
  <path transform="scale(1, -1) translate(0, -960)" fill="currentColor" d="M560 666l58 33q3 3 5.5 6.5t2.5 8.5v112q0 4 -2.5 8t-5.5 6l-96 56q-4 2 -8.5 2t-7.5 -2l-96 -56q-5 -4 -7.5 -7.5t-2.5 -8.5v-112q0 -5 2 -8.5t6 -5.5l58 -34q-65 -9 -120 -39q-56 -31 -97 -77t-64 -105q-23 -60 -23 -126q0 -72 27 -136q28 -63 75.5 -110.5t111.5 -74.5 q63 -28 136 -28t136 28q64 27 111.5 74.5t75.5 111.5q27 64 27 136q0 67 -23 126q-23 60 -63.5 106.5t-96.5 76.5q-55 30 -119 39v0zM432 814l80 47l80 -47v-92l-80 -47l-80 47v92v0zM512 0q-66 0 -124 25t-101 68t-68 101t-25 124t25 124t68 101.5t101 68.5t124 25t124 -25 t101 -68.5t68 -101.5t25 -124t-25 -124t-68 -101t-101 -68t-124 -25z" />
</svg>