<svg viewBox="0 0 256 256" xmlns="http://www.w3.org/2000/svg">
  <path transform="scale(1, -1) translate(0, -256)" fill="currentColor" d="M230 251h-204q-8 0 -13.5 -5.5t-5.5 -13.5v-20q0 -8 5.5 -13.5t13.5 -5.5h36v-60q-12 -5 -19 -22t-7 -41q0 -28 9 -46.5t23 -18.5t23 18.5t9 46.5q0 23 -7 40.5t-18 22.5v60h105v-60q-11 -5 -18 -22.5t-7 -40.5q0 -28 9 -46.5t23 -18.5t23 18.5t9 46.5q0 23 -7 40.5 t-18 22.5v60h35q8 0 13.5 5.5t5.5 13.5v20q1 8 -4.5 13.5t-13.5 5.5zM86 70q0 -15 -3 -26.5t-7 -18t-8 -6.5t-8 6.5t-7 18t-3 26t3 26.5t7 18t8 6t8 -6.5t7 -18t3 -25.5zM206 70q0 -15 -3 -26.5t-7 -18t-8 -6.5t-8 6.5t-7 18t-3 26t3 26.5t7 18t8 6t8 -6.5t7 -18t3 -25.5z M235 212q0 -2 -1.5 -3.5t-3.5 -1.5h-204q-2 0 -4 1.5t-2 3.5v20q0 2 1.5 3.5t4.5 1.5h204q2 0 3.5 -1.5t1.5 -3.5v-20z" />
</svg>