<svg viewBox="0 0 1024 1024" xmlns="http://www.w3.org/2000/svg">
  <path transform="scale(1, -1) translate(0, -960)" fill="currentColor" d="M920 928h-816q-26 0 -45 -19t-19 -45v-80q0 -26 19 -45t45 -19h152v-261q-43 -12 -72 -79.5t-29 -165.5q1 -105 34.5 -175.5t82.5 -70.5t83 70.5t34 175.5q0 98 -28.5 165.5t-72.5 79.5v261h448v-261q-43 -12 -72 -79.5t-29 -165.5q0 -105 33.5 -175.5t83.5 -70.5 t83.5 70.5t33.5 175.5q0 98 -28.5 165.5t-72.5 79.5v261h152q26 0 45 19t19 45v80q0 26 -19 45t-45 19zM357 214q0 -94 -27.5 -154t-57.5 -60t-57.5 60t-27.5 154q0 95 27.5 155t57.5 60t57.5 -60t27.5 -155zM835 214q0 -94 -27.5 -154t-57.5 -60t-57 60t-27 154 q0 95 27 155t57 60t57.5 -60t27.5 -155zM952 784q0 -13 -9.5 -22.5t-22.5 -9.5h-816q-13 0 -22.5 9.5t-9.5 22.5v80q0 13 9.5 22.5t22.5 9.5h816q13 0 22.5 -9.5t9.5 -22.5v-80z" />
</svg>