<svg viewBox="0 0 256 256" xmlns="http://www.w3.org/2000/svg">
  <path transform="scale(1, -1) translate(0, -256)" fill="currentColor" d="M138 186l18 10q3 3 3 6v28q0 5 -3 6l-24 14q-4 2 -8 0l-24 -14q-3 -2 -3 -6v-28q0 -4 3 -6l18 -10q-22 -2 -40.5 -15t-29.5 -32.5t-11 -43.5t12.5 -45t33 -33t45.5 -12t45.5 12t33 33t12.5 45t-11 43.5t-29.5 32.5t-40.5 15zM111 226l17 10l17 -10v-20l-17 -10l-17 10v20 zM128 19q-21 0 -38.5 10t-28 28t-10.5 38.5t10.5 38.5t28 28t38.5 10t38.5 -10t28 -28t10.5 -38.5t-10.5 -38.5t-28 -28t-38.5 -10z" />
</svg>