<svg viewBox="0 0 256 256" xmlns="http://www.w3.org/2000/svg">
  <path transform="scale(1, -1) translate(0, -256)" fill="currentColor" d="M153 195l11 20q2 3 0 7l-15 26q-2 4 -6 4h-30q-4 0 -6 -4l-15 -26q-2 -4 0 -8l11 -19q-31 -8 -51.5 -34t-20.5 -60q0 -26 13 -48t35.5 -35.5t48.5 -13.5t48.5 13t35.5 35.5t13 48.5q0 34 -20.5 60t-51.5 34zM117 237h22l11 -19l-11 -19h-22l-11 19zM128 19q-22 0 -41 11 t-30.5 30t-11.5 41.5t11.5 41.5t30.5 30t41 11t41 -11t30.5 -30t11.5 -41.5t-11.5 -41.5t-30.5 -30t-41 -11z" />
</svg>