<svg viewBox="0 0 1024 1024" xmlns="http://www.w3.org/2000/svg">
  <path transform="scale(1, -1) translate(0, -960)" fill="currentColor" d="M512 555q-45 0 -85 -17t-69.5 -46.5t-47.5 -69.5q-17 -40 -17 -86t17 -86q18 -40 47.5 -69.5t69.5 -46.5t85 -17t85 17t69.5 46.5t47.5 69.5q17 40 17 86t-17 86q-18 40 -47.5 69.5t-69.5 46.5t-85 17zM512 149q-77 0 -132 54.5t-55 132.5q0 77 54.5 132t132.5 55 q77 0 132 -54.5t55 -132.5q0 -77 -55 -132t-132 -55zM542 704l74 74q12 12 19 28t7 34t-7 34t-19 28q-20 21 -49.5 25.5t-54.5 -9.5q-10 5 -20.5 7.5t-21.5 2.5q-16 0 -31.5 -6t-27.5 -16q-13 -12 -20 -28.5t-7 -34.5q0 -19 7 -37t20 -32l71 -70q-71 -6 -133 -37 q-61 -31 -107 -80.5t-72 -113.5t-26 -137q0 -76 29 -143t79 -117t117 -79t143 -29t143 29t117 79t79 117t29 143q0 73 -26 137t-72 113.5t-107 80.5q-62 31 -133 37zM414 842q0 12 5 21.5t13 18.5q8 7 18 10.5t20 3.5v0v0q9 0 17 -2.5t15 -7.5q4 -2 9 -2t9 2q17 12 37.5 10 t34.5 -16q8 -8 12 -18.5t4 -21.5t-4.5 -21.5t-11.5 -18.5l-78 -80q-2 -1 -3 -1t-2 1l-77 77q-8 8 -13 20.5t-5 24.5zM512 0q-70 0 -131 26q-61 27 -106.5 72.5t-72.5 106.5q-26 61 -26 131t26 131q27 61 72.5 106.5t106.5 72.5q61 26 131 26t131 -26q61 -27 106.5 -72.5 t72.5 -106.5q26 -61 26 -131t-26 -131q-27 -61 -72.5 -106.5t-106.5 -72.5q-61 -26 -131 -26z" />
</svg>