<svg viewBox="0 0 1024 1024" xmlns="http://www.w3.org/2000/svg">
  <path transform="scale(1, -1) translate(0, -960)" fill="currentColor" d="M461 595q53 0 89.5 37t36.5 90v190q0 7 -4.5 11.5t-11.5 4.5t-11.5 -4.5t-4.5 -11.5v-190q0 -40 -27.5 -67.5t-66.5 -27.5h-85q-58 0 -109 -22q-52 -22 -90 -60.5t-60 -89.5q-23 -51 -23 -109v-362q0 -7 4.5 -11.5t11.5 -4.5q8 0 12 4.5t4 11.5v363q0 52 20 97 q20 46 54 79.5t79 53.5t97 20h85v-2zM914 928q-8 0 -12 -4.5t-4 -11.5v-355q0 -52 -20 -97q-20 -46 -53.5 -79.5t-79.5 -53.5q-45 -20 -97 -20h-85q-53 0 -89.5 -36.5t-36.5 -89.5v-197q0 -7 4.5 -11.5t11.5 -4.5t11.5 4.5t4.5 11.5v197q0 39 27.5 66.5t66.5 27.5h85 q58 0 109 22q52 23 90 61t60 89q23 52 23 110v355q0 7 -4.5 11.5t-11.5 4.5zM749 856q7 0 11.5 4.5t4.5 11.5v40q0 7 -4.5 11.5t-11.5 4.5t-11.5 -4.5t-4.5 -11.5v-40q0 -7 4.5 -11.5t11.5 -4.5zM717 563q1 -1 3 -1h3q5 0 8.5 2t6.5 7q8 18 14 37t8 38q1 6 -3 12t-11 6 q-6 1 -12 -3t-6 -11q-2 -17 -7 -33.5t-14 -32.5q-1 -6 1.5 -12t8.5 -9zM622 456h4.5t3.5 2q18 9 34 21t29 27q5 4 5 10.5t-5 11.5t-11.5 5t-11.5 -5q-12 -12 -26 -22.5t-28 -19.5q-6 -3 -8 -9.5t0 -12.5q2 -4 6.5 -6t7.5 -2zM749 707q7 0 11.5 4.5t4.5 11.5v75q0 8 -4.5 12 t-11.5 4t-11.5 -4t-4.5 -12v-75q0 -7 4.5 -11.5t11.5 -4.5zM400 435q-18 -8 -34 -20t-30 -26q-5 -5 -5 -11.5t5 -11.5q2 -2 5.5 -3t5.5 -1q4 0 6.5 1t4.5 3q12 12 26.5 22.5t29.5 17.5q6 3 8.5 9t-0.5 12t-9.5 8.5t-12.5 -0.5zM477 458q-6 -2 -10 -7t-3 -11t5.5 -10t10.5 -4 h1h1q7 1 15 1h17q10 0 21 1l22 2q6 2 10 7t3 13q-2 6 -7 10t-13 2q-18 -2 -36.5 -1.5t-36.5 -2.5v0zM275 189q-7 0 -11.5 -4.5t-4.5 -11.5v-75q0 -8 4.5 -12t11.5 -4t11.5 4t4.5 12v75q0 7 -4.5 11.5t-11.5 4.5zM310 333q-6 3 -12 1t-8 -8q-10 -18 -16 -37t-10 -38 q-1 -6 3 -12t10 -7h1.5h1.5q6 0 10.5 3.5t5.5 9.5q2 17 8 33.5t14 31.5q3 6 0.5 12.5t-8.5 10.5v0zM275 40q-7 0 -11.5 -4.5t-4.5 -11.5v-40q0 -7 4.5 -11.5t11.5 -4.5t11.5 4.5t4.5 11.5v40q0 7 -4.5 11.5t-11.5 4.5z" />
</svg>