<svg viewBox="0 0 256 256" xmlns="http://www.w3.org/2000/svg">
  <path transform="scale(1, -1) translate(0, -256)" fill="currentColor" d="M251 41l-45 179q0 5 -3.5 7.5t-8.5 2.5h-132q-5 0 -8 -3t-4 -7l-45 -179q-1 -6 3 -10.5t9 -4.5h222q6 0 9.5 4.5t2.5 10.5zM128 67q-3 0 -5 -2t-2 -5v-20h-69l42 176h28l-1 -2v-20q0 -3 2 -5t5 -2t5.5 2t2.5 5v20l-1 2h28l41 -176h-69v20q0 3 -2 5t-5 2zM63 216h16 l-41 -176h-18zM218 40l-41 176h16l43 -176h-18zM128 136q3 0 5 2t2 5v19q0 3 -2 5.5t-5 2.5t-5 -2.5t-2 -5.5v-19q0 -3 2 -5t5 -2zM135 111q0 3 -2 5t-5 2t-5 -2t-2 -5v-20q0 -3 2 -5t5 -2t5 2t2 5v20z" />
</svg>