<svg viewBox="0 0 256 256" xmlns="http://www.w3.org/2000/svg">
  <path transform="scale(1, -1) translate(0, -256)" fill="currentColor" d="M21 251q-3 0 -5 -2t-2 -5v-232q0 -3 2 -5t5 -2t5 2t2 5v232q0 3 -2 5t-5 2zM235 251q-3 0 -5 -2t-2 -5v-232q0 -3 2 -5t5 -2t5 2t2 5v232q0 3 -2 5t-5 2zM128 251q-3 0 -5 -2t-2 -5v-14q0 -3 2 -5.5t5 -2.5t5 2.5t2 5.5v14q0 3 -2 5t-5 2zM128 91q-3 0 -5 -2t-2 -5v-29 q0 -3 2 -5t5 -2t5 2t2 5v29q0 3 -2 5t-5 2zM128 150q-3 0 -5 -2.5t-2 -5.5v-29q0 -3 2 -5t5 -2t5 2t2 5v29q0 3 -2 5.5t-5 2.5zM128 208q-3 0 -5 -2t-2 -5v-29q0 -3 2 -5.5t5 -2.5t5 2.5t2 5.5v29q0 3 -2 5t-5 2zM128 33q-3 0 -5 -2t-2 -5v-14q0 -3 2 -5t5 -2t5 2t2 5v14 q0 3 -2 5t-5 2zM85 130l-5 -4v44q0 3 -2 5t-5 2t-5 -2t-2 -5v-44l-5 5q-2 2 -5 2t-5 -2t-2 -5t2 -5l17 -17q2 -2 4.5 -2t4.5 2l17 16q2 2 2 5t-2 5.5t-4.5 2.5t-4.5 -3zM191 174q-2 2 -5 2.5t-5 -2.5l-17 -16q-2 -2 -2 -5t2.5 -5t5 -2t4.5 2l5 5v-44q0 -3 2 -5t5 -2t5.5 2 t2.5 5v43l4 -4q2 -2 5 -2t5 2t2 4.5t-2 5.5z" />
</svg>