<svg viewBox="0 0 1024 1024" xmlns="http://www.w3.org/2000/svg">
  <path transform="scale(1, -1) translate(0, -960)" fill="currentColor" d="M990 98l-177 718q-4 12 -13.5 20.5t-21.5 8.5h-532q-13 0 -22.5 -8t-12.5 -21l-177 -718q-3 -9 -1 -17t7 -15q5 -8 12.5 -11.5t16.5 -3.5h886q9 0 16.5 3.5t12.5 11.5q6 7 7.5 15t-1.5 17v0zM512 190q-7 0 -11.5 -4t-4.5 -12v-78q0 -4 1 -7t4 -4h-307l171 726h294 l171 -726h-307q3 2 4 4.5t1 6.5v78q0 8 -4.5 12t-11.5 4zM66 86l-1 1.5t-1 3.5l178 717q0 1 1.5 2t2.5 1h85l-171 -726h-91q-1 0 -2 0.5zM958 86l-1 -0.5t-2 -0.5h-91l-171 726h85q1 0 2.5 -1t1.5 -2l178 -718v-3t-2 -1v0zM512 694q7 0 11.5 4.5t4.5 11.5v79q0 7 -4.5 11.5 t-11.5 4.5t-11.5 -4.5t-4.5 -11.5v-79q0 -6 4.5 -11t11.5 -5zM512 490q7 0 11.5 4t4.5 12v78q0 7 -4.5 11.5t-11.5 4.5t-11.5 -4.5t-4.5 -11.5v-78q0 -6 4.5 -11t11.5 -5zM528 379q0 7 -4.5 11.5t-11.5 4.5t-11.5 -4.5t-4.5 -11.5v-78q0 -7 4.5 -11.5t11.5 -4.5t11.5 4.5 t4.5 11.5v78z" />
</svg>