<svg viewBox="0 0 256 256" xmlns="http://www.w3.org/2000/svg">
  <path transform="scale(1, -1) translate(0, -256)" fill="currentColor" d="M115 162q15 0 25 10t10 25v47q0 3 -2 5t-5 2t-5 -2t-2 -5v-48q0 -8 -6.5 -14t-14.5 -6h-21q-20 0 -37 -10t-27 -26.5t-10 -36.5v-91q0 -3 2.5 -5t5.5 -2t4.5 2t1.5 5v91q0 16 8 29.5t21.5 21.5t30.5 8h21zM228 251q-3 0 -5 -2t-2 -5v-89q0 -16 -8 -30t-21.5 -21.5 t-29.5 -7.5h-21q-15 0 -25 -10.5t-10 -24.5v-49q0 -3 2 -5t5 -2t5 2t2 5v49q0 9 6.5 15t14.5 6h21q20 0 37 10t27 26.5t10 36.5v89q0 3 -2.5 5t-5.5 2zM187 227q3 0 5 2t2 5v10q0 3 -2 5t-5 2t-5 -2t-2 -5v-10q0 -3 2 -5t5 -2zM150 131q1 -4 6 -4q1 0 3 1q8 5 16 12q2 2 2 5 t-2 5t-5 2.5t-5 -2.5q-5 -5 -13 -10q-2 -1 -3 -4t1 -5zM178 154q2 -1 3.5 -1t3.5 1t3 3q4 10 6 20q0 3 -1.5 5.5t-4.5 2.5t-5.5 -1.5t-2.5 -4.5q-2 -8 -5 -15q-1 -3 -0.5 -6t3.5 -4zM187 190q3 0 5 2t2 5v19q0 3 -2 5t-5 2t-5 -2.5t-2 -5.5v-19q0 -2 2 -4t5 -2zM108 124 q-1 3 -4 4t-5 0q-10 -5 -17 -12q-2 -2 -2 -5t2 -5t5 -2t5 2q6 6 13 9q3 1 3.5 4t-0.5 5zM79 102q-3 1 -5.5 0t-4.5 -3q-5 -10 -7 -20q0 -3 1.5 -5t4.5 -3h1q3 0 5 2t2 4q1 7 5 16q2 2 1.5 4.5t-3.5 4.5zM137 135q-3 -1 -9.5 -1t-9.5 -0.5t-4.5 -3t-1 -5t2.5 -4.5t4 -2h1 q3 1 8 1l11 1q3 0 4.5 2.5t1.5 5.5t-2.5 4.5t-5.5 1.5zM69 66q-3 0 -5 -2t-2 -5v-19q0 -3 2 -5t5 -2t5 2t2 5v19q0 3 -2 5t-5 2zM69 29q-3 0 -5 -2t-2 -5v-10q0 -3 2 -5t5 -2t5 2t2 5v10q0 3 -2 5t-5 2z" />
</svg>