<svg viewBox="0 0 1024 1024" xmlns="http://www.w3.org/2000/svg">
  <path transform="scale(1, -1) translate(0, -960)" fill="currentColor" d="M83 928q-7 0 -11.5 -4.5t-4.5 -11.5v-928q0 -7 4.5 -11.5t11.5 -4.5t11.5 4.5t4.5 11.5v928q0 7 -4.5 11.5t-11.5 4.5zM941 928q-7 0 -11.5 -4.5t-4.5 -11.5v-928q0 -7 4.5 -11.5t11.5 -4.5t11.5 4.5t4.5 11.5v928q0 7 -5 11.5t-11 4.5zM512 928q-7 0 -11.5 -4.5 t-4.5 -11.5v-56q0 -7 4.5 -11.5t11.5 -4.5t11.5 4.5t4.5 11.5v56q0 7 -4.5 11.5t-11.5 4.5zM512 522q-7 0 -11.5 -4.5t-4.5 -11.5v-117q0 -7 4.5 -11.5t11.5 -4.5t11.5 4.5t4.5 11.5v117q0 7 -4.5 11.5t-11.5 4.5v0zM512 290q-7 0 -11.5 -4.5t-4.5 -11.5v-117 q0 -7 4.5 -11.5t11.5 -4.5t11.5 4.5t4.5 11.5v117q0 6 -4.5 11t-11.5 5zM512 755q-7 0 -11.5 -4.5t-4.5 -11.5v-117q0 -7 4.5 -11.5t11.5 -4.5t11.5 4.5t4.5 11.5v117q0 7 -4.5 11.5t-11.5 4.5zM512 56q-7 0 -11.5 -4.5t-4.5 -11.5v-56q0 -7 4.5 -11.5t11.5 -4.5t11.5 4.5 t4.5 11.5v56q0 7 -4.5 11.5t-11.5 4.5zM347 450l-38 -39v203q0 8 -4.5 12t-11.5 4t-11.5 -4t-4.5 -12v-203l-39 39q-4 4 -10.5 4t-11.5 -4q-5 -5 -5 -11.5t5 -11.5l67 -67q3 -2 6 -3.5t5 -1.5q3 0 6 1.5t6 3.5l65 66q5 4 5 10.5t-5 11.5t-12 5.5t-12 -3.5v0zM755 626 q-5 4 -11 4t-11 -4l-66 -66q-5 -5 -5 -11.5t5 -10.5q5 -5 11.5 -5t11.5 5l38 38v-203q0 -7 4.5 -11.5t11.5 -4.5t11.5 4.5t4.5 11.5v203l38 -38q3 -3 6 -4t6 -1q2 0 5 1t6 4q5 4 5 10.5t-5 11.5l-66 66v0z" />
</svg>