<svg viewBox="0 0 1024 1024" xmlns="http://www.w3.org/2000/svg">
  <path transform="scale(1, -1) translate(0, -960)" fill="currentColor" d="M810 624h-24q-8 0 -12 -4.5t-4 -11.5t4 -11.5t12 -4.5h24q20 0 34.5 -14.5t14.5 -35.5v-364q0 -11 -8 -19.5t-19 -8.5h-640q-11 0 -19 8.5t-8 19.5v364q0 21 14.5 35.5t34.5 14.5h13q7 0 11.5 4.5t4.5 11.5t-4.5 11.5t-11.5 4.5h-13q-33 0 -57 -24t-24 -58v-364 q0 -24 17.5 -42t41.5 -18h245l-18 -118h-96q-7 0 -11.5 -4.5t-4.5 -11.5t4.5 -11.5t11.5 -4.5h378q7 0 11.5 4.5t4.5 11.5t-4.5 11.5t-11.5 4.5h-96l-18 118h245q24 0 41.5 18t17.5 42v364q0 34 -24 58t-57 24v0zM573 0h-120l17 118h87zM296 357q2 -1 4 -1.5t4 -0.5t4 0.5 t4 1.5l85 46v-25q0 -8 4.5 -12t11.5 -4h198q7 0 11.5 4t4.5 12v25l85 -46q1 -1 3.5 -1.5t4.5 -0.5t4.5 0.5t3.5 1.5q4 2 6 5.5t2 8.5v93q0 26 -13.5 48t-36.5 35l-59 32v61q0 126 -32.5 188t-71.5 95q-5 4 -10.5 4t-10.5 -4q-38 -33 -71 -95t-34 -188v-62l-59 -32 q-23 -12 -36.5 -34.5t-13.5 -49.5v-92q0 -4 2 -7.5t6 -5.5v0zM672 517q14 -9 23 -23.5t9 -31.5v-65l-77 41v103l45 -24v0zM429 640q0 109 24.5 163.5t58.5 86.5q34 -32 58.5 -87t24.5 -163v-248h-166v248v0zM320 462q0 17 9 31.5t23 23.5l45 24v-103l-77 -40v64z" />
</svg>