<svg viewBox="0 0 256 256" xmlns="http://www.w3.org/2000/svg">
  <path transform="scale(1, -1) translate(0, -256)" fill="currentColor" d="M120 115v0l30 31q22 21 31 41t8 43q0 2 -2 4t-5 2q-22 1 -42 -8t-42 -30l-30 -31h-34q-3 0 -5 -2l-22 -21q-2 -2 -2 -5t2 -5l21 -21l-1 -1q-3 -2 -3 -3q-10 -9 -15 -45q0 -3 2 -5.5t5 -2.5h1q35 5 45 15l3 4l21 -21q2 -2 5 -2t5 2l4 4q2 2 2 5t-2 5t-4.5 2t-4.5 -1 l-69 70l14 14h35q3 0 5 2l32 33q20 19 38 28q13 6 29 6q0 -15 -7 -29q-8 -17 -28 -37l-32 -33q-2 -2 -2 -5v-3q0 -3 2 -5t5 -2t5 2t2 5zM52 81q-4 -4 -28 -9q2 10 4.5 18t4.5 9.5t5 3.5l17 -17q-1 -3 -3 -5zM202 74q-3 0 -5 -2.5t-2 -5.5q0 -13 -9.5 -22.5t-23 -9.5t-23 9.5 t-9.5 23t9.5 23t22.5 9.5q5 0 9 -1t6.5 0.5t3.5 4t-0.5 5.5t-4.5 4q-7 2 -14 2q-19 0 -32.5 -14t-13.5 -33t13.5 -33t33 -14t33 14t13.5 33q0 3 -2 5t-5 2zM244 122h-18v16q0 3 -2.5 5.5t-5.5 2.5t-5 -2.5t-2 -5.5v-20l-49 -43q-2 -2 -2.5 -4.5t1.5 -5t5 -2.5t5 1l50 44h23 q3 0 5 2t2 5t-2 5t-5 2zM146 74q-3 0 -5 -2.5t-2 -5.5q0 -9 7 -16t16 -7q3 0 5.5 2t2.5 5t-2.5 5.5t-5.5 2.5t-6 2.5t-3 6t-2 5.5t-5 2z" />
</svg>