<svg viewBox="0 0 256 256" xmlns="http://www.w3.org/2000/svg">
  <path transform="scale(1, -1) translate(0, -256)" fill="currentColor" d="M155 99v1l39 40q31 30 42 59q8 21 6 45q0 3 -2 5t-4 2q-24 1 -45 -7q-29 -11 -60 -41l-39 -39h-44q-3 0 -5 -2l-27 -28q-2 -2 -2 -4.5t2 -4.5l28 -29q-5 -2 -7 -5q-11 -11 -18 -55v-1q-1 -3 1.5 -5.5t5.5 -2.5h2q43 8 54 18q3 3 5 7l29 -28q2 -2 5 -2t5 2l5 5q2 2 2 5 t-2 5t-5 2t-5 -2h-1l-90 91l20 20h45q3 0 5 2l41 41q25 25 49 36q18 8 38 8h1q0 -20 -8 -38q-10 -23 -37 -49l-41 -42q-2 -2 -2 -4v-5q0 -3 2 -5t5 -2t5 2t2 5zM72 55q-3 -3 -14 -6.5t-24 -5.5q2 13 5.5 24t7 14.5t7.5 4.5l23 -23q-1 -5 -5 -8zM210 35q-2 1 -3 1q6 10 5 22 t-10 21t-22.5 9t-23 -10t-9.5 -23.5t9 -23t24 -9.5q10 0 18 6q1 -3 2 -4l17 -17q2 -2 5 -2t5 2t2 5t-2 5zM180 36q-8 0 -13.5 5.5t-5.5 13.5t5.5 13.5t13 5.5t13 -5.5t5.5 -13.5t-5.5 -13.5t-12.5 -5.5z" />
</svg>