<svg viewBox="0 0 256 256" xmlns="http://www.w3.org/2000/svg">
  <path transform="scale(1, -1) translate(0, -256)" fill="currentColor" d="M249 106l-19 19v33q0 24 -6 40t-19 28q-2 1 -4.5 1t-4.5 -1q-13 -12 -19 -28t-6 -40v-33l-19 -19q-2 -2 -2 -4v-24q0 -3 2.5 -5t5.5 -2h21l-1 -3q0 -6 7 -18q5 -8 10 -15q2 -3 5.5 -3t5.5 3q6 7 10 15q7 12 7 18v3h21q3 0 5 2t2 5v24q0 3 -2 4zM209 69q0 -4 -8 -17 q-9 13 -9 17l1 3h16v-3zM237 85h-73v14l19 18q2 2 2 5v36q0 20 5 34q3 11 11 18q7 -8 11 -19q5 -13 5 -33v-36q0 -3 2 -5l18 -18v-14zM109 161h-15q-8 0 -14 -5.5t-6 -13.5v-94q0 -8 6 -13.5t14 -5.5h15q8 0 13.5 5.5t5.5 13.5v94q0 8 -5.5 13.5t-13.5 5.5zM114 48 q0 -2 -1.5 -3.5t-3.5 -1.5h-15q-2 0 -4 1.5t-2 3.5v94q0 2 1.5 3.5t4.5 1.5h15q2 0 3.5 -1.5t1.5 -3.5v-94zM39 111h-15q-8 0 -13.5 -5.5t-5.5 -13.5v-44q0 -8 5.5 -13.5t13.5 -5.5h15q8 0 13.5 5.5t5.5 13.5v44q0 8 -5.5 13.5t-13.5 5.5zM44 48q0 -2 -1.5 -3.5t-3.5 -1.5 h-15q-2 0 -3.5 1.5t-1.5 3.5v44q0 3 1.5 4.5t3.5 1.5h15q2 0 3.5 -1.5t1.5 -4.5v-44z" />
</svg>