<svg viewBox="0 0 1024 1024" xmlns="http://www.w3.org/2000/svg">
  <path transform="scale(1, -1) translate(0, -960)" fill="currentColor" d="M984 640l-136 136l-3 2q-5 2 -9 3.5t-10 2.5l-220 -18q-57 51 -122 86q-65 36 -132.5 55.5t-134.5 21.5t-129 -14q-16 -5 -26.5 -16t-15.5 -25q-16 -62 -14 -129t21 -134.5t55 -133.5q36 -65 87 -123l-19 -221q0 -5 1.5 -9.5t4.5 -8.5l138 -139q4 -4 9 -6t10 -2h4.5 t3.5 2q7 2 12.5 7.5t6.5 12.5l24 207q23 -13 47 -24t48 -19q5 -2 9.5 -3t9.5 -1q11 0 22 5t20 13l246 246q12 12 15.5 29t-1.5 32q-8 24 -19 48t-24 47l207 22q7 1 12.5 6.5t7.5 12.5q3 9 1 16t-7 13v0zM336 5l-128 128l16 189q1 -2 1.5 -2t1.5 -2q30 -30 63.5 -56t67.5 -48 l-22 -209v0zM770 437l-247 -247q-6 -6 -13 -7t-14 1q-67 24 -129.5 64t-115.5 93q-56 57 -97 122q-40 66 -63 134t-26 136q-4 69 13 131q2 7 6.5 12t11.5 7q25 6 52.5 9.5t54.5 3.5q54 0 109 -12q55 -13 108.5 -36.5t103.5 -58.5q51 -35 95 -80q53 -53 93 -115.5t64 -129.5 q2 -7 0 -14t-6 -13zM746 600q-22 36 -48 69t-56 64q-2 0 -2 1t-2 2l189 14l128 -128zM886 293q-2 1 -7.5 2t-11.5 -4q-9 -7 -45.5 -43t-63.5 -61q-73 -73 -84.5 -87.5t-9.5 -22.5q0 -3 1 -4.5t4 -3.5q36 -36 86.5 -47.5t92.5 -11.5q34 0 56.5 3t25.5 5q4 1 7.5 4.5t4.5 7.5 q1 3 5 32t2 69t-14 84q-13 44 -45 76l-1 1t-3 1v0zM914 46q-27 -3 -94.5 -3t-115.5 39q12 13 36 37q24 25 50.5 51t50.5 50q25 24 37 36q39 -48 39 -115.5t-3 -94.5zM414 662q-48 0 -82 -34t-34 -82t34 -82.5t82 -34.5t82.5 34.5t34.5 82.5t-34.5 82t-82.5 34v0zM414 461 q-34 0 -59 25t-25 60q0 34 25 59t59 25q35 0 60 -25t25 -59q0 -35 -25 -60t-60 -25z" />
</svg>