<svg viewBox="0 0 1024 1024" xmlns="http://www.w3.org/2000/svg">
  <path transform="scale(1, -1) translate(0, -960)" fill="currentColor" d="M920 912q0 6 -4 10t-10 4q-36 2 -76 -2t-86.5 -21.5t-98.5 -53.5q-53 -35 -114 -95l-147 -146h-166q-4 0 -6.5 -1t-5.5 -4l-99 -99q-2 -2 -3.5 -5t-1.5 -6q0 -4 1.5 -6.5t3.5 -4.5l114 -114q-10 -4 -19 -10t-16 -14q-15 -14 -26 -45q-11 -30 -19 -62.5t-12 -58.5 q-5 -26 -6 -32q0 -4 1.5 -7.5t3.5 -5.5q2 -3 5 -4t6 -1h1h1q12 1 90 17.5t108 44.5q9 9 14 17.5t10 18.5l112 -112q3 -3 6 -4t5 -1q4 0 6.5 1t5.5 4l19 19q5 5 5 11t-5 11t-11.5 5t-11.5 -5l-8 -8l-344 346l84 83h166q4 0 6.5 1t4.5 4l151 150q54 55 100 88q47 33 88 50.5 t77 22.5t69 4q1 -33 -4 -69t-22.5 -77t-50.5 -88t-88 -102l-150 -150q-3 -3 -4 -5.5t-1 -6.5v-16q0 -7 4.5 -11.5t11.5 -4.5t11.5 4.5t4.5 11.5v10l146 146q61 61 97 114t54 99t22 86q3 40 1 75v0zM315 214q-15 -15 -65 -28.5t-93 -20.5q7 43 20.5 93t28.5 65q9 9 18.5 14 t20.5 7l89 -90q-1 -12 -5.5 -21.5t-13.5 -18.5v0zM742 272h117q7 0 11.5 4.5t4.5 11.5t-4.5 11.5t-11.5 4.5h-56v37q0 7 -4.5 11.5t-11.5 4.5t-11.5 -4.5t-4.5 -11.5v-37h-29q-32 0 -55 -23t-23 -55q0 -33 23 -56t55 -23h55q19 0 32.5 -13.5t13.5 -32.5t-13.5 -33t-32.5 -14 h-117q-7 0 -11.5 -4t-4.5 -12q0 -7 4.5 -11.5t11.5 -4.5h91v-38q0 -7 4.5 -11.5t11.5 -4.5t11.5 4.5t4.5 11.5v38q30 3 51 25.5t21 53.5q0 32 -23 55t-55 23h-55q-19 0 -32.5 13.5t-13.5 33.5q0 19 13.5 32.5t32.5 13.5v0z" />
</svg>