<svg viewBox="0 0 256 256" xmlns="http://www.w3.org/2000/svg">
  <path transform="scale(1, -1) translate(0, -256)" fill="currentColor" d="M195 158h-6q-3 0 -5 -2t-2 -5t2 -5t5 -2h6q3 0 5 -2t2 -6v-81q0 -3 -2 -3h-144q-2 0 -2 3v82q0 3 2 5.5t5 2.5h3q3 0 5.5 2t2.5 5t-2.5 5t-5.5 2h-3q-9 0 -15 -6t-6 -15v-82q0 -7 5 -12t11 -5h51l-3 -19h-18q-3 0 -5 -2.5t-2 -5.5t2 -5t5 -2h84q3 0 5.5 2t2.5 5t-2.5 5.5 t-5.5 2.5h-18l-3 19h51q7 0 12 5t5 12v81q-1 9 -7.5 15t-14.5 6zM138 19h-19l3 19h13zM86 99h20v-2q0 -7 7 -18q4 -8 9 -15q2 -2 6 -2t6 2q5 7 9 15q7 11 7 18v2h20q3 0 5 2t2 5v23q0 3 -2 5l-17 18v31q0 24 -6 39.5t-19 26.5q-2 2 -5 2t-4 -2q-13 -11 -19 -27t-6 -39v-31 l-18 -18q-2 -2 -2 -5v-23q0 -3 2 -5t5 -2zM136 97q0 -4 -8 -16q-8 13 -8 16v2h16v-2zM93 126l17 18q2 2 2 4v35q0 19 5 33q3 10 11 18q7 -8 10 -18q5 -14 5 -33v-35q0 -2 2 -4l17 -18v-13h-69v13z" />
</svg>