<svg viewBox="0 0 1024 1024" xmlns="http://www.w3.org/2000/svg">
  <path transform="scale(1, -1) translate(0, -960)" fill="currentColor" d="M781 912q0 6 -4.5 10t-10.5 4q-30 2 -65 -1q-35 -4 -75.5 -19.5t-86.5 -45.5q-46 -31 -99 -84l-126 -126h-143q-3 0 -6 -1.5t-5 -3.5l-88 -85q-2 -2 -3.5 -5t-1.5 -6q0 -4 1.5 -6.5t3.5 -4.5l96 -96q-8 -4 -15.5 -9t-13.5 -11q-25 -25 -39 -93.5t-15 -78.5q0 -4 1 -7.5 t4 -5.5q2 -3 4.5 -4t6.5 -1h0.5h0.5q11 1 79.5 15t93.5 39q6 6 11 13.5t8 15.5l96 -96q3 -2 6 -3.5t6 -1.5t5.5 1.5t5.5 3.5l16 16q5 5 5 11.5t-5 11.5q-5 4 -11.5 4t-11.5 -4l-4 -5l-296 296l70 70h142q4 0 6.5 1.5t5.5 3.5l131 131q93 94 162 119t126 24q1 -57 -24 -126 t-119 -162l-131 -132q-2 -2 -3.5 -4.5t-1.5 -6.5v-14q0 -7 4.5 -11.5t11.5 -4.5q8 0 12 4.5t4 11.5v8l127 126q53 53 84 99t47 86t19 75q4 34 2 65zM253 309q-13 -13 -54.5 -24.5t-78.5 -17.5q6 36 17 78t25 55q6 6 14 10.5t18 7.5l76 -77q-2 -10 -6.5 -18t-10.5 -14v0z M901 430q-28 30 -64.5 46.5t-76.5 17.5q-41 2 -79 -13t-67 -44q-30 -29 -45 -66t-15 -78q0 -53 25 -98.5t69 -72.5q10 -6 15.5 -16.5t5.5 -22.5v-35q0 -32 22.5 -54.5t54.5 -22.5h19q32 0 54.5 23t22.5 54v37q0 12 5.5 22t14.5 16q44 28 69 71.5t26 95.5q1 37 -14 73.5 t-42 66.5v0zM810 45q0 -19 -13.5 -32t-31.5 -13h-19q-20 0 -32.5 13.5t-12.5 31.5v35q0 4 -0.5 7t-1.5 6h112q0 -4 -0.5 -6.5t-0.5 -6.5v-35zM845 147q-6 -3 -11.5 -9t-9.5 -12h-138q-4 6 -9 12t-11 9q-38 24 -59 62t-21 82q0 35 13 66.5t38 55.5q24 24 54.5 36t63.5 12h2.5 h2.5q34 -1 64 -15t54 -38q24 -25 36 -56.5t12 -65.5q-2 -43 -23.5 -79.5t-57.5 -59.5z" />
</svg>