<svg viewBox="0 0 1024 1024" xmlns="http://www.w3.org/2000/svg">
  <path transform="scale(1, -1) translate(0, -960)" fill="currentColor" d="M590 365v9l151 151q63 63 100 118q36 55 54.5 103t22.5 89t2 77q0 6 -4 10t-10 4q-37 3 -78 -1q-42 -4 -89.5 -22.5t-101.5 -55.5q-55 -37 -117 -100l-152 -149h-171q-4 0 -6.5 -1t-4.5 -3l-103 -103q-2 -2 -3.5 -4.5t-1.5 -6.5t1.5 -6.5t3.5 -4.5l117 -117 q-11 -4 -20.5 -10t-17.5 -14q-15 -15 -27 -46q-12 -32 -20 -64.5t-12 -59.5q-5 -27 -5 -33q0 -4 1 -7.5t3 -5.5q3 -2 5.5 -3.5t6.5 -1.5h0.5h0.5q6 1 33 5q27 5 60 13t64 20q31 11 46 26q9 9 15 18.5t9 20.5l117 -117q3 -3 6 -4t5 -1q4 0 6.5 1t5.5 4l19 19q5 5 5 11.5 t-5 10.5q-5 5 -11.5 5t-11.5 -5l-8 -8l-353 354l86 86h171q4 0 6.5 1.5t5.5 3.5l155 155q56 57 105 91t91.5 52t79.5 23t71 4q1 -34 -4 -72q-5 -37 -23 -79.5t-52 -90.5q-34 -49 -91 -105l-155 -155q-2 -3 -3.5 -5.5t-1.5 -6.5v-16q0 -7 4.5 -11.5t11.5 -4.5q8 0 12 4.5 t4 10.5v0zM298 192q-17 -17 -68.5 -30.5t-96.5 -20.5q7 44 21 96t30 69q8 8 18.5 13t21.5 7l93 -92q0 -12 -5.5 -23t-13.5 -19v0zM765 328q-75 0 -128 -53t-53 -128q0 -74 53 -126.5t128 -52.5q74 0 127.5 53t53.5 128q0 74 -53.5 126.5t-127.5 52.5zM765 0q-61 0 -105 44 t-44 105t44 105t105 44t105 -44t44 -105t-44 -105t-105 -44zM802 187l-55 -51l-16 18q-5 4 -11 4t-11 -4q-5 -5 -5 -11.5t5 -11.5l27 -29q2 -2 5.5 -3t5.5 -1q3 0 6 1t5 3l68 63q4 5 4 11t-4 11q-5 4 -12.5 4.5t-11.5 -4.5v0z" />
</svg>