<svg viewBox="0 0 1024 1024" xmlns="http://www.w3.org/2000/svg">
  <path transform="scale(1, -1) translate(0, -960)" fill="currentColor" d="M762 504h-21q-7 0 -11.5 -4.5t-4.5 -11.5t4.5 -11.5t11.5 -4.5h21q15 0 26.5 -11.5t11.5 -26.5v-216h-576v216q0 15 11.5 26.5t26.5 11.5h12q7 0 11.5 4.5t4.5 11.5t-4.5 11.5t-11.5 4.5h-12q-28 0 -49 -21t-21 -49v-304q0 -22 15.5 -37.5t37.5 -15.5h200l-15 -90 q0 -3 0.5 -6.5t3.5 -6.5q2 -2 5.5 -4t6.5 -2h132q3 0 6.5 1.5t5.5 4.5q3 3 4 6.5t0 6.5l-15 90h200q22 0 37.5 15.5t15.5 37.5v304q0 28 -21 49t-49 21v0zM558 0h-92l12 77h68zM779 109h-534q-9 0 -15 6t-6 15v57h576v-59q0 -8 -6 -13.5t-15 -5.5v0zM320 542h1h1l75 8 l-7 -16q-2 -6 0.5 -12t9.5 -8l22 -10q-9 -6 -16.5 -14.5t-11.5 -19.5q-10 -24 -1 -70.5t12 -58.5q1 -4 3.5 -6.5t5.5 -4.5q2 0 3 -1t4 -1h4.5t3.5 2q11 6 49.5 33t47.5 51q5 11 5.5 22t-1.5 23l22 -9q1 0 2.5 -1t3.5 -1h4t3 2q2 1 4.5 3t3.5 5l6 16l48 -60l6 -4t7 -2h1.5 h1.5q4 1 7.5 3.5t5.5 6.5l29 72q8 20 4.5 42t-17.5 39l-35 43l19 47q40 98 33.5 157t-25.5 97q-2 6 -7.5 8.5t-11.5 -0.5q-41 -12 -86 -49t-85 -136l-20 -47l-54 -6q-23 -3 -40 -16t-26 -34l-28 -72q-2 -3 -1.5 -7.5t2.5 -8.5q3 -2 6 -3.5t7 -1.5v0zM499 429 q-3 -10 -24 -26.5t-43 -31.5q-6 25 -9 51t1 37q4 7 9 13t12 10q3 1 7 2t9 1q3 0 7 -1t7 -2q17 -6 23.5 -22t0.5 -31zM658 504l-20 -46l-43 51l31 73l24 -28q8 -10 10 -23.5t-2 -26.5v0zM643 891q16 -35 17 -84.5t-31 -131.5l-77 -189l-125 50l45 110l10 23v0v0l22 56 q34 83 69 117.5t70 48.5v0zM365 622q5 12 16 21t24 10l37 5l-31 -74l-65 -8z" />
</svg>