<svg viewBox="0 0 256 256" xmlns="http://www.w3.org/2000/svg">
  <path transform="scale(1, -1) translate(0, -256)" fill="currentColor" d="M78 79h22v-3q0 -10 17 -34v-1q2 -3 5.5 -3t5.5 3l1 1q17 24 17 34v3h22q3 0 5 2t2 5v25q0 3 -2 5l-19 19v34q0 25 -6.5 42t-19.5 29q-2 2 -5 2t-5 -2q-13 -12 -19.5 -29t-6.5 -42v-34l-19 -19q-2 -2 -2 -5v-25q0 -3 2 -5t5 -2zM132 76q0 -4 -9 -18q-9 14 -9 18v3h17 q1 -1 1 -3zM84 108l20 19q2 2 2 5v37q0 22 5 36q4 12 11 20q8 -9 12 -20q6 -14 6 -36v-37q0 -3 2 -5l19 -19v-14h-77v14zM244 28h-27v4v88q0 9 -6.5 15.5t-16.5 6.5h-6q-3 0 -5 -2t-2 -5t2 -5t5 -2h6q4 0 6.5 -2.5t2.5 -6.5v-88q0 -1 -1 -2t-2 -1h-154q-2 0 -3 1t-1 2v88 q0 4 2.5 6.5t6.5 2.5h3q3 0 5 2t2 5t-2 5t-5 2h-3q-10 0 -16.5 -6.5t-6.5 -15.5v-88v-4h-16q-3 0 -5 -2t-2 -5t2 -5t5 -2h188h3h2h39q3 0 5 2t2 5t-2 5t-5 2z" />
</svg>