<svg viewBox="0 0 256 256" xmlns="http://www.w3.org/2000/svg">
  <path transform="scale(1, -1) translate(0, -256)" fill="currentColor" d="M70 86q2 -1 4 -1t3 1l17 8v-1q0 -3 2 -5t5 -2h49q3 0 5 2t2 5v1l17 -9h3l3 1q4 2 4 6v22q0 8 -3.5 14t-10.5 10l-13 7v13q0 26 -6 43t-21 30q-2 2 -4.5 2t-4.5 -2q-14 -13 -20.5 -30t-6.5 -43v-13l-13 -7q-6 -4 -9.5 -10t-3.5 -14v-22q-1 -2 0 -3.5t2 -2.5zM163 125 q3 -1 5 -4t2 -7v-10l-13 6v19zM108 158q0 22 5 37q4 12 12 21q8 -9 13 -21q5 -15 5 -37v-58h-35v58zM81 114q0 4 1.5 7t4.5 4l7 4v-19l-13 -6v10zM244 38h-22v3v90q0 10 -7 16.5t-16 6.5h-6q-3 0 -5 -2t-2 -5t2 -5t5 -2h6q3 0 6 -2.5t3 -6.5v-90q0 -2 -1 -3t-3 -1h-158 q-1 0 -2 1t-1 3v90q0 4 2.5 6.5t6.5 2.5h3q3 0 5 2.5t2 5.5t-2 5t-5 2h-3q-10 0 -16.5 -7t-6.5 -16v-90v-4h-17q-3 0 -5 -2t-2 -5t2 -5t5 -2h232q3 0 5 2t2 5t-2 5t-5 2z" />
</svg>