<svg viewBox="0 0 256 256" xmlns="http://www.w3.org/2000/svg">
  <path transform="scale(1, -1) translate(0, -256)" fill="currentColor" d="M63 153q2 0 3 1h1l-2 -19q0 -4 2.5 -5.5t4.5 -1.5h3l21 10q7 3 11 9t5 13l1 15l13 6q23 10 36.5 23t19.5 32q0 2 -1 4.5t-3 3.5q-17 8 -35.5 7t-42.5 -12l-13 -5l-12 9q-6 4 -13 5t-14 -2l-21 -10q-4 -2 -4.5 -5.5t3.5 -6.5l15 -11l-1 -1q-4 -1 -4.5 -3.5t0.5 -5.5 l20 -45q2 -5 7 -5zM98 161q0 -3 -2 -6t-5 -4l-11 -5l1 15l17 7v-7zM43 228l11 5q6 3 12 -1l6 -5l-17 -8zM74 212l15 7l16 7q21 9 37 11q13 1 24 -3q-5 -12 -14 -20q-11 -11 -32 -21l-54 -23l-14 32zM63 37q-3 0 -5 -2t-2 -5v-18q0 -3 2 -5t5 -2t5 2t2 5v18q0 3 -2 5t-5 2z M113 52q-3 0 -5 -2.5t-2 -5.5v-32q0 -3 2 -5t5 -2t5 2t2 5v33q0 3 -2 5t-5 2zM164 72q-3 0 -5.5 -2t-2.5 -5v-53q0 -3 2.5 -5t5.5 -2t5 2t2 5v53q0 3 -2.5 5t-4.5 2zM214 92q-3 0 -5.5 -2t-2.5 -5v-73q0 -3 2.5 -5t5.5 -2t5 2t2 5v73q0 3 -2 5t-5 2zM233 155v1v3l-2 2 l-34 13q-3 1 -5.5 0t-3.5 -3.5t0 -5.5t4 -3l15 -6l-164 -70q-3 -1 -4 -3.5t0.5 -6t6.5 -3.5h3l165 71l-6 -16q-1 -3 0 -5.5t4 -3.5l2 -1q3 0 4.5 1.5t2.5 3.5l11 31z" />
</svg>