<svg viewBox="0 0 256 256" xmlns="http://www.w3.org/2000/svg">
  <path transform="scale(1, -1) translate(0, -256)" fill="currentColor" d="M202 175h-6q-3 0 -5 -2t-2 -5t2 -5.5t5 -2.5h6q4 0 7 -2.5t3 -6.5v-91q0 -2 -1.5 -3t-2.5 -1h-160q-2 0 -3 1t-1 3v92q0 4 2.5 6.5t6.5 2.5h3q3 0 5.5 2t2.5 5t-2.5 5t-5.5 2h-3q-9 0 -16 -6.5t-7 -16.5v-91q0 -8 5.5 -13t12.5 -5h58l-4 -24h-22q-3 0 -5 -2t-2 -5t2 -5 t5 -2h95q3 0 5 2t2 5t-2 5t-5 2h-22l-3 24h58q8 0 13 5t5 13v91q0 9 -7 16t-17 7zM140 19h-24l4 23h16zM72 103q2 -1 4 -1t3 1l17 9v-1q0 -3 2 -5t5 -2h50q3 0 5 2t2 5v1l18 -9l2 -1l4 1q3 2 3 6v23q0 7 -3.5 13.5t-10.5 9.5l-13 7v14q0 26 -6.5 43.5t-20.5 29.5q-2 2 -5 2 t-4 -2q-15 -12 -21.5 -29.5t-6.5 -43.5v-14l-13 -7q-7 -3 -10.5 -9.5t-3.5 -13.5v-23q0 -4 3 -6zM166 143q3 -2 5 -5t2 -6v-11l-13 7v18zM110 176q0 23 5 38q4 12 13 20q8 -9 13 -20q5 -15 5 -38v-59h-36v59zM83 132q0 3 1.5 6t4.5 4l7 4v-19l-13 -7v12z" />
</svg>