<svg viewBox="0 0 1024 1024" xmlns="http://www.w3.org/2000/svg">
  <path transform="scale(1, -1) translate(0, -960)" fill="currentColor" d="M885 310q-21 0 -39.5 -7t-32.5 -20q-15 13 -33.5 20t-38.5 7q-45 0 -76 -31t-31 -76q0 -36 23 -74q23 -37 52 -68t55 -52q26 -22 33 -27q3 -2 8 -4t9 -2q5 0 9.5 1.5t8.5 4.5q6 5 32 27q26 21 55.5 52t52.5 68q23 38 23 74q-2 43 -34 75t-76 32v0zM813 8q-7 5 -31 25 q-23 20 -49 47.5t-47 59.5q-20 32 -20 62q0 31 22 53t53 22q18 0 33 -8t26 -21q5 -6 13 -6t13 6q10 14 26 21.5t33 7.5q31 0 53 -22t22 -53q0 -29 -21 -61q-20 -32 -46 -59.5t-50 -47.5q-24 -21 -30 -26v0zM901 904q0 6 -4.5 10t-10.5 4q-37 3 -80 -1t-92 -23t-105 -57 t-121 -103l-155 -155h-179q-4 0 -6.5 -1t-5.5 -4l-105 -105q-3 -1 -4 -4.5t-1 -6.5q0 -4 1 -6.5t4 -5.5l121 -121q-10 -4 -20.5 -10t-19.5 -16q-15 -15 -27 -48q-12 -32 -20.5 -66t-12.5 -62q-5 -27 -5 -33q0 -4 1 -7.5t4 -5.5q2 -3 4.5 -4t6.5 -1h0.5h0.5l35 5q28 5 62 13 t67 20q32 12 48 28q8 8 14 18.5t11 21.5l122 -122q2 -2 5.5 -3.5t5.5 -1.5q4 0 6.5 1.5t4.5 3.5l21 21q5 5 5 11t-5 11t-11.5 5t-10.5 -5l-10 -9l-368 368l90 89h177q4 0 6.5 1.5t4.5 3.5l160 160q59 58 109 93q50 36 94 54.5t83 24.5q39 5 74 4q2 -35 -4 -74 q-5 -39 -23.5 -83t-53.5 -94q-36 -50 -95 -109l-160 -160q-2 -2 -3 -5t-1 -6v-18q0 -7 4 -11.5t12 -4.5q7 0 11.5 4.5t4.5 11.5v11l155 156q65 65 102 121q38 57 57 106t23 91q4 43 2 80v0zM258 160q-17 -17 -71 -31.5t-101 -22.5q8 45 22.5 99.5t32.5 71.5q8 8 19.5 14 t23.5 8l96 -96q-2 -12 -7.5 -22.5t-14.5 -20.5v0z" />
</svg>