<svg viewBox="0 0 256 256" xmlns="http://www.w3.org/2000/svg">
  <path transform="scale(1, -1) translate(0, -256)" fill="currentColor" d="M188 131l-5 6l34 10q3 1 4.5 4.5t-1.5 6.5l-25 25q-7 7 -17 9.5t-20 -0.5l-24 -7l-16 17q-31 31 -60 42q-21 8 -46 7q-3 0 -4.5 -2t-2.5 -5q-1 -24 7 -45q11 -29 42 -61l16 -16l-7 -24q-3 -10 -0.5 -20t9.5 -17l25 -25q2 -2 5 -2l2 1q4 1 4 5l10 34l6 -6q2 -2 5 -2t5 2 l53 54q3 1 3.5 4t-2.5 5zM99 54l-17 17q-4 4 -5.5 10t0.5 13l5 17l26 -26zM145 174l17 6q6 1 12.5 -0.5t10.5 -5.5l17 -16l-30 -10zM130 82l-66 66q-26 27 -37 50q-8 19 -8 39q21 0 39 -8q23 -11 50 -37l66 -66zM251 13v1q-7 44 -17.5 54.5t-24 10.5t-23 -9.5t-9.5 -23.5 t10 -24t55 -17h2q2 0 4.5 2.5t2.5 5.5zM197 33q-6 5 -6 13t5.5 13.5t13.5 5.5t13 -6q4 -3 7 -14t6 -25q-14 3 -25 6t-14 7z" />
</svg>