<svg viewBox="0 0 256 256" xmlns="http://www.w3.org/2000/svg">
  <path transform="scale(1, -1) translate(0, -256)" fill="currentColor" d="M221 96q-10 0 -18 -6q-8 6 -19 6t-20 -8.5t-9 -21.5q0 -16 20 -37q10 -12 22 -20q3 -2 6.5 -2t5.5 2q12 8 23 20q19 21 19 37q0 13 -8.5 21.5t-21.5 8.5zM203 22q-12 10 -21 20q-13 15 -13 25q0 6 5 11t12 5t12 -6q2 -3 5.5 -3t5.5 3q5 6 12 6t11.5 -5t4.5 -11 q0 -10 -13 -25q-9 -10 -21 -20zM228 242q0 3 -2 5t-4 2q-24 1 -44 -6q-29 -11 -58 -41l-38 -38h-44q-2 0 -4 -2l-27 -26q-2 -2 -2 -5t2 -5l27 -27q-3 -2 -6 -5q-7 -7 -13 -29q-3 -14 -5 -26q0 -3 2 -5.5t5 -2.5h3q42 7 52 17q2 2 6 7l27 -27q2 -2 4.5 -2t4.5 2l6 5q2 2 2 5 t-2 5t-5 2t-5 -2l-88 88l19 19h43q3 0 5 2l40 40q25 25 48 35q18 8 37 8q1 -19 -7 -37q-10 -22 -36 -48l-40 -40q-2 -2 -2 -4v-5q0 -3 2 -5t5 -2t5.5 2t2.5 5v1l38 38q29 30 40 58q7 21 6 44zM62 58q-3 -3 -13.5 -6t-22.5 -6q6 32 12 37q3 3 7 5l22 -22q-2 -5 -5 -8z" />
</svg>