<svg viewBox="0 0 256 256" xmlns="http://www.w3.org/2000/svg">
  <path transform="scale(1, -1) translate(0, -256)" fill="currentColor" d="M249 125l-29 29q-2 2 -5 2h-48l-43 43q-33 33 -64 45q-22 8 -48 7q-3 0 -4.5 -2t-2.5 -5q-1 -26 7 -48q12 -31 45 -64l43 -43v-48q0 -3 2 -5l29 -29q2 -2 4.5 -2t4.5 2l31 31q2 -3 6 -8q8 -8 32 -14q12 -3 28 -6h1q2 0 4.5 2.5t1.5 5.5q-7 48 -19 60q-3 4 -8 6l31 31 q3 2 3 5t-2 5zM216 68q7 -6 14 -42q-36 7 -42 14q-4 4 -6 9l25 25q5 -2 9 -6zM136 22l-22 22v48q0 3 -2 5l-45 45q-29 28 -40 54q-9 19 -8 41q22 1 42 -8q25 -11 53 -40l45 -44q2 -2 5 -2h48l22 -22z" />
</svg>