<svg viewBox="0 0 1024 1024" xmlns="http://www.w3.org/2000/svg">
  <path transform="scale(1, -1) translate(0, -960)" fill="currentColor" d="M968 470q0 4 -1 6.5t-4 5.5l-104 104q-2 2 -4.5 3t-6.5 1h-176l-154 154q-64 64 -120 102q-55 37 -104 56t-91 23t-78 1q-6 0 -11 -4t-5 -10q-3 -37 2 -79q4 -42 22.5 -91t56.5 -105q37 -55 101 -120l154 -154v-11q0 -7 4.5 -11.5t11.5 -4.5t11.5 4.5t4.5 11.5v18 q0 3 -1.5 5.5t-3.5 5.5l-158 158q-58 58 -93 108q-34 50 -52.5 94t-23.5 82t-4 73q35 1 73 -4t81.5 -23.5t93.5 -53.5q49 -35 107 -93l158 -159q3 -2 5.5 -3.5t6.5 -1.5h176l88 -88l-364 -364l-9 9q-5 5 -11.5 5t-11.5 -5q-4 -5 -4 -11t4 -11l21 -21q3 -2 6 -3.5t5 -1.5 q3 0 6 1.5t6 3.5l120 120q3 -11 10 -20.5t15 -17.5q16 -16 48 -28q32 -11 65.5 -19.5t61.5 -12.5q27 -5 33 -6h1h1q3 0 6 1t5 4q2 2 3.5 5.5t1.5 7.5q-1 6 -5 34q-5 28 -13 61.5t-20 65.5t-28 47q-8 8 -17.5 14t-20.5 11l120 120q1 3 2 5.5t1 5.5v0zM861 291 q17 -17 31 -69.5t22 -98.5q-46 7 -99 21.5t-69 31.5q-9 8 -14.5 19t-8.5 23l96 96q11 -3 21.5 -8.5t20.5 -14.5zM456 222l-112 37l-70 95q-5 6 -13 6t-13 -6l-70 -95l-112 -37q-4 -1 -6.5 -3.5t-3.5 -5.5q-1 -4 -0.5 -7.5t2.5 -7.5l68 -96l2 -118q0 -4 2 -7l4 -6q3 -2 7 -3 t8 0l112 35l112 -35h2h3t4.5 1t4.5 2q4 3 5.5 6t1.5 7l1 118l69 96q2 4 2.5 7.5t-0.5 7.5q-2 3 -4 5.5t-6 3.5v0zM366 115q-1 -2 -2 -4.5t-1 -4.5l-1 -101l-96 30q-3 1 -5.5 1t-4.5 -1l-96 -30l-2 101q0 2 -1 4.5t-2 4.5l-59 83l96 32q2 2 4.5 3t3.5 4l61 81l61 -81 q1 -3 3 -4t5 -3l96 -32l-60 -83v0z" />
</svg>