<svg viewBox="0 0 1024 1024" xmlns="http://www.w3.org/2000/svg">
  <path transform="scale(1, -1) translate(0, -960)" fill="currentColor" d="M987 354l-77 76v136q0 117 -30.5 174.5t-66.5 88.5q-5 3 -10.5 3t-10.5 -3q-36 -31 -67 -88t-31 -175v-136l-76 -76q-3 -3 -4 -5.5t-1 -6.5v-92q0 -8 4.5 -12t11.5 -4h99q-1 -6 -2 -11.5t-1 -11.5q0 -29 28.5 -72t36.5 -54q3 -4 6.5 -5.5t6.5 -1.5q4 0 7.5 1.5t5.5 5.5 q8 11 37 54t29 72q0 6 -1 12t-3 11h98q7 0 11.5 4t4.5 12v92q0 4 -1 6.5t-4 5.5v0zM848 211q0 -12 -15 -38.5t-31 -50.5q-17 24 -32 50t-15 39q0 6 1.5 12t5.5 11h80q3 -6 4.5 -11.5t1.5 -11.5zM960 266h-314v70l77 77q3 2 4 4.5t1 6.5v142q0 100 22.5 150t52.5 79 q30 -30 52.5 -80t22.5 -149v-142q0 -4 1.5 -6.5t3.5 -4.5l77 -77v-70v0zM435 568h-61q-26 0 -45 -19t-19 -45v-376q0 -26 19 -45t45 -19h61q27 0 45.5 19t18.5 45v376q0 28 -18.5 46t-45.5 18zM467 128q0 -13 -9.5 -22.5t-22.5 -9.5h-61q-13 0 -22.5 9.5t-9.5 22.5v376 q0 13 9.5 22.5t22.5 9.5h61q13 0 22.5 -9.5t9.5 -22.5v-376zM157 370h-61q-26 0 -45 -19t-19 -45v-178q0 -26 19 -45t45 -19h61q26 0 45 19t19 45v178q0 26 -19 45t-45 19zM189 128q0 -13 -9.5 -22.5t-22.5 -9.5h-61q-13 0 -22.5 9.5t-9.5 22.5v178q0 13 9.5 22.5t22.5 9.5 h61q13 0 22.5 -9.5t9.5 -22.5v-178z" />
</svg>