<svg viewBox="0 0 1024 1024" xmlns="http://www.w3.org/2000/svg">
  <path transform="scale(1, -1) translate(0, -960)" fill="currentColor" d="M987 429l-117 117q-2 2 -4.5 3t-6.5 1h-197l-172 173q-72 72 -135 114q-62 41 -116.5 62t-101.5 25q-48 5 -89 2q-6 0 -10 -4t-4 -10q-3 -41 1 -88t25 -101.5t63 -116.5q42 -63 114 -136l173 -172v-197q0 -4 1 -6.5t3 -4.5l117 -117q3 -3 6 -4t5 -1q3 0 6 1t6 4l136 136 q4 -13 11.5 -24.5t16.5 -22.5q17 -16 53 -30q35 -13 72.5 -22t68.5 -14t38 -6h1h1q4 0 6.5 1.5t4.5 3.5q3 3 4 6t1 7q-1 7 -6 38t-14 68.5t-22 73.5q-13 35 -30 52q-10 10 -21.5 17t-24.5 12l136 136q6 6 6 12.5t-5 11.5v0zM874 218q21 -22 37 -85.5t23 -106.5 q-44 7 -107.5 23t-84.5 37q-9 10 -16 23t-9 27l109 109q13 -4 25.5 -10.5t22.5 -16.5v0zM542 6l-100 101v197q0 4 -1.5 6.5t-3.5 4.5l-178 179q-65 66 -105 122q-39 56 -59.5 105t-26.5 92t-4 83q40 1 83 -5q43 -5 92.5 -26t105.5 -60t121 -104l177 -178q3 -2 5.5 -3.5 t5.5 -1.5h197l101 -100l-410 -412v0z" />
</svg>