<svg viewBox="0 0 256 256" xmlns="http://www.w3.org/2000/svg">
  <path transform="scale(1, -1) translate(0, -256)" fill="currentColor" d="M147 121v3q0 3 -2 5t-5 2t-5 -2t-2 -5v-6q0 -3 2 -5l24 -24v-20h-97v20l24 24q2 2 2 5v46q0 27 7 46q5 14 15 24q13 -12 18 -28q0 -3 2 -4.5t4.5 -1.5t5 2.5t2.5 4.5t-1 3q-7 23 -26 40q-2 1 -4.5 1t-4.5 -1q-17 -15 -24.5 -35.5t-7.5 -50.5v-43l-24 -24q-2 -2 -2 -5v-30 q0 -3 2 -5t5 -2h29v-5q0 -12 20 -41l1 -1q2 -3 5.5 -3t5.5 3l1 1q20 29 20 41l-1 5h30q3 0 5 2t2 5v30q0 3 -2 5zM124 49q0 -6 -13 -25q-6 8 -9.5 15t-3.5 10t1 6h23q2 -3 2 -6zM185 186h-13q-4 0 -6.5 2.5t-2.5 5.5t2.5 5.5t6.5 2.5h29q3 0 5 2.5t2 5.5t-2 5t-5 2h-11v6 q0 3 -2 5t-5 2t-5 -2t-2 -5v-7h-4q-9 0 -16 -6.5t-7 -15.5t6.5 -15.5t16.5 -6.5h14q3 0 5.5 -2.5t2.5 -6t-2.5 -6t-5.5 -2.5h-30q-3 0 -5 -2t-2 -5t2 -5.5t5 -2.5h20v-6q0 -3 2.5 -5t5.5 -2t5 2t2 5v7q8 1 13 7.5t4.5 15t-7 15.5t-16.5 7z" />
</svg>