<svg viewBox="0 0 256 256" xmlns="http://www.w3.org/2000/svg">
  <path transform="scale(1, -1) translate(0, -256)" fill="currentColor" d="M198 244q0 3 -2 5t-4 2q-23 1 -43 -8t-41 -31l-31 -30h-34q-3 0 -5 -2l-22 -22q-2 -2 -2 -5t2 -5l21 -21l-1 -1q-2 -1 -3 -2q-9 -9 -15 -45q0 -4 2 -6t5 -2h1q35 5 45 14l3 5l22 -22q2 -2 4.5 -2t4.5 2l4 4q2 3 2 5.5t-2 4.5t-4.5 2.5t-4.5 -1.5l-69 70l14 15h35q2 0 4 2 l33 32q20 20 38 28q14 7 29 7q0 -15 -7 -29q-8 -18 -28 -38l-33 -32q-2 -2 -2 -5v-4q0 -3 2.5 -5t5.5 -2t4.5 2t1.5 5l31 31q22 22 31.5 42t7.5 42zM61 95q-4 -4 -27 -9q1 10 3.5 18t4.5 10t5 3l17 -17zM227 126q-15 16 -37 16.5t-38.5 -15t-16.5 -38.5q0 -14 7 -26t18 -19 q4 -2 4 -8v-8q0 -10 6.5 -16.5t15.5 -6.5h5q10 0 16.5 6.5t6.5 16.5v9q0 5 3 7q12 7 18.5 18.5t6.5 25.5q0 21 -15 38zM199 27q0 -3 -2.5 -5.5t-5.5 -2.5h-5q-4 0 -6 2.5t-2 5.5v9h21v-9zM210 55q-3 -1 -6 -5h-31q-3 4 -5 5q-9 6 -14 15t-5 19q0 16 12 27.5t28 11.5h1 q16 0 27.5 -12t11.5 -28q-1 -10 -6 -18.5t-13 -14.5z" />
</svg>