<svg viewBox="0 0 256 256" xmlns="http://www.w3.org/2000/svg">
  <path transform="scale(1, -1) translate(0, -256)" fill="currentColor" d="M245 134q0 2 -2 4l-26 26q-2 2 -5 2h-42l-38 38q-30 30 -57 41q-21 7 -44 6q-3 0 -5 -2t-2 -5q-1 -23 7 -43q10 -28 40 -58l37 -37v-2q0 -3 2.5 -5t5.5 -2t5 2t2 5v4q0 3 -2 5l-40 40q-25 25 -35 47q-8 17 -8 37q20 0 37 -8q23 -10 47 -35l40 -40q2 -2 5 -2h43l19 -19 l-87 -86q-2 2 -5 2t-5 -2t-2.5 -5t2.5 -5l5 -5q2 -2 4.5 -2t4.5 2l27 26q2 -4 5 -6q7 -7 29 -13q13 -3 25 -5h1q3 0 5 2.5t2 5.5q-2 12 -5 26q-6 21 -13 28q-2 2 -6 5l27 27q2 3 2 6zM213 87q6 -6 11 -37q-30 6 -36 12q-3 3 -4 7l21 22q4 -1 8 -4zM115 74l-27 10l-17 22 q-2 3 -5.5 3t-5.5 -3l-17 -22l-27 -10q-3 -1 -4.5 -4t0.5 -6l16 -24l1 -28q0 -3 2 -5t4 -2t3 1l27 8l27 -8q3 -2 6 0.5t3 5.5l1 29l16 23q2 3 1 6t-4 4zM89 47q-1 -2 -1 -4v-21l-21 6q-2 1 -4 0l-20 -6l-1 21q0 2 -1 4l-12 17l20 7q2 0 3 2l13 17l13 -17q1 -2 3 -2l20 -7z " />
</svg>