<svg viewBox="0 0 1024 1024" xmlns="http://www.w3.org/2000/svg">
  <path transform="scale(1, -1) translate(0, -960)" fill="currentColor" d="M334 266h104q-2 -6 -2.5 -12t-0.5 -12q0 -30 29.5 -75.5t39.5 -56.5q2 -3 5.5 -4.5t7.5 -1.5q3 0 6.5 1.5t6.5 4.5q8 11 37.5 57t29.5 75q0 6 -1 12l-2 12h104q7 0 11.5 4t4.5 12v97q0 4 -1.5 6.5t-3.5 4.5l-80 80v143q0 122 -32 181.5t-69 93.5q-5 4 -10.5 4t-10.5 -4 q-37 -32 -69 -92t-32 -183v-143l-80 -80q-2 -2 -3 -4.5t-1 -6.5v-97q-3 -8 1 -12t11 -4v0zM563 240q0 -13 -15.5 -41t-32.5 -53q-18 25 -33 53t-15 41q0 6 1.5 12.5t5.5 11.5h83q3 -5 4.5 -11t1.5 -13zM350 373l80 80q3 2 4 4.5t1 6.5v149q0 104 24 157t56 83 q33 -31 56.5 -84t23.5 -156v-149q0 -4 1.5 -6.5t3.5 -4.5l80 -80v-75h-330v75zM952 37h-77q3 6 5 12t2 13v352q0 33 -23 56t-56 23h-24q-7 0 -11.5 -4.5t-4.5 -11.5t4.5 -11.5t11.5 -4.5h24q19 0 33 -13.5t14 -33.5v-352q0 -10 -7.5 -17.5t-18.5 -7.5h-618q-10 0 -17.5 7.5 t-7.5 17.5v352q0 20 13.5 33.5t32.5 13.5h13q7 0 11.5 4.5t4.5 11.5t-4.5 11.5t-11.5 4.5h-13q-32 0 -55 -23t-23 -56v-352q0 -7 2 -13l4 -12h-83q-7 0 -11.5 -4.5t-4.5 -11.5t4.5 -11.5t11.5 -4.5h878q8 0 12 4.5t4 11.5t-3.5 11.5t-10.5 4.5z" />
</svg>