<svg viewBox="0 0 256 256" xmlns="http://www.w3.org/2000/svg">
  <path transform="scale(1, -1) translate(0, -256)" fill="currentColor" d="M204 173h-6q-3 0 -5.5 -2t-2.5 -5t2.5 -5.5t5.5 -2.5h6q4 0 7 -2.5t3 -6.5v-93q0 -2 -1.5 -3t-2.5 -1h-164q-1 0 -2.5 1t-1.5 3v93q0 4 3 7t7 3h4q3 0 5 2t2 5t-2 5t-5 2h-4q-10 0 -17 -6.5t-7 -16.5v-94q0 -7 5.5 -12.5t12.5 -5.5h59l-4 -25q0 -3 2 -5.5t5 -2.5h40 q3 0 5 2.5t2 5.5l-4 25h59q7 0 12.5 5.5t5.5 12.5v93q0 10 -7 17t-17 7zM140 19h-24l3 19h17zM71 100q1 -1 3 -1t4 1l18 9v-1q0 -3 2 -5.5t5 -2.5h51q3 0 5 2.5t2 5.5v1l18 -10h3l3 1q4 2 4 6v23q0 8 -4 14t-10 10l-14 7v14q0 27 -6.5 44.5t-20.5 30.5q-3 2 -5.5 2t-4.5 -2 q-14 -13 -20.5 -30.5t-7.5 -44.5v-14l-13 -7q-7 -4 -10.5 -10t-3.5 -14v-23q-1 -2 0 -3.5t2 -2.5zM168 140q3 -1 4.5 -4.5t1.5 -6.5v-12l-13 8v19zM110 174q0 24 5 39q4 12 13 21q9 -9 13 -21q5 -15 5 -39v-60h-36v60zM82 129q0 8 6 11l8 4v-19l-14 -8v12z" />
</svg>