<svg viewBox="0 0 1024 1024" xmlns="http://www.w3.org/2000/svg">
  <path transform="scale(1, -1) translate(0, -960)" fill="currentColor" d="M779 558h-22q-7 0 -11.5 -4t-4.5 -12q0 -7 4.5 -11.5t11.5 -4.5h22q18 0 30 -12t12 -29v-327q0 -9 -6.5 -15.5t-16.5 -6.5h-572q-10 0 -16.5 6.5t-6.5 15.5v327q0 18 12.5 29.5t29.5 11.5h13q7 0 11.5 4.5t4.5 11.5q0 8 -4.5 12t-11.5 4h-13q-31 0 -52.5 -21.5 t-21.5 -51.5v-327q0 -22 16 -38t39 -16h216l-15 -104h-85q-7 0 -11.5 -4.5t-4.5 -11.5t4.5 -11.5t11.5 -4.5h338q7 0 11.5 4.5t4.5 11.5t-4.5 11.5t-11.5 4.5h-85l-14 102h216q23 0 38.5 16t15.5 39v328q1 30 -20.5 51.5t-51.5 21.5v0zM563 0h-104l15 102h73zM344 344h96 q-1 -5 -2 -10.5t-1 -11.5q0 -28 27.5 -70.5t36.5 -53.5q2 -3 5.5 -4.5t7.5 -1.5q3 0 6.5 1.5t5.5 4.5q9 11 36.5 53.5t27.5 70.5q0 6 -1 11t-2 11h96q7 0 11.5 4.5t4.5 11.5v91q0 4 -1 6.5t-4 4.5l-75 76v131q0 114 -29.5 169.5t-64.5 86.5q-5 3 -10.5 3t-10.5 -3 q-35 -31 -64.5 -86t-29.5 -170v-131l-76 -76q-2 -2 -3 -4.5t-1 -6.5v-91q-2 -6 2.5 -11t11.5 -5v0zM557 323q0 -12 -14 -37t-31 -49q-16 23 -30.5 48.5t-14.5 37.5q0 6 1.5 11.5t5.5 11.5h76q3 -6 5 -11.5t2 -11.5v0zM360 445l75 75q3 2 4 5t1 6v138q0 96 22 144.5t52 77.5 q30 -29 51.5 -77.5t21.5 -144.5v-138q0 -3 1.5 -6t3.5 -5l75 -75v-69h-304v69h-3z" />
</svg>