<svg viewBox="0 0 1024 1024" xmlns="http://www.w3.org/2000/svg">
  <path transform="scale(1, -1) translate(0, -960)" fill="currentColor" d="M744 854q0 6 -4 10.5t-10 4.5q-32 2 -67 -2q-35 -3 -75.5 -18t-86.5 -46t-99 -85l-125 -126h-143q-3 0 -5.5 -1t-5.5 -4l-86 -85q-3 -1 -4 -4t-1 -7q0 -3 1 -6t4 -5l96 -96q-9 -4 -16 -8.5t-13 -10.5q-26 -25 -40 -93.5t-16 -79.5q0 -4 1 -7t4 -6q2 -2 5.5 -3.5t5.5 -1.5 h1h1q10 2 78 16t94 39q6 6 11 13t9 16l96 -96q2 -3 5 -4t6 -1t6 1t5 4l16 16q5 4 5 10.5t-5 11.5t-11.5 5t-10.5 -5l-5 -5l-295 296l71 69h142q4 0 6.5 1t4.5 4l130 129q94 94 163 119t125 24q1 -57 -24 -126t-118 -162l-130 -131q-2 -3 -3.5 -5.5t-1.5 -6.5v-14 q0 -7 4.5 -11.5t11.5 -4.5t11.5 4.5t4.5 11.5v8l125 126q53 54 84 101q32 46 47.5 86.5t18.5 75.5q4 35 2 65v0zM216 251q-13 -13 -54.5 -24t-78.5 -17q6 37 17.5 78t24.5 54q6 6 14 11t18 7l77 -77q-3 -8 -7 -16.5t-11 -15.5v0zM810 218q-8 0 -12 -4.5t-4 -11.5 q0 -60 -42 -102t-102 -42t-102 42t-42 102t42 102t102 42q10 0 20 -1.5t21 -5.5q6 -2 12 1t7 10q3 6 -0.5 12t-10.5 8q-12 3 -24.5 5.5t-24.5 2.5q-74 0 -125 -51.5t-51 -124.5q0 -74 51 -125t125 -51q73 0 124.5 51t51.5 125q0 7 -4.5 11.5t-11.5 4.5v0zM976 413h-86v77 q0 7 -4.5 11.5t-11.5 4.5q-8 0 -12 -4.5t-4 -11.5v-85l-202 -178q-5 -5 -5.5 -11t3.5 -11q3 -3 6 -4t6 -1q2 0 5 1t6 4l200 177h99q7 0 11.5 4.5t4.5 11.5q0 8 -4.5 11.5t-11.5 3.5v0zM602 202q0 7 -4.5 11.5t-11.5 4.5q-8 0 -12 -4.5t-4 -11.5q0 -34 23 -57t57 -23 q7 0 11.5 4t4.5 12q0 7 -4.5 11.5t-11.5 4.5q-20 0 -34 14t-14 34z" />
</svg>