<svg viewBox="0 0 256 256" xmlns="http://www.w3.org/2000/svg">
  <path transform="scale(1, -1) translate(0, -256)" fill="currentColor" d="M190 145h-5q-3 0 -5 -2t-2 -5t2 -5.5t5 -2.5h5q3 0 5 -1.5t2 -4.5v-51h-138v51q0 3 2 5t5 2h2q3 0 5.5 2t2.5 5t-2.5 5t-5.5 2h-2q-9 0 -15 -6t-6 -14v-76q0 -7 5 -11.5t11 -4.5h47l-3 -19q-1 -3 1 -5.5t6 -2.5h32q4 0 6 2.5t1 5.5l-3 18h47q6 0 11 4.5t5 11.5v76 q0 9 -6 15t-15 6zM136 19h-16l2 13h12zM195 46h-134q-2 0 -2 2v11h138v-11q0 -2 -2 -2zM80 148h1l14 2q-1 -2 0 -4.5t4 -3.5l1 -1q-3 -4 -4 -6q-4 -10 3 -34q0 -4 4 -5h3h3q22 13 26 23q1 5 1 7h4h3q3 1 3 3l10 -11q1 -2 5 -2h1q4 1 6 4l7 18q2 6 1 12.5t-5 11.5l-7 9l4 10 q8 21 8.5 36.5t-6.5 30.5q-2 2 -4 3t-5 0q-16 -5 -26.5 -17t-18.5 -32l-4 -10l-12 -2q-7 -1 -12 -4.5t-7 -9.5l-7 -18q-2 -4 0.5 -7t5.5 -3zM122 124q-1 -3 -12 -10q-2 13 -1 16t3 4h3h3q3 -2 4 -4.5t0 -5.5zM160 153q3 -5 2 -10l-3 -7l-7 8l5 12zM159 235q4 -9 3 -20 q-1 -12 -8 -29l-18 -44l-25 10l18 44q7 17 14 26t16 13zM94 171q1 5 7 5l5 1l-6 -12l-10 -1z" />
</svg>