<svg viewBox="0 0 1024 1024" xmlns="http://www.w3.org/2000/svg">
  <path transform="scale(1, -1) translate(0, -960)" fill="currentColor" d="M576 414v18q0 7 -4.5 11.5t-11.5 4.5t-11.5 -4.5t-4.5 -11.5v-24q0 -4 1 -6.5t4 -4.5l101 -99v-98h-415v98l101 99q2 2 3.5 4.5t1.5 6.5v182q0 131 30.5 197t71.5 104q29 -27 48.5 -58t31.5 -70q1 -6 5.5 -9.5t10.5 -3.5q7 0 11.5 5t4.5 11v3v2q-14 47 -38.5 84t-62.5 70 q-4 3 -10 3t-10 -3q-23 -20 -45 -47q-22 -26 -39.5 -65t-28.5 -93q-11 -55 -11 -130v-176l-102 -99q-2 -2 -3.5 -4.5t-1.5 -6.5v-120q0 -7 4.5 -11.5t11.5 -4.5h133q-4 -8 -5 -16.5t-1 -17.5q0 -36 38 -93t45 -65q2 -4 5.5 -5t7.5 -1q3 0 6.5 1t5.5 5q6 8 45 65t39 93 q0 9 -1.5 17.5t-5.5 16.5h133q7 0 11.5 4.5t4.5 11.5v120q0 4 -1 6.5t-4 4.5zM506 133q0 -18 -21.5 -55t-42.5 -67q-22 30 -43 67t-21 55q0 9 2 17.5t7 15.5h109q5 -7 7.5 -15.5t2.5 -17.5v0zM741 666h-53q-19 0 -32.5 13.5t-13.5 32.5t13.5 32.5t32.5 13.5h117 q7 0 11.5 4.5t4.5 11.5q0 8 -4.5 12t-11.5 4h-56v37q0 7 -4.5 11.5t-11.5 4.5t-11.5 -4.5t-4.5 -11.5v-37h-29q-32 0 -55 -23t-23 -55t23 -55t55 -23h54q20 0 33.5 -14t13.5 -33t-13.5 -32.5t-33.5 -13.5h-116q-8 0 -12 -4.5t-4 -11.5t4 -11.5t12 -4.5h91v-37 q0 -7 4.5 -11.5t11.5 -4.5t11.5 4.5t4.5 11.5v38q30 3 51 25t21 52q0 33 -24 56t-56 23v0z" />
</svg>