<svg viewBox="0 0 256 256" xmlns="http://www.w3.org/2000/svg">
  <path transform="scale(1, -1) translate(0, -256)" fill="currentColor" d="M233 244q0 3 -2 5t-5 2q-22 1 -41 -6q-26 -10 -55 -38l-35 -36h-41q-2 0 -4 -2l-25 -25q-2 -2 -2 -4.5t2 -4.5l25 -25l-6 -5q-7 -7 -12 -27q-3 -13 -4 -24q-1 -4 1.5 -6t4.5 -2h1q12 1 24 4q21 5 27 12q2 2 5 6l25 -25q2 -2 5 -2t5 2l4 5q2 2 2.5 5t-2 5t-5 2t-4.5 -2 l-81 81l17 18h41q2 0 4 2l38 37q23 24 44 34q17 7 35 7v0q0 -18 -7 -34q-10 -21 -33 -45l-38 -37q-2 -2 -2 -5v-4q0 -3 2 -5t5 -2t5.5 2t2.5 5v1l35 36q28 28 38 54q7 19 6 41zM77 72q-3 -3 -12.5 -6t-21.5 -5q2 11 5 21t6 13t7 4l20 -20q-2 -5 -4 -7zM186 81h29q3 0 5 2 t2 5t-2 5t-5 2h-11v7q0 3 -2 5t-5 2t-5 -2t-2 -5v-7h-5q-9 0 -16 -6.5t-7 -16t7 -16t16 -6.5h14q3 0 6 -3t3 -6.5t-3 -6t-6 -2.5h-29q-3 0 -5.5 -2t-2.5 -5t2.5 -5t5.5 -2h20v-6q0 -3 2 -5t5 -2t5 2t2 5v7q8 1 13 7.5t5 15t-6.5 15.5t-16.5 7h-13q-4 0 -6.5 2.5t-2.5 6 t2.5 6t6.5 2.5z" />
</svg>