<svg viewBox="0 0 1024 1024" xmlns="http://www.w3.org/2000/svg">
  <path transform="scale(1, -1) translate(0, -960)" fill="currentColor" d="M746 453l-37 37l155 46q4 1 7 4.5t4 6.5q1 4 0 8.5t-5 7.5l-99 99q-26 27 -62 36t-72 -2l-104 -30l-71 70q-67 67 -125 106q-59 39 -110 58.5t-96 24.5q-44 4 -83 1q-6 0 -10 -4t-4 -10q-3 -38 1 -82t23.5 -95t58.5 -110t107 -127l70 -71l-30 -104q-11 -36 -2 -72t36 -62 l99 -99q2 -3 4.5 -4t6.5 -1h2h1q4 1 7 3.5t4 7.5l47 155l37 -37q2 -2 4.5 -3t6.5 -1q3 0 6 1t5 3l214 215q8 5 8 12t-4 12v0zM646 666q28 8 55 1t48 -27l80 -80l-146 -43l-123 123l86 26v0zM402 131l-80 80q-21 21 -27.5 48t1.5 55l26 88l123 -124zM520 248l-272 272 q-62 62 -99 115q-37 52 -56 98t-25 86q-5 40 -4 77q37 1 78 -4q40 -6 86 -25.5t98 -55.5q52 -37 112 -97l229 -229v0v0l45 -45zM923 205q-35 35 -84 35t-84 -35t-35 -84t35 -84q16 -16 50 -29q34 -12 69 -20.5t63 -13.5q29 -5 36 -6h0.5h0.5q4 0 6.5 1t5.5 4q2 2 3 5.5 t1 7.5q0 7 -5 36q-4 29 -12.5 64t-20.5 69q-13 34 -29 50zM778 59q-26 25 -26 61.5t26 61.5q13 14 28.5 20t31.5 6q17 0 33 -6t28 -20q19 -19 34 -78t22 -101q-39 7 -98 22t-79 34v0z" />
</svg>