<svg viewBox="0 0 1024 1024" xmlns="http://www.w3.org/2000/svg">
  <path transform="scale(1, -1) translate(0, -960)" fill="currentColor" d="M573 384v10l145 145q61 61 96 114q35 52 53 98t22 86t2 75q0 6 -4 10t-10 4q-35 3 -75 -1t-86 -22t-99 -53q-52 -36 -113 -96l-146 -146h-166q-4 0 -6.5 -1t-4.5 -4l-99 -97q-3 -3 -4 -5.5t-1 -6.5q0 -3 1 -5.5t4 -5.5l112 -112q-10 -3 -19 -9t-17 -15q-28 -29 -44 -106 t-18 -91q0 -3 1 -6.5t4 -5.5q2 -3 4.5 -4t6.5 -1h1h1q12 1 90 16.5t106 45.5q8 7 14 16.5t10 18.5l112 -112q3 -2 6 -3t6 -1t5.5 1t5.5 3l19 20q5 4 5 10.5t-5 11.5t-11.5 5t-10.5 -5l-8 -8l-343 342l83 82h165q4 0 6.5 1t4.5 4l151 150q54 55 100 88q47 33 88 50.5t77 22.5 t69 4q1 -33 -4 -69t-22.5 -76.5t-49.5 -87.5q-33 -47 -87 -101l-150 -151q-3 -2 -4 -4.5t-1 -6.5v-16q0 -7 4.5 -11.5t11.5 -4.5t11.5 4.5t4.5 11.5v0zM290 218q-16 -16 -65.5 -29.5t-91.5 -20.5q7 43 20.5 92t28.5 65q9 8 18.5 13t20.5 8l89 -90q-2 -11 -7.5 -20.5 t-12.5 -17.5v0zM947 158q0 80 -55.5 135.5t-134.5 55.5t-135 -55.5t-56 -135.5q0 -79 56 -134.5t135 -55.5q37 0 70 13.5t59 37.5l1 1l1 1q26 25 42.5 61t16.5 76v0zM757 317q6 0 12 -1t12 -1l-19 -61q-6 -20 -25 -30.5t-39 -5.5l-77 19q19 36 55 58t81 22v0zM598 158 q0 14 2.5 26t5.5 22l84 -19q4 -1 9 -1h11q28 0 51 16t33 43l19 61v0.5v0.5q45 -17 74.5 -57t29.5 -92q0 -27 -9.5 -52.5t-25.5 -46.5q-9 15 -22.5 25t-30.5 14q-22 4 -42.5 -1.5t-37.5 -19.5l-64 -59q-40 20 -63.5 57.5t-23.5 82.5v0zM717 5l53 49q10 10 23 13.5t26 -0.5 q13 -3 22.5 -11.5t14.5 -20.5q-20 -17 -46 -26t-55 -9q-9 0 -19 1t-19 4v0z" />
</svg>