<svg viewBox="0 0 1024 1024" xmlns="http://www.w3.org/2000/svg">
  <path transform="scale(1, -1) translate(0, -960)" fill="currentColor" d="M816 616h-26q-7 0 -11.5 -4.5t-4.5 -11.5t4.5 -11.5t11.5 -4.5h26q20 0 35.5 -15t15.5 -36v-373q0 -12 -8.5 -20.5t-20.5 -8.5h-652q-12 0 -20.5 8.5t-8.5 20.5v373q0 20 14.5 35.5t36.5 15.5h14q8 0 12 4.5t4 11.5t-4 11.5t-12 4.5h-14q-34 0 -58.5 -24t-24.5 -59v-373 q0 -25 17.5 -43t43.5 -18h249l-19 -112q0 -3 0.5 -6.5t2.5 -6.5l6 -4t7 -2h160q4 0 7 1.5t6 4.5q2 3 3 6.5t0 6.5l-19 114h249q26 0 43.5 17.5t17.5 43.5v371q0 35 -24 59t-59 24zM573 0h-123l16 101h89zM291 344l4.5 -1.5t3.5 -0.5q3 0 4.5 0.5t3.5 1.5l88 48v-27 q0 -7 4.5 -11.5t11.5 -4.5h203q8 0 12 4.5t4 11.5v27l88 -48q2 -1 4 -1.5t4 -0.5q3 0 5 0.5t3 1.5q4 2 6 6t2 8v95q0 26 -13 48.5t-36 36.5l-61 33v64q0 130 -34 192.5t-73 97.5q-5 3 -10.5 3t-10.5 -3q-40 -35 -73.5 -98t-33.5 -193v-64l-61 -34q-23 -12 -36.5 -35 t-13.5 -50v-94q-2 -4 0 -7.5t5 -5.5v0zM675 509q16 -9 25 -23.5t9 -32.5v-67l-79 43v105l45 -25v0zM426 634q0 111 25.5 167t60.5 89q35 -34 60.5 -90t25.5 -166v-253h-172v253v0zM315 453q0 18 9 32.5t25 23.5l46 25v-105l-78 -43v67h-2z" />
</svg>