<svg viewBox="0 0 1024 1024" xmlns="http://www.w3.org/2000/svg">
  <path transform="scale(1, -1) translate(0, -960)" fill="currentColor" d="M288 290q2 -2 4 -2h4h4t4 2l83 44v-24q0 -7 4.5 -11.5t11.5 -4.5h197q7 0 11.5 4.5t4.5 11.5v24l83 -44q1 -2 3.5 -2h4.5h5t3 2q4 2 6 5.5t2 8.5v91q0 25 -13 47.5t-35 34.5l-59 32v61q0 124 -33 185t-71 95q-5 3 -10.5 3t-10.5 -3q-38 -34 -71 -95t-33 -185v-61l-59 -32 q-23 -12 -35.5 -34.5t-12.5 -47.5v-91q0 -5 2 -9t6 -5zM659 446q15 -8 23.5 -22.5t8.5 -29.5v-64l-75 40v100l43 -24v0zM419 568q0 107 24.5 161t57.5 85q32 -32 56.5 -86t24.5 -160v-242h-163v242zM312 394q0 16 9 30.5t23 21.5l43 24v-100l-75 -40v64zM976 75h-107 q3 6 4.5 13t1.5 14v359q0 33 -23 56.5t-57 23.5h-24q-7 0 -11.5 -4.5t-4.5 -11.5t4.5 -11.5t11.5 -4.5h24q21 0 34.5 -14t13.5 -34v-360q0 -11 -8 -19t-19 -8h-630q-11 0 -19.5 8t-8.5 19v360q0 20 14 34t34 14h13q7 0 11.5 4.5t4.5 11.5t-4.5 11.5t-11.5 4.5h-11 q-34 0 -57 -23.5t-23 -56.5v-360q0 -7 2 -14t4 -13h-86q-7 0 -11.5 -4.5t-4.5 -11.5q0 -8 4.5 -12t11.5 -4h768v0v0v0v0h160q7 0 11.5 4t4.5 12q0 7 -4.5 12t-11.5 5z" />
</svg>