<svg viewBox="0 0 256 256" xmlns="http://www.w3.org/2000/svg">
  <path transform="scale(1, -1) translate(0, -256)" fill="currentColor" d="M231 5h-206q-8 0 -13.5 5t-5.5 13v28q0 3 2.5 5t5.5 2h11l3 22q1 3 3 4.5t4 1.5h23v66l-46 14q-3 1 -4 3t-1 4v65q0 6 3.5 9.5t9.5 3.5h40q5 0 8.5 -3.5t3.5 -9.5v-26h26v26q0 6 3.5 9.5t8.5 3.5h37q5 0 9 -3.5t4 -9.5v-26h25v26q0 6 4 9.5t9 3.5h40q5 0 9 -3.5t4 -9.5 v-65q0 -5 -5 -7l-46 -14v-66h22q3 0 5 -2t2 -4l3 -22h12q3 0 5 -2t2 -5v-28q-1 -8 -6.5 -13t-13.5 -5zM20 44v-21q0 -2 1.5 -3t3.5 -1h206q2 0 3.5 1t1.5 3v21h-11q-3 0 -5 2t-2 4l-3 22h-24q-3 0 -5 2t-2 5v79q0 4 5 6l46 15v58h-37v-33q0 -3 -2.5 -5t-5.5 -2h-38 q-3 0 -5 2t-2 5v33h-34v-33q0 -3 -2 -5t-5 -2h-40q-3 0 -5 2t-2 5v33h-37v-59l47 -14q2 -1 3.5 -2.5t1.5 -4.5v-79q0 -3 -2.5 -5t-5.5 -2h-23l-3 -21q-1 -3 -3 -4.5t-4 -1.5h-11z" />
</svg>