<svg viewBox="0 0 1024 1024" xmlns="http://www.w3.org/2000/svg">
  <path transform="scale(1, -1) translate(0, -960)" fill="currentColor" d="M925 -32h-826q-25 0 -43 18t-18 43v112q0 7 4.5 11.5t11.5 4.5h58l14 96q2 6 6 10t10 4h103v287l-195 59q-5 1 -8.5 5.5t-3.5 10.5v261q0 15 11.5 26.5t27.5 11.5h160q15 0 26.5 -11.5t11.5 -26.5v-119h125v119q0 15 11.5 26.5t26.5 11.5h148q15 0 26.5 -11.5t11.5 -26.5 v-119h125v119q0 15 11.5 26.5t26.5 11.5h160q16 0 27.5 -11.5t11.5 -26.5v-261q0 -5 -3.5 -9.5t-8.5 -6.5l-193 -59v-287h102q6 0 10.5 -4t5.5 -10l15 -96h57q7 0 11.5 -4.5t4.5 -11.5v-112q-1 -25 -19 -43t-43 -18v0zM70 125v-96q0 -12 8.5 -20.5t20.5 -8.5h826 q12 0 20.5 8.5t8.5 20.5v96h-55q-6 0 -10.5 4t-5.5 10l-14 96h-104q-7 0 -11.5 4.5t-4.5 11.5v315q0 5 3 9.5t8 6.5l194 58v250q0 2 -2 4t-5 2h-160q-2 0 -4 -2t-2 -4v-135q0 -7 -4.5 -11.5t-11.5 -4.5h-157q-7 0 -11.5 4.5t-4.5 11.5v135q0 2 -2 4t-4 2h-148q-2 0 -4 -2 t-2 -4v-135q0 -7 -4.5 -11.5t-11.5 -4.5h-157q-7 0 -11.5 4.5t-4.5 11.5v135q0 2 -2 4t-4 2h-160q-3 0 -5 -2t-2 -4v-250l194 -59q5 -1 8 -5.5t3 -10.5v-315q0 -8 -4.5 -12t-11.5 -4h-104l-14 -96q-1 -6 -5.5 -10.5t-10.5 -4.5h-55v2z" />
</svg>