<svg viewBox="0 0 256 256" xmlns="http://www.w3.org/2000/svg">
  <path transform="scale(1, -1) translate(0, -256)" fill="currentColor" d="M197 165h-74q-8 0 -11 -7l-21 -50l-12 15q-3 4 -8.5 4.5t-9.5 -4.5l-7 -9q-2 -2 -2 -5t2.5 -4.5t5 -1.5t4.5 2l6 7l12 -16q4 -5 10 -5h1q3 0 5.5 2t3.5 5l22 52h73q3 0 5 2.5t2 5.5t-2 5t-5 2zM128 251q-33 0 -61.5 -16.5t-45 -45t-16.5 -61.5t16.5 -61.5t45 -45 t61.5 -16.5t61.5 16.5t45 45t16.5 61.5t-16.5 61.5t-45 45t-61.5 16.5zM128 19q-29 0 -54 14.5t-40 39.5t-15 55t15 54.5t39.5 39.5t54.5 15t55 -15t39.5 -40t14.5 -54.5t-14.5 -54.5t-39.5 -39.5t-55 -14.5z" />
</svg>