<svg viewBox="0 0 1024 1024" xmlns="http://www.w3.org/2000/svg">
  <path transform="scale(1, -1) translate(0, -960)" fill="currentColor" d="M789 582h-298q-11 0 -19 -5.5t-13 -14.5l-91 -215v-0.5t-2 -0.5h-1v1l-56 74q-5 6 -12 9.5t-14 3.5t-14.5 -3t-12.5 -9l-32 -35q-5 -5 -4 -11t6 -11q4 -5 10.5 -4t11.5 5l30 36h1t1 1h1t1 -1l56 -74q4 -6 11 -10t16 -4h2h3q9 1 16 6.5t11 13.5l91 215q0 1 1 1h1h297 q7 0 11.5 4.5t4.5 11.5q0 8 -4 12t-10 4v0zM928 928h-832q-26 0 -45 -19t-19 -45v-832q0 -26 19 -45t45 -19h832q26 0 45 19t19 45v832q0 26 -19 45t-45 19zM960 32q0 -13 -9.5 -22.5t-22.5 -9.5h-832q-13 0 -22.5 9.5t-9.5 22.5v832q0 13 9.5 22.5t22.5 9.5h832 q13 0 22.5 -9.5t9.5 -22.5v-832z" />
</svg>