<svg viewBox="0 0 256 256" xmlns="http://www.w3.org/2000/svg">
  <path transform="scale(1, -1) translate(0, -256)" fill="currentColor" d="M197 165h-74q-8 0 -11 -7l-21 -50l-12 15q-3 4 -8.5 4.5t-9.5 -4.5l-7 -9q-2 -2 -2 -5t2.5 -4.5t5 -1.5t4.5 2l6 7l12 -16q4 -5 10 -5h1q3 0 5.5 2t3.5 5l22 52h73q3 0 5 2.5t2 5.5t-2 5t-5 2zM232 251h-208q-8 0 -13.5 -5.5t-5.5 -13.5v-208q0 -8 5.5 -13.5t13.5 -5.5 h208q8 0 14 5.5t6 13.5v208q-1 8 -6.5 13.5t-13.5 5.5zM237 24q0 -2 -1.5 -3.5t-3.5 -1.5h-208q-2 0 -3.5 1.5t-1.5 3.5v208q0 2 1.5 3.5t3.5 1.5h208q2 0 3.5 -1.5t1.5 -3.5v-208z" />
</svg>