<svg viewBox="0 0 1024 1024" xmlns="http://www.w3.org/2000/svg">
  <path transform="scale(1, -1) translate(0, -960)" fill="currentColor" d="M266 232q-11 0 -21 5t-16 14l-95 125q-2 2 -4.5 4t-6.5 2q-3 0 -6 -1t-5 -3l-51 -60q-5 -4 -11.5 -5t-11.5 4q-4 5 -5 11t4 11l51 59q7 9 16.5 12.5t20.5 3.5t20 -5t15 -14l94 -125q4 -4 8 -5t7 -1q2 0 6 2t5 8l154 361q6 13 17 21t26 8h499q7 0 11.5 -4.5t4.5 -11.5 t-4.5 -11.5t-11.5 -4.5h-499q-5 0 -8.5 -2.5t-6.5 -7.5l-153 -361q-5 -12 -15 -19.5t-22 -9.5h-2.5h-3.5v0z" />
</svg>