<svg viewBox="0 0 1024 1024" xmlns="http://www.w3.org/2000/svg">
  <path transform="scale(1, -1) translate(0, -960)" fill="currentColor" d="M789 582h-298q-11 0 -19 -5.5t-13 -14.5l-91 -215v-0.5t-2 -0.5h-1v1l-56 74q-5 6 -12 9.5t-14 3.5t-14.5 -3t-12.5 -9l-32 -35q-5 -5 -4 -11t6 -11q4 -5 10.5 -4t11.5 5l30 36h1t1 1h1t1 -1l56 -74q4 -6 11 -10t16 -4h2h3q9 1 16 6.5t11 13.5l91 215q0 1 1 1h1h297 q7 0 11.5 4.5t4.5 11.5q0 8 -4 12t-10 4v0zM512 928q-99 0 -186 -38q-88 -38 -153 -103t-103 -153q-38 -87 -38 -186t38 -186q38 -88 103 -153t153 -103q87 -38 186 -38t186 38q88 38 153 103t103 153q38 87 38 186t-38 186q-38 88 -103 153t-153 103q-87 38 -186 38zM512 0 q-92 0 -174 35q-81 36 -142 97t-97 142q-35 82 -35 174t35 174q36 81 96.5 142t142.5 97q82 35 174 35t174 -35q81 -36 142 -96.5t97 -142.5q35 -82 35 -174t-35 -174q-36 -81 -96.5 -142t-142.5 -97q-82 -35 -174 -35z" />
</svg>