<svg viewBox="0 0 256 256" xmlns="http://www.w3.org/2000/svg">
  <path transform="scale(1, -1) translate(0, -256)" fill="currentColor" d="M228 135h-96v87q0 12 -8.5 20.5t-20.5 8.5h-69q-12 0 -20.5 -8.5t-8.5 -20.5v-111q0 -12 8.5 -20.5t20.5 -8.5h44v-54q0 -10 7 -16.5t17 -6.5h126q10 0 16.5 6.5t6.5 16.5v84q0 10 -6.5 16.5t-16.5 6.5zM34 96q-6 0 -10.5 4.5t-4.5 10.5v111q0 6 4.5 10.5t10.5 4.5h69 q7 0 11 -4.5t4 -10.5v-87h-17q-9 0 -16 -7t-7 -16v-17h-44v1zM237 28q0 -4 -2.5 -6.5t-6.5 -2.5h-127q-3 0 -6 2.5t-3 6.5v84q0 4 2.5 6.5t6.5 2.5h127q4 0 6.5 -2.5t2.5 -6.5v-84zM159 224q23 0 40 -15.5t19 -37.5l-9 9q-2 2 -5 2t-5 -2t-2 -5t2 -5l21 -19q2 -2 4.5 -2 t4.5 2l20 18q2 2 2.5 5t-2 5t-5 2.5t-4.5 -1.5l-8 -7q-2 18 -12.5 33t-26.5 23.5t-34 8.5q-3 0 -5 -2t-2 -5t2 -5t5 -2z" />
</svg>