<svg viewBox="0 0 1024 1024" xmlns="http://www.w3.org/2000/svg">
  <path transform="scale(1, -1) translate(0, -960)" fill="currentColor" d="M912 464h-395v358q0 44 -30.5 75t-75.5 31h-273q-45 0 -75.5 -30.5t-30.5 -75.5v-443q0 -43 30.5 -74t75.5 -31h187v-226q0 -34 23 -57t57 -23h507q34 0 57 23t23 57v336q0 34 -23 57t-57 23v0zM138 307q-30 0 -52 22t-22 52v441q0 30 22 52t52 22h275q30 0 51.5 -22 t21.5 -52v-358h-81q-34 0 -57 -23t-23 -57v-77h-187v0zM960 48q0 -20 -14 -34t-34 -14h-507q-21 0 -34.5 14t-13.5 34v243v0v0v0v0v93q0 20 13.5 34t34.5 14h507q20 0 34 -14t14 -34v-336zM637 843q51 0 97 -19q46 -20 80 -54t54 -80t20 -98v-1v-1l-61 56q-5 5 -11 5t-11 -6 q-5 -5 -5 -11.5t6 -11.5l82 -75q2 -2 5 -3.5t6 -1.5q4 0 6.5 1.5t4.5 3.5l80 74q5 5 5.5 11t-3.5 11q-5 5 -11.5 5t-10.5 -3l-47 -43q-2 56 -24 106q-23 49 -61 86t-89 58q-50 22 -107 22q-8 0 -12 -4.5t-4 -11.5q0 -8 2 -11.5t9 -3.5v0z" />
</svg>