<svg viewBox="0 0 1024 1024" xmlns="http://www.w3.org/2000/svg">
  <path transform="scale(1, -1) translate(0, -960)" fill="currentColor" d="M539 218l143 142q9 10 14 21.5t5 23.5q0 13 -5 24.5t-14 20.5l-143 142q-18 18 -45 18t-46 -18l-142 -142q-10 -10 -15 -21.5t-5 -23.5t5 -24.5t15 -20.5l142 -142q10 -10 21.5 -15t23.5 -5t24.5 5t21.5 15v0zM328 382q-5 5 -7.5 11t-2.5 12t2.5 11.5t7.5 10.5l142 143 q5 4 11 6.5t12 2.5t11.5 -2.5t10.5 -6.5l143 -143q4 -5 6.5 -10.5t2.5 -11.5t-2.5 -12t-6.5 -11l-143 -142q-9 -10 -22 -10t-23 10l-142 142v0zM936 602q-26 68 -63 116q-37 49 -79.5 81.5t-86.5 51.5t-83 29q-58 14 -114 15q-57 1 -106 -8t-88 -26t-63 -39q-1 -1 -2 -2.5 t-1 -3.5l-31 99q-1 6 -5 9.5t-9 3.5t-9.5 -2.5t-6.5 -7.5l-125 -288q-2 -4 -1 -9t4 -8t6 -4t5 -1h4t3 2l288 124q5 3 7 7.5t2 8.5q0 5 -3 9.5t-8 5.5l-105 32q2 0 3.5 1t2.5 2q23 19 60 33q37 15 82.5 22.5t97.5 6.5t104 -14q36 -9 77 -27q40 -17 79.5 -47t74.5 -75t59 -109 q46 -122 29 -219q-18 -96 -58.5 -164t-84.5 -105q-43 -37 -48 -40q-6 -3 -7 -9.5t2 -12.5q3 -4 6 -5t7 -1q2 0 4.5 1t5.5 2q1 0 48 39q46 40 91 112.5t65 177.5q20 104 -30 236zM110 654l92 212l25 -84q1 -3 4 -6.5t7 -4.5l84 -25l-212 -92v0zM173 152q-5 5 -11.5 5.5 t-11.5 -3.5q-4 -5 -5 -11.5t4 -11.5q17 -19 34.5 -36t35.5 -33q3 -1 5 -2t5 -1t6.5 1.5t6.5 5.5t2.5 11t-6.5 11q-16 13 -33 29.5t-32 34.5v0zM405 6q-15 4 -37.5 11t-49.5 20q-6 2 -12 0t-8 -8q-3 -6 -0.5 -12.5t8.5 -8.5q22 -12 46 -20.5t48 -13.5h1.5h1.5q6 0 10.5 3.5 t5.5 9.5q0 7 -4 12.5t-10 6.5zM85 312q-1 6 -7 9t-12 2t-9.5 -7t-2.5 -12q8 -24 16.5 -47.5t20.5 -45.5q3 -3 6.5 -5.5t8.5 -2.5q2 0 3.5 0.5l4.5 1.5q6 3 8 9.5t-2 12.5q-11 21 -20 41.5t-15 43.5zM707 42q-6 -3 -13 -6l-14 -6q-6 -2 -9 -8t-1 -12q2 -5 6 -8.5t9 -3.5 q1 0 2 0.5l3 1.5q7 2 14.5 5.5t13.5 7.5q6 2 8.5 8.5t-0.5 12.5q-1 6 -7 8t-12 0v0zM590 8q-22 -4 -46 -6t-48 -2q-7 0 -11.5 -5t-4.5 -11t5 -11t11 -5v0v0q25 0 50 2t48 6q6 1 10 6.5t2 11.5q0 7 -5 11t-11 3z" />
</svg>