<svg viewBox="0 0 1024 1024" xmlns="http://www.w3.org/2000/svg">
  <path transform="scale(1, -1) translate(0, -960)" fill="currentColor" d="M762 541v238q0 19 -10 35t-27 23l-186 86q-13 6 -27 6t-27 -6l-186 -86q-17 -9 -27 -24.5t-10 -33.5v-238q0 -17 9 -32.5t23 -23.5l186 -107q7 -5 15.5 -6.5t16.5 -1.5t16.5 2t15.5 6l186 107q15 8 23.5 23t8.5 33zM499 894q3 2 6 3t7 1t7 -1t6 -3l184 -84l-197 -92 l-197 92l184 84v0zM310 512q-7 5 -11.5 12t-4.5 15v240v2.5v2.5l202 -93v-285zM714 512l-186 -107v286l202 93v-2.5v-2.5v-238q0 -9 -4 -16.5t-12 -12.5v0zM430 46q6 0 11 4.5t5 11.5q0 8 -4 12t-12 4q-73 4 -131 15q-59 10 -99.5 25t-62.5 32t-22 34q0 22 48.5 49.5 t151.5 43.5q6 1 10 6t3 11t-6.5 10t-11.5 3q-106 -17 -166.5 -50t-60.5 -75q0 -30 31 -54q30 -24 79.5 -41t111.5 -27q62 -11 125 -14v0v0zM742 304q-6 1 -12 -3t-7 -10t3 -12t10 -7q90 -17 131.5 -42.5t41.5 -45.5q0 -28 -67 -58.5t-194 -42.5q-6 -1 -11 -5.5t-3 -11.5 q0 -6 5 -10.5t11 -4.5h0.5h0.5q51 5 102 16q52 10 93.5 26.5t67.5 39.5q27 22 27 51q0 38 -52 69.5t-147 50.5v0zM422 155q-4 4 -10.5 3.5t-11.5 -4.5q-5 -5 -4 -11.5t6 -11.5l72 -62l-74 -75q-5 -5 -5 -11.5t5 -11.5q2 -2 5.5 -3.5t5.5 -1.5q3 0 6 1.5t5 3.5l87 87 q2 2 3.5 5t1.5 6q0 2 -1.5 5.5t-3.5 5.5l-87 75v0z" />
</svg>