<svg viewBox="0 0 256 256" xmlns="http://www.w3.org/2000/svg">
  <path transform="scale(1, -1) translate(0, -256)" fill="currentColor" d="M194 151v60q0 5 -3.5 10t-8.5 7l-46 22q-8 3 -16 0l-46 -22q-5 -2 -8.5 -7t-3.5 -10v-60q0 -5 3 -9.5t7 -6.5l46 -27q5 -2 10 -2t10 2l46 27q4 2 7 6.5t3 9.5zM126 237h2.5h1.5l40 -19l-42 -19l-42 19zM79 147q-3 1 -3 4v56l45 -20v-65zM177 147l-42 -25v65l45 20v-56 q0 -3 -3 -4zM186 95q-3 0 -5.5 -1.5t-3 -4.5t1.5 -5.5t5 -2.5q20 -4 31 -10q9 -5 9 -8.5t-6.5 -8t-19.5 -8.5q-16 -4 -36 -6q-3 -1 -5 -3t-1.5 -5t2.5 -4.5t4 -1.5h1q31 3 51 11q24 10 24 24t-19 24q-13 6 -33 10zM108 57q-3 2 -5.5 1.5t-4.5 -2.5t-2 -5t2 -5l9 -8 q-23 2 -42 6q-15 4 -24 9t-9 9.5t11 9.5q14 7 36 10q3 1 5 3t1.5 5t-3 5t-5.5 1q-28 -4 -43.5 -13t-15.5 -21q0 -16 28 -26q24 -9 60 -11l-8 -8q-2 -2 -2 -5t2 -5t5 -2t5 2l22 22q2 2 2 5t-3 5z" />
</svg>