<svg viewBox="0 0 1024 1024" xmlns="http://www.w3.org/2000/svg">
  <path transform="scale(1, -1) translate(0, -960)" fill="currentColor" d="M669 605q-5 5 -11.5 5t-11.5 -5l-134 -135l-133 133q-5 5 -11 5t-11 -5t-5 -11t5 -11l133 -133l-133 -133q-5 -5 -5 -11t5 -11q1 -4 4 -4.5t7 -0.5t6.5 1t4.5 4l133 133l133 -133q2 -4 5.5 -4.5t5.5 -0.5t5.5 1t5.5 4q5 5 5 11t-5 11l-133 133l133 133q5 5 5 12t-3 12v0z M912 928h-800q-34 0 -57 -23t-23 -57v-800q0 -34 23 -57t57 -23h800q34 0 57 23t23 57v800q0 34 -23 57t-57 23zM960 48q0 -20 -14 -34t-34 -14h-800q-20 0 -34 14t-14 34v800q0 20 14 34t34 14h800q20 0 34 -14t14 -34v-800z" />
</svg>