<svg viewBox="0 0 256 256" xmlns="http://www.w3.org/2000/svg">
  <path transform="scale(1, -1) translate(0, -256)" fill="currentColor" d="M228 251h-200q-10 0 -16.5 -6.5t-6.5 -16.5v-200q0 -10 7 -16.5t16 -6.5h200q10 0 17 6.5t7 16.5v200q-1 10 -7.5 16.5t-16.5 6.5zM237 28q0 -4 -2.5 -6.5t-6.5 -2.5h-200q-4 0 -6.5 2.5t-2.5 6.5v200q0 4 2.5 6.5t6.5 2.5h200q4 0 6.5 -2.5t2.5 -6.5v-200zM192 180 l-82 -82q-3 -3 -7 -3t-7 3l-32 32q-2 2 -5 2.5t-5 -2t-2 -5t2 -5.5l32 -32q8 -7 17.5 -7t16.5 7l81 82q2 2 2 4.5t-2 5t-4.5 2.5t-4.5 -2z" />
</svg>