<svg viewBox="0 0 1024 1024" xmlns="http://www.w3.org/2000/svg">
  <path transform="scale(1, -1) translate(0, -960)" fill="currentColor" d="M912 928h-800q-34 0 -57 -23t-23 -57v-800q0 -34 23 -57t57 -23h800q34 0 57 23t23 57v800q0 34 -23 57t-57 23zM960 48q0 -20 -14 -34t-34 -14h-800q-20 0 -34 14t-14 34v800q0 20 14 34t34 14h800q20 0 34 -14t14 -34v-800zM774 645l-324 -323q-16 -16 -37 -16t-37 16 l-128 128q-5 4 -11.5 4t-10.5 -4q-5 -5 -5 -11.5t5 -11.5l128 -128q12 -12 27.5 -18t31.5 -6q15 0 31 6t28 18l325 325q5 5 5 11.5t-5 10.5q-5 5 -11.5 4.5t-11.5 -5.5z" />
</svg>