<svg viewBox="0 0 256 256" xmlns="http://www.w3.org/2000/svg">
  <path transform="scale(1, -1) translate(0, -256)" fill="currentColor" d="M213 251q-14 0 -24.5 -9.5t-12.5 -22.5l-85 -15q-3 13 -13 21.5t-24 8.5q-15 0 -26 -11t-11 -25.5t8.5 -25t21.5 -13.5l-11 -79q-13 -2 -22 -12.5t-9 -25.5t11 -26t25.5 -11t25 9t13.5 23h68q3 0 5 2t2 5t-2 5t-5 2h-68q-3 11 -11 19t-19 10l10 80q12 2 20.5 10.5 t10.5 20.5l85 15q3 -13 13 -21.5t24 -8.5q15 0 26 11t11 26.5t-10.5 26.5t-26.5 11zM66 43q0 -10 -7 -17t-16.5 -7t-16.5 7t-7 16.5t7 16.5t16.5 7t16.5 -6.5t7 -16.5zM54 172q-10 0 -17 7t-7 17t7 17t17 7t17 -7t7 -16.5t-7 -17t-17 -7.5zM213 190q-10 0 -16.5 7t-6.5 16.5 t7 16.5t16.5 7t16.5 -7t7 -16.5t-7 -16.5t-17 -7zM228 51h-12q-3 0 -5.5 -2t-2.5 -5t2.5 -5.5t5.5 -2.5h12q3 0 5 2.5t2 5.5t-2 5t-5 2zM188 51h-12q-3 0 -5 -2t-2 -5t2 -5.5t5 -2.5h12q3 0 5 2.5t2 5.5t-2 5t-5 2z" />
</svg>