<svg viewBox="0 0 256 256" xmlns="http://www.w3.org/2000/svg">
  <path transform="scale(1, -1) translate(0, -256)" fill="currentColor" d="M194 80v19q0 3 -2 5t-5 2t-5 -2t-2 -5v-19q-13 -3 -22 -13.5t-9 -25t11 -25.5t26.5 -11t26.5 11t11.5 25.5t-8 25t-22.5 13.5zM187 19q-10 0 -16.5 7t-6.5 16.5t7 16.5t16.5 7t16.5 -7t7 -16.5t-7 -16.5t-17 -7zM72 251q-17 0 -29 -12t-12 -29q0 -13 17 -34 q11 -12 20 -20q1 -1 4 -1t4 1l1 1q11 10 19 20q17 20 17 33q0 17 -12 29t-29 12zM72 172q-10 9 -18 19q-9 13 -9 19q0 12 8 19.5t19 7.5t19 -7.5t8 -19.5q0 -6 -9 -19q-7 -9 -18 -19zM124 172h-24q-3 0 -5 -2t-2 -5t2 -5t5 -2h24q3 0 5.5 2t2.5 5t-2.5 5t-5.5 2zM163 158h17 v-17q0 -3 2.5 -5t5.5 -2t5 2t2 5v24q0 3 -2 5t-5 2h-24q-3 0 -5.5 -2t-2.5 -5t2 -5t5 -2zM180 43q0 -3 2 -5t5 -2t5 2t2 5t-2 5t-5 2t-5 -2t-2 -5zM65 210q0 -3 2 -5t5 -2t5 2t2 5t-2 5t-5 2t-5 -2t-2 -5z" />
</svg>