<svg viewBox="0 0 1024 1024" xmlns="http://www.w3.org/2000/svg">
  <path transform="scale(1, -1) translate(0, -960)" fill="currentColor" d="M853 928q-54 0 -93.5 -36t-45.5 -89l-360 -62q-8 50 -46.5 85t-91.5 35q-58 0 -98.5 -41t-40.5 -98q0 -53 35 -92.5t86 -45.5l-41 -339q-53 -5 -89 -44.5t-36 -93.5q0 -57 41 -98t98 -41q54 0 94.5 37t44.5 89h284q7 0 11.5 4.5t4.5 11.5q0 8 -4.5 12t-11.5 4h-285 q-6 47 -39.5 80t-80.5 39l41 337q50 5 85 40.5t40 84.5l360 63q7 -51 46 -85.5t92 -34.5q57 0 98 40.5t41 98.5q0 57 -41 98t-98 41v0zM278 107q0 -44 -31 -75.5t-76 -31.5q-44 0 -75.5 31.5t-31.5 75.5q0 45 31.5 76t75.5 31q45 0 76 -31t31 -76zM216 614q-44 0 -75.5 31.5 t-31.5 76.5q0 44 31.5 75.5t75.5 31.5t75.5 -31.5t31.5 -75.5q0 -45 -31.5 -76.5t-75.5 -31.5zM853 682q-45 0 -76 31t-31 76q0 44 31 75.5t76 31.5q44 0 75.5 -31.5t31.5 -75.5q0 -45 -31.5 -76t-75.5 -31zM912 126h-50q-7 0 -11.5 -4t-4.5 -12q0 -7 4.5 -11.5t11.5 -4.5 h50q7 0 11.5 4.5t4.5 11.5q0 8 -5 12t-11 4zM752 126h-48q-7 0 -11.5 -4t-4.5 -12q0 -7 4.5 -11.5t11.5 -4.5h48q7 0 11.5 4.5t4.5 11.5q0 8 -4.5 12t-11.5 4z" />
</svg>