<svg viewBox="0 0 1024 1024" xmlns="http://www.w3.org/2000/svg">
  <path transform="scale(1, -1) translate(0, -960)" fill="currentColor" d="M765 245v88q0 7 -4.5 11.5t-11.5 4.5t-11.5 -4.5t-4.5 -11.5v-88q-52 -6 -87.5 -45.5t-35.5 -92.5q0 -57 40.5 -98t98.5 -41q57 0 98 41t41 98q0 53 -36 92.5t-87 45.5v0zM749 0q-45 0 -76 31.5t-31 75.5q0 45 31 76t76 31q44 0 75.5 -31t31.5 -76q0 -44 -31.5 -75.5 t-75.5 -31.5zM288 928q-62 0 -107 -44t-45 -108q0 -30 20 -64t45 -63.5t48 -51.5q22 -21 28 -26q2 -2 4.5 -2.5t6.5 -0.5t6.5 1t4.5 2q6 5 28 26q23 22 48 51.5t45 63.5t20 64q-1 64 -45.5 108t-106.5 44zM288 605q-31 29 -75.5 81t-44.5 90q0 50 35 85t85 35t85 -35t35 -85 q-1 -37 -45.5 -89.5t-74.5 -81.5zM498 613h-96q-8 0 -12 -4.5t-4 -11.5t4 -11.5t12 -4.5h96q7 0 11.5 4.5t4.5 11.5t-4.5 11.5t-11.5 4.5zM653 581h80v-80q0 -7 4.5 -11.5t11.5 -4.5t11.5 4.5t4.5 11.5v96q0 7 -4.5 11.5t-11.5 4.5h-96q-7 0 -11.5 -4.5t-4.5 -11.5t5 -11.5 t11 -4.5zM778 107q0 -12 -8.5 -20.5t-20.5 -8.5t-20.5 8.5t-8.5 20.5t8.5 20.5t20.5 8.5t20.5 -8.5t8.5 -20.5zM317 776q0 -12 -8.5 -20.5t-20.5 -8.5t-20.5 8.5t-8.5 20.5t8.5 20.5t20.5 8.5t20.5 -8.5t8.5 -20.5z" />
</svg>