<svg viewBox="0 0 256 256" xmlns="http://www.w3.org/2000/svg">
  <path transform="scale(1, -1) translate(0, -256)" fill="currentColor" d="M20 251q-3 0 -5 -2t-2 -5t2 -5t5 -2q59 0 109 -29t79 -78.5t29 -107.5q0 -3 2 -5t5 -2t5.5 2t2.5 5q-1 62 -32 114.5t-84 83.5t-116 31zM20 196q-3 0 -5 -2.5t-2 -5.5t2 -4.5t5 -1.5q44 0 81.5 -21.5t59.5 -58t22 -79.5q0 -3 2 -5t5 -2t5 2t2 5q0 47 -24 86.5t-64.5 63 t-88.5 23.5zM20 146q-3 0 -5 -2t-2 -5t2 -5t5 -2q30 0 56 -14.5t41 -40t15 -55.5q0 -3 2 -5t5 -2t5 2t2 5q0 34 -17 62.5t-46 45t-63 16.5zM20 96q-3 0 -5 -2t-2 -5t2 -5t5 -2q16 0 30 -8t22 -21.5t8 -30.5q0 -3 2 -5t5 -2t5 2t2 5q0 20 -10 37t-27 27t-37 10zM30 55 q-10 0 -17.5 -7.5t-7.5 -17.5t7.5 -17.5t17.5 -7.5t17.5 7.5t7.5 17.5t-7.5 17.5t-17.5 7.5zM30 19q-4 0 -7.5 3t-3.5 7.5t3.5 7.5t7.5 3t7.5 -3t3.5 -7.5t-3.5 -7.5t-7.5 -3z" />
</svg>