<svg viewBox="0 0 1024 1024" xmlns="http://www.w3.org/2000/svg">
  <path transform="scale(1, -1) translate(0, -960)" fill="currentColor" d="M80 928q-7 0 -11.5 -4.5t-4.5 -11.5t4.5 -11.5t11.5 -4.5q182 0 342 -68q160 -69 279.5 -187t189.5 -277q69 -158 69 -338q0 -8 4.5 -12t11.5 -4t11.5 4t4.5 12q0 186 -72 351q-72 164 -195.5 286.5t-290.5 193.5q-166 71 -354 71zM80 706q-7 0 -11.5 -4.5t-4.5 -11.5 q0 -8 4.5 -12t11.5 -4q137 0 258 -51q121 -52 211.5 -140t142.5 -206t52 -251q0 -8 4.5 -12t11.5 -4t11.5 4t4.5 12q-1 141 -55 264q-55 124 -149.5 216.5t-220.5 145.5q-127 54 -271 54zM80 510q-7 0 -11.5 -4t-4.5 -12q0 -7 4.5 -11.5t11.5 -4.5q95 0 179 -35 q84 -36 146.5 -97.5t99.5 -143.5q36 -82 36 -175q0 -7 4.5 -11.5t11.5 -4.5t11.5 4.5t4.5 11.5q0 100 -39 188t-106 153.5t-156 103.5q-90 38 -192 38v0zM80 309q-7 0 -11.5 -4.5t-4.5 -11.5t4.5 -11.5t11.5 -4.5q52 0 98 -20t80.5 -53.5t54.5 -79.5q20 -45 20 -97 q0 -7 4.5 -11.5t11.5 -4.5t11.5 4.5t4.5 11.5q0 58 -23 110q-22 51 -60.5 89t-90.5 61q-52 22 -111 22zM120 144q-36 0 -62 -26t-26 -62t26 -62t62 -26t62 26t26 62t-26 62t-62 26zM120 0q-23 0 -39.5 16.5t-16.5 39.5t16.5 39.5t39.5 16.5t39.5 -16.5t16.5 -39.5 t-16.5 -39.5t-39.5 -16.5z" />
</svg>