<svg viewBox="0 0 1024 1024" xmlns="http://www.w3.org/2000/svg">
  <path transform="scale(1, -1) translate(0, -960)" fill="currentColor" d="M512 928q-70 0 -132 -26q-61 -27 -107 -72.5t-72 -106.5q-27 -61 -27 -131q0 -77 33.5 -145.5t93.5 -116.5q2 -2 4.5 -3t4.5 -1q4 0 7.5 1.5t5.5 5.5q4 5 3.5 12t-6.5 10q-54 43 -84 105t-30 132q0 63 25 118q24 56 65.5 97t96.5 65q56 24 119 24t119 -24 q55 -24 96.5 -65t65.5 -97q25 -55 25 -118q0 -7 4 -11.5t12 -4.5q7 0 11.5 4.5t4.5 11.5q0 70 -27 131q-26 61 -72 106.5t-107 72.5q-62 26 -132 26zM792 304h-162q-7 0 -11.5 -4.5t-4.5 -11.5t4.5 -11.5t11.5 -4.5h125l-208 -144q-5 -4 -10.5 -5t-11.5 -1h-194 q-15 0 -29 -6t-24 -17l-100 -104q-5 -5 -5 -11t5 -11q2 -3 4.5 -4t6.5 -1q3 0 6 1t5 4l101 104q5 6 12.5 8.5t16.5 2.5h195q11 0 21 3.5t19 9.5l209 145v-118q0 -7 4.5 -11.5t11.5 -4.5q8 0 12 4.5t4 11.5v160q2 7 -2.5 11.5t-11.5 4.5v0zM581 608q30 0 51.5 21t21.5 53 q0 30 -21 51.5t-52 21.5h-98q-7 0 -11.5 -4.5t-4.5 -11.5v-214h-81q-8 0 -12 -4.5t-4 -11.5t4 -11.5t12 -4.5h81v-82q0 -7 4.5 -11.5t11.5 -4.5t11.5 4.5t4.5 11.5v82h82q7 0 11.5 4.5t4.5 11.5t-4.5 11.5t-11.5 4.5h-82v83h82zM501 722h81q17 0 29.5 -12t12.5 -30t-13 -29 t-30 -11h-82v82h2z" />
</svg>