<svg viewBox="0 0 1024 1024" xmlns="http://www.w3.org/2000/svg">
  <path transform="scale(1, -1) translate(0, -960)" fill="currentColor" d="M178 552q7 0 11.5 4.5t4.5 11.5q0 68 25 128q26 59 71 103.5t105 70.5t128 26q69 0 129 -26t104.5 -70.5t70.5 -103.5q26 -60 26 -128q0 -74 -32.5 -141t-90.5 -113q-5 -4 -6 -11t2 -12q3 -2 6.5 -4t6.5 -2t5 1t5 2q32 26 57 57q25 32 42 68t26 75t9 80q1 74 -27 140 t-77 114.5t-115 77.5q-66 28 -141 28t-141 -28q-66 -29 -115 -77.5t-77 -114.5t-28 -140q0 -7 4 -11.5t12 -4.5v0zM802 173q-8 0 -12 -4.5t-4 -11.5v-138l-228 165q-9 6 -19.5 9.5t-21.5 3.5h-211q-10 0 -18 3.5t-14 9.5l-108 112q-4 4 -10.5 4t-11.5 -4q-5 -5 -5 -11.5 t5 -11.5l107 -110q11 -11 25 -17.5t31 -6.5h210q6 0 12.5 -2t11.5 -5l216 -158h-128q-7 0 -11.5 -4.5t-4.5 -11.5t4.5 -11.5t11.5 -4.5h173q7 0 11.5 4.5t4.5 11.5v173q0 7 -5 11.5t-11 4.5v0zM597 587q32 0 54.5 23t22.5 54q0 32 -23 54.5t-54 22.5h-104q-7 0 -11.5 -4.5 t-4.5 -11.5v-231h-90q-7 0 -11.5 -4t-4.5 -12q0 -7 4.5 -11.5t11.5 -4.5h90v-88q0 -7 4.5 -11.5t11.5 -4.5t11.5 4.5t4.5 11.5v88h89q8 0 12 4.5t4 11.5q0 8 -4 12t-12 4h-89v93h88zM509 709h88q19 0 32 -13.5t13 -31.5t-13.5 -31.5t-31.5 -13.5h-88v90v0z" />
</svg>