<svg viewBox="0 0 256 256" xmlns="http://www.w3.org/2000/svg">
  <path transform="scale(1, -1) translate(0, -256)" fill="currentColor" d="M44 151q3 0 5.5 2t2.5 5q0 21 10.5 39.5t29 29t40 10.5t39.5 -10.5t29 -29t11 -39.5q0 -18 -8 -34t-22 -28q-2 -1 -2.5 -4t1.5 -5.5t5 -2.5t5 1q17 13 26 32t9 41q0 25 -12.5 46.5t-34 34t-47 12.5t-47.5 -12.5t-34.5 -34t-12.5 -46.5q0 -3 2 -5t5 -2zM200 62q-3 0 -5 -2 t-2 -5v-27l-52 36q-5 4 -12 4h-53q-3 0 -6 2l-26 28q-2 2 -5 2t-5 -2t-2 -5t2 -5l26 -28q7 -6 16 -6h53q2 0 4 -2l50 -34h-26q-3 0 -5 -2t-2 -5t2 -5t5 -2h43q3 0 5.5 2t2.5 5v44q-1 3 -3 5t-5 2zM149 160q9 0 16 6.5t7 15.5t-6.5 15.5t-16.5 6.5h-26q-3 0 -5 -2t-2 -5v-55 h-19q-3 0 -5 -2t-2 -5t2 -5t5 -2h19v-19q0 -3 2 -5t5 -2t5 2t2 5v19h20q3 0 5 2t2 5t-2 5t-5 2h-20v18h19zM130 190h20q3 0 5.5 -2.5t2.5 -6t-2.5 -6t-5.5 -2.5h-20v17z" />
</svg>