<svg viewBox="0 0 256 256" xmlns="http://www.w3.org/2000/svg">
  <path transform="scale(1, -1) translate(0, -256)" fill="currentColor" d="M128 251q-24 0 -44 -12t-32 -31.5t-12 -43.5q0 -20 8.5 -37.5t24.5 -30.5q1 -2 4.5 -2t5.5 3t1.5 5.5t-2.5 4.5q-13 11 -20.5 26t-7.5 31q0 20 10 36.5t27 26.5t37 10t37 -10t27 -26.5t10 -36.5q0 -3 2 -5t5 -2t5 2t2 5q0 24 -12 43.5t-32 31.5t-44 12zM198 95h-40 q-3 0 -5.5 -2t-2.5 -5t2.5 -5t5.5 -2h22l-45 -31q-2 -1 -4 -1h-48q-10 0 -15 -7l-26 -26q-2 -2 -2 -5t2 -5t5 -2t5 2l26 26q2 2 4 2h49q7 0 12 4l47 33v-23q0 -3 2.5 -5t5.5 -2t5 2t2 5v40q0 3 -2 5t-5 2zM145 165q9 0 15 6t6 15t-6 15t-15 6h-24q-3 0 -5 -2t-2 -5v-50h-18 q-3 0 -5 -2.5t-2 -5.5t2 -5t5 -2h18v-17q0 -3 2 -5t5 -2t5 2t2 5v18h18q3 0 5 2t2 5t-2 5t-5 2h-18v15h17zM128 193h17q3 0 5 -2t2 -5t-2 -5t-5 -2h-17v14z" />
</svg>