<svg viewBox="0 0 1024 1024" xmlns="http://www.w3.org/2000/svg">
  <path transform="scale(1, -1) translate(0, -960)" fill="currentColor" d="M666 928h-308q-33 0 -56.5 -23t-23.5 -57v-800q0 -34 23.5 -57t56.5 -23h306q34 0 57 23t23 57v800q1 34 -22.5 57t-55.5 23zM714 48q0 -20 -14 -34t-34 -14h-308q-20 0 -34 14t-14 34v82h229q7 0 11.5 4t4.5 12q0 7 -4.5 11.5t-11.5 4.5h-229v124h144q8 0 12 4.5t4 11.5 q0 8 -4 12t-12 4h-144v125h229q7 0 11.5 4.5t4.5 11.5t-4.5 11.5t-11.5 4.5h-229v125h144q8 0 12 4.5t4 11.5t-4 11.5t-12 4.5h-144v125h229q7 0 11.5 4.5t4.5 11.5t-4.5 11.5t-11.5 4.5h-229v59q0 20 14 34t34 14h306q20 0 34 -14t14 -34v-800h2z" />
</svg>