<svg viewBox="0 0 256 256" xmlns="http://www.w3.org/2000/svg">
  <path transform="scale(1, -1) translate(0, -256)" fill="currentColor" d="M247 190l-57 57q-7 7 -16.5 7t-15.5 -7l-149 -148q-7 -7 -7 -16.5t7 -16.5l57 -57q7 -7 16.5 -7t16.5 7l149 148q6 7 6 16.5t-7 16.5zM238 167l-149 -149q-3 -2 -6.5 -2t-6.5 2l-58 58q-2 3 -2 6.5t2 6.5l14 13l40 -40q2 -2 5 -2t5 2.5t2 5t-2 4.5l-40 40l18 19l25 -25 q2 -2 5 -2t5 2.5t2 5t-2 4.5l-25 25l19 19l40 -40q2 -2 4.5 -2t4.5 2t2.5 5t-2.5 5l-40 40l19 19l25 -25q2 -2 5 -2t5 2t2 5t-2 5l-25 25l19 19l40 -40q2 -2 4.5 -2t4.5 2t2 4.5t-2 5.5l-40 40l10 9q3 3 6.5 3t6.5 -3l60 -57q2 -3 2 -6.5t-2 -6.5z" />
</svg>