<svg viewBox="0 0 1024 1024" xmlns="http://www.w3.org/2000/svg">
  <path transform="scale(1, -1) translate(0, -960)" fill="currentColor" d="M856 930h-82q-43 0 -74 -31.5t-31 -74.5v-642v-4t1 -4l117 -192q5 -7 12 -11.5t15 -4.5q9 0 16 4.5t12 11.5l116 192q2 3 2 4.5v3.5v642q0 43 -30.5 74.5t-73.5 31.5zM774 898h82q30 0 51 -22t21 -52v-67h-227v67q0 30 21.5 52t51.5 22zM814 -2l-113 189v538h227v-538 l-114 -189v0zM360 926h-216q-34 0 -57 -23t-23 -57v-798q0 -34 23 -57t57 -23h216q34 0 57 23t23 57v798q0 34 -24 57t-56 23zM408 50q0 -21 -14 -34.5t-34 -13.5h-216q-20 0 -34 13.5t-14 34.5v81h138q7 0 11.5 4.5t4.5 11.5t-4.5 11.5t-11.5 4.5h-138v125h54q8 0 12 4.5 t4 11.5t-4 11.5t-12 4.5h-54v125h138q7 0 11.5 4.5t4.5 11.5t-4.5 11.5t-11.5 4.5h-138v125h54q8 0 12 4t4 12q0 7 -4 11.5t-12 4.5h-54v124h138q7 0 11.5 4.5t4.5 11.5q0 8 -4.5 12t-11.5 4h-138v56q0 21 14 34.5t34 13.5h216q20 0 34 -13.5t14 -34.5v-796z" />
</svg>