<svg viewBox="0 0 256 256" xmlns="http://www.w3.org/2000/svg">
  <path transform="scale(1, -1) translate(0, -256)" fill="currentColor" d="M214 251h-20q-12 0 -21 -8.5t-9 -20.5v-160q0 -2 2 -4l29 -48q3 -5 9.5 -5t9.5 5l29 48q1 2 1 4v160q-1 12 -9.5 20.5t-20.5 8.5zM194 237h20q6 0 10.5 -4.5t4.5 -10.5v-14h-51v14q0 6 4.5 10.5t11.5 4.5zM204 22l-26 42v130h51v-130zM90 251h-54q-10 0 -16.5 -7 t-6.5 -16v-200q0 -10 6.5 -16.5t16.5 -6.5h54q10 0 16.5 6.5t6.5 16.5v200q0 9 -7 16t-16 7zM99 28q0 -3 -3 -6t-6 -3h-54q-4 0 -6.5 3t-2.5 6v18h31q3 0 5.5 2t2.5 5t-2.5 5t-5.5 2h-29h-2v25h11q3 0 5 2t2 5t-2 5t-5 2h-9h-2v25h31q3 0 5.5 2t2.5 5t-2.5 5t-5.5 2h-29h-2 v25h11q3 0 5 2t2 5t-2 5t-5 2h-9h-2v25h31q3 0 5.5 2t2.5 5t-2.5 5t-5.5 2h-29h-2v12q0 3 2.5 6t6.5 3h54q4 0 6.5 -3t2.5 -6v-200z" />
</svg>