<svg viewBox="0 0 256 256" xmlns="http://www.w3.org/2000/svg">
  <path transform="scale(1, -1) translate(0, -256)" fill="currentColor" d="M52 62q-4 0 -7 -3t-3 -7.5t3 -7t7 -2.5t7 2.5t3 7t-3 7.5t-7 3zM232 89h-143v143q0 8 -5.5 13.5t-13.5 5.5h-46q-8 0 -13.5 -5.5t-5.5 -13.5v-208q0 -8 5.5 -13.5t13.5 -5.5h208q8 0 13.5 5.5t5.5 13.5v46q0 8 -5.5 13.5t-13.5 5.5zM24 237h46q2 0 4 -1.5t2 -3.5v-20h-18 q-3 0 -5.5 -2t-2.5 -5t2.5 -5t5.5 -2h18v-16h-15q-3 0 -5 -2t-2 -5t2 -5t5 -2h15v-15h-18q-3 0 -5.5 -2t-2.5 -5t2.5 -5.5t5.5 -2.5h18v-14h-15q-3 0 -5 -2.5t-2 -5.5t2 -5t5 -2h15v-21h-57v144q0 2 1.5 3.5t3.5 1.5zM24 19q-2 0 -3.5 1.5t-1.5 3.5v51h56v-56h-51zM237 24 q0 -2 -1.5 -3.5t-3.5 -1.5h-20v18q0 3 -2 5t-5 2t-5 -2t-2 -5v-18h-16v14q0 3 -2 5t-5 2t-5 -2t-2 -5v-14h-15v18q0 3 -2 5t-5 2q-6 0 -6 -7v-18h-15v14q0 3 -2 5t-5 2t-5 -2t-2 -5v-14h-22v56h143q2 0 3.5 -1.5t1.5 -3.5v-46z" />
</svg>