<svg viewBox="0 0 1024 1024" xmlns="http://www.w3.org/2000/svg">
  <path transform="scale(1, -1) translate(0, -960)" fill="currentColor" d="M208 198q-23 0 -39.5 -16.5t-16.5 -39.5q0 -22 16.5 -39t39.5 -17t39.5 17t16.5 39q-1 24 -17 40t-39 16zM208 120q-10 0 -17 7t-7 17t7 17t17 7t17 -7t7 -17t-7 -17t-17 -7zM928 282h-582v582q0 26 -19 45t-45 19h-186q-26 0 -45 -19t-19 -45v-832q0 -26 19 -45t45 -19 h832q26 0 45 19t19 45v186q0 26 -19 45t-45 19zM96 896h186q13 0 22.5 -9.5t9.5 -22.5v-91h-84q-7 0 -11.5 -4.5t-4.5 -11.5t4.5 -11.5t11.5 -4.5h84v-87h-71q-7 0 -11.5 -4t-4.5 -12q0 -7 4.5 -11.5t11.5 -4.5h71v-83h-84q-7 0 -11.5 -4.5t-4.5 -11.5t4.5 -11.5t11.5 -4.5 h84v-83h-71q-7 0 -11.5 -4.5t-4.5 -11.5t4.5 -11.5t11.5 -4.5h71v-110h-250v582q0 13 9.5 22.5t22.5 9.5v0zM96 0q-13 0 -22.5 9.5t-9.5 22.5v218h250v-250h-218v0zM960 32q0 -13 -9.5 -22.5t-22.5 -9.5h-91v83q0 7 -4.5 11.5t-11.5 4.5t-11.5 -4.5t-4.5 -11.5v-83h-87v70 q0 8 -4 12t-12 4q-7 0 -11.5 -4t-4.5 -12v-70h-83v83q0 7 -4.5 11.5t-11.5 4.5t-11.5 -4.5t-4.5 -11.5v-83h-83v70q0 8 -4.5 12t-11.5 4t-11.5 -4t-4.5 -12v-70h-110v250h582q13 0 22.5 -9.5t9.5 -22.5v-186v0z" />
</svg>