<svg viewBox="0 0 1024 1024" xmlns="http://www.w3.org/2000/svg">
  <path transform="scale(1, -1) translate(0, -960)" fill="currentColor" d="M981 686l-231 231q-22 23 -55.5 23t-57.5 -23l-594 -595q-23 -23 -23 -56.5t23 -57.5l231 -230q12 -12 26.5 -18t29.5 -6q14 0 29.5 6t26.5 18l593 593q24 25 24.5 59t-22.5 56v0zM958 597l-595 -595q-14 -15 -34 -15t-33 15l-230 230q-15 14 -15 34t15 33l62 63 l170 -170q2 -2 5 -3.5t6 -1.5q2 0 5.5 1.5t5.5 3.5q5 5 5 11.5t-5 10.5l-168 172l93 92l107 -107q2 -2 5.5 -3.5t5.5 -1.5q3 0 6 1.5t5 3.5q5 5 5 11.5t-5 11.5l-107 107l93 93l170 -170q2 -2 5 -3.5t6 -1.5q2 0 5.5 1.5t5.5 3.5q5 5 5 11.5t-5 10.5l-170 170l93 93 l107 -107q3 -3 6 -4t6 -1q2 0 5 1t6 4q5 4 5 10.5t-5 11.5l-107 107l92 93l170 -168q2 -2 5.5 -3.5t5.5 -1.5q3 0 6 1.5t5 3.5q5 5 5 11.5t-5 10.5l-169 170l46 46q15 15 34.5 15t32.5 -15l231 -230q15 -14 15.5 -34t-14.5 -33v0z" />
</svg>