<svg viewBox="0 0 256 256" xmlns="http://www.w3.org/2000/svg">
  <path transform="scale(1, -1) translate(0, -256)" fill="currentColor" d="M166 251h-76q-10 0 -17 -7t-7 -16v-200q0 -10 7 -17t17 -7h76q10 0 16.5 7t6.5 17v200q0 10 -6.5 16.5t-16.5 6.5zM175 28q0 -4 -2.5 -6.5t-6.5 -2.5h-76q-4 0 -7 2.5t-3 6.5v18h54q3 0 5.5 2t2.5 5t-2.5 5t-5.5 2h-53v25h33q3 0 5 2t2 5t-2 5.5t-5 2.5h-33v25h54 q3 0 5 2t2 5t-2 5t-5 2h-54v25h33q3 0 5 2.5t2 5.5t-2 5t-5 2h-33v25h54q3 0 5 2t2 6t-7 4h-54v12q0 4 2.5 6.5t6.5 2.5h76q4 0 7 -2.5t3 -6.5v-200h-1z" />
</svg>