<svg viewBox="0 0 256 256" xmlns="http://www.w3.org/2000/svg">
  <path transform="scale(1, -1) translate(0, -256)" fill="currentColor" d="M229 85h-13q-2 9 -5 13h17q3 0 5.5 2.5t2.5 5.5t-2.5 5t-5.5 2h-65q-3 0 -5 -2t-2 -5t2 -5.5t5 -2.5h26q10 0 13 -13h-38q-3 0 -5 -2t-2 -5t2 -5t5 -2h33q-4 -4 -9 -6t-9.5 -2t-6.5 -4q-1 -2 -1 -4t2 -3l33 -37q1 -3 4 -3t5.5 2t2.5 5t-2 5l-25 28q17 6 23 19h15q3 0 5 2 t2 5t-2 5t-5 2zM221 243h-186q-12 0 -21 -8t-9 -20v-116q0 -11 9 -19.5t21 -8.5h93q3 0 5 2t2 5t-2 5.5t-5 2.5h-93q-6 0 -11 4t-5 10v52h218v-32q0 -3 2 -5t5 -2t5.5 2t2.5 5v95q-1 12 -10 20t-21 8zM35 229h186q6 0 11 -4t5 -10v-14h-218v14q0 6 5 10t11 4zM19 166v21h218 v-21h-218z" />
</svg>