<svg viewBox="0 0 256 256" xmlns="http://www.w3.org/2000/svg">
  <path transform="scale(1, -1) translate(0, -256)" fill="currentColor" d="M153 192q3 0 5 2.5t2 5.5t-2 5t-5 2h-51q-3 0 -5 -2t-2 -5t2 -5.5t5 -2.5h8q4 0 8 -2.5t6 -6.5h-22q-3 0 -5.5 -2t-2.5 -5t2.5 -5.5t5.5 -2.5h22q-3 -3 -8 -4.5t-9.5 -1.5t-6.5 -4q-1 -2 -0.5 -4.5t2.5 -3.5l28 -32q2 -2 5 -2t5.5 1.5t2.5 4.5t-2 5l-21 23q7 3 12.5 7.5 t7.5 10.5h12q3 0 5.5 2.5t2.5 5.5t-2.5 5t-5.5 2h-12q-1 4 -5 9h18zM54 164q0 20 10 36.5t27 26.5t37 10t37 -10t27 -26.5t10 -36.5q0 -16 -7.5 -31t-20.5 -26q-2 -2 -2.5 -4.5t1.5 -5.5t5.5 -3t4.5 2q16 13 24.5 30.5t8.5 37.5q0 24 -12 44t-32 31.5t-44 11.5t-44 -12 t-32 -31.5t-12 -43.5q0 -3 2.5 -5t5.5 -2t4.5 2t1.5 5zM208 59q-3 0 -5 -2t-2 -5v-24l-47 33q-6 4 -12 4h-49q-3 0 -5 2l-25 26q-2 2 -5 2t-5 -2t-2 -5t2 -5l25 -26q6 -7 15 -7h49q2 0 4 -1l44 -31h-22q-3 0 -5 -2t-2 -5t2 -5t5 -2h40q3 0 5.5 2t2.5 5v41q0 3 -2.5 5t-5.5 2 z" />
</svg>