<svg viewBox="0 0 1024 1024" xmlns="http://www.w3.org/2000/svg">
  <path transform="scale(1, -1) translate(0, -960)" fill="currentColor" d="M629 733q0 7 -4.5 11.5t-11.5 4.5h-205q-7 0 -11.5 -4.5t-4.5 -11.5t4.5 -11.5t11.5 -4.5h34q21 0 44 -20t32 -43h-110q-7 0 -11.5 -4t-4.5 -12q0 -7 4.5 -11.5t11.5 -4.5h112q-8 -20 -36.5 -35.5t-54.5 -15.5q-5 0 -9 -2.5t-6 -6.5q-2 -5 -1 -9.5t5 -8.5l115 -128 q2 -2 5.5 -3.5t5.5 -1.5t5.5 1.5t5.5 3.5q5 5 5 11.5t-3 10.5l-96 106q31 8 59 29t34 49h59q7 0 11.5 4.5t4.5 11.5q0 8 -4.5 12t-11.5 4h-61q-5 17 -15.5 33.5t-24.5 29.5h99q7 0 12.5 5t5.5 11v0zM512 896q64 0 119 -24q56 -24 97.5 -65t65.5 -97q24 -55 24 -118 q0 -70 -30 -132t-84 -105q-5 -3 -6 -10t3 -12q2 -3 5.5 -5t7.5 -2q2 0 4.5 1t4.5 3q60 48 93.5 116.5t33.5 145.5q0 70 -27 131t-73 106.5t-107 72.5q-61 26 -131 26t-131 -26q-62 -27 -107.5 -72.5t-72.5 -106.5t-27 -131q0 -7 4.5 -11.5t11.5 -4.5q8 0 12 4.5t4 11.5 q0 63 24 118q24 56 65.5 97t97.5 65q55 24 119 24v0zM834 162q-8 0 -12 -4.5t-4 -11.5v-119l-210 144q-8 6 -18.5 9.5t-21.5 3.5h-195q-9 0 -16.5 3.5t-12.5 9.5l-101 104q-5 5 -11 5t-11 -5t-5 -11.5t5 -11.5l101 -104q9 -10 23 -16t29 -6h196q6 0 11.5 -1.5t10.5 -4.5 l208 -146h-126q-8 0 -12 -4.5t-4 -11.5t4 -11.5t12 -4.5h161q7 0 11.5 4.5t4.5 11.5v162q-1 6 -5.5 11t-11.5 5v0z" />
</svg>