<svg viewBox="0 0 1024 1024" xmlns="http://www.w3.org/2000/svg">
  <path transform="scale(1, -1) translate(0, -960)" fill="currentColor" d="M699 658q0 7 -4.5 11.5t-11.5 4.5h-229h-1.5h-1.5v0h-1h-88q-8 0 -12 -4.5t-4 -11.5q0 -8 4 -12t12 -4h91q38 -2 59.5 -31.5t25.5 -66.5h-176q-8 0 -12 -4.5t-4 -11.5t4 -11.5t12 -4.5h172q-12 -35 -57.5 -59t-82.5 -24q-5 0 -8.5 -2.5t-6.5 -7.5q-2 -5 -1.5 -9.5 t3.5 -7.5l181 -221q2 -3 5.5 -5t6.5 -2t5.5 1t4.5 3q5 4 5.5 10.5t-3.5 11.5l-159 200q46 8 90 38t53 74h113q7 0 11.5 4.5t4.5 11.5t-4.5 11.5t-11.5 4.5h-112q-2 28 -12 53t-29 45h152q7 0 12 4t5 12v0zM512 928q-99 0 -186 -38q-88 -38 -153 -103t-103 -153 q-38 -87 -38 -186t38 -186q38 -88 103 -153t153 -103q87 -38 186 -38t186 38q88 38 153 103t103 153q38 87 38 186t-38 186q-38 88 -103 153t-153 103q-87 38 -186 38zM512 0q-92 0 -174 35q-81 36 -142 97t-97 142q-35 82 -35 174t35 174q36 81 96.5 142t142.5 97 q82 35 174 35t174 -35q81 -36 142 -96.5t97 -142.5q35 -82 35 -174t-35 -174q-36 -81 -96.5 -142t-142.5 -97q-82 -35 -174 -35z" />
</svg>