<svg viewBox="0 0 256 256" xmlns="http://www.w3.org/2000/svg">
  <path transform="scale(1, -1) translate(0, -256)" fill="currentColor" d="M171 173q3 0 5 2t2 5t-2 5.5t-5 2.5h-80q-3 0 -5 -2.5t-2 -5.5t2 -5t5 -2h23q7 0 11.5 -5t6.5 -13h-41q-3 0 -5 -2t-2 -5t2 -5.5t5 -2.5h38q-4 -6 -13 -10t-17 -4q-5 0 -6.5 -4t0.5 -8l46 -54q2 -2 5 -2t5 1.5t2.5 4.5t-1.5 5l-38 45q11 4 20.5 11t12.5 16h26q3 0 5 2 t2 5t-2 5.5t-5 2.5h-25q-1 9 -7 18h32v-1zM128 251q-33 0 -61.5 -16.5t-45 -45t-16.5 -61.5t16.5 -61.5t45 -45t61.5 -16.5t61.5 16.5t45 45t16.5 61.5t-16.5 61.5t-45 45t-61.5 16.5zM128 19q-29 0 -54 14.5t-40 39.5t-15 55t15 54.5t39.5 39.5t54.5 15t55 -15t39.5 -40 t14.5 -54.5t-14.5 -54.5t-39.5 -39.5t-55 -14.5z" />
</svg>