<svg viewBox="0 0 1024 1024" xmlns="http://www.w3.org/2000/svg">
  <path transform="scale(1, -1) translate(0, -960)" fill="currentColor" d="M917 264h-66q-1 23 -8 42.5t-21 34.5h92q7 0 11.5 4.5t4.5 11.5t-4.5 11.5t-11.5 4.5h-261q-7 0 -11.5 -4.5t-4.5 -11.5t4.5 -11.5t11.5 -4.5h102q30 0 46.5 -23.5t17.5 -53.5h-163q-7 0 -11.5 -4.5t-4.5 -11.5t4.5 -11.5t11.5 -4.5h158q-13 -24 -44.5 -39t-57.5 -15 q-5 0 -9 -2.5t-5 -7.5q-3 -5 -2 -9.5t5 -8.5l131 -147q2 -2 5.5 -3.5t5.5 -1.5q3 0 6 1.5t5 3.5q5 5 5.5 11.5t-3.5 11.5l-110 124q32 9 63 30t42 52h69q7 0 11.5 4.5t4.5 11.5t-6 11.5t-13 4.5v0zM883 898h-742q-45 0 -77 -30t-32 -71v-464q0 -42 32 -71.5t77 -29.5h369 q8 0 12 4.5t4 11.5t-4 11.5t-12 4.5h-369q-31 0 -54 20t-23 49v225h896v-139q0 -7 4.5 -11.5t11.5 -4.5t11.5 4.5t4.5 11.5v378q0 41 -32 71t-77 30v0zM141 866h742q31 0 54 -20t23 -49v-69h-896v69q0 27 23 48t54 21zM64 590v106h896v-106h-896z" />
</svg>