<svg viewBox="0 0 1024 1024" xmlns="http://www.w3.org/2000/svg">
  <path transform="scale(1, -1) translate(0, -960)" fill="currentColor" d="M629 733q0 7 -4.5 11.5t-11.5 4.5h-205q-7 0 -11.5 -4.5t-4.5 -11.5t4.5 -11.5t11.5 -4.5h34q21 0 44 -20t32 -43h-110q-7 0 -11.5 -4t-4.5 -12q0 -7 4.5 -11.5t11.5 -4.5h112q-8 -20 -36.5 -35.5t-54.5 -15.5q-5 0 -9 -2.5t-6 -6.5q-2 -5 -1 -9.5t5 -8.5l115 -128 q2 -2 5.5 -3.5t5.5 -1.5t5.5 1.5t5.5 3.5q5 5 5 11.5t-3 10.5l-96 106q31 8 59 29t34 49h59q7 0 11.5 4.5t4.5 11.5q0 8 -4.5 12t-11.5 4h-61q-5 17 -15.5 33.5t-24.5 29.5h99q7 0 12.5 5t5.5 11v0zM299 330q3 -2 5 -3t5 -1t6.5 1.5t6.5 5.5q3 5 2.5 12t-6.5 10 q-54 43 -83.5 105t-29.5 132q0 63 24 118q24 56 65.5 97t97.5 65q55 24 118 24t119 -24t97.5 -65t65.5 -97q24 -55 24 -118q0 -7 4.5 -11.5t11.5 -4.5t11.5 4.5t4.5 11.5q0 70 -27 131q-26 61 -72 106.5t-108 72.5q-61 26 -131 26q-69 0 -131 -26q-61 -27 -107 -72.5 t-73 -106.5q-26 -61 -26 -131q1 -77 33.5 -145.5t92.5 -116.5v0zM834 304h-160q-8 0 -12 -4.5t-4 -11.5t4 -11.5t12 -4.5h121l-205 -144q-4 -4 -10 -5t-12 -1h-195q-16 0 -29.5 -6t-23.5 -17l-101 -104q-5 -5 -5 -11t5 -11q3 -3 5.5 -4t5.5 -1q4 0 6.5 1t5.5 4l100 104 q5 6 13 8.5t16 2.5h195q11 0 21.5 3.5t18.5 9.5l210 149v-122q0 -7 4.5 -11.5t11.5 -4.5t11.5 4.5t4.5 11.5v160q1 7 -3 11.5t-11 4.5v0z" />
</svg>