<svg viewBox="0 0 1024 1024" xmlns="http://www.w3.org/2000/svg">
  <path transform="scale(1, -1) translate(0, -960)" fill="currentColor" d="M850 675h-239q-2 66 -30.5 126.5t-82.5 94.5h350q7 0 11.5 4.5t4.5 11.5t-4.5 11.5t-11.5 4.5h-674q-7 0 -11.5 -4.5t-4.5 -11.5t4.5 -11.5t11.5 -4.5h212q45 0 80 -19q36 -18 60.5 -49t37.5 -71t15 -82h-405q-7 0 -11.5 -4.5t-4.5 -11.5t4.5 -11.5t11.5 -4.5h405 q-5 -44 -38 -81q-32 -37 -77.5 -64t-97.5 -43q-52 -15 -96 -15q-4 0 -8 -2.5t-6 -7.5q-2 -4 -1.5 -9t3.5 -8l368 -440q2 -3 5.5 -5t6.5 -2t6 1t4 3q5 4 5.5 10.5t-3.5 11.5l-346 418q49 5 101 24q52 20 96.5 50.5t74.5 70.5q30 41 35 88h239q7 0 11.5 4.5t4.5 11.5t-5 11.5 t-11 4.5v0z" />
</svg>