<svg viewBox="0 0 1024 1024" xmlns="http://www.w3.org/2000/svg">
  <path transform="scale(1, -1) translate(0, -960)" fill="currentColor" d="M512 928q-99 0 -186 -38q-88 -38 -153 -103t-103 -153q-38 -87 -38 -186t38 -186q38 -88 103 -153t153 -103q87 -38 186 -38t186 38q88 38 153 103t103 153q38 87 38 186t-38 186q-38 88 -103 153t-153 103q-87 38 -186 38zM512 0q-92 0 -174 35q-81 36 -142 97t-97 142 q-35 82 -35 174t35 174q36 81 96.5 142t142.5 97q82 35 174 35t174 -35q81 -36 142 -96.5t97 -142.5q35 -82 35 -174t-35 -174q-36 -81 -96.5 -142t-142.5 -97q-82 -35 -174 -35zM528 315h-165q-33 0 -57 -24t-24 -57v-13q0 -7 4 -11.5t12 -4.5q7 0 11.5 4.5t4.5 11.5v13 q0 20 14.5 34.5t34.5 14.5h165q7 0 11.5 4.5t4.5 11.5t-4.5 11.5t-11.5 4.5zM462 624q0 7 -4 11.5t-12 4.5q-7 0 -11.5 -4.5t-4.5 -11.5q0 -35 -24 -59t-59 -24t-59 24t-24 59q0 7 -4.5 11.5t-11.5 4.5t-11.5 -4.5t-4.5 -11.5q0 -48 33.5 -81.5t81.5 -33.5t81.5 33.5 t33.5 81.5zM776 640q-7 0 -11.5 -4.5t-4.5 -11.5q0 -35 -24 -59t-59 -24t-59 24t-24 59q0 7 -4.5 11.5t-11.5 4.5q-8 0 -12 -4.5t-4 -11.5q0 -48 33.5 -81.5t81.5 -33.5t81.5 33.5t33.5 81.5q0 6 -5 11t-11 5zM714 413q-4 0 -6.5 -1.5t-5.5 -3.5q-8 -8 -37.5 -45t-29.5 -67 q0 -32 23 -55t56 -23q32 0 55 23t23 55q0 29 -29.5 65.5t-37.5 46.5q-3 2 -5.5 3.5t-5.5 1.5v0zM714 251q-20 0 -33.5 13.5t-13.5 33.5q0 12 15 34.5t32 41.5q16 -19 31 -41.5t15 -34.5q0 -20 -13.5 -33.5t-32.5 -13.5z" />
</svg>