<svg viewBox="0 0 1024 1024" xmlns="http://www.w3.org/2000/svg">
  <path transform="scale(1, -1) translate(0, -960)" fill="currentColor" d="M512 928q-99 0 -186 -38q-88 -38 -153 -103t-103 -153q-38 -87 -38 -186t38 -186q38 -88 103 -153t153 -103q87 -38 186 -38t186 38q88 38 153 103t103 153q38 87 38 186t-38 186q-38 88 -103 153t-153 103q-87 38 -186 38zM512 0q-92 0 -174 35q-81 36 -142 97t-97 142 q-35 82 -35 174t35 174q36 81 96.5 142t142.5 97q82 35 174 35t174 -35q81 -36 142 -96.5t97 -142.5q35 -82 35 -174t-35 -174q-36 -81 -96.5 -142t-142.5 -97q-82 -35 -174 -35zM512 338q-61 0 -118 -22.5t-101 -64.5q-5 -5 -5 -11t3 -11q5 -5 11.5 -5t11.5 3 q40 37 91.5 57t106.5 20t106.5 -20t91.5 -57q3 -2 5.5 -3.5t6.5 -1.5q3 0 5.5 1.5t5.5 3.5q5 5 4.5 11.5t-6.5 11.5q-44 42 -101 65t-118 23zM386 595q0 27 -19 45.5t-45 18.5q-27 0 -45.5 -18.5t-18.5 -45.5q0 -26 18.5 -45t45.5 -19q26 0 45 19t19 45zM701 659 q-27 0 -45.5 -18.5t-18.5 -45.5q0 -26 18.5 -45t45.5 -19q26 0 45 19t19 45q0 27 -19 45.5t-45 18.5z" />
</svg>