<svg viewBox="0 0 256 256" xmlns="http://www.w3.org/2000/svg">
  <path transform="scale(1, -1) translate(0, -256)" fill="currentColor" d="M128 251q-33 0 -61.5 -16.5t-45 -45t-16.5 -61.5t16.5 -61.5t45 -45t61.5 -16.5t61.5 16.5t45 45t16.5 61.5t-16.5 61.5t-45 45t-61.5 16.5zM128 19q-29 0 -54 14.5t-40 39.5t-15 55t15 54.5t39.5 39.5t54.5 15t55 -15t39.5 -40t14.5 -54.5t-14.5 -54.5t-39.5 -39.5 t-55 -14.5zM128 103q-16 0 -30.5 -5.5t-26.5 -16.5q-2 -2 -2.5 -5t2 -5t5 -2.5t4.5 1.5q20 19 47.5 19t48.5 -19q2 -2 4.5 -2t5 2.5t2 5.5t-2.5 5q-12 11 -26.5 16.5t-30.5 5.5zM80 149q7 0 11.5 5t4.5 11.5t-4.5 11t-11 4.5t-11.5 -4.5t-5 -11t5 -11.5t11 -5zM176 181 q-7 0 -11.5 -5t-4.5 -11.5t4.5 -11t11 -4.5t11.5 4.5t5 11t-5 11.5t-11 5z" />
</svg>