<svg viewBox="0 0 1024 1024" xmlns="http://www.w3.org/2000/svg">
  <path transform="scale(1, -1) translate(0, -960)" fill="currentColor" d="M928 802h-832q-26 0 -45 -19t-19 -45v-432q0 -27 19 -45.5t45 -18.5h99v-132q0 -7 4.5 -11.5t11.5 -4.5t11.5 4.5t4.5 11.5v132h600v-132q0 -7 4.5 -11.5t11.5 -4.5t11.5 4.5t4.5 11.5v132h69q26 0 45 18.5t19 45.5v432q0 26 -19 45t-45 19v0zM960 306q0 -14 -9.5 -23 t-22.5 -9h-832q-13 0 -22.5 9t-9.5 23v432q0 13 9.5 22.5t22.5 9.5h832q13 0 22.5 -9.5t9.5 -22.5v-432zM381 675h-210q-7 0 -11.5 -4.5t-4.5 -11.5v-118q0 -7 4.5 -11.5t11.5 -4.5h210q7 0 11.5 4.5t4.5 11.5v118q0 7 -5 11.5t-11 4.5v0zM365 557h-178v86h178v-86v0z M843 696q-7 0 -11.5 -4.5t-4.5 -11.5v-272q0 -7 4.5 -11.5t11.5 -4.5t11.5 4.5t4.5 11.5v272q0 6 -5 11t-11 5zM531 675h-11q-7 0 -11.5 -4.5t-4.5 -11.5t4.5 -11.5t11.5 -4.5h11q7 0 11.5 4.5t4.5 11.5t-5 11.5t-11 4.5zM678 675h-11q-7 0 -11.5 -4.5t-4.5 -11.5t4.5 -11.5 t11.5 -4.5h11q8 0 12 4.5t4 11.5t-5 11.5t-11 4.5zM531 539h-11q-7 0 -11.5 -4.5t-4.5 -11.5t4.5 -11.5t11.5 -4.5h11q7 0 11.5 4.5t4.5 11.5t-5 11.5t-11 4.5zM678 539h-11q-7 0 -11.5 -4.5t-4.5 -11.5t4.5 -11.5t11.5 -4.5h11q8 0 12 4.5t4 11.5t-5 11.5t-11 4.5zM531 402 h-11q-7 0 -11.5 -4.5t-4.5 -11.5q0 -8 4.5 -12t11.5 -4h11q7 0 11.5 4t4.5 12q0 7 -5 11.5t-11 4.5zM678 402h-11q-7 0 -11.5 -4.5t-4.5 -11.5q0 -8 4.5 -12t11.5 -4h11q8 0 12 4t4 12q0 7 -5 11.5t-11 4.5z" />
</svg>