<svg viewBox="0 0 1024 1024" xmlns="http://www.w3.org/2000/svg">
  <path transform="scale(1, -1) translate(0, -960)" fill="currentColor" d="M922 928h-820q-26 0 -45 -19t-19 -45v-710q0 -27 19 -45.5t45 -18.5h69v-106q0 -7 4.5 -11.5t11.5 -4.5t11.5 4.5t4.5 11.5v106h618v-106q0 -7 4.5 -11.5t11.5 -4.5t11.5 4.5t4.5 11.5v106h69q26 0 45 18.5t19 45.5v710q0 26 -19 45t-45 19v0zM954 154q0 -14 -9.5 -23 t-22.5 -9h-820q-13 0 -22.5 9t-9.5 23v710q0 13 9.5 22.5t22.5 9.5h820q13 0 22.5 -9.5t9.5 -22.5v-710zM662 357q22 26 35 59t13 69q0 78 -52.5 134.5t-129.5 63.5v109q0 7 -4.5 11.5t-11.5 4.5t-11.5 -4.5t-4.5 -11.5v-109q-77 -6 -129.5 -63t-52.5 -135q0 -37 12.5 -70 t35.5 -58l-77 -77q-5 -5 -5 -11.5t5 -10.5q2 -3 5.5 -4t5.5 -1t5.5 1t5.5 4l77 76q26 -21 59 -34.5t69 -13.5t69.5 13t58.5 35l77 -76q2 -3 5.5 -4t5.5 -1t5.5 1t5.5 4q5 4 5 10.5t-5 11.5l-77 77v0zM346 485q0 68 49 117t117 49t117 -49t49 -117q0 -69 -49 -118t-117 -49 t-117 49t-49 118v0zM328 778q0 7 -4.5 11.5t-11.5 4.5h-125q-7 0 -11.5 -4.5t-4.5 -11.5q0 -8 4.5 -12t11.5 -4h125q7 0 11.5 4t4.5 12z" />
</svg>