<svg viewBox="0 0 256 256" xmlns="http://www.w3.org/2000/svg">
  <path transform="scale(1, -1) translate(0, -256)" fill="currentColor" d="M232 242h-208q-8 0 -13.5 -5.5t-5.5 -13.5v-150q0 -8 5.5 -13.5t13.5 -5.5h6v-34q0 -3 2 -5t5 -2t5 2t2 5v34h168v-34q0 -3 2.5 -5t5.5 -2t5 2t2 5v34h5q8 0 13.5 5.5t5.5 13.5v150q0 8 -5.5 13.5t-13.5 5.5zM237 73q0 -2 -1.5 -3.5t-3.5 -1.5h-208q-2 0 -3.5 1.5 t-1.5 3.5v150q0 2 1.5 3.5t3.5 1.5h208q2 0 3.5 -1.5t1.5 -3.5v-150zM58 184q-3 0 -5 -2.5t-2 -5.5v-59q0 -3 2 -5t5 -2t5.5 2t2.5 5v59q0 3 -2.5 5.5t-5.5 2.5zM165 204q-16 0 -28.5 -7.5t-20.5 -20.5t-8 -28t8 -28t20.5 -20.5t28 -7.5t28.5 7.5t21 20.5t8 28t-8 28 t-21 20.5t-28 7.5zM165 106q-18 0 -30.5 12.5t-12.5 29.5t12.5 29.5t30 12.5t30.5 -12t13 -30t-12.5 -30t-30.5 -12zM165 172q-10 0 -17 -7t-7 -17t7 -17t17 -7t17 7t7 17t-7 17t-17 7zM165 138q-4 0 -7 3t-3 7t3 7t7 3t7 -3t3 -7t-3 -7t-7 -3z" />
</svg>