<svg viewBox="0 0 1024 1024" xmlns="http://www.w3.org/2000/svg">
  <path transform="scale(1, -1) translate(0, -960)" fill="currentColor" d="M928 928h-832q-26 0 -45 -19t-19 -45v-832q0 -26 19 -45t45 -19h832q26 0 45 19t19 45v832q0 26 -19 45t-45 19zM64 598h432v-299h-426h-3t-3 -1v300v0zM528 598h426q1 0 3 0.5t3 1.5v-301h-432v299v0zM960 864v-235q-1 1 -3 1h-3h-426v266h400q13 0 22.5 -9.5t9.5 -22.5 zM96 896h400v-266h-432v234q0 13 9.5 22.5t22.5 9.5zM64 32v235q1 -1 3 -1h3h426v-266h-400q-13 0 -22.5 9.5t-9.5 22.5zM928 0h-400v266h432v-234q0 -13 -9.5 -22.5t-22.5 -9.5zM182 768h93q7 0 11.5 4.5t4.5 11.5t-4.5 11.5t-11.5 4.5h-93q-7 0 -11.5 -4.5t-4.5 -11.5 t4.5 -11.5t11.5 -4.5v0zM629 768h93q7 0 11.5 4.5t4.5 11.5t-4.5 11.5t-11.5 4.5h-93q-7 0 -11.5 -4.5t-4.5 -11.5t4.5 -11.5t11.5 -4.5zM182 477h93q7 0 11.5 4.5t4.5 11.5t-4.5 11.5t-11.5 4.5h-93q-7 0 -11.5 -4.5t-4.5 -11.5t4.5 -11.5t11.5 -4.5v0zM722 509h-93 q-7 0 -11.5 -4.5t-4.5 -11.5t4.5 -11.5t11.5 -4.5h93q7 0 11.5 4.5t4.5 11.5t-5 11.5t-11 4.5zM274 176h-93q-7 0 -11.5 -4.5t-4.5 -11.5t4.5 -11.5t11.5 -4.5h93q7 0 11.5 4.5t4.5 11.5t-4.5 11.5t-11.5 4.5zM722 176h-93q-7 0 -11.5 -4.5t-4.5 -11.5t4.5 -11.5t11.5 -4.5 h93q7 0 11.5 4.5t4.5 11.5t-5 11.5t-11 4.5zM864 715h10q7 0 11.5 4.5t4.5 11.5t-4.5 11.5t-11.5 4.5h-10q-7 0 -11.5 -4.5t-4.5 -11.5t4.5 -11.5t11.5 -4.5zM874 430h-10q-7 0 -11.5 -4t-4.5 -12q0 -7 4.5 -11.5t11.5 -4.5h10q7 0 11.5 4.5t4.5 11.5q0 8 -4.5 12t-11.5 4z M874 123h-10q-7 0 -11.5 -4.5t-4.5 -11.5t4.5 -11.5t11.5 -4.5h10q7 0 11.5 4.5t4.5 11.5t-4.5 11.5t-11.5 4.5zM397 715h9q8 0 12 4.5t4 11.5t-4 11.5t-12 4.5h-9q-7 0 -11.5 -4.5t-4.5 -11.5t4.5 -11.5t11.5 -4.5zM397 398h9q8 0 12 4.5t4 11.5q0 8 -4 12t-12 4h-9 q-7 0 -11.5 -4t-4.5 -12q0 -7 4.5 -11.5t11.5 -4.5zM406 123h-9q-7 0 -11.5 -4.5t-4.5 -11.5t4.5 -11.5t11.5 -4.5h9q8 0 12 4.5t4 11.5t-5 11.5t-11 4.5z" />
</svg>