<svg viewBox="0 0 1024 1024" xmlns="http://www.w3.org/2000/svg">
  <path transform="scale(1, -1) translate(0, -960)" fill="currentColor" d="M928 893h-832q-26 0 -45 -19t-19 -45v-600q0 -27 19 -45.5t45 -18.5h35v-144q0 -7 4.5 -11.5t11.5 -4.5t11.5 4.5t4.5 11.5v144h696v-144q0 -7 4.5 -11.5t11.5 -4.5t11.5 4.5t4.5 11.5v144h37q26 0 45 18.5t19 45.5v600q0 26 -19 45t-45 19zM960 229q0 -13 -9.5 -22.5 t-22.5 -9.5h-832q-13 0 -22.5 9.5t-9.5 22.5v600q0 13 9.5 22.5t22.5 9.5h832q13 0 22.5 -9.5t9.5 -22.5v-600zM234 658q-8 0 -12 -4.5t-4 -11.5v-237q0 -7 4 -11.5t12 -4.5q7 0 11.5 4.5t4.5 11.5v237q0 7 -4.5 11.5t-11.5 4.5v0zM659 742q-44 0 -83 -16q-39 -17 -68 -46 t-46 -69q-17 -39 -17 -83t17 -83t46 -68.5t68 -46.5q39 -16 83 -16q45 0 84 16q39 17 68 46t46 69q17 39 17 83t-17 83t-46 68.5t-68 46.5q-39 16 -84 16zM659 346q-75 0 -128.5 53t-53.5 129t53.5 129t128.5 53q76 0 129.5 -53t53.5 -129t-53.5 -129t-129.5 -53zM659 611 q-35 0 -59 -24t-24 -59t24 -59t59 -24t59 24t24 59t-24 59t-59 24v0zM659 477q-21 0 -36 14.5t-15 36.5t15 36.5t36 14.5q22 0 36.5 -14.5t14.5 -36.5t-14.5 -36.5t-36.5 -14.5z" />
</svg>