<svg viewBox="0 0 256 256" xmlns="http://www.w3.org/2000/svg">
  <path transform="scale(1, -1) translate(0, -256)" fill="currentColor" d="M230 251h-204q-8 0 -13.5 -5.5t-5.5 -13.5v-178q0 -7 5.5 -13t13.5 -6h14v-23q0 -3 2 -5t5 -2t5 2t2 5v24h149v-24q0 -3 2 -5t5 -2t5 2t2 5v24h14q8 0 13.5 5.5t5.5 13.5v177q-1 8 -6.5 13.5t-13.5 5.5zM235 54q0 -2 -1.5 -3.5t-3.5 -1.5h-204q-2 0 -4 1.5t-2 3.5v178 q0 2 1.5 3.5t4.5 1.5h204q3 0 4.5 -1.5t1.5 -3.5v-178h-1zM170 106q10 14 10 33t-13 33.5t-32 17.5v24q0 3 -2 5.5t-5 2.5t-5.5 -2.5t-2.5 -5.5v-24q-19 -3 -32 -18t-13 -33.5t11 -32.5l-17 -18q-2 -2 -2 -5t2 -5t4.5 -2t4.5 2l18 18q14 -11 32 -11t32 11l18 -18 q2 -2 4.5 -2t4.5 2t2 5t-2 5zM89 137q0 16 11.5 27.5t27.5 11.5t27.5 -11.5t11.5 -27.5t-11.5 -27.5t-27.5 -11.5t-27.5 11.5t-11.5 27.5zM85 210q0 3 -2 5.5t-5 2.5h-31q-3 0 -5 -2.5t-2 -5.5t2 -5t5 -2h31q3 0 5 2t2 5z" />
</svg>