<svg viewBox="0 0 256 256" xmlns="http://www.w3.org/2000/svg">
  <path transform="scale(1, -1) translate(0, -256)" fill="currentColor" d="M232 251h-208q-8 0 -13.5 -5.5t-5.5 -13.5v-208q0 -8 5.5 -13.5t13.5 -5.5h208q8 0 14 5.5t6 13.5v208q-1 8 -6.5 13.5t-13.5 5.5zM19 162h102v-68h-102v68zM135 162h102v-68h-102v68zM237 232v-56h-102v61h97q2 0 3.5 -1.5t1.5 -3.5zM24 237h97v-61h-102v56q0 2 1.5 3.5 t3.5 1.5zM19 24v56h102v-61h-97q-2 0 -3.5 1.5t-1.5 3.5zM232 19h-97v61h102v-56q0 -2 -1.5 -3.5t-3.5 -1.5zM46 205h23q3 0 5 2t2 5t-2 5.5t-5 2.5h-23q-3 0 -5.5 -2.5t-2.5 -5.5t2.5 -5t5.5 -2zM157 205h23q3 0 5.5 2t2.5 5t-2.5 5t-5.5 2h-23q-3 0 -5 -2t-2 -5t2 -5t5 -2 zM68 146h-23q-3 0 -5 -2t-2 -5t2 -5t5 -2h23q3 0 5.5 2t2.5 5t-2.5 5t-5.5 2zM180 146h-23q-3 0 -5 -2t-2 -5t2 -5t5 -2h23q3 0 5.5 2t2.5 5t-2.5 5t-5.5 2zM68 63h-23q-3 0 -5 -2t-2 -5t2 -5t5 -2h23q3 0 5.5 2t2.5 5t-2.5 5t-5.5 2zM180 63h-23q-3 0 -5 -2t-2 -5t2 -5 t5 -2h23q3 0 5.5 2t2.5 5t-2.5 5t-5.5 2zM216 192h2q3 0 5.5 2t2.5 5t-2.5 5t-5.5 2h-2q-3 0 -5 -2t-2 -5t2 -5t5 -2zM218 126h-2q-3 0 -5 -2t-2 -5t2 -5t5 -2h2q3 0 5.5 2t2.5 5t-2.5 5t-5.5 2zM218 50h-2q-3 0 -5 -2.5t-2 -5.5t2 -5t5 -2h2q3 0 5.5 2t2.5 5t-2.5 5.5 t-5.5 2.5zM99 192h3q3 0 5 2t2 5t-2 5t-5 2h-3q-3 0 -5 -2t-2 -5t2 -5t5 -2zM102 126h-3q-3 0 -5 -2t-2 -5t2 -5t5 -2h3q3 0 5 2t2 5t-2.5 5t-4.5 2zM102 50h-3q-3 0 -5 -2.5t-2 -5.5t2 -5t5 -2h3q3 0 5 2t2 5t-2.5 5.5t-4.5 2.5z" />
</svg>