<svg viewBox="0 0 256 256" xmlns="http://www.w3.org/2000/svg">
  <path transform="scale(1, -1) translate(0, -256)" fill="currentColor" d="M232 220h-208q-8 0 -13.5 -6t-5.5 -14v-108q0 -7 5.5 -13t13.5 -6h22v-30q0 -3 2 -5t5 -2t5 2t2 5v30h144v-30q0 -3 2.5 -5t5.5 -2t5 2t2 5v30h13q8 0 13.5 5.5t5.5 13.5v108q0 8 -5.5 14t-13.5 6zM237 92q0 -2 -1.5 -3.5t-3.5 -1.5h-208q-2 0 -3.5 1.5t-1.5 3.5v108 q0 2 1.5 4t3.5 2h208q2 0 3.5 -1.5t1.5 -4.5v-108zM95 188h-52q-3 0 -5 -2t-2 -5v-30q0 -3 2 -5t5 -2h52q3 0 5 2t2 5v30q0 3 -2 5t-5 2zM88 158h-38v16h38v-16zM211 193q-3 0 -5 -2t-2 -5v-68q0 -3 2 -5.5t5 -2.5t5 2.5t2 5.5v68q0 3 -2.5 5t-4.5 2zM133 188h-3q-3 0 -5 -2 t-2 -5t2 -5t5 -2h3q3 0 5 2t2 5t-2 5t-5 2zM170 188h-3q-3 0 -5 -2t-2 -5t2 -5t5 -2h3q3 0 5 2t2 5t-2.5 5t-4.5 2zM133 154h-3q-3 0 -5 -2.5t-2 -5.5t2 -5t5 -2h3q3 0 5 2t2 5t-2 5.5t-5 2.5zM170 154h-3q-3 0 -5 -2.5t-2 -5.5t2 -5t5 -2h3q3 0 5 2t2 5t-2.5 5.5t-4.5 2.5z M133 119h-3q-3 0 -5 -2t-2 -5t2 -5t5 -2h3q3 0 5 2t2 5t-2 5t-5 2zM170 119h-3q-3 0 -5 -2t-2 -5t2 -5t5 -2h3q3 0 5 2t2 5t-2.5 5t-4.5 2z" />
</svg>