<svg viewBox="0 0 1024 1024" xmlns="http://www.w3.org/2000/svg">
  <path transform="scale(1, -1) translate(0, -960)" fill="currentColor" d="M243 531q7 0 11.5 4.5t4.5 11.5t-4.5 11.5t-11.5 4.5h-94q-7 0 -11.5 -4.5t-4.5 -11.5v-105q0 -8 4.5 -12t11.5 -4h78v-63h-78q-7 0 -11.5 -4.5t-4.5 -11.5t4.5 -11.5t11.5 -4.5h94q7 0 11.5 4.5t4.5 11.5v95q0 7 -4.5 11.5t-11.5 4.5h-78v73h78zM917 738h-810 q-31 0 -53 -22t-22 -54v-427q0 -31 22 -53t53 -22h810q31 0 53 22t22 53v427q0 32 -22 54t-53 22zM960 234q0 -18 -12.5 -31t-30.5 -13h-810q-18 0 -30.5 13t-12.5 31v428q0 18 12.5 31t30.5 13h810q18 0 30.5 -13t12.5 -31v-428zM680 355h-91v192q0 7 -4.5 11.5t-11.5 4.5 t-11.5 -4.5t-4.5 -11.5v-208q0 -7 4.5 -11.5t11.5 -4.5h107q7 0 11.5 4.5t4.5 11.5t-4.5 11.5t-11.5 4.5zM850 531q7 0 11.5 4.5t4.5 11.5t-4.5 11.5t-11.5 4.5h-80q-8 0 -12 -4.5t-4 -11.5v-201q0 -8 4 -12t12 -4h80q7 0 11.5 4t4.5 12q0 7 -4.5 11.5t-11.5 4.5h-64v68h24 q7 0 11.5 4.5t4.5 11.5q0 8 -4.5 12t-11.5 4h-24v69h64zM466 563h-108q-7 0 -11.5 -4.5t-4.5 -11.5v-208q0 -7 4.5 -11.5t11.5 -4.5q8 0 12 4.5t4 11.5v98h76v-98q0 -7 4 -11.5t12 -4.5q7 0 11.5 4.5t4.5 11.5v207q0 7 -4.5 12t-11.5 5zM374 531h76v-61h-76v61z" />
</svg>