<svg viewBox="0 0 256 256" xmlns="http://www.w3.org/2000/svg">
  <path transform="scale(1, -1) translate(0, -256)" fill="currentColor" d="M61 146q3 0 5 2t2 5t-2 5t-5 2h-24q-3 0 -5 -2t-2 -5v-27q0 -3 2 -5t5 -2h17v-9h-17q-3 0 -5 -2.5t-2 -5t2 -4.5t5 -2h24q3 0 5 2t2 5v24q0 3 -2 5t-5 2h-17v12h17zM229 203h-202q-9 0 -15.5 -6.5t-6.5 -15.5v-107q0 -9 6.5 -15.5t15.5 -6.5h202q9 0 15.5 6.5t6.5 15.5 v108q0 9 -6.5 15t-15.5 6zM237 74q0 -3 -2.5 -5.5t-5.5 -2.5h-202q-3 0 -5.5 2.5t-2.5 5.5v108q0 3 2.5 5.5t5.5 2.5h202q3 0 5.5 -2.5t2.5 -5.5v-108zM170 108h-20v45q0 3 -2 5t-5 2t-5 -2t-2 -5v-52q0 -3 2 -5t5 -2h27q3 0 5 2t2 5t-2 5t-5 2zM212 146q3 0 5.5 2t2.5 5 t-2.5 5t-5.5 2h-20q-3 0 -5 -2t-2 -5v-51q0 -3 2 -5t5 -2h20q3 0 5.5 2t2.5 5t-2.5 5.5t-5.5 2.5h-13v11h3q3 0 5.5 2t2.5 5t-2.5 5t-5.5 2h-3v11h13zM116 160h-26q-3 0 -5.5 -2.5t-2.5 -5.5v-52q0 -3 2.5 -5t5.5 -2t5 2t2 5v22h13v-22q0 -3 2 -5t5 -2t5 2t2 5v52 q0 3 -2.5 5.5t-5.5 2.5zM97 146h13v-10h-13v10z" />
</svg>