<svg viewBox="0 0 1024 1024" xmlns="http://www.w3.org/2000/svg">
  <path transform="scale(1, -1) translate(0, -960)" fill="currentColor" d="M736 802h-46v38q0 19 -13.5 32.5t-31.5 13.5h-117v26q0 7 -4.5 11.5t-11.5 4.5t-11.5 -4.5t-4.5 -11.5v-26h-117q-19 0 -32 -13.5t-13 -32.5v-38h-46q-31 0 -52.5 -23t-21.5 -54v-680q0 -31 22 -54t52 -23h448q31 0 52.5 23t21.5 54v680q1 31 -21 54t-53 23v0zM366 840 q0 6 4 10t9 4h266q5 0 9 -4t4 -10v-54v0v0v0v0v-55q0 -6 -4 -10t-9 -4h-266q-5 0 -9 4t-4 10v109v0zM779 45q0 -18 -12.5 -31.5t-28.5 -13.5h-450q-18 0 -30 13.5t-12 31.5v680q0 18 12.5 31.5t29.5 13.5h46v-39q0 -19 13.5 -32.5t31.5 -13.5h266q19 0 32 13.5t13 32.5v39 h46q18 0 30 -13.5t12 -31.5v-680h1zM546 363h-68q-20 0 -34.5 17t-14.5 41t14.5 40.5t34.5 16.5h108q7 0 11.5 4.5t4.5 11.5q0 8 -4.5 12t-11.5 4h-58v21q0 7 -4.5 11.5t-11.5 4.5t-11.5 -4.5t-4.5 -11.5v-21h-18q-33 0 -57 -26t-24 -63t24 -63.5t57 -26.5h68 q20 0 34.5 -16.5t14.5 -40.5t-14.5 -41t-34.5 -17h-108q-7 0 -11.5 -4.5t-4.5 -11.5t4.5 -11.5t11.5 -4.5h58v-21q0 -7 4.5 -11.5t11.5 -4.5t11.5 4.5t4.5 11.5v21h18q33 0 57 26t24 64q0 37 -24 63t-57 26z" />
</svg>