<svg viewBox="0 0 1024 1024" xmlns="http://www.w3.org/2000/svg">
  <path transform="scale(1, -1) translate(0, -960)" fill="currentColor" d="M765 664h-96v120q0 1 -0.5 2.5t-1.5 2.5h95q7 0 11.5 4.5t4.5 11.5t-4.5 11.5t-11.5 4.5h-532v91q0 7 -4 11.5t-12 4.5q-7 0 -11.5 -4.5t-4.5 -11.5v-928q0 -7 4.5 -11.5t11.5 -4.5q8 0 12 4.5t4 11.5v803h407q0 -1 -1 -2t-1 -3v-120h-96q-25 0 -43 -17.5t-18 -42.5v-212 q0 -16 9 -31t23 -23l125 -69v-99q0 -7 4.5 -11.5t11.5 -4.5t11.5 4.5t4.5 11.5v99l125 69v0v0q14 8 23 23t9 31v212q1 25 -16.5 43.5t-42.5 18.5v0zM541 632h224q12 0 20.5 -8.5t8.5 -20.5v-61h-284v61q0 11 9.5 20t21.5 9zM778 366l-127 -68l-126 68q-7 4 -11 11t-4 15v117 h284v-117q0 -8 -4.5 -15t-11.5 -11v0z" />
</svg>