<svg viewBox="0 0 256 256" xmlns="http://www.w3.org/2000/svg">
  <path transform="scale(1, -1) translate(0, -256)" fill="currentColor" d="M191 185h-21v25h20q3 0 5.5 2t2.5 5t-2.5 5t-5.5 2h-129v20q0 3 -2 5t-5 2t-5 -2t-2 -5v-232q0 -3 2 -5t5 -2t5 2t2 5v198h95v-25h-21q-8 0 -13.5 -5.5t-5.5 -13.5v-52q0 -5 2.5 -9.5t7.5 -6.5l30 -17v-23q0 -3 2 -5t5 -2t5 2t2 5v23l30 17q4 2 6.5 6t2.5 10v52 q0 8 -5 13.5t-13 5.5zM135 171h56q2 0 3.5 -1.5t1.5 -3.5v-12h-65v12q0 2 1 3.5t3 1.5zM193 110l-30 -16l-30 16q-2 2 -2 4v26h65v-26q-1 -3 -3 -4z" />
</svg>