<svg viewBox="0 0 256 256" xmlns="http://www.w3.org/2000/svg">
  <path transform="scale(1, -1) translate(0, -256)" fill="currentColor" d="M182 223h-47v21q0 3 -2 5t-5 2t-5 -2t-2 -5v-21h-47q-6 0 -10.5 -4.5t-4.5 -10.5v-99q0 -20 13.5 -35t33.5 -17v-22q0 -3 2 -5t5 -2h8v-16q0 -3 2 -5t5 -2t5 2t2 5v16h8q3 0 5 2t2 5v22q20 2 33.5 17t13.5 35v99q0 6 -4.5 10.5t-10.5 4.5zM74 209h108q1 0 1 -1v-26h-110 v26q0 1 1 1zM120 42v15h15v-15h-15zM144 71h-32q-14 0 -24.5 9t-13.5 22h13q3 0 5 2t2 5t-2 5t-5 2h-14v22h21q3 0 5.5 2t2.5 5t-2.5 5t-5.5 2h-21v18h110v-60q0 -16 -11.5 -27.5t-27.5 -11.5z" />
</svg>