<svg viewBox="0 0 1024 1024" xmlns="http://www.w3.org/2000/svg">
  <path transform="scale(1, -1) translate(0, -960)" fill="currentColor" d="M728 816h-200v96q0 7 -4.5 11.5t-11.5 4.5t-11.5 -4.5t-4.5 -11.5v-96h-200q-20 0 -34 -14t-14 -34v-394q0 -79 55.5 -136.5t133.5 -59.5v-103q0 -7 4.5 -11.5t11.5 -4.5h43v-75q0 -7 4.5 -11.5t11.5 -4.5t11.5 4.5t4.5 11.5v75h42q7 0 11.5 4.5t4.5 11.5v101 q79 4 133.5 61t54.5 136v395q2 19 -12.5 33.5t-33.5 14.5v0zM296 784h430q8 0 12 -4.5t4 -11.5v-114h-462v114q0 6 5 11t11 5zM470 91v85h84v-85h-84v0zM578 208h-132q-63 0 -110 42.5t-54 104.5h65q7 0 11.5 4.5t4.5 11.5t-4.5 11.5t-11.5 4.5h-67v111h98q7 0 11.5 4 t4.5 12q0 7 -4.5 11.5t-11.5 4.5h-98v92h462v-249q2 -69 -47 -117t-117 -48v0z" />
</svg>