<svg viewBox="0 0 256 256" xmlns="http://www.w3.org/2000/svg">
  <path transform="scale(1, -1) translate(0, -256)" fill="currentColor" d="M110 132q0 8 -3.5 14.5t-9.5 11.5q5 2 8 7t3 10v22q0 8 -5.5 13.5t-13.5 5.5h-4v28q0 3 -2 5t-5 2t-5 -2t-2 -5v-28h-3q-8 0 -14 -6t-6 -14v-21q0 -6 3 -10.5t8 -6.5q-6 -5 -9.5 -11.5t-3.5 -15t4.5 -15.5t11.5 -11q-6 -2 -10 -7t-4 -11v-22q0 -8 6 -13.5t14 -5.5h3v-34 q0 -3 2 -5t5 -2t5.5 2t2.5 5v35h4q7 0 13 5.5t6 13.5v22q0 6 -4 11t-9 7q6 4 10 11t4 15zM62 197q0 2 1.5 3.5t4.5 1.5h21q2 0 3.5 -1.5t1.5 -3.5v-22q0 -2 -1.5 -3.5t-3.5 -1.5h-21q-2 0 -4 1.5t-2 3.5v22zM94 66q0 -2 -1.5 -4t-3.5 -2h-21q-2 0 -4 2t-2 4v21q0 2 1.5 3.5 t4.5 1.5h21q2 0 3.5 -1.5t1.5 -3.5v-21zM78 115q-7 0 -12.5 5t-5.5 12.5t5.5 13t13 5.5t12.5 -5.5t5 -13t-5 -12.5t-13 -5zM194 105q7 4 11.5 11.5t4.5 15.5t-3.5 14.5t-9.5 11.5q5 2 8 7t3 10v22q0 8 -6 13.5t-14 5.5h-4v28q0 3 -2 5t-5 2t-5 -2t-2 -5v-28h-3 q-8 0 -13.5 -6t-5.5 -14v-21q0 -6 2.5 -10.5t7.5 -6.5q-5 -5 -8.5 -11.5t-3.5 -15t4 -15.5t11 -11q-6 -2 -9.5 -7t-3.5 -11v-22q0 -8 5.5 -13.5t13.5 -5.5h3v-34q0 -3 2.5 -5t5.5 -2t5 2t2 5v35h4q8 0 13.5 5.5t5.5 13.5v22q0 6 -4 10.5t-10 6.5zM162 197q0 2 1.5 3.5 t3.5 1.5h22q2 0 3.5 -1.5t1.5 -3.5v-22q0 -2 -1.5 -3.5t-3.5 -1.5h-22q-2 0 -3.5 1.5t-1.5 3.5v22zM178 150q7 0 12.5 -5t5.5 -12.5t-5.5 -13t-13 -5.5t-12.5 5.5t-5 13t5 12.5t13 5zM194 66q0 -3 -2 -4.5t-4 -1.5h-21q-2 0 -3.5 1.5t-1.5 4.5v21q0 2 1.5 3.5t3.5 1.5h22 q2 0 3.5 -1.5t1.5 -3.5v-21z" />
</svg>