<svg viewBox="0 0 256 256" xmlns="http://www.w3.org/2000/svg">
  <path transform="scale(1, -1) translate(0, -256)" fill="currentColor" d="M237 211l-40 37h-1q-4 3 -8 3h-143q-12 0 -20.5 -8.5t-8.5 -20.5v-187q0 -12 8.5 -20.5t20.5 -8.5h167q12 0 20.5 8.5t8.5 20.5v167q-1 5 -4 9zM163 237v-28h-91v28h91zM82 19v81h92v-81h-92zM226 34q0 -6 -4.5 -10.5t-10.5 -4.5h-23v83q0 5 -4 8.5t-9 3.5h-95 q-5 0 -8.5 -3.5t-3.5 -8.5v-83h-24q-6 0 -10.5 4.5t-4.5 10.5v188q0 6 4.5 10.5t10.5 4.5h13v-30q0 -5 3.5 -9t9.5 -4h95q5 0 8.5 4t3.5 9v30h11l38 -36v-167zM149 82h-42q-3 0 -5 -2t-2 -5t2 -5t5 -2h42q3 0 5 2t2 5t-2 5t-5 2zM149 51h-42q-3 0 -5 -2t-2 -5t2 -5.5t5 -2.5 h42q3 0 5 2.5t2 5.5t-2 5t-5 2z" />
</svg>