<svg viewBox="0 0 256 256" xmlns="http://www.w3.org/2000/svg">
  <path transform="scale(1, -1) translate(0, -256)" fill="currentColor" d="M230 251h-164q-4 0 -8 -3l-41 -38q-4 -4 -4 -9v-177q0 -8 6 -13.5t13 -5.5h192q8 0 13.5 5.5t5.5 13.5v215q0 5 -3.5 8.5t-9.5 3.5zM92 237h94v-36h-94v36zM229 24q0 -2 -1.5 -3.5t-3.5 -1.5h-192q-2 0 -3.5 1.5t-1.5 3.5v176l39 37h12v-43q0 -3 2 -5t5 -2h108q3 0 5 2 t2 5v43h29v-213zM134 165q-16 0 -28.5 -7.5t-20 -20.5t-7.5 -28t7.5 -27.5t20 -20t28 -7.5t28 7.5t20 20t7.5 27.5t-7.5 28t-20 20.5t-27.5 7.5zM134 68q-17 0 -29.5 12t-12.5 29t12.5 29.5t29.5 12.5t29 -12.5t12 -29.5t-12 -29t-29 -12z" />
</svg>