<svg viewBox="0 0 1024 1024" xmlns="http://www.w3.org/2000/svg">
  <path transform="scale(1, -1) translate(0, -960)" fill="currentColor" d="M939 771l-161 149q-6 4 -12.5 6t-13.5 2h-573q-43 0 -74 -30.5t-31 -75.5v-748q0 -44 30.5 -75t74.5 -31h666q43 0 74 30.5t31 75.5v670q0 7 -3 14t-8 13zM666 896v-131q0 -3 -1.5 -4t-3.5 -1h-381q-2 0 -3.5 1t-1.5 4v131h391zM317 0v342q0 3 1 4t4 1h380q3 0 4 -1t1 -4 v-342h-390v0zM918 74q0 -30 -21.5 -52t-51.5 -22h-106v342q0 16 -10.5 26.5t-26.5 10.5h-380q-16 0 -26.5 -10.5t-10.5 -26.5v-342h-106q-30 0 -51.5 22t-21.5 52v748q0 30 21.5 52t51.5 22h64v-131q0 -16 10.5 -26.5t26.5 -10.5h381q15 0 26 10.5t11 26.5v131h54h2.5 t2.5 -2l158 -145q1 -1 1.5 -2t0.5 -3v-670h1zM597 253h-170q-7 0 -11.5 -4.5t-4.5 -11.5t4.5 -11.5t11.5 -4.5h170q7 0 11.5 4.5t4.5 11.5t-5 11.5t-11 4.5zM597 126h-170q-7 0 -11.5 -4t-4.5 -12q0 -7 4.5 -11.5t11.5 -4.5h170q7 0 11.5 4.5t4.5 11.5q0 8 -5 12t-11 4z" />
</svg>