<svg viewBox="0 0 1024 1024" xmlns="http://www.w3.org/2000/svg">
  <path transform="scale(1, -1) translate(0, -960)" fill="currentColor" d="M922 928h-656q-8 0 -14 -2t-12 -6l-165 -152q-6 -6 -8.5 -12.5t-2.5 -14.5v-707q0 -28 19 -47t45 -19h768q26 0 46 19t20 47v857q-2 16 -13 26.5t-27 10.5v0zM355 896h400v-168h-400v168v0zM928 34q0 -14 -9.5 -24t-24.5 -10h-766q-13 0 -22.5 9.5t-9.5 24.5v707v2.5 t2 2.5l163 150h2h3h57v-184q0 -7 4.5 -11.5t11.5 -4.5h432q7 0 11.5 4.5t4.5 11.5v184h135q2 0 4 -1t2 -4v-857v0zM534 582q-43 0 -82 -16q-38 -17 -67 -45.5t-45 -66.5q-17 -38 -17 -81t17 -82q16 -38 45 -66.5t67 -44.5q39 -17 82 -17q44 0 83 17q38 16 66.5 44.5 t45.5 66.5q17 39 17 82t-17 81t-46 66.5t-67 45.5q-38 16 -82 16v0zM534 195q-74 0 -126.5 52.5t-52.5 125.5t52.5 125t126.5 52q75 0 127.5 -52t52.5 -125q-2 -73 -54 -125.5t-126 -52.5v0z" />
</svg>