<svg viewBox="0 0 256 256" xmlns="http://www.w3.org/2000/svg">
  <path transform="scale(1, -1) translate(0, -256)" fill="currentColor" d="M246 164q-3 0 -5.5 -1t-3.5 -4q-3 -11 -6 -13q-2 1 -5 1q-8 28 -36.5 46.5t-64.5 18.5q-16 0 -29 -4h-2l-1 1q-8 10 -23 15q-4 2 -16 3l-12 1q-3 0 -5 -3t-2 -6l12 -39l-15 -22l-22 -6q-2 0 -3.5 -2t-1.5 -4v-40q0 -3 1.5 -5t3.5 -2l22 -7q10 -19 28 -32l2 -1l-3 -23 q-1 -2 1 -5t6 -3h35q3 0 5 3l8 10l42 3l8 -13q2 -3 6 -3h35q4 0 6 2.5t1 5.5l-5 37l1 1q22 23 22 52l-1 5h6q10 3 16 23q1 3 -0.5 6t-4.5 4zM197 83l-3 -3q-2 -2 -2 -6l5 -32h-23l-9 14q-3 3 -7 3l-49 -4q-3 0 -5 -3l-7 -10h-23l2 19q1 4 -3 7l-5 3q-16 11 -24 28l-2 3 q-1 3 -4 4l-19 6v29l19 5q2 1 4 3l19 27q2 3 1 6l-10 32q10 -1 14 -2q11 -4 16 -10l3 -6q3 -3 7 -2l6 1q14 3 26 3q25 0 45.5 -9.5t33 -26t12.5 -35.5q0 -25 -18 -44z" />
</svg>