<svg viewBox="0 0 256 256" xmlns="http://www.w3.org/2000/svg">
  <path transform="scale(1, -1) translate(0, -256)" fill="currentColor" d="M196 162h-5v20q0 8 -5.5 13.5t-13.5 5.5h-8q3 8 3 14q0 15 -10.5 25.5t-25.5 10.5t-26 -10.5t-11 -25.5q0 -8 3 -14h-12q-8 0 -13.5 -5.5t-5.5 -13.5v-20h-6q-8 0 -13.5 -6t-5.5 -14v-118q0 -8 5.5 -13.5t13.5 -5.5h136q8 0 13.5 5.5t5.5 13.5v119q0 8 -5.5 13.5 t-13.5 5.5zM108 214q0 10 7 16.5t16 6.5t15.5 -6.5t6.5 -15t-5 -14.5h-35q-5 6 -5 13zM79 182q0 2 1.5 3.5t3.5 1.5h88q2 0 3.5 -1.5t1.5 -3.5v-20h-98v20zM201 24q0 -2 -1.5 -3.5t-3.5 -1.5h-136q-2 0 -3.5 1.5t-1.5 3.5v119q0 2 1.5 3.5t3.5 1.5h136q2 0 3.5 -1.5 t1.5 -3.5v-119z" />
</svg>