<svg viewBox="0 0 1024 1024" xmlns="http://www.w3.org/2000/svg">
  <path transform="scale(1, -1) translate(0, -960)" fill="currentColor" d="M976 760q-7 0 -11.5 -4.5t-4.5 -11.5v-195h-896v195q0 7 -4.5 11.5t-11.5 4.5t-11.5 -4.5t-4.5 -11.5v-590q0 -8 4.5 -12t11.5 -4t11.5 4t4.5 12v132l66 -60q4 -4 10.5 -4t9.5 4l82 75l82 -75q4 -4 10.5 -4t9.5 4l82 75l82 -75q2 -3 4.5 -4t6.5 -1q2 0 5.5 1t5.5 4l82 75 l81 -75q5 -4 11 -4t10 4l82 75l81 -75q5 -4 11 -4t10 4l66 60v-132q0 -8 4 -12t12 -4q7 0 11.5 4t4.5 12v590q4 6 0.5 11t-10.5 5v0zM883 259l-83 74q-5 3 -11 3t-10 -3l-81 -75l-82 75q-5 3 -11 3t-10 -3l-83 -74l-82 75q-4 4 -10.5 4t-9.5 -4l-82 -75l-82 75q-4 4 -10.5 4 t-9.5 -4l-82 -75l-80 69v189h896v-187z" />
</svg>