<svg viewBox="0 0 1024 1024" xmlns="http://www.w3.org/2000/svg">
  <path transform="scale(1, -1) translate(0, -960)" fill="currentColor" d="M902 506h-459v67q0 24 -16.5 40.5t-40.5 16.5h-170q-24 0 -41 -16.5t-17 -40.5q0 -28 -20 -47.5t-48 -19.5h-42q-7 0 -11.5 -4.5t-4.5 -11.5v-208q0 -8 4.5 -12t11.5 -4h854q38 0 64 26t26 63v63q0 36 -26 62t-64 26zM64 474h26q42 0 71 29t29 70q0 11 7.5 18t18.5 7h168 q11 0 18.5 -7t7.5 -18v-275h-346v176zM960 354q0 -24 -17 -41t-41 -17h-459v176h459q24 0 41 -17t17 -41v-60z" />
</svg>