<svg viewBox="0 0 256 256" xmlns="http://www.w3.org/2000/svg">
  <path transform="scale(1, -1) translate(0, -256)" fill="currentColor" d="M244 209q-3 0 -5 -2t-2 -5v-46h-218v46q0 3 -2 5t-5 2t-5 -2t-2 -5v-148q0 -3 2 -5t5 -2t5 2t2 5v27l12 -11q2 -1 4.5 -1t4.5 1l19 17l18 -17q2 -1 5 -1t5 1l18 17l19 -17q2 -2 4.5 -2t4.5 2l19 17l18 -17q2 -1 4.5 -1t5.5 1l18 17l18 -17q3 -1 5.5 -1t4.5 1l12 11v-27 q0 -3 2 -5t5 -2t5 2t2 5v148q-1 3 -3 5t-5 2zM221 85l-19 17q-2 1 -4.5 1t-4.5 -1l-19 -17l-18 17q-2 1 -5 1t-5 -1l-18 -17l-18 17q-2 1 -5 1t-5 -1l-18 -17l-19 17q-2 1 -4.5 1t-4.5 -1l-19 -17l-16 15v42h218v-43z" />
</svg>