<svg viewBox="0 0 256 256" xmlns="http://www.w3.org/2000/svg">
  <path transform="scale(1, -1) translate(0, -256)" fill="currentColor" d="M193 251h-130q-12 0 -20.5 -8.5t-8.5 -20.5v-188q0 -12 8.5 -20.5t20.5 -8.5h130q12 0 20.5 8.5t8.5 20.5v188q0 12 -8.5 20.5t-20.5 8.5zM208 34q0 -6 -4.5 -10.5t-10.5 -4.5h-130q-6 0 -10.5 4.5t-4.5 10.5v188q0 6 4.5 10.5t10.5 4.5h130q6 0 10.5 -4.5t4.5 -10.5 v-188zM128 217q-16 0 -30 -8t-22 -21.5t-8 -29.5l1 -9l5 -4h108l5 5v8q0 16 -8 29.5t-21.5 21.5t-29.5 8zM138 159l10 16q1 3 0.5 5.5t-3 4t-5.5 1t-4 -3.5l-14 -23h-39q0 19 13.5 31.5t32 12.5t31.5 -13t14 -31h-36zM166 129h-76q-8 0 -14 -5.5t-6 -13.5v-52q0 -7 6 -13 t14 -6h77q8 0 13.5 5.5t5.5 13.5v52q0 8 -6 13.5t-14 5.5zM172 59q0 -2 -1.5 -3.5t-4.5 -1.5h-76q-2 0 -4 1.5t-2 3.5v51q0 3 1.5 4.5t4.5 1.5h77q2 0 3.5 -1.5t1.5 -4.5v-51z" />
</svg>