<svg viewBox="0 0 1024 1024" xmlns="http://www.w3.org/2000/svg">
  <path transform="scale(1, -1) translate(0, -960)" fill="currentColor" d="M912 464h-203v384q0 34 -23.5 57t-56.5 23h-517q-34 0 -57 -23t-23 -57v-517q0 -33 23 -56.5t57 -23.5h384v-203q0 -34 23 -57t57 -23h336q34 0 57 23t23 57v336q0 34 -23 57t-57 23zM112 283q-20 0 -34 14t-14 34v517q0 20 14 34t34 14h517q20 0 34 -14t14 -34v-384 h-101q-34 0 -57 -23t-23 -57v-101h-384zM677 432v-101q0 -20 -14 -34t-34 -14h-101v101q0 20 14 34t34 14h101zM960 48q0 -20 -14 -34t-34 -14h-336q-20 0 -34 14t-14 34v203h101q33 0 56.5 23.5t23.5 56.5v101h203q20 0 34 -14t14 -34v-336z" />
</svg>