<svg viewBox="0 0 1024 1024" xmlns="http://www.w3.org/2000/svg">
  <path transform="scale(1, -1) translate(0, -960)" fill="currentColor" d="M928 928h-832q-26 0 -45 -19t-19 -45v-832q0 -26 19 -45t45 -19h832q26 0 45 19t19 45v832q0 26 -19 45t-45 19zM960 32q0 -13 -9.5 -22.5t-22.5 -9.5h-832q-13 0 -22.5 9.5t-9.5 22.5v832q0 13 9.5 22.5t22.5 9.5h304q-59 -30 -95 -87.5t-36 -128.5q0 -50 19 -95 q19 -44 52 -77t77 -52q45 -19 95 -19t95 19q44 19 77 52t52 77q19 45 19 95q0 71 -36 128.5t-95 87.5h304q13 0 22.5 -9.5t9.5 -22.5v-832zM512 891q44 0 82 -16q39 -17 67.5 -45.5t45.5 -67.5q16 -38 16 -82t-16 -82q-17 -39 -45.5 -67.5t-67.5 -45.5q-38 -16 -82 -16 t-82 16q-39 17 -67.5 45.5t-45.5 67.5q-16 38 -16 82t16 82q17 39 45.5 67.5t67.5 45.5q38 16 82 16zM512 638q7 0 11.5 4.5t4.5 11.5v103q0 7 -4.5 11.5t-11.5 4.5t-11.5 -4.5t-4.5 -11.5v-103q0 -7 4.5 -11.5t11.5 -4.5z" />
</svg>