<svg viewBox="0 0 1024 1024" xmlns="http://www.w3.org/2000/svg">
  <path transform="scale(1, -1) translate(0, -960)" fill="currentColor" d="M771 928h-518q-43 0 -73.5 -30.5t-30.5 -73.5v-750q0 -44 30.5 -74t73.5 -30h518q43 0 73.5 30t30.5 74v750q1 43 -30 73.5t-74 30.5zM845 72q0 -30 -21 -51t-51 -21h-520q-30 0 -51 21t-21 51v752q0 30 21 51t51 21h518q30 0 51 -21t21 -51v-752h2zM512 792 q-47 0 -88 -18q-41 -17 -71.5 -48t-48.5 -72t-18 -88q0 -6 0.5 -11t1.5 -11v0v0v0v0v-1v-1v-1v-2v-1.5v-1.5t1 -1.5t1 -1.5l0.5 -1l0.5 -1q1 -1 1.5 -1h1.5l1 -1l1 -1q1 0 2.5 -1t3.5 -1h418q1 0 3 0.5t3 1.5h1t1 2q1 0 1.5 0.5t1.5 0.5l1 1l1 1q0 1 0.5 1.5t0.5 1.5v1v2 v1.5v1.5q0 6 1 12t1 12q1 47 -17 88q-17 41 -47.5 72t-71.5 48q-41 18 -88 18v0zM706 560h-176l49 83q4 6 2 12.5t-7 10.5q-6 3 -12 1.5t-10 -6.5l-59 -101h-175v3v3q0 41 16 76q15 35 41 61.5t62 41.5q35 15 75 15t75 -15q36 -15 62 -41.5t41 -61.5q16 -35 16 -76v-2.5 v-3.5v0zM666 442h-308q-26 0 -45 -19t-19 -45v-207q0 -26 19 -45t45 -19h309q27 0 45.5 19t18.5 45v207q-1 26 -20 45t-45 19zM698 171q0 -13 -9.5 -22.5t-22.5 -9.5h-308q-13 0 -22.5 9.5t-9.5 22.5v207q0 13 9.5 22.5t22.5 9.5h309q13 0 22.5 -9.5t9.5 -22.5v-207h-1z" />
</svg>