<svg viewBox="0 0 1024 1024" xmlns="http://www.w3.org/2000/svg">
  <path transform="scale(1, -1) translate(0, -960)" fill="currentColor" d="M939 870q-23 20 -51.5 29t-58.5 7q-30 -3 -56.5 -17.5t-46.5 -37.5l-344 -429l-345 -384q-4 -3 -4.5 -6.5t-0.5 -7.5t3 -7t7 -4q2 -1 36.5 -12t84.5 -11q28 0 58.5 6t61.5 22q55 27 93 81t59 133l507 411q26 22 39 51.5t13 62.5q-2 33 -16 63t-39 50v0zM267 46 q-55 -27 -109 -23t-83 12l248 275l77 -73q-18 -71 -51.5 -119.5t-81.5 -71.5v0zM421 262l-75 71l49 56l83 -80zM920 669l-418 -339l-86 83l334 417q15 20 35.5 30.5t44.5 13.5q24 2 46.5 -5t40.5 -23q20 -16 31.5 -39.5t11.5 -49.5q0 -27 -10.5 -50t-29.5 -38v0z" />
</svg>