<svg viewBox="0 0 256 256" xmlns="http://www.w3.org/2000/svg">
  <path transform="scale(1, -1) translate(0, -256)" fill="currentColor" d="M232 251h-208q-8 0 -13.5 -5.5t-5.5 -13.5v-208q0 -8 5.5 -13.5t13.5 -5.5h208q8 0 14 5.5t6 13.5v208q-1 8 -6.5 13.5t-13.5 5.5zM178 186q0 -21 -14.5 -35.5t-35.5 -14.5t-35.5 14.5t-14.5 35.5t14.5 35.5t35.5 14.5t35.5 -14.5t14.5 -35.5zM237 24q0 -2 -1.5 -3.5 t-3.5 -1.5h-208q-2 0 -3.5 1.5t-1.5 3.5v208q0 2 1.5 3.5t3.5 1.5h66q-12 -9 -19 -22.5t-7 -29.5t8.5 -31t23.5 -23.5t32 -8.5t32 8.5t23.5 23.5t8.5 31t-7 29.5t-19 22.5h66q2 0 3.5 -1.5t1.5 -3.5v-208zM128 172q3 0 5 2.5t2 5.5v25q0 3 -2 5t-5 2t-5 -2t-2 -5v-25 q0 -3 2 -5.5t5 -2.5z" />
</svg>