<svg viewBox="0 0 1024 1024" xmlns="http://www.w3.org/2000/svg">
  <path transform="scale(1, -1) translate(0, -960)" fill="currentColor" d="M48 702q7 0 11.5 4.5t4.5 11.5v140q0 12 8.5 20t20.5 8h137q8 0 12 4.5t4 11.5q0 8 -4 12t-12 4h-137q-25 -1 -43 -18t-18 -42v-140q0 -7 4.5 -11.5t11.5 -4.5v0zM931 917h-137q-8 0 -12 -4.5t-4 -11.5t4 -11.5t12 -4.5h137q12 0 20.5 -8.5t8.5 -20.5v-139 q0 -7 4.5 -11.5t11.5 -4.5t11.5 4.5t4.5 11.5v141q0 25 -18 42t-43 17v0zM976 194q-7 0 -11.5 -4.5t-4.5 -11.5v-140q0 -12 -8.5 -20t-20.5 -8h-137q-8 0 -12 -4.5t-4 -11.5q0 -8 4 -12t12 -4h137q25 0 43 17.5t18 42.5v140q0 7 -4.5 11.5t-11.5 4.5v0zM230 11h-137 q-12 0 -20.5 8.5t-8.5 20.5v139q0 7 -4.5 11.5t-11.5 4.5t-11.5 -4.5t-4.5 -11.5v-139q0 -25 18 -43t43 -18h137q8 0 12 4.5t4 11.5t-5 11.5t-11 4.5zM818 448q0 7 -3 14t-9 13q-16 16 -45 41q-29 24 -67 46.5t-85 38.5q-46 17 -97 17q-52 0 -98 -17q-47 -16 -85.5 -38.5 t-66.5 -46.5q-29 -25 -44 -41q-6 -5 -9 -12t-3 -15t3 -14.5t9 -12.5q16 -16 45 -41q29 -24 67 -46.5t85 -38.5q46 -17 97 -17q52 0 98 17q47 16 85.5 38.5t66.5 46.5q29 25 44 41q6 6 9 13t3 14v0zM784 443q-15 -15 -42 -37q-27 -23 -62.5 -44t-77.5 -36q-43 -16 -90 -16 t-90 16q-42 15 -77.5 36t-62.5 44q-27 22 -42 37q-1 1 -1.5 2.5t-0.5 2.5t0.5 2.5t1.5 2.5q15 15 42 37q27 23 62.5 44t77.5 36q43 16 90 16t90 -16q42 -15 77.5 -36t62.5 -44q27 -22 42 -37q1 -1 1.5 -2.5t0.5 -2.5t-0.5 -2.5t-1.5 -2.5zM512 506q-24 0 -41 -17t-17 -41 t17 -41t41 -17t41 17t17 41t-17 41t-41 17z" />
</svg>