<svg viewBox="0 0 256 256" xmlns="http://www.w3.org/2000/svg">
  <path transform="scale(1, -1) translate(0, -256)" fill="currentColor" d="M12 188q3 0 5 2.5t2 5.5v34q0 2 1.5 3t2.5 1h35q3 0 5 2.5t2 5.5t-2 5t-5 2h-35q-7 0 -12.5 -5.5t-5.5 -12.5v-35q0 -3 2 -5.5t5 -2.5zM233 248h-35q-3 0 -5 -2t-2 -5t2 -5t5 -2h35q2 0 3 -1t1 -3v-35q0 -3 2 -5t5 -2t5 2t2 5v35q0 8 -5.5 13t-12.5 5zM244 68 q-3 0 -5 -2.5t-2 -5.5v-34q0 -2 -1.5 -3t-2.5 -1h-35q-3 0 -5 -2.5t-2 -5.5t2 -5t5 -2h35q7 0 12.5 5.5t5.5 12.5v35q0 3 -2 5.5t-5 2.5zM58 22h-35q-2 0 -3 1t-1 3v34q0 3 -2 5.5t-5 2.5t-5 -2.5t-2 -5.5v-34q0 -8 5 -13t13 -5h34q3 0 5 2t2 5t-2 5t-4 2zM208 128q0 5 -4 9 q-14 13 -29 22q-24 14 -47 14t-47 -14q-15 -9 -29 -22q-4 -4 -4 -9t4 -9q14 -13 29 -22q24 -14 47 -14t47 14q15 9 29 22q4 4 4 9zM128 97q-19 0 -39 12q-14 7 -26 19q12 11 26 19q20 12 39 12t39 -12q14 -7 26 -19q-12 -11 -26 -19q-20 -12 -39 -12zM114 128q0 -6 4 -10 t10 -4t10 4t4 10t-4 10t-10 4t-10 -4t-4 -10z" />
</svg>