<svg viewBox="0 0 1024 1024" xmlns="http://www.w3.org/2000/svg">
  <path transform="scale(1, -1) translate(0, -960)" fill="currentColor" d="M928 747h-128v112q0 7 -4.5 11.5t-11.5 4.5t-11.5 -4.5t-4.5 -11.5v-110h-512v110q0 7 -4.5 11.5t-11.5 4.5t-11.5 -4.5t-4.5 -11.5v-110h-128q-26 0 -45 -19t-19 -45v-599q0 -26 19 -45t45 -19h832q26 0 45 19t19 45v597q0 27 -19 45.5t-45 18.5v0zM96 715h832 q13 0 22.5 -9.5t9.5 -22.5v-144h-896v144q0 13 9.5 22.5t22.5 9.5zM928 53h-832q-13 0 -22.5 9.5t-9.5 22.5v422h896v-422q0 -13 -9.5 -22.5t-22.5 -9.5zM528 371q-5 3 -9.5 2t-8.5 -5l-49 -50q-5 -4 -5 -10.5t5 -11.5t11 -5t11 5l23 22v-107q0 -7 4 -11.5t12 -4.5 q7 0 11.5 4.5t4.5 11.5v146q0 5 -2.5 8.5t-7.5 5.5v0z" />
</svg>