<svg viewBox="0 0 256 256" xmlns="http://www.w3.org/2000/svg">
  <path transform="scale(1, -1) translate(0, -256)" fill="currentColor" d="M244 189q-3 0 -5 -2t-2 -5v-35h-67q-7 0 -12.5 -5.5t-5.5 -12.5v-21q0 -5 3 -9.5t8 -6.5v-37q0 -3 2 -5t5 -2t5 2t2 5v35h60v-35q0 -3 2 -5t5 -2t5.5 2t2.5 5v127q-1 3 -3 5t-5 2zM167 130q0 1 1 2t2 1h67v-28h-67q-1 0 -2.5 1t-1.5 3v21h1zM122 180l-96 27 q-8 2 -14.5 -3t-6.5 -14v-21q0 -6 3.5 -10.5t9.5 -6.5l8 -2v-94q0 -3 2.5 -5.5t5.5 -2.5t5 2.5t2 5.5v90l60 -16v-74q0 -3 2 -5.5t5 -2.5t5 2.5t2 5.5v70h5q5 0 10 3q6 5 6 14v21q-1 6 -4.5 10.5t-9.5 5.5zM121 143q0 -2 -1 -3l-2 -1l-97 27q-2 1 -2 4v20q0 2 1 3l2 1 l97 -27q2 0 2 -3v-21z" />
</svg>