<svg viewBox="0 0 256 256" xmlns="http://www.w3.org/2000/svg">
  <path transform="scale(1, -1) translate(0, -256)" fill="currentColor" d="M57 103q-6 0 -9.5 -4t-3.5 -9t3.5 -9t9 -4t9.5 4t4 9t-4 9t-9 4zM199 103q-5 0 -9 -4t-4 -9t4 -9t9.5 -4t9 4t3.5 9t-3.5 9t-9.5 4zM244 222q-3 0 -5 -2.5t-2 -5.5v-32q0 -5 -5 -8l-13 -5v45q0 7 -4 13t-11 9q-45 17 -94 13q-32 -3 -59 -13q-7 -3 -11 -8.5t-4 -12.5v-45 l-12 5q-5 2 -5 8v32q0 3 -2 5t-5 2t-5.5 -2t-2.5 -5v-32q0 -7 4 -12.5t10 -8.5l18 -7v-4q-8 -3 -13.5 -10t-5.5 -16v-95q0 -10 6.5 -16.5t16.5 -6.5h21q9 0 16 6.5t7 16.5v17h86v-17q0 -10 7 -16.5t16 -6.5h21q10 0 16.5 6.5t6.5 16.5v94q0 9 -5.5 16t-13.5 10v4l18 8 q6 3 10 8.5t4 12.5v32q1 3 -1 5t-5 2zM135 152v42h70v-42h-70zM50 194h71v-42h-71v42zM56 223q26 9 55 12q46 3 89 -12q2 -1 3.5 -3.5t1.5 -4.5v-6h-155v6q0 2 2 4.5t4 3.5zM70 29q0 -3 -2.5 -5.5t-5.5 -2.5h-22q-3 0 -5.5 2.5t-2.5 5.5v18h38v-18zM158 61h-60v13 q0 4 2.5 6.5t5.5 2.5h44q3 0 5.5 -2.5t2.5 -6.5v-13zM224 29q0 -3 -2.5 -5.5t-5.5 -2.5h-22q-4 0 -6 2.5t-2 5.5v18h38v-18zM224 124v-64h-52v14q0 9 -6.5 15.5t-15.5 6.5h-44q-9 0 -15.5 -6.5t-6.5 -15.5v-14h-52v64q0 6 4 10t9 4h166q5 0 9 -4t4 -10z" />
</svg>