<svg viewBox="0 0 1024 1024" xmlns="http://www.w3.org/2000/svg">
  <path transform="scale(1, -1) translate(0, -960)" fill="currentColor" d="M976 682q-7 0 -11.5 -4.5t-4.5 -11.5v-154h-280q-24 0 -41 -17t-17 -41v-84q0 -21 12 -35.5t30 -20.5v-156q0 -7 4.5 -11.5t11.5 -4.5t11.5 4.5t4.5 11.5v152h264v-152q0 -7 4.5 -11.5t11.5 -4.5t11.5 4.5t4.5 11.5v508q0 6 -4.5 11t-11.5 5v0zM654 370v84q0 11 7.5 18.5 t18.5 7.5h280v-136h-280q-11 0 -18.5 7.5t-7.5 18.5zM486 646l-385 106q-12 4 -23.5 1.5t-21.5 -11.5q-11 -8 -16.5 -20.5t-5.5 -27.5v-81q0 -21 11.5 -36t29.5 -20l43 -11v-388q0 -7 4.5 -11.5t11.5 -4.5q8 0 12 4.5t4 11.5v378l261 -72v-306q0 -7 4.5 -11.5t11.5 -4.5 t11.5 4.5t4.5 11.5v298l16 -5q4 -1 7.5 -1h7.5q8 0 16 2.5t16 8.5q10 8 16 20.5t6 27.5v81q0 20 -12 36t-30 20zM496 507q0 -6 -2.5 -12.5t-7.5 -9.5q-2 -1 -6.5 -3.5t-10.5 0.5l-387 105q-9 3 -13.5 10t-4.5 16v81q0 6 2.5 12.5t7.5 10.5q2 2 6.5 3.5t10.5 -0.5l387 -106 q8 -2 13 -9t5 -16v-82v0z" />
</svg>