<svg viewBox="0 0 1024 1024" xmlns="http://www.w3.org/2000/svg">
  <path transform="scale(1, -1) translate(0, -960)" fill="currentColor" d="M227 363q-27 0 -47 -19.5t-20 -47.5t20 -47.5t47 -19.5q28 0 47.5 19.5t19.5 47.5t-19.5 47.5t-47.5 19.5zM227 259q-14 0 -24.5 10.5t-10.5 24.5q0 15 10.5 25.5t24.5 10.5q15 0 25 -10.5t10 -25.5q0 -14 -10 -24.5t-25 -10.5zM730 294q0 -27 19.5 -47t47.5 -20 q27 0 47 20t20 47q0 28 -20 48t-47 20q-28 1 -47.5 -19t-19.5 -49zM832 294q0 -14 -10.5 -24.5t-24.5 -10.5q-15 0 -25 10.5t-10 24.5q0 15 10 25.5t25 10.5q14 0 24.5 -10t10.5 -26zM976 811q-7 0 -11.5 -4.5t-4.5 -11.5v-128q0 -14 -8 -25.5t-21 -17.5l-67 -27v197 q0 24 -14 44.5t-37 28.5q-103 39 -197 48q-95 10 -174 3.5t-139 -22.5q-61 -16 -95 -29q-23 -8 -37 -28t-14 -45v-199l-64 29q-13 6 -21 17.5t-8 25.5v128q0 7 -4.5 11.5t-11.5 4.5t-11.5 -4.5t-4.5 -11.5v-128q0 -24 13 -43t35 -29l78 -32v-35q-32 -7 -53.5 -33t-21.5 -60 v-381q0 -32 23 -55t56 -23h86q32 0 55 23t23 55v82h372v-82q0 -32 23 -55t55 -23h86q33 0 56 23t23 55v380q0 34 -21.5 59.5t-53.5 32.5v34l80 34q21 9 34.5 28.5t13.5 43.5v128q-2 7 -6.5 12t-11.5 5v0zM528 530v196h304v-195h-304v-1zM190 726h306v-195h-306v195v0z M219 838q33 12 91 28q57 15 133.5 21t167.5 -3q92 -9 191 -46q13 -4 21.5 -16t8.5 -27v-37h-642v37q0 15 8 26t21 17v0zM294 53q0 -19 -13.5 -33t-32.5 -14h-86q-20 0 -33.5 14t-13.5 33v81h178v-81h1zM645 166h-266v68q0 19 13.5 32.5t33.5 13.5h174q19 0 32.5 -13.5 t13.5 -32.5v-68h-1zM907 53q0 -19 -13.5 -33t-32.5 -14h-87q-19 0 -32.5 14t-13.5 33v81h178v-81h1zM907 434v-268h-230v68q0 32 -23 55t-56 23h-172q-33 0 -56 -23t-23 -55v-68h-232v268q0 26 19 45t45 19h664q27 0 45.5 -19t18.5 -45v0z" />
</svg>