<svg viewBox="0 0 256 256" xmlns="http://www.w3.org/2000/svg">
  <path transform="scale(1, -1) translate(0, -256)" fill="currentColor" d="M202 230h-47q-2 9 -9.5 15t-17.5 6t-17.5 -6t-9.5 -15h-47q-3 0 -5 -2t-2 -5t2 -5t5 -2h40q-12 -6 -19 -17t-7 -24v-87q0 -15 9 -27t23 -16v-21q0 -8 5.5 -13.5t13.5 -5.5h18q8 0 13.5 5.5t5.5 13.5v22q14 4 23 16t9 26v88q0 13 -7 24t-19 16h40q3 0 5 2t2 5t-2 5t-5 2z M128 237q6 0 10 -4t4 -10t-4 -10t-10 -4t-10 4t-4 10t4 10t10 4zM142 24q0 -2 -1.5 -3.5t-3.5 -1.5h-18q-2 0 -3.5 1.5t-1.5 3.5v39q0 2 1.5 3.5t3.5 1.5h18q2 0 3.5 -1.5t1.5 -3.5v-39zM174 176v-88q0 -9 -5 -16.5t-13 -10.5v3q0 7 -5.5 13t-13.5 6h-18q-8 0 -13.5 -5.5 t-5.5 -13.5v-3q-8 3 -13 10.5t-5 16.5v88q0 10 6.5 18.5t17.5 11.5q8 -11 21.5 -11t22.5 11q10 -3 17 -11.5t7 -18.5z" />
</svg>