<svg viewBox="0 0 1024 1024" xmlns="http://www.w3.org/2000/svg">
  <path transform="scale(1, -1) translate(0, -960)" fill="currentColor" d="M976 464h-406v152q0 7 -4.5 11.5t-11.5 4.5h-85q-7 0 -11.5 -4.5t-4.5 -11.5q0 -29 -20 -49t-49 -20t-49 20t-20 49q0 7 -4.5 11.5t-11.5 4.5h-166q-42 0 -71.5 -29.5t-29.5 -71.5v-168q0 -42 29.5 -71.5t71.5 -29.5h168q7 0 11.5 4.5t4.5 11.5q0 29 20 49t49 20 q28 0 48 -20t20 -49q0 -7 4.5 -11.5t11.5 -4.5h85q7 0 11.5 4.5t4.5 11.5v154h405q7 0 11.5 4.5t4.5 11.5t-4.5 11.5t-11.5 4.5v0zM538 296h-55q-6 36 -34 60.5t-65 24.5t-65 -24.5t-34 -60.5h-152q-29 0 -49 20t-20 49v168q0 29 20 49t49 20h153q6 -36 34 -60.5t66 -24.5 q37 0 65 24.5t34 60.5h54v-306h-1z" />
</svg>