<svg viewBox="0 0 256 256" xmlns="http://www.w3.org/2000/svg">
  <path transform="scale(1, -1) translate(0, -256)" fill="currentColor" d="M224 191q0 13 -14 27.5t-36 23.5t-46 9t-46.5 -9t-36 -23.5t-13.5 -28t16 -25t42 -16.5v-103q0 -12 9 -21l17 -15q5 -5 12 -5t12 5l17 15q9 9 9 21v103q26 5 42 16.5t16 25.5zM104 96l48 16v-26l-48 -16v26zM152 127l-48 -16v35h48v-19zM147 36l-16 -16q-1 -1 -3 -1t-3 1 l-16 16q-5 4 -5 10v8l48 16v-24q0 -6 -5 -10zM128 160q-23 0 -41.5 4.5t-29.5 12t-11 15t11 18.5t29 19q20 8 42 8t42 -8q18 -7 29 -18t11 -19t-11 -15.5t-29.5 -12t-41.5 -4.5z" />
</svg>