<svg viewBox="0 0 1024 1024" xmlns="http://www.w3.org/2000/svg">
  <path transform="scale(1, -1) translate(0, -960)" fill="currentColor" d="M883 701q0 38 -30 78t-81.5 73t-118.5 55q-67 21 -141 21t-141 -21q-67 -22 -118.5 -55t-81.5 -73t-30 -78q0 -54 64 -96.5t166 -60.5v-422q0 -22 9 -41.5t25 -34.5l65 -62q9 -8 19.5 -12t22.5 -4t22 4t20 12l65 62q16 15 25 34.5t9 41.5v422q102 18 166 60.5t64 96.5v0z M405 328l216 72v-131l-216 -72v131v0zM621 434l-216 -72v169h216v-97zM597 69v0l-66 -63q-8 -7 -19 -7t-19 7l-66 63q-11 9 -16.5 23t-5.5 30v41l216 72v-113q0 -15 -6.5 -28.5t-17.5 -24.5zM512 563q-76 0 -139 12q-62 12 -106.5 31.5t-69.5 44.5q-24 25 -24 50q0 28 27 62 t73.5 63.5t107.5 49.5q62 20 131 20t131 -20q61 -20 107.5 -49.5t73.5 -63.5t27 -62q0 -25 -24 -49q-25 -25 -69.5 -44.5t-106.5 -32.5q-63 -12 -139 -12v0z" />
</svg>