<svg viewBox="0 0 256 256" xmlns="http://www.w3.org/2000/svg">
  <path transform="scale(1, -1) translate(0, -256)" fill="currentColor" d="M237 215q-10 15 -25.5 24.5t-33.5 11t-34.5 -4.5t-29.5 -19l-6 -5q-3 -4 -2.5 -9t3.5 -9l19 -19l-113 -107q-7 -6 -7 -15l-3 -31q-1 -11 7 -19t18 -8l32 3q6 1 10 3l6 5l107 113l19 -19q4 -4 9.5 -4t8.5 3l2 2q23 20 26.5 49.5t-13.5 54.5zM112 72l-18 62l28 25l16 -59z M30 19q-4 0 -7.5 3t-3.5 9l3 31q0 3 3 6l18 17l17 -63zM73 30l-19 66l29 27l17 -63zM149 112l-16 58l5 6l37 -37zM215 121l-1 -1l-94 94l4 4q10 10 24 15t29 3.5t27.5 -9t21.5 -19.5q14 -21 10.5 -45.5t-21.5 -41.5z" />
</svg>