<svg viewBox="0 0 1024 1024" xmlns="http://www.w3.org/2000/svg">
  <path transform="scale(1, -1) translate(0, -960)" fill="currentColor" d="M939 790q-39 59 -99 94t-128 42q-70 6 -134.5 -17t-113.5 -72q-5 -5 -9.5 -10.5t-9.5 -10.5q-10 -12 -9 -27t12 -26l86 -86l-198 -186v0v0l-160 -150v0v0l-106 -101q-12 -11 -19 -25t-8 -29l-11 -124q-1 -19 5 -36.5t21 -31.5q12 -12 28 -19t32 -7h4.5h3.5l124 11 q9 1 17.5 4t15.5 7q1 0 2.5 1t2.5 3q4 2 8 5.5t8 6.5l138 146q2 1 3.5 2.5t2.5 3.5l293 311l86 -87q6 -6 13 -8.5t14 -2.5q8 0 14 2.5t12 7.5q2 2 4.5 3.5t5.5 4.5q43 39 68 88q25 50 32 103.5t-6 107.5q-12 54 -45 102v0zM440 198l-77 276l128 121l74 -264l-125 -133v0z M246 11l-123 -11q-12 -1 -23.5 3.5t-19.5 12.5t-12.5 19.5t-3.5 23.5l11 123q1 10 5 19t11 17l87 81l80 -285q-3 -1 -6 -1.5t-6 -1.5v0zM286 34l-81 289l133 125l78 -277zM592 358l-74 261l37 35l162 -161zM867 413q-2 -3 -3.5 -4l-4.5 -3q-2 -2 -5 -1.5t-4 1.5l-381 380 q-3 2 -3 4.5t3 4.5q3 5 8 10l9 9q45 45 102.5 65.5t120.5 14.5q61 -6 115 -38t90 -83q28 -43 39 -92t5 -97t-29 -92t-62 -79v0z" />
</svg>