<svg viewBox="0 0 256 256" xmlns="http://www.w3.org/2000/svg">
  <path transform="scale(1, -1) translate(0, -256)" fill="currentColor" d="M244 135h-98v35q0 3 -2.5 5t-5.5 2h-21q-3 0 -5 -2t-2 -5q0 -6 -4 -10t-10 -4t-10 4t-4 10q0 3 -2 5t-5 2h-42q-11 0 -19.5 -8t-8.5 -20v-42q0 -11 8.5 -19.5t19.5 -8.5h42q3 0 5 2t2 5q0 6 4.5 10t10 4t9.5 -4t4 -10q0 -3 2.5 -5t5.5 -2h21q3 0 5 2t2 5v36h98q3 0 5 2 t2 5t-2 4.5t-5 1.5zM132 93h-8q-3 9 -10.5 15t-17 6t-17 -6t-10.5 -15h-36q-5 0 -9.5 4t-4.5 10v42q0 6 4 10t10 4h36q3 -9 10.5 -15t17 -6t17 6t10.5 15h8v-70z" />
</svg>