<svg viewBox="0 0 1024 1024" xmlns="http://www.w3.org/2000/svg">
  <path transform="scale(1, -1) translate(0, -960)" fill="currentColor" d="M512 605q-65 0 -111 -46t-46 -111t46 -111t111 -46t111 46t46 111t-46 111t-111 46v0zM512 323q-52 0 -88.5 36.5t-36.5 88.5t36.5 88.5t88.5 36.5t88.5 -36.5t36.5 -88.5t-36.5 -88.5t-88.5 -36.5v0zM187 611q5 5 4 12t-5 11q-5 3 -12 3t-11 -5l-112 -134 q-18 -22 -18 -50t18 -50l112 -134l6 -4t7 -2q2 0 5 1t5 2q4 5 5 11t-4 11l-112 135q-11 12 -11 28.5t11 28.5l112 136v0zM974 498l-112 134q-4 5 -10.5 5.5t-11.5 -3.5q-5 -5 -5.5 -11.5t3.5 -11.5l112 -134q11 -12 11 -29t-11 -29l-112 -134q-4 -5 -3.5 -12t5.5 -11 q2 -2 4.5 -2.5t5.5 -0.5t6.5 1.5t5.5 5.5l112 134q18 20 18 48t-18 50z" />
</svg>