<svg viewBox="0 0 256 256" xmlns="http://www.w3.org/2000/svg">
  <path transform="scale(1, -1) translate(0, -256)" fill="currentColor" d="M128 170q-17 0 -29.5 -12.5t-12.5 -29.5t12.5 -29.5t29.5 -12.5t29.5 12.5t12.5 29.5t-12.5 29.5t-29.5 12.5zM128 100q-12 0 -20 8t-8 20t8 20t20 8t20 -8t8 -20t-8 -20t-20 -8zM167 49l-34 -28q-2 -2 -5 -2t-6 2l-33 28q-2 2 -5 2t-5 -2.5t-2 -5t3 -5.5l33 -28 q6 -5 14.5 -5t14.5 5l34 28q2 2 2 5t-1.5 5.5t-4.5 2.5t-5 -2zM89 207l34 28q2 2 5 2t6 -2l33 -28q2 -2 5 -2t5 2.5t1.5 5t-2.5 5.5l-34 28q-6 5 -14 5t-14 -5l-34 -28q-2 -2 -2.5 -5t1.5 -5.5t5 -2.5t5 2z" />
</svg>