<svg viewBox="0 0 1024 1024" xmlns="http://www.w3.org/2000/svg">
  <path transform="scale(1, -1) translate(0, -960)" fill="currentColor" d="M355 448q0 -65 46 -111t111 -46t111 46t46 111t-46 111t-111 46t-111 -46t-46 -111v0zM637 448q0 -52 -36.5 -88.5t-88.5 -36.5t-88.5 36.5t-36.5 88.5t36.5 88.5t88.5 36.5t88.5 -36.5t36.5 -88.5v0zM675 123l-134 -112q-12 -11 -29 -11t-29 11l-134 112q-5 5 -12 4 t-11 -5q-4 -5 -3.5 -12t5.5 -11l134 -112q11 -9 24 -13t26 -4t26 4.5t24 12.5l134 112q5 5 5.5 11.5t-3.5 11.5q-5 4 -11.5 5t-11.5 -4v0zM349 773l134 112q12 11 29 11t29 -11l134 -112q3 -3 5 -3h5t6.5 1t6.5 5q4 5 3.5 12t-5.5 10l-134 112q-22 18 -50 18t-50 -18 l-134 -112q-5 -4 -5.5 -10.5t3.5 -11.5q5 -6 11.5 -7t11.5 4v0z" />
</svg>