<svg viewBox="0 0 256 256" xmlns="http://www.w3.org/2000/svg">
  <path transform="scale(1, -1) translate(0, -256)" fill="currentColor" d="M118 202q0 -4 3 -7t7 -3t7 3t3 7t-3 7t-7 3t-7 -3t-3 -7zM118 160q0 -5 3 -8t7 -3t7 3t3 7.5t-3 7.5t-7 3t-7 -3t-3 -7zM118 118q0 -5 3 -8t7 -3t7 3t3 7.5t-3 7.5t-7 3t-7 -3t-3 -7zM155 91l-27 -27l-27 26q-2 2 -5 2.5t-5 -2t-2 -5t2 -5.5l32 -31q2 -2 4.5 -2t4.5 2 l32 31q2 3 2 5.5t-1.5 4.5t-4.5 2.5t-5 -1.5zM170 251h-84q-16 0 -27.5 -11.5t-11.5 -27.5v-168q0 -17 11.5 -28.5t27.5 -11.5h84q16 0 27.5 11.5t11.5 28.5v168q0 16 -11.5 27.5t-27.5 11.5zM195 44q0 -10 -7.5 -17.5t-17.5 -7.5h-84q-10 0 -17.5 7.5t-7.5 17.5v168 q0 10 7.5 17.5t17.5 7.5h84q10 0 17.5 -7.5t7.5 -17.5v-168z" />
</svg>