<svg viewBox="0 0 256 256" xmlns="http://www.w3.org/2000/svg">
  <path transform="scale(1, -1) translate(0, -256)" fill="currentColor" d="M128 170q-17 0 -29.5 -12.5t-12.5 -29.5t12.5 -29.5t29.5 -12.5t29.5 12.5t12.5 29.5t-12.5 29.5t-29.5 12.5zM128 100q-12 0 -20 8t-8 20t8 20t20 8t20 -8t8 -20t-8 -20t-20 -8zM49 167q2 2 2 5t-2.5 5t-5 1.5t-5.5 -2.5l-28 -34q-5 -6 -5 -14t5 -14l28 -34q2 -2 5 -2 t5 1.5t2.5 4.5t-1.5 5l-28 34q-2 2 -2 5t2 6zM246 142l-28 34q-2 2 -5 2.5t-5.5 -1.5t-2.5 -5t2 -5l28 -34q2 -2 2 -5t-2 -6l-28 -33q-2 -2 -2 -5t2 -5t5 -2t5 3l28 33q6 7 6 15t-5 14z" />
</svg>