<svg viewBox="0 0 1024 1024" xmlns="http://www.w3.org/2000/svg">
  <path transform="scale(1, -1) translate(0, -960)" fill="currentColor" d="M554 744q0 -17 -12.5 -29.5t-29.5 -12.5t-29.5 12.5t-12.5 29.5t12.5 29.5t29.5 12.5t29.5 -12.5t12.5 -29.5zM554 574q0 -17 -12.5 -29t-29.5 -12t-29.5 12t-12.5 29q0 18 12.5 30t29.5 12t29.5 -12t12.5 -30zM554 406q0 -17 -12.5 -29t-29.5 -12t-29.5 12t-12.5 29 q0 18 12.5 30t29.5 12t29.5 -12t12.5 -30zM627 290l-115 -114l-115 114q-5 4 -11.5 4t-11.5 -4q-4 -5 -4 -11.5t4 -11.5l127 -125q2 -2 5.5 -3t5.5 -1t5.5 1t5.5 3l127 125q4 5 4 11.5t-4 11.5q-5 4 -11.5 4t-11.5 -4v0zM680 928h-336q-60 0 -102 -42t-42 -102v-672 q0 -60 42 -102t102 -42h334q60 0 102 42t42 102v672q2 60 -40.5 102t-101.5 42zM792 112q0 -47 -32.5 -79.5t-79.5 -32.5h-336q-47 0 -79.5 32.5t-32.5 79.5v672q0 47 32.5 79.5t79.5 32.5h334q47 0 79.5 -32.5t32.5 -79.5v-672h2z" />
</svg>