<svg viewBox="0 0 1024 1024" xmlns="http://www.w3.org/2000/svg">
  <path transform="scale(1, -1) translate(0, -960)" fill="currentColor" d="M944 659q-19 19 -84 64q-65 44 -149 89.5t-175 80.5q-90 35 -160 35q-79 0 -148.5 -21t-137.5 -88q-8 -7 -11.5 -15.5t-3.5 -17.5q0 -10 3.5 -18.5t11.5 -15.5q13 -13 32.5 -13t34.5 13q2 2 9.5 4t19.5 2q35 0 94 -22q58 -22 129 -62.5t148 -96.5t149 -124l-485 -458 q-5 -5 -5 -11t5 -11q2 -3 5.5 -4t5.5 -1t5.5 1t5.5 4l701 664q2 2 3.5 4.5t1.5 6.5q0 2 -1.5 5.5t-3.5 5.5v0zM728 477q-75 71 -155 128q-80 58 -153.5 99.5t-135.5 63.5t-100 22q-18 0 -31 -3.5t-20 -12.5q-5 -4 -11 -4t-10 4q-5 5 -5 11.5t5 9.5q54 55 114.5 78t149.5 23 q62 0 143 -30t159 -71t141 -83q64 -41 91 -64l-182 -171v0z" />
</svg>