<svg viewBox="0 0 256 256" xmlns="http://www.w3.org/2000/svg">
  <path transform="scale(1, -1) translate(0, -256)" fill="currentColor" d="M230 42h-5q-25 0 -47 11q-5 2 -7 3h-112q-32 1 -45 20q-5 7 -7 17t-2 24v2q1 6 5 9.5t10 3.5t9.5 -4.5t4 -10.5t6.5 -8q3 -2 8 -1.5t8 3.5q24 21 53 32q16 7 43 14l6 1q3 1 4 4l10 28q3 9 10 15t16.5 8t17.5 -1t14 -9l10 -3q5 -1 8 -5t3 -9v-3q0 -8 -4 -15.5t-11 -11.5 l-1 -39q-1 -20 -13 -36l16 -13q4 -3 5.5 -7.5t0 -9t-5.5 -7t-8 -2.5zM172 70q3 0 5 -1l7 -4q20 -9 41 -9h5v0l-2 2q-14 10 -21 18q-2 2 -1.5 5t2.5 5q13 13 13 32l2 42q0 4 4.5 6.5t7.5 7t3 10.5v3l-13 3q-2 1 -3 2q-4 5 -9.5 7t-11 1t-10 -5t-5.5 -9l-10 -28 q-4 -11 -15 -13l-5 -1q-26 -7 -42 -13q-26 -11 -48 -30q-7 -6 -15.5 -7t-15.5 2t-11 9t-4 13v1v0v-1q0 -24 6 -34q8 -13 34 -13l112 -1v0v0z" />
</svg>