<svg viewBox="0 0 1024 1024" xmlns="http://www.w3.org/2000/svg">
  <path transform="scale(1, -1) translate(0, -960)" fill="currentColor" d="M918 117h-19q-48 0 -94.5 10.5t-89.5 30.5q-13 6 -19.5 10t-9.5 6v0h-449q-64 2 -105.5 19t-65.5 52q-21 31 -27.5 70t-6.5 88v5v5q2 18 15.5 29.5t32.5 10.5q16 -1 29 -12.5t14 -34.5q0 -14 8 -26t23 -18q16 -8 38 -6.5t42 17.5q54 45 106 76q52 30 100 50t92 33 q44 12 81 22l21 4q9 3 16 9.5t11 14.5l40 114q12 32 38 54.5t59 28.5q34 6 65 -4.5t52 -35.5l43 -11q16 -4 25 -16t9 -27v-13q0 -32 -16 -60t-43 -44l-7 -160q-1 -41 -16 -78.5t-41 -68.5q15 -16 32 -29.5t33 -25.5l10 -6q12 -8 16.5 -22t-0.5 -28q-4 -16 -15.5 -24.5 t-26.5 -8.5v0zM690 206q3 0 6 -1t6 -3t8 -5.5t20 -9.5q39 -19 82 -28.5t87 -9.5h19q6 0 9 3.5t4 5.5q0 2 0.5 6.5t-5.5 8.5l-9 6q-21 16 -41.5 32.5t-38.5 38.5q-4 4 -4 10.5t4 9.5q26 28 41 63t16 75l7 168q0 5 2.5 8.5t6.5 5.5q23 11 36.5 33t13.5 47v13q0 5 -3 8.5 t-7 4.5l-48 13l-4 2t-4 3q-16 20 -40 28.5t-51 4.5q-26 -5 -45.5 -21t-27.5 -41l-42 -115q-6 -17 -19 -28.5t-31 -16.5l-20 -5q-38 -9 -80 -21q-42 -11 -87.5 -30.5t-95.5 -48.5q-49 -29 -101 -73q-22 -20 -54 -24.5t-59 8.5q-23 11 -36.5 30.5t-13.5 43.5q0 7 -3 11.5 t-8 4.5q-4 0 -8.5 -2t-5.5 -9v-3v-2q0 -45 5 -80t23 -61q20 -29 55 -42.5t89 -15.5h452q-2 0 -1 0h1z" />
</svg>