<svg viewBox="0 0 256 256" xmlns="http://www.w3.org/2000/svg">
  <path transform="scale(1, -1) translate(0, -256)" fill="currentColor" d="M249 25l-35 35q12 15 12 35q0 12 -4.5 22t-12.5 19l-3 2v34q0 4 -4 6l-93 56q-4 2 -7 0l-29 -17q0 11 -8 18.5t-19 7.5h-3q-11 0 -19 -8t-8 -19v-34l-7 -4q-3 -2 -3 -6v-91q0 -11 7.5 -19t19.5 -8h51q3 0 5 2t2 5v54h25q-3 -9 -3 -20t4 -21.5t13 -18.5q16 -17 40 -17 q20 0 35 12l35 -35q2 -2 5 -2t4.5 2t1.5 5t-2 5zM29 216q0 5 4 9t9 4h4q5 0 9 -4t4 -9v-8l-29 -18v26h-1zM83 129q-3 0 -5 -2t-2 -5v-54h-44q-5 0 -9 4t-4 9v87l86 52l87 -52v-21q-16 7 -33.5 4t-30.5 -15l-5 -7h-40zM138 65q-13 13 -13 30.5t12.5 30t30.5 12.5q15 0 26 -9 l5 -3q13 -13 13 -31t-12.5 -30.5t-30.5 -12.5t-31 13z" />
</svg>