<svg viewBox="0 0 256 256" xmlns="http://www.w3.org/2000/svg">
  <path transform="scale(1, -1) translate(0, -256)" fill="currentColor" d="M248 28l-70 57q14 19 18.5 42t-2.5 45.5t-24 39.5q-14 14 -31.5 21t-37 7t-37 -7t-31.5 -21q-18 -18 -24.5 -43t0 -50t24.5 -44q14 -14 31.5 -21t37 -7t36.5 7t31 20l71 -58q1 -1 4 -1t5 2.5t2 5.5t-3 5zM102 61q-17 0 -32 6.5t-27 18.5q-16 16 -21.5 37t0 42.5 t21.5 36.5q12 12 27 18.5t31.5 6.5t31.5 -6.5t27 -18.5q16 -16 21.5 -37t0 -42.5t-21.5 -36.5q-12 -12 -27 -18.5t-31 -6.5z" />
</svg>