<svg viewBox="0 0 1024 1024" xmlns="http://www.w3.org/2000/svg">
  <path transform="scale(1, -1) translate(0, -960)" fill="currentColor" d="M894 725l-97 166q-10 17 -27.5 27t-36.5 10h-442q-19 0 -36 -10t-28 -27l-97 -166l-3 -4.5t-1 -3.5v-112q0 -28 15 -49.5t38 -32.5v-309q0 -30 22 -51.5t52 -21.5h129l10 -12l10 -12q27 -28 62 -42t74 -14q34 0 66 11.5t58 34.5l135 -134q2 -3 5.5 -4t5.5 -1t5.5 1t5.5 4 q5 5 5 11t-5 11l-134 135q2 2 4.5 5t4.5 6h76q30 0 51.5 21.5t21.5 51.5v309q23 11 38 32.5t15 49.5v112q1 2 0.5 3.5t-2.5 4.5v0zM680 606v-0.5v-0.5q0 -23 -16.5 -39.5t-39.5 -16.5h-40q-23 0 -39.5 16.5t-16.5 39.5v0v0v291h88l66 -203v-87h-2zM496 896v-291 q0 -23 -16.5 -39.5t-39.5 -16.5h-40q-23 0 -39.5 16.5t-16.5 39.5v88l64 203h88zM158 605v107l96 163q6 10 16 15.5t21 5.5h85l-62 -195v-2.5v-2.5v-91q0 -23 -17 -39.5t-39 -16.5h-40q-26 0 -43 16t-17 40v0zM426 141q-47 47 -47 113.5t47 113.5q24 24 53 35t60 11 t61 -11.5t53 -34.5t34.5 -52t11.5 -62q0 -32 -11.5 -61t-34.5 -52t-52 -35t-62 -12q-32 -1 -61.5 11.5t-51.5 35.5zM813 214q0 -16 -12.5 -28.5t-29.5 -12.5h-56q9 19 13.5 39.5t4.5 41.5q0 39 -15 74.5t-41 61.5q-28 29 -64 43t-73 14t-73 -14t-64 -43 q-44 -44 -53.5 -103.5t15.5 -113.5h-111q-16 0 -28.5 12.5t-12.5 28.5v303h1.5h1.5h40q23 0 41.5 10t30.5 28q12 -17 31 -27.5t41 -10.5h40q23 0 41.5 10t30.5 28q12 -17 31 -27.5t41 -10.5h40q23 0 41.5 10t30.5 28q12 -17 31 -27.5t41 -10.5h40h1.5h1.5v-303h2zM866 605 q0 -23 -17 -39.5t-39 -16.5h-40q-23 0 -39.5 16.5t-16.5 39.5v91v2.5v2.5l-64 195h84q11 0 21 -5.5t15 -15.5l96 -163v-107z" />
</svg>