<svg viewBox="0 0 1024 1024" xmlns="http://www.w3.org/2000/svg">
  <path transform="scale(1, -1) translate(0, -960)" fill="currentColor" d="M987 27l-141 141q-2 2 -4.5 3.5t-6.5 1.5q27 30 41.5 66.5t14.5 77.5q0 43 -16.5 82.5t-47.5 70.5q-3 4 -7.5 7.5t-8.5 7.5v137q0 4 -2 8t-6 7l-373 225q-3 3 -7.5 3t-8.5 -3l-132 -81v19q0 40 -28.5 68t-67.5 28h-15q-39 0 -67.5 -28t-28.5 -68v-133q0 -2 1 -4.5t2 -4.5 l-36 -23q-5 -1 -7.5 -4.5t-2.5 -8.5v-363q0 -39 28 -67.5t68 -28.5h203q7 0 11.5 4.5t4.5 11.5v229h133q-10 -22 -15.5 -44.5t-5.5 -46.5q0 -43 16.5 -83t47.5 -71t71.5 -47.5t82.5 -16.5q38 0 75.5 14.5t68.5 41.5q0 -2 1 -5.5t4 -5.5l140 -141q3 -2 6 -3.5t6 -1.5 q2 0 5 1.5t6 3.5q3 6 3 12.5t-5 11.5v0zM104 800q0 26 19 45t45 19h14q27 0 45.5 -19t18.5 -45v-38l-142 -87v125zM331 440q-7 0 -11.5 -4.5t-4.5 -11.5v-229h-187q-26 0 -45 19t-19 45v354l357 217l357 -217v-107q-62 33 -133.5 24.5t-124.5 -61.5q-7 -7 -13 -14.5 t-11 -14.5h-165v0zM544 187q-26 27 -40 60.5t-14 69.5q0 37 14 70.5t40 58.5q26 27 60.5 41t69.5 14q34 0 68.5 -13.5t60.5 -41.5q27 -26 41 -59.5t14 -69.5q0 -37 -14 -71t-41 -59q-53 -54 -129 -54t-130 54z" />
</svg>