<svg viewBox="0 0 1024 1024" xmlns="http://www.w3.org/2000/svg">
  <path transform="scale(1, -1) translate(0, -960)" fill="currentColor" d="M962 142l-170 172q-26 26 -64.5 29t-68.5 -20l-112 112q39 44 58 97t17.5 108t-22.5 107q-22 53 -64 95q-43 43 -98 64q-54 22 -110.5 22t-111.5 -22q-54 -21 -98 -64q-43 -44 -64 -98q-22 -55 -22 -111.5t22 -110.5q21 -55 64 -98q44 -44 99 -66t111 -22q53 0 104 19 t93 56l112 -112q-22 -30 -19.5 -67.5t28.5 -65.5l172 -171q14 -14 32.5 -22t39.5 -8q20 0 38.5 8t33.5 22q14 15 22 33.5t8 38.5q0 23 -8 42t-22 33v0zM141 446q-39 39 -58 87q-19 49 -19 99.5t19 99.5t58 87q38 39 87.5 58t99.5 19t99 -19t88 -58q39 -38 58 -87t19 -99.5 t-19 -99.5q-19 -48 -58 -87t-88 -58q-48 -20 -99 -20t-99 20q-49 19 -88 58v0zM939 21q-9 -10 -22 -15.5t-27 -5.5q-15 0 -27.5 5.5t-22.5 15.5l-171 171q-21 20 -21 49.5t21 49.5q11 11 23.5 16t25.5 5q14 0 26.5 -5t23.5 -16l171 -171q10 -10 15.5 -22.5t5.5 -27.5 q0 -14 -5.5 -27t-15.5 -22z" />
</svg>