<svg viewBox="0 0 256 256" xmlns="http://www.w3.org/2000/svg">
  <path transform="scale(1, -1) translate(0, -256)" fill="currentColor" d="M226 199l-24 41q-3 5 -8 8t-11 3h-110q-6 0 -11 -3t-8 -8l-24 -41q-1 -1 -1 -4v-28q0 -7 3.5 -13t9.5 -9v-75q0 -9 6.5 -15.5t15.5 -6.5h30q3 -3 5 -4q15 -16 36 -16q18 0 31 11l32 -32q2 -2 4.5 -2t4.5 2t2 5t-2 5l-31 31h17q9 0 15 6.5t6 15.5v75q7 4 10.5 9.5 t3.5 12.5l-1 29zM190 233l23 -40v-26q0 -4 -3 -7.5t-8 -3.5h-10q-5 0 -8 3t-3 8v23q0 2 -1 2l-14 45h17q5 0 7 -4zM121 237v-70q0 -4 -3.5 -7.5t-7.5 -3.5h-10q-5 0 -8 3t-3 8v22l15 48h17zM135 237h17l15 -48v-22q0 -4 -3 -7.5t-8 -3.5h-10q-5 0 -8 3t-3 8v70zM43 193 l23 40q2 4 7 4h17l-15 -47v-23q0 -4 -3.5 -7.5t-7.5 -3.5h-10q-5 0 -8.5 3t-3.5 8v26h1zM108 53q-3 3 -4 6q-8 11 -6.5 24t11.5 23.5t25.5 10.5t26.5 -11t11 -26q0 -12 -6 -21v0q-2 -4 -5 -6q-11 -11 -26 -11t-27 11zM193 62h-10q3 9 3 18q0 21 -15 36t-36 15t-36 -15 q-11 -11 -14 -25.5t2 -28.5h-23q-3 0 -5.5 2.5t-2.5 5.5v72h8q11 0 18 8q7 -8 18 -8h10q11 0 18 8q7 -8 18 -8h10q11 0 18 8q3 -4 8 -6t10 -2h8v-72q0 -3 -2 -5.5t-5 -2.5z" />
</svg>