<svg viewBox="0 0 256 256" xmlns="http://www.w3.org/2000/svg">
  <path transform="scale(1, -1) translate(0, -256)" fill="currentColor" d="M243 54l-43 42q-8 9 -20 9q-8 0 -14 -4l-24 24q12 15 16 33.5t-1.5 37t-20 33t-34.5 19.5t-39.5 0t-34.5 -19.5t-20 -34.5t0 -40t20 -34q11 -12 25 -17.5t29 -5.5q29 0 50 18l24 -24q-4 -6 -4 -14q0 -12 8 -20l43 -43q8 -8 20 -8t20 8.5t8 19.5t-8 20zM38 130 q-12 12 -16.5 28t0 32.5t16.5 28.5q9 9 20.5 13.5t23.5 4.5t24 -4.5t20 -13.5q12 -12 16.5 -28.5t0 -32.5t-16.5 -28.5t-28 -16.5t-32 0t-28 17zM233 23q-4 -4 -10 -4t-11 4l-42 43q-5 4 -5 10t4.5 10.5t10.5 4.5t10 -4l43 -43q4 -5 4 -11t-4 -10z" />
</svg>