<svg viewBox="0 0 256 256" xmlns="http://www.w3.org/2000/svg">
  <path transform="scale(1, -1) translate(0, -256)" fill="currentColor" d="M215 220l-79 30q-8 3 -16 0l-79 -30q-7 -2 -11 -8t-4 -13v-72q0 -39 22 -69q17 -22 44 -38q17 -9 34 -14l2 -1l2 1q31 9 56 30q43 36 43 91v72q0 7 -4 13t-10 8zM216 127q0 -47 -37 -79q-22 -19 -51 -28q-29 10 -51 28q-37 32 -37 79v72q0 6 6 8l79 29l3 1l3 -1l79 -29 q2 -1 4 -3t2 -5v-72zM128 191q-17 0 -31.5 -8.5t-23 -23t-8.5 -31.5t8.5 -31t23 -22.5t31.5 -8.5t31.5 8t23 22.5t8.5 31.5t-8.5 31.5t-23 23t-31.5 8.5zM128 80q-20 0 -34.5 14.5t-14.5 34.5t14.5 34t34.5 14t34.5 -14t14.5 -34.5t-14.5 -34.5t-34.5 -14zM132 126v17 q0 3 -2 5t-5 2t-5 -2t-2 -5v-20q0 -3 2 -5l11 -11q2 -2 5 -2t5 2t2 5t-2 5z" />
</svg>