<svg viewBox="0 0 256 256" xmlns="http://www.w3.org/2000/svg">
  <path transform="scale(1, -1) translate(0, -256)" fill="currentColor" d="M244 242h-32q-2 0 -4 -1.5t-3 -3.5l-13 -52h-46q4 15 4 29q0 2 -2 4t-4 2q-8 2 -21 9q-10 6 -17 11q-4 3 -8 0q-7 -5 -17 -11q-13 -7 -21 -9q-3 0 -4.5 -2t-1.5 -4q0 -14 4 -29h-46q-3 0 -5.5 -3t-1.5 -6l20 -86q1 -2 3 -3.5t4 -1.5h145q3 0 4.5 1.5t2.5 3.5l34 138h26 q3 0 5 2t2 5t-2 5t-5 2zM102 226q18 -13 33 -18q-2 -17 -7 -32q-9 -24 -26 -38q-18 14 -27 38q-6 16 -7 32q12 4 33 18h1zM172 99h-134l-17 72h41q11 -31 36 -47q1 -1 3.5 -1t4.5 1q24 16 35 47h48zM154 62h-100q-10 0 -17 -7t-7 -17t7 -17t17.5 -7t17.5 7t7 17q0 6 -3 10 h56q-2 -4 -2 -10q0 -10 7 -17t17 -7t17 7t7 17t-7 17t-17 7zM65 38q0 -4 -3 -7t-7.5 -3t-7.5 3t-3 7t3 7t7.5 3t7.5 -3t3 -7zM154 28q-4 0 -7 3t-3 7t3 7t7.5 3t7.5 -3t3 -7t-3 -7t-8 -3z" />
</svg>