<svg viewBox="0 0 256 256" xmlns="http://www.w3.org/2000/svg">
  <path transform="scale(1, -1) translate(0, -256)" fill="currentColor" d="M116 148q12 0 24.5 5t20.5 14q6 6 10.5 15t6.5 20t-0.5 21t-9.5 17q-10 11 -28 11q-12 0 -24.5 -5t-20.5 -13q-7 -6 -11.5 -15.5t-6.5 -20.5t0.5 -21t9.5 -17q11 -11 29 -11zM92 196q3 17 13 27q6 6 16 10t20.5 4t17.5 -6q9 -9 5.5 -26.5t-13.5 -27.5q-6 -6 -16 -10 t-20.5 -4t-17.5 6q-9 9 -5 27zM250 70q-2 10 -6.5 19t-10.5 15q-8 8 -20.5 13t-24.5 5q-18 0 -29 -10q-7 -7 -9.5 -17t0.5 -23q1 -10 6 -19t11 -15q8 -8 20.5 -13t24.5 -5q18 0 28 10q7 7 9.5 17t0.5 23zM230 40q-6 -6 -18 -6q-9 0 -19 4t-15.5 9.5t-9.5 12.5t-5 15 q-3 18 6 27q6 6 18 6q9 0 19 -4t16 -9.5t9.5 -13t4.5 -14.5q4 -18 -6 -27zM93 94q-11 6 -26 6q-13 0 -24 -5q-8 -3 -15.5 -9.5t-14 -16t-8 -20t2.5 -19.5q5 -13 20 -20q11 -5 27 -5q13 0 23 4q8 3 16 10t14 16.5t8 19.5t-2 19q-6 14 -21 20zM96 42q-4 -7 -10.5 -12t-13.5 -8 t-17.5 -3t-20.5 4t-14 13q-5 12 6 27q4 6 10 11.5t13.5 8.5t18 3t20 -4t13.5 -13q5 -12 -5 -27z" />
</svg>