<svg viewBox="0 0 256 256" xmlns="http://www.w3.org/2000/svg">
  <path transform="scale(1, -1) translate(0, -256)" fill="currentColor" d="M251 159q0 3 -2 5t-5 2h-28l-66 60q-9 8 -21 8t-21 -8l-66 -60h-30q-3 0 -5 -2.5t-2 -5.5t2 -4.5t5 -1.5h6q-6 -24 -6 -42t9.5 -34.5t26 -29t37.5 -18.5t43.5 -6t43.5 6.5t38 18.5t26.5 28.5t9.5 35.5t-6 41h4q3 0 5 2t2 5zM118 216q4 4 11 4t11 -4l55 -50h-133zM225 152 q7 -23 7 -41q0 -15 -8 -29t-22.5 -24.5t-33.5 -16t-39.5 -5.5t-39 5.5t-33 16t-22.5 24.5t-8 30t6 40h193z" />
</svg>