<svg viewBox="0 0 1024 1024" xmlns="http://www.w3.org/2000/svg">
  <path transform="scale(1, -1) translate(0, -960)" fill="currentColor" d="M701 742q8 46 -1 83.5t-34 64.5q-20 19 -46 28.5t-58 9.5q-46 0 -94 -19.5t-79 -50.5q-24 -24 -41.5 -58.5t-24.5 -73.5q-8 -45 1 -82.5t34 -64.5q20 -19 46 -28.5t58 -9.5q46 0 94 19.5t79 50.5q24 24 41.5 59t24.5 72v0zM462 574q-25 0 -46 7.5t-35 21.5q-19 19 -26 50 t0 69q6 32 21 62.5t37 50.5q26 28 67 44.5t82 16.5q25 0 46 -7t35 -22q19 -19 26 -50t0 -68q-6 -33 -21 -63t-37 -51q-26 -27 -67 -44t-82 -17v0zM987 211q-7 37 -24 72t-41 59q-32 32 -79 51.5t-94 19.5q-33 0 -59 -9.5t-45 -29.5q-25 -25 -34.5 -63t-0.5 -84q7 -37 24 -72 t41 -59q31 -31 78.5 -50.5t94.5 -19.5q32 0 58.5 9.5t45.5 28.5q26 26 35.5 64t-0.5 83zM931 88q-14 -14 -35 -21.5t-46 -7.5q-41 0 -82 16.5t-69 44.5q-20 20 -35 50.5t-22 63.5q-8 37 -1 67.5t26 50.5q15 14 36 21.5t46 7.5q41 0 82 -16.5t68 -44.5q21 -20 36 -50.5 t22 -63.5q7 -38 0 -68.5t-26 -49.5zM368 302q-22 10 -48 15.5t-53 5.5q-25 0 -47.5 -4.5t-41.5 -11.5q-32 -13 -61 -38t-50 -58q-25 -38 -31 -76.5t7 -72.5q10 -24 29.5 -42.5t47.5 -30.5q22 -10 48 -15.5t53 -5.5q25 0 47.5 4.5t41.5 11.5q32 13 61 38.5t50 57.5 q25 38 31 76.5t-7 72.5q-11 24 -30 42.5t-47 30.5v0zM394 98q-18 -28 -44 -50.5t-52 -33.5q-17 -7 -37 -10.5t-42 -3.5q-24 0 -46.5 4.5t-41.5 13.5q-21 9 -36.5 23.5t-24.5 33.5q-10 25 -4.5 56t25.5 63q18 27 44 49.5t52 33.5q17 7 37 10.5t42 3.5q24 0 46 -4.5t42 -12.5 q21 -10 36.5 -24.5t23.5 -33.5q11 -25 5.5 -55.5t-25.5 -62.5z" />
</svg>