<svg viewBox="0 0 1024 1024" xmlns="http://www.w3.org/2000/svg">
  <path transform="scale(1, -1) translate(0, -960)" fill="currentColor" d="M688 358l-157 -148q-7 -6 -17.5 -6t-17.5 6l-160 148q-5 5 -11.5 5t-10.5 -6q-5 -5 -5 -11.5t6 -11.5l162 -150q8 -6 17.5 -9.5t20.5 -3.5t21 3.5t19 11.5l157 150q5 5 5 11.5t-5 10.5q-6 5 -12.5 5t-11.5 -5v0zM325 533q2 0 5.5 1t5.5 4l155 148q7 6 17.5 6t17.5 -6 l160 -148q5 -5 11.5 -5t11.5 6q5 5 4.5 11.5t-6.5 11.5l-161 150q-17 13 -38.5 13t-38.5 -13l-155 -152q-5 -5 -5 -11.5t5 -10.5q2 -3 5 -4t6 -1v0zM512 928q-99 0 -186 -38q-88 -38 -153 -103t-103 -153q-38 -87 -38 -186t38 -186q38 -88 103 -153t153 -103q87 -38 186 -38 t186 38q88 38 153 103t103 153q38 87 38 186t-38 186q-38 88 -103 153t-153 103q-87 38 -186 38zM512 0q-92 0 -174 35q-81 36 -142 97t-97 142q-35 82 -35 174t35 174q36 81 96.5 142t142.5 97q82 35 174 35t174 -35q81 -36 142 -96.5t97 -142.5q35 -82 35 -174t-35 -174 q-36 -81 -96.5 -142t-142.5 -97q-82 -35 -174 -35z" />
</svg>