<svg viewBox="0 0 1024 1024" xmlns="http://www.w3.org/2000/svg">
  <path transform="scale(1, -1) translate(0, -960)" fill="currentColor" d="M912 928h-800q-34 0 -57 -23t-23 -57v-800q0 -34 23 -57t57 -23h800q34 0 57 23t23 57v800q0 34 -23 57t-57 23zM960 48q0 -20 -14 -34t-34 -14h-800q-20 0 -34 14t-14 34v800q0 20 14 34t34 14h800q20 0 34 -14t14 -34v-800zM686 358l-155 -148q-7 -6 -17.5 -6t-17.5 6 l-160 148q-5 5 -11.5 5t-10.5 -6q-5 -5 -5 -11.5t6 -11.5l160 -148q9 -6 18 -9.5t19 -3.5q11 0 20.5 3.5t17.5 9.5l157 148q5 5 5 11.5t-5 11.5q-2 6 -9 6t-12 -5v0zM326 533q3 0 6 1t6 4l155 148q7 6 17.5 6t17.5 -6l160 -148q5 -5 11.5 -5t10.5 6q5 5 5 11.5t-6 11.5 l-160 148q-17 14 -38.5 14t-38.5 -14l-157 -150q-5 -5 -5 -11.5t5 -10.5q3 -3 5.5 -4t5.5 -1v0z" />
</svg>