<svg viewBox="0 0 256 256" xmlns="http://www.w3.org/2000/svg">
  <path transform="scale(1, -1) translate(0, -256)" fill="currentColor" d="M170 108l-39 -38h-2.5h-2.5l-40 38q-2 2 -4.5 1.5t-5 -2.5t-2 -5t2.5 -5l40 -37q6 -4 12 -4t11 4l40 38q2 2 2 4.5t-2 5t-5 2.5t-5 -2zM81 146q3 0 5 2l39 38h2.5h2.5l40 -38q2 -2 4.5 -1.5t5 2.5t2 5t-2.5 5l-40 37q-5 4 -11.5 4t-11.5 -4l-40 -38q-2 -2 -2 -4.5t2.5 -5 t4.5 -2.5zM128 251q-33 0 -61.5 -16.5t-45 -45t-16.5 -61.5t16.5 -61.5t45 -45t61.5 -16.5t61.5 16.5t45 45t16.5 61.5t-16.5 61.5t-45 45t-61.5 16.5zM128 19q-29 0 -54 14.5t-40 39.5t-15 55t15 55t40 39.5t54.5 14.5t54.5 -14.5t39.5 -39.5t14.5 -55t-14.5 -55 t-39.5 -39.5t-55 -14.5z" />
</svg>