<svg viewBox="0 0 1024 1024" xmlns="http://www.w3.org/2000/svg">
  <path transform="scale(1, -1) translate(0, -960)" fill="currentColor" d="M851 122h-0.5t0.5 0l115 68l-313 119q-5 2 -8.5 -1.5t-1.5 -8.5l117 -315l67 115v0v-1l66 -66q2 -2 5.5 -3.5t5.5 -1.5t5.5 1.5t5.5 3.5q5 5 5 11.5t-5 10.5l-64 68v0zM568 221h64v-32h-64v32zM330 221h120v-32h-120v32zM147 221h64v-32h-64v32zM74 250h-32v-45 q0 -7 4 -11.5t12 -4.5h44v32h-28v29zM42 402h32v-64h-32v64v0zM42 640h32v-120h-32v120v0zM42 824h32v-64h-32v64v0zM42 912v-45h32v29h28v32h-44q-6 0 -11 -4.5t-5 -11.5v0zM190 928h64v-32h-64v32zM374 928h120v-32h-120v32zM613 928h64v-32h-64v32zM749 867h32v45 q0 7 -4.5 11.5t-11.5 4.5h-45v-32h29v-29zM749 779h32v-64h-32v64zM749 597h32v-120h-32v120zM749 358h32v-64h-32v64z" />
</svg>