<svg viewBox="0 0 1024 1024" xmlns="http://www.w3.org/2000/svg">
  <path transform="scale(1, -1) translate(0, -960)" fill="currentColor" d="M856 278q-5 5 -11.5 5t-10.5 -5l-279 -265q-17 -13 -40 -13t-38 13l-287 265q-4 5 -10.5 5t-11.5 -6q-5 -5 -4.5 -11.5t6.5 -11.5l286 -265q13 -10 28.5 -15.5t30.5 -5.5q16 0 32 5t29 16l280 267q5 5 5 11.5t-5 10.5zM179 611q3 0 6 1.5t5 3.5l279 267q17 13 40 13 t38 -13l287 -265q4 -5 10.5 -5t11.5 6q5 5 4.5 11.5t-6.5 11.5l-286 265q-25 21 -59.5 21t-60.5 -21l-280 -267q-5 -5 -5 -11.5t5 -10.5q2 -3 5.5 -5t5.5 -2v0z" />
</svg>