<svg viewBox="0 0 256 256" xmlns="http://www.w3.org/2000/svg">
  <path transform="scale(1, -1) translate(0, -256)" fill="currentColor" d="M228 251h-200q-10 0 -16.5 -6.5t-6.5 -16.5v-200q0 -10 7 -16.5t16 -6.5h200q10 0 17 6.5t7 16.5v200q-1 10 -7.5 16.5t-16.5 6.5zM237 28q0 -4 -2.5 -6.5t-6.5 -2.5h-200q-4 0 -6.5 2.5t-2.5 6.5v200q0 4 2.5 6.5t6.5 2.5h200q4 0 6.5 -2.5t2.5 -6.5v-200zM170 108 l-39 -37q-1 -1 -2.5 -1t-2.5 1l-40 37q-2 2 -4.5 1.5t-5 -2.5t-2 -5t2.5 -5l40 -37q6 -4 12 -4t11 4l39 38q2 2 2 4.5t-1.5 5t-4.5 2.5t-5 -2zM82 146q2 0 4 2l39 37q1 1 2.5 1t2.5 -1l40 -37q2 -2 4.5 -1.5t5 2.5t2 5t-2.5 5l-40 37q-5 4 -11.5 4t-11.5 -4l-40 -38 q-2 -2 -2 -5t2.5 -5t5.5 -2z" />
</svg>