<svg viewBox="0 0 1024 1024" xmlns="http://www.w3.org/2000/svg">
  <path transform="scale(1, -1) translate(0, -960)" fill="currentColor" d="M414 602q0 -42 29.5 -71.5t71.5 -29.5t71.5 29.5t29.5 71.5t-29.5 71t-71.5 29q-41 0 -71 -30t-30 -70v0zM584 602q0 -29 -20 -49t-49 -20t-49 20t-20 49q0 28 20 48t49 20t49 -20.5t20 -47.5zM989 291l-75 75q-4 4 -8.5 5t-9.5 -1l-83 -37q-6 -3 -8.5 -9t0.5 -12 q2 -6 8.5 -8t12.5 0l57 26l-0.5 -1l-0.5 -1q-24 -73 -73.5 -129.5t-114.5 -91.5v179q0 56 -35.5 95.5t-85.5 39.5h-125q-50 0 -86 -40t-36 -96v-176q-62 35 -108.5 90t-70.5 126q-2 6 -7.5 9t-13.5 0q-6 -2 -9 -7.5t0 -12.5q21 -65 60 -118t91.5 -91t114.5 -58 q63 -21 131 -21q67 0 130 20q63 21 115 59t92 91q39 53 61 118v1.5v1.5l51 -51q3 -3 6 -4t5 -1q3 0 6 1t6 4q7 7 7.5 13.5t-4.5 11.5v0zM360 94v192q0 44 26 74t64 30h56l-32 -88q-3 -7 -3 -14t3 -13l22 -73q4 -11 14.5 -11t14.5 11l22 73q3 7 3 14t-3 13l-32 88h58 q37 0 63 -30t26 -72v-195q-34 -15 -71.5 -23t-76.5 -8q-40 -1 -79 8t-75 24v0zM130 502l89 48q6 4 8 10.5t-1 12.5q-4 6 -10.5 8t-12.5 -2l-61 -33q17 63 53 116q35 53 84.5 91t109.5 59q60 22 126 22q67 0 128 -22t110.5 -61t85.5 -93t52 -119q1 -6 7 -9.5t12 -1.5 q6 1 10 7t2 12q-18 71 -56 130q-39 59 -92.5 101t-119.5 66q-66 23 -139 23q-72 0 -138 -23q-65 -23 -118.5 -65t-92.5 -100q-38 -58 -56 -129l-52 53q-5 5 -11.5 5t-11.5 -5t-5 -11t5 -11l75 -75q3 -3 5.5 -4t6.5 -1h3.5t4.5 1v0z" />
</svg>