<svg viewBox="0 0 1024 1024" xmlns="http://www.w3.org/2000/svg">
  <path transform="scale(1, -1) translate(0, -960)" fill="currentColor" d="M886 835h-748q-44 0 -75 -31t-31 -74v-372q0 -43 31 -74t75 -31h358v-159h-195q-7 0 -11.5 -4t-4.5 -12q0 -7 4.5 -11.5t11.5 -4.5h422q7 0 11.5 4.5t4.5 11.5q0 8 -4.5 12t-11.5 4h-195v159h358q44 0 75 31t31 74v372q0 43 -31 74t-75 31zM960 358q0 -30 -22 -51.5 t-52 -21.5h-748q-30 0 -52 21.5t-22 51.5v372q0 30 22 51.5t52 21.5h748q30 0 52 -21.5t22 -51.5v-372zM258 654h64q7 0 11.5 4.5t4.5 11.5q0 8 -4.5 12t-11.5 4h-64q-33 0 -56.5 -23t-23.5 -57q0 -33 23 -56.5t57 -23.5q19 0 33.5 -13.5t14.5 -34.5q0 -19 -14 -33.5 t-34 -14.5h-64q-8 0 -12 -4t-4 -12q0 -7 4 -11.5t12 -4.5h64q32 0 56 23.5t24 56.5q0 34 -23.5 57t-56.5 23q-20 0 -34 14t-14 34q0 21 14 34.5t34 13.5zM510 654h64q8 0 12 4.5t4 11.5q0 8 -4 12t-12 4h-64q-32 0 -56 -23t-24 -57v-126q0 -32 23.5 -56t56.5 -24h64 q8 0 12 4.5t4 11.5t-4 11.5t-12 4.5h-64q-19 0 -33.5 14t-14.5 34v48h111q7 0 11.5 4.5t4.5 11.5t-4.5 11.5t-11.5 4.5h-109v48q0 19 13.5 32.5t32.5 13.5v0zM782 686h-36q-26 0 -43.5 -17.5t-17.5 -42.5v-164q0 -25 17.5 -42.5t43.5 -17.5h36q26 0 43.5 17.5t17.5 42.5v164 q0 25 -17.5 42.5t-43.5 17.5v0zM811 462q0 -12 -8.5 -20t-20.5 -8h-36q-12 0 -20.5 8t-8.5 20v164q0 12 8.5 20t20.5 8h36q12 0 20.5 -8t8.5 -20v-164v0z" />
</svg>