<svg viewBox="0 0 1024 1024" xmlns="http://www.w3.org/2000/svg">
  <path transform="scale(1, -1) translate(0, -960)" fill="currentColor" d="M251 581h50q7 0 11.5 4.5t4.5 11.5t-4.5 11.5t-11.5 4.5h-50q-27 0 -46 -19t-19 -47v-49q0 -28 19 -47t46 -19q15 0 24.5 -9.5t9.5 -24.5v-49q0 -15 -9.5 -24.5t-24.5 -9.5h-49q-8 0 -12 -4.5t-4 -11.5t4 -11.5t12 -4.5h49q28 0 47 19t19 47v49q0 28 -19 47t-47 19 q-14 0 -23.5 9.5t-9.5 24.5v49q0 15 9.5 24.5t23.5 9.5v0zM493 581h70q7 0 11.5 4.5t4.5 11.5t-4.5 11.5t-11.5 4.5h-70q-28 0 -47 -19t-19 -47v-198q0 -28 19 -47t47 -19h70q7 0 11.5 4.5t4.5 11.5t-4.5 11.5t-11.5 4.5h-70q-15 0 -24.5 9.5t-9.5 24.5v83h2h1h60 q7 0 11.5 4.5t4.5 11.5t-4.5 11.5t-11.5 4.5h-60h-2h-1v85q-1 13 9 22.5t25 9.5v0zM773 613h-39q-27 0 -47 -19.5t-20 -46.5v-197q0 -27 20 -46t47 -19h39q27 0 47 19.5t20 45.5v197q-1 28 -21 47t-46 19v0zM806 349q0 -15 -10 -24.5t-25 -9.5h-38q-15 0 -25 10.5t-10 23.5 v198q0 15 10 24.5t25 9.5h38q15 0 25 -10.5t10 -23.5v-198zM928 752h-832q-26 0 -45 -19t-19 -45v-480q0 -26 19 -45t45 -19h832q26 0 45 19t19 45v480q0 26 -19 45t-45 19zM960 208q0 -13 -9.5 -22.5t-22.5 -9.5h-832q-13 0 -22.5 9.5t-9.5 22.5v480q0 13 9.5 22.5 t22.5 9.5h832q13 0 22.5 -9.5t9.5 -22.5v-480z" />
</svg>