<svg viewBox="0 0 256 256" xmlns="http://www.w3.org/2000/svg">
  <path transform="scale(1, -1) translate(0, -256)" fill="currentColor" d="M222 228h-188q-12 0 -20.5 -9t-8.5 -21v-93q0 -12 8.5 -20.5t20.5 -8.5h87v-34h-46q-3 0 -5 -2t-2 -5t2 -5t5 -2h106q3 0 5 2t2 5t-2 5t-5 2h-46v34h87q12 0 20.5 8.5t8.5 21.5v92q0 12 -8.5 21t-20.5 9zM237 106q0 -7 -4.5 -11.5t-10.5 -4.5h-188q-6 0 -10.5 4.5 t-4.5 11.5v92q0 7 4.5 11.5t10.5 4.5h188q6 0 10.5 -4.5t4.5 -11.5v-92zM64 176h16q3 0 5.5 2.5t2.5 5.5t-2.5 5t-5.5 2h-16q-9 0 -15.5 -7t-6.5 -16t6.5 -16t15.5 -7q4 0 6.5 -2.5t2.5 -6t-2.5 -6t-6.5 -2.5h-16q-3 0 -5 -2.5t-2 -5.5t2 -5t5 -2h16q10 0 16.5 7t6.5 16 t-6.5 16t-16.5 7q-3 0 -5.5 2.5t-2.5 6t2.5 6t5.5 2.5zM128 176h16q3 0 5 2.5t2 5.5t-2 5t-5 2h-16q-10 0 -16.5 -7t-6.5 -16v-32q0 -9 6.5 -16t16.5 -7h16q3 0 5 2t2 5t-2 5.5t-5 2.5h-16q-4 0 -6.5 2.5t-2.5 5.5v9h25q3 0 5 2t2 5t-2 5.5t-5 2.5h-25v8q0 3 2.5 5.5 t6.5 2.5zM196 190h-10q-7 0 -12.5 -5t-5.5 -13v-41q0 -7 5.5 -12.5t12.5 -5.5h10q7 0 12.5 5t5.5 13v41q0 8 -5.5 13t-12.5 5zM200 132q0 -2 -1.5 -3.5t-3.5 -1.5h-9q-2 0 -3 1.5t-1 3.5v40q0 2 1 3.5t3 1.5h9q2 0 3.5 -1.5t1.5 -3.5v-40z" />
</svg>