<svg viewBox="0 0 256 256" xmlns="http://www.w3.org/2000/svg">
  <path transform="scale(1, -1) translate(0, -256)" fill="currentColor" d="M54 207q-3 0 -5 -2t-2 -5v-1q0 -3 2 -5t5 -2t5 2t2 5v1q0 3 -2 5t-5 2zM171 207h-23q-3 0 -5 -2t-2 -5t2 -5.5t5 -2.5h23q3 0 5 2.5t2 5.5t-2 5t-5 2zM54 136q-3 0 -5 -2t-2 -5v0q0 -3 2 -5t5 -2t5 2t2 5v0q0 3 -2 5t-5 2zM200 161q11 7 11 20v36q0 10 -7 17t-17 7h-158 q-10 0 -17 -7t-7 -17v-36q0 -11 8 -18q-8 -8 -8 -19v-31q0 -11 8 -19t19 -8h69q1 -19 11 -35.5t27 -26.5t37 -10t37.5 10.5t27.5 27.5t10 38q0 24 -14 43.5t-37 27.5zM29 171q-4 0 -7 3t-3 7v36q0 5 3 7.5t7 2.5h159q4 0 7 -3t3 -7v-36q0 -5 -3 -7.5t-7 -2.5h-159zM19 114 v30q0 5 4 9t9 4h111q-16 -8 -27 -23t-14 -34h-70q-5 1 -9 4.5t-4 9.5zM176 29q-17 0 -31 8t-22 22t-8 31t8 31t22 22t31 8t31 -8.5t22 -22.5t8 -30.5t-8 -30.5t-22 -22t-31 -8zM174 100q0 3 -2 5t-5 2h-14q8 11 22 11q7 0 13 -3t10 -9q2 -2 5 -2.5t5 1t3 4.5t-1 5 q-6 8 -15 13t-20 5q-14 0 -25.5 -8.5t-14.5 -21.5q-1 -4 1 -6.5t6 -2.5h25q3 0 5 2t2 5zM209 88h-23q-3 0 -5 -2t-2 -5t2 -5t5 -2h12q-4 -6 -10 -9.5t-13 -3.5q-12 0 -20 9q-2 3 -5 3t-5 -2t-2.5 -5t1.5 -5q6 -7 14 -10.5t17 -3.5q15 0 26 9t15 23q1 4 -1 6.5t-6 2.5z" />
</svg>