<svg viewBox="0 0 256 256" xmlns="http://www.w3.org/2000/svg">
  <path transform="scale(1, -1) translate(0, -256)" fill="currentColor" d="M219 115h-79q-11 0 -19 -8t-8 -19v-56q0 -11 8 -19t19 -8h79q11 0 19 8t8 19v56q0 11 -7.5 19t-19.5 8zM127 88q0 5 4 9t9 4h79q6 0 9.5 -4t3.5 -9v-36l-28 14q-3 2 -6 0l-70 -37l-1 3v56zM219 19h-79v0l62 33l29 -15h1v-5q0 -5 -3.5 -9t-9.5 -4zM59 201q3 0 5 2t2 5v1 q0 3 -2 5t-5 2t-5 -2t-2 -5v-1q0 -3 2 -5t5 -2zM156 202h22q3 0 5.5 2t2.5 5t-2.5 5t-5.5 2h-22q-3 0 -5.5 -2t-2.5 -5t2.5 -5t5.5 -2zM84 108h-47q-6 0 -9.5 3.5t-3.5 9.5v31q0 5 3.5 9t9.5 4h156q6 0 9.5 -4t3.5 -9v-4q0 -3 2.5 -5.5t5.5 -2.5t5 2.5t2 5.5v4q0 11 -8 19 q8 7 8 17v40q0 10 -7 16.5t-16 6.5h-165q-10 0 -16.5 -6.5t-6.5 -16.5v-40q0 -9 7 -17q-7 -7 -7 -19v-31q0 -11 7.5 -19t19.5 -8h47q3 0 5 2t2 5t-2 5t-5 2zM24 228q0 4 2.5 6.5t6.5 2.5h165q3 0 6 -2.5t3 -6.5v-40q0 -3 -3 -6t-6 -3h-165q-4 0 -6.5 3t-2.5 6v40zM52 137v-1 q0 -3 2.5 -5t5.5 -2t5 2t2 5v1q0 3 -2 5t-5 2t-5.5 -2t-2.5 -5zM156 148q-3 0 -5.5 -2t-2.5 -5t2.5 -5t5.5 -2h22q3 0 5.5 2t2.5 5t-2.5 5t-5.5 2h-22zM153 69q3 0 5 2t2 5v1q0 3 -2 5t-5 2t-5 -2t-2 -5v-1q0 -3 2 -5t5 -2z" />
</svg>