<svg viewBox="0 0 256 256" xmlns="http://www.w3.org/2000/svg">
  <path transform="scale(1, -1) translate(0, -256)" fill="currentColor" d="M251 120q0 8 -5.5 13.5t-13.5 5.5h-51q2 10 2 20q0 24 -12 45t-32 32.5t-43 11.5h-6h-2q-22 -1 -40.5 -13t-30.5 -32t-12 -44q0 -29 17 -53q10 -14 25 -23t33 -12q-3 -5 -3 -9v-35q0 -8 5.5 -13.5t13.5 -5.5h136q8 0 13.5 5.5t5.5 13.5v35q0 7 -4 12q4 5 4 12v34z M237 120v-34q0 -2 -1.5 -4t-3.5 -2h-136q-2 0 -3.5 1.5t-1.5 4.5v34q0 2 1.5 3.5t3.5 1.5h136q2 0 3.5 -1.5t1.5 -3.5zM107 196q-12 -1 -29 0q4 17 14 35q10 -16 15 -35zM96 139q-6 0 -10.5 -3t-6.5 -8h-3q-4 15 -4 31q0 11 2 23h20h16q2 -12 2 -23t-2 -19h-14v-1zM66 112 q3 -12 11 -26q-22 5 -37 21q14 4 26 5zM166 139h-41q1 10 1 20t-2 24q17 2 37 9q8 -15 8 -33q0 -9 -3 -20zM154 204q-19 -5 -33 -7q-4 18 -14 36q14 -3 26 -10t21 -19zM77 232q-9 -16 -14 -34q-13 2 -29 6q16 22 43 28zM19 159q0 17 8 33q15 -5 33 -8q-2 -14 -2 -25 q0 -17 4 -33q-16 -2 -31 -7q-12 18 -12 40zM237 27q0 -2 -1.5 -3.5t-3.5 -1.5h-136q-2 0 -3.5 1.5t-1.5 3.5v34q0 2 1.5 3.5t3.5 1.5h136q2 0 3.5 -1.5t1.5 -3.5v-34zM119 96q3 0 5 2t2 5v0q0 3 -2 5t-5 2t-5 -2t-2 -5v0q0 -3 2 -5t5 -2zM197 96h19q3 0 5 2t2 5t-2 5t-5 2 h-19q-3 0 -5 -2t-2 -5t2 -5t5 -2zM119 52q-3 0 -5 -2t-2 -5v-1q0 -3 2 -5t5 -2t5 2t2 5v1q0 3 -2 5t-5 2zM216 52h-19q-3 0 -5 -2.5t-2 -5.5t2 -5t5 -2h19q3 0 5 2t2 5t-2 5.5t-5 2.5z" />
</svg>