<svg viewBox="0 0 256 256" xmlns="http://www.w3.org/2000/svg">
  <path transform="scale(1, -1) translate(0, -256)" fill="currentColor" d="M52 194q3 0 5.5 2.5t2.5 5.5v0q0 3 -2.5 5t-5.5 2t-5 -2t-2 -5v0q0 -4 2.5 -6t4.5 -2zM144 194h22q3 0 5 2.5t2 5.5t-2 5t-5 2h-22q-3 0 -5 -2t-2 -5t2 -5.5t5 -2.5zM52 140q-3 0 -5 -2t-2 -5v0q0 -3 2 -5t5 -2t5.5 2t2.5 5v0q0 3 -2.5 5t-5.5 2zM206 148q0 10 -8 18 q8 8 8 17v36q0 10 -7 16.5t-16 6.5h-155q-10 0 -16.5 -6.5t-6.5 -16.5v-36q0 -11 8 -17q-8 -8 -8 -18v-30q0 -11 7.5 -18.5t18.5 -7.5h81v-9q0 -19 9.5 -35t25.5 -25t34.5 -9t34.5 9t25.5 25t9.5 35q0 22 -12.5 40t-32.5 25zM19 219q0 4 2.5 6.5t6.5 2.5h155q4 0 6.5 -2.5 t2.5 -6.5v-36q0 -4 -2.5 -6.5t-6.5 -2.5h-155q-4 0 -6.5 2.5t-2.5 6.5v36zM31 106q-5 0 -8.5 3.5t-3.5 8.5v30q0 5 3.5 8.5t8.5 3.5h149q4 0 7 -2.5t4 -5.5l-9 1q-23 0 -41 -13.5t-25 -33.5h-85zM181 28q-15 0 -27.5 7.5t-20 20t-7.5 28t7.5 28t20 20t27.5 7.5t28 -7.5 t20.5 -20t7.5 -28t-7.5 -28t-20.5 -20t-28 -7.5zM196 89h-26q-3 0 -5 -2t-2 -5t2 -5t5 -2h26q3 0 5 2t2 5t-2 5t-5 2z" />
</svg>