<svg viewBox="0 0 256 256" xmlns="http://www.w3.org/2000/svg">
  <path transform="scale(1, -1) translate(0, -256)" fill="currentColor" d="M244 53h-9v56q0 9 -7 16t-16 7h-37v5q0 8 -5 15q5 6 5 13v33q0 8 -5.5 13.5t-13.5 5.5h-132q-8 0 -13.5 -5.5t-5.5 -13.5v-33q0 -8 5 -13q-5 -7 -5 -15v-25q0 -10 6.5 -16.5t16.5 -6.5h72v-35h-9q-3 0 -5 -2.5t-2 -5.5t2 -5t5 -2h153q3 0 5 2t2 5t-2 5t-5 2zM19 198 q0 2 1.5 3.5t3.5 1.5h133q2 0 3.5 -1.5t1.5 -3.5v-34q0 -2 -1.5 -3.5t-3.5 -1.5h-133q-2 0 -3.5 1.5t-1.5 3.5v34zM28 103q-4 0 -6.5 2.5t-2.5 6.5v25q0 3 2.5 6t6.5 3h124q4 0 7 -2.5t3 -6.5v-5h-38q-10 0 -17 -7t-7 -16v-6h-72zM221 53h-107v56q0 3 3 6t7 3h88 q4 0 6.5 -2.5t2.5 -6.5v-56zM46 174q3 0 5 2.5t2 5.5v0q0 3 -2 5t-5 2t-5 -2t-2 -5v0q0 -3 2 -5.5t5 -2.5zM123 174h18q3 0 5 2.5t2 5.5t-2 5t-5 2h-18q-3 0 -5 -2t-2 -5t2 -5.5t5 -2.5zM46 132q-3 0 -5 -2.5t-2 -5.5v0q0 -3 2 -5t5 -2t5 2t2 5v0q0 4 -2 6t-5 2z" />
</svg>