<svg viewBox="0 0 1024 1024" xmlns="http://www.w3.org/2000/svg">
  <path transform="scale(1, -1) translate(0, -960)" fill="currentColor" d="M216 766q-13 0 -22.5 -9t-9.5 -23v-1q0 -13 9.5 -22.5t22.5 -9.5t22.5 9.5t9.5 22.5v1q0 14 -9.5 23t-22.5 9zM683 750h-91q-7 0 -11.5 -4t-4.5 -12q0 -7 4.5 -11.5t11.5 -4.5h91q7 0 11.5 4.5t4.5 11.5q0 8 -4.5 12t-11.5 4zM216 486q-13 0 -22.5 -9t-9.5 -23v-1 q0 -13 9.5 -22.5t22.5 -9.5t22.5 9.5t9.5 22.5v1q0 14 -9.5 23t-22.5 9zM762 578q31 4 51.5 27t20.5 56v144q0 35 -24.5 60t-60.5 25h-632q-36 0 -60.5 -24.5t-24.5 -60.5v-146q0 -23 11 -41t27 -29q-16 -13 -27 -33t-11 -44v-123q0 -39 28 -67.5t68 -28.5h288 q0 -60 23 -112q22 -52 61.5 -91.5t91.5 -61.5q53 -23 112 -23t112 23q52 22 91.5 61.5t61.5 91.5q23 52 23 112q0 53 -18 100q-17 47 -48 84.5t-73 63.5t-91 37v0zM117 608q-23 0 -38 15t-15 38v144q0 23 15 38t38 15h633q23 0 38 -15t15 -38v-146q0 -23 -15 -38t-38 -15 h-633v2zM64 390v122q0 25 19 44.5t45 19.5h514q-45 -10 -83 -33q-39 -23 -68.5 -56t-48.5 -73q-19 -41 -24 -88h-290q-26 0 -45 19t-19 45zM704 38q-53 0 -99 21q-47 20 -82 54.5t-55 81.5t-20 99q0 53 20 100q20 46 55 81t82 55q46 20 99 20t99 -20q47 -20 82 -55t55 -81 q20 -47 20 -100q0 -52 -20 -99t-55 -81.5t-82 -54.5q-46 -21 -99 -21zM686 336q0 7 -4 11.5t-12 4.5h-78q14 30 44 48.5t66 18.5q32 0 59 -13.5t44 -39.5q3 -6 9.5 -7t12.5 3q6 3 7.5 9.5t-2.5 12.5q-22 31 -56 48.5t-74 17.5q-52 0 -93.5 -31.5t-54.5 -80.5q-2 -4 -1 -7.5 t4 -7.5q2 -3 5.5 -4.5t7.5 -1.5h102q5 2 9.5 7t4.5 12v0zM837 277h-91q-8 0 -12 -4.5t-4 -11.5t4 -11.5t12 -4.5h68q-14 -34 -45 -54.5t-68 -20.5q-25 0 -49 10t-41 30q-5 4 -11 4.5t-11 -3.5q-5 -5 -5 -11t3 -11q22 -24 51.5 -37.5t62.5 -13.5q53 0 95 32.5t57 85.5 q1 4 0 7.5t-3 6.5q-2 4 -5 5.5t-8 1.5v0z" />
</svg>