<svg viewBox="0 0 256 256" xmlns="http://www.w3.org/2000/svg">
  <path transform="scale(1, -1) translate(0, -256)" fill="currentColor" d="M49 189q3 0 5 2t2 5v0q0 3 -2 5.5t-5 2.5t-5 -2.5t-2 -5.5v0q0 -3 2.5 -5t4.5 -2zM134 189h20q3 0 5 2t2 5t-2 5.5t-5 2.5h-20q-3 0 -5 -2.5t-2 -5.5t2 -5t5 -2zM49 141q-3 0 -5 -2t-2 -5v-1q0 -3 2 -5t5 -2t5 2t2 5v1q0 3 -2 5t-5 2zM233 109h-36q-2 0 -3 3l-3 6v28 q0 9 -6 16q6 6 6 14v39q0 8 -5.5 13.5t-13.5 5.5h-148q-8 0 -13.5 -5.5t-5.5 -13.5v-39q0 -8 6 -14q-6 -7 -6 -16v-27q0 -10 7 -17.5t18 -7.5h89v-55q0 -7 5.5 -12.5t12.5 -5.5h96q7 0 12.5 5.5t5.5 12.5v53q0 7 -5 12t-13 5zM19 215q0 2 1.5 3.5t3.5 1.5h149q2 0 3.5 -1.5 t1.5 -3.5v-39q0 -2 -1.5 -3.5t-3.5 -1.5h-149q-2 0 -3.5 1.5t-1.5 3.5v39zM30 108q-5 0 -8 3.5t-3 7.5v28q0 4 3 7.5t8 3.5h136q5 0 8 -3.5t3 -7.5v-13h-4h-36q-7 0 -12.5 -5t-5.5 -13v-7h-89v-1zM237 40q0 -2 -1 -3t-2 -1h-97q-2 0 -3 1t-1 3v76q0 2 1 3t3 1h36q2 0 3 -2 l5 -12q2 -5 6.5 -8t9.5 -3h36q2 0 3 -1t1 -2v-52z" />
</svg>