<svg viewBox="0 0 256 256" xmlns="http://www.w3.org/2000/svg">
  <path transform="scale(1, -1) translate(0, -256)" fill="currentColor" d="M241 101v53q0 3 -2 8l-29 70q-3 9 -11 14t-17 5h-108q-9 0 -16.5 -5t-11.5 -14l-29 -70q-2 -5 -2 -8v-53q0 -9 7 -15q-7 -8 -7 -18v-34q0 -12 8.5 -20.5t20.5 -8.5h168q12 0 20.5 8.5t8.5 20.5v34q0 11 -7 18q7 6 7 15zM227 154v-53q0 -2 -1.5 -3.5t-3.5 -1.5h-188 q-2 0 -3.5 1.5t-1.5 3.5v53q0 3 1.5 4.5t3.5 1.5h188q2 0 3.5 -1.5t1.5 -4.5zM59 226q2 5 6 8t9 3h108q5 0 9 -3t6 -8l22 -53h-183zM227 34q0 -6 -4.5 -10.5t-10.5 -4.5h-168q-6 0 -10.5 4.5t-4.5 10.5v34q0 6 4.5 10t10.5 4h168q6 0 10.5 -4t4.5 -10v-34zM68 121q3 0 5 2 t2 5v1q0 3 -2 5t-5 2t-5 -2t-2 -5v-1q0 -3 2 -5t5 -2zM172 122h25q3 0 5 2t2 5t-2 5t-5 2h-25q-3 0 -5 -2t-2 -5t2 -5t5 -2zM68 58q-3 0 -5 -2t-2 -5v-1q0 -3 2 -5t5 -2t5 2t2 5v1q0 3 -2 5t-5 2zM196 56h-24q-3 0 -5 -2.5t-2 -5.5t2 -5t5 -2h25q3 0 5 2t2 5t-2.5 5.5 t-5.5 2.5z" />
</svg>