<svg viewBox="0 0 1024 1024" xmlns="http://www.w3.org/2000/svg">
  <path transform="scale(1, -1) translate(0, -960)" fill="currentColor" d="M920 189h-6v78q0 45 -32 77t-77 32q-46 0 -77.5 -31.5t-31.5 -77.5v-78h-6q-27 0 -45.5 -19t-18.5 -45v-93q0 -26 18.5 -45t45.5 -19h228q27 0 45.5 19t18.5 45v93q2 26 -16 45t-46 19v0zM730 267q0 31 22 54t54 23q33 0 55 -22t22 -55v-78h-152v78h-1zM952 32 q0 -13 -9.5 -22.5t-22.5 -9.5h-227q-13 0 -22.5 9.5t-9.5 22.5v93q0 13 9.5 22.5t22.5 9.5h229q13 0 22.5 -9.5t9.5 -22.5v-93h-2zM238 726q14 0 23 9.5t9 22.5v4q0 13 -9 22.5t-23 9.5q-13 0 -22.5 -9.5t-9.5 -22.5v-4q0 -13 9.5 -22.5t22.5 -9.5v0zM653 744h99 q7 0 11.5 4.5t4.5 11.5t-4.5 11.5t-11.5 4.5h-98q-7 0 -11.5 -4.5t-4.5 -11.5t4.5 -11.5t10.5 -4.5zM547 312h-405q-28 0 -49 21t-21 49v135q0 29 21 49.5t49 20.5h672q29 0 50 -20.5t21 -49.5v-19q0 -8 4.5 -12t11.5 -4t11.5 4t4.5 12v19q0 23 -10 43t-25 34q15 8 25 23 t10 34v213q0 26 -19 45t-45 19h-749q-26 0 -45 -19t-19 -45v-213q0 -19 10 -34t25 -23q-17 -15 -26 -35t-9 -44v-134q0 -42 30 -72.5t72 -30.5h405q7 0 11.5 4.5t4.5 11.5q0 8 -5 13t-11 5v0zM72 864q0 13 9.5 22.5t22.5 9.5h749q13 0 22.5 -9.5t9.5 -22.5v-213 q0 -13 -9.5 -22.5t-22.5 -9.5h-749q-13 0 -22.5 9.5t-9.5 22.5v213zM206 453v-3q0 -14 9.5 -23t22.5 -9q14 0 23 9t9 23v3q0 13 -9 22.5t-23 9.5q-13 0 -22.5 -9.5t-9.5 -22.5v0z" />
</svg>