<svg viewBox="0 0 1024 1024" xmlns="http://www.w3.org/2000/svg">
  <path transform="scale(1, -1) translate(0, -960)" fill="currentColor" d="M197 688q13 0 22.5 9.5t9.5 22.5v2q0 13 -9.5 22.5t-22.5 9.5t-22.5 -9.5t-9.5 -22.5v-2q0 -13 9.5 -22.5t22.5 -9.5zM536 706h80q7 0 11.5 4t4.5 12q0 7 -4.5 11.5t-11.5 4.5h-80q-7 0 -11.5 -4.5t-4.5 -11.5q0 -8 4.5 -12t11.5 -4zM197 502q-13 0 -22.5 -9t-9.5 -23v-1 q0 -13 9.5 -22.5t22.5 -9.5t22.5 9.5t9.5 22.5v1q0 14 -9 23t-23 9zM933 362h-144q-9 0 -15.5 4.5t-10.5 12.5l-11 27v117q0 19 -8 36.5t-21 29.5q13 8 21 22t8 32v155q0 27 -19 45.5t-45 18.5h-592q-26 0 -45 -18.5t-19 -45.5v-155q0 -17 8 -31t21 -23q-13 -12 -21 -28.5 t-8 -37.5v-110q0 -36 25 -61.5t61 -25.5h370v-232q0 -24 17 -41.5t42 -17.5h386q24 0 41.5 17t17.5 42v208q0 24 -17 42t-42 18v0zM64 797q0 13 9.5 22.5t22.5 9.5h594q13 0 22.5 -9.5t9.5 -22.5v-155q0 -14 -9.5 -23t-22.5 -9h-594q-13 0 -22.5 9t-9.5 23v155zM118 358 q-22 0 -38 16t-16 39v110q0 23 16 39t38 16h548q22 0 38 -16t16 -39v-70q-6 3 -14 5.5t-15 2.5h-144q-24 0 -41.5 -17t-17.5 -42v-44h-370v0zM960 94q0 -10 -8 -18.5t-19 -8.5h-386q-11 0 -19 8.5t-8 18.5v308q0 10 8 18.5t19 8.5h144q9 0 15.5 -4.5t10.5 -13.5l6 -14v-0.5 v-1.5l11 -29q8 -16 22.5 -26t32.5 -10h144q11 0 19 -8.5t8 -19.5v-208z" />
</svg>