<svg viewBox="0 0 1024 1024" xmlns="http://www.w3.org/2000/svg">
  <path transform="scale(1, -1) translate(0, -960)" fill="currentColor" d="M947 670v178q0 34 -23 57t-57 23h-710q-34 0 -57 -23t-23 -57v-178q0 -21 11 -39.5t29 -28.5q-18 -15 -29 -36t-11 -46v-134q0 -42 30 -72.5t72 -30.5h317v-107q-34 -5 -58.5 -29.5t-29.5 -58.5h-245q-7 0 -11.5 -4.5t-4.5 -11.5t4.5 -11.5t11.5 -4.5h245q6 -37 35 -62.5 t69 -25.5t69 25.5t35 64.5h245q7 0 11.5 4t4.5 12q0 7 -4.5 11.5t-11.5 4.5h-245q-5 33 -29.5 58t-58.5 30v107h317q42 0 72 30t30 72v135q0 25 -11 46t-29 35q17 10 28.5 28t11.5 39v0zM586 74v0v0v0v0q0 -32 -22 -53t-52 -21t-52 21t-22 53v0v0v0v0q0 30 22 51.5t52 21.5 t52 -21.5t22 -51.5zM915 387q0 -29 -20.5 -49.5t-49.5 -20.5h-666q-29 0 -49.5 20.5t-20.5 49.5v135q0 28 20.5 49t49.5 21h666q29 0 49.5 -21t20.5 -49v-135zM915 670q0 -20 -13.5 -34t-34.5 -14h-710q-21 0 -34.5 14t-13.5 34v178q0 20 13.5 34t34.5 14h709q20 0 34 -14 t14 -34v-178h1zM275 795q-13 0 -22.5 -9.5t-9.5 -22.5v-3q0 -13 9.5 -22.5t22.5 -9.5t22.5 9.5t9.5 22.5v3q0 13 -9.5 22.5t-22.5 9.5zM784 778h-98q-7 0 -11.5 -4.5t-4.5 -11.5q0 -8 4.5 -12t11.5 -4h98q7 0 11.5 4t4.5 12q0 7 -5 11.5t-11 4.5zM275 490q-13 0 -22.5 -9.5 t-9.5 -22.5v-4q0 -13 9.5 -22.5t22.5 -9.5t22.5 9.5t9.5 22.5v4q0 13 -9.5 22.5t-22.5 9.5v0zM784 462h-98q-7 0 -11.5 -4t-4.5 -12q0 -7 4.5 -11.5t11.5 -4.5h98q7 0 11.5 4.5t4.5 11.5q0 8 -5 12t-11 4z" />
</svg>