<svg viewBox="0 0 256 256" xmlns="http://www.w3.org/2000/svg">
  <path transform="scale(1, -1) translate(0, -256)" fill="currentColor" d="M242 66h-10v17q0 12 -9 21t-21.5 9t-21 -9t-8.5 -21v-17h-11q-3 0 -5 -2t-2 -5v-47q0 -3 2 -5t5 -2h81q3 0 5.5 2t2.5 5v47q-1 3 -3 5t-5 2zM186 83q0 6 4.5 11t11 5t11.5 -5t5 -11v-17h-32v17zM235 19h-67v33h67v-33zM60 199q3 0 5 2t2 5v1q0 3 -2 5t-5 2t-5.5 -2 t-2.5 -5v-1q1 -3 3 -5t5 -2zM163 199h25q3 0 5 2t2 5t-2 5t-5 2h-24q-3 0 -5.5 -2t-2.5 -5t2 -5t5 -2zM137 97h-101q-6 0 -10.5 4t-4.5 11v33q0 6 4 10.5t11 4.5h168q6 0 10 -4.5t4 -10.5v-5q0 -3 2.5 -5t5.5 -2t5 2t2 5v5q0 11 -7 19q7 6 7 15v53q0 8 -5.5 13.5t-13.5 5.5 h-188q-8 0 -13.5 -5.5t-5.5 -13.5v-53q0 -9 7 -15q-7 -9 -7 -19v-33q0 -12 8.5 -20.5t20.5 -8.5h101q3 0 5 2t2 5t-2 5t-5 2zM21 232q0 2 1.5 3.5t3.5 1.5h187q2 0 3.5 -1.5t1.5 -3.5v-53q0 -2 -1.5 -3.5t-3.5 -1.5h-187q-2 0 -3.5 1.5t-1.5 3.5v53zM53 129v-1q0 -3 2 -5 t5 -2t5 2t2 5v1q0 3 -2 5t-5 2t-5 -2t-2 -5z" />
</svg>