<svg viewBox="0 0 1024 1024" xmlns="http://www.w3.org/2000/svg">
  <path transform="scale(1, -1) translate(0, -960)" fill="currentColor" d="M976 138h-48v233q0 34 -23 57t-57 23h-158v31q0 18 -8 33t-20 26q12 8 20 22t8 31v132q0 27 -19 45.5t-45 18.5h-530q-26 0 -45 -18.5t-19 -45.5v-132q0 -17 7.5 -30.5t19.5 -22.5q-12 -10 -19.5 -25.5t-7.5 -33.5v-100q0 -33 23 -56.5t57 -23.5h302v-164h-48 q-7 0 -11.5 -4.5t-4.5 -11.5q0 -8 4.5 -12t11.5 -4h610q7 0 11.5 4t4.5 12q0 7 -4.5 11.5t-11.5 4.5v0zM64 726q0 14 9.5 23t22.5 9h530q13 0 22.5 -9t9.5 -23v-132q0 -14 -9.5 -23t-22.5 -9h-530q-13 0 -22.5 9t-9.5 23v132v0zM112 334q-20 0 -34 14t-14 34v100q0 20 14 34 t34 14h498q20 0 34 -14t14 -34v-31h-164q-33 0 -56.5 -23t-23.5 -57v-37h-302v0zM883 138h-438v233q0 21 13.5 34.5t34.5 13.5h355q20 0 34 -13.5t14 -34.5v-233h-13zM184 629q13 0 22.5 9.5t9.5 22.5v1q0 14 -9.5 23t-22.5 9t-22.5 -9t-9.5 -23v-1q0 -13 9.5 -22.5 t22.5 -9.5zM491 646h72q7 0 11.5 4.5t4.5 11.5q0 8 -4.5 12t-11.5 4h-72q-7 0 -11.5 -4t-4.5 -12q0 -7 4.5 -11.5t11.5 -4.5v0zM184 467q-13 0 -22.5 -9.5t-9.5 -22.5v-1q0 -14 9.5 -23t22.5 -9t22.5 9t9.5 23v1q0 13 -9.5 22.5t-22.5 9.5v0z" />
</svg>