<svg viewBox="0 0 1024 1024" xmlns="http://www.w3.org/2000/svg">
  <path transform="scale(1, -1) translate(0, -960)" fill="currentColor" d="M992 277v139q0 26 -19 45t-45 19h-221q6 23 9.5 46t3.5 47q0 45 -12 90t-36 84q-23 39 -54 70t-68.5 52.5t-79.5 33.5q-43 12 -88 12h-6h-6h-4.5h-3.5v0h-1h-1h-2.5h-2.5q-42 -2 -83 -15q-40 -12 -75.5 -34t-65.5 -52q-29 -30 -51 -67q-24 -39 -36 -84t-12 -92 q0 -55 16.5 -107t49.5 -96q43 -60 107 -96t136 -43q-10 -9 -16.5 -21.5t-6.5 -26.5v-138q0 -26 19 -45t45 -19h544q27 0 45.5 19t18.5 45v138q0 14 -5.5 26.5t-16.5 21.5q12 9 18 21t6 27zM688 571q0 -24 -3.5 -47t-10.5 -46h-189q3 23 5.5 46t2.5 47q0 27 -2.5 54t-7.5 53 q43 6 86 16t84 24v0v0q17 -33 26 -70.5t9 -76.5zM320 357q-5 12 -8.5 23t-7.5 23q4 0 8 0.5t8 1.5v-48zM323 437q-6 0 -12 -1t-12 -1h-6q-9 34 -13.5 68.5t-4.5 69.5q0 26 2.5 52.5t7.5 52.5h2h3q20 -2 41.5 -3t42.5 -1q20 0 38 1l36 2q5 -27 7.5 -52.5t2.5 -51.5 q0 -23 -2.5 -46.5t-5.5 -46.5h-66q-22 0 -38 -12.5t-23 -30.5zM368 882q26 -41 44.5 -85t30.5 -90q-36 -3 -74.5 -2.5t-74.5 4.5v0h-1q12 45 31 88.5t44 84.5v0zM635 747q-38 -13 -78 -22.5t-82 -14.5q-11 46 -28.5 89t-41.5 83q71 -6 131 -41.5t99 -93.5v0zM330 880 q-23 -40 -40.5 -82t-27.5 -86q-37 5 -73 14t-71 21q36 54 91.5 88.5t120.5 44.5zM64 571q0 39 9.5 76.5t27.5 70.5q37 -13 76 -22.5t79 -15.5q-5 -26 -7.5 -53.5t-2.5 -55.5q0 -36 5 -71.5t13 -70.5q-36 -5 -71.5 -13t-69.5 -19q-1 0 -1.5 -1t-1.5 -1q-28 40 -42 84.5 t-14 91.5v0zM138 370q32 9 65.5 16.5t66.5 11.5q10 -30 22 -59.5t26 -56.5v-5q0 -4 0.5 -6.5t1.5 -6.5q-53 10 -99.5 37t-82.5 69v0zM960 181v-138q0 -13 -9.5 -22.5t-22.5 -9.5h-544q-13 0 -22.5 9.5t-9.5 22.5v138q0 13 9.5 22.5t22.5 9.5h544q13 0 22.5 -9.5t9.5 -22.5z M384 245q-13 0 -22.5 9.5t-9.5 22.5v139q0 13 9.5 22.5t22.5 9.5h544q13 0 22.5 -9.5t9.5 -22.5v-138q0 -13 -9.5 -22.5t-22.5 -9.5h-544v-1zM475 381q-13 0 -22.5 -9.5t-9.5 -22.5v-2q0 -13 9.5 -22.5t22.5 -9.5t22.5 9.5t9.5 22.5v2q0 13 -9.5 22.5t-22.5 9.5zM864 363 h-75q-7 0 -11.5 -4.5t-4.5 -11.5t4.5 -11.5t11.5 -4.5h75q7 0 11.5 4.5t4.5 11.5t-5 11.5t-11 4.5zM475 82q13 0 22.5 9t9.5 23v1q0 13 -9.5 22.5t-22.5 9.5t-22.5 -9.5t-9.5 -22.5v-1q0 -14 9.5 -23t22.5 -9zM789 98h75q7 0 11.5 4t4.5 12q0 7 -4.5 11.5t-11.5 4.5h-75 q-7 0 -11.5 -4.5t-4.5 -11.5q0 -8 5 -12t11 -4z" />
</svg>