<svg viewBox="0 0 1024 1024" xmlns="http://www.w3.org/2000/svg">
  <path transform="scale(1, -1) translate(0, -960)" fill="currentColor" d="M954 299h-44q-6 80 -38 149q-33 70 -84 122t-118 83q-66 31 -142 35v82h40q7 0 11.5 4t4.5 12q0 7 -4.5 11.5t-11.5 4.5h-110q-8 0 -12 -4.5t-4 -11.5q0 -8 4 -12t12 -4h38v-82q-76 -4 -142 -35q-67 -31 -118 -83t-84 -122q-32 -69 -38 -149h-44q-15 0 -26.5 -11.5 t-11.5 -26.5v-83q0 -35 24 -59.5t59 -24.5h794q35 0 59 24.5t24 59.5v83q0 15 -11.5 26.5t-26.5 11.5v0zM512 656q71 0 135 -27q64 -28 113 -76t80 -113q32 -65 38 -141h-732q6 76 37 141q32 65 81 113t113 76q64 27 135 27zM960 178q0 -22 -15 -37t-36 -15h-794 q-21 0 -36 15t-15 37v83q0 2 2 4t4 2h884q2 0 4 -2t2 -4v-83z" />
</svg>