<svg viewBox="0 0 256 256" xmlns="http://www.w3.org/2000/svg">
  <path transform="scale(1, -1) translate(0, -256)" fill="currentColor" d="M240 184v44q0 10 -7 16.5t-17 6.5h-177q-9 0 -16 -7t-7 -16v-44q0 -11 8 -18q-8 -8 -8 -20v-34q0 -11 8.5 -19.5t20.5 -8.5h76v-22q-8 -2 -14 -7.5t-8 -13.5h-58q-3 0 -5 -2t-2 -5t2 -5.5t5 -2.5h59q2 -9 10 -15.5t18 -6.5t18 6.5t10 15.5h59q3 0 5 2.5t2 5.5t-2 5t-5 2 h-59q-1 8 -7 13.5t-14 7.5v22h76q12 0 20 8.5t8 19.5v34q0 11 -8 20q9 7 9 18zM143 34q0 -6 -4.5 -10.5t-10.5 -4.5t-10.5 4.5t-4.5 10.5t4.5 10.5t10.5 4.5t10.5 -4t4.5 -11zM30 228q0 4 3 6.5t7 2.5h177q3 0 6 -2.5t3 -6.5v-44q0 -4 -2.5 -7t-6.5 -3h-178q-3 0 -6 3t-3 7 v44zM226 113q0 -6 -4.5 -10.5t-10.5 -4.5h-166q-6 0 -10.5 4.5t-4.5 10.5v33q0 6 4.5 10.5t10.5 4.5h166q6 0 10.5 -4.5t4.5 -10.5v-33zM69 199q3 0 5 2t2 5v1q0 3 -2 5t-5 2t-5 -2t-2 -5v-1q0 -3 2 -5t5 -2zM172 199h24q3 0 5 2t2 5t-2 5.5t-5 2.5h-24q-3 0 -5.5 -2.5 t-2.5 -5.5t2.5 -5t5.5 -2zM69 137q-3 0 -5 -2t-2 -5v-1q0 -3 2 -5t5 -2t5 2t2 5v1q0 3 -2 5t-5 2zM196 135h-24q-3 0 -5.5 -2t-2.5 -5t2.5 -5t5.5 -2h24q3 0 5 2t2 4.5t-2 5t-5 2.5z" />
</svg>