<svg viewBox="0 0 1024 1024" xmlns="http://www.w3.org/2000/svg">
  <path transform="scale(1, -1) translate(0, -960)" fill="currentColor" d="M952 341v213q0 7 -2 14t-4 13v1.5v1.5l-116 275q-13 31 -41 50t-63 19h-428q-34 0 -62.5 -19t-41.5 -50l-114 -273v-3t-2 -2q-2 -6 -4 -13t-2 -14v-213q0 -19 10 -34t25 -24q-17 -14 -26 -34t-9 -44v-136q0 -42 30 -72.5t72 -30.5h674q42 0 72 30.5t30 72.5v136 q0 23 -9.5 43.5t-25.5 34.5q17 9 27 24t10 34v0zM224 846q8 23 29 36.5t45 13.5h428q24 0 44 -13.5t30 -36.5l96 -228q-2 0 -4.5 0.5t-3.5 0.5h-752h-4.5t-5.5 -1l98 228v0zM920 70q0 -28 -21 -49t-49 -21h-674q-29 0 -49.5 21t-20.5 49v136q0 29 20.5 50t49.5 21h672 q29 0 49.5 -21t20.5 -50v-136h2zM920 341q0 -13 -9.5 -22.5t-22.5 -9.5h-752q-13 0 -22.5 9.5t-9.5 22.5v213q0 13 9.5 22.5t22.5 9.5h750q14 0 23 -9.5t9 -22.5v-213h2zM272 483q-13 0 -22.5 -9.5t-9.5 -22.5v-3q0 -13 9.5 -22.5t22.5 -9.5t22.5 9.5t9.5 22.5v3 q0 13 -9.5 22.5t-22.5 9.5zM786 466h-98q-7 0 -11.5 -4.5t-4.5 -11.5q0 -8 4.5 -12t11.5 -4h99q7 0 11.5 4t4.5 12q0 7 -5 11.5t-12 4.5zM272 174q-13 0 -22.5 -9t-9.5 -23v-3q0 -13 9.5 -22.5t22.5 -9.5t22.5 9.5t9.5 22.5v3q0 14 -9.5 23t-22.5 9zM786 147h-98 q-7 0 -11.5 -4.5t-4.5 -11.5t4.5 -11.5t11.5 -4.5h99q7 0 11.5 4.5t4.5 11.5t-5 11.5t-12 4.5z" />
</svg>