<svg viewBox="0 0 1024 1024" xmlns="http://www.w3.org/2000/svg">
  <path transform="scale(1, -1) translate(0, -960)" fill="currentColor" d="M952 650v214q0 26 -19 45t-45 19h-752q-26 0 -45 -19t-19 -45v-214q0 -20 10 -35t25 -23q-17 -14 -26 -34t-9 -44v-136q0 -28 13 -51t35 -36q-22 -13 -35 -36t-13 -50v-136q0 -42 30 -72.5t72 -30.5h674q42 0 72 30.5t30 72.5v136q0 27 -13 50t-35 36q22 13 35 36t13 51 v136q0 22 -9.5 43t-25.5 35q17 8 27 24t10 34v0zM920 206v-136q0 -28 -21 -49t-49 -21h-676q-28 0 -49 21t-21 49v136q0 29 20 49.5t47 21.5h2.5h2.5h674h2h2q28 -1 47 -21.5t19 -49.5zM920 379q0 -29 -20 -49t-47 -21h-2.5h-2.5h-674h-2h-2q-28 1 -48 22t-20 48v136 q0 29 21 50t50 21h673q29 0 50 -21t21 -50v-136h3zM920 650q0 -14 -9.5 -23t-22.5 -9h-752q-13 0 -22.5 9t-9.5 23v214q0 13 9.5 22.5t22.5 9.5h752q13 0 22.5 -9.5t9.5 -22.5v-214zM272 792q-13 0 -22.5 -9.5t-9.5 -22.5v-3q0 -13 9.5 -22.5t22.5 -9.5t22.5 9.5t9.5 22.5v3 q0 13 -9.5 22.5t-22.5 9.5zM787 776h-99q-7 0 -11.5 -4.5t-4.5 -11.5t4.5 -11.5t11.5 -4.5h99q7 0 11.5 4.5t4.5 11.5t-5 11.5t-11 4.5zM272 483q-13 0 -22.5 -9.5t-9.5 -22.5v-3q0 -13 9.5 -22.5t22.5 -9.5t22.5 9.5t9.5 22.5v3q0 13 -9.5 22.5t-22.5 9.5zM787 456h-99 q-7 0 -11.5 -4.5t-4.5 -11.5t4.5 -11.5t11.5 -4.5h99q7 0 11.5 4.5t4.5 11.5t-5 11.5t-11 4.5zM272 174q-13 0 -22.5 -9t-9.5 -23v-3q0 -13 9.5 -22.5t22.5 -9.5t22.5 9.5t9.5 22.5v3q0 14 -9.5 23t-22.5 9zM787 147h-99q-7 0 -11.5 -4.5t-4.5 -11.5t4.5 -11.5t11.5 -4.5h99 q7 0 11.5 4.5t4.5 11.5t-5 11.5t-11 4.5z" />
</svg>