<svg viewBox="0 0 256 256" xmlns="http://www.w3.org/2000/svg">
  <path transform="scale(1, -1) translate(0, -256)" fill="currentColor" d="M49 202q3 0 5 2.5t2 5.5v0q0 3 -2 5t-5 2t-5 -2t-2 -5v0q0 -3 2 -5.5t5 -2.5zM132 202h19q3 0 5 2.5t2 5.5t-2 5t-5 2h-19q-3 0 -5.5 -2t-2.5 -5t2.5 -5.5t5.5 -2.5zM49 155q-3 0 -5 -2t-2 -5v0q0 -3 2 -5.5t5 -2.5t5 2.5t2 5.5v0q0 3 -2.5 5t-4.5 2zM175 112 q-11 0 -19 -8t-8 -19t8 -19t19 -8t18.5 8t7.5 19t-7.5 19t-18.5 8zM175 73q-5 0 -9 3.5t-4 9t4 9t9 3.5t8.5 -3.5t3.5 -9t-3.5 -9t-8.5 -3.5zM246 71l-13 7l1 8l-1 8l13 7q3 2 4 5t0 6l-14 24q-1 3 -4.5 4t-6.5 0l-14 -8l-1 1q-5 5 -10 7v8q0 6 -3.5 9.5t-8.5 4.5q0 7 -6 15 q6 6 6 13v38q0 8 -5.5 13.5t-13.5 5.5h-145q-8 0 -13.5 -5.5t-5.5 -13.5v-38q0 -7 6 -13q-6 -8 -6 -16v-27q0 -10 7 -17t17 -7h70q-1 -2 0 -4.5t4 -4.5l13 -7v-8v-7l-14 -8q-2 -2 -3 -5t0 -6l14 -24q2 -3 5 -4t6 0l14 8l2 -1q5 -5 9 -7v-10q0 -5 4 -9t9 -4h25q6 0 9.5 4 t3.5 9v11q6 3 9 6l1 1l13 -6q4 -3 7.5 -2t5.5 4l14 24q2 3 1 6.5t-5 4.5zM19 228q0 2 1.5 3.5t3.5 1.5h146q2 0 3.5 -1.5t1.5 -3.5v-38q0 -2 -1.5 -3.5t-3.5 -1.5h-146q-2 0 -3.5 1.5t-1.5 3.5v38zM114 136l-8 -12h-77q-4 0 -7 3t-3 7v27q0 4 3 7t7 3h135q4 0 7 -2.5t3 -6.5 h-12q-5 0 -9 -4t-4 -10v-9q-5 -3 -9 -6l-2 -1l-12 7q-4 2 -7.5 1t-4.5 -4zM226 48l-10 6q-3 1 -6.5 0.5t-5.5 -2.5l-5 -4q-3 -2 -5 -3q-8 -4 -8 -12v-11h-23v10q0 9 -8 12l-10 8q-6 5 -12 1l-11 -6l-8 14l10 6q3 2 5 5t1 6v7v7q1 4 -1 7.5t-5 4.5l-10 6l9 14l11 -6 q3 -1 6 -0.5t6 2.5l2 2q5 4 7 5q8 4 8 12v9h23v-9q0 -8 8 -12q3 -2 6 -5l4 -2q5 -5 12 -1l10 6l9 -15l-10 -5q-3 -2 -4.5 -5.5t-1.5 -6.5l1 -7l-1 -7q0 -4 1.5 -7t4.5 -5l10 -5z" />
</svg>