<svg viewBox="0 0 256 256" xmlns="http://www.w3.org/2000/svg">
  <path transform="scale(1, -1) translate(0, -256)" fill="currentColor" d="M241 178v54q0 8 -5.5 13.5t-13.5 5.5h-188q-8 0 -13.5 -5.5t-5.5 -13.5v-54q0 -9 7 -14q-7 -9 -7 -19v-34q0 -13 10 -22q-5 -4 -7.5 -9.5t-2.5 -11.5v-34q0 -12 8.5 -20.5t20.5 -8.5h168q12 0 20.5 8.5t8.5 20.5v34q0 13 -10 21q4 4 7 10t3 12v34q0 11 -7 19q7 6 7 14z M29 232q0 2 1.5 3.5t3.5 1.5h188q2 0 3.5 -1.5t1.5 -3.5v-54q0 -2 -1.5 -3.5t-3.5 -1.5h-188q-2 0 -3.5 1.5t-1.5 3.5v54zM227 68v-34q0 -6 -4.5 -10.5t-10.5 -4.5h-168q-6 0 -10.5 4.5t-4.5 10.5v34q0 5 4 9.5t9 4.5h171q6 0 10 -4.5t4 -9.5zM212 96h-170q-5 1 -9 5t-4 10 v34q0 6 4.5 10.5t10.5 4.5h168q6 0 10.5 -4.5t4.5 -10.5v-34q0 -5 -4 -9.5t-10 -5.5h-1zM68 198q3 0 5 2.5t2 5.5v0q0 3 -2 5.5t-5 2.5t-5 -2.5t-2 -5.5v0q0 -3 2 -5.5t5 -2.5zM172 199h25q3 0 5 2t2 5t-2 5t-5 2h-25q-3 0 -5 -2t-2 -5t2 -5t5 -2zM68 136q-3 0 -5 -2.5 t-2 -5.5v0q0 -3 2 -5t5 -2t5 2t2 5v1q0 3 -2 5t-5 2zM197 133h-25q-3 0 -5 -2t-2 -5t2 -5t5 -2h25q3 0 5 2t2 5t-2.5 5t-4.5 2zM68 58q-3 0 -5 -2t-2 -5v-1q0 -3 2 -5t5 -2t5 2t2 5v1q0 3 -2 5t-5 2zM197 56h-25q-3 0 -5 -2t-2 -5t2 -5t5 -2h25q3 0 5 2t2 5t-2 5t-5 2z" />
</svg>