<svg viewBox="0 0 1024 1024" xmlns="http://www.w3.org/2000/svg">
  <path transform="scale(1, -1) translate(0, -960)" fill="currentColor" d="M966 483l-142 47v33q0 21 -9 39t-23 30q14 8 23 23t9 31v178q0 26 -19 45t-45 19h-650q-26 0 -45 -19t-19 -45v-176q0 -18 9 -32t23 -22q-14 -14 -23 -31.5t-9 -37.5v-119q0 -38 27.5 -65t65.5 -27h370v-37q0 -49 3.5 -83.5t10.5 -60.5q17 -64 64 -108t151 -92 q1 -1 3 -1.5t3 -0.5t3 0.5t3 1.5q150 69 189 138t39 220v139q0 4 -3.5 8t-8.5 5v0zM78 864q0 13 9.5 22.5t22.5 9.5h650q13 0 22.5 -9.5t9.5 -22.5v-176q0 -13 -9.5 -22.5t-22.5 -9.5h-650q-13 0 -22.5 9.5t-9.5 22.5v176v0zM139 384q-25 0 -43 18t-18 43v118q0 25 18 43 t43 18h592q25 0 43 -18t18 -43v-22l-43 14q-3 1 -5 1t-5 -1l-217 -72q-5 -1 -8.5 -5.5t-3.5 -10.5v-83h-371v0zM946 328q0 -139 -32.5 -200.5t-169.5 -125.5q-91 44 -132.5 83t-56.5 93q-6 24 -9.5 56.5t-3.5 79.5v142l202 66l202 -66v-128v0zM224 744q13 0 22.5 9.5 t9.5 22.5v2q0 13 -9.5 22.5t-22.5 9.5t-22.5 -9.5t-9.5 -22.5v-2q0 -13 9.5 -22.5t22.5 -9.5zM590 762h87q7 0 11.5 4t4.5 12q0 7 -4.5 11.5t-11.5 4.5h-87q-7 0 -11.5 -4.5t-4.5 -11.5q0 -8 4.5 -12t11.5 -4zM224 539q-13 0 -22.5 -9.5t-9.5 -22.5v-1q0 -14 9.5 -23 t22.5 -9t22.5 9t9.5 23v1q0 13 -9.5 22.5t-22.5 9.5z" />
</svg>