<svg viewBox="0 0 1024 1024" xmlns="http://www.w3.org/2000/svg">
  <path transform="scale(1, -1) translate(0, -960)" fill="currentColor" d="M976 230h-82q-3 75 -32 140q-30 66 -79.5 115t-114.5 79q-66 30 -140 33v86q0 7 -4.5 11.5t-11.5 4.5t-11.5 -4.5t-4.5 -11.5v-86q-74 -3 -140 -33q-65 -30 -114.5 -79t-79.5 -115q-29 -65 -32 -140h-82q-7 0 -11.5 -4t-4.5 -12q0 -7 4.5 -11.5t11.5 -4.5h928 q7 0 11.5 4.5t4.5 11.5q0 8 -4.5 12t-11.5 4zM512 565q71 0 133 -26q63 -26 110 -71.5t76 -106.5q28 -61 31 -131h-700q3 70 31 131q29 61 76 106.5t110 71.5q62 26 133 26v0z" />
</svg>