<svg viewBox="0 0 256 256" xmlns="http://www.w3.org/2000/svg">
  <path transform="scale(1, -1) translate(0, -256)" fill="currentColor" d="M238 94h-8q-2 26 -15.5 47.5t-34 34.5t-45.5 15v15h7q3 0 5 2t2 5t-2 5t-5 2h-28q-3 0 -5 -2t-2 -5t2 -5t5 -2h7v-15q-24 -2 -45 -15t-34.5 -34.5t-15.5 -47.5h-8q-5 0 -9 -3.5t-4 -8.5v-21q0 -10 7 -17t17 -7h198q10 0 17 7t7 17v21q0 4 -3.5 8t-9.5 4zM128 177 q22 0 41.5 -11t31.5 -30t15 -42h-176q3 23 15 42t31.5 30t41.5 11zM237 60q0 -3 -2.5 -6t-6.5 -3h-199q-4 0 -7 3t-3 6v20h218v-20z" />
</svg>