<svg viewBox="0 0 1024 1024" xmlns="http://www.w3.org/2000/svg">
  <path transform="scale(1, -1) translate(0, -960)" fill="currentColor" d="M877 382h-315q-40 0 -68 -28t-28 -68v-222q0 -40 28 -68t68 -28h315q39 0 67.5 28t28.5 68v222q1 40 -28 68t-68 28zM496 286q0 27 19 45.5t45 18.5h315q27 0 45.5 -18.5t18.5 -45.5v-161l-129 65q-4 3 -7.5 2.5t-7.5 -2.5l-293 -156q-3 7 -5.5 15t-2.5 17v220h2zM877 0 h-315q-9 0 -17 2.5t-15 7.5l276 148l124 -62q3 -1 6.5 -1t7.5 1v-32q-1 -26 -21 -45t-46 -19v0zM237 738q13 0 22.5 9t9.5 23v3q0 13 -9.5 22.5t-22.5 9.5t-22.5 -9.5t-9.5 -22.5v-3q0 -14 9.5 -23t22.5 -9zM622 754h92q7 0 11.5 4t4.5 12q0 7 -4.5 11.5t-11.5 4.5h-92 q-7 0 -11.5 -4.5t-4.5 -11.5q0 -8 5 -12t11 -4zM336 354h-189q-26 0 -45 18.5t-19 45.5v126q0 26 19 45t45 19h626q26 0 45 -19t19 -45v-18q0 -7 4.5 -11.5t11.5 -4.5t11.5 4.5t4.5 11.5v18q0 24 -10.5 44t-28.5 33q17 11 28 28t11 39v160q0 34 -23.5 57t-56.5 23h-658 q-33 0 -56.5 -23t-23.5 -57v-158q0 -22 11 -40t28 -28q-18 -14 -29 -34t-11 -44v-125q0 -39 28 -67.5t68 -28.5h190q7 0 11.5 4.5t4.5 11.5t-5 11t-11 4v0zM83 848q0 20 14 34t34 14h659q21 0 34.5 -14t13.5 -34v-158q0 -21 -13.5 -34.5t-34.5 -13.5h-659q-20 0 -34 13.5 t-14 34.5v158v0zM205 485v-3q0 -14 9.5 -23t22.5 -9t22.5 9t9.5 23v3q0 13 -9.5 22.5t-22.5 9.5t-22.5 -9.5t-9.5 -22.5zM622 517q-7 0 -11.5 -4.5t-4.5 -11.5t4.5 -11.5t11.5 -4.5h92q7 0 11.5 4.5t4.5 11.5t-4.5 11.5t-11.5 4.5h-92zM613 208q13 0 22.5 9.5t9.5 22.5v3 q0 13 -9.5 22.5t-22.5 9.5t-22.5 -9.5t-9.5 -22.5v-3q0 -13 9.5 -22.5t22.5 -9.5z" />
</svg>