<svg viewBox="0 0 256 256" xmlns="http://www.w3.org/2000/svg">
  <path transform="scale(1, -1) translate(0, -256)" fill="currentColor" d="M242 140l-33 11v6q0 9 -7 17q7 6 7 14v44q0 8 -5.5 13.5t-13.5 5.5h-162q-8 0 -13.5 -5.5t-5.5 -13.5v-44q0 -8 6 -14q-6 -7 -6 -17v-30q0 -11 7.5 -18.5t18.5 -7.5h89v-6q0 -23 4 -37q5 -17 17 -28.5t38 -23.5q2 -1 3 -1t3 1q26 12 38 23.5t16 27.5q4 14 4 41v35 q0 5 -5 7zM23 232q0 2 1.5 3.5t3.5 1.5h162q2 0 4 -1.5t2 -3.5v-44q0 -2 -2 -3.5t-4 -1.5h-162q-2 0 -4 1.5t-2 3.5v44h1zM35 115q-5 0 -8.5 3.5t-3.5 8.5v29q0 5 3.5 8.5t8.5 3.5h148q5 0 8.5 -3.5t3.5 -8.5v-1l-7 3h-4l-55 -18q-2 -1 -3.5 -3t-1.5 -4v-18h-89zM233 98 q0 -25 -2 -36q-4 -14 -13.5 -23t-31.5 -19q-22 10 -32 19t-13 22q-2 11 -3 33v34l48 16l47 -16v-30zM56 203q3 0 5 2t2 5v1q0 3 -2 5t-5 2t-5 -2t-2 -5v-1q0 -3 2 -5t5 -2zM148 204h21q3 0 5 2t2 5t-2 5t-5 2h-21q-3 0 -5.5 -2t-2.5 -5t2.5 -5t5.5 -2zM56 150q-3 0 -5 -2.5 t-2 -5.5v0q0 -3 2 -5t5 -2t5 2t2 5v0q0 3 -2 5.5t-5 2.5z" />
</svg>