<svg viewBox="0 0 1024 1024" xmlns="http://www.w3.org/2000/svg">
  <path transform="scale(1, -1) translate(0, -960)" fill="currentColor" d="M195 741q13 0 22.5 9.5t9.5 22.5v1q0 14 -9.5 23t-22.5 9t-22.5 -9t-9.5 -23v-1q0 -13 9.5 -22.5t22.5 -9.5zM526 758h79q7 0 11.5 4.5t4.5 11.5q0 8 -4.5 12t-11.5 4h-79q-7 0 -11.5 -4t-4.5 -12q0 -7 5 -11.5t11 -4.5zM195 560q-13 0 -22.5 -9.5t-9.5 -22.5v-2 q0 -13 9.5 -22.5t22.5 -9.5t22.5 9.5t9.5 22.5v2q0 13 -9.5 22.5t-22.5 9.5zM699 371q-38 0 -66 -27.5t-28 -66.5q0 -40 27.5 -67.5t66.5 -27.5q40 0 67.5 27.5t27.5 67.5q0 39 -28 66.5t-67 27.5zM699 214q-25 0 -43.5 19t-18.5 44t18 43.5t44 18.5q27 0 45 -18.5t18 -43.5 t-19 -44t-44 -19zM981 211l-59 34q1 8 2 17.5t1 17.5q0 10 -1 18.5t-2 18.5l59 33q7 5 10 13t-1 16l-57 96q-5 7 -13 9.5t-16 0.5l-62 -35q-4 2 -7 4.5t-6 4.5q-9 7 -17 13t-18 11q-3 1 -4 3.5t-1 4.5v37q0 17 -12.5 29.5t-29.5 12.5h-9v9q0 19 -8 35.5t-21 28.5q13 9 21 23 t8 32v150q0 26 -19 45t-45 19h-578q-26 0 -45 -19t-19 -45v-150q0 -17 8 -31t21 -22q-13 -12 -21 -28.5t-8 -35.5v-107q0 -35 25 -60t60 -25h296l-3 -7q-3 -3 -3 -7.5t1 -9.5t3.5 -8.5t7.5 -6.5l59 -33q-1 -9 -2 -17.5t-1 -17.5q0 -10 0.5 -18.5t1.5 -17.5v0v0l-61 -36 q-7 -5 -10 -13t0 -16l58 -96q5 -7 12.5 -9.5t16.5 -0.5l62 35q4 -2 6.5 -4.5l4.5 -4.5q9 -7 17 -13.5t20 -12.5q3 -1 4 -3t1 -5v-43q0 -17 12.5 -29.5t29.5 -12.5h100q17 0 29.5 12.5t12.5 29.5v43q0 3 1 5t4 3q11 5 19 11.5t16 12.5q2 3 5.5 5t5.5 5l56 -32q13 -7 22 -4 t13 10l56 95q3 3 3 7.5t-1 9.5q-2 6 -5 10t-6 6v0zM64 848q0 13 9.5 22.5t22.5 9.5h581q13 0 22.5 -9.5t9.5 -22.5v-150q0 -14 -9.5 -23t-22.5 -9h-581q-13 0 -22.5 9t-9.5 23v150zM117 419q-22 0 -37.5 15.5t-15.5 37.5v107q0 22 15.5 37.5t37.5 15.5h537q22 0 37.5 -15.5 t15.5 -37.5v-9h-59q-17 0 -29.5 -12.5t-12.5 -29.5v-38q0 -3 -1 -5t-3 -3q-11 -5 -19 -12t-17 -14l-4.5 -4.5t-4.5 -5.5l-56 32q-13 8 -22.5 4.5t-12.5 -10.5l-32 -54h-317v1zM910 110l-52 31q-9 5 -18.5 4t-17.5 -7l-6 -6l-6 -6q-8 -6 -14 -11t-14 -9q-10 -5 -17 -15 t-7 -22v-43q0 -4 -3 -7t-6 -3h-101q-4 0 -7 3t-3 7v43q0 12 -6.5 22t-17.5 15q-8 3 -14.5 8t-13.5 12q-3 3 -6.5 5.5t-6.5 4.5q-5 4 -10 5t-9 1t-8.5 -1t-7.5 -3l-53 -29l-47 78l52 29q8 5 12.5 14t3.5 20v0q-2 7 -2 15v15v15.5t2 14.5q2 11 -3 21t-13 15l-52 27l45 78 l53 -29q8 -4 18 -3t17 7q4 2 6.5 4.5l4.5 4.5q8 6 14.5 11.5t14.5 9.5q11 5 17.5 15t6.5 22v38q0 4 3 7t7 3h101q3 0 6 -3t3 -7v-37q0 -12 6.5 -22t17.5 -14q9 -4 14.5 -9t12.5 -12q4 -3 7 -5.5t6 -5.5q7 -6 17 -7t18 3l53 31l47 -79l-52 -28q-9 -5 -13.5 -15t-2.5 -21 q2 -7 2 -14.5v-15.5q0 -7 -1 -15t-2 -15q-1 -11 3 -20.5t13 -15.5l49 -27z" />
</svg>