<svg viewBox="0 0 1024 1024" xmlns="http://www.w3.org/2000/svg">
  <path transform="scale(1, -1) translate(0, -960)" fill="currentColor" d="M624 194h-6.5h-6.5q-62 2 -120 27t-102 69q68 30 112.5 93.5t44.5 142.5q0 81 -45.5 145.5t-114.5 93.5q46 47 108.5 73t129.5 26q70 0 131 -26q61 -27 106.5 -72.5t72.5 -106.5q26 -61 26 -131q0 -66 -24.5 -126.5t-69.5 -107.5q-5 -4 -5 -10.5t5 -11.5q2 -2 4.5 -3.5 t6.5 -1.5q3 0 6 1.5t5 3.5q50 52 77 118t27 138q0 76 -29 143t-79 117t-117 79t-143 29q-78 0 -149 -32t-123 -90q-16 4 -31.5 6t-30.5 2q-54 0 -101 -20t-82 -55t-55 -81q-20 -47 -20 -100q0 -52 20 -99t55 -82t82 -56q47 -20 101 -20q18 0 34.5 2.5t32.5 6.5 q49 -52 115.5 -82.5t138.5 -33.5h6.5h6.5q7 0 11.5 4t4.5 12q0 7 -4.5 11.5t-11.5 4.5v0zM64 526q0 47 18 88q17 41 48 72t72 48q41 18 88 18q46 0 87 -18q42 -17 72.5 -48t48.5 -72q17 -41 17 -88q0 -46 -17 -87q-18 -42 -48.5 -72.5t-71.5 -48.5q-42 -17 -88 -17 q-47 0 -88 17q-41 18 -72 48.5t-48 71.5q-18 42 -18 88v0zM328 542h-112q-7 0 -11.5 -4t-4.5 -12q0 -7 4.5 -11.5t11.5 -4.5h112q7 0 11.5 4.5t4.5 11.5q0 8 -4.5 12t-11.5 4zM826 526q0 8 -4.5 12t-11.5 4h-112q-8 0 -12 -4t-4 -12q0 -7 4 -11.5t12 -4.5h112q6 0 11 4.5 t5 11.5zM734 296q-3 4 -7.5 5t-9.5 -2q-5 -2 -7.5 -6.5t-2.5 -9.5l18 -269q0 -4 3 -8t8 -6q1 0 2.5 -1t2.5 -1q3 0 6 1.5t5 3.5l67 72l99 5q5 0 8.5 3t6.5 8q1 5 0 9.5t-3 8.5l-196 187v0zM811 109q-3 0 -6 -1.5t-5 -3.5l-46 -50l-13 191l139 -133z" />
</svg>