<svg viewBox="0 0 256 256" xmlns="http://www.w3.org/2000/svg">
  <path transform="scale(1, -1) translate(0, -256)" fill="currentColor" d="M156 67h-3q-28 1 -50 20q17 9 27 25t10 35.5t-10.5 35.5t-27.5 25q11 10 25 15.5t29 5.5q22 0 40.5 -11t29.5 -29.5t11 -40.5q0 -16 -6 -30.5t-17 -25.5q-2 -2 -2 -5t2 -5t4.5 -2t5.5 2q13 13 20 30t7 36q0 26 -13 48t-34.5 34.5t-47.5 12.5q-20 0 -38 -7.5t-31 -22.5 q-7 2 -15 2q-18 0 -33.5 -9t-24.5 -24.5t-9 -34t9 -34t24.5 -24.5t33.5 -9q8 0 16 2q13 -13 30 -20.5t35 -8.5h3q3 0 5.5 2t2.5 5t-2.5 5t-5.5 2zM19 148q0 14 7.5 26.5t19.5 19.5t26.5 7t26.5 -7.5t19.5 -19.5t7.5 -26.5t-7.5 -26.5t-19.5 -19.5t-26.5 -7.5t-26.5 7.5 t-19.5 19.5t-7.5 27zM82 154h-28q-3 0 -5 -2t-2 -5t2 -5t5 -2h28q3 0 5 2t2 5t-2 5t-5 2zM202 140q3 0 5.5 2.5t2.5 5.5t-2.5 5t-5.5 2h-28q-3 0 -5 -2t-2 -5t2 -5.5t5 -2.5h28zM186 92q-2 1 -4 1.5t-4 -0.5t-3 -2.5t-1 -4.5l4 -67q0 -2 1.5 -3.5t3.5 -2.5h3q2 0 5 2l16 17 l23 2q2 0 4 1t2 3q2 5 -1 8zM203 46q-3 0 -5 -2l-7 -8l-2 34l24 -23z" />
</svg>