<svg viewBox="0 0 256 256" xmlns="http://www.w3.org/2000/svg">
  <path transform="scale(1, -1) translate(0, -256)" fill="currentColor" d="M244 172h-20l-21 50q-2 6 -8 6t-8 -6l-18 -48l-9 21q-2 4 -6 4h-25q-3 0 -5 -2t-2 -5t2 -5t5 -2h20l12 -29q1 -2 3 -3.5t4.5 -1.5t5 1.5t2.5 3.5l19 48l18 -42q2 -4 6 -4h25q3 0 5 2t2 5t-2 5t-5 2zM226 90q-4 12 -14 17.5t-21 2.5q-30 -8 -47 -14q2 7 0 13t-8 9.5 t-13 3.5h-38q-6 0 -11.5 5t-13.5 5h-32q-9 0 -16 -7t-7 -17v-50q0 -10 7 -17t17 -7h37q7 0 13 4h1q17 -10 35 -10q11 0 22 4l69 21q14 5 18.5 15.5t1.5 21.5zM29 48q-4 0 -7 3t-3 7v50q0 4 3 7t6 3h31q2 0 5 -2l4 -3v-65h-39zM202 66l-69 -21q-10 -3 -17 -3q-16 0 -29 7 l-5 3v56h41q3 0 5 -1.5t2.5 -3t-1.5 -5t-6.5 -8t-2.5 -8.5t4 -4.5t10 2.5l60 17q6 1 11 -2t7 -9q4 -15 -10 -20z" />
</svg>