<svg viewBox="0 0 1024 1024" xmlns="http://www.w3.org/2000/svg">
  <path transform="scale(1, -1) translate(0, -960)" fill="currentColor" d="M976 614h-86l-90 207q-2 6 -8 10t-13 3q-7 0 -12 -4.5t-9 -10.5l-84 -217l-47 108q-2 5 -5.5 7.5t-8.5 2.5h-99q-8 0 -12 -4.5t-4 -11.5t4 -11.5t12 -4.5h88l52 -122q3 -6 8.5 -9t11.5 -3v0v0q6 0 11 4t8 10l85 219l86 -195q2 -5 6 -7.5t8 -2.5h98q7 0 11.5 4.5t4.5 11.5 q0 8 -4.5 12t-11.5 4v0zM891 294q-13 41 -49 62t-76 10q-49 -14 -110.5 -32t-103.5 -30q13 22 14.5 38.5t-3.5 28.5q-8 22 -29.5 32t-42.5 10h-153q-14 0 -26 5.5t-26 16.5q-10 10 -23 14.5t-26 4.5h-123q-34 0 -58 -25t-24 -61v-197q0 -36 24 -62t59 -26h149q14 0 27.5 5 t25.5 14l9 -4q32 -17 66 -26.5t69 -9.5q21 0 42 3.5t41 9.5l277 85q54 19 67 58.5t3 75.5v0v0zM115 115q-21 0 -36 16.5t-15 39.5v195q0 23 14.5 39t35.5 16h123q8 0 15.5 -2.5t13.5 -8.5q4 -5 9 -8.5t10 -6.5v-275q-5 -2 -10.5 -3.5t-10.5 -1.5h-149v0zM811 189l-277 -85 q-16 -6 -35 -8.5t-38 -2.5q-31 0 -62 8t-58 22l-21 11l-5 2v245q5 -1 10.5 -2t10.5 -1h154q12 0 25 -6t16 -15q5 -12 -4.5 -31.5t-32.5 -40.5l-9 -8l6 -11q5 -10 24 -6t127 36q49 14 90 26l41 12q26 8 50.5 -6t34.5 -43q6 -16 2.5 -47t-49.5 -49v0z" />
</svg>