<svg viewBox="0 0 1024 1024" xmlns="http://www.w3.org/2000/svg">
  <path transform="scale(1, -1) translate(0, -960)" fill="currentColor" d="M51 749l138 -104q2 -1 4.5 -2t4.5 -1q4 0 7.5 1t5.5 5q4 5 3 12t-6 10l-131 98h269q79 0 134.5 -55.5t55.5 -134.5v-258q0 -7 4.5 -11.5t11.5 -4.5t11.5 4.5t4.5 11.5v259q0 46 -17 87q-18 40 -48 70.5t-71 47.5q-40 18 -86 18h-272l132 97q5 4 6 11t-2 12q-4 4 -11 5 t-12 -2l-134 -101q-10 -7 -15.5 -16.5t-5.5 -20.5t5.5 -21t13.5 -17v0zM976 338q-7 0 -11.5 -4.5t-4.5 -11.5v-248q0 -30 -22 -52t-52 -22h-748q-30 0 -52 22t-22 52v248q0 7 -4.5 11.5t-11.5 4.5t-11.5 -4.5t-4.5 -11.5v-248q0 -45 30.5 -75.5t75.5 -30.5h748q44 0 75 30.5 t31 75.5v248q0 6 -4.5 11t-11.5 5z" />
</svg>