<svg viewBox="0 0 256 256" xmlns="http://www.w3.org/2000/svg">
  <path transform="scale(1, -1) translate(0, -256)" fill="currentColor" d="M11 201l35 -26q1 -1 4.5 -1t5 2.5t1 5t-2.5 4.5l-26 19h58q19 0 32 -13t13 -31v-65q0 -3 2 -5t5 -2t5 2t2 5v65q0 16 -8 29.5t-21 21t-29 7.5h-59l26 19q2 2 2.5 4.5t-1 5t-4.5 3t-5 -1.5l-35 -25q-6 -4 -6 -11t6 -12zM244 103q-3 0 -5 -2t-2 -5v-62q0 -6 -4.5 -10.5 t-10.5 -4.5h-188q-6 0 -10.5 4.5t-4.5 10.5v62q0 3 -2 5.5t-5 2.5t-5 -2.5t-2 -5.5v-62q0 -12 8.5 -20.5t20.5 -8.5h187q12 0 20.5 8.5t8.5 20.5v62q1 3 -1 5t-5 2z" />
</svg>