<svg viewBox="0 0 256 256" xmlns="http://www.w3.org/2000/svg">
  <path transform="scale(1, -1) translate(0, -256)" fill="currentColor" d="M118 89q3 0 5 2t2 5v65q0 18 13 31t31 13h59l-26 -19q-2 -2 -2.5 -4.5t1 -5t4.5 -2.5t5 1l34 26q7 4 6.5 11.5t-6.5 11.5l-34 25q-2 2 -5 1.5t-4.5 -2.5t-1 -5t2.5 -5l26 -19h-59q-16 0 -29.5 -8t-21 -21t-7.5 -29v-65q0 -3 2 -5t5 -2zM244 103q-3 0 -5 -2t-2 -5v-62 q0 -6 -4.5 -10.5t-10.5 -4.5h-188q-6 0 -10.5 4.5t-4.5 10.5v62q0 3 -2 5.5t-5 2.5t-5 -2.5t-2 -5.5v-62q0 -12 8.5 -20.5t20.5 -8.5h187q12 0 20.5 8.5t8.5 20.5v62q1 3 -1 5t-5 2z" />
</svg>