<svg viewBox="0 0 256 256" xmlns="http://www.w3.org/2000/svg">
  <path transform="scale(1, -1) translate(0, -256)" fill="currentColor" d="M198 170q-11 0 -20.5 -5.5t-15.5 -14.5l-68 38q6 10 6 20q0 18 -12.5 30.5t-30 12.5t-30 -12.5t-12.5 -30t12.5 -30t29.5 -12.5t29 11l71 -39q-1 -5 -1 -10q0 -14 7 -24l-65 -44q-4 13 -15 21.5t-25 8.5q-18 0 -30.5 -12.5t-12.5 -30t12.5 -30t29.5 -12.5t29 11.5 t14 27.5l73 50q11 -8 26 -8q17 0 29.5 12.5t12.5 29.5t-12.5 29.5t-30.5 12.5zM58 180q-12 0 -20.5 8.5t-8.5 20t8.5 20t20 8.5t20 -8.5t8.5 -20t-8.5 -20t-19.5 -8.5zM58 19q-12 0 -20.5 8.5t-8.5 20t8.5 20t20 8.5t20 -8.5t8.5 -20.5t-8.5 -20t-19.5 -8zM198 99 q-11 0 -19.5 8.5t-8.5 20t8.5 20t20 8.5t20 -8.5t8.5 -20t-8.5 -20t-20.5 -8.5z" />
</svg>