<svg viewBox="0 0 1024 1024" xmlns="http://www.w3.org/2000/svg">
  <path transform="scale(1, -1) translate(0, -960)" fill="currentColor" d="M179 -32h-4.5t-4.5 2q-12 2 -22 11t-12 21l-3 12q-12 42 -7.5 86t24.5 82l-19 20q-47 45 -73 106.5t-26 126.5q0 67 25 128t73 107q46 48 107 73t128 25h57v115q0 17 12 31t35 14q72 0 128 -45t72 -115h278q19 0 32 -13.5t13 -31.5q0 -66 -25 -124q-26 -58 -69.5 -101.5 t-101.5 -69.5q-58 -25 -124 -25h-67q-24 -23 -63 -40t-91 -29q-43 -9 -74.5 -13t-34.5 -4q-13 -1 -24.5 5t-18.5 17t-6 24t8 24l11 16h-85q0 -11 3.5 -25.5t11.5 -30.5q2 -6 0 -12t-8 -9q-6 -2 -12.5 0t-8.5 8q-11 24 -15 49t0 41q2 5 6 8t10 3h130q5 0 8.5 -2t5.5 -6 q3 -3 2 -7.5t-3 -8.5l-29 -43q-4 -5 -2.5 -9t2.5 -5q1 -2 4 -4.5t9 -2.5q1 0 32 3.5t72 12.5q50 12 86 28.5t58 37.5q2 2 4.5 3.5t6.5 1.5h72q59 0 112 22q52 23 91.5 62t61.5 92q23 52 23 112q0 4 -4 8t-9 4h-293q-6 0 -10 4t-6 9q-9 65 -58 107t-111 42q-9 0 -12 -4.5 t-3 -8.5v-131q0 -7 -4 -11.5t-12 -4.5h-73q-60 0 -115 -23t-98 -65t-65.5 -97.5t-22.5 -115.5q0 -59 24 -115t66 -98l27 -27q3 -3 4 -8.5t-3 -10.5q-21 -35 -26 -75t6 -79l3 -12q1 -5 4.5 -7t4.5 -3h6t7 5l111 137q1 3 3 4t5 1q58 19 105 30t59 13q4 3 4.5 6t0.5 6 q0 2 -0.5 5t-5.5 6q-6 2 -8 8.5t1 12.5t9 8t12 -2q12 -6 19 -16.5t7 -23.5t-7 -23.5t-19 -16.5h-1h-2l-48.5 -10t-109.5 -30l-108 -134q-7 -9 -16 -13.5t-19 -4.5v0z" />
</svg>