<svg viewBox="0 0 1024 1024" xmlns="http://www.w3.org/2000/svg">
  <path transform="scale(1, -1) translate(0, -960)" fill="currentColor" d="M981 290q-15 45 -54 67.5t-82 10.5q-58 -17 -127 -37.5t-115 -32.5q17 25 18 44t-3 32q-10 23 -33 34t-46 11h-169q-15 0 -29.5 6.5t-28.5 19.5q-11 11 -25 16t-29 5h-136q-38 -2 -64 -29t-26 -66v-217q0 -40 27 -68t64 -28h165q16 0 30 5.5t28 16.5l12 -6 q34 -20 72 -29.5t77 -9.5q24 0 47 3.5t44 11.5l308 94q58 20 72 63t3 83v0v0zM123 90q-24 0 -41.5 18.5t-17.5 45.5v217q0 25 17 43t41 18h137q10 0 18 -3.5t14 -9.5q6 -5 11.5 -9.5t11.5 -7.5v-306q-6 -2 -12.5 -4t-13.5 -2h-165v0zM896 173l-307 -95q-19 -6 -39.5 -9 t-42.5 -3q-35 0 -69 8t-64 25l-24 13l-6 2v275l12 -2t12 -1h170q14 0 28.5 -6.5t19.5 -19.5q6 -14 -5.5 -35t-36.5 -47l-10 -8l7 -11q5 -9 25.5 -5t139.5 39q55 15 100 29l45 14q30 8 58.5 -8t37.5 -48q7 -18 4 -53t-55 -54v0zM976 702h-142v144q0 8 -4.5 12t-11.5 4 q-8 0 -12 -4t-4 -12v-142h-143q-7 0 -11.5 -4.5t-4.5 -11.5t4.5 -11.5t11.5 -4.5h143v-144q0 -7 4 -11.5t12 -4.5q7 0 11.5 4.5t4.5 11.5v142h142q7 0 11.5 4.5t4.5 11.5q0 8 -4.5 12t-11.5 4z" />
</svg>