<svg viewBox="0 0 1024 1024" xmlns="http://www.w3.org/2000/svg">
  <path transform="scale(1, -1) translate(0, -960)" fill="currentColor" d="M470 306q8 0 12 4t4 12v257q0 79 56 135t135 56h269l-132 -98q-4 -4 -5 -11t2 -11t6 -5.5t7 -1.5q2 0 4.5 1t5.5 2l137 104q10 8 15.5 18t3.5 19q0 11 -5.5 20.5t-14.5 16.5l-138 101q-5 3 -12 2t-10 -5q-4 -5 -3 -12t6 -11l133 -97h-272q-47 0 -87 -18 q-41 -17 -71 -47.5t-47 -70.5q-18 -41 -18 -87v-257q3 -8 7.5 -12t11.5 -4v0zM976 338q-7 0 -11.5 -4.5t-4.5 -11.5v-248q0 -30 -22 -52t-52 -22h-748q-30 0 -52 22t-22 52v248q0 7 -4.5 11.5t-11.5 4.5t-11.5 -4.5t-4.5 -11.5v-248q0 -45 30.5 -75.5t75.5 -30.5h748 q44 0 75 30.5t31 75.5v248q0 6 -4.5 11t-11.5 5z" />
</svg>