<svg viewBox="0 0 1024 1024" xmlns="http://www.w3.org/2000/svg">
  <path transform="scale(1, -1) translate(0, -960)" fill="currentColor" d="M614 462q3 0 4.5 0.5t3.5 1.5q5 2 51.5 31.5t97.5 77.5q28 -24 62 -50.5t76 -56.5q6 -4 12.5 -3t9.5 6q4 6 3 12.5t-6 9.5q-41 29 -74.5 54.5t-59.5 49.5q39 41 69 89.5t30 101.5q0 49 -29.5 91.5t-101.5 42.5q-12 0 -36 -7.5t-44 -27.5q-18 -18 -26.5 -43t-7.5 -56 q1 -48 24.5 -93.5t76.5 -97.5q-51 -45 -95.5 -73.5t-45.5 -28.5q-6 -4 -8 -10.5t2 -12.5q1 -3 4.5 -5.5t7.5 -2.5zM678 786q-1 25 5.5 44t18.5 32q18 20 38 23l20 3q67 0 83 -40t16 -62q0 -45 -26.5 -88t-62.5 -80q-48 46 -69 86t-23 82zM987 232v0q-14 46 -53.5 69t-82.5 9 q-59 -16 -129 -37t-116 -33q17 25 19 44.5t-4 32.5q-10 23 -33 34t-46 11h-171q-14 0 -28.5 6t-28.5 19q-11 11 -25 16t-30 5h-137q-38 0 -64 -27.5t-26 -66.5v-220q0 -39 27 -67.5t64 -28.5h167q15 0 30 6t27 17l13 -7q34 -19 72 -28.5t77 -9.5q24 0 46.5 3.5t44.5 10.5 l310 95q59 21 73.5 64t3.5 83v0zM123 30q-25 0 -42 19t-17 45v221q0 25 17 44t41 19h137q10 0 18 -3.5t14 -9.5q6 -5 11.5 -9.5t11.5 -8.5v-309q-6 -3 -12.5 -4.5t-13.5 -1.5h-165v-2zM901 114l-309 -93q-19 -6 -39.5 -9.5t-42.5 -3.5q-34 0 -68.5 8.5t-65.5 26.5l-22 13 l-7 2v275q6 -1 12.5 -2t13.5 -1h171q14 0 29 -6.5t21 -19.5q6 -14 -5.5 -35t-36.5 -47l-10 -8l7 -11q5 -9 26 -5t140 39q55 15 100.5 29l45.5 14q30 8 58.5 -8t38.5 -50q3 -13 0 -50.5t-57 -57.5v0z" />
</svg>