<svg viewBox="0 0 256 256" xmlns="http://www.w3.org/2000/svg">
  <path transform="scale(1, -1) translate(0, -256)" fill="currentColor" d="M84 106q2 0 8 1q9 1 18 3q25 6 34 16q2 2 5 2h19q19 0 34.5 9t25 25t9.5 35h-73q-3 0 -5 2t-2 4q-2 15 -13.5 24.5t-25.5 9.5h-1v-33q0 -3 -2 -5t-5 -2h-19q-14 0 -27.5 -5.5t-23.5 -15.5t-15.5 -23.5t-5.5 -27.5t5.5 -27.5t15.5 -23.5l7 -7q2 -2 2.5 -4.5t-1.5 -4.5 q-4 -8 -5.5 -17.5t1.5 -18.5v-3h1l27 34q2 2 4 3q17 5 39 10h1q-3 2 -3.5 4.5t0.5 5t4 3.5t6 -0.5t5 -5t2 -7.5t-2 -7.5t-6 -5.5l-14 -3q-14 -3 -26 -7l-27 -33q-4 -5 -11 -5h-3q-4 1 -7 3.5t-4 6.5v3q-7 22 3 43l-2 3q-12 12 -19 28t-7 33t6.5 33t18.5 28t28 18.5t33 6.5 h11v26q0 6 4.5 10t10.5 4q18 0 33 -11t20 -29h67q6 0 10.5 -4t4.5 -10q0 -23 -11.5 -42t-30.5 -30t-42 -11h-16q-12 -11 -39 -18q-9 -2 -18 -3l-9 -1q-5 0 -8.5 2t-5.5 5t-2 7t2 8h-12q1 -6 2.5 -9.5t0.5 -6t-3.5 -4t-5 -0.5t-3.5 4q-3 5 -4.5 12t0.5 12q0 3 2 4.5t5 1.5h32 q4 0 6 -4t0 -7l-8 -11v0v0z" />
</svg>