<svg viewBox="0 0 256 256" xmlns="http://www.w3.org/2000/svg">
  <path transform="scale(1, -1) translate(0, -256)" fill="currentColor" d="M248 89q-4 13 -15 19t-23 3l-53 -16q3 9 0.5 15.5t-9 10t-13.5 3.5h-43q-6 0 -12.5 5.5t-15.5 5.5h-34q-10 0 -17.5 -7.5t-7.5 -18.5v-55q0 -11 7.5 -18.5t18.5 -7.5h41q8 0 15 4h1q18 -10 38 -10q13 0 24 3l77 24q15 5 20 18q4 10 1 22zM31 41q-5 0 -8.5 4t-3.5 9v55 q0 5 3.5 8.5t7.5 3.5h35q3 0 6 -2l5 -4v-73h-4h-41v-1zM223 62l-77 -23q-8 -3 -19 -3q-17 0 -32 8l-6 3v63l46 -1q3 0 5.5 -1t3.5 -3q2 -6 -10 -17q-3 -4 -1 -8t4 -4t11 2l66 19q7 2 12.5 -1.5t8.5 -10.5q4 -17 -12 -23zM165 181h33v-33q0 -3 2 -5t5 -2t5 2t2 5v33h32 q3 0 5 2t2 5t-2 5t-5 2h-33v33q0 3 -2 5t-5 2t-5 -2t-2 -5v-33h-33q-3 0 -5 -2t-2 -5t2.5 -5t5.5 -2z" />
</svg>