<svg viewBox="0 0 256 256" xmlns="http://www.w3.org/2000/svg">
  <path transform="scale(1, -1) translate(0, -256)" fill="currentColor" d="M128 251q-33 0 -61.5 -16.5t-45 -45t-16.5 -61.5t16.5 -61.5t45 -45t61.5 -16.5t61.5 16.5t45 45t16.5 61.5t-16.5 61.5t-45 45t-61.5 16.5zM128 19q-29 0 -54 14.5t-40 39.5t-15 55t15 54.5t39.5 39.5t54.5 15t55 -15t39.5 -40t14.5 -54.5t-14.5 -54.5t-39.5 -39.5 t-55 -14.5zM176 188q-3 0 -5.5 -2.5t-2.5 -5.5v-98h-40q-4 0 -6.5 3t-2.5 6v45q0 3 -2 5t-5 2t-5 -2t-2 -5v-44q0 -10 6.5 -16.5t16.5 -6.5h42q5 0 8.5 3.5t3.5 8.5v99q0 3 -1.5 5.5t-4.5 2.5zM137 164v-44q0 -3 2 -5t5 -2t5 2t2 5v44q0 10 -6.5 16.5t-16.5 6.5h-42 q-6 0 -9.5 -3.5t-3.5 -8.5v-100q0 -3 2 -5t5 -2t5.5 2t2.5 5v99h40q4 0 6.5 -3t2.5 -7z" />
</svg>