<svg viewBox="0 0 1024 1024" xmlns="http://www.w3.org/2000/svg">
  <path transform="scale(1, -1) translate(0, -960)" fill="currentColor" d="M512 -32h-2.5t-3.5 2q-47 18 -90 43q-44 25 -83 56t-73 68q-34 36 -63 77q-30 43 -52 89q-23 46 -38.5 95t-23.5 100q-8 50 -8 102v147q0 6 4 10.5t9 5.5q58 10 101 52.5t51 99.5q1 6 5.5 9.5t10.5 3.5h507q6 0 10.5 -4t5.5 -9q10 -59 51.5 -100.5t100.5 -51.5 q6 -1 9.5 -5.5t3.5 -10.5v-147q0 -52 -8 -103q-7 -51 -22.5 -99.5t-38.5 -94.5t-53 -89q-28 -41 -63 -77q-34 -37 -73 -68t-82 -56q-44 -25 -90 -43q1 -2 0 -2h-2v0zM109 733v-133q0 -50 7 -98q8 -49 22.5 -95t35.5 -90q22 -44 50 -85q27 -39 59 -73q32 -35 68 -64t77 -52 q40 -24 84 -41q44 18 84 41q40 24 76.5 53t68.5 63t59 73q28 41 50 85q21 44 35.5 90t22.5 95q7 48 7 98v133q-61 14 -105.5 58t-57.5 105h-480q-13 -61 -57.5 -105t-105.5 -58v0z" />
</svg>