<svg viewBox="0 0 256 256" xmlns="http://www.w3.org/2000/svg">
  <path transform="scale(1, -1) translate(0, -256)" fill="currentColor" d="M215 226l-80 24q-7 2 -14 0l-80 -24q-8 -2 -12.5 -8.5t-4.5 -14.5v-97q0 -35 52 -73q15 -11 41 -25q5 -3 11.5 -3t11.5 3q20 10 41.5 25.5t34.5 31.5q17 21 17 41v97q-1 8 -5.5 14.5t-12.5 8.5zM218 106q0 -14 -12 -30t-34 -32q-15 -11 -39 -24v0q-5 -3 -9 0 q-22 11 -40 24q-22 16 -34 32t-12 30v97q0 3 2 6t5 3l80 24l3 1l3 -1l80 -24q3 0 5 -3t2 -6v-97zM170 161l-50 -40l-16 23q-2 2 -5 2.5t-5 -1t-2.5 -4.5t0.5 -5l21 -29q2 -2 5 -3h1q3 0 4 2l55 44q3 2 3 5t-1.5 5.5t-4.5 2.5t-5 -2z" />
</svg>