<svg viewBox="0 0 256 256" xmlns="http://www.w3.org/2000/svg">
  <path transform="scale(1, -1) translate(0, -256)" fill="currentColor" d="M128 5q-1 0 -4 1q-29 18 -53 40q-41 41 -41 78v106q0 4 3.5 5.5t6.5 -0.5q16 -10 34 -10q14 0 27 6t22 17q2 2 5.5 2t5.5 -2q9 -11 21.5 -17t26.5 -6q18 0 34 10q4 2 7.5 0.5t3.5 -5.5v-106q0 -26 -21 -55q-16 -21 -42 -41q-17 -13 -32 -22q-2 -1 -4 -1zM44 218v-94 q0 -31 34 -65q21 -21 50 -39q28 17 50 39q34 34 34 65v94q-15 -6 -30 -6t-29 5.5t-25 16.5q-10 -11 -24 -16.5t-29.5 -5.5t-30.5 6z" />
</svg>