<svg viewBox="0 0 1024 1024" xmlns="http://www.w3.org/2000/svg">
  <path transform="scale(1, -1) translate(0, -960)" fill="currentColor" d="M934 762q-58 9 -100 51t-52 101q-1 6 -5.5 9t-10.5 3h-507q-6 0 -10.5 -4t-5.5 -8q-9 -58 -51.5 -101t-100.5 -51q-6 -2 -9.5 -6t-3.5 -10v-148q0 -52 8 -103q8 -50 23 -99t38 -95t53 -88q29 -42 63 -78q34 -37 73 -67.5t83 -55.5q43 -25 90 -44q1 0 2.5 -1t3.5 -1 q1 0 2.5 0.5l4.5 1.5q46 19 90 44q43 25 82 55.5t73 67.5q35 36 63 78q30 42 52 89q23 46 38.5 94.5t23.5 99.5t8 102v148q-4 6 -8.5 11t-9.5 5v0zM915 600q0 -50 -7 -98q-8 -49 -22.5 -95t-35.5 -90q-22 -44 -50 -85q-27 -39 -59 -73q-32 -35 -68 -64t-77 -52 q-40 -24 -84 -41q-44 18 -84 41q-40 24 -76.5 53t-68.5 63t-59 73q-28 41 -50 85q-21 44 -35.5 90t-22.5 95q-7 48 -7 98v133q61 14 105.5 58t57.5 105h480q13 -61 57.5 -105t105.5 -58v-133zM653 592l-207 -166l-73 100q-4 5 -10.5 6t-12.5 -2q-4 -4 -5 -10.5t2 -12.5 l83 -115q3 -2 5.5 -4t6.5 -2h0.5h0.5q3 0 6 1t4 2l219 177q5 4 5.5 11t-3.5 12q-3 6 -9.5 7t-11.5 -4v0z" />
</svg>