<svg viewBox="0 0 1024 1024" xmlns="http://www.w3.org/2000/svg">
  <path transform="scale(1, -1) translate(0, -960)" fill="currentColor" d="M856 829l-320 96q-12 3 -24 3t-24 -3l-320 -96q-28 -9 -44.5 -31t-16.5 -51v-387q0 -43 19 -83t48 -76t65 -68q37 -31 71 -56q46 -34 89 -59t75 -40q9 -5 18.5 -7.5t19.5 -2.5t20 2.5t18 7.5q30 15 74 40.5t90 58.5q34 25 70 57q37 31 66 67.5t48 76.5t19 82v387 q0 29 -17.5 51t-43.5 31zM885 360q0 -37 -18 -73q-17 -36 -44 -69.5t-61 -62.5t-66 -53q-44 -32 -86 -57t-72 -40q-11 -6 -24.5 -6t-23.5 6q-30 15 -72 40t-87 57q-32 24 -66 53q-33 29 -60.5 62.5t-44.5 69.5q-18 36 -18 73v387q0 18 10 31.5t27 19.5l320 96q3 2 6 2h7h7.5 t6.5 -2l320 -96q17 -4 27 -18.5t10 -32.5v-387h2zM686 571l-208 -168l-73 103q-4 4 -10.5 5t-12.5 -2q-4 -4 -5 -10.5t2 -12.5l83 -116q3 -3 5.5 -5t6.5 -2h0.5h0.5q3 0 6 1t4 2l221 180q4 3 5 10t-4 12q-2 6 -8.5 7t-12.5 -4v0z" />
</svg>