<svg viewBox="0 0 256 256" xmlns="http://www.w3.org/2000/svg">
  <path transform="scale(1, -1) translate(0, -256)" fill="currentColor" d="M216 212q-18 5 -42.5 16t-36.5 19q-5 4 -8.5 4t-9.5 -4q-44 -30 -77 -37q-9 -2 -14.5 -9.5t-5.5 -16.5v-65q0 -11 2 -21q6 -26 28 -48q28 -28 72 -44l2 -1q5 0 20 7l15 6q35 19 55 46q17 23 18 48l1 74q0 9 -5.5 16t-13.5 10zM220 112q-1 -20 -16 -40q-18 -24 -50 -41 q-5 -3 -14.5 -7t-13.5 -4q-40 15 -64 40q-19 19 -24 42q-3 9 -3 18v65q0 4 3 7.5t7 4.5q37 8 82 39h1h1q13 -10 38.5 -21t44.5 -17q4 -1 6.5 -4.5t2.5 -7.5zM121 155h32q3 0 5 2t2 5t-2 5.5t-5 2.5h-13v7q0 3 -2 5t-5 2t-5 -2t-2 -5v-7h-6q-10 0 -17 -7.5t-7 -17t7 -16.5 t17 -7h15q4 0 7.5 -3t3.5 -7.5t-3 -7t-8 -2.5h-32q-3 0 -5 -2.5t-2 -5.5t2 -5t5 -2h23v-7q0 -3 2 -5.5t5 -2.5t5 2.5t2 5.5v8q8 1 14 8t6 16t-7.5 16t-17.5 7h-15q-4 0 -7 3t-3 7t3.5 7t7.5 3z" />
</svg>