<svg viewBox="0 0 1024 1024" xmlns="http://www.w3.org/2000/svg">
  <path transform="scale(1, -1) translate(0, -960)" fill="currentColor" d="M837 840l-299 85q-14 3 -28 3t-27 -3l-296 -85q-33 -8 -54 -35t-21 -61v-242q0 -87 26 -168t73.5 -150t115.5 -123q67 -54 150 -87q8 -3 17.5 -4.5t17.5 -1.5q10 0 18.5 1.5t16.5 4.5q83 33 150 87q68 54 115.5 122.5t73.5 149.5t26 168v241q0 35 -21 62.5t-54 35.5z M877 501q0 -82 -24 -159q-24 -76 -68 -141t-107 -116q-62 -51 -140 -82q-12 -5 -24 -5t-24 5q-79 31 -143 82t-109 116t-69 141q-25 77 -25 159v243q0 23 14 41.5t36 25.5l296 83q9 3 18.5 3t17.5 -3l300 -83q22 -6 36.5 -24.5t14.5 -42.5v-243v0z" />
</svg>