<svg viewBox="0 0 1024 1024" xmlns="http://www.w3.org/2000/svg">
  <path transform="scale(1, -1) translate(0, -960)" fill="currentColor" d="M885 869q-4 2 -8.5 2t-7.5 -2q-31 -21 -67.5 -31.5t-75.5 -10.5q-58 0 -111 25t-92 70q-5 6 -12.5 6t-11.5 -6q-37 -46 -90.5 -70.5t-112.5 -24.5q-38 0 -74 10.5t-68 31.5q-4 2 -8.5 2t-7.5 -2q-3 -3 -5 -6.5t-2 -8.5v-422q0 -86 50 -164q49 -77 113 -139t125 -104 q62 -42 85 -55q1 -2 3.5 -2h4.5h4.5t3.5 2q23 13 85 55q61 42 125 104t113 139q50 78 50 164v422q0 5 -2.5 8.5t-5.5 6.5zM861 432q0 -76 -44 -146q-45 -71 -103 -128t-116 -97q-58 -41 -86 -58q-28 17 -86 58q-58 40 -116.5 97t-102.5 128q-44 70 -44 146v395 q31 -15 65.5 -23.5t69.5 -8.5q61 0 117 24.5t97 68.5q42 -44 97.5 -68.5t116.5 -24.5q35 0 69.5 8.5t65.5 23.5v-395v0zM653 573l-207 -168l-73 101q-4 4 -10.5 5t-12.5 -2q-4 -4 -5 -10.5t2 -12.5l83 -115q3 -2 5.5 -4t6.5 -2h0.5h0.5q3 0 6 1t4 2l219 178q5 3 5.5 10 t-3.5 12q-3 6 -9.5 7t-11.5 -2v0z" />
</svg>