<svg viewBox="0 0 256 256" xmlns="http://www.w3.org/2000/svg">
  <path transform="scale(1, -1) translate(0, -256)" fill="currentColor" d="M234 210q-13 2 -23.5 12t-12.5 23q0 3 -2 4.5t-4 1.5h-127q-3 0 -5 -1.5t-2 -4.5q-2 -13 -12 -23t-24 -12q-2 -1 -4 -3t-2 -4v-37q0 -53 31 -98q15 -21 35 -37t44 -25l2 -1l2 1q48 18 79 62.5t31 97.5v37q0 2 -2 4t-4 3zM226 166q0 -50 -29 -90q-26 -39 -69 -56 q-43 17 -70 56q-28 40 -28 90v31q15 4 25.5 14.5t14.5 25.5h116q4 -15 14.5 -25.5t25.5 -14.5v-31zM161 166l-49 -39l-16 23q-2 2 -5 2.5t-5 -1.5t-2.5 -4.5t1.5 -4.5l21 -29q1 -2 4 -3h1q3 0 5 2l54 44q3 2 3 5t-2 5t-4.5 2t-5.5 -2z" />
</svg>