<svg viewBox="0 0 1024 1024" xmlns="http://www.w3.org/2000/svg">
  <path transform="scale(1, -1) translate(0, -960)" fill="currentColor" d="M861 771q-35 10 -79 27q-45 17 -89.5 37t-85.5 41q-40 21 -66 39q-10 7 -16.5 10t-12.5 3t-12.5 -3t-16.5 -10q-44 -30 -85 -54q-42 -25 -81.5 -44t-75.5 -33q-37 -13 -71 -21q-32 -7 -52 -33t-20 -58v-142v-117q0 -21 2 -42t7 -43q12 -50 38 -95.5t69 -90.5 q28 -27 59 -52t66.5 -46.5t74.5 -41.5q39 -19 82 -36h1h1h1.5h1.5q19 0 74 24.5t60 27.5q71 37 124.5 81.5t91.5 95.5q34 46 51.5 92t19.5 95v37q0 33 0.5 78t0.5 94v87q3 33 -15 58.5t-47 34.5zM893 386q-3 -44 -19 -86t-47 -84q-36 -49 -86.5 -91t-118.5 -77 q-20 -11 -61.5 -27.5t-54.5 -20.5q-83 31 -149.5 72.5t-118.5 93.5q-39 40 -63.5 82t-35.5 88q-5 19 -7 39t-2 39v117.5v142.5q0 21 13.5 38t34.5 21q35 8 73 21q39 14 79.5 33.5t83.5 45.5q43 25 88 57q4 2 6.5 3.5t3.5 2.5q1 -1 3.5 -2.5t7.5 -3.5q27 -20 69 -41 q41 -22 87 -42.5t91 -37.5q46 -17 81 -28q19 -6 31 -22.5t12 -36.5v-91t-0.5 -94.5t-0.5 -75.5v-35v0zM483 568h128q7 0 11.5 4.5t4.5 11.5t-4.5 11.5t-11.5 4.5h-62v43q0 7 -4.5 11.5t-11.5 4.5t-11.5 -4.5t-4.5 -11.5v-43h-34q-35 0 -60 -25t-25 -60t25 -60t60 -25h59 q22 0 37.5 -15.5t15.5 -36.5q0 -22 -15.5 -37.5t-37.5 -15.5h-128q-7 0 -11.5 -4.5t-4.5 -11.5t4.5 -11.5t11.5 -4.5h103v-43q0 -8 4.5 -12t11.5 -4t11.5 4t4.5 12v43q32 2 55 26.5t23 56.5q0 35 -25 60t-60 25h-59q-21 0 -37 15.5t-16 37.5t15 38t38 16v0z" />
</svg>