<svg viewBox="0 0 256 256" xmlns="http://www.w3.org/2000/svg">
  <path transform="scale(1, -1) translate(0, -256)" fill="currentColor" d="M223 236q-4 2 -7 0q-16 -10 -34 -10q-14 0 -27 6t-22 16q-2 3 -5.5 3t-5.5 -3q-9 -10 -21.5 -16t-26.5 -6q-18 0 -34 10q-3 2 -6.5 0t-3.5 -6v-106q0 -26 21 -55q15 -21 42 -41q16 -13 31 -22q2 -1 4 -1l4 1q30 18 53 41q41 40 41 77v106q0 4 -3 6zM212 124 q0 -31 -34 -65q-21 -21 -50 -39q-28 17 -50 39q-34 34 -34 65v94q15 -6 30.5 -6t29 5.5t24.5 16.5q11 -11 25 -16.5t29.5 -5.5t29.5 6v-94zM161 161l-49 -39l-16 22q-2 3 -5 3.5t-5 -1.5t-2.5 -5t1.5 -5l21 -28q1 -3 4 -3h1q3 0 5 1l54 45q3 2 3 4.5t-2 5t-4.5 2.5t-5.5 -2z " />
</svg>