<svg viewBox="0 0 1024 1024" xmlns="http://www.w3.org/2000/svg">
  <path transform="scale(1, -1) translate(0, -960)" fill="currentColor" d="M512 -32q-10 0 -20 2.5t-18 7.5q-30 15 -74 40.5t-90 58.5q-34 25 -70 57q-37 31 -66 67.5t-48 76.5t-19 82v387q0 29 16.5 51t44.5 31l320 96q12 3 24 3t24 -3l320 -96q28 -9 44.5 -31t16.5 -51v-387q0 -43 -19 -83t-48 -76t-65 -68q-37 -31 -71 -56q-46 -33 -89 -58.5 t-75 -40.5q-8 -5 -18 -7.5t-20 -2.5v0zM512 896h-7.5t-6.5 -2l-320 -96q-17 -4 -27 -18.5t-10 -32.5v-387q0 -37 17 -73t44.5 -69.5t61.5 -62.5q33 -29 66 -53q44 -32 86 -57t72 -40q11 -6 24 -6t24 6q30 15 72 40t86 57q33 24 66 53q34 29 61 62.5t45 69.5q17 36 17 73v387 q0 18 -10 31.5t-27 19.5l-320 96q-3 2 -6.5 2h-7.5v0z" />
</svg>