<svg viewBox="0 0 1024 1024" xmlns="http://www.w3.org/2000/svg">
  <path transform="scale(1, -1) translate(0, -960)" fill="currentColor" d="M512 -32h-4.5t-3.5 2q-23 14 -85 56q-61 42 -125 103.5t-113 139.5q-50 77 -50 163v422q0 5 2.5 8.5t5.5 6.5q4 2 8.5 2t7.5 -2q31 -21 67.5 -31.5t75.5 -10.5q58 0 111 25t92 70q5 6 12.5 6t11.5 -6q37 -46 90.5 -70.5t112.5 -24.5q37 0 73.5 10.5t68.5 31.5q4 2 8.5 2 t7.5 -2q4 -3 6 -6.5t2 -8.5v-422q0 -86 -49 -164q-50 -77 -114 -139t-125 -104t-84 -55q-3 -2 -5.5 -2h-4.5v0zM163 827v-395q0 -76 44 -146q44 -71 102.5 -128t116.5 -97q58 -41 86 -58q28 17 86 58q58 40 116.5 97t102.5 128q44 70 44 146v395q-31 -15 -65.5 -23.5 t-69.5 -8.5q-61 0 -117 24.5t-97 68.5q-42 -44 -97.5 -68.5t-116.5 -24.5q-36 0 -70 8.5t-65 23.5v0z" />
</svg>