<svg viewBox="0 0 1024 1024" xmlns="http://www.w3.org/2000/svg">
  <path transform="scale(1, -1) translate(0, -960)" fill="currentColor" d="M48 886q-7 0 -11.5 -4t-4.5 -12v-843q0 -7 4.5 -11.5t11.5 -4.5t11.5 4.5t4.5 11.5v843q0 6 -4.5 11t-11.5 5zM976 464h-675h-2.5t-2.5 -2l102 101q5 5 5 11.5t-5 11.5q-4 4 -10.5 4t-11.5 -4l-128 -127q-2 -2 -3.5 -4.5t-1.5 -6.5t1.5 -6.5t3.5 -4.5l128 -128 q2 -3 5.5 -4t5.5 -1q4 0 6.5 1t4.5 4q5 5 5 11t-5 11l-100 101h1.5h1.5h675q7 0 11.5 4.5t4.5 11.5t-4.5 11.5t-11.5 4.5v0zM282 450l4 4q0 -1 -0.5 -2t-0.5 -2v-2v-2l-3 4v0z" />
</svg>