<svg viewBox="0 0 1024 1024" xmlns="http://www.w3.org/2000/svg">
  <path transform="scale(1, -1) translate(0, -960)" fill="currentColor" d="M976 886q-7 0 -11.5 -4t-4.5 -12v-843q0 -7 4.5 -11.5t11.5 -4.5t11.5 4.5t4.5 11.5v843q0 6 -4.5 11t-11.5 5zM648 587q-5 5 -11.5 5t-10.5 -5q-5 -5 -5 -11t5 -11l102 -101q-1 0 -2.5 1t-2.5 1h-675q-7 0 -11.5 -4.5t-4.5 -11.5q0 -8 4.5 -12t11.5 -4h675h1.5h1.5 l-100 -101q-5 -5 -5 -11.5t5 -11.5q2 -2 5 -3t6 -1t6 1t5 3l128 128q2 3 3.5 5.5t1.5 6.5q0 3 -1.5 5.5t-3.5 5.5l-128 126v0zM738 445v1.5v1.5t-0.5 2.5t-1.5 2.5l5 -5l-3 -3v0z" />
</svg>