<svg viewBox="0 0 256 256" xmlns="http://www.w3.org/2000/svg">
  <path transform="scale(1, -1) translate(0, -256)" fill="currentColor" d="M173 30l-1 1v0l17 63q3 8 -1 16t-12 12l-12 5v17q0 3 -2 5.5t-5 2.5t-5 -2.5t-2 -5.5v-11l-35 14q-9 4 -19 0l-35 -14v25q0 4 3 7t7 3h54q3 0 5 2t2 5t-2 5t-5 2h-43v21q0 4 3 6.5t7 2.5h32q3 0 5 2.5t2 5.5t-2 5t-5 2h-11v17q0 3 -2 5t-5 2t-5 -2t-2 -5v-18h-7 q-10 0 -17 -7t-7 -17v-21q-9 -1 -14.5 -7.5t-5.5 -15.5v-31l-11 -5q-9 -3 -12.5 -11t-1.5 -17l18 -62l-17 -14q-2 -2 -2 -5t1.5 -5.5t4.5 -2.5t6 2l14 13q3 2 7 2t6 -2l4 -4q7 -5 16 -5t15 5l4 4q3 2 7 2t6 -2l4 -4q7 -5 15.5 -5t15.5 5l4 4q3 2 7 2t6 -2l15 -13q2 -2 5 -2 t4.5 2.5t1.5 5.5t-2 5zM142 30l-4 -3q-3 -3 -6.5 -3t-6.5 3l-4 3q-6 6 -15 6t-16 -6l-4 -3q-3 -3 -6.5 -3t-6.5 3l-4 3q-7 6 -16 6l-16 62q-1 3 0.5 6.5t4.5 4.5l60 25q4 2 8 0l60 -25q3 -1 4.5 -4.5t1.5 -6.5l-18 -62q-9 0 -16 -6zM234 217q-1 3 -4 5l-17 5l-11 14 q-2 3 -5.5 3t-5.5 -3l-10 -14l-17 -5q-3 -2 -4.5 -5t0.5 -6l11 -15v-17q0 -4 2 -5.5t4 -1.5h3l16 6l17 -6q3 -1 6 1.5t3 5.5v18l11 14q2 3 1 6zM210 203q-1 -2 -1 -4v-10l-10 3h-3h-2l-10 -4v11q0 2 -1 4l-6 8l10 3q2 1 3 3l7 8l6 -8q1 -2 3 -3l10 -3z" />
</svg>