<svg viewBox="0 0 1024 1024" xmlns="http://www.w3.org/2000/svg">
  <path transform="scale(1, -1) translate(0, -960)" fill="currentColor" d="M658 46q-4 3 -7 5.5t-6 4.5l72 256q8 30 -5.5 58t-42.5 40l-51 22v77q0 7 -4.5 11.5t-11.5 4.5q-8 0 -12 -4.5t-4 -11.5v-64l-156 64q-15 6 -31.5 6t-32.5 -6l-155 -64v117q0 20 14.5 34.5t35.5 14.5h219q7 0 11.5 4.5t4.5 11.5t-4.5 11.5t-11.5 4.5h-189v95 q0 20 14.5 34.5t35.5 14.5h59v0v0v0v0h70q8 0 12 4.5t4 11.5t-4 11.5t-12 4.5h-54v87q0 7 -4.5 11.5t-11.5 4.5t-11.5 -4.5t-4.5 -11.5v-84h-42q-33 0 -57 -24t-24 -57v-95q-33 -1 -56 -25t-23 -56v-133l-51 -21q-29 -12 -42.5 -39.5t-5.5 -57.5l72 -256q-3 -3 -6 -4.5 t-7 -5.5l-59 -51q-5 -5 -5.5 -11.5t4.5 -11.5q4 -4 10.5 -5t11.5 4l59 51q15 12 33 12t33 -12l16 -13q23 -20 53.5 -20t53.5 20l16 13q14 12 32.5 12t33.5 -12l16 -13q22 -20 53 -20t54 20l16 13q14 12 32.5 12t32.5 -12l60 -51q2 -3 4.5 -3h6.5q3 0 6.5 1t6.5 3 q4 5 3.5 11.5t-5.5 11.5l-62 49v0zM550 46l-16 -12q-14 -12 -32.5 -12t-32.5 12l-16 12q-23 21 -54 21t-53 -21l-16 -12q-15 -12 -33.5 -12t-32.5 12l-16 12q-13 12 -30 17t-34 3l-72 254q-5 18 3.5 35t25.5 26l61 25h0.5h0.5l178 74q9 4 19.5 4t18.5 -4l176 -74h1h1l61 -25 q18 -7 25.5 -24.5t2.5 -36.5l-72 -254q-16 2 -33 -3t-31 -17zM931 786h-37v56q0 36 -25 61t-61 25t-62 -25t-26 -61v-56h-38q-8 0 -12 -4.5t-4 -11.5v-146q0 -7 4 -11.5t12 -4.5h248q7 0 11.5 4.5t4.5 11.5v146q1 6 -4 11t-11 5v0zM752 842q0 22 16.5 38t37.5 16 q23 0 39 -16t16 -38v-56h-109v56zM915 640h-216v114h216v-114z" />
</svg>