<svg viewBox="0 0 256 256" xmlns="http://www.w3.org/2000/svg">
  <path transform="scale(1, -1) translate(0, -256)" fill="currentColor" d="M170 30v0l-1 1l17 60q2 8 -2 16t-12 11l-10 5v17q0 3 -2 5t-5 2t-5 -2.5t-2 -5.5v-11l-33 14q-9 4 -18 0l-33 -14v24q0 4 2.5 7t6.5 3h52q3 0 5 2t2 5t-2 5t-5 2h-42v20q0 4 2.5 6.5t6.5 2.5h30q3 0 5 2t2 5t-2 5.5t-5 2.5h-10v15q0 3 -2 5t-5 2t-5 -2t-2 -5v-17h-6 q-10 0 -16.5 -7t-6.5 -16v-20q-8 -2 -13.5 -8t-5.5 -15v-30l-11 -4q-8 -3 -11.5 -11t-1.5 -17l17 -60l-16 -13q-2 -2 -2.5 -5t1.5 -5.5t5 -2.5t5 2l14 12q2 3 5.5 2.5t6.5 -2.5l4 -3q6 -5 14.5 -5t15.5 5l3 3q3 3 6.5 3t5.5 -3l4 -3q6 -5 15 -5t15 5l4 3q2 3 5.5 3t6.5 -3 l14 -12q2 -2 5 -2t5 2.5t2 5.5t-3 5zM140 30l-3 -4q-3 -2 -6 -2t-6 2l-4 4q-6 5 -15 5t-15 -5l-4 -4q-2 -2 -5.5 -2t-6.5 2l-3 4q-7 5 -16 5l-17 59q-1 4 0.5 7t4.5 4l58 24q4 1 7 0l58 -24q3 -1 4.5 -4t0.5 -7l-16 -59q-9 0 -16 -5zM198 251q-13 0 -22 -9q-2 -1 -2 -4 t2 -5.5t5 -2.5t5 2q5 5 13 5t13.5 -6t5.5 -13.5t-5.5 -13.5t-13.5 -6q-3 0 -5 -2t-2 -5v-22q0 -3 2 -5t5 -2t5 2t2 5v16q11 2 18.5 11t7.5 21q0 14 -10 24t-24 10zM198 155q-3 0 -5 -2t-2 -5v-2q0 -3 2 -5t5 -2t5 2t2 5v2q0 3 -2 5t-5 2z" />
</svg>