<svg viewBox="0 0 1024 1024" xmlns="http://www.w3.org/2000/svg">
  <path transform="scale(1, -1) translate(0, -960)" fill="currentColor" d="M685 48q-4 2 -6.5 4.5t-6.5 5.5l72 257q8 30 -5.5 58.5t-42.5 40.5l-53 23v78q0 7 -4.5 11.5t-11.5 4.5t-11.5 -4.5t-4.5 -11.5v-64l-155 66q-16 6 -32 6t-32 -6l-155 -69v118q0 22 14.5 37t36.5 15h218q7 0 11.5 4t4.5 12q0 7 -4.5 11.5t-11.5 4.5h-191v96q0 21 15 36 t36 15h58v0v0v0v0h70q8 0 12 4.5t4 11.5t-4 11.5t-12 4.5h-54v83q0 7 -4.5 11.5t-11.5 4.5t-11.5 -4.5t-4.5 -11.5v-85h-42q-34 0 -58.5 -24t-24.5 -59v-96q-33 -1 -56.5 -25.5t-23.5 -57.5v-131l-51 -21q-29 -12 -42.5 -40.5t-5.5 -58.5l72 -258q-4 -2 -6.5 -4t-6.5 -6 l-59 -51q-5 -5 -5.5 -11t3.5 -11q3 -3 6.5 -4t6.5 -1t6 1t5 2l60 51q14 12 33 12t34 -12l16 -12q23 -21 54 -21t55 21l16 12q14 12 33 12t34 -12l16 -12q23 -21 54 -21t55 21l16 12q14 12 33 12t34 -12l59 -51q5 -5 11.5 -4t10.5 6q5 5 4.5 11t-5.5 11l-64 53v0zM576 48 l-16 -13q-14 -12 -33.5 -12t-33.5 12l-16 13q-23 20 -54 20t-55 -20l-16 -13q-14 -12 -33.5 -12t-33.5 12l-13 13q-13 12 -30.5 17t-35.5 2l-72 256q-4 18 4.5 36t26.5 25l61 26h0.5h0.5l178 73q9 4 19.5 4t18.5 -4l178 -73h0.5h0.5l61 -26q18 -7 26.5 -24.5t2.5 -36.5 l-72 -256q-17 1 -33.5 -3t-30.5 -16v0zM925 802q-1 3 -3.5 5.5t-6.5 3.5l-70 24l-47 61q-4 6 -12 6t-13 -6l-45 -59l-70 -24q-4 -1 -6.5 -3.5t-3.5 -6.5q-1 -3 -0.5 -7t2.5 -7l43 -61v-75q0 -4 2 -7.5t4 -5.5q3 -2 7 -2.5t8 0.5l70 23l70 -23h3h2q3 0 5 1t5 3t4.5 5.5 t1.5 6.5v76l43 60q5 2 6 5t1 7v0zM850 741q-2 -3 -3 -5t-1 -5v-57l-56 17h-2h-2h-3h-2l-56 -17v57q0 3 -1 5t-2 5l-34 46l54 19q3 2 5 3t3 4l36 46l35 -46q1 -3 3 -4t5 -3l54 -19z" />
</svg>