<svg viewBox="0 0 1024 1024" xmlns="http://www.w3.org/2000/svg">
  <path transform="scale(1, -1) translate(0, -960)" fill="currentColor" d="M550 40q-2 2 -4.5 3.5t-4.5 2.5l62 221q7 27 -5 52t-38 36l-43 18v65q0 8 -4.5 12t-11.5 4t-11.5 -4t-4.5 -12v-52l-131 54q-14 6 -28.5 6t-27.5 -6l-133 -54v99q0 17 12.5 29t28.5 12h188q7 0 11.5 4.5t4.5 11.5q0 8 -4.5 12t-11.5 4h-162v80q0 17 12.5 29.5t29.5 12.5 h49v0v0v0v0h61q7 0 11.5 4.5t4.5 11.5t-4.5 11.5t-11.5 4.5h-45v70q0 8 -4.5 12t-11.5 4t-11.5 -4t-4.5 -12v-70h-33q-30 0 -52 -22t-22 -52v-80q-29 -2 -49 -22.5t-20 -50.5v-112l-43 -18q-26 -11 -38 -36t-5 -52l64 -219q-3 -1 -5 -3t-5 -3l-51 -45q-5 -5 -5.5 -11.5 t3.5 -11.5q5 -4 11.5 -5t11.5 4l51 43q12 10 27 10t27 -10l13 -11q21 -18 48.5 -18t47.5 18l13 11q12 10 27 10t27 -10l13 -11q21 -18 48.5 -18t47.5 18l13 11q12 10 27 10t27 -10l52 -45q2 -2 4.5 -2.5t6.5 -0.5q3 0 6.5 1t6.5 4q4 5 3.5 11t-5.5 11l-50 45v0zM454 40 l-12 -11q-12 -10 -27.5 -10t-27.5 10l-13 11q-20 18 -47.5 18t-48.5 -18l-12 -11q-12 -10 -27.5 -10t-27.5 10l-13 11q-12 11 -26.5 15t-29.5 3l-65 219q-5 15 2 29t22 20l53 23h0.5h0.5l154 64q7 3 16 3t16 -3l153 -64h1h1l53 -23q14 -6 21.5 -20t2.5 -29l-63 -219 q-15 1 -29.5 -3t-26.5 -15v0zM734 928q-51 0 -96 -20q-45 -19 -78.5 -53t-53.5 -79t-20 -96t20 -96t53.5 -79t78.5 -53q45 -20 96 -20t97 20q45 19 78.5 53t53.5 79q19 45 19 96t-19 96t-53 79t-79 53q-45 20 -97 20zM734 464q-44 0 -83 17q-40 17 -69 46.5t-46 68.5 q-18 40 -18 84t17 84q18 39 47 68.5t69 46.5q39 17 83 17q45 0 84 -17t68.5 -46.5t46.5 -68.5q17 -40 17 -84t-17 -84q-17 -39 -46.5 -68.5t-68.5 -46.5t-84 -17zM696 776h-59q-7 0 -11.5 -4.5t-4.5 -11.5t4.5 -11.5t11.5 -4.5h43v-61h-43q-7 0 -11.5 -4.5t-4.5 -11.5v-93 q0 -7 4.5 -11.5t11.5 -4.5h59q7 0 11.5 4.5t4.5 11.5q0 8 -4.5 12t-11.5 4h-43v61h43q7 0 11.5 4.5t4.5 11.5v93q0 7 -5 11.5t-11 4.5zM856 776q-7 0 -11.5 -4.5t-4.5 -11.5v-77h-54v77q0 7 -4.5 11.5t-11.5 4.5q-8 0 -12 -4.5t-4 -11.5v-93q0 -7 4 -11.5t12 -4.5h70v-69 q0 -7 4.5 -11.5t11.5 -4.5t11.5 4.5t4.5 11.5v74v2.5t-2 3.5q0 2 1 3t1 4v93q0 6 -4.5 10t-11.5 4z" />
</svg>