<svg viewBox="0 0 1024 1024" xmlns="http://www.w3.org/2000/svg">
  <path transform="scale(1, -1) translate(0, -960)" fill="currentColor" d="M608 43q-2 3 -5.5 5t-5.5 3l65 237q9 29 -4 55t-40 38l-47 19v70q0 8 -4.5 12t-11.5 4t-11.5 -4t-4.5 -12v-57l-142 59q-15 6 -30 6t-29 -6l-143 -59v107q0 19 13.5 32t31.5 13h200q7 0 11.5 4.5t4.5 11.5t-4.5 11.5t-11.5 4.5h-173v86q0 19 13.5 32t31.5 13h53v0v0v0v0 h64q7 0 11.5 4.5t4.5 11.5t-4.5 11.5t-11.5 4.5h-50v78q0 8 -4.5 12t-11.5 4t-11.5 -4t-4.5 -12v-76h-37q-32 0 -54 -23t-22 -54v-87q-30 -1 -52 -23t-22 -53v-122l-46 -19q-26 -12 -38.5 -38.5t-5.5 -54.5l68 -237q-3 -1 -6 -3t-6 -5l-54 -48q-5 -5 -5.5 -11t3.5 -11 q5 -5 11.5 -6t11.5 4l54 48q13 11 30 11t29 -11l15 -13q21 -19 50 -19t51 19l14 13q13 11 30 11t29 -11l15 -13q21 -19 50 -19t50 19l15 13q13 11 30 11t29 -11l54 -46q3 -3 5.5 -3h6.5q3 0 6.5 1t5.5 3q5 5 4.5 11.5t-5.5 11.5l-53 46v0zM506 43l-15 -13q-13 -10 -30 -10 t-29 10l-14 13q-22 19 -51 19t-50 -19l-15 -13q-13 -10 -30 -10t-29 10l-14 13q-13 11 -28.5 15.5t-30.5 2.5l-68 235q-4 17 3 32.5t23 21.5l56 24h1h1l164 69q9 4 18 4t18 -4l163 -69h0.5h0.5l56 -24q16 -7 23.5 -22t2.5 -32l-66 -235q-16 2 -31.5 -2.5t-28.5 -15.5v0z M946 760q-3 6 -9 9t-12 1q-6 -3 -9 -9t-1 -12q5 -12 7.5 -25.5t2.5 -27.5q0 -59 -42 -100.5t-101 -41.5q-58 0 -100 41.5t-42 100.5t42 100.5t100 41.5q8 0 12 4.5t4 11.5q0 8 -4 12t-12 4q-72 0 -123 -51t-51 -123t51 -123t123 -51t123.5 51t51.5 123q1 17 -2 32.5t-9 31.5 zM827 854l-46 -46q-5 -5 -5 -11.5t5 -10.5q2 -3 5.5 -4t5.5 -1t5.5 1t5.5 4l58 57q5 5 5 11.5t-5 11.5l-58 57q-5 5 -11 5t-11 -5t-5 -11t5 -11l46 -47v0z" />
</svg>