<svg viewBox="0 0 1024 1024" xmlns="http://www.w3.org/2000/svg">
  <path transform="scale(1, -1) translate(0, -960)" fill="currentColor" d="M590 45q-2 2 -5 4.5t-6 3.5l67 241q9 29 -4 56t-40 39l-48 21v70q0 7 -4.5 11.5t-11.5 4.5q-8 0 -12 -4.5t-4 -11.5v-59l-144 61q-15 6 -31 6t-30 -6l-146 -61v110q0 19 13.5 33t33.5 14h204q8 0 12 4t4 12q0 7 -4 11.5t-12 4.5h-176v88q0 19 14 32.5t33 13.5h54v0v0v0v0 h66q7 0 11.5 4.5t4.5 11.5t-4.5 11.5t-11.5 4.5h-50v78q0 8 -4.5 12t-11.5 4t-11.5 -4t-4.5 -12v-78h-38q-33 0 -56 -23t-23 -55v-90q-31 -1 -53 -24t-22 -54v-124l-48 -19q-27 -12 -40 -38.5t-5 -55.5l66 -240q-2 -1 -5.5 -3.5t-5.5 -4.5l-56 -48q-5 -5 -6 -11.5t4 -11.5 q3 -3 6 -4.5t7 -1.5q2 0 5.5 1t5.5 2l56 48q13 11 30.5 11t30.5 -11l14 -13q22 -19 51.5 -19t51.5 19l14 13q13 11 30.5 11t30.5 -11l14 -13q22 -19 51.5 -19t51.5 19l14 13q13 11 30.5 11t30.5 -11l56 -48q5 -5 11.5 -4t10.5 6q5 5 4.5 11t-5.5 11l-55 50v0zM486 45 l-14 -13q-13 -11 -30.5 -11t-30.5 11l-14 13q-22 19 -51.5 19t-51.5 -19l-16 -13q-13 -11 -30 -11t-30 11l-15 13q-13 11 -29 15.5t-32 1.5l-67 240q-5 17 3 33t24 23l58 24h1h1l166 69q8 4 17.5 4t17.5 -4l167 -69h0.5h0.5l58 -24q17 -7 24.5 -23t2.5 -33l-67 -240 q-17 3 -33 -1.5t-30 -15.5v0zM952 846l-166 77q-11 5 -23.5 5t-23.5 -5l-166 -77q-7 -3 -14 -8.5t-10 -11.5v0v0v0v0q-4 -6 -6 -14t-2 -15v-194q0 -15 8 -28.5t22 -20.5l167 -84l12 -4t13 -2q6 0 13 1.5t13 4.5l166 84q15 7 23 20.5t8 28.5v192q-2 17 -11 30.5t-23 20.5z M752 894q2 2 4.5 2h5.5h4.5t4.5 -2l159 -73l-66 -32l-163 81zM762 738l-168 83l70 32l166 -82zM584 581q-6 3 -9.5 9t-3.5 12v193v0v0l175 -85v-209l-162 80v0zM952 603q0 -7 -3.5 -12.5t-9.5 -8.5l-161 -81v209l70 36v-66q0 -7 4.5 -11.5t11.5 -4.5t11.5 4.5t4.5 11.5v82v0 v0l72 35v0v0v-194z" />
</svg>