<svg viewBox="0 0 256 256" xmlns="http://www.w3.org/2000/svg">
  <path transform="scale(1, -1) translate(0, -256)" fill="currentColor" d="M187 251q-16 0 -29.5 -8t-21 -21t-7.5 -29t7.5 -29.5t21 -21t29.5 -7.5t29 7.5t21 21t8 29.5t-8 29t-21 21t-29 8zM187 149q-18 0 -31 13t-13 31t13 31t31 13t31 -12.5t13 -31t-13 -31.5t-31 -13zM209 184l-15 11v19q0 3 -2 4.5t-5 1.5t-5 -2t-2 -5v-22q0 -4 3 -6l18 -13 q2 -1 4.5 -1t4.5 2.5t2 5.5t-3 5zM152 29l-1 1l16 58q2 8 -1.5 15.5t-11.5 10.5l-10 4v16q0 3 -2 5.5t-5 2.5t-5 -2.5t-2 -5.5v-10l-32 14q-9 3 -17 0l-32 -14v23q0 3 2.5 5.5t6.5 2.5h50q3 0 5 2t2 5t-2 5.5t-5 2.5h-40v18q0 4 2.5 6t5.5 2h30q3 0 5 2.5t2 5.5t-2 5t-5 2 h-10v16q0 3 -2 5t-5 2t-5 -2t-2 -5v-16h-6q-10 0 -16.5 -6.5t-6.5 -16.5v-19q-8 -1 -13 -7.5t-5 -14.5v-28l-10 -4q-8 -4 -11.5 -11.5t-1.5 -15.5l16 -57l-15 -13q-2 -2 -2 -5t1.5 -5t4.5 -2t5 1l14 12q2 2 5 2t6 -2l3 -3q7 -5 15 -5t15 5l3 3q3 2 6 2t5 -2l4 -3 q6 -5 14.5 -5t14.5 5l4 3q2 2 5.5 2t5.5 -2l14 -12q2 -2 5 -1.5t4.5 2.5t1.5 5t-2 5zM123 29l-4 -3q-2 -2 -5.5 -2t-5.5 2l-4 3q-6 6 -14.5 6t-14.5 -6l-3 -3q-3 -2 -6 -2t-6 2l-3 3q-7 6 -15 6l-16 57q-1 3 0.5 5.5t4.5 4.5l55 23q4 1 7 0l55 -24q3 -1 4.5 -4t0.5 -6 l-16 -57q-8 0 -14 -5z" />
</svg>