<svg viewBox="0 0 1024 1024" xmlns="http://www.w3.org/2000/svg">
  <path transform="scale(1, -1) translate(0, -960)" fill="currentColor" d="M600 45q-2 2 -5.5 4.5t-5.5 3.5l67 245q8 28 -5.5 55.5t-40.5 38.5l-50 21v73q0 8 -4.5 12t-11.5 4t-11.5 -4t-4.5 -12v-60l-147 60q-15 6 -31 6t-30 -6l-147 -60v112q0 19 13.5 33.5t34.5 14.5h206q7 0 11.5 4t4.5 12q0 7 -4.5 11.5t-11.5 4.5h-177v89q0 19 13.5 33.5 t34.5 14.5h54v0v0v0v0h67q7 0 11.5 4.5t4.5 11.5t-4.5 11.5t-11.5 4.5h-51v79q0 7 -4.5 11.5t-11.5 4.5t-11.5 -4.5t-4.5 -11.5v-79h-38q-33 0 -56.5 -23t-23.5 -57v-89q-32 -2 -54 -25t-22 -54v-125l-49 -20q-28 -12 -41.5 -39t-5.5 -56l69 -245l-4.5 -4.5t-6.5 -4.5 l-56 -48q-5 -5 -5.5 -11.5t3.5 -11.5q5 -4 11.5 -5t11.5 4l56 48q13 12 31 12t31 -12l15 -13q22 -19 51.5 -19t52.5 19l14 13q13 12 31 12t31 -12l15 -13q23 -19 52 -19t52 19l14 13q13 12 31 12t32 -12l56 -48q2 -3 4.5 -3h6.5q3 0 6.5 1t6.5 3q4 5 3.5 11.5t-5.5 11.5 l-56 48v0zM496 45l-14 -13q-14 -12 -32 -12t-31 12l-14 13q-23 19 -52 19t-52 -19l-16 -13q-13 -12 -31 -12t-32 12l-14 13q-13 11 -29.5 15.5t-32.5 1.5l-68 244q-4 16 3.5 33t24.5 23l57 24h1h1l169 70q9 4 19 4t18 -4l168 -70h1h1l57 -24q17 -8 24.5 -24t3.5 -32 l-69 -244q-16 3 -32 -1.5t-29 -15.5v0zM981 710v2v2q-2 44 -20 83q-19 39 -49 68t-70 46t-85 17q-46 0 -87 -18q-41 -17 -72 -48t-49 -72t-18 -88q0 -46 18 -87t48.5 -71.5t71.5 -48.5t88 -18t88 17q41 18 71.5 48.5t48.5 71.5q17 42 17 88q-1 3 -1 5v3zM757 896 q27 0 52.5 -8t48.5 -21l-90 -104q-12 -14 -30 -16.5t-32 8.5l-18 11l-88 48q25 38 66.5 60t90.5 22zM563 702q0 23 5 43.5t14 40.5l88 -48l16 -12q11 -7 22 -10.5t23 -3.5q17 0 33 7t28 22l91 107q27 -24 44.5 -56t21.5 -69l-101 -37q-1 0 -2 -0.5l-1 -0.5l-195 -141 q-39 25 -63 67t-24 91v0zM757 510q-21 0 -40 4.5t-37 11.5l182 132l87 32q-5 -76 -61 -128t-131 -52z" />
</svg>