<svg viewBox="0 0 256 256" xmlns="http://www.w3.org/2000/svg">
  <path transform="scale(1, -1) translate(0, -256)" fill="currentColor" d="M146 29h-1l-1 1l16 56q3 8 -1 15.5t-11 10.5l-10 4v16q0 3 -2 5t-5 2t-5 -2t-2 -5v-10l-31 13q-9 4 -17 0l-32 -13v22q0 4 2.5 6t5.5 2h50q3 0 5 2.5t2 5.5t-2 5t-5 2h-40v18q0 3 2.5 5.5t5.5 2.5h30q3 0 5 2t2 5t-2 5.5t-5 2.5h-9v15q0 3 -2 5t-5 2t-5.5 -2t-2.5 -5v-16 h-6q-9 0 -15.5 -6.5t-6.5 -15.5v-19q-7 -1 -12.5 -7t-5.5 -14v-28l-9 -4q-8 -3 -11.5 -10.5t-1.5 -15.5l16 -57l-15 -12q-2 -2 -2 -5t1.5 -5t4.5 -2t5 1l14 11q2 3 5 3t6 -3l3 -3q7 -5 15 -5t15 5l3 3q3 3 6 2.5t5 -2.5l4 -3q6 -5 14.5 -5t14.5 5l3 3q3 3 6 2.5t5 -2.5 l14 -11q2 -2 5 -2t5 2.5t1.5 5.5t-2.5 5zM117 29l-4 -3q-2 -2 -5 -2.5t-6 2.5l-3 3q-7 5 -15 5t-14 -5l-4 -3q-2 -2 -5 -2.5t-6 2.5l-3 3q-6 5 -14 5l-16 56q-1 3 0 5.5t4 4.5l55 22q3 2 7 0l54 -22q3 -2 4.5 -4.5t0.5 -5.5l-16 -56q-8 0 -14 -5zM246 182l-31 58 q-3 5 -8.5 8t-11.5 3t-11 -3t-8 -8l-32 -58q-3 -5 -2.5 -10.5t3.5 -11t8 -8t11 -2.5h62q6 0 11.5 2.5t8.5 7.5q6 11 0 22zM234 168q-3 -4 -8 -4h-62q-5 0 -7.5 3.5t0.5 8.5l31 57q3 4 7.5 4t6.5 -4l32 -57q2 -4 0 -8zM196 216q-3 0 -5.5 -2t-2.5 -5v-7q0 -3 2.5 -5.5 t5.5 -2.5t5 2.5t2 5.5v7q0 3 -2.5 5t-4.5 2zM196 188q-3 0 -5.5 -2.5t-2.5 -5.5t2.5 -5t5.5 -2t5 2t2 5v1q-1 3 -3 5t-4 2z" />
</svg>