<svg viewBox="0 0 1024 1024" xmlns="http://www.w3.org/2000/svg">
  <path transform="scale(1, -1) translate(0, -960)" fill="currentColor" d="M200 272v-78q0 -8 4.5 -12t11.5 -4t11.5 4t4.5 12v80v2v1l-80 325l360 83l360 -82l-80 -325v-2v-1v-80q0 -7 4.5 -11.5t11.5 -4.5t11.5 4.5t4.5 11.5v77l83 339q1 4 0.5 6.5t-1.5 6.5q-2 4 -5 5t-5 1l-115 26v171q0 42 -29.5 71.5t-71.5 29.5h-336q-42 0 -71.5 -29.5 t-29.5 -71.5v-171l-113 -26q-4 -1 -6.5 -2.5t-3.5 -3.5t-2 -5.5t0 -7.5zM277 827q0 29 20 49t49 20h336q28 0 48 -20t20 -49v-163l-233 53h-3h-4l-233 -53v163v0zM912 85q-31 0 -49 -16.5t-31 -31.5q-12 -17 -23.5 -27t-29.5 -10t-29.5 10t-24.5 27q-13 15 -31 31.5 t-49 16.5t-49 -16.5t-31 -31.5q-12 -17 -23.5 -27t-29.5 -10t-29.5 10t-24.5 27q-14 15 -31.5 31.5t-48.5 16.5q-32 0 -49.5 -16.5t-30.5 -31.5q-14 -17 -25.5 -27t-29.5 -10t-29.5 10t-24.5 27q-13 15 -31 31.5t-49 16.5q-7 0 -11.5 -4.5t-4.5 -11.5t4.5 -11.5t11.5 -4.5 q18 0 29.5 -10t24.5 -27q13 -16 31 -32t49 -16t49 16t31 32q13 17 25 27t30 10t29.5 -10t24.5 -27q13 -16 31 -32t49 -16t49 16t31 32q13 17 24.5 27t29.5 10t30 -10t25 -27q13 -16 31 -32t49 -16t49 16t31 32q13 17 24.5 27t29.5 10q7 0 11.5 4.5t4.5 11.5t-6 11.5t-13 4.5 z" />
</svg>