<svg viewBox="0 0 256 256" xmlns="http://www.w3.org/2000/svg">
  <path transform="scale(1, -1) translate(0, -256)" fill="currentColor" d="M166 30v1h-1l17 62q3 9 -1 17t-12 11l-11 5v17q0 3 -2.5 5t-5.5 2t-5 -2t-2 -5v-11l-34 14q-9 4 -18 0l-35 -14v24q0 4 3 7t7 3h54q3 0 5 2t2 5t-2 5t-5 2h-44v21q0 4 3 7t7 3h31q3 0 5 2t2 5t-2 5t-5 2h-11v17q0 3 -2 5.5t-5 2.5t-5 -2.5t-2 -5.5v-18h-7q-10 0 -17 -6.5 t-7 -16.5v-21q-8 -2 -13.5 -8.5t-5.5 -14.5v-31l-12 -4q-8 -4 -12 -12t-1 -16l17 -62l-16 -14q-2 -2 -2.5 -5t1.5 -5.5t5 -2.5t5 2l15 13q2 2 5.5 2t6.5 -2l4 -4q7 -5 15.5 -5t15.5 5l4 4q3 2 6 2t6 -2l4 -4q7 -5 15.5 -5t15.5 5l4 4q3 2 6.5 2t5.5 -2l15 -13q2 -2 5 -2 t5 2.5t2 5.5t-3 5zM136 30l-4 -3q-3 -3 -6.5 -3t-6.5 3l-4 3q-6 6 -15 6t-16 -6l-4 -3q-2 -3 -5.5 -3t-6.5 3l-4 3q-6 6 -16 6l-17 61q-1 3 0.5 6.5t5.5 4.5l59 25q4 1 8 0l59 -25q3 -2 4.5 -5t0.5 -7l-17 -61q-9 1 -15 -5zM233 215h-7v11q0 11 -7 18t-17.5 7t-17.5 -7 t-7 -18v-11h-7q-3 0 -5 -2t-2 -5v-36q0 -3 2 -5t5 -2h62q3 0 5.5 2t2.5 5v36q0 3 -2 5t-5 2zM191 226q0 5 3.5 8t8 3t7.5 -3t3 -8v-11h-21v11h-1zM226 179h-48v23h48v-23z" />
</svg>