<svg viewBox="0 0 1024 1024" xmlns="http://www.w3.org/2000/svg">
  <path transform="scale(1, -1) translate(0, -960)" fill="currentColor" d="M584 40q-2 2 -4.5 4t-5.5 4l63 222q7 28 -5 53t-38 35l-45 18v67q0 7 -4.5 11.5t-11.5 4.5t-11.5 -4.5t-4.5 -11.5v-53l-133 56q-13 6 -28 6t-30 -6l-134 -56v101q0 18 12.5 30t29.5 12h188q8 0 12 4.5t4 11.5t-4 11.5t-12 4.5h-158v81q0 18 12.5 30t29.5 12h49v0v0v0v0 h61q7 0 11.5 4.5t4.5 11.5t-4.5 11.5t-11.5 4.5h-45v70q0 8 -4.5 12t-11.5 4t-11.5 -4t-4.5 -12v-70h-35q-31 0 -52.5 -22t-21.5 -52v-81q-28 -3 -48 -24t-20 -50v-113l-44 -18q-26 -11 -38 -36.5t-5 -51.5l64 -224q-2 -1 -4.5 -3t-4.5 -3l-52 -45q-4 -5 -5 -11.5t4 -11.5 q1 -3 4 -4.5t7 -1.5q2 0 5.5 1t5.5 2l51 45q12 10 28 10t27 -10l14 -11q21 -18 48.5 -18t49.5 18l13 11q12 10 27.5 10t26.5 -10l13 -11q20 -18 48 -18t49 18l13 11q12 11 28 10.5t27 -10.5l51 -45q5 -5 11 -4t11 6t4 11t-5 11l-50 45v0zM488 40l-13 -11q-12 -10 -27.5 -10 t-26.5 10l-13 11q-20 18 -48 18t-50 -18l-12 -11q-12 -10 -28 -10t-27 10l-14 11q-12 11 -27 15t-29 3l-66 222q-5 16 2.5 30t21.5 20l53 22h1h1l155 64q7 4 16 4t16 -4l153 -64h1h1l53 -22q14 -6 21.5 -21t2.5 -29l-61 -222q-16 2 -30 -2.5t-26 -15.5zM928 792 q-10 7 -20.5 11.5t-22.5 4.5h-58v42q0 22 -7 38t-20 27q-8 6 -18 9.5t-24 3.5q-9 0 -20 -1.5t-13 -1.5q-9 -3 -13.5 -9.5t-4.5 -14.5v-64q0 -19 -12 -30.5t-23 -17.5q-2 5 -6 7t-8 2h-98q-7 0 -11.5 -4t-4.5 -12v-232q0 -7 4.5 -11.5t11.5 -4.5h98q4 0 8 2.5t6 7.5 q6 -2 12 -3.5t12 -1.5h158q33 0 53.5 17t23.5 47l21 127q2 18 -4 34.5t-20 27.5v0zM643 565h-67v201h66v-201h1zM920 734l-21 -128q-2 -22 -16.5 -29t-28.5 -7h-158q-6 0 -12 2t-10 6v176q20 7 42.5 27.5t22.5 53.5v59q4 0 9.5 1t9.5 1q8 0 13.5 -1.5t9.5 -4.5 q7 -5 10.5 -15.5t3.5 -23.5v-57q0 -8 4.5 -12t11.5 -4h74q6 0 11.5 -2.5t10.5 -5.5q7 -8 10.5 -17t2.5 -19v0z" />
</svg>