<svg viewBox="0 0 1024 1024" xmlns="http://www.w3.org/2000/svg">
  <path transform="scale(1, -1) translate(0, -960)" fill="currentColor" d="M675 45q-2 2 -5.5 4.5t-7.5 3.5l71 248q8 29 -5.5 56.5t-41.5 39.5l-49 21v75q0 7 -4.5 11.5t-11.5 4.5t-11.5 -4.5t-4.5 -11.5v-61l-149 62q-14 6 -30.5 6t-31.5 -6l-151 -62v114q0 20 14.5 34t33.5 14h210q7 0 11.5 4t4.5 12q0 7 -4.5 11.5t-11.5 4.5h-181v91 q0 20 14.5 34t33.5 14h56v0v0v0v0h67q7 0 11.5 4.5t4.5 11.5t-4.5 11.5t-11.5 4.5h-51v80q0 7 -4.5 11.5t-11.5 4.5t-11.5 -4.5t-4.5 -11.5v-80h-40q-34 0 -57 -24t-23 -56v-91q-32 -2 -54.5 -25t-22.5 -55v-127l-49 -21q-28 -12 -41.5 -39.5t-5.5 -56.5l71 -248 q-4 -2 -6.5 -3.5t-5.5 -4.5l-57 -49q-5 -5 -6 -11.5t4 -11.5q5 -4 11.5 -5t11.5 4l57 49q13 12 31 12t32 -12l14 -12q23 -20 53 -20t53 20l14 12q13 12 31.5 12t32.5 -12l14 -12q23 -20 53 -20t53 20l14 12q14 12 32 12t32 -12l58 -49q2 -3 5 -3h6q4 0 7.5 1t5.5 3 q5 5 4 11.5t-6 11.5l-59 48v0zM570 45l-16 -13q-14 -12 -32 -12t-32 12l-15 13q-23 19 -53 19t-52 -19l-13 -13q-13 -12 -31.5 -12t-32.5 12l-15 13q-13 12 -29 16t-33 3l-70 246q-5 18 2.5 34.5t24.5 23.5l59 24h1h1l171 72q8 4 18 4t19 -4l171 -70h0.5h0.5l60 -24 q16 -8 24.5 -24t2.5 -34l-69 -248q-17 2 -33 -2.5t-29 -16.5v0zM794 928q-23 0 -43.5 -8t-36.5 -22q-5 -5 -5.5 -11.5t3.5 -11.5q5 -5 11.5 -5t10.5 4q12 10 27.5 16t32.5 6q37 0 62.5 -26t25.5 -62t-26 -62t-62 -26q-8 0 -12 -4.5t-4 -11.5v-90q0 -7 4 -11.5t12 -4.5 q7 0 11.5 4.5t4.5 11.5v74q44 6 74 40t30 80q0 49 -35.5 84.5t-84.5 35.5zM792 542q-7 0 -11.5 -4t-4.5 -12v-4q0 -8 4.5 -12t11.5 -4t11.5 4t4.5 12v4q0 8 -4.5 12t-11.5 4z" />
</svg>