<svg viewBox="0 0 256 256" xmlns="http://www.w3.org/2000/svg">
  <path transform="scale(1, -1) translate(0, -256)" fill="currentColor" d="M154 29q-1 1 -2 1l16 57q3 8 -1 16t-11 11l-10 4v16q0 3 -2.5 5t-5.5 2t-5 -2t-2 -5v-10l-31 13q-9 4 -17 0l-32 -13v22q0 4 2.5 6.5t6.5 2.5h50q3 0 5 2t2 5t-2 5t-5 2h-40v19q0 4 2 6t6 2h29q3 0 5 2.5t2 5.5q0 6 -6 6h-9v16q0 3 -2 5t-5 2t-5.5 -2t-2.5 -5v-16h-6 q-9 0 -15.5 -7t-6.5 -16v-19q-8 -2 -13.5 -8t-5.5 -14v-28l-10 -4q-8 -3 -11.5 -11t-1.5 -16l16 -57l-14 -13q-3 -2 -3 -4.5t2 -5t4.5 -2.5t5.5 1l13 12q3 3 6 2.5t5 -2.5l4 -3q6 -5 14.5 -5t14.5 5l4 3q2 3 5 2.5t5 -2.5l4 -3q6 -5 14.5 -5t14.5 5l4 3q2 3 5.5 2.5 t5.5 -2.5l13 -11q2 -2 5 -2t5 2.5t1.5 5.5t-2.5 5zM124 29l-3 -3q-3 -2 -6 -2t-5 2l-4 3q-6 6 -14 6t-15 -6l-3 -3q-3 -2 -6 -2t-5 2l-4 3q-6 6 -15 5l-16 57q-1 3 0.5 6t4.5 4l56 23q3 1 6 0l55 -23q3 -1 4.5 -4t0.5 -6l-16 -56q-9 -1 -15 -6zM239 207q-1 3 -3.5 4t-5.5 0 t-4 -3.5t0 -5.5q2 -6 2 -12q0 -14 -9.5 -23.5t-23 -9.5t-23 9.5t-9.5 23t9.5 23t22.5 10.5l-2 -3q-2 -2 -2 -4.5t2 -5t4.5 -2.5t4.5 2l15 15q2 2 2 5t-1 5l-15 14q-2 2 -5 2t-5 -2t-2 -5t2 -5l3 -2q-20 0 -33.5 -14t-13.5 -33t13.5 -33t33 -14t33 13.5t13.5 33.5q0 8 -3 17z " />
</svg>