<svg viewBox="0 0 256 256" xmlns="http://www.w3.org/2000/svg">
  <path transform="scale(1, -1) translate(0, -256)" fill="currentColor" d="M194 145q2 -1 4.5 -1t3.5 1q17 13 29 26q20 22 20 39q0 13 -9.5 22.5t-22 9.5t-21.5 -7q-9 7 -21.5 7t-22 -9.5t-9.5 -22.5q0 -18 20 -40q12 -12 29 -25zM198 160q-15 11 -25 23q-14 16 -14 27q0 7 5.5 12.5t14 5.5t13.5 -7q2 -3 6 -3t6 3q5 7 13.5 7t14 -5.5t5.5 -12.5 q0 -11 -13 -27q-11 -12 -26 -23zM154 32q-1 0 -1 1h-1l17 61q3 9 -1 17t-12 11l-11 5v17q0 3 -2 5t-5 2t-5 -2t-2 -5v-11l-34 14q-9 4 -18 0l-34 -15v25q0 4 3 6.5t6 2.5h54q3 0 5 2.5t2 5.5t-2 5t-5 2h-44v20q0 4 3 7t7 3h31q3 0 5 2t2 5t-2 5t-5 2h-10v17q0 3 -2 5t-5 2 t-5.5 -2t-2.5 -5v-18h-7q-9 0 -16 -6.5t-7 -16.5v-21q-9 -2 -14.5 -8.5t-5.5 -14.5v-31l-10 -4q-8 -3 -12 -11t-2 -17l18 -61l-16 -14q-3 -2 -3 -4.5t2 -5t5 -2.5t4 2l15 13q3 2 6.5 2t5.5 -2l4 -4q7 -5 15.5 -5t15.5 5l4 4q3 2 6.5 2t5.5 -2l4 -4q7 -5 16 -5t15 5l4 4 q3 2 6 2t6 -2l15 -13q2 -2 5 -1.5t4.5 2.5t1.5 5t-2 5zM123 32l-3 -3q-3 -3 -6.5 -3t-6.5 3l-4 3q-6 6 -15 6t-16 -6l-4 -3q-2 -3 -5.5 -3t-6.5 3l-4 3q-6 6 -16 6l-16 60q-1 3 0.5 6.5t5.5 4.5l59 25q3 1 7 0l58 -24q4 -2 5.5 -5t0.5 -7l-17 -60q-10 -1 -16 -6z" />
</svg>