<svg viewBox="0 0 256 256" xmlns="http://www.w3.org/2000/svg">
  <path transform="scale(1, -1) translate(0, -256)" fill="currentColor" d="M140 28l-1 1h-1l16 53q2 8 -1.5 15.5t-11.5 10.5l-9 4v14q0 3 -2 5t-5 2t-5 -2t-2 -5v-9l-29 12q-8 3 -17 0l-28 -12v21q0 3 2 5t5 2h47q3 0 5 2t2 5t-2 5.5t-5 2.5h-37v16q0 3 2 5.5t5 2.5h28q3 0 5 2t2 5t-2 5t-5 2h-8v15q0 3 -2 5t-5 2t-5 -2t-2 -5v-15h-6 q-9 0 -15.5 -6.5t-6.5 -15.5v-17q-7 -2 -12 -8t-5 -13v-26l-8 -4q-8 -3 -11.5 -10.5t-1.5 -15.5l16 -53l-14 -12q-2 -2 -2.5 -4.5t1.5 -5t5 -2.5t5 2l13 11q2 2 4.5 2t4.5 -2l3 -3q6 -5 14 -5t14 5l4 3q2 2 4.5 2t4.5 -2l3 -3q6 -5 14 -5t14 5l4 3q2 2 4.5 2t4.5 -2l13 -11 q2 -2 5 -2t4.5 2.5t1.5 5.5t-2 5zM112 28l-4 -2q-2 -2 -5 -2t-5 2l-3 2q-6 6 -14 6t-14 -6l-3 -2q-2 -2 -5 -2t-5 2l-3 2q-6 6 -13 6l-16 52q-1 3 0.5 5.5t3.5 3.5l52 21q4 2 6 0l52 -22q3 -1 4 -3.5t0 -4.5l-14 -53q-8 1 -14 -5zM184 251q-18 0 -33 -9t-24 -24t-9 -32.5 t9 -32.5t24 -24t32.5 -9t32.5 9t24 24t9 32.5t-9 32.5t-24 24t-32 9zM184 135q-21 0 -36.5 15t-15.5 36t15 36t36.5 15t36.5 -15t15 -36.5t-15 -36t-36 -14.5zM174 213h-15q-3 0 -5 -2t-2 -5t2 -5t5 -2h8v-9h-8q-3 0 -5 -2.5t-2 -5.5v-23q0 -3 2 -5t5 -2h15q3 0 5 2t2 5 t-2 5t-5 2h-8v10h8q3 0 5 2t2 5v23q0 3 -2 5t-5 2zM221 206q0 3 -2 5t-5 2t-5 -2t-2 -5v-16h-8v16q0 3 -2 5t-5 2t-5 -2t-2 -5v-23q0 -3 2 -5t5 -2h14v-14q0 -3 2.5 -5.5t5.5 -2.5t5 2.5t2 5.5v44z" />
</svg>