<svg viewBox="0 0 1024 1024" xmlns="http://www.w3.org/2000/svg">
  <path transform="scale(1, -1) translate(0, -960)" fill="currentColor" d="M874 893q-23 0 -44 -8.5t-38 -23.5q-17 15 -37.5 23.5t-44.5 8.5q-49 0 -83.5 -34.5t-34.5 -84.5q0 -38 25 -78t58 -75t63 -60q31 -26 43 -35v0v0q2 -1 4.5 -2t4.5 -1q3 0 6 1t4 2q12 9 43 35q31 25 63.5 60t57.5 75t25 78q2 48 -32 83.5t-83 35.5v0zM792 558 q-25 20 -54 46t-54.5 55t-42.5 59t-17 56q0 36 25 61.5t61 25.5q21 0 38.5 -9t30.5 -25q5 -6 13 -6t13 6q12 16 30 25t39 9q36 0 61 -25.5t25 -61.5q0 -30 -21 -63q-21 -34 -49 -64t-56 -53l-42 -36v0zM608 54q-2 3 -5.5 5.5t-7.5 4.5l72 253q9 30 -5 57.5t-41 39.5l-51 21 v77q0 7 -4.5 11.5t-11.5 4.5q-8 0 -12 -4.5t-4 -11.5v-62l-154 62q-14 6 -31 6t-31 -6l-154 -64v115q0 21 14.5 35.5t35.5 14.5h214q7 0 11.5 4.5t4.5 11.5t-4.5 11.5t-11.5 4.5h-187v93q0 20 14.5 34.5t34.5 14.5h56v0v0v0v0h69q7 0 11.5 4.5t4.5 11.5t-4.5 11.5t-11.5 4.5 h-51v85q0 7 -4.5 11.5t-11.5 4.5t-11.5 -4.5t-4.5 -11.5v-82h-42q-33 0 -57 -24t-24 -57v-95q-33 -1 -56 -24.5t-23 -56.5v-130l-51 -21q-29 -12 -42.5 -39.5t-5.5 -57.5l74 -253q-4 -2 -6.5 -4t-6.5 -4l-58 -51q-4 -5 -5 -11.5t4 -11.5q5 -4 11 -5t11 4l58 51 q14 12 32.5 12t32.5 -12l16 -13q23 -19 54 -19t54 19l16 13q14 12 32.5 12t32.5 -12l16 -13q23 -19 54 -19t53 19l15 13q14 12 32.5 12t32.5 -12l58 -50q2 -2 5 -2.5t6 -0.5q4 0 7.5 1.5t5.5 3.5q5 5 4 11.5t-6 10.5l-62 48v0zM501 54l-15 -12q-14 -12 -32.5 -12t-32.5 12 l-16 12q-23 20 -54 20t-53 -20l-16 -12q-15 -12 -33.5 -12t-32.5 12l-16 12q-13 12 -30 17t-34 3l-69 251q-5 18 3.5 35t25.5 24l59 26h1h1l174 72q10 3 19.5 3t19.5 -3l174 -72h1h1l59 -26q17 -7 25 -24t4 -35l-71 -251q-15 2 -32 -3t-30 -17v0z" />
</svg>