<svg viewBox="0 0 256 256" xmlns="http://www.w3.org/2000/svg">
  <path transform="scale(1, -1) translate(0, -256)" fill="currentColor" d="M158 29q0 1 -1 1l16 59q3 9 -1 16.5t-12 10.5l-10 5v16q0 3 -2.5 5t-5 2t-4.5 -2t-2 -5v-11l-32 14q-9 4 -18 0l-32 -14v24q0 3 2.5 5.5t6.5 2.5h51q3 0 5 2.5t2 5t-2 4.5t-5 2h-42v19q0 4 3 6.5t6 2.5h30q3 0 5 2t2 5t-2 5t-5 2h-9v17q0 3 -2.5 5t-5.5 2t-4.5 -2 t-1.5 -5v-17h-7q-9 0 -16 -6.5t-7 -16.5v-19q-7 -2 -12.5 -8t-5.5 -14v-29l-10 -5q-8 -3 -12 -10.5t-2 -16.5l17 -59l-15 -12q-3 -2 -3 -5t2 -5.5t5 -2.5t4 2l14 12q3 2 6 2t6 -2l4 -3q6 -6 14.5 -6t14.5 6l4 3q2 2 5.5 2t5.5 -2l4 -3q6 -6 14.5 -6t15.5 6l3 3q3 2 6 2t6 -2 l14 -12q2 -2 5 -2t5 2.5t1.5 5.5t-2.5 5zM129 29l-4 -3q-2 -2 -5.5 -2t-5.5 2l-4 3q-6 6 -14.5 6t-15.5 -6l-3 -3q-3 -2 -6 -2t-6 2l-3 3q-7 6 -16 6l-16 58q-1 3 0.5 6t4.5 4l57 24q3 1 7 0l56 -24q3 -1 4.5 -4t0.5 -6l-16 -58q-10 0 -15 -6zM240 218l-10 28q-2 5 -6 5h-60 q-3 0 -4.5 -1.5t-2.5 -3.5l-10 -28l-1 -3v-53q0 -3 2.5 -5.5t5.5 -2.5h80q3 0 5.5 2.5t2.5 5.5v53zM168 237h50l8 -21h-65zM160 168v34h67v-34h-67z" />
</svg>