<svg viewBox="0 0 256 256" xmlns="http://www.w3.org/2000/svg">
  <path transform="scale(1, -1) translate(0, -256)" fill="currentColor" d="M210 17l-15 13l-1 1l17 63q3 8 -1 16t-12 12l-12 5v31q0 8 -5.5 15t-14.5 8v26q0 8 -5.5 13.5t-13.5 5.5h-12v18q0 3 -2 5t-5 2t-5 -2t-2 -5v-18h-12q-8 0 -13.5 -5.5t-5.5 -13.5v-26q-9 -2 -14.5 -8.5t-5.5 -14.5v-31l-11 -5q-9 -4 -12.5 -12t-1.5 -16l18 -63l-17 -14 q-2 -2 -2 -4.5t1.5 -5t4.5 -2.5t6 1l14 13q3 3 6.5 3t6.5 -3l4 -3q7 -6 16 -6t15 6l4 3q3 3 7 3t6 -3l4 -3q7 -6 16 -6t15 6l4 3q3 3 7 3t6 -3l15 -13q2 -1 5 -1t4.5 2.5t1 5t-2.5 4.5zM104 207q0 2 1.5 3.5t3.5 1.5h38q2 0 3.5 -1.5t1.5 -3.5v-26h-48v26zM84 158q0 4 3 6.5 t7 2.5h68q4 0 7 -2.5t3 -6.5v-26l-35 15q-9 4 -18 0l-35 -15v26zM164 30l-4 -3q-3 -3 -6.5 -3t-6.5 3l-4 3q-6 6 -15 6t-16 -6l-4 -3q-3 -3 -6.5 -3t-6.5 3l-4 3q-7 6 -16 6l-17 61q-1 4 0.5 7t4.5 5l60 25q4 1 8 0l61 -25q3 -1 4.5 -4.5t1.5 -6.5l-18 -62q-9 0 -16 -6z" />
</svg>