<svg viewBox="0 0 1024 1024" xmlns="http://www.w3.org/2000/svg">
  <path transform="scale(1, -1) translate(0, -960)" fill="currentColor" d="M677 48q-4 2 -6.5 4.5t-6.5 5.5l72 257q8 30 -5.5 58.5t-42.5 40.5l-53 23v78q0 7 -4.5 11.5t-11.5 4.5t-11.5 -4.5t-4.5 -11.5v-64l-155 63q-16 6 -32 6t-32 -6l-157 -66v118q0 22 15 37t36 15h218q7 0 11.5 4t4.5 12q0 7 -4.5 11.5t-11.5 4.5h-189v96q0 21 15 36t36 15 h58v0v0v0v0h70q8 0 12 4.5t4 11.5t-4 11.5t-12 4.5h-54v83q0 7 -4.5 11.5t-11.5 4.5t-11.5 -4.5t-4.5 -11.5v-85h-42q-34 0 -58.5 -24t-24.5 -59v-96q-33 -1 -56.5 -25.5t-23.5 -57.5v-131l-51 -21q-29 -12 -42.5 -40.5t-5.5 -58.5l72 -258q-4 -2 -6.5 -4t-6.5 -6l-59 -49 q-5 -5 -5.5 -11.5t3.5 -11.5q3 -3 6.5 -4.5t6.5 -1.5t6 1t5 2l60 51q14 12 33 12t34 -12l16 -12q23 -21 54 -21t55 21l16 12q14 12 33 12t34 -12l16 -12q23 -21 54 -21t55 21l16 12q14 12 33 12t34 -12l59 -51q5 -5 11.5 -4t10.5 6q5 5 4.5 11t-5.5 11l-64 53v0zM568 48 l-16 -13q-14 -12 -33.5 -12t-33.5 12l-16 13q-23 20 -54 20t-55 -20l-16 -13q-14 -12 -33.5 -12t-33.5 12l-16 13q-13 12 -30.5 17t-35.5 2l-72 256q-5 18 3.5 36t25.5 25l61 26h0.5h0.5l178 73q10 4 20 4t18 -4l178 -73h1h1l60 -26q18 -7 26.5 -24.5t2.5 -36.5l-72 -256 q-13 1 -29.5 -3t-29.5 -16v0zM928 651l-64 64q-2 3 -4 3.5t-4 1.5q12 14 18 31.5t6 35.5q0 22 -8 42.5t-24 34.5q-32 32 -77.5 32t-77.5 -32q-16 -16 -24 -35.5t-8 -41.5q0 -21 8 -41.5t24 -35.5q15 -15 35 -23.5t42 -8.5q19 0 35.5 6t31.5 18q0 -2 1 -4t4 -4l64 -64 q2 -2 5 -3t6 -1q2 0 5.5 1t5.5 3q5 4 5 10t-5 11zM715 733q-11 11 -16.5 25t-5.5 29q0 16 5.5 30t16.5 25q11 10 25.5 16t29.5 6q14 0 28.5 -6t25.5 -16q11 -11 16.5 -25t5.5 -30q0 -15 -5.5 -29t-16.5 -25q-23 -23 -55 -23t-54 23z" />
</svg>