<svg viewBox="0 0 256 256" xmlns="http://www.w3.org/2000/svg">
  <path transform="scale(1, -1) translate(0, -256)" fill="currentColor" d="M152 30q-1 0 -2 1l17 59q3 8 -1 16t-12 11l-10 5v16q0 3 -2.5 5t-5.5 2t-5 -2t-2 -5v-10l-32 13q-9 4 -18 0l-33 -13v23q0 3 3 6t6 3h52q3 0 5 2t2 5t-2 5t-5 2h-42v20q0 3 2.5 5.5t6.5 2.5h30q3 0 5 2.5t2 5.5t-2 5t-5 2h-10v15q0 3 -2 5.5t-5 2.5t-4.5 -2.5t-1.5 -5.5 v-16h-7q-10 0 -16.5 -7t-6.5 -16v-20q-8 -2 -13.5 -8t-5.5 -15v-29l-10 -4q-8 -3 -12 -11t-1 -16l17 -60l-16 -13q-2 -2 -2.5 -4.5t1.5 -5t5 -2.5t5 1l14 12q2 2 5.5 2t5.5 -2l4 -3q6 -5 14.5 -5t15.5 5l4 3q2 3 5.5 2.5t5.5 -2.5l4 -3q6 -5 14.5 -5t15.5 5l3 3q3 3 6.5 2.5 t5.5 -2.5l14 -12q2 -1 5 -1t5 2t2 5t-3 5zM122 30l-4 -4q-2 -2 -5.5 -2t-5.5 2l-4 4q-6 5 -14.5 5t-15.5 -5l-3 -4q-3 -2 -6.5 -2t-5.5 2l-4 4q-6 5 -15 5l-17 58q-1 4 0.5 6.5t5.5 4.5l57 24q3 1 7 0l57 -24q3 -2 4.5 -5t0.5 -6l-16 -58q-9 0 -16 -5zM189 251 q-16 0 -29.5 -8t-21.5 -21.5t-8 -30t8 -30t21.5 -21.5t29.5 -8t30 8t21.5 21.5t7.5 30t-7.5 30t-21.5 21.5t-30 8zM189 146q-18 0 -31.5 13.5t-13.5 32t13.5 32t32 13.5t31.5 -13.5t13 -32t-13 -32t-32 -13.5zM194 211q-2 2 -4.5 2t-5.5 -2l-18 -19q-2 -2 -2.5 -5t2 -5t5 -2 t4.5 2l14 14l14 -14q2 -2 5 -2t5 2.5t2 5t-2 4.5z" />
</svg>