<svg viewBox="0 0 1024 1024" xmlns="http://www.w3.org/2000/svg">
  <path transform="scale(1, -1) translate(0, -960)" fill="currentColor" d="M626 45q-3 2 -6 4.5t-6 3.5l69 243q9 29 -4 55.5t-42 38.5l-48 21v74q0 7 -4.5 11.5t-11.5 4.5t-11.5 -4.5t-4.5 -11.5v-59l-146 60q-14 6 -30 6t-31 -6l-147 -60v110q0 19 13.5 32.5t33.5 13.5h204q8 0 12 4.5t4 11.5q0 8 -4 12t-12 4h-176v90q0 19 14 32.5t33 13.5h54 v0v0v0v0h66q7 0 11.5 4.5t4.5 11.5q0 8 -4.5 12t-11.5 4h-51v77q0 7 -4.5 11.5t-11.5 4.5q-8 0 -12 -4.5t-4 -11.5v-78h-39q-32 0 -55 -23t-23 -56v-89q-31 -1 -53 -24t-22 -55v-123l-48 -21q-28 -12 -41 -38.5t-6 -55.5l69 -243q-4 -1 -6.5 -3.5l-4.5 -4.5l-56 -48 q-5 -5 -6 -11.5t4 -11.5q5 -4 11.5 -5t11.5 4l56 48q13 11 30 11t30 -11l15 -13q21 -19 51 -19t53 19l14 13q13 11 31 11t30 -11l14 -13q22 -19 52 -19t52 19l15 13q13 11 31 11t30 -11l56 -48q2 -3 4.5 -3h6.5q3 0 6.5 1t6.5 3q4 5 3.5 11.5t-5.5 11.5l-54 48v0zM523 45 l-14 -13q-13 -12 -31 -12t-32 12l-14 13q-22 19 -51.5 19t-52.5 -19l-14 -13q-14 -11 -31 -11t-30 11l-15 13q-13 11 -29 15.5t-31 1.5l-71 242q-5 17 3 33t24 23l58 24h1h1l168 70q8 4 17.5 4t18.5 -4l167 -70h0.5h0.5l58 -24q17 -7 24.5 -23t2.5 -33l-69 -242 q-15 3 -31 -1.5t-28 -15.5v0zM950 802l-41 115q-3 5 -6.5 8t-8.5 3h-240q-4 0 -8.5 -3t-5.5 -8l-42 -115q0 -2 -0.5 -3t-0.5 -2v-215q0 -7 4.5 -11.5t11.5 -4.5h323q7 0 11.5 4.5t4.5 11.5v215v2t-2 3zM666 896h216l36 -102v-4h-283h-3t-3 -1v5zM629 598v160q1 0 2.5 -0.5 t3.5 -0.5h285v-160h-291v1z" />
</svg>