<svg viewBox="0 0 256 256" xmlns="http://www.w3.org/2000/svg">
  <path transform="scale(1, -1) translate(0, -256)" fill="currentColor" d="M169 30l-1 1v0l17 63q3 8 -1 16t-12 12l-12 5v17q0 3 -2 5.5t-5 2.5t-5 -2.5t-2 -5.5v-11l-35 14q-9 4 -18 0l-35 -14v25q0 4 2.5 7t6.5 3h55q3 0 4.5 2t1.5 5t-2 5t-4 2h-44v21q0 4 3 6.5t7 2.5h32q3 0 5 2.5t2 5.5t-2 4.5t-5 1.5h-11v18q0 3 -2 5t-5 2t-5 -2t-2 -5v-18 h-7q-10 0 -17 -7t-7 -17v-21q-8 -1 -14 -7.5t-6 -15.5v-31l-11 -5q-8 -3 -12 -11t-1 -17l17 -62l-16 -14q-2 -2 -2.5 -5t1.5 -5.5t5 -2.5t5 2l15 13q2 2 6 2t7 -2l4 -4q6 -5 15 -5t16 5l4 4q2 2 6 2t7 -2l4 -4q6 -5 15 -5t16 5l4 4q2 2 6 2t7 -2l14 -13q2 -2 5 -2t5 2.5 t2 5.5t-3 5zM138 30l-4 -3q-2 -3 -6 -3t-6 3l-4 3q-7 6 -16 6t-16 -6l-4 -3q-2 -3 -6 -3t-6 3l-4 3q-7 6 -16 6l-17 62q-1 3 0.5 6.5t4.5 4.5l60 25q4 2 8 0l60 -25q3 -1 4.5 -4.5t1.5 -6.5l-18 -62q-9 0 -16 -6zM233 235l-31 11h-5l-31 -11q-2 -1 -3.5 -3t-1.5 -4v-25 q0 -18 15 -33q8 -8 20 -15q2 -1 4 -1l3 1q11 6 21 15q14 15 14 33v25q0 2 -1.5 4t-3.5 3zM224 203q0 -11 -9 -21q-6 -7 -15 -12q-9 5 -15 12q-9 10 -9 21v20l24 9l24 -9v-20z" />
</svg>