<svg viewBox="0 0 256 256" xmlns="http://www.w3.org/2000/svg">
  <path transform="scale(1, -1) translate(0, -256)" fill="currentColor" d="M47 84v-20q0 -3 2 -5t5 -2t5.5 2t2.5 5v20l-20 80l86 20l86 -19l-19 -79v-21q0 -3 2 -5t5 -2t5 2t2 5v19l21 84q0 3 -1 5.5t-5 2.5l-26 6v41q0 12 -8 20t-20 8h-84q-12 0 -20 -8.5t-8 -19.5v-41l-26 -6q-3 0 -4.5 -2t-1.5 -6zM72 223q0 6 4 10t10 4h84q6 0 10 -4.5 t4 -9.5v-37l-55 12q-1 1 -3 0l-55 -12v37h1zM228 40q-7 0 -13 -4q-4 -3 -9 -9v0q-4 -5 -6 -6.5t-5.5 -1.5t-5.5 1.5t-6.5 7t-7.5 8.5q-6 4 -14 4t-14 -4q-3 -3 -7.5 -8.5t-6.5 -7t-5.5 -1.5t-5.5 1.5t-6 7t-8 8.5q-6 4 -13.5 4t-13.5 -4q-4 -3 -8 -8.5t-6 -7t-5.5 -1.5 t-6 1.5t-6.5 7t-7 8.5q-6 4 -14 4q-3 0 -5 -2t-2 -5t2 -5t5 -2t5.5 -2t6.5 -7t8 -8q6 -4 13.5 -4t13.5 4q3 3 7.5 8t6.5 7t5.5 2t5.5 -2t6 -7t8 -8q6 -4 13.5 -4t13.5 4q4 3 8 8t6 7t5.5 2t6 -2t6.5 -7t7 -8q6 -4 14 -4t14 4q3 2 8 8l1 1q3 4 5.5 6t5.5 2t5 2t2 5t-2 5t-5 2 z" />
</svg>