<svg viewBox="0 0 1024 1024" xmlns="http://www.w3.org/2000/svg">
  <path transform="scale(1, -1) translate(0, -960)" fill="currentColor" d="M574 43q-2 3 -4.5 5t-6.5 3l66 234q8 27 -4.5 53.5t-40.5 37.5l-46 19v71q0 7 -4.5 11.5t-11.5 4.5q-8 0 -12 -4.5t-4 -11.5v-56l-138 57q-14 6 -29.5 6t-29.5 -6l-141 -59v106q0 18 13.5 31t31.5 13h198q7 0 11.5 4.5t4.5 11.5q0 8 -4.5 12t-11.5 4h-171v85 q0 18 13.5 31.5t31.5 13.5h53v0v0v0v0h64q7 0 11.5 4.5t4.5 11.5t-4.5 11.5t-11.5 4.5h-48v75q0 7 -4.5 11.5t-11.5 4.5q-8 0 -12 -4.5t-4 -11.5v-75h-37q-31 0 -54 -23t-23 -54v-86q-30 -1 -51 -23.5t-21 -53.5v-118l-46 -20q-27 -10 -39.5 -36.5t-5.5 -54.5l65 -233 q-2 -2 -5 -4l-6 -4l-54 -47q-5 -5 -6 -11t4 -11t11.5 -6t11.5 4l54 47q12 10 29 10t30 -10l15 -13q21 -18 50 -18t50 18l15 13q12 10 29 10t30 -10l14 -13q22 -19 51 -19t50 19l15 13q12 10 29 10t30 -10l54 -47q3 -2 5.5 -2.5t5.5 -0.5q4 0 7.5 1t5.5 4q5 5 4 11t-5 11 l-60 48v0zM475 43l-14 -13q-12 -10 -29 -10t-30 10l-15 13q-21 18 -50 18t-51 -18l-14 -13q-12 -10 -29 -10t-30 10l-15 13q-12 11 -27.5 15.5t-31.5 2.5l-64 232q-5 17 2.5 32t23.5 21l56 22h0.5h0.5l162 69q8 3 17.5 3t17.5 -3l162 -67h0.5h0.5l56 -23q16 -6 23.5 -21.5 t2.5 -31.5l-66 -232q-16 0 -31.5 -4t-27.5 -15v0zM974 659l-124 229q-11 19 -29 29.5t-39 10.5t-39 -10.5t-28 -29.5l-125 -229q-9 -18 -9 -38.5t11 -38.5t28 -28t38 -10h249q21 0 38.5 10t27.5 28q11 18 11 38.5t-10 38.5v0zM946 600q-6 -11 -16.5 -16.5t-22.5 -5.5h-251 q-12 0 -22 5.5t-16 16.5t-6 22.5t6 22.5l124 229q6 10 16.5 16t23.5 6q12 0 23 -6t17 -18l125 -229q5 -9 5 -21t-6 -22v0zM782 787q-7 0 -11.5 -4.5t-4.5 -11.5v-29q0 -7 4.5 -11.5t11.5 -4.5q8 0 12 4.5t4 11.5v29q0 7 -5 11.5t-11 4.5zM782 674q-7 0 -11.5 -5t-4.5 -11 t4.5 -11t11.5 -5q8 0 12 4t4 12v1q0 6 -5 10.5t-11 4.5z" />
</svg>