<svg viewBox="0 0 256 256" xmlns="http://www.w3.org/2000/svg">
  <path transform="scale(1, -1) translate(0, -256)" fill="currentColor" d="M244 103h-37v118q0 8 -5.5 13.5t-13.5 5.5h-66q-8 0 -13.5 -5.5t-5.5 -13.5v-14h-74q-10 0 -17 -7t-7 -17v-143q0 -10 7 -17t17 -7h141q6 0 11.5 3t8.5 8l39 62h15q3 0 5 2t2 5t-2 5t-5 2zM117 158h76v-55h-76v55zM117 221q0 2 1.5 3.5t3.5 1.5h66q2 0 3.5 -1.5t1.5 -3.5 v-49h-76v49zM29 193h74v-90h-84v80q0 4 3 7t7 3zM178 34q-3 -4 -8 -4h-141q-4 0 -7 2.5t-3 7.5v12h170zM198 66h-179v23h193zM140 212q-3 0 -5.5 -2.5t-2.5 -5.5v-11q0 -3 2.5 -5t5.5 -2t5 2t2 5v11q0 4 -2 6t-5 2zM172 212q-3 0 -5.5 -2.5t-2.5 -5.5v-11q0 -3 2.5 -5 t5.5 -2t5 2t2 5v11q0 4 -2.5 6t-4.5 2zM140 144q-3 0 -5.5 -2t-2.5 -5v-12q0 -3 2.5 -5t5.5 -2t5 2t2 5v12q0 3 -2 5t-5 2zM172 144q-3 0 -5.5 -2t-2.5 -5v-12q0 -3 2.5 -5t5.5 -2t5 2t2 5v12q0 3 -2.5 5t-4.5 2zM45 135q3 0 5 2t2 5v12q0 3 -2 5t-5 2t-5 -2t-2 -5v-12 q0 -3 2 -5t5 -2zM78 135q3 0 5 2t2 5v12q0 3 -2 5t-5 2t-5 -2t-2 -5v-12q0 -3 2 -5t5 -2z" />
</svg>