<svg viewBox="0 0 1024 1024" xmlns="http://www.w3.org/2000/svg">
  <path transform="scale(1, -1) translate(0, -960)" fill="currentColor" d="M632 48q-4 2 -6.5 4.5t-6.5 5.5l72 257q9 30 -5 58.5t-43 40.5l-51 21v79q0 7 -4.5 11.5t-11.5 4.5t-11.5 -4.5t-4.5 -11.5v-64l-155 65q-16 6 -32.5 6t-31.5 -6l-157 -67v118q0 22 15 37t36 15h218q7 0 11.5 4t4.5 12q0 7 -4.5 11.5t-11.5 4.5h-189v96q0 21 15 36t36 15 h58v0v0v0v0h70q7 0 11.5 4.5t4.5 11.5t-4.5 11.5t-11.5 4.5h-54v83q0 7 -4.5 11.5t-11.5 4.5t-11.5 -4.5t-4.5 -11.5v-85h-42q-35 0 -59 -24t-24 -59v-96q-34 -1 -57 -25.5t-23 -57.5v-131l-51 -21q-29 -12 -43 -40.5t-5 -58.5l72 -258q-4 -1 -7.5 -3.5t-5.5 -4.5l-59 -51 q-5 -5 -6 -11.5t4 -11.5q3 -3 6 -4.5t5 -1.5q3 0 6 1l6 2l59 51q14 12 33.5 12t33.5 -12l16 -12q23 -21 54 -21t55 21l16 12q14 12 33.5 12t33.5 -12l16 -12q23 -21 54 -21t55 21l16 12q14 12 33.5 12t33.5 -12l59 -51q5 -5 11.5 -4t11.5 6q4 5 3.5 11t-5.5 11l-64 53v0z M523 48l-16 -13q-14 -12 -33.5 -12t-33.5 12l-16 13q-23 20 -54 20t-55 -20l-16 -13q-14 -12 -33.5 -12t-33.5 12l-16 13q-13 12 -30.5 17t-35.5 2l-72 256q-2 18 7 36t27 25l61 26h0.5h0.5l178 73q10 4 20 4t18 -4l178 -73h1h1l60 -26q18 -7 26.5 -24.5t2.5 -36.5l-72 -256 q-15 1 -32 -3t-32 -16v0zM914 928h-247q-26 0 -45 -19t-19 -45v-198q0 -27 19 -45.5t45 -18.5h247q26 0 45 18.5t19 45.5v198q0 26 -19 45t-45 19zM667 896h247q13 0 22.5 -9.5t9.5 -22.5v-51h-311v51q0 13 9.5 22.5t22.5 9.5zM914 634h-247q-13 0 -22.5 9t-9.5 23v115h311 v-115q0 -14 -9.5 -23t-22.5 -9z" />
</svg>