<svg viewBox="0 0 1024 1024" xmlns="http://www.w3.org/2000/svg">
  <path transform="scale(1, -1) translate(0, -960)" fill="currentColor" d="M832 -3l-59 51q-4 2 -6.5 4.5t-6.5 5.5l72 257q8 30 -5.5 58.5t-42.5 40.5l-53 23v131q0 34 -23 57.5t-57 25.5v115q0 27 -18.5 45.5t-45.5 18.5h-59v82q0 7 -4.5 11.5t-11.5 4.5t-11.5 -4.5t-4.5 -11.5v-85h-61q-26 0 -45 -18.5t-19 -45.5v-115q-33 -1 -56.5 -25.5 t-23.5 -57.5v-131l-51 -21q-29 -12 -42.5 -40.5t-5.5 -58.5l72 -258q-4 -2 -6.5 -4t-6.5 -6l-59 -49q-5 -5 -5.5 -11.5t3.5 -11.5q3 -2 6.5 -3t6.5 -1t6 1t5 2l60 51q14 12 33 12t34 -12l16 -13q23 -20 54 -20t55 20l16 13q14 12 33 12t34 -12l16 -13q23 -20 54 -20t55 20 l16 13q14 12 33 12t34 -12l59 -51q5 -5 11.5 -4t10.5 5q5 5 2 11.5t-8 11.5v0zM403 763q0 13 9.5 22.5t22.5 9.5h77v0v0v0v0h77q13 0 22.5 -9.5t9.5 -22.5v-113h-218v113v0zM323 566q0 22 15 37t36 15h276q21 0 36 -15t15 -37v-118l-157 66q-16 6 -32 6t-32 -6l-157 -66v118 zM664 48l-16 -13q-14 -12 -33.5 -12t-33.5 12l-16 13q-23 20 -54 20t-55 -20l-16 -13q-14 -12 -33.5 -12t-33.5 12l-16 13q-13 12 -30.5 17t-35.5 2l-72 256q-5 18 3.5 36t25.5 25l61 26h0.5h0.5l178 73q10 4 20 4t18 -4l178 -73h1h1l60 -26q18 -7 26.5 -24.5t2.5 -36.5 l-72 -256q-13 1 -29.5 -3t-29.5 -16v0z" />
</svg>