<svg viewBox="0 0 1024 1024" xmlns="http://www.w3.org/2000/svg">
  <path transform="scale(1, -1) translate(0, -960)" fill="currentColor" d="M886 878v0v0h-1h1q-28 24 -63.5 37t-75.5 13q-45 0 -85 -17q-40 -18 -70 -47.5t-47 -69.5t-17 -85q0 -49 20 -91t54 -72v-1t1 -1h0.5h1.5q29 -25 65.5 -39.5t78.5 -14.5q45 0 85 17t70 47t47 70t17 85q-1 51 -22.5 95t-59.5 74zM560 709q0 77 54.5 132t132.5 55 q29 0 56 -8t50 -24l-240 -285q-25 25 -39 58t-14 72v0zM747 522q-31 0 -59.5 10t-52.5 26l242 285q26 -25 41.5 -60t15.5 -74q0 -78 -54.5 -132.5t-132.5 -54.5zM600 43q-2 3 -5.5 5t-5.5 3l67 239q8 28 -4.5 55t-40.5 37l-48 20v72q0 7 -4.5 11.5t-11.5 4.5t-11.5 -4.5 t-4.5 -11.5v-58l-142 59q-15 6 -30.5 6t-28.5 -6l-144 -59v107q0 19 13.5 33t32.5 14h202q7 0 11.5 4t4.5 12q0 7 -4.5 11.5t-11.5 4.5h-175v86q0 19 13.5 32.5t33.5 13.5h52v0v0v0v0h66q7 0 11.5 4.5t4.5 11.5q0 8 -4.5 12t-11.5 4h-50v77q0 7 -4 11.5t-12 4.5 q-7 0 -11.5 -4.5t-4.5 -11.5v-77h-36q-33 0 -56 -23t-23 -55v-88q-31 -1 -52 -23.5t-21 -53.5v-121l-48 -20q-28 -10 -41 -37t-4 -55l67 -239q-2 -1 -5.5 -3t-5.5 -5l-55 -48q-4 -5 -5 -11t4 -11q2 -3 5.5 -4t7.5 -1q2 0 5 1l6 2l54 48q13 11 30 11t29 -11l15 -13 q21 -19 50 -19t52 19l15 13q13 11 30 11t29 -11l14 -13q22 -19 51.5 -19t51.5 19l14 13q13 11 30 11t29 -11l55 -48q4 -5 10.5 -4t11.5 6t4 11t-6 11l-54 48v0zM499 43l-14 -13q-13 -10 -30 -10t-29 10l-15 13q-21 19 -50 19t-52 -19l-15 -13q-13 -10 -30 -10t-29 10l-14 13 q-13 11 -28.5 15.5t-32.5 2.5l-67 237q-5 16 2.5 32t22.5 22l56 24h1h1l165 69q8 3 17.5 3t17.5 -3l163 -69h1h1l56 -24q15 -7 23 -22.5t4 -31.5l-67 -237q-15 2 -30.5 -2.5t-27.5 -15.5v0z" />
</svg>