<svg viewBox="0 0 1024 1024" xmlns="http://www.w3.org/2000/svg">
  <path transform="scale(1, -1) translate(0, -960)" fill="currentColor" d="M976 336h-160v485q0 26 -19 45t-45 19h-264q-26 0 -45 -19t-19 -45v-71h-309q-35 0 -59 -24.5t-24 -58.5v-573q0 -34 25 -58.5t58 -24.5h563q22 0 41 10.5t30 29.5l160 253h67q7 0 11.5 4.5t4.5 11.5t-4.5 11.5t-11.5 4.5v0zM456 579h328v-243h-328v243zM456 821 q0 13 9.5 22.5t22.5 9.5h264q13 0 22.5 -9.5t9.5 -22.5v-211h-328v211zM115 718h309v-382h-360v331q0 22 15.5 36.5t35.5 14.5zM722 67q-8 -12 -19 -18t-25 -6h-563q-21 0 -36 15.5t-15 35.5v63h715l-57 -90v0zM798 189h-734v115h806zM558 771q-7 0 -11.5 -4.5t-4.5 -11.5 v-46q0 -7 4.5 -11.5t11.5 -4.5q8 0 12 4.5t4 11.5v46q0 6 -4 11t-12 5v0zM686 771q-7 0 -11.5 -4.5t-4.5 -11.5v-46q0 -7 4.5 -11.5t11.5 -4.5q8 0 12 4.5t4 11.5v46q0 6 -5 11t-11 5v0zM558 499q-7 0 -11.5 -4.5t-4.5 -11.5v-46q0 -7 4.5 -11.5t11.5 -4.5q8 0 12 4.5 t4 11.5v46q0 7 -4 11.5t-12 4.5v0zM686 499q-7 0 -11.5 -4.5t-4.5 -11.5v-46q0 -7 4.5 -11.5t11.5 -4.5q8 0 12 4.5t4 11.5v46q0 7 -5 11.5t-11 4.5v0zM181 488q7 0 11.5 4.5t4.5 11.5v46q0 8 -4.5 12t-11.5 4t-11.5 -4t-4.5 -12v-46q0 -6 5 -11t11 -5zM312 488 q7 0 11.5 4.5t4.5 11.5v46q0 8 -4.5 12t-11.5 4t-11.5 -4t-4.5 -12v-46q0 -6 5 -11t11 -5z" />
</svg>