<svg viewBox="0 0 256 256" xmlns="http://www.w3.org/2000/svg">
  <path transform="scale(1, -1) translate(0, -256)" fill="currentColor" d="M149 29l-1 1l16 59q2 8 -1.5 16t-11.5 11l-10 4v16q0 3 -2 5t-5 2t-5 -2t-2 -5v-10l-32 13q-9 4 -17 0l-33 -14v23q0 4 2.5 6.5t6.5 2.5h51q3 0 5 2t2 5t-2 5t-5 2h-41v19q0 4 2.5 6.5t6.5 2.5h30q3 0 5 2t2 5t-2 5.5t-5 2.5h-10v16q0 3 -2 5t-5 2t-5 -2t-2 -5v-17h-7 q-9 0 -15.5 -6.5t-6.5 -16.5v-19q-8 -2 -13.5 -8t-5.5 -15v-28l-10 -4q-8 -4 -12 -11.5t-1 -16.5l16 -58l-15 -13q-2 -2 -2.5 -4.5t1.5 -5t5 -2.5t5 1l14 12q2 3 5.5 2.5t5.5 -2.5l4 -3q6 -5 14.5 -5t14.5 5l4 3q2 3 5.5 3t5.5 -3l4 -3q6 -5 14.5 -5t14.5 5l4 3q2 3 5.5 2.5 t5.5 -2.5l14 -12q2 -1 5 -1t5 2t1.5 5t-2.5 5zM120 29l-4 -3q-2 -2 -5.5 -2t-5.5 2l-4 3q-6 6 -14.5 6t-14.5 -6l-4 -3q-2 -2 -5.5 -2t-5.5 2l-4 3q-7 6 -15 6l-16 57q-1 4 0.5 7t4.5 4l56 23q3 2 7 0l56 -23q3 -1 4.5 -4t0.5 -7l-17 -57q-8 0 -14 -6zM246 224v1q-2 3 -6 5 l-42 20q-7 3 -14 0l-42 -20q-3 -1 -6 -5l-2 -1q-2 -5 -2 -9v-49q0 -4 2.5 -8.5t6.5 -6.5l42 -21q4 -1 6 -1h3q3 0 6 1l42 22q4 2 6.5 6t2.5 9v48q0 5 -3 9zM189 237h1v0l36 -16l-10 -4l-34 17zM190 204l-35 17l11 5l35 -17zM148 164q-2 1 -2 3v43l38 -18v-46zM234 164 l-36 -18v46l11 5v-11q0 -3 2 -5.5t5 -2.5t5.5 2.5t2.5 5.5v18l12 6v-44z" />
</svg>