<svg viewBox="0 0 256 256" xmlns="http://www.w3.org/2000/svg">
  <path transform="scale(1, -1) translate(0, -256)" fill="currentColor" d="M160 30l-1 1h-1l18 63q2 8 -1.5 16t-12.5 12l-11 5v17q0 3 -2 5.5t-5 2.5t-5 -2.5t-2 -5.5v-11l-35 14q-9 4 -18 0l-36 -14v25q0 4 3 7t7 3h54q3 0 5.5 2t2.5 5t-2.5 5t-5.5 2h-43v21q0 4 3 6.5t6 2.5h32q3 0 5.5 2.5t2.5 5.5t-2.5 5t-5.5 2h-10v17q0 3 -2 5t-5 2t-5 -2 t-2 -5v-18h-8q-9 0 -16 -7t-7 -17v-21q-9 -1 -14.5 -7.5t-5.5 -15.5v-31l-11 -5q-9 -3 -12.5 -11t-1.5 -17l18 -62l-17 -14q-2 -2 -2 -5t1.5 -5.5t4.5 -2.5t5 2l15 13q3 2 6.5 2t6.5 -2l4 -4q7 -5 15.5 -5t15.5 5l4 4q3 2 6.5 2t6.5 -2l4 -4q7 -5 15.5 -5t15.5 5l4 4 q3 2 6.5 2t6.5 -2l15 -13q1 -2 4.5 -2t5 2.5t1.5 5.5t-2 5zM129 30l-4 -3q-3 -3 -6.5 -3t-6.5 3l-4 3q-6 6 -15 6t-16 -6l-4 -3q-2 -3 -6 -3t-7 3l-4 3q-6 6 -16 6l-16 62q-1 3 0.5 6.5t4.5 4.5l60 25q4 2 8 0l60 -25q3 -1 4.5 -4.5t0.5 -6.5l-17 -62q-9 0 -16 -6zM228 251 h-61q-8 0 -13.5 -5.5t-5.5 -13.5v-50q0 -8 5.5 -13.5t13.5 -5.5h61q8 0 14 5.5t6 13.5v50q-1 8 -6.5 13.5t-13.5 5.5zM167 237h61q2 0 4 -1.5t2 -3.5v-10h-72v10q0 2 1.5 3.5t3.5 1.5zM228 178h-61q-2 0 -3.5 1.5t-1.5 3.5v26h71v-26q0 -3 -1 -4t-4 -1z" />
</svg>