<svg viewBox="0 0 1024 1024" xmlns="http://www.w3.org/2000/svg">
  <path transform="scale(1, -1) translate(0, -960)" fill="currentColor" d="M600 45q-2 2 -5.5 4.5t-5.5 3.5l67 245q8 28 -5.5 55.5t-40.5 38.5l-50 21v73q0 8 -4.5 12t-11.5 4t-11.5 -4t-4.5 -12v-60l-147 60q-15 6 -31 6t-30 -6l-147 -60v112q0 19 13.5 33.5t34.5 14.5h206q7 0 11.5 4t4.5 12q0 7 -4.5 11.5t-11.5 4.5h-177v89q0 19 13.5 33.5 t34.5 14.5h54v0v0v0v0h67q7 0 11.5 4.5t4.5 11.5t-4.5 11.5t-11.5 4.5h-51v79q0 7 -4.5 11.5t-11.5 4.5t-11.5 -4.5t-4.5 -11.5v-79h-38q-33 0 -56.5 -23t-23.5 -57v-89q-32 -2 -54 -25t-22 -54v-125l-49 -20q-28 -12 -41.5 -39t-5.5 -56l69 -245l-4.5 -4.5t-6.5 -4.5 l-56 -48q-5 -5 -5.5 -11.5t3.5 -11.5q5 -4 11.5 -5t11.5 4l56 48q13 12 31 12t31 -12l15 -13q22 -19 51.5 -19t52.5 19l14 13q13 12 31 12t31 -12l15 -13q23 -19 52 -19t52 19l14 13q13 12 31 12t32 -12l56 -48q2 -3 4.5 -3h6.5q3 0 6.5 1t6.5 3q4 5 3.5 11.5t-5.5 11.5 l-56 48v0zM496 45l-14 -13q-14 -12 -32 -12t-31 12l-14 13q-23 19 -52 19t-52 -19l-16 -13q-13 -12 -31 -12t-32 12l-14 13q-13 11 -29.5 15.5t-32.5 1.5l-68 244q-4 16 3.5 33t24.5 23l57 24h1h1l169 70q9 4 19 4t18 -4l168 -70h1h1l57 -24q17 -8 24.5 -24t3.5 -32 l-69 -244q-16 3 -32 -1.5t-29 -15.5v0zM757 928q-46 0 -87 -18q-41 -17 -72 -48t-49 -72t-18 -88q0 -46 18 -87t48.5 -71.5t71.5 -48.5t88 -18t88 17q41 18 71.5 48.5t48.5 71.5q17 42 17 88q0 47 -18 88t-48.5 72t-71.5 48q-41 18 -87 18zM757 510q-40 0 -75 16 q-35 15 -61.5 41t-41.5 62q-16 35 -16 75q0 80 56.5 136t137.5 56q39 0 75 -15q35 -15 61.5 -41.5t41.5 -61.5t15 -76q0 -80 -57 -136t-136 -56zM803 752l-64 -64l-29 29q-4 5 -10.5 5t-11.5 -5t-5 -11.5t5 -11.5l40 -40q2 -2 5 -3t6 -1q4 0 6.5 1t4.5 3l76 76q4 4 4 10.5 t-4 11.5q-5 5 -11.5 5t-11.5 -5v0z" />
</svg>