<svg viewBox="0 0 256 256" xmlns="http://www.w3.org/2000/svg">
  <path transform="scale(1, -1) translate(0, -256)" fill="currentColor" d="M249 209l-40 39q-2 2 -5 2h-42q-3 0 -5.5 -2t-2.5 -5q0 -10 -7.5 -17.5t-18 -7.5t-18 7.5t-7.5 17.5q0 3 -2 5t-5 2h-44q-3 0 -5 -2l-40 -39q-2 -2 -2 -5v-150q0 -3 2 -5t5 -2h45v-15q0 -11 8 -18.5t19 -7.5h91q11 0 19 7.5t8 18.5v15h42q3 0 5 2t2 5v150q0 2 -2 5z M237 61h-36v112q0 3 -2 5t-5 2t-5 -2t-2 -5v-141q0 -5 -3.5 -8.5t-9.5 -3.5h-91q-5 0 -8.5 3.5t-3.5 8.5v141q0 3 -2 5t-5 2t-5.5 -2t-2.5 -5v-112h-37v140l36 35h35q3 -13 14 -22.5t25.5 -9.5t25.5 9t13 23h34l35 -35v-140z" />
</svg>