<svg viewBox="0 0 256 256" xmlns="http://www.w3.org/2000/svg">
  <path transform="scale(1, -1) translate(0, -256)" fill="currentColor" d="M249 190l-47 46l-5 5q-2 2 -5 2h-129q-3 0 -5 -2l-51 -51q-3 -3 -1 -8l18 -52q0 -4 3.5 -5t6.5 1l20 15v-121q0 -4 2.5 -5.5t4.5 -1.5l3 1q24 9 41.5 33t22.5 55q5 -31 22 -55t42 -33q3 -2 6.5 0t3.5 6v121l20 -15q3 -1 6.5 0t4.5 4l18 52q1 4 -2 8zM68 31v123q0 5 -4 7 l-3 1q-2 0 -4 -2l-23 -16l-14 39l41 40q24 -10 39.5 -37t15.5 -59t-13 -57.5t-35 -38.5zM80 229h96q-18 -13 -31 -34t-17 -46q-4 25 -17 46t-31 34zM222 143l-23 17q-3 2 -7 0.5t-4 -6.5v-123q-22 13 -35 38.5t-13 56.5q0 33 15.5 60t39.5 38l41 -41z" />
</svg>