<svg viewBox="0 0 1024 1024" xmlns="http://www.w3.org/2000/svg">
  <path transform="scale(1, -1) translate(0, -960)" fill="currentColor" d="M779 826h-24l-72 96q-2 2 -4.5 4t-6.5 2t-6.5 -1t-6.5 -2l-147 -127l-149 125q-2 3 -5.5 4t-5.5 1q-4 0 -6.5 -2t-4.5 -4l-72 -96h-24q-54 0 -92 -38t-38 -92v-643q0 -35 25 -60t60 -25h626q34 0 59 25t25 60v643q-1 54 -39 92t-92 38zM667 890l61 -80l-112 -199l-83 165 l134 114v0zM357 890l136 -116l-83 -164l-112 198l59 82v0zM877 53q0 -22 -15.5 -37.5t-37.5 -15.5h-626q-21 0 -36.5 15.5t-15.5 37.5v643q0 41 28 69.5t69 28.5h23l128 -226q2 -4 5.5 -6t8.5 -2v0v0q5 0 8.5 2t5.5 6l90 174l90 -174q2 -4 5.5 -6t8.5 -2v0v0q5 0 8.5 2 t5.5 6l128 226h23q41 0 69 -28.5t28 -69.5v-643h-1zM512 488q-25 0 -43 -18t-18 -43t18 -43t43 -18t43 18t18 43t-18 43t-43 18v0zM512 397q-12 0 -20.5 8.5t-8.5 20.5t8.5 20t20.5 8t20.5 -8t8.5 -20t-8.5 -20.5t-20.5 -8.5v0zM512 245q-25 0 -43 -18t-18 -43t18 -43 t43 -18t43 18t18 43t-18 43t-43 18v0zM512 155q-12 0 -20.5 8.5t-8.5 20.5t8.5 20.5t20.5 8.5t20.5 -8.5t8.5 -20.5t-8.5 -20.5t-20.5 -8.5v0z" />
</svg>