<svg viewBox="0 0 1024 1024" xmlns="http://www.w3.org/2000/svg">
  <path transform="scale(1, -1) translate(0, -960)" fill="currentColor" d="M838 526l-153 200v186q0 7 -4.5 11.5t-11.5 4.5t-11.5 -4.5t-4.5 -11.5v-187l-141 -183l-142 186v184q0 7 -4.5 11.5t-11.5 4.5q-8 0 -12 -4.5t-4 -11.5v-189l-152 -197q-2 -2 -3 -4.5t-1 -4.5v-520q0 -6 4.5 -11t10.5 -5q35 -3 72 -6q38 -2 77.5 -3.5t81.5 -2.5 q41 -1 84 -1t84 1q42 1 81.5 2.5t77.5 3.5q37 2 72 4q6 0 10.5 5t4.5 11v522q0 2 -1 4.5t-3 4.5v0zM810 11q-66 -6 -142 -8.5t-156 -2.5t-156 2.5t-142 8.5v499l141 183l144 -187q5 -6 13 -6t13 6l144 187l141 -183v-499v0z" />
</svg>