<svg viewBox="0 0 256 256" xmlns="http://www.w3.org/2000/svg">
  <path transform="scale(1, -1) translate(0, -256)" fill="currentColor" d="M195 226h-5l-17 22q-1 3 -4.5 3.5t-5.5 -1.5l-35 -30l-35 29q-3 2 -6 1.5t-4 -2.5l-17 -23h-5q-14 0 -24.5 -10.5t-10.5 -24.5v-161q0 -10 7 -17t17 -7h156q10 0 17 7t7 17v161q0 15 -10 25.5t-25 10.5zM166 234l12 -16l-24 -43l-17 34zM90 234l29 -25l-17 -34l-24 43z M216 29q0 -4 -2.5 -7t-7.5 -3h-156q-5 0 -7.5 3t-2.5 7v161q0 9 6 15.5t15 6.5h4l31 -55q2 -4 6 -4t6 4l20 39l19 -39q2 -3 6 -3.5t6 3.5l31 55h4q9 0 15.5 -6.5t6.5 -15.5v-161zM117 123q0 -5 3 -8t8 -3t8 3t3 7.5t-3 8t-8 3.5t-8 -3.5t-3 -7.5zM117 62q0 -5 3 -8t8 -3t8 3 t3 8t-3 8t-8 3t-8 -3t-3 -8z" />
</svg>