<svg viewBox="0 0 1024 1024" xmlns="http://www.w3.org/2000/svg">
  <path transform="scale(1, -1) translate(0, -960)" fill="currentColor" d="M987 762l-158 158q-3 2 -5.5 3.5t-5.5 1.5h-172q-7 0 -11.5 -4.5t-4.5 -11.5q0 -47 -33 -80.5t-80 -33.5t-80.5 33.5t-33.5 80.5q0 7 -4.5 11.5t-11.5 4.5h-181q-3 0 -5.5 -1.5t-5.5 -3.5l-158 -158q-3 -3 -4 -5.5t-1 -6.5v-598q0 -7 4.5 -11.5t11.5 -4.5h192v-72 q0 -38 27 -65.5t66 -27.5h366q39 0 66 27.5t27 65.5v74h184q7 0 11.5 4t4.5 12v596q0 4 -1 6.5t-4 5.5v0zM960 168h-168v461q0 7 -4.5 11.5t-11.5 4.5t-11.5 -4.5t-4.5 -11.5v-565q0 -25 -18 -43t-43 -18h-366q-25 0 -43 18t-18 43v565q0 7 -4.5 11.5t-11.5 4.5t-11.5 -4.5 t-4.5 -11.5v-459h-176v576l149 148h157q6 -55 47.5 -92t97.5 -37q57 0 98.5 37.5t47.5 91.5h149l148 -148v-578h2z" />
</svg>