<svg viewBox="0 0 1024 1024" xmlns="http://www.w3.org/2000/svg">
  <path transform="scale(1, -1) translate(0, -960)" fill="currentColor" d="M986 699l-218 170q-2 1 -4.5 2t-5.5 1h-120q-7 0 -11.5 -4.5t-4.5 -11.5v-21q0 -42 -30 -72t-72 -30t-72 30t-30 72v23q0 7 -4.5 11.5t-11.5 4.5h-133q-3 0 -5 -1t-5 -3l-221 -171q-4 -3 -5.5 -8.5t1.5 -10.5l67 -150q2 -6 8.5 -8.5t12.5 0.5l120 51v-535q0 -3 1 -5.5 t3 -5.5q3 -2 5.5 -3.5t6.5 -1.5v0h507q7 0 11.5 4.5t4.5 11.5v535l120 -51q6 -3 12 -0.5t9 8.5l67 150q3 5 2 10.5t-5 8.5v0zM275 54v192l475 138v-330h-475zM901 558l-128 55q-4 1 -8 1t-7 -3q-3 -2 -4.5 -5.5t-1.5 -7.5v-179l-475 -137v315q0 3 -2 6.5t-5 6.5q-3 2 -6.5 2 t-7.5 -1l-128 -54l-56 125l200 160h112v-5q0 -55 39.5 -95t94.5 -40q57 0 96 40t39 95v5h99l205 -159l-56 -125v0z" />
</svg>