<svg viewBox="0 0 256 256" xmlns="http://www.w3.org/2000/svg">
  <path transform="scale(1, -1) translate(0, -256)" fill="currentColor" d="M248 193l-54 43q-3 1 -5 1h-30q-3 0 -5 -2t-2 -5v-5q0 -9 -6.5 -16t-16 -7t-16.5 6.5t-7 16.5v5q0 3 -2 5.5t-5 2.5h-33q-3 0 -4 -2l-54 -43q-2 -1 -3 -3.5t1 -4.5l16 -38q2 -2 4.5 -3t5.5 0l26 11v-129q0 -3 2 -5t4 -2h127q3 0 5 2t2 5v129l26 -11q3 -1 5.5 0t3.5 4 l17 37q1 2 0.5 4.5t-2.5 3.5zM72 33v92q14 -1 24 -14.5t10 -31.5t-10 -31.5t-24 -14.5zM224 159l-30 13q-4 1 -7 -1t-3 -6v-133h-82q8 9 13 21t5 25q0 25 -14 42t-34 18v27q0 3 -3.5 5.5t-6.5 1.5l-30 -13l-12 27l49 37h24q0 -15 11 -25t25.5 -10t25 10.5t11.5 24.5h21 l48 -37z" />
</svg>