<svg viewBox="0 0 1024 1024" xmlns="http://www.w3.org/2000/svg">
  <path transform="scale(1, -1) translate(0, -960)" fill="currentColor" d="M987 686l-187 188v0v0l-18 17q-2 3 -5 4t-6 1h-518q-4 0 -6.5 -1t-4.5 -4l-18 -17v0v0l-187 -188q-4 -3 -5 -7.5t2 -8.5l72 -209q1 -4 3.5 -6.5t5.5 -3.5q3 -2 7 -2t6 2l99 71v-506q0 -4 2 -7t5 -6q2 -1 4.5 -2t4.5 -1h2.5t4.5 2q57 22 105 65q47 43 81 100.5t53 126.5 q18 69 18 144q0 71 -17 137t-47.5 122t-74.5 99q-43 43 -96 68h477q-52 -26 -95 -69q-43 -44 -74 -99.5t-48 -121.5q-17 -65 -17 -136q0 -75 19 -143q18 -69 52 -126.5t82 -100.5q47 -43 105 -66q3 -2 7.5 -1.5t6.5 2.5q4 3 5.5 6t1.5 7v507l99 -70q3 -3 7 -3t7 1 q4 1 6.5 3.5t3.5 6.5l72 209q3 4 2.5 8.5t-4.5 7.5v0zM477 438q0 -66 -16 -128q-15 -61 -43.5 -112.5t-68.5 -91.5t-88 -64v512q0 4 -2.5 8t-5.5 6q-1 1 -3.5 1.5t-4.5 0.5q-3 0 -5 -1t-5 -3l-107 -76l-62 180l174 173q52 -20 96 -60q43 -40 74.5 -93.5t48.5 -117.5 q18 -65 18 -134v0zM896 490l-107 76q-4 3 -8.5 3t-7.5 -1q-4 -2 -6 -6t-2 -8v-512q-49 24 -89 64q-39 40 -67.5 91.5t-44.5 112.5q-15 62 -15 128q0 69 17 134q17 64 48 117.5t75 94.5q43 40 95 61l173 -173z" />
</svg>