<svg viewBox="0 0 256 256" xmlns="http://www.w3.org/2000/svg">
  <path transform="scale(1, -1) translate(0, -256)" fill="currentColor" d="M229 163q-2 3 -5.5 3t-5.5 -3q-9 -11 -17 -16q-10 -6 -23 -2q-8 3 -17 12q-5 6 -13 17q-1 2 -3.5 2.5t-5.5 -0.5l-127 -72q-4 -2 -6 -6t-0.5 -8.5t5 -7.5t7.5 -3h209q10 0 17 7t7 18q-1 22 -6 35q-5 10 -16 24zM227 93h-206l52 29l9 -7q2 -2 5 -2t5 2.5t2 5.5t-3 5l-5 4 l15 8l10 -8q2 -2 5 -2t5 3t1.5 5.5t-2.5 4.5l-6 5l26 15q16 -23 34 -29q27 -9 49 16q7 -9 10 -18t4 -27q0 -4 -3 -7t-7 -3z" />
</svg>