<svg viewBox="0 0 1024 1024" xmlns="http://www.w3.org/2000/svg">
  <path transform="scale(1, -1) translate(0, -960)" fill="currentColor" d="M906 581q-3 2 -6.5 4t-6.5 2q-4 0 -7.5 -2t-5.5 -4q-30 -40 -70 -68.5t-101 -6.5q-42 14 -73.5 50.5t-53.5 67.5q-3 5 -9.5 6.5t-10.5 -1.5q-7 -4 -32 -18q-24 -14 -61.5 -35t-84.5 -47q-48 -27 -99 -55v0v0q-58 -33 -118 -66.5t-114 -63.5q-13 -7 -19 -20t-2 -26 q4 -14 15 -23t25 -9h835q35 0 59 24t24 60q-2 94 -23 137t-61 94v0zM909 298h-835q-5 0 -7.5 2.5t-2.5 5.5v4.5t5 6.5q45 25 103.5 58t118.5 67l45 -36q2 -1 4.5 -2t5.5 -1t6.5 1.5t5.5 5.5q4 4 3.5 11t-6.5 11l-33 27q21 12 41.5 24t39.5 23l48 -39q3 -1 5 -2t5 -1t6.5 1.5 t6.5 4.5q3 5 2.5 12t-6.5 11l-38 30q44 25 78.5 44.5t52.5 29.5q23 -34 56.5 -68.5t78.5 -50.5q68 -22 115 4.5t80 66.5q32 -42 47 -79.5t18 -117.5q2 -24 -13 -39t-36 -15v0z" />
</svg>