<svg viewBox="0 0 256 256" xmlns="http://www.w3.org/2000/svg">
  <path transform="scale(1, -1) translate(0, -256)" fill="currentColor" d="M144 169q0 9 -7 15t-16 6h-7q0 13 -9.5 22.5t-23 9.5t-23 -9.5t-10.5 -22.5h-7q-9 0 -15.5 -6t-7.5 -15l-13 -109q-1 -10 6 -18t17 -8h106q10 0 17 7.5t6 18.5zM81 208q8 0 13.5 -5t5.5 -13h-38q0 8 5.5 13t13.5 5zM141 51q-3 -3 -7 -3h-106q-4 0 -7 3t-2 7l13 110 q0 3 2.5 5.5t6.5 2.5h80q3 0 6 -2.5t3 -5.5l13 -110q0 -4 -2 -7zM200 162q0 3 -2 5t-5 2h-25q-3 0 -5 -2t-2 -5t2 -5t5 -2h25q3 0 5 2t2 5zM223 117q0 3 -2 5t-5 2h-37q-3 0 -5 -2t-2 -5t2 -5t5 -2h37q3 0 5 2t2 5zM244 78h-53q-3 0 -5 -2t-2 -5t2 -5t5 -2h53q3 0 5 2t2 5 t-2 5t-5 2z" />
</svg>