<svg viewBox="0 0 1024 1024" xmlns="http://www.w3.org/2000/svg">
  <path transform="scale(1, -1) translate(0, -960)" fill="currentColor" d="M978 106l-82 713q-6 47 -40.5 78t-82.5 31h-522q-48 0 -82.5 -31t-40.5 -78l-82 -713q-3 -27 5 -52t26 -44q18 -20 42 -31t49 -11h688q26 0 50 10.5t41 31.5q17 20 25.5 44.5t5.5 51.5zM923 30q-13 -14 -30.5 -22t-36.5 -8h-688q-19 0 -37 8t-30 22q-13 15 -19 33.5 t-4 37.5l82 715q4 35 30 57.5t61 22.5h523q35 0 61 -23t31 -57l81 -714q1 -20 -5 -38.5t-19 -33.5v0zM677 702q-6 -1 -10 -6.5t-3 -12.5q1 -8 2 -16.5t1 -16.5q0 -65 -46 -111t-111 -46q-64 0 -110 46t-46 111q0 8 1 16.5t2 16.5q1 6 -2.5 12t-10.5 7q-6 2 -12 -1.5 t-7 -10.5q-3 -10 -4 -20.5t-1 -19.5q0 -78 55.5 -133.5t133.5 -55.5t133.5 55.5t55.5 133.5q0 9 -1.5 19t-3.5 21q1 6 -4 10t-12 2v0z" />
</svg>