<svg viewBox="0 0 1024 1024" xmlns="http://www.w3.org/2000/svg">
  <path transform="scale(1, -1) translate(0, -960)" fill="currentColor" d="M640 570q-16 10 -31.5 14t-32.5 0q-22 -5 -37.5 -19t-24.5 -27q-10 13 -26 27t-37 19q-17 4 -32.5 0t-31.5 -14q-47 -33 -42.5 -84.5t18.5 -80.5q1 -4 38.5 -58.5t110.5 -77.5h2.5h2.5h2h3q72 23 108 78t37 58q11 29 15 80.5t-42 84.5v0zM635 419q0 -1 -30.5 -48.5 t-90.5 -68.5q-60 22 -92 70t-33 49q0 1 -14 47.5t28 75.5q7 5 14.5 7.5t14.5 2.5q2 0 4.5 -0.5t5.5 -1.5q24 -6 40 -28.5l16 -22.5q2 -4 5.5 -6t8.5 -2v0v0q5 0 8.5 2t5.5 6q5 9 20.5 27.5t35.5 23.5q10 2 19.5 0t19.5 -10q42 -27 28.5 -73t-14.5 -50v0zM800 738 q-2 28 -24 48t-51 20h-80v12q0 45 -32.5 77.5t-78.5 32.5h-46q-46 0 -78 -32.5t-32 -77.5v-12h-80q-29 0 -51 -19t-25 -49l-67 -687q-1 -15 4 -30t15 -27q11 -12 26 -19t30 -7h562q16 0 30.5 7t25.5 19t15.5 27t3.5 30zM411 818q0 32 23 55t56 23h46q32 0 55 -23t23 -55v-12 h-203v12zM826 14q-6 -7 -14.5 -10.5t-17.5 -3.5h-564q-9 0 -17.5 3.5t-14.5 10.5q-6 8 -9 16t-2 18l69 686q1 17 13.5 28.5t29.5 11.5h427q17 0 29.5 -11.5t14.5 -28.5l67 -686q0 -10 -2.5 -18t-8.5 -16z" />
</svg>