<svg viewBox="0 0 1024 1024" xmlns="http://www.w3.org/2000/svg">
  <path transform="scale(1, -1) translate(0, -960)" fill="currentColor" d="M896 83l-67 583q-5 39 -34 65t-69 26h-57v7v7q0 65 -46 111t-111 46t-111 -46t-46 -111v-7v-7h-57q-40 0 -69 -26.5t-34 -64.5l-67 -583q-2 -21 4.5 -42.5t21.5 -37.5q14 -17 34.5 -26t41.5 -9h562q22 0 42 9t35 26q15 16 22 37.5t5 42.5zM387 771q0 52 36.5 88.5 t88.5 36.5t88.5 -36.5t36.5 -88.5q0 -3 -0.5 -7t-1.5 -7h-246q-1 3 -1.5 7t-0.5 7v0zM227 662q4 28 24 46t47 18h427q27 0 47.5 -18t22.5 -46l50 -436q-1 0 -2.5 0.5t-2.5 0.5h-662l49 435v0zM846 24q-10 -12 -24 -18t-30 -6h-560q-16 0 -29.5 6t-23.5 18q-9 12 -14.5 26 t-4.5 30l13 115h669q2 0 3.5 1t4.5 1l14 -117q1 -16 -3.5 -30.5t-14.5 -25.5v0z" />
</svg>