<svg viewBox="0 0 256 256" xmlns="http://www.w3.org/2000/svg">
  <path transform="scale(1, -1) translate(0, -256)" fill="currentColor" d="M229 177h-12l-27 69q-1 3 -3.5 4t-5.5 0t-4 -3.5t0 -5.5l25 -64h-148l25 64q1 3 0 5.5t-4 4t-5.5 0t-3.5 -4.5l-28 -69h-12q-4 0 -7.5 -3t-3.5 -8v-34q0 -5 3.5 -8t7.5 -3h1l10 -91q1 -11 9 -18t19 -7h125q11 0 19 7t9 18l10 91h1q4 0 7.5 3t3.5 8v34q0 5 -3 8t-8 3z M30 163h196v-28h-196v28zM204 32q0 -6 -4 -9.5t-10 -3.5h-124q-6 0 -10 3.5t-4 9.5l-11 89h174zM86 53q3 0 5 2t2 5v31q0 3 -2 5t-5 2t-5 -2t-2 -5v-31q0 -3 2 -5t5 -2zM170 53q3 0 5 2t2 5v31q0 3 -2 5t-5 2t-5 -2t-2 -5v-31q0 -3 2 -5t5 -2z" />
</svg>