<svg viewBox="0 0 1024 1024" xmlns="http://www.w3.org/2000/svg">
  <path transform="scale(1, -1) translate(0, -960)" fill="currentColor" d="M875 928h-726q-48 0 -82.5 -34.5t-34.5 -82.5v-593q0 -52 20 -97q19 -46 53 -80t80 -53q45 -20 97 -20h459q52 0 98 20q46 19 80 53t53 80q20 45 20 97v593q0 48 -34.5 82.5t-82.5 34.5v0zM960 218q0 -45 -17 -85t-46.5 -69.5t-69.5 -46.5t-85 -17h-460q-45 0 -85 17 t-69.5 46.5t-46.5 69.5t-17 85v593q0 35 25 60t60 25h728q33 0 58 -25t25 -60v-593zM712 736q-7 0 -11.5 -4.5t-4.5 -11.5v-166q0 -77 -53.5 -131.5t-130.5 -54.5t-130.5 54t-53.5 130v168q0 7 -4.5 11.5t-11.5 4.5t-11.5 -4.5t-4.5 -11.5v-166q0 -45 17 -85t46 -69.5 t69 -46.5q39 -17 84 -17t84 17q40 17 69 46.5t46 68.5q17 40 17 84v168q0 7 -4.5 11.5t-11.5 4.5z" />
</svg>