<svg viewBox="0 0 1024 1024" xmlns="http://www.w3.org/2000/svg">
  <path transform="scale(1, -1) translate(0, -960)" fill="currentColor" d="M627 517q-5 5 -11 5t-11 -5l-216 -216q-5 -5 -5 -11.5t5 -11.5q2 -2 5.5 -3t5.5 -1t5.5 1t5.5 3l215 215q6 5 6 12t-5 12zM453 453q20 20 20 49.5t-20 49.5q-21 20 -50 20t-49 -20q-21 -20 -21 -49.5t21 -49.5q10 -11 23 -16t26 -5t26 5t24 16v0zM376 530q6 6 13 8.5 t14 2.5t14 -2.5t13 -8.5q11 -11 11 -27.5t-11 -27.5q-10 -11 -26.5 -11t-27.5 11t-11.5 27.5t11.5 27.5zM621 355q-15 0 -27.5 -5.5t-22.5 -15.5q-20 -20 -20 -49t20 -50q11 -11 24 -16t26 -5t26.5 5t22.5 16q21 21 21 50t-21 49q-9 10 -22 15.5t-27 5.5zM648 258 q-11 -11 -27.5 -11t-26.5 11q-11 10 -11 26.5t11 27.5q6 6 13 8.5t14 2.5t14 -3t13 -8q12 -12 12 -28t-12 -26v0zM896 83l-67 583q-5 39 -34 65t-69 26h-57v7v7q0 65 -46 111t-111 46t-111 -46t-46 -111v-7v-7h-57q-40 0 -69 -26.5t-34 -64.5l-67 -583q-2 -21 4.5 -42.5 t21.5 -37.5q14 -17 34.5 -26t41.5 -9h562q22 0 42 9t35 26q15 16 22 37.5t5 42.5zM387 771q0 52 36.5 88.5t88.5 36.5t88.5 -36.5t36.5 -88.5q0 -3 -0.5 -7t-1.5 -7h-246q-1 3 -1.5 7t-0.5 7v0zM846 24q-10 -12 -24 -18t-30 -6h-560q-16 0 -29.5 6t-23.5 18q-9 11 -14 25.5 t-3 30.5l67 582q3 28 23.5 46t46.5 18h427q28 0 48 -18t23 -46l67 -582q1 -16 -3.5 -30.5t-14.5 -25.5v0z" />
</svg>