<svg viewBox="0 0 1024 1024" xmlns="http://www.w3.org/2000/svg">
  <path transform="scale(1, -1) translate(0, -960)" fill="currentColor" d="M896 83l-67 583q-5 39 -34 65t-69 26h-57v7v7q0 65 -46 111t-111 46t-111 -46t-46 -111v-7v-7h-57q-40 0 -69 -26.5t-34 -64.5l-67 -583q-2 -21 4.5 -42.5t21.5 -37.5q14 -17 34.5 -26t41.5 -9h562q22 0 42 9t35 26q15 16 22 37.5t5 42.5zM387 771q0 52 36.5 88.5 t88.5 36.5t88.5 -36.5t36.5 -88.5q0 -3 -0.5 -7t-1.5 -7h-246q-1 3 -1.5 7t-0.5 7v0zM846 24q-10 -12 -24 -18t-30 -6h-560q-16 0 -29.5 6t-23.5 18q-9 11 -14 25.5t-3 30.5l67 582q3 28 23.5 46t46.5 18h427q28 0 48 -18t23 -46l67 -582q1 -16 -3.5 -30.5t-14.5 -25.5v0z M654 507q-32 22 -72 18.5t-70 -29.5q-16 16 -36.5 23t-41.5 7q-23 0 -44 -8t-38 -25t-25.5 -38t-8.5 -44t8.5 -44t25.5 -37l110 -111q11 -11 24 -16t26 -5t26.5 5t23.5 16l110 111q17 15 25.5 36t8.5 45q0 29 -14 54t-38 42v0zM650 352l-111 -110q-11 -11 -27 -11t-27 11 l-111 110q-12 12 -18 27t-6 32t6 32t18 27t27.5 18t32.5 6q16 0 31.5 -6t27.5 -18l8 -8q2 -2 4.5 -3t6.5 -1v0q4 0 6.5 1t4.5 3l5 5q23 23 53.5 26.5t55.5 -13.5q18 -12 27.5 -29.5t9.5 -39.5q0 -17 -6 -32t-18 -27z" />
</svg>