<svg viewBox="0 0 256 256" xmlns="http://www.w3.org/2000/svg">
  <path transform="scale(1, -1) translate(0, -256)" fill="currentColor" d="M227 37l-17 146q-1 11 -9.5 18t-19.5 7h-11v1q0 17 -12.5 29.5t-29.5 12.5t-29.5 -12t-12.5 -30v0h-11q-11 0 -19 -7.5t-10 -18.5l-17 -146q-1 -13 7.5 -22.5t21.5 -9.5h140q13 0 21.5 9t7.5 23zM100 209q0 11 8.5 19.5t19.5 8.5t19.5 -8.5t8.5 -19.5v-1h-56v1zM209 24 q-4 -5 -11 -5h-140q-7 0 -11 5t-4 12l17 145q1 6 5 9.5t10 3.5h107q5 0 9.5 -3.5t4.5 -9.5l17 -145q1 -7 -4 -12zM156 119h-56q-3 0 -5 -2t-2 -5t2 -5t5 -2h56q3 0 5 2t2 5t-2 5t-5 2z" />
</svg>