<svg viewBox="0 0 256 256" xmlns="http://www.w3.org/2000/svg">
  <path transform="scale(1, -1) translate(0, -256)" fill="currentColor" d="M248 43l-21 178q-2 13 -11.5 21.5t-22.5 8.5h-130q-13 0 -22.5 -8.5t-11.5 -21.5l-21 -178q-1 -15 9 -26.5t25 -11.5h172q15 0 25 11.5t9 26.5zM229 26q-6 -7 -15 -7h-172q-9 0 -15 7t-5 15l21 179q1 7 6.5 12t12.5 5h131q8 0 13.5 -5t6.5 -12l20 -179q2 -8 -4 -15z M169 194q-3 0 -4.5 -2.5t-0.5 -5.5v-8q0 -15 -10.5 -25.5t-25.5 -10.5t-25.5 10.5t-10.5 25.5l1 8q1 3 -0.5 5.5t-4.5 3t-5.5 -1t-2.5 -4.5q-2 -5 -2 -10q0 -21 15 -35.5t35.5 -14.5t35 14.5t14.5 35.5q0 5 -1 9t-3.5 5.5t-4.5 0.5z" />
</svg>