<svg viewBox="0 0 1024 1024" xmlns="http://www.w3.org/2000/svg">
  <path transform="scale(1, -1) translate(0, -960)" fill="currentColor" d="M654 38q-18 -19 -41 -28.5t-48 -9.5h-355q-52 0 -88 36.5t-36 86.5v650q0 50 36 86.5t88 36.5h355q31 0 58 -14.5t44 -39.5q4 -5 10.5 -6.5t12.5 2.5q6 5 7 11t-3 12q-21 32 -55 50.5t-73 18.5h-356q-65 0 -110.5 -46t-45.5 -110v-648q0 -64 46 -109.5t110 -45.5h355 q32 0 61.5 13t51.5 37q5 5 5 11t-5 11q-6 3 -12.5 1.5t-11.5 -6.5v0zM966 490q-2 2 -5.5 4t-6.5 2h-72q0 1 -1 2.5t-3 2.5l-102 102q6 9 8.5 19t2.5 21q0 31 -21.5 52.5t-51.5 21.5t-52 -22t-22 -52q0 -11 3 -21t8 -19l-102 -102q-1 -1 -2 -2.5t-1 -2.5h-72q-4 0 -7.5 -1.5 t-5.5 -4.5q-3 -3 -4 -7t1 -8l73 -278q1 -5 5.5 -8t10.5 -3h333q6 0 10.5 3t5.5 8l74 278q1 4 0 7.5t-4 7.5v0zM714 685q18 0 29.5 -12.5t11.5 -29.5t-12.5 -29t-28.5 -12q-17 0 -29.5 12t-12.5 29t12 29.5t30 12.5zM674 581q8 -6 18.5 -8.5t21.5 -2.5q10 0 20.5 3t19.5 8 l84 -85h-251zM869 218h-311l-65 246h440zM398 781q8 0 12 4.5t4 11.5t-4 11.5t-12 4.5h-24q-7 0 -11.5 -4.5t-4.5 -11.5t4.5 -11.5t11.5 -4.5h24zM336 99q0 -7 4.5 -11.5t11.5 -4.5h70q8 0 12 4.5t4 11.5t-4 11.5t-12 4.5h-70q-6 0 -11 -5t-5 -11z" />
</svg>