<svg viewBox="0 0 1024 1024" xmlns="http://www.w3.org/2000/svg">
  <path transform="scale(1, -1) translate(0, -960)" fill="currentColor" d="M482 453h131q7 0 11.5 4.5t4.5 11.5t-4.5 11.5t-11.5 4.5h-66v45q0 7 -4.5 11.5t-11.5 4.5t-11.5 -4.5t-4.5 -11.5v-45h-35q-36 0 -61 -25.5t-25 -61.5t25 -61t61 -25h61q23 0 38.5 -16t15.5 -38q0 -23 -15.5 -39t-38.5 -16h-131q-8 0 -12 -4.5t-4 -11.5t4 -11.5t12 -4.5 h105v-43q0 -7 4.5 -11.5t11.5 -4.5t11.5 4.5t4.5 11.5v45q34 2 58 26.5t24 59.5q0 36 -25.5 61.5t-61.5 25.5h-60q-23 0 -39 15.5t-16 38.5q0 22 16 37.5t39 15.5v0zM800 736h-114v18q0 72 -51 123t-123 51t-123 -51t-51 -123v-18h-114q-40 0 -68 -28t-28 -68v-470 q0 -42 16 -79t43.5 -64t64.5 -43q36 -16 78 -16h364q42 0 78 16q37 16 64.5 43t43.5 64t16 79v470q0 40 -28 68t-68 28v0zM370 754q0 58 41.5 100t100.5 42t100.5 -42t41.5 -100v-18h-284v18v0zM864 170q0 -70 -50 -120t-120 -50h-364q-70 0 -120 50t-50 120v470q0 26 19 45 t45 19h114v-83q0 -7 4 -11.5t12 -4.5q7 0 11.5 4.5t4.5 11.5v83h286v-83q0 -7 4.5 -11.5t11.5 -4.5t11.5 4.5t4.5 11.5v83h112q26 0 45 -19t19 -45v-470z" />
</svg>