<svg viewBox="0 0 256 256" xmlns="http://www.w3.org/2000/svg">
  <path transform="scale(1, -1) translate(0, -256)" fill="currentColor" d="M227 37l-17 146q-1 11 -9.5 18t-19.5 7h-11v1q0 17 -12.5 29.5t-29.5 12.5t-29.5 -12.5t-12.5 -29.5v-1h-11q-11 0 -19 -7t-10 -18l-17 -146q-1 -13 7.5 -22.5t21.5 -9.5h140q13 0 21.5 9.5t7.5 22.5zM100 209q0 11 8.5 19.5t20 8.5t19.5 -8.5t8 -19.5v-1h-56v1zM209 24 q-4 -5 -11 -5h-140q-7 0 -11 5t-4 12l17 145q1 6 5 9.5t10 3.5h107q5 0 9.5 -3.5t4.5 -9.5l17 -145q1 -7 -4 -12zM128 160q-17 0 -29.5 -12t-12.5 -29q0 -14 17 -34q11 -12 20 -19q2 -2 4.5 -2t4.5 2h1q11 10 20 20q16 20 16 33q0 17 -12 29t-29 12zM128 80 q-11 10 -19.5 21.5t-8.5 17.5q0 12 8.5 20t19.5 8t19.5 -8t8.5 -20q0 -7 -10 -19q-7 -10 -18 -20zM128 128q-4 0 -7 -3t-3 -7.5t3 -7.5t7.5 -3t7 3t2.5 7.5t-3 7.5t-7 3z" />
</svg>