<svg viewBox="0 0 256 256" xmlns="http://www.w3.org/2000/svg">
  <path transform="scale(1, -1) translate(0, -256)" fill="currentColor" d="M162 4l75 16l-27 184q-1 2 -2 2l-20 2l-15 14h-1zM168 223h-1t-6 -3q-9 25 -26 25h-1q-6 7 -13 7q-22 0 -37 -23q-11 -16 -16 -37q-21 -7 -22 -7q-5 -1 -6 -2.5t-2 -6.5l-19 -147l140 -25zM132 214v-2l-24 -8q5 25 22 31v-4q2 -10 2 -17zM119 244q2 0 5 -1q-9 -4 -16 -14 t-10 -27q-6 -2 -16 -5l-4 -2q5 19 14 32q12 17 27 17zM125 136l-6 2q-6 2 -13 2q-9 0 -14 -5q-2 -3 -2 -6.5t3 -6.5t9 -8q10 -7 15 -13q7 -9 7 -21q0 -18 -10 -29t-26 -11q-10 1 -20 5q-6 3 -12 7l-4 4l7 22l4 -3q4 -4 9.5 -6.5t10 -2.5t7 3.5t2.5 7.5t-2.5 7.5t-8.5 7.5 q-8 7 -11 11q-5 8 -5 19q0 18 13 31.5t37 13.5q8 0 15 -2l4 -2zM137 237q5 -1 9 -6t6 -12l-12 -4v3q0 13 -3 19z" />
</svg>