<svg viewBox="0 0 256 256" xmlns="http://www.w3.org/2000/svg">
  <path transform="scale(1, -1) translate(0, -256)" fill="currentColor" d="M162 161q-9 6 -18 4t-16 -9q-7 7 -16 9.5t-18 -4.5q-11 -8 -11 -23q-1 -11 4 -22q1 -2 5 -8q6 -8 13 -15q10 -9 21 -12l2 -1q2 0 2 1q11 3 21 12q7 7 13 15l4 8q6 10 5 22q0 15 -11 23zM156 122q0 -1 -3.5 -6.5t-8.5 -10.5q-8 -7 -16 -11q-8 4 -15 11q-5 5 -9 10.5 t-4 6.5l-2 5q-2 7 -1.5 13t5.5 9q3 2 6 2h2q3 -1 6.5 -5t5 -7t5.5 -3t7 4q6 10 12 11q3 1 7 -2q7 -4 6 -15q0 -5 -3 -11v-1zM220 29l-17 172q-1 8 -7 13.5t-14 5.5h-17q0 13 -9 22t-22 9h-12q-12 0 -21 -9t-9 -22h-17q-9 0 -15 -5.5t-7 -13.5l-17 -172q-1 -4 1 -8.5t5 -8.5 q6 -7 16 -7h140q10 0 16.5 7t5.5 17zM122 237h12q7 0 11.5 -4.5t5.5 -11.5h-45q0 6 5 11t11 5zM204 22q-2 -3 -6 -3h-140q-4 0 -6.5 2.5t-1.5 6.5l16 171q1 3 3 5t5 2h107q3 0 5.5 -2t2.5 -5l17 -171q1 -4 -2 -6z" />
</svg>