<svg viewBox="0 0 1024 1024" xmlns="http://www.w3.org/2000/svg">
  <path transform="scale(1, -1) translate(0, -960)" fill="currentColor" d="M925 917q-3 6 -9 9t-12 0l-122 -44q-4 -2 -7.5 -6t-3.5 -9v-457q0 -30 -21 -51t-51 -21h-496q-30 0 -51 21t-21 51v240q0 7 -4.5 11.5t-11.5 4.5t-11.5 -4.5t-4.5 -11.5v-239q0 -43 30.5 -73.5t73.5 -30.5h496q22 0 40 8t32 21v-109q0 -30 -21 -51t-51 -21h-467 q-38 0 -65.5 -27t-27.5 -66q0 -38 27.5 -65t65.5 -27t65.5 27t27.5 65q0 18 -6 33.5t-17 27.5h240q-10 -12 -16 -28t-6 -33q0 -38 27 -65t66 -27q38 0 65.5 27t27.5 65q0 18 -6 33.5t-17 27.5h18q43 0 73.5 30.5t30.5 73.5v184v0v0v445l110 40q6 2 9 8.5t1 12.5zM293 61 q0 -25 -18 -43t-43 -18t-43 18t-18 43t18 43t43 18t43 -18t18 -43zM674 61q0 -25 -18 -43t-43 -18t-43 18t-18 43t18 43t43 18q25 1 43 -17.5t18 -43.5zM438 483q3 -2 6 -3.5t6 -1.5q2 0 5 1.5t6 3.5l86 87q5 4 5 10.5t-5 11.5t-11 5t-11 -5l-59 -59v254q0 7 -4.5 11.5 t-11.5 4.5q-8 0 -12 -4.5t-4 -11.5v-254l-60 59q-4 5 -10.5 5t-11.5 -5t-5 -11.5t5 -10.5l86 -87v0z" />
</svg>