<svg viewBox="0 0 256 256" xmlns="http://www.w3.org/2000/svg">
  <path transform="scale(1, -1) translate(0, -256)" fill="currentColor" d="M234 246q-1 3 -3.5 4.5t-5.5 -0.5l-30 -11q-5 -2 -5 -6v-115q0 -6 -4.5 -10.5t-10.5 -4.5h-124q-6 0 -10.5 4.5t-4.5 10.5v60q0 3 -2.5 5.5t-5.5 2.5t-5 -2.5t-2 -5.5v-59q0 -12 8.5 -20.5t20.5 -8.5h124q9 0 16 4v-21q0 -7 -4.5 -11t-11.5 -4h-116q-11 0 -18.5 -8 t-7.5 -19t7.5 -18.5t18.5 -7.5t18.5 7.5t7.5 18.5q0 7 -3 13h49q-4 -6 -4 -13q0 -11 8 -18.5t19 -7.5t18.5 7.5t7.5 18.5q0 7 -3 13q11 0 19.5 8.5t8.5 19.5v156l25 9q3 1 4.5 4t0.5 5zM70 31q0 -5 -3.5 -8.5t-8.5 -3.5t-8.5 3.5t-3.5 8.5t3.5 9t8.5 4t8.5 -4t3.5 -9z M153 19q-5 0 -8.5 3.5t-3.5 9t3.5 9t8.5 3.5t9 -3.5t4 -8.5t-4 -9t-9 -4zM77 131h71q3 0 5 2t2 5v41q0 3 -2 5t-5 2h-8v14q0 11 -8 19t-19.5 8t-19 -8t-7.5 -19v-14h-9q-3 0 -5 -2t-2 -5v-41q0 -3 2.5 -5t4.5 -2zM100 200q0 5 3.5 9t9 4t9.5 -4t4 -9v-14h-26v14zM84 172h57 v-27h-57v27z" />
</svg>