<svg viewBox="0 0 256 256" xmlns="http://www.w3.org/2000/svg">
  <path transform="scale(1, -1) translate(0, -256)" fill="currentColor" d="M120 126h33q3 0 5 2.5t2 5.5t-2 5t-5 2h-13v8q0 3 -2 5t-5 2t-5 -2t-2 -5v-8h-6q-10 0 -17.5 -7.5t-7.5 -17.5t7.5 -17t17.5 -7h15q5 0 8 -3t3 -7.5t-3 -7.5t-8 -3h-33q-3 0 -5 -2t-2 -5t2 -5t5 -2h24v-8q0 -3 2 -5t5 -2t5 2t2 5v8q9 2 14.5 8.5t5.5 16t-7 17t-17 7.5 h-16q-4 0 -7 3t-3 7t3 7t7 3zM200 203h-25v1q0 19 -14 33t-33 14t-33 -14t-14 -33v-1h-25q-11 0 -19 -8t-8 -19v-118q0 -14 7.5 -26.5t19.5 -19.5t26 -7h92q14 0 26.5 7.5t19.5 19.5t7 26v118q0 11 -8 19t-19 8zM95 204q0 14 9.5 23.5t23.5 9.5t23.5 -9.5t9.5 -23.5v-1h-66 v1zM213 58q0 -16 -11.5 -27.5t-27.5 -11.5h-92q-16 0 -27.5 11.5t-11.5 27.5v118q0 5 4 9t9 4h25v-18q0 -3 2 -5t5 -2t5.5 2t2.5 5v18h65v-18q0 -3 2 -5t5 -2t5.5 2t2.5 5v18h24q5 0 9 -4t4 -9v-118z" />
</svg>