<svg viewBox="0 0 256 256" xmlns="http://www.w3.org/2000/svg">
  <path transform="scale(1, -1) translate(0, -256)" fill="currentColor" d="M120 137h34q3 0 5 2t2 5t-2 5t-5 2h-14v9q0 3 -2 5t-5 2t-5 -2t-2 -5v-9h-6q-10 0 -17.5 -7.5t-7.5 -18t7.5 -17.5t17.5 -7h16q5 0 8 -3.5t3 -8t-3.5 -8t-7.5 -3.5h-34q-3 0 -5 -2t-2 -5t2 -5t5 -2h24v-8q0 -3 2.5 -5t5.5 -2t5 2t2 5v9q9 1 15 8t6 17t-7.5 17.5 t-18.5 7.5h-16q-5 0 -8 3t-3 7.5t3 8t8 3.5zM227 37l-17 146q-1 11 -9.5 18t-19.5 7h-11v1q0 17 -12.5 29.5t-29.5 12.5t-29.5 -12.5t-12.5 -29.5v-1h-11q-11 0 -19 -7t-10 -18l-17 -146q-1 -13 7.5 -22.5t21.5 -9.5h140q13 0 21.5 9.5t7.5 22.5zM100 209q0 11 8.5 19.5 t20 8.5t19.5 -8.5t8 -19.5v-1h-56v1zM209 24q-4 -5 -11 -5h-140q-7 0 -11 5t-4 12l17 145q1 6 5 9.5t10 3.5h107q5 0 9.5 -3.5t4.5 -9.5l17 -145q1 -7 -4 -12z" />
</svg>