<svg viewBox="0 0 256 256" xmlns="http://www.w3.org/2000/svg">
  <path transform="scale(1, -1) translate(0, -256)" fill="currentColor" d="M219 251h-182q-13 0 -22.5 -9.5t-9.5 -22.5v-149q0 -17 9 -32t24 -24t33 -9h115q17 0 32 8.5t24 24t9 32.5v149q0 13 -9.5 22.5t-22.5 9.5zM237 70q0 -21 -15 -36t-36 -15h-116q-21 0 -36 15t-15 36v149q0 7 5 12.5t13 5.5h182q7 0 12.5 -5.5t5.5 -12.5v-149zM178 203 q-3 0 -5 -2t-2 -5v-42q0 -17 -12.5 -30t-30.5 -13t-31 12.5t-13 30.5v42q0 3 -2 5t-5 2t-4.5 -2t-1.5 -5v-42q0 -15 7.5 -28t20.5 -21t29 -8t29 8t20.5 21t7.5 28v42q0 3 -2 5t-5 2z" />
</svg>