<svg viewBox="0 0 1024 1024" xmlns="http://www.w3.org/2000/svg">
  <path transform="scale(1, -1) translate(0, -960)" fill="currentColor" d="M896 83l-67 583q-5 39 -34 65t-69 26h-57v7v7q0 65 -46 111t-111 46t-111 -46t-46 -111v-7v-7h-57q-40 0 -69 -26.5t-34 -64.5l-67 -583q-2 -21 4.5 -42.5t21.5 -37.5q14 -17 34.5 -26t41.5 -9h562q22 0 42 9t35 26q15 16 22 37.5t5 42.5zM387 771q0 52 36.5 88.5 t88.5 36.5t88.5 -36.5t36.5 -88.5q0 -3 -0.5 -7t-1.5 -7h-246q-1 3 -1.5 7t-0.5 7v0zM846 24q-10 -12 -24 -18t-30 -6h-560q-16 0 -29.5 6t-23.5 18q-9 12 -14.5 26t-4.5 30l67 582q4 28 24 46t47 18h427q27 0 47.5 -18t22.5 -46l69 -582q1 -16 -3.5 -30.5t-14.5 -25.5v0z M512 565q-64 0 -109 -45t-45 -109q0 -30 21 -64q20 -34 45.5 -64t48.5 -51t29 -26q3 -2 5.5 -2.5t4.5 -0.5t5 1t5 2q5 5 28 26t49 51t46 64q21 34 21 64q0 64 -45 109t-109 45v0zM512 240q-31 28 -76.5 80.5t-45.5 90.5q0 51 36 86.5t86 35.5t86 -35.5t36 -86.5 q0 -38 -45.5 -90t-76.5 -81zM512 448q-17 0 -29.5 -12t-12.5 -30q0 -16 12 -28.5t30 -12.5t30 11.5t12 29.5q0 17 -12.5 29.5t-29.5 12.5z" />
</svg>