<svg viewBox="0 0 1024 1024" xmlns="http://www.w3.org/2000/svg">
  <path transform="scale(1, -1) translate(0, -960)" fill="currentColor" d="M781 685h-144q-6 107 -41.5 175t-83.5 68t-83.5 -68t-41.5 -175h-144q-26 0 -45 -19t-19 -45v-589q0 -26 19 -45t45 -19h538q26 0 45 19t19 45v589q0 27 -19 45.5t-45 18.5zM512 896q30 0 58.5 -57.5t34.5 -153.5h-186q6 96 34.5 153.5t58.5 57.5v0zM813 32 q0 -13 -9.5 -22.5t-22.5 -9.5h-538q-13 0 -22.5 9.5t-9.5 22.5v589q0 13 9.5 22.5t22.5 9.5h538q13 0 22.5 -9.5t9.5 -22.5v-589z" />
</svg>