<svg viewBox="0 0 256 256" xmlns="http://www.w3.org/2000/svg">
  <path transform="scale(1, -1) translate(0, -256)" fill="currentColor" d="M167 119h-10v15q0 12 -8.5 20.5t-20.5 8.5t-20 -8.5t-8 -20.5v-15h-10q-3 0 -5 -2t-2 -5v-45q0 -3 2 -5t5 -2h77q3 0 5 2t2 5v45q0 3 -2 5t-5 2zM114 134q0 6 4 10.5t10 4.5t10.5 -4.5t4.5 -10.5v-15h-29v15zM160 74h-63v31h63v-31zM227 37l-17 146q-1 11 -9.5 18 t-19.5 7h-11v1q0 17 -12.5 29.5t-29.5 12.5t-29.5 -12.5t-12.5 -29.5v-1h-11q-11 0 -19 -7t-10 -18l-17 -146q-1 -13 7.5 -22.5t21.5 -9.5h140q13 0 21.5 9t7.5 23zM100 209q0 11 8.5 19.5t19.5 8.5t19.5 -8.5t8.5 -19.5v-1h-56v1zM209 24q-4 -5 -11 -5h-140q-7 0 -11 5 t-4 12l17 145q1 6 5 9.5t10 3.5h106q6 0 10 -3.5t5 -9.5l17 -145q1 -7 -4 -12z" />
</svg>