<svg viewBox="0 0 1024 1024" xmlns="http://www.w3.org/2000/svg">
  <path transform="scale(1, -1) translate(0, -960)" fill="currentColor" d="M565 611q-4 31 -27.5 51.5t-54.5 20.5h-38v3v4q0 50 -35.5 85.5t-86.5 35.5q-50 0 -85.5 -35.5t-35.5 -85.5v-4v-3h-39q-31 0 -54.5 -20.5t-26.5 -51.5l-50 -437q-2 -16 3.5 -33t17.5 -31q12 -13 28 -20t33 -7h420q18 0 33.5 7t27.5 20q12 14 17 30t4 34l-51 437v0z M235 691q0 37 26.5 63.5t63.5 26.5t63 -26.5t26 -63.5v-3v-3h-179v2.5v3.5zM571 133q-7 -9 -16.5 -12.5t-20.5 -3.5h-420q-11 0 -20.5 4.5t-16.5 11.5q-7 8 -10.5 17.5t-2.5 20.5l51 437q3 19 17 31t33 12h320q19 0 33 -12.5t16 -30.5l52 -437q0 -11 -4 -21t-11 -17v0z M790 584q0 7 -4 11.5t-12 4.5h-100q-8 0 -12 -4.5t-4 -11.5t4 -11.5t12 -4.5h100q6 0 11 5t5 11zM880 403q0 7 -4.5 11.5t-11.5 4.5h-146q-7 0 -11.5 -4.5t-4.5 -11.5t4.5 -11.5t11.5 -4.5h146q6 0 11 4.5t5 11.5zM976 237h-213q-7 0 -11.5 -4.5t-4.5 -11.5t4.5 -11.5 t11.5 -4.5h213q7 0 11.5 4.5t4.5 11.5t-4.5 11.5t-11.5 4.5z" />
</svg>