<svg viewBox="0 0 256 256" xmlns="http://www.w3.org/2000/svg">
  <path transform="scale(1, -1) translate(0, -256)" fill="currentColor" d="M234 246q-1 3 -3.5 4.5t-5.5 -0.5l-30 -11q-5 -2 -5 -6v-115q0 -6 -4.5 -10.5t-10.5 -4.5h-124q-6 0 -10.5 4.5t-4.5 10.5v60q0 3 -2.5 5.5t-5.5 2.5t-5 -2.5t-2 -5.5v-59q0 -12 8.5 -20.5t20.5 -8.5h124q9 0 16 4v-21q0 -7 -4.5 -11t-11.5 -4h-116q-11 0 -18.5 -8 t-7.5 -19t7.5 -18.5t18.5 -7.5t18.5 7.5t7.5 18.5q0 7 -3 13h49q-4 -6 -4 -13q0 -11 8 -18.5t19 -7.5t18.5 7.5t7.5 18.5q0 7 -3 13q11 0 19.5 8.5t8.5 19.5v156l25 9q3 1 4.5 4t0.5 5zM70 31q0 -5 -3.5 -8.5t-8.5 -3.5t-8.5 3.5t-3.5 8.5t3.5 9t8.5 4t8.5 -4t3.5 -9z M153 19q-5 0 -8.5 3.5t-3.5 8.5t3.5 9t8.5 4t9 -4t4 -9t-4 -8.5t-9 -3.5zM94 147q2 -3 6 -3v0q3 0 5 2l50 50q2 2 2 4.5t-2 5t-5 2.5t-5 -2l-43 -44l-15 24q-1 2 -4 2.5t-5.5 -1t-3 -4t0.5 -5.5z" />
</svg>