<svg viewBox="0 0 1024 1024" xmlns="http://www.w3.org/2000/svg">
  <path transform="scale(1, -1) translate(0, -960)" fill="currentColor" d="M917 632h-56l-112 285q-3 6 -9 9t-12 0q-6 -2 -9 -8t-1 -12l109 -274h-630l107 274q2 6 0 12t-10 8q-6 3 -12 0.5t-8 -9.5l-112 -285h-55q-13 0 -22.5 -9.5t-9.5 -22.5v-136q0 -13 9.5 -22.5t22.5 -9.5h13l43 -379q4 -36 31.5 -60.5t64.5 -24.5h507q36 0 64 24.5t32 60.5 l42 379h13q13 0 22.5 9.5t9.5 22.5v136q0 13 -9 22.5t-23 9.5v0zM829 56q-3 -24 -21 -40t-43 -16h-507q-24 0 -42.5 16t-21.5 40l-42 376h720zM107 464v136h811v-136h-811v0zM344 158q7 0 11.5 4.5t4.5 11.5v124q0 7 -4.5 11.5t-11.5 4.5t-11.5 -4.5t-4.5 -11.5v-124 q0 -6 4.5 -11t11.5 -5zM680 158q7 0 11.5 4.5t4.5 11.5v124q0 7 -4.5 11.5t-11.5 4.5t-11.5 -4.5t-4.5 -11.5v-124q0 -6 5 -11t11 -5z" />
</svg>