<svg viewBox="0 0 1024 1024" xmlns="http://www.w3.org/2000/svg">
  <path transform="scale(1, -1) translate(0, -960)" fill="currentColor" d="M648 -48l301 66l-17 114q-17 115 -37.5 252.5t-37.5 252.5t-17 117q-1 3 -3 4.5t-3 1.5q-2 0 -42 4l-40 4l-28 26t-33 30l-1.5 1.5t-3.5 0.5l-38 -874v0zM674 829q-2 0 -2 -0.5v-1.5q-1 0 -8.5 -1.5t-20.5 -7.5q-13 38 -37.5 67.5t-66.5 29.5h-1.5h-3.5q-12 17 -25 23 t-26 6q-49 0 -86 -26q-36 -27 -62 -64.5t-41 -78.5q-15 -42 -22 -73q-37 -12 -62 -19.5t-28 -7.5q-20 -5 -24 -10.5t-8 -26.5q0 -7 -12 -100q-12 -92 -26 -200t-25 -197l-12 -88l562 -101l37 877v0zM530 790v-2.5v-1.5q-24 -8 -49 -16t-51 -16q14 56 38.5 84t49.5 37 l7.5 -35t4.5 -50v0zM477 912q3 0 8 -1t9 -4q-32 -13 -61 -52t-43 -113q-20 -4 -40 -11.5l-36 -13.5q7 27 20 61t33.5 64t47.5 50t62 20zM499 478l-21.5 9t-53.5 9q-44 0 -54 -20.5t-10 -27.5q0 -38 68 -70t68 -122q0 -71 -40.5 -114.5t-101.5 -43.5q-72 1 -109 31.5 l-37 30.5l27 86l31 -22t64 -22q20 0 30 13t10 25q0 50 -55.5 74t-55.5 108q0 70 50.5 126.5t151.5 56.5q38 0 57.5 -8l19.5 -8l-39 -111v0zM549 883q20 -2 35.5 -23.5t23.5 -48.5q-10 -3 -23 -7t-25 -9v4.5v6.5q0 22 -2 42t-9 35v0z" />
</svg>