<svg viewBox="0 0 1024 1024" xmlns="http://www.w3.org/2000/svg">
  <path transform="scale(1, -1) translate(0, -960)" fill="currentColor" d="M925 917q-3 6 -9 9t-12 0l-122 -44q-4 -2 -7.5 -6t-3.5 -9v-457q0 -30 -21 -51t-51 -21h-496q-30 0 -51 21t-21 51v240q0 7 -4.5 11.5t-11.5 4.5t-11.5 -4.5t-4.5 -11.5v-239q0 -43 30.5 -73.5t73.5 -30.5h496q22 0 40 8t32 21v-109q0 -30 -21 -51t-51 -21h-467 q-38 0 -65.5 -27t-27.5 -66q0 -38 27.5 -65t65.5 -27t65.5 27t27.5 65q0 18 -6 33.5t-17 27.5h240q-10 -12 -16 -28t-6 -33q0 -38 27 -65t66 -27q38 0 65.5 27t27.5 65q0 18 -6 33.5t-17 27.5h18q43 0 73.5 30.5t30.5 73.5v184v0v0v445l110 40q6 2 9 8.5t1 12.5zM293 61 q0 -25 -18 -43t-43 -18t-43 18t-18 43t18 43t43 18t43 -18t18 -43zM674 61q0 -25 -18 -43t-43 -18t-43 18t-18 43t18 43t43 18q25 1 43 -17.5t18 -43.5zM309 472h283q7 0 11.5 4.5t4.5 11.5v165q0 7 -4.5 11.5t-11.5 4.5h-45v65q0 40 -28 68t-68 28q-39 0 -67.5 -28 t-28.5 -68v-65h-45q-7 0 -11.5 -4.5t-4.5 -11.5v-165q-1 -7 4 -11.5t11 -4.5zM386 734q0 27 18.5 45.5t45.5 18.5q26 0 45 -18.5t19 -45.5v-65h-128v65zM325 637h251v-133h-251v133z" />
</svg>