<svg viewBox="0 0 256 256" xmlns="http://www.w3.org/2000/svg">
  <path transform="scale(1, -1) translate(0, -256)" fill="currentColor" d="M232 174h-54v17q0 17 -12 29t-29 12h-18q-17 0 -29 -12t-12 -29v-17h-54q-8 0 -13.5 -6t-5.5 -14v-111q0 -8 5.5 -13.5t13.5 -5.5h208q8 0 13.5 5.5t5.5 13.5v111q0 8 -5.5 14t-13.5 6zM92 190q0 12 8 20t19 8h18q11 0 19 -8t8 -20v-50h-72v50zM19 43v111q0 3 1.5 4.5 t3.5 1.5h54v-122h-54q-2 0 -3.5 1.5t-1.5 3.5zM92 126h72v-88h-11v35q0 8 -5.5 13.5t-13.5 5.5h-12q-8 0 -14 -5.5t-6 -13.5v-35h-11v88h1zM117 38v35q0 2 1.5 3.5t3.5 1.5h12q3 0 4.5 -1.5t1.5 -3.5v-35h-23zM237 43q0 -2 -1.5 -3.5t-3.5 -1.5h-54v122h54q2 0 3.5 -2 t1.5 -4v-111z" />
</svg>