<svg viewBox="0 0 1024 1024" xmlns="http://www.w3.org/2000/svg">
  <path transform="scale(1, -1) translate(0, -960)" fill="currentColor" d="M925 917q-3 6 -9 9t-12 0l-122 -44q-4 -2 -7.5 -6t-3.5 -9v-457q0 -30 -21 -51t-51 -21h-496q-30 0 -51 21t-21 51v240q0 7 -4.5 11.5t-11.5 4.5t-11.5 -4.5t-4.5 -11.5v-239q0 -43 30.5 -73.5t73.5 -30.5h496q22 0 40 8t32 21v-109q0 -30 -21 -51t-51 -21h-467 q-38 0 -65.5 -27t-27.5 -66q0 -38 27.5 -65t65.5 -27t65.5 27t27.5 65q0 18 -6 33.5t-17 27.5h240q-10 -12 -16 -28t-6 -33q0 -38 27 -65t66 -27q38 0 65.5 27t27.5 65q0 18 -6 33.5t-17 27.5h18q43 0 73.5 30.5t30.5 73.5v184v0v0v445l110 40q6 2 9 8.5t1 12.5zM293 61 q0 -25 -18 -43t-43 -18t-43 18t-18 43t18 43t43 18t43 -18t18 -43zM674 61q0 -25 -18 -43t-43 -18t-43 18t-18 43t18 43t43 18q25 1 43 -17.5t18 -43.5zM350 528q3 -2 6 -3.5t6 -1.5q2 0 5 1.5t6 3.5l198 198q5 5 5 11.5t-5 11.5t-11 5t-11 -5l-199 -199q-4 -4 -4 -10.5 t4 -11.5zM365 669q13 0 25 4.5t21 14.5q10 10 14.5 21.5t4.5 24.5q0 14 -4.5 25.5t-14.5 21.5q-9 9 -21 14t-25 5t-25 -5t-22 -14q-19 -19 -19 -46.5t19 -46.5q9 -10 21.5 -14.5t25.5 -4.5zM341 758q5 5 11 7.5t13 2.5t13 -2.5t11 -7.5q5 -4 7 -10t2 -14q0 -7 -2 -13t-7 -11 q-10 -9 -24.5 -9t-23.5 9q-11 11 -11 25t11 23zM518 581q-9 -10 -14 -21.5t-5 -25.5q0 -13 5 -24.5t14 -21.5q10 -10 22.5 -14.5t24.5 -4.5t24.5 4.5t21.5 14.5q10 10 14.5 21.5t4.5 24.5q0 14 -4.5 25.5t-14.5 21.5q-19 19 -46 19t-47 -19zM600 534q0 -7 -2.5 -13t-7.5 -11 q-9 -9 -23.5 -9t-24.5 9q-4 5 -6.5 11t-2.5 13q0 8 2.5 14t6.5 10q5 5 11.5 7.5t12.5 2.5t13 -2.5t11 -7.5q4 -4 7 -10t3 -14z" />
</svg>