<svg viewBox="0 0 256 256" xmlns="http://www.w3.org/2000/svg">
  <path transform="scale(1, -1) translate(0, -256)" fill="currentColor" d="M200 203h-25v1q0 19 -14 33t-33 14t-33 -14t-14 -33v-1h-25q-11 0 -19 -8t-8 -19v-118q0 -14 7.5 -26.5t19.5 -19.5t26 -7h92q14 0 26.5 7.5t19.5 19.5t7 26v118q0 11 -8 19t-19 8zM95 204q0 14 9.5 23.5t23.5 9.5t23.5 -9.5t9.5 -23.5v-1h-66v1zM56 189h25v-18 q0 -3 2 -5t5 -2t5.5 2t2.5 5v18h65v-18q0 -3 2 -5t5 -2t5.5 2t2.5 5v18h24q5 0 9 -4t4 -9v-114h-170v114q0 5 4 9t9 4zM174 19h-92q-13 0 -23.5 8t-14.5 21h168q-4 -13 -14.5 -21t-23.5 -8z" />
</svg>