<svg viewBox="0 0 1024 1024" xmlns="http://www.w3.org/2000/svg">
  <path transform="scale(1, -1) translate(0, -960)" fill="currentColor" d="M491 602h135q7 0 11.5 4t4.5 12q0 7 -4.5 11.5t-11.5 4.5h-135q-37 0 -62.5 -26t-25.5 -62v-29q0 -37 26 -62.5t62 -25.5h63q22 0 39 -16.5t17 -39.5v-29q0 -24 -17 -40t-39 -16h-127q-7 0 -11.5 -4.5t-4.5 -11.5t4.5 -11.5t11.5 -4.5h127q37 0 62.5 26t25.5 62v29 q0 37 -26 62.5t-62 25.5h-63q-23 0 -39.5 16.5t-16.5 39.5v29q0 22 16.5 39t39.5 17v0zM234 614q4 4 5 11t-4 12q-3 5 -10 5.5t-12 -4.5l-151 -123q-14 -12 -22 -29t-8 -36q0 -20 8 -37t22 -29l151 -123q2 -3 4.5 -3h4.5q4 0 7.5 1t5.5 5q4 5 3.5 12t-4.5 10l-151 124 q-9 8 -14 18.5t-5 22.5t5 22.5t14 17.5l151 123v0zM960 517l-150 121q-5 4 -12 3.5t-11 -6.5q-3 -5 -3 -12t6 -10l151 -122q9 -7 14 -18t5 -22t-5 -22t-14 -18l-152 -123q-5 -4 -6 -11t3 -11q2 -3 5.5 -5t6.5 -2t5.5 1t4.5 2l152 122q16 12 24 29t8 37q0 19 -8 36.5 t-24 30.5v0z" />
</svg>