<svg viewBox="0 0 256 256" xmlns="http://www.w3.org/2000/svg">
  <path transform="scale(1, -1) translate(0, -256)" fill="currentColor" d="M123 164h33q3 0 5.5 2t2.5 5t-2.5 5t-5.5 2h-33q-11 0 -18 -7.5t-7 -17.5v-7q0 -11 7 -18.5t18 -7.5h15q5 0 8.5 -3t3.5 -8v-7q0 -5 -3.5 -8t-8.5 -3h-31q-3 0 -5 -2t-2 -5t2 -5.5t5 -2.5h31q11 0 18.5 7.5t7.5 18.5v7q0 10 -7.5 17.5t-18.5 7.5h-15q-5 0 -8 3.5t-3 7.5 v7q0 5 3 8.5t8 3.5zM60 167q3 2 3 5t-1.5 5.5t-4.5 2.5t-5 -2l-38 -30q-9 -7 -9 -18.5t9 -19.5l38 -31q1 -1 4 -1t5 2t2 5t-3 5l-37 31q-4 3 -4 8t4 8zM242 147l-38 31q-2 1 -5 1t-4.5 -2.5t-1.5 -5.5t3 -5l37 -30q4 -3 4 -8t-4 -8l-37 -30q-3 -2 -3 -5t2 -5.5t5 -2.5t4 1 l38 31q4 3 6.5 8t2.5 11q0 12 -9 19z" />
</svg>