<svg viewBox="0 0 1024 1024" xmlns="http://www.w3.org/2000/svg">
  <path transform="scale(1, -1) translate(0, -960)" fill="currentColor" d="M888 -32h-179q-5 0 -9 2.5t-6 7.5l-180 428l-184 -428q-3 -5 -6.5 -7.5t-8.5 -2.5h-179q-43 0 -73.5 30.5t-30.5 73.5v752q0 43 30.5 73.5t73.5 30.5h752q43 0 73.5 -30.5t30.5 -73.5v-752q0 -43 -30.5 -73.5t-73.5 -30.5v0zM718 0h170q30 0 51 21t21 51v752q0 30 -21 51 t-51 21h-752q-30 0 -51 -21t-21 -51v-752q0 -30 21 -51t51 -21h170l193 454q3 5 6.5 7.5t8.5 2.5v0v0q4 0 8.5 -2.5t5.5 -7.5z" />
</svg>