<svg viewBox="0 0 256 256" xmlns="http://www.w3.org/2000/svg">
  <path transform="scale(1, -1) translate(0, -256)" fill="currentColor" d="M249 196l-53 54q-2 2 -5 2t-5 -2t-2 -5t2 -5l22 -22l-15 -15l-4 4q-2 2 -5 2t-5 -2t-2 -5t2 -5l4 -4l-72 -72l-21 21q-2 2 -5.5 2t-5.5 -2l-61 -62q-13 -13 -13 -31.5t13 -31.5t31.5 -13t31.5 13l61 62q3 2 3 5.5t-3 5.5l-20 22l71 72l4 -4q2 -2 5 -2t5 2t2 5t-2 5l-4 4 l15 15l21 -22q2 -2 5 -2t5 2t2 4.5t-2 4.5zM128 84l-57 -57q-8 -9 -21 -9t-22 9t-9 21.5t9 21.5l57 58l17 -17l-4 -4q-2 -2 -2 -5t2 -5t4.5 -2t4.5 2l4 4z" />
</svg>