<svg viewBox="0 0 1024 1024" xmlns="http://www.w3.org/2000/svg">
  <path transform="scale(1, -1) translate(0, -960)" fill="currentColor" d="M987 714l-213 214q-4 5 -10.5 5t-11.5 -5t-5 -11.5t5 -10.5l94 -96l-76 -77l-24 24q-5 5 -11.5 5t-11.5 -5t-5 -11.5t5 -11.5l24 -24l-302 -307l-91 93q-6 6 -14.5 6t-14.5 -6l-245 -246q-48 -50 -48 -119t48 -118q24 -24 54 -37t63 -13v0v0q33 0 63.5 13t53.5 37 l246 246q6 6 6 14.5t-6 14.5l-91 93l302 305l24 -24q5 -4 11.5 -4t11.5 4q4 5 4 11.5t-4 11.5l-24 24l76 77l95 -96q5 -5 11 -5t11 5q5 6 5 12.5t-5 11.5v0zM530 274l-237 -239q-19 -19 -43.5 -29.5t-51.5 -10.5q-26 0 -50.5 10.5t-43.5 29.5q-40 40 -40 96.5t40 95.5 l237 239l83 -85l-24 -24q-5 -5 -5 -11.5t5 -11.5q2 -2 5 -3t6 -1q4 0 6.5 1t4.5 3l24 24l84 -84v0z" />
</svg>