<svg viewBox="0 0 256 256" xmlns="http://www.w3.org/2000/svg">
  <path transform="scale(1, -1) translate(0, -256)" fill="currentColor" d="M228 251h-144q-10 0 -17 -7t-7 -17v-54h-21q-14 0 -24 -10t-10 -24v-12q0 -3 2 -5t5 -2h105q3 0 5 2t2 5v12q0 14 -10 24t-24 10h-16v54q0 4 3 7t7 3h144q3 0 6 -3t3 -7v-215q0 -3 2 -5t5 -2t5.5 2t2.5 5v215q-1 10 -8 17t-16 7zM110 140v-6h-91v6q0 8 6 14t14 6h52 q8 -1 13.5 -6.5t5.5 -13.5zM35 98q-3 0 -5 -2t-2 -5v-21q0 -3 2 -5t5 -2t5 2t2 5v21q0 3 -2 5t-5 2zM35 43q-3 0 -5 -2t-2 -5v-20q0 -3 2 -5.5t5 -2.5t5 2.5t2 5.5v20q0 3 -2 5t-5 2zM90 98q-3 0 -5 -2t-2 -5v-21q0 -3 2 -5t5 -2t5 2t2 5v21q0 3 -2 5t-5 2zM90 43 q-3 0 -5 -2t-2 -5v-20q0 -3 2 -5.5t5 -2.5t5 2.5t2 5.5v20q0 3 -2 5t-5 2z" />
</svg>