<svg viewBox="0 0 1024 1024" xmlns="http://www.w3.org/2000/svg">
  <path transform="scale(1, -1) translate(0, -960)" fill="currentColor" d="M910 926h-576q-33 0 -57 -24t-24 -57v-227h-98q-51 0 -87 -36.5t-36 -87.5v-48q0 -7 4.5 -11.5t11.5 -4.5h421q7 0 11.5 4.5t4.5 11.5v48q0 52 -36.5 88t-86.5 36h-77v227q0 20 14.5 34.5t34.5 14.5h576q21 0 35.5 -14.5t14.5 -34.5v-859q0 -8 4.5 -12t11.5 -4t11.5 4 t4.5 12v859q0 33 -24 57t-58 24v0zM453 494v-32h-389v32q0 39 27 65.5t64 26.5h207q38 0 64.5 -27t26.5 -65zM141 317q-7 0 -11.5 -4.5t-4.5 -11.5v-82q0 -7 4.5 -11.5t11.5 -4.5t11.5 4.5t4.5 11.5v82q0 6 -4.5 11t-11.5 5zM141 98q-7 0 -11.5 -4.5t-4.5 -11.5v-82 q0 -7 4.5 -11.5t11.5 -4.5t11.5 4.5t4.5 11.5v82q0 6 -4.5 11t-11.5 5zM360 317q-7 0 -11.5 -4.5t-4.5 -11.5v-82q0 -7 4.5 -11.5t11.5 -4.5t11.5 4.5t4.5 11.5v82q0 6 -4.5 11t-11.5 5zM360 98q-7 0 -11.5 -4.5t-4.5 -11.5v-82q0 -7 4.5 -11.5t11.5 -4.5t11.5 4.5t4.5 11.5 v82q0 6 -4.5 11t-11.5 5z" />
</svg>