<svg viewBox="0 0 256 256" xmlns="http://www.w3.org/2000/svg">
  <path transform="scale(1, -1) translate(0, -256)" fill="currentColor" d="M218 106q-2 2 -5 2t-5 -2t-2.5 -5t2.5 -5l26 -27h-42q-2 0 -3 1l-45 56l45 56q1 1 3 1h38l-22 -23q-2 -2 -2.5 -5t2 -5t5 -2t5.5 2l28 29q5 6 5 13t-5 13l-28 29q-2 2 -5 2t-5 -2t-2.5 -5t2.5 -5l26 -27h-42q-8 0 -14 -7l-42 -53l-43 53q-5 7 -14 7h-67q-3 0 -5 -2t-2 -5 t2 -5t5 -2h67q2 0 3 -1l45 -56l-45 -56q-1 -1 -4 -1h-66q-3 0 -5 -2t-2 -5t2 -5t5 -2h67q9 0 14 7l43 53l42 -53q6 -7 14 -7h38l-22 -23q-2 -2 -2.5 -5t2 -5t5 -2t5.5 2l28 29q5 5 5 12.5t-5 12.5z" />
</svg>