<svg viewBox="0 0 1024 1024" xmlns="http://www.w3.org/2000/svg">
  <path transform="scale(1, -1) translate(0, -960)" fill="currentColor" d="M862 342q-4 5 -10.5 5t-11.5 -5q-5 -4 -5 -10.5t5 -11.5l114 -117l2 -2t1 -3h-187q-8 0 -13.5 3.5t-9.5 8.5l-184 230l184 230q5 5 11 8.5t12 3.5h187l-1.5 -3t-1.5 -2l-116 -117q-4 -5 -4 -11.5t4 -10.5q3 -3 5.5 -4t6.5 -1q3 0 5.5 1t5.5 4l113 116q17 18 17 43t-17 42 l-113 117q-5 5 -11.5 5t-11.5 -5q-4 -5 -4 -11.5t4 -10.5l114 -117q1 -1 2 -2.5t1 -2.5h-185q-15 0 -27.5 -6t-20.5 -16l-180 -224l-179 224q-8 10 -20.5 16t-27.5 6h-267q-7 0 -11.5 -4.5t-4.5 -11.5t4.5 -11.5t11.5 -4.5h267q7 0 13 -3t10 -8l184 -231l-184 -227 q-5 -5 -11 -8t-12 -3h-267q-7 0 -11.5 -4.5t-4.5 -11.5t4.5 -11.5t11.5 -4.5h267q15 0 27.5 6t20.5 16l179 224l180 -224q8 -10 20.5 -16t27.5 -6h187q-1 -1 -1.5 -2.5t-1.5 -2.5l-114 -117q-5 -4 -5 -10.5t5 -11.5q2 -2 5 -3.5t6 -1.5q4 0 6.5 1.5t4.5 3.5l114 117 q17 18 17 43t-17 42l-114 116v0z" />
</svg>