<svg viewBox="0 0 256 256" xmlns="http://www.w3.org/2000/svg">
  <path transform="scale(1, -1) translate(0, -256)" fill="currentColor" d="M128 251q-33 0 -61.5 -16.5t-45 -45t-16.5 -61.5t16.5 -61.5t45 -45t61.5 -16.5t61.5 16.5t45 45t16.5 61.5t-16.5 61.5t-45 45t-61.5 16.5zM128 19q-29 0 -54 14.5t-40 39.5t-15 55t15 54.5t39.5 39.5t54.5 15t55 -15t39.5 -40t14.5 -54.5t-14.5 -54.5t-39.5 -39.5 t-55 -14.5zM72 165q0 -6 4 -10t9.5 -4t10 4t4.5 10t-4.5 10t-10 4t-9.5 -4t-4 -10zM156 165q0 -6 4.5 -10t10 -4t9.5 4t4 10t-4 10t-9.5 4t-10 -4t-4.5 -10zM179 100q3 0 5 2t2 5t-2 5t-5 2q-9 0 -15.5 -3.5t-10.5 -10.5q-25 7 -51 0q-4 6 -11 10t-15 4q-3 0 -5 -2t-2 -5 t2 -5t5 -2q6 0 10 -3t5 -8l1 -3q0 -6 -5 -10t-11 -4q-3 0 -5 -2.5t-2 -5.5t2 -5t5 -2q12 0 21 8.5t9 20.5v0q21 6 42 0v0q0 -12 9 -20.5t21 -8.5q3 0 5 2t2 5t-2 5.5t-5 2.5q-7 0 -11.5 4t-4.5 10t5 10t12 4z" />
</svg>