<svg viewBox="0 0 256 256" xmlns="http://www.w3.org/2000/svg">
  <path transform="scale(1, -1) translate(0, -256)" fill="currentColor" d="M61 149q0 10 6 17t14 7t13.5 -7t5.5 -17q0 -3 2.5 -5t5.5 -2t5 2t2 5q0 16 -10 27t-24 11t-23.5 -11t-9.5 -27q0 -3 2 -5t5 -2t4.5 2t1.5 5zM175 187q-14 0 -23.5 -11t-9.5 -27q0 -3 2 -5t5 -2t5 2t2 5q0 10 6 17t14 7t13.5 -7t5.5 -17q0 -3 2 -5t5 -2t5.5 2t2.5 5 q-1 16 -11 27t-24 11zM128 251q-33 0 -61.5 -16.5t-45 -45t-16.5 -61.5t16.5 -61.5t45 -45t61.5 -16.5t61.5 16.5t45 45t16.5 61.5t-16.5 61.5t-45 45t-61.5 16.5zM128 19q-29 0 -53.5 14t-39 37.5t-16.5 51.5v6q0 30 15 54.5t39.5 39.5t54.5 15t55 -15t39.5 -40t14.5 -54 v-6q-1 -28 -16 -51.5t-39.5 -37.5t-53.5 -14zM176 114h-96q-9 0 -15.5 -6.5t-6.5 -15.5v-12q0 -9 6.5 -15.5t15.5 -6.5h96q9 0 15.5 6.5t6.5 15.5v12q0 9 -6.5 15.5t-15.5 6.5zM184 80q0 -4 -2 -6t-6 -2h-96q-4 0 -6 2t-2 6v12q0 3 2 5.5t6 2.5h96q3 0 5.5 -2.5t2.5 -5.5 v-12z" />
</svg>