<svg viewBox="0 0 1024 1024" xmlns="http://www.w3.org/2000/svg">
  <path transform="scale(1, -1) translate(0, -960)" fill="currentColor" d="M323 642q37 0 64 -31.5t27 -76.5q0 -7 4.5 -11.5t11.5 -4.5q8 0 12 4.5t4 11.5q0 58 -35.5 99t-87.5 41q-51 0 -87 -41t-36 -99q0 -7 4.5 -11.5t11.5 -4.5t11.5 4.5t4.5 11.5q0 45 27 76.5t64 31.5zM701 674q-51 0 -87 -41t-36 -99q0 -7 4 -11.5t12 -4.5q7 0 11.5 4.5 t4.5 11.5q0 45 26 76.5t65 31.5q37 0 64 -31.5t27 -76.5q0 -7 4.5 -11.5t11.5 -4.5t11.5 4.5t4.5 11.5q0 58 -36 99t-87 41zM992 472q-5 95 -44 179q-40 83 -105 144.5t-150 97.5q-85 35 -181 35t-181 -35q-85 -36 -150 -97.5t-105 -144.5q-39 -84 -44 -179v-12v-12 q0 -19 1 -37.5t4 -36.5q14 -85 56 -160q42 -74 105 -128.5t144 -86.5q80 -31 170 -31t170 31q81 32 144 86.5t105 128.5q42 75 56 160q3 18 4 36.5t1 37.5v12v12zM512 0q-92 0 -174 35q-81 36 -142 97t-97 142q-35 82 -35 174t35 174q36 81 96.5 142t142.5 97q82 35 174 35 t174 -35q81 -36 142 -96.5t97 -142.5q35 -82 35 -174t-35 -174q-36 -81 -96.5 -142t-142.5 -97q-82 -35 -174 -35zM706 379h-388q-31 0 -53 -22t-22 -53v-50q0 -31 22 -53t53 -22h386q31 0 53 22t22 53v50q1 31 -20.5 53t-52.5 22zM749 254q0 -18 -12.5 -30.5t-30.5 -12.5 h-388q-18 0 -30.5 12.5t-12.5 30.5v50q0 18 12.5 30.5t30.5 12.5h386q18 0 30.5 -12.5t12.5 -30.5v-50h2z" />
</svg>