<svg viewBox="0 0 256 256" xmlns="http://www.w3.org/2000/svg">
  <path transform="scale(1, -1) translate(0, -256)" fill="currentColor" d="M191 219h-65q-9 0 -15 -6t-6 -15v-4h-18v2q0 9 -6.5 15t-15 6t-15 -6t-6.5 -15v-138q0 -8 6.5 -14.5t15 -6.5t15 6.5t6.5 14.5v79h18v-4q0 -8 6.5 -14.5t14.5 -6.5h65q8 0 14.5 6.5t6.5 14.5v65q0 9 -6.5 15t-14.5 6zM73 58q0 -3 -2 -5t-5 -2t-5.5 2t-2.5 5v138 q0 3 2.5 5t5.5 2t5 -2t2 -5v-138zM87 151v29h18v-29h-18zM198 133q0 -3 -2 -5t-5 -2h-65q-3 0 -5 2t-2 5v65q0 3 2 5t5 2h65q3 0 5 -2t2 -5v-65zM174 173h-8v6q0 3 -2 5t-5 2t-5 -2t-2 -5v-6h-7q-3 0 -5 -2t-2 -5t2 -5.5t5 -2.5h7v-6q0 -3 2 -5t5 -2t5 2t2 5v6h8q3 0 5 2.5 t2 5.5t-2 5t-5 2z" />
</svg>