<svg viewBox="0 0 256 256" xmlns="http://www.w3.org/2000/svg">
  <path transform="scale(1, -1) translate(0, -256)" fill="currentColor" d="M220 251h-100q-9 0 -15 -6t-6 -15v-13h-31v10q0 9 -6 15t-15 6h-11q-8 0 -14.5 -6t-6.5 -15v-201q0 -9 6.5 -15t14.5 -6h11q9 0 15 6t6 15v118h31v-14q0 -9 6.5 -15t14.5 -6h100q9 0 15 6.5t6 14.5v100q0 9 -6 15t-15 6zM54 26q0 -3 -2 -5t-5 -2h-11q-3 0 -5 2t-2 5v201 q0 3 2 5t5 2h11q3 0 5 -2t2 -5v-201zM68 158v44h31v-45h-31v1zM227 130q0 -3 -2 -5t-5 -2h-100q-3 0 -5 2t-2 5v100q0 3 2 5t5 2h100q3 0 5 -2t2 -5v-100zM190 210q-3 0 -5.5 -2t-2.5 -5v-16h-25v16q0 3 -2 5t-5 2t-5 -2t-2 -5v-47q0 -3 2 -5t5 -2t5 2t2 5v17h25v-17 q0 -3 2.5 -5t5.5 -2t5 2t2 5v48q0 2 -2 4t-5 2z" />
</svg>