<svg viewBox="0 0 1024 1024" xmlns="http://www.w3.org/2000/svg">
  <path transform="scale(1, -1) translate(0, -960)" fill="currentColor" d="M818 797h-290v115q0 7 -4.5 11.5t-11.5 4.5t-11.5 -4.5t-4.5 -11.5v-115h-290q-26 0 -45 -19t-19 -45v-242q0 -26 19 -45t45 -19h290v-443q0 -7 4.5 -11.5t11.5 -4.5t11.5 4.5t4.5 11.5v445h290q26 0 45 18.5t19 45.5v240q0 26 -19 45t-45 19zM850 493q0 -13 -9.5 -22.5 t-22.5 -9.5h-612q-13 0 -22.5 9.5t-9.5 22.5v240q0 13 9.5 22.5t22.5 9.5h610q13 0 22.5 -9.5t9.5 -22.5v-240h2z" />
</svg>