<svg viewBox="0 0 1024 1024" xmlns="http://www.w3.org/2000/svg">
  <path transform="scale(1, -1) translate(0, -960)" fill="currentColor" d="M243 624q7 0 11.5 4.5t4.5 11.5t-4.5 11.5t-11.5 4.5h-94q-7 0 -11.5 -4.5t-4.5 -11.5v-106q0 -7 4.5 -11.5t11.5 -4.5h78v-62h-78q-7 0 -11.5 -4.5t-4.5 -11.5t4.5 -11.5t11.5 -4.5h94q7 0 11.5 4.5t4.5 11.5v94q0 8 -4.5 12t-11.5 4h-78v74h78zM917 750h-389v152 q0 8 -4.5 12t-11.5 4t-11.5 -4t-4.5 -12v-152h-389q-31 0 -53 -22t-22 -53v-270q0 -31 22 -53t53 -22h389v-336q0 -8 4.5 -12t11.5 -4t11.5 4t4.5 12v336h389q31 0 53 22t22 53v269q0 31 -22 53.5t-53 22.5zM960 405q0 -18 -12.5 -30.5t-30.5 -12.5h-810q-18 0 -30.5 12.5 t-12.5 30.5v269q0 18 12.5 30.5t30.5 12.5h810q18 0 30.5 -12.5t12.5 -30.5v-269zM680 446h-91v192q0 8 -4.5 12t-11.5 4t-11.5 -4t-4.5 -12v-208q0 -7 4.5 -11.5t11.5 -4.5h107q7 0 11.5 4.5t4.5 11.5q0 8 -4.5 12t-11.5 4zM850 622q7 0 11.5 4.5t4.5 11.5q0 8 -4.5 12 t-11.5 4h-80q-8 0 -12 -4t-4 -12v-201q0 -7 4 -11.5t12 -4.5h80q7 0 11.5 4.5t4.5 11.5t-4.5 11.5t-11.5 4.5h-64v69h24q7 0 11.5 4t4.5 12q0 7 -4.5 11.5t-11.5 4.5h-24v68h64zM466 654h-108q-7 0 -11.5 -4t-4.5 -12v-208q0 -7 4.5 -11.5t11.5 -4.5q8 0 12 4.5t4 11.5v98 h76v-98q0 -7 4 -11.5t12 -4.5q7 0 11.5 4.5t4.5 11.5v207q0 7 -4.5 12t-11.5 5zM374 622h76v-62h-76v62z" />
</svg>