<svg viewBox="0 0 256 256" xmlns="http://www.w3.org/2000/svg">
  <path transform="scale(1, -1) translate(0, -256)" fill="currentColor" d="M128 251q-33 0 -61.5 -16.5t-45 -45t-16.5 -61.5t16.5 -61.5t45 -45t61.5 -16.5t61.5 16.5t45 45t16.5 61.5t-16.5 61.5t-45 45t-61.5 16.5zM128 19q-13 0 -26 3v38l30 22q3 2 3 6v88l22 -22q2 -2 4.5 -2t5 2.5t2.5 5t-3 4.5l-33 34q-2 2 -5 2t-5 -2l-33 -34q-2 -2 -2 -5 t2 -5t4.5 -2t5.5 2l21 22v-85l-19 -14v24q0 3 -2.5 5t-5.5 2t-5 -2t-2 -5v-75q-30 13 -49 40.5t-19 61.5q0 29 14.5 54t39.5 40t55 15t55 -15t39.5 -40t14.5 -54.5t-14.5 -54.5t-39.5 -39.5t-55 -14.5z" />
</svg>