<svg viewBox="0 0 256 256" xmlns="http://www.w3.org/2000/svg">
  <path transform="scale(1, -1) translate(0, -256)" fill="currentColor" d="M61 169q3 0 5 2t2 5t-2 5t-5 2h-24q-3 0 -5 -2t-2 -5v-26q0 -3 2 -5.5t5 -2.5h17v-9h-17q-3 0 -5 -2t-2 -5t2 -5.5t5 -2.5h24q3 0 5 2.5t2 5.5v23q0 3 -2 5t-5 2h-17v13h17zM229 206h-94v36q0 3 -2 5t-5 2t-5 -2t-2 -5v-36h-94q-9 0 -15.5 -6t-6.5 -16v-67 q0 -9 6.5 -15.5t15.5 -6.5h94v-81q0 -3 2 -5t5 -2t5 2t2 5v81h94q9 0 15.5 6.5t6.5 15.5v67q0 10 -6.5 16t-15.5 6zM237 117q0 -3 -2 -5.5t-6 -2.5h-202q-4 0 -6 2.5t-2 5.5v67q0 4 2.5 6t5.5 2h202q3 0 5.5 -2t2.5 -6v-67zM170 131h-20v45q0 3 -2 5t-5 2t-5 -2t-2 -5v-52 q0 -3 2 -5.5t5 -2.5h27q3 0 5 2.5t2 5.5t-2 5t-5 2zM212 168q3 0 5.5 2.5t2.5 5.5t-2.5 5t-5.5 2h-20q-3 0 -5 -2t-2 -5v-51q0 -3 2 -5t5 -2h20q3 0 5.5 2t2.5 5t-2.5 5t-5.5 2h-13v12h3q3 0 5.5 2t2.5 5t-2.5 5t-5.5 2h-3v11h13v-1zM116 182h-26q-3 0 -5.5 -2t-2.5 -5v-52 q0 -3 2.5 -5t5.5 -2t5 2t2 5v22h13v-22q0 -3 2 -5t5 -2t5 2t2 5v52q0 3 -2.5 5t-5.5 2zM97 168h13v-9h-13v9z" />
</svg>