<svg viewBox="0 0 1024 1024" xmlns="http://www.w3.org/2000/svg">
  <path transform="scale(1, -1) translate(0, -960)" fill="currentColor" d="M501 -32q-46 0 -87.5 17.5t-74.5 49.5l-181 179q-14 15 -21 32.5t-7 36.5t7 37.5t21 31.5q15 14 33 21.5t36 7.5q-17 29 -13 61.5t29 56.5q24 24 57.5 28t61.5 -12q0 19 7 37t21 32q14 13 31 20.5t35 8.5l-146 145q-28 29 -28 70t28 70q29 28 70 28t70 -28l62 -61l6 14 q9 18 23 31t33 19q18 6 37.5 4.5t36.5 -9.5q36 -18 49.5 -56t-4.5 -74l-37 -75l170 -169q33 -34 50 -76t17 -86t-17 -86t-50 -76l-164 -163q-32 -32 -74 -49.5t-87 -17.5v0zM229 350q-13 0 -25 -4.5t-22 -14.5q-9 -9 -14 -21t-5 -25t5 -25t14 -22l181 -180q28 -28 64 -43 t75 -15q40 0 76 15t64 43l164 164q29 29 44 65q14 37 14 74.5t-14 74.5q-15 36 -44 65l-379 376q-19 19 -46.5 19t-47.5 -19q-19 -19 -19 -46.5t19 -48.5l195 -195v0v0l181 -181q5 -4 5 -10.5t-5 -11.5l-1 -1l-1 -1q-2 -2 -5.5 -2.5t-5.5 -0.5t-4.5 1.5t-5.5 3.5l-179 181 q-19 19 -46 19t-47 -19q-19 -19 -19 -46.5t19 -48.5l181 -180q3 -3 4 -6t1 -6q0 -2 -1 -5t-4 -6q-5 -5 -11 -5t-11 5l-213 211q-19 20 -46.5 20t-47.5 -20q-20 -19 -20 -46.5t20 -47.5l211 -211q2 -3 3.5 -6t1.5 -5q0 -3 -1.5 -6t-3.5 -6q-5 -4 -11.5 -4t-11.5 4l-179 181 q-9 10 -21.5 14.5t-24.5 4.5v0zM536 813l98 -98l32 66q12 24 2.5 49.5t-33.5 36.5q-12 6 -24.5 6.5t-24.5 -3.5t-22 -12.5t-15 -20.5l-13 -24v0z" />
</svg>