<svg viewBox="0 0 1024 1024" xmlns="http://www.w3.org/2000/svg">
  <path transform="scale(1, -1) translate(0, -960)" fill="currentColor" d="M512 928q-99 0 -186 -38q-88 -38 -153 -103t-103 -153q-38 -87 -38 -186t38 -186q38 -88 103 -153t153 -103q87 -38 186 -38t186 38q88 38 153 103t103 153q38 87 38 186t-38 186q-38 88 -103 153t-153 103q-87 38 -186 38zM512 0q-31 0 -61 4.5t-59 11.5q0 1 1 2.5 t1 2.5v160l128 91q3 2 4.5 5.5t1.5 7.5v384l107 -107q3 -3 6 -4t5 -1q3 0 6 1t6 4q4 4 4 10.5t-4 11.5l-135 134q-5 5 -11 5t-11 -5l-135 -134q-4 -5 -4 -11.5t4 -10.5q5 -5 11.5 -5t11.5 5l107 107v-375l-102 -73v120q0 7 -4.5 11.5t-11.5 4.5q-8 0 -12 -4.5t-4 -11.5v-315 q-65 23 -120 65q-54 41 -94 96.5t-62 121.5t-22 139q0 92 35 174q36 81 97 142t142 97q82 35 174 35t174 -35q82 -36 142.5 -97t96.5 -142q35 -82 35 -174t-35 -174q-36 -82 -96.5 -142.5t-142.5 -96.5q-82 -35 -174 -35v0z" />
</svg>