<svg viewBox="0 0 1024 1024" xmlns="http://www.w3.org/2000/svg">
  <path transform="scale(1, -1) translate(0, -960)" fill="currentColor" d="M653 675q-7 0 -11.5 -4.5t-4.5 -11.5v-117l-66 124q-2 4 -7.5 6.5t-9.5 1.5q-5 -2 -9 -6t-4 -10v-181q0 -7 4.5 -11.5t11.5 -4.5t11.5 4.5t4.5 11.5v117l65 -124q3 -3 6.5 -5.5t8.5 -2.5h2h1q5 2 9 6t4 10v181q0 6 -4.5 11t-11.5 5zM445 643q7 0 11.5 4.5t4.5 11.5 t-4.5 11.5t-11.5 4.5h-72q-7 0 -11.5 -4.5t-4.5 -11.5v-181q0 -7 4.5 -11.5t11.5 -4.5h72q7 0 11.5 4.5t4.5 11.5q0 8 -4.5 12t-11.5 4h-56v60h19q7 0 11.5 4t4.5 12q0 7 -4.5 11.5t-11.5 4.5h-19v59h56v-2zM261 675h-95q-7 0 -11.5 -4.5t-4.5 -11.5v-181q0 -7 4.5 -11.5 t11.5 -4.5q8 0 12 4.5t4 11.5v76h4q0 -2 1 -4t2 -3l59 -78q2 -4 5.5 -5.5t7.5 -1.5q2 0 4.5 1t4.5 3q5 3 6 10t-2 12l-50 66h37q7 0 11.5 4t4.5 12v89q0 6 -5 11t-11 5v0zM245 586h-63v57h63v-57zM858 675h-112q-8 0 -12 -4.5t-4 -11.5t4 -11.5t12 -4.5h40v-165 q0 -7 4 -11.5t12 -4.5q7 0 11.5 4.5t4.5 11.5v165h40q7 0 11.5 4.5t4.5 11.5t-4.5 11.5t-11.5 4.5zM928 770h-400v139q0 7 -4.5 11.5t-11.5 4.5t-11.5 -4.5t-4.5 -11.5v-139h-400q-26 0 -45 -19t-19 -45v-274q0 -26 19 -45t45 -19h400v-379q0 -7 4.5 -11.5t11.5 -4.5 t11.5 4.5t4.5 11.5v377h400q26 0 45 19t19 45v276q0 26 -19 45t-45 19v0zM960 430q0 -13 -9.5 -22.5t-22.5 -9.5h-832q-13 0 -22.5 9.5t-9.5 22.5v276q0 13 9.5 22.5t22.5 9.5h832q13 0 22.5 -9.5t9.5 -22.5v-276z" />
</svg>