<svg viewBox="0 0 256 256" xmlns="http://www.w3.org/2000/svg">
  <path transform="scale(1, -1) translate(0, -256)" fill="currentColor" d="M125 5q-12 0 -23 4.5t-19 12.5l-45 46q-9 8 -9 19.5t9 18.5q6 7 14 8q-2 8 -0.5 15.5t7.5 13.5t14 7.5t15 -0.5q1 8 7 14t13 8l-32 32q-8 8 -8 19.5t8 19.5t19.5 8t18.5 -9l13 -12q5 10 15.5 13.5t20.5 -1t14 -15.5t-1 -21l-8 -17l41 -41q11 -12 15.5 -27.5t0 -30.5 t-15.5 -27l-41 -41q-9 -8 -20 -12.5t-23 -4.5zM57 101q-5 0 -9 -4t-4 -9.5t4 -9.5l45 -46q13 -13 32.5 -13t32.5 13l41 42q13 13 13 32t-13 33l-94 94q-4 4 -9.5 4t-9.5 -4t-4 -9.5t4 -9.5l94 -94q2 -2 2 -5t-2 -5t-5 -2t-5 1l-45 46q-4 4 -9.5 4t-9.5 -4t-4 -9.5t4 -9.5 l45 -46q2 -2 2 -4.5t-2 -4.5t-5 -2t-5 2l-53 53q-4 4 -9.5 3.5t-9.5 -4t-4 -9.5t4 -10l53 -53q2 -2 2 -4.5t-2 -5t-5 -2t-5 2.5l-45 45q-5 4 -10 4zM138 220l20 -20l6 13q2 5 0 10t-6.5 7.5t-10 0.5t-7.5 -7z" />
</svg>