<svg viewBox="0 0 256 256" xmlns="http://www.w3.org/2000/svg">
  <path transform="scale(1, -1) translate(0, -256)" fill="currentColor" d="M128 164q-9 0 -15 -6t-6 -14t4 -13.5t10 -7.5v-79q0 -3 2 -5.5t5 -2.5t5.5 2.5t2.5 5.5v79q6 2 10 7.5t3.5 13.5t-6.5 14t-15 6zM128 136q-3 0 -5 2t-2 5t2 5t5 2t5 -2t2 -5t-2 -5t-5 -2zM96 178q-3 2 -5.5 2t-4.5 -2q-14 -14 -14 -32t14 -32q2 -2 4.5 -2t4.5 2.5t2 5 t-2 4.5q-9 10 -9 22.5t9 21.5q3 2 3 4.5t-2 5.5zM160 178q-2 -3 -2 -5.5t2 -4.5q9 -9 9.5 -22t-9.5 -22q-2 -2 -2 -5t2 -5t5 -2t5 2q6 6 9.5 14.5t3.5 17.5q0 19 -13 31q-2 3 -4.5 2.5t-5.5 -1.5zM70 197q-2 2 -4.5 2t-5.5 -2q-10 -10 -15.5 -23.5t-5.5 -27.5q0 -30 21 -52 q2 -2 5 -2t5 2t2 5t-2 5q-8 8 -12.5 19t-4.5 23q0 24 17 41q2 3 2 5.5t-2 4.5zM196 198q-3 2 -5.5 2t-5 -2t-2.5 -5t3 -5q17 -18 17 -42t-17 -42q-2 -2 -2.5 -4.5t2 -5t5 -2.5t4.5 2q11 11 16.5 24t5.5 28q0 30 -21 52zM19 146q0 17 6.5 33t19.5 29q2 2 2 4.5t-2 4.5t-5 2 t-5 -2q-15 -14 -22.5 -32.5t-7.5 -38.5t7.5 -38.5t22.5 -32.5q2 -2 4.5 -2t5 2t2 5t-2.5 5q-12 12 -18.5 27.5t-6.5 33.5zM221 217q-2 2 -5 2t-5 -2t-2 -5t2 -5q13 -12 19.5 -28t6.5 -33.5t-6.5 -33.5t-19.5 -28q-2 -2 -2 -5t2 -5t5 -2t5 2q14 14 22 32.5t8 39t-7.5 39 t-22.5 32.5z" />
</svg>