<svg viewBox="0 0 256 256" xmlns="http://www.w3.org/2000/svg">
  <path transform="scale(1, -1) translate(0, -256)" fill="currentColor" d="M116 148q4 2 6 6q6 9 1.5 19t-14 18t-22.5 11l8 16q4 6 1 14t-10 11.5t-14.5 1t-11.5 -9.5l-4 -8q-3 3 -8 4q-8 1 -14.5 -4t-7.5 -13l-6 -46q-2 -8 -2 -11l-3 -14l-13 -51q-2 -6 1 -11.5t8 -7.5q10 -4 21 -4q22 0 36 14q5 5 9 7t11 4q12 4 21 11.5t14 18t-1 18.5 q-2 4 -6 6zM73 228q1 3 3 3.5t4 -1t3 -3.5t-1 -3l-10 -20h-4l-9 -2zM46 217q2 0 3 -2l1 -1l-13 -23l3 21q0 2 2 3.5t4 1.5zM90 174q-7 5 -17 5q-14 0 -23.5 -10.5t-7.5 -24.5q1 -10 8 -17.5t18 -9.5h5q9 0 16.5 4.5t11.5 12.5q1 3 2 3q5 1 7 -2t1 -5q-4 -8 -11 -14t-16 -8 q-6 -2 -13 -6q-6 -3 -12 -9q-9 -8 -20.5 -10t-22.5 3q-2 0 -1 2l12 46q2 10 4 21q3 14 13.5 24t25.5 11q17 1 30 -10q8 -6 11 -14q1 -2 -1 -5t-7 -2q-1 1 -2 3q-4 7 -11 12zM95 148q-4 -3 -6.5 -8t-7.5 -7.5t-11 -1.5t-9.5 5t-4.5 11t4 12.5t13 5.5q5 0 9 -2.5t6.5 -7.5 t6.5 -7zM245 184q-15 6 -30.5 3t-26.5 -14q-5 -4 -9 -6.5t-11 -4.5q-12 -3 -21 -11t-14 -18t1 -19q2 -4 6 -6q-4 -2 -6 -6q-6 -9 -1.5 -19t14.5 -18t22 -11l-7 -15q-4 -8 -1.5 -15.5t9.5 -10.5q4 -2 9 -2l6 1q7 2 11 9l4 8q3 -3 8 -4h3q7 0 12.5 5t6.5 12l6 46q2 8 2 11 l3 14l13 51q2 6 -0.5 11.5t-8.5 8.5zM183 28q-1 -3 -3 -3.5t-4 1t-3 3.5t1 3l10 20h4l8 2zM210 39q-2 0 -3 2l-1 1l13 23l-3 -21q0 -2 -2 -3.5t-4 -1.5zM241 168l-12 -46q-3 -10 -5 -21q-2 -14 -13 -24t-25 -11q-18 -1 -31 10q-7 6 -10 14q-1 2 0.5 4.5t4.5 2.5h2q2 -1 3 -3 q3 -7 10.5 -12t17.5 -5q14 0 23 10.5t8 24.5q-2 10 -9 17.5t-17 9.5h-5q-9 0 -16.5 -4.5t-11.5 -12.5q-2 -3 -3 -3q-4 -1 -6 2t-1 5q4 8 10.5 14t15.5 8q7 2 13 5.5t12 9.5q9 8 20.5 10t22.5 -3q2 0 2 -2zM161 108q4 3 6.5 8t7.5 7.5t11 1.5t9.5 -5t4.5 -11t-4 -12t-11.5 -6 t-11 2t-6.5 7.5t-6 7.5z" />
</svg>