<svg viewBox="0 0 1024 1024" xmlns="http://www.w3.org/2000/svg">
  <path transform="scale(1, -1) translate(0, -960)" fill="currentColor" d="M512 582q-30 0 -52 -21t-22 -52q0 -27 16.5 -46.5t41.5 -24.5v-328q0 -7 4.5 -11.5t11.5 -4.5t11.5 4.5t4.5 11.5v328q25 6 41.5 26t16.5 45q0 30 -22 51.5t-52 21.5zM512 469q-17 0 -29.5 11.5t-12.5 29.5t12.5 30t29.5 12t29.5 -12t12.5 -30t-12.5 -29.5t-29.5 -11.5z M374 637q-4 5 -10.5 5t-11.5 -5q-24 -23 -37 -53t-13 -64t13 -64t37 -54q2 -3 5.5 -4t5.5 -1q4 0 6.5 1t4.5 4q5 4 5 10.5t-5 11.5q-19 19 -29.5 43.5t-10.5 52.5q0 26 10.5 50.5t29.5 43.5q5 5 5 11.5t-5 11.5zM650 637q-5 -5 -5 -11.5t5 -11.5q19 -19 29.5 -43.5 t10.5 -50.5q0 -28 -10.5 -52.5t-29.5 -43.5q-5 -5 -5 -11.5t5 -10.5q2 -3 5 -4t6 -1t6 1t5 4q24 24 37 54t13 64t-13 64t-37 53q-5 5 -11.5 5t-10.5 -5v0zM272 717q-5 5 -11.5 5t-10.5 -5q-40 -40 -62 -91t-22 -106t21.5 -106t62.5 -91q2 -2 4.5 -3.5t6.5 -1.5q3 0 6 1.5 t5 3.5q5 5 5 11.5t-5 11.5q-35 34 -54.5 79.5t-19.5 94.5t19 94.5t55 79.5q5 5 5 11.5t-5 11.5v0zM774 717q-4 5 -10.5 5t-11.5 -5t-5 -11.5t5 -11.5q35 -34 54.5 -79.5t19.5 -94.5t-19 -94.5t-55 -79.5q-5 -5 -5 -11.5t5 -11.5q2 -2 5.5 -3.5t5.5 -1.5q4 0 6.5 1.5t4.5 3.5 q40 40 62 91t22 106t-22 106t-62 91v0zM64 520q0 72 28 137.5t79 116.5q5 5 5 11.5t-5 11.5t-11 5t-11 -5q-57 -55 -87 -127t-30 -150t30 -150t85 -127q3 -2 5.5 -3.5t5.5 -1.5q4 0 6.5 1.5t5.5 3.5q4 5 4 11.5t-4 11.5q-51 51 -78.5 116.5t-27.5 137.5v0zM877 797 q-5 5 -11.5 5t-11.5 -5q-4 -5 -4 -11.5t4 -11.5q52 -50 80 -116t28 -138t-28 -137.5t-80 -116.5q-4 -5 -4 -11.5t4 -11.5q3 -2 6 -3.5t6 -1.5t5.5 1.5t5.5 3.5q55 55 85 127t30 150t-30 150t-85 127v0z" />
</svg>