<svg viewBox="0 0 256 256" xmlns="http://www.w3.org/2000/svg">
  <path transform="scale(1, -1) translate(0, -256)" fill="currentColor" d="M163 188q-3 0 -5 -2.5t-2 -5.5v-16l-10 20q-2 2 -4 3t-4.5 0.5t-4 -2.5t-1.5 -5v-45q0 -3 2.5 -5t5.5 -2t5 2t2 5v17l10 -20q2 -4 6 -4l2 1q2 0 3.5 2t1.5 5v45q0 3 -2 5t-5 2zM111 174q3 0 5 2t2 5t-2 5t-5 2h-18q-3 0 -5 -2t-2 -5v-45q0 -3 2 -5.5t5 -2.5h18q3 0 5 2.5 t2 5.5t-2 5t-5 2h-11v9h2q3 0 5.5 2t2.5 5t-2.5 5t-5.5 2h-2v9h11v-1zM65 188h-23q-3 0 -5.5 -2.5t-2.5 -5.5v-45q0 -3 2.5 -5t5.5 -2t5 2t2 5v11l11 -15q1 -3 4 -3t5.5 2t3 5t-1.5 5l-9 12h3q3 0 5 2t2 5v22q0 3 -2 5t-5 2zM48 174h10v-9h-10v9zM214 188h-28q-3 0 -5 -2.5 t-2 -5.5t2 -5t5 -2h8v-38q0 -3 2 -5t5 -2t5 2t2 5v38h7q3 0 5 2t2 5t-2.5 5.5t-5.5 2.5zM232 211h-97v32q0 3 -2 5t-5 2t-5 -2t-2 -5v-31h-97q-8 0 -13.5 -6t-5.5 -14v-68q0 -8 5.5 -13.5t13.5 -5.5h97v-92q0 -3 2 -5t5 -2t5.5 2t2.5 5v92h96q8 0 13.5 5.5t5.5 13.5v68 q0 8 -5.5 13.5t-13.5 5.5zM237 124q0 -2 -1.5 -4t-3.5 -2h-208q-2 0 -3.5 2t-1.5 4v68q0 2 1.5 4t3.5 2h208q2 0 3.5 -1.5t1.5 -4.5v-68z" />
</svg>