<svg viewBox="0 0 1024 1024" xmlns="http://www.w3.org/2000/svg">
  <path transform="scale(1, -1) translate(0, -960)" fill="currentColor" d="M306 886q-54 0 -101 -19q-48 -19 -85 -52t-60 -79t-28 -99v-610q0 -7 4.5 -11.5t11.5 -4.5t11.5 4.5t4.5 11.5v37h483v-37q0 -7 4.5 -11.5t11.5 -4.5t11.5 4.5t4.5 11.5v611q-5 53 -28 99q-23 45 -60 78t-84 52q-48 19 -101 19v0zM306 854q44 0 84 -15t72 -42t53 -64 q22 -37 29 -80h-477q7 42 29 79q21 37 53 64t72 43q40 15 85 15zM362 402h-112v92h112v-92zM250 526v93h112v-93h-112v0zM64 621h154v-291q0 -8 4 -12t12 -4q7 0 11.5 4t4.5 12v41h112v-41q0 -8 4 -12t12 -4q7 0 11.5 4t4.5 12v291h153v-525h-483v525v0zM992 338 q-5 56 -47.5 94t-99.5 38q-58 0 -99.5 -38t-47.5 -96v-309q0 -7 4 -11.5t12 -4.5q7 0 11.5 4.5t4.5 11.5v11q2 0 3.5 -0.5t4.5 -0.5h212h4.5t3.5 1v-11q0 -7 4.5 -11.5t11.5 -4.5q8 0 12 4.5t4 11.5v53l2 258v0zM845 438q39 0 70.5 -24.5t41.5 -61.5h-223q10 37 40.5 61.5 t70.5 24.5zM952 69h-213q-3 0 -5.5 2t-2.5 6v3v0v0v240h229v-242q0 -4 -2 -6.5t-6 -2.5z" />
</svg>