<svg viewBox="0 0 256 256" xmlns="http://www.w3.org/2000/svg">
  <path transform="scale(1, -1) translate(0, -256)" fill="currentColor" d="M76 240q-18 0 -33.5 -8.5t-25.5 -23t-12 -32.5v-154q0 -3 2 -5t5 -2t5.5 2t2.5 5v6h114v-6q0 -3 2.5 -5t5.5 -2t5 2t2 5v154q-4 28 -24.5 46t-48.5 18zM76 226q20 0 36 -12.5t20 -31.5h-112q5 19 20.5 31.5t35.5 12.5zM88 119h-22v17h22v-17zM66 151v17h22v-17h-22z M19 168h33v-70q0 -3 2 -5.5t5 -2.5t5 2.5t2 5.5v7h22v-7q0 -3 2 -5.5t5 -2.5t5 2.5t2 5.5v70h33v-125h-116v125zM251 100q-2 16 -13 26t-26.5 10t-27 -10t-12.5 -26v-78q0 -3 2 -5t5 -2t5 2t2 5h51q0 -3 2 -5t5 -2t5 2t2 5v78zM211 122q8 0 14.5 -4t9.5 -11h-47q3 7 9 11 t14 4zM186 93h51v-57h-51v57z" />
</svg>