<svg viewBox="0 0 256 256" xmlns="http://www.w3.org/2000/svg">
  <path transform="scale(1, -1) translate(0, -256)" fill="currentColor" d="M64 251q-14 0 -25 -11.5t-17.5 -29t-6.5 -35.5q0 -13 9.5 -22.5t23.5 -9.5h10v-131q0 -3 2 -5t5 -2t5 2t2 5v132h7q14 0 23.5 9t9.5 23q0 18 -6.5 35.5t-17.5 28.5t-24 11zM79 158h-31q-8 0 -13.5 5t-5.5 13q0 14 5 28.5t13 23.5t16.5 9t16.5 -9t13 -23.5t5 -29.5 q0 -7 -5.5 -12t-13.5 -5zM234 248q-3 0 -5 -2t-2 -5v-62q0 -10 -7 -17.5t-18 -7.5v87q0 3 -2 5t-5 2t-5 -2t-2 -5v-87q-10 1 -17 8t-7 17v62q0 3 -2.5 5t-5.5 2t-5 -2t-2 -5v-62q0 -16 11.5 -27t27.5 -12v-128q0 -3 2 -5t5 -2t5 2t2 5v128q16 1 27 12t11 27v62q1 3 -1 5 t-5 2z" />
</svg>