<svg viewBox="0 0 1024 1024" xmlns="http://www.w3.org/2000/svg">
  <path transform="scale(1, -1) translate(0, -960)" fill="currentColor" d="M254 928q-38 0 -71 -27q-34 -26 -58.5 -68t-38.5 -94t-14 -102q0 -47 35.5 -80.5t86.5 -33.5h49v-539q0 -7 4.5 -11.5t11.5 -4.5t11.5 4.5t4.5 11.5v538h40q51 0 86.5 33.5t35.5 81.5q0 50 -14 102t-39 94t-58 68q-33 27 -72 27v0zM315 554h-123q-37 0 -63.5 24t-26.5 59 q1 44 13 90t32.5 83.5t48.5 61.5q27 24 58 24q32 0 59 -24t47.5 -61.5t32.5 -83.5t12 -90q0 -35 -26.5 -59t-63.5 -24v0zM936 917q-7 0 -11.5 -4.5t-4.5 -11.5v-248q0 -47 -34.5 -80.5t-83.5 -33.5h-4v362q0 7 -4 11.5t-12 4.5q-7 0 -11.5 -4.5t-4.5 -11.5v-363h-3 q-49 0 -83.5 33t-34.5 80v250q0 7 -4.5 11.5t-11.5 4.5t-11.5 -4.5t-4.5 -11.5v-248q0 -60 44 -103t106 -43h3v-523q0 -7 4.5 -11.5t11.5 -4.5q8 0 12 4.5t4 11.5v522h4q62 0 106 42.5t44 102.5v250q0 6 -4.5 11t-11.5 5v0z" />
</svg>