<svg viewBox="0 0 256 256" xmlns="http://www.w3.org/2000/svg">
  <path transform="scale(1, -1) translate(0, -256)" fill="currentColor" d="M188 251h-80q-11 0 -18 -8l-40 -40q-7 -7 -7 -18v-155q0 -11 7 -18t18 -7h120q10 0 17 7t7 18v196q1 10 -6.5 17.5t-17.5 7.5zM199 30q0 -4 -3.5 -7.5t-7.5 -3.5h-120q-4 0 -7.5 3.5t-3.5 7.5v156q0 4 3 7l40 41q3 3 8 3h80q5 0 8 -3t3 -8v-196zM154 161h-52 q-8 0 -13.5 -5.5t-5.5 -13.5v-76q0 -8 5.5 -14t13.5 -6h52q7 0 13 6t6 14v76q0 8 -5.5 13.5t-13.5 5.5zM159 142v-31h-24v36h19q2 0 3.5 -1.5t1.5 -3.5zM102 147h19v-36h-24v31q0 2 1.5 3.5t3.5 1.5zM97 66v31h24v-36h-19q-2 0 -3.5 1.5t-1.5 3.5zM154 61h-19v36h24v-31 q0 -2 -1.5 -3.5t-3.5 -1.5z" />
</svg>