<svg viewBox="0 0 1024 1024" xmlns="http://www.w3.org/2000/svg">
  <path transform="scale(1, -1) translate(0, -960)" fill="currentColor" d="M752 928h-322q-18 0 -34 -7t-28 -19l-160 -161q-12 -12 -19 -28t-7 -33v-622q0 -36 26 -62t62 -26h480q36 0 62 26t26 62v784q2 34 -24 60t-62 26zM808 56q0 -23 -16.5 -39.5t-39.5 -16.5h-480q-23 0 -39.5 16.5t-16.5 39.5v622q0 11 4.5 21.5t11.5 17.5l160 163 q8 8 18.5 12t21.5 4h320q23 0 39.5 -16.5t16.5 -39.5v-784zM616 568h-208q-26 0 -45 -19t-19 -45v-306q0 -26 19 -45t45 -19h206q27 0 45.5 19t18.5 45v306q2 28 -17 46t-45 18zM648 504v-136h-120v165v2t-2 3h88q15 -2 24.5 -11t9.5 -23zM408 536h88q0 -1 -1 -2.5t-1 -2.5 v-163h-120v136q2 14 11.5 23t22.5 9zM376 200v136h120v-168h-88q-13 0 -22.5 9.5t-9.5 22.5zM616 168h-88v168h120v-136q0 -13 -9.5 -22.5t-22.5 -9.5z" />
</svg>