<svg viewBox="0 0 1024 1024" xmlns="http://www.w3.org/2000/svg">
  <path transform="scale(1, -1) translate(0, -960)" fill="currentColor" d="M976 464h-168q1 25 6 77q5 51 17 109t32 111q20 54 52 81q13 12 28 16t31 1q6 -1 12 3t6 12q1 6 -3 11.5t-11 5.5q-23 4 -44.5 -3t-40.5 -22q-36 -31 -59 -88q-22 -58 -35 -119.5t-18 -115.5t-7 -79h-528q3 61 13 130q9 70 24.5 130t38.5 100q22 39 52 40v0v0q12 0 23 -5 t21 -14q25 -26 39 -74q13 -47 19 -94.5t7 -82.5v-36q0 -7 4.5 -11.5t11.5 -4.5q6 0 11 4.5t5 11.5q0 4 -1 42t-7.5 88t-22.5 101q-15 50 -44 80q-13 13 -29.5 20t-34.5 7v0v0q-49 0 -79 -55q-30 -56 -47.5 -128.5t-24.5 -144.5t-9 -104h-168q-7 0 -11.5 -4.5t-4.5 -11.5 t4.5 -11.5t11.5 -4.5h448q1 -32 8 -104q6 -71 23.5 -144t48.5 -129q31 -55 82 -55v0v0q19 0 36.5 7.5t31.5 22.5q30 30 45 81t21 100.5t6 86.5v41q0 7 -5 11.5t-11 4.5q-7 0 -11.5 -5t-4.5 -11v-35t-5.5 -81.5t-18.5 -94.5t-38 -75q-10 -11 -21.5 -16t-24.5 -5v0v0 q-32 0 -55 40t-39 99.5t-25 129.5t-11 131h448q7 0 11.5 4.5t4.5 11.5t-4.5 11.5t-11.5 4.5v0zM230 355q-7 0 -11.5 -4.5t-4.5 -11.5l-1 -33q-2 -33 -10 -78t-24 -92q-17 -46 -48 -74q-17 -15 -37 -21.5t-44 -3.5q-6 1 -11.5 -3t-6.5 -12q-1 -6 3 -11t11 -6q5 0 9 -1t7 -1 q26 0 48.5 8.5t41.5 26.5q35 32 54 81q19 50 28 97.5t11 83.5q1 36 1 39q0 7 -4 11.5t-12 4.5z" />
</svg>