<svg viewBox="0 0 256 256" xmlns="http://www.w3.org/2000/svg">
  <path transform="scale(1, -1) translate(0, -256)" fill="currentColor" d="M244 135h-39q2 27 7 49q7 31 19 40q6 5 12 4q3 0 5.5 1.5t2.5 4.5t-1.5 5.5t-4.5 2.5q-13 2 -23 -7q-16 -13 -24 -49q-5 -23 -7 -50h-126q2 35 9 62q9 31 20 32q5 0 9 -4q9 -9 13 -35q3 -18 2 -35q0 -3 2 -5t5 -2t5 2t2 5v0q0 19 -2 35q-5 32 -17 44q-8 8 -19 8 q-21 0 -33 -43q-7 -27 -9 -65h-40q-3 0 -5 -2t-2 -5t2 -5t5 -2h109q2 -37 9 -65q12 -43 35 -43q11 0 19 8q13 13 17 46q3 19 2 34q0 3 -2 5t-5 2t-5 -2.5t-2 -5.5q0 -16 -2 -34q-4 -26 -13 -35q-4 -4 -9 -4q-12 0 -20 32q-8 27 -9 62h108q3 0 5 2t2 5t-2 5t-5 2zM58 108 q-3 0 -5.5 -2t-2.5 -5q0 -16 -3 -33q-6 -25 -17 -34q-8 -7 -18 -6q-3 0 -5 -1.5t-2 -4.5t1.5 -5.5t4.5 -2.5h5q14 0 24 9q15 14 21 46q3 17 3 32q1 3 -1 5t-5 2z" />
</svg>