<svg viewBox="0 0 1024 1024" xmlns="http://www.w3.org/2000/svg">
  <path transform="scale(1, -1) translate(0, -960)" fill="currentColor" d="M976 928q-7 0 -11.5 -4.5t-4.5 -11.5v-32h-691v32q0 7 -4.5 11.5t-11.5 4.5t-11.5 -4.5t-4.5 -11.5v-96q0 -7 4.5 -11.5t11.5 -4.5t11.5 4.5t4.5 11.5v32h691v-32q0 -7 4.5 -11.5t11.5 -4.5t11.5 4.5t4.5 11.5v96q0 7 -4.5 11.5t-11.5 4.5zM912 725h-589 q-33 0 -56.5 -23.5t-23.5 -56.5v-597q0 -34 23.5 -57t56.5 -23h589q34 0 57 23t23 57v597q0 32 -23 56t-57 24zM960 48q0 -20 -14 -34t-34 -14h-589q-20 0 -34 14t-14 34v597q0 20 14 34t34 14h589q20 0 34 -14t14 -34v-597zM144 691q7 0 11.5 4.5t4.5 11.5t-4.5 11.5 t-11.5 4.5h-96q-7 0 -11.5 -4.5t-4.5 -11.5t4.5 -11.5t11.5 -4.5h32v-691h-32q-7 0 -11.5 -4.5t-4.5 -11.5t4.5 -11.5t11.5 -4.5h96q7 0 11.5 4.5t4.5 11.5t-4.5 11.5t-11.5 4.5h-32v691h32z" />
</svg>