<svg viewBox="0 0 256 256" xmlns="http://www.w3.org/2000/svg">
  <path transform="scale(1, -1) translate(0, -256)" fill="currentColor" d="M232 202h-187q-8 0 -13.5 -5.5t-5.5 -13.5v-14h-14q-3 0 -5 -2t-2 -5t2 -5t5 -2h14v-22h-14q-3 0 -5 -2t-2 -5t2 -5t5 -2h14v-22h-14q-3 0 -5 -2t-2 -5t2 -5t5 -2h14v-10q0 -8 6 -13.5t14 -5.5h186q8 0 13.5 5.5t5.5 13.5v110q0 8 -5.5 13.5t-13.5 5.5zM237 73 q0 -2 -1.5 -3.5t-3.5 -1.5h-187q-2 0 -3.5 1.5t-1.5 3.5v10h8q3 0 5 2t2 5t-2 5.5t-5 2.5h-8v21h8q3 0 5 2t2 5t-2 5.5t-5 2.5h-8v21h8q3 0 5 2t2 5t-2 5.5t-5 2.5h-8v14q0 2 1.5 3.5t3.5 1.5h187q2 0 3.5 -1.5t1.5 -3.5v-111z" />
</svg>