<svg viewBox="0 0 1024 1024" xmlns="http://www.w3.org/2000/svg">
  <path transform="scale(1, -1) translate(0, -960)" fill="currentColor" d="M928 733h-747q-27 0 -45.5 -19t-18.5 -45v-69h-69q-7 0 -11.5 -4.5t-4.5 -11.5t4.5 -11.5t11.5 -4.5h69v-110h-69q-7 0 -11.5 -4.5t-4.5 -11.5q0 -8 4.5 -12t11.5 -4h69v-111h-69q-7 0 -11.5 -4.5t-4.5 -11.5t4.5 -11.5t11.5 -4.5h69v-54q0 -27 18.5 -45.5t45.5 -18.5 h747q26 0 45 18.5t19 45.5v440q0 26 -19 45t-45 19v0zM960 227q0 -13 -9.5 -22.5t-22.5 -9.5h-747q-13 0 -22.5 9.5t-9.5 22.5v55h41q8 0 12 4t4 12q0 7 -4 11.5t-12 4.5h-41v110h41q8 0 12 4.5t4 11.5t-4 11.5t-12 4.5h-41v110h41q8 0 12 4.5t4 11.5q0 8 -4 12t-12 4h-41 v69q0 13 9.5 22.5t22.5 9.5h747q13 0 22.5 -9.5t9.5 -22.5v-440z" />
</svg>