<svg viewBox="0 0 1024 1024" xmlns="http://www.w3.org/2000/svg">
  <path transform="scale(1, -1) translate(0, -960)" fill="currentColor" d="M886 253h-115q-38 0 -67.5 -24.5t-36.5 -60.5h-365q-54 0 -92.5 38.5t-38.5 92.5t38.5 92.5t92.5 38.5h420q67 0 115 48t48 116q0 67 -48 115t-115 48h-362v21q0 43 -31 74t-75 31h-116q-44 3 -75 -28t-31 -76v-30q0 -43 31 -74.5t75 -31.5h115q38 0 67.5 24.5t36.5 60.5 h365q54 0 92.5 -38.5t38.5 -92.5t-38.5 -93.5t-92.5 -39.5h-420q-67 0 -115 -48t-48 -115t48 -115t115 -48h364v-21q0 -43 31 -74.5t74 -31.5h115q44 0 75 31.5t31 74.5v30q0 43 -31 74.5t-75 31.5v0zM326 749q0 -30 -21.5 -52t-51.5 -22h-115q-30 0 -52 22t-22 52v30 q0 30 22 52t52 22h115q30 0 51.5 -22t21.5 -52v-30v0zM960 117q0 -30 -22 -52t-52 -22h-115q-30 0 -51.5 22t-21.5 52v30q0 30 21.5 52t51.5 22h115q30 0 52 -22t22 -52v-30z" />
</svg>