<svg viewBox="0 0 1024 1024" xmlns="http://www.w3.org/2000/svg">
  <path transform="scale(1, -1) translate(0, -960)" fill="currentColor" d="M990 179l-171 440v179q0 27 -18.5 45.5t-45.5 18.5h-486q-27 0 -45.5 -18.5t-18.5 -45.5v-179l-171 -440q-3 -6 -1 -11.5t7 -7.5q53 -31 110 -55q57 -23 117 -39t121 -24q62 -8 124 -8t124 8q61 8 121 24t117 39q57 24 110 55q5 2 7 7.5t-1 11.5v0zM862 418q-38 2 -77 4 t-78 0q-36 0 -77 -3.5t-78 -20.5q-16 -7 -30.5 -16t-28.5 -19q-11 -7 -21 -13t-21 -12q-27 -15 -57 -22t-60 -7h-9h-8q-15 1 -29 0.5t-29 -3.5q-17 -4 -32 -12.5t-29 -16.5l-123 -79l157 400h560l70 -180v0zM269 830h485q13 0 22.5 -9t9.5 -23v-166h-549v166q0 14 9.5 23 t22.5 9v0zM512 66q-56 0 -111 6q-55 7 -108.5 20.5t-104.5 33.5q-51 19 -100 45l1 0.5t1 1.5l126 80q12 7 24 14.5t26 10.5q10 3 22 3t26 -1h9h10q35 0 68 7.5t65 24.5q12 6 23 13t21 14q14 10 27 18t28 14q33 15 69.5 19t72.5 4q42 0 84 -1.5t84 -5.5l80 -205 q-50 -28 -104 -50t-110 -36.5t-113 -22.5q-58 -7 -116 -7v0z" />
</svg>