<svg viewBox="0 0 256 256" xmlns="http://www.w3.org/2000/svg">
  <path transform="scale(1, -1) translate(0, -256)" fill="currentColor" d="M251 56l-40 128v48q0 7 -5.5 13t-13.5 6h-128q-8 0 -14 -5.5t-6 -13.5v-48l-39 -127q-1 -5 2 -7l21 -19q14 -11 31 -11h20q7 0 14 -4l15 -6q10 -5 19.5 -5t19.5 5l15 6q6 3 14 4h20q18 0 31 11l21 18q4 3 3 7zM64 237h128q2 0 3.5 -1.5t1.5 -3.5v-42h-138v42q0 2 1.5 3.5 t3.5 1.5zM218 42q-9 -8 -22 -8h-20q-10 0 -20 -5l-15 -7q-14 -6 -27 0l-16 7q-9 5 -19 5h-20q-13 0 -22 8l-17 15l37 119h142l37 -119z" />
</svg>