<svg viewBox="0 0 256 256" xmlns="http://www.w3.org/2000/svg">
  <path transform="scale(1, -1) translate(0, -256)" fill="currentColor" d="M250 62l-42 109v45q0 7 -6 13t-14 6h-121q-8 0 -13.5 -5.5t-5.5 -13.5v-45l-42 -109q-1 -2 -0.5 -4.5t3.5 -4.5q27 -15 57.5 -23.5t62 -8.5t62 8.5t57.5 23.5q2 2 2.5 4.5t-0.5 4.5zM211 124q-17 1 -34 1q-12 0 -20 -1q-11 -1 -20 -5q-6 -3 -15 -9l-11 -6q-13 -7 -28 -7 h-4q-9 1 -15 -0.5t-15 -7.5l-25 -15l36 89h136zM67 221h121q2 0 4 -1.5t2 -3.5v-39h-132v39q0 2 1.5 3.5t3.5 1.5zM128 35q-53 0 -100 24l29 18q7 4 10 5t8 1h8q19 0 35 8q3 2 8 5l3 2q9 6 13 8q7 3 17 4q7 1 18 1q22 0 40 -1l18 -47q-50 -28 -107 -28z" />
</svg>