<svg viewBox="0 0 1024 1024" xmlns="http://www.w3.org/2000/svg">
  <path transform="scale(1, -1) translate(0, -960)" fill="currentColor" d="M992 158l-158 514v192q0 26 -19 45t-45 19h-516q-26 0 -45 -19t-19 -45v-192l-158 -512q-1 -5 0 -9.5t5 -8.5l85 -73q24 -21 53 -32t62 -11h80q15 0 30.5 -3.5t28.5 -9.5l61 -27q18 -9 36 -12.5t37 -3.5q20 0 38 3.5t36 12.5l61 27q14 6 29.5 9.5t29.5 3.5h82 q31 0 60 10.5t53 30.5l85 72q6 5 7.5 10t0.5 9zM254 894h514q13 0 22.5 -9t9.5 -23v-177h-578v177q0 14 9.5 23t22.5 9v0zM880 93q-19 -17 -43.5 -26t-49.5 -9h-81q-20 0 -38 -4.5t-36 -11.5l-61 -28q-29 -13 -60 -13t-60 13l-61 28q-16 8 -35 12t-38 4h-80q-27 0 -50.5 9 t-44.5 26l-76 67l152 493h585l152 -495l-75 -65v0z" />
</svg>