<svg viewBox="0 0 1024 1024" xmlns="http://www.w3.org/2000/svg">
  <path transform="scale(1, -1) translate(0, -960)" fill="currentColor" d="M512 882q-99 0 -186 -31q-88 -31 -153 -83.5t-103 -122.5q-38 -71 -38 -151q0 -44 13 -87q12 -43 36 -82.5t58 -74.5q35 -34 79 -61v-93q0 -34 24 -58t57 -24h424q34 0 58 24t24 58v91q44 28 79 63q35 34 59 74t36 83q13 43 13 87q0 80 -38 151q-38 70 -103 122.5 t-153 83.5q-87 31 -186 31zM782 211q-3 -2 -5.5 -5.5t-2.5 -8.5v-101q0 -20 -14.5 -35t-34.5 -15h-75v87q0 7 -4.5 11.5t-11.5 4.5q-8 0 -12 -4.5t-4 -11.5v-87h-90v87q0 7 -4.5 11.5t-11.5 4.5t-11.5 -4.5t-4.5 -11.5v-87h-90v87q0 7 -4 11.5t-12 4.5q-7 0 -11.5 -4.5 t-4.5 -11.5v-87h-75q-20 0 -34.5 15t-14.5 35v101q0 5 -2.5 8.5t-5.5 5.5q-42 25 -75 57t-56 68.5t-35 76.5t-12 81q0 74 35 138q36 65 96.5 113t142.5 77q82 28 174 28t174 -28q81 -28 142 -76.5t97 -113.5q35 -64 35 -138q0 -41 -12 -81t-35 -76.5t-56 -68.5t-75 -57v0z M714 666q-45 0 -77 -32.5t-32 -76.5q0 -45 32 -77t77 -32v0q44 0 76 32t32 77q0 44 -32 76.5t-76 32.5zM714 480q-32 0 -54.5 23t-22.5 54t22.5 54t54.5 23q31 0 53.5 -23t22.5 -54q0 -33 -22.5 -55t-53.5 -22zM310 666q-44 0 -76 -32.5t-32 -76.5q0 -45 32 -77t76 -32v0v0 q45 0 77 32t32 77q0 44 -31.5 76.5t-77.5 32.5zM310 480q-31 0 -53.5 23t-22.5 54t22.5 54t53.5 23q32 0 54.5 -23t22.5 -54q0 -33 -22 -55t-55 -22zM515 400q-7 0 -11.5 -4.5t-4.5 -11.5v-74q0 -7 4.5 -11.5t11.5 -4.5t11.5 4.5t4.5 11.5v74q0 6 -4.5 11t-11.5 5z" />
</svg>