<svg viewBox="0 0 256 256" xmlns="http://www.w3.org/2000/svg">
  <path transform="scale(1, -1) translate(0, -256)" fill="currentColor" d="M128 240q-33 0 -61.5 -13.5t-45 -36.5t-16.5 -50q0 -23 12 -43.5t34 -34.5v-22q0 -10 7 -17t17 -7h106q10 0 16.5 7t6.5 17v21q22 14 34.5 34.5t12.5 43.5q0 28 -16.5 51t-45 36.5t-61.5 13.5zM194 71q-3 -2 -3 -6v-25q0 -4 -3 -7t-7 -3h-15v19q0 3 -2.5 5t-5.5 2t-5 -2 t-2 -5v-19h-16v19q0 3 -2 5t-5 2t-5.5 -2t-2.5 -5v-19h-16v19q0 3 -2 5t-5 2t-5 -2t-2 -5v-19h-16q-4 0 -7 3t-3 7v25q0 4 -3 6q-20 12 -31.5 30.5t-11.5 38.5q1 23 15.5 42.5t40 31.5t55 12t54.5 -12t39.5 -31.5t14.5 -42.5q0 -20 -11.5 -38t-31.5 -31zM178 185 q-12 0 -21 -9t-9 -21.5t9 -21t21.5 -8.5t21 8.5t8.5 21t-8.5 21.5t-21.5 9zM178 139q-6 0 -11 4.5t-5 11t5 11.5t11.5 5t11 -4.5t4.5 -11.5t-4.5 -11.5t-11.5 -4.5zM78 185q-13 0 -21.5 -9t-8.5 -21.5t8.5 -21t21 -8.5t21.5 8.5t9 21t-9 21.5t-21 9zM78 139q-7 0 -11.5 4.5 t-4.5 11t4.5 11.5t11 5t11.5 -4.5t5 -11.5t-4.5 -11.5t-11.5 -4.5zM129 119q-3 0 -5 -2t-2 -5v-19q0 -3 2 -5t5 -2t5 2t2 5v19q0 3 -2 5t-5 2z" />
</svg>