<svg viewBox="0 0 256 256" xmlns="http://www.w3.org/2000/svg">
  <path transform="scale(1, -1) translate(0, -256)" fill="currentColor" d="M12 127q0 1 1 4q0 8 1 11t-1 7q-13 22 -7 50q7 30 34 44q34 18 68 -1v0q3 -1 5 0q45 5 80 -19q38 -25 48 -70q4 -17 1 -40q0 -2 1 -5q14 -24 7 -51q-8 -30 -35 -44q-34 -19 -67 0h-1q-3 1 -5 1q-26 -4 -52 5q-33 11 -56 41q-17 25 -20 49q-1 5 -1 13zM128 53q5 0 13 2 l7 1q13 2 25 10q19 15 16 39q-2 17 -15 25q-6 5 -15.5 8t-28.5 7l-8 3q-11 2 -18 6q-5 3 -6 8t2 9.5t10 7.5t20 2.5t19 -12.5q3 -6 6 -9.5t6 -5.5q5 -2 11 0.5t8 7.5q3 8 -3 17q-8 13 -23 18q-13 5 -28 5q-21 0 -38 -7q-20 -10 -22 -30.5t15 -31.5q9 -7 23 -10.5t26 -5.5 l2 -1q11 -3 15 -5q8 -5 8.5 -13t-6 -13.5t-17 -7t-21 1t-17.5 14.5q-2 5 -6.5 11.5t-14 5t-10.5 -9.5t1 -13q6 -16 24 -25q10 -5 21 -7q7 -2 19 -2z" />
</svg>