<svg viewBox="0 0 256 256" xmlns="http://www.w3.org/2000/svg">
  <path transform="scale(1, -1) translate(0, -256)" fill="currentColor" d="M81 202h18q3 0 5 2t2 5v18q0 10 -5.5 17.5t-14.5 9.5q-7 2 -13.5 0t-11.5 -7t-6.5 -11.5t0 -14.5t9 -13.5t17.5 -5.5zM71 237q4 4 9 4l3 -1q4 0 6.5 -4t2.5 -9v-11h-11q-5 0 -9 2.5t-4 6.5q-2 7 3 12zM39 125h45q14 0 23.5 10t9.5 24t-10 23.5t-23 9.5h-45 q-14 0 -24 -9.5t-10 -23.5t10 -24t24 -10zM39 178h45q8 0 13.5 -5.5t5.5 -13.5t-5.5 -14t-13.5 -6h-45q-8 0 -14 6t-6 14t5.5 13.5t14.5 5.5zM158 142q14 0 23.5 9.5t9.5 24.5v45q0 14 -9.5 24t-23.5 10t-23.5 -10t-9.5 -24v-45q0 -14 9.5 -24t23.5 -10zM139 221q0 8 5.5 14 t13.5 6t13.5 -6t5.5 -14v-45q0 -8 -5.5 -14t-13.5 -6t-13.5 6t-5.5 14v45zM214 133h-34q-14 0 -24 -9.5t-10 -23t10 -23t24 -9.5h34q14 0 24 9.5t10 23t-10 23t-24 9.5zM214 81h-34q-8 0 -14 5.5t-6 13.5t6 13.5t14 5.5h34q8 0 14 -5.5t6 -13.5t-6 -13.5t-14 -5.5zM104 108 q-13 0 -22 -9.5t-9 -23.5v-35q0 -13 9 -23t22 -10t22.5 10t9.5 23v36q0 13 -9 22.5t-23 9.5zM122 40q0 -8 -5 -13.5t-12 -5.5t-12.5 5.5t-5.5 13.5v36q0 7 5.5 12.5t12.5 5.5t12 -5.5t5 -12.5v-36zM244 191q-5 5 -11.5 7t-13.5 0t-13 -9.5t-6 -16.5v-18q0 -3 2.5 -4.5 t5.5 -1.5h17q9 0 16.5 5.5t9 13t-0.5 13.5t-6 11zM237 170q-1 -4 -4.5 -6.5t-7.5 -2.5h-11v11q0 4 2.5 7.5t6.5 4.5q7 1 11 -3t3 -11zM51 112h-17q-10 0 -17 -6t-9 -13.5t0 -14t7 -10.5q7 -7 18 -7l6 1q8 2 13.5 9t5.5 17v17q0 3 -2 5t-5 2zM44 87q0 -4 -2.5 -7.5t-6.5 -4.5 q-7 -2 -11 2.5t-3 11.5q1 4 4.5 6.5t7.5 2.5h10v-11h1zM176 52h-18q-3 0 -5 -2t-2 -5v-17q0 -10 5.5 -17t14.5 -9l6 -1q11 0 18 7q5 5 6.5 11t0.5 13q-2 9 -9.5 14.5t-16.5 5.5zM184 18q-4 -4 -10 -3q-4 1 -6.5 4.5t-2.5 8.5v10h10q5 0 8 -2.5t4 -6.5q2 -6 -3 -11z" />
</svg>