<svg viewBox="0 0 1024 1024" xmlns="http://www.w3.org/2000/svg">
  <path transform="scale(1, -1) translate(0, -960)" fill="currentColor" d="M323 754h74q7 0 11.5 4t4.5 12v75q0 35 -20.5 62t-51.5 34q-24 6 -47 -0.5t-41 -23.5t-24.5 -41t-1.5 -49q9 -32 36 -52.5t60 -20.5v0zM277 893q8 8 19.5 12.5t23.5 4.5h7.5t6.5 -1q21 -5 34 -23.5t13 -42.5v-57h-58q-23 0 -41 13t-23 35q-3 16 1.5 31.5t16.5 27.5v0z M155 450h179q51 0 87.5 35.5t36.5 87.5q0 50 -36.5 86.5t-87.5 36.5h-179q-50 0 -86.5 -36t-36.5 -87q0 -52 36 -87.5t87 -35.5zM155 662h179q38 0 65 -26t27 -65q0 -37 -27 -64t-65 -27h-179q-37 0 -64 26.5t-27 64.5q0 37 26.5 64t64.5 27zM754 640v179q0 52 -36 88.5 t-86 36.5t-86 -36.5t-36 -88.5v-179q0 -52 36 -88.5t86 -36.5t86 36.5t36 88.5zM542 640v179q0 39 26.5 66t63.5 27t63.5 -27t26.5 -66v-179q0 -38 -26.5 -65.5t-63.5 -27.5t-63.5 27.5t-26.5 65.5zM858 456h-140q-50 0 -85 -35.5t-35 -84.5t35.5 -84.5t84.5 -35.5h140 q50 0 85 35.5t35 84.5t-35.5 84.5t-84.5 35.5v0zM858 250h-140q-37 0 -62.5 26t-25.5 62t26 62t62 26h140q37 0 62.5 -26t25.5 -62t-26 -62t-62 -26v0zM418 357q-48 0 -82 -34.5t-34 -84.5v-142q0 -49 34 -83.5t82 -34.5t81.5 34.5t33.5 83.5v142q0 50 -33.5 84.5 t-81.5 34.5v0zM501 96q0 -36 -24.5 -61t-58.5 -25q-35 0 -59.5 25t-24.5 61v142q0 36 24.5 61.5t59.5 25.5q34 0 58.5 -25.5t24.5 -61.5v-142zM966 693q-16 17 -38 23t-45 1q-30 -7 -49.5 -33t-19.5 -60v-70q0 -8 4.5 -12t11.5 -4h69q33 0 58.5 19t32.5 49q5 24 -1 47 t-23 40v0zM958 614q-4 -19 -21 -31.5t-39 -12.5h-53v54q0 22 12.5 39t32.5 22q14 3 28.5 -1t25.5 -14q11 -12 14.5 -26.5t-0.5 -29.5zM203 371h-69q-32 0 -58 -19.5t-33 -49.5q-5 -22 1 -45t23 -39q13 -14 29.5 -20t33.5 -6h10t10 2v0v0q30 7 49.5 33t19.5 59v71 q0 5 -4.5 9.5t-11.5 4.5zM187 285q0 -22 -12.5 -39t-32.5 -22q-14 -4 -28.5 0.5t-25.5 15.5t-15.5 25.5t-0.5 30.5q6 18 23 30.5t39 12.5h53v-54v0zM702 133h-68q-8 0 -12 -4.5t-4 -11.5v-71q0 -33 19 -59t49 -33q5 -2 10.5 -2h10.5q18 0 34.5 7t28.5 19q16 16 23 39t1 45 q-8 32 -33.5 51.5t-58.5 19.5v0zM746 0q-11 -11 -25 -14.5t-30 0.5q-19 4 -32 21.5t-13 38.5v55h53q22 0 39 -13t22 -32q5 -16 0.5 -30.5t-14.5 -25.5z" />
</svg>