<svg viewBox="0 0 256 256" xmlns="http://www.w3.org/2000/svg">
  <path transform="scale(1, -1) translate(0, -256)" fill="currentColor" d="M95 121q-10 0 -18 -7.5t-8 -18.5v-65q0 -10 8 -18t18.5 -8t18 8t7.5 18v65q0 11 -7.5 18.5t-18.5 7.5zM4 95q0 -10 8 -18t18.5 -8t18 8t7.5 18v26h-26q-11 0 -18.5 -7.5t-7.5 -18.5zM95 252q-10 0 -18 -7.5t-8 -18t8 -18.5t18 -8h26v26q0 11 -7.5 18.5t-18.5 7.5zM30 135 h65q11 0 18.5 7.5t7.5 18t-7.5 18.5t-18.5 8h-65q-10 0 -18 -8t-8 -18.5t7.5 -18t18.5 -7.5zM226 187q-11 0 -18.5 -8t-7.5 -18v-26h26q10 0 18 7.5t8 18t-8 18.5t-18 8zM135 226v-65q0 -11 7.5 -18.5t18 -7.5t18.5 7.5t8 18.5v65q0 11 -8 18.5t-18.5 7.5t-18 -7.5 t-7.5 -18.5zM187 30q0 11 -8 18.5t-18 7.5h-26v-26q0 -10 7.5 -18t18 -8t18.5 8t8 18zM226 121h-65q-11 0 -18.5 -7.5t-7.5 -18t7.5 -18.5t18.5 -8h65q11 0 18.5 8t7.5 18.5t-7.5 18t-18.5 7.5z" />
</svg>