<svg viewBox="0 0 1024 1024" xmlns="http://www.w3.org/2000/svg">
  <path transform="scale(1, -1) translate(0, -960)" fill="currentColor" d="M381 421q-42 0 -73 -31t-31 -73v-259q0 -42 31 -73t73 -31t73 31t31 73v259q0 44 -30 74t-74 30v0zM16 317q0 -42 31 -73t73 -31t73 31t31 73v104h-102q-44 0 -75 -30t-31 -74zM381 944v0q-42 0 -73 -31t-31 -73t31 -73t73 -31h104v52v52q0 42 -30 73t-74 31zM120 475 h261q42 0 73 31t31 73t-31 73t-73 31h-261q-42 0 -73 -31t-31 -73t30 -73t74 -31v0zM902 683q-42 0 -73 -31t-31 -73v0v-104h104q42 0 73 31t31 73t-30 73t-74 31v0zM539 840v-261q0 -42 31 -73t73 -31t73 31t31 73v261q0 42 -31 73t-73 31q-44 0 -74 -31t-30 -73v0zM747 56 q0 42 -31 73t-73 31h-104v-104q0 -42 31 -73t73 -31t73 31t31 73v0zM904 421h-261q-42 0 -73 -31t-31 -73t31 -73t73 -31h261q42 0 73 31t31 73q0 44 -31 74t-73 30z" />
</svg>