<svg viewBox="0 0 256 256" xmlns="http://www.w3.org/2000/svg">
  <path transform="scale(1, -1) translate(0, -256)" fill="currentColor" d="M128 114q-16 0 -27.5 -11.5t-11.5 -27.5t11.5 -27.5t27.5 -11.5t27.5 11.5t11.5 27.5t-11.5 27.5t-27.5 11.5zM128 51q-10 0 -17.5 7t-7.5 17.5t7.5 17.5t17.5 7t17.5 -7.5t7.5 -17.5t-7.5 -17t-17.5 -7zM128 251q-33 0 -61.5 -16.5t-45 -45t-16.5 -61.5t16.5 -61.5 t45 -45t61.5 -16.5t61.5 16.5t45 45t16.5 61.5t-16.5 61.5t-45 45t-61.5 16.5zM128 19q-29 0 -54 14.5t-40 39.5t-15 55t15 54.5t39.5 39.5t54.5 15t55 -15t39.5 -40t14.5 -54.5t-14.5 -54.5t-39.5 -39.5t-55 -14.5zM175 187q-14 0 -23.5 -11t-9.5 -27q0 -3 2 -5t5 -2t5 2 t2 5q0 10 6 17t14 7t13.5 -7t5.5 -17q0 -3 2 -5t5 -2t5.5 2t2.5 5q-1 16 -11 27t-24 11zM100 149q0 -3 2.5 -5t5.5 -2t5 2t2 5q0 16 -10 27t-24 11t-23.5 -11t-9.5 -27q0 -3 2 -5t5 -2t5 2t2 5q0 10 6 17t14 7t13 -7t5 -17z" />
</svg>