<svg viewBox="0 0 1024 1024" xmlns="http://www.w3.org/2000/svg">
  <path transform="scale(1, -1) translate(0, -960)" fill="currentColor" d="M512 379q-59 0 -100.5 -41.5t-41.5 -100.5t41.5 -101t100.5 -42t100.5 42t41.5 101t-41.5 100.5t-100.5 41.5zM512 126q-46 0 -78 32.5t-32 78.5q0 45 32 77.5t78 32.5t78 -32.5t32 -77.5q0 -46 -32 -78.5t-78 -32.5zM512 928q-99 0 -186 -38q-88 -38 -153 -103 t-103 -153q-38 -87 -38 -186t38 -186q38 -88 103 -153t153 -103q87 -38 186 -38t186 38q88 38 153 103t103 153q38 87 38 186t-38 186q-38 88 -103 153t-153 103q-87 38 -186 38zM512 0q-92 0 -174 35q-81 36 -142 97t-97 142q-35 82 -35 174t35 174q36 81 96.5 142 t142.5 97q82 35 174 35t174 -35q81 -36 142 -96.5t97 -142.5q35 -82 35 -174t-35 -174q-36 -81 -96.5 -142t-142.5 -97q-82 -35 -174 -35zM701 674q-51 0 -87 -41t-36 -99q0 -7 4 -11.5t12 -4.5q7 0 11.5 4.5t4.5 11.5q0 45 26 76.5t65 31.5q37 0 64 -31.5t27 -76.5 q0 -7 4.5 -11.5t11.5 -4.5t11.5 4.5t4.5 11.5q0 58 -36 99t-87 41zM414 533q0 -7 4.5 -11.5t11.5 -4.5q8 0 12 4.5t4 11.5q0 57 -35.5 98t-87.5 41q-51 0 -87 -41t-36 -98q0 -7 4.5 -11.5t11.5 -4.5t11.5 4.5t4.5 11.5q0 44 26.5 75.5t64.5 31.5q39 0 65 -31t26 -76z" />
</svg>