<svg viewBox="0 0 256 256" xmlns="http://www.w3.org/2000/svg">
  <path transform="scale(1, -1) translate(0, -256)" fill="currentColor" d="M206 5h-156q-10 0 -17 7t-7 17v93q0 3 1 4q20 25 20 56q0 26 -13 47q-2 3 -0.5 6.5t4.5 3.5l43 11q4 2 7 -2l40 -41l40 42q3 2 7 2l43 -11q3 -1 4.5 -4.5t-0.5 -5.5q-13 -22 -13 -47q0 -15 5.5 -29.5t14.5 -26.5q2 -3 2 -5v-92q-1 -11 -8 -18t-17 -7zM40 120v-91 q0 -4 3 -7t7 -3h156q4 0 7 3t3 7v91q-21 28 -21 62q0 24 10 46l-30 8l-42 -43q-2 -2 -5 -2t-5 2l-43 43l-30 -8q11 -22 11 -46q0 -35 -21 -62z" />
</svg>