<svg viewBox="0 0 1024 1024" xmlns="http://www.w3.org/2000/svg">
  <path transform="scale(1, -1) translate(0, -960)" fill="currentColor" d="M824 -32h-624q-36 0 -61 25t-25 60v371q0 2 1 5t2 5q41 49 62 108t21 124q0 50 -14 99t-40 93q-2 3 -2 7.5t2 6.5q1 4 4 6t7 4l168 46q3 1 7.5 0t8.5 -5l169 -173l172 173q3 4 7 5t9 0l169 -45q4 -1 6.5 -3.5t4.5 -5.5q2 -4 1.5 -7.5t-2.5 -7.5q-27 -44 -40 -93.5 t-13 -98.5q0 -62 21 -121.5t62 -110.5q1 -2 2 -4.5t1 -4.5v-372q-1 -36 -26 -61t-60 -25v0zM147 419v-365q0 -21 16 -36.5t39 -15.5h624q21 0 36.5 15.5t15.5 36.5v365q-42 54 -64 118t-22 130q0 49 12 97.5t36 93.5l-141 36l-176 -177q-2 -3 -4.5 -4t-6.5 -1v0q-4 0 -6.5 1 t-4.5 4l-176 177l-139 -36q24 -45 36 -93.5t12 -97.5q0 -69 -22.5 -132t-64.5 -116v0z" />
</svg>