<svg viewBox="0 0 1024 1024" xmlns="http://www.w3.org/2000/svg">
  <path transform="scale(1, -1) translate(0, -960)" fill="currentColor" d="M982 102l-707 708q-32 32 -78 32t-77 -32l-56 -56q-32 -33 -32 -78.5t32 -77.5l509 -508q2 -3 5.5 -4t5.5 -1t5.5 1t5.5 4l39 38l72 -69q2 -2 4.5 -3.5t6.5 -1.5h245q9 0 16 5.5t11 14.5q3 8 1 16t-8 12v0zM86 731l56 56q12 12 26.5 17.5t29.5 5.5q16 0 30 -6t26 -17 l53 -53l-168 -166l-53 53q-22 23 -22 55t22 55v0zM584 123l-421 421l71 70l131 -131q2 -2 5.5 -3.5t5.5 -1.5q4 0 6.5 1.5t4.5 3.5q5 5 5 11.5t-5 11.5l-131 132l72 72l422 -422l-166 -165v0zM725 86l-67 64l115 116l179 -180h-227v0z" />
</svg>