<svg viewBox="0 0 1024 1024" xmlns="http://www.w3.org/2000/svg">
  <path transform="scale(1, -1) translate(0, -960)" fill="currentColor" d="M912 498h-800q-34 0 -57 -23.5t-23 -56.5v-370q0 -34 23 -57t57 -23h800q34 0 57 23t23 57v370q0 33 -23 56.5t-57 23.5zM960 48q0 -20 -14 -34t-34 -14h-800q-20 0 -34 14t-14 34v370q0 20 14 34t34 14h800q20 0 34 -14t14 -34v-370zM149 614h726q7 0 11.5 4.5t4.5 11.5 q0 8 -4.5 12t-11.5 4h-726q-7 0 -11.5 -4t-4.5 -12q0 -7 4.5 -11.5t11.5 -4.5v0zM229 755h566q7 0 11.5 4.5t4.5 11.5t-4.5 11.5t-11.5 4.5h-566q-7 0 -11.5 -4.5t-4.5 -11.5t5 -11.5t11 -4.5v0zM307 896h410q7 0 11.5 4.5t4.5 11.5t-4.5 11.5t-11.5 4.5h-410 q-7 0 -11.5 -4.5t-4.5 -11.5t5 -11.5t11 -4.5v0z" />
</svg>