<svg viewBox="0 0 256 256" xmlns="http://www.w3.org/2000/svg">
  <path transform="scale(1, -1) translate(0, -256)" fill="currentColor" d="M228 144h-200q-10 0 -16.5 -7t-6.5 -17v-92q0 -10 6.5 -16.5t16.5 -6.5h200q10 0 16.5 6.5t6.5 16.5v92q0 10 -6.5 17t-16.5 7zM237 28q0 -4 -2.5 -6.5t-6.5 -2.5h-200q-4 0 -6.5 2.5t-2.5 6.5v92q0 4 2.5 7t6.5 3h200q4 0 6.5 -3t2.5 -7v-92zM37 166h182q3 0 5 2.5 t2 5.5t-2 5t-5 2h-182q-3 0 -5 -2t-2 -5t2 -5.5t5 -2.5zM57 202h142q3 0 5 2t2 5t-2 5t-5 2h-142q-3 0 -5 -2t-2 -5t2 -5t5 -2zM77 237h102q3 0 5 2t2 5t-2 5t-5 2h-102q-3 0 -5 -2t-2 -5t2 -5t5 -2z" />
</svg>