<svg viewBox="0 0 1024 1024" xmlns="http://www.w3.org/2000/svg">
  <path transform="scale(1, -1) translate(0, -960)" fill="currentColor" d="M989 477q-5 3 -11.5 3.5t-11.5 -2.5q-4 -1 -8.5 -4t-11.5 -7v6v5v91v91v91v91q0 18 -5 34.5t-18 32.5q-8 13 -22.5 20.5t-28.5 11.5q-1 0 -1.5 0.5t-3.5 0.5h-179h-178h-179h-179q-8 -2 -16.5 -5.5t-17.5 -8.5q-19 -12 -29 -29t-14 -38v-13.5v-13.5v-89v-89.5v-89.5v-89 v-4v-7q-1 1 -3.5 1.5t-5.5 2.5q-4 3 -8.5 5t-7.5 2q-10 3 -17 -3t-6 -18q1 -7 3.5 -13t6.5 -9q17 -21 38 -39t45 -33q26 -17 54 -32.5t56 -28.5q2 -1 2.5 -1.5t2.5 -0.5q-1 -9 -4 -19.5t-5 -20.5q-5 -26 -8.5 -53.5t-1.5 -53.5q1 -34 12 -66t31 -60q21 -29 49 -46.5 t63 -22.5q1 0 3 -1t4 -1h14.5h13.5q8 1 14 3t14 4q26 8 44 32t18 52q1 47 1.5 94.5t0.5 91.5v4.5v6.5q7 -1 12 -3t10 -3q1 -1 1.5 -3t0.5 -4v-78.5t1 -81.5q0 -13 0.5 -25.5t4.5 -25.5q8 -29 28.5 -44t48.5 -21q1 0 3 -1t3 -1h15h14l26 8t25 10q30 13 51 36.5t34 52.5 q17 37 21.5 76t-0.5 79q-1 18 -6 37t-7 37q0 1 -1 3t-1 3q10 5 20.5 9t19.5 9q35 17 69.5 38.5t63.5 46.5q9 8 17 19t17 19q1 1 1 4v6q6 14 5 21t-6 11v0zM893 432q-29 -13 -56 -24.5t-56 -18.5q-42 -9 -84 -12t-84 1q-10 1 -21.5 0.5t-21.5 -2.5q-17 -1 -28 -11.5 t-12 -28.5q0 -1 -1 -1.5t-1 -3.5q-10 9 -20 17t-20 17q-8 7 -17 9t-18 2q-24 0 -48.5 -1t-47.5 -1q-58 2 -110.5 14t-105.5 38q-1 1 -3 3.5t-2 5.5v95v95.5t1 94.5q0 48 1 94q0 10 1 19t5 20q4 15 14.5 22.5t23.5 10.5q9 2 18 2h18h150h150.5h150.5h150q12 0 24 -1t23 -5 q15 -8 22.5 -19t10.5 -26q1 -9 1.5 -19.5t0.5 -19.5v-89v-89v-89v-89q0 -3 -1.5 -4.5t-6.5 -5.5zM285 598q-18 -24 -21.5 -51t10.5 -54q16 -34 44 -50t61 -17q22 1 41 6.5t36 15.5q42 29 45 79.5t-34 86.5q-41 39 -96 34.5t-86 -50.5v0zM733 622q-42 30 -92.5 23t-78.5 -45 q-18 -25 -21.5 -53.5t9.5 -56.5q17 -34 44.5 -49t61.5 -17q25 1 46.5 8.5t38.5 23.5q38 35 35.5 87t-43.5 79v0z" />
</svg>