<svg viewBox="0 0 256 256" xmlns="http://www.w3.org/2000/svg">
  <path transform="scale(1, -1) translate(0, -256)" fill="currentColor" d="M38 144q-2 2 -5 2t-5 -2t-2 -5t2 -5l9 -9h-25q-3 0 -5 -2t-2 -5t2 -5t5 -2h25l-9 -9q-2 -2 -2 -5t2 -5t5 -2t5 2l20 21q3 2 2.5 5t-2.5 5zM128 139q4 0 7 3t3 7.5t-3 7.5t-7 3t-7 -3t-3 -7.5t3 -7.5t7 -3zM244 125h-25l9 9q2 2 2 5t-2.5 5t-5 2t-4.5 -2l-21 -21 q-2 -2 -2 -5t2 -5l21 -21q2 -2 4.5 -2t4.5 2.5t2 5t-2 4.5l-9 10h26q3 0 5 2t2 5t-2 4.5t-5 1.5zM190 95q0 5 -2 12l-4 14q-4 13 -7 26q-5 20 7 57v1q1 3 -0.5 5.5t-4 3.5t-5 -0.5t-3.5 -3.5l-1 -1q-12 -41 -7 -65l3 -12l-12 -2q-17 -2 -26 -2q-11 0 -26 3l-13 1l3 12 q2 11 0 28q-1 12 -5 26q-2 9 -3 11.5t-3.5 4t-5.5 0.5t-4.5 -3.5t-0.5 -5.5l1 -1q11 -37 7 -57q-3 -14 -8 -27q-5 -17 -5 -24t2 -16v0q3 -11 9 -30l2 -4q2 -5 6 -5l2 1q3 0 4.5 3t0.5 5l-10 30q4 3 19 3q7 0 13 -3t7 -5v-21q0 -3 2.5 -5t5.5 -2t5 2t2 5v21q0 2 4.5 5t10.5 3 q16 0 22 -3l-9 -30q-1 -3 0 -5.5t4 -3.5h3q5 0 6 5l2 5q6 18 9 29v0q3 11 3 15zM151 97q-7 0 -13 -2.5t-10 -6.5q-6 4 -13 6.5t-14 2.5q-14 0 -22 -3v1q0 6 5 21l1 3l17 -3q17 -2 26 -2t24 2l18 3v-3q5 -15 5 -21v0q-8 2 -24 2z" />
</svg>