<svg viewBox="0 0 1024 1024" xmlns="http://www.w3.org/2000/svg">
  <path transform="scale(1, -1) translate(0, -960)" fill="currentColor" d="M144 504q-5 5 -11.5 5t-10.5 -5q-5 -5 -5 -11.5t5 -10.5l56 -56h-130q-7 0 -11.5 -4.5t-4.5 -11.5q0 -8 4.5 -12t11.5 -4h130l-56 -58q-5 -5 -5 -11.5t5 -10.5q2 -3 5 -4t6 -1q2 0 5.5 1t5.5 4l83 83q5 5 5 11t-5 11l-83 85v0zM512 493q18 0 30 12.5t12 28.5 q0 17 -12.5 29.5t-29.5 12.5t-29.5 -12.5t-12.5 -29.5q0 -16 12.5 -28.5t29.5 -12.5zM976 424h-130l56 56q5 5 5 11.5t-5 10.5q-4 5 -10.5 5t-11.5 -5l-83 -83q-5 -5 -5 -11t5 -11l83 -83q2 -3 5.5 -4t5.5 -1q3 0 6 1t5 4q5 4 5 10.5t-5 11.5l-56 56h130q7 0 11.5 4.5 t4.5 11.5t-4.5 11.5t-11.5 4.5v0zM694 522q-7 34 -4 76q4 42 11.5 78t14.5 60q8 25 9 26q2 6 -1 12t-9 8q-6 3 -12 0t-9 -9q0 -3 -8 -29t-15.5 -64.5t-11.5 -82.5q-3 -44 5 -82q4 -15 7.5 -30t6.5 -29q-14 -1 -29.5 -3.5t-32.5 -4.5q-25 -4 -51.5 -7t-52.5 -3 q-28 0 -54.5 3.5t-52.5 8.5q-17 2 -33.5 4t-32.5 4q4 13 7.5 27.5t7.5 29.5q8 38 5 82q-4 44 -11.5 82.5t-15.5 64.5t-9 29q-2 6 -7.5 9t-13.5 0q-6 -2 -9 -7.5t0 -12.5q0 -1 7 -26q8 -24 15.5 -60t11.5 -78q3 -42 -4 -76q-7 -32 -14 -58.5t-15 -49.5q-9 -28 -15.5 -52.5 t-6.5 -44.5q0 -35 24 -108t27 -84q1 -5 5.5 -8t9.5 -3h2t2 1q6 3 9 9t1 12q-7 19 -19.5 57t-20.5 73q2 3 21.5 10t66.5 7q37 0 65 -16.5t28 -24.5v0v0v-85q0 -7 4.5 -11.5t11.5 -4.5t11.5 4.5t4.5 11.5v83v0v0v0v0q0 11 20 26.5t53 15.5q52 0 75.5 -6.5t27.5 -11.5 q-9 -34 -21 -71.5t-19 -58.5q-3 -6 0 -12t9 -8q2 0 3 -1t2 -1q5 0 9 3t6 8q3 11 27 83.5t24 108.5q0 22 -6.5 45.5t-16.5 52.5q-2 24 -9 50t-15 59v0zM603 314q-31 0 -55 -11.5t-38 -27.5q-18 17 -48 28t-59 11q-33 0 -57 -4t-39 -12q-1 4 -1 9v8q0 17 6 39.5t14 48.5 q2 5 4 10.5t3 10.5q1 -1 2.5 -1.5t3.5 -0.5q16 -1 31.5 -3t32.5 -5q27 -3 54.5 -7t57.5 -4q29 0 56 3.5t53 7.5q17 3 32.5 5t29.5 3q2 0 2 0.5t2 1.5q1 -5 3 -10.5t3 -10.5q8 -27 14.5 -49t6.5 -39q0 -3 -0.5 -8t-1.5 -11q-19 8 -47 13t-65 5v0z" />
</svg>