<svg viewBox="0 0 256 256" xmlns="http://www.w3.org/2000/svg">
  <path transform="scale(1, -1) translate(0, -256)" fill="currentColor" d="M190 76q-3 0 -5 -2t-2 -5.5t-3 -6t-7 -2.5h-115q-2 0 -4 1.5t-2 3.5v125q0 3 2 4.5t4 1.5h115q4 0 6.5 -3t2.5 -6.5t2.5 -5.5t5.5 -2t5 2t2 5q0 10 -7 17t-17 7h-3l-5 22q-2 8 -8.5 13.5t-14.5 5.5h-49q-8 0 -14.5 -5.5t-8.5 -13.5l-4 -22h-8q-8 0 -14 -6t-6 -14v-124 q0 -8 6 -14t14 -6h8l4 -22q2 -8 8.5 -13.5t14.5 -5.5h49q8 0 14.5 5.5t8.5 13.5l4 22h4q9 0 16 7t7 17q1 2 -1 4t-5 2zM84 229q1 3 3.5 5.5t5.5 2.5h49q3 0 5.5 -2.5t3.5 -5.5l4 -19h-75zM151 27q0 -3 -3 -5.5t-6 -2.5h-49q-3 0 -5.5 2.5t-3.5 5.5l-4 19h75zM204 105l-4 3v1 q3 4 10 12q10 14 7 27q-2 9 -9.5 15t-17.5 6t-17.5 -6t-9.5 -15q-3 -14 7 -27q7 -8 10 -12l-15 -15q-2 -2 -2 -5t2 -5t5 -2.5t5 2.5l15 15l16 -15q2 -2 4.5 -2t4.5 2t2 5t-2 5zM190 119l-2 2q-5 5 -6 8q-7 9 -5.5 14t5 8.5t8.5 3.5t9 -3t5 -8q1 -7 -5 -15z" />
</svg>