<svg viewBox="0 0 256 256" xmlns="http://www.w3.org/2000/svg">
  <path transform="scale(1, -1) translate(0, -256)" fill="currentColor" d="M190 76q-3 0 -5 -2t-2 -5.5t-3 -6t-7 -2.5h-115q-2 0 -4 1.5t-2 3.5v125q0 3 2 4.5t4 1.5h115q4 0 6.5 -3t2.5 -6.5t2.5 -5.5t5.5 -2t5 2t2 5q0 10 -7 17t-17 7h-4l-4 22q-2 8 -8.5 13.5t-14.5 5.5h-48q-9 0 -15.5 -5.5t-8.5 -13.5l-4 -22h-8q-8 0 -13.5 -6t-5.5 -14 v-124q0 -9 5.5 -14.5t13.5 -5.5h8l4 -22q2 -8 8.5 -13.5t15.5 -5.5h48q8 0 14.5 5.5t8.5 13.5l5 22h3q10 0 17 7t7 17q0 2 -2 4t-5 2zM84 229q1 3 3.5 5.5t6.5 2.5h48q3 0 6 -2.5t3 -5.5l4 -19h-75zM152 27q-1 -3 -3.5 -5.5t-6.5 -2.5h-48q-4 0 -6.5 2.5t-3.5 5.5l-4 19h76z M209 134h-12v12q0 3 -2 5t-5 2t-5.5 -2t-2.5 -5v-12h-12q-3 0 -5 -2.5t-2 -5.5t2 -4.5t5 -1.5h12v-12q0 -3 2.5 -5.5t5.5 -2.5t5 2.5t2 5.5v12h12q3 0 5 2t2 4.5t-2 5t-5 2.5z" />
</svg>