<svg viewBox="0 0 1024 1024" xmlns="http://www.w3.org/2000/svg">
  <path transform="scale(1, -1) translate(0, -960)" fill="currentColor" d="M760 230q-7 0 -11.5 -4t-4.5 -12q0 -20 -14.5 -34.5t-35.5 -14.5h-462q-14 0 -24.5 10.5t-10.5 24.5v498q0 14 10.5 24.5t24.5 10.5h53v0v0v0v0h406q21 0 35.5 -14.5t14.5 -35.5q0 -7 4.5 -11.5t11.5 -4.5t11.5 4.5t4.5 11.5q0 34 -24 58t-58 24h-25l-21 97 q-4 29 -26 47.5t-51 18.5h-195q-29 0 -51.5 -18.5t-28.5 -47.5l-21 -97h-40q-28 0 -47.5 -20t-19.5 -47v-500q0 -27 19.5 -47t47.5 -20h40l21 -97q6 -29 28.5 -47.5t51.5 -18.5h193q29 0 51.5 18.5t28.5 47.5l21 97h26q33 0 57 24t24 58q2 7 -3 12t-11 5v0zM325 856 q3 17 17 28.5t31 11.5h193q18 0 32 -11.5t18 -28.5l19 -91h-329zM616 40q-4 -17 -17 -28.5t-31 -11.5h-195q-18 0 -32 11.5t-18 28.5l-19 91h330zM806 349l-12 13q-3 2 -6 5l-6 6q12 12 24 25.5t23 28.5q18 24 25 49.5t2 48.5q-7 32 -35 54.5t-63 23.5q-34 -1 -62 -23.5 t-34 -54.5q-4 -23 3 -48t25 -50q10 -14 22 -27.5t24 -26.5q-2 -3 -5.5 -6t-5.5 -5l-8 -10l-25.5 -25.5l-25.5 -25.5q-5 -5 -5 -11.5t5 -11.5q4 -4 10.5 -4t11.5 4q13 12 25.5 25t25.5 27l8 8q3 2 6 5t5 6l6 -6t6 -5l11 -12l23 -23l23 -23q3 -2 5.5 -3.5t5.5 -1.5 q4 0 6.5 1.5t5.5 3.5q4 5 4 11.5t-4 10.5q-10 11 -21.5 23t-22.5 24v0zM760 395q-11 12 -22.5 24.5t-20.5 25.5q-9 11 -17.5 30.5t-5.5 39.5q5 22 24 37t42 16q23 -1 42.5 -16t23.5 -37q4 -21 -5 -41t-18 -31q-9 -12 -20.5 -24.5t-22.5 -23.5z" />
</svg>