<svg viewBox="0 0 1024 1024" xmlns="http://www.w3.org/2000/svg">
  <path transform="scale(1, -1) translate(0, -960)" fill="currentColor" d="M818 376l-8 8l-7.5 7.5t-7.5 6.5q13 15 27 29.5t26 31.5q20 27 27.5 54.5t2.5 51.5q-7 35 -37.5 59t-67.5 26q-37 -2 -67 -26t-39 -59q-5 -25 2.5 -52t28.5 -54q12 -17 25.5 -31.5t26.5 -29.5l-6.5 -6.5l-5.5 -5.5l-10 -10l-28 -28l-28 -28q-5 -5 -5 -11.5t5 -10.5 q5 -5 11.5 -5t10.5 5q15 14 28.5 27.5t27.5 28.5l10 9l7.5 7.5t6.5 5.5l7.5 -7.5t7.5 -6.5l8 -8q14 -15 27.5 -28.5t28.5 -27.5q2 -3 4.5 -4t6.5 -1t6.5 1t4.5 4q5 4 5 10.5t-5 11.5q-15 14 -29 28l-28 28v0zM773 421q-13 13 -26 27t-24 29q-9 12 -19.5 34t-4.5 46 q5 24 27 41.5t47 17.5q26 -1 47.5 -18t27.5 -41q5 -24 -5.5 -46t-18.5 -34q-13 -15 -26 -29t-25 -27zM400 786q-7 0 -11.5 -4.5t-4.5 -11.5q0 -8 4.5 -12t11.5 -4h134q8 0 12 4t4 12q0 7 -4 11.5t-12 4.5h-134zM773 253q-7 0 -11.5 -4.5t-4.5 -11.5v-202q0 -14 -10.5 -24.5 t-24.5 -10.5h-511q-14 0 -24.5 10.5t-10.5 24.5v826q0 14 10.5 24.5t24.5 10.5h511q14 0 24.5 -10.5t10.5 -24.5v-133q0 -7 4.5 -11.5t11.5 -4.5t11.5 4.5t4.5 11.5v133q0 27 -20 47t-47 20h-511q-27 0 -47 -20t-20 -47v-826q0 -27 20 -47t47 -20h511q27 0 47 20t20 47v202 q0 6 -5 11t-11 5z" />
</svg>