<svg viewBox="0 0 1024 1024" xmlns="http://www.w3.org/2000/svg">
  <path transform="scale(1, -1) translate(0, -960)" fill="currentColor" d="M714 752h-13l-23 107q-7 30 -31 49.5t-55 19.5h-160q-30 0 -54.5 -19.5t-30.5 -49.5l-22 -107h-13q-26 0 -45 -19t-19 -45v-496q0 -26 19 -45t45 -19h16l19 -91q6 -30 30.5 -49.5t54.5 -19.5h160q31 0 55 19.5t30 49.5l19 91h16q26 0 45 19t19 45v496q1 26 -17.5 45 t-44.5 19v0zM378 853q4 19 19.5 31t34.5 12h160q19 0 34.5 -12t19.5 -31l21 -101h-310l21 101v0zM646 43q-4 -19 -19.5 -31t-34.5 -12h-160q-19 0 -34.5 12t-19.5 31l-18 85h304zM746 192q0 -13 -9.5 -22.5t-22.5 -9.5h-404q-13 0 -22.5 9.5t-9.5 22.5v496q0 13 9.5 22.5 t22.5 9.5h26v0v0v0v0h376q13 0 22.5 -9.5t9.5 -22.5v-496h2zM528 446v143q0 7 -4.5 11.5t-11.5 4.5t-11.5 -4.5t-4.5 -11.5v-149q0 -4 1 -6.5t4 -4.5l93 -93q2 -2 5 -3.5t6 -1.5q2 0 5.5 1.5t5.5 3.5q5 5 5 11.5t-5 10.5l-88 88v0z" />
</svg>