<svg viewBox="0 0 256 256" xmlns="http://www.w3.org/2000/svg">
  <path transform="scale(1, -1) translate(0, -256)" fill="currentColor" d="M178 207v0l-6 25q-1 8 -8 13.5t-16 5.5h-40q-9 0 -15.5 -5.5t-8.5 -13.5l-5 -25h-1q-8 0 -13.5 -5.5t-5.5 -13.5v-124q0 -8 5.5 -13.5t13.5 -5.5h2l4 -21q2 -8 8.5 -13.5t15.5 -5.5h40q9 0 15.5 5.5t8.5 13.5l4 21h2q8 0 13.5 5.5t5.5 13.5v124q0 8 -5.5 13.5t-13.5 5.5z M98 228q1 4 3.5 6.5t6.5 2.5h40q4 0 7 -2.5t3 -6.5l5 -21h-70zM158 28q0 -4 -3 -6.5t-7 -2.5h-40q-4 0 -7 2.5t-3 6.5l-4 17h68zM183 64q0 -2 -1.5 -3.5t-3.5 -1.5h-100q-3 0 -4.5 1.5t-1.5 3.5v124q0 2 1.5 3.5t4.5 1.5h100q2 0 3.5 -1.5t1.5 -3.5v-124zM135 129v35 q0 3 -2 5t-5 2t-5 -2t-2 -5v-38q0 -2 2 -4l23 -24q2 -2 5 -2t5 2.5t2 5t-2 4.5z" />
</svg>