<svg viewBox="0 0 256 256" xmlns="http://www.w3.org/2000/svg">
  <path transform="scale(1, -1) translate(0, -256)" fill="currentColor" d="M244 40h-12v23q2 -2 4.5 -2t4.5 2.5t2 5t-3 5.5l-39 32q-2 2 -4.5 2t-4.5 -2l-39 -32q-2 -2 -2 -5t1.5 -5t4.5 -2.5t5 0.5v-22h-68v23q3 -2 5.5 -2t4.5 2.5t1.5 5t-2.5 5.5l-39 32q-2 2 -4.5 2t-4.5 -2l-39 -32q-2 -2 -2.5 -5t1.5 -5t5 -2.5t5 0.5v-22h-13q-3 0 -5 -2 t-2 -5t2 -5t5 -2h232q3 0 5 2t2 5t-2 5t-5 2zM38 40v34l21 18l21 -18v-34h-42zM176 40v34l20 18l21 -18v-34h-41zM180 162q2 0 4 2t2.5 4.5t-2.5 5.5q-15 15 -35.5 20.5t-41 0t-36.5 -20.5q-2 -2 -2 -5t2 -5.5t5 -2.5t5 3q13 12 30 16.5t34 0t30 -16.5q2 -2 5 -2zM155 137 q3 0 5 2t2 5t-2 5q-7 6 -15 9.5t-17 3.5q-19 0 -32 -13q-3 -2 -2.5 -5t2.5 -5t4.5 -2t5.5 2q9 9 22 9t22 -9q2 -2 5 -2zM58 187q19 19 44.5 26t51 0t44.5 -26q2 -2 5 -2t5 2t2 5t-2 5q-22 22 -51 29.5t-58.5 0t-50.5 -29.5q-2 -2 -2 -5t2 -5t5 -2t5 2zM115 119q0 -5 4 -9 t9 -4t9 4t4 9.5t-4 9t-9 3.5t-9 -3.5t-4 -9.5z" />
</svg>