<svg viewBox="0 0 1024 1024" xmlns="http://www.w3.org/2000/svg">
  <path transform="scale(1, -1) translate(0, -960)" fill="currentColor" d="M645 362h-250v105l72 32l91 -45q2 -1 4 -1h3h3t3 1l77 36q6 2 8 8t0 12t-8.5 8.5t-12.5 -0.5l-70 -32l-91 45q-4 1 -7.5 1t-5.5 -1l-66 -29v109q0 7 -4.5 11.5t-11.5 4.5t-11.5 -4.5t-4.5 -11.5v-265q0 -8 4.5 -12t11.5 -4h264q7 0 11.5 4t4.5 12q0 7 -4 11.5t-10 4.5z M733 928h-442q-26 0 -45 -19t-19 -45v-832q0 -26 19 -45t45 -19h443q27 0 45.5 19t18.5 45v832q-1 26 -19.5 45t-45.5 19v0zM765 32q0 -13 -9.5 -22.5t-22.5 -9.5h-442q-13 0 -22.5 9.5t-9.5 22.5v832q0 13 9.5 22.5t22.5 9.5h443q14 0 23 -9.5t9 -22.5v-832h-1zM581 117 h-138q-7 0 -11.5 -4.5t-4.5 -11.5t4.5 -11.5t11.5 -4.5h138q7 0 11.5 4.5t4.5 11.5t-4.5 11.5t-11.5 4.5zM499 779h26q7 0 11.5 4.5t4.5 11.5t-4.5 11.5t-11.5 4.5h-26q-7 0 -11.5 -4.5t-4.5 -11.5t4.5 -11.5t11.5 -4.5v0z" />
</svg>