<svg viewBox="0 0 1024 1024" xmlns="http://www.w3.org/2000/svg">
  <path transform="scale(1, -1) translate(0, -960)" fill="currentColor" d="M582 611q-20 0 -38 -4.5t-34 -14.5q-13 7 -30.5 13t-39.5 6q-49 0 -83.5 -36t-34.5 -89q-3 -56 40.5 -106.5t127.5 -89.5l14 -7q1 0 2.5 -0.5t3.5 -0.5h4t3 1l13 7v0v0q81 39 125 89.5t44 105.5q1 53 -32.5 89.5t-84.5 36.5v0zM518 318l-6 -3l-8 3q-43 21 -97 62.5 t-52 104.5q0 39 25.5 66t61.5 27q20 0 35.5 -7t26.5 -14q5 -3 9.5 -2.5t9.5 3.5q12 10 28 15t33 5q36 0 61 -27.5t25 -65.5q-1 -61 -55.5 -103.5t-96.5 -63.5zM754 768l-96 154q-4 2 -7.5 4t-7.5 2h-261q-3 0 -7 -2t-5 -6l-100 -152q-36 -10 -59.5 -39.5t-23.5 -69.5v-422 q0 -40 24 -69.5t61 -39.5l98 -154q2 -3 5.5 -5.5t6.5 -2.5h261q4 0 8 2.5t5 5.5l98 154q36 10 59.5 39.5t23.5 69.5v422q0 40 -23.5 69.5t-59.5 39.5zM390 896h244l78 -125h-400l78 125v0zM634 0h-244l-78 125h402zM805 237q0 -34 -23.5 -57t-56.5 -23h-426q-33 0 -56.5 23 t-23.5 57v422q0 34 23.5 57t56.5 23h426q33 0 56.5 -23t23.5 -57v-422z" />
</svg>