<svg viewBox="0 0 256 256" xmlns="http://www.w3.org/2000/svg">
  <path transform="scale(1, -1) translate(0, -256)" fill="currentColor" d="M125 208h6q3 0 5 2t2 5t-2 5t-5 2h-6q-3 0 -5 -2t-2 -5t2 -5t5 -2zM137 48h-17q-3 0 -5.5 -2t-2.5 -5t2.5 -5t5.5 -2h17q3 0 5 2t2 5t-2 5t-5 2zM186 251h-116q-8 0 -13.5 -5.5t-5.5 -13.5v-208q0 -8 5.5 -14t13.5 -6h116q8 0 13.5 6t5.5 14v208q0 8 -5.5 13.5t-13.5 5.5 zM191 24q0 -2 -1.5 -3.5t-3.5 -1.5h-116q-3 0 -4.5 1.5t-1.5 3.5v208q0 2 1.5 3.5t4.5 1.5h116q2 0 3.5 -1.5t1.5 -3.5v-208zM167 132l-35 27q-2 1 -4.5 1t-3.5 -1l-35 -27q-3 -1 -3 -4t1.5 -5.5t4.5 -3t6 1.5l4 3v-21q0 -3 2 -5t5 -2h39q3 0 5 2t2 5v21l4 -3q3 -1 5.5 -1 t4 2.5t1 5.5t-2.5 4zM140 110h-24v25l12 9l12 -9v-25z" />
</svg>