<svg viewBox="0 0 1024 1024" xmlns="http://www.w3.org/2000/svg">
  <path transform="scale(1, -1) translate(0, -960)" fill="currentColor" d="M976 83h-62v128l19 -16q2 -2 4.5 -2.5t4.5 -0.5q4 0 7.5 1.5t5.5 4.5q5 5 4 12t-5 11l-157 131q-5 4 -10.5 4t-10.5 -4l-112 -94v0v0l-45 -37q-5 -5 -5.5 -11.5t4.5 -11.5q4 -4 10.5 -5t11.5 4l19 16v-128h-293v128l20 -16q2 -3 4.5 -3h4.5q4 0 7.5 1t5.5 5q5 5 4 12 t-6 10l-158 130q-5 4 -10.5 4t-10.5 -4l-112 -94v0v0l-45 -37q-4 -5 -5 -11.5t4 -11.5q5 -4 11 -5t11 4l19 16v-128h-62q-7 0 -11.5 -4.5t-4.5 -11.5t4.5 -11.5t11.5 -4.5h928q7 0 11.5 4.5t4.5 11.5t-4.5 10.5t-11.5 3.5zM142 83v155l96 80l96 -80v-155h-192v0zM690 83v155 l96 80l96 -80v-155h-192zM718 595q4 0 6.5 1.5t5.5 3.5q4 5 4 11.5t-4 10.5q-45 45 -102 68q-57 22 -116 22t-117 -22q-57 -23 -102 -68q-5 -4 -5 -10.5t5 -11.5t11 -5t11 5q40 40 91 60t104 20t104 -20t92 -60q3 -2 6.5 -3.5t5.5 -1.5v0zM619 496q4 0 6.5 1t4.5 4q5 5 5 11 t-5 11q-24 24 -54 37t-64 13t-65 -13t-53 -37q-5 -5 -5 -11t5 -11q4 -5 10.5 -5t11.5 5q19 19 43.5 29.5t52.5 10.5t52.5 -10.5t43.5 -29.5q2 -3 5.5 -4t5.5 -1v0zM224 693q59 59 135 89q75 30 153.5 30t153.5 -30q76 -30 136 -89q2 -3 5 -4t6 -1q2 0 5.5 1t5.5 4q5 5 5 11 t-5 11q-64 64 -145 96q-82 33 -166.5 33t-165.5 -32q-81 -33 -145 -97q-5 -5 -5 -11t5 -11q4 -5 10.5 -5t11.5 5v0zM443 413q0 -29 20 -49t49 -20t49 20t20 49t-20 49t-49 20t-49 -20t-20 -49v0zM549 413q0 -16 -11.5 -26.5t-25.5 -10.5t-25.5 11t-11.5 26q0 14 11.5 25.5 t25.5 11.5t25.5 -11t11.5 -26z" />
</svg>