<svg viewBox="0 0 1024 1024" xmlns="http://www.w3.org/2000/svg">
  <path transform="scale(1, -1) translate(0, -960)" fill="currentColor" d="M421 789h-91q-8 0 -12 -4.5t-4 -11.5t4 -11.5t12 -4.5h91q7 0 11.5 4.5t4.5 11.5t-4.5 11.5t-11.5 4.5zM370 206q-26 0 -43.5 -17.5t-17.5 -42.5q0 -26 17.5 -43.5t43.5 -17.5q25 0 43.5 17.5t18.5 43.5q0 25 -18 42.5t-44 17.5zM370 117q-12 0 -20.5 8.5t-8.5 20.5 t8.5 20t20.5 8t20 -8t8 -20t-7.5 -20.5t-20.5 -8.5zM699 680q-11 0 -20.5 -1t-19.5 -2v145q-1 44 -30.5 75t-71.5 31h-373q-42 0 -72 -31t-30 -75v-748q0 -44 30 -75t72 -31h374q42 0 71.5 31t29.5 75v123v0.5v0.5q10 -1 20.5 -2t21.5 -1q50 0 94 19q45 19 78 52t52 78 q19 44 19 94q0 51 -19 95q-20 44 -53 76.5t-78 51.5q-44 19 -95 19v0zM626 195v-123q0 -30 -20 -52t-49 -22h-373q-29 0 -49 22t-20 52v750q-1 30 19.5 52t49.5 22h374q29 0 49 -22t20 -52v-153q-74 -23 -121.5 -87t-47.5 -145q0 -41 13 -78t36 -67.5t55 -52.5 q31 -23 68 -34q-2 -3 -3 -5t-1 -5v0zM699 226q-44 0 -82 16q-39 17 -67.5 45.5t-44.5 67.5q-17 38 -17 82t17 82q16 39 44.5 67.5t67.5 44.5q38 17 82 17t82 -17q39 -16 67.5 -44.5t45.5 -67.5q16 -38 16 -82t-16 -82q-17 -39 -46 -67.5t-67 -45.5q-39 -16 -82 -16v0z M702 421v73q0 8 -4 12t-12 4q-7 0 -11.5 -4t-4.5 -12v-80q0 -3 1.5 -5.5t3.5 -5.5l48 -48q3 -2 6 -3.5t5 -1.5q3 0 6 1.5t6 3.5q4 5 4 11.5t-4 11.5z" />
</svg>