<svg viewBox="0 0 1024 1024" xmlns="http://www.w3.org/2000/svg">
  <path transform="scale(1, -1) translate(0, -960)" fill="currentColor" d="M931 403h-91l-94 218q-3 6 -8.5 10t-12.5 4t-13 -4t-8 -10l-90 -231l-49 116q-3 4 -6.5 6.5t-8.5 2.5h-102q-7 0 -11.5 -4.5t-4.5 -11.5t4.5 -11.5t11.5 -4.5h93l54 -129q3 -6 8 -9.5t11 -3.5v0v0q6 0 11.5 4t8.5 10l89 232l88 -205q3 -4 6.5 -6.5t8.5 -2.5h102 q7 0 11.5 4.5t4.5 11.5t-3 10.5t-10 3.5v0zM333 786q-7 0 -11.5 -4.5t-4.5 -11.5q0 -8 4.5 -12t11.5 -4h134q7 0 11.5 4t4.5 12q0 7 -4.5 11.5t-11.5 4.5h-134v0zM706 253q-8 0 -12 -4.5t-4 -11.5v-202q0 -14 -10.5 -24.5t-25.5 -10.5h-510q-14 0 -24.5 10.5t-10.5 24.5v826 q0 14 10.5 24.5t24.5 10.5h510q15 0 25.5 -10.5t10.5 -24.5v-133q0 -7 4 -11.5t12 -4.5q7 0 11.5 4.5t4.5 11.5v133q0 27 -20 47t-48 20h-510q-28 0 -47.5 -20t-19.5 -47v-826q0 -27 19.5 -47t47.5 -20h510q28 0 48 20t20 47v202q0 6 -5 11t-11 5z" />
</svg>