<svg viewBox="0 0 256 256" xmlns="http://www.w3.org/2000/svg">
  <path transform="scale(1, -1) translate(0, -256)" fill="currentColor" d="M226 105h-21l-22 52q-2 5 -7.5 5t-8.5 -6l-20 -50l-9 22q-2 4 -6 4h-26q-3 0 -5.5 -2t-2.5 -5t2.5 -5t5.5 -2h21l13 -30q0 -3 2.5 -4.5t4.5 -1.5q6 0 8 6l19 51l20 -44q2 -5 6 -5h25q3 0 5 2.5t2 5.5t-1.5 5t-4.5 2zM175 76q-3 0 -5 -2t-2 -5.5t-3 -6t-7 -2.5h-115 q-3 0 -4.5 1.5t-1.5 3.5v121q0 4 3 7t7 3h111q4 0 6.5 -3t2.5 -6.5t2 -5.5t5 -2t5.5 2t2.5 5q0 10 -7 17t-17 7h-4l-4 22q-2 8 -8.5 13.5t-15.5 5.5h-48q-8 0 -14.5 -5.5t-8.5 -13.5l-5 -22h-3q-10 0 -17 -7t-7 -17v-120q0 -8 6 -14t14 -6h7l5 -22q2 -8 8.5 -13.5t14.5 -5.5 h48q9 0 15.5 5.5t8.5 13.5l4 22h4q9 0 16 7t7 17q0 2 -1.5 4t-4.5 2zM69 229q0 3 3 5.5t6 2.5h48q4 0 6.5 -2.5t3.5 -5.5l4 -19h-75zM136 27q-1 -3 -3.5 -5.5t-5.5 -2.5h-49q-3 0 -6 2.5t-3 5.5l-4 19h75z" />
</svg>