<svg viewBox="0 0 256 256" xmlns="http://www.w3.org/2000/svg">
  <path transform="scale(1, -1) translate(0, -256)" fill="currentColor" d="M233 120h-21l-23 52q-3 6 -8 5.5t-8 -5.5l-19 -51l-10 22q-2 4 -6 4h-26q-3 0 -5 -2t-2 -5t2 -5t5 -2h21l13 -31q1 -2 3 -3.5t5 -1.5q5 0 7 6l20 51l19 -44q3 -5 7 -5h25q3 0 5.5 2t2.5 5t-2 5.5t-5 2.5zM83 215q-3 0 -5 -2t-2 -5t2 -5t5 -2h34q3 0 5 2t2 5t-2 5t-5 2 h-34zM176 82q-3 0 -5 -2t-2 -5v-51q0 -2 -1.5 -3.5t-3.5 -1.5h-128q-2 0 -4 1.5t-2 3.5v207q0 3 2 4.5t4 1.5h128q2 0 3.5 -1.5t1.5 -4.5v-33q0 -3 2 -5t5 -2t5.5 2t2.5 5v33q0 8 -6 14t-14 6h-128q-8 0 -14 -6t-6 -14v-206q0 -8 6 -14t14 -6h128q8 0 13.5 6t5.5 14v50 q0 3 -2 5t-5 2z" />
</svg>