<svg viewBox="0 0 256 256" xmlns="http://www.w3.org/2000/svg">
  <path transform="scale(1, -1) translate(0, -256)" fill="currentColor" d="M206 112l-2 2l-1 2q7 7 11 13q11 15 8 29q-2 10 -10.5 16.5t-19 6.5t-19 -7t-10.5 -16q-3 -14 8 -29q4 -5 11 -13v0l-2 -4l-14 -14q-3 -2 -2.5 -5t2.5 -5t4.5 -2t5.5 2l17 18l18 -18q2 -2 4.5 -2t5 2t2.5 5t-3 5zM193 126q-3 3 -10 12t-5 17q1 5 5.5 8.5t10 3.5t10 -3.5 t5.5 -8.5q2 -8 -5 -18zM100 215q-3 0 -5 -2t-2 -5t2 -5t5 -2h34q3 0 5 2t2 5t-2 5t-5 2h-34zM193 82q-3 0 -5 -2t-2 -5v-51q0 -2 -1.5 -3.5t-4.5 -1.5h-127q-3 0 -4.5 1.5t-1.5 3.5v207q0 3 1.5 4.5t4.5 1.5h127q3 0 4.5 -1.5t1.5 -4.5v-33q0 -3 2 -5t5 -2t5 2t2 5v33 q0 8 -5.5 14t-13.5 6h-128q-8 0 -14 -6t-6 -14v-206q0 -8 6 -14t14 -6h127q8 0 14 6t6 14v50q0 3 -2 5t-5 2z" />
</svg>