<svg viewBox="0 0 1024 1024" xmlns="http://www.w3.org/2000/svg">
  <path transform="scale(1, -1) translate(0, -960)" fill="currentColor" d="M760 230q-7 0 -11.5 -4t-4.5 -12q0 -20 -14.5 -34.5t-35.5 -14.5h-460q-15 0 -25.5 10.5t-10.5 24.5v498q0 14 10.5 24.5t25.5 10.5h52v0v0v0v0h407q20 0 34.5 -14.5t14.5 -35.5q0 -7 4.5 -11.5t11.5 -4.5q8 0 12 4.5t4 11.5q0 34 -24 58t-57 24h-26l-21 97 q-3 29 -25.5 47.5t-52.5 18.5h-194q-28 0 -51 -18.5t-29 -47.5l-20 -97h-40q-28 0 -48 -20t-20 -47v-500q0 -27 20 -47t48 -20h40l20 -97q6 -29 29 -47.5t51 -18.5h194q29 0 51.5 18.5t28.5 47.5l21 97h25q34 0 58 24t24 58q0 7 -4.5 12t-11.5 5zM325 856q3 17 17 28.5 t32 11.5h194q18 0 32 -11.5t18 -28.5l19 -91h-330l18 91v0zM618 40q-4 -17 -18 -28.5t-32 -11.5h-194q-18 0 -32 11.5t-17 28.5l-19 91h329zM835 459h-59v59q0 8 -4.5 12t-11.5 4t-11.5 -4t-4.5 -12v-59h-59q-7 0 -11.5 -4.5t-4.5 -11.5t4.5 -11.5t11.5 -4.5h59v-59 q0 -7 4.5 -11.5t11.5 -4.5t11.5 4.5t4.5 11.5v59h59q7 0 11.5 4.5t4.5 11.5t-4.5 11.5t-11.5 4.5v0z" />
</svg>