<svg viewBox="0 0 256 256" xmlns="http://www.w3.org/2000/svg">
  <path transform="scale(1, -1) translate(0, -256)" fill="currentColor" d="M146 172q-10 0 -18 -5q-8 5 -18 5q-14 0 -23 -10t-9.5 -24.5t11 -28t32.5 -23.5l4 -2h3h2l4 2q21 10 32.5 23t11.5 28t-9.5 25t-22.5 10zM128 98v0h-1q-14 7 -23 15q-13 12 -12 24q0 9 5.5 15t12.5 6t14 -5q5 -3 9 1t12 4t13.5 -6t5.5 -15q0 -12 -13 -24q-9 -8 -23 -15z M190 210l-24 38q-2 3 -6 3h-64q-4 0 -6 -3l-24 -38q-10 -3 -16 -11t-6 -18v-106q0 -10 6 -18.5t16 -10.5l24 -38q2 -3 6 -3h65q4 0 6 3l23 38q10 3 16 11t6 18v106q0 10 -6 18.5t-16 10.5zM99 237h58l16 -25h-90zM157 19h-58l-16 25h90zM198 75q0 -7 -5 -12t-12 -5h-106 q-7 0 -12 5t-5 12v106q0 7 5 12t12 5h106q7 0 12 -5t5 -12v-106z" />
</svg>