<svg viewBox="0 0 1024 1024" xmlns="http://www.w3.org/2000/svg">
  <path transform="scale(1, -1) translate(0, -960)" fill="currentColor" d="M512 928q-99 0 -186 -38q-88 -38 -153 -103t-103 -153q-38 -87 -38 -186t38 -186q38 -88 103 -153t153 -103q87 -38 186 -38t186 38q88 38 153 103t103 153q38 87 38 186t-38 186q-38 88 -103 153t-153 103q-87 38 -186 38zM512 0q-92 0 -174 35q-81 36 -142 97t-97 142 q-35 82 -35 174t35 174q36 81 96.5 142t142.5 97q82 35 174 35t174 -35q81 -36 142 -96.5t97 -142.5q35 -82 35 -174t-35 -174q-36 -81 -96.5 -142t-142.5 -97q-82 -35 -174 -35zM710 248q-40 -37 -91.5 -57t-106.5 -20t-106.5 20t-91.5 57q-5 5 -11.5 4.5t-11.5 -6.5 q-5 -4 -4.5 -10.5t6.5 -11.5q44 -42 101 -64t118 -22t118 22t101 64q5 5 5 11.5t-3 10.5q-4 6 -11 6.5t-12 -4.5v0zM386 595q0 27 -19 45.5t-45 18.5q-27 0 -45.5 -18.5t-18.5 -45.5q0 -26 18.5 -45t45.5 -19q26 0 45 19t19 45zM702 659q-26 0 -45 -18.5t-19 -45.5 q0 -26 19 -45t45 -19q27 0 45.5 19t18.5 45q0 27 -18.5 45.5t-45.5 18.5z" />
</svg>