<svg viewBox="0 0 256 256" xmlns="http://www.w3.org/2000/svg">
  <path transform="scale(1, -1) translate(0, -256)" fill="currentColor" d="M130 239q14 0 26 -5q21 -10 31 -31q3 -6 3 -18v-21l-1 -18h1q3 -4 9 -3.5t12 3.5h3h3q2 -1 3 -2t1 -2t-2 -3.5t-7 -4.5l-4 -1q-13 -4 -16 -10.5t1 -13.5v0q6 -12 14 -22q17 -19 39 -22v-1q-1 -2 -6 -4q-7 -4 -23 -6q-2 0 -4 -2l-3 -14l-8 1q-7 1 -11 1h-11q-8 -1 -20 -10 v0q-8 -6 -13 -9q-8 -3 -17 -3h-4q-9 0 -17 3q-6 3 -14 9l-3 2q-10 7 -16 8h-12q-4 0 -11 -1l-7 -1h-1l-1 2v4l-1 2q-1 4 -2 6t-3 2q-24 3 -29 10v0q16 3 30 14q10 8 17 20q6 8 6 11q4 7 1 13.5t-17 10.5l-3 1q-9 4 -9 8q0 1 2 2.5t4 1.5h2q7 -3 14 -3q3 0 6 1t3 2h1l-1 10 q-1 16 -1 25q1 15 4 22q10 22 30 31q12 6 27 6q5 0 5 -1zM130 244h-4q-15 0 -29 -6q-22 -10 -33 -33q-3 -8 -4 -24q0 -9 1 -26l1 -6q-2 -1 -5.5 -1t-10.5 3h-4q-5 0 -8.5 -2t-3.5 -5.5t2.5 -7t9.5 -6.5l6 -2q10 -3 11.5 -7t-1.5 -10v-1q0 -2 -5 -10q-7 -11 -16 -18 q-13 -11 -28 -13q-4 -1 -4 -6v-2q4 -9 33 -13l2 -11q2 -5 6 -5l9 1q6 1 10 1h9q9 -2 18 -9t15 -9q10 -4 20 -4h3q9 0 19 4q5 2 14 8h1q11 8 18 10h10q8 0 12 -1h7q5 0 5 4l3 11q30 5 33 13v3t-1 3.5t-3 1.5q-15 3 -28 13q-9 8 -16 19q-5 7 -6.5 10.5t0 8t12.5 8.5l2 1 q2 0 2 1q13 5 13 12q0 2 -2 4.5t-6 3.5l-5 1q-3 0 -5 -1q-6 -3 -9.5 -3t-5.5 1v6q2 17 1 26q0 15 -4 24q-10 24 -33 34q-13 6 -28 6z" />
</svg>