<svg viewBox="0 0 1024 1024" xmlns="http://www.w3.org/2000/svg">
  <path transform="scale(1, -1) translate(0, -960)" fill="currentColor" d="M520 893q29 0 105.5 -22.5t121.5 -123.5q16 -33 14.5 -87.5t-3.5 -102.5q-1 -9 -1 -16.5v-15.5v-5l1 -2q2 -1 9.5 -6.5t24.5 -5.5v0v0q12 1 24.5 3.5t26.5 8.5q1 2 4.5 2h6.5q4 0 7.5 -1t5.5 -1v0q7 -1 12.5 -6t5.5 -10q0 -1 -5.5 -10t-33.5 -18q-1 -2 -4.5 -2.5 t-7.5 -2.5q-17 -5 -38 -15t-30 -30q-4 -12 -3 -25t8 -26q2 -4 15 -29t39 -55.5t66 -57.5q39 -27 93 -36v-1h-2q-1 -5 -21.5 -18t-93.5 -22q-12 -2 -15.5 -14t-6.5 -26q-1 -5 -2 -10.5t-3 -12.5q-1 -1 -1.5 -1h-0.5h-1q-4 0 -8.5 0.5t-9.5 0.5q-9 1 -23.5 4t-32.5 3 q-9 0 -20 -1t-23 -1q-22 -4 -41 -15.5t-37 -24.5q-26 -18 -54.5 -34t-69.5 -16h-3h-3h-3h-2h-3q-41 0 -69.5 15.5t-53.5 34.5q-21 13 -39 24.5t-40 15.5h-22h-22q-18 0 -32.5 -2.5t-23.5 -3.5q-5 -2 -9.5 -2h-8.5h-1.5t-3.5 2q-1 4 -3 9.5t-2 12.5q-3 16 -6.5 27.5 t-15.5 12.5q-72 10 -92.5 23t-22.5 17q0 1 -1 1.5l-1 0.5q55 9 95 36q40 28 66 58t39 55q12 25 13 28q8 16 9 29t-4 22q-9 21 -30.5 30.5t-36.5 14.5q-4 1 -7.5 2t-5.5 3q-22 8 -30.5 16.5t-8.5 15.5q2 5 10.5 11.5t17.5 6.5q1 0 3 -0.5t3 -1.5q16 -7 29 -10t25 -3 q18 0 28.5 6t10.5 7l1 2v4q0 8 -0.5 16t-0.5 16q-4 48 -4.5 102.5t15.5 88.5q46 103 121 124t106 21h12.5t8.5 -1v0zM520 912v0v0v0h-9.5h-8.5q-15 0 -45 -4q-31 -4 -67 -20t-72 -47t-60 -86q-17 -37 -17 -93t4 -107q0 -5 0.5 -12t0.5 -12q-1 -1 -6 -3t-11 -2q-10 0 -21 3.5 t-26 9.5q-3 1 -7 1.5t-9 0.5q-15 0 -30 -9t-16 -25q-1 -9 7.5 -24t42.5 -27q3 -1 6.5 -1.5t5.5 -3.5q14 -5 31.5 -11.5t24.5 -21.5q4 -8 2 -17.5t-6 -21.5v-1q-1 -3 -13 -26t-36 -51.5t-61 -54.5t-87 -35q-9 -1 -13.5 -7.5t-4.5 -14.5q0 -1 1 -4t1 -6q8 -18 39.5 -30.5 t89.5 -20.5q2 -1 4 -9.5t3 -12.5q1 -5 1.5 -11.5t3.5 -11.5q1 -5 5.5 -11t18.5 -6q4 0 9.5 0.5t12.5 0.5q10 1 23.5 4t27.5 3q10 0 19 -1t20 -1q18 -4 35 -13.5t37 -24.5q26 -18 59 -35t78 -17h2h3h3.5h2.5q46 0 78 17t60 35q18 13 35.5 23t36.5 15q10 1 20 1.5t18 0.5 q16 0 29 -1.5t23 -3.5q7 -1 12.5 -1.5t9.5 -0.5h3q9 0 15 4.5t8 13.5q1 5 2.5 11t1.5 11q2 5 4 13t3 10q57 9 90 21.5t39 29.5q2 1 2 4v5q1 9 -4 15.5t-14 7.5q-50 8 -87 35q-37 26 -61 54.5t-36 51.5t-12 25v0q-5 10 -5.5 20t0.5 19q5 13 24 20.5t32 12.5q3 1 7 2t6 3 q25 10 37 21.5t12 24.5q0 10 -8 19.5t-24 14.5v0q-5 1 -10 3t-11 2q-3 0 -8.5 -1.5t-8.5 -3.5q-12 -5 -23.5 -8.5t-19.5 -4.5q-5 0 -9.5 1.5t-8.5 3.5q0 5 1 10t1 11v1q3 51 3.5 107t-16.5 93q-25 57 -60 89q-36 32 -72 48.5t-67 20.5t-46 4v0v0z" />
</svg>