<svg viewBox="0 0 256 256" xmlns="http://www.w3.org/2000/svg">
  <path transform="scale(1, -1) translate(0, -256)" fill="currentColor" d="M244 114q-2 2 -4.5 3t-5.5 0l-34 -17l-55 31l51 29l35 -16q1 -1 3 -1t4 1t3 3.5t0 5t-4 3.5l-26 13l21 12q2 2 3 4.5t-0.5 5t-4.5 3.5t-5 -1l-21 -12l2 28q0 3 -2 5t-5 2.5t-5 -1.5t-2 -5l-3 -38l-51 -29v60l32 21q2 2 3 5t-0.5 5t-4.5 3t-6 -1l-24 -16v24q0 3 -2 5t-5 2 t-5 -2t-2 -5v-24l-24 16q-2 1 -5 0.5t-4.5 -3t-1 -5.5t3.5 -4l31 -21v-60l-57 32l-3 38q-1 3 -3 4.5t-5 1.5t-5 -2t-1 -5l2 -29l-21 12q-3 2 -5.5 1t-4 -3.5t-1 -5.5t3.5 -4l21 -12l-26 -13q-3 -2 -4 -4.5t1 -6t6 -3.5l2 1l36 17l56 -32l-60 -34l-34 16q-3 2 -5.5 1t-4 -3.5 t-0.5 -5.5t4 -4l26 -13l-18 -10q-2 -2 -3 -4.5t0.5 -5.5t5.5 -3l4 1l18 10l-2 -28q0 -3 1.5 -5t4.5 -3h1q2 0 4 2t2 5l3 38l61 34v-68l-32 -22q-3 -1 -3.5 -4t1.5 -6t5 -3t5 1l24 17v-21q0 -3 2 -5t5 -2t5 2t2 5v21l24 -16q1 -1 4 -1t5 2.5t1.5 5.5t-3.5 4l-31 22v68l55 -31 l3 -38q1 -3 3 -4.5t4 -1.5h1q3 0 4.5 2t1.5 5l-2 29l18 -11h4.5t5 3t0.5 5.5t-3 4.5l-18 10l26 13q2 2 3 4.5t0 5.5z" />
</svg>