<svg viewBox="0 0 1024 1024" xmlns="http://www.w3.org/2000/svg">
  <path transform="scale(1, -1) translate(0, -960)" fill="currentColor" d="M963 386q-2 6 -8.5 8t-12.5 0l-144 -72l-244 137l228 133l146 -70q1 -2 3 -2h3q5 0 8.5 2.5t6.5 7.5q2 6 0 12t-8 8l-125 61l104 61q6 4 7.5 10t-1.5 12t-9.5 7.5t-12.5 -0.5l-104 -63l10 136q0 8 -4.5 12.5t-10.5 5.5q-6 0 -11 -4t-6 -10l-12 -157l-227 -131v264l133 89 q6 4 7 10.5t-2 12.5q-4 6 -10.5 7t-12.5 -3l-115 -78v120q0 7 -4.5 11.5t-11.5 4.5t-11.5 -4.5t-4.5 -11.5v-120l-112 77q-6 3 -12.5 2t-9.5 -7q-4 -6 -2.5 -12.5t7.5 -9.5l131 -90v-267l-251 142l-13 157q0 7 -5.5 11.5t-12.5 2.5q-7 0 -11 -5t-3 -12l11 -136l-104 59 q-6 4 -12.5 2t-9.5 -8q-4 -6 -2 -12.5t8 -10.5l104 -59l-125 -62q-6 -3 -8 -9t0 -12q3 -5 6.5 -7.5t8.5 -2.5q1 0 3 0.5t3 1.5l144 72l250 -141l-264 -152l-144 70q-6 3 -12.5 0.5t-8.5 -8.5q-3 -6 -0.5 -12t8.5 -8l125 -61l-92 -53q-6 -4 -7 -10t1 -12q2 -4 6 -6t8 -2h4.5 t3.5 1l93 53l-9 -136q0 -7 4 -11.5t10 -6.5v0h2q6 0 11 4.5t5 10.5l11 158l262 157v-302l-133 -90q-6 -4 -7 -10t3 -12q2 -4 5.5 -5.5t6.5 -1.5t5.5 1t4.5 2l115 79v-109q0 -7 4.5 -11.5t11.5 -4.5t11.5 4.5t4.5 11.5v107l114 -77q2 -1 4.5 -2t4.5 -1q4 0 7.5 2t5.5 5 q4 6 2.5 12t-7.5 10l-131 90v300l243 -137l13 -159q0 -6 5 -10t11 -4h1h1q7 0 11 5t3 13l-11 136l93 -53q2 -1 3.5 -1.5t4.5 -0.5t7.5 2.5t6.5 5.5q4 6 2 12.5t-8 10.5l-93 52l125 63q6 2 8 8.5t-2 12.5v0z" />
</svg>