<svg viewBox="0 0 1024 1024" xmlns="http://www.w3.org/2000/svg">
  <path transform="scale(1, -1) translate(0, -960)" fill="currentColor" d="M776 285l-126 165q-8 9 -11.5 19.5t-3.5 21.5v336q0 42 -29.5 71.5t-71.5 29.5h-227q-42 0 -71.5 -29.5t-29.5 -71.5v-421q0 -16 6 -32.5t17 -29.5l240 -301q27 -36 67.5 -54.5t85.5 -18.5q57 0 104 29t72 81q24 49 18.5 104t-40.5 101v0zM307 896h227q29 0 49 -20 t20 -49v-91h-365v91q0 29 20 49t49 20v0zM768 91q-22 -43 -60.5 -67t-86.5 -24q-39 0 -72 16t-56 46l-240 301q-7 10 -11 20.5t-4 22.5v298h365v-213q0 -17 5.5 -33t15.5 -29l128 -163q29 -39 33.5 -85.5t-17.5 -89.5v0z" />
</svg>