<svg viewBox="0 0 256 256" xmlns="http://www.w3.org/2000/svg">
  <path transform="scale(1, -1) translate(0, -256)" fill="currentColor" d="M246 141l-56 21v36q0 9 -6.5 15.5t-15.5 6.5h-80q-9 0 -15.5 -6.5t-6.5 -15.5v-36l-56 -21q-3 -1 -4.5 -3.5t-0.5 -5t3 -3.5t4 -1h2l14 6v-91q0 -3 2.5 -5t5.5 -2t5 2t2 5v52h17v-13q0 -3 2 -5t5 -2h122q3 0 5 2t2 5v13h18v-52q0 -3 2 -5t5 -2t5 2t2 5v90l14 -5h3 q2 0 4 1t2.5 3.5t-1 5t-4.5 3.5zM88 206h80q4 0 6 -2t2 -6v-69h-96v69q0 4 2 6t6 2zM42 109v30l24 9v-19q-3 -1 -4.5 -3t-1.5 -4v-14h-18v1zM182 89h-108v26h108v-26zM214 109h-18v13q0 3 -1.5 5t-3.5 2v19l23 -9v-30z" />
</svg>