<svg viewBox="0 0 256 256" xmlns="http://www.w3.org/2000/svg">
  <path transform="scale(1, -1) translate(0, -256)" fill="currentColor" d="M215 150h-8l5 28q4 29 -14 50q-10 11 -23.5 17t-28.5 6h-35q-15 0 -28.5 -6t-22.5 -16.5t-13 -23.5t-1 -27l4 -29q-5 1 -10 1q-13 0 -21 -10t-8 -20t5.5 -18.5t13.5 -12.5l2 -1q2 -1 3 -1v-18q0 -18 8 -29.5t22 -13.5h1v-14q0 -3 2 -5t5 -2t5 2t2 5v14h96v-14 q0 -3 2.5 -5t5.5 -2t5 2t2 5v14h1q14 2 22 13t8 30v18l5 2q8 3 13 11.5t5 19t-8.5 20.5t-21.5 10zM70 219q7 9 17.5 13.5t22.5 4.5h36q12 0 22.5 -4.5t17.5 -13t10 -18.5t1 -21l-6 -40q-3 -6 -5 -23q-28 7 -58 7t-56 -7q-3 14 -7 22l-6 41q-2 11 1 21t10 18zM221 102l-1 -1 v0q-12 -4 -12 -13v-19q0 -11 -3 -18q-5 -10 -15 -11h-123q-11 2 -15 12q-3 7 -3 17v19q0 9 -11 13l-2 1q-5 2 -8 7t-3 10t4 11t11 6t13 -4q3 -7 8 -26q0 -3 3 -4t6 0q27 8 59.5 8t60.5 -8l2 -1q2 0 4 1.5t3 5.5q0 6 1.5 14t3.5 12q4 2 10.5 2t11.5 -5.5t5 -11t-3 -10.5 t-7 -7z" />
</svg>