<svg viewBox="0 0 256 256" xmlns="http://www.w3.org/2000/svg">
  <path transform="scale(1, -1) translate(0, -256)" fill="currentColor" d="M250 150q-2 7 -8 11.5t-13 5t-15 -0.5q-11 21 -34.5 34t-52 13t-51 -12.5t-33.5 -34.5q-7 1 -15 0t-14 -5t-8 -11t0 -14.5t7 -12.5q11 -10 24 -8q3 -19 -1 -46q0 -4 2 -6.5t6 -2.5h20v-10q0 -3 2 -5t5 -2t5 2t2 5v10h102v-10q0 -3 2 -5.5t5 -2.5t5 2.5t2 5.5v10h20 q4 0 6 2.5t2 5.5q-2 7 -2 19q-1 16 1 28q8 -2 13 0t10 7.5t6.5 13t-0.5 14.5zM127 199q24 0 44 -10t29 -28q-10 -5 -15 -13q-9 -14 -9 -38h-96q0 24 -9 38q-6 8 -15 13q10 17 29 27.5t42 10.5zM233 133v-1q-4 -4 -6.5 -4t-10.5 2q-3 2 -5.5 0t-3.5 -4q-5 -19 -2 -52h-154 q1 12 1 24q0 16 -3 28q-1 3 -4 4t-6 0q-9 -4 -17 3q-2 2 -3 6t0 7q2 5 10 6t17 -2t13 -9.5t5 -15.5q2 -7 2 -17q0 -5 3 -8t8 -3h101q5 0 8.5 3t3.5 8q0 22 6 32q5 7 13.5 10t16.5 2t10 -6q1 -3 0.5 -7t-3.5 -6z" />
</svg>