<svg viewBox="0 0 1024 1024" xmlns="http://www.w3.org/2000/svg">
  <path transform="scale(1, -1) translate(0, -960)" fill="currentColor" d="M981 490l-231 86v152q0 32 -22.5 54.5t-53.5 22.5h-322q-32 0 -54.5 -23t-22.5 -54v-152l-232 -85q-6 -2 -9 -8.5t0 -12.5q1 -4 5 -7.5t9 -3.5q1 0 2.5 0.5t2.5 1.5l72 27v-381q0 -7 4.5 -11.5t11.5 -4.5t11.5 4.5t4.5 11.5v219h96v-60q0 -8 4.5 -12t11.5 -4h486 q7 0 11.5 4t4.5 12v60h96v-220q0 -8 4.5 -12t11.5 -4t11.5 4t4.5 12v233v1.5v1.5v2v2v140l72 -27q1 0 2.5 -0.5t2.5 -0.5q5 0 9 2.5t5 8.5q3 7 0.5 12.5t-9.5 8.5v0zM352 774h320q19 0 32 -13t13 -31v-165v0v0v-123h-411v124v0v0v162q0 19 13.5 32.5t32.5 13.5v0zM157 358 v141l117 43v-102h-5q-7 0 -11.5 -4.5t-4.5 -11.5v-66h-96zM739 282h-454v126h454v-126zM867 358h-96v66q0 7 -4.5 11.5t-11.5 4.5h-5v101l117 -43v-140v0z" />
</svg>