<svg viewBox="0 0 1024 1024" xmlns="http://www.w3.org/2000/svg">
  <path transform="scale(1, -1) translate(0, -960)" fill="currentColor" d="M867 515v32q0 42 -29.5 71.5t-71.5 29.5h-508q-42 0 -71.5 -29.5t-29.5 -71.5v-32q-30 -7 -50.5 -32t-20.5 -57v-125q0 -59 27.5 -108.5t72.5 -80.5v-1v-1v-126q0 -7 4 -11.5t12 -4.5q7 0 11.5 4.5t4.5 11.5v110q21 -10 46 -16t51 -6h397q26 0 50.5 6t47.5 16v-110 q0 -7 4 -11.5t12 -4.5q7 0 11.5 4.5t4.5 11.5v126v1v1q44 31 71.5 80.5t27.5 108.5v125q-1 33 -22 57.5t-52 31.5v0zM835 547v-30q-33 -5 -56.5 -31t-23.5 -60v-101q0 -29 -20 -49t-49 -20h-158v360h238q29 0 49 -20t20 -49zM258 616h238v-360h-158q-29 0 -49 20t-20 49v101 q0 34 -23.5 60t-56.5 31v30q0 29 20 49t49 20v0zM907 301q0 -41 -15 -77q-16 -36 -42.5 -62.5t-62.5 -42.5q-36 -15 -77 -15h-396q-41 0 -77 15q-36 16 -62.5 42.5t-42.5 62.5q-15 36 -15 77v125q0 25 17.5 42t41.5 17q25 0 42 -17.5t17 -41.5v-101q0 -42 29.5 -71.5 t71.5 -29.5h176v0v0v0v0h174q42 0 71.5 29.5t29.5 71.5v101q0 25 17.5 42t41.5 17t42 -17.5t18 -41.5v-125h1zM274 738h475q7 0 11.5 4t4.5 12v158q0 7 -4.5 11.5t-11.5 4.5h-475q-8 0 -12 -4.5t-4 -11.5v-158q0 -8 5 -12t11 -4v0zM290 896h443v-126h-443v126v0z" />
</svg>