<svg viewBox="0 0 1024 1024" xmlns="http://www.w3.org/2000/svg">
  <path transform="scale(1, -1) translate(0, -960)" fill="currentColor" d="M949 366q0 41 -25 73.5t-63 43.5q5 21 8 43t3 44q-1 73 -29 139q-28 65 -77 113.5t-114 77.5q-66 28 -140 28t-140 -28q-65 -29 -113.5 -77.5t-76.5 -113.5q-28 -66 -28 -139q0 -23 2.5 -44.5t8.5 -42.5q-39 -11 -63.5 -43t-24.5 -74q0 -33 17 -61.5t47 -43.5 q-4 -7 -5.5 -15.5t-1.5 -18.5v-163q0 -7 4.5 -11.5t11.5 -4.5h80v-64q0 -7 4.5 -11.5t11.5 -4.5q8 0 12 4.5t4 11.5v64h501v-64q0 -7 4.5 -11.5t11.5 -4.5t11.5 4.5t4.5 11.5v64h80q7 0 11.5 4.5t4.5 11.5v163q0 9 -2 17t-4 17q30 14 47 43t17 62v0zM512 896q68 0 128 -26 q59 -26 103.5 -70t70.5 -104q26 -59 26 -126q0 -22 -2.5 -42.5t-8.5 -39.5v0v0q-51 0 -85.5 -35.5t-34.5 -84.5q0 -11 2 -20.5t4 -19.5l-171 21q-17 2 -33 2t-33 -2l-169 -23q3 10 5.5 20.5t2.5 19.5q0 51 -35.5 85.5t-84.5 34.5v0v0q-5 21 -8 41.5t-3 40.5q0 68 25 128 q26 59 70 103.5t104 70.5q59 26 127 26v0zM107 366q0 34 22.5 59.5t56.5 28.5h4.5h6.5q37 0 62.5 -26t25.5 -62q0 -12 -3.5 -23t-9.5 -21l-64 -8q-16 -3 -29 -10t-22 -18l-0.5 0.5l-1.5 1.5q-21 11 -34.5 32t-13.5 46v0zM859 80h-694v147q0 21 13.5 36.5t34.5 18.5l72 9v0v0 l198 26q15 2 29 2t29 -2l270 -35q21 -3 34.5 -18.5t13.5 -36.5v-147zM869 288l-1 -1l1 1q-11 10 -24 16.5t-29 9.5l-64 8q-6 10 -9.5 21t-3.5 23q0 38 26 63t62 25h6h5q34 -3 56.5 -28.5t22.5 -59.5q0 -25 -13.5 -46t-34.5 -32v0z" />
</svg>