<svg viewBox="0 0 1024 1024" xmlns="http://www.w3.org/2000/svg">
  <path transform="scale(1, -1) translate(0, -960)" fill="currentColor" d="M859 525q-12 0 -23 -1.5t-22 -5.5l20 132q8 52 -6 102t-47 90q-36 40 -87.5 63t-109.5 23h-142q-58 0 -109 -23t-87 -63q-33 -40 -47 -90t-5 -102l20 -135q-13 5 -26.5 8t-27.5 3q-50 0 -77 -39t-27 -73t19.5 -64.5t50.5 -43.5q2 -2 4 -2t3 -2l1 -1q11 -5 14.5 -7t5.5 -4 v-77q0 -67 29 -109t81 -50h1h1h12q0 -1 -0.5 -2.5t-0.5 -3.5v-64q0 -7 4.5 -11.5t11.5 -4.5t11.5 4.5t4.5 11.5v62q0 2 -0.5 4t-1.5 3h411q0 -1 -0.5 -2.5t-0.5 -2.5v-64q0 -7 4.5 -11.5t11.5 -4.5t11.5 4.5t4.5 11.5v62q0 2 -0.5 3t-1.5 2h16v0v0h1h1q51 6 80.5 49 t29.5 111v79q1 1 5 3.5t14 5.5h2q2 1 3.5 1.5t2.5 1.5q29 14 48.5 44t19.5 65q0 36 -30 75t-81 39v0zM270 821q32 36 76.5 55.5t95.5 19.5h142q50 0 95 -19.5t76 -55.5q30 -35 42 -77.5t5 -89.5l-24 -160q-10 -19 -15.5 -50.5t-8.5 -53.5q-36 11 -96.5 21.5t-140.5 10.5 q-64 0 -123.5 -8t-111.5 -24q-5 20 -14 50t-18 48v0v2l-26 166q-6 44 6 87t40 78zM888 333q-1 0 -2.5 -1t-2.5 -1l-1 -1q-14 -5 -26.5 -13.5t-12.5 -26.5v-77q0 -55 -21 -88.5t-60 -39.5h-496q-39 6 -60.5 39.5t-21.5 86.5v77q0 18 -13.5 26.5t-26.5 13.5l-3 2 q-1 0 -2.5 0.5t-2.5 0.5q-22 10 -36.5 33t-14.5 47q0 22 18 51t54 29q17 0 32 -4.5t29 -12.5q8 -16 19 -54.5t14 -56.5q1 -3 3 -5.5t5 -3.5q3 -2 6 -2.5t7 0.5q53 18 115 27.5t128 9.5q89 0 152 -13t95 -24h2h2q3 0 5 1t3 2q4 3 5.5 5.5t2.5 5.5q3 28 9.5 63t13.5 49 q12 6 25 9.5t28 3.5q37 0 57.5 -29.5t20.5 -50.5q1 -24 -12.5 -47t-35.5 -31v0z" />
</svg>