<svg viewBox="0 0 1024 1024" xmlns="http://www.w3.org/2000/svg">
  <path transform="scale(1, -1) translate(0, -960)" fill="currentColor" d="M915 555h-65v288q0 35 -25 60t-60 25h-504q-36 0 -61.5 -25t-25.5 -60v-286h-65q-7 0 -11.5 -4.5t-4.5 -11.5v-383q0 -34 25 -59t60 -25v-90q0 -7 4 -11.5t12 -4.5q7 0 11.5 4.5t4.5 11.5v88h603v-88q0 -7 4.5 -11.5t11.5 -4.5t11.5 4.5t4.5 11.5v88q35 0 60 25t25 60 v382q1 7 -4 11.5t-11 4.5v0zM206 843q0 22 16 37.5t39 15.5h504q21 0 37 -15.5t16 -37.5v-286h-66q-7 0 -11.5 -4.5t-4.5 -11.5v-200h-448v198q0 7 -4.5 11.5t-11.5 4.5h-64v288h-2zM899 157q0 -22 -15.5 -38.5t-37.5 -16.5h-667q-21 0 -37.5 16t-16.5 39v366h131v-200 q0 -7 4.5 -11.5t11.5 -4.5h480q7 0 11.5 4.5t4.5 11.5v200h130v-366h1z" />
</svg>