<svg viewBox="0 0 256 256" xmlns="http://www.w3.org/2000/svg">
  <path transform="scale(1, -1) translate(0, -256)" fill="currentColor" d="M251 91v54q0 8 -5 14.5t-13 8.5v14q0 17 -12 29t-29 12h-128q-17 0 -29 -12t-12 -29v-14q-8 -2 -13 -8.5t-5 -14.5v-54q0 -11 7.5 -19.5t18.5 -9.5v-22q0 -3 2 -5t5 -2t5.5 2t2.5 5v22h164v-22q0 -3 2.5 -5t5.5 -2t5 2t2 5v22q11 1 18.5 9.5t7.5 19.5zM219 182v-13 q-9 0 -16 -7t-7 -17v-17h-61v81h57q11 0 19 -8t8 -19zM64 209h57v-82h-61v18q0 9 -7 16t-16 8v12q0 12 8 20t19 8zM221 75h-186q-7 0 -11.5 5t-4.5 11v54q0 4 3 7t7 3h6q4 0 7 -3t3 -7v-25q0 -3 2 -5t5 -2h151q3 0 5 2t2 5v25q0 4 3 7t7 3h7q4 0 7 -3t3 -7v-54 q0 -6 -4.5 -11t-11.5 -5z" />
</svg>