<svg viewBox="0 0 256 256" xmlns="http://www.w3.org/2000/svg">
  <path transform="scale(1, -1) translate(0, -256)" fill="currentColor" d="M229 158h-13v69q0 10 -7.5 17t-17.5 7h-126q-10 0 -17 -7t-7 -17v-69h-14q-3 0 -5 -2t-2 -5v-96q0 -9 6 -16t15 -8v-19q0 -3 2 -5t5 -2t5.5 2t2.5 5v19h144v-19q0 -3 2.5 -5t5.5 -2t5 2t2 5v19q9 1 15 8t6 16v96q0 3 -2 5t-5 2zM55 227q0 4 3 7t7 3h126q4 0 7.5 -3 t3.5 -7v-69h-14q-3 0 -5 -2t-2 -5v-47h-106v47q0 3 -2 5t-5 2h-14v69h1zM222 55q0 -4 -3.5 -7t-7.5 -3h-166q-4 0 -7.5 3t-3.5 7v89h27v-47q0 -3 2 -5t5 -2h120q3 0 5 2t2 5v47h27v-89z" />
</svg>