<svg viewBox="0 0 1024 1024" xmlns="http://www.w3.org/2000/svg">
  <path transform="scale(1, -1) translate(0, -960)" fill="currentColor" d="M987 534q-7 24 -27 39t-48 17q-14 2 -30.5 0.5t-33.5 -4.5v0v1q-20 43 -54 79q-34 35 -78 59.5t-97 38.5q-54 14 -112 14q-54 0 -105 -14t-94 -39t-76 -60q-34 -36 -54 -79q-17 3 -34.5 4.5t-31.5 -0.5q-28 -2 -48 -17t-27 -39q-9 -26 -2 -53t26 -46q20 -19 45.5 -26 t51.5 1q11 -57 6.5 -120.5t-7.5 -81.5q-1 -4 0 -7t3 -6q2 -2 5.5 -4t7.5 -2h93v-53q0 -7 4 -11.5t12 -4.5q7 0 11.5 4.5t4.5 11.5v53h432v-53q0 -7 4 -11.5t12 -4.5q7 0 11.5 4.5t4.5 11.5v53h92q4 0 7.5 1.5t5.5 4.5q3 3 4 6t-1 7q-3 18 -7.5 81.5t6.5 120.5q37 -12 57 -3 t40 28q17 18 23.5 45.5t-2.5 53.5v0zM507 744q53 0 101 -12q49 -12 89.5 -34.5t71.5 -53.5t49 -70q-21 -8 -38.5 -21t-29.5 -31q-22 -35 -27.5 -75t-5.5 -81q0 -1 -0.5 -1h-1.5h-406h-1.5t-0.5 1q0 40 -6 80.5t-27 75.5q-12 18 -28.5 31t-35.5 21q18 39 49 70q30 31 69 53.5 t85 34.5t94 12v0zM941 458q-18 -17 -31 -21.5t-49 9.5q-4 2 -7.5 2t-5.5 -2q-4 -1 -5.5 -4l-2.5 -5q-14 -52 -12.5 -116t6.5 -99h-644q5 33 7.5 97t-11.5 118l-4 6t-4 5q-4 1 -7.5 1t-5.5 -1q-21 -10 -42 -6.5t-38 19.5q-12 12 -16.5 30.5t0.5 34.5q7 21 23 27.5t25 6.5 q32 4 71.5 -9t59.5 -45q19 -29 24 -65t5 -73q0 -14 9.5 -24t23.5 -10h407q14 0 23.5 10t9.5 24q0 36 5 72t24 66q22 32 60.5 44t70.5 10q9 -1 25 -7t23 -27q5 -19 0.5 -37t-17.5 -31v0z" />
</svg>