<svg viewBox="0 0 256 256" xmlns="http://www.w3.org/2000/svg">
  <path transform="scale(1, -1) translate(0, -256)" fill="currentColor" d="M220 147v6q0 12 -8.5 20t-19.5 8h-128q-11 0 -19.5 -8t-8.5 -20v-6q-8 -3 -13 -9.5t-5 -15.5v-31q0 -15 7 -27.5t18 -20.5v-31q0 -3 2 -5t5 -2t5.5 2t2.5 5v23q11 -4 21 -4h99q11 0 21 4v-23q0 -3 2 -5t5 -2t5.5 2t2.5 5v31q11 8 17.5 21t6.5 27v31q0 9 -5 15.5t-13 9.5z M206 153v-5q-9 -3 -14.5 -9.5t-5.5 -16.5v-25q0 -6 -4 -10t-10 -4h-37v84h57q6 0 10 -4t4 -10zM64 167h57v-84h-37q-6 0 -10 4.5t-4 10.5v25q0 9 -5.5 16t-14.5 9v5q0 6 4 10t10 4zM224 91q0 -19 -13.5 -32.5t-32.5 -13.5h-100q-19 0 -32.5 13.5t-13.5 32.5v31q0 5 3.5 8.5 t8.5 3.5t8.5 -3.5t3.5 -8.5v-25q0 -11 8.5 -19.5t20.5 -8.5h87q11 0 19.5 8.5t8.5 19.5v25q0 5 3.5 8.5t8.5 3.5t8.5 -3t3.5 -9v-31zM68 197h119q3 0 5 2t2 5v40q0 3 -2 5t-5 2h-119q-3 0 -5 -2t-2 -5v-40q1 -3 3 -5t4 -2zM76 237h104v-26h-104v26z" />
</svg>