<svg viewBox="0 0 256 256" xmlns="http://www.w3.org/2000/svg">
  <path transform="scale(1, -1) translate(0, -256)" fill="currentColor" d="M230 157v10q0 12 -9 21t-21 9h-144q-12 0 -21 -9t-9 -21v-10q-9 -1 -15 -8t-6 -16v-32q0 -10 7 -17.5t17 -7.5h6v-10q0 -3 2 -5t5 -2t5 2t2 5v10h159v-10q0 -3 2 -5t5 -2t5 2t2 5v10h6q10 0 17 7.5t7 17.5v32q-1 9 -7 16t-15 8zM56 183h144q7 0 11.5 -4.5t4.5 -11.5v-9 h-9q-3 0 -5 -2.5t-2 -5.5v-20h-144v20q0 3 -2.5 5.5t-5.5 2.5h-8v9q0 7 4.5 11.5t11.5 4.5zM237 101q0 -4 -3 -7.5t-7 -3.5h-198q-4 0 -7 3.5t-3 7.5v32q0 4 3 7.5t7 3.5h13v-20q0 -3 2 -5.5t5 -2.5h158q3 0 5 2.5t2 5.5v20h13q4 0 7 -3.5t3 -7.5v-32z" />
</svg>