<svg viewBox="0 0 1024 1024" xmlns="http://www.w3.org/2000/svg">
  <path transform="scale(1, -1) translate(0, -960)" fill="currentColor" d="M907 555v0v2v1v47q0 44 -31.5 76.5t-77.5 32.5h-574q-44 0 -76.5 -32t-32.5 -77v-47v-2v-1v0q-35 0 -60 -25t-25 -60v-129q0 -35 25 -60t60 -25h35q0 -1 -0.5 -2.5t-0.5 -2.5v-49q0 -8 4.5 -12t11.5 -4t11.5 4t4.5 12v49q0 1 -0.5 2.5t-1.5 2.5h661q0 -1 -1 -2.5t-1 -2.5 v-49q0 -8 4.5 -12t11.5 -4q8 0 12 4t4 12v49v2.5t-1 2.5h35q35 0 60 25t25 60v129q2 35 -22.5 60t-59.5 25zM149 558v47q0 31 22 54t55 23h576q31 0 53.5 -22.5t22.5 -54.5v-47v-2v-1h-48q-7 0 -11.5 -4.5t-4.5 -11.5v-91h-603v91q0 7 -4.5 11.5t-11.5 4.5h-48l1 1t1 2v0z M960 339q0 -21 -15.5 -37t-37.5 -16h-790q-22 0 -37.5 16t-15.5 37v130q0 21 15.5 37t37.5 16h62v-92q0 -7 4.5 -11.5t11.5 -4.5h634q7 0 11.5 4.5t4.5 11.5v92h62q22 0 37.5 -16t15.5 -37v-130z" />
</svg>