<svg viewBox="0 0 1024 1024" xmlns="http://www.w3.org/2000/svg">
  <path transform="scale(1, -1) translate(0, -960)" fill="currentColor" d="M907 619h-25q-15 0 -28.5 -5.5t-24.5 -13.5v110q0 35 -25 60t-60 25h-466q-34 0 -59 -25t-25 -60v-110q-11 8 -24.5 13.5t-28.5 5.5h-24q-35 0 -60 -25t-25 -60v-214q0 -44 31 -75.5t75 -31.5v-96q0 -7 4 -11.5t12 -4.5q7 0 11.5 4.5t4.5 11.5v96h683v-96q0 -7 4.5 -11.5 t11.5 -4.5t11.5 4.5t4.5 11.5v96q44 0 74.5 31.5t30.5 75.5v216q2 35 -23 59t-60 24v0zM278 763h466q22 0 37.5 -15.5t15.5 -37.5v-259h-570v83v0v0v176q0 23 15 38t36 15v0zM960 320q0 -31 -22 -53t-53 -22h-746q-31 0 -53 22t-22 53v216q0 22 15.5 37.5t37.5 15.5h25 q22 0 37.5 -15t15.5 -36v-10v0v0v-90q0 -7 4.5 -11.5t11.5 -4.5h603q8 0 12 4.5t4 11.5v100q0 21 16 36.5t37 15.5h26q21 0 37 -15.5t16 -36.5v-218h-2z" />
</svg>