<svg viewBox="0 0 1024 1024" xmlns="http://www.w3.org/2000/svg">
  <path transform="scale(1, -1) translate(0, -960)" fill="currentColor" d="M976 66h-82v395q0 33 -24 57t-57 24h-82q7 21 11.5 42.5t4.5 42.5q0 31 -8 62t-24 58q-32 53 -84.5 83.5t-113.5 31.5h-5h-3q-63 -1 -115 -31.5t-84 -83.5q-15 -27 -23.5 -57t-8.5 -63q0 -21 4 -42.5t12 -42.5h-81q-34 0 -58 -24t-24 -57v-395h-83q-7 0 -11.5 -4.5 t-4.5 -11.5q0 -8 4.5 -12t11.5 -4h928q7 0 11.5 4t4.5 12q0 7 -4.5 11.5t-11.5 4.5v0zM686 731q14 -23 21.5 -49.5t7.5 -52.5v-4.5v-3.5l-97 67q-35 24 -55.5 61.5t-21.5 79.5q45 -6 83 -32t62 -66v0zM338 731q27 46 72 72.5t99 26.5q1 -50 24 -95t65 -74l111 -77 q-5 -20 -13.5 -39.5t-20.5 -37.5q-6 -8 -13 -16.5t-16 -15.5l-25 31q-27 32 -65.5 49t-80.5 16q-14 0 -27.5 1.5t-26.5 6.5l-114 40v3v4q1 28 8.5 54.5t22.5 50.5v0zM314 586l97 -36q16 -6 33.5 -8t33.5 -1q34 1 65.5 -13t53.5 -40l24 -30q-24 -16 -51.5 -24t-55.5 -8h-3h-2 q-48 1 -90.5 22.5t-71.5 60.5q-12 17 -20.5 36.5t-12.5 40.5zM858 66h-328v177l81 -85q3 -2 6 -3t5 -1q4 0 6.5 1t5.5 3q4 5 4 11.5t-4 11.5l-111 112q-2 2 -4.5 3.5t-6.5 1.5t-6.5 -1.5t-4.5 -3.5l-112 -112q-5 -5 -5 -11.5t5 -11.5q5 -4 11 -4t11 4l85 85v0v0v-177h-334 v395q0 20 14.5 34.5t34.5 14.5h96h1h1q3 -6 7 -11t7 -11q34 -46 82.5 -71t103.5 -25h2h3h2h1q55 1 104 26.5t81 69.5q4 6 7.5 11t7.5 11q1 0 2.5 -0.5t3.5 -0.5h90q20 0 34.5 -14.5t14.5 -35.5v-395h-4v2z" />
</svg>