<svg viewBox="0 0 1024 1024" xmlns="http://www.w3.org/2000/svg">
  <path transform="scale(1, -1) translate(0, -960)" fill="currentColor" d="M374 246l-140 -140v721q0 7 -4.5 11.5t-11.5 4.5q-8 0 -12 -4.5t-4 -11.5v-721l-141 140q-5 5 -11.5 5t-11.5 -5q-4 -4 -4 -10.5t4 -11.5l170 -168q2 -2 5.5 -3.5t5.5 -1.5q4 0 6.5 1.5t4.5 3.5l167 168q5 5 5 11.5t-5 10.5q-5 5 -12 5t-11 -5v0zM558 811v0v0l82 2 q7 0 11.5 5t4.5 11t-5 11t-11 5v0v0l-80 -2q-7 0 -11.5 -5t-4.5 -11q-1 -6 3 -11t11 -5zM558 558v0v0l208 2q8 0 12 5t4 11q0 7 -4 11.5t-12 4.5l-208 -2q-7 0 -11.5 -5t-4.5 -11q0 -7 4.5 -11.5t11.5 -4.5zM558 306v0v0l292 1q7 0 11.5 5t4.5 11q0 7 -4.5 11.5t-11.5 4.5v0 v0l-292 -1q-7 0 -11.5 -5t-4.5 -11q0 -8 4.5 -12t11.5 -4v0zM976 85v0v0l-418 -2q-7 0 -11.5 -4.5t-4.5 -11.5t4.5 -11.5t11.5 -4.5v0v0l418 2q7 0 11.5 4.5t4.5 11.5t-4.5 11.5t-11.5 4.5z" />
</svg>