<svg viewBox="0 0 1024 1024" xmlns="http://www.w3.org/2000/svg">
  <path transform="scale(1, -1) translate(0, -960)" fill="currentColor" d="M408 155l-155 -149h-1t-1 -1l-3 907q0 7 -4.5 11.5t-11.5 4.5v0v0q-7 0 -11.5 -5t-4.5 -11l3 -907v0v0l-160 149q-5 4 -11 4t-11 -6t-5 -12t6 -10l160 -149q9 -6 18.5 -9.5t18.5 -3.5q11 0 20.5 3.5t18.5 10.5l156 149q5 5 5 11.5t-5 11.5q-3 4 -10 4.5t-12 -3.5v0z M987 757l-166 158q-16 13 -38 13t-39 -13l-157 -149q-5 -4 -5 -10.5t5 -11.5t11.5 -5t11.5 5l155 149h0.5t0.5 1l5 -910q0 -7 4.5 -11.5t11.5 -4.5v0v0q7 0 11.5 5t4.5 11l-3 907v0v0l165 -157q2 -2 4.5 -3t6.5 -1t6.5 1t4.5 3q5 5 5 11.5t-5 11.5v0z" />
</svg>