<svg viewBox="0 0 1024 1024" xmlns="http://www.w3.org/2000/svg">
  <path transform="scale(1, -1) translate(0, -960)" fill="currentColor" d="M374 246l-140 -140v721q0 7 -4.5 11.5t-11.5 4.5q-8 0 -12 -4.5t-4 -11.5v-721l-141 140q-5 5 -11.5 5t-11.5 -5q-4 -4 -4 -10.5t4 -11.5l170 -168q2 -2 5.5 -3.5t5.5 -1.5q4 0 6.5 1.5t4.5 3.5l167 168q5 5 5 11.5t-5 10.5q-5 5 -12 5t-11 -5v0zM638 85l-80 1v0v0 q-6 0 -11 -4t-5 -12q0 -7 4.5 -11.5t11.5 -4.5l80 -1v0v0q6 0 11 4.5t5 11.5q0 6 -4 10.5t-12 5.5zM765 338l-208 1v0v0q-7 0 -11.5 -4.5t-4.5 -11.5t4.5 -11.5t11.5 -4.5l208 -1v0v0q7 0 11.5 4t4.5 12q0 6 -4.5 11t-11.5 5zM850 590l-292 2v0v0q-7 0 -11.5 -4.5 t-4.5 -11.5t4.5 -11.5t11.5 -4.5l292 -2v0v0q7 0 11.5 4.5t4.5 11.5q0 8 -5 12t-11 4v0zM976 843l-418 2v0v0q-7 0 -11.5 -4.5t-4.5 -11.5t4.5 -11.5t11.5 -4.5l418 -2v0v0q7 0 11.5 4.5t4.5 11.5t-4.5 11.5t-11.5 4.5z" />
</svg>