<svg viewBox="0 0 1024 1024" xmlns="http://www.w3.org/2000/svg">
  <path transform="scale(1, -1) translate(0, -960)" fill="currentColor" d="M480 163l-141 -141v890q0 7 -4.5 11.5t-11.5 4.5t-11.5 -4.5t-4.5 -11.5v-890l-141 141q-4 5 -10.5 5t-11.5 -5t-5 -11t5 -11l170 -168q2 -3 5 -4t6 -1q2 0 5.5 1t5.5 4l170 168q4 5 4 11t-4 11q-8 5 -14.5 5t-11.5 -5v0zM870 0h-108l102 141q2 3 3 7.5t-1 8.5 q-3 3 -6.5 5.5t-8.5 2.5h-129q-8 0 -12 -4.5t-4 -11.5t4 -11.5t12 -4.5h97l-102 -141q-3 -4 -3.5 -8t1.5 -8q3 -4 6.5 -6t8.5 -2h139q7 0 11.5 4.5t4.5 11.5t-3.5 11.5t-11.5 4.5zM829 728q2 0 4.5 1t4.5 2l18 -37q2 -3 6 -6t8 -3h4.5t2.5 1q6 3 8 9t-2 12l-104 211 q-3 9 -13.5 9t-15.5 -9l-105 -211q-3 -6 -1 -12t7 -9q6 -2 12.5 0t8.5 7l19 37q3 -2 5 -3t5 -1h128v2zM765 877l59 -117h-117l58 117v0z" />
</svg>