<svg viewBox="0 0 256 256" xmlns="http://www.w3.org/2000/svg">
  <path transform="scale(1, -1) translate(0, -256)" fill="currentColor" d="M91 80l-30 -30v173q0 3 -2 5t-5 2t-5 -2t-2 -5v-173l-30 30q-2 2 -5 2t-5 -2t-2 -5t2 -5l42 -42q2 -2 5 -2t5 2l42 42q2 2 2 5t-2 5t-5 2t-5 -2zM140 216h20q3 0 5 2.5t2 5.5t-2 4.5t-5 1.5h-20q-3 0 -5 -2t-2 -5t2 -5t5 -2zM140 153h52q3 0 4.5 2t1.5 5t-2 5t-5 2h-52 q-3 0 -5 -2t-2 -5t2.5 -5t5.5 -2zM140 89l72 1q3 0 5 2t2 5t-2 5t-5 2l-73 -1q-3 0 -5 -2t-2 -5t2.5 -5t5.5 -2zM244 40h-104q-3 0 -5 -2t-2 -5t2 -5t5 -2h104q3 0 5 2.5t2 5.5t-2 4.5t-5 1.5z" />
</svg>