<svg viewBox="0 0 1024 1024" xmlns="http://www.w3.org/2000/svg">
  <path transform="scale(1, -1) translate(0, -960)" fill="currentColor" d="M27 474q-1 0 -3 -1.5t-2 -3.5l-6 -58l6 -54q0 -1 1.5 -3t3.5 -2q3 0 3 1t2 4v0v0v0l6 54l-6 58q0 1 -2 3t-3 2v0zM69 504q0 1 -1.5 3t-3.5 2q-1 0 -3 -1.5t-2 -3.5l-9 -88l9 -86q1 -2 2 -3.5t3 -1.5t3.5 1t1.5 4l11 86zM222 586q-3 0 -4.5 -1.5t-1.5 -5.5l-8 -165l6 -107 q0 -3 1.5 -4.5t5.5 -1.5q3 0 4.5 1.5t1.5 4.5v0l7 107l-7 165q3 3 1 5t-6 2v0zM142 530q-1 0 -3 -1.5t-3 -3.5l-6 -109l6 -107q0 -1 1.5 -3t4.5 -2q4 0 5 1t2 4l11 107l-11 107q-1 1 -2 4t-5 3v0zM304 301q4 0 7 3t3 6l6 104l-6 220q0 3 -3 6t-7 3t-7 -3t-3 -6l-6 -220 l6 -104q0 -3 3 -6t7 -3zM469 299q5 0 8 3.5t3 7.5v0v0l5 103l-5 253q0 4 -4 7.5t-7 3.5q-5 0 -8 -3.5t-3 -7.5l-7 -255l5 -102q1 -3 4.5 -6.5t8.5 -3.5v0zM386 301q4 0 7.5 3t3.5 8v0l6 102l-6 220q0 4 -3.5 7.5t-7.5 3.5q-5 0 -8.5 -3.5t-3.5 -7.5l-6 -220l6 -102 q0 -5 3 -8t9 -3zM184 302q1 0 3.5 1.5t2.5 5.5l10 107l-10 99q0 4 -1 5.5t-5 1.5t-6 -1.5t-2 -5.5l-6 -102l6 -107q0 -3 2 -3.5t6 -0.5v0zM102 307q2 0 3.5 1.5t1.5 3.5l11 102l-9 108q0 1 -1.5 3.5t-5.5 2.5q-1 0 -2.5 -1t-1.5 -4l-10 -107l10 -102q1 -5 2.5 -6l1.5 -1v0z M429 638q-5 0 -8 -3t-3 -8l-5 -213l5 -102q0 -5 3 -8t8 -3t8 3t3 8v0l6 102l-6 213q-2 4 -5.5 7.5t-5.5 3.5zM262 301q4 0 5.5 1.5t1.5 4.5l6 107l-6 200q0 4 -2.5 5.5t-4.5 1.5q-3 0 -4.5 -1.5t-1.5 -5.5l-6 -201l6 -107q0 -3 1.5 -4t4.5 -1zM354 310v0l6 104l-6 224 q0 4 -3.5 8t-8.5 4q-3 0 -6.5 -3.5t-4.5 -8.5l-6 -224l6 -104q0 -3 3.5 -7t7.5 -4q5 1 8.5 4.5t3.5 6.5v0zM886 546q-13 0 -24.5 -2t-23.5 -8q-3 41 -21 77q-19 36 -47.5 62.5t-66.5 42.5q-37 15 -79 15q-20 0 -40 -3.5t-37 -9.5q-7 -1 -9 -4.5t-2 -8.5v-387q0 -5 4 -9t9 -4 h337q51 0 86.5 35.5t35.5 86.5q1 47 -34.5 82t-87.5 35v0zM512 704q-5 0 -9 -4t-4 -9l-5 -275l5 -102q0 -5 4 -9t9 -4t9 4t4 9v0l6 102l-6 274q0 6 -4 10t-9 4v0zM115 224q-9 1 -13 3.5t-4 7.5q0 4 2 5.5t9 1.5q5 0 10 -2t11 -8l12 11q-4 7 -12.5 10t-20.5 3 q-13 0 -22.5 -7.5t-9.5 -19.5q0 -13 7.5 -18.5t19.5 -8.5q13 -2 17 -5t4 -8t-4 -7.5t-12 -2.5q-5 0 -12 2t-11 9l-11 -11q5 -8 15 -12.5t22 -4.5q19 0 28 7.5t9 20.5q-1 18 -12 24t-22 10v0zM200 261q-19 0 -29.5 -12.5t-10.5 -35.5q0 -21 10 -34.5t30 -13.5t30 12.5 t10 35.5q0 20 -11 34t-29 14zM200 186q-10 0 -15.5 7.5t-5.5 20.5q0 14 5 21.5t16 7.5q10 0 15.5 -7.5t5.5 -21.5q-1 -13 -5 -20.5t-16 -7.5zM312 208q0 -10 -4.5 -16t-13.5 -6q-8 0 -12.5 6t-4.5 16v53h-18v-53q0 -20 9.5 -31.5t27.5 -11.5q17 0 27 11.5t10 31.5v53h-18 l-3 -53v0zM410 219v-10.5v-10.5q-2 2 -4 5t-3 7l-32 48h-17v-92h17v42v11v10q1 -1 3 -4.5t4 -6.5l33 -50h18v91h-18zM478 261h-27v-91h27q17 0 32.5 10.5t15.5 37.5q-1 20 -14 31.5t-34 11.5zM478 186h-11v56h10q13 0 20 -7t7 -21q1 -15 -5.5 -21.5t-20.5 -6.5zM579 242 q5 0 9.5 -2t8.5 -8l17 6q-3 9 -11.5 15t-21.5 6q-17 0 -28.5 -12.5t-11.5 -35.5q0 -21 11 -34.5t29 -13.5q13 0 21 5t12 16l-16 10q-3 -5 -7 -8.5t-10 -3.5q-10 0 -16.5 8t-6.5 21q2 15 7 23t14 8v0zM648 261h-18v-91h55v17h-37v74zM731 261q-19 0 -29.5 -12.5t-10.5 -35.5 q0 -21 10 -34.5t30 -13.5q21 0 30.5 12.5t9.5 35.5q1 20 -9 34t-31 14zM731 186q-9 0 -15 7.5t-6 20.5q0 14 5 21.5t16 7.5q10 0 15.5 -7.5t5.5 -21.5q1 -13 -4 -20.5t-17 -7.5zM846 208q0 -10 -4.5 -16t-12.5 -6q-9 0 -13.5 6t-4.5 16v53h-17v-53q0 -20 9 -31.5t27 -11.5 q17 0 27 11.5t10 31.5v53h-17v-53h-4v0zM915 261h-27v-91h27q17 0 32.5 10.5t15.5 37.5q-2 20 -16 31.5t-32 11.5zM915 186h-9v56h9q13 0 20 -7t7 -21q-2 -15 -8 -21.5t-19 -6.5z" />
</svg>