<svg viewBox="0 0 256 256" xmlns="http://www.w3.org/2000/svg">
  <path transform="scale(1, -1) translate(0, -256)" fill="currentColor" d="M240 155q-13 14 -32 17q-11 16 -30 22q-9 3 -17 3h-2q-4 0 -7 -3t-3 -7v-119q0 -4 3 -7t7 -3h39q16 0 29 7.5t20.5 21t7.5 28.5q0 24 -15 40zM198 73h-34v110h1q6 -1 10 -2q15 -5 23 -19l2 -3l3 -1q16 -1 27 -13v0q12 -12 11.5 -29.5t-13 -30t-30.5 -12.5zM104 191 q-3 0 -5 -2t-2 -5v-113q0 -3 2 -5t5 -2t5.5 2t2.5 5v113q-1 3 -3 5t-5 2zM54 184q-3 0 -5 -2t-2 -5v-99q0 -3 2 -5t5 -2t5.5 2t2.5 5v100q0 2 -2.5 4t-5.5 2zM8 170q-3 0 -5 -2t-2 -5v-70q0 -3 2 -5t5 -2t5 2t2 5v70q0 3 -2 5t-5 2z" />
</svg>