<svg viewBox="0 0 1024 1024" xmlns="http://www.w3.org/2000/svg">
  <path transform="scale(1, -1) translate(0, -960)" fill="currentColor" d="M950 547q-22 27 -55 44t-71 23q-19 32 -48 55t-64 35q-18 6 -34.5 8.5t-31.5 2.5h-9q-11 0 -18.5 -8t-7.5 -19v-477q0 -12 7.5 -19.5t19.5 -7.5h156q45 0 84 17t68.5 46.5t46.5 68.5q17 40 17 84q-2 42 -17 79.5t-43 67.5v0zM790 214h-148v468h4q12 0 26.5 -2.5 t29.5 -7.5q32 -11 57.5 -32t42.5 -50l4 -6l8 -2q35 -3 64.5 -18t49.5 -39v0q24 -24 37 -56.5t13 -68.5q-2 -77 -56.5 -131.5t-131.5 -54.5v0zM418 690q-8 0 -12 -4.5t-4 -11.5v-452q0 -7 4 -11.5t12 -4.5q7 0 11.5 4.5t4.5 11.5v452q0 6 -5 11t-11 5v0zM218 662q-8 0 -12 -4 t-4 -12v-395q0 -7 4 -11.5t12 -4.5q7 0 11.5 4.5t4.5 11.5v395q0 6 -4.5 11t-11.5 5v0zM32 605q-7 0 -11.5 -4.5t-4.5 -11.5v-280q0 -7 4.5 -11.5t11.5 -4.5t11.5 4.5t4.5 11.5v280q0 6 -4.5 11t-11.5 5z" />
</svg>