<svg viewBox="0 0 256 256" xmlns="http://www.w3.org/2000/svg">
  <path transform="scale(1, -1) translate(0, -256)" fill="currentColor" d="M247 142q-5 5 -13 5h-212q-7 0 -12 -5.5t-5 -12.5q3 -29 18.5 -53t39.5 -39v-2q0 -9 6.5 -15t15.5 -6h86q9 0 15.5 6t6.5 15v2q13 9 23 19q15 14 24 33t11 40q0 7 -4 13zM20 132q0 1 2 1h212q1 0 2 -1t1 -2q-1 -11 -5 -24h-208q-4 11 -5 24zM206 66q-10 -11 -24 -18 q-3 -2 -3 -6v-6q0 -4 -2.5 -6t-5.5 -2h-86q-3 0 -5.5 2.5t-2.5 5.5v6q0 4 -3 6q-29 15 -44 44h196q-8 -14 -20 -26zM107 168q14 0 28 4q11 3 21 8q7 3 8 4l64 46q3 1 3.5 4t-1.5 5.5t-5 3t-5 -1.5l-47 -33h-119q-2 0 -4 -2t-2 -4q-1 -13 10 -22q15 -12 49 -12zM154 194 q-24 -12 -47 -12q-14 0 -25 2q-14 4 -19 11z" />
</svg>