<svg viewBox="0 0 256 256" xmlns="http://www.w3.org/2000/svg">
  <path transform="scale(1, -1) translate(0, -256)" fill="currentColor" d="M107 250h-85q-7 0 -12 -5t-5 -12v-77q0 -6 3 -10.5t8 -6.5l42 -17v-40h-6q-7 0 -11.5 -4.5t-4.5 -11.5v-47q0 -6 4.5 -10.5t11.5 -4.5h26q6 0 10.5 4.5t4.5 10.5v48q0 6 -4.5 10.5t-10.5 4.5h-6v41l41 17q5 2 8 6.5t3 9.5v77q0 7 -5 12t-12 5zM79 67v-47q0 -2 -1 -2h-26 q-2 0 -2 2v47q0 1 2 1h26q1 0 1 -1zM110 156q0 -3 -2 -4l-44 -17l-43 17q-1 1 -1.5 2t-0.5 2v77q0 2 1 3t2 1h85q1 0 2 -1t1 -3v-77zM244 252q-3 0 -5 -2.5t-2 -5.5v-53q0 -15 -10.5 -25t-25 -10t-25 10t-10.5 25v53q0 3 -2 5.5t-5 2.5t-5 -2.5t-2 -5.5v-53q0 -19 12 -32.5 t30 -16.5v-60h-6q-6 0 -10.5 -4.5t-4.5 -11.5v-47q0 -6 4.5 -10.5t10.5 -4.5h26q6 0 10.5 4.5t4.5 10.5v48q0 6 -4.5 10.5t-10.5 4.5h-6v60q18 3 30 17t12 32v53q1 3 -1 5.5t-5 2.5zM216 67v-47q0 -2 -1 -2h-26q-1 0 -1 2v47q0 1 1 1h26q1 0 1 -1zM44 219q-3 0 -5.5 -2 t-2.5 -5v-32q0 -3 2.5 -5t5.5 -2t5 2t2 5v32q0 3 -2 5t-5 2zM86 219q-3 0 -5 -2t-2 -5v-32q0 -3 2 -5t5 -2t5 2t2 5v32q0 3 -2 5t-5 2z" />
</svg>