<svg viewBox="0 0 1024 1024" xmlns="http://www.w3.org/2000/svg">
  <path transform="scale(1, -1) translate(0, -960)" fill="currentColor" d="M427 926h-337q-24 0 -41 -16.5t-17 -40.5v-309q0 -18 10 -32.5t27 -21.5l174 -71v-184h-37q-20 0 -34 -13.5t-14 -34.5v-189q0 -20 14 -34t34 -14h104q21 0 34.5 14t13.5 34v189q0 21 -13.5 34.5t-34.5 13.5h-36v184l174 71q17 7 27 21.5t10 32.5v309q1 24 -16.5 40.5 t-41.5 16.5zM328 203v-189q0 -7 -4.5 -11.5t-11.5 -4.5h-104q-7 0 -11.5 4.5t-4.5 11.5v189q0 7 4.5 11.5t11.5 4.5h104q6 0 11 -4.5t5 -11.5zM454 558q0 -8 -4 -14.5t-12 -9.5l-179 -70l-179 70q-7 3 -11.5 9.5t-4.5 14.5v311q0 11 7.5 18t18.5 7h337q11 0 18.5 -7t7.5 -18 v-311h1zM976 930q-7 0 -11.5 -4.5t-4.5 -11.5v-215q0 -63 -45 -107.5t-107 -44.5q-64 0 -108 45t-44 107v215q0 7 -4.5 11.5t-11.5 4.5t-11.5 -4.5t-4.5 -11.5v-215q0 -72 48.5 -125t119.5 -59v-264h-37q-20 0 -34 -13.5t-14 -34.5v-189q0 -20 14 -34t34 -14h104 q21 0 34.5 14t13.5 34v189q0 21 -13.5 34.5t-34.5 13.5h-37v264q72 6 121 59t49 125v215q0 7 -4.5 11.5t-11.5 4.5v0zM875 203v-189q0 -7 -4.5 -11.5t-11.5 -4.5h-104q-7 0 -11.5 4.5t-4.5 11.5v189q0 7 4.5 11.5t11.5 4.5h104q7 0 11.5 -4.5t4.5 -11.5zM174 800 q-7 0 -11.5 -4.5t-4.5 -11.5v-126q0 -8 4.5 -12t11.5 -4q8 0 12 4t4 12v126q0 6 -4 11t-12 5zM344 800q-7 0 -11.5 -4.5t-4.5 -11.5v-126q0 -8 4.5 -12t11.5 -4t11.5 4t4.5 12v126q0 6 -5 11t-11 5z" />
</svg>