<svg viewBox="0 0 256 256" xmlns="http://www.w3.org/2000/svg">
  <path transform="scale(1, -1) translate(0, -256)" fill="currentColor" d="M245 226q-7 9 -17 9l-140 13q-12 1 -20 -7t-8 -19v-104l-51 -28q-4 -2 -4 -6q0 -2 1.5 -4t3.5 -2l50 -20v-24q0 -12 8 -19t17 -7l126 17q9 1 15 7.5t7 15.5l18 159q1 10 -6 19zM237 208l-18 -159q-1 -4 -3.5 -7t-6.5 -3l-122 -17q-6 -1 -9.5 3t-3.5 9v29q0 2 -1.5 4 t-3.5 2l-41 16l42 23q4 2 4 6v108q0 6 3.5 9t8.5 3l140 -12q5 -1 8 -5t3 -9zM184 177h-62q-3 0 -5 -2t-2 -5t2 -5.5t5 -2.5h62q3 0 5 2.5t2 5.5t-2 5t-5 2zM184 137h-62q-3 0 -5 -2t-2 -5t2 -5.5t5 -2.5h62q3 0 5 2.5t1.5 5.5t-2 5t-4.5 2zM184 97h-62q-3 0 -5 -2t-2 -5 t2 -5t5 -2h62q3 0 5 2t2 5t-2 5t-5 2z" />
</svg>