<svg viewBox="0 0 256 256" xmlns="http://www.w3.org/2000/svg">
  <path transform="scale(1, -1) translate(0, -256)" fill="currentColor" d="M44 213q-3 0 -5.5 -2t-2.5 -5t2.5 -5.5t5.5 -2.5t5 2.5t2 5.5t-2.5 5t-4.5 2zM67 213q-3 0 -5 -2t-2 -5t2 -5.5t5 -2.5t5 2.5t2 5.5t-2 5t-5 2zM91 213q-3 0 -5 -2t-2 -5t2 -5.5t5 -2.5t5 2.5t2 5.5t-2 5t-5 2zM189 177q-26 0 -45 -13l-23 18q8 10 8 22.5t-8.5 23 t-22.5 16.5t-31 6t-31 -6.5t-22.5 -17t-8.5 -22.5t8.5 -22.5t22.5 -17t31 -6.5q26 0 44 14l23 -19q-8 -10 -8 -22.5t10 -23.5l-20 -12q-8 8 -21 13t-29 5t-30 -6t-22.5 -16.5t-8.5 -22.5t8.5 -22.5t22.5 -17t31 -6.5q10 0 17 2l35 -17q2 -1 4 -1t4.5 2t1.5 7l-8 29 q9 11 9 23q0 8 -4 16l22 14q18 -11 42 -11q17 0 31 6t22.5 16.5t8 23t-9 23t-22.5 16.5t-31 6zM19 204q0 13 14.5 22.5t34 9.5t33.5 -9.5t14 -22.5t-14 -22.5t-33.5 -9t-34 9.5t-14.5 22zM106 44l5 -18l-23 12h-3h-1q-9 -2 -17 -2q-19 0 -33.5 9.5t-14.5 22.5t14.5 22t34 9 t33.5 -9t14 -22q0 -9 -7 -17q-3 -2 -2 -7zM189 100q-20 0 -34 9.5t-14 22.5t14 22.5t33.5 9.5t34 -9.5t14.5 -22.5t-14.5 -22.5t-33.5 -9.5zM165 140q-3 0 -5 -2t-2 -5t2 -5t5 -2t5 2t2 5t-2 5t-5 2zM189 140q-3 0 -5 -2t-2 -5t2 -5t5 -2t5 2t2 5t-2 5t-5 2zM213 140 q-3 0 -5 -2t-2 -5t2 -5t5 -2t5 2t2 5t-2.5 5t-4.5 2zM44 76q-3 0 -5.5 -2t-2.5 -5t2.5 -5t5.5 -2t5 2t2 5t-2.5 5t-4.5 2zM67 76q-3 0 -5 -2t-2 -5t2 -5t5 -2t5 2t2 5t-2 5t-5 2zM91 76q-3 0 -5 -2t-2 -5t2 -5t5 -2t5 2t2 5t-2 5t-5 2z" />
</svg>