<svg viewBox="0 0 256 256" xmlns="http://www.w3.org/2000/svg">
  <path transform="scale(1, -1) translate(0, -256)" fill="currentColor" d="M183 213h-110q-18 0 -34 -9t-25 -24.5t-9 -34.5q0 -24 16 -43t40 -24q-3 -3 -7 -5t-6 -5.5t-2 -7.5t2 -7t6 -5q10 -5 22 -5t22 4.5t17.5 12t11.5 17.5h56q18 0 34 9t25 25t9 34.5t-9 34t-25 24.5t-34 9zM183 91h-61q-2 0 -4 -1.5t-3 -3.5q-2 -9 -8 -15.5t-14 -10 t-17 -3.5t-16 3q14 7 20 21q1 3 -0.5 6.5t-5.5 3.5q-15 0 -27.5 7t-20 19.5t-7.5 27t7.5 27t20 20t26.5 7.5h110q15 0 27 -7.5t19.5 -20t7.5 -27t-7.5 -27t-19.5 -19.5t-27 -7zM73 150h-2q-3 0 -5 -2.5t-2 -5.5t2 -5t5 -2h2q3 0 5 2t2 5t-2 5.5t-5 2.5zM128 150h-2 q-3 0 -5 -2.5t-2 -5.5t2 -5t5 -2h2q3 0 5 2t2 5t-2 5.5t-5 2.5zM183 150h-1q-3 0 -5.5 -2.5t-2.5 -5.5t2.5 -5t5.5 -2h1q3 0 5 2t2 5t-2 5.5t-5 2.5z" />
</svg>