<svg viewBox="0 0 256 256" xmlns="http://www.w3.org/2000/svg">
  <path transform="scale(1, -1) translate(0, -256)" fill="currentColor" d="M248 134l-28 21v43q0 10 -7 17t-17 7h-168q-9 0 -16 -7t-7 -17v-140q0 -10 7 -17t16 -7h168q10 0 17 7t7 17v43l28 21q3 2 3 5.5t-3 6.5zM208 110q-2 -2 -2 -5v-47q0 -4 -3 -7t-7 -3h-168q-3 0 -6 3t-3 7v140q0 4 2.5 7t6.5 3h168q4 0 7 -3t3 -7v-46q0 -4 2 -6l24 -18z M95 158h34q3 0 5 2t2 5t-2 5t-5 2h-34q-3 0 -5 -2t-2 -5t2 -5t5 -2zM146 135h-68q-3 0 -5.5 -2t-2.5 -5t2.5 -5.5t5.5 -2.5h68q3 0 5.5 2.5t2 5.5t-2.5 5t-5 2zM129 98h-34q-3 0 -5 -2t-2 -5t2 -5t5 -2h34q3 0 5 2t2 5t-2 5t-5 2z" />
</svg>