<svg viewBox="0 0 256 256" xmlns="http://www.w3.org/2000/svg">
  <path transform="scale(1, -1) translate(0, -256)" fill="currentColor" d="M225 197h-37v15q0 11 -7.5 18.5t-17.5 7.5h-132q-11 0 -18.5 -7.5t-7.5 -18.5v-85q0 -11 7.5 -18t18.5 -7h3q-7 -24 -12 -32q-1 -2 -1 -4.5t1.5 -4.5t4.5 -2h3q11 5 27.5 18t25.5 24h9v-15q0 -10 7.5 -17.5t18.5 -7.5h54q8 -11 25 -24t28 -18l3 -1q3 0 5 2.5t2 5t-2 4.5 q-5 6 -10 30v2h1q11 0 18.5 7.5t7.5 17.5v84q1 11 -6.5 18.5t-18.5 7.5zM80 116q-4 0 -6 -4q-8 -11 -32 -29l7 24q1 3 -1 6t-6 3h-12q-4 0 -7.5 3t-3.5 8v85q0 5 3.5 8.5t7.5 3.5h132q5 0 8.5 -3.5t3.5 -8.5v-85q0 -5 -3.5 -8t-8.5 -3h-82zM237 87q0 -5 -3.5 -8t-7.5 -3h-10 q-4 0 -6 -3t-1 -6l5 -25q-24 18 -32 30q-2 3 -6 3h-58q-4 0 -7.5 3.5t-3.5 7.5v15h55q11 0 18.5 7.5t7.5 18.5v56h37q5 0 8 -3.5t3 -8.5v-84h1zM51 182h-1q-3 0 -6 -3t-3 -6.5t3 -6.5t7 -3t7 2.5t3 6.5t-3 7t-7 3zM95 182v0q-4 0 -6.5 -3t-2.5 -6.5t3 -6.5t7 -3t6.5 2.5 t2.5 6.5t-3 7t-7 3zM139 182v0q-4 0 -6.5 -3t-2.5 -6.5t3 -6.5t7 -3t6.5 3t2.5 6.5t-3 6.5t-7 3z" />
</svg>