<svg viewBox="0 0 256 256" xmlns="http://www.w3.org/2000/svg">
  <path transform="scale(1, -1) translate(0, -256)" fill="currentColor" d="M234 72q-10 5 -14 15q15 10 23 23.5t8 29t-9.5 30t-26.5 24.5q-22 13 -54.5 17.5t-65.5 0t-55 -17.5q-17 -10 -26 -24.5t-9.5 -30t7.5 -29t23 -23.5q-4 -10 -14 -15q-4 -2 -6 -5.5t-2 -7.5t2 -7.5t6 -4.5q11 -5 24 -5t25 6.5t20 18.5q37 -6 75 0q11 -17 30.5 -23t38.5 3 q4 2 6 5t2 7t-2 7.5t-6 5.5zM175 78q-3 5 -7 4q-19 -4 -40 -4t-40 4q-4 1 -7 -4q-8 -15 -23 -20.5t-30 1.5q9 4 15 12t8 18q1 5 -3 7q-14 9 -21 20t-7 23t7.5 23.5t21.5 20t35 13t44.5 4.5t44.5 -4.5t35 -13t21.5 -19.5t7.5 -23.5t-7.5 -23.5t-20.5 -20q-4 -2 -3 -7 q1 -10 7.5 -18t15.5 -12q-16 -6 -31 -1t-23 20zM179 160h-102q-3 0 -5 -2t-2 -5t2 -5t5 -2h102q3 0 5 2t2 5t-2 5t-5 2zM179 128h-102q-3 0 -5 -2.5t-2 -5.5t2 -5t5 -2h102q3 0 5 2t2 5t-2 5.5t-5 2.5z" />
</svg>