<svg viewBox="0 0 256 256" xmlns="http://www.w3.org/2000/svg">
  <path transform="scale(1, -1) translate(0, -256)" fill="currentColor" d="M249 118q-13 13 -16.5 30.5t3.5 34.5q2 3 0 6t-5 4q-20 2 -35 14t-21 29q-1 4 -4 5t-6 -1q-17 -10 -37 -10t-37 10q-3 2 -6.5 1t-3.5 -5q-6 -18 -21 -29.5t-35 -14.5q-4 0 -5 -3.5t0 -6.5q7 -16 4 -34t-17 -31q-2 -2 -1.5 -5.5t3.5 -5.5q18 -8 27.5 -24t8.5 -34 q0 -4 2.5 -6t5.5 -2q19 5 38.5 -1.5t30.5 -21.5q2 -3 5.5 -3t5.5 3q12 15 31 21.5t38 1.5q4 0 6.5 2.5t1.5 5.5q-1 18 9 34t27 24q3 1 4.5 5t-1.5 7zM197 56q-19 2 -37.5 -4t-31.5 -20q-11 12 -26.5 18.5t-32.5 6.5l-10 -1q-1 18 -10.5 33t-25.5 25q11 14 14.5 31.5 t-1.5 34.5q18 4 33 15.5t22 28.5q17 -8 37 -8t37 8q8 -17 22.5 -28.5t33.5 -15.5q-6 -17 -2.5 -34.5t14.5 -31.5q-16 -9 -25.5 -24.5t-10.5 -33.5zM95 162h54q3 0 5 2t2 5t-2 5t-5 2h-54q-3 0 -5 -2t-2 -5t2 -5t5 -2zM171 138h-76q-3 0 -5 -2t-2 -5t2 -5t5 -2h76q3 0 5 2 t2 5t-2.5 5t-4.5 2zM165 100h-70q-3 0 -5 -2t-2 -5t2 -5t5 -2h70q3 0 5 2t2 5t-2 5t-5 2z" />
</svg>