<svg viewBox="0 0 1024 1024" xmlns="http://www.w3.org/2000/svg">
  <path transform="scale(1, -1) translate(0, -960)" fill="currentColor" d="M728 394h-485q-32 0 -55 -23t-23 -56v-40l-125 -62q-4 -1 -6 -4.5t-2 -8.5t2.5 -8.5t7.5 -5.5l124 -63v-40q0 -32 23 -55t56 -23h485q32 0 55 23t23 55v234q-1 31 -24.5 54t-55.5 23v0zM774 85q0 -19 -13.5 -33t-32.5 -14h-485q-19 0 -32.5 14t-13.5 33v49q0 5 -2.5 8.5 t-7.5 6.5l-104 53l104 52q4 3 7 6.5t3 8.5v49q0 20 13.5 33.5t32.5 13.5h485q19 0 32.5 -13.5t13.5 -33.5v-233v0zM982 710l-124 63v38q0 33 -23 56t-56 23h-483q-32 0 -55 -23t-23 -56v-232q0 -32 23 -55t55 -23h485q32 0 55 23t23 55v40l125 63q4 2 7 5.5t3 8.5 q-2 5 -4.5 8.5t-7.5 5.5zM835 643q-3 -2 -6 -5.5t-3 -8.5v-50q0 -19 -14 -32.5t-33 -13.5h-483q-19 0 -32.5 13.5t-13.5 32.5v232q0 19 13.5 33t32.5 14h485q19 0 32.5 -14t13.5 -33v-49q0 -5 2.5 -8.5t7.5 -6.5l104 -53zM339 232h-8q-13 0 -22.5 -9.5t-9.5 -22.5t9.5 -22.5 t22.5 -9.5h8q13 0 22.5 9.5t9.5 22.5t-9.5 22.5t-22.5 9.5zM494 232h-8q-13 0 -22.5 -9.5t-9.5 -22.5t9.5 -22.5t22.5 -9.5h8q14 0 23 9.5t9 22.5t-9 22.5t-23 9.5zM650 232h-8q-14 0 -23 -9.5t-9 -22.5t9 -22.5t23 -9.5h8q13 0 22.5 9.5t9.5 22.5t-9.5 22.5t-22.5 9.5z M381 728h-8q-13 0 -22.5 -9.5t-9.5 -22.5t9.5 -22.5t22.5 -9.5h8q13 0 22.5 9.5t9.5 22.5t-9.5 22.5t-22.5 9.5zM536 728h-8q-13 0 -22.5 -9.5t-9.5 -22.5t9.5 -22.5t22.5 -9.5h8q13 0 22.5 9.5t9.5 22.5t-9.5 22.5t-22.5 9.5zM691 728h-8q-13 0 -22.5 -9.5t-9.5 -22.5 t9.5 -22.5t22.5 -9.5h8q13 0 22.5 9.5t9.5 22.5t-9.5 22.5t-22.5 9.5z" />
</svg>