<svg viewBox="0 0 256 256" xmlns="http://www.w3.org/2000/svg">
  <path transform="scale(1, -1) translate(0, -256)" fill="currentColor" d="M198 251h-140q-10 0 -17 -7t-7 -17v-167q0 -10 7 -17t17 -7h43l21 -28q2 -3 6 -3t6 3l21 28h43q10 0 17 7t7 17v168q0 9 -7 16t-17 7zM208 60q0 -4 -3 -7t-7 -3h-46q-4 0 -6 -2l-18 -24l-18 24q-2 2 -5 2h-47q-4 0 -7 3t-3 7v168q0 3 3 6t7 3h140q4 0 7 -2.5t3 -6.5v-168 zM111 174h33q3 0 5.5 2t2.5 5t-2.5 5t-5.5 2h-33q-3 0 -5 -2t-2 -5t2 -5t5 -2zM162 151h-69q-3 0 -5 -2t-2 -5t2 -5t5 -2h69q3 0 5 2t2 5t-2 5t-5 2zM144 114h-33q-3 0 -5 -2t-2 -5t2 -5t5 -2h33q3 0 5.5 2t2.5 5t-2.5 5t-5.5 2z" />
</svg>