<svg viewBox="0 0 1024 1024" xmlns="http://www.w3.org/2000/svg">
  <path transform="scale(1, -1) translate(0, -960)" fill="currentColor" d="M819 883q-39 16 -79 20q-40 3 -78.5 -5t-74.5 -28t-67 -51q-4 -3 -8 -3t-8 3q-31 31 -67 50q-36 20 -74.5 28.5t-78.5 4.5q-40 -3 -79 -19q-40 -16 -72 -43t-54.5 -62.5t-34.5 -77.5q-12 -43 -12 -89q0 -38 9 -77q9 -38 27 -78t44 -81q27 -41 62 -82q-21 -40 -25.5 -83.5 t9.5 -86.5q15 -45 48 -79t77 -50q4 -2 7.5 -3t7.5 -1q8 0 16 3.5t14 9.5q10 10 12 22t-2 23q-9 22 -8.5 44t8.5 42q40 -29 88 -43q47 -14 95 -12.5t94 18.5q47 17 86 50q50 42 101 93q52 52 94 111.5t69 125.5q27 65 27 134q0 46 -12 89q-12 42 -34.5 77.5t-54.5 62.5 t-72 43v0zM682 173q-37 -31 -81 -46q-43 -15 -88 -15t-89 15q-43 15 -80 46q-2 2 -5.5 3t-7.5 0q-3 -1 -6 -2.5t-5 -5.5q-17 -30 -20 -63.5t9 -66.5q1 -4 -0.5 -7t-2.5 -4l-5 -2.5t-7 -0.5q-37 13 -64.5 41.5t-40.5 67.5q-12 38 -7 77.5t28 72.5q2 5 2 10.5t-4 8.5 q-36 41 -63 81t-45 78.5t-27 76.5q-9 37 -9 73q0 83 41.5 149t112.5 94q22 10 45 14t46 4q47 0 92 -19t81 -56q12 -12 30 -12t30 12q54 54 125 69.5t139 -13.5q71 -29 112.5 -95t41.5 -148q0 -64 -26 -125q-25 -62 -65.5 -118t-90.5 -105q-49 -50 -96 -89v0zM627 637h-230 q-7 0 -11.5 -4.5t-4.5 -11.5t4.5 -11.5t11.5 -4.5h229q7 0 11.5 4.5t4.5 11.5t-4.5 11.5t-10.5 4.5v0zM627 504h-230q-7 0 -11.5 -4.5t-4.5 -11.5t4.5 -11.5t11.5 -4.5h229q7 0 11.5 4.5t4.5 11.5t-4.5 11.5t-10.5 4.5v0zM627 371h-230q-7 0 -11.5 -4.5t-4.5 -11.5 t4.5 -11.5t11.5 -4.5h229q7 0 11.5 4.5t4.5 11.5t-4.5 11.5t-10.5 4.5v0z" />
</svg>