<svg viewBox="0 0 256 256" xmlns="http://www.w3.org/2000/svg">
  <path transform="scale(1, -1) translate(0, -256)" fill="currentColor" d="M47 219q-15 -3 -25.5 -13t-14.5 -24.5t0.5 -29.5t16.5 -23l5 -4v-37q1 -3 2 -5q5 -4 9 0q3 2 16 18l15 16h10l1 -4q2 -10 10.5 -20.5t17.5 -14.5q7 -3 14.5 -4t26.5 -1h23l15 -18q16 -18 18.5 -18.5t5.5 1.5l3 2l1 36l5 3q12 6 19 15q8 12 9.5 26t-5 26.5t-17.5 20.5 q-8 5 -15 6.5t-22 2.5h-17l-1 5q-4 13 -13 22.5t-22 13.5q-5 2 -11 2l-36 1q-40 0 -45 -1h1zM136 203q19 -9 24 -29l1 -7q0 -3 -1 -6q-3 -18 -19 -26l-5 -2l-70 -1l-23 -25v12q0 11 -1 13.5t-5 4.5t-8.5 7t-6.5 9t-2.5 7t0 9t0.5 8.5t2 6.5q4 8 10 13.5t14 7.5q5 1 44 1h41z M123 174q-3 -4 -1.5 -8t6 -4t7 3t0.5 6.5t-5.5 4.5t-6.5 -2zM42 172q-2 -3 -1 -6t4.5 -4.5t6.5 1t3 5.5t-2 5t-5.5 2t-5.5 -3zM83 173q-2 -2 -1.5 -5t3 -5t5.5 -1.5t4.5 3.5t1.5 4t-2 3t-5.5 2.5t-5.5 -1.5zM215 158q21 -10 21 -34q0 -5 -0.5 -8t-1.5 -7q-4 -7 -10.5 -12.5 t-14.5 -8.5q-5 -1 -6 -4t-1 -12v-10l-22 25h-28q-17 0 -24 1t-11 2.5t-8.5 6t-8.5 10.5t-4 8t14 2t22 1t15 4q22 11 27 37l1 3h17q12 0 15 -0.5t8 -3.5zM170 124q-2 -2 -2 -5.5t2 -5t5.5 -1.5t5 2t1.5 5.5t-4.5 5.5t-7.5 -1zM210 124q-2 -2 -2 -5.5t2 -5t5.5 -1.5t5.5 2.5 t0 7t-5.5 4.5t-5.5 -2z" />
</svg>