<svg viewBox="0 0 1024 1024" xmlns="http://www.w3.org/2000/svg">
  <path transform="scale(1, -1) translate(0, -960)" fill="currentColor" d="M930 333q-3 27 -23 45.5t-48 18.5q-15 0 -26 10.5t-14 24.5l-41 432q-3 28 -23 46t-48 18h-574q-30 0 -51 -21t-21 -51v-419q0 -30 21 -51t51 -21h445q12 0 22.5 -7t13.5 -19l47 -123q9 -25 33.5 -38t51.5 -7l19 5q12 4 23.5 -1t17.5 -15l127 -186q2 -3 5.5 -4.5 t7.5 -1.5h2t2 2q5 2 8.5 6.5t3.5 9.5zM834 178q-10 14 -26 22t-34 8h-8t-9 -2l-21 -4q-14 -4 -28 3t-18 21l-47 123q-8 20 -26 33t-41 13h-443q-17 0 -28.5 11.5t-11.5 28.5v421q0 17 11.5 28.5t28.5 11.5h574q16 0 27 -10.5t13 -24.5l42 -431q2 -27 22.5 -45.5t47.5 -18.5 q16 0 27 -10t13 -25l27 -285l-92 132v0zM253 693h-3q-14 0 -25.5 -8t-14.5 -21q-5 -19 6.5 -33.5t29.5 -14.5h4q13 0 24.5 8t15.5 21q4 19 -7.5 33.5t-29.5 14.5zM418 693h-4q-13 0 -24.5 -8t-15.5 -21q-4 -19 7.5 -33.5t29.5 -14.5h5q13 0 24.5 8t15.5 21q5 19 -7 33.5 t-31 14.5v0zM584 693h-3q-13 0 -25 -8t-15 -21q-5 -19 7 -33.5t30 -14.5h3q13 0 24.5 8t15.5 21q5 19 -7 33.5t-30 14.5z" />
</svg>