<svg viewBox="0 0 1024 1024" xmlns="http://www.w3.org/2000/svg">
  <path transform="scale(1, -1) translate(0, -960)" fill="currentColor" d="M518 926q-47 0 -93 -9q-45 -9 -87.5 -26.5t-81.5 -43.5q-38 -26 -72 -60q-56 -55 -89 -124q-34 -69 -44.5 -143.5t3.5 -149.5q13 -76 52 -144l-74 -237q-1 -5 0 -9t5 -7q2 -3 4.5 -4t6.5 -1h2.5t2.5 2l229 75q55 -32 114 -48q60 -16 120 -16.5t120 15.5q59 15 114 47 q57 32 101 76q45 44 76 97t47 113q16 61 16 125q1 98 -36 184t-101 150t-151 101q-86 37 -184 37v0zM736 72q-52 -30 -109 -44q-56 -15 -113 -14t-113 16q-57 16 -108 47q-4 2 -7.5 2.5t-5.5 -1.5l-208 -68l66 212q1 4 0 7.5t-2 5.5q-37 64 -50 136q-14 71 -4 141.5 t41 135.5q32 66 85 118q31 32 67 56t75.5 40.5t82.5 24.5q43 9 87 9q91 -1 171 -35q80 -35 139.5 -95t94.5 -140t35 -172q0 -60 -15 -116t-44 -105.5t-71 -90.5q-41 -41 -94 -70v0zM656 614h-274q-7 0 -11.5 -4t-4.5 -12q0 -7 4.5 -11.5t11.5 -4.5h274q7 0 11.5 4.5 t4.5 11.5q0 8 -4.5 12t-11.5 4zM656 466h-274q-7 0 -11.5 -4.5t-4.5 -11.5q0 -8 4.5 -12t11.5 -4h274q7 0 11.5 4t4.5 12q0 7 -4.5 11.5t-11.5 4.5zM656 328h-274q-7 0 -11.5 -4.5t-4.5 -11.5t4.5 -11.5t11.5 -4.5h274q7 0 11.5 4.5t4.5 11.5t-4.5 11.5t-11.5 4.5z" />
</svg>