<svg viewBox="0 0 1024 1024" xmlns="http://www.w3.org/2000/svg">
  <path transform="scale(1, -1) translate(0, -960)" fill="currentColor" d="M987 397q-56 55 -69.5 130t18.5 145q1 4 1 7.5t-1 6.5q-1 4 -4.5 6t-8.5 2q-41 5 -79 20q-37 15 -67.5 39t-53.5 56q-22 31 -33 68q-2 3 -4 5.5t-6 3.5q-4 2 -7.5 1.5t-6.5 -2.5q-35 -22 -75 -34q-39 -11 -79.5 -11t-79.5 11q-39 12 -74 34q-3 2 -6.5 2.5t-7.5 -1.5 q-4 -1 -6 -3.5t-4 -5.5q-11 -37 -33 -68q-23 -32 -53.5 -56t-67.5 -39q-38 -15 -79 -20q-4 0 -7.5 -2t-5.5 -6q-2 -3 -2 -6.5t2 -7.5q32 -70 18.5 -145t-69.5 -130q-3 -3 -4 -6t-1 -7q1 -4 3.5 -7t6.5 -4q73 -34 114 -100.5t36 -142.5q0 -4 1.5 -7.5t4.5 -5.5q3 -3 7 -4t8 1 q40 9 81 7q41 -3 79 -15.5t71 -35.5t57 -54q2 -2 5.5 -4t7.5 -2q3 0 6.5 1t5.5 5q24 32 57 55q33 22 71 35t79 15t81 -7q4 -2 7.5 -1t7.5 4q2 2 4 5.5t2 7.5q-5 76 36 142.5t115 100.5q3 1 5.5 4t3.5 7l-3.5 7t-4.5 6v0zM800 147q-40 7 -81 3q-40 -3 -77.5 -15.5 t-70.5 -34.5q-33 -21 -59 -50q-43 49 -105.5 75.5t-129.5 26.5q-13 0 -26.5 -1t-26.5 -4q-1 76 -40.5 141t-108.5 102q51 58 64.5 131.5t-13.5 144.5q80 13 142.5 62t89.5 120q36 -19 75 -29q39 -9 79 -9t79 9q39 10 75 29q27 -71 89.5 -120t142.5 -62q-27 -71 -13.5 -144.5 t64.5 -131.5q-69 -37 -108.5 -102t-40.5 -141zM379 594h218q7 0 11.5 4t4.5 12q0 7 -4.5 11.5t-11.5 4.5h-218q-7 0 -11.5 -4.5t-4.5 -11.5q0 -8 4.5 -12t11.5 -4v0zM683 475h-304q-7 0 -11.5 -4.5t-4.5 -11.5t4.5 -11.5t11.5 -4.5h304q7 0 11.5 4.5t4.5 11.5t-5 11.5 t-11 4.5v0zM661 325h-282q-7 0 -11.5 -4.5t-4.5 -11.5t4.5 -11.5t11.5 -4.5h282q7 0 11.5 4.5t4.5 11.5t-4.5 11.5t-11.5 4.5z" />
</svg>