<svg viewBox="0 0 256 256" xmlns="http://www.w3.org/2000/svg">
  <path transform="scale(1, -1) translate(0, -256)" fill="currentColor" d="M248 151l-14 19v24q0 4 -2.5 7.5t-7.5 4.5l-21 8l-13 19q-2 3 -5.5 5t-7.5 2l-23 -4l-19 12q-3 2 -7 2.5t-7 -2.5l-19 -12l-23 4q-4 1 -7.5 -1t-6.5 -5l-12 -20l-22 -8q-4 -1 -6.5 -4.5t-2.5 -7.5v-23l-14 -19q-2 -4 -2 -8.5t2 -7.5l14 -20v-23q0 -4 2.5 -7.5t6.5 -4.5 l15 -6l-8 -55q-1 -4 0.5 -7.5t4.5 -5.5t7.5 -2t7.5 3l48 39l14 -9q4 -2 8 -2t7 2l19 12l22 -3q4 -1 8 1t6 5l12 19l22 8q4 2 6.5 5.5t2.5 7.5l1 23l13 19q3 4 3 8.5t-2 7.5zM222 123q-2 -2 -2 -4v-25l-24 -9q-2 -1 -4 -3l-13 -21l-25 3q-2 1 -5 -1l-21 -13l-19 12 q-2 1 -4.5 0.5t-3.5 -1.5l-49 -40l10 57q0 2 -1 4.5t-4 3.5l-21 7v25q0 3 -2 4l-14 21l14 21q2 2 2 4v25l24 9q2 1 4 3l13 21l25 -3q2 -1 5 1l21 13l22 -13q1 -2 4 -2l25 4l14 -22q1 -2 3 -2l24 -9l1 -25q0 -3 1 -4l15 -21zM162 184h-68q-3 0 -5 -2t-2 -5t2 -5t5 -2h68 q3 0 5 2t2 5t-2 5t-5 2zM162 148h-68q-3 0 -5 -2t-2 -5t2 -5t5 -2h68q3 0 5 2t2 5t-2 5t-5 2zM162 112h-68q-3 0 -5 -2.5t-2 -5.5t2 -5t5 -2h68q3 0 5 2t2 5t-2 5.5t-5 2.5z" />
</svg>