<svg viewBox="0 0 256 256" xmlns="http://www.w3.org/2000/svg">
  <path transform="scale(1, -1) translate(0, -256)" fill="currentColor" d="M42 136h184q3 0 6 2t4.5 5.5t1.5 7t-3 5.5l-24 29v43q0 9 -7 16t-16 7h-146q-10 0 -17 -7t-7 -16v-68q1 -10 7.5 -17t16.5 -7zM33 228q0 4 3 6.5t6 2.5h146q4 0 7 -2.5t3 -6.5v-45q0 -3 1 -5l24 -28h-181q-4 0 -7 3t-3 7v68h1zM214 120h-146q-10 0 -16.5 -7t-6.5 -17v-42 l-24 -29q-3 -3 -3.5 -6.5t1.5 -6.5t5 -5t6 -2h184q10 0 17 7t7 16v68q-1 10 -7.5 17t-16.5 7zM223 28q0 -4 -2.5 -6.5t-6.5 -2.5h-180l23 28q2 2 2 5v45q0 4 2.5 6.5t6.5 2.5h146q3 0 6 -2.5t3 -6.5v-69zM77 202h75q3 0 5 2t2 5t-2 5t-5 2h-75q-3 0 -5 -2t-2 -5t2 -5t5 -2z M77 167h75q3 0 5 2t2 5t-2 5t-5 2h-75q-3 0 -5 -2t-2 -5t2 -5t5 -2zM174 84h-75q-3 0 -5 -2t-2 -5t2 -5t5 -2h75q3 0 5 2t2 5t-2 5t-5 2zM174 50h-75q-3 0 -5 -2.5t-2 -5.5t2 -5t5 -2h75q3 0 5 2t2 5t-2 5.5t-5 2.5z" />
</svg>