<svg viewBox="0 0 1024 1024" xmlns="http://www.w3.org/2000/svg">
  <path transform="scale(1, -1) translate(0, -960)" fill="currentColor" d="M965 891q-12 18 -31.5 27.5t-40.5 9.5h-571q-29 0 -52 -16.5t-32 -44.5l-48 -144q-7 -20 -3.5 -41t16.5 -39q12 -18 31.5 -27.5t40.5 -9.5h411l-60 -160h-448q-29 0 -52 -16.5t-32 -43.5l-48 -144q-7 -21 -3.5 -41.5t16.5 -38.5t32 -27.5t40 -9.5h304l-51 -136 q-1 -5 0 -10t5 -8q2 -1 4.5 -2t4.5 -1q3 0 5.5 1t4.5 2l222 157h71q29 0 52 16.5t31 44.5l48 144q7 20 3.5 41t-16.5 39q-12 18 -31 27.5t-41 9.5h-89l62 158h126q29 0 52 16.5t32 44.5l48 144q7 20 3.5 40.5t-16.5 37.5v0zM795 392q9 -11 10.5 -24.5t-2.5 -26.5l-48 -144 q-6 -17 -20.5 -28t-32.5 -11h-75q-2 0 -4.5 -1t-4.5 -2l-186 -129l40 112q1 3 1 6.5t-3 7.5q-2 4 -5.5 5t-6.5 1h-328q-14 0 -26 6t-19 18q-9 11 -10.5 24.5t2.5 27.5l48 144q6 16 20.5 27t32.5 11h571q14 0 26 -6.5t20 -17.5v0zM947 822l-48 -144q-6 -16 -20.5 -27 t-32.5 -11h-572q-14 0 -26 6t-19 18q-9 11 -10.5 24.5t2.5 26.5l48 144q6 16 20.5 26.5t32.5 10.5h571q13 0 25 -6t20 -18q9 -11 11.5 -23.5t-2.5 -26.5v0zM466 784h-52q-7 0 -11.5 -4.5t-4.5 -11.5t4.5 -11.5t11.5 -4.5h52q7 0 11.5 4.5t4.5 11.5t-5 11.5t-11 4.5zM706 784 h-52q-7 0 -11.5 -4.5t-4.5 -11.5t4.5 -11.5t11.5 -4.5h52q7 0 11.5 4.5t4.5 11.5t-4.5 11.5t-11.5 4.5zM346 304h-52q-7 0 -11.5 -4.5t-4.5 -11.5t4.5 -11.5t11.5 -4.5h52q7 0 11.5 4.5t4.5 11.5t-5 11.5t-11 4.5zM586 304h-52q-7 0 -11.5 -4.5t-4.5 -11.5t4.5 -11.5 t11.5 -4.5h52q7 0 11.5 4.5t4.5 11.5t-4.5 11.5t-11.5 4.5z" />
</svg>