<svg viewBox="0 0 1024 1024" xmlns="http://www.w3.org/2000/svg">
  <path transform="scale(1, -1) translate(0, -960)" fill="currentColor" d="M798 627h-112q-9 75 -67 126.5t-136 51.5h-257q-39 0 -74.5 -15t-61.5 -41q-28 -29 -43 -64t-15 -74q0 -53 26 -97t72 -71v-155q0 -5 3 -9t6 -5q1 -2 2.5 -2h4.5t6.5 1t4.5 4l125 141h54q6 -75 61 -126.5t131 -51.5h171l127 -142q2 -3 5 -4t6 -1h2.5t3.5 1q5 2 7.5 6 t2.5 9v141q23 7 44 19t37 29q27 27 41.5 62.5t14.5 73.5q1 39 -14 74q-15 36 -41 62t-61 42q-35 15 -76 15v0zM274 450q-4 0 -7 -1.5t-5 -3.5l-100 -114v123q0 5 -2.5 8.5t-5.5 6.5q-41 20 -64.5 59t-23.5 85q0 32 12 61.5t36 51.5q22 23 51.5 35.5t61.5 12.5h259 q71 0 122 -50t51 -122q0 -63 -44 -107t-106 -44h-235v-1zM912 320q-16 -16 -36 -27t-42 -16q-6 -1 -9.5 -5.5t-3.5 -10.5v-111l-104 117q-3 3 -6 4t-5 1h-176q-63 0 -108.5 42t-51.5 104h137q75 0 127.5 51.5t55.5 125.5h110q66 0 114 -47t48 -114q-2 -33 -14.5 -62.5 t-35.5 -51.5v0zM192 643h-2q-13 0 -22.5 -9.5t-9.5 -22.5t9.5 -22.5t22.5 -9.5h2q13 0 22.5 9.5t9.5 22.5t-9.5 22.5t-22.5 9.5zM354 643h-2q-13 0 -22.5 -9.5t-9.5 -22.5t9.5 -22.5t22.5 -9.5h2q13 0 22.5 9.5t9.5 22.5t-9.5 22.5t-22.5 9.5zM514 579q13 0 22.5 9.5 t9.5 22.5t-9.5 22.5t-22.5 9.5h-2q-13 0 -22.5 -9.5t-9.5 -22.5t9.5 -22.5t22.5 -9.5h2zM701 445h-2q-13 0 -22.5 -9.5t-9.5 -22.5t9.5 -22.5t22.5 -9.5h2q13 0 22.5 9.5t9.5 22.5t-9.5 22.5t-22.5 9.5zM861 445h-2q-13 0 -22.5 -9.5t-9.5 -22.5t9.5 -22.5t22.5 -9.5h2 q13 0 22.5 9.5t9.5 22.5t-9.5 22.5t-22.5 9.5z" />
</svg>