<svg viewBox="0 0 256 256" xmlns="http://www.w3.org/2000/svg">
  <path transform="scale(1, -1) translate(0, -256)" fill="currentColor" d="M224 180h-16v48q0 10 -7 16.5t-17 6.5h-152q-10 0 -16.5 -6.5t-6.5 -16.5v-82q0 -10 6.5 -17t16.5 -7h16v-47q0 -10 7 -16.5t17 -6.5h23v-40q0 -5 4 -7q2 -1 4 -1t3 2l53 46h65q10 0 16.5 7t6.5 16v83q0 9 -6.5 15.5t-16.5 6.5zM32 137q-4 0 -6.5 2.5t-2.5 6.5v82 q0 4 2.5 6.5t6.5 2.5h153q3 0 6 -2.5t3 -6.5v-91h-16q-3 0 -5 -2t-2 -5v-23l-33 28q-1 1 -4 1h-102v1zM233 75q0 -3 -2.5 -6t-6.5 -3h-67q-3 0 -5 -2l-43 -37v32q0 3 -2 5t-5 2h-31q-3 0 -6 3t-3 7v47h70l42 -36q1 -2 3 -2t4 1q4 2 4 6v31h15q3 0 5.5 2t2.5 5v37h16 q4 0 6.5 -3t2.5 -6v-83zM60 185q0 3 -2 5t-5 2v0q-3 0 -5 -2t-2 -5t2 -5t5 -2v0q3 0 5 2t2 5zM106 178h1q3 0 5 2.5t2 5.5t-2 5t-5 2h-1q-3 0 -5 -2t-2 -5t2 -5.5t5 -2.5zM160 178v0q3 0 5 2.5t2 5.5t-2 5t-5 2v0q-3 0 -5.5 -2t-2.5 -5t2.5 -5.5t5.5 -2.5z" />
</svg>