<svg viewBox="0 0 256 256" xmlns="http://www.w3.org/2000/svg">
  <path transform="scale(1, -1) translate(0, -256)" fill="currentColor" d="M130 251q-25 0 -47 -9t-39 -27q-19 -19 -28 -43.5t-7 -50.5t14 -49l-18 -58q-1 -3 1.5 -6t4.5 -3t3 1l56 18q27 -16 59 -16t60.5 16.5t44.5 44t16.5 60.5t-16 61t-44 44.5t-60.5 16.5zM182 36q-25 -14 -53.5 -13.5t-54.5 15.5h-3h-2l-46 -15l15 48q0 3 -1 5 q-18 32 -13.5 68t30.5 62q15 15 34.5 23t41.5 8q29 0 53.5 -14.5t39 -39t14.5 -54t-14.5 -54t-40.5 -39.5zM164 172h-68q-3 0 -5.5 -2t-2.5 -5t2.5 -5t5.5 -2h68q3 0 5 2t2 5t-2 5t-5 2zM164 136h-68q-3 0 -5.5 -2.5t-2.5 -5.5t2.5 -4.5t5.5 -1.5h68q3 0 5 2t2 4.5t-2 5 t-5 2.5zM164 101h-68q-3 0 -5.5 -2t-2.5 -5t2.5 -5.5t5.5 -2.5h68q3 0 5 2.5t2 5.5t-2 5t-5 2z" />
</svg>