<svg viewBox="0 0 256 256" xmlns="http://www.w3.org/2000/svg">
  <path transform="scale(1, -1) translate(0, -256)" fill="currentColor" d="M226 251h-196q-11 0 -18 -7.5t-7 -17.5v-115q0 -11 7 -18t18 -7h31l-1 -3q-1 -5 1 -10l14 -25l-8 -25q-2 -4 -0.5 -8.5t5 -7t8 -2.5t8.5 2l40 28q4 2 5.5 6.5t0.5 9.5l-10 26l4 9h97q11 0 18 7t7 18v115q1 10 -6.5 17.5t-17.5 7.5zM237 111q0 -4 -3 -7.5t-8 -3.5h-102 q-4 0 -6 -4l-7 -15q-2 -3 0 -5l10 -29l-40 -28l9 28q1 3 0 6l-16 27l3 11q0 4 -2 6.5t-5 2.5h-40q-5 0 -8 3t-3 8v115q0 5 3.5 8t7.5 3h196q4 0 7.5 -3.5t3.5 -7.5v-115zM83 200h73q3 0 5 2t2 5t-2 5t-5 2h-73q-3 0 -5 -2t-2 -5t2 -5t5 -2zM173 180h-90q-3 0 -5 -2.5 t-2 -5.5t2 -5t5 -2h91q3 0 5 2t2 5t-2.5 5.5t-5.5 2.5zM156 146h-73q-3 0 -5 -2.5t-2 -5.5t2 -5t5 -2h73q3 0 5 2t2 5t-2 5.5t-5 2.5z" />
</svg>