<svg viewBox="0 0 256 256" xmlns="http://www.w3.org/2000/svg">
  <path transform="scale(1, -1) translate(0, -256)" fill="currentColor" d="M220 244q-6 7 -16 7h-152q-9 0 -16 -7t-7 -18l10 -159q1 -9 7.5 -15.5t15.5 -6.5h39l21 -37q2 -3 6 -3t6 3l21 37h39q9 0 15.5 6.5t7.5 15.5l10 159q0 11 -7 18zM203 68q0 -4 -3 -6.5t-6 -2.5h-43q-4 0 -6 -3l-17 -30l-17 30q-2 4 -6 4h-43q-4 0 -6.5 2t-2.5 6l-10 159 q0 4 2.5 7t6.5 3h152q3 0 6 -3.5t3 -6.5zM128 194q-3 0 -5 -2.5t-2 -5.5v-45q0 -3 2 -5t5 -2t5 2t2 5v46q0 3 -2 5t-5 2zM128 105q-3 0 -5 -2t-2 -5v-1q0 -3 2 -5t5 -2t5 2t2 5v1q0 3 -2 5t-5 2z" />
</svg>