<svg viewBox="0 0 256 256" xmlns="http://www.w3.org/2000/svg">
  <path transform="scale(1, -1) translate(0, -256)" fill="currentColor" d="M206 240q-20 8 -41 3.5t-37 -20.5q-16 16 -36.5 20.5t-41.5 -4t-33 -27.5t-12 -44q0 -38 35 -80q-5 -9 -6 -20t2.5 -22.5t12.5 -20.5t21 -13l4 -1q6 0 9.5 3.5t4.5 7.5t-1 7q-3 8 -1 16q21 -14 46 -12.5t45 17.5q31 26 50 52q24 35 24 66q0 25 -12 44t-33 28zM168 62 q-17 -15 -40 -15t-40 15q-3 2 -6 1.5t-5 -3.5q-5 -8 -5.5 -17t2.5 -18q-8 4 -14.5 10.5t-9.5 15.5t-2 18t7 17q2 5 -1 8q-34 40 -34 75q0 20 9.5 35.5t26.5 22.5q11 5 22 5t21.5 -4.5t19.5 -13.5q4 -4 9.5 -4t9.5 4q13 13 30 16.5t33.5 -3t26.5 -22.5t10 -35q-1 -29 -23 -61 q-18 -23 -47 -47zM157 178h-58q-3 0 -5 -2t-2 -5t2 -5t5 -2h57q3 0 5.5 2t2.5 5t-2 5t-5 2zM157 145h-58q-3 0 -5 -2t-2 -5t2 -5t5 -2h57q3 0 5.5 2t2.5 5t-2 5t-5 2zM157 112h-58q-3 0 -5 -2t-2 -5t2 -5t5 -2h57q3 0 5.5 2t2.5 5t-2 5t-5 2z" />
</svg>