<svg viewBox="0 0 256 256" xmlns="http://www.w3.org/2000/svg">
  <path transform="scale(1, -1) translate(0, -256)" fill="currentColor" d="M228 248h-200q-9 0 -16 -7t-7 -17v-134q0 -9 7 -16t17 -7h16q-11 -38 -18 -48q-1 -2 -1 -4t2 -4.5t5 -2.5h3q15 7 38 25t34 33h120q9 0 16 7t7 17v134q0 10 -7 17t-16 7zM237 90q0 -4 -2.5 -7t-6.5 -3h-123q-4 0 -6 -3q-6 -9 -20.5 -22t-29.5 -23q4 12 11 38l1 2 q0 3 -2 5.5t-5 2.5h-26q-4 0 -6.5 3t-2.5 7v134q0 4 3 7t6 3h199q4 0 7 -3t3 -7v-134zM65 174h-1q-5 0 -8.5 -4t-3.5 -9.5t4 -9t9.5 -3.5t9 3.5t3.5 9t-3.5 9.5t-9.5 4zM126 174h-1q-5 0 -9 -4t-4 -9.5t4.5 -9t9.5 -3.5t9 3.5t4 9t-4 9.5t-9 4zM186 174v0q-6 0 -9.5 -4 t-3.5 -9.5t4 -9t9.5 -3.5t9.5 3.5t4 9t-4 9.5t-10 4z" />
</svg>