<svg viewBox="0 0 1024 1024" xmlns="http://www.w3.org/2000/svg">
  <path transform="scale(1, -1) translate(0, -960)" fill="currentColor" d="M914 483h-60v338q0 32 -23 55t-55 23h-443q-33 0 -56 -23t-23 -55v-162h-144q-32 0 -55 -23t-23 -55v-240q0 -33 23 -56t55 -23h36v-73q0 -5 2 -8.5t6 -6.5q1 -1 3 -1h5q2 0 4.5 1t4.5 2l119 86h102v-97q0 -33 23 -56t55 -23h263l118 -86q3 -1 5 -2t5 -1h3.5t4.5 1 q3 3 5.5 6.5t2.5 8.5v73h35q32 0 55 23t23 56v240q2 32 -21 55t-55 23v0zM286 821q0 19 14 32.5t33 13.5h441q20 0 33.5 -13.5t13.5 -32.5v-338h-189v98q0 32 -23 55t-55 23h-268v162v0zM285 294q-3 0 -5 -1t-5 -2l-97 -70v57q0 8 -4.5 12t-11.5 4h-52q-19 0 -32.5 14 t-13.5 33v240q0 19 13.5 32.5t32.5 13.5h442q19 0 32.5 -13.5t13.5 -32.5v-240q0 -19 -13.5 -33t-32.5 -14h-267zM960 165q0 -19 -13.5 -33t-32.5 -14h-52q-7 0 -11.5 -4t-4.5 -12v-57l-97 70q-3 1 -5 2t-5 1h-267q-19 0 -32.5 14t-13.5 33v97h128q32 0 55 23t23 56v110h282 q19 0 32.5 -13.5t13.5 -32.5v-240v0zM187 485h-1q-14 0 -23 -9.5t-9 -22.5t9 -22.5t23 -9.5h1q13 0 22.5 9.5t9.5 22.5t-9.5 22.5t-22.5 9.5v0zM339 485h-1q-14 0 -23 -9.5t-9 -22.5t9 -22.5t23 -9.5h1q13 0 22.5 9.5t9.5 22.5t-9.5 22.5t-22.5 9.5v0zM493 485h-2 q-13 0 -22.5 -9.5t-9.5 -22.5t9.5 -22.5t22.5 -9.5h2q13 0 22.5 9.5t9.5 22.5t-9.5 22.5t-22.5 9.5v0zM397 778h-2q-13 0 -22.5 -9.5t-9.5 -22.5q0 -14 9.5 -23t22.5 -9h2q13 0 22.5 9t9.5 23q0 13 -9.5 22.5t-22.5 9.5zM581 746q0 13 -9.5 22.5t-22.5 9.5h-2 q-13 0 -22.5 -9.5t-9.5 -22.5q0 -14 9.5 -23t22.5 -9h2q13 0 22.5 9t9.5 23zM699 714h2q13 0 22.5 9t9.5 23q0 13 -9.5 22.5t-22.5 9.5h-2q-13 0 -22.5 -9.5t-9.5 -22.5q0 -14 9.5 -23t22.5 -9zM694 317h-1q-13 0 -22.5 -9.5t-9.5 -22.5t9.5 -22.5t22.5 -9.5h1q14 0 23 9.5 t9 22.5t-9 22.5t-23 9.5zM848 317h-2q-13 0 -22.5 -9.5t-9.5 -22.5t9.5 -22.5t22.5 -9.5h2q13 0 22.5 9.5t9.5 22.5t-9.5 22.5t-22.5 9.5z" />
</svg>