<svg viewBox="0 0 1024 1024" xmlns="http://www.w3.org/2000/svg">
  <path transform="scale(1, -1) translate(0, -960)" fill="currentColor" d="M514 899q-104 0 -192 -32t-152.5 -89t-100.5 -135q-37 -77 -37 -168q0 -94 38 -180q37 -86 101 -152t148 -105q84 -40 177 -41h83q6 0 10.5 3.5t5.5 9.5q1 4 -1 9.5t-7 7.5q-59 33 -83.5 56.5t-36.5 42.5q57 -4 113 1q56 6 107.5 21.5t98.5 40.5q46 25 84 59 q60 53 91 117.5t31 136.5q0 83 -38 155q-37 72 -102 126t-152 85t-186 31v0zM850 272q-39 -34 -86 -58q-48 -24 -101.5 -38.5t-110.5 -18.5q-57 -3 -114 5q-4 1 -8.5 -1.5t-7.5 -6.5q-2 -4 -2 -9t2 -9q3 -4 5 -7.5t3 -6.5q11 -18 29 -41t61 -52h-24q-86 1 -165 38 q-78 37 -137.5 98t-94.5 142q-35 80 -35 168q0 84 34 156q35 72 95 124.5t142 81.5q83 30 179 30q92 0 173 -28q82 -29 142.5 -78.5t95.5 -116.5q35 -66 35 -142q0 -66 -28 -124.5t-82 -105.5zM318 629h277q7 0 11.5 4.5t4.5 11.5t-4.5 11.5t-11.5 4.5h-277q-7 0 -11.5 -4.5 t-4.5 -11.5t5 -11.5t11 -4.5v0zM706 530h-388q-7 0 -11.5 -4.5t-4.5 -11.5q0 -8 4.5 -12t11.5 -4h388q7 0 11.5 4t4.5 12q0 7 -5 11.5t-11 4.5zM661 374h-343q-7 0 -11.5 -4t-4.5 -12q0 -7 4.5 -11.5t11.5 -4.5h343q7 0 11.5 4.5t4.5 11.5q0 8 -4.5 12t-11.5 4z" />
</svg>