<svg viewBox="0 0 1024 1024" xmlns="http://www.w3.org/2000/svg">
  <path transform="scale(1, -1) translate(0, -960)" fill="currentColor" d="M864 715q-22 49 -58 88q-35 39 -80 67t-97 43t-107 15q-75 0 -143 -25q-68 -26 -121.5 -71t-88.5 -106q-36 -62 -46 -134q-11 -76 5 -148q17 -71 56.5 -130t99.5 -102q59 -42 134 -60l59 -160q3 -11 13 -17.5t22 -6.5t22 6.5t13 17.5l59 160q42 10 81 29q38 20 71 46.5 t60 59.5q27 34 46 73q21 41 32 85q10 44 10 89.5t-10 90.5q-11 46 -32 90v0zM837 374q-18 -37 -44 -68q-25 -32 -56.5 -56.5t-67.5 -42.5q-37 -17 -77 -26q-4 -1 -7 -3.5t-4 -6.5l-63 -168q-1 -2 -3 -2.5t-3 -0.5t-3 0.5t-2 2.5l-62 168q-1 4 -4.5 6.5t-6.5 3.5 q-71 16 -127 55t-93.5 93.5t-53.5 121.5q-17 66 -6 138q9 65 42 121q33 57 82.5 98t111.5 65q63 23 132 23q51 0 98 -14q48 -14 89 -39t73 -61q33 -36 53 -80q19 -41 29 -83t10 -83.5t-9 -82.5q-10 -40 -28 -79v0zM640 698h-256q-7 0 -11.5 -4.5t-4.5 -11.5q0 -8 4.5 -12 t11.5 -4h256q7 0 11.5 4t4.5 12q0 7 -4.5 11.5t-11.5 4.5zM640 558h-256q-7 0 -11.5 -4t-4.5 -12q0 -7 4.5 -11.5t11.5 -4.5h256q7 0 11.5 4.5t4.5 11.5q0 8 -4.5 12t-11.5 4zM640 427h-256q-7 0 -11.5 -4.5t-4.5 -11.5t4.5 -11.5t11.5 -4.5h256q7 0 11.5 4.5t4.5 11.5 t-4.5 11.5t-11.5 4.5z" />
</svg>