<svg viewBox="0 0 1024 1024" xmlns="http://www.w3.org/2000/svg">
  <path transform="scale(1, -1) translate(0, -960)" fill="currentColor" d="M901 712h-160v72q0 37 -27 64t-64 27h-528q-36 0 -63 -27t-27 -64v-339q0 -37 27 -64t64 -27h26q-9 -32 -23 -77.5t-30 -68.5q-2 -5 -2 -10.5t4 -8.5q2 -3 5.5 -5t6.5 -2q2 0 4 0.5t3 1.5q21 10 51 29q30 20 60 44t57 49q27 26 43 48h56v-25.5v-46.5q0 -38 27 -65t64 -27 h223q16 -22 44 -48t58.5 -50t59.5 -43t49 -28q1 -1 3 -1.5t3 -0.5q4 0 7.5 1.5t5.5 5.5q4 4 4 9.5t-4 9.5q-17 20 -26.5 58.5t-15.5 72.5q-1 5 -1.5 8.5t-1.5 7.5h19q38 0 65 27t27 64v336q-2 40 -29 66.5t-64 26.5v0zM318 386q-3 0 -7 -2.5t-5 -5.5q-21 -32 -68.5 -73 t-90.5 -68q11 29 21.5 63t18.5 65q1 3 0 7t-3 7t-5.5 5t-7.5 2h-48q-24 0 -41.5 17.5t-17.5 41.5v339q0 24 17.5 41.5t41.5 17.5h528q24 0 41.5 -17.5t17.5 -41.5v-339q0 -24 -17.5 -41.5t-41.5 -17.5h-333v0zM960 285q0 -24 -17.5 -41.5t-41.5 -17.5h-40q-4 0 -7.5 -1.5 t-5.5 -5.5q-2 -3 -3 -7t0 -7q1 -7 3 -16t3 -19q4 -22 9 -47t14 -48q-44 28 -90.5 68.5t-66.5 70.5q-3 4 -6 6t-7 2h-230q-24 0 -42 18t-18 42v50v22h236q37 0 64 27t27 64v235h160q24 0 41.5 -17.5t17.5 -41.5v-336v0zM203 656h-1q-14 0 -22.5 -9.5t-8.5 -22.5t9.5 -22.5 t22.5 -9.5t22.5 9.5t9.5 22.5t-9.5 22.5t-22.5 9.5zM381 656h-2q-13 0 -21.5 -9.5t-8.5 -22.5t9.5 -22.5t22.5 -9.5t22.5 9.5t9.5 22.5t-9.5 22.5t-22.5 9.5zM557 656h-2q-13 0 -21.5 -9.5t-8.5 -22.5t9.5 -22.5t22.5 -9.5t22.5 9.5t9.5 22.5t-9.5 22.5t-22.5 9.5z" />
</svg>