<svg viewBox="0 0 1024 1024" xmlns="http://www.w3.org/2000/svg">
  <path transform="scale(1, -1) translate(0, -960)" fill="currentColor" d="M893 776q-27 24 -59.5 36.5t-68.5 11.5q-25 48 -74.5 76t-108.5 28q-58 0 -107.5 -28t-74.5 -74q-35 1 -68.5 -11.5t-59.5 -36.5q-28 -26 -43 -60.5t-15 -72.5q0 -52 29 -96.5t75 -66.5q0 -46 23 -84.5t64 -59.5q18 -10 37 -15t38 -5q24 0 47.5 7.5t43.5 23.5 q36 -25 79.5 -29t83.5 16q41 19 65 56t25 80q55 18 90 65t35 106q1 39 -14 73.5t-42 59.5v0zM805 501q-6 -1 -9.5 -5.5t-3.5 -10.5q1 -39 -18 -71t-54 -49t-72 -12.5t-67 28.5q-5 3 -10.5 3t-10.5 -3q-30 -25 -68 -29.5t-73 13.5t-53.5 51.5t-15.5 71.5q0 5 -2 9.5t-7 6.5 q-42 17 -68.5 55t-26.5 83q0 31 13 59t35 49q21 20 47.5 30t55.5 10h5.5h5.5q5 0 9.5 2.5t6.5 7.5q20 44 63.5 70t94.5 26q52 0 95 -25.5t62 -68.5q3 -5 7 -7.5t9 -2.5q31 2 61 -8t53 -32t35.5 -50t12.5 -59q1 -50 -30.5 -90t-81.5 -52v0zM304 258q-29 0 -49.5 -21 t-20.5 -50t20.5 -49.5t49.5 -20.5t49.5 20.5t20.5 49.5t-20.5 50t-49.5 21zM304 150q-16 0 -27 11.5t-11 27.5q0 15 11 26.5t27 11.5t27 -11.5t11 -26.5q0 -16 -11 -27.5t-27 -11.5zM443 650h-5q-13 0 -22.5 -9.5t-9.5 -22.5q0 -14 9.5 -23t22.5 -9h5q13 0 22.5 9t9.5 23 q0 13 -9.5 22.5t-22.5 9.5zM595 650h-5q-13 0 -22.5 -9.5t-9.5 -22.5q0 -14 9.5 -23t22.5 -9h5q13 0 22.5 9t9.5 23q0 13 -9.5 22.5t-22.5 9.5zM144 107q-29 0 -49.5 -20.5t-20.5 -49.5t20.5 -49t49.5 -20t49.5 21t20.5 49q0 29 -20.5 49t-49.5 20zM144 0q-16 0 -27 11.5 t-11 26.5q0 16 11 27.5t27 11.5t27 -11.5t11 -27.5q0 -15 -11 -26.5t-27 -11.5zM747 650h-5q-13 0 -22.5 -9.5t-9.5 -22.5q0 -14 9.5 -23t22.5 -9h5q13 0 22.5 9t9.5 23q0 13 -9.5 22.5t-22.5 9.5z" />
</svg>