<svg viewBox="0 0 1024 1024" xmlns="http://www.w3.org/2000/svg">
  <path transform="scale(1, -1) translate(0, -960)" fill="currentColor" d="M869 928h-714q-35 0 -59 -24t-24 -58v-216q0 -33 24 -57t58 -24h43v-59q0 -12 6.5 -22t17.5 -15q3 -3 7.5 -3h8.5q7 0 14 2.5t13 8.5l99 89h504q34 0 58 24t24 58v214q2 34 -21.5 58t-58.5 24v0zM920 629q0 -21 -14.5 -35.5t-35.5 -14.5h-512q-2 0 -5 -1t-6 -4l-104 -92 q-2 -3 -5 -2.5t-4 0.5q-2 0 -3.5 2t-1.5 6v75q0 7 -4.5 11.5t-11.5 4.5h-58q-20 0 -34.5 14.5t-14.5 35.5v217q-2 21 13 35.5t36 14.5h715q21 0 35.5 -14.5t14.5 -35.5v-217v0zM869 349h-43v59q0 12 -7 22t-17 15q-11 5 -23 3.5t-21 -10.5l-100 -89h-503q-33 0 -57 -24 t-24 -58v-216q0 -33 24 -57t57 -24h715q34 0 58 24t24 57v216q0 34 -24 58t-59 24zM920 50q0 -21 -14.5 -35.5t-35.5 -14.5h-715q-20 0 -34.5 14.5t-14.5 35.5v217q0 21 14.5 35.5t34.5 14.5h509q2 0 5.5 1t5.5 4l106 92q2 3 5 2.5t4 -0.5q2 0 3.5 -2t1.5 -6v-75 q0 -7 4.5 -11.5t11.5 -4.5h59q21 0 35.5 -14.5t14.5 -35.5v-217v0z" />
</svg>