<svg viewBox="0 0 1024 1024" xmlns="http://www.w3.org/2000/svg">
  <path transform="scale(1, -1) translate(0, -960)" fill="currentColor" d="M981 534l-56 80l-2 98q0 13 -7.5 24t-21.5 16l-91 34l-51 78q-7 11 -18.5 16.5t-23.5 2.5l-94 -13l-82 52q-10 6 -22.5 6t-23.5 -6l-82 -52l-94 13q-12 1 -24 -3.5t-18 -15.5l-51 -82l-91 -33q-12 -5 -20 -15.5t-9 -24.5l-1 -98l-56 -80q-9 -11 -9 -25t9 -24l56 -80 l1 -98q0 -13 8 -24t21 -16l70 -26l-38 -228q-2 -12 3 -23t16 -17q5 -3 10 -4t9 -1q6 0 13 2.5t11 6.5l197 162l67 -42q11 -6 23.5 -6t23.5 6l81 52l95 -13q12 -1 23.5 3.5t17.5 15.5l52 82l91 33q12 5 19.5 15.5t9.5 24.5l1 98l56 80q10 11 10 25t-8 24v0zM955 502l-59 -83 q-1 -2 -2 -4.5t-1 -4.5l-3 -103q0 -3 -2.5 -5.5t-5.5 -3.5l-96 -36q-3 -1 -5 -2.5t-3 -3.5l-55 -86q-1 -3 -4 -4t-7 -1l-101 13q-2 0 -5.5 -0.5t-5.5 -1.5l-86 -53q-3 -1 -6 -1t-6 1l-76 48q-2 4 -6.5 4t-8.5 -4l-206 -169q-3 -3 -5 -2.5t-3 2.5q-1 1 -3 2.5t0 3.5l41 243 q1 6 -2 10.5t-7 7.5l-84 30q-3 1 -4.5 3.5t-3.5 6.5l-3 102q0 3 -1 5t-2 5l-59 83q-3 2 -3 6t3 7l59 81q1 3 2 5.5t1 4.5l3 102q0 4 2.5 6.5t5.5 3.5l96 35q3 1 5 2.5t3 4.5l55 86q1 2 3.5 3.5t5.5 1.5h1h1l101 -13h5.5t5.5 2l86 54q3 1 6 1t6 -1l86 -54q2 -2 5 -2.5t6 0.5 l101 13q4 0 6.5 -1.5t4.5 -3.5l55 -86q1 -3 3 -4.5t5 -2.5l96 -35q3 -1 4.5 -3.5t3.5 -6.5l3 -102q0 -2 1 -4.5t2 -5.5l59 -83q-3 -2 -4 -5.5t-4 -7.5v0zM646 662h-268q-8 0 -12 -4t-4 -12q0 -7 4 -11.5t12 -4.5h268q8 0 12 4.5t4 11.5q0 8 -4 12t-12 4zM646 515h-268 q-8 0 -12 -4.5t-4 -11.5t4 -11.5t12 -4.5h268q8 0 12 4.5t4 11.5t-4 11.5t-12 4.5zM646 370h-268q-8 0 -12 -4.5t-4 -11.5q0 -8 4 -12t12 -4h268q8 0 12 4t4 12q0 7 -4 11.5t-12 4.5z" />
</svg>