<svg viewBox="0 0 256 256" xmlns="http://www.w3.org/2000/svg">
  <path transform="scale(1, -1) translate(0, -256)" fill="currentColor" d="M229 232l-198 19q-10 1 -17.5 -6t-7.5 -17v-169q0 -11 8 -17.5t18 -5.5l109 14q3 1 5.5 -0.5t3.5 -3.5l18 -34q2 -3 5 -5t6 -2h1q4 1 7 3t4 6l13 39q2 6 8 7l18 2q9 1 14.5 7.5t5.5 15.5v124q0 9 -6 15.5t-15 7.5zM236 85q0 -4 -2 -6.5t-6 -3.5l-18 -2q-6 -1 -11.5 -5 t-7.5 -10l-12 -36l-16 30q-3 6 -9 9t-12 3h-3l-109 -14q-4 -1 -7 2t-3 7v169q0 4 3 7t7 2l198 -19q4 0 6.5 -3t2.5 -7v-123h-1zM172 194h-97q-3 0 -5 -2t-2 -5t2 -5t5 -2h97q3 0 5 2t2 5t-2 5t-5 2zM172 156h-97q-3 0 -5 -2t-2 -5t2 -5t5 -2h97q3 0 5 2t2 5t-2 5t-5 2z M172 112h-97q-3 0 -5 -2t-2 -5t2 -5t5 -2h97q3 0 5 2t2 5t-2 5t-5 2z" />
</svg>