<svg viewBox="0 0 256 256" xmlns="http://www.w3.org/2000/svg">
  <path transform="scale(1, -1) translate(0, -256)" fill="currentColor" d="M231 190q-7 6 -16.5 9.5t-19.5 3.5q-7 22 -25.5 35t-41.5 13t-41.5 -13t-25.5 -35v0q-21 0 -36 -13q-9 -8 -13.5 -18.5t-4.5 -23t6 -24.5t17 -20q-24 -33 -23 -87q0 -5 3 -8t8 -4h2q4 0 7.5 2t4.5 6q7 17 18 30.5t25 21.5q10 -12 24 -18.5t29 -6.5q25 0 44 15.5t24 39.5 q10 0 19 4t17 11t13 17.5t4.5 22t-5 22t-13.5 18.5zM222 120q-13 -12 -31 -10q-3 0 -5 -2t-3 -4q-2 -21 -18 -35t-37 -14q-14 0 -26 6t-20 18q-1 2 -3.5 2.5t-4.5 -0.5q-17 -8 -30.5 -23t-22.5 -34q0 30 9 52q6 16 16 26q2 3 1.5 6.5t-3.5 4.5q-11 5 -17.5 15t-6.5 22 q0 18 14 30q11 10 27 10l5 -1q2 0 4.5 1.5t2.5 3.5q5 19 20 31t34.5 12t35 -12t20.5 -31q0 -2 2.5 -3.5t4.5 -1.5q9 1 17 -1.5t14.5 -8.5t10 -13.5t3.5 -16t-3.5 -16.5t-9.5 -13zM162 172h-68q-3 0 -5.5 -2t-2.5 -5t2.5 -5t5.5 -2h68q3 0 5.5 2t2.5 5t-2.5 5t-5.5 2z M162 135h-68q-3 0 -5.5 -2t-2.5 -5t2.5 -5.5t5.5 -2.5h68q3 0 5.5 2.5t2.5 5.5t-2.5 5t-5.5 2z" />
</svg>