<svg viewBox="0 0 256 256" xmlns="http://www.w3.org/2000/svg">
  <path transform="scale(1, -1) translate(0, -256)" fill="currentColor" d="M228 228h-200q-9 0 -16 -7t-7 -17v-116q0 -10 6.5 -16.5t16.5 -6.5h23v-30q0 -4 4 -6l3 -1q3 0 4 1l49 35h116q10 0 17 7t7 17v116q0 10 -7 17t-16 7zM237 88q0 -3 -2.5 -6t-6.5 -3h-119q-2 0 -4 -1l-39 -29v23q0 3 -2.5 5t-5.5 2h-30q-4 0 -6.5 3t-2.5 7v116q0 4 3 6.5 t6 2.5h199q4 0 7 -2.5t3 -6.5v-117zM172 192h-88q-3 0 -5 -2t-2 -5t2 -5t5 -2h88q3 0 5 2t2 5t-2 5t-5 2zM172 157h-88q-3 0 -5 -2t-2 -5t2 -5t5 -2h88q3 0 5 2t2 5t-2 5t-5 2zM172 122h-88q-3 0 -5 -2t-2 -5t2 -5t5 -2h88q3 0 5 2t2 5t-2 5t-5 2z" />
</svg>