<svg viewBox="0 0 1024 1024" xmlns="http://www.w3.org/2000/svg">
  <path transform="scale(1, -1) translate(0, -960)" fill="currentColor" d="M910 915h-796q-34 0 -58 -24t-24 -57v-536q0 -34 24 -58t58 -24h80q-12 -43 -33 -109.5t-43 -100.5q-2 -4 -2 -9.5t4 -9.5q2 -2 5.5 -4t7.5 -2h3t3 1q30 14 71 40q41 27 82 60t78 68q36 35 57 64h483q34 0 58 24t24 58v538q0 33 -24 57t-58 24v0zM960 296 q0 -20 -14.5 -35t-35.5 -15h-491q-3 0 -7 -2t-6 -6q-15 -22 -42 -50t-59.5 -56t-67.5 -54t-66 -44q17 40 32.5 92t28.5 100q1 3 0 6.5t-3 7.5l-6 4t-7 2h-102q-21 0 -35.5 15t-14.5 35v538q0 20 14.5 34.5t35.5 14.5h795q20 0 34.5 -14.5t14.5 -34.5v-538h2zM261 611h-2 q-13 0 -21.5 -9.5t-8.5 -22.5t9.5 -22.5t22.5 -9.5t22.5 9.5t9.5 22.5t-9.5 22.5t-22.5 9.5v0zM502 611h-1q-13 0 -22 -9.5t-9 -22.5t9.5 -22.5t22.5 -9.5q14 0 23 9.5t9 22.5t-9 22.5t-23 9.5zM746 611h-2q-13 0 -21.5 -9.5t-8.5 -22.5t9 -22.5t23 -9.5q13 0 22.5 9.5 t9.5 22.5t-9.5 22.5t-22.5 9.5z" />
</svg>