<svg viewBox="0 0 1024 1024" xmlns="http://www.w3.org/2000/svg">
  <path transform="scale(1, -1) translate(0, -960)" fill="currentColor" d="M896 646h-77v202q0 34 -23 57t-57 23h-611q-34 0 -57 -23t-23 -57v-330q0 -33 23 -56.5t57 -23.5h77v-201q0 -34 23 -57t57 -23h105v-173q0 -5 2.5 -8.5t7.5 -5.5q1 -2 3 -2h3q3 0 6 1l6 2l216 184h262q34 0 57 23.5t23 56.5v331q0 33 -23 56.5t-57 23.5v0zM128 470 q-20 0 -34 14t-14 34v330q0 20 14 34t34 14h611q21 0 34.5 -14t13.5 -34v-214q0 -2 -0.5 -3t-0.5 -2v-159h-74q-7 0 -11.5 -4t-4.5 -12v-115l-149 128q-2 3 -4.5 3h-6.5h-408v0zM944 237q0 -21 -14 -34.5t-34 -13.5h-269q-2 0 -5.5 -1t-5.5 -2l-194 -167v154q0 7 -4 11.5 t-12 4.5h-121q-21 0 -34.5 13.5t-13.5 34.5v201h294l171 -145q3 -3 5.5 -3h6.5h3t3 1q5 3 7.5 6.5t2.5 8.5v134h73q7 0 11.5 4.5t4.5 11.5v158h77q20 0 34 -13.5t14 -34.5v-329v0zM246 677q0 13 -9 22.5t-23 9.5h-1q-13 0 -22.5 -9.5t-9.5 -22.5t9.5 -22.5t22.5 -9.5h1 q14 0 23 9.5t9 22.5zM426 645h1q13 0 22.5 9.5t9.5 22.5t-9.5 22.5t-22.5 9.5h-1q-14 0 -23 -9.5t-9 -22.5t9 -22.5t23 -9.5zM638 645h2q13 0 22.5 9.5t9.5 22.5t-9.5 22.5t-22.5 9.5h-2q-13 0 -22.5 -9.5t-9.5 -22.5t9.5 -22.5t22.5 -9.5z" />
</svg>