<svg viewBox="0 0 256 256" xmlns="http://www.w3.org/2000/svg">
  <path transform="scale(1, -1) translate(0, -256)" fill="currentColor" d="M129 251q-29 0 -53.5 -10.5t-39 -28t-14.5 -38.5t14.5 -38.5t39 -28t53.5 -10.5t54 10.5t39 28t14 38.5t-14 38.5t-39 28t-54 10.5zM129 111q-25 0 -46.5 8.5t-34 23t-12.5 31.5t12.5 31.5t34 23t46.5 8.5t46.5 -8.5t34 -23t12.5 -31.5t-12.5 -31.5t-33.5 -23t-47 -8.5z M94 85q-10 0 -17.5 -7.5t-7.5 -17.5t7.5 -17.5t17.5 -7.5t17.5 7t7.5 17.5t-7.5 18t-17.5 7.5zM94 49q-4 0 -7.5 3.5t-3.5 8t3.5 7.5t7.5 3t7.5 -3.5t3.5 -8t-3 -7.5t-8 -3zM41 48q-9 0 -15 -6t-6 -15t6 -15.5t15 -6.5t15.5 6.5t6.5 15.5t-6.5 15t-15.5 6zM41 19q-3 0 -5 2 t-2 5t2 5.5t5 2.5t5.5 -2.5t2.5 -5.5t-2.5 -5t-5.5 -2zM86 184v0q-3 0 -5 -2t-2 -5t2 -5t5 -2v0q3 0 5.5 2t2.5 5t-2.5 5t-5.5 2zM130 184h-1q-3 0 -5 -2t-2 -5t2 -5t5 -2h1q3 0 5 2t2 5t-2.5 5t-4.5 2zM173 184h-1q-3 0 -5 -2t-2 -5t2 -5t5 -2h1q3 0 5 2t2 5t-2 5t-5 2z " />
</svg>