<svg viewBox="0 0 1024 1024" xmlns="http://www.w3.org/2000/svg">
  <path transform="scale(1, -1) translate(0, -960)" fill="currentColor" d="M512 786q-99 0 -186 -27q-88 -27 -153 -72.5t-103 -107.5q-38 -61 -38 -131q0 -62 30.5 -119.5t89.5 -102.5l-106 -87q-3 -3 -5 -8t1 -9q1 -5 5 -8.5t9 -3.5h456q99 0 186 27q88 26 153 72t103 107q38 62 38 132t-38 131t-103 107t-153 73q-87 27 -186 27zM512 142h-411 l86 71q3 2 5 5.5t2 7.5q0 3 -2 6.5t-5 5.5q-60 44 -91.5 97.5t-31.5 112.5q0 63 35 119q36 55 96.5 96.5t142.5 65.5q82 25 174 25t174 -25q81 -24 142 -65.5t97 -96.5q35 -56 35 -119t-35 -119q-36 -55 -96.5 -96.5t-142.5 -65.5q-82 -25 -174 -25v0zM293 475h-2 q-13 0 -22.5 -9.5t-9.5 -22.5t9.5 -22.5t22.5 -9.5h2q13 0 22.5 9.5t9.5 22.5t-9.5 22.5t-22.5 9.5v0zM514 475h-2q-13 0 -22.5 -9.5t-9.5 -22.5t9.5 -22.5t22.5 -9.5h2q13 0 22.5 9.5t9.5 22.5t-9.5 22.5t-22.5 9.5v0zM734 475h-1q-13 0 -22.5 -9.5t-9.5 -22.5t9.5 -22.5 t22.5 -9.5h1q14 0 23 9.5t9 22.5t-9 22.5t-23 9.5v0z" />
</svg>