<svg viewBox="0 0 1024 1024" xmlns="http://www.w3.org/2000/svg">
  <path transform="scale(1, -1) translate(0, -960)" fill="currentColor" d="M910 835h-796q-34 0 -58 -24t-24 -57v-464q0 -34 24 -58t58 -24h104v-130q0 -4 2 -8t6 -6q1 -1 3 -1.5t5 -0.5q2 0 4.5 1t4.5 3l197 144h469q33 0 57 24t24 57v464q2 33 -22 56.5t-58 23.5zM960 290q0 -21 -14.5 -35.5t-35.5 -14.5h-475q-2 0 -4.5 -1t-4.5 -2l-176 -128 v115q0 7 -4.5 11.5t-11.5 4.5h-120q-21 0 -35.5 14.5t-14.5 35.5v464q0 20 14.5 34.5t35.5 14.5h795q20 0 34.5 -14.5t14.5 -34.5v-464h2zM686 693h-348q-8 0 -12 -4.5t-4 -11.5t4 -11.5t12 -4.5h348q8 0 12 4.5t4 11.5t-5 11.5t-11 4.5zM686 552h-348q-8 0 -12 -4.5 t-4 -11.5t4 -11.5t12 -4.5h348q8 0 12 4.5t4 11.5t-5 11.5t-11 4.5zM686 411h-348q-8 0 -12 -4.5t-4 -11.5t4 -11.5t12 -4.5h348q8 0 12 4.5t4 11.5t-5 11.5t-11 4.5z" />
</svg>