<svg viewBox="0 0 1024 1024" xmlns="http://www.w3.org/2000/svg">
  <path transform="scale(1, -1) translate(0, -960)" fill="currentColor" d="M731 776h-438q-54 0 -102 -20q-47 -21 -82.5 -56.5t-55.5 -82.5q-21 -48 -21 -102q0 -50 18 -95q19 -45 50.5 -79.5t74.5 -56.5q43 -23 92 -28q-9 -13 -21 -23t-27 -17q-12 -5 -18.5 -16t-6.5 -24t6.5 -23.5t18.5 -16.5q21 -10 42.5 -14.5t44.5 -4.5q21 0 42.5 4.5 t41.5 14.5q39 17 67 47.5t42 69.5h232q54 0 102 20q47 21 82.5 56.5t55.5 82.5q21 48 21 102t-20 102q-21 48 -56.5 83.5t-82.5 55.5q-48 21 -102 21zM731 288h-243q-5 0 -9.5 -3t-6.5 -8q-11 -36 -36 -64.5t-58 -44.5q-35 -16 -73 -16t-71 16q-5 2 -6 5t-1 5q0 1 1 4.5 t6 4.5q25 12 44.5 32t31.5 45q2 4 1.5 8t-2.5 6q-3 3 -7 6.5t-8 3.5q-47 0 -89 18t-73.5 49t-49.5 72t-18 88q0 48 18 89q18 42 49 73t73 49q41 18 89 18h438q48 0 89 -18q42 -18 73 -49t49 -73q18 -41 18 -89q0 -47 -18 -88t-49 -72t-73 -49q-41 -18 -89 -18zM291 539h-6 q-13 0 -22.5 -9.5t-9.5 -22.5t9.5 -22.5t22.5 -9.5h6q13 0 22.5 9.5t9.5 22.5t-9.5 22.5t-22.5 9.5zM512 539h-6q-14 0 -23 -9.5t-9 -22.5t9 -22.5t23 -9.5h6q13 0 22.5 9.5t9.5 22.5t-9.5 22.5t-22.5 9.5zM733 539h-7q-13 0 -22.5 -9.5t-9.5 -22.5t9.5 -22.5t22.5 -9.5h7 q13 0 22.5 9.5t9.5 22.5t-9.5 22.5t-22.5 9.5z" />
</svg>