<svg viewBox="0 0 256 256" xmlns="http://www.w3.org/2000/svg">
  <path transform="scale(1, -1) translate(0, -256)" fill="currentColor" d="M245 154q-6 11 -16.5 19t-23.5 10q-8 25 -29.5 40.5t-48 15.5t-48 -15.5t-29.5 -40.5q-13 -3 -23.5 -10.5t-15.5 -18.5q-7 -14 -6 -28.5t9 -28.5q7 -10 18 -16.5t24 -6.5h45v-44q0 -5 2.5 -8t5.5 -4t5 -1q6 0 10 5l38 52h38q13 0 24.5 6.5t17.5 16.5q8 14 9 29t-6 28z M230 105q-5 -8 -13 -12t-17 -4h-42q-4 0 -6 -3l-38 -52v48q0 3 -2 5t-5 2h-52q-9 0 -17 4t-12 12q-7 10 -7.5 21.5t4.5 21t13.5 15.5t18.5 7q5 0 6 5q6 22 24.5 36t41.5 14t41 -14t24 -36q2 -5 7 -5q10 -1 19 -7t14 -15.5t4.5 -21t-6.5 -21.5zM160 170h-64q-3 0 -5.5 -2 t-2.5 -5t2.5 -5t5.5 -2h64q3 0 5.5 2t2.5 5t-2.5 5t-5.5 2zM160 135h-64q-3 0 -5.5 -2t-2.5 -5t2.5 -5t5.5 -2h64q3 0 5.5 2t2.5 5t-2.5 5t-5.5 2z" />
</svg>