<svg viewBox="0 0 1024 1024" xmlns="http://www.w3.org/2000/svg">
  <path transform="scale(1, -1) translate(0, -960)" fill="currentColor" d="M512 782q-99 0 -186 -25q-88 -25 -153 -68t-103 -101t-38 -124q0 -56 29 -109t85 -96l-37 -125q-1 -4 0 -9t5 -8q2 -1 4.5 -2t4.5 -1h4.5t3.5 1l135 75q55 -21 117.5 -32.5t128.5 -11.5q99 0 186 25q88 25 153 68t103 100q38 58 38 123q0 67 -38 125q-38 59 -103 102 t-153 68q-87 25 -186 25v0zM512 179q-65 0 -126.5 11.5t-115.5 33.5q-3 1 -6.5 1t-7.5 -3l-107 -60l29 97q1 5 -0.5 9.5t-6.5 8.5q-51 39 -79 88t-28 99q0 59 35 111q36 52 96.5 90.5t142.5 60.5q82 23 174 23t174 -23q81 -22 142 -60.5t97 -90.5q35 -52 35 -111t-35 -111 q-36 -51 -96.5 -90t-142.5 -61q-82 -23 -174 -23zM293 502h-2q-13 0 -22.5 -9t-9.5 -23q0 -13 9.5 -22.5t22.5 -9.5h2q13 0 22.5 9.5t9.5 22.5q0 14 -9.5 23t-22.5 9zM514 502h-2q-13 0 -22.5 -9t-9.5 -23q0 -13 9.5 -22.5t22.5 -9.5h2q13 0 22.5 9.5t9.5 22.5q0 14 -9.5 23 t-22.5 9zM734 502h-1q-13 0 -22.5 -9t-9.5 -23q0 -13 9.5 -22.5t22.5 -9.5h1q14 0 23 9.5t9 22.5q0 14 -9 23t-23 9z" />
</svg>