<svg viewBox="0 0 1024 1024" xmlns="http://www.w3.org/2000/svg">
  <path transform="scale(1, -1) translate(0, -960)" fill="currentColor" d="M154 19q0 -14 -10.5 -24.5t-25.5 -10.5q-14 0 -24.5 10.5t-10.5 24.5q0 15 10.5 25t24.5 10q15 0 25.5 -10t10.5 -25zM896 766q-28 26 -63.5 39.5t-72.5 12.5q-26 50 -78.5 80t-115.5 30q-62 0 -114.5 -30t-78.5 -80q-37 1 -73 -12.5t-63 -39.5q-30 -27 -46.5 -64 t-16.5 -76q0 -56 31 -103.5t81 -71.5q-1 -49 23.5 -90t68.5 -63q19 -10 39 -15t41 -5q26 0 51 8.5t46 23.5q39 -27 85 -30.5t88 16.5q43 22 68.5 60.5t27.5 85.5q60 19 97 69.5t37 112.5q-1 41 -17 78t-45 64zM803 470q-6 -1 -9.5 -5.5t-3.5 -10.5q2 -40 -18.5 -75 t-57.5 -53q-38 -18 -78 -13t-71 31q-5 4 -10.5 4t-10.5 -4q-32 -28 -73.5 -32t-78.5 16q-37 19 -57 55t-17 78q0 5 -2 9t-7 7q-46 18 -74.5 58.5t-28.5 90.5q0 33 13 63.5t39 52.5q22 21 50.5 32.5t59.5 11.5h6.5h6.5q5 0 9 2t7 7q20 46 66.5 73.5t102.5 27.5 q57 0 102.5 -27.5t67.5 -73.5q2 -5 6.5 -7t9.5 -2q34 2 66 -9t57 -35q25 -22 38 -52.5t13 -63.5q-1 -54 -35 -97.5t-88 -58.5v0zM267 211q-30 0 -51.5 -21.5t-21.5 -51.5t21.5 -52t51.5 -22t52 22t22 52t-22 51.5t-52 21.5v0zM267 96q-17 0 -29 12.5t-12 29.5q0 16 12 28.5 t29 12.5t29.5 -12.5t12.5 -28.5q0 -17 -12.5 -29.5t-29.5 -12.5zM672 678h-213q-7 0 -11.5 -4t-4.5 -12q0 -7 4.5 -11.5t11.5 -4.5h213q7 0 11.5 4.5t4.5 11.5q0 8 -4.5 12t-11.5 4zM672 539h-213q-7 0 -11.5 -4.5t-4.5 -11.5t4.5 -11.5t11.5 -4.5h213q7 0 11.5 4.5 t4.5 11.5t-4.5 11.5t-11.5 4.5z" />
</svg>