<svg viewBox="0 0 1024 1024" xmlns="http://www.w3.org/2000/svg">
  <path transform="scale(1, -1) translate(0, -960)" fill="currentColor" d="M934 755q-33 39 -79 59.5t-97 20.5h-393q-5 0 -9 -3t-6 -8q-1 -5 0.5 -10t4.5 -8l183 -136q-16 -52 -7 -106t42 -98q33 -45 82.5 -70t104.5 -25h5.5h5.5q41 2 78 18t66.5 43t49.5 62q19 35 25 76q6 50 -8 98.5t-48 86.5v0zM958 573q-9 -70 -63.5 -119t-124.5 -52 q-52 -3 -97 18t-75 63q-30 41 -37 90t10 97q1 5 0 10.5t-5 7.5l-152 115h348q43 0 83 -18t69 -51q26 -33 38 -75t6 -86v0zM488 226q19 61 3.5 123t-62.5 109q-49 49 -116 62.5t-137 -11.5q-38 -15 -69 -42.5t-48 -64.5q-27 -59 -25 -120.5t35 -113.5q32 -50 84.5 -79.5 t112.5 -29.5h395q5 0 9 3.5t5 7.5q1 5 0 10.5t-5 7.5l-182 138v0zM264 93q-52 0 -97 25t-73 69q-27 45 -29.5 98t21.5 105q15 32 41 55t59 35q19 7 39 10.5t39 3.5q40 0 76 -14t65 -43q42 -42 54.5 -98.5t-6.5 -111.5q-1 -5 0 -10t5 -7l152 -116h-346v-1z" />
</svg>