<svg viewBox="0 0 1024 1024" xmlns="http://www.w3.org/2000/svg">
  <path transform="scale(1, -1) translate(0, -960)" fill="currentColor" d="M813 677q-16 50 -45 91q-30 41 -70 70t-87 45q-48 16 -101 16q-52 0 -100 -16t-88 -46t-69 -71q-30 -41 -45 -91q-74 -9 -125 -67.5t-51 -133.5q0 -43 16 -80q17 -38 44.5 -65.5t65.5 -43.5q37 -16 79 -16h77q-18 -35 -60 -87t-120 -107q-12 -8 -16 -22t0 -27 q5 -14 16 -21.5t24 -7.5h3h2q50 5 96 17q46 13 87.5 33t77.5 47q37 28 67 63q29 32 46.5 61.5t27.5 48.5h221q42 0 80 16q37 17 64.5 44.5t43.5 65.5q16 37 16 79q2 79 -50 137t-127 68v0zM787 299h-232q-5 0 -9 -2.5t-5 -6.5q-7 -17 -24.5 -48t-47.5 -64q-29 -33 -63 -59 t-72.5 -45t-82.5 -31q-43 -12 -89 -16q-6 0 -9 3t-3 5q0 1 -0.5 5t4.5 8q96 68 141 131t60 98q1 3 1 7.5t-2 6.5q-3 4 -6.5 6t-6.5 2h-103q-72 0 -123 51.5t-51 123.5q0 67 45.5 116.5t112.5 55.5q5 0 9.5 3.5t5.5 8.5q12 46 39 84q26 39 62 66.5t80 43.5q44 15 92 15 t93 -15q44 -16 80.5 -43.5t62.5 -66.5q26 -38 38 -84q1 -5 5.5 -8.5t8.5 -3.5q69 -4 115.5 -54t46.5 -118q0 -72 -51 -123.5t-122 -51.5v0zM341 538h-5q-16 0 -27 -11.5t-11 -27.5q0 -15 11 -26.5t27 -11.5h5q15 0 26.5 11.5t11.5 26.5q0 16 -11.5 27.5t-26.5 11.5zM507 538 h-5q-15 0 -26.5 -11.5t-11.5 -27.5q0 -15 11.5 -26.5t26.5 -11.5h5q16 0 27.5 11.5t11.5 26.5q0 16 -11.5 27.5t-27.5 11.5v0zM672 538h-5q-15 0 -26.5 -11.5t-11.5 -27.5q0 -15 11.5 -26.5t26.5 -11.5h5q16 0 27 11.5t11 26.5q0 16 -11 27.5t-27 11.5z" />
</svg>