<svg viewBox="0 0 256 256" xmlns="http://www.w3.org/2000/svg">
  <path transform="scale(1, -1) translate(0, -256)" fill="currentColor" d="M219 196q-12 25 -36 40t-53 15q-25 0 -47 -11.5t-37 -31t-18.5 -44.5t5 -48.5t26.5 -40.5t43 -24l14 -38q2 -4 5 -6t7 -2t7 2t5 6l14 38q21 6 38 20t27.5 34.5t10 44t-10.5 46.5zM206 111q-8 -18 -23.5 -30t-35.5 -17q-3 -1 -5 -4l-14 -38l-14 38q-2 4 -6 4 q-22 5 -38.5 20t-24 35.5t-4 42t16 38.5t31.5 27t41 10q25 0 45.5 -13t30 -33.5t9.5 -41t-9 -38.5zM160 193h-64q-3 0 -5 -2t-2 -5t2 -5t5 -2h64q3 0 5 2t2 5t-2 5t-5 2zM160 158h-64q-3 0 -5 -2t-2 -5t2 -5t5 -2h64q3 0 5 2t2 5t-2 5t-5 2zM160 126h-64q-3 0 -5 -2t-2 -5 t2 -5t5 -2h64q3 0 5 2t2 5t-2 5t-5 2z" />
</svg>