<svg viewBox="0 0 1024 1024" xmlns="http://www.w3.org/2000/svg">
  <path transform="scale(1, -1) translate(0, -960)" fill="currentColor" d="M178 661h-2q-13 0 -22.5 -9.5t-9.5 -22.5t10 -22.5t24 -9.5q13 0 22.5 9.5t9.5 22.5t-9.5 22.5t-22.5 9.5zM325 661h-2q-13 0 -22.5 -9.5t-9.5 -22.5t10.5 -22.5t23.5 -9.5t22.5 9.5t9.5 22.5t-9.5 22.5t-22.5 9.5zM472 661h-2q-13 0 -22.5 -9.5t-9.5 -22.5t10.5 -22.5 t23.5 -9.5t22.5 9.5t9.5 22.5t-9.5 22.5t-22.5 9.5zM718 611q-22 0 -45 -3.5t-44 -10.5v163q0 32 -23 55t-56 23h-440q-32 0 -55 -23t-23 -55v-282q0 -32 23 -55t55 -23h20q-4 -13 -8 -27t-8 -27q-8 -23 -15 -38.5t-13 -24.5q-2 -5 -2 -10t4 -9q2 -2 5.5 -4t7.5 -2h3t3 1 q36 16 92.5 60.5t83.5 80.5h170q-11 -48 -5 -98t30 -94l-40 -130q-1 -4 0.5 -8t4.5 -8q3 -2 5.5 -3t5.5 -1h3t2 1l127 42q63 -36 134 -36t134 36q65 37 102.5 100.5t37.5 137.5q-1 57 -23 106q-22 50 -59.5 86.5t-86.5 58.5q-50 21 -107 21v0zM274 432q-4 0 -8 -2t-5 -6 q-16 -24 -53 -56.5t-72 -55.5q2 5 4 10.5t4 11.5q6 20 11.5 38t9.5 33l1 5q2 3 1 6.5t-4 7.5q-2 4 -5.5 6t-7.5 2h-40q-19 0 -32.5 13.5t-13.5 32.5v282q0 19 13.5 32.5t32.5 13.5h440q20 0 33.5 -13.5t13.5 -32.5v-178q-21 -9 -39 -22t-33 -29q-22 -21 -37.5 -46t-26.5 -53 h-187v0zM837 128q-58 -32 -122.5 -32t-120.5 35l-4.5 1.5t-3.5 0.5t-3 -0.5t-2 -1.5l-104 -33l33 107q2 3 1 6.5t-2 6.5q-21 35 -28 74t-2 77.5t22 74.5t46 65q35 35 79 52.5t92 17.5q50 0 94 -19t77 -52t52 -77t19 -93q0 -66 -33 -122t-90 -88v0z" />
</svg>