<svg viewBox="0 0 1024 1024" xmlns="http://www.w3.org/2000/svg">
  <path transform="scale(1, -1) translate(0, -960)" fill="currentColor" d="M792 928h-560q-34 0 -58 -24t-24 -58v-670q0 -34 24 -58t58 -24h179l88 -120q3 -3 6 -4.5t7 -1.5v0v0q4 0 7 1.5t6 4.5l91 120h178q33 0 57 24t24 58v670q0 34 -24 58t-59 24zM843 176q0 -20 -14.5 -35t-34.5 -15h-188q-3 0 -6.5 -1t-5.5 -5l-82 -109l-80 109 q-2 4 -5.5 5t-7.5 1h-187q-20 0 -35 15t-15 35v670q0 21 15 35.5t35 14.5h560q20 0 35 -14.5t15 -35.5v-670h1zM443 643h135q7 0 11.5 4.5t4.5 11.5t-4.5 11.5t-11.5 4.5h-135q-7 0 -11.5 -4.5t-4.5 -11.5t5 -11.5t11 -4.5v0zM648 528h-275q-7 0 -11.5 -4.5t-4.5 -11.5 t4.5 -11.5t11.5 -4.5h275q7 0 11.5 4.5t4.5 11.5t-4.5 11.5t-11.5 4.5zM578 381h-135q-7 0 -11.5 -4.5t-4.5 -11.5t4.5 -11.5t11.5 -4.5h135q7 0 11.5 4.5t4.5 11.5t-4.5 11.5t-11.5 4.5z" />
</svg>