<svg viewBox="0 0 256 256" xmlns="http://www.w3.org/2000/svg">
  <path transform="scale(1, -1) translate(0, -256)" fill="currentColor" d="M57 174v0q-3 0 -5 -2t-2 -5t2 -5t5 -2v0q3 0 5 2t2 5t-2 5t-5 2zM98 160v0q3 0 5 2.5t2 5.5t-2 5t-5 2v0q-3 0 -5.5 -2t-2.5 -5t2.5 -5.5t5.5 -2.5zM139 160v0q3 0 5 2.5t2 5.5t-2 5t-5 2v0q-3 0 -5 -2t-2 -5t2 -5.5t5 -2.5zM232 55q9 8 14 17.5t5 19.5q0 20 -17.5 36 t-46.5 21q4 9 4 18q0 17 -12.5 31.5t-34 23t-46.5 8.5t-46.5 -8.5t-34 -23t-12.5 -31.5q0 -11 5.5 -21t15.5 -19l-6 -20q-2 -5 2 -8q2 -1 4 -1h4l23 14q14 -5 26 -7q-3 -6 -3 -13q0 -17 12 -30.5t32 -21.5t43.5 -8t42.5 8l22 -12q1 -1 3.5 -1t4.5 1.5t2.5 3.5t-0.5 4z M52 126h-3l-11 -7l2 9q1 2 0 4t-2 3q-9 7 -14 15t-5 16q0 14 11 25t29 17.5t39 6.5t39.5 -6.5t29 -17.5t10.5 -24.5t-11 -24.5t-29 -17.5t-39 -6.5h-9q-18 1 -34 8h-3zM220 63q-2 -1 -3 -3.5t0 -4.5l2 -7l-9 6q-3 1 -6 0q-19 -8 -39.5 -8t-37.5 6.5t-27 17t-10 22.5 q0 6 2 12h6q25 0 47 8.5t34 23.5q25 -3 41.5 -16t16.5 -28.5t-17 -28.5z" />
</svg>