<svg viewBox="0 0 256 256" xmlns="http://www.w3.org/2000/svg">
  <path transform="scale(1, -1) translate(0, -256)" fill="currentColor" d="M128 215q-33 0 -61.5 -11.5t-45 -31.5t-16.5 -44q0 -31 28 -56l-23 -19q-4 -3 -2 -7q0 -2 2 -3.5t4 -1.5h114q33 0 61.5 11.5t45 31.5t16.5 44t-16.5 44t-45 31.5t-61.5 11.5zM128 55h-94l15 12q3 2 2.5 5.5t-3.5 5.5q-14 10 -21.5 23t-7.5 27q0 20 15 36.5t39.5 26.5 t54.5 10t55 -10t39.5 -26.5t14.5 -36.5t-14.5 -36.5t-39.5 -26.5t-55 -10zM73 134v0q-3 0 -5 -2.5t-2 -5.5t2 -5t5 -2v0q3 0 5 2t2 5t-2 5.5t-5 2.5zM128 134v0q-3 0 -5 -2.5t-2 -5.5t2 -5t5 -2v0q3 0 5.5 2t2 5t-2.5 5.5t-5 2.5zM184 134h-1q-3 0 -5 -2.5t-2 -5.5t2 -5 t5 -2h1q3 0 5 2t2 5t-2.5 5.5t-4.5 2.5z" />
</svg>