<svg viewBox="0 0 256 256" xmlns="http://www.w3.org/2000/svg">
  <path transform="scale(1, -1) translate(0, -256)" fill="currentColor" d="M248 49q0 1 -2 2l-22 19q9 11 13 24t3 26q-3 17 -14 31t-28 23q-11 20 -35 32.5t-52 12.5q-26 0 -47.5 -10t-34.5 -27t-13 -38q0 -23 16 -42l-24 -19q-4 -3 -3 -6.5t3 -5t4 -1.5h55q13 -16 34 -25t45 -9h98q2 0 4 1.5t2 3.5q2 5 -2 8zM48 97q2 2 2 5t-2 5q-17 17 -17 38 q0 16 10.5 30t29 22.5t40.5 8.5q25 0 46 -11t30 -29v-1q4 -10 3 -21q-3 -23 -26 -41q-12 -9 -29.5 -14t-37.5 -5h-65zM146 51q-17 0 -32 5t-27 14h9q19 0 36 4q24 5 40 18q34 27 31 62q20 -15 23 -36q1 -12 -3 -23t-14 -21q-3 -2 -2 -5.5t2 -4.5l15 -13h-78zM74 144 q0 3 -2 5.5t-5 2.5v0q-3 0 -5 -2.5t-2 -5.5t2 -5t5 -2v0q3 0 5 2.5t2 4.5zM111 138h1q3 0 5 2t2 5t-2 5t-5 2h-1q-3 0 -5 -2t-2 -5t2 -5t5 -2zM155 138h1q3 0 5 2t2 5t-2 5t-5 2v0q-3 0 -5.5 -2t-2.5 -5t2 -5t5 -2z" />
</svg>