<svg viewBox="0 0 256 256" xmlns="http://www.w3.org/2000/svg">
  <path transform="scale(1, -1) translate(0, -256)" fill="currentColor" d="M44 181v0q-3 0 -5.5 -2t-2.5 -5.5t2.5 -6t6 -2.5t5.5 2.5t2 5.5t-2 5.5t-6 2.5zM81 181v0q-4 0 -6 -2t-2 -5.5t2.5 -6t6 -2.5t5.5 2.5t2 5.5t-2 5.5t-6 2.5zM118 181v0q-4 0 -6 -2.5t-2 -5.5t2.5 -5.5t5.5 -2.5t5.5 2.5t2.5 5.5t-2.5 5.5t-5.5 2.5zM180 172q-11 0 -20 -3 v37q0 9 -6.5 16t-15.5 7h-110q-10 0 -16.5 -6.5t-6.5 -16.5v-70q0 -10 6.5 -16.5t16.5 -6.5v0l-2 -10q-4 -12 -6 -14t-2 -4.5t1.5 -4.5t5.5 -2h3q9 4 23 14.5t21 20.5h37q-4 -24 7 -45l-10 -32q-1 -3 1.5 -6t4.5 -3t3 1l30 10q16 -9 34.5 -9t35 9.5t26.5 26t10 36t-9.5 36 t-26 26t-35.5 9.5zM68 127q-3 0 -6 -3q-5 -9 -22 -22l4 16q1 3 -1 5.5t-5 2.5h-10q-4 0 -6.5 3t-2.5 6v71q0 4 2.5 6.5t6.5 2.5h110q3 0 5.5 -2.5t2.5 -6.5v-42q-8 -5 -17 -13q-10 -11 -16 -24h-45zM208 50q-14 -7 -29.5 -7t-28.5 8q-2 1 -4 1h-2l-20 -7l6 21q1 4 -1 6 q-9 16 -6.5 35.5t15.5 33.5q17 17 41 17q16 0 29 -8t21 -21t8 -28.5t-8 -29t-21 -21.5z" />
</svg>