<svg viewBox="0 0 1024 1024" xmlns="http://www.w3.org/2000/svg">
  <path transform="scale(1, -1) translate(0, -960)" fill="currentColor" d="M986 123q-17 15 -49.5 42t-58.5 48q41 43 58.5 95.5t9.5 107.5q-10 64 -53 118.5t-111 87.5q-20 41 -54 74q-35 33 -79.5 56.5t-96.5 36.5t-109 13q-75 0 -142 -23q-66 -22 -115.5 -61t-78.5 -91t-29 -112q0 -47 18 -89.5t53 -79.5q-27 -22 -62 -50t-49 -38 q-4 -4 -5.5 -8.5t1.5 -9.5q1 -5 5 -8t9 -3h227q25 -31 59 -56q33 -25 73 -42.5t85 -26.5q45 -10 92 -10h392q5 0 9 3.5t5 8.5q3 4 1.5 9t-5.5 8v0zM182 333q3 2 5 5.5t2 5.5q0 4 -1.5 7t-3.5 6q-36 33 -54 74t-18 84q0 53 26 99q26 47 71.5 81.5t105.5 54.5q61 20 130 20 q52 0 101 -12q49 -13 90 -34.5t73 -52.5q31 -31 49 -68v0v0v0v0l8 -24q8 -23 5.5 -60.5t-25.5 -84.5q-22 -48 -82 -96q-48 -36 -120.5 -56t-156.5 -20h-102v0v0h-191q23 17 48.5 37.5t39.5 33.5v0zM584 126q-79 0 -149 27.5t-117 75.5h69q27 0 63 3q36 2 76 11t81 25t76 42 q94 76 109 150t6 116q50 -31 80 -74t37 -92q7 -51 -10.5 -99.5t-59.5 -88.5q-3 -2 -4 -5.5t-1 -6.5q0 -4 1.5 -7t4.5 -5q16 -13 40.5 -32.5t46.5 -39.5h-349v0zM302 514q0 13 -9 22.5t-23 9.5h-1q-13 0 -22.5 -9.5t-9.5 -22.5q0 -14 9.5 -23t22.5 -9h1q14 0 23 9t9 23z M445 482h1q14 0 23 9t9 23q0 13 -9 22.5t-23 9.5h-1q-13 0 -22.5 -9.5t-9.5 -22.5q0 -14 9.5 -23t22.5 -9zM621 482h3q13 0 22.5 9t9.5 23q0 13 -9.5 22.5t-22.5 9.5h-2q-13 0 -22.5 -9.5t-9.5 -22.5q0 -14 9 -23t22 -9z" />
</svg>