<svg viewBox="0 0 1024 1024" xmlns="http://www.w3.org/2000/svg">
  <path transform="scale(1, -1) translate(0, -960)" fill="currentColor" d="M901 520h-219v309q0 37 -27 64t-65 27h-467q-37 -1 -64 -27.5t-27 -63.5v-461q0 -5 2.5 -9t7.5 -5q4 -3 9 -2t8 5l75 73l3 3t4 1h201v-1v-1v-282q0 -37 27 -64t65 -27h451q1 0 3 -1t3 -2l75 -74q3 -2 5.5 -3t6.5 -1h3t3 1q5 3 7.5 6.5t2.5 8.5v435q-2 38 -28.5 64.5 t-64.5 26.5zM349 462h-1h-1h-206q-9 0 -16 -3t-13 -8l-48 -46v424q0 24 17.5 41.5t41.5 17.5h467q24 0 42 -17.5t18 -41.5v-307h-216q-29 -2 -52.5 -18t-32.5 -42zM960 30l-48 47q-6 6 -13 8.5t-16 2.5h-449q-24 0 -42 17.5t-18 41.5v282q0 24 18 41.5t42 17.5h468 q24 0 42 -17.5t18 -41.5v-399h-2zM248 746h221q7 0 11.5 4t4.5 12q0 7 -4.5 11.5t-11.5 4.5h-221q-7 0 -11.5 -4.5t-4.5 -11.5q0 -8 4.5 -12t11.5 -4zM485 634q0 7 -4.5 11.5t-11.5 4.5h-221q-7 0 -11.5 -4.5t-4.5 -11.5q0 -8 4.5 -12t11.5 -4h221q6 0 11 4t5 12zM784 376 h-221q-7 0 -11.5 -4.5t-4.5 -11.5t4.5 -11.5t11.5 -4.5h221q7 0 11.5 4.5t4.5 11.5t-5 11.5t-11 4.5zM784 238h-221q-7 0 -11.5 -4t-4.5 -12q0 -7 4.5 -11.5t11.5 -4.5h221q7 0 11.5 4.5t4.5 11.5q0 8 -5 12t-11 4z" />
</svg>