<svg viewBox="0 0 1024 1024" xmlns="http://www.w3.org/2000/svg">
  <path transform="scale(1, -1) translate(0, -960)" fill="currentColor" d="M904 760h-82v130q0 12 -6.5 21t-17.5 14q-10 5 -20.5 2.5t-19.5 -10.5l-156 -157h-264q-34 0 -58 -24t-24 -58v-83h-136q-34 0 -58 -24t-24 -57v-298q0 -34 24 -58t58 -24h82v-129q0 -12 6.5 -21.5t17.5 -13.5q3 -2 6.5 -3t7.5 -1q7 0 14 3t13 9l157 156h262q34 0 58 24 t24 58v83h136q34 0 58 24t24 58v297q0 34 -24 58t-58 24v0zM734 218q0 -21 -14.5 -35.5t-34.5 -14.5h-269q-4 0 -6.5 -1t-4.5 -4l-162 -161q-1 -2 -3 -2h-3t-2 1t-1 4v145q0 8 -4.5 12t-11.5 4h-98q-20 0 -35 15t-15 35v299q0 21 15 35.5t35 14.5h152v0v0h413 q20 0 34.5 -14.5t14.5 -35.5v-189q0 -1 0.5 -2t1.5 -2q0 -2 -1 -3t-1 -2v-99zM954 381q0 -21 -15 -35.5t-35 -14.5h-136v184q0 34 -24 58t-58 24h-396v83q0 20 14.5 35t34.5 15h269q4 0 6.5 1t4.5 3l162 160q1 2 3 2h3t2 -1t1 -4v-145q0 -8 4.5 -12t11.5 -4h98q20 0 35 -15 t15 -35v-299v0zM230 394h-1q-13 0 -22 -9.5t-9 -22.5q0 -14 9.5 -23t22.5 -9q14 0 23 9t9 23q0 13 -9 22.5t-23 9.5v0zM405 392h-2q-13 0 -21.5 -9.5t-8.5 -22.5t9.5 -22.5t22.5 -9.5t22.5 9.5t9.5 22.5t-9.5 22.5t-22.5 9.5zM578 392h-2q-13 0 -21.5 -9.5t-8.5 -22.5 t9 -22.5t23 -9.5q13 0 22.5 9.5t9.5 22.5t-9.5 22.5t-22.5 9.5z" />
</svg>