<svg viewBox="0 0 256 256" xmlns="http://www.w3.org/2000/svg">
  <path transform="scale(1, -1) translate(0, -256)" fill="currentColor" d="M250 30l-34 61q6 18 6 37q0 29 -14.5 54t-39.5 40t-54.5 15t-54.5 -14.5t-39.5 -39.5t-14.5 -55t15 -54.5t39.5 -39.5t54.5 -15h130q4 0 6 3.5t0 7.5zM114 33q-26 0 -47.5 13t-34.5 34.5t-13 47.5t13 47.5t34.5 34.5t47 13t47.5 -13t34.5 -34.5t12.5 -47.5q0 -18 -7 -35 q-1 -4 1 -6l30 -54h-118zM56 140v0q-3 0 -5 -2t-2 -5t2 -5t5 -2v0q3 0 5.5 2t2.5 5t-2.5 5t-5.5 2zM112 140h-1q-3 0 -5 -2t-2 -5t2 -5t5 -2h1q3 0 5 2t2 5t-2 5t-5 2zM167 140h-1q-3 0 -5 -2t-2 -5t2 -5t5 -2h1q3 0 5 2t2 5t-2 5t-5 2z" />
</svg>