<svg viewBox="0 0 256 256" xmlns="http://www.w3.org/2000/svg">
  <path transform="scale(1, -1) translate(0, -256)" fill="currentColor" d="M236 207q-9 10 -21 15.5t-25 5.5h-99q-5 0 -6.5 -5t2.5 -8l44 -33q-4 -14 -1.5 -27.5t11 -25t22 -18t27.5 -6.5h3q21 1 37.5 16t19.5 37q2 13 -1.5 26t-12.5 23zM236 160q-2 -17 -14.5 -28.5t-29.5 -11.5q-12 -1 -22.5 4t-18 14.5t-9 21.5t2.5 23q1 2 0.5 4t-2.5 4 l-31 23h78q10 0 19.5 -4.5t16 -12t9.5 -17.5t1 -20zM125 74q4 15 0 31t-16.5 28t-30 16t-35.5 -3q-10 -4 -18.5 -11t-12.5 -17q-8 -16 -7 -32t9.5 -29.5t22 -21t29.5 -7.5h99q5 0 6.5 5t-2.5 8zM66 42q-12 0 -22.5 6t-17.5 16.5t-7 23t5 24.5q4 7 10 12.5t14 8.5t18 3 q20 0 33 -14q10 -9 13 -22.5t-2 -26.5q0 -2 0.5 -4t2.5 -4l31 -23h-78z" />
</svg>