<svg viewBox="0 0 1024 1024" xmlns="http://www.w3.org/2000/svg">
  <path transform="scale(1, -1) translate(0, -960)" fill="currentColor" d="M861 611l-135 90q-2 1 -3 3t-1 3l-52 152q-8 24 -25.5 40.5t-41.5 23.5t-48 2.5t-43 -19.5l-126 -101q-3 -1 -4.5 -2t-3.5 -1h-162q-24 0 -45.5 -11.5t-36.5 -32.5q-14 -20 -16.5 -44t5.5 -47l56 -150q1 -3 1 -5t-1 -5l-48 -153q-7 -23 -2.5 -47.5t18.5 -44.5 q16 -19 37.5 -29t45.5 -9l47 2q-24 -52 -55.5 -97.5t-69.5 -85.5q-10 -9 -12 -21.5t4 -24.5q5 -12 16 -19t24 -7q8 0 37 8q28 8 69.5 30t92.5 61q51 38 103 100l47 -34q20 -14 44 -17.5t47 4.5q24 9 40 26t22 41l44 156q1 2 2 3.5t2 4.5l130 96q20 14 30.5 36t9.5 47 q1 23 -10.5 43.5t-32.5 34.5v0zM846 472l-129 -96q-6 -5 -10.5 -11t-7.5 -13l-43 -155q-5 -17 -16.5 -29t-26.5 -18q-16 -6 -32.5 -3.5t-30.5 11.5l-57 42q-5 4 -11 3t-10 -6q-55 -66 -107 -105t-92 -59.5t-64 -26.5t-25 -6q-5 0 -7.5 2.5t-2.5 3.5q-1 2 -1.5 6t3.5 7 q44 46 80 100.5t62 115.5q2 4 1.5 8.5t-2.5 7.5q-3 3 -6 4t-7 1v0v0l-72 -3q-17 -1 -32 6t-26 21q-10 13 -13 29.5t2 32.5l48 154q3 7 2.5 15t-3.5 15l-56 151q-6 15 -4 31.5t12 30.5q9 15 24 22t32 9l161 1q7 0 15 2.5t14 7.5l126 101q14 10 30 13.5t33 -1.5 q17 -4 28.5 -15.5t16.5 -27.5l51 -152q2 -7 6.5 -13t10.5 -11l135 -89q14 -10 22 -24t8 -31q0 -18 -7 -33t-22 -26v0zM341 554h-5q-13 0 -22.5 -9.5t-9.5 -22.5q0 -14 9.5 -23t22.5 -9h5q13 0 22.5 9t9.5 23q0 13 -9.5 22.5t-22.5 9.5zM507 554h-5q-13 0 -22.5 -9.5 t-9.5 -22.5q0 -14 9.5 -23t22.5 -9h5q13 0 22.5 9t9.5 23q0 13 -9.5 22.5t-22.5 9.5v0zM672 554h-5q-13 0 -22.5 -9.5t-9.5 -22.5q0 -14 9.5 -23t22.5 -9h5q13 0 22.5 9t9.5 23q0 13 -9.5 22.5t-22.5 9.5z" />
</svg>