<svg viewBox="0 0 1024 1024" xmlns="http://www.w3.org/2000/svg">
  <path transform="scale(1, -1) translate(0, -960)" fill="currentColor" d="M874 902q-11 12 -27 19t-33 7h-604q-17 0 -32.5 -7t-27.5 -19q-10 -12 -16 -27.5t-4 -31.5l40 -638q2 -31 25 -53t55 -22h163l86 -152q3 -4 6.5 -6t8.5 -2q4 0 8 2t6 6l86 152h164q31 0 54 22t26 53l40 638q-2 16 -8 31.5t-16 27.5v0zM824 206q-1 -19 -15 -31.5 t-33 -12.5h-173q-5 0 -8.5 -2.5t-5.5 -5.5l-77 -138l-77 136q-2 4 -5.5 6t-8.5 2h-173q-19 0 -33 13t-15 32l-38 640q-2 9 1.5 18.5t10.5 16.5q8 7 17 11.5t19 4.5h604q10 0 19 -4t17 -12q7 -7 10.5 -16.5t1.5 -20.5l-38 -637v0zM512 485q7 0 11.5 4.5t4.5 11.5v182 q0 7 -4.5 11.5t-11.5 4.5t-11.5 -4.5t-4.5 -11.5v-182q0 -7 4.5 -11.5t11.5 -4.5v0zM512 362q-13 0 -22.5 -9.5t-9.5 -22.5v-5q0 -13 9.5 -22.5t22.5 -9.5t22.5 9.5t9.5 22.5v5q0 13 -9.5 22.5t-22.5 9.5z" />
</svg>