<svg viewBox="0 0 1024 1024" xmlns="http://www.w3.org/2000/svg">
  <path transform="scale(1, -1) translate(0, -960)" fill="currentColor" d="M517 928q-87 0 -162 -23q-76 -24 -132.5 -64t-89.5 -94q-32 -54 -32 -115t33 -115q32 -54 89 -94t133 -64q76 -23 162 -23q87 0 163 23q76 24 132.5 64t89.5 94t33 115t-33 115t-90 94t-133 64q-77 23 -163 23zM517 370q-80 0 -150 20q-70 21 -122 56.5t-82 83.5t-30 102 t30 102t82 84t122 57t150 21t150 -21t122.5 -56.5t82.5 -83.5t30 -103t-30 -102q-30 -48 -82.5 -83.5t-122.5 -56.5q-70 -20 -150 -20zM376 266q-37 0 -62.5 -26t-25.5 -62t26 -62t62 -26q37 0 62.5 26t25.5 62t-25.5 62t-62.5 26zM376 120q-24 0 -40 16.5t-16 39.5 t16.5 39.5t39.5 16.5q24 0 40 -16.5t16 -39.5t-16 -39.5t-40 -16.5zM165 118q-31 0 -53 -22t-22 -53t22 -53t53 -22t53 22t22 53t-22 53t-53 22zM165 0q-18 0 -30.5 12.5t-12.5 30.5t12.5 30.5t30.5 12.5t30.5 -12.5t12.5 -30.5t-12.5 -30.5t-30.5 -12.5zM346 675h-2 q-13 0 -22.5 -9.5t-9.5 -22.5t9.5 -22.5t22.5 -9.5h2q13 0 22.5 9.5t9.5 22.5t-9.5 22.5t-22.5 9.5zM518 675h-1q-13 0 -22.5 -9.5t-9.5 -22.5t9.5 -22.5t22.5 -9.5h1q14 0 23 9.5t9 22.5t-9 22.5t-23 9.5zM691 675h-1q-14 0 -23 -9.5t-9 -22.5t9 -22.5t23 -9.5h1 q13 0 22.5 9.5t9.5 22.5t-9.5 22.5t-22.5 9.5z" />
</svg>