<svg viewBox="0 0 1024 1024" xmlns="http://www.w3.org/2000/svg">
  <path transform="scale(1, -1) translate(0, -960)" fill="currentColor" d="M174 787v0q-12 0 -20 -8.5t-8 -20.5t8 -20t20 -8t20.5 8t8.5 20t-9 20.5t-20 8.5zM269 787v0q-12 0 -20.5 -8.5t-8.5 -20.5t8.5 -20t20.5 -8t20.5 8t8.5 20t-8.5 20.5t-20.5 8.5zM365 787v0q-12 0 -20.5 -8.5t-8.5 -20.5t8.5 -20t20.5 -8t20.5 8t8.5 20t-9 20.5t-20 8.5z M661 498v0q-12 0 -20.5 -8.5t-8.5 -20.5t8.5 -19.5t20.5 -7.5t20.5 8t8.5 19t-8.5 20t-20.5 9zM755 498v0q-12 0 -20.5 -8.5t-8.5 -20.5t8.5 -19.5t20.5 -7.5t20.5 8t8.5 19t-8.5 20t-20.5 9zM851 498v0q-12 0 -20.5 -8.5t-8.5 -20.5t8.5 -19.5t20.5 -7.5t20.5 8t8.5 19 t-9 20t-20 9zM174 242v0q-12 0 -20 -8.5t-8 -20.5t8 -20.5t20 -8.5t20.5 8.5t8.5 20.5t-9 20.5t-20 8.5zM269 242v0q-12 0 -20.5 -8.5t-8.5 -20.5t8.5 -20.5t20.5 -8.5t20.5 8.5t8.5 20.5t-8.5 20.5t-20.5 8.5zM365 242v0q-12 0 -20.5 -8.5t-8.5 -20.5t8.5 -20.5t20.5 -8.5 t20.5 8.5t8.5 20.5t-9 20.5t-20 8.5zM755 634q-53 0 -99 -16t-78 -42l-111 86q18 20 27.5 43t9.5 49q0 34 -19 65q-18 31 -50 54t-75 37q-44 13 -93 13q-48 0 -91 -14q-43 -13 -75 -36.5t-50 -54.5q-19 -31 -19 -66t19 -66q18 -31 50 -54t75 -36q44 -14 93 -14q53 0 98 15.5 t78 40.5l110 -86q-17 -19 -27 -42.5t-10 -47.5q0 -27 12.5 -52.5t32.5 -46.5l-99 -62q-32 33 -84 54t-113 21q-48 1 -91 -13q-43 -13 -75 -36t-50 -53q-19 -31 -19 -66t19 -66q18 -30 50 -53.5t75 -36.5q44 -14 93 -14q18 0 35.5 2.5t34.5 5.5l144 -70q1 -1 3 -1.5t4 -0.5 t5 1t4 3q4 3 5 7.5t0 8.5l-35 123q18 20 26.5 43t8.5 48q0 18 -5.5 35.5t-15.5 33.5l104 65q33 -22 75 -35t92 -13q49 0 93 13q43 13 75.5 36t50.5 54q19 32 19 67t-19 66q-18 31 -50 54t-75 36q-44 14 -93 14v0zM440 133q-2 -4 -3 -7.5t0 -8.5l27 -98l-117 58q-1 1 -3 1h-3 h-2h-1q-17 -3 -34 -5.5t-35 -2.5q-85 0 -145 41t-60 97t60 97t145 41q84 0 144.5 -41t60.5 -97q0 -20 -8.5 -39t-25.5 -36zM64 752q0 56 60 97t145 41t145 -40t60 -98t-60 -98t-145 -40t-145 41t-60 97zM755 325q-85 0 -145 40.5t-60 96.5q0 57 60 97.5t145 40.5t145 -40 t60 -96q0 -58 -60 -98.5t-145 -40.5z" />
</svg>