<svg viewBox="0 0 256 256" xmlns="http://www.w3.org/2000/svg">
  <path transform="scale(1, -1) translate(0, -256)" fill="currentColor" d="M244 241q-7 10 -20 10h-144q-8 0 -14.5 -4.5t-8.5 -12.5l-12 -36q-2 -6 -1 -12t4 -10q8 -11 21 -11h98l-13 -34h-110q-8 0 -14.5 -4.5t-8.5 -12.5l-12 -36q-2 -6 -1 -12t4 -10q8 -11 21 -11h72l-11 -30q-1 -2 -0.5 -4.5t2.5 -4t4.5 -1.5t3.5 1l55 39h17q8 0 14.5 4.5 t9.5 12.5l12 36q1 6 0.5 12t-4.5 10q-7 11 -20 11h-18l12 34h30q8 0 14.5 4.5t9.5 12.5l12 36q3 12 -4 23zM196 112q4 -4 2 -10l-12 -36q-1 -3 -4 -5t-6 -2h-19q-2 0 -4 -1l-39 -27l7 19q1 3 -0.5 6t-5.5 3h-83q-5 0 -8.5 4.5t-1.5 9.5l12 36q1 4 4 6t6 2h143q6 0 9 -5z M234 222l-12 -36q-1 -3 -4 -5t-6 -2h-144q-5 0 -8.5 4.5t-1.5 9.5l12 36q1 4 4 6t6 2h143q6 0 9.5 -4.5t1.5 -10.5zM116 215h-12q-3 0 -5.5 -2t-2.5 -5t2.5 -5.5t5.5 -2.5h12q3 0 5.5 2.5t2.5 5.5t-2.5 5t-5.5 2zM176 215h-12q-3 0 -5.5 -2t-2.5 -5t2.5 -5.5t5.5 -2.5h12 q3 0 5.5 2.5t2.5 5.5t-2.5 5t-5.5 2zM86 95h-12q-3 0 -5.5 -2t-2.5 -5t2.5 -5.5t5.5 -2.5h12q3 0 5.5 2.5t2.5 5.5t-2.5 5t-5.5 2zM146 95h-12q-3 0 -5.5 -2t-2.5 -5t2.5 -5.5t5.5 -2.5h12q3 0 5.5 2.5t2.5 5.5t-2.5 5t-5.5 2z" />
</svg>