<svg viewBox="0 0 1024 1024" xmlns="http://www.w3.org/2000/svg">
  <path transform="scale(1, -1) translate(0, -960)" fill="currentColor" d="M970 547q-23 45 -65.5 74t-91.5 35q-16 49 -45 90q-30 41 -70 70.5t-87 45.5q-48 16 -101 16q-52 0 -100 -16t-88 -45.5t-69 -71.5q-30 -41 -45 -91q-49 -7 -90 -36.5t-64 -73.5q-25 -49 -21.5 -105t34.5 -108q24 -39 65.5 -62t89.5 -23h192v-192q0 -13 7 -22.5t19 -13.5 q4 -2 6.5 -2h6.5q8 0 16 4.5t14 11.5l155 214h162q48 0 90 23t65 62q33 53 36.5 109.5t-21.5 106.5zM930 349q-20 -33 -54.5 -51t-73.5 -18h-172q-3 0 -6.5 -2t-5.5 -4l-160 -221q-2 -3 -4 -3t-3 1q-1 0 -3 1.5t-2 5.5v208q0 7 -4 11.5t-12 4.5h-208q-39 0 -73.5 18.5 t-54.5 49.5q-27 45 -30 93t18 90q20 39 57 65t82 29q5 0 9 3.5t5 7.5q13 47 39 85q26 39 62.5 66.5t80.5 43.5q44 15 92 15t92 -15q44 -16 80.5 -43.5t62.5 -66.5q26 -38 38 -85q2 -4 6 -7.5t9 -3.5q44 -3 82.5 -28t59.5 -65q23 -44 20.5 -92t-29.5 -93v0zM642 606h-260 q-7 0 -11.5 -4t-4.5 -12q0 -7 4.5 -11.5t11.5 -4.5h260q7 0 11.5 4.5t4.5 11.5q0 8 -4.5 12t-11.5 4zM642 466h-260q-7 0 -11.5 -4.5t-4.5 -11.5q0 -8 4.5 -12t11.5 -4h260q7 0 11.5 4t4.5 12q0 6 -4.5 11t-11.5 5z" />
</svg>