<svg viewBox="0 0 1024 1024" xmlns="http://www.w3.org/2000/svg">
  <path transform="scale(1, -1) translate(0, -960)" fill="currentColor" d="M792 293q0 13 -2.5 26t-7.5 25q41 48 63 107t22 122q0 74 -28 138q-28 65 -76.5 113t-112.5 76q-65 28 -138 28t-138 -28t-113 -76t-76 -113q-28 -64 -28 -138q0 -73 28 -138.5t81 -116.5q50 -48 113 -73.5t133 -25.5h1.5h1.5q7 -13 17.5 -24.5t22.5 -20.5 q19 -14 42.5 -22t47.5 -8q17 0 33.5 4t33.5 12q36 19 58 55t22 78v0zM573 200q-11 8 -20 19t-15 24q-3 4 -6.5 7t-8.5 3v0v0q-66 -4 -126.5 19.5t-108.5 69.5t-73.5 106t-25.5 126q0 67 25 126q26 58 70 101.5t103 69.5q58 25 125 25t125 -25q59 -26 103 -69.5t70 -102.5 q25 -59 25 -126q0 -60 -21 -116t-62 -100q-4 -4 -4 -8.5t1 -9.5q5 -11 7 -23.5t2 -24.5q0 -33 -17 -60.5t-47 -43.5q-30 -14 -62.5 -10.5t-58.5 23.5v0zM776 115q-30 0 -52 -21.5t-22 -51.5t22 -52t52 -22t52 22t22 52q0 31 -21.5 52t-52.5 21zM776 0q-17 0 -29.5 12.5 t-12.5 29.5q0 16 12.5 28.5t29.5 12.5t29.5 -12.5t12.5 -28.5q0 -17 -12 -29.5t-30 -12.5zM643 718h-248q-7 0 -11.5 -4t-4.5 -12q0 -7 4.5 -11.5t11.5 -4.5h248q7 0 11.5 4.5t4.5 11.5q0 8 -4.5 12t-11.5 4zM643 584h-248q-7 0 -11.5 -4.5t-4.5 -11.5t4.5 -11.5t11.5 -4.5 h248q7 0 11.5 4.5t4.5 11.5t-4.5 11.5t-11.5 4.5zM643 450h-248q-7 0 -11.5 -4.5t-4.5 -11.5q0 -8 4.5 -12t11.5 -4h248q7 0 11.5 4t4.5 12q0 7 -4.5 11.5t-11.5 4.5z" />
</svg>