<svg viewBox="0 0 256 256" xmlns="http://www.w3.org/2000/svg">
  <path transform="scale(1, -1) translate(0, -256)" fill="currentColor" d="M128 214q-33 0 -61.5 -11t-45 -30t-16.5 -41q0 -14 7.5 -27.5t20.5 -24.5l-8 -30q-1 -4 2 -7q2 -2 5 -2l3 1l33 18q27 -10 60.5 -10t62 11t45 30t16.5 41t-17 41t-45.5 30t-61.5 11zM128 64q-32 0 -59 11q-4 2 -6 0l-21 -12l6 17q0 3 -0.5 5t-2.5 3q-12 9 -19 20.5 t-7 23.5q0 18 15 34t40 25t54.5 9t54.5 -9t39.5 -25t14.5 -34t-14.5 -34t-39.5 -25t-55 -9zM73 140v0q-3 0 -5 -2t-2 -5t2 -5t5 -2v0q3 0 5 2t2 5t-2 5t-5 2zM128 140v0q-3 0 -5 -2t-2 -5t2 -5t5 -2v0q3 0 5.5 2t2.5 5t-2.5 5t-5.5 2zM184 140h-1q-3 0 -5 -2t-2 -5t2 -5 t5 -2h1q3 0 5 2t2 5t-2.5 5t-4.5 2z" />
</svg>