<svg viewBox="0 0 1024 1024" xmlns="http://www.w3.org/2000/svg">
  <path transform="scale(1, -1) translate(0, -960)" fill="currentColor" d="M229 638h-2q-13 0 -22.5 -9t-9.5 -23q0 -13 9.5 -22.5t22.5 -9.5h2q13 0 22.5 9.5t9.5 22.5q0 14 -9.5 23t-22.5 9zM390 574h2q13 0 22.5 9.5t9.5 22.5q0 14 -9.5 23t-22.5 9h-2q-13 0 -22.5 -9t-9.5 -23q0 -13 9.5 -22.5t22.5 -9.5zM555 574h2q13 0 22.5 9.5t9.5 22.5 q0 14 -9.5 23t-22.5 9h-2q-13 0 -22.5 -9t-9.5 -23q0 -13 9 -22.5t23 -9.5zM914 158q37 30 57.5 67.5t20.5 76.5q0 40 -19 76q-20 36 -54.5 65t-82.5 49q-48 21 -105 30q10 19 15.5 38.5t5.5 41.5q0 49 -28 92q-29 44 -77.5 76t-114.5 51t-140 19q-74 1 -140 -18 q-65 -18 -114 -50.5t-78 -76.5q-28 -44 -28 -93q0 -42 21 -82t62 -72l-25 -90q-2 -4 -0.5 -9t4.5 -8q3 -1 5.5 -2t4.5 -1h4t4 1l98 55q27 -11 57 -18.5t63 -10.5q-8 -16 -11.5 -31.5t-3.5 -32.5q0 -47 27 -88q26 -41 72 -71.5t108 -48.5q61 -18 131 -18q45 0 88 8t81 23 l92 -52q2 -1 3.5 -1h4.5q2 0 4.5 1t4.5 2q4 4 5.5 8.5t-0.5 9.5l-22 84v0zM202 427l-71 -40l18 63q1 4 -0.5 9t-6.5 8q-37 29 -57.5 64t-20.5 71q0 42 26 80q26 37 70.5 65t103.5 45q60 16 128 16t128 -16q59 -16 103.5 -44t70.5 -66q26 -37 26 -80t-26 -81 q-26 -37 -70.5 -65t-103.5 -45q-60 -16 -128 -16q-8 0 -17 0.5t-18 1.5h-0.5h-1.5q-37 2 -73 10.5t-68 21.5q-3 1 -6.5 1t-5.5 -3v0zM834 141q-4 1 -7.5 2t-7.5 -1q-37 -15 -79 -22.5t-86 -7.5q-63 0 -119 15t-97 41.5t-65 61.5t-24 76q0 15 4.5 30.5t11.5 29.5h14h15 q52 0 100 10q48 9 89 26t75 41q33 24 56 53q52 -8 98 -26q45 -18 78 -43.5t51 -57.5q19 -32 19 -67q0 -34 -19 -66t-55 -58q-4 -3 -5.5 -8t-0.5 -10l16 -56l-62 37v0z" />
</svg>