<svg viewBox="0 0 256 256" xmlns="http://www.w3.org/2000/svg">
  <path transform="scale(1, -1) translate(0, -256)" fill="currentColor" d="M235 100q-1 8 -7 13t-14 5q-2 0 -4 2t-2 5l-11 107q-1 8 -7 13.5t-14 5.5h-143q-8 0 -14.5 -6t-6.5 -15v-105q0 -8 6.5 -14.5t14.5 -6.5h111q3 0 4.5 -1t2.5 -3l11 -31q3 -7 10 -11t15 -2l5 2q4 1 7 -3l32 -47q2 -3 5 -3h3q5 2 4 7zM211 62q-3 5 -7.5 7.5t-9 2.5t-5.5 -1 l-5 -1q-3 -1 -5.5 0t-2.5 4l-12 31q-2 6 -7.5 9.5t-12.5 3.5h-111q-2 0 -4.5 2t-2.5 5v105q0 3 2.5 5t4.5 2h144q2 0 4 -2t3 -5l10 -107q1 -8 7 -13.5t14 -5.5q2 0 4 -2t3 -4l6 -60zM63 189h-1q-4 0 -7 -2.5t-3 -6.5t3 -7t7 -3h1q4 0 7 3t3 7t-3 6.5t-7 2.5zM104 189h-1 q-4 0 -6.5 -2.5t-2.5 -6.5t2.5 -7t6.5 -3h1q4 0 7 3t3 7t-2.5 6.5t-7.5 2.5zM146 189h-1q-4 0 -7 -2.5t-3 -6.5t3 -7t7 -3h1q4 0 7 3t3 7t-3 6.5t-7 2.5z" />
</svg>