<svg viewBox="0 0 256 256" xmlns="http://www.w3.org/2000/svg">
  <path transform="scale(1, -1) translate(0, -256)" fill="currentColor" d="M225 212q-14 13 -32 13q-7 12 -19.5 19t-27.5 7t-27.5 -7t-19.5 -19q-19 0 -32 -13q-8 -6 -12 -15.5t-4 -19.5q0 -13 7 -24.5t19 -18.5q0 -11 6.5 -21t16.5 -15t21.5 -5t21.5 7q10 -6 21 -7t21.5 4t16.5 14.5t7 20.5q14 5 22.5 17.5t8.5 27.5q0 10 -4 19t-11 16zM200 144 q-5 -1 -5 -7q0 -9 -4 -16t-12 -11t-16.5 -3t-14.5 6q-2 2 -5 2t-4 -2q-8 -6 -16.5 -6.5t-15.5 3t-12 11t-4 17.5q0 2 -1 4t-3 3q-10 4 -16 12.5t-6 18.5q0 15 11.5 25.5t25.5 8.5q5 0 7 4q5 10 15 16t22 6t22 -6t15 -16q1 -2 2.5 -3t4.5 -1q15 2 26 -8t11 -26q-1 -11 -8 -20 t-19 -12zM76 83q-8 0 -14 -6t-6 -14.5t6 -14.5t14 -6t14 6t6 14.5t-6 14.5t-14 6zM76 56q-3 0 -4.5 2t-1.5 5t1.5 4.5t4.5 1.5t4.5 -1.5t1.5 -4.5t-1.5 -5t-4.5 -2zM111 177h-1q-3 0 -5.5 -2t-2.5 -5t2.5 -5t5.5 -2h1q3 0 5 2t2 5t-2 5t-5 2zM149 177h-1q-3 0 -5.5 -2 t-2.5 -5t2.5 -5t5.5 -2h1q3 0 5 2t2 5t-2 5t-5 2zM36 46q-8 0 -14 -6t-6 -14.5t6 -14.5t14 -6t14 6t6 14.5t-6 14.5t-14 6zM36 19q-3 0 -4.5 2t-1.5 4.5t1.5 4.5t4.5 2t4.5 -2t1.5 -4.5t-1.5 -4.5t-4.5 -2zM187 177h-1q-3 0 -5.5 -2t-2.5 -5t2.5 -5t5.5 -2h1q3 0 5 2t2 5 t-2 5t-5 2z" />
</svg>