<svg viewBox="0 0 256 256" xmlns="http://www.w3.org/2000/svg">
  <path transform="scale(1, -1) translate(0, -256)" fill="currentColor" d="M226 209h-17v29q0 4 -2 7t-5.5 4.5t-7.5 1t-6 -3.5l-39 -38h-65q-9 0 -16 -7t-7 -16v-18h-31q-10 0 -16.5 -7t-6.5 -16v-75q0 -9 6.5 -16t16.5 -7h17v-29q0 -4 2 -7t4.5 -4.5t7 -1.5t7.5 4l39 38h64q10 0 16.5 7t6.5 16v18h32q9 0 16 7t7 16v75q0 9 -6.5 16t-16.5 7z M181 70q0 -3 -2.5 -6t-6.5 -3h-68q-3 0 -5 -2l-37 -37v32q0 3 -2.5 5.5t-5.5 2.5h-24q-4 0 -6.5 2.5t-2.5 6.5v74q0 4 2.5 6.5t6.5 2.5h141q4 0 6.5 -2.5t2.5 -6.5v-75h1zM235 111q0 -4 -2.5 -6.5t-6.5 -2.5h-31v43q0 9 -7 16t-16 7h-97v18q0 4 3 6.5t6 2.5h68q3 0 5 2 l37 37v-32q0 -3 2.5 -5.5t5.5 -2.5h24q4 0 6.5 -2.5t2.5 -6.5v-74zM58 116h-1q-4 0 -6.5 -3t-2.5 -7t3 -7t7 -3t6.5 3t2.5 7t-2.5 7t-6.5 3zM101 116v0q-4 0 -6.5 -3t-2.5 -7t2.5 -7t6.5 -3t7 3t3 7t-3 7t-7 3zM144 116v0q-4 0 -6.5 -3t-2.5 -7t3 -7t6.5 -3t6.5 3t3 7 t-2.5 7t-7.5 3z" />
</svg>