<svg viewBox="0 0 1024 1024" xmlns="http://www.w3.org/2000/svg">
  <path transform="scale(1, -1) translate(0, -960)" fill="currentColor" d="M915 853l-792 75q-17 1 -33 -4.5t-29 -16.5t-20 -27.5t-7 -33.5v-673q0 -18 7 -34.5t20 -28.5t30 -16.5t35 -2.5l436 58q15 2 29.5 -5.5t21.5 -20.5l70 -134q5 -10 14 -15.5t20 -5.5h1.5h1.5q12 1 20.5 8t13.5 18l54 158q5 13 16 22t26 12l70 8q31 3 51.5 26.5t20.5 54.5 v496q-1 31 -22.5 54.5t-54.5 27.5v0zM958 275q0 -19 -12.5 -33t-30.5 -16l-70 -8q-23 -3 -41.5 -18t-25.5 -37l-55 -158q-1 -3 -2 -3.5l-3 -1.5q-1 0 -3 0.5t-3 2.5l-72 135q-11 20 -30.5 31.5t-41.5 11.5h-5h-6l-435 -58q-11 -1 -21.5 2t-18.5 9q-9 8 -13.5 18t-4.5 21v673 q0 11 4.5 20.5t11.5 16.5t18 10.5t22 2.5l792 -75q19 -3 32 -17t13 -33v-496h1zM686 702h-387q-7 0 -11.5 -4t-4.5 -12q0 -7 4.5 -11.5t11.5 -4.5h387q8 0 12 4.5t4 11.5q0 8 -5 12t-11 4zM686 547h-387q-7 0 -11.5 -4.5t-4.5 -11.5t4.5 -11.5t11.5 -4.5h387q8 0 12 4.5 t4 11.5t-5 11.5t-11 4.5zM686 371h-387q-7 0 -11.5 -4.5t-4.5 -11.5t4.5 -11.5t11.5 -4.5h387q8 0 12 4.5t4 11.5t-5 11.5t-11 4.5z" />
</svg>