<svg viewBox="0 0 256 256" xmlns="http://www.w3.org/2000/svg">
  <path transform="scale(1, -1) translate(0, -256)" fill="currentColor" d="M217 171l-34 23l-13 38q-2 6 -7 11t-11.5 7t-13.5 0.5t-12 -5.5l-32 -25l-40 -1q-7 0 -13 -3t-10 -9t-4.5 -13t1.5 -13l14 -38l-12 -38q-2 -7 -1 -13.5t5.5 -12t10.5 -8.5t13 -3l6 1q-10 -22 -28 -41q-3 -3 -3.5 -7t1 -7.5t5 -6t8 -2.5t13.5 4q14 5 28 14q18 13 34 31 l9 -7q6 -4 13 -5t13 1q14 5 17 19l11 39l33 24q5 4 8 10.5t3 13t-3 13t-9 9.5zM210 136l-32 -24q-4 -3 -6 -7l-10 -39q-2 -7 -9 -9.5t-13 1.5l-14 10q-3 2 -5.5 1.5t-4.5 -2.5q-21 -25 -44 -38q-14 -8 -25 -10q23 24 36 55q1 4 -1 7t-6 3l-18 -1q-8 0 -12 5.5t-2 12.5l12 39 q1 5 0 9l-14 37q-3 8 1 13.5t12 5.5l40 1q5 0 9 3l32 25q5 4 12.5 2t9.5 -8l12 -38q2 -5 6 -8l34 -22q5 -4 6 -12q0 -3 -1.5 -6t-4.5 -6zM85 153h-1q-3 0 -5 -2t-2 -5t2 -5t5 -2h1q3 0 5 2t2 5t-2 5t-5 2zM127 153h-1q-3 0 -5.5 -2t-2.5 -5t2.5 -5t5.5 -2h1q3 0 5 2t2 5 t-2 5t-5 2zM168 153h-1q-3 0 -5 -2t-2 -5t2 -5t5 -2h1q3 0 5 2t2 5t-2 5t-5 2z" />
</svg>