<svg viewBox="0 0 256 256" xmlns="http://www.w3.org/2000/svg">
  <path transform="scale(1, -1) translate(0, -256)" fill="currentColor" d="M217 251h-178q-10 0 -17 -7t-7 -17v-54q0 -9 7 -16t17 -7h8v-12q0 -4 2 -7t5 -4.5t7.5 -1.5t7.5 3l24 22h125q10 0 17 7t7 17v54q-1 9 -8 16t-17 7zM227 173q0 -4 -3 -6.5t-7 -2.5h-127q-2 0 -5 -2l-25 -22v17q0 3 -2 5t-5 2h-14q-4 0 -7 3t-3 7v54q0 3 3 6t7 3h179 q4 0 6.5 -2.5t2.5 -6.5v-55zM217 106h-8v12q0 4 -2 7.5t-5.5 4.5t-7.5 0.5t-6 -2.5l-25 -22h-124q-10 0 -17 -6.5t-7 -16.5v-54q0 -10 7 -17t17 -7h179q9 0 16 7t7 17v54q0 10 -7 16.5t-17 6.5zM227 28q0 -3 -3 -6t-7 -3h-178q-4 0 -7 2.5t-3 6.5v55q0 4 3 6.5t7 2.5h127 q2 0 5 2l25 22v-17q0 -3 2 -5t5 -2h15q4 0 7 -3t3 -7v-54h-1z" />
</svg>