<svg viewBox="0 0 1024 1024" xmlns="http://www.w3.org/2000/svg">
  <path transform="scale(1, -1) translate(0, -960)" fill="currentColor" d="M971 832q-12 14 -28 22.5t-34 11.5l-560 51q-19 1 -37.5 -5t-31.5 -19q-14 -13 -22 -30.5t-8 -36.5v-424l-210 -116q-4 -2 -6 -6t-2 -8q0 -5 3 -8.5t7 -5.5l208 -80v-108q0 -19 8 -37t24 -31q12 -11 27.5 -17t31.5 -6q3 0 6 0.5t7 1.5l488 67q31 5 52.5 27t25.5 53 l72 635q1 19 -4 37t-17 32v0zM960 768l-72 -637q-2 -20 -16 -34.5t-34 -16.5l-488 -67q-13 -1 -24.5 2.5t-21.5 11.5q-10 9 -15.5 20.5t-5.5 24.5v117q0 5 -3 9t-6 5l-188 72l188 104q3 3 5.5 6.5t2.5 8.5v432q0 12 4.5 23t14.5 20q9 8 21 11.5t24 2.5l560 -51 q12 -1 22 -6.5t18 -14.5q7 -8 11 -19.5t3 -23.5v0zM734 630h-244q-8 0 -12 -4t-4 -12q0 -7 4 -11.5t12 -4.5h244q8 0 12 4.5t4 11.5q0 8 -5 12t-11 4zM734 472h-244q-8 0 -12 -4.5t-4 -11.5t4 -11.5t12 -4.5h244q8 0 12 4.5t4 11.5q0 6 -5 11t-11 5zM734 312h-244 q-8 0 -12 -4.5t-4 -11.5t4 -11.5t12 -4.5h244q8 0 12 4.5t4 11.5t-5 11.5t-11 4.5z" />
</svg>