<svg viewBox="0 0 1024 1024" xmlns="http://www.w3.org/2000/svg">
  <path transform="scale(1, -1) translate(0, -960)" fill="currentColor" d="M933 554l-101 118v174q0 34 -23.5 58t-58.5 24h-582q-34 0 -58 -24t-24 -58v-272q0 -33 24 -57t58 -24h734q11 0 20.5 5.5t13.5 16.5q6 9 5 19.5t-8 19.5v0zM909 528q0 -1 -1.5 -2t-3.5 -1h-736q-20 0 -35 14.5t-15 34.5v272q0 21 15 35.5t35 14.5h582q22 0 36 -14.5 t14 -35.5v-179q0 -2 1 -5t2 -4l103 -124q3 -2 3 -4v-2v0zM856 405h-584q-34 0 -58 -24t-24 -58v-173l-99 -118q-7 -8 -8 -19t3 -21q5 -12 14.5 -18t21.5 -6h734q34 0 58 24t24 58v272q0 34 -24 58.5t-58 24.5zM906 50q0 -21 -15 -35.5t-35 -14.5h-734q-3 0 -4 1t-1 2 t-0.5 2.5t1.5 4.5l103 123q2 2 2.5 4.5t0.5 4.5v181q0 21 14.5 35.5t35.5 14.5h582q20 0 35 -14.5t15 -35.5v-273zM608 787h-301q-7 0 -11.5 -4.5t-4.5 -11.5t4.5 -11.5t11.5 -4.5h301q7 0 11.5 4.5t4.5 11.5t-5 11.5t-11 4.5zM608 648h-301q-7 0 -11.5 -4.5t-4.5 -11.5 t4.5 -11.5t11.5 -4.5h301q7 0 11.5 4.5t4.5 11.5t-5 11.5t-11 4.5zM694 261h-299q-7 0 -11.5 -4.5t-4.5 -11.5t4.5 -11.5t11.5 -4.5h299q8 0 12 4.5t4 11.5t-4 11.5t-12 4.5zM694 122h-299q-7 0 -11.5 -4.5t-4.5 -11.5q0 -8 4.5 -12t11.5 -4h299q8 0 12 4t4 12q0 7 -4 11.5 t-12 4.5z" />
</svg>