<svg viewBox="0 0 256 256" xmlns="http://www.w3.org/2000/svg">
  <path transform="scale(1, -1) translate(0, -256)" fill="currentColor" d="M201 89q0 6 -2 13q10 12 15.5 27t5.5 31q0 24 -12.5 45t-33.5 33.5t-46 12.5t-46 -12.5t-33.5 -33.5t-12.5 -46q0 -19 7.5 -36t20.5 -29.5t29 -19t34 -6.5q4 -7 10 -11q11 -8 24 -8q9 0 18.5 4.5t15.5 14.5t6 21zM172 66q-7 -3 -14 -2.5t-12 4.5t-9 10q-2 4 -6 4h-1 q-15 -1 -29.5 5t-26 17t-18 25t-6.5 30q0 21 10.5 39t28.5 28.5t39 10.5t39 -10.5t28.5 -28.5t10.5 -39q0 -14 -5.5 -27.5t-14.5 -24.5q-2 -1 -2.5 -3.5t0.5 -3.5q3 -5 3 -12t-4 -13t-11 -9zM194 48q-9 0 -15.5 -6.5t-6.5 -15.5t6.5 -15t15.5 -6t15.5 6t6.5 15t-6.5 15.5 t-15.5 6.5zM194 19q-3 0 -5.5 2t-2.5 5.5t2.5 5.5t5.5 2t5.5 -2t2.5 -5.5t-2.5 -5.5t-5.5 -2zM161 199h-62q-3 0 -5 -2t-2 -5t2 -5.5t5 -2.5h62q3 0 5 2.5t2 5.5t-2 5t-5 2zM161 165h-62q-3 0 -5 -2t-2 -5t2 -5.5t5 -2.5h62q3 0 5 2.5t2 5.5t-2 5t-5 2zM161 131h-62 q-3 0 -5 -2t-2 -5t2 -5t5 -2h62q3 0 5 2t2 5t-2 5t-5 2z" />
</svg>