<svg viewBox="0 0 256 256" xmlns="http://www.w3.org/2000/svg">
  <path transform="scale(1, -1) translate(0, -256)" fill="currentColor" d="M225 149h-51v74q0 11 -7.5 18.5t-18.5 7.5h-117q-11 0 -18.5 -7.5t-7.5 -18.5v-115q0 -5 4 -7t8 2l18 18h47v-68q0 -11 7.5 -18t18.5 -7h112l19 -18q2 -2 5 -2h2q5 2 5 6v109q0 11 -7.5 18.5t-18.5 7.5zM85 135h-50q-6 0 -9 -4l-7 -7v99q0 5 3.5 8.5t8.5 3.5h117 q4 0 7.5 -3.5t3.5 -8.5v-74h-51q-7 0 -13.5 -4t-9.5 -10zM237 31l-7 7q-4 4 -9 4h-113q-4 0 -7.5 3t-3.5 8v71q0 4 3.5 7.5t7.5 3.5h118q4 0 7.5 -3.5t3.5 -7.5v-93zM62 200h55q3 0 5 2t2 5t-2 5t-5 2h-55q-3 0 -5 -2t-2 -5t2 -5t5 -2zM124 174q0 3 -2 5.5t-5 2.5h-55 q-3 0 -5 -2.5t-2 -5.5t2 -5t5 -2h55q3 0 5 2t2 5zM196 113h-55q-3 0 -5 -2t-2 -5t2 -5t5 -2h55q3 0 5 2t2 5t-2 5t-5 2zM196 78h-55q-3 0 -5 -2t-2 -5t2 -5t5 -2h55q3 0 5 2t2 5t-2 5t-5 2z" />
</svg>