<svg viewBox="0 0 256 256" xmlns="http://www.w3.org/2000/svg">
  <path transform="scale(1, -1) translate(0, -256)" fill="currentColor" d="M128 224q-34 0 -62 -10.5t-44.5 -28.5t-16.5 -39q0 -30 30 -52q26 -19 64 -25l18 -31q4 -6 11 -6t11 6l18 31q37 6 63 24q15 11 23 24.5t8 28.5q0 21 -16.5 39t-44.5 28.5t-62 10.5zM212 104q-24 -17 -60 -22q-4 0 -6 -3l-18 -31l-18 31q-2 3 -6 4q-34 4 -58 20 q-27 18 -27 43q0 17 15 32t40 23.5t54.5 8.5t54.5 -8.5t39.5 -23.5t14.5 -32q0 -12 -6.5 -22.5t-18.5 -19.5zM88 156h73q3 0 5 2t2 5t-2 5t-5 2h-73q-3 0 -5 -2t-2 -5t2 -5t5 -2zM179 136h-91q-3 0 -5 -2t-2 -5t2 -5t5 -2h91q3 0 5 2t2 5t-2 5t-5 2z" />
</svg>