<svg viewBox="0 0 256 256" xmlns="http://www.w3.org/2000/svg">
  <path transform="scale(1, -1) translate(0, -256)" fill="currentColor" d="M205 188q-8 25 -29.5 40.5t-48 15.5t-48 -15.5t-29.5 -40.5q-19 -4 -32 -19t-13 -35q0 -14 7.5 -26.5t19.5 -20t27 -7.5h14q-14 -23 -41 -43q-4 -3 -5.5 -7t0.5 -8.5t5.5 -7t7.5 -2.5h1q26 2 47.5 12.5t36.5 28.5q12 13 18 27h53q15 0 27.5 7.5t20 20t7.5 26.5 q0 20 -13 35.5t-33 18.5zM197 94h-58q-5 0 -7 -4q-6 -15 -17 -28q-14 -15 -33 -24.5t-41 -11.5q36 26 51 58q1 4 -1 7t-6 3h-25q-17 0 -29 12t-12 28t10.5 27.5t26.5 12.5q5 1 6 6q6 22 24.5 36t41.5 14t41 -14t24 -36q2 -5 7 -6q16 -1 26.5 -12.5t10.5 -27.5t-12 -28 t-28 -12zM85 150h-1q-4 0 -7 -2.5t-3 -6.5t3 -7t7 -3h1q4 0 7 3t3 7t-3 6.5t-7 2.5zM127 150h-1q-4 0 -7 -2.5t-3 -6.5t3 -7t7 -3h1q4 0 6.5 3t2.5 7t-2.5 6.5t-6.5 2.5zM168 150h-1q-4 0 -7 -2.5t-3 -6.5t3 -7t7 -3h1q4 0 7 3t3 7t-3 6.5t-7 2.5z" />
</svg>