<svg viewBox="0 0 1024 1024" xmlns="http://www.w3.org/2000/svg">
  <path transform="scale(1, -1) translate(0, -960)" fill="currentColor" d="M986 461l-120 91v176q0 34 -24 58t-58 24h-670q-34 1 -58 -23t-24 -59v-560q0 -34 24 -58t58 -24h670q34 0 58 24t24 58v179l120 88q3 3 4.5 6t1.5 7t-1.5 7t-4.5 6v0zM840 368q-4 -2 -5 -5.5t-1 -7.5v-187q0 -20 -15 -35t-35 -15h-670q-21 0 -35.5 15t-14.5 35v560 q0 20 14.5 35t35.5 15h670q20 0 35 -15t15 -35v-186q0 -3 1 -6.5t5 -5.5l109 -82zM381 578h134q7 0 11.5 4t4.5 12q0 7 -4.5 11.5t-11.5 4.5h-134q-7 0 -11.5 -4.5t-4.5 -11.5q0 -8 4.5 -12t11.5 -4v0zM586 462h-276q-7 0 -11.5 -4t-4.5 -12q0 -7 4.5 -11.5t11.5 -4.5h276 q7 0 11.5 4.5t4.5 11.5q0 8 -5 12t-11 4zM515 315h-134q-7 0 -11.5 -4.5t-4.5 -11.5t4.5 -11.5t11.5 -4.5h134q7 0 11.5 4.5t4.5 11.5t-5 11.5t-11 4.5z" />
</svg>