<svg viewBox="0 0 256 256" xmlns="http://www.w3.org/2000/svg">
  <path transform="scale(1, -1) translate(0, -256)" fill="currentColor" d="M128 244q-34 0 -62.5 -14.5t-44.5 -39.5t-16 -56t16.5 -59t44 -45t58.5 -18h21q2 0 4 1.5t2.5 4t-0.5 4.5t-3 4q-18 10 -25 18q27 -1 52.5 7.5t44.5 24.5q15 13 23 30t8 36q0 28 -16.5 51t-44.5 37t-62 14zM210 86q-18 -16 -45 -23.5t-55 -3.5q-5 1 -7 -3t0 -8l2 -4 q7 -11 16 -18q-27 1 -50.5 16.5t-37.5 40t-14 51.5t14.5 49t39.5 34.5t55 12.5t55 -12t39.5 -32.5t14.5 -43.5q0 -32 -27 -56zM80 170h69q3 0 5 2.5t2 5.5t-2 5t-5 2h-69q-3 0 -5.5 -2t-2.5 -5t2.5 -5.5t5.5 -2.5zM176 151h-96q-3 0 -5.5 -2t-2.5 -5t2.5 -5t5.5 -2h96 q3 0 5.5 2t2.5 5t-2.5 5t-5.5 2zM165 112h-85q-3 0 -5.5 -2t-2.5 -5t2.5 -5t5.5 -2h85q3 0 5 2t2 5t-2 5t-5 2z" />
</svg>