<svg viewBox="0 0 256 256" xmlns="http://www.w3.org/2000/svg">
  <path transform="scale(1, -1) translate(0, -256)" fill="currentColor" d="M21 21q0 -4 2.5 -6.5t6 -2.5t6 2.5t2.5 6t-2.5 6.5t-6 3t-6 -3t-2.5 -6zM226 210q-14 14 -34 14q-8 12 -21.5 19.5t-29 7.5t-29 -7.5t-20.5 -19.5q-19 0 -35 -14q-8 -7 -12 -17t-4 -20q0 -14 7.5 -26.5t20.5 -18.5q0 -13 6.5 -23.5t17 -16t21.5 -5.5q14 0 25 7 q10 -6 22 -7t23 4.5t17.5 15.5t7.5 22q15 5 24.5 18.5t9.5 29.5q-1 10 -5 20t-12 17zM200 137q-5 -2 -5 -7q1 -10 -4 -18t-13.5 -12t-17.5 -3t-16 7q-2 2 -5 2t-4 -2q-9 -7 -18 -7t-17 4t-13 12t-4 18q0 3 -1 4.5t-3 2.5q-11 5 -17.5 14.5t-6.5 20.5q0 16 12 27q6 5 13.5 8 t15.5 2q2 0 3.5 1t2.5 3q5 11 16 17.5t24 6.5t24 -6.5t16 -17.5q0 -2 2 -3t4 -1q8 1 15.5 -2t13.5 -8q12 -11 12 -27q-1 -13 -8.5 -23t-20.5 -13zM67 72q-9 0 -15 -6.5t-6 -15t6 -15t15 -6.5t15 6.5t6 15t-6 15t-15 6.5zM67 43q-3 0 -5 2t-2 5t2 5t5 2t5 -2t2 -5t-2 -5 t-5 -2zM168 188h-53q-3 0 -5 -2t-2 -5t2 -5t5 -2h53q3 0 5 2t2 5t-2 5t-5 2zM168 154h-53q-3 0 -5 -2t-2 -5t2 -5t5 -2h53q3 0 5 2t2 5t-2 5t-5 2z" />
</svg>