<svg viewBox="0 0 1024 1024" xmlns="http://www.w3.org/2000/svg">
  <path transform="scale(1, -1) translate(0, -960)" fill="currentColor" d="M512 819q-101 0 -188 -23q-88 -24 -153 -64.5t-102 -95.5q-37 -56 -37 -119q0 -62 33 -112t86 -87t119 -61q67 -23 135 -33l75 -128q5 -8 14 -13.5t20 -5.5q10 0 18.5 4.5t14.5 14.5l75 128q74 11 139 34.5t114 58.5q58 41 89 93t31 108q-1 63 -39 118t-103 95.5 t-153 64.5q-87 23 -188 23zM853 342q-47 -33 -110.5 -56t-134.5 -32q-4 0 -7 -2t-4 -6l-80 -134q-1 -2 -2.5 -2.5t-2.5 -0.5t-2.5 0.5t-2.5 2.5l-78 134q-3 4 -5.5 5.5t-5.5 2.5q-65 9 -128 30t-113.5 54.5t-81.5 78.5t-31 101t35 105q36 50 96.5 86.5t142.5 57.5 q82 22 174 22t174 -22q81 -21 142 -57.5t97 -86.5q35 -49 35 -105q0 -49 -28 -93.5t-79 -82.5zM352 573h293q7 0 11.5 4.5t4.5 11.5t-4.5 11.5t-11.5 4.5h-293q-7 0 -11.5 -4.5t-4.5 -11.5t5 -11.5t11 -4.5v0zM715 469h-363q-7 0 -11.5 -4.5t-4.5 -11.5t4.5 -11.5t11.5 -4.5 h363q7 0 11.5 4.5t4.5 11.5t-4.5 11.5t-11.5 4.5v0z" />
</svg>