<svg viewBox="0 0 1024 1024" xmlns="http://www.w3.org/2000/svg">
  <path transform="scale(1, -1) translate(0, -960)" fill="currentColor" d="M992 675q0 43 -18 80q-19 38 -50.5 66t-73.5 44q-43 17 -92 17q-78 0 -140 -41.5t-84 -107.5q-48 11 -98 12q-49 1 -96.5 -8.5t-91.5 -29.5q-45 -19 -83 -48q-64 -49 -98.5 -115t-34.5 -141q0 -60 23.5 -116t67.5 -103q-7 -24 -24 -42.5t-40 -29.5q-12 -5 -18.5 -16 t-6.5 -24t6.5 -23.5t18.5 -16.5q21 -10 42.5 -14.5t44.5 -4.5q42 0 81.5 16.5t68.5 48.5q58 -18 117 -20t115 11t107 40t91 67q32 31 54 67q22 35 33.5 73t11.5 78q1 39 -9 80q78 18 127 73.5t49 127.5zM794 502q-4 0 -6.5 -2t-5.5 -6q-2 -3 -2 -6t1 -6q24 -76 3.5 -150 t-80.5 -134q-38 -37 -86 -62q-49 -25 -102 -36.5t-109 -8.5t-111 21q-5 1 -9.5 0t-8.5 -5q-38 -44 -95.5 -57t-110.5 11q-5 2 -5.5 5t-0.5 4q0 2 0.5 5.5t5.5 4.5q32 14 54 40.5t31 60.5q1 3 0 7.5t-5 8.5q-42 44 -65 97t-23 109q0 67 31 126.5t89 104.5q52 38 115.5 59 t129.5 21q27 0 55.5 -4t56.5 -11q3 -1 6 0t7 2q2 1 4 4t4 5q14 60 70 100t126 40q83 0 142.5 -51.5t59.5 -123.5q0 -63 -47 -112t-119 -61v0zM258 446h-7q-13 0 -22.5 -9t-9.5 -23q0 -13 9.5 -22.5t22.5 -9.5h7q13 0 22.5 9.5t9.5 22.5q0 14 -9.5 23t-22.5 9zM434 446h-7 q-13 0 -22.5 -9t-9.5 -23q0 -13 9.5 -22.5t22.5 -9.5h7q13 0 22.5 9.5t9.5 22.5q0 14 -9.5 23t-22.5 9zM611 446h-6q-13 0 -22.5 -9t-9.5 -23q0 -13 9.5 -22.5t22.5 -9.5h6q13 0 22.5 9.5t9.5 22.5q0 14 -9.5 23t-22.5 9z" />
</svg>