<svg viewBox="0 0 1024 1024" xmlns="http://www.w3.org/2000/svg">
  <path transform="scale(1, -1) translate(0, -960)" fill="currentColor" d="M384 493q-4 8 -9.5 11t-12.5 3h-100q-8 0 -14.5 -3.5t-7.5 -10.5l-190 -434q-6 -13 1.5 -24t20.5 -11h82q8 0 14 5t8 9l27 66h205l26 -66q1 -7 8 -10.5t14 -3.5h86q17 1 25.5 12t2.5 23l-186 434v0zM242 226l67 174l67 -174h-134zM987 883q-5 5 -11 5t-11 -5l-362 -357 l-101 100q-4 4 -10.5 4t-11.5 -4q-5 -5 -5 -11.5t5 -11.5l104 -102q4 -4 9 -6t10 -2t10.5 2t8.5 6l365 360q5 5 5 11t-5 11v0z" />
</svg>