<svg viewBox="0 0 1024 1024" xmlns="http://www.w3.org/2000/svg">
  <path transform="scale(1, -1) translate(0, -960)" fill="currentColor" d="M970 592q-3 6 -8.5 9t-12.5 2q-6 -2 -9.5 -7.5t-1.5 -13.5q10 -32 15 -65.5t5 -68.5q0 -52 -11 -101t-33 -94q-28 -59 -70 -106t-94 -79.5t-113 -50.5q-60 -17 -125 -17q-92 0 -174 35q-81 36 -142 97t-97 142q-35 82 -35 174t35 174q36 81 96.5 142t142.5 97 q82 35 174 35q52 0 101 -11t94 -34q6 -2 12.5 0t8.5 8t0 12.5t-8 8.5q-48 24 -100.5 36t-107.5 12q-99 0 -186 -38q-88 -38 -153 -103t-103 -153q-38 -87 -38 -186t38 -186q38 -88 103 -153t153 -103q87 -38 186 -38q70 0 134 19q65 19 121 54t101 85t76 112q24 50 36 102.5 t12 107.5q0 37 -6 73t-16 71z" />
</svg>