<svg viewBox="0 0 256 256" xmlns="http://www.w3.org/2000/svg">
  <path transform="scale(1, -1) translate(0, -256)" fill="currentColor" d="M128 5q-3 0 -5 2t-2 5t2 5t5 2q16 0 33 5q3 1 5.5 -0.5t3.5 -4t-0.5 -5t-3.5 -3.5q-18 -6 -38 -6zM92 11h-2q-18 6 -34 18q-2 2 -2.5 4.5t1 5t4.5 3t5 -1.5q13 -10 30 -16q3 0 4.5 -3t0.5 -6.5t-7 -3.5zM196 27q-4 0 -5.5 2.5t-1 5.5t2.5 5q14 10 24 24q2 2 5 2.5t5 -1.5 t2.5 -4.5t-0.5 -4.5q-12 -16 -28 -28q-1 -1 -4 -1zM34 53q-4 0 -5 3q-12 16 -18 34q-1 3 0.5 5.5t4 3.5t5 -0.5t3.5 -4.5q6 -17 16 -30q2 -2 1.5 -5t-2.5 -4.5t-5 -1.5zM238 85q-1 0 -2 1q-2 0 -3.5 3t-0.5 5q5 16 5 34v0q0 3 2 5.5t5 2.5t5.5 -2.5t2.5 -5.5v0q0 -19 -6 -38 q-3 -5 -8 -5zM12 121q-3 0 -5 2t-2 5v0q0 20 6 38q1 3 3.5 4t5 0.5t4 -3.5t0.5 -5q-5 -16 -5 -34q0 -3 -2 -5t-5 -2zM238 157q-2 0 -3.5 1.5t-2.5 3.5q-6 17 -16 30q-2 3 -1.5 5.5t3 4.5t5.5 1.5t4 -3.5q12 -16 18 -34q1 -3 -0.5 -5.5t-4.5 -3.5h-2zM34 189q-2 0 -4 1.5 t-2.5 4.5t0.5 5q12 15 28 27q2 2 5 1.5t4.5 -3t1 -5.5t-2.5 -4q-14 -11 -24 -24q-2 -3 -6 -3zM196 215q-2 0 -4 1q-14 11 -30 16q-3 1 -4.5 3.5t-0.5 5t3.5 4t5.5 0.5q19 -6 34 -17q3 -2 3.5 -5t-2 -5.5t-5.5 -2.5zM92 231q-2 0 -4 1.5t-3 4t0.5 5t4.5 3.5q18 6 38 6 q3 0 4.5 -2t1.5 -5t-2 -5t-4 -2q-17 0 -34 -6h-2z" />
</svg>