<svg viewBox="0 0 256 256" xmlns="http://www.w3.org/2000/svg">
  <path transform="scale(1, -1) translate(0, -256)" fill="currentColor" d="M128 251q-3 0 -5 -2t-2 -5v-71q0 -3 2 -5t5 -2t5 2t2 5v71q0 3 -2 5t-5 2zM128 90q-3 0 -5 -2.5t-2 -5.5v-70q0 -3 2 -5t5 -2t5 2t2 5v71q0 3 -2 5t-5 2zM90 128q0 3 -2.5 5t-5.5 2h-70q-3 0 -5 -2t-2 -5t2 -5t5 -2h71q3 0 5 2t2 5zM244 135h-71q-3 0 -5 -2t-2 -5t2 -5.5 t5 -2.5h71q3 0 5 2.5t2 5.5t-2 5t-5 2zM172 164q2 0 4 2l50 51q3 2 3 5t-2.5 5t-5 2t-5.5 -2l-50 -51q-2 -2 -2 -4.5t2.5 -5t5.5 -2.5zM80 90l-50 -50q-3 -3 -2.5 -5.5t2.5 -4.5t4.5 -2t4.5 2l50 50q2 2 2 4.5t-2 5t-4.5 2.5t-4.5 -2zM176 90q-2 2 -4.5 2t-5 -2.5t-2.5 -5 t2 -4.5l50 -50q2 -2 5 -2t5 2t2 5t-2 5zM40 226q-2 2 -5 2.5t-5 -2t-2 -5t2 -5.5l50 -50q2 -2 4.5 -2t4.5 2.5t2 5t-2 4.5z" />
</svg>