<svg viewBox="0 0 1024 1024" xmlns="http://www.w3.org/2000/svg">
  <path transform="scale(1, -1) translate(0, -960)" fill="currentColor" d="M566 928h-110q-8 0 -15.5 -3.5t-13.5 -9.5t-8.5 -13.5t-0.5 -15.5l11 -115q2 -14 13 -24.5t27 -10.5h88q14 0 25.5 10t12.5 25l11 115q2 9 -1 16t-8 13q-6 6 -14 9.5t-17 3.5zM562 774q0 -2 -2 -4t-5 -2h-88q-2 0 -4 2t-2 4l-11 116q0 1 0.5 2.5l0.5 1.5l2 1t5 1h110 q2 0 3 -1t2 -1l0.5 -1.5t0.5 -2.5l-12 -116v0zM555 160h-88q-14 0 -24.5 -10.5t-12.5 -24.5l-11 -115q-1 -9 2 -16t8 -13q6 -6 13 -9.5t16 -3.5h110q8 0 15.5 3.5t13.5 9.5t8.5 13.5t0.5 15.5l-11 115q-2 14 -13 24.5t-27 10.5zM571 2l-1 -1t-4 -1h-110q-2 0 -3 1t-2 1 t-1 1.5v2.5l11 116q0 2 2 4t4 2h88q3 0 5 -2t2 -4l11 -116q0 -1 -0.5 -2t-1.5 -2zM979 531q-6 6 -13.5 8.5t-15.5 1.5l-115 -11q-14 -2 -24.5 -12.5t-10.5 -26.5v-88q0 -14 10 -25.5t25 -12.5l115 -11h3h1q7 0 13.5 2t11.5 7q6 6 9.5 13.5t3.5 15.5v110q0 9 -3.5 16.5 t-9.5 12.5v0zM960 394q0 -3 -1 -3.5t-1 -1.5l-1 -1t-3 -1l-116 11q-2 0 -4 2t-2 5v88q0 2 2 4t4 2l116 11v0v0q1 0 2 -0.5t2 -0.5l1 -1.5t1 -3.5v-110zM224 405v88q0 14 -10 25.5t-25 12.5l-115 11q-9 2 -16 -1t-13 -8q-6 -6 -9.5 -14t-3.5 -17v-110q0 -8 3.5 -15.5 t9.5 -13.5q5 -5 11.5 -7t13.5 -2h3h1l115 11q14 2 24.5 13t10.5 27zM70 387q-1 0 -2.5 1l-1.5 1l-1 1t-1 4v110q0 2 1 3t1 2l1 0.5t3 0.5v0v0l116 -11q2 0 4 -2t2 -4v-88q0 -3 -2 -5t-4 -2l-116 -11v0zM798 277q-12 9 -26 8t-25 -11l-62 -63v0v0q-11 -11 -11.5 -25.5 t8.5 -25.5l73 -90q5 -6 12.5 -9.5t14.5 -4.5h1h1q7 0 14 3t13 8l79 79q6 6 8.5 13t2.5 15q0 9 -4.5 16t-10.5 12l-88 75v0zM867 170l-78 -79q-1 -1 -2.5 -1h-2.5h-2.5t-2.5 1l-73 90q-2 2 -2 4.5t2 3.5l62 62q1 1 4 2t4 -2l90 -73q1 -2 1 -3v-2q3 1 2 -0.5t-2 -2.5v0z M269 824q-6 6 -13.5 9.5t-15.5 3.5t-15.5 -2.5t-13.5 -8.5l-78 -79q-6 -6 -8.5 -13t-2.5 -16q0 -8 4 -15t10 -12l90 -73q4 -5 11 -6.5t13 -1.5q7 0 14 2.5t13 8.5l62 62q11 11 11.5 26t-8.5 25l-73 90v0zM317 706v0v0l-63 -63q-1 -1 -3.5 -1.5t-4.5 1.5l-89 74q-1 1 -1.5 2 t-0.5 3q0 1 0.5 2t1.5 2l78 79q1 1 2.5 1h2.5v0v0h2.5t2.5 -1l73 -90v-5t-1 -4zM277 275v0v0q-11 11 -26 11.5t-25 -8.5l-90 -73q-6 -6 -9.5 -13.5t-3.5 -15.5t2.5 -15.5t8.5 -13.5l79 -78q5 -5 12.5 -8t14.5 -3h1h1q8 0 15 4t12 10l73 90q10 12 9 26t-12 25l-62 62v0z M317 182l-74 -89q-1 -1 -2 -1.5t-3 -0.5q-1 0 -2 0.5t-2 1.5l-79 78q-1 1 -1 2.5v2.5v2.5t1 2.5l90 73q1 2 2 2h1h2.5t2.5 -2l62 -62q3 -2 3 -5t-1 -5v0zM747 621q6 -6 13 -8.5t14 -2.5q6 0 13 2t11 6l90 73q6 5 9.5 12.5t4.5 14.5q0 9 -2.5 16t-8.5 13l-78 79 q-6 6 -13.5 8.5t-15.5 2.5t-15 -4.5t-12 -10.5l-74 -89q-9 -12 -8 -26.5t11 -24.5l61 -61v0zM707 714l74 89q1 1 2 1.5t3 0.5v0v0q1 0 2 -0.5t2 -1.5l79 -78q1 -1 1 -2.5v-2.5v-2.5t-1 -2.5l-90 -73q-2 -2 -4.5 -2t-3.5 2l-62 62q-3 2 -3 5t1 5v0z" />
</svg>