<svg viewBox="0 0 1024 1024" xmlns="http://www.w3.org/2000/svg">
  <path transform="scale(1, -1) translate(0, -960)" fill="currentColor" d="M901 792q-30 26 -63 48q-33 21 -70 36.5t-77 24.5q-39 9 -81 11v-146q54 -3 102 -23.5t85 -54.5zM610 130v-146q42 2 81 11q40 9 77 24.5t70 36.5q33 22 63 48l-104 104q-39 -34 -86 -54.5t-101 -23.5v0zM378 688q38 34 86 54.5t101 23.5v146q-42 -2 -82 -11t-76.5 -24.5 t-70.5 -36.5q-33 -22 -62 -48l104 -104v0zM275 104q29 -26 62 -48q34 -21 70.5 -36.5t76.5 -24.5t82 -11v146q-54 3 -102 23.5t-85 54.5zM269 426h-146q2 -42 11 -82t24.5 -76.5t36.5 -70.5q22 -33 48 -63l103 103q-33 39 -53.5 87.5t-23.5 101.5v0zM347 658l-102 102 q-27 -29 -48 -62t-36.5 -70t-24.5 -77t-11 -82h145q3 54 23.5 102t53.5 87v0z" />
</svg>