<svg viewBox="0 0 256 256" xmlns="http://www.w3.org/2000/svg">
  <path transform="scale(1, -1) translate(0, -256)" fill="currentColor" d="M112 228q0 -7 4.5 -12t11.5 -5t11.5 5t4.5 11.5t-4.5 11.5t-11.5 5t-11.5 -5t-4.5 -11zM112 28q0 -6 4.5 -11t11.5 -5t11.5 5t4.5 11.5t-4.5 11.5t-11.5 5t-11.5 -5t-4.5 -12zM182 198q0 -6 5 -11t11.5 -5t11.5 5t5 11.5t-5 11.5t-11.5 5t-11.5 -5t-5 -12zM41 58 q0 -7 5 -12t11.5 -5t11.5 5t5 11.5t-5 11.5t-11.5 5t-11.5 -5t-5 -11zM211 128q0 -7 5 -11.5t11.5 -4.5t11.5 4.5t5 11.5t-5 11.5t-11.5 4.5t-11.5 -4.5t-5 -11.5zM12 128q0 -7 5 -11.5t11.5 -4.5t11.5 4.5t5 11.5t-5 11.5t-11.5 4.5t-11.5 -4.5t-5 -11.5zM182 58 q0 -7 5 -12t11.5 -5t11.5 5t5 11.5t-5 11.5t-11.5 5t-11.5 -5t-5 -11zM41 198q0 -6 5 -11t11.5 -5t11.5 5t5 11.5t-5 11.5t-11.5 5t-11.5 -5t-5 -12z" />
</svg>