<svg viewBox="0 0 256 256" xmlns="http://www.w3.org/2000/svg">
  <path transform="scale(1, -1) translate(0, -256)" fill="currentColor" d="M106 217q0 -11 8 -19t19 -8t19 8t8 19t-8 19t-19 8t-19 -8t-8 -19zM118 27q0 -6 4.5 -10.5t10.5 -4.5t10.5 4.5t4.5 10.5t-4.5 10.5t-10.5 4.5t-10.5 -4.5t-4.5 -10.5zM228 132q-4 0 -7 -3t-3 -7t3 -7t7 -3t7 3t3 7t-3 7t-7 3zM58 122q0 8 -6 14t-14 6t-14 -6t-6 -14 t6 -14t14 -6t14 6t6 14zM188 55q0 -5 3.5 -8.5t9 -3.5t9 3.5t3.5 8.5t-3.5 9t-9 4t-9 -4t-3.5 -9zM50 205q-6 -6 -6 -15.5t6.5 -15.5t15.5 -6.5t15.5 6.5t6.5 16t-6.5 15.5t-15.5 6t-16 -6.5zM206 184q2 2 2 5t-2.5 5t-5.5 2.5t-5 -2t-2 -5.5t2 -5t5 -2t6 2zM49 55 q0 -7 5 -12t12 -5t12 5t5 12t-5 12t-12 5t-12 -5t-5 -12z" />
</svg>