<svg viewBox="0 0 1024 1024" xmlns="http://www.w3.org/2000/svg">
  <path transform="scale(1, -1) translate(0, -960)" fill="currentColor" d="M512 -32q-7 0 -11.5 4.5t-4.5 11.5t4.5 11.5t11.5 4.5q36 0 70.5 6t67.5 16q6 3 12 0t8 -9q3 -6 0 -12.5t-9 -8.5q-36 -12 -73.5 -18t-75.5 -6v0v0v0zM370 -10h-3h-2q-36 12 -69.5 29t-65.5 40q-4 4 -5 11t2 12q4 4 11 5t12 -2q28 -21 59.5 -37t64.5 -27q6 -3 9 -8.5 t1 -12.5q-1 -4 -5.5 -7t-8.5 -3v0zM786 56q-4 0 -7.5 1.5t-5.5 4.5q-4 5 -3 12t6 11q29 20 54 45t45 54q4 5 10.5 6t12.5 -3q4 -3 5 -10t-2 -12q-23 -30 -49.5 -57t-56.5 -49q-2 -1 -4.5 -2t-4.5 -1v0zM138 158q-4 0 -7.5 1.5t-5.5 5.5q-23 31 -40 64.5t-29 69.5 q-2 6 1 12.5t9 8.5t12 -1t8 -9q11 -33 27.5 -64.5t36.5 -59.5q4 -5 3 -12t-6 -11q-2 -2 -4.5 -3.5t-4.5 -1.5zM954 288h-3h-2q-6 2 -9 8t-1 13q10 33 15.5 68t5.5 71v2q0 7 4.5 11.5t11.5 4.5t11.5 -4.5t4.5 -11.5v-2q0 -38 -6 -75.5t-18 -73.5q-1 -5 -5.5 -8t-8.5 -3z M48 432q-7 0 -11.5 4.5t-4.5 11.5v0v0q0 37 6 74t16 73q3 6 8.5 9t12.5 1q6 -3 9 -8.5t1 -12.5q-10 -32 -15.5 -66.5t-5.5 -69.5q0 -7 -4.5 -11.5t-11.5 -4.5zM954 578q-5 0 -9.5 3t-6.5 8q-11 33 -27.5 64.5t-36.5 60.5q-4 4 -3 11t6 11t12 3t10 -6q23 -30 40 -64t29 -69 q2 -6 -1 -12t-9 -9q-1 -1 -2 -1h-2v0zM136 704q-2 0 -4.5 1t-5.5 2q-4 4 -5 10.5t2 12.5q22 31 49 57.5t57 47.5q5 4 12 3t10 -6q4 -5 3 -12t-6 -10q-29 -21 -54 -46t-45 -54q-3 -3 -6 -4.5t-7 -1.5zM784 808q-2 0 -4.5 1t-5.5 2q-28 21 -59.5 37t-64.5 27q-6 3 -9 8.5 t-1 12.5t8 9.5t13 0.5q36 -12 69.5 -29t64.5 -39q4 -4 4.5 -11t-2.5 -13l-6 -4t-7 -2zM368 874q-5 0 -9.5 3t-6.5 8q-2 6 1 12t9 9q36 12 73 18t75 6v0v0q8 0 12 -4.5t4 -11.5q0 -8 -4 -12t-12 -4q-36 0 -70.5 -6t-66.5 -17q-1 -1 -2.5 -1h-2.5v0z" />
</svg>