<svg viewBox="0 0 1024 1024" xmlns="http://www.w3.org/2000/svg">
  <path transform="scale(1, -1) translate(0, -960)" fill="currentColor" d="M938 544q-3 6 -8.5 9t-12.5 2q-6 -2 -9.5 -7.5t-1.5 -13.5q9 -30 14 -61t5 -62q0 -47 -10.5 -92t-31.5 -87q-26 -54 -64 -97q-39 -43 -87 -73t-104 -46t-116 -16q-86 0 -161 32q-76 33 -132 88.5t-89 130.5q-32 75 -32 160t32 160q33 75 89 131t132 88q75 32 161 32 q47 0 92 -10t87 -30v-1h-149q-7 0 -11.5 -4.5t-4.5 -11.5t4.5 -11.5t11.5 -4.5h165q7 0 11.5 4.5t4.5 11.5v163q0 7 -4.5 11.5t-11.5 4.5t-11.5 -4.5t-4.5 -11.5v-112q-42 19 -87 28.5t-92 9.5q-92 0 -174 -34q-81 -35 -141.5 -95.5t-95.5 -140.5q-35 -81 -35 -173t35 -172 q35 -81 95.5 -141t141.5 -95q82 -35 174 -35q64 0 124 18q60 17 112.5 49.5t95.5 78.5q42 47 70 104q21 45 32.5 93.5t11.5 99.5q0 34 -5.5 67.5t-14.5 65.5z" />
</svg>