<svg viewBox="0 0 1024 1024" xmlns="http://www.w3.org/2000/svg">
  <path transform="scale(1, -1) translate(0, -960)" fill="currentColor" d="M512 928q-7 0 -11.5 -4.5t-4.5 -11.5v-259q0 -7 4.5 -11.5t11.5 -4.5t11.5 4.5t4.5 11.5v259q0 7 -4.5 11.5t-11.5 4.5zM512 259q-7 0 -11.5 -4.5t-4.5 -11.5v-259q0 -7 4.5 -11.5t11.5 -4.5t11.5 4.5t4.5 11.5v259q0 6 -4.5 11t-11.5 5zM323 448q0 7 -4.5 11.5 t-11.5 4.5h-259q-7 0 -11.5 -4.5t-4.5 -11.5t4.5 -11.5t11.5 -4.5h259q6 0 11 4.5t5 11.5zM976 464h-259q-7 0 -11.5 -4.5t-4.5 -11.5t4.5 -11.5t11.5 -4.5h259q7 0 11.5 4.5t4.5 11.5t-4.5 11.5t-11.5 4.5zM658 578q3 0 5.5 1t5.5 3l182 183q5 5 5 11t-5 11t-11 5t-11 -5 l-183 -182q-4 -5 -4 -11.5t4 -11.5q3 -2 5.5 -3t6.5 -1v0zM355 314l-182 -183q-5 -5 -5 -11t5 -11q2 -3 5.5 -4t5.5 -1t5.5 1t5.5 4l183 182q4 5 4 11.5t-4 11.5q-5 4 -11.5 4t-11.5 -4zM669 314q-5 4 -11.5 4t-11.5 -4q-4 -5 -4 -11.5t4 -11.5l183 -182q2 -3 5.5 -4t5.5 -1 t5.5 1t5.5 4q5 5 5 11t-5 11l-182 183v0zM195 787q-5 5 -11 5t-11 -5t-5 -11t5 -11l182 -183q3 -2 6 -3t5 -1q3 0 6 1t6 3q4 5 4 11.5t-4 11.5l-183 182v0z" />
</svg>