<svg viewBox="0 0 1024 1024" xmlns="http://www.w3.org/2000/svg">
  <path transform="scale(1, -1) translate(0, -960)" fill="currentColor" d="M789 827q-45 33 -96 54t-107 31q-21 4 -36.5 -9.5t-15.5 -33.5v-59q0 -16 10 -28.5t26 -15.5q34 -6 66 -19.5t60 -32.5q13 -9 28.5 -7.5t27.5 11.5l42 42q14 14 12 34.5t-17 32.5zM874 470h59q20 0 33.5 15.5t9.5 36.5q-8 56 -30 107t-55 96q-12 17 -32.5 18t-34.5 -13 l-42 -42q-10 -11 -12 -27t8 -29q19 -28 32.5 -60t19.5 -66q3 -16 15 -26t29 -10v0zM782 208l42 -42q14 -14 34.5 -12t32.5 17q33 45 54 96t31 107q4 21 -9.5 36.5t-33.5 15.5h-59q-16 0 -28.5 -10t-15.5 -26q-6 -34 -19.5 -66t-32.5 -60q-10 -13 -8 -28.5t12 -27.5v0z M534 86v-59q0 -20 15.5 -33.5t36.5 -9.5q56 8 107 30t96 55q17 12 18 32.5t-13 34.5l-42 42q-11 10 -27 12t-29 -8q-28 -19 -60 -32.5t-66 -19.5q-16 -3 -26 -15t-10 -29v0zM328 712q28 19 60 33t66 20q16 2 26 14.5t10 28.5v59q0 21 -15.5 34t-36.5 9q-56 -8 -107 -30 t-96 -54q-17 -12 -18 -32.5t13 -35.5l42 -41q12 -10 27.5 -11.5t28.5 6.5zM235 69q45 -33 96 -54t107 -31q21 -4 36.5 9.5t15.5 33.5v59q0 16 -10 28.5t-26 15.5q-34 6 -66 19.5t-60 32.5q-13 10 -28.5 8t-27.5 -12l-42 -42q-14 -14 -12 -34.5t17 -32.5v0zM150 426h-57 q-21 0 -34 -15.5t-9 -36.5q8 -56 30 -107t54 -96q12 -17 32.5 -18t35.5 13l41 42q11 11 13 27t-8 29q-19 28 -33 60t-20 66q-3 16 -15.5 26t-29.5 10v0zM242 688l-42 42q-14 14 -34.5 12t-32.5 -17q-33 -45 -54 -96t-31 -107q-4 -21 9.5 -36.5t33.5 -15.5h59q16 0 28.5 10 t15.5 26q6 34 19.5 66t32.5 60q10 13 8 28.5t-12 27.5v0z" />
</svg>