<svg viewBox="0 0 256 256" xmlns="http://www.w3.org/2000/svg">
  <path transform="scale(1, -1) translate(0, -256)" fill="currentColor" d="M112 228q0 -6 5 -10.5t11 -4.5t11 4.5t5 11t-5 11t-11 4.5t-11 -4.5t-5 -11.5zM128 50q-9 0 -15.5 -6.5t-6.5 -15.5t6.5 -15.5t15.5 -6.5t15.5 6.5t6.5 15.5t-6.5 15.5t-15.5 6.5zM128 18q-4 0 -7 3t-3 7t3 6.5t7 2.5t7 -3t3 -6.5t-3 -6.5t-7 -3zM213 128q0 -6 4.5 -11 t11 -5t11 5t4.5 11t-4.5 11t-11 5t-11 -5t-4.5 -11zM50 128q0 9 -6.5 15.5t-15.5 6.5t-15.5 -6.5t-6.5 -15.5t6.5 -15.5t15.5 -6.5t15.5 6.5t6.5 15.5zM28 118q-4 0 -7 3t-3 7t3 7t7 3t6.5 -3t3 -7t-2.5 -7t-7 -3zM210 188q5 4 5 10.5t-5 11.5t-11.5 5t-11 -4.5t-4.5 -11.5 t4.5 -11.5t11.5 -4.5t11 5zM57 79q-9 0 -15 -6.5t-6 -15.5t6 -15t15 -6t15.5 6t6.5 15t-6.5 15.5t-15.5 6.5zM64 50q-3 -2 -7 -2t-6.5 2.5t-2.5 6.5t2.5 7t6.5 3t7 -3t3 -7t-3 -7zM188 68q-5 -4 -5 -10.5t4.5 -11.5t11 -5t11.5 5t5 11.5t-5 11t-11.5 4.5t-10.5 -5zM68 188 q5 4 5 10.5t-4.5 11.5t-11 5t-11.5 -5t-5 -11.5t4.5 -11t11.5 -4.5t11 5z" />
</svg>