<svg viewBox="0 0 1024 1024" xmlns="http://www.w3.org/2000/svg">
  <path transform="scale(1, -1) translate(0, -960)" fill="currentColor" d="M574 850q0 -26 -18 -44.5t-44 -18.5t-44 18.5t-18 44.5q0 25 18 43.5t44 18.5t44 -18.5t18 -43.5zM512 126q-32 0 -55 -23t-23 -55t23 -56t55 -24t55 23t23 55q0 33 -23 56.5t-55 23.5zM512 0q-19 0 -32.5 13.5t-13.5 32.5q0 20 13.5 33.5t32.5 13.5t32.5 -13.5 t13.5 -33.5q0 -19 -13.5 -32.5t-32.5 -13.5zM976 448q0 -26 -18.5 -44t-43.5 -18q-26 0 -44.5 18t-18.5 44t18.5 44t44.5 18q25 0 43.5 -18t18.5 -44zM190 448q0 32 -23 55t-55 23t-56 -23t-24 -55t23 -55t55 -23q33 0 56.5 23t23.5 55zM110 402q-19 0 -32.5 13.5 t-13.5 32.5t13.5 32.5t32.5 13.5q20 0 33.5 -13.5t13.5 -32.5q1 -19 -13 -32.5t-34 -13.5zM840 686q18 18 18 44.5t-18 45.5q-18 18 -44 18t-46 -18q-18 -18 -18 -44t18 -46q20 -18 46 -18t44 18zM229 243q-16 0 -30.5 -5.5t-25.5 -16.5t-17 -26t-6 -30q0 -16 6 -30.5 t17 -25.5t25.5 -17t30.5 -6q15 0 30 6t26 17t16.5 25.5t5.5 30.5q0 15 -5.5 30t-16.5 26t-26 16.5t-30 5.5zM261 131q-13 -13 -33 -13t-33 13q-7 7 -10.5 15.5t-3.5 18.5q0 9 3.5 17.5t10.5 15.5q7 8 15.5 11.5t18.5 3.5q9 0 17.5 -3.5t15.5 -11.5q8 -7 11.5 -15.5 t3.5 -17.5q0 -10 -4.5 -18.5t-11.5 -15.5zM750 210q-18 -18 -18 -44.5t18 -45.5q18 -18 44.5 -18t45.5 18q18 18 18 44t-18 46q-18 18 -44 18t-46 -18zM274 686q18 18 18 44.5t-18 45.5q-18 18 -44.5 18t-45.5 -18q-18 -18 -18 -44t18 -46q18 -18 44 -18t46 18z" />
</svg>