<svg viewBox="0 0 256 256" xmlns="http://www.w3.org/2000/svg">
  <path transform="scale(1, -1) translate(0, -256)" fill="currentColor" d="M197 223q-22 16 -51 21q-5 1 -8.5 -2.5t-3.5 -8.5v-15q0 -4 2.5 -7t5.5 -3q17 -3 32 -14q3 -2 7 -1.5t7 3.5l10 10q4 4 3.5 9t-4.5 8zM218 134h15q5 0 8.5 3.5t2.5 8.5q-4 28 -21 51q-3 4 -8 4.5t-9 -3.5l-10 -10q-3 -3 -3.5 -7t1.5 -7q11 -15 14 -32q0 -4 3 -6t7 -2z M196 68l10 -10q4 -4 9 -3.5t8 4.5q16 22 21 51q1 5 -2.5 8.5t-8.5 3.5h-15q-4 0 -7 -2.5t-3 -5.5q-3 -17 -14 -32q-2 -3 -1.5 -7t3.5 -7zM134 38v-15q0 -5 3.5 -8.5t8.5 -2.5q28 4 51 21q4 3 4.5 8t-3.5 9l-10 10q-3 3 -7 3.5t-7 -1.5q-15 -11 -32 -14q-4 0 -6 -3t-2 -7z M82 194q15 10 32 13q3 1 5.5 4t2.5 7v15q0 5 -3.5 8t-8.5 3q-28 -4 -51 -22q-4 -3 -4.5 -8t3.5 -8l10 -11q3 -2 7 -2.5t7 1.5zM59 33q22 -16 51 -21q5 -1 8.5 2.5t3.5 8.5v15q0 4 -2.5 7t-5.5 3q-17 3 -32 14q-3 2 -7 1.5t-7 -3.5l-10 -10q-4 -4 -3.5 -9t4.5 -8zM38 122h-15 q-5 0 -8 -3.5t-3 -8.5q4 -28 22 -51q3 -4 8 -4.5t8 3.5l11 10q3 3 3 7t-2 7q-10 15 -13 32q-1 4 -4 6t-7 2zM60 188l-10 10q-4 4 -9 3.5t-8 -4.5q-16 -22 -21 -51q-1 -5 2.5 -8.5t8.5 -3.5h15q4 0 7 2.5t3 5.5q3 17 14 32q2 3 1.5 7t-3.5 7z" />
</svg>