<svg viewBox="0 0 256 256" xmlns="http://www.w3.org/2000/svg">
  <path transform="scale(1, -1) translate(0, -256)" fill="currentColor" d="M237 153q-1 3 -3.5 4t-5 0t-4 -3.5t-0.5 -5.5q4 -13 4 -30q0 -23 -10 -43q-12 -26 -36.5 -41t-52.5 -15t-51 13.5t-36.5 36t-13.5 50t13.5 50t36.5 36t50 13.5q21 0 40 -8h-24q-3 0 -5.5 -2t-2.5 -5t2.5 -5t5.5 -2h41q3 0 5 2t2 5v41q0 3 -2 5t-5 2t-5 -2t-2 -5v-23 q-23 11 -50 11q-31 0 -57.5 -15t-41.5 -41t-15 -57t15 -57t41.5 -41.5t58.5 -15.5t60 17.5t42 46.5q12 24 12 49q-1 20 -6 35z" />
</svg>