<svg viewBox="0 0 1024 1024" xmlns="http://www.w3.org/2000/svg">
  <path transform="scale(1, -1) translate(0, -960)" fill="currentColor" d="M533 928q-52 0 -88.5 -36.5t-36.5 -88.5q0 -51 36.5 -88t88.5 -37q51 0 88 37t37 88q0 52 -37 88.5t-88 36.5zM533 120q-31 0 -54 -22t-23 -55q0 -32 22 -54.5t55 -22.5q31 0 54 22.5t23 54.5q0 33 -23 55t-54 22zM912 480q-23 0 -39.5 -16.5t-16.5 -39.5t16.5 -39.5 t39.5 -16.5t39.5 16.5t16.5 39.5q-1 23 -17 39.5t-39 16.5zM246 424q0 40 -28 67t-66 27q-40 0 -67 -28t-27 -66q0 -40 28 -67t66 -27q40 0 67 27t27 67zM867 157q0 -27 -19 -46.5t-46 -19.5q-28 0 -47 19.5t-19 46.5t19 46t47 19q27 0 46 -19t19 -46zM264 798 q-20 0 -39.5 -8t-34.5 -22q-30 -30 -30 -73.5t30 -73.5q16 -16 35 -23.5t39 -7.5t39 7.5t35 23.5q14 14 22 33.5t8 39.5q0 21 -8 40.5t-22 33.5q-15 14 -34.5 22t-39.5 8zM800 646v0v0q10 0 18 3.5t16 9.5v0q7 7 10.5 15.5t1.5 18.5q0 9 -3 16.5t-9 13.5q-8 7 -16 10.5 t-18 2.5q-10 0 -17 -3.5t-13 -9.5q-8 -7 -11 -15.5t-2 -17.5q0 -10 3.5 -17.5t9.5 -13.5q4 -6 12 -9.5t18 -3.5v0zM264 240q-35 0 -60 -25t-25 -60t25 -60t60 -25t60 25t25 60t-25 60t-60 25z" />
</svg>