<svg viewBox="0 0 1024 1024" xmlns="http://www.w3.org/2000/svg">
  <path transform="scale(1, -1) translate(0, -960)" fill="currentColor" d="M512 928q-7 0 -11.5 -4.5t-4.5 -11.5v-283q0 -7 4.5 -11.5t11.5 -4.5t11.5 4.5t4.5 11.5v283q0 7 -4.5 11.5t-11.5 4.5zM512 283q-7 0 -11.5 -4.5t-4.5 -11.5v-283q0 -7 4.5 -11.5t11.5 -4.5t11.5 4.5t4.5 11.5v283q0 6 -4.5 11t-11.5 5zM347 448q0 7 -4.5 11.5 t-11.5 4.5h-283q-7 0 -11.5 -4.5t-4.5 -11.5t4.5 -11.5t11.5 -4.5h283q6 0 11 4.5t5 11.5zM976 464h-283q-7 0 -11.5 -4.5t-4.5 -11.5t4.5 -11.5t11.5 -4.5h283q7 0 11.5 4.5t4.5 11.5t-4.5 11.5t-11.5 4.5zM686 606q4 0 6.5 1.5t5.5 3.5l200 200q4 5 4 11.5t-4 11.5 q-5 4 -11.5 4t-11.5 -4l-200 -200q-5 -5 -5 -11.5t5 -11.5q3 -2 5.5 -3.5t5.5 -1.5v0zM326 286l-200 -201q-4 -5 -4 -11.5t4 -11.5q3 -2 6 -3t6 -1q2 0 5 1t6 3l200 200q5 5 5 11.5t-5 11.5t-11.5 5.5t-11.5 -4.5zM698 286q-5 5 -11.5 5t-11.5 -5q-5 -4 -5 -10.5t5 -11.5 l200 -200q3 -2 6 -3.5t5 -1.5q3 0 6 1.5t6 3.5q4 5 4 11.5t-4 10.5l-200 200v0zM150 834q-4 4 -10.5 4t-11.5 -4q-5 -5 -5 -11.5t5 -11.5l200 -200q2 -2 5.5 -3.5t5.5 -1.5q3 0 6 1.5t5 3.5q5 5 5 11.5t-5 11.5l-200 200v0z" />
</svg>