<svg viewBox="0 0 256 256" xmlns="http://www.w3.org/2000/svg">
  <path transform="scale(1, -1) translate(0, -256)" fill="currentColor" d="M142 250h-28q-5 0 -8.5 -4t-2.5 -8l3 -29q0 -5 3.5 -8t7.5 -3h22q5 0 8 3t4 8l3 29q0 4 -3.5 8t-8.5 4zM138 210h-21l-3 28h27zM139 58h-22q-5 0 -8 -3t-4 -7l-3 -29q0 -5 3 -9t9 -4h27q6 0 9 4.5t2 8.5l-2 29q0 4 -3.5 7t-7.5 3zM115 18l3 28h21l3 -28h-27zM246 150 q-4 4 -8 3l-29 -3q-5 0 -8 -3.5t-3 -7.5v-22q0 -5 3 -8t8 -4l30 -3q4 0 7.5 3.5t3.5 8.5v27q0 6 -4 9zM238 115l-28 3v21l28 3v-27zM58 117v22q0 5 -3 8t-7 4l-29 3q-5 0 -9 -3t-4 -9v-27q0 -6 3.5 -8.5t8.5 -2.5l30 2q4 0 7 3.5t3 7.5zM46 118l-28 -3v26l28 -3v-20zM201 87 q-4 3 -8.5 2.5t-7.5 -3.5l-15 -16q-4 -3 -4 -7.5t3 -7.5l18 -23q3 -3 9 -4v0q5 0 8 3l20 20q3 4 2.5 9t-4.5 8zM196 41l-17 21l15 15l21 -17zM68 223q-3 4 -8 4.5t-9 -3.5l-19 -20q-4 -3 -3 -8.5t4 -8.5l23 -18q3 -3 7.5 -3t7.5 4l15 15q4 3 4 7.5t-3 8.5zM62 179l-21 17 l19 19l17 -21zM71 86q-3 3 -7.5 3.5t-8.5 -2.5l-22 -19q-4 -3 -4.5 -8t3.5 -9l19 -19q3 -4 8 -4h1q5 0 8 5l18 22q3 4 3 8.5t-3 7.5zM60 41l-19 19l21 17l15 -15zM185 170q4 -4 8.5 -4t6.5 3l23 19q4 3 4 8t-3 9l-20 19q-3 4 -8.5 3.5t-8.5 -4.5l-18 -23q-3 -3 -3 -7.5 t4 -7.5zM196 215l19 -19l-21 -17l-15 15z" />
</svg>