<svg viewBox="0 0 256 256" xmlns="http://www.w3.org/2000/svg">
  <path transform="scale(1, -1) translate(0, -256)" fill="currentColor" d="M142 250h-28q-5 0 -8.5 -4t-2.5 -8l3 -29q0 -5 3.5 -8t7.5 -3h22q4 0 7.5 3t3.5 8l3 29q0 4 -2.5 8t-8.5 4zM139 58h-22q-4 0 -7.5 -3t-3.5 -7l-3 -29q0 -5 3 -9t8 -4h28q6 0 9 4t3 9l-3 29q-1 4 -4.5 7t-7.5 3zM246 150q-4 4 -8 3l-29 -3q-5 0 -8 -3.5t-3 -7.5v-22 q0 -4 3 -7.5t8 -3.5l30 -3q4 0 7.5 3t3.5 8v28q0 5 -4 8zM59 117v22q0 5 -3.5 8.5t-7.5 3.5l-29 3q-5 1 -9.5 -3t-4.5 -9v-28q0 -6 4 -9.5t9 -3.5l30 3q4 1 7.5 4.5t3.5 8.5zM45 118l-26 -2v24l26 -2v-20zM201 87q-4 3 -8 2.5t-7 -3.5l-16 -16q-3 -3 -3 -7.5t2 -7.5l19 -22 q3 -4 8 -4v0q5 0 8 3l20 20q4 3 3.5 8t-4.5 9zM69 224q-4 4 -9 4t-10 -3l-19 -20q-4 -4 -4 -9t5 -10l22 -18q3 -3 8 -3t9 4l15 15q4 4 4 8.5t-3 8.5zM62 180l-20 16l18 18l16 -20zM71 87q-3 3 -8 3.5t-9 -2.5l-22 -19q-4 -4 -4 -9t3 -10l20 -19q3 -4 9 -4v0q5 0 10 5l18 22 q3 4 3 8.5t-4 8.5zM60 42l-18 18l20 16l14 -14zM186 170q3 -4 7.5 -4t7.5 3l22 19q4 3 4 8t-3 9l-20 19q-3 4 -8 3.5t-9 -4.5l-18 -22q-3 -4 -3 -8t4 -7z" />
</svg>