<svg viewBox="0 0 1024 1024" xmlns="http://www.w3.org/2000/svg">
  <path transform="scale(1, -1) translate(0, -960)" fill="currentColor" d="M568 936h-112q-10 0 -19 -3.5t-15 -10.5q-6 -8 -9 -17t-2 -19l11 -115q2 -18 15 -29.5t30 -11.5h88q18 0 31 11.5t14 29.5l11 115q1 10 -2 19t-9 17q-5 7 -13.5 10.5t-18.5 3.5zM557 168h-88q-18 0 -31 -12t-14 -30l-11 -115q-1 -9 2 -18.5t9 -16.5t15 -10.5t19 -3.5h112 q9 0 18 3.5t15 10.5t9.5 16.5t1.5 18.5l-11 115q-2 17 -15.5 29.5t-30.5 12.5zM986 538q-8 6 -17 9t-19 2l-115 -11q-18 -2 -29.5 -15t-11.5 -30v-88q0 -18 11.5 -31t29.5 -14l115 -11h3h2q9 0 17 3t14 8q7 6 10.5 15t3.5 19v112q0 8 -3.5 17t-10.5 15v0zM224 403v88 q0 15 -9.5 25.5t-24.5 13.5l-115 11q-8 1 -15.5 -2t-13.5 -8q-7 -5 -10.5 -12.5t-3.5 -14.5v-112q0 -8 3.5 -15.5t9.5 -13.5q5 -5 11.5 -7t13.5 -2h3h1l115 11q14 2 24.5 13t10.5 25zM70 387q-1 0 -2 1t-2 1l-1 1t-1 4v112q0 1 1 2t1 2l1 1t2 1v0v0l115 -11q2 0 3.5 -2 t1.5 -5v-88q0 -2 -1.5 -3.5t-3.5 -2.5l-114 -13v0zM803 283q-13 11 -31 10.5t-30 -13.5l-62 -62q-12 -12 -13 -30t10 -31l73 -90q6 -7 15 -11.5t19 -4.5h1h1q9 0 17.5 3.5t14.5 9.5l78 78q7 8 10.5 17t2.5 19q0 9 -4.5 18t-11.5 15zM267 824q-5 6 -12 9.5t-15 4.5 q-8 0 -15.5 -2.5t-13.5 -8.5l-78 -78q-6 -6 -8.5 -13.5t-2.5 -15.5t3.5 -15t10.5 -12l90 -74q4 -5 11 -6.5t13 -1.5q7 0 14 2.5t13 8.5l62 63q11 11 11.5 25t-8.5 26l-75 88v0zM317 706l-63 -63q-1 -1 -3 -1t-5 1l-89 74q-1 1 -1.5 2t-0.5 3q0 1 0.5 2t1.5 2l78 79 q1 1 2.5 1h2.5v0v0h2.5t2.5 -1l73 -90v-4.5t-1 -4.5zM277 275v0v0q-11 11 -25 11.5t-26 -8.5l-90 -73q-6 -5 -9.5 -12t-4.5 -15q0 -9 2.5 -16t8.5 -13l78 -79q5 -4 12 -7.5t15 -3.5h1h1q8 0 15 3.5t12 11.5l74 89q9 11 8 26t-11 25l-61 61v0zM317 182l-74 -89q-1 -1 -2 -1.5 t-3 -0.5q-1 0 -2 0.5t-2 1.5l-79 78q-1 1 -1 2.5v2.5v2.5t1 2.5l90 73q1 2 1.5 2h1.5h2.5t2.5 -2l62 -62q3 -4 3 -6t-1 -4v0zM742 614v0v0q8 -7 16 -9.5t16 -2.5t15.5 2.5t13.5 8.5l90 73q7 6 11.5 15t4.5 19t-3.5 19t-9.5 16l-78 77q-8 7 -17 10.5t-19 2.5q-9 0 -18 -4.5 t-15 -11.5l-74 -90q-11 -13 -10.5 -31t13.5 -30l64 -64v0z" />
</svg>