<svg viewBox="0 0 1024 1024" xmlns="http://www.w3.org/2000/svg">
  <path transform="scale(1, -1) translate(0, -960)" fill="currentColor" d="M512 928q-32 0 -55 -23t-23 -55q0 -33 23 -56t55 -23t55 23t23 56q0 32 -23 55t-55 23zM512 802q-19 0 -32.5 13.5t-13.5 32.5t13.5 33.5t32.5 14.5t32.5 -13.5t13.5 -32.5q0 -20 -13.5 -34t-32.5 -14zM512 126q-32 0 -55 -23t-23 -55t23 -56t55 -24t55 23t23 55 q0 33 -23 56.5t-55 23.5zM512 0q-19 0 -32.5 13.5t-13.5 32.5q0 20 13.5 33.5t32.5 13.5t32.5 -13.5t13.5 -33.5q0 -19 -13.5 -32.5t-32.5 -13.5zM914 526q-33 0 -56 -23t-23 -55t23 -55t56 -23q32 0 55 23t23 55t-23 55t-55 23zM914 402q-20 0 -33.5 13.5t-13.5 32.5 t13.5 32.5t33.5 13.5q19 0 32.5 -13.5t13.5 -32.5t-13.5 -32.5t-32.5 -13.5zM190 448q0 32 -23 55t-55 23t-56 -23t-24 -55t23 -55t55 -23q33 0 56.5 23t23.5 55zM110 402q-19 0 -32.5 13.5t-13.5 32.5t13.5 32.5t32.5 13.5q20 0 33.5 -13.5t13.5 -32.5q1 -19 -13 -32.5 t-34 -13.5zM795 653q16 0 30.5 5.5t25.5 16.5t17 26t6 30q0 16 -6 30.5t-17 25.5t-25.5 17t-30.5 6q-15 0 -30 -6t-26 -17t-16.5 -25.5t-5.5 -30.5q0 -15 5.5 -30t16.5 -26t26 -16.5t30 -5.5zM763 765q7 7 15.5 10.5t18.5 3.5q9 0 17.5 -3.5t15.5 -10.5q8 -7 11.5 -15.5 t3.5 -18.5q0 -9 -3.5 -17.5t-11.5 -15.5q-13 -14 -32.5 -14t-32.5 14q-7 7 -11 15.5t-4 17.5q-1 10 2.5 18.5t10.5 15.5zM229 243q-16 0 -30.5 -5.5t-25.5 -16.5t-17 -26t-6 -30q0 -16 6 -30.5t17 -25.5t25.5 -17t30.5 -6q15 0 30 6t26 17t16.5 25.5t5.5 30.5q0 15 -5.5 30 t-16.5 26t-26 16.5t-30 5.5zM261 131q-13 -13 -33 -13t-33 13q-7 7 -10.5 15.5t-3.5 18.5q0 9 3.5 17.5t10.5 15.5q7 8 15.5 11.5t18.5 3.5q9 0 17.5 -3.5t15.5 -11.5q8 -7 11.5 -15.5t3.5 -17.5q0 -10 -4.5 -18.5t-11.5 -15.5zM795 243q-15 0 -30 -5.5t-26 -16.5t-16.5 -26 t-5.5 -30q0 -16 5.5 -30.5t16.5 -25.5t26 -17t30 -6q16 0 30.5 6t25.5 17t17 25.5t6 30.5q0 15 -6 30t-17 26t-25.5 16.5t-30.5 5.5zM829 131q-13 -13 -33 -13t-33 13q-7 7 -10.5 15.5t-3.5 18.5q0 9 3.5 17.5t10.5 15.5q7 8 15.5 11.5t18.5 3.5q9 0 17.5 -3.5t15.5 -11.5 q8 -7 11.5 -15.5t3.5 -17.5q0 -10 -4.5 -18.5t-11.5 -15.5zM229 811q-16 0 -30.5 -5.5t-25.5 -16.5t-17 -26t-6 -30q0 -16 6 -30.5t17 -25.5t25.5 -17t30.5 -6q15 0 30 6t26 17t16.5 25.5t5.5 30.5q0 15 -5.5 30t-16.5 26q-12 9 -26.5 15.5t-29.5 6.5v0zM261 699 q-13 -13 -33 -13t-33 13q-7 7 -10.5 15.5t-3.5 18.5q0 9 3.5 17.5t10.5 15.5q7 8 15.5 11.5t18.5 3.5q9 0 17.5 -3.5t15.5 -11.5q8 -7 11.5 -15.5t3.5 -17.5q0 -10 -4.5 -19t-11.5 -15z" />
</svg>