<svg viewBox="0 0 256 256" xmlns="http://www.w3.org/2000/svg">
  <path transform="scale(1, -1) translate(0, -256)" fill="currentColor" d="M128 251q-3 0 -5 -2t-2 -5v-65q0 -3 2 -5t5 -2t5 2t2 5v65q0 3 -2 5t-5 2zM128 84q-3 0 -5 -2.5t-2 -5.5v-64q0 -3 2 -5t5 -2t5 2t2 5v65q0 3 -2 5t-5 2zM84 128q0 3 -2.5 5t-5.5 2h-64q-3 0 -5 -2t-2 -5t2 -5t5 -2h65q3 0 5 2t2 5zM244 135h-65q-3 0 -5 -2t-2 -5t2 -5.5 t5 -2.5h65q3 0 5 2.5t2 5.5t-2 5t-5 2zM164 157q3 0 5 2l46 46q2 2 2 5t-2 5t-5 2t-5 -2l-46 -46q-2 -2 -2 -5t2.5 -5t4.5 -2zM87 97l-46 -46q-2 -2 -2 -5t2 -5t5 -2t5 2l45 45q2 2 2.5 5t-2 5.5t-5 2.5t-4.5 -2zM169 97q-2 2 -5 2t-5 -2t-2 -5t2 -5l46 -46q2 -2 4.5 -2t5 2 t2.5 5t-3 5zM51 215q-2 2 -5 2t-5 -2t-2 -5t2 -5l45 -46q2 -2 5 -2t5 2t2 5t-2 5z" />
</svg>