<svg viewBox="0 0 1024 1024" xmlns="http://www.w3.org/2000/svg">
  <path transform="scale(1, -1) translate(0, -960)" fill="currentColor" d="M890 694q-31 31 -67 55q-35 24 -74.5 40t-80.5 25q-42 8 -86 8q-43 0 -85 -8t-81 -24.5t-75 -39.5q-35 -24 -66 -56q-42 -42 -73 -91t-51 -102.5t-29 -110.5q-8 -58 -4 -116h-54q-13 0 -22.5 -9.5t-9.5 -22.5v-136q0 -14 9.5 -23t22.5 -9h136q13 0 22.5 9t9.5 23v136 q0 13 -9.5 22.5t-22.5 9.5h-51q-4 55 3 110q8 54 26.5 105t48.5 97q29 46 69 86q58 58 131 88t154 30q40 0 79 -7q39 -8 75 -23t69 -37t62 -51q45 -46 68.5 -104t23.5 -122q0 -63 -24 -121.5t-68 -103.5q-36 -36 -82 -55t-96 -19t-96.5 19t-81.5 55q-28 29 -43 65 q-14 37 -14 75t14 75q15 37 43 66q22 22 51 34.5t60 12.5t59 -12t51 -35q17 -16 26 -38.5t9 -47.5t-9 -46.5t-26 -39.5q-27 -28 -66 -28t-67 28q-9 9 -14.5 22.5t-5.5 28.5q0 14 5.5 27t14.5 24q5 5 5 11.5t-5 10.5q-4 5 -10.5 5t-11.5 -5q-14 -14 -22 -33.5t-8 -39.5 q0 -21 8 -40t22 -34q37 -37 89.5 -37t88.5 37q21 22 32.5 50t11.5 59t-11.5 59t-32.5 50q-27 26 -61.5 40t-71.5 14t-72 -14t-61 -40q-32 -33 -49.5 -75t-17.5 -88t17.5 -88.5t49.5 -75.5q41 -40 92.5 -61.5t109.5 -21.5q56 0 108 21.5t93 61.5q49 50 76 114.5t27 133.5 q-2 71 -28.5 135t-75.5 113v0zM200 106h-136v136h136v-136z" />
</svg>