<svg viewBox="0 0 256 256" xmlns="http://www.w3.org/2000/svg">
  <path transform="scale(1, -1) translate(0, -256)" fill="currentColor" d="M224 192q-16 16 -36 24.5t-42.5 8.5t-43 -8.5t-36.5 -24.5q-21 -21 -31.5 -48t-8.5 -56h-10q-5 0 -8 -3.5t-3 -8.5v-34q0 -4 3 -7.5t8 -3.5h34q5 0 8 3.5t3 7.5v34q0 5 -3 8.5t-8 3.5h-10q-1 26 8 50.5t28 43.5q14 14 32 21.5t37.5 7.5t37.5 -7.5t31 -21.5q11 -11 17 -25 t6 -29.5t-6 -29.5t-17 -25q-8 -8 -19 -12.5t-23 -4.5t-23 4.5t-19 12.5q-14 14 -14 33t14 33q10 11 25 11t26 -11q8 -8 8 -19t-8 -19q-6 -6 -14.5 -6t-14.5 6q-4 4 -4 10t4 11q2 2 2 5t-2 5t-5 2t-5 -2q-8 -9 -8 -21t8 -20q10 -10 24.5 -10t24.5 10q12 12 12 29t-12 29 q-15 15 -35 15q-10 0 -19.5 -4t-16.5 -11q-11 -11 -15 -27t0 -31.5t15 -26.5t24.5 -16.5t28.5 -5.5t28.5 5.5t23.5 16.5q13 13 20 29.5t6.5 34.5t-7.5 34.5t-20 29.5zM47 45h-28v28h28v-28z" />
</svg>