<svg viewBox="0 0 1024 1024" xmlns="http://www.w3.org/2000/svg">
  <path transform="scale(1, -1) translate(0, -960)" fill="currentColor" d="M693 214q-46 23 -96 37q-49 14 -99 19t-101 1t-101 -17q-6 -1 -10 -7t-1 -12q1 -6 7 -9.5t12 -1.5q47 13 95 16q48 4 95.5 -1t93.5 -18q47 -13 90 -34q2 -1 4 -1h3q5 0 8.5 2t5.5 7q4 5 2 11t-8 8v0zM747 398q-72 34 -149.5 51.5t-154.5 17.5q-45 0 -85.5 -5t-79.5 -16 q-6 -1 -9 -7t-2 -12t7 -9t12 -2q36 10 74.5 14.5t82.5 4.5q73 0 147.5 -16.5t143.5 -48.5q2 -2 3 -2h2q5 0 8.5 2.5t6.5 7.5q3 4 1 10.5t-8 9.5v0zM803 590q-42 20 -86 35q-43 15 -88.5 24.5t-91.5 14.5t-94 5q-43 0 -88.5 -5t-93.5 -14q-6 -2 -10 -7t-3 -13q1 -6 6.5 -10 t12.5 -2q47 9 91 14t85 5q46 0 90 -5q45 -5 88.5 -14.5t85.5 -23.5q43 -14 83 -32q2 -2 4 -2h3q5 0 8.5 2.5t5.5 7.5q3 6 0.5 11.5t-8.5 8.5zM512 944q-103 0 -193 -39t-157.5 -106.5t-106.5 -157.5t-39 -193t39 -193t106.5 -157.5t157.5 -106.5t193 -39t193 39t157.5 106.5 t106.5 157.5t39 193t-39 193t-106.5 157.5t-157.5 106.5t-193 39zM512 -16q-96 0 -180 36q-85 37 -148 100t-99 147q-37 85 -37 181t36 180q37 85 100 148t147 99q85 37 181 37t180 -36q85 -37 148 -100t99 -147q37 -85 37 -181t-36 -180q-37 -85 -100 -148t-147 -99 q-85 -37 -181 -37z" />
</svg>