<svg viewBox="0 0 256 256" xmlns="http://www.w3.org/2000/svg">
  <path transform="scale(1, -1) translate(0, -256)" fill="currentColor" d="M128 252q-34 0 -62.5 -16.5t-45 -45t-16.5 -62.5t16.5 -62.5t45 -45t62.5 -16.5t62.5 16.5t45 45t16.5 62.5t-16.5 62.5t-45 45t-62.5 16.5zM185 73q-2 -2 -5 -3t-6 0q-44 27 -109 13q-3 -1 -5.5 0.5t-3.5 5t0.5 6t5.5 3.5q70 16 120 -14q3 -2 4 -5t-1 -6zM200 106 q-2 -3 -6 -4t-7 2q-25 15 -59.5 19t-63.5 -5q-4 -2 -8 0t-5 6t1 8t6 4q34 11 72.5 6.5t67.5 -22.5q2 -2 3 -6t-1 -8zM201 142q-19 11 -46 17q-26 5 -52.5 4t-45.5 -7q-5 -1 -9 1t-5 6.5t1 9t7 5.5q22 7 51.5 7.5t57.5 -4.5q31 -7 53 -20q4 -2 5.5 -7t-1 -8.5t-7.5 -4.5t-9 1 z" />
</svg>