<svg viewBox="0 0 256 256" xmlns="http://www.w3.org/2000/svg">
  <path transform="scale(1, -1) translate(0, -256)" fill="currentColor" d="M174 72q-23 12 -49.5 14.5t-51.5 -4.5q-3 0 -4 -2.5t-0.5 -5.5t3 -4.5t5.5 -0.5q23 6 46.5 3.5t44.5 -12.5q2 -1 3.5 -1t3.5 1t3 3.5t0 5t-4 3.5zM188 118q-37 18 -77 18q-23 0 -42 -6q-3 -1 -4.5 -3t-0.5 -5t3.5 -4.5t4.5 -0.5q18 5 39 5q36 0 71 -16q2 -1 3 -1 q5 0 6.5 3.5t0.5 6t-4 3.5zM202 166q-43 20 -91 20q-23 0 -47 -5q-2 0 -4 -2.5t-1.5 -5.5t3 -4.5t5.5 -1.5q23 5 44 5q45 0 85 -19q2 -1 3 -1q4 0 5.5 3.5t0.5 6.5t-3 4zM128 255q-34 0 -63.5 -17t-46.5 -46.5t-17 -63.5t17 -63.5t46.5 -46.5t63.5 -17t63.5 17t46.5 46.5 t17 63.5t-17 63.5t-46.5 46.5t-63.5 17zM128 15q-31 0 -56.5 15t-41 41t-15.5 57t15.5 56.5t41 41t56.5 15.5t57 -15.5t41 -41t15 -56.5t-15 -57t-41 -41t-57 -15z" />
</svg>