<svg viewBox="0 0 1024 1024" xmlns="http://www.w3.org/2000/svg">
  <path transform="scale(1, -1) translate(0, -960)" fill="currentColor" d="M512 944q-103 0 -194 -39q-90 -39 -157 -106t-106 -157q-39 -91 -39 -194t39 -194q39 -90 106 -157t157 -106q91 -39 194 -39t194 39q90 39 157 106t106 157q39 91 39 194t-39 194q-39 90 -106 157t-157 106q-91 39 -194 39zM739 229q-7 -10 -19 -13t-24 2q-44 27 -93 43 q-50 17 -104.5 23t-113.5 2q-60 -4 -124 -19q-13 -3 -24 4t-13 19q-4 13 3 23.5t19 14.5q71 16 137 21q65 4 125.5 -3t115.5 -25q55 -19 106 -49q10 -8 13 -20t-4 -23v0zM800 362q-8 -14 -24 -17t-27 5q-50 31 -111 51q-61 19 -126.5 26.5t-131.5 2.5t-126 -24 q-15 -4 -29.5 3.5t-18.5 24.5q-4 15 3.5 29.5t24.5 18.5q67 21 141 26t147 -3.5t142 -31.5q69 -22 126 -57q11 -8 14.5 -23.5t-4.5 -30.5v0zM805 504q-60 35 -136 55t-155 26.5t-154 -0.5t-133 -25q-17 -5 -34 4t-22 28q-5 17 4 34t28 22q66 19 150 27q83 7 171 0t174 -30 q85 -23 155 -64q17 -10 21.5 -29t-4.5 -34t-28.5 -19.5t-36.5 5.5v0z" />
</svg>