<svg viewBox="0 0 1024 1024" xmlns="http://www.w3.org/2000/svg">
  <path transform="scale(1, -1) translate(0, -960)" fill="currentColor" d="M330 579h-26v51h21q13 0 22.5 9.5t9.5 22.5v29q0 13 -9.5 22.5t-22.5 9.5h-75q-14 0 -23 -9.5t-9 -22.5v-29q0 -13 9 -22.5t23 -9.5h20v-51h-25q-76 0 -130 -53.5t-54 -128.5v-387q0 -18 12.5 -30t28.5 -12h370q17 0 28.5 11.5t11.5 28.5v389q0 75 -53.5 128.5 t-128.5 53.5v0zM472 0h-370q-3 0 -5.5 2t-2.5 6v339h386v-339q0 -4 -2 -6t-6 -2zM480 379h-387v18q0 62 44 107t108 45h85q62 0 107 -44.5t45 -107.5v-18h-2zM597 717h-31q-7 0 -11.5 -4.5t-4.5 -11.5v-29q0 -7 4.5 -11.5t11.5 -4.5h31q7 0 11.5 4.5t4.5 11.5v30 q0 6 -5 10.5t-11 4.5zM931 717h-30q-7 0 -11.5 -4.5t-4.5 -11.5v-29q0 -7 4.5 -11.5t11.5 -4.5h30q7 0 11.5 4.5t4.5 11.5v30q0 6 -5 10.5t-11 4.5zM931 525h-30q-7 0 -11.5 -4.5t-4.5 -11.5v-31q0 -7 4.5 -11.5t11.5 -4.5h30q7 0 11.5 4.5t4.5 11.5v31q0 6 -5 11t-11 5z M931 912h-30q-7 0 -11.5 -4.5t-4.5 -11.5v-30q0 -8 4.5 -12t11.5 -4h30q7 0 11.5 4t4.5 12v30q0 7 -5 11.5t-11 4.5zM741 586h-31q-7 0 -11.5 -4.5t-4.5 -11.5v-31q0 -7 4.5 -11.5t11.5 -4.5h31q7 0 11.5 4.5t4.5 11.5v31q0 7 -5 11.5t-11 4.5zM741 850h-31q-7 0 -11.5 -4.5 t-4.5 -11.5v-31q0 -7 4.5 -11.5t11.5 -4.5h31q7 0 11.5 4.5t4.5 11.5v31q0 7 -5 11.5t-11 4.5z" />
</svg>