<svg viewBox="0 0 1024 1024" xmlns="http://www.w3.org/2000/svg">
  <path transform="scale(1, -1) translate(0, -960)" fill="currentColor" d="M990 726q-2 22 -16.5 37t-35.5 16q-23 2 -61 1q-37 0 -80 -9t-88 -30q-45 -20 -82 -58q-33 -33 -55.5 -77t-37.5 -91q2 29 -1 66q-2 37 -11.5 77t-29.5 80q-19 40 -52 73v0q-37 39 -86 61q-49 23 -98.5 35.5t-93.5 15.5q-44 4 -71 5q-23 0 -39.5 -16t-17.5 -38 q-3 -33 -3 -77q0 -45 9 -93t29 -94q20 -47 56 -84q29 -29 64 -47q36 -19 73.5 -29.5t74.5 -13.5q38 -4 71 -4q29 0 52 2t38 3v-453q0 -7 4 -11.5t12 -4.5q7 0 11.5 4.5t4.5 11.5v285q2 -1 4.5 -1.5t4.5 -0.5h13.5h15.5q32 0 76 4q43 4 88.5 15t89.5 32q45 22 79 56 q37 39 57 88q19 50 27 99.5t8 93.5t-3 71v0zM147 549q-33 35 -51 80t-25.5 90.5t-7.5 86.5q0 40 3 64q0 11 7 18.5t18 7.5v0v0q25 -1 67 -4q41 -4 87 -15t92 -31q45 -21 79 -56q38 -38 56 -86t24.5 -94t4.5 -84q-2 -37 -3 -54q-19 -3 -62 -6q-42 -3 -93.5 2.5t-104.5 23.5 q-52 18 -91 57v0zM877 397q-36 -36 -83 -56q-47 -21 -95 -30.5t-91 -10.5q-42 -2 -69 -1q-2 0 -4 1t-2 2l-2 4t-1 4q1 28 7 72q6 45 19 94.5t36 98.5q22 49 58 86q55 56 125.5 72t120.5 16q12 0 21.5 -0.5t16.5 -1.5q10 -1 16.5 -7.5t7.5 -16.5q3 -25 3 -66 q1 -41 -6.5 -87.5t-25.5 -91.5q-18 -46 -52 -81v0z" />
</svg>