<svg viewBox="0 0 256 256" xmlns="http://www.w3.org/2000/svg">
  <path transform="scale(1, -1) translate(0, -256)" fill="currentColor" d="M233 244q0 3 -2 5t-5 2v0q-16 0 -33 -3q-33 -6 -48 -21q-10 -10 -17 -31q-6 20 -17 31q-15 15 -48 21q-17 3 -33 3v0q-3 0 -5 -2t-2 -5v0q0 -16 3 -32q6 -33 21 -48q13 -12 39 -18q16 -4 35 -5v-129q0 -3 2 -5t5 -2t5.5 2t2.5 5v129q19 1 35 5q26 6 39 18q15 15 20 48 q3 16 3 32v0zM57 174q-10 10 -16 32q-3 14 -4 31q17 -1 33 -5q21 -5 31 -15t15 -31q4 -15 5 -31q-18 1 -32 4q-22 5 -32 15zM135 155q1 17 5 32q5 21 15 30.5t33 15.5q14 3 31 4q-1 -17 -4 -31q-6 -22 -16 -32t-32 -15q-14 -3 -32 -4z" />
</svg>