<svg viewBox="0 0 256 256" xmlns="http://www.w3.org/2000/svg">
  <path transform="scale(1, -1) translate(0, -256)" fill="currentColor" d="M250 198q0 6 -4.5 10.5t-11.5 5.5q-20 1 -38 -3q-25 -6 -42 -22q-10 -11 -18 -29q-2 39 -24 61q-16 17 -45 24q-21 6 -44 6h-1q-6 0 -11 -4.5t-6 -11.5q-2 -24 2 -44q5 -29 22 -45q23 -25 73 -25q12 0 19 1v-110q0 -3 2 -5t5 -2t5 2t2 5v68h7q23 0 42 5q28 7 44 23.5 t21 47.5q3 20 1 42zM39 156q-14 14 -18 41q-3 17 -2 37q0 3 4 3q19 0 37 -5q28 -6 42.5 -21t18.5 -41q3 -16 1 -34q-21 -2 -39 0q-29 4 -44 20zM217 117q-15 -15 -44 -21q-18 -3 -38 -2q1 19 6 39q8 30 22.5 45t38.5 20q15 3 31 2q3 0 3 -4q2 -19 -1 -37q-4 -27 -18 -42z " />
</svg>