<svg viewBox="0 0 1024 1024" xmlns="http://www.w3.org/2000/svg">
  <path transform="scale(1, -1) translate(0, -960)" fill="currentColor" d="M984 6l-371 234q-17 11 -35.5 17.5t-36.5 9.5v248q13 -3 27 -4.5t29 -1.5q56 0 112.5 24.5t103.5 71.5q30 31 52 67q21 37 32 75t10 76q0 38 -13 73l-3 6l-6 4q-36 12 -74 13q-39 0 -77 -10.5t-74 -31.5q-37 -22 -68 -53t-53 -67q-21 -36 -32 -74t-10 -76q0 -38 12 -73 v-265q-25 0 -50 -7.5t-46 -21.5l-373 -234q-5 -2 -7 -7t1 -10q1 -5 5.5 -8t10.5 -3h928q4 0 8.5 3t7.5 8q0 5 -2.5 10t-7.5 7zM613 802q54 54 123.5 75t129.5 1q19 -60 -2 -129t-75 -123t-123.5 -75t-129.5 -2q-18 60 3 129.5t74 123.5v0zM104 8l325 205q38 24 83.5 24 t82.5 -24l325 -205h-816z" />
</svg>