<svg viewBox="0 0 1024 1024" xmlns="http://www.w3.org/2000/svg">
  <path transform="scale(1, -1) translate(0, -960)" fill="currentColor" d="M914 888h-376q-33 0 -56 -23t-23 -55v-271h-363q-26 0 -45 -18.5t-19 -45.5v-405q0 -26 19 -45t45 -19h405q26 0 45 19t19 45v287h349q32 0 55 23t23 55v375q0 32 -23 55t-55 23v0zM533 72q0 -13 -9.5 -22.5t-22.5 -9.5h-405q-13 0 -22.5 9.5t-9.5 22.5v405 q0 13 9.5 22.5t22.5 9.5h379v0v0v0v0h26q13 0 22.5 -9.5t9.5 -22.5v-405zM960 434q0 -20 -13.5 -33.5t-32.5 -13.5h-349v88q0 27 -19 45.5t-45 18.5h-10v271q0 19 13.5 32.5t33.5 13.5h376q19 0 32.5 -13.5t13.5 -32.5v-376v0zM403 344l-97 56q-4 2 -8.5 2t-7.5 -2l-98 -56 q-4 -2 -6 -6t-2 -8v-112q0 -5 2 -8.5t6 -6.5l98 -56q2 -1 3.5 -1h4.5h3.5t4.5 1l97 56q4 3 6 6.5t2 8.5v112q0 4 -2 8t-6 6v0zM379 227l-81 -46l-82 46v93l82 46l81 -46v-93v0z" />
</svg>