<svg viewBox="0 0 256 256" xmlns="http://www.w3.org/2000/svg">
  <path transform="scale(1, -1) translate(0, -256)" fill="currentColor" d="M94 86q-3 -4 -3 -9t3.5 -8.5t8.5 -3.5t8 4l76 76q7 7 17 7t17 -7t7 -17t-7 -17l-75 -75q8 -7 17.5 -7t16.5 7l58 58q14 14 14 34t-14 34t-34 14t-34 -14zM213 136q-4 4 -9 4t-8 -4l-76 -76q-7 -7 -17 -7t-17 7q-3 3 -8 3t-8.5 -3t-3.5 -8.5t4 -8.5q13 -14 33 -14t35 14 l75 76q3 4 3 9t-3 8zM86 94l76 76q3 4 3 9t-3 8t-8 3t-9 -3l-76 -76q-7 -7 -17 -7t-17 7t-7 17t7 18l75 74q-8 7 -17.5 7t-16.5 -7l-58 -58q-14 -14 -14 -34t14 -34q9 -9 21.5 -12.5t25 0t21.5 12.5zM44 120q3 -4 8.5 -4t8.5 4l76 76q7 7 17 7t17 -7q3 -4 8 -4t8.5 3.5 t3.5 8.5t-3 8q-14 14 -34 14t-34 -14l-76 -76q-4 -3 -4 -8t4 -8z" />
</svg>