<svg viewBox="0 0 256 256" xmlns="http://www.w3.org/2000/svg">
  <path transform="scale(1, -1) translate(0, -256)" fill="currentColor" d="M228 241h-94q-9 0 -15.5 -6.5t-6.5 -15.5v-65h-88q-8 0 -13.5 -5.5t-5.5 -13.5v-101q0 -8 5.5 -13.5t13.5 -5.5h101q8 0 13.5 5.5t5.5 13.5v68h85q9 0 15.5 6.5t6.5 15.5v94q0 10 -6.5 16.5t-16.5 6.5zM130 34q0 -2 -1.5 -3.5t-3.5 -1.5h-101q-2 0 -3.5 1.5t-1.5 3.5v101 q0 2 1.5 3.5t3.5 1.5h101q2 0 3.5 -1.5t1.5 -3.5v-101zM237 124q0 -3 -2.5 -5.5t-5.5 -2.5h-85v19q0 8 -5.5 13.5t-12.5 5.5v64q0 4 2.5 6.5t5.5 2.5h94q4 0 6 -2.5t2 -6.5v-94h1zM102 104l-24 14q-3 2 -7 0l-25 -14q-3 -2 -3 -6v-28q0 -4 3 -6l25 -14h3h4l24 14q4 3 4 6v28 q0 4 -4 6zM92 74l-17 -10l-17 10v20l17 10l17 -10v-20z" />
</svg>