<svg viewBox="0 0 256 256" xmlns="http://www.w3.org/2000/svg">
  <path transform="scale(1, -1) translate(0, -256)" fill="currentColor" d="M94 251h-66q-9 0 -16 -7t-7 -17v-65q0 -10 7 -17t16 -7h66q10 0 17 7t7 17v66q0 9 -7 16t-17 7zM104 162q0 -4 -3 -7t-7 -3h-66q-4 0 -6.5 3t-2.5 7v66q0 3 3 6t6 3h66q4 0 7 -2.5t3 -6.5v-66zM228 251h-66q-10 0 -17 -7t-7 -17v-65q0 -10 7 -17t17 -7h65q10 0 17 7t7 17 v66q0 9 -7 16t-16 7zM237 162q0 -4 -2.5 -7t-6.5 -3h-66q-4 0 -7 3t-3 7v66q0 3 3 6t7 3h65q4 0 7 -2.5t3 -6.5v-66zM94 118h-66q-9 0 -16 -7t-7 -17v-65q0 -10 7 -17t16 -7h66q10 0 17 7t7 17v65q0 10 -7 17t-17 7zM104 28q0 -3 -3 -6t-7 -3h-66q-3 0 -6 2.5t-3 6.5v66 q0 4 3 7t6 3h66q4 0 7 -3t3 -7v-66z" />
</svg>