<svg viewBox="0 0 1024 1024" xmlns="http://www.w3.org/2000/svg">
  <path transform="scale(1, -1) translate(0, -960)" fill="currentColor" d="M512 912q-96 0 -180 -36q-85 -37 -148 -100t-99 -147q-37 -85 -37 -181t36 -180q37 -85 100 -148t147 -99q85 -37 181 -37t180 36q85 37 148 100t99 147q37 85 37 181t-36 180q-37 85 -100 148t-147 99q-85 37 -181 37zM512 16q-89 0 -168 34t-137.5 92.5t-92.5 137.5 t-34 168t34 168t92.5 137.5t137.5 92.5t168 34t168 -34t137.5 -92.5t92.5 -137.5t34 -168t-34 -168t-92.5 -137.5t-137.5 -92.5t-168 -34zM677 674h-159q-31 0 -52 -22t-21 -52v-72h-98q-31 0 -52 -22t-21 -52v-158q0 -31 21.5 -52.5t51.5 -21.5h159q31 0 52 22t21 52v72h98 q31 0 52 22t21 52v158q0 31 -21.5 52.5t-51.5 21.5zM547 296q0 -18 -12.5 -30t-28.5 -12h-159q-18 0 -29.5 12.5t-11.5 29.5v158q0 18 12 30t29 12h98v-54q0 -32 21.5 -53t51.5 -21h29v-72zM547 400h-29q-18 0 -29.5 12.5t-11.5 29.5v54h29q18 0 29.5 -12.5t11.5 -29.5v-54z M718 442q0 -18 -12 -30t-29 -12h-98v54q0 32 -21.5 53t-51.5 21h-29v72q0 18 12.5 30t28.5 12h159q18 0 29.5 -12.5t11.5 -29.5v-158v0z" />
</svg>