<svg viewBox="0 0 1024 1024" xmlns="http://www.w3.org/2000/svg">
  <path transform="scale(1, -1) translate(0, -960)" fill="currentColor" d="M378 928h-264q-34 0 -58 -24t-24 -58v-262q0 -34 24 -58t58 -24h262q34 0 58 24t24 58v262q1 34 -23 58t-57 24zM427 582q0 -20 -14.5 -34.5t-34.5 -14.5h-264q-21 0 -35.5 14.5t-14.5 34.5v264q0 21 14.5 35.5t35.5 14.5h262q20 0 35 -14.5t15 -35.5v-264h1zM910 928 h-264q-33 0 -57 -24t-24 -58v-262q0 -34 24 -58t57 -24h263q33 0 57 24t24 58v262q2 34 -22 58t-58 24zM960 582q0 -20 -14.5 -34.5t-35.5 -14.5h-264q-20 0 -34.5 14.5t-14.5 34.5v264q0 21 14.5 35.5t34.5 14.5h263q21 0 36 -14.5t15 -35.5v-264zM378 395h-264 q-34 0 -58 -24t-24 -57v-263q0 -35 24 -59t58 -24h262q34 0 58 24t24 58v264q1 33 -23 57t-57 24zM427 50q0 -21 -14.5 -35.5t-34.5 -14.5h-264q-21 0 -35.5 14.5t-14.5 35.5v264q0 20 14.5 34.5t35.5 14.5h262q20 0 35 -14.5t15 -34.5v-264h1z" />
</svg>