<svg viewBox="0 0 256 256" xmlns="http://www.w3.org/2000/svg">
  <path transform="scale(1, -1) translate(0, -256)" fill="currentColor" d="M128 244q-31 0 -58 -15.5t-42.5 -42.5t-15.5 -58t15.5 -58t42.5 -42.5t58 -15.5t58 15.5t42.5 42.5t15.5 58t-15.5 58t-42.5 42.5t-58 15.5zM128 26q-28 0 -51.5 13.5t-37 37t-13.5 51.5t13.5 51.5t37 37t51.5 13.5t51.5 -13.5t37 -37t13.5 -51.5t-13.5 -51.5t-37 -37 t-51.5 -13.5zM169 188h-39q-9 0 -15.5 -6.5t-6.5 -15.5v-15h-21q-9 0 -15.5 -6.5t-6.5 -15.5v-39q0 -9 6.5 -15.5t15.5 -6.5h39q9 0 15.5 6.5t6.5 15.5v15h21q9 0 15.5 6t6.5 15v40q0 9 -6.5 15.5t-15.5 6.5zM134 90q0 -3 -2 -5.5t-6 -2.5h-39q-3 0 -5.5 2.5t-2.5 5.5v40 q0 3 2.5 5t5.5 2h21v-10q0 -9 6.5 -15.5t15.5 -6.5h4v-15zM134 119h-4q-3 0 -5.5 2.5t-2.5 5.5v10h4q3 0 5.5 -2t2.5 -5v-11zM177 126q0 -3 -2.5 -5t-5.5 -2h-21v10q0 9 -6.5 15.5t-15.5 6.5h-4v15q0 3 2 5.5t6 2.5h39q3 0 5.5 -2.5t2.5 -5.5v-40z" />
</svg>