<svg viewBox="0 0 1024 1024" xmlns="http://www.w3.org/2000/svg">
  <path transform="scale(1, -1) translate(0, -960)" fill="currentColor" d="M934 718h-153v72q0 27 -19 45.5t-45 18.5h-410q-26 0 -45 -18.5t-19 -45.5v-72h-131q-32 0 -56 -23t-24 -57v-14q0 -67 48 -115t115 -48h48q3 -41 20 -77q17 -35 44.5 -61.5t64.5 -41.5q36 -15 78 -15h46v-183q0 -2 1 -3.5t1 -4.5h-101q-7 0 -11.5 -4.5t-4.5 -11.5 t4.5 -11.5t11.5 -4.5h230q7 0 11.5 4.5t4.5 11.5t-4.5 11.5t-11.5 4.5h-101q2 1 2 3.5v4.5v181h45q41 0 78 15q36 15 64 41.5t45 62.5q17 35 19 76h48q69 0 117 48.5t48 116.5v37q0 23 -17 40t-41 17zM275 789q0 13 9.5 22.5t22.5 9.5h408q13 0 22.5 -9.5t9.5 -22.5v-72 h-472v72v0zM64 624v14q0 20 14 34t34 14h133v-193h-48q-55 -1 -94 37.5t-39 93.5zM573 296h-122q-72 0 -123 51t-51 123v216h472v-214q0 -73 -51.5 -124.5t-124.5 -51.5zM960 624q0 -54 -38.5 -92.5t-92.5 -38.5h-48v193h153q11 0 18.5 -7t7.5 -18v-37zM530 618q-4 2 -7.5 2 t-7.5 -1l-62 -21q-6 -2 -9 -7.5t-1 -12.5q3 -6 8.5 -9t12.5 -1l40 14v-150q0 -7 4.5 -11.5t11.5 -4.5t11.5 4.5t4.5 11.5v173q0 3 -2 6.5t-4 6.5z" />
</svg>