<svg viewBox="0 0 1024 1024" xmlns="http://www.w3.org/2000/svg">
  <path transform="scale(1, -1) translate(0, -960)" fill="currentColor" d="M901 547h-66v336h101q7 0 11.5 4.5t4.5 11.5t-4.5 11.5t-11.5 4.5h-117h-2.5t-3.5 -1l-1 -0.5t-1 -1.5h-0.5t-0.5 -2l-706 -553q-5 -4 -6 -11t3 -12q2 -3 5.5 -4.5t7.5 -1.5q2 0 4.5 1t4.5 2l162 128v-233v-3t1 -2h-51q-7 0 -11.5 -4.5t-4.5 -11.5v-194h-171 q-7 0 -11.5 -4.5t-4.5 -11.5t4.5 -11.5t11.5 -4.5h853q37 0 64 27t27 64v384q0 39 -27 66t-64 27v0zM717 547q-7 0 -11.5 -4.5t-4.5 -11.5v-163h-125v320l227 179v-320h-86v0zM318 226v259l226 177v-294h-66q-7 0 -11.5 -4.5t-4.5 -11.5v-130h-145l0.5 1t0.5 3zM960 72 q0 -24 -17.5 -41.5t-41.5 -17.5h-648v176h227q7 0 11.5 4.5t4.5 11.5v131h222q8 0 12 4.5t4 11.5v163h168q24 0 42 -17.5t18 -41.5v-384h-2z" />
</svg>