<svg viewBox="0 0 256 256" xmlns="http://www.w3.org/2000/svg">
  <path transform="scale(1, -1) translate(0, -256)" fill="currentColor" d="M225 156h-13v78h22q3 0 5 2t2 5t-2 5t-5 2h-30h-2l-1 -1l-177 -139q-2 -2 -2.5 -5t1.5 -5.5t5 -2.5t5 1l35 28v-50h-9q-3 0 -5 -2t-2 -5v-45h-40q-3 0 -5 -2.5t-2 -5.5t2 -4.5t5 -1.5h213q11 0 18.5 7.5t7.5 18.5v96q0 11 -7.5 18.5t-18.5 7.5zM179 156q-3 0 -5 -2.5 t-2 -5.5v-38h-25v76l51 40v-70h-19zM82 136l51 40v-65h-13q-3 0 -5.5 -2t-2.5 -5v-30h-30v62zM237 34q0 -5 -3.5 -8.5t-8.5 -3.5h-159v38h54q3 0 5 2.5t2 5.5v29h52q3 0 5 2t2 5v38h39q5 0 8.5 -3.5t3.5 -8.5v-96z" />
</svg>