<svg viewBox="0 0 256 256" xmlns="http://www.w3.org/2000/svg">
  <path transform="scale(1, -1) translate(0, -256)" fill="currentColor" d="M228 237h-44q-7 0 -11 -3l-165 -128q-3 -2 -3 -5t1.5 -5.5t4.5 -2.5t5 1l16 12v-34h-9q-5 -3 -5 -7v-23q0 -9 7 -16t17 -7h186q10 0 16.5 7t6.5 16v172q0 10 -7 16.5t-16 6.5zM237 214v-30h-35v39h26q4 0 6.5 -2.5t2.5 -6.5zM181 222q2 1 3 1h4v-39h-8q-3 0 -5 -2t-2 -5 v-31h-25v51zM127 146q-3 0 -5 -2t-2 -5v-30h-23v48l37 29v-40h-7zM46 117l37 29v-37h-9q-3 0 -5 -2t-2 -5v-30h-21v45zM164 33v57q0 2 1.5 3.5t3.5 1.5h23q2 0 3.5 -1.5t1.5 -3.5v-22h-2q-3 0 -5 -2.5t-2 -5.5t2 -5t5 -2h2v-21h-33v1zM228 33h-17v57q0 8 -5.5 13.5 t-13.5 5.5h-23q-8 0 -13.5 -5.5t-5.5 -13.5v-57h-108q-4 0 -7 2.5t-3 6.5v16h42q3 0 5 2t2 5v30h46q3 0 5 2t2 5v30h46q3 0 5 2t2 5v32h50v-129q0 -4 -2.5 -6.5t-6.5 -2.5z" />
</svg>