<svg viewBox="0 0 256 256" xmlns="http://www.w3.org/2000/svg">
  <path transform="scale(1, -1) translate(0, -256)" fill="currentColor" d="M186 113h-33l5 104q1 14 -8 24t-22 10t-22 -9.5t-8 -24.5l5 -104h-33q-18 0 -31 -14t-13 -34v-19q0 -4 3 -7t7 -3h1v-14q0 -7 5 -12t12 -5h148q7 0 12.5 5t5.5 12v14h1q4 0 6.5 3t2.5 7v19q0 20 -13 34t-31 14zM111 217q0 9 5 14.5t11.5 5.5t12 -5.5t4.5 -13.5l-5 -105 h-23zM40 65q0 14 9 24t21 10h116q12 0 21 -10t9 -24v-15h-176v15zM205 22q0 -1 -1 -2t-2 -1h-148q-1 0 -2 1t-1 2v14h155v-14h-1z" />
</svg>