<svg viewBox="0 0 1024 1024" xmlns="http://www.w3.org/2000/svg">
  <path transform="scale(1, -1) translate(0, -960)" fill="currentColor" d="M744 378h-144l21 427q1 25 -8 48t-26 41q-14 17 -33.5 25.5t-41.5 8.5t-41.5 -8.5t-35.5 -25.5q-17 -18 -26 -42t-7 -49l20 -427h-142q-67 0 -115 -52.5t-48 -126.5v-77q0 -11 7.5 -18.5t17.5 -7.5h16v-67q0 -24 17 -40.5t41 -16.5h590q24 0 41 16.5t17 40.5v67h18 q10 0 17.5 7.5t7.5 18.5v77q0 74 -48 127.5t-115 53.5v0zM458 872q10 12 24 18t30 6t29 -6t25 -18q12 -13 19 -30.5t5 -35.5l-20 -428h-114l-22 427q-2 19 5 36.5t19 30.5zM834 26q0 -11 -7.5 -18.5t-18.5 -7.5h-590q-11 0 -18.5 7.5t-7.5 18.5v67h643v-67h-1zM875 126h-726 v72q0 62 38.5 105t92.5 43h464q54 0 92.5 -43t38.5 -105v-72v0z" />
</svg>