<svg viewBox="0 0 256 256" xmlns="http://www.w3.org/2000/svg">
  <path transform="scale(1, -1) translate(0, -256)" fill="currentColor" d="M62 5q-5 0 -9 3t-6 7.5t-1 8.5l11 68l-47 49q-3 3 -4 8t0 9q3 9 13 11l65 11l29 62q2 4 6 6.5t9 2.5q9 0 14 -9l30 -62l65 -10q5 -1 8 -4t4.5 -7.5t0.5 -9t-4 -8.5l-47 -48l11 -69q1 -4 -1 -8.5t-5.5 -7.5t-8 -3t-9.5 2l-58 32l-58 -32q-4 -2 -8 -2zM20 150l48 -49 q4 -4 3 -10l-11 -69q0 -1 1 -3v0q1 -1 2 0l60 33q5 3 10 0l61 -32h1q1 1 1 2l-11 70q0 6 3 10l48 49q1 1 1 3l-1 1l-1 1l-67 10q-5 1 -8 6l-30 64q0 1 -1.5 1t-2.5 -1l-30 -64q-3 -5 -8 -6l-67 -11q-1 0 -1 -1l-1 -2q0 -1 1 -2zM126 40z" />
</svg>