<svg viewBox="0 0 1024 1024" xmlns="http://www.w3.org/2000/svg">
  <path transform="scale(1, -1) translate(0, -960)" fill="currentColor" d="M512 840l8 -14l29 14l-23 42q-2 3 -5.5 5.5t-8.5 2.5t-8.5 -2.5t-5.5 -5.5l-23 -42l29 -14zM553 760l29 14l49 -99l-28 -14zM648 643l-29 -14l23 -42q2 -3 5 -5.5t7 -2.5l48 -6l5 32l-40 3l-19 35v0zM777 562l4 31l112 -15l-4 -32zM992 554q-1 4 -4.5 7t-8.5 4l-48 8 l-5 -32l16 -2l-12 -11l22 -24l35 32q4 4 5 8.5t0 9.5v0zM796 401l80 76l22 -24l-80 -75l-22 23v0zM762 323l28 29l-22 22l-35 -33q-3 -3 -4 -7t-1 -8l8 -46l32 5l-6 38v0zM749 207l31 6l20 -109l-31 -5zM806 70l-32 -6l4 -14l-15 8l-14 -29l43 -23q1 -1 3.5 -1h4.5t4.5 1 t5.5 2q3 2 5 6.5t1 9.5l-10 46v0zM581 113l15 28l100 -51l-15 -28zM504 181l-43 -23l14 -28l35 17l37 -19l15 29l-44 22q-2 4 -6 3.5t-8 -1.5v0zM295 74l100 50l14 -28l-100 -51zM246 50l4 14l-32 5l-8 -47q-2 -4 0 -8.5t6 -7.5q2 -1 4.5 -2t5.5 -1q2 0 3.5 0.5l4.5 1.5 l43 22l-15 29l-16 -6v0zM230 142l19 108l31 -6l-18 -107zM291 341l-35 33l-21 -22l29 -27l-8 -39l32 -6l8 46q1 4 0 8t-5 7zM100 478l21 23l81 -75l-22 -24l-80 76v0zM99 541l-5 32l-49 -8q-5 -1 -8.5 -4t-4.5 -7q-1 -5 0 -9.5t5 -6.5l37 -32l20 22l-11 10l16 3v0zM170 582 l110 16l5 -32l-111 -15l-4 31v0zM371 578q4 0 7.5 2t5.5 6l22 41l-28 15l-20 -34l-41 -5l5 -32l49 7v0zM410 709l50 98l29 -14l-50 -99z" />
</svg>