<svg viewBox="0 0 1024 1024" xmlns="http://www.w3.org/2000/svg">
  <path transform="scale(1, -1) translate(0, -960)" fill="currentColor" d="M845 446l77 132q12 20 12 43t-12 43t-32 31.5t-44 11.5h-156l-104 178q-12 20 -32.5 31.5t-43.5 11.5v0v0q-22 0 -42.5 -11.5t-32.5 -31.5l-104 -176h-153q-24 0 -44 -11.5t-32 -31.5q-12 -21 -12 -44.5t12 -43.5l76 -128l-77 -132q-12 -20 -12 -43t12 -43t31.5 -31.5 t43.5 -11.5h157l104 -178q12 -20 31.5 -31.5t43.5 -11.5v0v0q23 0 43 11.5t32 31.5l104 176h154q24 0 43.5 11.5t31.5 31.5q12 21 12 44.5t-12 43.5zM846 677q15 0 28 -7t20 -20q8 -14 8 -28.5t-8 -26.5v0l-67 -115l-117 198h136v-1zM806 446l-132 -227h-322l-136 229 l133 227h323l134 -229v0zM462 869q8 13 20.5 20t27.5 7v0v0q15 0 27.5 -7t20.5 -20l95 -160h-283zM131 594q-7 13 -7 27.5t7 26.5q7 13 20 20t28 7h135l-116 -195l-67 114v0zM178 219q-15 0 -28 7t-20 20q-8 14 -8 28.5t8 26.5l67 115l117 -198h-136v1zM562 27 q-8 -13 -20.5 -20t-27.5 -7v0v0q-15 0 -27.5 7t-20.5 20l-95 160h283l-92 -160v0zM893 248q-7 -13 -20 -20t-28 -7h-135l116 195l67 -114q7 -13 7 -27.5t-7 -26.5v0z" />
</svg>