<svg viewBox="0 0 1024 1024" xmlns="http://www.w3.org/2000/svg">
  <path transform="scale(1, -1) translate(0, -960)" fill="currentColor" d="M714 448l59 101v0v0q5 8 5 18.5t-5 19.5t-14 14t-20 5h-120l-75 128q-5 9 -13.5 14.5t-18.5 5.5v0v0q-11 0 -19 -5t-13 -15l-75 -128h-120q-11 0 -19.5 -4.5t-14.5 -14.5q-6 -9 -5.5 -19t5.5 -19l59 -101l-59 -101q-5 -8 -5 -18.5t5 -19.5q5 -10 14 -14.5t20 -4.5h120 l75 -128q5 -9 13.5 -14.5t18.5 -5.5v0v0q11 0 19 5t13 15l75 128h120q11 0 19.5 4.5t14.5 14.5q5 9 5 19t-5 19l-59 101v0zM741 574q2 0 3.5 -1t1.5 -2t0.5 -2.5t-0.5 -3.5l-52 -85l-56 96h103v-2zM677 448l-74 -126h-181l-75 126l74 126h179zM506 718q1 3 2 2.5t2 1.5 q2 0 3 -0.5t2 -3.5l66 -112h-143l68 112v0zM278 565q-1 2 -0.5 3.5t0.5 2.5t1.5 2t3.5 1h101l-54 -94l-52 85v0zM283 322q-2 0 -3.5 1t-1.5 2t-0.5 2.5t0.5 3.5l52 87l56 -96h-103v0zM518 178q-1 -3 -2 -3.5t-2 -0.5v0v0q-2 0 -3 0.5t-2 3.5l-66 112h143zM746 325 q0 -1 -1.5 -2t-3.5 -1h-101l56 94l51 -86q0 -2 -0.5 -3t-0.5 -2v0zM512 928q-99 0 -186 -38q-88 -38 -153 -103t-103 -153q-38 -87 -38 -186t38 -186q38 -88 103 -153t153 -103q87 -38 186 -38t186 38q88 38 153 103t103 153q38 87 38 186t-38 186q-38 88 -103 153t-153 103 q-87 38 -186 38zM512 0q-92 0 -174 35q-81 36 -142 97t-97 142q-35 82 -35 174t35 174q36 81 96.5 142t142.5 97q82 35 174 35t174 -35q81 -36 142 -96.5t97 -142.5q35 -82 35 -174t-35 -174q-36 -81 -96.5 -142t-142.5 -97q-82 -35 -174 -35z" />
</svg>