<svg viewBox="0 0 256 256" xmlns="http://www.w3.org/2000/svg">
  <path transform="scale(1, -1) translate(0, -256)" fill="currentColor" d="M183 163l-19 1l-7 17l-13 -5l10 -26l28 -1zM251 155q-1 3 -3 4.5t-5 1.5l-25 1v-14h9l-21 -16l8 -11l29 21l-4 6l4 -6l5 4q4 3 3 9zM177 78l14 4l-5 17l14 11l-8 12l-22 -18zM200 49l-13 -4l2 -9l-23 15l-7 -12l35 -22q2 -1 4.5 -1t5.5 1q4 3 3 9zM104 60l-37 -24l20 68 l-58 44l73 2l26 67l4 -10l13 5l-9 23q-1 3 -3 4.5t-5 1.5q-6 0 -8 -6l-28 -71l-79 -3q-2 0 -4.5 -1.5t-3.5 -4.5t0 -5.5t3 -3.5l62 -47l-21 -72q-1 -3 0 -5.5t3.5 -4t5 -1.5t4.5 1l66 42l16 -10l8 12l-24 15z" />
</svg>