<svg viewBox="0 0 256 256" xmlns="http://www.w3.org/2000/svg">
  <path transform="scale(1, -1) translate(0, -256)" fill="currentColor" d="M182 128l14 24q2 3 2 6.5t-2 5.5q-4 7 -11 7h-28l-18 30q-4 6 -11 6t-11 -6l-18 -30h-28q-4 0 -7 -2t-4 -5q-4 -6 0 -12l14 -24l-14 -24q-2 -3 -2 -6t2 -6q4 -6 11 -6h28l18 -31q4 -6 11 -6t11 6l18 31h28q4 0 7 1.5t4 4.5q3 7 0 12zM182 157l-8 -15l-9 15h17zM166 128 l-17 -28h-42l-17 28l17 28h42zM128 192l12 -21h-25zM74 157h17l-9 -15zM74 99l8 15l9 -15h-17zM128 64l-12 21h25zM165 99l9 15l9 -15h-18zM128 251q-33 0 -61.5 -16.5t-45 -45t-16.5 -61.5t16.5 -61.5t45 -45t61.5 -16.5t61.5 16.5t45 45t16.5 61.5t-16.5 61.5t-45 45 t-61.5 16.5zM128 19q-30 0 -55 14.5t-39.5 39.5t-14.5 55t14.5 55t39.5 39.5t55 14.5t55 -14.5t39.5 -39.5t14.5 -55t-14.5 -55t-39.5 -39.5t-55 -14.5z" />
</svg>