<svg viewBox="0 0 256 256" xmlns="http://www.w3.org/2000/svg">
  <path transform="scale(1, -1) translate(0, -256)" fill="currentColor" d="M244 132q5 5 6.5 12.5t-1 14.5t-8 12t-13.5 6l-45 9q-7 1 -9 6l-22 40q-4 7 -10 11t-14 4t-14 -4t-10 -11l-22 -40q-3 -5 -9 -6l-45 -9q-8 -1 -13.5 -6t-8 -12t-1 -14.5t6.5 -12.5l32 -34q4 -4 3 -11l-5 -47q-1 -7 1.5 -14t8.5 -11.5t13.5 -5.5t13.5 2l44 18q5 2 10 0 l44 -18q6 -2 11 -2q9 0 16 6q12 9 11 25l-6 47q0 7 4 11zM202 108q-8 -9 -7 -22l5 -48q1 -7 -5 -12t-13 -2l-44 18q-5 2 -10 2t-11 -2l-44 -18q-6 -3 -12.5 1.5t-5.5 12.5l5 48q2 13 -7 22l-31 33q-2 3 -3 6.5t0 6.5q3 8 11 9l45 9q13 2 19 14l22 40q4 7 12 7q3 0 6.5 -2 t4.5 -5l22 -40q6 -12 19 -14l46 -9q3 0 6 -2.5t4 -6.5q2 -7 -3 -13zM121 146h31q3 0 5 2.5t2 5.5t-2 5t-5 2h-12v7q0 3 -2 5t-5 2t-5 -2t-2 -5v-7h-5q-10 0 -16.5 -7t-6.5 -16.5t6.5 -16.5t16.5 -7h14q4 0 6.5 -2.5t2.5 -6.5t-2.5 -6.5t-6.5 -2.5h-31q-3 0 -5 -2t-2 -5t2 -5 t5 -2h21v-7q0 -3 2 -5t5 -2t5.5 2t2.5 5v7q8 2 13 8t5 15t-6.5 16t-16.5 7h-14q-4 0 -6.5 2.5t-2.5 6.5t2.5 6.5t6.5 2.5z" />
</svg>