<svg viewBox="0 0 256 256" xmlns="http://www.w3.org/2000/svg">
  <path transform="scale(1, -1) translate(0, -256)" fill="currentColor" d="M127 222h1l1 -1v1l11 6l-6 10q-2 4 -6.5 4t-6.5 -4l-5 -10zM148 211l-12 -6l12 -25l13 7zM165 179l-13 -7l6 -10q2 -4 5 -4l12 -2l2 14l-8 2zM195 167l-2 -14l29 -4l2 14zM251 155q-2 5 -6 5l-12 2l-1 -11l-1 -1l1 -1v-1h1l8 -8l9 8q2 4 1 7zM217 137l-20 -18l9 -11 l21 19zM194 96l6 6l-10 10l-9 -8q-2 -3 -2 -6l2 -12l14 3zM198 70l-14 -2l5 -27l14 2zM204 34l-10 -2l-2 1l-1 -1h-1v-1l-5 -10l12 -6h2q2 0 4 1q4 3 3 7zM151 54l-7 -12l25 -13l7 13zM125 64l-11 -6l6 -12l8 4l8 -4l6 12l-11 6q-3 1 -6 0zM97 50l-25 -13l7 -12l25 13z M65 32h-1v1l-2 -1l-10 2l-2 -12q-1 -4 1.5 -6t4.5 -2t4 1l10 5l-5 10v2zM59 79l-4 -27l14 -2l4 27zM56 102l6 -6l-1 -8l13 -2l2 11q1 4 -2 7l-8 8zM32 144l-9 -10l20 -19l10 10zM25 148v1l1 1l-1 1l-2 11l-12 -2q-4 0 -5.5 -4.5t1.5 -7.5l9 -8l8 8h1zM70 169l-28 -4l2 -14 l28 4zM88 171l-9 -1l1 -14l13 1q4 1 5 4l6 11l-12 6zM112 220l-12 -25l12 -6l13 24z" />
</svg>