<svg viewBox="0 0 256 256" xmlns="http://www.w3.org/2000/svg">
  <path transform="scale(1, -1) translate(0, -256)" fill="currentColor" d="M214 128l19 31q3 6 3 12.5t-3.5 12t-9 9t-12.5 3.5h-37l-25 43q-3 5 -9 8.5t-12.5 3.5t-12 -3.5t-9.5 -9.5l-25 -42h-36q-7 0 -13 -3.5t-9 -9t-3 -12t3 -12.5l18 -31l-18 -31q-3 -5 -3 -12t3 -12.5t9 -9t12 -3.5h38l25 -43q3 -5 8.5 -8.5t12.5 -3.5t12.5 3.5t8.5 9.5 l26 42h36q7 0 13 3.5t9 9t3 12t-3 12.5zM212 182q6 0 9 -5t0 -11l-15 -24l-24 40h30zM198 128l-31 -54h-77l-32 54l32 54h76zM118 232q4 5 10 5t9 -5l21 -36h-60zM36 166q-4 5 -0.5 10.5t9.5 5.5h28l-23 -40zM44 74q-6 0 -9 5t0 11l15 24l24 -40h-30zM138 24q-4 -5 -10 -5 t-9 5l-21 36h60zM221 79q-4 -5 -9 -5h-29l24 40l14 -24q2 -5 0 -11z" />
</svg>