<svg viewBox="0 0 1024 1024" xmlns="http://www.w3.org/2000/svg">
  <path transform="scale(1, -1) translate(0, -960)" fill="currentColor" d="M966 470q18 21 24 46.5t-3 51.5q-8 25 -28.5 43t-46.5 23l-182 33q-15 3 -27.5 12t-19.5 22l-86 160q-13 24 -36 37.5t-51 13.5v0v0q-27 0 -50 -13.5t-36 -37.5l-86 -160q-8 -13 -19.5 -22t-27.5 -12l-179 -35q-26 -5 -46.5 -22t-28.5 -44q-9 -25 -3 -51t24 -46l124 -135 q10 -10 14.5 -24t3.5 -28l-22 -189q-4 -27 6 -50.5t32 -39.5q20 -15 46 -18.5t50 5.5l176 72q12 5 25 5t25 -5l176 -72q9 -3 18 -5.5t18 -2.5q16 0 31 5t29 16q20 16 30 39.5t8 50.5l-22 189q-2 14 2 28t15 24l123 136v0zM818 357q-15 -16 -21.5 -36.5t-4.5 -42.5l22 -188 q3 -18 -4 -34t-21 -26q-15 -10 -32 -12.5t-32 4.5l-176 72q-9 4 -18 6t-19 2t-19 -2t-18 -6l-176 -72q-17 -7 -34 -4.5t-30 12.5q-14 11 -21 27t-4 33l22 188q2 22 -4.5 42.5t-21.5 36.5l-124 134q-12 13 -16.5 30.5t1.5 35.5q6 17 19.5 29t31.5 14l183 34q21 3 39.5 16.5 t29.5 32.5l86 160q8 17 24 26t34 9t33.5 -9t23.5 -26l87 -160q10 -19 28 -32.5t40 -16.5l183 -34q18 -4 31.5 -15t19.5 -28t2 -35t-16 -31l-128 -134v0zM485 534h121q8 0 12 4.5t4 11.5q0 8 -4 12t-12 4h-59v40q0 8 -4.5 12t-11.5 4t-11.5 -4t-4.5 -12v-40h-30 q-34 0 -58 -23.5t-24 -56.5t24 -56.5t58 -23.5h56q20 0 34.5 -14t14.5 -34q0 -19 -14.5 -33.5t-34.5 -14.5h-122q-7 0 -11.5 -4t-4.5 -12q0 -7 4.5 -11.5t11.5 -4.5h96v-40q0 -7 4.5 -11.5t11.5 -4.5t11.5 4.5t4.5 11.5v40q31 3 53 26t22 54q0 34 -24 57t-57 23h-56 q-21 0 -35.5 14.5t-14.5 33.5q0 20 14.5 34t35.5 14v0z" />
</svg>