<svg viewBox="0 0 1024 1024" xmlns="http://www.w3.org/2000/svg">
  <path transform="scale(1, -1) translate(0, -960)" fill="currentColor" d="M989 566q-5 15 -16 25t-26 12l-267 42l-120 253q-7 14 -19.5 22t-28.5 8v0v0q-16 0 -28 -8t-18 -22l-120 -255l-269 -43q-15 -2 -26 -12t-16 -25q-5 -14 -1.5 -29.5t14.5 -26.5l194 -198l-45 -277q-3 -16 3 -30.5t19 -23.5q7 -5 14.5 -7.5t14.5 -2.5q6 0 12.5 1.5 t11.5 4.5l240 132l238 -130q14 -7 28.5 -6t26.5 9q13 10 19 24.5t3 30.5l-45 278l194 198q11 11 14.5 26.5t-1.5 29.5v0zM952 533l-192 -199q-5 -4 -7 -12t-1 -15l45 -278q1 -9 -2 -14.5t-8 -8.5q-2 -1 -7.5 -3t-13.5 2l-240 129q-7 4 -14 4t-14 -4l-240 -131 q-8 -3 -13.5 -2t-7.5 4q-4 2 -7.5 8.5t-2.5 13.5l47 277q1 7 -1.5 14.5t-6.5 12.5l-194 199q-6 6 -7 12.5t1 11.5q2 6 6 9.5t10 4.5l268 43q8 1 14 6t9 12l120 254q3 6 8 9.5t11 3.5v0v0q6 0 10.5 -3.5t7.5 -9.5l120 -254q3 -7 9 -12t13 -6l267 -41q6 -2 10.5 -5.5t5.5 -9.5 q4 -3 3.5 -10t-6.5 -12v0z" />
</svg>