<svg viewBox="0 0 1024 1024" xmlns="http://www.w3.org/2000/svg">
  <path transform="scale(1, -1) translate(0, -960)" fill="currentColor" d="M731 578l-86 3l-29 77l-30 -13l38 -96l106 -3zM990 552q-2 7 -7.5 11.5t-12.5 4.5l-98 3l-2 -32l71 -3l-109 -82l19 -25l114 86l19 15q5 3 7 9.5t-1 12.5v0zM720 250l32 9l-24 77l67 51l-19 26l-85 -64zM790 128l-30 -10l19 -65l-118 75l-18 -27l117 -75l24 -15 q2 -2 5.5 -2.5t7.5 -0.5q3 0 6.5 1t6.5 4q2 2 6 9.5t2 14.5l-28 91v0zM424 168v0l-178 -114l87 295l-251 189l318 11l96 249l16 39l26 -67l30 11l-35 89q-3 8 -8.5 12t-12.5 4t-12.5 -4t-8.5 -10l-33 -88l-79 -203l-326 -13q-7 0 -13 -4.5t-8 -11.5t0 -13.5t8 -10.5 l254 -192l-86 -298q-2 -7 0 -13t8 -11q4 -2 6.5 -3t6.5 -1q3 0 6 1t7 2l222 142l48 31l72 -45l18 27l-90 56l-88 -56v0z" />
</svg>