<svg viewBox="0 0 256 256" xmlns="http://www.w3.org/2000/svg">
  <path transform="scale(1, -1) translate(0, -256)" fill="currentColor" d="M106 78h45q3 0 5 2t2 5t-2 5t-5 2h-45q-3 0 -5 -2t-2 -5t2 -5t5 -2zM183 56h-77q-3 0 -5 -2t-2 -5t2 -5t5 -2h77q3 0 5 2t2 5t-2 5t-5 2zM218 251h-139q-9 0 -14.5 -6t-5.5 -14v-155h-37q-3 0 -5.5 -2t-2.5 -5v-41q0 -9 7 -16t16 -7h181q9 0 16 7t7 17v198q0 10 -6.5 17 t-16.5 7zM45 19h-8q-3 0 -6 2.5t-3 6.5v34h30v-34q0 -4 -2.5 -6.5t-5.5 -2.5h-5zM228 29q0 -4 -3 -7t-7 -3h-147q1 4 1 9v203q0 2 2 4t4 2h139q4 0 7 -3t3 -7v-198h1zM190 175l-21 -10l-27 14q-3 1 -6 0l-23 -10v33q0 3 -2 5t-5 2t-5 -2t-2 -5v-83q0 -3 2 -5t5 -2h82 q3 0 5.5 2t2.5 5t-2.5 5t-5.5 2h-75v28h1l24 11l28 -14q1 -1 2.5 -1t3.5 1l24 11q2 2 3 4.5t0 5t-3.5 3.5t-5.5 0z" />
</svg>