<svg viewBox="0 0 1024 1024" xmlns="http://www.w3.org/2000/svg">
  <path transform="scale(1, -1) translate(0, -960)" fill="currentColor" d="M424 259h179q7 0 11.5 4.5t4.5 11.5t-4.5 11.5t-11.5 4.5h-179q-7 0 -11.5 -4.5t-4.5 -11.5t5 -11.5t11 -4.5v0zM731 147h-307q-7 0 -11.5 -4.5t-4.5 -11.5t4.5 -11.5t11.5 -4.5h307q7 0 11.5 4.5t4.5 11.5t-5 11.5t-11 4.5zM870 928h-555q-29 0 -49 -20t-20 -49v-630 h-160q-7 0 -11.5 -4.5t-4.5 -11.5v-165q0 -32 23.5 -56t56.5 -24h722q35 0 59 24t24 59v794q-1 35 -25.5 59t-59.5 24v0zM181 0h-32q-19 0 -33.5 14t-14.5 34v150h144v-150q0 -19 -14 -33.5t-34 -14.5h-16zM922 51q0 -21 -15 -36t-37 -15h-608q8 10 12 22t4 26v811 q0 16 11 26.5t26 10.5h555q22 0 37 -15t15 -36v-794v0zM766 626l-89 -42l-117 56q-4 1 -7 1t-6 -1l-105 -48v150q0 8 -4.5 12t-11.5 4q-8 0 -12 -4t-4 -12v-331q0 -7 4 -11.5t12 -4.5h329q7 0 11.5 4.5t4.5 11.5t-4.5 11.5t-11.5 4.5h-315v135q2 -2 5.5 -2t5.5 2l101 46 l117 -56q1 -1 3 -1.5t3 -0.5t3 0.5t4 1.5l96 45q6 2 8 8.5t0 12.5t-8 8t-12 0v0z" />
</svg>