<svg viewBox="0 0 1024 1024" xmlns="http://www.w3.org/2000/svg">
  <path transform="scale(1, -1) translate(0, -960)" fill="currentColor" d="M976 0h-877q-14 0 -24.5 10.5t-10.5 24.5v877q0 7 -4.5 11.5t-11.5 4.5t-11.5 -4.5t-4.5 -11.5v-877q0 -27 20 -47t47 -20h877q7 0 11.5 4.5t4.5 11.5t-4.5 11.5t-11.5 4.5zM955 590h-190q-7 0 -11.5 -4t-4.5 -12q0 -7 4.5 -11.5t11.5 -4.5h169l-136 -118h-225 q-4 0 -7.5 -1.5t-5.5 -4.5l-125 -162h-200q-7 0 -11.5 -4.5t-4.5 -11.5t4.5 -11.5t11.5 -4.5h208q4 0 7.5 1.5t5.5 4.5l125 164h224q2 0 5.5 1t5.5 2l146 126v-174q0 -7 4 -11.5t12 -4.5q7 0 11.5 4.5t4.5 11.5v189q-2 15 -12.5 25.5t-26.5 10.5v0z" />
</svg>