<svg viewBox="0 0 1024 1024" xmlns="http://www.w3.org/2000/svg">
  <path transform="scale(1, -1) translate(0, -960)" fill="currentColor" d="M976 0h-877q-14 0 -24.5 10.5t-10.5 24.5v877q0 7 -4.5 11.5t-11.5 4.5t-11.5 -4.5t-4.5 -11.5v-877q0 -27 20 -47t47 -20h877q7 0 11.5 4.5t4.5 11.5t-4.5 11.5t-11.5 4.5zM976 483q-7 0 -11.5 -4.5t-4.5 -11.5v-169l-146 121q-2 1 -4.5 2t-4.5 1h-224l-125 164 q-2 2 -5.5 4t-7.5 2h-208q-7 0 -11.5 -4.5t-4.5 -11.5t4.5 -11.5t11.5 -4.5h200l125 -163q2 -3 5.5 -5t7.5 -2h225l143 -118h-176q-7 0 -11.5 -4.5t-4.5 -11.5t4.5 -11.5t11.5 -4.5h190q16 0 26.5 10.5t10.5 26.5v190q0 6 -4.5 11t-11.5 5v0z" />
</svg>