<svg viewBox="0 0 256 256" xmlns="http://www.w3.org/2000/svg">
  <path transform="scale(1, -1) translate(0, -256)" fill="currentColor" d="M139 106l-12 18q-2 2 -4.5 2.5t-5 -1t-3 -4.5t1.5 -5l30 -43q2 -3 5 -3t5 1.5t2.5 4t-1.5 5.5l-9 13l42 13q3 1 4 3.5t0.5 5t-3 4t-5.5 0.5zM244 237l-48 1q-7 0 -12.5 -5t-6.5 -12l-9 -56q-6 -1 -11 -2l-17 -5q-46 -12 -64 -16l-18 -5l-16 59h58q3 0 5 2t2 5t-2 5t-5 2 h-62l-5 20q0 2 -3 3.5t-5.5 1t-4 -3t-0.5 -5.5l24 -94q-2 0 -3 -1q-16 -9 -21 -25q-4 -13 -1 -23q5 -16 16 -24q8 -7 19 -9v-18h-42q-3 0 -5 -2t-2 -5t2 -5t5 -2h203q3 0 5 2.5t2 5.5t-2 5t-5 2h-38v17q6 1 9 2q17 6 27.5 17t14 26t-1 30t-15.5 24q-13 12 -29 15l8 55 q1 2 2.5 3.5t3.5 1.5h48q3 0 5 2t2 4.5t-2 4.5t-5 2zM68 32v18h95v-18h-95zM214 97q-2 -11 -10.5 -19.5t-21.5 -12.5q-4 -1 -10 -1h-109q-6 -1 -13 2q-13 5 -18 20v7.5t3 11.5q4 8 13 14q5 2 31 9l85 22q4 1 9 0q16 0 28 -12q8 -7 11.5 -18.5t1.5 -22.5z" />
</svg>