<svg viewBox="0 0 1024 1024" xmlns="http://www.w3.org/2000/svg">
  <path transform="scale(1, -1) translate(0, -960)" fill="currentColor" d="M496 424q-4 6 -10 7t-12 -4q-6 -3 -7 -9.5t3 -12.5l122 -173q2 -4 5.5 -5t7.5 -1q2 0 4.5 1t4.5 2q6 3 7 9.5t-3 12.5l-47 66l184 56q6 2 9.5 7.5t1.5 11.5t-7.5 9t-11.5 2l-195 -59l-56 80v0zM976 874l-192 1v0v0q-25 0 -43.5 -16t-22.5 -40l-36 -235q-23 0 -36.5 -4 t-15.5 -4l-36 -10q-35 -9 -85.5 -23t-105.5 -28q-56 -15 -96 -25q-29 -8 -49.5 -13t-35.5 -10l-70 263h246q8 0 12 4t4 12q0 7 -4 11.5t-12 4.5h-254l-22 88q-3 7 -8.5 10t-11.5 1q-7 -1 -10.5 -6.5t-1.5 -12.5l99 -384q-10 -4 -14 -5.5t-5 -2.5q-84 -51 -83 -114.5t1 -65.5 v0q22 -73 66.5 -96t74.5 -27v-94h-181q-7 0 -11.5 -4.5t-4.5 -11.5t4.5 -11.5t11.5 -4.5h813q7 0 11.5 4.5t4.5 11.5t-4.5 11.5t-11.5 4.5h-167v94q12 0 24 2.5t23 5.5q63 19 103 61t54 99q12 57 -5 114t-58 93q-32 28 -64.5 41.5t-58.5 17.5l37 232q2 13 11.5 21t21.5 8 l192 -2v0v0q6 0 11 4.5t5 11.5q2 7 -2.5 12.5t-11.5 5.5v0zM261 53v94h401v-94h-401v0zM867 322q-11 -50 -45.5 -85t-88.5 -51q-11 -4 -23 -5.5t-24 -1.5h-432q-3 0 -56.5 8.5t-79.5 92.5q0 4 0.5 53t68.5 89q1 0 25 9t102 28q40 10 96 25q56 14 106.5 27.5t86.5 23.5t37 11 q1 0 56 5.5t120 -52.5q32 -30 47 -79.5t4 -97.5v0z" />
</svg>