<svg viewBox="0 0 1024 1024" xmlns="http://www.w3.org/2000/svg">
  <path transform="scale(1, -1) translate(0, -960)" fill="currentColor" d="M510 946q-97 0 -184 -36q-87 -35 -153.5 -97t-108.5 -145q-41 -84 -48 -180l266 -110q16 12 36 17t42 5h3.5h2.5l117 174v2v0q0 78 54.5 132.5t132.5 54.5t133.5 -54.5t55.5 -132.5t-54.5 -132.5t-132.5 -54.5h-1.5h-3.5l-169 -122v-3v-3q0 -58 -41.5 -100.5 t-101.5 -42.5q-50 0 -89.5 33t-47.5 79l-186 82q22 -78 68 -144q46 -67 109 -115.5t140 -76.5q77 -27 161 -27q103 0 194 40q90 39 157.5 106.5t107.5 158.5q39 91 39 194t-39 194q-40 90 -107.5 158t-157.5 107q-91 39 -194 39zM326 190l-60 24q8 -16 21.5 -30.5 t32.5 -20.5q38 -17 79.5 -1t58.5 57q8 21 8 41t-8 41q-9 20 -23.5 35.5t-32.5 23.5q-20 8 -39 8t-38 -6l62 -28q29 -13 42 -42.5t1 -57.5q-13 -30 -42.5 -42t-61.5 -2v0zM800 576q0 50 -37 88t-89 38q-51 0 -89 -36.5t-38 -89.5t38 -89.5t89 -36.5q50 0 88 37t38 89z M582 576q0 38 28 65.5t65 27.5q39 0 66 -28t27 -65q0 -38 -28 -65.5t-65 -27.5q-38 -1 -65.5 27t-27.5 66z" />
</svg>