<svg viewBox="0 0 1024 1024" xmlns="http://www.w3.org/2000/svg">
  <path transform="scale(1, -1) translate(0, -960)" fill="currentColor" d="M749 605h-67q-41 0 -76 19.5t-56 53.5q-28 47 -79 74.5t-108 26.5q-68 0 -129 -26q-60 -26 -105 -71t-71 -105q-26 -61 -26 -129q0 -67 27 -127q26 -61 71.5 -106t105.5 -72q60 -26 127 -26h386q50 0 94 19q45 19 78 52t52 77q19 45 19 95t-19 95t-52 78t-77 52 q-45 20 -95 20zM749 573q26 0 51 -6.5t46 -17.5l-180 -400h-189l200 424h2h3h67zM496 693l-99 -203q-4 40 -34.5 68t-71.5 28q-3 0 -6 -0.5t-7 -1.5l82 160h1.5h1.5h1.5h1.5q36 2 70.5 -12t59.5 -39zM291 555q31 0 53 -22t22 -53t-22 -53t-53 -22t-53 22t-22 53t22 53t53 22 v0zM322 744l-88 -173q-23 -14 -36.5 -38t-13.5 -51v-4.5v-3.5l-83 -167q-18 31 -27.5 67t-9.5 74q0 56 20 107q20 50 54.5 89.5t81.5 65.5t102 34zM122 275l76 152q14 -24 38.5 -39t54.5 -15q16 0 31 4.5t27 12.5l-104 -216q-37 17 -69 43t-54 58v0zM274 163l244 503l3 -3 t1 -2q20 -34 51 -55.5t69 -29.5l-200 -427h-79q-23 0 -45.5 3.5t-43.5 10.5v0zM749 149h-48l174 381q40 -29 63.5 -73.5t23.5 -96.5q-1 -43 -18 -82q-17 -38 -45.5 -67t-67.5 -45q-38 -17 -82 -17z" />
</svg>