<svg viewBox="0 0 256 256" xmlns="http://www.w3.org/2000/svg">
  <path transform="scale(1, -1) translate(0, -256)" fill="currentColor" d="M128 252q-32 0 -59.5 -15t-45 -41t-19.5 -58l66 -28q8 6 20 6h2l29 44q0 20 13.5 33.5t33 13.5t33.5 -14t14 -33t-14 -33t-33 -14h-1l-43 -30v-2q0 -14 -10 -24.5t-25 -10.5q-13 0 -22.5 8t-12.5 20l-46 20q7 -26 25 -46.5t42.5 -32.5t52.5 -12q33 0 61.5 17t45.5 45.5 t17 62.5t-17 62.5t-45.5 45t-61.5 16.5zM82 64l-16 6q5 -11 14.5 -14t19.5 1t14.5 14t0 20t-13.5 14.5t-20 0.5l16 -6q7 -4 10.5 -11t0 -14.5t-11 -10.5t-14.5 0zM200 160q0 13 -9.5 22.5t-22 9.5t-22 -9.5t-9.5 -22.5t9.5 -22.5t22 -9.5t22 9.5t9.5 22.5zM146 160 q0 10 6.5 16.5t16 6.5t16.5 -7t7 -16.5t-7 -16t-16.5 -6.5t-16 6.5t-6.5 16.5z" />
</svg>