<svg viewBox="0 0 256 256" xmlns="http://www.w3.org/2000/svg">
  <path transform="scale(1, -1) translate(0, -256)" fill="currentColor" d="M187 170h-17q-9 0 -17 4.5t-13 12.5q-8 12 -21 19.5t-28 7.5q-23 0 -43 -11.5t-31.5 -31.5t-11.5 -43t12 -42.5t31.5 -31.5t42.5 -12h96q18 0 32.5 9t23 23.5t8.5 32t-8.5 32t-23.5 23t-32 8.5zM208 152l-44 -96h-40l47 100h16q11 0 21 -4zM73 152q6 0 10.5 -5t4.5 -11.5 t-4.5 -11t-10.5 -4.5t-11 5t-5 11.5t4.5 11t11.5 4.5zM100 147q-3 8 -10 13t-16 6l18 34q15 0 28 -12zM75 198l-19 -37q-6 -4 -9.5 -10.5t-3.5 -14.5v-1l-18 -35q-6 14 -6 28q0 25 16 45t40 25zM34 85l16 32q8 -11 22 -11q5 0 8 2l-21 -44q-16 8 -25 21zM73 59l57 118 q10 -14 26 -19l-48 -101h-17q-9 -1 -18 2zM187 56h-7l40 88q8 -7 12.5 -17t4.5 -21q0 -20 -14.5 -35t-35.5 -15z" />
</svg>