<svg viewBox="0 0 256 256" xmlns="http://www.w3.org/2000/svg">
  <path transform="scale(1, -1) translate(0, -256)" fill="currentColor" d="M242 102q0 13 -9.5 22.5t-23 9.5t-22.5 -9.5t-9 -22t7 -21t17 -11.5v-38q0 -6 -3.5 -9.5t-8.5 -3.5h-14q-5 0 -8.5 3.5t-3.5 9.5v21q0 11 -8 19t-19 8h-1q-11 0 -19 -8t-8 -19v-1q0 -5 -3.5 -9t-9 -4t-9 4t-3.5 9v48q23 3 39.5 21t16.5 42v55q0 9 -6 15t-15 6h-6v5 q0 3 -2 5t-5 2q-6 0 -6 -7v-24q0 -3 2 -5.5t5 -2.5t5 2.5t2 5.5v5h6q3 0 5 -2t2 -5v-56q0 -20 -14.5 -34.5t-34.5 -14.5t-34.5 14.5t-14.5 34.5v56q0 3 2 5t5 2h5v-5q0 -3 2 -5.5t5 -2.5t5 2.5t2 5.5v24q0 3 -2 5t-5 2t-5.5 -2t-2.5 -5v-5h-5q-8 0 -14.5 -6t-6.5 -15v-56 q0 -24 16.5 -42t39.5 -20v-48q0 -11 8 -19t19 -8t19 8t8 19v1q0 6 3.5 9.5t9.5 3.5h1q5 0 8.5 -3.5t3.5 -9.5v-21q0 -12 8 -19.5t19 -7.5h13q12 0 19.5 8t7.5 19v38q11 3 18 11.5t7 20.5zM210 84q-8 0 -13 5t-5 12.5t5 13t12.5 5.5t13 -5.5t5.5 -13t-5.5 -12.5t-12.5 -5z " />
</svg>