<svg viewBox="0 0 1024 1024" xmlns="http://www.w3.org/2000/svg">
  <path transform="scale(1, -1) translate(0, -960)" fill="currentColor" d="M954 342q0 48 -34 82t-82 34t-81.5 -34t-33.5 -82q0 -43 28.5 -76t70.5 -39v-166q0 -27 -18.5 -45t-43.5 -18h-53q-26 0 -44 19t-18 44v86q0 40 -28 67.5t-67 27.5h-3q-39 0 -66.5 -28t-27.5 -67v-5q0 -26 -18.5 -44t-44.5 -18q-25 0 -43.5 18.5t-18.5 43.5v204 q47 3 88 22q41 20 71 52.5t48 74.5q17 43 17 91v222q0 29 -21 49.5t-49 20.5h-36v34q0 7 -4 11.5t-12 4.5q-7 0 -11.5 -4.5t-4.5 -11.5v-98q0 -7 4.5 -11.5t11.5 -4.5q8 0 12 4.5t4 11.5v32h36q15 0 26.5 -11t11.5 -27v-222q0 -44 -16 -82q-17 -37 -45 -65.5t-66 -44.5 t-81 -16t-81 16t-66 44.5t-45 65.5q-16 38 -16 82v222q0 16 11.5 27t26.5 11h32v-33q0 -7 4.5 -11.5t11.5 -4.5q8 0 12 4.5t4 11.5v99q0 7 -4 11.5t-12 4.5q-7 0 -11.5 -4.5t-4.5 -11.5v-34h-32q-28 0 -49 -20.5t-21 -49.5v-222q0 -48 17 -90q18 -42 48.5 -74t70.5 -53 q41 -20 88 -23v-202q0 -40 28 -67t66 -27q40 0 67.5 28t27.5 66v5q0 26 18.5 44t43.5 18h3q27 0 45 -18.5t18 -43.5v-87q0 -39 28 -66.5t66 -27.5h53q40 0 67 28t27 66v167q42 6 71 38t29 75v0zM838 259q-34 0 -58.5 24.5t-24.5 58.5q0 35 24.5 59.5t58.5 24.5 q35 0 59.5 -24.5t24.5 -59.5q0 -34 -24.5 -58.5t-59.5 -24.5z" />
</svg>