<svg viewBox="0 0 256 256" xmlns="http://www.w3.org/2000/svg">
  <path transform="scale(1, -1) translate(0, -256)" fill="currentColor" d="M225 251h-27q-3 0 -5 -2t-2 -5v-11q0 -3 2 -5t5 -2t5.5 2t2.5 5v4h17v-75q0 -20 -14 -34t-35 -14h-4q-20 0 -34.5 14t-14.5 34v75h18v-4q0 -3 2 -5t5 -2t5 2t2 5v11q0 3 -2 5t-5 2h-26q-6 0 -9.5 -3.5t-3.5 -8.5v-76q0 -17 8.5 -31.5t23 -23t31.5 -8.5v0v-54 q0 -11 -7 -19t-17 -8h-62q-10 0 -18 8t-8 19v36q11 2 18.5 11t7.5 21.5t-9.5 22t-23 9.5t-23 -9.5t-9.5 -22t7.5 -21.5t17.5 -11v-36q0 -17 12 -28.5t29 -11.5h61q16 0 27.5 11.5t11.5 28.5v55q22 3 37.5 21t15.5 41v76q-1 5 -4.5 8.5t-8.5 3.5zM33 113q0 8 5.5 13.5t13 5.5 t13 -5.5t5.5 -13t-5.5 -13t-13 -5.5t-13 5t-5.5 13z" />
</svg>