<svg viewBox="0 0 1024 1024" xmlns="http://www.w3.org/2000/svg">
  <path transform="scale(1, -1) translate(0, -960)" fill="currentColor" d="M899 928h-105q-8 0 -12 -4.5t-4 -11.5v-42q0 -7 4 -11.5t12 -4.5q7 0 11.5 4.5t4.5 11.5v26h89q3 0 4 -1t1 -4v-304q0 -42 -16 -80q-17 -38 -45 -66t-65 -44q-38 -16 -80 -16h-18q-43 0 -80 16q-38 16 -66 44t-44 66t-16 80v304q0 3 1 4t3 1h90v-26q0 -7 4.5 -11.5 t11.5 -4.5t11.5 4.5t4.5 11.5v42q0 7 -4.5 11.5t-11.5 4.5h-106q-15 0 -25.5 -10.5t-10.5 -26.5v-304q0 -49 18 -92q19 -44 51.5 -76.5t75.5 -50.5q44 -19 93 -19h14v-231q0 -48 -32.5 -82t-79.5 -34h-244q-48 0 -82.5 34t-34.5 82v154q43 5 73.5 38.5t30.5 78.5 q0 49 -34.5 83.5t-84.5 34.5q-49 0 -83.5 -34.5t-34.5 -83.5q0 -45 29 -78t72 -39v-154q0 -61 43.5 -104.5t105.5 -43.5h244q59 0 101.5 43.5t42.5 104.5v231q45 5 83 26q39 20 67.5 52t44.5 72q17 41 17 87v304q-2 16 -12.5 27t-26.5 11v0zM120 389q0 36 25 61t61 25 t61.5 -25t25.5 -61t-25.5 -61.5t-61.5 -25.5t-61 25.5t-25 61.5z" />
</svg>