<svg viewBox="0 0 1024 1024" xmlns="http://www.w3.org/2000/svg">
  <path transform="scale(1, -1) translate(0, -960)" fill="currentColor" d="M528 768v128h85q7 0 11.5 4.5t4.5 11.5t-4.5 11.5t-11.5 4.5h-202q-7 0 -11.5 -4.5t-4.5 -11.5t4.5 -11.5t11.5 -4.5h85v-128q-80 -3 -150 -35q-70 -33 -122 -87t-82 -125q-30 -72 -30 -153q0 -83 31 -156q32 -72 86 -126.5t127 -86.5q73 -31 156 -31t156 31 q72 32 126.5 86.5t86.5 126.5q31 73 31 156q0 81 -30 152q-30 72 -82 126t-122 86q-70 33 -150 36zM512 0q-76 0 -143 29t-117 79t-79 117t-29 143t29 143t79 117t117 79t143 29t143 -29t117 -79t79 -117t29 -143t-29 -143t-79 -117t-117 -79t-143 -29zM528 451v146 q0 7 -4.5 11.5t-11.5 4.5t-11.5 -4.5t-4.5 -11.5v-146q-30 -6 -50 -29.5t-20 -55.5q0 -36 25 -61t61 -25t61 25t25 61q0 32 -20 55.5t-50 29.5zM512 312q-23 0 -38.5 16t-15.5 38q0 23 15.5 39t38.5 16t38.5 -16t15.5 -39q0 -22 -15.5 -38t-38.5 -16z" />
</svg>