<svg viewBox="0 0 1024 1024" xmlns="http://www.w3.org/2000/svg">
  <path transform="scale(1, -1) translate(0, -960)" fill="currentColor" d="M299 870h215q7 0 11.5 4.5t4.5 11.5q0 8 -4.5 12t-11.5 4h-215q-7 0 -11.5 -4t-4.5 -12q0 -7 4.5 -11.5t11.5 -4.5v0zM976 338h-42v131q0 46 -17 87q-18 41 -48.5 71.5t-71.5 48.5q-40 18 -87 18h-156l-71 71q-2 2 -4.5 3.5t-6.5 1.5h-56v99h-32v-101h-42q-3 0 -5.5 -1 t-5.5 -4l-70 -70h-149v0v0q-16 0 -30 -6t-26 -17q-12 -12 -18 -26t-6 -30v-32q0 -32 23 -55t55 -23h151l70 -70q3 -3 5.5 -4t5.5 -1h128q4 0 6.5 1t5.5 4l70 70h128q19 0 32.5 -13.5t13.5 -32.5v-119h-48q-7 0 -11.5 -4.5t-4.5 -11.5t4.5 -11.5t11.5 -4.5h298q7 0 11.5 4.5 t4.5 11.5t-4.5 11t-11.5 4v0zM64 581v32q0 9 3.5 17.5t10.5 15.5q8 8 16 11.5t18 3.5v0v0h125v-127h-127q-19 0 -32.5 14t-13.5 33zM544 541l-80 -82h-115l-82 82v115l82 82h115l82 -82v-115h-2zM680 534h-104v127h133q79 0 135.5 -56.5t56.5 -137.5v-131h-143v118 q2 34 -21 57t-57 23zM830 213q-6 -6 -43 -49.5t-37 -78.5q0 -37 27 -64t65 -27q37 0 64 27t27 64q0 35 -37 78.5t-43 49.5q-4 5 -11 5t-12 -5v0zM842 26q-24 0 -42 17.5t-18 41.5q0 17 19.5 45t40.5 49q20 -23 39.5 -50t19.5 -44q0 -24 -17 -41.5t-42 -17.5z" />
</svg>