<svg viewBox="0 0 256 256" xmlns="http://www.w3.org/2000/svg">
  <path transform="scale(1, -1) translate(0, -256)" fill="currentColor" d="M244 103h-8v30q0 16 -7.5 29.5t-21.5 21.5t-30 8h-38l-17 17q-2 2 -4 2h-11v19h22q3 0 5 2.5t2 5.5t-2 5t-5 2h-54q-3 0 -5 -2t-2 -5t2 -5.5t5 -2.5h18v-19h-7q-3 0 -5 -2l-17 -17h-36q-9 0 -16 -7t-7 -16v-8q0 -9 6.5 -16t16.5 -7h36l17 -16q2 -2 5 -2h32q2 0 4 2l17 16 h31q4 0 6.5 -2.5t2.5 -5.5v-27h-9q-3 0 -5.5 -2t-2.5 -5t2.5 -5.5t5.5 -2.5h74q3 0 5 2.5t2 5.5t-2 5t-5 2zM19 161v8q0 4 2.5 6.5t6.5 2.5h28v-26h-28q-4 1 -6.5 3.5t-2.5 5.5zM133 152l-18 -18h-26l-19 18v26l19 19h26l18 -19v-26zM170 153h-23v25h30q19 0 32 -13t13 -32 v-29h-29v26q0 10 -6.5 16.5t-16.5 6.5zM206 72q-7 -7 -13 -15q-8 -12 -8 -19q0 -11 7.5 -18.5t18.5 -7.5t18.5 7.5t7.5 18.5q0 8 -9 19q-5 8 -12 15q-2 1 -5.5 1t-4.5 -1zM210 26q-4 0 -8 3.5t-4 8.5t12 18q5 -5 8.5 -10.5t3.5 -7.5q0 -5 -3 -8.5t-9 -3.5z" />
</svg>