<svg viewBox="0 0 256 256" xmlns="http://www.w3.org/2000/svg">
  <path transform="scale(1, -1) translate(0, -256)" fill="currentColor" d="M135 211v26h18q3 0 5 2t2 5t-2 5t-5 2h-50q-3 0 -5 -2t-2 -5t2 -5t5 -2h18v-26q-26 -2 -48 -16t-35 -37t-13 -50.5t14 -51t37.5 -37.5t51.5 -14t52 14t38 37.5t13.5 51t-13 50.5t-35 37t-48.5 16zM128 19q-24 0 -44.5 12t-32.5 32.5t-12 44.5t12 44.5t32.5 32.5t44.5 12 t44.5 -12t32.5 -32.5t12 -44.5t-12 -44.5t-32.5 -32.5t-44.5 -12zM135 131v34q0 3 -2 5t-5 2t-5 -2t-2 -5v-34q-8 -2 -13 -8.5t-5 -16t7.5 -16.5t17.5 -7t17.5 7t7.5 16.5t-5 16t-13 8.5zM128 97q-5 0 -8 3t-3 7.5t3 7.5t8 3t8 -3t3 -7.5t-3 -7.5t-8 -3z" />
</svg>