<svg viewBox="0 0 256 256" xmlns="http://www.w3.org/2000/svg">
  <path transform="scale(1, -1) translate(0, -256)" fill="currentColor" d="M232 251h-208q-8 0 -13.5 -5.5t-5.5 -13.5v-208q0 -8 5.5 -13.5t13.5 -5.5h208q8 0 14 5.5t6 13.5v208q-1 8 -6.5 13.5t-13.5 5.5zM237 24q0 -2 -1.5 -3.5t-3.5 -1.5h-208q-2 0 -3.5 1.5t-1.5 3.5v208q0 2 1.5 3.5t3.5 1.5h208q2 0 3.5 -1.5t1.5 -3.5v-208zM78 214 q-13 0 -22 -9t-9 -21.5t9 -21.5t21.5 -9t21.5 9t9 21.5t-9 21.5t-21 9zM78 167q-7 0 -12 5t-5 12t5 11.5t12 4.5t11.5 -4.5t4.5 -11.5t-5 -12t-11 -5zM178 214q-12 0 -21 -9t-9 -21.5t9 -21.5t21.5 -9t21.5 9t9 22t-9 21.5t-22 8.5zM178 167q-6 0 -11 5t-5 12t4.5 11.5 t11.5 4.5t12 -4.5t5 -11.5t-5 -12t-12 -5zM78 125q-13 0 -22 -9t-9 -21.5t9 -21.5t21.5 -9t21.5 9t9 21.5t-9 21.5t-21 9zM78 78q-7 0 -12 5t-5 11.5t5 11.5t12 5t11.5 -5t4.5 -11.5t-5 -11.5t-11 -5zM178 125q-12 0 -21 -9t-9 -21.5t9 -21.5t21.5 -9t21.5 9t9 21.5t-9 21.5 t-22 9zM178 78q-6 0 -11 5t-5 11.5t4.5 11.5t11.5 5t12 -5t5 -11.5t-5 -11.5t-12 -5zM159 48h-6q-3 0 -5 -2t-2 -5t2 -5t5 -2h6q3 0 5 2t2 5t-2 5t-5 2zM196 48h-6q-3 0 -5 -2t-2 -5t2 -5t5 -2h6q3 0 5 2t2 5t-2 5t-5 2z" />
</svg>