<svg viewBox="0 0 1024 1024" xmlns="http://www.w3.org/2000/svg">
  <path transform="scale(1, -1) translate(0, -960)" fill="currentColor" d="M827 928h-630q-34 0 -57 -23t-23 -57v-800q0 -34 23 -57t57 -23h629q33 0 56.5 23t23.5 57v800q1 34 -22.5 57t-56.5 23zM875 48q0 -20 -13.5 -34t-34.5 -14h-630q-21 0 -34.5 14t-13.5 34v800q0 20 13.5 34t34.5 14h629q20 0 34 -14t14 -34v-800h1zM670 797v0v0v0v0v0v0 v0q-2 2 -5 3.5t-6 1.5v0v0q-1 0 -2.5 -0.5t-3.5 -1.5q-1 0 -2 -1t-1 -2l-1 -0.5t-1 -1.5v0v0v0v0v0l-101 -101q-5 -4 -5 -10.5t5 -11.5q3 -2 6 -3.5t5 -1.5q3 0 6 1.5t6 3.5l75 75v-176q0 -61 -44 -105t-105 -44q-76 0 -128.5 -53t-52.5 -127v-149q0 -7 4.5 -11.5t11.5 -4.5 t11.5 4.5t4.5 11.5v149q0 61 44 104.5t105 43.5q76 0 128.5 53.5t52.5 127.5v173l70 -70q3 -3 6 -4t5 -1q3 0 6 1t6 4q4 4 4 10.5t-4 11.5l-100 101v0zM387 618q3 -3 6 -4t5 -1q4 0 6.5 1t5.5 4q4 4 4 10.5t-4 11.5l-42 40l42 40q4 5 4 11.5t-4 10.5q-5 5 -11.5 5t-11.5 -5 l-41 -38l-42 40q-5 5 -11.5 5t-10.5 -5q-5 -5 -5 -11.5t5 -10.5l41 -40l-40 -42q-5 -5 -5 -11.5t5 -10.5q3 -3 6 -4t5 -1q4 0 6.5 1t5.5 4l41 40zM722 246q-5 5 -11.5 5t-11.5 -5l-41 -40l-42 40q-5 5 -11.5 5t-10.5 -5q-5 -4 -5 -10.5t5 -11.5l41 -40l-41 -40 q-5 -5 -5 -11.5t5 -10.5q2 -3 5 -4t6 -1q2 0 5.5 1t5.5 4l42 40l41 -40q3 -3 6 -4t5 -1q3 0 6 1t6 4q4 4 4 10.5t-4 11.5l-42 40l42 40q4 5 4 11.5t-4 10.5v0z" />
</svg>