<svg viewBox="0 0 1024 1024" xmlns="http://www.w3.org/2000/svg">
  <path transform="scale(1, -1) translate(0, -960)" fill="currentColor" d="M512 928q-99 0 -186 -38q-88 -38 -153 -103t-103 -153q-38 -87 -38 -186t38 -186q38 -88 103 -153t153 -103q87 -38 186 -38t186 38q88 38 153 103t103 153q38 87 38 186t-38 186q-38 88 -103 153t-153 103q-87 38 -186 38zM528 0v552l107 -107q3 -3 6 -4t5 -1q3 0 6 1 t6 4q4 5 4 11t-4 11l-135 135q-5 4 -11 4t-11 -4l-135 -135q-4 -5 -4 -11t4 -11q5 -5 11.5 -5t11.5 5l107 107v-552q-90 4 -169 40q-78 37 -136.5 97t-92.5 140t-34 171q0 92 35 174q36 81 97 142t142 97q82 35 174 35t174 -35q82 -36 142.5 -96.5t96.5 -142.5 q35 -82 35 -174q0 -91 -34 -171q-33 -80 -91.5 -140t-137.5 -97q-79 -36 -169 -40v0z" />
</svg>