<svg viewBox="0 0 256 256" xmlns="http://www.w3.org/2000/svg">
  <path transform="scale(1, -1) translate(0, -256)" fill="currentColor" d="M128 251q-33 0 -61.5 -16.5t-45 -45t-16.5 -61.5t16.5 -61.5t45 -45t61.5 -16.5t61.5 16.5t45 45t16.5 61.5t-16.5 61.5t-45 45t-61.5 16.5zM135 19v128l22 -22q2 -2 4.5 -2t4.5 2t2.5 5t-2.5 5l-33 34q-2 2 -5 2t-5 -2l-34 -34q-2 -2 -2 -5t2 -5t5 -2t5 2l22 22v-128 q-28 2 -51.5 17t-37 39.5t-13.5 53.5t15 53.5t39.5 39.5t54.5 15t55 -15t39.5 -40t14.5 -53.5t-13.5 -53t-37 -39.5t-51.5 -17z" />
</svg>