<svg viewBox="0 0 256 256" xmlns="http://www.w3.org/2000/svg">
  <path transform="scale(1, -1) translate(0, -256)" fill="currentColor" d="M207 251h-158q-9 0 -16 -6.5t-7 -16.5v-200q0 -10 7 -16.5t17 -6.5h157q9 0 16 6.5t7 16.5v200q0 10 -7 16.5t-16 6.5zM216 28q0 -4 -3 -6.5t-7 -2.5h-157q-3 0 -6 2.5t-3 6.5v200q0 4 2.5 6.5t6.5 2.5h157q4 0 7 -2.5t3 -6.5v-200zM170 217q-1 0 -1 1l-2 1l-6 -1 l-26 -26q-2 -2 -2 -5t2 -5t4.5 -2t4.5 2l14 14v-37q0 -14 -10 -24t-24 -10q-21 0 -35 -14t-14 -35v-37q0 -3 2 -5t5 -2t5.5 2t2.5 5v37q0 15 10 25t24 10q20 0 34 14t14 34v35l13 -12q2 -2 4.5 -2t5 2t2.5 5t-3 5zM86 176l8 -8q2 -2 5 -2t5 2.5t2 5t-2 4.5l-8 8l8 8 q2 3 2 5.5t-2 5t-5 2.5t-5 -3l-8 -8l-8 8q-2 2 -5 2.5t-5 -2t-2 -5t2 -5.5l8 -8l-8 -8q-2 -2 -2 -4.5t2 -5t5 -2.5t5 2zM183 80q-2 2 -5 2t-5 -2l-8 -8l-8 8q-2 2 -5 2t-5 -2t-2 -5t2 -5l8 -8l-8 -8q-2 -3 -2 -5.5t2 -4.5t4.5 -2t4.5 2l8 8l8 -8q2 -2 5 -2t5 2t2 5t-2 5 l-8 8l8 8q3 2 3 5t-2 5z" />
</svg>