<svg viewBox="0 0 256 256" xmlns="http://www.w3.org/2000/svg">
  <path transform="scale(1, -1) translate(0, -256)" fill="currentColor" d="M124 152h19v-55h-19v55zM118 153q-4 2 -7.5 0.5t-6.5 -6.5l-2 5h-15v-55h19v35q0 2 1 3t4 2v0q2 1 4 0l5 -1v14q0 1 -1 2zM72 139h8l2 13h-10v16l-6 -1q-7 -2 -9 -2t-2 -1l-2 -11h-8v-13h7v-28q0 -11 9 -13t21 1v14l-7 -2q-3 0 -3 3v23v1zM36 128q-1 1 -5 2l-6 4 q-1 1 -1 2.5t1.5 2t8 0l6.5 -0.5v12q0 1 -1 1q-13 3 -20.5 1.5t-11.5 -8t-2 -14.5q0 -2 1.5 -4.5t3.5 -3.5l3 -2q5 -3 7 -3.5t2.5 -1.5t-0.5 -3l-1 -1q-1 -1 -3 -1.5t-5 0.5l-9 2v-14q0 -2 3 -2l5 -1h12q8 0 12.5 4t4.5 14.5t-5 14.5zM230 111q-3 1 -4 2.5t0 4.5h26l-1 17 q-1 7 -6.5 13t-20.5 4q-11 -2 -15 -11l-2 -5q-4 -13 -1 -25.5t15.5 -15t22.5 0.5q3 1 3.5 1.5t0.5 3.5v10l-6 -1q-3 1 -8 1h-4zM226 138q0 2 1.5 3t3.5 0.5t2 -1.5l1 -10h-9q0 5 1 8zM197 145q-4 5 -8 7q-10 2 -17 -3l-2 -1q0 2 -1.5 2.5t-4.5 0.5h-12v-75h20v20l9 -1 q10 0 14.5 6.5t5.5 18.5q0 7 -1 13t-3 11v1zM180 114q-1 -3 -2.5 -4t-5.5 0v25q0 1 1 3h2q2 0 3 -0.5t1 -2.5q3 -9 1 -21zM135 179h-3q-3 -1 -5.5 -3.5t-2.5 -7t2 -6.5q1 -1 3 -2l4 -1q4 0 7 3t3 7t-2.5 7t-5.5 3z" />
</svg>