<svg viewBox="0 0 1024 1024" xmlns="http://www.w3.org/2000/svg">
  <path transform="scale(1, -1) translate(0, -960)" fill="currentColor" d="M128 565h3t3 1q6 3 8.5 9t-0.5 12q-10 22 -15 45.5t-5 47.5q0 43 16 82.5t48 69.5q31 31 69.5 47.5t82.5 16.5h580q8 0 12 4.5t4 11.5t-4 11.5t-12 4.5h-580q-50 0 -95 -18.5t-81 -53.5q-35 -35 -53.5 -80.5t-18.5 -95.5q0 -28 6 -54t18 -52q1 -4 5 -6.5t9 -2.5v0z M890 330q-6 -3 -8.5 -9t0.5 -12q10 -22 15 -45.5t5 -47.5q0 -44 -17 -84q-17 -39 -46.5 -68.5t-68.5 -46.5t-84 -17h-580q-8 0 -12 -4.5t-4 -11.5t4 -11.5t12 -4.5h580q51 0 97 20q45 19 78.5 53t53.5 79q19 45 19 96q0 28 -6 54t-18 52q-2 6 -8 8t-12 0v0zM944 464h-864 q-7 0 -11.5 -4.5t-4.5 -11.5t4.5 -11.5t11.5 -4.5h864q7 0 11.5 4.5t4.5 11.5t-5 11.5t-11 4.5z" />
</svg>