<svg viewBox="0 0 1024 1024" xmlns="http://www.w3.org/2000/svg">
  <path transform="scale(1, -1) translate(0, -960)" fill="currentColor" d="M496 544h77v-221h-77v221v0zM470 547q-6 4 -14 4t-14 -2q-9 -3 -15 -10t-11 -14q-1 3 -3 7t-3 9q-2 3 -2.5 4t-4.5 1h-25h-24h-3.5h-1.5v-221h77v68.5v68.5v8t3 7q2 3 7 5t9 3q3 1 7.5 0t8.5 -2q5 -1 9 -1h8v18.5v19.5v9v9v3t-3 3q-1 1 -2 1.5l-3 1.5v0zM286 493h32 q4 13 6 25t6 24h-44v68q-16 -4 -31.5 -8t-28.5 -5q-4 -1 -5.5 -3t-1.5 -4q-1 -9 -3 -20t-3 -23h-32v-49h27v-7v-53.5v-51.5q0 -24 9.5 -38t28.5 -18q21 -5 42 -2.5t40 6.5v23.5v23.5v4.5v4.5q0 -1 -6.5 -2t-7.5 -1q-4 -1 -7.5 -1h-7.5q-5 -2 -8 0.5t-3 8.5v3v4v43v43 q-1 1 -1.5 3l-0.5 2v0zM144 446q-7 5 -16 9t-18 9q-1 1 -4 2t-7 4q-3 4 -4 6t-1 6q0 3 4 6.5t8 4.5q3 1 29.5 -2t26.5 -5v24v24q0 4 -1.5 5.5t-3.5 1.5q-21 5 -41 7t-41 -2q-29 -8 -46.5 -33t-9.5 -55q1 -9 7.5 -19t15.5 -15q8 -5 19 -12t21 -10q4 -2 7 -7t-1 -9 q-5 -4 -6.5 -7t-6.5 -3q-5 -1 -11 -1t-11 1q-9 1 -17.5 3t-19.5 3v-27v-27q0 -4 4 -5t7 -1q6 -2 10.5 -2.5t10.5 -2.5q13 -1 24.5 -1.5t25.5 -0.5q13 1 25 5t23 13q12 9 16.5 25t5.5 31q-1 19 -6.5 34t-17.5 23v0zM920 381q-10 1 -15.5 8t-2.5 19h106q-1 17 -1.5 35t-3.5 32 q-1 13 -8 27t-17 24q-16 18 -39.5 19t-44.5 -3q-19 -3 -34.5 -14t-24.5 -29q-2 -5 -4.5 -9.5t-3.5 -9.5q-7 -25 -7 -50.5t7 -51.5q5 -24 20.5 -40t40.5 -21q24 -4 45 -3.5t43 4.5q13 4 15.5 7t2.5 16v20v20q0 -1 -13 -3t-15 -2q-10 4 -22 4t-24 1v0zM906 490q0 3 1 5t3 4 q5 5 14 4t9 -9q1 -9 3 -19.5t2 -20.5h-18h-19q0 8 0.5 16.5t4.5 19.5v0zM787 515q-6 10 -13 17t-19 10q-17 4 -33.5 3t-33.5 -12q-1 -1 -3 -2t-3 -3q-4 12 -13 12.5t-19 0.5h-3.5h-1.5h-37v-295v-3v-3h82v80q8 -1 16.5 -3t16.5 -2q17 0 32.5 5.5t25.5 20.5q12 15 16.5 35 t5.5 40q1 13 1 26.5t-2 26.5q-3 12 -6.5 23t-8.5 22q1 0 0.5 0.5l-0.5 0.5v0zM720 394q-4 -14 -11 -17.5t-21 1.5v12v42.5v44.5q0 3 1 5t4 4q1 2 3 2h3q9 1 13 -1t5 -10q6 -19 6.5 -41t-3.5 -42zM539 651v0h-11q-13 -1 -23.5 -12t-10.5 -28q0 -8 3.5 -15.5t8.5 -11.5 q3 -4 7.5 -5.5t9.5 -4.5q4 -1 5 -1h5v0q17 0 28.5 11.5t11.5 28.5q1 15 -9 26.5t-25 11.5v0z" />
</svg>