<svg viewBox="0 0 256 256" xmlns="http://www.w3.org/2000/svg">
  <path transform="scale(1, -1) translate(0, -256)" fill="currentColor" d="M32 154q1 0 3.5 1t3 4t-0.5 5q-5 11 -5 22q0 21 15 36t36 15h145q3 0 5 2t2 5t-2 5t-5 2h-145q-13 0 -24.5 -5t-21 -14t-14.5 -21t-5 -25.5t6 -27.5q2 -4 7 -4zM221 101q-3 -1 -3.5 -4t0.5 -5q5 -10 5 -22q0 -21 -15 -36t-36 -15h-146q-3 0 -5 -2t-2 -5t2 -5t5 -2h146 q17 0 32 8.5t24 23.5t9 33q0 14 -6 28q-2 2 -4.5 3t-5.5 0zM236 135h-216q-3 0 -5 -2t-2 -5t2 -5.5t5 -2.5h216q3 0 5 2.5t2 5.5t-2 5t-5 2z" />
</svg>