<svg viewBox="0 0 256 256" xmlns="http://www.w3.org/2000/svg">
  <path transform="scale(1, -1) translate(0, -256)" fill="currentColor" d="M252 123v-35q0 -15 -7.5 -27.5t-20 -20t-27.5 -7.5t-28 7.5t-20 20t-7 27.5v34l16 -8l26 8v-35q0 -6 3.5 -9.5t9 -3.5t9 3.5t3.5 9.5v35q1 1 43 1v0zM141 152l17 -8l25 7v17q0 15 -7.5 27.5t-20.5 19.5t-27.5 7t-27.5 -7t-20.5 -19.5t-7.5 -26.5v-80q0 -6 -3.5 -9.5 t-9 -3.5t-9 3.5t-3.5 9.5v34h-43v-35q0 -15 7.5 -27.5t20 -20t27.5 -7.5t28 7.5t20 20t7 27.5v79q0 5 4 9t9.5 4t9 -4t3.5 -9v-15h1z" />
</svg>