<svg viewBox="0 0 1024 1024" xmlns="http://www.w3.org/2000/svg">
  <path transform="scale(1, -1) translate(0, -960)" fill="currentColor" d="M1008 427v-137q0 -46 -17 -86q-18 -40 -48 -70t-70 -48q-40 -17 -86 -17q-45 0 -86 17q-40 17 -70 47t-47 70q-18 40 -18 87v136l68 -32l100 28v-139q0 -21 15 -36t37 -15q21 0 36 15t15 36v143l27 1h59h58h27v0zM563 542l67 -32l101 29v71q0 45 -17 84q-18 39 -48 68.5 t-70 46.5q-41 17 -86 17t-85 -17t-70 -46t-48 -68q-17 -39 -17 -84v-320q0 -21 -15 -36t-37 -15q-21 0 -36 15t-15 36v136h-171v-137q0 -46 17 -86q18 -40 48 -70t70 -48q40 -17 86 -17q45 0 86 17q40 17 70 46.5t47 69.5q18 40 18 86v315q0 22 14.5 36.5t36.5 14.5 q21 0 36 -14.5t15 -36.5v-61h3v0z" />
</svg>