<svg viewBox="0 0 1024 1024" xmlns="http://www.w3.org/2000/svg">
  <path transform="scale(1, -1) translate(0, -960)" fill="currentColor" d="M872 725h-189v61q0 31 -22 53t-53 22h-192q-31 0 -53 -22t-22 -53v-61h-189q-49 0 -84.5 -35.5t-35.5 -84.5v-448q0 -49 35.5 -84.5t84.5 -35.5h720q49 0 84.5 35.5t35.5 84.5v448q0 49 -35.5 84.5t-84.5 35.5zM373 786q0 18 12.5 30.5t30.5 12.5h192q18 0 30.5 -12.5 t12.5 -30.5v-61h-278v61v0zM960 157q0 -36 -26 -62t-62 -26h-720q-36 0 -62 26t-26 62v448q0 36 26 62t62 26h718q36 0 62 -26t26 -62v-448h2zM750 301h-99l-101 201q-3 6 -8.5 9.5t-11.5 3.5q-8 0 -13 -3.5t-8 -9.5l-98 -216l-59 119h-122q-7 0 -11.5 -4.5t-4.5 -11.5 t4.5 -11.5t11.5 -4.5h103l59 -120q2 -6 7.5 -9.5t11.5 -3.5v0v0q6 0 11.5 3.5t7.5 9.5l98 217l101 -201h120q7 0 11.5 4.5t4.5 11.5t-3.5 11.5t-11.5 4.5z" />
</svg>