<svg viewBox="0 0 256 256" xmlns="http://www.w3.org/2000/svg">
  <path transform="scale(1, -1) translate(0, -256)" fill="currentColor" d="M188 220h-27v8q0 10 -7 16.5t-16 6.5h-19q-10 0 -16.5 -6.5t-6.5 -16.5v-8h-27q-10 0 -16.5 -7t-6.5 -16v-158q0 -6 3.5 -11.5t8.5 -8.5v-7q0 -3 2 -5t5 -2t5 2t2 5v4h113v-4q0 -3 2 -5t5 -2t5 2t2 5v6q6 3 9.5 8.5t3.5 12.5v158q-1 9 -8 16t-16 7zM110 228q0 4 2.5 6.5 t6.5 2.5h19q3 0 6 -2.5t3 -6.5v-8h-37v8zM59 197q0 4 2.5 6.5t6.5 2.5h120q3 0 6 -2.5t3 -6.5v-158q0 -4 -2.5 -6.5t-6.5 -2.5h-120q-3 0 -6 2.5t-3 6.5v158zM90 90q3 0 5 2.5t2 5.5v44q0 3 -2 5t-5 2t-5.5 -2t-2.5 -5v-45q1 -3 3 -5t5 -2zM128 75q3 0 5 2t2 5v75q0 3 -2 5 t-5 2t-5 -2t-2 -5v-75q0 -3 2 -5t5 -2zM166 90q3 0 5.5 2.5t2.5 5.5v44q0 3 -2.5 5t-5.5 2t-5 -2t-2 -5v-45q0 -3 2 -5t5 -2z" />
</svg>