<svg viewBox="0 0 1024 1024" xmlns="http://www.w3.org/2000/svg">
  <path transform="scale(1, -1) translate(0, -960)" fill="currentColor" d="M750 805h-120v43q0 34 -23.5 57t-56.5 23h-75q-33 0 -56.5 -24t-23.5 -56v-43h-120q-33 0 -56.5 -24t-23.5 -56v-631q0 -25 14 -45t36 -30v-35q0 -7 4.5 -11.5t11.5 -4.5t11.5 4.5t4.5 11.5v27h473v-27q0 -7 4.5 -11.5t11.5 -4.5q8 0 12 4.5t4 11.5v34q22 9 36 29.5 t14 45.5v630q-1 34 -24.5 58t-57.5 24v0zM426 848q0 20 14 34t34 14h75q20 0 34 -14.5t14 -33.5v-43h-171v43v0zM798 93q0 -21 -14 -34.5t-34 -13.5h-476q-21 0 -34.5 14.5t-13.5 33.5v630q0 21 14 34.5t34 13.5h476q21 0 34.5 -14.5t13.5 -33.5v-630zM358 518 q-7 0 -11.5 -4t-4.5 -12v-177q0 -7 4.5 -11.5t11.5 -4.5q8 0 12 4.5t4 11.5v177q0 8 -4 12t-12 4zM512 579q-7 0 -11.5 -4.5t-4.5 -11.5v-299q0 -7 4.5 -11.5t11.5 -4.5t11.5 4.5t4.5 11.5v299q0 7 -4.5 11.5t-11.5 4.5zM666 518q-8 0 -12 -4t-4 -12v-177q0 -7 4 -11.5 t12 -4.5q7 0 11.5 4.5t4.5 11.5v177q0 8 -5 12t-11 4z" />
</svg>