<svg viewBox="0 0 256 256" xmlns="http://www.w3.org/2000/svg">
  <path transform="scale(1, -1) translate(0, -256)" fill="currentColor" d="M228 188h-48q-2 17 -14.5 29.5t-29.5 12.5h-16q-17 0 -29.5 -12.5t-13.5 -29.5h-49q-10 0 -16.5 -7t-6.5 -17v-115q0 -10 6.5 -16.5t16.5 -6.5h200q10 0 16.5 6.5t6.5 16.5v116q0 9 -6.5 16t-16.5 7zM96 174v-134h-26v134h26zM110 174h35v-134h-35v134zM160 174h25v-134 h-25v134zM120 216h16q11 0 19.5 -8t10.5 -20h-75q1 12 9.5 20t19.5 8zM19 49v116q0 3 3 6t6 3h29v-134h-29q-4 0 -6.5 2.5t-2.5 6.5zM237 49q0 -3 -2.5 -6t-6.5 -3h-29v134h29q4 0 6.5 -3t2.5 -7v-115z" />
</svg>