<svg viewBox="0 0 256 256" xmlns="http://www.w3.org/2000/svg">
  <path transform="scale(1, -1) translate(0, -256)" fill="currentColor" d="M218 218h-45v11q0 9 -6 15.5t-15 6.5h-48q-9 0 -15 -6.5t-6 -15.5v-11h-45q-13 0 -22.5 -9.5t-9.5 -22.5v-113q0 -13 9.5 -22.5t22.5 -9.5h15q3 0 5 2t2 5t-2 5.5t-5 2.5h-15q-7 0 -12.5 5t-5.5 13v112q0 7 5.5 12.5t12.5 5.5h180q7 0 12.5 -5.5t5.5 -12.5v-113 q0 -7 -5.5 -12.5t-12.5 -5.5h-11q-3 0 -5 -2t-2 -5t2 -5t5 -2h11q13 0 22.5 9.5t9.5 22.5v113q0 13 -9.5 22.5t-22.5 9.5zM97 229q0 3 2 5.5t5 2.5h47q3 0 5.5 -2.5t2.5 -5.5v-11h-62v11zM162 90q-2 11 -12 19t-22 8t-22 -8t-12 -19q-4 -16 9 -34q6 -7 15 -16l-22 -22 q-2 -2 -2 -5t2 -5t5 -2t5 2l22 22l22 -22q2 -3 4.5 -3t5 2.5t2.5 5t-2 5.5l-22 22q6 6 14 16q14 17 10 34zM141 64q-3 -4 -10 -12l-3 -3q-7 7 -13 15q-4 5 -6 11t-1 12t7 11t13 5t13 -5t7 -11q3 -10 -7 -23z" />
</svg>