<svg viewBox="0 0 1024 1024" xmlns="http://www.w3.org/2000/svg">
  <path transform="scale(1, -1) translate(0, -960)" fill="currentColor" d="M912 675h-206q0 70 -48 119t-116 49h-62q-67 0 -114.5 -49t-48.5 -119h-205q-34 0 -57 -23t-23 -57v-462q0 -34 23 -57t57 -23h800q34 0 57 23t23 57v462q0 33 -23 56.5t-57 23.5v0zM395 643v-558h-125v558h125v0zM427 643h167v-558h-167v558v0zM626 643h126v-558h-126 v558v0zM482 811h62q54 0 92 -39.5t39 -96.5h-325q0 57 39 96.5t93 39.5zM64 133v462q0 21 14 34.5t34 13.5h126v-558h-126q-20 0 -34 13.5t-14 34.5zM960 133q0 -21 -14 -34.5t-34 -13.5h-126v558h126q20 0 34 -13.5t14 -34.5v-462z" />
</svg>