<svg viewBox="0 0 1024 1024" xmlns="http://www.w3.org/2000/svg">
  <path transform="scale(1, -1) translate(0, -960)" fill="currentColor" d="M706 714h-48v108q-2 44 -32.5 75t-73.5 31h-78q-45 0 -75.5 -31t-30.5 -75v-108h-48q-34 0 -57 -23.5t-23 -56.5v-474q0 -34 23 -57t57 -23h6v-96q0 -7 4.5 -11.5t11.5 -4.5q8 0 12 4.5t4 11.5v96h312v-96q0 -7 4.5 -11.5t11.5 -4.5q8 0 12 4.5t4 11.5v96h7q33 0 56.5 23 t23.5 57v474q-3 32 -27 56t-56 24v0zM400 822q0 30 21 52t51 22h78q32 0 53 -22t21 -52v-108h-224v108v0zM754 160q0 -20 -14 -34t-34 -14h-388q-20 0 -34 14t-14 34v474q0 20 14 34t34 14h388q20 0 34 -14t14 -34v-474zM598 562h-172q-8 0 -12 -4.5t-4 -11.5q0 -8 4 -12 t12 -4h171q7 0 11.5 4t4.5 12q0 7 -4.5 11.5t-10.5 4.5z" />
</svg>