<svg viewBox="0 0 256 256" xmlns="http://www.w3.org/2000/svg">
  <path transform="scale(1, -1) translate(0, -256)" fill="currentColor" d="M176 197h-9v25q0 12 -8.5 20.5t-20.5 8.5h-20q-12 0 -20.5 -8.5t-8.5 -20.5v-25h-9q-10 0 -16.5 -6.5t-6.5 -16.5v-118q0 -9 6 -15.5t15 -7.5v-21q0 -3 2.5 -5t5.5 -2t4.5 2t1.5 5v21h72v-21q0 -3 2 -5t5 -2t5 2t2 5v21q9 1 15.5 7.5t6.5 15.5v118q-1 10 -7.5 16.5 t-16.5 6.5zM103 222q0 6 4.5 10.5t10.5 4.5h20q6 0 10.5 -4.5t4.5 -10.5v-25h-50v25zM185 56q0 -4 -2.5 -6.5t-6.5 -2.5h-96q-4 0 -7 2.5t-3 6.5v118q0 4 3 7t7 3h96q4 0 7 -3t3 -7v-118h-1zM150 160h-44q-3 0 -5 -2.5t-2 -5.5t2 -5t5 -2h43q3 0 5 2t2 5t-2 5.5t-4 2.5z" />
</svg>