<svg viewBox="0 0 1024 1024" xmlns="http://www.w3.org/2000/svg">
  <path transform="scale(1, -1) translate(0, -960)" fill="currentColor" d="M870 794h-188v59q0 31 -22 53t-54 22h-188q-32 0 -54 -22t-22 -53v-59h-188q-48 0 -82.5 -34.5t-34.5 -82.5v-450q0 -48 34.5 -82.5t82.5 -34.5h59q7 0 11.5 4.5t4.5 11.5q0 8 -4.5 12t-11.5 4h-59q-35 0 -60 25t-25 60v451q0 35 25 60t60 25h716q35 0 60 -25t25 -60 v-449q0 -35 -25 -60t-60 -25h-41q-7 0 -11.5 -4.5t-4.5 -11.5t4.5 -11.5t11.5 -4.5h41q48 0 82.5 34.5t34.5 82.5v449q0 48 -34.5 82t-82.5 34v0zM374 853q0 18 13 30.5t31 12.5h187q18 0 30.5 -12.5t12.5 -30.5v-59h-274v59zM637 293q-10 42 -45.5 70t-79.5 29 q-44 -1 -79.5 -29.5t-45.5 -69.5q-6 -29 3.5 -61.5t31.5 -63.5q16 -20 32.5 -39t33.5 -36q-5 -5 -9.5 -10t-9.5 -9l-10 -10l-33.5 -33.5l-33.5 -33.5q-5 -5 -5 -11.5t5 -11.5q5 -4 11.5 -4t10.5 4l34 34l34 34l9 9l10 10l9 9q5 -4 10 -9l10 -10l9 -9l34 -34t33 -34 q3 -2 5.5 -3t6.5 -1q3 0 5.5 1t5.5 3q5 5 5 11.5t-5 11.5q-17 17 -34 33.5t-33 33.5l-10 10q-5 4 -9.5 9t-9.5 10q17 17 33.5 36t31.5 39q26 31 35.5 63.5t3.5 61.5zM512 115q-17 17 -32.5 35t-29.5 37q-11 16 -24 42.5t-7 56.5q7 32 34 53t59 23q34 -2 60.5 -23t33.5 -53 q6 -30 -6.5 -57t-23.5 -42q-16 -19 -31.5 -37t-32.5 -35z" />
</svg>