<svg viewBox="0 0 256 256" xmlns="http://www.w3.org/2000/svg">
  <path transform="scale(1, -1) translate(0, -256)" fill="currentColor" d="M218 200h-44v12q0 9 -6.5 15.5t-15.5 6.5h-48q-9 0 -15.5 -6.5t-6.5 -15.5v-12h-44q-14 0 -23.5 -9.5t-9.5 -23.5v-112q0 -14 9.5 -23.5t23.5 -9.5h180q14 0 23.5 9.5t9.5 23.5v112q0 14 -9.5 23.5t-23.5 9.5zM96 212q0 4 2.5 6t5.5 2h48q3 0 5.5 -2.5t2.5 -5.5v-12h-64 v12zM237 55q0 -8 -5.5 -13.5t-13.5 -5.5h-180q-8 0 -13.5 5.5t-5.5 13.5v112q0 8 5.5 13.5t13.5 5.5h180q8 0 13.5 -5.5t5.5 -13.5v-112zM188 94h-24l-24 49q-2 5 -8 5q-2 0 -4.5 -1.5t-3.5 -4.5l-21 -48l-13 26h-32q-3 0 -5.5 -2t-2.5 -5t2.5 -5t5.5 -2h23l14 -28 q3 -5 8 -5q2 0 4.5 1.5t2.5 3.5l22 48l24 -46h32q3 0 5 2.5t2 5.5t-2 4.5t-5 1.5z" />
</svg>