<svg viewBox="0 0 1024 1024" xmlns="http://www.w3.org/2000/svg">
  <path transform="scale(1, -1) translate(0, -960)" fill="currentColor" d="M512 653q-42 0 -79 -16t-65 -44t-45 -65q-16 -37 -16 -80q0 -42 16 -79t44 -65t65 -45q37 -16 80 -16q42 0 79 16t65 44t45 65q16 37 16 80q0 42 -16 79q-17 38 -44.5 65.5t-65.5 44.5q-37 16 -79 16v0zM512 275q-71 0 -122 50.5t-51 122.5q0 71 50.5 122t122.5 51 q71 0 122 -50.5t51 -122.5q0 -71 -51 -122t-122 -51v0zM512 811q7 0 11.5 4.5t4.5 11.5v85q0 7 -4.5 11.5t-11.5 4.5t-11.5 -4.5t-4.5 -11.5v-85q0 -6 4.5 -11t11.5 -5zM512 85q-7 0 -11.5 -4.5t-4.5 -11.5v-85q0 -7 4.5 -11.5t11.5 -4.5t11.5 4.5t4.5 11.5v85q0 6 -4.5 11 t-11.5 5zM822 781l-52 -53q-5 -5 -5 -11.5t5 -10.5q2 -3 5 -4t6 -1q2 0 5.5 1t5.5 4l53 52q5 5 5 11.5t-5 11.5t-11.5 5t-11.5 -5v0zM232 190l-53 -52q-5 -5 -5 -11.5t5 -11.5q3 -2 6 -3.5t5 -1.5q3 0 6 1.5t6 3.5l52 53q5 5 5 11.5t-5 10.5q-4 5 -10.5 5t-11.5 -5v0z M976 464h-85q-7 0 -11.5 -4.5t-4.5 -11.5t4.5 -11.5t11.5 -4.5h85q7 0 11.5 4.5t4.5 11.5t-4.5 11.5t-11.5 4.5zM133 464h-85q-7 0 -11.5 -4.5t-4.5 -11.5t4.5 -11.5t11.5 -4.5h85q7 0 11.5 4.5t4.5 11.5t-5 11.5t-11 4.5zM792 190q-5 5 -11.5 5t-10.5 -5q-5 -4 -5 -10.5 t5 -11.5l52 -53q3 -2 6 -3.5t6 -1.5q2 0 5 1.5t6 3.5q5 5 5 11.5t-5 11.5l-53 52v0zM202 781q-5 5 -11.5 5t-11.5 -5t-5 -11.5t5 -11.5l53 -52q2 -3 5.5 -4t5.5 -1q3 0 6 1t5 4q5 4 5 10.5t-5 11.5l-52 53v0z" />
</svg>