<svg viewBox="0 0 1024 1024" xmlns="http://www.w3.org/2000/svg">
  <path transform="scale(1, -1) translate(0, -960)" fill="currentColor" d="M798 526q-3 0 -5.5 2t-3.5 5q-21 45 -63 72t-92 27q-52 0 -95 -28t-64 -76q-1 -2 -3.5 -3.5t-5.5 -1.5q-27 6 -54 3t-52 -14q-38 -17 -64 -50.5t-34 -75.5q-6 -36 4.5 -71.5t34.5 -63.5q24 -29 58.5 -44t72.5 -15h341q68 0 119 43.5t57 106.5q7 69 -37 122.5t-114 61.5v0 zM918 346q-4 -52 -46 -87t-98 -35h-342q-31 0 -59 12.5t-48 35.5q-19 23 -27 51t-4 58q5 33 26.5 60t52.5 41q14 6 28.5 9t30.5 3q7 0 14 -1t13 -2q15 -2 27.5 4.5t17.5 19.5q16 39 51 61t77 22q41 0 75.5 -22t50.5 -58q5 -10 14.5 -16t21.5 -8q57 -7 93 -49.5t31 -98.5v0z M275 589q6 2 9 7.5t1 13.5q-3 7 -4 15t-1 17q0 42 31 72t75 30q26 0 49 -11.5t37 -33.5q4 -6 10 -7t12 4t7 10.5t-3 11.5q-20 28 -49.5 43t-64.5 15q-56 0 -97 -39.5t-41 -94.5q0 -11 1.5 -21.5t5.5 -20.5q1 -5 5.5 -8t10.5 -3q2 -1 3.5 -1t2.5 1zM400 872q7 0 11.5 4.5 t4.5 11.5v24q0 7 -4.5 11.5t-11.5 4.5t-11.5 -4.5t-4.5 -11.5v-24q0 -7 5 -11.5t11 -4.5zM598 786q4 0 6.5 1t5.5 3l25 24q5 5 5 11.5t-5 11.5t-11 5t-11 -5l-26 -24q-5 -5 -5 -11.5t5 -11.5q3 -2 6 -3t5 -1v0zM115 624h-25q-8 0 -12 -4.5t-4 -11.5t4 -11.5t12 -4.5h25 q7 0 11.5 4.5t4.5 11.5t-5 11.5t-11 4.5v0zM189 838q-5 5 -11.5 5t-11.5 -5q-4 -4 -4 -10.5t4 -11.5l26 -24q2 -2 5 -3.5t6 -1.5q4 0 6.5 1.5t4.5 3.5q5 5 5 11.5t-5 10.5l-25 24v0zM416 72q-6 2 -12 -1t-9 -9l-24 -72q-2 -6 1 -12t9 -8h2h3q4 0 8.5 3t7.5 8l24 72 q2 5 -0.5 11t-9.5 8v0zM595 72q-6 2 -12 -1t-9 -9l-24 -72q-2 -6 1 -12t9 -8h2.5h2.5q5 0 9 3t7 8l24 72q3 5 0 11t-10 8v0zM774 72q-6 2 -12 -1t-8 -9l-24 -72q-3 -6 0 -12t9 -8h2.5h2.5q5 0 9.5 3t6.5 8l24 72q4 5 1 11t-11 8v0z" />
</svg>