<svg viewBox="0 0 256 256" xmlns="http://www.w3.org/2000/svg">
  <path transform="scale(1, -1) translate(0, -256)" fill="currentColor" d="M200 150q-5 12 -16.5 19.5t-25 7.5t-25 -7.5t-17.5 -19.5q-13 2 -27 -3q-10 -5 -17 -14t-9 -19t1 -19.5t9 -17t15.5 -12t19.5 -4.5h85q18 0 31.5 12t15.5 29.5t-9.5 31.5t-30.5 16zM226 103q-1 -12 -10.5 -20t-22.5 -8h-85q-15 0 -24.5 11t-6.5 25q1 7 6 13.5t11.5 9.5 t13.5 3l7 -1q4 -1 8.5 1t6.5 7q3 8 11 13.5t17.5 5.5t17.5 -5t11.5 -13t11.5 -9q13 -1 21 -11t6 -22zM70 160q2 1 3.5 3.5t0.5 5.5t-1 7q0 9 6.5 15.5t16.5 6.5q6 0 11 -2.5t8 -7.5q2 -2 5 -2.5t5 1.5t2.5 4.5t-1.5 4.5q-5 8 -13 12t-17 4q-16 0 -27 -11t-11 -26q0 -4 2 -11 q1 -2 2.5 -3.5t3.5 -1t4 0.5zM100 231q3 0 5 2t2 5v6q0 3 -2 5t-5 2t-5 -2t-2 -5v-6q0 -3 2 -5t5 -2zM150 210q2 0 4 2l7 6q2 2 2 4.5t-2 5t-5 2.5t-5 -2l-7 -6q-2 -2 -2 -5t2 -5t6 -2zM29 175h-7q-3 0 -5 -2t-2 -5t2 -5.5t5 -2.5h7q3 0 5 2.5t2 5.5t-2 5t-5 2zM49 228 q-2 2 -5 2t-5 -2.5t-2 -5t2 -4.5l7 -6q2 -2 4.5 -2t5 2t2.5 4.5t-2 5.5zM105 37q-3 1 -5.5 -0.5t-3.5 -4.5l-6 -18q0 -2 1 -5t4 -3l2 -1q2 0 4 1.5t3 3.5l6 18q1 3 -0.5 5.5t-4.5 3.5zM150 37q-3 1 -5.5 -0.5t-3.5 -4.5l-6 -18q-1 -2 0.5 -5t4.5 -3l2 -1q2 0 3.5 1.5 t2.5 3.5l6 18q1 3 0 5.5t-4 3.5zM195 37q-3 1 -5.5 -0.5t-3.5 -4.5l-6 -18q-1 -3 0.5 -5.5t3.5 -3.5h2q2 0 4 1t3 4l6 18q1 3 0 5.5t-4 3.5z" />
</svg>