<svg viewBox="0 0 256 256" xmlns="http://www.w3.org/2000/svg">
  <path transform="scale(1, -1) translate(0, -256)" fill="currentColor" d="M128 182q-15 0 -27.5 -7.5t-19.5 -19.5t-7 -27t7 -27t19.5 -19.5t27.5 -7.5q23 0 38.5 16t15.5 38.5t-15.5 38t-38.5 15.5zM128 88q-16 0 -28 12t-12 28.5t12 28t28.5 11.5t28 -11.5t11.5 -28t-11.5 -28.5t-28.5 -12zM128 216q3 0 5 2t2 5v21q0 3 -2 5t-5 2t-5 -2t-2 -5 v-21q0 -3 2 -5t5 -2zM128 40q-3 0 -5 -2t-2 -5v-21q0 -3 2 -5t5 -2t5 2t2 5v21q0 3 -2 5t-5 2zM204 214l-14 -14q-2 -2 -2 -4.5t2 -5t5 -2.5t5 2l13 14q2 2 2 4.5t-2 5t-4.5 2.5t-4.5 -2zM56 66l-14 -14q-2 -2 -2 -5t2 -5t5 -2t5 2l13 14q2 2 2 5t-2 5t-4.5 2t-4.5 -2z M244 135h-21q-3 0 -5 -2t-2 -5t2 -5.5t5 -2.5h21q3 0 5 2.5t2 5.5t-2 5t-5 2zM33 135h-21q-3 0 -5 -2t-2 -5t2 -5t5 -2h21q3 0 5 2t2 5t-2 5t-5 2zM200 66q-2 2 -4.5 2t-5 -2.5t-2.5 -5t2 -4.5l14 -14q2 -2 4.5 -2t4.5 2t2 5t-2 5zM52 214q-2 2 -5 2t-5 -2t-2 -5t2 -5 l14 -14q2 -2 4.5 -2t4.5 2.5t2 5t-2 4.5z" />
</svg>