<svg viewBox="0 0 1024 1024" xmlns="http://www.w3.org/2000/svg">
  <path transform="scale(1, -1) translate(0, -960)" fill="currentColor" d="M971 581q1 3 0 7.5t-5 6.5q-34 35 -82 48t-98 3q25 45 27 95.5t-19 92.5q-2 3 -5 5.5t-8 2.5q-46 6 -90.5 -11t-77.5 -52q-9 48 -36 87.5t-67 59.5q-2 2 -6 2t-8 -2q-40 -21 -66 -60.5t-32 -87.5q-34 33 -78.5 48.5t-89.5 8.5q-3 -1 -6.5 -3.5t-4.5 -5.5q-18 -38 -17 -81 t19 -84q-43 5 -85 -7t-72 -41q-2 -3 -4 -7t-1 -8q7 -45 35.5 -83t71.5 -61q-43 -20 -73 -57t-39 -82q-1 -3 0.5 -7.5t4.5 -6.5q27 -28 63 -42t75 -14q11 0 21.5 1t21.5 4q-25 -45 -27.5 -95.5t19.5 -92.5q1 -3 4.5 -5.5t8.5 -2.5q6 -1 12 -1h12q39 0 77 17t67 47 q8 -48 35.5 -87.5t68.5 -59.5q1 -2 3 -2h3h4.5t3.5 2q40 21 66 60.5t32 87.5q29 -27 65.5 -43t75.5 -16q7 0 14 0.5t14 1.5q4 1 7 3.5t5 5.5q18 38 17 81t-19 83q6 -2 12 -2h12q37 0 71.5 13t61.5 37q2 2 4 6t1 8q-8 46 -36 83.5t-72 60.5q41 22 71 59t38 82v0zM770 811 q16 -38 10.5 -83.5t-31.5 -82.5q-4 -5 -7.5 -9.5t-7.5 -8.5q-13 -14 -28.5 -25t-31.5 -18q-11 -5 -22 -8.5t-23 -4.5q-9 9 -18.5 16t-20.5 11q-2 10 -3 19t0 18q0 24 8 47.5t21 45.5q1 2 2.5 4t2.5 4q26 38 66.5 58.5t82.5 16.5v0zM512 310q-56 0 -97 41t-41 97t41 97t97 41 t97 -41t41 -97t-41 -97t-97 -41zM504 894q36 -21 58 -60.5t24 -86.5v-2.5v-3.5q-15 -24 -23 -51t-8 -55q0 -6 0.5 -12t1.5 -12q-11 3 -22 5t-21 2q-12 0 -24 -2t-24 -5q0 5 0.5 11t-0.5 12v0v0v0v0q-2 28 -11 55.5t-26 52.5v2v0q-1 47 19.5 87.5t55.5 62.5v0zM243 803 q42 5 83.5 -15t68.5 -57l1.5 -1.5l1.5 -1.5l0.5 -1t1.5 -1q16 -21 24 -45.5t10 -50.5q0 -9 -0.5 -17.5t-3.5 -17.5q-10 -6 -20 -13t-18 -16q-6 0 -12 1.5t-12 3.5v0h-2q-28 7 -53 24.5t-43 42.5q-2 3 -3.5 5.5t-2.5 4.5q-24 36 -29.5 77.5t8.5 77.5v0zM91 595q30 24 69 32 t80 -1q1 -2 2.5 -4t2.5 -3q21 -29 51 -49.5t64 -28.5h1h1q2 0 3.5 -1t4.5 -1q-11 -18 -18 -38t-8 -42q-6 3 -11 5t-11 3q-27 9 -55 9t-56 -6q-1 0 -2 1t-3 1q-44 16 -75 49t-40 74v0zM86 318q11 41 42.5 73.5t76.5 45.5q2 1 4.5 1.5t4.5 1.5q26 6 50.5 6t47.5 -8 q10 -2 18 -6.5t16 -9.5q2 -12 5.5 -23t8.5 -21q-5 -10 -11 -19.5t-13 -17.5l-1 -1l-1 -1q-12 -13 -27 -24.5t-33 -18.5q-5 -2 -10.5 -4.5t-12.5 -3.5q-45 -16 -89 -7t-76 37v0zM254 85q-16 38 -10.5 83.5t31.5 82.5q4 5 6.5 9t6.5 7q19 9 35.5 21.5t30.5 26.5l0.5 1l0.5 1 q6 7 11 14t10 15q14 -20 34 -34t43 -22q-4 -5 -7.5 -10t-7.5 -10q-15 -22 -23.5 -49t-9.5 -55q-1 -1 -1.5 -2t-1.5 -2q-26 -40 -66 -60.5t-82 -16.5v0zM520 2q-36 21 -58 60.5t-24 86.5v4.5v4.5q2 26 9 49.5t20 43.5q5 9 11 15.5t13 13.5q5 -1 10.5 -1.5t10.5 -0.5 q7 0 13.5 1t13.5 1l12 -12t11 -12v-1t1 -1q15 -20 24 -44.5t10 -51.5v-2.5v-3.5q0 -47 -21 -87.5t-56 -62.5v0zM781 93q-42 -5 -83.5 14t-68.5 58l-0.5 0.5t-1.5 0.5q-2 29 -11.5 56.5t-25.5 51.5v0.5t-1 0.5q-4 5 -7.5 9t-7.5 9q21 8 37.5 20.5t30.5 28.5l2 -4l2 -4 q18 -30 47 -52t62 -34l4.5 -1.5t3.5 -0.5q22 -38 26.5 -78t-8.5 -75v0zM933 301q-30 -25 -71.5 -33t-82.5 4q-2 1 -5.5 1.5t-5.5 1.5q-30 11 -53.5 30t-39.5 44q-3 5 -6 10.5t-5 10.5q6 10 10 21t6 23q7 4 15.5 7.5t18.5 5.5v0h1q23 6 48 6t50 -7q2 -2 3.5 -2t4.5 -2 q42 -14 72.5 -47t39.5 -74v0zM819 459q-1 0 -2 -0.5t-3 -0.5q-27 7 -54.5 7.5t-53.5 -6.5h-1h-1q-6 -1 -12 -3t-10 -5q0 25 -8 48.5t-21 42.5q8 3 16.5 5.5t16.5 6.5q20 8 37.5 20t31.5 28q5 2 10 3.5t9 2.5q45 13 89.5 4.5t75.5 -36.5q-11 -40 -43 -71t-77 -46v0z" />
</svg>