<svg viewBox="0 0 256 256" xmlns="http://www.w3.org/2000/svg">
  <path transform="scale(1, -1) translate(0, -256)" fill="currentColor" d="M246 160q1 4 -2 7q-8 8 -19 11.5t-23 2.5q5 11 4.5 23t-5.5 22q-1 3 -5 4q-11 1 -21.5 -2.5t-19.5 -10.5q-3 11 -9.5 19.5t-16.5 13.5q-3 2 -7 0q-9 -5 -15.5 -14t-9.5 -20q-8 8 -19 10.5t-22 1.5q-3 -1 -5 -4q-4 -9 -4.5 -19.5t3.5 -19.5q-21 0 -37 -13q-3 -3 -2 -6 q1 -11 7.5 -20.5t15.5 -15.5q-9 -6 -16 -15t-8 -19q-1 -4 2 -7q14 -15 36 -15l6 1q-5 -11 -4.5 -23t5.5 -22q2 -4 5 -4h6q19 0 35 13q3 -11 10 -20t16 -13q2 -1 3.5 -1t3.5 1q9 5 15.5 14t9.5 20q15 -12 33 -12h7q4 1 5 4q5 9 5 19.5t-3 19.5h2q9 0 18.5 3.5t16.5 9.5 q2 3 2 6q-2 11 -8 20.5t-16 15.5q10 6 16.5 15t8.5 19zM190 216q4 -9 2.5 -18.5t-7.5 -18.5l-4 -4q-6 -7 -14 -11l-9 -2q-4 3 -8 5v7q0 11 7 22l1 2q5 8 14 13t18 5zM128 96q-13 0 -22.5 9.5t-9.5 22.5t9.5 22.5t22.5 9.5t22.5 -9.5t9.5 -22.5t-9.5 -22.5t-22.5 -9.5z M126 236q8 -5 12.5 -14t4.5 -19v-1q-7 -13 -8 -27v-2l-7 1l-9 -1v2q-1 15 -9 28q0 10 4.5 19t11.5 14zM63 214q10 0 19 -4.5t15 -12.5l1 -1q7 -11 7 -22v-7q-4 -2 -8 -6l-5 1q-13 3 -22 15l-2 2q-5 8 -6.5 17.5t1.5 17.5zM58 170q0 -1 1 -1v0q11 -15 29 -21q-4 -5 -5 -14 l-2 1q-14 5 -29 1v0q-10 4 -17 11t-9 16q7 5 15.5 7t16.5 0zM25 96q2 9 9.5 16t17.5 10l2 1q11 3 23 -1l7 -2q1 -7 2 -10q-2 -4 -4 -7h-1q-5 -6 -14 -11l-5 -2q-10 -3 -20 -1t-17 7zM66 40q-4 9 -2.5 18.5t7.5 18.5l3 3q10 5 17 12l3 5q7 -7 15 -11l-2 -2q-7 -11 -9 -26v-1 q-5 -8 -14 -12.5t-18 -4.5zM130 20q-8 5 -12.5 14t-4.5 19v3q0 12 7 21q1 3 4 6h10q2 -3 4 -5v0q7 -10 8 -22v-2q0 -10 -4 -19.5t-12 -14.5zM193 42q-10 0 -18.5 4t-14.5 12q-2 16 -10 28l-2 2q6 2 12 8q10 -15 28 -21l1 -1q4 -7 5 -16t-1 -16zM195 87h-1l-2 1q-14 5 -21 17 l-2 3q2 5 3 10l7 2q10 3 23 0l2 -1q9 -3 16 -10.5t10 -16.5q-7 -5 -16.5 -6.5t-18.5 1.5zM204 134v0q-14 4 -28 0l-3 -1q-1 10 -5 17l5 2q10 5 17 12l4 2q10 3 20 1.5t17 -7.5q-2 -9 -9.5 -16t-17.5 -10z" />
</svg>