<svg viewBox="0 0 256 256" xmlns="http://www.w3.org/2000/svg">
  <path transform="scale(1, -1) translate(0, -256)" fill="currentColor" d="M246 198q-2 1 -4.5 -0.5t-3.5 -3.5l-20 -59h-42q-9 0 -16 -6t-7 -15h-50q0 9 -7 15t-16 6h-42l-19 59q-1 2 -3.5 3.5t-5.5 0.5t-4 -3.5t0 -5.5l19 -58q-4 -3 -6.5 -8t-2.5 -11v-31q0 -9 7 -16t16 -7h42q10 0 16.5 7t6.5 16v19h50v-19q0 -10 6.5 -16.5t16.5 -6.5h42 q9 0 16 6.5t7 16.5v31q0 6 -2.5 10.5t-6.5 7.5l19 59q0 7 -6 9zM89 81q0 -4 -2.5 -6.5t-6.5 -2.5h-42q-3 0 -6 2.5t-3 6.5v31q0 4 3 6.5t6 2.5h42q4 0 7 -2.5t3 -6.5v-31h-1zM226 81q0 -4 -2.5 -6.5t-6.5 -2.5h-41q-4 0 -7 2.5t-3 6.5v31q0 4 3 6.5t7 2.5h42q3 0 6 -2.5 t3 -6.5v-31h-1z" />
</svg>