<svg viewBox="0 0 1024 1024" xmlns="http://www.w3.org/2000/svg">
  <path transform="scale(1, -1) translate(0, -960)" fill="currentColor" d="M512 779q7 0 11.5 4.5t4.5 11.5v117q0 7 -4.5 11.5t-11.5 4.5t-11.5 -4.5t-4.5 -11.5v-117q0 -7 4.5 -11.5t11.5 -4.5zM782 667q4 0 6.5 1.5t5.5 3.5l54 54q5 5 5 11.5t-5 11.5t-11.5 5t-10.5 -5l-55 -55q-5 -4 -5 -10.5t5 -11.5q3 -2 5.5 -3.5t5.5 -1.5v0zM946 429h-199 q-3 46 -22 86q-20 41 -51.5 70.5t-73.5 46.5q-41 18 -88 18t-88 -18q-42 -17 -73.5 -46.5t-51.5 -70.5q-19 -40 -22 -86h-199q-7 0 -11.5 -4.5t-4.5 -11.5t4.5 -11.5t11.5 -4.5h866q7 0 11.5 4.5t4.5 11.5t-4 11.5t-10 4.5zM512 618q40 0 76 -15q35 -15 62.5 -40.5 t44.5 -59.5q17 -35 20 -74h-406q3 39 20 74q17 34 44.5 59.5t62.5 40.5q36 15 76 15v0zM230 672q3 -2 6 -3.5t6 -1.5q2 0 5 1.5t6 3.5q5 5 5 11.5t-5 10.5l-55 55q-4 5 -10.5 5t-11.5 -5t-5 -11.5t5 -11.5l54 -54v0zM832 226h-640q-7 0 -11.5 -4.5t-4.5 -11.5q0 -8 4.5 -12 t11.5 -4h640q7 0 11.5 4t4.5 12q0 7 -4.5 11.5t-11.5 4.5zM704 0h-384q-7 0 -11.5 -4.5t-4.5 -11.5t4.5 -11.5t11.5 -4.5h384q7 0 11.5 4.5t4.5 11.5t-4.5 11.5t-11.5 4.5z" />
</svg>