<svg viewBox="0 0 1024 1024" xmlns="http://www.w3.org/2000/svg">
  <path transform="scale(1, -1) translate(0, -960)" fill="currentColor" d="M512 550q7 0 11.5 4.5t4.5 11.5v173q0 7 -4.5 11.5t-11.5 4.5t-11.5 -4.5t-4.5 -11.5v-174q0 -6 4.5 -10.5t11.5 -4.5zM802 430q3 0 5.5 1.5t5.5 3.5l59 59q5 5 5 11.5t-5 11.5t-11.5 5t-10.5 -5l-60 -59q-4 -5 -4 -11.5t4 -11.5q3 -2 5.5 -3.5t6.5 -1.5v0zM976 173h-213 q-3 49 -24 92t-54.5 74.5t-78.5 50.5q-44 18 -94 18t-94 -18q-44 -19 -78 -50.5t-55 -74.5t-24 -92h-213q-7 0 -11.5 -4.5t-4.5 -11.5t4.5 -11.5t11.5 -4.5h928q7 0 11.5 4.5t4.5 11.5t-4.5 11.5t-11.5 4.5zM512 376q43 0 82 -16q38 -16 67.5 -43t48.5 -65q18 -37 21 -79 h-438q3 42 21 79q19 38 48.5 65t67.5 43q39 16 82 16zM211 435q3 -2 6 -3.5t5 -1.5q3 0 6 1.5t6 3.5q4 5 4 11.5t-4 11.5l-58 57q-5 5 -11.5 5t-10.5 -5q-5 -5 -5 -11t5 -11l57 -58v0z" />
</svg>