<svg viewBox="0 0 1024 1024" xmlns="http://www.w3.org/2000/svg">
  <path transform="scale(1, -1) translate(0, -960)" fill="currentColor" d="M512 714q-44 0 -83 -17q-38 -17 -67 -46t-46 -68q-17 -38 -17 -82t17 -83q17 -38 46 -67t67 -46q39 -17 83 -17t83 17q38 17 67 46t46 67q17 39 17 83t-17 82q-17 39 -46 68t-67 46q-39 17 -83 17v0zM512 320q-74 0 -127.5 53t-53.5 128q0 74 53.5 127.5t127.5 53.5 t127.5 -53.5t53.5 -127.5q0 -75 -53.5 -128t-127.5 -53v0zM512 827q7 0 11.5 4.5t4.5 11.5v69q0 7 -4.5 11.5t-11.5 4.5t-11.5 -4.5t-4.5 -11.5v-69q0 -7 4.5 -11.5t11.5 -4.5zM792 803l-50 -49q-4 -5 -4 -11.5t4 -11.5q3 -2 6 -3.5t6 -1.5q2 0 5 1.5t6 3.5l49 50q5 5 5 11 t-5 11q-4 5 -10.5 5t-11.5 -5v0zM259 270l-49 -49q-5 -5 -5 -11.5t5 -11.5q2 -2 5 -3t6 -1q2 0 5.5 1t5.5 3l50 50q4 5 4 11.5t-4 10.5q-5 5 -11.5 5t-11.5 -5zM923 517h-69q-7 0 -11.5 -4.5t-4.5 -11.5t4.5 -11.5t11.5 -4.5h69q7 0 11.5 4.5t4.5 11.5t-5 11.5t-11 4.5z M170 517h-69q-7 0 -11.5 -4.5t-4.5 -11.5t4.5 -11.5t11.5 -4.5h69q7 0 11.5 4.5t4.5 11.5t-4.5 11.5t-11.5 4.5zM765 270q-5 5 -11.5 5t-11.5 -5q-4 -4 -4 -10.5t4 -11.5l50 -50q2 -2 5.5 -3t5.5 -1q3 0 6 1t5 3q5 5 5 11.5t-5 11.5l-49 49v0zM232 803q-5 5 -11.5 5 t-10.5 -5q-5 -5 -5 -11t5 -11l49 -50q3 -2 6 -3.5t5 -1.5q3 0 6 1.5t6 3.5q4 5 4 11.5t-4 11.5l-50 49v0zM525 171q-5 5 -11.5 5t-11.5 -5l-107 -107q-5 -5 -5 -11.5t5 -10.5q3 -3 6 -4t5 -1q3 0 6 1t6 4l78 78v-136q0 -7 4.5 -11.5t11.5 -4.5t11.5 4.5t4.5 11.5v138l78 -79 q5 -5 11.5 -5t11.5 5t5 11.5t-5 11.5z" />
</svg>