<svg viewBox="0 0 256 256" xmlns="http://www.w3.org/2000/svg">
  <path transform="scale(1, -1) translate(0, -256)" fill="currentColor" d="M128 150q3 0 5 2.5t2 5.5v43q0 3 -2 5t-5 2t-5 -2t-2 -5v-44q0 -3 2 -5t5 -2zM200 120q3 0 5 2l15 15q2 2 2 5t-2 5t-5 2t-5 -2l-15 -15q-2 -2 -2 -4.5t2.5 -5t4.5 -2.5zM244 62h-50q-3 25 -22 42t-44 17t-44 -17t-22 -42h-50q-3 0 -5 -2t-2 -5t2 -5t5 -2h232q3 0 5 2 t2 5t-2 5t-5 2zM128 107q20 0 34.5 -13t17.5 -32h-104q3 19 17.5 32t34.5 13zM51 122q2 -2 4.5 -2t5 2.5t2 5t-2.5 4.5l-14 15q-3 2 -5.5 2t-4.5 -2t-2 -5t2 -5z" />
</svg>