<svg viewBox="0 0 256 256" xmlns="http://www.w3.org/2000/svg">
  <path transform="scale(1, -1) translate(0, -256)" fill="currentColor" d="M128 198q-15 0 -28 -8t-20.5 -20.5t-7.5 -28t7.5 -28.5t20.5 -20.5t28 -7.5t28 7.5t20.5 20.5t7.5 28.5t-7.5 28t-20.5 20.5t-28 8zM128 99q-17 0 -29.5 12.5t-12.5 30t12.5 30t29.5 12.5t29.5 -12.5t12.5 -30t-12.5 -30t-29.5 -12.5zM128 220q3 0 5 2t2 5v17q0 3 -2 5 t-5 2t-5 -2t-2 -5v-17q0 -3 2 -5t5 -2zM188 195q3 0 5 2l13 12q2 2 2 5t-2 5t-5 2t-5 -2l-13 -12q-2 -2 -2 -5t2 -5t5 -2zM63 86l-13 -13q-2 -2 -2 -5t2 -5t5 -2t5 2l12 13q2 2 2.5 4.5t-1.5 5t-5 2.5t-5 -2zM231 148h-17q-3 0 -5.5 -2t-2.5 -5t2.5 -5t5.5 -2h17q3 0 5 2 t2 5t-2 5t-5 2zM42 148h-17q-3 0 -5 -2t-2 -5t2 -5t5 -2h17q3 0 5.5 2t2.5 5t-2.5 5t-5.5 2zM193 86q-2 2 -5 2t-5 -2.5t-2 -5t2 -4.5l13 -13q2 -2 4.5 -2t4.5 2t2 5t-2 5zM63 197q2 -2 4.5 -2t5 2t2.5 5t-3 5l-12 12q-2 2 -5 2t-5 -2t-2 -5t2 -5zM133 61q-2 2 -5 2t-5 -2 l-27 -27q-2 -2 -2 -5t2 -5t5 -2t5 2l14 14v-26q0 -3 2.5 -5t5.5 -2t5 2t2 5v27l14 -14q2 -2 5 -2t5 2t2 5t-2 5z" />
</svg>