<svg viewBox="0 0 1024 1024" xmlns="http://www.w3.org/2000/svg">
  <path transform="scale(1, -1) translate(0, -960)" fill="currentColor" d="M512 706q-46 0 -86 -18q-40 -17 -70 -47t-47 -70q-18 -41 -18 -86q0 -46 18 -86q17 -40 47 -70t70 -48q40 -17 86 -17t86 17q40 18 70 48t47 70q18 40 18 86t-18 86q-17 41 -47 70.5t-70 46.5q-40 18 -86 18v0zM512 298q-78 0 -133.5 55t-55.5 133t55.5 133.5t133.5 55.5 t133.5 -55.5t55.5 -133.5t-55.5 -133t-133.5 -55v0zM512 824q7 0 11.5 4.5t4.5 11.5v72q0 7 -4.5 11.5t-11.5 4.5t-11.5 -4.5t-4.5 -11.5v-72q0 -7 4.5 -11.5t11.5 -4.5zM802 798l-52 -51q-4 -5 -4 -11t4 -11q3 -3 6 -4t6 -1q2 0 5 1t6 4l51 51q5 5 5 11.5t-5 10.5 q-5 5 -11.5 5t-10.5 -5v0zM250 246l-52 -51q-4 -5 -4 -11t4 -11q3 -3 6 -4t6 -1q2 0 5 1t6 4l51 51q5 5 5 11.5t-5 10.5q-5 5 -11.5 5t-10.5 -5v0zM938 502h-72q-8 0 -12 -4t-4 -12q0 -7 4 -11.5t12 -4.5h72q7 0 11.5 4.5t4.5 11.5q0 8 -4.5 12t-11.5 4zM158 502h-72 q-7 0 -11.5 -4t-4.5 -12q0 -7 4.5 -11.5t11.5 -4.5h72q8 0 12 4.5t4 11.5q0 8 -5 12t-11 4zM774 246q-4 5 -10.5 5t-11.5 -5q-5 -4 -5 -10.5t5 -11.5l51 -51q3 -3 6 -4t5 -1q3 0 6 1t6 4q4 5 4 11t-4 11l-52 51v0zM222 798q-4 5 -10.5 5t-11.5 -5q-5 -4 -5 -10.5t5 -11.5 l51 -51q3 -3 6 -4t5 -1q3 0 6 1t6 4q4 5 4 11t-4 11l-52 51v0zM610 107l-82 -83v107q0 7 -4.5 11.5t-11.5 4.5t-11.5 -4.5t-4.5 -11.5v-110l-82 81q-4 5 -10.5 5t-11.5 -5q-5 -4 -5 -10.5t5 -11.5l109 -109q2 -2 4.5 -3.5t6.5 -1.5t6.5 1.5t4.5 3.5l112 112q5 5 5 11.5 t-5 11.5q-5 4 -13 5t-12 -4v0z" />
</svg>