<svg viewBox="0 0 256 256" xmlns="http://www.w3.org/2000/svg">
  <path transform="scale(1, -1) translate(0, -256)" fill="currentColor" d="M128 196q-16 0 -29 -8t-21 -21.5t-8 -29t8 -29t21 -21t29 -7.5t29 7.5t21 21t8 29t-8 29t-21 21.5t-29 8zM128 94q-18 0 -31 12.5t-13 31t13 31.5t31 13t31 -13t13 -31.5t-13 -31t-31 -12.5zM128 219q3 0 5 2t2 5v18q0 3 -2 5t-5 2t-5 -2t-2 -5v-18q0 -3 2 -5t5 -2z M190 193q3 0 5 2l13 13q2 2 2 5t-2 5t-5 2t-5 -2l-13 -13q-2 -2 -2 -5t2.5 -5t4.5 -2zM60 80l-12 -13q-2 -2 -2 -5t2 -5t4.5 -2t4.5 2l13 13q2 2 2 5t-2 5t-4.5 2t-5.5 -2zM234 144h-18q-3 0 -5 -2t-2 -5t2 -5t5 -2h18q3 0 5.5 2t2.5 5t-2.5 5t-5.5 2zM40 144h-18 q-3 0 -5.5 -2t-2.5 -5t2.5 -5t5.5 -2h18q3 0 5 2t2 5t-2.5 5t-4.5 2zM196 80q-2 2 -5 2t-5 -2t-2.5 -5t2.5 -5l12 -13q2 -2 5 -2t5 2t2 5t-2 5zM60 195q2 -2 5 -2t5 2t2 5t-2 5l-13 13q-2 2 -5 2t-5 -2t-2 -5t2 -5zM150 45l-15 -16v20q0 3 -2 5t-5 2t-5.5 -2t-2.5 -5v-21 l-14 16q-2 2 -5 2t-5 -2t-2.5 -5t2.5 -5l27 -27q2 -2 4.5 -2t4.5 2l28 28q2 2 2.5 5t-2 5t-5 2t-5.5 -2z" />
</svg>