<svg viewBox="0 0 1024 1024" xmlns="http://www.w3.org/2000/svg">
  <path transform="scale(1, -1) translate(0, -960)" fill="currentColor" d="M786 701h-548q-9 0 -15.5 -7.5t-6.5 -18.5v-133q0 -21 13 -36.5t32 -15.5h161q17 0 32.5 15.5t15.5 38.5v72h85v-72q0 -23 11.5 -38.5t28.5 -15.5h170q18 0 31.5 15.5t13.5 36.5v133q-2 11 -9 18.5t-15 7.5v0zM512 928q-99 0 -186 -38q-88 -38 -153 -103t-103 -153 q-38 -87 -38 -186t38 -186q38 -88 103 -153t153 -103q87 -38 186 -38t186 38q88 38 153 103t103 153q38 87 38 186t-38 186q-38 88 -103 153t-153 103q-87 38 -186 38zM512 0q-92 0 -174 35q-81 36 -142 97t-97 142q-35 82 -35 174t35 174q36 81 96.5 142t142.5 97 q82 35 174 35t174 -35q81 -36 142 -96.5t97 -142.5q35 -82 35 -174t-35 -174q-36 -81 -96.5 -142t-142.5 -97q-82 -35 -174 -35zM730 379h-436q-8 0 -15 -3.5t-12 -9.5t-7 -13t-1 -14q9 -45 32 -83q24 -38 57.5 -66t75.5 -43q42 -16 88 -16t88 16q42 15 75.5 43t56.5 66 q24 38 33 83q1 7 -0.5 14t-7.5 13q-5 6 -12 9.5t-15 3.5v0zM512 163q-40 0 -77 14q-36 14 -65.5 38t-50.5 58q-20 34 -28 74l1 1t2 1h437q1 0 1.5 -1t1.5 -2q-8 -40 -29 -73q-20 -34 -50 -58t-66 -38q-37 -14 -77 -14v0z" />
</svg>