<svg viewBox="0 0 256 256" xmlns="http://www.w3.org/2000/svg">
  <path transform="scale(1, -1) translate(0, -256)" fill="currentColor" d="M54 185v-33q0 -6 3 -10t8 -4h41q4 0 8 4.5t4 9.5v18h21v-18q0 -6 3 -10t7 -4h42q5 0 8 4t3 10v33q0 3 -1.5 4.5t-3.5 1.5h-137q-3 0 -4.5 -2t-1.5 -4zM128 5q-33 0 -61.5 16.5t-45 45t-16.5 61.5t16.5 61.5t45 45t61.5 16.5t61.5 -16.5t45 -45t16.5 -61.5t-16.5 -61.5 t-45 -45t-61.5 -16.5zM128 237q-30 0 -54.5 -15t-39.5 -39.5t-15 -54.5t15 -55t40 -39.5t54.5 -14.5t54.5 14.5t39.5 39.5t14.5 54.5t-14.5 54.5t-39.5 40t-55 15zM128 46q-24 0 -43 15t-23 39q-1 5 2.5 9.5t9.5 4.5h109q5 0 8.5 -4.5t2.5 -9.5q-4 -23 -23 -38.5t-43 -15.5z M76 100q5 -18 19.5 -29t32.5 -11t32.5 11t19.5 29h-104zM182 100z" />
</svg>