<svg viewBox="0 0 1024 1024" xmlns="http://www.w3.org/2000/svg">
  <path transform="scale(1, -1) translate(0, -960)" fill="currentColor" d="M490 648h-269q-7 0 -11.5 -4.5t-4.5 -11.5t4.5 -11.5t11.5 -4.5h269q7 0 11.5 4.5t4.5 11.5t-5 11.5t-11 4.5zM221 490h123q7 0 11.5 4t4.5 12q0 7 -4.5 11.5t-11.5 4.5h-123q-7 0 -11.5 -4.5t-4.5 -11.5q0 -8 4.5 -12t11.5 -4zM427 395h-208q-7 0 -11.5 -4.5t-4.5 -11.5 t4.5 -11.5t11.5 -4.5h208q7 0 11.5 4.5t4.5 11.5t-4.5 11.5t-11.5 4.5zM773 670q-24 3 -44.5 -7.5t-30.5 -30.5q-4 -6 -2 -12.5t8 -9.5q6 -4 12.5 -2t9.5 8q6 12 18 18t26 4q14 -1 24.5 -11.5t11.5 -23.5q2 -13 -4 -24t-18 -17q-16 -8 -25.5 -24t-9.5 -32v-21 q0 -7 4.5 -11.5t11.5 -4.5t11.5 4.5t4.5 11.5v21q0 7 5 15t12 12q21 9 32 30t8 43q-2 26 -21 44t-44 20v0zM765 384q-10 0 -17 -7t-7 -17t7 -17t17 -7q9 0 16.5 7t7.5 17t-7.5 17t-16.5 7zM885 797h-746q-44 0 -75.5 -31.5t-31.5 -75.5v-533q0 -16 8 -29.5t21 -20.5 q7 -3 14 -5.5t15 -2.5q7 0 14 2.5t14 5.5l186 106q2 1 5.5 2t7.5 1h568q44 0 75.5 31.5t31.5 75.5v367q0 44 -31.5 75.5t-75.5 31.5v0zM960 323q0 -31 -22 -53t-53 -22h-568q-7 0 -15 -2t-14 -6l-184 -106q-6 -3 -13 -3t-13 3q-7 4 -10.5 10t-3.5 13v533q0 31 22 53t53 22 h746q31 0 53 -22t22 -53v-367v0z" />
</svg>