<svg viewBox="0 0 1024 1024" xmlns="http://www.w3.org/2000/svg">
  <path transform="scale(1, -1) translate(0, -960)" fill="currentColor" d="M976 898h-928q-7 0 -11.5 -4.5t-4.5 -11.5v-236q0 -7 4.5 -11.5t11.5 -4.5h43v-518q0 -47 32.5 -79.5t79.5 -32.5h618q47 0 79.5 32.5t32.5 79.5v518h43q7 0 11.5 4.5t4.5 11.5v236q0 6 -4.5 11t-11.5 5v0zM901 110q0 -33 -23.5 -56.5t-56.5 -23.5h-618q-33 0 -56.5 23.5 t-23.5 56.5v520h778v-520zM960 662h-896v204h896v-204zM354 149h315q26 0 45 18.5t19 45.5v139q0 26 -19 45t-45 19h-315q-27 0 -45.5 -19t-18.5 -45v-139q0 -27 18.5 -45.5t45.5 -18.5v0zM322 352q0 13 9 22.5t23 9.5h315q13 0 22.5 -9.5t9.5 -22.5v-139q0 -13 -9.5 -22.5 t-22.5 -9.5h-315q-14 0 -23 9.5t-9 22.5v139v0z" />
</svg>