<svg viewBox="0 0 256 256" xmlns="http://www.w3.org/2000/svg">
  <path transform="scale(1, -1) translate(0, -256)" fill="currentColor" d="M174 250q-4 2 -8 0q-21 -11 -38 -35q-17 24 -38 35q-4 2 -8 0q-30 -15 -48 -53t-18 -85q0 -29 7.5 -56t21.5 -48q2 -3 7 -3h152q5 0 7 3q14 21 21.5 48t7.5 56q0 47 -18 85t-48 53zM86 236q22 -11 36 -37q5 -9 10 -22l-100 -36q4 33 18.5 58.5t35.5 36.5zM30 112v13 l106 38q5 -17 6 -34l-111 -40q-1 11 -1 23zM118 19h-64q-15 24 -21 56l110 39v-2q0 -24 -5.5 -46.5t-15.5 -40.5zM202 19h-68q11 19 17 43t6 49t-5.5 48.5t-15.5 42.5q14 24 34 34q25 -14 40.5 -48t15.5 -76q0 -26 -6 -50t-18 -43z" />
</svg>