<svg viewBox="0 0 1024 1024" xmlns="http://www.w3.org/2000/svg">
  <path transform="scale(1, -1) translate(0, -960)" fill="currentColor" d="M982 890l-4 14q-2 4 -5 7t-7 4l-14 5q-2 1 -48.5 7.5t-124.5 -7.5q-44 -8 -88.5 -25t-87.5 -41q-54 -28 -106.5 -68.5t-102.5 -91.5q-2 -1 -4 -3l-3 -3v0v0q-52 -54 -95 -107t-77 -102t-59 -92q-26 -43 -44 -78q-40 -78 -56 -126.5t-18 -51.5l-6 -25q-1 -6 1.5 -11.5 t9.5 -8.5l82 -27l27 -81q1 -4 5.5 -7t8.5 -3h3h2l24 6q3 0 51.5 16.5t126.5 57.5q35 18 78 43q43 26 91.5 59.5t100.5 76.5q52 42 106 95v0v0q2 2 4.5 3.5t3.5 4.5q50 50 90.5 102.5t69.5 106.5q24 43 40 88t25 88q16 79 9 125.5t-9 49.5v0zM549 416q-4 28 -23.5 47.5 t-47.5 22.5l-198 28q26 34 57.5 70t67.5 74l246 -24q18 -2 31 -14.5t14 -30.5l24 -250q-37 -36 -73 -67t-71 -58zM358 77q-75 -40 -121.5 -55.5t-49.5 -15.5l-11 -3l-24 74q-1 3 -3.5 5.5t-6.5 3.5l-75 26l3 10q0 2 16 48.5t55 122.5q19 38 48 86.5t69 103.5l214 -30 q17 -3 29 -15t14 -28l31 -218q-53 -38 -101 -66.5t-87 -48.5v0zM952 723q-8 -42 -24 -83.5t-38 -82.5q-27 -48 -62 -95t-79 -92l-21 222q-2 29 -23.5 50t-50.5 24l-219 20q46 44 92.5 79t94.5 61q42 22 84 38t83 24q53 11 90 9t54 -6l-71 -70q-4 -5 -4 -11.5t4 -11.5 q3 -2 6 -3t6 -1q2 0 5 1t6 3l70 71q4 -17 5.5 -54.5t-8.5 -91.5v0z" />
</svg>