<svg viewBox="0 0 1024 1024" xmlns="http://www.w3.org/2000/svg">
  <path transform="scale(1, -1) translate(0, -960)" fill="currentColor" d="M688 926q-5 3 -9.5 3t-9.5 -3q-45 -22 -85 -60t-72 -90q-32 52 -72 90t-85 60q-5 2 -10 2t-9 -2q-59 -29 -107 -83q-49 -54 -83.5 -125t-52.5 -156q-19 -86 -19 -178q0 -58 7 -114t22 -107.5t36 -98.5q22 -46 50 -86q2 -5 7.5 -7.5t9.5 -2.5h612q4 0 9.5 2.5t7.5 7.5 q28 40 49 87q22 47 36.5 99t22.5 107q7 55 7 113q0 92 -19 178q-18 85 -52.5 156t-83.5 125q-48 54 -107 83v0zM346 894q44 -22 83 -62.5t70 -95.5q13 -24 24 -49t21 -52l-432 -153q8 71 29 135q20 65 50 118.5t69 94.5q39 40 86 64v0zM106 384q0 16 1 31.5t2 30.5l445 159 q10 -39 18 -79.5t10 -82.5l-468 -168q-4 27 -6 54t-2 55v0zM478 0h-267q-35 52 -58 113.5t-35 129.5l466 167v-12.5v-13.5q0 -49 -6 -96q-5 -47 -16 -92t-27 -86t-37 -78q-5 -8 -10 -16.5t-10 -15.5v0zM813 0h-296q2 4 4.5 8t4.5 8q22 38 39 82q17 43 28.5 90t17.5 96 q7 50 7 100q0 49 -6 97q-6 49 -17 94.5t-27 88.5q-16 42 -37 80q30 52 68 90t81 60q54 -28 98 -78q44 -51 75.5 -118t49.5 -147q17 -80 17 -167q-1 -55 -8 -107t-21 -101t-33 -93q-20 -45 -45 -83z" />
</svg>