<svg viewBox="0 0 256 256" xmlns="http://www.w3.org/2000/svg">
  <path transform="scale(1, -1) translate(0, -256)" fill="currentColor" d="M208 66h-19q3 9 5 25l1 1q2 18 2 30v2q0 20 -4.5 35.5t-10.5 24t-12 14.5q-5 3 -7 4l-1 1q-3 2 -7 0l-2 -1q-2 -1 -6 -4q-6 -6 -12 -14q-6 -9 -10 -20q-6 11 -14 19q-10 11 -21 15h-2q-3 2 -6 -1l-1 -1q-9 -8 -15 -21q-5 -10 -7 -25q-2 -18 2 -37q4 -24 14 -47h-27 q-3 0 -5 -2t-2 -5t2 -5t5 -2h159q3 0 5 2t2 5t-1.5 5t-4.5 2zM142 66q-4 12 -6 24l19 14q1 1 3 0.5t3 -0.5l19 -15q-2 -12 -5 -23h-33zM182 105l-12 10q-5 4 -11.5 4t-11.5 -4l-13 -9v14l21 17q3 3 7 0l21 -18zM138 156q4 13 9 20.5t11 11.5q5 -3 11.5 -12t9 -18.5 t3.5 -19.5l-12 10q-6 4 -12.5 4t-11.5 -4l-12 -10zM75 116q-3 18 -1 32q1 12 5 21.5t9 14.5q7 -3 14 -10t12 -18q3 -6 7 -17l-1 -17q1 -29 7 -52v0l1 -4h-12l-11 62q0 3 -2.5 4.5t-5.5 1t-4.5 -3t-0.5 -5.5l10 -59h-11q-11 21 -16 50z" />
</svg>