<svg viewBox="0 0 256 256" xmlns="http://www.w3.org/2000/svg">
  <path transform="scale(1, -1) translate(0, -256)" fill="currentColor" d="M249 239l-1 4q-2 3 -5 5l-4 1q-20 5 -43.5 0t-45.5 -17q-27 -15 -53 -41l-3 -3q-42 -42 -68 -94q-12 -22 -19 -43l-2 -7q0 -3 1 -5.5t4 -3.5l18 -6l7 -19q0 -2 2 -3.5t5 -1.5l8 2q1 0 13 4q15 6 32 15q50 25 94 68l3 3q25 26 41 53q12 23 16 45q5 25 0 44v0zM146 75 l-6 45q-1 8 -6.5 14t-13.5 6l-44 6q14 18 26 31l60 -5q4 -1 6.5 -3.5t2.5 -5.5l6 -61q-14 -14 -31 -27zM88 38q-20 -11 -40 -17l-2 -1l-5 16q-1 4 -5 5l-16 5l1 2q6 20 17 40q12 24 28 46l52 -8q3 0 5.5 -2.5t2.5 -5.5l7 -52q-21 -15 -45 -28zM235 198q-5 -22 -15 -41 q-12 -22 -31 -42l-4 49q-1 8 -7 14t-14 7l-48 5q20 19 41 30t41 15q16 3 29 2l-13 -13q-2 -2 -2.5 -5t2 -5t5 -2t4.5 2l13 13q2 -13 -1 -29z" />
</svg>