<svg viewBox="0 0 1024 1024" xmlns="http://www.w3.org/2000/svg">
  <path transform="scale(1, -1) translate(0, -960)" fill="currentColor" d="M982 890l-4 14q-2 4 -5 7t-7 4l-14 5q-2 1 -48.5 7.5t-124.5 -7.5q-44 -8 -88.5 -25t-87.5 -41q-24 -13 -47 -27.5t-47 -32.5h-0.5h-1.5q-29 -22 -58 -47t-57 -53q-55 -54 -99 -108q-44 -53 -78.5 -102.5t-60.5 -93.5q-27 -44 -45 -80q-41 -78 -57 -126.5t-17 -50.5 l-3 -27q-1 -6 1.5 -11.5t9.5 -8.5l82 -27l27 -81q1 -4 5.5 -7t8.5 -3h3h2l24 6q3 0 51.5 16.5t126.5 57.5q28 14 61 33q34 19 71 43.5t77 54.5t82 66v0v0q23 19 46 40.5t47 44.5q50 50 90.5 102.5t69.5 106.5q24 43 40 88t25 88q16 79 9 125.5t-9 49.5v0zM418 670 q22 23 46 43.5t46 40.5l125 -490q-60 -52 -116.5 -90t-104.5 -65l-110 435q25 31 53 62.5t61 63.5zM358 77q-75 -40 -121.5 -55.5t-49.5 -15.5l-11 -3l-24 74q-1 3 -3.5 5.5t-6.5 3.5l-75 26l3 10q0 2 16 48.5t55 122.5q23 43 57 99t80 118l108 -419q-8 -3 -15 -7t-13 -7v0z M952 723q-8 -42 -24 -83.5t-38 -82.5q-28 -52 -67 -103t-89 -100q-18 -18 -35.5 -35t-34.5 -33l-125 487q21 14 41 27t41 24q42 23 83.5 38.5t82.5 23.5q54 11 90.5 9t53.5 -5l-70 -71q-5 -5 -5 -11t5 -11q2 -3 5.5 -4t5.5 -1t5.5 1t5.5 4l71 70q4 -15 6 -52.5t-8 -91.5v0z " />
</svg>