<svg viewBox="0 0 1024 1024" xmlns="http://www.w3.org/2000/svg">
  <path transform="scale(1, -1) translate(0, -960)" fill="currentColor" d="M976 64h-141q9 29 19 67q9 37 17 81.5t13 95.5t6 108v0v0v4.5v5.5q0 55 -7 106t-21 97q-10 37 -25.5 70.5t-34.5 62.5q-35 50 -64.5 72t-31.5 24l-10 4q-4 3 -8 3t-8 -3l-10 -4q-1 -2 -31 -23.5t-65 -72.5q-19 -29 -34.5 -62.5t-25.5 -70.5q-4 -11 -6.5 -22t-5.5 -23 q-4 13 -10 25.5t-12 24.5q-18 34 -38.5 64t-44.5 56q-42 43 -74.5 59t-36.5 17l-11 4q-3 1 -7.5 0t-8.5 -4l-8 -6l-26 -26.5t-52 -83.5q-12 -32 -21.5 -67.5t-13.5 -73.5q-5 -47 -3.5 -98.5t12.5 -106.5q9 -49 20 -92q11 -44 24 -82t26 -71q14 -33 26 -59h-195 q-7 0 -11.5 -4.5t-4.5 -11.5t4.5 -11.5t11.5 -4.5h219v0v0h0.5h1.5h707q7 0 11.5 4.5t4.5 11.5t-4.5 11.5t-11.5 4.5v0zM848 269l-109 81q-23 17 -52 17t-52 -17l-107 -81q-4 32 -7 67t-3 72l135 110q14 12 33.5 12t35.5 -12l136 -112q0 -37 -3 -71t-7 -66v0zM573 69 q-10 31 -20.5 72.5t-18.5 92.5l122 91q14 11 32.5 11t33.5 -11l123 -93q-9 -50 -19 -91t-20 -72v-2.5v-2.5h-232v2.5t-1 2.5v0zM602 744q31 46 57 65.5t27 19.5l2 1l3 -1l27 -19.5t58 -65.5q18 -26 32.5 -58t25.5 -67q12 -38 18 -81t7 -90l-117 96q-24 19 -54 19t-54 -19 l-114 -93q1 46 7.5 88.5t18.5 81.5q9 33 23.5 64t32.5 59v0zM178 373q-10 53 -11.5 102.5t3.5 94.5q3 36 12.5 69t22.5 63q23 52 45 75t24 23l1 2l3 -2q2 0 31 -14.5t67 -54.5q23 -23 42.5 -51t35.5 -61q12 -23 22 -49t18 -55q-2 -21 -3 -44t-1 -45q0 -59 4 -111 q5 -53 13 -98.5t18 -84.5q9 -38 19 -68h-120l-67 376q-1 6 -6.5 10t-12.5 3q-6 -1 -10 -6.5t-3 -12.5l64 -370h-111q-12 25 -26 58q-14 32 -27.5 71t-25.5 84t-21 96v0z" />
</svg>