<svg viewBox="0 0 1024 1024" xmlns="http://www.w3.org/2000/svg">
  <path transform="scale(1, -1) translate(0, -960)" fill="currentColor" d="M77 670q-4 4 -6.5 8.5t-3.5 9.5v0v0h653q7 0 11.5 4.5t4.5 11.5t-4.5 11.5t-11.5 4.5h-653v0v0q1 5 3.5 9.5t6.5 8.5l125 148q4 5 3.5 12t-5.5 11q-6 3 -12.5 3t-11.5 -5l-125 -149q-19 -22 -19 -53t19 -54l125 -149q2 -2 5.5 -4t7.5 -2q2 0 5 1t4 2q5 5 6 11.5t-4 11.5 l-123 148v0zM973 246l-125 149q-5 5 -11.5 6t-10.5 -4q-5 -5 -6 -11.5t4 -11.5l125 -148q3 -4 5.5 -8.5t3.5 -9.5v0v0h-654q-7 0 -11.5 -4.5t-4.5 -11.5t4.5 -11.5t11.5 -4.5h653v0v0q-1 -5 -3.5 -9.5t-6.5 -8.5l-125 -148q-4 -5 -3.5 -12t5.5 -11q2 -2 5.5 -2.5t5.5 -0.5 q4 0 7.5 1.5t5.5 4.5l125 149q19 23 19 53t-19 54v0z" />
</svg>