<svg viewBox="0 0 1024 1024" xmlns="http://www.w3.org/2000/svg">
  <path transform="scale(1, -1) translate(0, -960)" fill="currentColor" d="M438 138l-148 -125q-4 -4 -8.5 -6.5t-9.5 -3.5v653q0 7 -4.5 11.5t-11.5 4.5t-11.5 -4.5t-4.5 -11.5v-653q-5 1 -9.5 3.5t-8.5 6.5l-148 125q-5 4 -12 3.5t-11 -5.5q-3 -6 -3 -12.5t5 -11.5l149 -125q12 -9 26 -14t28 -5t28 5t26 14l149 125q5 5 6 11.5t-4 10.5 q-5 6 -11.5 6.5t-11.5 -2.5v0zM971 784l-149 125q-22 19 -53 19t-54 -19l-150 -125q-5 -5 -6 -11.5t4 -10.5q3 -3 6 -5t7 -2q2 0 5 1t5 2l148 125q4 4 8.5 6.5t9.5 3.5v-653q0 -7 4.5 -11.5t11.5 -4.5t11.5 4.5t4.5 11.5v653q5 -1 9.5 -3.5t8.5 -6.5l148 -125q5 -4 12 -3.5 t11 5.5q3 6 3 12.5t-5 11.5z" />
</svg>