<svg viewBox="0 0 1024 1024" xmlns="http://www.w3.org/2000/svg">
  <path transform="scale(1, -1) translate(0, -960)" fill="currentColor" d="M691 928h-358q-34 0 -57 -23t-23 -57v-800q0 -34 23 -57t57 -23h360q33 0 56.5 23t23.5 57v800q-1 34 -24.5 57t-57.5 23zM333 896h360q20 0 34 -14t14 -34v-125h-456v125q0 20 13.5 34t34.5 14v0zM285 518v173h456v-173h-456v0zM739 486v-172h-454v172h454v0zM691 0 h-358q-21 0 -34.5 14t-13.5 34v235h456v-235q-1 -20 -15 -34t-35 -14zM512 208q-29 0 -49 -20t-20 -49t20 -49t49 -20t49 20t20 49t-20 49t-49 20v0zM512 102q-16 0 -26.5 11t-10.5 26q0 16 10.5 26.5t26.5 10.5t26.5 -10.5t10.5 -26.5q0 -14 -10.5 -25.5t-26.5 -11.5v0z " />
</svg>