<svg viewBox="0 0 256 256" xmlns="http://www.w3.org/2000/svg">
  <path transform="scale(1, -1) translate(0, -256)" fill="currentColor" d="M173 251h-90q-9 0 -16 -6.5t-7 -16.5v-200q0 -10 7 -16.5t16 -6.5h90q10 0 16.5 6.5t6.5 16.5v200q0 10 -7 16.5t-16 6.5zM83 237h90q4 0 6.5 -3t2.5 -6v-28h-108v28q0 4 2.5 6.5t6.5 2.5zM74 149v37h108v-37h-108zM182 135v-37h-108v37h108zM173 19h-90q-3 0 -6 2.5 t-3 6.5v56h108v-56q0 -4 -2.5 -6.5t-6.5 -2.5zM128 64q-5 0 -9 -4t-4 -9.5t4 -9t9 -3.5t9 3.5t4 9t-4 9.5t-9 4z" />
</svg>