<svg viewBox="0 0 1024 1024" xmlns="http://www.w3.org/2000/svg">
  <path transform="scale(1, -1) translate(0, -960)" fill="currentColor" d="M1010 669v15v14q0 16 -1.5 32t-5.5 33q-1 17 -7 32.5t-14 28.5q-15 29 -38 53t-54 40q-16 7 -31 12.5t-32 8.5q-17 1 -33 3.5t-32 2.5h-15.5h-13.5h-439h-14.5h-13.5h-8.5h-9.5q-13 0 -24.5 -1t-25.5 -4q-12 -1 -24 -4.5t-24 -8.5q-3 -1 -7.5 -3t-8.5 -3 q-10 -7 -20 -14.5t-20 -15.5q-3 -2 -6 -5t-8 -7q-12 -12 -21 -24t-17 -27t-13.5 -30t-7.5 -32q-3 -17 -4 -33t-3 -33v-15v-14v-441v-15v-14q0 -17 1.5 -33t5.5 -33q1 -16 7 -32t14 -30q15 -30 38 -53.5t54 -39.5q16 -7 31 -12.5t32 -8.5q17 -1 33 -3.5t32 -2.5h15.5h13.5 h442h15h14q16 0 32 1.5t33 4.5q17 2 32.5 8t30.5 13q28 16 52.5 39t39.5 54q8 16 13.5 31t7.5 31q3 17 5 33t2 33v15v14v405v17v18zM854 136q-33 64 -84.5 62t-83.5 -19q-1 -1 -4 -3t-7 -3h-3q-32 -18 -70 -27q-37 -10 -78.5 -10t-85.5 10q-44 9 -88 28q-72 33 -131 83.5 t-101 116.5q21 -15 42.5 -28t45.5 -23q48 -22 94 -32q46 -11 89.5 -10.5t83.5 11.5q39 11 73 31q-48 36 -91 77t-81.5 83t-73.5 84t-66 79q-12 14 -22.5 27.5t-21.5 28.5q36 -33 81 -68q44 -36 87 -68t79 -57q37 -25 57 -35q-43 45 -83 94q-39 48 -68.5 87.5t-46.5 64.5 q-17 24 -16 21q68 -69 132 -123q63 -54 111.5 -91t77.5 -56l29 -20q5 -1 9 -4t7 -5q2 7 5 13.5t5 13.5q11 39 11 82q0 42 -10 84t-30 84q-20 41 -48 78q64 -38 114 -91q50 -54 80.5 -115t40.5 -126q10 -66 -6 -127q-1 -2 -1.5 -5t-0.5 -7q62 -73 59.5 -138.5t-11.5 -51.5v0z " />
</svg>