<svg viewBox="0 0 256 256" xmlns="http://www.w3.org/2000/svg">
  <path transform="scale(1, -1) translate(0, -256)" fill="currentColor" d="M252 183v7q0 9 -1 16t-5 16q-9 16 -24 23q-9 5 -15 5l-17 2h-128q-6 0 -12 -1t-12 -3l-4 -2q-6 -4 -10 -8l-4 -2q-5 -6 -9.5 -14.5t-5.5 -14.5l-1 -16v-125q0 -9 1 -15.5t5 -16.5q9 -16 24 -23q9 -5 15 -5l17 -2h124q9 0 16 1t16 6q16 8 24 23q4 9 5 16v1q1 10 1 15v117z M214 50q-8 14 -22 15q-10 1 -20 -4q-1 -1 -3 -2h-1q-16 -9 -37.5 -9t-42.5 10q-37 16 -58 50q11 -9 22 -13q23 -11 45 -11t39 11q-20 15 -41 38q-13 14 -34 40l-3 3q-4 5 -10 14q17 -16 41 -34t35 -24q-23 24 -51 63q-3 5 -3 4q28 -29 61 -53q16 -13 27 -19v0q1 0 3 -2l1 -1 l2 7q5 20 0 41.5t-19 40.5q21 -12 36 -31.5t20.5 -41t0.5 -42.5v-2q7 -9 10.5 -18t4 -16.5t-0.5 -11.5t-2 -2z" />
</svg>