<svg viewBox="0 0 1024 1024" xmlns="http://www.w3.org/2000/svg">
  <path transform="scale(1, -1) translate(0, -960)" fill="currentColor" d="M936 136l-112 -82q-12 -8 -26 -8t-25 8l-77 56q-20 15 -44.5 15t-45.5 -15l-78 -56q-12 -8 -26 -8t-25 8l-77 56q-20 15 -44.5 15t-45.5 -15l-76 -56q-12 -8 -26.5 -8t-25.5 8l-112 82q-4 4 -11 3t-11 -6t-3 -12t6 -11l112 -81q21 -15 45 -15t45 15l77 56q12 8 26 8 t25 -8l77 -56q20 -15 44.5 -15t44.5 15l77 56q12 8 26 8t25 -8l77 -56q10 -7 21.5 -11t23.5 -4t23 4t22 11l112 81q4 4 5 10.5t-2 12.5q-4 6 -10 6.5t-11 -3.5v0zM976 653h-323v80q0 62 -44 106t-107 44q-62 0 -106 -44.5t-44 -107.5v-80h-304q-7 0 -11.5 -4.5t-4.5 -11.5 t4.5 -11.5t11.5 -4.5h304v-296q-11 0 -22 -3.5t-20 -10.5l-76 -56q-12 -9 -26.5 -9t-25.5 9l-112 81q-4 4 -11 3t-11 -6t-3 -12t6 -10l112 -82q21 -14 45 -14t45 14l77 56q12 9 26 9t25 -9l77 -56q20 -14 44.5 -14t44.5 14l77 56q12 9 26 9t25 -9l77 -56q10 -7 21.5 -10.5 t23.5 -3.5t23 3.5t22 10.5l112 82q4 3 5 9.5t-2 12.5q-4 6 -10.5 6.5t-12.5 -3.5l-112 -81q-12 -9 -26 -9t-25 9l-77 56q-9 7 -19.5 10.5t-21.5 3.5v298h323q7 0 11.5 4.5t4.5 11.5t-4.5 11.5t-11.5 4.5v0zM384 731q0 49 34.5 84t83.5 35q50 0 84.5 -35t34.5 -84v-80h-237 v80v0zM621 416h-237v86h235v-86h2zM528 254q-12 -8 -26 -8t-25 8l-77 56q-4 3 -7.5 5t-6.5 3v66h235v-66q-4 -1 -7.5 -3t-7.5 -5zM621 534h-237v87h235v-87h2z" />
</svg>