<svg viewBox="0 0 1024 1024" xmlns="http://www.w3.org/2000/svg">
  <path transform="scale(1, -1) translate(0, -960)" fill="currentColor" d="M227 734v-96v0v0v0v0v-212v0v0v0v0v-122q-20 -1 -39 -8.5t-36 -21.5l-72 -64q-5 -5 -5.5 -11.5t3.5 -11.5q5 -5 11.5 -5.5t11.5 4.5l72 60q26 23 61.5 23t63.5 -23q36 -30 82 -30t82 30q28 23 63 23t62 -23q36 -30 82.5 -30t82.5 30q28 23 62.5 23t62.5 -23l72 -60 q2 -3 4.5 -3.5t4.5 -0.5q4 0 7.5 1.5t5.5 5.5q5 5 4 12t-5 10l-72 61q-36 30 -82.5 30t-82.5 -30q-27 -23 -62 -23t-63 23q-1 1 -3 2.5t-3 2.5v421q0 48 -19 90q-18 42 -49.5 73t-72.5 49q-42 18 -90 18h-8q-7 0 -11.5 -4.5t-4.5 -11.5t4.5 -11.5t11.5 -4.5h8q41 0 77 -15 q36 -16 63 -43t43 -63t16 -77v-45h-311v80q0 41 -15 76q-16 36 -42.5 62.5t-61.5 41.5q-36 15 -76 15q-6 0 -11 -4.5t-5 -11.5t4.5 -11.5t11.5 -4.5q67 0 115 -47t48 -115v0zM442 270q-27 -22 -62.5 -22t-62.5 22q-13 11 -27.5 18t-30.5 10v108h311v-115q-33 13 -67 7.5 t-61 -28.5v0zM570 621v-183h-311v183h311zM898 58q-36 30 -82.5 30t-82.5 -30v0v0q-27 -23 -62 -23t-61 23q-36 30 -82.5 30t-82.5 -30q-27 -23 -62 -23t-63 23q-36 30 -82.5 30t-82.5 -30l-75 -61q-5 -5 -5.5 -11.5t3.5 -11.5q5 -4 11.5 -5t11.5 4l72 61q26 22 61.5 22 t63.5 -22q36 -30 82 -30t82 30q28 22 63 22t62 -22q36 -30 82.5 -30t82.5 30v0v0q26 22 61.5 22t61.5 -22l72 -61q3 -3 5 -3h5t6.5 1t6.5 5q4 5 3.5 12t-5.5 10l-70 60v0z" />
</svg>