<svg viewBox="0 0 256 256" xmlns="http://www.w3.org/2000/svg">
  <path transform="scale(1, -1) translate(0, -256)" fill="currentColor" d="M54 200v-105q-10 -1 -18 -8l-18 -15q-2 -2 -2.5 -5t1.5 -5.5t5 -2.5t5 2l18 15q6 5 13.5 5t13.5 -5q10 -8 22.5 -8t22.5 8q6 5 13.5 5t13.5 -5q10 -8 23 -8t23 8q6 5 13.5 5t13.5 -5l18 -15q2 -2 5 -2t5 2.5t1.5 5t-2.5 5.5l-18 15q-10 8 -22.5 8t-22.5 -8 q-6 -5 -13.5 -5t-13.5 5h-1v104q0 17 -8 30.5t-22 22t-30 8.5h-2q-3 -1 -5 -3t-2 -5t2 -5t5 -2h2q19 0 33 -13.5t14 -33.5v-8h-72v18q0 21 -15 36t-37 15q-3 0 -5 -2t-2 -5t2 -5t5 -2q16 0 27 -11t11 -26zM108 86q-6 -5 -13.5 -5t-13 4.5t-13.5 7.5v22h71v-21q-8 1 -16 -1 t-15 -7zM139 168v-39h-71v39h71zM226 32q-10 9 -22.5 9t-22.5 -9q-6 -4 -13.5 -4t-13.5 4q-10 9 -22.5 9t-22.5 -9q-6 -5 -13.5 -5t-13.5 5q-10 8 -23 8t-23 -8l-18 -15q-2 -2 -2 -4.5t1.5 -5t5 -2.5t4.5 1l18 16q6 5 13.5 5t13.5 -5q10 -8 23 -8t23 8q6 5 13.5 5t13.5 -5 q10 -9 22.5 -9t22.5 9q6 4 13.5 4t13.5 -4l18 -16q2 -1 5 -1t5 2t2 5t-3 5z" />
</svg>