<svg viewBox="0 0 1024 1024" xmlns="http://www.w3.org/2000/svg">
  <path transform="scale(1, -1) translate(0, -960)" fill="currentColor" d="M829 366q-5 5 -11.5 5t-11.5 -5q-4 -4 -4 -10.5t4 -11.5l149 -155l0.5 -1t1.5 -1l-909 -3q-7 0 -11.5 -5t-4.5 -11q0 -7 4.5 -11.5t11.5 -4.5v0v0l907 3v0v0l-149 -160q-4 -5 -4 -11t6 -11q2 -3 5 -4t6 -1q4 0 6.5 1t4.5 4l149 160q13 15 13 37.5t-13 39.5l-150 156v0z M195 523q3 -2 6 -3.5t5 -1.5q3 0 6 1.5t6 3.5q4 5 4 11.5t-4 11.5l-149 155l-0.5 0.5t-1.5 0.5l909 5q7 0 11.5 5t4.5 11q0 7 -4.5 11.5t-11.5 4.5v0v0l-907 -3v0v0l157 165q4 5 4 11t-4 11q-5 5 -11.5 5t-11.5 -5l-158 -166q-13 -16 -13 -38t13 -39l150 -157v0z" />
</svg>