<svg viewBox="0 0 256 256" xmlns="http://www.w3.org/2000/svg">
  <path transform="scale(1, -1) translate(0, -256)" fill="currentColor" d="M244 81h-9q5 11 12 21q2 4 -0.5 8t-6.5 3q-11 -1 -26 -6q-3 31 -19.5 58.5t-41 46t-52.5 22.5q-5 1 -7 -3t0 -8q6 -8 12 -21q10 -22 15 -46q-16 13 -37 22.5t-38 11.5q-5 1 -7 -3t0 -7q18 -27 26 -65q-13 7 -27.5 12.5t-24.5 7.5q-5 1 -7 -3t0 -8q12 -17 20 -42h-8 q-3 0 -5.5 -2.5t-2.5 -5.5v-44q0 -3 2.5 -5.5t5.5 -2.5h226q3 0 5 2.5t2 5.5v44q0 3 -2 5t-5 2zM227 96q-5 -10 -7 -15h-25q8 5 16 9zM201 101q-14 -7 -30 -20h-35l1 3q6 35 -2 73q-6 32 -21 59q23 -7 42 -24t31 -41t14 -50zM125 134q2 -23 -2 -48l-1 -5h-39q-1 13 -2 20v2 q-4 37 -21 70q17 -6 35 -16.5t30 -22.5zM27 116q24 -8 41 -20q1 -7 1 -15h-29q-4 18 -13 35zM237 36h-213v31h213v-31z" />
</svg>