<svg viewBox="0 0 1024 1024" xmlns="http://www.w3.org/2000/svg">
  <path transform="scale(1, -1) translate(0, -960)" fill="currentColor" d="M976 248h-53q12 28 26.5 54t29.5 48q3 4 3 9t-3 9q-2 4 -6.5 6t-9.5 2q-26 -4 -52.5 -10.5t-51.5 -15.5q-2 -1 -4.5 -2t-6.5 -1q-9 94 -48 182q-39 87 -99 156.5t-136 115.5q-77 46 -162 58q-5 1 -9 -1t-7 -7q-2 -3 -2 -8.5t2 -8.5q4 -7 19 -32q15 -24 33 -64t35 -93 q18 -53 28 -117q-32 28 -72 54t-82.5 46.5t-84.5 34.5q-43 15 -81 20q-4 1 -8.5 -1t-7.5 -7q-2 -3 -2 -8.5t2 -8.5q41 -60 68.5 -133.5t42.5 -156.5q-48 28 -113 56t-114 35q-5 1 -9.5 -1t-6.5 -7q-3 -3 -3 -8.5t3 -8.5q27 -41 48.5 -89t37.5 -102h-50q-7 0 -11.5 -4.5 t-4.5 -11.5v-179q0 -7 4.5 -11.5t11.5 -4.5h906q7 0 11.5 4.5t4.5 11.5v184q0 7 -4.5 11.5t-11.5 4.5v0zM870 320q16 6 31.5 10.5t31.5 7.5q-12 -21 -23 -43.5t-22 -46.5h-147q18 14 44 30t55 29v0h2q7 4 14 7.5t14 5.5zM818 333q-46 -22 -81 -48t-47 -37h-157q0 4 0.5 7.5 t0.5 6.5l2 12q14 81 10 159t-20 148.5t-40 131.5q-25 61 -52 108q75 -18 141 -64q67 -46 119 -111.5t84 -145.5q33 -81 40 -167v0zM509 480q1 0 1 -0.5t-1 0.5q5 -47 4 -97.5t-9 -104.5l-2 -11q0 -5 -0.5 -9.5t-0.5 -7.5h-31v0v0h-147q-1 24 -3 47t-5 45v2v2q-5 42 -14 82 q-10 40 -22.5 78t-28.5 74q-15 36 -34 68q37 -10 78 -28q41 -17 80 -39t74 -48t61 -53v0zM82 422q49 -14 106.5 -41t94.5 -51q3 -21 4 -41.5t3 -40.5h-135q-14 48 -32.5 92t-40.5 82v0zM960 69h-874v147h874v-147z" />
</svg>