<svg viewBox="0 0 1024 1024" xmlns="http://www.w3.org/2000/svg">
  <path transform="scale(1, -1) translate(0, -960)" fill="currentColor" d="M928 928h-832q-26 0 -45 -19t-19 -45v-832q0 -26 19 -45t45 -19h832q26 0 45 19t19 45v832q0 26 -19 45t-45 19zM960 32q0 -13 -9.5 -22.5t-22.5 -9.5h-832q-13 0 -22.5 9.5t-9.5 22.5v832q0 13 9.5 22.5t22.5 9.5h832q13 0 22.5 -9.5t9.5 -22.5v-832zM698 539 q0 77 -54.5 131.5t-131.5 54.5t-131.5 -54.5t-54.5 -131.5q0 -73 49.5 -125.5t120.5 -59.5v-84h-107q-7 0 -11.5 -4t-4.5 -12q0 -7 4.5 -11.5t11.5 -4.5h107v-92q0 -8 4.5 -12t11.5 -4t11.5 4t4.5 12v92h107q7 0 11.5 4.5t4.5 11.5q0 8 -4.5 12t-11.5 4h-107v84 q71 6 120.5 59t49.5 126zM358 539q0 64 45 109t109 45t109 -45t45 -109q0 -63 -45 -108t-109 -45t-109 45t-45 108v0z" />
</svg>