<svg viewBox="0 0 256 256" xmlns="http://www.w3.org/2000/svg">
  <path transform="scale(1, -1) translate(0, -256)" fill="currentColor" d="M232 251h-208q-8 0 -13.5 -5.5t-5.5 -13.5v-208q0 -8 5.5 -13.5t13.5 -5.5h208q8 0 14 5.5t6 13.5v208q-1 8 -6.5 13.5t-13.5 5.5zM237 24q0 -2 -1.5 -3.5t-3.5 -1.5h-208q-2 0 -3.5 1.5t-1.5 3.5v208q0 2 1.5 3.5t3.5 1.5h208q2 0 3.5 -1.5t1.5 -3.5v-208zM178 151 q0 20 -15 34.5t-35 14.5t-35 -14.5t-15 -34t12.5 -33.5t30.5 -16v-16h-24q-3 0 -5 -2t-2 -5t2 -5t5 -2h24v-20q0 -3 2 -5t5 -2t5 2t2 5v20h24q3 0 5 2t2 5t-2 5t-5 2h-24v16q18 2 30.5 16t12.5 33zM92 151q0 15 10.5 25t25.5 10t25.5 -10t10.5 -25t-10.5 -25.5t-25.5 -10.5 t-25.5 10.5t-10.5 25.5z" />
</svg>