<svg viewBox="0 0 1024 1024" xmlns="http://www.w3.org/2000/svg">
  <path transform="scale(1, -1) translate(0, -960)" fill="currentColor" d="M714 -32h-404q-26 0 -48.5 13.5t-34.5 36.5q-12 22 -10.5 48.5t17.5 47.5l209 297q11 16 11 35.5t-11 35.5l-209 299q-16 21 -17.5 47t10.5 49t34.5 36t48.5 13h405q39 0 66 -27t27 -65v-56q0 -8 -4.5 -12t-11.5 -4t-11.5 4t-4.5 12v57q0 25 -18 43t-43 18h-405 q-18 0 -32 -9t-22 -25q-8 -15 -7 -32t12 -32l209 -297q17 -24 17 -53.5t-17 -53.5l-211 -298q-9 -14 -10.5 -31t5.5 -33q9 -16 23 -25t32 -9h405q25 0 42.5 18t17.5 43v56q0 7 4.5 11.5t11.5 4.5q8 0 12 -4.5t4 -11.5v-56q2 -37 -25.5 -64t-66.5 -27v0z" />
</svg>