<svg viewBox="0 0 1024 1024" xmlns="http://www.w3.org/2000/svg">
  <path transform="scale(1, -1) translate(0, -960)" fill="currentColor" d="M987 710l-213 213q-4 5 -10.5 5t-11.5 -5t-5 -11t5 -11l94 -95l-110 -112l-30 31q-32 31 -76 31t-75 -31l-301 -298q-20 -20 -27 -48t0 -56l-48 -48q-30 -30 -31.5 -71.5t25.5 -72.5l-136 -136q-5 -5 -5 -11t5 -11q2 -3 4.5 -4t6.5 -1t6.5 1t4.5 4l136 136 q15 -12 32.5 -18t36.5 -6q22 0 41 8t34 24l48 48q7 -3 14 -3h13q21 0 40.5 7t35.5 23l299 299q15 16 22.5 35t7.5 40q0 22 -8 41t-22 35l-31 30l111 110l94 -94q3 -2 6 -3.5t5 -1.5q3 0 6 1.5t6 3.5q6 5 6 11.5t-5 10.5v0zM317 138q-11 -11 -24 -17t-29 -6q-14 0 -28 6 t-25 17l-9 9q-22 22 -22 53t22 53l40 40q2 -5 5.5 -9t6.5 -7l85 -85q4 -4 8.5 -7t7.5 -6l-38 -41v0zM789 566q0 -14 -6 -28t-17 -24l-297 -300q-22 -21 -53 -21t-53 21l-85 85q-21 22 -21 53t21 53l300 299q21 22 52.5 22t52.5 -22l85 -85q10 -11 15.5 -24.5t5.5 -28.5v0z " />
</svg>