<svg viewBox="0 0 256 256" xmlns="http://www.w3.org/2000/svg">
  <path transform="scale(1, -1) translate(0, -256)" fill="currentColor" d="M242 220l-40 23q-6 3 -12 3h-124q-6 0 -12 -3l-40 -23q-5 -3 -7.5 -9t-0.5 -12l7 -26q2 -7 9 -11t14 -2l15 4l1 -1l10 -118q1 -15 12.5 -25.5t26.5 -10.5h53q15 0 26.5 10.5t12.5 25.5l10 118l1 1l16 -4q8 -2 14.5 2t8.5 11l7 26q2 6 -0.5 12t-7.5 9zM160 233 q-5 -9 -13.5 -15t-18.5 -6t-19 5.5t-13 15.5h64zM237 203l-7 -26q-2 -4 -6 -3l-15 3q-7 2 -13 -2.5t-6 -12.5l-10 -116q-1 -10 -8 -16.5t-17 -6.5h-54q-9 0 -16.5 6.5t-8.5 16.5l-9 116q0 8 -6.5 12.5t-12.5 2.5l-15 -3q-2 -1 -4 0t-2 3l-7 26q-2 3 2 5l40 23q2 1 5 1h14 q5 -15 18 -24.5t29.5 -9.5t29.5 9.5t18 24.5h14q3 0 5 -1l40 -23q1 -1 1.5 -2.5t0.5 -2.5z" />
</svg>