<svg viewBox="0 0 256 256" xmlns="http://www.w3.org/2000/svg">
  <path transform="scale(1, -1) translate(0, -256)" fill="currentColor" d="M248 214l-48 28q-5 3 -12 3h-19q-2 0 -4 -1.5t-3 -4.5q-2 -12 -11.5 -20t-22 -8t-22.5 8t-12 20q-1 3 -3 4.5t-4 1.5h-19q-7 0 -12 -3l-48 -28q-4 -2 -3 -8l13 -44q1 -3 3.5 -4.5t4.5 -0.5l26 6h1l1 -1v-122q0 -12 8.5 -20.5t19.5 -8.5h91q12 0 20.5 8.5t8.5 20.5v123h1 l26 -6q3 -1 5.5 0.5t2.5 4.5l13 44q1 3 0.5 5t-2.5 3zM226 172l-19 5q-3 1 -6.5 0t-6.5 -3q-6 -5 -6 -12v-122q0 -6 -4.5 -10t-10.5 -4h-90q-6 0 -10.5 4t-4.5 10v122q0 7 -5 11t-11 4l-3 -1l-19 -4l-10 33l42 25q3 1 5 1h14q5 -15 18 -24.5t28.5 -9.5t28.5 9.5t18 24.5h14 q2 0 5 -1l42 -25z" />
</svg>