<svg viewBox="0 0 1024 1024" xmlns="http://www.w3.org/2000/svg">
  <path transform="scale(1, -1) translate(0, -960)" fill="currentColor" d="M962 867h-306q-12 0 -21 -7.5t-9 -19.5q-5 -38 -37.5 -64.5t-76.5 -26.5q-43 0 -76 26.5t-38 64.5v3q-3 11 -11 17t-19 6h-306q-13 1 -21.5 -7.5t-8.5 -23.5l13 -193q0 -12 9.5 -20t20.5 -8h85l27 -486q3 -42 32.5 -70.5t71.5 -28.5h439q42 0 71.5 28.5t32.5 70.5l25 486 v0v0h88q13 0 22 8.5t9 19.5l14 195q0 13 -8.5 21.5t-21.5 8.5v0zM947 646h-88q-12 0 -22 -7.5t-10 -19.5l-25 -488q-2 -29 -23 -49t-49 -20h-439q-29 0 -50 20t-22 49l-25 488q0 12 -9.5 20.5t-21.5 8.5h-86l-13 187h304q6 -49 48 -83t96 -34q55 0 96.5 34t47.5 85h302 l-11 -191v0z" />
</svg>