<svg viewBox="0 0 1024 1024" xmlns="http://www.w3.org/2000/svg">
  <path transform="scale(1, -1) translate(0, -960)" fill="currentColor" d="M984 784l-189 107q-9 6 -20 8.5t-21 2.5h-77q-6 0 -10.5 -3t-5.5 -9q-11 -53 -53 -87.5t-96 -34.5t-96 34.5t-53 87.5q-1 6 -5.5 9t-10.5 3h-77q-10 0 -21 -2.5t-20 -8.5l-189 -107q-5 -2 -7 -7.5t-1 -10.5l51 -179q1 -6 7 -9t12 -2l103 26q3 1 7.5 0t6.5 -4 q4 -2 5.5 -5.5t1.5 -8.5v-486q0 -44 30 -74t74 -30h361q43 0 73.5 30t30.5 74v484q0 4 2 8t5 7q3 2 6.5 3t7.5 0l102 -26q6 -1 12 2.5t8 9.5l54 179q1 6 -1 10.5t-7 8.5zM914 610l-88 22q-11 2 -22.5 0t-21.5 -10q-9 -7 -14 -17t-5 -21v-486q0 -30 -21 -51t-51 -21h-360 q-30 0 -51 21t-21 51v484q0 12 -4.5 22.5t-14.5 16.5q-7 5 -14.5 8t-15.5 3h-6.5t-5.5 -2l-88 -22l-43 152l178 104q6 4 12 5t13 1h64q17 -58 66.5 -96t111.5 -38t111.5 38t66.5 96h64q7 0 13 -1t12 -5l178 -102z" />
</svg>