<svg viewBox="0 0 1024 1024" xmlns="http://www.w3.org/2000/svg">
  <path transform="scale(1, -1) translate(0, -960)" fill="currentColor" d="M789 928h-554q-32 0 -55 -23t-23 -54v-806q0 -31 22.5 -54t54.5 -23h555q31 0 54 23t23 54v806q1 31 -22 54t-55 23zM835 45q0 -18 -13.5 -31.5t-31.5 -13.5h-555q-18 0 -31.5 13.5t-13.5 31.5v806q0 18 13.5 31.5t31.5 13.5h555q18 0 31.5 -13.5t13.5 -31.5v-806z M528 774q0 8 -4.5 12t-11.5 4h-126q-8 0 -12 -4t-4 -12q0 -7 4 -11.5t12 -4.5h126q7 0 11.5 4.5t4.5 11.5zM667 774q0 -10 -7 -17t-17 -7t-17 7t-7 17t7 17t17 7t17 -7t7 -17zM560 146q0 -20 -14 -34t-34 -14t-34 14t-14 34q0 19 14 33.5t34 14.5t34 -14.5t14 -33.5z" />
</svg>