<svg viewBox="0 0 256 256" xmlns="http://www.w3.org/2000/svg">
  <path transform="scale(1, -1) translate(0, -256)" fill="currentColor" d="M197 251h-138q-9 0 -16 -6.5t-7 -16.5v-201q0 -10 6.5 -16.5t16.5 -6.5h139q9 0 15.5 6.5t6.5 16.5v202q0 9 -6.5 15.5t-16.5 6.5zM206 27q0 -3 -2.5 -5.5t-6.5 -2.5h-138q-4 0 -6.5 2.5t-2.5 5.5v202q0 3 2.5 5.5t6.5 2.5h139q3 0 5.5 -2.5t2.5 -5.5v-202zM135 210 q0 3 -2 5t-5 2h-32q-3 0 -5 -2t-2 -5t2 -5.5t5 -2.5h32q3 0 5 2.5t2 5.5zM161 220q-4 0 -7.5 -3t-3.5 -7.5t3 -7t7.5 -2.5t7.5 2.5t3 7t-3 7.5t-7 3zM113 52q0 -6 4.5 -10.5t10.5 -4.5t10.5 4.5t4.5 11t-4.5 11t-10.5 4.5t-10.5 -4.5t-4.5 -11.5z" />
</svg>