<svg viewBox="0 0 1024 1024" xmlns="http://www.w3.org/2000/svg">
  <path transform="scale(1, -1) translate(0, -960)" fill="currentColor" d="M750 790h-476q-50 0 -94 -18q-44 -19 -77 -51.5t-52 -76.5t-19 -94v-36q0 -8 4.5 -12t11.5 -4h117v-376q0 -8 4.5 -12t11.5 -4t11.5 4t4.5 12v376h101v-224q0 -8 4 -12t12 -4q7 0 11.5 4t4.5 12v224h364v-224q0 -8 4.5 -12t11.5 -4q8 0 12 4t4 12v224h101v-376 q0 -8 4.5 -12t11.5 -4t11.5 4t4.5 12v376h117q7 0 11.5 4t4.5 12v36q0 50 -19 94t-52 76.5t-77 51.5q-44 18 -94 18v0zM960 530h-896v20q0 44 17 82q16 38 44.5 66.5t66.5 44.5q38 17 82 17h476q44 0 82 -17q38 -16 66.5 -44.5t44.5 -66.5q17 -38 17 -82v-20v0z" />
</svg>