<svg viewBox="0 0 256 256" xmlns="http://www.w3.org/2000/svg">
  <path transform="scale(1, -1) translate(0, -256)" fill="currentColor" d="M184 251h-112q-10 0 -16.5 -7t-6.5 -16v-200q0 -10 6.5 -17t16.5 -7h112q10 0 16.5 7t6.5 17v200q0 10 -6.5 16.5t-16.5 6.5zM193 28q0 -4 -2.5 -6.5t-6.5 -2.5h-112q-4 0 -6.5 2.5t-2.5 6.5v200q0 4 2.5 6.5t6.5 2.5h112q4 0 6.5 -2.5t2.5 -6.5v-200zM108 212h-20 q-3 0 -5 -2t-2 -5t2 -5t5 -2h20q3 0 5 2t2 5t-2 5t-5 2zM168 212h-20q-3 0 -5 -2t-2 -5t2 -5t5 -2h20q3 0 5 2t2 5t-2 5t-5 2zM108 161h-20q-3 0 -5 -2t-2 -5t2 -5.5t5 -2.5h20q3 0 5 2.5t2 5.5t-2 5t-5 2zM168 161h-20q-3 0 -5 -2t-2 -5t2 -5.5t5 -2.5h20q3 0 5 2.5t2 5.5 t-2 5t-5 2zM108 109h-20q-3 0 -5 -2t-2 -5t2 -5t5 -2h20q3 0 5 2t2 5t-2 5t-5 2zM168 109h-20q-3 0 -5 -2t-2 -5t2 -5t5 -2h20q3 0 5 2t2 5t-2 5t-5 2zM108 58h-20q-3 0 -5 -2.5t-2 -5.5t2 -5t5 -2h20q3 0 5 2t2 5t-2 5.5t-5 2.5zM168 58h-20q-3 0 -5 -2.5t-2 -5.5t2 -5 t5 -2h20q3 0 5 2t2 5t-2 5.5t-5 2.5z" />
</svg>