<svg viewBox="0 0 1024 1024" xmlns="http://www.w3.org/2000/svg">
  <path transform="scale(1, -1) translate(0, -960)" fill="currentColor" d="M883 928h-742q-45 0 -77 -32t-32 -77v-742q0 -45 32 -77t77 -32h742q45 0 77 32t32 77v742q0 45 -32 77t-77 32v0zM141 896h742q31 0 54 -23t23 -54v-216h-896v216q0 31 23 54t54 23zM366 301v270h293v-270h-293v0zM659 269v-269h-293v269h293zM334 301h-270v270h270 v-270zM691 571h269v-270h-269v270v0zM64 77v192h270v-269h-193q-31 0 -54 23t-23 54v0zM883 0h-192v269h269v-192q0 -31 -23 -54t-54 -23z" />
</svg>