<svg viewBox="0 0 1024 1024" xmlns="http://www.w3.org/2000/svg">
  <path transform="scale(1, -1) translate(0, -960)" fill="currentColor" d="M987 566l-205 180q-2 2 -4.5 2.5t-6.5 0.5h-518q-3 0 -6 -1t-5 -2l-205 -180q-4 -3 -5 -7.5t0 -9.5t5.5 -7.5t8.5 -2.5h117v-376q0 -7 4.5 -11.5t11.5 -4.5t11.5 4.5t4.5 11.5v375h101v-224q0 -8 4.5 -12t11.5 -4t11.5 4t4.5 12v224h365v-224q0 -8 4.5 -12t11.5 -4 t11.5 4t4.5 12v224h101v-376q0 -8 4 -12t12 -4q7 0 11.5 4t4.5 12v376h118q5 0 9 3t5 6q2 4 1.5 10t-4.5 9v0zM91 570l168 148h506l168 -148h-842v0z" />
</svg>