<svg viewBox="0 0 1024 1024" xmlns="http://www.w3.org/2000/svg">
  <path transform="scale(1, -1) translate(0, -960)" fill="currentColor" d="M944 0h-194v1v1v836q0 38 -26 64t-63 26h-322q-37 0 -63 -26t-26 -64v-36q-78 -6 -132 -64.5t-54 -137.5v-96q0 -7 4.5 -11.5t11.5 -4.5h374q8 0 12 4.5t4 11.5v96q0 80 -54.5 138t-132.5 64v36q0 24 17 41t41 17h321q24 0 41 -17t17 -41v-836v-1v-1h-200 q-7 0 -11.5 -4.5t-4.5 -11.5t4.5 -11.5t11.5 -4.5h424q7 0 11.5 4.5t4.5 11.5t-4.5 11.5t-11.5 4.5zM438 600v-80h-342v80q0 71 50 121t121 50t121 -50t50 -121z" />
</svg>