<svg viewBox="0 0 256 256" xmlns="http://www.w3.org/2000/svg">
  <path transform="scale(1, -1) translate(0, -256)" fill="currentColor" d="M198 165l-14 59q-3 12 -12.5 19.5t-22.5 7.5h-42q-12 0 -21.5 -7.5t-12.5 -19.5l-15 -59q-2 -8 -0.5 -16t6.5 -14.5t12.5 -10t15.5 -3.5h29v-102h-20q-3 0 -5 -2t-2 -5t2 -5t5 -2h55q3 0 5 2t2 5t-2 5t-5 2h-21v102h29q17 0 28 13q5 7 6.5 15t-0.5 16zM181 143 q-7 -8 -17 -8h-72q-10 0 -16.5 8.5t-4.5 18.5l15 58q2 8 8 12.5t13 4.5h42q7 0 13 -4.5t8 -12.5l14 -58q3 -10 -3 -19z" />
</svg>