<svg viewBox="0 0 256 256" xmlns="http://www.w3.org/2000/svg">
  <path transform="scale(1, -1) translate(0, -256)" fill="currentColor" d="M251 176q0 15 -18 26.5t-46 17.5t-59 6t-59 -6t-46 -17.5t-18 -26.5q0 -22 37 -36q32 -12 79 -14v-66q-4 -6 -10 -11t-9.5 -5t-5.5 -2t-2 -5t2 -5t5 -2q12 0 27 16q15 -16 28 -16q3 0 5 2t2 5t-2 5t-5.5 2t-9.5 5t-11 11v66q30 1 56.5 7t43 17t16.5 26zM19 176 q0 8 14.5 16.5t39.5 14t55 5.5t55 -5.5t39.5 -14t14.5 -16.5t-14.5 -16.5t-39.5 -14t-55 -5.5t-55 5.5t-39.5 14t-14.5 16.5z" />
</svg>