<svg viewBox="0 0 1024 1024" xmlns="http://www.w3.org/2000/svg">
  <path transform="scale(1, -1) translate(0, -960)" fill="currentColor" d="M736 928h-448q-34 0 -57 -23t-23 -57v-800q0 -34 23 -57t57 -23h448q34 0 57 23t23 57v800q0 34 -23 57t-57 23zM784 48q0 -20 -14 -34t-34 -14h-448q-20 0 -34 14t-14 34v800q0 20 14 34t34 14h448q20 0 34 -14t14 -34v-800zM432 773h-80q-7 0 -11.5 -4.5t-4.5 -11.5 t4.5 -11.5t11.5 -4.5h80q7 0 11.5 4.5t4.5 11.5t-5 11.5t-11 4.5zM672 773h-80q-7 0 -11.5 -4.5t-4.5 -11.5t4.5 -11.5t11.5 -4.5h80q7 0 11.5 4.5t4.5 11.5t-5 11.5t-11 4.5zM432 566h-80q-7 0 -11.5 -4t-4.5 -12q0 -7 4.5 -11.5t11.5 -4.5h80q7 0 11.5 4.5t4.5 11.5 q0 8 -5 12t-11 4zM672 566h-80q-7 0 -11.5 -4t-4.5 -12q0 -7 4.5 -11.5t11.5 -4.5h80q7 0 11.5 4.5t4.5 11.5q0 8 -5 12t-11 4zM432 362h-80q-7 0 -11.5 -4.5t-4.5 -11.5q0 -8 4.5 -12t11.5 -4h80q7 0 11.5 4t4.5 12q0 7 -5 11.5t-11 4.5zM672 362h-80q-7 0 -11.5 -4.5 t-4.5 -11.5q0 -8 4.5 -12t11.5 -4h80q7 0 11.5 4t4.5 12q0 7 -5 11.5t-11 4.5zM432 155h-80q-7 0 -11.5 -4.5t-4.5 -11.5t4.5 -11.5t11.5 -4.5h80q7 0 11.5 4.5t4.5 11.5t-5 11.5t-11 4.5zM672 155h-80q-7 0 -11.5 -4.5t-4.5 -11.5t4.5 -11.5t11.5 -4.5h80q7 0 11.5 4.5 t4.5 11.5t-5 11.5t-11 4.5z" />
</svg>