<svg viewBox="0 0 256 256" xmlns="http://www.w3.org/2000/svg">
  <path transform="scale(1, -1) translate(0, -256)" fill="currentColor" d="M233 54h-41l46 95q5 11 1 21q-2 5 -6.5 9t-9.5 5l-84 24l-39 39q-2 2 -5 2t-5 -2l-25 -25l-56 -22q-3 -1 -4 -5t2 -6l16 -17q-8 -8 -8 -20.5t8.5 -21t21 -8.5t20.5 8l16 -16q2 -2 5 -2h1q4 1 5 5l23 55l22 22l82 -23q4 -1 6.5 -6t0.5 -9l-49 -102h-43q-8 0 -13 -5.5 t-5 -12.5v-12q0 -7 5 -12.5t13 -5.5h99q8 0 13 5.5t5 12.5v12q0 7 -5.5 12.5t-12.5 5.5zM55 140q-4 -4 -10.5 -4t-11 4.5t-4.5 11t4 10.5l22 -22v0zM104 181q0 -1 -1 -2l-19 -47l-60 59l48 19l2 2l21 20l30 -30zM237 24q0 -1 -1 -2.5t-3 -1.5h-99q-2 0 -3 1.5t-1 2.5v12 q0 1 1 2.5t3 1.5h99q2 0 3 -1.5t1 -2.5v-12z" />
</svg>