<svg viewBox="0 0 1024 1024" xmlns="http://www.w3.org/2000/svg">
  <path transform="scale(1, -1) translate(0, -960)" fill="currentColor" d="M760 112l-163 42l-21 113q0 3 -2 5l-3 3q58 11 107 40q50 30 86 73t57 96q21 54 21 114q0 69 -26 129q-27 60 -71.5 104.5t-104.5 70.5t-128 26t-128 -26t-104.5 -70.5t-71.5 -104.5q-26 -60 -26 -129q0 -59 20 -112t55 -95.5t83 -72.5q47 -29 103 -41q-2 -1 -4 -4t-2 -6 l-21 -115l-163 -40q-5 -1 -9 -5.5t-4 -10.5v-112q0 -7 4.5 -11.5t11.5 -4.5h499q7 0 11.5 4.5t4.5 11.5v112q1 6 -2.5 10.5t-8.5 5.5v0zM214 598q0 62 24 116q23 55 64 95t95 64q54 23 115 23t115 -23q54 -24 95 -64t64 -95q24 -54 24 -116q0 -61 -24 -115 q-23 -54 -63.5 -94.5t-94.5 -64.5q-54 -23 -116 -23q-61 0 -115 23q-54 24 -94.5 64.5t-64.5 94.5t-24 115v0zM741 0h-467v83l161 40q5 1 8 4.5t3 8.5l23 125q0 3 -0.5 6t-2.5 7q12 -2 23 -3t23 -1q8 0 17.5 0.5t17.5 1.5q-1 -2 -2 -4.5t1 -5.5l22 -124q1 -5 4.5 -8.5 t6.5 -4.5l162 -40v-85zM526 392h1t-1 0q8 0 12 5t4 13l-6 108q12 4 23.5 12t19.5 19q10 13 14.5 29t1.5 33q-2 12 -7 23.5t-14 19.5l93 50q6 4 8 10t-1 12q-4 6 -10.5 8t-12.5 -1l-99 -53q-2 -1 -3.5 -2.5t-1.5 -2.5q-12 6 -24 7.5t-25 0.5q-14 -2 -25.5 -8t-21.5 -16 l-107 40q-6 3 -12 0t-9 -9q-2 -6 1 -12.5t9 -8.5l101 -39q-11 -26 -3.5 -54t31.5 -46q10 -8 21.5 -11.5t22.5 -4.5l4 -108q2 -6 6 -10t10 -4v0zM459 590q-1 11 1.5 20.5t8.5 18.5q6 8 15 13.5t20 7.5h4h4q8 0 16 -2.5t14 -7.5q9 -6 14.5 -15t6.5 -20t-1 -20.5t-8 -18.5 q-14 -18 -35 -21t-39 10q-8 7 -13 16t-8 19v0z" />
</svg>