<svg viewBox="0 0 256 256" xmlns="http://www.w3.org/2000/svg">
  <path transform="scale(1, -1) translate(0, -256)" fill="currentColor" d="M191 47l-39 9l-4 26q28 7 47 30.5t19 53.5q0 23 -11.5 42.5t-31.5 31t-43 11.5t-42.5 -11.5t-31 -31t-11.5 -42.5q0 -30 18 -53t46 -30l-5 -27l-39 -9q-2 -1 -3.5 -3t-1.5 -4v-28q0 -3 2 -5t5 -2h125q3 0 5 2t2 5v28q-2 6 -6 7zM57 166q0 19 9.5 35.5t26 26t35.5 9.5 t35.5 -9.5t26 -26t9.5 -36t-9.5 -35.5t-26 -26t-35.5 -10t-35.5 10t-26 26t-9.5 36zM182 19h-111v16l38 9q5 2 5 6l6 31h8h5l6 -31q0 -4 5 -5l38 -10v-16zM132 111q3 0 5 2t2 5l-1 25q6 3 10 8q5 8 4 18q-1 6 -4 10l20 11q3 1 4 4t-0.5 5.5t-4.5 3t-5 -0.5l-26 -14 q-6 3 -12.5 1.5t-11.5 -5.5l-25 10q-3 1 -5.5 -0.5t-3.5 -4t0 -5t4 -4.5l22 -8q-1 -6 0 -10q1 -10 9 -16q5 -3 10 -4l1 -24q1 -3 3 -5t5 -2zM120 172q2 3 6 4h2q3 0 6 -2.5t4 -6.5t-1.5 -7.5t-7 -4.5t-7.5 2t-4 7t2 8z" />
</svg>