<svg viewBox="0 0 1024 1024" xmlns="http://www.w3.org/2000/svg">
  <path transform="scale(1, -1) translate(0, -960)" fill="currentColor" d="M862 798h-700q-53 0 -91.5 -37.5t-38.5 -91.5q0 -53 38 -91.5t92 -38.5h6v-427q0 -7 4.5 -11.5t11.5 -4.5t11.5 4.5t4.5 11.5v429h104v-272q0 -7 4.5 -11.5t11.5 -4.5t11.5 4.5t4.5 11.5v272h352v-272q0 -7 4.5 -11.5t11.5 -4.5t11.5 4.5t4.5 11.5v272h104v-427 q0 -8 4.5 -12t11.5 -4t11.5 4t4.5 12v427h6q53 0 91.5 37.5t38.5 91.5q0 53 -38 90.5t-92 37.5v0zM862 573h-700q-40 0 -69 28.5t-29 68.5q0 41 28.5 69.5t69.5 28.5h702q40 0 69 -28.5t29 -69.5q0 -40 -29.5 -68.5t-70.5 -28.5z" />
</svg>