<svg viewBox="0 0 256 256" xmlns="http://www.w3.org/2000/svg">
  <path transform="scale(1, -1) translate(0, -256)" fill="currentColor" d="M232 245h-208q-8 0 -13.5 -6t-5.5 -13v-41q0 -8 5.5 -13.5t13.5 -5.5h23l71 -71l-73 -72q-2 -2 -2 -5t2 -5t4.5 -2t4.5 2l74 73l74 -73q2 -2 4.5 -2t4.5 2t2 5t-2 5l-73 73l71 70h23q8 0 13.5 5.5t5.5 13.5v41q0 7 -5.5 13t-13.5 6zM128 106l-61 60h123zM237 185 q0 -2 -1.5 -3.5t-3.5 -1.5h-208q-2 0 -3.5 1.5t-1.5 3.5v41q0 2 1.5 3.5t3.5 1.5h208q2 0 3.5 -1.5t1.5 -3.5v-41z" />
</svg>