<svg viewBox="0 0 1024 1024" xmlns="http://www.w3.org/2000/svg">
  <path transform="scale(1, -1) translate(0, -960)" fill="currentColor" d="M912 928h-800q-34 0 -57 -23t-23 -57v-800q0 -34 23 -57t57 -23h800q34 0 57 23t23 57v800q0 34 -23 57t-57 23zM294 174h202v-174h-203q1 1 1 3v3v168v0zM960 621v-197h-198v197h198zM730 424h-202v194v1.5v1.5h202v-197zM496 618v-196h-202v199h202v-1v-2v0zM262 424 h-198v197h198v-197zM64 392h198v-186h-198v186v0zM294 392h202v-186h-202v186zM528 174h202v-168v-3t1 -3h-203v174zM528 206v186h202v-186h-202zM762 392h198v-186h-198v186zM112 896h800q20 0 34 -14t14 -34v-195h-896v195q0 20 14 34t34 14zM64 48v126h198v-168 q0 -1 0.5 -3t1.5 -3h-152q-20 0 -34 14t-14 34zM912 0h-152q1 1 1.5 3t0.5 3v168h198v-126q0 -20 -14 -34t-34 -14z" />
</svg>