<svg viewBox="0 0 1024 1024" xmlns="http://www.w3.org/2000/svg">
  <path transform="scale(1, -1) translate(0, -960)" fill="currentColor" d="M781 594l-59 235q-11 44 -46 71.5t-81 27.5h-166q-45 0 -80.5 -27.5t-46.5 -71.5l-59 -235q-7 -30 -1 -59t25 -53t46 -37t57 -13h126v-432h-94q-8 0 -12 -4.5t-4 -11.5t4 -11.5t12 -4.5h219q7 0 11.5 4.5t4.5 11.5t-4.5 11.5t-11.5 4.5h-93v432h126q30 0 57.5 13t45.5 37 q19 24 25 53.5t-1 58.5zM733 502q-15 -18 -34.5 -28t-42.5 -10h-286q-23 0 -43.5 10t-33.5 28q-15 18 -19.5 40t1.5 45l59 235q9 33 35.5 54.5t60.5 21.5h168q34 0 61 -21t35 -55l60 -235q2 -23 -3 -45t-18 -40v0z" />
</svg>