<svg viewBox="0 0 1024 1024" xmlns="http://www.w3.org/2000/svg">
  <path transform="scale(1, -1) translate(0, -960)" fill="currentColor" d="M928 902h-832q-26 0 -45 -18.5t-19 -45.5v-163q0 -26 19 -45t45 -19h96l298 -293l-303 -297q-5 -5 -5 -11.5t5 -11.5q3 -2 6 -3t5 -1q4 0 6.5 1t5.5 3l302 298l302 -298q3 -2 5.5 -3t6.5 -1q3 0 5.5 1t5.5 3q5 5 5 11.5t-5 11.5l-303 297l298 293h96q26 0 45 19t19 45 v163q0 27 -19 45.5t-45 18.5v0zM512 341l-275 270h549l-274 -270v0zM960 675q0 -13 -9.5 -22.5t-22.5 -9.5h-832q-13 0 -22.5 9.5t-9.5 22.5v163q0 14 9.5 23t22.5 9h832q13 0 22.5 -9t9.5 -23v-163z" />
</svg>