<svg viewBox="0 0 256 256" xmlns="http://www.w3.org/2000/svg">
  <path transform="scale(1, -1) translate(0, -256)" fill="currentColor" d="M228 251h-200q-10 0 -16.5 -6.5t-6.5 -16.5v-200q0 -10 7 -16.5t16 -6.5h200q10 0 17 6.5t7 16.5v200q-1 10 -7.5 16.5t-16.5 6.5zM237 168v-43h-43v43h43zM180 125h-45v43h45v-43zM121 125h-45v43h45v-43zM62 125h-43v43h44v-43h-1zM19 111h44v-41h-44v41zM76 111h45 v-41h-45v41zM121 56v-37h-45v37h45zM135 56h45v-37h-45v37zM135 70v41h45v-41h-45zM194 111h43v-41h-43v41zM28 237h200q4 0 6.5 -3t2.5 -6v-46h-218v46q0 4 2.5 6.5t6.5 2.5zM19 28v28h44v-37h-35q-4 0 -6.5 2.5t-2.5 6.5zM228 19h-34v37h43v-28q0 -4 -2.5 -6.5t-6.5 -2.5z " />
</svg>