<svg viewBox="0 0 1024 1024" xmlns="http://www.w3.org/2000/svg">
  <path transform="scale(1, -1) translate(0, -960)" fill="currentColor" d="M992 640q0 39 -37 73t-102 59t-153 39q-87 15 -188 15t-188 -15q-88 -14 -153 -39t-102 -59t-37 -73q0 -38 36 -72q36 -33 98.5 -58t146.5 -40q85 -14 183 -16v-283q-12 -15 -40.5 -42t-52.5 -27q-7 0 -11.5 -4t-4.5 -12q0 -7 4.5 -11.5t11.5 -4.5q33 0 63 25.5t46 43.5 q17 -19 46.5 -44t62.5 -25q7 0 11.5 4.5t4.5 11.5q0 8 -4.5 12t-11.5 4q-24 0 -52 26t-41 43v283q98 2 183 16q84 15 146.5 40t98.5 58q36 34 36 72zM64 640q0 28 32 56q33 27 92 49t141 35q83 14 183 14t183 -14q82 -14 141 -35.5t92 -49.5q32 -27 32 -55t-32 -55 q-33 -27 -92 -49t-141 -36q-83 -14 -183 -14t-183 13q-82 13 -141 35t-92 50q-32 28 -32 56z" />
</svg>