<svg viewBox="0 0 1024 1024" xmlns="http://www.w3.org/2000/svg">
  <path transform="scale(1, -1) translate(0, -960)" fill="currentColor" d="M990 437q-6 20 -20.5 34.5t-30.5 27.5q-11 9 -20.5 17.5t-14.5 17.5q-6 10 -8 23t-5 27q-3 20 -8 40.5t-21 34.5q-14 15 -34 20t-41 9q-14 2 -27 5t-22 8q-10 5 -18.5 14.5t-17.5 20.5q-13 17 -27.5 31.5t-34.5 19.5q-19 5 -39 0t-39 -13q-14 -6 -26 -10t-24 -4 q-11 0 -23.5 4t-26.5 10q-19 8 -38.5 13.5t-39.5 -0.5t-34.5 -20.5t-27.5 -30.5q-9 -11 -17.5 -20.5t-18.5 -14.5q-9 -6 -22 -8.5t-27 -4.5q-21 -4 -41 -8.5t-34 -20.5q-15 -14 -20.5 -34.5t-8.5 -40.5q-3 -14 -5.5 -27t-7.5 -23q-5 -9 -14.5 -17.5t-20.5 -17.5 q-16 -13 -30.5 -27.5t-20.5 -34.5q-5 -19 4.5 -43t22.5 -50l6 -12t7 -12q-4 -18 -6 -36t-2 -38v-107q0 -13 9 -22.5t23 -9.5h830q13 0 22.5 9.5t9.5 22.5v107q0 20 -2 38t-6 36q2 6 5.5 12t5.5 12q13 25 22.5 48.5t4.5 44.5zM98 139v107q0 66 25 125q25 58 68.5 101.5 t101.5 68.5q59 25 125 25h190q66 0 124 -25t101.5 -68.5t69.5 -101.5q25 -59 25 -125v-107h-830v0zM938 365q-19 51 -52 93q-32 43 -75.5 74t-95.5 48t-109 17h-188q-57 0 -109 -18q-52 -17 -95.5 -48t-75.5 -73q-33 -43 -52 -93q-8 17 -16 35t-4 27q3 13 14.5 24t25.5 23 q12 9 24 20t19 24q8 14 11.5 30t5.5 31q3 18 6.5 33t13.5 25q9 9 24 13t33 6q16 2 32 5.5t29 12.5q13 7 23.5 19t21.5 24q11 14 22 25.5t24 14.5q12 3 27 -1t31 -10q15 -6 30 -11t32 -5q16 0 31.5 5t31.5 11q15 6 30 10.5t27 1.5q13 -3 24 -14.5t23 -25.5q9 -12 20 -24 t24 -19q14 -7 30 -11t31 -6q17 -3 32.5 -6.5t25.5 -13.5q9 -9 13 -24t6 -33q2 -16 5.5 -32t12.5 -29q7 -13 19 -23.5t24 -21.5q14 -11 25.5 -22t14.5 -24q-1 -11 -9.5 -28.5t-17.5 -35.5zM344 350q-11 3 -22.5 0.5t-20.5 -9.5q-10 -6 -16 -15.5t-8 -21.5q-5 -23 8.5 -42.5 t36.5 -24.5q2 0 4.5 -1t6.5 -1q20 0 36 13t20 34q2 10 -0.5 21.5t-9.5 21.5q-5 11 -14.5 17t-20.5 8zM358 290q-2 -10 -10.5 -16t-17.5 -4q-10 3 -16 11.5t-4 17.5q2 5 4.5 9.5t7.5 6.5q3 3 6.5 4t7.5 1h2.5h2.5q5 -1 9 -3.5t7 -7.5l2 -10t-1 -9v0zM440 494 q-23 5 -42.5 -8.5t-24.5 -35.5q-3 -11 -0.5 -22.5t9.5 -21.5q6 -9 15.5 -15t21.5 -9q3 0 5.5 -0.5t5.5 -0.5q9 0 17 2.5t15 6.5q10 6 16 15.5t8 21.5q3 11 0.5 22.5t-9.5 20.5q-7 10 -16.5 16t-20.5 8v0zM454 434v0v0q-1 -5 -3.5 -9.5t-7.5 -6.5q-3 -3 -8.5 -4t-10.5 0 q-5 2 -9.5 4.5t-6.5 7.5q-2 3 -3 8.5t0 10.5q1 9 8 15t16 6h2h3q4 -2 8.5 -4.5t7.5 -7.5q3 -6 4.5 -11t-0.5 -9v0zM640 392q-23 5 -42.5 -8.5t-24.5 -36.5t8.5 -42.5t36.5 -24.5q2 0 4.5 -1t6.5 -1q20 0 36 13t20 34q5 23 -8.5 42.5t-36.5 24.5zM654 331q-2 -9 -10.5 -15 t-17.5 -4q-5 1 -9.5 3.5t-6.5 7.5q-3 4 -4 9.5t0 9.5q2 10 9 15.5t15 5.5h3h2q10 -5 15.5 -13.5t3.5 -18.5zM792 298q-11 2 -22.5 -0.5t-20.5 -9.5q-10 -6 -16 -15.5t-8 -21.5q-3 -11 -0.5 -22t9.5 -21q6 -10 15.5 -16t21.5 -8q3 0 5.5 -1t5.5 -1q21 0 37 13t19 34v0v0 q4 24 -9 44t-37 25v0zM806 237q-2 -10 -10.5 -16t-17.5 -3q-5 1 -9.5 3.5t-6.5 7.5q-3 3 -4 8.5t0 10.5q2 5 4.5 9.5t7.5 6.5q3 2 6.5 3.5t7.5 1.5h2.5h2.5q5 -1 9 -4t7 -7q1 -6 2 -11t-1 -10z" />
</svg>