<svg viewBox="0 0 256 256" xmlns="http://www.w3.org/2000/svg">
  <path transform="scale(1, -1) translate(0, -256)" fill="currentColor" d="M250 126q-1 5 -5 10q-3 3 -9 7v1q-6 5 -7.5 7t-2.5 9l-1 3q-1 7 -2 10q-2 6 -5.5 9.5t-9.5 5.5q-3 1 -10 3h-4q-6 1 -8 2.5t-7 7.5t-8 9q-5 4 -10 5.5t-11 0.5q-4 -1 -10 -3l-2 -1q-7 -3 -10 -3t-10 3h-2q-6 3 -10 4q-6 1 -11 -0.5t-10 -5.5q-3 -3 -7 -8v-1 q-5 -6 -7.5 -7.5t-9.5 -2.5h-3q-7 -2 -10 -3q-6 -2 -9.5 -5.5t-5.5 -9.5q-1 -3 -2 -10l-1 -3q-1 -7 -2.5 -9.5t-7.5 -7t-9 -7.5q-4 -5 -5.5 -10t0.5 -12q2 -5 6 -13l3 -5q-2 -10 -2 -19v-27q0 -4 3 -7.5t8 -3.5h208q4 0 7.5 3.5t3.5 7.5v27q0 9 -2 19l2 4q5 9 6 14q3 7 1 12 zM229 54h-202v23q0 21 10.5 39t28 28t38.5 10h48q21 0 38.5 -10t28 -28t10.5 -39v-23zM152 168h-48q-27 0 -49.5 -14.5t-33.5 -38.5q-3 5 -2 8t9 9l1 1q8 6 10.5 10.5t4.5 13.5v3q2 10 4.5 12.5t13 4t15.5 4.5t12 12l1 1q6 7 9 8t11 -2l2 -1q10 -4 16 -4t16 4t13 3t10 -9.5 t11.5 -11t13.5 -4.5l3 -1q11 -1 13 -3.5t4 -13.5t4.5 -15.5t11.5 -11.5l1 -1q7 -6 8 -8.5t-2 -8.5q-11 25 -33.5 39.5t-49.5 14.5zM85 100q-4 0 -7.5 -2t-4.5 -6t1.5 -7.5t6.5 -4.5t7.5 1.5t4.5 6.5t-1.5 7.5t-6.5 4.5zM109 136q-4 0 -7.5 -2t-4.5 -6t1.5 -7.5t6.5 -4.5 t7.5 1.5t4.5 6.5t-1.5 7.5t-6.5 4.5zM159 110q-4 1 -7.5 -1.5t-4.5 -6.5t1.5 -7.5t6.5 -4.5t7.5 1.5t4.5 6.5t-1.5 7.5t-6.5 4.5zM197 86q-4 1 -7.5 -1.5t-4.5 -6.5t1.5 -7.5t6.5 -4t7.5 1.5t4.5 6.5t-1.5 7.5t-6.5 4z" />
</svg>