<svg viewBox="0 0 1024 1024" xmlns="http://www.w3.org/2000/svg">
  <path transform="scale(1, -1) translate(0, -960)" fill="currentColor" d="M920 758q-11 11 -24.5 15.5t-28.5 2.5l-181 -24q-22 34 -54 69q-33 35 -77 61.5t-100 38.5q-56 13 -125 2q-6 -1 -10 -6t-3 -11t6 -10t11 -3q61 9 110 -1q50 -10 89.5 -32t68.5 -52q30 -30 51 -61l-135 -19q-9 -1 -17.5 -5.5t-15.5 -10.5l-379 -358q-10 -9 -15 -20.5 t-5 -24.5t5 -25t15 -20l294 -278q8 -9 19.5 -12.5t22.5 -3.5q10 0 21.5 3.5t19.5 12.5l383 361q7 7 11.5 16.5t7.5 18.5l51 325q2 13 -2 27t-14 24v0zM906 710l-52 -324q-1 -5 -3.5 -9.5t-5.5 -8.5l-381 -360q-8 -8 -20 -8t-20 8l-296 278q-5 5 -7.5 10t-2.5 11t2.5 11.5 t7.5 9.5l379 360q4 4 7.5 5.5t8.5 2.5l149 21q22 -36 32 -63.5t11 -31.5t5.5 -7.5t10.5 -3.5h2.5h2.5q6 3 9 8t2 11q0 2 -9.5 27.5t-30.5 62.5l167 22h2h2q6 0 12 -2t9 -7q4 -3 6 -9t1 -14v0z" />
</svg>