<svg viewBox="0 0 256 256" xmlns="http://www.w3.org/2000/svg">
  <path transform="scale(1, -1) translate(0, -256)" fill="currentColor" d="M232 208q-3 3 -7 4t-9 1l-43 -6q-15 22 -34 33q-25 14 -57 10q-3 -1 -4.5 -3t-1.5 -5t2.5 -5t5.5 -1q45 6 74 -32l-28 -4q-5 0 -10 -4l-96 -90q-5 -5 -5 -13t5 -13l74 -70q6 -5 13 -5t13 5l95 91q5 4 6 10l12 81q1 9 -5 16zM223 194l-13 -81q0 -1 -1 -3l-95 -90 q-2 -1 -3.5 -1t-2.5 1l-74 70q-1 1 -1 3t1 3l95 90q1 1 2 1l35 5q7 -11 10 -21v0q1 -5 7 -5h2q2 1 3.5 3.5t1.5 5.5l-2 6q-3 6 -7 13l38 6q1 0 3 -1l1 -1q1 -2 0 -4z" />
</svg>