<svg viewBox="0 0 256 256" xmlns="http://www.w3.org/2000/svg">
  <path transform="scale(1, -1) translate(0, -256)" fill="currentColor" d="M244 38h-8v68q0 3 -2.5 5t-5.5 2t-5 -2t-2 -5v-68h-15v69q0 8 -5.5 13.5t-13.5 5.5q2 3 2 8q0 13 -6 25t-17 20l-25 19q7 5 7 13.5t-6 14.5t-14.5 6t-14 -6t-5.5 -14.5t6 -13.5l-25 -19q-11 -8 -17 -20t-6 -25q0 -4 2 -8q-8 0 -13.5 -5.5t-5.5 -13.5v-69h-15v68q0 3 -2 5 t-5 2t-5 -2t-2 -5v-68h-8q-3 0 -5 -2.5t-2 -5.5t2 -4.5t5 -1.5h232q3 0 5 2t2 5t-2 5t-5 2zM192 107v-12h-22v12q0 2 2 3.5t4 1.5h11q2 0 3.5 -1.5t1.5 -3.5zM132 38h-8v0q0 9 4 16q4 -8 4 -16zM138 63l-4 6q-3 3 -6 3t-6 -3l-4 -6q-8 -11 -8 -25v0h-10v43h57v-43h-10v0 q-1 15 -9 25zM100 95v12l-1 5h59q-1 -3 -1 -5v-12h-57zM128 218q2 0 4 -2t2 -4t-2 -4t-4 -2t-4 2t-2 4t2 4t4 2zM98 168l30 22l30 -22q8 -6 12.5 -15t4.5 -19q0 -4 -2.5 -6t-5.5 -2h-78q-3 0 -5.5 2t-2.5 6q0 10 4.5 19t12.5 15zM69 112h11q2 0 4 -1.5t2 -4.5v-12h-22v12 q0 3 1.5 4.5t3.5 1.5zM64 38v43h22v-43h-22zM170 38v43h22v-43h-22z" />
</svg>