<svg viewBox="0 0 1024 1024" xmlns="http://www.w3.org/2000/svg">
  <path transform="scale(1, -1) translate(0, -960)" fill="currentColor" d="M976 75h-46v285q0 7 -4.5 11.5t-11.5 4.5q-8 0 -12 -4.5t-4 -11.5v-285h-85v288q0 27 -19 45.5t-45 18.5h-19q7 10 11.5 21.5t4.5 25.5q0 49 -23 94t-62 75l-114 85q15 8 24.5 24t9.5 34q0 27 -20 47t-47 20q-28 0 -48 -20t-20 -47q0 -18 9 -34t25 -24l-114 -85 q-39 -30 -61.5 -74.5t-22.5 -94.5q0 -14 4 -25.5t12 -21.5h-20q-26 0 -45 -18.5t-19 -45.5v-286h-88v283q0 7 -4 11.5t-12 4.5q-7 0 -11.5 -4.5t-4.5 -11.5v-285h-46q-7 0 -11.5 -4.5t-4.5 -11.5t4.5 -11.5t11.5 -4.5h928q7 0 11.5 4.5t4.5 11.5t-4.5 11.5t-11.5 4.5v0z M781 363v-59h-111v59q0 13 9.5 22.5t22.5 9.5h47q13 0 22.5 -9.5t9.5 -22.5zM542 75h-62q0 1 1 2.5t1 4.5v8q0 19 6 38.5t18 34.5l4 8l5 -8q12 -15 18 -34t6 -39v-8q3 -2 3 -4v-3v0zM542 181l-17 24q-5 6 -13 6t-13 -6l-17 -24q-15 -21 -23 -44.5t-8 -48.5v-8q0 -1 0.5 -2.5 t1.5 -3.5h-66v196h253v-195h-66q0 1 1 2.5t1 4.5v8q-1 24 -9.5 48t-24.5 43v0zM386 302v60q0 8 -2.5 16t-7.5 16h270l-6 -16t-3 -16v-60h-251v0zM512 821q14 0 24.5 -10.5t10.5 -24.5q0 -15 -10.5 -25.5t-24.5 -10.5t-24.5 10.5t-10.5 25.5q0 14 10.5 24.5t24.5 10.5z M384 616l128 96l128 -96q34 -25 53 -63.5t19 -80.5q0 -19 -13.5 -32.5t-32.5 -13.5h-309q-19 0 -33 13.5t-14 32.5q2 42 21 80.5t53 63.5zM275 395h47q13 0 22.5 -9.5t9.5 -22.5v-59h-111v59q0 13 9.5 22.5t22.5 9.5v0zM243 75v195h111v-195h-111v0zM670 75v195h111v-195 h-111z" />
</svg>