<svg viewBox="0 0 256 256" xmlns="http://www.w3.org/2000/svg">
  <path transform="scale(1, -1) translate(0, -256)" fill="currentColor" d="M218 91h-32v15q0 3 -2 5t-5 2t-5 -2t-2 -5v-15h-4q-3 0 -5 -2t-2 -5t2 -5t5 -2h4v-31q0 -10 7 -17t17.5 -7t17.5 7t7 16t-3.5 14t-11.5 7q-3 1 -5.5 0t-3.5 -4t0.5 -5.5t4.5 -3.5t4 -2t1 -5t-3 -7t-7.5 -3t-7.5 3t-3 7v31h31q3 0 5 2t2 5t-1.5 5t-4.5 2zM221 236h-186 q-12 0 -21 -8t-9 -20v-116q0 -11 9 -19.5t21 -8.5h93q3 0 5 2.5t2 5.5t-2 5t-5 2h-93q-6 0 -11 4t-5 10v53h218v-32q0 -3 2 -5.5t5 -2.5t5.5 2.5t2.5 5.5v94q-1 12 -10 20t-21 8zM35 222h186q6 0 11 -4t5 -10v-14h-218v14q0 6 5 10t11 4zM19 160v20h218v-20h-218z" />
</svg>