<svg viewBox="0 0 1024 1024" xmlns="http://www.w3.org/2000/svg">
  <path transform="scale(1, -1) translate(0, -960)" fill="currentColor" d="M512 912q-96 0 -180 -36q-85 -37 -148 -100t-99 -147q-37 -85 -37 -181t36 -180q37 -85 100 -148t147 -99q85 -37 181 -37t180 36q85 37 148 100t99 147q37 85 37 181t-36 180q-37 85 -100 148t-147 99q-85 37 -181 37zM512 16q-89 0 -168 34t-137.5 92.5t-92.5 137.5 t-34 168t34 168t92.5 137.5t137.5 92.5t168 34t168 -34t137.5 -92.5t92.5 -137.5t34 -168t-34 -168t-92.5 -137.5t-137.5 -92.5t-168 -34zM664 566h-222v120q0 8 -4.5 12t-11.5 4q-8 0 -12 -4t-4 -12v-120h-50q-7 0 -11.5 -4t-4.5 -12q0 -7 4.5 -11.5t11.5 -4.5h50v-216 q0 -51 36.5 -87t87.5 -36q52 0 88.5 36.5t36.5 86.5q0 38 -21 69t-56 45q-6 2 -12 0t-8 -8q-3 -6 -0.5 -12t8.5 -9q25 -11 40.5 -34t15.5 -51q0 -38 -27.5 -64.5t-65.5 -26.5q-39 0 -66 27t-27 64v216h222q8 0 12 4.5t4 11.5q0 8 -3.5 12t-10.5 4v0z" />
</svg>