<svg viewBox="0 0 1024 1024" xmlns="http://www.w3.org/2000/svg">
  <path transform="scale(1, -1) translate(0, -960)" fill="currentColor" d="M190 576q8 0 12 4.5t4 11.5q0 63 25 118q24 56 65.5 97t96.5 65q56 24 119 24t119 -24q55 -24 96.5 -65t65.5 -97q25 -55 25 -118q0 -70 -30 -132t-84 -105q-5 -3 -6 -10t3 -12q2 -3 5.5 -5t7.5 -2q2 0 4.5 1t4.5 3q60 48 93.5 116.5t33.5 145.5q0 70 -27 131t-73 106.5 t-107 72.5q-61 26 -131 26t-131 -26q-62 -27 -107.5 -72.5t-72.5 -106.5t-27 -131q0 -7 4.5 -11.5t11.5 -4.5v0zM792 162q-7 0 -11.5 -4.5t-4.5 -11.5v-124l-210 151q-8 6 -18.5 9.5t-21.5 3.5h-195q-8 0 -16 3t-13 9l-100 104q-5 5 -11.5 5t-11.5 -5q-5 -4 -5 -10.5 t5 -11.5l101 -104q10 -11 23.5 -16.5t29.5 -5.5h195q6 0 12 -1.5t10 -5.5l200 -147h-120q-7 0 -11.5 -4.5t-4.5 -11.5t4.5 -11.5t11.5 -4.5h162q7 0 11.5 4.5t4.5 11.5v162q0 6 -4.5 11t-11.5 5zM526 435q35 0 60 25t25 60q0 25 -14 46t-37 31q-6 2 -12 0t-9 -8 q-2 -6 0 -12.5t8 -8.5q15 -6 23.5 -19t8.5 -29q0 -22 -15.5 -37.5t-37.5 -15.5q-21 0 -36.5 15.5t-15.5 37.5v152h113q7 0 11.5 4.5t4.5 11.5t-4.5 11.5t-11.5 4.5h-113v48q0 7 -4.5 11.5t-11.5 4.5q-8 0 -12 -4.5t-4 -11.5v-50h-26q-7 0 -11.5 -4t-4.5 -12q0 -7 4.5 -11.5 t11.5 -4.5h26v-152q0 -34 24 -58.5t60 -24.5v0z" />
</svg>