<svg viewBox="0 0 256 256" xmlns="http://www.w3.org/2000/svg">
  <path transform="scale(1, -1) translate(0, -256)" fill="currentColor" d="M48 157q3 0 5 2t2 5q0 20 9.5 36.5t26.5 26.5t37 10t37 -10t27 -26.5t10 -36.5q0 -16 -7.5 -31t-20.5 -26q-2 -2 -2.5 -4.5t1.5 -5.5t5.5 -3t4.5 2q16 13 24.5 30.5t8.5 37.5q0 24 -12 44t-32 31.5t-44 11.5t-44 -12t-32 -31.5t-12 -43.5q0 -3 2.5 -5t5.5 -2zM198 59 q-3 0 -5 -2t-2 -5v-24l-48 33q-5 4 -11 4h-49q-3 0 -5 2l-26 26q-2 2 -5 2t-5 -2t-2 -5t2 -5l25 -26q7 -7 15 -7h49q2 0 4 -1l45 -31h-22q-3 0 -5.5 -2t-2.5 -5t2.5 -5t5.5 -2h40q3 0 5 2t2 5v41q0 3 -2 5t-5 2zM132 122q10 0 17 7t7 17q0 7 -4.5 13t-10.5 9q-3 1 -5.5 0 t-4 -4t-0.5 -5.5t4 -3.5t5 -3.5t2 -6.5t-3 -6.5t-7.5 -2.5t-7 2.5t-2.5 7.5v34h25q3 0 5 2.5t2 5.5t-2 5t-5 2h-25v9q0 3 -2.5 5t-5.5 2t-5 -2t-2 -5v-9h-3q-3 0 -5 -2t-2 -5t2 -5.5t5 -2.5h3v-34q0 -10 7 -17t18 -7z" />
</svg>