<svg viewBox="0 0 1024 1024" xmlns="http://www.w3.org/2000/svg">
  <path transform="scale(1, -1) translate(0, -960)" fill="currentColor" d="M810 662h-452v250q0 7 -4 11.5t-12 4.5q-7 0 -11.5 -4.5t-4.5 -11.5v-250h-112q-7 0 -11.5 -4t-4.5 -12q0 -7 4.5 -11.5t11.5 -4.5h112v-436q0 -47 18 -88t49 -72t73 -48q42 -18 89 -18q48 0 89 18q42 17 73 48t49 72t18 88q0 68 -38 124.5t-101 83.5q-6 2 -12.5 0 t-8.5 -8t0 -12.5t8 -8.5q54 -23 87 -72t33 -107q0 -41 -15 -76q-16 -35 -42.5 -61.5t-62.5 -41.5t-77 -15t-76 15q-36 15 -63 41.5t-42 61.5q-16 35 -16 76v436h452q7 0 11.5 4.5t4.5 11.5q0 8 -5 12t-11 4v0z" />
</svg>