<svg viewBox="0 0 1024 1024" xmlns="http://www.w3.org/2000/svg">
  <path transform="scale(1, -1) translate(0, -960)" fill="currentColor" d="M870 288h-137v72q0 7 -4.5 11.5t-11.5 4.5t-11.5 -4.5t-4.5 -11.5v-72h-26q-7 0 -11.5 -4.5t-4.5 -11.5t4.5 -11.5t11.5 -4.5h26v-134q0 -35 25 -60t61 -25t61.5 25t25.5 60q0 28 -12 43.5t-41 24.5q-6 3 -12.5 0t-8.5 -9t1 -12.5t9 -8.5q21 -7 25.5 -15t4.5 -23 q0 -22 -16 -37.5t-38 -15.5q-23 0 -39 15.5t-16 37.5v134h138q7 0 11.5 4.5t4.5 11.5t-3.5 11.5t-11.5 4.5v0zM883 869h-742q-45 0 -77 -29.5t-32 -69.5v-464q0 -42 32 -71.5t77 -29.5h369q8 0 12 4.5t4 11.5t-4 11.5t-12 4.5h-369q-31 0 -54 20t-23 49v225h896v-139 q0 -7 4.5 -11.5t11.5 -4.5t11.5 4.5t4.5 11.5v378q0 40 -32 69.5t-77 29.5v0zM141 837h742q31 0 54 -20t23 -49v-69h-896v69q0 29 23 49t54 20zM64 563v106h896v-106h-896v0z" />
</svg>