<svg viewBox="0 0 256 256" xmlns="http://www.w3.org/2000/svg">
  <path transform="scale(1, -1) translate(0, -256)" fill="currentColor" d="M128 244q-31 0 -58 -15.5t-42.5 -42.5t-15.5 -58t15.5 -58t42.5 -42.5t58 -15.5t58 15.5t42.5 42.5t15.5 58t-15.5 58t-42.5 42.5t-58 15.5zM128 26q-28 0 -51.5 13.5t-37 37t-13.5 51.5t13.5 51.5t37 37t51.5 13.5t51.5 -13.5t37 -37t13.5 -51.5t-13.5 -51.5t-37 -37 t-51.5 -13.5zM166 160h-53v28q0 3 -2 5t-5 2t-5 -2t-2 -5v-28h-9q-3 0 -5.5 -2t-2.5 -5t2.5 -5t5.5 -2h9v-51q0 -14 10 -24t24 -10t24 10t10 24q0 10 -5.5 18.5t-15.5 12.5q-3 1 -5.5 0t-3.5 -3.5t0 -5.5t3 -4q6 -2 9.5 -7t3.5 -11q0 -9 -6 -14.5t-14.5 -5.5t-14 5.5 t-5.5 14.5v51h53q3 0 5 2.5t2 5.5t-2 4.5t-5 1.5z" />
</svg>