<svg viewBox="0 0 1024 1024" xmlns="http://www.w3.org/2000/svg">
  <path transform="scale(1, -1) translate(0, -960)" fill="currentColor" d="M978 376l-223 309v227q0 7 -4.5 11.5t-11.5 4.5t-11.5 -4.5t-4.5 -11.5v-224l-211 -294l-211 294v224q0 7 -4.5 11.5t-11.5 4.5t-11.5 -4.5t-4.5 -11.5v-227l-223 -309q-1 -2 -2 -4.5t-1 -5.5v-320q1 -32 24.5 -55t55.5 -23h779q33 0 56 23t23 55v320q-1 3 -1.5 5.5 t-1.5 4.5zM286 653l213 -296q5 -6 13 -6t13 6l213 296l209 -293v-194h-870v196zM901 0h-778q-19 0 -32.5 13.5t-13.5 32.5v88h872v-88q-1 -19 -15 -32.5t-33 -13.5z" />
</svg>