<svg viewBox="0 0 1024 1024" xmlns="http://www.w3.org/2000/svg">
  <path transform="scale(1, -1) translate(0, -960)" fill="currentColor" d="M349 696q6 1 10 6.5t4 11.5q-3 28 3.5 55.5t22.5 51.5q37 57 104 72t123 -23q40 -25 60 -67.5t15 -88.5q-1 -6 3 -11.5t12 -6.5h0.5h0.5q6 0 10.5 4t5.5 10q6 57 -17.5 107.5t-71.5 80.5q-35 21 -73 27q-39 7 -76 -1t-69 -30q-33 -21 -54 -56q-18 -28 -26 -61t-5 -67 q0 -7 5.5 -11t12.5 -3v0zM792 317q-59 74 -124.5 110.5t-91.5 46.5v22v21.5v20.5v20v21v23v35v33q0 22 -15 38t-36 18q-22 2 -38 -11.5t-18 -36.5l-5 -41q-10 -63 -20.5 -126t-21.5 -124q-2 -8 -4 -14.5t-5 -10.5q-4 -6 -7 -9l-4 -4v0v0q-4 6 -9.5 16t-10.5 21 q-12 24 -18.5 35.5t-11.5 15.5q-10 11 -24.5 23t-36.5 15q-11 3 -23.5 0.5t-21.5 -8.5t-15 -12.5t-7 -14.5q-1 -7 0.5 -15.5t7.5 -16.5q16 -24 29 -52t24 -60q1 -5 3 -10.5t5 -11.5q2 -8 5 -15.5t4 -13.5q5 -18 14 -33.5t23 -32.5l30.5 -44t46.5 -106q7 -27 29 -44t49 -17 l176 2q17 1 30 12.5t15 28.5l5 31l2 8q2 8 5 17.5t7 20.5q28 47 43.5 100t22.5 94q2 7 0 16t-8 19v0zM770 288q-2 0 -2 -0.5t2 0.5q-11 -56 -27.5 -104t-35.5 -82v-0.5t-1 -0.5q-5 -12 -8.5 -23.5t-6.5 -19.5l-3 -8v-1v-1l-5 -32v0v0q-1 -6 -5 -9.5t-9 -4.5l-176 -2 q-17 0 -30 10t-17 25q-16 67 -48 114t-35 49q-12 15 -18.5 27.5t-11.5 25.5q-3 7 -5.5 16t-5.5 16q-3 6 -4.5 11t-3.5 10q-12 35 -26 65t-30 55q-3 4 -3.5 5.5t-0.5 2.5t2 2.5t6 3.5q3 2 8 3t10 1h2.5h2.5q14 -3 24.5 -12t18.5 -19q4 -3 11 -18t13 -27q6 -10 11 -20.5 t10 -17.5q6 -11 13.5 -14.5t13.5 -3.5q13 0 23 10t17 19q6 9 9 19t5 18q12 62 22 126t20 125l6 43q2 10 8 15.5t15 5.5q9 -1 15 -7.5t6 -16.5v-34v-35v-22v-21.5v-20.5v-20v-21v-34q0 -5 3 -9t8 -7l21 -8t52.5 -25.5t68.5 -46.5t69 -70q1 -1 1.5 -2.5t0.5 -2.5v0z" />
</svg>