<svg viewBox="0 0 256 256" xmlns="http://www.w3.org/2000/svg">
  <path transform="scale(1, -1) translate(0, -256)" fill="currentColor" d="M87 187q3 0 5 2.5t1 4.5q-1 13 6.5 25.5t23 16t29.5 -4.5q9 -6 13.5 -16t3.5 -21q0 -3 1.5 -5t4.5 -2h1q3 0 4.5 1.5t2.5 4.5q2 15 -4.5 28.5t-19 21t-26.5 8.5t-26.5 -5.5t-19.5 -18.5q-10 -16 -8 -34q1 -3 3.5 -4.5t4.5 -1.5zM200 97q-19 25 -53 39v48q0 7 -4.5 11.5 t-11 5t-11.5 -3.5t-6 -11l-12 -73l-1 -5l-3 5q-6 11 -8 14q-8 8 -17 10q-3 1 -6.5 0.5t-6.5 -2.5q-6 -4 -7 -9t3 -10q6 -10 12 -27l5 -13q2 -9 9 -18l4 -5q4 -6 8 -13q5 -9 7 -17.5t8 -13t14 -4.5h45q5 0 9 4t5 9l2 11l2 7q11 18 17 49q1 7 -3 12zM189 88q-5 -27 -15 -45v-1 q-2 -3 -4 -10v-3q0 -1 -1 -1l-1 -8l-1 -1h-44q-3 0 -5.5 2t-3.5 5q-3 14 -12 29q-6 9 -9 13q-5 6 -7 12l-5 13q-6 19 -14 30l3 1q4 -2 8 -6.5t7 -10.5l5 -10q4 -5 10 -5t12 8q2 4 4 10l12 74q0 3 2.5 3t2.5 -3v-53q0 -5 5 -7q0 1 9 -3q10 -4 20 -11q13 -10 22 -22v0v0v0v0z " />
</svg>