<svg viewBox="0 0 1024 1024" xmlns="http://www.w3.org/2000/svg">
  <path transform="scale(1, -1) translate(0, -960)" fill="currentColor" d="M512 432q38 0 65.5 27t27.5 66q0 38 -27.5 65.5t-65.5 27.5t-65.5 -27.5t-27.5 -65.5q0 -39 27.5 -66t65.5 -27v0zM512 586q25 0 43 -18t18 -43t-18 -43t-43 -18t-43 18t-18 43t18 43t43 18v0zM512 373q-46 0 -85.5 -20.5t-64.5 -58.5q-4 -6 -3 -12t6 -10q6 -4 12.5 -3 t9.5 6q22 31 55 48.5t70 17.5t70 -17.5t55 -48.5q2 -3 5.5 -4.5t7.5 -1.5q2 0 4.5 1t4.5 2q6 4 7 10t-4 12q-25 38 -64.5 58.5t-85.5 20.5v0zM178 531q-5 5 -11.5 5t-11.5 -5t-5 -11t5 -11l45 -45h-152q-7 0 -11.5 -4.5t-4.5 -11.5t4.5 -11.5t11.5 -4.5h150l-44 -45 q-5 -5 -5 -11t5 -11q2 -3 5 -4t6 -1q2 0 5.5 1t5.5 4l72 72q5 5 5 11t-5 11zM976 464h-150l44 45q5 5 5 11t-5 11q-4 5 -10.5 5t-11.5 -5l-72 -72q-5 -5 -5 -11t5 -11l72 -72q2 -3 5.5 -4t5.5 -1q3 0 6 1t5 4q5 5 5 11t-5 11l-44 45h150q7 0 11.5 4.5t4.5 11.5t-4.5 11.5 t-11.5 4.5v0zM501 712q2 -2 5.5 -3.5t5.5 -1.5t5.5 1.5t5.5 3.5l72 72q5 5 5 11.5t-5 10.5q-5 5 -11 5t-11 -5l-45 -44v150q0 7 -4.5 11.5t-11.5 4.5t-11.5 -4.5t-4.5 -11.5v-150l-45 44q-5 5 -11 5t-11 -5q-5 -4 -5 -10.5t5 -11.5l72 -72v0zM523 184q-5 5 -11 5t-11 -5 l-72 -72q-5 -5 -5 -11.5t5 -10.5q5 -5 11 -5t11 5l45 44v-150q0 -7 4.5 -11.5t11.5 -4.5t11.5 4.5t4.5 11.5v150l45 -44q2 -3 5.5 -4t5.5 -1t5.5 1t5.5 4q5 4 5 10.5t-5 11.5z" />
</svg>