<svg viewBox="0 0 1024 1024" xmlns="http://www.w3.org/2000/svg">
  <path transform="scale(1, -1) translate(0, -960)" fill="currentColor" d="M976 464h-117q-3 70 -30 131t-71.5 107t-103.5 74q-59 27 -126 30v106q0 7 -4.5 11.5t-11.5 4.5t-11.5 -4.5t-4.5 -11.5v-106q-67 -3 -126 -30q-59 -28 -103.5 -74t-71.5 -107t-30 -131h-117q-7 0 -11.5 -4.5t-4.5 -11.5t4.5 -11.5t11.5 -4.5h117q3 -70 30 -131 t71.5 -107t103.5 -74q59 -27 126 -30v-106q0 -7 4.5 -11.5t11.5 -4.5t11.5 4.5t4.5 11.5v106q67 3 126 30q59 28 103.5 74t71.5 107t30 131h117q7 0 11.5 4.5t4.5 11.5t-4.5 11.5t-11.5 4.5zM827 464h-144q-6 64 -49.5 109t-105.5 51v150q61 -3 114 -29q53 -25 93 -66.5 t65 -96.5q24 -55 27 -118zM512 302v0v0v0v0q-58 0 -98.5 43t-40.5 103v0v0v0v0q0 60 40.5 102t98.5 44v0v0v0v0q58 0 98.5 -43t40.5 -103v0v0v0v0q0 -60 -40.5 -103t-98.5 -43zM496 774v-150q-61 -6 -105 -51t-50 -109h-144q3 63 27 118q25 55 65 96.5t93 66.5q53 26 114 29 zM197 432h144q6 -64 49.5 -109t105.5 -51v-150q-61 3 -114 29q-53 25 -93 66.5t-65 96.5q-24 55 -27 118zM528 122v150q61 6 105 51t50 109h144q-3 -63 -27 -118q-25 -55 -65 -96.5t-93 -66.5q-53 -26 -114 -29z" />
</svg>