<svg viewBox="0 0 256 256" xmlns="http://www.w3.org/2000/svg">
  <path transform="scale(1, -1) translate(0, -256)" fill="currentColor" d="M128 251q-33 0 -61.5 -16.5t-45 -45t-16.5 -61.5t16.5 -61.5t45 -45t61.5 -16.5t61.5 16.5t45 45t16.5 61.5t-16.5 61.5t-45 45t-61.5 16.5zM135 19v17q0 3 -2 5t-5 2t-5 -2t-2 -5v-17q-27 2 -49.5 16t-36.5 36.5t-16 49.5h17q3 0 5 2t2 5t-2 5t-5 2h-17q2 27 16 49.5 t36.5 36.5t49.5 16v-17q0 -3 2 -5t5 -2t5.5 2t2.5 5v17q26 -2 49 -16t37 -36.5t15 -49.5h-16q-3 0 -5 -2t-2 -5t2 -5t5 -2h16q-2 -27 -16 -49.5t-36.5 -36.5t-49.5 -16zM167 164h-78q-7 0 -11 -4t-4 -11v-43q0 -6 4 -10.5t11 -4.5h78q6 0 10.5 4.5t4.5 10.5v44q0 6 -4.5 10 t-10.5 4zM153 150l-23 -12q-2 -2 -4 0l-22 12h49zM167 106h-78q-1 0 -1 1v37l31 -18q4 -2 9 -2t9 2l31 18v-37q0 -1 -1 -1z" />
</svg>