<svg viewBox="0 0 1024 1024" xmlns="http://www.w3.org/2000/svg">
  <path transform="scale(1, -1) translate(0, -960)" fill="currentColor" d="M976 464h-117q-3 67 -31 126q-27 59 -71.5 103t-103.5 71q-58 27 -125 30v118q0 7 -4.5 11.5t-11.5 4.5t-11.5 -4.5t-4.5 -11.5v-118q-67 -3 -125 -30q-59 -27 -103.5 -71t-71.5 -103q-28 -59 -31 -126h-117q-7 0 -11.5 -4.5t-4.5 -11.5t4.5 -11.5t11.5 -4.5h117 q2 -68 29 -127q27 -60 71.5 -105t104.5 -72q59 -27 126 -30v-114q0 -7 4.5 -11.5t11.5 -4.5t11.5 4.5t4.5 11.5v114q67 3 126 30t103.5 72t71.5 105q27 59 30 127h117q7 0 11.5 4.5t4.5 11.5t-4.5 11.5t-11.5 4.5zM528 130v22q0 7 -4.5 11.5t-11.5 4.5t-11.5 -4.5 t-4.5 -11.5v-22q-61 3 -114 27q-53 25 -93 65.5t-65 94.5q-24 54 -27 115h61q7 0 11.5 4.5t4.5 11.5t-4.5 11.5t-11.5 4.5h-61q3 60 28 113t65 93t93 64q53 25 113 28v-18q0 -7 4.5 -11.5t11.5 -4.5t11.5 4.5t4.5 11.5v18q60 -3 113 -28q53 -24 93 -64t64 -93 q25 -53 28 -113h-20q-7 0 -11.5 -4.5t-4.5 -11.5t4.5 -11.5t11.5 -4.5h20q-3 -61 -27 -115t-64 -94.5t-93 -65.5q-53 -24 -114 -27zM571 371q25 15 40.5 41t15.5 57q0 47 -33.5 80t-79.5 33q-47 0 -80.5 -33t-33.5 -80q0 -31 15.5 -57t40.5 -41q-28 -7 -53 -20t-48 -33 q-5 -4 -5 -10.5t4 -11.5t10.5 -5.5t11.5 3.5q29 26 64 39.5t74 13.5q38 0 73 -13.5t64 -39.5q3 -2 5.5 -3t5.5 -1q4 0 6.5 1t5.5 3q4 5 3.5 11.5t-5.5 11.5q-23 20 -48 33.5t-53 20.5zM430 469q0 33 24 57t58 24t58 -24t24 -57q0 -34 -24 -58t-58 -24t-58 24t-24 58v0z" />
</svg>