<svg viewBox="0 0 256 256" xmlns="http://www.w3.org/2000/svg">
  <path transform="scale(1, -1) translate(0, -256)" fill="currentColor" d="M244 135h-23q-1 23 -13 42t-31 31t-42 13v23q0 3 -2 5t-5 2t-5 -2t-2 -5v-23q-23 -1 -42 -13t-31 -31t-13 -42h-23q-3 0 -5 -2t-2 -5t2 -5.5t5 -2.5h23q2 -22 13.5 -41.5t31 -31t41.5 -13.5v-22q0 -3 2 -5t5 -2t5.5 2t2.5 5v23q22 2 41.5 13.5t31 31t13.5 41.5h22 q3 0 5 2t2 5t-2 5t-5 2zM135 49v5q0 3 -2 5.5t-5 2.5t-5 -2.5t-2 -5.5v-5q-29 2 -49.5 22.5t-22.5 49.5h5q3 0 5.5 2t2.5 5t-2.5 5t-5.5 2h-5q2 29 22.5 49.5t49.5 22.5v-5q0 -3 2 -5.5t5 -2.5t5.5 2.5t2.5 5.5v5q18 -1 34 -11t26 -26t11 -35h-5q-3 0 -5.5 -2t-2.5 -5 t2.5 -5.5t5.5 -2.5h5q-1 -18 -11 -34t-26 -26t-35 -11zM138 135h-20q-3 0 -5.5 2t-2.5 5t2.5 5t5.5 2h30q3 0 5 2t2 5t-2 5.5t-5 2.5h-10v1q0 3 -2.5 5t-5.5 2t-5 -2t-2 -5v-1h-5q-9 0 -15.5 -6.5t-6.5 -15t6.5 -15t15.5 -6.5h20q3 0 5.5 -2t2.5 -5t-2.5 -5t-5.5 -2h-34 q-3 0 -5 -2t-2 -5t2 -5.5t5 -2.5h20v-1q0 -3 2 -5t5 -2t5 2t2 5v1v0q9 0 15.5 6.5t6.5 15.5t-6.5 15t-15.5 6z" />
</svg>