<svg viewBox="0 0 256 256" xmlns="http://www.w3.org/2000/svg">
  <path transform="scale(1, -1) translate(0, -256)" fill="currentColor" d="M244 135h-26q-2 22 -13.5 41t-29.5 31t-40 13v24q0 3 -2 5t-5 2t-5 -2t-2 -5v-24q-22 -1 -40 -13t-29.5 -31t-13.5 -41h-26q-3 0 -5 -2t-2 -5t2 -5.5t5 -2.5h26q2 -22 13.5 -41t29.5 -30.5t40 -13.5v-23q0 -3 2 -5t5 -2t5 2t2 5v24q22 1 40 13t29.5 31t13.5 41h26 q3 0 5 2t2 5t-2 5t-5 2zM204 135h-30q-2 15 -13 26t-26 13v32q27 -2 46.5 -22.5t22.5 -48.5zM128 95q-13 0 -22.5 9.5t-9.5 23.5t9.5 23.5t22.5 9.5t22 -9.5t9.5 -23.5t-9 -23.5t-22.5 -9.5zM121 206v-31q-15 -3 -25.5 -14t-12.5 -26h-30q2 28 21.5 48.5t46.5 22.5zM52 121 h30q2 -15 13 -26t26 -14v-31q-27 2 -46.5 22.5t-22.5 48.5zM135 50v31q15 3 25.5 14t13.5 26h30q-3 -28 -22.5 -48.5t-46.5 -22.5z" />
</svg>