<svg viewBox="0 0 1024 1024" xmlns="http://www.w3.org/2000/svg">
  <path transform="scale(1, -1) translate(0, -960)" fill="currentColor" d="M805 189q44 0 74.5 31t30.5 74q0 44 -31 75t-74 31t-74.5 -31t-31.5 -75q0 -43 30.5 -74t75.5 -31zM805 370q31 0 52 -22t21 -52t-21.5 -52t-51.5 -22t-52 22t-22 52t21.5 52t52.5 22zM987 50q-35 36 -82 55.5t-99 19.5q-51 0 -98.5 -19.5t-81.5 -55.5q-5 -5 -5 -11.5 t5 -11.5q4 -5 10.5 -5t11.5 5q30 31 71.5 48.5t86.5 17.5q46 0 87.5 -17.5t71.5 -48.5q2 -2 5.5 -3.5t5.5 -1.5q4 0 6.5 1.5t4.5 3.5q5 4 5 11t-5 12v0zM490 528q-3 5 -3 10.5t3 10.5l64 144q6 13 4.5 28t-9.5 28q-9 13 -21.5 20t-28.5 7h-435v82q0 7 -4.5 11.5t-11.5 4.5 t-11.5 -4.5t-4.5 -11.5v-818q0 -7 4.5 -11.5t11.5 -4.5t11.5 4.5t4.5 11.5v261h437q14 0 27.5 7t21.5 20q9 13 10 27.5t-5 28.5zM522 344q-4 -6 -10 -9.5t-13 -3.5h-435v413h437q7 0 13 -3.5t9 -9.5q4 -6 4.5 -12.5t-2.5 -12.5l-64 -144q-5 -11 -5 -23.5t5 -24.5l64 -144 q2 -6 1.5 -13t-4.5 -13zM278 546h-27q-9 0 -16.5 8t-7.5 19t7.5 19t16.5 8h55q7 0 11.5 4.5t4.5 11.5t-4.5 11.5t-11.5 4.5h-28v1v1v30q0 7 -4 11.5t-12 4.5q-7 0 -11.5 -4.5t-4.5 -11.5v-30v-1v-1q-21 -2 -36 -18.5t-15 -39.5v0v0v0v0v0v0v0v0v0v0q0 -24 16.5 -41.5 t39.5 -17.5h27q10 0 17 -8t7 -19t-7 -19t-17 -8h-54q-7 0 -11.5 -4.5t-4.5 -11.5t4.5 -11.5t11.5 -4.5h22v-21q0 -7 4.5 -11.5t11.5 -4.5v0v0q6 0 11 4.5t5 11.5v21q23 0 39.5 17t16.5 42v0v0v0v0v0v0v0v0q0 24 -16.5 41t-39.5 17v0z" />
</svg>