<svg viewBox="0 0 1024 1024" xmlns="http://www.w3.org/2000/svg">
  <path transform="scale(1, -1) translate(0, -960)" fill="currentColor" d="M368 24q-68 23 -124 65t-96 98t-62 122q-22 67 -22 139q0 92 35 174q36 81 96.5 142t142.5 97q82 35 174 35q69 0 134 -21q64 -20 119 -58t98 -90q42 -53 67 -117q2 -6 8 -9t12 -1t9 8.5t1 12.5q-26 69 -72 125q-46 57 -105 97.5t-128 62.5t-143 22q-99 0 -186 -38 q-88 -38 -153 -103t-103 -153q-38 -87 -38 -186q0 -77 24 -149q23 -71 66 -131t102 -105q60 -45 133 -69q1 0 2 -1t3 -1q4 0 8.5 3t5.5 8q4 6 1 12.5t-9 8.5zM512 584q23 0 43.5 -7t38.5 -22q4 -3 11 -3t11 6q4 5 3.5 12t-6.5 11q-22 17 -47.5 26t-53.5 9q-68 0 -116.5 -48 t-48.5 -117q0 -27 9.5 -53t25.5 -49q3 -4 6.5 -5.5t6.5 -1.5t5 1t5 3q5 3 6 10t-3 12q-14 18 -21.5 39t-7.5 43q0 56 39 95t94 39v0zM733 488q-54 0 -101 -20q-48 -21 -83 -56t-55 -83q-20 -47 -20 -100q0 -54 20 -101t55 -83t83 -56q47 -21 101 -21t101 20q47 21 82 56 t56 83q20 47 20 100q0 54 -20 101q-21 47 -56 83t-83 56q-47 21 -100 21v0zM733 0q-48 0 -89 18t-72 49t-49 72q-17 41 -17 88t18 88q17 42 48 73t73 48q41 18 88 18t88 -17q41 -18 72 -49t49 -72t18 -89q0 -47 -18 -89q-18 -41 -49 -72t-72 -48q-41 -18 -88 -18zM392 187 q-39 18 -70 45q-32 27 -54 61.5t-34 75.5q-12 40 -12 82q0 60 23 113t63 92.5t93 62.5t113 23q42 0 82 -12t75 -34.5t62 -53.5q28 -32 46 -71q3 -6 9 -8t12 0q6 3 8 9t0 12q-20 43 -51 78q-31 36 -69.5 60.5t-83.5 38.5q-45 13 -92 13q-67 0 -125 -25q-59 -25 -103 -69 t-70 -103q-25 -59 -25 -126q0 -47 13 -92q13 -44 38 -82.5t59 -69.5q35 -30 79 -50q1 -1 3 -1.5t3 -0.5q5 0 8.5 2.5t5.5 7.5q4 6 2 12.5t-8 9.5zM808 304q-5 5 -11.5 5t-10.5 -5l-53 -53l-55 53q-4 5 -10.5 5t-11.5 -5t-5 -11.5t5 -10.5l53 -53l-53 -55q-5 -4 -5 -10.5 t5 -11.5q2 -2 5.5 -3.5t5.5 -1.5q3 0 6 1.5t5 3.5l53 53l53 -53q2 -2 5.5 -3.5t5.5 -1.5q3 0 6 1.5t5 3.5q5 5 5 11.5t-5 10.5l-52 53l52 53q6 6 6.5 12.5t-4.5 11.5v0z" />
</svg>