<svg viewBox="0 0 1024 1024" xmlns="http://www.w3.org/2000/svg">
  <path transform="scale(1, -1) translate(0, -960)" fill="currentColor" d="M976 464h-117q-3 67 -31 126q-27 59 -71.5 103t-103.5 71q-58 27 -125 30v118q0 7 -4.5 11.5t-11.5 4.5t-11.5 -4.5t-4.5 -11.5v-118q-67 -3 -125 -30q-59 -27 -103.5 -71t-71.5 -103q-28 -59 -31 -126h-117q-7 0 -11.5 -4.5t-4.5 -11.5t4.5 -11.5t11.5 -4.5h117 q2 -68 29 -127q27 -60 71.5 -105t104.5 -72q59 -27 126 -30v-114q0 -7 4.5 -11.5t11.5 -4.5t11.5 4.5t4.5 11.5v114q67 3 126 30t103.5 72t71.5 105q27 59 30 127h117q7 0 11.5 4.5t4.5 11.5t-4.5 11.5t-11.5 4.5zM528 130v27q0 7 -4.5 11.5t-11.5 4.5t-11.5 -4.5 t-4.5 -11.5v-27q-61 3 -114 27q-53 25 -93 65.5t-65 94.5q-24 54 -27 115h24q7 0 11.5 4.5t4.5 11.5t-4.5 11.5t-11.5 4.5h-23q3 60 28 113q24 53 64 93t93 64q53 25 113 28v-23q0 -7 4.5 -11.5t11.5 -4.5t11.5 4.5t4.5 11.5v23q60 -3 113 -28q53 -24 93 -64t64 -93 q25 -53 28 -113h-23q-7 0 -11.5 -4.5t-4.5 -11.5t4.5 -11.5t11.5 -4.5h24q-3 -61 -27 -115q-25 -54 -65 -94.5t-93 -65.5q-53 -24 -114 -27zM512 566q-49 0 -83.5 -34.5t-34.5 -83.5t34.5 -83.5t83.5 -34.5t83.5 34.5t34.5 83.5t-34.5 83.5t-83.5 34.5zM512 362 q-36 0 -61 25t-25 61t25 61t61 25t61 -25t25 -61t-25 -61t-61 -25z" />
</svg>