<svg viewBox="0 0 256 256" xmlns="http://www.w3.org/2000/svg">
  <path transform="scale(1, -1) translate(0, -256)" fill="currentColor" d="M93 25q-33 11 -53.5 39.5t-20.5 63.5q0 30 15 54.5t39.5 39.5t54.5 15q34 0 62 -19.5t40 -50.5q0 -2 3 -3.5t5.5 -0.5t4 4t0.5 5q-14 36 -45.5 57.5t-69.5 21.5q-33 0 -61.5 -16.5t-45 -45t-16.5 -61.5q0 -40 23 -72t60 -44l3 -1q2 0 4 1.5t2.5 4t-1 5t-3.5 3.5zM128 159 q10 0 19 -6q2 -2 5 -1.5t5 2.5t1.5 5t-2.5 5q-13 9 -28 9q-18 0 -31 -13t-13 -31q0 -16 10 -27q2 -3 5 -3t5 1.5t2.5 4.5t-1.5 5q-7 8 -7 19.5t8.5 20.5t21.5 9zM183 141q-18 0 -34 -9t-25 -25t-9 -34.5t9 -34t25 -24.5t34.5 -9t34 9t24.5 24.5t9 34t-9 34.5t-24.5 25 t-34.5 9zM183 19q-14 0 -26.5 7t-20 19.5t-7.5 27t7.5 27t20 20t27 7.5t27 -7.5t19.5 -20t7 -27t-7 -27t-19.5 -19.5t-27.5 -7zM99 65q-18 9 -29.5 26t-11.5 37t9.5 36t25.5 25t35.5 9t37 -11t26.5 -30q1 -3 3.5 -4t5.5 0.5t4 4t-1 5.5q-10 23 -30.5 36t-44.5 13t-43 -11 t-30.5 -30.5t-11.5 -43t13.5 -44t36.5 -30.5q1 -1 2 -1q5 0 6.5 3.5t0.5 6t-4 3.5zM204 94q-2 2 -5 2t-5 -2l-11 -11l-11 11q-2 2 -5 2t-5 -2t-2 -5t2 -5l11 -11l-11 -11q-2 -2 -2 -5t2 -5t5 -2t5 2l11 11l11 -11q2 -2 5 -2t5 2t2 5t-2 5l-12 11l12 11q2 2 2 5t-2 5z" />
</svg>