<svg viewBox="0 0 256 256" xmlns="http://www.w3.org/2000/svg">
  <path transform="scale(1, -1) translate(0, -256)" fill="currentColor" d="M128 121q11 0 18.5 7.5t7.5 18.5t-7.5 19t-18.5 8t-18.5 -8t-7.5 -19t7.5 -18.5t18.5 -7.5zM128 160q5 0 8.5 -4t3.5 -9t-3.5 -8.5t-8.5 -3.5t-8.5 3.5t-3.5 8.5t3.5 9t8.5 4zM128 112q-12 0 -22.5 -5.5t-17.5 -15.5q-2 -2 -1.5 -5t2.5 -4.5t5 -1.5t5 4q5 7 12.5 11t16 4 t16 -4t12.5 -11q2 -3 5 -3.5t5 1.5t2.5 4.5t-0.5 5.5q-7 9 -17.5 14.5t-22.5 5.5zM46 151q-2 2 -5 2t-5 -2t-2 -5t2 -5l6 -6h-30q-3 0 -5 -2t-2 -5t2 -5t5 -2h30l-6 -6q-2 -2 -2 -5t2 -5t5 -2t5 2l18 18q2 2 2 5t-2 5zM244 135h-30l6 6q2 2 2 5t-2.5 5t-5 2t-4.5 -2l-18 -18 q-2 -2 -2.5 -5t2.5 -5l18 -18q2 -2 4.5 -2t4.5 2t2 5t-2 5l-6 6h31q3 0 5 2t2 5t-2 5t-5 2zM123 192q2 -2 5 -2t5 2l18 18q2 2 2 4.5t-2 5t-5 2.5t-5 -2l-6 -6v30q0 3 -2 5t-5 2t-5 -2t-2 -5v-30l-6 6q-2 2 -5 2t-5 -2t-2 -5t2 -5zM133 64q-2 2 -5 2.5t-5 -2.5l-18 -18 q-2 -2 -2 -5t2 -5t5 -2t5 2l6 6v-30q0 -3 2 -5t5 -2t5 2t2 5v30l6 -6q2 -2 5 -2t5 2t2 5t-2 5z" />
</svg>