<svg viewBox="0 0 256 256" xmlns="http://www.w3.org/2000/svg">
  <path transform="scale(1, -1) translate(0, -256)" fill="currentColor" d="M201 60q12 0 21 9t9 21t-9 21t-21 9t-20.5 -9t-8.5 -21t8.5 -21t20.5 -9zM201 105q7 0 11.5 -4.5t4.5 -11t-4.5 -11t-11 -4.5t-11 4.5t-4.5 11t4.5 11t10.5 4.5zM249 30q-9 10 -21.5 15t-26 5t-26 -5t-21.5 -15q-2 -2 -2 -5t2 -5t5 -2t5 2q7 8 17 12t20.5 4t20.5 -4 t17 -12q2 -2 5 -2t5 2.5t2 5t-2 4.5zM141 188q4 9 -1 17t-15 8h-106v17q0 3 -2 5.5t-5 2.5t-5 -2.5t-2 -5.5v-204q0 -3 2 -5t5 -2t5.5 2t2.5 5v62h106q4 0 8 2t6.5 6t2.5 8.5t-1 8.5l-16 36q-1 1 0 3zM112 143l16 -36q1 -1 0 -3v-1q-1 -1 -3 -1h-106v97h106q2 0 3 -1.5 t1 -3.5l-16 -36q-4 -7 -1 -15zM70 156h-7q-1 0 -2 1t-1 2.5t1 3t2 1.5h13q3 0 5.5 2t2.5 5t-2.5 5t-5.5 2h-3v5q0 3 -2 5t-5 2t-5.5 -2t-2.5 -5v-6q-5 -1 -8.5 -6t-3.5 -11.5t5 -11.5t12 -5h7q1 0 2 -1t1 -3t-1 -3t-2 -1h-14q-3 0 -5 -2t-2 -5t2 -5.5t5 -2.5h2v-2q0 -3 2 -5 t5 -2t5 2t2 5v2q6 2 10 6.5t4 11.5t-4.5 12.5t-11.5 5.5z" />
</svg>