<svg viewBox="0 0 1024 1024" xmlns="http://www.w3.org/2000/svg">
  <path transform="scale(1, -1) translate(0, -960)" fill="currentColor" d="M512 928q-99 0 -186 -38q-88 -38 -153 -103t-103 -153q-38 -87 -38 -186t38 -186q38 -88 103 -153t153 -103q87 -38 186 -38t186 38q88 38 153 103t103 153q38 87 38 186t-38 186q-38 88 -103 153t-153 103q-87 38 -186 38zM528 0v78q0 8 -4.5 12t-11.5 4t-11.5 -4 t-4.5 -12v-78q-88 3 -165 38t-135.5 93.5t-93.5 135.5t-38 165h78q8 0 12 4.5t4 11.5t-4 11.5t-12 4.5h-78q3 88 38 165t93.5 135.5t135.5 93.5t165 38v-78q0 -8 4.5 -12t11.5 -4t11.5 4t4.5 12v78q88 -3 165 -38t135.5 -93t93.5 -135q35 -78 38 -166h-78q-8 0 -12 -4.5 t-4 -11.5t4 -11.5t12 -4.5h78q-3 -88 -38 -165t-93.5 -135.5t-135.5 -93.5t-165 -38zM669 582h-314q-20 0 -34 -13.5t-14 -34.5v-171q0 -20 14 -34t34 -14h314q20 0 34 14t14 34v171q0 20 -14 34t-34 14v0zM656 550l-130 -73q-7 -4 -15 -4t-15 4l-128 73h288zM669 346h-314 q-7 0 -11.5 4t-4.5 12v168l143 -82q7 -4 15 -6t15 -2t15 2t15 6l143 82v-168q0 -6 -5 -11t-11 -5v0z" />
</svg>