<svg viewBox="0 0 1024 1024" xmlns="http://www.w3.org/2000/svg">
  <path transform="scale(1, -1) translate(0, -960)" fill="currentColor" d="M976 464h-102q-3 70 -31 132q-28 61 -74.5 108t-108.5 75t-132 31v102q0 7 -4.5 11.5t-11.5 4.5t-11.5 -4.5t-4.5 -11.5v-102q-70 -3 -132 -31q-61 -28 -107.5 -74.5t-75.5 -108.5q-28 -62 -31 -132h-102q-7 0 -11.5 -4.5t-4.5 -11.5t4.5 -11.5t11.5 -4.5h102 q3 -70 31 -132t74.5 -108.5t108.5 -74.5t132 -31v-102q0 -7 4.5 -11.5t11.5 -4.5t11.5 4.5t4.5 11.5v102q70 3 132 31q61 28 108 74.5t75 108.5t31 132h102q7 0 11.5 4.5t4.5 11.5t-4.5 11.5t-11.5 4.5zM528 118v36q0 7 -4.5 11.5t-11.5 4.5t-11.5 -4.5t-4.5 -11.5v-36 q-64 3 -119 29q-56 25 -98.5 67.5t-67.5 98.5q-26 55 -29 119h36q7 0 11.5 4.5t4.5 11.5t-4.5 11.5t-11.5 4.5h-36q3 64 29 119q25 56 67.5 98.5t98.5 67.5q55 26 119 29v-36q0 -7 4.5 -11.5t11.5 -4.5t11.5 4.5t4.5 11.5v36q64 -3 119 -29q56 -25 98.5 -67.5t67.5 -98.5 q26 -55 29 -119h-36q-7 0 -11.5 -4.5t-4.5 -11.5t4.5 -11.5t11.5 -4.5h36q-3 -64 -29 -119q-25 -56 -67.5 -98.5t-98.5 -67.5q-55 -26 -119 -29zM552 464h-80q-18 0 -30.5 12.5t-12.5 29.5q0 16 12.5 28.5t30.5 12.5h118q8 0 12 4.5t4 11.5t-4 11.5t-12 4.5h-51v19 q0 8 -4.5 12t-11.5 4t-11.5 -4t-4.5 -12v-19h-35q-31 0 -53 -21.5t-22 -51.5t22 -52t53 -22h80q18 0 30.5 -12.5t12.5 -29.5q0 -16 -12.5 -28.5t-30.5 -12.5h-134q-8 0 -12 -4.5t-4 -11.5t4 -11.5t12 -4.5h89v-19q0 -8 4.5 -12t11.5 -4t11.5 4t4.5 12v19h13q31 0 53 21.5 t22 51.5t-22 52t-53 22z" />
</svg>