<svg viewBox="0 0 1024 1024" xmlns="http://www.w3.org/2000/svg">
  <path transform="scale(1, -1) translate(0, -960)" fill="currentColor" d="M245 403h193q8 0 12 4.5t4 11.5t-4 11.5t-12 4.5h-193q-7 0 -11.5 -4.5t-4.5 -11.5t5 -11.5t11 -4.5v0zM245 254h232q7 0 11.5 4.5t4.5 11.5q0 8 -4.5 12t-11.5 4h-232q-7 0 -11.5 -4t-4.5 -12q0 -7 5 -11.5t11 -4.5zM552 32h-382q-15 0 -25.5 10.5t-10.5 24.5v794 q2 14 11.5 24.5t24.5 10.5h259v-237q0 -26 19.5 -45.5t47.5 -19.5h259v-2v-2v-187q0 -7 4.5 -11.5t11.5 -4.5t11.5 4.5t4.5 11.5v187q0 14 -5.5 26.5t-15.5 21.5l-289 272q-9 9 -20.5 13.5t-24.5 4.5h-262q-28 0 -47 -20t-19 -47v-795q0 -28 20 -48t47 -20h381q7 0 11.5 4.5 t4.5 11.5q0 8 -5 13t-11 5v0zM733 626h-237q-14 0 -24.5 9.5t-10.5 23.5v223zM741 274q0 22 -16.5 39t-39.5 17t-39.5 -17t-16.5 -39q0 -23 16.5 -39.5t39.5 -16.5t39.5 16.5t16.5 39.5zM661 274q0 9 7 16.5t17 7.5q9 0 16.5 -7.5t7.5 -16.5q0 -10 -7.5 -17t-16.5 -7 q-10 0 -17 7t-7 17zM851 94q-23 0 -39.5 -16.5t-16.5 -39.5q0 -22 16.5 -39t39.5 -17t39.5 17t16.5 39q0 23 -16.5 39.5t-39.5 16.5zM851 14q-9 0 -16.5 7.5t-7.5 16.5q0 10 7.5 17t16.5 7q10 0 17 -7t7 -17q0 -9 -7 -16.5t-17 -7.5zM893 286q-5 5 -11.5 5t-11.5 -5 l-220 -219q-5 -5 -5 -11t5 -11q2 -3 5 -4t6 -1q2 0 5.5 1t5.5 4l219 219q6 5 6.5 11.5t-4.5 10.5v0z" />
</svg>