<svg viewBox="0 0 256 256" xmlns="http://www.w3.org/2000/svg">
  <path transform="scale(1, -1) translate(0, -256)" fill="currentColor" d="M61 114h49q3 0 5 2t2 5t-2 5t-5 2h-49q-3 0 -5 -2t-2 -5t2 -5t5 -2zM61 76h58q3 0 5 2.5t2 5.5t-2 5t-5 2h-58q-3 0 -5 -2t-2 -5t2 -5.5t5 -2.5zM138 27h-96q-2 0 -3.5 1.5t-1.5 3.5v199q0 3 1.5 4.5t3.5 1.5h62v-56q0 -8 6 -13.5t14 -5.5h62v-45q0 -3 2 -5t5 -2t5 2t2 5 v47q0 8 -6 14l-72 68q-5 5 -14 5h-66q-8 0 -13.5 -6t-5.5 -14v-199q0 -8 5.5 -13.5t13.5 -5.5h96q3 0 5 2t2 5t-2 5t-5 2zM176 176h-52q-2 0 -4 1.5t-2 3.5v49zM171 71q6 0 10 4t4 10t-4 9.5t-10 3.5t-9.5 -3.5t-3.5 -9.5t3.5 -10t9.5 -4zM213 39q-6 0 -10 -4t-4 -10t4 -9.5 t10 -3.5t9.5 3.5t3.5 9.5t-4 10t-9 4zM225 90q-2 2 -5 2t-5 -2l-55 -55q-2 -2 -2 -5t2 -5t5 -2t5 2l55 55q2 2 2 5t-2 5z" />
</svg>