<svg viewBox="0 0 256 256" xmlns="http://www.w3.org/2000/svg">
  <path transform="scale(1, -1) translate(0, -256)" fill="currentColor" d="M58 90h26q3 0 5 2t2 5t-2 5t-5 2h-26q-3 0 -5 -2t-2 -5t2 -5t5 -2zM167 90h26q3 0 5 2t2 5t-2 5t-5 2h-26q-3 0 -5 -2t-2 -5t2 -5t5 -2zM244 156h-15l-20 50q-2 5 -6.5 8.5t-9.5 3.5h-23l-4 14q-2 6 -7 10t-11 4h-40q-6 -1 -11 -4.5t-7 -9.5l-4 -14h-26q-6 0 -10.5 -3 t-6.5 -8l-19 -51h-12q-3 0 -5 -2.5t-2 -5.5t2 -4.5t5 -1.5h6v-71q0 -8 5 -13.5t13 -5.5v-22q0 -8 5.5 -14t13.5 -6h17q8 0 14 6t6 14v22h68v-22q0 -8 5.5 -14t13.5 -6h17q8 0 14 6t6 14v22h5q8 0 13.5 5.5t5.5 13.5v71h4q3 0 5 2t2 5t-2 5t-5 2zM104 228q1 4 4 4h40 q3 0 4 -4l4 -10h-56zM57 202q0 2 3 2h133q2 0 3 -2l22 -56h-183zM77 30q0 -2 -1.5 -4t-3.5 -2h-17q-2 0 -3.5 2t-1.5 4v22h27v-22zM201 30q0 -3 -1.5 -4.5t-3.5 -1.5h-17q-2 0 -3.5 1.5t-1.5 4.5v22h27v-22zM226 71q0 -2 -2 -3.5t-4 -1.5h-184q-2 0 -3.5 1.5t-1.5 3.5v61 h194v-61h1z" />
</svg>