<svg viewBox="0 0 1024 1024" xmlns="http://www.w3.org/2000/svg">
  <path transform="scale(1, -1) translate(0, -960)" fill="currentColor" d="M232 309h104q7 0 11.5 4.5t4.5 11.5t-4.5 11.5t-11.5 4.5h-104q-7 0 -11.5 -4.5t-4.5 -11.5t5 -11.5t11 -4.5zM667 309h104q7 0 11.5 4.5t4.5 11.5t-4.5 11.5t-11.5 4.5h-104q-7 0 -11.5 -4.5t-4.5 -11.5t5 -11.5t11 -4.5zM976 547h-67l-83 210q-6 17 -21.5 27t-33.5 10 h-104v1.5v1.5l-16 53q-6 20 -23 32t-38 12h-156q-22 0 -38.5 -12t-22.5 -32l-16 -52v-1.5v-1.5h-115q-18 0 -33 -10t-22 -27l-83 -211h-56q-7 0 -11.5 -4.5t-4.5 -11.5t4.5 -11.5t11.5 -4.5h43l-8 -19q0 -1 -0.5 -2.5t-0.5 -2.5v0v0v-270q0 -27 18.5 -45.5t45.5 -18.5h9 v-101q0 -26 19 -45t45 -19h69q26 0 45 19t19 45v101h299v-101q0 -26 19 -45t45 -19h69q26 0 45 19t19 45v101h19q27 0 45.5 18.5t18.5 45.5v269q0 2 -1 4.5t-2 4.5l-6 16h54q7 0 11.5 4.5t4.5 11.5t-5 11.5t-11 4.5v0zM403 840q4 10 12 16t19 6h156q11 0 19.5 -6t11.5 -16 l14 -45h-246l14 45v0zM216 746q4 7 10.5 11.5t13.5 4.5h531q9 0 15.5 -4.5t8.5 -11.5l95 -240h-768l94 240v0zM322 54q0 -13 -9.5 -22.5t-22.5 -9.5h-69q-13 0 -22.5 9.5t-9.5 22.5v101h133v-101zM818 54q0 -13 -9.5 -22.5t-22.5 -9.5h-69q-13 0 -22.5 9.5t-9.5 22.5v101 h133v-101v0zM899 219q0 -13 -9.5 -22.5t-22.5 -9.5h-721q-14 0 -23 9.5t-9 22.5v255h785v-255z" />
</svg>