<svg viewBox="0 0 1024 1024" xmlns="http://www.w3.org/2000/svg">
  <path transform="scale(1, -1) translate(0, -960)" fill="currentColor" d="M238 474h85q7 0 11.5 4t4.5 12q0 7 -4.5 11.5t-11.5 4.5h-85q-7 0 -11.5 -4.5t-4.5 -11.5q0 -8 4.5 -12t11.5 -4v0zM962 251l-76 39v320q0 66 -24 124t-66.5 101t-98.5 68q-57 25 -121 25q-67 0 -122 -18t-95.5 -51.5t-64.5 -79.5q-24 -47 -28 -104h-148 q-13 0 -23.5 -8.5t-12.5 -21.5l-28 -117q-1 -4 -1 -6.5v-4.5v-511q0 -15 11.5 -26.5t26.5 -11.5h378q15 0 26 11t12 29v509v3.5t-1 1.5l-29 121q-3 13 -13.5 22.5t-23.5 9.5h-142q4 57 29 99q26 41 64.5 68.5t86.5 40.5t98 13q58 0 109 -22q50 -23 88.5 -62t60.5 -91 t22 -111v-322l-75 -38q-4 -3 -7 -6.5t-3 -8.5v-251q0 -7 4.5 -11.5t11.5 -4.5h168q7 0 11.5 4.5t4.5 11.5v253q0 5 -2.5 8.5t-6.5 5.5v0zM445 637l29 -117v-2.5t1 -2.5v-505q0 -4 -2 -7t-4 -3h-378q-2 0 -4 2t-2 4v509l29 123q0 3 1.5 4t2.5 1h322q1 0 3 -1.5t2 -4.5v0z M939 0h-136v227l69 34l69 -34v-227h-2z" />
</svg>