<svg viewBox="0 0 256 256" xmlns="http://www.w3.org/2000/svg">
  <path transform="scale(1, -1) translate(0, -256)" fill="currentColor" d="M60 132h21q3 0 5 2t2 5t-2 5t-5 2h-21q-3 0 -5.5 -2t-2.5 -5t2.5 -5t5.5 -2zM242 82l-17 8v78q0 23 -11 42t-29.5 30t-40.5 11q-34 0 -55.5 -17.5t-24.5 -45.5h-34q-5 0 -8 -3t-4 -7l-7 -30q-1 -1 -1 -3v-128q0 -5 3.5 -8.5t8.5 -3.5h95q5 0 8.5 3.5t3.5 9.5v127v2l-7 31 q-1 4 -4.5 7t-7.5 3h-33q4 25 25 38q17 11 42 11q18 0 33.5 -9.5t24.5 -25t9 -34.5v-78l-17 -9q-4 -2 -4 -6v-63q0 -3 2 -5t5 -2h42q3 0 5 2t2 5v63q-1 5 -4 7zM116 146v-127h-92v125l7 30h78zM232 19h-28v52l14 7l14 -7v-52z" />
</svg>