<svg viewBox="0 0 1024 1024" xmlns="http://www.w3.org/2000/svg">
  <path transform="scale(1, -1) translate(0, -960)" fill="currentColor" d="M938 498q-18 21 -40.5 35.5t-47.5 21.5q25 12 41 36.5t16 54.5q0 42 -29.5 71.5t-71.5 29.5t-72 -29.5t-30 -71.5q0 -30 16 -54.5t42 -36.5q-26 -7 -48 -21.5t-40 -35.5l-3 -3t-1 -2q-22 27 -51.5 45t-61.5 25q33 13 55 43.5t22 68.5q0 49 -35.5 84.5t-84.5 35.5 q-50 0 -85 -35.5t-35 -84.5q0 -38 21.5 -68.5t54.5 -43.5q-32 -7 -61 -25t-52 -45q-1 1 -1.5 2l-1.5 3q-18 21 -40.5 35.5t-47.5 21.5q25 12 41 36.5t16 54.5q0 42 -29.5 71.5t-71.5 29.5t-71 -29.5t-29 -71.5q0 -30 16 -54.5t41 -36.5q-25 -7 -47.5 -21.5t-40.5 -35.5 q-25 -30 -39 -71t-15 -86q0 -5 2 -8.5t6 -6.5q15 -8 65.5 -26t111.5 -18q20 0 39 2t38 7h1t1 -1q7 -4 21 -10.5t35 -13.5v-3v-2q0 -66 46.5 -112.5t111.5 -46.5q66 0 112.5 47t46.5 112v1.5v1.5q22 8 36.5 15.5t19.5 10.5l0.5 0.5l0.5 0.5q21 -5 40 -7t37 -2 q66 0 114.5 18.5t63.5 25.5q3 3 5.5 6.5t2.5 8.5q-2 45 -16.5 86t-39.5 71v0zM736 646q0 29 20 49t49 20t49 -20t20 -49q0 -28 -20 -48t-49 -20t-49 20t-20 48zM424 675q0 36 26 62t62 26t62 -26t26 -62t-26 -62t-62 -26t-62 25.5t-26 62.5zM149 646q0 29 20 49t49 20 q28 0 48 -20t20 -49q0 -28 -20 -48t-48 -20q-29 0 -49 20t-20 48zM64 350q2 38 14 70.5t32 56.5q22 25 50 39t58 14q31 0 59 -14t49 -39q3 -3 5 -5.5t3 -5.5q-20 -32 -31 -68.5t-13 -75.5q-18 -4 -36 -6t-35 -2q-50 0 -93 14t-62 22v0zM512 133q-53 0 -89.5 37.5t-36.5 88.5 q0 52 37 89.5t89 37.5t89 -37.5t37 -89.5q0 -51 -36.5 -88.5t-89.5 -37.5zM512 419q-56 0 -99 -35t-56 -86q-11 4 -20.5 8t-16.5 8q2 40 14 77t32 67q3 3 5.5 6.5t6.5 7.5q26 31 61 48.5t73 17.5t73 -17t61 -49q3 -4 6 -7.5t6 -6.5q2 -4 4.5 -8t4.5 -8q1 -2 1.5 -4t1.5 -3 q2 -2 3 -4.5t2 -4.5q1 -3 2 -5t1 -3l3 -4.5t1 -3.5q1 -3 2 -5.5t1 -6.5q1 -2 1.5 -3.5l1.5 -4.5t1.5 -6t1.5 -6q0 -2 1 -4t1 -3q1 -3 1.5 -6t1.5 -7q0 -1 1 -3t1 -3q0 -4 0.5 -6.5t0.5 -6.5q0 -2 0.5 -3.5l1.5 -4.5v-5.5t1 -5.5v-4v-4q-6 -2 -15 -6.5t-21 -9.5 q-11 53 -54.5 88t-99.5 35v0zM805 314q-17 0 -35 2t-36 6v3v3v4.5t-1 3.5q0 4 -1 6.5t-1 6.5q0 2 -0.5 4.5t-0.5 3.5q0 3 -1 6.5t-3 6.5q0 2 -0.5 3.5t-0.5 4.5q-1 4 -2.5 8t-2.5 9q0 1 -1 2.5t-1 2.5q-1 5 -2.5 8.5t-3.5 7.5q-1 2 -1.5 3.5t-1.5 2.5q-1 3 -2.5 6t-2.5 6 q-1 2 -2 3.5t-1 4.5q-1 2 -2.5 4.5t-2.5 4.5q-1 1 -2.5 3t-2.5 4q-1 1 -1.5 2t-1.5 2l4 6l4 6q22 25 49.5 38.5t57.5 13.5q31 0 59 -13.5t48 -38.5q21 -24 32.5 -57t14.5 -70q-16 -6 -57 -19.5t-95 -13.5v0zM544 304l-54 -53l-20 21q-4 5 -10.5 5t-11.5 -5t-5 -11.5t5 -10.5 l30 -32q3 -3 5.5 -4t6.5 -1v0v0q3 0 5.5 1t5.5 4l65 65q5 5 5 11.5t-5 11.5q-3 3 -10 3t-12 -5z" />
</svg>