<svg viewBox="0 0 256 256" xmlns="http://www.w3.org/2000/svg">
  <path transform="scale(1, -1) translate(0, -256)" fill="currentColor" d="M237 142q-7 9 -18 14q11 8 11 20.5t-8.5 21t-20.5 8.5t-20 -8.5t-8 -21t10 -20.5q-9 -5 -16 -12q-9 9 -21 14q7 4 11 11.5t4 15.5q0 13 -9.5 23t-23 10t-23.5 -10t-10 -23q0 -8 4 -15.5t11 -11.5q-12 -4 -21 -14q-7 7 -16 12q10 8 10 20.5t-8.5 21t-20 8.5t-20 -8.5 t-8.5 -21t11 -20.5q-10 -5 -18 -14q-14 -16 -14 -41q0 -4 4 -6q8 -4 17 -7q15 -5 29 -5q8 0 19 2q6 -3 12 -5q0 -17 12.5 -29.5t30 -12.5t30 12t12.5 30q10 3 12 5q11 -2 19 -2q14 0 29 5q9 3 17 7q3 2 3 6q0 24 -14 41zM201 192q6 0 10.5 -4t4.5 -10t-4.5 -10.5t-10.5 -4.5 t-10 4.5t-4 10.5t4 10t10 4zM128 204q8 0 13.5 -5.5t5.5 -13.5t-5.5 -13.5t-13.5 -5.5t-13.5 5.5t-5.5 13.5t5.5 13.5t13.5 5.5zM55 192q6 0 10 -4t4 -10t-4 -10.5t-10 -4.5t-10.5 4.5t-4.5 10.5t4.5 10t10.5 4zM19 106q1 16 11 28t24.5 12t25.5 -12v-1q-9 -15 -10 -34h-1 q-9 -1 -14 -1q-17 -1 -36 8zM128 52q-12 0 -20.5 8.5t-8.5 20.5t8.5 20.5t20.5 8.5t20.5 -8.5t8.5 -20.5t-8.5 -20.5t-20.5 -8.5zM128 124q-14 0 -25.5 -8.5t-15.5 -21.5l-4 2q1 18 11 32l2 4q14 15 32 15t31 -15l7 -12l6 -23l-4 -2q-4 13 -15 21t-25 8zM201 97q-8 0 -15 2 v6l-4 14l-6 13l1 1q10 12 24.5 12t24.5 -11.5t12 -28.5q-21 -8 -37 -8zM134 94l-11 -11l-3 3q-2 2 -5 2t-5 -2t-2 -4.5t2 -5.5l7 -8q2 -2 5 -2t5 2l16 17q2 2 2 5t-1.5 4.5t-4.5 1.5t-5 -2z" />
</svg>