<svg viewBox="0 0 1024 1024" xmlns="http://www.w3.org/2000/svg">
  <path transform="scale(1, -1) translate(0, -960)" fill="currentColor" d="M861 797q-34 36 -75 63q-40 28 -84 46.5t-92 27.5q-48 10 -98 10t-98 -9q-48 -10 -92 -28.5t-85 -46.5q-40 -27 -74 -63t-61 -77q-28 -40 -47 -84t-29 -91t-10 -97t9 -98q10 -48 28.5 -92t46.5 -84q27 -41 63 -75t77 -61q40 -28 84 -47t91 -29t97 -10t98 10q48 9 92 27.5 t84 46.5q41 27 75 63t61 77q28 40 47 84t29 91t10 97t-9 98q-10 48 -28.5 92t-46.5 84q-27 41 -63 75v0zM512 0q-93 0 -175 35q-81 35 -142 96t-96 142q-35 82 -35 175t35 175q35 81 96 142t142 96q82 35 175 35t175 -36q81 -35 142 -96t96 -143q35 -81 35 -173t-35 -173 q-35 -82 -96 -143t-142 -96q-82 -36 -175 -36zM747 678q-13 9 -29 5t-20 -6l-474 -186q-13 -5 -24.5 -15.5t-7.5 -27.5q1 -19 15.5 -26.5t16.5 -10.5l55 -19l55 -19q6 -24 14 -48t15 -48q3 -9 6 -17t5 -17q3 -7 5 -14t7 -13l4.5 -4.5t4.5 -3.5l10 -2t9 -1t9 1.5t7 4.5 l31.5 29.5l31.5 29.5l105 -81q2 -1 2.5 -1.5t2.5 -0.5q7 -3 13 -4t10 -1q3 0 8.5 1t8.5 1q13 5 20 15t7 12q0 1 1 1.5l1 0.5l86 430v1.5v0.5q2 17 -3 23.5t-8 9.5v0zM426 262l6 60l32 -23l-38 -37v0zM638 229q-1 -4 -3.5 -6t-5.5 -2t-4.5 1t-3.5 2q-45 35 -88.5 69t-87.5 69 q50 43 99.5 87.5t98.5 89.5q6 5 11 10t8 13q4 7 4 14.5t-5 12.5t-12 7t-14 -1q-7 -1 -13 -4t-12 -7q-66 -42 -131.5 -84t-131.5 -82q-2 -2 -4.5 -3t-4.5 -2h-5.5t-4.5 1q-13 5 -27 9t-27 9q-14 5 -27.5 8.5t-25.5 10.5q62 25 123 49q62 24 124 48.5t124 48.5q62 25 125 49 q-10 -51 -19 -102q-10 -51 -19.5 -102t-19.5 -102q-9 -52 -19 -103q0 -1 -1 -3.5t-1 -4.5v0z" />
</svg>