<svg viewBox="0 0 1024 1024" xmlns="http://www.w3.org/2000/svg">
  <path transform="scale(1, -1) translate(0, -960)" fill="currentColor" d="M960 726l-19 132q-3 16 -12 31t-23 25q-15 9 -31.5 12.5t-34.5 -0.5l-710 -144q-33 -6 -52 -33t-14 -61l8 -56q5 -31 28.5 -51.5t54.5 -20.5h4.5h3.5l328 32v-184h-125q-7 0 -11.5 -4.5t-4.5 -11.5t4.5 -11.5t11.5 -4.5h111l-202 -381q-3 -6 -1 -12t8 -9q1 -1 3 -1h5 q4 0 8 2t6 6l187 357v-354q0 -7 4.5 -11.5t11.5 -4.5t11.5 4.5t4.5 11.5v354l187 -357q3 -4 6.5 -6t8.5 -2h3.5t4.5 1q6 4 8 10t-2 11l-201 383h107q7 0 11.5 4t4.5 12q0 7 -4.5 11.5t-11.5 4.5h-122v185l362 34q17 1 32 9t25 23q11 14 15.5 30.5t2.5 34.5v0zM374 614v3v2 l-25 175l257 52v0v-1l31 -207zM160 594q-20 -3 -37 10t-19 34l-8 55q-4 20 8 37t32 22l181 37l25 -173q0 -1 0.5 -1.5l1.5 -1.5l-184 -19v0zM918 682q-7 -9 -16 -13.5t-19 -6.5l-213 -20l-30 208v1.5t-2 1.5l210 41q2 2 4.5 2h5.5q8 0 15.5 -2.5t14.5 -7.5q8 -6 14 -15 t7 -20l19 -131q2 -10 -1 -20t-9 -18v0z" />
</svg>