<svg viewBox="0 0 1024 1024" xmlns="http://www.w3.org/2000/svg">
  <path transform="scale(1, -1) translate(0, -960)" fill="currentColor" d="M890 802v0v0q-23 26 -50.5 42.5t-47.5 25.5q-48 23 -102 36t-117 19q-17 1 -33 2t-31 1q-60 0 -118.5 -10t-115.5 -30q-27 -10 -61 -25.5t-64 -43.5q-25 -21 -36 -48t-10 -57v-29.5v-36.5q1 -40 26 -65t64 -25h116q39 0 63.5 25t24.5 63v52q17 3 49 8.5t63 7.5 q33 0 65.5 -5t50.5 -10v-26.5v-22.5v-4q0 -40 25 -64.5t64 -24.5h32.5h50.5h22.5h9.5q39 0 63 24.5t25 63.5v72q2 25 -5.5 46t-22.5 39v0zM888 648q0 -25 -15.5 -40.5t-42.5 -15.5h-42h-73q-27 0 -42 15.5t-15 42.5v3v28.5v30.5q0 5 -2.5 9.5t-7.5 6.5q-17 6 -56 13.5 t-78 7.5h-3h-2q-42 0 -84.5 -9t-48.5 -10q-5 -2 -8 -6t-3 -10v-64q0 -27 -15.5 -41.5t-40.5 -14.5h-117q-26 0 -42 15.5t-16 41.5v33.5v32.5q-1 24 8.5 44.5t28.5 36.5q28 24 58.5 38.5t55.5 24.5q55 17 110.5 26t113.5 9q14 0 29.5 -1t32.5 -2q61 -6 112 -18.5t96 -34.5 q18 -8 42.5 -23t44.5 -38q10 -13 16 -28.5t6 -33.5v-69v0zM282 488q-29 0 -49 -20t-20 -49t20 -49t49 -20q28 0 48 20t20 49t-20 49t-48 20v0zM282 382q-16 0 -26.5 11t-10.5 26q0 16 10.5 26.5t26.5 10.5q15 0 25.5 -10.5t10.5 -26.5q0 -15 -10.5 -26t-25.5 -11zM512 488 q-29 0 -49 -20t-20 -49t20 -49t49 -20t49 20t20 49t-20 49t-49 20v0zM512 382q-16 0 -26.5 11t-10.5 26q0 16 10.5 26.5t26.5 10.5t26.5 -10.5t10.5 -26.5q0 -15 -10.5 -26t-26.5 -11v0zM742 488q-28 0 -48 -20t-20 -49t20 -49t48 -20q29 0 49 20t20 49t-20.5 49t-48.5 20v0 zM742 382q-15 0 -25.5 11t-10.5 26q0 16 10.5 26.5t25.5 10.5q16 0 26.5 -10.5t10.5 -26.5q0 -15 -11 -26t-26 -11zM282 296q-29 0 -49 -20t-20 -49t20 -49t49 -20q28 0 48 20t20 49t-20 49t-48 20zM282 192q-16 0 -26.5 10.5t-10.5 26.5q0 15 10.5 26t26.5 11 q15 0 25.5 -11t10.5 -26q0 -16 -10.5 -26.5t-25.5 -10.5zM512 296q-29 0 -49 -20t-20 -49t20 -48t49 -19t49 20t20 49t-20 48t-49 19v0zM512 192q-16 0 -26.5 10.5t-10.5 26.5q0 15 10.5 26t26.5 11t26.5 -11t10.5 -26q0 -16 -10.5 -26.5t-26.5 -10.5v0zM742 296 q-28 0 -48 -20t-20 -49t20 -48t48 -19q29 0 49 20t20 49t-20.5 48t-48.5 19zM742 192q-15 0 -25.5 10.5t-10.5 26.5q0 15 10.5 26t25.5 11q16 0 26.5 -11t10.5 -26q0 -16 -11 -26.5t-26 -10.5zM282 106q-29 0 -49 -20t-20 -49t20 -49t49 -20q28 0 48 20t20 49t-20 49t-48 20 zM282 0q-16 0 -26.5 10.5t-10.5 26.5q0 15 10.5 26t26.5 11q15 0 25.5 -11t10.5 -26q0 -16 -10.5 -26.5t-25.5 -10.5zM512 106q-29 0 -49 -20t-20 -49t20 -49t49 -20t49 20t20 49t-20 49t-49 20v0zM512 0q-16 0 -26.5 10.5t-10.5 26.5q0 15 10.5 26t26.5 11t26.5 -11 t10.5 -26q0 -16 -10.5 -26.5t-26.5 -10.5v0zM742 106q-28 0 -48 -20t-20 -49t20 -49t48 -20q29 0 49 20t20 49t-20.5 49t-48.5 20zM742 0q-15 0 -25.5 10.5t-10.5 26.5q0 15 10.5 26t25.5 11q16 0 26.5 -11t10.5 -26q0 -16 -11 -26.5t-26 -10.5z" />
</svg>