<svg viewBox="0 0 256 256" xmlns="http://www.w3.org/2000/svg">
  <path transform="scale(1, -1) translate(0, -256)" fill="currentColor" d="M128 251q-33 0 -61.5 -16.5t-45 -45t-16.5 -61.5t16.5 -61.5t45 -45t61.5 -16.5q30 0 59 15q25 13 26 31q1 9 -4 18q-4 7 -9 13q5 7 4.5 15t-6.5 14l-16 16q-6 6 -14.5 6t-15.5 -6l-4 -5q-9 6 -15 11q-7 7 -12 15l5 5q7 7 7 15.5t-7 15.5l-16 16q-6 6 -14.5 6t-15.5 -6 l-10 -10q-7 -8 -8 -18.5t4 -24.5q7 -20 24 -39l8 -10q18 -18 39 -28q15 -7 29 -8h2q13 0 22 9v1q10 -11 9 -21t-19 -19q-25 -13 -53.5 -13t-53.5 15t-39.5 40t-14.5 54.5t14.5 54.5t39.5 39.5t54.5 14.5t54.5 -14.5t40 -39.5t15 -55q0 -16 -5 -32q-1 -2 0.5 -5t4.5 -3.5 t5.5 0.5t3.5 4q5 17 5 36q0 33 -16.5 61.5t-45 45t-61.5 16.5zM166 76q-8 0 -22 7h-1q-19 9 -35 25l-8 8q-15 18 -21 35q-4 11 -3.5 18t4.5 10l10 10q2 3 5 3t5 -3l16 -16q6 -5 0 -11l-8 -8q-4 -4 -2 -8t7 -11t10.5 -12.5t13.5 -11.5l8 -5q4 -2 9 2l8 8q5 5 10 0l16 -16 q5 -5 0 -10l-8 -10q-6 -5 -14 -4z" />
</svg>