<svg viewBox="0 0 1024 1024" xmlns="http://www.w3.org/2000/svg">
  <path transform="scale(1, -1) translate(0, -960)" fill="currentColor" d="M512 928q-99 0 -186 -38q-88 -38 -153 -103t-103 -153q-38 -87 -38 -186t38 -186q38 -88 103 -153t153 -103q87 -38 186 -38q59 0 116.5 14.5t115.5 44.5q46 24 70 52.5t26 61.5q4 41 -18.5 73.5t-39.5 47.5l2 2l2 2q22 22 22 51.5t-22 52.5l-64 64q-23 22 -51.5 21.5 t-51.5 -21.5l-27 -26q-12 7 -32 21.5t-37 29.5q-17 17 -32 36.5t-22 32.5l14.5 14.5t10.5 11.5l2 1q24 24 24 52.5t-24 51.5l-33.5 33.5l-30.5 30.5q-23 22 -51.5 22.5t-50.5 -22.5l-40 -40q-14 -13 -22 -29.5t-9 -34.5v0v0q-2 -27 4 -51.5t12 -41.5q15 -39 37 -76.5 t54 -76.5q10 -11 18.5 -20.5t17.5 -18.5q33 -33 71.5 -60t80.5 -48q20 -10 48 -20t60 -12h4.5h3.5q24 0 44.5 8t35.5 25l3.5 3.5t8.5 7.5q13 -13 31.5 -38.5t16.5 -57.5q-3 -25 -23 -46.5t-57 -41.5q-53 -27 -107.5 -41.5t-108.5 -14.5q-93 1 -175 37q-82 35 -143 96 t-97 143q-35 82 -35 174t35 174q36 82 97 142.5t142 96.5q82 35 174 35t174 -35q82 -36 142.5 -96.5t96.5 -142.5q35 -82 35 -174q0 -34 -5 -66t-14 -64q-3 -6 0.5 -12t10.5 -7q6 -2 12 1t7 10q11 33 16 67.5t5 70.5q0 99 -38 186q-38 88 -103 153t-153 103q-87 38 -186 38 v0zM664 227q-28 3 -53 11t-43 18q-40 19 -76 45t-68 57q-8 9 -16.5 17.5t-17.5 19.5q-30 37 -51.5 72t-34.5 72q-6 16 -11 36.5t-3 43.5q1 13 6 24t14 21l40 40q14 13 29.5 13t28.5 -13l24 -24l40 -40q14 -14 14 -30t-14 -29v-5l-16.5 -16.5l-17.5 -17.5q-3 -3 -4 -7.5 t1 -9.5q6 -13 25 -40t41 -50q26 -25 55.5 -44t29.5 -20q4 -2 9.5 -1t9.5 4l35 36q6 6 14 9t15 3t14 -3t15 -9l64 -64q13 -14 13 -29.5t-13 -30.5q-4 -3 -20 -19t-16 -17q-12 -12 -27.5 -17.5t-34.5 -5.5z" />
</svg>