<svg viewBox="0 0 256 256" xmlns="http://www.w3.org/2000/svg">
  <path transform="scale(1, -1) translate(0, -256)" fill="currentColor" d="M225 218q-10 11 -25 18q-24 11 -56 14l-17 1q-31 0 -59 -10q-19 -6 -32.5 -18t-12.5 -28v-17q0 -11 7 -18t18 -7h30q11 0 17.5 7t6.5 18v11q16 3 26.5 3t25.5 -3v-11q0 -11 7 -18t18 -7h29q11 0 18 7t7 18v18q0 13 -8 22zM219 178q0 -5 -3 -8t-8 -3h-29q-5 0 -8 3t-3 8 v16q0 5 -5 7t-15 3.5t-19 1.5h-1q-10 0 -23 -3l-11 -2q-3 -1 -4 -3t-1 -4v-16q0 -5 -3 -8t-8 -3h-29q-6 0 -8.5 3t-3.5 8v17q0 10 8 18q11 9 28 15q27 9 55 9l15 -1q30 -3 51 -13q14 -6 21 -14q5 -6 5 -14v-17h-1zM70 141q-8 0 -14 -6t-6 -14t6 -14t14.5 -6t14 6t5.5 14 t-5.5 14t-14.5 6zM70 115q-2 0 -4 1.5t-2 4t2 4.5t4.5 2t4 -2t1.5 -4.5t-1.5 -4t-4.5 -1.5zM128 141q-8 0 -14 -6t-6 -14t6 -14t14 -6t14 6t6 14t-6 14t-14 6zM128 115q-2 0 -4 1.5t-2 4t2 4.5t4 2t4 -2t2 -4.5t-2 -4t-4 -1.5zM186 141q-9 0 -14.5 -6t-5.5 -14t5.5 -14 t14 -6t14.5 6t6 14t-6 14t-14 6zM186 115q-3 0 -4.5 1.5t-1.5 4t1.5 4.5t4 2t4.5 -2t2 -4.5t-2 -4t-4 -1.5zM70 93q-8 0 -14 -6t-6 -14t6 -14t14.5 -6t14 6t5.5 14t-5.5 14t-14.5 6zM70 67q-2 0 -4 1.5t-2 4t2 4.5t4.5 2t4 -2t1.5 -4.5t-1.5 -4t-4.5 -1.5zM128 93 q-8 0 -14 -6t-6 -14t6 -14t14 -6t14 6t6 14t-6 14t-14 6zM128 67q-2 0 -4 1.5t-2 4t2 4.5t4 2t4 -2t2 -4.5t-2 -4t-4 -1.5zM186 93q-9 0 -14.5 -6t-5.5 -14t5.5 -14t14 -6t14.5 6t6 14t-6 14t-14 6zM186 67q-3 0 -4.5 1.5t-1.5 4t1.5 4.5t4 2t4.5 -2t2 -4.5t-2 -4t-4 -1.5z M70 45q-8 0 -14 -6t-6 -14t6 -14t14.5 -6t14 6t5.5 14t-5.5 14t-14.5 6zM70 19q-2 0 -4 2t-2 4.5t2 4t4.5 1.5t4 -1.5t1.5 -4t-1.5 -4.5t-4.5 -2zM128 45q-8 0 -14 -6t-6 -14t6 -14t14 -6t14 6t6 14t-6 14t-14 6zM128 19q-2 0 -4 2t-2 4.5t2 4t4 1.5t4 -1.5t2 -4t-2 -4.5 t-4 -2zM186 45q-9 0 -14.5 -6t-5.5 -14t6 -14t14 -6t14 6t6 14t-6 14t-14 6zM186 19q-3 0 -4.5 2t-1.5 4.5t1.5 4t4 1.5t4.5 -1.5t2 -4t-2 -4.5t-4 -2z" />
</svg>