<svg viewBox="0 0 256 256" xmlns="http://www.w3.org/2000/svg">
  <path transform="scale(1, -1) translate(0, -256)" fill="currentColor" d="M215 215q-17 18 -39.5 27.5t-47.5 9.5t-47.5 -9.5t-40 -27.5t-27 -40.5t-9.5 -47t9.5 -47t27.5 -40t40.5 -27t47 -9.5t47 9.5t40 27.5t27 40.5t9.5 47t-9.5 47t-27.5 39.5zM128 16q-31 0 -56.5 15t-40.5 40.5t-15 56.5t15 56.5t40.5 40.5t56 15t56.5 -15t41 -41t15 -56 t-15 -56t-41 -41t-56 -15zM187 186q-3 1 -6.5 0.5t-6.5 -1.5l-118 -46q-4 -2 -6.5 -4.5t-2 -7t7.5 -8.5l29 -10l10 -34q1 -3 2 -5l3 -2l5 -1q3 0 4 2l15 15l27 -21h1q2 -1 5 -1h5q3 1 5 3.5t2 3.5v0l22 108q0 5 -3 8v1zM106 82l2 14l8 -5zM160 73q-1 -2 -3 -2l-1 1l-45 34 q23 20 50 45q3 2 5 6t-1 6.5t-6 1.5t-7 -3l-68 -43l-2 1l-18 5q-6 2 -9 4l124 49z" />
</svg>