<svg viewBox="0 0 256 256" xmlns="http://www.w3.org/2000/svg">
  <path transform="scale(1, -1) translate(0, -256)" fill="currentColor" d="M191 202l-26 -26q-7 4 -15 4q-13 0 -21.5 -9t-8.5 -21t8.5 -21t21 -9t21.5 9t9 21q0 8 -5 16l26 26q2 2 2 4.5t-2 5t-5 2.5t-5 -2zM150 134q-7 0 -11.5 4.5t-4.5 11.5t4.5 11.5t11.5 4.5t11.5 -5t4.5 -11.5t-5 -11t-11 -4.5zM232 233q-11 12 -27 16t-32 0t-27 -16 l-52 -52q-18 -17 -19 -42q0 -15 -9 -27l-57 -76q-4 -5 -3.5 -12.5t6 -13t13 -5.5t12.5 4l76 57q11 8 26 10h1q23 1 40 18l53 53q18 18 18 43t-19 43zM223 156l-53 -52q-13 -14 -31 -14h-1q-18 -2 -34 -13l-76 -57q-1 -1 -3 -1t-3.5 1.5t-1.5 3.5t1 4l56 75q12 16 12.5 35 t14.5 32l52 53q14 14 33.5 14t33.5 -14t14 -33t-14 -34z" />
</svg>