<svg viewBox="0 0 1024 1024" xmlns="http://www.w3.org/2000/svg">
  <path transform="scale(1, -1) translate(0, -960)" fill="currentColor" d="M774 734l-112 -112q-14 11 -30 16t-34 5q-44 0 -75.5 -31.5t-31.5 -75.5t31.5 -75.5t75.5 -31.5q45 0 76.5 31.5t31.5 75.5q0 18 -6 34t-15 30l112 112q5 5 5 11.5t-5 10.5q-5 5 -12 5t-11 -5v0zM598 461q-31 0 -53 22t-22 53t22 53t53 22q16 0 30 -5.5t23 -16.5 q11 -11 17 -25t6 -28q0 -31 -22 -53t-54 -22v0zM922 859q-35 34 -78 51q-42 18 -87 18t-88 -17q-43 -18 -77 -52l-208 -208q-32 -32 -50 -73t-20 -87q-2 -31 -12.5 -60.5t-29.5 -54.5l-226 -302q-14 -20 -12.5 -45t19.5 -42q9 -9 22 -14t26 -5q11 0 20.5 3.5t19.5 9.5 l304 227q24 18 52 28.5t58 11.5h3q44 2 83.5 20.5t70.5 48.5l211 211q34 34 51.5 76t17.5 89t-18.5 90.5t-51.5 75.5v0zM899 554l-211 -213q-26 -27 -61 -43t-72 -18h-3q-35 -2 -67 -14t-61 -32l-304 -228q-10 -7 -22.5 -6t-22.5 10q-8 8 -9 21t6 23l226 301q21 29 33 63 t15 72q1 39 17 74.5t43 62.5l208 210q30 30 67 44.5t76 14.5q38 0 75 -14.5t67 -44.5q29 -29 44 -65.5t15 -77.5q0 -40 -15 -76.5t-44 -63.5z" />
</svg>