<svg viewBox="0 0 1024 1024" xmlns="http://www.w3.org/2000/svg">
  <path transform="scale(1, -1) translate(0, -960)" fill="currentColor" d="M976 112h-38l-405 541l102 137q4 5 3 12t-6 11q-5 3 -12 2t-10 -5l-98 -130l-98 130q-3 4 -10 5t-12 -2q-5 -4 -6 -11t3 -12l102 -137l-405 -541h-38q-7 0 -11.5 -4.5t-4.5 -11.5t4.5 -11.5t11.5 -4.5h928q7 0 11.5 4.5t4.5 11.5t-4.5 11.5t-11.5 4.5v0zM512 627 l386 -515h-279v133q0 33 -24 57t-57 24h-53q-34 0 -58 -24t-24 -57v-133h-277zM437 112v133q0 20 14.5 34.5t34.5 14.5h53q21 0 35.5 -14.5t14.5 -34.5v-133h-152v0z" />
</svg>