<svg viewBox="0 0 1024 1024" xmlns="http://www.w3.org/2000/svg">
  <path transform="scale(1, -1) translate(0, -960)" fill="currentColor" d="M976 112h-38l-405 541l102 137q4 5 3 12t-6 11q-5 3 -12 2t-10 -5l-98 -130l-98 130q-3 4 -10 5t-12 -2q-5 -4 -6 -11t3 -12l102 -137l-405 -541h-38q-7 0 -11.5 -4.5t-4.5 -11.5t4.5 -11.5t11.5 -4.5h928q7 0 11.5 4.5t4.5 11.5t-4.5 11.5t-11.5 4.5v0zM512 627 l386 -515h-282l-59 203q-1 5 -5.5 8t-10.5 3h-58q-5 0 -9 -3t-7 -8l-59 -203h-282l386 515v0zM442 112l54 182h32l54 -182h-140v0z" />
</svg>