<svg viewBox="0 0 1024 1024" xmlns="http://www.w3.org/2000/svg">
  <path transform="scale(1, -1) translate(0, -960)" fill="currentColor" d="M987 133l-233 638v87q0 7 -4.5 11.5t-11.5 4.5q-8 0 -12 -4.5t-4 -11.5v-64h-416v64q0 7 -4.5 11.5t-11.5 4.5q-8 0 -12 -4.5t-4 -11.5v-79l-237 -646q-7 -18 -4 -38.5t13 -36.5q12 -17 29.5 -26.5t38.5 -9.5h475v0v0h320q20 0 37.5 9.5t29.5 26.5q12 16 15 36.5t-4 38.5 zM547 54h-241v660zM74 77q-8 9 -9 21.5t2 24.5l207 563v-630h-160q-12 -1 -22.5 4.5t-17.5 16.5v0zM950 77q-7 -10 -17.5 -15.5t-23.5 -5.5h-328l-258 704h400q0 -2 1.5 -4.5t3.5 -5.5l230 -628q4 -11 2 -23.5t-10 -21.5v0z" />
</svg>