<svg viewBox="0 0 1024 1024" xmlns="http://www.w3.org/2000/svg">
  <path transform="scale(1, -1) translate(0, -960)" fill="currentColor" d="M48 853h928q7 0 11.5 4.5t4.5 11.5t-4.5 11.5t-11.5 4.5h-928q-7 0 -11.5 -4.5t-4.5 -11.5t4.5 -11.5t11.5 -4.5zM976 605h-928q-7 0 -11.5 -4.5t-4.5 -11.5t4.5 -11.5t11.5 -4.5h928q7 0 11.5 4.5t4.5 11.5t-4.5 11.5t-11.5 4.5zM976 323h-928q-7 0 -11.5 -4.5 t-4.5 -11.5t4.5 -11.5t11.5 -4.5h928q7 0 11.5 4.5t4.5 11.5t-4.5 11.5t-11.5 4.5zM686 43h-638q-7 0 -11.5 -4.5t-4.5 -11.5t4.5 -11.5t11.5 -4.5h638q8 0 12 4.5t4 11.5t-5 11.5t-11 4.5z" />
</svg>