<svg viewBox="0 0 1024 1024" xmlns="http://www.w3.org/2000/svg">
  <path transform="scale(1, -1) translate(0, -960)" fill="currentColor" d="M174 853h676q7 0 11.5 4.5t4.5 11.5t-4.5 11.5t-11.5 4.5h-676q-7 0 -11.5 -4.5t-4.5 -11.5t5 -11.5t11 -4.5v0zM112 573h800q7 0 11.5 4.5t4.5 11.5t-4.5 11.5t-11.5 4.5h-800q-7 0 -11.5 -4.5t-4.5 -11.5t4.5 -11.5t11.5 -4.5zM238 323q-7 0 -11.5 -4.5t-4.5 -11.5 t4.5 -11.5t11.5 -4.5h549q7 0 11.5 4.5t4.5 11.5t-4.5 11.5t-11.5 4.5h-549v0zM976 43h-928q-7 0 -11.5 -4.5t-4.5 -11.5t4.5 -11.5t11.5 -4.5h928q7 0 11.5 4.5t4.5 11.5t-4.5 11.5t-11.5 4.5z" />
</svg>