<svg viewBox="0 0 1024 1024" xmlns="http://www.w3.org/2000/svg">
  <path transform="scale(1, -1) translate(0, -960)" fill="currentColor" d="M83 216h88q11 0 22 7t13 15l42 104h312l37 -104q2 -10 13 -16t22 -6h94q22 2 33 18t3 33l-255 603q-5 12 -13 16.5t-19 4.5h-133q-10 0 -19.5 -5t-12.5 -16l-259 -606q-8 -18 2.5 -33t29.5 -15v0zM405 707l89 -238h-180l91 238v0zM765 21h-717q-7 0 -11.5 -4.5 t-4.5 -11.5t4.5 -11.5t11.5 -4.5h717q7 0 11.5 4.5t4.5 11.5t-4.5 11.5t-11.5 4.5zM976 907q-7 0 -11.5 -4.5t-4.5 -11.5v-675q0 -7 4.5 -11.5t11.5 -4.5t11.5 4.5t4.5 11.5v675q0 6 -4.5 11t-11.5 5z" />
</svg>