<svg viewBox="0 0 1024 1024" xmlns="http://www.w3.org/2000/svg">
  <path transform="scale(1, -1) translate(0, -960)" fill="currentColor" d="M693 80h-605q-7 0 -11.5 -4.5t-4.5 -11.5t4.5 -11.5t11.5 -4.5h605q7 0 11.5 4.5t4.5 11.5t-4.5 11.5t-11.5 4.5zM934 299l53 53q5 5 5 11.5t-5 10.5q-5 5 -11 5t-11 -5l-53 -52l-53 52q-5 5 -11 5t-11 -5q-5 -4 -5 -10.5t5 -11.5l53 -53l-53 -53q-5 -4 -5 -10.5t5 -11.5 q2 -2 5.5 -3.5t5.5 -1.5t5.5 1.5t5.5 3.5l53 53l53 -53q2 -2 5.5 -3.5t5.5 -1.5t5.5 1.5t5.5 3.5q5 5 5 11.5t-5 10.5l-53 53v0zM486 811q-3 11 -11.5 16t-20.5 5h-128q-9 0 -18.5 -5t-13.5 -16l-243 -579q-7 -17 2 -31.5t29 -14.5h84q11 0 21.5 7t12.5 15l40 99h298l35 -99 q2 -11 12.5 -16.5t20.5 -5.5h90q20 2 31 17.5t3 30.5l-244 577v0zM302 427l87 229l86 -227h-173v-2z" />
</svg>