<svg viewBox="0 0 1024 1024" xmlns="http://www.w3.org/2000/svg">
  <path transform="scale(1, -1) translate(0, -960)" fill="currentColor" d="M48 853h675q7 0 11.5 4.5t4.5 11.5t-4.5 11.5t-11.5 4.5h-675q-7 0 -11.5 -4.5t-4.5 -11.5t4.5 -11.5t11.5 -4.5zM48 573h802q7 0 11.5 4.5t4.5 11.5t-4.5 11.5t-11.5 4.5h-802q-7 0 -11.5 -4.5t-4.5 -11.5t4.5 -11.5t11.5 -4.5zM48 291h549q7 0 11.5 4.5t4.5 11.5 t-4.5 11.5t-11.5 4.5h-549q-7 0 -11.5 -4.5t-4.5 -11.5t4.5 -11.5t11.5 -4.5zM976 43h-928q-7 0 -11.5 -4.5t-4.5 -11.5t4.5 -11.5t11.5 -4.5h928q7 0 11.5 4.5t4.5 11.5t-4.5 11.5t-11.5 4.5z" />
</svg>