<svg viewBox="0 0 1024 1024" xmlns="http://www.w3.org/2000/svg">
  <path transform="scale(1, -1) translate(0, -960)" fill="currentColor" d="M845 928h-666q-36 0 -60.5 -25t-24.5 -60v-91q0 -7 4.5 -11.5t11.5 -4.5q8 0 12 4.5t4 11.5v91q0 22 15 37.5t38 15.5h229v-896h-117q-7 0 -11.5 -4.5t-4.5 -11.5t4.5 -11.5t11.5 -4.5h443q8 0 12 4.5t4 11.5t-4 11.5t-12 4.5h-116v896h228q22 0 37.5 -15.5t15.5 -37.5 v-91q0 -7 4.5 -11.5t11.5 -4.5t11.5 4.5t4.5 11.5v91q-1 35 -25.5 60t-60.5 25v0zM586 0h-146v896h146v-896z" />
</svg>