<svg viewBox="0 0 1024 1024" xmlns="http://www.w3.org/2000/svg">
  <path transform="scale(1, -1) translate(0, -960)" fill="currentColor" d="M806 928h-588q-34 0 -58 -24t-24 -58v-94q0 -7 4.5 -11.5t11.5 -4.5t11.5 4.5t4.5 11.5v94q0 21 14.5 35.5t35.5 14.5h195v-646h-104q-7 0 -11.5 -4.5t-4.5 -11.5q0 -8 4.5 -12t11.5 -4h408q7 0 11.5 4t4.5 12q0 7 -4.5 11.5t-11.5 4.5h-104v646h195q20 0 35 -14.5 t15 -35.5v-94q0 -7 4 -11.5t12 -4.5q7 0 11.5 4.5t4.5 11.5v94q0 34 -24.5 58t-59.5 24zM579 250h-136v646h136v-646zM856 0h-688q-7 0 -11.5 -4.5t-4.5 -11.5t4.5 -11.5t11.5 -4.5h690q7 0 11.5 4.5t4.5 11.5t-5.5 11.5t-12.5 4.5z" />
</svg>