<svg viewBox="0 0 256 256" xmlns="http://www.w3.org/2000/svg">
  <path transform="scale(1, -1) translate(0, -256)" fill="currentColor" d="M173 39h-151q-3 0 -5 -2t-2 -5t2 -5t5 -2h151q3 0 5 2t2 5t-2 5t-5 2zM238 91l11 11q2 2 2 5t-2 5t-5 2t-5 -2l-11 -12l-11 12q-2 2 -5 2t-5 -2.5t-2 -5t2 -4.5l11 -12l-11 -11q-2 -2 -2 -5t2 -5t4.5 -2t4.5 2l12 11l11 -11q2 -2 4.5 -2t5 2t2.5 5t-3 5zM122 219 q-2 5 -8 5h-32q-3 0 -5.5 -1.5t-2.5 -3.5l-61 -145q-2 -4 0.5 -8t6.5 -4h22q2 0 4.5 2t3.5 4l10 25h74l9 -25q1 -3 3.5 -4.5t5.5 -1.5h22q5 1 8 5t0 7zM76 123l21 57l22 -57h-43z" />
</svg>