<svg viewBox="0 0 256 256" xmlns="http://www.w3.org/2000/svg">
  <path transform="scale(1, -1) translate(0, -256)" fill="currentColor" d="M164 104v112q0 14 -10 24.5t-25 10.5h-2q-15 0 -25 -10.5t-10 -24.5v-112q-10 -8 -15 -20t-5 -24q1 -22 16.5 -38t37.5 -17h2q23 0 39.5 16.5t16.5 40.5q0 12 -5 23t-15 19zM157 31q-13 -13 -30 -12.5t-29 12.5t-12 29q0 10 4.5 19t12.5 15q3 2 3 6v116q0 8 6 14.5 t15 6.5h2q9 0 15 -6.5t6 -14.5v-116q0 -3 3 -5q8 -6 12.5 -15t4.5 -19q0 -18 -13 -30zM135 73v110q0 3 -2 5t-5 2t-5 -2t-2 -5v-110q-5 -2 -7.5 -6t-2.5 -10.5t5 -11.5t12 -5t12 5t5 13q0 5 -2.5 9t-7.5 6z" />
</svg>