<svg viewBox="0 0 1024 1024" xmlns="http://www.w3.org/2000/svg">
  <path transform="scale(1, -1) translate(0, -960)" fill="currentColor" d="M587 365q28 -17 57.5 -26t61.5 -9q45 0 85 17q41 17 71 47t47 71q17 40 17 85q0 71 -39.5 128.5t-105.5 79.5q-18 75 -77.5 122.5t-135.5 47.5q-67 0 -122.5 -37.5t-80.5 -98.5q-12 2 -23 3.5t-22 1.5q-46 -1 -86 -19q-40 -17 -70 -47.5t-47 -70.5q-18 -40 -18 -86 q0 -63 34.5 -117.5t92.5 -82.5q30 -46 79 -73t105 -27q52 0 99 24.5t78 66.5zM406 306q-48 0 -90.5 24t-69.5 65q-1 3 -3 4t-3 3q-50 22 -81 69.5t-31 102.5q0 78 55.5 134.5t134.5 56.5q12 0 25 -2.5t27 -5.5q6 -1 11 1t8 8q19 58 68.5 93t110.5 35q67 0 119 -43t65 -109 q1 -4 3.5 -7.5t7.5 -4.5q59 -18 96 -68.5t37 -112.5q0 -78 -55.5 -133.5t-133.5 -55.5q-30 0 -59 9.5t-54 28.5q-3 3 -6.5 3.5t-6.5 0.5q-4 -2 -6.5 -3.5t-4.5 -4.5q-27 -41 -70 -64.5t-94 -23.5v0zM651 256q-36 0 -61 -25t-25 -61t25 -61.5t61 -25.5t61.5 25.5t25.5 61.5 t-25.5 61t-61.5 25zM651 115q-23 0 -38.5 16t-15.5 39q0 22 15.5 38t38.5 16t39 -16t16 -38q0 -23 -16 -39t-39 -16zM842 99q-28 0 -47 -19t-19 -46q0 -28 19 -47t47 -19q26 0 45 18t20 44v1v1q0 13 -4.5 25.5t-12.5 20.5q-10 11 -22 16t-26 5v0zM875 34q0 -15 -9.5 -24.5 t-23.5 -9.5q-15 0 -24.5 9.5t-9.5 24.5q0 14 9.5 23.5t24.5 9.5q7 0 13 -2.5t11 -6.5q4 -5 6.5 -11t2.5 -13v1v-1z" />
</svg>