<svg viewBox="0 0 256 256" xmlns="http://www.w3.org/2000/svg">
  <path transform="scale(1, -1) translate(0, -256)" fill="currentColor" d="M148 103q13 -8 28.5 -8t29 8t21 21t7.5 29q0 18 -10 33t-26 22q-5 19 -20.5 31t-35.5 12q-17 0 -31.5 -9t-21.5 -25l-9 1q-16 0 -29.5 -8t-21.5 -21.5t-8 -29.5t9 -30.5t24 -21.5q8 -12 21 -19t26.5 -7t26 6t20.5 16zM140 116q-6 -9 -16 -15t-21.5 -6t-21.5 6t-16 15 q-1 2 -3 3q-12 6 -19 17t-7 24q0 18 13 31t31 13q7 0 12 -1q3 -1 5.5 0.5t2.5 3.5q5 14 16.5 22t26.5 8t27.5 -10t15.5 -25q0 -4 4 -6q14 -4 22.5 -15.5t8.5 -26.5q0 -18 -13 -31t-31 -13q-13 0 -27 9q-2 2 -5.5 1t-4.5 -4zM163 83q-10 0 -17.5 -7t-7.5 -17.5t7.5 -17.5 t17.5 -7t17 7t7 17.5t-7 17.5t-17 7zM163 48q-4 0 -7.5 3t-3.5 7.5t3.5 7.5t7.5 3t7 -3t3.5 -7.5t-3 -7.5t-7.5 -3zM210 44q-8 0 -13.5 -5.5t-5.5 -14t5.5 -14t13.5 -5.5t13.5 5t6.5 13v1q0 8 -5.5 14t-14.5 6zM216 25q0 -3 -1.5 -4.5t-4 -1.5t-4 1.5t-1.5 4t1.5 4t4 1.5 t3.5 -1l1 -1q1 -2 1 -3z" />
</svg>