<svg viewBox="0 0 256 256" xmlns="http://www.w3.org/2000/svg">
  <path transform="scale(1, -1) translate(0, -256)" fill="currentColor" d="M151 250q-12 3 -21.5 -5t-9.5 -20v-89h-89q-12 0 -20 -9.5t-6 -21.5q6 -29 23.5 -51.5t43 -35.5t55.5 -13l14 1q28 3 51.5 18t39 39t18.5 52q4 32 -8 60.5t-36 48.5t-55 26zM236 116q-2 -25 -15.5 -46t-35 -34.5t-45.5 -15.5q-29 -4 -54.5 6.5t-43 32t-23.5 49.5 q-1 5 2.5 9.5t9.5 4.5h96q3 0 5 2t2 5v96q0 6 4.5 9.5t10.5 2.5q27 -6 48.5 -23.5t32 -43t6.5 -54.5zM127 78q-3 0 -5 -2t-2 -5v-20q0 -3 2 -5t5 -2t5 2t2 5v20q0 3 -2 5t-5 2zM81 93l-15 -14q-2 -2 -2 -5t2 -5t5 -2t5 2l14 14q3 2 3 5t-2.5 5t-5 2t-4.5 -2zM168 164 q3 0 5 2l15 14q2 3 2 5.5t-2 4.5t-5 2.5t-5 -2.5l-14 -14q-2 -2 -2 -5t2 -5t4 -2zM186 136q-3 0 -5.5 -2t-2.5 -5t2.5 -5t5.5 -2h20q3 0 5 2t2 5t-2 5t-5 2h-20zM81 166q2 -2 4.5 -2t5 2t2.5 5t-3 5l-14 14q-2 2 -5 2.5t-5 -2t-2 -5t2 -5.5zM174 93q-3 2 -5.5 2t-4.5 -2 t-2.5 -5t2.5 -5l14 -14q2 -2 5 -2t5 2t2 5t-2 5z" />
</svg>