<svg viewBox="0 0 256 256" xmlns="http://www.w3.org/2000/svg">
  <path transform="scale(1, -1) translate(0, -256)" fill="currentColor" d="M55 251h-31q-8 0 -13.5 -5.5t-5.5 -13.5v-31q0 -8 5.5 -13.5t13.5 -5.5h32q7 0 13 5.5t6 13.5v31q-1 8 -6.5 13.5t-13.5 5.5zM60 201q0 -2 -1.5 -3.5t-3.5 -1.5h-31q-2 0 -3.5 1.5t-1.5 3.5v31q0 2 1.5 3.5t3.5 1.5h31q5 0 5 -5v-31zM144 251h-32q-7 0 -13 -5.5t-6 -13.5 v-32q0 -7 5.5 -13t13.5 -6h32q7 0 13 5.5t6 13.5v32q-1 8 -6.5 13.5t-12.5 5.5zM148 201q0 -2 -1.5 -3.5t-3.5 -1.5h-31q-2 0 -3.5 1.5t-1.5 3.5v31q0 2 1.5 3.5t3.5 1.5h31q2 0 3.5 -1.5t1.5 -3.5v-31zM232 251h-31q-8 0 -13.5 -5.5t-5.5 -13.5v-32q0 -7 5.5 -13t13.5 -6 h31q8 0 13.5 5.5t5.5 13.5v32q0 8 -5.5 13.5t-13.5 5.5zM237 201q0 -2 -1.5 -3.5t-3.5 -1.5h-31q-2 0 -3.5 1.5t-1.5 3.5v31q0 2 1.5 3.5t3.5 1.5h31q2 0 3.5 -1.5t1.5 -3.5v-31zM55 162h-31q-8 0 -13.5 -5.5t-5.5 -13.5v-31q0 -8 5.5 -13.5t13.5 -5.5h31q8 0 13.5 5.5 t5.5 13.5v31q0 8 -5.5 13.5t-13.5 5.5zM60 112q0 -2 -1.5 -3.5t-3.5 -1.5h-31q-2 0 -3.5 1.5t-1.5 3.5v32q0 2 1.5 3.5t3.5 1.5h31q2 0 3.5 -1.5t1.5 -3.5v-32zM144 162h-32q-7 0 -13 -5.5t-6 -13.5v-31q0 -8 5.5 -13.5t13.5 -5.5h32q7 0 13 5.5t6 13.5v31q0 8 -6 13.5 t-13 5.5zM148 112q0 -2 -1.5 -3.5t-3.5 -1.5h-31q-2 0 -3.5 1.5t-1.5 3.5v32q0 2 1.5 3.5t3.5 1.5h31q2 0 3.5 -1.5t1.5 -3.5v-32zM232 162h-31q-8 0 -13.5 -5.5t-5.5 -13.5v-31q0 -8 5.5 -13.5t13.5 -5.5h31q8 0 13.5 5.5t5.5 13.5v31q0 8 -5.5 13.5t-13.5 5.5zM237 112 q0 -2 -1.5 -3.5t-3.5 -1.5h-31q-2 0 -3.5 1.5t-1.5 3.5v32q0 2 1.5 3.5t3.5 1.5h31q2 0 3.5 -1.5t1.5 -3.5v-32zM55 74h-31q-8 0 -13.5 -5.5t-5.5 -13.5v-31q0 -8 5.5 -13.5t13.5 -5.5h31q8 0 13.5 5.5t5.5 13.5v31q0 8 -5.5 13.5t-13.5 5.5zM60 24q0 -2 -1.5 -3.5 t-3.5 -1.5h-31q-2 0 -3.5 1.5t-1.5 3.5v31q0 5 5 5h31q2 0 3.5 -1.5t1.5 -3.5v-31zM144 74h-32q-7 0 -13 -5.5t-6 -13.5v-31q0 -8 5.5 -13.5t13.5 -5.5h32q7 0 13 5.5t6 13.5v31q-1 8 -6.5 13.5t-12.5 5.5zM148 24q0 -2 -1.5 -3.5t-3.5 -1.5h-31q-2 0 -3.5 1.5t-1.5 3.5v31 q0 2 1.5 3.5t3.5 1.5h31q2 0 3.5 -1.5t1.5 -3.5v-31zM232 74h-31q-8 0 -13.5 -5.5t-5.5 -13.5v-31q0 -8 5.5 -13.5t13.5 -5.5h31q8 0 13.5 5.5t5.5 13.5v31q0 8 -5.5 13.5t-13.5 5.5zM237 24q0 -2 -1.5 -3.5t-3.5 -1.5h-31q-2 0 -3.5 1.5t-1.5 3.5v31q0 2 1.5 3.5t3.5 1.5 h31q2 0 3.5 -1.5t1.5 -3.5v-31z" />
</svg>