<svg viewBox="0 0 256 256" xmlns="http://www.w3.org/2000/svg">
  <path transform="scale(1, -1) translate(0, -256)" fill="currentColor" d="M250 130q-3 16 -30 80l-5 10q-4 6 -9.5 9t-16.5 3h-79q-9 0 -14 -1q-8 -2 -13 -7t-7 -14q-1 -4 -1 -12v-88q0 -10 1.5 -14.5t11 -14l37.5 -37.5l9 -9q9 -9 16 -10l5 -1q7 0 13 4.5t7.5 11.5t-0.5 17l-6 31h47q12 0 19 3q10 5 14 19l1 4q2 7 0 16zM237 116q0 -1 -1 -3 q-2 -7 -6.5 -9t-13.5 -2h-56q-3 0 -5.5 -2.5t-1.5 -5.5l9 -40q2 -7 1 -10t-3.5 -4.5t-5.5 -1t-9 6.5l-10 9q-41 40 -45 46q-1 4 -1 10v87q0 13 3 16t7 3.5t11 0.5h79q7 0 10.5 -1.5t6.5 -11.5q27 -62 30 -76q2 -5 1 -12zM38 232h-12q-9 0 -15 -6t-6 -15v-92q0 -9 6 -15 t15 -6h12q9 0 15 6t6 15v92q0 8 -6 14.5t-15 6.5zM45 119q0 -3 -2 -5t-5 -2h-12q-3 0 -5 2t-2 5v92q0 3 2 5t5 2h12q3 0 5 -2t2 -5v-92z" />
</svg>