<svg viewBox="0 0 1024 1024" xmlns="http://www.w3.org/2000/svg">
  <path transform="scale(1, -1) translate(0, -960)" fill="currentColor" d="M154 851h-52q-28 0 -49 -21t-21 -51v-368q0 -29 21 -49.5t49 -20.5h50q30 0 50 20.5t20 49.5v368q2 30 -19 51t-49 21v0zM192 411q0 -15 -11.5 -26.5t-26.5 -11.5h-52q-16 0 -27 11.5t-11 26.5v368q0 16 11.5 27.5t26.5 11.5h50q17 0 27.5 -11.5t10.5 -27.5v-368h2z M989 456q-3 14 -11 40q-9 27 -24 66.5t-36 91.5q-22 52 -49 117q-9 21 -20 39.5t-31 27.5q-16 9 -32 10.5t-29 1.5h-317v0h-2q-25 0 -51.5 -4.5t-45.5 -24.5q-18 -19 -22.5 -44.5t-4.5 -51.5v-351q0 -12 1 -27.5t7 -29.5q4 -12 44.5 -54t143.5 -141q12 -12 22.5 -21.5 t16.5 -15.5q11 -11 24.5 -22.5t32.5 -16.5q4 -1 8.5 -1h7.5q24 0 44.5 15t27.5 38q5 16 3 32.5t-6 29.5l-30 141l203 -2q16 0 35 1.5t37 9.5q18 10 31.5 27t19.5 39l2 8t1 8q3 16 2 31t-3 33v0zM958 398q0 -3 -1 -6l-2 -6q-5 -16 -14 -28.5t-21 -18.5t-27.5 -7t-30.5 -1 l-222 2q-4 0 -7 -1.5t-6 -5.5q-2 -2 -2.5 -5.5t-0.5 -6.5l35 -160q3 -12 4.5 -24t-1.5 -23q-3 -14 -18.5 -23t-30.5 -6q-11 3 -21 11.5t-21 19.5l-15.5 15.5t-22.5 21.5q-19 18 -49 47q-29 28 -57 56.5t-50 50.5q-21 23 -25 30q-4 9 -4.5 21t-0.5 25v350q0 22 3 42t15 32 q12 13 32.5 16t42.5 3v0h2h316q12 0 24.5 -0.5t22.5 -5.5q13 -7 21 -21t16 -30q72 -168 94 -231.5t24 -77.5v0v0q0 -17 0.5 -30t-2.5 -25v0z" />
</svg>