<svg viewBox="0 0 1024 1024" xmlns="http://www.w3.org/2000/svg">
  <path transform="scale(1, -1) translate(0, -960)" fill="currentColor" d="M990 502q-1 5 -1.5 9t-1.5 7q-6 23 -19.5 40.5t-31.5 25.5t-36.5 9.5t-35.5 1.5l-203 -1l30 140q3 14 5.5 30t-2.5 33q-7 27 -33.5 42.5t-54.5 8.5q-18 -5 -32 -16.5t-25 -21.5l-15.5 -15.5t-23.5 -21.5q-102 -100 -142.5 -141.5t-44.5 -53.5q-6 -15 -7 -30.5t-1 -27.5 v-350q0 -27 4 -52t23 -44q20 -20 46.5 -24.5t51.5 -4.5v0h2h316q14 0 30.5 1.5t30.5 9.5q19 11 30.5 29t20.5 38q28 65 50 117q21 53 36 92.5t24 66.5q9 26 10 39q2 20 2.5 35t-2.5 29v0zM957 445q-3 -15 -25 -78t-94 -231q-7 -17 -15 -31t-21 -20q-10 -5 -22.5 -6t-24.5 -1 h-317q-21 0 -42 3t-33 17q-12 12 -14.5 32t-2.5 41v351q0 13 0.5 24.5t3.5 21.5q4 7 25 29q22 23 50 51t58 57q29 28 48 47q12 12 22.5 21.5t16.5 15.5q9 9 19 18t22 12q3 0 4.5 1t3.5 1q13 0 25 -8.5t15 -20.5q4 -11 1.5 -23.5l-4.5 -22.5l-35 -160q-1 -4 0 -7.5t3 -5.5 q2 -3 5 -5t8 -2l227 -1q14 0 29 -1t29 -7q12 -6 21 -18.5t14 -28.5q1 -3 1.5 -6t1.5 -6q1 -12 0 -25t-3 -28v0zM154 555h-52q-30 0 -50 -20.5t-20 -49.5v-368q0 -29 21 -50t49 -21h50q30 0 50 21t20 50v368q2 29 -19 49.5t-49 20.5v0zM192 117q0 -16 -11.5 -27.5 t-26.5 -11.5h-52q-16 0 -27 11.5t-11 27.5v368q0 15 11.5 26.5t26.5 11.5h50q17 0 27.5 -11.5t10.5 -26.5v-368h2z" />
</svg>