<svg viewBox="0 0 256 256" xmlns="http://www.w3.org/2000/svg">
  <path transform="scale(1, -1) translate(0, -256)" fill="currentColor" d="M244 150q-7 14 -29 19q-13 2 -37 2h-4q3 15 4 29q2 22 -2 30q-6 13 -22 14q-8 1 -14 -2.5t-10 -9.5q-26 -40 -56 -71q0 -1 -2 -1h-50q-7 0 -12 -5t-5 -13v-94q0 -8 5 -13t12 -5h38l3 -2q16 -11 66 -15l14 -1q21 0 40 5t33 14q16 11 25 32t10 45t-7 42zM19 48v94q0 2 1 3 t3 1h25v-102h-25q-2 0 -3 1t-1 3zM208 42q-12 -7 -29 -11.5t-35 -4.5h-13q-46 5 -60 13l-4 3q-2 2 -4 2h-1v102h10q7 0 13 5q30 32 57 73q3 7 11 6t11 -7q1 -3 1 -16q-1 -16 -5 -36l-1 -6q-1 -4 1 -6.5t6 -2.5h11q20 0 31 -1q19 -3 23 -12q6 -14 5.5 -34.5t-8 -39 t-20.5 -27.5z" />
</svg>