<svg viewBox="0 0 1024 1024" xmlns="http://www.w3.org/2000/svg">
  <path transform="scale(1, -1) translate(0, -960)" fill="currentColor" d="M856 827q-53 35 -127 54.5t-155 19.5q-14 0 -27 -0.5t-29 -1.5q-121 -12 -179.5 -29t-80.5 -32l-13 -9h-154q-24 0 -41.5 -17t-17.5 -42v-380q0 -24 17 -40.5t41 -16.5h196q6 0 11 -2.5t9 -5.5q13 -14 36 -39q23 -26 52 -62t64 -82q34 -46 70 -102q13 -22 34 -33.5 t46 -11.5h4h4q26 3 47.5 16.5t32.5 36.5q13 26 7.5 98.5t-17.5 138.5l-1 6h25h70q38 0 75 7t67 23q31 16 44 47q22 49 25 115q4 66 -10 132t-46 123q-31 57 -79 89v0zM64 390v380q0 10 8 18.5t19 8.5h111v-432h-112q-11 0 -18.5 7.5t-7.5 17.5v0zM936 381q-22 -48 -96 -54 t-130 -4h-46q-4 0 -7 -1.5t-6 -4.5q-2 -4 -3 -6.5t0 -6.5l6 -26q17 -92 18 -148t-5 -68q-7 -15 -21 -24.5t-33 -10.5q-18 -1 -33 6t-25 23q-36 57 -71 104q-35 48 -65 85t-53 63q-23 25 -36 39q-9 9 -19.5 13.5t-22.5 4.5h-54v432h17q3 0 5 1t5 2l17 13q16 11 69.5 27 t175.5 27q13 1 25.5 1.5t25.5 0.5q77 0 146 -18.5t118 -50.5q43 -28 71 -81q28 -52 40.5 -112.5t9.5 -120.5q-3 -61 -23 -105v0z" />
</svg>