<svg viewBox="0 0 256 256" xmlns="http://www.w3.org/2000/svg">
  <path transform="scale(1, -1) translate(0, -256)" fill="currentColor" d="M38 158h-12q-9 0 -15 -6t-6 -15v-92q0 -8 6 -14.5t15 -6.5h12q9 0 15 6.5t6 14.5v92q0 9 -6 15t-15 6zM45 45q0 -3 -2 -5t-5 -2h-12q-3 0 -5 2.5t-2 4.5v92q0 3 2 5t5 2h12q3 0 5 -2t2 -5v-92zM250 142v2v2q-4 13 -15 19q-7 3 -19 3h-47l7 31q2 10 0 18t-9.5 12t-15 2.5 t-16.5 -10.5l-9 -9l-38 -38t-10 -12q-2 -6 -2 -16v-88q0 -8 1 -12q2 -9 7 -14q8 -8 26 -8h80q11 0 16.5 3t9.5 9q2 4 4 10q28 64 31 80q0 10 -1 16zM236 128q-2 -14 -29 -77q-3 -9 -7 -11q-3 -2 -10 -2h-80q-12 0 -16 4t-4 16v88q0 7 1 10q3 5 41 41l14 13q6 6 8.5 7 t5.5 -0.5t3.5 -4.5t-0.5 -10l-9 -40q-1 -4 1 -6.5t6 -2.5l55 1q10 0 13 -2q5 -2 7 -9l1 -3q0 -6 -1 -12z" />
</svg>