<svg viewBox="0 0 1024 1024" xmlns="http://www.w3.org/2000/svg">
  <path transform="scale(1, -1) translate(0, -960)" fill="currentColor" d="M221 928h-125q-26 0 -45 -19t-19 -45v-125q0 -26 19 -45t45 -19h125q26 0 45 19t19 45v125q0 26 -19 45t-45 19zM253 739q0 -13 -9.5 -22.5t-22.5 -9.5h-125q-13 0 -22.5 9.5t-9.5 22.5v125q0 13 9.5 22.5t22.5 9.5h125q13 0 22.5 -9.5t9.5 -22.5v-125zM574 928h-124 q-27 0 -45.5 -19t-18.5 -45v-125q0 -26 18.5 -45t45.5 -19h124q27 0 45.5 19t18.5 45v125q0 26 -18.5 45t-45.5 19zM606 739q0 -13 -9 -22.5t-23 -9.5h-124q-14 0 -23 9.5t-9 22.5v125q0 13 9 22.5t23 9.5h124q14 0 23 -9.5t9 -22.5v-125zM928 928h-125q-26 0 -45 -19 t-19 -45v-125q0 -26 19 -45t45 -19h125q26 0 45 19t19 45v125q0 26 -19 45t-45 19zM960 739q0 -13 -9.5 -22.5t-22.5 -9.5h-125q-13 0 -22.5 9.5t-9.5 22.5v125q0 13 9.5 22.5t22.5 9.5h125q13 0 22.5 -9.5t9.5 -22.5v-125zM221 574h-125q-26 0 -45 -18.5t-19 -45.5v-124 q0 -27 19 -45.5t45 -18.5h125q26 0 45 18.5t19 45.5v124q0 27 -19 45.5t-45 18.5v0zM253 386q0 -14 -9.5 -23t-22.5 -9h-125q-13 0 -22.5 9t-9.5 23v124q0 14 9.5 23t22.5 9h125q13 0 22.5 -9t9.5 -23v-124zM574 574h-124q-27 0 -45.5 -18.5t-18.5 -45.5v-124 q0 -27 18.5 -45.5t45.5 -18.5h124q27 0 45.5 18.5t18.5 45.5v124q0 27 -18.5 45.5t-45.5 18.5v0zM606 386q0 -14 -9 -23t-23 -9h-124q-14 0 -23 9t-9 23v124q0 14 9 23t23 9h124q14 0 23 -9t9 -23v-124zM928 574h-125q-26 0 -45 -18.5t-19 -45.5v-124q0 -27 19 -45.5 t45 -18.5h125q26 0 45 18.5t19 45.5v124q0 27 -19 45.5t-45 18.5v0zM960 386q0 -14 -9.5 -23t-22.5 -9h-125q-13 0 -22.5 9t-9.5 23v124q0 14 9.5 23t22.5 9h125q13 0 22.5 -9t9.5 -23v-124zM221 221h-125q-26 0 -45 -19t-19 -45v-125q0 -26 19 -45t45 -19h125q26 0 45 19 t19 45v125q0 26 -19 45t-45 19zM253 32q0 -13 -9.5 -22.5t-22.5 -9.5h-125q-13 0 -22.5 9.5t-9.5 22.5v125q0 13 9.5 22.5t22.5 9.5h125q13 0 22.5 -9.5t9.5 -22.5v-125zM574 221h-124q-27 0 -45.5 -19t-18.5 -45v-125q0 -26 18.5 -45t45.5 -19h124q27 0 45.5 19t18.5 45 v125q0 26 -18.5 45t-45.5 19zM606 32q0 -13 -9 -22.5t-23 -9.5h-124q-14 0 -23 9.5t-9 22.5v125q0 13 9 22.5t23 9.5h124q14 0 23 -9.5t9 -22.5v-125zM928 221h-125q-26 0 -45 -19t-19 -45v-125q0 -26 19 -45t45 -19h125q26 0 45 19t19 45v125q0 26 -19 45t-45 19zM960 32 q0 -13 -9.5 -22.5t-22.5 -9.5h-125q-13 0 -22.5 9.5t-9.5 22.5v125q0 13 9.5 22.5t22.5 9.5h125q13 0 22.5 -9.5t9.5 -22.5v-125z" />
</svg>