<svg viewBox="0 0 1024 1024" xmlns="http://www.w3.org/2000/svg">
  <path transform="scale(1, -1) translate(0, -960)" fill="currentColor" d="M402 -32q-4 0 -7 1l-6 2q-11 5 -17.5 15t-5.5 22l44 362q0 1 -0.5 1.5l-1.5 1.5l-1 0.5t-2 -0.5l-151 -29q-10 -2 -20 2t-16 14t-6 20t7 20l375 514q7 9 18 12.5t23 -0.5q11 -4 17.5 -14t5.5 -22l-52 -376q0 -2 0.5 -2t1.5 -2l1 -0.5t2 0.5l155 39q11 2 21 -1.5t16 -13.5 q6 -9 6 -20t-6 -20l-371 -512q-6 -7 -14 -10.5t-16 -3.5v0zM408 405q6 0 12.5 -2.5t11.5 -7.5q6 -6 9 -14t2 -16l-43 -362v-1t2 -2h2t1 2l371 512l0.5 1t-0.5 2t-2 1h-1l-155 -38q-9 -2 -17.5 0t-14.5 8t-9.5 14t-2.5 16l52 376l-0.5 1l-1.5 3q-1 1 -2 0t-1 -2l-373 -517 l-0.5 -1t0.5 -2t2 -1.5l1 -0.5l151 29q1 0 2.5 1t3.5 1v0z" />
</svg>