<svg viewBox="0 0 256 256" xmlns="http://www.w3.org/2000/svg">
  <path transform="scale(1, -1) translate(0, -256)" fill="currentColor" d="M231 178q-17 18 -42 22q-14 23 -37 31q-10 4 -24 4q-19 0 -35 -9.5t-25.5 -25t-10.5 -34.5q-22 -2 -37 -18.5t-15 -39t16.5 -39t40.5 -16.5q3 0 4.5 2t2 5t-1.5 5t-5 2q-18 0 -30 12.5t-12 30.5t12 30t30 12h2q3 0 5.5 2t2.5 5v5q0 15 7.5 28.5t21 21t28.5 7.5 q10 0 19 -3q21 -7 31 -27q2 -4 6 -4q10 -1 20 -6t17.5 -13t11.5 -18.5t4 -22.5q0 -19 -11 -34.5t-29 -21.5q-2 -1 -3.5 -3.5t-0.5 -5.5t4 -4t5 0q22 8 35 27t13 42q0 29 -20 51zM196 126q-1 3 -4.5 5t-6.5 2h-17l3 6q3 4 2.5 9t-3 9t-6.5 6.5t-9 2.5h-32q-5 0 -9.5 -3 t-6.5 -8l-23 -51q-3 -7 0.5 -12.5t10.5 -5.5h22l-15 -48q-1 -5 1 -9t5 -6t6 -2q6 0 10 5l70 86q5 7 2 14zM118 41l15 50q2 4 -0.5 6.5t-6.5 2.5h-29l23 50q1 2 3 2h32q3 0 4 -2t0 -4l-9 -17q-2 -3 0 -6.5t6 -3.5h25z" />
</svg>