<svg viewBox="0 0 1024 1024" xmlns="http://www.w3.org/2000/svg">
  <path transform="scale(1, -1) translate(0, -960)" fill="currentColor" d="M915 576q-32 36 -76 58.5t-92 29.5q-25 43 -62.5 74.5t-82.5 47.5q-20 7 -42 11.5t-46 4.5q-57 0 -107 -22q-49 -22 -86.5 -59t-58.5 -87q-22 -50 -22 -106v-2q-44 -2 -82 -20q-38 -17 -66 -46t-44 -67q-16 -39 -16 -83q0 -45 17 -84q16 -39 45 -68t68 -45q38 -17 83 -17 h461q59 0 111 22q52 23 91 61.5t62 90.5q22 52 22 111q0 54 -20 104t-57 91zM706 128h-461q-76 0 -128.5 53t-52.5 129q0 77 53 130t129 53h8q8 0 12 4.5t4 11.5v17q0 50 19 94q20 44 52.5 77t76.5 52t94 19q22 0 41 -3.5t36 -9.5q42 -14 76.5 -44t56.5 -69q2 -4 5 -6t7 -2 q45 -5 86 -25.5t71 -53.5q33 -36 50 -80.5t17 -92.5q1 -52 -19 -99q-19 -46 -53.5 -80.5t-80.5 -54.5q-47 -20 -99 -20v0zM590 437h-107l106 137q3 5 3 12t-6 11q-5 3 -12 3t-11 -6l-120 -154q-3 -5 -4 -11.5t3 -10.5q2 -6 7.5 -9.5t11.5 -3.5h107l-115 -136q-5 -5 -4 -12 t5 -11q3 -2 5.5 -2.5t4.5 -0.5q4 0 7 1.5t6 5.5l128 153q3 5 4 11.5t-1 11.5q-1 4 -6.5 7.5t-11.5 3.5v0z" />
</svg>