<svg viewBox="0 0 256 256" xmlns="http://www.w3.org/2000/svg">
  <path transform="scale(1, -1) translate(0, -256)" fill="currentColor" d="M231 162q-17 18 -42 23q-14 22 -37 30q-10 4 -24 4q-19 0 -35 -9t-25.5 -25t-10.5 -35q-22 -2 -37 -18t-15 -39t16.5 -39.5t40.5 -16.5h115q20 0 37 10t27 27t10 37q0 14 -5 27t-15 24zM176 51h-114q-18 0 -30.5 12.5t-12.5 30.5t12.5 30t30.5 12h2q3 0 5 2t2 5v5 q0 15 8 28.5t21 21t29 7.5q9 0 18 -3q21 -7 32 -27q2 -4 5 -4q11 -1 20.5 -6t17 -13t12 -18.5t4.5 -22.5q-1 -16 -9 -30t-22 -22t-31 -8zM148 128h-21l23 30q1 2 1 5t-2.5 4.5t-5.5 1.5t-5 -3l-30 -38q-1 -2 -1.5 -4.5t1.5 -4.5q2 -5 7 -5h21l-25 -29q-2 -2 -1.5 -5 t2.5 -4.5t5 -1.5t5 2l32 38q3 4 1 9t-7 5z" />
</svg>