<svg viewBox="0 0 1024 1024" xmlns="http://www.w3.org/2000/svg">
  <path transform="scale(1, -1) translate(0, -960)" fill="currentColor" d="M762 928h-500q-44 0 -75.5 -31.5t-31.5 -75.5v-816q0 -10 5.5 -16.5t15.5 -9.5q10 -2 18 1.5t12 11.5l76 125l92 -136q4 -6 10 -8.5t13 -2.5v0v0q7 0 13 3t9 8l93 137l93 -137q3 -6 9 -8.5t13 -2.5v0v0q7 0 13 3t10 9l91 136l75 -126q5 -8 13.5 -11.5t16.5 -1.5 q10 3 15.5 10.5t5.5 16.5v815q1 44 -30 75.5t-75 31.5v0zM837 19l-71 119q-3 6 -9 9t-13 3t-13 -3t-11 -9l-93 -136l-93 137q-7 11 -22 11t-22 -11l-93 -137l-93 136q-4 6 -9.5 8.5t-12.5 2.5h-0.5h-1.5q-7 0 -13 -3.5t-9 -9.5l-71 -117v800q0 31 22 53t53 22h500 q31 0 53 -22t22 -53v-800v0zM682 630h-340q-7 0 -11.5 -4t-4.5 -12q0 -7 4.5 -11.5t11.5 -4.5h341q7 0 11.5 4.5t4.5 11.5q0 8 -5 12t-12 4zM682 459h-340q-7 0 -11.5 -4.5t-4.5 -11.5t4.5 -11.5t11.5 -4.5h341q7 0 11.5 4.5t4.5 11.5q-1 7 -5.5 11.5t-11.5 4.5v0z" />
</svg>