<svg viewBox="0 0 256 256" xmlns="http://www.w3.org/2000/svg">
  <path transform="scale(1, -1) translate(0, -256)" fill="currentColor" d="M242 154q4 0 6.5 2.5t2.5 6.5v36q0 4 -3 7t-7 3h-227q-3 0 -6 -3t-3 -7v-37q0 -4 2.5 -6.5t6.5 -2.5q9 -1 15.5 -8.5t6.5 -17.5t-6.5 -17t-15.5 -8q-4 0 -7 -3t-3 -6v-36q0 -4 3 -7t7 -3h227q4 0 6.5 3t2.5 7v36q0 4 -2.5 6.5t-5.5 2.5q-10 1 -16.5 8.5t-6 17.5t6.5 17.5 t16 8.5zM237 89v-28h-113v25q0 3 -2 5t-5 2t-5 -2t-2 -5v-25h-91v28q14 2 23 13t9 25.5t-9 25.5t-23 13v28h92v-24q0 -3 2 -5.5t5 -2.5t5 2.5t2 5.5v24h113v-27q-14 -3 -23 -14t-9 -25t9 -25t22 -14zM118 146q-3 0 -5.5 -2.5t-2.5 -5.5v-21q0 -3 2.5 -5t5.5 -2t5 2t2 5v21 q0 3 -2.5 5.5t-4.5 2.5z" />
</svg>