<svg viewBox="0 0 256 256" xmlns="http://www.w3.org/2000/svg">
  <path transform="scale(1, -1) translate(0, -256)" fill="currentColor" d="M205 230l-17 17q-4 4 -10 4t-11 -4l-6 -6l-6 6q-4 4 -10.5 4t-10.5 -4l-6 -7l-6 6q-4 5 -10 5t-11 -5l-6 -6l-6 6q-4 5 -10 5t-11 -5l-16 -16q-5 -5 -5 -11v-183q0 -6 5 -10l16 -17q5 -4 11 -4t10 4l6 6l6 -6q5 -4 11 -4t10 4l6 6l6 -6q4 -4 10.5 -4t10.5 4l6 6l6 -6 q4 -4 10 -4t11 4l16 17q5 4 5 10v183q0 6 -4 11zM195 37v-1l-17 -17h-1l-11 11q-2 2 -5 2t-5 -2l-11 -11h-1l-12 11q-2 2 -4.5 2.5t-5.5 -2.5l-10 -11h-1l-11 11q-2 3 -5 3t-5 -3l-12 -11h-1l-16 18v182l17 18h1l11 -11q2 -2 5 -2.5t5 2.5l12 11h1l11 -11q2 -2 5 -2t5 2 l10 11h1l11 -11q2 -2 5 -2.5t5 2.5l12 11h1l16 -18v-182zM103 158h50q3 0 5 2.5t2 5.5t-2 5t-5 2h-50q-3 0 -5 -2t-2 -5t2 -5.5t5 -2.5zM166 135h-76q-3 0 -5 -2t-2 -5t2 -5.5t5 -2.5h76q3 0 5 2.5t2 5.5t-2 5t-5 2zM153 98h-50q-3 0 -5 -2.5t-2 -5.5t2 -5t5 -2h50q3 0 5 2 t2 5t-2 5.5t-5 2.5z" />
</svg>