<svg viewBox="0 0 1024 1024" xmlns="http://www.w3.org/2000/svg">
  <path transform="scale(1, -1) translate(0, -960)" fill="currentColor" d="M912 733h-800q-34 0 -57 -23.5t-23 -56.5v-410q0 -33 23 -56.5t57 -23.5h800q34 0 57 23.5t23 56.5v410q0 33 -23 56.5t-57 23.5v0zM960 243q0 -20 -14 -34t-34 -14h-125v32q0 7 -4.5 11.5t-11.5 4.5t-11.5 -4.5t-4.5 -11.5v-32h-643q-20 0 -34 14t-14 34v410q0 20 14 34 t34 14h643v-48q0 -7 4.5 -11.5t11.5 -4.5t11.5 4.5t4.5 11.5v48h125q20 0 34 -14t14 -34v-410zM771 413q-7 0 -11.5 -4.5t-4.5 -11.5v-85q0 -7 4.5 -11.5t11.5 -4.5t11.5 4.5t4.5 11.5v85q0 7 -4.5 11.5t-11.5 4.5zM771 584q-7 0 -11.5 -4.5t-4.5 -11.5v-85q0 -7 4.5 -11.5 t11.5 -4.5t11.5 4.5t4.5 11.5v85q0 6 -4.5 11t-11.5 5zM354 478h-50q-13 0 -22.5 11.5t-9.5 27.5q0 15 9.5 26.5t22.5 11.5h78q8 0 12 4.5t4 11.5t-4 11.5t-12 4.5h-38v11q0 8 -4.5 12t-11.5 4t-11.5 -4t-4.5 -12v-11h-8q-26 0 -45 -20.5t-19 -49.5t19 -50t45 -21h50 q13 0 22.5 -11t9.5 -27t-9.5 -27t-22.5 -11h-79q-7 0 -11.5 -4.5t-4.5 -11.5q0 -8 4.5 -12t11.5 -4h39v-12q0 -7 4 -11.5t12 -4.5q7 0 11.5 4.5t4.5 11.5v12h8q26 0 45 20.5t19 49.5q1 29 -18.5 49.5t-45.5 20.5z" />
</svg>