<svg viewBox="0 0 256 256" xmlns="http://www.w3.org/2000/svg">
  <path transform="scale(1, -1) translate(0, -256)" fill="currentColor" d="M205 230l-17 17q-4 4 -10 4t-11 -4l-6 -6l-6 6q-4 4 -10.5 4t-10.5 -4l-6 -7l-6 6q-4 5 -10 5t-11 -5l-6 -6l-6 6q-4 5 -10 5t-11 -5l-16 -16q-5 -5 -5 -11v-183q0 -6 5 -10l16 -17q5 -4 11 -4t10 4l6 6l6 -6q5 -4 11 -4t10 4l6 6l6 -6q4 -4 10.5 -4t10.5 4l6 6l6 -6 q4 -4 10 -4t11 4l16 17q5 4 5 10v183q0 6 -4 11zM195 37v-1l-17 -17h-1l-11 11q-2 2 -5 2t-5 -2l-11 -11h-1l-12 11q-2 2 -4.5 2.5t-5.5 -2.5l-10 -11h-1l-11 11q-2 3 -5 3t-5 -3l-12 -11h-1l-16 18v182l17 18h1l11 -11q2 -2 5 -2.5t5 2.5l12 11h1l11 -11q2 -2 5 -2t5 2 l10 11h1l11 -11q2 -2 5 -2.5t5 2.5l12 11h1l16 -18v-182zM161 101h-66q-3 0 -5 -2t-2 -5t2 -5t5 -2h65q3 0 5.5 2t2.5 5t-2 5t-5 2zM148 71h-40q-3 0 -5 -2t-2 -5t2 -5t5 -2h40q3 0 5 2t2 5t-2 5t-5 2zM122 158h12q2 0 3.5 -2t1.5 -4t-1.5 -4t-3.5 -2h-19q-3 0 -5 -2t-2 -5 t2 -5t5 -2h6q1 -3 2.5 -5t4.5 -2t5 2t2 5q7 0 12 5.5t5 13.5t-5.5 14t-12.5 6h-12q-2 0 -3.5 2t-1.5 4.5t1.5 4t3.5 1.5h18q3 0 5.5 2t2.5 5t-2.5 5.5t-5.5 2.5h-6q0 2 -2 4t-4.5 2t-4.5 -2t-2 -4q-8 -1 -13 -6.5t-4.5 -13.5t5.5 -14t13 -6z" />
</svg>