<svg viewBox="0 0 1024 1024" xmlns="http://www.w3.org/2000/svg">
  <path transform="scale(1, -1) translate(0, -960)" fill="currentColor" d="M966 563q11 0 18.5 8.5t7.5 18.5v144q0 11 -7.5 18.5t-18.5 7.5h-908q-11 0 -18.5 -7.5t-7.5 -18.5v-147q0 -12 7 -19.5t17 -7.5v0v0q43 -4 72.5 -36.5t29.5 -77.5t-28.5 -77t-71.5 -35q-11 0 -18.5 -7t-7.5 -18v-144q0 -11 7.5 -18.5t18.5 -7.5h907q11 0 19 7.5t8 19.5 v144q0 11 -7 19.5t-17 8.5q-43 3 -72.5 36t-29.5 77q0 43 29 76t71 36v0zM965 595v0v0v0v0v0v0zM834 448q0 -55 36 -96.5t90 -49.5v-134h-478q1 2 2 4.5t1 5.5v100q0 8 -4.5 12t-11.5 4t-11.5 -4t-4.5 -12v-100q0 -3 1 -6t2 -4h-392v133q54 6 90 46.5t36 97.5q0 55 -36 96.5 t-90 48.5v136h394q-2 -2 -3 -4.5t-1 -4.5v-101q0 -7 4.5 -11.5t11.5 -4.5q8 0 12 4.5t4 11.5v101q0 2 -1 5t-2 4h477v-132q-54 -6 -90 -48t-36 -98zM470 506q-7 0 -11.5 -4.5t-4.5 -11.5v-85q0 -7 4.5 -11.5t11.5 -4.5q8 0 12 4.5t4 11.5v85q0 7 -5 11.5t-11 4.5v0z" />
</svg>