<svg viewBox="0 0 1024 1024" xmlns="http://www.w3.org/2000/svg">
  <path transform="scale(1, -1) translate(0, -960)" fill="currentColor" d="M811 846v0v0l-67 68q-13 13 -33.5 13t-33.5 -13l-32 -34l-34 34q-13 13 -33.5 13t-33.5 -13l-32 -34l-34 34q-13 13 -33.5 13t-33.5 -13l-32 -34l-33 34q-14 13 -34 13t-34 -13l-67 -68q-7 -7 -10.5 -15.5t-3.5 -17.5v-731q0 -10 3.5 -18.5t10.5 -15.5l66 -67 q13 -13 33.5 -13t33.5 13l34 33l33 -33q13 -13 33.5 -13t33.5 13l34 35l34 -34q13 -13 33.5 -13t33.5 13l33 34l34 -34q7 -7 15.5 -10.5t18.5 -3.5q9 0 17.5 3.5t15.5 10.5l67 68q8 7 11.5 15.5t3.5 17.5v730q-3 9 -7.5 18t-10.5 15zM794 83q0 -3 -1.5 -6t-3.5 -5l-67 -67 q-5 -5 -11.5 -5t-9.5 5l-45 45q-2 2 -5 3t-6 1q-4 0 -6.5 -1t-4.5 -3l-45 -45q-5 -5 -11 -5t-10 5l-45 45q-5 4 -11 4t-11 -4l-45 -45q-5 -5 -11 -5t-10 5l-45 45q-4 4 -10.5 4t-11.5 -4l-45 -45q-5 -5 -11 -5t-10 5l-65 67q-3 2 -4 5t-1 6v730q0 3 1 6t4 5l67 67q5 5 11 5 t10 -5l43 -45q5 -4 11.5 -4t10.5 4l45 45q5 5 11 5t10 -5l45 -45q2 -2 4.5 -3t6.5 -1t6.5 1t4.5 3l45 45q5 5 11 5t10 -5l45 -45q4 -4 10.5 -4t11.5 4l45 45q5 5 11 5t10 -5l67 -67q2 -2 3.5 -5t1.5 -6v-730zM643 330h-262q-7 0 -11.5 -4.5t-4.5 -11.5q0 -8 4.5 -12t11.5 -4 h261q7 0 11.5 4t4.5 12q0 7 -4.5 11.5t-10.5 4.5v0zM590 208h-156q-8 0 -12 -4.5t-4 -11.5t4 -11.5t12 -4.5h156q8 0 12 4.5t4 11.5t-5 11.5t-11 4.5zM488 581h48q13 0 21.5 -10.5t8.5 -24.5q0 -15 -9 -25.5t-21 -10.5h-75q-7 0 -11.5 -4t-4.5 -12q0 -7 4.5 -11.5t11.5 -4.5 h35v-9q0 -7 4.5 -11.5t11.5 -4.5t11.5 4.5t4.5 11.5v9h8q26 0 44 20t18 48q0 27 -18.5 47t-43.5 20h-48q-13 0 -21.5 10.5t-8.5 24.5t9 24.5t21 10.5h75q7 0 11.5 4.5t4.5 11.5t-4.5 11.5t-11.5 4.5h-35v10q0 7 -4.5 11.5t-11.5 4.5t-11.5 -4.5t-4.5 -11.5v-10h-8 q-26 0 -44 -19.5t-18 -47.5t18.5 -47.5t43.5 -19.5z" />
</svg>