<svg viewBox="0 0 256 256" xmlns="http://www.w3.org/2000/svg">
  <path transform="scale(1, -1) translate(0, -256)" fill="currentColor" d="M190 251h-124q-13 0 -21.5 -9t-8.5 -21v-204q0 -3 2 -6t5 -3.5t6.5 0.5t4.5 4l17 27l20 -30q3 -4 8.5 -4t7.5 4l21 31l21 -31q3 -4 8 -4t8 4l20 30l17 -27q1 -3 4 -4.5t6.5 -0.5t5.5 3.5t2 6.5v204q0 12 -8.5 21t-21.5 9zM206 32l-12 20q-3 5 -8 5t-8 -4l-21 -31l-21 31 q-3 4 -8 4t-8 -4l-21 -31l-21 30q-3 5 -8 5v0q-5 0 -8 -5l-12 -20v189q0 7 4.5 11.5t11.5 4.5h124q7 0 11.5 -4.5t4.5 -11.5v-189zM170 176h-84q-3 0 -5.5 -2t-2.5 -5t2.5 -5t5.5 -2h85q3 0 5 2t2 5t-2.5 5t-5.5 2zM170 134h-84q-3 0 -5.5 -2t-2.5 -5t2.5 -5t5.5 -2h85 q3 0 5 2t2 5t-2.5 5t-5.5 2z" />
</svg>