<svg viewBox="0 0 256 256" xmlns="http://www.w3.org/2000/svg">
  <path transform="scale(1, -1) translate(0, -256)" fill="currentColor" d="M36 77l22 16q2 2 5.5 2t6.5 -2l12 -8q6 -5 14 -5t15 5l11 8q3 2 6.5 2t6.5 -2l11 -8q7 -5 15 -5t14 5l11 9q3 2 6.5 2t6.5 -2l22 -16q2 -2 5 -2t4.5 3t1 5.5t-2.5 4.5l-22 16q-6 5 -14 5t-15 -5l-12 -9q-2 -2 -5.5 -2t-6.5 2l-12 8q-6 5 -14 5t-15 -5l-11 -8 q-3 -2 -6.5 -2t-6.5 2l-11 8q-7 5 -15 5t-14 -5l-22 -16q-2 -2 -2.5 -4.5t1.5 -5t5 -3t5 1.5zM228 18l-21 16q-7 4 -15 4t-14 -4l-12 -9q-2 -2 -5.5 -2t-6.5 2l-12 8q-6 5 -14 5t-15 -5l-11 -8q-3 -2 -6.5 -2t-6.5 2l-11 8q-7 5 -15 5t-14 -5l-22 -16q-2 -2 -2.5 -4.5 t1.5 -5t5 -2.5t5 1l22 16q2 3 5.5 3t6.5 -3l12 -8q6 -4 14 -4t15 4l11 8q3 3 6.5 3t6.5 -3l11 -8q7 -4 15 -4t14 4l11 9q3 2 6.5 2t6.5 -2l22 -16q2 -1 5 -1t4.5 2t1 5t-3.5 5zM115 164q5 -5 12.5 -5t12.5 5l27 26q2 2 2 5t-2 5.5t-5 2.5t-5 -3l-22 -22v66q0 3 -2 5t-5 2 t-5.5 -2t-2.5 -5v-66l-22 22q-2 2 -4.5 2t-5 -2t-2.5 -5t2 -5z" />
</svg>