<svg viewBox="0 0 1024 1024" xmlns="http://www.w3.org/2000/svg">
  <path transform="scale(1, -1) translate(0, -960)" fill="currentColor" d="M136 254l86 64q15 11 32.5 11t33.5 -11l45 -32q23 -16 51 -16t51 16l45 32q14 11 32 11t34 -11l44 -32q23 -16 51.5 -16t51.5 16l45 34q14 11 32 11t33 -11l87 -64q2 -1 4.5 -2t4.5 -1q4 0 7.5 1.5t5.5 4.5q4 5 3 12t-6 11l-87 64q-22 16 -50.5 16t-51.5 -16l-48 -36 q-14 -10 -32 -10t-34 10l-44 32q-23 17 -51.5 17t-51.5 -17l-45 -32q-14 -10 -32 -10t-33 10l-45 32q-23 17 -51.5 17t-50.5 -17l-87 -64q-5 -3 -6 -10t3 -12t11.5 -5t12.5 3v0zM821 61q-23 17 -51.5 17t-51.5 -17l-46 -34q-14 -11 -32 -11t-34 11l-44 32q-23 17 -51.5 17 t-51.5 -17l-45 -32q-14 -11 -32 -11t-33 11l-45 32q-23 17 -51.5 17t-50.5 -17l-87 -64q-5 -3 -6 -10t3 -12q4 -3 7.5 -4t6.5 -1t5.5 1t4.5 2l86 64q15 11 32.5 11t33.5 -11l45 -32q23 -17 51 -17t51 17l45 32q14 11 32 11t34 -11l44 -32q23 -17 51.5 -17t51.5 17l45 34 q14 11 32 11t33 -11l87 -64q4 -4 11 -3t11 6t3 12t-6 10l-88 63v0zM467 602q9 -9 20 -13.5t23 -4.5t23 4.5t21 13.5l105 105q5 5 5 11.5t-5 11.5q-5 4 -11 4t-11 -4l-107 -106l-1 -1t-3 -1v2v2v286q0 7 -4 11.5t-12 4.5q-7 0 -11.5 -4.5t-4.5 -11.5v-288q0 -1 0.5 -2.5 t1.5 -2.5q-2 1 -3.5 2.5l-2.5 2.5l-103 102q-5 5 -11 5t-11 -5q-5 -4 -5 -10.5t5 -11.5l102 -102v0z" />
</svg>