<svg viewBox="0 0 1024 1024" xmlns="http://www.w3.org/2000/svg">
  <path transform="scale(1, -1) translate(0, -960)" fill="currentColor" d="M821 277q-23 17 -51.5 17t-51.5 -17l-46 -32q-14 -11 -32 -11t-34 11l-44 32q-23 17 -51.5 17t-51.5 -17l-45 -32q-14 -11 -32 -11t-33 11l-45 32q-23 17 -51.5 17t-50.5 -17l-87 -64q-5 -4 -6 -11t3 -12q2 -3 5.5 -4.5t7.5 -1.5q2 0 4.5 1t4.5 2l87 64q14 11 32 11 t33 -11l45 -32q23 -17 51.5 -17t51.5 17l44 32q15 11 32.5 11t33.5 -11l45 -32q23 -17 51 -17t51 17l45 34q14 11 32 11t34 -11l86 -64q5 -4 12 -3t10 6q4 5 3 12t-6 10l-86 63v0zM821 61q-23 17 -51.5 17t-51.5 -17l-46 -34q-14 -11 -32 -11t-34 11l-44 32q-23 17 -51.5 17 t-51.5 -17l-45 -32q-14 -11 -32 -11t-33 11l-45 32q-23 17 -51.5 17t-50.5 -17l-87 -64q-5 -3 -6 -10t3 -12q4 -3 7.5 -4t6.5 -1t5.5 1t4.5 2l86 64q15 11 32.5 11t33.5 -11l45 -32q23 -17 51 -17t51 17l45 32q14 11 32 11t34 -11l44 -32q23 -17 51.5 -17t51.5 17l45 34 q14 11 32 11t33 -11l87 -64q4 -4 11 -3t11 6t3 12t-6 10l-88 63v0zM376 776q4 0 6.5 1t4.5 4l106 105l1 1t2 1v-1.5v-1.5v-221q0 -7 4.5 -11.5t11.5 -4.5t11.5 4.5t4.5 11.5v222v3t-2 4q3 -1 4.5 -2.5l2.5 -2.5l102 -102q5 -5 11.5 -5t11.5 5q4 4 4 10.5t-4 11.5l-103 102 q-18 18 -43 18t-42 -18l-105 -105q-5 -5 -5 -11.5t5 -11.5q2 -3 5.5 -4.5t5.5 -1.5v0zM126 406q3 0 5.5 1t4.5 3l86 64q15 10 32.5 10t33.5 -10l45 -32q23 -17 51 -17t51 17l45 32q14 10 32 10t34 -10l44 -32q23 -17 51.5 -17t51.5 17l45 33q14 11 32 11t33 -11l87 -64 q4 -3 11 -2t11 5q4 5 3 12t-6 11l-87 64q-22 17 -50.5 17t-51.5 -17l-48 -35q-14 -11 -32 -11t-34 11l-44 32q-23 16 -51.5 16t-51.5 -16l-45 -32q-14 -11 -32 -11t-33 11l-45 32q-23 16 -51.5 16t-50.5 -16l-87 -64q-5 -4 -6 -11t3 -12q4 -2 7.5 -3.5t6.5 -1.5v0z" />
</svg>