<svg viewBox="0 0 1024 1024" xmlns="http://www.w3.org/2000/svg">
  <path transform="scale(1, -1) translate(0, -960)" fill="currentColor" d="M600 766l37 111q2 8 0.5 18t-7.5 17t-14 11.5t-18 4.5h-172q-10 0 -18 -4.5t-14 -11.5t-7.5 -17t2.5 -18l37 -111l-79 -675q0 -5 1.5 -8.5t5.5 -5.5l136 -101q4 -4 10 -6t12 -2t12 2t12 6l136 101q4 2 5 6.5t1 7.5l-78 675v0zM419 893q0 1 2 2t5 1h172q3 0 4.5 -1t2.5 -2 q0 -1 0.5 -2.5t0.5 -4.5l-35 -102h-120l-33 102q0 3 0.5 4.5t0.5 2.5v0zM517 2q-3 -2 -5 -2t-3 2l-130 96l75 654h114l77 -654l-128 -96v0z" />
</svg>