<svg viewBox="0 0 1024 1024" xmlns="http://www.w3.org/2000/svg">
  <path transform="scale(1, -1) translate(0, -960)" fill="currentColor" d="M430 750h162q6 0 10.5 3.5t5.5 9.5l32 146q1 3 0 6.5t-3 6.5l-6 4t-7 2h-224q-4 0 -7 -1.5t-6 -4.5q-2 -4 -2.5 -7t-0.5 -6l30 -146q3 -6 7.5 -9.5t8.5 -3.5zM603 896l-24 -114h-136l-22 114h182zM610 643q0 6 -5 10.5t-11 4.5h-164q-6 0 -11 -4.5t-5 -10.5l-30 -525 q0 -3 1 -5.5t2 -5.5l112 -133l6 -4t7 -2t7 1.5t6 4.5l112 133q2 3 2.5 5.5t0.5 5.5zM512 10l-96 113l29 504h131l32 -505z" />
</svg>