<svg viewBox="0 0 1024 1024" xmlns="http://www.w3.org/2000/svg">
  <path transform="scale(1, -1) translate(0, -960)" fill="currentColor" d="M890 944h-756q-49 0 -83.5 -34.5t-34.5 -83.5v-756q0 -49 34.5 -83.5t83.5 -34.5h756q49 0 83.5 34.5t34.5 83.5v756q0 49 -34.5 83.5t-83.5 34.5zM796 511q-4 0 -8.5 -0.5t-8.5 -0.5q-22 0 -43 5.5t-41 16.5q-19 10 -35.5 25t-28.5 33v-272q0 -30 -8.5 -58.5 t-25.5 -53.5q-16 -25 -39.5 -44t-50.5 -30q-28 -12 -57.5 -14.5t-58.5 2.5q-30 6 -56 20t-48 36q-21 21 -35 47t-20 56q-6 29 -3 58.5t15 57.5q11 28 30 51t44 39q25 17 53.5 25.5t58.5 8.5h6h6v-100q-3 1 -6 1.5t-6 0.5q-21 0 -39.5 -8t-33.5 -22q-14 -15 -22 -34t-8 -39 q0 -21 8 -39.5t22 -33.5q15 -14 33.5 -22t39.5 -8q42 0 74.5 29.5t32.5 72.5l1 462h95q3 -31 16.5 -58.5t36.5 -49.5q22 -22 50.5 -34.5t59.5 -14.5v-111v0z" />
</svg>