<svg viewBox="0 0 256 256" xmlns="http://www.w3.org/2000/svg">
  <path transform="scale(1, -1) translate(0, -256)" fill="currentColor" d="M222 252h-188q-13 0 -21.5 -8.5t-8.5 -21.5v-188q0 -13 8.5 -21.5t21.5 -8.5h188q13 0 21.5 8.5t8.5 21.5v188q0 13 -8.5 21.5t-21.5 8.5zM199 144h-4q-11 0 -21 5t-16 15v-69q0 -15 -8.5 -27.5t-22.5 -18.5t-29 -3t-26 14t-14 26t3 29t18.5 22.5t27.5 8.5h4v-25h-4 q-6 0 -12 -3.5t-9.5 -9.5t-3.5 -12.5t3.5 -12.5t9.5 -9.5t12 -3.5q11 0 19 7.5t8 17.5v116h24q2 -16 13.5 -27t27.5 -13v-27z" />
</svg>