<svg viewBox="0 0 1024 1024" xmlns="http://www.w3.org/2000/svg">
  <path transform="scale(1, -1) translate(0, -960)" fill="currentColor" d="M526 515q43 0 81 16q37 17 65 45t45 65q16 38 16 81q0 42 -16 80q-17 37 -45 65t-65 45q-38 16 -81 16q-42 0 -80 -16q-37 -17 -65 -45t-45 -65q-16 -38 -16 -80q0 -43 16 -81q17 -37 45 -65t65 -45q38 -16 80 -16zM526 896q72 0 123.5 -51t51.5 -123t-51.5 -123.5 t-123.5 -51.5t-123 51.5t-51 123.5t51 123t123 51zM546 651q2 -2 5 -3.5t6 -1.5q2 0 5.5 1.5t5.5 3.5q5 5 5 11.5t-5 11.5l-35 35v61q0 7 -4.5 11.5t-11.5 4.5t-11.5 -4.5t-4.5 -11.5v-68q0 -3 1 -5.5t4 -5.5l40 -40v0zM882 790h-37q-7 0 -11.5 -4t-4.5 -12q0 -7 4.5 -11.5 t11.5 -4.5h37q21 0 36 -14.5t15 -36.5v-475q0 -22 -15 -36.5t-36 -14.5h-740q-21 0 -36 14.5t-15 36.5v475q0 22 15 36.5t36 14.5h40q8 0 12 4.5t4 11.5q0 8 -4 12t-12 4h-40q-34 0 -58.5 -24t-24.5 -59v-475q0 -35 24.5 -59t58.5 -24h356v-149h-98q-7 0 -11.5 -4.5 t-4.5 -11.5t4.5 -11.5t11.5 -4.5h224q7 0 11.5 4.5t4.5 11.5t-4.5 11.5t-11.5 4.5h-94v149h352q34 0 58.5 24t24.5 59v475q0 34 -24.5 58.5t-58.5 24.5z" />
</svg>