<svg viewBox="0 0 256 256" xmlns="http://www.w3.org/2000/svg">
  <path transform="scale(1, -1) translate(0, -256)" fill="currentColor" d="M228 228h-200q-10 0 -16.5 -6.5t-6.5 -15.5v-116q0 -9 6.5 -16t16.5 -7h60l34 -37q2 -2 5.5 -2t4.5 2l35 38h61q9 0 16 6.5t7 15.5v116q0 9 -6.5 15.5t-16.5 6.5zM237 90q0 -4 -2.5 -6.5t-6.5 -2.5h-64q-3 0 -5 -2l-32 -34l-31 34q-1 2 -5 2h-64q-3 0 -6 2.5t-3 6.5v116 q0 3 3 5.5t6 2.5h201q4 0 6.5 -2.5t2.5 -5.5v-116zM128 195q-21 0 -36 -15t-15 -36t15 -36.5t36 -15.5t36 15.5t15 36.5t-15 36t-36 15zM128 106q-15 0 -26 11t-11 26.5t11 26.5t26 11t26 -11t11 -26.5t-11 -26.5t-26 -11zM133 142v13q0 3 -2 5t-5 2t-5.5 -2t-2.5 -5v-15 q0 -3 2 -5l10 -9q2 -2 4.5 -2t4.5 2t2 4.5t-2 5.5z" />
</svg>