<svg viewBox="0 0 256 256" xmlns="http://www.w3.org/2000/svg">
  <path transform="scale(1, -1) translate(0, -256)" fill="currentColor" d="M100 224h-15q-3 0 -5 -2.5t-2 -5.5t2 -5t5 -2h15q3 0 5.5 2t2.5 5t-2.5 5.5t-5.5 2.5zM175 191q-5 0 -7 -1v34q0 12 -8.5 20.5t-20.5 8.5h-93q-12 0 -20 -8.5t-8 -20.5v-188q0 -12 8 -20.5t20 -8.5h94q11 0 19.5 8.5t8.5 20.5v28h7q18 0 32.5 8.5t23 23t8.5 32t-9 32 t-23.5 23t-31.5 8.5zM139 21h-93q-6 0 -10 4.5t-4 10.5v12h122v-12q0 -6 -4.5 -10.5t-10.5 -4.5zM154 67v-5h-122v162q0 6 4 10.5t10 4.5h94q6 0 10 -4.5t4 -10.5v-37q-19 -6 -30.5 -22.5t-12 -37t11.5 -37t31 -23.5v0v0zM175 78q-21 0 -35.5 14.5t-14.5 35t14.5 35t35 14.5 t35 -14.5t14.5 -35t-14.5 -35t-34.5 -14.5zM179 124v18q0 3 -2 5t-5 2t-5.5 -2t-2.5 -5v-20q0 -3 2 -5l12 -12q2 -2 5 -2t5 2t2 5t-2 5z" />
</svg>