<svg viewBox="0 0 256 256" xmlns="http://www.w3.org/2000/svg">
  <path transform="scale(1, -1) translate(0, -256)" fill="currentColor" d="M132 142q14 0 27 7t20 19.5t7 27.5t-7 27.5t-19.5 20t-27.5 7.5t-27.5 -7.5t-20 -20t-7.5 -27t7.5 -27.5t20 -20t27.5 -7zM132 237q16 0 28 -12t12 -29t-12 -29t-28.5 -12t-28.5 12t-12 29t12 29t29 12zM134 177q2 -2 5 -2t5 2t2 5t-2 5l-8 8v14q0 3 -2.5 5t-5.5 2t-5 -2 t-2 -5v-17q0 -3 2 -5zM220 216h-9q-3 0 -5 -2t-2 -5t2 -5t5 -2h9q5 0 7.5 -3t2.5 -7v-119q0 -4 -2.5 -7t-7.5 -3h-184q-5 0 -7.5 3t-2.5 7v120q0 4 2.5 7t7.5 3h10q3 0 5 2t2 5t-2 5t-5 2h-10q-10 0 -17 -7t-7 -17v-119q0 -9 7 -16.5t17 -7.5h91v-31h-21q-3 0 -5.5 -2 t-2.5 -5t2.5 -5t5.5 -2h56q3 0 5 2t2 5t-2 5t-5 2h-21v31h79q10 0 17 7.5t7 16.5v119q0 10 -7 16.5t-17 6.5z" />
</svg>