<svg viewBox="0 0 1024 1024" xmlns="http://www.w3.org/2000/svg">
  <path transform="scale(1, -1) translate(0, -960)" fill="currentColor" d="M402 819h-61q-7 0 -11.5 -4.5t-4.5 -11.5t4.5 -11.5t11.5 -4.5h61q7 0 11.5 4.5t4.5 11.5t-4.5 11.5t-11.5 4.5zM699 688q-11 0 -20.5 -1t-19.5 -2v145q0 44 -29.5 75t-71.5 31h-374q-42 0 -71.5 -31t-29.5 -75v-748q0 -44 29.5 -75t71.5 -31h374q42 0 71.5 31t29.5 75 v75v0v0v0v0v48v0.5v0.5q10 -1 20.5 -2t21.5 -1q50 0 94 19q45 19 78 52t52 78q19 44 19 94q0 51 -19 95q-20 44 -53 76.5t-78 51.5q-44 19 -95 19v0zM557 8h-373q-29 0 -49 22t-20 52v59h512v-59q-1 -30 -21 -52t-49 -22zM626 203v-32h-512v659q0 30 20 52t48 22h375 q29 0 49 -22t20 -52v-153q-75 -23 -122.5 -87t-47.5 -145q0 -41 13 -78t36 -67.5t55 -52.5q32 -23 69 -34q-1 -3 -2 -5t-1 -5v0zM699 234q-44 0 -82 16q-39 17 -67.5 45.5t-44.5 67.5q-17 38 -17 82t17 82q16 39 44.5 67.5t67.5 44.5q38 17 82 17t82 -17q39 -16 67.5 -44.5 t45.5 -67.5q16 -38 16 -82t-16 -82q-17 -39 -46 -67.5t-67 -45.5q-39 -16 -82 -16v0zM702 429v73q0 8 -4 12t-12 4q-7 0 -11.5 -4t-4.5 -12v-80q0 -3 1.5 -5.5t3.5 -5.5l48 -48q3 -2 6 -3.5t5 -1.5q3 0 6 1.5t6 3.5q4 5 4 11.5t-4 11.5z" />
</svg>