<svg viewBox="0 0 1024 1024" xmlns="http://www.w3.org/2000/svg">
  <path transform="scale(1, -1) translate(0, -960)" fill="currentColor" d="M789 402q-42 0 -79 -16t-64.5 -44t-43.5 -65t-16 -79t16 -79t43.5 -64.5t64.5 -43.5t79 -16t79 16t64.5 43.5t43.5 64.5t16 79t-16 79t-43.5 65t-64.5 44t-79 16v0zM789 29q-71 0 -121 50t-50 121t50 121t121 50t121 -50t50 -121t-50 -121t-121 -50zM795 187v59 q0 8 -4.5 12t-11.5 4t-11.5 -4t-4.5 -12v-65q0 -4 1.5 -6.5t3.5 -4.5l38 -39q3 -2 6 -3.5t6 -1.5q2 0 5 1.5t6 3.5q5 5 5 11.5t-5 11.5zM125 867h240l88 -91q2 -2 4.5 -3.5t6.5 -1.5h392q25 0 43 -17.5t18 -43.5v-184q0 -7 4.5 -11.5t11.5 -4.5t11.5 4.5t4.5 11.5v184 q0 39 -27.5 66t-65.5 27h-386l-88 91q-2 3 -4.5 4t-6.5 1h-246q-39 0 -66 -27t-27 -66v-560q0 -38 27 -65t66 -27h318q7 0 11.5 4t4.5 12q0 7 -4.5 11.5t-11.5 4.5h-318q-25 0 -43 17.5t-18 42.5v560q0 26 18 43.5t43 17.5v0z" />
</svg>