<svg viewBox="0 0 256 256" xmlns="http://www.w3.org/2000/svg">
  <path transform="scale(1, -1) translate(0, -256)" fill="currentColor" d="M104 249q-7 -2 -10 -9q-2 -5 -3 -17v-13l-16 -9l-11 6q-8 5 -12.5 6t-9.5 0t-9 -6t-11.5 -17.5t-9.5 -17.5t-1 -9q1 -7 4.5 -10.5t15.5 -10.5l7 -4v-20l-8 -4q-11 -6 -15 -11t-4 -12q0 -4 1 -7t6 -11q8 -15 11 -19.5t6.5 -6.5t5 -2.5t6.5 -0.5t9.5 1.5t15.5 8.5q2 1 5 0 l14 -8v-13q0 -9 0.5 -11.5t3.5 -6.5t7 -6.5t7 -2.5l17 -1q20 1 23.5 1.5t7.5 4t5.5 7t2.5 16.5v12l8 5q8 4 10 4l10 -6q5 -3 8 -4.5t6.5 -1.5t5.5 0.5t5.5 2.5t6 5t10 15.5t9 16.5t1.5 8q0 7 -4 11.5t-15 11.5l-8 4v20l7 4q13 7 16.5 12t3.5 13q0 4 -2 7.5t-8 14.5 q-9 16 -14.5 20.5t-14.5 3.5q-5 -1 -14 -6l-10 -6l-5 3q-4 3 -8 5l-4 1v12q0 10 -1 14.5t-5 8.5t-9 5t-22 1q-21 0 -24 -2zM149 235q1 -1 2 -4v-11q0 -12 2 -16t11 -9q5 -2 8 -4q7 -5 14 -3q3 1 11.5 6t11 5.5t5 -2t10 -16.5t7.5 -16t-2.5 -4t-10 -6.5t-10 -7t-3.5 -6.5 t-1 -13t1 -12.5t3.5 -6.5t10.5 -7.5t10 -6.5t2 -4.5t-9 -17.5l-1 -1q-6 -10 -8 -12.5t-5 -2t-10 4.5l-1 1q-10 5 -14 5.5t-6.5 0t-8.5 -4.5q-9 -6 -12.5 -9t-4.5 -7t-1 -14v-2q0 -7 -1 -9.5t-4.5 -3t-13.5 -0.5h-19q-3 1 -4.5 2.5t-2.5 3.5v11q0 12 -2 15.5t-10 8.5 q-11 6 -15 7.5t-7.5 0.5t-11.5 -5.5t-11 -5.5t-5 1t-10 16l-1 1q-5 10 -6 13.5t0.5 5.5t8.5 6l1 1q10 6 12.5 8.5t2.5 5.5l1 12v13q-1 2 -3 5t-12 10q-8 4 -10 6t-2 4t9 17.5t11 16.5t4 0l10 -5q8 -5 12 -6t7.5 0t11.5 6t11 7.5t4 6t1 12.5q0 14 1.5 15t4.5 2h32q4 -1 5 -2z M115 178q-14 -4 -24 -14q-11 -12 -13.5 -28t5 -31t22.5 -22.5t31 -5t28 14.5q13 14 14.5 32t-8.5 33t-29 20q-5 2 -13 2t-13 -1zM143 162q6 -3 11 -8t7.5 -9.5t2.5 -7.5v-9v-9t-2.5 -7.5t-7.5 -9.5t-10 -7.5t-7.5 -3t-9 0t-9 1t-6.5 2.5q-12 6 -18 18q-2 4 -2 6.5t-0.5 8.5 t0 8.5t2.5 6.5q7 15 23 21q5 1 13 0.5t13 -2.5zM121 144q-1 -1 -2 -3v-20l6 -7q4 -4 6 -5t4.5 -1t4.5 2.5t1.5 5.5t-4 6t-4 4.5t-0.5 8t-2 9t-5 2.5t-5 -2z" />
</svg>