<svg viewBox="0 0 256 256" xmlns="http://www.w3.org/2000/svg">
  <path transform="scale(1, -1) translate(0, -256)" fill="currentColor" d="M195 196l18 21q2 2 2 5t-2.5 5t-5 1.5t-5.5 -2.5l-18 -22q-23 14 -49 16v17h29q3 0 5 2t2 5t-2 5t-5 2h-72q-3 0 -5 -2t-2 -5t2 -5t5 -2h29v-18q-27 -1 -50 -16t-36.5 -39t-13.5 -52.5t14.5 -53t39 -39t53.5 -14.5t53.5 14.5t39 39t14.5 53.5q0 25 -10.5 47t-29.5 37z M128 19q-25 0 -46.5 12.5t-34 34t-12.5 46.5t12.5 46.5t34 34.5t46.5 13t46.5 -12.5t34 -34t12.5 -47t-12.5 -47t-34 -34t-46.5 -12.5zM135 113v49q0 3 -2 5t-5 2t-5 -2t-2 -5v-52q0 -2 2 -4l30 -31q2 -2 5 -2t5 2t2 5t-2 5z" />
</svg>