<svg viewBox="0 0 1024 1024" xmlns="http://www.w3.org/2000/svg">
  <path transform="scale(1, -1) translate(0, -960)" fill="currentColor" d="M765 718l80 95q5 5 4 12t-6 10q-5 4 -11 3.5t-11 -4.5l-82 -96q-45 30 -98.5 47t-110.5 18v93h126q7 0 11.5 4.5t4.5 11.5t-4.5 11.5t-11.5 4.5h-286q-8 0 -12 -4.5t-4 -11.5t4 -11.5t12 -4.5h126v-93q-83 -3 -157 -37q-73 -34 -127.5 -90t-85.5 -131q-32 -75 -32 -159 q0 -87 33 -163t89.5 -132.5t133.5 -89.5q76 -33 162 -33t162 33t133 89.5t90 132.5t33 163q0 51 -12 98q-12 48 -33.5 90.5t-52.5 78.5q-30 37 -67 65v0zM512 0q-80 0 -150 30q-70 31 -122.5 83t-82.5 123q-31 70 -31 150q0 79 31 150q30 70 82.5 122.5t122.5 82.5t150 30 t150 -30t122.5 -82.5t82.5 -122.5q31 -71 31 -150q0 -80 -31 -150q-30 -71 -82.5 -123t-122.5 -83q-70 -30 -150 -30zM528 384v200q0 7 -4.5 11.5t-11.5 4.5t-11.5 -4.5t-4.5 -11.5v-206q0 -4 1 -6.5t4 -5.5l121 -121q3 -3 6 -4t6 -1q2 0 5 1t6 4q5 5 5 11t-5 11l-117 117v0 z" />
</svg>