<svg viewBox="0 0 256 256" xmlns="http://www.w3.org/2000/svg">
  <path transform="scale(1, -1) translate(0, -256)" fill="currentColor" d="M128 171q-16 0 -29.5 -8t-21 -21t-7.5 -29t7.5 -29.5t21 -21.5t29.5 -8t29.5 8t21 21.5t7.5 29.5t-7.5 29t-21 21t-29.5 8zM128 68q-18 0 -31 13t-13 31.5t13 31.5t31 13t31 -13t13 -31.5t-13 -31.5t-31 -13zM132 110v15q0 3 -2 5t-4.5 2t-5 -2t-2.5 -5v-18q0 -3 2 -5 l11 -10q2 -2 5 -2t5 2t2 4.5t-2 5.5zM170 251h-84q-15 0 -27.5 -7.5t-20 -20t-7.5 -27.5v-136q0 -15 7.5 -27.5t20 -20t27.5 -7.5h84q15 0 28 7.5t20.5 20t7.5 27.5v136q-1 23 -17 39t-39 16zM211 60q0 -17 -12 -29t-29 -12h-84q-18 0 -30 12t-12 29v136q0 17 12.5 29 t29.5 12h84q17 0 29 -12t12 -29v-136z" />
</svg>