<svg viewBox="0 0 256 256" xmlns="http://www.w3.org/2000/svg">
  <path transform="scale(1, -1) translate(0, -256)" fill="currentColor" d="M135 208v29h25q3 0 5 2t2 5t-2 5t-5 2h-64q-3 0 -5 -2t-2 -5t2 -5t5 -2h25v-29q-26 -1 -48 -15t-34.5 -37t-12.5 -50t13.5 -50.5t37 -37t51.5 -13.5t51.5 13.5t37 37t13.5 50.5t-12.5 50t-34.5 37t-48 15zM128 19q-24 0 -44 12t-32 32t-12 44t12 44t32 32t44 12t44 -12 t32 -32t12 -44t-12 -44t-32 -32t-44 -12zM181 114h-46v46q0 3 -2 5t-5 2t-5 -2t-2 -5v-46h-14q-3 0 -5 -2t-2 -5t2 -5t5 -2h14v-14q0 -3 2 -5.5t5 -2.5t5 2.5t2 5.5v14h46q3 0 5 2t2 5t-2 5t-5 2z" />
</svg>