<svg viewBox="0 0 1024 1024" xmlns="http://www.w3.org/2000/svg">
  <path transform="scale(1, -1) translate(0, -960)" fill="currentColor" d="M528 506q44 0 82 16q39 17 67.5 45.5t45.5 67.5q16 38 16 82t-17 82q-16 39 -45 67.5t-67 44.5q-39 17 -82 17t-82 -17q-38 -16 -67 -44.5t-45 -67.5q-17 -38 -17 -82t16 -82q17 -39 45.5 -67.5t67.5 -45.5q38 -16 82 -16zM528 896q74 0 126.5 -52.5t52.5 -126.5 q0 -75 -52.5 -127t-126.5 -52t-126.5 52t-52.5 127q0 74 52.5 126.5t126.5 52.5zM546 645q2 -3 5 -4t6 -1q2 0 5.5 1t5.5 4q5 5 5 11t-5 11l-35 37v62q0 8 -4.5 12t-11.5 4t-11.5 -4t-4.5 -12v-68q0 -4 1 -6.5t4 -5.5l40 -41v0zM891 787h-38q-7 0 -11.5 -4.5t-4.5 -11.5 t4.5 -11.5t11.5 -4.5h38q22 0 37.5 -15.5t15.5 -37.5v-486q0 -22 -15.5 -37.5t-37.5 -15.5h-758q-22 0 -37.5 15.5t-15.5 37.5v486q0 22 15.5 37.5t37.5 15.5h62q7 0 11.5 4.5t4.5 11.5t-4.5 11.5t-11.5 4.5h-62q-35 0 -60 -25t-25 -60v-486q0 -35 25 -60t60 -25h288 q0 -8 -10.5 -53.5t-47.5 -80.5q-3 -4 -4 -8.5t1 -9.5t6 -8t8 -3h277q5 0 9 3t6 7t1 9t-5 8q-37 35 -47 80.5t-10 54.5h288q35 0 60 25t25 59v488q-2 35 -27 60t-60 25v0zM614 0h-204q30 43 37 85.5t7 45.5h117q0 -3 6.5 -45.5t36.5 -85.5z" />
</svg>