<svg viewBox="0 0 1024 1024" xmlns="http://www.w3.org/2000/svg">
  <path transform="scale(1, -1) translate(0, -960)" fill="currentColor" d="M512 608q-46 0 -87 -17q-40 -18 -70.5 -48t-47.5 -71q-17 -40 -17 -86q0 -47 17 -87q17 -41 47.5 -71t70.5 -47q41 -18 87 -18t87 18q40 17 70.5 47t47.5 71q17 40 17 87q0 46 -17 86q-17 41 -47.5 71t-70.5 48q-41 17 -87 17zM512 195q-79 0 -134.5 55.5t-55.5 135.5 q0 79 55.5 134.5t134.5 55.5t134.5 -55.5t55.5 -134.5q0 -78 -55.5 -134.5t-134.5 -56.5zM517 371v66q0 7 -4.5 11.5t-11.5 4.5t-11.5 -4.5t-4.5 -11.5v-72q0 -4 1 -6.5t4 -4.5l43 -44q2 -2 5.5 -3t5.5 -1t5.5 1t5.5 3q5 5 5 11.5t-5 11.5l-38 38v0zM680 928h-336 q-43 0 -81 -16q-38 -17 -66 -45t-45 -66q-16 -38 -16 -81v-544q0 -43 16 -81q17 -38 45 -66t66 -45q38 -16 81 -16h336q43 0 81 16q38 17 66 45t45 66q16 38 16 81v544q0 43 -16 81q-17 38 -45 66t-66 45q-38 16 -81 16zM856 176q0 -73 -51.5 -124.5t-124.5 -51.5h-336 q-73 0 -124.5 51.5t-51.5 124.5v544q0 73 51.5 124.5t124.5 51.5h336q73 0 124.5 -51.5t51.5 -124.5v-544z" />
</svg>