<svg viewBox="0 0 256 256" xmlns="http://www.w3.org/2000/svg">
  <path transform="scale(1, -1) translate(0, -256)" fill="currentColor" d="M132 140q15 0 28 7.5t20.5 20t7.5 27.5t-7.5 28t-20.5 20.5t-28 7.5t-28 -7.5t-20.5 -20.5t-7.5 -28t7.5 -27.5t20.5 -20t28 -7.5zM132 237q17 0 29.5 -12.5t12.5 -29.5t-12.5 -29t-29.5 -12t-29.5 12t-12.5 29.5t12.5 29.5t29.5 12zM134 175q2 -2 5 -2t5 2t2 5t-2 5 l-8 8v15q0 3 -2 5t-5 2t-5 -2t-2 -5v-18q0 -2 2 -4zM223 216h-10q-3 0 -5 -2.5t-2 -5.5t2 -5t5 -2h10q4 0 7 -3t3 -7v-122q0 -4 -3 -7t-7 -3h-190q-4 0 -7 3t-3 7v123q0 4 3 7t7 3h16q3 0 5 2t2 5t-2 5t-5 2h-16q-10 0 -17 -7t-7 -17v-122q0 -10 7 -17t17 -7h69 q-2 -18 -13 -28q-2 -2 -2.5 -4t0.5 -4q2 -4 7 -4h69q2 0 4 1t2 3q2 5 -1 8q-6 5 -10 15q-3 6 -4 13h69q10 0 17.5 7t7.5 17v122q-1 10 -8 17t-17 7zM148 19h-40q5 10 8 26v1h24q1 -14 8 -27z" />
</svg>