<svg viewBox="0 0 256 256" xmlns="http://www.w3.org/2000/svg">
  <path transform="scale(1, -1) translate(0, -256)" fill="currentColor" d="M197 120q-14 0 -26.5 -7.5t-19.5 -19.5t-7 -27t7 -27t19.5 -19.5t27 -7.5t26.5 7.5t19.5 19.5t7.5 27t-7.5 27t-19.5 19.5t-27 7.5zM197 26q-16 0 -27.5 12t-11.5 28.5t11.5 28t28 11.5t28 -11.5t11.5 -28.5t-11.5 -28.5t-28.5 -11.5zM202 64v14q0 3 -2 5t-5 2t-5 -2.5 t-2 -4.5v-17q0 -3 2 -5l10 -9q2 -2 4.5 -2t4.5 2t2 5t-2 5zM111 66h-80q-5 0 -8.5 3.5t-3.5 8.5v140q0 5 3.5 8.5t8.5 3.5h59l21 -22q2 -2 5 -2h98q5 0 8.5 -4t3.5 -8v-46q0 -3 2.5 -5.5t5 -2.5t4.5 2.5t2 5.5v46q0 10 -7.5 18t-18.5 8h-95l-21 22q-2 2 -6 2h-61 q-11 0 -18.5 -8t-7.5 -18v-140q0 -11 7.5 -18.5t18.5 -7.5h80q3 0 5 2t2 5t-2 5t-5 2z" />
</svg>