<svg viewBox="0 0 1024 1024" xmlns="http://www.w3.org/2000/svg">
  <path transform="scale(1, -1) translate(0, -960)" fill="currentColor" d="M947 226q-13 43 -51 65t-80 10q-55 -17 -121 -36t-109 -31q15 24 16 42t-4 30q-9 22 -31 32.5t-44 10.5h-165q-14 0 -27.5 6t-26.5 18q-11 9 -24.5 15t-28.5 6h-133q-36 0 -61 -26.5t-25 -65.5v-209q0 -39 26 -66t62 -27h158q15 0 29.5 5.5t26.5 15.5l12 -7 q32 -18 68.5 -27t73.5 -9q23 0 45.5 3t42.5 9l296 92q58 21 71.5 63t3.5 81v0v0zM120 34q-23 0 -39.5 17.5t-16.5 42.5v210q0 24 16 41.5t38 17.5h133q9 0 17 -3.5t14 -9.5q6 -4 11 -9t11 -8h-2v-295l-12 -4t-12 -2h-158v2zM864 114l-296 -90q-18 -6 -38 -8.5t-40 -2.5 q-34 0 -66 8.5t-62 24.5l-23 12l-5 1v261l12 -2t11 -1h163q13 0 27.5 -6t18.5 -18q6 -13 -5 -33.5t-35 -43.5l-8 -8l7 -11q5 -10 25 -6t135 38q53 15 96 28l43 13q29 9 55.5 -7t35.5 -47q5 -17 1.5 -50.5t-52.5 -51.5zM765 464q47 0 88 18q41 17 72 48t49 72q18 42 18 89 t-18 88t-49 71.5t-72 48.5t-88 18t-88 -18t-71.5 -48.5t-48.5 -71.5t-18 -88t18 -89q18 -41 48.5 -72t71.5 -48q41 -18 88 -18zM765 885q40 0 76 -16q35 -15 61.5 -41.5t42.5 -62.5q15 -35 15 -75q0 -41 -15 -76q-16 -35 -42.5 -61.5t-61.5 -41.5q-36 -15 -76 -15t-76 15 q-35 16 -62 42.5t-42 61.5q-15 36 -15 76t16 76q15 35 41.5 61t61.5 42q36 15 76 15zM787 614q3 -2 6 -3t5 -1q3 0 6 1t6 3q4 5 4 11.5t-4 11.5l-39 38v67q0 8 -4.5 12t-11.5 4t-11.5 -4t-4.5 -12v-73q0 -4 1.5 -6.5t3.5 -4.5l43 -44v0z" />
</svg>