<svg viewBox="0 0 1024 1024" xmlns="http://www.w3.org/2000/svg">
  <path transform="scale(1, -1) translate(0, -960)" fill="currentColor" d="M914 837h-804q-32 0 -55 -23t-23 -56v-462q0 -32 23 -55t55 -23h248l140 -154q2 -2 5 -3.5t6 -1.5v0v0q3 0 6 1.5t5 3.5l142 154h250q32 0 55 23t23 55v462q2 33 -21 56t-55 23zM960 296q0 -19 -13.5 -32.5t-32.5 -13.5h-258q-4 0 -6.5 -1.5t-4.5 -3.5l-135 -146 l-131 146q-2 2 -5.5 3.5t-5.5 1.5h-256q-19 0 -32.5 13.5t-13.5 32.5v462q-2 20 11.5 33.5t32.5 13.5h804q19 0 32.5 -13.5t13.5 -33.5v-462zM512 704q-40 0 -75 -15q-36 -15 -62 -41.5t-41 -61.5q-16 -35 -16 -76q0 -40 16 -75q15 -35 41 -61.5t62 -41.5q35 -15 75 -15 t75 15q36 15 62 41.5t41 61.5q16 35 16 75q0 41 -16 76q-15 35 -41 61.5t-62 41.5q-35 15 -75 15zM512 350q-67 0 -114.5 47.5t-47.5 114.5t47.5 113.5t114.5 46.5t114.5 -47t47.5 -113t-47.5 -114t-114.5 -48zM518 499v56q0 7 -4 11.5t-12 4.5q-7 0 -11.5 -4.5t-4.5 -11.5 v-62q0 -4 1.5 -6.5t3.5 -4.5l37 -37q2 -3 5.5 -4t5.5 -1q4 0 6.5 1t4.5 4q5 5 5 11t-5 11l-32 32v0z" />
</svg>