<svg viewBox="0 0 1024 1024" xmlns="http://www.w3.org/2000/svg">
  <path transform="scale(1, -1) translate(0, -960)" fill="currentColor" d="M392 685l-114 30q-31 9 -59 -7t-37 -47l-83 -312q-14 -70 17 -108.5t65 -53.5l-34 -121l-96 25q-6 3 -11.5 -0.5t-7.5 -10.5q-1 -6 2 -12t9 -7l112 -29v0v0v0v0l115 -30h3h2q5 0 9.5 3t6.5 8q1 6 -2 12t-9 7l-99 27l33 122q6 -1 11.5 -1.5t11.5 -0.5q77 0 103 50t26 51 l84 312q6 30 -10.5 57t-47.5 36v0zM416 598l-83 -312q-1 -2 -26 -45.5t-102 -27.5q-7 2 -47.5 28.5t-26.5 99.5l83 312q3 8 8.5 15.5t12.5 11.5q5 4 11 5t12 1h5t6 -1l113 -31q20 -4 29.5 -21t4.5 -35v0zM992 80q-1 6 -7 10t-12 1l-96 -25l-34 121q34 15 65 53.5t17 108.5 l-83 312q-4 15 -13.5 27t-23.5 21q-15 8 -29.5 9.5t-29.5 -1.5l-114 -31q-16 -3 -28 -12.5t-20 -23.5t-10 -29t2 -31l83 -310q0 -1 26.5 -51t103.5 -50q5 0 10.5 0.5t11.5 1.5l34 -122l-99 -27q-6 -1 -9.5 -7t-2.5 -12q2 -5 6 -8t10 -3h3h2l115 30v0v0v0v0l111 30q6 2 9 7 t2 11v0zM691 286l-83 312q-2 9 -1 18t6 18q5 8 12 13t15 7l114 31q8 2 17 1t18 -6q8 -5 13 -12t8 -15l83 -311q14 -74 -26.5 -100.5t-47.5 -28.5q-77 -15 -102 28t-26 45zM406 752q3 -2 6.5 -4t6.5 -2t6 1t4 2q5 5 5.5 11t-4.5 11l-57 69q-5 5 -11.5 5.5t-11.5 -3.5 q-4 -5 -5 -11.5t4 -11.5l57 -67v0zM514 896q-8 0 -12 -4.5t-4 -11.5v-90q0 -7 4 -11.5t12 -4.5q7 0 11.5 4.5t4.5 11.5v90q0 7 -4.5 11.5t-11.5 4.5zM610 747q3 0 6.5 1.5t5.5 5.5l58 68q5 5 4 12t-6 11q-4 3 -11 2t-11 -5l-58 -69q-4 -5 -3.5 -12t5.5 -11q2 -2 4.5 -2.5 t5.5 -0.5z" />
</svg>