<svg viewBox="0 0 256 256" xmlns="http://www.w3.org/2000/svg">
  <path transform="scale(1, -1) translate(0, -256)" fill="currentColor" d="M99 190l-29 8q-9 2 -17 -2.5t-10 -13.5l-21 -78q-3 -16 4 -28q5 -10 16 -15l-7 -25l-21 6q-3 1 -5.5 -0.5t-3 -4t1 -5.5t3.5 -3l59 -16q2 0 4 1.5t2.5 4t-0.5 5t-4 3.5l-22 6l7 25h3q15 0 25 10q8 8 10 18l21 78q2 8 -2.5 16t-13.5 10zM101 166l-21 -78v0q-2 -7 -6 -11 q-8 -8 -22 -5q-6 1 -11 7q-8 8 -5 22l20 77q1 4 4.5 6t6.5 0l28 -7q4 -1 5.5 -4t0.5 -7zM251 37q-1 3 -3.5 4t-5.5 1l-21 -6l-7 25q11 5 16 14q7 12 4 28l-20 79q-3 9 -11 13t-17 3l-28 -8q-10 -3 -14 -10.5t-2 -17.5l20 -77q3 -10 11 -18q10 -10 25 -10h3l7 -25l-22 -6 q-3 -1 -4.5 -3.5t-1 -5t2.5 -4t5 -1.5l58 16q3 1 4 3.5t1 5.5zM176 88l-21 78q-1 4 0.5 7t5.5 4l31 8q2 0 4.5 -1.5t3.5 -5.5l21 -77q2 -14 -5 -22q-5 -5 -11 -7q-14 -3 -22 5q-5 4 -7 11v0zM99 202q2 -2 5 -2t5 1.5t2 4.5t-1 5l-15 17q-2 3 -4.5 3t-5 -2t-2.5 -4.5t1 -5.5z M128 243q-3 0 -5 -2t-2 -5v-23q0 -3 2 -5t5 -2t5 2t2 5v23q0 3 -2 5t-5 2zM152 200q4 0 6 2l14 17q2 2 1.5 5t-2.5 5t-5 2t-5 -3l-14 -17q-2 -2 -2 -5t3 -4.5t4 -1.5z" />
</svg>