<svg viewBox="0 0 256 256" xmlns="http://www.w3.org/2000/svg">
  <path transform="scale(1, -1) translate(0, -256)" fill="currentColor" d="M181 142h-47v27l6 -1q12 0 22.5 5t19.5 14q13 12 17 27.5t-1 29.5l-1 4l-3 1q-14 5 -29.5 0.5t-28 -16.5t-17 -27.5t0.5 -28.5v-35h-45q-10 0 -17 -7t-7 -16v-22q0 -8 5.5 -14.5t13.5 -8.5l4 -46q1 -10 8 -16t16 -6h60q10 0 16.5 6t7.5 16l4 46q8 2 13.5 8.5t5.5 14.5v22 q0 9 -7 16t-17 7zM146 223q9 8 19.5 12t20.5 1q2 -9 -1.5 -20t-12 -19.5t-19.5 -12t-20 -1.5q-2 10 1.5 20.5t11.5 19.5zM158 19h-60q-4 0 -6.5 2.5t-3.5 6.5l-3 45h87l-4 -45q0 -4 -3 -6.5t-7 -2.5zM191 96q0 -3 -3 -6t-7 -3h-106q-4 0 -7 2.5t-3 6.5v22q0 4 3 7t7 3h106 q4 0 6.5 -3t2.5 -7v-22h1z" />
</svg>