<svg viewBox="0 0 1024 1024" xmlns="http://www.w3.org/2000/svg">
  <path transform="scale(1, -1) translate(0, -960)" fill="currentColor" d="M725 491h-200v133q8 -2 17.5 -2.5t19.5 -0.5q42 0 83.5 18.5t76.5 51.5q46 47 63 106t-3 112l-3 6l-6 3q-53 20 -112 3t-106 -63q-45 -46 -62 -104.5t0 -110.5v-152h-194q-35 0 -59 -24t-24 -59v-86q0 -33 22 -56.5t53 -27.5l16 -195q3 -32 27 -54.5t56 -22.5h242 q32 0 56.5 22.5t26.5 54.5l16 195q31 3 53 26.5t22 57.5v86q0 35 -24 59t-57 24v0zM578 835q37 37 85.5 52.5t90.5 3.5q12 -42 -3 -90.5t-53 -85.5q-39 -37 -86.5 -52.5t-89.5 -3.5q-12 42 3 90t53 86zM683 46q-1 -19 -16 -32.5t-35 -13.5h-240q-20 0 -35 13.5t-16 32.5 l-16 192h374zM774 322q0 -22 -14.5 -37t-36.5 -15h-424q-21 0 -36 15t-15 37v86q0 22 15 36.5t36 14.5h424q22 0 36.5 -14.5t14.5 -36.5v-86z" />
</svg>