<svg viewBox="0 0 256 256" xmlns="http://www.w3.org/2000/svg">
  <path transform="scale(1, -1) translate(0, -256)" fill="currentColor" d="M96 142h-84q-3 0 -5.5 -3t-1.5 -6l43 -105q1 -4 6 -4q2 0 4 1t2 3l43 105q1 4 -0.5 6.5t-6.5 2.5zM54 49l-32 79h64zM250 31l-42 105q-1 4 -6 4q-2 0 -4 -1t-2 -3l-43 -105q-2 -4 0.5 -7t6.5 -3h84q3 0 5.5 3t0.5 7zM170 35l32 79l32 -79h-64zM54 165q15 0 25.5 10 t10.5 25t-10.5 25t-25 10t-25 -10.5t-10.5 -24.5t10.5 -24.5t24.5 -10.5zM54 221q9 0 15.5 -6.5t6.5 -15t-6.5 -15t-15 -6.5t-15 6.5t-6.5 15.5t6.5 15t14.5 6zM202 160q14 0 24.5 10t10.5 25t-10.5 25t-25 10t-25 -10.5t-10.5 -25t10.5 -24.5t25.5 -10zM202 216 q8 0 14.5 -6.5t6.5 -15t-6.5 -15t-15 -6.5t-15 6.5t-6 15t6.5 15t15 6.5z" />
</svg>