<svg viewBox="0 0 256 256" xmlns="http://www.w3.org/2000/svg">
  <path transform="scale(1, -1) translate(0, -256)" fill="currentColor" d="M208 175q-14 10 -33 15q-15 4 -36 5l31 31q2 2 2 5t-2 5.5t-5 2.5t-5 -3l-25 -25v33q0 3 -2 5t-5 2t-5.5 -2t-2.5 -5v-33l-24 25q-2 2 -5 2.5t-5 -2t-2 -5t2 -5.5l31 -30q-14 -1 -29 -4q-21 -4 -36 -14.5t-24 -26t-10 -32.5v-4q0 -28 12.5 -51.5t35.5 -39.5 q18 -13 42 -18q11 -2 20 -2q22 0 42 8.5t35.5 24t24 35.5t8.5 42q0 18 -8 34t-22 27zM196 47q-17 -17 -39.5 -23.5t-46.5 -2.5q-20 3 -36 15q-20 14 -31 34.5t-11 44.5v3q1 14 8.5 27t20 21.5t30.5 12t39.5 3t35.5 -3.5q20 -4 32.5 -13.5t19 -22.5t6.5 -27q0 -19 -7.5 -36.5 t-20.5 -31.5z" />
</svg>