<svg viewBox="0 0 1024 1024" xmlns="http://www.w3.org/2000/svg">
  <path transform="scale(1, -1) translate(0, -960)" fill="currentColor" d="M824 626q-64 49 -141 63.5t-155 16.5l144 144q5 4 5 10.5t-5 11.5t-11.5 5t-10.5 -5l-122 -120v160q0 7 -4.5 11.5t-11.5 4.5t-11.5 -4.5t-4.5 -11.5v-160l-122 122q-4 4 -10.5 4t-11.5 -4q-5 -5 -5 -11.5t5 -11.5l144 -144q-38 0 -73 -3.5t-68 -9.5q-39 -8 -73.5 -22 t-62.5 -34q-59 -39 -94 -100t-39 -128v-7.5v-7.5q0 -53 13 -103q12 -51 35.5 -96t58.5 -84t79 -70q36 -26 78 -43t85 -25q21 -3 40 -4.5t39 -1.5q42 0 83 8t79.5 24t73.5 39t66 54q30 30 53 65t39 73.5t25 79.5q8 42 8 84q-1 69 -31.5 129t-85.5 102v0zM792 115 q-35 -35 -76 -59q-41 -25 -86 -39t-93 -17t-97 6q-41 8 -79 23.5t-71 39.5q-42 29 -74 65t-54 77.5t-34 88.5q-11 46 -11 95v6.5v6.5q3 60 34 113.5t84 89.5q25 18 57 30.5t68 20.5q35 8 73.5 11t83.5 2q77 -1 152 -14.5t134 -58.5q49 -38 76 -91.5t27 -113.5 q1 -81 -29 -153t-85 -129v0z" />
</svg>