<svg viewBox="0 0 256 256" xmlns="http://www.w3.org/2000/svg">
  <path transform="scale(1, -1) translate(0, -256)" fill="currentColor" d="M151 176h-16v14q0 3 -2 5t-5 2t-5 -2t-2 -5v-14h-16q-3 0 -5 -2.5t-2 -5.5t2 -5t5 -2h16v-39q0 -3 2 -5t5 -2t5 2t2 5v39h16q3 0 5 2t2 5t-2 5.5t-5 2.5zM223 19h-15v193q0 16 -11.5 27.5t-27.5 11.5h-82q-16 0 -27.5 -11.5t-11.5 -27.5v-193h-15q-3 0 -5 -2t-2 -5 t2 -5.5t5 -2.5h191q3 0 5 2.5t2 5.5t-2.5 5t-5.5 2zM62 212q0 10 7.5 17.5t17.5 7.5h82q10 0 17.5 -7.5t7.5 -17.5v-193h-132v193z" />
</svg>