<svg viewBox="0 0 1024 1024" xmlns="http://www.w3.org/2000/svg">
  <path transform="scale(1, -1) translate(0, -960)" fill="currentColor" d="M893 0h-74v784q0 60 -42 102t-102 42h-326q-60 0 -102 -42t-42 -102v-784h-74q-7 0 -11.5 -4.5t-4.5 -11.5t4.5 -11.5t11.5 -4.5h763q8 0 12 4.5t4 11.5t-5 11.5t-12 4.5zM237 784q0 47 32.5 79.5t79.5 32.5h326q47 0 79.5 -32.5t32.5 -79.5v-784h-550v784v0zM621 510 l37 63q2 3 2 7.5t-2 8.5q-3 3 -6.5 5.5t-8.5 2.5h-73l-45 75q-3 4 -6.5 6t-8.5 2v0v0q-4 0 -8 -2t-6 -6l-43 -75h-74q-5 0 -8.5 -2.5t-5.5 -5.5q-3 -4 -3 -8.5t3 -7.5l37 -63l-37 -62q-3 -4 -3 -8t3 -8q2 -4 5.5 -6t8.5 -2h74l45 -75q2 -4 5.5 -6t8.5 -2v0v0q5 0 8.5 2 t5.5 6l44 75h73q5 0 8.5 2t6.5 6q2 4 2 8t-2 8l-37 62v0zM616 565l-13 -23l-13 23h26v0zM584 510l-32 -54h-78l-32 54l32 55h78zM512 632l21 -35h-42l21 35v0zM408 565h26l-13 -23zM408 458l13 22l13 -22h-26zM512 390l-21 36h42l-21 -36v0zM589 458l13 22l12 -22h-25v0z " />
</svg>