<svg viewBox="0 0 256 256" xmlns="http://www.w3.org/2000/svg">
  <path transform="scale(1, -1) translate(0, -256)" fill="currentColor" d="M223 19h-15v193q0 16 -11.5 27.5t-27.5 11.5h-82q-16 0 -27.5 -11.5t-11.5 -27.5v-193h-15q-3 0 -5 -2t-2 -5t2 -5.5t5 -2.5h191q3 0 5 2.5t2 5.5t-2.5 5t-5.5 2zM62 212q0 10 7.5 17.5t17.5 7.5h82q10 0 17.5 -7.5t7.5 -17.5v-193h-132v193zM167 165q-2 3 -6 3h-17 l-10 18q-3 3 -7 3t-5 -3l-10 -18h-17q-4 0 -6 -3.5t0 -6.5l9 -14l-9 -14q-2 -4 0 -7.5t6 -3.5h17l10 -17q3 -4 7 -4t5 4l10 17h17q4 0 6 3.5t0 7.5l-9 14l9 14q2 4 0 7zM136 133h-16l-6 11l6 10h16l6 -10z" />
</svg>