<svg viewBox="0 0 1024 1024" xmlns="http://www.w3.org/2000/svg">
  <path transform="scale(1, -1) translate(0, -960)" fill="currentColor" d="M605 627h-77v69q0 7 -4.5 11.5t-11.5 4.5t-11.5 -4.5t-4.5 -11.5v-69h-77q-7 0 -11.5 -4.5t-4.5 -11.5t4.5 -11.5t11.5 -4.5h77v-168q0 -7 4.5 -11.5t11.5 -4.5t11.5 4.5t4.5 11.5v168h77q7 0 11.5 4.5t4.5 11.5t-5 11.5t-11 4.5zM893 0h-74v784q0 60 -42 102t-102 42 h-326q-60 0 -102 -42t-42 -102v-784h-74q-7 0 -11.5 -4.5t-4.5 -11.5t4.5 -11.5t11.5 -4.5h763q8 0 12 4.5t4 11.5t-5 11.5t-12 4.5zM237 784q0 47 32.5 79.5t79.5 32.5h326q47 0 79.5 -32.5t32.5 -79.5v-784h-550v784v0z" />
</svg>