<svg viewBox="0 0 256 256" xmlns="http://www.w3.org/2000/svg">
  <path transform="scale(1, -1) translate(0, -256)" fill="currentColor" d="M144 105h-12v60h5q3 0 5 1.5t2 4.5l5 34q0 3 -2 5.5t-5 2.5h-34q-3 0 -5 -2.5t-2 -5.5l5 -34q0 -3 2 -4.5t5 -1.5h5v-60h-12q-3 0 -5.5 -2t-2.5 -5v-29q0 -11 8 -19t19 -8t18.5 8t7.5 19v29q0 3 -2 5t-5 2zM134 199l-3 -20h-12l-3 20h18zM138 69q0 -5 -4 -9t-9 -4t-8.5 4 t-3.5 9v22h5v-3q0 -3 2.5 -5t5.5 -2t5 2t2 5v3h5v-22zM71 209q-4 5 -9 5h-36q-9 0 -15 -6.5t-6 -15.5v-9q0 -9 6 -15t15 -6h7v-108q0 -3 2 -5t5 -2t5 2t2 5v108h15q6 0 9 5l10 14q3 3 3 7t-3 7zM60 176h-34q-3 0 -5 2t-2 5v10q0 3 2 5t5 2h34l9 -12zM249 89l-11 19v43l11 20 q4 8 0 16l-13 21q-1 3 -4 3.5t-5.5 -1t-3 -4t0.5 -5.5l13 -21v-2l-13 -22v-3v-47v-3l13 -21v-3l-10 -16q0 -1 -2 -1h-19q-1 0 -2 1l-10 16v3l13 21q1 1 1 3v47l-1 4l-13 21v2l13 22q1 2 0.5 5t-3 4.5t-5.5 0.5t-4 -3l-13 -21q-4 -9 0 -17l12 -19v-43l-12 -20q-4 -8 0 -16 l10 -17q2 -3 6 -5.5t8 -2.5h20q9 0 14 8l10 17q3 8 -1 16z" />
</svg>