<svg viewBox="0 0 1024 1024" xmlns="http://www.w3.org/2000/svg">
  <path transform="scale(1, -1) translate(0, -960)" fill="currentColor" d="M880 717h-184v69q0 42 -29.5 71t-71.5 29h-168q-42 0 -71.5 -29t-29.5 -71v-69h-182q-47 0 -79.5 -32.5t-32.5 -79.5v-157q0 -7 4.5 -11.5t11.5 -4.5h26v-315q0 -45 31 -76t76 -31h662q45 0 76 31t31 76v315h26q7 0 11.5 4.5t4.5 11.5v157q0 47 -32.5 79.5t-79.5 32.5v0z M360 786q0 28 20 48t49 20h168q29 0 49 -20t20 -48v-69h-306v69v0zM918 117q0 -31 -22 -53t-53 -22h-662q-31 0 -53 22t-22 53v315h220v-110q0 -8 4.5 -12t11.5 -4q8 0 12 4t4 12v110h306v-110q0 -8 4.5 -12t11.5 -4t11.5 4t4.5 12v110h221v-315h1zM960 464h-896v141 q0 33 23 56.5t57 23.5h736q34 0 57 -23.5t23 -56.5v-141z" />
</svg>