<svg viewBox="0 0 1024 1024" xmlns="http://www.w3.org/2000/svg">
  <path transform="scale(1, -1) translate(0, -960)" fill="currentColor" d="M578 342h-63v266h34q6 0 10.5 4t5.5 10l19 136q0 4 -0.5 7.5t-2.5 5.5q-3 3 -6 4t-7 1h-136q-4 0 -7 -1t-6 -4q-2 -2 -3 -5.5t0 -7.5l19 -136q1 -6 5.5 -10t10.5 -4h34v-264h-63q-7 0 -11.5 -4.5t-4.5 -11.5v-115q0 -39 27.5 -67t67.5 -28q38 0 66 27.5t28 67.5v115 q-1 6 -5.5 10t-11.5 4v0zM450 744h99l-13 -104h-72l-14 104v0zM562 211q0 -25 -18 -43.5t-45 -18.5q-26 0 -44 18t-18 44v99h46v-20q0 -8 4.5 -12t11.5 -4t11.5 4t4.5 12v20h47v-99zM274 765q-5 6 -12.5 10t-15.5 4h-142q-30 0 -51 -21t-21 -51v-38q0 -30 21 -51t51 -21h40 v-1v-1v-438q0 -7 4.5 -11.5t11.5 -4.5t11.5 4.5t4.5 11.5v437v1v0h70q9 0 16 3.5t12 11.5l41 56q7 9 7 20.5t-7 20.5zM290 685l-42 -56l-1 -1l-1 -1h-142q-17 0 -28.5 11.5t-11.5 28.5v39q0 16 11.5 28t28.5 12h141q1 0 1 -0.5v-1.5l42 -56q2 0 2.5 -1t-0.5 -2v0zM938 366 v178l46 82q7 12 7 26.5t-7 27.5l-50 85q-3 6 -9.5 7.5t-12.5 -1.5t-7.5 -9.5t1.5 -12.5l49 -85q3 -5 3 -10.5t-3 -11.5l-49 -85q-2 -3 -2 -4.5v-3.5v-186v-3.5t2 -4.5l49 -85q3 -4 3 -10t-3 -12l-38 -66q-3 -4 -8 -7.5t-11 -3.5h-77q-6 0 -11 3.5t-8 7.5l-39 66 q-2 5 -2 10.5t2 11.5l50 85q1 3 1 4.5v3.5v186v3.5t-1 4.5l-50 85q-2 4 -2 10t2 12l50 85q3 6 1 12.5t-8 9.5q-6 4 -12 2t-10 -8l-50 -85q-7 -12 -7 -26.5t7 -27.5l47 -82v-178l-47 -81q-7 -12 -7 -26.5t7 -28.5l39 -65q7 -12 19.5 -19.5t26.5 -7.5h77q14 0 26.5 7t19.5 20 l39 65q7 12 7 27t-7 28l-43 81v0z" />
</svg>