<svg viewBox="0 0 256 256" xmlns="http://www.w3.org/2000/svg">
  <path transform="scale(1, -1) translate(0, -256)" fill="currentColor" d="M220 198h-43v14q0 12 -8 20t-20 8h-42q-12 0 -20 -8t-8 -20v-14h-43q-13 0 -22 -9t-9 -22v-39q0 -3 2 -5t5 -2h4v-76q0 -12 8.5 -21t20.5 -9h166q12 0 20.5 8.5t8.5 21.5v76h4q3 0 5 2t2 5v39q0 13 -9 22t-22 9zM93 212q0 6 4 10t10 4h42q6 0 10 -4t4 -10v-14h-70v14z M19 167q0 7 5 12t12 5h184q7 0 12.5 -5t5.5 -12v-32h-219v32zM226 45q0 -6 -4.5 -10.5t-10.5 -4.5h-166q-6 0 -10.5 4.5t-4.5 10.5v76h49v-25q0 -3 2 -5t5 -2t5 2t2 5v25h71v-25q0 -3 2 -5t5 -2t5 2t2 5v25h49v-76h-1z" />
</svg>