<svg viewBox="0 0 256 256" xmlns="http://www.w3.org/2000/svg">
  <path transform="scale(1, -1) translate(0, -256)" fill="currentColor" d="M66 5q-6 0 -11 8t-9 23q-8 33 -8 74q0 8 -3 19q-2 6 -7 20v0q-9 25 -10 39q-3 23 8 40q8 12 16 17.5t17 5.5q6 0 14 -2l17 -6q11 -4 17 -5q11 -3 20 -3t20 3l18 6q20 6 29 6t16 -4q9 -5 19 -19q11 -16 9 -39q-1 -14 -10 -40l-7 -21q-2 -10 -2 -17q0 -43 -8 -73 q-4 -16 -9 -24t-11 -8q-11 0 -17 12q-4 9 -10 33q-5 27 -12 38q-8 15 -24.5 15t-26.5 -16q-7 -12 -13 -41q-6 -22 -9 -30q-6 -11 -13 -11zM128 117q17 0 28 -11q9 -9 15 -25q3 -10 7 -28v0q7 -30 12 -33q4 5 8 20q7 30 7 70q0 8 3 19l6 21l1 2q8 25 10 36q2 19 -6.5 30.5 t-15.5 15.5q-4 2 -8 2q-8 0 -24 -6h-1q-12 -4 -20 -6q-11 -3 -22 -3t-23 3q-7 2 -20 7l-3 1q-16 5 -21.5 5t-8.5 -2q-7 -4 -14 -15q-8 -13 -6 -31q2 -11 10 -35v0q5 -15 7 -22q3 -12 3 -21q0 -41 8 -71q2 -10 6 -18q3 7 8 25l1 4q4 19 8 29q7 17 16 26q12 11 29 11z" />
</svg>