<svg viewBox="0 0 1024 1024" xmlns="http://www.w3.org/2000/svg">
  <path transform="scale(1, -1) translate(0, -960)" fill="currentColor" d="M262 -32q-13 0 -31.5 26t-35.5 91q-15 59 -23.5 135.5t-8.5 157.5q0 36 -11 75t-26 81q-27 78 -42.5 156.5t31.5 149.5q37 59 67.5 73.5t55.5 14.5q26 0 54 -8t58 -19q36 -12 76 -23.5t83 -11.5t82.5 11t74.5 24q30 11 58 19t54 8q25 0 56.5 -14.5t72.5 -73.5 q24 -34 31 -71q7 -38 2.5 -76.5t-16.5 -78.5t-25 -80v-1q-14 -42 -24.5 -81.5t-10.5 -73.5q0 -82 -8 -158t-22 -132q-15 -55 -33.5 -86.5t-37.5 -31.5q-37 0 -55 39.5t-38 129.5q-15 75 -45 149t-113 74q-42 0 -70 -23q-29 -22 -48.5 -56.5t-31.5 -76.5q-13 -42 -23 -81 q-17 -69 -33.5 -113t-43.5 -44zM238 896q-18 0 -42 -12t-54 -60q-40 -62 -25 -134t40 -144q15 -45 26.5 -86.5t11.5 -81.5q0 -78 8.5 -153t23.5 -132q12 -46 23 -65.5t16 -25.5q10 12 23.5 59.5t19.5 71.5q9 39 23 84q14 46 36.5 85t57.5 65q34 27 86 27q51 0 84 -25 t53.5 -62t32.5 -81q11 -43 19 -80q19 -88 32 -115.5t27 -28.5q4 2 15.5 20t26.5 72q13 56 20.5 129.5t7.5 152.5q0 38 11.5 79t27.5 84v2q24 73 38.5 146t-27.5 132q-34 49 -59.5 61.5t-44.5 12.5q-22 0 -47.5 -8t-53.5 -18h-1q-38 -13 -79 -25t-89 -12t-90.5 12t-79.5 25 q-25 12 -50.5 20.5t-47.5 8.5v0z" />
</svg>