<svg viewBox="0 0 256 256" xmlns="http://www.w3.org/2000/svg">
  <path transform="scale(1, -1) translate(0, -256)" fill="currentColor" d="M94 172l48 1q3 0 4.5 2t1.5 5t-2 5t-5 2l-55 -1q-6 -1 -10.5 -5.5t-5.5 -10.5l-2 -55q0 -3 2 -5t5 -2h1q2 0 4 1.5t2 4.5l2 48l86 -86q2 -2 4.5 -2t4.5 2t2 5t-2 5zM228 251h-200q-10 0 -16.5 -6.5t-6.5 -16.5v-200q0 -10 7 -16.5t16 -6.5h200q10 0 17 6.5t7 16.5v200 q-1 10 -7.5 16.5t-16.5 6.5zM237 28q0 -4 -2.5 -6.5t-6.5 -2.5h-200q-4 0 -6.5 2.5t-2.5 6.5v200q0 4 2.5 6.5t6.5 2.5h200q4 0 6.5 -2.5t2.5 -6.5v-200z" />
</svg>