<svg viewBox="0 0 1024 1024" xmlns="http://www.w3.org/2000/svg">
  <path transform="scale(1, -1) translate(0, -960)" fill="currentColor" d="M674 667l-216 5q-8 0 -12 -4.5t-4 -11.5t4 -11.5t12 -4.5l214 -5h1h1l-362 -366q-5 -5 -5 -11.5t5 -11.5q2 -2 5 -3t6 -1q4 0 6.5 1t4.5 3l362 367v-0.5v-1.5l8 -217q0 -6 5 -11t11 -5v0v0q7 0 11.5 5t4.5 11l-8 219q-1 21 -17 36.5t-37 17.5v0zM912 928h-800 q-34 0 -57 -23t-23 -57v-800q0 -34 23 -57t57 -23h800q34 0 57 23t23 57v800q0 34 -23 57t-57 23zM960 48q0 -20 -14 -34t-34 -14h-800q-20 0 -34 14t-14 34v800q0 20 14 34t34 14h800q20 0 34 -14t14 -34v-800z" />
</svg>