<svg viewBox="0 0 1024 1024" xmlns="http://www.w3.org/2000/svg">
  <path transform="scale(1, -1) translate(0, -960)" fill="currentColor" d="M350 635v0v0l216 5q8 0 12 5t4 11t-5 11t-11 5v0v0l-217 -5q-21 -2 -36 -17.5t-17 -36.5l-8 -218q0 -7 4.5 -11.5t11.5 -4.5v0v0q6 0 11 4.5t5 11.5l8 216v1v1l360 -367q2 -2 5.5 -3t5.5 -1q4 0 6.5 1t4.5 3q5 5 5 11.5t-5 11.5l-360 366v0zM912 928h-800q-34 0 -57 -23 t-23 -57v-800q0 -34 23 -57t57 -23h800q34 0 57 23t23 57v800q0 34 -23 57t-57 23zM960 48q0 -20 -14 -34t-34 -14h-800q-20 0 -34 14t-14 34v800q0 20 14 34t34 14h800q20 0 34 -14t14 -34v-800z" />
</svg>