<svg viewBox="0 0 1024 1024" xmlns="http://www.w3.org/2000/svg">
  <path transform="scale(1, -1) translate(0, -960)" fill="currentColor" d="M549 718q-17 14 -38.5 14t-38.5 -14l-157 -148q-5 -5 -5 -11.5t5 -11.5q3 -2 6 -3.5t5 -1.5q3 0 6 1.5t6 3.5l155 149q1 1 2.5 1.5t3.5 1.5v-1.5v-1.5v-514q0 -7 4.5 -11.5t11.5 -4.5t11.5 4.5t4.5 11.5v512l157 -145q5 -5 11.5 -5t10.5 6q5 5 5 11.5t-6 11.5l-160 145v0 zM912 928h-800q-34 0 -57 -23t-23 -57v-800q0 -34 23 -57t57 -23h800q34 0 57 23t23 57v800q0 34 -23 57t-57 23zM960 48q0 -20 -14 -34t-34 -14h-800q-20 0 -34 14t-14 34v800q0 20 14 34t34 14h800q20 0 34 -14t14 -34v-800z" />
</svg>