<svg viewBox="0 0 1024 1024" xmlns="http://www.w3.org/2000/svg">
  <path transform="scale(1, -1) translate(0, -960)" fill="currentColor" d="M962 917q-3 6 -8.5 9t-11.5 2q-159 -47 -303 -57q-145 -9 -259.5 0.5t-191.5 27.5q-77 19 -103 27q-1 0 -2 1l-1 1q-6 1 -12 -2.5t-8 -10.5q-1 -6 2.5 -12t10.5 -7q16 -5 54 -15q37 -10 91.5 -20t124.5 -18q69 -8 151 -9v-168h-405q-7 0 -11.5 -4.5t-4.5 -11.5 q0 -8 4.5 -12t11.5 -4h85v-117h-86q-8 0 -12 -4.5t-4 -11.5t4 -11.5t12 -4.5h86v-501q0 -7 4.5 -11.5t11.5 -4.5t11.5 4.5t4.5 11.5v502h608v-502q0 -7 4.5 -11.5t11.5 -4.5t11.5 4.5t4.5 11.5v502h85q7 0 11.5 4.5t4.5 11.5q0 8 -4.5 12t-11.5 4h-85v117h86q8 0 12 4.5 t4 11.5t-4 11.5t-12 4.5h-406v167q47 0 98 4q50 3 103.5 10.5t108.5 19.5q55 11 112 28q8 2 11 8.5t1 12.5zM816 518h-608v117h608v-117z" />
</svg>