<svg viewBox="0 0 256 256" xmlns="http://www.w3.org/2000/svg">
  <path transform="scale(1, -1) translate(0, -256)" fill="currentColor" d="M238 237q3 1 4.5 3.5t0.5 5.5t-3.5 4.5t-5.5 0.5q-67 -20 -139 -14q-39 3 -73 13l-1 1q-3 0 -5.5 -1t-3 -4t1 -5.5t4.5 -3.5q14 -5 35 -9q33 -6 68 -6v-36h-98q-3 0 -5 -2.5t-2 -5.5t2 -5t5 -2h18v-23h-19q-3 0 -5 -2t-2 -5t2 -5t5 -2h19v-122q0 -3 2 -5t5 -2t5 2t2 5 v122h147v-122q0 -3 2 -5t5 -2t5 2t2 5v122h18q3 0 5.5 2.5t2.5 5.5t-2.5 5t-5.5 2h-18v23h18q3 0 5.5 2t2.5 5t-2.5 5t-5.5 2h-98v36q50 0 102 15zM201 148h-146v24h146v-24z" />
</svg>