<svg viewBox="0 0 256 256" xmlns="http://www.w3.org/2000/svg">
  <path transform="scale(1, -1) translate(0, -256)" fill="currentColor" d="M180 158q71 7 71 28q0 7 -6 12q-11 9 -43 14v2q1 10 -5.5 17t-16.5 7h-122q-10 0 -17 -7t-6.5 -15.5t1.5 -18.5h-14q-3 0 -5 -2t-2 -5t2 -5.5t5 -2.5h16q3 -12 6 -23q-39 -8 -39 -24q0 -23 80 -29l3 -2q28 -17 31 -38q2 -13 -4 -26q-4 -8 -6 -10.5t-2 -5t1.5 -5t5.5 -2.5 l3 1q4 2 13 10q13 10 23 21q13 15 18 29h28q3 0 5 2t2 5t-2 5t-5 2h-24q1 8 -1 16q-7 31 3 50h3zM237 186q-3 -3 -13 -6q-14 -4 -35 -7q8 11 11 25q17 -2 27 -6q7 -3 10 -6zM50 147q7 -14 16 -24q-20 2 -33 7q-11 3 -14 6q2 2 9 5q8 3 22 6zM161 106q1 -7 0 -14h-9 q-3 0 -5.5 -2t-2.5 -5t2.5 -5t5.5 -2h4q-7 -14 -24 -30q2 9 1 20q-4 21 -23 37h9q3 0 5 2t2 5t-2 5t-5 2l-29 1q-18 13 -29 36l-1 1q-5 14 -8 25h18q3 0 5.5 2t2.5 5t-2.5 5t-5.5 2h-20q-1 11 -1 18q0 4 2.5 7t6.5 3h122q3 0 6 -3t3 -7q-2 -25 -14 -37l-5 -6q-15 -1 -32 -1 q-3 0 -5.5 -2.5t-2.5 -5.5t2.5 -5t5.5 -2l24 1q-8 -20 -1 -50z" />
</svg>