<svg viewBox="0 0 1024 1024" xmlns="http://www.w3.org/2000/svg">
  <path transform="scale(1, -1) translate(0, -960)" fill="currentColor" d="M717 581q31 2 78 9q47 6 90.5 18t75.5 30q31 18 31 44q0 30 -48 53t-142 38h-4h-3q0 5 1 9.5t1 9.5q1 17 -4.5 32t-16.5 27q-12 12 -27 19t-32 7h-487q-16 0 -31 -6t-26 -18t-17.5 -26.5t-5.5 -31.5q0 -18 1.5 -39t5.5 -44h-67q-8 0 -12 -4.5t-4 -11.5t4 -11.5t12 -4.5 h72q4 -28 12.5 -56.5t19.5 -57.5q-81 -14 -121.5 -36t-40.5 -50q0 -29 37 -48q38 -19 89 -31t103 -18t81 -9q4 -2 8.5 -5t9.5 -6q56 -35 88.5 -75t39.5 -85q10 -62 -16 -107t-30 -50q-4 -4 -4 -10t4 -10q2 -3 5 -5t7 -2q3 0 4.5 0.5t3.5 1.5q7 3 35 23t62.5 53t67.5 75 q33 43 50 90h118q7 0 11.5 4.5t4.5 11.5q0 8 -4.5 12t-11.5 4h-110q3 18 4 37t-4 37q-15 66 -11 119t27 92q5 0 8.5 0.5t7.5 1.5v0zM792 744q1 -1 2.5 -1.5t2.5 -0.5q99 -15 131 -34t32 -25q0 -11 -51 -33t-181 -36q1 2 1.5 2t1.5 2q27 26 41 60t20 66zM64 480q0 6 28 23 t114 33q16 -34 39 -65.5t53 -59.5q-124 12 -179 34t-55 35v0zM654 362q4 -17 3 -34t-4 -34h-47q-7 0 -11.5 -4t-4.5 -12q0 -7 4.5 -11.5t11.5 -4.5h37q-21 -51 -62 -96t-75 -75q9 24 14.5 53.5t-0.5 63.5q-7 46 -36 87t-79 76q17 -1 34.5 -1h35.5q7 0 11.5 4t4.5 12 q0 7 -4.5 11.5t-11.5 4.5q-31 0 -61 1t-60 3q-44 33 -74 72.5t-50 83.5v0v1q-13 29 -21.5 58.5t-13.5 58.5h88q7 0 11.5 4.5t4.5 11.5t-4.5 11.5t-11.5 4.5h-93q-3 24 -4.5 45.5t-1.5 39.5q0 9 3.5 18.5t10.5 16.5q8 7 17 10.5t19 3.5h486q11 0 20 -3.5t15 -12.5 q7 -7 10.5 -16t2.5 -19q-2 -35 -14 -79t-44 -76q-7 -7 -13 -14.5t-11 -14.5q-32 -2 -65.5 -3.5t-68.5 -1.5q-7 0 -11.5 -4t-4.5 -12q0 -7 4.5 -11.5t11.5 -4.5q30 0 59 1t56 3q-21 -44 -24 -98t11 -118z" />
</svg>