<svg viewBox="0 0 256 256" xmlns="http://www.w3.org/2000/svg">
  <path transform="scale(1, -1) translate(0, -256)" fill="currentColor" d="M244 251h-232q-3 0 -5 -2t-2 -5t2 -5t5 -2h232q3 0 5 2t2 5t-2 5t-5 2zM227 193h-178q-3 0 -5 -2t-2 -5t2 -5t5 -2h178q3 0 5 2t2 5t-2 5t-5 2zM215 135h-134q-3 0 -5 -2t-2 -5t2 -5.5t5 -2.5h134q3 0 5 2.5t2 5.5t-2 5t-5 2zM172 77h-108q-3 0 -5.5 -2t-2.5 -5t2.5 -5.5 t5.5 -2.5h108q3 0 5.5 2.5t2.5 5.5t-2.5 5t-5.5 2zM158 19h-80q-3 0 -5 -2t-2 -5t2 -5.5t5 -2.5h80q3 0 5 2.5t2 5.5t-2 5t-5 2z" />
</svg>