<svg viewBox="0 0 1024 1024" xmlns="http://www.w3.org/2000/svg">
  <path transform="scale(1, -1) translate(0, -960)" fill="currentColor" d="M976 928h-928q-7 0 -11.5 -4.5t-4.5 -11.5t4.5 -11.5t11.5 -4.5h928q7 0 11.5 4.5t4.5 11.5t-4.5 11.5t-11.5 4.5zM909 696h-712q-7 0 -11.5 -4.5t-4.5 -11.5t4.5 -11.5t11.5 -4.5h712q7 0 11.5 4.5t4.5 11.5t-5 11.5t-11 4.5zM861 464h-536q-7 0 -11.5 -4.5t-4.5 -11.5 t4.5 -11.5t11.5 -4.5h534q7 0 11.5 4.5t4.5 11.5t-4 11.5t-10 4.5zM690 232h-436q-7 0 -11.5 -4.5t-4.5 -11.5t4.5 -11.5t11.5 -4.5h436q7 0 11.5 4.5t4.5 11.5t-5 11.5t-11 4.5zM630 0h-318q-7 0 -11.5 -4.5t-4.5 -11.5t4.5 -11.5t11.5 -4.5h318q8 0 12 4.5t4 11.5t-4 11.5 t-12 4.5z" />
</svg>