<svg viewBox="0 0 256 256" xmlns="http://www.w3.org/2000/svg">
  <path transform="scale(1, -1) translate(0, -256)" fill="currentColor" d="M128 251q-33 0 -61.5 -16.5t-45 -45t-16.5 -61.5t16.5 -61.5t45 -45t61.5 -16.5t61.5 16.5t45 45t16.5 61.5t-16.5 61.5t-45 45t-61.5 16.5zM128 19q-29 0 -54 14.5t-40 39.5t-15 55t15 54.5t39.5 39.5t54.5 15t55 -15t39.5 -40t14.5 -54.5t-14.5 -54.5t-39.5 -39.5 t-55 -14.5zM176 101q-21 -19 -48 -19t-48 19q-2 2 -5 2t-5 -2t-2 -5t2 -5q12 -11 27 -17t31 -6q12 0 21 3v-17q0 -5 3 -7.5t7.5 -2.5t7.5 2.5t3 7.5v26q8 4 15 11q2 2 2 5t-1.5 5t-4.5 2t-5 -2zM64 165q0 -7 5 -11.5t11.5 -4.5t11 4.5t4.5 11t-4.5 11.5t-11 5t-11.5 -5 t-5 -11zM160 165q0 -7 4.5 -11.5t11 -4.5t11.5 4.5t5 11t-5 11.5t-11.5 5t-11 -5t-4.5 -11z" />
</svg>