<svg viewBox="0 0 1024 1024" xmlns="http://www.w3.org/2000/svg">
  <path transform="scale(1, -1) translate(0, -960)" fill="currentColor" d="M512 928q-99 0 -186 -38q-88 -38 -153 -103t-103 -153q-38 -87 -38 -186t38 -186q38 -88 103 -153t153 -103q87 -38 186 -38t186 38q88 38 153 103t103 153q38 87 38 186t-38 186q-38 88 -103 153t-153 103q-87 38 -186 38zM512 0q-92 0 -174 35q-81 36 -142 97t-97 142 q-35 82 -35 174t35 174q36 81 96.5 142t142.5 97q82 35 174 35t174 -35q81 -36 142 -96.5t97 -142.5q35 -82 35 -174t-35 -174q-36 -81 -96.5 -142t-142.5 -97q-82 -35 -174 -35zM712 333q-41 -39 -92.5 -59t-107.5 -20t-107.5 20t-92.5 59q-5 5 -11.5 5t-10.5 -5 q-5 -5 -5 -11.5t5 -11.5q45 -42 102 -64t118 -22q22 0 43.5 2.5t41.5 8.5v-81q0 -17 12.5 -28.5t29.5 -11.5q18 0 29.5 11.5t11.5 28.5v118q15 8 28 18t25 22q5 5 5 11.5t-5 10.5q-2 3 -8 2.5t-11 -3.5zM386 595q0 -26 -19 -45t-45 -19q-27 0 -45.5 19t-18.5 45 q0 27 18.5 45.5t45.5 18.5q26 0 45 -18.5t19 -45.5zM766 595q0 -26 -18.5 -45t-45.5 -19q-26 0 -45 19t-19 45q0 27 19 45.5t45 18.5q27 0 45.5 -18.5t18.5 -45.5z" />
</svg>