<svg viewBox="0 0 256 256" xmlns="http://www.w3.org/2000/svg">
  <path transform="scale(1, -1) translate(0, -256)" fill="currentColor" d="M204 248h-164q-14 0 -24.5 -10t-10.5 -25v-124q0 -8 5.5 -13.5t13.5 -5.5h60v-39q0 -10 7.5 -17t16.5 -7h119q10 0 17 7t7 17v171q0 19 -13.5 32.5t-33.5 13.5zM237 202v-137h-139v149q0 11 -7 21h113q14 0 23.5 -10t9.5 -23zM24 84q-2 0 -3.5 1.5t-1.5 3.5v125 q0 8 6 14.5t15 6.5h23q9 0 15 -6.5t6 -14.5v-130h-60zM227 22h-119q-4 0 -7 2.5t-3 7.5v19h139v-19q0 -5 -3 -7.5t-7 -2.5z" />
</svg>