<svg viewBox="0 0 1024 1024" xmlns="http://www.w3.org/2000/svg">
  <path transform="scale(1, -1) translate(0, -960)" fill="currentColor" d="M818 918h-658q-53 0 -90.5 -37.5t-37.5 -90.5v-497q0 -27 19 -45.5t45 -18.5h253v-165q0 -35 25 -60t60 -25h473q35 0 60 25t25 60v678q0 74 -51 125t-123 51zM818 886q58 0 100 -41.5t42 -100.5v-560h-579v606q0 29 -12 53.5t-31 42.5h480v0zM96 259q-13 0 -22.5 9.5 t-9.5 22.5v499q0 40 28 68t68 28h93q39 0 67.5 -28t28.5 -68v-529h-253v-2zM907 10h-473q-22 0 -37.5 15.5t-15.5 36.5v90h579v-90q0 -21 -15.5 -36.5t-37.5 -15.5z" />
</svg>