<svg viewBox="0 0 256 256" xmlns="http://www.w3.org/2000/svg">
  <path transform="scale(1, -1) translate(0, -256)" fill="currentColor" d="M161 184q0 13 -9.5 22.5t-23 9.5t-23.5 -9.5t-10 -22.5q0 -9 4.5 -16.5t11.5 -11.5q-7 -5 -11.5 -12.5t-4.5 -16t4.5 -16t11.5 -11.5q-7 -5 -11.5 -12.5t-4.5 -15.5q0 -14 9.5 -23.5t23.5 -9.5t23.5 9.5t9.5 23.5q0 8 -4.5 15.5t-11.5 12.5q7 4 11.5 11.5t4.5 16t-4.5 16 t-11.5 12.5q7 4 11.5 11.5t4.5 16.5zM128 53q-8 0 -13.5 5.5t-5.5 13.5t5.5 13.5t13.5 5.5t13.5 -5.5t5.5 -13.5t-5.5 -13.5t-13.5 -5.5zM128 109q-8 0 -13.5 5.5t-5.5 13.5t5.5 13.5t13.5 5.5t13.5 -5.5t5.5 -13.5t-5.5 -13.5t-13.5 -5.5zM128 165q-8 0 -13.5 5.5t-5.5 13 t5.5 13t13.5 5.5t13.5 -5.5t5.5 -13t-5.5 -13t-13.5 -5.5zM231 147q3 0 5 2t2 5t-2 5.5t-5 2.5h-19v38h19q3 0 5 2t2 5t-2 5t-5 2h-19v18q0 8 -5.5 13.5t-13.5 5.5h-130q-8 0 -13.5 -5.5t-5.5 -13.5v-19h-19q-3 0 -5 -2t-2 -5t2 -5t5 -2h19v-38h-19q-3 0 -5 -2t-2 -5t2 -5.5 t5 -2.5h19v-38h-19q-3 0 -5 -2t-2 -5t2 -5t5 -2h19v-70q0 -8 5.5 -13.5t13.5 -5.5h131q8 0 13.5 5.5t5.5 13.5v71h19q3 0 5.5 2t2.5 5t-2.5 5t-5.5 2h-19v38h18zM198 24q0 -2 -1.5 -3.5t-3.5 -1.5h-130q-2 0 -3.5 1.5t-1.5 3.5v208q0 2 1.5 3.5t3.5 1.5h131q2 0 3.5 -1.5 t1.5 -3.5v-208h-1z" />
</svg>