<svg viewBox="0 0 1024 1024" xmlns="http://www.w3.org/2000/svg">
  <path transform="scale(1, -1) translate(0, -960)" fill="currentColor" d="M632 670q0 50 -35.5 85t-84.5 35t-84.5 -35t-35.5 -85q0 -38 21.5 -68t55.5 -44q-34 -13 -55.5 -43t-21.5 -69q0 -38 21.5 -68t55.5 -44q-34 -13 -55.5 -43t-21.5 -69q0 -49 35.5 -84.5t84.5 -35.5t84.5 35.5t35.5 84.5q0 39 -21.5 69t-55.5 43q34 14 55.5 44t21.5 68 q0 39 -21.5 69t-55.5 43q34 14 55.5 44.5t21.5 67.5zM600 226q0 -36 -26 -62t-62 -26t-62 26t-26 62t26 62t62 26q36 -2 62 -27t26 -61zM600 448q0 -36 -26 -62t-62 -26t-62 26t-26 62t26 62t62 26t62 -26t26 -62zM512 584q-36 0 -62 26t-26 62t26 62t62 26t62 -26t26 -62 t-26 -62t-62 -26zM925 536q7 0 11.5 4.5t4.5 11.5t-4.5 11.5t-11.5 4.5h-88v176h88q7 0 11.5 4.5t4.5 11.5t-4.5 11.5t-11.5 4.5h-88v88q0 26 -19 45t-45 19h-522q-26 0 -45 -19t-19 -45v-88h-88q-7 0 -11.5 -4.5t-4.5 -11.5t4.5 -11.5t11.5 -4.5h88v-176h-88 q-7 0 -11.5 -4.5t-4.5 -11.5t4.5 -11.5t11.5 -4.5h88v-176h-88q-7 0 -11.5 -4.5t-4.5 -11.5t4.5 -11.5t11.5 -4.5h88v-296q0 -26 19 -45t45 -19h523q27 0 45.5 19t18.5 45v296h88q8 0 12 4.5t4 11.5t-4 11.5t-12 4.5h-88v176h87zM805 32q0 -13 -9.5 -22.5t-22.5 -9.5h-522 q-13 0 -22.5 9.5t-9.5 22.5v832q0 13 9.5 22.5t22.5 9.5h523q14 0 23 -9.5t9 -22.5v-832h-1z" />
</svg>