<svg viewBox="0 0 256 256" xmlns="http://www.w3.org/2000/svg">
  <path transform="scale(1, -1) translate(0, -256)" fill="currentColor" d="M217 187q-3 21 -18 34t-36 13h-5v6q0 5 -3 8t-8 3h-39q-4 0 -7.5 -3t-3.5 -8v-5h-5q-21 0 -36 -13.5t-18 -33.5v-7v-123q0 -5 3.5 -8.5t8.5 -3.5h19l-20 -30q-2 -2 -1.5 -5t3 -4.5t5 -1.5t5.5 3l25 38h84l23 -38q2 -3 6 -3q2 0 4 1.5t3 4.5t-1 5l-19 30h18q5 0 8.5 3.5 t3.5 8.5v124q2 2 1 5zM121 180v-38h-68v38h68zM135 180h69v-38h-69v38zM112 237h32v-19h-32v19zM92 221h6v-5q0 -5 3 -8.5t8 -3.5h39q4 0 7.5 3.5t3.5 8.5v5h5q13 0 23.5 -7.5t14.5 -19.5h-147q4 12 14 19.5t23 7.5zM53 60v68h151v-68h-151zM105 103h-22q-3 0 -5 -2t-2 -5 t2 -5t5 -2h22q3 0 5 2t2 5t-2 5t-5 2zM175 103h-23q-3 0 -5 -2t-2 -5t2 -5t5 -2h23q3 0 5 2t2 5t-2 5t-5 2z" />
</svg>