<svg viewBox="0 0 256 256" xmlns="http://www.w3.org/2000/svg">
  <path transform="scale(1, -1) translate(0, -256)" fill="currentColor" d="M250 134l-24 34q-2 3 -6 3h-36v7q0 9 -6.5 15.5t-14.5 6.5h-137q-8 0 -14.5 -6.5t-6.5 -15.5v-88q0 -9 6.5 -15.5t14.5 -6.5h15q3 -5 8 -8.5t11.5 -3.5t11.5 3.5t8 8.5h18q2 -5 7.5 -8.5t11.5 -3.5t11.5 3.5t7.5 8.5h52q3 -5 8.5 -8.5t11.5 -3.5t11.5 3.5t7.5 8.5h17 q3 0 5 2.5t2 5.5v54q0 1 -1 4zM216 157l16 -23h-48v23h32zM60 70q-3 0 -5 2t-2 5t2 5t5 2t5.5 -2t2.5 -5t-2.5 -5t-5.5 -2zM118 70q-3 0 -5.5 2t-2.5 5t2.5 5t5.5 2t5 -2t2 -5t-2 -5t-5 -2zM170 82h-32q-1 7 -7 11.5t-13.5 4.5t-13 -4.5t-7.5 -11.5h-16q-2 7 -8 11.5 t-13 4.5t-13 -4.5t-8 -11.5h-13q-3 0 -5 2.5t-2 5.5v88q0 3 2 5.5t5 2.5h137q3 0 5 -2.5t2 -5.5v-96zM208 70q-3 0 -5 2t-2 5t2 5t5 2t5 -2t2 -5t-2 -5t-5 -2zM229 82q-2 7 -8 11.5t-13 4.5t-13 -4.5t-8 -11.5h-3v38h53v-38h-8zM60 162q-3 0 -5 -2t-2 -5v-29q0 -3 2 -5.5 t5 -2.5t5.5 2.5t2.5 5.5v29q-1 3 -3 5t-5 2zM94 162q-3 0 -5 -2t-2 -5v-29q0 -3 2 -5.5t5 -2.5t5 2.5t2 5.5v29q0 3 -2 5t-5 2zM128 162q-3 0 -5.5 -2t-2.5 -5v-29q0 -3 2.5 -5.5t5.5 -2.5t4.5 2.5t1.5 5.5v29q1 3 -1 5t-5 2z" />
</svg>