<svg viewBox="0 0 1024 1024" xmlns="http://www.w3.org/2000/svg">
  <path transform="scale(1, -1) translate(0, -960)" fill="currentColor" d="M830 499l-217 23l-253 99l-69 62q-5 5 -11 4t-11 -5q-5 -5 -4 -11.5t5 -11.5l56 -51q-14 -11 -41 -27q-28 -17 -64.5 -30t-79.5 -18q-44 -5 -90 8q-3 1 -7 0t-7 -3q-3 -4 -4 -7t-1 -8v-227q0 -36 25 -61t61 -25h858q7 0 11.5 4t4.5 12v94q0 70 -46 121t-116 58zM960 242 h-842q-22 0 -38 15.5t-16 38.5v208q52 -10 100 -2q47 9 85.5 24.5t66.5 33.5q27 18 39 27l119 -46l-58 -69q-5 -5 -4 -12t6 -10q2 -3 4.5 -3.5t4.5 -0.5q4 0 7.5 1.5t5.5 5.5l64 75v0v2l86 -34l-59 -69q-5 -5 -4 -12t6 -10q2 -3 4.5 -3h4.5q4 0 7.5 1t5.5 5l64 75q1 1 2 3 t1 4l204 -21q56 -6 94 -48t38 -99v-80h2z" />
</svg>