<svg viewBox="0 0 1024 1024" xmlns="http://www.w3.org/2000/svg">
  <path transform="scale(1, -1) translate(0, -960)" fill="currentColor" d="M877 -6l-181 219l48 107h35q7 0 11.5 4.5t4.5 11.5v496q0 40 -28 68t-68 28h-373q-39 0 -67.5 -28t-28.5 -68v-496q0 -7 4.5 -11.5t11.5 -4.5h36l48 -107l-183 -219q-5 -5 -4 -12t6 -11q2 -1 4.5 -2t4.5 -1q4 0 7.5 1.5t5.5 4.5l181 216h320l181 -216q2 -2 5.5 -4t7.5 -2 q2 0 5 1t4 2q5 5 6 11.5t-4 11.5v0zM262 750h501v-187h-501v187v0zM262 832q0 26 19 45t45 19h373q27 0 45.5 -19t18.5 -45v-50h-501v50v0zM262 531h501v-179h-501v179v0zM360 222l-43 98h392l-43 -98h-306v0zM374 426h58q7 0 11.5 4t4.5 12q0 7 -4.5 11.5t-11.5 4.5h-58 q-7 0 -11.5 -4.5t-4.5 -11.5q0 -6 4.5 -11t11.5 -5zM592 426h58q7 0 11.5 4t4.5 12q0 7 -4.5 11.5t-11.5 4.5h-58q-7 0 -11.5 -4.5t-4.5 -11.5q0 -6 4.5 -11t11.5 -5z" />
</svg>