<svg viewBox="0 0 256 256" xmlns="http://www.w3.org/2000/svg">
  <path transform="scale(1, -1) translate(0, -256)" fill="currentColor" d="M208 144l-54 5l-62 25l-17 15q-2 2 -5 2t-5 -2.5t-2 -5t2 -5.5l11 -10q-12 -9 -25 -13q-20 -6 -38 -1q-3 0 -6 -2t-3 -5v-57q0 -10 7.5 -17t17.5 -7h215q3 0 5 2t2 5v23q0 19 -12.5 32.5t-30.5 15.5zM237 80h-207q-5 0 -8 3t-3 7v48q21 -3 44 7q14 5 26 15l24 -10 l-11 -14q-2 -2 -2 -5t2 -5t5 -2t5 3l15 17l15 -6l-12 -14q-1 -2 -1 -4.5t2 -4.5t5 -2t5 2l16 19l49 -4q13 -2 21.5 -11.5t8.5 -22.5v-16h1z" />
</svg>