<svg viewBox="0 0 256 256" xmlns="http://www.w3.org/2000/svg">
  <path transform="scale(1, -1) translate(0, -256)" fill="currentColor" d="M222 16l-45 54l11 23h6q3 0 5.5 2t2.5 5v124q0 11 -8 19t-20 8h-92q-12 0 -20 -8t-8 -19v-124q0 -3 2.5 -5t5.5 -2h6l11 -23l-45 -54q-1 -2 -1 -4.5t2 -4.5t5 -2t5 2l44 53h77l44 -53q2 -2 5 -2t5.5 1.5t2.5 4.5t-1 5zM188 160h-120v40h120v-40zM68 107v39h120v-39h-120z M68 224q0 5 4 9t10 4h93q5 0 9 -4t4 -9v-10h-120v10zM172 93l-8 -19h-72l-8 19h88zM108 134h-14q-3 0 -5.5 -2.5t-2.5 -5.5t2.5 -5t5.5 -2h14q3 0 5 2t2 5t-2 5.5t-5 2.5zM162 134h-14q-3 0 -5 -2.5t-2 -5.5t2 -5t5 -2h14q3 0 5.5 2t2 5t-2.5 5.5t-5 2.5z" />
</svg>