<svg viewBox="0 0 1024 1024" xmlns="http://www.w3.org/2000/svg">
  <path transform="scale(1, -1) translate(0, -960)" fill="currentColor" d="M989 464l-96 138q-3 3 -6 4.5t-7 1.5h-157v42q0 30 -21.5 51.5t-51.5 21.5h-544q-30 0 -52 -21.5t-22 -51.5v-356q0 -30 22 -51.5t52 -21.5h67q7 -22 26 -36t43 -14t42.5 14t25.5 36h92q7 -22 25.5 -36t42.5 -14t43 14t26 36h168v0v0h56q7 -22 26 -36t43 -14t43 14t26 36 h75q7 0 11.5 4.5t4.5 11.5v217q0 4 -1 6l-2 4v0zM872 578l80 -116h-229v116h149zM242 205q-17 0 -29.5 12.5t-12.5 28.5q0 17 12.5 29.5t29.5 12.5q16 0 28.5 -12.5t12.5 -29.5q0 -16 -12.5 -28.5t-28.5 -12.5zM470 205q-16 0 -28.5 12.5t-12.5 28.5q0 17 12.5 29.5 t28.5 12.5q17 0 29.5 -12.5t12.5 -29.5q0 -16 -12.5 -28.5t-29.5 -12.5zM691 254h-149q-3 28 -23.5 46t-48.5 18q-27 0 -48 -18.5t-24 -45.5h-84q-4 28 -24.5 46t-47.5 18q-28 0 -49 -18.5t-23 -45.5h-64q-17 0 -29.5 12t-12.5 30v354q0 16 12.5 28.5t29.5 12.5h545 q17 0 29.5 -12.5t12.5 -28.5v-396h-2zM832 205q-17 0 -29.5 12.5t-12.5 28.5q0 17 12.5 29.5t29.5 12.5t29.5 -12.5t12.5 -29.5q0 -16 -12.5 -28.5t-29.5 -12.5zM904 254q-4 28 -24 46t-48 18t-49 -18.5t-23 -45.5h-37v176h237v-176h-56zM242 573q-8 0 -12 -4.5t-4 -11.5 v-117q0 -7 4 -11.5t12 -4.5q7 0 11.5 4.5t4.5 11.5v117q0 6 -5 11t-11 5v0zM376 573q-7 0 -11.5 -4.5t-4.5 -11.5v-117q0 -7 4.5 -11.5t11.5 -4.5t11.5 4.5t4.5 11.5v117q0 6 -4.5 11t-11.5 5zM510 573q-7 0 -11.5 -4.5t-4.5 -11.5v-117q0 -7 4.5 -11.5t11.5 -4.5 q8 0 12 4.5t4 11.5v117q0 6 -4 11t-12 5z" />
</svg>