<svg viewBox="0 0 1024 1024" xmlns="http://www.w3.org/2000/svg">
  <path transform="scale(1, -1) translate(0, -960)" fill="currentColor" d="M512 838q-99 0 -186 -25q-88 -26 -153 -70t-103 -104q-38 -59 -38 -127v-259q0 -7 4.5 -11.5t11.5 -4.5t11.5 4.5t4.5 11.5v142q25 -44 68 -82q42 -37 97.5 -64.5t122.5 -44.5q66 -16 139 -18v-112q0 -8 4.5 -12t11.5 -4t11.5 4t4.5 12v112q75 1 142 17q68 16 125 43.5 t101 65.5q43 38 69 83v-142q0 -7 4.5 -11.5t11.5 -4.5t11.5 4.5t4.5 11.5v259q0 68 -38 127q-38 60 -103 104t-153 70q-87 25 -186 25v0zM512 218q-92 0 -174 23q-81 23 -142 63t-97 94q-35 53 -35 114t35 115q36 54 96.5 93.5t142.5 62.5t174 23t174 -23q81 -23 142 -62.5 t97 -93.5q35 -54 35 -115t-35 -114q-36 -54 -96.5 -94t-142.5 -63t-174 -23zM512 666q-91 0 -156 -45t-65 -109t65 -109t156 -45t156 45t65 109t-65 109t-156 45v0zM512 392q-78 0 -133.5 35.5t-55.5 86.5q0 50 55.5 85.5t133.5 35.5t133.5 -35.5t55.5 -85.5 q0 -52 -55.5 -87t-133.5 -35v0z" />
</svg>