<svg viewBox="0 0 256 256" xmlns="http://www.w3.org/2000/svg">
  <path transform="scale(1, -1) translate(0, -256)" fill="currentColor" d="M128 229q-33 0 -61.5 -11.5t-45 -31t-16.5 -42.5v-65q0 -3 2 -5t5 -2t5.5 2t2.5 5v26q14 -19 40.5 -31.5t59.5 -13.5v-26q0 -3 2 -5t5 -2t5 2t2 5v26q33 1 60.5 13t43.5 32v-26q0 -3 2 -5t5 -2t5 2t2 5v65q0 23 -17 42.5t-45.5 31t-61.5 11.5zM128 74q-30 0 -54.5 9.5 t-39.5 25.5t-15 35t15 35.5t40 26t54.5 9.5t54.5 -9.5t39.5 -26t14.5 -35.5t-14.5 -35t-40 -25.5t-54.5 -9.5zM128 185q-25 0 -41.5 -12t-16.5 -29t16.5 -29t41.5 -12t41.5 12t16.5 29t-16.5 29t-41.5 12zM128 117q-18 0 -31 8t-13 19t13 19t31 8t31 -8t13 -19t-13 -19 t-31 -8z" />
</svg>