<svg viewBox="0 0 256 256" xmlns="http://www.w3.org/2000/svg">
  <path transform="scale(1, -1) translate(0, -256)" fill="currentColor" d="M236 186q6 0 10.5 4.5t4.5 10.5v35q0 6 -4.5 10.5t-10.5 4.5h-38q-6 0 -10.5 -4.5t-4.5 -10.5v-9h-111v9q0 6 -4.5 10.5t-10.5 4.5h-37q-6 0 -10.5 -4.5t-4.5 -10.5v-36q0 -6 4.5 -10.5t10.5 -4.5h11v-115h-11q-6 0 -10.5 -4.5t-4.5 -10.5v-35q0 -6 4.5 -10.5t10.5 -4.5 h38q6 0 10.5 4.5t4.5 10.5v9h111v-9q0 -6 4.5 -10.5t10.5 -4.5h37q6 0 10.5 4.5t4.5 10.5v36q0 6 -4.5 10.5t-10.5 4.5h-11v115h11zM198 236q0 1 1 1h37q1 0 1 -1v-36q0 -1 -1 -1h-38q-1 0 -1 1v36h1zM19 200v36q0 1 1 1h38q1 0 1 -1v-36q0 -1 -1 -1h-38zM58 19h-38 q-1 0 -1 1v36q0 1 1 1h38q1 0 1 -1v-36zM237 56v-36q0 -1 -1 -1h-38q-1 0 -1 1v36q0 1 1 1h38zM211 70h-13q-6 0 -10.5 -4t-4.5 -11v-13h-111v13q0 7 -4 11t-11 4h-13v116h13q7 0 11 4.5t4 10.5v12h111v-12q0 -7 4.5 -11t10.5 -4h13v-116z" />
</svg>