<svg viewBox="0 0 1024 1024" xmlns="http://www.w3.org/2000/svg">
  <path transform="scale(1, -1) translate(0, -960)" fill="currentColor" d="M944 690q20 0 34 13.5t14 34.5v142q0 20 -14 34t-34 14h-150q-21 0 -34.5 -14t-13.5 -34v-50h-468v50q0 20 -13.5 34t-34.5 14h-150q-20 0 -34 -14t-14 -34v-142q0 -21 14 -34.5t34 -13.5h54v-484h-54q-20 0 -34 -13.5t-14 -34.5v-142q0 -20 14 -34t34 -14h150 q21 0 34.5 14t13.5 34v46h468v-46q0 -20 13.5 -34t34.5 -14h150q20 0 34 14t14 34v142q0 21 -14 34.5t-34 13.5h-54v484h54v0zM778 880q0 7 4 11.5t12 4.5h150q7 0 11.5 -4.5t4.5 -11.5v-142q0 -8 -4.5 -12t-11.5 -4h-150q-8 0 -12 4t-4 12v142zM64 738v142q0 7 4.5 11.5 t11.5 4.5h150q8 0 12 -4.5t4 -11.5v-142q0 -8 -4 -12t-12 -4h-150q-7 0 -11.5 5t-4.5 11zM230 0h-150q-7 0 -11.5 4.5t-4.5 11.5v142q0 8 4.5 12t11.5 4h150q8 0 12 -4t4 -12v-80v0v0v0v0v-62q0 -7 -5 -11.5t-11 -4.5zM960 158v-142q0 -7 -4.5 -11.5t-11.5 -4.5h-150 q-8 0 -12 4.5t-4 11.5v62v0v0v0v0v80q0 8 4 12t12 4h150q7 0 11.5 -5t4.5 -11zM858 206h-63q-20 0 -34 -13.5t-14 -34.5v-64h-469v64q0 21 -13.5 34.5t-34.5 13.5h-62v484h62q21 0 34.5 13.5t13.5 34.5v60h468v-60q0 -21 13.5 -34.5t34.5 -13.5h62v-484h2z" />
</svg>