<svg viewBox="0 0 256 256" xmlns="http://www.w3.org/2000/svg">
  <path transform="scale(1, -1) translate(0, -256)" fill="currentColor" d="M198 222h-34v10q0 8 -5.5 13.5t-14.5 5.5h-32q-8 0 -14 -5.5t-6 -13.5v-10h-35q-8 0 -13.5 -6t-5.5 -14v-13q0 -6 3.5 -11t9.5 -7l7 -138q0 -12 8.5 -20.5t20.5 -8.5h81q12 0 20.5 8.5t8.5 20.5l7 138q5 2 9 7t4 11v13q0 8 -5.5 14t-13.5 6zM106 232q0 2 1.5 3.5t4.5 1.5 h32q3 0 4.5 -1.5t1.5 -3.5v-10h-44v10zM52 203q0 2 1.5 3.5t4.5 1.5h140q2 0 4 -1.5t2 -3.5v-13q0 -2 -2 -4t-4 -2h-140q-3 0 -4.5 2t-1.5 4v13zM184 34q0 -6 -4.5 -10.5t-11.5 -4.5h-80q-7 0 -11.5 4.5t-4.5 10.5l-6 137h124zM128 124q-3 0 -5 -2t-2 -5v-53q0 -3 2 -5t5 -2 t5 2t2 5v53q0 3 -2 5t-5 2zM161 116q-3 0 -5 -2t-3 -4l-2 -37q0 -3 1.5 -5t4.5 -2h1q2 0 4 1.5t2 4.5l3 36q0 3 -1.5 5.5t-4.5 2.5zM95 116q-3 0 -5 -2.5t-2 -5.5l3 -36q1 -3 2.5 -4.5t4.5 -1.5v0q3 0 5 2t2 5l-3 37q0 2 -2 4t-5 2z" />
</svg>