<svg viewBox="0 0 1024 1024" xmlns="http://www.w3.org/2000/svg">
  <path transform="scale(1, -1) translate(0, -960)" fill="currentColor" d="M794 811h-151v51q0 28 -19 47t-46 19h-132q-27 0 -46 -19t-19 -47v-51h-151q-26 0 -45 -18.5t-19 -45.5v-53q0 -22 15 -40t37 -22l28 -603q2 -25 20 -43t43 -18h405q25 0 43 18t19 43l29 603q21 5 36 22.5t15 39.5v53q1 27 -17.5 45.5t-44.5 18.5v0zM413 862 q0 15 9.5 24.5t23.5 9.5h132q14 0 23.5 -9.5t9.5 -24.5v-51h-198v51v0zM746 30q0 -12 -9.5 -21t-21.5 -9h-406q-12 0 -21.5 8.5t-9.5 21.5l-28 602h524l-28 -602v0zM826 694q0 -13 -9.5 -22.5t-22.5 -9.5h-564q-13 0 -22.5 9.5t-9.5 22.5v53q0 13 9.5 22.5t22.5 9.5h564 q13 0 22.5 -9.5t9.5 -22.5v-53zM512 442q-7 0 -11.5 -4.5t-4.5 -11.5v-256q0 -8 4.5 -12t11.5 -4t11.5 4t4.5 12v256q0 7 -4.5 11.5t-11.5 4.5zM664 410q-6 0 -11 -4.5t-7 -10.5l-9 -192q0 -7 4 -11.5t10 -5.5h0.5h1.5q6 0 11 4t5 10l9 192q2 7 -2.5 12.5t-11.5 5.5z M358 410q-7 0 -11 -5.5t-3 -12.5l11 -192q0 -6 5 -10t11 -4h0.5h1.5q7 0 11 5t3 12l-11 192q-1 6 -6.5 10.5t-11.5 4.5z" />
</svg>