<svg viewBox="0 0 1024 1024" xmlns="http://www.w3.org/2000/svg">
  <path transform="scale(1, -1) translate(0, -960)" fill="currentColor" d="M790 811h-147v34q0 35 -24 59t-59 24h-96q-35 0 -59 -24t-24 -59v-34h-147q-28 0 -48 -19.5t-20 -47.5v-46q0 -24 15 -42t37 -24v-446q0 -45 17 -85t46.5 -69.5t69.5 -46.5q39 -17 84 -17h154q45 0 84 17q40 17 69.5 46.5t46.5 69.5t17 85v446q22 6 37 24t15 42v46 q0 28 -20 47.5t-48 19.5v0zM413 845q0 21 14.5 36t36.5 15h96q22 0 36.5 -15t14.5 -36v-34h-198v34v0zM589 0h-154q-77 0 -131 54.5t-54 131.5v444h526v-444q-1 -77 -55.5 -131.5t-131.5 -54.5zM826 698q0 -15 -10.5 -25.5t-25.5 -10.5h-556q-15 0 -25.5 10.5t-10.5 25.5v46 q0 14 10.5 24.5t25.5 10.5h556q15 0 25.5 -10.5t10.5 -24.5v-46v0zM512 437q-7 0 -11.5 -4.5t-4.5 -11.5v-211q0 -8 4.5 -12t11.5 -4t11.5 4t4.5 12v211q0 6 -4.5 11t-11.5 5zM646 405q-7 0 -11.5 -4.5t-4.5 -11.5v-149q0 -7 4.5 -11.5t11.5 -4.5q8 0 12 4.5t4 11.5v149 q0 6 -4 11t-12 5zM378 405q-8 0 -12 -4.5t-4 -11.5v-149q0 -7 4 -11.5t12 -4.5q7 0 11.5 4.5t4.5 11.5v149q0 6 -5 11t-11 5z" />
</svg>