<svg viewBox="0 0 256 256" xmlns="http://www.w3.org/2000/svg">
  <path transform="scale(1, -1) translate(0, -256)" fill="currentColor" d="M198 222h-34v10q0 8 -5.5 13.5t-14.5 5.5h-32q-8 0 -14 -5.5t-6 -13.5v-10h-35q-8 0 -13.5 -6t-5.5 -14v-13q0 -6 3.5 -11t9.5 -7l7 -149q1 -7 6.5 -12.5t12.5 -5.5h101q8 0 13.5 5.5t5.5 12.5l7 149q6 2 10 7t4 11v13q0 8 -6 14t-14 6zM106 232q0 2 1.5 3.5t4.5 1.5h32 q3 0 4.5 -1.5t1.5 -3.5v-10h-44v10zM52 203q0 2 1.5 3.5t4.5 1.5h140q2 0 4 -1.5t2 -3.5v-13q0 -2 -2 -4t-4 -2h-140q-3 0 -4.5 2t-1.5 4v13zM179 19h-102q-2 0 -3.5 1t-1.5 3l-6 147h124l-6 -147q-1 -1 -2 -2.5t-3 -1.5zM128 130q-3 0 -5 -2.5t-2 -5.5v-64q0 -3 2 -5t5 -2 t5 2t2 5v64q0 3 -2 5.5t-5 2.5zM166 122q-2 0 -4.5 -2t-2.5 -5l-2 -48q0 -3 2 -5t5 -2v0q3 0 5 1.5t2 4.5l2 48q0 3 -2 5t-5 3zM89 122q-3 -1 -4.5 -3t-1.5 -5l3 -48q0 -3 2 -4.5t4 -1.5h1q3 0 4.5 2t1.5 5l-3 48q0 3 -2 5t-5 2z" />
</svg>