<svg viewBox="0 0 256 256" xmlns="http://www.w3.org/2000/svg">
  <path transform="scale(1, -1) translate(0, -256)" fill="currentColor" d="M203 222h-39v14q0 6 -4.5 10.5t-10.5 4.5h-42q-6 0 -10.5 -4.5t-4.5 -10.5v-14h-39q-6 0 -10.5 -4.5t-4.5 -11.5v-29q0 -3 2 -5t5 -2h6v-136q0 -12 9 -21t21 -9h94q13 0 21.5 9t8.5 21v137h6q3 0 5 2t2 5v29q0 6 -4.5 10.5t-10.5 4.5zM106 236q0 1 1 1h42q1 0 1 -1v-14 h-44v14zM52 207q0 1 2 1h149q1 0 1 -1v-22h-152v22zM191 35q0 -7 -5 -11.5t-11 -4.5h-94q-6 0 -11 4.5t-5 11.5v136h126v-136zM128 63q3 0 5 2t2 5v52q0 3 -2 5.5t-5 2.5t-5 -2.5t-2 -5.5v-52q0 -3 2 -5t5 -2zM162 63q3 0 5 2t2 5v52q0 3 -2 5.5t-5 2.5t-5.5 -2.5t-2.5 -5.5 v-52q1 -3 3 -5t5 -2zM94 63q3 0 5.5 2t2.5 5v52q0 3 -2.5 5.5t-5.5 2.5t-5 -2.5t-2 -5.5v-52q0 -3 2 -5t5 -2z" />
</svg>