<svg viewBox="0 0 1024 1024" xmlns="http://www.w3.org/2000/svg">
  <path transform="scale(1, -1) translate(0, -960)" fill="currentColor" d="M811 811h-168v69q0 20 -13.5 34t-34.5 14h-166q-21 0 -34.5 -14t-13.5 -34v-69h-168q-21 0 -34.5 -13.5t-13.5 -34.5v-117q0 -7 4.5 -11.5t11.5 -4.5h35v-555q0 -44 31.5 -75.5t75.5 -31.5h376q45 0 77 31.5t32 75.5v555h35q7 0 11.5 4.5t4.5 11.5v117q0 19 -14.5 33.5 t-33.5 14.5zM413 880q0 7 4.5 11.5t11.5 4.5h166q7 0 11.5 -4.5t4.5 -11.5v-69h-198v69v0zM776 75q0 -31 -22 -53t-55 -22h-374q-31 0 -53 22t-22 53v555h528v-555h-2zM827 662h-630v101q0 7 4.5 11.5t11.5 4.5h598q7 0 11.5 -4.5t4.5 -11.5v-101zM512 198q7 0 11.5 4.5 t4.5 11.5v212q0 7 -4.5 11.5t-11.5 4.5t-11.5 -4.5t-4.5 -11.5v-212q0 -6 4.5 -11t11.5 -5v0zM646 198q8 0 12 4.5t4 11.5v212q0 7 -4 11.5t-12 4.5q-7 0 -11.5 -4.5t-4.5 -11.5v-212q0 -6 5 -11t11 -5v0zM378 198q7 0 11.5 4.5t4.5 11.5v212q0 7 -4.5 11.5t-11.5 4.5 q-8 0 -12 -4.5t-4 -11.5v-212q0 -6 4 -11t12 -5v0z" />
</svg>