<svg viewBox="0 0 1024 1024" xmlns="http://www.w3.org/2000/svg">
  <path transform="scale(1, -1) translate(0, -960)" fill="currentColor" d="M794 811h-151v51q0 28 -19 47t-46 19h-132q-27 0 -46 -19t-19 -47v-51h-151q-26 0 -45 -18.5t-19 -45.5v-53q0 -22 15 -40t37 -22l27 -562q2 -43 33 -71.5t74 -28.5h322q43 0 73.5 29t33.5 71l27 562q22 5 36.5 22.5t14.5 39.5v53q-1 27 -20 45.5t-45 18.5v0zM413 862 q0 15 9.5 24.5t23.5 9.5h132q14 0 23.5 -9.5t9.5 -24.5v-51h-198v51v0zM674 0h-324q-30 0 -51 21t-24 49l-27 560h525l-27 -560q0 -28 -21 -49t-51 -21v0zM826 694q0 -13 -9.5 -22.5t-22.5 -9.5h-564q-13 0 -22.5 9.5t-9.5 22.5v53q0 13 9.5 22.5t22.5 9.5h564 q13 0 22.5 -9.5t9.5 -22.5v-53zM512 419q-7 0 -11.5 -4.5t-4.5 -11.5v-211q0 -7 4.5 -11.5t11.5 -4.5t11.5 4.5t4.5 11.5v211q0 7 -4.5 11.5t-11.5 4.5zM642 387q-6 0 -11.5 -4t-6.5 -10l-10 -146q0 -7 4.5 -11.5t10.5 -5.5v0h1q6 0 11 4t5 10l10 146q1 7 -3 12t-11 5z M379 387q-7 0 -11 -5t-3 -12l11 -146q0 -6 5 -10t11 -4h1h1q7 0 11 5t3 12l-11 146q0 6 -5.5 10t-12.5 4z" />
</svg>