<svg viewBox="0 0 256 256" xmlns="http://www.w3.org/2000/svg">
  <path transform="scale(1, -1) translate(0, -256)" fill="currentColor" d="M251 79q0 16 -11 27t-27 11t-27.5 -11t-11.5 -27t25 -55h-127q-10 0 -17 8q-4 4 -6 10t-0.5 13.5t8.5 13t17 5.5h40q16 0 28 11q8 8 10 18.5t-1.5 22t-14 18.5t-22.5 7h-57q25 40 25 56t-11 27.5t-27 11.5t-27.5 -11.5t-11.5 -27.5q0 -12 15 -37q8 -16 18 -30l2 -3h74 q8 0 15 -4.5t9 -11.5t0.5 -14t-6.5 -12q-7 -7 -17 -7h-41q-14 0 -25 -9t-14 -22q-2 -10 1 -19t10 -16q11 -12 27 -12l143 1l5 6q30 45 30 62zM44 232q10 0 17 -7.5t7 -17.5q0 -6 -8 -22q-7 -13 -16 -29q-10 16 -17 29q-8 16 -8 22q0 10 7 17.5t18 7.5zM213 103q10 0 17 -7 t7 -18q0 -6 -8 -21q-6 -13 -16 -28q-10 15 -17 28q-8 15 -8 21q0 11 7 18t18 7zM223 82q0 4 -3 7t-7.5 3t-7.5 -3t-3 -7.5t3 -7.5t7.5 -3t7.5 3t3 8zM54 210q0 5 -3 8t-7.5 3t-7.5 -3t-3 -7.5t3 -7.5t7.5 -3t7.5 3t3 7z" />
</svg>