<svg viewBox="0 0 1024 1024" xmlns="http://www.w3.org/2000/svg">
  <path transform="scale(1, -1) translate(0, -960)" fill="currentColor" d="M992 251q0 60 -41 100.5t-100 40.5t-100.5 -41.5t-41.5 -99.5q0 -22 12 -53t30 -63.5t37 -63.5q19 -30 33 -50h-531q-22 0 -42 8t-35 24q-21 20 -28 46.5t-3 55.5q8 37 40 62t72 25h164q28 0 54 10.5t46 30.5q30 30 38.5 69.5t-4.5 79.5q-14 42 -52 68t-86 26h-249 q13 21 32 52q19 32 37 66t30 66q13 33 13 55q0 60 -41 100.5t-100 40.5q-60 1 -102 -40.5t-42 -99.5q0 -27 18 -68q19 -42 42 -82.5t44 -72.5t26 -39l0.5 -1l0.5 -1v0v0q1 -1 2.5 -1.5t2.5 -1.5v0h2q1 0 2 -0.5t2 -0.5v0v0h282q36 0 66 -20.5t41 -51.5q11 -32 4 -63t-29 -54 q-16 -16 -36 -24t-41 -8h-165q-53 0 -93.5 -32.5t-50.5 -81.5q-7 -36 3 -70.5t35 -60.5q21 -20 46.5 -31t54.5 -11h560q1 0 2.5 0.5t2.5 1.5v0h2q1 0 2 1l2 2v0.5v1.5l1 0.5l1 0.5q5 6 25 36q21 30 44 69t41 80t18 68zM174 875q46 0 77.5 -31.5t31.5 -77.5q0 -17 -11 -46 q-12 -29 -29 -61t-36 -64q-19 -31 -34 -54q-15 23 -33 54q-19 31 -36 63t-28 61q-12 29 -12 47q0 45 32.5 77t77.5 32v0zM851 360q46 0 77.5 -31.5t31.5 -77.5q0 -17 -12 -45q-11 -28 -28 -59t-36 -62q-19 -30 -34 -51q-15 21 -35 51q-19 31 -36 62t-28 59q-12 28 -12 45 q0 45 32.5 77t79.5 32zM891 262q0 18 -12.5 31t-28.5 13q-18 0 -30 -13t-12 -31t12.5 -30.5t29.5 -12.5q18 1 29.5 14t11.5 29zM216 778q0 18 -12.5 30.5t-29.5 12.5q-16 0 -28.5 -12.5t-12.5 -30.5t11.5 -30t29.5 -12t30 12.5t12 29.5z" />
</svg>