<svg viewBox="0 0 1024 1024" xmlns="http://www.w3.org/2000/svg">
  <path transform="scale(1, -1) translate(0, -960)" fill="currentColor" d="M803 357l138 328q1 1 1 3v3v144q0 17 -6.5 33t-18.5 28t-27.5 19t-33.5 7h-54q-8 0 -12 -4.5t-4 -11.5q0 -8 4 -12t12 -4h54q11 0 20.5 -4t16.5 -12t11.5 -18t4.5 -19v-141l-143 -336h-544q-79 -2 -134.5 -58t-55.5 -136q0 -78 55.5 -134t134.5 -56h581q78 0 134.5 55.5 t56.5 134.5q-2 80 -57.5 135.5t-133.5 55.5zM64 166q0 65 46 112t112 47q65 0 112 -46.5t47 -112.5t-46.5 -112t-112.5 -46q-66 1 -112 47.5t-46 110.5zM326 10q39 25 62 67t23 91t-23 90.5t-62 67.5h370q-38 -25 -61.5 -67t-23.5 -91t23.5 -90.5t61.5 -67.5h-370zM802 10 q-65 0 -112 46t-47 112t46.5 112t112.5 46t112 -46t46 -112t-46 -112t-112 -46z" />
</svg>