<svg viewBox="0 0 256 256" xmlns="http://www.w3.org/2000/svg">
  <path transform="scale(1, -1) translate(0, -256)" fill="currentColor" d="M249 126l-45 100q-3 8 -9 12t-14 4t-14.5 -4t-9.5 -12l-36 -81l-26 58q-3 7 -9 11t-13.5 4t-13.5 -4t-9 -11l-43 -95q-2 -6 -1.5 -12.5t3.5 -11.5q8 -11 21 -11h35v-45h-38q-3 0 -5 -2t-2 -5t2 -5t5 -2h203q3 0 5 2t2 5t-2.5 5t-5.5 2h-41v62h37q7 0 12.5 3t9 8.5t4 12 t-1.5 12.5zM30 87q-6 0 -9 5t-1 10l42 96q4 6 10.5 6t9.5 -6l32 -70l-1 -2q-3 -6 -2.5 -12.5t4.5 -12t9 -8.5q-1 -3 -3.5 -4.5t-5.5 -1.5h-35v23q0 3 -2.5 5t-5.5 2t-5 -2t-2 -5v-23h-35zM174 28h-95v45h35q8 0 15 4.5t9 12.5h36v-62zM235 109q-3 -5 -10 -5h-37v28 q0 3 -2.5 5t-5.5 2t-4.5 -2t-1.5 -5v-28h-38q-6 0 -9.5 5t-1.5 11l45 101q3 7 10.5 7t11.5 -7l44 -101q2 -6 -1 -11z" />
</svg>