<svg viewBox="0 0 1024 1024" xmlns="http://www.w3.org/2000/svg">
  <path transform="scale(1, -1) translate(0, -960)" fill="currentColor" d="M821 789q-43 0 -80 -20t-61 -54v10q1 72 -49 121.5t-121 49.5q-70 0 -119.5 -49.5t-49.5 -120.5v-107q-23 33 -59.5 52.5t-78.5 19.5q-71 0 -121 -50t-50 -121v-173q0 -66 44.5 -114.5t109.5 -54.5v-162q0 -7 4 -11.5t12 -4.5q7 0 11.5 4.5t4.5 11.5v162q45 4 82 31 t55 66q19 -41 55.5 -67.5t82.5 -29.5v-162q0 -7 4.5 -11.5t11.5 -4.5t11.5 4.5t4.5 11.5v162q47 4 84 31t55 68q18 -41 55 -68.5t84 -30.5v-162q0 -7 4.5 -11.5t11.5 -4.5t11.5 4.5t4.5 11.5v162q65 6 110 54.5t45 114.5v272q2 71 -48 120.5t-121 49.5v0zM218 210v155 q0 7 -4.5 11.5t-11.5 4.5q-8 0 -12 -4.5t-4 -11.5v-155q-51 6 -86.5 45t-35.5 92v173q0 58 40.5 98t97.5 40q56 0 96.5 -41t40.5 -97v-173q1 -53 -34.5 -92t-86.5 -45v0zM650 347q0 -53 -36 -92t-88 -45v155q0 7 -4 11.5t-12 4.5q-7 0 -11.5 -4.5t-4.5 -11.5v-155 q-51 6 -86 45t-35 92v379q0 58 40.5 98t96.5 40q58 0 98 -40.5t40 -97.5v-379h2zM960 347q0 -53 -36 -92t-87 -45v155q0 7 -4.5 11.5t-11.5 4.5t-11.5 -4.5t-4.5 -11.5v-155q-52 6 -87 45t-35 92v272q0 58 40.5 98t97.5 40q56 0 97.5 -40.5t41.5 -97.5v-272v0z" />
</svg>