<svg viewBox="0 0 256 256" xmlns="http://www.w3.org/2000/svg">
  <path transform="scale(1, -1) translate(0, -256)" fill="currentColor" d="M113 157h1q3 0 5.5 1.5t4.5 4.5q3 5 -1 11l-39 54q-4 4 -9.5 4t-8.5 -4l-40 -54q-4 -5 -0.5 -11t10.5 -6h4l-33 -53q-4 -6 -0.5 -11.5t9.5 -5.5h52v-57q0 -3 2 -5t5 -2t5 2t2 5v57h52q6 0 9.5 6t0.5 11zM21 101l33 53q3 6 0 11t-9 5h-4l34 46l33 -45q-6 0 -9.5 -5.5 t-0.5 -11.5l30 -53h-107zM251 150q0 20 -6.5 39.5t-18 31.5t-26.5 12t-26.5 -12t-18.5 -31.5t-7 -39.5q0 -30 13 -51t32 -25v-44q0 -3 2 -5.5t5 -2.5t5 2.5t2 5.5v44q19 4 31.5 25t12.5 51zM206 88v22q0 3 -2 5.5t-5 2.5t-5 -2.5t-2 -5.5v-22q-13 5 -21.5 22.5t-8.5 39.5 q0 17 5 33.5t13.5 26t18 9.5t18 -9.5t14 -26t5.5 -33.5q1 -22 -7.5 -39.5t-22.5 -22.5z" />
</svg>