<svg viewBox="0 0 1024 1024" xmlns="http://www.w3.org/2000/svg">
  <path transform="scale(1, -1) translate(0, -960)" fill="currentColor" d="M301 902q-56 0 -105 -21t-85.5 -57.5t-57.5 -85.5t-21 -104q0 -54 20 -101q19 -47 53.5 -83t80.5 -58q46 -23 99 -26v-356q0 -8 4.5 -12t11.5 -4t11.5 4t4.5 12v356q53 3 99 25q46 23 80 59t54 83t20 101q0 55 -22 104q-21 49 -57.5 85.5t-85.5 57.5t-104 21v0zM317 398 v66l85 85q4 5 4 11t-4 11q-5 5 -11.5 5t-11.5 -5l-62 -62v91q0 7 -4.5 11.5t-11.5 4.5t-11.5 -4.5t-4.5 -11.5v-91l-63 62q-4 5 -10.5 5t-11.5 -5t-5 -11t5 -11l85 -85v-66q-46 3 -87 23q-40 20 -70 51.5t-47 72.5q-17 42 -17 89q0 49 19 92q18 43 50 75t75 51q44 18 93 18 t92 -18q43 -19 75.5 -51t50.5 -75q19 -43 19 -92q0 -47 -18 -89q-17 -41 -46.5 -72.5t-70.5 -51.5q-40 -20 -86 -23v0zM992 424q0 40 -15 75q-15 36 -41.5 62t-61.5 41q-35 16 -76 16q-40 0 -75 -16q-35 -15 -61.5 -41t-41.5 -62q-15 -35 -15 -75q0 -77 51.5 -132.5 t125.5 -61.5v-219q0 -7 4.5 -11.5t11.5 -4.5q8 0 12 4.5t4 11.5v219q75 8 126.5 63t51.5 131v0zM814 262v34l53 67q4 5 3.5 12t-6.5 11q-5 3 -12 2.5t-10 -6.5l-28 -35v69q0 7 -4 11.5t-12 4.5q-7 0 -11.5 -4.5t-4.5 -11.5v-67l-28 35q-4 5 -11 6t-12 -3q-5 -3 -6 -10t3 -12 l53 -67v-34q-61 6 -103.5 52t-42.5 110q0 67 47.5 114t114.5 47t115 -48t48 -115q0 -62 -42 -109t-104 -53v0z" />
</svg>