<svg viewBox="0 0 256 256" xmlns="http://www.w3.org/2000/svg">
  <path transform="scale(1, -1) translate(0, -256)" fill="currentColor" d="M208 207q-15 16 -37 16q-16 0 -29 -9q-3 16 -15 26.5t-29 10.5q-18 0 -31 -13t-13 -32q0 -15 8 -27q-14 -9 -22 -24t-8 -32q0 -26 17 -44.5t43 -21.5v-45q0 -3 2 -5t5 -2t5 2t2 5v45q17 2 32 12q14 -12 32 -12v-45q0 -3 2 -5t5 -2t5 2t2 5v46q17 5 28.5 19t11.5 33v60 q0 22 -16 37zM99 151q-3 0 -5 -2t-2 -5v-73q-20 3 -33 17.5t-13 34.5q0 15 8.5 28t22.5 20q3 1 3.5 5t-2.5 6q-10 10 -10 23t9 22t21.5 9t22 -9t9.5 -21.5t-8 -20.5l-3 -3q-3 -3 -2.5 -6.5t4.5 -4.5q14 -6 22.5 -19.5t8.5 -28.5q0 -20 -13.5 -35t-32.5 -17v73q0 3 -2.5 5 t-4.5 2zM210 110q0 -13 -7.5 -23t-18.5 -14v17q0 3 -2.5 5.5t-5.5 2.5t-5 -2.5t-2 -5.5v-19q-13 0 -22 7q18 20 18 45q0 17 -8 32t-23 24q6 9 8 17q12 12 28.5 12t28 -11.5t11.5 -27.5v-59z" />
</svg>