<svg viewBox="0 0 256 256" xmlns="http://www.w3.org/2000/svg">
  <path transform="scale(1, -1) translate(0, -256)" fill="currentColor" d="M108 156q7 0 10 6q2 2 1.5 5t-1.5 6l-38 50q-3 5 -8.5 5t-9.5 -5l-36 -50q-2 -3 -2.5 -6t1.5 -5q3 -6 9 -6h4l-31 -50q-2 -2 -2 -5t1 -5q4 -6 10 -6h48v-54q0 -3 2.5 -5.5t5.5 -2.5t5 2.5t2 5.5v54h49q6 0 9 5q1 2 1 5t-1 6zM22 104l30 49q2 2 2 5t-1 5.5t-4 4t-6 1.5h-3 l31 42l31 -42q-5 0 -9 -5q-1 -2 -1 -5t1 -6l29 -49h-100zM250 87l-18 30q3 2 4.5 4.5t1.5 5.5t-2 6l-23 31q-3 5 -9 5t-9 -5l-23 -31q-2 -3 -2 -6t1.5 -6t4.5 -4l-18 -31q-1 -2 -1 -5t1 -5q4 -6 10 -6h29v-35q0 -3 2 -5t5 -2t5 2t2 5v35h29q7 0 10 5.5t0 11.5zM173 84l17 30 q1 2 1 5t-1.5 5.5t-3.5 3.5l18 25l18 -25q-3 -1 -4.5 -3.5t-1.5 -5.5t2 -5l16 -30h-61z" />
</svg>