<svg viewBox="0 0 256 256" xmlns="http://www.w3.org/2000/svg">
  <path transform="scale(1, -1) translate(0, -256)" fill="currentColor" d="M229 132q-4 6 -12 11q1 6 1 12q0 11 -4 21t-11 18q-11 13 -26 18q-3 14 -13 24q-15 15 -36 15q-10 0 -19 -4t-16 -11q-11 -10 -13 -24q-17 -5 -26 -18q-15 -17 -15 -39q0 -6 1 -12q-8 -5 -12 -11q-10 -13 -10 -30q0 -19 13.5 -33t33.5 -14h57v-36h-28q-3 0 -5 -2t-2 -5 t2 -5t5 -2h69q3 0 5 2t2 5t-2 5t-5 2h-27v36h56q20 0 34 14t14 33q-1 17 -11 30zM192 69h-57v21l25 14q2 2 2.5 5t-1 5t-4 3t-5.5 -1l-17 -10v22l25 15q2 1 2.5 4t-1 5.5t-4 3t-5.5 -0.5l-17 -11v20q0 3 -2 5.5t-5 2.5t-5 -2.5t-2 -5.5v-35l-24 8q-3 1 -5.5 -0.5t-3.5 -4 t0.5 -5.5t3.5 -3l29 -10v-45h-57q-13 0 -23 10t-10 22.5t7 21.5q5 6 12 10q3 1 4 3.5t0 4.5q-2 8 -2 14q0 17 11 31q9 11 23 14q5 2 6 6q1 12 10 20q10 11 25.5 11t25.5 -11q9 -8 11 -20q0 -2 1.5 -3.5t3.5 -2.5q14 -3 23 -14q11 -13 11 -31q0 -6 -2 -14q-1 -2 0 -4.5 t4 -3.5q6 -3 12.5 -11t6.5 -20q1 -14 -8.5 -23.5t-23.5 -9.5z" />
</svg>