<svg viewBox="0 0 256 256" xmlns="http://www.w3.org/2000/svg">
  <path transform="scale(1, -1) translate(0, -256)" fill="currentColor" d="M54 198q-14 0 -25.5 -11.5t-17.5 -29.5t-6 -37q0 -28 12 -48t30 -24v-36q0 -3 2 -5t5 -2t5.5 2t2.5 5v36q18 4 30 24.5t12 47.5q-1 19 -7 37t-17.5 29.5t-25.5 11.5zM61 63v23q0 3 -2 5t-5 2t-5 -2t-2 -5v-23q-12 4 -20 20t-8 37q0 16 5 31t13 24t17 9t17 -9t13 -24 t5 -31q0 -21 -8 -37t-20 -20zM251 150q0 25 -7.5 48t-21.5 38t-31 15t-30.5 -15t-21.5 -38.5t-8 -47t7 -43.5t19 -33t27 -15v-47q0 -3 2 -5t5 -2t5 2t2 5v47q15 2 27 14.5t19 33t7 43.5zM198 73v34q0 3 -2 5t-5 2t-5 -2t-2 -5v-34q-16 5 -27.5 27t-11.5 50q0 22 6.5 42 t17.5 32.5t22.5 12.5t22 -12.5t17 -32.5t6.5 -42q0 -28 -11 -50.5t-28 -26.5z" />
</svg>