<svg viewBox="0 0 1024 1024" xmlns="http://www.w3.org/2000/svg">
  <path transform="scale(1, -1) translate(0, -960)" fill="currentColor" d="M904 390q0 45 -16.5 85.5t-47.5 71.5q30 31 47 71.5t17 83.5q0 47 -18 88q-17 41 -47.5 72t-71.5 48q-41 18 -87 18q-72 0 -129.5 -41.5t-81.5 -107.5q-28 28 -65.5 43.5t-80.5 15.5q-42 0 -80 -16q-37 -16 -65 -43.5t-44 -64.5q-16 -38 -16 -80q0 -40 15 -77t41 -64 q-27 -29 -41.5 -65t-14.5 -76t15 -76t40.5 -63t59.5 -44q35 -17 74 -20v-149h-149q-7 0 -11.5 -4.5t-4.5 -11.5t4.5 -11.5t11.5 -4.5h682q7 0 11.5 4.5t4.5 11.5t-4.5 11.5t-11.5 4.5h-144v166q44 4 82 23t66 49t44 69t16 83zM680 896q79 0 135.5 -56.5t56.5 -137.5 q0 -42 -17 -79t-49 -65q-2 -2 -3 -5.5t-1 -6.5q0 -4 1 -7.5t3 -5.5q32 -28 49 -65.5t17 -78.5q0 -76 -51.5 -131t-124.5 -61v227q0 7 -4.5 11.5t-11.5 4.5t-11.5 -4.5t-4.5 -11.5v-226q-44 4 -83 27t-63 61q5 16 8.5 32t3.5 32q0 40 -15 77t-41 64q27 29 41.5 65t14.5 76 q0 32 -9.5 61t-26.5 54q15 66 67.5 107.5t118.5 41.5zM150 352q0 37 15 71.5t43 58.5q2 2 3.5 5.5t1.5 6.5q0 4 -1.5 7.5t-3.5 5.5q-28 24 -43 58.5t-15 71.5q0 72 50.5 122.5t122.5 50.5t122.5 -52t50.5 -124q0 -38 -15 -71.5t-43 -58.5q-2 -2 -3 -5.5t-1 -7.5q0 -3 1 -6.5 t3 -6.5q28 -24 43 -58t15 -71q0 -67 -45.5 -116t-111.5 -55v204q0 8 -4.5 12t-11.5 4t-11.5 -4t-4.5 -12v-201q-65 6 -111 55t-46 116v0zM339 0v147q53 4 96 32.5t67 73.5q29 -37 71.5 -60t90.5 -27v-166h-325v0z" />
</svg>