<svg viewBox="0 0 1024 1024" xmlns="http://www.w3.org/2000/svg">
  <path transform="scale(1, -1) translate(0, -960)" fill="currentColor" d="M411 570h23q8 0 15.5 4.5t11.5 12.5q3 9 3 17t-6 15l-148 203q-8 12 -24.5 12t-24.5 -12l-149 -201q-5 -7 -6 -16t3 -16q3 -9 11 -13.5t16 -4.5h35l-134 -216q-5 -7 -5 -16t3 -16q4 -7 11.5 -11.5t15.5 -4.5h207v-227q0 -7 4.5 -11.5t11.5 -4.5t11.5 4.5t4.5 11.5v227 h208q8 0 15 4.5t12 11.5t5 15.5t-5 16.5zM64 338l136 216q5 7 5 15.5t-3 16.5q-4 7 -11.5 11.5t-16.5 4.5l-36 -2l147 202l149 -200h-23q-8 0 -15 -4.5t-12 -11.5q-5 -8 -5 -16t5 -16l125 -216h-445v0zM987 277l-80 134q9 0 16.5 4.5t10.5 13.5q4 8 3.5 16.5t-6.5 15.5 l-93 126q-4 6 -10.5 9.5t-14.5 3.5v0q-7 0 -14 -3.5t-12 -9.5l-93 -126q-4 -7 -5 -16t2 -16q4 -9 11.5 -13.5t15.5 -4.5l-78 -134q-5 -7 -5 -15.5t5 -16.5q5 -7 12 -11.5t15 -4.5h133v-152q0 -7 4.5 -11.5t11.5 -4.5t11.5 4.5t4.5 11.5v152h128q8 0 15 4.5t12 11.5t5 16 t-5 16v0zM824 261l-4 2t-4 1t-4.5 -1t-3.5 -2h-136l78 136q5 7 5 15t-5 17q-4 7 -11 11t-16 3l93 127l94 -125q-8 0 -15 -4.5t-12 -11.5t-5 -15.5t5 -16.5l80 -135l-139 -1v0z" />
</svg>