<svg viewBox="0 0 1024 1024" xmlns="http://www.w3.org/2000/svg">
  <path transform="scale(1, -1) translate(0, -960)" fill="currentColor" d="M822 326l-155 274v1.5v1.5t1 1.5t2 0.5h29q10 0 18.5 5.5t13.5 13.5t4 18t-7 19l-189 253q-5 7 -12 10.5t-17 3.5q-9 0 -16.5 -3.5t-11.5 -10.5l-186 -253q-6 -9 -7 -19t4 -18t13 -13.5t19 -5.5h46q1 0 1.5 -0.5l1.5 -1.5v-1.5v-1.5l-169 -272q-5 -8 -5 -17.5t3 -17.5 q5 -9 13 -13.5t18 -4.5h262v-291q0 -7 4.5 -11.5t11.5 -4.5t11.5 4.5t4.5 11.5v290h264q10 0 18 4.5t12 12.5q5 9 5 18t-5 17v0zM794 307q0 -1 -1 -1h-3h-558h-1.5t-1.5 1v1.5v1.5l169 272q5 9 5.5 18t-3.5 18q-5 8 -13 12.5t-17 4.5h-47q-1 0 -1.5 0.5l-1.5 1.5v1.5v1.5 l189 254q0 2 0.5 2h0.5h1t3 -2l187 -252q0 -2 0.5 -2t-0.5 -2q0 -1 -1 -1h-2h-29q-10 0 -18 -4.5t-13 -13.5q-4 -8 -4 -17.5t4 -17.5l156 -274q1 0 1 -1t-1 -2v0z" />
</svg>