<svg viewBox="0 0 256 256" xmlns="http://www.w3.org/2000/svg">
  <path transform="scale(1, -1) translate(0, -256)" fill="currentColor" d="M101 152q6 1 8.5 6.5t-1.5 10.5l-34 46q-3 4 -8 4t-8 -4l-34 -46q-4 -5 -1 -11t9 -6h2l-28 -44q-3 -4 0.5 -10t8.5 -6h44v-48q0 -3 2 -5t5 -2t5 2t2 5v48h44q6 0 9.5 5.5t-0.5 10.5zM22 106l28 44q3 5 -0.5 11t-8.5 6h-2l27 36l27 -37q-5 0 -8 -5t1 -10l25 -45h-89z M251 159q0 16 -8 29.5t-21.5 21.5t-30 8t-30 -8t-21.5 -21.5t-8 -29.5q0 -23 15 -39.5t37 -19.5v-55q0 -3 2.5 -5t5.5 -2t5 2t2 5v55q22 2 37 19t15 40zM198 114v42q0 3 -2 5.5t-5 2.5t-5 -2.5t-2 -5.5v-11l-6 7q-1 2 -4 2.5t-5.5 -1.5t-3 -4.5t1.5 -5.5l17 -21v-8 q-16 2 -27 14.5t-11 30.5t13.5 31.5t32 13.5t32 -13.5t13.5 -31t-11 -30t-28 -15.5z" />
</svg>