<svg viewBox="0 0 256 256" xmlns="http://www.w3.org/2000/svg">
  <path transform="scale(1, -1) translate(0, -256)" fill="currentColor" d="M208 171q0 21 -10.5 39.5t-29 29.5t-40.5 11t-40.5 -11t-29 -29.5t-10.5 -39.5t9.5 -38.5t26.5 -28.5t37 -13v-79q0 -3 2 -5t5 -2t5 2t2 5v79q20 2 37 13t26.5 28.5t9.5 38.5zM135 105v15l24 24q2 2 2 5t-2 5t-5 2t-5 -2l-14 -14v21q0 3 -2 5t-5 2t-5 -2t-2 -5v-21 l-14 14q-2 2 -5 2t-5 -2t-2 -5t2 -5l24 -24v-15q-25 3 -42 21.5t-17 44.5q0 18 8.5 33t24 24t33.5 9t33.5 -9t24 -24t8.5 -33q0 -26 -17 -44.5t-42 -21.5z" />
</svg>