<svg viewBox="0 0 1024 1024" xmlns="http://www.w3.org/2000/svg">
  <path transform="scale(1, -1) translate(0, -960)" fill="currentColor" d="M826 757q-29 29 -65.5 44t-77.5 15q-33 0 -65 -10.5t-58 -31.5q-4 64 -51.5 109t-113.5 45q-69 0 -118.5 -49t-49.5 -119q0 -30 10.5 -59t31.5 -51q-59 -34 -93.5 -93.5t-34.5 -127.5q0 -51 18 -96q19 -44 51 -78.5t76 -55.5q43 -22 93 -25v-192q0 -7 4.5 -11.5 t11.5 -4.5t11.5 4.5t4.5 11.5v194q39 2 74 16t65 35q28 -25 63 -39t72 -14h3h3v-190q0 -7 4.5 -11.5t11.5 -4.5t11.5 4.5t4.5 11.5v195q70 13 116 68.5t46 128.5v240q0 40 -15.5 76t-43.5 65zM395 528q-7 0 -11.5 -4.5t-4.5 -11.5v-304q-43 3 -81 21q-37 19 -65 49t-44 69 t-16 83q0 65 35.5 120.5t93.5 81.5q4 1 6.5 4.5t3.5 8.5q0 3 -1 7.5t-4 6.5q-21 19 -33.5 46t-12.5 57q-1 55 38.5 94.5t95.5 39.5q57 0 96.5 -40t39.5 -96q0 -26 -9.5 -50t-27.5 -43v0l-1 -1l-5 -5t-5 -3q-3 -3 -4.5 -7t-0.5 -8q0 -3 3 -6.5t7 -6.5q59 -27 94.5 -81.5 t35.5 -119.5q0 -44 -16 -83t-44 -69t-66 -49t-81 -22v306q0 6 -5 11t-11 5v0zM853 374q0 -60 -37.5 -105.5t-92.5 -57.5v85q0 7 -4.5 11.5t-11.5 4.5t-11.5 -4.5t-4.5 -11.5v-90h-3h-3q-31 0 -59.5 11t-51.5 31q35 35 55.5 81.5t20.5 99.5q0 68 -35 127.5t-93 93.5 q14 16 23.5 35.5t14.5 40.5q24 27 56.5 41.5t68.5 14.5q33 0 64 -12.5t54 -36.5q24 -24 37 -54.5t13 -64.5v-240z" />
</svg>