<svg viewBox="0 0 256 256" xmlns="http://www.w3.org/2000/svg">
  <path transform="scale(1, -1) translate(0, -256)" fill="currentColor" d="M251 126q0 11 -4 21t-11 18q-15 16 -38 16q-16 0 -28 -9v19q0 17 -12.5 29.5t-30 12.5t-29.5 -12.5t-12 -29.5v-18q-15 9 -33.5 7.5t-32 -14.5t-15.5 -32q-1 -11 2.5 -22t10.5 -19q13 -15 33 -17v-46q0 -3 2 -5t5 -2t5 2t2 5v46q14 1 26 10q4 -8 12 -14t18 -8v-34 q0 -3 2 -5t5 -2t5.5 2t2.5 5v34q10 2 18 8t12 15q11 -9 26 -11v-46q0 -3 2 -5t5 -2t5 2t2 5v46q18 2 31 16.5t14 33.5zM65 90v19q0 3 -2 5t-5 2t-5.5 -2t-2.5 -5v-19q-13 3 -22 12q-11 13 -9 31q1 13 11 23t24 11q9 1 17 -2t14 -10v-50l1 -4q-8 -9 -21 -11zM135 78v31 q0 3 -2 5t-5 2t-5.5 -2t-2.5 -5v-31q-9 2 -14.5 9.5t-5.5 17.5v86q0 12 8 20t19.5 8t20 -8t8.5 -20v-86q0 -9 -6 -17t-15 -10zM205 90v19q0 3 -2 5t-5 2t-5 -2t-2 -5v-19q-13 2 -22 12v53q6 6 13.5 9t15.5 3q16 0 27.5 -11.5t10.5 -28.5q0 -14 -9 -24.5t-22 -12.5z" />
</svg>