<svg viewBox="0 0 1024 1024" xmlns="http://www.w3.org/2000/svg">
  <path transform="scale(1, -1) translate(0, -960)" fill="currentColor" d="M432 574h24q10 0 17 5t12 13q3 8 3 17t-6 17l-157 212q-10 12 -26.5 12t-24.5 -12l-159 -212q-5 -8 -6 -17t3 -17t11.5 -13t17.5 -5h38v0v0l-142 -228q-5 -8 -5 -16.5t3 -15.5q5 -8 12 -12t17 -4h218v-242q0 -7 4 -11.5t12 -4.5q7 0 11.5 4.5t4.5 11.5v242h219 q8 0 15.5 4t11.5 12q4 7 4.5 15.5t-4.5 16.5l-128 228v0zM64 330l142 228q5 8 5.5 16.5t-3.5 15.5q-5 8 -12 12t-17 4h-38l157 213l156 -213h-22q-8 0 -16 -4t-11 -12q-4 -7 -4.5 -15.5t4.5 -16.5l131 -230zM992 534q0 57 -14 115q-15 57 -40.5 103t-60.5 75q-36 29 -79 29 q-42 0 -78 -29q-35 -29 -61 -75t-40 -103q-14 -58 -14 -115t14 -108q13 -52 37 -91t57 -64q32 -25 69 -29v-186q0 -7 4.5 -11.5t11.5 -4.5q8 0 12 4.5t4 11.5v186q38 4 70 29t56 64t38 91q14 51 14 108v0zM814 274v102q0 7 -4 11.5t-12 4.5q-7 0 -11.5 -4.5t-4.5 -11.5v-102 q-30 4 -57 27q-26 22 -46 57t-31 80t-11 96q0 57 13 110q13 52 35.5 92t51.5 64q30 24 61 24q32 0 61 -24q30 -24 52 -64t36 -92q13 -53 13 -110q0 -51 -11 -96q-12 -45 -31.5 -80t-45.5 -57q-27 -23 -58 -27z" />
</svg>