<svg viewBox="0 0 256 256" xmlns="http://www.w3.org/2000/svg">
  <path transform="scale(1, -1) translate(0, -256)" fill="currentColor" d="M75 245q-19 0 -35 -9.5t-25.5 -25.5t-9.5 -34.5t8.5 -34t23 -25t31.5 -11.5v-86q0 -3 2.5 -5t5.5 -2t5 2t2 5v86q17 2 31.5 11.5t23 25t8.5 34t-10 34.5t-26 25.5t-35 9.5zM82 119v11l20 21q3 2 3 5t-2.5 5t-5 2t-5.5 -2l-10 -11v16q0 3 -2 5t-5 2t-5 -2t-2 -5v-16 l-10 11q-3 2 -5.5 2t-5 -2t-2 -5t2.5 -5l20 -21v-11q-21 3 -35 18.5t-14 36.5q0 16 7.5 28.5t20.5 20t28 7.5t28 -7.5t20.5 -20t7.5 -28.5q0 -21 -14 -36.5t-35 -18.5zM251 122q0 21 -15 36.5t-36.5 15.5t-36.5 -15.5t-15 -35.5t13 -34.5t31 -17.5v-52q0 -3 2.5 -5t5.5 -2 t5 2t2 5v52q19 3 31.5 17.5t12.5 33.5zM206 85v4l13 16q2 3 1.5 5.5t-3 4.5t-5.5 1.5t-4 -2.5l-2 -2v8q0 3 -2 5t-5 2t-5 -2t-2 -5v-8l-1 2q-2 2 -5 2.5t-5.5 -1.5t-2.5 -4.5t2 -5.5l12 -16v-4q-13 3 -21.5 13t-8.5 25t11 26t26.5 11t26.5 -11t11 -25.5t-8.5 -25 t-22.5 -13.5z" />
</svg>