<svg viewBox="0 0 1024 1024" xmlns="http://www.w3.org/2000/svg">
  <path transform="scale(1, -1) translate(0, -960)" fill="currentColor" d="M382 557h18q8 0 16 4.5t11 11.5q4 7 3.5 16t-6.5 16l-136 184q-8 12 -24 12t-24 -12l-136 -184q-5 -7 -6 -15.5t3 -16.5q3 -7 11 -11.5t16 -4.5h29l-120 -194q-5 -7 -5 -15t3 -15q4 -7 11.5 -11.5t14.5 -4.5h185v-205q0 -7 4.5 -11.5t11.5 -4.5q8 0 12 4.5t4 11.5v205 h188q8 0 15 3.5t10 10.5q4 7 4 15t-4 16zM66 349l121 195q5 7 5 15t-3 15q-4 8 -11.5 12t-14.5 4h-30l131 178l131 -178h-17q-9 0 -15.5 -3.5t-10.5 -10.5t-4 -15t4 -15l112 -197h-398v0zM992 571q0 47 -18 88q-17 41 -48 71.5t-72 48.5t-88 18q-46 0 -87 -18 q-42 -18 -72.5 -48.5t-47.5 -71.5q-18 -41 -18 -88q0 -44 16 -84q16 -39 44.5 -69t66.5 -49q39 -19 82 -22v-230q0 -7 4.5 -11.5t11.5 -4.5q8 0 12 4.5t4 11.5v230q44 3 82 22q39 19 67 49t45 69q16 40 16 84zM782 379v183q0 7 -4 11.5t-12 4.5q-7 0 -11.5 -4.5t-4.5 -11.5 v-80l-46 56q-4 4 -11 5t-11 -2q-5 -4 -6 -11t2 -12l71 -88v-51q-75 6 -126.5 61.5t-51.5 130.5q0 40 15 76q16 35 42 61t61 42q36 15 76 15t76 -15q35 -16 61.5 -42t42.5 -61q15 -36 15 -76q0 -75 -51.5 -130.5t-126.5 -61.5z" />
</svg>