<svg viewBox="0 0 1024 1024" xmlns="http://www.w3.org/2000/svg">
  <path transform="scale(1, -1) translate(0, -960)" fill="currentColor" d="M870 570q-1 4 -4.5 7.5t-9.5 4.5q-44 6 -91.5 -8t-84.5 -44q-36 -29 -54 -66t-15 -72l-85 -72v299q28 3 47 24t19 48q0 30 -22 52t-52 22h-49q-17 0 -29.5 12.5t-12.5 28.5q0 17 12.5 29.5t29.5 12.5h107q7 0 11.5 4.5t4.5 11.5t-4.5 11.5t-11.5 4.5h-50v32q0 7 -4 11.5 t-12 4.5q-7 0 -11.5 -4.5t-4.5 -11.5v-34h-25q-30 0 -52 -21t-22 -52t22 -52.5t52 -21.5h49q17 0 29.5 -12.5t12.5 -28.5q0 -17 -12.5 -29.5t-29.5 -12.5h-107q-7 0 -11.5 -4.5t-4.5 -11.5t4.5 -11.5t11.5 -4.5h83v-296l-81 70q3 35 -15 72t-54 66q-37 30 -85 44.5t-91 8.5 q-6 1 -9.5 -3t-4.5 -8q-8 -38 10 -77t57 -71v0q32 -26 72 -40t80 -14h9t8 2l104 -88v-29h-72q-19 0 -36 -8t-29 -23q-12 -14 -16 -33t-2 -37l21 -114q6 -30 29.5 -50t53.5 -20h146q31 0 54.5 19.5t28.5 50.5l21 114q3 19 -1.5 36.5t-16.5 32.5q-12 14 -29 22t-36 8h-85v26 l107 91q5 0 9 -1t9 -1q39 0 79 14t73 41q39 32 57.5 71.5t10.5 77.5v0zM242 448v0v0q-29 23 -44 50.5t-14 53.5q36 1 73.5 -11t67.5 -37q29 -23 44 -50.5t13 -53.5q-36 -1 -73 11.5t-67 36.5v0zM651 202q7 -10 10.5 -21t0.5 -23l-20 -113q-4 -19 -19 -31t-33 -12h-145 q-19 0 -34 12t-17 31l-21 113q-3 12 0.5 23.5t10.5 20.5q7 8 18 13.5t22 5.5h187q12 -1 22.5 -6t17.5 -13zM782 448q-30 -24 -67 -36.5t-73 -11.5q-2 26 13 53.5t44 50.5q30 24 67.5 36.5t73.5 11.5q1 -26 -14 -53.5t-44 -50.5z" />
</svg>