<svg viewBox="0 0 256 256" xmlns="http://www.w3.org/2000/svg">
  <path transform="scale(1, -1) translate(0, -256)" fill="currentColor" d="M229 114q0 22 -15 39q15 16 15 39q0 16 -8 29.5t-21.5 21.5t-30.5 8t-31.5 -10t-21.5 -25q-16 13 -35 13q-15 0 -27.5 -7.5t-19.5 -20t-7 -27.5q0 -20 13 -35q-6 -7 -9.5 -16t-3.5 -19q0 -21 13.5 -36t33.5 -18v-31h-34q-3 0 -5.5 -2t-2.5 -5t2.5 -5t5.5 -2h170q3 0 5 2 t2 5t-2 5t-5 2h-33v36q22 3 37 19.5t15 39.5zM170 237q19 0 32 -13.5t13 -31.5q0 -10 -4 -19t-11 -15q-2 -2 -2 -5.5t2 -4.5q7 -7 11 -16t4 -18q0 -17 -11 -29.5t-27 -15.5v53q0 3 -2 5t-5 2t-5 -2t-2 -5v-53q-19 3 -31 19q3 8 3 16q0 20 -13 35q6 7 9.5 16.5t3.5 18.5 q0 16 -9 30q5 14 17 23.5t27 9.5zM41 104q0 18 13 30q3 2 3 5.5t-3 4.5q-13 12 -13 29.5t11.5 29.5t28 12t28.5 -12t12 -29.5t-14 -29.5q-2 -1 -2 -4.5t2 -5.5q14 -12 14 -30q0 -15 -9.5 -26t-23.5 -14v48q0 3 -2.5 5t-5.5 2t-5 -2t-2 -5v-48q-13 3 -22.5 14t-9.5 26zM88 19 v31q12 1 22 7.5t16 16.5q7 -8 16.5 -13t20.5 -6v-36h-75z" />
</svg>