<svg viewBox="0 0 256 256" xmlns="http://www.w3.org/2000/svg">
  <path transform="scale(1, -1) translate(0, -256)" fill="currentColor" d="M220 159q0 2 -1.5 4t-4.5 2q-11 1 -23.5 -2.5t-22 -11.5t-14.5 -17t-4 -19l-16 -13v66q8 2 12.5 8t4.5 14t-6.5 14t-14.5 6h-13q-3 0 -5 2.5t-2 5.5t2 5t5 2h27q3 0 5 2t2 5t-2 5t-5 2h-10v5q0 3 -2 5t-4.5 2t-4.5 -2t-2 -5v-5h-3q-9 0 -15.5 -6.5t-6.5 -15t6.5 -15 t15.5 -6.5h12q3 0 5 -2t2 -5t-2 -5t-5 -2h-27q-3 0 -5 -2t-2 -5t2 -5t5 -2h18v-65l-15 12q1 10 -4 19t-14.5 17t-22 11.5t-23.5 2.5q-2 0 -4 -2t-2 -4q-3 -10 2 -20.5t16 -18.5q8 -7 18.5 -11t21.5 -4l3 1l27 -24h-18q-11 0 -18 -8.5t-5 -20.5l5 -28q2 -9 8.5 -14.5 t15.5 -5.5h36q9 0 16 5.5t8 14.5l6 28q1 11 -6 20t-18 9h-20l27 24l3 -1q10 0 20.5 4t19.5 11.5t13.5 18t2.5 20.5zM62 130q-12 10 -13 21q17 0 30 -11q5 -4 8.5 -10t4.5 -11q-8 0 -15.5 3t-14.5 8zM160 64q3 -3 3 -8l-5 -28q-1 -4 -4 -6.5t-6 -2.5h-37q-3 0 -6 2.5t-4 6.5 l-5 28q-1 5 2 8.5t8 3.5h47q5 0 7 -4zM194 130q-14 -11 -30 -11q1 12 14 22t29 10q-1 -11 -13 -21z" />
</svg>