<svg viewBox="0 0 256 256" xmlns="http://www.w3.org/2000/svg">
  <path transform="scale(1, -1) translate(0, -256)" fill="currentColor" d="M205 216q-19 0 -32 -13q-2 17 -15 28.5t-31 11.5t-31.5 -13t-13.5 -32v-19q-13 13 -32 13t-32 -13.5t-13 -32.5v-43q0 -17 11 -30t27 -15v-38q0 -3 2 -5t5 -2t5.5 2t2.5 5v38q9 1 17.5 7t13.5 14q5 -8 13.5 -14t18.5 -7v-38q0 -3 2 -5t5 -2t5 2t2 5v38q10 1 18 7t14 14 q5 -8 13.5 -14t17.5 -7v-38q0 -3 2.5 -5t5.5 -2t5 2t2 5v38q16 2 27.5 15t11.5 30v68q-1 19 -14.5 32t-32.5 13zM58 72v35q0 3 -2.5 5t-5.5 2t-5 -2t-2 -5v-35q-10 2 -17 11t-7 20v43q0 13 9 22.5t22.5 9.5t22.5 -9.5t9 -22.5v-43q0 -11 -7 -20t-17 -11zM159 103 q0 -12 -7 -20.5t-18 -10.5v35q0 3 -2 5t-4.5 2t-5 -2t-2.5 -5v-35q-10 2 -17 11t-7 20v95q0 13 9 22t22.5 9t22.5 -9t9 -22v-95zM237 103q0 -12 -7 -20.5t-18 -10.5v35q0 3 -2 5t-5 2t-5 -2t-2 -5v-35q-11 2 -17.5 11t-6.5 20v68q0 13 9 22t22 9t22.5 -9t9.5 -22v-68z" />
</svg>