<svg viewBox="0 0 1024 1024" xmlns="http://www.w3.org/2000/svg">
  <path transform="scale(1, -1) translate(0, -960)" fill="currentColor" d="M984 582q0 8 -4.5 12t-11.5 4t-11.5 -4t-4.5 -12v-212v-5.5t-2 -4.5l-268 178q-21 13 -45.5 13t-44.5 -13l-219 -146q-12 -8 -26.5 -8t-26.5 8l-256 171q-6 4 -12.5 2.5t-9.5 -7.5q-4 -6 -3 -12t7 -10l256 -171q21 -13 45 -13t43 13l221 147q12 8 26.5 8t26.5 -8 l266 -178q-4 -2 -8.5 -2.5t-7.5 -0.5h-213q-7 0 -11.5 -4.5t-4.5 -11.5t4.5 -11.5t11.5 -4.5h213q15 0 29 7t25 19l1.5 1.5l1.5 1.5v0v0q6 8 10.5 19t4.5 23v212h-2z" />
</svg>