<svg viewBox="0 0 1024 1024" xmlns="http://www.w3.org/2000/svg">
  <path transform="scale(1, -1) translate(0, -960)" fill="currentColor" d="M982 88l-395 794q-11 21 -31 33.5t-44 12.5t-44 -12.5t-31 -33.5l-395 -794q-10 -19 -9 -40.5t12 -41.5q12 -19 30.5 -29.5t41.5 -10.5h792q21 0 40.5 10.5t31.5 29.5q11 20 11.5 41.5t-10.5 40.5v0zM952 24q-7 -12 -18.5 -18t-26.5 -6h-792q-13 0 -25 6.5t-20 17.5 q-7 12 -7 25t6 25l397 793q7 13 18.5 21t27.5 8t27.5 -8t18.5 -21l397 -793q6 -12 5 -25t-8 -25zM614 421q-4 5 -10.5 5t-11.5 -5l-80 -80l-80 80q-5 5 -11.5 5t-10.5 -5q-5 -5 -5 -11.5t5 -11.5l80 -80l-80 -80q-5 -4 -5 -10.5t5 -11.5q2 -2 5 -3.5t6 -1.5q2 0 5.5 1.5 t5.5 3.5l80 80l80 -80q2 -2 5.5 -3.5t5.5 -1.5q3 0 6 1.5t5 3.5q5 5 5 11.5t-5 10.5l-80 80l80 80q5 4 5 11t-5 12v0z" />
</svg>