<svg viewBox="0 0 1024 1024" xmlns="http://www.w3.org/2000/svg">
  <path transform="scale(1, -1) translate(0, -960)" fill="currentColor" d="M314 338q-14 21 -34.5 33.5t-45.5 12.5q-26 0 -47 -12.5t-33 -33.5l-109 -186q-13 -22 -13 -46.5t13 -46.5q13 -21 34 -33.5t46 -12.5h214q25 0 46.5 12.5t33.5 33.5q13 22 13 46.5t-13 46.5zM392 75q-8 -14 -22 -22t-31 -8h-214q-17 0 -31 8t-22 22q-8 15 -8 31t8 30 l107 186q9 14 22.5 22t30.5 8t30.5 -8t22.5 -22l107 -186q8 -14 8 -30t-8 -31zM979 152l-107 186q-13 21 -34 33.5t-46 12.5t-46.5 -12.5t-33.5 -33.5l-107 -186q-13 -22 -13 -46.5t13 -46.5q13 -21 34 -33.5t46 -12.5h214q25 0 46.5 12.5t33.5 33.5q13 22 13 46.5t-13 46.5 v0zM952 75q-8 -14 -22 -22t-31 -8h-214q-17 0 -31 8t-22 22q-8 15 -8 31t8 30l107 186q9 14 22.5 22t30.5 8t30.5 -8t22.5 -22l107 -186q8 -14 8 -30t-8 -31v0zM405 512h214q25 0 46.5 12.5t33.5 33.5q13 22 12.5 47t-12.5 46l-107 186q-13 21 -34 33.5t-46 12.5 t-46.5 -12.5t-33.5 -33.5v0v0l-107 -186q-13 -21 -13 -46t13 -47q12 -21 33.5 -33.5t46.5 -12.5zM352 635l107 186q9 14 22.5 22t30.5 8t30.5 -8t22.5 -22l107 -186q8 -14 8 -30t-8 -31q-8 -14 -22 -22t-31 -8h-214q-17 0 -31 8t-22 22q-8 15 -8 31t8 30v0z" />
</svg>