<svg viewBox="0 0 256 256" xmlns="http://www.w3.org/2000/svg">
  <path transform="scale(1, -1) translate(0, -256)" fill="currentColor" d="M81 164q-4 7 -10 10.5t-13 3.5t-13 -3.5t-10 -10.5l-27 -46q-3 -6 -3 -13t3.5 -13.5t9.5 -10t13 -3.5h54q7 0 13 3.5t9.5 10t3.5 13.5t-3 13zM96 99q-4 -6 -11 -6h-54q-7 0 -10.5 6t-0.5 12l27 47q4 6 11 6t11 -6l27 -47q3 -6 0 -12zM248 118l-27 46q-4 7 -10 10.5 t-13 3.5t-13 -3.5t-10 -10.5l-27 -46q-3 -6 -3 -13t3.5 -13.5t9.5 -10t13 -3.5h54q7 0 13 3.5t9.5 10t3.5 13.5t-3 13zM235 99q-3 -6 -11 -6h-53q-7 0 -10.5 6t-0.5 12l27 47q4 6 11 6t11 -6l27 -47q3 -7 -1 -12z" />
</svg>