<svg viewBox="0 0 1024 1024" xmlns="http://www.w3.org/2000/svg">
  <path transform="scale(1, -1) translate(0, -960)" fill="currentColor" d="M96 739q-8 9 -19.5 11t-22.5 -3q-10 -5 -16 -14t-6 -19v-559q0 -15 11 -26t26 -11h558q12 0 21.5 6.5t13.5 16.5q5 11 3 22t-11 19zM634 154q0 -2 -1.5 -3t-3.5 -1h-560q-3 0 -4 2t-1 3v559q0 2 1 3t2 1h1h1h2t1 -1l558 -559q3 -1 3.5 -2.5l0.5 -1.5v0zM226 446 q-9 9 -20 11t-22 -3q-11 -4 -17.5 -13.5t-6.5 -21.5v-131q0 -16 11 -26.5t26 -10.5h131q12 0 21 6.5t14 17.5t3 22t-11 20l-129 129v0zM334 286q0 -1 -1 -2t-3 -1h-132q-2 0 -3 2t-1 3v131q0 3 1 4t2 1h0.5h0.5h3t1 -2l131 -131q2 0 2.5 -1.5t-1.5 -3.5v0zM960 779h-173 q-13 0 -22.5 -9.5t-9.5 -22.5v-597q0 -13 9.5 -22.5t22.5 -9.5h173q13 0 22.5 9.5t9.5 22.5v597q0 13 -9.5 22.5t-22.5 9.5zM787 149v598h173v-102h-56q-7 0 -11.5 -4.5t-4.5 -11.5t4.5 -11.5t11.5 -4.5h56v-88h-26q-7 0 -11.5 -4.5t-4.5 -11.5t4.5 -11.5t11.5 -4.5h26v-88 h-56q-7 0 -11.5 -4.5t-4.5 -11.5t4.5 -11.5t11.5 -4.5h56v-88h-26q-7 0 -11.5 -4.5t-4.5 -11.5t4.5 -11.5t11.5 -4.5h26v-103h-173v-1z" />
</svg>