<svg viewBox="0 0 1024 1024" xmlns="http://www.w3.org/2000/svg">
  <path transform="scale(1, -1) translate(0, -960)" fill="currentColor" d="M562 672q-8 22 -26.5 35t-41.5 13q-22 0 -41 -13t-26 -35l-125 -358q-6 -17 -3.5 -34.5t13.5 -31.5t26 -22t32 -8h248q18 0 33 8t24 22q10 14 13 31.5t-3 34.5l-123 358v0zM650 267q-6 -8 -14.5 -12t-17.5 -4h-248q-10 0 -18 4.5t-14 11.5q-6 9 -7.5 18t2.5 19l125 358 q4 15 15.5 21.5t20.5 6.5q10 0 21 -6t16 -22l123 -358q4 -10 3 -19t-7 -18v0zM512 912q-96 0 -180 -36q-85 -37 -148 -100t-99 -147q-37 -85 -37 -181t36 -180q37 -85 100 -148t147 -99q85 -37 181 -37t180 36q85 37 148 100t99 147q37 85 37 181t-36 180q-37 85 -100 148 t-147 99q-85 37 -181 37zM512 16q-89 0 -168 34t-137.5 92.5t-92.5 137.5t-34 168t34 168t92.5 137.5t137.5 92.5t168 34t168 -34t137.5 -92.5t92.5 -137.5t34 -168t-34 -168t-92.5 -137.5t-137.5 -92.5t-168 -34z" />
</svg>