<svg viewBox="0 0 256 256" xmlns="http://www.w3.org/2000/svg">
  <path transform="scale(1, -1) translate(0, -256)" fill="currentColor" d="M159 189h-62q-11 0 -17 -8.5t-3 -18.5l31 -90q2 -6 7.5 -10t12 -4t12 4t7.5 10l31 90q2 4 1.5 9t-3.5 9q-7 9 -17 9zM166 166l-32 -90q-1 -4 -6 -4t-6 4l-32 90q-1 3 1 6t6 3h62q3 0 5.5 -3t1.5 -6zM128 244q-31 0 -58 -15.5t-42.5 -42.5t-15.5 -58t15.5 -58t42.5 -42.5 t58 -15.5t58 15.5t42.5 42.5t15.5 58t-15.5 58t-42.5 42.5t-58 15.5zM128 26q-28 0 -51.5 13.5t-37 37t-13.5 51.5t13.5 51.5t37 37t51.5 13.5t51.5 -13.5t37 -37t13.5 -51.5t-13.5 -51.5t-37 -37t-51.5 -13.5z" />
</svg>