<svg viewBox="0 0 256 256" xmlns="http://www.w3.org/2000/svg">
  <path transform="scale(1, -1) translate(0, -256)" fill="currentColor" d="M26 203q-3 3 -6.5 3.5t-7 -0.5t-5.5 -4.5t-2 -7.5v-139q0 -5 3.5 -9t9.5 -4h139q4 0 7 2.5t4.5 6t1 7t-3.5 6.5zM19 56v134l134 -134h-134zM50 76h32q4 0 7 2t4.5 5.5t1 7t-3.5 6.5l-33 33q-2 3 -6 3.5t-7 -0.5q-8 -3 -8 -12v-33q0 -5 4 -8.5t9 -3.5zM51 117l27 -27h-27 v27zM240 214h-43q-5 0 -8 -3.5t-3 -8.5v-149q0 -4 3 -7.5t8 -3.5h43q5 0 8 3t3 8v150q0 4 -3 7.5t-8 3.5zM200 56v144h37v-20h-11q-3 0 -5 -2t-2 -5t2 -5t5 -2h11v-16h-3q-3 0 -5 -2.5t-2 -5.5t2 -5t5 -2h3v-16h-11q-3 0 -5 -2t-2 -5t2 -5t5 -2h11v-16h-3q-3 0 -5 -2t-2 -5 t2 -5.5t5 -2.5h3v-19h-37v1z" />
</svg>