<svg viewBox="0 0 1024 1024" xmlns="http://www.w3.org/2000/svg">
  <path transform="scale(1, -1) translate(0, -960)" fill="currentColor" d="M637 680h-250q-18 0 -33 -8t-24 -22q-11 -15 -13.5 -32t3.5 -34l125 -358q7 -22 25.5 -35t41.5 -13t41.5 13t25.5 35l125 360q6 16 3.5 33.5t-13.5 31.5q-10 15 -25 22t-32 7v0zM674 595l-125 -358q-5 -15 -16 -21t-21 -6t-21 5.5t-16 21.5l-125 358q-3 10 -1.5 19.5 t6.5 17.5q6 8 14.5 12t17.5 4h248q10 0 18 -4.5t14 -11.5q6 -8 8 -17.5t-1 -19.5v0zM512 912q-96 0 -180 -36q-85 -37 -148 -100t-99 -147q-37 -85 -37 -181t36 -180q37 -85 100 -148t147 -99q85 -37 181 -37t180 36q85 37 148 100t99 147q37 85 37 181t-36 180 q-37 85 -100 148t-147 99q-85 37 -181 37zM512 16q-89 0 -168 34t-137.5 92.5t-92.5 137.5t-34 168t34 168t92.5 137.5t137.5 92.5t168 34t168 -34t137.5 -92.5t92.5 -137.5t34 -168t-34 -168t-92.5 -137.5t-137.5 -92.5t-168 -34z" />
</svg>