<svg viewBox="0 0 256 256" xmlns="http://www.w3.org/2000/svg">
  <path transform="scale(1, -1) translate(0, -256)" fill="currentColor" d="M151 165q-3 6 -9.5 9.5t-13.5 3.5t-13.5 -3.5t-9.5 -9.5l-28 -47q-3 -7 -3 -14t3.5 -13t9.5 -9.5t13 -3.5h55q7 0 13.5 3.5t10 9.5t3.5 13t-4 14zM166 98q-3 -6 -11 -6h-55q-7 0 -11 6t0 13l28 47q4 7 11 7t11 -7l28 -47q3 -7 -1 -13zM228 251h-200q-10 0 -16.5 -6.5 t-6.5 -16.5v-200q0 -10 7 -16.5t16 -6.5h200q10 0 17 6.5t7 16.5v200q-1 10 -7.5 16.5t-16.5 6.5zM237 28q0 -4 -2.5 -6.5t-6.5 -2.5h-200q-4 0 -6.5 2.5t-2.5 6.5v200q0 4 2.5 6.5t6.5 2.5h200q4 0 6.5 -2.5t2.5 -6.5v-200z" />
</svg>