<svg viewBox="0 0 1024 1024" xmlns="http://www.w3.org/2000/svg">
  <path transform="scale(1, -1) translate(0, -960)" fill="currentColor" d="M594 590q-14 23 -35.5 35.5t-46.5 12.5t-47.5 -12.5t-34.5 -35.5l-110 -190q-13 -23 -13 -48t13 -46q13 -23 34.5 -35.5t47.5 -12.5h219q25 0 47 12.5t34 35.5q14 22 14 47t-14 47zM677 322q-9 -15 -23.5 -23.5t-31.5 -8.5h-220q-17 0 -31.5 8t-23.5 24q-8 15 -8 31.5 t8 30.5l111 190q8 15 22.5 23.5t31.5 8.5t31.5 -8t22.5 -24l111 -190q8 -14 8 -31t-8 -31zM912 928h-800q-34 0 -57 -23t-23 -57v-800q0 -34 23 -57t57 -23h800q34 0 57 23t23 57v800q0 34 -23 57t-57 23zM960 48q0 -20 -14 -34t-34 -14h-800q-20 0 -34 14t-14 34v800 q0 20 14 34t34 14h800q20 0 34 -14t14 -34v-800z" />
</svg>