<svg viewBox="0 0 1024 1024" xmlns="http://www.w3.org/2000/svg">
  <path transform="scale(1, -1) translate(0, -960)" fill="currentColor" d="M314 587q-14 22 -34.5 34.5t-45.5 12.5q-26 0 -47 -12.5t-33 -34.5l-109 -185q-13 -22 -13 -47t13 -46q13 -22 34 -34.5t46 -12.5h214q25 0 46.5 12.5t33.5 34.5q13 21 13 46t-13 47zM392 325q-8 -15 -22 -23t-31 -8h-214q-17 0 -31 8t-22 23q-8 14 -8 30t8 31l107 185 q9 15 22.5 23t30.5 8t30.5 -8t22.5 -23l107 -185q8 -15 8 -31t-8 -30zM979 402l-107 185q-13 22 -34 34.5t-46 12.5t-46.5 -12.5t-33.5 -34.5l-107 -185q-13 -22 -13 -47t13 -46q13 -22 34 -34.5t46 -12.5h214q25 0 46.5 12.5t33.5 34.5q12 21 12.5 46t-12.5 47v0zM952 325 q-8 -15 -22 -23t-31 -8h-214q-17 0 -31 8t-22 23q-8 14 -8 30t8 31l107 185q9 15 22.5 23t30.5 8t30.5 -8t22.5 -23l107 -185q8 -15 8 -31t-8 -30v0z" />
</svg>