<svg viewBox="0 0 256 256" xmlns="http://www.w3.org/2000/svg">
  <path transform="scale(1, -1) translate(0, -256)" fill="currentColor" d="M248 40l-98 198q-3 6 -9 9.5t-13 3.5t-12.5 -3.5t-9.5 -9.5l-98 -198q-6 -12 1 -24q3 -5 8.5 -8t11.5 -3h198q6 0 11.5 3t9.5 8q6 12 0 24zM236 24q-4 -5 -9 -5h-198q-6 0 -9 4.5t0 9.5l99 199q3 5 9 5t9 -6l99 -198q2 -4 0 -9zM156 123q-2 2 -5 2t-5 -2l-18 -18l-18 18 q-2 2 -5 2t-5 -2t-2 -5t2 -5l18 -18l-18 -18q-2 -2 -2 -5t2 -5t5 -2t5 2l18 18l18 -18q2 -2 4.5 -2t4.5 2t2 5t-2 5l-18 18l18 18q3 2 3 5t-2 5z" />
</svg>