<svg viewBox="0 0 256 256" xmlns="http://www.w3.org/2000/svg">
  <path transform="scale(1, -1) translate(0, -256)" fill="currentColor" d="M81 227q-4 6 -10 9.5t-13 3.5t-13 -3.5t-10 -9.5l-27 -47q-3 -6 -3 -13t3.5 -13t9.5 -9.5t13 -3.5h54q7 0 13 3.5t9.5 9.5t3.5 13t-3 13zM96 161q-4 -6 -11 -6h-54q-7 0 -10.5 6t-0.5 13l27 46q4 6 11 6t11 -6l27 -46q3 -7 0 -13zM171 141h54q7 0 13 3.5t9.5 9.5t3.5 13 t-3 13l-27 47q-4 6 -10 9.5t-13 3.5t-13 -3.5t-10 -9.5l-27 -47q-3 -6 -3 -13t3.5 -13t9.5 -9.5t13 -3.5zM160 173l27 47q4 6 11 6t11 -6l27 -47q3 -6 -0.5 -12t-10.5 -6h-54q-7 0 -10.5 6t-0.5 12zM81 102q-4 6 -10 9.5t-13 3.5t-13 -3.5t-10 -9.5l-27 -46q-3 -7 -3 -14 t3.5 -13t9.5 -9.5t13 -3.5h54q7 0 13 3.5t9.5 9.5t3.5 13t-3 14zM96 36q-4 -6 -11 -6h-54q-7 0 -11 6q-1 3 -1 6.5t1 6.5l27 46q4 6 11 6t11 -6l27 -46q3 -7 0 -13zM248 56l-27 46q-4 6 -10 9.5t-13 3.5t-13 -3.5t-10 -9.5l-27 -46q-3 -7 -3 -14t3.5 -13t9.5 -9.5t13 -3.5 h54q7 0 13 3.5t9.5 9.5t3.5 13t-3 14zM235 36q-3 -6 -11 -6h-53q-7 0 -10.5 6.5t-0.5 12.5l27 46q4 6 11 6t11 -6l27 -46q3 -7 -1 -13z" />
</svg>