<svg viewBox="0 0 256 256" xmlns="http://www.w3.org/2000/svg">
  <path transform="scale(1, -1) translate(0, -256)" fill="currentColor" d="M100 67q-5 -2 -7 -6t0 -8.5t6 -6.5t8.5 -0.5t6.5 6t0.5 9t-6 6.5t-8.5 0zM250 116l-3 8q-3 8 -11.5 12t-16.5 1l-21 57q-4 9 -12 13t-17 1l-16 -6l-11 30q-3 8 -11.5 12t-16.5 1l-24 -9q-8 -3 -12 -11.5t0 -16.5l39 -108q-11 4 -23 1l-39 107q-2 6 -6.5 9.5t-10.5 4.5 l-25 4q-3 1 -5 -1t-2.5 -5t1 -5t4.5 -3l25 -3q4 -1 6 -5l40 -108q-15 -8 -21.5 -24t-0.5 -32q5 -14 17 -22t26 -8q9 0 16 3q18 7 26 24q4 8 5 19l74 27l5 -14q2 -4 6 -4h3q2 1 3.5 3.5t0.5 5.5l-5 14q8 3 12 11.5t1 16.5zM174 194q3 2 6 0.5t4 -4.5l22 -58l-75 -28l-24 65 l27 10l6 -16q2 -5 6 -5l3 1q3 1 4 3.5t0 5.5l-6 16zM95 223l5 2l6 -15q1 -4 6 -4h2q3 1 4.5 4t-0.5 5l-5 15l5 2q3 1 6 -0.5t4 -4.5l12 -31l-39 -14l-11 31q-1 3 0.5 6t4.5 4zM114 26q-12 -5 -24 1t-16.5 18.5t1 24.5t17.5 16q6 2 12 2q7 0 13 -2q12 -6 16.5 -18.5t-1 -25 t-18.5 -16.5zM236 105q-1 -2 -4 -4l-84 -31l-1 2q-5 12 -13 18l90 33q3 1 6 0t4 -5l2 -7q2 -3 0 -6z" />
</svg>