<svg viewBox="0 0 1024 1024" xmlns="http://www.w3.org/2000/svg">
  <path transform="scale(1, -1) translate(0, -960)" fill="currentColor" d="M414 -13q-52 0 -97 30.5t-64 83.5q-23 63 2.5 125t85.5 91l-163 438q-4 11 -14 19t-22 10l-97 14q-6 2 -10 7t-3 11q1 7 6.5 11.5t11.5 2.5l97 -14q21 -4 36.5 -16.5t22.5 -31.5l162 -440q26 7 53 6t53 -11l11 5l-163 443q-11 29 2.5 58t41.5 40l93 33q15 5 30 5t28 -6 t23.5 -17.5t16.5 -25.5l49 -133l77 29q15 4 30 4t28 -6t23.5 -17.5t16.5 -25.5l89 -242l12 5q28 11 57 -2.5t40 -42.5l11 -30q5 -15 5 -30t-6 -28t-17.5 -23.5t-25.5 -16.5l-12 -5l26 -67q2 -6 -1 -12t-9 -9q-6 -2 -12 1t-8 9l-26 67l-315 -117q1 -20 -3.5 -40t-12.5 -40 q-15 -31 -40 -54t-58 -35q-15 -4 -30.5 -7t-30.5 -3v0zM414 301q-12 0 -24.5 -2.5t-23.5 -5.5q-54 -21 -78.5 -73.5t-4.5 -107.5q21 -54 73.5 -79t107.5 -4q26 9 47 28t31 45q12 26 13.5 53.5t-8.5 54.5v0q-9 26 -28 46.5t-45 31.5q-15 7 -30 10t-30 3v0zM576 221 q2 -5 3.5 -10t2.5 -11l349 130q9 3 15 9t9 13q4 8 4 16.5t-2 17.5l-11 30q-6 17 -23 24.5t-33 1.5l-378 -140q22 -15 38 -35.5t26 -45.5v0v0zM411 621l104 -283l322 118l-90 242q-3 8 -9 14t-13 10q-9 3 -17 3.5t-17 -2.5l-120 -45l29 -76q2 -6 -1 -12.5t-9 -8.5 q-6 -3 -12 0t-8 9l-29 77l-130 -46v0zM410 851l-32 -11q-17 -6 -24.5 -22.5t-1.5 -33.5l50 -133l147 55v0v0v0v0l29 9l-52 133q-6 17 -22.5 24.5t-33.5 1.5l-30 -12l26 -68q2 -6 -1 -12.5t-9 -8.5q-6 -3 -12 0t-9 9l-25 69v0zM414 98q-19 0 -35.5 11t-23.5 30q-8 24 2.5 48 t34.5 32v0q24 9 48 -2t32 -35t-2.5 -47.5t-34.5 -32.5q-5 -2 -10.5 -3t-10.5 -1v0zM403 189q-12 -5 -17 -16.5t0 -22.5q4 -12 15.5 -17t22.5 0q12 5 17 16t1 22q-4 12 -15.5 17.5t-23.5 0.5v0z" />
</svg>