<svg viewBox="0 0 256 256" xmlns="http://www.w3.org/2000/svg">
  <path transform="scale(1, -1) translate(0, -256)" fill="currentColor" d="M244 57l-50 49q-7 8 -17.5 8t-17.5 -8l-34 34l33 33q5 5 4 11.5t-8 9.5l-131 56q-3 1 -7 0.5t-7 -3t-3.5 -6.5t0.5 -8l56 -131q3 -6 10 -8h2q5 0 9 4l32 32l34 -34q-7 -8 -7 -18t7 -17l49 -49q8 -8 18 -8t18 8l10 10q7 7 7 17.5t-7 17.5zM75 109l-55 127l128 -54zM234 32 l-10 -10q-3 -3 -7.5 -3t-8.5 3l-48 49q-3 3 -3 7.5t3 7.5l10 10q3 3 7.5 3t7.5 -3l49 -49q3 -3 3 -7.5t-3 -7.5z" />
</svg>