<svg viewBox="0 0 1024 1024" xmlns="http://www.w3.org/2000/svg">
  <path transform="scale(1, -1) translate(0, -960)" fill="currentColor" d="M965 155l-197 197q-12 12 -28 19t-33 7t-33 -7t-28 -19l-9 -10l-152 154l142 141q7 7 10 16t1 19t-8 17.5t-14 11.5l-528 224q-11 5 -23 2.5t-20 -10.5q-9 -9 -11 -21t3 -22l224 -525q3 -9 11 -15t18 -8h3.5h4.5q7 0 14.5 3.5t12.5 8.5l137 136l154 -152l-8 -8 q-25 -26 -25 -61.5t25 -60.5l197 -197q12 -12 28 -18.5t33 -6.5q16 0 32 6.5t28 18.5l40 40v0v0q24 24 24 59.5t-25 60.5v0zM302 360q-1 -1 -3 -1.5t-3 -0.5t-2.5 1.5t-2.5 3.5l-225 523q-2 3 -1 5t2 3q1 0 2.5 1t2.5 1h1.5h1.5l527 -224q2 -1 2.5 -2.5t1.5 -2.5v-3t-1 -3 l-303 -301v0zM942 56v0l-40 -40q-15 -16 -38 -16t-38 16l-197 197q-16 15 -16 38t16 39l40 40q7 7 17 11.5t21 4.5t21 -4.5t18 -11.5l196 -197q16 -16 16 -38.5t-16 -38.5v0z" />
</svg>