<svg viewBox="0 0 256 256" xmlns="http://www.w3.org/2000/svg">
  <path transform="scale(1, -1) translate(0, -256)" fill="currentColor" d="M165 251h-74q-9 0 -16 -7t-7 -16v-63q0 -15 10 -27t24 -16l-1 -2q-5 -8 -5 -17t4.5 -17.5t0.5 -17.5l-7 -18q-4 -8 -3 -16.5t5.5 -15t11 -10t13.5 -3.5h13q8 0 14.5 3.5t11 10t5 15t-2.5 16.5l-7 18q-4 9 0.5 17.5t4 17.5t-4.5 17l-2 2q15 4 25 16t10 27v63q0 10 -7 16.5 t-16 6.5zM148 26q-6 -7 -13 -7h-13q-8 0 -13.5 8t-1.5 18l7 19q3 7 2.5 14.5t-3.5 13t-3 11t3 9.5q5 8 13 8h3q9 0 13 -8q3 -4 3 -9.5t-2 -10.5q-4 -6 -4.5 -13.5t2.5 -14.5l7 -19q3 -4 2.5 -9.5t-2.5 -9.5zM174 166q0 -13 -9 -22t-22 -9h-30q-13 0 -22 9t-9 22v62 q0 4 3 6.5t7 2.5h73q3 0 6 -2.5t3 -6.5v-62z" />
</svg>