<svg viewBox="0 0 1024 1024" xmlns="http://www.w3.org/2000/svg">
  <path transform="scale(1, -1) translate(0, -960)" fill="currentColor" d="M659 928h-294q-34 0 -57 -23t-23 -57v-250q0 -63 43 -110t104 -54q-5 -5 -10.5 -11t-8.5 -13q-17 -28 -18 -61.5t15 -62.5q9 -18 10.5 -38.5t-6.5 -39.5l-28 -74q-12 -28 -9 -59.5t21 -56.5q16 -23 39 -35.5t49 -12.5h53q27 0 50 12.5t38 35.5q18 25 21 56.5t-8 59.5 l-29 74q-7 19 -6 39.5t11 38.5q16 29 15 62.5t-18 61.5q-4 7 -8.5 13t-10.5 11q62 7 104.5 54t42.5 110v250q-1 34 -25 57t-57 23v0zM586 301q-14 -24 -15 -52.5t10 -53.5l29 -73q8 -22 5.5 -45.5t-15.5 -42.5q-11 -16 -27 -25t-34 -9h-53q-18 0 -34 9t-26 25q-14 19 -16 42 t6 46l29 73q9 25 8 53.5t-15 52.5q-12 21 -11 46t15 47q10 18 27 28t37 10h12q20 0 37 -10t27 -28q14 -22 14 -47t-10 -46zM707 598q0 -55 -39 -94.5t-95 -39.5h-122q-55 0 -94.5 39t-39.5 95v250q0 20 13.5 34t34.5 14h293q20 0 34 -14t14 -34v-250h1z" />
</svg>