<svg viewBox="0 0 256 256" xmlns="http://www.w3.org/2000/svg">
  <path transform="scale(1, -1) translate(0, -256)" fill="currentColor" d="M46 4q-10 0 -18 7q-5 6 -6.5 13t0.5 14l43 108q2 6 7 10t11.5 5.5t12.5 -0.5t10 -7l22 -22v18q0 3 2 5l23 23l-3 2q-6 6 -6 14t6 14l38 38q6 6 14 6t14 -6l14 -14q6 -6 6 -14t-6 -13l-38 -39q-6 -4 -14 -4t-14 5l-1 1l-20 -20v-30l31 -31q4 -4 6 -10.5t0.5 -12.5 t-5.5 -11t-11 -7l-109 -40q-5 -2 -9 -2zM89 149q-2 0 -3 -1q-6 -1 -8 -6l-42 -108q-3 -7 2 -12.5t12 -2.5l109 40q6 2 7.5 8t-2.5 11l-29 28l-17 -16q-2 -2 -4.5 -2t-5 2t-2.5 4.5t2 5.5l17 16l-28 30q-3 3 -8 3zM162 52zM198 237l-38 -39q-2 -1 -2 -3t2 -4l14 -14 q2 -2 4 -2t4 2l38 38q1 2 1 4t-1 3l-14 15q-2 1 -4 1t-4 -1z" />
</svg>