<svg viewBox="0 0 1024 1024" xmlns="http://www.w3.org/2000/svg">
  <path transform="scale(1, -1) translate(0, -960)" fill="currentColor" d="M184 -37q-18 0 -34.5 7t-29.5 20q-19 20 -24 45.5t5 50.5l169 432q9 22 26 36.5t40 18.5q23 5 44.5 -2t37.5 -24l107 -110v102q0 4 1 6.5t4 4.5l97 98l-21 21q-9 9 -14 21t-5 24t5 24t14 20l154 154q10 10 21.5 14.5t23.5 4.5t24 -4.5t21 -14.5l57 -58q19 -19 19 -45.5 t-19 -45.5l-153 -153q-20 -20 -46 -20t-46 20l-14 14l-94 -94v-130l126 -130q16 -16 22.5 -38t1.5 -43q-5 -23 -19.5 -40t-36.5 -24v0l-432 -155q-7 -4 -15.5 -5.5t-16.5 -1.5v0zM355 542h-5.5t-5.5 -1q-14 -3 -25.5 -12.5t-16.5 -22.5l-169 -432q-7 -20 -2 -36t15 -25 q9 -10 25 -15.5t35 0.5l436 162q13 5 23 16t13 26q4 14 0 28t-14 24l-122 125l-78 -77q-5 -4 -11.5 -4t-10.5 4q-5 5 -5 11.5t5 11.5l76 77l-121 124q-9 8 -20 12t-22 4v0zM646 144v0v0zM786 891l-154 -153q-5 -5 -7.5 -11t-2.5 -12t2.5 -11.5t7.5 -10.5l58 -58q9 -9 22 -9 t22 9l154 154q10 9 10 22t-10 23l-58 57q-9 10 -22.5 10t-21.5 -10v0z" />
</svg>