<svg viewBox="0 0 1024 1024" xmlns="http://www.w3.org/2000/svg">
  <path transform="scale(1, -1) translate(0, -960)" fill="currentColor" d="M989 418l-115 166q-3 4 -6.5 5t-6.5 1h-194v53q0 35 -25 60t-60 25h-128q-7 0 -11.5 -4.5t-4.5 -11.5t4.5 -11.5t11.5 -4.5h128q22 0 37.5 -15.5t15.5 -37.5v-480h-187q-2 33 -26.5 56t-58.5 23q-33 0 -57.5 -23t-27.5 -56h-126q-22 0 -37.5 15.5t-15.5 37.5v221 q0 7 -4.5 11.5t-11.5 4.5t-11.5 -4.5t-4.5 -11.5v-223q0 -34 25 -59t60 -25h130q8 -27 30 -44t51 -17t51 17t31 44h275q8 -27 30.5 -44t51.5 -17q28 0 50.5 17t30.5 44h93q7 0 11.5 4t4.5 12v262q0 2 -1 4.5t-2 5.5zM853 560l101 -147h-287v147h186zM363 102q-21 0 -37 16 t-16 37q0 22 16 37.5t37 15.5q22 0 37.5 -15.5t15.5 -37.5q0 -21 -15.5 -37t-37.5 -16zM802 102q-22 0 -37.5 16t-15.5 37q0 22 15.5 37.5t37.5 15.5q21 0 36.5 -15.5t15.5 -37.5q0 -21 -15.5 -37t-36.5 -16zM886 162q-2 32 -26.5 55t-57.5 23q-34 0 -58.5 -23t-26.5 -55 h-51v219h294v-219h-74v0zM80 568q0 -4 2 -7l4 -6q3 -2 7 -2.5t8 1.5l73 22l74 -22h2.5h2.5q2 0 4.5 1t4.5 2q4 2 5.5 5.5t1.5 7.5l1 76l45 63q3 3 3 7t-1 7q-1 4 -3.5 6.5t-6.5 3.5l-73 24l-47 62q-5 6 -13 6t-12 -6l-47 -62l-73 -24q-4 -1 -6.5 -3.5t-3.5 -6.5 q-1 -3 -0.5 -7t2.5 -7l46 -64v-77v0zM131 730q3 1 5 2.5t3 3.5l37 48l37 -48q1 -2 3 -3.5t5 -2.5l57 -20l-35 -49q-1 -3 -2 -5t-1 -5v-61l-61 18h-2h-3h-2h-2l-58 -18v61q0 3 -1 5t-2 5l-35 49l57 20v0z" />
</svg>