<svg viewBox="0 0 1024 1024" xmlns="http://www.w3.org/2000/svg">
  <path transform="scale(1, -1) translate(0, -960)" fill="currentColor" d="M987 517l-89 163q-5 7 -12.5 11.5t-16.5 4.5h-123q-16 0 -26.5 -10.5t-10.5 -26.5v-139h-72l-71.5 65t-75.5 68q-18 17 -36 32.5t-33 29.5q-9 9 -19 12t-20 1q-7 -1 -13 -5t-11 -8q-6 -6 -11.5 -12t-10.5 -12q-7 -8 -14.5 -16t-15.5 -13q-8 -3 -16 -4.5t-18 -1.5 q-2 0 -5 1t-6 1q-10 1 -21.5 1.5t-23.5 -5.5q-11 -6 -19.5 -14t-15.5 -16l-3 -5q-16 -18 -32 -39t-32 -49l-4 -3q-1 -1 -1 -3v-3h-7q-12 0 -22 -8t-13 -20l-32 -120q-2 -8 0 -17t8 -16l61 -72q5 -6 12.5 -9.5t16.5 -3.5h38q6 -37 35 -62.5t68 -25.5q28 0 52 14t37 37 q13 -23 37 -37t53 -14q38 0 67 25.5t35 62.5h111q6 -37 35 -62.5t67 -25.5t67 25.5t35 62.5h44q7 0 13.5 2.5t10.5 7.5l41 36q6 5 9.5 12.5t3.5 15.5v169q0 5 -1 9.5t-4 8.5v0zM747 666h123l79 -144h-207v139q0 1 1.5 3t3.5 2zM202 598l4 5q6 7 12.5 13.5t13.5 9.5q5 2 11 2 t15 -2q3 0 6 -1t6 -1q14 -1 27.5 2t25.5 9q12 7 21 16.5t18 18.5q4 6 9 11l10 10q2 3 4.5 4t3.5 1q2 0 4.5 -1t6.5 -4q16 -14 33.5 -29.5t35.5 -32.5q30 -27 61.5 -55.5t59.5 -55.5h-446q16 26 29.5 45.5t28.5 34.5zM270 198q-30 0 -51 21t-21 51t21 51t51 21t51 -21t21 -51 t-21 -51t-51 -21zM450 198q-30 0 -51 21t-21 51t21 51t51 21t51 -21t21 -51t-21 -51t-51 -21zM766 198q-30 0 -51 21t-21 51t21 51t51 21t51 -21t21 -51t-21 -51t-51 -21zM958 325l-41 -37l-1 -1t-2 -1h-44q-6 38 -35 63t-67 25t-67 -25t-35 -63h-111q-6 38 -35 63t-67 25 q-29 0 -53 -14t-37 -37q-13 23 -37 37t-52 14q-39 0 -68 -25t-35 -63h-41q-2 0 -3 0.5t-1 1.5l-60 72q-2 1 -2 2.5v2.5l32 120q0 1 2 2t3 1h529v0v0v0v0h330v-160v-2t-2 -1z" />
</svg>