<svg viewBox="0 0 256 256" xmlns="http://www.w3.org/2000/svg">
  <path transform="scale(1, -1) translate(0, -256)" fill="currentColor" d="M250 102l-25 36q-2 3 -5 3h-38v7q0 9 -6.5 15.5t-15.5 6.5h-27q-3 0 -5 -2.5t-2 -5.5t2 -5t5 -2h27q3 0 5.5 -2t2.5 -5v-100h-33q-2 8 -8 12.5t-13.5 4.5t-13.5 -4.5t-8 -12.5h-23q-3 0 -5.5 2.5t-2.5 5.5v48q0 3 -2 5t-5 2t-5 -2t-2 -5v-47q0 -9 6 -15.5t15 -6.5h26 q2 -6 7.5 -9.5t12 -3.5t11.5 3.5t8 9.5h53q3 -6 8.5 -9.5t12 -3.5t11.5 3.5t8 9.5h18q3 0 5 2t2 5v56q0 2 -1 4zM216 126l16 -24h-50v24h34zM114 36q-4 0 -6 2.5t-2 5.5t2.5 5.5t5.5 2.5t5 -2.5t2 -5.5t-2 -5.5t-5 -2.5zM207 36q-3 0 -5.5 2.5t-2.5 5.5t2.5 5.5t5.5 2.5 t5 -2.5t2.5 -5.5t-2 -5.5t-5.5 -2.5zM228 49q-2 8 -8 12.5t-13.5 4.5t-13.5 -4.5t-7 -12.5h-4v39h55v-39h-9zM116 178q0 15 -7.5 28t-20 20.5t-28 7.5t-28 -7.5t-20 -20.5t-7.5 -28t7.5 -27.5t20.5 -20t28 -7.5t27.5 7.5t20 20t7.5 27.5zM19 178q0 18 12 30t29.5 12 t29.5 -12t12 -29.5t-12 -29.5t-29.5 -12t-29.5 12t-12 29zM78 157q3 0 5 2.5t1.5 5.5t-2.5 5l-14 10v18q0 3 -2 5t-5 2t-5 -2t-2 -5v-22q0 -4 3 -6l17 -12q2 -1 4 -1z" />
</svg>