<svg viewBox="0 0 256 256" xmlns="http://www.w3.org/2000/svg">
  <path transform="scale(1, -1) translate(0, -256)" fill="currentColor" d="M250 124l-30 43q-2 3 -6 3h-48v11q0 10 -7 17.5t-17 7.5h-34q-3 0 -5 -2.5t-2 -5.5t2 -4.5t5 -1.5h34q4 0 7 -3t3 -8v-123h-43q-1 9 -8 15t-16 6t-16 -6t-9 -15h-30q-5 0 -8 3.5t-3 7.5v58q0 3 -2 5t-5 2t-5 -2t-2 -5v-57q0 -11 7 -18t18 -7h31q3 -7 9.5 -11.5t14 -4.5 t14 4.5t9.5 11.5h67q3 -7 9.5 -11.5t14 -4.5t14 4.5t9.5 11.5h22q3 0 5 2t2 5v68q0 1 -1 4zM210 156l23 -32h-67v32h44zM85 43q-5 0 -8 3t-3 7.5t3 7.5t7.5 3t8 -3t3.5 -7.5t-3.5 -7.5t-7.5 -3zM199 43q-5 0 -8 3t-3 7.5t3 7.5t7.5 3t8 -3t3.5 -7.5t-3.5 -7.5t-7.5 -3z M223 58q-1 9 -8 15t-16 6t-16 -6t-9 -15h-7v52h70v-52h-14zM38 163q10 0 18 5l17 -18q2 -2 4.5 -2t5 2t2.5 5t-3 5l-17 18q6 9 4.5 20.5t-10 20t-21.5 8.5t-22.5 -9.5t-9.5 -23t9.5 -22.5t22.5 -9zM25 208q5 5 13 5t13 -5t5 -13t-5.5 -13t-13 -5t-12.5 5t-5 13t5 13z" />
</svg>