<svg viewBox="0 0 1024 1024" xmlns="http://www.w3.org/2000/svg">
  <path transform="scale(1, -1) translate(0, -960)" fill="currentColor" d="M989 424l-120 173q-3 3 -6 4.5t-7 1.5h-202v56q0 36 -26 62t-62 26h-134q-7 0 -11.5 -4.5t-4.5 -11.5t4.5 -11.5t11.5 -4.5h134q23 0 39.5 -16.5t16.5 -39.5v-502h-195q-2 33 -27.5 57t-60.5 24t-60 -23t-28 -58h-131q-23 0 -39.5 16.5t-16.5 39.5v232q0 7 -4.5 11.5 t-11.5 4.5t-11.5 -4.5t-4.5 -11.5v-231q0 -36 26 -62t62 -26h134q9 -27 32 -44.5t53 -17.5t53.5 17.5t31.5 44.5h288q8 -27 31.5 -44.5t53.5 -17.5t53 17.5t32 44.5h94q7 0 11.5 4.5t4.5 11.5v272q0 3 -1 5.5t-2 4.5v0zM848 573l106 -154h-300v154h194v0zM339 94 q-23 0 -39.5 17t-16.5 39q0 23 16.5 39.5t39.5 16.5t39.5 -16.5t16.5 -39.5q0 -22 -16.5 -39t-39.5 -17zM795 94q-23 0 -39.5 17t-16.5 39q0 23 16.5 39.5t39.5 16.5t39.5 -16.5t16.5 -39.5q0 -22 -16.5 -39t-39.5 -17zM883 158q-2 34 -27.5 58t-60.5 24t-60 -23.5 t-28 -58.5h-53v229h306v-229h-77v0zM154 598q19 0 36.5 6t33.5 18l77 -76q2 -3 5.5 -4t5.5 -1t5.5 1t5.5 4q5 4 5 10.5t-5 11.5l-77 77q27 35 24.5 78.5t-35.5 74.5q-33 34 -82 34t-83 -34q-33 -33 -33 -82t33 -82q17 -17 39 -26.5t45 -9.5v0zM93 776q12 12 28 19t33 7 q16 0 31.5 -6.5t28.5 -19.5q26 -25 26 -60t-26 -60q-25 -25 -59.5 -25t-60.5 25q-25 25 -25.5 60t24.5 60v0z" />
</svg>