<svg viewBox="0 0 256 256" xmlns="http://www.w3.org/2000/svg">
  <path transform="scale(1, -1) translate(0, -256)" fill="currentColor" d="M250 114l-30 42q-2 4 -5 4h-47v10q0 11 -7.5 18t-17.5 7h-33q-3 0 -5 -2t-2 -5t2 -5t5 -2h33q5 0 8 -3.5t3 -7.5v-120h-42q-1 8 -8 14t-16 6t-15.5 -5.5t-8.5 -14.5h-30q-4 0 -7 3t-3 8v56q0 3 -2.5 5t-5.5 2t-5 -2t-2 -5v-56q0 -10 7.5 -17.5t17.5 -7.5h31q3 -7 9 -11 t13.5 -4t14 4t8.5 11h66q3 -7 9.5 -11t14 -4t13.5 4t9 11h22q3 0 5 2t2 5v67q0 2 -1 4zM211 145l21 -31h-64v31h43zM88 35q-4 0 -7.5 3t-3.5 7.5t3.5 7.5t7.5 3t7.5 -3t3.5 -7.5t-3 -7.5t-8 -3zM200 35q-5 0 -8 3t-3 7.5t3 7.5t7.5 3t7.5 -3t3 -7.5t-3 -7.5t-7 -3zM224 50 q-2 8 -8.5 14t-15.5 6t-15.5 -5.5t-8.5 -14.5h-8v50h69v-50h-13zM78 145q3 0 5 2t2 5v38q0 3 -2 5.5t-5 2.5h-7v12q0 10 -7.5 17.5t-18 7.5t-18 -7.5t-7.5 -17.5v-12h-8q-3 0 -5 -2.5t-2 -5.5v-38q0 -3 2 -5t5 -2h66zM33 210q0 4 3.5 7.5t8.5 3.5t8 -3.5t3 -7.5v-12h-23v12z M19 183h52v-24h-52v24z" />
</svg>