<svg viewBox="0 0 256 256" xmlns="http://www.w3.org/2000/svg">
  <path transform="scale(1, -1) translate(0, -256)" fill="currentColor" d="M250 122l-29 42q-2 3 -6 3h-45v11q0 10 -7.5 17t-17.5 7h-32q-3 0 -5 -2t-2 -5t2 -5t5 -2h32q4 0 7.5 -3.5t3.5 -7.5v-117h-41q-2 8 -8.5 13.5t-15.5 5.5t-15.5 -5.5t-8.5 -13.5h-29q-4 0 -7 3t-3 7v55q0 3 -2 5t-5 2t-5 -2t-2 -5v-55q0 -11 7 -18t17 -7h30q3 -7 9 -11 t13.5 -4t13.5 4t9 11h65q2 -7 8.5 -11t13.5 -4t13.5 4t8.5 11h22q3 0 5 2t2 5v66q0 2 -1 4zM212 153l21 -31h-63v31h42zM91 44q-4 0 -7.5 3.5t-3.5 7.5t3.5 7t7.5 3t7 -3t3 -7t-3 -7.5t-7 -3.5zM200 44q-4 0 -7 3.5t-3 7.5t3 7t7.5 3t7.5 -3t3 -7t-3 -7.5t-8 -3.5zM224 60 q-1 8 -8 13.5t-15.5 5.5t-15.5 -5.5t-9 -13.5h-6v48h67v-48h-13zM17 158q0 -4 2.5 -5.5t4.5 -1.5t2 1l18 5l17 -5q3 -2 6 0.5t3 5.5v19l11 15q2 3 1 6t-4 4l-18 6l-10 15q-2 3 -5.5 3t-6.5 -3l-11 -15l-17 -6q-4 -1 -5 -4t1 -7l11 -15v-18zM34 195q2 1 3 3l7 8l6 -8 q2 -2 4 -3l10 -3l-6 -10q-2 -1 -2 -4v-11l-12 4q-2 0 -2 -1l-11 -3v11q0 3 -1 4l-7 10z" />
</svg>