<svg viewBox="0 0 256 256" xmlns="http://www.w3.org/2000/svg">
  <path transform="scale(1, -1) translate(0, -256)" fill="currentColor" d="M58 122h3q2 0 6 2l38 19q4 2 6.5 6t2.5 8v44q0 4 -3 9l-1 1q-3 4 -6 5l-38 18q-7 3 -14 0l-38 -18q-3 -2 -6 -5v-2q-3 -3 -3 -8v-44q0 -4 2.5 -8t6.5 -6l38 -19zM37 211l30 -15l-8 -4l-31 15zM98 155l-32 -16v41l10 4v-9q0 -3 2 -5t5 -2t5 2t2 5v16l10 5v-39zM59 221h1 l30 -14l-7 -3l-30 14l5 3h1zM20 155q-1 1 -1 2v39l33 -16v-41zM250 99l-24 34q-2 3 -6 3h-36v8q0 9 -6.5 15t-15.5 6h-26q-3 0 -5.5 -2t-2.5 -5t2.5 -5t5.5 -2h26q3 0 5.5 -2t2.5 -5v-97h-32q-2 7 -8 12t-13.5 5t-13 -5t-7.5 -12h-23q-3 0 -5 2t-2 5v47q0 3 -2 5t-5 2t-5 -2 t-2 -5v-46q0 -9 6 -15t15 -6h25q2 -6 7.5 -9.5t11.5 -3.5t11.5 3.5t7.5 9.5h52q2 -6 7.5 -9.5t11.5 -3.5t11.5 3.5t7.5 9.5h18q3 0 5 2t2 5v54q0 1 -1 4zM216 122l16 -22h-48v22h32zM117 35q-3 0 -5 2t-2 5t2 5.5t5 2.5t5 -2.5t2 -5.5t-2 -5t-5 -2zM208 35q-3 0 -5 2t-2 5 t2 5.5t5 2.5t5 -2.5t2 -5.5t-2 -5t-5 -2zM228 48q-1 7 -7 11.5t-13.5 4.5t-13 -4.5t-7.5 -11.5h-4v38h53v-38h-8z" />
</svg>