<svg viewBox="0 0 1024 1024" xmlns="http://www.w3.org/2000/svg">
  <path transform="scale(1, -1) translate(0, -960)" fill="currentColor" d="M350 458q34 0 54.5 17t24.5 48l21 131q2 18 -4 36t-20 30q-10 8 -21.5 12t-23.5 4h-59v43q0 23 -7.5 39.5t-21.5 26.5q-9 6 -19.5 9.5t-23.5 3.5q-10 0 -21 -2t-13 -2q-8 -2 -13 -8.5t-5 -15.5v-67q0 -19 -12 -31t-24 -18q-2 4 -6 6.5t-9 2.5h-99q-7 0 -11.5 -4.5 t-4.5 -11.5v-238q0 -7 4.5 -11.5t11.5 -4.5h101q5 0 9 2.5t5 6.5q6 -2 12 -3t12 -1h163v0zM232 763v61q4 1 9 1.5t10 0.5q7 0 13 -1.5t11 -5.5q7 -6 11 -15.5t4 -24.5v-59q0 -7 4 -11.5t12 -4.5h75q6 0 12 -2.5t12 -7.5q7 -6 10.5 -15.5t2.5 -19.5l-21 -131 q-3 -23 -17.5 -30.5t-29.5 -7.5h-163q-6 0 -11.5 2t-10.5 6v180q21 9 44 29.5t23 55.5zM133 485h-69v206h69v-206v0zM989 342l-99 144q-3 4 -6.5 5.5t-6.5 1.5h-167v43q0 31 -22 53t-53 22h-112q-7 0 -11.5 -4.5t-4.5 -11.5t4.5 -11.5t11.5 -4.5h112q18 0 30.5 -12.5 t12.5 -30.5v-414h-156q-4 28 -25 47.5t-51 19.5t-50.5 -20t-24.5 -47h-107q-18 0 -30.5 12.5t-12.5 30.5v192q0 7 -4.5 11.5t-11.5 4.5t-11.5 -4.5t-4.5 -11.5v-192q0 -31 22 -53t53 -22h110q8 -23 27.5 -37.5t44.5 -14.5q26 0 45 15t27 37h236q7 -23 26.5 -37.5t45.5 -14.5 q25 0 44 15t28 37h78q7 0 11.5 4t4.5 12v227q0 2 -1 4.5t-2 4.5v0zM867 461l85 -122h-242v122h157v0zM446 70q-18 0 -30.5 13t-12.5 31t12.5 30.5t30.5 12.5t31 -12.5t13 -30.5q1 -18 -12.5 -31t-31.5 -13zM826 70q-18 0 -31 13t-13 31t13 30.5t31 12.5t30.5 -12.5 t12.5 -30.5t-12.5 -31t-30.5 -13zM901 123q-4 28 -25.5 47.5t-49.5 19.5q-29 0 -50.5 -19.5t-25.5 -47.5h-40v184h250v-184h-59v0z" />
</svg>