<svg viewBox="0 0 1024 1024" xmlns="http://www.w3.org/2000/svg">
  <path transform="scale(1, -1) translate(0, -960)" fill="currentColor" d="M987 430l-89 164q-5 7 -12.5 11.5t-16.5 4.5h-123q-16 0 -26.5 -11t-10.5 -26v-139h-95q4 7 7 15t3 17v96q0 26 -19 45t-45 19h-58v128q0 26 -18.5 45t-45.5 19h-195q-26 0 -45 -19t-19 -45v-128h-57q-27 0 -45.5 -19t-18.5 -45v-96q0 -14 4.5 -24.5t12.5 -19.5 q-3 -3 -5 -7t-3 -9l-32 -120q-2 -8 0 -17t8 -16l61 -72q5 -6 12.5 -9.5t16.5 -3.5h38q6 -37 35 -62.5t68 -25.5q28 0 52 14t37 37q13 -23 37 -37t53 -14q38 0 67 25.5t35 62.5h111q6 -37 35 -62.5t67 -25.5t67 25.5t35 62.5h44q7 0 13.5 2.5t10.5 7.5l41 36q6 5 9.5 12.5 t3.5 15.5v171q0 5 -1 9.5t-4 7.5v0zM747 578h123l79 -144h-207v139q0 2 1.5 3.5t3.5 1.5zM592 562v-96q0 -14 -9.5 -23t-22.5 -9h-203v160h203q13 0 22.5 -9.5t9.5 -22.5zM211 754q0 13 9.5 22.5t22.5 9.5h195q14 0 23 -9.5t9 -22.5v-128h-259v128zM90 562q0 13 9 22.5 t23 9.5h203v-160h-205q-13 0 -22.5 9t-9.5 23v96h2zM270 110q-30 0 -51 21t-21 51t21 51t51 21t51 -21t21 -51t-21 -51t-51 -21zM450 110q-30 0 -51 21t-21 51t21 51t51 21t51 -21t21 -51t-21 -51t-51 -21zM766 110q-30 0 -51 21t-21 51t21 51t51 21t51 -21t21 -51t-21 -51 t-51 -21zM958 237l-41 -37l-1 -1t-2 -1h-44q-6 38 -35 63t-67 25t-67 -25t-35 -63h-111q-6 38 -35 63t-67 25q-29 0 -53 -14t-37 -37q-13 23 -37 37t-52 14q-39 0 -68 -25t-35 -63h-41q-2 0 -3 0.5t-1 1.5l-60 72q-2 2 -2 3.5v2.5l32 120q0 2 2 3t3 1h19v0v0h440v0v0h400 v-160v-3t-2 -2v0z" />
</svg>