<svg viewBox="0 0 1024 1024" xmlns="http://www.w3.org/2000/svg">
  <path transform="scale(1, -1) translate(0, -960)" fill="currentColor" d="M989 384l-117 170q-2 3 -5.5 4.5t-7.5 1.5h-198v54q0 36 -25.5 61.5t-61.5 25.5h-131q-7 0 -11.5 -4.5t-4.5 -11.5t4.5 -11.5t11.5 -4.5h131q23 0 39 -16t16 -39v-491h-191q-2 34 -26.5 57t-59.5 23q-34 0 -59 -23t-27 -57h-128q-23 0 -39 16t-16 39v227q0 7 -4.5 11.5 t-11.5 4.5t-11.5 -4.5t-4.5 -11.5v-226q0 -36 25.5 -61t61.5 -25h131q8 -27 30.5 -44t52.5 -17q29 0 52 17t31 44h282q8 -27 30.5 -44t52.5 -17t52.5 17t30.5 44h93q7 0 11.5 4.5t4.5 11.5v267q0 2 -1 4.5t-2 3.5v0zM850 530l104 -151h-293v151h189v0zM352 62 q-23 0 -38.5 16t-15.5 39t15.5 38.5t38.5 15.5t38.5 -15.5t15.5 -38.5t-15.5 -39t-38.5 -16zM798 62q-22 0 -38 16t-16 39t16 38.5t38 15.5q23 0 39 -15.5t16 -38.5t-16 -39t-39 -16zM885 125q-3 33 -27.5 56.5t-59.5 23.5q-34 0 -59 -23.5t-27 -56.5h-51v224h299v-224h-75z M328 544v154q0 7 -4.5 11.5t-11.5 4.5h-40v60q0 38 -27 65t-64 27t-64 -27t-27 -65v-60h-42q-7 0 -11.5 -4.5t-4.5 -11.5v-154q0 -7 4.5 -11.5t11.5 -4.5h264q6 0 11 4.5t5 11.5zM122 774q0 24 17.5 42t41.5 18t41.5 -18t17.5 -42v-60h-118v60v0zM296 560h-232v122h232v-122 z" />
</svg>