<svg viewBox="0 0 1024 1024" xmlns="http://www.w3.org/2000/svg">
  <path transform="scale(1, -1) translate(0, -960)" fill="currentColor" d="M434 658q0 40 -16 76q-15 36 -42 62.5t-63 42.5q-35 15 -76 15t-77 -15t-62.5 -41.5t-42.5 -62.5q-15 -36 -15 -77q0 -42 15 -78q16 -36 42.5 -62.5t62.5 -41.5t77 -15t76 15q36 16 63 42.5t42 62.5q16 36 16 77zM237 493q-17 0 -32.5 3.5t-30.5 9.5l156 112l72 27 q-6 -65 -53 -108.5t-112 -43.5zM237 824q23 0 44 -6t39 -16l-75 -90q-10 -12 -24.5 -13.5t-26.5 7.5l-16 11l-71 38q-1 0 -1.5 0.5l-1.5 1.5q22 30 56.5 48.5t76.5 18.5zM72 658q0 19 4.5 36.5t11.5 33.5l1.5 -1.5l1.5 -1.5l69 -37l14 -10q10 -6 20 -9t20 -3q16 0 30 6 t25 19l77 91q21 -19 35.5 -45.5t18.5 -58.5l-85 -32q-1 0 -2 -0.5l-1 -0.5l-170 -123q-32 22 -51 58t-19 78zM982 342l-99 144q-2 4 -5.5 5.5t-7.5 1.5h-164v43q0 31 -22 53t-54 22h-110q-7 0 -11.5 -4.5t-4.5 -11.5t4.5 -11.5t11.5 -4.5h110q18 0 31 -12.5t13 -30.5v-413 h-157q-4 29 -24.5 48t-50.5 19q-29 0 -50.5 -19t-25.5 -48h-107q-18 0 -30.5 12.5t-12.5 30.5v192q0 8 -4.5 12t-11.5 4t-11.5 -4t-4.5 -12v-190q0 -31 22 -53t53 -22h111q7 -23 26.5 -37t45.5 -14q25 0 44 14.5t28 36.5h235q7 -23 27 -37t45 -14t44 14.5t28 36.5h78 q7 0 11.5 4.5t4.5 11.5v224q-2 2 -2.5 4.5t-2.5 4.5zM861 461l83 -122h-240v122h157v0zM442 72q-18 0 -31 12.5t-13 30.5t13 30.5t31 12.5t30.5 -12.5t12.5 -30.5t-12.5 -30.5t-30.5 -12.5zM819 72q-18 0 -30.5 12.5t-12.5 30.5t12.5 30.5t30.5 12.5t30.5 -12.5t12.5 -30.5 t-12.5 -30.5t-30.5 -12.5zM894 123q-3 29 -24 48t-51 19t-50.5 -19t-24.5 -48h-40v184h248v-184h-58v0z" />
</svg>