<svg viewBox="0 0 1024 1024" xmlns="http://www.w3.org/2000/svg">
  <path transform="scale(1, -1) translate(0, -960)" fill="currentColor" d="M976 349l-98 142q-2 4 -5.5 5.5t-6.5 1.5h-164v43q0 31 -22 53t-53 22h-109q-7 0 -11.5 -4.5t-4.5 -11.5t4.5 -11.5t11.5 -4.5h109q18 0 30.5 -12.5t12.5 -30.5v-408h-153q-4 27 -24.5 47t-49.5 20t-50 -19t-23 -48h-106q-18 0 -30.5 12.5t-12.5 30.5v187q0 7 -4.5 11.5 t-11.5 4.5t-11.5 -4.5t-4.5 -11.5v-187q0 -31 22 -53t53 -22h109q7 -23 26.5 -37t43.5 -14q25 0 44 14t27 37h230q7 -23 26.5 -37t43.5 -14t44 14t27 37h77q7 0 11.5 4.5t4.5 11.5v224q1 1 0.5 3t-2.5 5v0zM858 466l83 -120h-239v120h156v0zM443 82q-18 0 -30.5 12.5 t-12.5 30.5t12.5 30.5t30.5 12.5t30.5 -12.5t12.5 -30.5t-13 -30.5t-30 -12.5zM816 82q-18 0 -30.5 12.5t-12.5 30.5t12.5 30.5t30.5 12.5t30.5 -12.5t12.5 -30.5t-13 -30.5t-30 -12.5zM890 133q-4 27 -24.5 47t-49.5 20t-50 -19t-24 -48h-38v181h245v-181h-59v0zM229 477 q77 0 131 54.5t54 130.5q0 36 -12.5 68t-35.5 56v0.5v0.5v0h-1q-25 28 -60 43.5t-75 15.5q-76 0 -130.5 -54t-54.5 -130q0 -37 13.5 -69.5t37.5 -58.5v0v-1v0v0q26 -27 60 -41.5t73 -14.5v0zM229 509q-28 0 -53.5 9t-44.5 26l221 208q14 -19 22 -42t8 -49q0 -63 -45 -107.5 t-108 -44.5v0zM229 814q29 0 54.5 -10t46.5 -28l-221 -208q-16 19 -25 43.5t-9 50.5q1 63 46 107.5t108 44.5z" />
</svg>