<svg viewBox="0 0 256 256" xmlns="http://www.w3.org/2000/svg">
  <path transform="scale(1, -1) translate(0, -256)" fill="currentColor" d="M250 110l-23 41q-3 5 -9 5h-31q-5 0 -9 -3.5t-4 -8.5v-2h-15v6q0 10 -9 15l-76 44v2q0 12 -8 20.5t-20 8.5t-20.5 -8.5t-8.5 -19.5t6 -18.5t16 -10.5v-12q-6 -2 -9.5 -7t-3.5 -12.5t6 -13.5t14.5 -6t15.5 7q1 2 1 5t-2 5t-5 1.5t-5 -2.5t-5 -2t-4.5 1.5t-1.5 4.5t1.5 4.5 t4.5 1.5t5 2.5t2 5.5v17q11 3 17 13l74 -42q2 -2 2 -4v-5h-15q-7 0 -12 -5l-25 -25h-68q-5 0 -8 -2.5t-4 -6.5l-8 -30q-2 -6 2 -12l15 -18q3 -4 9 -4h8q2 -10 9.5 -16t18.5 -6q14 0 22 11q4 -5 10 -8t12 -3q10 0 18 6.5t10 15.5h23q3 -10 10.5 -16t17.5 -6t18 6.5t10 15.5h9 q4 0 8 3l10 9q4 4 4 10v42q1 3 0 6zM46 194q-6 0 -10.5 4.5t-4.5 10.5t4 10.5t10.5 4.5t10.5 -4.5t4 -10.5t-4 -10.5t-10 -4.5zM216 143l16 -30h-44v30h28zM128 128q1 1 2 1h44v-16h-61zM68 32q-7 0 -11.5 4.5t-4.5 11t4.5 10.5t11 4t11 -4t4.5 -10.5t-4.5 -11t-10.5 -4.5z M112 32q-6 0 -10.5 4.5t-4.5 11t4.5 10.5t11 4t11 -4.5t4.5 -10.5t-4.5 -10.5t-11.5 -4.5zM192 32q-7 0 -11.5 4.5t-4.5 11t4.5 10.5t11 4t11 -4.5t4.5 -10.5t-4.5 -10.5t-10.5 -4.5zM228 54h-8q-3 10 -10.5 16t-18 6t-18 -6t-9.5 -16h-23q-3 10 -10.5 16t-17.5 6 q-14 0 -23 -11q-8 11 -22 11q-11 0 -18.5 -6t-9.5 -16h-7l-14 17l8 28h210v-37z" />
</svg>