<svg viewBox="0 0 256 256" xmlns="http://www.w3.org/2000/svg">
  <path transform="scale(1, -1) translate(0, -256)" fill="currentColor" d="M42 138q1 -1 3 -1l3 1q12 6 21 15q15 16 15 35v26q0 2 -1 3.5t-3 2.5l-33 12h-5l-32 -12q-3 -1 -4 -2.5t-1 -4.5v-26q0 -18 15 -34q9 -9 22 -15zM19 208l26 9l25 -9v-21q0 -12 -9 -23q-7 -7 -16 -12q-10 5 -16 12q-10 11 -10 23v21zM250 117l-30 42q-2 3 -5 3h-46v11 q0 10 -7.5 17t-17.5 7h-32q-3 0 -5.5 -2t-2.5 -5t2.5 -5t5.5 -2h32q4 0 7 -3t3 -8v-119h-41q-2 9 -8.5 14.5t-15.5 5.5t-16 -5.5t-8 -14.5h-29q-5 0 -8 3t-3 8v56q0 3 -2 5t-5 2t-5 -2t-2 -5v-56q0 -10 7 -17t17 -7h31q3 -7 9 -11.5t13.5 -4.5t14 4.5t9.5 11.5h65 q3 -7 9 -11.5t14 -4.5t14 4.5t9 11.5h21q3 0 5 2t2 5v66q0 1 -1 4zM211 148l22 -31h-64v31h42zM89 38q-5 0 -8 3t-3 7.5t3.5 7.5t7.5 3t7 -3t3 -7.5t-3 -7.5t-7 -3zM200 38q-4 0 -7 3t-3 7.5t3 7.5t7 3t7 -3t3 -7.5t-3 -7.5t-7 -3zM224 53q-2 9 -8.5 14.5t-15.5 5.5 t-15.5 -5.5t-8.5 -14.5h-7v50h68v-50h-13z" />
</svg>