<svg viewBox="0 0 256 256" xmlns="http://www.w3.org/2000/svg">
  <path transform="scale(1, -1) translate(0, -256)" fill="currentColor" d="M250 102l-30 44q-2 3 -6 3h-48v11q0 10 -7 17t-17 7h-34q-3 0 -5 -2t-2 -5t2 -5t5 -2h34q4 0 7 -3t3 -8v-123h-43q-1 9 -8 15t-16 6t-16 -6t-9 -15h-30q-4 0 -7.5 3.5t-3.5 7.5v59q0 3 -2 5t-5 2t-5 -2t-2 -5v-58q0 -10 7 -17.5t18 -7.5h31q3 -7 9.5 -11t14 -4t14 4 t9.5 11h67q3 -7 9.5 -11t14 -4t14 4t9.5 11h22q3 0 5 2t2 5v68q0 2 -1 4zM210 135l23 -33h-67v33h44zM85 22q-5 0 -8 3t-3 7.5t3 7.5t7.5 3t8 -3t3.5 -7.5t-3.5 -7.5t-7.5 -3zM199 22q-5 0 -8 3t-3 7.5t3 7.5t7.5 3t8 -3t3.5 -7.5t-3.5 -7.5t-7.5 -3zM223 37q-1 9 -8 15 t-16 6t-16 -6t-9 -15h-7v51h70v-51h-14zM23 229q6 5 15 5t15.5 -6.5t6.5 -15.5t-6.5 -15.5t-15.5 -6.5q-3 0 -5.5 -2.5t-2.5 -5.5v-24q0 -3 2.5 -5.5t5.5 -2.5t5 2.5t2 5.5v18q12 2 20.5 12t8.5 24.5t-10.5 25t-25.5 10.5t-24 -9q-3 -2 -3 -4.5t2 -5t4.5 -2.5t5.5 2zM37 141 q-3 0 -5 -2t-2 -5v-2q0 -3 2 -5t5 -2t5 2t2 5v2q0 3 -2 5t-5 2z" />
</svg>