<svg viewBox="0 0 1024 1024" xmlns="http://www.w3.org/2000/svg">
  <path transform="scale(1, -1) translate(0, -960)" fill="currentColor" d="M261 442l152 76q13 8 21 20t8 27v176q0 15 -9 28.5t-22 19.5l-152 70q-11 5 -22 5t-21 -5l-152 -70q-7 -4 -13 -9t-9 -12v0v0v0v0q-5 -6 -7.5 -12.5t-2.5 -14.5v-176q0 -16 8 -28.5t21 -18.5l152 -76q6 -3 12 -4t12 -1t12 0.5t12 4.5v0zM147 792l149 -74l-59 -28l-152 73 l62 29v0zM398 546l-145 -74v190l62 31v-58q0 -7 4.5 -11.5t11.5 -4.5t11.5 4.5t4.5 11.5v74l63 30v-174q0 -6 -3 -11t-9 -8v0zM229 830q2 0 3.5 1t4.5 1h4.5t3.5 -2l142 -65l-54 -29l-147 74l43 20v0zM75 546q-5 3 -8 8t-3 11v174l157 -77v-188l-146 72v0zM989 325l-96 137 q-3 4 -6 5.5t-7 1.5h-158v43q0 30 -22 52t-52 22h-107q-7 0 -11.5 -4.5t-4.5 -11.5q0 -8 4.5 -12t11.5 -4h107q17 0 29.5 -12.5t12.5 -29.5v-397h-149q-4 28 -24.5 47t-47.5 19q-28 0 -49 -19t-23 -47h-103q-16 0 -28.5 12.5t-12.5 29.5v182q0 7 -4.5 11.5t-11.5 4.5 t-11.5 -4.5t-4.5 -11.5v-184q0 -30 21.5 -51.5t51.5 -21.5h106q7 -22 26 -36t43 -14t42.5 14t26.5 36h225q7 -22 26 -36t43 -14t43 14t26 36h75q7 0 11.5 4t4.5 12v217q0 3 -1 5t-2 5v0zM872 438l80 -115h-229v115h149zM469 64q-17 0 -29.5 12.5t-12.5 29.5q0 16 12.5 28.5 t29.5 12.5t29 -12.5t12 -28.5q0 -17 -12 -29.5t-29 -12.5zM832 64q-17 0 -29.5 12.5t-12.5 29.5q0 16 12.5 28.5t29.5 12.5t29.5 -12.5t12.5 -28.5q0 -17 -12.5 -29.5t-29.5 -12.5zM904 114q-4 27 -24 46t-48 19t-49 -19t-23 -46h-37v176h237v-176h-56z" />
</svg>