<svg viewBox="0 0 1024 1024" xmlns="http://www.w3.org/2000/svg">
  <path transform="scale(1, -1) translate(0, -960)" fill="currentColor" d="M989 357l-103 149q-2 3 -5.5 4.5t-6.5 1.5h-172v45q0 32 -22.5 54.5t-53.5 22.5h-116q-7 0 -11.5 -4.5t-4.5 -11.5q0 -8 4.5 -12t11.5 -4h116q19 0 31.5 -13.5t12.5 -31.5v-427h-163q-3 28 -25 49t-52 21t-51.5 -20t-24.5 -50h-111q-19 0 -32 13t-13 31v199q0 7 -4 11.5 t-12 4.5q-7 0 -11.5 -4.5t-4.5 -11.5v-197q0 -32 23 -54.5t54 -22.5h114q7 -23 27 -38t46 -15q27 0 46.5 15t27.5 38h243q7 -23 27 -38t47 -15q26 0 45.5 15t27.5 38h82q7 0 11.5 4.5t4.5 11.5v234q0 2 -1 4.5t-2 3.5v0zM866 480l88 -126h-252v126h164v0zM432 77 q-19 0 -32 13.5t-13 31.5t13.5 31t31.5 13q19 0 32 -13t13 -31t-13.5 -31.5t-31.5 -13.5zM821 77q-19 0 -32 13.5t-13 31.5t13.5 31t31.5 13t31.5 -13t13.5 -31t-13 -31.5t-32 -13.5zM898 131q-4 29 -25.5 50t-51.5 21t-51.5 -20.5t-25.5 -50.5h-42v191h258v-191h-62v0z M430 502q11 18 11.5 38.5t-9.5 38.5l-128 232q-11 19 -29 29.5t-40 10.5q-21 0 -39.5 -10.5t-29.5 -29.5l-124 -232q-10 -18 -10 -38.5t11 -38.5t28.5 -28t38.5 -10h253q21 0 39 10t28 28zM70 518q-6 11 -6 22.5t6 22.5l127 232q6 11 16.5 17.5t23.5 6.5t23.5 -6.5 t16.5 -17.5l126 -232q6 -11 6 -22.5t-6 -22.5q-6 -10 -16.5 -16t-23.5 -6h-253q-13 0 -23.5 6t-16.5 16v0zM237 709q-7 0 -11.5 -4.5t-4.5 -11.5v-29q0 -7 4.5 -11.5t11.5 -4.5t11.5 4.5t4.5 11.5v29q0 7 -5 11.5t-11 4.5zM237 594q-7 0 -11.5 -5t-4.5 -11t4.5 -11t11.5 -5 t11.5 4t4.5 12v1q0 6 -5 10.5t-11 4.5z" />
</svg>