<svg viewBox="0 0 256 256" xmlns="http://www.w3.org/2000/svg">
  <path transform="scale(1, -1) translate(0, -256)" fill="currentColor" d="M247 105l-25 35q-2 4 -5 4h-38v7q0 9 -6 15.5t-15 6.5h-28q-3 0 -5 -2t-2 -5t2 -5.5t5 -2.5h28q3 0 5 -2t2 -5v-99h-33q-1 7 -7 12t-14 5t-14 -5t-7 -12h-24q-3 0 -5.5 2.5t-2.5 5.5v47q0 3 -2 5t-5 2t-5 -2t-2 -5v-47q0 -9 6.5 -15.5t15.5 -6.5h25q3 -5 8 -8.5 t11.5 -3.5t12 3.5t7.5 8.5h54q3 -5 8 -8.5t11.5 -3.5t12 3.5t7.5 8.5h17q3 0 5.5 2.5t2.5 5.5v56q0 1 -1 3zM213 130l16 -24h-50v24h34zM111 39q-3 0 -5.5 2.5t-2.5 5.5t2.5 5t5.5 2t5 -2t2 -5t-2 -5.5t-5 -2.5zM204 39q-3 0 -5.5 2.5t-2.5 5.5t2.5 5t5.5 2t5.5 -2t2.5 -5 t-2.5 -5.5t-5.5 -2.5zM225 52q-2 7 -8 12t-13.5 5t-13.5 -5t-8 -12h-4v39h56v-39h-9zM57 132q21 0 35 14.5t14 34t-12 33.5l-1 2q-7 7 -16 11t-19 4q-21 0 -35.5 -14.5t-14.5 -34.5t14 -34v-1q7 -7 16 -11t19 -4zM57 146q-10 0 -20 6l50 48q5 -9 5 -18q0 -15 -10 -25.5 t-25 -10.5zM57 217q12 0 21 -7l-50 -48q-6 9 -6 20q0 14 10.5 24.5t24.5 10.5z" />
</svg>