<svg viewBox="0 0 1024 1024" xmlns="http://www.w3.org/2000/svg">
  <path transform="scale(1, -1) translate(0, -960)" fill="currentColor" d="M989 339l-120 173q-3 4 -6 5t-7 1h-202v56q0 36 -26 62t-62 26h-134q-7 0 -11.5 -4t-4.5 -12q0 -7 4.5 -11.5t11.5 -4.5h134q23 0 39.5 -16.5t16.5 -39.5v-502h-195q-2 34 -27.5 58t-60.5 24t-60 -23.5t-28 -58.5h-131q-23 0 -39.5 16.5t-16.5 39.5v230q0 8 -4.5 12 t-11.5 4t-11.5 -4t-4.5 -12v-230q0 -36 26 -62t62 -26h134q9 -28 32 -45t53 -17t53.5 17t31.5 45h288q8 -28 31.5 -45t53.5 -17t53 17t32 45h94q7 0 11.5 4.5t4.5 11.5v274q0 2 -1 4.5t-2 4.5v0zM848 486l106 -153h-300v153h194v0zM339 10q-23 0 -39.5 16.5t-16.5 39.5 q0 22 16.5 39t39.5 17t39.5 -17t16.5 -39q0 -23 -16.5 -39.5t-39.5 -16.5zM795 10q-23 0 -39.5 16.5t-16.5 39.5q0 22 16.5 39t39.5 17t39.5 -17t16.5 -39q0 -23 -16.5 -39.5t-39.5 -16.5zM883 72q-2 34 -27.5 58t-60.5 24t-60 -23.5t-28 -58.5h-53v229h306v-229h-77v0z M83 861q15 12 32 18.5t35 6.5q42 0 71.5 -29t29.5 -71t-29.5 -71.5t-71.5 -29.5q-7 0 -11.5 -4.5t-4.5 -11.5v-99q0 -8 4.5 -12t11.5 -4q8 0 12 4t4 12v84q50 6 83.5 44t33.5 89q0 55 -38.5 94t-94.5 39q-24 0 -47 -8.5t-41 -25.5q-4 -4 -4.5 -10.5t3.5 -11.5q3 -7 10 -7.5 t12 4.5v0zM149 486q-7 0 -11.5 -4t-4.5 -12v-6q0 -7 4.5 -11.5t11.5 -4.5t11.5 4.5t4.5 11.5v6q0 8 -5 12t-11 4z" />
</svg>