<svg viewBox="0 0 1024 1024" xmlns="http://www.w3.org/2000/svg">
  <path transform="scale(1, -1) translate(0, -960)" fill="currentColor" d="M171 498q3 -2 4.5 -2h3.5h4.5t3.5 2q24 12 81.5 59.5t57.5 128.5v104q0 5 -3 9.5t-8 5.5l-131 46q-2 1 -5 1t-6 -1l-130 -46q-5 -1 -8 -5.5t-3 -9.5v-104q0 -82 57.5 -129t81.5 -59zM64 779l115 40l115 -40v-93q0 -63 -44 -102.5t-71 -53.5q-26 14 -70.5 53.5 t-44.5 102.5v93v0zM989 397l-117 169q-2 4 -5.5 5.5t-7.5 1.5h-197v54q0 36 -25 61.5t-61 25.5h-131q-7 0 -11.5 -4.5t-4.5 -11.5q0 -8 4.5 -12t11.5 -4h131q23 0 38.5 -16t15.5 -39v-489h-188q-3 33 -27.5 56.5t-57.5 23.5q-34 0 -58.5 -23.5t-26.5 -56.5h-128 q-23 0 -38.5 15.5t-15.5 38.5v224q0 7 -4.5 11.5t-11.5 4.5q-8 0 -12 -4.5t-4 -11.5v-224q0 -36 25 -61t61 -25h131q9 -27 31 -44t51 -17t51 17t30 44h282q8 -27 30.5 -44t51.5 -17q28 0 50.5 17t30.5 44h93q7 0 11.5 4t4.5 12v265q0 3 -1 5t-2 5v0zM851 541l103 -149h-292 v149h189zM355 77q-23 0 -38.5 15.5t-15.5 38.5t15.5 39t38.5 16t39 -16t16 -39t-16 -38.5t-39 -15.5zM800 77q-23 0 -38.5 15.5t-15.5 38.5t15.5 39t38.5 16t38.5 -16t15.5 -39t-16 -38.5t-38 -15.5zM885 138q-3 33 -27 56.5t-58 23.5t-58 -23.5t-27 -56.5h-51v222h296v-222 h-75z" />
</svg>