<svg viewBox="0 0 256 256" xmlns="http://www.w3.org/2000/svg">
  <path transform="scale(1, -1) translate(0, -256)" fill="currentColor" d="M250 147l-23 41q-3 5 -9 5h-31q-5 0 -9 -3.5t-4 -8.5v-32h-14l-53 48q-6 5 -11 4.5t-8 -4.5l-7 -6q-4 -5 -6.5 -6.5t-6.5 -1.5l-3 1q-8 1 -12.5 -1.5t-9.5 -8.5l-1 -1q-8 -9 -16 -23l-1 -1q-4 -1 -7.5 -3.5t-3.5 -5.5l-8 -30q-2 -6 2 -12l15 -18q4 -4 10 -4h7 q2 -10 10 -16t18 -6q14 0 22 11q4 -5 10 -8t13 -3q10 0 18 6.5t10 15.5h23q2 -10 9.5 -16t18 -6t18 6.5t10.5 15.5h8q5 0 8 3l10 9q4 4 4 10v43q1 2 0 6zM216 179l16 -30h-44v30h28zM52 164l2 1l1 1l4 4t5 0h3q8 -1 15 3q4 2 10 8l6 7l42 -38h-98q6 8 10 14zM68 68 q-7 0 -11.5 4.5t-4.5 11t4.5 11t11 4.5t11 -4.5t4.5 -11t-4.5 -11t-10.5 -4.5zM112 68q-6 0 -10.5 4.5t-4.5 11t4.5 11t11 4.5t11 -4.5t4.5 -11t-4.5 -11t-11.5 -4.5zM192 68q-7 0 -11.5 4.5t-4.5 11t4.5 11t11 4.5t11 -4.5t4.5 -11t-4.5 -11t-10.5 -4.5zM228 90h-8 q-3 10 -10.5 16t-18 6t-18 -6t-9.5 -16h-23q-3 10 -10.5 16t-17.5 6q-14 0 -23 -10q-4 5 -10 7.5t-12 2.5q-10 0 -18 -6t-10 -16h-7l-14 17l8 28h210v-36z" />
</svg>