<svg viewBox="0 0 1024 1024" xmlns="http://www.w3.org/2000/svg">
  <path transform="scale(1, -1) translate(0, -960)" fill="currentColor" d="M987 371l-89 163q-5 8 -12.5 12t-16.5 4h-123q-16 0 -26.5 -10.5t-10.5 -25.5v-18h-85v34q0 15 -8 28.5t-21 22.5l-310 177q0 4 0.5 7.5t0.5 7.5q0 43 -30 73.5t-74 30.5q-43 0 -73.5 -30.5t-30.5 -73.5q0 -39 25.5 -68t62.5 -35v-67q-22 -6 -37 -24.5t-15 -42.5 q0 -29 20 -49t48 -20q16 0 30 6.5t23 17.5q5 5 4 12t-5 11q-5 4 -12 3.5t-11 -5.5q-5 -6 -12.5 -9.5t-16.5 -3.5q-15 0 -25.5 10.5t-10.5 26.5t10.5 26.5t25.5 10.5q8 0 12 4.5t4 11.5v80q26 3 46 18.5t31 37.5l306 -175q6 -3 9.5 -9t3.5 -13v-32h-71q-12 0 -22.5 -4.5 t-18.5 -13.5l-98 -96q-1 -1 -2 -3t-1 -5h-279q-12 0 -22 -7.5t-13 -19.5l-32 -120q-2 -8 0 -17t8 -16l61 -72q5 -6 12.5 -9.5t16.5 -3.5h38q6 -37 35 -62.5t68 -25.5q28 0 52 14t37 37q13 -23 37 -37t53 -14q38 0 67 25.5t35 62.5h111q6 -37 35 -62.5t67 -25.5t67 25.5 t35 62.5h44q7 0 13.5 2.5t10.5 6.5l41 37q6 5 9.5 12.5t3.5 14.5v172q0 4 -1 9t-4 8v0zM182 701q-30 0 -51 21t-21 51t21 51t51 21t51 -21t21 -51t-21.5 -51t-50.5 -21zM747 518h123l79 -144h-207v140q0 2 1.5 3t3.5 1zM504 456q4 4 8.5 6t10.5 2h187v-90h-288l82 82v0z M270 53q-30 0 -51 21t-21 51t21 51t51 21t51 -21t21 -51t-21 -51t-51 -21zM450 53q-30 0 -51 21t-21 51t21 51t51 21t51 -21t21 -51t-21 -51t-51 -21zM766 53q-30 0 -51 21t-21 51t21 51t51 21t51 -21t21 -51t-21 -51t-51 -21zM958 179l-41 -37l-1 -0.5t-2 -0.5h-44 q-6 37 -35 62.5t-67 25.5t-67 -25.5t-35 -62.5h-111q-6 37 -35 62.5t-67 25.5q-29 0 -53 -14.5t-37 -36.5q-13 22 -37 36.5t-52 14.5q-39 0 -68 -25.5t-35 -62.5h-41h-3t-1 1l-60 72q-2 2 -2 3v2l34 120q0 1 1.5 2t2.5 1h858v-160v-2t-2 -1v0z" />
</svg>