<svg viewBox="0 0 256 256" xmlns="http://www.w3.org/2000/svg">
  <path transform="scale(1, -1) translate(0, -256)" fill="currentColor" d="M250 110l-28 39q-2 3 -5 3h-42v10q0 9 -7 16t-16 7h-30q-3 0 -5.5 -2t-2.5 -5t2.5 -5.5t5.5 -2.5h30q4 0 6.5 -2.5t2.5 -6.5v-110h-38q-2 8 -8 13.5t-14.5 5.5t-15 -5.5t-7.5 -13.5h-27q-4 0 -6.5 3t-2.5 6v52q0 3 -2.5 5.5t-5 2.5t-4.5 -2t-2 -5v-52q0 -10 7 -16.5 t16 -6.5h28q3 -7 8.5 -10.5t12.5 -3.5t13 3.5t9 10.5h60q2 -7 8 -10.5t13 -3.5t12.5 3.5t8.5 10.5h20q3 0 5 2t2 5v61q0 2 -1 4zM213 138l19 -28h-57v28h38zM100 38q-3 0 -6 2.5t-3 6.5t3 6.5t6.5 2.5t6.5 -2.5t3 -6.5t-3 -6.5t-7 -2.5zM203 38q-4 0 -6.5 2.5t-2.5 6.5 t2.5 6.5t6.5 2.5t6.5 -2.5t2.5 -6.5t-2.5 -6.5t-6.5 -2.5zM226 52q-2 8 -8.5 13t-14.5 5t-14.5 -5t-8.5 -13h-5v44h62v-44h-11zM102 141v55v2l-11 30q-2 5 -7 5h-61q-5 -1 -7 -5l-10 -30l-1 -2v-55q0 -3 2 -5t5 -2h84q2 0 4 2t2 5zM28 218h51l8 -21h-67zM19 148v35h69v-35 h-69z" />
</svg>