<svg viewBox="0 0 1024 1024" xmlns="http://www.w3.org/2000/svg">
  <path transform="scale(1, -1) translate(0, -960)" fill="currentColor" d="M989 370l-109 156q-2 4 -5.5 5.5t-7.5 1.5h-181v49q0 34 -24 58t-57 24h-120q-7 0 -11.5 -4.5t-4.5 -11.5t4.5 -11.5t11.5 -4.5h120q20 0 34.5 -14.5t14.5 -35.5v-451h-172q-3 31 -26 52.5t-54 21.5q-32 0 -55 -21.5t-25 -52.5h-117q-21 0 -35.5 14.5t-14.5 35.5v208 q0 7 -4.5 11.5t-11.5 4.5t-11.5 -4.5t-4.5 -11.5v-208q0 -34 24 -58t58 -24h120q8 -24 28.5 -40t48.5 -16q26 0 47 16t29 40h258q8 -24 28.5 -40t48.5 -16q27 0 47.5 16t29.5 40h86q7 0 11.5 4.5t4.5 11.5v245q0 2 -1 4.5t-2 5.5zM859 501l93 -135h-266v135h173v0zM402 74 q-21 0 -35.5 14.5t-14.5 34.5q0 21 14.5 35.5t35.5 14.5q20 0 34.5 -14.5t14.5 -35.5q0 -20 -14.5 -34.5t-34.5 -14.5zM813 74q-21 0 -35.5 14.5t-14.5 34.5q0 21 14.5 35.5t35.5 14.5q20 0 34.5 -14.5t14.5 -35.5q0 -20 -14.5 -34.5t-34.5 -14.5zM893 130q-3 31 -26 52 t-54 21t-54.5 -21t-25.5 -52h-45v203h272v-203h-67v0zM397 499v221q0 1 -0.5 2.5t-1.5 2.5l-43 118q-1 5 -5.5 8t-8.5 3h-247q-5 0 -9 -3t-5 -8l-43 -118q-2 -1 -2 -2.5v-2.5v-221q0 -7 4.5 -11.5t11.5 -4.5h333q6 0 11 4.5t5 11.5zM102 822h224l39 -105v-5h-301v5l38 105v0 zM64 515v165h301v-165h-301z" />
</svg>