<svg viewBox="0 0 256 256" xmlns="http://www.w3.org/2000/svg">
  <path transform="scale(1, -1) translate(0, -256)" fill="currentColor" d="M112 180q0 22 -15.5 37.5t-37 15.5t-37 -15.5t-15.5 -37t15.5 -37t37 -15.5t37 15.5t15.5 36.5zM59 142q-4 0 -9 2l34 24l13 4q-3 -13 -13.5 -21.5t-24.5 -8.5zM59 219q9 0 17 -4l-17 -19q-2 -2 -4 -2.5t-5 0.5l-19 12q5 6 12 9.5t16 3.5zM21 180q0 8 2 14l16 -9l3 -2 q5 -4 12 -4q9 0 16 7l17 21q8 -8 10 -20l-20 -7l-41 -30q-7 5 -11 13t-4 17zM248 103l-25 36q-2 3 -5 3h-38v8q0 9 -6.5 15.5t-15.5 6.5h-28q-3 0 -5 -2t-2 -5t2 -5t5 -2h28q3 0 5.5 -2.5t2.5 -5.5v-100h-34q-2 7 -8 12t-13.5 5t-13.5 -5t-7 -12h-24q-4 0 -6 2.5t-2 5.5v48 q0 3 -2.5 5t-5.5 2t-5 -2t-2 -5v-48q0 -9 6.5 -15.5t15.5 -6.5h25q3 -6 8.5 -9.5t12 -3.5t12 3.5t7.5 9.5h54q3 -6 8.5 -9.5t12 -3.5t12 3.5t7.5 9.5h18q3 0 5 2t2 5v56q0 2 -1 4zM214 128l16 -24h-51v24h35zM110 37q-3 0 -5.5 2.5t-2.5 6t2.5 5.5t6 2t5.5 -2.5t2 -5.5 t-2 -5.5t-6 -2.5zM205 37q-3 0 -5.5 2.5t-2.5 6t2.5 5.5t5.5 2t5.5 -2.5t2.5 -5.5t-2.5 -5.5t-5.5 -2.5zM226 50q-2 7 -8 12t-13.5 5t-13.5 -5t-7 -12h-5v40h56v-40h-9z" />
</svg>