<svg viewBox="0 0 256 256" xmlns="http://www.w3.org/2000/svg">
  <path transform="scale(1, -1) translate(0, -256)" fill="currentColor" d="M250 107l-26 37q-2 3 -6 3h-39v9q0 9 -6.5 15.5t-16.5 6.5h-28q-3 0 -5.5 -2t-2.5 -5t2.5 -5t5.5 -2h28q4 0 6.5 -2.5t2.5 -6.5v-103h-35q-2 7 -8 12t-14 5t-14.5 -5t-7.5 -12h-26q-3 0 -5.5 2t-2.5 6v49q0 3 -2 5t-5 2t-5 -2t-2 -5v-49q0 -9 6.5 -15.5t15.5 -6.5h26 q3 -6 8.5 -10t12.5 -4t12.5 4t7.5 10h57q2 -6 7.5 -10t12.5 -4t12.5 4t7.5 10h20q3 0 5 2t2 5v58q0 2 -1 4zM215 133l17 -25h-53v25h36zM108 38q-4 0 -6 2.5t-2 6t2 6t6 2.5t6 -2.5t2 -6t-2.5 -6t-5.5 -2.5zM205 38q-3 0 -5.5 2.5t-2.5 6t2.5 6t6 2.5t6 -2.5t2.5 -6t-2.5 -6 t-6.5 -2.5zM227 52q-2 7 -8 12t-14 5t-14 -5t-8 -12h-5v42h59v-42h-10zM110 140q3 5 3 11t-3 11l-31 58q-3 5 -8.5 8.5t-11.5 3.5t-11 -3.5t-8 -8.5l-32 -58q-3 -5 -3 -11t3 -11t8 -8t11 -3h63q7 0 12 3t8 8zM20 147q-3 4 0 9l32 58q2 4 7 4q2 0 4 -1t3 -3l32 -58q1 -4 0 -8 v-1q-1 -1 -3 -2.5t-5 -1.5h-62q-5 0 -8 4zM59 196q-3 0 -5 -2t-2 -5v-7q0 -3 2 -5t5 -2t5 2t2 5v7q0 3 -2 5t-5 2zM59 168q-3 0 -5 -2.5t-2 -5.5t2 -5t5 -2t5 2t2 5v1q0 3 -2 5t-5 2z" />
</svg>