<svg viewBox="0 0 256 256" xmlns="http://www.w3.org/2000/svg">
  <path transform="scale(1, -1) translate(0, -256)" fill="currentColor" d="M250 97l-26 37q-2 3 -6 3h-39v8q0 9 -6.5 16t-15.5 7h-29q-3 0 -5 -2.5t-2 -5.5t2 -5t5 -2h29q3 0 5.5 -2.5t2.5 -5.5v-103h-35q-1 8 -7 12.5t-14 4.5t-14 -4.5t-8 -12.5h-25q-3 0 -5.5 2.5t-2.5 5.5v49q0 3 -2 5t-5 2t-5 -2t-2 -5v-49q0 -9 6.5 -15.5t15.5 -6.5h26 q3 -6 8.5 -10t12 -4t12 4t8.5 10h55q3 -6 8.5 -10t12.5 -4t12 4t8 10h19q3 0 5 2t2 5v58q0 1 -1 4zM215 122l17 -25h-53v25h36zM109 28q-3 0 -5.5 2.5t-2.5 6t2.5 6t6 2.5t6 -2.5t2.5 -6t-2.5 -6t-6.5 -2.5zM206 28q-4 0 -6.5 2.5t-2.5 6t2.5 6t6 2.5t6 -2.5t2.5 -6t-2.5 -6 t-5.5 -2.5zM227 42q-2 8 -8 12.5t-13.5 4.5t-13.5 -4.5t-8 -12.5h-5v41h58v-41h-10zM102 178q0 8 -3 18q-1 2 -3.5 3.5t-5.5 0t-4 -4t0 -5.5q2 -6 2 -12q0 -15 -10 -25t-24.5 -10t-24.5 10t-10 24t9 24t22 11l-3 -3q-2 -2 -2 -5t2 -5t5 -2t5 2l15 15q2 3 2 5.5t-2 4.5 l-15 16q-2 2 -5 2t-5 -2t-2 -5t2 -5l3 -4q-19 -1 -32 -15t-13 -33.5t14.5 -34t34.5 -14.5t34 14t14 35z" />
</svg>