<svg viewBox="0 0 1024 1024" xmlns="http://www.w3.org/2000/svg">
  <path transform="scale(1, -1) translate(0, -960)" fill="currentColor" d="M989 315l-103 147q-2 4 -5.5 5.5t-6.5 1.5h-168v45q0 32 -23 54t-54 22h-114q-7 0 -11.5 -4t-4.5 -12q0 -7 4.5 -11.5t11.5 -4.5h114q19 0 32 -13t13 -31v-424h-162q-4 28 -25.5 48t-51.5 20t-51.5 -20t-25.5 -48h-108q-20 0 -32.5 13t-12.5 31v197q0 7 -4.5 11.5 t-11.5 4.5t-11.5 -4.5t-4.5 -11.5v-195q0 -32 22.5 -54.5t54.5 -22.5h113q7 -23 27 -38t45 -15t45 15t29 38h241q8 -23 28 -38t46 -15t45.5 15t28.5 38h80q7 0 11.5 4.5t4.5 11.5v232q-2 3 -3 5t-2 3v0zM866 438l86 -124h-246v124h160zM437 38q-19 0 -32 13.5t-13 31.5 q0 19 13.5 32t31.5 13t31.5 -13.5t13.5 -31.5t-13.5 -31.5t-31.5 -13.5zM822 38q-19 0 -31.5 13.5t-12.5 31.5q0 19 13 32t31 13t31.5 -13.5t13.5 -31.5t-12.5 -31.5t-32.5 -13.5zM899 91q-3 29 -25 49t-52 20t-51.5 -20t-24.5 -49h-42v189h256v-189h-61v0zM398 646 q0 17 -3 34.5t-9 33.5q-3 6 -9 9t-12 0q-6 -2 -9 -8.5t-1 -12.5q5 -13 8 -27t3 -29q0 -62 -44 -106t-106 -44t-107 44t-45 106q0 63 44 107t106 44l-33 -34q-5 -5 -5 -11t5 -11q2 -3 5.5 -4t5.5 -1t5.5 1t5.5 4l61 61q5 4 5 10.5t-5 11.5l-61 61q-5 5 -11 5t-11 -5t-5 -11.5 t5 -11.5l33 -33v0v0q-75 0 -128.5 -53.5t-53.5 -129.5q0 -75 53.5 -128.5t128.5 -53.5q76 0 130 53.5t54 128.5v0z" />
</svg>