<svg viewBox="0 0 256 256" xmlns="http://www.w3.org/2000/svg">
  <path transform="scale(1, -1) translate(0, -256)" fill="currentColor" d="M250 125l-23 41q-3 5 -9 5h-31q-5 0 -9 -3.5t-4 -8.5v-32h-16l1 5v24q0 7 -5.5 13t-13.5 6h-12v29q0 7 -5.5 13t-13.5 6h-48q-8 0 -13.5 -5.5t-5.5 -13.5v-29h-12q-7 0 -13 -5.5t-6 -13.5v-24q0 -7 4 -12l-9 -32q-2 -6 2 -12l15 -18q4 -4 10 -4h7q2 -10 10 -16t18 -6 q14 0 22 11q4 -5 10 -8t13 -3q10 0 18 6.5t10 15.5h23q2 -10 9.5 -16t18 -6t18 6.5t10.5 15.5h8q5 0 8 3l10 9q4 4 4 10v43q1 2 0 6zM216 158l16 -30h-44v30h28zM145 156v-24q0 -2 -1.5 -3t-3.5 -1h-48v34h48q2 -1 3.5 -2.5t1.5 -3.5zM56 204q0 2 1.5 4t3.5 2h49q2 0 3.5 -2 t1.5 -4v-28h-59v28zM25 156q0 3 1.5 4.5t3.5 1.5h48v-34h-48q-2 0 -3.5 1.5t-1.5 2.5v24zM68 47q-7 0 -11.5 4.5t-4.5 10.5t4.5 10.5t11 4.5t11 -4.5t4.5 -10.5t-4.5 -10.5t-10.5 -4.5zM112 47q-6 0 -10.5 4.5t-4.5 10.5t4.5 10.5t11 4.5t11 -4.5t4.5 -10.5t-4.5 -10.5 t-11.5 -4.5zM192 47q-7 0 -11.5 4.5t-4.5 10.5t4.5 10.5t11 4.5t11 -4.5t4.5 -10.5t-4.5 -10.5t-10.5 -4.5zM228 69h-8q-3 9 -10.5 15.5t-18 6.5t-18 -6.5t-9.5 -15.5h-23q-3 9 -10.5 15.5t-17.5 6.5q-14 0 -23 -11q-4 5 -10 8t-12 3q-10 0 -18 -6.5t-10 -15.5h-7l-14 17 l8 28h210v-37z" />
</svg>