<svg viewBox="0 0 1024 1024" xmlns="http://www.w3.org/2000/svg">
  <path transform="scale(1, -1) translate(0, -960)" fill="currentColor" d="M989 336l-98 142q-2 4 -5.5 5.5t-7.5 1.5h-163v43q0 31 -22 53t-53 22h-109q-7 0 -11.5 -4.5t-4.5 -11.5t4.5 -11.5t11.5 -4.5h109q18 0 30.5 -12.5t12.5 -30.5v-408h-153q-4 28 -24.5 47.5t-49.5 19.5t-50 -19t-24 -48h-105q-18 0 -30.5 12.5t-12.5 30.5v189 q0 7 -4.5 11.5t-11.5 4.5q-8 0 -12 -4.5t-4 -11.5v-189q0 -31 22 -53t53 -22h107q7 -23 26.5 -37t43.5 -14q26 0 45 14t26 37h230q7 -23 27 -37t44 -14t43.5 14t26.5 37h80q7 0 11.5 4.5t4.5 11.5v224q0 2 -1 4.5t-2 3.5v0zM869 453l83 -120h-237v120h154v0zM454 69 q-18 0 -30.5 12.5t-12.5 30.5t12.5 30.5t30.5 12.5t31 -12.5t13 -30.5t-13 -30.5t-31 -12.5zM827 69q-18 0 -30.5 12.5t-12.5 30.5t12.5 30.5t30.5 12.5t30.5 -12.5t12.5 -30.5t-12.5 -30.5t-30.5 -12.5zM902 120q-3 28 -23.5 47.5t-49.5 19.5t-50 -19t-24 -48h-38v181h243 v-181h-58zM451 650q0 43 -16 81q-17 38 -45.5 66.5t-66.5 45.5q-38 16 -81 16q-44 0 -82 -16q-38 -17 -66.5 -45.5t-44.5 -66.5q-17 -38 -17 -81q0 -44 17 -82q16 -38 44.5 -66.5t66.5 -44.5q38 -17 82 -17q43 0 81 17q38 16 66.5 44.5t45.5 66.5q16 38 16 82zM64 650 q0 73 52 125t126 52q73 0 125 -52t52 -125q0 -74 -52 -126t-125 -52q-74 0 -126 52t-52 126zM310 578q4 0 7.5 1t5.5 5q4 5 3 12t-6 10l-62 45v77q0 7 -5 11.5t-11 4.5q-8 0 -12 -5t-4 -11v-86q0 -4 2 -7.5t4 -5.5l69 -50q2 -1 4.5 -1h4.5v0z" />
</svg>