<svg viewBox="0 0 256 256" xmlns="http://www.w3.org/2000/svg">
  <path transform="scale(1, -1) translate(0, -256)" fill="currentColor" d="M47 128h41q9 0 15 5t7 13l6 33q0 6 -1.5 11t-6.5 9t-12 4h-12v8q0 13 -8 19q-5 4 -12 4l-10 -1q-3 -1 -4.5 -3.5t-1.5 -5.5v-17q0 -5 -6 -8l-5 1h-25q-3 0 -5 -2t-2 -5v-60q0 -3 2 -5t5 -2h25q3 0 5 2h5zM61 207v12q4 1 6.5 -1t2.5 -8v-14q0 -3 2 -5.5t5 -2.5h19 q2 0 4 -2t2 -5l-6 -33q-1 -7 -8 -7h-41q-1 0 -3 1v42q17 7 17 23zM30 140h-11v46h11v-46zM250 103l-25 36q-2 3 -6 3h-38v8q0 9 -6.5 15.5t-15.5 6.5h-28q-3 0 -5 -2t-2 -5t2 -5t5 -2h28q3 0 5.5 -2.5t2.5 -5.5v-100h-34q-2 7 -7.5 11.5t-13.5 4.5t-14 -4.5t-7 -11.5h-24 q-3 0 -5.5 2t-2.5 6v48q0 3 -2 5t-5 2t-5.5 -2t-2.5 -5v-48q0 -9 6.5 -15.5t15.5 -6.5h26q3 -6 8 -9.5t12 -3.5t12 3.5t8 9.5h55q3 -6 8 -9.5t11.5 -3.5t12 3.5t8.5 9.5h17q3 0 5 2t2 5v56q0 2 -1 4zM216 128l16 -24h-51v24h35zM112 37q-4 0 -6 2t-2 5.5t2 6t5.5 2.5t6 -2.5 t2.5 -6t-2.5 -5.5t-5.5 -2zM206 37q-3 0 -5.5 2t-2.5 5.5t2.5 6t6 2.5t5.5 -2.5t2 -6t-2 -5.5t-6 -2zM228 50q-2 7 -8 11.5t-13.5 4.5t-13.5 -4.5t-8 -11.5h-4v40h56v-40h-9z" />
</svg>