<svg viewBox="0 0 256 256" xmlns="http://www.w3.org/2000/svg">
  <path transform="scale(1, -1) translate(0, -256)" fill="currentColor" d="M250 108l-30 42q-2 4 -5 4h-46v10q0 10 -7 17t-17 7h-33q-3 0 -5 -2t-2 -5t2 -5t5 -2h33q4 0 7 -3t3 -7v-119h-41q-2 8 -9 13.5t-15.5 5.5t-15.5 -5.5t-8 -13.5h-29q-4 0 -7.5 3t-3.5 7v56q0 3 -2 5t-5 2t-5 -2t-2 -5v-56q0 -10 7 -17t17 -7h31q3 -7 9 -11t13.5 -4 t13.5 4t9 11h65q3 -7 9 -11t13.5 -4t13.5 4t9 11h22q3 0 5 2t2 5v66q0 2 -1 4zM211 140l21 -31h-63v31h42zM90 30q-5 0 -8 3.5t-3 7.5t3 7t7.5 3t7.5 -3t3 -7t-3 -7.5t-7 -3.5zM200 30q-4 0 -7 3.5t-3 7.5t3 7t7 3t7 -3t3 -7t-3 -7.5t-7 -3.5zM224 46q-2 8 -8.5 13.5 t-15.5 5.5t-15.5 -5.5t-8.5 -13.5h-7v49h68v-49h-13zM41 137q2 -2 4.5 -2t4.5 2l1 1q11 11 20 23q15 21 15 38t-12 29t-28.5 12t-28.5 -12t-12 -29t17 -40q10 -14 19 -22zM46 226q11 0 19 -8t8 -18.5t-10 -25.5q-7 -12 -17 -22q-10 11 -17 22q-10 15 -10 25.5t8 18.5t19 8z M53 194q0 3 -2 5t-5 2t-5.5 -2t-2.5 -5t2.5 -5t5.5 -2t5 2t2 5z" />
</svg>