<svg viewBox="0 0 1024 1024" xmlns="http://www.w3.org/2000/svg">
  <path transform="scale(1, -1) translate(0, -960)" fill="currentColor" d="M738 -32h-452q-36 0 -61 25t-25 60v541q0 2 -2 5t-6 3h-74q-36 0 -61 25t-25 61v154q0 36 25 61t61 25h189q28 0 50 -15.5t30 -40.5q13 -41 47.5 -65.5t77.5 -24.5q42 0 77 25t48 65q8 25 30 40.5t50 15.5h171q54 0 79 -27t25 -59v-157q0 -36 -25 -61.5t-60 -25.5h-75 q-2 0 -5 -2t-3 -6v-539q0 -33 -25 -58t-61 -25v0zM118 896q-22 0 -38 -16t-16 -38v-157q0 -22 16 -38.5t38 -16.5h76q16 0 28 -11.5t12 -28.5v-539q0 -21 15.5 -37t38.5 -16h451q22 0 37.5 16t15.5 37v543q0 16 11.5 28t28.5 12h75q22 0 37.5 15.5t15.5 38.5v154 q0 24 -20 39t-52 15h-171q-17 0 -31 -10t-19 -25q-17 -51 -59.5 -81.5t-95.5 -30.5t-95.5 30.5t-59.5 81.5q-5 15 -19 25t-31 10h-189v0z" />
</svg>