<svg viewBox="0 0 256 256" xmlns="http://www.w3.org/2000/svg">
  <path transform="scale(1, -1) translate(0, -256)" fill="currentColor" d="M240 236h-76q-4 0 -7.5 -3t-3.5 -7q-1 -9 -8 -14.5t-17 -5.5t-17 6t-8 14l-1 2q-1 4 -3.5 6t-6.5 2h-76q-5 0 -8 -3t-3 -8l3 -49q0 -4 3.5 -7t7.5 -3h19l6 -118q1 -12 9 -20t20 -8h109q12 0 20.5 8t8.5 20l7 118h19q4 0 7 3t4 7l3 49q0 5 -3 8t-8 3zM234 180h-19 q-4 0 -7.5 -2.5t-3.5 -7.5l-7 -122q0 -6 -4.5 -10t-10.5 -4h-109q-6 0 -10.5 4t-4.5 10l-6 122q0 4 -3.5 7t-7.5 3h-19l-3 42h70q3 -13 14 -21.5t25 -8.5t25 8.5t14 21.5h70z" />
</svg>