<svg viewBox="0 0 1024 1024" xmlns="http://www.w3.org/2000/svg">
  <path transform="scale(1, -1) translate(0, -960)" fill="currentColor" d="M802 14q-21 -20 -70.5 -41t-118.5 -21q-88 0 -144 28q-55 29 -87 70.5t-44 88.5t-12 85v280h-92q-9 0 -15 6t-6 15v131q0 10 6.5 19t15.5 13q93 31 127 98t38 126q1 17 8.5 24.5t23.5 7.5h138q8 0 14 -6t6 -15v-222h162q8 0 14.5 -4.5t6.5 -13.5v-157q0 -8 -6.5 -14 t-14.5 -6h-163v-256q0 -51 34.5 -73.5t96.5 2.5q7 1 13 3.5t11 1.5t8.5 -5t4.5 -11l43 -123q4 -7 6 -16t-4 -15v0z" />
</svg>