<svg viewBox="0 0 1024 1024" xmlns="http://www.w3.org/2000/svg">
  <path transform="scale(1, -1) translate(0, -960)" fill="currentColor" d="M963 515l-384 384q-13 13 -30.5 21t-36.5 8t-36.5 -7t-30.5 -22l-384 -384q-13 -13 -21 -30.5t-8 -36.5t7 -36.5t22 -30.5l384 -384q14 -15 31.5 -22t35.5 -7t36 7t31 22l384 384q28 27 28 67t-28 67v0zM941 403l-384 -384q-19 -19 -45.5 -19t-45.5 19l-384 384 q-9 9 -13.5 20.5t-4.5 24.5t5 24.5t14 20.5l384 384q9 9 20.5 14t24.5 5t24.5 -5t20.5 -14l384 -384q19 -18 19 -45t-19 -45zM533 595q-5 5 -11.5 5t-11.5 -5q-4 -5 -4 -11t4 -11l109 -109h-251q-7 0 -11.5 -4.5t-4.5 -11.5v-136q0 -7 4.5 -11.5t11.5 -4.5t11.5 4.5 t4.5 11.5v120h235l-109 -109q-4 -5 -4 -11t4 -11q3 -3 6 -4t6 -1q2 0 5 1t6 4l136 136q5 5 5 11t-5 11z" />
</svg>