<svg viewBox="0 0 256 256" xmlns="http://www.w3.org/2000/svg">
  <path transform="scale(1, -1) translate(0, -256)" fill="currentColor" d="M243 147l-96 96q-8 8 -19.5 8t-19.5 -8l-96 -96q-8 -8 -8 -19t8 -19l96 -96q8 -8 19.5 -8t19.5 8l96 96q8 8 8 19t-8 19zM233 119l-96 -96q-4 -4 -9 -4t-9 4l-96 96q-4 4 -4 9.5t4 8.5l96 96q4 4 9.5 4t8.5 -4l96 -96q4 -4 4 -9t-4 -9zM135 167q-2 2 -5 2t-5 -2t-2 -5 t2 -5l22 -22h-55q-3 0 -5 -2t-2 -5v-34q0 -3 2 -5.5t5 -2.5t5 2.5t2 5.5v26h49l-22 -22q-3 -2 -2.5 -4.5t2.5 -5t4.5 -2.5t4.5 2l34 34q2 3 2 5.5t-2 4.5z" />
</svg>