<svg viewBox="0 0 1024 1024" xmlns="http://www.w3.org/2000/svg">
  <path transform="scale(1, -1) translate(0, -960)" fill="currentColor" d="M893 723h-344l107 179q4 6 2 12.5t-8 10.5q-6 3 -12.5 1t-10.5 -8l-115 -195h-34l-115 138q-5 5 -11 5.5t-11 -4.5q-5 -4 -6 -10.5t4 -11.5l98 -117h-304q-27 0 -45.5 -18.5t-18.5 -45.5v-526q0 -27 18.5 -45.5t45.5 -18.5h57v-85q0 -7 4.5 -11.5t11.5 -4.5q8 0 12 4.5 t4 11.5v86h580v-86q0 -7 4 -11.5t12 -4.5q7 0 11.5 4.5t4.5 11.5v86h57q27 0 45.5 19t18.5 45v525q1 28 -17.5 46t-44.5 18v0zM925 134q0 -13 -9.5 -22.5t-22.5 -9.5h-762q-13 0 -22.5 9.5t-9.5 22.5v525q0 13 9.5 22.5t22.5 9.5h760q13 0 22.5 -9.5t9.5 -22.5v-525h2z" />
</svg>