<svg viewBox="0 0 256 256" xmlns="http://www.w3.org/2000/svg">
  <path transform="scale(1, -1) translate(0, -256)" fill="currentColor" d="M223 200h-81l24 40q2 3 1 5.5t-3 4t-5 1t-5 -2.5l-28 -48h-5l-28 33q-2 2 -5 2.5t-5 -1.5t-2.5 -5t1.5 -5l20 -24h-69q-8 0 -13.5 -5.5t-5.5 -13.5v-132q0 -8 5.5 -13.5t13.5 -5.5h11v-18q0 -3 2.5 -5t5.5 -2t5 2t2 5v18h139v-18q0 -3 2 -5t5 -2t5 2t2 5v18h12q7 0 13 6 t6 14v131q-1 8 -6.5 13.5t-13.5 5.5zM228 50q0 -2 -1.5 -4t-3.5 -2h-190q-2 0 -3.5 1.5t-1.5 4.5v131q0 2 1.5 3.5t3.5 1.5h190q2 0 3.5 -1.5t1.5 -3.5v-131z" />
</svg>