<svg viewBox="0 0 1024 1024" xmlns="http://www.w3.org/2000/svg">
  <path transform="scale(1, -1) translate(0, -960)" fill="currentColor" d="M928 854h-832q-26 0 -45 -18.5t-19 -45.5v-484q0 -27 19 -45.5t45 -18.5h400v-170h-88q-7 0 -11.5 -4.5t-4.5 -11.5t4.5 -11.5t11.5 -4.5h195q7 0 11.5 4.5t4.5 11.5t-4.5 11.5t-11.5 4.5h-75v170h400q26 0 45 18.5t19 45.5v484q0 27 -19 45.5t-45 18.5v0zM960 306 q0 -14 -9.5 -23t-22.5 -9h-832q-13 0 -22.5 9t-9.5 23v484q0 14 9.5 23t22.5 9h832q13 0 22.5 -9t9.5 -23v-484zM438 626h-145q-7 0 -11.5 -4.5t-4.5 -11.5q0 -8 4.5 -12t11.5 -4h56v-130q0 -7 4.5 -11.5t11.5 -4.5t11.5 4.5t4.5 11.5v130h56q7 0 11.5 4t4.5 12 q0 7 -3.5 11.5t-11.5 4.5zM725 624q-6 2 -12.5 0t-8.5 -6l-58 -116l-54 114q-2 6 -8.5 8t-12.5 0t-8 -8.5t0 -12.5l67 -145q3 -4 6.5 -7t8.5 -3v0v0q5 0 8.5 2.5t5.5 7.5l74 145q2 5 0 11t-8 10v0z" />
</svg>