<svg viewBox="0 0 256 256" xmlns="http://www.w3.org/2000/svg">
  <path transform="scale(1, -1) translate(0, -256)" fill="currentColor" d="M232 233h-208q-8 0 -13.5 -5.5t-5.5 -13.5v-122q0 -7 5.5 -13t13.5 -6h97v-36h-19q-3 0 -5 -2t-2 -5t2 -5.5t5 -2.5h49q3 0 5 2.5t2 5.5t-2 5t-5 2h-16v36h97q8 0 13.5 5.5t5.5 13.5v122q0 8 -5.5 13.5t-13.5 5.5zM237 92q0 -2 -1.5 -3.5t-3.5 -1.5h-208q-2 0 -3.5 1.5 t-1.5 3.5v122q0 2 1.5 3.5t3.5 1.5h208q2 0 3.5 -1.5t1.5 -3.5v-122zM110 175h-37q-3 0 -5 -2t-2 -5t2 -5t5 -2h11v-29q0 -3 2.5 -5t5.5 -2t5 2t2 5v29h11q3 0 5 2t2 5t-2 5t-5 2zM182 174q-2 2 -5 1t-4 -4l-12 -23l-11 23q-1 3 -3.5 4t-5.5 0t-4 -4t1 -5l16 -37 q2 -4 6.5 -4t6.5 4l19 37q1 2 0 4.5t-4 3.5z" />
</svg>