<svg viewBox="0 0 1024 1024" xmlns="http://www.w3.org/2000/svg">
  <path transform="scale(1, -1) translate(0, -960)" fill="currentColor" d="M325 42q141 0 250 53t182.5 136.5t111.5 187.5t38 205v12.5t-1 14.5q30 22 56 49t46 57q-29 -13 -58 -21t-59 -11q33 19 56 48t34 65q-30 -16 -62 -29t-69 -20q-29 30 -67 47.5t-82 17.5q-43 0 -80 -16q-38 -16 -66 -44t-44 -66q-17 -37 -17 -80q0 -12 1.5 -24t3.5 -24 q-62 4 -120 21q-59 17 -112 45t-100 66t-85 84q-14 -24 -21 -49.5t-7 -52.5q0 -54 25.5 -98t67.5 -72q-25 1 -48.5 8t-44.5 18v-2v0q0 -73 47 -130t117 -72q-14 -3 -27.5 -4.5t-24.5 -1.5q-9 0 -19.5 1t-18.5 4q20 -61 72.5 -101t119.5 -42q-53 -40 -117.5 -64t-135.5 -24 q-14 -2 -26.5 -0.5t-24.5 2.5q32 -23 69 -40q36 -18 75 -30t80 -18q42 -6 85 -6v0z" />
</svg>