<svg viewBox="0 0 1024 1024" xmlns="http://www.w3.org/2000/svg">
  <path transform="scale(1, -1) translate(0, -960)" fill="currentColor" d="M898 715l60 77q14 16 18.5 27.5t5.5 17.5q-36 -22 -68 -30.5t-53 -8.5h-11l-7 7q-29 25 -64 38t-73 13q-42 0 -79 -16q-36 -16 -63 -43.5t-43 -64.5q-15 -36 -15 -76v-11.5t1 -10.5l5 -32l-34 1q-76 3 -145 32q-68 29 -121 65.5t-88 70.5t-46 45q-33 -60 -22.5 -114.5 t30.5 -90.5l55 -89l-87 48q2 -51 21 -90.5t56 -68.5l43 -32l-43 -17q21 -62 60 -90.5t73 -37.5l59 -16l-56 -39q-67 -48 -140.5 -53t-110.5 -1q38 -27 78 -43q41 -17 80.5 -26.5t77.5 -13.5q37 -4 68 -4q47 0 79.5 4t40.5 8q168 39 262 124q94 86 140 178t57 173 q10 80 10 110v11l9 7q41 38 60.5 60t29.5 34q-4 -1 -8.5 -3t-9.5 -3l-92 -26v0z" />
</svg>