<svg viewBox="0 0 1024 1024" xmlns="http://www.w3.org/2000/svg">
  <path transform="scale(1, -1) translate(0, -960)" fill="currentColor" d="M330 46q-42 0 -83 6t-79.5 17.5t-75.5 28.5q-36 17 -70 40q-4 3 -5.5 8.5t-0.5 10.5q2 5 7 8t11 1q10 -1 21 -2t22 -1q53 0 103.5 14.5t94.5 41.5q-53 12 -94 49.5t-59 91.5q-2 4 -1 8t4 8q2 4 6.5 5t9.5 0q3 -1 7 -1.5t7 -1.5q-45 28 -73 76t-28 106v2q0 4 2.5 8t5.5 6 q4 2 8.5 2t7.5 -2q6 -4 13 -6.5t15 -4.5q-24 27 -37 62t-13 74q0 29 7 55t22 50q1 3 4 5t7 2t7.5 -1.5t6.5 -5.5q35 -42 76 -76q42 -33 89.5 -58t98.5 -41q52 -15 106 -20q-1 7 -1.5 13.5t-0.5 13.5q0 44 17 83q17 38 45.5 66.5t66.5 45.5q39 17 83 17q40 0 78.5 -15.5 t68.5 -45.5q20 5 39.5 16.5t37.5 23.5q7 5 15 9.5t15 9.5q4 2 8 2t8 -2t6 -6.5t0 -7.5q-1 -8 -5.5 -33t-14.5 -51q14 -1 25 -1.5t18 0.5q5 1 9 -1t7 -6q2 -3 2 -8.5t-2 -8.5q-17 -24 -40 -42t-47 -35q-4 -4 -9 -7l-10 -6v-9v-8q1 -106 -38 -208q-39 -103 -112.5 -183.5 t-179.5 -130.5t-239 -50v0zM96 133q54 -27 112.5 -41t121.5 -14q126 0 226 47t169.5 123t106.5 173q37 96 37 195q0 6 -0.5 12t-1.5 10q0 5 1.5 8.5t5.5 6.5q7 5 13.5 9.5t13.5 9.5q14 10 28.5 20.5t27.5 22.5q-11 1 -21 2.5t-18 2.5q-3 1 -6.5 3.5t-5.5 6.5q-2 3 -1.5 7.5 t2.5 8.5q7 9 12.5 24t10.5 32q-22 -15 -46 -27.5t-50 -17.5q-4 -1 -8 0.5t-7 4.5q-26 27 -60 41.5t-71 14.5q-74 0 -126.5 -52.5t-52.5 -127.5q0 -9 1 -19t4 -21q1 -3 0 -6.5t-4 -7.5q-2 -2 -5.5 -4t-6.5 -2q-57 3 -112 17t-106 38t-96 58t-83 77q-7 -16 -10 -33.5t-3 -35.5 q0 -44 21.5 -83.5t58.5 -65.5q5 -2 6.5 -7t-0.5 -10q-1 -5 -5.5 -8t-10.5 -3q-18 0 -35.5 4t-34.5 10q7 -56 46.5 -98t94.5 -54q6 -1 9.5 -5.5t3.5 -10.5t-3.5 -10.5t-9.5 -5.5q-18 -5 -35.5 -6.5t-31.5 0.5q21 -45 63.5 -71.5t92.5 -28.5q5 0 9.5 -3t5.5 -8t0 -9.5t-5 -7.5 q-50 -40 -109 -61.5t-123 -23.5v0z" />
</svg>