<svg viewBox="0 0 256 256" xmlns="http://www.w3.org/2000/svg">
  <path transform="scale(1, -1) translate(0, -256)" fill="currentColor" d="M82 24q-44 0 -78 24q-5 3 -3 8q1 3 3 4t5 1l11 -1q22 0 42 10q-12 4 -21 13.5t-13 21.5q-1 4 2 7l1 1q-10 8 -15 19t-5 24v0q0 4 3 5.5t4 1.5q-7 12 -7 27.5t8 27.5q2 3 5.5 3.5t5.5 -1.5q17 -20 39.5 -32.5t47.5 -15.5v4q0 15 7.5 27.5t20.5 20t28 7.5q21 0 37 -15 q6 2 17 9l8 5q4 2 7.5 -0.5t2.5 -6.5v-2q-2 -9 -4 -16h6q5 1 7 -3q2 -2 2 -4t-2 -4q-3 -5 -10 -11l-12 -9l-4 -2v-3q0 -36 -18 -69.5t-49 -53.5q-35 -22 -79 -22zM36 47q23 -9 46 -9q40 0 71 20q29 18 45 48.5t16 63.5v5q-1 4 3 7l15 10l-3 1q-4 0 -5.5 4t0.5 7t3 5 q-11 -6 -18 -7q-4 -1 -7 2q-12 13 -29.5 13t-30 -12.5t-12.5 -29.5q0 -4 1 -8.5t-1 -7t-6 -2.5q-28 2 -53 13.5t-45 31.5q-1 -4 -1 -11q0 -11 5 -20t13 -15q4 -2 3 -8q-1 -2 -3 -3t-4 -1q-6 0 -13 2q3 -12 11.5 -20t20.5 -11q2 0 3.5 -2t1.5 -4.5t-1.5 -4.5t-4.5 -3t-10 -1 h-1q6 -9 15 -14t19 -5q2 0 4 -1.5t2.5 -3.5t0 -4t-2.5 -4q-20 -16 -48 -21z" />
</svg>