<svg viewBox="0 0 1024 1024" xmlns="http://www.w3.org/2000/svg">
  <path transform="scale(1, -1) translate(0, -960)" fill="currentColor" d="M512 929q-100 0 -188 -38q-87 -38 -152.5 -103.5t-102.5 -153.5q-38 -87 -38 -186t38 -186q37 -88 102.5 -153.5t152.5 -103.5q88 -38 188 -38t188 38q87 37 152.5 102.5t102.5 152.5q38 88 38 188t-38 188q-37 87 -102.5 152.5t-152.5 102.5q-88 38 -188 38zM614 747 q13 24 37.5 29.5t46.5 -7.5q23 -13 29 -37.5t-7 -47.5t-37.5 -29t-46.5 7q-22 14 -28 38.5t6 46.5zM202 386q-27 0 -44.5 17.5t-17.5 44.5t17.5 44t42.5 17q26 0 43.5 -17.5t17.5 -43.5q1 -27 -17 -44.5t-42 -17.5v0zM254 380q33 26 33 67.5t-33 67.5q13 47 42 87t67 66 l47 -76q-37 -26 -55 -64q-19 -39 -19 -80t19 -80q18 -38 55 -64l-47 -76q-37 25 -66.5 64.5t-42.5 87.5v0zM698 124q-23 -13 -47.5 -6t-36.5 27q-11 21 -5 47t27 37q21 12 46.5 5.5t37.5 -26.5q15 -23 8 -47t-30 -37zM700 257q-38 15 -74.5 -5.5t-43.5 -62.5q-8 -1 -63 -8.5 t-125 25.5l44 79q41 -19 84 -16t78.5 23.5t58.5 55.5q24 35 28 81l90 -1q-2 -48 -23.5 -92t-53.5 -79v0v0zM687 462q-4 45 -28 80q-23 36 -58.5 56.5t-78.5 24.5q-43 3 -84 -17l-44 79q71 35 125.5 28t62.5 -11q7 -40 42.5 -61t75.5 -7q35 -35 55 -78.5t24 -91.5l-92 -2v0z " />
</svg>