<svg viewBox="0 0 256 256" xmlns="http://www.w3.org/2000/svg">
  <path transform="scale(1, -1) translate(0, -256)" fill="currentColor" d="M124 248q-33 0 -60.5 -16t-43.5 -43.5t-16 -60t16 -60t43.5 -44t60.5 -16.5t60.5 16t43.5 43.5t16 60.5t-16 60.5t-43.5 43.5t-60.5 16zM149 203q4 6 10 7.5t11.5 -2t7 -9.5t-1.5 -12t-9 -7.5t-12 2t-7.5 9.5t1.5 12zM46 113q-6 0 -10.5 4.5t-4.5 11t4.5 10.5t10.5 4 t10.5 -4t4.5 -10.5t-4 -11t-11 -4.5zM60 111q8 7 8 17t-8 17q3 12 10 21.5t17 16.5l11 -19q-12 -8 -16 -22t0 -27.5t16 -22.5l-11 -19q-10 7 -17 17t-10 21zM170 47q-5 -3 -11.5 -1.5t-9 7t-1 12t6.5 9.5t11.5 1t10 -7t1.5 -11.5t-8 -9.5zM171 81q-10 3 -19 -2t-11 -15 l-1 -1q-25 -5 -46 5l11 20q14 -7 28 -3.5t23.5 14t11.5 25.5l22 -1q0 -11 -5.5 -22t-13.5 -20zM168 132q-2 14 -11.5 25t-23.5 14t-28 -3l-11 19q16 8 32 7q10 0 15 -2q2 -10 11 -15.5t19 -1.5q18 -18 20 -43h-23z" />
</svg>