<svg viewBox="0 0 256 256" xmlns="http://www.w3.org/2000/svg">
  <path transform="scale(1, -1) translate(0, -256)" fill="currentColor" d="M135 194v2q0 3 -2 5.5t-5 2.5t-5 -2.5t-2 -5.5v-2q-23 -2 -42.5 -13.5t-32.5 -31t-16 -43.5q-1 -8 4.5 -14t13.5 -6h73v-74q0 -3 2 -5t5 -2t5.5 2t2.5 5v74h72q9 0 14.5 6t3.5 14q-3 24 -16 43t-32.5 31t-42.5 14zM211 101q-2 -1 -3 -1h-160q-2 0 -3 1t-1 4q3 21 15 38 t30 27t39 10t39 -10t30 -27t15 -39q0 -2 -1 -3zM15 251q-3 0 -5 -2t-2 -5v-20q0 -3 2.5 -5t5.5 -2t5 2t2 5v20q0 3 -2.5 5t-5.5 2zM72 217q3 0 5 2t2 5v20q0 3 -2 5t-5 2t-5 -2t-2 -5v-20q0 -3 2 -5t5 -2zM128 217q3 0 5 2t2 5v20q0 3 -2 5t-5 2t-5 -2t-2 -5v-20q0 -3 2 -5 t5 -2zM184 217q3 0 5.5 2t2.5 5v20q0 3 -2.5 5t-5.5 2t-5 -2t-2 -5v-20q0 -3 2 -5t5 -2zM241 251q-3 0 -5 -2t-2 -5v-20q0 -3 2 -5t5 -2t5 2t2 5v20q0 3 -2 5t-5 2z" />
</svg>