<svg viewBox="0 0 256 256" xmlns="http://www.w3.org/2000/svg">
  <path transform="scale(1, -1) translate(0, -256)" fill="currentColor" d="M134 190v7q0 2 -2 4t-4 2t-4 -2t-2 -4v-7q-26 -2 -47.5 -15.5t-34 -35.5t-12.5 -48q0 -3 3 -5t6 0l21 13q7 4 14 0l12 -7q6 -4 13 -4t13 4l13 8l-1 -2v-86q0 -2 2 -4t4.5 -2t4 2t1.5 4v86v2l13 -8q6 -4 13 -4t13 4l11 7q7 4 14 0l22 -13q2 -1 3 -1t3.5 1.5t2.5 4.5 q0 26 -13 48t-34.5 35.5t-47.5 15.5zM204 109q-6 4 -13 4t-13 -4l-12 -7q-7 -3 -14 0l-11 7q-6 4 -13 4t-13 -4l-12 -7q-7 -3 -14 0l-11 7q-6 4 -13 4t-13 -4l-12 -7q3 21 15.5 38.5t31.5 27.5t41 10t41 -10t31.5 -27.5t15.5 -38.5zM12 250q-2 0 -4 -2t-2 -4v-20q0 -2 2 -4 t4 -2t4 2t2 4v20q0 2 -2 4t-4 2zM70 218q2 0 4 2t2 4v20q0 2 -2 4t-4 2t-4 -2t-2 -4v-20q0 -2 2 -4t4 -2zM128 218q2 0 4 2t2 4v20q0 2 -2 4t-4 2t-4 -2t-2 -4v-20q0 -2 2 -4t4 -2zM186 218q2 0 4 2t2 4v20q0 2 -2 4t-4 2t-4 -2t-2 -4v-20q0 -2 2 -4t4 -2zM244 250 q-2 0 -4 -2t-2 -4v-20q0 -2 2 -4t4 -2t4 2t2 4v20q0 2 -2 4t-4 2z" />
</svg>