<svg viewBox="0 0 1024 1024" xmlns="http://www.w3.org/2000/svg">
  <path transform="scale(1, -1) translate(0, -960)" fill="currentColor" d="M528 686v37q0 7 -4.5 11.5t-11.5 4.5t-11.5 -4.5t-4.5 -11.5v-37q-79 -3 -147 -34q-69 -31 -120.5 -83t-80.5 -121q-30 -69 -30 -147q0 -5 2.5 -8.5t5.5 -6.5q4 -2 8.5 -2t7.5 2l87 52q14 8 31 8t33 -8l46 -28q23 -13 49 -13t47 13l47 28q3 2 7 3.5t9 2.5v-360 q0 -7 4 -11.5t12 -4.5q7 0 11.5 4.5t4.5 11.5v362q3 -2 7.5 -3t8.5 -4l46 -27q23 -13 48.5 -13t47.5 13l46 27q15 9 32 9t32 -9l87 -51q2 -1 3.5 -1.5t4.5 -0.5q2 0 3.5 0.5l4.5 1.5q3 2 5.5 6t2.5 8q-1 78 -32 146q-30 69 -81.5 121t-120.5 83q-68 31 -147 34v0zM811 366 q-23 14 -48.5 14t-47.5 -14l-46 -27q-15 -8 -32 -8t-32 8l-45 27q-23 14 -48.5 14t-47.5 -14l-46 -27q-15 -8 -32 -8t-32 8l-47 27q-11 8 -23.5 10.5t-24.5 2.5t-24.5 -3.5t-23.5 -9.5l-61 -36q6 68 37 127q31 60 79.5 103.5t111.5 68.5t134 25t134 -25t111.5 -69t78.5 -103 q31 -60 36 -127l-61 36v0zM48 928q-7 0 -11.5 -4.5t-4.5 -11.5v-78q0 -8 4.5 -12t11.5 -4t11.5 4t4.5 12v78q0 7 -4.5 11.5t-11.5 4.5zM280 818q7 0 11.5 4t4.5 12v78q0 7 -4.5 11.5t-11.5 4.5t-11.5 -4.5t-4.5 -11.5v-78q0 -8 4.5 -12t11.5 -4zM512 818q7 0 11.5 4t4.5 12 v78q0 7 -4.5 11.5t-11.5 4.5t-11.5 -4.5t-4.5 -11.5v-78q0 -8 4.5 -12t11.5 -4zM744 818q7 0 11.5 4t4.5 12v78q0 7 -4.5 11.5t-11.5 4.5t-11.5 -4.5t-4.5 -11.5v-78q0 -8 4.5 -12t11.5 -4zM976 928q-7 0 -11.5 -4.5t-4.5 -11.5v-78q0 -8 4.5 -12t11.5 -4t11.5 4t4.5 12v78 q0 7 -4.5 11.5t-11.5 4.5z" />
</svg>