<svg viewBox="0 0 1024 1024" xmlns="http://www.w3.org/2000/svg">
  <path transform="scale(1, -1) translate(0, -960)" fill="currentColor" d="M528 861v51q0 7 -4.5 11.5t-11.5 4.5t-11.5 -4.5t-4.5 -11.5v-51q-89 -3 -167 -37q-79 -35 -139 -93t-99 -136q-38 -78 -46 -169q-1 -11 4 -21t13 -16q10 -6 21 -6t19 6l68 41q18 11 39 11t39 -11l54 -35q14 -8 28 -12t28 -4q15 0 29.5 4t26.5 12l55 34q6 3 12 5.5 t12 3.5v-454q0 -7 4.5 -11.5t11.5 -4.5t11.5 4.5t4.5 11.5v458l12 -4t12 -6l54 -34q25 -15 56 -15t58 15l54 34q18 11 39.5 11t39.5 -11l67 -42q9 -6 20 -6t20 6t14 15.5t3 21.5q-6 91 -43 169q-38 78 -97.5 136t-138.5 92q-78 34 -167 37v0zM944 418q-1 0 -2.5 -1t-3.5 1 l-68 41q-25 16 -56 16t-57 -16l-55 -33q-18 -11 -39 -11t-39 11l-54 35q-26 15 -57 15t-57 -15l-56 -37q-18 -11 -39 -11t-39 11l-55 35q-13 9 -27 12.5t-29 3.5q-14 0 -29 -3.5t-27 -12.5l-67 -41v0v0q-2 -2 -4 -1l-2 1q-2 0 -3 2t-1 4q8 86 44 161q37 74 95 128.5 t134 85.5t161 31t161 -30q76 -31 134 -85.5t95 -129.5q37 -74 45 -161q0 -2 -1 -4t-2 -2z" />
</svg>