<svg viewBox="0 0 1024 1024" xmlns="http://www.w3.org/2000/svg">
  <path transform="scale(1, -1) translate(0, -960)" fill="currentColor" d="M898 928h-772q-36 0 -62 -26t-26 -62v-786q0 -36 26 -62t62 -26h252q32 0 56 21t30 53l48 293l50 -293q4 -31 29 -52.5t57 -21.5h251q36 0 62 26t26 62v786q-1 36 -26.5 62t-62.5 26zM126 896h773q23 0 39.5 -16.5t16.5 -39.5v-117h-885v117q0 23 16 39.5t40 16.5v0z M898 0h-250q-20 0 -35.5 13t-18.5 33l-66 386q-1 6 -5.5 9.5t-10.5 3.5t-10.5 -4t-5.5 -9l-66 -386q-3 -20 -18.5 -33t-35.5 -13h-250q-22 0 -39 16.5t-17 39.5v637h884v-637q0 -23 -16 -39.5t-40 -16.5z" />
</svg>