<svg viewBox="0 0 256 256" xmlns="http://www.w3.org/2000/svg">
  <path transform="scale(1, -1) translate(0, -256)" fill="currentColor" d="M224 251h-192q-11 0 -18.5 -7.5t-7.5 -17.5v-196q0 -11 7.5 -18t17.5 -7h63q9 0 16 6t8 15l10 55l9 -55q2 -9 9 -15t16 -6h62q11 0 18 7t7 18v196q0 10 -7 17.5t-18 7.5zM32 237h193q4 0 7.5 -3.5t3.5 -7.5v-26h-216v26q0 4 3.5 7.5t8.5 3.5zM224 19h-62q-4 0 -7 2.5 t-4 6.5l-16 96q0 3 -2.5 4.5t-5 1.5t-4.5 -1.5t-2 -4.5l-16 -96q-1 -4 -4 -6.5t-7 -2.5h-62q-5 0 -8 3t-3 8v156h215v-156q0 -5 -3.5 -8t-8.5 -3z" />
</svg>