<svg viewBox="0 0 1024 1024" xmlns="http://www.w3.org/2000/svg">
  <path transform="scale(1, -1) translate(0, -960)" fill="currentColor" d="M512 179q69 0 130 26q60 25 105.5 69.5t71.5 103.5t26 126v408q0 7 -4.5 11.5t-11.5 4.5t-11.5 -4.5t-4.5 -11.5v-408q0 -61 -24 -114q-23 -53 -64 -93t-96 -63t-117 -23t-117 23t-96 63t-64 93q-24 53 -24 114v408q0 7 -4.5 11.5t-11.5 4.5t-11.5 -4.5t-4.5 -11.5v-408 q0 -67 26 -126t71.5 -103.5t105.5 -69.5q61 -26 130 -26v0zM914 0h-804q-7 0 -11.5 -4.5t-4.5 -11.5t4.5 -11.5t11.5 -4.5h802q7 0 11.5 4.5t4.5 11.5t-4 11.5t-10 4.5z" />
</svg>