<svg viewBox="0 0 256 256" xmlns="http://www.w3.org/2000/svg">
  <path transform="scale(1, -1) translate(0, -256)" fill="currentColor" d="M229 208q-14 14 -32.5 19t-36.5 1t-31 -18l-71 -71l-9 9q-5 5 -11.5 6.5t-13.5 -0.5t-11 -7.5t-5 -12.5l-3 -31q-1 -12 6.5 -19t17.5 -7l33 3q7 1 12.5 5t8 10.5t1 13t-6.5 11.5l-9 10l70 70q11 11 25.5 14.5t29.5 -1t26 -15.5t15.5 -26t1 -29.5t-14.5 -24.5l-79 -80 q-2 -2 -2 -5t2 -5t5 -2t5 2l79 80q14 13 18 31t-1 36.5t-19 32.5zM69 100q-2 -5 -8 -6l-31 -3q-5 -1 -8 2.5t-3 8.5l3 31q1 6 7 8h3q4 0 7 -3l28 -28q4 -4 2 -10z" />
</svg>