<svg viewBox="0 0 1024 1024" xmlns="http://www.w3.org/2000/svg">
  <path transform="scale(1, -1) translate(0, -960)" fill="currentColor" d="M907 758q-41 41 -91 62q-51 21 -103 22.5t-101 -17.5q-50 -19 -89 -57l-291 -293l-45 45q-17 17 -40 22.5t-46 -3.5q-23 -8 -37.5 -26.5t-17.5 -42.5l-14 -124q-2 -20 4.5 -37t19.5 -31q12 -12 27 -18t32 -6h5h5l125 13q24 3 42.5 17.5t25.5 37.5q9 22 3.5 45.5 t-22.5 40.5l-45 45l293 293q34 34 77 50q44 16 90 15t90 -20q45 -19 81 -55t55 -81q18 -44 19.5 -90t-14.5 -90t-51 -78l-316 -317q-5 -5 -5 -11.5t5 -10.5q2 -3 5 -4t6 -1q2 0 5.5 1t5.5 4l318 318q39 38 57 88q19 49 17.5 101t-23.5 103q-21 50 -62 90v0zM288 333 q-5 -15 -16.5 -24t-26.5 -10v0v0l-125 -13q-12 -1 -22.5 2.5t-19.5 12.5q-8 8 -11.5 18.5t-2.5 22.5l13 125q2 16 11.5 27.5t23.5 15.5q5 2 9 3t9 1q9 0 18.5 -4t16.5 -11l56 -56v0v0v0v0l56 -56q9 -12 12.5 -26t-1.5 -28v0z" />
</svg>