<svg viewBox="0 0 1024 1024" xmlns="http://www.w3.org/2000/svg">
  <path transform="scale(1, -1) translate(0, -960)" fill="currentColor" d="M730 627h-410v157q0 11 -5.5 20t-15.5 14q-9 4 -20 3t-20 -8l-213 -173q-7 -6 -10.5 -13t-3.5 -16q0 -8 3.5 -16t10.5 -13l215 -172q5 -4 10.5 -6t11.5 -2q4 0 8.5 1t7.5 2q10 5 15.5 14t5.5 19v157h410q47 0 89 -19t73.5 -52t49.5 -77q18 -45 18 -95t-18 -95 q-18 -44 -49.5 -77t-73.5 -52t-89 -19h-224q-8 0 -12 -4.5t-4 -11.5t4 -11.5t12 -4.5h224q54 0 101 21q48 22 83.5 59.5t56.5 87.5t21 107t-21 107t-56.5 87.5t-83.5 59.5q-47 21 -101 21v0zM288 438q0 -2 -1 -3t-2 -1t-2.5 -1t-2.5 1v0v0l-214 172q-2 2 -2 3v2v2t2 1 l214 173l1.5 1.5t1.5 0.5h1.5h0.5q1 0 2 -1.5t1 -3.5v-346z" />
</svg>