<svg viewBox="0 0 256 256" xmlns="http://www.w3.org/2000/svg">
  <path transform="scale(1, -1) translate(0, -256)" fill="currentColor" d="M232 245h-66q-3 0 -5 -2t-2 -5q0 -11 -6 -19t-15 -11q-16 -5 -29 4q-6 5 -9.5 11.5t-3.5 14.5q0 2 -2 4t-4 2h-66q-8 0 -13.5 -5.5t-5.5 -13.5v-55q0 -7 5.5 -12.5t13.5 -5.5h13v-122q0 -8 5.5 -13.5t13.5 -5.5h144q7 0 13 5.5t6 13.5v122h13q8 0 13.5 5.5t5.5 13.5v55 q0 8 -5.5 13.5t-13.5 5.5zM200 25h-65v32q0 3 -2 5t-5 2t-5 -2t-2 -5v-32h-65q-2 0 -3.5 1.5t-1.5 3.5v57h153v-57q1 -2 -0.5 -3.5t-3.5 -1.5zM237 171q0 -2 -1.5 -3.5t-3.5 -1.5h-20q-3 0 -5.5 -2.5t-2.5 -5.5v-58h-153v59q0 3 -2 5t-5 2h-20q-2 0 -3.5 1.5t-1.5 3.5v55 q0 2 1.5 3.5t3.5 1.5h59q1 -9 6 -16.5t13 -13.5t19 -7.5t22 2t19.5 13.5t9.5 22h60q2 0 3.5 -1.5t1.5 -3.5v-55zM134 180q-5 1 -8 -2l-14 -14q-3 -2 -3 -5t2.5 -5t5 -2.5t5.5 2.5l2 2v-26q0 -3 2 -5t5 -2t5 2t2 5v43q0 5 -4 7z" />
</svg>