<svg viewBox="0 0 1024 1024" xmlns="http://www.w3.org/2000/svg">
  <path transform="scale(1, -1) translate(0, -960)" fill="currentColor" d="M928 904h-264q-7 0 -11.5 -5t-4.5 -13q0 -44 -26 -80t-65 -49q-34 -11 -66.5 -5.5t-60.5 24.5q-26 19 -41 48.5t-15 61.5q0 4 -1 6.5t-3 5.5q-3 2 -5.5 3t-6.5 1h-262q-26 0 -45 -18.5t-19 -45.5v-220q0 -27 19 -45.5t45 -18.5h66v-500q0 -26 18.5 -45t45.5 -19h572 q27 0 45.5 19t18.5 45v501h66q26 0 45 19t19 45v221q0 26 -19 45t-45 19v0zM798 24h-270v0v0v139q0 7 -4.5 11.5t-11.5 4.5t-11.5 -4.5t-4.5 -11.5v-139v0v0h-270q-14 0 -23 9.5t-9 22.5v240h636v-240q0 -13 -9 -22.5t-23 -9.5zM960 619q0 -13 -9.5 -22.5t-22.5 -9.5h-82 q-7 0 -11.5 -4.5t-4.5 -11.5v-245h-636v245q0 7 -4.5 11.5t-11.5 4.5h-82q-13 0 -22.5 9.5t-9.5 22.5v221q0 13 9.5 22.5t22.5 9.5h248q4 -36 21 -67t46 -53q34 -24 74 -30.5t80 6.5q47 14 78 54.5t35 91.5h250q13 0 22.5 -9.5t9.5 -22.5v-223zM530 643q-5 3 -9.5 2t-8.5 -5 l-58 -58q-4 -4 -4 -10.5t4 -11.5q5 -5 11.5 -5t11.5 5l30 30v-132q0 -8 4.5 -12t11.5 -4t11.5 4t4.5 12v171q0 5 -2.5 8.5t-6.5 5.5v0z" />
</svg>