<svg viewBox="0 0 1024 1024" xmlns="http://www.w3.org/2000/svg">
  <path transform="scale(1, -1) translate(0, -960)" fill="currentColor" d="M326 877q-50 50 -121 50t-122 -50q-24 -24 -37.5 -55.5t-13.5 -66.5t13 -66t38 -55l133 -133q25 -25 57 -37.5t65 -12.5t64.5 12.5t56.5 37.5q24 24 37.5 55.5t13.5 65.5q0 35 -12.5 66.5t-36.5 55.5zM443 531l-59 59q-5 5 -11.5 5t-10.5 -5q-5 -4 -5 -10.5t5 -11.5 l57 -58q-41 -30 -93 -26t-89 41l-133 133q-19 19 -29.5 44.5t-10.5 52.5q0 28 10.5 53.5t31.5 45.5q20 21 45.5 31.5t53.5 10.5q26 0 51.5 -10.5t47.5 -31.5l133 -132q19 -21 29.5 -46.5t10.5 -53.5q0 -25 -8.5 -48.5t-25.5 -42.5zM942 261l-134 133q-50 50 -121.5 50 t-121.5 -50q-24 -24 -37.5 -55.5t-13.5 -66.5t13 -66.5t38 -55.5l133 -132q25 -26 56.5 -38t64.5 -12q34 0 65.5 12t56.5 38q24 24 37 55t14 65q0 36 -13 67.5t-37 55.5zM918 42v0q-40 -41 -98.5 -41t-99.5 41l-133 132q-20 21 -30.5 46.5t-10.5 53.5q0 22 7 43.5t20 39.5 l56 -58q2 -2 5.5 -3.5t5.5 -1.5q4 0 6.5 1.5t4.5 3.5q5 5 5 11.5t-5 11.5l-57 57q19 17 43 25.5t48 8.5q26 0 52.5 -10.5t46.5 -31.5l133 -133q19 -20 29.5 -46t10.5 -54q2 -27 -8 -52t-31 -44v0zM638 728q8 0 12 4.5t4 11.5v126q0 8 -4 12t-12 4q-7 0 -11.5 -4t-4.5 -12 v-126q0 -7 5 -11.5t11 -4.5zM792 574q0 -7 4.5 -11.5t11.5 -4.5h126q8 0 12 4.5t4 11.5q0 8 -4 12t-12 4h-126q-7 0 -11.5 -4t-4.5 -12zM701 648q3 0 6 1t5 4l107 109q5 4 5 10.5t-5 11.5t-11 5t-11 -5l-109 -109q-5 -5 -5 -11t5 -11q2 -3 5.5 -4t7.5 -1v0zM386 168 q-8 0 -12 -4.5t-4 -11.5v-126q0 -8 4 -12t12 -4q7 0 11.5 4t4.5 12v126q0 6 -4.5 11t-11.5 5zM190 322q0 7 -4 11.5t-12 4.5h-84q-8 0 -12 -4.5t-4 -11.5q0 -8 4 -12t12 -4h84q8 0 12 4t4 12zM277 262l-107 -107q-5 -5 -5 -11t5 -11q2 -3 5 -4t6 -1t6 1t5 4l107 107 q5 5 5 11.5t-5 10.5q-5 5 -11 5t-11 -5z" />
</svg>