<svg viewBox="0 0 256 256" xmlns="http://www.w3.org/2000/svg">
  <path transform="scale(1, -1) translate(0, -256)" fill="currentColor" d="M117 204l-33 33q-14 14 -33 14t-32.5 -13.5t-13.5 -32.5q0 -9 3.5 -17.5t9.5 -15.5l34 -33q6 -7 14.5 -10.5t17.5 -3.5t17.5 3.5t14.5 10.5q14 13 14.5 32t-13.5 33zM62 149l-34 33q-9 10 -9 23t9.5 22.5t22.5 9.5t23 -9l33 -33q9 -9 9 -23q0 -10 -5 -18l-13 12 q-2 2 -4.5 2.5t-5 -2t-2.5 -5t2 -5.5l12 -11q-9 -6 -20 -5t-18 9zM238 84l-34 33q-13 13 -32.5 13t-33 -13.5t-13.5 -32.5t14 -32l33 -34q7 -6 15.5 -9.5t17 -3.5t17 3.5t15 10t10 14.5t3.5 17q2 20 -12 34zM228 28q-10 -9 -23 -9t-23 9l-33 34q-9 10 -9 23q0 8 4 16l12 -12 q2 -2 4.5 -2t4.5 2t2 5t-2 5l-12 12q9 6 19 6q13 0 22 -9l34 -34q9 -9 9 -22.5t-9 -23.5zM160 195q3 0 5 2t2 5v32q0 3 -2 5t-5 2t-5.5 -2t-2.5 -5v-32q1 -3 3 -5t5 -2zM195 160q0 -3 2 -5.5t5 -2.5h32q3 0 5 2.5t2 5.5t-2 5t-5 2h-32q-3 0 -5 -2t-2 -5zM175 175q3 0 5 2 l27 27q2 2 2 5t-2 5t-5 2t-5 -2l-27 -27q-2 -2 -2 -5t2.5 -5t4.5 -2zM96 61q-3 0 -5 -2t-2 -5v-32q0 -3 2 -5t5 -2t5.5 2t2.5 5v32q-1 3 -3 5t-5 2zM51 96q0 3 -2 5.5t-5 2.5h-22q-3 0 -5 -2.5t-2 -5.5t2 -5t5 -2h22q3 0 5 2t2 5zM67 84l-27 -27q-2 -2 -2 -5t2 -5t5 -2t5 2 l26 27q3 2 3 4.5t-2 5t-5 2.5t-5 -2z" />
</svg>