<svg viewBox="0 0 1024 1024" xmlns="http://www.w3.org/2000/svg">
  <path transform="scale(1, -1) translate(0, -960)" fill="currentColor" d="M816 634h-134l14 64q17 78 -25.5 144t-118.5 83q-37 8 -74 1.5t-68 -27.5q-32 -20 -53.5 -51.5t-28.5 -68.5q-1 -6 2.5 -12t10.5 -7q6 -1 12 2.5t7 10.5q6 31 24 56.5t45 42.5q26 17 56.5 22.5t61.5 -0.5q64 -13 98.5 -68.5t21.5 -119.5l-16 -71h-443q-38 0 -65.5 -26 t-27.5 -62v-288q0 -60 24 -113q24 -52 66 -91.5t97 -62.5q56 -22 119 -22h182q63 0 119 23q55 23 97 62.5t66 93.5t24 115v280q0 37 -27.5 63.5t-65.5 26.5v0zM877 262q0 -54 -22 -101q-21 -48 -58.5 -83.5t-87.5 -56.5q-49 -21 -106 -21h-182q-57 0 -106 20 q-50 20 -87.5 55t-58.5 82q-22 47 -22 101v286q0 23 18 39.5t43 16.5h608q25 0 43 -16.5t18 -39.5v-282zM581 296h-138q-13 0 -22.5 -9.5t-9.5 -22.5v-136q0 -13 9.5 -22.5t22.5 -9.5h138q13 0 22.5 9.5t9.5 22.5v136q0 13 -9.5 22.5t-22.5 9.5zM581 126h-138v136h138v-136z " />
</svg>