<svg viewBox="0 0 256 256" xmlns="http://www.w3.org/2000/svg">
  <path transform="scale(1, -1) translate(0, -256)" fill="currentColor" d="M204 177h-30l3 13q4 20 -7 37.5t-31.5 22t-38.5 -6.5q-8 -5 -13.5 -13.5t-7.5 -17.5q-1 -3 0.5 -5.5t4.5 -3t5.5 1t3.5 4.5q3 14 15.5 22.5t27 5.5t23 -16t4.5 -28l-3 -16h-108q-11 0 -18.5 -7.5t-7.5 -17.5v-72q0 -20 10.5 -37.5t29 -27.5t39.5 -10h46q21 0 39.5 10 t29 28t10.5 38v71q0 10 -7.5 17.5t-18.5 7.5zM216 82q0 -17 -8.5 -31.5t-23.5 -23t-33 -8.5h-46q-18 0 -33 8.5t-23.5 22.5t-8.5 30v72q0 5 3.5 8t8.5 3h152q5 0 8.5 -3t3.5 -8v-70zM145 93h-34q-5 0 -8 -3.5t-3 -7.5v-34q0 -5 3 -8.5t8 -3.5h34q5 0 8 3.5t3 8.5v34 q0 4 -3 7.5t-8 3.5zM142 51h-28v28h28v-28z" />
</svg>