<svg viewBox="0 0 1024 1024" xmlns="http://www.w3.org/2000/svg">
  <path transform="scale(1, -1) translate(0, -960)" fill="currentColor" d="M512 294q-7 0 -11.5 -4t-4.5 -12v-291q0 -7 4.5 -11.5t11.5 -4.5t11.5 4.5t4.5 11.5v291q0 6 -4.5 11t-11.5 5v0zM213 6h-91q-22 0 -37.5 16t-15.5 37v91q0 8 -4.5 12t-11.5 4t-11.5 -4t-4.5 -12v-91q0 -35 25 -60t60 -25h91q7 0 11.5 4.5t4.5 11.5q0 8 -4.5 12t-11.5 4z M971 168q-7 0 -11.5 -4.5t-4.5 -11.5v-91q0 -22 -15.5 -37.5t-37.5 -15.5h-91q-7 0 -11.5 -4.5t-4.5 -11.5t4.5 -11.5t11.5 -4.5h91q35 0 60 25t25 60v91q0 6 -4.5 11t-11.5 5zM902 894q22 0 37.5 -15.5t15.5 -36.5v-92q0 -7 4.5 -11.5t11.5 -4.5t11.5 4.5t4.5 11.5v90 q0 35 -25 60t-60 25h-780q-35 0 -60 -25t-25 -60v-91q0 -7 4.5 -11.5t11.5 -4.5t11.5 4.5t4.5 11.5v91q0 22 15.5 37.5t37.5 15.5h374v-1.5v-0.5v-269q0 -7 4.5 -11.5t11.5 -4.5t11.5 4.5t4.5 11.5v269v1.5v0.5h374v1zM693 6h-23q-7 0 -11.5 -4t-4.5 -12q0 -7 4.5 -11.5 t11.5 -4.5h23q7 0 11.5 4.5t4.5 11.5q0 8 -4.5 12t-11.5 4zM349 6h-23q-7 0 -11.5 -4t-4.5 -12q0 -7 4.5 -11.5t11.5 -4.5h23q7 0 11.5 4.5t4.5 11.5q0 8 -5 12t-11 4zM50 251q7 0 11.5 4.5t4.5 11.5v23q0 7 -4.5 11.5t-11.5 4.5q-8 0 -12 -4.5t-4 -11.5v-23q0 -7 5 -11.5 t11 -4.5v0zM50 595q7 0 11.5 4.5t4.5 11.5v23q0 7 -4.5 11.5t-11.5 4.5q-8 0 -12 -4.5t-4 -11.5v-23q0 -7 5 -11.5t11 -4.5v0zM952 290v-23q0 -7 4.5 -11.5t11.5 -4.5t11.5 4.5t4.5 11.5v23q0 7 -4.5 11.5t-11.5 4.5t-11.5 -5t-4.5 -11zM984 611v23q0 7 -4.5 11.5t-11.5 4.5 t-11.5 -4.5t-4.5 -11.5v-23q0 -7 4.5 -11.5t11.5 -4.5t11.5 4.5t4.5 11.5zM48 434h291q7 0 11.5 4t4.5 12q0 7 -4.5 11.5t-11.5 4.5h-291q-7 0 -11.5 -4.5t-4.5 -11.5q0 -6 4.5 -11t11.5 -5zM992 450q0 7 -4.5 11.5t-11.5 4.5h-291q-7 0 -11.5 -4.5t-4.5 -11.5q0 -8 4.5 -12 t11.5 -4h291q7 0 11.5 5t4.5 11z" />
</svg>