<svg viewBox="0 0 1024 1024" xmlns="http://www.w3.org/2000/svg">
  <path transform="scale(1, -1) translate(0, -960)" fill="currentColor" d="M976 886h-928q-7 0 -11.5 -4t-4.5 -12q0 -7 4.5 -11.5t11.5 -4.5h928q7 0 11.5 4.5t4.5 11.5q0 8 -4.5 12t-11.5 4zM309 717h-34q-38 0 -64.5 -27t-26.5 -64v-524q0 -38 27 -64.5t64 -26.5h34q38 0 64.5 27t26.5 64v524q1 37 -26 64t-65 27zM370 102q0 -25 -18 -42 t-42 -17h-33q-25 0 -42 17.5t-17 41.5v524q0 25 17.5 42t41.5 17h33q26 0 43 -17.5t17 -41.5v-524zM749 717h-34q-38 0 -64.5 -27t-26.5 -64v-312q0 -39 27 -65.5t64 -26.5h34q38 0 64.5 27t26.5 65v312q0 37 -27 64t-64 27zM808 314q0 -26 -17.5 -43t-41.5 -17h-34 q-25 0 -42 18t-17 42v312q0 25 17.5 42t41.5 17h34q25 0 42 -17.5t17 -41.5v-312z" />
</svg>