<svg viewBox="0 0 1024 1024" xmlns="http://www.w3.org/2000/svg">
  <path transform="scale(1, -1) translate(0, -960)" fill="currentColor" d="M226 880h572q8 0 12 4.5t4 11.5t-4 11.5t-12 4.5h-572q-8 0 -12 -4.5t-4 -11.5t5 -11.5t11 -4.5v0zM330 758q-36 0 -61.5 -25t-25.5 -61v-410q0 -36 25.5 -61t61.5 -25h30q35 0 60 25t25 61v410q0 36 -25 61t-60 25h-30zM414 672v-410q0 -21 -15.5 -37.5t-36.5 -16.5h-31 q-21 0 -37.5 16t-16.5 38v410q0 22 15.5 38t38.5 16h31q21 0 36.5 -15.5t15.5 -38.5zM662 758q-36 0 -60 -25t-24 -61v-286q0 -36 25 -61.5t59 -25.5h31q36 0 60.5 25.5t24.5 61.5v286q0 36 -25 61t-60 25h-31zM747 672v-286q0 -22 -15.5 -38.5t-37.5 -16.5h-30 q-22 0 -37.5 16t-15.5 39v286q0 22 15.5 38t37.5 16h30q22 0 37.5 -15.5t15.5 -38.5zM976 898q-7 0 -11.5 -4.5t-4.5 -11.5v-813q0 -22 -15.5 -37.5t-37.5 -15.5h-789q-22 0 -38 15.5t-16 37.5v813q0 7 -4.5 11.5t-11.5 4.5t-11.5 -4.5t-4.5 -11.5v-813q0 -36 25 -60.5 t61 -24.5h789q36 0 60.5 25t24.5 60v813q0 6 -4.5 11t-11.5 5z" />
</svg>