<svg viewBox="0 0 256 256" xmlns="http://www.w3.org/2000/svg">
  <path transform="scale(1, -1) translate(0, -256)" fill="currentColor" d="M244 240h-232q-3 0 -5 -2t-2 -5t2 -5t5 -2h232q3 0 5 2.5t2 5.5t-2 4.5t-5 1.5zM77 198h-8q-11 0 -18.5 -7.5t-7.5 -18.5v-130q0 -11 7.5 -18.5t18.5 -7.5h8q11 0 18.5 7.5t7.5 18.5v130q0 11 -7.5 18.5t-18.5 7.5zM89 42q0 -5 -3.5 -8.5t-8.5 -3.5h-8q-5 0 -8.5 3.5 t-3.5 8.5v130q0 6 3.5 9t8.5 3h8q5 0 8.5 -3t3.5 -9v-130zM187 198h-8q-11 0 -18.5 -7.5t-7.5 -18.5v-78q0 -10 7.5 -18t18.5 -8h8q11 0 18.5 8t7.5 18v78q0 11 -7.5 18.5t-18.5 7.5zM199 94q0 -5 -3.5 -8.5t-8.5 -3.5h-8q-5 0 -8.5 3.5t-3.5 8.5v78q0 5 3.5 8.5t8.5 3.5h8 q5 0 8.5 -3t3.5 -9v-78z" />
</svg>