<svg viewBox="0 0 1024 1024" xmlns="http://www.w3.org/2000/svg">
  <path transform="scale(1, -1) translate(0, -960)" fill="currentColor" d="M210 709q13 0 22.5 9.5t9.5 22.5v1q0 14 -9.5 23t-22.5 9q-14 0 -23 -9t-9 -23v-1q0 -13 9 -22.5t23 -9.5zM578 726h86q7 0 11.5 4.5t4.5 11.5q0 8 -4.5 12t-11.5 4h-86q-8 0 -12 -4t-4 -12q0 -7 4 -11.5t12 -4.5zM210 502q-14 0 -23 -9t-9 -23v-1q0 -13 9 -22.5t23 -9.5 q13 0 22.5 9.5t9.5 22.5v1q0 14 -9.5 23t-22.5 9zM811 522v4q0 21 -8.5 39.5t-23.5 31.5q15 8 23.5 22.5t8.5 31.5v178q0 26 -18.5 45t-45.5 19h-651q-26 0 -45 -19t-19 -45v-178q0 -18 9 -32t23 -22q-14 -13 -23 -31t-9 -40v-120q0 -38 27 -65t66 -27h339 q-2 -11 -3.5 -22.5t-1.5 -22.5q0 -55 21 -104t57.5 -85t85.5 -57q48 -21 103 -21q56 0 104 21t84 57.5t57 85.5t21 104q0 44 -13 84q-14 40 -38 72.5t-57 57.5q-33 24 -73 38v0zM64 829q0 13 9.5 22.5t22.5 9.5h651q13 0 22.5 -9.5t9.5 -22.5v-178q0 -13 -9.5 -22.5 t-22.5 -9.5h-651q-13 0 -22.5 9.5t-9.5 22.5v178v0zM125 347q-25 0 -43 18t-18 43v120q0 25 18 43t43 18h595q24 0 41 -17t20 -41q-13 3 -26.5 4t-28.5 1q-45 0 -85 -14q-41 -14 -74.5 -39.5t-58.5 -59.5q-24 -35 -36 -76h-347v0zM725 35q-49 0 -92 19q-42 18 -74 50t-51 75 q-18 43 -18 91q0 49 18 92q19 43 51 75t74 50q43 19 92 19q48 0 91 -19q43 -18 75 -50t50 -75q19 -43 19 -92q0 -48 -19 -91q-18 -43 -50 -75t-75 -50q-43 -19 -91 -19zM739 373q-2 2 -4.5 3.5t-6.5 1.5v0v0q-4 0 -6.5 -1.5t-4.5 -3.5l-77 -77q-5 -5 -5 -11.5t5 -10.5 q5 -5 11.5 -5t10.5 5l48 48v-144q0 -8 4.5 -12t11.5 -4q8 0 12 4t4 12v145l48 -49q3 -3 6 -4t6 -1t5.5 1t5.5 4q5 4 5 10.5t-5 11.5z" />
</svg>