<svg viewBox="0 0 1024 1024" xmlns="http://www.w3.org/2000/svg">
  <path transform="scale(1, -1) translate(0, -960)" fill="currentColor" d="M976 254q-7 0 -11.5 -4t-4.5 -12v-236q-1 0 -2.5 -1t-2.5 -1h-886h-3t-2 2v236q0 8 -4.5 12t-11.5 4t-11.5 -4t-4.5 -12v-240q0 -12 10.5 -21t26.5 -9h885q15 0 25.5 8.5t10.5 21.5v240q2 6 -2.5 11t-11.5 5v0zM368 760l125 126q1 2 2 2t1 2v-652q0 -7 4.5 -11.5 t11.5 -4.5t11.5 4.5t4.5 11.5v653q1 -1 2.5 -1.5t2.5 -1.5l123 -126q2 -3 5.5 -4t5.5 -1q4 0 6.5 1t4.5 4q5 4 5 10.5t-5 11.5l-123 126q-8 9 -19 13.5t-24 4.5v0v0q-12 0 -23.5 -4.5t-19.5 -13.5l-125 -126q-5 -5 -5 -11.5t5 -10.5q6 -6 12.5 -6.5t11.5 4.5v0z" />
</svg>