<svg viewBox="0 0 1024 1024" xmlns="http://www.w3.org/2000/svg">
  <path transform="scale(1, -1) translate(0, -960)" fill="currentColor" d="M955 394q-36 61 -96 96t-129 36h-5.5h-2.5q-41 0 -79 -12.5t-70 -35.5q-39 38 -85.5 59t-97.5 26q63 10 106 58.5t43 112.5q0 72 -51 122.5t-122 50.5q-70 0 -123.5 -51t-53.5 -123q0 -65 42.5 -113.5t106.5 -57.5q-60 -5 -114 -34t-94 -78q-46 -53 -71.5 -126 t-26.5 -154q0 -5 2.5 -8.5t7.5 -6.5q14 -7 46 -21q31 -13 74 -26.5t95 -23.5t106 -10q35 0 72 3.5t74 12.5q1 0 2 0.5t3 0.5q36 -47 87.5 -73.5t110.5 -28.5v0v0v0v0h3h3h3h2h2h1q64 1 119.5 30t93.5 80q25 35 38 75t13 84q2 36 -7.5 70t-27.5 66zM960 258q0 -28 -6 -55 t-20 -53q-27 9 -60.5 16.5t-63.5 11.5q3 19 4.5 39t1.5 39q0 20 -2 40l-4 40q32 4 63 11t61 18q12 -24 19 -52t7 -55v0zM718 26q-16 27 -29 57t-22 61q0 1 -0.5 2.5t-0.5 3.5h1.5h1.5q25 3 51 3t51 -3q0 -1 -0.5 -3t-0.5 -3q-9 -30 -22 -60t-30 -58v0zM514 149 q-14 25 -20 52.5t-6 56.5q0 28 7 55.5t20 52.5q28 -9 55.5 -16t56.5 -11q-3 -20 -5.5 -40.5t-2.5 -40.5q0 -21 2 -41t5 -39q-27 -5 -55.5 -12t-55.5 -16v-0.5t-1 -0.5v0zM579 445h1h-1q1 0 1 0.5t-1 -0.5q23 18 49 29t54 16q-17 -29 -29 -59t-19 -61q-27 3 -52.5 9t-50.5 15 q11 14 23 27t25 24zM771 365q-26 -3 -52.5 -2.5t-51.5 3.5q9 33 22 63.5t31 60.5q17 -30 30 -61.5t21 -63.5zM651 258q0 19 2 38t5 38v0v0q15 -1 31.5 -2t33.5 -1q13 0 27 1l28 2q3 -19 4.5 -38t1.5 -37q0 -19 -2 -38t-4 -37q-28 2 -56.5 2t-55.5 -2h-4h-3q-3 17 -5.5 35.5 t-2.5 38.5v0zM917 394q-28 -10 -56.5 -16t-57.5 -10q-8 32 -20.5 62.5t-28.5 60.5q49 -6 91.5 -31.5t71.5 -65.5zM221 733q0 59 41.5 100t99.5 41q57 0 98.5 -42t41.5 -99q0 -58 -41.5 -99.5t-98.5 -41.5q-58 0 -99.5 41.5t-41.5 99.5zM64 179q2 73 25.5 138t64.5 113 q42 50 95.5 75.5t113.5 25.5q51 0 97.5 -18.5t85.5 -54.5q-16 -14 -29 -30t-24 -34q-18 -32 -27.5 -66t-9.5 -70q0 -38 9.5 -72.5t28.5 -65.5q-33 -7 -65.5 -10.5t-65.5 -3.5q-48 0 -95 8q-46 8 -85.5 20t-70.5 24q-31 13 -48 21v0zM533 118q-1 2 -1.5 2t-0.5 2 q25 7 51 13.5t52 10.5q1 -3 1.5 -5.5t1.5 -4.5q7 -29 19 -56.5t27 -53.5q-45 7 -84 31t-66 61zM754 22q15 27 27 55.5t19 56.5q1 3 1.5 6t1.5 6q28 -4 58.5 -11t56.5 -15q-1 -1 -1.5 -2.5t-1.5 -2.5q-30 -38 -71.5 -62.5t-89.5 -30.5v0z" />
</svg>