<svg viewBox="0 0 256 256" xmlns="http://www.w3.org/2000/svg">
  <path transform="scale(1, -1) translate(0, -256)" fill="currentColor" d="M132 34q-18 -4 -36 -4q-21 0 -46 7q-17 5 -31 12q1 18 7 34.5t16 29t24 19t29.5 6.5t29.5 -6.5t24 -19.5l2 -2q2 -3 4.5 -3.5t5 1t3 4.5t-0.5 5l-3 4q-18 22 -45 29q13 5 21 17.5t8 26.5q0 21 -14 35t-34.5 14t-34.5 -14t-14 -35q0 -15 8 -27t21 -17q-26 -7 -45 -29 q-12 -15 -19 -35t-7 -42q0 -4 4 -6q14 -7 32 -13q29 -9 55 -9q18 0 39 4q3 1 4.5 3.5t1 5t-3 4.5t-5.5 1zM61 194q0 15 10 25t24.5 10t24.5 -10t10 -24.5t-10 -24.5t-24.5 -10t-24.5 10t-10 24zM250 82q-1 5 -5 7.5t-9 2.5h-22l-7 22q-1 4 -5 7t-9 3t-8.5 -3t-5.5 -7l-7 -22 h-22q-5 0 -8.5 -2.5t-5.5 -7t-0.5 -9t5.5 -7.5l18 -13v-1l-6 -20q-1 -5 0.5 -9t5 -7t8.5 -3t8 3l18 12h1l17 -12q4 -3 8.5 -3t8.5 2.5t5.5 7t0.5 9.5l-7 21v1l18 12q4 3 5.5 7.5t-0.5 8.5zM237 78l-18 -13q-4 -3 -5.5 -7.5t0.5 -9.5l7 -20l-1 -1l-18 13q-4 2 -8.5 2t-8.5 -2 l-18 -13l-1 1l7 20q1 5 -0.5 9.5t-4.5 7.5l-18 13v0v1h22q5 0 9 2.5t5 7.5l7 21v0h1l7 -21q1 -5 5 -7.5t9 -2.5h22v-1v0z" />
</svg>