<svg viewBox="0 0 256 256" xmlns="http://www.w3.org/2000/svg">
  <path transform="scale(1, -1) translate(0, -256)" fill="currentColor" d="M128 147q22 0 38 15t16 36.5t-16 37t-38 15.5t-38 -15.5t-16 -37t16 -36.5t38 -15zM128 237q16 0 28 -11.5t12 -27t-12 -26.5t-28 -11t-28 11t-12 26.5t12 27t28 11.5zM128 118q-26 0 -47.5 -12.5t-34 -34t-12.5 -47.5v-12q0 -3 2 -5t5 -2t5 2t2 5v12q0 22 11 40.5 t29.5 29t40 10.5t40 -10.5t29.5 -29t11 -40.5v-12q0 -3 2 -5t5 -2t5 2t2 5v12q0 26 -13 47.5t-34.5 34t-47.5 12.5z" />
</svg>