<svg viewBox="0 0 256 256" xmlns="http://www.w3.org/2000/svg">
  <path transform="scale(1, -1) translate(0, -256)" fill="currentColor" d="M128 147q22 0 38 15t16 36.5t-16 37t-38 15.5t-38 -15.5t-16 -37t16 -36.5t38 -15zM128 237q16 0 28 -11.5t12 -27t-12 -26.5t-28 -11t-28 11t-12 26.5t12 27t28 11.5zM169 126h-82q-15 0 -27 -7t-19 -19.5t-7 -26.5v-53q0 -6 4 -10.5t11 -4.5h159q6 0 10.5 4.5t4.5 10.5 v53q0 22 -16 37.5t-38 15.5zM208 20q0 -1 -1 -1h-158q-1 0 -1 1v53q0 16 11.5 27.5t27.5 11.5h82q16 0 27.5 -11.5t11.5 -27.5v-53z" />
</svg>