<svg viewBox="0 0 1024 1024" xmlns="http://www.w3.org/2000/svg">
  <path transform="scale(1, -1) translate(0, -960)" fill="currentColor" d="M742 434q-2 3 -4.5 6.5t-6.5 5.5q-45 54 -103.5 84t-123.5 35q68 7 115.5 59t47.5 122q0 75 -53.5 128.5t-128.5 53.5q-76 0 -129.5 -53.5t-53.5 -128.5q0 -71 47.5 -122.5t116.5 -58.5q-65 -4 -123.5 -34.5t-104.5 -84.5q-24 -28 -42 -61q-19 -34 -32 -71.5t-20 -78.5 t-8 -85q0 -4 2.5 -8t7.5 -6q15 -8 48 -22q33 -15 78.5 -29t100.5 -25q54 -10 112 -10q37 0 75 4.5t77 12.5q6 1 10 7t3 12q-2 6 -8 10t-12 3q-37 -8 -73.5 -12t-71.5 -4q-52 0 -101 9t-90.5 22t-74.5 26q-32 13 -51 22q2 78 26.5 146.5t67.5 118.5q44 52 101.5 79.5 t121.5 27.5q63 0 120.5 -27.5t101.5 -79.5q3 -2 5 -4.5t3 -6.5q4 -6 10.5 -7t12.5 2q6 4 7 10.5t-3 12.5v0zM334 746q0 62 44 106t107 44q62 0 106 -44t44 -106q0 -63 -44 -107t-106 -44q-63 0 -107 44t-44 107zM888 278q-4 28 -23.5 47.5t-46.5 21.5q-26 4 -48 -8t-34 -33 q-4 -6 -2 -12.5t8 -10.5q6 -3 12.5 -1t10.5 8q7 13 20.5 19.5t28.5 5.5q17 -1 29 -13t15 -28q1 -15 -6 -28t-20 -19q-17 -8 -27.5 -25.5t-10.5 -35.5v-22q0 -7 4 -11.5t12 -4.5q7 0 11.5 4.5t4.5 11.5v22q0 9 6 19t14 13q21 12 32.5 34t9.5 46zM808 54q-10 0 -17 -7t-7 -17 q0 -9 7 -16.5t17 -7.5t17 7.5t7 16.5q0 10 -7 17t-17 7z" />
</svg>