<svg viewBox="0 0 256 256" xmlns="http://www.w3.org/2000/svg">
  <path transform="scale(1, -1) translate(0, -256)" fill="currentColor" d="M198 118q-21 25 -51 31q15 6 24.5 19.5t9.5 29.5q0 22 -15.5 37t-37 15t-37 -15t-15.5 -37q0 -17 9.5 -30t24.5 -19q-30 -7 -51 -31q-13 -16 -20.5 -37.5t-7.5 -45.5q0 -4 4 -6q16 -8 35 -14q31 -10 60 -10t60 10q19 6 34 14q3 2 3 6q-1 25 -8.5 46t-20.5 37zM90 198 q0 16 11 27.5t27 11.5t27 -11.5t11 -27t-11 -27t-27 -11.5t-27 11t-11 27zM128 19q-23 0 -51 8q-18 5 -33 12q1 21 7.5 38.5t18 31.5t26.5 21t32 7t32 -7t26.5 -21t18 -31.5t7.5 -38.5q-42 -20 -84 -20z" />
</svg>