<svg viewBox="0 0 1024 1024" xmlns="http://www.w3.org/2000/svg">
  <path transform="scale(1, -1) translate(0, -960)" fill="currentColor" d="M765 493q-45 0 -84.5 -16.5t-70.5 -44.5q-45 43 -99 66.5t-114 26.5q72 5 121.5 58t49.5 126q0 75 -54 129.5t-130 54.5t-130 -54.5t-54 -131.5q0 -72 48.5 -124.5t119.5 -59.5q-67 -3 -126.5 -34t-105.5 -86q-24 -29 -43 -63q-19 -33 -32 -71t-20 -80q-7 -41 -7 -85 q0 -5 2 -8.5t7 -5.5q16 -8 49 -23q34 -15 80 -29.5t101 -25.5q55 -10 114 -10q37 0 75.5 4.5t76.5 12.5q1 -6 5.5 -10t10.5 -4q7 0 11.5 4.5t4.5 11.5v243q0 40 16 76q15 35 41.5 61.5t62.5 42.5q35 15 75 15q41 0 76 -15t61.5 -41.5t41.5 -62.5q15 -35 15 -76v-242 q0 -7 4.5 -11.5t11.5 -4.5t11.5 4.5t4.5 11.5v242q0 47 -18 89t-49 73t-72 49t-88 18zM232 707q0 63 45 107.5t107 44.5t107 -44.5t45 -107.5q0 -62 -45 -107t-107 -45t-107 45t-45 107zM536 264v-211h-2.5h-2.5q-37 -9 -74 -13.5t-73 -4.5q-52 0 -102 9q-49 9 -91.5 22 t-75.5 27q-32 13 -51 22q2 79 27 148t69 121q44 53 102.5 81t123.5 28q56 0 108.5 -22t94.5 -63q-25 -30 -39 -66.5t-14 -77.5zM765 352q-40 0 -68 -28t-28 -68v-232q0 -7 4.5 -11.5t11.5 -4.5t11.5 4.5t4.5 11.5v232q0 26 18.5 45t45.5 19q26 0 45 -19t19 -45v-24 q0 -7 4.5 -11.5t11.5 -4.5t11.5 4.5t4.5 11.5v24q0 40 -28.5 68t-67.5 28zM845 117q-7 0 -11.5 -4.5t-4.5 -11.5v-79q0 -7 4.5 -11.5t11.5 -4.5t11.5 4.5t4.5 11.5v79q0 7 -4.5 11.5t-11.5 4.5z" />
</svg>