<svg viewBox="0 0 1024 1024" xmlns="http://www.w3.org/2000/svg">
  <path transform="scale(1, -1) translate(0, -960)" fill="currentColor" d="M344 390q77 0 130.5 54.5t53.5 129.5q0 76 -54 130t-130 54t-131 -53.5t-55 -130.5q0 -76 54.5 -130t131.5 -54zM344 728q64 0 108 -45t44 -107q0 -64 -45 -108t-107 -44t-107 45t-45 107q-1 62 43.5 107t108.5 45zM344 296q-43 0 -84 -9q-41 -8 -80 -24.5t-75 -41.5 q-36 -24 -68 -56q-5 -5 -5 -11.5t5 -11.5q2 -2 4.5 -3t6.5 -1t6.5 1t4.5 3q59 59 132 90.5t151 31.5t151.5 -31.5t132.5 -90.5q4 -4 10.5 -4t11.5 4q5 5 5 11.5t-5 11.5q-31 31 -67 55q-36 25 -74.5 41.5t-79.5 25.5t-83 9v0zM765 390q42 0 71.5 29.5t29.5 71.5t-29.5 71.5 t-71.5 29.5t-71.5 -29.5t-29.5 -71.5t30 -71.5t71 -29.5zM765 558q29 0 49 -20t20 -48q0 -29 -20 -49t-49 -20t-49 20t-20 49q0 28 20.5 48t48.5 20zM987 206q-30 29 -67 49q-36 20 -76 30t-82 10q-43 0 -85 -12q-6 -1 -10 -7t-1 -12q1 -6 7 -9t12 -2q77 20 151 1t129 -72 q2 -2 4.5 -3t6.5 -1t6.5 1t4.5 3q5 6 5 13t-5 11v0z" />
</svg>