<svg viewBox="0 0 1024 1024" xmlns="http://www.w3.org/2000/svg">
  <path transform="scale(1, -1) translate(0, -960)" fill="currentColor" d="M328 515q68 0 117 47t49 113t-48 113t-118 47t-118 -47t-48 -113t49 -113t117 -47zM328 803q55 0 94.5 -37.5t39.5 -90.5t-39.5 -90.5t-94.5 -37.5t-94.5 37.5t-39.5 90.5t39.5 90.5t94.5 37.5zM744 437q58 0 98.5 39.5t40.5 96.5q0 56 -40.5 96t-98.5 40t-98.5 -40 t-40.5 -96q0 -57 40.5 -96.5t98.5 -39.5zM744 675q44 0 75.5 -30.5t31.5 -73.5t-31.5 -73.5t-75.5 -30.5t-75.5 30.5t-31.5 73.5t31.5 73.5t75.5 30.5zM752 376h-14q-39 0 -76 -12t-67 -34q-27 48 -76 77.5t-109 29.5h-164q-44 -1 -83 -18t-68 -46.5t-46 -68.5t-17 -83v-127 q0 -14 10 -23.5t24 -9.5h891q14 0 25.5 10.5t11.5 26.5v40q-1 49 -20 92q-19 44 -52 76t-76 51q-44 19 -94 19zM533 91h-467q-2 0 -2 1v1v126q0 76 53.5 129.5t128.5 53.5h162q76 0 129 -53.5t53 -129.5v-126q0 -1 -0.5 -1.5l-0.5 -0.5h-56zM960 96q0 -1 -1 -3t-4 -2h-331v1 v1v126q0 21 -4 41t-12 38q28 21 60.5 32.5t67.5 11.5h16q43 0 81 -16t66 -44.5t45 -65.5q16 -38 16 -82v-38z" />
</svg>