<svg viewBox="0 0 1024 1024" xmlns="http://www.w3.org/2000/svg">
  <path transform="scale(1, -1) translate(0, -960)" fill="currentColor" d="M512 536q42 0 79 15q37 16 64.5 42.5t43.5 62.5t16 77t-16 76q-16 36 -43.5 62.5t-64.5 41.5t-79 15t-79 -15q-37 -16 -64.5 -42.5t-43.5 -62.5t-16 -77t16 -76q16 -36 43.5 -62.5t64.5 -41.5t79 -15zM512 896q71 0 121 -48t50 -117q0 -68 -50 -115.5t-121 -47.5t-121 48 t-50 117q0 68 50 115.5t121 47.5zM512 397q-76 0 -142 -29q-67 -29 -116.5 -78.5t-77.5 -115.5q-29 -66 -29 -142v-48q0 -7 4.5 -11.5t11.5 -4.5t11.5 4.5t4.5 11.5v48q0 69 26 130q26 60 71.5 105.5t105.5 71.5q61 26 130 26t130 -26q60 -26 105.5 -71.5t71.5 -105.5 q26 -61 26 -130v-48q0 -7 4.5 -11.5t11.5 -4.5t11.5 4.5t4.5 11.5v48q0 76 -29 142t-78 115.5t-116 78.5q-66 29 -142 29v0z" />
</svg>