<svg viewBox="0 0 1024 1024" xmlns="http://www.w3.org/2000/svg">
  <path transform="scale(1, -1) translate(0, -960)" fill="currentColor" d="M781 400q-53 62 -122.5 96t-146.5 34t-146.5 -33t-122.5 -97q-26 -31 -47 -68q-20 -37 -34 -78t-22 -86q-8 -44 -9 -91q0 -5 2.5 -8.5t7.5 -6.5q16 -8 52 -24t86 -31.5t110 -26.5q59 -12 123 -12q69 0 130 12q61 11 110 26.5t83 31.5t50 24q3 3 5.5 6.5t2.5 8.5 q-1 47 -8 92q-8 45 -22.5 86t-34.5 77q-21 37 -47 68zM512 0q-57 0 -111 10t-100.5 23.5t-81.5 28.5q-36 15 -56 24q1 43 9 83q7 41 20.5 78t31.5 71q19 33 43 61q48 58 111 88.5t134 30.5q70 0 133.5 -30.5t111.5 -88.5q24 -28 43 -61q18 -34 31.5 -71t20.5 -78 q8 -41 9 -84q-19 -9 -52 -24q-34 -14 -79.5 -27.5t-100.5 -23.5t-117 -10v0zM512 531q41 0 77 16t63 43t43 63q15 36 15 77q0 40 -15 76q-16 37 -43 64t-63 42q-36 16 -77 16t-77 -16q-36 -15 -63 -42t-43 -63q-15 -37 -15 -77q0 -41 15 -77q16 -36 43 -63t63 -43t77 -16z M512 896q68 0 117 -49t49 -117q0 -69 -49 -118t-117 -49t-117 49t-49 118q0 68 49 117t117 49z" />
</svg>