<svg viewBox="0 0 1024 1024" xmlns="http://www.w3.org/2000/svg">
  <path transform="scale(1, -1) translate(0, -960)" fill="currentColor" d="M531 61q-37 -9 -74 -13.5t-73 -4.5q-52 0 -102 9q-49 9 -91.5 22t-74.5 27q-32 13 -50 22q2 79 26.5 148t67.5 121q44 53 102 81t122 28q65 0 122.5 -28t101.5 -81q2 -2 4.5 -5.5t3.5 -5.5q4 -6 10 -7.5t12 2.5t7.5 10t-2.5 12q-2 4 -4.5 7.5t-6.5 7.5q-46 54 -105 84.5 t-125 33.5q69 7 117.5 59.5t48.5 123.5q0 75 -54 129.5t-130 54.5t-130 -54.5t-54 -129.5q0 -72 48.5 -124.5t117.5 -58.5q-66 -3 -125 -33.5t-105 -84.5q-25 -30 -44 -64t-32 -72t-20 -80q-7 -41 -8 -85q0 -5 2.5 -8.5t7.5 -5.5q15 -8 49 -23q33 -14 79 -28.5t101 -24.5 q55 -11 113 -11q37 0 75.5 4.5t78.5 13.5q6 1 10 7t2 12t-7.5 10t-11.5 3v0zM232 714q0 62 45 107t107 45t107 -45t45 -107q0 -63 -45 -107.5t-107 -44.5t-107 44t-45 108zM990 262q-4 15 -16.5 23.5t-27.5 8.5h-88q-5 0 -8.5 2.5t-4.5 7.5l-27 83q-5 15 -17.5 23.5 t-27.5 8.5q-16 0 -28 -8.5t-17 -23.5l-26 -83q-1 -5 -5 -7.5t-7 -2.5h-88q-16 0 -28 -8.5t-17 -23.5q-5 -14 -0.5 -28t17.5 -23l71 -51q3 -2 4.5 -6.5t0.5 -9.5l-26 -85q-5 -14 -0.5 -28.5t18.5 -22.5q6 -5 13 -7.5t14 -2.5t14 2.5t13 7.5l70 51q4 3 8.5 3t9.5 -3l70 -51 q12 -10 27.5 -10t27.5 10t16.5 23.5t0.5 27.5l-27 83q-1 5 0 9.5t5 6.5l70 52q11 9 16 23.5t0 28.5v0zM954 235l-71 -51q-12 -8 -16.5 -22.5t-0.5 -28.5l27 -83q2 -8 -1 -11.5t-4 -4.5q-1 -2 -6 -3.5t-10 3.5l-70 51q-12 8 -27.5 8t-27.5 -8l-70 -51q-6 -5 -10.5 -3.5 t-5.5 3.5q-1 1 -4 4.5t-1 11.5l27 83q5 14 0.5 28.5t-17.5 22.5l-71 51q-6 5 -6 10t1 6q0 1 3 5.5t12 4.5h88q15 0 27.5 8.5t17.5 23.5l27 83q2 7 6.5 8.5t6.5 1.5q1 0 6 -1.5t6 -8.5l28 -83q4 -15 16.5 -23.5t27.5 -8.5h88q8 0 11 -4.5t4 -5.5q-4 -1 -4.5 -6t-6.5 -10v0z " />
</svg>