<svg viewBox="0 0 256 256" xmlns="http://www.w3.org/2000/svg">
  <path transform="scale(1, -1) translate(0, -256)" fill="currentColor" d="M250 35l-12 18q-2 3 -5 4.5t-7 1.5l-24 -3q-3 0 -5 -2t-1.5 -5t2.5 -5t5 -2l14 2q-6 -9 -15 -14.5t-20 -5.5q-13 0 -23.5 7.5t-14.5 20.5q0 2 -3 3.5t-5.5 0.5t-4 -3.5t-0.5 -5.5q3 -7 8 -15l-5 -1q-17 -4 -36 -4q-22 0 -47 7q-17 5 -31 12q1 19 7 36t16.5 29.5t24.5 19 t30 6.5t30 -7t25 -20l1 -1q-12 -9 -17 -21l-7 12q-2 2 -4.5 3t-5 -0.5t-3 -4.5t0.5 -5l12 -19q4 -6 10 -6l26 2q3 0 4.5 2t1.5 5t-2.5 5t-5.5 2l-14 -2q5 11 15 17.5t23 6.5t23.5 -8.5t14.5 -21.5q1 -3 3.5 -4.5t5 -1t4 3t1.5 5.5q-5 18 -19.5 29.5t-33.5 11.5q-10 0 -21 -4 l-2 3q-20 23 -47 29q14 6 22.5 18.5t8.5 27.5q0 21 -15 35.5t-35.5 14.5t-35 -14t-14.5 -35q0 -15 8.5 -27.5t21.5 -18.5q-27 -6 -46 -29q-13 -15 -20 -35t-7 -43q0 -4 4 -6q16 -8 34 -14q29 -9 55 -9q19 0 40 5l12 4q14 -11 32 -11q16 0 28.5 8t19.5 21l8 -12q2 -4 5.5 -4 t5.5 1.5t2 4t-1 5.5zM62 195q0 15 10.5 25.5t25.5 10.5t25.5 -10.5t10.5 -25.5t-10.5 -25.5t-25.5 -10.5t-25.5 10.5t-10.5 25.5z" />
</svg>