<svg viewBox="0 0 256 256" xmlns="http://www.w3.org/2000/svg">
  <path transform="scale(1, -1) translate(0, -256)" fill="currentColor" d="M82 142q18 0 31 12.5t13 30.5t-13 30.5t-31 12.5t-31 -12.5t-13 -30.5t13 -30.5t31 -12.5zM82 214q13 0 21.5 -8.5t8.5 -20.5t-8.5 -20.5t-21.5 -8.5t-21.5 8.5t-8.5 20.5t8.5 20.5t21.5 8.5zM186 122q16 0 27 11t11 26t-11 26t-27 11t-27 -11t-11 -26t11 -26t27 -11z M186 182q10 0 17 -6.5t7 -16t-7 -16.5t-17 -7t-17 7t-7 16.5t7 16t17 6.5zM188 113h-4q-18 0 -34 -10q-8 11 -20.5 18t-27.5 7h-40q-16 0 -29 -7.5t-20.5 -20.5t-7.5 -29v-31q0 -5 3.5 -8.5t8.5 -3.5h223q5 0 8.5 3.5t3.5 8.5v10q-1 17 -9.5 31.5t-23 23t-31.5 8.5zM133 42 h-114v29q0 18 12.5 30.5t30.5 12.5h40q18 0 30.5 -12.5t12.5 -30.5v-29h-12zM237 42h-78v29q0 9 -3 19q13 9 28 9h4q20 0 34.5 -14.5t14.5 -34.5v-8z" />
</svg>