<svg viewBox="0 0 1024 1024" xmlns="http://www.w3.org/2000/svg">
  <path transform="scale(1, -1) translate(0, -960)" fill="currentColor" d="M512 536q42 0 79 15q37 16 64.5 42.5t43.5 62.5t16 77t-16 76q-16 36 -43.5 62.5t-64.5 41.5t-79 15t-79 -15q-37 -16 -64.5 -42.5t-43.5 -62.5t-16 -77t16 -76q16 -36 43.5 -62.5t64.5 -41.5t79 -15zM512 896q71 0 121 -48t50 -117q0 -68 -50 -115.5t-121 -47.5t-121 48 t-50 117q0 68 50 115.5t121 47.5zM677 429h-330q-41 0 -78 -16q-36 -16 -63 -43t-43 -63q-16 -37 -16 -78v-213q0 -20 14 -34t34 -14h635q21 0 34.5 14t13.5 34v213q0 41 -16 78q-16 36 -43.5 63t-63.5 43q-37 16 -78 16zM845 16q0 -7 -4.5 -11.5t-11.5 -4.5h-634 q-7 0 -11.5 4.5t-4.5 11.5v213q0 69 49.5 118.5t118.5 49.5h330q69 0 118.5 -49.5t49.5 -118.5v-213z" />
</svg>