<svg viewBox="0 0 1024 1024" xmlns="http://www.w3.org/2000/svg">
  <path transform="scale(1, -1) translate(0, -960)" fill="currentColor" d="M981 304q-12 11 -41 44t-36 71q-1 6 -5.5 9.5t-10.5 3.5h-232q-13 13 -25 23.5t-26 19.5q-31 22 -64.5 36t-66.5 20q-47 9 -92 5t-86.5 -20t-79.5 -42q-38 -27 -69 -64q-26 -31 -46 -67t-34 -76.5t-21 -85.5q-8 -44 -9 -90q0 -5 2.5 -8.5t6.5 -5.5q17 -9 52 -24 q36 -16 85 -31t108 -27q59 -11 122 -11h21.5t21.5 2q24 1 48 4.5t48 7.5q12 3 24 6.5t26 8.5l52 19q2 -1 4 -3l3 -3q35 -30 65.5 -42t39.5 -14h2h2h1.5h1.5q9 2 40 14t65 42q24 20 42.5 46t31.5 54q16 36 24 78t10 90q1 2 -1 5t-4 5v0zM590 40q-12 -5 -23 -8.5t-21 -4.5 q-23 -5 -46.5 -7.5t-45.5 -3.5q-10 -1 -21 -1.5t-20 -0.5q-56 0 -109 10q-54 10 -99 23.5t-80 28.5q-35 14 -55 23q3 84 29.5 158.5t73.5 129.5q29 34 63 59q34 24 71.5 38.5t78.5 18.5q41 3 83 -4q30 -5 59.5 -18t58.5 -33q13 -10 24.5 -19t23.5 -21q-9 -35 -36 -64.5 t-37 -39.5q-3 -2 -4 -5.5t-1 -7.5q1 -48 9 -90t24 -78q9 -18 19.5 -35.5t24.5 -33.5l-44 -14v0zM925 138q-11 -26 -27.5 -48.5t-38.5 -41.5q-27 -24 -52.5 -35t-35.5 -13q-11 2 -35.5 13t-52.5 35q-20 18 -36.5 40.5t-28.5 49.5q-15 31 -22.5 68t-8.5 80q16 16 39.5 44 t35.5 62q2 0 4 1t3 2t2 2.5l3 4.5h203q11 -38 36 -68.5t42 -47.5q-1 -43 -9 -80t-21 -68v0zM413 538q40 0 76 15q35 15 61.5 41.5t42.5 61.5q15 36 15 77q0 40 -15 76q-16 35 -42.5 61.5t-61.5 42.5q-36 15 -76 15t-76 -15q-35 -16 -62 -42.5t-42 -61.5q-15 -36 -15 -76 q0 -41 15 -77q15 -35 41.5 -61.5t61.5 -41.5q36 -15 77 -15zM413 896q67 0 115 -48t48 -115t-48 -115t-115 -48t-115 48t-48 115t47 115t116 48z" />
</svg>