<svg viewBox="0 0 256 256" xmlns="http://www.w3.org/2000/svg">
  <path transform="scale(1, -1) translate(0, -256)" fill="currentColor" d="M132 30q-5 -1 -14 -1q-22 0 -47 8q-17 5 -33 12q1 19 7.5 36t17 30t25 20t30.5 7q25 0 45 -16q3 -2 5.5 -1.5t4.5 3t1.5 5t-2.5 4.5q-16 13 -34 17q14 6 22.5 18.5t8.5 28.5q0 21 -14.5 35.5t-35.5 14.5t-36 -14.5t-15 -35.5q0 -16 9 -28.5t23 -18.5q-28 -7 -48 -30 q-13 -15 -20 -35.5t-8 -44.5q0 -4 4 -6q16 -8 34 -13q30 -10 56 -10l15 1q3 0 5 2.5t1.5 5t-2.5 4.5t-5 2zM82 200q0 15 10.5 26t25.5 11t25.5 -11t10.5 -26t-10.5 -25.5t-25.5 -10.5t-25.5 10.5t-10.5 25.5zM231 16l-17 23q11 10 13 24q3 19 -8 33.5t-29.5 18t-33.5 -7.5 t-17.5 -29.5t7.5 -33.5q7 -9 16.5 -13.5t20 -4.5t20.5 4l16 -22q2 -3 5 -3t5 1.5t2.5 4.5t-0.5 5zM158 52q-8 11 -6 23.5t12 19.5q8 6 18 6h5q13 -2 20.5 -12.5t5.5 -23t-12.5 -20t-23 -5.5t-19.5 12z" />
</svg>