<svg viewBox="0 0 256 256" xmlns="http://www.w3.org/2000/svg">
  <path transform="scale(1, -1) translate(0, -256)" fill="currentColor" d="M238 128q-2 2 -5 1t-4 -4l-3 -6l-10 5q-3 2 -5.5 1t-4 -4t-0.5 -5.5t4 -3.5l10 -5l-15 -32q-10 2 -20 -1q-13 -5 -19 -17.5t-1.5 -26t17.5 -19.5q6 -3 14 -3q6 0 12 2q13 5 19 17.5t2 25.5q-4 10 -12 16l25 51q1 2 0 4.5t-4 3.5zM215 33q-4 -8 -12 -10.5t-15.5 1t-10 12 t1 15t11.5 9.5q3 2 7 2t9 -2q7 -4 9.5 -12t-0.5 -15zM131 20q-10 -1 -19 -1q-38 0 -84 20q1 21 7 38.5t17.5 31.5t27 21t32 7t32 -7t26.5 -21q2 -2 5 -2.5t5.5 1.5t2.5 5t-2 5q-21 25 -50 31q15 6 24 19.5t9 29.5q0 22 -15.5 37.5t-37 15.5t-37 -15.5t-15.5 -37.5 q0 -16 9.5 -29.5t24.5 -18.5q-30 -7 -51 -32q-13 -15 -20.5 -36.5t-7.5 -45.5q0 -5 4 -7q16 -8 35 -14q32 -10 59 -10q11 0 21 1q3 1 5 3t1.5 5t-3 4.5t-5.5 1.5zM73 198q0 16 11.5 27.5t27 11.5t27 -11.5t11.5 -27.5t-11 -27t-27 -11t-27.5 11t-11.5 27z" />
</svg>