<svg viewBox="0 0 256 256" xmlns="http://www.w3.org/2000/svg">
  <path transform="scale(1, -1) translate(0, -256)" fill="currentColor" d="M241 109q-11 11 -27 11q-11 0 -20 -7l-3 -2l-2 2q-9 7 -21 7h-6q-19 22 -45 28q13 6 21.5 18.5t8.5 27.5q0 20 -14.5 34.5t-35 14.5t-35 -14.5t-14.5 -34.5q0 -16 8.5 -28t21.5 -18q-27 -7 -46 -29q-12 -15 -19 -35t-7 -43q0 -4 4 -6q14 -8 33 -13q29 -10 55 -10 q18 0 40 4h2q3 1 4.5 3t1 5t-3 4.5t-4.5 1.5l-13 -2q-14 -2 -27 -2q-22 0 -46 7q-17 5 -32 12q1 19 7 35.5t16.5 29t24.5 19.5t30 7q29 0 51 -22q-4 -3 -7 -6q-10 -11 -10 -26.5t12 -30.5q6 -7 25 -23l14 -12q4 -4 9 -4t9 4l14 12q19 16 25 23q12 14 11.5 30.5t-10.5 27.5z M62 194q0 14 10 24.5t25 10.5t25.5 -10.5t10.5 -25t-10.5 -25t-25.5 -10.5t-25 10.5t-10 25.5zM228 60q-6 -6 -23 -21l-14 -12l-14 12q-18 15 -23 21q-9 11 -9 21.5t6 17.5t16 7q8 0 13 -4l4 -4q2 -3 6.5 -3t6.5 2l5 5q6 4 12 4q10 0 16.5 -6.5t6.5 -17t-9 -22.5z" />
</svg>