<svg viewBox="0 0 1024 1024" xmlns="http://www.w3.org/2000/svg">
  <path transform="scale(1, -1) translate(0, -960)" fill="currentColor" d="M442 928q-40 0 -75 -15t-61.5 -41.5t-42.5 -61.5q-15 -35 -15 -76q0 -39 15 -74q15 -36 41.5 -62t61.5 -42q35 -15 76 -15q40 0 75 15t61.5 41.5t41.5 61.5t15 75q0 41 -16 76q-15 35 -41.5 61.5t-61.5 41.5t-74 15zM442 574q-66 0 -114 47.5t-48 114.5q0 66 48 113 t114 47t113.5 -47t47.5 -115q-1 -66 -48 -113t-113 -47zM586 422h-338q-59 0 -100.5 -41.5t-41.5 -100.5t41.5 -100.5t100.5 -41.5h226q7 0 11.5 4t4.5 12q0 7 -4.5 11.5t-11.5 4.5h-226q-46 0 -78 32t-32 78t32 78t78 32h338q7 0 11.5 4.5t4.5 11.5q0 8 -4.5 12t-11.5 4z M853 53l-21 19q-5 5 -9.5 9t-8.5 9q17 16 33.5 34.5t32.5 38.5q23 31 32 63t3 62q-8 41 -43.5 69.5t-79.5 29.5q-43 -1 -78.5 -29.5t-44.5 -69.5q-6 -29 3 -60.5t32 -62.5q16 -21 32.5 -39t33.5 -35q-5 -5 -9.5 -9t-8.5 -8l-21 -20l-28.5 -28.5l-28.5 -28.5q-5 -5 -5 -11.5 t5 -11.5q4 -4 10.5 -4t11.5 4q14 15 28.5 29.5t29.5 28.5l19 19l9.5 9.5t7.5 8.5l9.5 -9.5l8.5 -8.5l19 -19q15 -14 29 -28.5t29 -29.5q2 -2 4.5 -3t6.5 -1t6.5 1t4.5 3q5 5 5 11.5t-5 11.5q-12 13 -26 27t-28 29v0zM792 114q-16 16 -32 33.5t-30 36.5q-11 14 -24 41.5 t-7 56.5q7 30 33 51t58 22q33 -1 59.5 -21.5t33.5 -51.5q6 -30 -6 -57t-24 -41q-13 -19 -29 -36.5t-32 -33.5v0z" />
</svg>