<svg viewBox="0 0 1024 1024" xmlns="http://www.w3.org/2000/svg">
  <path transform="scale(1, -1) translate(0, -960)" fill="currentColor" d="M882 358v0v0v0v0q-30 28 -69 44t-82 16q-8 0 -16.5 -1t-15.5 -3l-2 4t-3 3q-50 60 -117 92.5t-142 32.5q79 0 135 56t56 136q0 79 -56.5 135.5t-135.5 56.5q-80 0 -136 -56.5t-56 -135.5q0 -80 56 -136t134 -56q-74 0 -141.5 -32.5t-117.5 -92.5q-25 -30 -45 -66 q-20 -35 -33.5 -74.5t-20.5 -82.5q-8 -44 -8 -89q0 -5 2 -8.5t7 -6.5q16 -7 51 -23q36 -15 83.5 -30t105.5 -26q57 -12 119 -12q37 0 75.5 4.5t77.5 13.5q29 -24 66 -38.5t78 -14.5q46 0 87 18q41 17 71.5 47.5t48.5 71.5q17 41 17 87q0 49 -19.5 92t-53.5 74zM848 346 l-250 -292q-27 27 -43 63t-16 77q0 79 56.5 135.5t135.5 56.5q34 0 63.5 -11t53.5 -29v0zM275 736q0 66 47 113t113 47t113 -47t47 -113t-47 -113t-113 -47q-66 1 -113 47.5t-47 112.5v0zM101 118q2 83 27.5 155.5t71.5 126.5q47 55 107.5 84.5t127.5 29.5q65 0 124 -28 t105 -80q-68 -21 -112.5 -79.5t-44.5 -134.5q0 -42 14.5 -79t38.5 -67q-32 -6 -63.5 -9t-62.5 -3q-54 0 -106 10q-51 10 -95.5 23.5t-78.5 27.5t-53 23v0zM731 0q-30 0 -57.5 9t-51.5 25l250 289q24 -25 37.5 -59t13.5 -72q0 -79 -56.5 -135.5t-135.5 -56.5v0z" />
</svg>