<svg viewBox="0 0 1024 1024" xmlns="http://www.w3.org/2000/svg">
  <path transform="scale(1, -1) translate(0, -960)" fill="currentColor" d="M512 390q47 0 88 18t72 49t49 72q18 42 18 89q0 46 -18 87q-18 42 -48.5 72.5t-72.5 47.5q-41 18 -88 18t-88 -18t-72 -49t-49 -72t-18 -88t18 -88t48.5 -71.5t72.5 -48.5q41 -18 88 -18zM512 811q40 0 76 -15q35 -16 61.5 -42.5t42.5 -61.5q15 -36 15 -76t-15 -76 q-16 -35 -42.5 -61.5t-61.5 -42.5q-36 -15 -76 -15t-76 15q-35 16 -61.5 42.5t-42.5 61.5q-15 36 -15 76q0 41 15 76q16 36 42.5 62.5t61.5 41.5q36 15 76 15v0zM986 80q-49 42 -105 74q-55 32 -115.5 54t-124.5 34q-64 11 -129 11t-129 -11q-64 -12 -124.5 -33.5 t-115.5 -54.5q-56 -32 -105 -74q-4 -5 -5 -11.5t4 -10.5q5 -5 11 -6t11 4q47 40 100 70q53 31 111 52t119 32q62 11 125 11t124 -11t118.5 -32t110.5 -52q54 -30 101 -70q2 -2 4.5 -2.5t5.5 -0.5t6.5 1.5t5.5 4.5q3 4 2.5 10.5t-6.5 10.5v0z" />
</svg>