<svg viewBox="0 0 1024 1024" xmlns="http://www.w3.org/2000/svg">
  <path transform="scale(1, -1) translate(0, -960)" fill="currentColor" d="M541 493q3 6 2 12.5t-7 9.5q-32 22 -68.5 34t-73.5 16q64 8 108.5 57.5t44.5 116.5q0 73 -51.5 124.5t-124.5 51.5t-124.5 -51.5t-51.5 -124.5q0 -67 44.5 -116.5t109.5 -57.5q-61 -5 -117 -34t-98 -80q-45 -55 -70.5 -128.5t-28.5 -157.5q0 -5 2.5 -8.5t7.5 -6.5 q15 -7 47 -21t76 -27.5t96 -23.5q53 -11 109 -11q12 0 25 0.5t26 1.5q7 0 11.5 5t2.5 12q0 6 -5 11t-12 4q-12 -1 -24 -1.5t-24 -0.5q-49 0 -97 9q-47 8 -87 20t-72 25q-31 13 -48 21q2 76 25.5 141.5t65.5 114.5q42 51 97.5 77.5t116.5 26.5q40 0 78 -11.5t71 -32.5 q1 -5 7.5 -4t10.5 7v0zM224 739q0 60 42.5 102t101.5 42t101.5 -42.5t42.5 -101.5t-42.5 -101.5t-101.5 -42.5t-101.5 42t-42.5 102zM794 355q-23 23 -53 34t-63 9q-60 -3 -102 -48t-42 -105q0 -40 17.5 -74t48.5 -56v-73q0 -24 17 -42t42 -18h59q24 0 42 18t18 42v70 q31 22 49 56t18 72q-4 34 -16.5 63t-34.5 52v0v0zM715 13h-59q-11 0 -19 8t-8 19v64h112v-64q1 -12 -7 -19.5t-19 -7.5v0zM750 134h-126q-28 17 -43 45.5t-15 62.5q0 48 34 83.5t82 39.5h3h3q24 0 46 -8.5t39 -25.5q18 -18 28 -41t10 -48q-2 -34 -17.5 -62t-43.5 -46z M686 462q8 0 12 4.5t4 11.5v32q0 8 -4 12t-12 4q-7 0 -11.5 -4t-4.5 -12v-32q0 -7 4.5 -11.5t11.5 -4.5zM898 426l-28 -28q-4 -4 -4 -10.5t4 -11.5q3 -2 6 -3.5t6 -1.5t5.5 1.5t5.5 3.5l27 27q5 5 5 11.5t-5 11.5q-5 3 -11.5 3t-10.5 -3v0zM474 426q-5 4 -11.5 4t-11.5 -4 q-5 -5 -5 -11.5t5 -11.5l27 -27q3 -2 6 -3.5t6 -1.5q2 0 5 1.5t6 3.5q5 5 5 11.5t-5 10.5zM427 216h-32q-7 0 -11.5 -4.5t-4.5 -11.5t4.5 -11.5t11.5 -4.5h32q7 0 11.5 4.5t4.5 11.5t-5 11.5t-11 4.5zM976 216h-32q-7 0 -11.5 -4.5t-4.5 -11.5t4.5 -11.5t11.5 -4.5h32 q7 0 11.5 4.5t4.5 11.5t-4.5 11.5t-11.5 4.5z" />
</svg>