<svg viewBox="0 0 1024 1024" xmlns="http://www.w3.org/2000/svg">
  <path transform="scale(1, -1) translate(0, -960)" fill="currentColor" d="M947 437q-6 3 -12.5 2t-9.5 -7l-183 -291v0v0l-80 -157l108 139l0.5 1t0.5 2v0v0l183 288q2 6 0.5 12.5t-7.5 10.5v0zM720 298q6 2 9 7.5t1 12.5q-14 39 -32 73.5t-44 62.5q-44 53 -101 82.5t-121 34.5q68 7 114 57.5t46 120.5q0 74 -52.5 126.5t-126.5 52.5 q-75 0 -127 -52.5t-52 -126.5q0 -70 45.5 -120.5t112.5 -58.5q-64 -5 -121 -34.5t-101 -82.5q-47 -57 -73.5 -131.5t-27.5 -159.5q0 -5 2.5 -8.5t6.5 -6.5q15 -7 48 -21t77.5 -28t98.5 -25t111 -11q42 0 85 6t88 17q6 1 9.5 7t1.5 12q-1 6 -7 10t-12 1q-42 -11 -83 -16.5 t-82 -5.5q-51 0 -99 9t-89.5 21t-73.5 25t-50 22q2 76 26.5 144t66.5 118q43 52 99 79t120 27q63 0 119.5 -27t99.5 -79q23 -26 40 -58t29 -67q1 -6 7 -9t12 0v0zM266 749q0 61 43 104t104 43t104 -43t43 -104t-43 -104t-104 -43t-104 43t-43 104z" />
</svg>