<svg viewBox="0 0 1024 1024" xmlns="http://www.w3.org/2000/svg">
  <path transform="scale(1, -1) translate(0, -960)" fill="currentColor" d="M954 363q-20 21 -44.5 31.5t-51.5 10.5q-22 0 -41 -6.5t-36 -19.5q-5 -3 -9 -7l-9 -9q-3 5 -8 9t-9 7q-17 13 -36.5 19.5t-40.5 6.5q-7 0 -14.5 -1t-14.5 -2v1.5t-2 1.5q-48 56 -109.5 87t-130.5 34q74 5 124.5 58.5t50.5 127.5q0 77 -54.5 131.5t-131.5 54.5t-131 -54.5 t-54 -131.5q0 -74 50.5 -127.5t123.5 -58.5q-68 -2 -130.5 -33.5t-109.5 -87.5q-25 -30 -44 -64q-19 -35 -32 -73.5t-20 -80.5t-8 -86q0 -5 2.5 -8.5t7.5 -6.5q15 -7 49 -22q35 -15 81.5 -29.5t101.5 -25.5q56 -11 115 -11q63 0 113.5 7.5t52.5 7.5q6 1 10 6.5t3 12.5 q-1 6 -6.5 10t-12.5 3l-50 -7.5t-110 -7.5q-53 0 -103 10q-51 9 -94 22t-76 26q-33 14 -52 22q2 81 27.5 151t68.5 121q44 53 103 82t124 29q64 0 121 -27t102 -77q-10 -5 -19.5 -12t-17.5 -15q-18 -20 -28.5 -46t-10.5 -55q0 -30 11.5 -57.5t35.5 -54.5q20 -24 47.5 -48.5 t59.5 -52.5l2 -2q10 -8 22 -18.5t24 -21.5q6 -4 13 -6.5t14 -2.5t14 2.5t13 6.5q14 11 26 21.5t22 20.5q33 28 60 52.5t48 48.5q24 27 35 55t11 57q0 30 -9.5 56.5t-28.5 45.5v0zM234 710q0 64 45 109t108 45q64 0 109 -45t45 -109q0 -63 -45 -108t-109 -45q-63 0 -108 45 t-45 108v0zM922 170q-18 -23 -45 -46.5t-59 -49.5q-11 -10 -23.5 -20t-24.5 -22q-3 -2 -6 -2t-6 2q-12 11 -23.5 20.5t-22.5 19.5l-2 2q-31 26 -57.5 49.5t-44.5 46.5q-19 24 -28.5 46t-9.5 46q0 23 7.5 43.5t20.5 35.5q15 15 33.5 23.5t40.5 8.5q16 0 30 -5t28 -14l9 -9 t10 -11q6 -8 17.5 -8t17.5 8l9.5 9.5t9.5 8.5q13 10 27.5 14.5t30.5 4.5q21 0 40 -8t33 -24q15 -15 22 -35t7 -43q-2 -23 -12 -45t-29 -46v0z" />
</svg>