<svg viewBox="0 0 1024 1024" xmlns="http://www.w3.org/2000/svg">
  <path transform="scale(1, -1) translate(0, -960)" fill="currentColor" d="M989 69l-48 73q-6 10 -16 14.5t-21 3.5l-98 -10q-6 -1 -10.5 -5.5t-3.5 -11.5q1 -6 5.5 -11t12.5 -4l78 8q-20 -46 -63.5 -74t-94.5 -28q-57 0 -102 32t-63 85q-3 6 -8.5 9t-12.5 0q-6 -2 -9 -7.5t-1 -12.5q6 -20 16.5 -36.5t22.5 -31.5l-34 -12q-38 -9 -75.5 -13.5 t-73.5 -4.5q-52 0 -103 9q-51 10 -94 23t-77 27q-33 14 -52 23q2 80 27.5 151t70.5 124q45 54 104.5 82t123.5 28q65 0 125 -28.5t104 -81.5q3 -3 5 -6t3 -5q0 -2 1 -2t2 -2q-28 -19 -49 -47t-32 -63l-43 69q-4 6 -10.5 7t-12.5 -2q-6 -4 -7 -10.5t2 -12.5l47 -75 q5 -8 14 -13.5t19 -5.5h2h2l97 6q7 0 11.5 5.5t3.5 12.5q0 6 -5.5 10.5t-12.5 3.5l-75 -3q17 53 62 86.5t103 33.5q60 0 106.5 -36t61.5 -92q1 -6 7 -10t12 -1q6 1 9.5 7t1.5 12q-18 67 -73.5 109.5t-126.5 42.5q-24 0 -46 -5t-42 -14q0 1 -1 3t-2 3q-3 4 -5.5 7.5t-5.5 7.5 q-48 57 -111 88t-133 33q75 4 126.5 58t51.5 129q0 78 -55 133t-132 55t-131.5 -55.5t-54.5 -133.5q0 -75 51.5 -129.5t126.5 -57.5q-70 -2 -132.5 -33t-110.5 -89q-25 -29 -44 -64q-19 -34 -32.5 -73t-20.5 -81q-8 -42 -9 -86q0 -5 2.5 -8.5t7.5 -5.5q15 -8 49 -23 q35 -15 81.5 -30t102.5 -26t115 -11q39 0 78.5 4.5t78.5 13.5h1h1l49 17q27 -21 60.5 -33t69.5 -12q64 0 115 34.5t75 92.5l44 -66q2 -3 5.5 -5.5t6.5 -2.5t5 1t3 2q8 4 9 10.5t-2 12.5v0zM235 717q0 65 46 110t109 45q64 0 110 -46t46 -109q0 -64 -46 -109.5t-110 -45.5 q-63 0 -109 45.5t-46 109.5v0z" />
</svg>