<svg viewBox="0 0 256 256" xmlns="http://www.w3.org/2000/svg">
  <path transform="scale(1, -1) translate(0, -256)" fill="currentColor" d="M128 110q16 0 30 8t22 22t8 30t-8 30t-22 22t-30 8t-30 -8t-22 -21.5t-8 -30t8 -30t22 -22t30 -8.5zM128 216q19 0 32.5 -13.5t13.5 -32t-13.5 -32t-32.5 -13.5t-32.5 13.5t-13.5 32t13.5 32t32.5 13.5zM248 38q-24 22 -55.5 33t-64.5 11t-64.5 -11t-55.5 -33 q-3 -1 -3 -4t2 -5.5t4.5 -2.5t5.5 2q23 19 52 29.5t59.5 10.5t59.5 -10.5t52 -29.5q2 -2 5 -2t4.5 2.5t1.5 5.5t-3 4z" />
</svg>