<svg viewBox="0 0 256 256" xmlns="http://www.w3.org/2000/svg">
  <path transform="scale(1, -1) translate(0, -256)" fill="currentColor" d="M183 123h-7v0q-20 24 -48 30q14 6 23 19t9 28q0 21 -15 36t-36 15t-36 -15t-15 -36q0 -15 9 -28t23 -19q-29 -7 -48 -30q-13 -15 -20 -35.5t-8 -43.5q0 -5 4 -7q15 -7 34 -13q30 -10 57 -10q19 0 37 4q16 -13 37 -13q16 0 30 8t21.5 21.5t7.5 29.5t-8 29.5t-21.5 21.5 t-29.5 8zM72 200q0 15 11 26t26 11t26 -11t11 -26t-11 -26t-26 -11t-26 11t-11 26zM28 48q1 19 7 36t17 30t25.5 20t30.5 7q30 0 52 -22q-16 -7 -26 -22t-10 -33.5t10 -33.5q-14 -2 -26 -2q-37 0 -80 20zM183 19q-19 0 -32 13t-13 32t13 32t31.5 13t32 -13t13.5 -32 t-13.5 -32t-31.5 -13zM194 86h-17q-3 0 -5 -2t-2 -5t2 -5t5 -2h7l-18 -16q-2 -2 -2.5 -5t1.5 -5t5 -2t5 1l19 17v-7q0 -3 2 -5t5 -2t5 2t2 5v17q0 6 -4 10t-10 4z" />
</svg>