<svg viewBox="0 0 256 256" xmlns="http://www.w3.org/2000/svg">
  <path transform="scale(1, -1) translate(0, -256)" fill="currentColor" d="M241 116q-9 16 -25 25t-34 9h-2q-21 0 -37 -11q-14 13 -33 18q12 6 19.5 17.5t7.5 24.5q0 19 -13.5 33t-32.5 14t-33 -14t-14 -33q0 -14 7.5 -25t19.5 -17q-24 -6 -41 -27q-12 -13 -18.5 -32t-6.5 -40q0 -4 4 -6q14 -7 30 -12q28 -9 52 -9q18 0 36 4q10 -12 23.5 -18.5 t29.5 -6.5h2q17 0 31.5 7.5t23.5 21.5q14 18 14 41q0 20 -10 36zM224 116q-10 -3 -21 -5q-3 12 -9 24q19 -5 30 -19zM146 124q0 1 1 1v0q7 6 17 9q-5 -10 -8 -22q-12 2 -18 4zM193 80q0 -7 -1 -15h-25q-1 8 -1 16t1 15h14h11q1 -8 1 -16zM170 110q4 13 10 22q6 -12 9 -22 q-9 -1 -19 0zM131 57h-1v0q-5 11 -5 23.5t5 23.5q13 -4 23 -6q-1 -9 -1 -17.5t1 -17.5q-10 -2 -22 -6zM170 51h19q-4 -14 -9 -23q-6 11 -10 23zM58 199q0 14 9.5 23.5t23 9.5t23 -9.5t9.5 -23t-9.5 -23t-23 -9.5t-23 9.5t-9.5 22.5zM19 62q1 18 6.5 33t15.5 26.5t23 18 t27 6.5q23 0 41 -16q-6 -6 -11 -14q-10 -16 -10 -36q0 -17 8 -32q-17 -3 -28 -3q-34 0 -72 17zM138 45q6 2 18 4q3 -12 8 -22q-16 5 -26 18zM194 26q5 9 9 23v0q11 -2 21 -5q-12 -14 -30 -18zM232 57v0h-1q-12 4 -25 6q2 17 0 35q10 1 26 6q5 -12 5 -24t-5 -23z" />
</svg>