<svg viewBox="0 0 1024 1024" xmlns="http://www.w3.org/2000/svg">
  <path transform="scale(1, -1) translate(0, -960)" fill="currentColor" d="M949 440q-6 2 -12.5 0t-8.5 -8l-18 -35l-54 25q-6 3 -12 0.5t-9 -8.5q-2 -6 0 -12t8 -8l55 -26l-72 -149q-20 6 -40.5 6t-39.5 -6q-24 -8 -42 -24.5t-29 -39.5t-12 -47.5t7 -48.5q9 -24 25.5 -41.5t38.5 -28.5q14 -6 27 -9.5t28 -3.5q11 0 21 1.5t20 4.5q24 9 42 25.5 t29 38.5q11 23 12 47.5t-7 48.5q-8 20 -20.5 36t-29.5 27l102 213q2 6 -0.5 12t-8.5 10v0zM874 133q6 -18 5 -36t-9 -35q-8 -16 -21 -28t-31 -18t-36 -5t-35 8q-17 9 -29 22t-19 31q-6 18 -5 36t8 34q9 17 22 29t31 18q7 2 15 3.5t16 1.5q10 0 20 -2.5t20 -7.5 q18 -7 30 -20.5t18 -30.5v0zM525 5q-21 -3 -40 -4t-39 -1q-57 0 -111 10t-100 23.5t-82 28.5t-55 24q1 44 9 84q7 41 20 78.5t32 70.5t43 60q48 58 111 88.5t133 30.5t133.5 -30.5t111.5 -88.5q5 -5 11.5 -5.5t11.5 4.5q4 4 5 10.5t-4 11.5q-53 62 -122.5 96t-146.5 34 q-76 0 -146 -34t-122 -96q-27 -31 -47 -68q-20 -36 -34.5 -77t-21.5 -86q-8 -45 -9 -92q0 -5 2 -8.5t7 -6.5q17 -8 53 -24q37 -16 86.5 -31.5t109.5 -26.5q59 -12 122 -12q21 0 41.5 1t40.5 4q6 1 10 6t4 11q0 8 -5.5 12t-11.5 3zM446 531q41 0 77 16t63 43t43 63t16 77 q0 40 -16 76q-16 37 -43 64t-63 42q-36 16 -77 16q-40 0 -77 -16q-36 -15 -63 -42t-42 -63q-16 -37 -16 -77q0 -41 16 -77q15 -36 42 -63t63 -43q37 -16 77 -16zM446 896q69 0 118 -49t49 -117q0 -69 -49 -118t-118 -49q-68 0 -117 49t-49 118q0 68 49 117t117 49z" />
</svg>