<svg viewBox="0 0 256 256" xmlns="http://www.w3.org/2000/svg">
  <path transform="scale(1, -1) translate(0, -256)" fill="currentColor" d="M128 147q22 0 38 15t16 36.5t-16 37t-38 15.5t-38 -15.5t-16 -37t16 -36.5t38 -15zM128 237q16 0 28 -11.5t12 -27t-12 -26.5t-28 -11t-28 11t-12 26.5t12 27t28 11.5zM153 126h-50q-19 0 -35 -9.5t-25 -25t-9 -34.5v-40q0 -5 3.5 -8.5t8.5 -3.5h164q5 0 8.5 3.5t3.5 8.5 v40q0 19 -9 34.5t-25 25t-35 9.5zM208 19h-160v38q0 15 7 27.5t20 20t28 7.5h50q15 0 28 -7.5t20 -20t7 -27.5v-38z" />
</svg>