<svg viewBox="0 0 256 256" xmlns="http://www.w3.org/2000/svg">
  <path transform="scale(1, -1) translate(0, -256)" fill="currentColor" d="M227 95v14q0 11 -8 19t-19.5 8t-19.5 -8t-8 -19v-14q-10 -7 -16 -17.5t-6 -23.5q0 -20 14.5 -34.5t35 -14.5t34.5 14.5t14 34.5q0 12 -5.5 23t-15.5 18zM186 109q0 6 4 9.5t9.5 3.5t9.5 -4t4 -9v-8q-8 2 -14 2t-13 -2v8zM199 19q-14 0 -24.5 10t-10.5 24.5t10.5 25 t25 10.5t24.5 -10t10 -24.5t-10 -25t-25 -10.5zM199 57q-3 0 -5 -2t-2 -5v-6q0 -3 2 -5t5 -2t5 2t2 5v6q0 3 -2 5t-5 2zM105 139q23 0 43 -14q2 -2 5 -1.5t4.5 3t1 5.5t-2.5 4q-15 10 -32 15q15 6 24 19t9 29q0 22 -15.5 37t-37 15t-36.5 -15t-15 -37q0 -16 9 -29t24 -19 q-30 -7 -50 -31q-13 -16 -20.5 -37t-7.5 -45q0 -4 4 -6q15 -8 35 -14q30 -10 58 -10h11q3 1 5 3t1.5 5t-2.5 5t-5 1h-11q-23 0 -49 8q-18 5 -33 12q1 21 7 38.5t17.5 30.5t26.5 20.5t32 7.5zM67 199q0 16 11 27t26.5 11t27 -11t11.5 -26.5t-11.5 -27t-27 -11.5t-26.5 11 t-11 27z" />
</svg>