<svg viewBox="0 0 1024 1024" xmlns="http://www.w3.org/2000/svg">
  <path transform="scale(1, -1) translate(0, -960)" fill="currentColor" d="M413 530q-77 0 -146.5 -34t-122.5 -96q-26 -31 -47 -68q-20 -36 -34 -77t-22 -86t-9 -92q0 -5 2.5 -8.5t7.5 -6.5q16 -8 52 -24t85.5 -31.5t109.5 -26.5q60 -12 124 -12q67 0 121 7.5t56 8.5q6 1 10 6.5t3 12.5q-1 6 -6.5 10t-12.5 3q-1 0 -54 -7t-119 -7q-56 -1 -110 9 q-54 9 -100 22.5t-82 28.5q-35 15 -55 24q2 44 9 84q8 41 21 78.5t31 70.5q19 33 43 60q48 58 111 88.5t134 30.5q69 0 133 -30.5t112 -88.5q4 -5 10.5 -5.5t11.5 4.5q5 4 5.5 10.5t-3.5 11.5q-53 64 -122.5 97t-146.5 33v0zM413 531q41 0 77 16t63 43t42 63q16 36 16 77 q0 40 -15 76q-16 37 -43 64t-63 42q-36 16 -77 16t-77 -16q-36 -15 -63 -42t-43 -63q-16 -37 -16 -77q0 -41 16 -77q15 -36 42 -63t63 -43t78 -16v0zM413 896q68 0 117 -49t49 -117q0 -69 -49 -118t-117 -49q-69 0 -118 49t-49 118q0 68 48.5 117t118.5 49v0zM902 200h-99 q-24 0 -40.5 16t-16.5 38q0 23 16.5 39t40.5 16h146q7 0 11.5 4.5t4.5 11.5t-4.5 11.5t-11.5 4.5h-67v27q0 7 -4.5 11.5t-11.5 4.5q-8 0 -12 -4.5t-4 -11.5v-27h-47q-37 0 -63 -25.5t-26 -61.5t26 -61t63 -25h99q24 0 41 -16t17 -38q0 -23 -17 -39t-41 -16h-166 q-7 0 -11.5 -4.5t-4.5 -11.5t4.5 -11.5t11.5 -4.5h115v-27q0 -7 4.5 -11.5t11.5 -4.5t11.5 4.5t4.5 11.5v27h21q37 0 63.5 25.5t26.5 61.5t-27 61t-65 25z" />
</svg>