<svg viewBox="0 0 256 256" xmlns="http://www.w3.org/2000/svg">
  <path transform="scale(1, -1) translate(0, -256)" fill="currentColor" d="M181 99q-10 0 -16.5 -6.5t-6.5 -16.5t6.5 -16.5t16 -6.5t16.5 6.5t7 16.5t-7 16.5t-16 6.5zM181 67q-4 0 -6.5 2.5t-2.5 6.5t2.5 6.5t6 2.5t6.5 -2.5t3 -6.5t-3 -6.5t-6 -2.5zM246 64l-11 6v7v6l11 7q3 1 4 4t0 6l-13 23q-2 2 -5 3t-6 0l-12 -7l-1 1q-5 4 -8 6v7 q0 6 -4 9.5t-9 3.5h-23q-5 0 -9 -3.5t-4 -9.5v-2q-18 21 -43 27q13 6 20.5 18t7.5 26q0 20 -14 34t-34 14t-34 -14t-14 -34q0 -15 8 -26.5t21 -17.5q-26 -6 -44 -28q-12 -14 -18.5 -33.5t-7.5 -40.5q0 -5 4 -7q14 -7 32 -13q28 -8 53 -8q16 0 30 2h1q1 -3 4 -4t6 0l13 7 l1 -1q4 -4 8 -6v-8q0 -6 3.5 -9.5t9.5 -3.5h23q5 0 8.5 3.5t3.5 9.5v9q4 1 8 5l1 1l11 -6q4 -2 7.5 -1t4.5 4l13 21q2 4 1.5 7.5t-4.5 5.5zM60 202q0 14 10 24t24 10t24 -9.5t10 -24t-10 -24.5t-24 -10t-24 10t-10 24zM94 42q-21 0 -45 7q-16 5 -30 11q2 37 23 62 q10 12 23.5 18.5t28.5 6.5t28.5 -6.5t23.5 -18.5l2 -2v-1l-11 6q-4 2 -7.5 1t-4.5 -4l-13 -21q-2 -3 -0.5 -6.5t3.5 -4.5l12 -7l-1 -6l1 -7l-12 -6q-3 -2 -4 -5t0 -6l5 -9q-10 -2 -22 -2zM226 94q-3 -1 -4 -4t-1 -7l1 -6l-1 -7q0 -3 1.5 -6t4.5 -5l8 -5l-7 -12l-9 6 q-3 1 -6 0.5t-6 -2.5l-4 -3q-3 -2 -5 -3t-4 -4.5t-2 -7.5v-8h-21v8q0 8 -7 12q-2 0 -5 3l-4 3q-2 3 -5.5 3t-5.5 -2l-8 -3q-2 2 -5 2l-5 8l9 5q3 1 4.5 4t1.5 7l-1 6l1 6q1 8 -6 12l-9 5l7 12l9 -5q3 -2 6.5 -1.5t5.5 2.5l9 7q3 1 5 4.5t2 6.5v8h20v-7q0 -8 8 -12q1 -1 4 -3 l4 -3q3 -3 6 -3t6 2l9 5l7 -12z" />
</svg>