<svg viewBox="0 0 256 256" xmlns="http://www.w3.org/2000/svg">
  <path transform="scale(1, -1) translate(0, -256)" fill="currentColor" d="M86 110q20 0 34.5 14.5t14.5 35t-14.5 35t-34.5 14.5t-34.5 -14.5t-14.5 -35t14.5 -35t34.5 -14.5zM86 195q14 0 24.5 -10.5t10.5 -25t-10 -25t-25 -10.5t-25 10.5t-10 25t10 25t25 10.5zM86 93q-22 0 -42.5 -9t-36.5 -25q-2 -2 -2 -5t2 -5t5 -2t5 2q14 15 31.5 22.5 t37 7.5t37 -7.5t31.5 -22.5q3 -2 5.5 -2t5 2t2.5 5t-3 5q-16 16 -36 25t-42 9zM191 110q12 0 20 8.5t8 20t-8 19.5t-19.5 8t-20 -8t-8.5 -19.5t8.5 -20t19.5 -8.5zM191 153q6 0 10 -4t4 -10t-4 -10t-9.5 -4t-10 4t-4.5 10t4.5 10t9.5 4zM249 70q-16 15 -37 20.5t-44 -0.5 q-2 -1 -3.5 -3.5t-1 -5t3 -4t5.5 -1.5q18 5 36 0.5t31 -16.5q2 -2 4.5 -2t5 2t2.5 5t-2 5z" />
</svg>