<svg viewBox="0 0 256 256" xmlns="http://www.w3.org/2000/svg">
  <path transform="scale(1, -1) translate(0, -256)" fill="currentColor" d="M223 108v0v0h-1q-8 7 -18 11t-21 4h-7v0q-20 24 -48 30q14 6 23 19t9 28q0 21 -15 36t-36 15t-36 -15t-15 -36q0 -15 9 -28t23 -19q-29 -7 -48 -30q-13 -15 -20 -35.5t-8 -43.5q0 -5 4 -7q15 -7 34 -13q30 -10 57 -10q19 0 37 4q16 -13 37 -13q16 0 30 8t21.5 21.5 t7.5 29.5q0 13 -5 24t-14 20zM208 102l-59 -68q-11 12 -11 30.5t13 31.5t32 13q14 0 25 -7zM72 200q0 15 11 26t26 11t26 -11t11 -26t-11 -26t-26 -11t-26 11t-11 26zM28 48q1 19 7 36t17 30t25.5 20t30.5 7q30 0 52 -22q-16 -7 -26 -22t-10 -33.5t10 -33.5q-14 -2 -26 -2 q-37 0 -80 20zM183 19q-12 0 -23 6l58 67q10 -13 10 -28q0 -19 -13.5 -32t-31.5 -13z" />
</svg>