<svg viewBox="0 0 1024 1024" xmlns="http://www.w3.org/2000/svg">
  <path transform="scale(1, -1) translate(0, -960)" fill="currentColor" d="M894 307v64q0 19 -7 37.5t-21 31.5q-14 14 -32 21.5t-37 7.5q-41 0 -69.5 -28.5t-28.5 -69.5v-64q-39 -24 -63.5 -65t-24.5 -92q0 -75 54.5 -129.5t129.5 -54.5q77 0 130.5 54.5t53.5 129.5q1 51 -22.5 92t-62.5 65v0zM731 373q0 27 19 46t47 19q13 0 25 -4.5t21 -14.5 q10 -9 14.5 -21t4.5 -25v-48q-15 6 -31.5 9.5t-33.5 3.5t-33.5 -3.5t-32.5 -9.5v48zM797 0q-64 0 -108 45t-44 107t44.5 107t107.5 45q62 0 107 -45t45 -107t-45 -107t-107 -45zM797 152q-7 0 -11.5 -4.5t-4.5 -11.5v-22q0 -8 4.5 -12t11.5 -4t11.5 4t4.5 12v22q0 7 -5 11.5 t-11 4.5zM614 472q-43 31 -93.5 47.5t-102.5 16.5q-77 0 -145.5 -33t-120.5 -95q-26 -31 -46 -67t-34 -76.5t-21 -85.5q-8 -44 -9 -91q0 -5 2 -8.5t7 -5.5q17 -9 53 -24q36 -16 85 -31t107 -27q59 -11 122 -11h21t23 1q8 0 12 5.5t3 12.5q0 7 -5.5 11.5t-12.5 2.5 q-11 -1 -21.5 -1h-19.5q-56 0 -110 10q-53 10 -98.5 23.5t-80.5 27.5q-36 15 -55 24q2 85 28.5 159.5t73.5 129.5q48 57 110 87t132 30q48 0 93 -14.5t84 -43.5q5 -3 12 -2t11 6q4 6 3 12t-7 10v0zM419 536q41 0 77 15q35 16 61.5 42.5t41.5 61.5q15 36 15 76t-15 76t-42 63 t-62 42q-36 16 -76 16t-76 -15q-36 -16 -62.5 -42.5t-42.5 -61.5q-16 -36 -16 -76t16 -76q15 -36 42 -63t63 -42q35 -16 76 -16zM419 896q67 0 115 -48t48 -115t-48 -115t-115 -48t-115 48t-48 115q-1 67 47 115t116 48z" />
</svg>