<svg viewBox="0 0 256 256" xmlns="http://www.w3.org/2000/svg">
  <path transform="scale(1, -1) translate(0, -256)" fill="currentColor" d="M247 94q-16 15 -18 28q0 2 -2.5 3.5t-4.5 1.5h-56q-5 5 -13 11q-15 10 -31 13q15 6 24 19t9 29q0 22 -15 37t-36.5 15t-37 -15t-15.5 -37q0 -16 9 -29t24 -19q-29 -7 -50 -31q-13 -15 -20 -36t-8 -45q0 -5 4 -7q16 -8 35 -13q31 -10 58 -10h11q11 1 25 3q7 2 13 4l11 5 l1 -1q12 -10 27 -14h3q15 3 28 14.5t19 25.5q9 19 9 44q0 2 -3 4zM65 199q0 16 11 27t27 11t27 -11t11 -27t-11 -27t-27 -11t-27 11.5t-11 26.5zM147 29q-5 -2 -11 -3q-10 -3 -23 -3l-10 -1q-39 0 -83 20q1 20 7.5 38t17.5 31q14 16 32.5 23t38.5 4q14 -3 29 -12q4 -4 10 -9 q-4 -11 -17 -23q-2 -2 -2 -5q0 -25 8 -43q4 -8 8 -15zM228 52q-5 -13 -15 -22q-8 -7 -20 -11q-12 4 -21 11.5t-15 21.5t-7 34q12 12 18 25l2 2h47q5 -14 19 -27q-1 -20 -8 -34z" />
</svg>