<svg viewBox="0 0 256 256" xmlns="http://www.w3.org/2000/svg">
  <path transform="scale(1, -1) translate(0, -256)" fill="currentColor" d="M110 251q-21 0 -36 -15t-15 -36t15 -36t36.5 -15t36.5 15t15 36t-15 36t-37 15zM110 162q-15 0 -26 11t-11 26.5t11 26.5t26.5 11t26.5 -11t11 -26.5t-11 -26.5t-27 -11zM146 124h-84q-16 0 -27 -11t-11 -27t11 -27t27 -11h56q3 0 5.5 2t2.5 5t-2.5 5t-5.5 2h-56 q-10 0 -17 7t-7 17.5t7 17.5t17 7h84q3 0 5.5 2t2.5 5t-2.5 4.5t-5.5 1.5zM215 32l-5 4l-2 3v0q10 11 14 17q13 17 10 33q-3 12 -12.5 19.5t-21.5 7.5t-22 -7.5t-12 -19.5q-4 -16 10 -33q4 -6 14 -17v0l-22 -22q-2 -2 -2 -5t2 -5t5 -2t5 2l22 22l21 -22q2 -2 5 -2t5 2t2 5 t-2 5q-4 5 -14 15zM198 49l-3 3q-7 8 -10 12q-9 12 -7 22q1 7 7 11.5t13 4.5t13 -4.5t7 -11.5q3 -10 -6 -22q-6 -7 -14 -15z" />
</svg>