<svg viewBox="0 0 1024 1024" xmlns="http://www.w3.org/2000/svg">
  <path transform="scale(1, -1) translate(0, -960)" fill="currentColor" d="M512 536q42 0 79 15q37 16 64.5 42.5t43.5 62.5t16 77t-16 76q-16 36 -43.5 62.5t-64.5 41.5t-79 15t-79 -15q-37 -16 -64.5 -42.5t-43.5 -62.5t-16 -77t16 -76q16 -36 43.5 -62.5t64.5 -41.5t79 -15zM512 896q71 0 121 -48t50 -117q0 -68 -50 -115.5t-121 -47.5t-121 48 t-50 117q0 68 50 115.5t121 47.5zM613 429h-202q-54 0 -102 -21q-49 -21 -84.5 -56.5t-56.5 -84.5q-21 -48 -21 -102v-159q0 -15 11.5 -26.5t27.5 -11.5h654q16 0 27 11.5t11 26.5v159q0 54 -21 102q-21 49 -57 84.5t-85 56.5q-48 21 -102 21v0zM845 6q0 -2 -2 -4t-5 -2 h-652q-3 0 -5 2t-2 4v159q0 48 18 90q19 42 50.5 73.5t73.5 50.5q42 18 90 18h202q48 0 90 -18q42 -19 73.5 -50.5t50.5 -73.5q18 -42 18 -90v-159v0z" />
</svg>