<svg viewBox="0 0 1024 1024" xmlns="http://www.w3.org/2000/svg">
  <path transform="scale(1, -1) translate(0, -960)" fill="currentColor" d="M731 418q-8 0 -16.5 -1t-15.5 -3l-2 4t-3 3q-50 60 -117 92.5t-142 32.5q79 0 135 56t56 136q0 79 -56.5 135.5t-135.5 56.5q-80 0 -136 -56.5t-56 -135.5q0 -80 56 -136t134 -56q-74 0 -141.5 -32.5t-117.5 -92.5q-25 -30 -45 -66q-20 -35 -33.5 -74.5t-20.5 -82.5 q-8 -44 -8 -89q0 -5 2 -8.5t7 -6.5q16 -7 51 -23q36 -15 83.5 -30t105.5 -26q57 -12 119 -12q37 0 75.5 4.5t77.5 13.5q29 -24 66 -38.5t78 -14.5q46 0 87 18q41 17 71.5 47.5t48.5 71.5q17 41 17 87t-17 87q-18 41 -48 72t-71 49t-88 18zM275 736q0 66 47 113t113 47 t113 -47t47 -113t-47 -113t-113 -47q-66 1 -113 47.5t-47 112.5v0zM101 118q2 83 27.5 155.5t71.5 126.5q47 55 107.5 84.5t127.5 29.5q65 0 124 -28t105 -80q-68 -21 -112.5 -79.5t-44.5 -134.5q0 -42 14.5 -79t38.5 -67q-32 -6 -63.5 -9t-62.5 -3q-54 0 -106 10 q-51 10 -95.5 23.5t-78.5 27.5t-53 23v0zM731 0q-79 0 -135.5 56.5t-56.5 135.5t56.5 135.5t135.5 56.5t135.5 -56.5t56.5 -135.5t-56.5 -135.5t-135.5 -56.5zM797 266q-5 4 -11.5 4t-11.5 -4l-43 -42l-41 42q-5 4 -11.5 4t-11.5 -4q-5 -5 -5 -11.5t5 -11.5l42 -41l-42 -42 q-5 -5 -5 -11.5t5 -10.5q3 -3 6 -4t5 -1q3 0 6 1t6 4l41 41l42 -41q2 -3 5.5 -4t5.5 -1t5.5 1t5.5 4q5 4 5 10.5t-5 11.5l-41 42l41 41q6 5 6.5 11.5t-4.5 11.5v0z" />
</svg>