<svg viewBox="0 0 1024 1024" xmlns="http://www.w3.org/2000/svg">
  <path transform="scale(1, -1) translate(0, -960)" fill="currentColor" d="M723 318q-32 0 -55 -23t-23 -55t23 -55t55 -23q33 0 56 23t23 55t-23 55t-56 23zM723 194q-19 0 -32.5 13.5t-13.5 32.5t13.5 32.5t32.5 13.5t33 -13.5t14 -32.5t-14 -32.5t-33 -13.5zM981 181l-53 29l2 16t1 16q0 9 -1 16.5t-2 15.5l54 30q8 4 10 12t0 15v1t-2 1l-51 86 q-5 7 -12.5 9.5t-14.5 -1.5h-1t-1 -1l-54 -31q-2 3 -4.5 5t-5.5 3q-7 6 -14.5 12t-17.5 11q-2 1 -2.5 2.5t-0.5 3.5v34q0 15 -11.5 26.5t-26.5 11.5h-91q-16 0 -27.5 -11.5t-11.5 -26.5v-36q0 -2 -1 -3.5t-4 -2.5q-1 0 -2 -1l-1 -1q0 4 -0.5 7t-2.5 6t-4 5t-4 5l-3 3 q-45 52 -101 82t-120 33q67 9 112.5 59t45.5 119q0 74 -52 126.5t-127 52.5q-74 0 -126.5 -52.5t-52.5 -126.5q0 -69 45.5 -120t112.5 -58q-63 -5 -120 -34t-100 -81q-52 -53 -78.5 -128t-27.5 -160q0 -5 2.5 -8.5t7.5 -5.5q15 -8 47 -22q33 -14 77.5 -28t98.5 -25 q54 -10 111 -10q31 0 62.5 3.5t63.5 9.5l7 -12q5 -7 12.5 -9t14.5 1l1 0.5t1 1.5l54 30q2 -2 4.5 -3.5t5.5 -4.5q7 -6 14.5 -11.5t18.5 -10.5q3 -1 4 -2.5t1 -3.5v-39q0 -15 11.5 -26.5t26.5 -11.5h92q15 0 26.5 11.5t11.5 26.5v40q0 3 1 4t4 3q9 4 17 10t15 12q2 2 4.5 4 t4.5 4l52 -29q12 -7 21 -4t12 11l51 86q3 4 3 8.5t-1 9.5l-5 5l-6 6v0zM227 746q0 61 43 104t104 43q62 0 105 -43t43 -104q0 -62 -43 -105t-105 -43q-61 0 -104 43t-43 105v0zM374 93q-50 0 -98 9q-48 8 -89 20.5t-73 25.5t-50 22q2 76 26.5 144t66.5 118q43 50 99 78 t118 28q63 0 119 -27t99 -79l2 -3q1 -3 3 -4.5t3 -3.5q2 -3 4.5 -5t5.5 -2q-3 -2 -5.5 -3.5t-4.5 -4.5q-2 -1 -4.5 -3t-5.5 -5l-51 29q-13 7 -21.5 4t-11.5 -10l-50 -87q-2 -3 -2.5 -7.5t0.5 -9.5q2 -5 4.5 -8.5t7.5 -4.5l54 -29q-1 -7 -2 -15t-1 -17v-15.5t1 -16.5l-54 -32 q-7 -5 -9.5 -12.5t-0.5 -14.5l0.5 -1t1.5 -1l27 -46q-27 -6 -54.5 -8.5t-54.5 -2.5v0zM915 90l-48 25q-8 5 -17 4t-16 -7q-4 -2 -6.5 -4.5l-5.5 -5.5q-7 -6 -12.5 -10.5t-12.5 -6.5q-10 -5 -16.5 -15t-6.5 -20v-40q0 -3 -2 -5t-4 -2h-91q-3 0 -5 2t-2 5v38q0 11 -5.5 20.5 t-16.5 14.5q-7 4 -13.5 8.5t-12.5 10.5q-2 3 -4.5 5.5t-6.5 4.5q-3 4 -8 5t-11 1q-4 0 -7.5 -1t-6.5 -2l-48 -25l-40 68l46 26q8 5 12.5 13.5t3.5 18.5q-1 7 -1.5 13.5t-0.5 13.5t0.5 14t1.5 13q1 10 -2.5 19.5t-13.5 14.5l-45 26l40 68l48 -25q9 -5 18 -4t16 7q2 2 5.5 4.5 t5.5 5.5q7 6 12.5 10.5t13.5 8.5q9 5 15.5 14.5t6.5 20.5v35q0 3 2 5t4 2h92q2 0 4 -2t2 -5v-33q0 -11 6 -21t16 -15q8 -3 13.5 -7.5t12.5 -9.5q2 -3 5.5 -5t5.5 -5q7 -6 16 -6.5t18 3.5l48 26l40 -69l-45 -26q-8 -5 -12.5 -14t-3.5 -19q1 -6 1.5 -13t0.5 -15 q0 -7 -0.5 -13.5t-1.5 -13.5q-1 -9 3.5 -19t12.5 -14l45 -24l-42 -72v0z" />
</svg>