<svg viewBox="0 0 1024 1024" xmlns="http://www.w3.org/2000/svg">
  <path transform="scale(1, -1) translate(0, -960)" fill="currentColor" d="M528 43l-28 -2t-28 -1q-54 0 -106 10q-51 9 -95 22.5t-78 27.5q-35 14 -54 23q3 82 28.5 154t70.5 126q46 54 106.5 83t127.5 29q50 0 98 -16.5t89 -50.5q5 -4 12 -3.5t11 6.5q3 5 2.5 12t-6.5 11q-44 36 -96 54.5t-108 18.5q78 1 133 57t55 134q2 79 -54 134.5 t-134 55.5t-134.5 -55.5t-56.5 -134.5q0 -78 55.5 -134t131.5 -57q-73 0 -139 -32.5t-117 -92.5q-25 -30 -44 -65q-20 -35 -33.5 -74t-20.5 -82q-8 -43 -9 -89q0 -5 2.5 -8.5t7.5 -5.5q16 -8 51 -23q35 -16 82.5 -31t104.5 -26q57 -12 117 -12q14 0 29 1t30 3q6 0 11 5t4 12 q0 7 -5.5 11.5t-12.5 4.5v0zM315 738q0 66 46.5 112t112.5 46t112 -46t46 -112t-46 -112.5t-112 -46.5t-112.5 46.5t-46.5 112.5v0zM912 -6l-72 99q22 19 36 44t18 55q5 32 -2 64.5t-26 60.5v0q-41 56 -109 66.5t-123 -29.5q-28 -20 -45 -48t-23 -61q-4 -33 3 -65t26 -60 q24 -34 60.5 -51.5t75.5 -17.5q22 0 43.5 6t41.5 17l72 -100q2 -3 5.5 -4.5t7.5 -1.5q2 0 4.5 1t4.5 2q5 4 6 10.5t-4 12.5v0zM621 139q-33 46 -24 100.5t54 88.5q18 13 38 19.5t41 6.5q31 0 60 -14.5t48 -41.5v0q16 -22 22 -48t2 -53t-18 -50t-36 -38q-44 -33 -99.5 -24 t-87.5 54z" />
</svg>