<svg viewBox="0 0 256 256" xmlns="http://www.w3.org/2000/svg">
  <path transform="scale(1, -1) translate(0, -256)" fill="currentColor" d="M191 142q-21 0 -39 -14q-16 15 -37 20q14 6 22 18t8 27q0 20 -14.5 34.5t-34.5 14.5t-34.5 -14.5t-14.5 -34.5q0 -15 8.5 -27.5t21.5 -17.5q-27 -7 -45 -29q-13 -15 -20 -35t-7 -42q0 -4 4 -6q15 -8 33 -13q29 -9 54 -9q19 0 37 4q2 -4 5.5 -4t5.5 2.5t2 5.5v60 q0 19 13.5 32.5t32.5 13.5t32.5 -13.5t13.5 -32.5v-60q0 -3 2 -5.5t5 -2.5t5 2.5t2 5.5v60q0 16 -8.5 30t-22.5 22t-30 8zM61 193q0 14 10.5 24.5t25 10.5t25 -10.5t10.5 -25t-10.5 -24.5t-25 -10t-25 10t-10.5 25zM19 47q2 38 23 63q11 13 25 19.5t29 6.5q27 0 47 -18 q-11 -17 -11 -36v-50q-20 -4 -36 -4q-21 0 -46 7q-17 5 -31 12zM191 107q-11 0 -19 -8t-8 -19v-58q0 -3 2 -5.5t5 -2.5t5 2.5t2 5.5v58q0 5 4 9t9.5 4t9.5 -4t4 -9v-6q0 -3 2 -5t5 -2t5 2t2 5v6q0 11 -8.5 19t-19.5 8zM211 48q-3 0 -5 -2t-2 -5v-19q0 -3 2 -5.5t5 -2.5 t5 2.5t2 5.5v19q0 3 -2 5t-5 2z" />
</svg>