<svg viewBox="0 0 1024 1024" xmlns="http://www.w3.org/2000/svg">
  <path transform="scale(1, -1) translate(0, -960)" fill="currentColor" d="M957 656l2 4t1 4v40q0 36 -14.5 70t-39.5 60q-26 24 -57 36.5t-65 11.5q-32 -2 -62 -14.5t-53 -35.5q-24 -24 -37 -55t-13 -65v-72q-23 -5 -53 -8t-62 -3t-62 2.5t-53 8.5v66q0 64 -40 113t-101 59q-42 8 -82 -5t-68 -43q-24 -24 -37 -55t-13 -65v-67v-3.5v-2.5 q-8 -12 -12 -25.5t-4 -29.5q0 -39 28 -67.5t68 -28.5t68 28.5t28 67.5q0 40 -28 68t-68 28q-13 0 -26 -3t-24 -9v44q0 28 10.5 53.5t29.5 44.5q24 24 56 34t66 4q49 -8 81.5 -48.5t32.5 -91.5v-191q0 -13 3 -27t9 -26q17 -30 48 -86t52 -93q3 -7 9 -11t13 -6 q-2 -3 -3.5 -5.5t-1.5 -6.5v-224q0 -7 4.5 -11.5t11.5 -4.5t11.5 4.5t4.5 11.5v226q0 4 -1 6.5t-4 4.5q8 3 13.5 7.5t9.5 10.5l104 179q7 12 10.5 25t3.5 28v193q0 28 10.5 53.5t29.5 44.5t43 29.5t50 10.5q26 1 51.5 -9t46.5 -29q21 -21 32.5 -49t11.5 -57v-30q-7 2 -15 4 t-17 2q-39 0 -67.5 -28t-28.5 -68t28.5 -68t67.5 -28q40 0 68 28t28 68q2 22 -8 40.5t-25 31.5v0zM128 646q26 0 45 -18.5t19 -45.5q0 -26 -19 -45t-45 -19t-45 19t-19 45q0 27 19 45.5t45 18.5zM610 480l-100 -179q-1 -3 -3 -3h-3v0v0h-3t-3 3q-21 37 -52 93t-48 86 q-4 8 -6.5 17.5t-2.5 19.5v91q24 -5 53.5 -8t61.5 -3t61.5 2.5t53.5 8.5v-91q0 -10 -2.5 -19.5t-6.5 -17.5v0zM896 517q-26 0 -45 18.5t-19 45.5q0 26 19 45t45 19t45 -19t19 -45q0 -27 -19 -45.5t-45 -18.5z" />
</svg>