<svg viewBox="0 0 256 256" xmlns="http://www.w3.org/2000/svg">
  <path transform="scale(1, -1) translate(0, -256)" fill="currentColor" d="M243 181v11q0 10 -4 19t-11 15q-14 14 -32 13.5t-31 -13.5t-13 -32v-16q-11 -2 -26 -2t-26 2v14q0 18 -10.5 31t-27.5 15q-11 2 -21.5 -1t-18.5 -11q-13 -14 -13 -33v-17q-4 -7 -4 -14q0 -11 8 -19.5t19.5 -8.5t19.5 8.5t8 19.5t-8.5 19t-19.5 8q-3 0 -9 -2v7q0 13 9 22 q6 5 13.5 7.5t14.5 1.5q11 -2 18.5 -11.5t7.5 -21.5v-47q0 -8 4 -14l25 -45q2 -3 4 -4v-58q0 -3 2 -5t5 -2t5 2t2 5v57q3 2 5 5l24 44q4 7 4 15v49q0 13 9 22t21.5 9.5t22.5 -9.5t10 -24v-4l-5 1q-11 0 -19 -8t-8 -19.5t8 -19.5t19 -8t19 8.5t8 19.5t-8 19zM45 162 q0 -6 -4 -10t-9 -4t-9 4t-4 9.5t4 9.5t9 4t9 -4t4 -9zM150 137l-24 -43l-24 43q-2 4 -2 8v19q12 -2 25.5 -2t26.5 2v-19q0 -5 -2 -8zM224 148q-5 0 -9 4t-4 9.5t4 9.5t9 4t9 -4t4 -9.5t-4 -9.5t-9 -4z" />
</svg>