<svg viewBox="0 0 1024 1024" xmlns="http://www.w3.org/2000/svg">
  <path transform="scale(1, -1) translate(0, -960)" fill="currentColor" d="M734 362h45q16 0 26.5 10.5t10.5 25.5v122q0 16 -10.5 26.5t-26.5 10.5h-123q-16 0 -26.5 -10.5t-10.5 -26.5v-45h-214v45q0 16 -10.5 26.5t-26.5 10.5h-45v174h45q16 0 26.5 10.5t10.5 26.5v123q0 16 -11.5 26.5t-25.5 10.5h-122q-16 0 -27 -10.5t-11 -26.5v-123 q0 -16 10.5 -26.5t26.5 -10.5h45v-174h-45q-16 0 -26.5 -10.5t-10.5 -26.5v-122q0 -15 10.5 -25.5t26.5 -10.5h123q16 0 26.5 10.5t10.5 25.5v45h214v-45q0 -15 10.5 -25.5t26.5 -10.5h45v-191v-3t1 -3h-46q-16 0 -26.5 -10.5t-10.5 -26.5v-122q0 -15 10.5 -25.5t26.5 -10.5 h122q15 0 25.5 10.5t10.5 25.5v122q0 16 -10.5 26.5t-25.5 10.5h-47q1 1 1.5 3t0.5 3v191h1zM240 768v123q0 3 1 4t4 1h123q2 0 3.5 -1t1.5 -4v-123q0 -2 -1.5 -3.5t-3.5 -1.5h-122q-3 0 -4.5 2t-1.5 3zM373 398q0 -2 -1.5 -3t-3.5 -1h-122q-2 0 -3 1t-1 3v122q0 2 1 3.5 t3 1.5h61v0v0v0v0h61q2 0 3.5 -1.5t1.5 -3.5v-122zM651 398v122q0 2 1.5 3.5t3.5 1.5h122q2 0 3 -1.5t1 -3.5v-122q0 -2 -1 -3t-3 -1h-122q-1 0 -3 1t-2 3zM784 128v-122q0 -2 -1 -3t-4 -1h-123q-2 0 -3.5 1t-1.5 3v122q0 2 1.5 3.5t3.5 1.5h122q3 0 4.5 -2t1.5 -3z" />
</svg>