<svg viewBox="0 0 256 256" xmlns="http://www.w3.org/2000/svg">
  <path transform="scale(1, -1) translate(0, -256)" fill="currentColor" d="M195 103q5 0 8.5 4t3.5 9v30q0 5 -3.5 8.5t-8.5 3.5h-31q-5 0 -8.5 -3.5t-3.5 -8.5v-8h-48v8q0 5 -3.5 8.5t-8.5 3.5h-9v38h9q5 0 8.5 3.5t3.5 8.5v31q0 5 -3.5 8.5t-8.5 3.5h-30q-5 0 -9 -3.5t-4 -8.5v-31q0 -5 4 -8.5t9 -3.5h8v-38h-8q-5 0 -9 -3.5t-4 -8.5v-31 q0 -5 3.5 -8.5t9.5 -3.5h30q5 0 8.5 3.5t3.5 8.5v9h48v-8q0 -6 3.5 -9.5t8.5 -3.5h9v-43h-9q-5 0 -8.5 -3.5t-3.5 -8.5v-30q0 -5 3.5 -9t8.5 -4h31q5 0 8.5 4t3.5 9v30q0 5 -3.5 8.5t-8.5 3.5h-9v43h9zM63 237h27v-27h-27v27zM90 117h-27v27h27v-27zM193 19h-27v27h27v-27z M166 144h27v-27h-27v27z" />
</svg>