<svg viewBox="0 0 256 256" xmlns="http://www.w3.org/2000/svg">
  <path transform="scale(1, -1) translate(0, -256)" fill="currentColor" d="M202 192q7 -5 17 -5q13 0 22.5 9.5t9.5 22.5t-9.5 22.5t-22.5 9.5t-22.5 -9.5t-9.5 -22.5q0 -8 5 -17l-15 -15q-4 2 -8 3q1 4 1 9q0 13 -9.5 22.5t-22.5 9.5t-22.5 -9.5t-9.5 -21.5t7.5 -21t18.5 -11l-7 -7q-5 2 -11 1t-10 -5l-66 -67q-9 -8 -9 -20t9 -21v-1l-31 -31 q-2 -2 -2 -5t2 -5t5 -2t5 2l31 31l1 -1q9 -9 21 -9t21 9l67 67q5 5 5 13q0 4 -2 8l7 7q2 -11 11 -18.5t21 -7.5t21.5 9.5t9.5 22.5t-9.5 22.5t-22.5 9.5q-5 0 -9 -1q0 4 -3 8zM219 237q7 0 12.5 -5t5.5 -12.5t-5.5 -13t-13 -5.5t-12.5 5.5t-5 13t5 12.5t13 5zM176 165 q0 -5 -3 -8l-21 -21l-16 16l20 20q3 3 7.5 4t8.5 -2t4 -9zM120 199q0 8 5.5 13t13 5t12.5 -5t5 -12.5t-5 -13t-12.5 -5.5t-13 5.5t-5.5 12.5zM147 114l-66 -67q-5 -4 -11 -4t-11 4l-12 12q-4 5 -4 11t4 11l67 67q2 1 4 1t3 -1l27 -27q1 -1 1 -3.5t-2 -3.5zM217 138 q0 -7 -5 -12.5t-12.5 -5.5t-13 5.5t-5.5 13t5.5 12.5t13 5t12.5 -5t5 -13z" />
</svg>