<svg viewBox="0 0 1024 1024" xmlns="http://www.w3.org/2000/svg">
  <path transform="scale(1, -1) translate(0, -960)" fill="currentColor" d="M875 696q48 0 81.5 34t33.5 81t-33.5 82t-81.5 35t-81.5 -34t-33.5 -81q0 -19 6.5 -37t17.5 -34l-72 -72v0.5t-2 1.5q-12 7 -25 10.5t-26 3.5q5 11 8 23t3 25q0 48 -34 82t-81 34t-81 -34.5t-34 -81.5q0 -46 34 -80.5t81 -34.5h1h1l-53 -53q-18 11 -39.5 8.5t-37.5 -17.5 l-269 -269q-14 -14 -22 -33t-8 -41q0 -20 8 -39.5t22 -33.5l13 -13l-133 -133q-4 -5 -4 -11t4 -11q2 -3 5 -4t5 -1t5.5 1t5.5 4l133 133l13 -13q15 -16 34 -23.5t39 -7.5q21 0 39.5 7.5t34.5 23.5l267 267q10 10 14.5 21.5t4.5 23.5q0 9 -2 18t-7 17l51 51v-0.5v-0.5 q0 -48 34 -82t81 -34t81 34.5t34 81.5q0 48 -34 81.5t-81 33.5q-13 0 -25 -2.5t-23 -7.5v1v1q0 14 -3.5 27t-12.5 24l72 72q17 -11 35 -17.5t37 -6.5v0zM875 896q35 0 60 -25t25 -58q0 -34 -25 -58.5t-58 -24.5q-34 0 -58.5 24.5t-24.5 58.5q0 33 23 58t58 25v0zM691 645 q12 -9 19 -21.5t7 -26.5q0 -12 -4.5 -22t-11.5 -18l-93 -95l-82 82l92 91q15 15 36.5 18t36.5 -8v0zM469 733q0 35 24.5 59t58.5 24q35 0 59 -25t24 -58q0 -35 -24.5 -59t-58.5 -24t-58.5 24t-24.5 59zM598 382l-267 -267q-21 -21 -51 -21t-51 21l-24 24v0v0v0v0l-24 24 q-11 11 -16 24t-5 27q0 15 5.5 28.5t15.5 23.5l267 267q10 9 22.5 9t22.5 -9l105 -106q5 -5 7.5 -10.5t2.5 -11.5t-2.5 -12t-7.5 -11v0zM880 488q0 -35 -25 -59t-58 -24q-34 0 -58.5 24.5t-24.5 58.5t24.5 58.5t58.5 24.5q33 0 58 -24t25 -59v0z" />
</svg>