<svg viewBox="0 0 1024 1024" xmlns="http://www.w3.org/2000/svg">
  <path transform="scale(1, -1) translate(0, -960)" fill="currentColor" d="M928 928h-832q-26 0 -45 -19t-19 -45v-832q0 -26 19 -45t45 -19h832q26 0 45 19t19 45v832q0 26 -19 45t-45 19zM928 0h-832q-13 0 -22.5 9.5t-9.5 22.5v832q0 13 9.5 22.5t22.5 9.5h832q13 0 22.5 -9.5t9.5 -22.5v-174h-102q-8 0 -12 -4.5t-4 -11.5q0 -8 4 -12t12 -4 h102v-442h-102q-8 0 -12 -4.5t-4 -11.5t4 -11.5t12 -4.5h102v-152q0 -13 -9.5 -22.5t-22.5 -9.5zM710 454h-91q-5 64 -50.5 110t-109.5 52v91q0 7 -4.5 11.5t-11.5 4.5t-11.5 -4.5t-4.5 -11.5v-91q-63 -6 -109 -51.5t-52 -110.5h-90q-7 0 -11.5 -4t-4.5 -12q0 -7 4.5 -11.5 t11.5 -4.5h91q6 -63 51.5 -109t110.5 -52v-91q0 -8 4.5 -12t11.5 -4t11.5 4t4.5 12v91q63 6 109 51.5t52 109.5h92q7 0 11.5 4.5t4.5 11.5q0 8 -6 12t-14 4zM443 293q-60 0 -102.5 42.5t-42.5 102.5t42.5 103t102.5 43t103 -43t43 -103t-43 -102.5t-103 -42.5v0zM443 501 q-26 0 -45 -19t-19 -45q0 -27 19 -45.5t45 -18.5q27 0 45.5 18.5t18.5 45.5q0 26 -18.5 45t-45.5 19v0zM443 406q-13 0 -22.5 9.5t-9.5 22.5q0 14 9.5 23t22.5 9t22.5 -9t9.5 -23q0 -13 -9.5 -22.5t-22.5 -9.5z" />
</svg>