<svg viewBox="0 0 256 256" xmlns="http://www.w3.org/2000/svg">
  <path transform="scale(1, -1) translate(0, -256)" fill="currentColor" d="M232 251h-208q-8 0 -13.5 -5.5t-5.5 -13.5v-208q0 -8 5.5 -13.5t13.5 -5.5h208q8 0 14 5.5t6 13.5v208q-1 8 -6.5 13.5t-13.5 5.5zM232 19h-208q-2 0 -3.5 1.5t-1.5 3.5v208q0 2 1.5 3.5t3.5 1.5h208q2 0 3.5 -1.5t1.5 -3.5v-40h-23q-3 0 -5 -2.5t-2 -5.5t2 -5t5 -2h23 v-104h-23q-3 0 -5 -2t-2 -5t2 -5.5t5 -2.5h23v-34q0 -2 -1.5 -3.5t-3.5 -1.5zM178 132h-20q-3 16 -14 27t-26 13v20q0 3 -2.5 5.5t-5.5 2.5t-5 -2.5t-2 -5.5v-20q-15 -2 -26 -13t-14 -27h-20q-3 0 -5 -2t-2 -5t2 -5t5 -2h20q3 -15 14 -26.5t26 -13.5v-20q0 -3 2 -5t5 -2 t5.5 2t2.5 5v20q15 2 26 13t14 27h20q3 0 5 2t2 5t-2 5t-5 2zM111 92q-14 0 -24 10t-10 23.5t10 23.5t24 10t23.5 -10t9.5 -23.5t-9.5 -23.5t-23.5 -10zM111 137q-5 0 -8.5 -3.5t-3.5 -8.5t3.5 -8.5t8.5 -3.5t8.5 3.5t3.5 8.5t-3.5 8.5t-8.5 3.5z" />
</svg>