<svg viewBox="0 0 1024 1024" xmlns="http://www.w3.org/2000/svg">
  <path transform="scale(1, -1) translate(0, -960)" fill="currentColor" d="M808 590q7 -31 32.5 -52t58.5 -21q39 0 66 27t27 66q0 38 -27 65t-66 27q-36 0 -62 -23t-31 -58h-201q-5 35 -31 58t-62 23t-62 -23t-31 -58h-201q-5 35 -31 58t-62 23q-39 0 -66 -27t-27 -65q0 -39 27 -66t66 -27q33 0 59 21t32 52v-1h146q-68 -35 -112.5 -97.5 t-54.5 -139.5h-40q-15 0 -26.5 -11.5t-11.5 -26.5v-82q0 -16 11.5 -27t26.5 -11h123q16 0 27.5 11t11.5 27v82q0 15 -11.5 26.5t-27.5 11.5h-51q6 40 23 76q17 37 42.5 66.5t59.5 51.5q33 22 72 33q10 -27 34 -45.5t54 -18.5t54 17.5t34 43.5q74 -25 125 -86.5t62 -139.5 h-41q-16 0 -27.5 -11t-11.5 -27v-82q0 -15 11.5 -26.5t27.5 -11.5h123q15 0 26.5 11.5t11.5 26.5v82q0 16 -11.5 27t-26.5 11h-50q-11 77 -55 139.5t-111 97.5l155 3v0zM899 670q25 0 43 -17.5t18 -42.5q0 -26 -18 -43.5t-43 -17.5t-43 17.5t-18 43.5q0 25 18 42.5t43 17.5z M125 547q-25 0 -43 18.5t-18 44.5q0 25 18 42.5t43 17.5t43 -17.5t18 -42.5q0 -26 -18 -44.5t-43 -18.5zM285 314v-82q0 -2 -2 -4t-5 -2h-123q-2 0 -4 2t-2 4v82q0 2 2 4t4 2h123q3 0 5 -2t2 -4zM512 547q-25 0 -43 18t-18 43t18 43t43 18t43 -18t18 -43t-18 -43t-43 -18v0z M875 314v-82q0 -2 -2 -4t-4 -2h-123q-3 0 -5 2t-2 4v82q0 2 2 4t5 2h123q2 0 4 -2t2 -4z" />
</svg>