<svg viewBox="0 0 1024 1024" xmlns="http://www.w3.org/2000/svg">
  <path transform="scale(1, -1) translate(0, -960)" fill="currentColor" d="M902 928h-112q-26 0 -45 -19t-19 -45v-112q0 -8 2.5 -16.5t7.5 -15.5l-470 -522q-8 5 -16 7.5t-16 2.5h-112q-27 0 -45.5 -19t-18.5 -45v-112q0 -26 18.5 -45t45.5 -19h112q26 0 45 19t19 45v112q0 8 -2.5 16.5t-7.5 15.5l470 523q8 -5 16 -7t16 -2h112q27 0 45.5 18.5 t18.5 45.5v110q0 26 -18.5 45t-45.5 19zM266 32q0 -13 -9.5 -22.5t-22.5 -9.5h-112q-14 0 -23 9.5t-9 22.5v112q0 13 9 22.5t23 9.5h112q13 0 22.5 -9.5t9.5 -22.5v-112zM934 752q0 -13 -9 -22.5t-23 -9.5h-112q-13 0 -22.5 9.5t-9.5 22.5v112q0 13 9.5 22.5t22.5 9.5h112 q14 0 23 -9.5t9 -22.5v-112z" />
</svg>