<svg viewBox="0 0 1024 1024" xmlns="http://www.w3.org/2000/svg">
  <path transform="scale(1, -1) translate(0, -960)" fill="currentColor" d="M922 157q0 24 -13 94t-72 131q-41 44 -99 65.5t-132 22.5v39q0 13 -9 22.5t-23 9.5h-124q-14 0 -23 -9.5t-9 -22.5v-45q-64 2 -114 21.5t-86 56.5q-48 51 -61 110t-15 86h7q30 0 51 21t21 51v46q0 30 -21 51t-51 21h-45q-30 0 -51 -21t-21 -51v-45q0 -30 21 -51t51 -21h6 q2 -30 16 -95t68 -122q39 -42 95 -64t127 -24v-48q0 -14 9.5 -23t22.5 -9h125q13 0 22.5 9t9.5 23v54q67 -1 118.5 -20.5t87.5 -57.5q52 -56 63.5 -119.5t11.5 -84.5h-14q-30 0 -51 -21t-21 -51v-44q0 -30 21 -51t51 -21h45q30 0 51 21t21 51v44q2 29 -18.5 50t-48.5 21v0z M64 811v45q0 17 11.5 28.5t28.5 11.5h45q17 0 28.5 -11.5t11.5 -28.5v-45q0 -17 -11.5 -28.5t-28.5 -11.5h-45q-17 0 -28.5 11.5t-11.5 28.5v0zM450 386v124h124v-124h-124v0zM960 40q0 -17 -11.5 -28.5t-28.5 -11.5h-45q-17 0 -28.5 11.5t-11.5 28.5v45q0 17 11.5 28.5 t28.5 11.5h45q17 0 28.5 -11.5t11.5 -28.5v-45z" />
</svg>