<svg viewBox="0 0 256 256" xmlns="http://www.w3.org/2000/svg">
  <path transform="scale(1, -1) translate(0, -256)" fill="currentColor" d="M228 151q-8 0 -14 -4.5t-8 -11.5h-50l-23 23q-2 2 -5 2t-5 -2l-23 -23h-50q-2 7 -8 11.5t-15 4.5t-15.5 -7t-6.5 -16t7 -16t15.5 -7t14.5 4.5t8 11.5h50l23 -23q2 -2 5 -2t5 2l23 23h50q2 -7 8 -11.5t15 -4.5t15.5 7t6.5 16t-6.5 16t-16.5 7zM28 119q-4 0 -6.5 2.5 t-2.5 6.5t2.5 6.5t6.5 2.5t6.5 -2.5t2.5 -6.5t-2.5 -6.5t-6.5 -2.5zM128 113l-15 15l15 15l15 -15zM228 119q-4 0 -6.5 2.5t-2.5 6.5t2.5 6.5t6.5 2.5t6.5 -2.5t2.5 -6.5t-2.5 -6.5t-6.5 -2.5z" />
</svg>