<svg viewBox="0 0 256 256" xmlns="http://www.w3.org/2000/svg">
  <path transform="scale(1, -1) translate(0, -256)" fill="currentColor" d="M226 251h-28q-8 0 -14 -5.5t-6 -13.5v-28q0 -4 2 -8l-114 -127q-5 2 -8 2h-28q-8 0 -13.5 -5.5t-5.5 -13.5v-28q0 -8 5.5 -14t13.5 -6h28q8 0 13.5 6t5.5 14v28q0 4 -1 7l114 127q5 -1 8 -1h28q8 0 13.5 5.5t5.5 13.5v28q0 8 -6 13.5t-13 5.5zM63 24q0 -2 -1.5 -3.5 t-3.5 -1.5h-28q-2 0 -3.5 1.5t-1.5 3.5v28q0 2 1.5 3.5t3.5 1.5h28q2 0 3.5 -1.5t1.5 -3.5v-28zM231 204q0 -2 -1.5 -3.5t-3.5 -1.5h-28q-2 0 -4 1.5t-2 3.5v28q0 2 2 3.5t4 1.5h28q2 0 3.5 -1.5t1.5 -3.5v-28z" />
</svg>