<svg viewBox="0 0 256 256" xmlns="http://www.w3.org/2000/svg">
  <path transform="scale(1, -1) translate(0, -256)" fill="currentColor" d="M233 58q0 13 -4 25q-5 18 -17 31q-21 21 -57 22v7q0 5 -3.5 8t-7.5 3h-32q-4 0 -7.5 -3t-3.5 -8v-8q-29 2 -44.5 18t-18.5 44q9 1 14.5 7t5.5 14v12q0 9 -6 15t-15 6h-11q-9 0 -15 -6.5t-6 -14.5v-11q0 -9 6 -15t14 -6q1 -13 4 -24q6 -18 17 -30q20 -21 55 -22v-9 q0 -5 3.5 -8t7.5 -3h32q4 0 7.5 3t3.5 8v10q30 -1 46 -18q10 -10 15 -26q3 -10 3 -20v0q-9 0 -15 -6.5t-6 -14.5v-11q0 -9 6 -15t15 -6h11q9 0 15 6t6 15v11q0 7 -5 13t-13 7zM19 219v11q0 3 2 5t5 2h11q3 0 5 -2t2 -5v-11q0 -3 -2 -5t-5 -2h-11q-3 0 -5 2t-2 5zM141 115 h-25v25h25v-25zM237 26q0 -3 -2 -5t-5 -2h-11q-3 0 -5 2t-2 5v11q0 3 2 5t5 2h11q3 0 5 -2t2 -5v-11z" />
</svg>