<svg viewBox="0 0 256 256" xmlns="http://www.w3.org/2000/svg">
  <path transform="scale(1, -1) translate(0, -256)" fill="currentColor" d="M196 62h-3l9 45q2 4 0 8l-63 129q-1 3 -4.5 5t-6.5 2q-8 0 -12 -7l-62 -129q-2 -4 0 -9l9 -44h-3q-8 0 -14 -5.5t-6 -13.5v-19q0 -8 6 -13.5t14 -5.5h136q8 0 13.5 5.5t5.5 13.5v19q0 8 -5.5 13.5t-13.5 5.5zM128 145q8 0 13 -5.5t5 -13t-5 -13t-13 -5.5t-13 5.5t-5 13 t5 13t13 5.5zM67 109l54 112v-63q-11 -2 -18.5 -11t-7.5 -21.5t9.5 -22t23 -9.5t23 10t9.5 22t-7 21t-19 11v62l54 -111l-10 -47h-100zM201 24q0 -2 -1.5 -3.5t-3.5 -1.5h-136q-3 0 -4.5 1.5t-1.5 3.5v19q0 2 1.5 3.5t4.5 1.5h136q2 0 4 -1.5t2 -3.5v-19h-1z" />
</svg>