<svg viewBox="0 0 1024 1024" xmlns="http://www.w3.org/2000/svg">
  <path transform="scale(1, -1) translate(0, -960)" fill="currentColor" d="M912 528q-29 0 -50.5 -18t-27.5 -46h-215l-96 96q-5 5 -11 5t-11 -5l-96 -96h-215q-6 28 -27.5 46t-50.5 18q-34 0 -57 -23t-23 -57t23 -57t57 -23q29 0 50.5 18t27.5 46h215l96 -96q2 -2 5.5 -3.5t5.5 -1.5t5.5 1.5t5.5 3.5l96 96h215q6 -28 27.5 -46t50.5 -18 q34 0 57 23t23 57t-23 57t-57 23v0zM112 400q-19 0 -33.5 14t-14.5 34t14 34t34 14t34 -14t14 -34t-14.5 -34t-33.5 -14zM512 370l-78 78v0v0v0v0l78 78l78 -78v0v0v0v0zM912 400q-19 0 -33.5 14t-14.5 34t14 34t34 14t34 -14t14 -34t-14 -34t-34 -14z" />
</svg>