<svg viewBox="0 0 256 256" xmlns="http://www.w3.org/2000/svg">
  <path transform="scale(1, -1) translate(0, -256)" fill="currentColor" d="M225 142q11 0 18.5 8t7.5 18.5t-7.5 18.5t-17.5 8t-17.5 -6t-9.5 -15h-45q-3 9 -10 15t-16 6t-16 -6t-10 -15h-45q-2 9 -9.5 15t-17.5 6t-17.5 -8t-7.5 -18.5t7.5 -18.5t17.5 -8t17 5t9 13h24q-13 -9 -22 -23t-12 -30h-7q-5 0 -9 -3.5t-4 -9.5v-20q0 -5 3.5 -9t9.5 -4h31 q5 0 8.5 4t3.5 9v20q0 6 -3.5 9.5t-8.5 3.5h-10q4 18 15.5 31.5t28.5 19.5q3 -7 9.5 -11.5t14.5 -4.5t14 4t10 11q16 -6 27 -19.5t14 -30.5h-7q-5 0 -8.5 -3.5t-3.5 -9.5v-20q0 -5 3.5 -9t8.5 -4h31q5 0 9 4t4 9v20q0 6 -3.5 9.5t-9.5 3.5h-10q-2 16 -11 30t-22 23h25 q3 -8 10 -13t16 -5zM225 181q5 0 8.5 -4t3.5 -9t-3.5 -8.5t-8.5 -3.5t-9 3.5t-4 8.5t4 9t9 4zM31 156q-5 0 -8.5 3.5t-3.5 9t3.5 9t8.5 3.5t9 -4t4 -9t-4 -8.5t-9 -3.5zM68 75h-28v18h28v-18zM216 75h-28v18h28v-18zM128 156q-5 0 -8.5 3.5t-3.5 9t3.5 9t8.5 3.5t8.5 -4 t3.5 -9t-3.5 -8.5t-8.5 -3.5z" />
</svg>