<svg viewBox="0 0 1024 1024" xmlns="http://www.w3.org/2000/svg">
  <path transform="scale(1, -1) translate(0, -960)" fill="currentColor" d="M902 928h-112q-26 0 -45 -19t-19 -45v-112q0 -8 2.5 -16.5t7.5 -15.5l-142 -158q-6 2 -12.5 3t-13.5 1h-112q-26 0 -45 -18.5t-19 -45.5v-112q0 -10 3.5 -20t9.5 -18l-141 -155q-7 5 -15.5 7t-16.5 2h-112q-26 0 -45 -18.5t-19 -45.5v-112q0 -26 19 -45t45 -19h112 q26 0 45 19t19 45v112q0 9 -2.5 17t-7.5 15l143 159q6 -3 12 -4t13 -1h112q27 0 45.5 19t18.5 45v112q0 11 -3 20.5t-9 17.5l140 156q8 -5 16 -7.5t16 -2.5h112q27 0 45.5 19t18.5 45v112q0 26 -18.5 45t-45.5 19v0zM266 32q0 -13 -9.5 -22.5t-22.5 -9.5h-112q-14 0 -23 9.5 t-9 22.5v112q0 13 9 22.5t23 9.5h112q13 0 22.5 -9.5t9.5 -22.5v-112zM600 392q0 -13 -9.5 -22.5t-22.5 -9.5h-112q-13 0 -22.5 9.5t-9.5 22.5v112q0 13 9.5 22.5t22.5 9.5h112q13 0 22.5 -9.5t9.5 -22.5v-112zM934 752q0 -13 -9 -22.5t-23 -9.5h-112q-13 0 -22.5 9.5 t-9.5 22.5v112q0 13 9.5 22.5t22.5 9.5h112q14 0 23 -9.5t9 -22.5v-112z" />
</svg>