<svg viewBox="0 0 1024 1024" xmlns="http://www.w3.org/2000/svg">
  <path transform="scale(1, -1) translate(0, -960)" fill="currentColor" d="M976 456q-7 5 -17 6.5t-18 -1.5l-181 -66v79q0 26 -19 45t-45 19h-72q29 21 45.5 53.5t16.5 70.5q0 65 -46 111t-110 46q-65 0 -110.5 -45t-46.5 -108q-1 63 -47 108t-110 45q-65 0 -111 -46t-46 -111q0 -38 17 -70.5t46 -53.5h-26q-26 0 -45 -19t-19 -45v-335 q0 -26 19 -45t45 -19h600q26 0 45 19t19 45v79l181 -66q3 -1 6 -1.5t7 -0.5q6 0 11.5 1.5t10.5 5.5q7 5 11.5 13.5t4.5 18.5v235q0 10 -4.5 18t-11.5 14v0zM530 789q51 0 87.5 -36.5t36.5 -88.5t-36.5 -88.5t-87.5 -36.5q-52 0 -88.5 36.5t-36.5 88.5t36.5 88.5t88.5 36.5z M435 538h-125q28 21 45 52.5t18 68.5q1 -37 18 -68.5t44 -52.5v0zM90 662q0 52 36.5 88.5t87.5 36.5q52 0 88.5 -36.5t36.5 -88.5q0 -51 -36.5 -87.5t-88.5 -36.5q-51 0 -87.5 36.5t-36.5 87.5v0zM696 107h-600q-13 0 -22.5 9.5t-9.5 22.5v335q0 13 9.5 22.5t22.5 9.5h600 q13 0 22.5 -9.5t9.5 -22.5v-100v0v0v-134v0v0v-99q0 -15 -9.5 -24.5t-22.5 -9.5v0zM960 189q0 -3 -1 -4t-2 -1t-2.5 -0.5t-4.5 0.5l-190 69v110l190 69q3 1 4.5 0.5t2.5 -0.5t2 -1t1 -4v-238z" />
</svg>