<svg viewBox="0 0 1024 1024" xmlns="http://www.w3.org/2000/svg">
  <path transform="scale(1, -1) translate(0, -960)" fill="currentColor" d="M880 928h-736q-47 0 -79.5 -32.5t-32.5 -79.5v-736q0 -47 32.5 -79.5t79.5 -32.5h736q47 0 79.5 32.5t32.5 79.5v736q0 47 -32.5 79.5t-79.5 32.5zM960 464h-197v203h197v-203zM731 464h-438v432h440v-432h-2zM261 464h-197v203h197v-203zM64 432h197v-203h-197v203z M293 432h440v-432h-440v432v0zM763 432h197v-203h-197v203zM960 816v-117h-197v197h117q34 0 57 -23t23 -57zM144 896h117v-197h-197v117q0 34 23 57t57 23zM64 80v117h197v-197h-117q-34 0 -57 23t-23 57zM880 0h-117v197h197v-117q0 -34 -23 -57t-57 -23z" />
</svg>