<svg viewBox="0 0 1024 1024" xmlns="http://www.w3.org/2000/svg">
  <path transform="scale(1, -1) translate(0, -960)" fill="currentColor" d="M880 928h-736q-47 0 -79.5 -32.5t-32.5 -79.5v-736q0 -47 32.5 -79.5t79.5 -32.5h736q47 0 79.5 32.5t32.5 79.5v736q0 47 -32.5 79.5t-79.5 32.5zM261 464h-197v203h197v-203zM64 432h197v-203h-197v203zM293 896h440v-896h-440v896v0zM960 464h-197v203h197v-203z M763 432h197v-203h-197v203zM960 816v-117h-197v197h117q34 0 57 -23t23 -57zM144 896h117v-197h-197v117q0 34 23 57t57 23zM64 80v117h197v-197h-117q-34 0 -57 23t-23 57zM880 0h-117v197h197v-117q0 -34 -23 -57t-57 -23zM630 482l-152 92q-9 6 -19.5 6t-18.5 -6 q-10 -4 -14.5 -13t-4.5 -20v-184q0 -11 5.5 -20t13.5 -14q5 -2 9.5 -3.5t9.5 -1.5t10.5 1.5t8.5 5.5l152 93q9 4 14.5 13t5.5 20t-5.5 18t-14.5 13v0zM614 442l-152 -93q-2 -1 -3.5 -1t-2.5 1q-1 0 -2 1.5t-1 4.5v186q0 2 1 3.5t2 2.5l1 1t2 1t1.5 -0.5l1.5 -1.5v0l152 -93 q3 -1 3.5 -3t0.5 -3t-1 -2.5t-3 -3.5z" />
</svg>