<svg viewBox="0 0 256 256" xmlns="http://www.w3.org/2000/svg">
  <path transform="scale(1, -1) translate(0, -256)" fill="currentColor" d="M246 230q-5 4 -12 2l-41 -15v11q0 10 -6.5 16.5t-16.5 6.5h-142q-10 0 -16.5 -6.5t-6.5 -16.5v-76q0 -9 7 -16t16 -7h58l-65 -113q-2 -3 -1 -5.5t2.5 -4t5 -1.5t5.5 4l63 109l62 -109q2 -4 6 -4l4 1q2 2 3 4.5t-1 5.5l-65 113h65q10 0 16.5 7t6.5 16v12l41 -15q3 -1 6 -1 t6 2q5 4 5 11v59q0 6 -5 10zM170 143h-142q-4 0 -6.5 3t-2.5 6v76q0 4 2.5 6.5t6.5 2.5h142q4 0 6.5 -2.5t2.5 -6.5v-76q0 -3 -2.5 -6t-6.5 -3zM237 163l-44 16v23l44 16v-55z" />
</svg>