<svg viewBox="0 0 256 256" xmlns="http://www.w3.org/2000/svg">
  <path transform="scale(1, -1) translate(0, -256)" fill="currentColor" d="M232 222h-208q-8 0 -13.5 -5.5t-5.5 -13.5v-150q0 -8 5.5 -13.5t13.5 -5.5h208q8 0 13.5 5.5t5.5 13.5v150q0 8 -5.5 13.5t-13.5 5.5zM50 135h-31v35h31v-35zM19 121h31v-35h-31v35zM64 208h128v-160h-128v160zM237 135h-31v35h31v-35zM206 121h31v-35h-31v35zM237 203 v-19h-31v24h26q2 0 3.5 -1.5t1.5 -3.5zM24 208h26v-24h-31v19q0 2 1.5 3.5t3.5 1.5zM19 53v19h31v-24h-26q-2 0 -3.5 1.5t-1.5 3.5zM232 48h-26v24h31v-19q0 -2 -1.5 -3.5t-3.5 -1.5zM154 152q-5 5 -12 6.5t-14 -1.5q-5 2 -9 2h-1q-9 0 -15.5 -6.5t-6.5 -16.5t7 -18l17 -17 q4 -3 8.5 -3t7.5 3l18 18q7 7 7 16.5t-7 16.5zM144 128l-16 -16l-16 16q-3 3 -3 7.5t2.5 7t6 2.5t7 -2t6.5 0t6.5 1.5t6 -3t3 -6.5t-2.5 -7z" />
</svg>