<svg viewBox="0 0 1024 1024" xmlns="http://www.w3.org/2000/svg">
  <path transform="scale(1, -1) translate(0, -960)" fill="currentColor" d="M976 597q-7 5 -16.5 6.5t-18.5 -1.5l-181 -66v62q0 34 -23 57t-57 23h-568q-34 0 -57 -23t-23 -57v-302q0 -34 23 -57t57 -23h568q34 0 57 23t23 57v62l181 -65q3 -1 6 -1.5t7 -0.5q6 0 11.5 1.5t10.5 5.5q7 4 11.5 13t4.5 17v238q0 10 -4.5 18t-11.5 13v0zM680 250h-568 q-20 0 -34 13.5t-14 34.5v300q0 21 14 34.5t34 13.5h568q20 0 34 -13.5t14 -34.5v-83v0v0v-133v0v0v-83q0 -21 -14 -35t-34 -14zM960 330q0 -3 -1 -4t-2 -1t-2.5 -0.5t-2.5 0.5l-192 69v110l192 69q2 1 3.5 0.5l1.5 -0.5q1 0 2 -1.5t1 -3.5v-238z" />
</svg>