<svg viewBox="0 0 1024 1024" xmlns="http://www.w3.org/2000/svg">
  <path transform="scale(1, -1) translate(0, -960)" fill="currentColor" d="M976 846q-7 5 -17 7t-18 -2l-181 -65v62q0 34 -23 57t-57 23h-568q-34 0 -57 -23t-23 -57v-302q0 -34 23 -57t57 -23h253l-272 -474q-4 -6 -2 -12.5t8 -9.5q1 -2 3.5 -2h4.5q4 0 8 2t7 6l260 456l263 -456q2 -4 5.5 -6t8.5 -2h4.5t3.5 2q6 3 7.5 9.5t-0.5 12.5l-274 474 h280q34 0 57 23t23 57v62l181 -66q3 -1 6 -1h7q6 0 11.5 1.5t10.5 4.5q7 5 11.5 14t4.5 18v235q0 10 -4.5 18t-11.5 14v0zM680 498h-568q-20 0 -34 13.5t-14 34.5v302q0 20 14 34t34 14h568q20 0 34 -14t14 -34v-85v0v0v-133v0v0v-84q0 -21 -14 -34.5t-34 -13.5v0zM960 579 q0 -2 -1 -3.5t-2 -1.5t-2.5 -0.5t-4.5 0.5l-190 69v109l190 69q3 1 4.5 0.5t2.5 -0.5t2 -1.5t1 -3.5v-237z" />
</svg>