<svg viewBox="0 0 1024 1024" xmlns="http://www.w3.org/2000/svg">
  <path transform="scale(1, -1) translate(0, -960)" fill="currentColor" d="M928 891h-832q-26 0 -45 -18.5t-19 -45.5v-477q0 -26 19 -45t45 -19h832q26 0 45 19t19 45v477q0 27 -19 45.5t-45 18.5zM960 350q0 -13 -9.5 -22.5t-22.5 -9.5h-832q-13 0 -22.5 9.5t-9.5 22.5v477q0 13 9.5 22.5t22.5 9.5h832q13 0 22.5 -9.5t9.5 -22.5v-477zM627 661 l-105 75q-20 13 -42.5 14.5t-42.5 -9.5q-21 -11 -33 -30.5t-12 -43.5v-149q0 -22 12 -42t33 -31q9 -5 19 -7.5t19 -2.5q12 0 24.5 3.5t22.5 11.5l107 75q17 12 26 29.5t9 37.5t-10 39t-27 30v0zM610 552l-108 -75q-12 -9 -25.5 -10t-26.5 7q-14 7 -21 18.5t-7 25.5v149 q0 15 7 26.5t21 18.5l12 4t12 2q7 0 14 -2t14 -7l108 -75q10 -8 15 -18.5t5 -23.5q0 -11 -5.5 -22t-14.5 -18zM936 122h-414q-6 36 -34.5 60t-66.5 24q-39 0 -67 -24t-34 -60h-232q-7 0 -11.5 -4.5t-4.5 -11.5q0 -8 4.5 -12t11.5 -4h234q6 -36 34 -60.5t66 -24.5 q39 0 67 24.5t34 60.5h413q7 0 11.5 4t4.5 12q0 7 -5 11.5t-11 4.5zM422 37q-28 0 -48 20t-20 49q0 28 20 48t48 20q29 0 49 -20t20 -48q0 -29 -20 -49t-49 -20z" />
</svg>