<svg viewBox="0 0 256 256" xmlns="http://www.w3.org/2000/svg">
  <path transform="scale(1, -1) translate(0, -256)" fill="currentColor" d="M246 138q-4 4 -10 3l-37 -6q-1 11 -9.5 18.5t-19.5 7.5h-29q8 4 13.5 12.5t5.5 18.5q0 14 -10 24t-24 10q-10 0 -18.5 -6.5t-12.5 -16.5q-4 7 -11 11.5t-15 4.5q-13 0 -21.5 -9t-8.5 -22q0 -9 4.5 -16t11.5 -11h-19q-12 0 -21 -9t-9 -21v-71q0 -12 9 -21t21 -9h134 q12 0 21 9t9 21v1l36 -7h2q4 0 8.5 3.5t4.5 9.5v62q0 5 -5 9zM126 212q8 0 14 -6t6 -14.5t-6 -14t-14 -5.5t-13.5 5.5t-5.5 14t6 14.5t13 6zM69 205q7 0 11.5 -5t4.5 -12t-4.5 -12t-11 -5t-11.5 5t-5 12t5 12t11 5zM97 177q5 -11 15 -16h-29q10 5 14 16zM186 60q0 -6 -5 -11 t-11 -5h-134q-7 0 -11.5 5t-4.5 11v71q0 6 4.5 11t11.5 5h134q6 0 11 -5t5 -11v-71zM237 69l-37 6v46l37 6v-58z" />
</svg>