<svg viewBox="0 0 1024 1024" xmlns="http://www.w3.org/2000/svg">
  <path transform="scale(1, -1) translate(0, -960)" fill="currentColor" d="M277 590q39 0 67.5 29.5t28.5 70.5q0 40 -28.5 69.5t-67.5 29.5q-40 0 -68 -29.5t-28 -69.5q0 -41 28 -70.5t68 -29.5zM277 755q26 0 45 -19.5t19 -47.5t-19 -47.5t-45 -19.5q-27 0 -45.5 19.5t-18.5 47.5q0 29 18.5 48t45.5 19zM506 590q44 0 76 33t32 79 q0 47 -31.5 79.5t-76.5 32.5t-77 -32.5t-32 -79.5q0 -46 32 -79t77 -33v0zM506 782q31 0 53.5 -23t22.5 -57q0 -33 -22 -56.5t-54 -23.5q-33 0 -55 23.5t-22 56.5q0 34 22.5 57t54.5 23v0zM974 475q-8 7 -18.5 9.5t-21.5 0.5l-158 -35v9q0 40 -28 68t-68 28h-536 q-40 0 -68 -28t-28 -68v-283q0 -40 28 -68t68 -28h534q40 0 68 28t28 68v29l159 -35q2 0 4.5 -1t6.5 -1q8 0 15.5 2.5t14.5 8.5q9 7 13.5 16.5t4.5 20.5v222q0 11 -4.5 21t-13.5 16v0zM742 178q0 -27 -18.5 -45.5t-45.5 -18.5h-534q-26 0 -45 18.5t-19 45.5v281 q0 27 19 45.5t45 18.5h534q27 0 45.5 -18.5t18.5 -45.5v-281zM960 218q0 -4 -1.5 -7.5t-4.5 -5.5q-3 -3 -6.5 -4t-6.5 1l-167 36v180l167 36q3 2 6.5 1t6.5 -4q2 -2 4 -5.5t2 -7.5v-220v0z" />
</svg>