<svg viewBox="0 0 1024 1024" xmlns="http://www.w3.org/2000/svg">
  <path transform="scale(1, -1) translate(0, -960)" fill="currentColor" d="M928 813h-832q-26 0 -45 -19t-19 -45v-600q0 -27 19 -45.5t45 -18.5h832q26 0 45 18.5t19 45.5v600q0 26 -19 45t-45 19zM211 464h-147v165h147v-165zM64 432h147v-165h-147v165zM243 781h536v-664h-536v664v0zM960 464h-149v165h149v-165zM811 432h149v-165h-149v165z M960 749v-88h-149v120h117q13 0 22.5 -9.5t9.5 -22.5zM96 781h115v-120h-147v88q0 13 9.5 22.5t22.5 9.5zM64 147v88h147v-120h-115q-13 0 -22.5 9.5t-9.5 22.5v0zM928 115h-117v120h149v-88q0 -13 -9.5 -22.5t-22.5 -9.5zM606 534q-19 20 -45.5 24t-50.5 -9q-8 5 -17.5 6.5 t-18.5 2.5q-16 0 -30 -5.5t-26 -14.5q-12 -11 -19 -26t-7 -32q0 -18 6 -34.5t20 -29.5l70 -70q5 -5 11 -7.5t13 -2.5q6 0 12.5 2.5t11.5 7.5l72 72q12 12 18 27t6 30q-1 18 -7.5 33.5t-18.5 25.5v0zM584 442l-72 -72h-1h-1l-70 70q-8 8 -12 18.5t-4 21.5t4.5 19.5t11.5 15.5 q7 6 15.5 9.5t18.5 3.5v0v0q8 0 14.5 -2.5t13.5 -7.5q4 -2 9 -2t9 2q14 11 32.5 9t31.5 -15q7 -7 10.5 -16.5t3.5 -18.5q0 -10 -3.5 -19t-10.5 -16z" />
</svg>