<svg viewBox="0 0 256 256" xmlns="http://www.w3.org/2000/svg">
  <path transform="scale(1, -1) translate(0, -256)" fill="currentColor" d="M246 132q-5 4 -12 2l-41 -15v15q0 8 -5.5 14t-13.5 6h-10q11 12 11 28.5t-12.5 29t-30.5 12.5q-13 0 -23.5 -7.5t-15.5 -19.5q-5 12 -15.5 19.5t-23.5 7.5q-18 0 -30 -12.5t-12 -29t11 -29.5q-8 0 -13 -5.5t-5 -13.5v-83q0 -8 5.5 -13.5t13.5 -5.5h150q8 0 13.5 5.5 t5.5 13.5v15l41 -14q3 -1 6 -1t6 2q5 4 5 11v58q0 7 -5 10zM132 210q12 0 20.5 -8.5t8.5 -20t-8.5 -20t-20 -8.5t-20 8.5t-8.5 20t8.5 20t19.5 8.5zM101 153h-16q5 6 8 13q3 -7 8 -13zM54 210q12 0 20 -8.5t8 -20t-8 -20t-20 -8.5t-20 8.5t-8 20t8 20t20 8.5zM24 139h150 q2 0 3.5 -1.5t1.5 -3.5v-50h-160v50q0 3 1.5 4t3.5 1zM174 46h-150q-2 0 -3.5 1.5t-1.5 3.5v20h160v-20q0 -2 -1.5 -3.5t-3.5 -1.5zM237 65l-44 16v23l44 16v-55z" />
</svg>