<svg viewBox="0 0 256 256" xmlns="http://www.w3.org/2000/svg">
  <path transform="scale(1, -1) translate(0, -256)" fill="currentColor" d="M232 242h-208q-8 0 -13.5 -5.5t-5.5 -13.5v-119q0 -8 5.5 -14t13.5 -6h208q8 0 13.5 6t5.5 14v119q0 8 -5.5 13.5t-13.5 5.5zM237 104q0 -2 -1.5 -4t-3.5 -2h-208q-2 0 -3.5 1.5t-1.5 4.5v119q0 2 1.5 3.5t3.5 1.5h208q2 0 3.5 -1.5t1.5 -3.5v-119zM158 184l-26 18 q-5 4 -11.5 4.5t-12.5 -2.5t-9.5 -8.5t-3.5 -12.5v-37q0 -7 3.5 -12.5t9.5 -8.5t10 -3q8 0 14 5l27 19q5 3 7.5 8t2.5 11q0 11 -11 19zM150 156l-26 -18q-5 -3 -10 -0.5t-5 8.5v37q0 6 5 8q2 1 4.5 1t5.5 -1l27 -19q4 -3 4 -7.5t-5 -8.5zM234 50h-101q-2 9 -10 15t-17.5 6 t-17.5 -6t-10 -15h-56q-3 0 -5 -2.5t-2 -5.5t2 -5t5 -2h56q2 -9 10 -15t17.5 -6t17.5 6t10 15h101q3 0 5 2t2 5t-2 5.5t-5 2.5zM106 28q-6 0 -10.5 4t-4.5 10t4.5 10.5t10.5 4.5t10 -4.5t4 -10.5t-4 -10t-10 -4z" />
</svg>