<svg viewBox="0 0 1024 1024" xmlns="http://www.w3.org/2000/svg">
  <path transform="scale(1, -1) translate(0, -960)" fill="currentColor" d="M454 627q-54 0 -98 -16q-45 -17 -77 -37t-50 -38q-18 -17 -19 -19q-4 -4 -4 -9t2 -9q2 -3 55 -58t193 -55q132 0 188.5 55t57.5 58q3 5 2.5 9.5t-3.5 8.5l-18 18q-16 18 -47 38.5t-77 36.5q-45 17 -105 17v0zM454 416q-102 0 -150.5 34.5t-61.5 53.5q19 18 75.5 54.5 t136.5 36.5q88 0 142 -36t71 -55q-14 -18 -64.5 -53t-148.5 -35v0zM490 506q0 -15 -10.5 -25.5t-25.5 -10.5q-14 0 -24.5 10.5t-10.5 25.5q0 14 10.5 24.5t24.5 10.5q15 0 25.5 -10.5t10.5 -24.5zM987 -5l-222 223q57 61 86 138q28 77 26.5 156.5t-32.5 154.5 q-31 76 -91 136q-62 63 -140 94t-159.5 31t-159.5 -31q-78 -30 -140 -92t-92 -140q-31 -78 -31 -159.5t31 -159.5q30 -78 92 -140q31 -31 66 -54t73.5 -38.5t78.5 -22.5q41 -8 81 -8q78 0 152.5 28t135.5 84l223 -222q2 -3 5.5 -4t5.5 -1t5.5 1t5.5 4q5 5 5 11t-5 11v0z M179 229q-56 55 -85.5 127t-29.5 150t29.5 149.5t85.5 126.5q57 56 127 85t148 29t150 -29.5t127 -85.5q55 -57 85 -127.5t30 -149.5t-29 -150.5t-86 -126.5q-56 -55 -126.5 -85t-150.5 -30q-79 0 -149.5 31t-125.5 86v0z" />
</svg>