<svg viewBox="0 0 256 256" xmlns="http://www.w3.org/2000/svg">
  <path transform="scale(1, -1) translate(0, -256)" fill="currentColor" d="M114 176q-23 0 -45 -14q-11 -6 -19 -15v0q-3 -3 -1 -8v0q5 -9 15 -16q20 -14 49 -14t49 14q10 7 16 15v0q2 4 0 8q-2 3 -8 9q-10 8 -22 13q-16 8 -34 8zM114 123q-20 0 -34 7q-9 4 -16 11q9 8 19 13q15 8 31 8t31 -8q10 -5 18 -12q-7 -7 -17 -12q-14 -7 -32 -7zM105 142 q0 -3 2.5 -5.5t6 -2.5t6 2.5t2.5 6t-2.5 6t-6 2.5t-6 -2.5t-2.5 -6.5zM249 17l-54 54q19 21 25 48t-2 53.5t-28 47t-48 28t-56 0t-49 -28.5t-28.5 -49t0 -56t28.5 -48q15 -16 35 -24t40.5 -8t39 7t33.5 20l54 -53q2 -2 4.5 -2t5 1.5t2.5 4.5t-2 5zM47 75q-18 18 -24.5 42.5 t0 49t24.5 42.5q13 14 30.5 21t36 7t36 -7t30.5 -21q19 -18 25 -42.5t0 -49t-24.5 -42.5t-42.5 -24.5t-48.5 0t-42.5 24.5z" />
</svg>