<svg viewBox="0 0 1024 1024" xmlns="http://www.w3.org/2000/svg">
  <path transform="scale(1, -1) translate(0, -960)" fill="currentColor" d="M1008 678q-2 -36 -15 -79q-14 -44 -39.5 -93.5t-62.5 -106.5q-37 -56 -86 -119q-51 -66 -97 -115q-47 -50 -90 -83t-82 -49q-39 -17 -74 -17q-42 0 -79 39t-68 121q-20 72 -39 146t-41 148q-21 80 -45.5 120t-51.5 40q-5 0 -25 -12t-54 -36l-43 64q37 33 73.5 65.5 t73.5 66.5q49 42 85 64t62 24q58 4 93 -36t50 -123q13 -91 23.5 -148t16.5 -79q17 -76 35.5 -113t36.5 -37q15 0 38.5 24t55.5 73q33 49 48.5 87t18.5 64q5 42 -12.5 64t-54.5 22q-17 0 -35.5 -4t-36.5 -14q18 60 44 105t60.5 74.5t77.5 43.5t95 13q76 -4 112 -54.5 t32 -149.5z" />
</svg>