<svg viewBox="0 0 1024 1024" xmlns="http://www.w3.org/2000/svg">
  <path transform="scale(1, -1) translate(0, -960)" fill="currentColor" d="M901 512h-51v122q0 33 -24 57t-58 24h-29q-7 0 -11.5 -4.5t-4.5 -11.5t4.5 -11.5t11.5 -4.5h29q20 0 35 -14.5t15 -34.5v-122h-72q-8 0 -12 -4.5t-4 -11.5t4 -11.5t12 -4.5h155q20 0 34.5 -14.5t14.5 -35.5v-142h-139q-7 0 -11.5 -4.5t-4.5 -11.5t4.5 -11.5t11.5 -4.5 h139v-205q0 -20 -14.5 -34.5t-34.5 -14.5h-253l-125 123q-5 5 -11 5t-11 -5l-125 -125h-253q-20 0 -34.5 14.5t-14.5 35.5v204h139q7 0 11.5 4.5t4.5 11.5q0 8 -4.5 12t-11.5 4h-141v143q0 21 15.5 36t35.5 15h151q7 0 11.5 4.5t4.5 11.5t-4.5 11.5t-11.5 4.5h-68v122 q0 20 15 34.5t35 14.5h29q7 0 11.5 4.5t4.5 11.5t-4.5 11.5t-11.5 4.5h-29q-34 0 -58 -24t-24 -57v-122h-51q-33 0 -57 -24t-24 -58v-379q0 -33 24 -57t57 -24h261q4 0 6.5 1t4.5 3l119 117l118 -117q2 -2 5 -3t6 -1h261q34 0 58 24t24 57v378q-2 35 -26 59t-59 24v0z M330 579l166 -96q4 -2 8 -3.5t8 -1.5t8 1.5t8 3.5l166 96q8 5 12 12t4 15v213q0 10 -4.5 17.5t-12.5 11.5l-168 77q-6 2 -13 2t-14 -2l-167 -77q-8 -4 -13.5 -11.5t-5.5 -17.5v-213q1 -8 5 -15.5t13 -11.5v0zM346 606v197l150 -69v-214zM528 518v216l150 69v-197zM512 896 l146 -67l-146 -67l-146 67z" />
</svg>