<svg viewBox="0 0 256 256" xmlns="http://www.w3.org/2000/svg">
  <path transform="scale(1, -1) translate(0, -256)" fill="currentColor" d="M115 98l10 60h-16l-10 -60h16zM170 118q0 10 -14 16l-6 4.5t-2 3.5t2 3.5t7 1.5t12 -2l1 -1l2 13q-6 3 -14 3q-11 0 -18.5 -5.5t-7.5 -15.5t14 -16q8 -4 8 -7.5t-3 -5t-7 -1.5q-8 0 -15 3l-2 1l-2 -14q8 -3 17 -3q13 0 20.5 6t7.5 16zM185 98q0 2 1 4l2 5h20l2 -9h15 l-13 60h-12q-6 0 -8 -5l-24 -55h17zM199 136q0 -1 1 1l1 4l5 -23h-14zM61 98h17l25 60h-17l-15 -42l-9 42h-31l17 -13zM228 187q4 0 7 -3t3 -7v-97q0 -5 -3 -7.5t-7 -2.5h-200q-4 0 -7 2.5t-3 7.5v97q0 4 3 7t7 3h200zM228 201h-200q-10 0 -17 -7t-7 -17v-97q0 -10 7 -17 t17 -7h200q10 0 17 7t7 17v97q0 10 -7 17t-17 7z" />
</svg>