<svg viewBox="0 0 256 256" xmlns="http://www.w3.org/2000/svg">
  <path transform="scale(1, -1) translate(0, -256)" fill="currentColor" d="M166 252h-76q-36 0 -54 -7t-25 -25t-7 -54v-76q0 -36 7 -54t25 -25t54 -7h76q36 0 54 7t25 25t7 54v76q0 36 -7 54t-25 25t-54 7zM204 75h-18q-3 0 -5.5 2t-7.5 7l-9 9q-12 12 -18 12q-2 0 -3 -1t-1 -4v-17q0 -4 -2.5 -5.5t-10.5 -1.5q-14 0 -29 9t-26 25q-15 20 -22 40 q-6 14 -6 20q0 3 1 4t5 1h18q3 0 4.5 -1.5t3.5 -5.5q6 -19 15.5 -33.5t14.5 -14.5q1 0 2 1.5t1 5.5v26q0 8 -5 13q-2 3 -2 5t1 3.5t3 1.5h28q3 0 4.5 -1.5t1.5 -5.5v-36q0 -5 3 -5t8 6q8 9 16 24q3 7 6 12v0q2 6 8 6h18q7 0 5.5 -7t-13.5 -25l-11 -17q-2 -3 -2 -4t1.5 -3 t6.5 -7l6 -7q14 -15 16 -21q2 -10 -6 -10z" />
</svg>