<svg viewBox="0 0 256 256" xmlns="http://www.w3.org/2000/svg">
  <path transform="scale(1, -1) translate(0, -256)" fill="currentColor" d="M176 148q-2 -3 -2 -5.5t2 -4.5q3 -4 3 -10t-3 -10q-2 -2 -2 -5t2 -5t5 -2t5 2q7 8 7 19.5t-7 19.5q-2 2 -5 2.5t-5 -1.5zM208 164q-2 2 -5 2t-5 -2t-2 -5t2 -5q10 -11 10 -26.5t-10 -25.5q-2 -2 -2 -5t2 -5t5 -2t5 2q14 15 14 36t-14 36zM231 180q-2 3 -5 3t-5 -2t-2 -5 t2 -5q10 -12 14 -27.5t0 -31t-14 -27.5q-2 -2 -2 -5t2 -5t5 -2t5 3q13 14 17.5 33t0 38t-17.5 33zM136 205q-4 3 -8.5 2.5t-9.5 -2.5l-43 -27h-2h-51q-7 0 -12 -5.5t-5 -12.5v-63q0 -7 5 -12.5t12 -5.5h52h2l43 -27q5 -3 9.5 -3t8.5 2.5t6.5 6.5t2.5 9v123q0 5 -2.5 9 t-7.5 6zM132 66q0 -2 -2 -3t-4 0l-43 27q-5 2 -9 2h-52q-1 0 -2 1t-1 3v64q0 1 1 2t2 1h52q5 0 9 3l43 27q2 1 4 0v0q2 -2 2 -3v-124z" />
</svg>