<svg viewBox="0 0 1024 1024" xmlns="http://www.w3.org/2000/svg">
  <path transform="scale(1, -1) translate(0, -960)" fill="currentColor" d="M712 517q-5 -5 -5 -11.5t3 -11.5q18 -19 18 -46.5t-18 -47.5q-4 -5 -3.5 -11.5t5.5 -10.5q2 -3 5 -4t6 -1q4 0 6.5 1t4.5 4q27 28 27 68t-27 69q-3 6 -10 6.5t-12 -4.5v0zM803 584q-5 -5 -5 -11.5t4 -10.5q43 -47 43 -113t-43 -113q-5 -5 -4.5 -11.5t5.5 -10.5 q3 -3 5.5 -4t5.5 -1q4 0 6.5 1t5.5 4q51 55 51 134t-51 134q-5 5 -11.5 5.5t-11.5 -3.5v0zM915 648q-5 5 -11 5t-11 -3q-5 -5 -5 -11.5t3 -11.5q34 -37 52 -84q17 -46 17 -95t-17 -95q-18 -47 -52 -84q-5 -5 -4 -11.5t6 -11.5q2 -2 4.5 -3t6.5 -1t6.5 1t4.5 3q39 42 58 95 q19 52 19 106.5t-19 106.5q-19 53 -58 94v0zM541 746q-15 8 -30.5 7t-28.5 -9l-173 -107q-4 -3 -7.5 -3h-7.5h-204q-24 0 -41 -17t-17 -41v-253q0 -24 17 -40.5t41 -16.5h204q4 0 7.5 -1t7.5 -3v0l173 -107q7 -5 15 -7t15 -2t14.5 2t14.5 6q14 8 22 21t8 30v491q-1 16 -9 29 t-21 21v0zM538 200q0 -7 -3.5 -13t-9.5 -9q-6 -4 -13 -4t-14 4l-173 107q-7 5 -14.5 7t-16.5 2h-204q-11 0 -18.5 7.5t-7.5 18.5v254q0 11 7.5 18.5t18.5 7.5h204q9 0 16.5 2.5t14.5 7.5l173 107q6 3 13 3t14 -3q6 -4 9.5 -9.5t3.5 -13.5v-494v0z" />
</svg>