<svg viewBox="0 0 256 256" xmlns="http://www.w3.org/2000/svg">
  <path transform="scale(1, -1) translate(0, -256)" fill="currentColor" d="M25 99q3 0 5 2t2 5v35q0 3 -2 5t-5 2t-5 -2t-2 -5v-35q0 -3 2 -5t5 -2zM76 99q3 0 5.5 2t2.5 5v59q0 3 -2.5 5t-5.5 2t-5 -2t-2 -5v-59q1 -3 3 -5t4 -2zM128 99q3 0 5 2t2 5v83q0 3 -2 5t-5 2t-5 -2t-2 -5v-83q0 -3 2 -5t5 -2zM180 99q3 0 5 2t2 5v108q0 3 -2 5t-5 2 t-5.5 -2t-2.5 -5v-108q0 -3 2.5 -5t5.5 -2zM231 99q3 0 5 2t2 5v132q0 3 -2 5t-5 2t-5 -2t-2 -5v-132q0 -3 2 -5t5 -2zM244 49h-111q-3 10 -11 16.5t-18.5 6.5t-19 -6.5t-10.5 -16.5h-62q-3 0 -5 -2t-2 -5t2 -5t5 -2h62q2 -10 10.5 -17t19 -7t19 7t10.5 17h111q3 0 5 2t2 5 t-2 5t-5 2zM104 25q-7 0 -12 5t-5 11.5t5 11.5t12 5t11.5 -4.5t4.5 -11.5t-5 -12t-11 -5z" />
</svg>