<svg viewBox="0 0 1024 1024" xmlns="http://www.w3.org/2000/svg">
  <path transform="scale(1, -1) translate(0, -960)" fill="currentColor" d="M987 866q-5 4 -11 4t-11 -4l-215 -216v131q0 20 -10 37t-28 27q-18 9 -37.5 9t-36.5 -11l-233 -147q-5 -4 -11 -5t-12 -1h-276q-30 0 -52 -22t-22 -52v-344q0 -30 22 -52t52 -22h193l-145 -145q-5 -5 -5 -11.5t5 -11.5q2 -2 5 -3t6 -1q2 0 5.5 1t5.5 3l811 812 q5 4 5 11.5t-5 12.5zM323 232h-217q-17 0 -29.5 11.5t-12.5 28.5v344q0 17 12.5 29.5t29.5 12.5h276q11 0 20.5 2.5t18.5 8.5l233 147q10 6 21 6t21 -4q10 -6 15.5 -15.5t5.5 -21.5v-155v-4t1 -3l-388 -390l-4 2t-3 1v0zM734 406q-7 0 -11.5 -4t-4.5 -12v-281 q0 -12 -5.5 -21.5t-14.5 -15.5q-10 -6 -21 -5t-21 7l-154 96q-6 3 -12 2t-10 -7t-2.5 -12.5t7.5 -10.5l153 -96q10 -6 19.5 -8.5t19.5 -2.5q9 0 18 2.5t17 7.5q18 9 28 26t10 38v281q0 6 -5 11t-11 5v0z" />
</svg>