<svg viewBox="0 0 256 256" xmlns="http://www.w3.org/2000/svg">
  <path transform="scale(1, -1) translate(0, -256)" fill="currentColor" d="M226 190q-2 2 -4.5 2t-5 -2t-2.5 -4.5t2 -5.5q14 -14 18.5 -33t0 -38t-18.5 -33q-2 -2 -2 -5t2 -5t5 -2t5 2q17 17 22.5 39.5t0 45t-22.5 39.5zM184 160q-2 -2 -2 -5t2 -5q8 -9 8 -22t-8 -22q-2 -2 -2 -5t2 -5t4.5 -2t5.5 2q13 13 13 31.5t-13 31.5q-2 3 -5 3t-5 -2z M139 207q-4 3 -9 2.5t-9 -2.5l-44 -28h-2h-52q-8 0 -13 -5.5t-5 -12.5v-65q0 -7 5.5 -12.5t12.5 -5.5h52h2l44 -28q4 -3 9 -3t9.5 2.5t7 6.5t2.5 9v127q-1 4 -3.5 8.5t-6.5 6.5zM134 64q0 -1 -0.5 -2t-1.5 -1.5t-4 0.5l-44 28q-4 3 -9 3h-52q-2 0 -3 1t-1 3v64q0 2 1 3t3 1 h52q6 0 10 3l44 28q1 1 4 0v0q2 -2 2 -3v-128h-1z" />
</svg>