<svg viewBox="0 0 1024 1024" xmlns="http://www.w3.org/2000/svg">
  <path transform="scale(1, -1) translate(0, -960)" fill="currentColor" d="M890 917q-21 11 -43.5 10.5t-41.5 -12.5l-275 -173q-6 -3 -13 -5.5t-15 -2.5h-328q-34 0 -58.5 -24t-24.5 -59v-405q0 -34 24.5 -58.5t58.5 -24.5h327q7 0 14 -2t13 -6l275 -173q11 -6 22 -9t23 -3q11 0 20.5 2.5t19.5 8.5q20 11 31.5 30t11.5 43v791q1 23 -10 42t-31 30 zM901 51q0 -14 -7 -25.5t-20 -19.5q-12 -7 -26 -6t-27 8l-275 173q-10 6 -21.5 9.5t-23.5 3.5h-327q-21 0 -36 14.5t-15 36.5v406q0 22 15 36.5t36 14.5h327q12 0 23 3.5t22 9.5l276 173q12 7 26 8t26 -6q12 -8 19.5 -19.5t7.5 -25.5v-794v0z" />
</svg>