<svg viewBox="0 0 1024 1024" xmlns="http://www.w3.org/2000/svg">
  <path transform="scale(1, -1) translate(0, -960)" fill="currentColor" d="M696 534q-5 5 -11.5 5t-10.5 -5q-5 -4 -5 -10.5t5 -11.5q25 -26 25 -64.5t-25 -65.5q-5 -4 -5 -10.5t5 -11.5q2 -2 4.5 -3.5t6.5 -1.5q3 0 6 1.5t5 3.5q35 37 35 87.5t-35 86.5v0zM542 669q-10 6 -23 5.5t-25 -7.5l-124 -78q-2 -1 -4 -1.5t-4 -0.5h-149q-19 0 -33 -13.5 t-14 -32.5v-184q0 -19 14 -33t33 -14h149h3.5t4.5 -1l124 -79q6 -3 12 -5.5t12 -2.5t12 1.5t11 5.5q11 6 17.5 17t6.5 24v359q1 13 -5.5 23.5t-17.5 16.5zM534 267q0 -6 -2.5 -8.5t-5.5 -4.5q-1 -1 -5 -1.5t-9 1.5l-125 79q-6 3 -12 4.5t-12 1.5h-149q-6 0 -10 4.5t-4 10.5 v187q0 6 4 10t10 4h149q6 0 12.5 2t11.5 5l125 78q5 4 9 2.5t5 -2.5q2 -1 5 -4t3 -9v-360z" />
</svg>