<svg viewBox="0 0 1024 1024" xmlns="http://www.w3.org/2000/svg">
  <path transform="scale(1, -1) translate(0, -960)" fill="currentColor" d="M101 342q7 0 11.5 4.5t4.5 11.5v141q0 7 -4.5 11.5t-11.5 4.5t-11.5 -4.5t-4.5 -11.5v-141q0 -6 4.5 -11t11.5 -5zM306 342q7 0 11.5 4.5t4.5 11.5v239q0 7 -4.5 11.5t-11.5 4.5q-8 0 -12 -4.5t-4 -11.5v-237q0 -7 5 -12.5t11 -5.5zM512 342q7 0 11.5 4.5t4.5 11.5v335 q0 7 -4.5 11.5t-11.5 4.5t-11.5 -4.5t-4.5 -11.5v-335q0 -6 4.5 -11t11.5 -5zM718 342q8 0 12 4.5t4 11.5v432q0 8 -4 12t-12 4q-7 0 -11.5 -4t-4.5 -12v-430q0 -7 4.5 -12.5t11.5 -5.5zM923 342q7 0 11.5 4.5t4.5 11.5v528q0 8 -4.5 12t-11.5 4t-11.5 -4t-4.5 -12v-528 q0 -6 5 -11t11 -5zM976 118h-454q-6 40 -36.5 66.5t-72.5 26.5t-72.5 -26.5t-36.5 -66.5h-256q-7 0 -11.5 -4t-4.5 -12q0 -7 4.5 -11.5t11.5 -4.5h258q6 -39 36 -66.5t72 -27.5t72.5 27t36.5 67h453q7 0 11.5 4.5t4.5 11.5q0 8 -4.5 12t-11.5 4zM414 26q-32 0 -55 23t-23 55 t23 55t55 23q33 0 56 -23t23 -55t-23.5 -55t-55.5 -23z" />
</svg>