<svg viewBox="0 0 256 256" xmlns="http://www.w3.org/2000/svg">
  <path transform="scale(1, -1) translate(0, -256)" fill="currentColor" d="M249 234q-2 3 -5 3t-5 -3l-49 -48v25q0 13 -11 19q-5 3 -10.5 3t-10.5 -3l-59 -37q-2 -1 -4 -1h-69q-8 0 -14.5 -6.5t-6.5 -15.5v-86q0 -9 6.5 -15t14.5 -6h42l-32 -31q-2 -2 -2 -5t2 -5t5 -2t5 2l203 202q2 3 2 5.5t-2 4.5zM81 77h-55q-3 0 -5 2t-2 5v86q0 3 2 5t5 2h70 q6 0 11 3l58 37q4 2 7.5 0t3.5 -6v-39l-94 -95h-1zM184 120q-3 0 -5.5 -2t-2.5 -5v-70q0 -5 -3.5 -7t-6.5 1l-39 24q-2 1 -5 0.5t-4.5 -3t-1 -5.5t3.5 -4l38 -24q6 -3 12 -3t10.5 2.5t7.5 7.5t3 11v71q0 2 -2.5 4t-4.5 2z" />
</svg>