<svg viewBox="0 0 1024 1024" xmlns="http://www.w3.org/2000/svg">
  <path transform="scale(1, -1) translate(0, -960)" fill="currentColor" d="M896 688q-5 5 -11.5 5t-10.5 -5q-5 -5 -5 -11.5t5 -10.5q43 -45 64 -102q22 -57 22 -116t-22 -116q-21 -57 -64 -102q-5 -4 -5 -10.5t5 -11.5q2 -2 4.5 -3.5t6.5 -1.5q3 0 6 1.5t5 3.5q48 50 72 112q24 63 24 128t-24 128q-24 62 -72 112v0zM744 566q-5 -4 -5 -10.5 t5 -11.5q38 -40 37.5 -96t-37.5 -96q-5 -5 -5 -11.5t5 -10.5q2 -3 5 -4t6 -1q4 0 6.5 1t4.5 4q47 49 47 118t-47 118q-4 5 -10.5 5t-11.5 -5v0zM552 754q-14 8 -30 7t-29 -9l-176 -110q-4 -3 -7.5 -4t-7.5 -1h-211q-24 0 -41.5 -17.5t-17.5 -41.5v-260q0 -24 17.5 -41.5 t41.5 -17.5h210q3 0 7 -1t7 -4l176 -110q7 -5 15.5 -7.5t16.5 -2.5q7 0 14.5 2.5t14.5 5.5q14 9 22 22.5t8 29.5v508q0 16 -8 30t-22 22v0zM550 194q0 -8 -3.5 -14.5t-10.5 -9.5q-6 -4 -13.5 -4t-13.5 4l-176 110q-7 5 -15.5 7.5t-16.5 2.5h-210q-11 0 -19 8t-8 19v261 q0 10 8 18.5t19 8.5h210q8 0 16.5 2.5t15.5 6.5l176 111q6 3 13.5 3t13.5 -3q7 -4 10.5 -10.5t3.5 -13.5v-507v0z" />
</svg>