<svg viewBox="0 0 1024 1024" xmlns="http://www.w3.org/2000/svg">
  <path transform="scale(1, -1) translate(0, -960)" fill="currentColor" d="M934 541h-41v33q0 35 -24.5 59.5t-58.5 24.5h-596q-34 0 -58.5 -24.5t-24.5 -59.5v-33h-41q-24 0 -41 -17t-17 -41v-72q0 -24 17 -40.5t41 -16.5h41v-34q0 -35 24.5 -59t58.5 -24h178q5 0 9 1t9 2l67 30q8 4 16.5 6t18.5 2t18.5 -2t16.5 -6l67 -30q4 -2 8.5 -2.5 t9.5 -0.5h178q34 0 58.5 24t24.5 59v34h41q24 0 41 16.5t17 40.5v72q0 24 -17 41t-41 17v0zM90 387q-11 0 -18.5 7.5t-7.5 18.5v72q0 11 7.5 18t18.5 7h41v-123h-41zM861 322q0 -22 -15 -37t-36 -15h-180q-1 0 -2 0.5t-2 1.5l-66 30q-12 5 -24 8.5t-24 3.5t-24.5 -3 t-23.5 -9l-67 -30q-1 0 -2.5 -1t-2.5 -1h-178q-21 0 -36 15t-15 37v252q0 22 15 37t36 15h596q21 0 36 -15t15 -37v-252zM960 413q0 -11 -7.5 -18.5t-18.5 -7.5h-41v123h41q11 0 18.5 -7t7.5 -18v-72z" />
</svg>