<svg viewBox="0 0 1024 1024" xmlns="http://www.w3.org/2000/svg">
  <path transform="scale(1, -1) translate(0, -960)" fill="currentColor" d="M874 690h-724q-43 0 -72.5 -30.5t-29.5 -72.5v-278q0 -43 30 -73t72 -30h218q5 0 9 1t9 3l91 41q8 4 16.5 6t18.5 2t18.5 -2t16.5 -6l91 -41q4 -3 8.5 -3.5t9.5 -0.5h218q43 0 72.5 30.5t29.5 72.5v278q0 43 -30 73t-72 30v0zM944 309q0 -30 -21 -50.5t-49 -20.5h-220 q-1 0 -2 0.5t-1 1.5l-91 40q-11 5 -23.5 8t-24.5 3t-24.5 -2.5t-23.5 -8.5l-91 -42q-1 0 -2 -0.5l-1 -0.5h-220q-30 0 -50 20.5t-20 49.5v280q0 30 21 50.5t49 20.5h722q30 0 50 -21t20 -50v-278h2zM389 464h-165q-7 0 -11.5 -4.5t-4.5 -11.5t4.5 -11.5t11.5 -4.5h165 q7 0 11.5 4.5t4.5 11.5t-5 11.5t-11 4.5zM800 464h-165q-7 0 -11.5 -4.5t-4.5 -11.5t4.5 -11.5t11.5 -4.5h165q7 0 11.5 4.5t4.5 11.5t-4.5 11.5t-11.5 4.5z" />
</svg>