<svg viewBox="0 0 256 256" xmlns="http://www.w3.org/2000/svg">
  <path transform="scale(1, -1) translate(0, -256)" fill="currentColor" d="M218 188h-180q-11 0 -18.5 -7.5t-7.5 -17.5v-70q0 -11 7.5 -18t18.5 -7h54h4l23 11q5 2 9 2t9 -2l23 -11h4h54q11 0 18.5 7.5t7.5 17.5v70q0 11 -7.5 18t-18.5 7zM230 93q0 -5 -3.5 -8t-8.5 -3h-54l-22 10q-7 3 -14 3t-14 -3l-22 -10h-54q-5 0 -8.5 3t-3.5 8v70 q0 5 3.5 8t8.5 3h180q5 0 8.5 -3t3.5 -8v-70zM97 135h-41q-3 0 -5 -2t-2 -5t2 -5.5t5 -2.5h41q3 0 5 2.5t2 5.5t-2 5t-5 2zM200 135h-41q-3 0 -5 -2t-2 -5t2 -5.5t5 -2.5h41q3 0 5 2.5t2 5.5t-2 5t-5 2z" />
</svg>