<svg viewBox="0 0 256 256" xmlns="http://www.w3.org/2000/svg">
  <path transform="scale(1, -1) translate(0, -256)" fill="currentColor" d="M234 154h-11v6q0 8 -6 14t-15 6h-148q-9 0 -15 -6t-6 -14v-6h-11q-7 0 -12 -5t-5 -12v-18q0 -7 5 -12.5t12 -5.5h11v-5q0 -9 6 -15t15 -6h44l4 1l17 8q5 2 9 2t9 -2l17 -8q1 -1 4 -1h44q9 0 15 6t6 15v5h11q7 0 12 5.5t5 12.5v18q0 7 -5 12t-12 5zM22 116q-1 0 -2 1t-1 2 v18q0 2 1 3t2 1h11v-25h-11zM209 96q0 -2 -2 -4t-5 -2h-44l-16 7q-5 3 -13 3t-16 -3l-16 -7h-43q-3 0 -5 2t-2 4v64q0 2 2 4t5 2h148q3 0 5 -2t2 -4v-64zM237 119q0 -1 -1 -2t-2 -1h-11v24h11q1 0 2 -1t1 -2v-18z" />
</svg>