<svg viewBox="0 0 1024 1024" xmlns="http://www.w3.org/2000/svg">
  <path transform="scale(1, -1) translate(0, -960)" fill="currentColor" d="M910 890h-796q-34 0 -58 -24.5t-24 -59.5v-718q0 -34 24 -58t58 -24h795q33 0 57 24t24 58v718q2 35 -22 59.5t-58 24.5v0zM114 858h795q20 0 34.5 -15t14.5 -35v-106h-894v104q0 22 14.5 37t35.5 15v0zM910 38h-796q-21 0 -35.5 15t-14.5 35v581h896v-581 q0 -20 -14.5 -35t-35.5 -15zM688 458h-30v25q0 34 -24 58t-58 24h-128q-34 0 -58 -24t-24 -58v-25h-30q-34 0 -58 -24t-24 -58v-141q0 -33 24 -57t58 -24h107q4 0 6.5 1t4.5 3l58 58l58 -58q2 -2 4.5 -3t6.5 -1h107q34 0 58 24t24 57v141q1 34 -23 58t-59 24v0zM448 534h128 q20 0 35 -14.5t15 -34.5v-26h-228v26q0 20 15 34.5t35 14.5v0zM688 184h-101l-64 64q-5 5 -11 5t-11 -5l-64 -64h-101q-20 0 -35 14.5t-15 35.5v70h66q7 0 11.5 4.5t4.5 11.5t-4.5 11.5t-11.5 4.5h-67v38q0 21 14.5 35.5t34.5 14.5h354q20 0 35 -14.5t15 -35.5v-38h-66 q-7 0 -11.5 -4.5t-4.5 -11.5t4.5 -11.5t11.5 -4.5h67v-70q0 -20 -14.5 -35t-36.5 -15z" />
</svg>