<svg viewBox="0 0 1024 1024" xmlns="http://www.w3.org/2000/svg">
  <path transform="scale(1, -1) translate(0, -960)" fill="currentColor" d="M397 426q-5 4 -11.5 4t-11.5 -4l-91 -92h-144q-31 0 -53 22.5t-22 54.5v106h99q7 0 11.5 4.5t4.5 11.5t-4.5 11.5t-11.5 4.5h-99v59q0 31 22 54t55 23h64v0v0h361v0v0h64q32 0 54.5 -22.5t22.5 -54.5q0 -7 4.5 -11.5t11.5 -4.5t11.5 4.5t4.5 11.5q0 44 -31.5 76.5 t-77.5 32.5h-48v43q0 44 -31.5 76.5t-76.5 32.5h-176q-45 0 -77 -31.5t-32 -77.5v-43h-48q-45 0 -77 -31.5t-32 -77.5v-74v0v0v0v0v-120q0 -44 31.5 -76t77.5 -32h150q4 0 6.5 1t4.5 3l85 85l85 -85q5 -4 11.5 -4t10.5 4q5 5 5 11.5t-5 11.5l-97 93v0zM298 834h177 q31 0 54 -22.5t23 -54.5v-43h-331v43q0 32 22 54.5t55 22.5zM976 219h-75q0 16 -2.5 30.5t-7.5 28.5l59 53q5 5 6 11.5t-4 11.5q-5 4 -11.5 5t-10.5 -4l-52 -45q-8 18 -20.5 33.5t-27.5 26.5q6 2 12 5.5t11 8.5q7 8 10.5 18.5t2.5 21.5q-4 41 -33 67.5t-68 26.5 q-40 0 -69 -26.5t-34 -67.5q-1 -11 2.5 -22t10.5 -18q5 -5 11 -8.5t12 -5.5q-15 -11 -26.5 -25.5t-20.5 -32.5l-49 43q-5 5 -11.5 4t-11.5 -5q-5 -5 -4 -11.5t6 -11.5l57 -51q-4 -14 -6.5 -29.5t-2.5 -31.5h-74q-7 0 -11.5 -4.5t-4.5 -11.5t4.5 -11.5t11.5 -4.5h74 q1 -13 3.5 -26t7.5 -25l-59 -53q-5 -5 -6 -11t4 -11q3 -3 6 -4t7 -1q2 0 5.5 1t5.5 4l53 46q18 -33 46.5 -54t62.5 -21q33 0 62.5 21t47.5 56l53 -48q2 -3 5 -4t6 -1q4 0 7 1t4 4q5 5 4.5 11t-5.5 11l-61 55q4 12 6.5 24t4.5 25h77q7 0 11.5 4.5t4.5 11.5t-4.5 11.5 t-11.5 4.5v0zM696 419q2 29 22.5 47.5t47.5 18.5q28 0 47.5 -19t21.5 -47q0 -5 -1 -8.5t-4 -7.5q-3 -3 -6.5 -4.5t-7.5 -1.5h-101q-3 0 -7.5 1.5t-6.5 4.5q-3 4 -4.5 8.5t-0.5 7.5v0zM766 62q-43 0 -73.5 44t-30.5 105t30.5 105t73.5 44q30 0 55 -22.5t37 -57.5v0v0 q4 -16 7.5 -32.5t3.5 -34.5v-2.5v-2.5v-1.5v-1.5v-1v-1q-3 -60 -32.5 -100.5t-70.5 -40.5v0z" />
</svg>