<svg viewBox="0 0 256 256" xmlns="http://www.w3.org/2000/svg">
  <path transform="scale(1, -1) translate(0, -256)" fill="currentColor" d="M102 124q-3 2 -5.5 2.5t-4.5 -2.5l-22 -22h-35q-6 0 -11 5t-5 11v24h22q3 0 5 2t2 5t-2 5t-5 2h-22v12q0 6 5 11t11 5h123q6 0 11 -5t5 -11q0 -3 2 -5.5t5 -2.5t5 2.5t2 5.5q0 12 -9 21t-21 9h-9v7q0 12 -9 21t-21 9h-45q-12 0 -21 -9t-9 -21v-7h-9q-12 0 -21 -9t-9 -21 v-50q0 -12 9 -21t21 -9h38q3 0 5 2l19 19l19 -19q2 -2 5 -2t5 2.5t2 5t-2 4.5zM74 222h45q6 0 11 -5t5 -11v-8h-77v8q0 6 5 11t11 5zM244 74h-16q-1 7 -2 10l14 12q2 2 2 5t-1.5 5.5t-4.5 2.5t-6 -2l-10 -9q-2 5 -7 10l3 2q5 5 4 12q-1 12 -9 19.5t-19.5 7.5t-19.5 -7.5 t-9 -19.5q0 -7 4 -12l3 -2q-4 -4 -7 -9l-10 8q-2 2 -5 2t-5 -2.5t-1.5 -5.5t2.5 -5l13 -11q-1 -7 -2 -11h-15q-3 0 -5.5 -2.5t-2.5 -5.5t2.5 -5t5.5 -2h16q0 -3 2 -9l-14 -12q-2 -1 -2.5 -4t1.5 -5.5t5 -2.5t5 2l11 9q5 -8 12 -12.5t15.5 -4.5t16 4.5t12.5 12.5l11 -10 q1 -1 4.5 -1t5.5 2t1.5 5t-2.5 5l-14 12l2 9h16q3 0 5 2t2 5t-2 5.5t-5 2.5zM192 134q5 0 9 -4t5 -10v-1q-1 -1 -2 -1h-25q-1 0 -2 1v1q0 6 4.5 10t10.5 4zM192 34q-10 0 -16.5 10.5t-6.5 24t6.5 23.5t16 10t16 -10t6.5 -24v-2q-1 -13 -7.5 -22.5t-14.5 -9.5z" />
</svg>