<svg viewBox="0 0 256 256" xmlns="http://www.w3.org/2000/svg">
  <path transform="scale(1, -1) translate(0, -256)" fill="currentColor" d="M228 241h-200q-9 0 -16 -7t-7 -16v-180q0 -10 7 -17t16 -7h199q10 0 17 7t7 17v180q0 9 -7 16t-16 7zM28 227h199q4 0 7 -2.5t3 -6.5v-24h-218v24q0 4 2.5 6.5t6.5 2.5zM228 29h-200q-4 0 -6.5 2.5t-2.5 6.5v142h218v-142q0 -4 -2.5 -6.5t-6.5 -2.5zM172 134h-5v3 q0 10 -7 17t-16 7h-32q-10 0 -17 -7t-7 -17v-3h-4q-10 0 -17 -7t-7 -17v-35q0 -10 7 -17t17 -7h27q3 0 5 2l12 13l12 -13q2 -2 5 -2h27q10 0 17 7t7 17v35q0 10 -7 17t-17 7zM112 147h32q4 0 7 -3t3 -7v-3h-52v3q0 4 3 7t7 3zM172 65h-24l-15 15q-2 2 -5 2.5t-5 -2.5 l-15 -15h-24q-4 0 -7 3t-3 7v15h14q3 0 5 2t2 5t-2 5t-5 2h-14v6q0 4 3 7t7 3h88q4 0 7 -3t3 -7v-6h-14q-3 0 -5 -2t-2 -5t2 -5t5 -2h14v-15q0 -4 -3 -7t-7 -3z" />
</svg>