<svg viewBox="0 0 1024 1024" xmlns="http://www.w3.org/2000/svg">
  <path transform="scale(1, -1) translate(0, -960)" fill="currentColor" d="M909 432h-215q-34 0 -58.5 -24t-24.5 -59v-79q0 -34 24.5 -58.5t58.5 -24.5h13v-77q0 -4 2.5 -8.5t7.5 -5.5q1 -1 3 -1.5t3 -0.5q3 0 6 1.5t5 3.5l96 90h79q35 0 59 24t24 59v78q0 33 -24 57.5t-59 24.5zM960 269q0 -22 -15.5 -36.5t-35.5 -14.5h-85q-4 0 -6.5 -1.5 t-4.5 -3.5l-75 -69v56q0 7 -4.5 11.5t-11.5 4.5h-29q-22 0 -36.5 15.5t-14.5 35.5v79q0 21 15 36t36 15h214q22 0 36.5 -15.5t14.5 -35.5v-77h2zM142 618h68v0v0h371v0v0h67q32 0 55 -23t23 -56q0 -7 4.5 -11.5t11.5 -4.5q8 0 12 4.5t4 11.5q0 46 -32 78.5t-78 32.5h-51v44 q0 46 -32.5 78.5t-78.5 32.5h-182q-46 0 -78 -32.5t-32 -78.5v-44h-52q-45 0 -77.5 -32.5t-32.5 -78.5v-77v0v0v0v0v-123q0 -45 32.5 -77.5t77.5 -32.5h154q4 0 6.5 1t4.5 4l87 86l86 -86q2 -3 5.5 -4t5.5 -1q4 0 6.5 1t4.5 4q5 4 5 10.5t-5 11.5l-96 96q-4 5 -10.5 5 t-11.5 -5l-94 -93h-148q-32 0 -55 23t-23 56v108h102q8 0 12 4.5t4 11.5q0 8 -4 12t-12 4h-102v61q0 33 23 56t55 23v0zM304 773h182q33 0 56 -23t23 -56v-44h-339v44q0 33 23 56t55 23z" />
</svg>