<svg viewBox="0 0 256 256" xmlns="http://www.w3.org/2000/svg">
  <path transform="scale(1, -1) translate(0, -256)" fill="currentColor" d="M227 127h-53q-10 0 -17 -7t-7 -17v-20q0 -10 7 -17t17 -7v-16q0 -5 4 -7h2q3 0 5 2l23 22h19q10 0 17 7t7 17v19q0 10 -7 17t-17 7zM237 83q0 -4 -3 -7t-7 -3h-21q-3 0 -5 -2l-13 -12v7q0 3 -2.5 5t-5.5 2h-7q-4 0 -7 3t-3 7v20q0 4 3 7t7 3h54q4 0 7 -3t3 -7v-20z M36 167h126q7 0 12 -5t5 -12q0 -3 2 -5t5 -2t5 2t2 5q0 13 -9 22t-22 9h-10v8q0 13 -9 22t-22 9h-45q-13 0 -22 -9t-9 -22v-8h-9q-13 0 -22 -9t-9 -22v-50q0 -13 9 -22t22 -9h38q3 0 5 2l19 20l20 -20q2 -2 5 -2t5 2t2 5t-2 5l-24 25q-2 2 -5 2t-5 -2l-23 -22h-35 q-7 0 -12 5t-5 12v24h22q3 0 5 2t2 5t-2 5t-5 2h-22v12q0 7 5 11.5t12 4.5zM76 206h46q7 0 11.5 -5t4.5 -12v-8h-79v8q0 7 5 12t12 5z" />
</svg>