<svg viewBox="0 0 256 256" xmlns="http://www.w3.org/2000/svg">
  <path transform="scale(1, -1) translate(0, -256)" fill="currentColor" d="M189 104v53q0 6 -3 10.5t-8 6.5l-42 20q-8 3 -16 0l-42 -20q-5 -2 -8 -7t-3 -10v-54q0 -5 2.5 -9.5t6.5 -6.5l42 -24q5 -3 10 -3t10 3l42 24q4 3 6.5 7.5t2.5 9.5zM126 181q1 1 2.5 1t1.5 -1l35 -16l-37 -17l-38 17zM84 99q-3 1 -3 5v50l40 -19v-57zM172 99l-37 -21v57 l40 19v-51q-1 -3 -3 -4zM18 181q3 0 5 2t2 5v39q0 4 3 7t6 3h40q3 0 5.5 2t2.5 5t-2.5 5t-5.5 2h-40q-9 0 -16 -7t-7 -16v-40q0 -3 2 -5t5 -2zM238 75q-3 0 -5 -2t-2 -5v-40q0 -4 -2.5 -6.5t-6.5 -2.5h-40q-3 0 -5.5 -2t-2.5 -5t2.5 -5.5t5.5 -2.5h40q9 0 16 7t7 17v40 q0 3 -2 5t-5 2zM182 237h40q4 0 7 -3t3 -7v-40q0 -3 2 -5t5 -2t5 2t2 5v40q0 10 -7 17t-17 7h-39q-3 0 -5 -2t-2 -5t1.5 -5t4.5 -2zM74 19h-40q-4 0 -7 2.5t-3 6.5v40q0 3 -2 5.5t-5 2.5t-5 -2.5t-2 -5.5v-40q0 -9 7 -16t17 -7h39q3 0 5 2t2 5t-1.5 5t-4.5 2z" />
</svg>