<svg viewBox="0 0 1024 1024" xmlns="http://www.w3.org/2000/svg">
  <path transform="scale(1, -1) translate(0, -960)" fill="currentColor" d="M744 350v215q0 19 -10 34.5t-27 22.5l-168 77q-13 6 -27 6t-27 -6l-168 -78q-17 -9 -27 -24.5t-10 -33.5v-214q0 -17 9 -32.5t23 -23.5l168 -96q7 -5 15.5 -6.5t16.5 -1.5t16.5 2t15.5 6l168 96q14 9 23 24t9 33zM499 670q4 2 7.5 3t5.5 1t6 -1t7 -3l165 -76l-178 -80 l-179 81l166 75v0zM328 322q-7 4 -11.5 11t-4.5 16v216v2v3l184 -85v-259l-168 96v0zM712 350q0 -8 -4.5 -15.5t-11.5 -11.5l-168 -96v258l182 85v-3v-2v-215h2zM70 670q8 0 12 4.5t4 11.5v159q0 20 15 34.5t35 14.5h160q7 0 11.5 4.5t4.5 11.5q0 8 -4.5 12t-11.5 4h-160 q-34 0 -58 -24t-24 -57v-159q0 -6 4.5 -11t11.5 -5zM954 226q-8 0 -12 -4.5t-4 -11.5v-159q0 -20 -15 -34.5t-35 -14.5h-160q-7 0 -11.5 -4.5t-4.5 -11.5q0 -8 4.5 -12t11.5 -4h160q34 0 58 24t24 57v159q0 6 -4.5 11t-11.5 5zM730 896h158q20 0 35 -14.5t15 -35.5v-160 q0 -7 4 -11.5t12 -4.5q7 0 11.5 4.5t4.5 11.5v160q0 34 -24 58t-58 24h-158q-8 0 -12 -4.5t-4 -11.5t4 -11.5t12 -4.5zM294 0h-158q-20 0 -35 14.5t-15 35.5v160q0 7 -4 11.5t-12 4.5q-7 0 -11.5 -4.5t-4.5 -11.5v-160q0 -34 24 -58t58 -24h158q8 0 12 4.5t4 11.5t-4 11.5 t-12 4.5z" />
</svg>