<svg viewBox="0 0 256 256" xmlns="http://www.w3.org/2000/svg">
  <path transform="scale(1, -1) translate(0, -256)" fill="currentColor" d="M226 94h-8v6q0 10 -7 17t-16 7h-39q-10 0 -17 -7t-7 -17v-6h-7q-10 0 -16.5 -7t-6.5 -16v-42q0 -10 7 -17t16 -7h31q3 0 5 2l14 14l14 -14q2 -2 5 -2h31q10 0 17 7t7 17v41q0 10 -7 17t-16 7zM156 110h38q4 0 7 -2.5t3 -6.5v-6h-58v6q0 4 3 6.5t7 2.5zM226 19h-29l-17 17 q-2 2 -5 2t-5 -2l-17 -17h-28q-4 0 -7 2.5t-3 6.5v19h16q3 0 5 2t2 5t-2 5t-5 2h-16v9q0 4 3 7t7 3h101q4 0 6.5 -3t2.5 -7v-9h-15q-3 0 -5.5 -2t-2.5 -5t2.5 -5t5.5 -2h15v-19q0 -4 -2.5 -6.5t-6.5 -2.5zM111 168v53q0 7 -6 10l-41 19q-5 2 -10 0l-41 -19q-3 -1 -4.5 -4 t-1.5 -6v-53q0 -6 5 -9l42 -24q3 -1 6 -1t5 1l41 24q5 4 5 9zM59 237l29 -13l-29 -14l-29 14zM21 212l31 -14v-46l-31 18v42zM66 152v46l31 14v-42zM147 211h47q4 0 7 -3t3 -7v-22l-6 7q-2 2 -5 2t-5 -2t-2.5 -4.5t1.5 -5.5l19 -20q2 -2 5 -2t5 2l19 20q2 2 2 5t-2 5t-5 2 t-5 -2l-7 -7v22q0 10 -7 17t-16 7h-48q-3 0 -5 -2t-2 -5t2 -5t5 -2z" />
</svg>