<svg viewBox="0 0 1024 1024" xmlns="http://www.w3.org/2000/svg">
  <path transform="scale(1, -1) translate(0, -960)" fill="currentColor" d="M902 301h-41v37q0 34 -24.5 58.5t-58.5 24.5h-154q-35 0 -59 -24.5t-24 -58.5v-37h-42q-35 0 -59 -24.5t-24 -58.5v-168q0 -35 24 -59.5t59 -24.5h125q4 0 6.5 1.5t4.5 3.5l64 64l64 -64q3 -2 5.5 -3.5t5.5 -1.5h125q35 0 59 24.5t24 59.5v168q3 34 -21.5 58.5 t-58.5 24.5v0zM624 389h154q21 0 36 -15t15 -36v-37h-256v37q0 21 15.5 36t35.5 15v0zM902 0h-118l-72 70q-5 5 -11.5 5t-10.5 -5l-72 -70h-119q-21 0 -36 15t-15 36v87h75q7 0 11.5 4t4.5 12q0 7 -4.5 11.5t-11.5 4.5h-75v49q0 22 15 36.5t36 14.5h403q22 0 37 -14.5 t15 -36.5v-49h-76q-7 0 -11.5 -4.5t-4.5 -11.5q0 -8 4.5 -12t11.5 -4h76v-87q0 -21 -15.5 -36t-36.5 -15v0zM432 610v209q0 10 -5.5 17.5t-13.5 11.5l-163 77q-6 2 -13 2t-15 -2l-164 -75q-9 -5 -14.5 -13t-5.5 -18v-209q0 -9 4.5 -16.5t11.5 -11.5l165 -94q4 -2 8.5 -3.5 t7.5 -1.5q4 0 8.5 1.5t7.5 3.5l165 94q7 5 11.5 12t4.5 16v0zM235 896l143 -66l-143 -65l-144 65l144 66v0zM70 610v193l149 -69v-211zM251 525v211l149 69v-194l-149 -86v0zM781 670q-5 5 -11.5 5t-11.5 -5q-4 -4 -4 -10.5t4 -11.5l76 -80q2 -2 5 -3.5t6 -1.5q2 0 5.5 1.5 t5.5 3.5l75 80q5 5 5 11.5t-5 10.5q-5 5 -11 5t-11 -5l-63 -67l-65 67v0zM589 790h189q21 0 36 -14.5t15 -36.5v-105q0 -8 4.5 -12t11.5 -4t11.5 4t4.5 12v105q0 35 -24.5 59t-58.5 24h-189q-7 0 -11.5 -4t-4.5 -12q0 -7 5 -11.5t11 -4.5v0z" />
</svg>