<svg viewBox="0 0 256 256" xmlns="http://www.w3.org/2000/svg">
  <path transform="scale(1, -1) translate(0, -256)" fill="currentColor" d="M82 118h28q3 0 5 2l13 13l13 -13q2 -2 5 -2h28q11 0 18 7t7 17v38q0 10 -7 17t-18 7h-5v4q0 10 -7 17t-17 7h-34q-10 0 -17 -7t-7 -17v-4h-5q-11 0 -18 -7t-7 -17v-38q0 -10 7 -17t18 -7zM111 218h34q4 0 7 -3t3 -7v-4h-54v4q0 4 3 7t7 3zM82 190h93q4 0 7 -3t3 -7v-8 h-15q-3 0 -5 -2t-2 -5t2 -5t5 -2h15v-16q0 -4 -3 -7t-7 -3h-26l-16 16q-2 2 -5 2t-5 -2l-16 -16h-25q-5 0 -8 3t-3 7v16h15q3 0 5 2t2 5t-2 5t-5 2h-15v8q0 4 3 7t8 3zM244 38h-17v112q0 3 -2 5t-5 2t-5.5 -2t-2.5 -5v-112h-169v112q0 3 -2 5t-5 2t-5 -2t-2 -5v-112h-17 q-3 0 -5 -2.5t-2 -5.5t2 -4.5t5 -1.5h232q3 0 5 2t2 5t-2 5t-5 2z" />
</svg>