<svg viewBox="0 0 1024 1024" xmlns="http://www.w3.org/2000/svg">
  <path transform="scale(1, -1) translate(0, -960)" fill="currentColor" d="M874 658q30 0 50 -21t20 -50v-278q0 -30 -21 -50.5t-49 -20.5h-189q-12 0 -21.5 5t-17.5 15l-92 115q-9 8 -19.5 12.5t-22.5 4.5t-22.5 -4.5t-19.5 -14.5l-92 -115q-8 -8 -18 -13.5t-21 -5.5h-189q-30 0 -50 20.5t-20 49.5v280q0 30 21 50.5t49 20.5h724zM874 690h-724 q-43 0 -72.5 -30.5t-29.5 -72.5v-278q0 -43 30 -73t72 -30h188q19 0 35.5 8t28.5 23l92 115q4 4 8 6t8 2q5 0 9 -2t7 -6l93 -115q12 -15 28.5 -23t35.5 -8h187q44 0 73.5 30.5t29.5 72.5v278q2 43 -27.5 73t-71.5 30v0v0z" />
</svg>