<svg viewBox="0 0 1024 1024" xmlns="http://www.w3.org/2000/svg">
  <path transform="scale(1, -1) translate(0, -960)" fill="currentColor" d="M326 421h114q4 0 6.5 1t4.5 4l61 60l61 -60q2 -3 4.5 -4t6.5 -1h114q36 0 61 25t25 61v149q0 36 -25 61t-61 25h-34v26q0 36 -25 61t-61 25h-135q-36 0 -61 -25t-25 -61v-29h-34q-36 0 -61 -25t-25 -61v-149q2 -34 27.5 -58.5t61.5 -24.5v0zM445 822h134q23 0 39 -15.5 t16 -38.5v-29h-244v29q0 23 16 38.5t39 15.5zM326 709h373q23 0 39 -16t16 -39v-40h-71q-7 0 -11.5 -4t-4.5 -12q0 -7 4.5 -11.5t11.5 -4.5h69v-75q0 -23 -16 -38.5t-38 -15.5h-108l-67 67q-5 5 -11 5t-11 -5l-67 -67h-108q-22 0 -38 15.5t-16 38.5v75h70q8 0 12 4.5t4 11.5 q0 8 -4 12t-12 4h-70v40q0 22 16 38.5t38 16.5v0zM976 74h-82v462q0 7 -4 11.5t-12 4.5q-7 0 -11.5 -4.5t-4.5 -11.5v-461h-700v461q0 7 -4.5 11.5t-11.5 4.5q-8 0 -12 -4.5t-4 -11.5v-461h-82q-7 0 -11.5 -4.5t-4.5 -11.5t4.5 -11.5t11.5 -4.5h928q7 0 11.5 4.5t4.5 11.5 t-4.5 11t-11.5 4z" />
</svg>