<svg viewBox="0 0 1024 1024" xmlns="http://www.w3.org/2000/svg">
  <path transform="scale(1, -1) translate(0, -960)" fill="currentColor" d="M906 653q-8 0 -12 -4.5t-4 -11.5v-447q0 -20 -15 -34.5t-35 -14.5h-654q-21 0 -35.5 14.5t-14.5 34.5v447q0 7 -4.5 11.5t-11.5 4.5t-11.5 -4.5t-4.5 -11.5v-447q0 -33 24 -57t58 -24h246l-21 -122q0 -3 0.5 -6.5t2.5 -6.5q3 -2 6.5 -4t6.5 -2h170q3 0 6.5 1.5t6.5 4.5 q2 3 3 6.5t0 6.5l-21 122h246q34 0 58 24t24 57v447q1 6 -3.5 11t-10.5 5v0zM578 0h-133l17 109h96l20 -109v0zM325 490h115q4 0 6.5 1t4.5 3l63 63l62 -63q2 -2 5 -3t6 -1h115q36 0 61.5 25t25.5 61v150q0 36 -25.5 61.5t-61.5 25.5h-33v29q0 36 -25.5 61t-61.5 25h-136 q-36 0 -61 -25t-25 -61v-29h-34q-36 0 -61 -25.5t-25 -61.5v-150q-1 -35 24 -60.5t61 -25.5v0zM445 896h136q23 0 38.5 -16t15.5 -38v-29h-245v29q0 22 16 38t39 16v0zM325 781h376q23 0 38.5 -16t15.5 -39v-41h-72q-7 0 -11.5 -4.5t-4.5 -11.5t4.5 -11.5t11.5 -4.5h72v-77 q0 -23 -15.5 -38.5t-38.5 -15.5h-109l-69 68q-5 5 -11 5t-11 -5l-69 -68h-107q-23 0 -39 15.5t-16 38.5v77h72q8 0 12 4.5t4 11.5t-4 11.5t-12 4.5h-72v41q0 23 16 39t39 16v0z" />
</svg>