<svg viewBox="0 0 256 256" xmlns="http://www.w3.org/2000/svg">
  <path transform="scale(1, -1) translate(0, -256)" fill="currentColor" d="M226 182q-3 0 -5 -2t-2 -5v-112q0 -4 -2.5 -6.5t-6.5 -2.5h-164q-3 0 -6 2.5t-3 6.5v112q0 3 -2 5t-5 2t-5.5 -2t-2.5 -5v-111q0 -10 7 -17t17 -7h58l-4 -27q-1 -3 1 -5.5t6 -2.5h42q4 0 6 2.5t1 5.5l-4 27h58q9 0 16 7t7 17v111q0 3 -2 5t-5 2zM141 19h-26l4 21h19z M81 136h29q3 0 5 2l13 13l13 -13q2 -2 5 -2h29q10 0 17.5 7t7.5 17v38q0 10 -7.5 17.5t-17.5 7.5h-5v3q0 11 -7.5 18t-17.5 7h-34q-10 0 -17.5 -7t-7.5 -18v-4h-5q-10 0 -17.5 -7.5t-7.5 -17.5v-37q0 -10 7.5 -17t17.5 -7zM111 237h34q5 0 8 -3.5t3 -7.5v-4h-56v4q0 5 3.5 8 t7.5 3zM81 208h94q5 0 8 -3t3 -8v-7h-15q-3 0 -5 -2t-2 -5t2 -5t5 -2h15v-16q0 -5 -3 -8t-8 -3h-25l-17 16q-2 2 -5 2t-5 -2l-16 -16h-26q-4 0 -7.5 3t-3.5 8v16h15q3 0 5 2t2 5t-2 5t-5 2h-15v7q0 5 3.5 8t7.5 3z" />
</svg>