<svg viewBox="0 0 1024 1024" xmlns="http://www.w3.org/2000/svg">
  <path transform="scale(1, -1) translate(0, -960)" fill="currentColor" d="M326 494h114q4 0 6.5 1.5t4.5 3.5l61 61l61 -61q2 -2 4.5 -3.5t6.5 -1.5h114q36 0 61 25.5t25 61.5v149q0 36 -25 61t-61 25h-34v26q0 36 -25 61t-61 25h-135q-36 0 -61 -25t-25 -61v-29h-34q-36 0 -61 -25.5t-25 -61.5v-148q2 -34 27.5 -59t61.5 -25v0zM445 896h134 q23 0 39 -16t16 -38v-29h-244v29q0 22 16 38t39 16zM326 782h373q23 0 39 -15.5t16 -38.5v-40h-71q-7 0 -11.5 -4.5t-4.5 -11.5t4.5 -11.5t11.5 -4.5h69v-75q0 -23 -16 -39t-38 -16h-108l-67 68q-5 4 -11 4t-11 -4l-67 -68h-108q-22 0 -38 16t-16 39v75h70q8 0 12 4.5 t4 11.5t-4 11.5t-12 4.5h-70v40q0 23 16 38.5t38 15.5zM878 630q-7 0 -11.5 -4t-4.5 -12v-411q0 -20 -14.5 -34.5t-34.5 -14.5h-602q-20 0 -34.5 14.5t-14.5 34.5v411q0 8 -4.5 12t-11.5 4q-8 0 -12 -4t-4 -12v-411q0 -33 24 -57t57 -24h226l-18 -122h-97q-8 0 -12 -4.5 t-4 -11.5t4 -11.5t12 -4.5h380q8 0 12 4.5t4 11.5t-4 11.5t-12 4.5h-97l-18 120h226q33 0 57 24t24 58v412q0 6 -5 11t-11 5v0zM573 0h-122l18 120h86z" />
</svg>