<svg viewBox="0 0 256 256" xmlns="http://www.w3.org/2000/svg">
  <path transform="scale(1, -1) translate(0, -256)" fill="currentColor" d="M82 137h28q3 0 5 2l13 13l13 -13q2 -2 5 -2h28q11 0 18 7t7 17v37q0 11 -7 18t-18 7h-5v4q0 10 -7 17t-17 7h-34q-10 0 -17 -7t-7 -17v-4h-5q-11 0 -18 -7t-7 -18v-37q0 -10 7 -17t18 -7zM111 237h34q4 0 7 -3t3 -8v-4h-54v4q0 5 3 8t7 3zM82 208h93q4 0 7 -3t3 -7v-7 h-15q-3 0 -5 -2t-2 -5t2 -5.5t5 -2.5h15v-16q0 -4 -3 -7t-7 -3h-26l-16 16q-2 2 -5 2t-5 -2l-16 -16h-25q-5 0 -8 3t-3 7v16h15q3 0 5 2.5t2 5.5t-2 5t-5 2h-15v7q0 5 3 7.5t8 2.5zM220 176q-3 0 -5.5 -2t-2.5 -5v-103q0 -3 -2.5 -6t-6.5 -3h-150q-4 0 -7 3t-3 6v104 q0 3 -2 5t-5 2t-5 -2t-2 -5v-103q0 -10 7 -17t16 -7h53l-3 -24h-22q-3 0 -5 -2t-2 -5t2 -5t5 -2h95q3 0 5 2t2 5t-2 5t-5 2h-21l-4 24h53q9 0 16 7t7 17v103q0 2 -1.5 4t-4.5 2zM140 19h-24l4 24h16z" />
</svg>