<svg viewBox="0 0 256 256" xmlns="http://www.w3.org/2000/svg">
  <path transform="scale(1, -1) translate(0, -256)" fill="currentColor" d="M156 154q3 0 4.5 2t1.5 5t-2 5t-4.5 2t-4.5 -2t-2 -5t2 -5t5 -2zM74 99q10 0 18 6.5t10 16.5h52q2 -10 10 -17t19.5 -7t19.5 8.5t8 20.5v47q0 11 -8 19.5t-20 8.5h-48v42q0 3 -2 5t-5 2t-5 -2t-2 -5v-42h-47q-12 0 -20.5 -8t-8.5 -20v-47q0 -12 8.5 -20t20.5 -8zM59 174 q0 6 4 10.5t11 4.5h109q6 0 10 -4.5t4 -10.5v-47q0 -6 -4 -10.5t-10 -4.5t-10.5 4.5t-4.5 10.5q0 3 -2.5 6t-6.5 3h-62q-4 0 -6.5 -3t-2.5 -7.5t-4.5 -8.5t-10.5 -4t-10.5 4t-4.5 10v47h1zM74 154h5v-5q0 -3 2 -5t5 -2t5.5 2t2.5 5v5h4q3 0 5.5 2t2.5 5t-2.5 5t-5.5 2h-4v5 q0 3 -2.5 5t-5.5 2t-5 -2t-2 -5v-5h-5q-3 0 -5 -2t-2 -5t2 -5t5 -2zM184 154q3 0 4.5 2t1.5 5t-2 5t-4.5 2t-4.5 -2t-2 -5t2 -5t5 -2zM163 175q0 -3 2 -5t4.5 -2t4.5 2t2 5t-2 5t-4.5 2t-4.5 -2t-2 -5zM163 147q0 -3 2 -5t4.5 -2t4.5 2t2 5t-2 5t-4.5 2t-4.5 -2t-2 -5z M178 84q-3 1 -5.5 -1t-3 -4.5t1 -5t4.5 -3.5q17 -3 27 -8q7 -4 7 -6.5t-6 -6t-17.5 -7t-28.5 -5.5q-3 0 -5 -2t-1.5 -5t2.5 -5t4 -2h1q23 3 38 8q27 9 27 24q0 10 -12 17.5t-33 11.5zM111 51q-2 2 -5 2t-5 -2.5t-1.5 -5.5t2.5 -5l5 -4q-18 1 -33 5q-13 3 -20 7t-7 7t9 7 q12 6 30 9q3 0 5 2.5t1.5 5.5t-3 4.5t-5.5 1.5q-24 -4 -37.5 -12t-13.5 -18q0 -15 24 -23q20 -8 50 -10l-5 -5q-2 -2 -2 -5t2 -5t5 -2t5 2l18 19q2 2 2 5t-2 5z" />
</svg>