<svg viewBox="0 0 256 256" xmlns="http://www.w3.org/2000/svg">
  <path transform="scale(1, -1) translate(0, -256)" fill="currentColor" d="M217 18l-21 23l12 6q4 3 6.5 7t2.5 10v90q0 5 -3 9.5t-8 7.5l-71 33v40q0 3 -2 5.5t-5 2.5t-5 -2.5t-2 -5.5v-40q-1 0 -1 -1l-70 -32q-5 -3 -8 -7.5t-3 -9.5v-90q0 -5 2.5 -9.5t6.5 -6.5l12 -7l-21 -22q-2 -2 -1.5 -5t2.5 -5t5 -2t5 2l22 25l46 -27q5 -2 10 -2t10 2 l46 27l22 -25q2 -2 5 -2t5 2t2.5 4.5t-1.5 4.5zM121 188v-16q0 -3 2 -5t5 -2t5.5 2t2.5 5v16l58 -27l-66 -30l-66 30zM82 44l13 15q2 2 1.5 5t-2.5 5t-5 1.5t-5 -2.5l-15 -16l-14 8q-2 1 -2 4v86l68 -32v-96zM135 22v97l68 31v-86q0 -3 -2 -4l-14 -8l-15 16q-2 3 -5 3 t-5.5 -2t-2.5 -5t2 -5l13 -15z" />
</svg>