<svg viewBox="0 0 1024 1024" xmlns="http://www.w3.org/2000/svg">
  <path transform="scale(1, -1) translate(0, -960)" fill="currentColor" d="M858 2l-92 100l58 34q14 8 23 23t9 33v358q0 20 -10 35.5t-27 22.5l-280 130q-2 1 -5.5 2t-5.5 1v173q0 7 -4.5 11.5t-11.5 4.5t-11.5 -4.5t-4.5 -11.5v-173q-2 -1 -5.5 -1.5t-5.5 -1.5l-280 -130q-17 -8 -27 -24t-10 -34v-358q0 -17 9 -32.5t23 -23.5l58 -34l-92 -100 q-4 -5 -3.5 -11.5t5.5 -11.5q2 -2 5 -3.5t6 -1.5q4 0 6.5 1.5t4.5 3.5l96 106l194 -112q7 -5 15.5 -6.5t16.5 -1.5t16.5 2t15.5 6l194 112l96 -106q2 -2 5 -3.5t6 -1.5q2 0 5.5 1.5t5.5 3.5q6 5 6 11.5t-4 11.5v0zM496 707v-83q0 -7 4.5 -11.5t11.5 -4.5t11.5 4.5t4.5 11.5 v83l275 -128l-291 -133l-293 135l277 126v0zM307 112l63 69q4 5 3.5 11t-5.5 11t-11.5 4t-10.5 -5l-66 -74l-64 37q-7 5 -11.5 12t-4.5 15v358v2v2l296 -136v-416l-189 110v0zM528 3v416l296 136v-2v-3v-358q0 -8 -4.5 -16t-11.5 -11l-64 -37l-67 74q-5 4 -11.5 4.5 t-11.5 -3.5q-4 -5 -4.5 -11t3.5 -11l62 -69l-187 -109v0z" />
</svg>