<svg viewBox="0 0 1024 1024" xmlns="http://www.w3.org/2000/svg">
  <path transform="scale(1, -1) translate(0, -960)" fill="currentColor" d="M891 619h-33q-8 66 -38 122q-29 56 -75.5 98t-106.5 65q-59 24 -126 24q-66 0 -125 -24q-60 -23 -106 -65t-76 -98t-37 -122h-35q-13 0 -22.5 -9.5t-9.5 -22.5v-88q0 -13 9.5 -22.5t22.5 -9.5h248q9 -35 44 -73t106 -37q28 1 44 1t23 -1v-69q-19 -6 -31.5 -22.5 t-12.5 -38.5v-195q0 -26 18.5 -45t45.5 -19h168q26 0 45 19t19 45v197q0 23 -15 40t-35 22v176h91q13 0 22.5 9.5t9.5 22.5v88q0 13 -9.5 22.5t-22.5 9.5v0zM512 896q60 0 114 -21q53 -21 94.5 -58.5t69.5 -87.5q27 -51 34 -110h-624q7 59 35 110q27 50 69 87.5t95 58.5 q54 21 113 21zM819 229v-197q0 -13 -9.5 -22.5t-22.5 -9.5h-169q-14 0 -23 9.5t-9 22.5v197q0 13 9 22.5t23 9.5h168q14 0 23.5 -9.5t9.5 -22.5zM768 293h-136v88l-5 5q-5 3 -17 4.5t-79 -0.5h-2h-1q-54 0 -79 28.5t-33 50.5h352v-176v0zM133 501v88h757v-88h-757v0z" />
</svg>