<svg viewBox="0 0 256 256" xmlns="http://www.w3.org/2000/svg">
  <path transform="scale(1, -1) translate(0, -256)" fill="currentColor" d="M223 174h-6q-3 22 -15.5 39.5t-32 27.5t-41.5 10t-41.5 -10t-32 -27.5t-15.5 -39.5h-6q-4 0 -7.5 -3t-3.5 -8v-22q0 -5 3 -8t8 -3h60q4 -12 13 -19q11 -9 27 -9h14v-12q-5 -2 -8 -6.5t-3 -10.5v-49q0 -8 5.5 -13.5t13.5 -5.5h42q8 0 13.5 5.5t5.5 13.5v49q0 6 -3 11t-9 7 v39h20q4 0 7.5 3.5t3.5 8.5v22q-1 4 -4.5 7t-7.5 3zM128 237q28 0 49 -18t26 -45h-149q4 27 25 45t49 18zM202 24q0 -2 -1.5 -3.5t-4.5 -1.5h-42q-2 0 -3.5 1.5t-1.5 3.5v49q0 2 1.5 3.5t3.5 1.5h42q2 0 4 -1.5t2 -3.5v-49zM189 92h-28v20l-2 2q-2 2 -5 2h-22q-16 0 -23 14 h81v-38h-1zM220 144h-184v16h184v-16z" />
</svg>