<svg viewBox="0 0 256 256" xmlns="http://www.w3.org/2000/svg">
  <path transform="scale(1, -1) translate(0, -256)" fill="currentColor" d="M209 67l-17 129q-3 23 -21.5 39t-42.5 16t-42 -16t-21 -40l-17 -129q-12 -1 -20 -9.5t-8 -21t9 -21.5t21.5 -9t21.5 9t9 22q0 9 -5.5 17t-14.5 12l5 32h125l4 -32q-9 -4 -15 -11.5t-6 -17.5q0 -13 9.5 -22t22 -9t21.5 9t9 21.5t-7.5 21t-19.5 10.5zM128 237 q19 0 33.5 -12.5t16.5 -30.5l4 -34h-108l5 34q2 18 16 30.5t33 12.5zM68 36q0 -7 -5 -12t-12 -5t-12 5t-5 12t5 12t11.5 5t12 -5t5.5 -12zM68 111l4 36h112l5 -36h-121zM205 19q-7 0 -12 5t-5 12t5 11.5t12 4.5t12 -4.5t5 -11.5t-5 -12t-12 -5z" />
</svg>