<svg viewBox="0 0 1024 1024" xmlns="http://www.w3.org/2000/svg">
  <path transform="scale(1, -1) translate(0, -960)" fill="currentColor" d="M826 192l-71 525q-6 45 -27 83q-22 39 -54 67.5t-74 44.5q-41 16 -86 16q-46 0 -87 -16t-73.5 -44.5t-54.5 -67.5q-21 -38 -27 -83l-72 -525q-46 -1 -78 -33.5t-32 -78.5q0 -47 32.5 -79.5t79.5 -32.5q46 0 79 32.5t33 79.5q0 38 -23.5 68t-58.5 39l19 149h522l19 -147 q-36 -10 -59.5 -39.5t-23.5 -69.5q0 -47 32.5 -79.5t79.5 -32.5t79.5 32.5t32.5 79.5q0 46 -31.5 78.5t-75.5 33.5zM514 896q79 0 139.5 -52.5t69.5 -131.5l19 -146h-459l19 146q11 79 71 131.5t141 52.5v0zM283 80q0 -34 -23 -57t-57 -23q-33 0 -56.5 23t-23.5 57t23.5 57 t56.5 23q34 0 57 -24t23 -56zM256 368l22 166h469l23 -166h-514zM821 0q-34 0 -57 23t-23 57t23 57t57 23q33 0 56.5 -23t23.5 -57t-23.5 -57t-56.5 -23z" />
</svg>