<svg viewBox="0 0 1024 1024" xmlns="http://www.w3.org/2000/svg">
  <path transform="scale(1, -1) translate(0, -960)" fill="currentColor" d="M486 717q45 0 75.5 31t30.5 74q0 44 -30.5 75t-75.5 31q-44 0 -74.5 -31t-30.5 -75q0 -43 31 -74t74 -31zM486 896q30 0 52 -22t22 -52t-22 -51.5t-52 -21.5t-51.5 21.5t-21.5 51.5t21.5 52t51.5 22zM794 0h-165v133q0 2 -1 4.5t-2 4.5l-109 165v125l129 -48q2 0 3 -1 t2 -1q5 0 9 3.5t6 8.5q2 6 -1 12t-9 8l-141 52v110q0 5 -2.5 9t-6.5 5l-74 34q-24 11 -49 5.5t-42 -24.5l-31 -34q-2 -2 -3 -4.5t-1 -6.5v-170q0 -7 4 -11.5t12 -4.5q7 0 11.5 4.5t4.5 11.5v164l25 28q11 12 25.5 15.5t29.5 -3.5l67 -31v-272l-136 -281q-1 -3 -1 -6.5 t1 -6.5h-119q-7 0 -11.5 -4.5t-4.5 -11.5t4.5 -11.5t11.5 -4.5h564q7 0 11.5 4.5t4.5 11.5t-4.5 13t-11.5 6v0zM507 264l91 -138v-128h-219z" />
</svg>