<svg viewBox="0 0 1024 1024" xmlns="http://www.w3.org/2000/svg">
  <path transform="scale(1, -1) translate(0, -960)" fill="currentColor" d="M563 578h-101q-26 0 -45 -19t-19 -45v-101q0 -27 19 -45.5t45 -18.5h101q27 0 45.5 18.5t18.5 45.5v101q0 26 -18.5 45t-45.5 19v0zM595 413q0 -13 -9.5 -22.5t-22.5 -9.5h-101q-13 0 -22.5 9.5t-9.5 22.5v101q0 13 9.5 22.5t22.5 9.5h101q13 0 22.5 -9.5t9.5 -22.5v-101 zM725 928q-7 0 -11.5 -4.5t-4.5 -11.5v-216h-362q-26 0 -45 -19t-19 -45v-600q0 -26 19 -45t45 -19h331q27 0 45.5 19t18.5 45v880q-1 7 -5.5 11.5t-11.5 4.5v0zM709 32q0 -13 -9.5 -22.5t-22.5 -9.5h-330q-13 0 -22.5 9.5t-9.5 22.5v600q0 13 9.5 22.5t22.5 9.5h363v-632 h-1z" />
</svg>