<svg viewBox="0 0 256 256" xmlns="http://www.w3.org/2000/svg">
  <path transform="scale(1, -1) translate(0, -256)" fill="currentColor" d="M141 163h-25q-8 0 -14 -5.5t-6 -13.5v-25q0 -8 6 -13.5t14 -5.5h25q8 0 13.5 5.5t5.5 13.5v25q0 8 -5.5 13.5t-13.5 5.5zM146 119q0 -2 -1.5 -3.5t-4.5 -1.5h-25q-2 0 -3.5 1.5t-1.5 3.5v25q0 3 1.5 4.5t3.5 1.5h25q3 0 4.5 -2t1.5 -4v-25zM181 251q-3 0 -5 -2t-2 -5v-51 h-87q-8 0 -13.5 -5.5t-5.5 -13.5v-150q0 -8 5.5 -13.5t13.5 -5.5h83q7 0 13 5.5t6 13.5v220q-1 3 -3 5t-5 2zM174 24q0 -2 -1.5 -3.5t-3.5 -1.5h-82q-2 0 -3.5 1.5t-1.5 3.5v150q0 2 1.5 3.5t3.5 1.5h87v-155z" />
</svg>