<svg viewBox="0 0 256 256" xmlns="http://www.w3.org/2000/svg">
  <path transform="scale(1, -1) translate(0, -256)" fill="currentColor" d="M122 192q12 0 20.5 8.5t8.5 21t-8.5 21t-21 8.5t-21 -8.5t-8.5 -21t9 -21t21 -8.5zM122 237q6 0 10.5 -4.5t4.5 -11t-4.5 -11t-11 -4.5t-11 4.5t-4.5 11t4.5 11t11.5 4.5zM198 19h-38v30q0 2 -1 4l-27 40v26l29 -10l2 -1q2 0 4 1.5t3 4t-0.5 5t-3.5 3.5l-34 12v26 q0 4 -4 6l-19 9q-7 3 -14 1.5t-12 -7.5l-8 -8q-1 -2 -1 -5v-42q0 -3 2 -5.5t5 -2.5t5 2.5t2 5.5v39l6 7q1 2 4 2.5t6 -0.5l15 -7v-65l-34 -70q-1 0 -1 -1h-26q-3 0 -5.5 -2t-2.5 -5t2.5 -5.5t5.5 -2.5h140q3 0 5.5 2.5t2.5 5.5t-2.5 5t-5.5 2zM127 76l19 -29v-28h-46z" />
</svg>