<svg viewBox="0 0 1024 1024" xmlns="http://www.w3.org/2000/svg">
  <path transform="scale(1, -1) translate(0, -960)" fill="currentColor" d="M898 642h-87q11 13 17.5 28.5t6.5 35.5v62q0 40 -28 68t-68 28h-611q-40 0 -68 -28t-28 -68v-638q0 -40 28 -67.5t66 -27.5h772q39 0 66.5 28t27.5 67v417q0 40 -28 67.5t-66 27.5zM960 227h-173q-14 0 -23.5 10.5t-9.5 23.5v153q0 15 10 24.5t23 9.5h173v-221zM64 766 q0 27 19 45.5t45 18.5h613q26 0 45 -18.5t19 -45.5v-62q0 -26 -19 -45t-45 -19h-613q-26 0 -45 19t-19 45v62zM898 66h-772q-25 0 -43.5 18.5t-18.5 43.5v506q13 -11 29 -17.5t35 -6.5h771q27 0 45 -19t18 -44v-65h-175q-27 0 -46 -20t-19 -46v-154q0 -27 19.5 -46t45.5 -19 h173v-69q0 -25 -18.5 -43.5t-43.5 -18.5zM861 307q13 0 22.5 9.5t9.5 22.5t-9.5 22.5t-22.5 9.5t-22.5 -9.5t-9.5 -22.5q0 -14 9.5 -23t22.5 -9z" />
</svg>