<svg viewBox="0 0 256 256" xmlns="http://www.w3.org/2000/svg">
  <path transform="scale(1, -1) translate(0, -256)" fill="currentColor" d="M228 250h-200q-10 0 -16.5 -6.5t-6.5 -16.5v-198q0 -10 7 -16.5t16 -6.5h200q10 0 17 6.5t7 16.5v198q-1 10 -7.5 16.5t-16.5 6.5zM237 227v-92h-102v101h93q4 0 6.5 -2.5t2.5 -6.5zM28 236h93v-101h-102v92q0 4 2.5 6.5t6.5 2.5zM19 29v92h102v-101h-93q-4 0 -6.5 2.5 t-2.5 6.5zM228 20h-93v101h102v-93q0 -3 -2.5 -5.5t-6.5 -2.5zM169 166q3 0 5 2.5t2 5.5v12q0 3 -2 5.5t-5 2.5t-5 -2.5t-2 -5.5v-12q0 -3 2 -5.5t5 -2.5zM87 166q3 0 5 2.5t2 5.5v12q0 3 -2 5.5t-5 2.5t-5 -2.5t-2 -5.5v-12q0 -3 2 -5.5t5 -2.5zM169 90q-3 0 -5 -2t-2 -5 v-13q0 -3 2 -5t5 -2t5 2t2 5v13q0 3 -2 5t-5 2zM87 90q-3 0 -5 -2t-2 -5v-13q0 -3 2 -5t5 -2t5 2t2 5v13q0 3 -2 5t-5 2z" />
</svg>