<svg viewBox="0 0 1024 1024" xmlns="http://www.w3.org/2000/svg">
  <path transform="scale(1, -1) translate(0, -960)" fill="currentColor" d="M912 925h-800q-34 0 -57 -23.5t-23 -56.5v-794q0 -33 23 -56.5t57 -23.5h800q34 0 57 23.5t23 56.5v794q0 33 -23 56.5t-57 23.5zM960 845v-381h-432v429h384q20 0 34 -14t14 -34zM112 893h384v-429h-432v381q0 20 14 34t34 14zM64 51v381h432v-429h-384q-20 0 -34 14 t-14 34zM912 3h-384v429h432v-381q0 -20 -14 -34t-34 -14zM675 614q7 0 11.5 4.5t4.5 11.5v52q0 7 -4.5 11.5t-11.5 4.5t-11.5 -4.5t-4.5 -11.5v-52q0 -7 4.5 -11.5t11.5 -4.5zM349 614q7 0 11.5 4.5t4.5 11.5v52q0 7 -4.5 11.5t-11.5 4.5t-11.5 -4.5t-4.5 -11.5v-52 q0 -7 5 -11.5t11 -4.5zM675 283q-7 0 -11.5 -4.5t-4.5 -11.5v-51q0 -7 4.5 -11.5t11.5 -4.5t11.5 4.5t4.5 11.5v51q0 7 -5 11.5t-11 4.5zM349 283q-7 0 -11.5 -4.5t-4.5 -11.5v-51q0 -7 4.5 -11.5t11.5 -4.5t11.5 4.5t4.5 11.5v51q0 7 -4.5 11.5t-11.5 4.5z" />
</svg>