<svg viewBox="0 0 256 256" xmlns="http://www.w3.org/2000/svg">
  <path transform="scale(1, -1) translate(0, -256)" fill="currentColor" d="M218 170h-4v22q0 15 -12 24q-6 4 -13 5t-13 -1l-144 -50q-11 -1 -19 -9t-8 -20v-77q0 -12 8.5 -20.5t20.5 -8.5h184q12 0 20 8.5t8 20.5v77q0 12 -8.5 20.5t-19.5 8.5zM180 206q7 3 13.5 -1.5t6.5 -12.5v-22h-125zM218 49h-184q-6 0 -10.5 4.5t-4.5 10.5v77q0 6 4.5 10.5 t10.5 4.5h184q6 0 10 -4.5t4 -10.5v-11h-46q-12 0 -20.5 -8t-8.5 -20t8.5 -20t20.5 -8h46v-10q0 -6 -4 -10.5t-10 -4.5zM232 116v-29h-46q-6 0 -10.5 4.5t-4.5 10.5t4.5 10t10.5 4h46z" />
</svg>