<svg viewBox="0 0 256 256" xmlns="http://www.w3.org/2000/svg">
  <path transform="scale(1, -1) translate(0, -256)" fill="currentColor" d="M224 180h-16q4 6 4 12v16q0 11 -8 19t-19 8h-153q-11 0 -19 -8t-8 -19v-160q0 -11 8 -18.5t19 -7.5h193q11 0 19 7.5t8 18.5v105q-1 11 -9 19t-19 8zM237 76h-40q-2 0 -3.5 1.5t-1.5 3.5v39q0 2 1.5 3.5t3.5 1.5h40v-49zM19 208q0 5 4 8.5t9 3.5h153q6 0 9.5 -3.5 t3.5 -8.5v-16q0 -5 -3.5 -9t-9.5 -4h-153q-5 0 -9 4t-4 9v16zM224 36h-192q-6 0 -9.5 3.5t-3.5 8.5v121q6 -3 13 -3h192q6 0 9.5 -4t3.5 -9v-14h-40q-8 0 -13.5 -5.5t-5.5 -13.5v-39q0 -8 5.5 -13.5t13.5 -5.5h40v-14q0 -5 -3.5 -8.5t-9.5 -3.5zM215 93q4 0 6 2t2 5.5 t-2.5 6t-5.5 2.5t-5.5 -2.5t-2.5 -6t2.5 -5.5t5.5 -2z" />
</svg>