<svg viewBox="0 0 256 256" xmlns="http://www.w3.org/2000/svg">
  <path transform="scale(1, -1) translate(0, -256)" fill="currentColor" d="M237 218h-25q-16 0 -29.5 -7t-23.5 -19l-17 -24q-5 -7 -12.5 -11t-16.5 -4h-7q-21 0 -39.5 -10.5t-29 -29t-11.5 -39.5l-15 -10q-4 -3 -5.5 -7.5t0 -9t5 -7t8.5 -2.5h43q7 0 13 2.5t10 7.5h67q13 -10 30 -10h40q5 0 9 3t5 8t-1 9.5t-7 6.5l-28 13q22 32 22 72v3l13 6 l-1 -16q0 -3 2.5 -5t5.5 -2t5 2t2 5l2 61q0 6 -4 10t-10 4zM236 184v-4v-6l-22 -10q-3 0 -4.5 -2t-1.5 -4v-8q0 -20 -6.5 -38t-17.5 -33q-2 -3 -1.5 -6.5t3.5 -4.5l37 -16l-1 -1h-40q-13 0 -22 9q-2 2 -5 2h-73q-5 0 -6 -4q-5 -7 -13 -7h-44v1l19 12q3 2 3.5 4.5t-0.5 4.5 q0 18 8.5 33t24 24t32.5 9h7q12 0 23 5.5t18 15.5l17 23q7 10 18 15.5t23 5.5h25z" />
</svg>