<svg viewBox="0 0 1024 1024" xmlns="http://www.w3.org/2000/svg">
  <path transform="scale(1, -1) translate(0, -960)" fill="currentColor" d="M947 797h-99q-60 0 -113.5 -27.5t-88.5 -75.5l-67 -92q-23 -32 -56 -49t-72 -17h-27q-63 0 -119 -24q-55 -24 -96.5 -65.5t-65.5 -96.5q-25 -56 -25 -120v-2v-2l-67 -45q-13 -9 -17.5 -22.5t0.5 -28.5q4 -16 15.5 -24t27.5 -8h174q25 0 48 11t37 32h278q24 -22 54 -32.5 t62 -10.5h160q16 0 28 9.5t15 25.5q2 15 -4 30t-22 21l-126 58q45 63 69.5 139t24.5 155v21q13 5 34.5 14.5t40.5 18.5q-1 -20 -1 -40.5v-40.5q0 -7 4.5 -11.5t11.5 -4.5t11.5 4.5t4.5 11.5q0 26 1 53t2 52v0.5v1.5q1 16 1.5 30t1.5 28q3 22 4 43.5t1 34.5q0 19 -13.5 32 t-31.5 13v0zM957 674q-1 -11 -1.5 -23.5t-1.5 -24.5q-33 -15 -62.5 -28t-35.5 -14t-9.5 -5.5t-3.5 -10.5v-32q0 -79 -25.5 -154t-75.5 -137q-2 -3 -3 -7t0 -8q1 -3 3.5 -5.5t6.5 -5.5l144 -65q6 -3 7 -8.5t1 -6.5q0 -2 -3 -5.5t-10 -3.5h-160q-28 0 -53 10t-45 28 q-2 2 -4.5 3.5t-6.5 1.5h-293q-4 0 -8 -2.5t-6 -5.5q-10 -17 -26.5 -26t-34.5 -9h-174q-7 0 -9.5 3.5t-3.5 5.5q-1 3 -0.5 7t5.5 8l77 51q4 3 6 8.5t0 10.5q0 1 -1 2.5t-1 2.5q0 56 22 106t59 87t87 59q50 21 106 21h27q46 0 86.5 21t67.5 58l67 93q30 42 76.5 65.5 t97.5 23.5h100q4 0 8 -4t4 -9q2 -12 1 -32t-2 -44v0z" />
</svg>