<svg viewBox="0 0 256 256" xmlns="http://www.w3.org/2000/svg">
  <path transform="scale(1, -1) translate(0, -256)" fill="currentColor" d="M249 164l-29 29l18 37q2 4 -1 8q-1 1 -3.5 1.5t-4.5 -0.5l-36 -19l-29 29q-1 2 -3.5 2.5t-4.5 -0.5t-3 -3.5t0 -4.5l6 -40l-36 -18q-2 -1 -3 -3t0 -4q1 -5 6 -6l31 -6l-150 -149q-2 -2 -2 -5t2 -5t5 -2t5 2l149 149l5 -32q0 -4 6 -6h1q2 0 4 1.5t2 2.5l19 37l40 -7 q2 0 4 1t3 3q3 5 -1 8zM200 174q-5 0 -7 -4l-11 -22l-4 26l-3 3l-27 5l22 10q2 1 3 3.5t1 4.5l-4 24l17 -18q2 -1 4 -1.5t4 0.5l22 11l-11 -22q-2 -4 1 -8l17 -17z" />
</svg>