<svg viewBox="0 0 1024 1024" xmlns="http://www.w3.org/2000/svg">
  <path transform="scale(1, -1) translate(0, -960)" fill="currentColor" d="M987 584l-121 122l78 153q2 5 1 10.5t-4 8.5q-4 4 -9.5 4t-9.5 -2l-152 -78l-122 121q-4 4 -9 5t-10 -2q-5 -2 -7 -6.5t-1 -9.5l27 -169l-152 -79q-5 -2 -7 -6.5t-1 -9.5q1 -4 4.5 -8t8.5 -4l149 -24l-613 -615q-5 -5 -5 -11t5 -11q2 -3 5.5 -4t5.5 -1t5.5 1t5.5 4 l613 613l24 -151q1 -5 4.5 -9t8.5 -4h1.5h1.5q5 0 8.5 2.5t5.5 5.5l79 152l169 -27q5 -1 10 1t6 7q3 7 2 12t-5 9v0zM797 618q-5 1 -10 -1.5t-6 -6.5l-61 -120l-21 132v2l-1 2v0v0q-2 3 -5 6t-8 3l-131 21l118 61q5 2 7 6.5t1 9.5l-21 133l95 -95q3 -3 8.5 -4t10.5 1l118 61 l-59 -119q-2 -4 -1 -9.5t4 -9.5l95 -94l-133 21v0z" />
</svg>