<svg viewBox="0 0 1024 1024" xmlns="http://www.w3.org/2000/svg">
  <path transform="scale(1, -1) translate(0, -960)" fill="currentColor" d="M904 888h-784q-36 0 -62 -26t-26 -62v-776q0 -7 4.5 -11.5t11.5 -4.5t11.5 4.5t4.5 11.5v157h896v-157q0 -7 4.5 -11.5t11.5 -4.5t11.5 4.5t4.5 11.5v776q0 36 -26 62t-62 26zM120 856h485v-323h-541v267q0 23 16.5 39.5t39.5 16.5zM64 501h541v-288h-541v288v0zM637 213 v643h265q24 0 40 -16.5t16 -39.5v-587h-321zM818 549h-48q-8 0 -12 -4.5t-4 -11.5t4 -11.5t12 -4.5h48q7 0 11.5 4.5t4.5 11.5t-5 11.5t-11 4.5z" />
</svg>