<svg viewBox="0 0 256 256" xmlns="http://www.w3.org/2000/svg">
  <path transform="scale(1, -1) translate(0, -256)" fill="currentColor" d="M251 147v19q0 6 -3.5 12t-8.5 9l-99 59q-5 4 -12 4t-13 -4l-98 -59q-6 -4 -9 -9.5t-3 -11.5v-135q0 -10 7 -17.5t17 -7.5h198q10 0 17 7.5t7 17.5v116v0v0v0v0zM24 175l99 59q3 2 5.5 2t4.5 -2l99 -59q5 -3 5 -9v-12h-218v12q0 6 5 9zM96 76h65v-27h-65v27zM160 90h-64 v12q0 2 1.5 3.5t3.5 1.5h55q2 0 3.5 -1.5t1.5 -3.5v-12h-1zM96 20v15h65v-15h-65zM226 20h-52v82q0 8 -5.5 13.5t-13.5 5.5h-55q-7 0 -13 -5.5t-6 -13.5v-81h-52q-4 0 -7 3t-3 7v109h218v-109q0 -4 -3 -7.5t-8 -3.5zM88 174h80q3 0 5 2.5t2 5.5t-2 5t-5 2h-80q-3 0 -5 -2 t-2 -5t2.5 -5.5t4.5 -2.5z" />
</svg>