<svg viewBox="0 0 1024 1024" xmlns="http://www.w3.org/2000/svg">
  <path transform="scale(1, -1) translate(0, -960)" fill="currentColor" d="M992 523v77q0 23 -11 42.5t-31 31.5l-393 236q-21 12 -44.5 12t-43.5 -12l-395 -236q-20 -12 -31 -31.5t-11 -42.5v-541q0 -36 25 -61t60 -25h790q36 0 60.5 25t24.5 60v465v0v0v0v0v0zM90 646l395 237q6 4 13 6t14 2t14 -2t13 -6l394 -237q12 -7 18.5 -19.5t6.5 -26.5 v-61h-894v61q0 14 7 26.5t19 19.5zM370 251h284v-129h-284v129v0zM654 283h-284v61q0 13 9 22.5t23 9.5h220q14 0 23 -9.5t9 -22.5v-61zM370 6v82h284v-82h-284v0zM906 6h-220v338q0 26 -18.5 45t-45.5 19h-220q-27 0 -45.5 -19t-18.5 -45v-338h-221q-22 0 -37.5 16 t-15.5 39v448h896v-448q0 -23 -16 -39t-38 -16v0zM354 645h316q8 0 12 4.5t4 11.5t-4 11.5t-12 4.5h-316q-8 0 -12 -4.5t-4 -11.5t5 -11.5t11 -4.5v0z" />
</svg>