<svg viewBox="0 0 256 256" xmlns="http://www.w3.org/2000/svg">
  <path transform="scale(1, -1) translate(0, -256)" fill="currentColor" d="M128 188q13 0 22 9.5t9 22t-9 22t-22 9.5t-22 -9t-9 -22t9 -22.5t22 -9.5zM128 237q7 0 12 -5t5 -12.5t-5 -12.5t-12 -5t-12 5t-5 12.5t5 12.5t12 5zM174 171h-92q-8 0 -14 6t-6 14v50q0 3 -2 5t-5 2t-5 -2t-2 -5v-50q0 -14 10 -24t24 -10h5v-83q-7 -5 -11.5 -13.5 t-4.5 -18.5v-30q0 -3 2 -5t5 -2t5.5 2t2.5 5v30q0 11 7.5 18.5t17.5 7.5h34q11 0 18.5 -7.5t7.5 -18.5v-30q0 -3 2 -5t5 -2t5 2t2 5v30q0 10 -4 18.5t-11 13.5v83h4q9 0 14.5 -6t5.5 -14v-51q0 -3 2.5 -5t5.5 -2t5 2t2 5v50q-1 15 -11 25t-24 10zM155 81q-5 1 -10 1h-34 q-5 0 -10 -1v76h53v-76h1z" />
</svg>