<svg viewBox="0 0 1024 1024" xmlns="http://www.w3.org/2000/svg">
  <path transform="scale(1, -1) translate(0, -960)" fill="currentColor" d="M512 701q47 0 80.5 33.5t33.5 79.5q0 47 -33.5 80.5t-80.5 33.5t-80.5 -33.5t-33.5 -80.5q0 -46 33.5 -79.5t80.5 -33.5zM512 896q34 0 58 -24t24 -58q0 -33 -24 -57t-58 -24t-58 24t-24 57q0 34 24 58t58 24zM694 606h-364q-39 0 -66 27.5t-27 65.5v200q0 7 -4.5 11.5 t-11.5 4.5t-11.5 -4.5t-4.5 -11.5v-200q0 -51 36.5 -88t88.5 -37h32v-339q0 -2 1 -4.5t2 -3.5q-30 -19 -48 -51t-18 -70v-122q0 -7 4.5 -11.5t11.5 -4.5t11.5 4.5t4.5 11.5v122q0 46 33.5 79.5t80.5 33.5h136q47 0 80 -33.5t33 -79.5v-122q0 -7 4.5 -11.5t11.5 -4.5 q8 0 12 4.5t4 11.5v122q0 38 -17.5 70t-47.5 51q1 3 2 4.5t1 3.5v339h32q38 0 65.5 -27t27.5 -65v-202q0 -7 4.5 -11.5t11.5 -4.5t11.5 4.5t4.5 11.5v202q-1 51 -38 87.5t-89 36.5v0zM632 242q-12 4 -25 6.5t-26 2.5h-136q-13 0 -26 -2.5t-25 -6.5v332h238v-332z" />
</svg>