<svg viewBox="0 0 1024 1024" xmlns="http://www.w3.org/2000/svg">
  <path transform="scale(1, -1) translate(0, -960)" fill="currentColor" d="M968 280l-355 483q-18 24 -44.5 37.5t-56.5 13.5t-56.5 -13.5t-44.5 -37.5l-355 -483q-22 -29 -24.5 -64t13.5 -67q15 -33 45.5 -51t66.5 -18h709q36 0 66 18t46 51q16 32 13 67t-23 64v0zM950 165q-12 -24 -34 -37.5t-49 -13.5h-709q-26 0 -48.5 13.5t-34.5 37.5 t-9.5 50t17.5 47l354 484q13 18 32.5 28t42.5 10t42.5 -10t32.5 -28l354 -484q17 -22 19 -47.5t-10 -49.5v0zM512 365q7 0 11.5 4.5t4.5 11.5v179q0 7 -4.5 11.5t-11.5 4.5t-11.5 -4.5t-4.5 -11.5v-181q0 -6 4.5 -10t11.5 -4zM512 299q-19 0 -32.5 -13.5t-13.5 -32.5 t13.5 -33t32.5 -14t32.5 14t13.5 33t-13.5 32.5t-32.5 13.5z" />
</svg>