<svg viewBox="0 0 256 256" xmlns="http://www.w3.org/2000/svg">
  <path transform="scale(1, -1) translate(0, -256)" fill="currentColor" d="M220 251h-184q-8 0 -13.5 -5.5t-5.5 -13.5v-208q0 -8 5.5 -13.5t13.5 -5.5h184q8 0 13.5 5.5t5.5 13.5v208q0 8 -5.5 13.5t-13.5 5.5zM36 237h184q2 0 3.5 -1.5t1.5 -3.5v-46h-194v46q0 2 1.5 3.5t3.5 1.5zM220 19h-184q-2 0 -3.5 1.5t-1.5 3.5v148h194v-148 q0 -2 -1.5 -3.5t-3.5 -1.5zM128 156q-16 0 -29 -8t-21 -21t-8 -29t8 -29t21 -21t29 -8t29 8t21 21t8 29t-8 29t-21 21t-29 8zM128 54q-18 0 -31 12.5t-13 31t13 31.5t31 13t31 -13t13 -31.5t-13 -31t-31 -12.5zM190 200q5 0 8 3.5t3 8t-3.5 7.5t-8 3t-7.5 -3t-3 -7.5t3.5 -8 t7.5 -3.5zM128 123q-11 0 -18 -7.5t-7 -18t7.5 -18t17.5 -7.5t17.5 7.5t7.5 18t-7 18t-18 7.5zM128 87q-5 0 -8 3t-3 8t3 8t8 3t8 -3t3 -8t-3 -8t-8 -3z" />
</svg>