<svg viewBox="0 0 1024 1024" xmlns="http://www.w3.org/2000/svg">
  <path transform="scale(1, -1) translate(0, -960)" fill="currentColor" d="M741 523v210q0 26 -19 45t-45 19h-80v99h51q7 0 11.5 4.5t4.5 11.5t-4.5 11.5t-11.5 4.5h-272q-7 0 -11.5 -4.5t-4.5 -11.5t4.5 -11.5t11.5 -4.5h51v-99h-80q-26 0 -45 -19t-19 -45v-210q0 -25 17 -42.5t41 -21.5v-155q-24 -2 -41 -20.5t-17 -43.5v-208q0 -26 19 -45 t45 -19h331q27 0 45.5 19t18.5 45v210q0 25 -16.5 42.5t-40.5 21.5v155q24 2 40 20t16 42zM459 896h106v-99h-106v99v0zM315 523v210q0 13 9.5 22.5t22.5 9.5h331q14 0 23 -9.5t9 -22.5v-210q0 -13 -9 -22.5t-23 -9.5h-331q-13 0 -22.5 9.5t-9.5 22.5zM371 306v153h280v-153 h-280v0zM709 242v-210q0 -13 -9.5 -22.5t-22.5 -9.5h-330q-13 0 -22.5 9.5t-9.5 22.5v210q0 13 9.5 22.5t22.5 9.5h331q12 0 21.5 -9.5t9.5 -22.5v0z" />
</svg>