<svg viewBox="0 0 256 256" xmlns="http://www.w3.org/2000/svg">
  <path transform="scale(1, -1) translate(0, -256)" fill="currentColor" d="M73 236q-6 0 -9 -5q-20 -22 -35 -45q-22 -33 -22 -51.5t9 -34t24 -24t33 -8.5t33.5 8.5t24.5 24t9 34t-22 51.5q-15 22 -35 46q-5 4 -10 4zM73 82q-21 0 -36.5 15t-15.5 37q0 14 16 40q14 22 36 47q22 -25 36 -47q17 -26 17 -40q-1 -22 -16 -37t-37 -15zM212 158 q16 0 26.5 11t10.5 26.5t-27 50.5q-4 5 -10 5t-10 -5q-27 -34 -27 -50t11 -27t26 -11zM212 236q11 -14 17 -25t6 -16q0 -9 -6.5 -16t-16 -7t-16 7t-6.5 16q-1 5 5.5 16t16.5 25zM196 126q-6 0 -10 -4q-15 -18 -24 -34q-14 -22 -14 -35q0 -20 14 -34t34 -14t34 14t14 35 t-38 68q-4 4 -10 4zM196 19q-14 0 -24 10t-10 24q0 8 9 23.5t25 34.5q15 -19 24.5 -34.5t9.5 -23.5q0 -14 -10 -24t-24 -10z" />
</svg>