<svg viewBox="0 0 1024 1024" xmlns="http://www.w3.org/2000/svg">
  <path transform="scale(1, -1) translate(0, -960)" fill="currentColor" d="M293 867v0q-9 0 -16 -3.5t-13 -9.5q-25 -28 -63 -76t-74 -102t-61 -108q-26 -54 -26 -96q0 -52 20 -98t54.5 -80.5t80.5 -54.5t98 -20t98 20t80.5 54.5t54.5 80.5t20 98q0 42 -26 96q-25 54 -61 108t-74 102t-63 76q-6 6 -13.5 9.5t-15.5 3.5zM293 250q-46 0 -86 17 t-70 47t-48 71q-17 40 -17 85q0 32 19 75q19 44 50 92.5t69 99.5q39 50 78 95q1 1 2.5 1.5t2.5 0.5t2 -0.5l3 -1.5q39 -45 77 -95q39 -51 69.5 -99.5t49.5 -92.5q20 -43 20 -75q0 -45 -18 -85q-17 -41 -47 -71t-70 -47q-41 -17 -86 -17zM850 581q56 0 96 39.5t40 96.5 q0 38 -35 94.5t-71 102.5q-6 7 -14 10.5t-16 3.5q-9 0 -17 -3.5t-14 -10.5q-36 -46 -70.5 -102.5t-34.5 -94.5q0 -57 39.5 -96.5t96.5 -39.5zM845 894q1 2 2 2h3h2t2 -2q47 -58 73.5 -105.5t26.5 -71.5q0 -43 -30.5 -73.5t-73.5 -30.5q-44 0 -74 30.5t-30 73.5q0 24 26 70.5 t73 106.5zM782 429v0q-8 0 -16 -3.5t-12 -11.5q-21 -25 -48 -59q-26 -34 -49 -71t-38 -73q-16 -36 -16 -64q0 -74 52.5 -127.5t126.5 -53.5q75 0 127.5 53t52.5 128q0 28 -16 63q-16 36 -39 72.5t-49 71.5t-47 60q-5 8 -12 11.5t-17 3.5v0zM782 0q-61 0 -104 44t-43 105 q0 35 37.5 100t105.5 146q1 1 2 1.5t2 0.5q2 0 3 -0.5t2 -1.5q67 -80 105 -145.5t38 -100.5q1 -61 -42.5 -105t-105.5 -44v0z" />
</svg>