<svg viewBox="0 0 1024 1024" xmlns="http://www.w3.org/2000/svg">
  <path transform="scale(1, -1) translate(0, -960)" fill="currentColor" d="M800 120v0v0v2v1l62 63q5 4 5 10.5t-5 11.5q-4 5 -10.5 5t-11.5 -5l-70 -70h-223v174q53 2 100 23q46 21 81 56.5t55 82.5t20 100v18v0v0v0v0v21q0 18 12.5 29.5t29.5 11.5q7 0 11.5 4.5t4.5 11.5q0 8 -4.5 12t-11.5 4q-31 0 -52.5 -21.5t-21.5 -51.5v-5h-62v14 q0 54 38.5 92t90.5 38q8 0 12 4.5t4 11.5t-4 11.5t-12 4.5q-67 0 -114 -48t-47 -114v-14h-195v114q0 33 -20 59.5t-51 37.5l55 56q4 5 4 11.5t-4 11.5q-5 4 -11.5 4t-11.5 -4l-48 -50v64q0 7 -4.5 11.5t-11.5 4.5t-11.5 -4.5t-4.5 -11.5v-64l-48 50q-5 4 -11 4t-11 -4 q-5 -5 -5 -11.5t5 -11.5l54 -56q-27 -9 -46.5 -32.5t-22.5 -53.5h-59q-7 0 -11.5 -4.5t-4.5 -11.5t4.5 -11.5t11.5 -4.5h58v-127q0 -51 18 -97q19 -45 51 -80.5t76 -57.5q43 -22 93 -27v-176h-304l48 48q5 5 5 11.5t-5 10.5q-5 5 -11 5t-11 -5l-75 -75q-5 -5 -5 -11t5 -11 l75 -75q2 -3 5.5 -4t5.5 -1t5.5 1t5.5 4q5 4 5 10.5t-5 11.5l-48 48h304v-120q0 -7 4.5 -11.5t11.5 -4.5t11.5 4.5t4.5 11.5v122h223l70 -71q2 -2 5.5 -3.5t5.5 -1.5q3 0 6 1.5t5 3.5q5 5 5 11.5t-5 11.5l-62 62v0zM309 574v149q0 29 20.5 50t49.5 21t50 -21t21 -50v-129 q0 -4 1 -6.5t3 -5.5q3 -2 5.5 -3t6.5 -1h304v-2q0 -48 -19 -90q-18 -42 -49.5 -73t-72.5 -49q-42 -18 -90 -18q-47 -1 -89 17q-42 17 -73.5 48t-49.5 73t-18 90v0z" />
</svg>