<svg viewBox="0 0 1024 1024" xmlns="http://www.w3.org/2000/svg">
  <path transform="scale(1, -1) translate(0, -960)" fill="currentColor" d="M915 525q0 83 -32 157q-31 73 -86 128t-128 86q-74 32 -157 32v0v0q-40 0 -79 -8q-39 -7 -75.5 -22t-69.5 -37q-33 -23 -61 -51q-57 -58 -87.5 -131.5t-30.5 -153.5q0 -40 7 -79q8 -39 23 -75.5t37 -69.5t51 -61q22 -22 46 -40t50 -32l-49 -130q-9 -16 -3.5 -35t22.5 -29 q7 -3 16 -4.5t17 0.5q47 10 93 15t92.5 5t93.5 -5q46 -5 93 -15q2 0 4.5 -1t4.5 -1q7 0 13.5 2t12.5 6q8 5 13 13t8 17q1 9 0.5 17t-5.5 15l-50 130q49 25 89 62q39 37 67.5 83t44.5 100q15 54 15 112v0zM722 26l1 -2q1 -2 1.5 -5.5t0.5 -5.5q-1 -4 -2.5 -6.5t-4.5 -3.5 q-3 -2 -6.5 -2.5t-7.5 -0.5q-48 10 -96 15t-96.5 5t-96.5 -5t-95 -15q-2 -1 -5.5 -0.5t-5.5 2.5q-6 3 -8 9.5t1 12.5l50 130q37 -16 77.5 -25t82.5 -9v0v0v0q42 0 82.5 8.5t77.5 25.5l50 -128v0zM512 152v0v0q-74 0 -142 28t-120 81q-53 53 -81 120.5t-28 141.5 q0 75 28 142.5t81 120.5q52 54 120 82t142 28v0v0q77 0 144 -29q68 -29 118.5 -79.5t79.5 -118.5q29 -67 29 -144t-29 -145q-29 -67 -79.5 -117.5t-118.5 -80.5q-67 -29 -144 -30zM512 688q-67 0 -115 -48t-48 -115t48 -115t115 -48v0q67 0 115 48t48 115t-48 115t-115 48z M512 394q-54 0 -92.5 38.5t-38.5 92.5t38.5 92.5t92.5 38.5t92.5 -38.5t38.5 -92.5t-38.5 -92.5t-92.5 -38.5zM482 763h59q7 0 11.5 4.5t4.5 11.5t-4.5 11.5t-11.5 4.5h-59q-8 0 -12 -4.5t-4 -11.5t5 -11.5t11 -4.5v0z" />
</svg>