<svg viewBox="0 0 256 256" xmlns="http://www.w3.org/2000/svg">
  <path transform="scale(1, -1) translate(0, -256)" fill="currentColor" d="M232 147q0 28 -14 52t-38 38t-52 14t-52 -14t-38 -38t-14 -52q0 -32 17 -57.5t45 -37.5l-6 -39q-1 -3 1 -5.5t5 -2.5h86q3 0 5 2.5t2 5.5l-7 40q27 12 43.5 37.5t16.5 56.5zM128 237q23 0 43 -11t32.5 -30t14.5 -42h-47q-3 15 -15 25.5t-28 10.5t-28 -10.5t-15 -25.5h-47 q2 23 14.5 42t32.5 30t43 11zM158 147q0 -12 -9 -21t-21 -9t-21 9t-9 21t9 20.5t21 8.5t21 -8.5t9 -20.5zM164 19h-69l5 28q15 -4 28 -4q16 0 31 5zM128 57q-23 0 -43 11t-32.5 30t-14.5 42h47q3 -16 15 -26t28 -10t28 10.5t15 25.5h47q-2 -23 -14.5 -42t-32.5 -30t-43 -11z " />
</svg>