<svg viewBox="0 0 256 256" xmlns="http://www.w3.org/2000/svg">
  <path transform="scale(1, -1) translate(0, -256)" fill="currentColor" d="M232 147q0 28 -14 52t-38 38t-52 14q-21 0 -40 -8t-33.5 -22.5t-22.5 -33.5t-8 -40t8 -40t22 -33q10 -10 23 -18l-12 -29q-3 -6 -1 -11.5t7.5 -8.5t10.5 -2q46 10 92 0h3q4 0 8.5 2.5t5.5 8.5t-1 11l-12 30q25 13 39.5 37.5t14.5 52.5zM178 21v-1v-1h-1q-49 11 -98 0h-1 v1l12 30q18 -7 37.5 -7t38.5 7zM128 57q-18 0 -34.5 7t-29 19.5t-19.5 29t-7 34.5t7 34.5t19.5 29t29 19.5t34.5 7q24 0 45 -12t33 -33t12 -45t-12 -45t-33 -33t-45 -12zM128 191q-19 0 -31.5 -13t-12.5 -31t13 -30.5t31 -12.5t31 12.5t13 30.5t-13 31t-31 13zM128 117 q-12 0 -21 9t-9 21t9 21t21.5 9t21 -8.5t8.5 -21t-9 -21.5t-21 -9zM120 204h15q3 0 5 2t2 5t-2 5t-5 2h-15q-3 0 -5 -2t-2 -5t2.5 -5t4.5 -2z" />
</svg>