<svg viewBox="0 0 1024 1024" xmlns="http://www.w3.org/2000/svg">
  <path transform="scale(1, -1) translate(0, -960)" fill="currentColor" d="M917 523q0 84 -32 158t-87 128.5t-129 86.5t-157 32t-157 -32q-74 -31 -129 -86t-87 -129t-32 -158q0 -63 19 -122q19 -58 52.5 -106.5t79.5 -86.5q47 -37 102 -59q-1 -1 -2.5 -3.5t-2.5 -4.5l-27 -154q-1 -3 0 -6.5t3 -6.5l6 -4t7 -2h344q4 0 7 1.5t6 4.5q2 3 3 6.5 t0 6.5l-27 154q-1 3 -3 6t-5 5q54 23 100 60q46 38 78.5 86t51.5 106q18 57 18 119zM512 896q75 0 141 -28t116.5 -76t80.5 -113t33 -140h-195q-5 0 -8.5 -2.5t-5.5 -6.5q-3 64 -50 109.5t-112 45.5q-64 0 -110 -42.5t-52 -104.5q-1 0 -2 0.5t-2 0.5h-205q3 75 33 140 t80 113t117 76q66 28 141 28v0zM642 523q0 -54 -38 -91.5t-92 -37.5t-92 37.5t-38 91.5t38 92t92 38q54 1 92 -37.5t38 -92.5zM669 0h-304l24 134v3v1q29 -10 60 -15t63 -5q35 0 69 6t65 17q0 -1 -0.5 -3.5t0.5 -4.5zM512 152q-75 0 -141 28t-116.5 76t-80.5 113t-33 140 h206h2.5t2.5 1q6 -61 52 -104t110 -43t111.5 45.5t49.5 109.5q3 -3 6.5 -6t8.5 -3h195q-4 -75 -34 -140q-31 -65 -81 -113t-117 -76q-66 -28 -141 -28v0z" />
</svg>