<svg viewBox="0 0 256 256" xmlns="http://www.w3.org/2000/svg">
  <path transform="scale(1, -1) translate(0, -256)" fill="currentColor" d="M82 178l-5 -9l-4 8q-2 4 -7 4t-7 -4l-4 -8l-5 9q-1 3 -4 4t-5.5 -0.5t-3.5 -4t1 -5.5l10 -20q1 -4 6.5 -4t7.5 4l4 8l4 -8q2 -4 7.5 -4t6.5 4l10 20q2 3 1 5.5t-3.5 4t-5.5 0.5t-4 -4zM153 182q-3 1 -5.5 0t-3.5 -4l-5 -9l-4 8q-2 4 -7 4t-7 -4l-4 -8l-5 9q-1 3 -4 4 t-5.5 -0.5t-3.5 -4t1 -5.5l10 -20q1 -4 6.5 -4t7.5 4l4 8l4 -8q2 -4 7.5 -4t6.5 4l10 20q2 3 1 5.5t-4 4.5zM186 152l4 8l4 -8q2 -4 7.5 -4t6.5 4l10 20q2 3 1 5.5t-4 4t-5.5 0.5t-3.5 -4l-5 -9l-4 8q-2 4 -7 4t-7 -4l-4 -8l-5 9q-1 3 -4 4t-5.5 -0.5t-3.5 -4t1 -5.5l10 -20 q1 -4 7 -4q2 -1 4 0.5t3 3.5zM234 225h-212q-7 0 -12 -5.5t-5 -12.5v-85q0 -7 5 -12t12 -5h127q3 0 5 2t2 5t-2 5t-5 2h-127q-1 0 -2 1t-1 3v84q0 2 1 3t2 1h212q1 0 2 -1t1 -3v-85q0 -1 -1 -2t-3 -1t-4.5 -2t-2.5 -5t2.5 -5.5t5.5 -2.5q7 0 12 5.5t5 12.5v85q0 7 -5 12.5 t-12 5.5zM244 79l-56 28q-7 4 -12 -1q-2 -3 -2.5 -6t1.5 -6l28 -56q2 -3 4.5 -5t5.5 -2h1q5 0 8 6l7 16l17 7q5 3 5 9.5t-7 9.5zM218 64l-6 -14l-19 39l39 -19z" />
</svg>