<svg viewBox="0 0 1024 1024" xmlns="http://www.w3.org/2000/svg">
  <path transform="scale(1, -1) translate(0, -960)" fill="currentColor" d="M928 830h-832q-26 0 -45 -18.5t-19 -45.5v-638q0 -26 19 -45t45 -19h832q26 0 45 19t19 45v638q0 27 -19 45.5t-45 18.5zM96 798h832q13 0 22.5 -9t9.5 -23v-118h-896v118q0 14 9.5 23t22.5 9zM928 98h-832q-13 0 -22.5 9t-9.5 23v486h896v-488q0 -12 -9.5 -21t-22.5 -9z M490 430h89q7 0 11.5 4.5t4.5 11.5q0 8 -4.5 12t-11.5 4h-37v24q0 8 -4 12t-12 4q-7 0 -11.5 -4t-4.5 -12v-24h-19q-25 0 -43 -17.5t-18 -42.5v-5q0 -25 18 -43t43 -18h45q12 0 20.5 -8.5t8.5 -20.5v-5q0 -12 -8.5 -20t-20.5 -8h-90q-7 0 -11.5 -4.5t-4.5 -11.5 q0 -8 4.5 -12t11.5 -4h64v-24q0 -8 4.5 -12t11.5 -4q8 0 12 4t4 12v24q23 2 38 19t15 40v5q0 25 -17.5 42.5t-43.5 17.5h-44q-12 0 -20.5 8.5t-8.5 20.5v5q0 13 8.5 21.5t20.5 8.5v0z" />
</svg>