<svg viewBox="0 0 1024 1024" xmlns="http://www.w3.org/2000/svg">
  <path transform="scale(1, -1) translate(0, -960)" fill="currentColor" d="M339 645l-30 -61l-26 53q-2 5 -7.5 8t-9.5 3q-5 0 -10.5 -3t-7.5 -8l-26 -53l-30 61q-2 6 -8.5 8t-12.5 -2q-6 -2 -8 -8.5t2 -12.5l40 -81q2 -5 7.5 -8t9.5 -3q6 0 11 3t7 8l26 53l25 -53q3 -5 8 -8t10 -3q6 0 10.5 3t6.5 8l40 81q3 6 1 12.5t-7 8.5q-6 4 -12 2t-9 -8v0z M608 653q-6 2 -12 0t-9 -7l-30 -60l-26 52q-2 5 -7.5 8.5t-9.5 3.5q-6 0 -11 -3.5t-7 -8.5l-26 -52l-30 60q-2 6 -8.5 8t-12.5 -1t-8 -9t2 -12l40 -82q2 -4 7.5 -7.5t9.5 -3.5q6 0 11 3.5t7 7.5l26 53l27 -53q2 -4 7.5 -7.5t9.5 -3.5v0v0q6 0 11 3.5t7 7.5l40 82q2 5 0 11 t-8 10v0zM734 549l26 53l26 -53q2 -5 7 -8t10 -3t10 3t8 8l40 81q2 6 0 12.5t-8 8.5q-6 3 -12.5 1t-8.5 -7l-30 -61l-26 53q-2 5 -7.5 8t-10.5 3q-6 0 -10.5 -3t-6.5 -8l-26 -53l-30 61q-3 6 -9 8t-12 -2q-6 -2 -8 -8.5t0 -12.5l40 -81q2 -5 7.5 -8t10.5 -3q7 0 12.5 3 t7.5 8v0zM934 824h-844q-24 0 -41 -17t-17 -42v-339q0 -24 17 -42t41 -18h507q7 0 11.5 4.5t4.5 11.5q0 8 -4.5 12t-11.5 4h-507q-11 2 -18.5 9.5t-7.5 18.5v339q0 11 7.5 19t18.5 8h846q11 0 18.5 -7.5t7.5 -19.5v-339q0 -11 -8 -19.5t-18 -8.5q-7 0 -11.5 -4t-4.5 -12 q0 -7 4.5 -11.5t11.5 -4.5q24 0 41 17t17 43v339q-2 24 -19 41.5t-41 17.5zM973 240l-226 114q-8 4 -17 3t-15 -7t-7 -14.5t2 -17.5l114 -225q5 -9 12.5 -14t16.5 -5v0v0q7 0 13.5 4t8.5 10l31 69l68 30q8 4 11.5 9.5t3.5 13.5q2 9 -3 17.5t-13 12.5v0zM883 181l-32 -72 l-105 209l209 -105z" />
</svg>