<svg viewBox="0 0 256 256" xmlns="http://www.w3.org/2000/svg">
  <path transform="scale(1, -1) translate(0, -256)" fill="currentColor" d="M232 231h-208q-8 0 -13.5 -5.5t-5.5 -13.5v-123q0 -8 5.5 -13.5t13.5 -5.5h97v-32h-20q-3 0 -5 -2t-2 -5t2 -5t5 -2h54q3 0 5 2t2 5t-2 5t-5 2h-20v32h97q8 0 13.5 5.5t5.5 13.5v123q0 8 -5.5 13.5t-13.5 5.5zM237 89q0 -2 -1.5 -3.5t-3.5 -1.5h-208q-2 0 -3.5 1.5 t-1.5 3.5v123q0 2 1.5 3.5t3.5 1.5h208q2 0 3.5 -1.5t1.5 -3.5v-123zM120 154l-35 26q-2 2 -4.5 2t-4.5 -2l-34 -26q-3 -2 -3 -5t1.5 -5t4.5 -2.5t5 1.5l5 3v-22q0 -3 2 -5t5 -2h38q3 0 5 2t2 5v22l5 -3q2 -2 4.5 -2t4.5 3t1.5 5.5t-2.5 4.5zM93 132h-25v25l12 9l12 -9v-25 h1zM150 177h35q3 0 5 2t2 5t-2 5.5t-5 2.5h-35q-3 0 -5 -2.5t-2 -5.5t2 -5t5 -2zM202 156h-52q-3 0 -5 -2t-2 -5t2 -5t5 -2h52q3 0 5 2t2 5t-2 5t-5 2zM184 122h-34q-3 0 -5 -2.5t-2 -5.5t2 -5t5 -2h34q3 0 5.5 2t2.5 5t-2.5 5.5t-5.5 2.5z" />
</svg>