<svg viewBox="0 0 1024 1024" xmlns="http://www.w3.org/2000/svg">
  <path transform="scale(1, -1) translate(0, -960)" fill="currentColor" d="M280 499l-48 -70l-43 62q-4 5 -8.5 7.5t-10.5 2.5v0v0q-6 0 -11 -2.5t-9 -7.5l-43 -62l-48 70q-3 6 -9.5 7.5t-12.5 -2.5t-7.5 -10t2.5 -12l56 -84q6 -8 18.5 -8t18.5 8l43 63l43 -63q4 -4 8.5 -6.5t10.5 -2.5t11 2.5t9 6.5l56 84q3 6 2 12t-7 10q-5 4 -11 2.5t-10 -7.5 v0zM621 499l-48 -70l-43 62q-6 9 -18.5 9t-18.5 -9l-43 -62l-48 70q-4 6 -10.5 7.5t-12.5 -2.5t-7 -10t2 -12l56 -84q6 -8 18.5 -8t18.5 8l43 63l44 -63q3 -4 8 -6.5t11 -2.5t10.5 2.5t8.5 6.5l56 84q4 6 2.5 12t-7.5 10q-5 4 -12 2.5t-10 -7.5v0zM986 504q-6 4 -12.5 2.5 t-10.5 -7.5l-48 -70l-43 62q-6 9 -18.5 9t-18.5 -9l-43 -62l-48 70q-4 6 -10 7.5t-12 -2.5t-7.5 -10t2.5 -12l56 -84q6 -9 18.5 -8.5t18.5 8.5l43 63l43 -63q4 -4 8.5 -6.5t10.5 -2.5t11 2.5t8 6.5l56 84q3 6 1.5 12t-5.5 10v0z" />
</svg>