<svg viewBox="0 0 1024 1024" xmlns="http://www.w3.org/2000/svg">
  <path transform="scale(1, -1) translate(0, -960)" fill="currentColor" d="M251 493h50q7 0 11.5 4.5t4.5 11.5t-4.5 11.5t-11.5 4.5h-50q-27 0 -46 -19t-19 -47v-49q0 -28 19 -47t46 -19q15 0 24.5 -9.5t9.5 -24.5v-49q0 -15 -9.5 -24.5t-24.5 -9.5h-49q-8 0 -12 -4.5t-4 -11.5t4 -11.5t12 -4.5h49q28 0 47 19t19 47v49q0 28 -19 47t-47 19 q-14 0 -23.5 9.5t-9.5 24.5v49q0 15 9.5 24.5t23.5 9.5v0zM493 493h70q7 0 11.5 4.5t4.5 11.5t-4.5 11.5t-11.5 4.5h-70q-28 0 -47 -19t-19 -47v-198q0 -28 19 -47t47 -19h70q7 0 11.5 4.5t4.5 11.5t-4.5 11.5t-11.5 4.5h-70q-15 0 -24.5 9.5t-9.5 24.5v83h64q7 0 11.5 4.5 t4.5 11.5t-4.5 11.5t-11.5 4.5h-64v83q-1 15 9 24.5t25 9.5v0zM773 525h-39q-27 0 -47 -20t-20 -47v-197q0 -28 20 -47.5t47 -19.5h39q27 0 47 19.5t20 47.5v197q-1 27 -21 47t-46 20zM806 261q0 -15 -10 -25t-25 -10h-38q-15 0 -25 10t-10 25v197q0 14 10 24.5t25 10.5h38 q15 0 25 -10.5t10 -24.5v-197zM928 862h-832q-26 0 -45 -18.5t-19 -45.5v-700q0 -27 19 -45.5t45 -18.5h832q26 0 45 18.5t19 45.5v700q0 27 -19 45.5t-45 18.5zM96 830h832q13 0 22.5 -9t9.5 -23v-144h-896v144q0 14 9.5 23t22.5 9zM928 66h-832q-13 0 -22.5 9t-9.5 23v524 h896v-524q0 -14 -9.5 -23t-22.5 -9zM587 728h2q7 0 11.5 4.5t4.5 11.5t-4.5 11.5t-11.5 4.5h-2q-7 0 -11.5 -4.5t-4.5 -11.5t4.5 -11.5t11.5 -4.5zM698 728h1q7 0 11.5 4.5t4.5 11.5t-4.5 11.5t-11.5 4.5h-1q-8 0 -12 -4.5t-4 -11.5t4 -11.5t12 -4.5zM808 728h2 q7 0 11.5 4.5t4.5 11.5t-4.5 11.5t-11.5 4.5h-2q-7 0 -11.5 -4.5t-4.5 -11.5t5 -11.5t11 -4.5z" />
</svg>