<svg viewBox="0 0 256 256" xmlns="http://www.w3.org/2000/svg">
  <path transform="scale(1, -1) translate(0, -256)" fill="currentColor" d="M63 136h12q3 0 5 2t2 5t-2 5t-5 2h-12q-8 0 -14 -5.5t-6 -13.5v-13q0 -8 6 -13.5t14 -5.5q2 0 3.5 -1.5t1.5 -4.5v-12q0 -2 -1.5 -4t-3.5 -2h-13q-3 0 -5 -2t-2 -5t2 -5t5 -2h13q8 0 13.5 5.5t5.5 13.5v13q0 8 -5.5 13.5t-13.5 5.5q-2 0 -4 2t-2 4v12q0 3 2 4.5t4 1.5z M123 136h18q3 0 5 2t2 5t-2 5t-5 2h-18q-8 0 -13.5 -5.5t-5.5 -13.5v-50q0 -8 5.5 -13.5t13.5 -5.5h18q3 0 5 2t2 5t-2 5t-5 2h-18q-2 0 -3.5 1.5t-1.5 4.5v18h12q3 0 5.5 2t2.5 5t-2.5 5t-5.5 2h-12v18q0 1 1.5 2.5t3.5 1.5zM193 150h-9q-8 0 -14 -6t-6 -14v-49 q0 -8 6 -13.5t14 -5.5h9q8 0 14 5.5t6 13.5v49q0 9 -6 14.5t-14 5.5zM199 81q0 -2 -1.5 -3.5t-4.5 -1.5h-9q-3 0 -4.5 1.5t-1.5 3.5v49q0 3 1.5 4.5t4.5 1.5h9q3 0 4.5 -1.5t1.5 -4.5v-49zM232 235h-208q-8 0 -13.5 -5.5t-5.5 -13.5v-176q0 -7 5.5 -13t13.5 -6h208 q8 0 13.5 5.5t5.5 13.5v176q0 7 -5.5 13t-13.5 6zM24 221h208q2 0 3.5 -1.5t1.5 -3.5v-34h-218v34q0 2 1.5 3.5t3.5 1.5zM232 35h-208q-2 0 -3.5 1.5t-1.5 3.5v128h218v-128q0 -2 -1.5 -3.5t-3.5 -1.5zM147 195v0q3 0 5 2t2 5t-2 5t-5 2v0q-3 0 -5 -2t-2 -5t2 -5t5 -2z M174 195h1q3 0 5 2t2 5t-2 5t-5 2h-1q-3 0 -5 -2t-2 -5t2 -5t5 -2zM202 195v0q3 0 5.5 2t2.5 5t-2.5 5t-5.5 2v0q-3 0 -5 -2t-2 -5t2 -5t5 -2z" />
</svg>