<svg viewBox="0 0 256 256" xmlns="http://www.w3.org/2000/svg">
  <path transform="scale(1, -1) translate(0, -256)" fill="currentColor" d="M152 179q3 0 5.5 2.5t2.5 5.5t-2.5 5.5t-6 2.5t-5.5 -2t-2 -5.5t2 -6t6 -2.5zM183 179q4 0 6 2.5t2 5.5t-2 5.5t-5.5 2.5t-6 -2t-2.5 -5.5t2.5 -6t5.5 -2.5zM214 179q4 0 6 2.5t2 5.5t-2 5.5t-5.5 2.5t-6 -2t-2.5 -5.5t2.5 -6t5.5 -2.5zM228 220h-200q-10 0 -16.5 -7 t-6.5 -17v-137q0 -10 6.5 -16.5t16.5 -6.5h200q10 0 16.5 6.5t6.5 16.5v138q0 9 -6.5 16t-16.5 7zM28 206h200q4 0 6.5 -3t2.5 -7v-29h-218v29q0 4 2.5 7t6.5 3zM228 50h-200q-4 0 -6.5 3t-2.5 7v93h218v-94q0 -3 -2.5 -6t-6.5 -3zM153 112l-14 2q-1 0 -2 2l-7 13q0 1 -2 1 t-2 -1l-7 -13q0 -1 -2 -2l-14 -2q-2 0 -2.5 -2t0.5 -3l11 -10v-2l-2 -15q0 -1 1 -2t3 0l13 6q1 1 2 0l13 -6q1 -1 2.5 0t1.5 2l-2 15v2l11 10q1 2 0.5 3.5t-2.5 1.5z" />
</svg>