<svg viewBox="0 0 1024 1024" xmlns="http://www.w3.org/2000/svg">
  <path transform="scale(1, -1) translate(0, -960)" fill="currentColor" d="M928 896h-832q-26 0 -45 -19t-19 -45v-768q0 -26 19 -45t45 -19h832q26 0 45 19t19 45v768q0 26 -19 45t-45 19zM96 864h832q13 0 22.5 -9.5t9.5 -22.5v-142h-896v142q0 13 9.5 22.5t22.5 9.5zM928 32h-832q-13 0 -22.5 9.5t-9.5 22.5v594h896v-594q0 -13 -9.5 -22.5 t-22.5 -9.5zM646 541h-268q-27 0 -45.5 -19t-18.5 -45v-127q0 -26 18.5 -45t45.5 -19h267q26 0 45 19t19 45v127q1 26 -17.5 45t-45.5 19zM678 349q0 -13 -9 -22.5t-23 -9.5h-268q-14 0 -23 9.5t-9 22.5v126q0 13 9 22.5t23 9.5h267q13 0 22.5 -9.5t9.5 -22.5v-126h1z M638 174h-252q-8 0 -12 -4t-4 -12q0 -7 4 -11.5t12 -4.5h254q7 0 11.5 4.5t4.5 11.5q0 8 -5 12t-13 4z" />
</svg>