<svg viewBox="0 0 1024 1024" xmlns="http://www.w3.org/2000/svg">
  <path transform="scale(1, -1) translate(0, -960)" fill="currentColor" d="M928 848h-832q-26 0 -45 -19t-19 -45v-491q0 -27 19 -45.5t45 -18.5h400v-149h-91q-7 0 -11.5 -4.5t-4.5 -11.5t4.5 -11.5t11.5 -4.5h214q7 0 11.5 4.5t4.5 11.5t-4.5 11.5t-11.5 4.5h-91v149h400q26 0 45 18.5t19 45.5v491q0 26 -19 45t-45 19zM960 293 q0 -13 -9.5 -22.5t-22.5 -9.5h-832q-13 0 -22.5 9.5t-9.5 22.5v491q0 13 9.5 22.5t22.5 9.5h832q13 0 22.5 -9.5t9.5 -22.5v-491zM333 648q-5 4 -10.5 4t-8.5 -4l-140 -106q-4 -3 -5 -10t2 -12q4 -5 11 -6t12 3l36 27v-112q0 -7 4.5 -11.5t11.5 -4.5h154q7 0 11.5 4.5 t4.5 11.5v112l37 -27q2 -1 4.5 -2t4.5 -1q4 0 7.5 1t5.5 5q4 5 3.5 12t-6.5 10l-139 106v0zM384 563v-113h-122v113v2.5t-1 2.5l62 46l63 -46q-2 -1 -2 -2.5v-2.5v0zM602 656h137q7 0 11.5 4.5t4.5 11.5t-4.5 11.5t-11.5 4.5h-137q-8 0 -12 -4.5t-4 -11.5t4 -11.5t12 -4.5z M808 549h-206q-8 0 -12 -4.5t-4 -11.5t4 -11.5t12 -4.5h206q7 0 11.5 4.5t4.5 11.5t-5 11.5t-11 4.5zM738 410h-138q-7 0 -11.5 -4.5t-4.5 -11.5q0 -8 4.5 -12t11.5 -4h138q7 0 11.5 4t4.5 12q0 7 -4.5 11.5t-11.5 4.5z" />
</svg>