<svg viewBox="0 0 256 256" xmlns="http://www.w3.org/2000/svg">
  <path transform="scale(1, -1) translate(0, -256)" fill="currentColor" d="M77 144q-2 2 -5 1.5t-4 -3.5l-10 -14l-8 12q-2 4 -7 4t-7 -4l-8 -12l-10 14q-1 3 -4 3.5t-5.5 -1t-3 -4.5t0.5 -5l14 -21q2 -4 7 -4t7 4l8 12l8 -12q3 -4 7.5 -4t7.5 4l14 21q2 2 1.5 5t-3.5 4zM162 144q-2 2 -5 1.5t-4 -3.5l-10 -14l-8 12q-2 4 -7 4t-7 -4l-8 -12 l-10 14q-1 3 -4 3.5t-5.5 -1t-3 -4.5t1.5 -5l14 -21q2 -4 7 -4t7 4l8 12l8 -12q2 -4 7 -4t7 4l14 21q2 2 1.5 5t-3.5 4zM248 144q-2 2 -5 1.5t-5 -3.5l-9 -14l-8 12q-3 4 -7.5 4t-7.5 -4l-8 -12l-9 14q-2 3 -4.5 3.5t-5 -1t-3 -4.5t0.5 -5l14 -21q3 -4 7.5 -4t7.5 4l8 12 l8 -12q2 -4 7 -4t7 4l14 21q2 2 1 5t-3 4z" />
</svg>