<svg viewBox="0 0 256 256" xmlns="http://www.w3.org/2000/svg">
  <path transform="scale(1, -1) translate(0, -256)" fill="currentColor" d="M232 227h-208q-8 0 -13.5 -5.5t-5.5 -13.5v-160q0 -8 5.5 -13.5t13.5 -5.5h208q8 0 13.5 5.5t5.5 13.5v160q0 8 -5.5 13.5t-13.5 5.5zM24 213h208q2 0 3.5 -1.5t1.5 -3.5v-27h-218v27q0 2 1.5 3.5t3.5 1.5zM232 43h-208q-2 0 -3.5 1.5t-1.5 3.5v119h218v-119 q0 -2 -1.5 -3.5t-3.5 -1.5zM122 120h23q3 0 5 2.5t2 5.5t-2 5t-5 2h-7v3q0 3 -2 5t-5 2t-5 -2t-2 -5v-3h-2q-7 0 -12.5 -5.5t-5.5 -12.5v-1q0 -8 5.5 -13t12.5 -5h11q4 0 4 -4v-2q0 -4 -4 -4h-22q-3 0 -5 -2t-2 -5t2 -5t5 -2h13v-3q0 -3 2 -5t5 -2t5 2t2 5v4q6 1 9.5 6 t3.5 11v1q0 8 -5 13t-13 5h-11q-4 0 -4 4v1q1 4 4 4z" />
</svg>