<svg viewBox="0 0 1024 1024" xmlns="http://www.w3.org/2000/svg">
  <path transform="scale(1, -1) translate(0, -960)" fill="currentColor" d="M606 653q14 0 23 9.5t9 22.5t-9 22.5t-23 9.5q-13 0 -22.5 -9.5t-9.5 -22.5t9.5 -22.5t22.5 -9.5zM733 653q13 0 22.5 9.5t9.5 22.5t-9.5 22.5t-22.5 9.5t-22.5 -9.5t-9.5 -22.5t9.5 -22.5t22.5 -9.5zM858 653q13 0 22.5 9.5t9.5 22.5t-9.5 22.5t-22.5 9.5 q-14 0 -23 -9.5t-9 -22.5t9 -22.5t23 -9.5zM912 803h-800q-34 0 -57 -23t-23 -57v-550q0 -34 23 -57t57 -23h800q34 0 57 23t23 57v550q0 33 -23 56.5t-57 23.5v0zM112 771h800q20 0 34 -13.5t14 -34.5v-131h-896v131q0 19 14 33.5t34 14.5zM912 125h-800q-20 0 -34 13.5 t-14 34.5v387h896v-387q0 -19 -14 -33.5t-34 -14.5zM613 384l-58 8q-2 0 -4.5 2t-3.5 4l-25 53q-4 6 -10.5 6t-9.5 -6l-25 -53q-1 -2 -3.5 -3.5t-4.5 -2.5l-58 -8q-7 -1 -9 -7.5t3 -11.5l41 -40q3 -3 3.5 -5t0.5 -5l-10 -57q-1 -8 4.5 -11.5t11.5 -0.5l51 28q3 1 5 1t5 -1 l51 -28q6 -3 11.5 1.5t4.5 10.5l-10 57q0 3 0.5 5t3.5 5l41 40q5 6 3 12t-9 7z" />
</svg>