<svg viewBox="0 0 256 256" xmlns="http://www.w3.org/2000/svg">
  <path transform="scale(1, -1) translate(0, -256)" fill="currentColor" d="M232 243h-208q-8 0 -13.5 -5.5t-5.5 -13.5v-192q0 -8 5.5 -13.5t13.5 -5.5h208q8 0 14 5.5t6 13.5v192q-1 8 -6.5 13.5t-13.5 5.5zM24 229h208q2 0 3.5 -1.5t1.5 -3.5v-33h-218v33q0 2 1.5 3.5t3.5 1.5zM232 27h-208q-2 0 -3.5 1.5t-1.5 3.5v145h218v-145q0 -2 -1.5 -3.5 t-3.5 -1.5zM162 154h-68q-7 0 -13 -5.5t-6 -13.5v-32q0 -8 5.5 -13.5t13.5 -5.5h67q8 0 13.5 5.5t5.5 13.5v32q0 8 -5.5 13.5t-12.5 5.5zM166 103q0 -2 -1.5 -3.5t-3.5 -1.5h-67q-2 0 -3.5 1.5t-1.5 3.5v32q0 2 1.5 3.5t3.5 1.5h67q2 0 3.5 -1.5t1.5 -3.5v-32zM160 62h-64 q-3 0 -5 -2t-2 -5t2 -5t5 -2h64q3 0 5 2t2 5t-2 5t-5 2z" />
</svg>