<svg viewBox="0 0 256 256" xmlns="http://www.w3.org/2000/svg">
  <path transform="scale(1, -1) translate(0, -256)" fill="currentColor" d="M226 50q12 9 19 21t7 26q0 17 -10 31.5t-27 23t-37.5 8.5t-37.5 -8.5t-27 -22.5t-10 -31t10 -31.5t27 -23t37 -8.5q12 0 25 3q0 1 2 1t4 -1l18 -10l1 0.5t1 1.5l-1 3q-2 8 -2 11v2q-1 2 1 4zM152 107q-4 0 -7 3t-3 7t3 7t7.5 3t7 -3t2.5 -7t-2.5 -7t-7.5 -3zM202 107 q-4 0 -7 3t-3 7t3 7t7 3t7 -3t3 -7t-3 -7t-7 -3zM177 165h5q-3 17 -16 31.5t-32 23t-40 8.5q-25 0 -45.5 -10t-32.5 -27.5t-12 -37.5q0 -17 8 -31.5t23 -24.5q3 -2 3 -5l-1 -2q-4 -14 -4.5 -15t-0.5 -3t3 -2l22 11q3 1 5 1h2q14 -4 30 -4h5q-3 10 -3 18q0 19 11 35t29.5 25 t40.5 9zM124 189q5 0 8.5 -3.5t3.5 -8.5t-4 -8.5t-8.5 -3.5t-8 3.5t-3.5 8.5t3.5 8.5t8.5 3.5zM64 165q-5 0 -8.5 3.5t-3.5 8.5t3.5 8.5t8 3.5t8.5 -3.5t4 -8.5t-3.5 -8.5t-8.5 -3.5z" />
</svg>