<svg viewBox="0 0 1024 1024" xmlns="http://www.w3.org/2000/svg">
  <path transform="scale(1, -1) translate(0, -960)" fill="currentColor" d="M904 136q47 34 75.5 82.5t28.5 106.5q0 51 -23 97q-24 46 -64.5 80t-94.5 54q-55 20 -117 20q-63 0 -117 -20q-54 -19 -94.5 -53t-63.5 -80q-23 -45 -23 -97q0 -51 24 -97q23 -45 63.5 -79t94.5 -54q54 -19 116 -19q25 0 50 3.5t47 9.5q2 1 4 1h6t8 -1t8 -4l66 -38 l1.5 -1.5t2.5 -0.5q4 0 7 3t3 7q0 1 -1 3t-1 3q0 2 -5 19.5t-6 32.5v3v3q-2 5 -0.5 9.5t5.5 6.5v0zM610 363q-17 0 -28.5 11.5t-11.5 28.5t11.5 28.5t28.5 11.5q16 0 28 -11.5t12 -28.5t-12 -28.5t-28 -11.5zM808 363q-17 0 -28.5 11.5t-11.5 28.5t11.5 28.5t28.5 11.5 t28.5 -11.5t11.5 -28.5t-11 -28.5t-29 -11.5zM709 595h9h12q-11 54 -43 100t-79 80t-107 54q-60 19 -127 19q-73 -1 -139 -24q-65 -24 -113.5 -64.5t-77.5 -94.5q-28 -54 -28 -116q0 -70 33.5 -127.5t91.5 -98.5q5 -3 7 -8t2 -13q0 -1 -0.5 -3t-0.5 -3q-5 -17 -10.5 -38.5 t-5.5 -22.5q-4 -2 -4.5 -4t-0.5 -5q0 -5 3.5 -8.5t9.5 -3.5q1 0 3 1t3 1l79 45q3 1 8.5 3t11.5 2q2 0 5 -1t7 -1q27 -8 56.5 -12t59.5 -4h9.5h11.5q-5 17 -8 35.5t-3 36.5q0 59 25 109q26 51 70 87.5t103 57.5t127 21zM494 693q21 0 34.5 -14.5t13.5 -33.5t-14 -33.5 t-34 -14.5q-19 0 -33.5 14.5t-14.5 33.5t14 33.5t34 14.5zM254 595q-20 0 -34 14.5t-14 33.5t14.5 33.5t33.5 14.5q20 0 34 -14.5t14 -33.5t-13.5 -33.5t-34.5 -14.5v0z" />
</svg>