<svg viewBox="0 0 256 256" xmlns="http://www.w3.org/2000/svg">
  <path transform="scale(1, -1) translate(0, -256)" fill="currentColor" d="M160 163h-114v8l1 5q2 6 7 10q8 7 22 6q2 -7 7 -11.5t13 -4.5h28q8 0 14 6t6 14v6q0 8 -6 14t-14 6h-28q-8 0 -13 -4.5t-7 -11.5q-20 0 -32 -10q-7 -7 -10 -16q-1 -5 -1 -9v-8h-9q-8 0 -13.5 -5.5t-5.5 -13.5v-91q0 -8 5.5 -13.5t13.5 -5.5h136q8 0 13.5 5.5t5.5 13.5v91 q0 8 -5.5 13.5t-13.5 5.5zM89 202q0 2 2 4t4 2h28q3 0 4.5 -2t1.5 -4v-6q0 -2 -1.5 -4t-4.5 -2h-28q-2 0 -4 2t-2 4v6zM165 53q0 -2 -1.5 -3.5t-3.5 -1.5h-136q-2 0 -3.5 1.5t-1.5 3.5v91q0 2 1.5 3.5t3.5 1.5h136q2 0 3.5 -1.5t1.5 -3.5v-91zM241 147q-5 3 -10.5 3 t-10.5 -2l-15 -7q-5 -2 -8.5 -7.5t-3.5 -11.5v-46q0 -6 3 -11.5t9 -8.5l14 -7q5 -2 10.5 -2t10.5 3t8 8t3 10v60q0 13 -10 19zM237 69q0 -5 -3.5 -7t-7.5 0l-15 7q-4 2 -4 7v46q0 4 4 7l15 7h3q2 0 4.5 -1.5t2.5 -6.5v-59h1zM65 76h-25q-3 0 -5 -2.5t-2 -5.5t2 -5t5 -2h25 q3 0 5 2t2 5t-2 5.5t-5 2.5zM118 134q-3 1 -9 2q-9 0 -16 -6.5t-7 -16.5t8 -17l16 -17q4 -3 8.5 -3t7.5 3l18 17q6 7 6 16.5t-6 15.5t-13 7t-13 -1zM133 106l-15 -15l-15 15q-3 3 -3 7t3 6.5t6 2.5t5 -2q4 -3 7.5 -0.5t6.5 2t5.5 -3t2.5 -6t-3 -6.5z" />
</svg>