<svg viewBox="0 0 256 256" xmlns="http://www.w3.org/2000/svg">
  <path transform="scale(1, -1) translate(0, -256)" fill="currentColor" d="M251 218q0 10 -7 16.5t-17 5.5l-120 -7q-9 0 -15 -6.5t-6 -15.5v-110q-8 5 -17 3t-17 -10q-6 8 -15.5 10t-19.5 -4q-12 -8 -12 -24q-1 -12 5 -23v0q6 -10 12 -17q13 -15 29 -20h2h2q12 4 22 13q7 7 13 16q4 6 4 8q5 10 5 18l1 106l137 8v-43q-8 5 -17 3t-17 -10 q-7 8 -16 10.5t-19 -4.5q-12 -8 -12 -24q-1 -12 5 -23q1 -2 5 -8q6 -9 13 -16q10 -9 22 -13h2h2q12 4 22 13q7 7 13 16q4 6 5 8q5 12 5 22v102h1zM53 30q-12 5 -22 17q-5 7 -8 12v0q-3 5 -4 12q-1 12 7 17q3 2 6 2h2q4 -1 7.5 -5t5.5 -7.5t6 -3.5t6 4q6 11 13 12q4 1 9 -2.5 t5 -11.5v-3q0 -6 -3 -13l-2 -3q-13 -21 -28 -27zM100 191v20q0 3 2.5 5.5t5.5 2.5l120 7q4 0 6.5 -2.5t2.5 -5.5v-19zM204 71q-12 5 -22 18q-5 6 -8 11v1q-3 7 -4 13q-1 11 7 16q3 2 6 2l2 -1q4 -1 7.5 -5t5.5 -7t6 -3t6 3q6 11 13 12q4 1 9 -2.5t6 -11.5v-1q0 -8 -4 -16 l-1 -2q-13 -21 -29 -27z" />
</svg>