<svg viewBox="0 0 1024 1024" xmlns="http://www.w3.org/2000/svg">
  <path transform="scale(1, -1) translate(0, -960)" fill="currentColor" d="M910 566q0 66 -27 120q-26 54 -58 92.5t-60 59.5q-28 22 -31 23q-1 1 -37.5 21t-94.5 35q-71 17 -140 8.5t-132 -40.5q-72 -37 -114 -85q-42 -49 -64.5 -95.5t-29.5 -85.5q-7 -38 -8 -54v-0.5v-1.5v0v0v-4v-2v-0.5v-1.5v-509q0 -32 23 -55t55 -23h107q33 0 56 23t23 55 v330q0 4 -10 65t-88 105q-5 2 -9.5 4.5t-9.5 4.5q38 7 79.5 24t77.5 48l1.5 -1.5l1.5 -1.5l70 -70q5 -5 11 -7.5t13 -2.5t13 2.5t11 7.5l72 72q1 1 2.5 2t2.5 2q35 -28 74 -43.5t75 -21.5q-9 -4 -14 -7l-5 -3q-70 -48 -82.5 -111t-12.5 -66v-330q0 -32 23 -55t56 -23h108 q33 0 56 22.5t23 53.5q-2 53 -3 123t-1.5 142.5t-1.5 139.5q0 68 -1 115v0zM344 376v-330q0 -19 -13.5 -32.5t-32.5 -13.5h-108q-19 0 -32.5 13.5t-13.5 32.5v496q12 2 25.5 1t28.5 -4q17 -3 34 -9t29 -13q66 -36 74.5 -86.5t8.5 -54.5zM512 574h-1h-1l-70 71q-8 8 -12 18.5 t-4 21.5t4.5 19.5t11.5 15.5q7 6 15.5 9.5t18.5 3.5v0v0q7 0 14 -2.5t14 -7.5q4 -2 9 -2t9 2q14 11 32.5 9t31.5 -15q7 -7 10.5 -16.5t3.5 -18.5q0 -10 -3.5 -19t-10.5 -17zM606 741q-19 19 -45.5 23t-50.5 -9q-8 5 -17.5 7t-18.5 3q-16 0 -30 -5.5t-26 -15.5 q-12 -11 -19 -26t-7 -32q0 -8 1 -16t4 -16q-64 -57 -141.5 -66.5t-109.5 -8.5q2 21 11 56q9 34 30.5 73.5t58.5 78.5q38 39 96 69q60 30 123.5 37.5t128.5 -7.5q55 -13 88.5 -32t34.5 -19l23 -18t51.5 -50.5t53.5 -77.5q26 -45 32 -100q-31 -3 -108 5t-142 64l2 12t1 12 q2 16 -5 31.5t-19 27.5zM878 45q0 -19 -13.5 -32t-32.5 -13h-109q-19 0 -32.5 13.5t-13.5 32.5v330q0 2 10.5 56t69.5 94l29.5 14t75.5 14h7.5h7.5q1 -49 2 -115q0 -66 0.5 -136.5t-0.5 -138.5q0 -68 -1 -119v0z" />
</svg>