<svg viewBox="0 0 1024 1024" xmlns="http://www.w3.org/2000/svg">
  <path transform="scale(1, -1) translate(0, -960)" fill="currentColor" d="M992 808q0 17 -6 31t-18 25t-27 16.5t-31 4.5l-480 -29q-31 -2 -52 -24.5t-21 -53.5v-464q-3 2 -6 4.5t-7 4.5q-17 11 -33.5 14.5t-33.5 0.5q-23 -5 -39.5 -20.5t-26.5 -29.5q-11 13 -27.5 28.5t-39.5 21.5q-17 3 -33.5 -0.5t-33.5 -14.5q-49 -32 -44.5 -85.5t18.5 -83.5 q1 -4 40.5 -61.5t114.5 -81.5h3h2h2.5h2.5q76 24 113.5 82t38.5 61q6 13 12 31.5t7 38.5v1.5v1.5v427l573 36v-210q-2 2 -5.5 4.5t-7.5 5.5q-17 10 -33.5 14t-33.5 0q-23 -5 -39.5 -20t-27.5 -30q-11 14 -28 29t-39 21q-17 4 -34 0t-34 -14q-49 -34 -44.5 -88.5t19.5 -83.5 q1 -3 40 -60.5t115 -81.5h2.5h2.5h2h3q75 24 112.5 82t39.5 60q7 15 13 37.5t6 47.5v0.5v1.5v403h3zM944 333q0 -1 -32 -51.5t-96 -73.5q-64 23 -97.5 73.5t-33.5 51.5t-15 51t29 80q9 6 16 8.5t15 2.5h4.5t6.5 -1q26 -6 42.5 -30.5l16.5 -24.5q2 -3 6 -5.5t8 -2.5v0 q5 0 8.5 2.5t6.5 5.5q5 10 21 30t38 25q11 2 21 -0.5t21 -9.5q16 -11 22.5 -26.5t7.5 -31.5v-3v0v0q1 -26 -7 -47t-9 -23v0zM211 43q-63 23 -97 73.5t-34 51.5q-1 2 -15 51.5t29 79.5q8 6 16 8.5t15 2.5h4.5t4.5 -1q27 -6 43.5 -30.5l16.5 -24.5q3 -7 13.5 -7t14.5 7 l17 24.5t43 30.5q10 2 20 -0.5t21 -9.5q17 -11 23 -26.5t8 -30.5v-13q-2 -24 -8.5 -42t-7.5 -19q1 -1 -31 -51.5t-96 -73.5v0zM387 686v93q0 18 12.5 31.5t30.5 15.5l480 28q10 0 19 -2.5t15 -9.5q6 -8 11 -16t5 -18v-86l-573 -36v0z" />
</svg>