<svg viewBox="0 0 1024 1024" xmlns="http://www.w3.org/2000/svg">
  <path transform="scale(1, -1) translate(0, -960)" fill="currentColor" d="M947 232v176q0 26 -18.5 45t-45.5 19h-8v178q0 26 -18.5 45t-45.5 19h-275l72 72q12 12 18 27t6 32t-6 32t-18 27q-19 19 -46.5 23.5t-51.5 -9.5q-8 5 -17.5 7.5t-18.5 2.5h-1h-1q-16 0 -30 -6t-26 -16q-12 -11 -19 -26.5t-7 -33.5t7 -35t19 -29l69 -68h-274 q-26 0 -45 -19t-19 -45v-178h-8q-26 0 -45 -19t-19 -45v-176q-18 -7 -29.5 -23t-11.5 -36v-141q0 -26 18.5 -45t45.5 -19h827q26 0 45 19t19 45v141q1 20 -11 36t-31 23v0zM422 846q0 11 4.5 20.5t11.5 15.5q8 7 17 10.5t19 3.5v0v0q7 0 14.5 -2.5t13.5 -7.5q4 -2 9 -2t9 2 q16 11 34 9t32 -15q7 -7 10.5 -16.5t3.5 -20.5t-3.5 -20t-10.5 -17l-74 -72h-1h-1l-70 71q-8 8 -13 19.5t-5 21.5zM211 682h602q13 0 22.5 -9.5t9.5 -22.5v-32l-43 -21l-42 -15q-30 -7 -50.5 -2.5t-21.5 4.5h-1h-1l-28 8q-41 8 -71.5 1t-31.5 -7h-1v0l-6 -2t-23 -5 q-16 -2 -30.5 1t-17.5 4q-4 2 -17.5 5.5t-40.5 5.5q-32 4 -58.5 -3.5t-27.5 -7.5l-15 -3.5t-41 0.5q-22 2 -52.5 15.5t-45.5 21.5v30q0 14 9.5 24t22.5 10v0zM179 582q19 -8 46 -18.5t47 -13.5q32 -4 51.5 0.5t20.5 4.5l23 6.5t49 3.5t36 -6.5l10 -3.5v0v0q2 0 2 -0.5 t2 -0.5q1 0 15.5 -3.5t32.5 -3.5q3 0 6.5 0.5t7.5 1.5q17 2 26 4.5t12 3.5q4 1 29 6.5t55 -1.5l27 -7q5 -2 30 -6.5t61 3.5l45 14h0.5h0.5l31 15v-111h-666v112v0zM107 408q0 13 9.5 22.5t22.5 9.5h744q13 0 22.5 -9.5t9.5 -22.5v-173h-808v173v0zM958 32q0 -13 -9 -22.5 t-23 -9.5h-828q-14 0 -23 9.5t-9 22.5v141q0 13 9 22.5t23 9.5h827q13 0 22.5 -9.5t9.5 -22.5v-141h1z" />
</svg>