<svg viewBox="0 0 1024 1024" xmlns="http://www.w3.org/2000/svg">
  <path transform="scale(1, -1) translate(0, -960)" fill="currentColor" d="M990 410q-3 52 -34.5 70t-53.5 18v0v0q-26 -2 -53 7.5t-51 27.5q-1 1 -4.5 3.5t-9.5 7.5q-16 12 -44 34q-29 22 -62 46.5t-65 48.5q-32 23 -55 37q-56 36 -105 32t-50 -4q-115 -29 -187 -17t-72 13h-1.5h-1.5q-25 4 -45 0t-35 -17q-22 -19 -25.5 -44t-3.5 -27v-46v-112.5 v-136.5v-119q0 -32 23 -55t55 -23h224q33 0 56 23t23 55v50q5 -3 10.5 -4.5t11.5 -3.5q28 -12 72 -28q43 -16 100.5 -29t127.5 -19q71 -7 153 0h1h1q38 10 63.5 33t33.5 57q5 29 5 62.5t-2 59.5v0zM333 187h-224q-19 0 -33 13.5t-14 33.5v26v30h316v-56q1 -21 -12.5 -34 t-32.5 -13zM954 294q-6 -24 -24 -41t-48 -24q-80 -7 -147 0q-68 6 -123.5 18.5t-97.5 28.5q-42 15 -69 26q-16 6 -27 10.5t-20 5.5h-0.5h-0.5h-1h-1h-331v110v106v79v32l2.5 16.5t16.5 29.5q6 7 15.5 10t19.5 3h8.5t7.5 -2q11 -3 86 -14.5t191 16.5l41.5 4t89.5 -26 q11 -8 26 -18t30 -21l-104 -81q-4 -4 -5 -11t2 -12q3 -3 6 -4.5t7 -1.5q2 0 4.5 1t5.5 2l110 86v0v0q13 -9 27 -19.5t27 -20.5l-96 -73q-4 -4 -5 -11t2 -12q3 -3 6 -4.5t7 -1.5q2 0 4.5 1t5.5 2l102 80q19 -14 34.5 -25.5t24.5 -19.5q6 -4 10.5 -7.5t5.5 -4.5 q28 -21 59.5 -31.5t62.5 -8.5v0q1 0 26.5 -7.5t29.5 -50.5q2 -24 2.5 -55.5t-5.5 -58.5v0z" />
</svg>