<svg viewBox="0 0 256 256" xmlns="http://www.w3.org/2000/svg">
  <path transform="scale(1, -1) translate(0, -256)" fill="currentColor" d="M240 76v42q0 8 -5.5 13.5t-12.5 5.5v41q0 8 -5.5 14t-13.5 6h-62l13 12q7 7 7 17t-6 16t-13.5 7.5t-13.5 -1.5q-6 2 -10 2q-10 0 -16.5 -6.5t-7 -17.5t7.5 -18l12 -12h-61q-8 0 -13.5 -5.5t-5.5 -13.5v-42q-8 0 -13 -5t-5 -13v-42q-5 -2 -7.5 -7t-2.5 -10v-35 q0 -8 5.5 -13.5t13.5 -5.5h207q7 0 13 5.5t6 13.5v35q0 6 -3 10.5t-8 6.5zM109 228q0 4 2.5 6.5t6.5 2.5t7 -2t6.5 0t7 2t6 -3t2.5 -7t-3 -7l-16 -16l-16 16q-3 3 -3 8zM48 157q11 -5 20 -6.5t18 1.5l6 1q6 2 12 1q7 0 10 -2l6 -1q4 -1 8 -1h4q7 1 11 3v0q11 3 19 1l6 -2 q12 -3 24 0l13 4l3 1v-20h-160v20zM53 184h150q2 0 3.5 -1.5t1.5 -4.5v-6l-8 -4l-11 -3q-9 -2 -15 0l-8 3q-9 1 -19 0q-7 -1 -9 -2l-1 -1q-1 0 -6.5 -1t-10.5 1.5t-14.5 3t-22.5 -3.5h-4q-4 -1 -10 0t-21 8v6q0 2 1.5 3.5t3.5 1.5zM30 118q0 2 1.5 3.5t3.5 1.5h186 q2 0 3.5 -1.5t1.5 -3.5v-40h-196v40zM236 24q0 -2 -1.5 -3.5t-3.5 -1.5h-207q-2 0 -3.5 1.5t-1.5 3.5v35q0 2 1.5 3.5t3.5 1.5h207q2 0 3.5 -1.5t1.5 -3.5v-35z" />
</svg>