<svg viewBox="0 0 256 256" xmlns="http://www.w3.org/2000/svg">
  <path transform="scale(1, -1) translate(0, -256)" fill="currentColor" d="M231 158q-1 27 -22 53q-10 13 -23 22v1l-10 5q-12 6 -25 9q-37 9 -70 -8q-30 -16 -45 -45q-9 -18 -11 -37v-131q0 -9 6.5 -15.5t16.5 -6.5h26q10 0 16.5 6.5t6.5 15.5v83q0 9 -3 17q-6 17 -21 26q18 5 31 15l16 -16q4 -3 8 -3t8 3l18 18q13 -10 28 -14q-14 -11 -20 -29 q-3 -9 -3 -17v-82q0 -9 6.5 -15.5t15.5 -6.5h27q10 0 16.5 6.5t6.5 15.5v130zM87 227q29 15 61 7q11 -2 21 -7q5 -3 8 -5h1q10 -8 18 -17q16 -19 20 -39q-14 0 -26 2q-18 4 -30 14v4q0 10 -6 17q-6 5 -13 6.5t-13 -1.5q-5 2 -9 2q-10 0 -16.5 -6.5t-6.5 -15.5v-8 q-12 -10 -30 -14q-13 -3 -26 -2q3 16 12 30q12 21 35 33zM83 110v-82q0 -4 -2.5 -6.5t-6.5 -2.5h-26q-4 0 -6.5 2.5t-2.5 6.5v121q5 0 10 -1q9 -2 15 -6q12 -6 17 -19q2 -6 2 -12v-1zM128 164l-16 15q-3 3 -3 7.5t2.5 7t6 2.5t7 -2t6.5 0t6.5 2t6 -3t2.5 -7t-2 -6zM217 28 q0 -4 -2.5 -6.5t-6.5 -2.5h-27q-3 0 -5.5 2.5t-2.5 6.5v82q0 6 2 13q5 14 16 22l3 2q4 2 9.5 3.5t12.5 1.5v0z" />
</svg>