<svg viewBox="0 0 1024 1024" xmlns="http://www.w3.org/2000/svg">
  <path transform="scale(1, -1) translate(0, -960)" fill="currentColor" d="M659 589q15 20 23 34.5l8 14.5q16 33 20.5 92.5t-48.5 96.5q-8 6 -16.5 10t-16.5 6v69q0 7 -4.5 11.5t-11.5 4.5t-11.5 -4.5t-4.5 -11.5v-67q-3 0 -4.5 -1t-3.5 -1q-25 -6 -44 -23t-31 -33q-11 15 -30 32.5t-44 23.5q-1 0 -2.5 0.5t-3.5 1.5v67q0 7 -4.5 11.5t-11.5 4.5 q-8 0 -12 -4.5t-4 -11.5v-69q-9 -2 -18 -6t-18 -10q-54 -37 -49 -96.5t22 -92.5q0 -1 8 -14t23 -34q-9 -15 -26 -55q-18 -40 -36 -107t-33 -161q-15 -95 -19 -219q0 -16 5 -30.5t17 -25.5q11 -12 26 -18t30 -6h359q15 0 30 6t26 18t16.5 26t5.5 30q-4 124 -19 219 q-15 94 -32.5 160.5t-34.5 106.5t-26 55v0zM723 14q-6 -7 -14 -10.5t-18 -3.5h-21l-16 109q-1 6 -6 10t-11 3q-6 -2 -10 -7t-3 -11l16 -106h-112v108q0 7 -4.5 11.5t-11.5 4.5t-11.5 -4.5t-4.5 -11.5v-106h-107l9 106q2 6 -3 11t-11 6q-7 1 -11.5 -3.5t-6.5 -10.5l-12 -109 h-21q-10 0 -18.5 3.5t-15.5 10.5q-6 8 -9.5 16t-3.5 18q5 137 23 238t38.5 167t37.5 98q16 32 17 33q2 5 2 9.5t-4 8.5q-16 20 -25 35.5l-9 15.5q0 1 -16 57.5t34 91.5q8 6 17.5 9t17.5 3h6.5t6.5 -1q30 -7 48.5 -34l18.5 -27q3 -4 6.5 -6t8.5 -2v0q4 0 8 2t6 6l19 27.5 t48 33.5q12 2 24 -0.5t23 -10.5q50 -35 34 -90.5t-17 -58.5l-8.5 -15.5t-24.5 -37.5q-3 -4 -3.5 -9t1.5 -9q1 0 16 -32q16 -32 35.5 -98t37.5 -166q17 -101 21 -238q3 -10 -0.5 -19t-10.5 -15v0z" />
</svg>