<svg viewBox="0 0 1024 1024" xmlns="http://www.w3.org/2000/svg">
  <path transform="scale(1, -1) translate(0, -960)" fill="currentColor" d="M870 928h-716q-34 0 -57 -23t-23 -57v-800q0 -34 23 -57t57 -23h715q33 0 56.5 23t23.5 57v800q1 34 -22.5 57t-56.5 23v0zM917 48q0 -20 -14 -34t-34 -14h-715q-21 0 -34.5 14t-13.5 34v800q0 20 13.5 34t34.5 14h715q20 0 34 -14t14 -34v-800zM510 726q-43 0 -82 -17 t-69.5 -47t-50.5 -71t-26 -89q-2 -6 0 -11t6 -9t8.5 -6t9.5 -2h409q5 0 9.5 2t8.5 6q3 3 4.5 8.5t1.5 11.5q-6 48 -26 89t-51 71t-69 47q-39 17 -83 17v0zM523 506l-24 68q-2 6 -7.5 9t-13.5 1q-6 -2 -9 -8t0 -13l21 -59h-175q12 80 67.5 133.5t127.5 53.5t128 -53.5 t68 -133.5h-183v2v0z" />
</svg>