<svg viewBox="0 0 1024 1024" xmlns="http://www.w3.org/2000/svg">
  <path transform="scale(1, -1) translate(0, -960)" fill="currentColor" d="M853 928h-682q-57 0 -98 -41t-41 -98v-680q0 -58 41 -98.5t98 -40.5h680q58 0 98.5 40.5t40.5 98.5v680q2 57 -39 98t-98 41v0zM701 896v-118q0 -36 -25.5 -61.5t-61.5 -25.5h-99l50 87q3 6 1 12t-8 10t-12 2t-10 -8l-58 -103h-70q-36 0 -61 25.5t-25 61.5v118h379z M960 107q0 -44 -31.5 -75.5t-75.5 -31.5h-682q-44 0 -75.5 31.5t-31.5 75.5v682q0 44 31.5 75.5t75.5 31.5h120v-118q0 -50 34.5 -84.5t84.5 -34.5h204q50 0 84.5 34.5t34.5 84.5v118h120q44 0 75.5 -31.5t31.5 -75.5v-682v0z" />
</svg>