<svg viewBox="0 0 256 256" xmlns="http://www.w3.org/2000/svg">
  <path transform="scale(1, -1) translate(0, -256)" fill="currentColor" d="M244 231h-232q-3 0 -5 -2t-2 -4.5t2 -5t5 -2.5h47v-25q-12 -2 -21 -11.5t-10 -22.5l-7 -92q-1 -8 1.5 -16t8.5 -13q12 -13 28 -13h139q8 0 15.5 3.5t12.5 9t8 13.5t2 16l-7 92q-1 12 -10 22t-21 12v25h46q3 0 5 2t2 5t-2 5t-5 2zM214 156l7 -92q1 -11 -6 -18t-18 -7h-139 q-10 0 -17 7.5t-7 17.5l8 92q0 10 7 16t17 6h124q9 0 16 -6t8 -16zM183 192h-110v25h110v-25zM128 150q-16 0 -27 -11.5t-11 -27t11 -26.5t27 -11t27 11t11 26.5t-11 27t-27 11.5zM128 88q-10 0 -17 7t-7 16.5t7 17t17 7.5t17 -7t7 -17t-7 -17t-17 -7z" />
</svg>