<svg viewBox="0 0 256 256" xmlns="http://www.w3.org/2000/svg">
  <path transform="scale(1, -1) translate(0, -256)" fill="currentColor" d="M213 251h-170q-16 0 -27 -11.5t-11 -26.5v-170q0 -16 11 -27t27 -11h170q15 0 26.5 11t11.5 27v170q0 16 -11 27t-27 11zM172 237v-27q0 -7 -5.5 -12.5t-12.5 -5.5h-20l10 17q1 3 0 5.5t-3.5 4t-5 1t-4.5 -3.5l-13 -24h-16q-7 0 -12.5 5.5t-5.5 12.5v27h88zM237 43 q0 -10 -7 -17t-17 -7h-170q-10 0 -17 7t-7 17v170q0 10 7 17t17 7h27v-26q0 -14 9 -23.5t23 -9.5h51q14 0 23.5 9.5t9.5 23.5v26h26q10 0 17 -7t7 -17v-170h1z" />
</svg>