<svg viewBox="0 0 1024 1024" xmlns="http://www.w3.org/2000/svg">
  <path transform="scale(1, -1) translate(0, -960)" fill="currentColor" d="M901 693l-55 206q-3 13 -13.5 21t-22.5 8h-596q-13 0 -23 -8t-13 -21l-55 -206q-2 -9 0 -18t7 -16q6 -7 14 -10.5t16 -3.5h78v-392h-6q-35 0 -59 -24.5t-24 -58.5v-117q0 -35 24 -59t59 -24h560q35 0 59 24t24 59v117q0 34 -24 58.5t-59 24.5h-6v392h78q10 0 18 3.5 t12 10.5q5 7 7 16t0 18zM843 168v-117q0 -21 -14.5 -36t-36.5 -15h-560q-22 0 -36.5 15t-14.5 36v117q0 22 14.5 36.5t36.5 14.5h560q22 0 36.5 -14.5t14.5 -36.5zM755 251h-486v394h227v-130h-32q-7 0 -11.5 -4.5t-4.5 -11.5v-99q0 -7 4.5 -11.5t11.5 -4.5h98q7 0 11.5 4.5 t4.5 11.5v98q0 7 -4.5 11.5t-11.5 4.5h-34v129h227v-392zM547 483v-67h-67v66h67v1zM869 678q0 -1 -1.5 -2t-3.5 -1h-704q-2 0 -3.5 1t-1.5 2q0 2 -0.5 3t-0.5 4l56 206q0 3 2 4t4 1h594q2 0 3.5 -1t2.5 -4l56 -206q0 -3 -1 -4t-2 -3z" />
</svg>