<svg viewBox="0 0 256 256" xmlns="http://www.w3.org/2000/svg">
  <path transform="scale(1, -1) translate(0, -256)" fill="currentColor" d="M248 141q-5 5 -11 5h-86q-3 0 -5 -2.5t-2 -5.5t2 -5t5 -2h86q-3 -23 -16 -41t-33 -28.5t-43 -10.5l-19 1q-3 0 -5 -2q-13 -15 -30 -23t-36 -8l1 2q14 10 23 23q2 3 1 6.5t-5 4.5q-20 5 -34 19.5t-19.5 34.5t-0.5 39.5t20 33.5q20 21 49 22q8 1 8 8q0 10 8 17.5t18 7.5 v-23q0 -10 -5 -16q-2 -2 -2 -4.5t2 -4.5q5 -7 5 -16v-16q-10 0 -17 6t-8 16q-1 3 -3 4.5t-6 1.5q-12 -3 -22 -14v0q-4 -6 -5 -12.5t2.5 -13t9 -10t12.5 -3.5q3 0 5 2.5t2 5.5t-2 5t-5 2q-6 0 -8.5 5.5t1 10t8.5 7.5q4 -12 14 -19t23 -7q6 0 10 4t4 10v16q0 11 -5 21 q5 9 5 20v22q0 6 -4 10t-10 4q-15 0 -26 -9.5t-13 -23.5q-32 -3 -54 -26q-17 -17 -23.5 -40.5t0.5 -46.5q5 -21 19 -37t34 -24q-6 -7 -14 -12l-1 -1q-4 -3 -5 -7.5t0 -9t5 -7t9 -2.5q21 0 40 8.5t34 24.5h15q26 0 49 12t38 33t19 47q0 3 -0.5 6t-2.5 5zM212 110q0 4 -3 7 t-7.5 3t-7.5 -3t-3 -7t3 -7t7.5 -3t7.5 3t3 7z" />
</svg>