<svg viewBox="0 0 256 256" xmlns="http://www.w3.org/2000/svg">
  <path transform="scale(1, -1) translate(0, -256)" fill="currentColor" d="M216 216q-17 18 -40 27t-47 9q-34 0 -62 -16.5t-45 -44.5t-17 -61.5t17 -62.5l-18 -63l66 16q29 -15 59 -15q33 0 61.5 17t45 45.5t16.5 61.5q0 25 -9.5 47.5t-26.5 39.5zM128 26q-28 0 -52 15l-4 3l-39 -10l11 37l-2 4q-16 26 -16 54.5t13.5 52t37 37t51.5 13.5 q21 0 39.5 -8t33 -22t22 -33t7.5 -40q1 -28 -13 -51.5t-37.5 -37.5t-51.5 -14zM185 103l-1 1q-18 8 -21 9q-5 2 -6.5 -1t-6.5 -9l-3 -4q-3 -2 -7 0l-2 1q-13 5 -23 14q-6 6 -11 12.5t-6 9t-0.5 4t3 4t3.5 4.5l4 5q1 2 -1 6l-9 23q-2 4 -3.5 4.5t-3.5 0.5h-6q-5 0 -8 -4 l-1 -1q-10 -11 -10 -25t13 -31l2 -3q24 -33 51 -45q8 -3 17 -6q7 -3 18 -2h1q5 1 12 5.5t9 9.5t2.5 9.5t-0.5 5.5t-6 3z" />
</svg>