<svg viewBox="0 0 1024 1024" xmlns="http://www.w3.org/2000/svg">
  <path transform="scale(1, -1) translate(0, -960)" fill="currentColor" d="M664 98q-42 -47 -99.5 -72.5t-121.5 -25.5q-61 0 -115 23q-54 24 -94.5 64t-64.5 95q-23 54 -23 116q0 72 32 134t89 104q5 4 6 11t-3 11q-3 5 -10 6t-12 -2q-64 -47 -99 -116.5t-35 -149.5q0 -68 26 -128q26 -59 70.5 -103.5t104.5 -70.5t128 -26q70 0 134 28.5 t109 78.5q5 5 4.5 11.5t-5.5 11.5q-4 4 -10 4t-11 -4v0zM893 147l-88 -8l-23 258q0 11 -7.5 18t-19.5 7h-349l-11 180h243q8 0 12 4t4 12q0 7 -4 11.5t-12 4.5h-244l-5 88h1.5h1.5q43 0 73.5 30t30.5 74q0 43 -30.5 72.5t-73.5 29.5t-73.5 -30.5t-30.5 -73.5q0 -34 19 -60 t48 -38l19 -310q0 -11 8.5 -18.5t19.5 -7.5h350l22 -259v-1q3 -10 10.5 -16.5t18.5 -6.5v0v0l93 8q6 0 11 5.5t3 12.5q-1 6 -6 10t-11 4v0zM320 824q0 30 21 51t51 21t51 -21t21 -51t-21 -51t-51 -21t-51 21.5t-21 50.5z" />
</svg>