<svg viewBox="0 0 256 256" xmlns="http://www.w3.org/2000/svg">
  <path transform="scale(1, -1) translate(0, -256)" fill="currentColor" d="M178 191q12 0 21 9t9 21t-9 21t-21.5 9t-21 -8.5t-8.5 -21t8.5 -21.5t21.5 -9zM178 237q6 0 11 -4.5t5 -11t-5 -11.5t-11.5 -5t-11 5t-4.5 11.5t4.5 11t11.5 4.5zM183 116l9 32q2 6 1 12t-5 11q-7 11 -20 11h-4q-8 0 -15 -5t-10 -13l-7 -22q-1 -3 -4.5 -5.5t-7.5 -2.5 h-28q-8 0 -14.5 -4.5t-9.5 -12.5l-18 -51q-2 -6 -1 -12.5t4.5 -11.5t9 -8t11.5 -3q10 0 18 7q8 -15 22.5 -24t31.5 -9t31 8.5t22.5 22.5t8.5 31q0 15 -7 28t-18 21zM74 45q-6 0 -9.5 5t-1.5 11l18 51q1 4 4.5 6t6.5 2h28q9 0 16 5t9 13l7 21q1 4 4.5 6.5t7.5 2.5h3 q6 0 9.5 -5t2.5 -11l-14 -46q-1 -4 -4 -6.5t-7 -2.5h-34q-8 0 -15 -5t-9 -12l-10 -28q-2 -3 -5 -5t-7 -2zM146 19q-16 0 -28.5 9t-17.5 24l8 23q2 4 5 6t7 2h33q9 0 16 5.5t9 13.5q7 -7 11 -16t4 -19q0 -20 -13.5 -34t-33.5 -14z" />
</svg>