<svg viewBox="0 0 1024 1024" xmlns="http://www.w3.org/2000/svg">
  <path transform="scale(1, -1) translate(0, -960)" fill="currentColor" d="M992 438v4v3v0v0v0v0v0v1v1v1v2t-2 1v1t-1 1q-1 1 -1.5 2t-1.5 1h-0.5h-1.5q-1 1 -2.5 1.5t-2.5 0.5h-0.5h-0.5h-3h-1h-44l-248 254q-10 10 -23.5 10t-23.5 -10l-97 -96h-1h-1l-16 16q-10 10 -23.5 10t-22.5 -10l-92 -90l-81 244q-3 6 -7.5 11t-10.5 8l-229 107 q-6 4 -12 1t-8 -9q-3 -6 -0.5 -12t8.5 -9l230 -107l86 -259l-56 -56h-107q-7 0 -11.5 -4.5t-4.5 -11.5t4.5 -11.5t11.5 -4.5h50q1 -51 15 -98t39 -88.5t61 -75.5t80 -58l-30 -107q-3 -6 1 -12t10 -8h2h3q4 0 8.5 3.5t7.5 8.5l28 102q36 -16 73.5 -24t77.5 -8h15.5t14.5 2 q17 -38 52 -61t78 -23q59 0 100 42t41 99q0 19 -5 36t-13 33q41 52 64.5 115.5t23.5 130.5v0zM496 610h1h1l16 -16q9 -10 22.5 -10t23.5 10l98 96h0.5h0.5l226 -228h-538l149 148v0zM618 96q-41 0 -79.5 9t-74.5 26q-43 22 -78 53q-34 32 -58.5 70.5t-38.5 82.5t-15 92h32v0 v0v0v0h616v0h1h37q-1 -58 -22 -112.5t-58 -98.5q-19 21 -46 33.5t-58 12.5q-59 0 -100 -41.5t-41 -99.5q0 -7 1 -13.5t2 -13.5h-11h-9v0zM776 14q-46 0 -77.5 32.5t-31.5 76.5q0 45 32.5 77t76.5 32t76.5 -32t32.5 -77q0 -44 -31.5 -76.5t-77.5 -32.5zM776 154q-12 0 -21 -9 t-9 -22q0 -12 8.5 -21t21.5 -9q12 0 21 8.5t9 21.5q-1 13 -9.5 22t-20.5 9z" />
</svg>