<svg viewBox="0 0 1024 1024" xmlns="http://www.w3.org/2000/svg">
  <path transform="scale(1, -1) translate(0, -960)" fill="currentColor" d="M710 712q45 0 76.5 31.5t31.5 75.5q0 45 -31 77t-77 32q-45 0 -76 -31.5t-31 -75.5q0 -45 31.5 -77t75.5 -32zM710 896q32 0 54 -22t22 -53t-22 -53t-54 -22q-31 0 -53 22t-22 53t22 53t53 22zM717 397l40 136q6 21 2.5 42t-17.5 39q-13 18 -32.5 27.5t-40.5 9.5h-15 q-30 0 -54 -17.5t-34 -46.5l-27 -85q-6 -19 -21.5 -30t-35.5 -11h-112q-29 0 -53 -16.5t-34 -44.5l-72 -205q-7 -21 -4.5 -43t15.5 -40q14 -18 33.5 -28t42.5 -10q21 0 39.5 9t32.5 26q28 -63 86 -100.5t128 -37.5q49 0 91 19q43 18 75 50t51 75q18 43 18 91q0 57 -27 107.5 t-75 83.5v0zM298 102q-15 0 -28.5 7t-21.5 19t-10.5 26.5t2.5 27.5l72 205q6 18 22 29t34 11h112q30 0 54 17.5t34 46.5l27 85q6 19 21.5 30.5t36.5 11.5h14q15 0 27.5 -7t20.5 -17q9 -12 11 -26t-1 -27l-53 -184q-6 -19 -22 -31t-36 -12h-134q-29 0 -53 -17t-33 -44 l-39 -109q-7 -19 -22.5 -30.5t-34.5 -11.5v0zM584 0q-67 0 -121.5 40.5t-73.5 105.5l33 96q6 18 22 29t34 11h135q30 0 54.5 18t33.5 47l5 18q37 -29 58.5 -71.5t21.5 -90.5q0 -42 -15 -79q-16 -37 -43.5 -64.5t-64.5 -43.5t-79 -16z" />
</svg>