<svg viewBox="0 0 256 256" xmlns="http://www.w3.org/2000/svg">
  <path transform="scale(1, -1) translate(0, -256)" fill="currentColor" d="M164 42q-10 -11 -24 -17t-29 -6q-19 0 -35.5 9.5t-26 26t-9.5 35t7.5 33.5t21.5 25q2 1 2.5 4t-1 5.5t-4.5 3t-5 -1.5q-16 -12 -25.5 -30.5t-9.5 -38.5q0 -23 11.5 -42.5t31 -31t42.5 -11.5q19 0 35 7t28 21q2 2 2 5t-2 5t-5 1.5t-5 -2.5zM223 56l-19 -2l-5 61 q-1 4 -3.5 6.5t-6.5 2.5h-85l-2 39h58q3 0 5 2t2 5t-2 5.5t-5 2.5h-59l-1 16q12 1 19.5 9t7.5 20t-8.5 20.5t-20.5 8.5t-20.5 -8.5t-8.5 -20.5q0 -9 4.5 -16t12.5 -11l4 -76q0 -4 3 -6.5t7 -2.5h85l5 -63q1 -3 3.5 -5.5t6.5 -2.5l24 2q3 0 4.5 2.5t1.5 5t-2 4.5t-5 2z M98 237q6 0 10.5 -4.5t4.5 -10.5t-4.5 -10.5t-10.5 -4.5t-10.5 4.5t-4.5 10.5t4.5 10.5t10.5 4.5z" />
</svg>