<svg viewBox="0 0 1024 1024" xmlns="http://www.w3.org/2000/svg">
  <path transform="scale(1, -1) translate(0, -960)" fill="currentColor" d="M893 248q-15 0 -28 -3.5t-23 -10.5l-58 67q50 24 89 67t58 99l31 91q4 15 6 30.5t-8 29.5q-7 10 -21.5 15t-34.5 5h-637l-53 168q-6 18 -21 29t-33 11h-112q-7 0 -11.5 -4t-4.5 -12q0 -7 4.5 -11.5t11.5 -4.5h112q8 0 15 -4.5t9 -12.5l56 -176v-525q0 -8 4.5 -15 t13.5 -11q2 -1 4.5 -1h4.5q5 0 10 2t9 6l266 198h118q22 0 43.5 3.5t41.5 11.5l64 -76q-11 -13 -17.5 -29.5t-6.5 -34.5q0 -40 29.5 -69.5t69.5 -29.5q41 0 70.5 29.5t29.5 69.5q0 41 -30 69.5t-71 28.5v0zM272 106v169h226zM272 307v299h634q16 0 21.5 -2.5t6.5 -5.5 q4 -4 1 -15t-4 -15l-30 -91q-25 -77 -89.5 -123.5t-142.5 -46.5h-397v0zM893 82q-28 0 -47.5 19.5t-19.5 47.5q0 27 19.5 47t47.5 20q27 0 47 -20t20 -47q0 -28 -20 -47.5t-47 -19.5z" />
</svg>