<svg viewBox="0 0 256 256" xmlns="http://www.w3.org/2000/svg">
  <path transform="scale(1, -1) translate(0, -256)" fill="currentColor" d="M223 81q-5 0 -12 -3l-10 12q25 14 35 42l7 23q4 11 -0.5 17.5t-16.5 6.5h-157l-13 39q-1 6 -5.5 9t-10.5 3h-28q-3 0 -5 -2t-2 -5t2 -5t5 -2h28q3 0 3 -2l14 -44v-130q0 -7 6 -9l3 -1q4 0 7 3l66 49h28q9 0 20 2l13 -15q-5 -7 -5 -16q0 -12 8 -20t19.5 -8t19.5 8t8 19.5 t-8 20t-19 8.5zM71 48v34h44zM71 96v69h155q4 0 4.5 -1.5t-0.5 -4.5l-8 -23q-6 -18 -21 -29t-34 -11h-96zM223 40q-6 0 -9.5 3.5t-3.5 9.5t3.5 10t9.5 4t10 -4t4 -10t-4 -9.5t-10 -3.5z" />
</svg>