<svg viewBox="0 0 1024 1024" xmlns="http://www.w3.org/2000/svg">
  <path transform="scale(1, -1) translate(0, -960)" fill="currentColor" d="M317 587q-58 0 -99.5 -40.5t-41.5 -98.5t41 -98.5t98 -40.5q58 0 98.5 40.5t40.5 98.5t-40 98.5t-97 40.5v0zM317 341q-45 0 -76 31.5t-31 75.5t31 75.5t76 31.5q44 0 75.5 -31.5t31.5 -75.5t-31.5 -75.5t-75.5 -31.5zM912 733h-595q-59 0 -111.5 -22.5t-93.5 -64.5 t-61 -95.5t-19 -112.5q2 -55 24 -104q23 -49 60.5 -86t86.5 -59t104 -24h5h3q48 0 92 15q43 15 79.5 42.5t63.5 65.5q26 38 39 83l360 199q19 10 30 29t11 41v13q2 32 -22 56t-56 24zM960 638q0 -13 -7 -24.5t-19 -18.5l-366 -200q-2 -1 -4.5 -4t-3.5 -5q-11 -43 -35 -79 q-24 -35 -57.5 -60.5t-74.5 -38.5q-40 -14 -84 -13q-49 1 -92 21q-44 20 -77.5 53t-53.5 77q-20 43 -22 92q-2 52 16 99.5t54 84.5q36 38 83 57.5t98 19.5h597q20 0 34 -14.5t14 -33.5v-13v0z" />
</svg>