<svg viewBox="0 0 256 256" xmlns="http://www.w3.org/2000/svg">
  <path transform="scale(1, -1) translate(0, -256)" fill="currentColor" d="M79 166q-15 0 -26.5 -11t-11.5 -27t11.5 -27t27 -11t26.5 11t11 27t-11 27t-27 11zM79 104q-10 0 -17 7t-7 17t7 17t17 7t17 -7t7 -17t-7 -17t-17 -7zM228 202h-149q-15 0 -29 -6t-24.5 -17t-15.5 -25t-5 -29q1 -18 11 -34.5t26 -26t35 -10.5h2q24 0 44 14.5t27 37.5 l89 49q5 3 8.5 8.5t3.5 12.5v3q0 9 -7 16t-16 7zM237 176q0 -6 -5 -8l-91 -51q-2 -1 -4 -4q-5 -20 -22 -33t-38 -12q-15 0 -28 8t-21 21t-9 29q0 26 17.5 44t42.5 18h149q4 0 6.5 -2.5t2.5 -6.5v-3z" />
</svg>