<svg viewBox="0 0 1024 1024" xmlns="http://www.w3.org/2000/svg">
  <path transform="scale(1, -1) translate(0, -960)" fill="currentColor" d="M912 589h-109l-224 246q1 5 2 10.5t1 10.5q0 30 -20.5 51t-49.5 21t-49.5 -21t-20.5 -49q0 -6 1 -11l2 -10l-224 -247h-109q-34 0 -57 -23t-23 -57v-462q0 -34 23 -57t57 -23h800q34 0 57 23t23 57v461q0 33 -24 56.5t-56 23.5v0zM512 896q16 0 27 -11.5t11 -26.5 q0 -16 -11 -28t-27 -12t-27 11t-11 27t11 28t27 12zM462 806q10 -9 23 -14.5t27 -5.5t27 5.5t23 14.5l196 -217h-496l200 217v0zM960 48q0 -20 -14 -34t-34 -14h-800q-20 0 -34 14t-14 34v461q0 20 14 34t34 14h800q20 0 34 -14t14 -34v-461z" />
</svg>