<svg viewBox="0 0 1024 1024" xmlns="http://www.w3.org/2000/svg">
  <path transform="scale(1, -1) translate(0, -960)" fill="currentColor" d="M912 787h-210l-17 128q-1 6 -6.5 10.5t-11.5 4.5q-6 -2 -10 -7t-4 -11l16 -123h-315l16 123q1 6 -3.5 12t-11.5 6q-6 1 -11.5 -3.5t-5.5 -11.5l-18 -128h-208q-34 0 -57 -23t-23 -57v-328q0 -33 23 -56.5t57 -23.5h144l-42 -312q-1 -6 3.5 -11.5t11.5 -5.5h0.5h0.5 q6 0 10.5 4t5.5 10l42 314h448l43 -317q1 -6 5.5 -10.5t10.5 -4.5h1h1q6 2 10 7t4 11l-43 314h144q34 0 57 23t23 57v329q0 33 -23 56.5t-57 23.5zM960 378q0 -21 -14 -34.5t-34 -13.5h-800q-20 0 -34 13.5t-14 34.5v329q0 21 14 34.5t34 13.5h800q20 0 34 -13.5t14 -34.5 v-329z" />
</svg>