<svg viewBox="0 0 256 256" xmlns="http://www.w3.org/2000/svg">
  <path transform="scale(1, -1) translate(0, -256)" fill="currentColor" d="M228 231h-93v9q0 3 -2 5t-5 2t-5 -2t-2 -5v-9h-93q-10 0 -16.5 -6.5t-6.5 -16.5v-82q0 -10 6.5 -16.5t16.5 -6.5h95v-35l-70 -46q-2 -2 -2.5 -5t1 -5.5t4.5 -2.5t5 1l62 42v-28q0 -3 2 -5.5t5 -2.5t5.5 2.5t2.5 5.5v27l57 -41q2 -1 5 -1t5 2.5t1.5 5.5t-3.5 4l-66 47v35 h91q10 0 16.5 7t6.5 16v82q0 10 -6.5 16.5t-16.5 6.5zM237 126q0 -3 -2.5 -6t-6.5 -3h-200q-4 0 -6.5 3t-2.5 6v82q0 4 2.5 7t6.5 3h200q4 0 6.5 -3t2.5 -7v-82z" />
</svg>