<svg viewBox="0 0 1024 1024" xmlns="http://www.w3.org/2000/svg">
  <path transform="scale(1, -1) translate(0, -960)" fill="currentColor" d="M912 850h-384v46q0 7 -4.5 11.5t-11.5 4.5t-11.5 -4.5t-4.5 -11.5v-46h-384q-34 0 -57 -23.5t-23 -56.5v-328q0 -34 23 -57t57 -23h392v-159h-1.5t-1.5 -1l-282 -189q-6 -4 -7 -10.5t2 -12.5q3 -3 6.5 -4.5t6.5 -1.5t5 1t5 2l265 179v-134q0 -7 4.5 -11.5t11.5 -4.5 q8 0 12 4.5t4 11.5v133l250 -178q2 -1 4.5 -2t5.5 -1t6.5 1.5t5.5 4.5q4 6 3 12.5t-6 10.5l-264 189q-1 0 -1.5 0.5t-1.5 0.5v159h376q34 0 57 23t23 57v328q0 32 -23 56t-57 24v0zM960 442q0 -21 -14 -34.5t-34 -13.5h-800q-20 0 -34 13.5t-14 34.5v328q0 20 14 34t34 14 h800q20 0 34 -14t14 -34v-328z" />
</svg>