<svg viewBox="0 0 1024 1024" xmlns="http://www.w3.org/2000/svg">
  <path transform="scale(1, -1) translate(0, -960)" fill="currentColor" d="M899 928h-774q-34 0 -57 -23t-23 -57v-328q0 -34 23 -57t57 -23h379v-158q-1 -2 -2.5 -2t-2.5 -2l-273 -283q-5 -5 -5 -11t5 -11q2 -3 4.5 -4t6.5 -1q3 0 6 1t5 4l256 265v-222q0 -7 4.5 -11.5t11.5 -4.5t11.5 4.5t4.5 11.5v221l240 -264q2 -3 5.5 -4t5.5 -1q3 0 6 1t5 4 q5 5 5.5 11t-3.5 11l-259 283q-1 2 -2.5 3t-4.5 1v158h364q33 0 56.5 23t23.5 57v328q1 34 -22 57t-57 23v0zM947 520q0 -20 -13.5 -34t-34.5 -14h-774q-21 0 -34.5 14t-13.5 34v328q0 20 13.5 34t34.5 14h774q21 0 34.5 -14t13.5 -34v-328z" />
</svg>