<svg viewBox="0 0 256 256" xmlns="http://www.w3.org/2000/svg">
  <path transform="scale(1, -1) translate(0, -256)" fill="currentColor" d="M228 166h-26l-54 60l1 4q0 9 -6 15t-15 6t-15 -6t-6 -15l1 -4l-54 -60h-26q-10 0 -16.5 -6.5t-6.5 -16.5v-115q0 -10 6.5 -16.5t16.5 -6.5h200q10 0 16.5 6.5t6.5 16.5v115q0 10 -7 16.5t-16 6.5zM128 237q3 0 5 -2t2 -5t-2 -4.5t-5 -1.5t-5 2t-2 4.5t2 4.5t5 2zM116 214 q6 -4 12 -4t12 4l43 -48h-110zM237 28q0 -4 -3 -6.5t-6 -2.5h-200q-4 0 -6.5 2.5t-2.5 6.5v115q0 4 2.5 6.5t6.5 2.5h200q4 0 6.5 -2.5t2.5 -6.5v-115z" />
</svg>