<svg viewBox="0 0 256 256" xmlns="http://www.w3.org/2000/svg">
  <path transform="scale(1, -1) translate(0, -256)" fill="currentColor" d="M243 204q-31 31 -73 41.5t-84 -0.5t-73 -43q-2 -2 -2 -4.5t2 -5t5 -2.5t5 2q21 21 48 33t57 12t57 -11t48 -32q2 -2 5 -2t5 2.5t2 5t-2 4.5zM60 116q-2 -2 -2 -5t2 -5t5 -2t5 2q15 16 36 21.5t42 0t36 -21.5q3 -2 5.5 -2t5 2.5t2.5 5t-3 4.5q-18 19 -42.5 25t-49 -0.5 t-42.5 -24.5zM129 66q-13 0 -21.5 -8.5t-8.5 -21.5t9 -21.5t21.5 -9t21.5 8.5t9 21.5t-9 21.5t-22 9zM141 24q-5 -5 -12 -5t-11.5 5t-4.5 12t5 11.5t12 4.5t11.5 -5t4.5 -11.5t-5 -11.5z" />
</svg>