<svg viewBox="0 0 256 256" xmlns="http://www.w3.org/2000/svg">
  <path transform="scale(1, -1) translate(0, -256)" fill="currentColor" d="M238 175q0 3 -2.5 5t-5.5 2q-43 0 -80 -21.5t-58.5 -58.5t-21.5 -80q0 -3 2.5 -5t5.5 -2t5 2t2 5q0 40 19.5 73.5t53 53t73.5 19.5q3 0 5 2t2 5zM238 110q0 3 -2.5 5.5t-5.5 2.5q-26 0 -47.5 -13t-34.5 -35t-13 -48q0 -3 2 -5t5 -2t5 2t2 5q0 22 11 41t30 30t41 11 q3 0 5 1.5t2 4.5zM231 233q3 0 5 2t2 5t-2 5t-5 2q-61 0 -113 -30.5t-82 -82t-30 -112.5q0 -3 2 -5.5t5 -2.5t5 2.5t2 5.5q0 57 28.5 105.5t77 77t105.5 28.5zM220 71q-13 0 -22 -9t-9 -22t9 -22t21.5 -9t21.5 9t9 22t-9 22t-21 9zM220 23q-7 0 -12 5t-5 12t5 11.5t11.5 4.5 t11.5 -4.5t5 -11.5t-4.5 -12t-11.5 -5z" />
</svg>