<svg viewBox="0 0 1024 1024" xmlns="http://www.w3.org/2000/svg">
  <path transform="scale(1, -1) translate(0, -960)" fill="currentColor" d="M934 896q0 7 -4 11.5t-12 4.5q-179 0 -337 -68q-158 -69 -275.5 -187t-186.5 -276q-68 -158 -68 -338q0 -7 4.5 -11.5t11.5 -4.5t11.5 4.5t4.5 11.5q0 173 66 325q66 153 179 266.5t265 179.5q153 66 325 66q8 0 12 4.5t4 11.5zM934 536q0 7 -4 11.5t-12 4.5 q-105 0 -197 -40q-93 -40 -162 -109.5t-109 -161.5q-40 -93 -40 -198q0 -7 4 -11.5t12 -4.5q7 0 11.5 4.5t4.5 11.5q0 99 37 185q38 87 102.5 152t151.5 102q87 38 185 38q8 0 12 5t4 11zM858 214q-48 0 -82 -33.5t-34 -81.5t34 -81.5t82 -33.5t81.5 33.5t33.5 81.5 t-33.5 81.5t-81.5 33.5zM858 16q-35 0 -59.5 24t-24.5 59t24.5 59t59.5 24q34 0 58.5 -24t24.5 -59q0 -33 -24.5 -58t-58.5 -25z" />
</svg>