<svg viewBox="0 0 256 256" xmlns="http://www.w3.org/2000/svg">
  <path transform="scale(1, -1) translate(0, -256)" fill="currentColor" d="M237 240q0 3 -2 5t-5 2q-60 0 -110.5 -29.5t-80 -80t-29.5 -110.5q0 -3 2 -5t5 -2t5 2t2 5q0 56 27.5 103t75 75t103.5 28q3 0 5 2t2 5zM237 150q0 3 -2 5t-5 2q-36 0 -66 -17.5t-47.5 -47.5t-17.5 -65q0 -3 2 -5t5 -2t5.5 2t2.5 5q0 31 15.5 58t42 42.5t58.5 15.5 q3 0 5 2t2 5zM214 73q-13 0 -22.5 -9.5t-9.5 -22.5t9.5 -22.5t23 -9.5t22.5 9.5t9 22.5t-9 22.5t-23 9.5zM214 23q-7 0 -12.5 5.5t-5.5 13t5.5 12.5t13 5t12.5 -5t5 -12.5t-5 -13t-13 -5.5z" />
</svg>