<svg viewBox="0 0 256 256" xmlns="http://www.w3.org/2000/svg">
  <path transform="scale(1, -1) translate(0, -256)" fill="currentColor" d="M241 206q-30 30 -71.5 40t-82.5 -1t-72 -42q-2 -2 -2 -5t2 -5t5 -2t5 3q29 28 66.5 38t74.5 1t65 -37q2 -2 5 -2t5 2t2 5t-2 5zM47 145q-2 -2 -2 -5t2 -5t4.5 -2t4.5 2q20 19 45.5 26t51.5 0.5t45 -25.5q2 -2 5 -2t5 2t2 5t-2 5q-22 22 -51 29.5t-58.5 -0.5t-51.5 -30z M79 85q-2 -2 -2 -5t2 -5t5 -2t5 2q16 16 38 16t38 -15q2 -2 5 -2t5 2t2 5t-2 5q-13 12 -30.5 16.5t-35 0t-30.5 -17.5zM128 52q-9 0 -16 -7t-7 -16.5t7 -16.5t16.5 -7t16.5 7t7 16.5t-7 16.5t-17 7zM135 22q-3 -3 -7 -3t-6.5 2.5t-2.5 6.5t3 7t7 3t6.5 -3t2.5 -7t-3 -6z" />
</svg>