<svg viewBox="0 0 1024 1024" xmlns="http://www.w3.org/2000/svg">
  <path transform="scale(1, -1) translate(0, -960)" fill="currentColor" d="M954 750q-90 91 -205 135q-115 45 -235 43.5t-235 -48.5q-116 -47 -209 -139q-4 -5 -4 -11.5t4 -11.5q3 -2 6 -3t6 -1q2 0 5 1t6 3q87 88 197 133q110 44 224 45.5t223 -40.5q108 -42 194 -128q5 -5 11.5 -5t11.5 5q4 5 4 11.5t-4 10.5v0zM195 507q-5 -5 -5 -11t5 -11 q3 -3 6 -4t5 -1q3 0 6 1t6 4q60 60 136 91q77 31 156 32t155 -29q76 -29 135 -89q5 -5 11.5 -5t10.5 5q5 4 5 10.5t-5 11.5q-63 64 -145 96q-81 32 -166.5 31.5t-167.5 -33.5t-148 -99v0zM325 269q-5 -5 -5 -11.5t5 -11.5q2 -2 5.5 -3t5.5 -1t5.5 1t5.5 3q33 33 75 50 t85.5 17t84.5 -16q42 -16 75 -49q5 -5 11.5 -5t11.5 5q4 5 4 11.5t-4 10.5q-38 38 -85 56q-48 19 -97.5 18.5t-97.5 -18.5q-47 -19 -85 -57zM514 130v0v0q-17 0 -31.5 -6t-26.5 -18q-24 -24 -24 -58t24 -58q12 -12 26.5 -18t31.5 -6v0v0q16 0 30.5 6t26.5 18q24 24 24 58 t-24 58q-12 12 -27 18t-30 6zM549 14q-7 -7 -16 -10.5t-19 -3.5v0v0q-10 0 -19 3.5t-17 10.5q-14 15 -14 35t14 34q8 7 16.5 11t19.5 4v0v0q9 0 18.5 -4t16.5 -11q14 -14 14 -34t-14 -35z" />
</svg>