<svg viewBox="0 0 1024 1024" xmlns="http://www.w3.org/2000/svg">
  <path transform="scale(1, -1) translate(0, -960)" fill="currentColor" d="M939 635q0 7 -4.5 11.5t-11.5 4.5q-130 0 -245 -49q-114 -50 -199.5 -135t-134.5 -200q-50 -114 -50 -245q0 -7 4.5 -11.5t11.5 -4.5q8 0 12 4.5t4 11.5q0 124 47 233q47 108 128 189t190 128t232 47q6 0 11 5t5 11zM939 378q0 7 -4.5 11.5t-11.5 4.5q-77 0 -144 -30 q-68 -29 -118.5 -79.5t-79.5 -117.5q-29 -68 -29 -145q0 -7 4.5 -11.5t11.5 -4.5t11.5 4.5t4.5 11.5q0 71 27 132q26 62 72 108t108 73t132 27q6 0 11 4t5 12v0zM923 880q7 0 11.5 4.5t4.5 11.5t-4.5 11.5t-11.5 4.5q-183 0 -345 -70t-283 -190.5t-191 -282.5t-70 -347 q0 -7 4 -11.5t12 -4.5q7 0 11.5 4.5t4.5 11.5q0 178 67 334q68 156 184.5 272.5t272.5 184.5q156 67 333 67zM878 206q-45 0 -78.5 -32.5t-33.5 -79.5q0 -46 33 -79t79 -33q47 0 79.5 33t32.5 79q0 47 -32.5 79.5t-79.5 32.5zM878 16q-32 0 -56 23t-24 57t23.5 57t56.5 23 q34 0 57 -23t23 -57t-23 -57t-57 -23z" />
</svg>