<svg viewBox="0 0 1024 1024" xmlns="http://www.w3.org/2000/svg">
  <path transform="scale(1, -1) translate(0, -960)" fill="currentColor" d="M963 746q-92 92 -209 138q-118 45 -240.5 44t-240.5 -49q-118 -47 -212 -141q-5 -5 -5 -11.5t5 -11.5q2 -2 5.5 -3.5t5.5 -1.5t5.5 1.5t5.5 3.5q90 90 202 135t228.5 46t227.5 -42q112 -43 200 -131q5 -5 11 -5t11 5t5 11.5t-5 11.5zM248 392q-5 -5 -5 -11.5t5 -10.5 q2 -3 5.5 -4t5.5 -1q3 0 6 1t5 4q50 49 112 74q62 24 126.5 24.5t126.5 -23.5q62 -25 111 -74q4 -5 10.5 -5t11.5 5t5 11.5t-5 11.5q-53 53 -121 80q-67 26 -137.5 26t-138.5 -27t-123 -81v0zM517 189v0v0q-23 0 -43 -8.5t-36 -23.5q-15 -16 -23.5 -36t-8.5 -43 q0 -22 8.5 -42t23.5 -36q16 -16 36 -24t43 -8v0v0q21 0 42 8t36 24q33 32 33 78t-33 79q-15 15 -35 23.5t-43 8.5zM573 22q-11 -10 -25 -16t-31 -6v0v0q-16 0 -30 6t-26 16q-12 11 -17.5 26t-5.5 30q0 16 6 30t17 26q11 11 25 17t31 6v0v0q15 0 29.5 -6t26.5 -17 q23 -22 23 -55.5t-23 -56.5z" />
</svg>