<svg viewBox="0 0 1024 1024" xmlns="http://www.w3.org/2000/svg">
  <path transform="scale(1, -1) translate(0, -960)" fill="currentColor" d="M1006 472v117v118v118v117q-67 -9 -135 -18t-135.5 -19t-135.5 -20t-136 -21v0v-100v-98.5v-98.5v-98q68 0 136 1q68 0 135.5 0.5t135.5 0.5t135 1v0zM16 797v-333h100q51 0 101.5 0.5t101.5 0.5q50 1 100 1v97v96v96v98q-50 -7 -100 -13q-51 -7 -101.5 -14t-101.5 -14 q-50 -7 -100 -15zM16 426v-333q50 -7 100 -13q51 -7 101.5 -14t101.5 -13q50 -7 100 -15v96v96v96v96q-50 2 -100 2q-51 1 -101.5 1t-101.5 1h-100zM469 419q0 -49 1 -98v-96.5v-97.5v-97q68 -9 135 -18t134 -18.5t135 -19.5l134 -20v116v116.5v116.5v116h-136h-135.5 h-134.5h-133v0z" />
</svg>