<svg viewBox="0 0 1024 1024" xmlns="http://www.w3.org/2000/svg">
  <path transform="scale(1, -1) translate(0, -960)" fill="currentColor" d="M680 499l-32 160q-2 10 -6 18.5t-8 16.5l252 205q5 4 6 11t-4 12q-4 4 -11 5t-11 -4l-250 -203q-19 22 -45.5 34t-55.5 12q-31 0 -58 -12.5t-46 -35.5l-253 207q-6 3 -12.5 3t-11.5 -6q-3 -5 -2 -11.5t6 -11.5l254 -206q-4 -9 -7 -17.5t-6 -17.5l-32 -156l-209 -171 q-5 -3 -6 -10t4 -12q1 -3 4.5 -4t6.5 -1t5 1t5 2l179 146l-93 -439q-1 -8 0.5 -16t7.5 -16q6 -7 13.5 -10.5t17.5 -3.5h459q8 0 16 3.5t14 10.5q6 8 7.5 16t0.5 16l-88 436l176 -143q3 -2 5 -2.5t5 -0.5t6.5 1.5t6.5 4.5q3 5 3 12t-5 11l-208 166v0zM747 2q0 -2 -1 -2h-4 h-460q-3 0 -4 1l-1 1q0 1 -1 2t-1 2l103 485v0v0l33 160q7 36 36 59.5t67 23.5q36 0 65 -23.5t37 -59.5l131 -645q1 -1 0.5 -2t-0.5 -2v0z" />
</svg>