<svg viewBox="0 0 256 256" xmlns="http://www.w3.org/2000/svg">
  <path transform="scale(1, -1) translate(0, -256)" fill="currentColor" d="M134 183q-6 2 -15 2q-16 0 -28.5 -7.5t-20.5 -20.5t-8 -28.5t8 -28.5t20.5 -21t28.5 -8q6 0 11 1q3 1 4.5 3.5t1 5.5t-3 4.5t-5.5 0.5h-8q-18 0 -30.5 12.5t-12.5 30t12.5 30t30.5 12.5q7 0 11 -1q3 -1 5.5 0.5t3.5 4t-0.5 5t-4.5 3.5zM116 206q3 0 5 2t2 5v20q0 3 -2 5 t-5 2t-5.5 -2t-2.5 -5v-20q0 -3 2.5 -5t5.5 -2zM116 50q-3 0 -5.5 -2t-2.5 -5v-20q0 -3 2.5 -5t5.5 -2t5 2t2 5v20q-1 3 -3 5t-4 2zM50 73l-14 -14q-2 -2 -2 -5t2 -5t5 -2t5 2l14 14q2 2 2 5t-2 5t-5 2t-5 -2zM39 128q0 3 -2 5t-5 2h-20q-3 0 -5 -2t-2 -5t2 -5t5 -2h20 q3 0 5 2t2 5zM50 183q2 -2 5 -2t5 2t2 5t-2 5l-14 14q-2 2 -5 2t-5 -2t-2 -5t2 -5zM227 196q-3 0 -5 -2t-2 -5t2 -5t5.5 -2t6.5 -3t3 -7.5t-3 -7.5t-7 -3h-61q-3 0 -5 -2t-2 -5t2 -5t5 -2h61q10 0 17 7t7 17.5t-7 17.5t-17 7zM216 96h-50q-3 0 -5 -2.5t-2 -5.5t2 -5t5 -2h50 q4 0 7 -3t3 -7t-3 -7.5t-6.5 -3.5t-6 -2t-2.5 -5t2.5 -5t5.5 -2q10 0 17 7t7 17.5t-7.5 18t-16.5 7.5zM230 122q0 3 -2 5t-5 2h-73q-3 0 -5 -2t-2 -5t2 -5.5t5 -2.5h74q3 1 4.5 3t1.5 5z" />
</svg>