<svg viewBox="0 0 1024 1024" xmlns="http://www.w3.org/2000/svg">
  <path transform="scale(1, -1) translate(0, -960)" fill="currentColor" d="M782 763q-6 1 -10.5 4.5t-6.5 8.5q-29 64 -87 101.5t-128 37.5q-72 0 -131 -39.5t-86 -105.5q-3 -6 -8.5 -9.5t-12.5 -2.5q-36 8 -73.5 4t-72.5 -20q-52 -24 -88 -71t-44 -105q-9 -51 5.5 -100.5t48.5 -89.5q34 -38 80 -60t98 -22q7 0 11.5 4.5t4.5 11.5q0 8 -4.5 12 t-11.5 4q-45 0 -85 18.5t-69 52.5q-29 33 -41.5 76t-4.5 89q7 49 38 90t77 62q30 13 62 17t64 -3q18 -4 33.5 5t22.5 25q24 58 75 91.5t112 33.5q60 0 110.5 -32.5t75.5 -87.5q6 -13 17.5 -22t25.5 -10q42 -5 77 -24q35 -20 59 -50t36 -68t7 -80q-1 -12 -3.5 -24t-7.5 -23 q-2 -6 1 -12t9 -8q6 -3 12 0t9 9q4 13 7.5 27t4.5 28q5 49 -8 93q-14 45 -42 79.5t-69 56.5q-40 23 -89 28v0zM872 347q0 34 -23 57t-57 23q-7 0 -11.5 -4.5t-4.5 -11.5t4.5 -11.5t11.5 -4.5q20 0 34 -14.5t14 -33.5q0 -20 -14.5 -34t-33.5 -14h-368q-7 0 -11.5 -4.5 t-4.5 -11.5t4.5 -11.5t11.5 -4.5h368q34 0 57 24t23 56zM875 125h-368q-7 0 -11.5 -4.5t-4.5 -11.5t4.5 -11.5t11.5 -4.5h368q21 0 34.5 -14.5t13.5 -33.5q0 -10 -4.5 -19t-11.5 -16q-5 -5 -5 -11.5t4 -11.5q2 -2 5 -3.5t6 -1.5q2 0 5.5 1.5t5.5 3.5q12 12 19 27.5t7 31.5 q1 32 -22.5 55.5t-56.5 23.5v0z" />
</svg>