<svg viewBox="0 0 256 256" xmlns="http://www.w3.org/2000/svg">
  <path transform="scale(1, -1) translate(0, -256)" fill="currentColor" d="M244 44h-13v132q0 21 -14.5 35.5t-35.5 14.5h-106q-21 0 -35.5 -14.5t-14.5 -35.5v-132h-13q-3 0 -5 -2t-2 -5t2 -5t5 -2h232q3 0 5 2t2 5t-2 5t-5 2zM39 176q0 15 10.5 25.5t25.5 10.5h106q15 0 25.5 -10.5t10.5 -25.5v-132h-19v131q0 8 -6 13.5t-14 5.5h-101 q-8 0 -13.5 -5.5t-5.5 -13.5v-131h-19v132zM72 123v52q0 2 1.5 3.5t4.5 1.5h43v-57h-49zM135 180h44q2 0 3.5 -2t1.5 -4v-52h-49v58zM72 44v65h112v-65h-112z" />
</svg>