<svg viewBox="0 0 1024 1024" xmlns="http://www.w3.org/2000/svg">
  <path transform="scale(1, -1) translate(0, -960)" fill="currentColor" d="M950 518l-209 116l137 137q5 5 5 11.5t-5 11.5q-4 4 -10.5 4t-11.5 -4l-144 -144l-130 236q-10 20 -28.5 31t-41.5 11t-41.5 -11t-28.5 -31l-130 -236l-144 144q-5 4 -11.5 4t-10.5 -4q-5 -5 -5 -11.5t5 -11.5l137 -137l-209 -116q-20 -10 -31 -28.5t-11 -41.5t11 -41.5 t31 -28.5l236 -130l-144 -144q-4 -5 -4 -11.5t4 -10.5q3 -3 6 -4t6 -1q2 0 5 1t6 4l137 137l116 -209q10 -20 28.5 -31t41.5 -11t41.5 11t28.5 31l116 209l137 -137q3 -3 6 -4t5 -1q3 0 6 1t6 4q4 4 4 10.5t-4 11.5l-144 144l236 130q20 10 31 28.5t11 41.5t-11 41.5 t-31 28.5v0zM934 405l-241 -133q-3 -1 -4 -2.5t-3 -3.5l-132 -242q-6 -12 -17.5 -19t-26.5 -7q-13 0 -24.5 7t-18.5 19l-133 242q-1 2 -2.5 3.5t-3.5 2.5l-238 133q-12 7 -19 18.5t-7 24.5t7 24.5t19 18.5l241 133q3 1 4 2.5t3 3.5l132 242q6 11 17.5 17.5t24.5 6.5t24.5 -7 t18.5 -19l133 -241q1 -3 2.5 -4t3.5 -3l242 -132q12 -6 19 -17.5t7 -26.5q-2 -12 -9 -23t-19 -18z" />
</svg>