<svg viewBox="0 0 256 256" xmlns="http://www.w3.org/2000/svg">
  <path transform="scale(1, -1) translate(0, -256)" fill="currentColor" d="M239 148l-49 27l32 32q2 2 2 5t-2.5 5t-5 2t-4.5 -2l-34 -33l-30 55q-3 5 -8 8.5t-11.5 3.5t-12 -3.5t-8.5 -8.5l-31 -56l-33 33q-2 3 -5 3t-5 -2.5t-2 -5t2 -5.5l32 -31l-49 -27q-5 -3 -8.5 -8t-3.5 -11.5t3.5 -12t8.5 -8.5l56 -31l-33 -33q-2 -2 -2 -5t2 -5t5 -2t5 2 l31 32l27 -49q3 -5 8.5 -8.5t12 -3.5t12 3.5t8.5 8.5l27 49l31 -32q2 -2 5 -2t5 2t2 5t-2 5l-33 34l55 30q6 3 9 8.5t3 11.5t-3 11.5t-9 8.5zM232 120l-60 -33q-2 -1 -3 -3l-33 -60q-3 -5 -8.5 -5t-7.5 5l-33 60q-1 2 -3 3l-60 33q-5 3 -5 8.5t5 7.5l60 33q2 1 3 3l33 60 q3 5 8.5 5t7.5 -5l33 -60q1 -2 3 -3l60 -33q5 -3 5 -8t-5 -8z" />
</svg>