<svg viewBox="0 0 256 256" xmlns="http://www.w3.org/2000/svg">
  <path transform="scale(1, -1) translate(0, -256)" fill="currentColor" d="M196 210q-1 0 -2 1q-8 17 -23 27t-33.5 10t-34 -10.5t-22.5 -27.5q-1 -1 -2 -1q-19 4 -38 -4q-14 -7 -23.5 -19t-11.5 -26.5t1.5 -27.5t12.5 -23.5t21 -16t26 -5.5q3 0 5 2t2 5t-2 5t-5 2q-11 0 -20.5 4.5t-16 12t-9.5 17.5t-1.5 21.5t9 21t18.5 14.5q14 6 29 3 q6 -1 11 1.5t7 7.5q5 14 17.5 22t26.5 8t26 -8t18 -20q3 -9 13 -10q19 -2 31.5 -17t10.5 -35q-1 -6 -2.5 -10t0 -6.5t4 -3.5t5 0.5t3.5 3.5q3 8 3 15q2 16 -4.5 31t-19.5 24.5t-30 11.5zM221 103q0 9 -6.5 16t-16.5 7q-3 0 -5 -2t-2 -5t2 -5t5.5 -2t6 -3t2.5 -6.5t-2.5 -6.5 t-6.5 -3h-92q-3 0 -5 -2t-2 -5t2 -5t5 -2h92q10 1 16.5 7.5t6.5 16.5zM219 50h-92q-3 0 -5 -2t-2 -5t2 -5t5 -2h92q3 0 6 -3t3 -6.5t-2.5 -6.5t-2.5 -5.5t2 -5t4.5 -2.5t5.5 2q7 7 7 17t-7 17t-16 7z" />
</svg>