<svg viewBox="0 0 1024 1024" xmlns="http://www.w3.org/2000/svg">
  <path transform="scale(1, -1) translate(0, -960)" fill="currentColor" d="M534 656q-14 4 -28.5 6t-30.5 2q-44 0 -83 -17t-68 -46t-46 -68t-17 -83q0 -45 17 -84q16 -39 45.5 -68t68.5 -46t83 -17q11 0 22 1.5t21 3.5q6 1 10 6.5t3 12.5q-1 6 -6.5 10t-12.5 3q-10 -2 -18.5 -2.5t-18.5 -0.5q-75 0 -128.5 53.5t-53.5 128.5q0 76 53.5 129.5 t128.5 53.5q13 0 25.5 -1.5t24.5 -5.5q6 -2 12 1.5t7 9.5q2 5 -1 11t-9 7zM462 773q8 0 12 4.5t4 11.5v78q0 7 -4 11.5t-12 4.5q-7 0 -11.5 -4.5t-4.5 -11.5v-78q0 -7 4.5 -11.5t11.5 -4.5zM462 123q-7 0 -11.5 -4.5t-4.5 -11.5v-78q0 -7 4.5 -11.5t11.5 -4.5q8 0 12 4.5 t4 11.5v78q0 7 -5 11.5t-11 4.5zM210 219l-56 -56q-5 -5 -5 -11t5 -11q2 -3 5 -4t6 -1t6 1t5 4l56 56q5 5 5 11t-5 11q-4 5 -11 5t-11 -5v0zM126 464h-78q-7 0 -11.5 -4.5t-4.5 -11.5t4.5 -11.5t11.5 -4.5h78q8 0 12 4.5t4 11.5t-4 11.5t-12 4.5zM178 755q-5 5 -11.5 5 t-11.5 -5t-5 -11t5 -11l56 -56q3 -3 6 -4t5 -1q4 0 6.5 1t5.5 4q4 5 4 11t-4 11l-56 56v0zM907 709q-7 0 -11.5 -4.5t-4.5 -11.5t4.5 -11.5t11.5 -4.5q22 0 37.5 -15.5t15.5 -37.5t-15.5 -37.5t-37.5 -15.5h-241q-8 0 -12 -4.5t-4 -11.5t4 -11.5t12 -4.5h241q35 0 60 25 t25 60q0 36 -25 60.5t-60 24.5zM862 307h-196q-8 0 -12 -4.5t-4 -11.5t4 -11.5t12 -4.5h196q22 0 37.5 -15.5t15.5 -37.5q0 -21 -15.5 -36.5t-37.5 -15.5q-7 0 -11.5 -4.5t-4.5 -11.5q0 -8 4.5 -12t11.5 -4q35 0 60 25t25 59q0 35 -25 60t-60 25v0zM910 422q0 8 -4 12t-12 4 h-292q-8 0 -12 -4t-4 -12q0 -7 4 -11.5t12 -4.5h292q8 0 12 5t4 11v0z" />
</svg>