<svg viewBox="0 0 1024 1024" xmlns="http://www.w3.org/2000/svg">
  <path transform="scale(1, -1) translate(0, -960)" fill="currentColor" d="M723 291q41 45 61 101t16 117l-26 342q-2 33 -26 55t-55 22h-362q-32 0 -55.5 -22t-25.5 -55l-26 -344q-5 -60 15 -116.5t62 -100.5q38 -42 88.5 -65t106.5 -27v-198h-138q-7 0 -11.5 -4.5t-4.5 -11.5t4.5 -11.5t11.5 -4.5h306q7 0 11.5 4.5t4.5 11.5t-4.5 11.5 t-11.5 4.5h-136v200q56 4 106.5 27t88.5 64zM282 850q1 19 15.5 32.5t33.5 13.5h360q19 0 34 -13.5t16 -32.5l11 -159h-482l12 159v0zM256 506l11 153h488l11 -153q4 -54 -13.5 -104t-53.5 -88q-37 -40 -85 -61t-102 -21t-102.5 21t-84.5 61q-37 39 -55 88.5t-14 103.5z" />
</svg>