<svg viewBox="0 0 256 256" xmlns="http://www.w3.org/2000/svg">
  <path transform="scale(1, -1) translate(0, -256)" fill="currentColor" d="M183 87q10 11 15.5 26t4.5 30l-7 86q0 9 -7 15.5t-16 6.5h-90q-10 0 -16.5 -6.5t-7.5 -15.5l-6 -86q-1 -15 4 -30t15 -25.5t22.5 -17t26.5 -7.5v-44h-31q-3 0 -5.5 -2t-2.5 -5t2.5 -5.5t5.5 -2.5h76q3 0 5 2.5t2 5.5t-2 5t-5 2h-31v44q14 1 26.5 7.5t21.5 16.5zM83 237 h90q3 0 6 -2.5t3 -6.5l3 -36h-114l3 36q0 4 2.5 6.5t6.5 2.5zM67 142l3 36h116l2 -36q2 -26 -16 -46q-8 -9 -20 -14t-24 -5q-27 0 -45 19q-9 10 -13 22t-3 24z" />
</svg>