<svg viewBox="0 0 256 256" xmlns="http://www.w3.org/2000/svg">
  <path transform="scale(1, -1) translate(0, -256)" fill="currentColor" d="M183 87q10 11 15.5 26t4.5 30l-7 86q0 9 -7 15.5t-16 6.5h-90q-10 0 -16.5 -6.5t-7.5 -15.5l-6 -86q-1 -15 4 -30t15 -25.5t22.5 -17t26.5 -7.5v-44h-31q-3 0 -5 -2t-2 -5t2 -5.5t5 -2.5h76q3 0 5.5 2.5t2.5 5.5t-2.5 5t-5.5 2h-31v44q14 1 26.5 7.5t21.5 16.5zM83 237 h90q3 0 6 -2.5t3 -6.5l3 -32l-19 -9q-8 -4 -17.5 -3.5t-17.5 5.5q-9 6 -20.5 7.5t-22.5 -2.5l-18 -6l3 40q0 4 3 6.5t7 2.5zM67 142l3 31l23 8q8 3 16 2t15 -6q12 -8 27 -8q12 0 22 5l13 6l3 -38q2 -26 -16 -46q-8 -10 -20 -15t-25 -5q-26 0 -44.5 19.5t-16.5 46.5z" />
</svg>