<svg viewBox="0 0 1024 1024" xmlns="http://www.w3.org/2000/svg">
  <path transform="scale(1, -1) translate(0, -960)" fill="currentColor" d="M976 128h-62q-3 73 -28 138q-25 64 -68 116t-100 88q-58 36 -124 50q32 20 51 53.5t19 74.5q0 62 -44 107t-108 45q-62 0 -107 -44t-45 -108q0 -41 19.5 -74.5t50.5 -53.5q-66 -14 -123 -50q-58 -35 -100.5 -87t-67.5 -117q-26 -65 -29 -138h-62q-7 0 -11.5 -4.5 t-4.5 -11.5t4.5 -11.5t11.5 -4.5h928q7 0 11.5 4.5t4.5 11.5t-4.5 11.5t-11.5 4.5zM392 648q0 49 35 84.5t85 35.5t85 -35t35 -85t-35.5 -85t-84.5 -35t-84.5 35.5t-35.5 84.5zM418 485q-24 -25 -44 -61q-20 -37 -35 -82.5t-23 -99.5t-9 -112h-165q3 63 25 121 q22 57 58.5 103.5t85.5 80.5t107 50zM339 128q1 76 16 143q14 66 37.5 116.5t54.5 79.5t65 29t65 -29t54.5 -79t37.5 -117q15 -67 16 -143h-346v0zM717 128q-1 59 -10 112q-8 54 -22.5 100t-34.5 82q-21 37 -45 61q57 -15 107 -49q49 -33 85.5 -79.5t58.5 -104.5t24 -122 h-163z" />
</svg>