<svg viewBox="0 0 256 256" xmlns="http://www.w3.org/2000/svg">
  <path transform="scale(1, -1) translate(0, -256)" fill="currentColor" d="M244 51h-13q-2 35 -23 61t-53 36q7 5 10.5 13t3.5 17q0 17 -12 29t-28.5 12t-28.5 -12t-12 -29q0 -9 3.5 -17t10.5 -13q-32 -9 -53.5 -35.5t-23.5 -61.5h-13q-3 0 -5 -2t-2 -5t2 -5t5 -2h232q3 0 5 2t2 5t-2 5t-5 2zM128 205q11 0 19 -8t8 -19t-8 -19t-19 -8t-19 8t-8 19 t8 19t19 8zM96 131q-10 -14 -15.5 -34.5t-6.5 -45.5h-35q2 27 17.5 48.5t39.5 31.5zM88 51q1 25 7 44.5t15 30.5t18 11t18 -11t15 -30.5t7 -44.5h-80zM182 51q-1 25 -6.5 45.5t-15.5 34.5q24 -10 39.5 -31.5t17.5 -48.5h-35z" />
</svg>