<svg viewBox="0 0 256 256" xmlns="http://www.w3.org/2000/svg">
  <path transform="scale(1, -1) translate(0, -256)" fill="currentColor" d="M218 4q-3 0 -5 2t-2 5t3 5.5t2.5 9.5t-3.5 16q-7 19 -24 37l-1 -2q-6 -6 -14 -5.5t-13 5.5l-10 10l-11 -11q-6 -5 -14 -5t-13 5l-65 65q-5 6 -5 14t5 13l4 3l-21 21q-5 5 -5.5 13t5.5 13l29 29q5 6 13 6t13 -6l21 -21l3 4q6 5 14 5t13 -5l65 -65q6 -6 6 -14t-6 -13 l-10 -11l10 -10q5 -5 5 -13t-5 -14l-2 -2q19 -21 27 -42q10 -27 -3 -40q-3 -2 -6 -2zM66 166l-8 -8q-1 -1 -1 -3.5t1 -3.5l65 -65q1 -1 3.5 -1t3.5 1l62 62q1 1 1 3t-1 4l-65 65q-2 1 -4 1t-3 -1l-54 -54v0v0zM160 97l10 -10q2 -2 4 -2t4 2l13 13q2 2 2 4t-2 4l-10 10z M73 238q-2 0 -3 -2l-29 -28q-1 -1 -1 -3.5t1 -3.5l21 -21l35 36l-20 20q-2 2 -4 2zM137 119q-3 0 -5 2t-2 5v21h-17q-3 0 -5 2t-2 5v26q0 3 2 5t5 2t5 -2t2 -5v-19h17q3 0 5 -2t2 -5v-29q0 -2 -2 -4t-5 -2z" />
</svg>