<svg viewBox="0 0 256 256" xmlns="http://www.w3.org/2000/svg">
  <path transform="scale(1, -1) translate(0, -256)" fill="currentColor" d="M224 251h-192q-9 0 -15.5 -6.5t-6.5 -16.5v-83q0 -9 6.5 -15.5t15.5 -6.5h28l-3 -6q-21 -29 -21 -63v-27q0 -9 6.5 -15.5t16.5 -6.5h67q9 0 15.5 6.5t6.5 15.5v27q0 30 18 55q5 7 8 14h49q9 0 16 6.5t7 15.5v83q0 10 -6.5 16.5t-15.5 6.5zM74 170h-5q-4 0 -6.5 2t-2.5 6 v18q0 4 2.5 6t6.5 2h6v-31zM134 54v-26q0 -4 -2 -6.5t-6 -2.5h-67q-4 0 -6.5 2.5t-2.5 6.5v26q0 31 18 56q6 8 10 17v1q8 17 10 34v11v31h84v-31q0 -31 -17 -55q-21 -29 -21 -64zM186 173v31h6q4 0 6.5 -2t2.5 -6v-18q0 -3 -2.5 -5.5t-6.5 -2.5h-6v3zM232 146 q0 -4 -2.5 -6.5t-5.5 -2.5h-44q3 9 5 19h7q10 0 16.5 6.5t6.5 15.5v18q0 9 -6.5 15.5t-16.5 6.5h-124q-9 0 -15.5 -6.5t-6.5 -15.5v-18q0 -9 6.5 -15.5t15.5 -6.5h5q-2 -11 -5 -19h-36q-3 0 -5.5 2.5t-2.5 6.5v82q0 4 2.5 6.5t5.5 2.5h192q3 0 5.5 -2.5t2.5 -6.5v-82z M112 136q-9 0 -15.5 -8t-6.5 -19t6.5 -18.5t15.5 -7.5t15 7.5t6 18.5t-6.5 19t-14.5 8zM112 97q-3 0 -5.5 3.5t-2.5 9t2.5 9t5 3.5t5 -3.5t2.5 -9t-2.5 -9t-4.5 -3.5zM107 166q3 0 5 2t2 5v14q0 3 -2 5t-5 2t-5 -2t-2 -5v-14q0 -3 2 -5t5 -2zM112 60q-3 0 -5 -2t-2 -5v-14 q0 -3 2 -5t5 -2t5.5 2t2.5 5v14q-1 3 -3 5t-5 2z" />
</svg>