<svg viewBox="0 0 1024 1024" xmlns="http://www.w3.org/2000/svg">
  <path transform="scale(1, -1) translate(0, -960)" fill="currentColor" d="M894 928h-764q-33 0 -55 -23t-22 -55v-333q0 -33 23 -56t55 -23h133l-12 -20t-14 -21q-38 -54 -58 -117.5t-20 -130.5v-106q0 -32 23 -55t55 -23h268q32 0 55 23t23 55v106q0 62 19 120t55 109q9 14 18.5 28.5t16.5 30.5h205q32 0 55 23t23 55v335q-4 32 -26.5 55 t-55.5 23v0zM629 400q-39 -54 -59 -117.5t-20 -130.5v-106q0 -19 -13.5 -32.5t-32.5 -13.5h-269q-19 0 -32.5 13.5t-13.5 32.5v106q0 62 18.5 120t54.5 109q12 17 22 34t18 35v0v1q15 33 24.5 66.5t12.5 68.5v0.5v0.5v0v0q1 10 1.5 20.5t0.5 19.5v136v1v1h360v-1v-1v-136 q0 -61 -18.5 -119t-53.5 -108zM309 603h-35q-20 0 -33.5 13.5t-13.5 33.5v70q0 19 13.5 32.5t33.5 13.5h35v-0.5v-0.5v-136q1 -7 0.5 -13.5t-0.5 -12.5v0zM733 765h37q19 0 32.5 -13.5t13.5 -33.5v-70q0 -19 -13.5 -32.5t-32.5 -13.5h-39q0 6 1 12t1 13v136v1v1v0zM939 518 q0 -19 -13.5 -32.5t-32.5 -13.5h-189q10 24 16 49t10 50h41q33 0 56 23t23 56v70q0 32 -23 55t-56 23h-496q-32 0 -55 -23t-23 -55v-70q0 -33 23 -56t55 -23h31q-4 -25 -11 -50t-18 -49h-147q-20 0 -33.5 13.5t-13.5 32.5v332q1 19 14 32.5t33 13.5h764q20 0 33.5 -13.5 t13.5 -32.5v-332h-2zM446 467q-30 0 -51.5 -27t-21.5 -66q0 -38 21 -65t52 -27q30 0 52 27t22 65q-1 39 -22.5 66t-51.5 27zM446 312q-16 0 -28.5 18.5t-12.5 42.5t12.5 42.5t28.5 18.5q17 0 29.5 -18.5t12.5 -42.5t-13 -42.5t-29 -18.5zM429 611q7 0 11.5 4.5t4.5 11.5v58 q0 7 -4.5 11.5t-11.5 4.5t-11.5 -4.5t-4.5 -11.5v-58q0 -7 5 -11.5t11 -4.5zM450 165q-8 0 -12 -4.5t-4 -11.5v-58q0 -7 4 -11.5t12 -4.5q7 0 11.5 4.5t4.5 11.5v58q0 7 -5 11.5t-11 4.5z" />
</svg>