<svg viewBox="0 0 256 256" xmlns="http://www.w3.org/2000/svg">
  <path transform="scale(1, -1) translate(0, -256)" fill="currentColor" d="M128 252q-34 0 -62.5 -16.5t-45 -45t-16.5 -62.5t16.5 -62.5t45 -45t62.5 -16.5t62.5 17t45 45.5t16.5 61.5t-17 61.5t-45.5 45.5t-61.5 17zM238 128q0 -31 -15.5 -56.5t-41.5 -39.5l33 85q12 32 16 52q8 -20 8 -41zM152 182h-57q-4 0 -4 -4t4 -4h8l14 -36l-17 -43 l-30 79h10q4 0 4 4t-4 4l-43 1q13 24 37.5 38t53.5 14q21 0 40 -7.5t33 -21.5q-7 -1 -12.5 -6.5t-7.5 -13t0 -15.5q2 -5 6 -13l1 -2q4 -8 5 -13q2 -6 -1 -13l-14 -38l-32 82h6q4 0 4 4q0 2 -1.5 3t-2.5 1zM18 128q0 21 8 40l54 -139q-28 14 -45 40.5t-17 58.5zM129 104 l32 -81q-17 -5 -33.5 -5t-29.5 4z" />
</svg>