<svg viewBox="0 0 1024 1024" xmlns="http://www.w3.org/2000/svg">
  <path transform="scale(1, -1) translate(0, -960)" fill="currentColor" d="M512 944q-103 0 -194 -39q-90 -39 -157 -106.5t-106 -157.5t-39 -193t39 -193t106 -157.5t157 -106.5q91 -39 194 -39t194 39q90 39 157 106.5t106 158.5q39 90 39 192t-39 192t-106.5 157.5t-158.5 107.5q-90 39 -192 39zM952 448q0 -62 -17 -120q-16 -57 -46 -106.5 t-72 -89.5t-92 -68l128 330q5 13 30 81t37 138q16 -40 24 -81.5t8 -83.5zM606 664h-225q-7 0 -11.5 -4.5t-4.5 -11.5t4.5 -11.5t11.5 -4.5h32l56 -144l-67 -173l-122 319h38q8 0 12 4t4 12q0 7 -4 11.5t-12 4.5h-65l-106 1q27 48 66 86q39 39 86 66.5t101 42.5t112 15 q42 0 82 -8t77.5 -23.5t70.5 -36.5q34 -22 63 -49q-30 -5 -52.5 -26.5t-29.5 -50.5q-7 -33 2 -61.5t22 -53.5q13 -28 23 -54t0 -56l-60 -154l-126 330h24q7 0 11.5 4t4.5 12q0 6 -6.5 10t-11.5 4v0zM72 448q0 42 8 82.5t24 77.5l216 -555q-56 26 -102 67q-45 40 -77.5 91.5 t-50.5 111.5t-18 125zM517 354l128 -325q-33 -10 -65.5 -15.5t-67.5 -5.5q-32 0 -62.5 4t-59.5 14z" />
</svg>