<svg viewBox="0 0 1024 1024" xmlns="http://www.w3.org/2000/svg">
  <path transform="scale(1, -1) translate(0, -960)" fill="currentColor" d="M938 701q-10 17 -23 34.5t-25 30.5q-35 42 -78 75q-42 33 -90.5 56t-101.5 35t-108 12q-74 0 -143 -20q-68 -21 -127 -58.5t-106 -91.5t-77 -121q-1 -4 -3 -7.5t-3 -5.5q-1 -5 -4.5 -12.5t-6.5 -16.5q0 -1 -1 -3t-1 -3q-13 -39 -18.5 -79t-5.5 -78q0 -66 16 -128 q17 -62 48 -116.5t76 -100.5q45 -45 102 -79l6 -5q7 -3 13.5 -7t13.5 -6q4 -1 6 -3t5 -3h2q5 -4 12.5 -6t14.5 -5l2 -2q42 -17 87.5 -25t93.5 -8q25 0 50 2t50 9q9 1 16.5 3t15.5 3q10 1 20.5 4.5t19.5 8.5q17 5 32.5 12.5t30.5 16.5q59 32 107 79q48 46 82 102.5t52 120.5 q18 65 18 133q0 67 -17 131t-53 122v0zM512 888q40 0 79 -7q39 -8 76 -22t71 -34q35 -21 65 -47q-55 -26 -35 -87t37 -107q5 -13 8 -25t3 -23l-90 -270l-104 310q10 1 19 8.5t9 18.5q0 12 -8 20.5t-21 8.5h-237q-10 -1 -18 -8.5t-8 -18.5q0 -12 8 -20.5t21 -8.5h13l61 -176 l-43 -133l-106 309q10 1 16 8.5t6 18.5q0 12 -7.5 20.5t-20.5 8.5h-188q26 58 66 105q41 47 92.5 80.5t111.5 52.5q60 18 124 18v0zM461 574v0h96l136 -398l-45 -147h-2l-51 155l-134 390v0zM331 50l-179 524h99l136 -398l-43 -133q-5 1 -7.5 2.5t-5.5 4.5zM72 448 q0 32 4.5 64t13.5 62l164 -480q-43 30 -77 68q-34 39 -57 84.5t-36 96.5q-12 51 -12 105zM397 24l94 285l98 -291q-21 -4 -39.5 -5.5t-37.5 -1.5q-30 -2 -59 1.5t-56 11.5v0zM720 62q-1 0 -1.5 -0.5l-0.5 -0.5l167 499q7 17 13 35.5t11 36.5q20 -42 30 -89t10 -97 q1 -60 -15 -117q-16 -56 -46 -106t-72 -91q-43 -41 -96 -70z" />
</svg>