<svg viewBox="0 0 1024 1024" xmlns="http://www.w3.org/2000/svg">
  <path transform="scale(1, -1) translate(0, -960)" fill="currentColor" d="M926 691q-32 55 -76 98q-44 44 -96.5 74.5t-111.5 47.5q-59 16 -122 17h-8h-6h-5.5h-6.5h-3.5h-4.5q-60 -4 -117 -21q-56 -18 -106 -48t-92 -73q-42 -42 -73 -95q-33 -55 -49.5 -116.5t-16.5 -126.5q0 -77 23.5 -149t69.5 -134q32 -45 73 -80q40 -35 86 -60t97 -39 t105 -16q2 0 3 -1t2 -1h1.5h1.5h5.5h4.5h4h4h3.5h2.5q57 1 111 14q54 14 103 39t91 61q43 37 76 83q46 62 69.5 134t23.5 149q0 65 -16.5 126.5t-49.5 116.5zM960 448q0 -68 -20 -133t-60 -121q-48 14 -111 29t-126 22q12 49 19 100t7 103q0 40 -3.5 79t-11.5 78 q63 7 124.5 21t120.5 35q1 0 2.5 1t2.5 2q28 -49 42 -104.5t14 -111.5v0zM506 3l-2 -3v0v0h-2.5h-2.5l-1 3q-33 51 -57 103.5t-41 107.5q2 0 4 0.5t4 1.5q48 5 97.5 5t97.5 -3q-17 -57 -41 -110.5t-56 -104.5v0zM365 448q0 40 3.5 78.5t12.5 76.5q3 0 6 -0.5t7 -0.5 q28 -3 58 -5t60 -2q28 0 56 1.5t54 3.5q8 -38 11.5 -76.5t3.5 -77.5q0 -50 -6.5 -100t-19.5 -100q-50 5 -103 5t-103 -5q-4 0 -7.5 -0.5t-7.5 -0.5q-12 50 -18.5 100.5t-6.5 102.5v0zM499 896h2.5h2.5v0v0l2 -3q38 -61 65.5 -126t44.5 -133q-53 -5 -109 -5t-109 6 q-2 0 -4.5 0.5t-4.5 1.5q15 67 43 132t67 125v2v0zM888 691q-58 -20 -118.5 -33.5t-121.5 -20.5q-16 68 -42 132.5t-64 124.5q53 -3 103 -18q49 -15 93.5 -41t82.5 -63q38 -36 67 -81zM459 893q-36 -60 -62 -123.5t-42 -129.5q-56 7 -111 20.5t-108 32.5q28 42 63 76 t76.5 59.5t87.5 42.5q46 16 96 22zM120 664q55 -20 112.5 -34t116.5 -22q-7 -40 -11.5 -79.5t-4.5 -80.5q0 -53 6 -104.5t19 -101.5q-57 -9 -114 -22.5t-102 -27.5q-38 58 -58 123t-20 133q0 56 14 111.5t42 104.5v0zM165 166q43 14 96 26t107 19q16 -54 39 -106.5 t54 -101.5q-44 5 -85 18q-42 13 -79.5 33.5t-70.5 49.5q-34 28 -61 62v0zM541 2q31 50 55 103.5t39 108.5q58 -6 117.5 -19.5t106.5 -28.5q-29 -36 -65 -65q-36 -30 -76 -51t-85 -33t-92 -15v0z" />
</svg>