<svg viewBox="0 0 1024 1024" xmlns="http://www.w3.org/2000/svg">
  <path transform="scale(1, -1) translate(0, -960)" fill="currentColor" d="M810 653q-16 43 -46 76t-71 52q-40 18 -83 20.5t-84 -11.5l-40 109q-3 9 -9 15.5t-15 10.5q-8 3 -16.5 3t-16.5 -3q-69 -31 -119 -85q-51 -54 -78.5 -120t-30.5 -140q-3 -73 23 -145q19 -52 51 -95q32 -44 73 -76.5t89 -53.5q48 -20 101 -28v-182h-111q-7 0 -11.5 -4.5 t-4.5 -11.5t4.5 -11.5t11.5 -4.5h251q8 0 12 4.5t4 11.5t-4 11.5t-12 4.5h-108v179h9h10q25 0 51 3.5t53 11.5q8 2 15 7.5t10 12.5q4 9 5 18t-3 18l-42 115q44 17 75 47q32 31 50 70t20 83q2 45 -13 88v0zM691 229q0 -1 -2 -3t-4 -2q-67 -19 -133 -11q-67 8 -125 38t-103 80 q-46 50 -70 115q-24 66 -21 133q3 68 28 129t71 110q47 49 110 78q2 1 4 0.5t4 -0.5q2 -1 3.5 -2.5t2.5 -3.5l40 -111q-35 -17 -62 -44.5t-44 -62.5q-19 -41 -21 -86t13 -87q16 -43 46 -76t71 -52q23 -11 47 -16t49 -5q13 0 26.5 1.5t26.5 5.5l42 -115q2 -5 2 -8t-1 -5v0z M662 392q-37 -13 -75.5 -11.5t-72.5 17.5q-35 17 -61.5 45.5t-39.5 65.5t-12 75.5t18 73.5q17 34 45 60.5t66 39.5q16 6 33 9t34 3q21 0 41.5 -5t39.5 -13q35 -17 61.5 -45t39.5 -65v0q14 -38 12 -77q-3 -38 -18.5 -72t-44.5 -61q-28 -26 -66 -40z" />
</svg>