<svg viewBox="0 0 256 256" xmlns="http://www.w3.org/2000/svg">
  <path transform="scale(1, -1) translate(0, -256)" fill="currentColor" d="M205 180q-9 23 -30 33t-42 4l-9 25q-2 6 -7.5 8t-10.5 0q-23 -11 -38 -31.5t-19 -45.5t5 -50t30 -42.5t48 -21.5v-40h-25q-3 0 -5 -2t-2 -5t2 -5t5 -2h63q3 0 5 2t2 5t-2 5t-5 2h-24v39h2q13 0 26 4q6 1 8.5 6.5t1.5 11.5l-10 26q21 9 30 30.5t1 43.5zM66 128 q-7 21 -3.5 43t16 39.5t32.5 26.5l9 -25q-17 -9 -25 -27q-5 -11 -5.5 -23t3.5 -23q9 -23 31 -33q12 -6 25 -6q5 0 11 1l10 -26q-21 -6 -42 -1t-37.5 19.5t-24.5 34.5zM165 117q-19 -7 -35.5 1t-23 26.5t1.5 34.5q4 8 10.5 14.5t14.5 9.5t17 3t19 -5q17 -8 23.5 -26t-2 -35 t-25.5 -23z" />
</svg>