<svg viewBox="0 0 256 256" xmlns="http://www.w3.org/2000/svg">
  <path transform="scale(1, -1) translate(0, -256)" fill="currentColor" d="M235 188q-12 22 -32.5 37.5t-44.5 21.5q-16 4 -30 4q-17 0 -31 -4q-24 -7 -44 -22t-32 -37q-16 -29 -16 -60v-3q0 -34 19 -64q15 -23 38 -37.5t49 -17.5q7 -1 17 -1l15 1q27 3 50.5 17.5t38.5 38.5q18 29 19 63v3q0 31 -16 60zM205 135q-1 19 -10 39h32q8 -19 9 -39h-31z M172 188h-37v43q18 -13 37 -43zM121 231v-43h-39q20 30 39 43zM121 174v-39h-58q2 21 11 39h47zM121 121v-49h-44q-13 22 -14 49h58zM121 58v-34q-19 12 -35 34h35zM135 24v34h37q-16 -22 -37 -34zM135 72v49h57q-1 -27 -12 -49h-45zM135 135v39h45q9 -19 12 -39h-57z M219 188h-31q-19 31 -35 46h2q20 -6 36.5 -17.5t27.5 -28.5zM101 233h1q-17 -15 -36 -45v0h-29q11 17 27.5 28.5t36.5 16.5zM29 174h29q-7 -19 -9 -39h-30q1 20 10 39zM19 121h29q2 -27 13 -49h-27q-13 23 -15 49zM44 58h25q13 -21 30 -35q-32 8 -55 35zM158 23q18 14 30 35 h23q-22 -26 -53 -35zM221 72h-25q10 23 10 49h31q-2 -27 -16 -49z" />
</svg>