<svg viewBox="0 0 1024 1024" xmlns="http://www.w3.org/2000/svg">
  <path transform="scale(1, -1) translate(0, -960)" fill="currentColor" d="M931 685q-24 42 -57 79q-32 37 -70.5 66t-82.5 50q-44 22 -92 34q-31 7 -60 10.5t-57 3.5q-30 0 -60 -4t-60 -12q-47 -12 -90 -33q-43 -22 -81.5 -51t-70.5 -66q-32 -36 -56 -79q-31 -55 -46.5 -114t-15.5 -121v-11q1 -66 20.5 -129t54.5 -119q29 -45 66 -82 q38 -37 81.5 -64.5t92.5 -45.5t101 -24q14 -3 30 -4t34 -1q14 0 29.5 1t29.5 2q54 7 103 25q50 17 94.5 45t81.5 65q38 37 67 83q35 55 54.5 117.5t20.5 128.5v13q0 60 -15.5 120t-45.5 117v0zM781 426q0 -57 -13.5 -111.5t-39.5 -103.5h-200v221h253v-3v-3zM64 464 q1 47 12.5 91.5t32.5 87.5h142q-20 -42 -32 -87t-14 -92h-141v0zM288 643h208v-179h-258q3 47 15.5 92t34.5 87zM496 675h-189q48 77 95.5 129t93.5 78v-207zM528 882q43 -26 88.5 -77.5t92.5 -129.5h-181v207zM496 432v-221h-195q-30 51 -46.5 106.5t-16.5 114.5h258z M496 179v-165q-47 24 -93 67t-83 98h176zM528 14v165h181q-34 -54 -80 -96t-101 -69v0zM528 464v179h198q22 -42 35 -87t17 -92h-250zM763 643h154q20 -43 31 -88t12 -91h-149q-3 47 -16 92t-32 87zM899 675h-153q0 1 -1 1.5t-1 1.5q-44 76 -87.5 130t-85.5 85 q12 -1 25 -3.5t26 -6.5q44 -11 84 -31q40 -19 75.5 -45.5t65.5 -59.5q29 -33 52 -72zM400 882q12 3 25 5.5t25 3.5q-45 -31 -89 -83.5t-87 -124.5q-2 -2 -3 -3.5t-2 -4.5h-143q23 39 53 71q29 33 64 59.5t75 45.5q39 19 82 31zM64 432h141q1 -59 15.5 -114.5t41.5 -106.5 h-129v-1q-33 50 -50 106t-19 116v0zM154 179h129q34 -54 76 -98.5t87 -74.5q-44 6 -85 21q-42 14 -79 36t-70 51q-32 29 -58 65v0zM579 5q51 31 93 74t74 95q1 2 1 3v2h123q-27 -35 -59 -64q-33 -30 -70 -52t-78 -37t-84 -21zM891 210v0h-128q24 50 37 104.5t13 109.5v3v3 h147q-2 -58 -20 -114t-49 -106v0z" />
</svg>