<svg viewBox="0 0 256 256" xmlns="http://www.w3.org/2000/svg">
  <path transform="scale(1, -1) translate(0, -256)" fill="currentColor" d="M234 190q-17 28 -44.5 44.5t-59.5 16.5h-4q-32 0 -59.5 -16.5t-44.5 -44.5t-17 -62q0 -40 24 -72q17 -24 42.5 -37.5t54.5 -13.5h4q29 1 54.5 14t42.5 37q24 32 24 72q0 33 -17 62zM217 190q-28 -9 -53 -12q-7 30 -23 58q23 -3 43 -14.5t33 -31.5zM125 21q-14 23 -21 46 q20 2 43 0q-8 -24 -22 -46zM94 128q0 17 4 36v0q19 -2 31 -2t24 1q3 -18 3 -35q0 -23 -5 -47q-26 2 -50 0h-1q-6 23 -6 47zM150 177q-26 -2 -50 1q8 30 25 57q17 -26 25 -58zM109 235q-15 -27 -22 -56q-26 4 -48 11q12 18 30.5 30t39.5 15zM19 128q0 26 13 50q23 -8 52 -12 q-3 -17 -3 -38q0 -24 5 -49q-26 -4 -48 -11v-1q-19 27 -19 61zM46 56q21 7 44 10q7 -24 20 -45q-19 3 -35 12t-29 23zM141 20q13 22 20 46q26 -3 49 -10q-14 -15 -31.5 -24.5t-37.5 -11.5zM218 67l1 1q-28 9 -54 12q5 24 5 48q0 17 -3 37q29 3 58 13q12 -24 12 -50 q0 -32 -19 -61z" />
</svg>