<svg viewBox="0 0 1024 1024" xmlns="http://www.w3.org/2000/svg">
  <path transform="scale(1, -1) translate(0, -960)" fill="currentColor" d="M512 928q-99 0 -186 -38q-88 -38 -153 -103t-103 -153q-38 -87 -38 -186t38 -186q38 -88 103 -153t153 -103q87 -38 186 -38t186 38q88 38 153 103t103 153q38 87 38 186t-38 186q-38 88 -103 153t-153 103q-87 38 -186 38zM512 0q-92 0 -174 35q-81 36 -142 97t-97 142 q-35 82 -35 174t35 174q36 81 96.5 142t142.5 97q82 35 174 35t174 -35q81 -36 142 -96.5t97 -142.5q35 -82 35 -174t-35 -174q-36 -81 -96.5 -142t-142.5 -97q-82 -35 -174 -35zM386 595q0 -26 -19 -45t-45 -19q-27 0 -45.5 19t-18.5 45q0 27 18.5 45.5t45.5 18.5 q26 0 45 -18.5t19 -45.5zM766 595q0 -26 -18.5 -45t-45.5 -19q-26 0 -45 19t-19 45q0 27 19 45.5t45 18.5q27 0 45.5 -18.5t18.5 -45.5zM512 422q-59 0 -100.5 -41.5t-41.5 -100.5t41.5 -100.5t100.5 -41.5t100.5 41.5t41.5 100.5t-41.5 100.5t-100.5 41.5zM512 168 q-46 0 -78 32.5t-32 77.5q0 46 32 78.5t78 32.5t78 -32.5t32 -78.5q0 -45 -32 -77.5t-78 -32.5z" />
</svg>