<svg viewBox="0 0 256 256" xmlns="http://www.w3.org/2000/svg">
  <path transform="scale(1, -1) translate(0, -256)" fill="currentColor" d="M128 251q-33 0 -61.5 -16.5t-45 -45t-16.5 -61.5t16.5 -61.5t45 -45t61.5 -16.5t61.5 16.5t45 45t16.5 61.5t-16.5 61.5t-45 45t-61.5 16.5zM128 19q-29 0 -54 14.5t-40 39.5t-15 55t15 54.5t39.5 39.5t54.5 15t55 -15t39.5 -40t14.5 -54.5t-14.5 -54.5t-39.5 -39.5 t-55 -14.5zM64 165q0 -7 5 -11.5t11.5 -4.5t11 4.5t4.5 11t-4.5 11.5t-11 5t-11.5 -5t-5 -11zM160 165q0 -7 4.5 -11.5t11 -4.5t11.5 4.5t5 11t-5 11.5t-11.5 5t-11 -5t-4.5 -11zM128 124q-16 0 -27.5 -11t-11.5 -27t11.5 -27.5t27.5 -11.5t27.5 11t11.5 27.5t-11.5 27.5 t-27.5 11zM128 61q-10 0 -17.5 7.5t-7.5 17.5t7.5 17.5t17.5 7.5t17.5 -7.5t7.5 -17.5t-7.5 -17.5t-17.5 -7.5z" />
</svg>