<svg viewBox="0 0 256 256" xmlns="http://www.w3.org/2000/svg">
  <path transform="scale(1, -1) translate(0, -256)" fill="currentColor" d="M219 5q-13 0 -22 9l-119 120q-15 -4 -29.5 0t-26 15.5t-15.5 27t0 30.5q1 4 5 5t7 -2l27 -27l21 6l5 21l-26 27q-3 3 -2 7t5 4q15 5 30.5 0.5t26 -15t15 -25t1.5 -29.5l120 -120q9 -9 9 -22.5t-9.5 -22.5t-22.5 -9zM80 149q3 0 5 -2l122 -123q5 -5 12 -5t12.5 5.5 t5.5 12.5t-5 13l-122 122q-4 3 -2 7q3 12 0 24t-12 21q-12 12 -30 13l19 -20q3 -2 2 -7l-7 -29q-2 -4 -5 -5l-29 -7q-4 -2 -7 2l-19 19q1 -17 13 -30q9 -9 21.5 -12t24.5 0v1h1z" />
</svg>