<svg viewBox="0 0 1024 1024" xmlns="http://www.w3.org/2000/svg">
  <path transform="scale(1, -1) translate(0, -960)" fill="currentColor" d="M877 -32q-23 0 -44 9t-38 25l-480 483q-59 -17 -117.5 -1.5t-101.5 58.5q-42 44 -57.5 102.5t-0.5 117.5q2 3 5 6.5t7 4.5q3 1 7.5 0t8.5 -5l112 -112l97 26l26 99l-112 112q-4 3 -4.5 7t-0.5 9q1 3 4.5 6.5t6.5 4.5q58 16 116.5 0t101.5 -58q41 -42 56.5 -98t2.5 -113 l483 -486q34 -34 34 -82t-34 -81q-14 -17 -34.5 -25.5t-43.5 -8.5v0zM322 518q3 0 5.5 -1t5.5 -3l486 -490q12 -12 27 -18t31 -6q17 0 32 6t25 18q24 24 24 58.5t-24 58.5l-488 493q-3 3 -4.5 7t0.5 9q14 50 0.5 101t-50.5 87q-31 32 -73 46.5t-85 9.5l97 -97q4 -4 4.5 -7.5 t0.5 -8.5l-32 -115q-1 -4 -4.5 -7t-6.5 -5l-115 -30q-4 -1 -8.5 0t-7.5 5l-96 97q-5 -43 9 -85t45 -75q38 -38 91 -51t106 5q1 -1 2 -1.5t3 -0.5v0z" />
</svg>