<svg viewBox="0 0 256 256" xmlns="http://www.w3.org/2000/svg">
  <path transform="scale(1, -1) translate(0, -256)" fill="currentColor" d="M188 128q0 12 -5 23t-13 19v59q0 9 -6.5 15.5t-15.5 6.5h-40q-9 0 -15.5 -6.5t-6.5 -15.5v-59q-18 -17 -18 -42t18 -42v-59q0 -9 6.5 -15.5t15.5 -6.5h40q9 0 15.5 6.5t6.5 15.5v59q8 8 13 19t5 23zM100 229q0 3 2.5 5.5t5.5 2.5h40q3 0 5.5 -2.5t2.5 -5.5v-48 q-13 7 -28 7t-28 -7v48zM82 128q0 19 13.5 32.5t32.5 13.5t32.5 -13.5t13.5 -32.5t-13.5 -32.5t-32.5 -13.5t-32.5 13.5t-13.5 32.5zM156 27q0 -3 -2.5 -5.5t-5.5 -2.5h-40q-3 0 -5.5 2.5t-2.5 5.5v48q13 -7 28 -7t28 7v-48zM131 107q2 -2 5 -2t5 2t2 5t-2 5l-9 9v15 q0 3 -2 5t-5 2t-5 -2t-2 -5v-18q0 -3 2 -5z" />
</svg>