<svg viewBox="0 0 256 256" xmlns="http://www.w3.org/2000/svg">
  <path transform="scale(1, -1) translate(0, -256)" fill="currentColor" d="M195 129q0 18 -9 34l-15 70q-2 8 -9 13.5t-15 5.5h-40q-9 0 -15.5 -5.5t-8.5 -13.5l-15 -70q-9 -16 -9 -34t9 -33l15 -70q2 -8 8.5 -14t15.5 -6h40q8 0 15 6t9 14l15 69q9 17 9 34zM73 129q0 15 7 27.5t19.5 19.5t27 7t27 -7t20 -19.5t7.5 -27t-7.5 -27t-19.5 -20 t-27 -7.5q-23 0 -38.5 16t-15.5 38zM96 230q1 3 4 5.5t6 2.5h40q4 0 7 -2.5t4 -5.5l9 -46q-17 13 -39 13t-41 -13zM157 29q-1 -4 -4 -6.5t-6 -2.5h-40q-4 0 -7 2.5t-4 6.5l-9 45q17 -13 40 -13t40 13z" />
</svg>