<svg viewBox="0 0 1024 1024" xmlns="http://www.w3.org/2000/svg">
  <path transform="scale(1, -1) translate(0, -960)" fill="currentColor" d="M739 448q0 48 -19 90.5t-51 72.5v240q0 31 -23 54t-54 23h-160q-32 0 -54.5 -23t-22.5 -54v-238q-32 -31 -51 -73t-19 -90t19 -91t51 -73v-238q0 -32 23 -54.5t54 -22.5h160q32 0 54.5 23t22.5 54v237q32 30 51 72.5t19 90.5v0zM387 851q0 18 13.5 31.5t31.5 13.5h160 q19 0 32 -13.5t13 -31.5v-213q-27 18 -58.5 27.5t-66.5 9.5t-66 -10t-59 -27v213v0zM317 448q0 40 15 76q16 35 42.5 61.5t61.5 42.5q36 15 76 15t76 -15q35 -16 61.5 -42.5t42.5 -61.5q15 -36 15 -76t-15 -76q-16 -35 -42.5 -61.5t-61.5 -42.5q-36 -15 -76 -15t-76 15 q-35 16 -61.5 42.5t-42.5 61.5q-15 36 -15 76zM637 45q0 -19 -13.5 -32t-31.5 -13h-160q-19 0 -32 13.5t-13 31.5v214q27 -18 58.5 -27.5t66.5 -9.5t66 10t59 27v-214zM533 371q2 -2 5.5 -3.5t5.5 -1.5t5.5 1.5t5.5 3.5q5 5 5 11.5t-5 11.5l-40 40v67q0 7 -4.5 11.5 t-11.5 4.5t-11.5 -4.5t-4.5 -11.5v-74q0 -3 1.5 -6t3.5 -5l45 -45v0z" />
</svg>