<svg viewBox="0 0 1024 1024" xmlns="http://www.w3.org/2000/svg">
  <path transform="scale(1, -1) translate(0, -960)" fill="currentColor" d="M766 453q0 36 -9 69t-26 62v1v1l-59 278q-6 30 -30.5 49.5t-54.5 19.5h-160q-30 0 -54.5 -19.5t-30.5 -49.5l-59 -282v0v0q-17 -28 -26 -61t-9 -68q0 -36 9 -68.5t26 -61.5v0v0l59 -280q6 -30 30.5 -49.5t54.5 -19.5h160q30 0 54.5 19.5t30.5 49.5l59 280q17 28 26 61 t9 69v0zM373 858q3 19 18 31t35 12h160q19 0 34 -12t18 -31l48 -218q-34 34 -80.5 54t-98.5 20q-53 0 -98.5 -19.5t-80.5 -54.5zM507 680q47 0 88 -18q42 -18 72.5 -49t48.5 -72t18 -88t-18 -89q-17 -41 -48 -72.5t-73 -49.5q-41 -18 -88 -18t-88 18t-72 49t-49 72t-18 88 t18 89q17 41 48 72.5t72 49.5q42 18 89 18zM640 48q-4 -19 -19 -31t-34 -12h-160q-19 0 -34 12t-19 31l-46 218q35 -34 81.5 -54t99.5 -20q51 0 97.5 19t81.5 53z" />
</svg>