<svg viewBox="0 0 1024 1024" xmlns="http://www.w3.org/2000/svg">
  <path transform="scale(1, -1) translate(0, -960)" fill="currentColor" d="M630 675h-236q-27 0 -45.5 -18.5t-18.5 -45.5v-328q0 -26 18.5 -45t45.5 -19h236q27 0 45.5 19t18.5 45v328q0 27 -18.5 45.5t-45.5 18.5zM662 285q0 -13 -9 -22.5t-23 -9.5h-236q-14 0 -23 9.5t-9 22.5v326q0 13 9 22.5t23 9.5h236q14 0 23 -9.5t9 -22.5v-326zM438 896 h132q7 0 11.5 4.5t4.5 11.5t-4.5 11.5t-11.5 4.5h-132q-7 0 -11.5 -4.5t-4.5 -11.5t4.5 -11.5t11.5 -4.5v0zM395 766h218q7 0 11.5 4.5t4.5 11.5q0 8 -4.5 12t-11.5 4h-218q-7 0 -11.5 -4t-4.5 -12q0 -7 4.5 -11.5t11.5 -4.5v0zM570 0h-132q-7 0 -11.5 -4.5t-4.5 -11.5 t4.5 -11.5t11.5 -4.5h132q7 0 11.5 4.5t4.5 11.5t-4.5 11.5t-11.5 4.5zM613 130h-218q-7 0 -11.5 -4.5t-4.5 -11.5q0 -8 4.5 -12t11.5 -4h218q7 0 11.5 4t4.5 12q0 7 -4.5 11.5t-11.5 4.5zM574 459h-48q-2 0 -3 2t-1 3v80q0 7 -4.5 11.5t-11.5 4.5q-8 0 -12 -4.5t-4 -11.5 v-78q0 -16 11 -26.5t25 -10.5h48q8 0 12 4.5t4 11.5q0 6 -5 10t-11 4v0z" />
</svg>