<svg viewBox="0 0 1024 1024" xmlns="http://www.w3.org/2000/svg">
  <path transform="scale(1, -1) translate(0, -960)" fill="currentColor" d="M862 786h-3h-27.5t-26.5 1v34q0 44 -31.5 75.5t-75.5 31.5h-456q-45 0 -76.5 -31.5t-31.5 -75.5v-543q0 -12 5 -23t13 -20l243 -249h0.5h1.5v-2h1q9 -7 19.5 -11.5t22.5 -4.5h302q26 0 43.5 18t17.5 43v21v0v0l82 164q1 2 1 4v3l2 537q0 11 -7.5 19.5t-18.5 8.5v0z M856 651h-136v104q35 1 68 0.5t68 -1.5v-103zM189 245h206v-213l-206 213v0zM742 0h-302h-5.5t-5.5 2v248q0 10 -7.5 17.5t-18.5 7.5h-235v1.5v1.5v543q0 31 22 53t53 22h455q31 0 53 -22t22 -53v-34h-27h-28q-12 0 -20 -7.5t-8 -19.5l-2 -538v-3.5t2 -4.5l83 -164v0v0v-21 q0 -12 -9.5 -20.5t-21.5 -8.5v0zM787 90l-67 136v393h136v-393z" />
</svg>