<svg viewBox="0 0 256 256" xmlns="http://www.w3.org/2000/svg">
  <path transform="scale(1, -1) translate(0, -256)" fill="currentColor" d="M216 216h-12v5q0 12 -8.5 21t-21.5 9h-114q-12 0 -20.5 -9t-8.5 -21v-135q0 -7 5 -13l61 -63q5 -5 13 -5h76q7 0 12.5 5.5t5.5 12.5v5l20 40q1 2 1 4v134q0 4 -2.5 6.5t-6.5 3.5zM211 182h-28v20h28v-20zM96 31l-42 43h42v-43zM186 19h-76v59q0 4 -3 7t-7 3h-55v133 q0 7 4.5 11.5t10.5 4.5h114q7 0 11.5 -4.5t4.5 -11.5v-5h-11q-4 0 -7.5 -3t-3.5 -7v-134l1 -3l20 -41v-5q1 -2 -0.5 -3t-2.5 -1zM197 45l-14 28v95h28v-95z" />
</svg>