<svg viewBox="0 0 256 256" xmlns="http://www.w3.org/2000/svg">
  <path transform="scale(1, -1) translate(0, -256)" fill="currentColor" d="M89 178l5 6l-9 8q-21 19 -34 24q-6 2 -8 1.5t-6 -5.5q-11 -12 -19.5 -28.5t-10.5 -32.5l-3 -19v-12q3 -19 7.5 -33t13.5 -27l5 -7v2q-2 4 -1 13t5 19q7 18 23 44.5t32 46.5zM71 235q8 0 12 -1q7 -1 17.5 -4.5t17.5 -7.5l7 -4l3 -1l11 5q13 7 26 10.5t22 2.5h6l-4 1 q-6 4 -16.5 8t-20.5 6t-24.5 2t-23.5 -2q-16 -3 -29 -10q-8 -4 -9 -5t5 0zM129 151q-2 1 -15.5 -11.5t-24.5 -24.5q-21 -23 -33 -41t-12 -30q0 -5 3.5 -9t13.5 -11q26 -17 55 -20q13 -1 26 0.5t24 5.5q14 4 29 13t18 15.5t-4 22t-24 36.5q-10 12 -31 33t-25 21zM250 152 q-6 25 -21 48q-5 6 -10 11.5t-7.5 5.5t-8 -2t-9.5 -5q-8 -5 -24 -19l-8 -7l7 -9q17 -21 33 -48.5t21.5 -45t3.5 -25.5v-3l1 1q2 3 6 10t6 12q6 14 10 29q2 8 1.5 23t-1.5 24z" />
</svg>