<svg viewBox="0 0 1024 1024" xmlns="http://www.w3.org/2000/svg">
  <path transform="scale(1, -1) translate(0, -960)" fill="currentColor" d="M357 650l21 24l-37 32q-46 40 -78 62t-60 32q-21 8 -29.5 5.5t-26.5 -21.5q-42 -46 -75.5 -113.5t-44.5 -131.5q-8 -53 -10 -74.5t1 -46.5q9 -76 28 -132.5t55 -109.5q15 -22 18.5 -27.5t-1.5 6.5q-7 17 -1.5 53.5t19.5 74.5q14 37 37 83q24 46 53.5 95.5t63.5 97.5 q33 49 67 91zM283 875h23.5t24.5 -1q28 -5 69.5 -19.5t73.5 -30.5q14 -10 26 -15t12 -4l13 6t30 15q55 27 105.5 40t86.5 11l24 -2l-16 5q-25 17 -67.5 32.5t-81.5 23.5q-37 8 -95.5 8t-96.5 -8q-32 -7 -59 -16t-56 -22q-32 -17 -35.5 -21t19.5 -2v0zM517 541 q-7 1 -61 -46.5t-101 -97.5q-42 -45 -75 -87q-33 -41 -55.5 -77t-34.5 -66q-12 -31 -12 -53t12.5 -38t54.5 -44q50 -34 106.5 -54t114.5 -24q46 -4 100 1t100 19q54 17 113.5 54t70.5 58q15 29 -14 92.5t-95 144.5q-21 25 -56 62t-70 71t-63 59q-29 25 -35 26v0zM998 544 q-12 53 -33 101t-50 91q-18 25 -38 46t-27 21q-12 0 -34 -7.5t-38 -19.5q-22 -13 -44.5 -31t-53.5 -46l-32 -27l29 -37q33 -42 67 -92q34 -51 63.5 -101t51.5 -97q23 -46 34 -79q9 -30 14 -59t2 -45q-1 -12 -1 -13.5t2 1.5q10 12 26.5 40.5t25.5 47.5q9 24 19.5 57.5 t16.5 59.5q9 35 8.5 95t-8.5 94v0z" />
</svg>