<svg viewBox="0 0 1024 1024" xmlns="http://www.w3.org/2000/svg">
  <path transform="scale(1, -1) translate(0, -960)" fill="currentColor" d="M978 306q-12 16 -29.5 25.5t-38.5 9.5h-46l-48 115q-10 23 -30.5 37t-44.5 14h-42l-48 115q-8 22 -29 36t-46 14h-94v58q0 7 -4.5 11.5t-11.5 4.5q-8 0 -12 -4.5t-4 -11.5v-58h-125v107q0 7 -4.5 11.5t-11.5 4.5t-11.5 -4.5t-4.5 -11.5v-109q-29 -6 -47.5 -28t-18.5 -52 v-83q-27 -1 -50 -18t-30 -44l-29 -104h-1q-18 0 -35 -8t-29 -21q-12 -14 -17.5 -32t-1.5 -37l11 -70q5 -30 28 -50.5t53 -20.5h759q25 0 46.5 15t30.5 40l27 73q6 18 2.5 38.5t-13.5 37.5v0zM259 589q0 20 14.5 34.5t35.5 14.5h267q16 0 28 -8.5t18 -21.5l44 -102h-407v83v0 zM178 435q4 17 18.5 28t32.5 11h512q15 0 27.5 -9t18.5 -22l43 -102h-678zM957 240l-27 -74q-6 -14 -18.5 -23t-28.5 -9h-758q-18 0 -32.5 13t-17.5 31l-11 70q-1 12 1.5 23t11.5 20q7 9 17.5 14t22.5 5h793q12 0 23.5 -5.5t18.5 -14.5q6 -12 8 -25t-3 -25v0z" />
</svg>