<svg viewBox="0 0 1024 1024" xmlns="http://www.w3.org/2000/svg">
  <path transform="scale(1, -1) translate(0, -960)" fill="currentColor" d="M971 -2l-59 28q16 22 24 49t8 55v33q0 16 -11 26.5t-26 10.5h-414v115h296q5 0 8.5 2.5t5.5 5.5q3 4 3 8.5t-3 7.5l-312 581q-2 5 -7.5 7t-9.5 1q-5 -1 -9 -5.5t-4 -10.5v-125l-240 -446q-3 -4 -3 -8.5t3 -7.5q2 -4 5.5 -6t8.5 -2h227v-115h-344q-15 0 -25.5 -11.5 t-10.5 -25.5v-34q0 -27 8 -54t24 -50l-60 -27q-6 -2 -8 -8.5t0 -12.5q3 -6 9 -8t12 0l77 35h1h1l9 5q10 5 20.5 5t19.5 -5l59 -27q16 -7 34 -7t34 7l59 27q9 5 19.5 5t20.5 -5l59 -27q16 -7 34 -7t33 7l59 27q10 5 20.5 5t19.5 -5l60 -27q15 -7 33 -7t34 7l59 27q10 5 20 5 t20 -5l86 -40q2 -2 4 -2.5t3 -0.5q5 0 8.5 2.5t5.5 7.5q3 6 0.5 12t-8.5 8v0zM493 848l269 -499h-269v499zM461 720v-370h-200zM818 38l-60 -27q-9 -5 -19.5 -5t-20.5 5l-59 27q-15 8 -33 8t-34 -8l-59 -27q-10 -5 -20.5 -5t-19.5 5l-61 27q-16 8 -34 8t-33 -8l-59 -27 q-10 -5 -20.5 -5t-19.5 5l-60 27q-15 8 -31.5 8t-32.5 -6q-14 19 -22 42.5t-8 48.5v34q0 2 2 3.5t3 1.5h789q2 0 3 -2t1 -3v-34q0 -25 -8 -48.5t-22 -42.5q-14 6 -30.5 5t-31.5 -7v0z" />
</svg>