<svg viewBox="0 0 1024 1024" xmlns="http://www.w3.org/2000/svg">
  <path transform="scale(1, -1) translate(0, -960)" fill="currentColor" d="M920 210q-2 3 -5.5 4.5t-7.5 1.5h-345v130h214q5 0 8.5 2t5.5 6q3 3 3 7.5t-3 8.5l-228 424v118q0 6 -3.5 10.5t-9.5 5.5q-5 1 -10 -1t-8 -7l-248 -459q-9 -18 -9 -38.5t11 -38.5t28 -28t39 -10h178v-130h-413q-4 0 -7.5 -2t-5.5 -4q-2 -4 -2.5 -7.5t0.5 -7.5l68 -177 q8 -23 28 -36.5t44 -13.5h542q24 0 44 14t28 36l67 177q1 4 0 7.5t-3 7.5v0zM749 378h-187v348zM312 400q-6 11 -6 22.5t4 22.5l220 403v-470h-178q-13 0 -23.5 5.5t-16.5 16.5v0zM826 29q-5 -13 -17 -21t-27 -8h-540q-15 0 -26.5 8t-17.5 21l-59 155h746z" />
</svg>