<svg viewBox="0 0 256 256" xmlns="http://www.w3.org/2000/svg">
  <path transform="scale(1, -1) translate(0, -256)" fill="currentColor" d="M233 70q-2 3 -6 3h-84v27h51q4 0 6 3.5t0 6.5l-57 105v29q0 2 -1.5 4t-3.5 2.5t-4.5 -0.5t-3.5 -3l-62 -115q-6 -11 0 -22q3 -5 8.5 -7.5t11.5 -2.5h41v-27h-100q-3 0 -5 -3t-1 -6l17 -45q2 -6 7.5 -10t12.5 -4h136q7 0 12.5 4t8.5 10l17 45q1 3 -1 6zM182 114h-38v72z M81 118q-3 4 0 8l48 90v-102h-41q-5 0 -7 4zM204 24q-1 -2 -3.5 -3.5t-4.5 -1.5h-136q-6 0 -8 5l-13 35h178z" />
</svg>