<svg viewBox="0 0 256 256" xmlns="http://www.w3.org/2000/svg">
  <path transform="scale(1, -1) translate(0, -256)" fill="currentColor" d="M247 94q-3 5 -8.5 7.5t-10.5 2.5h-10l-11 27q-2 6 -8 10t-13 4h-9l-11 27q-3 7 -8.5 10.5t-13.5 3.5h-20v12q0 3 -2 5t-5 2t-5 -2t-2 -5v-12h-26v24q0 3 -2 5t-5 2t-5 -2t-2 -5v-25q-7 -2 -11.5 -8t-4.5 -14v-18q-7 -1 -12.5 -6t-7.5 -12l-6 -23q-10 -1 -17 -9t-5 -19 l2 -18q1 -8 7.5 -14t15.5 -6h190q7 0 13 4.5t9 11.5l7 18q3 12 -3 22zM68 163q0 4 3 7t7 3h66q6 0 9 -6l9 -22h-94v18zM48 124q1 3 3.5 5.5t6.5 2.5h128q6 0 8 -6l9 -22h-161zM236 77l-6 -18q-1 -3 -3.5 -5t-5.5 -2h-190q-3 0 -6 2.5t-3 5.5l-3 18q-1 5 2 8.5t8 3.5h198 q5 0 8 -4t1 -9z" />
</svg>