<svg viewBox="0 0 256 256" xmlns="http://www.w3.org/2000/svg">
  <path transform="scale(1, -1) translate(0, -256)" fill="currentColor" d="M244 18l-12 6q7 11 7 24v9q0 5 -4 8.5t-9 3.5h-100v23h72q4 0 5.5 3.5t0.5 6.5l-78 145q-2 2 -4 3t-4.5 0.5t-4 -2.5t-1.5 -4v-30l-60 -111q-2 -4 0.5 -7.5t5.5 -3.5h54v-22h-82q-5 0 -9 -4t-4 -9v-8q0 -13 7 -25l-12 -5q-3 -1 -4 -4t0.5 -5.5t4 -3.5t5.5 0l21 10 q4 2 7 0l15 -7q10 -4 19 0l15 7q4 2 8 0l15 -7q9 -4 19 0l15 7q3 2 7 0l15 -7q10 -4 19 0l15 7q4 2 8 0l21 -10q2 -1 3 -1q4 0 6 3.5t1.5 6t-3.5 3.5zM126 216l60 -110h-60v110zM112 184v-78h-42zM203 28l-15 -6q-3 -2 -7 0l-15 6q-10 5 -19 0l-15 -6q-4 -2 -8 0l-14 6 q-10 5 -20 0l-14 -6q-4 -2 -8 0l-15 6q-8 4 -16 2q-5 8 -5 19v7h194v-7q0 -11 -6 -19q-9 1 -17 -2z" />
</svg>