<svg viewBox="0 0 1024 1024" xmlns="http://www.w3.org/2000/svg">
  <path transform="scale(1, -1) translate(0, -960)" fill="currentColor" d="M926 227h-432v93h295q5 0 8.5 2t5.5 6q3 4 3 8t-3 8l-310 576q-4 5 -9.5 7t-9.5 1q-5 -1 -9 -5.5t-4 -10.5v-125l-240 -443q-3 -4 -3 -8t3 -8q2 -4 5.5 -6t8.5 -2h226v-94h-363q-8 0 -12 -4.5t-4 -11.5v-98q0 -60 42 -102t102 -42h571q60 0 102 42t42 102v99q1 6 -4 11 t-11 5zM493 848l267 -496h-267v496zM461 720v-368h-199l199 368v0zM910 112q0 -47 -32.5 -79.5t-79.5 -32.5h-572q-47 0 -79.5 32.5t-32.5 79.5v83h795v-83h1z" />
</svg>