<svg viewBox="0 0 1024 1024" xmlns="http://www.w3.org/2000/svg">
  <path transform="scale(1, -1) translate(0, -960)" fill="currentColor" d="M963 875v0v0l-3.5 1t-7.5 1q-20 0 -38 -13t-18 -43l-12 -156q-7 -78 -14.5 -155.5t-16.5 -153.5q-9 -77 -19 -151v0v0v0v0q13 1 22.5 -1t20.5 -6v0q12 75 31 165q18 89 37 172.5t36 151.5q16 68 22 100q4 7 5.5 17t1.5 17q0 24 -13 37.5t-34 16.5v0zM710 883v0 q-30 -7 -59 -7t-57 7q-12 -23 -39 -68t-60 -99.5t-68 -112.5q-35 -57 -64 -104q-29 50 -60 102q-31 51 -61.5 101t-58.5 96t-50 85q-36 -7 -58 -7.5t-59 7.5q35 -53 79 -126q44 -72 86 -144.5t77 -135.5t54 -96l-8 -370l19.5 2.5t36.5 2.5q18 0 37 -2.5l19 -2.5l-6 370 q36 63 81 142q46 78 89 151t78 130q36 58 52 79q0 3 0 1.5v-1.5v0zM830 120q-28 0 -41 -17t-13 -39q0 -25 18 -38t44 -13q18 0 35 13t17 43q1 21 -16.5 36t-43.5 15z" />
</svg>