<svg viewBox="0 0 1024 1024" xmlns="http://www.w3.org/2000/svg">
  <path transform="scale(1, -1) translate(0, -960)" fill="currentColor" d="M512 928q-99 0 -186 -38q-88 -37 -153 -102t-103 -153q-38 -87 -38 -187t38 -187t103 -152.5t153 -102.5q87 -38 186 -38t186 38q88 38 153 103t103 153q38 87 38 186t-38 186q-38 88 -103 153t-153 103q-87 38 -186 38zM512 0q-92 0 -174 35q-81 35 -142 96t-97 142 q-35 82 -35 175t35 175q36 81 96.5 142t142.5 96t174 35t174 -35q81 -36 142 -96.5t97 -142.5q35 -82 35 -174t-35 -174q-36 -81 -96.5 -142t-142.5 -97q-82 -35 -174 -35zM512 506q-77 0 -130.5 -54.5t-53.5 -131.5t54 -131.5t130 -54.5t130 54.5t54 131.5q0 78 -53.5 132 t-130.5 54zM512 168q-64 0 -108 45t-44 109q0 63 45 108t107 45q64 0 108 -45t44 -108q0 -64 -44 -109t-108 -45zM392 669q-4 6 -10 7t-12 -4l-122 -85q-6 -3 -7 -9.5t4 -12.5q2 -4 5.5 -5.5t7.5 -1.5q2 0 4.5 1t4.5 3l122 84q5 4 6.5 11t-3.5 12v0zM654 674q-6 3 -12 2 t-10 -6q-4 -6 -3 -12t6 -10l122 -85q2 -1 4.5 -2t4.5 -1q4 0 7.5 1.5t5.5 4.5q4 6 3 12.5t-6 10.5z" />
</svg>