<svg viewBox="0 0 256 256" xmlns="http://www.w3.org/2000/svg">
  <path transform="scale(1, -1) translate(0, -256)" fill="currentColor" d="M173 194q-3 2 -5.5 1.5t-4.5 -2.5l-35 -47l-35 47q-2 2 -4.5 2.5t-5 -1t-3 -4.5t1.5 -5l39 -53v-7h-23q-3 0 -5.5 -2t-2.5 -5t2.5 -5.5t5.5 -2.5h23v-16h-23q-3 0 -5.5 -2t-2.5 -5t2.5 -5t5.5 -2h23v-24q0 -3 2 -5t5 -2t5.5 2t2.5 5v24h23q3 0 5 2t2 5t-2 5t-5 2h-23v16 h23q3 0 5 2.5t2 5.5t-2 5t-5 2h-23v7l39 53q1 2 0.5 5t-2.5 4zM128 251q-33 0 -61.5 -16.5t-45 -45t-16.5 -61.5t16.5 -61.5t45 -45t61.5 -16.5t61.5 16.5t45 45t16.5 61.5t-16.5 61.5t-45 45t-61.5 16.5zM128 19q-30 0 -54.5 15t-39.5 39.5t-15 54.5t15 54.5t39.5 39.5 t54.5 15t55 -15t39.5 -40t14.5 -54t-14.5 -54t-39.5 -40t-55 -15z" />
</svg>