<svg viewBox="0 0 256 256" xmlns="http://www.w3.org/2000/svg">
  <path transform="scale(1, -1) translate(0, -256)" fill="currentColor" d="M154 213q-2 1 -5 0.5t-5 -3.5l-16 -28l-16 28q-2 2 -5 3t-5 -0.5t-3 -4.5t1 -5l18 -31h-8q-3 0 -5 -2t-2 -5t2 -5t5 -2h11v-14h-11q-3 0 -5 -2t-2 -5t2 -5t5 -2h11v-10q0 -3 2 -5t5 -2t5.5 2t2.5 5v11h11q3 0 5 2t2 5t-2 5.5t-5 2.5h-11v13h11q3 0 5 2t2 5t-2 5t-5 2h-8 l18 31q1 2 0.5 4.5t-3.5 4.5zM54 164q0 20 10 36.5t27 26.5t37 10t37 -10t27 -26.5t10 -36.5q0 -16 -7.5 -31t-20.5 -26q-2 -2 -2.5 -4.5t1.5 -5.5t5.5 -3t4.5 2q16 13 24.5 30.5t8.5 37.5q0 24 -12 44t-32 31.5t-44 11.5t-44 -12t-32 -31.5t-12 -43.5q0 -3 2.5 -5t5.5 -2 t4.5 2t1.5 5zM208 59q-3 0 -5 -2t-2 -5v-24l-47 33q-6 4 -12 4h-49q-3 0 -5 2l-25 26q-2 2 -5 2t-5 -2t-2 -5t2 -5l25 -26q6 -7 15 -7h49q2 0 4 -1l44 -31h-22q-3 0 -5 -2t-2 -5t2 -5t5 -2h40q3 0 5.5 2t2.5 5v41q0 3 -2.5 5t-5.5 2z" />
</svg>