<svg viewBox="0 0 1024 1024" xmlns="http://www.w3.org/2000/svg">
  <path transform="scale(1, -1) translate(0, -960)" fill="currentColor" d="M779 904q4 6 2 12.5t-8 9.5q-6 4 -12.5 2t-8.5 -8l-240 -398l-240 398q-4 6 -10 7t-12 -2q-5 -3 -7 -9t2 -12l251 -418v-64h-195q-7 0 -11.5 -4t-4.5 -12q0 -7 4.5 -11.5t11.5 -4.5h195v-136h-195q-7 0 -11.5 -4t-4.5 -12q0 -7 4.5 -11.5t11.5 -4.5h195v-238 q0 -7 4.5 -11.5t11.5 -4.5t11.5 4.5t4.5 11.5v237h195q7 0 11.5 4.5t4.5 11.5t-4.5 11.5t-11.5 4.5h-195v136h195q7 0 11.5 4.5t4.5 11.5t-4.5 11.5t-11.5 4.5h-195v64z" />
</svg>