<svg viewBox="0 0 1024 1024" xmlns="http://www.w3.org/2000/svg">
  <path transform="scale(1, -1) translate(0, -960)" fill="currentColor" d="M611 776q-6 4 -12.5 2t-9.5 -7l-77 -128l-77 128q-3 6 -9.5 7.5t-12.5 -2.5t-7.5 -10t2.5 -12l85 -141h-53q-7 0 -11.5 -4.5t-4.5 -11.5t4.5 -11.5t11.5 -4.5h56v-77h-56q-7 0 -11.5 -4.5t-4.5 -11.5t4.5 -11.5t11.5 -4.5h56v-56q0 -7 4.5 -11.5t11.5 -4.5t11.5 4.5 t4.5 11.5v56h56q7 0 11.5 4.5t4.5 11.5t-4.5 11.5t-11.5 4.5h-56v77h56q7 0 11.5 4.5t4.5 11.5t-4.5 11.5t-11.5 4.5h-53l85 141q4 6 2 12t-7 10v0zM512 896q64 0 119 -24q56 -24 97.5 -65t65.5 -97q24 -55 24 -118q0 -70 -30 -132t-84 -105q-5 -3 -6 -10t3 -12q2 -3 5.5 -5 t7.5 -2q2 0 4.5 1t4.5 3q60 48 93.5 116.5t33.5 145.5q0 70 -27 131t-73 106.5t-107 72.5q-61 26 -131 26t-131 -26q-62 -27 -107.5 -72.5t-72.5 -106.5t-27 -131q0 -7 4.5 -11.5t11.5 -4.5q8 0 12 4.5t4 11.5q0 63 24 118q24 56 65.5 97t97.5 65q55 24 119 24v0zM834 162 q-8 0 -12 -4.5t-4 -11.5v-125l-210 150q-8 6 -18.5 9.5t-21.5 3.5h-195q-9 0 -16.5 3.5t-12.5 9.5l-101 104q-5 5 -11 5t-11 -5t-5 -11.5t5 -11.5l101 -104q9 -10 23 -16t29 -6h196q6 0 11.5 -1.5t10.5 -4.5l198 -146h-118q-7 0 -11.5 -4.5t-4.5 -11.5t4.5 -11.5t11.5 -4.5 h162q7 0 11.5 4.5t4.5 11.5v162q0 6 -4.5 11t-11.5 5v0z" />
</svg>