<svg viewBox="0 0 1024 1024" xmlns="http://www.w3.org/2000/svg">
  <path transform="scale(1, -1) translate(0, -960)" fill="currentColor" d="M846 398l-99 -121l-99 121q-4 5 -11 6t-11 -4q-5 -5 -6 -11.5t4 -10.5l107 -132v-9h-78q-7 0 -11.5 -4.5t-4.5 -11.5t4.5 -11.5t11.5 -4.5h78v-69h-78q-7 0 -11.5 -4.5t-4.5 -11.5t4.5 -11.5t11.5 -4.5h78v-51q0 -7 4.5 -11.5t11.5 -4.5t11.5 4.5t4.5 11.5v51h79 q7 0 11.5 4.5t4.5 11.5t-4.5 11.5t-11.5 4.5h-79v69h79q7 0 11.5 4.5t4.5 11.5t-4.5 11.5t-11.5 4.5h-79v8l109 133q5 4 4 11t-6 11q-6 5 -12.5 4t-11.5 -6v0zM883 858h-742q-45 0 -77 -29.5t-32 -71.5v-464q0 -42 32 -71.5t77 -29.5h369q8 0 12 4.5t4 11.5t-4 11.5t-12 4.5 h-369q-31 1 -54 21t-23 48v225h896v-139q0 -7 4.5 -11.5t11.5 -4.5t11.5 4.5t4.5 11.5v378q0 42 -32 71.5t-77 29.5v0zM141 826h742q31 0 54 -20t23 -49v-69h-896v69q0 29 23 49t54 20zM64 550v106h896v-106h-896z" />
</svg>