<svg viewBox="0 0 1024 1024" xmlns="http://www.w3.org/2000/svg">
  <path transform="scale(1, -1) translate(0, -960)" fill="currentColor" d="M661 701l-149 -202l-149 203q-3 5 -10 6t-12 -2q-5 -4 -6 -11t3 -12l160 -216v-43h-106q-7 0 -11.5 -4.5t-4.5 -11.5t4.5 -11.5t11.5 -4.5h104v-90h-106q-7 0 -11.5 -4t-4.5 -12q0 -7 4.5 -11.5t11.5 -4.5h106v-105q0 -7 4.5 -11.5t11.5 -4.5t11.5 4.5t4.5 11.5v105h106 q7 0 11.5 4.5t4.5 11.5q0 8 -4.5 12t-11.5 4h-106v90h106q7 0 11.5 4.5t4.5 11.5t-4.5 11.5t-11.5 4.5h-106v43l160 216q4 5 3 12t-6 11q-6 3 -12.5 2t-11.5 -7zM512 928q-99 0 -186 -38q-88 -38 -153 -103t-103 -153q-38 -87 -38 -186t38 -186q38 -88 103 -153t153 -103 q87 -38 186 -38t186 38q88 38 153 103t103 153q38 87 38 186t-38 186q-38 88 -103 153t-153 103q-87 38 -186 38zM512 0q-92 0 -174 35q-81 36 -142 97t-97 142q-35 82 -35 174t35 174q36 81 96.5 142t142.5 97q82 35 174 35t174 -35q81 -36 142 -96.5t97 -142.5 q35 -82 35 -174t-35 -174q-36 -81 -96.5 -142t-142.5 -97q-82 -35 -174 -35z" />
</svg>