<svg viewBox="0 0 256 256" xmlns="http://www.w3.org/2000/svg">
  <path transform="scale(1, -1) translate(0, -256)" fill="currentColor" d="M209 118l-22 -28l-23 28q-1 2 -4 2t-5.5 -1.5t-2.5 -4.5t2 -6l24 -30h-15q-3 0 -5 -2t-2 -5t2 -5t5 -2h17v-12h-17q-3 0 -5 -2t-2 -5t2 -5t5 -2h17v-10q0 -3 2 -5t5 -2t5 2t2 5v10h16q3 0 5.5 2t2.5 5t-2.5 5t-5.5 2h-16v12h16q3 0 5.5 2t2.5 5t-2.5 5t-5.5 2h-14l24 30 q2 2 2 5t-2.5 5t-5.5 2t-5 -2zM221 234h-186q-12 0 -21 -8.5t-9 -19.5v-116q0 -12 9 -20t21 -8h93q3 0 5 2t2 5t-2 5t-5 2h-93q-6 0 -11 4t-5 10v53h218v-32q0 -3 2 -5t5 -2t5.5 2t2.5 5v94q-1 12 -10 20.5t-21 8.5zM35 220h186q6 0 11 -4.5t5 -9.5v-14h-218v14q0 5 5 9.5 t11 4.5zM19 157v20h218v-20h-218z" />
</svg>