<svg viewBox="0 0 1024 1024" xmlns="http://www.w3.org/2000/svg">
  <path transform="scale(1, -1) translate(0, -960)" fill="currentColor" d="M928 739h-832q-26 0 -45 -18.5t-19 -45.5v-454q0 -27 19 -45.5t45 -18.5h85v0v0v0v0h662v0v0v0v0h85q26 0 45 18.5t19 45.5v454q0 27 -19 45.5t-45 18.5v0zM64 554q8 -3 17.5 -5t17.5 -2q48 0 82.5 34.5t34.5 82.5q0 11 -2 21.5t-6 21.5h608q-4 -11 -6 -21.5t-2 -21.5 q0 -48 34.5 -82.5t82.5 -34.5q9 0 18 1.5t17 5.5v-212q-8 3 -17.5 5t-17.5 2q-48 0 -82.5 -34.5t-34.5 -82.5q0 -11 2 -21.5t6 -21.5h-608q4 11 6 21.5t2 21.5q0 48 -34.5 82.5t-82.5 34.5q-9 0 -18 -1.5t-17 -5.5v212v0zM960 675v-88q-8 -3 -17 -5.5t-18 -2.5q-35 0 -60 25 t-25 60q0 12 3.5 23t9.5 20h75q13 0 22.5 -9.5t9.5 -22.5zM96 707h75q6 -9 9.5 -20t3.5 -23q0 -35 -25 -60t-60 -25q-9 0 -18 2.5t-17 5.5v88q0 13 9.5 22.5t22.5 9.5zM64 221v88q8 3 17 5.5t18 2.5q35 0 60 -25t25 -60q0 -12 -3.5 -23t-9.5 -20h-75q-13 0 -22.5 9.5 t-9.5 22.5v0zM928 189h-75q-6 9 -9.5 20t-3.5 23q0 35 25 60t60 25q9 0 18 -2.5t17 -5.5v-88q0 -13 -9.5 -22.5t-22.5 -9.5zM394 341h100v-56q0 -7 4.5 -11.5t11.5 -4.5q8 0 12 4.5t4 11.5v56h104q8 0 12 4.5t4 11.5t-4 11.5t-12 4.5h-104v72h98q7 0 11.5 4.5t4.5 11.5 t-4.5 11.5t-11.5 4.5h-98v43l79 78q5 5 5 11.5t-5 11.5t-11.5 5t-11.5 -5l-70 -71l-70 71q-5 5 -11.5 5t-11.5 -5t-5 -11.5t5 -11.5l79 -78v-43h-98q-7 0 -11.5 -4.5t-4.5 -11.5t4.5 -11.5t11.5 -4.5h94v-72h-100q-8 0 -12 -4.5t-4 -11.5t5 -11.5t11 -4.5v0z" />
</svg>