<svg viewBox="0 0 256 256" xmlns="http://www.w3.org/2000/svg">
  <path transform="scale(1, -1) translate(0, -256)" fill="currentColor" d="M232 204h-208q-8 0 -13.5 -5.5t-5.5 -13.5v-114q0 -8 5.5 -13.5t13.5 -5.5h208q8 0 13.5 5.5t5.5 13.5v114q0 8 -5.5 13.5t-13.5 5.5zM200 66h-144q1 4 1 8q0 13 -9.5 22.5t-22.5 9.5l-6 -1v45h6q13 0 22.5 9t9.5 23q0 4 -1 7h144q-1 -3 -1 -7q0 -14 9.5 -23t22.5 -9h6 v-45l-6 1q-13 0 -22.5 -9.5t-9.5 -22.5q0 -4 1 -8zM237 185v-20q-3 -1 -6 -1q-7 0 -12.5 5t-5.5 13q0 3 2 7h17q2 1 3.5 -0.5t1.5 -3.5zM24 190h17q2 -4 2 -8q0 -7 -5 -12.5t-13 -5.5q-3 0 -6 2v20q0 1 1.5 2.5t3.5 1.5zM19 71v20q3 1 6 1q8 0 13 -5t5 -13q0 -3 -2 -7h-17 q-2 -1 -3.5 0.5t-1.5 3.5zM232 66h-17q-2 4 -2 8q0 7 5 12.5t13 5.5q3 0 6 -2v-20q0 -1 -1.5 -2.5t-3.5 -1.5zM158 112h-23v12h21q3 0 5 2.5t2 5.5t-2 5t-5 2h-21v7l18 18q2 2 2 5t-2 5t-5 2t-5 -2l-15 -16l-16 16q-2 2 -5 2t-5 -2t-2 -5t2 -5l18 -19v-7h-20q-3 0 -5 -2 t-2 -5t2 -5t5 -2h21v-12h-22q-3 0 -5 -2t-2 -5t2 -5t5 -2h22v-11q0 -3 2 -5t5 -2t5 2t2 5v11h23q3 0 5 2t2 5t-2.5 5t-4.5 2z" />
</svg>