<svg viewBox="0 0 1024 1024" xmlns="http://www.w3.org/2000/svg">
  <path transform="scale(1, -1) translate(0, -960)" fill="currentColor" d="M512 928q-99 0 -186 -38q-88 -38 -153 -103t-103 -153q-38 -87 -38 -186t38 -186q38 -88 103 -153t153 -103q87 -38 186 -38t186 38q88 38 153 103t103 153q38 87 38 186t-38 186q-38 88 -103 153t-153 103q-87 38 -186 38zM64 448q0 92 35 174q36 81 96.5 142t142.5 97 q82 35 174 35q16 0 31.5 -1t30.5 -4l-92 -59q-53 -34 -80.5 -88.5t-23.5 -117.5t38.5 -113t92.5 -76q51 -24 82 -71.5t31 -104.5q0 -49 -22.5 -91t-63.5 -69l-133 -88q-72 18 -134 59q-63 41 -108 98.5t-71 128.5q-26 70 -26 149zM512 0q-16 0 -32 1t-32 4l106 70 q48 33 74 81.5t26 105.5q0 68 -35 123t-96 82q-49 23 -78.5 66t-33.5 96q-3 54 20.5 100.5t67.5 75.5l120 77q73 -18 136 -58q62 -41 107.5 -98t71.5 -128t26 -150q0 -92 -35 -174q-36 -82 -96.5 -142.5t-142.5 -96.5q-82 -35 -174 -35v0zM430 218q0 31 -22 53t-53 22 t-53 -22t-22 -53q0 -32 22 -54t53 -22t53 22t22 54zM310 218q0 18 13 30.5t31 12.5t30.5 -12.5t12.5 -30.5t-12.5 -31t-30.5 -13t-31 13t-13 31zM622 742q-31 0 -53 -22t-22 -53t22 -53t53 -22q32 0 54 22t22 53t-22 53t-54 22zM622 622q-18 0 -30.5 13t-12.5 31t12.5 30.5 t30.5 12.5t31 -12.5t13 -30.5t-13 -31t-31 -13z" />
</svg>