<svg viewBox="0 0 256 256" xmlns="http://www.w3.org/2000/svg">
  <path transform="scale(1, -1) translate(0, -256)" fill="currentColor" d="M128 251q-33 0 -61.5 -16.5t-45 -45t-16.5 -61.5t16.5 -61.5t45 -45t61.5 -16.5t61.5 16.5t45 45t16.5 61.5t-16.5 61.5t-45 45t-61.5 16.5zM19 128q0 30 14.5 55t39.5 39.5t55 14.5h6l-15 -10q-14 -9 -21.5 -23.5t-6 -31t10.5 -29.5t24 -20q12 -6 19 -17t7 -23.5 t-5 -22.5t-15 -16l-32 -21q-23 6 -41.5 21t-29 37t-10.5 47zM128 19h-7l19 13q12 8 19 21.5t7 27.5q0 18 -9 32.5t-25 21.5q-12 6 -19 16t-8 22.5t4.5 23.5t16.5 17l29 19q23 -6 42 -21.5t29.5 -37.5t10.5 -47q0 -29 -14.5 -54t-40 -39.5t-54.5 -14.5zM110 70q0 9 -6.5 15.5 t-15.5 6.5t-15.5 -6.5t-6.5 -15.5t6.5 -15.5t15.5 -6.5t15.5 6.5t6.5 15.5zM81 70q0 4 2.5 6t5.5 2t5.5 -2t2.5 -5.5t-2.5 -6t-6 -2.5t-5.5 2.5t-2 5.5zM156 204q-9 0 -15.5 -6.5t-6.5 -15.5t6.5 -15.5t15.5 -6.5t15.5 6.5t6.5 15.5t-6.5 15.5t-15.5 6.5zM156 175 q-4 0 -6 2.5t-2 5.5t2 5.5t5.5 2.5t6 -2.5t2.5 -5.5t-2.5 -5.5t-5.5 -2.5z" />
</svg>