<svg viewBox="0 0 1024 1024" xmlns="http://www.w3.org/2000/svg">
  <path transform="scale(1, -1) translate(0, -960)" fill="currentColor" d="M954 635q-21 48 -52.5 91.5t-69.5 78.5q-33 30 -70 53q-38 23 -78.5 38.5t-83.5 23.5q-44 8 -88 8t-88 -8q-43 -8 -83.5 -23.5t-78.5 -38.5q-37 -23 -70 -53q-40 -35 -70.5 -78.5t-51.5 -91.5q-19 -44 -28.5 -91t-9.5 -96q0 -18 1 -37t4 -37q14 -87 57 -161 q42 -74 106 -128.5t144 -85.5t168 -31t168 31t144 85.5t106 128.5q43 74 57 161q3 18 4 37t1 37q0 49 -9.5 96t-28.5 91zM794 797q-29 -16 -63 -30t-70.5 -25t-74.5 -17q-38 -7 -74 -7t-74 7t-74.5 18t-70.5 25t-63 29q60 48 132.5 73.5t149.5 25.5t149.5 -25.5t132.5 -73.5 zM205 774q30 -16 67 -32t77 -28.5t82 -19.5q41 -8 81 -8t81 8q42 7 82 19.5t77 28.5t67 32q33 -30 58 -65.5t43 -74.5q-35 -39 -81 -70q-45 -31 -97.5 -52t-110.5 -32t-119 -11t-119 11t-110.5 32t-97.5 51q-46 31 -81 69q18 40 44 76t57 66zM91 600q38 -38 85 -69 q48 -30 102 -51t113 -32t121 -11t122 11t114 32t101 51q48 31 85 69q14 -37 21 -74.5t7 -77.5q0 -16 -1.5 -32t-3.5 -32q-41 -40 -91 -72q-50 -31 -106.5 -53t-119.5 -33q-62 -12 -128 -12t-128 12q-63 11 -119.5 33t-105.5 53q-50 32 -90 72q-3 16 -4 32t-1 32q0 40 7 78 t20 74v0zM512 0q-76 0 -146 25t-127 69t-98 104q-42 61 -61 133q42 -35 91 -63q50 -27 104.5 -46t114.5 -28q60 -10 122 -10t122 10q60 9 115 28t104 46q50 28 91 63q-19 -72 -61 -133q-41 -60 -98.5 -104t-127.5 -69q-69 -25 -145 -25z" />
</svg>