<svg viewBox="0 0 256 256" xmlns="http://www.w3.org/2000/svg">
  <path transform="scale(1, -1) translate(0, -256)" fill="currentColor" d="M227 218h-138q-6 11 -16.5 17.5t-23.5 6.5q-18 0 -31 -13t-13 -31v-139q0 -18 13 -31.5t31 -13.5h177q11 0 18 7.5t7 17.5v154q0 10 -7 17.5t-17 7.5zM50 228q12 0 21 -9t9 -21v-107q-13 12 -30 12t-31 -12v107q0 12 9 21t22 9zM19 58q0 13 9 22t21.5 9t21.5 -9t9 -21.5 t-9 -21.5t-21.5 -9t-21.5 9t-9 21zM237 38q0 -4 -3 -7t-7 -3h-145q12 13 12 30v140l-1 6h133q5 0 8 -3.5t3 -7.5v-155z" />
</svg>