<svg viewBox="0 0 1024 1024" xmlns="http://www.w3.org/2000/svg">
  <path transform="scale(1, -1) translate(0, -960)" fill="currentColor" d="M907 795h-558q-19 43 -59.5 70.5t-91.5 27.5q-69 -1 -117.5 -49.5t-48.5 -117.5v-555q0 -68 48.5 -117t117.5 -49h1h1v0h707q36 0 60.5 25t24.5 60v619q0 36 -25 61t-60 25v0zM64 726q0 56 39 95.5t95 39.5q57 0 96 -39t39 -96v-457q-23 31 -58 50t-77 19 q-40 0 -75.5 -19t-58.5 -50v457zM64 170q0 55 39 94.5t95 39.5q57 0 96 -39t39 -95q0 -57 -39 -96t-96 -39q-56 0 -95 39.5t-39 95.5zM960 90q0 -22 -15.5 -37.5t-37.5 -15.5h-611q31 23 50 57.5t19 76.5v555q0 10 -1.5 19.5t-3.5 17.5h547q22 0 37.5 -15.5t15.5 -38.5v-619 z" />
</svg>