<svg viewBox="0 0 1024 1024" xmlns="http://www.w3.org/2000/svg">
  <path transform="scale(1, -1) translate(0, -960)" fill="currentColor" d="M987 686q-8 33 -31.5 56.5t-56.5 31.5q-29 8 -93 12q-64 5 -129.5 7t-114.5 2h-50h-50q-49 0 -114.5 -2t-129.5 -7q-64 -4 -93 -12q-33 -8 -56.5 -31.5t-31.5 -56.5q-8 -29 -12 -70t-6 -78.5t-3 -63.5v-26v-26q1 -27 3 -64.5t6 -78.5t12 -69q8 -33 31.5 -56.5t56.5 -31.5 q29 -8 93 -12q64 -5 129.5 -7t114.5 -2h50h50q49 0 114.5 2t129.5 7q64 4 93 12q33 8 56.5 31.5t31.5 56.5q8 28 12 69t6 78.5t3 64.5v26v26q-1 26 -3 63.5t-6 78.5t-12 70zM413 299v298l257 -149l-257 -149v0z" />
</svg>