<svg viewBox="0 0 1024 1024" xmlns="http://www.w3.org/2000/svg">
  <path transform="scale(1, -1) translate(0, -960)" fill="currentColor" d="M539 734q52 0 89.5 21t37.5 50q0 30 -37.5 51.5t-89.5 21.5q-51 0 -88.5 -21.5t-37.5 -51.5q0 -29 37.5 -50t88.5 -21zM539 846q43 0 69 -15t26 -26q0 -10 -26 -24.5t-69 -14.5t-68.5 14.5t-25.5 24.5q0 11 25.5 26t68.5 15zM362 570q30 -14 69 -21t81 -7q43 0 81.5 7 t68.5 21q14 6 36 21t22 36q0 22 -22 37t-36 21q-30 13 -69 20t-81 7q-43 0 -81.5 -7t-68.5 -20q-14 -6 -36 -21t-22 -37q0 -21 22 -36t36 -21zM374 654q28 12 63 18t75 6t75.5 -6t62.5 -18q20 -9 29 -17.5t9 -10.5q0 -3 -9 -11.5t-29 -17.5q-28 -12 -63 -18t-75 -6t-75.5 6 t-62.5 18q-21 11 -29.5 19.5t-8.5 10.5q0 3 8.5 11t29.5 16v0zM539 293q64 0 118 10q53 10 92 26.5t60 36.5q21 21 21 40q0 21 -21.5 41.5t-59.5 35.5q-42 17 -96 26t-114 9t-113.5 -9t-95.5 -26q-39 -15 -60.5 -35.5t-21.5 -41.5q0 -20 21 -40q22 -21 60.5 -37t91.5 -26 q54 -10 118 -10zM342 454q40 16 90.5 25t106.5 9q57 0 108 -8.5t89 -25.5q34 -13 48 -26.5t14 -21.5q0 -18 -66.5 -49.5t-192.5 -31.5t-192.5 31.5t-66.5 49.5q0 8 14.5 21t47.5 27v0zM976 50h-219q6 2 12 3.5t12 4.5q50 18 77.5 40.5t27.5 45.5t-27.5 45.5t-77.5 40.5 q-54 20 -123.5 29.5t-145.5 9.5t-145.5 -9.5t-123.5 -29.5q-50 -18 -77.5 -40.5t-27.5 -45.5t27.5 -45.5t77.5 -40.5q6 -3 12 -4.5t12 -3.5h-219q-7 0 -11.5 -4.5t-4.5 -11.5q0 -8 4.5 -12t11.5 -4h928q7 0 11.5 4t4.5 12q0 7 -4.5 11.5t-11.5 4.5zM254 86q-51 18 -67 35 t-16 21q0 5 16.5 21.5t66.5 34.5q52 18 118.5 28.5t139.5 10.5t139.5 -9.5t118.5 -29.5q51 -18 67 -34.5t16 -21.5q0 -4 -16.5 -21t-66.5 -35q-52 -18 -118.5 -28t-139.5 -10t-139.5 10t-118.5 28v0z" />
</svg>