<svg viewBox="0 0 1024 1024" xmlns="http://www.w3.org/2000/svg">
  <path transform="scale(1, -1) translate(0, -960)" fill="currentColor" d="M914 786h-111v36q0 44 -30.5 75t-74.5 31h-538q-43 0 -74.5 -30.5t-31.5 -75.5v-508q0 -12 5 -24t15 -21l304 -285q8 -8 18.5 -12t22.5 -4h279q43 0 74 30.5t31 75.5v332h111q18 0 29.5 12.5t11.5 29.5v296q1 17 -11 29.5t-30 12.5v0zM99 290h264q12 0 20.5 -8.5 t8.5 -20.5v-247l-293 276v0zM771 74q0 -30 -21.5 -52t-51.5 -22h-274v262q0 26 -18 43.5t-43 17.5h-277v499q0 30 22 52t52 22h538q30 0 51.5 -22t21.5 -52v-36h-489q-18 0 -30 -12.5t-12 -29.5v-296q0 -18 12.5 -30t29.5 -12h489v-332v0zM619 659v-126q0 -18 -12.5 -30 t-28.5 -12q-17 0 -29.5 12.5t-12.5 29.5v126q0 18 12.5 30t29.5 12q16 0 28.5 -12.5t12.5 -29.5v0zM493 533q0 -18 -12.5 -30t-29.5 -12h-70q-12 0 -21.5 5.5t-15.5 15.5t-5 22t7 21l38 63h-16q-18 0 -30 12t-12 29t12.5 29.5t29.5 12.5h91q12 0 21.5 -5.5t15.5 -15.5t5 -22 t-7 -21l-38 -63q14 -1 25.5 -13.5t11.5 -27.5v0zM787 533h-41q0 -18 -12.5 -30t-29.5 -12t-29.5 12.5t-12.5 29.5v126q0 18 12.5 30t29.5 12h85q35 0 60 -25t25 -60q-2 -35 -27 -59t-60 -24v0z" />
</svg>