<svg viewBox="0 0 256 256" xmlns="http://www.w3.org/2000/svg">
  <path transform="scale(1, -1) translate(0, -256)" fill="currentColor" d="M228 212h-24v10q0 12 -8.5 20.5t-20.5 8.5h-135q-12 0 -20.5 -8.5t-8.5 -20.5v-128q0 -8 5 -13l76 -71q5 -5 13 -5h69q12 0 21 8.5t9 20.5v84h24q5 0 8 3t3 7v74q0 4 -3 7t-8 3zM31 86h60q2 0 3.5 -1.5t1.5 -3.5v-55zM190 34q0 -6 -4.5 -10.5t-10.5 -4.5h-67v63 q0 7 -5 12t-12 5h-66v123q0 6 4.5 10.5t10.5 4.5h134q7 0 11.5 -4.5t4.5 -10.5v-10h-120q-4 0 -7 -3t-3 -7v-74q0 -4 3 -7t7 -3h120v-84zM155 181v-32q0 -4 -3 -7t-7.5 -3t-7.5 3t-3 7v32q0 4 3 7t7.5 3t7.5 -3t3 -7zM123 149q0 -4 -3 -7t-7 -3h-18q-6 0 -9 5q-1 2 -1 5t1 6 l10 15h-4q-4 0 -7 3.5t-3 7.5t3 7t7 3h23q6 0 9 -5q1 -2 1 -5t-1 -6l-10 -15q4 -1 6.5 -4t2.5 -7zM197 149h-11q0 -4 -3 -7t-7 -3t-7 3t-3 7v32q0 4 3 7t7 3h21q9 0 15 -6t6 -15t-6 -15t-15 -6z" />
</svg>