<svg viewBox="0 0 256 256" xmlns="http://www.w3.org/2000/svg">
  <path transform="scale(1, -1) translate(0, -256)" fill="currentColor" d="M248 46l-65 65q-3 3 -7.5 3t-7.5 -3l-6 -6l-15 14q19 23 19 52q0 16 -6 30.5t-17.5 26t-26 17.5t-31 6t-31 -6t-26 -17.5t-17.5 -26t-6 -30.5t6 -31t17.5 -26t26 -17.5t30.5 -6.5q29 0 52 19l14 -14l-6 -7q-3 -3 -3 -7.5t3 -7.5l65 -65q4 -3 8 -3t7 3l23 23q3 3 3 7.5 t-3 7.5zM85 104q-13 0 -25 5t-21.5 14.5t-14.5 22t-5 25.5t5 25t14 22q21 19 47 19q14 0 26 -5t21 -14.5t14.5 -21.5t5.5 -25.5t-5 -25.5t-14.5 -21.5t-21.5 -14.5t-26 -5zM218 20l-61 61l18 18l61 -61zM106 178h-42q-3 0 -5 -2.5t-2 -5.5t2 -5t5 -2h42q3 0 5.5 2t2.5 5 t-2.5 5.5t-5.5 2.5z" />
</svg>