<svg viewBox="0 0 1024 1024" xmlns="http://www.w3.org/2000/svg">
  <path transform="scale(1, -1) translate(0, -960)" fill="currentColor" d="M984 110l-262 261q-9 9 -21.5 9t-20.5 -9l-35 -35l-75 75q38 43 59 96t21 111q0 62 -23.5 118t-68.5 101q-43 44 -99 68.5t-118 24.5q-63 0 -119 -23.5t-100 -68.5q-44 -44 -68 -100t-24 -119q0 -62 23.5 -118.5t68.5 -100.5q44 -44 100 -67.5t119 -23.5q57 0 110.5 20.5 t95.5 59.5l75 -75l-35 -36q-8 -8 -8 -20.5t8 -20.5l263 -263q4 -4 9 -6t11 -2t12 2.5t9 5.5l91 92q10 10 10 22.5t-8 21.5v0zM341 341q-55 0 -106 21t-91 60q-40 40 -61 90.5t-21 106.5q0 57 22 107t60 90t89 61t108 21q56 0 106.5 -21t90.5 -61q39 -40 60 -90t21 -107 q0 -56 -21 -106.5t-60 -90.5q-40 -39 -91 -60t-106 -21zM872 0l-259 259l88 88l259 -259zM426 635h-168q-8 0 -12 -4.5t-4 -11.5t4 -11.5t12 -4.5h168q7 0 11.5 4.5t4.5 11.5t-5 11.5t-11 4.5z" />
</svg>