<svg viewBox="0 0 256 256" xmlns="http://www.w3.org/2000/svg">
  <path transform="scale(1, -1) translate(0, -256)" fill="currentColor" d="M246 48l-58 58q-4 5 -11 5t-12 -5l-3 -3l-14 15q13 16 17 36t-1.5 39.5t-20.5 33.5q-11 12 -26 18t-31 6t-31 -6t-26 -18q-16 -15 -21.5 -36t0 -42t21.5 -36q11 -12 26 -18t30 -6t28.5 5t24.5 14l15 -14l-3 -3q-5 -5 -5 -11.5t5 -11.5l58 -58q5 -5 11.5 -5t10.5 5l16 15 q5 5 5 11.5t-5 11.5zM86 103q-14 0 -26 5t-21 14q-13 13 -17.5 30.5t0 34.5t17.5 30q9 10 21.5 15t26 5t25.5 -5t21 -15q13 -13 17.5 -30t0 -34.5t-17.5 -30.5q-9 -9 -21.5 -14t-25.5 -5zM236 35l-15 -15q-1 -2 -3 0l-58 58q-1 1 0 2l15 16h2h1l58 -58q2 -2 0 -3zM107 177 h-14v14q0 3 -2 5t-5 2t-5 -2t-2 -5v-14h-14q-3 0 -5 -2t-2 -5t2 -5.5t5 -2.5h14v-14q0 -3 2 -5t5 -2t5 2t2 5v14h14q3 0 5 2.5t2 5.5t-2 5t-5 2z" />
</svg>