<svg version="1.1"
     xmlns="http://www.w3.org/2000/svg"
     viewBox="0 0 48 48"
     fill="none">
  <path d="M9 41h30a4 4 0 0 0 4-4V11a4 4 0 0 0-4-4H9a4 4 0 0 0-4 4v26a4 4 0 0 0 4 4Z"
        fill="currentColor"
        fill-opacity="var(--svg-active-opacity, 0)"
        stroke="currentColor"
        stroke-width="2"
        stroke-linecap="round"></path>
  <path d="M15 7v34M17 13h-2M43 13h-6"
        stroke="currentColor"
        stroke-width="2"
        stroke-linecap="round"></path>
  <path d="M21 29V15a2 2 0 0 1 2-2h8a2 2 0 0 1 2 2v14a2 2 0 0 1-2 2h-8a2 2 0 0 1-2-2Z"
        fill="var(--svg-active-fill, none)"
        stroke="currentColor"
        stroke-width="2"
        stroke-linecap="round"></path>
  <path d="M25 31v2a2 2 0 0 0 2 2h8a2 2 0 0 0 2-2V19a2 2 0 0 0-2-2h-2"
        stroke="currentColor"
        stroke-width="2"
        stroke-linecap="round"></path>
</svg>
