<svg version="1.1" xmlns="http://www.w3.org/2000/svg" viewBox="0 0 48 48" fill="none">
  <path d="M17.687 42.22 40.57 29.219a4 4 0 0 0 1.554-5.36L39 18" stroke="currentColor" stroke-width="2" stroke-linecap="round"></path>
  <path d="M27.477 7.121a1 1 0 1 0-.954 1.758l.954-1.758Zm5.209 3.966.477-.879-.477.88Zm1.555 5.515-.866-.5-.003.006.87.494ZM26.523 8.88l5.686 3.087.954-1.758-5.686-3.087-.954 1.758Zm6.849 7.23-12.616 22.21 1.738.987 12.617-22.21-1.74-.988Zm-1.163-4.143a3 3 0 0 1 1.166 4.136l1.732 1a5 5 0 0 0-1.944-6.894l-.954 1.758Z"
        fill="currentColor"></path>
  <path d="M5 9a4 4 0 0 1 4-4h10a4 4 0 0 1 4 4v25a9 9 0 1 1-18 0V9Z" fill="currentColor" fill-opacity="var(--svg-active-opacity, 0)" stroke="currentColor" stroke-width="2"></path>
  <circle cx="14" cy="34" r="3" fill="var(--svg-active-fill, none)" stroke="currentColor" stroke-width="2" stroke-linecap="round"></circle>
</svg>
