<svg version="1.1"
     xmlns="http://www.w3.org/2000/svg"
     viewBox="0 0 48 48"
     fill="none">
  <path d="M5 13a3 3 0 0 1 3-3h4a3 3 0 0 1 3 3v6a3 3 0 0 1-3 3H8a3 3 0 0 1-3-3v-6ZM5 29a3 3 0 0 1 3-3h4a3 3 0 0 1 3 3v6a3 3 0 0 1-3 3H8a3 3 0 0 1-3-3v-6ZM19 29a3 3 0 0 1 3-3h4a3 3 0 0 1 3 3v6a3 3 0 0 1-3 3h-4a3 3 0 0 1-3-3v-6ZM33 29a3 3 0 0 1 3-3h4a3 3 0 0 1 3 3v6a3 3 0 0 1-3 3h-4a3 3 0 0 1-3-3v-6ZM19 13a3 3 0 0 1 3-3h18a3 3 0 0 1 3 3v6a3 3 0 0 1-3 3H22a3 3 0 0 1-3-3v-6Z"
        fill="currentColor"
        fill-opacity="var(--svg-active-opacity, 0)"
        stroke="currentColor"
        stroke-width="2"></path>
</svg>
