<svg version="1.1"
     xmlns="http://www.w3.org/2000/svg"
     viewBox="0 0 48 48"
     fill="none">
  <path d="M5.632 11.725a3 3 0 0 1 2.554-3.388l3.96-.557a3 3 0 0 1 3.389 2.554l.835 5.941a3 3 0 0 1-2.553 3.388l-3.961.557a3 3 0 0 1-3.389-2.553l-.835-5.942ZM1 29a3 3 0 0 1 3-3h8a3 3 0 0 1 3 3v6a3 3 0 0 1-3 3H4a3 3 0 0 1-3-3v-6ZM20 34a3 3 0 0 1 3-3h4a3 3 0 0 1 3 3v6a3 3 0 0 1-3 3h-4a3 3 0 0 1-3-3v-6ZM36.728 27.026a3 3 0 0 1 3.558-2.31l3.913.831a3 3 0 0 1 2.31 3.558l-1.247 5.87a3 3 0 0 1-3.558 2.31l-3.913-.832a3 3 0 0 1-2.31-3.558l1.247-5.869ZM22.236 9.17a3 3 0 0 1 3.202-2.783l17.956 1.255a3 3 0 0 1 2.784 3.202l-.419 5.986a3 3 0 0 1-3.202 2.783l-17.956-1.255a3 3 0 0 1-2.784-3.202l.419-5.986Z"
        fill="currentColor"
        fill-opacity="var(--svg-active-opacity, 0)"
        stroke="currentColor"
        stroke-width="2"></path>

</svg>
