<svg width="1em"
     height="1em"
     viewBox="0 0 40 40"
     fill="none"
     xmlns="http://www.w3.org/2000/svg"
     stroke="currentColor"
     stroke-width="1.5"
     stroke-linecap="round"
     stroke-linejoin="round">
  <path d="M1.25 8C1.25 6.20979 1.96116 4.4929 3.22703 3.22703C4.4929 1.96116 6.20979 1.25 8 1.25H32C33.7902 1.25 35.5071 1.96116 36.773 3.22703C38.0388 4.4929 38.75 6.20979 38.75 8V32C38.75 33.7902 38.0388 35.5071 36.773 36.773C35.5071 38.0388 33.7902 38.75 32 38.75H8C6.20979 38.75 4.4929 38.0388 3.22703 36.773C1.96116 35.5071 1.25 33.7902 1.25 32V8Z"
        />
  <path d="M14 13.75C14 12.225 14.5795 10.7625 15.6109 9.68414C16.6424 8.6058 18.0413 8 19.5 8C20.9587 8 22.3576 8.6058 23.3891 9.68414C24.4205 10.7625 25 12.225 25 13.75C25 15.3284 24.2245 16.6609 23.4064 17.7966L14 31H25"
        stroke-width="2.5"/>
</svg>
