<svg width="1em"
     height="1em"
     viewBox="0 0 40 40"
     fill="none"
     xmlns="http://www.w3.org/2000/svg"
     stroke="currentColor"
     stroke-width="1.5"
     stroke-linecap="round"
     stroke-linejoin="round">
  <path d="M1.25 8C1.25 6.20979 1.96116 4.4929 3.22703 3.22703C4.4929 1.96116 6.20979 1.25 8 1.25H32C33.7902 1.25 35.5071 1.96116 36.773 3.22703C38.0388 4.4929 38.75 6.20979 38.75 8V32C38.75 33.7902 38.0388 35.5071 36.773 36.773C35.5071 38.0388 33.7902 38.75 32 38.75H8C6.20979 38.75 4.4929 38.0388 3.22703 36.773C1.96116 35.5071 1.25 33.7902 1.25 32V8Z"
  />
  <path d="M20 20C21.1867 20 22.3467 19.6481 23.3334 18.9888C24.3201 18.3295 25.0891 17.3925 25.5433 16.2961C25.9974 15.1997 26.1162 13.9933 25.8847 12.8295C25.6532 11.6656 25.0818 10.5965 24.2426 9.75736C23.4035 8.91825 22.3344 8.3468 21.1705 8.11529C20.0067 7.88378 18.8003 8.0026 17.7039 8.45673C16.6075 8.91085 15.6705 9.67989 15.0112 10.6666C14.3519 11.6533 14 12.8133 14 14"

        stroke-width="2.5" />
  <path d="M14 26C14 27.1867 14.3519 28.3467 15.0112 29.3334C15.6705 30.3201 16.6075 31.0891 17.7039 31.5433C18.8003 31.9974 20.0067 32.1162 21.1705 31.8847C22.3344 31.6532 23.4035 31.0818 24.2426 30.2426C25.0818 29.4035 25.6532 28.3344 25.8847 27.1705C26.1162 26.0067 25.9974 24.8003 25.5433 23.7039C25.0891 22.6075 24.3201 21.6705 23.3334 21.0112C22.3467 20.3519 21.1867 20 20 20"

        stroke-width="2.5" />
</svg>
