<svg version="1.1"
     xmlns="http://www.w3.org/2000/svg"
     viewBox="0 0 40 40"
     fill="none"
     stroke="currentColor"
     stroke-width="1.5"
     stroke-linecap="round"
     stroke-linejoin="round">
  <path d="M.75 8A7.25 7.25 0 018 .75h24A7.25 7.25 0 0139.25 8v24A7.25 7.25 0 0132 39.25H8A7.25 7.25 0 01.75 32V8z"
        fill="currentColor"
        fill-opacity="0.05"></path>
  <path d="M31.817 26a13.194 13.194 0 001.433-6c0-7.318-5.932-13.25-13.25-13.25S6.75 12.682 6.75 20c0 2.16.517 4.199 1.433 6"
        fill-opacity="0.5"></path>
  <path d="M15.75 18a4.25 4.25 0 108.5 0 4.25 4.25 0 00-8.5 0z"
        fill="white"
        fill-opacity="var(--svg-active-opacity, 0)"></path>
  <path d="M28.982 29.74c-.994-2.29-4.638-3.99-8.982-3.99-4.344 0-7.989 1.7-8.982 3.99A13.202 13.202 0 0020 33.25c3.466 0 6.62-1.33 8.982-3.51z"
        fill="white"
        fill-opacity="var(--svg-active-opacity, 0)"></path>
</svg>
