<svg version="1.1"
     xmlns="http://www.w3.org/2000/svg"
     viewBox="0 0 40 40"
     fill="none"
     stroke="currentColor"
     stroke-width="1.5"
     stroke-linecap="round"
     stroke-linejoin="round">
  <path d="M.75 8A7.25 7.25 0 018 .75h24A7.25 7.25 0 0139.25 8v24A7.25 7.25 0 0132 39.25H8A7.25 7.25 0 01.75 32V8z"
        fill="currentColor"
        fill-opacity="0.05"></path>
  <path opacity="0.4"
        d="M17.25 33.25h-8.5a2 2 0 01-2-2V8.75a2 2 0 012-2h22.5a2 2 0 012 2v1m-4 3h-18.5"
        stroke-opacity="0.5"></path>
  <path d="M31.25 12.75h-8.5a2 2 0 00-2 2v16.5a2 2 0 002 2h8.5a2 2 0 002-2v-16.5a2 2 0 00-2-2z"
        fill="white"
        fill-opacity="var(--svg-active-opacity, 0)"></path>
  <path d="M26.75 30.25h.5"></path>
</svg>
