<svg version="1.1"
     xmlns="http://www.w3.org/2000/svg"
     viewBox="0 0 40 40"
     fill="none"
     stroke="currentColor"
     stroke-width="1.5"
     stroke-linecap="round"
     stroke-linejoin="round">
  <path d="M.75 8A7.25 7.25 0 018 .75h24A7.25 7.25 0 0139.25 8v24A7.25 7.25 0 0132 39.25H8A7.25 7.25 0 01.75 32V8z"
        fill="currentColor"
        fill-opacity="0.05"></path>
  <path d="M7.75 21.25v-1.5a4 4 0 014-4h7.5m5 5v7.5a4 4 0 01-4 4h-1.5M27.75 32.25h.5a4 4 0 004-4v-10.5m-10-10h-10.5a4 4 0 00-4 4v.5"
        stroke-opacity="0.5"></path>
  <path d="M31.5 8.5l-23 23"
        ></path>
  <path d="M25.75 7.75h4.5a2 2 0 012 2v4.5m-18 18h-4.5a2 2 0 01-2-2v-4.5"
        ></path>
</svg>
