<svg version="1.1"
     xmlns="http://www.w3.org/2000/svg"
     viewBox="0 0 40 40"
     fill="none"
     stroke="currentColor"
     stroke-width="1.5"
     stroke-linecap="round"
     stroke-linejoin="round">
  <path d="M.75 8A7.25 7.25 0 018 .75h24A7.25 7.25 0 0139.25 8v24A7.25 7.25 0 0132 39.25H8A7.25 7.25 0 01.75 32V8z"
        fill="currentColor"
        fill-opacity="0.05"></path>
  <path d="M27 25.335L30.25 27l-6.603 3.382a8 8 0 01-7.294 0L9.75 27 13 25.335m14-6.999L30.25 20l-6.603 3.382a8 8 0 01-7.294 0L9.75 20 13 18.336"
        stroke-opacity="0.5"></path>
  <path d="M9.75 13l9.338-4.783a2 2 0 011.824 0L30.25 13l-6.603 3.382a8 8 0 01-7.294 0L9.75 13z"></path>
</svg>

