<!-- Generator: Adobe Illustrator 24.2.0, SVG Export Plug-In  -->
<svg version="1.1" xmlns="http://www.w3.org/2000/svg" xmlns:xlink="http://www.w3.org/1999/xlink" x="0px" y="0px" viewBox="0 0 1600 350" style="overflow:visible;enable-background:new 0 0 1600 350;" xml:space="preserve">
<style type="text/css">
	.lunalemon-long-logo-0{clip-path:url(#lunalemon-long-logo_2_);fill:url(#lunalemon-long-logo_3_);}
	.lunalemon-long-logo-1{fill:#FFD000;}
	.lunalemon-long-logo-2{fill:#FFDD45;}
	.lunalemon-long-logo-3{fill:#FFC501;}
	.lunalemon-long-logo-4{fill:#2CD167;}
	.lunalemon-long-logo-5{fill:none;}
	.lunalemon-long-logo-6{clip-path:url(#lunalemon-long-logo_5_);fill:url(#lunalemon-long-logo_6_);}
</style>
	<defs>
</defs>
	<g>
	<defs>
		<path id="lunalemon-long-logo_1_" d="M300,271.2v-200h34.8v200H300z M455.6,134.3h34.8v137h-34.8v-15.3c-8.5,12.8-21.8,19.2-40.2,19.2
			c-14.7,0-26.9-5-36.5-15.1c-9.6-10-14.4-23.9-14.4-41.6v-84.1h34.8V214c0,9.1,2.4,16.1,7.3,21c4.9,4.8,11.3,7.3,19.4,7.3
			c9,0,16.2-2.8,21.6-8.5c5.4-5.7,8.1-14.1,8.1-25.5V134.3z M597.1,130.4c14.7,0,26.9,5,36.5,15.1c9.6,10,14.4,23.9,14.4,41.6v84.1
			h-34.8v-79.7c0-9.1-2.4-16.1-7.3-21c-4.9-4.8-11.3-7.3-19.4-7.3c-9,0-16.2,2.8-21.6,8.5c-5.4,5.7-8.1,14.2-8.1,25.5v74h-34.8v-137
			h34.8v15.3C565.4,136.8,578.8,130.4,597.1,130.4z M780.2,134.3h34.8v137h-34.8v-16.2c-10.4,13.3-25.1,20-43.9,20
			c-18,0-33.4-7-46.2-21c-12.9-14-19.3-31.1-19.3-51.4s6.4-37.4,19.3-51.4c12.8-14,28.3-21,46.2-21c18.9,0,33.5,6.7,43.9,20V134.3z
			 M716,230.6c7,7.2,15.9,10.8,26.7,10.8s19.7-3.6,26.8-10.8c7.1-7.2,10.6-16.5,10.6-27.8c0-11.3-3.6-20.6-10.6-27.8
			c-7.1-7.2-16-10.8-26.8-10.8s-19.7,3.6-26.7,10.8c-7,7.2-10.5,16.5-10.5,27.8C705.5,214.1,709,223.3,716,230.6z M846.5,271.2v-200
			h34.8v200H846.5z M942.5,217.3c4.7,17.2,17.3,25.7,38,25.7c13.3,0,23.4-4.6,30.2-13.7l28,16.4c-13.3,19.5-32.9,29.3-58.8,29.3
			c-22.3,0-40.2-6.8-53.7-20.5c-13.5-13.7-20.2-31-20.2-51.8c0-20.6,6.6-37.8,20-51.6c13.3-13.8,30.4-20.7,51.2-20.7
			c19.8,0,36.1,6.9,48.9,20.8c12.8,13.9,19.3,31,19.3,51.5c0,4.6-0.5,9.4-1.3,14.5H942.5z M941.9,189.9h68.7
			c-2-9.3-6.1-16.3-12.3-20.8c-6.2-4.6-13.3-6.8-21.2-6.8c-9.3,0-17.1,2.4-23.2,7.3C947.9,174.3,943.9,181.1,941.9,189.9z
			 M1218.8,130.4c15.5,0,27.8,5.1,37.1,15.3c9.3,10.2,13.9,23.9,13.9,41.1v84.4H1235v-81.9c0-8.2-2-14.6-5.9-19.2
			c-4-4.6-9.5-6.8-16.7-6.8c-7.9,0-14.1,2.6-18.5,7.9c-4.4,5.3-6.6,13-6.6,23v77h-34.8v-81.9c0-8.2-2-14.6-5.9-19.2
			c-4-4.6-9.5-6.8-16.7-6.8c-7.7,0-13.9,2.6-18.5,7.9c-4.6,5.3-6.9,13-6.9,23v77h-34.8v-137h34.8v14.5c8.1-12.2,20.6-18.4,37.5-18.4
			c16.5,0,28.8,6.6,36.7,19.7C1187.6,137,1201,130.4,1218.8,130.4z M1414.3,254.1c-13.8,14-30.7,21-50.7,21s-36.8-7-50.5-21
			c-13.8-14-20.6-31.1-20.6-51.4s6.9-37.4,20.6-51.4c13.7-14,30.6-21,50.5-21s36.8,7,50.7,21c13.8,14,20.8,31.1,20.8,51.4
			S1428.1,240.1,1414.3,254.1z M1337.5,229.9c6.9,7.1,15.6,10.7,26,10.7c10.4,0,19.1-3.6,26.2-10.7c7-7.1,10.5-16.2,10.5-27.1
			c0-11-3.5-20-10.5-27.1s-15.7-10.7-26.2-10.7c-10.4,0-19.1,3.6-26,10.7c-6.9,7.1-10.4,16.2-10.4,27.1
			C1327.2,213.7,1330.6,222.7,1337.5,229.9z M1534.5,130.4c14.7,0,26.9,5,36.5,15.1c9.6,10,14.4,23.9,14.4,41.6v84.1h-34.8v-79.7
			c0-9.1-2.4-16.1-7.3-21c-4.9-4.8-11.3-7.3-19.4-7.3c-9,0-16.2,2.8-21.6,8.5c-5.4,5.7-8.1,14.2-8.1,25.5v74h-34.8v-137h34.8v15.3
			C1502.8,136.8,1516.2,130.4,1534.5,130.4z"/>
	</defs>
		<clipPath id="lunalemon-long-logo_2_">
		<use xlink:href="#lunalemon-long-logo_1_"  style="overflow:visible;opacity:0.6;"/>
	</clipPath>
		<linearGradient id="lunalemon-long-logo_3_" gradientUnits="userSpaceOnUse" x1="518.7651" y1="649.5092" x2="1066.681" y2="-299.5092">
		<stop  offset="0" style="stop-color:#FFD401"/>
			<stop  offset="0.387" style="stop-color:#FFB701"/>
			<stop  offset="0.7535" style="stop-color:#FFA301"/>
			<stop  offset="1" style="stop-color:#FF9C01"/>
	</linearGradient>
		<rect class="lunalemon-long-logo-0" width="1585.4" height="350"/>
</g>
	<rect y="175" class="lunalemon-long-logo-1" width="100" height="100"/>
	<rect y="75" class="lunalemon-long-logo-2" width="100" height="100"/>
	<rect x="100" y="175" class="lunalemon-long-logo-3" width="100" height="100"/>
	<polygon class="lunalemon-long-logo-4" points="200,75 200,175 100,75 "/>
	<line class="lunalemon-long-logo-5" x1="200" y1="175" x2="100" y2="75"/>
	<rect class="lunalemon-long-logo-5" width="1600" height="350"/>
</svg>
