<svg viewBox="0 0 112 96"
     fill="none"
     version="1.1" xmlns="http://www.w3.org/2000/svg">
  <mask id="mask0"
        mask-type="alpha"
        maskUnits="userSpaceOnUse"
        x="4"
        y="4"
        width="104"
        height="88">
    <rect x="4"
          y="4"
          width="104"
          height="88"
          fill="url(#paint0_radial)" />
  </mask>
  <g mask="url(#mask0)">
    <g opacity="0.1"
       filter="url(#filter0_f)">
      <circle cx="56"
              cy="48"
              r="8"
              stroke="#111827"
              stroke-width="2" />
    </g>
    <g opacity="0.1"
       filter="url(#filter1_f)">
      <circle cx="56"
              cy="48"
              r="16"
              stroke="#111827"
              stroke-width="2" />
    </g>
    <g opacity="0.1"
       filter="url(#filter2_f)">
      <circle cx="56"
              cy="48"
              r="24"
              stroke="#111827"
              stroke-width="2" />
    </g>
    <g opacity="0.1"
       filter="url(#filter3_f)">
      <circle cx="56"
              cy="48"
              r="32"
              stroke="#111827"
              stroke-width="2" />
    </g>
    <g opacity="0.1"
       filter="url(#filter4_f)">
      <circle cx="56"
              cy="48"
              r="40"
              stroke="#111827"
              stroke-width="2" />
    </g>
    <g opacity="0.1"
       filter="url(#filter5_f)">
      <circle cx="56"
              cy="48"
              r="48"
              stroke="#111827"
              stroke-width="2" />
    </g>
    <g opacity="0.1"
       filter="url(#filter6_f)">
      <circle cx="56"
              cy="48"
              r="56"
              stroke="#111827"
              stroke-width="2" />
    </g>
  </g>
  <g opacity="0.3"
     filter="url(#filter7_f)">
    <path d="M42 73H70L75.1056 62.7889C76.4354 60.1292 74.5014 57 71.5279 57H40.4721C37.4986 57 35.5646 60.1292 36.8944 62.7889L42 73Z"
          fill="#4F46E5" />
  </g>
  <g filter="url(#filter8_dd)">
    <path d="M35 24H77C79.2091 24 81 25.7909 81 28V67C81 68.1046 80.1046 69 79 69H33C31.8954 69 31 68.1046 31 67V28C31 25.7909 32.7909 24 35 24Z"
          fill="white" />
    <path d="M35 23.5H77C79.4853 23.5 81.5 25.5147 81.5 28V67C81.5 68.3807 80.3807 69.5 79 69.5H33C31.6193 69.5 30.5 68.3807 30.5 67V28C30.5 25.5147 32.5147 23.5 35 23.5Z"
          stroke="#121826"
          stroke-opacity="0.08" />
  </g>
  <g filter="url(#filter9_dd)">
    <path d="M33 22H79C81.2091 22 83 23.7909 83 26V64C83 65.1046 82.1046 66 81 66H31C29.8954 66 29 65.1046 29 64V26C29 23.7909 30.7909 22 33 22Z"
          fill="white" />
    <path d="M33 21.5H79C81.4853 21.5 83.5 23.5147 83.5 26V64C83.5 65.3807 82.3807 66.5 81 66.5H31C29.6193 66.5 28.5 65.3807 28.5 64V26C28.5 23.5147 30.5147 21.5 33 21.5Z"
          stroke="#121826"
          stroke-opacity="0.08" />
  </g>
  <path opacity="0.15"
        d="M30 44H82V45H30V44Z"
        fill="#9CA3AF" />
  <path opacity="0.15"
        d="M30 55H82V56H30V55Z"
        fill="#9CA3AF" />
  <rect opacity="0.12"
        x="39"
        y="34"
        width="1"
        height="32"
        fill="#9CA3AF" />
  <rect opacity="0.12"
        x="50"
        y="34"
        width="1"
        height="32"
        fill="#9CA3AF" />
  <rect opacity="0.12"
        x="61"
        y="34"
        width="1"
        height="32"
        fill="#9CA3AF" />
  <rect opacity="0.12"
        x="72"
        y="34"
        width="1"
        height="32"
        fill="#9CA3AF" />
  <path d="M83.5 32V32.5H83H29H28.5V32V25C28.5 23.067 30.067 21.5 32 21.5H80C81.933 21.5 83.5 23.067 83.5 25V32Z"
        fill="#4F46E5"
        stroke="#4F46E5" />
  <rect x="36"
        y="41"
        width="2"
        height="2"
        rx="1"
        fill="#E5E7EB" />
  <rect x="36"
        y="52"
        width="2"
        height="2"
        rx="1"
        fill="#E5E7EB" />
  <rect x="36"
        y="63"
        width="2"
        height="2"
        rx="1"
        fill="#E5E7EB" />
  <rect x="47"
        y="41"
        width="2"
        height="2"
        rx="1"
        fill="#E5E7EB" />
  <rect x="47"
        y="52"
        width="2"
        height="2"
        rx="1"
        fill="#4F46E5" />
  <rect x="47"
        y="63"
        width="2"
        height="2"
        rx="1"
        fill="#E5E7EB" />
  <rect x="58"
        y="41"
        width="2"
        height="2"
        rx="1"
        fill="#E5E7EB" />
  <rect x="58"
        y="52"
        width="2"
        height="2"
        rx="1"
        fill="#E5E7EB" />
  <rect x="58"
        y="63"
        width="2"
        height="2"
        rx="1"
        fill="#E5E7EB" />
  <rect x="69"
        y="41"
        width="2"
        height="2"
        rx="1"
        fill="#E5E7EB" />
  <rect x="69"
        y="52"
        width="2"
        height="2"
        rx="1"
        fill="#E5E7EB" />
  <rect x="69"
        y="63"
        width="2"
        height="2"
        rx="1"
        fill="#E5E7EB" />
  <rect x="80"
        y="41"
        width="2"
        height="2"
        rx="1"
        fill="#E5E7EB" />
  <rect x="80"
        y="52"
        width="2"
        height="2"
        rx="1"
        fill="#E5E7EB" />
  <rect x="80"
        y="63"
        width="2"
        height="2"
        rx="1"
        fill="#E5E7EB" />
  <defs>
    <filter id="filter0_f"
            x="46.5"
            y="38.5"
            width="19"
            height="19"
            filterUnits="userSpaceOnUse"
            color-interpolation-filters="sRGB">
      <feFlood flood-opacity="0"
               result="BackgroundImageFix" />
      <feBlend mode="normal"
               in="SourceGraphic"
               in2="BackgroundImageFix"
               result="shape" />
      <feGaussianBlur stdDeviation="0.25"
                      result="effect1_foregroundBlur" />
    </filter>
    <filter id="filter1_f"
            x="38.5"
            y="30.5"
            width="35"
            height="35"
            filterUnits="userSpaceOnUse"
            color-interpolation-filters="sRGB">
      <feFlood flood-opacity="0"
               result="BackgroundImageFix" />
      <feBlend mode="normal"
               in="SourceGraphic"
               in2="BackgroundImageFix"
               result="shape" />
      <feGaussianBlur stdDeviation="0.25"
                      result="effect1_foregroundBlur" />
    </filter>
    <filter id="filter2_f"
            x="30.5"
            y="22.5"
            width="51"
            height="51"
            filterUnits="userSpaceOnUse"
            color-interpolation-filters="sRGB">
      <feFlood flood-opacity="0"
               result="BackgroundImageFix" />
      <feBlend mode="normal"
               in="SourceGraphic"
               in2="BackgroundImageFix"
               result="shape" />
      <feGaussianBlur stdDeviation="0.25"
                      result="effect1_foregroundBlur" />
    </filter>
    <filter id="filter3_f"
            x="22.5"
            y="14.5"
            width="67"
            height="67"
            filterUnits="userSpaceOnUse"
            color-interpolation-filters="sRGB">
      <feFlood flood-opacity="0"
               result="BackgroundImageFix" />
      <feBlend mode="normal"
               in="SourceGraphic"
               in2="BackgroundImageFix"
               result="shape" />
      <feGaussianBlur stdDeviation="0.25"
                      result="effect1_foregroundBlur" />
    </filter>
    <filter id="filter4_f"
            x="14.5"
            y="6.5"
            width="83"
            height="83"
            filterUnits="userSpaceOnUse"
            color-interpolation-filters="sRGB">
      <feFlood flood-opacity="0"
               result="BackgroundImageFix" />
      <feBlend mode="normal"
               in="SourceGraphic"
               in2="BackgroundImageFix"
               result="shape" />
      <feGaussianBlur stdDeviation="0.25"
                      result="effect1_foregroundBlur" />
    </filter>
    <filter id="filter5_f"
            x="6.5"
            y="-1.5"
            width="99"
            height="99"
            filterUnits="userSpaceOnUse"
            color-interpolation-filters="sRGB">
      <feFlood flood-opacity="0"
               result="BackgroundImageFix" />
      <feBlend mode="normal"
               in="SourceGraphic"
               in2="BackgroundImageFix"
               result="shape" />
      <feGaussianBlur stdDeviation="0.25"
                      result="effect1_foregroundBlur" />
    </filter>
    <filter id="filter6_f"
            x="-1.5"
            y="-9.5"
            width="115"
            height="115"
            filterUnits="userSpaceOnUse"
            color-interpolation-filters="sRGB">
      <feFlood flood-opacity="0"
               result="BackgroundImageFix" />
      <feBlend mode="normal"
               in="SourceGraphic"
               in2="BackgroundImageFix"
               result="shape" />
      <feGaussianBlur stdDeviation="0.25"
                      result="effect1_foregroundBlur" />
    </filter>
    <filter id="filter7_f"
            x="24.467"
            y="45"
            width="63.0661"
            height="40"
            filterUnits="userSpaceOnUse"
            color-interpolation-filters="sRGB">
      <feFlood flood-opacity="0"
               result="BackgroundImageFix" />
      <feBlend mode="normal"
               in="SourceGraphic"
               in2="BackgroundImageFix"
               result="shape" />
      <feGaussianBlur stdDeviation="6"
                      result="effect1_foregroundBlur" />
    </filter>
    <filter id="filter8_dd"
            x="25"
            y="21"
            width="62"
            height="57"
            filterUnits="userSpaceOnUse"
            color-interpolation-filters="sRGB">
      <feFlood flood-opacity="0"
               result="BackgroundImageFix" />
      <feColorMatrix in="SourceAlpha"
                     type="matrix"
                     values="0 0 0 0 0 0 0 0 0 0 0 0 0 0 0 0 0 0 127 0" />
      <feOffset dy="3" />
      <feGaussianBlur stdDeviation="2.5" />
      <feColorMatrix type="matrix"
                     values="0 0 0 0 0.0705882 0 0 0 0 0.0941176 0 0 0 0 0.14902 0 0 0 0.04 0" />
      <feBlend mode="normal"
               in2="BackgroundImageFix"
               result="effect1_dropShadow" />
      <feColorMatrix in="SourceAlpha"
                     type="matrix"
                     values="0 0 0 0 0 0 0 0 0 0 0 0 0 0 0 0 0 0 127 0" />
      <feOffset dy="1" />
      <feGaussianBlur stdDeviation="1" />
      <feColorMatrix type="matrix"
                     values="0 0 0 0 0.0705882 0 0 0 0 0.0941176 0 0 0 0 0.14902 0 0 0 0.03 0" />
      <feBlend mode="normal"
               in2="effect1_dropShadow"
               result="effect2_dropShadow" />
      <feBlend mode="normal"
               in="SourceGraphic"
               in2="effect2_dropShadow"
               result="shape" />
    </filter>
    <filter id="filter9_dd"
            x="23"
            y="19"
            width="66"
            height="56"
            filterUnits="userSpaceOnUse"
            color-interpolation-filters="sRGB">
      <feFlood flood-opacity="0"
               result="BackgroundImageFix" />
      <feColorMatrix in="SourceAlpha"
                     type="matrix"
                     values="0 0 0 0 0 0 0 0 0 0 0 0 0 0 0 0 0 0 127 0" />
      <feOffset dy="3" />
      <feGaussianBlur stdDeviation="2.5" />
      <feColorMatrix type="matrix"
                     values="0 0 0 0 0.0705882 0 0 0 0 0.0941176 0 0 0 0 0.14902 0 0 0 0.04 0" />
      <feBlend mode="normal"
               in2="BackgroundImageFix"
               result="effect1_dropShadow" />
      <feColorMatrix in="SourceAlpha"
                     type="matrix"
                     values="0 0 0 0 0 0 0 0 0 0 0 0 0 0 0 0 0 0 127 0" />
      <feOffset dy="1" />
      <feGaussianBlur stdDeviation="1" />
      <feColorMatrix type="matrix"
                     values="0 0 0 0 0.0705882 0 0 0 0 0.0941176 0 0 0 0 0.14902 0 0 0 0.03 0" />
      <feBlend mode="normal"
               in2="effect1_dropShadow"
               result="effect2_dropShadow" />
      <feBlend mode="normal"
               in="SourceGraphic"
               in2="effect2_dropShadow"
               result="shape" />
    </filter>
    <radialGradient id="paint0_radial"
                    cx="0"
                    cy="0"
                    r="1"
                    gradientUnits="userSpaceOnUse"
                    gradientTransform="translate(56 48) rotate(90) scale(69 72.9204)">
      <stop offset="0.231884"
            stop-color="#C4C4C4" />
      <stop offset="0.724638"
            stop-color="#C4C4C4"
            stop-opacity="0" />
    </radialGradient>
  </defs>
</svg>
