<svg xmlns="http://www.w3.org/2000/svg"
     fill="none"
     viewBox="0 0 64 64">
  <path fill="currentColor"
        d="M16.088 6.909l-.388-.922.388.922zm7.37-2.237l.942-.334-.287-.811-.845.163.19.982zm21.454 2.237l-.388.921.388-.921zm-6.44-2.045l.214-.977-.84-.185-.308.803.934.359zm18.298 7.979l.964.263-.964-.263zm-.577-1.185l.388-.921-.388.921zM53.139 22.89l-.124.993.124-.992zm1.09-.729l-.965-.263.964.263zm-8.195 1.004l1-.03-1 .03zm1.124-1.022l.124-.992-.124.992zm-33.04 29.742l1 .03-1-.03zm1.402 1.946l-.276.961.276-.96zm-1.678-31.688l-.124-.992.124.992zm1.124 1.022l-1-.03 1 .03zM6.772 22.16l-.965.263.965-.263zm1.089.73l.124.992-.124-.992zM4.807 11.657l-.388-.921.388.921zm-.577 1.185l-.964.263.964-.263zm33.06 42.806l.67-.742-.67.742zm9.71-7.65a1 1 0 100 2v-2zm4 1h1a1 1 0 00-1-1v1zm-6-5a1 1 0 100-2v2zm-4-1h-1a1 1 0 001 1v-1zm9.243 7.242l.707.707-.707-.707zm-8.486 0l-.707.707.707-.707zm0-8.486l-.707-.707.707.707zm8.486 0l-.707.708.707-.708zm.687 3.409a1 1 0 001.973-.332l-1.973.332zm-9.86 1.668a1 1 0 00-1.973.332l1.973-.332zM50 52.998a1 1 0 102 0h-2zm-8-14a1 1 0 10-2 0h2zM16.476 7.83a36.141 36.141 0 017.171-2.176l-.379-1.964A38.14 38.14 0 0015.7 5.987l.776 1.843zm-11.28 4.75l11.28-4.75-.776-1.843-11.28 4.75.775 1.843zm2.54 9.318l-2.54-9.318-1.93.526 2.541 9.318 1.93-.526zm5.982-.747l-5.981.747.248 1.985 5.981-.748-.248-1.984zm1.4 30.764l.847-28.72-1.999-.06-.847 28.72 2 .06zM31 54.998a55.03 55.03 0 01-15.204-2.128l-.552 1.922A57.033 57.033 0 0031 56.998v-2zm22.264-33.1l-5.982-.747-.248 1.984 5.981.748.248-1.985zm2.54-9.318l-2.54 9.318 1.929.526 2.541-9.318-1.93-.526zm-11.28-4.75l11.28 4.75.777-1.843-11.28-4.75-.777 1.843zm-6.267-1.99c2.14.47 4.238 1.136 6.267 1.99l.776-1.843a38.14 38.14 0 00-6.614-2.1l-.43 1.953zM31 4.998a31.09 31.09 0 01-7.127-.823l-.458 1.947c2.437.573 4.976.876 7.585.876v-2zm0 4a7.002 7.002 0 01-6.437-4.244l-1.838.789A9.002 9.002 0 0031 10.998v-2zm-6.437-4.244a6.972 6.972 0 01-.163-.416l-1.885.668c.065.182.135.36.21.537l1.838-.789zm13.564-.579A31.092 31.092 0 0131 4.998v2c2.609 0 5.148-.303 7.585-.876l-.458-1.947zm-.59.33a6.959 6.959 0 01-.1.25l1.838.788c.045-.106.089-.213.13-.321l-1.867-.717zm-.1.25A7.002 7.002 0 0131 8.997v2c3.714 0 6.9-2.249 8.275-5.455l-1.838-.789zm20.297 8.351a2 2 0 00-1.153-2.37l-.776 1.844 1.93.526zm-4.719 10.777a2 2 0 002.178-1.459l-1.93-.526-.248 1.985zm-5.981-.748l.248-1.984a2 2 0 00-2.247 2.043l1.999-.059zm-33.915 28.72c-.039 1.334.811 2.56 2.125 2.937l.552-1.922a.954.954 0 01-.678-.955l-1.999-.06zm.847-28.72l2 .06a2 2 0 00-2.248-2.044l.248 1.984zm-8.159-.71a2 2 0 002.178 1.458l-.248-1.985-1.93.526zM4.42 10.736a2 2 0 00-1.153 2.37l1.93-.527-.777-1.843zM58 45.998c0 6.628-5.373 12-12 12v2c7.732 0 14-6.268 14-14h-2zm-24 0c0-6.627 5.373-12 12-12v-2c-7.732 0-14 6.268-14 14h2zm12-12c.1 0 .2.001.3.004l.049-2a13.946 13.946 0 00-.349-.004v2zm.3.004C52.789 34.16 58 39.47 58 45.998h2c0-7.615-6.08-13.81-13.651-13.996l-.05 2zm-1.265-10.808l.29 9.838 1.999-.06-.29-9.837-2 .059zM46 57.998c-3.093 0-5.911-1.17-8.04-3.091l-1.34 1.484A13.952 13.952 0 0046 59.998v-2zm-8.04-3.091A11.967 11.967 0 0134 45.998h-2c0 4.124 1.784 7.832 4.62 10.393l1.34-1.484zm-.781-.252c-2.028.227-4.09.343-6.179.343v2c2.164 0 4.3-.12 6.401-.355l-.222-1.988zM47 49.998h4v-2h-4v2zm-2-8h-4v2h4v-2zm4.536 7.536a5 5 0 01-7.072 0l-1.414 1.414a7 7 0 009.9 0l-1.414-1.414zm-7.072-7.071a5 5 0 017.072 0l1.414-1.415a7 7 0 00-9.9 0l1.415 1.415zm7.072 0a4.973 4.973 0 011.394 2.7l1.973-.33a6.973 6.973 0 00-1.953-3.785l-1.414 1.415zm-7.072 7.07a4.972 4.972 0 01-1.394-2.7l-1.973.33a6.973 6.973 0 001.953 3.785l1.415-1.414zm7.703-.77c-.18.272-.39.53-.631.77l1.414 1.415a7.02 7.02 0 00.883-1.078l-1.666-1.107zm-.167.235v.319h2v-.319h-2zm0 .319v3.681h2v-3.681h-2zm-8.167-6.084c.18-.271.39-.53.632-.77l-1.415-1.415c-.335.335-.629.696-.883 1.078l1.666 1.107zm.167-.235v-.319h-2V43h2zm0-.319V39h-2v3.68h2z" />
</svg>
