<svg xmlns="http://www.w3.org/2000/svg"
     fill="none"
     viewBox="0 0 64 64">
  <path fill="currentColor"
        d="M8 41H7v1h1v-1zm32-27a1 1 0 100 2v-2zm16.869 3.824l.956-.294-.956.294zm2.777 9.026l.956-.294-.956.294zM60 45v1h1v-1h-1zm-6.586-.586l-.707.707.707-.707zm-42 5l-.707.707.707-.707zM55 45v-1h-1v1h1zm5-9a1 1 0 100-2v2zm0 6a1 1 0 100-2v2zm-6.53-22.298l-.955.298.954-.298zm2.5 8l.954-.299-.955.299zm-7.924 1.033l.678-.735-.678.735zm-3.724-3.438l-.679.735.679-.735zM2 15a1 1 0 100 2v-2zm12 2a1 1 0 100-2v2zm6-2a1 1 0 100 2v-2zm4 2a1 1 0 100-2v2zm-11 2a1 1 0 100 2v-2zm22 2a1 1 0 100-2v2zM6 25a1 1 0 100 2v-2zm22 2a1 1 0 100-2v2zM12 10h24V8H12v2zm27 3v28h2V13h-2zm1 27H8v2h32v-2zM9 41V13H7v28h2zm27-31a3 3 0 013 3h2a5 5 0 00-5-5v2zM12 8a5 5 0 00-5 5h2a3 3 0 013-3V8zm28 8h13.046v-2H40v2zm15.913 2.118l2.778 9.026 1.911-.588-2.777-9.026-1.912.588zM59 29.203V45h2V29.203h-2zM49.172 40H40v2h9.172v-2zM60 44h-5.172v2H60v-2zm-5.879-.293l-2.828-2.828-1.414 1.414 2.828 2.828 1.414-1.414zM49.171 42a1 1 0 01.708.293l1.414-1.414A3 3 0 0049.172 40v2zm9.52-14.856A7 7 0 0159 29.203h2c0-.897-.134-1.79-.398-2.647l-1.911.588zM54.828 44a1 1 0 01-.707-.293l-1.414 1.414a3 3 0 002.121.879v-2zm-1.782-28a3 3 0 012.867 2.118l1.912-.588a5 5 0 00-4.78-3.53v2zM51 50a4 4 0 01-4 4v2a6 6 0 006-6h-2zm-4 4a4 4 0 01-4-4h-2a6 6 0 006 6v-2zm-4-4a4 4 0 014-4v-2a6 6 0 00-6 6h2zm4-4a4 4 0 014 4h2a6 6 0 00-6-6v2zm-23 4a4 4 0 01-4 4v2a6 6 0 006-6h-2zm-4 4a4 4 0 01-4-4h-2a6 6 0 006 6v-2zm-4-4a4 4 0 014-4v-2a6 6 0 00-6 6h2zm4-4a4 4 0 014 4h2a6 6 0 00-6-6v2zm5 5h17v-2H25v2zm-12.172 0H15v-2h-2.172v2zm-.707-2.293l-3.414-3.414-1.414 1.414 3.414 3.414 1.414-1.414zm.707.293a1 1 0 01-.707-.293l-1.414 1.414a3 3 0 002.121.879v-2zM52 51h4v-2h-4v2zm3-5h6v-2h-6v2zm6 0v3h2v-3h-2zm0 3h-5v2h5v-2zm-7-4v4h2v-4h-2zm2 4h-2a2 2 0 002 2v-2zm5 0v2a2 2 0 002-2h-2zm0-3h2a2 2 0 00-2-2v2zm-4-10h3v-2h-3v2zm3 4h-3v2h3v-2zm-5-4v4h2v-4h-2zm2 4h-2a2 2 0 002 2v-2zm0-6a2 2 0 00-2 2h2v-2zM5 42h5v-2H5v2zm5 0v3h2v-3h-2zm0 3H5v2h5v-2zm-7-3v3h2v-3H3zm2 3H3a2 2 0 002 2v-2zm5 0v2a2 2 0 002-2h-2zm0-3h2a2 2 0 00-2-2v2zm-5-2a2 2 0 00-2 2h2v-2zm42 10v2a2 2 0 002-2h-2zm0 0h-2a2 2 0 002 2v-2zm0 0v-2a2 2 0 00-2 2h2zm0 0h2a2 2 0 00-2-2v2zm-27 0v2a2 2 0 002-2h-2zm0 0h-2a2 2 0 002 2v-2zm0 0v-2a2 2 0 00-2 2h2zm0 0h2a2 2 0 00-2-2v2zm25-25.438V20h-2v4.562h2zM52.515 18H45v2h7.515v-2zm0 2l2.5 8 1.909-.597-2.5-8-1.91.597zm-3.79 8L45 24.562l-1.357 1.47 3.725 3.438L48.724 28zm0 2h6.29v-2h-6.29v2zm-1.357-.53a2 2 0 001.356.53v-2l-1.356 1.47zM55.015 28v2a2 2 0 001.909-2.597l-1.91.597zm-2.5-8l1.909-.596A2 2 0 0052.514 18v2zM45 20v-2a2 2 0 00-2 2h2zm-2 4.562a2 2 0 00.643 1.47L45 24.562h-2zM2 17h12v-2H2v2zm18 0h4v-2h-4v2zm-7 4h22v-2H13v2zm-7 6h22v-2H6v2z" />
</svg>
