<svg xmlns="http://www.w3.org/2000/svg"
     fill="none"
     viewBox="0 0 64 64">
  <path fill="currentColor"
        d="M38.75 61.401l-.624.781.625-.78zm-5.5-4.4l.624-.782-.625.781zm-2.5 0l-.624-.782.625.781zm-5.5 4.4l.624.781-.624-.78zm-3.791-54.41l-.08-.998.08.997zm4.552-1.887l-.648-.76.648.76zm-12.938 9.308l.997.08-.997-.08zm7.338-7.338l.08.997-.08-.997zm-9.307 12.938l-.761-.649.76.65zm1.885-4.553l-.996-.079.996.08zm-2.567 15.73l.761-.648-.76.649zm0-10.377l.761.648-.76-.648zm2.567 15.73l-.996.08.996-.08zm-1.885-4.552l-.761.648.76-.648zm9.307 12.938l-.08.997.08-.997zm-7.338-7.338l.997-.08-.997.08zm12.938 9.307l.649-.76-.649.76zm-4.552-1.886l.08-.996-.08.996zm15.73 2.568l-.649-.761.649.76zm-10.378 0l-.648.761.648-.761zm15.73-2.568l-.08-.996.08.996zm-4.552 1.886l.649.761-.65-.76zm12.938-9.307l.997.08-.997-.08zm-7.338 7.338l.08.997-.08-.997zm9.308-12.938l-.762-.649.762.649zm-1.886 4.552l-.997-.08.997.08zm2.567-15.73l-.761.648.761-.648zm0 10.378l.761.648-.76-.648zm-2.567-15.73l-.997.08.997-.08zm1.886 4.552l.76-.649-.76.65zM43.589 7.074l-.08.997.08-.997zm7.338 7.338l.997-.08-.997.08zM37.99 5.104l-.649.762.649-.762zM42.54 6.99l.08-.997-.08.997zM37.19 4.423l.649-.761-.649.76zm-10.378 0l.649.76-.649-.76zm15.19 40.65l-.148-.989.147.99zm-20 0l.146-.989-.147.99zm5.706-18.78a1 1 0 00-1.414 1.415l1.414-1.414zM31 31.002l-.707.707a1 1 0 001.54-.152L31 31zm6.832-8.446a1 1 0 10-1.664-1.109l1.664 1.11zM40.5 40.724a1 1 0 00-1-1.732l1 1.732zm-22.356-6.722l.866-.5-.866.5zM24 12.144l.5.866-.5-.866zm21.856 5.857l.866-.5-.866.5zm.633 11.882a1 1 0 101.932.518l-1.932-.518zm.236 4.618a1 1 0 10-1.733-.998l1.733.998zM42.61 36.61a1 1 0 001.413 1.415L42.61 36.61zm-3.235 24.01l-5.5-4.4-1.25 1.561 5.501 4.401 1.25-1.562zm-9.249-4.4l-5.501 4.4 1.25 1.562 5.5-4.4-1.249-1.563zm3.748 0a3 3 0 00-3.748 0l1.25 1.561a1 1 0 011.249 0l1.25-1.562zm-9.25 4.4A1 1 0 0123 59.84h-2c0 2.515 2.91 3.914 4.874 2.342l-1.25-1.562zm13.502 1.562C40.09 63.754 43 62.355 43 59.84h-2a1 1 0 01-1.625.78l-1.249 1.562zM36.54 5.184l.8.682 1.297-1.523-.8-.681-1.297 1.522zm5.922 2.803l1.047.084.16-1.994-1.048-.084-.16 1.994zm7.468 6.505l.084 1.047 1.994-.159-.084-1.048-1.994.16zm2.205 6.169l.682.8 1.522-1.298-.681-.8-1.523 1.298zm.682 9.88l-.682.8 1.523 1.297.681-.8-1.522-1.297zm-2.803 5.922l-.084 1.047 1.994.16.084-1.048-1.994-.16zm-6.505 7.468l-1.047.084.159 1.993 1.047-.083-.159-1.994zm-6.169 2.205l-.8.682 1.298 1.522.8-.682-1.298-1.522zm-9.88.682l-.8-.682-1.297 1.522.8.682 1.297-1.522zm-5.922-2.803l-1.047-.084-.16 1.994 1.048.083.16-1.993zM14.07 37.51l-.084-1.047-1.993.159.083 1.047 1.994-.159zm-2.205-6.169l-.682-.8-1.522 1.297.682.8 1.522-1.297zm-.682-9.88l.682-.8-1.522-1.298-.682.8 1.522 1.297zm2.803-5.922l.084-1.047-1.994-.16-.083 1.048 1.993.16zm6.505-7.468l1.047-.084-.159-1.994-1.047.084.159 1.994zm6.169-2.205l.8-.682-1.297-1.522-.8.681 1.297 1.523zm-5.122 2.121a9 9 0 005.122-2.121l-1.297-1.523a7 7 0 01-3.984 1.65l.16 1.994zm-7.468 6.505a7 7 0 016.42-6.421l-.158-1.994a9 9 0 00-8.256 8.255l1.994.16zm-2.205 6.169a9 9 0 002.121-5.122l-1.993-.159a7 7 0 01-1.65 3.983l1.522 1.298zm-.682 9.88a7 7 0 010-9.08l-1.522-1.298a9 9 0 000 11.675l1.522-1.297zm2.803 5.922a9 9 0 00-2.121-5.122l-1.522 1.297a7 7 0 011.65 3.984l1.993-.16zm6.505 7.468a7 7 0 01-6.421-6.42l-1.994.158a9 9 0 008.256 8.256l.159-1.994zm16.05 2.887a7 7 0 01-9.081 0l-1.297 1.522a9 9 0 0011.675 0l-1.298-1.522zm13.39-9.308a7 7 0 01-6.422 6.421l.16 1.994a9 9 0 008.255-8.256l-1.994-.159zm2.204-6.169a9 9 0 00-2.121 5.122l1.994.159a7 7 0 011.65-3.984l-1.523-1.297zm.682-9.88a7 7 0 010 9.08l1.522 1.297a9 9 0 000-11.675l-1.522 1.297zm-2.803-5.922a9 9 0 002.121 5.122l1.523-1.298a7 7 0 01-1.65-3.983l-1.994.16zm-6.505-7.468a7 7 0 016.421 6.42l1.994-.159a9 9 0 00-8.255-8.255l-.16 1.994zM37.34 5.866a9 9 0 005.122 2.121l.159-1.994a7 7 0 01-3.983-1.65L37.34 5.866zm.498-2.204a9 9 0 00-11.675 0l1.297 1.522a7 7 0 019.08 0l1.298-1.522zm4.624 40.353c-.204.016-.407.04-.61.07l.295 1.977c.157-.023.315-.041.474-.054l-.16-1.993zm-.61.07a9 9 0 00-4.512 2.051l1.297 1.522a7 7 0 013.51-1.596l-.294-1.978zm-.852.988V59.84h2V45.073h-2zm-14.34 1.063a9 9 0 00-4.513-2.052l-.294 1.978a7 7 0 013.51 1.596l1.297-1.522zm-4.513-2.052a9.016 9.016 0 00-.609-.07l-.159 1.994c.16.013.317.031.474.054l.294-1.978zM23 59.84V45.073h-2V59.84h2zm3.293-32.132l4 4 1.414-1.414-4-4-1.414 1.414zm5.54 3.848l6-9-1.665-1.11-6 9 1.664 1.11zM39.5 38.99c-7.174 4.142-16.348 1.684-20.49-5.49l-1.732 1c4.694 8.13 15.091 10.917 23.222 6.222l-1-1.732zm-20.49-5.49c-4.142-7.175-1.684-16.348 5.49-20.49l-1-1.733c-8.13 4.695-10.917 15.092-6.222 23.223l1.732-1zm5.49-20.49c7.174-4.143 16.348-1.685 20.49 5.49l1.732-1C42.028 9.37 31.632 6.584 23.5 11.278l1 1.732zm20.49 5.49a14.95 14.95 0 011.499 11.382l1.932.518a16.95 16.95 0 00-1.699-12.9l-1.732 1zm.002 15.002a14.904 14.904 0 01-2.382 3.107l1.413 1.415a16.907 16.907 0 002.702-3.524l-1.733-.998z" />
</svg>
