<svg viewBox="0 0 112 96"
     fill="none"
     version="1.1" xmlns="http://www.w3.org/2000/svg">
  <mask id="mask0"
        mask-type="alpha"
        maskUnits="userSpaceOnUse"
        x="4"
        y="4"
        width="104"
        height="88">
    <rect x="4"
          y="4"
          width="104"
          height="88"
          fill="url(#paint0_radial)" />
  </mask>
  <g mask="url(#mask0)">
    <g filter="url(#filter0_dd)">
      <path d="M44 49C44 47.8954 44.8954 47 46 47H66C67.1046 47 68 47.8954 68 49V83.7299C68 85.4256 66.0223 86.3519 64.7196 85.2664L57.2804 79.067C56.5387 78.4489 55.4613 78.4489 54.7196 79.067L47.2804 85.2664C45.9777 86.3519 44 85.4256 44 83.7299V49Z"
            fill="white" />
      <path d="M46 46.5C44.6193 46.5 43.5 47.6193 43.5 49V83.7299C43.5 85.8495 45.9721 87.0074 47.6005 85.6505L55.0397 79.4511C55.596 78.9875 56.404 78.9875 56.9603 79.4511L64.3995 85.6505C66.0279 87.0074 68.5 85.8495 68.5 83.7299V49C68.5 47.6193 67.3807 46.5 66 46.5H46Z"
            stroke="#121826"
            stroke-opacity="0.08" />
    </g>
  </g>
  <g opacity="0.2"
     filter="url(#filter1_f)">
    <path d="M50.8111 15.422C53.8011 12.8739 58.1989 12.8739 61.1889 15.422L63.8256 17.669C65.1069 18.7609 66.7001 19.4208 68.3782 19.5547L71.8315 19.8303C75.7476 20.1428 78.8572 23.2525 79.1697 27.1685L79.4453 30.6218C79.5792 32.2999 80.2391 33.8931 81.331 35.1744L83.578 37.8111C86.1261 40.8011 86.1261 45.1989 83.578 48.1889L81.331 50.8256C80.2391 52.1069 79.5792 53.7001 79.4453 55.3782L79.1697 58.8315C78.8572 62.7475 75.7475 65.8572 71.8315 66.1697L68.3782 66.4453C66.7001 66.5792 65.1069 67.2391 63.8256 68.331L61.1889 70.578C58.1989 73.1261 53.8011 73.1261 50.8111 70.578L48.1744 68.331C46.8931 67.2391 45.2999 66.5792 43.6218 66.4453L40.1685 66.1697C36.2525 65.8572 33.1428 62.7475 32.8303 58.8315L32.5547 55.3782C32.4208 53.7001 31.7609 52.1069 30.669 50.8256L28.422 48.1889C25.8739 45.1989 25.8739 40.8011 28.422 37.8111L30.669 35.1744C31.7609 33.8931 32.4208 32.2999 32.5547 30.6218L32.8303 27.1685C33.1428 23.2524 36.2525 20.1428 40.1685 19.8303L43.6218 19.5547C45.2999 19.4208 46.8931 18.7609 48.1744 17.669L50.8111 15.422Z"
          fill="#4F46E5" />
  </g>
  <g filter="url(#filter2_dd)">
    <path d="M50.8111 12.422C53.8011 9.87387 58.1989 9.87387 61.1889 12.422L63.8256 14.669C65.1069 15.7609 66.7001 16.4208 68.3782 16.5547L71.8315 16.8303C75.7476 17.1428 78.8572 20.2525 79.1697 24.1685L79.4453 27.6218C79.5792 29.2999 80.2391 30.8931 81.331 32.1744L83.578 34.8111C86.1261 37.8011 86.1261 42.1989 83.578 45.1889L81.331 47.8256C80.2391 49.1069 79.5792 50.7001 79.4453 52.3782L79.1697 55.8315C78.8572 59.7475 75.7475 62.8572 71.8315 63.1697L68.3782 63.4453C66.7001 63.5792 65.1069 64.2391 63.8256 65.331L61.1889 67.578C58.1989 70.1261 53.8011 70.1261 50.8111 67.578L48.1744 65.331C46.8931 64.2391 45.2999 63.5792 43.6218 63.4453L40.1685 63.1697C36.2525 62.8572 33.1428 59.7475 32.8303 55.8315L32.5547 52.3782C32.4208 50.7001 31.7609 49.1069 30.669 47.8256L28.422 45.1889C25.8739 42.1989 25.8739 37.8011 28.422 34.8111L30.669 32.1744C31.7609 30.8931 32.4208 29.2999 32.5547 27.6218L32.8303 24.1685C33.1428 20.2524 36.2525 17.1428 40.1685 16.8303L43.6218 16.5547C45.2999 16.4208 46.8931 15.7609 48.1744 14.669L50.8111 12.422Z"
          fill="white" />
    <path d="M61.5132 12.0414C58.3363 9.33406 53.6637 9.33406 50.4868 12.0414L47.8501 14.2884C46.6488 15.3121 45.1553 15.9307 43.582 16.0563L40.1288 16.3318C35.9679 16.6639 32.6639 19.9679 32.3318 24.1288L32.0563 27.582C31.9307 29.1553 31.3121 30.6488 30.2884 31.8501L28.0414 34.4868C25.3341 37.6637 25.3341 42.3363 28.0414 45.5132L30.2884 48.1499C31.3121 49.3512 31.9307 50.8447 32.0563 52.418L32.3318 55.8712C32.6639 60.0321 35.9679 63.3361 40.1288 63.6682L43.582 63.9437C45.1553 64.0693 46.6488 64.6879 47.8501 65.7116L50.4868 67.9586C53.6637 70.6659 58.3363 70.6659 61.5132 67.9586L64.1499 65.7116C65.3512 64.6879 66.8447 64.0693 68.418 63.9437L71.8712 63.6682C76.0321 63.3361 79.3361 60.0321 79.6682 55.8712L79.9437 52.418C80.0693 50.8447 80.6879 49.3512 81.7116 48.1499L83.9586 45.5132C86.6659 42.3363 86.6659 37.6637 83.9586 34.4868L81.7116 31.8501C80.6879 30.6488 80.0693 29.1553 79.9437 27.582L79.6682 24.1288C79.3361 19.9679 76.0321 16.6639 71.8712 16.3318L68.418 16.0563C66.8447 15.9307 65.3512 15.3121 64.1499 14.2884L61.5132 12.0414Z"
          stroke="#121826"
          stroke-opacity="0.08" />
  </g>
  <circle opacity="0.6"
          cx="56"
          cy="40"
          r="20"
          stroke="#E5E7EB"
          stroke-width="2" />
  <path d="M49 41L52.4373 44.4373C53.274 45.274 54.6502 45.2054 55.3994 44.2896L63 35"
        stroke="#4F46E5"
        stroke-width="2"
        stroke-linecap="round" />
  <defs>
    <filter id="filter0_dd"
            x="38"
            y="44"
            width="36"
            height="50.7357"
            filterUnits="userSpaceOnUse"
            color-interpolation-filters="sRGB">
      <feFlood flood-opacity="0"
               result="BackgroundImageFix" />
      <feColorMatrix in="SourceAlpha"
                     type="matrix"
                     values="0 0 0 0 0 0 0 0 0 0 0 0 0 0 0 0 0 0 127 0" />
      <feOffset dy="3" />
      <feGaussianBlur stdDeviation="2.5" />
      <feColorMatrix type="matrix"
                     values="0 0 0 0 0.0705882 0 0 0 0 0.0941176 0 0 0 0 0.14902 0 0 0 0.04 0" />
      <feBlend mode="normal"
               in2="BackgroundImageFix"
               result="effect1_dropShadow" />
      <feColorMatrix in="SourceAlpha"
                     type="matrix"
                     values="0 0 0 0 0 0 0 0 0 0 0 0 0 0 0 0 0 0 127 0" />
      <feOffset dy="1" />
      <feGaussianBlur stdDeviation="1" />
      <feColorMatrix type="matrix"
                     values="0 0 0 0 0.0705882 0 0 0 0 0.0941176 0 0 0 0 0.14902 0 0 0 0.03 0" />
      <feBlend mode="normal"
               in2="effect1_dropShadow"
               result="effect2_dropShadow" />
      <feBlend mode="normal"
               in="SourceGraphic"
               in2="effect2_dropShadow"
               result="shape" />
    </filter>
    <filter id="filter1_f"
            x="22.511"
            y="9.51099"
            width="66.9782"
            height="66.9782"
            filterUnits="userSpaceOnUse"
            color-interpolation-filters="sRGB">
      <feFlood flood-opacity="0"
               result="BackgroundImageFix" />
      <feBlend mode="normal"
               in="SourceGraphic"
               in2="BackgroundImageFix"
               result="shape" />
      <feGaussianBlur stdDeviation="2"
                      result="effect1_foregroundBlur" />
    </filter>
    <filter id="filter2_dd"
            x="20.511"
            y="7.51099"
            width="70.9782"
            height="70.9782"
            filterUnits="userSpaceOnUse"
            color-interpolation-filters="sRGB">
      <feFlood flood-opacity="0"
               result="BackgroundImageFix" />
      <feColorMatrix in="SourceAlpha"
                     type="matrix"
                     values="0 0 0 0 0 0 0 0 0 0 0 0 0 0 0 0 0 0 127 0" />
      <feOffset dy="3" />
      <feGaussianBlur stdDeviation="2.5" />
      <feColorMatrix type="matrix"
                     values="0 0 0 0 0.0705882 0 0 0 0 0.0941176 0 0 0 0 0.14902 0 0 0 0.04 0" />
      <feBlend mode="normal"
               in2="BackgroundImageFix"
               result="effect1_dropShadow" />
      <feColorMatrix in="SourceAlpha"
                     type="matrix"
                     values="0 0 0 0 0 0 0 0 0 0 0 0 0 0 0 0 0 0 127 0" />
      <feOffset dy="1" />
      <feGaussianBlur stdDeviation="1" />
      <feColorMatrix type="matrix"
                     values="0 0 0 0 0.0705882 0 0 0 0 0.0941176 0 0 0 0 0.14902 0 0 0 0.03 0" />
      <feBlend mode="normal"
               in2="effect1_dropShadow"
               result="effect2_dropShadow" />
      <feBlend mode="normal"
               in="SourceGraphic"
               in2="effect2_dropShadow"
               result="shape" />
    </filter>
    <radialGradient id="paint0_radial"
                    cx="0"
                    cy="0"
                    r="1"
                    gradientUnits="userSpaceOnUse"
                    gradientTransform="translate(56 16) rotate(90) scale(101 106.739)">
      <stop offset="0.542079"
            stop-color="#C4C4C4" />
      <stop offset="0.757426"
            stop-color="#C4C4C4"
            stop-opacity="0" />
    </radialGradient>
  </defs>
</svg>
